<svg width="17" height="16" viewBox="0 0 17 16" fill="none" xmlns="http://www.w3.org/2000/svg">
<g clip-path="url(#clip0_7459_6923)">
<path d="M8.83333 4.66634V14.9997M8.83333 4.66634C7.5 4.66634 6.16667 3.66634 6.16667 3.66634C6.36667 2.33301 7.5 1.33301 8.83333 1.33301C10.1667 1.33301 11.3 2.33301 11.5 3.66634C11.5 3.66634 10.1667 4.66634 8.83333 4.66634ZM8.83333 14.9997C11.7667 14.9997 14.1667 12.2619 14.1667 8.95101C14.1667 6.65885 13.1 4.68507 11.4333 3.66634M8.83333 14.9997C5.9 14.9997 3.5 12.2619 3.5 8.95101C3.5 6.65885 4.63333 4.68507 6.23333 3.66634M3.5 8.99967H1.5M16.1667 8.99967H14.1667M3.5 3.66634L4.83333 4.99967L4.5 4.66634M14.1667 14.333L12.8333 12.9997L13.0715 13.2377M3.5 14.333L4.83333 12.9997L4.74201 13.091M14.1667 3.66634L12.8333 4.99967L13.0431 4.78995" stroke="#DC244C" stroke-linecap="round" stroke-linejoin="round"/>
</g>
<defs>
<clipPath id="clip0_7459_6923">
<rect width="16" height="16" fill="white" transform="translate(0.5)"/>
</clipPath>
</defs>
</svg>
