<svg width="16" height="16" viewBox="0 0 16 16" fill="none" xmlns="http://www.w3.org/2000/svg">
<path fill-rule="evenodd" clip-rule="evenodd" d="M5 0.5C5 0.223858 5.22386 0 5.5 0H10.5C10.7761 0 11 0.223858 11 0.5V3H14.5C14.8978 3 15.2794 3.15804 15.5607 3.43934C15.842 3.72064 16 4.10218 16 4.5V9.5C16 9.77614 15.7761 10 15.5 10H0.5C0.223858 10 0 9.77614 0 9.5V4.5C0 4.10218 0.158035 3.72064 0.43934 3.43934C0.720644 3.15804 1.10218 3 1.5 3H5V0.5ZM10 1V3H6V1H10ZM1.5 4H5.5H10.5H14.5C14.6326 4 14.7598 4.05268 14.8536 4.14645C14.9473 4.24021 15 4.36739 15 4.5V9H1V4.5C1 4.36739 1.05268 4.24021 1.14645 4.14645C1.24021 4.05268 1.36739 4 1.5 4ZM2 11.5C2 11.2239 1.77614 11 1.5 11C1.22386 11 1 11.2239 1 11.5V13.5C1 13.8978 1.15804 14.2794 1.43934 14.5607C1.72064 14.842 2.10217 15 2.5 15H13.5C13.8978 15 14.2794 14.842 14.5607 14.5607C14.842 14.2794 15 13.8978 15 13.5V11.5C15 11.2239 14.7761 11 14.5 11C14.2239 11 14 11.2239 14 11.5V13.5C14 13.6326 13.9473 13.7598 13.8536 13.8536C13.7598 13.9473 13.6326 14 13.5 14H2.5C2.36739 14 2.24021 13.9473 2.14645 13.8536C2.05268 13.7598 2 13.6326 2 13.5V11.5Z" fill="#DC244C"/>
</svg>
