<svg width="16" height="16" viewBox="0 0 16 16" fill="none" xmlns="http://www.w3.org/2000/svg">
<g clip-path="url(#clip0_2279_12712)">
<path fill-rule="evenodd" clip-rule="evenodd" d="M7.2842 1.0357C8.91326 0.868317 10.5494 1.2774 11.908 2.19175C12.9861 2.91729 13.8352 3.92453 14.3689 5.09508L10.2827 3.72793C10.0208 3.64031 9.7375 3.78157 9.64988 4.04345C9.56227 4.30532 9.70353 4.58864 9.9654 4.67626L15.0524 6.37826C15.2057 6.42954 15.3743 6.40357 15.505 6.30853C15.6358 6.2135 15.7125 6.06112 15.711 5.8995L15.662 0.5645C15.6595 0.28837 15.4336 0.0665775 15.1575 0.0691138C14.8813 0.0716499 14.6595 0.297554 14.6621 0.573685L14.69 3.61274C14.1102 2.72848 13.3566 1.96127 12.4664 1.36214C10.9137 0.317161 9.04377 -0.150357 7.182 0.0409326C5.32022 0.232222 3.58444 1.07021 2.27669 2.40908C0.968932 3.74796 0.171989 5.50296 0.024529 7.36872C0.00277196 7.64401 0.208296 7.88481 0.48358 7.90656C0.758864 7.92832 0.999663 7.7228 1.02142 7.44751C1.15045 5.81497 1.84777 4.27934 2.99206 3.10783C4.13634 1.93631 5.65515 1.20307 7.2842 1.0357ZM0.4951 9.69169C0.625839 9.59666 0.794454 9.57068 0.947733 9.62197L6.03473 11.324C6.29661 11.4116 6.43787 11.6949 6.35025 11.9568C6.26263 12.2187 5.97932 12.3599 5.71744 12.2723L1.63084 10.905C2.16453 12.0756 3.01368 13.0829 4.09177 13.8085C5.45037 14.7228 7.08654 15.1319 8.7156 14.9645C10.3447 14.7971 11.8635 14.0639 13.0077 12.8924C14.152 11.7209 14.8494 10.1852 14.9784 8.55271C15.0001 8.27742 15.2409 8.0719 15.5162 8.09366C15.7915 8.11541 15.997 8.35621 15.9753 8.6315C15.8278 10.4973 15.0309 12.2523 13.7231 13.5911C12.4154 14.93 10.6796 15.768 8.81781 15.9593C6.95603 16.1506 5.08611 15.6831 3.53343 14.6381C2.64338 14.0391 1.88986 13.272 1.31016 12.388L1.33807 15.4265C1.3406 15.7027 1.11881 15.9286 0.84268 15.9311C0.566549 15.9336 0.340645 15.7119 0.338109 15.4357L0.289109 10.1007C0.287625 9.9391 0.36436 9.78673 0.4951 9.69169Z" fill="#DC244C"/>
</g>
<defs>
<clipPath id="clip0_2279_12712">
<rect width="16" height="16" fill="white"/>
</clipPath>
</defs>
</svg>
