<svg width="16" height="16" viewBox="0 0 16 16" fill="none" xmlns="http://www.w3.org/2000/svg">
<g clip-path="url(#clip0_10297_23393)">
<path d="M10 14L12.6667 14" stroke="#DC244C" stroke-linecap="round" stroke-linejoin="round"/>
<path d="M8 12.667L8 10.0003" stroke="#DC244C" stroke-linecap="round" stroke-linejoin="round"/>
<path d="M4 14L6 14" stroke="#DC244C" stroke-linecap="round" stroke-linejoin="round"/>
<path d="M8.00033 15.3337C8.73671 15.3337 9.33366 14.7367 9.33366 14.0003C9.33366 13.2639 8.73671 12.667 8.00033 12.667C7.26395 12.667 6.66699 13.2639 6.66699 14.0003C6.66699 14.7367 7.26395 15.3337 8.00033 15.3337Z" stroke="#DC244C" stroke-linecap="round" stroke-linejoin="round"/>
<path d="M12.667 4.66701C12.649 4.66701 12.6323 4.67168 12.615 4.67234C12.4566 3.5613 11.9027 2.54471 11.0549 1.80928C10.2072 1.07384 9.1226 0.668945 8.00033 0.668945C6.87805 0.668945 5.79345 1.07384 4.94573 1.80928C4.098 2.54471 3.54407 3.5613 3.38566 4.67234C3.36833 4.67168 3.35166 4.66701 3.33366 4.66701C2.62641 4.66701 1.94814 4.94796 1.44804 5.44806C0.947944 5.94815 0.666992 6.62643 0.666992 7.33368C0.666992 8.04092 0.947944 8.7192 1.44804 9.21929C1.94814 9.71939 2.62641 10.0003 3.33366 10.0003H12.667C13.3742 10.0003 14.0525 9.71939 14.5526 9.21929C15.0527 8.7192 15.3337 8.04092 15.3337 7.33368C15.3337 6.62643 15.0527 5.94815 14.5526 5.44806C14.0525 4.94796 13.3742 4.66701 12.667 4.66701Z" stroke="#DC244C" stroke-linecap="round" stroke-linejoin="round"/>
<rect x="0.5" y="12.5" width="3" height="3" rx="0.833333" stroke="#DC244C"/>
<rect x="12.5" y="12.5" width="3" height="3" rx="0.833333" stroke="#DC244C"/>
</g>
<defs>
<clipPath id="clip0_10297_23393">
<rect width="16" height="16" fill="white"/>
</clipPath>
</defs>
</svg>
