<svg width="16" height="16" viewBox="0 0 16 16" fill="none" xmlns="http://www.w3.org/2000/svg">
<g clip-path="url(#clip0_2279_22485)">
<path fill-rule="evenodd" clip-rule="evenodd" d="M1 2C1 1.44772 1.44772 1 2 1H14C14.5523 1 15 1.44772 15 2V14C15 14.5523 14.5523 15 14 15H13.9122C13.3852 11.9354 10.5743 9.75064 7.42833 10.0513L7.42827 10.0513C4.71935 10.3105 2.54429 12.355 2.08775 15H2C1.44772 15 1 14.5523 1 14V2ZM2.5178 16C2.52294 16.0001 2.52807 16.0001 2.53318 16H13.4666C13.4717 16.0001 13.4769 16.0001 13.482 16H14C15.1046 16 16 15.1046 16 14V2C16 0.89543 15.1046 0 14 0H2C0.89543 0 0 0.89543 0 2V14C0 15.1046 0.89543 16 2 16H2.5178ZM12.8945 15H3.10562C3.54799 12.879 5.32476 11.2572 7.52347 11.0468C10.0867 10.8018 12.3825 12.5364 12.8945 15ZM8 4C6.89543 4 6 4.89543 6 6C6 7.10457 6.89543 8 8 8C9.10457 8 10 7.10457 10 6C10 4.89543 9.10457 4 8 4ZM5 6C5 4.34315 6.34315 3 8 3C9.65685 3 11 4.34315 11 6C11 7.65685 9.65685 9 8 9C6.34315 9 5 7.65685 5 6Z" fill="#DC244C"/>
</g>
<defs>
<clipPath id="clip0_2279_22485">
<rect width="16" height="16" fill="white"/>
</clipPath>
</defs>
</svg>
