<svg width="16" height="16" viewBox="0 0 16 16" fill="none" xmlns="http://www.w3.org/2000/svg">
<g clip-path="url(#clip0_2279_21512)">
<path fill-rule="evenodd" clip-rule="evenodd" d="M3.92875 1.24275C3.83838 1.09215 3.67563 1 3.5 1C3.32437 1 3.16162 1.09215 3.07125 1.24275L0.0712536 6.24275C-0.0214256 6.39722 -0.0238527 6.58959 0.0649001 6.74635C0.153653 6.9031 0.319864 7 0.5 7H6.5C6.68014 7 6.84635 6.9031 6.9351 6.74635C7.02385 6.58959 7.02143 6.39722 6.92875 6.24275L3.92875 1.24275ZM3.5 2.47183L5.6169 6H1.3831L3.5 2.47183ZM12.5 3C11.1193 3 10 4.11929 10 5.5C10 6.88071 11.1193 8 12.5 8C13.8807 8 15 6.88071 15 5.5C15 4.11929 13.8807 3 12.5 3ZM9 5.5C9 3.567 10.567 2 12.5 2C14.433 2 16 3.567 16 5.5C16 7.433 14.433 9 12.5 9C10.567 9 9 7.433 9 5.5ZM3 9.5C3 9.22386 3.22386 9 3.5 9H8.5C8.77614 9 9 9.22386 9 9.5V14.5C9 14.7761 8.77614 15 8.5 15H3.5C3.22386 15 3 14.7761 3 14.5V9.5ZM4 10V14H8V10H4Z" fill="#DC244C"/>
</g>
<defs>
<clipPath id="clip0_2279_21512">
<rect width="16" height="16" fill="white"/>
</clipPath>
</defs>
</svg>
