<svg width="16" height="16" viewBox="0 0 16 16" fill="none" xmlns="http://www.w3.org/2000/svg">
<path fill-rule="evenodd" clip-rule="evenodd" d="M2 2C1.44772 2 1 2.44772 1 3V13C1 13.5523 1.44772 14 2 14H8V2H2ZM9 2V14H14C14.5523 14 15 13.5523 15 13V3C15 2.44772 14.5523 2 14 2H9ZM2 15H8.5H14C15.1046 15 16 14.1046 16 13V3C16 1.89543 15.1046 1 14 1H8.5H2C0.89543 1 0 1.89543 0 3V13C0 14.1046 0.89543 15 2 15ZM11 7.5C10.7239 7.5 10.5 7.72386 10.5 8C10.5 8.27614 10.7239 8.5 11 8.5H13C13.2761 8.5 13.5 8.27614 13.5 8C13.5 7.72386 13.2761 7.5 13 7.5H11ZM10.5 5C10.5 4.72386 10.7239 4.5 11 4.5H13C13.2761 4.5 13.5 4.72386 13.5 5C13.5 5.27614 13.2761 5.5 13 5.5H11C10.7239 5.5 10.5 5.27614 10.5 5ZM11 10.5C10.7239 10.5 10.5 10.7239 10.5 11C10.5 11.2761 10.7239 11.5 11 11.5H13C13.2761 11.5 13.5 11.2761 13.5 11C13.5 10.7239 13.2761 10.5 13 10.5H11Z" fill="#DC244C"/>
</svg>
