<svg width="16" height="16" viewBox="0 0 16 16" fill="none" xmlns="http://www.w3.org/2000/svg">
<g clip-path="url(#clip0_2279_12704)">
<path d="M8.00001 1C6.1435 1 4.36302 1.7375 3.05026 3.05025C1.73751 4.36301 1.00001 6.14348 1.00001 8C0.997105 9.61179 1.53549 11.1779 2.52886 12.4472C3.52222 13.7165 4.91302 14.6155 6.47827 15V13.1739H5.86958C4.27479 13.1739 3.71479 10.7391 2.8261 10.7391C4.52436 10.7391 4.85305 11.9565 5.86958 11.9565C5.95211 11.9675 6.03608 11.9594 6.11495 11.9327C6.19383 11.906 6.26549 11.8615 6.32437 11.8026C6.38325 11.7437 6.42776 11.6721 6.45446 11.5932C6.48115 11.5143 6.4893 11.4304 6.47827 11.3478V11.1348C4.70697 10.6357 3.43479 9.3087 3.43479 7.69565C3.44904 6.85649 3.79222 6.05648 4.39045 5.46783C4.23796 5.13875 4.18162 4.77326 4.22793 4.41353C4.27425 4.05381 4.42132 3.71451 4.65219 3.43478C5.20903 3.60195 5.70984 3.91759 6.10088 4.34783C7.32777 3.90226 8.67226 3.90226 9.89914 4.34783C10.2902 3.91759 10.791 3.60195 11.3478 3.43478C11.5787 3.71451 11.7258 4.05381 11.7721 4.41353C11.8184 4.77326 11.7621 5.13875 11.6096 5.46783C12.2078 6.05648 12.551 6.85649 12.5652 7.69565C12.5652 9.36348 11.1713 10.7391 9.2661 11.2017C9.46237 11.6282 9.55019 12.0966 9.52175 12.5652V15C11.087 14.6155 12.4778 13.7165 13.4712 12.4472C14.4645 11.1779 15.0029 9.61179 15 8C15 6.14348 14.2625 4.36301 12.9498 3.05025C11.637 1.7375 9.85653 1 8.00001 1Z" stroke="#DC244C" stroke-width="0.8" stroke-linecap="round" stroke-linejoin="round"/>
</g>
<defs>
<clipPath id="clip0_2279_12704">
<rect width="16" height="16" fill="white"/>
</clipPath>
</defs>
</svg>
