<svg width="16" height="16" viewBox="0 0 16 16" fill="none" xmlns="http://www.w3.org/2000/svg">
<g clip-path="url(#clip0_2279_22535)">
<path fill-rule="evenodd" clip-rule="evenodd" d="M2.19752 5.02116C2.51598 2.32027 4.85408 0.166992 7.66699 0.166992C10.4544 0.166992 12.7067 2.21818 13.1159 4.86555C14.6478 5.08497 15.8337 6.40983 15.8337 8.00033C15.8337 9.49364 14.8126 10.766 13.4482 11.087C13.1794 11.1503 12.9102 10.9836 12.847 10.7148C12.7837 10.446 12.9503 10.1769 13.2191 10.1136C14.1214 9.90131 14.8337 9.04034 14.8337 8.00033C14.8337 6.8098 13.8575 5.83366 12.667 5.83366C12.4057 5.83366 12.1885 5.63251 12.1685 5.37201C11.9878 3.02381 10.0638 1.16699 7.66699 1.16699C5.26829 1.16699 3.28613 3.09 3.16634 5.42593C3.15494 5.64814 2.99809 5.83607 2.78151 5.88703C1.87923 6.09934 1.16699 6.96031 1.16699 8.00033C1.16699 9.02063 1.863 9.84268 2.80808 10.1206C3.073 10.1986 3.22459 10.4765 3.14668 10.7414C3.06876 11.0063 2.79083 11.1579 2.52591 11.08C1.20431 10.6913 0.166992 9.51336 0.166992 8.00033C0.166992 6.63965 1.01476 5.46241 2.19752 5.02116ZM4.8335 9.33362C4.8335 9.05748 5.05735 8.83362 5.3335 8.83362H9.4597L8.97994 8.35386C8.78468 8.1586 8.78468 7.84201 8.97994 7.64675C9.17521 7.45149 9.49179 7.45149 9.68705 7.64675L11.0176 8.97734C11.0274 8.98696 11.0368 8.99697 11.0457 9.00736C11.0785 9.04534 11.1046 9.08707 11.1241 9.13103C11.1516 9.19296 11.1668 9.26151 11.1668 9.33362C11.1668 9.39818 11.1546 9.45989 11.1323 9.51655C11.1079 9.5787 11.0706 9.63696 11.0204 9.68719L9.68705 11.0205C9.49179 11.2158 9.17521 11.2158 8.97994 11.0205C8.78468 10.8253 8.78468 10.5087 8.97994 10.3134L9.45974 9.83362H5.3335C5.05735 9.83362 4.8335 9.60976 4.8335 9.33362ZM4.87624 13.131C4.84876 13.193 4.8335 13.2615 4.8335 13.3336C4.8335 13.3428 4.83374 13.3519 4.83423 13.361C4.83718 13.4156 4.8489 13.4679 4.86802 13.5165C4.8924 13.5787 4.92971 13.637 4.97994 13.6872L6.31328 15.0205C6.50854 15.2158 6.82512 15.2158 7.02038 15.0205C7.21564 14.8253 7.21564 14.5087 7.02038 14.3134L6.54058 13.8336H10.6668C10.943 13.8336 11.1668 13.6098 11.1668 13.3336C11.1668 13.0575 10.943 12.8336 10.6668 12.8336H6.54062L7.02038 12.3539C7.21564 12.1586 7.21564 11.842 7.02038 11.6468C6.82512 11.4515 6.50854 11.4515 6.31328 11.6468L4.98267 12.9774C4.97367 12.9862 4.965 12.9954 4.95668 13.005C4.92293 13.0436 4.89612 13.0861 4.87624 13.131Z" fill="#DC244C"/>
</g>
<defs>
<clipPath id="clip0_2279_22535">
<rect width="16" height="16" fill="white"/>
</clipPath>
</defs>
</svg>
