<svg width="16" height="16" viewBox="0 0 16 16" fill="none" xmlns="http://www.w3.org/2000/svg">
<path d="M10.6665 10.6667L12.6665 5.33334L14.6665 10.6667C14.0865 11.1 13.3865 11.3333 12.6665 11.3333C11.9465 11.3333 11.2465 11.1 10.6665 10.6667Z" stroke="#DC244C" stroke-linecap="round" stroke-linejoin="round"/>
<path d="M1.3335 10.6667L3.3335 5.33334L5.3335 10.6667C4.7535 11.1 4.0535 11.3333 3.3335 11.3333C2.6135 11.3333 1.9135 11.1 1.3335 10.6667Z" stroke="#DC244C" stroke-linecap="round" stroke-linejoin="round"/>
<path d="M4.6665 14H11.3332" stroke="#DC244C" stroke-linecap="round" stroke-linejoin="round"/>
<path d="M8 2V14" stroke="#DC244C" stroke-linecap="round" stroke-linejoin="round"/>
<path d="M2 4.66668H3.33333C4.66667 4.66668 6.66667 4.00001 8 3.33334C9.33333 4.00001 11.3333 4.66668 12.6667 4.66668H14" stroke="#DC244C" stroke-linecap="round" stroke-linejoin="round"/>
</svg>
