<svg width="16" height="16" viewBox="0 0 16 16" fill="none" xmlns="http://www.w3.org/2000/svg">
<g clip-path="url(#clip0_2279_22489)">
<path fill-rule="evenodd" clip-rule="evenodd" d="M1.99976 3C1.99976 2.44772 2.44747 2 2.99976 2C3.55204 2 3.99976 2.44772 3.99976 3C3.99976 3.55228 3.55204 4 2.99976 4C2.44747 4 1.99976 3.55228 1.99976 3ZM2.99976 1C1.89519 1 0.999756 1.89543 0.999756 3C0.999756 4.10457 1.89519 5 2.99976 5C4.10433 5 4.99976 4.10457 4.99976 3C4.99976 1.89543 4.10433 1 2.99976 1ZM1.91025 7.10141C2.09308 7.02873 2.28882 6.99416 2.48548 6.9998L2.49982 7.00001C3.20795 7.00001 3.63459 7.29643 4.20849 7.90436C4.34489 8.04885 4.48971 8.21187 4.64725 8.38921C5.15071 8.95594 5.78408 9.66891 6.68779 10.3907C6.90356 10.563 7.21817 10.5278 7.39051 10.312C7.56284 10.0963 7.52763 9.78166 7.31186 9.60932C6.48187 8.94641 5.92801 8.32339 5.43217 7.76563C5.2628 7.5751 5.10019 7.39219 4.93566 7.2179C4.29242 6.53652 3.62053 6.00226 2.50687 6.00001C2.17657 5.99152 1.84795 6.05006 1.54086 6.17213C1.23152 6.2951 0.950538 6.47994 0.715147 6.71533C0.479757 6.95072 0.294914 7.2317 0.171947 7.54105C0.0499142 7.84805 -0.00862825 8.17657 -0.000175891 8.50677V14.5C-0.000175891 14.7761 0.223682 15 0.499824 15H4.49982C4.77597 15 4.99982 14.7761 4.99982 14.5V10.5C4.99982 10.2239 4.77597 10 4.49982 10C4.22368 10 3.99982 10.2239 3.99982 10.5V14H0.999824V8.50001L0.999618 8.48566C0.993974 8.289 1.02855 8.09326 1.10122 7.91044C1.1739 7.72761 1.28314 7.56155 1.42225 7.42244C1.56137 7.28332 1.72743 7.17408 1.91025 7.10141ZM13.4927 6.00001C13.823 5.99152 14.1516 6.05006 14.4587 6.17213C14.7681 6.2951 15.049 6.47994 15.2844 6.71533C15.5198 6.95072 15.7047 7.2317 15.8276 7.54105C15.9497 7.84804 16.0082 8.17656 15.9998 8.50676V14.5C15.9998 14.7761 15.7759 15 15.4998 15H11.4998C11.2236 15 10.9998 14.7761 10.9998 14.5V10.5C10.9998 10.2239 11.2236 10 11.4998 10C11.7759 10 11.9998 10.2239 11.9998 10.5V14H14.9998V8.50001L15 8.48566C15.0056 8.289 14.971 8.09326 14.8984 7.91044C14.8257 7.72761 14.7164 7.56155 14.5773 7.42244C14.4382 7.28332 14.2722 7.17408 14.0893 7.10141C13.9065 7.02873 13.7108 6.99416 13.5141 6.9998L13.4998 7.00001C12.7916 7.00001 12.365 7.29643 11.7911 7.90436C11.6547 8.04883 11.5099 8.21183 11.3524 8.38914L11.3523 8.38921C10.8489 8.95594 10.2155 9.66891 9.31179 10.3907C9.09602 10.563 8.78141 10.5278 8.60907 10.312C8.43674 10.0963 8.47195 9.78166 8.68772 9.60932C9.51771 8.94641 10.0716 8.32339 10.5674 7.76563L10.5675 7.76555L10.5676 7.76541C10.7369 7.57496 10.8995 7.39212 11.0639 7.2179C11.7072 6.53652 12.3791 6.00226 13.4927 6.00001ZM11.9998 3C11.9998 2.44772 12.4475 2 12.9998 2C13.552 2 13.9998 2.44772 13.9998 3C13.9998 3.55228 13.552 4 12.9998 4C12.4475 4 11.9998 3.55228 11.9998 3ZM12.9998 1C11.8952 1 10.9998 1.89543 10.9998 3C10.9998 4.10457 11.8952 5 12.9998 5C14.1043 5 14.9998 4.10457 14.9998 3C14.9998 1.89543 14.1043 1 12.9998 1Z" fill="#DC244C"/>
</g>
<defs>
<clipPath id="clip0_2279_22489">
<rect width="16" height="16" fill="white"/>
</clipPath>
</defs>
</svg>
