<svg width="16" height="16" viewBox="0 0 16 16" fill="none" xmlns="http://www.w3.org/2000/svg">
<path fill-rule="evenodd" clip-rule="evenodd" d="M2.19752 5.02116C2.51598 2.32027 4.85408 0.166992 7.66699 0.166992C10.4544 0.166992 12.7067 2.21818 13.1159 4.86555C14.6478 5.08497 15.8337 6.40983 15.8337 8.00033C15.8337 9.49364 14.8126 10.766 13.4482 11.087C13.1794 11.1503 12.9102 10.9836 12.847 10.7148C12.7837 10.446 12.9503 10.1769 13.2191 10.1136C14.1214 9.90131 14.8337 9.04034 14.8337 8.00033C14.8337 6.8098 13.8575 5.83366 12.667 5.83366C12.4057 5.83366 12.1885 5.63251 12.1685 5.37201C11.9878 3.02381 10.0638 1.16699 7.66699 1.16699C5.26829 1.16699 3.28613 3.09 3.16634 5.42593C3.15494 5.64814 2.99809 5.83607 2.78151 5.88703C1.87923 6.09934 1.16699 6.96031 1.16699 8.00033C1.16699 9.02063 1.863 9.84268 2.80808 10.1206C3.073 10.1986 3.22459 10.4765 3.14668 10.7414C3.06876 11.0063 2.79083 11.1579 2.52591 11.08C1.20431 10.6913 0.166992 9.51336 0.166992 8.00033C0.166992 6.63965 1.01476 5.46241 2.19752 5.02116ZM4.8335 10.4447C4.8335 10.1686 5.05735 9.9447 5.3335 9.9447H6.16675V8.66695C6.16675 7.65436 6.98749 6.83362 8.00008 6.83362C9.01267 6.83362 9.83342 7.65436 9.83342 8.66695V9.9447H10.6668C10.943 9.9447 11.1668 10.1686 11.1668 10.4447V14.4447C11.1668 14.7208 10.943 14.9447 10.6668 14.9447H5.3335C5.05735 14.9447 4.8335 14.7208 4.8335 14.4447V10.4447ZM9.3281 10.9447C9.32987 10.9447 9.33164 10.9447 9.33342 10.9447C9.33519 10.9447 9.33696 10.9447 9.33873 10.9447H10.1668V13.9447H5.8335V10.9447H6.66143C6.6632 10.9447 6.66497 10.9447 6.66675 10.9447C6.66852 10.9447 6.67029 10.9447 6.67206 10.9447H9.3281ZM8.83342 9.9447V8.66695C8.83342 8.20665 8.46038 7.83362 8.00008 7.83362C7.53978 7.83362 7.16675 8.20665 7.16675 8.66695V9.9447H8.83342Z" fill="#DC244C"/>
</svg>
