<svg width="16" height="16" viewBox="0 0 16 16" fill="none" xmlns="http://www.w3.org/2000/svg">
<g clip-path="url(#clip0_2279_12700)">
<path fill-rule="evenodd" clip-rule="evenodd" d="M8 0C8.27614 0 8.5 0.223858 8.5 0.5V2.01667C10.3065 2.1373 12.0151 2.90849 13.3033 4.1967C14.7098 5.60322 15.5 7.51088 15.5 9.5V11.5H15C15.5 11.5 15.5 11.5004 15.5 11.5009L15.5 11.5019L15.5 11.5042L15.4999 11.5098L15.4996 11.5256C15.4992 11.538 15.4986 11.5542 15.4974 11.574C15.4951 11.6136 15.4908 11.6676 15.4825 11.7339C15.4659 11.8663 15.4336 12.049 15.3706 12.265C15.2444 12.6977 14.9944 13.2657 14.5013 13.8293C13.5035 14.9696 11.5957 16 8 16C4.40428 16 2.49649 14.9696 1.49871 13.8293C1.00557 13.2657 0.755579 12.6977 0.629375 12.265C0.566366 12.049 0.53409 11.8663 0.517533 11.7339C0.509246 11.6676 0.504867 11.6136 0.502558 11.574C0.501402 11.5542 0.500763 11.538 0.500413 11.5256L0.500075 11.5098L0.500015 11.5042L0.500003 11.5019L0.5 11.5009C0.5 11.5004 0.5 11.5 1 11.5H0.5V9.5C0.5 7.51088 1.29018 5.60322 2.6967 4.1967C3.9849 2.90849 5.69348 2.1373 7.5 2.01667V0.5C7.5 0.223858 7.72386 0 8 0ZM3.40381 4.90381C4.62279 3.68482 6.27609 3 8 3C9.72391 3 11.3772 3.68482 12.5962 4.90381C13.8152 6.12279 14.5 7.77609 14.5 9.5V11.4968L14.5 11.4974L14.4998 11.5031L14.4991 11.5158C14.498 11.5348 14.4956 11.5668 14.4902 11.6099C14.4794 11.6962 14.457 11.826 14.4106 11.985C14.3181 12.3023 14.1306 12.7343 13.7487 13.1707C12.9965 14.0304 11.4043 15 8 15C4.59572 15 3.00351 14.0304 2.25129 13.1707C1.86943 12.7343 1.68192 12.3023 1.58938 11.985C1.54301 11.826 1.5206 11.6962 1.50981 11.6099C1.50443 11.5668 1.50197 11.5348 1.50086 11.5158C1.50031 11.5063 1.50009 11.5001 1.50001 11.4974L1.5 11.4968V9.5C1.5 7.77609 2.18482 6.12279 3.40381 4.90381ZM14.5 11.4974L14.5 11.4973L14.5 11.496L14.5 11.4968L14.5 11.4992L14.5 11.4985L14.5 11.4974ZM5.17157 6.67157C5.92172 5.92143 6.93913 5.5 8 5.5C9.06087 5.5 10.0783 5.92143 10.8284 6.67157C11.5786 7.42172 12 8.43913 12 9.5V11.3324C11.9592 11.4353 11.7898 11.6999 11.2364 11.9613C10.6279 12.2487 9.61102 12.5 8 12.5C6.38898 12.5 5.37206 12.2487 4.76355 11.9613C4.21016 11.6999 4.04077 11.4353 4 11.3324V9.5C4 8.43913 4.42143 7.42172 5.17157 6.67157ZM8 4.5C6.67392 4.5 5.40215 5.02678 4.46447 5.96447C3.52678 6.90215 3 8.17392 3 9.5V11.4C3 11.4333 3.00332 11.4664 3.00991 11.4991C3.11156 12.002 3.56878 12.5029 4.33645 12.8655C5.12044 13.2358 6.29602 13.5 8 13.5C9.70399 13.5 10.8796 13.2358 11.6636 12.8655C12.4312 12.5029 12.8884 12.002 12.9901 11.4991C12.9967 11.4664 13 11.4333 13 11.4V9.5C13 8.17392 12.4732 6.90215 11.5355 5.96447C10.5979 5.02678 9.32608 4.5 8 4.5Z" fill="#DC244C"/>
</g>
<defs>
<clipPath id="clip0_2279_12700">
<rect width="16" height="16" fill="white"/>
</clipPath>
</defs>
</svg>
