<svg width="16" height="16" viewBox="0 0 16 16" fill="none" xmlns="http://www.w3.org/2000/svg">
<g id="Menu/RAG">
<path id="Vector" d="M3.5 8.5V5.5M6.5 9.5V4.5M9.5 8.5V5.5M12.5 8.5V5.5M0.5 3V11C0.5 11.3978 0.658035 11.7794 0.93934 12.0607C1.22064 12.342 1.60218 12.5 2 12.5H5.5L8 15.5L10.5 12.5H14C14.3978 12.5 14.7794 12.342 15.0607 12.0607C15.342 11.7794 15.5 11.3978 15.5 11V3C15.5 2.60218 15.342 2.22064 15.0607 1.93934C14.7794 1.65804 14.3978 1.5 14 1.5H2C1.60218 1.5 1.22064 1.65804 0.93934 1.93934C0.658035 2.22064 0.5 2.60218 0.5 3Z" stroke="#DC244C" stroke-linecap="round" stroke-linejoin="round"/>
</g>
</svg>
