<svg width="16" height="16" viewBox="0 0 16 16" fill="none" xmlns="http://www.w3.org/2000/svg">
<g clip-path="url(#clip0_2279_21504)">
<path fill-rule="evenodd" clip-rule="evenodd" d="M15.8904 0.812366C16.0629 0.596735 16.028 0.282089 15.8123 0.109584C15.5967 -0.0629208 15.2821 -0.0279601 15.1096 0.187671L11.4585 4.75145L9.85355 3.14647C9.65829 2.9512 9.34171 2.9512 9.14645 3.14647C8.95118 3.34173 8.95118 3.65831 9.14645 3.85357L11.1464 5.85357C11.247 5.95414 11.3856 6.00712 11.5276 5.99925C11.6697 5.99139 11.8016 5.92342 11.8904 5.81237L15.8904 0.812366ZM1 1.50002C1 1.22388 1.22386 1.00002 1.5 1.00002H5.5C5.77614 1.00002 6 1.22388 6 1.50002V5.50002C6 5.77616 5.77614 6.00002 5.5 6.00002H1.5C1.22386 6.00002 1 5.77616 1 5.50002V1.50002ZM1.5 1.84053e-05C0.671573 1.84053e-05 0 0.671591 0 1.50002V5.50002C0 6.32845 0.671573 7.00002 1.5 7.00002H5.5C6.32843 7.00002 7 6.32845 7 5.50002V1.50002C7 0.671591 6.32843 1.84053e-05 5.5 1.84053e-05H1.5ZM1 10.5C1 10.2239 1.22386 10 1.5 10H5.5C5.77614 10 6 10.2239 6 10.5V14.5C6 14.7762 5.77614 15 5.5 15H1.5C1.22386 15 1 14.7762 1 14.5V10.5ZM1.5 9.00002C0.671573 9.00002 0 9.67159 0 10.5V14.5C0 15.3284 0.671573 16 1.5 16H5.5C6.32843 16 7 15.3284 7 14.5V10.5C7 9.67159 6.32843 9.00002 5.5 9.00002H1.5ZM10.5 10C10.2239 10 10 10.2239 10 10.5V14.5C10 14.7762 10.2239 15 10.5 15H14.5C14.7761 15 15 14.7762 15 14.5V10.5C15 10.2239 14.7761 10 14.5 10H10.5ZM9 10.5C9 9.67159 9.67157 9.00002 10.5 9.00002H14.5C15.3284 9.00002 16 9.67159 16 10.5V14.5C16 15.3284 15.3284 16 14.5 16H10.5C9.67157 16 9 15.3284 9 14.5V10.5Z" fill="#DC244C"/>
</g>
<defs>
<clipPath id="clip0_2279_21504">
<rect width="16" height="16" fill="white"/>
</clipPath>
</defs>
</svg>
