<?xml version="1.0" encoding="UTF-8" standalone="no"?>
<svg
   width="512"
   height="512"
   version="1.1"
   id="svg8"
   sodipodi:docname="network (1).svg"
   inkscape:version="1.1.1 (3bf5ae0d25, 2021-09-20)"
   xmlns:inkscape="http://www.inkscape.org/namespaces/inkscape"
   xmlns:sodipodi="http://sodipodi.sourceforge.net/DTD/sodipodi-0.dtd"
   xmlns="http://www.w3.org/2000/svg"
   xmlns:svg="http://www.w3.org/2000/svg">
  <defs
     id="defs12" />
  <sodipodi:namedview
     id="namedview10"
     pagecolor="#ffffff"
     bordercolor="#666666"
     borderopacity="1.0"
     inkscape:pageshadow="2"
     inkscape:pageopacity="0.0"
     inkscape:pagecheckerboard="true"
     showgrid="false"
     inkscape:zoom="1.1146309"
     inkscape:cx="286.1934"
     inkscape:cy="254.34429"
     inkscape:window-width="1920"
     inkscape:window-height="1048"
     inkscape:window-x="0"
     inkscape:window-y="32"
     inkscape:window-maximized="1"
     inkscape:current-layer="svg8" />
  <path
     id="path4"
     style="fill:#ffffff;stroke:none"
     d="M 453.72461 -0.16015625 C 436.82048 0.69547125 420.21447 8.606325 410.04297 23 C 401.81097 34.6487 398.75987 48.897 400.17188 63 C 400.72188 68.5067 405.86036 76.8296 404.44336 82 C 402.47336 89.1857 391.159 96.8412 386 102 L 337 151 C 332.033 155.967 322.178 170.25791 315 171.12891 C 309.487 171.79791 298.719 163.25947 293 161.35547 C 278.172 156.41747 260.753 156.55031 246 161.69531 C 240.82 163.50231 227.25984 173.52575 222.71484 170.46875 C 207.36984 160.14975 194.095 142.095 181 129 C 173.331 121.331 162.14934 113.286 156.52734 104 C 153.03934 98.2396 159.20545 82.8638 157.68945 75 C 152.71445 49.1913 121.056 38.684194 100 52.246094 C 78.5925 66.034394 78.206125 98.685131 98.015625 113.95703 C 105.97792 120.09503 116.13 122.14238 126 120.98438 C 130.103 120.50238 136.037 117.21025 140 118.40625 C 145.928 120.19325 151.728 128.728 156 133 L 193 170 C 197.218 174.218 207.18689 180.982 208.46289 187 C 209.42589 191.538 202.1402 200.609 200.2832 205 C 195.8492 215.487 194.08592 227.656 195.16992 239 C 196.10492 248.793 198.76077 258.243 203.25977 267 C 204.94177 270.273 209.46952 275.115 207.97852 279 C 204.41552 288.28 190.001 297.999 183 305 L 122 366 C 114.763 373.237 103.732 389.61081 94 392.88281 C 88.869 394.60881 75.0029 384.24914 69 382.74414 C 45.0418 376.73814 18.089249 388.074 6.3242188 410 C -0.54737983 422.80618 -1.8262583 435.98136 0.86132812 448 L 1 448 C 1.0459296 448.52607 1.194811 448.99054 1.2558594 449.50781 C 5.8505656 467.63347 19.501033 482.7939 36.529297 489.86328 C 55.841681 495.8607 78.75771 492.54461 93.960938 478.71094 C 101.66216 471.70306 107.05799 462.49394 109.84961 452.54883 C 110.06182 451.74183 110.26169 450.93128 110.44141 450.11328 C 110.68078 449.09392 110.90374 448.07183 111.08789 447.04102 C 111.43794 444.95267 111.71761 442.84361 111.86328 440.70508 C 111.8684 440.62805 111.87996 440.55166 111.88477 440.47461 C 111.99851 438.71449 111.96331 436.92822 111.93945 435.14453 C 111.91682 434.42955 111.9602 433.71381 111.91016 433 C 111.46116 426.592 104.52048 414.445 107.64648 409 C 115.48648 395.342 132.858 383.142 144 372 L 224 292 L 225 292 C 225.4176 292.45564 225.93835 292.78531 226.38281 293.20898 L 247 303.66797 L 249.92383 304.66406 C 252.77996 305.24806 255.9893 305.81313 257.99805 307.41016 L 258.97266 307.74219 L 259.00391 308.5 C 262.59418 313.85171 260 327.71023 260 334 L 260 401 C 240.87445 404.95827 225.04553 418.14952 217.83008 435.90039 C 214.40823 445.0397 213.22482 455.0359 214.54492 464.83203 C 217.43294 481.48336 227.95734 497.00523 242.60742 505.26953 C 252.5811 510.32401 264.04981 512.28189 276 511.98438 C 277.7183 511.94164 279.37115 511.79316 281 511.60938 L 281 511 C 288.853 509.84 296.723 506.15536 303 501.31836 C 314.99295 492.07785 321.92775 479.82146 324.35352 467.02539 C 324.38651 466.80822 324.41644 466.59066 324.44727 466.37305 C 324.6614 465.1658 324.73656 463.94839 324.87109 462.73438 C 325.46933 455.73046 324.94972 448.60509 323.32812 441.77344 C 318.21728 422.48708 303.17882 405.79678 280 401 L 280 334 C 280 327.69679 277.41005 313.87317 280.99609 308.50195 L 281.02734 307.73828 L 281.98438 307.41211 C 284.0881 305.67138 287.49315 305.13126 290.43945 304.53906 L 294 303.32812 L 315 292 L 316 292 L 363 339 C 369.553 345.553 379.89697 352.809 384.29297 361 C 386.97297 365.992 381.51994 374.494 381.21094 380 C 380.49194 392.799 387.79095 405.37055 398.00195 412.56055 C 414.98102 424.51648 435.7342 418.42918 447.44531 404.93359 C 448.28832 403.96214 449.00158 402.89584 449.74609 401.85156 C 454.00587 395.5227 456.57808 388.06379 456.47852 380.25781 C 456.47495 380.15609 456.47328 380.05497 456.46875 379.95312 C 456.43815 378.52668 456.21017 377.08462 456 375.64453 C 455.36601 372.11189 454.25698 368.54381 452.33008 365 C 446.47161 354.2238 435.97954 346.12322 423.86719 344.39844 C 423.52442 344.35411 423.18254 344.30685 422.83789 344.27148 C 421.46699 344.11874 420.07558 344.05713 418.66992 344.07422 C 418.38272 344.07506 418.09647 344.07304 417.80859 344.08008 C 412.00874 344.36873 402.90332 349.77046 398 346.57617 C 379.209 334.33517 362.881 311.881 347 296 C 342.747 291.747 331.78048 284.256 331.02148 278 C 330.45148 273.299 336.72027 266.326 338.57227 262 C 341.85058 254.33922 344.20111 245.95212 344.8457 237.51562 C 344.86763 237.1992 344.93347 236.88701 344.95117 236.57031 C 345.12474 233.70822 345.1018 230.84215 344.83008 228 C 343.84808 217.718 341.01472 208.269 336.51172 199 C 334.74172 195.357 329.55816 190.323 331.16016 186 C 333.86916 178.69 344.554 171.446 350 166 L 396 120 C 401.397 114.603 410.451 101.25943 418 99.457031 C 420.30951 98.905547 422.62877 100.37682 424.80859 101.93555 C 428.06329 103.56676 431.55583 105.65508 434.58008 107.38477 C 438.5215 109.09058 442.59691 110.41879 446.87305 111.30273 C 452.78912 112.25051 458.83844 112.31576 464.77148 111.47461 C 481.43427 108.64334 497.08033 97.813131 505.34766 83.125 C 507.3995 79.267949 509.03342 75.210826 510.1582 71.007812 C 510.48076 69.68345 510.79947 68.357738 511 67 C 511.00405 67.00964 511.00573 67.021597 511.00977 67.03125 C 512.41868 59.795969 512.47293 52.3126 511.12891 45 L 511 45 C 507.83 23.5368 488.463 4.16983 467 1 L 467 0.66796875 C 462.62677 -0.092720032 458.16823 -0.38507681 453.72461 -0.16015625 z M 457.11719 19.068359 C 498.55399 17.620455 505.77587 85.453175 462 91.865234 C 424.959 97.290834 403.717 48.074022 435 26.044922 C 440.486 22.181922 446.409 20.344188 453 19.429688 C 454.40731 19.234409 455.78052 19.115066 457.11719 19.068359 z M 120.14648 65.894531 C 140.02349 64.838435 146.72938 96.324891 125 101.4668 C 103.212 106.6228 94.1469 72.290594 116 66.558594 C 117.43769 66.181488 118.82135 65.964938 120.14648 65.894531 z M 273.23438 177.23438 C 326.1554 177.32143 342.47266 252.08572 299 279.91016 C 291.92 284.44116 283.34 287.02308 275 287.83008 C 223.733 292.79108 193.46891 225.41678 233.00391 191.30078 C 243.11691 182.57378 254.914 178.61484 268 177.46484 C 269.78253 177.30816 271.52725 177.23157 273.23438 177.23438 z M 418.23047 363.92383 C 438.45463 363.10563 444.43531 394.40578 422 399.31641 C 400.695 403.97941 392.496 369.7592 414 364.5332 C 415.47069 364.17583 416.88219 363.97837 418.23047 363.92383 z M 57.240234 400.66211 C 96.51022 400.79883 106.28344 464.30148 63 473.48242 C 16.7564 483.29242 2.36362 411.07563 49 401.51562 C 51.873213 400.92663 54.622235 400.65299 57.240234 400.66211 z M 269 419.5957 C 316.699 417.6577 317.901 491.68809 270 492.87109 C 223.241 494.02609 222.35 421.4917 269 419.5957 z " />
</svg>
