<?xml version="1.0" encoding="UTF-8"?>
<svg width="854" height="762" fill="none" version="1.1" viewBox="0 0 854 762" xmlns="http://www.w3.org/2000/svg">
 <g clip-path="url(#clip0_1799_963)">
  <path d="m661.1 715.3-73.5-42.5c-6.6-3.8-14.7-3.8-21.2 0l-73.5 42.5c-6.6 3.8-14.7 3.8-21.2 0l-35.6-20.6c-6.6-3.8-14.7-3.8-21.2 0l-111.4 64.3c-6.6 3.8-14.7 3.8-21.2 0l-239.1-137.8c-7.1-4.1-7.1-14.3 0-18.4l81.9-47.3c7.1-4.1 7.1-14.3 0-18.4l-119.8-69.1c-7.1-4.1-7.1-14.3 0-18.4l157.7-91c7.1-4.1 7.1-14.3 0-18.4l-25.3-14.6c-7.1-4.1-7.1-14.3 0-18.4l163.3-94c6.6-3.8 14.6-3.8 21.2 0l130.4 75.3c6.6 3.8 14.7 3.8 21.2 0l130.4-75.3c6.6-3.8 14.7-3.8 21.2 0l163 94.1c7.1 4.1 7.1 14.3 0 18.4l-62.9 36.3c-7.1 4.1-7.1 14.3 0 18.4l122.3 70.6c7.1 4.1 7.1 14.3 0 18.4l-119.8 69.2c-7.1 4.1-7.1 14.3 0 18.4l98.3 56.8c7.1 4.1 7.1 14.3 0 18.4l-144 83.2c-6.6 3.7-14.6 3.7-21.2-0.1z" fill="#D9E2FF"/>
  <path d="m661.1 710.5-73.6-42.5c-6.6-3.8-14.7-3.8-21.2 0l-73.5 42.5c-6.6 3.8-14.7 3.8-21.2 0l-35.6-20.6c-6.6-3.8-14.7-3.8-21.2 0l-111.4 64.3c-6.6 3.8-14.7 3.8-21.2 0l-239-137.8c-7.1-4.1-7.1-14.3 0-18.4l81.9-47.3c7.1-4.1 7.1-14.3 0-18.4l-119.8-69.1c-7.1-4.1-7.1-14.3 0-18.4l157.7-91c7.1-4.1 7.1-14.3 0-18.4l-25.3-14.6c-7.1-4.1-7.1-14.3 0-18.4l163.3-94c6.6-3.8 14.6-3.8 21.2 0l130.4 75.3c6.6 3.8 14.7 3.8 21.2 0l130.4-75.3c6.6-3.8 14.7-3.8 21.2 0l163 94.1c7.1 4.1 7.1 14.3 0 18.4l-62.9 36.3c-7.1 4.1-7.1 14.3 0 18.4l122.3 70.6c7.1 4.1 7.1 14.3 0 18.4l-119.8 69.2c-7.1 4.1-7.1 14.3 0 18.4l98.3 56.8c7.1 4.1 7.1 14.3 0 18.4l-144 83.2c-6.6 3.7-14.6 3.7-21.2-0.1z" fill="#EBF1FF"/>
  <path d="m448.6 618.5 227.5-131.3-227.5-131.3-227.4 131.3 227.4 131.3z" fill="#24386C"/>
  <path d="m676.1 487.2v24.6l-227.5 131.3v-24.6l227.5-131.3z" fill="#B2BFE8"/>
  <path d="m221.2 429.9v43.7l227.4 131.3v-43.7l-227.4-131.3z" fill="#D81E54"/>
  <path d="m221.2 487.2v24.6l227.4 131.3v-24.6l-227.4-131.3z" fill="#D9E2FF"/>
  <path d="m676.1 429.9v43.7l-227.5 131.3v-43.7l227.5-131.3z" fill="#B71342"/>
  <path d="m672.5 164.9 38 21.9v43.8l-38-21.9v-43.8z" fill="#C91540"/>
  <path d="m710.5 186.8 18.9-10.9v43.7l-18.9 11v-43.8z" fill="#B2BFE8"/>
  <path d="m691.5 154 37.9 21.9-18.9 10.9-38-21.9 19-10.9z" fill="#EBF1FF"/>
  <path d="m448.6 561.2 227.5-131.3-227.5-131.4-227.4 131.4 227.4 131.3z" fill="#C91540"/>
  <path d="m464.6 508.2 121.5-70.2c8.4-4.8 12.4-14.7 9.9-24l-4-14.5c-39.8-146-246.9-146-286.7 0l-4 14.5c-2.5 9.3 1.5 19.2 9.9 24l121.5 70.2c9.9 5.7 22 5.7 31.9 0z" fill="#D9E2FF"/>
  <path d="m596.7 208.7 37.9 21.9v43.7l-37.9-21.8v-43.8z" fill="#C91540"/>
  <path d="m634.6 230.6 56.9-32.9v43.8l-56.9 32.8v-43.7z" fill="#B2BFE8"/>
  <path d="m653.6 175.9 37.9 21.8-56.9 32.9-37.9-21.9 56.9-32.8z" fill="#EBF1FF"/>
  <path d="m561 29.6 37.9 21.9 0.1 43.8-38-21.9v-43.8z" fill="#C91540"/>
  <path d="m282.3 86.6 37.9 21.8v43.8l-37.9-21.9v-43.7z" fill="#C91540"/>
  <path d="m320.2 108.4 19-10.9v43.8l-19 10.9v-43.8z" fill="#B2BFE8"/>
  <path d="m301.3 75.6 37.9 21.9-19 10.9-37.9-21.8 19-11z" fill="#EBF1FF"/>
  <path d="m598.9 51.5 19-10.9v43.7l-18.9 11-0.1-43.8z" fill="#B2BFE8"/>
  <path d="m580 18.7 37.9 21.9-19 10.9-37.9-21.9 19-10.9z" fill="#EBF1FF"/>
  <path d="m206.5 130.3 37.9 21.9v43.8l-37.9-21.9v-43.8z" fill="#C91540"/>
  <path d="m244.4 152.2 56.9-32.8v43.8l-56.9 32.8v-43.8z" fill="#B2BFE8"/>
  <path d="m263.4 97.5 37.9 21.9-56.9 32.8-37.9-21.9 56.9-32.8z" fill="#EBF1FF"/>
  <path d="m485.2 73.4 37.9 21.9v43.8l-37.9-21.9v-43.8z" fill="#C91540"/>
  <path d="m523.1 95.3 56.9-32.8v43.7l-56.9 32.9v-43.8z" fill="#B2BFE8"/>
  <path d="m542.1 40.6 37.9 21.9-56.9 32.8-37.9-21.9 56.9-32.8z" fill="#EBF1FF"/>
  <path d="m442.2 27.8c-2.2-13.6-13.1-25.9-24.3-27.6-4.5-0.7-8.4 0.4-11.2 2.9l-45.7 26.5 27 45.7 46.1-27c6.4-2.9 9.8-10.7 8.1-20.5z" fill="#B2BFE8"/>
  <path d="m387.54 75.666c8.724-5.103 9.784-19.52 2.366-32.201-7.417-12.681-20.502-18.824-29.227-13.722-8.724 5.1029-9.783 19.52-2.366 32.201 7.418 12.681 20.503 18.824 29.227 13.722z" fill="#24386C"/>
  <path d="m731.2 77.7c-2.2-13.5-13.2-25.9-24.4-27.6-4.5-0.7-8.4 0.4-11.2 2.9l-45.6 26.5 27 45.7 46.1-27c6.3-2.9 9.7-10.6 8.1-20.5z" fill="#B2BFE8"/>
  <path d="m676.57 125.65c8.725-5.103 9.784-19.519 2.367-32.2-7.418-12.681-20.503-18.824-29.227-13.722-8.724 5.103-9.784 19.52-2.366 32.201 7.417 12.681 20.502 18.824 29.226 13.721z" fill="#24386C"/>
  <path d="m288.4 255c-2.2-13.5-13.2-25.9-24.4-27.6-4.5-0.7-8.4 0.4-11.2 2.9l-45.6 26.5 27 45.7 46.1-27c6.3-2.9 9.7-10.7 8.1-20.5z" fill="#B2BFE8"/>
  <path d="m233.72 302.86c8.724-5.103 9.784-19.52 2.366-32.201-7.417-12.681-20.502-18.824-29.227-13.721-8.724 5.103-9.783 19.519-2.366 32.2 7.418 12.681 20.503 18.825 29.227 13.722z" fill="#24386C"/>
  <path d="m770.8 295.2c-2.2-13.5-13.2-25.9-24.4-27.6-4.5-0.7-8.4 0.4-11.2 2.9l-45.6 26.5 27 45.7 46.1-27c6.3-2.9 9.7-10.7 8.1-20.5z" fill="#B2BFE8"/>
  <path d="m716.16 343.07c8.724-5.103 9.783-19.52 2.366-32.201s-20.503-18.824-29.227-13.721-9.783 19.519-2.366 32.2 20.503 18.825 29.227 13.722z" fill="#24386C"/>
  <path d="m490 306.1-74.6 43.1c-4.2 2.5-9.6-0.6-9.6-5.5v-29.3l84.3-25.6s-1.3 6.5 1.2 13.5c0.6 1.4 0 3.1-1.3 3.8z" fill="#24386C"/>
  <path d="m433.8 148.1c-4.2 0-8.2 0.4-12.2 1.2-27.5 5.5-49.7 29.5-57.4 60.8-1.9 7.7-2.9 15.9-2.9 24.4 0 20.2 5.8 38.8 15.6 53.5 13.3 20 33.9 32.9 57 32.9 25.9 0 48.6-16.1 61.4-40.4 1.9-3.6 3.6-7.5 5.1-11.4 1.3-3.6 2.4-7.3 3.3-11.1 1.8-7.4 2.7-15.3 2.7-23.4-0.1-47.8-32.5-86.5-72.6-86.5z" fill="url(#paint0_linear_1799_963)"/>
  <path d="m426.9 242.3c4.2 1.8 8.9 2.8 13.8 2.8 2.1 0 4.2-0.2 6.2-0.6-0.7-2.5-1.1-5.1-1.1-7.8v-0.6c2.5 2.5 5.4 4.6 8.6 6.1 3.6 1.6 7.6 2.6 11.8 2.6 6.5 0 12.4-2.2 17.2-5.8v22.8c0 2.5 2 4.5 4.5 4.5s4.5-2 4.5-4.5l-0.1-16.6c6.5 1.5 11.4 7.4 11.4 14.4 0 5.4-3 10.2-7.4 12.8v6.4c13.1-14.8 20-32.6 20-54 0-46.4-37.6-84.1-84.1-84.1-19.9 0-38.5 7.5-52.9 19.1-10.4 8.9-17 22.1-17 36.9 0 4.7 0.7 9.2 1.9 13.5 5.9 20.2 24.5 34.9 46.6 34.9 2.1 0 4.3-0.1 6.3-0.4-4.2-5.3-7-11.8-7.6-18.9 3.6 7.3 9.8 13.2 17.4 16.5z" fill="#C91540"/>
  <g stroke="#24386C" stroke-linecap="round" stroke-miterlimit="10">
   <path d="m562 454.3 12.9 7.5c2.8 1.6 2.8 5.7 0 7.4l-6.2 3.6c-2.8 1.6-2.8 5.7 0 7.4l10.2 5.9v42.4"/>
   <path d="m596 430.1 21.1 12.2c1.3 0.8 2.9 0.8 4.2 0l10.5-6c2.8-1.6 2.8-5.7 0-7.4l-6.2-3.6c-2.8-1.6-2.8-5.7 0-7.4l14-8.1"/>
   <path d="m504.7 486.9 36.3 20.9v42.7"/>
   <path d="m393.1 486.6-13.9 8c-2.8 1.6-2.8 5.7 0 7.4l6.2 3.6c2.8 1.6 2.8 5.7 0 7.4l-10.2 5.9v42.4"/>
   <path d="m355.3 464.6-16.2 9.3c-2.6 1.5-5.9 1.5-8.5 0l-10.5-6c-2.6-1.5-5.9-1.5-8.5 0l-12.3 7.1v42.9"/>
   <path d="m317 443-15.8 9.1c-2.6 1.5-5.9 1.5-8.5 0l-29.4-17c-2.6-1.5-5.9-1.5-8.5 0l-12.3 7.1v42.6"/>
   <path d="m669.1 336.7-14.7 8.5c-3.5 2-3.5 7.1 0 9.2l22 12.7c3.5 2 3.5 7.1 0 9.2l-45.6 26.3"/>
   <path d="m300.8 412.9-24.2-14"/>
  </g>
  <path d="m590.8 560.6v-23.2" stroke="#fff" stroke-linecap="round" stroke-miterlimit="10"/>
  <path d="m552.7 582.5v-23.3" stroke="#fff" stroke-linecap="round" stroke-miterlimit="10"/>
  <g stroke="#B2BFE8" stroke-linecap="round" stroke-miterlimit="10">
   <path d="m363.5 593.4v-23.3"/>
   <path d="m287.5 549.5v-23.3"/>
   <path d="m230.8 516.4v-23"/>
  </g>
  <g stroke="#fff" stroke-linecap="round" stroke-miterlimit="10">
   <path d="m491.7 64.6v42"/>
   <path d="m504.2 127.6v-17.7c0-1.6 1.8-2.7 3.2-1.8l7.6 4.4c1.4 0.8 3.2-0.2 3.2-1.8v-17.7"/>
   <path d="m497.9 123.9v-29.8c0-1.7 1.8-2.7 3.2-1.8l1.6 1c1.4 0.9 3.2-0.1 3.2-1.8v-5.5"/>
   <path d="m561 74.3v18.5c0 1.5-0.8 2.9-2.1 3.7l-14.7 8.5002c-1.3 0.8-2.1 2.2-2.1 3.7v18.6"/>
   <path d="m505 83.9 15-8.7c1.4-0.8 1.4-2.9 0-3.7l-5.6-3.2c-1.4-0.8-1.4-2.9 0-3.7l34.3-19.8"/>
   <path d="m565.9 55.2-34 19.6c-1.4 0.8-1.4 2.9 0 3.7l9.4 5.4"/>
   <path d="m623.2 267.3v-19c0-1.5-0.8-2.9-2.2-3.7l-9.3-5.2c-1.3-0.8-2.2-2.2-2.2-3.7v-18.5"/>
   <path d="m630.8 271.4v-42.1"/>
   <path d="m604.8 256.3v-11c0-1.5-0.8-2.9-2.1-3.7l-5.3-3"/>
   <path d="m672.5 209.3v18.8c0 1.5-0.8 2.9-2.1 3.7l-14.7 8.5c-1.3 0.8-2.1 2.2-2.1 3.7v18.6"/>
   <path d="m690.9 220-5.9 3.4c-1.3 0.8-2.1 2.2-2.1 3.7v18.9"/>
   <path d="m642.3 269.5v-42.6"/>
   <path d="m635.4 187.2 15.1 8.7c1.4 0.8 1.4 2.9 0 3.7l-13.6 7.9c-1.3 0.8-2.9 0.8-4.2 0l-16.1-9.3"/>
   <path d="m684.9 194.8-40.5 23c-1.3 0.7-2.9 0.7-4.2 0l-8.4-4.9c-1.3-0.8-2.9-0.8-4.3 0l-11.2 6.5"/>
   <path d="m671.6 187.3-7.5 4.3c-1.3 0.8-3 0.8-4.3 0l-15.8-9.4"/>
   <path d="m219.5 180.9v-17.5c0-1.6 1.8-2.7 3.2-1.8l4.2 2.4c1.4 0.8 3.2-0.2 3.2-1.8v-17.4"/>
   <path d="m263.4 142v17.5c0 1.6 1.8 2.7 3.2 1.8l12.6-7.3c1.4-0.8 3.2 0.2 3.2 1.8v17.6"/>
   <path d="m300.8 141.5-6.3 3.7c-1.4 0.8-3.2-0.2-3.2-1.8v-17.3"/>
   <path d="m288 170v-6.2c0-1.6 0.8-3 2.2-3.7l10.6-5.8"/>
   <path d="m251.9 148.7v42.1"/>
   <path d="m270.1 102.1-15 8.8c-1.4 0.8-1.4 2.9 0 3.7l5.1 3c1.4 0.8 1.4 2.9 0 3.7l-13.6 7.9c-1.3 0.8-2.9 0.8-4.2 0l-16.2-9.4"/>
   <path d="m238.6 191.8v-43.1l40.5-23c1.4-0.8 1.4-2.8 0-3.7l-7-4.1c-1.4-0.8-1.4-2.9 0-3.7l9.5-5.5"/>
   <path d="m215.6 125.7 15.3 8.7c1.4 0.8 1.4 2.9 0 3.7l-5.4 3.1v9.9c0 1.7-1.8 2.7-3.2 1.8l-5-3.1c-1.4-0.9-3.2 0.1-3.2 1.8v26.1"/>
   <path d="m429.7 6.8999-47.4 27.4v16.2c0 1.6-1.8 2.7-3.2 1.8l-0.5-0.3c-1.4-0.8-3.2 0.2-3.2 1.8v22.2"/>
   <path d="m364.7 69.2v-25.7c0-1.6 1.8-2.7 3.2-1.8l2.2 1.3c1.4 0.8 3.2-0.2 3.2-1.8v-12.2l46.8-27.7"/>
   <path d="m388.1 74.5v-13.3c0-1.6 1.8-2.7 3.2-1.8l3.5 2 47.2-26.1"/>
   <path d="m361.7 66.1v-21.1c0-1.5-0.8-2.9-2.1-3.7l-4.5-2.6"/>
   <path d="m726 66.1-0.7 0.4-46.5 26.9v29.8"/>
   <path d="m673.6 126.2v-20.4c0-1.6-0.8-3-2.2-3.7l-4.7-2.6002c-1.4-0.7-2.2-2.2-2.2-3.7v-16l47.5-27.5"/>
   <path d="m650 80.2v17.5c0 1.5 0.8 2.9003 2.1 3.7003l10.2 5.9c1.3 0.8 2.1 2.2 2.1 3.7v14.9"/>
   <path d="m730.5 85.4-46.3 26.7"/>
   <path d="m270.4 230.2-47.9 27.2v16.9c0 1.6-1.8 2.7-3.2 1.8l-3.3-1.9c-1.4-0.8-3.2 0.2-3.2 1.8v22.1"/>
   <path d="m214.4 255.8v8.7c0 1.7-1.8 2.7-3.2 1.8l-8.1-5"/>
   <path d="m235.3 300.9v-18.2c0-1.5-0.8-2.9-2.1-3.6l-1.2-0.7c-1.3-0.8-2.1-2.1-2.1-3.6v-11.7l47.7-26.7 0.3-0.2"/>
   <path d="m228.7 303.9v-15.5c0-1.6 1.7-2.6 3.2-1.9l8.8 4.9 46.9-26.2"/>
   <path d="m702.5 342.7v-46.2l47.6-27.5"/>
   <path d="m762.1 278.5-47 27.6v8.8c0 1.6-1.7 2.6-3.1 1.9l-0.3-0.2c-1.4-0.8-3.1 0.2-3.1 1.9v25.5"/>
   <path d="m696.2 296.3v23c0 1.6-1.8 2.7-3.2 1.8l-1.4-0.8c-1.4-0.8-3.2 0.2-3.2 1.8v8.2"/>
   <path d="m714.4 343v-16.2c0-1.6 1.7-2.6 3.1-1.9l5.9 3.2 47.1-27.2"/>
  </g>
  <g stroke="#24386C" stroke-linecap="round" stroke-miterlimit="10">
   <path d="m498.3 614.5 39.8 23c3.3 1.9 7.3 1.9 10.6 0l27.3-15.8c3.3-1.9 7.3-1.9 10.6 0l51.6 29.8"/>
   <path d="m644.8 655.3 12.3 7.1"/>
   <path d="m593 559.8 39.8 23c3.3 1.9 7.3 1.9 10.6 0l8.3-4.8c3.3-1.9 7.3-1.9 10.6 0l108.4 62.6"/>
   <path d="m630.9 537.9 24.6 14.2c0.7 0.4 0.7 1.4 0 1.8l-1.5 0.8c-0.7 0.4-0.7 1.5 0 1.9l17.9 9.7"/>
   <path d="m655.3 523.6 26.2 15.1"/>
   <path d="m673.8 567.3 5.2 2.9"/>
   <path d="m316 706.2 86.8-50.1c3.5-2 3.5-7.1 0-9.2l-22-12.7c-3.5-2-3.5-7.1 0-9.2l17.5-10.1"/>
   <path d="m311.3 708.9-5.9 3.4"/>
   <path d="m244.3 616.3 28.5-16.5c3.3-1.9 7.3-1.9 10.6 0l27.3 15.7c3.3 1.9 7.3 1.9 10.6 0l39.3-22.5"/>
   <path d="m240.2 618.5-9.5 5.6"/>
   <path d="m226 626.8-4.8 2.8"/>
   <path d="m221.2 585.8 29.9-17.3c3.5-2 3.5-7.1 0-9.2l-3-1.8c-3.5-2-3.5-7.1 0-9.2l17.5-10.1"/>
   <path d="m123.3 653.2 79.8-46.8c3.5-2.1 3.5-7.1 0-9.2l-30.7-17.7c-3.5-2-3.5-7.1 0-9.2l74.2-42.8"/>
   <path d="m181 416.2 17.3 10c3.5 2 3.5 7.1 0 9.2l-3.1 1.8c-3.5 2-3.5 7.1 0 9.2l25.1 14.6"/>
   <path d="m176.1 413.5-7.8-4.6"/>
   <path d="m201.9 355.9 30.3 17.5c3.5 2 3.5 7.1 0 9.2l-3 1.8c-3.5 2-3.5 7.1 0 9.2l26.8 15.5"/>
   <path d="m195.2 351.9-7.3-4.1"/>
   <path d="M201.9 312.1L312.7 376"/>
   <path d="m195.2 308.2-7.3-4.2"/>
   <path d="m306.5 328.7 4.2 2.4c3.3 1.9 7.3 1.9 10.6 0l8.3-4.8c3.3-1.9 7.3-1.9 10.6 0l5.2 3"/>
   <path d="m303.6 327-2.1-1.2"/>
   <path d="m517.2 305.5 18.2-10.6c3.5-2 3.5-7.1 0-9.2l-3-1.8c-3.5-2-3.5-7.1 0-9.2l4.2-2.4"/>
   <path d="m540.5 270.2 3.5-2.1"/>
   <path d="m627.4 299-10.4 5.9c-3.3 1.9-7.3 1.9-10.6 0l-0.9-0.5c-3.3-1.9-7.3-1.9-10.6 0l-43.4 25"/>
   <path d="m575.1 359.6 25.2-14.5-9.5-5.5 93.9-55.2"/>
   <path d="m688.4 282.3 2.6-1.5"/>
   <path d="m673 334.5 4-2.4"/>
   <path d="m597 413.4 23.6-14.4"/>
  </g>
  <path d="m582.7 318.1 37.9 21.9v43.7l-37.9-21.8v-43.8z" fill="#C91540"/>
  <path d="m620.6 340 18.9-11v43.8l-18.9 10.9v-43.7z" fill="#B2BFE8"/>
  <path d="m601.6 307.1 37.9 21.9-18.9 11-37.9-21.9 18.9-11z" fill="#EBF1FF"/>
  <path d="m506.9 361.9 37.9 21.8v43.8l-37.9-21.9v-43.7z" fill="#C91540"/>
  <path d="m544.8 383.7 56.8-32.8v43.8l-56.8 32.8v-43.8z" fill="#B2BFE8"/>
  <path d="m563.7 329 37.9 21.9-56.8 32.8-37.9-21.8 56.8-32.9z" fill="#EBF1FF"/>
  <g stroke="#fff" stroke-linecap="round" stroke-miterlimit="10">
   <path d="m512 365.8v42.1"/>
   <path d="m536.2 379.6v42.2"/>
   <path d="m519.6 412.3v-29.7c0-1.7 1.8-2.7 3.2-1.8l1.6 1c1.4 0.9 3.2-0.1 3.2-1.8v-5.4"/>
   <path d="m582.7 362.8v18.5c0 1.5-0.8 2.9-2.1 3.7l-14.7 8.5c-1.3 0.8-2.1 2.2-2.1 3.7v18.6"/>
   <path d="m526.6 372.4 15-8.7c1.4-0.8 1.4-2.9 0-3.7l-5.6-3.2c-1.4-0.8-1.4-2.9 0-3.7l34.3-19.8"/>
   <path d="m587.5 343.6-34 19.6c-1.4 0.8-1.4 2.9 0 3.7l9.4 5.4"/>
  </g>
 </g>
 <defs>
  <linearGradient id="paint0_linear_1799_963" x1="499.82" x2="367.76" y1="272.63" y2="196.39" gradientUnits="userSpaceOnUse">
   <stop stop-color="#fff" offset=".5059"/>
   <stop stop-color="#EBF1FF" offset="1"/>
  </linearGradient>
  <clipPath id="clip0_1799_963">
   <rect width="853.2" height="761.9" fill="#fff"/>
  </clipPath>
 </defs>
</svg>
