<svg width="854" height="762" viewBox="0 0 854 762" fill="none" xmlns="http://www.w3.org/2000/svg">
<g clip-path="url(#clip0_1799_963)">
<path d="M661.1 715.3L587.6 672.8C581 669 572.9 669 566.4 672.8L492.9 715.3C486.3 719.1 478.2 719.1 471.7 715.3L436.1 694.7C429.5 690.9 421.4 690.9 414.9 694.7L303.5 759C296.9 762.8 288.8 762.8 282.3 759L43.2001 621.2C36.1001 617.1 36.1001 606.9 43.2001 602.8L125.1 555.5C132.2 551.4 132.2 541.2 125.1 537.1L5.3001 468C-1.7999 463.9 -1.7999 453.7 5.3001 449.6L163 358.6C170.1 354.5 170.1 344.3 163 340.2L137.7 325.6C130.6 321.5 130.6 311.3 137.7 307.2L301 213.2C307.6 209.4 315.6 209.4 322.2 213.2L452.6 288.5C459.2 292.3 467.3 292.3 473.8 288.5L604.2 213.2C610.8 209.4 618.9 209.4 625.4 213.2L788.4 307.3C795.5 311.4 795.5 321.6 788.4 325.7L725.5 362C718.4 366.1 718.4 376.3 725.5 380.4L847.8 451C854.9 455.1 854.9 465.3 847.8 469.4L728 538.6C720.9 542.7 720.9 552.9 728 557L826.3 613.8C833.4 617.9 833.4 628.1 826.3 632.2L682.3 715.4C675.7 719.1 667.7 719.1 661.1 715.3Z" fill="#D9E2FF"/>
<path d="M661.1 710.5L587.5 668C580.9 664.2 572.8 664.2 566.3 668L492.8 710.5C486.2 714.3 478.1 714.3 471.6 710.5L436 689.9C429.4 686.1 421.3 686.1 414.8 689.9L303.4 754.2C296.8 758 288.7 758 282.2 754.2L43.2001 616.4C36.1001 612.3 36.1001 602.1 43.2001 598L125.1 550.7C132.2 546.6 132.2 536.4 125.1 532.3L5.3001 463.2C-1.7999 459.1 -1.7999 448.9 5.3001 444.8L163 353.8C170.1 349.7 170.1 339.5 163 335.4L137.7 320.8C130.6 316.7 130.6 306.5 137.7 302.4L301 208.4C307.6 204.6 315.6 204.6 322.2 208.4L452.6 283.7C459.2 287.5 467.3 287.5 473.8 283.7L604.2 208.4C610.8 204.6 618.9 204.6 625.4 208.4L788.4 302.5C795.5 306.6 795.5 316.8 788.4 320.9L725.5 357.2C718.4 361.3 718.4 371.5 725.5 375.6L847.8 446.2C854.9 450.3 854.9 460.5 847.8 464.6L728 533.8C720.9 537.9 720.9 548.1 728 552.2L826.3 609C833.4 613.1 833.4 623.3 826.3 627.4L682.3 710.6C675.7 714.3 667.7 714.3 661.1 710.5Z" fill="#EBF1FF"/>
<path d="M448.6 618.5L676.1 487.2L448.6 355.9L221.2 487.2L448.6 618.5Z" fill="#24386C"/>
<path d="M676.1 487.2V511.8L448.6 643.1V618.5L676.1 487.2Z" fill="#B2BFE8"/>
<path d="M221.2 429.9V473.6L448.6 604.9V561.2L221.2 429.9Z" fill="#D81E54"/>
<path d="M221.2 487.2V511.8L448.6 643.1V618.5L221.2 487.2Z" fill="#D9E2FF"/>
<path d="M676.1 429.9V473.6L448.6 604.9V561.2L676.1 429.9Z" fill="#B71342"/>
<path d="M672.5 164.9L710.5 186.8V230.6L672.5 208.7V164.9Z" fill="#C91540"/>
<path d="M710.5 186.8L729.4 175.9V219.6L710.5 230.6V186.8Z" fill="#B2BFE8"/>
<path d="M691.5 154L729.4 175.9L710.5 186.8L672.5 164.9L691.5 154Z" fill="#EBF1FF"/>
<path d="M448.6 561.2L676.1 429.9L448.6 298.5L221.2 429.9L448.6 561.2Z" fill="#C91540"/>
<path d="M464.6 508.2L586.1 438C594.5 433.2 598.5 423.3 596 414L592 399.5C552.2 253.5 345.1 253.5 305.3 399.5L301.3 414C298.8 423.3 302.8 433.2 311.2 438L432.7 508.2C442.6 513.9 454.7 513.9 464.6 508.2Z" fill="#D9E2FF"/>
<path d="M596.7 208.7L634.6 230.6V274.3L596.7 252.5V208.7Z" fill="#C91540"/>
<path d="M634.6 230.6L691.5 197.7V241.5L634.6 274.3V230.6Z" fill="#B2BFE8"/>
<path d="M653.6 175.9L691.5 197.7L634.6 230.6L596.7 208.7L653.6 175.9Z" fill="#EBF1FF"/>
<path d="M561 29.6001L598.9 51.5001L599 95.3001L561 73.4001V29.6001Z" fill="#C91540"/>
<path d="M282.3 86.6001L320.2 108.4V152.2L282.3 130.3V86.6001Z" fill="#C91540"/>
<path d="M320.2 108.4L339.2 97.5V141.3L320.2 152.2V108.4Z" fill="#B2BFE8"/>
<path d="M301.3 75.6001L339.2 97.5001L320.2 108.4L282.3 86.6001L301.3 75.6001Z" fill="#EBF1FF"/>
<path d="M598.9 51.5001L617.9 40.6001V84.3001L599 95.3001L598.9 51.5001Z" fill="#B2BFE8"/>
<path d="M580 18.6997L617.9 40.5997L598.9 51.4997L561 29.5997L580 18.6997Z" fill="#EBF1FF"/>
<path d="M206.5 130.3L244.4 152.2V196L206.5 174.1V130.3Z" fill="#C91540"/>
<path d="M244.4 152.2L301.3 119.4V163.2L244.4 196V152.2Z" fill="#B2BFE8"/>
<path d="M263.4 97.5L301.3 119.4L244.4 152.2L206.5 130.3L263.4 97.5Z" fill="#EBF1FF"/>
<path d="M485.2 73.3999L523.1 95.2999V139.1L485.2 117.2V73.3999Z" fill="#C91540"/>
<path d="M523.1 95.3L580 62.5V106.2L523.1 139.1V95.3Z" fill="#B2BFE8"/>
<path d="M542.1 40.6001L580 62.5001L523.1 95.3001L485.2 73.4001L542.1 40.6001Z" fill="#EBF1FF"/>
<path d="M442.2 27.7999C440 14.1999 429.1 1.89988 417.9 0.199883C413.4 -0.500117 409.5 0.599883 406.7 3.09988L361 29.5999L388 75.2999L434.1 48.2999C440.5 45.3999 443.9 37.5999 442.2 27.7999Z" fill="#B2BFE8"/>
<path d="M387.54 75.666C396.264 70.563 397.324 56.1463 389.906 43.4652C382.489 30.7841 369.404 24.6408 360.679 29.7437C351.955 34.8466 350.896 49.2634 358.313 61.9445C365.731 74.6256 378.816 80.7689 387.54 75.666Z" fill="#24386C"/>
<path d="M731.2 77.6998C729 64.1998 718 51.7998 706.8 50.0998C702.3 49.3998 698.4 50.4998 695.6 52.9998L650 79.4998L677 125.2L723.1 98.1998C729.4 95.2998 732.8 87.5998 731.2 77.6998Z" fill="#B2BFE8"/>
<path d="M676.566 125.653C685.291 120.55 686.35 106.134 678.933 93.4525C671.515 80.7714 658.43 74.6281 649.706 79.731C640.982 84.834 639.922 99.2507 647.34 111.932C654.757 124.613 667.842 130.756 676.566 125.653Z" fill="#24386C"/>
<path d="M288.4 255C286.2 241.5 275.2 229.1 264 227.4C259.5 226.7 255.6 227.8 252.8 230.3L207.2 256.8L234.2 302.5L280.3 275.5C286.6 272.6 290 264.8 288.4 255Z" fill="#B2BFE8"/>
<path d="M233.724 302.859C242.448 297.756 243.508 283.339 236.09 270.658C228.673 257.977 215.588 251.834 206.863 256.937C198.139 262.04 197.08 276.456 204.497 289.137C211.915 301.818 225 307.962 233.724 302.859Z" fill="#24386C"/>
<path d="M770.8 295.2C768.6 281.7 757.6 269.3 746.4 267.6C741.9 266.9 738 268 735.2 270.5L689.6 297L716.6 342.7L762.7 315.7C769 312.8 772.4 305 770.8 295.2Z" fill="#B2BFE8"/>
<path d="M716.156 343.067C724.88 337.964 725.939 323.547 718.522 310.866C711.105 298.185 698.019 292.042 689.295 297.145C680.571 302.248 679.512 316.664 686.929 329.345C694.346 342.026 707.432 348.17 716.156 343.067Z" fill="#24386C"/>
<path d="M490 306.1L415.4 349.2C411.2 351.7 405.8 348.6 405.8 343.7V314.4L490.1 288.8C490.1 288.8 488.8 295.3 491.3 302.3C491.9 303.7 491.3 305.4 490 306.1Z" fill="#24386C"/>
<path d="M433.8 148.1C429.6 148.1 425.6 148.5 421.6 149.3C394.1 154.8 371.9 178.8 364.2 210.1C362.3 217.8 361.3 226 361.3 234.5C361.3 254.7 367.1 273.3 376.9 288C390.2 308 410.8 320.9 433.9 320.9C459.8 320.9 482.5 304.8 495.3 280.5C497.2 276.9 498.9 273 500.4 269.1C501.7 265.5 502.8 261.8 503.7 258C505.5 250.6 506.4 242.7 506.4 234.6C506.3 186.8 473.9 148.1 433.8 148.1Z" fill="url(#paint0_linear_1799_963)"/>
<path d="M426.9 242.3C431.1 244.1 435.8 245.1 440.7 245.1C442.8 245.1 444.9 244.9 446.9 244.5C446.2 242 445.8 239.4 445.8 236.7C445.8 236.5 445.8 236.3 445.8 236.1C448.3 238.6 451.2 240.7 454.4 242.2C458 243.8 462 244.8 466.2 244.8C472.7 244.8 478.6 242.6 483.4 239V261.8C483.4 264.3 485.4 266.3 487.9 266.3C490.4 266.3 492.4 264.3 492.4 261.8L492.3 245.2C498.8 246.7 503.7 252.6 503.7 259.6C503.7 265 500.7 269.8 496.3 272.4V278.8C509.4 264 516.3 246.2 516.3 224.8C516.3 178.4 478.7 140.7 432.2 140.7C412.3 140.7 393.7 148.2 379.3 159.8C368.9 168.7 362.3 181.9 362.3 196.7C362.3 201.4 363 205.9 364.2 210.2C370.1 230.4 388.7 245.1 410.8 245.1C412.9 245.1 415.1 245 417.1 244.7C412.9 239.4 410.1 232.9 409.5 225.8C413.1 233.1 419.3 239 426.9 242.3Z" fill="#C91540"/>
<path d="M562 454.3L574.9 461.8C577.7 463.4 577.7 467.5 574.9 469.2L568.7 472.8C565.9 474.4 565.9 478.5 568.7 480.2L578.9 486.1V528.5" stroke="#24386C" stroke-miterlimit="10" stroke-linecap="round"/>
<path d="M596 430.1L617.1 442.3C618.4 443.1 620 443.1 621.3 442.3L631.8 436.3C634.6 434.7 634.6 430.6 631.8 428.9L625.6 425.3C622.8 423.7 622.8 419.6 625.6 417.9L639.6 409.8" stroke="#24386C" stroke-miterlimit="10" stroke-linecap="round"/>
<path d="M504.7 486.9L541 507.8V550.5" stroke="#24386C" stroke-miterlimit="10" stroke-linecap="round"/>
<path d="M393.1 486.6L379.2 494.6C376.4 496.2 376.4 500.3 379.2 502L385.4 505.6C388.2 507.2 388.2 511.3 385.4 513L375.2 518.9V561.3" stroke="#24386C" stroke-miterlimit="10" stroke-linecap="round"/>
<path d="M355.3 464.6L339.1 473.9C336.5 475.4 333.2 475.4 330.6 473.9L320.1 467.9C317.5 466.4 314.2 466.4 311.6 467.9L299.3 475V517.9" stroke="#24386C" stroke-miterlimit="10" stroke-linecap="round"/>
<path d="M317 443L301.2 452.1C298.6 453.6 295.3 453.6 292.7 452.1L263.3 435.1C260.7 433.6 257.4 433.6 254.8 435.1L242.5 442.2V484.8" stroke="#24386C" stroke-miterlimit="10" stroke-linecap="round"/>
<path d="M669.1 336.7L654.4 345.2C650.9 347.2 650.9 352.3 654.4 354.4L676.4 367.1C679.9 369.1 679.9 374.2 676.4 376.3L630.8 402.6" stroke="#24386C" stroke-miterlimit="10" stroke-linecap="round"/>
<path d="M300.8 412.9L276.6 398.9" stroke="#24386C" stroke-miterlimit="10" stroke-linecap="round"/>
<path d="M590.8 560.6V537.4" stroke="white" stroke-miterlimit="10" stroke-linecap="round"/>
<path d="M552.7 582.5V559.2" stroke="white" stroke-miterlimit="10" stroke-linecap="round"/>
<path d="M363.5 593.4V570.1" stroke="#B2BFE8" stroke-miterlimit="10" stroke-linecap="round"/>
<path d="M287.5 549.5V526.2" stroke="#B2BFE8" stroke-miterlimit="10" stroke-linecap="round"/>
<path d="M230.8 516.4V493.4" stroke="#B2BFE8" stroke-miterlimit="10" stroke-linecap="round"/>
<path d="M491.7 64.6001V106.6" stroke="white" stroke-miterlimit="10" stroke-linecap="round"/>
<path d="M504.2 127.6V109.9C504.2 108.3 506 107.2 507.4 108.1L515 112.5C516.4 113.3 518.2 112.3 518.2 110.7V93" stroke="white" stroke-miterlimit="10" stroke-linecap="round"/>
<path d="M497.9 123.9V94.1C497.9 92.4 499.7 91.4 501.1 92.3L502.7 93.3C504.1 94.2 505.9 93.2 505.9 91.5V86" stroke="white" stroke-miterlimit="10" stroke-linecap="round"/>
<path d="M561 74.2998V92.7998C561 94.2998 560.2 95.6998 558.9 96.4998L544.2 105C542.9 105.8 542.1 107.2 542.1 108.7V127.3" stroke="white" stroke-miterlimit="10" stroke-linecap="round"/>
<path d="M505 83.8998L520 75.1998C521.4 74.3998 521.4 72.2998 520 71.4998L514.4 68.2998C513 67.4998 513 65.3998 514.4 64.5998L548.7 44.7998" stroke="white" stroke-miterlimit="10" stroke-linecap="round"/>
<path d="M565.9 55.1997L531.9 74.7997C530.5 75.5997 530.5 77.6997 531.9 78.4997L541.3 83.8997" stroke="white" stroke-miterlimit="10" stroke-linecap="round"/>
<path d="M623.2 267.3V248.3C623.2 246.8 622.4 245.4 621 244.6L611.7 239.4C610.4 238.6 609.5 237.2 609.5 235.7V217.2" stroke="white" stroke-miterlimit="10" stroke-linecap="round"/>
<path d="M630.8 271.4V229.3" stroke="white" stroke-miterlimit="10" stroke-linecap="round"/>
<path d="M604.8 256.3V245.3C604.8 243.8 604 242.4 602.7 241.6L597.4 238.6" stroke="white" stroke-miterlimit="10" stroke-linecap="round"/>
<path d="M672.5 209.3V228.1C672.5 229.6 671.7 231 670.4 231.8L655.7 240.3C654.4 241.1 653.6 242.5 653.6 244V262.6" stroke="white" stroke-miterlimit="10" stroke-linecap="round"/>
<path d="M690.9 220L685 223.4C683.7 224.2 682.9 225.6 682.9 227.1V246" stroke="white" stroke-miterlimit="10" stroke-linecap="round"/>
<path d="M642.3 269.5V226.9" stroke="white" stroke-miterlimit="10" stroke-linecap="round"/>
<path d="M635.4 187.2L650.5 195.9C651.9 196.7 651.9 198.8 650.5 199.6L636.9 207.5C635.6 208.3 634 208.3 632.7 207.5L616.6 198.2" stroke="white" stroke-miterlimit="10" stroke-linecap="round"/>
<path d="M684.9 194.8L644.4 217.8C643.1 218.5 641.5 218.5 640.2 217.8L631.8 212.9C630.5 212.1 628.9 212.1 627.5 212.9L616.3 219.4" stroke="white" stroke-miterlimit="10" stroke-linecap="round"/>
<path d="M671.6 187.3L664.1 191.6C662.8 192.4 661.1 192.4 659.8 191.6L644 182.2" stroke="white" stroke-miterlimit="10" stroke-linecap="round"/>
<path d="M219.5 180.9V163.4C219.5 161.8 221.3 160.7 222.7 161.6L226.9 164C228.3 164.8 230.1 163.8 230.1 162.2V144.8" stroke="white" stroke-miterlimit="10" stroke-linecap="round"/>
<path d="M263.4 142V159.5C263.4 161.1 265.2 162.2 266.6 161.3L279.2 154C280.6 153.2 282.4 154.2 282.4 155.8V173.4" stroke="white" stroke-miterlimit="10" stroke-linecap="round"/>
<path d="M300.8 141.5L294.5 145.2C293.1 146 291.3 145 291.3 143.4V126.1" stroke="white" stroke-miterlimit="10" stroke-linecap="round"/>
<path d="M288 170V163.8C288 162.2 288.8 160.8 290.2 160.1L300.8 154.3" stroke="white" stroke-miterlimit="10" stroke-linecap="round"/>
<path d="M251.9 148.7V190.8" stroke="white" stroke-miterlimit="10" stroke-linecap="round"/>
<path d="M270.1 102.1L255.1 110.9C253.7 111.7 253.7 113.8 255.1 114.6L260.2 117.6C261.6 118.4 261.6 120.5 260.2 121.3L246.6 129.2C245.3 130 243.7 130 242.4 129.2L226.2 119.8" stroke="white" stroke-miterlimit="10" stroke-linecap="round"/>
<path d="M238.6 191.8V148.7L279.1 125.7C280.5 124.9 280.5 122.9 279.1 122L272.1 117.9C270.7 117.1 270.7 115 272.1 114.2L281.6 108.7" stroke="white" stroke-miterlimit="10" stroke-linecap="round"/>
<path d="M215.6 125.7L230.9 134.4C232.3 135.2 232.3 137.3 230.9 138.1L225.5 141.2V151.1C225.5 152.8 223.7 153.8 222.3 152.9L217.3 149.8C215.9 148.9 214.1 149.9 214.1 151.6V177.7" stroke="white" stroke-miterlimit="10" stroke-linecap="round"/>
<path d="M429.7 6.8999L382.3 34.2999V50.4999C382.3 52.0999 380.5 53.1999 379.1 52.2999L378.6 51.9999C377.2 51.1999 375.4 52.1999 375.4 53.7999V75.9999" stroke="white" stroke-miterlimit="10" stroke-linecap="round"/>
<path d="M364.7 69.1998V43.4998C364.7 41.8998 366.5 40.7998 367.9 41.6998L370.1 42.9998C371.5 43.7998 373.3 42.7998 373.3 41.1998V28.9998L420.1 1.2998" stroke="white" stroke-miterlimit="10" stroke-linecap="round"/>
<path d="M388.1 74.4998V61.1998C388.1 59.5998 389.9 58.4998 391.3 59.3998L394.8 61.3998L442 35.2998" stroke="white" stroke-miterlimit="10" stroke-linecap="round"/>
<path d="M361.7 66.0997V44.9997C361.7 43.4997 360.9 42.0997 359.6 41.2997L355.1 38.6997" stroke="white" stroke-miterlimit="10" stroke-linecap="round"/>
<path d="M726 66.1001L725.3 66.5001L678.8 93.4001V123.2" stroke="white" stroke-miterlimit="10" stroke-linecap="round"/>
<path d="M673.6 126.2V105.8C673.6 104.2 672.8 102.8 671.4 102.1L666.7 99.4998C665.3 98.7998 664.5 97.2998 664.5 95.7998V79.7998L712 52.2998" stroke="white" stroke-miterlimit="10" stroke-linecap="round"/>
<path d="M650 80.1997V97.6997C650 99.1997 650.8 100.6 652.1 101.4L662.3 107.3C663.6 108.1 664.4 109.5 664.4 111V125.9" stroke="white" stroke-miterlimit="10" stroke-linecap="round"/>
<path d="M730.5 85.3999L684.2 112.1" stroke="white" stroke-miterlimit="10" stroke-linecap="round"/>
<path d="M270.4 230.2L222.5 257.4V274.3C222.5 275.9 220.7 277 219.3 276.1L216 274.2C214.6 273.4 212.8 274.4 212.8 276V298.1" stroke="white" stroke-miterlimit="10" stroke-linecap="round"/>
<path d="M214.4 255.8V264.5C214.4 266.2 212.6 267.2 211.2 266.3L203.1 261.3" stroke="white" stroke-miterlimit="10" stroke-linecap="round"/>
<path d="M235.3 300.9V282.7C235.3 281.2 234.5 279.8 233.2 279.1L232 278.4C230.7 277.6 229.9 276.3 229.9 274.8V263.1L277.6 236.4L277.9 236.2" stroke="white" stroke-miterlimit="10" stroke-linecap="round"/>
<path d="M228.7 303.9V288.4C228.7 286.8 230.4 285.8 231.9 286.5L240.7 291.4L287.6 265.2" stroke="white" stroke-miterlimit="10" stroke-linecap="round"/>
<path d="M702.5 342.7V296.5L750.1 269" stroke="white" stroke-miterlimit="10" stroke-linecap="round"/>
<path d="M762.1 278.5L715.1 306.1V314.9C715.1 316.5 713.4 317.5 712 316.8L711.7 316.6C710.3 315.8 708.6 316.8 708.6 318.5V344" stroke="white" stroke-miterlimit="10" stroke-linecap="round"/>
<path d="M696.2 296.3V319.3C696.2 320.9 694.4 322 693 321.1L691.6 320.3C690.2 319.5 688.4 320.5 688.4 322.1V330.3" stroke="white" stroke-miterlimit="10" stroke-linecap="round"/>
<path d="M714.4 343V326.8C714.4 325.2 716.1 324.2 717.5 324.9L723.4 328.1L770.5 300.9" stroke="white" stroke-miterlimit="10" stroke-linecap="round"/>
<path d="M498.3 614.5L538.1 637.5C541.4 639.4 545.4 639.4 548.7 637.5L576 621.7C579.3 619.8 583.3 619.8 586.6 621.7L638.2 651.5" stroke="#24386C" stroke-miterlimit="10" stroke-linecap="round"/>
<path d="M644.8 655.3L657.1 662.4" stroke="#24386C" stroke-miterlimit="10" stroke-linecap="round"/>
<path d="M593 559.8L632.8 582.8C636.1 584.7 640.1 584.7 643.4 582.8L651.7 578C655 576.1 659 576.1 662.3 578L770.7 640.6" stroke="#24386C" stroke-miterlimit="10" stroke-linecap="round"/>
<path d="M630.9 537.9L655.5 552.1C656.2 552.5 656.2 553.5 655.5 553.9L654 554.7C653.3 555.1 653.3 556.2 654 556.6L671.9 566.3" stroke="#24386C" stroke-miterlimit="10" stroke-linecap="round"/>
<path d="M655.3 523.6L681.5 538.7" stroke="#24386C" stroke-miterlimit="10" stroke-linecap="round"/>
<path d="M673.8 567.3L679 570.2" stroke="#24386C" stroke-miterlimit="10" stroke-linecap="round"/>
<path d="M316 706.2L402.8 656.1C406.3 654.1 406.3 649 402.8 646.9L380.8 634.2C377.3 632.2 377.3 627.1 380.8 625L398.3 614.9" stroke="#24386C" stroke-miterlimit="10" stroke-linecap="round"/>
<path d="M311.3 708.9L305.4 712.3" stroke="#24386C" stroke-miterlimit="10" stroke-linecap="round"/>
<path d="M244.3 616.3L272.8 599.8C276.1 597.9 280.1 597.9 283.4 599.8L310.7 615.5C314 617.4 318 617.4 321.3 615.5L360.6 593" stroke="#24386C" stroke-miterlimit="10" stroke-linecap="round"/>
<path d="M240.2 618.5L230.7 624.1" stroke="#24386C" stroke-miterlimit="10" stroke-linecap="round"/>
<path d="M226 626.8L221.2 629.6" stroke="#24386C" stroke-miterlimit="10" stroke-linecap="round"/>
<path d="M221.2 585.8L251.1 568.5C254.6 566.5 254.6 561.4 251.1 559.3L248.1 557.5C244.6 555.5 244.6 550.4 248.1 548.3L265.6 538.2" stroke="#24386C" stroke-miterlimit="10" stroke-linecap="round"/>
<path d="M123.3 653.2L203.1 606.4C206.6 604.3 206.6 599.3 203.1 597.2L172.4 579.5C168.9 577.5 168.9 572.4 172.4 570.3L246.6 527.5" stroke="#24386C" stroke-miterlimit="10" stroke-linecap="round"/>
<path d="M181 416.2L198.3 426.2C201.8 428.2 201.8 433.3 198.3 435.4L195.2 437.2C191.7 439.2 191.7 444.3 195.2 446.4L220.3 461" stroke="#24386C" stroke-miterlimit="10" stroke-linecap="round"/>
<path d="M176.1 413.5L168.3 408.9" stroke="#24386C" stroke-miterlimit="10" stroke-linecap="round"/>
<path d="M201.9 355.9L232.2 373.4C235.7 375.4 235.7 380.5 232.2 382.6L229.2 384.4C225.7 386.4 225.7 391.5 229.2 393.6L256 409.1" stroke="#24386C" stroke-miterlimit="10" stroke-linecap="round"/>
<path d="M195.2 351.9L187.9 347.8" stroke="#24386C" stroke-miterlimit="10" stroke-linecap="round"/>
<path d="M201.9 312.1L312.7 376" stroke="#24386C" stroke-miterlimit="10" stroke-linecap="round"/>
<path d="M195.2 308.2L187.9 304" stroke="#24386C" stroke-miterlimit="10" stroke-linecap="round"/>
<path d="M306.5 328.7L310.7 331.1C314 333 318 333 321.3 331.1L329.6 326.3C332.9 324.4 336.9 324.4 340.2 326.3L345.4 329.3" stroke="#24386C" stroke-miterlimit="10" stroke-linecap="round"/>
<path d="M303.6 327L301.5 325.8" stroke="#24386C" stroke-miterlimit="10" stroke-linecap="round"/>
<path d="M517.2 305.5L535.4 294.9C538.9 292.9 538.9 287.8 535.4 285.7L532.4 283.9C528.9 281.9 528.9 276.8 532.4 274.7L536.6 272.3" stroke="#24386C" stroke-miterlimit="10" stroke-linecap="round"/>
<path d="M540.5 270.2L544 268.1" stroke="#24386C" stroke-miterlimit="10" stroke-linecap="round"/>
<path d="M627.4 299L617 304.9C613.7 306.8 609.7 306.8 606.4 304.9L605.5 304.4C602.2 302.5 598.2 302.5 594.9 304.4L551.5 329.4" stroke="#24386C" stroke-miterlimit="10" stroke-linecap="round"/>
<path d="M575.1 359.6L600.3 345.1L590.8 339.6L684.7 284.4" stroke="#24386C" stroke-miterlimit="10" stroke-linecap="round"/>
<path d="M688.4 282.3L691 280.8" stroke="#24386C" stroke-miterlimit="10" stroke-linecap="round"/>
<path d="M673 334.5L677 332.1" stroke="#24386C" stroke-miterlimit="10" stroke-linecap="round"/>
<path d="M597 413.4L620.6 399" stroke="#24386C" stroke-miterlimit="10" stroke-linecap="round"/>
<path d="M582.7 318.1L620.6 340V383.7L582.7 361.9V318.1Z" fill="#C91540"/>
<path d="M620.6 340L639.5 329V372.8L620.6 383.7V340Z" fill="#B2BFE8"/>
<path d="M601.6 307.1L639.5 329L620.6 340L582.7 318.1L601.6 307.1Z" fill="#EBF1FF"/>
<path d="M506.9 361.9L544.8 383.7V427.5L506.9 405.6V361.9Z" fill="#C91540"/>
<path d="M544.8 383.7L601.6 350.9V394.7L544.8 427.5V383.7Z" fill="#B2BFE8"/>
<path d="M563.7 329L601.6 350.9L544.8 383.7L506.9 361.9L563.7 329Z" fill="#EBF1FF"/>
<path d="M512 365.8V407.9" stroke="white" stroke-miterlimit="10" stroke-linecap="round"/>
<path d="M536.2 379.6V421.8" stroke="white" stroke-miterlimit="10" stroke-linecap="round"/>
<path d="M519.6 412.3V382.6C519.6 380.9 521.4 379.9 522.8 380.8L524.4 381.8C525.8 382.7 527.6 381.7 527.6 380V374.6" stroke="white" stroke-miterlimit="10" stroke-linecap="round"/>
<path d="M582.7 362.8V381.3C582.7 382.8 581.9 384.2 580.6 385L565.9 393.5C564.6 394.3 563.8 395.7 563.8 397.2V415.8" stroke="white" stroke-miterlimit="10" stroke-linecap="round"/>
<path d="M526.6 372.4L541.6 363.7C543 362.9 543 360.8 541.6 360L536 356.8C534.6 356 534.6 353.9 536 353.1L570.3 333.3" stroke="white" stroke-miterlimit="10" stroke-linecap="round"/>
<path d="M587.5 343.6L553.5 363.2C552.1 364 552.1 366.1 553.5 366.9L562.9 372.3" stroke="white" stroke-miterlimit="10" stroke-linecap="round"/>
</g>
<defs>
<linearGradient id="paint0_linear_1799_963" x1="499.818" y1="272.631" x2="367.764" y2="196.39" gradientUnits="userSpaceOnUse">
<stop offset="0.5059" stop-color="white"/>
<stop offset="1" stop-color="#EBF1FF"/>
</linearGradient>
<clipPath id="clip0_1799_963">
<rect width="853.2" height="761.9" fill="white"/>
</clipPath>
</defs>
</svg>
