<?xml version="1.0" encoding="UTF-8"?>
<svg width="809" height="746" fill="none" version="1.1" viewBox="0 0 809 746" xmlns="http://www.w3.org/2000/svg">
 <path d="m10.4 440v49.8l85.9 55.3v-49.6l-85.9-55.5z" fill="url(#paint0_linear_1799_653)"/>
 <path d="m419.7 620.8v49.7l59 37v-49.7l-59-37z" fill="url(#paint1_linear_1799_653)"/>
 <path d="m542.5 555.8v49.7l43.2 22.7v-49.6l-43.2-22.8z" fill="url(#paint2_linear_1799_653)"/>
 <path d="m192.9 667.8v49.7l54.1 27.7v-49.6l-54.1-27.8z" fill="url(#paint3_linear_1799_653)"/>
 <path d="m348.8 640.5v49.7l25.1 11.2v-49.7l-25.1-11.2z" fill="url(#paint4_linear_1799_653)"/>
 <path d="m668.9 483.1v49.7l15.6 5.6v-49.7l-15.6-5.6z" fill="url(#paint5_linear_1799_653)"/>
 <path d="m111.4 668.8v49.7l38.5 21.5v-49.6l-38.5-21.6z" fill="url(#paint6_linear_1799_653)"/>
 <path d="m30.4 670.1v49.7l37.3 23.7v-49.7l-37.3-23.7z" fill="url(#paint7_linear_1799_653)"/>
 <path d="M0 566.1V615.9L85.9 671.2V621.6L0 566.1Z" fill="url(#paint8_linear_1799_653)"/>
 <path d="m138.4 636.2 10.5 6-31.8 18.4c-5.5 3.2-5.5 11.2 0 14.4l23.7 13.7c5.1 3 11.5 3 16.6 0l36-20.8 40.5 23.4c5.1 3 11.5 3 16.6 0l65.8-38-103.7-59.9-74.2 42.8z" fill="#D9E2FF"/>
 <path d="m540.6 611.3-46.8-27-74.1 42.8 51 29.4c5.1 3 11.5 3 16.6 0l53.3-30.8c5.6-3.2 5.6-11.2 0-14.4z" fill="#D9E2FF"/>
 <path d="m25.2 363.5v49.7l85.9 55.4v-49.7l-85.9-55.4z" fill="url(#paint9_linear_1799_653)"/>
 <g fill="#D9E2FF">
  <path d="m804.5 287.8-76.9-44.4 40-23.1c5.5-3.2 5.5-11.2 0-14.4l-46.8-27-74.1 42.8 30.2 17.4-111.9 64.4-43.9-25.3 37.8-21.8c5.5-3.2 5.5-11.2 0-14.4l-46.8-27-50.2 29-59.8-34.5-222.2 128.3-51-29.4c-5.1-3-11.5-3-16.6 0l-83 47.9c-5.5 3.2-5.5 11.2 0 14.4l46.8 27-61.6 35.6c-5.5 3.2-5.5 11.2 0 14.4l61.6 35.6-17.1 9.8c-5.5 3.2-5.5 11.2 0 14.4l23.7 13.7c5.1 3 11.5 3 16.6 0l21.3-12.3 243.6 140.6c5.1 3 11.5 3 16.6 0l161.6-93.3 36 20.8c5.1 3 11.5 3 16.6 0l23.7-13.7c5.5-3.2 5.5-11.2 0-14.4l-31.8-18.4 82-47.4 6.5 3.8c5.1 3 11.5 3 16.6 0l53.3-30.8c5.5-3.2 5.5-11.2 0-14.4l-2.4-1.4 17.2-9.9c5.5-3.2 5.5-11.2 0-14.4l-76.5-44 120.8-69.9c5.6-3.2 5.6-11.2 0.1-14.3z"/>
  <path d="m175.7 657.9 59.5 34.4c7.6 4.4 16.9 4.4 24.4 0l96.7-55.9-152.5-88.1-108.8 63 15.4 8.9 65.3 37.7z"/>
  <path d="m112.1 590.8 59.5 34.4c7.6 4.4 16.9 4.4 24.4 0l96.7-55.9-152.5-88.1-95.2 55c-6.1 3.5-6.1 12.3 0 15.8l1.7 1 65.4 37.8z"/>
  <path d="m71.6 613.5 59.5 34.4c7.6 4.4 16.9 4.4 24.4 0l96.7-55.9-152.4-88.1-95.2 55c-6.1 3.5-6.1 12.3 0 15.8l1.7 1 65.3 37.8z"/>
  <path d="m233.7 656.2-103.7-59.9-74.1 42.8 10.5 6-31.8 18.4c-5.5 3.2-5.5 11.2 0 14.4l23.7 13.7c5.1 3 11.5 3 16.6 0l41.6-24.1"/>
 </g>
 <path d="m71.2 559.2 59.3-34.2-59.3-34.2-59.3 34.2 59.3 34.2z" fill="#EBF1FF"/>
 <path d="m130.5 525v43.2l-59.3 34.2v-43.2l59.3-34.2z" fill="#B2BFE8"/>
 <path d="m11.9 525 59.3 34.2v43.2l-59.3-34.2v-43.2z" fill="#D9E2FF"/>
 <path d="m102.6 525-8.9 5.1-11.7-6.7-14.2 8.1 11.7 6.8-8.3 4.8-31.4-18.1 8.9001-5.2 11.7 6.8 14.2-8.2-11.7-6.8 8.2999-4.7 31.4 18.1z" fill="#B2BFE8"/>
 <path d="m292.8 230.2 29.6 17.1-29.6 17.1-29.7-17.1 29.7-17.1z" fill="#EBF1FF"/>
 <path d="m322.4 247.3v35.5l-29.6 17.1v-35.5l29.6-17.1z" fill="#B2BFE8"/>
 <path d="m263.1 247.3 29.7 17.1v35.5l-29.7-17.1v-35.5z" fill="#D9E2FF"/>
 <path d="m292.8 238.3 15.5 9-15.5 9-15.6-9 15.6-9z" fill="#B2BFE8"/>
 <path d="m292.8 244.4 5 2.9-5 3-5.1-3 5.1-2.9z" fill="#EBF1FF"/>
 <path d="m319.4 370.8 29.6 17.1-29.6 17.1-29.7-17.1 29.7-17.1z" fill="#EBF1FF"/>
 <path d="m349 387.9v35.4l-29.6 17.1v-35.4l29.6-17.1z" fill="#B2BFE8"/>
 <path d="m289.7 387.9 29.7 17.1v35.4l-29.7-17.1v-35.4z" fill="#D9E2FF"/>
 <path d="m338.7 387.9-5.5 3.1-7.2-4.1-8.7 5 7.2 4.2-5.1 2.9-19.4-11.1 5.5-3.2 7.2 4.2 8.7-5.1-7.1-4.1 5.1-3 19.3 11.2z" fill="#B2BFE8"/>
 <path d="m210.5 187.9 59.3-34.2-59.3-34.2-59.3 34.2 59.3 34.2z" fill="#EBF1FF"/>
 <path d="m269.8 153.7v222.4l-59.3 34.3v-222.5l59.3-34.2z" fill="#B2BFE8"/>
 <path d="m151.2 153.7 59.3 34.2v222.5l-59.3-34.3v-222.4z" fill="#D9E2FF"/>
 <path d="m198.83 151.9 11.674 18.903 44.4-25.6 6.4996-25.7z" fill="#b71342"/>
 <path d="m136.4 110.9v17.1l74.1 42.8v-25.65z" fill="#d81e54"/>
 <path d="m295.18 133.39-10.584 28.905-29.7-17.1v-17.2z" fill="#d81e54"/>
 <path d="m314.2 128v17.1l-29.6 17.2v-17.1l29.6-17.2z" fill="#B71342"/>
 <path d="m210.5 68.2-74.1 42.8 74.1 42.8 44.5-25.7 29.6 17.1 29.6-17.1zm0 68.4c-14.441-8.3402-29.6-17.1-29.6-17.1l3.1621-8.0297 26.438-9.0703 32.334 6.7187-2.7344 10.381z" fill="#c91540"/>
 <path d="m210.5 102.4 29.6 17.1 14.9-8.6-44.5-25.6z" fill="#d81e54"/>
 <path d="m180.9 119.5 29.6-17.1v-17.1l-44.5 25.6 14.9 8.6z" fill="#B71342"/>
 <path d="m727.7 161.7 29.7 17.1-29.7 17.1-29.6-17.1 29.6-17.1z" fill="#EBF1FF"/>
 <path d="m757.4 178.8v35.5l-29.7 17.1v-35.5l29.7-17.1z" fill="#B2BFE8"/>
 <path d="m698.1 178.8 29.6 17.1v35.5l-29.6-17.1v-35.5z" fill="#D9E2FF"/>
 <path d="m739.8 176.1-7.3 4.2v-8.4l-4.8-2.8-16.8 9.7 4.8 2.8 12-7v13.9l4.8-2.7 12-7-4.7-2.7z" fill="#B2BFE8"/>
 <path d="m221.3 393.4 103.7 59.8-29.6 17.2-103.7-59.9 29.6-17.1z" fill="#EBF1FF"/>
 <path d="m191.7 410.5v85.5l103.7 59.9v-85.5l-103.7-59.9z" fill="#D9E2FF"/>
 <path d="m325 453.2v85.6l-29.6 17.1v-85.5l29.6-17.2z" fill="#B2BFE8"/>
 <path d="m544.5 119.8 59.3-34.3-59.3-34.2-59.2 34.2 59.2 34.3z" fill="#EBF1FF"/>
 <path d="m544.5 0-74.1 42.8 0.1 17.1 74 42.8 44.5-25.7 29.6 17.1 29.7-17.1-0.1-17.1zm0 68.4-29.6-17.1 29.6-17.1 29.7 17.1z" fill="#c91540"/>
 <path d="M603.8 85.5V308L544.5 342.2V119.8L603.8 85.5Z" fill="#B2BFE8"/>
 <path d="M485.3 85.5L544.5 119.8V342.2L485.3 308V85.5Z" fill="#D9E2FF"/>
 <path d="m544.5 85.5v17.2l44.5-25.7v-17.1l-44.5 25.6z" fill="#B71342"/>
 <path d="m470.5 42.8v17.1l74 42.8v-17.2l-74-42.7z" fill="#D81E54"/>
 <path d="m618.6 77v17.1l-29.6-17.1v-17.1l29.6 17.1z" fill="#D81E54"/>
 <path d="m392.3 216.2 59.2-34.2-59.2-34.2-59.3 34.2 59.3 34.2z" fill="#EBF1FF"/>
 <path d="m648.3 59.9v17.1l-29.7 17.1v-17.1l29.7-17.1z" fill="#B71342"/>
 <path d="m451.5 182v222.4l-59.2 34.3v-222.5l59.2-34.2z" fill="#B2BFE8"/>
 <path d="M333 182L392.3 216.2V438.7L333 404.4V182Z" fill="#D9E2FF"/>
 <path d="m379.47 174.59 12.831 24.511 44.4-25.7 7.6133-24.34z" fill="#b71342"/>
 <path d="m318.2 139.2v17.1l74.1 42.8v-34.2z" fill="#d81e54"/>
 <path d="m473.9 406 59.3-34.3-59.3-34.2-59.2 34.2 59.2 34.3z" fill="#EBF1FF"/>
 <path d="m533.2 371.7v43.2l-59.3 34.3v-43.2l59.3-34.3z" fill="#B2BFE8"/>
 <path d="m414.7 371.7 59.2 34.3v43.2l-59.2-34.3v-43.2z" fill="#D9E2FF"/>
 <path d="m497.1 366.5-14 8.1v-16.2l-9.2-5.3-32.2 18.6 9.1 5.3 23.1-13.3v26.7l9.2-5.3 23.1-13.4-9.1-5.2z" fill="#B2BFE8"/>
 <path d="m496 156.3-29.7 34.3-29.6-17.2v-17.1z" fill="#d81e54"/>
 <path d="m496 156.3v17.1l-29.7 17.2v-17.2l29.7-17.1z" fill="#B71342"/>
 <path d="m392.3 96.4-74.1 42.8 74.1 42.8 44.5-25.7 29.6 17.1 29.6-17.1zm0 68.5-44.5-25.7 44.5-8.5 27.905 7.6557 1.6949 9.4443z" fill="#c91540"/>
 <path d="m392.3 130.7 29.6 17.1 14.8-8.6-44.4-25.6v17.1z" fill="#D81E54"/>
 <path d="m362.6 147.8 29.7-17.1v-17.1l-44.5 25.6 14.8 8.6z" fill="#B71342"/>
 <path d="m387.3 354.6 59.3-34.2-59.3-34.2-59.3 34.2 59.3 34.2z" fill="#EBF1FF"/>
 <path d="m446.6 320.4v222.4l-59.3 34.3v-222.5l59.3-34.2z" fill="#B2BFE8"/>
 <path d="m328 320.4 59.3 34.2v222.5l-59.3-34.3v-222.4z" fill="#D9E2FF"/>
 <path d="m387.3 234.85-74.1 42.8 0.1 17.1 74 42.8 44.5-25.7 29.6 17.1 29.7-17.1-0.1-17.1zm0 68.4-29.6-17.1 29.6-17.1 29.7 17.1z" fill="#c91540"/>
 <path d="m387.3 320.4v17.1l44.5-25.7v-17.1l-44.5 25.7z" fill="#B71342"/>
 <path d="m313.2 277.6v17.1l74.1 42.8v-17.1l-74.1-42.8z" fill="#D81E54"/>
 <path d="m461.4 311.8v17.2l-29.6-17.2v-17.1l29.6 17.1z" fill="#D81E54"/>
 <path d="m491 294.7v17.1l-29.6 17.2v-17.2l29.6-17.1z" fill="#B71342"/>
 <path d="m387.3 234.8-74.1 42.8 74.1 42.8 44.5-25.7 29.6 17.1 29.6-17.1-103.7-59.9zm0 68.5-44.5-25.7 44.5-25.7 44.5 25.7-44.5 25.7z" fill="#C91540"/>
 <path d="m544.5 34.2 29.7 17.1 14.8-8.5-44.5-25.7v17.1z" fill="#D81E54"/>
 <path d="m387.3 269.1 29.6 17.1 14.9-8.6-44.5-25.6v17.1z" fill="#D81E54"/>
 <path d="m357.7 286.2 29.6-17.1v-17.1l-44.5 25.6 14.9 8.6z" fill="#B71342"/>
 <path d="m514.9 51.3 29.6-17.1v-17.1l-44.4 25.7 14.8 8.5z" fill="#B71342"/>
 <path d="m122.4 457.5 59.2-34.2-59.2-34.2-59.3 34.2 59.3 34.2z" fill="#EBF1FF"/>
 <path d="m181.6 423.3v43.2l-59.2 34.2v-43.2l59.2-34.2z" fill="#B2BFE8"/>
 <path d="m63.1 423.3 59.3 34.2v43.2l-59.3-34.2v-43.2z" fill="#D9E2FF"/>
 <path d="m91.5 419.8 32.9 19-10.1 5.9-33-19 10.2-5.9z" fill="#B2BFE8"/>
 <path d="m122.4 449.4 31.3-17.5-10.4-6-31.3 17.5 10.4 6z" fill="#B2BFE8"/>
 <path d="m139.8 264.4 29.6 17.1-29.6 17.1-29.6-17.1 29.6-17.1z" fill="#EBF1FF"/>
 <path d="m169.4 281.5v35.5l-29.6 17.1v-35.5l29.6-17.1z" fill="#B2BFE8"/>
 <path d="m110.2 281.5 29.6 17.1v35.5l-29.6-17.1v-35.5z" fill="#D9E2FF"/>
 <path d="m218.7 404.1 59.2-34.2-59.2-34.2-59.3 34.2 59.3 34.2z" fill="#EBF1FF"/>
 <path d="m277.9 369.9v222.4l-59.2 34.3v-222.5l59.2-34.2z" fill="#B2BFE8"/>
 <path d="m218.7 284.4-74.1 42.8 0.1 17.1 74 42.8 44.5-25.7 29.6 17.1 29.7-17.1-0.1-17.1zm0 68.4-29.6-17.1 29.6-17.1 29.7 17.1z" fill="#c91540"/>
 <path d="m649 234 59.3-34.3-59.3-34.2-59.2 34.2 59.2 34.3z" fill="#EBF1FF"/>
 <path d="m708.3 199.7v43.2l-59.3 34.3v-43.2l59.3-34.3z" fill="#B2BFE8"/>
 <path d="m589.8 199.7 59.2 34.3v43.2l-59.2-34.3v-43.2z" fill="#D9E2FF"/>
 <path d="m159.4 369.9 59.3 34.2v222.5l-59.3-34.3v-222.4z" fill="#D9E2FF"/>
 <path d="M113 471.9L142.6 489L113 506.1L83.3 489L113 471.9Z" fill="#EBF1FF"/>
 <path d="M142.6 489V602.9L113 620V506.1L142.6 489Z" fill="#B2BFE8"/>
 <path d="M83.3 489L113 506.1V620L83.3 602.9V489Z" fill="#D9E2FF"/>
 <path d="m113 480-15.6 9 15.6 9 15.6-9-15.6-9zm0 11.9-5.1-2.9 5.1-2.9 5.1 2.9-5.1 2.9z" fill="#B2BFE8"/>
 <path d="m248.3 646.4 98.4-56.8-98.4-56.9-98.4 56.9 98.4 56.8z" fill="#EBF1FF"/>
 <path d="m346.7 589.6v36.1l-98.4 56.9v-36.2l98.4-56.8z" fill="#B2BFE8"/>
 <path d="m149.9 589.6 98.4 56.8v36.2l-98.4-56.9v-36.1z" fill="#D9E2FF"/>
 <path d="m233.7 590.1 15.2-8.8 24.6 14.3 10.4-6-35.6-20.6-35.5 20.6 35.5 20.5 10-5.8-24.6-14.2z" fill="#B2BFE8"/>
 <path d="m643.4 126.9 29.6 17.2-29.6 17.1-29.7-17.1 29.7-17.2z" fill="#EBF1FF"/>
 <path d="m673 144.1v117.5l-29.6 17.2v-117.6l29.6-17.1z" fill="#B2BFE8"/>
 <path d="m613.7 144.1 29.7 17.1v117.6l-29.7-17.2v-117.5z" fill="#D9E2FF"/>
 <path d="m659.5 144.1-4.6 2.6-6-3.5-7.3 4.2 6.1 3.5-4.3 2.5-16.1-9.3 4.5-2.7 6 3.5 7.3-4.2-6-3.5 4.3-2.5 16.1 9.4z" fill="#B2BFE8"/>
 <path d="m218.7 369.9v17.1l44.4-25.6v-17.2l-44.4 25.7z" fill="#B71342"/>
 <path d="m144.6 327.1v17.1l74.1 42.8v-17.1l-74.1-42.8z" fill="#D81E54"/>
 <path d="m292.8 361.4v17.1l-29.7-17.1v-17.2l29.7 17.2z" fill="#D81E54"/>
 <path d="m322.4 344.2v17.2l-29.6 17.1v-17.1l29.6-17.2z" fill="#B71342"/>
 <path d="m155.8 612.2 29.6 17.1-29.6 17.1-29.6-17.1 29.6-17.1z" fill="#EBF1FF"/>
 <path d="m185.4 629.3v34.2l-29.6 17.1v-34.2l29.6-17.1z" fill="#B2BFE8"/>
 <path d="m126.2 629.3 29.6 17.1v34.2l-29.6-17.1v-34.2z" fill="#D9E2FF"/>
 <path d="m145.4 618.2 18.5 10.7-19.2 11.1-18.5-10.7 19.2-11.1z" fill="#B2BFE8"/>
 <path d="m145.6 630.9 18.5 10.7-8.3 4.8-18.5-10.7 8.3-4.8z" fill="#B2BFE8"/>
 <path d="m218.7 284.4-74.1 42.8 74.1 42.8 44.5-25.7 29.6 17.1 29.6-17.1-103.7-59.9zm0 68.4-44.5-25.7 44.5-25.7 44.5 25.7-44.5 25.7z" fill="#C91540"/>
 <path d="m654 296.1 59.3-34.2-59.3-34.3-59.3 34.3 59.3 34.2z" fill="#EBF1FF"/>
 <path d="m713.3 261.9v43.1l-59.3 34.3v-43.2l59.3-34.2z" fill="#B2BFE8"/>
 <path d="m594.7 261.9 59.3 34.2v43.2l-59.3-34.3v-43.1z" fill="#D9E2FF"/>
 <path d="m218.7 318.6 29.6 17.1 14.8-8.6-44.4-25.6v17.1z" fill="#D81E54"/>
 <path d="m189 335.7 29.7-17.1v-17.1l-44.5 25.6 14.8 8.6z" fill="#B71342"/>
 <path d="m446.6 461.7 29.6 17.1-29.6 17.1-29.7-17.1 29.7-17.1z" fill="#EBF1FF"/>
 <path d="m476.2 478.8v43l-29.6 17.1v-43l29.6-17.1z" fill="#B2BFE8"/>
 <path d="m416.9 478.8 29.7 17.1v43l-29.7-17.1v-43z" fill="#D9E2FF"/>
 <path d="m457 477.7-10.4 6-10.4-6-6.1 3.5 16.5 9.6 16.5-9.6-6.1-3.5z" fill="#B2BFE8"/>
 <path d="m351.6 447.6 103.7 59.8-29.6 17.1-103.7-59.8 29.6-17.1z" fill="#EBF1FF"/>
 <path d="m322 464.7v85.5l103.7 59.9v-85.6l-103.7-59.8z" fill="#D9E2FF"/>
 <path d="m455.3 507.4v85.6l-29.6 17.1v-85.6l29.6-17.1z" fill="#B2BFE8"/>
 <path d="m376 472.9 51.7 29.9-10.1 5.8-51.8-29.9 10.2-5.8z" fill="#B2BFE8"/>
 <path d="m708.3 286.4 29.6 17.1-29.6 17.1-29.6-17.1 29.6-17.1z" fill="#EBF1FF"/>
 <path d="m737.9 303.5v110.2l-29.6 17.1v-110.2l29.6-17.1z" fill="#EBF1FF"/>
 <path d="m678.7 303.5 29.6 17.1v110.2l-29.6-17.1v-110.2z" fill="#D9E2FF"/>
 <path d="m482.2 554.8 29.7 17.1-29.7 17.1-29.6-17.1 29.6-17.1z" fill="#EBF1FF"/>
 <path d="m511.9 571.9v42.9l-29.7 17.1v-42.9l29.7-17.1z" fill="#B2BFE8"/>
 <path d="m452.6 571.9 29.6 17.1v42.9l-29.6-17.1v-42.9z" fill="#D9E2FF"/>
 <path d="m476.6 558 22.3 12.9-18.1 10.5-22.3-12.9 18.1-10.5z" fill="#B2BFE8"/>
 <path d="m649.9 421.2 59.3-34.3-59.3-34.2-59.2 34.2 59.2 34.3z" fill="#EBF1FF"/>
 <path d="m709.2 386.9v43.2l-59.3 34.3v-43.2l59.3-34.3z" fill="#B2BFE8"/>
 <path d="m590.7 386.9 59.2 34.3v43.2l-59.2-34.3v-43.2z" fill="#D9E2FF"/>
 <path d="m681.3 386.9-8.9 5.2-11.7-6.8-14.1 8.2 11.6 6.8-8.3 4.8-31.3-18.2 8.8-5.1 11.7 6.8 14.2-8.2-11.7-6.8 8.3-4.8 31.4 18.1z" fill="#B2BFE8"/>
 <path d="m565 319.6 59.3-34.3-59.3-34.2-59.3 34.2 59.3 34.3z" fill="#EBF1FF"/>
 <path d="m624.3 285.3v207.5l-59.3 34.3v-207.5l59.3-34.3z" fill="#B2BFE8"/>
 <path d="m505.7 285.3 59.3 34.3v207.5l-59.3-34.3v-207.5z" fill="#D9E2FF"/>
 <path d="m565 199.8-74.1 42.8 0.1 17.1 74 42.8 44.5-25.7 29.6 17.1 29.7-17.1-0.1-17.1zm0 68.4-29.6-17.1 29.6-17.1 29.7 17.1z" fill="#c91540"/>
 <path d="m565 285.3v17.2l44.4-25.7v-17.1l-44.4 25.6z" fill="#B71342"/>
 <path d="m498.4 412.6 29.7 17.1-29.7 17.1-29.6-17.1 29.6-17.1z" fill="#EBF1FF"/>
 <path d="m528.1 429.7v110.1l-29.7 17.1v-110.1l29.7-17.1z" fill="#B2BFE8"/>
 <path d="m468.8 429.7 29.6 17.1v110.1l-29.6-17.1v-110.1z" fill="#D9E2FF"/>
 <path d="m490.9 242.6v17.1l74.1 42.8v-17.2l-74.1-42.7z" fill="#D81E54"/>
 <path d="m639.1 276.8v17.1l-29.7-17.1v-17.1l29.7 17.1z" fill="#D81E54"/>
 <path d="m668.7 259.7v17.1l-29.6 17.1v-17.1l29.6-17.1z" fill="#B71342"/>
 <path d="m579.9 424.4 29.7 17.1-29.7 17.1-29.6-17.1 29.6-17.1z" fill="#EBF1FF"/>
 <path d="m609.6 441.5v110.1l-29.7 17.1v-110.1l29.7-17.1z" fill="#B2BFE8"/>
 <path d="m550.3 441.5 29.6 17.1v110.1l-29.6-17.1v-110.1z" fill="#D9E2FF"/>
 <path d="m579.9 432.5 15.6 9-15.6 9-15.6-9 15.6-9z" fill="#B2BFE8"/>
 <path d="m579.9 438.6 5.1 2.9-5.1 2.9-5.1-2.9 5.1-2.9z" fill="#EBF1FF"/>
 <path d="m565 199.8-74.1 42.8 74.1 42.8 44.5-25.7 29.6 17.1 29.6-17.1-103.7-59.9zm0 68.4-44.5-25.7 44.5-25.7 44.5 25.7-44.5 25.7z" fill="#C91540"/>
 <path d="m565 234 29.6 17.1 14.8-8.5-44.4-25.7v17.1z" fill="#D81E54"/>
 <path d="m535.4 251.1 29.6-17.1v-17.1l-44.5 25.7 14.9 8.5z" fill="#B71342"/>
 <path d="m97.4 324.3 29.6 17.1-29.6 17.1-29.7-17.1 29.7-17.1z" fill="#EBF1FF"/>
 <path d="m127 341.4v35.4l-29.6 17.1v-35.4l29.6-17.1z" fill="#B2BFE8"/>
 <path d="m67.7 341.4 29.7 17.1v35.4l-29.7-17.1v-35.4z" fill="#D9E2FF"/>
 <path d="m97.4 334 12.8 7.4-12.8 7.4-12.8-7.4 12.8-7.4z" fill="#B2BFE8"/>
 <path d="m759 236.2 29.7 17.1-29.7 17.1-29.6-17.1 29.6-17.1z" fill="#EBF1FF"/>
 <path d="m788.7 253.3v35.5l-29.7 17.1v-35.5l29.7-17.1z" fill="#B2BFE8"/>
 <path d="m729.4 253.3 29.6 17.1v35.5l-29.6-17.1v-35.5z" fill="#D9E2FF"/>
 <path d="m759 245.9 12.8 7.4-12.8 7.4-12.8-7.4 12.8-7.4z" fill="#B2BFE8"/>
 <path d="m360.7 463.7 10.7 6.2-10.2 5.9-10.6-6.2 10.1-5.9z" fill="#B2BFE8"/>
 <path d="m145.2 625.2 6.5 3.8-6.8 3.9-6.5-3.8 6.8-3.9z" fill="#EBF1FF"/>
 <path d="m67.7 616.9 29.7 17.1-29.7 17.1-29.6-17.1 29.6-17.1z" fill="#EBF1FF"/>
 <path d="m97.4 634v35.4l-29.7 17.1v-35.4l29.7-17.1z" fill="#B2BFE8"/>
 <path d="m38.1 634 29.6 17.1v35.4l-29.6-17.1v-35.4z" fill="#D9E2FF"/>
 <defs>
  <linearGradient id="paint0_linear_1799_653" x1="40.875" x2="65.762" y1="518.09" y2="467.06" gradientUnits="userSpaceOnUse">
   <stop stop-color="#fff" stop-opacity="0" offset=".2559"/>
   <stop stop-color="#D9E2FF" offset="1"/>
  </linearGradient>
  <linearGradient id="paint1_linear_1799_653" x1="437.81" x2="460.61" y1="687.51" y2="640.77" gradientUnits="userSpaceOnUse">
   <stop stop-color="#fff" stop-opacity="0" offset=".2559"/>
   <stop stop-color="#D9E2FF" offset="1"/>
  </linearGradient>
  <linearGradient id="paint2_linear_1799_653" x1="554.01" x2="574.24" y1="612.77" y2="571.29" gradientUnits="userSpaceOnUse">
   <stop stop-color="#fff" stop-opacity="0" offset=".2559"/>
   <stop stop-color="#D9E2FF" offset="1"/>
  </linearGradient>
  <linearGradient id="paint3_linear_1799_653" x1="209.9" x2="230.01" y1="727.12" y2="685.9" gradientUnits="userSpaceOnUse">
   <stop stop-color="#fff" stop-opacity="0" offset=".2559"/>
   <stop stop-color="#D9E2FF" offset="1"/>
  </linearGradient>
  <linearGradient id="paint4_linear_1799_653" x1="351.3" x2="371.28" y1="691.41" y2="650.46" gradientUnits="userSpaceOnUse">
   <stop stop-color="#fff" stop-opacity="0" offset=".2559"/>
   <stop stop-color="#D9E2FF" offset="1"/>
  </linearGradient>
  <linearGradient id="paint5_linear_1799_653" x1="666.51" x2="686.87" y1="531.65" y2="489.89" gradientUnits="userSpaceOnUse">
   <stop stop-color="#fff" stop-opacity="0" offset=".2559"/>
   <stop stop-color="#D9E2FF" offset="1"/>
  </linearGradient>
  <linearGradient id="paint6_linear_1799_653" x1="120.3" x2="140.97" y1="725.56" y2="683.19" gradientUnits="userSpaceOnUse">
   <stop stop-color="#fff" stop-opacity="0" offset=".2559"/>
   <stop stop-color="#D9E2FF" offset="1"/>
  </linearGradient>
  <linearGradient id="paint7_linear_1799_653" x1="38.2" x2="59.919" y1="729.05" y2="684.52" gradientUnits="userSpaceOnUse">
   <stop stop-color="#fff" stop-opacity="0" offset=".2559"/>
   <stop stop-color="#D9E2FF" offset="1"/>
  </linearGradient>
  <linearGradient id="paint8_linear_1799_653" x1="30.523" x2="55.409" y1="644.19" y2="593.16" gradientUnits="userSpaceOnUse">
   <stop stop-color="#fff" stop-opacity="0" offset=".2559"/>
   <stop stop-color="#D9E2FF" offset="1"/>
  </linearGradient>
  <linearGradient id="paint9_linear_1799_653" x1="55.708" x2="80.595" y1="441.56" y2="390.53" gradientUnits="userSpaceOnUse">
   <stop stop-color="#fff" stop-opacity="0" offset=".2559"/>
   <stop stop-color="#D9E2FF" offset="1"/>
  </linearGradient>
 </defs>
</svg>
