<svg width="809" height="746" viewBox="0 0 809 746" fill="none" xmlns="http://www.w3.org/2000/svg">
<path d="M10.4 440V489.8L96.3 545.1V495.5L10.4 440Z" fill="url(#paint0_linear_1799_653)"/>
<path d="M419.7 620.8V670.5L478.7 707.5V657.8L419.7 620.8Z" fill="url(#paint1_linear_1799_653)"/>
<path d="M542.5 555.8V605.5L585.7 628.2V578.6L542.5 555.8Z" fill="url(#paint2_linear_1799_653)"/>
<path d="M192.9 667.8V717.5L247 745.2V695.6L192.9 667.8Z" fill="url(#paint3_linear_1799_653)"/>
<path d="M348.8 640.5V690.2L373.9 701.4V651.7L348.8 640.5Z" fill="url(#paint4_linear_1799_653)"/>
<path d="M668.9 483.1V532.8L684.5 538.4V488.7L668.9 483.1Z" fill="url(#paint5_linear_1799_653)"/>
<path d="M111.4 668.8V718.5L149.9 740V690.4L111.4 668.8Z" fill="url(#paint6_linear_1799_653)"/>
<path d="M30.4 670.1V719.8L67.7 743.5V693.8L30.4 670.1Z" fill="url(#paint7_linear_1799_653)"/>
<path d="M0 566.1V615.9L85.9 671.2V621.6L0 566.1Z" fill="url(#paint8_linear_1799_653)"/>
<path d="M138.4 636.2L148.9 642.2L117.1 660.6C111.6 663.8 111.6 671.8 117.1 675L140.8 688.7C145.9 691.7 152.3 691.7 157.4 688.7L193.4 667.9L233.9 691.3C239 694.3 245.4 694.3 250.5 691.3L316.3 653.3L212.6 593.4L138.4 636.2Z" fill="#D9E2FF"/>
<path d="M540.6 611.3L493.8 584.3L419.7 627.1L470.7 656.5C475.8 659.5 482.2 659.5 487.3 656.5L540.6 625.7C546.2 622.5 546.2 614.5 540.6 611.3Z" fill="#D9E2FF"/>
<path d="M25.2 363.5V413.2L111.1 468.6V418.9L25.2 363.5Z" fill="url(#paint9_linear_1799_653)"/>
<path d="M804.5 287.8L727.6 243.4L767.6 220.3C773.1 217.1 773.1 209.1 767.6 205.9L720.8 178.9L646.7 221.7L676.9 239.1L565 303.5L521.1 278.2L558.9 256.4C564.4 253.2 564.4 245.2 558.9 242L512.1 215L461.9 244L402.1 209.5L179.9 337.8L128.9 308.4C123.8 305.4 117.4 305.4 112.3 308.4L29.3 356.3C23.8 359.5 23.8 367.5 29.3 370.7L76.1 397.7L14.5 433.3C9 436.5 9 444.5 14.5 447.7L76.1 483.3L59 493.1C53.5 496.3 53.5 504.3 59 507.5L82.7 521.2C87.8 524.2 94.2 524.2 99.3 521.2L120.6 508.9L364.2 649.5C369.3 652.5 375.7 652.5 380.8 649.5L542.4 556.2L578.4 577C583.5 580 589.9 580 595 577L618.7 563.3C624.2 560.1 624.2 552.1 618.7 548.9L586.9 530.5L668.9 483.1L675.4 486.9C680.5 489.9 686.9 489.9 692 486.9L745.3 456.1C750.8 452.9 750.8 444.9 745.3 441.7L742.9 440.3L760.1 430.4C765.6 427.2 765.6 419.2 760.1 416L683.6 372L804.4 302.1C810 298.9 810 290.9 804.5 287.8Z" fill="#D9E2FF"/>
<path d="M175.7 657.9L235.2 692.3C242.8 696.7 252.1 696.7 259.6 692.3L356.3 636.4L203.8 548.3L95 611.3L110.4 620.2L175.7 657.9Z" fill="#D9E2FF"/>
<path d="M112.1 590.8L171.6 625.2C179.2 629.6 188.5 629.6 196 625.2L292.7 569.3L140.2 481.2L45 536.2C38.9 539.7 38.9 548.5 45 552L46.7 553L112.1 590.8Z" fill="#D9E2FF"/>
<path d="M71.6 613.5L131.1 647.9C138.7 652.3 148 652.3 155.5 647.9L252.2 592L99.8 503.9L4.60002 558.9C-1.49998 562.4 -1.49998 571.2 4.60002 574.7L6.30002 575.7L71.6 613.5Z" fill="#D9E2FF"/>
<path d="M233.7 656.2L130 596.3L55.9 639.1L66.4 645.1L34.6 663.5C29.1 666.7 29.1 674.7 34.6 677.9L58.3 691.6C63.4 694.6 69.8 694.6 74.9 691.6L116.5 667.5" fill="#D9E2FF"/>
<path d="M71.2 559.2L130.5 525L71.2 490.8L11.9 525L71.2 559.2Z" fill="#EBF1FF"/>
<path d="M130.5 525V568.2L71.2001 602.4V559.2L130.5 525Z" fill="#B2BFE8"/>
<path d="M11.9 525L71.2 559.2V602.4L11.9 568.2V525Z" fill="#D9E2FF"/>
<path d="M102.6 525L93.7 530.1L82 523.4L67.8001 531.5L79.5 538.3L71.2 543.1L39.8 525L48.7001 519.8L60.4001 526.6L74.6 518.4L62.9001 511.6L71.2 506.9L102.6 525Z" fill="#B2BFE8"/>
<path d="M292.8 230.2L322.4 247.3L292.8 264.4L263.1 247.3L292.8 230.2Z" fill="#EBF1FF"/>
<path d="M322.4 247.3V282.8L292.8 299.9V264.4L322.4 247.3Z" fill="#B2BFE8"/>
<path d="M263.1 247.3L292.8 264.4V299.9L263.1 282.8V247.3Z" fill="#D9E2FF"/>
<path d="M292.8 238.3L308.3 247.3L292.8 256.3L277.2 247.3L292.8 238.3Z" fill="#B2BFE8"/>
<path d="M292.8 244.4L297.8 247.3L292.8 250.3L287.7 247.3L292.8 244.4Z" fill="#EBF1FF"/>
<path d="M319.4 370.8L349 387.9L319.4 405L289.7 387.9L319.4 370.8Z" fill="#EBF1FF"/>
<path d="M349 387.9V423.3L319.4 440.4V405L349 387.9Z" fill="#B2BFE8"/>
<path d="M289.7 387.9L319.4 405V440.4L289.7 423.3V387.9Z" fill="#D9E2FF"/>
<path d="M338.7 387.9L333.2 391L326 386.9L317.3 391.9L324.5 396.1L319.4 399L300 387.9L305.5 384.7L312.7 388.9L321.4 383.8L314.3 379.7L319.4 376.7L338.7 387.9Z" fill="#B2BFE8"/>
<path d="M210.5 187.9L269.8 153.7L210.5 119.5L151.2 153.7L210.5 187.9Z" fill="#EBF1FF"/>
<path d="M269.8 153.7V376.1L210.5 410.4V187.9L269.8 153.7Z" fill="#B2BFE8"/>
<path d="M151.2 153.7L210.5 187.9V410.4L151.2 376.1V153.7Z" fill="#D9E2FF"/>
<path d="M210.5 153.7V170.8L254.9 145.2V128L210.5 153.7Z" fill="#B71342"/>
<path d="M136.4 110.9V128L210.5 170.8V153.7L136.4 110.9Z" fill="#D81E54"/>
<path d="M284.6 145.2V162.3L254.9 145.2V128L284.6 145.2Z" fill="#D81E54"/>
<path d="M314.2 128V145.1L284.6 162.3V145.2L314.2 128Z" fill="#B71342"/>
<path d="M210.5 68.2002L136.4 111L210.5 153.8L255 128.1L284.6 145.2L314.2 128.1L210.5 68.2002ZM210.5 136.6L166 110.9L210.5 85.2002L255 110.9L210.5 136.6Z" fill="#C91540"/>
<path d="M210.5 102.4L240.1 119.5L254.9 110.9L210.5 85.2998V102.4Z" fill="#D81E54"/>
<path d="M180.9 119.5L210.5 102.4V85.2998L166 110.9L180.9 119.5Z" fill="#B71342"/>
<path d="M727.7 161.7L757.4 178.8L727.7 195.9L698.1 178.8L727.7 161.7Z" fill="#EBF1FF"/>
<path d="M757.4 178.8V214.3L727.7 231.4V195.9L757.4 178.8Z" fill="#B2BFE8"/>
<path d="M698.1 178.8L727.7 195.9V231.4L698.1 214.3V178.8Z" fill="#D9E2FF"/>
<path d="M739.8 176.1L732.5 180.3V171.9L727.7 169.1L710.9 178.8L715.7 181.6L727.7 174.6V183.1V188.5L732.5 185.8L744.5 178.8L739.8 176.1Z" fill="#B2BFE8"/>
<path d="M221.3 393.4L325 453.2L295.4 470.4L191.7 410.5L221.3 393.4Z" fill="#EBF1FF"/>
<path d="M191.7 410.5V496L295.4 555.9V470.4L191.7 410.5Z" fill="#D9E2FF"/>
<path d="M325 453.2V538.8L295.4 555.9V470.4L325 453.2Z" fill="#B2BFE8"/>
<path d="M544.5 119.8L603.8 85.4998L544.5 51.2998L485.3 85.4998L544.5 119.8Z" fill="#EBF1FF"/>
<path d="M603.8 85.5V308L544.5 342.2V119.8L603.8 85.5Z" fill="#B2BFE8"/>
<path d="M485.3 85.5L544.5 119.8V342.2L485.3 308V85.5Z" fill="#D9E2FF"/>
<path d="M544.5 85.4999V102.7L589 76.9999V59.8999L544.5 85.4999Z" fill="#B71342"/>
<path d="M470.5 42.7998V59.8998L544.5 102.7V85.4998L470.5 42.7998Z" fill="#D81E54"/>
<path d="M618.6 76.9999V94.0999L589 76.9999V59.8999L618.6 76.9999Z" fill="#D81E54"/>
<path d="M392.3 216.2L451.5 182L392.3 147.8L333 182L392.3 216.2Z" fill="#EBF1FF"/>
<path d="M648.3 59.8999V76.9999L618.6 94.0999V76.9999L648.3 59.8999Z" fill="#B71342"/>
<path d="M451.5 182V404.4L392.3 438.7V216.2L451.5 182Z" fill="#B2BFE8"/>
<path d="M333 182L392.3 216.2V438.7L333 404.4V182Z" fill="#D9E2FF"/>
<path d="M392.3 182V199.1L436.7 173.4V156.3L392.3 182Z" fill="#B71342"/>
<path d="M318.2 139.2V156.3L392.3 199.1V182L318.2 139.2Z" fill="#D81E54"/>
<path d="M473.9 406L533.2 371.7L473.9 337.5L414.7 371.7L473.9 406Z" fill="#EBF1FF"/>
<path d="M533.2 371.7V414.9L473.9 449.2V406L533.2 371.7Z" fill="#B2BFE8"/>
<path d="M414.7 371.7L473.9 406V449.2L414.7 414.9V371.7Z" fill="#D9E2FF"/>
<path d="M497.1 366.5L483.1 374.6V358.4L473.9 353.1L441.7 371.7L450.8 377L473.9 363.7V379.8V390.4L483.1 385.1L506.2 371.7L497.1 366.5Z" fill="#B2BFE8"/>
<path d="M466.3 173.4V190.6L436.7 173.4V156.3L466.3 173.4Z" fill="#D81E54"/>
<path d="M544.5 0L470.4 42.8L544.5 85.6L589 59.9L618.6 77L648.2 59.9L544.5 0ZM544.5 68.4L500 42.7L544.5 17L589 42.8L544.5 68.4Z" fill="#C91540"/>
<path d="M496 156.3V173.4L466.3 190.6V173.4L496 156.3Z" fill="#B71342"/>
<path d="M392.3 96.3999L318.2 139.2L392.3 182L436.8 156.3L466.4 173.4L496 156.3L392.3 96.3999ZM392.3 164.9L347.8 139.2L392.3 113.5L436.8 139.2L392.3 164.9Z" fill="#C91540"/>
<path d="M392.3 130.7L421.9 147.8L436.7 139.2L392.3 113.6V130.7Z" fill="#D81E54"/>
<path d="M362.6 147.8L392.3 130.7V113.6L347.8 139.2L362.6 147.8Z" fill="#B71342"/>
<path d="M387.3 354.6L446.6 320.4L387.3 286.2L328 320.4L387.3 354.6Z" fill="#EBF1FF"/>
<path d="M446.6 320.4V542.8L387.3 577.1V354.6L446.6 320.4Z" fill="#B2BFE8"/>
<path d="M328 320.4L387.3 354.6V577.1L328 542.8V320.4Z" fill="#D9E2FF"/>
<path d="M387.3 320.4V337.5L431.8 311.8V294.7L387.3 320.4Z" fill="#B71342"/>
<path d="M313.2 277.6V294.7L387.3 337.5V320.4L313.2 277.6Z" fill="#D81E54"/>
<path d="M461.4 311.8V329L431.8 311.8V294.7L461.4 311.8Z" fill="#D81E54"/>
<path d="M491 294.7V311.8L461.4 329V311.8L491 294.7Z" fill="#B71342"/>
<path d="M387.3 234.8L313.2 277.6L387.3 320.4L431.8 294.7L461.4 311.8L491 294.7L387.3 234.8ZM387.3 303.3L342.8 277.6L387.3 251.9L431.8 277.6L387.3 303.3Z" fill="#C91540"/>
<path d="M544.5 34.2001L574.2 51.3001L589 42.8001L544.5 17.1001V34.2001Z" fill="#D81E54"/>
<path d="M387.3 269.1L416.9 286.2L431.8 277.6L387.3 252V269.1Z" fill="#D81E54"/>
<path d="M357.7 286.2L387.3 269.1V252L342.8 277.6L357.7 286.2Z" fill="#B71342"/>
<path d="M514.9 51.3001L544.5 34.2001V17.1001L500.1 42.8001L514.9 51.3001Z" fill="#B71342"/>
<path d="M122.4 457.5L181.6 423.3L122.4 389.1L63.1 423.3L122.4 457.5Z" fill="#EBF1FF"/>
<path d="M181.6 423.3V466.5L122.4 500.7V457.5L181.6 423.3Z" fill="#B2BFE8"/>
<path d="M63.1 423.3L122.4 457.5V500.7L63.1 466.5V423.3Z" fill="#D9E2FF"/>
<path d="M91.4999 419.8L124.4 438.8L114.3 444.7L81.2999 425.7L91.4999 419.8Z" fill="#B2BFE8"/>
<path d="M122.4 449.4L153.7 431.9L143.3 425.9L112 443.4L122.4 449.4Z" fill="#B2BFE8"/>
<path d="M139.8 264.4L169.4 281.5L139.8 298.6L110.2 281.5L139.8 264.4Z" fill="#EBF1FF"/>
<path d="M169.4 281.5V317L139.8 334.1V298.6L169.4 281.5Z" fill="#B2BFE8"/>
<path d="M110.2 281.5L139.8 298.6V334.1L110.2 317V281.5Z" fill="#D9E2FF"/>
<path d="M218.7 404.1L277.9 369.9L218.7 335.7L159.4 369.9L218.7 404.1Z" fill="#EBF1FF"/>
<path d="M277.9 369.9V592.3L218.7 626.6V404.1L277.9 369.9Z" fill="#B2BFE8"/>
<path d="M649 234L708.3 199.7L649 165.5L589.8 199.7L649 234Z" fill="#EBF1FF"/>
<path d="M708.3 199.7V242.9L649 277.2V234L708.3 199.7Z" fill="#B2BFE8"/>
<path d="M589.8 199.7L649 234V277.2L589.8 242.9V199.7Z" fill="#D9E2FF"/>
<path d="M159.4 369.9L218.7 404.1V626.6L159.4 592.3V369.9Z" fill="#D9E2FF"/>
<path d="M113 471.9L142.6 489L113 506.1L83.3 489L113 471.9Z" fill="#EBF1FF"/>
<path d="M142.6 489V602.9L113 620V506.1L142.6 489Z" fill="#B2BFE8"/>
<path d="M83.3 489L113 506.1V620L83.3 602.9V489Z" fill="#D9E2FF"/>
<path d="M113 480L97.4 489L113 498L128.6 489L113 480ZM113 491.9L107.9 489L113 486.1L118.1 489L113 491.9Z" fill="#B2BFE8"/>
<path d="M248.3 646.4L346.7 589.6L248.3 532.7L149.9 589.6L248.3 646.4Z" fill="#EBF1FF"/>
<path d="M346.7 589.6V625.7L248.3 682.6V646.4L346.7 589.6Z" fill="#B2BFE8"/>
<path d="M149.9 589.6L248.3 646.4V682.6L149.9 625.7V589.6Z" fill="#D9E2FF"/>
<path d="M233.7 590.1L248.9 581.3L273.5 595.6L283.9 589.6L248.3 569L212.8 589.6L248.3 610.1L258.3 604.3L233.7 590.1Z" fill="#B2BFE8"/>
<path d="M643.4 126.9L673 144.1L643.4 161.2L613.7 144.1L643.4 126.9Z" fill="#EBF1FF"/>
<path d="M673 144.1V261.6L643.4 278.8V161.2L673 144.1Z" fill="#B2BFE8"/>
<path d="M613.7 144.1L643.4 161.2V278.8L613.7 261.6V144.1Z" fill="#D9E2FF"/>
<path d="M659.5 144.1L654.9 146.7L648.9 143.2L641.6 147.4L647.7 150.9L643.4 153.4L627.3 144.1L631.8 141.4L637.8 144.9L645.1 140.7L639.1 137.2L643.4 134.7L659.5 144.1Z" fill="#B2BFE8"/>
<path d="M218.7 369.9V387L263.1 361.4V344.2L218.7 369.9Z" fill="#B71342"/>
<path d="M144.6 327.1V344.2L218.7 387V369.9L144.6 327.1Z" fill="#D81E54"/>
<path d="M292.8 361.4V378.5L263.1 361.4V344.2L292.8 361.4Z" fill="#D81E54"/>
<path d="M322.4 344.2V361.4L292.8 378.5V361.4L322.4 344.2Z" fill="#B71342"/>
<path d="M155.8 612.2L185.4 629.3L155.8 646.4L126.2 629.3L155.8 612.2Z" fill="#EBF1FF"/>
<path d="M185.4 629.3V663.5L155.8 680.6V646.4L185.4 629.3Z" fill="#B2BFE8"/>
<path d="M126.2 629.3L155.8 646.4V680.6L126.2 663.5V629.3Z" fill="#D9E2FF"/>
<path d="M145.4 618.2L163.9 628.9L144.7 640L126.2 629.3L145.4 618.2Z" fill="#B2BFE8"/>
<path d="M145.6 630.9L164.1 641.6L155.8 646.4L137.3 635.7L145.6 630.9Z" fill="#B2BFE8"/>
<path d="M218.7 284.4L144.6 327.2L218.7 370L263.2 344.3L292.8 361.4L322.4 344.3L218.7 284.4ZM218.7 352.8L174.2 327.1L218.7 301.4L263.2 327.1L218.7 352.8Z" fill="#C91540"/>
<path d="M654 296.1L713.3 261.9L654 227.6L594.7 261.9L654 296.1Z" fill="#EBF1FF"/>
<path d="M713.3 261.9V305L654 339.3V296.1L713.3 261.9Z" fill="#B2BFE8"/>
<path d="M594.7 261.9L654 296.1V339.3L594.7 305V261.9Z" fill="#D9E2FF"/>
<path d="M218.7 318.6L248.3 335.7L263.1 327.1L218.7 301.5V318.6Z" fill="#D81E54"/>
<path d="M189 335.7L218.7 318.6V301.5L174.2 327.1L189 335.7Z" fill="#B71342"/>
<path d="M446.6 461.7L476.2 478.8L446.6 495.9L416.9 478.8L446.6 461.7Z" fill="#EBF1FF"/>
<path d="M476.2 478.8V521.8L446.6 538.9V495.9L476.2 478.8Z" fill="#B2BFE8"/>
<path d="M416.9 478.8L446.6 495.9V538.9L416.9 521.8V478.8Z" fill="#D9E2FF"/>
<path d="M457 477.7L446.6 483.7L436.2 477.7L430.1 481.2L446.6 490.8L463.1 481.2L457 477.7Z" fill="#B2BFE8"/>
<path d="M351.6 447.6L455.3 507.4L425.7 524.5L322 464.7L351.6 447.6Z" fill="#EBF1FF"/>
<path d="M322 464.7V550.2L425.7 610.1V524.5L322 464.7Z" fill="#D9E2FF"/>
<path d="M455.3 507.4V593L425.7 610.1V524.5L455.3 507.4Z" fill="#B2BFE8"/>
<path d="M376 472.9L427.7 502.8L417.6 508.6L365.8 478.7L376 472.9Z" fill="#B2BFE8"/>
<path d="M708.3 286.4L737.9 303.5L708.3 320.6L678.7 303.5L708.3 286.4Z" fill="#EBF1FF"/>
<path d="M737.9 303.5V413.7L708.3 430.8V320.6L737.9 303.5Z" fill="#EBF1FF"/>
<path d="M678.7 303.5L708.3 320.6V430.8L678.7 413.7V303.5Z" fill="#D9E2FF"/>
<path d="M482.2 554.8L511.9 571.9L482.2 589L452.6 571.9L482.2 554.8Z" fill="#EBF1FF"/>
<path d="M511.9 571.9V614.8L482.2 631.9V589L511.9 571.9Z" fill="#B2BFE8"/>
<path d="M452.6 571.9L482.2 589V631.9L452.6 614.8V571.9Z" fill="#D9E2FF"/>
<path d="M476.6 558L498.9 570.9L480.8 581.4L458.5 568.5L476.6 558Z" fill="#B2BFE8"/>
<path d="M649.9 421.2L709.2 386.9L649.9 352.7L590.7 386.9L649.9 421.2Z" fill="#EBF1FF"/>
<path d="M709.2 386.9V430.1L649.9 464.4V421.2L709.2 386.9Z" fill="#B2BFE8"/>
<path d="M590.7 386.9L649.9 421.2V464.4L590.7 430.1V386.9Z" fill="#D9E2FF"/>
<path d="M681.3 386.9L672.4 392.1L660.7 385.3L646.6 393.5L658.2 400.3L649.9 405.1L618.6 386.9L627.4 381.8L639.1 388.6L653.3 380.4L641.6 373.6L649.9 368.8L681.3 386.9Z" fill="#B2BFE8"/>
<path d="M565 319.6L624.3 285.3L565 251.1L505.7 285.3L565 319.6Z" fill="#EBF1FF"/>
<path d="M624.3 285.3V492.8L565 527.1V319.6L624.3 285.3Z" fill="#B2BFE8"/>
<path d="M505.7 285.3L565 319.6V527.1L505.7 492.8V285.3Z" fill="#D9E2FF"/>
<path d="M565 285.3V302.5L609.4 276.8V259.7L565 285.3Z" fill="#B71342"/>
<path d="M498.4 412.6L528.1 429.7L498.4 446.8L468.8 429.7L498.4 412.6Z" fill="#EBF1FF"/>
<path d="M528.1 429.7V539.8L498.4 556.9V446.8L528.1 429.7Z" fill="#B2BFE8"/>
<path d="M468.8 429.7L498.4 446.8V556.9L468.8 539.8V429.7Z" fill="#D9E2FF"/>
<path d="M490.9 242.6V259.7L565 302.5V285.3L490.9 242.6Z" fill="#D81E54"/>
<path d="M639.1 276.8V293.9L609.4 276.8V259.7L639.1 276.8Z" fill="#D81E54"/>
<path d="M668.7 259.7V276.8L639.1 293.9V276.8L668.7 259.7Z" fill="#B71342"/>
<path d="M579.9 424.4L609.6 441.5L579.9 458.6L550.3 441.5L579.9 424.4Z" fill="#EBF1FF"/>
<path d="M609.6 441.5V551.6L579.9 568.7V458.6L609.6 441.5Z" fill="#B2BFE8"/>
<path d="M550.3 441.5L579.9 458.6V568.7L550.3 551.6V441.5Z" fill="#D9E2FF"/>
<path d="M579.9 432.5L595.5 441.5L579.9 450.5L564.3 441.5L579.9 432.5Z" fill="#B2BFE8"/>
<path d="M579.9 438.6L585 441.5L579.9 444.4L574.8 441.5L579.9 438.6Z" fill="#EBF1FF"/>
<path d="M565 199.8L490.9 242.6L565 285.4L609.5 259.7L639.1 276.8L668.7 259.7L565 199.8ZM565 268.2L520.5 242.5L565 216.8L609.5 242.5L565 268.2Z" fill="#C91540"/>
<path d="M565 234L594.6 251.1L609.4 242.6L565 216.9V234Z" fill="#D81E54"/>
<path d="M535.4 251.1L565 234V216.9L520.5 242.6L535.4 251.1Z" fill="#B71342"/>
<path d="M97.4 324.3L127 341.4L97.4 358.5L67.7 341.4L97.4 324.3Z" fill="#EBF1FF"/>
<path d="M127 341.4V376.8L97.3999 393.9V358.5L127 341.4Z" fill="#B2BFE8"/>
<path d="M67.7 341.4L97.4 358.5V393.9L67.7 376.8V341.4Z" fill="#D9E2FF"/>
<path d="M97.4 334L110.2 341.4L97.4 348.8L84.6 341.4L97.4 334Z" fill="#B2BFE8"/>
<path d="M759 236.2L788.7 253.3L759 270.4L729.4 253.3L759 236.2Z" fill="#EBF1FF"/>
<path d="M788.7 253.3V288.8L759 305.9V270.4L788.7 253.3Z" fill="#B2BFE8"/>
<path d="M729.4 253.3L759 270.4V305.9L729.4 288.8V253.3Z" fill="#D9E2FF"/>
<path d="M759 245.9L771.8 253.3L759 260.7L746.2 253.3L759 245.9Z" fill="#B2BFE8"/>
<path d="M360.7 463.7L371.4 469.9L361.2 475.8L350.6 469.6L360.7 463.7Z" fill="#B2BFE8"/>
<path d="M145.2 625.2L151.7 629L144.9 632.9L138.4 629.1L145.2 625.2Z" fill="#EBF1FF"/>
<path d="M67.7 616.9L97.4 634L67.7 651.1L38.1 634L67.7 616.9Z" fill="#EBF1FF"/>
<path d="M97.4 634V669.4L67.7 686.5V651.1L97.4 634Z" fill="#B2BFE8"/>
<path d="M38.1 634L67.7 651.1V686.5L38.1 669.4V634Z" fill="#D9E2FF"/>
<defs>
<linearGradient id="paint0_linear_1799_653" x1="40.8753" y1="518.087" x2="65.7616" y2="467.063" gradientUnits="userSpaceOnUse">
<stop offset="0.2559" stop-color="white" stop-opacity="0"/>
<stop offset="1" stop-color="#D9E2FF"/>
</linearGradient>
<linearGradient id="paint1_linear_1799_653" x1="437.81" y1="687.511" x2="460.606" y2="640.773" gradientUnits="userSpaceOnUse">
<stop offset="0.2559" stop-color="white" stop-opacity="0"/>
<stop offset="1" stop-color="#D9E2FF"/>
</linearGradient>
<linearGradient id="paint2_linear_1799_653" x1="554.01" y1="612.774" x2="574.245" y2="571.286" gradientUnits="userSpaceOnUse">
<stop offset="0.2559" stop-color="white" stop-opacity="0"/>
<stop offset="1" stop-color="#D9E2FF"/>
</linearGradient>
<linearGradient id="paint3_linear_1799_653" x1="209.9" y1="727.124" x2="230.006" y2="685.901" gradientUnits="userSpaceOnUse">
<stop offset="0.2559" stop-color="white" stop-opacity="0"/>
<stop offset="1" stop-color="#D9E2FF"/>
</linearGradient>
<linearGradient id="paint4_linear_1799_653" x1="351.303" y1="691.411" x2="371.278" y2="650.457" gradientUnits="userSpaceOnUse">
<stop offset="0.2559" stop-color="white" stop-opacity="0"/>
<stop offset="1" stop-color="#D9E2FF"/>
</linearGradient>
<linearGradient id="paint5_linear_1799_653" x1="666.508" y1="531.649" x2="686.873" y2="489.893" gradientUnits="userSpaceOnUse">
<stop offset="0.2559" stop-color="white" stop-opacity="0"/>
<stop offset="1" stop-color="#D9E2FF"/>
</linearGradient>
<linearGradient id="paint6_linear_1799_653" x1="120.304" y1="725.563" x2="140.973" y2="683.186" gradientUnits="userSpaceOnUse">
<stop offset="0.2559" stop-color="white" stop-opacity="0"/>
<stop offset="1" stop-color="#D9E2FF"/>
</linearGradient>
<linearGradient id="paint7_linear_1799_653" x1="38.2" y1="729.052" x2="59.9188" y2="684.522" gradientUnits="userSpaceOnUse">
<stop offset="0.2559" stop-color="white" stop-opacity="0"/>
<stop offset="1" stop-color="#D9E2FF"/>
</linearGradient>
<linearGradient id="paint8_linear_1799_653" x1="30.5226" y1="644.186" x2="55.409" y2="593.162" gradientUnits="userSpaceOnUse">
<stop offset="0.2559" stop-color="white" stop-opacity="0"/>
<stop offset="1" stop-color="#D9E2FF"/>
</linearGradient>
<linearGradient id="paint9_linear_1799_653" x1="55.7082" y1="441.555" x2="80.5946" y2="390.531" gradientUnits="userSpaceOnUse">
<stop offset="0.2559" stop-color="white" stop-opacity="0"/>
<stop offset="1" stop-color="#D9E2FF"/>
</linearGradient>
</defs>
</svg>
