<?xml version="1.0" encoding="UTF-8"?>
<svg width="873" height="728" fill="none" version="1.1" viewBox="0 0 873 728" xmlns="http://www.w3.org/2000/svg">
 <path d="m818.7 541.1-5.1-3c-6.2-3.6-6.2-12.5 0.1-16l54.5-30.8c6.2-3.5 6.3-12.4 0.1-16l-55.1-32.4c-6.1-3.6-6.1-12.4 0.1-16l54.9-31.7c6.2-3.6 6.2-12.5 0-16l-104.3-60.1c-6.2-3.5-6.2-12.4 0-16l38.4-22.3c6.1-3.6 6.1-12.4 0-16l-38.3-22.1c-6.2-3.6-6.2-12.5 0-16l38.3-22.1c6.2-3.6 6.2-12.5 0-16l-109-62.9c-5.7-3.3-12.7-3.3-18.5 0l-47.7 27.3c-5.7 3.3-12.8 3.3-18.5 0l-47.6-27.5c-5.7-3.3-12.6-3.3-18.3-0.1-4.5 2.6-10.1 2.5-14.6 0l-99-56.5c-5.7-3.3-12.7-3.2-18.4 0l-307 176.7c-6.2 3.6-6.2 12.5 0 16l71.4 41.1c6.2 3.6 6.2 12.5 0 16l-121 69.9c-6.2 3.6-6.2 12.5 0 16l38.3 22.1c6.2 3.6 6.2 12.5 0 16l-87.8 50.8c-6.2 3.6-6.2 12.5 0 16l54.8 31.6c6.2 3.6 6.2 12.5 0 16l-38.3 22.1c-6.2 3.6-6.2 12.5 0 16l175 101c5.7 3.3 12.8 3.3 18.5 0l113.6-65.6c5.7-3.3 12.8-3.3 18.5 0l163.1 94.2c5.7 3.3 12.8 3.3 18.5 0l290.5-167.7c6.1-3.5 6.1-12.4-0.1-16z" fill="#D9E2FF"/>
 <path d="m818.7 536.7-5.1-3c-6.2-3.6-6.2-12.5 0.1-16l54.5-30.8c6.2-3.5 6.3-12.4 0.1-16l-55.1-32.4c-6.1-3.6-6.1-12.4 0.1-16l54.9-31.7c6.2-3.6 6.2-12.5 0-16l-104.3-60.1c-6.2-3.5-6.2-12.4 0-16l38.4-22.3c6.1-3.6 6.1-12.4 0-16l-38.3-22.1c-6.2-3.6-6.2-12.5 0-16l38.3-22.1c6.2-3.6 6.2-12.5 0-16l-109-62.9c-5.7-3.3-12.7-3.3-18.5 0l-47.7 27.4c-5.7 3.3-12.8 3.3-18.5 0l-47.6-27.5c-5.7-3.3-12.6-3.3-18.3-0.1-4.5 2.6-10.1 2.5-14.6 0l-99-56.5c-5.7-3.3-12.7-3.2-18.4 0l-307 176.7c-6.2 3.6-6.2 12.5 0 16l71.4 41.1c6.2 3.6 6.2 12.5 0 16l-121 69.9c-6.2 3.6-6.2 12.5 0 16l38.3 22.1c6.2 3.6 6.2 12.5 0 16l-87.8 50.6c-6.2 3.6-6.2 12.5 0 16l54.8 31.6c6.2 3.6 6.2 12.5 0 16l-38.3 22.1c-6.2 3.6-6.2 12.5 0 16l175 101c5.7 3.3 12.8 3.3 18.5 0l113.6-65.6c5.7-3.3 12.8-3.3 18.5 0l163.1 94.2c5.7 3.3 12.8 3.3 18.5 0l290.5-167.7c6.1-3.5 6.1-12.4-0.1-15.9z" fill="#EBF1FF"/>
 <path d="m281.1 592.4c75.773 0 137.2-37.877 137.2-84.6s-61.427-84.6-137.2-84.6c-75.774 0-137.2 37.877-137.2 84.6s61.426 84.6 137.2 84.6z" fill="#fff" opacity=".5"/>
 <g stroke-linecap="round" stroke-miterlimit="10">
  <path d="m281.1 520.8c43.686 0 79.1-18.759 79.1-41.9s-35.414-41.9-79.1-41.9-79.1 18.759-79.1 41.9 35.414 41.9 79.1 41.9z" opacity=".1" stroke="#C91540"/>
  <path d="m281.1 606.6c88.531 0 160.3-44.234 160.3-98.8s-71.769-98.8-160.3-98.8-160.3 44.234-160.3 98.8 71.769 98.8 160.3 98.8z" stroke="#fff"/>
  <path d="m281.1 623.9c104 0 188.3-51.98 188.3-116.1s-84.305-116.1-188.3-116.1-188.3 51.98-188.3 116.1 84.305 116.1 188.3 116.1z" stroke="#fff"/>
 </g>
 <path d="m202.4 485.8 82.5 47.6v9.7l-82.5-47.6v-9.7z" fill="#D9E2FF"/>
 <path d="m202.4 485.8 16.5-9.6 82.5 47.7-16.5 9.5-82.5-47.6z" fill="#fff"/>
 <path d="m284.9 543.1 16.5-9.5v-9.7l-16.5 9.5v9.7z" fill="#B2BFE8"/>
 <path d="m658.8 358.3v219.4l-33.9-19.5-42.3-24.5v-219.4l76.2 44z" fill="#D9E2FF"/>
 <path d="m658.8 358.3 76.2-44v219.4l-76.2 44v-219.4z" fill="#B2BFE8"/>
 <path d="m735 314.3-76.2-44-76.2 44 76.2 44 76.2-44z" fill="#EBF1FF"/>
 <path d="m281.5 140.4v219.5l-49.2-28.4-27-15.6v-219.4l40.3 23.2 35.9 20.7z" fill="#D9E2FF"/>
 <path d="m205.3 113.1 40.3 23.2 35.9 20.8" opacity=".5" stroke="#B2BFE8" stroke-linecap="round" stroke-miterlimit="10"/>
 <path d="m281.5 140.4 76.2-43.9v219.4l-76.2 44v-219.5z" fill="#B2BFE8"/>
 <g stroke="#24386C" stroke-linecap="round" stroke-miterlimit="10">
  <path d="m184.9 437.6-57.5-33.2c-2.9-1.7-6.4-1.7-9.2 0l-7.3 4.2c-2.9 1.7-6.4 1.7-9.2 0l-20.2-11.6"/>
  <path d="m75.5 393.5-7.2-4.2"/>
  <path d="m229.4 415.9-26.1-15.1c-3.1-1.8-3.1-6.2 0-8l2.6-1.5c3.1-1.8 3.1-6.2 0-8l-17.8-10.3"/>
  <path d="m183.3 370.2-7.9-4.6"/>
 </g>
 <path d="m357.7 96.5-76.2-44-76.2 44 76.2 43.9 76.2-43.9z" fill="#EBF1FF"/>
 <path d="m327.7 96.5-46.2-26.7-46.2 26.7 46.2 26.6 46.2-26.6z" stroke="#fff" stroke-linecap="round" stroke-miterlimit="10"/>
 <path d="m705 314.3-46.2-26.7-46.3 26.7 46.3 26.7 46.2-26.7z" stroke="#fff" stroke-linecap="round" stroke-miterlimit="10"/>
 <path d="m582.6 314.3 24.5-14.1 43.9 25.4 16.5-9.5v-79.3c0-9.9-5.3-19.1-13.9-24l-365.7-211.3c-7.3-4.2-16.5 1.1-16.5 9.5v95.3l34.6 20v219.5l276.6 160.7v-192.2z" fill="#D9E2FF"/>
 <path d="m582.2 314.1v192.4l-29-17v-192.4l29 17z" fill="url(#paint0_linear_1799_852)" opacity=".5"/>
 <path d="m651 325.5v-79.3c0-9.9-5.3-19.1-13.9-24l-365.7-211.2c0-3.8 1.8-6.9 4.5-8.8 3.3-2.4 8-3 12-0.7l365.8 211.2c8.6 5 13.9 14.1 13.9 24v79.3l-16.6 9.5z" fill="#24386C"/>
 <path d="m386.9 268.3 82.5 47.7v76.2l-82.5-47.6v-76.3z" fill="#C91540"/>
 <path d="m386.9 268.3 16.5-9.5 82.5 47.6-16.5 9.6-82.5-47.7z" fill="#EBF1FF"/>
 <path d="m469.4 392.2 16.5-9.5v-76.3l-16.5 9.6v76.2z" fill="#B2BFE8"/>
 <path d="m386.9 344.6 41.3-23.9v47.7" fill="#D81E54"/>
 <path d="m456.16 339.05c4.958-2.675 5.512-11.266 1.238-19.189-4.275-7.923-11.759-12.177-16.717-9.502-4.957 2.674-5.512 11.265-1.237 19.188 4.274 7.923 11.758 12.178 16.716 9.503z" fill="#D81E54"/>
 <path d="m485.9 192.1 82.6 47.6v76.3l-82.6-47.7v-76.2z" fill="#C91540"/>
 <path d="m485.9 192.1 16.5-9.5 82.6 47.6-16.5 9.5-82.6-47.6z" fill="#EBF1FF"/>
 <path d="m568.5 316 16.5-9.6v-76.2l-16.5 9.5v76.3z" fill="#B2BFE8"/>
 <path d="m485.9 268.3 41.3-23.8v47.6" fill="#D81E54"/>
 <path d="m555.14 262.78c4.957-2.675 5.512-11.266 1.237-19.189-4.274-7.923-11.758-12.177-16.716-9.502-4.958 2.674-5.512 11.265-1.238 19.188 4.275 7.923 11.759 12.178 16.717 9.503z" fill="#D81E54"/>
 <path d="m517.6 318.3 21.5 12.4c2.9 1.7 4.6 4.7 4.6 8v24.8c0 3.6-3.9 5.8-6.9 4l-21.5-12.4c-2.9-1.7-4.6-4.7-4.6-8v-24.8c0-3.6 3.8-5.8 6.9-4z" fill="#EBF1FF"/>
 <path d="m443.3 148.4 21.5 12.4c2.9 1.7 4.6 4.7 4.6 8v91.3c0 3.6-3.9 5.8-6.9 4l-21.5-12.3c-2.9-1.7-4.6-4.7-4.6-8v-91.3c0-3.6 3.9-5.8 6.9-4.1z" fill="#EBF1FF"/>
 <path d="m281.1 549.2c62.96 0 114-31.474 114-70.3s-51.04-70.3-114-70.3c-62.961 0-114 31.474-114 70.3s51.039 70.3 114 70.3z" stroke="#B2BFE8" stroke-linecap="round" stroke-miterlimit="10"/>
 <path d="m304.4 87.3 82.5 47.6v76.2l-82.5-47.6v-76.2z" fill="#C91540"/>
 <path d="m304.4 87.3 16.5-9.6 82.5 47.7-16.5 9.5-82.5-47.6z" fill="#EBF1FF"/>
 <path d="m386.9 211.1 16.5-9.5v-76.2l-16.5 9.5v76.2z" fill="#B2BFE8"/>
 <path d="m275.4 443.2 82.5 47.7v9.7l-82.5-47.7v-9.7z" fill="#D9E2FF"/>
 <path d="m275.4 443.2 16.5-9.5 82.5 47.7-16.5 9.5-82.5-47.7z" fill="#EBF1FF"/>
 <path d="m357.9 500.6 16.5-9.5v-9.7l-16.5 9.5v9.7z" fill="#B2BFE8"/>
 <path d="m304.4 163.5 41.2-23.8v47.6" fill="#D81E54"/>
 <g stroke="#24386C" stroke-linecap="round" stroke-miterlimit="10">
  <path d="m403.4 506.6 28.4-16.4c2.9-1.7 6.4-1.7 9.2 0l7.3 4.2c2.9 1.7 6.4 1.7 9.2 0l28.4-16.4"/>
  <path d="m489.6 475.8 5.2-2.9"/>
  <path d="m390.5 456.8 8.3-4.8c2.9-1.7 6.4-1.7 9.2 0l7.3 4.2c2.9 1.7 6.4 1.7 9.2 0l5-2.9c3.1-1.8 3.1-6.2 0-8l-2.6-1.5c-3.1-1.8-3.1-6.2 0-8l2.5-1.4"/>
 </g>
 <path d="m408.1 478.9c0 43.2-56.8 78.3-127 78.3s-127-35-127-78.3v25.6c0 43.2 56.8 78.3 127 78.3s127-35 127-78.3v-25.6z" fill="#B2BFE8"/>
 <path d="m281.1 549.2c62.96 0 114-31.474 114-70.3s-51.04-70.3-114-70.3c-62.961 0-114 31.474-114 70.3s51.039 70.3 114 70.3z" stroke="#C91540" stroke-linecap="round" stroke-miterlimit="10"/>
 <path d="m281.1 400.7c-70.1 0-127 35-127 78.3s56.8 78.3 127 78.3 127-35 127-78.3-56.8-78.3-127-78.3zm0 148.5c-63 0-114-31.5-114-70.3s51-70.3 114-70.3 114 31.5 114 70.3-51 70.3-114 70.3z" fill="#EBF1FF"/>
 <path d="m373.56 157.98c4.958-2.675 5.512-11.266 1.238-19.189s-11.759-12.177-16.716-9.503c-4.958 2.675-5.512 11.266-1.238 19.189s11.758 12.177 16.716 9.503z" fill="#D81E54"/>
 <path d="m327.8 215.2 41.7 24.1c2.9 1.7 4.6 4.7 4.6 8v24.8c0 3.6-3.9 5.8-6.9 4l-41.7-24.1c-2.9-1.7-4.6-4.7-4.6-8v-24.8c0-3.6 3.8-5.8 6.9-4z" fill="#EBF1FF"/>
 <path d="m354.9 549.2 156.8 90.6v19l-156.8-90.5v-19.1z" fill="#D9E2FF"/>
 <path d="m545.1 620.7-33.4 19.1v19l33.4-19v-19.1z" fill="#C91540"/>
 <path d="m388.3 530.2-33.4 19 156.8 90.6 17.1-9.8 16.3-9.3-156.8-90.5z" fill="#fff"/>
 <path d="m327.8 281.7 21.5 12.4c2.9 1.7 4.6 4.7 4.6 8v33.1c0 3.6-3.9 5.8-6.9 4l-21.5-12.4c-2.9-1.7-4.6-4.7-4.6-8v-33.1c0-3.6 3.8-5.8 6.9-4z" fill="#EBF1FF"/>
 <path d="m514.7 387.9 44.5 25.7c2.9 1.7 4.6 4.7 4.6 8v33.1c0 3.6-3.9 5.8-6.9 4l-44.5-25.7c-2.9-1.7-4.6-4.7-4.6-8v-33.1c0-3.6 3.9-5.8 6.9-4z" fill="#EBF1FF"/>
 <path d="m281.1 549.2c62.96 0 114-31.474 114-70.3s-51.04-70.3-114-70.3c-62.961 0-114 31.474-114 70.3s51.039 70.3 114 70.3z" fill="#C91540" opacity=".1"/>
 <path d="m281.1 537.9c55.173 0 99.9-26.415 99.9-59 0-32.584-44.727-59-99.9-59s-99.9 26.416-99.9 59c0 32.585 44.727 59 99.9 59z" opacity=".1" stroke="#C91540" stroke-linecap="round" stroke-miterlimit="10"/>
 <path d="m202.4 409.6 82.5 47.6v76.3l-82.5-47.7v-76.2z" fill="#D9E2FF"/>
 <path d="m275.4 367.4 82.5 47.7v76.2l-82.5-47.6v-76.3z" fill="#D9E2FF"/>
 <path d="m275.4 367.4 16.5-9.5 82.5 47.6-16.5 9.6-82.5-47.7z" fill="#EBF1FF"/>
 <path d="m357.9 491.3 16.5-9.5v-76.3l-16.5 9.6v76.2z" fill="#B2BFE8"/>
 <path d="m281.5 343.3-49.2-28.5-27-15.5" opacity=".5" stroke="#B2BFE8" stroke-linecap="round" stroke-miterlimit="10"/>
 <path d="m202.4 409.6 16.5-9.6 82.5 47.7-16.5 9.5-82.5-47.6z" fill="#EBF1FF"/>
 <path d="m284.9 533.5 16.5-9.6v-76.2l-16.5 9.5v76.3z" fill="#B2BFE8"/>
 <path d="m239.9 322.3 82.5 47.7v76.2l-82.5-47.6v-76.3z" fill="#C91540"/>
 <path d="m239.9 322.3 16.5-9.5 82.5 47.7-16.5 9.5-82.5-47.7z" fill="#EBF1FF"/>
 <path d="m322.4 446.2 16.5-9.5v-76.2l-16.5 9.5v76.2z" fill="#B2BFE8"/>
 <path d="m239.9 398.6 41.2-23.8v47.6" fill="#D81E54"/>
 <path d="m309.06 393.08c4.958-2.675 5.512-11.266 1.238-19.188-4.274-7.923-11.759-12.178-16.716-9.503-4.958 2.675-5.512 11.266-1.238 19.188 4.274 7.923 11.758 12.178 16.716 9.503z" fill="#D81E54"/>
 <path d="m720.8 521.7-6.4 3.7c-0.3 0.2-0.5 0.5-0.5 0.8v2.6c0 0.7 0.8 1.2 1.4 0.8l6.4-3.7c0.3-0.2 0.5-0.5 0.5-0.8v-2.6c0-0.7-0.7-1.2-1.4-0.8z" fill="#24386C"/>
 <g stroke="#fff" stroke-linecap="round" stroke-miterlimit="10">
  <path d="m717 363.6-33 19.1"/>
  <path d="m717 401.7-33 19.1"/>
  <path d="m717 439.9-33 19"/>
  <path d="m717 478-33 19"/>
 </g>
 <g stroke-linecap="round" stroke-miterlimit="10">
  <path d="m243.4 135.6v183.3" opacity=".5" stroke="#B2BFE8"/>
  <path d="m617.8 351.9v183.3" opacity=".5" stroke="#B2BFE8"/>
  <path d="m667.5 316 32.3 18.6" stroke="#fff"/>
  <path d="m246 73 25.4 14.3" stroke="#fff"/>
 </g>
 <g stroke="#24386C" stroke-linecap="round" stroke-miterlimit="10">
  <path d="m302.5 581.7 11.5 6.6c3.1 1.8 3.1 6.2 0 8l-42.6 24.6"/>
  <path d="m265.5 624.3-10.6 6.2"/>
  <path d="m221.8 573.3-42.6 24.6c-3.1 1.8-3.1 6.2 0 8l19.1 11.1c3.1 1.8 3.1 6.2 0 8l-26 15"/>
  <path d="m166.4 643.4-10.6 6.1"/>
  <path d="m152.2 651.6-4.6 2.7"/>
  <path d="m172.3 544.9-61.4 35.3c-2.9 1.6-6.4 1.6-9.2 0l-7.3-4.2c-2.9-1.7-6.4-1.7-9.2 0l-21.7 12.5"/>
  <path d="m58.4 591.4-6 3.5"/>
  <path d="m155.8 497-11.9-6.9c-2.9-1.7-6.4-1.7-9.2 0l-23.8 13.7c-2.9 1.7-6.4 1.7-9.2 0l-7.3-4.2c-2.9-1.7-6.4-1.7-9.2 0l-11.9 6.9"/>
  <path d="m68.3 509.4-11.5 6.7"/>
 </g>
 <path d="m532.7 635.8-6.4 3.7c-0.3 0.2-0.5 0.5-0.5 0.8v2.6c0 0.7 0.8 1.2 1.4 0.8l6.4-3.7c0.3-0.2 0.5-0.5 0.5-0.8v-2.6c0-0.7-0.7-1.1-1.4-0.8z" fill="#24386C"/>
 <g stroke="#24386C" stroke-linecap="round" stroke-miterlimit="10">
  <path d="m717.7 525.6 28.7 16.9c2.3 1.3 3.6 3.8 3.6 6.4v1c0 2.6 1.4 5.1 3.7 6.4l5.9 3.4c3.1 1.8 3.1 6.2 0 8l-186.5 107.7c-2.9 1.7-6.4 1.7-9.2 0l-7.3-4.2c-2.9-1.7-4.6-4.7-4.6-8v-5.4c0-3.3-1.8-6.3-4.6-8l-17.4-10.1"/>
  <path d="m799.6 468.4-26.1 15.1c-3.1 1.8-3.1 6.2 0 8l2.6 1.5c3.1 1.8 3.1 6.2 0 8l-40.1 23.157"/>
  <path d="m805 465.3 11.1-6.4"/>
  <path d="m821.6 455.7 5.9-3.4"/>
  <path d="m783.1 401.7-26.1 15.1c-3.1 1.8-3.1 6.2 0 8l2.6 1.5c3.1 1.8 3.1 6.2 0 8l-23.1 13.365"/>
  <path d="m792.4 396.4 7.2-4.2"/>
  <path d="m806.2 388.4 9.9-5.7"/>
  <path d="m821.5 379.6 2.8-1.7"/>
 </g>
 <g stroke="#B2BFE8" stroke-linecap="round" stroke-miterlimit="10">
  <path d="m639.2 403.4v106.5l-37-21.3v-106.5l37 21.3z" opacity=".5"/>
  <path d="m261.9 185.6v106.5l-37-21.3v-106.5l37 21.3z" opacity=".5"/>
  <path d="m658.8 561.1-33.9-19.6-42.3-24.4" opacity=".5"/>
  <path d="m658.8 373.6-33.9-19.6-42.3-24.4" opacity=".5"/>
 </g>
 <path d="m608.2 246.4 21.5 12.4c2.9 1.7 4.6 4.7 4.6 8v16.5c0 3.6-3.9 5.8-6.9 4l-21.5-12.4c-2.9-1.7-4.6-4.7-4.6-8v-16.5c0-3.6 3.8-5.8 6.9-4z" fill="#EBF1FF"/>
 <path d="m391.6 551.2 122.8 70.9" opacity=".5" stroke="#B2BFE8" stroke-linecap="round" stroke-miterlimit="10"/>
 <path d="m530.3 613.1-31.9 18.2" opacity=".5" stroke="#B2BFE8" stroke-linecap="round" stroke-miterlimit="10"/>
 <g stroke="#24386C" stroke-linecap="round" stroke-miterlimit="10">
  <path d="m701.7 294.5 42.6-24.6c3.1-1.8 3.1-6.2 0-8l-2.6-1.5c-3.1-1.8-3.1-6.2 0-8l12.1-7"/>
  <path d="m655.1 212.9 42.6-24.6c3.1-1.8 3.1-6.2 0-8l-2.6-1.5c-3.1-1.8-3.1-6.2 0-8l26.1-15.1"/>
  <path d="m204.7 281.4-26.1-15.1c-3.1-1.8-3.1-6.2 0-8l2.6-1.5c3.1-1.8 3.1-6.2 0-8l-17.8-10.3"/>
  <path d="m594.6 541.2-42.6 24.6c-3.1 1.8-3.1 6.2 0 8l19.1 11.1c3.1 1.8 3.1 6.2 0 8l-17.2 9.9"/>
 </g>
 <defs>
  <linearGradient id="paint0_linear_1799_852" x1="553.2" x2="582.16" y1="401.81" y2="401.81" gradientUnits="userSpaceOnUse">
   <stop stop-color="#fff" stop-opacity="0" offset="0"/>
   <stop stop-color="#24386C" stop-opacity=".1" offset="1"/>
  </linearGradient>
 </defs>
</svg>
