<svg width="873" height="728" viewBox="0 0 873 728" fill="none" xmlns="http://www.w3.org/2000/svg">
<path d="M818.7 541.1L813.6 538.1C807.4 534.5 807.4 525.6 813.7 522.1L868.2 491.3C874.4 487.8 874.5 478.9 868.3 475.3L813.2 442.9C807.1 439.3 807.1 430.5 813.3 426.9L868.2 395.2C874.4 391.6 874.4 382.7 868.2 379.2L763.9 319.1C757.7 315.6 757.7 306.7 763.9 303.1L802.3 280.8C808.4 277.2 808.4 268.4 802.3 264.8L764 242.7C757.8 239.1 757.8 230.2 764 226.7L802.3 204.6C808.5 201 808.5 192.1 802.3 188.6L693.3 125.7C687.6 122.4 680.6 122.4 674.8 125.7L627.1 153C621.4 156.3 614.3 156.3 608.6 153L561 125.5C555.3 122.2 548.4 122.2 542.7 125.4C538.2 128 532.6 127.9 528.1 125.4L429.1 68.9C423.4 65.6 416.4 65.7 410.7 68.9L103.7 245.6C97.5 249.2 97.5 258.1 103.7 261.6L175.1 302.7C181.3 306.3 181.3 315.2 175.1 318.7L54.0999 388.6C47.8999 392.2 47.8999 401.1 54.0999 404.6L92.4 426.7C98.6 430.3 98.6 439.2 92.4 442.7L4.59995 493.5C-1.60005 497.1 -1.60005 506 4.59995 509.5L59.4 541.1C65.6 544.7 65.6 553.6 59.4 557.1L21.1 579.2C14.9 582.8 14.9 591.7 21.1 595.2L196.1 696.2C201.8 699.5 208.9 699.5 214.6 696.2L328.2 630.6C333.9 627.3 341 627.3 346.7 630.6L509.8 724.8C515.5 728.1 522.6 728.1 528.3 724.8L818.8 557.1C824.9 553.6 824.9 544.7 818.7 541.1Z" fill="#D9E2FF"/>
<path d="M818.7 536.7L813.6 533.7C807.4 530.1 807.4 521.2 813.7 517.7L868.2 486.9C874.4 483.4 874.5 474.5 868.3 470.9L813.2 438.5C807.1 434.9 807.1 426.1 813.3 422.5L868.2 390.8C874.4 387.2 874.4 378.3 868.2 374.8L763.9 314.7C757.7 311.2 757.7 302.3 763.9 298.7L802.3 276.4C808.4 272.8 808.4 264 802.3 260.4L764 238.3C757.8 234.7 757.8 225.8 764 222.3L802.3 200.2C808.5 196.6 808.5 187.7 802.3 184.2L693.3 121.3C687.6 118 680.6 118 674.8 121.3L627.1 148.7C621.4 152 614.3 152 608.6 148.7L561 121.2C555.3 117.9 548.4 117.9 542.7 121.1C538.2 123.7 532.6 123.6 528.1 121.1L429.1 64.6002C423.4 61.3002 416.4 61.4002 410.7 64.6002L103.7 241.3C97.5 244.9 97.5 253.8 103.7 257.3L175.1 298.4C181.3 302 181.3 310.9 175.1 314.4L54.0999 384.3C47.8999 387.9 47.8999 396.8 54.0999 400.3L92.4 422.4C98.6 426 98.6 434.9 92.4 438.4L4.59995 489C-1.60005 492.6 -1.60005 501.5 4.59995 505L59.4 536.6C65.6 540.2 65.6 549.1 59.4 552.6L21.1 574.7C14.9 578.3 14.9 587.2 21.1 590.7L196.1 691.7C201.8 695 208.9 695 214.6 691.7L328.2 626.1C333.9 622.8 341 622.8 346.7 626.1L509.8 720.3C515.5 723.6 522.6 723.6 528.3 720.3L818.8 552.6C824.9 549.1 824.9 540.2 818.7 536.7Z" fill="#EBF1FF"/>
<path opacity="0.5" d="M281.1 592.4C356.873 592.4 418.3 554.523 418.3 507.8C418.3 461.077 356.873 423.2 281.1 423.2C205.326 423.2 143.9 461.077 143.9 507.8C143.9 554.523 205.326 592.4 281.1 592.4Z" fill="white"/>
<path opacity="0.1" d="M281.1 520.8C324.786 520.8 360.2 502.041 360.2 478.9C360.2 455.759 324.786 437 281.1 437C237.414 437 202 455.759 202 478.9C202 502.041 237.414 520.8 281.1 520.8Z" stroke="#C91540" stroke-miterlimit="10" stroke-linecap="round"/>
<path d="M281.1 606.6C369.631 606.6 441.4 562.366 441.4 507.8C441.4 453.234 369.631 409 281.1 409C192.569 409 120.8 453.234 120.8 507.8C120.8 562.366 192.569 606.6 281.1 606.6Z" stroke="white" stroke-miterlimit="10" stroke-linecap="round"/>
<path d="M281.1 623.9C385.095 623.9 469.4 571.92 469.4 507.8C469.4 443.68 385.095 391.7 281.1 391.7C177.105 391.7 92.8 443.68 92.8 507.8C92.8 571.92 177.105 623.9 281.1 623.9Z" stroke="white" stroke-miterlimit="10" stroke-linecap="round"/>
<path d="M202.4 485.8L284.9 533.4V543.1L202.4 495.5V485.8Z" fill="#D9E2FF"/>
<path d="M202.4 485.8L218.9 476.2L301.4 523.9L284.9 533.4L202.4 485.8Z" fill="white"/>
<path d="M284.9 543.1L301.4 533.6V523.9L284.9 533.4V543.1Z" fill="#B2BFE8"/>
<path d="M658.8 358.3V577.7L624.9 558.2L582.6 533.7V314.3L658.8 358.3Z" fill="#D9E2FF"/>
<path d="M658.8 358.3L735 314.3V533.7L658.8 577.7V358.3Z" fill="#B2BFE8"/>
<path d="M735 314.3L658.8 270.3L582.6 314.3L658.8 358.3L735 314.3Z" fill="#EBF1FF"/>
<path d="M281.5 140.4V359.9L232.3 331.5L205.3 315.9V96.5L245.6 119.7L281.5 140.4Z" fill="#D9E2FF"/>
<path opacity="0.5" d="M205.3 113.1L245.6 136.3L281.5 157.1" stroke="#B2BFE8" stroke-miterlimit="10" stroke-linecap="round"/>
<path d="M281.5 140.4L357.7 96.5V315.9L281.5 359.9V140.4Z" fill="#B2BFE8"/>
<path d="M184.9 437.6L127.4 404.4C124.5 402.7 121 402.7 118.2 404.4L110.9 408.6C108 410.3 104.5 410.3 101.7 408.6L81.5 397" stroke="#24386C" stroke-miterlimit="10" stroke-linecap="round"/>
<path d="M75.5 393.5L68.3 389.3" stroke="#24386C" stroke-miterlimit="10" stroke-linecap="round"/>
<path d="M229.4 415.9L203.3 400.8C200.2 399 200.2 394.6 203.3 392.8L205.9 391.3C209 389.5 209 385.1 205.9 383.3L188.1 373" stroke="#24386C" stroke-miterlimit="10" stroke-linecap="round"/>
<path d="M183.3 370.2L175.4 365.6" stroke="#24386C" stroke-miterlimit="10" stroke-linecap="round"/>
<path d="M357.7 96.5L281.5 52.5L205.3 96.5L281.5 140.4L357.7 96.5Z" fill="#EBF1FF"/>
<path d="M327.7 96.5003L281.5 69.8003L235.3 96.5003L281.5 123.1L327.7 96.5003Z" stroke="white" stroke-miterlimit="10" stroke-linecap="round"/>
<path d="M705 314.3L658.8 287.6L612.5 314.3L658.8 341L705 314.3Z" stroke="white" stroke-miterlimit="10" stroke-linecap="round"/>
<path d="M582.6 314.3L607.1 300.2L651 325.6L667.5 316.1V236.8C667.5 226.9 662.2 217.7 653.6 212.8L287.9 1.50018C280.6 -2.69982 271.4 2.60018 271.4 11.0002V106.3L306 126.3V345.8L582.6 506.5V314.3Z" fill="#D9E2FF"/>
<path opacity="0.5" d="M582.2 314.1V506.5L553.2 489.5V297.1L582.2 314.1Z" fill="url(#paint0_linear_1799_852)"/>
<path d="M651 325.5V246.2C651 236.3 645.7 227.1 637.1 222.2L271.4 11.0001C271.4 7.20005 273.2 4.10005 275.9 2.20005C279.2 -0.199946 283.9 -0.799946 287.9 1.50005L653.7 212.7C662.3 217.7 667.6 226.8 667.6 236.7V316L651 325.5Z" fill="#24386C"/>
<path d="M386.9 268.3L469.4 316V392.2L386.9 344.6V268.3Z" fill="#C91540"/>
<path d="M386.9 268.3L403.4 258.8L485.9 306.4L469.4 316L386.9 268.3Z" fill="#EBF1FF"/>
<path d="M469.4 392.2L485.9 382.7V306.4L469.4 316V392.2Z" fill="#B2BFE8"/>
<path d="M386.9 344.6L428.2 320.7V368.4" fill="#D81E54"/>
<path d="M456.158 339.054C461.116 336.379 461.67 327.788 457.396 319.865C453.121 311.942 445.637 307.688 440.679 310.363C435.722 313.037 435.167 321.628 439.442 329.551C443.716 337.474 451.2 341.729 456.158 339.054Z" fill="#D81E54"/>
<path d="M485.9 192.1L568.5 239.7V316L485.9 268.3V192.1Z" fill="#C91540"/>
<path d="M485.9 192.1L502.4 182.6L585 230.2L568.5 239.7L485.9 192.1Z" fill="#EBF1FF"/>
<path d="M568.5 316L585 306.4V230.2L568.5 239.7V316Z" fill="#B2BFE8"/>
<path d="M485.9 268.3L527.2 244.5V292.1" fill="#D81E54"/>
<path d="M555.14 262.78C560.097 260.105 560.652 251.514 556.377 243.591C552.103 235.668 544.619 231.414 539.661 234.089C534.703 236.763 534.149 245.354 538.423 253.277C542.698 261.2 550.182 265.455 555.14 262.78Z" fill="#D81E54"/>
<path d="M517.6 318.3L539.1 330.7C542 332.4 543.7 335.4 543.7 338.7V363.5C543.7 367.1 539.8 369.3 536.8 367.5L515.3 355.1C512.4 353.4 510.7 350.4 510.7 347.1V322.3C510.7 318.7 514.5 316.5 517.6 318.3Z" fill="#EBF1FF"/>
<path d="M443.3 148.4L464.8 160.8C467.7 162.5 469.4 165.5 469.4 168.8V260.1C469.4 263.7 465.5 265.9 462.5 264.1L441 251.8C438.1 250.1 436.4 247.1 436.4 243.8V152.5C436.4 148.9 440.3 146.7 443.3 148.4Z" fill="#EBF1FF"/>
<path d="M281.1 549.2C344.06 549.2 395.1 517.726 395.1 478.9C395.1 440.074 344.06 408.6 281.1 408.6C218.139 408.6 167.1 440.074 167.1 478.9C167.1 517.726 218.139 549.2 281.1 549.2Z" stroke="#B2BFE8" stroke-miterlimit="10" stroke-linecap="round"/>
<path d="M304.4 87.3003L386.9 134.9V211.1L304.4 163.5V87.3003Z" fill="#C91540"/>
<path d="M304.4 87.3002L320.9 77.7002L403.4 125.4L386.9 134.9L304.4 87.3002Z" fill="#EBF1FF"/>
<path d="M386.9 211.1L403.4 201.6V125.4L386.9 134.9V211.1Z" fill="#B2BFE8"/>
<path d="M275.4 443.2L357.9 490.9V500.6L275.4 452.9V443.2Z" fill="#D9E2FF"/>
<path d="M275.4 443.2L291.9 433.7L374.4 481.4L357.9 490.9L275.4 443.2Z" fill="#EBF1FF"/>
<path d="M357.9 500.6L374.4 491.1V481.4L357.9 490.9V500.6Z" fill="#B2BFE8"/>
<path d="M304.4 163.5L345.6 139.7V187.3" fill="#D81E54"/>
<path d="M403.4 506.6L431.8 490.2C434.7 488.5 438.2 488.5 441 490.2L448.3 494.4C451.2 496.1 454.7 496.1 457.5 494.4L485.9 478" stroke="#24386C" stroke-miterlimit="10" stroke-linecap="round"/>
<path d="M489.6 475.8L494.8 472.9" stroke="#24386C" stroke-miterlimit="10" stroke-linecap="round"/>
<path d="M390.5 456.8L398.8 452C401.7 450.3 405.2 450.3 408 452L415.3 456.2C418.2 457.9 421.7 457.9 424.5 456.2L429.5 453.3C432.6 451.5 432.6 447.1 429.5 445.3L426.9 443.8C423.8 442 423.8 437.6 426.9 435.8L429.4 434.4" stroke="#24386C" stroke-miterlimit="10" stroke-linecap="round"/>
<path d="M408.1 478.9C408.1 522.1 351.3 557.2 281.1 557.2C210.9 557.2 154.1 522.2 154.1 478.9V504.5C154.1 547.7 210.9 582.8 281.1 582.8C351.3 582.8 408.1 547.8 408.1 504.5V478.9Z" fill="#B2BFE8"/>
<path d="M281.1 549.2C344.06 549.2 395.1 517.726 395.1 478.9C395.1 440.074 344.06 408.6 281.1 408.6C218.139 408.6 167.1 440.074 167.1 478.9C167.1 517.726 218.139 549.2 281.1 549.2Z" stroke="#C91540" stroke-miterlimit="10" stroke-linecap="round"/>
<path d="M281.1 400.7C211 400.7 154.1 435.7 154.1 479C154.1 522.3 210.9 557.3 281.1 557.3C351.3 557.3 408.1 522.3 408.1 479C408.1 435.7 351.3 400.7 281.1 400.7ZM281.1 549.2C218.1 549.2 167.1 517.7 167.1 478.9C167.1 440.1 218.1 408.6 281.1 408.6C344.1 408.6 395.1 440.1 395.1 478.9C395.1 517.7 344.1 549.2 281.1 549.2Z" fill="#EBF1FF"/>
<path d="M373.555 157.983C378.513 155.308 379.067 146.717 374.793 138.794C370.519 130.871 363.034 126.617 358.077 129.291C353.119 131.966 352.565 140.557 356.839 148.48C361.113 156.403 368.597 160.657 373.555 157.983Z" fill="#D81E54"/>
<path d="M327.8 215.2L369.5 239.3C372.4 241 374.1 244 374.1 247.3V272.1C374.1 275.7 370.2 277.9 367.2 276.1L325.5 252C322.6 250.3 320.9 247.3 320.9 244V219.2C320.9 215.6 324.7 213.4 327.8 215.2Z" fill="#EBF1FF"/>
<path d="M354.9 549.2L511.7 639.8V658.8L354.9 568.3V549.2Z" fill="#D9E2FF"/>
<path d="M545.1 620.7L511.7 639.8V658.8L545.1 639.8V620.7Z" fill="#C91540"/>
<path d="M388.3 530.2L354.9 549.2L511.7 639.8L528.8 630L545.1 620.7L388.3 530.2Z" fill="white"/>
<path d="M327.8 281.7L349.3 294.1C352.2 295.8 353.9 298.8 353.9 302.1V335.2C353.9 338.8 350 341 347 339.2L325.5 326.8C322.6 325.1 320.9 322.1 320.9 318.8V285.7C320.9 282.1 324.7 279.9 327.8 281.7Z" fill="#EBF1FF"/>
<path d="M514.7 387.9L559.2 413.6C562.1 415.3 563.8 418.3 563.8 421.6V454.7C563.8 458.3 559.9 460.5 556.9 458.7L512.4 433C509.5 431.3 507.8 428.3 507.8 425V391.9C507.8 388.3 511.7 386.1 514.7 387.9Z" fill="#EBF1FF"/>
<path opacity="0.1" d="M281.1 549.2C344.06 549.2 395.1 517.726 395.1 478.9C395.1 440.074 344.06 408.6 281.1 408.6C218.139 408.6 167.1 440.074 167.1 478.9C167.1 517.726 218.139 549.2 281.1 549.2Z" fill="#C91540"/>
<path opacity="0.1" d="M281.1 537.9C336.273 537.9 381 511.485 381 478.9C381 446.316 336.273 419.9 281.1 419.9C225.927 419.9 181.2 446.316 181.2 478.9C181.2 511.485 225.927 537.9 281.1 537.9Z" stroke="#C91540" stroke-miterlimit="10" stroke-linecap="round"/>
<path d="M202.4 409.6L284.9 457.2V533.5L202.4 485.8V409.6Z" fill="#D9E2FF"/>
<path d="M275.4 367.4L357.9 415.1V491.3L275.4 443.7V367.4Z" fill="#D9E2FF"/>
<path d="M275.4 367.4L291.9 357.9L374.4 405.5L357.9 415.1L275.4 367.4Z" fill="#EBF1FF"/>
<path d="M357.9 491.3L374.4 481.8V405.5L357.9 415.1V491.3Z" fill="#B2BFE8"/>
<path opacity="0.5" d="M281.5 343.3L232.3 314.8L205.3 299.3" stroke="#B2BFE8" stroke-miterlimit="10" stroke-linecap="round"/>
<path d="M202.4 409.6L218.9 400L301.4 447.7L284.9 457.2L202.4 409.6Z" fill="#EBF1FF"/>
<path d="M284.9 533.5L301.4 523.9V447.7L284.9 457.2V533.5Z" fill="#B2BFE8"/>
<path d="M239.9 322.3L322.4 370V446.2L239.9 398.6V322.3Z" fill="#C91540"/>
<path d="M239.9 322.3L256.4 312.8L338.9 360.5L322.4 370L239.9 322.3Z" fill="#EBF1FF"/>
<path d="M322.4 446.2L338.9 436.7V360.5L322.4 370V446.2Z" fill="#B2BFE8"/>
<path d="M239.9 398.6L281.1 374.8V422.4" fill="#D81E54"/>
<path d="M309.055 393.084C314.013 390.409 314.567 381.818 310.293 373.896C306.019 365.973 298.534 361.718 293.577 364.393C288.619 367.068 288.065 375.659 292.339 383.581C296.613 391.504 304.097 395.759 309.055 393.084Z" fill="#D81E54"/>
<path d="M720.8 521.7L714.4 525.4C714.1 525.6 713.9 525.9 713.9 526.2V528.8C713.9 529.5 714.7 530 715.3 529.6L721.7 525.9C722 525.7 722.2 525.4 722.2 525.1V522.5C722.2 521.8 721.5 521.3 720.8 521.7Z" fill="#24386C"/>
<path d="M717 363.6L684 382.7" stroke="white" stroke-miterlimit="10" stroke-linecap="round"/>
<path d="M717 401.7L684 420.8" stroke="white" stroke-miterlimit="10" stroke-linecap="round"/>
<path d="M717 439.9L684 458.9" stroke="white" stroke-miterlimit="10" stroke-linecap="round"/>
<path d="M717 478L684 497" stroke="white" stroke-miterlimit="10" stroke-linecap="round"/>
<path opacity="0.5" d="M243.4 135.6V318.9" stroke="#B2BFE8" stroke-miterlimit="10" stroke-linecap="round"/>
<path opacity="0.5" d="M617.8 351.9V535.2" stroke="#B2BFE8" stroke-miterlimit="10" stroke-linecap="round"/>
<path d="M667.5 316L699.8 334.6" stroke="white" stroke-miterlimit="10" stroke-linecap="round"/>
<path d="M246 73L271.4 87.3" stroke="white" stroke-miterlimit="10" stroke-linecap="round"/>
<path d="M302.5 581.7L314 588.3C317.1 590.1 317.1 594.5 314 596.3L271.4 620.9" stroke="#24386C" stroke-miterlimit="10" stroke-linecap="round"/>
<path d="M265.5 624.3L254.9 630.5" stroke="#24386C" stroke-miterlimit="10" stroke-linecap="round"/>
<path d="M221.8 573.3L179.2 597.9C176.1 599.7 176.1 604.1 179.2 605.9L198.3 617C201.4 618.8 201.4 623.2 198.3 625L172.3 640" stroke="#24386C" stroke-miterlimit="10" stroke-linecap="round"/>
<path d="M166.4 643.4L155.8 649.5" stroke="#24386C" stroke-miterlimit="10" stroke-linecap="round"/>
<path d="M152.2 651.6L147.6 654.3" stroke="#24386C" stroke-miterlimit="10" stroke-linecap="round"/>
<path d="M172.3 544.9L110.9 580.2C108 581.8 104.5 581.8 101.7 580.2L94.4 576C91.5 574.3 88 574.3 85.2 576L63.5 588.5" stroke="#24386C" stroke-miterlimit="10" stroke-linecap="round"/>
<path d="M58.3999 591.4L52.3999 594.9" stroke="#24386C" stroke-miterlimit="10" stroke-linecap="round"/>
<path d="M155.8 497L143.9 490.1C141 488.4 137.5 488.4 134.7 490.1L110.9 503.8C108 505.5 104.5 505.5 101.7 503.8L94.4 499.6C91.5 497.9 88 497.9 85.2 499.6L73.3 506.5" stroke="#24386C" stroke-miterlimit="10" stroke-linecap="round"/>
<path d="M68.3001 509.4L56.8 516.1" stroke="#24386C" stroke-miterlimit="10" stroke-linecap="round"/>
<path d="M532.7 635.8L526.3 639.5C526 639.7 525.8 640 525.8 640.3V642.9C525.8 643.6 526.6 644.1 527.2 643.7L533.6 640C533.9 639.8 534.1 639.5 534.1 639.2V636.6C534.1 635.9 533.4 635.5 532.7 635.8Z" fill="#24386C"/>
<path d="M717.7 525.6L746.4 542.5C748.7 543.8 750 546.3 750 548.9V549.9C750 552.5 751.4 555 753.7 556.3L759.6 559.7C762.7 561.5 762.7 565.9 759.6 567.7L573.1 675.4C570.2 677.1 566.7 677.1 563.9 675.4L556.6 671.2C553.7 669.5 552 666.5 552 663.2V657.8C552 654.5 550.2 651.5 547.4 649.8L530 639.7" stroke="#24386C" stroke-miterlimit="10" stroke-linecap="round"/>
<path d="M799.6 468.4L773.5 483.5C770.4 485.3 770.4 489.7 773.5 491.5L776.1 493C779.2 494.8 779.2 499.2 776.1 501L736 524.157" stroke="#24386C" stroke-miterlimit="10" stroke-linecap="round"/>
<path d="M805 465.3L816.1 458.9" stroke="#24386C" stroke-miterlimit="10" stroke-linecap="round"/>
<path d="M821.6 455.7L827.5 452.3" stroke="#24386C" stroke-miterlimit="10" stroke-linecap="round"/>
<path d="M783.1 401.7L757 416.8C753.9 418.6 753.9 423 757 424.8L759.6 426.3C762.7 428.1 762.7 432.5 759.6 434.3L736.5 447.665" stroke="#24386C" stroke-miterlimit="10" stroke-linecap="round"/>
<path d="M792.4 396.4L799.6 392.2" stroke="#24386C" stroke-miterlimit="10" stroke-linecap="round"/>
<path d="M806.2 388.4L816.1 382.7" stroke="#24386C" stroke-miterlimit="10" stroke-linecap="round"/>
<path d="M821.5 379.6L824.3 377.9" stroke="#24386C" stroke-miterlimit="10" stroke-linecap="round"/>
<path opacity="0.5" d="M639.2 403.4V509.9L602.2 488.6V382.1L639.2 403.4Z" stroke="#B2BFE8" stroke-miterlimit="10" stroke-linecap="round"/>
<path opacity="0.5" d="M261.9 185.6V292.1L224.9 270.8V164.3L261.9 185.6Z" stroke="#B2BFE8" stroke-miterlimit="10" stroke-linecap="round"/>
<path opacity="0.5" d="M658.8 561.1L624.9 541.5L582.6 517.1" stroke="#B2BFE8" stroke-miterlimit="10" stroke-linecap="round"/>
<path opacity="0.5" d="M658.8 373.6L624.9 354L582.6 329.6" stroke="#B2BFE8" stroke-miterlimit="10" stroke-linecap="round"/>
<path d="M608.2 246.4L629.7 258.8C632.6 260.5 634.3 263.5 634.3 266.8V283.3C634.3 286.9 630.4 289.1 627.4 287.3L605.9 274.9C603 273.2 601.3 270.2 601.3 266.9V250.4C601.3 246.8 605.1 244.6 608.2 246.4Z" fill="#EBF1FF"/>
<path opacity="0.5" d="M391.6 551.2L514.4 622.1" stroke="#B2BFE8" stroke-miterlimit="10" stroke-linecap="round"/>
<path opacity="0.5" d="M530.3 613.1L514.7 622L498.4 631.3" stroke="#B2BFE8" stroke-miterlimit="10" stroke-linecap="round"/>
<path d="M701.7 294.5L744.3 269.9C747.4 268.1 747.4 263.7 744.3 261.9L741.7 260.4C738.6 258.6 738.6 254.2 741.7 252.4L753.8 245.4" stroke="#24386C" stroke-miterlimit="10" stroke-linecap="round"/>
<path d="M655.1 212.9L697.7 188.3C700.8 186.5 700.8 182.1 697.7 180.3L695.1 178.8C692 177 692 172.6 695.1 170.8L721.2 155.7" stroke="#24386C" stroke-miterlimit="10" stroke-linecap="round"/>
<path d="M204.7 281.4L178.6 266.3C175.5 264.5 175.5 260.1 178.6 258.3L181.2 256.8C184.3 255 184.3 250.6 181.2 248.8L163.4 238.5" stroke="#24386C" stroke-miterlimit="10" stroke-linecap="round"/>
<path d="M594.6 541.2L552 565.8C548.9 567.6 548.9 572 552 573.8L571.1 584.9C574.2 586.7 574.2 591.1 571.1 592.9L553.9 602.8" stroke="#24386C" stroke-miterlimit="10" stroke-linecap="round"/>
<defs>
<linearGradient id="paint0_linear_1799_852" x1="553.205" y1="401.809" x2="582.158" y2="401.809" gradientUnits="userSpaceOnUse">
<stop stop-color="white" stop-opacity="0"/>
<stop offset="1" stop-color="#24386C" stop-opacity="0.1"/>
</linearGradient>
</defs>
</svg>
