<svg height="297mm" viewBox="0 0 210 297" width="210mm" xmlns="http://www.w3.org/2000/svg"><g stroke-linejoin="round"><path d="m134.60649 76.529335h61.846378v76.084389h-61.846378z" fill="none" stroke="#000"/><path d="m3.114561 84.315742h61.846378v76.084389h-61.846378z" fill="none" stroke="#000"/><path d="m13.184757 104.95322h27.467978v34.809448h-27.467978z" fill="none" stroke="#000" stroke-width=".450772"/><text font-size="4.93889" x="178.54727" y="82.95713"><tspan font-size="4.93889" x="178.54727" y="82.95713">kernel</tspan></text><ellipse cx="100.08916" cy="98.137138" fill="none" rx="25.361462" ry="24.249119" stroke="#000"/><circle cx="100.31163" cy="98.221375" fill="none" r="17.352579" stroke="#000"/><path d="m99.950916 73.829481v6.4516" fill="none" stroke="#000"/><path d="m100.08916 115.46261v6.4516" fill="none" stroke="#000"/><path d="m124.81034 98.137042h-6.45162-.52917" fill="none" stroke="#000"/><path d="m82.686939 97.553865h-7.509933" fill="none" stroke="#000"/><path d="m82.291637 80.868775 4.894318 5.116766" fill="none" stroke="#000"/><path d="m112.65858 110.55283 4.89434 5.11678" fill="none" stroke="#000"/><path d="m87.837301 110.46931-5.11678 4.89432" fill="none" stroke="#000"/><path d="m118.57214 82.273052-5.11681 4.894293" fill="none" stroke="#000"/><path d="m90.38475 76.419396 2.669627 5.784194" fill="none" stroke="#000"/><path d="m77.053985 88.188999 6.980761 3.114552" fill="none" stroke="#000"/><path d="m123.98638 89.039033-6.9808 3.114552" fill="none" stroke="#000"/><path d="m123.45722 108.02855-6.98081-3.11457" fill="none" stroke="#000"/><path d="m76.908217 107.84215 6.980776-3.11457" fill="none" stroke="#000"/><path d="m109.95755 76.16671-2.66964 5.784195" fill="none" stroke="#000"/><path d="m109.34415 120.51062-2.66964-5.7842" fill="none" stroke="#000"/><path d="m90.735679 120.32802 2.669626-5.7842" fill="none" stroke="#000"/></g><circle cx="95.576546" cy="78.148834" fill="#800000" r="2.2"/><ellipse cx="100.11105" cy="148.60928" fill="none" rx="25.361462" ry="24.249119" stroke="#000" stroke-linejoin="round"/><circle cx="100.33352" cy="148.69351" fill="none" r="17.352579" stroke="#000" stroke-linejoin="round"/><path d="m99.972795 124.30162v6.4516" fill="none" stroke="#000" stroke-linejoin="round"/><path d="m100.11104 165.93475v6.4516" fill="none" stroke="#000" stroke-linejoin="round"/><path d="m124.83222 148.60918h-6.45162-.52917" fill="none" stroke="#000" stroke-linejoin="round"/><path d="m82.708825 148.02601h-7.50994" fill="none" stroke="#000" stroke-linejoin="round"/><path d="m82.313525 131.34092 4.89431 5.11676" fill="none" stroke="#000" stroke-linejoin="round"/><path d="m112.68046 161.02497 4.89434 5.11678" fill="none" stroke="#000" stroke-linejoin="round"/><path d="m87.859185 160.94145-5.11678 4.89432" fill="none" stroke="#000" stroke-linejoin="round"/><path d="m118.59402 132.74519-5.11681 4.8943" fill="none" stroke="#000" stroke-linejoin="round"/><path d="m90.406635 126.89154 2.66963 5.78419" fill="none" stroke="#000" stroke-linejoin="round"/><path d="m77.075865 138.66114 6.98076 3.11455" fill="none" stroke="#000" stroke-linejoin="round"/><path d="m124.00826 139.51117-6.9808 3.11456" fill="none" stroke="#000" stroke-linejoin="round"/><path d="m123.4791 158.50069-6.98081-3.11457" fill="none" stroke="#000" stroke-linejoin="round"/><path d="m76.930105 158.31429 6.98077-3.11457" fill="none" stroke="#000" stroke-linejoin="round"/><path d="m109.97943 126.63885-2.66964 5.7842" fill="none" stroke="#000" stroke-linejoin="round"/><path d="m109.36603 170.98276-2.66964-5.7842" fill="none" stroke="#000" stroke-linejoin="round"/><path d="m90.757565 170.80016 2.66962-5.7842" fill="none" stroke="#000" stroke-linejoin="round"/><circle cx="79.480965" cy="143.91278" fill="#0e8000" r="2.2"/><circle cx="121.15683" cy="94.543617" fill="#0e8000" r="2.2"/><path d="m154.1839 107.45252-31.14565-12.013329" fill="none" stroke="#000"/><circle cx="88.786415" cy="167.27538" fill="#800000" r="2.2"/><path d="m147.80018 137.43064-56.95205 29.14343" fill="none" stroke="#000"/><path d="m77.419201 143.49249-32.257995-12.45827" fill="none" stroke="#000"/><path d="m94.020145 78.691669-53.615017 29.143431" fill="none" stroke="#000"/><text font-size="4.9389" stroke-linejoin="round" text-anchor="middle" x="100.84748" y="96.329071"><tspan text-anchor="middle" x="100.84748" y="96.329071">completion</tspan><tspan text-anchor="middle" x="100.84748" y="102.50269">queue</tspan></text><text font-size="4.9389" stroke-linejoin="round" text-anchor="middle" x="100.21454" y="147.05199"><tspan x="100.21454" y="147.05199">submission</tspan><tspan x="100.21454" y="153.22562">queue</tspan></text><path d="m18.19031 110.73742h27.467978v34.809448h-27.467978z" fill="#fff" stroke="#000" stroke-linejoin="round" stroke-width=".450772"/><text font-size="4.9389" stroke-linejoin="round" text-anchor="middle" x="24.959589" y="109.53897"><tspan x="24.959589" y="109.53897">thread N</tspan></text><text font-size="4.9389" stroke-linejoin="round" text-anchor="middle" x="29.678476" y="115.53373"><tspan x="29.678476" y="115.53373">thread X</tspan></text><g><g fill="#fff"><ellipse cx="153.208148347" cy="117.95974877999" rx="3.19110724643" ry="8.5579694075" stroke-width=".07179625"/><ellipse cx="176.04810278414" cy="118.07855577856" rx="7.10746610714" ry="10.22604758188" stroke-width=".11712696633"/><ellipse cx="165.75063013887" cy="117.16488675254" rx="12.69190414738" ry="20.81472294529" stroke-width=".07179625"/><ellipse cx="165.60557802111" cy="94.82713559675" rx="8.63049438944" ry="7.32504184271" stroke-width=".0709079868"/></g><g transform="matrix(.07179625 0 0 .07179625 136.00973 86.867071)"><path d="m412.15039-45.625c-17.9943.24818-36.10513 2.485767-53.2207 8.21875-14.1936 4.780166-27.61979 12.196301-38.58339 22.469776-10.37294 9.6626185-18.43164 21.670392-23.99464 34.680144-7.61856 17.675315-11.01136 36.870468-12.36412 55.980766-1.61176 22.857885-.1809 45.779764 1.34519 68.600714.51949 8.27226 1.10364 16.51283 1.07025 24.82288.007 4.18773-.49682 8.47509-.84829 12.56291-1.47933 15.02791-4.23038 29.99958-9.24494 44.2734-5.72251 16.48008-14.27492 31.85998-24.26483 46.11722-2.00076 2.71893-4.29229 5.21013-6.38188 7.86084-18.37312 22.47543-35.40684 46.07749-50.4698 70.90278-14.48597 23.96851-27.19597 49.14173-36.16955 75.7154-7.38136 21.93934-12.16447 44.98657-11.80141 68.21733.0914 5.67837.52616 11.36873 1.26014 16.98725-8.53057 8.25973-14.69209 18.5075-22.13824 27.67643-2.12261 2.64475-4.54622 5.09995-7.50204 6.80926-5.91272 3.63131-12.64563 5.53348-19.12393 7.87148-8.249115 2.84352-16.422988 6.51093-22.97047 12.40632-6.058238 5.41483-10.675598 12.47475-13.08339 20.24259-2.570077 8.60726-2.198846 17.75473-1.052503 26.5652 1.145619 9.11742 3.039437 18.13863 3.48466 27.33954.205374 4.34573.01117 8.83271-1.688791 12.89806-3.678894 10.54053-6.714753 21.50745-6.787131 32.74932-.01986 7.81693 1.828402 15.81962 6.315376 22.31522 4.501525 6.57406 11.391658 11.17302 18.750457 14.00268 9.251862 3.64063 19.155842 5.11849 28.952152 6.46049 18.31036 2.39726 36.8627 3.63567 54.79307 8.30989 1.70706.45765 3.27177.88152 4.98383 1.40927 6.75171 2.027 13.30961 4.70227 19.51306 8.05465 17.54899 8.96588 36.52387 15.50363 56.17489 17.66506 13.61856 1.45835 27.64926.77305 40.73106-3.51545 11.90999-3.91881 22.83298-11.2226 30.36864-21.31665 2.07651-2.76555 3.91676-5.70987 5.47266-8.79883 11.59828-.4495 22.93883-3.12321 34.31793-5.18787 10.21714-1.9454 20.36194-3.55473 30.7461-4.50587 5.16044-.44376 10.33217-.87001 15.51369-.91398 10.18145.0612 20.20867 1.67724 30.25042 3.07997 13.07381 1.89897 26.20529 3.70967 39.43723 3.88335 2.7487.0437 5.49913.0297 8.24635-.0705 1.9793 6.39775 5.29134 12.29911 9 17.84229 7.28175 10.62516 17.54782 19.26794 29.48671 24.18759 12.24019 5.11623 25.92633 6.34169 38.98009 4.25333 16.76044-2.59611 32.51138-9.96834 46.20115-19.83713 10.63656-7.64066 20.05459-16.87938 28.39983-26.94941 9.35225-10.72113 21.34965-18.71925 33.73124-25.52849 13.91815-7.67527 28.62992-13.8128 42.42821-21.71189 7.57033-4.38142 14.92388-9.601 20.09504-16.77191 3.69839-5.19058 5.94182-11.46392 5.99492-17.8628.16317-8.34612-2.78812-16.43365-6.82671-23.62532-5.08832-9.14192-11.80119-17.24147-18.72865-25.03138-3.05117-3.68274-4.6785-8.27087-6.13907-12.7599-3.1773-10.26283-4.76659-20.94261-8.04722-31.17529-2.29535-7.17815-5.61562-14.16986-10.74202-19.77271-3.71003-4.02389-8.17371-7.34687-13.03135-9.85921-.27896-.27946-1.15807-.28441-1.00337-.74143 6.76305-21.62372 8.86451-44.61994 6.65149-67.14574-2.61307-27.30596-11.12998-53.7757-22.82154-78.49288-12.38609-26.21884-28.28442-50.64285-45.85408-73.66161-6.50472-8.52738-13.30398-16.82432-20.18241-25.05101-12.75448-16.12586-25.76474-32.23875-35.63151-50.35817-7.14838-13.08673-12.40136-27.31192-14.52729-42.10913-.46945-3.21342-.7961-6.44693-1.00768-9.68741-.027-.64018-.0886-1.59872-.11996-2.36363-.24002-7.70267.0953-15.40722.12605-23.11068.33755-27.99423.0413-56.152233-4.4877-83.846465-3.06571-18.664056-8.09652-37.187009-16.81804-54.049799-7.24149-14.0326154-17.31089-26.750391-30.0252-36.205406-12.51838-9.388672-27.3318-15.455036-42.63064-18.505711-10.68366-2.179148-21.6155-2.988018-32.5074-2.908539zm19.34961 120.314453c5.70924-.07041 11.36397 1.774978 16.06127 4.992397 5.83982 3.811067 10.56135 9.23463 13.71111 15.443487 4.05332 7.636003 6.37832 16.188253 6.63318 24.835853.22886 3.78863.0971 7.83591-.47414 11.69173-1.14387 8.04114-4.02958 15.84207-8.42712 22.67195-.37911.42865-.5964 1.41237-1.2723.82288-4.08667-1.73217-8.21616-3.36309-12.38825-4.87822 3.28064-5.94637 4.86525-12.7249 5.06418-19.48742.34116-7.00179-1.10869-14.09295-4.15207-20.40711-2.11306-4.2277-5.23025-8.0851-9.3418-10.5-4.78765-2.804474-10.99618-2.913743-15.89139-.308305-5.11742 2.695415-8.88753 7.452705-11.27332 12.643095-2.85933 6.08875-4.08225 12.86012-3.98177 19.56365-3.31189-1.37076-6.6971-2.57145-10.1543-3.52149-.0911-.96264-.16592-2.23419-.21533-3.34557-.37149-8.52095.85508-17.1803 4.19898-25.061332 2.79675-6.87158 6.96248-13.334222 12.81843-17.985703 4.61611-3.804015 10.24644-6.598927 16.27621-7.045104.93349-.08586 1.8715-.110999 2.80843-.124788zm-99.67969 7.888672c4.41512-.07397 8.56422 2.031971 11.83309 4.871462 5.55067 4.661539 9.04656 11.260301 11.42641 18.000903 2.59737 7.44344 3.471 15.39624 3.2366 23.24873-2.92655.98714-5.77045 2.21323-8.51758 3.62305-.34196-7.14297-2.22413-14.35689-6.23367-20.34224-2.46997-3.56161-6.01417-6.7153-10.3847-7.53818-4.15214-.75809-8.57075.86837-11.36465 4.00612-3.94302 4.14823-5.68119 9.84929-6.48225 15.39575-.79424 5.96201-.27411 12.08158 1.31292 17.87308 1.21109 4.22742 3.04189 8.34676 5.86329 11.7539-1.11371.82531-2.22955 1.64744-3.34766 2.4668-3.26133-3.83422-5.54594-8.39543-7.32227-13.07812-.1531-.40752-.39331-1.04736-.54746-1.49624-2.96629-8.53391-3.78031-17.73257-2.96968-26.70256.70889-6.74646 2.52568-13.43425 5.72977-19.43305 2.5332-4.539102 6.1433-8.631145 10.77966-11.082718 2.15932-1.071162 4.58274-1.581045 6.98818-1.566687zm45.30469 57.117185c10.32102-.0498 20.35141 3.32817 29.44496 8.00237 4.36644 2.16261 8.41665 4.88217 12.59215 7.37654 7.70017 4.34196 16.36533 6.50513 24.51888 9.67907 4.14165 1.59295 8.29515 3.18549 12.28882 5.12639 4.49182 2.26444 8.85783 5.44656 11.05788 10.10921 2.0039 4.05231 1.47588 8.8875-.28618 12.92227-1.29165 3.08944-3.3381 5.98645-5.47393 8.41306-5.77609 6.51547-13.31632 11.26733-21.29492 14.62695-2.98517 1.28081-6.11424 2.17198-9.14258 3.33399-9.53592 3.85896-17.51398 10.55066-26.54662 15.34939-6.62981 3.59628-13.87115 6.25119-21.42397 6.92114-6.52023.61661-13.21393.17416-19.47363-1.82831-5.94546-1.88696-11.14616-5.69287-15.71203-9.74691-5.29656-4.69832-10.36277-9.72969-16.35845-13.55848-2.95507-1.86144-6.0421-3.51955-8.86188-5.59264-5.16375-3.68577-9.95664-8.14824-13.07238-13.73662-1.99315-3.67459-3.17623-8.15853-1.7737-12.24117.31443-1.06598.21237-.0313.21094.50196-.0567 1.54872.0163 3.12318-.42774 4.62304-.0655.56227-.0794 1.20598.0925 1.72468.80957.93275 1.74131 1.76336 2.8405 2.32865 3.43719 2.78942 6.48 6.01984 9.80657 8.93537 8.85619 8.00363 18.80627 15.06163 30.07333 19.21619 10.20252 3.80041 21.36686 5.00509 32.13494 3.35119 13.37443-1.9518 25.89619-7.53245 37.6647-13.97629 8.7987-4.82224 17.21966-10.29767 25.99385-15.16138 3.1611-1.68183 6.39891-3.38862 9.93268-4.11763 1.43837-.15614 2.88094-.27115 4.32031-.41992-.28052-4.69589-.56027-9.39183-.83789-14.08789-3.3404.30425-6.74341.42186-9.94564 1.52356-5.1387 1.65884-9.81973 4.42468-14.48825 7.08413-11.01379 6.40723-21.72519 13.42915-33.41842 18.57736-7.36913 3.27407-15.11724 5.89786-23.15941 6.82276-1.11386.13139-2.47839.23639-3.69727.29102-.49021.0196-1.32696.0431-1.95351.0445-4.13984.0276-8.27723-.50596-12.28672-1.53081-.50156-.1249-1.38822-.36552-1.88292-.51856-9.70505-2.83134-18.33844-8.45515-25.96609-14.97408-4.36125-3.64737-8.34047-7.71897-12.62061-11.45588-1.99011-1.61807-4.1191-3.41134-6.78422-3.64197-.70327-.13222-1.6677-.0704-2.22467-.17904 2.05664-1.90661 4.43684-3.42008 6.64193-5.14536 5.55958-4.15398 11.18986-8.21595 16.74188-12.37791 2.94789-2.50814 5.55798-5.38345 8.48827-7.91373 5.71511-5.11734 12.17624-9.56213 19.46986-12.08769 4.73967-1.707 9.76224-2.57395 14.79868-2.5925zm93.32031 74.04297c6.492 23.213 14.54002 45.96172 23.24184 68.42891 8.16004 20.97516 16.96266 41.71321 26.77333 61.97256 3.48 7.19493 7.28245 14.22521 10.99648 21.30048 13.98327 27.17806 25.09925 55.97043 31.45405 85.91376.80356 3.72102 1.46295 7.41651 2.16126 11.17726 4.52645-.22731 9.08158-.0963 13.55385.68207 3.23473.54724 6.40903 1.38272 9.59068 2.17145 3.40605-8.35985 5.90059-17.11852 6.99939-26.09048 2.00345-15.54675.30709-31.41759-3.83924-46.48374 4.95047 13.52211 8.1607 27.74911 8.77149 42.16015.0203.56076.046 1.46129.0684 2.15235.11855 5.16905-.12779 10.51065-.73242 15.54101-.31057 2.5444-.71025 5.07754-1.19922 7.59375-.16301.83981-.43518 2.1304-.625 2.95899-.21235 1.17489-.6583 2.30587-.78907 3.48632-.079 1.3053.99358 2.44033 2.24066 2.66564 7.49425 3.10737 14.84243 6.92201 21.91718 11.0066 7.60198 4.53522 15.12971 9.58142 20.75623 16.52112.98982 1.26284 1.9034 2.58843 2.67578 3.9961-4.08969-6.28621-10.21684-10.88551-16.48591-14.82966-6.98083-4.35327-14.4051-7.95279-21.95355-11.20354-9.56377-3.95864-19.63838-7.12232-30.044-7.59301-6.98513-.28458-14.27398.96068-20.17085 4.90185-5.42683 3.59914-9.17949 9.32765-11.06562 15.49804-.91998 2.92861-1.45986 5.95903-1.91289 8.98999-9.56505 3.84465-17.79798 10.77614-23.41615 19.40084-6.34103 9.56023-9.85599 20.68089-12.13357 31.84055-3.12481 15.43555-4.15371 31.18905-5.09379 46.87925-.27401 4.59748-.42467 9.13691-.81226 13.71571-.8712 8.08573-2.94351 15.97361-5.03641 23.81209-.44694 1.60049-.95634 3.45279-1.42476 5.08858-1.16979 4.12317-2.37111 8.21732-3.57134 12.34696-15.87878 11.16517-33.36317 20.11038-51.85351 26.0625-1.40635.44362-3.03064.95301-4.45158 1.35909-4.13794 1.21265-8.39277 2.27297-12.53734 3.14132-3.18876.66548-6.26889 1.21578-9.50512 1.69064-11.88287 1.75245-24.19251 2.12151-36.21846.81021-.88964-.0834-1.70313-.1931-2.65601-.30695-6.70285-.85511-13.34096-2.22085-19.83657-4.08298-1.04563-.30134-2.30482-.67777-3.34711-1.01405-2.07431-.65659-4.04312-1.33923-6.00103-2.06665-7.26203-2.70083-14.44483-6.11203-21.186-10.06731-2.49422-1.45367-5.12278-3.11185-7.51309-4.72571-.77594-.94388-1.31979-2.07255-2.05734-3.05503-5.00742-7.49206-10.48116-14.6609-16.0341-21.75289 6.48354-.97014 12.96168-3.54236 17.5378-8.3737 4.15309-4.36008 6.33589-10.37294 6.40165-16.35677.16471-8.08499-2.66054-15.90621-6.38829-22.96879-5.2861-9.93767-12.52827-18.69371-20.37755-26.70445-12.64161-12.80519-27.09432-23.68887-42.1705-33.45285-5.7937-3.69911-11.74836-7.18759-17.10034-11.52748-1.62472-1.28596-3.20088-2.63219-4.74262-4.01635-.33999-.32262-.96207-.89158-1.41015-1.30859-3.25511-3.08149-6.28186-6.40647-9.00391-9.96875-.22111-.29178-.68574-.92096-1-1.3418-.81791-1.11657-1.68952-2.39557-2.38672-3.46875-3.81264-5.91478-6.75558-12.38183-8.76172-19.125-.25394-.87665-.60948-2.12623-.82812-3.02344-1.98524-7.8887-2.71597-16.06161-2.50391-24.18359.0398-1.40023.10904-3.0313.21255-4.52009.11548-1.72659.27982-3.53158.45347-5.0971.70027-6.23254 1.89611-12.51893 3.38281-18.53515.40271-1.60461.82024-3.20551 1.26563-4.79883-2.94458 16.3824-2.9903 33.50247 1.54739 49.60385 3.09709 11.1651 8.48957 21.64786 15.54957 30.82095 1.95775 2.65509 3.91381 5.31142 5.86983 7.96778.23946-6.7484.39333-13.62631.81055-20.28907.15577-2.2998.30813-4.45268.53743-6.76472.73326-7.78072 1.8441-15.52437 3.28093-23.20598.34919-1.82538.74873-3.85414 1.14926-5.75127 3.78116-17.88571 9.33521-35.39521 16.48859-52.21692 4.00804-9.0571 8.23898-18.01364 12.38126-27.00987 9.25351-19.88059 18.36292-39.84431 26.40799-60.25054 7.48604-18.98332 14.10325-38.36415 18.65596-58.27511 2.0086-8.87547 3.57338-17.86062 4.44233-26.92207 3.29057 2.16429 6.78605 4.0322 9.82171 6.56484 6.30062 5.06614 11.83069 11.07899 18.58997 15.57307 6.6576 4.49024 14.33606 7.47399 22.30782 8.50758 12.32797 1.75691 25.11418-.17607 36.44503-5.31245 8.07739-3.52955 15.359-8.54601 22.81536-13.18324 3.6175-2.22003 7.36213-4.31505 11.44784-5.54043 6.91119-2.24884 13.54484-5.38474 19.63689-9.35187 4.06572-2.66954 7.86946-5.7526 11.24202-9.26141.0983.35808.19662.71615.29492 1.07422zm101.3125 270.40234c6.41164.0209 12.62668 2.00307 18.50586 4.41016.64447.26985 1.57947.67117 2.33594.99024 5.6784 2.66277 11.35777 5.47138 16.36126 9.29229 3.0723 2.39822 6.15411 5.3068 7.08991 9.24091.69592 3.10136-.21172 6.34782-1.63372 9.11323-2.17169 3.65914-5.34097 6.61654-8.64809 9.24423-5.76932 4.52515-12.33038 8.24684-19.50927 9.95086-4.69965 1.16511-9.95324.99435-14.18163-1.56835-5.09965-3.01646-8.48437-8.21434-10.68278-13.59502-3.38045-8.37261-4.34497-17.74955-2.55927-26.61175.72787-3.52767 2.51374-7.14903 5.84917-8.85403 2.15678-1.1744 4.63907-1.59602 7.07262-1.61277zm-392.36523 32.74024c6.95422-.0384 13.79222 2.35536 19.47323 6.30894 1.23858.83852 2.42798 1.74699 3.58927 2.68911.25158.20959.80791.66845 1.1765.98613 7.39845 6.46966 13.28401 14.45608 18.57181 22.68729 8.18595 12.88544 14.96329 26.59519 21.52708 40.35783 2.27323 4.75438 4.39067 9.59571 7.11914 14.11523 5.92488 10.02369 13.21244 19.14405 20.43639 28.2451 10.91356 13.6501 22.29011 27.06383 31.1411 42.19649 3.59466 6.25347 6.85623 12.80864 8.56187 19.8532.88336 3.62564 1.15959 7.39453.70712 11.10306-.59701 6.01463-1.96324 12.01114-4.66256 17.44862-1.71004 3.51332-3.96393 6.76624-6.70345 9.55587-.41741.42073-1.07725 1.07031-1.61328 1.55469-6.78538 6.14304-15.61126 9.54285-24.50863 11.2052-1.99608.37087-3.83018.62517-5.85137.83423-1.94354.198-3.92278.3197-5.79039.37463-9.26223.25682-18.62667-.94365-27.57618-3.0039-13.27184-3.0626-26.0067-8.1788-38.03682-14.523-12.33146-6.32922-25.75755-10.24541-39.34098-12.79484-14.47309-2.76915-29.1782-3.92631-43.79126-5.68816-7.34563-.94837-14.740936-1.982-21.804339-4.28844-4.586593-1.53718-9.275995-3.66283-12.272331-7.62279-2.738095-3.68793-3.350598-8.46836-3.257917-12.94242.115064-4.92123 1.027606-9.78735 2.214589-14.55246.120701-.46413.31991-1.24399.459041-1.73441 1.117322-4.22086 2.613458-8.32502 4.015568-12.45504 2.414312-7.94622 2.220508-16.40167 1.206841-24.56158-.956775-8.02605-2.648944-15.95122-3.394341-24.00483-.0613-.65507-.137288-1.63178-.189453-2.4082-.335328-5.67831-.337564-11.65759 2.14443-16.90776 2.471567-5.1093 6.479226-9.50401 11.50727-12.182 2.447789-1.36859 5.113463-2.50581 7.644352-3.46961 8.02101-3.00032 16.41073-5.17116 23.93413-9.36931 5.07995-2.74542 9.66497-6.39988 13.40609-10.80331 5.6936-6.51915 10.45625-13.76733 15.75765-20.59454 3.76568-4.71082 7.79339-9.41308 13.00521-12.57303 3.35632-2.05554 7.27257-3.0385 11.19462-3.03599zm363.76562 2.67578c1.76999 10.43106 5.58613 20.70345 12.18478 29.06463 4.84065 6.12772 11.43514 11.03989 19.02866 13.1126 7.95847 2.21537 16.45099 1.31786 24.28718-.96679 10.28058-2.9869 19.84072-8.1354 28.48844-14.39364 4.19225-3.06244 8.16609-6.44476 11.7004-10.2543 5.92737-.22398 11.97455-.58055 17.89501.46873 5.70561 1.04312 11.00811 3.99414 15.02373 8.16003 3.71993 4.04655 5.71896 9.30108 7.39789 14.44716 1.83364 5.82543 3.07531 11.60825 4.41408 17.54741 1.98695 8.86291 4.2082 17.87024 8.88194 25.75499 1.84097 3.12623 4.14979 5.94067 6.60722 8.59791 1.44431 1.6527 2.75061 3.19107 4.1216 4.88921 1.36986 1.69084 2.69303 3.41151 3.91336 5.06889 3.98314 5.43709 7.65997 11.24334 9.71381 17.70783 1.09543 3.55141 1.40511 7.57068-.30969 10.98466-2.02093 4.098-5.70431 7.0401-9.37386 9.606-7.96395 5.49596-16.83454 9.4524-25.50738 13.66713-14.94406 7.12516-29.90094 14.52962-43.19434 24.49767-7.79755 5.81445-14.93281 12.53049-21.08583 20.06936-10.77651 12.54792-23.80764 23.37136-38.80711 30.487-9.02058 4.249-18.7923 7.12001-28.79004 7.57336-1.19043.0572-2.63041.0765-3.91993.0508-8.90215-.14248-17.87196-2.47875-25.35235-7.39685-8.13698-5.24595-14.23197-13.17404-18.41432-21.81693-3.02847-6.20797-3.62024-13.27243-3.43068-20.08519.076-2.7987.30171-5.56434.61863-8.28916 1.98652-16.38382 6.97002-32.18436 11.61017-47.96079 3.23491-11.02302 6.49416-22.08255 8.37147-33.434.80291-4.81842 1.18499-9.6926 1.36487-14.57071.60758-11.48742 1.29856-23.04011 2.6069-34.45898.54332-4.59102 1.14598-9.02272 1.99568-13.57484 1.62014-8.47738 3.76875-16.9969 7.93108-24.62125 2.40931-4.46289 5.68203-8.50389 9.78254-11.51787.082.52865.16406 1.05729.24609 1.58594z" fill="#fff"/><path d="m413.6538-43.885882c-5.21516-.0096-10.65489.209315-16.32753.66159-143.36985 11.546426-105.34717 163.009272-107.47506 213.729312-2.61821 37.0912-10.13858 66.32159-35.64845 102.58276-29.97027 35.63998-72.16502 93.32376-92.15377 153.37057-9.43377 28.33951-13.92295 57.22507-9.7771 84.56334-1.2987 1.16299-2.53507 2.3815-3.71069 3.63655-8.79926 9.39401-15.30093 20.77622-22.54542 28.43963-6.76829 6.75151-16.41138 9.31957-27.008338 13.12148-10.601011 3.80362-22.240114 9.41125-29.305119 22.96844 0 0 0 .005-.0048.007-.01153.0225-.02411.0437-.03612.0666-6.3956 11.94556-4.494289 25.70181-2.541029 38.44671 1.953317 12.74475 3.930749 24.7881 1.305968 32.95903-8.38998 22.93199-9.461144 38.7945-3.55487 50.30059 5.918866 11.53004 18.088545 16.61924 31.842924 19.49201 27.508834 5.7455 64.763004 4.31771 94.123604 19.87912l2.52358-4.76164-2.49746 4.77583c31.43196 16.43348 63.29777 22.27051 88.72108 16.46363 18.43231-4.21004 33.39499-15.18545 41.0793-32.07399 19.88509-.0978 41.70549-8.51961 76.65906-10.4442 23.71253-1.91003 53.33366 8.42059 87.40527 6.5287.89062 3.69654 2.1796 7.25202 3.944 10.63061.018.0348.035.0692.0535.10345 13.20794 26.4114 37.74924 38.49201 63.90275 36.42795 26.188-2.06669 54.03113-17.50835 76.53804-44.293l-4.12607-3.46751 4.15761 3.42935c21.45245-26.01178 57.06-36.79786 80.67066-51.03831 11.80538-7.12042 21.38456-16.03623 22.12469-28.98585.73973-12.94311-6.85904-27.44794-24.33217-46.84376 0 0-.005-.005-.005-.005-.007-.009-.0137-.0161-.0204-.0241-5.74108-6.48783-8.47992-18.51237-11.4232-31.31741-2.94127-12.79725-6.22443-26.60189-16.73081-35.5481-.021-.0185-.0422-.0352-.0633-.0535-4.18139-3.64359-8.52658-6.1165-12.90241-7.77789 14.60718-43.32125 8.87598-86.45868-5.86907-125.43994-18.09629-47.84089-49.68978-89.52682-73.81825-118.04367-27.00789-34.06627-53.42398-66.40947-52.90361-114.1793.80447-72.907172 8.01953-208.111332-120.27511-208.286428zm17.36858 112.320623c7.28001 0 13.49762 2.133852 19.88447 6.769553 6.48829 4.709202 11.16263 10.604422 14.93004 18.836884 3.69759 8.023152 5.47664 15.871782 5.65107 25.185692 0 .24419 0 .45344.0697.69763.0697 9.55796-1.56972 17.68576-5.19761 25.98798-2.07006 4.7373-4.44735 8.71337-7.29275 12.15569-.96599-.46377-1.96925-.90968-3.00978-1.33756-7.21244-3.0891-12.74525-5.05497-17.35654-6.65506 1.67157-2.00927 3.06344-4.39226 4.28736-7.37124 1.84882-4.49989 2.75578-8.89527 2.93019-14.12769 0-.20935.0698-.38379.0698-.62796.1046-5.02309-.55814-9.31379-2.02322-13.7091-1.53486-4.60454-3.48834-7.9184-6.31386-10.67418-2.82554-2.75589-5.65107-4.011584-9.03478-4.116338-.15864-.0096-.3168-.0096-.47306-.0096-3.18281.0096-5.94651 1.101008-8.80584 3.494868-2.99994 2.51169-5.23246 5.72079-7.08132 10.18588-1.84879 4.465-2.75577 8.89514-2.93013 14.16257-.0351.20935-.0351.38379-.0351.59304-.0603 2.89536.12362 5.54776.57011 8.12338-6.5125-3.24509-12.64971-5.45748-18.40956-6.82838-.32833-2.4907-.51826-5.06094-.57889-7.74834v-.73263c-.10468-9.52314 1.46509-17.68575 5.12785-25.987887 3.66275-8.302245 8.19756-14.267323 14.58117-19.11607 6.38361-4.848738 12.66256-7.081238 20.09271-7.15101h.34774zm-99.64166 7.889045c4.8294.01145 9.15083 1.624854 13.62079 5.194362 4.84876 3.871933 8.5115 8.82533 11.58123 15.802012 3.06971 6.97667 4.70922 13.95325 5.16268 22.18572v.0693c.21981 3.45756.19293 6.71217-.0796 9.8642-.95516.27148-1.89117.56523-2.80808.8809-5.20733 1.79246-9.7965 4.23523-13.79631 6.87637.39112-2.76279.44934-5.56595.14934-8.69145-.0352-.17444-.0352-.31394-.0352-.48829-.41861-4.15112-1.29067-7.63942-2.75577-11.16265-1.56971-3.6626-3.3139-6.24404-5.61621-8.23244-2.08641-1.80185-4.05777-2.6293-6.22663-2.61291-.22438 0-.4513.0124-.6802.0314-2.44184.20913-4.46506 1.39515-6.38366 3.7324-1.91856 2.33715-3.17433 5.23248-4.0813 9.06954-.90697 3.83718-1.15116 7.60458-.76745 11.93004 0 .17434.0351.31403.0351.48836.41854 4.18604 1.25576 7.67427 2.75575 11.19759 1.53486 3.62783 3.31391 6.20915 5.61622 8.19746.38557.333.76701.63212 1.14674.89935-2.39474 1.84307-3.53823 2.69278-5.50061 4.13473-1.25862.92353-2.75763 2.02314-4.49991 3.30739-3.79955-3.55937-6.76364-8.03274-9.35527-13.92276-3.06972-6.97655-4.70924-13.95326-5.19761-22.18573v-.0693c-.45346-8.23236.34884-15.31369 2.61625-22.63913 2.26741-7.325523 5.30227-12.627687 9.69751-16.988217 4.39529-4.36034 8.82549-6.557954 14.16262-6.836939.41695-.02291.83019-.03332 1.23941-.03143zm45.31655 57.113524c11.22472-.0433 24.73218 3.63666 41.08476 14.15065 10.0445 6.53193 17.86033 7.07784 35.85774 14.78606l.0216.01.022.009c8.6593 3.55287 13.74186 8.18385 16.22506 13.06041 2.48315 4.87664 2.54388 10.16488.46544 15.72795-4.15672 11.12643-17.425 22.83576-36.04414 28.65006l-.0176.008-.0165.008c-9.0786 2.94963-16.99508 9.4634-26.32808 14.80026-9.33273 5.33659-19.89342 9.6409-34.25308 8.8102 0-.00007 0 0 0 0-12.22465-.7125-19.53208-4.86257-26.1395-10.17284-6.60761-5.31033-12.36554-11.98164-20.79693-16.93251l-.0216-.013-.022-.013c-13.58103-7.67626-20.99562-16.55463-23.32265-24.25146-2.32709-7.69686-.14319-14.26676 6.59509-19.31662 7.57574-5.67747 12.83828-9.53942 16.3438-12.11201 3.48245-2.55543 4.93131-3.51362 6.04029-4.57847.006-.009.0117-.0122.0175-.0173 0 0 .005-.009.005-.009 5.69223-5.38806 14.76608-15.20451 28.44393-19.91278 4.70763-1.62055 9.96064-2.66609 15.84025-2.68932zm78.49149 46.42197c-4.84383.28881-9.9169 2.78272-15.82383 6.08057-5.90699 3.29777-12.54959 7.5163-19.74829 11.67057-14.39737 8.30854-30.97057 16.25449-47.4411 16.25449-16.49612 0-29.67558-7.61859-39.56081-15.45215-4.94263-3.91679-9.02198-7.86202-12.28106-10.91405-1.62954-1.5261-3.04279-2.82674-4.3615-3.84264-1.31846-1.01589-2.39167-2.02321-4.59804-2.02321l-.10573 4.63619c-.15798 1.55131-.32031 1.50348-.25617 1.54576.10291.0676.61485.24409 1.2122.70422.96947.74684 2.31518 1.9643 3.91234 3.45997 3.19434 2.9914 7.43893 7.10425 12.66482 11.24548 10.45166 8.28238 24.98691 16.77988 43.37395 16.77988 18.41261 0 35.83311-8.60615 50.51087-17.07642 7.33882-4.23516 14.00414-8.46274 19.67195-11.62698 5.66752-3.16433 10.43602-5.14855 13.19671-5.31318zm16.36678 22.03414c12.22931 48.20748 40.67315 117.83748 58.95478 151.81819 9.71733 18.02848 29.04987 56.33272 37.40244 102.48244 5.29253-.16214 11.12018.60683 17.36092 2.20307 21.83839-56.61523-18.51868-117.59738-36.97294-134.5804-7.45053-7.22958-7.80865-10.46874-4.11511-10.31561 20.02212 17.70619 46.30676 53.31902 55.86978 93.51639 4.36058 18.3293 5.29026 37.5985.61156 56.61538 2.28908.95096 4.6139 1.98487 6.97007 3.10025 35.05467 17.06985 48.01909 31.91342 41.78569 52.17216-2.05306-.072-4.07258-.0639-6.04239-.0165-.18384.005-.3663.01-.54946.014 5.07631-16.05845-6.16941-27.90241-36.13566-41.4608-31.08095-13.6742-55.84799-12.31378-60.03395 15.41838-.26791 1.4529-.4834 2.9334-.64754 4.43452-2.32208.80636-4.6568 1.8359-6.99736 3.1166-14.59457 7.98572-22.56044 22.47561-26.99089 40.24755-4.42689 17.75756-5.696 39.2254-6.91777 63.35769v.0125c-.74649 12.13453-5.73541 28.54688-10.79526 45.93032-50.91537 36.31882-121.58105 52.05411-181.57889 11.1081-4.06607-6.43216-8.73037-12.80519-13.53147-19.09081-3.06591-4.01401-6.21536-8.00347-9.34651-11.93673 6.15909.005 11.39435-1.00386 15.6255-2.92242 5.26169-2.38587 8.95865-6.21802 10.78763-11.13759 3.65793-9.83929-.016-23.7194-11.72621-39.56967-11.70948-15.84918-31.54117-33.73646-60.68259-51.60847 0 0-.005 0-.005-.005-21.40893-13.31934-33.38207-29.64484-38.98627-47.37024-5.60474-17.72695-4.81889-36.89555-.49928-55.82076 8.29109-36.32625 29.59401-71.65643 43.18646-93.82814 3.65949-2.69263 1.30747 4.99808-13.76032 32.97879-13.50408 25.58224-38.75001 84.62032-4.1838 130.70514.92373-32.79629 8.75598-66.24444 21.90444-97.53121 19.15175-43.41285 59.21029-118.69606 62.39188-178.69784 1.64039 1.19115 7.27736 4.99456 9.78909 6.42295.005.008.0111.008.0161.009 7.34881 4.32758 12.86808 10.65354 20.01643 16.39843 7.16251 5.75628 16.11041 10.72814 29.62889 11.51583 15.77886.91305 27.80467-3.97416 37.65748-9.6082 9.83799-5.62549 17.69729-11.85124 25.14318-14.28142.0117-.008.0226-.008.0336-.0107 15.73384-4.92021 28.24389-13.62876 35.36281-23.78598zm99.93381 275.98704c6.37287-.0295 14.09279 2.09518 22.54327 5.87563 22.74381 10.49987 29.85997 19.49973 23.65079 32.72048-5.23245 9.97659-27.62749 25.84843-42.97609 21.66247-15.66252-4.04645-23.30196-26.61591-20.75552-43.67374 1.36405-11.58345 7.91576-16.53986 17.53755-16.58484zm-25.73289 31.17142c1.28565 20.85941 11.60602 42.13372 29.85781 46.73803 19.97321 5.26251 48.77045-11.87469 60.92896-25.8528 2.42438-.0971 4.79463-.21584 7.09654-.27141 10.66533-.25752 19.61062.3513 28.75032 8.34466l.0316.0271.0326.0271c7.02363 5.95057 10.3622 17.19592 13.2578 29.79353 2.89545 12.59766 5.2109 26.3179 13.89441 36.0921l.0129.014.0121.014c16.69426 18.52555 22.06033 31.0474 21.60357 39.03969-.45681 7.9925-6.2436 13.92585-16.9292 20.37065-21.36193 12.88434-59.21225 24.08827-83.38827 53.37242-20.99241 24.98213-46.59034 38.70272-69.13412 40.48196-22.54377 1.7791-41.99373-7.57744-53.4607-30.59262l-.0261-.0522-.0271-.0513c-7.11374-13.53232-4.15036-34.88817 1.84224-57.41439 5.99273-22.52638 14.60269-45.65605 15.75524-64.45553v-.0295-.0286c1.21925-24.08721 2.56746-45.1225 6.61366-61.35291 4.04615-16.23042 10.41733-27.22266 21.70607-33.39957.52569-.28761 1.04754-.55897 1.56645-.8154zm-366.58959 1.57412c1.6849.007 3.46796.14749 5.36766.43495 12.77836 1.93566 23.92156 10.87019 34.65749 25.43198 10.73602 14.56201 20.72566 34.44015 30.99484 56.49013l.0131.0271.0121.0261c8.25231 17.22375 25.66603 36.1625 40.42309 55.48274 14.757 19.32024 26.17797 38.71341 24.69071 53.55657l-.007.0645-.005.0643c-1.92392 25.31574-16.20438 39.09735-38.12629 44.10444-21.91538 5.00542-51.62501.0161-81.29959-15.49263-.009-.005-.0176-.009-.0261-.014-32.83022-17.38843-71.88647-15.66131-96.939878-20.89386-12.530108-2.61711-20.706053-6.55156-24.458561-13.86186-3.752764-7.31003-3.836518-20.06382 4.137967-41.80949l.03508-.096.03156-.097c3.943692-12.16487 1.025174-25.47508-.889521-37.96816-1.914695-12.49316-2.851052-23.85678 1.414952-31.77736l.01963-.0362.01944-.0371c5.461901-10.52828 13.47335-14.2919 23.416451-17.8591 9.94304-3.5674 21.73338-6.36903 31.04384-15.69962l.0481-.0492.0481-.0501c8.60716-9.08005 15.07246-20.4617 22.63917-28.53991 6.38442-6.81595 12.7735-11.33336 22.40376-11.40027h.33575z"/><path d="m544.67511 509.42203c-10.0634 4.23113-16.30301 14.37681-19.90096 24.29109-8.7247 25.36839-7.45231 52.64947-10.57254 78.88797-4.53879 27.69468-16.08033 53.94226-19.87578 81.8449-.3028 10.76998-1.84176 22.34073 3.40479 32.26464 7.99417 15.98689 23.41995 29.52613 41.8312 30.79866 25.83787 2.6139 50.73511-10.15426 69.13778-27.41957 13.8228-13.99522 26.76617-29.40179 44.15466-39.2056 19.15159-11.78751 40.80437-19.30927 59.31876-32.21947 6.89217-4.71596 11.49543-13.35529 8.95729-21.72491-4.03232-16.05133-17.4286-26.97055-25.75184-40.56001-9.35878-17.20794-8.04187-38.52355-19.13096-54.9746-8.70828-11.60778-24.81913-13.90401-38.31079-11.80481-5.11651 1.89116-8.14574 7.12109-12.83008 9.85313-14.45613 10.41796-32.42379 19.53927-50.56161 15.26609-15.31494-4.63006-23.47716-20.4166-26.63674-35.0512-1.43201-3.17002.046-7.42312-2.27564-10.09311-.29074-.15617-.63369-.18986-.95754-.1532z" fill="#ffd300"/><g fill="#fb0"><path d="m545.02764 509.37739c-21.09095 8.64496-23.01046 35.16219-26.41087 54.64098-3.12231 32.56625-6.38607 65.04723-16.67735 96.28065-5.4922 24.26411-15.50134 53.60619 1.71992 75.57305 11.01618 16.18734 31.04376 24.85292 50.37115 21.06891 37.22541-2.22463 59.66084-36.19017 86.76447-57.03641 23.31522-19.52408 55.43994-25.82596 77.10246-47.31453 10.19686-15.04249-4.68408-31.55916-12.92152-43.65451-18.87061-19.13033-15.49403-48.66874-30.96087-69.55734-9.42916-10.80227-27.0736-12.80255-39.78813-7.48245-16.92271 14.14016-39.23526 27.46049-61.9815 21.59565-15.54932-8.27635-24.57799-26.38365-25.64132-43.49763-.38717-.44564-.99316-.66383-1.57644-.61637z"/><path d="m178.82992 510.85201c-21.98012 1.49026-31.08312 25.74388-45.45508 38.95137-15.68046 16.39681-45.996812 14.28443-55.339555 37.29647-6.07535 24.4518 8.516046 49.95462-2.080743 73.81595-4.034529 14.11271-8.701381 35.71211 7.859755 43.81514 34.028393 12.48514 72.276793 8.15956 105.587433 23.65025 25.89746 11.54309 53.61203 23.71207 82.68807 18.46893 25.39148-1.74667 46.3197-25.84382 42.77663-51.40968-4.66389-28.0145-27.0576-48.49685-42.82894-70.749-27.46847-31.48048-35.90954-76.01152-67.89125-103.9064-7.05961-5.90702-15.92173-10.26242-25.31632-9.93303z"/><path d="m376.23952 132.51386c-12.73508-.004-24.93367 5.51551-34.49226 13.72135-6.22327 5.33503-12.05072 11.16147-18.87454 15.76378-5.7256 4.40385-11.88061 8.35022-17.06907 13.39675-4.61812 4.92478-5.28625 12.46804-2.68244 18.52606 3.29555 8.40294 10.31667 14.70129 17.56655 19.73916 6.9479 4.21641 13.65983 8.85716 19.55314 14.48577 7.62375 6.97026 16.23378 13.82766 26.74087 15.48994 7.14697 1.2682 14.54646.9137 21.67537-.29467 12.86908-2.6775 23.78031-10.37604 34.77384-17.13927 5.27183-3.47106 11.28651-5.40397 17.1307-7.63653 12.09605-5.07743 23.92402-13.05941 29.83709-25.15232 3.37066-6.64619 3.27213-15.1973-1.42461-21.20113-6.19133-8.19738-16.46837-11.36612-25.63733-14.96041-8.96525-3.35539-18.38296-5.89213-26.39991-11.32229-12.19032-7.61139-26.09058-13.55238-40.6974-13.41619zm77.99647 48.43693c.34876 1.35332.13429 2.82755.20273 4.2257-7.77455 1.73819-14.3439 6.58897-21.21955 10.3601-15.65318 9.17091-31.53765 19.09888-49.65812 22.41546-5.9382.96725-12.24954.97348-18.34745.64824-11.80751-1.38548-22.97401-6.57883-32.44474-13.70917-7.39356-5.25787-13.71146-11.81093-20.63688-17.62455.35234-1.43712-.0311-3.43822.38698-4.52552 4.53006 2.31246 7.68983 6.35539 11.59818 9.5619 8.95223 8.35838 19.0832 15.80212 30.83465 19.65161 5.68189 2.12534 11.75227 2.86421 17.79304 2.60633 10.41927.38729 20.52967-3.08014 29.95933-7.18067 15.02775-6.6516 28.53143-16.25298 43.10549-23.69219 2.66889-1.24476 5.48031-2.40834 8.42634-2.73724z"/></g><path d="m570.8793 477.08619c-7.04326-.19379-14.03749 4.12166-16.23409 10.96127-3.04017 9.19884-2.37642 19.3919.33527 28.59713 3.13795 9.75365 9.50196 20.04083 20.16303 22.495 11.12237 2.02086 22.16209-3.21812 30.99838-9.54895 7.02429-5.28052 14.55411-12.26753 14.54543-21.76119-.23409-8.77347-8.00373-14.62414-14.81167-18.82095-10.65877-6.09471-22.45797-11.86784-34.99635-11.92231z"/><path d="m375.3274 131.74691c-14.44311-.0653-27.7466 7.56086-38.04292 17.17934-9.86264 9.05679-21.21991 16.34775-31.266 25.20319-6.71264 5.85643-6.57917 16.40552-2.09475 23.55592 6.21297 10.94523 17.51102 17.24629 27.43444 24.31891 9.71919 7.34143 18.06413 17.1304 29.9781 21.0408 9.51121 3.20973 19.94303 2.68753 29.6434.64918 14.50233-3.79111 26.36236-13.58778 39.49304-20.16118 10.33536-4.12318 21.04987-8.15219 29.51674-15.67507 5.81951-5.26318 11.55339-11.71634 13.004-19.66954.63591-5.49639.71001-11.63359-3.15911-16.06357-7.49882-10.18719-20.53383-13.2908-31.69686-17.69848-8.20119-2.85523-16.32083-6.07463-23.54368-10.97644-11.93666-6.75756-25.27817-12.36278-39.2664-11.70306zm78.17729 50.28804c.0251 1.17625.51188 2.90706-1.2477 2.73729-12.70626 5.02953-23.96701 13.08263-36.02169 19.35147-13.25988 7.41286-27.68839 13.79577-43.12299 13.61096-14.88236.97269-29.07172-5.59923-40.76794-14.30953-6.54495-5.13522-12.70992-10.72965-18.97511-16.19673-.14623-1.77252-.30444-3.96622 1.60539-1.70812 11.48372 9.8128 22.485 21.01918 36.99389 26.28667 9.75837 4.25247 20.64035 4.03145 31.00423 2.87436 20.18345-3.93297 37.47906-15.8379 55.13585-25.69167 4.893-2.6383 9.99507-5.88101 15.39607-6.9547z" fill="#ff9c00"/></g></g><text font-size="4.9389" stroke-linejoin="round" x="5.675063" y="90.713326"><tspan x="5.675063" y="90.713326">user application</tspan></text></svg>