<svg width="16" height="16" viewBox="0 0 16 16" fill="none" xmlns="http://www.w3.org/2000/svg">
<path fill-rule="evenodd" clip-rule="evenodd" d="M12.6382 4.16944C12.6475 4.16808 12.6569 4.1667 12.6667 4.1667C13.3739 4.1667 14.0522 4.44766 14.5523 4.94775C15.0524 5.44785 15.3333 6.12613 15.3333 6.83337C15.3333 7.54061 15.0524 8.21889 14.5523 8.71899C14.0522 9.21909 13.3739 9.50004 12.6667 9.50004H8.66667V11.6138C9.23494 11.8147 9.68534 12.2651 9.8862 12.8334L12 12.8334C12 12.097 12.597 11.5 13.3333 11.5H14.6667C15.403 11.5 16 12.097 16 12.8334V14.1667C16 14.9031 15.403 15.5 14.6667 15.5H13.3333C12.597 15.5 12 14.9031 12 14.1667H9.8862C9.61164 14.9435 8.87081 15.5 8 15.5C7.12919 15.5 6.38836 14.9435 6.1138 14.1667H4C4 14.9031 3.40305 15.5 2.66667 15.5H1.33333C0.596954 15.5 0 14.9031 0 14.1667V12.8334C0 12.097 0.596954 11.5 1.33333 11.5H2.66667C3.40305 11.5 4 12.097 4 12.8334H6.1138C6.31466 12.2651 6.76506 11.8147 7.33333 11.6138V9.50004H3.33333C2.62609 9.50004 1.94781 9.21909 1.44772 8.71899C0.947618 8.21889 0.666667 7.54061 0.666667 6.83337C0.666667 6.12613 0.947618 5.44785 1.44772 4.94775C1.94781 4.44766 2.62609 4.1667 3.33333 4.1667C3.3431 4.1667 3.35248 4.16808 3.36178 4.16944C3.36962 4.17059 3.37741 4.17173 3.38533 4.17204C3.54374 3.061 4.09767 2.04441 4.9454 1.30897C5.79313 0.573539 6.87773 0.16864 8 0.16864C9.12228 0.16864 10.2069 0.573539 11.0546 1.30897C11.9023 2.04441 12.4563 3.061 12.6147 4.17204C12.6226 4.17173 12.6304 4.17059 12.6382 4.16944Z" fill="#8547FF"/>
</svg>
