<svg width="16" height="16" viewBox="0 0 16 16" fill="none" xmlns="http://www.w3.org/2000/svg">
<g clip-path="url(#clip0_10455_70816)">
<path d="M10.6673 5.33398H5.33398V10.6673H10.6673V5.33398Z" fill="#2F6FF0"/>
<path d="M16 6V4.66667H14V3.33333C14 2.97971 13.8595 2.64057 13.6095 2.39052C13.3594 2.14048 13.0203 2 12.6667 2H11.3333V0H10V2H8.66667V0H7.33333V2H6V0H4.66667V2H3.33333C2.97971 2 2.64057 2.14048 2.39052 2.39052C2.14048 2.64057 2 2.97971 2 3.33333V4.66667H0V6H2V7.33333H0V8.66667H2V10H0V11.3333H2V12.6667C2 13.0203 2.14048 13.3594 2.39052 13.6095C2.64057 13.8595 2.97971 14 3.33333 14H4.66667V16H6V14H7.33333V16H8.66667V14H10V16H11.3333V14H12.6667C13.0203 14 13.3594 13.8595 13.6095 13.6095C13.8595 13.3594 14 13.0203 14 12.6667V11.3333H16V10H14V8.66667H16V7.33333H14V6H16ZM12 12H4V4H12V12Z" fill="#2F6FF0"/>
</g>
<defs>
<clipPath id="clip0_10455_70816">
<rect width="16" height="16" fill="white"/>
</clipPath>
</defs>
</svg>
