<svg width="16" height="17" viewBox="0 0 16 17" fill="none" xmlns="http://www.w3.org/2000/svg">
<g clip-path="url(#clip0_698_3209)">
<path d="M14.5975 6.87199C14.4855 6.64399 14.2535 6.49999 13.9995 6.49999H8.74422L9.32822 1.23999C9.36155 0.94266 9.19222 0.659993 8.91488 0.547993C8.63688 0.43466 8.31888 0.52266 8.13688 0.759327L1.47022 9.42599C1.31555 9.62733 1.28822 9.89933 1.40088 10.1273C1.51355 10.356 1.74555 10.5 1.99955 10.5H7.25488L6.67088 15.76C6.63755 16.0573 6.80688 16.34 7.08422 16.452C7.16488 16.4847 7.24955 16.5 7.33288 16.5C7.53555 16.5 7.73288 16.4073 7.86155 16.24L14.5282 7.57333C14.6829 7.37199 14.7095 7.09999 14.5975 6.87199Z" fill="#8547FF"/>
</g>
<defs>
<clipPath id="clip0_698_3209">
<rect width="16" height="16" fill="white" transform="translate(0 0.5)"/>
</clipPath>
</defs>
</svg>
