<svg width="16" height="17" viewBox="0 0 16 17" fill="none" xmlns="http://www.w3.org/2000/svg">
<path d="M11.9997 12.5C10.6077 12.5 9.38301 13.212 8.66634 14.2907V11.1667H7.33301V16.5H7.99967H8.66634H9.33301C11.5423 16.5 13.333 14.7094 13.333 12.5H11.9997Z" fill="#038585"/>
<path d="M15.3333 0.5H0.666667C0.298667 0.5 0 0.798667 0 1.16667V9.16667C0 9.53467 0.298667 9.83333 0.666667 9.83333H15.3333C15.7013 9.83333 16 9.53467 16 9.16667V1.16667C16 0.798667 15.7013 0.5 15.3333 0.5ZM8 6.5C7.26333 6.5 6.66667 5.90333 6.66667 5.16667C6.66667 4.43 7.26333 3.83333 8 3.83333C8.73667 3.83333 9.33333 4.43 9.33333 5.16667C9.33333 5.90333 8.73667 6.5 8 6.5Z" fill="#038585"/>
</svg>
