<svg width="16" height="17" viewBox="0 0 16 17" fill="none" xmlns="http://www.w3.org/2000/svg">
<path d="M13.332 5.16675C13.1994 5.16675 13.0722 5.11407 12.9785 5.0203C12.8847 4.92653 12.832 4.79936 12.832 4.66675C12.832 4.40153 12.7267 4.14718 12.5391 3.95964C12.3516 3.7721 12.0972 3.66675 11.832 3.66675C11.6994 3.66675 11.5722 3.61407 11.4785 3.5203C11.3847 3.42653 11.332 3.29936 11.332 3.16675C11.332 3.03414 11.3847 2.90696 11.4785 2.81319C11.5722 2.71943 11.6994 2.66675 11.832 2.66675C12.0972 2.66675 12.3516 2.56139 12.5391 2.37385C12.7267 2.18632 12.832 1.93196 12.832 1.66675C12.832 1.53414 12.8847 1.40696 12.9785 1.31319C13.0722 1.21943 13.1994 1.16675 13.332 1.16675C13.4646 1.16675 13.5918 1.21943 13.6856 1.31319C13.7794 1.40696 13.832 1.53414 13.832 1.66675C13.832 1.93196 13.9374 2.18632 14.1249 2.37385C14.3125 2.56139 14.5668 2.66675 14.832 2.66675C14.9646 2.66675 15.0918 2.71943 15.1856 2.81319C15.2794 2.90696 15.332 3.03414 15.332 3.16675C15.332 3.29936 15.2794 3.42653 15.1856 3.5203C15.0918 3.61407 14.9646 3.66675 14.832 3.66675C14.5668 3.66675 14.3125 3.7721 14.1249 3.95964C13.9374 4.14718 13.832 4.40153 13.832 4.66675C13.832 4.79936 13.7794 4.92653 13.6856 5.0203C13.5918 5.11407 13.4646 5.16675 13.332 5.16675Z" fill="#B99AFF"/>
<path d="M2.66406 15.8334C2.53145 15.8334 2.40428 15.7807 2.31051 15.6869C2.21674 15.5932 2.16406 15.466 2.16406 15.3334C2.16406 15.0682 2.05871 14.8138 1.87117 14.6263C1.68363 14.4387 1.42928 14.3334 1.16406 14.3334C1.03145 14.3334 0.904277 14.2807 0.810509 14.1869C0.716741 14.0932 0.664063 13.966 0.664062 13.8334C0.664063 13.7008 0.716741 13.5736 0.810509 13.4798C0.904277 13.3861 1.03145 13.3334 1.16406 13.3334C1.42928 13.3334 1.68363 13.228 1.87117 13.0405C2.05871 12.8529 2.16406 12.5986 2.16406 12.3334C2.16406 12.2008 2.21674 12.0736 2.31051 11.9798C2.40428 11.8861 2.53145 11.8334 2.66406 11.8334C2.79667 11.8334 2.92385 11.8861 3.01762 11.9798C3.11138 12.0736 3.16406 12.2008 3.16406 12.3334C3.16406 12.5986 3.26942 12.8529 3.45696 13.0405C3.64449 13.228 3.89885 13.3334 4.16406 13.3334C4.29667 13.3334 4.42385 13.3861 4.51762 13.4798C4.61138 13.5736 4.66406 13.7008 4.66406 13.8334C4.66406 13.966 4.61138 14.0932 4.51762 14.1869C4.42385 14.2807 4.29667 14.3334 4.16406 14.3334C3.89885 14.3334 3.64449 14.4387 3.45696 14.6263C3.26942 14.8138 3.16406 15.0682 3.16406 15.3334C3.16406 15.466 3.11138 15.5932 3.01762 15.6869C2.92385 15.7807 2.79667 15.8334 2.66406 15.8334Z" fill="#B99AFF"/>
<path d="M11.332 15.8334C11.1552 15.8334 10.9857 15.7631 10.8606 15.6381C10.7356 15.5131 10.6654 15.3435 10.6654 15.1667C10.6654 14.4595 10.3844 13.7812 9.88432 13.2811C9.38422 12.781 8.70594 12.5 7.9987 12.5C7.82189 12.5 7.65232 12.4298 7.52729 12.3048C7.40227 12.1798 7.33203 12.0102 7.33203 11.8334C7.33203 11.6566 7.40227 11.487 7.52729 11.362C7.65232 11.2369 7.82189 11.1667 7.9987 11.1667C8.70594 11.1667 9.38422 10.8858 9.88432 10.3857C10.3844 9.88556 10.6654 9.20728 10.6654 8.50004C10.6654 8.32323 10.7356 8.15366 10.8606 8.02864C10.9857 7.90361 11.1552 7.83337 11.332 7.83337C11.5088 7.83337 11.6784 7.90361 11.8034 8.02864C11.9285 8.15366 11.9987 8.32323 11.9987 8.50004C11.9987 9.20728 12.2797 9.88556 12.7797 10.3857C13.2798 10.8858 13.9581 11.1667 14.6654 11.1667C14.8422 11.1667 15.0117 11.2369 15.1368 11.362C15.2618 11.487 15.332 11.6566 15.332 11.8334C15.332 12.0102 15.2618 12.1798 15.1368 12.3048C15.0117 12.4298 14.8422 12.5 14.6654 12.5C13.9581 12.5 13.2798 12.781 12.7797 13.2811C12.2797 13.7812 11.9987 14.4595 11.9987 15.1667C11.9987 15.3435 11.9285 15.5131 11.8034 15.6381C11.6784 15.7631 11.5088 15.8334 11.332 15.8334Z" fill="#B99AFF"/>
<path d="M4.66406 9.16675C4.48725 9.16675 4.31768 9.09651 4.19266 8.97149C4.06763 8.84646 3.9974 8.67689 3.9974 8.50008C3.9974 7.79284 3.71644 7.11456 3.21635 6.61446C2.71625 6.11437 2.03797 5.83342 1.33073 5.83342C1.15392 5.83342 0.984349 5.76318 0.859325 5.63815C0.7343 5.51313 0.664063 5.34356 0.664062 5.16675C0.664062 4.98994 0.7343 4.82037 0.859325 4.69534C0.984349 4.57032 1.15392 4.50008 1.33073 4.50008C2.03797 4.50008 2.71625 4.21913 3.21635 3.71903C3.71644 3.21894 3.9974 2.54066 3.9974 1.83341C3.9974 1.6566 4.06763 1.48703 4.19266 1.36201C4.31768 1.23699 4.48725 1.16675 4.66406 1.16675C4.84087 1.16675 5.01044 1.23699 5.13547 1.36201C5.26049 1.48703 5.33073 1.6566 5.33073 1.83341C5.33073 2.54066 5.61168 3.21894 6.11178 3.71903C6.61187 4.21913 7.29015 4.50008 7.9974 4.50008C8.17421 4.50008 8.34378 4.57032 8.4688 4.69534C8.59382 4.82037 8.66406 4.98994 8.66406 5.16675C8.66406 5.34356 8.59382 5.51313 8.4688 5.63815C8.34378 5.76318 8.17421 5.83342 7.9974 5.83342C7.29015 5.83342 6.61187 6.11437 6.11178 6.61446C5.61168 7.11456 5.33073 7.79284 5.33073 8.50008C5.33073 8.67689 5.26049 8.84646 5.13547 8.97149C5.01044 9.09651 4.84087 9.16675 4.66406 9.16675Z" fill="#B99AFF"/>
</svg>
