<svg width="302" height="168" viewBox="0 0 302 168" fill="none" xmlns="http://www.w3.org/2000/svg">
<path d="M194.007 149.138C194.007 156.731 178.316 160.78 155.032 158.756C133.773 156.907 119.094 142.649 119.094 139.015C119.094 135.381 147.944 133.953 166.674 133.953C185.404 133.953 194.007 141.546 194.007 149.138Z" fill="url(#paint0_linear_10451_70754)"/>
<path d="M157.473 44.9213L156.937 44.0508L155.867 44.0508L155.331 44.9213L155.867 45.7917L156.937 45.7917L157.473 44.9213Z" fill="#8547FF"/>
<path d="M118.93 102.953L118.394 102.082L117.324 102.082L116.788 102.953L117.324 103.823L118.394 103.823L118.93 102.953Z" fill="#8547FF"/>
<path d="M125.355 62.3275L124.82 61.457L123.75 61.457L123.214 62.3275L123.75 63.198L124.82 63.198L125.355 62.3275Z" fill="#8547FF"/>
<path d="M106.084 46.8548L105.549 45.9844L104.478 45.9844L103.943 46.8548L104.478 47.7253L105.549 47.7253L106.084 46.8548Z" fill="#8547FF"/>
<path d="M124.287 32.347L123.752 31.4766L122.681 31.4766L122.146 32.347L122.681 33.2175L123.752 33.2175L124.287 32.347Z" fill="#8547FF"/>
<path d="M101.803 71.0326L101.267 70.1621L100.197 70.1621L99.6615 71.0326L100.197 71.903L101.267 71.903L101.803 71.0326Z" fill="#8547FF"/>
<path d="M166.039 16.8705L165.504 16L164.433 16L163.898 16.8705L164.433 17.7409L165.504 17.7409L166.039 16.8705Z" fill="#8547FF"/>
<path d="M198.16 37.181L197.625 36.3105L196.554 36.3105L196.019 37.181L196.554 38.0515L197.625 38.0515L198.16 37.181Z" fill="#8547FF"/>
<path d="M206.723 90.3783L206.187 89.5078L205.117 89.5078L204.581 90.3783L205.117 91.2488L206.187 91.2488L206.723 90.3783Z" fill="#8547FF"/>
<path d="M185.311 113.591L184.775 112.721L183.705 112.721L183.169 113.591L183.705 114.462L184.775 114.462L185.311 113.591Z" fill="#8547FF"/>
<path d="M146.768 117.46L146.232 116.59L145.162 116.59L144.626 117.46L145.162 118.331L146.232 118.331L146.768 117.46Z" fill="#8547FF"/>
<path d="M189.594 95.2162L189.058 94.3457L187.988 94.3457L187.453 95.2162L187.988 96.0866L189.058 96.0866L189.594 95.2162Z" fill="#8547FF"/>
<path d="M161.756 97.1498L161.221 96.2793L160.15 96.2793L159.615 97.1498L160.15 98.0202L161.221 98.0202L161.756 97.1498Z" fill="#8547FF"/>
<path d="M196.018 57.4955L195.482 56.625L194.412 56.625L193.876 57.4955L194.412 58.3659L195.482 58.3659L196.018 57.4955Z" fill="#8547FF"/>
<path d="M108.227 113.591L107.691 112.721L106.621 112.721L106.085 113.591L106.621 114.462L107.691 114.462L108.227 113.591Z" fill="#2F6FF0"/>
<path d="M136.061 93.2826L135.525 92.4121L134.455 92.4121L133.919 93.2826L134.455 94.153L135.525 94.153L136.061 93.2826Z" fill="#2F6FF0"/>
<path d="M121.072 45.8861L120.537 45.0156L119.466 45.0156L118.931 45.8861L119.466 46.7566L120.537 46.7566L121.072 45.8861Z" fill="#2F6FF0"/>
<path d="M136.061 18.8041L135.525 17.9336L134.455 17.9336L133.919 18.8041L134.455 19.6745L135.525 19.6745L136.061 18.8041Z" fill="#2F6FF0"/>
<path d="M178.885 26.5404L178.349 25.6699L177.279 25.6699L176.744 26.5404L177.279 27.4109L178.349 27.4109L178.885 26.5404Z" fill="#2F6FF0"/>
<path d="M217.43 72.0033L216.894 71.1328L215.824 71.1328L215.288 72.0033L215.824 72.8738L216.894 72.8738L217.43 72.0033Z" fill="#2F6FF0"/>
<path d="M166.039 122.296L165.504 121.426L164.433 121.426L163.898 122.296L164.433 123.167L165.504 123.167L166.039 122.296Z" fill="#2F6FF0"/>
<path d="M131.779 115.525L131.244 114.654L130.173 114.654L129.638 115.525L130.173 116.395L131.244 116.395L131.779 115.525Z" fill="#2F6FF0"/>
<path d="M100.73 89.4095L100.195 88.5391L99.1245 88.5391L98.5892 89.4095L99.1245 90.28L100.195 90.28L100.73 89.4095Z" fill="#2F6FF0"/>
<path d="M166.039 32.347L165.504 31.4766L164.433 31.4766L163.898 32.347L164.433 33.2175L165.504 33.2175L166.039 32.347Z" fill="#2F6FF0"/>
<path d="M177.816 87.474L177.281 86.6035L176.21 86.6035L175.675 87.474L176.21 88.3445L177.281 88.3445L177.816 87.474Z" fill="#2F6FF0"/>
<path d="M173.533 104.886L172.998 104.016L171.927 104.016L171.392 104.886L171.927 105.757L172.998 105.757L173.533 104.886Z" fill="#DC244C"/>
<path d="M175.674 52.6576L175.139 51.7871L174.068 51.7871L173.533 52.6576L174.068 53.528L175.139 53.528L175.674 52.6576Z" fill="#DC244C"/>
<path d="M137.133 47.8197L136.598 46.9492L135.527 46.9492L134.992 47.8197L135.527 48.6902L136.598 48.6902L137.133 47.8197Z" fill="#DC244C"/>
<path d="M124.287 88.4447L123.752 87.5742L122.681 87.5742L122.146 88.4447L122.681 89.3152L123.752 89.3152L124.287 88.4447Z" fill="#DC244C"/>
<path d="M200.301 77.8041L199.765 76.9336L198.695 76.9336L198.16 77.8041L198.695 78.6745L199.765 78.6745L200.301 77.8041Z" fill="#DC244C"/>
<path d="M212.074 53.6263L211.539 52.7559L210.468 52.7559L209.933 53.6263L210.468 54.4968L211.539 54.4968L212.074 53.6263Z" fill="#DC244C"/>
<path d="M182.1 16.8705L181.564 16L180.494 16L179.958 16.8705L180.494 17.7409L181.564 17.7409L182.1 16.8705Z" fill="#DC244C"/>
<path d="M118.93 18.8041L118.394 17.9336L117.324 17.9336L116.788 18.8041L117.324 19.6745L118.394 19.6745L118.93 18.8041Z" fill="#DC244C"/>
<path d="M93.2402 58.4603L92.7049 57.5898L91.6343 57.5898L91.099 58.4603L91.6343 59.3308L92.7049 59.3308L93.2402 58.4603Z" fill="#DC244C"/>
<path d="M101.803 101.982L101.267 101.111L100.197 101.111L99.6615 101.982L100.197 102.852L101.267 102.852L101.803 101.982Z" fill="#DC244C"/>
<path d="M145.699 127.13L145.164 126.26L144.093 126.26L143.558 127.13L144.093 128.001L145.164 128.001L145.699 127.13Z" fill="#DC244C"/>
<path d="M141.416 33.3119L140.881 32.4414L139.81 32.4414L139.275 33.3119L139.81 34.1823L140.881 34.1823L141.416 33.3119Z" fill="#038585"/>
<path d="M158.545 108.753L158.01 107.883L156.939 107.883L156.404 108.753L156.939 109.624L158.01 109.624L158.545 108.753Z" fill="#038585"/>
<path d="M181.029 123.261L180.494 122.391L179.423 122.391L178.888 123.261L179.423 124.132L180.494 124.132L181.029 123.261Z" fill="#038585"/>
<path d="M149.98 19.7748L149.445 18.9043L148.375 18.9043L147.839 19.7748L148.375 20.6452L149.445 20.6452L149.98 19.7748Z" fill="#038585"/>
<path d="M198.16 109.724L197.625 108.854L196.554 108.854L196.019 109.724L196.554 110.594L197.625 110.594L198.16 109.724Z" fill="#038585"/>
<path d="M121.072 121.328L120.537 120.457L119.466 120.457L118.931 121.328L119.466 122.198L120.537 122.198L121.072 121.328Z" fill="#038585"/>
<path d="M111.439 79.7396L110.904 78.8691L109.834 78.8691L109.298 79.7396L109.834 80.6101L110.904 80.6101L111.439 79.7396Z" fill="#038585"/>
<path d="M87.8828 77.8041L87.3475 76.9336L86.2769 76.9336L85.7416 77.8041L86.2769 78.6745L87.3475 78.6745L87.8828 77.8041Z" fill="#038585"/>
<path d="M105.012 32.347L104.476 31.4766L103.406 31.4766L102.87 32.347L103.406 33.2175L104.476 33.2175L105.012 32.347Z" fill="#038585"/>
<path d="M183.17 72.9662L182.635 72.0957L181.564 72.0957L181.029 72.9662L181.564 73.8366L182.635 73.8366L183.17 72.9662Z" fill="#038585"/>
<path d="M141.416 104.886L140.881 104.016L139.81 104.016L139.275 104.886L139.81 105.757L140.881 105.757L141.416 104.886Z" fill="#038585"/>
<path d="M185.311 42.017L184.775 41.1465L183.705 41.1465L183.169 42.017L183.705 42.8874L184.775 42.8874L185.311 42.017Z" fill="#038585"/>
<path d="M111.439 61.3627L110.904 60.4922L109.834 60.4922L109.298 61.3627L109.834 62.2331L110.904 62.2331L111.439 61.3627Z" fill="#038585"/>
<path d="M151.416 120.459C141.379 120.459 125.898 118.527 119.094 112.027V139.782C119.094 147.687 135.765 152.079 151.416 152.079C167.067 152.079 183.738 147.687 183.738 139.782V112.027C176.934 118.527 161.453 120.459 151.416 120.459Z" fill="url(#paint1_linear_10451_70754)"/>
<path d="M151.416 92.3519C141.379 92.3519 125.898 90.4196 119.094 83.9199V111.675C119.094 119.58 135.765 123.972 151.416 123.972C167.067 123.972 183.738 119.58 183.738 111.675V83.9199C176.934 90.4196 161.453 92.3519 151.416 92.3519Z" fill="url(#paint2_linear_10451_70754)"/>
<path d="M151.416 71.2734C135.765 71.2734 119.094 75.6651 119.094 83.57C119.094 91.4749 135.765 95.8665 151.416 95.8665C167.067 95.8665 183.738 91.4749 183.738 83.57C183.738 75.6651 167.067 71.2734 151.416 71.2734Z" fill="url(#paint3_linear_10451_70754)"/>
<path d="M125.506 133.561H112.68C111.573 133.561 110.676 134.458 110.676 135.565V148.391C110.676 149.498 111.573 150.395 112.68 150.395H125.506C126.613 150.395 127.51 149.498 127.51 148.391V135.565C127.51 134.458 126.613 133.561 125.506 133.561Z" fill="#038585"/>
<path d="M123.376 138.429C123.239 138.292 123.017 138.292 122.88 138.429L117.517 143.793L115.31 141.585C115.172 141.448 114.95 141.448 114.814 141.585L114.318 142.081C114.181 142.219 114.181 142.441 114.318 142.577L117.269 145.528C117.406 145.665 117.628 145.665 117.765 145.528L123.872 139.421C124.009 139.284 124.009 139.062 123.872 138.925L123.376 138.429Z" fill="#F7F7F7"/>
<defs>
<linearGradient id="paint0_linear_10451_70754" x1="156.551" y1="133.953" x2="166.168" y2="163.817" gradientUnits="userSpaceOnUse">
<stop stop-color="#D4D9E6"/>
<stop offset="1" stop-color="#D4D9E6" stop-opacity="0"/>
</linearGradient>
<linearGradient id="paint1_linear_10451_70754" x1="151.416" y1="121.777" x2="151.416" y2="152.079" gradientUnits="userSpaceOnUse">
<stop stop-color="#2861D3"/>
<stop offset="1" stop-color="#7335F0"/>
</linearGradient>
<linearGradient id="paint2_linear_10451_70754" x1="151.416" y1="95.0088" x2="151.416" y2="123.972" gradientUnits="userSpaceOnUse">
<stop stop-color="#779CE6"/>
<stop offset="1" stop-color="#2567EB"/>
</linearGradient>
<linearGradient id="paint3_linear_10451_70754" x1="151.416" y1="71.2734" x2="151.416" y2="95.8665" gradientUnits="userSpaceOnUse">
<stop stop-color="#D0D0FB"/>
<stop offset="1" stop-color="#81A7F3"/>
</linearGradient>
</defs>
</svg>
