<svg width="730" height="238" viewBox="0 0 730 238" fill="none" xmlns="http://www.w3.org/2000/svg">
<g clip-path="url(#clip0_10455_72653)">
<path d="M183 119L287 119" stroke="#D4D9E6" stroke-width="1.35" stroke-dasharray="5.32 5.32"/>
<path d="M431 119L535 119" stroke="#D4D9E6" stroke-width="1.35" stroke-dasharray="5.32 5.32"/>
<circle cx="365" cy="101" r="299.325" stroke="#D4D9E6" stroke-width="1.35" stroke-dasharray="5.32 5.32"/>
<circle cx="366" cy="101" r="242.325" stroke="#D4D9E6" stroke-width="1.35" stroke-dasharray="5.32 5.32"/>
<circle cx="365" cy="101" r="183.325" stroke="#D4D9E6" stroke-width="1.35" stroke-dasharray="5.32 5.32"/>
<path d="M152.816 11.3512L119.499 16.0336C118.119 16.2276 117.157 17.5034 117.351 18.8835L121.097 45.537C121.291 46.9172 122.567 47.8786 123.947 47.6846L157.264 43.0022C158.644 42.8082 159.605 41.5324 159.411 40.1523L155.666 13.4988C155.472 12.1186 154.196 11.1572 152.816 11.3512Z" fill="#D4D9E6"/>
<path d="M130.417 27.2401C132.257 26.9815 133.539 25.2801 133.28 23.4401C133.021 21.6001 131.32 20.3181 129.48 20.5767C127.64 20.8353 126.358 22.5366 126.617 24.3766C126.875 26.2166 128.577 27.4986 130.417 27.2401Z" fill="#8F98B3"/>
<path d="M152.833 36.4121L143.464 24.1389C143.288 23.908 143.007 23.7853 142.718 23.8114C142.431 23.834 142.175 24.0118 142.045 24.2713L136.523 35.2525L131.629 31.5644C131.427 31.4135 131.176 31.3631 130.924 31.4189C130.679 31.4779 130.474 31.6444 130.365 31.8712L126.421 40.0698C126.287 40.3494 126.316 40.6799 126.499 40.9303C126.682 41.1806 126.988 41.31 127.296 41.2668L152.283 37.755C152.579 37.7135 152.831 37.5184 152.944 37.2417C153.057 36.965 153.016 36.6489 152.834 36.412L152.833 36.4121Z" fill="#8F98B3"/>
<path d="M137.369 92.2734L100.607 99.0558C99.0839 99.3367 98.0773 100.799 98.3583 102.322L103.784 131.731C104.065 133.254 105.527 134.261 107.05 133.98L143.812 127.197C145.335 126.916 146.342 125.454 146.061 123.932L140.635 94.5219C140.354 92.999 138.892 91.9924 137.369 92.2734Z" fill="#D9E2FE"/>
<path d="M113.255 110.975C115.286 110.6 116.628 108.651 116.253 106.621C115.879 104.59 113.929 103.248 111.899 103.623C109.869 103.997 108.526 105.947 108.901 107.977C109.275 110.007 111.225 111.35 113.255 110.975Z" fill="#2F6FF0"/>
<path d="M138.576 120.093L127.592 106.914C127.385 106.666 127.067 106.543 126.748 106.586C126.43 106.624 126.154 106.834 126.022 107.128L120.415 119.581L114.806 115.72C114.576 115.562 114.294 115.518 114.017 115.592C113.748 115.669 113.528 115.863 113.418 116.12L109.429 125.409C109.294 125.726 109.342 126.091 109.557 126.361C109.772 126.63 110.118 126.759 110.458 126.696L138.029 121.61C138.355 121.549 138.626 121.321 138.738 121.008C138.851 120.696 138.79 120.347 138.577 120.093L138.576 120.093Z" fill="#2F6FF0"/>
<path d="M135.556 103.057C139.616 102.308 142.301 98.4091 141.552 94.3485C140.802 90.2878 136.903 87.6033 132.843 88.3525C128.782 89.1017 126.098 93.0008 126.847 97.0614C127.596 101.122 131.495 103.807 135.556 103.057Z" fill="url(#paint0_linear_10455_72653)"/>
<path d="M135.049 100.304C134.626 100.382 134.221 100.102 134.143 99.6796C133.831 97.9904 132.203 96.8699 130.514 97.1816C130.091 97.2597 129.685 96.98 129.607 96.5572C129.529 96.1345 129.809 95.7284 130.232 95.6504C131.921 95.3388 133.041 93.7113 132.73 92.0221C132.652 91.5984 132.931 91.1933 133.354 91.1153C133.777 91.0373 134.183 91.3168 134.261 91.7396C134.573 93.4288 136.2 94.5493 137.889 94.2377C138.313 94.1595 138.718 94.4392 138.796 94.862C138.874 95.2847 138.595 95.6908 138.172 95.7688C136.483 96.0804 135.362 97.7079 135.674 99.3971C135.752 99.8208 135.472 100.226 135.049 100.304Z" fill="#FFDADB"/>
<path d="M153.617 174.614L122.238 186.752C120.938 187.255 120.292 188.716 120.795 190.016L130.505 215.118C131.008 216.418 132.469 217.064 133.769 216.562L165.147 204.424C166.447 203.921 167.093 202.46 166.59 201.16L156.881 176.058C156.378 174.758 154.917 174.112 153.617 174.614Z" fill="#D4D9E6"/>
<path d="M135.419 195.181C137.152 194.511 138.013 192.562 137.343 190.83C136.673 189.097 134.724 188.235 132.991 188.905C131.258 189.576 130.397 191.524 131.067 193.257C131.738 194.99 133.686 195.851 135.419 195.181Z" fill="#8F98B3"/>
<path d="M159.331 199.018L147.416 189.197C147.192 189.013 146.89 188.957 146.615 189.048C146.341 189.136 146.132 189.367 146.064 189.649L143.185 201.599L137.58 199.12C137.349 199.019 137.093 199.027 136.86 199.139C136.635 199.252 136.473 199.461 136.418 199.706L134.443 208.587C134.376 208.89 134.48 209.205 134.715 209.407C134.95 209.609 135.277 209.666 135.567 209.554L159.101 200.451C159.379 200.343 159.58 200.096 159.628 199.801C159.675 199.506 159.563 199.207 159.332 199.018L159.331 199.018Z" fill="#8F98B3"/>
<path fill-rule="evenodd" clip-rule="evenodd" d="M434.25 78.998L364.963 118.999L364.968 198.999L434.25 158.998V78.998Z" stroke="#E1E5F0" stroke-miterlimit="2.61313"/>
<path fill-rule="evenodd" clip-rule="evenodd" d="M295.68 79.002L364.966 119.003L364.962 199.003L295.68 159.002V79.002Z" stroke="#E1E5F0" stroke-miterlimit="2.61313"/>
<path fill-rule="evenodd" clip-rule="evenodd" d="M434.235 79.0001L364.962 119L295.672 79.0001L364.953 39L434.235 79.0001Z" stroke="#E1E5F0" stroke-miterlimit="2.61313"/>
<path d="M321.23 82.1786L320.569 81.1035L319.247 81.1035L318.586 82.1786L319.247 83.2536L320.569 83.2536L321.23 82.1786Z" fill="#DC244C"/>
<path fill-rule="evenodd" clip-rule="evenodd" d="M400.023 100.287L364.968 120.525L364.971 161.001L400.023 140.763V100.287Z" fill="url(#paint1_linear_10455_72653)"/>
<path fill-rule="evenodd" clip-rule="evenodd" d="M329.91 100.287L364.965 120.525L364.963 161.001L329.91 140.763V100.287Z" fill="url(#paint2_linear_10455_72653)"/>
<path fill-rule="evenodd" clip-rule="evenodd" d="M400.016 100.287L364.967 120.524L329.91 100.287L364.962 80.0488L400.016 100.287Z" fill="url(#paint3_linear_10455_72653)"/>
<g clip-path="url(#clip1_10455_72653)">
<path d="M364.966 102.311L349.191 111.418V129.632L364.966 138.739L370.881 135.323V128.493L364.966 131.908L355.107 126.216V114.833L364.966 109.141L374.824 114.833V137.6L380.74 134.185V111.418L364.966 102.311Z" fill="white"/>
<path d="M359.051 117.109V123.94L364.966 127.355L370.881 123.94V117.109L364.966 113.694L359.051 117.109Z" fill="white"/>
</g>
<path d="M325.215 157.925L324.554 156.85L323.231 156.85L322.57 157.925L323.231 159L324.554 159L325.215 157.925Z" fill="#8547FF"/>
<path d="M309.344 88.6454L308.683 87.5703L307.36 87.5703L306.699 88.6454L307.36 89.7204L308.683 89.7204L309.344 88.6454Z" fill="#8547FF"/>
<path d="M329.539 68.4364L328.878 67.3613L327.556 67.3613L326.895 68.4364L327.556 69.5114L328.878 69.5114L329.539 68.4364Z" fill="#8547FF"/>
<path d="M304.059 118.505L303.397 117.43L302.075 117.43L301.414 118.505L302.075 119.58L303.397 119.58L304.059 118.505Z" fill="#8547FF"/>
<path d="M383.398 51.6083L382.737 50.5332L381.415 50.5332L380.754 51.6083L381.415 52.6833L382.737 52.6833L383.398 51.6083Z" fill="#8547FF"/>
<path d="M423.062 76.6942L422.401 75.6191L421.079 75.6191L420.418 76.6942L421.079 77.7692L422.401 77.7692L423.062 76.6942Z" fill="#8547FF"/>
<path d="M433.648 142.395L432.987 141.32L431.665 141.32L431.004 142.395L431.665 143.47L432.987 143.47L433.648 142.395Z" fill="#8547FF"/>
<path d="M398.031 171.065L397.37 169.99L396.048 169.99L395.387 171.065L396.048 172.14L397.37 172.14L398.031 171.065Z" fill="#8547FF"/>
<path d="M412.484 148.366L411.823 147.291L410.501 147.291L409.84 148.366L410.501 149.441L411.823 149.441L412.484 148.366Z" fill="#8547FF"/>
<path d="M420.422 101.786L419.761 100.711L418.438 100.711L417.777 101.786L418.438 102.861L419.761 102.861L420.422 101.786Z" fill="#8547FF"/>
<path d="M341.789 155.145L341.128 154.07L339.806 154.07L339.145 155.145L339.806 156.22L341.128 156.22L341.789 155.145Z" fill="#2F6FF0"/>
<path d="M337.016 87.4442L336.354 86.3691L335.032 86.3691L334.371 87.4442L335.032 88.5192L336.354 88.5192L337.016 87.4442Z" fill="#2F6FF0"/>
<path d="M346.371 53.9989L345.71 52.9238L344.388 52.9238L343.727 53.9989L344.388 55.0739L345.71 55.0739L346.371 53.9989Z" fill="#2F6FF0"/>
<path d="M399.262 63.5516L398.601 62.4766L397.278 62.4766L396.617 63.5516L397.278 64.6267L398.601 64.6267L399.262 63.5516Z" fill="#2F6FF0"/>
<path d="M376.523 181.815L375.862 180.74L374.54 180.74L373.879 181.815L374.54 182.89L375.862 182.89L376.523 181.815Z" fill="#2F6FF0"/>
<path d="M336.5 173.452L335.839 172.377L334.517 172.377L333.855 173.452L334.517 174.527L335.839 174.527L336.5 173.452Z" fill="#2F6FF0"/>
<path d="M302.734 141.2L302.073 140.125L300.751 140.125L300.09 141.2L300.751 142.275L302.073 142.275L302.734 141.2Z" fill="#2F6FF0"/>
<path d="M383.398 70.7254L382.737 69.6504L381.415 69.6504L380.754 70.7254L381.415 71.8005L382.737 71.8005L383.398 70.7254Z" fill="#2F6FF0"/>
<path d="M392.648 160.315L391.987 159.24L390.665 159.24L390.004 160.315L390.665 161.39L391.987 161.39L392.648 160.315Z" fill="#DC244C"/>
<path d="M392.996 84.3583L392.335 83.2832L391.013 83.2832L390.352 84.3583L391.013 85.4333L392.335 85.4333L392.996 84.3583Z" fill="#DC244C"/>
<path d="M322.668 144.589L322.007 143.514L320.685 143.514L320.023 144.589L320.685 145.664L322.007 145.664L322.668 144.589Z" fill="#DC244C"/>
<path d="M425.703 126.866L425.042 125.791L423.72 125.791L423.059 126.866L423.72 127.941L425.042 127.941L425.703 126.866Z" fill="#DC244C"/>
<path d="M308.641 156.729L307.979 155.654L306.657 155.654L305.996 156.729L306.657 157.804L307.979 157.804L308.641 156.729Z" fill="#DC244C"/>
<path d="M358.273 187.788L357.612 186.713L356.29 186.713L355.629 187.788L356.29 188.863L357.612 188.863L358.273 187.788Z" fill="#DC244C"/>
<path d="M352.98 71.9169L352.319 70.8418L350.997 70.8418L350.336 71.9169L350.997 72.9919L352.319 72.9919L352.98 71.9169Z" fill="#038585"/>
<path d="M374.137 165.091L373.476 164.016L372.153 164.016L371.492 165.091L372.153 166.166L373.476 166.166L374.137 165.091Z" fill="#038585"/>
<path d="M363.559 55.1981L362.897 54.123L361.575 54.123L360.914 55.1981L361.575 56.2732L362.897 56.2732L363.559 55.1981Z" fill="#038585"/>
<path d="M315.961 129.255L315.3 128.18L313.978 128.18L313.316 129.255L313.978 130.33L315.3 130.33L315.961 129.255Z" fill="#038585"/>
<path d="M409.133 123.179L408.472 122.104L407.149 122.104L406.488 123.179L407.149 124.254L408.472 124.254L409.133 123.179Z" fill="#038585"/>
<path d="M355.273 167.184L354.612 166.109L353.29 166.109L352.629 167.184L353.29 168.259L354.612 168.259L355.273 167.184Z" fill="#038585"/>
<path d="M411.281 84.6844L410.62 83.6094L409.298 83.6094L408.637 84.6844L409.298 85.7595L410.62 85.7595L411.281 84.6844Z" fill="#038585"/>
<path d="M315.961 106.559L315.3 105.484L313.978 105.484L313.316 106.559L313.978 107.634L315.3 107.634L315.961 106.559Z" fill="#038585"/>
<g clip-path="url(#clip2_10455_72653)">
<g opacity="0.9" filter="url(#filter0_f_10455_72653)">
<ellipse cx="604" cy="107" rx="48" ry="71" fill="#F0F3FA"/>
</g>
<path d="M605.121 165.042C620.475 165.042 632.922 163.14 632.922 160.794C632.922 158.448 620.475 156.547 605.121 156.547C589.767 156.547 577.32 158.448 577.32 160.794C577.32 163.14 589.767 165.042 605.121 165.042Z" fill="url(#paint4_linear_10455_72653)"/>
<path d="M622.118 110.406C622.282 112.645 623.876 112.818 625.661 117.065C627.942 122.492 628.502 127.763 629.726 133.561C631.252 140.795 635.533 141.309 637.453 140.916C640.914 140.205 642.508 136.066 641.569 131.616C638.103 115.195 631.535 107.429 625.192 107.489C624.01 107.5 621.959 108.225 622.118 110.406Z" fill="url(#paint5_linear_10455_72653)"/>
<path d="M588.564 110.47C588.4 112.709 586.805 112.882 585.021 117.129C583.117 121.659 582.412 126.08 581.519 130.791C581.343 131.723 581.158 132.667 580.956 133.625C579.43 140.859 575.149 141.373 573.229 140.979C569.769 140.268 568.174 136.13 569.113 131.68C572.205 117.032 577.766 109.27 583.433 107.808C584.119 107.632 584.806 107.546 585.491 107.553C586.673 107.564 588.724 108.289 588.564 110.471L588.564 110.47Z" fill="url(#paint6_linear_10455_72653)"/>
<path d="M628.963 116.475C628.963 120.479 628.591 124.145 627.901 127.457C627.831 127.795 627.757 128.129 627.68 128.459C624.525 142.014 615.898 149.354 605.751 149.354C595.604 149.354 586.978 142.014 583.822 128.459C583.745 128.129 583.67 127.795 583.602 127.457C582.911 124.145 582.539 120.479 582.539 116.475C582.539 107.569 591.854 101.861 605.751 101.861C619.648 101.861 628.963 107.569 628.963 116.475Z" fill="url(#paint7_linear_10455_72653)"/>
<path d="M596.312 99.0996V104.677C596.312 107.634 600.54 110.031 605.755 110.031C610.97 110.031 615.198 107.634 615.198 104.677V99.0996H596.312Z" fill="url(#paint8_linear_10455_72653)"/>
<path d="M619.404 129.954C622.682 129.213 625.8 128.201 627.899 127.457C627.83 127.795 627.756 128.129 627.679 128.459C625.46 129.23 622.326 130.219 619.08 130.918L619.404 129.954Z" fill="url(#paint9_linear_10455_72653)" fill-opacity="0.8"/>
<path d="M619.403 129.954C619.3 130.278 619.192 130.599 619.078 130.918C618.367 131.073 617.65 131.212 616.936 131.333V133.944L616.596 134.022C616.546 134.033 611.621 135.141 605.748 135.141C599.874 135.141 594.949 134.033 594.899 134.022L594.56 133.944V131.333C590.588 130.662 586.524 129.4 583.818 128.459C583.741 128.129 583.667 127.795 583.598 127.457C586.327 128.424 590.78 129.846 595.065 130.531L595.433 130.589V133.241C596.631 133.485 600.853 134.268 605.748 134.268C610.642 134.268 614.865 133.486 616.062 133.241V130.589L616.43 130.531C617.42 130.372 618.419 130.176 619.403 129.954Z" fill="url(#paint10_linear_10455_72653)" fill-opacity="0.8"/>
<path d="M615.422 67.5299C615.422 71.4699 610.951 74.6633 605.436 74.6633C599.92 74.6633 595.449 71.4694 595.449 67.5299C595.449 63.5904 595.45 60.3965 605.436 60.3965C615.423 60.3965 615.423 63.5904 615.423 67.5299H615.422Z" fill="url(#paint11_linear_10455_72653)" fill-opacity="0.8"/>
<path d="M631.824 89.6433L633.324 89.4246C635.744 89.0715 637.531 87.0977 637.531 84.7769V80.2433C637.531 77.9225 635.745 75.9487 633.324 75.5956L631.824 75.377V89.6438V89.6433Z" fill="url(#paint12_linear_10455_72653)" fill-opacity="0.8"/>
<path d="M578.332 89.6433L576.832 89.4246C574.412 89.0715 572.625 87.0977 572.625 84.7769V80.2433C572.625 77.9225 574.411 75.9487 576.832 75.5956L578.332 75.377V89.6438V89.6433Z" fill="url(#paint13_linear_10455_72653)" fill-opacity="0.8"/>
<path d="M578.332 90.5621C578.332 93.9098 580.174 96.9902 583.133 98.5825C586.894 100.607 593.58 102.483 605.439 102.483C617.299 102.483 623.984 100.607 627.745 98.5825C630.704 96.9902 632.546 93.9093 632.546 90.5621V75.8841C632.546 72.5364 630.704 69.4561 627.745 67.8637C623.984 65.8394 617.298 63.9629 605.439 63.9629C593.579 63.9629 586.894 65.8394 583.133 67.8637C580.174 69.4561 578.332 72.5369 578.332 75.8841V90.5621Z" fill="url(#paint14_linear_10455_72653)"/>
<path d="M605.453 99.6279C593.599 99.6279 587.515 97.7034 584.498 96.0888C582.463 95 581.199 92.8992 581.199 90.6064V79.4023C581.199 77.1095 582.464 75.0087 584.498 73.9199C587.515 72.3053 593.6 70.3809 605.453 70.3809C617.305 70.3809 623.39 72.3053 626.408 73.9199C628.443 75.0087 629.706 77.1095 629.706 79.4023V90.6064C629.706 92.8992 628.442 95 626.408 96.0888C623.391 97.7034 617.306 99.6279 605.453 99.6279Z" fill="url(#paint15_linear_10455_72653)"/>
<path d="M597.602 85.1355C597.602 87.7702 595.526 86.4591 592.965 86.4591C590.404 86.4591 588.328 87.7702 588.328 85.1355C588.328 82.5008 590.404 80.3652 592.965 80.3652C595.526 80.3652 597.602 82.5008 597.602 85.1355Z" fill="url(#paint16_linear_10455_72653)" fill-opacity="0.8"/>
<path d="M617.941 86.4593C618.534 86.4593 619.1 86.5293 619.621 86.6044C621.351 86.8546 622.578 87.1599 622.578 85.135C622.541 83.5977 621.563 80.4915 617.941 80.3652C615.38 80.3652 613.305 82.5014 613.305 85.1356C613.305 87.7699 615.38 86.4593 617.941 86.4593Z" fill="url(#paint17_linear_10455_72653)" fill-opacity="0.8"/>
<path d="M609.01 91.4248C609.01 92.1143 608.65 92.7384 608.07 93.1902C607.489 93.6421 606.686 93.9217 605.8 93.9217C604.027 93.9217 602.59 92.8039 602.59 91.4248C602.59 91.3266 602.641 91.237 602.724 91.1727C602.807 91.1081 602.922 91.0684 603.048 91.0684H608.551C608.804 91.0684 609.01 91.228 609.01 91.4252V91.4248Z" fill="url(#paint18_linear_10455_72653)" fill-opacity="0.8"/>
<path d="M676.442 55.4023H651.151C647.892 55.4023 645.25 57.8602 645.25 60.8922V85.2208C645.25 86.4865 646.32 87.146 647.786 86.5745L655.823 83.6359H676.442C679.702 83.6359 682.344 81.178 682.344 78.1461V60.8922C682.344 57.8602 679.702 55.4023 676.442 55.4023Z" fill="url(#paint19_linear_10455_72653)" fill-opacity="0.8"/>
<rect x="650.957" y="73.9512" width="18.5469" height="2.85337" rx="1.42668" fill="url(#paint20_linear_10455_72653)"/>
<rect x="650.957" y="68.2461" width="25.6803" height="2.85337" rx="1.42668" fill="url(#paint21_linear_10455_72653)"/>
<rect x="650.957" y="62.5391" width="25.6803" height="2.85337" rx="1.42668" fill="url(#paint22_linear_10455_72653)"/>
</g>
<rect width="730" height="32" transform="matrix(1 0 0 -1 0 32)" fill="url(#paint23_linear_10455_72653)"/>
<rect y="206" width="730" height="32" fill="url(#paint24_linear_10455_72653)"/>
</g>
<defs>
<filter id="filter0_f_10455_72653" x="553" y="33" width="102" height="148" filterUnits="userSpaceOnUse" color-interpolation-filters="sRGB">
<feFlood flood-opacity="0" result="BackgroundImageFix"/>
<feBlend mode="normal" in="SourceGraphic" in2="BackgroundImageFix" result="shape"/>
<feGaussianBlur stdDeviation="1.5" result="effect1_foregroundBlur_10455_72653"/>
</filter>
<linearGradient id="paint0_linear_10455_72653" x1="132.843" y1="88.3525" x2="135.556" y2="103.057" gradientUnits="userSpaceOnUse">
<stop stop-color="#DC244C"/>
<stop offset="1" stop-color="#BE003A"/>
</linearGradient>
<linearGradient id="paint1_linear_10455_72653" x1="367.409" y1="119.077" x2="388.718" y2="155.045" gradientUnits="userSpaceOnUse">
<stop stop-color="#91012A"/>
<stop offset="0.868356" stop-color="#DC244C"/>
</linearGradient>
<linearGradient id="paint2_linear_10455_72653" x1="362.524" y1="119.077" x2="344.685" y2="148.684" gradientUnits="userSpaceOnUse">
<stop stop-color="#DC244C"/>
<stop offset="0.868356" stop-color="#DC244C"/>
</linearGradient>
<linearGradient id="paint3_linear_10455_72653" x1="352.443" y1="73.1951" x2="371.401" y2="76.119" gradientUnits="userSpaceOnUse">
<stop stop-color="#FF516B"/>
<stop offset="1" stop-color="#DC244C"/>
</linearGradient>
<linearGradient id="paint4_linear_10455_72653" x1="577" y1="161" x2="636.024" y2="184.317" gradientUnits="userSpaceOnUse">
<stop stop-color="#D4D9E6"/>
<stop offset="1" stop-color="#D4D9E6" stop-opacity="0"/>
</linearGradient>
<linearGradient id="paint5_linear_10455_72653" x1="631.972" y1="107.488" x2="631.972" y2="141.012" gradientUnits="userSpaceOnUse">
<stop stop-color="#D0D0FB"/>
<stop offset="1" stop-color="#81A7F3"/>
</linearGradient>
<linearGradient id="paint6_linear_10455_72653" x1="578.71" y1="107.553" x2="578.71" y2="141.076" gradientUnits="userSpaceOnUse">
<stop stop-color="#D0D0FB"/>
<stop offset="1" stop-color="#81A7F3"/>
</linearGradient>
<linearGradient id="paint7_linear_10455_72653" x1="605.755" y1="115.01" x2="605.755" y2="149.354" gradientUnits="userSpaceOnUse">
<stop stop-color="#2567EB"/>
<stop offset="1" stop-color="#779CE6"/>
</linearGradient>
<linearGradient id="paint8_linear_10455_72653" x1="605.755" y1="99.0996" x2="605.755" y2="110.031" gradientUnits="userSpaceOnUse">
<stop stop-color="#81A7F3"/>
<stop offset="1" stop-color="#D0D0FB"/>
</linearGradient>
<linearGradient id="paint9_linear_10455_72653" x1="606.705" y1="127.822" x2="606.517" y2="132.136" gradientUnits="userSpaceOnUse">
<stop stop-color="#2861D3"/>
<stop offset="1" stop-color="#7335F0"/>
</linearGradient>
<linearGradient id="paint10_linear_10455_72653" x1="606.705" y1="127.822" x2="606.517" y2="132.136" gradientUnits="userSpaceOnUse">
<stop stop-color="#2861D3"/>
<stop offset="1" stop-color="#7335F0"/>
</linearGradient>
<linearGradient id="paint11_linear_10455_72653" x1="605.867" y1="61.0736" x2="604.467" y2="68.8464" gradientUnits="userSpaceOnUse">
<stop stop-color="#2861D3"/>
<stop offset="1" stop-color="#7335F0"/>
</linearGradient>
<linearGradient id="paint12_linear_10455_72653" x1="634.801" y1="76.0541" x2="631.18" y2="81.7965" gradientUnits="userSpaceOnUse">
<stop stop-color="#2861D3"/>
<stop offset="1" stop-color="#7335F0"/>
</linearGradient>
<linearGradient id="paint13_linear_10455_72653" x1="575.602" y1="76.0541" x2="571.981" y2="81.7965" gradientUnits="userSpaceOnUse">
<stop stop-color="#2861D3"/>
<stop offset="1" stop-color="#7335F0"/>
</linearGradient>
<linearGradient id="paint14_linear_10455_72653" x1="605.439" y1="74.6279" x2="605.439" y2="102.483" gradientUnits="userSpaceOnUse">
<stop stop-color="#779CE6"/>
<stop offset="1" stop-color="#2567EB"/>
</linearGradient>
<linearGradient id="paint15_linear_10455_72653" x1="605.453" y1="70.3809" x2="605.453" y2="99.6279" gradientUnits="userSpaceOnUse">
<stop stop-color="#D0D0FB"/>
<stop offset="1" stop-color="#81A7F3"/>
</linearGradient>
<linearGradient id="paint16_linear_10455_72653" x1="593.165" y1="80.6699" x2="592.553" y2="84.1744" gradientUnits="userSpaceOnUse">
<stop stop-color="#2861D3"/>
<stop offset="1" stop-color="#7335F0"/>
</linearGradient>
<linearGradient id="paint17_linear_10455_72653" x1="618.142" y1="80.6699" x2="617.53" y2="84.1744" gradientUnits="userSpaceOnUse">
<stop stop-color="#2861D3"/>
<stop offset="1" stop-color="#7335F0"/>
</linearGradient>
<linearGradient id="paint18_linear_10455_72653" x1="605.939" y1="91.2038" x2="605.761" y2="92.7889" gradientUnits="userSpaceOnUse">
<stop stop-color="#2861D3"/>
<stop offset="1" stop-color="#7335F0"/>
</linearGradient>
<linearGradient id="paint19_linear_10455_72653" x1="664.598" y1="56.8917" x2="660.996" y2="73.7741" gradientUnits="userSpaceOnUse">
<stop stop-color="#2861D3"/>
<stop offset="1" stop-color="#7335F0"/>
</linearGradient>
<linearGradient id="paint20_linear_10455_72653" x1="660.23" y1="73.9512" x2="660.23" y2="76.8045" gradientUnits="userSpaceOnUse">
<stop stop-color="#D0D0FB"/>
<stop offset="1" stop-color="#81A7F3"/>
</linearGradient>
<linearGradient id="paint21_linear_10455_72653" x1="663.797" y1="68.2461" x2="663.797" y2="71.0995" gradientUnits="userSpaceOnUse">
<stop stop-color="#D0D0FB"/>
<stop offset="1" stop-color="#81A7F3"/>
</linearGradient>
<linearGradient id="paint22_linear_10455_72653" x1="663.797" y1="62.5391" x2="663.797" y2="65.3924" gradientUnits="userSpaceOnUse">
<stop stop-color="#D0D0FB"/>
<stop offset="1" stop-color="#81A7F3"/>
</linearGradient>
<linearGradient id="paint23_linear_10455_72653" x1="365" y1="0" x2="365" y2="32" gradientUnits="userSpaceOnUse">
<stop stop-color="#F0F3FA" stop-opacity="0"/>
<stop offset="0.725" stop-color="#F0F3FA"/>
</linearGradient>
<linearGradient id="paint24_linear_10455_72653" x1="365" y1="206" x2="365" y2="238" gradientUnits="userSpaceOnUse">
<stop stop-color="#F0F3FA" stop-opacity="0"/>
<stop offset="0.725" stop-color="#F0F3FA"/>
</linearGradient>
<clipPath id="clip0_10455_72653">
<rect width="730" height="238" fill="white"/>
</clipPath>
<clipPath id="clip1_10455_72653">
<rect width="31.8745" height="36.428" fill="white" transform="translate(349.027 102.311)"/>
</clipPath>
<clipPath id="clip2_10455_72653">
<rect width="153.846" height="120" fill="white" transform="translate(535 48)"/>
</clipPath>
</defs>
</svg>
