<svg width="88" height="88" viewBox="0 0 88 88" fill="none" xmlns="http://www.w3.org/2000/svg">
<g clip-path="url(#clip0_882_6256)">
<rect width="88" height="88" rx="8.8" fill="url(#paint0_linear_882_6256)"/>
<path fill-rule="evenodd" clip-rule="evenodd" d="M37.7019 29.1682C42.0823 24.2464 49.3357 22.8026 55.2994 25.6435C63.2224 29.4179 66.1134 39.0334 61.7992 46.4516L52.0951 63.1182C51.5527 64.05 50.6604 64.7293 49.6141 65.0077C48.5678 65.286 47.4525 65.141 46.5136 64.604L58.262 44.4216C61.392 39.0379 59.2985 32.0601 53.5541 29.3132C49.2435 27.2519 43.9753 28.2812 40.7907 31.8265C39.0346 33.7723 38.0483 36.2856 38.0152 38.8983C37.982 41.5118 38.9048 44.0475 40.6117 46.0372C40.9187 46.3943 41.249 46.7308 41.5998 47.0441L34.7411 58.848C34.4726 59.3098 34.1154 59.7135 33.6903 60.0384C33.2643 60.3624 32.7791 60.6005 32.2609 60.7383C31.7427 60.8761 31.2021 60.9111 30.6704 60.8421C30.1387 60.7723 29.6259 60.5996 29.1605 60.3337L36.6064 47.5194C35.5368 45.9879 34.7688 44.2694 34.3428 42.4552L29.7807 50.3227C29.2383 51.2544 28.346 51.9337 27.2997 52.2121C26.2534 52.4905 25.1381 52.3455 24.1992 51.8084L35.9986 31.5123C36.49 30.6782 37.0601 29.8932 37.7019 29.1682ZM51.3209 35.6287C54.1627 37.2585 55.1437 40.8826 53.4995 43.7038L42.1852 63.1164C41.6428 64.0482 40.7504 64.7275 39.7041 65.0059C38.6578 65.2843 37.5426 65.1393 36.6037 64.6022L47.1097 46.5285C46.2666 46.3522 45.4727 45.9969 44.7817 45.4858C44.0907 44.9747 43.5197 44.3214 43.108 43.5704C42.6963 42.8186 42.4537 41.988 42.3964 41.1341C42.3391 40.2802 42.4698 39.4246 42.7786 38.6262C43.0874 37.8278 43.5662 37.1046 44.1838 36.5076C44.8014 35.9106 45.5416 35.4541 46.3534 35.1695C47.1661 34.8849 48.0307 34.7784 48.8882 34.8571C49.7456 34.9359 50.5754 35.199 51.3209 35.6287ZM47.2055 39.2769C47.0113 39.4255 46.8475 39.6098 46.7258 39.8211H46.7249C46.5405 40.1388 46.4546 40.5031 46.4787 40.8692C46.5029 41.2352 46.6362 41.5852 46.8609 41.8761C47.0856 42.167 47.3926 42.3854 47.7416 42.5026C48.0916 42.6208 48.4684 42.6324 48.8246 42.5375C49.1818 42.4427 49.5013 42.2449 49.7447 41.9692C49.9882 41.6935 50.1439 41.3525 50.1923 40.9891C50.2406 40.6257 50.1788 40.2561 50.0159 39.9267C49.853 39.5982 49.5944 39.3243 49.2748 39.1408C49.0627 39.0191 48.8282 38.9403 48.5848 38.9081C48.3413 38.8768 48.0943 38.892 47.858 38.9556C47.6217 39.02 47.3997 39.1283 47.2055 39.2769Z" fill="#505AA5"/>
<g opacity="0.4" filter="url(#filter0_f_882_6256)">
<circle cx="87.9996" cy="9.91821e-05" r="26.4" fill="#2F6FF0"/>
</g>
</g>
<defs>
<filter id="filter0_f_882_6256" x="8.79961" y="-79.1999" width="158.401" height="158.4" filterUnits="userSpaceOnUse" color-interpolation-filters="sRGB">
<feFlood flood-opacity="0" result="BackgroundImageFix"/>
<feBlend mode="normal" in="SourceGraphic" in2="BackgroundImageFix" result="shape"/>
<feGaussianBlur stdDeviation="26.4" result="effect1_foregroundBlur_882_6256"/>
</filter>
<linearGradient id="paint0_linear_882_6256" x1="44" y1="0" x2="44" y2="88" gradientUnits="userSpaceOnUse">
<stop stop-color="#161E33"/>
<stop offset="1" stop-color="#0E1424"/>
</linearGradient>
<clipPath id="clip0_882_6256">
<rect width="88" height="88" rx="8.8" fill="white"/>
</clipPath>
</defs>
</svg>
