<svg width="88" height="88" viewBox="0 0 88 88" fill="none" xmlns="http://www.w3.org/2000/svg">
<g clip-path="url(#clip0_1326_8551)">
<rect width="88" height="88" rx="8.8" fill="url(#paint0_linear_1326_8551)"/>
<path d="M61.1981 40.4047C61.6469 39.0713 61.8022 37.6588 61.6534 36.2615C61.5047 34.8642 61.0553 33.5143 60.3354 32.3019C59.2682 30.4695 57.6386 29.0187 55.6815 28.1587C53.7245 27.2988 51.5412 27.074 49.4463 27.517C48.2562 26.2111 46.7386 25.2371 45.0461 24.6928C43.3536 24.1486 41.5457 24.0532 39.804 24.4163C38.0623 24.7793 36.4481 25.5881 35.1235 26.7612C33.7989 27.9344 32.8106 29.4307 32.2579 31.0999C30.8622 31.3822 29.5438 31.9551 28.3906 32.7803C27.2374 33.6054 26.2761 34.6639 25.5708 35.8849C24.4919 37.7143 24.0308 39.8347 24.2542 41.9396C24.4775 44.0445 25.3737 46.0249 26.8131 47.5943C26.3626 48.927 26.2058 50.3393 26.3532 51.7367C26.5006 53.134 26.9488 54.4842 27.6679 55.6969C28.7365 57.53 30.3675 58.9811 32.3259 59.8411C34.2844 60.7011 36.469 60.9255 38.565 60.4821C39.5106 61.5324 40.6724 62.3716 41.9729 62.9437C43.2734 63.5159 44.6827 63.8078 46.1067 63.7999C48.2539 63.8018 50.3461 63.1307 52.0815 61.8834C53.8168 60.6361 55.1055 58.8771 55.7614 56.8603C57.1568 56.5775 58.4751 56.0044 59.6282 55.1793C60.7813 54.3541 61.7428 53.2959 62.4484 52.0752C63.5145 50.2485 63.9677 48.136 63.7431 46.0399C63.5185 43.9438 62.6277 41.9713 61.1981 40.4047ZM46.1067 61.2081C44.3482 61.2108 42.6448 60.6028 41.2953 59.4907L41.5326 59.3581L49.5254 54.8071C49.7244 54.692 49.8895 54.5278 50.0047 54.3307C50.1199 54.1337 50.1811 53.9104 50.1823 53.6829V42.5671L53.5612 44.4952C53.5779 44.5036 53.5924 44.5157 53.6034 44.5306C53.6145 44.5455 53.6218 44.5628 53.6248 44.581V53.7923C53.6206 55.7578 52.8271 57.6417 51.4181 59.0315C50.0091 60.4213 48.0993 61.2039 46.1067 61.2081ZM29.947 54.4012C29.0651 52.899 28.7484 51.1383 29.0527 49.4286L29.2903 49.5692L37.2909 54.1202C37.4889 54.2348 37.7143 54.2952 37.9438 54.2952C38.1733 54.2952 38.3987 54.2348 38.5967 54.1202L48.3701 48.5622V52.4106C48.3692 52.4306 48.3637 52.45 48.3541 52.4676C48.3445 52.4852 48.3309 52.5004 48.3145 52.5121L40.2189 57.1177C38.4912 58.0995 36.4391 58.3648 34.5132 57.8555C32.5873 57.3462 30.9451 56.1038 29.947 54.4012ZM27.842 37.2277C28.73 35.7159 30.1317 34.5628 31.7989 33.9726V43.3399C31.7958 43.5662 31.8545 43.7892 31.9686 43.9855C32.0827 44.1819 32.2482 44.3444 32.4477 44.4561L42.1736 49.9907L38.7945 51.9187C38.7763 51.9283 38.7559 51.9333 38.7352 51.9333C38.7145 51.9333 38.6941 51.9283 38.6758 51.9187L30.596 47.321C28.8715 46.335 27.6134 44.7151 27.0973 42.816C26.5811 40.9169 26.8489 38.8935 27.842 37.1887V37.2277ZM55.6031 43.5897L45.8456 38.0005L49.2168 36.0799C49.2351 36.0704 49.2555 36.0654 49.2762 36.0654C49.2969 36.0654 49.3173 36.0704 49.3356 36.0799L57.4154 40.6856C58.6508 41.3887 59.6579 42.424 60.3192 43.6706C60.9804 44.9172 61.2686 46.3236 61.1499 47.7256C61.0313 49.1277 60.5107 50.4675 59.6491 51.5887C58.7874 52.7098 57.6202 53.5661 56.2838 54.0575V44.6901C56.2768 44.4642 56.2103 44.2439 56.091 44.051C55.9716 43.8581 55.8036 43.6992 55.6031 43.5897ZM58.9665 38.6016L58.729 38.461L50.7442 33.8711C50.545 33.7558 50.3182 33.695 50.0873 33.695C49.8564 33.695 49.6296 33.7558 49.4304 33.8711L39.6652 39.4289V35.5807C39.6631 35.5611 39.6664 35.5413 39.6748 35.5235C39.6832 35.5056 39.6963 35.4903 39.7127 35.4792L47.7925 30.8813C49.0308 30.1776 50.4467 29.8363 51.8745 29.8972C53.3023 29.9581 54.683 30.4188 55.8551 31.2253C57.0272 32.0318 57.9423 33.1509 58.4933 34.4516C59.0443 35.7523 59.2085 37.1809 58.9667 38.5703L58.9665 38.6016ZM37.821 45.4239L34.4421 43.5036C34.4252 43.4936 34.4107 43.48 34.3998 43.4638C34.3888 43.4476 34.3815 43.4293 34.3785 43.41V34.2224C34.3804 32.8129 34.789 31.4331 35.5566 30.2442C36.3241 29.0554 37.4189 28.1066 38.713 27.5089C40.007 26.9112 41.4468 26.6893 42.8641 26.869C44.2813 27.0487 45.6174 27.6227 46.7161 28.5238L46.4786 28.6566L38.4859 33.2073C38.287 33.3224 38.1218 33.4865 38.0067 33.6836C37.8915 33.8807 37.8303 34.104 37.829 34.3314L37.821 45.4239ZM39.657 41.521L44.0094 39.0463L48.3701 41.521V46.47L44.0253 48.9445L39.665 46.47L39.657 41.521Z" fill="#14A27F"/>
<g opacity="0.4" filter="url(#filter0_f_1326_8551)">
<circle cx="87.9996" cy="-2.28882e-05" r="26.4" fill="#2F6FF0"/>
</g>
</g>
<defs>
<filter id="filter0_f_1326_8551" x="8.79961" y="-79.2" width="158.401" height="158.4" filterUnits="userSpaceOnUse" color-interpolation-filters="sRGB">
<feFlood flood-opacity="0" result="BackgroundImageFix"/>
<feBlend mode="normal" in="SourceGraphic" in2="BackgroundImageFix" result="shape"/>
<feGaussianBlur stdDeviation="26.4" result="effect1_foregroundBlur_1326_8551"/>
</filter>
<linearGradient id="paint0_linear_1326_8551" x1="44" y1="0" x2="44" y2="88" gradientUnits="userSpaceOnUse">
<stop stop-color="#161E33"/>
<stop offset="1" stop-color="#0E1424"/>
</linearGradient>
<clipPath id="clip0_1326_8551">
<rect width="88" height="88" rx="8.8" fill="white"/>
</clipPath>
</defs>
</svg>
