<svg width="88" height="88" viewBox="0 0 88 88" fill="none" xmlns="http://www.w3.org/2000/svg">
<g clip-path="url(#clip0_1326_8561)">
<rect width="88" height="88" rx="8.8" fill="url(#paint0_linear_1326_8561)"/>
<path d="M22.9672 53.9202C24.7164 53.9202 26.1335 52.503 26.1335 50.7538C26.1335 49.0046 24.7164 47.5875 22.9672 47.5875C21.218 47.5875 19.8008 49.0046 19.8008 50.7538C19.8008 52.503 21.218 53.9202 22.9672 53.9202Z" fill="#EB6161"/>
<path d="M32.9427 40.777C33.3557 40.777 33.6877 41.109 33.6877 41.522L33.6472 47.5875C33.6472 51.0454 30.8695 53.8636 27.4197 53.9203H27.3145V47.6037H27.3387L27.363 41.5382C27.363 41.1252 27.6951 40.7932 28.1081 40.7932H32.9508C32.9427 40.7932 32.9427 40.777 32.9427 40.777ZM42.6686 40.777C43.0816 40.777 43.4136 41.109 43.4136 41.522V50.0089C43.4136 50.4219 43.0816 50.7539 42.6686 50.7539H37.8259C37.4129 50.7539 37.0808 50.4219 37.0808 50.0089V41.522C37.0808 41.109 37.4129 40.777 37.8259 40.777H42.6686ZM50.2889 40.7527H50.3942C53.4958 40.7932 56.0224 43.2955 56.1115 46.4052V49.9927C56.1115 50.4057 55.7795 50.7377 55.3665 50.7377H47.5437C47.1307 50.7377 46.7986 50.4057 46.7986 49.9927V41.4977C46.7986 41.0847 47.1307 40.7527 47.5437 40.7527C47.5356 40.7527 50.2889 40.7527 50.2889 40.7527ZM63.1083 50.6486C60.5007 50.4867 58.4114 48.3083 58.4114 45.6602C58.4114 42.9068 60.6465 40.6717 63.3999 40.6717C66.048 40.6717 68.2264 42.7448 68.3883 45.3686V49.9036C68.3883 50.3166 68.0563 50.6486 67.6433 50.6486C67.6352 50.6486 63.1083 50.6486 63.1083 50.6486Z" fill="#009191"/>
<path d="M40.2406 39.5946C41.9898 39.5946 43.407 38.1774 43.407 36.4282C43.407 34.679 41.9898 33.2618 40.2406 33.2618C38.4914 33.2618 37.0742 34.679 37.0742 36.4282C37.0742 38.1774 38.4914 39.5946 40.2406 39.5946Z" fill="#FBCB67"/>
<g opacity="0.4" filter="url(#filter0_f_1326_8561)">
<circle cx="87.9996" cy="-2.28882e-05" r="26.4" fill="#2F6FF0"/>
</g>
</g>
<defs>
<filter id="filter0_f_1326_8561" x="8.79961" y="-79.2" width="158.401" height="158.4" filterUnits="userSpaceOnUse" color-interpolation-filters="sRGB">
<feFlood flood-opacity="0" result="BackgroundImageFix"/>
<feBlend mode="normal" in="SourceGraphic" in2="BackgroundImageFix" result="shape"/>
<feGaussianBlur stdDeviation="26.4" result="effect1_foregroundBlur_1326_8561"/>
</filter>
<linearGradient id="paint0_linear_1326_8561" x1="44" y1="0" x2="44" y2="88" gradientUnits="userSpaceOnUse">
<stop stop-color="#161E33"/>
<stop offset="1" stop-color="#0E1424"/>
</linearGradient>
<clipPath id="clip0_1326_8561">
<rect width="88" height="88" rx="8.8" fill="white"/>
</clipPath>
</defs>
</svg>
