<svg width="88" height="88" viewBox="0 0 88 88" fill="none" xmlns="http://www.w3.org/2000/svg">
<g clip-path="url(#clip0_6693_34427)">
<rect width="88" height="88" rx="8.8" fill="url(#paint0_linear_6693_34427)"/>
<g clip-path="url(#clip1_6693_34427)">
<path fill-rule="evenodd" clip-rule="evenodd" d="M31.017 30.7999H56.9821C64.3808 30.7999 70.3996 36.7215 70.3996 43.9999C70.3996 51.2784 64.3808 57.1999 56.9821 57.1999H31.017C23.6184 57.1999 17.5996 51.2784 17.5996 43.9999C17.5996 36.7215 23.6184 30.7999 31.017 30.7999ZM42.9382 51.2618C43.2642 51.5979 43.7467 51.5813 44.1742 51.4942L44.1784 51.4963C44.3769 51.3381 44.0948 51.1376 43.8255 50.9463C43.664 50.8316 43.507 50.7199 43.4609 50.6227C43.6101 50.4444 43.1691 50.0398 42.8258 49.7246C42.6817 49.5924 42.5548 49.476 42.4959 49.3986C42.2517 49.1379 42.1535 48.809 42.0547 48.4781C41.9892 48.2586 41.9234 48.0382 41.8145 47.8362C41.1436 46.3092 40.3754 44.7946 39.2982 43.5019C38.6059 42.6428 37.8159 41.8735 37.0255 41.1038C36.5159 40.6077 36.0064 40.1114 35.5226 39.5909C35.025 39.0873 34.7255 38.4668 34.4255 37.8453C34.1744 37.3249 33.9229 36.8039 33.5545 36.3501C32.4392 34.7317 28.9177 34.2898 28.4013 36.5762C28.4034 36.6468 28.3801 36.6924 28.3166 36.7381C28.0309 36.9435 27.777 37.1759 27.5632 37.458C27.0405 38.1738 26.9601 39.3876 27.6119 40.0308C27.6128 40.017 27.6138 40.0033 27.6147 39.9895C27.6365 39.6648 27.6568 39.3612 27.9188 39.1283C28.4225 39.5536 29.1865 39.7051 29.7705 39.3876C30.4748 40.378 30.6991 41.5753 30.9243 42.7766C31.1118 43.7774 31.2998 44.781 31.7662 45.6702C31.7759 45.6859 31.7855 45.7016 31.7951 45.7174C32.0693 46.1649 32.3479 46.6196 32.6995 47.0105C32.8273 47.2046 33.0895 47.4142 33.3513 47.6234C33.6967 47.8993 34.0414 48.1747 34.0751 48.4131C34.0767 48.5169 34.0762 48.622 34.0757 48.7277C34.073 49.3538 34.0702 50.0022 34.4794 50.517C34.7058 50.9672 34.1513 51.4195 33.7048 51.3635C33.4599 51.3967 33.1925 51.3335 32.9269 51.2707C32.5634 51.1848 32.2036 51.0996 31.9102 51.2639C31.8278 51.3513 31.7096 51.3543 31.5908 51.3573C31.4499 51.3611 31.3083 51.3647 31.2244 51.5088C31.2072 51.5516 31.167 51.5999 31.1252 51.6502C31.0333 51.7605 30.9338 51.8801 31.053 51.9714C31.0637 51.9635 31.0744 51.9555 31.0849 51.9475C31.2656 51.8124 31.4377 51.6835 31.6816 51.7639C31.6491 51.9405 31.7655 51.9879 31.8818 52.0352C31.902 52.0434 31.9223 52.0517 31.9419 52.0606C31.9407 52.1016 31.9324 52.1431 31.9242 52.1841C31.9046 52.2821 31.8855 52.3783 31.9631 52.4631C31.9999 52.4264 32.0325 52.3851 32.0651 52.3438C32.1449 52.2426 32.2252 52.141 32.3694 52.1042C32.6866 52.5195 33.0062 52.347 33.4073 52.1306C33.8596 51.8864 34.4154 51.5863 35.1883 52.0108C34.8921 51.9963 34.6274 52.0316 34.4286 52.2722C34.3799 52.3262 34.3375 52.3884 34.4243 52.459C34.8816 52.1685 35.0718 52.2729 35.251 52.3712C35.3802 52.4421 35.5036 52.5098 35.7174 52.4237C35.7679 52.3979 35.8184 52.3712 35.869 52.3443C36.2124 52.1628 36.5606 51.9786 36.9681 52.042C36.6637 52.128 36.5554 52.3172 36.4372 52.5238C36.3786 52.6259 36.3178 52.7322 36.2296 52.8324C36.183 52.8781 36.1618 52.9321 36.2147 53.0088C36.8522 52.9568 37.0932 52.7983 37.4186 52.5843C37.5738 52.4821 37.7484 52.3672 37.9945 52.2453C38.2667 52.0811 38.5387 52.1861 38.8023 52.2879C39.0883 52.3983 39.3644 52.5048 39.6199 52.2598C39.7006 52.1852 39.8018 52.1844 39.9026 52.1834C39.9393 52.1831 39.9759 52.1828 40.0114 52.1788C39.9319 51.7614 39.4834 51.7663 39.0281 51.7713C38.5016 51.777 37.966 51.7829 37.9818 51.1353C38.4711 50.8077 38.4756 50.2391 38.4799 49.7017C38.481 49.572 38.4819 49.4441 38.4898 49.3219C38.8496 49.5186 39.2303 49.6723 39.6085 49.8251C39.9644 49.9688 40.3182 50.1117 40.6506 50.2887C40.9976 50.8365 41.5393 51.5627 42.2611 51.5149C42.2801 51.4589 42.297 51.4112 42.3182 51.3552C42.3598 51.3623 42.4037 51.3732 42.4484 51.3843C42.6378 51.4313 42.8407 51.4817 42.9382 51.2618ZM57.0828 45.0371C57.5007 45.4458 58.0674 45.6754 58.6583 45.6754C59.2492 45.6754 59.8161 45.4458 60.2339 45.0371C60.6517 44.6285 60.8865 44.0741 60.8865 43.4962C60.8865 42.9182 60.6517 42.3639 60.2339 41.9553C59.8161 41.5466 59.2492 41.317 58.6583 41.317C58.3816 41.317 58.1102 41.3673 57.857 41.4628L56.5799 39.6352L55.6898 40.233L56.9735 42.0701C56.6242 42.4648 56.4302 42.9707 56.4302 43.4962C56.4302 44.0741 56.6649 44.6285 57.0828 45.0371ZM53.0845 39.1184C53.3971 39.2699 53.7418 39.3474 54.0906 39.3448C54.5667 39.3412 55.029 39.1886 55.41 38.9093C55.7908 38.63 56.0703 38.2388 56.2073 37.7929C56.3444 37.347 56.3318 36.8699 56.1713 36.4315C56.011 35.9931 55.7113 35.6165 55.3161 35.3568C55.0265 35.1665 54.6953 35.0454 54.349 35.0031C54.0028 34.9609 53.6513 34.9988 53.3228 35.1138C52.9943 35.2287 52.698 35.4175 52.4577 35.665C52.2174 35.9124 52.0399 36.2116 51.9396 36.5384C51.8391 36.8652 51.8185 37.2105 51.8796 37.5465C51.9405 37.8824 52.0813 38.1997 52.2906 38.4728C52.4999 38.7458 52.7717 38.967 53.0845 39.1184ZM53.0845 51.7728C53.3971 51.9242 53.7418 52.0017 54.0906 51.9991C54.5667 51.9955 55.029 51.8428 55.41 51.5636C55.7908 51.2844 56.0703 50.8931 56.2073 50.4472C56.3444 50.0013 56.3318 49.5242 56.1713 49.0859C56.011 48.6474 55.7113 48.2708 55.3161 48.0111C55.0265 47.8208 54.6953 47.6997 54.349 47.6574C54.0028 47.6153 53.6513 47.6532 53.3228 47.7681C52.9943 47.8831 52.698 48.0719 52.4577 48.3193C52.2174 48.5668 52.0399 48.866 51.9396 49.1927C51.8391 49.5195 51.8185 49.8648 51.8796 50.2008C51.9405 50.5368 52.0813 50.854 52.2906 51.1271C52.4999 51.4001 52.7717 51.6212 53.0845 51.7728ZM55.1328 44.038V42.9545H51.7226C51.6368 42.6261 51.4732 42.3217 51.2449 42.0662L52.528 40.2026L51.5949 39.5959L50.3118 41.4594C50.0767 41.3761 49.8288 41.3322 49.5787 41.3294C48.9895 41.3294 48.4244 41.5577 48.0077 41.964C47.591 42.3704 47.357 42.9216 47.357 43.4963C47.357 44.0709 47.591 44.6221 48.0077 45.0285C48.4244 45.4348 48.9895 45.6632 49.5787 45.6632C49.8288 45.6604 50.0767 45.6164 50.3118 45.5331L51.5949 47.3966L52.5168 46.7899L51.2449 44.9264C51.4732 44.6707 51.6368 44.3665 51.7226 44.038H55.1328Z" fill="#F0F3FA"/>
</g>
<g opacity="0.4" filter="url(#filter0_f_6693_34427)">
<circle cx="87.9996" cy="-2.28882e-05" r="26.4" fill="#2F6FF0"/>
</g>
</g>
<defs>
<filter id="filter0_f_6693_34427" x="8.79961" y="-79.2" width="158.401" height="158.4" filterUnits="userSpaceOnUse" color-interpolation-filters="sRGB">
<feFlood flood-opacity="0" result="BackgroundImageFix"/>
<feBlend mode="normal" in="SourceGraphic" in2="BackgroundImageFix" result="shape"/>
<feGaussianBlur stdDeviation="26.4" result="effect1_foregroundBlur_6693_34427"/>
</filter>
<linearGradient id="paint0_linear_6693_34427" x1="44" y1="0" x2="44" y2="88" gradientUnits="userSpaceOnUse">
<stop stop-color="#161E33"/>
<stop offset="1" stop-color="#0E1424"/>
</linearGradient>
<clipPath id="clip0_6693_34427">
<rect width="88" height="88" rx="8.8" fill="white"/>
</clipPath>
<clipPath id="clip1_6693_34427">
<rect width="52.8" height="52.8" fill="white" transform="translate(17.5996 17.6)"/>
</clipPath>
</defs>
</svg>
