<svg width="88" height="88" viewBox="0 0 88 88" fill="none" xmlns="http://www.w3.org/2000/svg">
<g clip-path="url(#clip0_882_6251)">
<rect width="88" height="88" rx="8.8" fill="url(#paint0_linear_882_6251)"/>
<path d="M38.0601 24.3648C38.0601 25.2761 38.7989 26.0148 39.7101 26.0148H44.0001C53.7353 26.0148 61.6639 33.7497 61.9756 43.4091L61.9827 43.7024L61.9852 43.9999C61.9852 53.8334 54.0932 61.8236 44.2976 61.9824L39.7101 61.9842C38.7988 61.9846 38.0601 62.7235 38.0601 63.6349C38.0601 64.5461 38.7989 65.2849 39.7101 65.2849H44.0001C55.638 65.2849 65.0943 55.9449 65.2823 44.3518L65.2852 43.9999C65.2852 32.362 55.9452 22.9057 44.3521 22.7177L39.7101 22.7156C38.7993 22.7152 38.0606 23.4532 38.0601 24.3641V24.3648ZM25.6851 22.7148C24.0631 22.7148 22.7447 24.0152 22.7156 25.6303L22.7151 25.6848V63.6349C22.7151 64.5307 23.429 65.2598 24.319 65.2842L24.3651 65.2849H31.6251C32.5364 65.2849 33.2751 64.5461 33.2751 63.6349C33.2751 62.7236 32.5364 61.9849 31.6251 61.9849H26.0151V26.0148H31.6251C32.5364 26.0148 33.2751 25.2761 33.2751 24.3648C33.2751 23.4536 32.5364 22.7148 31.6251 22.7148H25.6851Z" fill="#009191"/>
<path d="M41.9683 33.4399L41.9974 33.4408C42.2572 33.4558 42.4633 33.6713 42.4633 33.9349L42.4634 42.161L42.4604 42.1604C42.3947 42.1464 42.3301 42.1328 42.2666 42.1197L42.0792 42.0819C42.0485 42.0759 42.0181 42.07 41.988 42.0641L41.8104 42.0307C41.7814 42.0254 41.7526 42.0202 41.7241 42.0151L41.5563 41.9861L41.395 41.9599C41.3686 41.9558 41.3426 41.9518 41.3168 41.9479L41.1653 41.9261L41.0203 41.9072C40.7368 41.8724 40.4925 41.8549 40.2872 41.8549L40.1883 41.8556C38.1466 41.881 36.2361 42.6921 34.8098 44.0866L34.7308 44.1648L32.2333 44.1649C31.9599 44.1649 31.7383 43.9433 31.7383 43.6699V33.9349C31.7383 33.6616 31.9599 33.4399 32.2333 33.4399H41.9683Z" fill="#FF455A"/>
<path fill-rule="evenodd" clip-rule="evenodd" d="M40.2871 43.5051C41.2779 43.5051 42.2142 43.738 43.0444 44.1519L42.6729 44.7827C41.9789 45.9603 42.371 47.4775 43.5486 48.1715C43.9293 48.3959 44.3632 48.5143 44.8052 48.5143L46.3625 48.5143C46.4361 48.8958 46.4746 49.2897 46.4746 49.6926C46.4746 53.1099 43.7044 55.8801 40.2871 55.8801C36.8698 55.8801 34.0996 53.1099 34.0996 49.6926C34.0996 46.2754 36.8698 43.5051 40.2871 43.5051Z" fill="#009191"/>
<path d="M50.4755 37.239L55.1596 45.6373C55.2281 45.7601 55.2641 45.8984 55.2641 46.0391C55.2641 46.4948 54.8947 46.8641 54.4391 46.8641H44.8056C44.6583 46.8641 44.5136 46.8247 44.3867 46.7499C43.9942 46.5185 43.8635 46.0128 44.0948 45.6203L49.0442 37.222C49.1186 37.0958 49.2252 36.9917 49.3531 36.9203C49.751 36.6984 50.2535 36.841 50.4755 37.239Z" fill="#FFC92A"/>
<g opacity="0.4" filter="url(#filter0_f_882_6251)">
<circle cx="87.9996" cy="9.91821e-05" r="26.4" fill="#2F6FF0"/>
</g>
</g>
<defs>
<filter id="filter0_f_882_6251" x="8.79961" y="-79.1999" width="158.401" height="158.4" filterUnits="userSpaceOnUse" color-interpolation-filters="sRGB">
<feFlood flood-opacity="0" result="BackgroundImageFix"/>
<feBlend mode="normal" in="SourceGraphic" in2="BackgroundImageFix" result="shape"/>
<feGaussianBlur stdDeviation="26.4" result="effect1_foregroundBlur_882_6251"/>
</filter>
<linearGradient id="paint0_linear_882_6251" x1="44" y1="0" x2="44" y2="88" gradientUnits="userSpaceOnUse">
<stop stop-color="#161E33"/>
<stop offset="1" stop-color="#0E1424"/>
</linearGradient>
<clipPath id="clip0_882_6251">
<rect width="88" height="88" rx="8.8" fill="white"/>
</clipPath>
</defs>
</svg>
