<svg width="564" height="432" viewBox="0 0 564 432" fill="none" xmlns="http://www.w3.org/2000/svg">
<rect x="60.5" y="32.5" width="479" height="319" rx="7.5" stroke="#161E33"/>
<g opacity="0.8" filter="url(#filter0_f_1106_3908)">
<rect x="120" y="232" width="320" height="80" rx="4" fill="#2F6FF0"/>
</g>
<rect x="24" width="500" height="336" rx="8" fill="url(#paint0_linear_1106_3908)"/>
<mask id="path-4-inside-1_1106_3908" fill="white">
<path d="M24 0H524V24H24V0Z"/>
</mask>
<path d="M524 23H24V25H524V23Z" fill="#28324D" mask="url(#path-4-inside-1_1106_3908)"/>
<circle cx="39" cy="12" r="3" fill="#DC244C"/>
<circle cx="49" cy="12" r="3" fill="#28324D"/>
<circle cx="59" cy="12" r="3" fill="#008A53"/>
<circle cx="511" cy="9" r="1" fill="#28324D"/>
<circle cx="511" cy="12" r="1" fill="#28324D"/>
<circle cx="511" cy="15" r="1" fill="#28324D"/>
<mask id="path-12-inside-2_1106_3908" fill="white">
<path d="M69 40H153.5V50H69V40Z"/>
</mask>
<path d="M70 50V40H68V50H70Z" fill="#DC244C" mask="url(#path-12-inside-2_1106_3908)"/>
<path d="M84.232 48.384L83.608 47.68C83.176 47.944 82.664 48.096 82.096 48.096C80.464 48.096 79.328 46.864 79.328 45.104C79.328 43.352 80.472 42.112 82.104 42.112C83.744 42.112 84.888 43.344 84.888 45.104C84.888 45.968 84.608 46.704 84.136 47.232L84.744 47.92L84.232 48.384ZM84.064 45.104C84.064 43.76 83.28 42.872 82.104 42.872C80.928 42.872 80.152 43.76 80.152 45.104C80.152 46.448 80.928 47.344 82.104 47.344C82.472 47.344 82.8 47.256 83.08 47.088L82.32 46.232L82.832 45.768L83.6 46.632C83.896 46.248 84.064 45.72 84.064 45.104ZM87.3307 48.096C86.1948 48.096 85.5068 47.248 85.5068 46.056C85.5068 44.856 86.2028 43.976 87.3628 43.976C87.9628 43.976 88.4668 44.24 88.7308 44.72V42.112H89.4748V48H88.8028L88.7388 47.288C88.4828 47.824 87.9548 48.096 87.3307 48.096ZM87.4828 47.416C88.2508 47.416 88.7228 46.848 88.7228 46.032C88.7228 45.232 88.2508 44.656 87.4828 44.656C86.7148 44.656 86.2668 45.232 86.2668 46.032C86.2668 46.84 86.7148 47.416 87.4828 47.416ZM92.7996 44.056V44.744H92.4636C91.7516 44.744 91.3116 45.176 91.3116 45.928V48H90.5596V44.096H91.2636L91.3116 44.688C91.4716 44.28 91.8636 44.008 92.3996 44.008C92.5356 44.008 92.6476 44.024 92.7996 44.056ZM94.4927 48.096C93.6527 48.096 93.1567 47.624 93.1567 46.912C93.1567 46.192 93.6927 45.744 94.6127 45.672L95.8447 45.576V45.464C95.8447 44.808 95.4527 44.576 94.9247 44.576C94.2927 44.576 93.9327 44.856 93.9327 45.328H93.2767C93.2767 44.512 93.9487 43.976 94.9567 43.976C95.9247 43.976 96.5807 44.488 96.5807 45.544V48H95.9407L95.8607 47.368C95.6607 47.816 95.1247 48.096 94.4927 48.096ZM94.7087 47.512C95.4207 47.512 95.8527 47.048 95.8527 46.312V46.104L94.8527 46.184C94.1887 46.248 93.9167 46.504 93.9167 46.888C93.9167 47.304 94.2207 47.512 94.7087 47.512ZM98.3741 48H97.6221V44.088H98.3021L98.3821 44.688C98.6301 44.24 99.1261 43.976 99.6781 43.976C100.71 43.976 101.182 44.608 101.182 45.608V48H100.43V45.776C100.43 44.984 100.062 44.664 99.4861 44.664C98.7821 44.664 98.3741 45.168 98.3741 45.928V48ZM103.328 48H102.576V44.72H101.808V44.088H102.576V42.864H103.328V44.088H104.096V44.72H103.328V48Z" fill="#F0F3FA"/>
<mask id="path-15-inside-3_1106_3908" fill="white">
<path d="M177.5 40H262V50H177.5V40Z"/>
</mask>
<path d="M178.5 50V40H176.5V50H178.5Z" fill="#E0700D" mask="url(#path-15-inside-3_1106_3908)"/>
<path d="M191.7 48H188.172V42.216H191.7V42.936H188.956V44.744H191.428V45.44H188.956V47.272H191.7V48ZM193.476 48H192.724V42.112H193.476V48ZM195.727 48.096C194.887 48.096 194.391 47.624 194.391 46.912C194.391 46.192 194.927 45.744 195.847 45.672L197.079 45.576V45.464C197.079 44.808 196.687 44.576 196.159 44.576C195.527 44.576 195.167 44.856 195.167 45.328H194.511C194.511 44.512 195.183 43.976 196.191 43.976C197.159 43.976 197.815 44.488 197.815 45.544V48H197.175L197.095 47.368C196.895 47.816 196.359 48.096 195.727 48.096ZM195.943 47.512C196.655 47.512 197.087 47.048 197.087 46.312V46.104L196.087 46.184C195.423 46.248 195.151 46.504 195.151 46.888C195.151 47.304 195.455 47.512 195.943 47.512ZM198.537 46.864H199.257C199.257 47.264 199.561 47.504 200.057 47.504C200.585 47.504 200.889 47.288 200.889 46.928C200.889 46.664 200.761 46.504 200.353 46.4L199.665 46.24C198.969 46.072 198.641 45.728 198.641 45.152C198.641 44.432 199.249 43.976 200.113 43.976C200.969 43.976 201.529 44.456 201.545 45.2H200.825C200.809 44.808 200.545 44.56 200.089 44.56C199.617 44.56 199.353 44.768 199.353 45.128C199.353 45.392 199.545 45.568 199.929 45.664L200.617 45.832C201.281 45.992 201.609 46.296 201.609 46.88C201.609 47.624 200.969 48.096 200.041 48.096C199.121 48.096 198.537 47.608 198.537 46.864ZM203.546 48H202.794V44.72H202.026V44.088H202.794V42.864H203.546V44.088H204.314V44.72H203.546V48ZM205.357 43.16C205.085 43.16 204.861 42.936 204.861 42.664C204.861 42.384 205.085 42.168 205.357 42.168C205.629 42.168 205.853 42.384 205.853 42.664C205.853 42.936 205.629 43.16 205.357 43.16ZM204.989 48V44.088H205.741V48H204.989ZM206.577 46.048C206.577 44.824 207.353 43.976 208.497 43.976C209.481 43.976 210.169 44.536 210.305 45.408H209.553C209.425 44.912 209.025 44.648 208.521 44.648C207.809 44.648 207.321 45.192 207.321 46.04C207.321 46.88 207.777 47.424 208.489 47.424C209.025 47.424 209.425 47.144 209.561 46.68H210.313C210.161 47.528 209.433 48.096 208.489 48.096C207.337 48.096 206.577 47.28 206.577 46.048ZM213.086 43.776C213.086 42.784 213.886 42.112 215.078 42.112C216.182 42.112 216.894 42.728 216.958 43.728H216.166C216.126 43.152 215.718 42.816 215.07 42.816C214.342 42.816 213.87 43.184 213.87 43.752C213.87 44.216 214.134 44.496 214.678 44.624L215.63 44.848C216.574 45.064 217.054 45.576 217.054 46.392C217.054 47.432 216.246 48.096 215.014 48.096C213.838 48.096 213.054 47.48 213.006 46.488H213.806C213.822 47.04 214.286 47.392 215.014 47.392C215.782 47.392 216.27 47.032 216.27 46.456C216.27 46 216.022 45.712 215.47 45.584L214.518 45.368C213.574 45.152 213.086 44.608 213.086 43.776ZM219.599 48.096C218.447 48.096 217.655 47.264 217.655 46.048C217.655 44.824 218.431 43.976 219.567 43.976C220.679 43.976 221.407 44.744 221.407 45.904V46.184L218.383 46.192C218.439 47.016 218.871 47.472 219.615 47.472C220.199 47.472 220.583 47.232 220.711 46.784H221.415C221.223 47.624 220.567 48.096 219.599 48.096ZM219.567 44.608C218.911 44.608 218.495 45 218.399 45.688H220.655C220.655 45.04 220.231 44.608 219.567 44.608ZM223.352 48.096C222.512 48.096 222.016 47.624 222.016 46.912C222.016 46.192 222.552 45.744 223.472 45.672L224.704 45.576V45.464C224.704 44.808 224.312 44.576 223.784 44.576C223.152 44.576 222.792 44.856 222.792 45.328H222.136C222.136 44.512 222.808 43.976 223.816 43.976C224.784 43.976 225.44 44.488 225.44 45.544V48H224.8L224.72 47.368C224.52 47.816 223.984 48.096 223.352 48.096ZM223.568 47.512C224.28 47.512 224.712 47.048 224.712 46.312V46.104L223.712 46.184C223.048 46.248 222.776 46.504 222.776 46.888C222.776 47.304 223.08 47.512 223.568 47.512ZM228.722 44.056V44.744H228.386C227.674 44.744 227.234 45.176 227.234 45.928V48H226.482V44.096H227.186L227.234 44.688C227.394 44.28 227.786 44.008 228.322 44.008C228.458 44.008 228.57 44.024 228.722 44.056ZM229.03 46.048C229.03 44.824 229.806 43.976 230.95 43.976C231.934 43.976 232.622 44.536 232.758 45.408H232.006C231.878 44.912 231.478 44.648 230.974 44.648C230.262 44.648 229.774 45.192 229.774 46.04C229.774 46.88 230.23 47.424 230.942 47.424C231.478 47.424 231.878 47.144 232.014 46.68H232.766C232.614 47.528 231.886 48.096 230.942 48.096C229.79 48.096 229.03 47.28 229.03 46.048ZM234.312 47.992H233.56V42.112H234.312V44.688C234.56 44.264 235.032 43.976 235.64 43.976C236.64 43.976 237.12 44.608 237.12 45.608V48H236.368V45.776C236.368 44.984 235.992 44.664 235.432 44.664C234.704 44.664 234.312 45.192 234.312 45.864V47.992Z" fill="#F0F3FA"/>
<mask id="path-18-inside-4_1106_3908" fill="white">
<path d="M286 40H370.5V50H286V40Z"/>
</mask>
<path d="M287 50V40H285V50H287Z" fill="#8547FF" mask="url(#path-18-inside-4_1106_3908)"/>
<path d="M297.456 48H296.672V42.216H298.856C300.096 42.216 300.832 42.872 300.832 43.952C300.832 44.752 300.432 45.328 299.712 45.56L300.888 48H300.016L298.936 45.712H297.456V48ZM297.456 42.92V45.016H298.864C299.592 45.016 300.008 44.624 300.008 43.96C300.008 43.288 299.576 42.92 298.856 42.92H297.456ZM303.185 48.096C302.033 48.096 301.241 47.264 301.241 46.048C301.241 44.824 302.017 43.976 303.153 43.976C304.265 43.976 304.993 44.744 304.993 45.904V46.184L301.969 46.192C302.025 47.016 302.457 47.472 303.201 47.472C303.785 47.472 304.169 47.232 304.297 46.784H305.001C304.809 47.624 304.153 48.096 303.185 48.096ZM303.153 44.608C302.497 44.608 302.081 45 301.985 45.688H304.241C304.241 45.04 303.817 44.608 303.153 44.608ZM307.401 48.096C306.265 48.096 305.577 47.248 305.577 46.056C305.577 44.856 306.273 43.976 307.433 43.976C308.033 43.976 308.537 44.24 308.801 44.72V42.112H309.545V48H308.873L308.809 47.288C308.553 47.824 308.025 48.096 307.401 48.096ZM307.553 47.416C308.321 47.416 308.793 46.848 308.793 46.032C308.793 45.232 308.321 44.656 307.553 44.656C306.785 44.656 306.337 45.232 306.337 46.032C306.337 46.84 306.785 47.416 307.553 47.416ZM310.998 43.16C310.726 43.16 310.502 42.936 310.502 42.664C310.502 42.384 310.726 42.168 310.998 42.168C311.27 42.168 311.494 42.384 311.494 42.664C311.494 42.936 311.27 43.16 310.998 43.16ZM310.63 48V44.088H311.382V48H310.63ZM312.154 46.864H312.874C312.874 47.264 313.178 47.504 313.674 47.504C314.202 47.504 314.506 47.288 314.506 46.928C314.506 46.664 314.378 46.504 313.97 46.4L313.282 46.24C312.586 46.072 312.258 45.728 312.258 45.152C312.258 44.432 312.866 43.976 313.73 43.976C314.586 43.976 315.146 44.456 315.162 45.2H314.442C314.426 44.808 314.162 44.56 313.706 44.56C313.234 44.56 312.97 44.768 312.97 45.128C312.97 45.392 313.162 45.568 313.546 45.664L314.234 45.832C314.898 45.992 315.226 46.296 315.226 46.88C315.226 47.624 314.586 48.096 313.658 48.096C312.738 48.096 312.154 47.608 312.154 46.864Z" fill="#F0F3FA"/>
<mask id="path-21-inside-5_1106_3908" fill="white">
<path d="M394.5 40H479V50H394.5V40Z"/>
</mask>
<path d="M395.5 50V40H393.5V50H395.5Z" fill="#008A53" mask="url(#path-21-inside-5_1106_3908)"/>
<path d="M406.34 48L404.62 42.216H405.436L406.492 45.752C406.572 46.056 406.652 46.36 406.732 46.8C406.828 46.336 406.916 46.056 407.004 45.752L408.1 42.216H408.948L410.036 45.752C410.132 46.064 410.212 46.368 410.3 46.8C410.396 46.312 410.476 46.016 410.556 45.76L411.62 42.216H412.42L410.676 48H409.924L408.524 43.424L407.108 48H406.34ZM414.263 48.096C413.111 48.096 412.319 47.264 412.319 46.048C412.319 44.824 413.095 43.976 414.231 43.976C415.343 43.976 416.071 44.744 416.071 45.904V46.184L413.047 46.192C413.103 47.016 413.535 47.472 414.279 47.472C414.863 47.472 415.247 47.232 415.375 46.784H416.079C415.887 47.624 415.231 48.096 414.263 48.096ZM414.231 44.608C413.575 44.608 413.159 45 413.063 45.688H415.319C415.319 45.04 414.895 44.608 414.231 44.608ZM418.016 48.096C417.176 48.096 416.68 47.624 416.68 46.912C416.68 46.192 417.216 45.744 418.136 45.672L419.368 45.576V45.464C419.368 44.808 418.976 44.576 418.448 44.576C417.816 44.576 417.456 44.856 417.456 45.328H416.8C416.8 44.512 417.472 43.976 418.48 43.976C419.448 43.976 420.104 44.488 420.104 45.544V48H419.464L419.384 47.368C419.184 47.816 418.648 48.096 418.016 48.096ZM418.232 47.512C418.944 47.512 419.376 47.048 419.376 46.312V46.104L418.376 46.184C417.712 46.248 417.44 46.504 417.44 46.888C417.44 47.304 417.744 47.512 418.232 47.512ZM422.085 48L420.509 44.088H421.309L422.165 46.272C422.301 46.64 422.413 46.968 422.477 47.208C422.541 46.952 422.669 46.616 422.805 46.272L423.677 44.088H424.461L422.829 48H422.085ZM425.428 43.16C425.156 43.16 424.932 42.936 424.932 42.664C424.932 42.384 425.156 42.168 425.428 42.168C425.7 42.168 425.924 42.384 425.924 42.664C425.924 42.936 425.7 43.16 425.428 43.16ZM425.06 48V44.088H425.812V48H425.06ZM428.047 48.096C427.207 48.096 426.711 47.624 426.711 46.912C426.711 46.192 427.247 45.744 428.167 45.672L429.399 45.576V45.464C429.399 44.808 429.007 44.576 428.479 44.576C427.847 44.576 427.487 44.856 427.487 45.328H426.831C426.831 44.512 427.503 43.976 428.511 43.976C429.479 43.976 430.135 44.488 430.135 45.544V48H429.495L429.415 47.368C429.215 47.816 428.679 48.096 428.047 48.096ZM428.263 47.512C428.975 47.512 429.407 47.048 429.407 46.312V46.104L428.407 46.184C427.743 46.248 427.471 46.504 427.471 46.888C427.471 47.304 427.775 47.512 428.263 47.512ZM432.218 48H431.466V44.72H430.698V44.088H431.466V42.864H432.218V44.088H432.986V44.72H432.218V48ZM435.31 48.096C434.158 48.096 433.366 47.264 433.366 46.048C433.366 44.824 434.142 43.976 435.278 43.976C436.39 43.976 437.118 44.744 437.118 45.904V46.184L434.094 46.192C434.15 47.016 434.582 47.472 435.326 47.472C435.91 47.472 436.294 47.232 436.422 46.784H437.126C436.934 47.624 436.278 48.096 435.31 48.096ZM435.278 44.608C434.622 44.608 434.206 45 434.11 45.688H436.366C436.366 45.04 435.942 44.608 435.278 44.608Z" fill="#F0F3FA"/>
<rect x="46" y="79" width="76" height="31" stroke="#28324D"/>
<rect x="122" y="79" width="76" height="31" stroke="#28324D"/>
<rect x="198" y="79" width="76" height="31" stroke="#28324D"/>
<rect x="274" y="79" width="76" height="31" stroke="#28324D"/>
<rect x="350" y="79" width="76" height="31" stroke="#28324D"/>
<rect x="426" y="79" width="76" height="31" stroke="#28324D"/>
<rect x="46" y="110" width="76" height="31" stroke="#28324D"/>
<rect x="122" y="110" width="76" height="31" stroke="#28324D"/>
<rect x="198" y="110" width="76" height="31" stroke="#28324D"/>
<rect x="274" y="110" width="76" height="31" stroke="#28324D"/>
<rect x="350" y="110" width="76" height="31" stroke="#28324D"/>
<rect x="426" y="110" width="76" height="31" stroke="#28324D"/>
<rect x="46" y="141" width="76" height="31" stroke="#28324D"/>
<rect x="122" y="141" width="76" height="31" stroke="#28324D"/>
<rect x="198" y="141" width="76" height="31" stroke="#28324D"/>
<rect x="274" y="141" width="76" height="31" stroke="#28324D"/>
<rect x="350" y="141" width="76" height="31" stroke="#28324D"/>
<rect x="426" y="141" width="76" height="31" stroke="#28324D"/>
<rect x="46" y="172" width="76" height="31" stroke="#28324D"/>
<rect x="122" y="172" width="76" height="31" stroke="#28324D"/>
<rect x="198" y="172" width="76" height="31" stroke="#28324D"/>
<rect x="274" y="172" width="76" height="31" stroke="#28324D"/>
<rect x="350" y="172" width="76" height="31" stroke="#28324D"/>
<rect x="426" y="172" width="76" height="31" stroke="#28324D"/>
<rect x="46" y="203" width="76" height="31" stroke="#28324D"/>
<rect x="122" y="203" width="76" height="31" stroke="#28324D"/>
<rect x="198" y="203" width="76" height="31" stroke="#28324D"/>
<rect x="274" y="203" width="76" height="31" stroke="#28324D"/>
<rect x="350" y="203" width="76" height="31" stroke="#28324D"/>
<rect x="426" y="203" width="76" height="31" stroke="#28324D"/>
<rect x="46" y="234" width="76" height="31" stroke="#28324D"/>
<rect x="122" y="234" width="76" height="31" stroke="#28324D"/>
<rect x="198" y="234" width="76" height="31" stroke="#28324D"/>
<rect x="274" y="234" width="76" height="31" stroke="#28324D"/>
<rect x="350" y="234" width="76" height="31" stroke="#28324D"/>
<rect x="426" y="234" width="76" height="31" stroke="#28324D"/>
<rect x="46" y="265" width="76" height="31" stroke="#28324D"/>
<rect x="122" y="265" width="76" height="31" stroke="#28324D"/>
<rect x="198" y="265" width="76" height="31" stroke="#28324D"/>
<rect x="274" y="265" width="76" height="31" stroke="#28324D"/>
<rect x="350" y="265" width="76" height="31" stroke="#28324D"/>
<rect x="426" y="265" width="76" height="31" stroke="#28324D"/>
<path d="M396.5 198H434.5L469 219L473.5 230L485 237L490 247.5L492 255.5L497 261L501 267.5V275.5" stroke="#E0700D" stroke-width="2" stroke-miterlimit="10"/>
<circle cx="501" cy="276" r="2" fill="#E0700D"/>
<circle cx="397" cy="198" r="2" fill="#E0700D"/>
<path d="M269.5 121.5L444.5 124.5L454.5 137.5H463L470.5 165L484 181.5L488 215.5L497 228.5V249L501 251.5V275.5" stroke="#DC244C" stroke-width="2" stroke-miterlimit="10"/>
<circle cx="501" cy="277" r="2" fill="#DC244C"/>
<circle cx="269" cy="121" r="2" fill="#DC244C"/>
<path d="M498.5 285.5L494 281.5L490 276.5H483L482 269.5L467.5 268V260.5H448L445.5 248.5L423.5 245.5L407 236L374 226.5L359 215.5L329 209.5L255.5 198L115 164" stroke="#8547FF" stroke-width="2" stroke-miterlimit="10"/>
<circle cx="499" cy="286" r="2" fill="#8547FF"/>
<circle cx="116" cy="164" r="2" fill="#8547FF"/>
<path d="M500 272L494.5 268L490 265L482 260.5L468.5 256H457.5L445 252.5H410.5L376.5 251L371 248.5L332 247H246.5H121" stroke="#008A53" stroke-width="2" stroke-miterlimit="10"/>
<circle cx="500" cy="272" r="2" fill="#008A53"/>
<circle cx="122" cy="247" r="2" fill="#008A53"/>
<defs>
<filter id="filter0_f_1106_3908" x="0" y="112" width="560" height="320" filterUnits="userSpaceOnUse" color-interpolation-filters="sRGB">
<feFlood flood-opacity="0" result="BackgroundImageFix"/>
<feBlend mode="normal" in="SourceGraphic" in2="BackgroundImageFix" result="shape"/>
<feGaussianBlur stdDeviation="60" result="effect1_foregroundBlur_1106_3908"/>
</filter>
<linearGradient id="paint0_linear_1106_3908" x1="274" y1="0" x2="274" y2="336" gradientUnits="userSpaceOnUse">
<stop stop-color="#161E33"/>
<stop offset="1" stop-color="#0E1424"/>
</linearGradient>
</defs>
</svg>
