<svg width="540" height="360" viewBox="0 0 540 360" fill="none" xmlns="http://www.w3.org/2000/svg">
<g clip-path="url(#clip0_1106_4235)">
<g opacity="0.5" filter="url(#filter0_f_1106_4235)">
<rect x="210" y="120" width="120" height="120" rx="4.21053" fill="#8547FF"/>
</g>
<circle opacity="0.4" cx="270" cy="180" r="179.5" stroke="#28324D"/>
<circle opacity="0.4" cx="270" cy="180" r="135.5" stroke="#28324D"/>
<circle opacity="0.4" cx="270" cy="180" r="91.5" stroke="#28324D"/>
<rect y="196" width="160" height="60" rx="8" fill="url(#paint0_linear_1106_4235)"/>
<path d="M32.0006 224.829C32.0006 225.28 32.0494 225.646 32.1348 225.914C32.2323 226.183 32.3543 226.475 32.525 226.792C32.586 226.89 32.6104 226.988 32.6104 227.073C32.6104 227.195 32.5372 227.317 32.3787 227.439L31.6104 227.951C31.5006 228.024 31.3909 228.061 31.2933 228.061C31.1714 228.061 31.0494 228 30.9275 227.89C30.7567 227.707 30.6104 227.512 30.4884 227.317C30.3665 227.109 30.2445 226.878 30.1104 226.597C29.1592 227.719 27.9641 228.28 26.525 228.28C25.5007 228.28 24.6836 227.988 24.086 227.402C23.4885 226.817 23.1836 226.036 23.1836 225.061C23.1836 224.024 23.5494 223.183 24.2933 222.549C25.0372 221.914 26.025 221.597 27.2811 221.597C27.6958 221.597 28.1226 221.634 28.5738 221.695C29.025 221.756 29.4884 221.853 29.9762 221.963V221.073C29.9762 220.146 29.7811 219.5 29.4031 219.122C29.0128 218.744 28.3543 218.561 27.4153 218.561C26.9885 218.561 26.5494 218.609 26.0982 218.719C25.647 218.829 25.208 218.963 24.7811 219.134C24.586 219.219 24.4397 219.268 24.3543 219.292C24.269 219.317 24.208 219.329 24.1592 219.329C23.9885 219.329 23.9031 219.207 23.9031 218.951V218.353C23.9031 218.158 23.9275 218.012 23.9885 217.927C24.0494 217.841 24.1592 217.756 24.3299 217.67C24.7568 217.451 25.2689 217.268 25.8665 217.122C26.4641 216.963 27.0982 216.89 27.7689 216.89C29.2202 216.89 30.2811 217.219 30.964 217.878C31.6348 218.536 31.9762 219.536 31.9762 220.878V224.829H32.0006ZM27.0494 226.683C27.4519 226.683 27.8665 226.609 28.3055 226.463C28.7445 226.317 29.1348 226.048 29.4641 225.683C29.6592 225.451 29.8055 225.195 29.8787 224.902C29.9519 224.609 30.0006 224.256 30.0006 223.841V223.329C29.647 223.244 29.2689 223.17 28.8787 223.122C28.4884 223.073 28.1104 223.048 27.7324 223.048C26.9153 223.048 26.3177 223.207 25.9153 223.536C25.5129 223.866 25.3177 224.329 25.3177 224.939C25.3177 225.512 25.4641 225.939 25.7689 226.231C26.0616 226.536 26.4885 226.683 27.0494 226.683ZM36.8421 228C36.6226 228 36.4762 227.963 36.3787 227.878C36.2811 227.805 36.1957 227.634 36.1226 227.402L33.2567 217.975C33.1835 217.731 33.147 217.573 33.147 217.488C33.147 217.292 33.2445 217.183 33.4396 217.183H34.6348C34.8665 217.183 35.025 217.219 35.1104 217.305C35.2079 217.378 35.2811 217.549 35.3543 217.78L37.403 225.853L39.3055 217.78C39.3664 217.536 39.4396 217.378 39.5372 217.305C39.6347 217.231 39.8055 217.183 40.025 217.183H41.0006C41.2323 217.183 41.3908 217.219 41.4884 217.305C41.5859 217.378 41.6713 217.549 41.7201 217.78L43.6469 225.951L45.7567 217.78C45.8298 217.536 45.9152 217.378 46.0006 217.305C46.0981 217.231 46.2567 217.183 46.4762 217.183H47.6103C47.8054 217.183 47.9152 217.28 47.9152 217.488C47.9152 217.549 47.903 217.609 47.8908 217.683C47.8786 217.756 47.8542 217.853 47.8054 217.988L44.8664 227.414C44.7932 227.658 44.7079 227.817 44.6103 227.89C44.5128 227.963 44.3542 228.012 44.1469 228.012H43.0981C42.8664 228.012 42.7079 227.975 42.6103 227.89C42.5128 227.805 42.4274 227.646 42.3786 227.402L40.4884 219.536L38.6104 227.39C38.5494 227.634 38.4762 227.792 38.3786 227.878C38.2811 227.963 38.1104 228 37.8908 228H36.8421ZM52.5127 228.329C51.8786 228.329 51.2444 228.256 50.6347 228.109C50.0249 227.963 49.5493 227.805 49.2323 227.622C49.0371 227.512 48.903 227.39 48.8542 227.28C48.8054 227.17 48.781 227.048 48.781 226.939V226.317C48.781 226.061 48.8786 225.939 49.0615 225.939C49.1347 225.939 49.2079 225.951 49.281 225.975C49.3542 226 49.464 226.048 49.5859 226.097C50.0005 226.28 50.4518 226.427 50.9274 226.524C51.4152 226.622 51.8908 226.67 52.3786 226.67C53.1469 226.67 53.7444 226.536 54.1591 226.268C54.5737 226 54.7932 225.609 54.7932 225.109C54.7932 224.768 54.6834 224.488 54.4639 224.256C54.2444 224.024 53.8298 223.817 53.2322 223.622L51.4639 223.073C50.5737 222.792 49.9152 222.378 49.5127 221.829C49.1103 221.292 48.903 220.695 48.903 220.061C48.903 219.549 49.0127 219.097 49.2323 218.707C49.4518 218.317 49.7444 217.975 50.1103 217.707C50.4761 217.427 50.8908 217.219 51.3786 217.073C51.8664 216.927 52.3786 216.866 52.9152 216.866C53.1835 216.866 53.4639 216.878 53.7322 216.914C54.0127 216.951 54.2688 217 54.5249 217.049C54.7688 217.11 55.0005 217.17 55.22 217.244C55.4395 217.317 55.6103 217.39 55.7322 217.463C55.903 217.561 56.0249 217.658 56.0981 217.768C56.1712 217.866 56.2078 218 56.2078 218.17V218.744C56.2078 219 56.1103 219.134 55.9273 219.134C55.8298 219.134 55.6712 219.085 55.4639 218.988C54.7688 218.67 53.9883 218.512 53.1225 218.512C52.4274 218.512 51.8786 218.622 51.5005 218.853C51.1225 219.085 50.9274 219.439 50.9274 219.939C50.9274 220.28 51.0493 220.573 51.2932 220.805C51.5371 221.036 51.9883 221.268 52.6347 221.475L54.3664 222.024C55.2444 222.305 55.8786 222.695 56.2566 223.195C56.6347 223.695 56.8176 224.268 56.8176 224.902C56.8176 225.427 56.7078 225.902 56.5005 226.317C56.281 226.731 55.9883 227.097 55.6103 227.39C55.2322 227.695 54.781 227.914 54.2566 228.073C53.7078 228.244 53.1347 228.329 52.5127 228.329Z" fill="white"/>
<path fill-rule="evenodd" clip-rule="evenodd" d="M54.8171 234.256C50.8049 237.219 44.9757 238.792 39.9635 238.792C32.9391 238.792 26.6099 236.195 21.8294 231.878C21.4514 231.536 21.7928 231.073 22.2441 231.341C27.4148 234.341 33.7928 236.158 40.3903 236.158C44.8415 236.158 49.7317 235.231 54.2317 233.329C54.9025 233.024 55.4756 233.768 54.8171 234.256Z" fill="#FF9900"/>
<path fill-rule="evenodd" clip-rule="evenodd" d="M56.4879 232.353C55.9757 231.695 53.0977 232.036 51.7928 232.195C51.4026 232.244 51.3416 231.902 51.6953 231.646C53.9879 230.036 57.7562 230.5 58.1952 231.036C58.6342 231.585 58.0733 235.353 55.9269 237.158C55.5977 237.439 55.2806 237.292 55.4269 236.926C55.9147 235.719 57.0001 233 56.4879 232.353Z" fill="#FF9900"/>
<path d="M69.044 222H68.168L71.324 213.408H72.392L75.584 222H74.684L73.844 219.72H69.884L69.044 222ZM71.744 214.62L70.148 218.964H73.568L71.96 214.62C71.924 214.5 71.864 214.356 71.852 214.272C71.84 214.344 71.792 214.5 71.744 214.62ZM77.4264 222H76.5984V216.192H77.3184L77.4144 217.02C77.7024 216.408 78.3504 216.036 79.1664 216.036C80.0784 216.036 80.7624 216.516 81.0384 217.272C81.3024 216.516 82.0104 216.036 82.9464 216.036C84.2064 216.036 85.0344 216.852 85.0344 218.196V222H84.2304V218.364C84.2304 217.368 83.6784 216.78 82.7904 216.78C81.8184 216.78 81.2424 217.512 81.2424 218.412V222H80.4264V218.352C80.4264 217.368 79.8624 216.792 78.9864 216.792C78.0144 216.792 77.4264 217.512 77.4264 218.4V222ZM88.3679 222.144C87.1319 222.144 86.3999 221.448 86.3999 220.428C86.3999 219.36 87.2159 218.688 88.5719 218.58L90.4919 218.424V218.232C90.4919 217.092 89.8079 216.732 88.9559 216.732C87.9479 216.732 87.3479 217.188 87.3479 217.968H86.5919C86.5919 216.792 87.5519 216.036 88.9799 216.036C90.3239 216.036 91.3079 216.708 91.3079 218.244V222H90.6119L90.5039 220.98C90.1439 221.712 89.3519 222.144 88.3679 222.144ZM88.5599 221.472C89.7839 221.472 90.4919 220.62 90.4919 219.36V219.048L88.7759 219.18C87.6839 219.276 87.2399 219.756 87.2399 220.404C87.2399 221.112 87.7679 221.472 88.5599 221.472ZM96.9535 222H92.5735V221.34L95.9335 216.888H92.5735V216.192H96.9535V216.864L93.5815 221.304H96.9535V222ZM97.6943 219.096C97.6943 217.32 98.9423 216.036 100.646 216.036C102.35 216.036 103.598 217.32 103.598 219.096C103.598 220.86 102.35 222.144 100.646 222.144C98.9423 222.144 97.6943 220.86 97.6943 219.096ZM98.5343 219.084C98.5343 220.452 99.3983 221.4 100.646 221.4C101.882 221.4 102.758 220.452 102.758 219.084C102.758 217.74 101.882 216.78 100.646 216.78C99.3983 216.78 98.5343 217.74 98.5343 219.084ZM105.751 222H104.923V216.192H105.643L105.763 217.2C106.147 216.456 106.915 216.036 107.755 216.036C109.351 216.036 110.011 216.984 110.011 218.448V222H109.183V218.628C109.183 217.272 108.571 216.792 107.611 216.792C106.423 216.792 105.751 217.656 105.751 218.964V222ZM116.861 222L114.305 213.408H115.205L116.945 219.312C117.065 219.732 117.173 220.164 117.281 220.728C117.425 220.104 117.545 219.732 117.677 219.312L119.549 213.408H120.449L122.321 219.312C122.453 219.744 122.573 220.176 122.705 220.728C122.837 220.068 122.945 219.648 123.041 219.324L124.817 213.408H125.693L123.113 222H122.297L119.993 214.704L117.689 222H116.861ZM128.499 222.144C126.795 222.144 125.655 220.92 125.655 219.096C125.655 217.284 126.783 216.036 128.439 216.036C130.011 216.036 131.079 217.152 131.079 218.796V219.204H126.459C126.519 220.62 127.263 221.436 128.511 221.436C129.459 221.436 130.071 221.028 130.287 220.26H131.079C130.767 221.484 129.867 222.144 128.499 222.144ZM128.439 216.744C127.347 216.744 126.627 217.464 126.483 218.604H130.251C130.251 217.488 129.531 216.744 128.439 216.744ZM133.123 222H132.403V213.252H133.231V217.32C133.639 216.468 134.431 216.036 135.415 216.036C137.107 216.036 138.091 217.356 138.091 219.108C138.091 220.848 137.083 222.144 135.391 222.144C134.419 222.144 133.615 221.712 133.207 220.812L133.123 222ZM133.243 219.084C133.243 220.428 133.987 221.388 135.259 221.388C136.519 221.388 137.251 220.428 137.251 219.084C137.251 217.752 136.519 216.78 135.259 216.78C133.987 216.78 133.243 217.752 133.243 219.084ZM68.528 233.64C68.528 232.2 69.68 231.252 71.408 231.252C72.956 231.252 73.976 232.116 74.108 233.556H73.232C73.136 232.584 72.476 232.032 71.396 232.032C70.184 232.032 69.392 232.656 69.392 233.628C69.392 234.384 69.836 234.864 70.736 235.092L72.212 235.452C73.556 235.776 74.252 236.544 74.252 237.708C74.252 239.196 73.1 240.144 71.324 240.144C69.656 240.144 68.528 239.268 68.42 237.864H69.308C69.356 238.764 70.148 239.352 71.324 239.352C72.584 239.352 73.388 238.74 73.388 237.756C73.388 236.988 72.956 236.484 72.032 236.268L70.58 235.908C69.236 235.584 68.528 234.816 68.528 233.64ZM78.0617 240.144C76.3577 240.144 75.2177 238.92 75.2177 237.096C75.2177 235.284 76.3457 234.036 78.0017 234.036C79.5737 234.036 80.6417 235.152 80.6417 236.796V237.204H76.0217C76.0817 238.62 76.8257 239.436 78.0737 239.436C79.0217 239.436 79.6337 239.028 79.8497 238.26H80.6417C80.3297 239.484 79.4297 240.144 78.0617 240.144ZM78.0017 234.744C76.9097 234.744 76.1897 235.464 76.0457 236.604H79.8137C79.8137 235.488 79.0937 234.744 78.0017 234.744ZM85.0016 234.12V234.864H84.5456C83.4776 234.864 82.7936 235.584 82.7936 236.688V240H81.9656V234.192H82.7456L82.8056 235.092C83.0336 234.468 83.6456 234.06 84.4616 234.06C84.6416 234.06 84.7976 234.072 85.0016 234.12ZM87.8981 240L85.5221 234.192H86.4101L87.9101 237.936C88.0661 238.356 88.2221 238.752 88.3301 239.136C88.4381 238.74 88.5941 238.356 88.7621 237.936L90.2861 234.192H91.1381L88.7261 240H87.8981ZM92.522 232.596C92.186 232.596 91.91 232.32 91.91 231.984C91.91 231.648 92.186 231.36 92.522 231.36C92.858 231.36 93.146 231.648 93.146 231.984C93.146 232.32 92.858 232.596 92.522 232.596ZM92.114 240V234.192H92.942V240H92.114ZM94.2607 237.108C94.2607 235.284 95.3767 234.036 97.0687 234.036C98.4127 234.036 99.3967 234.816 99.6247 236.016H98.7967C98.5807 235.212 97.8847 234.768 97.0807 234.768C95.9047 234.768 95.0767 235.668 95.0767 237.096C95.0767 238.476 95.8447 239.4 97.0207 239.4C97.8847 239.4 98.5807 238.92 98.8087 238.176H99.6487C99.3727 239.364 98.3407 240.144 97.0207 240.144C95.3767 240.144 94.2607 238.932 94.2607 237.108ZM103.339 240.144C101.635 240.144 100.495 238.92 100.495 237.096C100.495 235.284 101.623 234.036 103.279 234.036C104.851 234.036 105.919 235.152 105.919 236.796V237.204H101.299C101.359 238.62 102.103 239.436 103.351 239.436C104.299 239.436 104.911 239.028 105.127 238.26H105.919C105.607 239.484 104.707 240.144 103.339 240.144ZM103.279 234.744C102.187 234.744 101.467 235.464 101.323 236.604H105.091C105.091 235.488 104.371 234.744 103.279 234.744ZM106.751 238.368H107.543C107.543 239.04 108.047 239.46 108.863 239.46C109.763 239.46 110.291 239.076 110.291 238.452C110.291 237.972 110.051 237.696 109.367 237.528L108.371 237.276C107.363 237.024 106.871 236.496 106.871 235.704C106.871 234.684 107.723 234.036 108.971 234.036C110.195 234.036 110.987 234.708 111.023 235.788H110.219C110.195 235.116 109.727 234.72 108.947 234.72C108.131 234.72 107.675 235.068 107.675 235.692C107.675 236.136 107.987 236.448 108.623 236.604L109.619 236.856C110.627 237.108 111.083 237.576 111.083 238.416C111.083 239.46 110.195 240.144 108.875 240.144C107.567 240.144 106.751 239.448 106.751 238.368Z" fill="#F0F3FA"/>
<rect x="80" width="160" height="60" rx="8" fill="url(#paint1_linear_1106_4235)"/>
<path d="M124.935 22.8005H126.053L129.24 19.6133L129.397 18.2601C127.571 16.6486 125.364 15.5291 122.986 15.0075C120.607 14.4858 118.134 14.5792 115.802 15.2787C113.469 15.9783 111.353 17.261 109.654 19.0056C107.955 20.7503 106.728 22.8992 106.091 25.2496C106.446 25.104 106.839 25.0804 107.209 25.1825L113.584 24.1313C113.584 24.1313 113.908 23.5945 114.076 23.628C115.442 22.128 117.329 21.2068 119.352 21.0529C121.375 20.8991 123.38 21.5243 124.957 22.8005H124.935Z" fill="#EA4335"/>
<path d="M133.78 25.2495C133.047 22.5517 131.543 20.1265 129.452 18.2712L124.978 22.7445C125.911 23.5062 126.658 24.4697 127.163 25.5623C127.669 26.6549 127.92 27.8481 127.897 29.0517V29.8457C128.42 29.8457 128.938 29.9487 129.421 30.1488C129.904 30.3489 130.343 30.6421 130.712 31.0118C131.082 31.3815 131.375 31.8204 131.575 32.3034C131.775 32.7864 131.878 33.3041 131.878 33.8269C131.878 34.3497 131.775 34.8674 131.575 35.3505C131.375 35.8335 131.082 36.2724 130.712 36.642C130.343 37.0117 129.904 37.305 129.421 37.5051C128.938 37.7051 128.42 37.8081 127.897 37.8081H119.935L119.141 38.6133V43.3885L119.935 44.1825H127.897C130.121 44.1998 132.291 43.501 134.086 42.1894C135.882 40.8778 137.208 39.0231 137.867 36.8997C138.527 34.7763 138.486 32.497 137.75 30.3988C137.013 28.3007 135.621 26.4952 133.78 25.2495Z" fill="#4285F4"/>
<path d="M111.961 44.1377H119.924V37.7634H111.961C111.394 37.7633 110.834 37.6412 110.317 37.4055L109.199 37.7522L105.99 40.9394L105.71 42.0577C107.51 43.4168 109.706 44.1475 111.961 44.1377Z" fill="#34A853"/>
<path d="M111.961 23.4603C109.803 23.4732 107.704 24.1596 105.955 25.4236C104.207 26.6876 102.897 28.4661 102.209 30.5108C101.52 32.5554 101.487 34.7641 102.115 36.8282C102.743 38.8924 103.999 40.7089 105.709 42.0242L110.328 37.4056C109.741 37.1404 109.227 36.7368 108.831 36.2294C108.434 35.722 108.166 35.1259 108.051 34.4923C107.935 33.8587 107.975 33.2065 108.167 32.5917C108.359 31.9769 108.697 31.4178 109.152 30.9624C109.608 30.507 110.167 30.1688 110.782 29.977C111.396 29.7852 112.049 29.7454 112.682 29.861C113.316 29.9767 113.912 30.2443 114.419 30.6409C114.927 31.0376 115.33 31.5514 115.595 32.1384L120.214 27.5197C119.245 26.2524 117.995 25.2265 116.564 24.5223C115.132 23.8181 113.557 23.4546 111.961 23.4603Z" fill="#FBBC05"/>
<path d="M152.644 27.08C150.664 27.08 149.416 28.544 149.416 30.74C149.416 32.972 150.736 34.328 152.668 34.328C154.108 34.328 155.512 33.632 155.512 31.568V31.124H152.404V30.356H156.328V35.012H155.644L155.56 33.644C155.104 34.496 154.024 35.144 152.632 35.144C150.196 35.144 148.516 33.392 148.516 30.74C148.516 28.112 150.196 26.264 152.656 26.264C154.468 26.264 155.872 27.296 156.208 28.856H155.272C154.912 27.68 153.904 27.08 152.644 27.08ZM157.456 32.096C157.456 30.32 158.704 29.036 160.408 29.036C162.112 29.036 163.36 30.32 163.36 32.096C163.36 33.86 162.112 35.144 160.408 35.144C158.704 35.144 157.456 33.86 157.456 32.096ZM158.296 32.084C158.296 33.452 159.16 34.4 160.408 34.4C161.644 34.4 162.52 33.452 162.52 32.084C162.52 30.74 161.644 29.78 160.408 29.78C159.16 29.78 158.296 30.74 158.296 32.084ZM164.276 32.096C164.276 30.32 165.524 29.036 167.228 29.036C168.932 29.036 170.18 30.32 170.18 32.096C170.18 33.86 168.932 35.144 167.228 35.144C165.524 35.144 164.276 33.86 164.276 32.096ZM165.116 32.084C165.116 33.452 165.98 34.4 167.228 34.4C168.464 34.4 169.34 33.452 169.34 32.084C169.34 30.74 168.464 29.78 167.228 29.78C165.98 29.78 165.116 30.74 165.116 32.084ZM171.109 31.928C171.109 30.344 172.129 29.036 173.833 29.036C174.841 29.036 175.609 29.504 175.981 30.356L176.065 29.192H176.785V34.82C176.785 36.548 175.681 37.676 173.977 37.676C172.489 37.676 171.445 36.836 171.217 35.432H172.045C172.225 36.368 172.945 36.92 173.989 36.92C175.177 36.92 175.969 36.116 175.969 34.904V33.524C175.573 34.34 174.769 34.82 173.773 34.82C172.117 34.82 171.109 33.512 171.109 31.928ZM171.937 31.916C171.937 33.104 172.669 34.076 173.893 34.076C175.153 34.076 175.897 33.164 175.897 31.916C175.897 30.68 175.177 29.768 173.905 29.768C172.657 29.768 171.937 30.74 171.937 31.916ZM179.376 35H178.548V26.252H179.376V35ZM183.573 35.144C181.869 35.144 180.729 33.92 180.729 32.096C180.729 30.284 181.857 29.036 183.513 29.036C185.085 29.036 186.153 30.152 186.153 31.796V32.204H181.533C181.593 33.62 182.337 34.436 183.585 34.436C184.533 34.436 185.145 34.028 185.361 33.26H186.153C185.841 34.484 184.941 35.144 183.573 35.144ZM183.513 29.744C182.421 29.744 181.701 30.464 181.557 31.604H185.325C185.325 30.488 184.605 29.744 183.513 29.744ZM194.489 35.132C192.089 35.132 190.457 33.344 190.457 30.704C190.457 28.064 192.113 26.264 194.537 26.264C196.385 26.264 197.837 27.38 198.185 29.084H197.261C196.901 27.848 195.845 27.092 194.501 27.092C192.617 27.092 191.357 28.532 191.357 30.704C191.357 32.864 192.617 34.304 194.501 34.304C195.857 34.304 196.937 33.572 197.309 32.42H198.233C197.837 34.04 196.337 35.132 194.489 35.132ZM200.353 35H199.525V26.252H200.353V35ZM201.706 32.096C201.706 30.32 202.954 29.036 204.658 29.036C206.362 29.036 207.61 30.32 207.61 32.096C207.61 33.86 206.362 35.144 204.658 35.144C202.954 35.144 201.706 33.86 201.706 32.096ZM202.546 32.084C202.546 33.452 203.41 34.4 204.658 34.4C205.894 34.4 206.77 33.452 206.77 32.084C206.77 30.74 205.894 29.78 204.658 29.78C203.41 29.78 202.546 30.74 202.546 32.084ZM212.874 29.192H213.702V35H212.982L212.874 34.016C212.55 34.688 211.746 35.144 210.834 35.144C209.466 35.144 208.722 34.208 208.722 32.792V29.18H209.562V32.528C209.562 33.908 210.174 34.4 211.098 34.4C212.214 34.4 212.874 33.656 212.874 32.276V29.192ZM217.589 35.144C215.897 35.144 214.901 33.848 214.901 32.108C214.901 30.356 215.897 29.036 217.625 29.036C218.585 29.036 219.353 29.456 219.761 30.296V26.252H220.589V35H219.869L219.785 33.812C219.377 34.712 218.561 35.144 217.589 35.144ZM217.733 34.388C219.005 34.388 219.749 33.428 219.749 32.084C219.749 30.752 219.005 29.78 217.733 29.78C216.473 29.78 215.741 30.752 215.741 32.084C215.741 33.428 216.473 34.388 217.733 34.388Z" fill="#F0F3FA"/>
<rect x="380" y="104" width="160" height="60" rx="8" fill="url(#paint2_linear_1106_4235)"/>
<path d="M414.445 118.903H424.309L414.07 149.241C413.964 149.553 413.764 149.824 413.497 150.016C413.229 150.208 412.909 150.311 412.58 150.311H404.903C404.654 150.311 404.408 150.252 404.187 150.138C403.965 150.024 403.773 149.859 403.628 149.657C403.482 149.454 403.387 149.22 403.35 148.973C403.313 148.727 403.336 148.475 403.415 148.239L412.955 119.973C413.06 119.661 413.261 119.39 413.528 119.198C413.795 119.006 414.116 118.903 414.445 118.903Z" fill="url(#paint3_linear_1106_4235)"/>
<path d="M428.778 139.252H413.137C412.991 139.252 412.849 139.295 412.729 139.377C412.609 139.459 412.516 139.575 412.463 139.71C412.409 139.845 412.398 139.994 412.43 140.135C412.462 140.277 412.536 140.406 412.642 140.505L422.693 149.886C422.986 150.159 423.371 150.311 423.771 150.311H432.628L428.778 139.252Z" fill="#0078D4"/>
<path d="M414.443 118.903C414.111 118.902 413.786 119.007 413.518 119.203C413.249 119.399 413.05 119.676 412.95 119.993L403.425 148.213C403.34 148.45 403.313 148.704 403.347 148.954C403.381 149.203 403.475 149.441 403.62 149.647C403.765 149.853 403.958 150.02 404.182 150.136C404.405 150.252 404.654 150.312 404.906 150.311H412.78C413.073 150.259 413.347 150.129 413.574 149.936C413.801 149.743 413.973 149.493 414.072 149.212L415.971 143.615L422.756 149.943C423.04 150.178 423.397 150.308 423.766 150.311H432.589L428.719 139.252L417.438 139.254L424.343 118.903H414.443Z" fill="url(#paint4_linear_1106_4235)"/>
<path d="M427.041 119.971C426.936 119.66 426.736 119.389 426.469 119.198C426.202 119.006 425.882 118.903 425.553 118.903H414.561C414.889 118.903 415.209 119.006 415.476 119.198C415.743 119.389 415.943 119.66 416.049 119.971L425.589 148.238C425.668 148.475 425.691 148.727 425.654 148.973C425.617 149.22 425.522 149.454 425.376 149.657C425.231 149.859 425.039 150.024 424.818 150.138C424.596 150.252 424.35 150.311 424.101 150.311H435.094C435.343 150.311 435.589 150.252 435.811 150.138C436.033 150.024 436.224 149.859 436.369 149.656C436.515 149.454 436.61 149.22 436.647 148.973C436.684 148.726 436.661 148.475 436.582 148.238L427.041 119.971Z" fill="url(#paint5_linear_1106_4235)"/>
<path d="M449.044 130H448.168L451.324 121.408H452.392L455.584 130H454.684L453.844 127.72H449.884L449.044 130ZM451.744 122.62L450.148 126.964H453.568L451.96 122.62C451.924 122.5 451.864 122.356 451.852 122.272C451.84 122.344 451.792 122.5 451.744 122.62ZM460.582 130H456.202V129.34L459.562 124.888H456.202V124.192H460.582V124.864L457.21 129.304H460.582V130ZM465.999 124.192H466.827V130H466.107L465.999 129.016C465.675 129.688 464.871 130.144 463.959 130.144C462.591 130.144 461.847 129.208 461.847 127.792V124.18H462.687V127.528C462.687 128.908 463.299 129.4 464.223 129.4C465.339 129.4 465.999 128.656 465.999 127.276V124.192ZM471.588 124.12V124.864H471.132C470.064 124.864 469.38 125.584 469.38 126.688V130H468.552V124.192H469.332L469.392 125.092C469.62 124.468 470.232 124.06 471.048 124.06C471.228 124.06 471.384 124.072 471.588 124.12ZM474.902 130.144C473.198 130.144 472.058 128.92 472.058 127.096C472.058 125.284 473.186 124.036 474.842 124.036C476.414 124.036 477.482 125.152 477.482 126.796V127.204H472.862C472.922 128.62 473.666 129.436 474.914 129.436C475.862 129.436 476.474 129.028 476.69 128.26H477.482C477.17 129.484 476.27 130.144 474.902 130.144ZM474.842 124.744C473.75 124.744 473.03 125.464 472.886 126.604H476.654C476.654 125.488 475.934 124.744 474.842 124.744ZM485.818 130.132C483.418 130.132 481.786 128.344 481.786 125.704C481.786 123.064 483.442 121.264 485.866 121.264C487.714 121.264 489.166 122.38 489.514 124.084H488.59C488.23 122.848 487.174 122.092 485.83 122.092C483.946 122.092 482.686 123.532 482.686 125.704C482.686 127.864 483.946 129.304 485.83 129.304C487.186 129.304 488.266 128.572 488.638 127.42H489.562C489.166 129.04 487.666 130.132 485.818 130.132ZM491.681 130H490.853V121.252H491.681V130ZM493.034 127.096C493.034 125.32 494.282 124.036 495.986 124.036C497.69 124.036 498.938 125.32 498.938 127.096C498.938 128.86 497.69 130.144 495.986 130.144C494.282 130.144 493.034 128.86 493.034 127.096ZM493.874 127.084C493.874 128.452 494.738 129.4 495.986 129.4C497.222 129.4 498.098 128.452 498.098 127.084C498.098 125.74 497.222 124.78 495.986 124.78C494.738 124.78 493.874 125.74 493.874 127.084ZM504.202 124.192H505.03V130H504.31L504.202 129.016C503.878 129.688 503.074 130.144 502.162 130.144C500.794 130.144 500.05 129.208 500.05 127.792V124.18H500.89V127.528C500.89 128.908 501.502 129.4 502.426 129.4C503.542 129.4 504.202 128.656 504.202 127.276V124.192ZM508.917 130.144C507.225 130.144 506.229 128.848 506.229 127.108C506.229 125.356 507.225 124.036 508.953 124.036C509.913 124.036 510.681 124.456 511.089 125.296V121.252H511.917V130H511.197L511.113 128.812C510.705 129.712 509.889 130.144 508.917 130.144ZM509.061 129.388C510.333 129.388 511.077 128.428 511.077 127.084C511.077 125.752 510.333 124.78 509.061 124.78C507.801 124.78 507.069 125.752 507.069 127.084C507.069 128.428 507.801 129.388 509.061 129.388ZM448.528 141.64C448.528 140.2 449.68 139.252 451.408 139.252C452.956 139.252 453.976 140.116 454.108 141.556H453.232C453.136 140.584 452.476 140.032 451.396 140.032C450.184 140.032 449.392 140.656 449.392 141.628C449.392 142.384 449.836 142.864 450.736 143.092L452.212 143.452C453.556 143.776 454.252 144.544 454.252 145.708C454.252 147.196 453.1 148.144 451.324 148.144C449.656 148.144 448.528 147.268 448.42 145.864H449.308C449.356 146.764 450.148 147.352 451.324 147.352C452.584 147.352 453.388 146.74 453.388 145.756C453.388 144.988 452.956 144.484 452.032 144.268L450.58 143.908C449.236 143.584 448.528 142.816 448.528 141.64ZM458.062 148.144C456.358 148.144 455.218 146.92 455.218 145.096C455.218 143.284 456.346 142.036 458.002 142.036C459.574 142.036 460.642 143.152 460.642 144.796V145.204H456.022C456.082 146.62 456.826 147.436 458.074 147.436C459.022 147.436 459.634 147.028 459.85 146.26H460.642C460.33 147.484 459.43 148.144 458.062 148.144ZM458.002 142.744C456.91 142.744 456.19 143.464 456.046 144.604H459.814C459.814 143.488 459.094 142.744 458.002 142.744ZM465.002 142.12V142.864H464.546C463.478 142.864 462.794 143.584 462.794 144.688V148H461.966V142.192H462.746L462.806 143.092C463.034 142.468 463.646 142.06 464.462 142.06C464.642 142.06 464.798 142.072 465.002 142.12ZM467.898 148L465.522 142.192H466.41L467.91 145.936C468.066 146.356 468.222 146.752 468.33 147.136C468.438 146.74 468.594 146.356 468.762 145.936L470.286 142.192H471.138L468.726 148H467.898ZM472.522 140.596C472.186 140.596 471.91 140.32 471.91 139.984C471.91 139.648 472.186 139.36 472.522 139.36C472.858 139.36 473.146 139.648 473.146 139.984C473.146 140.32 472.858 140.596 472.522 140.596ZM472.114 148V142.192H472.942V148H472.114ZM474.261 145.108C474.261 143.284 475.377 142.036 477.069 142.036C478.413 142.036 479.397 142.816 479.625 144.016H478.797C478.581 143.212 477.885 142.768 477.081 142.768C475.905 142.768 475.077 143.668 475.077 145.096C475.077 146.476 475.845 147.4 477.021 147.4C477.885 147.4 478.581 146.92 478.809 146.176H479.649C479.373 147.364 478.341 148.144 477.021 148.144C475.377 148.144 474.261 146.932 474.261 145.108ZM483.339 148.144C481.635 148.144 480.495 146.92 480.495 145.096C480.495 143.284 481.623 142.036 483.279 142.036C484.851 142.036 485.919 143.152 485.919 144.796V145.204H481.299C481.359 146.62 482.103 147.436 483.351 147.436C484.299 147.436 484.911 147.028 485.127 146.26H485.919C485.607 147.484 484.707 148.144 483.339 148.144ZM483.279 142.744C482.187 142.744 481.467 143.464 481.323 144.604H485.091C485.091 143.488 484.371 142.744 483.279 142.744ZM486.751 146.368H487.543C487.543 147.04 488.047 147.46 488.863 147.46C489.763 147.46 490.291 147.076 490.291 146.452C490.291 145.972 490.051 145.696 489.367 145.528L488.371 145.276C487.363 145.024 486.871 144.496 486.871 143.704C486.871 142.684 487.723 142.036 488.971 142.036C490.195 142.036 490.987 142.708 491.023 143.788H490.219C490.195 143.116 489.727 142.72 488.947 142.72C488.131 142.72 487.675 143.068 487.675 143.692C487.675 144.136 487.987 144.448 488.623 144.604L489.619 144.856C490.627 145.108 491.083 145.576 491.083 146.416C491.083 147.46 490.195 148.144 488.875 148.144C487.567 148.144 486.751 147.448 486.751 146.368Z" fill="#F0F3FA"/>
<rect x="300" y="300" width="160" height="60" rx="8" fill="url(#paint6_linear_1106_4235)"/>
<g clip-path="url(#clip1_1106_4235)">
<path d="M339.864 310.573C339.52 310.591 339.183 310.679 338.873 310.831L325.351 317.484C325.002 317.656 324.694 317.907 324.452 318.217C324.21 318.527 324.039 318.889 323.952 319.275L320.617 334.219C320.54 334.564 320.531 334.92 320.591 335.268C320.652 335.616 320.78 335.948 320.968 336.244C321.013 336.316 321.062 336.386 321.115 336.454L330.474 348.436C330.716 348.746 331.023 348.997 331.373 349.169C331.723 349.341 332.107 349.43 332.495 349.43L347.504 349.426C347.892 349.427 348.275 349.338 348.625 349.166C348.975 348.994 349.283 348.744 349.525 348.435L358.88 336.45C359.123 336.14 359.294 335.778 359.38 335.391C359.467 335.004 359.467 334.603 359.38 334.216L356.039 319.272C355.953 318.885 355.782 318.523 355.54 318.213C355.298 317.903 354.99 317.653 354.64 317.481L341.117 310.831C340.727 310.639 340.296 310.551 339.864 310.573Z" fill="#326CE5"/>
<path d="M339.997 315.659C339.55 315.659 339.187 316.073 339.188 316.585C339.188 316.593 339.189 316.6 339.189 316.608C339.189 316.677 339.185 316.761 339.188 316.821C339.198 317.116 339.261 317.342 339.298 317.614C339.366 318.196 339.423 318.678 339.388 319.126C339.354 319.295 339.233 319.449 339.125 319.557L339.106 319.909C338.621 319.951 338.132 320.027 337.643 320.141C335.542 320.632 333.733 321.747 332.355 323.252C332.266 323.189 332.109 323.073 332.063 323.038C331.918 323.058 331.772 323.104 331.582 322.99C331.22 322.739 330.89 322.392 330.491 321.975C330.308 321.775 330.176 321.585 329.958 321.393C329.909 321.349 329.834 321.29 329.779 321.245C329.609 321.105 329.408 321.033 329.215 321.026C328.966 321.017 328.726 321.117 328.57 321.32C328.291 321.679 328.38 322.229 328.769 322.548C328.773 322.551 328.777 322.554 328.781 322.557C328.834 322.602 328.899 322.659 328.948 322.696C329.179 322.871 329.39 322.961 329.619 323.1C330.103 323.408 330.505 323.663 330.823 323.971C330.947 324.107 330.969 324.348 330.986 324.452L331.245 324.69C329.856 326.842 329.214 329.5 329.593 332.209L329.255 332.31C329.165 332.429 329.039 332.616 328.907 332.672C328.491 332.807 328.022 332.856 327.456 332.917C327.19 332.94 326.961 332.927 326.68 332.981C326.618 332.994 326.531 333.017 326.463 333.033C326.461 333.034 326.459 333.034 326.457 333.035C326.453 333.036 326.448 333.038 326.444 333.038C325.967 333.157 325.661 333.609 325.76 334.053C325.858 334.498 326.324 334.769 326.804 334.662C326.808 334.662 326.813 334.661 326.816 334.661C326.822 334.659 326.826 334.657 326.832 334.655C326.899 334.64 326.983 334.623 327.041 334.607C327.318 334.531 327.518 334.419 327.767 334.321C328.303 334.123 328.746 333.958 329.178 333.893C329.359 333.879 329.549 334.008 329.644 334.062L329.996 334C330.808 336.592 332.509 338.687 334.664 340.001L334.517 340.364C334.57 340.505 334.628 340.696 334.589 340.836C334.432 341.255 334.163 341.698 333.856 342.191C333.708 342.419 333.556 342.596 333.422 342.857C333.39 342.92 333.349 343.016 333.318 343.082C333.11 343.54 333.263 344.068 333.662 344.266C334.065 344.465 334.564 344.255 334.78 343.796C334.78 343.795 334.781 343.795 334.781 343.794C334.782 343.793 334.781 343.793 334.781 343.792C334.812 343.727 334.856 343.641 334.882 343.58C334.996 343.31 335.034 343.078 335.115 342.816C335.329 342.262 335.447 341.681 335.742 341.319C335.822 341.22 335.954 341.182 336.09 341.144L336.274 340.802C338.152 341.545 340.254 341.744 342.354 341.253C342.833 341.141 343.295 340.996 343.742 340.822C343.794 340.916 343.89 341.097 343.915 341.142C344.054 341.189 344.205 341.213 344.329 341.401C344.549 341.789 344.7 342.248 344.884 342.802C344.964 343.064 345.004 343.296 345.119 343.566C345.145 343.628 345.188 343.714 345.219 343.78C345.435 344.24 345.935 344.451 346.338 344.252C346.738 344.053 346.89 343.526 346.682 343.067C346.651 343.001 346.609 342.905 346.577 342.843C346.443 342.582 346.291 342.407 346.143 342.179C345.836 341.685 345.582 341.275 345.425 340.856C345.359 340.639 345.436 340.505 345.487 340.364C345.457 340.328 345.391 340.124 345.352 340.028C347.591 338.667 349.242 336.494 350.018 333.984C350.123 334.001 350.305 334.034 350.364 334.046C350.486 333.964 350.597 333.856 350.817 333.874C351.249 333.938 351.692 334.103 352.228 334.301C352.477 334.399 352.677 334.513 352.954 334.589C353.013 334.606 353.097 334.621 353.164 334.636C353.169 334.637 353.174 334.64 353.179 334.641C353.183 334.642 353.188 334.642 353.191 334.643C353.671 334.749 354.137 334.479 354.236 334.034C354.334 333.589 354.028 333.137 353.551 333.019C353.481 333.003 353.383 332.975 353.316 332.962C353.034 332.907 352.805 332.92 352.539 332.898C351.973 332.837 351.505 332.787 351.088 332.652C350.919 332.584 350.798 332.376 350.739 332.291L350.412 332.193C350.582 330.93 350.536 329.616 350.243 328.302C349.947 326.975 349.424 325.761 348.726 324.692C348.81 324.614 348.968 324.469 349.013 324.427C349.026 324.277 349.015 324.121 349.165 323.955C349.484 323.647 349.885 323.392 350.369 323.084C350.599 322.945 350.811 322.855 351.042 322.68C351.094 322.64 351.165 322.578 351.22 322.532C351.608 322.213 351.697 321.663 351.419 321.304C351.14 320.944 350.6 320.91 350.212 321.229C350.156 321.274 350.081 321.333 350.032 321.377C349.815 321.569 349.68 321.759 349.497 321.959C349.098 322.376 348.768 322.725 348.406 322.976C348.249 323.07 348.019 323.037 347.915 323.031L347.607 323.257C345.852 321.362 343.462 320.15 340.889 319.915C340.882 319.804 340.872 319.603 340.87 319.542C340.765 319.439 340.637 319.35 340.606 319.126C340.57 318.678 340.629 318.196 340.697 317.614C340.735 317.342 340.797 317.116 340.808 316.821C340.81 316.754 340.806 316.657 340.806 316.585C340.806 316.073 340.444 315.659 339.997 315.659ZM338.983 322.123L338.743 326.494L338.726 326.503C338.71 326.894 338.397 327.207 338.013 327.207C337.856 327.207 337.711 327.155 337.593 327.066L337.586 327.069L334.105 324.528C335.175 323.445 336.543 322.645 338.121 322.276C338.409 322.208 338.697 322.158 338.983 322.123ZM341.012 322.123C342.853 322.356 344.556 323.214 345.861 324.53L342.402 327.055L342.39 327.05C342.083 327.281 341.651 327.224 341.411 326.915C341.313 326.788 341.262 326.639 341.256 326.489L341.252 326.487L341.012 322.123ZM332.843 326.161L336.021 329.089L336.018 329.107C336.305 329.363 336.347 329.809 336.108 330.118C336.01 330.245 335.878 330.33 335.738 330.369L335.734 330.383L331.66 331.594C331.453 329.642 331.899 327.744 332.843 326.161ZM347.128 326.163C347.601 326.951 347.958 327.832 348.171 328.786C348.381 329.729 348.434 330.67 348.347 331.58L344.253 330.366L344.249 330.348C343.882 330.245 343.657 329.86 343.742 329.475C343.777 329.317 343.859 329.184 343.969 329.085L343.967 329.076L347.128 326.163ZM339.345 329.315H340.647L341.456 330.357L341.166 331.657L339.997 332.235L338.824 331.655L338.534 330.355L339.345 329.315ZM343.519 332.88C343.575 332.877 343.63 332.882 343.684 332.892L343.691 332.884L347.905 333.617C347.288 335.401 346.108 336.947 344.531 337.982L342.895 333.913L342.9 333.906C342.75 333.546 342.9 333.124 343.246 332.953C343.335 332.909 343.427 332.885 343.519 332.88ZM336.441 332.898C336.763 332.902 337.051 333.132 337.126 333.469C337.161 333.627 337.144 333.784 337.086 333.922L337.099 333.938L335.48 337.966C333.967 336.966 332.761 335.468 332.116 333.631L336.294 332.901L336.301 332.91C336.348 332.901 336.395 332.897 336.441 332.898ZM339.971 334.662C340.083 334.658 340.197 334.682 340.305 334.735C340.446 334.806 340.556 334.916 340.625 335.049H340.64L342.7 338.881C342.432 338.973 342.158 339.052 341.877 339.118C340.301 339.486 338.731 339.374 337.31 338.876L339.364 335.051H339.367C339.491 334.813 339.724 334.672 339.971 334.662Z" fill="white" stroke="white" stroke-width="0.0142457"/>
</g>
<path d="M369.908 326.408V331.58L374.048 326.408H375.08L372.164 330.044L375.128 335H374.12L371.6 330.764L369.908 332.864V335H369.044V326.408H369.908ZM380.022 329.192H380.85V335H380.13L380.022 334.016C379.698 334.688 378.894 335.144 377.982 335.144C376.614 335.144 375.87 334.208 375.87 332.792V329.18H376.71V332.528C376.71 333.908 377.322 334.4 378.246 334.4C379.362 334.4 380.022 333.656 380.022 332.276V329.192ZM383.295 335H382.575V326.252H383.403V330.32C383.811 329.468 384.603 329.036 385.587 329.036C387.279 329.036 388.263 330.356 388.263 332.108C388.263 333.848 387.255 335.144 385.563 335.144C384.591 335.144 383.787 334.712 383.379 333.812L383.295 335ZM383.415 332.084C383.415 333.428 384.159 334.388 385.431 334.388C386.691 334.388 387.423 333.428 387.423 332.084C387.423 330.752 386.691 329.78 385.431 329.78C384.159 329.78 383.415 330.752 383.415 332.084ZM392.019 335.144C390.315 335.144 389.175 333.92 389.175 332.096C389.175 330.284 390.303 329.036 391.959 329.036C393.531 329.036 394.599 330.152 394.599 331.796V332.204H389.979C390.039 333.62 390.783 334.436 392.031 334.436C392.979 334.436 393.591 334.028 393.807 333.26H394.599C394.287 334.484 393.387 335.144 392.019 335.144ZM391.959 329.744C390.867 329.744 390.147 330.464 390.003 331.604H393.771C393.771 330.488 393.051 329.744 391.959 329.744ZM398.959 329.12V329.864H398.503C397.435 329.864 396.751 330.584 396.751 331.688V335H395.923V329.192H396.703L396.763 330.092C396.991 329.468 397.603 329.06 398.419 329.06C398.599 329.06 398.755 329.072 398.959 329.12ZM400.887 335H400.059V329.192H400.779L400.899 330.2C401.283 329.456 402.051 329.036 402.891 329.036C404.487 329.036 405.147 329.984 405.147 331.448V335H404.319V331.628C404.319 330.272 403.707 329.792 402.747 329.792C401.559 329.792 400.887 330.656 400.887 331.964V335ZM409.234 335.144C407.53 335.144 406.39 333.92 406.39 332.096C406.39 330.284 407.518 329.036 409.174 329.036C410.746 329.036 411.814 330.152 411.814 331.796V332.204H407.194C407.254 333.62 407.998 334.436 409.246 334.436C410.194 334.436 410.806 334.028 411.022 333.26H411.814C411.502 334.484 410.602 335.144 409.234 335.144ZM409.174 329.744C408.082 329.744 407.362 330.464 407.218 331.604H410.986C410.986 330.488 410.266 329.744 409.174 329.744ZM414.411 335H413.595V329.888H412.431V329.192H413.595V327.356H414.411V329.192H415.575V329.888H414.411V335ZM419.03 335.144C417.326 335.144 416.186 333.92 416.186 332.096C416.186 330.284 417.314 329.036 418.97 329.036C420.542 329.036 421.61 330.152 421.61 331.796V332.204H416.99C417.05 333.62 417.794 334.436 419.042 334.436C419.99 334.436 420.602 334.028 420.818 333.26H421.61C421.298 334.484 420.398 335.144 419.03 335.144ZM418.97 329.744C417.878 329.744 417.158 330.464 417.014 331.604H420.782C420.782 330.488 420.062 329.744 418.97 329.744ZM422.442 333.368H423.234C423.234 334.04 423.738 334.46 424.554 334.46C425.454 334.46 425.982 334.076 425.982 333.452C425.982 332.972 425.742 332.696 425.058 332.528L424.062 332.276C423.054 332.024 422.562 331.496 422.562 330.704C422.562 329.684 423.414 329.036 424.662 329.036C425.886 329.036 426.678 329.708 426.714 330.788H425.91C425.886 330.116 425.418 329.72 424.638 329.72C423.822 329.72 423.366 330.068 423.366 330.692C423.366 331.136 423.678 331.448 424.314 331.604L425.31 331.856C426.318 332.108 426.774 332.576 426.774 333.416C426.774 334.46 425.886 335.144 424.566 335.144C423.258 335.144 422.442 334.448 422.442 333.368Z" fill="#F0F3FA"/>
<path fill-rule="evenodd" clip-rule="evenodd" d="M311.577 156.019L270.005 180.02L270.008 228.02L311.577 204.019V156.019Z" fill="url(#paint7_linear_1106_4235)"/>
<path fill-rule="evenodd" clip-rule="evenodd" d="M228.433 156.019L270.005 180.02L270.002 228.02L228.433 204.019V156.019Z" fill="url(#paint8_linear_1106_4235)"/>
<path fill-rule="evenodd" clip-rule="evenodd" d="M311.572 156.02L270.008 180.02L228.434 156.02L270.002 132.02L311.572 156.02Z" fill="url(#paint9_linear_1106_4235)"/>
<g clip-path="url(#clip2_1106_4235)">
<path fill-rule="evenodd" clip-rule="evenodd" d="M289.208 169.112L289.21 169.111L279.761 163.656L270.315 158.202L260.866 163.656L251.42 169.111L251.42 169.112V190.929L260.867 196.383L270.315 201.838V201.839L276.36 198.351L276.36 198.351L276.36 198.351V190.929L270.315 194.42L264.079 190.82L257.846 187.221V172.822L264.079 169.223L270.315 165.624L276.549 169.223L282.785 172.822V201.838L282.785 201.838L282.785 201.84L289.211 198.132V169.113L289.208 169.112ZM270.315 187.001L276.36 183.51V176.532L270.315 173.042L264.271 176.532V183.51L270.315 187.001Z" fill="white"/>
</g>
</g>
<defs>
<filter id="filter0_f_1106_4235" x="90" y="0" width="360" height="360" filterUnits="userSpaceOnUse" color-interpolation-filters="sRGB">
<feFlood flood-opacity="0" result="BackgroundImageFix"/>
<feBlend mode="normal" in="SourceGraphic" in2="BackgroundImageFix" result="shape"/>
<feGaussianBlur stdDeviation="60" result="effect1_foregroundBlur_1106_4235"/>
</filter>
<linearGradient id="paint0_linear_1106_4235" x1="80" y1="196" x2="80" y2="256" gradientUnits="userSpaceOnUse">
<stop stop-color="#161E33"/>
<stop offset="1" stop-color="#0E1424"/>
</linearGradient>
<linearGradient id="paint1_linear_1106_4235" x1="160" y1="0" x2="160" y2="60" gradientUnits="userSpaceOnUse">
<stop stop-color="#161E33"/>
<stop offset="1" stop-color="#0E1424"/>
</linearGradient>
<linearGradient id="paint2_linear_1106_4235" x1="460" y1="104" x2="460" y2="164" gradientUnits="userSpaceOnUse">
<stop stop-color="#161E33"/>
<stop offset="1" stop-color="#0E1424"/>
</linearGradient>
<linearGradient id="paint3_linear_1106_4235" x1="418.04" y1="121.23" x2="407.797" y2="151.492" gradientUnits="userSpaceOnUse">
<stop stop-color="#114A8B"/>
<stop offset="1" stop-color="#0669BC"/>
</linearGradient>
<linearGradient id="paint4_linear_1106_4235" x1="421.238" y1="135.333" x2="418.869" y2="136.134" gradientUnits="userSpaceOnUse">
<stop stop-opacity="0.3"/>
<stop offset="0.071" stop-opacity="0.2"/>
<stop offset="0.321" stop-opacity="0.1"/>
<stop offset="0.623" stop-opacity="0.05"/>
<stop offset="1" stop-opacity="0"/>
</linearGradient>
<linearGradient id="paint5_linear_1106_4235" x1="419.935" y1="120.348" x2="431.179" y2="150.305" gradientUnits="userSpaceOnUse">
<stop stop-color="#3CCBF4"/>
<stop offset="1" stop-color="#2892DF"/>
</linearGradient>
<linearGradient id="paint6_linear_1106_4235" x1="380" y1="300" x2="380" y2="360" gradientUnits="userSpaceOnUse">
<stop stop-color="#161E33"/>
<stop offset="1" stop-color="#0E1424"/>
</linearGradient>
<linearGradient id="paint7_linear_1106_4235" x1="290.791" y1="156.019" x2="290.791" y2="228.02" gradientUnits="userSpaceOnUse">
<stop stop-color="#161E33"/>
<stop offset="1" stop-color="#0E1424"/>
</linearGradient>
<linearGradient id="paint8_linear_1106_4235" x1="249.219" y1="156.019" x2="249.219" y2="228.02" gradientUnits="userSpaceOnUse">
<stop stop-color="#161E33"/>
<stop offset="1" stop-color="#0E1424"/>
</linearGradient>
<linearGradient id="paint9_linear_1106_4235" x1="270.003" y1="132.02" x2="270.003" y2="180.02" gradientUnits="userSpaceOnUse">
<stop stop-color="#2F3F6D"/>
<stop offset="0.355174" stop-color="#233053"/>
<stop offset="1" stop-color="#0E1424"/>
</linearGradient>
<clipPath id="clip0_1106_4235">
<rect width="540" height="360" fill="white"/>
</clipPath>
<clipPath id="clip1_1106_4235">
<rect width="40" height="40" fill="white" transform="translate(320 310)"/>
</clipPath>
<clipPath id="clip2_1106_4235">
<rect width="37.6364" height="43.6364" fill="white" transform="translate(251.42 158.202)"/>
</clipPath>
</defs>
</svg>
