<?xml version="1.0" encoding="UTF-8" standalone="no"?>
<!-- Generator: Adobe Illustrator 19.0.0, SVG Export Plug-In . SVG Version: 6.00 Build 0)  -->

<svg
   version="1.1"
   id="Layer_1"
   x="0px"
   y="0px"
   viewBox="0 0 511.999 511.999"
   style="enable-background:new 0 0 511.999 511.999;"
   xml:space="preserve"
   sodipodi:docname="icon.svg"
   inkscape:version="1.2.2 (b0a8486541, 2022-12-01)"
   xmlns:inkscape="http://www.inkscape.org/namespaces/inkscape"
   xmlns:sodipodi="http://sodipodi.sourceforge.net/DTD/sodipodi-0.dtd"
   xmlns="http://www.w3.org/2000/svg"
   xmlns:svg="http://www.w3.org/2000/svg"><defs
   id="defs107" /><sodipodi:namedview
   id="namedview105"
   pagecolor="#ffffff"
   bordercolor="#666666"
   borderopacity="1.0"
   inkscape:showpageshadow="2"
   inkscape:pageopacity="0.0"
   inkscape:pagecheckerboard="true"
   inkscape:deskcolor="#d1d1d1"
   showgrid="false"
   inkscape:zoom="1.7011752"
   inkscape:cx="240.71594"
   inkscape:cy="256.58733"
   inkscape:window-width="2560"
   inkscape:window-height="1048"
   inkscape:window-x="0"
   inkscape:window-y="32"
   inkscape:window-maximized="1"
   inkscape:current-layer="Layer_1" />
<g
   id="g6"
   style="fill:#ffffff">
	<g
   id="g4"
   style="fill:#ffffff">
		<path
   d="M255.999,158.371c-21.879,0-39.677,17.799-39.677,39.677c0,21.879,17.799,39.677,39.677,39.677    s39.677-17.799,39.677-39.677C295.677,176.169,277.878,158.371,255.999,158.371z M255.999,220.338    c-12.292,0-22.291-9.999-22.291-22.291s9.999-22.291,22.291-22.291c12.292,0,22.291,9.999,22.291,22.291    S268.291,220.338,255.999,220.338z"
   id="path2"
   style="fill:#ffffff" />
	</g>
</g>
<g
   id="g12"
   style="fill:#ffffff">
	<g
   id="g10"
   style="fill:#ffffff">
		<circle
   cx="113.623"
   cy="61.859"
   r="14.094"
   id="circle8"
   style="fill:#ffffff" />
	</g>
</g>
<g
   id="g18"
   style="fill:#ffffff">
	<g
   id="g16"
   style="fill:#ffffff">
		<circle
   cx="398.383"
   cy="61.859"
   r="14.094"
   id="circle14"
   style="fill:#ffffff" />
	</g>
</g>
<g
   id="g24"
   style="fill:#ffffff">
	<g
   id="g22"
   style="fill:#ffffff">
		<circle
   cx="113.623"
   cy="334.241"
   r="14.094"
   id="circle20"
   style="fill:#ffffff" />
	</g>
</g>
<g
   id="g30"
   style="fill:#ffffff">
	<g
   id="g28"
   style="fill:#ffffff">
		<circle
   cx="398.383"
   cy="334.241"
   r="14.094"
   id="circle26"
   style="fill:#ffffff" />
	</g>
</g>
<g
   id="g36"
   style="fill:#ffffff">
	<g
   id="g34"
   style="fill:#ffffff">
		<path
   d="M255.999,406.41c-4.801,0-8.693,3.892-8.693,8.693v61.97c0,4.801,3.892,8.693,8.693,8.693    c4.801,0,8.693-3.892,8.693-8.693v-61.97C264.692,410.302,260.8,406.41,255.999,406.41z"
   id="path32"
   style="fill:#ffffff" />
	</g>
</g>
<g
   id="g42"
   style="fill:#ffffff">
	<g
   id="g40"
   style="fill:#ffffff">
		<path
   d="M289.745,406.41c-4.801,0-8.693,3.892-8.693,8.693v61.97c0,4.801,3.892,8.693,8.693,8.693s8.693-3.892,8.693-8.693v-61.97    C298.438,410.302,294.545,406.41,289.745,406.41z"
   id="path38"
   style="fill:#ffffff" />
	</g>
</g>
<g
   id="g48"
   style="fill:#ffffff">
	<g
   id="g46"
   style="fill:#ffffff">
		<path
   d="M323.49,406.41c-4.801,0-8.693,3.892-8.693,8.693v61.97c0,4.801,3.892,8.693,8.693,8.693c4.801,0,8.693-3.892,8.693-8.693    v-61.97C332.183,410.302,328.291,406.41,323.49,406.41z"
   id="path44"
   style="fill:#ffffff" />
	</g>
</g>
<g
   id="g54"
   style="fill:#ffffff">
	<g
   id="g52"
   style="fill:#ffffff">
		<path
   d="M357.234,406.41c-4.801,0-8.693,3.892-8.693,8.693v61.97c0,4.801,3.892,8.693,8.693,8.693    c4.801,0,8.693-3.892,8.693-8.693v-61.97C365.927,410.302,362.036,406.41,357.234,406.41z"
   id="path50"
   style="fill:#ffffff" />
	</g>
</g>
<g
   id="g60"
   style="fill:#ffffff">
	<g
   id="g58"
   style="fill:#ffffff">
		<path
   d="M390.979,406.41c-4.801,0-8.693,3.892-8.693,8.693v61.97c0,4.801,3.892,8.693,8.693,8.693    c4.801,0,8.693-3.892,8.693-8.693v-61.97C399.672,410.302,395.78,406.41,390.979,406.41z"
   id="path56"
   style="fill:#ffffff" />
	</g>
</g>
<g
   id="g66"
   style="fill:#ffffff">
	<g
   id="g64"
   style="fill:#ffffff">
		<path
   d="M420.744,0H91.255C68.446,0,49.889,18.557,49.889,41.366v313.36v115.907c0,22.809,18.557,41.366,41.366,41.366h329.488    c22.809,0,41.366-18.557,41.366-41.366V354.726V41.366C462.11,18.557,443.553,0,420.744,0z M444.724,470.634    c0,13.223-10.757,23.98-23.98,23.98H91.255c-13.223,0-23.98-10.757-23.98-23.98v-82.219c5.092,3.634,11.004,6.093,17.176,7.116    c2.245,0.372,4.529,0.562,6.804,0.562h329.488c6.558,0,13.113-1.582,18.935-4.602c1.751-0.908,3.44-1.931,5.045-3.076V470.634z     M444.724,354.726c0,13.223-10.757,23.98-23.98,23.98H91.255c-13.223,0-23.98-10.757-23.98-23.98V41.366    c0-13.223,10.757-23.98,23.98-23.98h329.488c13.223,0,23.98,10.757,23.98,23.98V354.726z"
   id="path62"
   style="fill:#ffffff" />
	</g>
</g>
<g
   id="g72"
   style="fill:#ffffff">
	<g
   id="g70"
   style="fill:#ffffff">
		<path
   d="M359.385,287.909c21.737-24.921,33.594-56.45,33.594-89.863c0-75.531-61.449-136.98-136.98-136.98    s-136.98,61.449-136.98,136.98s61.449,136.98,136.98,136.98c9.528,0,19.009-1.003,28.282-2.95c0,0,5.674,10.747,5.675,10.749    c7.71,14.604,23.258,24.022,39.787,24.022c16.543,0,31.719-9.025,39.604-23.553C379.576,324.448,374.905,301.457,359.385,287.909z     M255.999,317.643c-65.944,0-119.594-53.65-119.594-119.594s53.65-119.595,119.594-119.595s119.594,53.65,119.594,119.594    c0,30.092-11.017,58.437-31.155,80.502l-5.118-2.777l-55.08-29.893c-6.337-3.38-14.347-3.429-20.677-0.088    c-9.211,4.863-13.523,15.391-10.957,25.057c0.231,0.869,0.497,1.734,0.841,2.585c0.278,0.687,0.593,1.367,0.947,2.036    l21.401,40.537C269.273,317.093,262.649,317.643,255.999,317.643z M354.068,335.001c-4.841,8.92-14.161,14.461-24.323,14.461    c-10.112,0-19.705-5.803-24.406-14.741L269.77,267.35c-0.294-0.559-0.461-1.15-0.512-1.743c-0.151-1.777,0.75-3.56,2.436-4.448    c1.2-0.62,3.133-0.753,4.309,0.03l65.961,35.799l0.994,0.54C356.354,304.797,361.337,321.608,354.068,335.001z"
   id="path68"
   style="fill:#ffffff" />
	</g>
</g>
<g
   id="g74">
</g>
<g
   id="g76">
</g>
<g
   id="g78">
</g>
<g
   id="g80">
</g>
<g
   id="g82">
</g>
<g
   id="g84">
</g>
<g
   id="g86">
</g>
<g
   id="g88">
</g>
<g
   id="g90">
</g>
<g
   id="g92">
</g>
<g
   id="g94">
</g>
<g
   id="g96">
</g>
<g
   id="g98">
</g>
<g
   id="g100">
</g>
<g
   id="g102">
</g>
</svg>
