<svg preserveAspectRatio="none" width="100%" height="100%" overflow="visible" style="display: block;" viewBox="0 0 129.5 20.6288" fill="none" xmlns="http://www.w3.org/2000/svg">
<g id="Vector">
<path fill-rule="evenodd" clip-rule="evenodd" d="M0 2.33792L0.669762 1.40961C0.818598 1.23907 1.19282 0.87877 1.499 0.802023C1.63216 0.768644 2.23962 0.665023 2.99734 0.535772C3.98188 0.367829 5.2201 0.156615 6.00109 0L5.58137 0.578172V6.39828L7.75013 4.22373C8.22852 3.71207 9.50431 3.45624 10.2378 4.06383C10.7165 4.46031 11.12 4.87782 11.4029 5.17065C11.5479 5.32062 11.6612 5.43789 11.7368 5.50288C12.2636 5.9742 12.5689 5.94954 13.1082 5.50288C13.8418 4.89528 14.99 4.92726 15.6597 5.59881L17.1906 7.16576C17.8285 7.87995 18.9128 9.81998 18.3388 12.2184C18.2559 12.5644 18.1863 12.7396 18.0845 12.9956C18.0553 13.069 18.0235 13.149 17.988 13.2417L18.8086 16.685L18.0199 20.6288H16.1062L17.1401 16.685L16.1062 13.2417L14.5434 20.6288H12.6298L14.1926 13.2417H10.1741L11.7368 20.6288H9.85508L8.26041 13.2417L7.43243 16.685L8.26041 20.6288H6.4106L5.76393 16.685L6.4106 13.2417C5.44316 12.6554 3.4764 10.8049 3.34882 8.09314C3.22125 5.38136 3.29566 3.59482 3.34882 3.04053C3.32497 3.04127 3.29944 3.04223 3.27243 3.04324C2.91435 3.05667 2.29691 3.07982 1.88172 2.75271C1.14817 2.94459 0.414612 2.65771 0 2.33792ZM3.27673 1.4196L3.72324 0.989631L4.16975 1.4196L3.72324 1.88265L3.27673 1.4196Z" fill="var(--fill-0, #B4BACC)"/>
<path d="M22.1092 12.8636C22.1092 10.8313 22.752 9.16193 24.0378 7.85541C24.6392 7.24018 25.3374 6.74938 26.1323 6.38301C27.4803 5.76778 29.046 5.46017 30.8295 5.46017C31.7558 5.46017 32.575 5.53274 33.2869 5.67792C33.999 5.81616 34.8389 6.07885 35.8066 6.46596L35.9311 6.69408C35.7859 7.3093 35.6235 8.3946 35.4437 9.94995H34.6142L34.5105 8.125C34.0058 7.64803 33.5462 7.31622 33.1314 7.12958C32.4263 6.8116 31.6279 6.6526 30.7362 6.6526C28.8214 6.6526 27.3731 7.32659 26.3916 8.67458C25.6588 9.67687 25.2924 10.973 25.2924 12.5629C25.2924 14.4155 25.7694 15.926 26.7233 17.0942C27.8709 18.5044 29.4573 19.2095 31.4828 19.2095C32.8653 19.2095 34.2444 18.8465 35.62 18.1208L35.8689 18.38L35.4022 19.4168C34.8078 19.7417 34.31 19.9699 33.9091 20.1012C32.9275 20.4261 31.8318 20.5885 30.6222 20.5885C28.8386 20.5885 27.2972 20.2636 25.9976 19.6138C25.1058 19.1714 24.3385 18.5562 23.6956 17.7682C22.6379 16.4686 22.1092 14.8338 22.1092 12.8636Z" fill="var(--fill-0, #B4BACC)"/>
<path d="M37.1971 20.5885V19.4998L37.8296 19.4376C38.2927 19.3961 38.6903 18.971 39.022 18.1622L42.8689 8.86119L44.0821 5.65718H45.5856L51.0812 18.5044C51.3231 19.0574 51.7137 19.3684 52.2529 19.4376L52.7609 19.4998V20.5885C50.9084 20.5471 49.8051 20.5885 49.4249 20.5885C49.0033 20.5885 47.9118 20.5471 46.1766 20.5885V19.4998L47.3069 19.4376C47.4244 19.4307 47.5212 19.372 47.5972 19.2613C47.6801 19.1507 47.7216 19.0194 47.7216 18.8673C47.7216 18.6738 47.6801 18.4768 47.5972 18.2762L46.6433 15.8499H41.3136L40.4219 18.2244C40.3596 18.4041 40.3285 18.5804 40.3285 18.7533C40.3285 18.9399 40.3838 19.0989 40.4944 19.2302C40.612 19.3616 40.7606 19.4307 40.9403 19.4376L41.998 19.4998V20.59C41.4587 20.5762 41.0233 20.596 40.7536 20.5891C40.1799 20.5683 39.7882 20.5885 39.5738 20.5885H37.1971ZM41.832 14.6575H46.1559L43.9473 9.26559L41.832 14.6575Z" fill="var(--fill-0, #B4BACC)"/>
<path d="M53.9648 20.5885V19.4998L54.7528 19.4376C55.1676 19.403 55.4337 19.3166 55.5512 19.1784C55.6964 19.0124 55.769 18.4041 55.769 17.3535V8.6953C55.769 7.74826 55.7171 7.17451 55.6134 6.97404C55.5167 6.76666 55.2297 6.64569 54.7528 6.61113L53.9648 6.54891V5.76087L55.0431 5.79198C55.7482 5.81271 56.1526 5.82308 56.2563 5.82308H56.5155L59.0663 5.76087C59.8682 7.50286 60.397 8.64347 60.6528 9.18265L64.0124 16.1921L67.8904 8.15611C68.0839 7.77591 68.433 6.9775 68.9376 5.76087C70.4101 5.80234 71.2222 5.82308 71.3744 5.82308C71.5333 5.82308 72.356 5.80234 73.8422 5.76087V6.54891L73.0541 6.61113C72.6393 6.64569 72.3698 6.7321 72.2453 6.87035C72.1071 7.03626 72.0379 7.64457 72.0379 8.6953V17.3535C72.0379 18.3074 72.0829 18.8742 72.1728 19.0539C72.2626 19.2268 72.5564 19.3339 73.0541 19.3754L73.8422 19.4376V20.5885C72.2592 20.5471 71.169 20.5885 70.5469 20.5885C69.9178 20.5885 68.8063 20.5471 67.2371 20.5885V19.4376L68.0251 19.3754C68.4675 19.3409 68.7406 19.2648 68.8443 19.1473C68.9756 19.0021 69.0413 18.4041 69.0413 17.3535V8.51903L64.6656 17.6334C64.1126 18.7809 63.6875 19.7141 63.3902 20.4331H62.6748C62.3015 19.5482 62.0457 18.9606 61.9074 18.6703L57.0237 8.49829V17.3535C57.0237 18.3005 57.072 18.8777 57.1688 19.0851C57.2655 19.2855 57.5559 19.403 58.0398 19.4376L58.8278 19.4998V20.5885C57.5695 20.5885 56.7906 20.5885 56.3898 20.5885C55.9819 20.5885 55.2022 20.5471 53.9648 20.5885Z" fill="var(--fill-0, #B4BACC)"/>
<path d="M75.4721 6.54891V5.76087C77.3661 5.80234 78.7003 5.82308 79.4745 5.82308C80.1243 5.82308 81.0437 5.80925 82.2327 5.7816C83.2489 5.76087 84.0127 5.7505 84.5242 5.7505C85.2293 5.7505 85.8997 5.77469 86.5358 5.82308L86.6604 5.96825L86.3699 8.99596H85.6024L85.4365 7.39917C85.4227 7.28857 85.2155 7.19525 84.8146 7.11921C84.4206 7.03626 83.9401 6.99478 83.3733 6.99478C82.2742 6.99478 81.2407 7.01552 80.273 7.05699V12.1586C80.6324 12.1862 81.1059 12.2 81.6935 12.2H83.0933C83.5495 12.2 83.8606 12.1689 84.0265 12.1067C84.1925 12.0445 84.2857 11.9269 84.3065 11.7542L84.4309 10.541H85.2811C85.2743 10.8797 85.2674 11.1355 85.2604 11.3083C85.2327 12.0064 85.219 12.4316 85.219 12.5837C85.219 12.7012 85.219 12.7773 85.219 12.8118L85.2811 15.1033H84.4309L84.3065 14.0458C84.2719 13.7623 84.1614 13.5618 83.9747 13.4443C83.7881 13.3199 83.4943 13.2577 83.0933 13.2577H81.6935C81.2718 13.2577 80.7983 13.2784 80.273 13.3199V18.9917C81.3099 19.0471 82.2396 19.0747 83.0622 19.0747C84.1268 19.0747 84.9459 18.9676 85.5198 18.7533C85.5542 18.7394 85.5748 18.7222 85.5817 18.7014L86.0691 16.7002H86.8985L86.6604 20.0598L86.6003 20.5988C85.6118 20.661 84.5351 20.6058 83.5327 20.6058C82.482 20.6058 81.3418 20.6386 80.1114 20.5972C79.5376 20.5764 79.0865 20.5885 78.7547 20.5885C78.2777 20.5885 77.4422 20.5471 76.1771 20.5885V19.8005L76.8512 19.4168C77.1346 19.2579 77.2763 18.8535 77.2763 18.2037V8.6953C77.2763 7.74826 77.2245 7.17451 77.1207 6.97404C77.0239 6.77357 76.7371 6.6526 76.2602 6.61113L75.4721 6.54891Z" fill="var(--fill-0, #B4BACC)"/>
<path d="M88.4543 6.61113V5.76087C90.1613 5.80234 91.2606 5.82308 91.7514 5.82308C92.2353 5.82308 93.3381 5.80234 95.0588 5.76087V6.61113L94.2715 6.67334C93.822 6.7079 93.5452 6.78395 93.4412 6.90146C93.3174 7.05354 93.2547 7.65148 93.2547 8.6953V18.9917C94.2569 19.0471 95.1869 19.0747 96.0439 19.0747C97.1294 19.0747 97.9486 18.9676 98.5021 18.7533C98.5365 18.7394 98.5571 18.7222 98.564 18.7014L99.0513 16.5342H99.8464L99.6427 20.0598L99.5189 20.5972C98.5296 20.6594 97.5128 20.5972 96.5097 20.5972C95.4594 20.5972 94.3781 20.6387 93.1481 20.5972C92.574 20.5764 92.0643 20.5972 91.7325 20.5972C91.2554 20.5972 90.4243 20.5557 89.1591 20.5972V19.8005L89.8329 19.4168C90.1166 19.2579 90.2584 18.8569 90.2584 18.214V8.6953C90.2584 7.74826 90.2137 7.18488 90.1234 7.00515C90.0341 6.82542 89.7401 6.71481 89.2424 6.67334L88.4543 6.61113Z" fill="var(--fill-0, #B4BACC)"/>
<path d="M100.453 13.6405C100.511 13.4675 100.574 13.2862 100.64 13.0967C100.751 12.7877 100.835 12.5385 100.889 12.349H105.271L105.383 12.4788C105.183 12.9401 105.048 13.3604 104.978 13.7393H100.553L100.453 13.6405Z" fill="var(--fill-0, #B4BACC)"/>
<path d="M105.989 20.6269V19.5295L106.622 19.4673C107.085 19.4258 107.482 19.0007 107.814 18.1919L111.661 8.89084L112.878 5.46018H114.395L119.873 18.5341C120.116 19.0871 120.506 19.3982 121.045 19.4673L121.553 19.5295V20.6269C119.704 20.6269 118.576 20.6269 118.196 20.6269C117.774 20.6269 116.67 20.6269 114.969 20.6269V19.5295L116.099 19.4673C116.217 19.4603 116.313 19.4016 116.39 19.291C116.472 19.1804 116.513 19.049 116.513 18.897C116.513 18.7034 116.472 18.5064 116.39 18.306L115.436 15.8796H110.106L109.214 18.2541C109.152 18.4338 109.121 18.6101 109.121 18.7829C109.121 18.9695 109.176 19.1286 109.287 19.2599C109.404 19.3912 109.553 19.4603 109.733 19.4673L110.79 19.5295V20.6269C110.251 20.613 109.854 20.6338 109.584 20.6269C108.992 20.6269 108.559 20.6269 108.345 20.6269H105.989ZM110.624 14.6871H114.948L112.739 9.29524L110.624 14.6871Z" fill="var(--fill-0, #B4BACC)"/>
<path d="M122.902 20.6269V19.4673L123.69 19.4051C124.132 19.3705 124.406 19.2944 124.51 19.1769C124.64 19.0318 124.706 18.4338 124.706 17.3831V8.72495C124.706 7.77794 124.662 6.89855 124.571 6.71882C124.482 6.53909 124.188 6.42849 123.69 6.38702L122.927 6.31337V5.46017C124.633 5.46017 125.722 5.46017 126.213 5.46017C126.697 5.46017 127.786 5.46017 129.5 5.46017V6.31337L128.72 6.38702C128.27 6.42158 127.993 6.49761 127.889 6.61514C127.765 6.76721 127.703 7.68116 127.703 8.72495V17.3831C127.703 18.337 127.748 18.9039 127.838 19.0836C127.928 19.2565 128.221 19.3636 128.72 19.4051L129.5 19.4591V20.6283C127.944 20.6283 126.814 20.6269 126.164 20.6269C125.508 20.6269 124.444 20.6269 122.902 20.6269Z" fill="var(--fill-0, #B4BACC)"/>
</g>
</svg>
