<svg preserveAspectRatio="none" width="100%" height="100%" overflow="visible" style="display: block;" viewBox="0 0 119 30.022" fill="none" xmlns="http://www.w3.org/2000/svg">
<g id="Vector">
<path fill-rule="evenodd" clip-rule="evenodd" d="M37.1228 8.45654C34.9285 8.45654 33.2756 10.1147 33.2756 12.0146V13.9866C33.2756 15.8865 34.9314 17.5447 37.1228 17.5447C38.1998 17.5447 38.9514 17.228 40.0427 16.4392C40.6475 16.0017 41.497 16.1341 41.9376 16.7357C42.3782 17.3374 42.2429 18.1808 41.6381 18.6184C40.2761 19.6029 38.9744 20.2391 37.1228 20.2391C33.5664 20.242 30.5629 17.5101 30.5629 13.9894V12.0175C30.5629 8.49685 33.5664 5.76208 37.1228 5.76208C38.9744 5.76208 40.2761 6.40115 41.6381 7.38279C42.2429 7.82039 42.3782 8.66381 41.9376 9.26547C41.497 9.86713 40.6475 9.99954 40.0427 9.56201C38.9514 8.77323 38.1998 8.45654 37.1228 8.45654ZM50.4441 8.45654C48.3102 8.45654 46.5825 10.1752 46.5825 12.2968V13.739C46.5825 15.8606 48.3131 17.5792 50.4441 17.5792C52.575 17.5792 54.2769 15.8693 54.2769 13.739V12.2968C54.2769 10.1636 52.5664 8.45654 50.4441 8.45654ZM43.8698 12.2968C43.8698 8.68687 46.8128 5.76208 50.4441 5.76208C54.0753 5.76208 56.9896 8.69837 56.9896 12.2996V13.7418C56.9896 17.3402 54.0868 20.2794 50.4441 20.2794C46.8013 20.2794 43.8698 17.3518 43.8698 13.7418V12.2968ZM65.9798 8.52849C63.8432 8.52849 62.1183 10.2442 62.1183 12.3515C62.1183 14.4587 63.8432 16.1744 65.9798 16.1744C68.1162 16.1744 69.813 14.4702 69.813 12.3515C69.813 10.2327 68.1081 8.52849 65.9798 8.52849ZM59.4056 12.3515C59.4056 8.74733 62.3543 5.83405 65.9798 5.83405C67.5233 5.83405 68.9345 6.36086 70.049 7.24173L71.0654 6.23131C71.5949 5.70451 72.453 5.70451 72.9832 6.23131C73.5127 6.75812 73.5127 7.61022 72.9832 8.13702L71.7822 9.32884C72.2576 10.2327 72.5254 11.2633 72.5254 12.3515C72.5254 15.9441 69.6196 18.8688 65.9798 18.8688C65.9424 18.8688 65.9079 18.8688 65.8704 18.8688H62.9907C62.507 18.8688 62.1183 19.2575 62.1183 19.7382C62.1183 20.219 62.5099 20.6076 62.9907 20.6076H67.8978C68.877 20.6076 69.8874 20.8782 70.7022 21.5173C71.5435 22.1794 72.0764 23.1582 72.171 24.3614C72.3381 26.4917 70.8348 27.9455 69.6141 28.4146L66.216 29.9058C65.5306 30.2081 64.7301 29.9001 64.4277 29.2178C64.1254 28.5385 64.4364 27.741 65.1188 27.4417L68.5511 25.9361C68.5774 25.9246 68.6032 25.9131 68.6289 25.9044C68.7729 25.8526 69.0177 25.6943 69.2111 25.4381C69.3863 25.1991 69.4931 24.9142 69.464 24.5745C69.4268 24.0822 69.2341 23.8059 69.0177 23.636C68.7763 23.446 68.3928 23.3078 67.8951 23.3078H63.0484C63.034 23.3078 63.0196 23.3078 63.0052 23.3078H62.9879C61.0067 23.3078 59.4027 21.713 59.4027 19.744C59.4027 18.4687 60.0765 17.3489 61.0902 16.7184C60.042 15.5641 59.4027 14.0355 59.4027 12.3572L59.4056 12.3515ZM81.4262 8.52849C79.3014 8.52849 77.579 10.2414 77.579 12.3515V18.9264C77.579 19.672 76.9717 20.2737 76.2225 20.2737C75.4739 20.2737 74.8666 19.6691 74.8666 18.9264V12.3515C74.8666 8.75017 77.8035 5.83405 81.4262 5.83405C85.0489 5.83405 87.9865 8.75308 87.9865 12.3515V18.9264C87.9865 19.672 87.3786 20.2737 86.63 20.2737C85.8813 20.2737 85.2734 19.6691 85.2734 18.9264V12.3515C85.2734 10.2385 83.5517 8.52849 81.4262 8.52849ZM97.4229 8.5314C95.24 8.5314 93.4864 10.273 93.4864 12.4004V13.788C93.4864 15.9124 95.2373 17.6569 97.4229 17.6569C98.1803 17.6569 98.8829 17.4467 99.4733 17.0869C100.112 16.6983 100.948 16.897 101.339 17.5303C101.731 18.1636 101.529 18.9955 100.893 19.3841C99.8851 20.0002 98.6956 20.3514 97.4256 20.3514C93.7657 20.3514 90.7767 17.4238 90.7767 13.788V12.4004C90.7767 8.76457 93.763 5.83693 97.4256 5.83693C100.559 5.83693 103.162 7.9758 103.859 10.8545L104.133 11.9801L98.3527 14.3176C97.6589 14.5968 96.867 14.2658 96.585 13.5778C96.3023 12.8869 96.6364 12.101 97.3309 11.8218L100.789 10.4227C100.112 9.29137 98.8653 8.5314 97.4256 8.5314H97.4229ZM112.29 8.5314C110.105 8.5314 108.354 10.273 108.354 12.4004V13.788C108.354 15.9124 110.105 17.6569 112.29 17.6569C113.048 17.6569 113.75 17.4467 114.341 17.0869C114.638 16.9055 114.908 16.6868 115.147 16.4335C115.66 15.8894 116.518 15.8635 117.065 16.373C117.612 16.8826 117.638 17.7346 117.128 18.2787C116.725 18.7048 116.267 19.0761 115.763 19.3841C114.752 20.0002 113.566 20.3514 112.294 20.3514C108.633 20.3514 105.644 17.4238 105.644 13.788V12.4004C105.644 8.76457 108.63 5.83693 112.294 5.83693C115.423 5.83693 118.03 7.9758 118.727 10.8545L119 11.9801L113.221 14.3176C112.527 14.5968 111.735 14.2658 111.452 13.5778C111.17 12.8869 111.504 12.101 112.198 11.8218L115.657 10.4227C114.98 9.29137 113.733 8.5314 112.294 8.5314H112.29Z" fill="var(--fill-0, #B4BACC)"/>
<path d="M14.7825 26.4959C13.3576 26.4959 12.1987 25.2617 12.1987 23.7447V2.75117C12.1987 2.37701 11.953 2.11629 11.7328 2.11629C11.5125 2.11629 11.2668 2.37701 11.2668 2.75117V23.7447C11.2668 25.2617 10.108 26.4959 8.68309 26.4959C7.25823 26.4959 6.09936 25.2617 6.09936 23.7447V7.32233C6.09936 6.94816 5.85369 6.68747 5.63343 6.68747C5.41318 6.68747 5.16751 6.94816 5.16751 7.32233V17.6498C5.16751 19.1668 4.00863 20.401 2.58375 20.401C1.15887 20.401 0 19.1668 0 17.6498V12.6554C0 11.1384 1.23512 9.90419 2.75318 9.90419C2.85653 9.90419 2.9548 9.91947 3.04968 9.94652V7.32233C3.04968 5.80539 4.20855 4.57118 5.63343 4.57118C7.05833 4.57118 8.21716 5.80539 8.21716 7.32233V23.7447C8.21716 24.1189 8.46284 24.3796 8.68309 24.3796C8.90335 24.3796 9.14903 24.1189 9.14903 23.7447V2.75117C9.14903 1.23422 10.3079 0 11.7328 0C13.1576 0 14.3165 1.23422 14.3165 2.75117V23.7447C14.3165 24.1189 14.5622 24.3796 14.7825 24.3796C15.0027 24.3796 15.2484 24.1189 15.2484 23.7447V7.32233C15.2484 5.80539 16.4073 4.57118 17.8321 4.57118C19.257 4.57118 20.4159 5.80539 20.4159 7.32233V9.94652C20.5108 9.91947 20.609 9.90419 20.7124 9.90419C22.2305 9.90419 23.4656 11.1384 23.4656 12.6554V17.6498C23.4656 19.1668 22.3067 20.401 20.8818 20.401C19.457 20.401 18.2981 19.1668 18.2981 17.6498V7.32233C18.2981 6.94816 18.0524 6.68747 17.8321 6.68747C17.6119 6.68747 17.3662 6.94816 17.3662 7.32233V23.7447C17.3662 25.2617 16.2073 26.4959 14.7825 26.4959ZM20.4159 11.9782V17.6498C20.4159 18.024 20.6616 18.2847 20.8818 18.2847C21.1021 18.2847 21.3478 18.024 21.3478 17.6498V12.6554C21.3478 12.3117 21.0563 12.0205 20.7124 12.0205C20.609 12.0205 20.5108 12.0053 20.4159 11.9782ZM3.04968 11.9782C2.9548 12.0053 2.85653 12.0205 2.75318 12.0205C2.40925 12.0205 2.11783 12.3117 2.11783 12.6554V17.6498C2.11783 18.024 2.3635 18.2847 2.58375 18.2847C2.80401 18.2847 3.04968 18.024 3.04968 17.6498V11.9782Z" fill="var(--fill-0, #B4BACC)"/>
</g>
</svg>
