<svg preserveAspectRatio="none" width="100%" height="100%" overflow="visible" style="display: block;" viewBox="0 0 108.5 18.375" fill="none" xmlns="http://www.w3.org/2000/svg">
<g id="Vector">
<path d="M30.5587 18.375C33.238 18.375 35.6035 17.003 36.5208 14.259C36.6897 13.6955 36.4483 13.3525 35.9173 13.3525H34.9035C34.4449 13.3525 34.1311 13.573 33.9139 14.014C33.1173 15.6065 32.007 16.1945 30.607 16.1945C28.1208 16.1945 26.6001 14.4305 26.6001 11.4905C26.6001 8.5505 28.169 6.7865 30.5587 6.7865C32.007 6.7865 33.1897 7.4235 33.938 8.918C34.1794 9.359 34.4449 9.5795 34.9276 9.5795H35.9414C36.4483 9.5795 36.7139 9.2365 36.5449 8.7465C35.4587 5.7575 33.0208 4.606 30.5346 4.606C26.7932 4.606 23.9932 7.4235 23.9932 11.515C24.0173 15.5575 26.6966 18.375 30.5587 18.375ZM98.2414 10.2655C98.5793 8.036 100.076 6.6395 102.128 6.6395C104.179 6.6395 105.7 8.0605 105.869 10.2655H98.2414ZM102.224 18.375C104.614 18.375 106.979 17.248 108.138 14.7C108.428 14.0875 108.162 13.671 107.655 13.671H106.69C106.231 13.671 105.941 13.8915 105.7 14.308C104.928 15.7045 103.576 16.268 102.2 16.268C99.8586 16.268 98.3138 14.651 98.1448 11.9805H107.655C108.162 11.9805 108.5 11.6865 108.5 11.1475C108.403 7.0315 105.748 4.557 102.103 4.557C98.4828 4.557 95.5862 7.252 95.5862 11.466C95.5862 15.7045 98.3862 18.375 102.224 18.375ZM87.1621 11.809H88.0069C88.5138 11.809 88.8035 11.515 88.8759 10.976C89.3586 7.4235 91.4104 6.958 93.5828 7.056C94.0414 7.0805 94.4276 6.713 94.4276 6.2475V5.439C94.4276 4.9245 94.1621 4.606 93.6552 4.5815C91.7242 4.508 90.0104 5.1695 89.0207 7.0805C88.9724 7.1785 88.8035 7.154 88.8035 7.0315L88.6345 5.6105C88.5862 5.096 88.2966 4.8265 87.7897 4.8265H83.8793C83.4207 4.8265 83.0586 5.194 83.0586 5.6595V6.1005C83.0586 6.566 83.4207 6.9335 83.8793 6.9335H85.4724C85.9311 6.9335 86.2931 7.301 86.2931 7.7665V10.976C86.3414 11.4415 86.7276 11.809 87.1621 11.809ZM83.6862 18.1055H91.7724C92.2793 18.1055 92.5931 17.787 92.5931 17.2725V16.8315C92.5931 16.317 92.2793 15.9985 91.7724 15.9985H89.6966C89.1897 15.9985 88.8759 15.68 88.8759 15.1655V13.72C88.8759 13.2055 88.5621 12.887 88.0552 12.887H87.1862C86.6793 12.887 86.3655 13.2055 86.3655 13.72V15.1655C86.3655 15.68 86.0517 15.9985 85.5448 15.9985H83.7104C83.2035 15.9985 82.8897 16.317 82.8897 16.8315V17.2725C82.8414 17.787 83.1552 18.1055 83.6862 18.1055ZM71.1828 10.2655C71.5207 8.036 73.0173 6.6395 75.069 6.6395C77.1207 6.6395 78.6414 8.0605 78.8104 10.2655H71.1828ZM75.1655 18.375C77.5552 18.375 79.9207 17.248 81.0793 14.7C81.369 14.0875 81.1035 13.671 80.5966 13.671H79.6311C79.1724 13.671 78.8828 13.8915 78.6414 14.308C77.869 15.7045 76.5173 16.268 75.1414 16.268C72.7759 16.268 71.2552 14.651 71.0862 11.9805H80.5724C81.0793 11.9805 81.4173 11.6865 81.4173 11.1475C81.3448 7.0315 78.7138 4.557 75.069 4.557C71.4242 4.557 68.5276 7.2275 68.5276 11.466C68.5276 15.7045 71.3518 18.375 75.1655 18.375ZM45.2587 18.375C49.1449 18.375 51.8966 15.4595 51.8966 11.466C51.8966 7.4725 49.1207 4.557 45.2587 4.557C41.3725 4.557 38.6207 7.5215 38.6207 11.466C38.6207 12.3725 38.7656 13.4015 39.2483 14.5285C39.4897 15.092 39.9242 15.1655 40.3828 14.8225L41.1311 14.259C41.5173 13.965 41.6138 13.622 41.4932 13.132C41.2759 12.4705 41.2276 11.907 41.2276 11.3925C41.2276 8.6485 42.8449 6.7375 45.2587 6.7375C47.6725 6.7375 49.2897 8.5995 49.2897 11.4415C49.2897 14.2835 47.6966 16.1455 45.3069 16.1455C44.4863 16.1455 43.7138 15.9985 42.7725 15.288C42.3863 14.9695 42.0242 14.9205 41.6138 15.239L41.0345 15.68C40.5759 16.023 40.5276 16.4885 40.9621 16.856C42.3139 17.9585 43.8587 18.375 45.2587 18.375ZM55.1794 18.1055H56.0242C56.4828 18.1055 56.8449 17.738 56.8449 17.2725V11.0005C56.8449 8.3545 58.2449 6.7865 60.4173 6.7865C62.3725 6.7865 63.5311 8.1095 63.5311 10.5105V17.2725C63.5311 17.738 63.8931 18.1055 64.3518 18.1055H65.2207C65.6793 18.1055 66.0414 17.738 66.0414 17.2725V10.0695C66.0414 6.517 64.2552 4.557 61.238 4.557C59.1862 4.557 57.9552 5.4145 57.0621 6.615C56.9897 6.713 56.8449 6.664 56.8449 6.5415V0.833C56.8449 0.3675 56.4587 0 56.0242 0H55.1794C54.7207 0 54.3587 0.3675 54.3587 0.833V17.2725C54.3587 17.738 54.7207 18.1055 55.1794 18.1055Z" fill="var(--fill-0, #B4BACC)"/>
<path fill-rule="evenodd" clip-rule="evenodd" d="M5.86551 10.9515C6.34827 10.9515 7.31379 10.927 8.66551 10.3635C10.2345 9.70201 13.3241 8.52601 15.569 7.30101C17.1379 6.44351 17.8138 5.31651 17.8138 3.79751C17.8138 1.71501 16.1483 1.38321e-05 14.0724 1.38321e-05H5.38275C2.41379 1.38321e-05 0 2.45001 0 5.46351C0 8.47701 2.26896 10.9515 5.86551 10.9515Z" fill="var(--fill-0, #B4BACC)"/>
<path fill-rule="evenodd" clip-rule="evenodd" d="M7.33802 14.7C7.33802 13.23 8.20698 11.8825 9.55871 11.319L12.2863 10.1675C15.0622 9.016 18.1035 11.074 18.1035 14.112C18.1035 16.464 16.2208 18.375 13.9035 18.375H10.9346C8.95526 18.375 7.33802 16.7335 7.33802 14.7Z" fill="var(--fill-0, #B4BACC)"/>
<path d="M3.11379 11.662C1.4 11.662 0 13.083 0 14.8225V15.239C0 16.954 1.4 18.375 3.11379 18.375C4.82758 18.375 6.22758 16.954 6.22758 15.2145V14.798C6.20344 13.083 4.82758 11.662 3.11379 11.662Z" fill="var(--fill-0, #B4BACC)"/>
</g>
</svg>
