<svg preserveAspectRatio="none" width="100%" height="100%" overflow="visible" style="display: block;" viewBox="0 0 92.75 24.5" fill="none" xmlns="http://www.w3.org/2000/svg">
<g id="Vector">
<path d="M92.6794 2.77894C92.3744 3.99507 91.4617 4.99376 90.5424 5.80283C90.216 6.08156 89.8476 6.30921 89.4521 6.47789C88.9736 6.68774 88.6521 6.55374 88.3643 6.12646C88.0074 5.54745 87.7681 4.90512 87.6588 4.23526C87.5617 3.78868 87.5066 3.3342 87.4935 2.87755C87.4672 2.21629 87.6596 1.56474 88.0411 1.02176C88.2524 0.713969 88.5361 0.461065 88.8667 0.284225C89.1972 0.107386 89.5656 0.0117635 89.9413 0.00536717C90.5515 -0.0286683 91.1599 0.0996358 91.7043 0.377031C92.5775 0.827331 92.9089 1.86117 92.6794 2.77894Z" fill="var(--fill-0, #B4BACC)"/>
<path d="M89.679 8.60685C89.4784 7.97227 88.8897 7.85849 88.3215 7.80539C87.3891 7.72195 86.6581 8.18713 86.0693 8.81675C85.585 9.35504 85.1624 9.94524 84.8088 10.5764C84.0696 11.8444 83.6207 13.2446 83.1906 14.6349C82.9102 15.5391 82.6652 16.3344 82.3166 17.5076C82.11 18.2017 81.8767 19.2721 81.2294 19.8127C81.0674 19.9609 80.8561 20.0446 80.6358 20.0478C80.3658 20.0099 80.269 19.7267 80.2563 19.4637C80.241 19.173 80.241 18.8823 80.2537 18.5915C80.3282 17.7002 80.5157 16.8219 80.8116 15.9772C81.2447 14.5866 81.7108 13.2062 82.1312 11.8105C82.3108 11.3288 82.319 10.8007 82.1541 10.3137C82.0826 10.1419 81.9687 9.99062 81.8229 9.87383C81.2396 9.4187 80.1824 9.4946 79.5429 9.91676C79.3315 10.0609 79.1227 10.2101 78.901 10.3618C78.8527 10.2834 78.8144 10.2278 78.7787 10.1671C78.6371 9.89497 78.4423 9.65357 78.2056 9.45697C77.9691 9.2603 77.6954 9.11242 77.4006 9.02175C76.7836 8.85968 76.1456 8.78982 75.5079 8.81446C74.7584 8.81838 74.02 8.994 73.3502 9.32771C72.2975 9.85637 71.4012 10.6475 70.7493 11.6235C70.027 12.6016 69.3847 13.6357 68.8286 14.7155C68.2503 15.8019 67.8292 16.9637 67.5778 18.1667C67.4925 18.6072 67.4414 19.0535 67.4249 19.5017C67.421 19.8648 67.4543 20.2274 67.5242 20.5838C67.6156 21.2926 67.9567 21.9465 68.4872 22.4295C68.971 22.8108 69.556 23.0444 70.1711 23.102C70.9234 23.2115 71.6913 23.0785 72.3618 22.7228C73.0894 22.3429 73.7438 21.8388 74.2953 21.2336C74.5271 20.9858 74.7717 20.7482 75.0366 20.4751C75.0672 20.6344 75.0901 20.7355 75.1054 20.8367C75.2006 21.5928 75.5248 22.3026 76.0352 22.872C76.8962 23.7721 77.9993 23.9212 79.1608 23.7518C79.8 23.6576 80.4117 23.4302 80.9561 23.0846C81.2398 22.9051 82.0738 21.935 82.3988 22.1868C82.7984 22.4958 82.8387 23.0669 83.286 23.3657C83.5179 23.4966 83.7761 23.5746 84.0425 23.5941C84.3081 23.6137 84.5753 23.5742 84.8236 23.4785C85.5349 23.2272 86.2009 22.8644 86.7954 22.404C86.9253 22.3198 87.0273 22.2004 87.0906 22.0601C87.1531 21.9197 87.1736 21.7643 87.1498 21.6126C87.0741 20.3788 87.1662 19.1405 87.4252 17.9314C87.7336 16.5433 88.1102 15.1704 88.5049 13.8051C88.9028 12.4146 89.5573 11.0972 89.7555 9.64851C89.8073 9.29996 89.781 8.94447 89.679 8.60685ZM76.8275 12.976C76.423 14.6708 75.6326 16.251 74.5169 17.5954C74.1292 18.1076 73.6614 18.5548 73.1311 18.9202C72.8178 19.1275 72.5121 19.2033 72.3389 18.819C72.2914 18.7133 72.2613 18.6006 72.2497 18.4853C72.181 17.8254 72.5096 17.1377 72.7363 16.536C72.986 15.8584 73.2653 15.1951 73.5744 14.5462C74.0202 13.6082 74.5424 12.708 75.3576 12.0331C75.6243 11.8334 75.9208 11.6764 76.2364 11.5678C76.453 11.4819 76.7077 11.674 76.8071 11.9116C76.9257 12.2557 76.9328 12.6279 76.8275 12.976Z" fill="var(--fill-0, #B4BACC)"/>
<path d="M29.0416 16.4883C28.5881 17.8865 27.6838 18.7941 26.2012 19.09C25.3387 19.2847 24.4379 19.2267 23.608 18.9231C23.2365 18.7821 22.9156 18.5348 22.6861 18.2124C22.4566 17.8901 22.3289 17.5073 22.3189 17.1127C22.2578 16.0584 22.6833 15.1482 23.1774 14.2583C23.3837 13.8892 23.5978 13.5226 23.7685 13.1357C23.8418 12.9423 23.8697 12.7347 23.8499 12.5289C23.8398 12.4604 23.8139 12.3952 23.7745 12.3381C23.7352 12.281 23.6831 12.2336 23.6224 12.1995C23.5617 12.1653 23.494 12.1453 23.4244 12.1411C23.3548 12.1369 23.2851 12.1484 23.2208 12.175C22.8533 12.3443 22.5106 12.562 22.2017 12.8222C20.9612 13.9523 19.9651 15.2873 19.0047 16.6552C17.9778 18.1023 17.0437 19.6122 16.2077 21.1758C15.9351 21.6916 15.7313 22.2478 15.4231 22.7383C15.2084 23.1016 14.8982 23.4 14.5258 23.6017C14.1534 23.8035 13.7327 23.9009 13.3087 23.8836C12.8204 23.9052 12.3342 23.808 11.8923 23.6004C11.551 23.4175 11.2897 23.1159 11.1587 22.7535C10.6518 23.0341 10.1499 23.3451 9.62003 23.5929C8.79359 24.0103 7.90083 24.2832 6.98095 24.3994C6.35525 24.4806 5.72409 24.5127 5.09332 24.4955C3.92397 24.4536 2.79897 24.0406 1.88357 23.3173C0.982486 22.5833 0.369456 21.5589 0.151324 20.4223C-0.0226962 19.5827 -0.0468385 18.7192 0.0799969 17.8713C0.277998 16.5433 0.714586 15.2613 1.36899 14.0863C1.8887 13.1017 2.50839 12.1724 3.21841 11.3128C3.95477 10.4226 4.82623 9.65145 5.80149 9.02714C6.52184 8.56229 7.32652 8.24108 8.17059 8.08158C9.26342 7.87931 10.206 8.25348 11.0823 8.85527C11.6921 9.2656 12.207 9.7999 12.5929 10.4228C12.9468 11.0581 13.0407 11.8041 12.8553 12.5061C12.6661 13.2728 12.3882 14.0151 12.0273 14.7185C11.6962 15.4466 11.3676 16.1748 11.0288 16.9004C10.9728 17.0581 10.8561 17.1874 10.7043 17.2599C10.5525 17.3324 10.3778 17.3422 10.2187 17.2872C9.7465 17.1389 9.32164 16.8703 8.98649 16.5083C8.65126 16.1464 8.41741 15.7036 8.30813 15.2241C8.22878 14.5371 8.34159 13.8417 8.63423 13.2141C8.9374 12.4379 9.28636 11.6794 9.62258 10.9184C9.65366 10.8673 9.67397 10.8105 9.6822 10.7515C9.69042 10.6924 9.68639 10.6322 9.67044 10.5748C9.65449 10.5172 9.62686 10.4635 9.58928 10.417C9.5517 10.3705 9.505 10.332 9.45197 10.304C9.066 10.393 8.71613 10.5958 8.44824 10.8855C7.97444 11.3507 7.52609 11.8412 7.09813 12.3494C6.23646 13.4177 5.50138 14.5808 4.90735 15.8157C4.53544 16.5258 4.30371 17.2999 4.22465 18.0963C4.14591 18.7082 4.16568 19.3287 4.28323 19.9344C4.34779 20.3194 4.54374 20.6707 4.83824 20.9294C5.13276 21.1881 5.50792 21.3385 5.90084 21.3553C7.40786 21.4388 8.90369 21.0543 10.1805 20.2555C10.6673 19.9244 11.1351 19.5666 11.5816 19.1835C11.6633 19.1069 11.7246 19.0113 11.7599 18.9054C12.2108 17.7095 12.6337 16.5034 13.1126 15.3202C13.4641 14.4429 13.8819 13.5908 14.2742 12.7312C14.6435 11.8868 15.0957 11.0806 15.6243 10.3242C16.2204 9.49239 16.9719 8.86286 18.0189 8.72886C18.8621 8.62015 19.639 8.90073 20.0415 9.84633C20.3957 10.6782 20.1918 11.4771 19.9192 12.2761C19.848 12.4808 19.7791 12.6857 19.69 12.9486C20.1816 12.4177 20.5994 11.912 21.0707 11.467C21.8295 10.7032 22.711 10.0701 23.6792 9.59351C24.3728 9.24871 25.1403 9.07602 25.9159 9.09039C26.8763 9.13339 27.773 9.37357 28.4454 10.1295C28.7382 10.471 28.9311 10.8855 29.0033 11.3279C29.1613 12.1497 28.8862 12.8879 28.5805 13.6262C28.3538 14.1724 28.122 14.7185 27.9513 15.2822C27.8137 15.7399 28.0582 16.0635 28.5474 16.1874C28.6559 16.2153 28.7667 16.2331 28.8785 16.2405C29.0594 16.2481 29.0849 16.3492 29.0416 16.4883Z" fill="var(--fill-0, #B4BACC)"/>
<path d="M69.0215 9.84625C68.6195 8.95304 66.637 8.85845 65.8188 9.13535C65.4954 9.25556 65.1867 9.41168 64.8987 9.60077C63.5305 10.4407 63.0439 11.5193 62.4023 12.9281C61.7654 14.3187 61.1795 15.7345 60.4968 17.1024C60.0434 17.9821 59.5275 18.8287 58.9531 19.6358C58.6265 20.1607 58.1033 20.5354 57.4984 20.6774C57.1393 20.7482 56.9915 20.5889 56.8641 20.278C56.7469 19.9924 56.6755 19.6904 56.6527 19.3829C56.6016 18.4999 56.7165 17.615 56.9915 16.7737C57.3965 15.426 57.8322 14.0885 58.2423 12.7435C58.4586 12.1593 58.564 11.5404 58.5531 10.918C58.5557 10.7009 58.5077 10.486 58.4127 10.2904C58.3177 10.0948 58.1783 9.92362 58.0054 9.79043C57.6453 9.52912 57.2193 9.3717 56.7748 9.33562C56.3302 9.29947 55.8842 9.38598 55.486 9.58559C54.6403 9.98507 54.0875 10.6981 53.6824 11.5072C53.1092 12.6449 52.5921 13.8104 52.0317 14.9533C51.647 15.7446 51.2318 16.5234 50.8293 17.3046C50.3193 18.3788 49.7059 19.4017 48.9977 20.3588C48.8856 20.5004 48.6869 20.6977 48.5595 20.6749C48.4068 20.6521 48.2844 20.4221 48.1545 20.278C48.1323 20.2515 48.1166 20.2203 48.1087 20.1869C47.9143 19.4903 47.8804 18.7593 48.0094 18.048C48.1393 17.244 48.3023 16.4425 48.4882 15.6486C48.8551 14.0633 49.2728 12.4881 49.6167 10.8953C49.7058 10.5822 49.6991 10.25 49.5975 9.94076C49.4958 9.63146 49.304 9.35913 49.0461 9.15837C48.7892 8.97597 48.4969 8.84858 48.1877 8.78419C47.8785 8.7198 47.5593 8.7198 47.2502 8.78411C46.4019 8.91558 45.7778 9.42637 45.281 10.109C44.6727 10.9486 44.2412 11.9014 44.0124 12.9104C43.8163 13.7447 43.6864 14.5943 43.5463 15.4438C43.4825 15.8356 43.48 16.2351 43.4316 16.6321C43.4178 16.742 43.3707 16.8451 43.2966 16.9279C42.9578 17.2793 42.6139 17.6232 42.2598 17.9594C41.5893 18.601 40.8209 19.1336 39.9829 19.5371C39.437 19.8273 38.8346 19.9975 38.2165 20.0358C37.5985 20.0743 36.9793 19.98 36.4013 19.7597C36.0272 19.6195 35.6951 19.3877 35.4359 19.0857C35.1766 18.7837 34.9987 18.4215 34.9187 18.0328C35.4154 18.0328 35.8943 18.0379 36.3732 18.0328C37.5066 18.0204 38.6195 17.7313 39.6136 17.1908C40.5504 16.7173 41.312 15.9615 41.789 15.0316C42.3287 13.9941 42.4587 12.7941 42.1534 11.6665C42.0173 11.133 41.7572 10.6386 41.394 10.2228C41.0309 9.807 40.5746 9.48146 40.0619 9.27213C39.4884 9.00274 38.8666 8.84972 38.2329 8.82206C37.6494 8.77227 37.0625 8.77823 36.4802 8.83977C35.2539 9.06623 34.1183 9.63554 33.2068 10.4807C32.2381 11.3459 31.4377 12.3803 30.8453 13.5324C30.1621 14.8107 29.7396 16.2103 29.6022 17.651C29.5209 18.4747 29.5891 19.3062 29.8034 20.106C30.0673 21.2006 30.7308 22.1591 31.6656 22.7962C32.6374 23.4224 33.7632 23.773 34.9212 23.81C35.7284 23.834 36.5362 23.801 37.3387 23.7114C38.139 23.6208 38.9179 23.3951 39.6415 23.0439C40.8336 22.503 41.9082 21.7371 42.8055 20.7887C43.0857 20.4979 43.3532 20.1919 43.5926 19.9265C43.8219 20.4802 44.0283 21.0541 44.2906 21.6003C44.6072 22.3101 45.1757 22.8797 45.8879 23.2007C46.5774 23.4992 47.3038 23.7058 48.048 23.8151C48.2401 23.8647 48.4415 23.8664 48.6344 23.8201C48.8273 23.7738 49.0057 23.6808 49.1536 23.5496C49.6452 23.0692 50.1573 22.6065 50.6362 22.1135C50.9043 21.8191 51.1569 21.511 51.3928 21.1907C51.7418 20.7482 52.0857 20.2982 52.4499 19.8279C52.4907 20.0579 52.5188 20.2527 52.5621 20.4448C52.7888 21.4233 53.2091 22.2728 54.088 22.8467C54.6847 23.2105 55.3355 23.4784 56.0164 23.6406C57.155 23.9745 58.3786 23.8726 59.4452 23.3549C60.6208 22.771 61.6517 21.9361 62.4638 20.91C63.1156 20.1481 63.7237 19.3504 64.2853 18.5207C65.1386 17.2212 65.9436 15.8837 66.7232 14.5361C67.1198 13.8504 67.5055 13.1587 67.8886 12.4657C68.2017 11.8998 69.039 10.9021 69.09 10.266C69.1034 10.1226 69.0798 9.97813 69.0215 9.84625ZM35.26 14.799C35.5225 14.087 35.9184 13.4308 36.4267 12.8649C36.7327 12.4846 37.156 12.2146 37.6316 12.0962C37.7894 12.0706 37.9512 12.0849 38.102 12.1379C38.2526 12.191 38.3874 12.2809 38.4937 12.3995C38.5999 12.5181 38.6742 12.6614 38.7097 12.8162C38.7451 12.9709 38.7406 13.132 38.6964 13.2845C38.3322 14.8218 37.3056 15.6915 35.8128 16.0708C35.4869 16.1252 35.1574 16.1564 34.8269 16.1644C34.9849 15.6587 35.1071 15.2238 35.26 14.799Z" fill="var(--fill-0, #B4BACC)"/>
</g>
</svg>
