<svg preserveAspectRatio="none" width="100%" height="100%" overflow="visible" style="display: block;" viewBox="0 0 122.504 31.5" fill="none" xmlns="http://www.w3.org/2000/svg">
<g id="Vector">
<path d="M43.9425 22.225C43.2001 22.243 42.4631 22.0952 41.785 21.7925C41.1069 21.4898 40.5048 21.0397 40.0225 20.475C38.9994 19.2987 38.456 17.7808 38.5 16.2225C38.4465 14.659 38.9874 13.1332 40.0138 11.9525C40.4964 11.3883 41.0986 10.9386 41.7766 10.6359C42.4546 10.3332 43.1915 10.1852 43.9338 10.2025C44.6039 10.1677 45.2724 10.296 45.882 10.5765C46.4916 10.8569 47.0241 11.281 47.4338 11.8125V5.6C47.4263 5.55233 47.4302 5.50357 47.4451 5.45769C47.4601 5.41182 47.4856 5.37012 47.5198 5.336C47.5539 5.30188 47.5956 5.27631 47.6414 5.26136C47.6873 5.24642 47.7361 5.24252 47.7838 5.25H50.33C50.3777 5.24252 50.4264 5.24642 50.4723 5.26136C50.5182 5.27631 50.5599 5.30188 50.594 5.336C50.6281 5.37012 50.6537 5.41182 50.6686 5.45769C50.6836 5.50357 50.6875 5.55233 50.68 5.6V21.595C50.68 21.8312 50.5575 21.945 50.3038 21.945H48.0725C48.0248 21.9525 47.9761 21.9486 47.9302 21.9336C47.8843 21.9187 47.8426 21.8931 47.8085 21.859C47.7744 21.8249 47.7488 21.7832 47.7339 21.7373C47.7189 21.6914 47.715 21.6427 47.7225 21.595L47.6788 20.335C47.2732 20.9468 46.7155 21.4427 46.0605 21.774C45.4055 22.1054 44.6757 22.2608 43.9425 22.225ZM42.49 18.445C42.7653 18.7291 43.0961 18.9534 43.462 19.104C43.8278 19.2545 44.2207 19.3281 44.6163 19.32C45.0056 19.3306 45.3928 19.2581 45.7519 19.1072C46.111 18.9563 46.4338 18.7306 46.6988 18.445C47.2248 17.8239 47.5135 17.0364 47.5135 16.2225C47.5135 15.4086 47.2248 14.6211 46.6988 14C46.4342 13.714 46.1114 13.4879 45.7522 13.337C45.393 13.1861 45.0057 13.1138 44.6163 13.125C44.2204 13.1143 43.8267 13.1866 43.4604 13.3373C43.0942 13.488 42.7636 13.7137 42.49 14C42.2018 14.2868 41.9755 14.6297 41.825 15.0075C41.6745 15.3852 41.603 15.7898 41.615 16.1963C41.5978 16.6112 41.6667 17.0251 41.8173 17.4121C41.9679 17.7991 42.1969 18.1508 42.49 18.445Z" fill="#B4BACC"/>
<path d="M59.08 22.225C58.2458 22.2518 57.4147 22.1107 56.6361 21.8101C55.8575 21.5094 55.1472 21.0554 54.5475 20.475C53.969 19.9065 53.5148 19.2241 53.2136 18.4711C52.9124 17.718 52.7707 16.9106 52.7975 16.1C52.7711 15.3177 52.9024 14.538 53.1835 13.8075C53.4646 13.0769 53.8898 12.4104 54.4337 11.8475C54.9832 11.2807 55.6458 10.8358 56.3784 10.5419C57.1111 10.2479 57.8974 10.1114 58.6862 10.1413C59.4282 10.1045 60.1694 10.2295 60.8583 10.5075C61.5472 10.7855 62.1675 11.2099 62.6762 11.7512C63.1803 12.2785 63.5727 12.9022 63.8298 13.5848C64.0869 14.2674 64.2034 14.995 64.1725 15.7237C64.1877 16.1712 64.0851 16.6147 63.875 17.01C63.7701 17.1657 63.6257 17.2907 63.4565 17.3722C63.2874 17.4537 63.0996 17.4887 62.9125 17.4737H56C56.3558 18.9671 57.4846 19.7138 59.3863 19.7138C60.3075 19.7148 61.2128 19.4734 62.0113 19.0137C62.0423 18.9905 62.0781 18.9745 62.116 18.9667C62.154 18.959 62.1932 18.9597 62.2308 18.9689C62.2685 18.9781 62.3036 18.9956 62.3337 19.0199C62.3638 19.0443 62.3882 19.0751 62.405 19.11L63.28 20.3C63.4025 20.475 63.3675 20.6412 63.1663 20.8162C62.6157 21.3151 61.9698 21.6971 61.2675 21.9393C60.5651 22.1814 59.821 22.2786 59.08 22.225ZM55.9037 15.1725H61.3025C61.2416 14.5122 60.9282 13.901 60.4275 13.4662C59.9344 13.0654 59.3126 12.8571 58.6775 12.88C58.0128 12.8563 57.3605 13.0634 56.8312 13.4662C56.3227 13.9016 55.9925 14.509 55.9037 15.1725Z" fill="#B4BACC"/>
<path d="M71.925 22.225C71.0908 22.2518 70.2597 22.1107 69.4811 21.8101C68.7025 21.5094 67.9922 21.0554 67.3925 20.475C66.814 19.9065 66.3598 19.2241 66.0586 18.4711C65.7574 17.718 65.6157 16.9106 65.6425 16.1C65.6161 15.3177 65.7474 14.538 66.0285 13.8075C66.3096 13.0769 66.7348 12.4104 67.2787 11.8475C67.8282 11.2807 68.4908 10.8358 69.2234 10.5419C69.9561 10.2479 70.7424 10.1114 71.5312 10.1413C72.2732 10.1045 73.0144 10.2295 73.7033 10.5075C74.3922 10.7855 75.0125 11.2099 75.5212 11.7512C76.0222 12.28 76.4113 12.9043 76.6654 13.5868C76.9195 14.2694 77.0333 14.9962 77 15.7237C77.0285 16.1842 76.9317 16.6438 76.72 17.0537C76.6084 17.2042 76.4589 17.3223 76.2867 17.3961C76.1146 17.4699 75.9259 17.4967 75.74 17.4737H68.74C69.1017 18.9671 70.2304 19.7138 72.1263 19.7138C73.0475 19.7148 73.9528 19.4734 74.7513 19.0137C74.7823 18.9905 74.8181 18.9745 74.856 18.9667C74.894 18.959 74.9332 18.9597 74.9708 18.9689C75.0085 18.9781 75.0436 18.9956 75.0737 19.0199C75.1038 19.0443 75.1282 19.0751 75.145 19.11L76.02 20.3C76.1425 20.475 76.1075 20.6412 75.9062 20.8162C75.3683 21.302 74.7396 21.6766 74.0564 21.9184C73.3731 22.1601 72.6487 22.2644 71.925 22.225ZM68.7487 15.1725H74.1475C74.0866 14.5122 73.7732 13.901 73.2725 13.4662C72.7794 13.0654 72.1576 12.8571 71.5225 12.88C70.8578 12.8563 70.2055 13.0634 69.6762 13.4662C69.1651 13.8994 68.8343 14.508 68.7487 15.1725Z" fill="#B4BACC"/>
<path d="M79.415 27.0987C79.3673 27.1062 79.3186 27.1023 79.2727 27.0874C79.2268 27.0724 79.1851 27.0469 79.151 27.0127C79.1169 26.9786 79.0913 26.9369 79.0764 26.8911C79.0614 26.8452 79.0575 26.7964 79.065 26.7487V10.8587C79.0575 10.8111 79.0614 10.7623 79.0764 10.7164C79.0913 10.6706 79.1169 10.6289 79.151 10.5947C79.1851 10.5606 79.2268 10.5351 79.2727 10.5201C79.3186 10.5052 79.3673 10.5013 79.415 10.5087H81.725C81.7727 10.5013 81.8214 10.5052 81.8673 10.5201C81.9132 10.5351 81.9549 10.5606 81.989 10.5947C82.0231 10.6289 82.0487 10.6706 82.0636 10.7164C82.0786 10.7623 82.0825 10.8111 82.075 10.8587V12.1187C82.4735 11.5 83.0297 10.9986 83.6865 10.6664C84.3432 10.3342 85.0767 10.1831 85.8112 10.2287C86.5508 10.2128 87.2846 10.3615 87.9596 10.6642C88.6346 10.9669 89.2338 11.4159 89.7137 11.9787C90.7409 13.159 91.2819 14.6851 91.2275 16.2487C91.2807 17.8202 90.7403 19.354 89.7137 20.545C89.2338 21.1078 88.6346 21.5569 87.9596 21.8595C87.2846 22.1622 86.5508 22.311 85.8112 22.295C85.1311 22.3287 84.4529 22.1975 83.8343 21.9126C83.2158 21.6277 82.6753 21.1975 82.2588 20.6587V26.8363C82.2662 26.8839 82.2623 26.9327 82.2474 26.9786C82.2324 27.0244 82.2069 27.0661 82.1727 27.1002C82.1386 27.1344 82.0969 27.1599 82.0511 27.1749C82.0052 27.1898 81.9564 27.1937 81.9088 27.1862H79.3712L79.415 27.0987ZM85.1812 19.2237C85.5731 19.2335 85.9626 19.1607 86.3244 19.0099C86.6863 18.8591 87.0123 18.6339 87.2812 18.3487C87.571 18.0576 87.7982 17.7102 87.9486 17.328C88.0991 16.9458 88.1698 16.5368 88.1562 16.1262C88.1682 15.7198 88.0968 15.3152 87.9463 14.9375C87.7958 14.5597 87.5694 14.2168 87.2812 13.93C87.014 13.6426 86.6883 13.4159 86.3261 13.2649C85.9638 13.114 85.5735 13.0424 85.1812 13.055C84.7853 13.0437 84.3914 13.1158 84.0251 13.2665C83.6588 13.4172 83.3283 13.6433 83.055 13.93C82.5402 14.5563 82.2588 15.3418 82.2588 16.1525C82.2588 16.9632 82.5402 17.7487 83.055 18.375C83.3252 18.668 83.6543 18.9006 84.0208 19.0574C84.3872 19.2143 84.7827 19.2918 85.1812 19.285V19.2237Z" fill="#B4BACC"/>
<path d="M97.0375 22.225C96.226 22.2581 95.4176 22.1051 94.6745 21.7774C93.9313 21.4498 93.273 20.9564 92.75 20.335C92.61 20.16 92.6275 19.9412 92.75 19.6612L93.5637 18.515C93.5898 18.4633 93.6277 18.4184 93.6744 18.3842C93.7211 18.3499 93.7752 18.3271 93.8324 18.3177C93.8895 18.3084 93.9481 18.3126 94.0033 18.3302C94.0585 18.3477 94.1088 18.3781 94.15 18.4188C94.8832 19.0624 95.803 19.4548 96.775 19.5387C97.65 19.5387 98.0613 19.2237 98.0613 18.585C98.0633 18.4621 98.0394 18.3401 97.9912 18.227C97.9429 18.114 97.8714 18.0123 97.7812 17.9287C97.5235 17.7004 97.2272 17.5196 96.9062 17.395L95.4625 16.8088C93.8 16.1525 92.96 15.1112 92.96 13.6762C92.9421 13.1934 93.0391 12.7132 93.2429 12.2751C93.4468 11.837 93.7516 11.4536 94.1325 11.1562C94.9362 10.5233 95.9362 10.1921 96.9587 10.22C97.6888 10.1993 98.4139 10.3463 99.0783 10.6497C99.7427 10.9531 100.329 11.4048 100.791 11.97C100.853 12.0365 100.888 12.124 100.888 12.215C100.888 12.306 100.853 12.3935 100.791 12.46L99.75 13.6937C99.61 13.8687 99.435 13.8687 99.2162 13.6937C98.6548 13.1424 97.918 12.8049 97.1337 12.74C96.8404 12.7204 96.5502 12.8108 96.32 12.9938C96.2298 13.0773 96.1583 13.179 96.1101 13.292C96.0618 13.4051 96.0379 13.5271 96.04 13.65C96.04 14.1313 96.4075 14.525 97.1337 14.77L98.7438 15.4C100.494 16.1 101.351 17.2054 101.316 18.7162C101.334 19.2231 101.229 19.7268 101.01 20.184C100.79 20.6413 100.463 21.0384 100.056 21.3412C99.1731 21.9566 98.1131 22.2669 97.0375 22.225Z" fill="#B4BACC"/>
<path d="M109.095 22.225C108.261 22.2518 107.43 22.1107 106.651 21.8101C105.873 21.5094 105.162 21.0554 104.563 20.475C103.984 19.9065 103.53 19.2241 103.229 18.4711C102.927 17.718 102.786 16.9106 102.813 16.1C102.786 15.3177 102.917 14.538 103.198 13.8075C103.48 13.0769 103.905 12.4104 104.449 11.8475C104.999 11.2811 105.661 10.8366 106.394 10.5426C107.126 10.2487 107.912 10.112 108.701 10.1413C109.443 10.1045 110.184 10.2295 110.873 10.5075C111.562 10.7855 112.183 11.2099 112.691 11.7512C113.195 12.2785 113.588 12.9022 113.845 13.5848C114.102 14.2674 114.218 14.995 114.188 15.7237C114.216 16.1842 114.119 16.6438 113.907 17.0537C113.796 17.2042 113.646 17.3223 113.474 17.3961C113.302 17.4699 113.113 17.4967 112.927 17.4737H105.971C106.333 18.9671 107.462 19.7138 109.358 19.7138C110.279 19.7148 111.184 19.4734 111.983 19.0137C112.014 18.9905 112.049 18.9745 112.087 18.9667C112.125 18.959 112.164 18.9597 112.202 18.9689C112.24 18.9781 112.275 18.9956 112.305 19.0199C112.335 19.0443 112.359 19.0751 112.376 19.11L113.251 20.3C113.374 20.475 113.339 20.6412 113.138 20.8162C112.592 21.3096 111.953 21.6885 111.259 21.9305C110.565 22.1725 109.829 22.2726 109.095 22.225ZM105.919 15.1725H111.318C111.257 14.5122 110.943 13.901 110.443 13.4662C109.949 13.0654 109.328 12.8571 108.693 12.88C108.028 12.8563 107.375 13.0634 106.846 13.4662C106.335 13.8994 106.004 14.508 105.919 15.1725Z" fill="#B4BACC"/>
<path d="M120.557 22.225C119.656 22.2626 118.769 21.9806 118.055 21.4287C117.714 21.104 117.451 20.7062 117.286 20.2652C117.12 19.8241 117.057 19.3514 117.101 18.8825V12.9938H115.657C115.61 13.0012 115.561 12.9973 115.515 12.9824C115.469 12.9674 115.428 12.9419 115.393 12.9078C115.359 12.8736 115.334 12.8319 115.319 12.7861C115.304 12.7402 115.3 12.6914 115.307 12.6437V10.8412C115.3 10.7936 115.304 10.7448 115.319 10.6989C115.334 10.6531 115.359 10.6114 115.393 10.5772C115.428 10.5431 115.469 10.5176 115.515 10.5026C115.561 10.4877 115.61 10.4838 115.657 10.4912H117.101V7.84875C117.094 7.80108 117.098 7.75232 117.113 7.70644C117.128 7.66057 117.153 7.61887 117.187 7.58475C117.221 7.55063 117.263 7.52506 117.309 7.51011C117.355 7.49517 117.404 7.49127 117.451 7.49875H119.997C120.045 7.49127 120.094 7.49517 120.14 7.51011C120.186 7.52506 120.227 7.55063 120.261 7.58475C120.296 7.61887 120.321 7.66057 120.336 7.70644C120.351 7.75232 120.355 7.80108 120.347 7.84875V10.4737H122.15C122.198 10.4663 122.246 10.4702 122.292 10.4851C122.338 10.5001 122.38 10.5256 122.414 10.5597C122.448 10.5939 122.474 10.6356 122.489 10.6814C122.504 10.7273 122.507 10.7761 122.5 10.8238V12.6612C122.507 12.7089 122.504 12.7577 122.489 12.8036C122.474 12.8494 122.448 12.8911 122.414 12.9252C122.38 12.9594 122.338 12.9849 122.292 12.9999C122.246 13.0148 122.198 13.0187 122.15 13.0113H120.347V18.55C120.325 18.6873 120.335 18.828 120.378 18.9604C120.42 19.0929 120.494 19.2134 120.592 19.3117C120.69 19.4101 120.811 19.4836 120.943 19.5261C121.076 19.5687 121.216 19.579 121.354 19.5563C121.651 19.5563 121.888 19.5563 122.08 19.5563C122.273 19.5563 122.5 19.635 122.5 19.88V21.63C122.5 22.0062 121.852 22.225 120.557 22.225Z" fill="#B4BACC"/>
<path d="M19.7312 22.7237H17.8938C17.842 22.7237 17.7908 22.7136 17.7431 22.6938C17.6953 22.674 17.6519 22.645 17.6153 22.6084C17.5788 22.5719 17.5498 22.5285 17.53 22.4807C17.5102 22.4329 17.5 22.3817 17.5 22.33V17.6925C17.5 17.6345 17.477 17.5788 17.4359 17.5378C17.3949 17.4968 17.3393 17.4737 17.2812 17.4737H0.393751C0.289322 17.4737 0.189169 17.4323 0.115326 17.3584C0.041484 17.2846 0 17.1844 0 17.08V0.393749C0 0.28932 0.041484 0.189169 0.115326 0.115326C0.189169 0.041484 0.289322 0 0.393751 0H19.7312C19.783 0 19.8342 0.0101845 19.8819 0.0299723C19.9297 0.0497601 19.9731 0.0787633 20.0097 0.115326C20.0462 0.151889 20.0752 0.195296 20.095 0.243068C20.1148 0.29084 20.125 0.342041 20.125 0.393749V14.6562C20.125 14.7143 20.148 14.7699 20.1891 14.8109C20.2301 14.852 20.2857 14.875 20.3438 14.875H33.7312C33.783 14.875 33.8342 14.8852 33.8819 14.905C33.9297 14.9248 33.9731 14.9538 34.0097 14.9903C34.0462 15.0269 34.0752 15.0703 34.095 15.1181C34.1148 15.1658 34.125 15.217 34.125 15.2687V17.1063C34.125 17.2107 34.0835 17.3108 34.0097 17.3847C33.9358 17.4585 33.8357 17.5 33.7312 17.5H20.3438C20.2857 17.5 20.2301 17.523 20.1891 17.5641C20.148 17.6051 20.125 17.6607 20.125 17.7187V22.3563C20.1183 22.4561 20.0739 22.5496 20.0008 22.6179C19.9277 22.6861 19.8313 22.724 19.7312 22.7237ZM2.8 14.8487H17.325C17.3714 14.8487 17.4159 14.8303 17.4487 14.7975C17.4816 14.7647 17.5 14.7202 17.5 14.6737V2.8C17.5 2.75359 17.4816 2.70908 17.4487 2.67626C17.4159 2.64344 17.3714 2.625 17.325 2.625H2.8C2.75359 2.625 2.70908 2.64344 2.67626 2.67626C2.64344 2.70908 2.625 2.75359 2.625 2.8V14.7C2.63133 14.7417 2.65252 14.7798 2.68468 14.8071C2.71684 14.8344 2.7578 14.8492 2.8 14.8487Z" fill="#B4BACC"/>
<path d="M18.8125 31.5C20.5039 31.5 21.875 30.1289 21.875 28.4375C21.875 26.7461 20.5039 25.375 18.8125 25.375C17.1211 25.375 15.75 26.7461 15.75 28.4375C15.75 30.1289 17.1211 31.5 18.8125 31.5Z" fill="#B4BACC"/>
</g>
</svg>
