<svg preserveAspectRatio="none" width="100%" height="100%" overflow="visible" style="display: block;" viewBox="0 0 133 29.3946" fill="none" xmlns="http://www.w3.org/2000/svg">
<g id="Vector">
<path d="M37.5761 20.0574V9.4717H40.3772V13.4128H43.5367V9.4717H46.3378V20.0574H43.5367V15.8557H40.3772V20.0574H37.5761ZM50.9244 20.2528C50.0341 20.2528 49.3881 19.9542 48.9864 19.3571C48.5847 18.749 48.3839 17.9402 48.3839 16.9305V11.9146H51.185V16.5723C51.185 17.0934 51.2502 17.4407 51.3804 17.6145C51.5215 17.7882 51.7279 17.875 51.9994 17.875C52.2598 17.875 52.477 17.8208 52.6507 17.7122C52.8245 17.6037 52.9982 17.4191 53.1719 17.1585V11.9146H55.973V20.0574H53.6929L53.4975 18.9826H53.4324C53.1067 19.3734 52.743 19.6828 52.3413 19.9108C51.9505 20.1388 51.4782 20.2528 50.9244 20.2528ZM60.8281 23.4122C60.2093 23.4122 59.6392 23.3417 59.1181 23.2005C58.597 23.0702 58.179 22.8585 57.8642 22.5653C57.5601 22.2723 57.4082 21.8813 57.4082 21.3927C57.4082 20.7523 57.7881 20.2311 58.5481 19.8294V19.7642C58.34 19.6103 58.1584 19.4232 58.0107 19.2106C57.8695 18.9826 57.799 18.7002 57.799 18.3636C57.799 18.0814 57.8805 17.8045 58.0433 17.5331C58.217 17.2616 58.4396 17.0283 58.711 16.8329V16.7677C58.4178 16.5723 58.1573 16.2954 57.9293 15.937C57.7121 15.5679 57.6036 15.1499 57.6036 14.6831C57.6036 14.0099 57.7664 13.4563 58.0922 13.022C58.4287 12.5768 58.863 12.2511 59.3949 12.0448C59.927 11.8278 60.4915 11.7191 61.0887 11.7191C61.5663 11.7191 62.0006 11.7842 62.3914 11.9146H65.4207V13.934H64.2481C64.2806 14.0317 64.3078 14.1566 64.3295 14.3085C64.3621 14.4605 64.3784 14.6179 64.3784 14.7808C64.3784 15.4214 64.2318 15.9426 63.9387 16.3443C63.6455 16.7351 63.2493 17.0229 62.7498 17.2074C62.2503 17.392 61.6967 17.4842 61.0887 17.4842C60.8173 17.4842 60.5132 17.4463 60.1767 17.3702C60.0463 17.4896 59.9813 17.647 59.9813 17.8424C59.9813 18.0162 60.0682 18.141 60.2419 18.2171C60.4264 18.2931 60.7195 18.331 61.1213 18.331H62.3427C63.3632 18.331 64.1504 18.4994 64.7041 18.8359C65.2687 19.1617 65.5509 19.699 65.5509 20.4482C65.5509 21.0345 65.3555 21.5502 64.9647 21.9954C64.5847 22.4404 64.0418 22.7879 63.336 23.0376C62.6304 23.2874 61.7943 23.4122 60.8281 23.4122ZM61.0887 15.8231C61.3493 15.8231 61.561 15.7309 61.7238 15.5462C61.8867 15.3617 61.9681 15.0739 61.9681 14.6831C61.9681 14.3031 61.8867 14.0262 61.7238 13.8525C61.561 13.668 61.3493 13.5758 61.0887 13.5758C60.8281 13.5758 60.6164 13.668 60.4536 13.8525C60.2906 14.0262 60.2093 14.3031 60.2093 14.6831C60.2093 15.0739 60.2906 15.3617 60.4536 15.5462C60.6164 15.7309 60.8281 15.8231 61.0887 15.8231ZM61.2841 21.6859C61.7401 21.6859 62.1201 21.6153 62.424 21.4742C62.7281 21.3438 62.88 21.1647 62.88 20.9367C62.88 20.7197 62.7824 20.5839 62.587 20.5296C62.4024 20.4754 62.1364 20.4482 61.7889 20.4482H61.1538C60.8281 20.4482 60.5784 20.4374 60.4047 20.4156C60.2419 20.4048 60.1007 20.3831 59.9813 20.3505C59.7859 20.5459 59.6881 20.7413 59.6881 20.9367C59.6881 21.1973 59.8346 21.3873 60.1278 21.5068C60.4319 21.6262 60.8173 21.6859 61.2841 21.6859ZM69.7185 23.4122C69.0995 23.4122 68.5296 23.3417 68.0084 23.2005C67.4872 23.0702 67.0692 22.8585 66.7544 22.5653C66.4504 22.2723 66.2984 21.8813 66.2984 21.3927C66.2984 20.7523 66.6784 20.2311 67.4384 19.8294V19.7642C67.2302 19.6103 67.0486 19.4232 66.901 19.2106C66.7598 18.9826 66.6892 18.7002 66.6892 18.3636C66.6892 18.0814 66.7707 17.8045 66.9335 17.5331C67.1072 17.2616 67.3298 17.0283 67.6013 16.8329V16.7677C67.3081 16.5723 67.0476 16.2954 66.8196 15.937C66.6023 15.5679 66.4938 15.1499 66.4938 14.6831C66.4938 14.0099 66.6568 13.4563 66.9824 13.022C67.3189 12.5768 67.7532 12.2511 68.2853 12.0448C68.8172 11.8278 69.3818 11.7191 69.9789 11.7191C70.4567 11.7191 70.891 11.7842 71.2818 11.9146H74.3109V13.934H73.1384C73.1709 14.0317 73.198 14.1566 73.2198 14.3085C73.2523 14.4605 73.2686 14.6179 73.2686 14.7808C73.2686 15.4214 73.1221 15.9426 72.8289 16.3443C72.5359 16.7351 72.1395 17.0229 71.64 17.2074C71.1407 17.392 70.5869 17.4842 69.9789 17.4842C69.7075 17.4842 69.4036 17.4463 69.0669 17.3702C68.9367 17.4896 68.8715 17.647 68.8715 17.8424C68.8715 18.0162 68.9584 18.141 69.1321 18.2171C69.3167 18.2931 69.6098 18.331 70.0115 18.331H71.2329C72.2534 18.331 73.0406 18.4994 73.5943 18.8359C74.1589 19.1617 74.4411 19.699 74.4411 20.4482C74.4411 21.0345 74.2457 21.5502 73.8549 21.9954C73.4749 22.4404 72.932 22.7879 72.2264 23.0376C71.5207 23.2874 70.6847 23.4122 69.7185 23.4122ZM69.9789 15.8231C70.2395 15.8231 70.4512 15.7309 70.6141 15.5462C70.7769 15.3617 70.8584 15.0739 70.8584 14.6831C70.8584 14.3031 70.7769 14.0262 70.6141 13.8525C70.4512 13.668 70.2395 13.5758 69.9789 13.5758C69.7185 13.5758 69.5066 13.668 69.3438 13.8525C69.181 14.0262 69.0995 14.3031 69.0995 14.6831C69.0995 15.0739 69.181 15.3617 69.3438 15.5462C69.5066 15.7309 69.7185 15.8231 69.9789 15.8231ZM70.1744 21.6859C70.6304 21.6859 71.0103 21.6153 71.3144 21.4742C71.6183 21.3438 71.7704 21.1647 71.7704 20.9367C71.7704 20.7197 71.6726 20.5839 71.4772 20.5296C71.2927 20.4754 71.0266 20.4482 70.6792 20.4482H70.0441C69.7185 20.4482 69.4686 20.4374 69.2949 20.4156C69.1321 20.4048 68.991 20.3831 68.8715 20.3505C68.6761 20.5459 68.5783 20.7413 68.5783 20.9367C68.5783 21.1973 68.725 21.3873 69.0182 21.5068C69.3221 21.6262 69.7075 21.6859 70.1744 21.6859ZM75.6448 20.0574V11.9146H78.4459V20.0574H75.6448ZM77.0453 10.9049C76.5893 10.9049 76.22 10.78 75.9378 10.5303C75.6555 10.2698 75.5144 9.92769 75.5144 9.50429C75.5144 9.0809 75.6555 8.74421 75.9378 8.49454C76.22 8.23395 76.5893 8.10374 77.0453 8.10374C77.5013 8.10374 77.8704 8.23395 78.1527 8.49454C78.4349 8.74421 78.5761 9.0809 78.5761 9.50429C78.5761 9.92769 78.4349 10.2698 78.1527 10.5303C77.8704 10.78 77.5013 10.9049 77.0453 10.9049ZM80.3364 20.0574V11.9146H82.6163L82.8117 12.8916H82.8769C83.2025 12.5768 83.5718 12.3054 83.9843 12.0774C84.4077 11.8385 84.8962 11.7191 85.45 11.7191C86.3511 11.7191 86.9971 12.0232 87.388 12.6312C87.7898 13.2283 87.9905 14.0317 87.9905 15.0413V20.0574H85.1894V15.3997C85.1894 14.8785 85.1242 14.5311 84.994 14.3574C84.8637 14.1836 84.6575 14.0968 84.3751 14.0968C84.1146 14.0968 83.8974 14.151 83.7237 14.2597C83.55 14.3683 83.3546 14.5203 83.1375 14.7157V20.0574H80.3364ZM92.779 23.4122C92.1602 23.4122 91.5902 23.3417 91.069 23.2005C90.548 23.0702 90.13 22.8585 89.8151 22.5653C89.511 22.2723 89.3591 21.8813 89.3591 21.3927C89.3591 20.7523 89.739 20.2311 90.4991 19.8294V19.7642C90.2909 19.6103 90.1094 19.4232 89.9616 19.2106C89.8205 18.9826 89.7499 18.7002 89.7499 18.3636C89.7499 18.0814 89.8314 17.8045 89.9942 17.5331C90.1679 17.2616 90.3905 17.0283 90.6619 16.8329V16.7677C90.3687 16.5723 90.1081 16.2954 89.8801 15.937C89.663 15.5679 89.5545 15.1499 89.5545 14.6831C89.5545 14.0099 89.7173 13.4563 90.0431 13.022C90.3796 12.5768 90.8139 12.2511 91.3459 12.0448C91.878 11.8278 92.4425 11.7191 93.0396 11.7191C93.5173 11.7191 93.9516 11.7842 94.3424 11.9146H97.3715V13.934H96.1989C96.2315 14.0317 96.2587 14.1566 96.2804 14.3085C96.313 14.4605 96.3293 14.6179 96.3293 14.7808C96.3293 15.4214 96.1828 15.9426 95.8896 16.3443C95.5964 16.7351 95.2001 17.0229 94.7007 17.2074C94.2013 17.392 93.6476 17.4842 93.0396 17.4842C92.7681 17.4842 92.4642 17.4463 92.1276 17.3702C91.9973 17.4896 91.9322 17.647 91.9322 17.8424C91.9322 18.0162 92.0191 18.141 92.1928 18.2171C92.3773 18.2931 92.6705 18.331 93.0722 18.331H94.2936C95.3142 18.331 96.1013 18.4994 96.6551 18.8359C97.2196 19.1617 97.5019 19.699 97.5019 20.4482C97.5019 21.0345 97.3065 21.5502 96.9155 21.9954C96.5356 22.4404 95.9928 22.7879 95.2869 23.0376C94.5813 23.2874 93.7453 23.4122 92.779 23.4122ZM93.0396 15.8231C93.3002 15.8231 93.5119 15.7309 93.6747 15.5462C93.8377 15.3617 93.919 15.0739 93.919 14.6831C93.919 14.3031 93.8377 14.0262 93.6747 13.8525C93.5119 13.668 93.3002 13.5758 93.0396 13.5758C92.779 13.5758 92.5673 13.668 92.4045 13.8525C92.2416 14.0262 92.1602 14.3031 92.1602 14.6831C92.1602 15.0739 92.2416 15.3617 92.4045 15.5462C92.5673 15.7309 92.779 15.8231 93.0396 15.8231ZM93.235 21.6859C93.691 21.6859 94.071 21.6153 94.375 21.4742C94.6791 21.3438 94.831 21.1647 94.831 20.9367C94.831 20.7197 94.7333 20.5839 94.5379 20.5296C94.3533 20.4754 94.0873 20.4482 93.7399 20.4482H93.1048C92.779 20.4482 92.5293 20.4374 92.3556 20.4156C92.1928 20.4048 92.0515 20.3831 91.9322 20.3505C91.7367 20.5459 91.6391 20.7413 91.6391 20.9367C91.6391 21.1973 91.7856 21.3873 92.0787 21.5068C92.3827 21.6262 92.7681 21.6859 93.235 21.6859ZM102.194 20.0574V9.4717H109.099V11.8168H104.995V13.8362H108.512V16.1813H104.995V20.0574H102.194ZM112.162 20.2528C111.652 20.2528 111.212 20.1388 110.843 19.9108C110.49 19.6784 110.204 19.3586 110.012 18.9826C109.817 18.6025 109.719 18.1899 109.719 17.7448C109.719 16.8979 110.067 16.2357 110.761 15.7579C111.456 15.2693 112.585 14.9437 114.149 14.7808C114.084 14.2162 113.704 13.934 113.009 13.934C112.716 13.934 112.406 13.9936 112.081 14.1131C111.755 14.2216 111.38 14.39 110.957 14.6179L109.98 12.794C110.555 12.4465 111.136 12.1806 111.722 11.9959C112.318 11.8116 112.939 11.7183 113.562 11.7191C114.626 11.7191 115.457 12.0232 116.054 12.6312C116.651 13.2283 116.95 14.1946 116.95 15.5299V20.0574H114.67L114.475 19.2756H114.409C114.084 19.5688 113.736 19.8077 113.367 19.9922C113.009 20.1659 112.607 20.2528 112.162 20.2528ZM113.139 18.103C113.367 18.103 113.557 18.0541 113.709 17.9565C113.861 17.848 114.008 17.7122 114.149 17.5494V16.4419C113.486 16.5397 113.025 16.6862 112.765 16.8816C112.515 17.0771 112.39 17.2888 112.39 17.5168C112.39 17.9076 112.64 18.103 113.139 18.103ZM122.457 20.2528C121.686 20.2528 120.991 20.0844 120.372 19.7479C119.753 19.4113 119.259 18.9281 118.89 18.2984C118.532 17.658 118.353 16.8871 118.353 15.9859C118.353 15.0848 118.554 14.3194 118.955 13.6897C119.368 13.049 119.905 12.5606 120.567 12.2239C121.23 11.8874 121.946 11.7191 122.717 11.7191C123.206 11.7191 123.645 11.7952 124.036 11.9471C124.438 12.0991 124.791 12.3054 125.095 12.566L123.792 14.3574C123.618 14.2055 123.461 14.1023 123.32 14.048C123.179 13.9938 123.03 13.9663 122.88 13.9666C122.359 13.9666 121.952 14.151 121.659 14.5203C121.365 14.8785 121.219 15.3671 121.219 15.9859C121.219 16.6049 121.371 17.0988 121.675 17.4679C121.979 17.8262 122.348 18.0054 122.782 18.0054C123.01 18.0054 123.233 17.9565 123.45 17.8587C123.673 17.7534 123.885 17.628 124.085 17.4842L125.16 19.3082C124.758 19.6666 124.313 19.9162 123.825 20.0574C123.336 20.1876 122.88 20.2528 122.457 20.2528ZM129.743 20.2528C128.95 20.2528 128.234 20.0844 127.593 19.7479C126.963 19.4113 126.464 18.9281 126.095 18.2984C125.726 17.658 125.541 16.8871 125.541 15.9859C125.541 15.1065 125.726 14.352 126.095 13.7223C126.475 13.0816 126.963 12.5877 127.561 12.2402C128.158 11.8928 128.787 11.7191 129.45 11.7191C130.253 11.7191 130.915 11.8983 131.436 12.2565C131.969 12.604 132.359 13.0763 132.609 13.6734C132.87 14.2705 133 14.9328 133 15.6603C133 15.899 132.984 16.1326 132.951 16.3606C132.929 16.5776 132.908 16.7351 132.886 16.8329H128.245C128.375 17.3214 128.608 17.6633 128.945 17.8587C129.281 18.0434 129.678 18.1356 130.134 18.1356C130.655 18.1356 131.208 17.9728 131.795 17.647L132.707 19.3082C132.273 19.6121 131.784 19.8457 131.241 20.0085C130.698 20.1713 130.199 20.2528 129.743 20.2528ZM128.212 15.0087H130.622C130.622 14.6939 130.541 14.4225 130.378 14.1946C130.226 13.9556 129.938 13.8362 129.515 13.8362C129.211 13.8362 128.939 13.9286 128.701 14.1131C128.462 14.2977 128.299 14.5963 128.212 15.0087Z" fill="var(--fill-0, #B4BACC)"/>
<path fill-rule="evenodd" clip-rule="evenodd" d="M15.7792 0C18.4347 0 20.9195 0.737846 23.0381 2.02455C23.4215 2.25889 23.7946 2.5104 24.1551 2.77868C24.3342 2.91262 24.5094 3.05187 24.6811 3.19512C24.8555 3.33631 25.0258 3.48242 25.1909 3.63429C25.6885 4.08623 26.1527 4.57392 26.5798 5.09304C26.724 5.26518 26.8625 5.44218 26.9955 5.62312C27.2667 5.98136 27.5183 6.35407 27.7496 6.7393C28.1021 7.31859 28.4125 7.92253 28.6783 8.5463C28.8555 8.96754 29.0128 9.39726 29.1483 9.83377C29.3549 10.4981 29.5117 11.1772 29.6175 11.8648C29.6514 12.0978 29.6802 12.332 29.7043 12.5662C29.7504 13.0352 29.7782 13.5114 29.7782 13.9973C29.7776 15.062 29.6544 16.1233 29.4121 17.16C29.7812 17.304 30.1301 17.5384 30.4552 17.8938C31.0555 18.5447 31.374 19.3861 31.2467 20.3048C31.227 20.4493 31.1974 20.5924 31.159 20.7334C31.3384 21.0012 31.4726 21.2969 31.5552 21.6085C31.7395 22.309 31.6787 22.9427 31.4464 23.4966C31.6979 24.2208 31.6379 24.9921 31.3027 25.6624C31.0612 26.152 30.716 26.5311 30.2937 26.8695C29.7839 27.2714 29.1497 27.6132 28.3852 27.9419C27.4729 28.3306 26.3605 28.6967 25.8509 28.8308C24.5466 29.1699 23.2924 29.3842 22.0218 29.3941C20.2048 29.4115 18.6398 28.982 17.5262 27.8859C16.9469 27.9578 16.363 27.9942 15.7792 27.9955C15.2268 27.9956 14.6747 27.962 14.1265 27.8948C13.0101 28.9843 11.451 29.4102 9.64065 29.3933C8.36978 29.383 7.11591 29.1686 5.80829 28.83C5.30207 28.6959 4.18914 28.33 3.2772 27.9411C2.51266 27.6132 1.87824 27.2711 1.37198 26.8687C0.94644 26.5301 0.601001 26.1512 0.3597 25.6616C0.0279228 24.9913 -0.035438 24.22 0.219264 23.4958C-0.0151347 22.942 -0.0764176 22.3096 0.108052 21.6085C0.190764 21.2969 0.324915 21.0013 0.504195 20.7334C0.465453 20.5913 0.435741 20.4468 0.416524 20.3007C0.289095 19.3823 0.607986 18.5442 1.208 17.8938C1.503 17.5687 1.82166 17.344 2.15371 17.1998C1.90622 16.1507 1.78092 15.0761 1.78111 13.9981C1.78111 6.26693 8.04779 0.000204163 15.7792 0ZM15.6745 1.00497C15.4581 1.00497 15.243 1.00993 15.0292 1.02039C14.4412 1.04911 13.8634 1.11736 13.2985 1.22171C13.1572 1.24783 13.0168 1.27711 12.8772 1.30776C12.6977 1.34713 12.5196 1.39013 12.343 1.43683C12.2115 1.47162 12.0808 1.50845 11.9509 1.54723C11.766 1.60246 11.5828 1.66186 11.4014 1.72501C11.177 1.80314 10.9552 1.88675 10.7365 1.97666C6.00952 3.91999 2.68069 8.56961 2.68055 13.9973C2.6793 15.3127 2.87815 16.621 3.26989 17.8768H3.2569C3.19498 17.8768 3.13379 17.8801 3.07344 17.8857C2.62717 17.9268 2.22788 18.1191 1.93534 18.4377C1.50918 18.9021 1.31961 19.4732 1.40201 20.0442C1.43964 20.3067 1.52965 20.5588 1.66746 20.7853C1.38123 21.017 1.1703 21.3399 1.06837 21.7278C0.998079 21.9964 0.985236 22.277 1.03103 22.5509C1.07687 22.8248 1.18066 23.0861 1.33463 23.3172C1.30716 23.3598 1.28197 23.4044 1.25833 23.4496C1.00162 23.937 0.984582 24.4879 1.21125 25.0009C1.55482 25.7782 2.40898 26.3908 4.06705 27.0481C5.09079 27.4543 6.02951 27.715 6.05101 27.7211C7.41481 28.0748 8.64837 28.2552 9.71615 28.2552C10.0347 28.2552 10.3388 28.2381 10.6278 28.2065C10.6503 28.2041 10.6728 28.2011 10.6951 28.1984C11.0644 28.1546 11.4089 28.085 11.7285 27.989C11.781 27.9732 11.8324 27.9558 11.8836 27.9386C11.9759 27.9076 12.066 27.8744 12.1539 27.8388C12.2221 27.8112 12.2889 27.7823 12.3544 27.7519C12.4301 27.7169 12.5039 27.6802 12.576 27.6415C12.7396 27.5538 12.8936 27.4566 13.0387 27.3501C13.1287 27.2841 13.2157 27.2155 13.2985 27.1423C13.4101 27.0436 13.5158 26.939 13.6143 26.8273L14.1452 26.9004C14.855 26.9835 15.5698 27.0089 16.2825 26.9759C16.8173 26.9511 17.3508 26.8931 17.8801 26.803C18.4015 27.4052 19.1108 27.8222 20.0013 28.0499C20.0903 28.0726 20.1813 28.0934 20.274 28.1124C20.7373 28.2073 21.2459 28.2552 21.7985 28.2552C22.8403 28.2552 24.0394 28.0823 25.3638 27.7454C25.3971 27.737 25.431 27.7298 25.4645 27.7211C25.4677 27.7202 25.5333 27.699 25.6479 27.6651C25.829 27.6114 26.1299 27.5196 26.4922 27.3964C26.5904 27.363 26.6937 27.3287 26.7998 27.2909C26.9734 27.229 27.1557 27.1613 27.3421 27.0887C27.3772 27.075 27.4131 27.0622 27.4484 27.0481C27.5667 27.0012 27.6808 26.9542 27.791 26.9077C28.0294 26.8071 28.2488 26.7065 28.451 26.6065C28.5447 26.5602 28.6349 26.5142 28.7213 26.4677C28.9849 26.3258 29.2139 26.1825 29.4121 26.0367C29.4797 25.9869 29.5432 25.9362 29.6037 25.8857C29.6573 25.8408 29.7081 25.7957 29.7563 25.7501C30.0065 25.5136 30.1862 25.2678 30.3042 25.0009C30.5309 24.488 30.5146 23.937 30.258 23.4496C30.2344 23.4044 30.208 23.3594 30.1808 23.3172C30.3347 23.0859 30.4386 22.8249 30.4844 22.5509C30.5302 22.277 30.5173 21.9964 30.4471 21.7278C30.345 21.3399 30.1335 21.0169 29.8472 20.7853C29.9851 20.5588 30.0758 20.3067 30.1135 20.0442C30.196 19.4734 30.0062 18.9029 29.5801 18.4385C29.2483 18.0769 28.7789 17.8777 28.2594 17.8776C28.1991 17.8776 28.1368 17.8802 28.0743 17.8865C28.4684 16.6278 28.6686 15.3163 28.6677 13.9973C28.6676 6.8217 22.8506 1.00497 15.6745 1.00497Z" fill="var(--fill-0, #B4BACC)"/>
<path d="M5.27989 18.389C5.11124 17.454 5.61482 17.1999 6.33032 17.6535C7.04609 18.1078 8.42569 20.4789 8.93123 21.4015C9.43677 22.3239 11.0107 21.6573 9.69754 20.6741C8.38477 19.6911 8.84475 18.0853 9.47187 17.9864C10.0948 17.8882 10.3708 18.9475 10.3746 18.9621C10.3746 18.9621 11.1113 20.8124 12.3772 22.0777C13.6432 23.3429 13.7088 24.3589 12.7863 25.712C11.5035 27.5917 7.8331 26.7979 6.38796 26.4231C6.34868 26.4131 1.87899 25.1481 2.4452 24.0738C2.74476 23.5055 3.66023 24.0094 4.49572 24.4691C5.23999 24.8786 5.92062 25.2526 6.0462 24.8036C6.16693 24.3705 5.34287 24.0517 4.44215 23.7028C3.36081 23.2839 2.16911 22.8217 2.36727 22.0679C2.59617 21.1973 4.21643 22.1702 5.44549 22.9081C6.16653 23.341 6.7532 23.6927 6.84498 23.5445C7.09323 23.1436 6.95648 22.8639 5.20602 21.8041C5.06877 21.7211 4.93438 21.6404 4.8042 21.5622C3.27382 20.6433 2.28075 20.0466 2.92414 19.3453C3.62288 18.5841 6.83281 21.5046 6.83281 21.5046C6.84706 21.5193 7.85971 22.5668 8.14868 22.0801C8.29514 21.8333 7.60947 21.1361 6.87096 20.3851C6.14307 19.6451 5.36378 18.8531 5.27989 18.389Z" fill="var(--fill-0, #B4BACC)"/>
<path d="M25.1853 17.6535C25.9008 17.1999 26.4044 17.454 26.2357 18.389C26.1518 18.8531 25.3727 19.6451 24.6446 20.3851C23.9062 21.136 23.2204 21.8334 23.3669 22.0801C23.6571 22.569 24.6785 21.509 24.6836 21.5038C24.6836 21.5038 27.8926 18.5835 28.5915 19.3444C29.2355 20.046 28.242 20.6422 26.7114 21.5614C26.5812 21.6395 26.4476 21.7202 26.3104 21.8033C24.5595 22.8631 24.4232 23.1429 24.6714 23.5437C24.7632 23.6919 25.3493 23.3401 26.0701 22.9073C27.2993 22.1694 28.9201 21.1967 29.1491 22.0671C29.3473 22.8209 28.155 23.2831 27.0735 23.702C26.1726 24.051 25.3484 24.3702 25.4694 24.8036C25.595 25.2526 26.2759 24.8779 27.0199 24.4683C27.8554 24.0085 28.7716 23.5044 29.0712 24.073C29.6367 25.1468 25.177 26.4084 25.1276 26.4214C23.6825 26.7973 20.0123 27.5917 18.7301 25.712C17.8074 24.3588 17.8732 23.3429 19.1392 22.0777C20.4051 20.8124 21.1419 18.9621 21.1419 18.9621C21.1459 18.9465 21.4214 17.8887 22.0437 17.9864C22.671 18.0851 23.1314 19.691 21.8181 20.6741C20.5049 21.6572 22.0795 22.324 22.5852 21.4015C23.0906 20.4788 24.4697 18.1076 25.1853 17.6535Z" fill="var(--fill-0, #B4BACC)"/>
<path fill-rule="evenodd" clip-rule="evenodd" d="M15.6754 2.34682C22.1103 2.34682 27.3249 7.56293 27.3251 13.9973V14.1483C27.3251 14.1689 27.3247 14.1895 27.3243 14.21V14.2238C27.3243 14.2398 27.3231 14.2557 27.3227 14.2717V14.2855C27.3227 14.3015 27.3217 14.3178 27.321 14.3334V14.3407C27.321 14.3574 27.3202 14.3742 27.3194 14.391L27.3186 14.4113V14.413C27.3177 14.4405 27.3166 14.468 27.3154 14.4949L27.3129 14.5664L27.3121 14.5834L27.3081 14.6581V14.6597C27.3001 14.8017 27.2891 14.9435 27.2764 15.0851L27.2707 15.1492C27.2683 15.1766 27.2655 15.2038 27.2626 15.2312L27.261 15.245C27.2593 15.2615 27.2573 15.2782 27.2553 15.2945C27.2508 15.3358 27.2462 15.3768 27.2415 15.4179L27.2342 15.4804L27.2244 15.5543L27.2228 15.5673C27.2199 15.5898 27.2163 15.6123 27.2131 15.6347C27.2091 15.6642 27.2052 15.6938 27.2009 15.7231L27.2001 15.724L27.1895 15.7946L27.179 15.8644L27.1774 15.8741C27.1732 15.9009 27.1686 15.9279 27.1636 15.9545C27.1604 15.9714 27.1574 15.9881 27.1546 16.0048C27.1442 16.0673 27.1325 16.1302 27.1205 16.1924C27.1107 16.2428 27.1006 16.2932 27.0905 16.3433C27.0739 16.4239 27.0565 16.5042 27.0385 16.5844C26.7106 16.2659 26.2764 16.0917 25.7974 16.0917C25.3627 16.0917 24.9157 16.2358 24.4685 16.5195C24.1718 16.708 23.8442 17.0422 23.5065 17.462C23.1937 17.0281 22.7552 16.7395 22.2548 16.6607C22.1595 16.6456 22.0631 16.6382 21.9666 16.638C20.8231 16.638 20.135 17.6297 19.8747 18.5221C19.7455 18.8236 19.1255 20.1975 18.1935 21.1287C16.7798 22.5416 16.4216 23.9987 17.113 25.5594L17.0473 25.5675C17.0101 25.5719 16.9727 25.5763 16.9353 25.5805C16.8766 25.5866 16.8174 25.592 16.7583 25.5975L16.7007 25.6032L16.5732 25.6129C16.5459 25.6151 16.5186 25.6177 16.4912 25.6194L16.4084 25.6251L16.3906 25.6259L16.3662 25.6275L16.3256 25.6292L16.298 25.6308C16.2724 25.6322 16.2466 25.6338 16.2209 25.6348L16.1316 25.6389L15.9969 25.643H15.9693C15.9602 25.643 15.9507 25.6435 15.9417 25.6438H15.8913C15.8745 25.6438 15.8578 25.6437 15.841 25.6446L15.772 25.6454H15.6762C15.5856 25.6454 15.4949 25.6443 15.4043 25.6422H15.3897C15.376 25.6422 15.3618 25.6418 15.3483 25.6413L15.3377 25.6405L15.2728 25.6389L15.1932 25.6357L15.121 25.6324L15.1023 25.6316L15.0333 25.6284L15.0114 25.6267L14.9765 25.6251L14.9318 25.6219C14.8758 25.6182 14.8201 25.6148 14.7646 25.6105L14.7062 25.6056C14.6849 25.6041 14.6631 25.6019 14.642 25.5999L14.6323 25.5991C14.6036 25.5967 14.5749 25.5938 14.5462 25.591C14.498 25.5866 14.4497 25.5816 14.4017 25.5764H14.3993C15.1017 24.0092 14.7466 22.5455 13.327 21.1271C12.3932 20.1986 11.7737 18.8261 11.645 18.5238C11.3849 17.6315 10.6962 16.639 9.55304 16.6388C9.45652 16.639 9.35966 16.6465 9.26405 16.6616C8.76321 16.7403 8.32551 17.0288 8.01312 17.4628C7.67551 17.0429 7.34708 16.7088 7.05036 16.5203C6.60321 16.2367 6.15651 16.0933 5.7215 16.0933C5.17881 16.0934 4.69345 16.3158 4.35529 16.72L4.34717 16.7306C4.34226 16.7107 4.33717 16.6909 4.33256 16.6713L4.32769 16.651L4.32688 16.6469C4.27537 16.4266 4.23115 16.2043 4.19293 15.9813C4.17964 15.9046 4.16705 15.8277 4.15559 15.7507L4.15478 15.7459C4.14967 15.7119 4.14414 15.6778 4.13936 15.6436C4.13133 15.5869 4.12374 15.5299 4.11663 15.4731L4.10608 15.3879L4.09715 15.3067L4.09633 15.3002C4.08402 15.1897 4.07307 15.0782 4.06386 14.9674L4.06062 14.9292V14.9252C4.05878 14.9033 4.05728 14.8807 4.05575 14.8586L4.05493 14.8521C4.05323 14.8295 4.05222 14.8066 4.05088 14.7839L4.05006 14.7791C4.04823 14.7524 4.04673 14.7255 4.04519 14.6987C4.04335 14.6698 4.04186 14.6401 4.04032 14.611V14.6094L4.03545 14.5242V14.5209L4.03302 14.4479L4.0322 14.4251L4.02977 14.3545L4.02815 14.2952C4.02815 14.2805 4.02764 14.2654 4.02733 14.2506L4.02652 14.2238L4.02571 14.2035L4.0249 14.1483C4.02513 14.1233 4.02482 14.0979 4.02409 14.0728C4.02378 14.0561 4.02393 14.0392 4.02409 14.0225L4.0249 13.9973C4.02508 7.56333 9.24093 2.34697 15.6754 2.34682ZM19.9494 14.4251C19.9492 13.6415 19.421 13.8887 18.5767 14.3066L18.5296 14.3302C17.7543 14.714 16.7221 15.2247 15.5894 15.2247C14.4566 15.2247 13.4249 14.7132 12.6499 14.3293C11.7781 13.8975 11.231 13.6273 11.231 14.4259C11.2311 15.449 11.7205 17.1287 13.0631 18.1049C13.2402 17.7452 13.49 17.4261 13.7962 17.1673C14.1022 16.9085 14.4584 16.7155 14.8425 16.6007C14.9766 16.5607 15.1151 16.7915 15.2565 17.0277C15.3929 17.2556 15.5319 17.4887 15.6738 17.4887C15.8247 17.4887 15.9729 17.2591 16.1178 17.035C16.2693 16.8007 16.4174 16.5721 16.5602 16.6177C17.279 16.8485 17.8801 17.349 18.2373 18.014C19.4892 17.0276 19.9494 15.417 19.9494 14.4251ZM8.17385 10.2486C7.89117 10.192 7.59744 10.2499 7.35721 10.4093C7.2378 10.4886 7.13516 10.5907 7.05523 10.7097C6.9753 10.8288 6.91943 10.9629 6.89125 11.1034C6.86312 11.244 6.8634 11.389 6.89125 11.5296C6.91915 11.67 6.97399 11.8042 7.05361 11.9233C7.13327 12.0425 7.23635 12.1448 7.35559 12.2244C7.47478 12.3038 7.60878 12.359 7.74929 12.3868C7.88973 12.4144 8.03433 12.4141 8.17466 12.386C8.31522 12.3577 8.44941 12.3013 8.56837 12.2212C8.80744 12.0602 8.97285 11.8109 9.02864 11.5279C9.08442 11.2451 9.02565 10.9519 8.86548 10.7121C8.70519 10.4723 8.45662 10.3053 8.17385 10.2486ZM23.7647 10.2486C23.4821 10.192 23.1883 10.2499 22.948 10.4093C22.8286 10.4886 22.726 10.5907 22.6461 10.7097C22.5661 10.8288 22.5102 10.9629 22.4821 11.1034C22.454 11.244 22.4543 11.389 22.4821 11.5296C22.5099 11.67 22.5647 11.8042 22.6444 11.9233C22.7241 12.0425 22.8272 12.1448 22.9464 12.2244C23.0656 12.3038 23.1996 12.359 23.3401 12.3868C23.4807 12.4144 23.6259 12.4142 23.7663 12.386C23.9067 12.3577 24.0403 12.3012 24.1592 12.2212C24.3983 12.0602 24.5637 11.8109 24.6195 11.5279C24.6753 11.2451 24.6165 10.9519 24.4563 10.7121C24.296 10.4723 24.0474 10.3053 23.7647 10.2486ZM11.3154 8.47C11.0677 8.47057 10.8231 8.52602 10.5994 8.63235C10.3756 8.73878 10.1776 8.89344 10.0206 9.08532C9.86403 9.27724 9.75167 9.50158 9.69186 9.74204C9.63221 9.98259 9.62673 10.2337 9.67562 10.4767C9.7245 10.7197 9.82715 10.9484 9.97516 11.1472C10.1232 11.346 10.3133 11.5098 10.532 11.6262C10.7801 11.758 10.942 11.5237 11.1157 11.2722C11.2441 11.0864 11.3792 10.8909 11.5605 10.8266C11.7284 10.7672 11.9486 10.855 12.1596 10.9394C12.429 11.0472 12.684 11.1492 12.7993 10.9329C12.955 10.6402 13.0208 10.3081 12.9876 9.97826C12.9543 9.64835 12.8235 9.33542 12.6126 9.07963C12.4549 8.88851 12.2564 8.73453 12.0322 8.6291C11.808 8.52378 11.5631 8.46946 11.3154 8.47ZM19.951 8.48785C19.7058 8.45097 19.4553 8.46912 19.218 8.54062C18.9006 8.63621 18.6187 8.8239 18.4078 9.07963C18.197 9.33542 18.0661 9.64843 18.0328 9.97826C17.9997 10.308 18.0656 10.6402 18.2211 10.9329C18.3361 11.149 18.5908 11.0471 18.86 10.9394C19.0711 10.855 19.2912 10.7675 19.4591 10.8266C19.6406 10.8908 19.7762 11.0862 19.9047 11.2722C20.0784 11.5239 20.2402 11.7581 20.4884 11.6262C20.7812 11.4706 21.0206 11.2314 21.1776 10.9394C21.3345 10.6474 21.4017 10.3155 21.37 9.98557C21.3463 9.73885 21.268 9.50034 21.141 9.28745C21.0141 9.07461 20.8417 8.89228 20.6361 8.75411C20.4303 8.61596 20.196 8.52475 19.951 8.48785Z" fill="var(--fill-0, #B4BACC)"/>
<path d="M18.2373 18.014C17.5853 18.5278 16.719 18.8721 15.5906 18.8721C14.5302 18.8721 13.7001 18.5678 13.0631 18.1049C13.2402 17.7452 13.49 17.4261 13.7962 17.1673C14.1022 16.9085 14.4584 16.7155 14.8425 16.6007C15.1059 16.5221 15.3851 17.4887 15.6738 17.4887C15.9829 17.4887 16.2807 16.5284 16.5602 16.6177C17.279 16.8485 17.8801 17.349 18.2373 18.014Z" fill="#B4BACC"/>
</g>
</svg>
