<svg preserveAspectRatio="none" width="100%" height="100%" overflow="visible" style="display: block;" viewBox="0 0 140 23.7431" fill="none" xmlns="http://www.w3.org/2000/svg">
<g id="Vector">
<path d="M35.8831 6.42135C35.2641 6.42135 34.682 6.66116 34.2463 7.0968L32.4858 8.85263C32.0108 9.3263 31.7668 9.984 31.8168 10.6583C31.8204 10.6951 31.8239 10.7319 31.8275 10.7699C31.8906 11.2875 32.118 11.754 32.4858 12.1196C32.7393 12.3725 33.0191 12.5328 33.3583 12.6444C33.3762 12.7465 33.3857 12.8497 33.3857 12.9531C33.3857 13.4184 33.2048 13.8553 32.8762 14.183L32.7679 14.291C32.1799 14.0903 31.6894 13.7971 31.2466 13.3555C30.6586 12.769 30.2693 12.0282 30.1229 11.2151L30.1027 11.1023L30.0134 11.1747C29.9527 11.2234 29.8955 11.2756 29.842 11.329L28.0814 13.0848C27.1791 13.9847 27.1791 15.4508 28.0814 16.3507C28.5326 16.8006 29.1254 17.0262 29.7194 17.0262C30.3134 17.0262 30.905 16.8006 31.3561 16.3507L33.1167 14.5949C34.019 13.695 34.019 12.2301 33.1167 11.329C32.8762 11.0892 32.5894 10.9088 32.2644 10.7924C32.2465 10.6867 32.237 10.5811 32.237 10.4779C32.237 9.97211 32.437 9.49249 32.8036 9.12685C33.3929 9.32746 33.9154 9.65279 34.357 10.0932C34.9439 10.6785 35.332 11.4181 35.4807 12.2336L35.501 12.3464L35.5903 12.274C35.651 12.2253 35.7081 12.1731 35.7629 12.1185L37.5234 10.3627C38.4257 9.4628 38.4269 7.9967 37.5234 7.0968C37.0866 6.66116 36.5056 6.42135 35.8855 6.42135H35.8831Z" fill="var(--fill-0, #B4BACC)"/>
<path d="M34.9397 0H11.9037C5.33998 0 0 5.32557 0 11.8716C0 18.4175 5.33998 23.7431 11.9037 23.7431H34.9397C41.5033 23.7431 46.8434 18.4175 46.8434 11.8716C46.8434 5.32557 41.5033 0 34.9397 0ZM23.5776 18.6122C23.1979 18.6905 22.7705 18.7048 22.4801 18.4021C22.3729 18.6478 22.123 18.5184 21.9301 18.4864C21.9123 18.5362 21.8968 18.5801 21.8801 18.63C21.2385 18.6728 20.7576 18.0198 20.4517 17.5271C19.8446 17.1995 19.1554 17 18.5352 16.6569C18.4995 17.2221 18.6233 17.9225 18.084 18.2869C18.0567 19.3732 19.7315 18.4152 19.8851 19.2248C19.7661 19.2378 19.6339 19.2057 19.5387 19.2972C19.1018 19.721 18.6007 18.9767 18.0972 19.2841C17.421 19.6236 17.3532 19.9014 16.5163 19.9715C16.4699 19.9014 16.489 19.8551 16.5282 19.8124C16.7639 19.5394 16.7806 19.2176 17.183 19.1013C16.7687 19.036 16.4223 19.264 16.0735 19.4444C15.62 19.6296 15.6236 19.0265 14.926 19.4764C14.8486 19.4135 14.8856 19.3565 14.9296 19.3079C15.1069 19.0918 15.3403 19.0597 15.6033 19.0716C14.3094 18.3522 13.6999 19.9513 13.1024 19.1559C12.9226 19.2034 12.8548 19.3648 12.7417 19.4788C12.6441 19.372 12.7179 19.2426 12.7227 19.1167C12.606 19.0621 12.4584 19.036 12.4929 18.8496C12.2644 18.7724 12.1049 18.9078 11.9346 19.036C11.7811 18.9173 12.0382 18.744 12.0858 18.6205C12.2227 18.3831 12.5345 18.5718 12.6929 18.4009C13.1428 18.1457 13.7702 18.5599 14.2844 18.4899C14.6808 18.5398 15.1712 18.1338 14.9724 17.7289C14.5487 17.1888 14.6236 16.4825 14.6141 15.8366C14.5617 15.4603 13.6559 14.9807 13.394 14.5747C13.0702 14.209 12.8179 13.7852 12.5655 13.3686C11.6549 11.6103 11.9418 9.3512 10.7942 7.71886C10.2752 8.00499 9.5991 7.86965 9.15157 7.48617C8.90989 7.7058 8.89916 7.99309 8.88014 8.29823C8.30042 7.72009 8.37305 6.62785 8.8361 5.98444C9.02539 5.73039 9.25155 5.52145 9.5039 5.33744C9.56101 5.29589 9.58008 5.25553 9.57886 5.19142C10.0372 3.13527 13.1631 3.53178 14.1511 4.98842C14.8677 5.88475 15.0844 7.07066 15.8973 7.9029C16.9913 9.09716 18.2376 10.149 19.247 11.4204C20.2017 12.5826 20.8838 13.9455 21.479 15.3191C21.7218 15.7749 21.7242 16.3341 22.0837 16.7234C22.261 16.9585 23.1276 17.5984 22.9396 17.8251C23.0479 18.0601 23.8573 18.3842 23.5764 18.6122H23.5776ZM38.7595 11.5985L36.999 13.3543C36.53 13.822 35.9503 14.1711 35.3218 14.3622L35.2896 14.3717L35.2777 14.4025C35.073 14.9415 34.7623 15.4223 34.3528 15.8295L32.5922 17.5853C31.8244 18.351 30.8031 18.7724 29.7151 18.7724C28.6271 18.7724 27.6058 18.351 26.838 17.5853C25.2513 16.0028 25.2513 13.4291 26.838 11.8466L28.5986 10.0908C29.0699 9.6207 29.6342 9.28237 30.2734 9.08649L30.3056 9.07698L30.3175 9.04612C30.5222 8.50712 30.8341 8.02517 31.2448 7.61439L33.0053 5.85861C33.7731 5.09289 34.7944 4.67145 35.8824 4.67145C36.9704 4.67145 37.9917 5.09289 38.7595 5.85861C39.5274 6.6243 39.9499 7.64291 39.9499 8.72797C39.9499 9.81303 39.5274 10.8328 38.7595 11.5973V11.5985Z" fill="var(--fill-0, #B4BACC)"/>
<path d="M16.4163 16.4872C16.2615 17.0879 16.2115 18.11 15.4283 18.1397C15.364 18.4864 15.6687 18.6169 15.9473 18.5053C16.2223 18.3795 16.3532 18.6051 16.446 18.8294C16.871 18.8912 17.4995 18.6882 17.5233 18.186C16.8888 17.8216 16.6924 17.1283 16.4174 16.486L16.4163 16.4872Z" fill="var(--fill-0, #B4BACC)"/>
<path d="M57.8719 6.22261H55.7807V18.9078H64.75V16.8872H57.8719V6.22261Z" fill="var(--fill-0, #B4BACC)"/>
<path d="M75.2622 18.9078H77.3535V18.8853H77.3809L77.385 18.7922C77.3856 18.7649 77.3932 18.5111 77.3547 18.1199V13.3988C77.3547 11.6226 78.6497 10.814 79.8531 10.814C81.1475 10.814 81.7775 11.5116 81.7775 12.9475V18.9078H83.8687V12.6691C83.8687 10.2996 82.3632 8.8272 79.9406 8.8272C78.911 8.8272 77.9922 9.11962 77.2707 9.6753L77.2514 9.00115H75.2652V18.9078H75.2622Z" fill="var(--fill-0, #B4BACC)"/>
<path d="M92.3796 9.72891C91.6528 9.1384 90.7183 8.8272 89.6642 8.8272C86.8443 8.8272 85.0926 10.7717 85.0926 13.9018C85.0926 17.032 86.8443 18.9943 89.6642 18.9943C90.6588 18.9943 91.5466 18.7236 92.246 18.2082C92.1859 19.7438 91.224 20.6558 89.6472 20.6558C88.3213 20.6558 87.5712 20.2336 87.4172 19.4015L87.3979 19.298L85.3662 19.9177L85.3842 20.0014C85.7272 21.6553 87.2748 22.6426 89.5259 22.6426C91.0531 22.6426 92.2507 22.227 93.0866 21.4061C93.9301 20.5787 94.3571 19.3864 94.3571 17.8632V9.00115H92.4227L92.3807 9.72891H92.3796ZM92.2489 13.9893C92.2489 15.8792 91.3284 17.0085 89.7855 17.0085C88.1317 17.0085 87.1838 15.8764 87.1838 13.9028C87.1838 11.9291 88.1323 10.814 89.7855 10.814C91.2911 10.814 92.2338 11.9376 92.2489 13.7457V13.9893Z" fill="var(--fill-0, #B4BACC)"/>
<path d="M104.66 14.8853C104.227 16.2872 103.114 17.0601 101.527 17.0601C99.2588 17.0601 97.8483 15.3375 97.8483 12.5647C97.8483 9.79185 99.2711 8.06927 101.562 8.06927C103.148 8.06927 104.061 8.69081 104.526 10.0833L104.743 10.7349L106.718 9.80784L106.532 9.28599C105.78 7.16755 104.044 6.0486 101.51 6.0486C99.7891 6.0486 98.3278 6.67015 97.2842 7.8455C96.2517 9.00955 95.7052 10.6409 95.7052 12.5657C95.7052 16.5242 97.9901 19.0827 101.527 19.0827C104.02 19.0827 105.951 17.7785 106.692 15.5933L106.881 15.0348L104.852 14.2637L104.659 14.8862L104.66 14.8853Z" fill="var(--fill-0, #B4BACC)"/>
<path d="M112.47 8.8272C111.471 8.8272 110.583 9.10084 109.885 9.62082V5.0069H107.794V18.9088H109.885V13.3998C109.885 11.6123 111.18 10.798 112.384 10.798C113.678 10.798 114.308 11.4957 114.308 12.9315V18.9098H116.4V12.6532C116.4 10.3297 114.858 8.82912 112.471 8.82912L112.47 8.8272Z" fill="var(--fill-0, #B4BACC)"/>
<path d="M128.623 4.70789C127.846 4.70789 127.282 5.27206 127.282 6.04872C127.282 6.82537 127.846 7.38957 128.623 7.38957C129.399 7.38957 129.963 6.82537 129.963 6.04872C129.963 5.27206 129.399 4.70789 128.623 4.70789Z" fill="var(--fill-0, #B4BACC)"/>
<path d="M136.069 8.8272C135.04 8.8272 134.122 9.11962 133.4 9.6753L133.38 9.00115H131.395V18.9078H133.486V13.3988C133.486 11.6226 134.78 10.814 135.984 10.814C137.279 10.814 137.909 11.5116 137.909 12.9475V18.9078H140V12.6691C140 10.2996 138.494 8.8272 136.072 8.8272H136.069Z" fill="var(--fill-0, #B4BACC)"/>
<path d="M129.638 9.00115H127.557V13.9122C126.98 13.427 126.3 13.0603 125.532 12.8206V12.3212C125.532 10.1333 124.096 8.8272 121.69 8.8272C119.735 8.8272 118.273 9.74495 117.678 11.3443L117.517 11.7759L119.194 13.0114L119.481 12.262C119.86 11.2738 120.563 10.8131 121.69 10.8131C122.817 10.8131 123.441 11.3556 123.441 12.4247V12.4802C123.374 12.4773 123.306 12.4755 123.238 12.4745C121 12.4388 119.366 12.9626 118.384 14.0288C117.379 15.1195 117.467 16.3447 117.48 16.4801L117.49 16.5741H117.499C117.655 18.1002 118.988 19.0799 120.926 19.0799C121.992 19.0799 122.978 18.7828 123.724 18.2403L123.732 18.9069H125.532V15.8078L125.493 15.7796C125.239 15.5934 124.795 15.3527 124.127 15.2681C123.917 15.2418 123.717 15.2286 123.533 15.2324H123.44V15.5173C123.44 16.1726 122.687 17.095 121.011 17.095C119.775 17.095 119.59 16.575 119.59 16.2648V16.2328C119.6 16.0937 119.658 15.7532 119.965 15.4364C120.356 15.033 121.234 14.561 123.204 14.5911C124.63 14.6136 125.725 15.0123 126.457 15.7767C127.356 16.7151 127.525 17.9996 127.556 18.5026V18.9078H129.637V9.00115H129.638Z" fill="var(--fill-0, #B4BACC)"/>
<path d="M69.8553 8.78397C67.9006 8.78397 66.4387 9.70167 65.8432 11.3011L65.6827 11.7327L67.3592 12.9682L67.6468 12.2188C68.026 11.2305 68.7283 10.7698 69.8553 10.7698C70.9829 10.7698 71.6065 11.3124 71.6065 12.3814V12.6325L69.4528 13.0124C66.9282 13.459 65.6477 14.5384 65.6477 16.2196C65.6477 17.9008 66.9987 19.0367 69.09 19.0367C70.1575 19.0367 71.1427 18.7395 71.8882 18.197L71.897 18.8637H73.6966V12.278C73.6966 10.09 72.261 8.78397 69.8553 8.78397ZM71.6065 14.592V15.4749C71.6065 16.1303 70.8528 17.0527 69.1775 17.0527C67.9408 17.0527 67.7571 16.5327 67.7571 16.2225C67.7571 15.947 67.7571 15.3019 69.9475 14.8957L71.6065 14.593V14.592Z" fill="var(--fill-0, #B4BACC)"/>
</g>
</svg>
