<svg preserveAspectRatio="none" width="100%" height="100%" overflow="visible" style="display: block;" viewBox="0 0 140 23.9232" fill="none" xmlns="http://www.w3.org/2000/svg">
<g id="Vector">
<path fill-rule="evenodd" clip-rule="evenodd" d="M20.1079 0C22.2149 0.000133703 23.9231 1.70831 23.9232 3.81531V20.1079C23.9231 22.2149 22.2149 23.9231 20.1079 23.9232H3.81531C1.70831 23.9231 0.000133702 22.2149 0 20.1079V3.81531C0.000101612 1.70829 1.70829 0.000101612 3.81531 0H20.1079ZM6.59753 3.40601C6.35591 3.57326 5.99 2.50866 5.67468 2.67371C5.33647 2.84917 5.88032 3.4463 5.88062 3.89648C5.87807 4.34671 5.2518 4.41033 4.82446 4.44849C4.39748 4.48682 4.27794 4.93709 4.31091 5.33374C4.34128 5.72846 5.92459 6.05323 5.94128 6.05664C5.26478 8.28221 5.71484 9.78821 5.71484 9.78821C5.49876 11.0421 6.10193 11.9937 6.10193 11.9937C6.14521 13.6518 6.50656 13.644 7.21619 14.5469C7.92578 15.4498 8.12133 17.0752 8.26123 17.9452C8.40113 18.8126 8.78768 20.3745 7.92029 20.5907C7.3916 20.7217 7.38628 21.2466 7.38623 21.2572H8.4364C9.25264 19.4257 9.30116 18.0635 9.302 18.0375C9.31663 18.0762 10.249 20.5536 9.44641 20.6394C8.79064 20.7102 8.76994 21.2535 8.76965 21.2623H10.1437C10.4619 20.3782 10.3764 19.1228 10.3752 19.1056C10.6093 18.3654 10.6982 17.3248 10.6982 17.3248C11.0467 16.9484 11.2579 16.6227 11.3622 16.4421C11.4131 16.3532 11.5126 16.3047 11.6143 16.3174C13.5542 16.5623 15.1176 15.997 15.139 15.9893C14.905 17.3171 15.264 17.8389 16.1721 18.4493C16.4696 18.6506 16.4288 20.3211 15.4116 20.7129C14.9301 20.8969 14.9758 21.2585 14.9767 21.2649H16.126C17.2452 19.5225 16.7677 17.6427 16.7677 17.6427C19.2372 18.9018 18.1819 20.6599 18.1819 20.6599H18.1896C17.7115 20.8511 17.7754 21.2561 17.7769 21.2649H18.7689C19.1778 20.5481 19.0007 19.248 18.9979 19.2278C19.3718 18.4469 19.1735 17.8969 19.0082 17.2915C18.843 16.6861 18.9468 15.6184 18.7587 15.1758C18.5705 14.7333 18.7364 14.0083 18.7365 13.5403C18.7365 13.0723 19.9719 13.2602 19.532 11.7672C19.0335 10.0707 18.1537 10.5331 17.3881 10.7264C16.6224 10.9198 16.5507 10.2506 14.8058 9.82324C13.0611 9.39611 10.0736 9.50533 9.41907 9.50537C8.76536 9.50537 8.95322 7.94644 8.50049 5.61145C8.04792 3.27742 6.71094 2.83359 6.55225 2.80017C6.16815 2.72132 6.75524 3.29663 6.59753 3.40601Z" fill="var(--fill-0, #B4BACC)"/>
<path d="M31.8974 4.41318H34.3164V17.9226H42.0288V20.1025H31.8974V4.41318Z" fill="var(--fill-0, #B4BACC)"/>
<path d="M55.2942 18.7721C54.3149 19.9702 53.071 20.3619 51.7 20.3619C49.1945 20.3619 47.5818 19.1638 47.5818 16.9839C47.5818 14.9795 49.0622 13.9544 51.7865 13.4533L55.2077 12.8225V12.0823C55.2077 10.8842 54.4675 10.3831 52.9413 10.3831C51.6339 10.3831 50.3696 10.841 50.3061 12.3214H48.0397C48.1058 9.59712 50.3722 8.50843 52.9413 8.50843C55.9912 8.50843 57.4512 9.79298 57.4512 11.8406V20.0974H55.2942V18.767V18.7721ZM52.0485 18.533C53.595 18.533 55.2077 17.6834 55.2077 15.6561V14.5242L52.1782 15.155C50.8046 15.4374 49.9347 15.7655 49.9347 16.9203C49.9347 17.8793 50.5884 18.533 52.0485 18.533Z" fill="var(--fill-0, #B4BACC)"/>
<path d="M71.4873 10.5357C70.5944 10.5357 68.8062 11.0368 68.8062 13.8247V20.0999H66.5195V13.0412C66.5195 11.5812 65.7996 10.5357 64.4057 10.5357C63.5129 10.5357 61.7272 11.0368 61.7272 13.8247V20.0999H59.4405V8.77043H61.6407V10.3602C62.2945 9.31477 63.3832 8.50843 65.0187 8.50843C66.6543 8.50843 67.8066 9.38091 68.3738 10.6655C69.114 9.4445 70.3121 8.50843 72.1003 8.50843C74.5855 8.50843 75.8929 10.4696 75.8929 12.7996V20.0974H73.6061V13.0387C73.6061 11.5786 72.8863 10.5332 71.4924 10.5332L71.4873 10.5357Z" fill="var(--fill-0, #B4BACC)"/>
<path d="M85.0956 18.7721C84.1163 19.9702 82.8724 20.3619 81.5014 20.3619C78.9959 20.3619 77.3832 19.1638 77.3832 16.9839C77.3832 14.9795 78.8636 13.9544 81.5879 13.4533L85.0091 12.8225V12.0823C85.0091 10.8842 84.2689 10.3831 82.7427 10.3831C81.4352 10.3831 80.171 10.841 80.1074 12.3214H77.841C77.9072 9.59712 80.1736 8.50843 82.7427 8.50843C85.7925 8.50843 87.2526 9.79298 87.2526 11.8406V20.0974H85.0956V18.767V18.7721ZM81.8499 18.533C83.3964 18.533 85.0091 17.6834 85.0091 15.6561V14.5242L81.9796 15.155C80.606 15.4374 79.7361 15.7655 79.7361 16.9203C79.7361 17.8793 80.3898 18.533 81.8499 18.533Z" fill="var(--fill-0, #B4BACC)"/>
<path d="M89.5776 4.41318H91.8084V20.1H89.5776V4.41318Z" fill="var(--fill-0, #B4BACC)"/>
<path d="M43.5728 4.41318H45.8036V20.1H43.5728V4.41318Z" fill="var(--fill-0, #B4BACC)"/>
<path d="M99.4008 10.5357C98.5283 10.5357 96.5035 11.0368 96.5035 13.8247V20.0999H94.2168V8.77043H96.4171V10.3602C97.1802 9.29188 98.3553 8.50843 100.011 8.50843C102.756 8.50843 104.043 10.4696 104.043 12.7996V20.0974H101.777V13.0387C101.777 11.5786 101.057 10.5332 99.4008 10.5332V10.5357Z" fill="var(--fill-0, #B4BACC)"/>
<path d="M114.515 20.1025V18.4898C113.732 19.6447 112.488 20.3645 110.812 20.3645C107.48 20.3645 105.648 17.8361 105.648 14.4378C105.648 11.0395 107.48 8.51105 110.812 8.51105C112.445 8.51105 113.645 9.16477 114.429 10.2764V4.41575H116.716V20.1025H114.515ZM111.247 18.4008C113.447 18.4008 114.492 16.7678 114.492 14.4352C114.492 12.1027 113.447 10.4697 111.247 10.4697C109.046 10.4697 108.001 12.1027 108.001 14.4352C108.001 16.7678 109.046 18.4008 111.247 18.4008Z" fill="var(--fill-0, #B4BACC)"/>
<path d="M118.26 14.4377C118.26 11.0394 120.35 8.51101 123.706 8.51101C127.061 8.51101 129.152 10.9936 129.152 14.5471V15.2008H120.59C120.808 17.162 121.874 18.4466 123.706 18.4466C125.099 18.4466 126.145 17.7928 126.626 16.638H128.912C128.193 18.8815 126.298 20.3645 123.706 20.3645C120.35 20.3645 118.26 17.8361 118.26 14.4377ZM126.778 13.3898C126.496 11.6041 125.428 10.4264 123.706 10.4264C121.983 10.4264 120.915 11.6041 120.633 13.3898H126.778Z" fill="var(--fill-0, #B4BACC)"/>
<path d="M134.488 16.1141L131.611 20.1026H128.997L133.181 14.3081L129.192 8.7731H131.85L134.509 12.4563L137.144 8.7731H139.759L135.816 14.2623L140 20.1026H137.342L134.488 16.1141Z" fill="var(--fill-0, #B4BACC)"/>
</g>
</svg>
