<svg preserveAspectRatio="none" width="100%" height="100%" overflow="visible" style="display: block;" viewBox="0 0 108.5 24.4614" fill="none" xmlns="http://www.w3.org/2000/svg">
<g id="Vector">
<path fill-rule="evenodd" clip-rule="evenodd" d="M12.6524 2.02438C13.2114 2.02438 13.6646 1.57121 13.6646 1.01219C13.6646 0.453174 13.2114 0 12.6524 0C12.0934 0 11.6402 0.453174 11.6402 1.01219C11.6402 1.57121 12.0934 2.02438 12.6524 2.02438ZM8.62719 6.65359C8.36667 6.3168 8.15721 5.89616 8.26742 5.48487C8.37763 5.07358 8.76933 4.81401 9.16335 4.65262C9.65774 4.45013 10.0552 4.02719 10.2041 3.47133C10.4573 2.52639 9.89654 1.55509 8.95158 1.30189C8.00664 1.04869 7.03536 1.60947 6.78214 2.55442C6.63321 3.11031 6.76594 3.67532 7.09287 4.09789C7.35342 4.43465 7.56287 4.85527 7.45266 5.26656C7.34245 5.67783 6.95077 5.93738 6.55673 6.09874C6.06232 6.30123 5.66485 6.72417 5.51592 7.28008C5.26271 8.22501 5.8235 9.1963 6.76843 9.44949C7.71339 9.70271 8.68468 9.14192 8.93787 8.19698C9.08683 7.64112 8.9541 7.07613 8.62719 6.65359ZM19.4599 8.75793C19.0486 8.64775 18.628 8.85718 18.2913 9.11771C17.8687 9.44466 17.3037 9.57741 16.7478 9.42846C15.8029 9.17526 15.2421 8.20398 15.4953 7.25902C15.7485 6.31408 16.7198 5.75329 17.6647 6.00651C18.2206 6.15544 18.6435 6.55286 18.846 7.04722C19.0074 7.44126 19.267 7.83301 19.6783 7.94322C20.0896 8.05341 20.5102 7.844 20.847 7.58347C21.2695 7.25663 21.8345 7.12395 22.3903 7.27288C23.3353 7.52608 23.8959 8.49736 23.6429 9.44232C23.3896 10.3873 22.4183 10.948 21.4734 10.6948C20.9175 10.5459 20.4945 10.1484 20.292 9.65389C20.1307 9.25987 19.8712 8.86814 19.4599 8.75793ZM23.412 17.5074C22.7203 18.1992 21.5987 18.1992 20.907 17.5074C20.5001 17.1005 20.3325 16.5449 20.4043 16.0156C20.4615 15.5937 20.4326 15.1247 20.1315 14.8236C19.8304 14.5225 19.3614 14.4936 18.9395 14.5508C18.4101 14.6226 17.8545 14.455 17.4476 14.0481C16.7558 13.3564 16.7558 12.2348 17.4476 11.5431C18.1394 10.8513 19.2609 10.8513 19.9527 11.5431C20.3596 11.9501 20.5272 12.5058 20.4552 13.0353C20.398 13.4572 20.4269 13.9261 20.7279 14.2271C21.0289 14.5282 21.4979 14.5571 21.9197 14.4998C22.4492 14.4278 23.0051 14.5954 23.412 15.0024C24.1038 15.6941 24.1038 16.8157 23.412 17.5074ZM14.4604 21.788C14.2072 22.7329 14.768 23.7043 15.713 23.9576C16.6579 24.2106 17.6292 23.6498 17.8824 22.705C18.0313 22.149 17.8986 21.584 17.5716 21.1615C17.3111 20.8247 17.1017 20.4041 17.2119 19.9929C17.3221 19.5816 17.7137 19.3221 18.1077 19.1607C18.6021 18.9583 18.9996 18.5353 19.1485 17.9794C19.4017 17.0345 18.8409 16.0632 17.896 15.81C16.9511 15.5568 15.9797 16.1176 15.7265 17.0625C15.5776 17.6184 15.7104 18.1835 16.0373 18.6061C16.2979 18.9428 16.5073 19.3634 16.3971 19.7746C16.2869 20.1858 15.8953 20.4454 15.5013 20.6067C15.0069 20.8092 14.6094 21.2321 14.4604 21.788ZM6.45267 22.6213C5.96353 21.7741 6.25379 20.6908 7.10102 20.2016C7.59944 19.9139 8.17956 19.8959 8.67235 20.1023C9.06506 20.2668 9.52553 20.3603 9.89427 20.1474C10.263 19.9345 10.4123 19.489 10.4662 19.0666C10.5338 18.5366 10.8395 18.0432 11.3379 17.7554C12.1851 17.2663 13.2684 17.5566 13.7576 18.4038C14.2467 19.251 13.9564 20.3343 13.1092 20.8235C12.6109 21.1112 12.0308 21.1292 11.5381 20.9229C11.1453 20.7584 10.6848 20.665 10.316 20.8779C9.94729 21.0908 9.79795 21.5363 9.74402 21.9587C9.67637 22.4886 9.3707 22.9819 8.87235 23.2696C8.02514 23.7587 6.94181 23.4685 6.45267 22.6213ZM6.37312 16.1417C6.03641 16.4022 5.61583 16.6117 5.20461 16.5015C4.79336 16.3913 4.53386 15.9996 4.37251 15.6056C4.17005 15.1111 3.74709 14.7137 3.19116 14.5647C2.2462 14.3115 1.27492 14.8723 1.02172 15.8172C0.768524 16.7621 1.3293 17.7334 2.27425 17.9866C2.83011 18.1356 3.3951 18.0029 3.81765 17.676C4.15441 17.4154 4.57503 17.206 4.98627 17.3162C5.39754 17.4264 5.65709 17.8181 5.81846 18.2121C6.02097 18.7065 6.44388 19.1039 6.99977 19.2529C7.94471 19.5061 8.91599 18.9453 9.16921 18.0003C9.4224 17.0554 8.86162 16.0841 7.91668 15.8309C7.36075 15.6819 6.79569 15.8147 6.37312 16.1417ZM1.25258 7.75208C1.94433 7.06034 3.06588 7.06034 3.75762 7.75208C4.16455 8.15902 4.33209 8.71467 4.26026 9.24408C4.20302 9.66592 4.23198 10.1348 4.533 10.4359C4.83405 10.7369 5.30304 10.7658 5.72493 10.7085C6.2544 10.6366 6.81013 10.8042 7.21708 11.2112C7.90885 11.9029 7.90885 13.0245 7.21708 13.7162C6.52534 14.408 5.40379 14.408 4.71204 13.7162C4.30511 13.3093 4.13757 12.7536 4.2094 12.2242C4.26666 11.8023 4.2377 11.3334 3.93669 11.0324C3.63563 10.7314 3.16667 10.7025 2.74478 10.7597C2.21531 10.8316 1.65956 10.6641 1.25258 10.2571C0.560827 9.56538 0.560827 8.44382 1.25258 7.75208ZM14.7701 5.11205C14.4014 5.32491 14.2521 5.77036 14.1983 6.19266C14.1307 6.72269 13.825 7.21612 13.3266 7.5039C12.4793 7.99304 11.396 7.70276 10.9069 6.85555C10.4177 6.00832 10.708 4.92501 11.5552 4.43585C12.0536 4.14814 12.6337 4.13009 13.1264 4.33649C13.5192 4.50096 13.9797 4.5944 14.3484 4.38152C14.7172 4.16863 14.8665 3.72314 14.9204 3.30079C14.9881 2.77089 15.2937 2.27758 15.7921 1.98986C16.6393 1.50072 17.7226 1.791 18.2118 2.63821C18.7009 3.48544 18.4106 4.56876 17.5634 5.05792C17.065 5.3457 16.4848 5.36367 15.9919 5.15717C15.5993 4.99262 15.1388 4.89918 14.7701 5.11205ZM23.6179 13.6646C24.1769 13.6646 24.6299 13.2114 24.6299 12.6524C24.6299 12.0934 24.1769 11.6402 23.6179 11.6402C23.0589 11.6402 22.6057 12.0934 22.6057 12.6524C22.6057 13.2114 23.0589 13.6646 23.6179 13.6646ZM21.7621 4.89226C21.7621 5.45128 21.3089 5.90447 20.7499 5.90447C20.1909 5.90447 19.7377 5.45128 19.7377 4.89226C19.7377 4.33324 20.1909 3.88008 20.7499 3.88008C21.3089 3.88008 21.7621 4.33324 21.7621 4.89226ZM5.22969 4.55482C5.22969 5.11384 4.7765 5.56703 4.21748 5.56703C3.65846 5.56703 3.2053 5.11384 3.2053 4.55482C3.2053 3.9958 3.65846 3.54264 4.21748 3.54264C4.7765 3.54264 5.22969 3.9958 5.22969 4.55482ZM1.01219 13.6646C1.57121 13.6646 2.02438 13.2114 2.02438 12.6524C2.02438 12.0934 1.57121 11.6402 1.01219 11.6402C0.453174 11.6402 0 12.0934 0 12.6524C0 13.2114 0.453174 13.6646 1.01219 13.6646ZM5.06101 20.2438C5.06101 20.8028 4.60782 21.256 4.04881 21.256C3.48979 21.256 3.03662 20.8028 3.03662 20.2438C3.03662 19.6848 3.48979 19.2316 4.04881 19.2316C4.60782 19.2316 5.06101 19.6848 5.06101 20.2438ZM11.8089 24.4614C12.3679 24.4614 12.8211 24.0082 12.8211 23.4492C12.8211 22.8902 12.3679 22.437 11.8089 22.437C11.2499 22.437 10.7967 22.8902 10.7967 23.4492C10.7967 24.0082 11.2499 24.4614 11.8089 24.4614ZM21.5934 20.5812C21.5934 21.1402 21.1402 21.5934 20.5812 21.5934C20.0222 21.5934 19.569 21.1402 19.569 20.5812C19.569 20.0222 20.0222 19.569 20.5812 19.569C21.1402 19.569 21.5934 20.0222 21.5934 20.5812ZM12.2714 15.552C13.949 15.552 15.3089 14.1921 15.3089 12.5145C15.3089 10.837 13.949 9.47705 12.2714 9.47705C10.5939 9.47705 9.23396 10.837 9.23396 12.5145C9.23396 14.1921 10.5939 15.552 12.2714 15.552Z" fill="#B4BACC"/>
<path d="M56.6935 15.6181C56.6819 16.6036 56.9702 17.5694 57.5199 18.3874C58.0696 19.2054 58.8548 19.8371 59.7717 20.1987C60.9294 20.6628 62.116 20.6946 63.2937 20.2864C64.4838 19.8757 65.2936 19 65.9729 17.9571C66.2843 18.1203 66.5913 18.2805 66.8977 18.4425C67.1011 18.5497 67.2997 18.6666 67.508 18.7637C67.6521 18.8305 67.683 18.8966 67.6058 19.0467C67.0387 20.1516 66.1753 20.9593 65.1041 21.562C63.9516 22.2106 62.7061 22.4795 61.3943 22.4395C59.6045 22.3853 58.0419 21.7543 56.7591 20.4978C55.6034 19.3664 54.9164 17.9818 54.6661 16.3828C54.4605 15.0681 54.4929 13.7604 54.8962 12.4882C55.6348 10.1574 57.1207 8.49989 59.503 7.82923C61.7735 7.18996 63.9028 7.55405 65.7135 9.16268C66.8467 10.1709 67.5248 11.4532 67.8317 12.9341C68.0053 13.7716 68.0001 14.6144 67.89 15.4576C67.8748 15.5733 67.8367 15.6286 67.7171 15.6181C67.6615 15.6133 67.6052 15.6181 67.5491 15.6181H56.6935ZM65.824 13.7223C65.7766 12.1757 65.1093 10.9726 63.8415 10.1608C62.2621 9.14999 60.6067 9.17686 59.0037 10.1145C57.6463 10.9087 56.92 12.1462 56.7087 13.7223H65.824Z" fill="#B4BACC"/>
<path d="M108.495 12.2287C108.515 13.9889 108.294 15.7137 107.645 17.3637C107.033 18.9182 106.128 20.2569 104.746 21.233C103.709 21.9656 102.549 22.3454 101.283 22.4241C100.11 22.4988 98.9741 22.3547 97.8925 21.8805C96.5164 21.277 95.4654 20.2965 94.6592 19.0426C93.7918 17.6916 93.3036 16.2006 93.0726 14.6188C92.8554 13.1341 92.8404 11.6267 93.0281 10.138C93.2682 8.21306 93.8601 6.41288 95.0446 4.85017C96.0419 3.53579 97.3133 2.58734 98.9433 2.23185C101.333 1.70908 103.532 2.1146 105.403 3.78522C106.465 4.73292 107.181 5.91848 107.687 7.23735C108.182 8.52599 108.424 9.86726 108.49 11.2418C108.509 11.5703 108.495 11.9001 108.495 12.2287ZM106.408 12.2414C106.401 11.2817 106.328 10.3344 106.126 9.40125C105.86 8.17872 105.407 7.03758 104.647 6.02975C103.168 4.06639 100.845 3.60935 98.8872 4.39051C97.6124 4.89946 96.769 5.88414 96.1483 7.07344C95.3698 8.56705 95.0952 10.1828 95.0541 11.8467C95.0258 12.7734 95.0907 13.7007 95.2484 14.6144C95.4549 15.7757 95.8131 16.8832 96.4452 17.8847C97.2858 19.2155 98.4156 20.1531 100.026 20.3779C101.151 20.5351 102.222 20.3618 103.198 19.7535C104.276 19.0814 104.991 18.1009 105.503 16.962C106.181 15.4601 106.392 13.8657 106.408 12.2414Z" fill="#B4BACC"/>
<path d="M100.728 10.8509C99.9664 10.8509 99.3479 11.4688 99.3479 12.231C99.3479 12.9932 99.9659 13.6115 100.728 13.6115C101.49 13.6115 102.108 12.9936 102.108 12.2314C102.108 11.4692 101.491 10.8509 100.728 10.8509Z" fill="#B4BACC"/>
<path d="M52.2362 12.7212C52.2312 11.1936 51.6315 9.91246 50.4986 8.90128C49.1144 7.66568 47.483 7.28144 45.6884 7.68511C44.3737 7.98083 43.3181 8.69069 42.6266 9.8811C42.5689 9.98005 42.5144 10.0801 42.4477 10.1966C42.4084 10.1384 42.3833 10.104 42.3617 10.0678C42.0337 9.51897 41.6062 9.03609 41.1012 8.644C41.0844 8.62982 41.0665 8.61563 41.0465 8.60106C40.9346 8.51631 40.8188 8.43602 40.6997 8.35946C39.746 7.73588 38.9017 7.53463 37.9903 7.53463C37.4903 7.52279 36.9908 7.57372 36.5032 7.68622C35.3085 7.95546 34.3245 8.56783 33.6363 9.5738H33.233V9.34975C33.233 8.92668 33.2242 8.50324 33.2376 8.08017C33.2432 7.89348 33.1801 7.84493 33.0038 7.85314C32.7244 7.86658 32.4437 7.86508 32.1641 7.85314C31.9975 7.8464 31.9401 7.89048 31.9401 8.07046C31.9478 9.35871 31.9441 10.647 31.9441 11.9348C31.9441 15.2514 31.9428 18.5681 31.9403 21.885C31.9403 22.0582 31.9893 22.109 32.16 22.1049C32.6699 22.0948 33.1804 22.1016 33.6908 22.1012C33.9547 22.1012 33.9547 22.1012 33.9547 21.8346C33.9547 19.1154 33.9557 16.3962 33.957 13.6768C33.9561 13.3848 33.9731 13.093 34.0079 12.803C34.2133 11.1544 35.4066 9.62682 37.3764 9.56147C37.5448 9.55582 37.7136 9.55982 37.8816 9.57341C37.919 9.57677 37.9537 9.57977 37.9896 9.58424C38.9573 9.69066 39.7558 10.1466 40.359 11.0032C40.8994 11.7717 41.0792 12.6462 41.0805 13.5644C41.0857 16.3336 41.0857 19.1026 41.0805 21.8715C41.0805 22.0508 41.1318 22.1079 41.312 22.1042C41.8222 22.0937 42.3322 22.1008 42.8431 22.1005C43.0925 22.1005 43.0925 22.1004 43.0925 21.8424C43.0925 19.1229 43.0891 16.4038 43.097 13.6846C43.0998 13.3243 43.1315 12.9647 43.1926 12.6096C43.4722 10.9323 44.7429 9.61524 46.5588 9.55812C47.6394 9.52412 48.5629 9.87438 49.2787 10.7018C49.9541 11.4826 50.2201 12.4147 50.2224 13.4277C50.2287 16.2283 50.2246 19.0288 50.2246 21.8294C50.2246 22.1016 50.2246 22.1019 50.5038 22.1019C50.9952 22.1019 51.4867 22.1019 51.9783 22.1019C52.2398 22.1019 52.2398 22.1019 52.2398 21.8335C52.2391 18.7947 52.2461 15.7578 52.2362 12.7212Z" fill="#B4BACC"/>
<path d="M90.5442 12.7212C90.5394 11.1936 89.9398 9.91246 88.8068 8.90128C87.4226 7.66568 85.7913 7.28144 83.9967 7.68511C82.682 7.98083 81.6261 8.69069 80.9346 9.8811C80.8772 9.98005 80.8227 10.0801 80.7558 10.1966C80.7167 10.1384 80.6915 10.104 80.67 10.0678C80.3422 9.51919 79.9151 9.03648 79.4104 8.64439C79.3936 8.6302 79.3756 8.61599 79.3559 8.60145C79.244 8.51668 79.1283 8.4364 79.0091 8.35985C78.0554 7.73626 77.2112 7.535 76.2997 7.535C75.7997 7.52315 75.3002 7.57408 74.8127 7.6866C73.6159 7.95582 72.6339 8.56822 71.9457 9.57416H71.5424V9.35013C71.5424 8.92706 71.5336 8.5036 71.547 8.08053C71.5524 7.89384 71.4893 7.84529 71.3132 7.85351C71.0338 7.86694 70.7531 7.86545 70.4735 7.85351C70.3069 7.84679 70.2492 7.89084 70.2492 8.07084C70.2572 9.35907 70.2535 10.6473 70.2535 11.9352C70.2535 15.2518 70.2522 18.5685 70.2497 21.8854C70.2497 22.0586 70.2987 22.1094 70.4694 22.1053C70.9794 22.0952 71.4898 22.1019 72.0002 22.1016C72.2639 22.1016 72.2639 22.1016 72.2639 21.8349C72.2639 19.1158 72.2646 16.3965 72.2662 13.6771C72.2651 13.3851 72.2821 13.0933 72.3168 12.8034C72.5222 11.1548 73.7156 9.62718 75.6853 9.56184C75.8539 9.55619 76.0226 9.56018 76.1905 9.5738C76.228 9.57716 76.2627 9.58013 76.2986 9.58462C77.2663 9.69104 78.0647 10.147 78.6682 11.0036C79.2088 11.772 79.3881 12.6465 79.3895 13.5647C79.3947 16.3339 79.3947 19.103 79.3895 21.8719C79.3895 22.0512 79.441 22.1083 79.621 22.1045C80.1312 22.0941 80.6416 22.1012 81.152 22.1008C81.4015 22.1008 81.4015 22.1008 81.4019 21.8428C81.4019 19.1233 81.3981 16.4041 81.406 13.685C81.4087 13.3247 81.4407 12.9652 81.5015 12.6099C81.7812 10.9326 83.0519 9.6156 84.8678 9.55848C85.9483 9.5245 86.8718 9.87477 87.5876 10.7022C88.2633 11.483 88.529 12.415 88.5313 13.4281C88.5377 16.2286 88.5336 19.0292 88.5336 21.8297C88.5336 22.1019 88.5336 22.1023 88.8128 22.1023C89.3043 22.1023 89.7957 22.1023 90.2875 22.1023C90.5487 22.1023 90.5487 22.1023 90.5487 21.8338C90.5474 18.7947 90.5544 15.7578 90.5442 12.7212Z" fill="#B4BACC"/>
</g>
</svg>
