<svg preserveAspectRatio="none" width="100%" height="100%" overflow="visible" style="display: block;" viewBox="0 0 126 19.9242" fill="none" xmlns="http://www.w3.org/2000/svg">
<g id="Vector">
<path d="M7.992 0H3.99492V3.98534H7.992V0Z" fill="var(--fill-0, #B4BACC)"/>
<path d="M23.9783 0H19.9812V3.98534H23.9783V0Z" fill="var(--fill-0, #B4BACC)"/>
<path d="M11.9878 3.98567L3.99492 3.98534V7.97101H11.9878V3.98567Z" fill="var(--fill-0, #B4BACC)"/>
<path d="M23.9791 3.98567H15.9863V7.97101H23.9791V3.98567Z" fill="var(--fill-0, #B4BACC)"/>
<path d="M23.9765 7.96913H3.99492V11.9545H23.9765V7.96913Z" fill="var(--fill-0, #B4BACC)"/>
<path d="M7.992 11.9548L3.99492 11.9545V15.9402H7.992V11.9548Z" fill="var(--fill-0, #B4BACC)"/>
<path d="M15.9863 11.9548H11.9892V15.9402H15.9863V11.9548Z" fill="var(--fill-0, #B4BACC)"/>
<path d="M23.9783 11.9548H19.9812V15.9402H23.9783V11.9548Z" fill="var(--fill-0, #B4BACC)"/>
<path d="M11.9887 15.9388H0V19.9242H11.9887V15.9388Z" fill="var(--fill-0, #B4BACC)"/>
<path d="M27.9762 15.9388H15.9863V19.9242H27.9762V15.9388Z" fill="var(--fill-0, #B4BACC)"/>
<path d="M123.929 17.8845V2.2378H126V17.8845H123.929Z" fill="var(--fill-0, #B4BACC)"/>
<path d="M107.281 17.8845L113.29 2.2378H115.521L121.924 17.8845H119.566L117.74 13.1457H111.198L109.48 17.8845H107.281ZM111.796 11.4593H117.1L115.467 7.12605C114.969 5.80972 114.599 4.72817 114.357 3.88146C114.158 4.88472 113.877 5.88087 113.514 6.86991L111.796 11.4593Z" fill="var(--fill-0, #B4BACC)"/>
<path d="M98.9762 17.8845V2.2378H100.897V17.8845H98.9762Z" fill="var(--fill-0, #B4BACC)"/>
<path d="M94.2478 16.4862C93.5362 17.091 92.8496 17.5179 92.1879 17.767C91.5333 18.0159 90.8289 18.1405 90.0746 18.1405C88.8294 18.1405 87.8724 17.838 87.2036 17.2332C86.5348 16.6214 86.2003 15.8422 86.2003 14.8958C86.2003 14.3409 86.3249 13.8357 86.5739 13.3803C86.8301 12.9178 87.1609 12.5478 87.5664 12.2703C87.9792 11.9928 88.4416 11.7829 88.954 11.6406C89.3311 11.541 89.9003 11.4449 90.6616 11.3524C92.2129 11.1674 93.3548 10.9468 94.0878 10.6907C94.0948 10.4274 94.0984 10.2602 94.0984 10.1891C94.0984 9.40637 93.917 8.85492 93.554 8.53473C93.0631 8.1007 92.3338 7.88367 91.366 7.88367C90.4624 7.88367 89.7936 8.04376 89.3595 8.36395C88.9325 8.67704 88.616 9.23559 88.4097 10.0396L86.5311 9.78348C86.7019 8.97944 86.9831 8.33194 87.3744 7.84099C87.7658 7.3429 88.3314 6.96223 89.0714 6.69896C89.8113 6.42858 90.6687 6.29338 91.6435 6.29338C92.6113 6.29338 93.3975 6.40724 94.0023 6.63493C94.6071 6.86262 95.0518 7.15079 95.3365 7.49944C95.621 7.84099 95.8202 8.27502 95.9341 8.80156C95.9981 9.12886 96.0302 9.71944 96.0302 10.5733V13.1348C96.0302 14.9208 96.0693 16.0522 96.1476 16.5288C96.2331 16.9984 96.3966 17.4502 96.6385 17.8844H94.632C94.4328 17.4858 94.3048 17.0198 94.2478 16.4862ZM94.0878 12.1956C93.3904 12.4802 92.3444 12.7221 90.9498 12.9214C90.16 13.0352 89.6015 13.1633 89.2742 13.3056C88.9468 13.4479 88.6942 13.6578 88.5164 13.9353C88.3385 14.2057 88.2495 14.5081 88.2495 14.8425C88.2495 15.3548 88.4416 15.7818 88.8259 16.1232C89.2172 16.4648 89.7864 16.6356 90.5335 16.6356C91.2735 16.6356 91.9317 16.4754 92.5081 16.1553C93.0844 15.8279 93.5078 15.3832 93.7782 14.8212C93.9845 14.3871 94.0878 13.7467 94.0878 12.9V12.1956Z" fill="var(--fill-0, #B4BACC)"/>
<path d="M79.5523 17.8844V6.54955H81.2814V8.2679C81.7225 7.46386 82.1281 6.93378 82.4981 6.67761C82.8751 6.42146 83.2879 6.29338 83.7362 6.29338C84.3837 6.29338 85.0418 6.49973 85.7107 6.91243L85.049 8.69482C84.5794 8.41733 84.1098 8.27858 83.6402 8.27858C83.2203 8.27858 82.8432 8.40665 82.5088 8.66281C82.1744 8.91184 81.9359 9.2605 81.7937 9.70877C81.5802 10.3918 81.4735 11.1389 81.4735 11.9501V17.8844H79.5523Z" fill="var(--fill-0, #B4BACC)"/>
<path d="M77.6834 16.1663L77.9608 17.8633C77.42 17.9772 76.9362 18.0342 76.5092 18.0342C75.812 18.0342 75.2712 17.9238 74.8869 17.7033C74.5028 17.4826 74.2324 17.1945 74.0759 16.8387C73.9193 16.4759 73.8411 15.7181 73.8411 14.5654V8.04412H72.4321V6.5499H73.8411V3.74288L75.7515 2.5902V6.5499H77.6834V8.04412H75.7515V14.6721C75.7515 15.2199 75.7835 15.5721 75.8475 15.7286C75.9187 15.8853 76.029 16.0098 76.1783 16.1023C76.3349 16.1947 76.5556 16.2411 76.8401 16.2411C77.0536 16.2411 77.3347 16.2161 77.6834 16.1663Z" fill="var(--fill-0, #B4BACC)"/>
<path d="M61.7914 14.501L63.6911 14.2021C63.7979 14.9635 64.0932 15.5469 64.5771 15.9526C65.068 16.358 65.7511 16.5609 66.6263 16.5609C67.5086 16.5609 68.1631 16.383 68.5901 16.0271C69.017 15.6643 69.2305 15.2409 69.2305 14.7571C69.2305 14.3231 69.0419 13.9815 68.6648 13.7325C68.4016 13.5617 67.7469 13.3447 66.7009 13.0814C65.2921 12.7257 64.3137 12.4197 63.7659 12.1636C63.2251 11.9003 62.8124 11.541 62.5279 11.0856C62.2503 10.6231 62.1115 10.1143 62.1115 9.55934C62.1115 9.05415 62.2254 8.58809 62.4531 8.16118C62.6879 7.72713 63.0045 7.36781 63.4029 7.08319C63.7019 6.86262 64.1075 6.67761 64.6198 6.5282C65.1391 6.37166 65.6942 6.29338 66.2847 6.29338C67.1742 6.29338 67.9533 6.42146 68.6221 6.67761C69.2982 6.93378 69.7961 7.28242 70.1163 7.72357C70.4366 8.15762 70.6571 8.74108 70.778 9.47395L68.8996 9.7301C68.8143 9.14666 68.5652 8.69126 68.1525 8.36395C67.7469 8.03666 67.1705 7.873 66.4234 7.873C65.5412 7.873 64.9115 8.01887 64.5343 8.31059C64.1572 8.60233 63.9686 8.94387 63.9686 9.3352C63.9686 9.58425 64.0469 9.80838 64.2034 10.0076C64.3599 10.2139 64.6055 10.3847 64.9399 10.5199C65.132 10.5911 65.6977 10.7547 66.6369 11.0109C67.996 11.3738 68.9423 11.6726 69.476 11.9074C70.0167 12.1351 70.4401 12.4695 70.7461 12.9107C71.052 13.3518 71.205 13.8997 71.205 14.5543C71.205 15.1947 71.0165 15.7996 70.6393 16.3688C70.2693 16.9309 69.7322 17.3684 69.0277 17.6815C68.3233 17.9875 67.5264 18.1405 66.6369 18.1405C65.1641 18.1405 64.0398 17.8345 63.2642 17.2226C62.4958 16.6106 62.0049 15.7035 61.7914 14.501Z" fill="var(--fill-0, #B4BACC)"/>
<path d="M57.7045 4.44712V2.2378H59.6257V4.44712H57.7045ZM57.7045 17.8845V6.54971H59.6257V17.8845H57.7045Z" fill="var(--fill-0, #B4BACC)"/>
<path d="M39.6662 17.8845V2.2378H42.7827L46.4863 13.3164C46.8278 14.3482 47.0769 15.1202 47.2334 15.6324C47.4113 15.0632 47.6887 14.2272 48.0659 13.1243L51.8122 2.2378H54.5977V17.8845H52.6019V4.78865L48.0552 17.8845H46.1874L41.662 4.56453V17.8845H39.6662Z" fill="var(--fill-0, #B4BACC)"/>
</g>
</svg>
