<svg preserveAspectRatio="none" width="100%" height="100%" overflow="visible" style="display: block;" viewBox="0 0 101.5 27.5103" fill="none" xmlns="http://www.w3.org/2000/svg">
<g id="Vector">
<path fill-rule="evenodd" clip-rule="evenodd" d="M46.7674 11.0041C44.2037 11.0041 42.0494 9.25055 41.4387 6.87756H35.1324C33.7876 6.87756 32.64 7.84982 32.419 9.17627L32.1927 10.5332C31.9781 11.8214 31.3264 12.9424 30.4048 13.7551C31.3264 14.5678 31.9781 15.6889 32.1927 16.977L32.419 18.334C32.64 19.6604 33.7876 20.6327 35.1324 20.6327H35.9366C36.5474 18.2597 38.7016 16.5062 41.2654 16.5062C44.3041 16.5062 46.7674 18.9695 46.7674 22.0082C46.7674 25.0469 44.3041 27.5103 41.2654 27.5103C38.7016 27.5103 36.5474 25.7567 35.9366 23.3837H35.1324C32.4428 23.3837 30.1476 21.4392 29.7053 18.7863L29.4791 17.4293C29.2581 16.1029 28.1104 15.1306 26.7656 15.1306H24.5859C23.9752 17.5036 21.8209 19.2572 19.2572 19.2572C16.6934 19.2572 14.5392 17.5036 13.9284 15.1306H10.8308C10.2201 17.5036 8.06578 19.2572 5.50205 19.2572C2.46336 19.2572 0 16.7939 0 13.7551C0 10.7164 2.46336 8.25308 5.50205 8.25308C8.06578 8.25308 10.2201 10.0066 10.8308 12.3796H13.9284C14.5392 10.0066 16.6934 8.25308 19.2572 8.25308C21.8209 8.25308 23.9752 10.0066 24.5859 12.3796H26.7656C28.1104 12.3796 29.2581 11.4074 29.4791 10.0809L29.7053 8.72396C30.1476 6.07105 32.4428 4.12654 35.1324 4.12654H41.4387C42.0494 1.75355 44.2037 0 46.7674 0C49.8062 0 52.2695 2.46331 52.2695 5.50205C52.2695 8.54079 49.8062 11.0041 46.7674 11.0041ZM46.7674 8.25308C48.2867 8.25308 49.5185 7.0213 49.5185 5.50205C49.5185 3.9828 48.2867 2.75103 46.7674 2.75103C45.2482 2.75103 44.0164 3.9828 44.0164 5.50205C44.0164 7.0213 45.2482 8.25308 46.7674 8.25308ZM5.50205 16.5062C7.0213 16.5062 8.25308 15.2744 8.25308 13.7551C8.25308 12.2359 7.0213 11.0041 5.50205 11.0041C3.9827 11.0041 2.75103 12.2359 2.75103 13.7551C2.75103 15.2744 3.9827 16.5062 5.50205 16.5062ZM22.0082 13.7551C22.0082 15.2744 20.7764 16.5062 19.2572 16.5062C17.7379 16.5062 16.5062 15.2744 16.5062 13.7551C16.5062 12.2359 17.7379 11.0041 19.2572 11.0041C20.7764 11.0041 22.0082 12.2359 22.0082 13.7551ZM44.0164 22.0082C44.0164 23.5275 42.7846 24.7592 41.2654 24.7592C39.7461 24.7592 38.5143 23.5275 38.5143 22.0082C38.5143 20.4889 39.7461 19.2572 41.2654 19.2572C42.7846 19.2572 44.0164 20.4889 44.0164 22.0082Z" fill="#B4BACC"/>
<path fill-rule="evenodd" clip-rule="evenodd" d="M85.2851 11.8953V11.7644C86.245 11.2836 87.2049 10.4533 87.2049 8.81457C87.2049 6.45465 85.2633 5.03443 82.5802 5.03443C79.8314 5.03443 77.8681 6.542 77.8681 8.85813C77.8681 10.4315 78.7842 11.2836 79.7879 11.7644V11.8953C78.6753 12.2887 77.3445 13.4686 77.3445 15.4351C77.3445 17.8166 79.3078 19.4773 82.5584 19.4773C85.8087 19.4773 87.7067 17.8166 87.7067 15.4351C87.7067 13.4686 86.3977 12.3104 85.2851 11.8953ZM82.5584 7.04474C83.6492 7.04474 84.4561 7.74374 84.4561 8.9237C84.4561 10.1037 83.6271 10.8029 82.5584 10.8029C81.4894 10.8029 80.5948 10.1037 80.5948 8.9237C80.5948 7.72196 81.4458 7.04474 82.5584 7.04474ZM82.5584 17.3797C81.2929 17.3797 80.2677 16.5713 80.2677 15.1947C80.2677 13.9494 81.1184 13.0097 82.5364 13.0097C83.9327 13.0097 84.7835 13.9274 84.7835 15.2384C84.7835 16.5713 83.8018 17.3797 82.5584 17.3797Z" fill="#B4BACC"/>
<path d="M91.0725 19.2589H93.8648V13.3375C93.8648 11.3928 95.0429 10.5406 96.3735 10.5406C97.6825 10.5406 98.7077 11.4148 98.7077 13.2064V19.2589H101.5V12.6383C101.5 9.77587 99.8421 8.11539 97.2462 8.11539C95.6101 8.11539 94.6937 8.77082 94.0392 9.62295H93.8648L93.6247 8.33387H91.0725V19.2589Z" fill="#B4BACC"/>
<path d="M66.3542 19.2589H63.5619V8.33387H66.1142L66.3542 9.62295H66.5287C67.1832 8.77082 68.0995 8.11539 69.7357 8.11539C72.3315 8.11539 73.9895 9.77587 73.9895 12.6383V19.2589H71.1972V13.2064C71.1972 11.4148 70.172 10.5406 68.8629 10.5406C67.5324 10.5406 66.3542 11.3928 66.3542 13.3375V19.2589Z" fill="#B4BACC"/>
</g>
</svg>
