<svg preserveAspectRatio="none" width="100%" height="100%" overflow="visible" style="display: block;" viewBox="0 0 80.5 26.1361" fill="none" xmlns="http://www.w3.org/2000/svg">
<g id="Vector">
<path d="M15.3269 5.54473C10.9481 5.54473 8.02066 8.08764 8.02066 13.037V16.5599C8.45482 16.349 8.92618 16.2373 9.43477 16.2373C9.94335 16.2373 10.4271 16.3614 10.8613 16.5723V13.037C10.8613 9.83666 12.6227 8.18687 15.3269 8.18687C18.031 8.18687 19.7925 9.83666 19.7925 13.037V20.7402H22.6331V13.037C22.6331 8.06283 19.6932 5.54473 15.3269 5.54473Z" fill="#B4BACC"/>
<path d="M24.1839 13.3347C24.1839 8.84431 27.4835 5.54473 32.1476 5.54473C36.8117 5.54473 40.0616 8.84431 40.0616 13.3347V14.3891H27.1734C27.5952 17.0312 29.5675 18.495 32.1476 18.495C34.0703 18.495 35.41 17.8995 36.2783 16.6095H39.429C38.2878 19.3633 35.596 21.1371 32.1476 21.1371C27.4711 21.1247 24.1839 17.8375 24.1839 13.3347ZM37.0597 11.8462C36.4891 9.47693 34.5416 8.18687 32.1476 8.18687C29.7535 8.18687 27.8308 9.50174 27.2602 11.8462H37.0597Z" fill="#B4BACC"/>
<path d="M41.5874 13.3347C41.5874 8.84431 44.887 5.54473 49.5511 5.54473C54.2151 5.54473 57.5147 8.84431 57.5147 13.3347C57.5147 17.8251 54.2151 21.1247 49.5511 21.1247C44.887 21.1247 41.5874 17.8375 41.5874 13.3347ZM54.6369 13.3347C54.6369 10.3328 52.6025 8.18687 49.5386 8.18687C46.4748 8.18687 44.4404 10.3452 44.4404 13.3347C44.4404 16.3242 46.4748 18.4825 49.5386 18.4825C52.6025 18.4825 54.6369 16.3366 54.6369 13.3347Z" fill="#B4BACC"/>
<path d="M73.7892 23.68H74.1241C75.9475 23.68 76.6422 22.8737 76.6422 20.7774V6.04093H79.4828V20.5913C79.4828 24.2506 78.0439 26.1361 74.3846 26.1361H73.7892V23.68Z" fill="#B4BACC"/>
<path d="M72.3625 22.1667H69.5219V18.6562H62.3025C60.8636 18.6562 59.6107 17.9492 59.0401 16.8204C58.5068 15.7536 58.6556 14.5007 59.4247 13.4464L65.9122 4.93693C66.8425 3.68408 68.4179 3.1755 69.9064 3.67168C71.3949 4.16785 72.3625 5.49513 72.3625 7.05808V16.1257H74.4961V18.6562H72.3625V22.1667ZM61.8187 14.9969C61.7319 15.1086 61.6823 15.2574 61.6823 15.4187C61.6823 15.8156 62.0048 16.1381 62.4017 16.1381H69.5343V6.99606C69.5343 6.52469 69.187 6.35103 69.0381 6.30141C68.9761 6.28901 68.8893 6.2642 68.7776 6.2642C68.604 6.2642 68.3931 6.32622 68.207 6.56191L61.8187 14.9969Z" fill="#B4BACC"/>
<path d="M1.28524 13.4712C0.913104 13.6573 0.56578 13.9674 0.317691 14.3767C0.0696027 14.7861 -0.0296326 15.2202 0.00758065 15.6544C0.0447939 16.4359 0.478949 17.1553 1.186 17.5523C1.84344 17.9244 2.5877 17.8376 3.29475 17.6763C4.16306 17.453 4.90733 17.3662 5.68881 17.8376C5.68881 17.8376 5.68881 17.8376 5.72602 17.8376C7.0657 18.6191 7.0657 20.579 5.72602 21.3604C5.72602 21.3604 5.72602 21.3604 5.68881 21.3604C4.90733 21.8318 4.16306 21.7326 3.29475 21.5217C2.61251 21.3356 1.86824 21.2364 1.186 21.6457C0.466544 22.0551 0.0696028 22.7993 0.00758065 23.5436C-0.0296326 23.9778 0.0696027 24.4119 0.317691 24.8213C0.56578 25.2306 0.87589 25.5407 1.28524 25.7268C1.96748 26.0741 2.81098 26.0741 3.51803 25.6648C4.17547 25.2926 4.48558 24.5732 4.67164 23.8909C4.91973 23.0226 5.20503 22.328 6.01132 21.8938C6.7928 21.4225 7.53707 21.5217 8.40538 21.7326C9.08762 21.9186 9.83189 22.0179 10.5141 21.6085C11.2336 21.1992 11.6305 20.4549 11.6925 19.7106C11.6925 19.6486 11.6925 19.6114 11.6925 19.5494C11.6925 19.4874 11.6925 19.4502 11.6925 19.3881C11.6553 18.6066 11.2212 17.8872 10.5141 17.4903C9.85669 17.1181 9.11243 17.2049 8.40538 17.3662C7.53707 17.5895 6.7928 17.6763 6.01132 17.2049C5.22984 16.7336 4.91973 16.0761 4.67164 15.2078C4.48558 14.5256 4.17547 13.8309 3.51803 13.434C2.79858 13.1363 1.96748 13.1363 1.28524 13.4712Z" fill="#B4BACC"/>
<path d="M78.0687 0C76.729 0 75.6375 1.09159 75.6375 2.43127C75.6375 3.77095 76.729 4.86253 78.0687 4.86253C79.4084 4.86253 80.5 3.77095 80.5 2.43127C80.5 1.09159 79.4084 0 78.0687 0Z" fill="#B4BACC"/>
</g>
</svg>
