<svg preserveAspectRatio="none" width="100%" height="100%" overflow="visible" style="display: block;" viewBox="0 0 77 20.7065" fill="none" xmlns="http://www.w3.org/2000/svg">
<g id="Vector">
<path d="M8.1916 0C3.68622 0 0 3.68621 0 8.19159C0 12.697 3.68622 16.3832 8.1916 16.3832C12.697 16.3832 16.3832 12.7197 16.3832 8.19159C16.3832 3.66346 12.7197 0 8.1916 0ZM8.1916 13.4479C5.3928 13.4479 3.14011 11.1497 3.14011 8.19159C3.14011 5.23351 5.3928 2.93531 8.1916 2.93531C10.9904 2.93531 13.2431 5.23351 13.2431 8.19159C13.2431 11.1497 10.9904 13.4479 8.1916 13.4479Z" fill="var(--fill-0, #B4BACC)"/>
<path d="M24.6656 4.55089C23.1866 4.55089 21.7531 5.14251 21.0022 6.1437V4.77843H18.0441V20.7065H21.0022V14.9497C21.7531 15.8826 23.1411 16.3832 24.6656 16.3832C27.8512 16.3832 30.3542 13.8802 30.3542 10.467C30.3542 7.05388 27.8512 4.55089 24.6656 4.55089ZM24.165 13.812C22.4812 13.812 20.9794 12.4922 20.9794 10.467C20.9794 8.4419 22.4812 7.12214 24.165 7.12214C25.8489 7.12214 27.3506 8.4419 27.3506 10.467C27.3506 12.4922 25.8489 13.812 24.165 13.812Z" fill="var(--fill-0, #B4BACC)"/>
<path d="M37.3174 4.55089C34.0863 4.55089 31.5378 7.07663 31.5378 10.467C31.5378 13.8575 33.7678 16.3832 37.4085 16.3832C40.3893 16.3832 42.3007 14.5856 42.8923 12.5605H40.0025C39.6384 13.4024 38.6144 13.994 37.3857 13.994C35.8612 13.994 34.7007 12.9245 34.4276 11.4H43.0288V10.2395C43.0288 7.1449 40.8671 4.55089 37.3174 4.55089ZM34.4504 9.30657C34.7689 7.87304 35.9522 6.94011 37.3857 6.94011C38.9103 6.94011 40.0707 7.9413 40.2073 9.30657H34.4504Z" fill="var(--fill-0, #B4BACC)"/>
<path d="M50.9016 4.55089C49.5818 4.55089 48.1938 5.14251 47.5567 6.12095V4.77843H44.5986V16.1557H47.5567V10.0347C47.5567 8.25986 48.5124 7.09939 50.0597 7.09939C51.4932 7.09939 52.2669 8.1916 52.2669 9.71615V16.1557H55.2249V9.23831C55.2249 6.41676 53.4956 4.55089 50.9016 4.55089Z" fill="var(--fill-0, #B4BACC)"/>
<path d="M62.8012 0.227963L56.3617 16.1561H59.5246L60.8898 12.6746H68.2168L69.582 16.1561H72.7904L66.3964 0.227963H62.8012ZM61.9138 10.0351L64.5533 3.36808L67.1701 10.0351H61.9138Z" fill="var(--fill-0, #B4BACC)"/>
<path d="M77 0.227963H73.9964V16.1561H77V0.227963Z" fill="var(--fill-0, #B4BACC)"/>
</g>
</svg>
