<svg preserveAspectRatio="none" width="100%" height="100%" overflow="visible" style="display: block;" viewBox="0 0 140 32.2714" fill="none" xmlns="http://www.w3.org/2000/svg">
<g id="Vector">
<path d="M33.5928 16.7021H35.2237C35.3506 18.4249 36.6916 19.5311 38.5761 19.5311C40.2796 19.5311 41.4212 18.715 41.4212 17.373C41.4212 16.0311 40.4064 15.5415 38.0144 15.1425C35.3868 14.7073 33.9009 13.7281 33.9009 11.6607C33.9009 9.59333 35.6406 8.05188 38.1956 8.05188C40.8957 8.05188 42.6897 9.57522 42.8346 11.9145H41.2038C41.0407 10.4276 39.8446 9.48448 38.1956 9.48448C36.5466 9.48448 35.4775 10.2462 35.4775 11.57C35.4775 12.8938 36.4741 13.3291 38.9023 13.7281C41.4936 14.1451 42.9977 15.1969 42.9977 17.228C42.9977 19.4223 41.1674 20.9637 38.558 20.9637C35.5862 20.9637 33.6835 19.2772 33.5928 16.7021Z" fill="#B4BACC"/>
<path d="M51.1643 11.6074H52.6502V20.8561H51.3636L51.1643 19.6229C50.6207 20.3121 49.7327 20.9649 48.2649 20.9649C46.3079 20.9649 44.6951 19.8768 44.6951 16.939V11.6074H46.181V16.8483C46.181 18.6436 47.0508 19.6048 48.5186 19.6048C50.1495 19.6048 51.1643 18.3898 51.1643 16.4131V11.6074Z" fill="#B4BACC"/>
<path d="M63.5048 16.2308C63.5048 19.0598 61.6203 20.9639 59.0652 20.9639C57.5068 20.9639 56.4558 20.3292 55.894 19.4406V24.482H54.4081V11.6065H55.6947L55.894 13.0935C56.5102 12.2412 57.5068 11.4976 59.0652 11.4976C61.6203 11.4976 63.5048 13.2204 63.5048 16.2308ZM61.9827 16.2308C61.9827 14.2178 60.7504 12.8215 58.9203 12.8215C57.09 12.8215 55.8759 14.2178 55.8759 16.1945C55.8759 18.1712 57.1082 19.6401 58.9203 19.6401C60.7323 19.6401 61.9827 18.2437 61.9827 16.2308Z" fill="#B4BACC"/>
<path d="M66.5511 16.5572V16.6478C66.6054 18.4069 67.7108 19.6401 69.4686 19.6401C70.7733 19.6401 71.7881 18.9509 72.0961 17.754H73.6002C73.2378 19.6038 71.7156 20.9639 69.5773 20.9639C66.8048 20.9639 64.9926 19.0598 64.9926 16.2307C64.9926 13.4018 66.7685 11.4976 69.378 11.4976C71.9874 11.4976 73.6908 13.1478 73.7633 15.8862C73.7633 16.0312 73.7452 16.3396 73.7271 16.5572H66.5511ZM66.6417 15.2877H72.1686C72.0237 13.6919 70.9364 12.8033 69.3961 12.8033C68.037 12.8033 66.7867 13.7826 66.6417 15.2877Z" fill="#B4BACC"/>
<path d="M82.7193 11.6074V13.0582H81.5234C79.367 13.0582 78.7328 14.7084 78.7328 16.1774V19.496H81.4328V20.8561H75.181V19.496H77.2468V12.9675H75.181V11.6074H78.6602L78.7147 13.167C79.1314 12.4416 79.9649 11.6074 81.7227 11.6074H82.7193Z" fill="#B4BACC"/>
<path d="M91.1776 19.4954V20.8555H84.0923V19.4954H86.8829V9.52132H84.0923V8.16125H88.3689V19.4954H91.1776Z" fill="#B4BACC"/>
<path d="M99.9163 19.4948V20.8549H92.8305V19.4948H95.6209V12.9664H92.8305V11.6063H97.1075V19.4948H99.9163ZM95.2403 8.84984C95.2403 8.2151 95.7478 7.72547 96.3821 7.72547C97.0165 7.72547 97.5056 8.2151 97.5056 8.84984C97.5056 9.52079 97.0165 9.99233 96.3821 9.99233C95.7478 9.99233 95.2403 9.52079 95.2403 8.84984Z" fill="#B4BACC"/>
<path d="M109.695 15.5235V20.8551H108.209V15.6142C108.209 13.8189 107.34 12.8577 105.817 12.8577C104.186 12.8577 103.135 14.0727 103.135 16.0494V20.8551H101.65V11.6064H102.936L103.135 12.8577C103.679 12.1504 104.604 11.4976 106.071 11.4976C108.064 11.4976 109.695 12.5857 109.695 15.5235Z" fill="#B4BACC"/>
<path d="M111.628 20.8555V8.16125H113.114V16.5213L118.043 11.6068H119.927L116.032 15.4877L120.109 20.8555H118.279L114.999 16.5032L113.114 18.3892V20.8555H111.628Z" fill="#B4BACC"/>
<path d="M122.136 16.5572V16.6479C122.19 18.407 123.296 19.6401 125.054 19.6401C126.359 19.6401 127.373 18.951 127.681 17.754H129.185C128.823 19.6038 127.301 20.9639 125.162 20.9639C122.39 20.9639 120.577 19.0598 120.577 16.2308C120.577 13.4018 122.354 11.4976 124.963 11.4976C127.572 11.4976 129.276 13.1479 129.348 15.8862C129.348 16.0313 129.33 16.3396 129.312 16.5572H122.136ZM122.227 15.2878H127.753C127.609 13.6919 126.521 12.8033 124.981 12.8033C123.622 12.8033 122.371 13.7826 122.227 15.2878Z" fill="#B4BACC"/>
<path d="M138.514 8.16125H140V20.8555H138.712L138.514 19.3685C137.897 20.2207 136.9 20.9643 135.342 20.9643C132.787 20.9643 130.903 19.2415 130.903 16.2312C130.903 13.4021 132.787 11.498 135.342 11.498C136.9 11.498 137.952 12.1328 138.514 13.0213V8.16125ZM138.531 16.2674C138.531 14.2363 137.299 12.8218 135.487 12.8218C133.675 12.8218 132.425 14.2182 132.425 16.2312C132.425 18.2441 133.657 19.6404 135.487 19.6404C137.318 19.6404 138.531 18.2441 138.531 16.2674Z" fill="#B4BACC"/>
<path d="M12.3355 24.675L0 12.3375L12.3355 0L24.6709 12.3375L19.9314 17.0777L12.3355 9.48045L9.47888 12.3375L17.0749 19.9348L12.3355 24.675ZM1.88292 12.3375L12.3355 22.7917L15.192 19.9348L7.596 12.3375L12.3355 7.59725L19.9314 15.1945L22.788 12.3375L12.3355 1.88323L1.88292 12.3375Z" fill="#B4BACC"/>
<path d="M12.3354 32.2714L0 19.9339L4.73946 15.1937L12.3355 22.7917L15.192 19.9348L7.596 12.3375L12.3355 7.59725L24.6709 19.9339L12.3354 32.2714ZM1.88292 19.9339L12.3354 30.3882L22.788 19.9339L12.3355 9.48045L9.47888 12.3375L17.0749 19.9348L12.3355 24.675L4.73946 17.0769L1.88292 19.9339Z" fill="#B4BACC"/>
</g>
</svg>
