<svg preserveAspectRatio="none" width="100%" height="100%" overflow="visible" style="display: block;" viewBox="0 0 147 29.5644" fill="none" xmlns="http://www.w3.org/2000/svg">
<g id="Vector">
<path d="M21.2623 10.1364H9.34627C9.06154 10.1364 8.83069 10.3675 8.83069 10.6525V11.3785C8.83069 11.6636 9.06154 11.8946 9.34627 11.8946H21.2623C21.547 11.8946 21.7778 11.6636 21.7778 11.3785V10.6525C21.7778 10.3675 21.547 10.1364 21.2623 10.1364Z" fill="var(--fill-0, #B4BACC)"/>
<path d="M6.58532 10.1364H0.515548C0.230819 10.1364 0 10.3675 0 10.6525V11.3785C0 11.6636 0.230819 11.8946 0.515548 11.8946H6.58532C6.87005 11.8946 7.10087 11.6636 7.10087 11.3785V10.6525C7.10087 10.3675 6.87005 10.1364 6.58532 10.1364Z" fill="var(--fill-0, #B4BACC)"/>
<path d="M32.5927 10.1364H25.516C25.2313 10.1364 25.0004 10.3675 25.0004 10.6525V11.3785C25.0004 11.6635 25.2313 11.8946 25.516 11.8946H32.5927C32.8774 11.8946 33.1082 11.6635 33.1082 11.3785V10.6525C33.1082 10.3675 32.8774 10.1364 32.5927 10.1364Z" fill="var(--fill-0, #B4BACC)"/>
<path d="M32.592 7.6157H26.6773C26.3926 7.6157 26.1617 7.84681 26.1617 8.1319V8.85779C26.1617 9.14292 26.3926 9.37402 26.6773 9.37402H32.592C32.8768 9.37402 33.1075 9.14292 33.1075 8.85779V8.1319C33.1075 7.84681 32.8768 7.6157 32.592 7.6157Z" fill="var(--fill-0, #B4BACC)"/>
<path d="M39.0104 7.6157H34.5336C34.2488 7.6157 34.0181 7.84682 34.0181 8.1319V8.85779C34.0181 9.14293 34.2488 9.37402 34.5336 9.37402H39.0104C39.2951 9.37402 39.5259 9.14293 39.5259 8.85779V8.1319C39.5259 7.84682 39.2951 7.6157 39.0104 7.6157Z" fill="var(--fill-0, #B4BACC)"/>
<path d="M37.4274 5.04131H32.1893C31.9046 5.04131 31.6738 5.27242 31.6738 5.55752V6.28342C31.6738 6.56851 31.9046 6.79962 32.1893 6.79962H37.4274C37.7122 6.79962 37.9429 6.56851 37.9429 6.28342V5.55752C37.9429 5.27242 37.7122 5.04131 37.4274 5.04131Z" fill="var(--fill-0, #B4BACC)"/>
<path d="M34.9887 2.52066H34.1751C33.8904 2.52066 33.6595 2.75176 33.6595 3.03686V3.76277C33.6595 4.04785 33.8904 4.27896 34.1751 4.27896H34.9887C35.2734 4.27896 35.5043 4.04785 35.5043 3.76277V3.03686C35.5043 2.75176 35.2734 2.52066 34.9887 2.52066Z" fill="var(--fill-0, #B4BACC)"/>
<path d="M17.6376 22.7108H15.4766C15.1919 22.7108 14.9612 22.9419 14.9612 23.227V24.0093C14.9612 24.2944 15.1919 24.5255 15.4766 24.5255H17.6376C17.9223 24.5255 18.1531 24.2944 18.1531 24.0093V23.227C18.1531 22.9419 17.9223 22.7108 17.6376 22.7108Z" fill="var(--fill-0, #B4BACC)"/>
<path d="M22.0821 22.7108H21.0208C20.7361 22.7108 20.5053 22.9419 20.5053 23.227V24.0093C20.5053 24.2944 20.7361 24.5255 21.0208 24.5255H22.0821C22.3668 24.5255 22.5977 24.2944 22.5977 24.0093V23.227C22.5977 22.9419 22.3668 22.7108 22.0821 22.7108Z" fill="var(--fill-0, #B4BACC)"/>
<path d="M28.6869 22.7613H24.0773C23.7925 22.7613 23.5617 22.9924 23.5617 23.2775V23.9591C23.5617 24.2441 23.7925 24.4752 24.0773 24.4752H28.6869C28.9717 24.4752 29.2025 24.2441 29.2025 23.9591V23.2775C29.2025 22.9924 28.9717 22.7613 28.6869 22.7613Z" fill="var(--fill-0, #B4BACC)"/>
<path d="M28.2137 20.1901H26.9027C26.6179 20.1901 26.3871 20.4212 26.3871 20.7063V21.4887C26.3871 21.7737 26.6179 22.0049 26.9027 22.0049H28.2137C28.4984 22.0049 28.7293 21.7737 28.7293 21.4887V20.7063C28.7293 20.4212 28.4984 20.1901 28.2137 20.1901Z" fill="var(--fill-0, #B4BACC)"/>
<path d="M11.8914 22.7108H11.0778C10.7931 22.7108 10.5622 22.9419 10.5622 23.227V24.0093C10.5622 24.2944 10.7931 24.5255 11.0778 24.5255H11.8914C12.1761 24.5255 12.407 24.2944 12.407 24.0093V23.227C12.407 22.9419 12.1761 22.7108 11.8914 22.7108Z" fill="var(--fill-0, #B4BACC)"/>
<path d="M19.0777 25.7452C19.0777 25.4609 19.3093 25.229 19.5932 25.229H20.4068C20.6908 25.229 20.9224 25.4609 20.9224 25.7452V26.5276C20.9224 26.8119 20.6908 27.0438 20.4068 27.0438H19.5932C19.3093 27.0438 19.0777 26.8119 19.0777 26.5276V25.7452Z" fill="var(--fill-0, #B4BACC)"/>
<path d="M18.5154 27.7496H17.7904C17.5057 27.7496 17.2749 27.9808 17.2749 28.2659V29.0483C17.2749 29.3333 17.5057 29.5644 17.7904 29.5644H18.5154C18.8001 29.5644 19.031 29.3333 19.031 29.0483V28.2659C19.031 27.9808 18.8001 27.7496 18.5154 27.7496Z" fill="var(--fill-0, #B4BACC)"/>
<path d="M26.0152 0H24.7605C24.4758 0 24.245 0.231111 24.245 0.516201V1.24211C24.245 1.5272 24.4758 1.75831 24.7605 1.75831H26.0152C26.2999 1.75831 26.5307 1.5272 26.5307 1.24211V0.516201C26.5307 0.231111 26.2999 0 26.0152 0Z" fill="var(--fill-0, #B4BACC)"/>
<path d="M16.5718 7.6157H11.7547C11.4699 7.6157 11.2391 7.84681 11.2391 8.1319V8.85779C11.2391 9.14292 11.4699 9.37402 11.7547 9.37402H16.5718C16.8565 9.37402 17.0874 9.14292 17.0874 8.85779V8.1319C17.0874 7.84681 16.8565 7.6157 16.5718 7.6157Z" fill="var(--fill-0, #B4BACC)"/>
<path d="M25.1205 2.52066H22.5992C22.3145 2.52066 22.0836 2.75176 22.0836 3.03685V3.76276C22.0836 4.04785 22.3145 4.27896 22.5992 4.27896H25.1205C25.4053 4.27896 25.636 4.04785 25.636 3.76276V3.03685C25.636 2.75176 25.4053 2.52066 25.1205 2.52066Z" fill="var(--fill-0, #B4BACC)"/>
<path d="M25.1209 5.04131H20.4185C20.1338 5.04131 19.903 5.27242 19.903 5.55752V6.28342C19.903 6.56851 20.1338 6.79962 20.4185 6.79962H25.1209C25.4057 6.79962 25.6364 6.56851 25.6364 6.28342V5.55752C25.6364 5.27242 25.4057 5.04131 25.1209 5.04131Z" fill="var(--fill-0, #B4BACC)"/>
<path d="M40.5671 10.1364H38.2532C37.9685 10.1364 37.7376 10.3675 37.7376 10.6525V11.3785C37.7376 11.6636 37.9685 11.8946 38.2532 11.8946H40.5671C40.8518 11.8946 41.0827 11.6636 41.0827 11.3785V10.6525C41.0827 10.3675 40.8518 10.1364 40.5671 10.1364Z" fill="var(--fill-0, #B4BACC)"/>
<path d="M22.1727 12.657H6.67805C6.39331 12.657 6.1625 12.8881 6.1625 13.1732V13.8991C6.1625 14.1842 6.39331 14.4154 6.67805 14.4154H22.1727C22.4574 14.4154 22.6882 14.1842 22.6882 13.8991V13.1732C22.6882 12.8881 22.4574 12.657 22.1727 12.657Z" fill="var(--fill-0, #B4BACC)"/>
<path d="M27.1046 17.6983H21.6793C21.3946 17.6983 21.1637 17.9294 21.1637 18.2145V18.9405C21.1637 19.2255 21.3946 19.4566 21.6793 19.4566H27.1046C27.3894 19.4566 27.6201 19.2255 27.6201 18.9405V18.2145C27.6201 17.9294 27.3894 17.6983 27.1046 17.6983Z" fill="var(--fill-0, #B4BACC)"/>
<path d="M29.3097 15.1776H9.34627C9.06154 15.1776 8.83069 15.4088 8.83069 15.6939V16.4198C8.83069 16.7049 9.06154 16.936 9.34627 16.936H29.3097C29.5944 16.936 29.8252 16.7049 29.8252 16.4198V15.6939C29.8252 15.4088 29.5944 15.1776 29.3097 15.1776Z" fill="var(--fill-0, #B4BACC)"/>
<path d="M12.9089 17.6983H6.1343C5.84957 17.6983 5.61875 17.9294 5.61875 18.2145V18.9405C5.61875 19.2255 5.84957 19.4566 6.1343 19.4566H12.9089C13.1936 19.4566 13.4245 19.2255 13.4245 18.9405V18.2145C13.4245 17.9294 13.1936 17.6983 12.9089 17.6983Z" fill="var(--fill-0, #B4BACC)"/>
<path d="M14.7877 20.1901H13.2591C12.9744 20.1901 12.7436 20.4212 12.7436 20.7063V21.4887C12.7436 21.7737 12.9744 22.0049 13.2591 22.0049H14.7877C15.0724 22.0049 15.3033 21.7737 15.3033 21.4887V20.7063C15.3033 20.4212 15.0724 20.1901 14.7877 20.1901Z" fill="var(--fill-0, #B4BACC)"/>
<path d="M24.0195 20.1901H22.2936C22.0089 20.1901 21.7781 20.4212 21.7781 20.7063V21.4887C21.7781 21.7737 22.0089 22.0049 22.2936 22.0049H24.0195C24.3042 22.0049 24.535 21.7737 24.535 21.4887V20.7063C24.535 20.4212 24.3042 20.1901 24.0195 20.1901Z" fill="var(--fill-0, #B4BACC)"/>
<path d="M10.0897 20.1901H8.53306C8.24834 20.1901 8.0175 20.4212 8.0175 20.7063V21.4887C8.0175 21.7737 8.24834 22.0049 8.53306 22.0049H10.0897C10.3745 22.0049 10.6053 21.7737 10.6053 21.4887V20.7063C10.6053 20.4212 10.3745 20.1901 10.0897 20.1901Z" fill="var(--fill-0, #B4BACC)"/>
<path d="M31.1588 12.657H25.516C25.2313 12.657 25.0004 12.8881 25.0004 13.1732V13.8991C25.0004 14.1842 25.2313 14.4154 25.516 14.4154H31.1588C31.4436 14.4154 31.6744 14.1842 31.6744 13.8991V13.1732C31.6744 12.8881 31.4436 12.657 31.1588 12.657Z" fill="var(--fill-0, #B4BACC)"/>
<path d="M142.819 22.2309C139.587 22.2309 138.68 20.5069 138.698 19.0712C138.702 18.7122 138.932 18.5328 139.294 18.5328H139.941C140.313 18.5328 140.474 18.7304 140.511 19.1035C140.606 19.9927 141.187 20.5392 142.797 20.5392C144.406 20.5392 145.181 19.9503 145.181 19.045C145.181 18.2465 144.728 17.9541 143.603 17.7605L141.665 17.4278C140.042 17.1496 138.967 16.2341 138.967 14.5907C138.967 12.7417 140.338 11.3866 142.875 11.3866C145.413 11.3866 146.869 12.7638 146.846 14.3709C146.842 14.7259 146.605 14.9053 146.246 14.9053H145.592C145.22 14.9053 145.084 14.7077 145.032 14.3447C144.937 13.6753 144.392 13.0663 142.875 13.0663C141.359 13.0663 140.777 13.7035 140.777 14.5302C140.777 15.2441 141.19 15.5586 142.22 15.7421L144.158 16.0829C145.835 16.3793 147 17.1999 147 18.9603C147 20.6036 146.009 22.2329 142.817 22.2329L142.819 22.2309Z" fill="var(--fill-0, #B4BACC)"/>
<path d="M129.777 21.4039C129.777 21.7769 129.576 21.9785 129.203 21.9785H128.526C128.153 21.9785 127.952 21.7769 127.952 21.4039V8.19038C127.952 7.81734 128.153 7.6157 128.526 7.6157H129.207C129.58 7.6157 129.781 7.81734 129.781 8.19038V12.9249C130.387 11.9772 131.47 11.3843 132.86 11.3843C135.514 11.3843 137.526 13.4895 137.526 16.8065C137.526 20.1235 135.514 22.2286 132.86 22.2286C131.466 22.2286 130.381 21.6358 129.774 20.684V21.4019L129.777 21.4039ZM135.681 16.8085C135.681 14.4171 134.314 13.0923 132.686 13.0923C131.06 13.0923 129.674 14.4171 129.674 16.8085C129.674 19.2 131.06 20.5247 132.686 20.5247C134.314 20.5247 135.681 19.2 135.681 16.8085Z" fill="var(--fill-0, #B4BACC)"/>
<path d="M121.707 11.3867C124.486 11.3867 125.747 12.7054 125.741 14.8388L125.733 18.7748C125.733 19.5289 125.759 20.6097 125.858 21.3639C125.906 21.755 125.741 21.9789 125.346 21.9789H124.736C124.382 21.9789 124.18 21.8438 124.144 21.5695L124.041 20.7932C123.493 21.6946 122.423 22.1583 121.109 22.1583C118.737 22.1583 117.277 20.7569 117.277 18.8494C117.277 17.1798 118.451 16.1515 120.451 16.0083L123.369 15.8026C123.898 15.7663 123.92 15.718 123.92 15.2239V14.7884C123.92 13.639 123.226 13.0562 121.706 13.0562C120.185 13.0562 119.562 13.6269 119.5 14.4254C119.474 14.8025 119.343 15.0041 118.963 15.0041H118.264C117.901 15.0041 117.672 14.8207 117.668 14.4617C117.654 12.782 118.886 11.3867 121.707 11.3867ZM119.125 18.8696C119.125 19.8758 119.945 20.5977 121.345 20.5977C122.98 20.5977 123.923 19.6096 123.923 18.1295V17.1556C123.707 17.2322 123.452 17.2867 123.159 17.3129L120.604 17.5549C119.671 17.6456 119.124 18.0045 119.124 18.8696H119.125Z" fill="var(--fill-0, #B4BACC)"/>
<path d="M108.508 21.9785C108.135 21.9785 107.934 21.7769 107.934 21.4039V8.19038C107.934 7.81734 108.135 7.6157 108.508 7.6157H109.225C109.598 7.6157 109.799 7.81734 109.799 8.19038V20.2102H116.238C116.61 20.2102 116.812 20.4118 116.812 20.7849V21.4039C116.812 21.7769 116.61 21.9785 116.238 21.9785H108.508Z" fill="var(--fill-0, #B4BACC)"/>
<path d="M101.647 22.2309C98.6525 22.2309 96.6487 20.0935 96.6487 16.7423C96.6487 13.391 98.6221 11.3867 101.478 11.3867C104.334 11.3867 106.166 13.4696 106.166 16.4277V16.6475C106.166 17.0205 105.965 17.2222 105.592 17.2222H98.4956C98.6525 19.2829 99.8343 20.5311 101.647 20.5311C102.906 20.5311 103.673 20.0371 103.983 19.1761C104.1 18.8494 104.269 18.678 104.616 18.678H105.274C105.658 18.678 105.888 18.8938 105.822 19.2749C105.521 21.0251 103.89 22.2329 101.649 22.2329L101.647 22.2309ZM104.305 15.6736C104.094 14.0121 103.073 12.9937 101.476 12.9937C99.8786 12.9937 98.8718 13.9899 98.5663 15.6736H104.305Z" fill="var(--fill-0, #B4BACC)"/>
<path d="M90.8466 21.9791C90.5149 21.9791 90.3095 21.8359 90.188 21.5253L86.8094 12.5806C86.7027 12.3023 86.6961 12.1088 86.7947 11.9111C86.8899 11.7236 87.0772 11.6369 87.4015 11.6369H87.9025C88.2351 11.6369 88.4445 11.7801 88.5611 12.0946L91.3082 19.4928L91.4609 19.9687L91.6145 19.4928L94.3632 12.0946C94.4798 11.7801 94.6892 11.6369 95.0218 11.6369H95.5228C95.8455 11.6369 96.0344 11.7216 96.1297 11.9111C96.2282 12.1088 96.2241 12.3023 96.1149 12.5806L92.7363 21.5253C92.6148 21.8359 92.4095 21.9791 92.0777 21.9791H90.8466Z" fill="var(--fill-0, #B4BACC)"/>
<path d="M83.6452 8.19038C83.6452 7.81734 83.8464 7.6157 84.2192 7.6157H84.9C85.2721 7.6157 85.4741 7.81734 85.4741 8.19038V21.4039C85.4741 21.7769 85.2721 21.9785 84.9 21.9785H84.2192C83.8464 21.9785 83.6452 21.7769 83.6452 21.4039V8.19038Z" fill="var(--fill-0, #B4BACC)"/>
<path d="M77.4775 22.2309C74.4828 22.2309 72.4791 20.0935 72.4791 16.7423C72.4791 13.391 74.4506 11.3867 77.3062 11.3867C80.1619 11.3867 81.9945 13.4696 81.9945 16.4277V16.6475C81.9945 17.0205 81.7932 17.2222 81.4206 17.2222H74.3238C74.4809 19.2829 75.665 20.5311 77.4754 20.5311C78.7361 20.5311 79.5014 20.0371 79.8115 19.1761C79.9283 18.8494 80.0975 18.678 80.4439 18.678H81.1024C81.4871 18.678 81.7166 18.8938 81.6481 19.2749C81.3481 21.0251 79.7169 22.2329 77.4754 22.2329L77.4775 22.2309ZM80.1357 15.6736C79.9243 14.0121 78.9033 12.9937 77.3062 12.9937C75.7093 12.9937 74.7023 13.9899 74.3963 15.6736H80.1357Z" fill="var(--fill-0, #B4BACC)"/>
<path d="M60.1273 21.9786C59.7909 21.9786 59.5795 21.8254 59.4808 21.5027L56.7198 12.566C56.6292 12.2837 56.6352 12.0942 56.7279 11.9026C56.8226 11.7191 57.0058 11.6385 57.328 11.6385H57.8395C58.1799 11.6385 58.3873 11.7917 58.486 12.1183L60.7274 19.5387L60.7677 19.7182L60.8079 19.5307L63.1118 12.1164C63.2105 11.7937 63.4219 11.6405 63.7582 11.6405H64.7974C65.1337 11.6405 65.3452 11.7937 65.4438 12.1164L67.7477 19.5307L67.792 19.7324L67.8363 19.5347L70.0778 12.1204C70.1764 11.7937 70.3819 11.6405 70.7242 11.6405H71.2257C71.5479 11.6405 71.7312 11.7211 71.8258 11.9046C71.9205 12.0982 71.9245 12.2857 71.8338 12.568L69.0728 21.5048C68.9742 21.8273 68.7627 21.9806 68.4264 21.9806H67.2745C66.9382 21.9806 66.7267 21.8273 66.628 21.5048L64.3282 14.0905L64.2698 13.8565L64.2114 14.0905L61.9156 21.5048C61.8129 21.8273 61.6014 21.9806 61.2651 21.9806H60.1212L60.1273 21.9786Z" fill="var(--fill-0, #B4BACC)"/>
<path d="M48.8121 9.37599C48.4395 9.37599 48.2381 9.17438 48.2381 8.80137V8.19038C48.2381 7.81734 48.4395 7.6157 48.8121 7.6157H58.6156C58.9881 7.6157 59.1895 7.81734 59.1895 8.19038V8.80137C59.1895 9.17438 58.9881 9.37599 58.6156 9.37599H54.6482V21.4059C54.6482 21.779 54.4469 21.9806 54.0743 21.9806H53.3573C52.9848 21.9806 52.7834 21.779 52.7834 21.4059V9.37599H48.8121Z" fill="var(--fill-0, #B4BACC)"/>
</g>
</svg>
