<svg width="16" height="16" viewBox="0 0 16 16" fill="none" xmlns="http://www.w3.org/2000/svg">
<g clip-path="url(#clip0_2279_22493)">
<path fill-rule="evenodd" clip-rule="evenodd" d="M8.24719 0.233205L7.99719 0.0888672L7.74719 0.233207L1.39649 3.89985L1.14648 4.04419L1.14649 4.33287L1.14665 11.6661L1.14665 11.9547L1.39664 12.0991L7.74743 15.7658L7.99733 15.9101L8.24728 15.7659L10.2788 14.5939L10.529 14.4496V14.1608L10.529 11.6661L10.529 10.8L9.77896 11.2332L7.9974 12.262L4.30631 10.1312V5.86889L7.99744 3.73811L11.6886 5.86889V15.3329V16.1985L12.4384 15.766L14.5981 14.5202L14.8483 14.3759L14.8483 14.0871L14.848 4.33285L14.848 4.04418L14.598 3.89985L8.24719 0.233205ZM2.1465 4.62153L7.9972 1.24357L13.8481 4.62154L13.8483 13.7983L12.6886 14.4672V5.58019V5.29149L12.4386 5.14716L8.24741 2.72776L7.99744 2.58345L7.74747 2.72776L3.55633 5.14716L3.30631 5.29149V5.58019V10.4199V10.7086L3.55632 10.8529L7.74746 13.2724L7.99749 13.4167L8.24749 13.2724L9.52901 12.5323L9.529 13.872L7.99754 14.7555L2.14664 11.3774L2.1465 4.62153ZM8.24747 5.2212L7.99744 5.07682L7.74741 5.2212L5.71584 6.39434L5.46587 6.53868V6.82733V9.17263V9.46128L5.71584 9.60563L7.74741 10.7788L7.99744 10.9231L8.24747 10.7788L10.279 9.60563L10.529 9.46128V9.17263V6.82733V6.53868L10.279 6.39434L8.24747 5.2212ZM7.99744 9.76839L6.46587 8.88398V7.11598L7.99744 6.23157L9.52901 7.11598V8.88398L7.99744 9.76839Z" fill="#DC244C"/>
</g>
<defs>
<clipPath id="clip0_2279_22493">
<rect width="16" height="16" fill="white"/>
</clipPath>
</defs>
</svg>
