<svg width="16" height="16" viewBox="0 0 16 16" fill="none" xmlns="http://www.w3.org/2000/svg">
<g clip-path="url(#clip0_2279_12693)">
<path fill-rule="evenodd" clip-rule="evenodd" d="M6.18707 2.89364C5.63797 4.17499 5.28613 5.98002 5.28613 8C5.28613 10.02 5.63797 11.825 6.18707 13.1064C6.462 13.7479 6.77654 14.2352 7.10033 14.5548C7.42198 14.8722 7.72547 15 8.00013 15C8.2748 15 8.57828 14.8722 8.89993 14.5548C9.22373 14.2352 9.53826 13.7479 9.8132 13.1064C10.3623 11.825 10.7141 10.02 10.7141 8C10.7141 5.98002 10.3623 4.17499 9.8132 2.89364C9.53826 2.25208 9.22373 1.76483 8.89993 1.44525C8.57828 1.12778 8.2748 1 8.00013 1C7.72547 1 7.42198 1.12778 7.10033 1.44525C6.77654 1.76483 6.462 2.25208 6.18707 2.89364ZM6.39787 0.733529C6.84525 0.291956 7.38727 0 8.00013 0C8.61299 0 9.15501 0.291956 9.6024 0.733529C10.0476 1.17298 10.4257 1.78409 10.7324 2.49975C11.3465 3.93287 11.7141 5.87785 11.7141 8C11.7141 10.1222 11.3465 12.0671 10.7324 13.5002C10.4257 14.2159 10.0476 14.827 9.6024 15.2665C9.15501 15.708 8.61299 16 8.00013 16C7.38727 16 6.84525 15.708 6.39787 15.2665C5.95263 14.827 5.5746 14.2159 5.26791 13.5002C4.65378 12.0671 4.28613 10.1222 4.28613 8C4.28613 5.87785 4.65378 3.93287 5.26791 2.49975C5.5746 1.78409 5.95263 1.17298 6.39787 0.733529Z" fill="#DC244C"/>
<path fill-rule="evenodd" clip-rule="evenodd" d="M0 8C0 7.72386 0.223858 7.5 0.5 7.5H15.5C15.7761 7.5 16 7.72386 16 8C16 8.27614 15.7761 8.5 15.5 8.5H0.5C0.223858 8.5 0 8.27614 0 8Z" fill="#DC244C"/>
<path fill-rule="evenodd" clip-rule="evenodd" d="M8 1C4.13401 1 1 4.13401 1 8C1 11.866 4.13401 15 8 15C11.866 15 15 11.866 15 8C15 4.13401 11.866 1 8 1ZM0 8C0 3.58172 3.58172 0 8 0C12.4183 0 16 3.58172 16 8C16 12.4183 12.4183 16 8 16C3.58172 16 0 12.4183 0 8Z" fill="#DC244C"/>
</g>
<defs>
<clipPath id="clip0_2279_12693">
<rect width="16" height="16" fill="white"/>
</clipPath>
</defs>
</svg>
