<svg width="16" height="16" viewBox="0 0 16 16" fill="none" xmlns="http://www.w3.org/2000/svg">
<g clip-path="url(#clip0_2279_22531)">
<path fill-rule="evenodd" clip-rule="evenodd" d="M8.66817 0.529132C8.51504 0.474444 8.34489 0.497631 8.21198 0.591295C8.07907 0.68496 8 0.837404 8 1V3.5C8 3.77615 8.22386 4 8.5 4C8.77614 4 9 3.77615 9 3.5V1.70951L15 3.85236V15H10V5.5C10 5.22386 9.77614 5 9.5 5H3.5C3.22386 5 3 5.22386 3 5.5V15H1V9H1.5C1.77614 9 2 8.77614 2 8.5C2 8.22386 1.77614 8 1.5 8H0.5C0.223858 8 0 8.22386 0 8.5V15.5C0 15.7761 0.223858 16 0.5 16H3.5H15.5C15.7761 16 16 15.7761 16 15.5V3.5C16 3.2887 15.8672 3.1002 15.6682 3.02913L8.66817 0.529132ZM4 6H9V15H4V6ZM5 10.5C5 10.2239 5.22386 10 5.5 10H7.5C7.77614 10 8 10.2239 8 10.5C8 10.7761 7.77614 11 7.5 11H5.5C5.22386 11 5 10.7761 5 10.5ZM5.5 12C5.22386 12 5 12.2239 5 12.5C5 12.7761 5.22386 13 5.5 13H7.5C7.77614 13 8 12.7761 8 12.5C8 12.2239 7.77614 12 7.5 12H5.5ZM5 8.5C5 8.22386 5.22386 8 5.5 8H7.5C7.77614 8 8 8.22386 8 8.5C8 8.77614 7.77614 9 7.5 9H5.5C5.22386 9 5 8.77614 5 8.5ZM11.5 4C11.7761 4 12 4.22386 12 4.5V12.5C12 12.7761 11.7761 13 11.5 13C11.2239 13 11 12.7761 11 12.5V4.5C11 4.22386 11.2239 4 11.5 4ZM14 5.5C14 5.22386 13.7761 5 13.5 5C13.2239 5 13 5.22386 13 5.5V12.5C13 12.7761 13.2239 13 13.5 13C13.7761 13 14 12.7761 14 12.5V5.5Z" fill="#DC244C"/>
</g>
<defs>
<clipPath id="clip0_2279_22531">
<rect width="16" height="16" fill="white"/>
</clipPath>
</defs>
</svg>
