<svg width="16" height="16" viewBox="0 0 16 16" fill="none" xmlns="http://www.w3.org/2000/svg">
<g clip-path="url(#clip0_2279_21500)">
<path fill-rule="evenodd" clip-rule="evenodd" d="M10 0C8.89586 0 8 0.895858 8 2V7.5C8 7.70223 8.12182 7.88455 8.30866 7.96194C8.4955 8.03933 8.71055 7.99655 8.85355 7.85355L10.7071 6H14C15.1041 6 16 5.10414 16 4V2C16 0.895858 15.1041 0 14 0H10ZM9 2C9 1.44814 9.44814 1 10 1H14C14.5519 1 15 1.44814 15 2V4C15 4.55186 14.5519 5 14 5H10.5C10.3674 5 10.2402 5.05268 10.1464 5.14645L9 6.29289V2ZM2 7C0.895858 7 0 7.89586 0 9V14C0 15.1041 0.895858 16 2 16H12C13.1041 16 14 15.1041 14 14V9C14 7.89586 13.1041 7 12 7H11.5C11.2239 7 11 7.22386 11 7.5C11 7.77614 11.2239 8 11.5 8H12C12.5519 8 13 8.44814 13 9V14C13 14.5519 12.5519 15 12 15H2C1.44814 15 1 14.5519 1 14V9C1 8.44814 1.44814 8 2 8H6.5C6.77614 8 7 7.77614 7 7.5C7 7.22386 6.77614 7 6.5 7H2ZM4.93311 3.25C4.97565 3.32354 5 3.40893 5 3.5V5.5C5 5.77614 4.77614 6 4.5 6C4.22386 6 4 5.77614 4 5.5V3.5C4 3.40893 4.02435 3.32354 4.06689 3.25C4.02435 3.17646 4 3.09107 4 3C4 2.72386 4.22386 2.5 4.5 2.5C4.77614 2.5 5 2.72386 5 3C5 3.09107 4.97565 3.17646 4.93311 3.25ZM4 12C4.55228 12 5 11.5523 5 11C5 10.4477 4.55228 10 4 10C3.44772 10 3 10.4477 3 11C3 11.5523 3.44772 12 4 12ZM9 11C9 10.4477 9.44771 10 10 10C10.5523 10 11 10.4477 11 11C11 11.5523 10.5523 12 10 12C9.44771 12 9 11.5523 9 11Z" fill="#DC244C"/>
</g>
<defs>
<clipPath id="clip0_2279_21500">
<rect width="16" height="16" fill="white"/>
</clipPath>
</defs>
</svg>
