<svg version="1.1" xmlns="http://www.w3.org/2000/svg" viewBox="0 0 737.3317817221955 233.53647560237283" width="737.3317817221955" height="233.53647560237283">
  <!-- svg-source:excalidraw -->
  
  <defs>
    <style class="style-fonts">
      @font-face {
        font-family: "Virgil";
        src: url("https://excalidraw.com/Virgil.woff2");
      }
      @font-face {
        font-family: "Cascadia";
        src: url("https://excalidraw.com/Cascadia.woff2");
      }
    </style>
    
  </defs>
  <rect x="0" y="0" width="737.3317817221955" height="233.53647560237283" fill="#ffffff"></rect><g stroke-linecap="round" transform="translate(10 54.100006103515625) rotate(0 74 49.5)"><path d="M24.75 0 M24.75 0 C48.31 -1, 71.02 0.06, 123.25 0 M24.75 0 C60.2 -0.66, 95.34 -1.02, 123.25 0 M123.25 0 C138.62 -1.6, 147.95 8.94, 148 24.75 M123.25 0 C140.34 -0.57, 149.12 10.01, 148 24.75 M148 24.75 C148.18 40.67, 149.78 55.03, 148 74.25 M148 24.75 C148.52 43.35, 147.82 60.13, 148 74.25 M148 74.25 C147.15 89, 138.35 97.31, 123.25 99 M148 74.25 C146.4 90.49, 138.18 98.8, 123.25 99 M123.25 99 C99.32 99.56, 77.96 98.3, 24.75 99 M123.25 99 C95.03 99.21, 68.54 99.37, 24.75 99 M24.75 99 C9.22 98.2, 0.57 91.4, 0 74.25 M24.75 99 C6.7 97.52, -1.87 88.98, 0 74.25 M0 74.25 C-1 57.59, -1.59 38.71, 0 24.75 M0 74.25 C1.18 55.71, 0.34 36.96, 0 24.75 M0 24.75 C-1.92 8.48, 7.64 -0.03, 24.75 0 M0 24.75 C0.96 9.4, 10.43 1.86, 24.75 0" stroke="#1e1e1e" stroke-width="2" fill="none"></path></g><g transform="translate(52 78.10000610351562) rotate(0 32.47916793823242 25)"><text x="0" y="0" font-family="Virgil, Segoe UI Emoji" font-size="20px" fill="#1e1e1e" text-anchor="start" style="white-space: pre;" direction="ltr" dominant-baseline="text-before-edge">Search</text><text x="0" y="25" font-family="Virgil, Segoe UI Emoji" font-size="20px" fill="#1e1e1e" text-anchor="start" style="white-space: pre;" direction="ltr" dominant-baseline="text-before-edge">Query</text></g><g stroke-linecap="round"><g transform="translate(293.0806820287928 103.00000000000009) rotate(0 22.87705192778256 -0.3263940063491333)"><path d="M-0.48 -2.15 C8.21 -2.63, 41.46 -3.28, 49.94 -3.5 M-4.18 2.85 C4.5 2.68, 39.74 -0.46, 48.75 -1.23" stroke="#1971c2" stroke-width="2" fill="none"></path></g><g transform="translate(293.0806820287928 103.00000000000009) rotate(0 22.87705192778256 -0.3263940063491333)"><path d="M23.91 11.66 C28.29 10.14, 33.11 1.31, 50.9 -4.08 M26.06 9.68 C35.83 6.95, 38.91 3.94, 47.64 0.4" stroke="#1971c2" stroke-width="2" fill="none"></path></g><g transform="translate(293.0806820287928 103.00000000000009) rotate(0 22.87705192778256 -0.3263940063491333)"><path d="M22.5 -4.7 C27.12 -2.58, 32.25 -7.76, 50.9 -4.08 M24.64 -6.68 C34.53 -4.35, 38.05 -2.29, 47.64 0.4" stroke="#1971c2" stroke-width="2" fill="none"></path></g></g><mask></mask><g transform="translate(173.0806820287928 126.00000000000003) rotate(0 73.54166412353516 25)"><text x="73.54166412353516" y="0" font-family="Virgil, Segoe UI Emoji" font-size="20px" fill="#1971c2" text-anchor="middle" style="white-space: pre;" direction="ltr" dominant-baseline="text-before-edge">recommendation</text><text x="73.54166412353516" y="25" font-family="Virgil, Segoe UI Emoji" font-size="20px" fill="#1971c2" text-anchor="middle" style="white-space: pre;" direction="ltr" dominant-baseline="text-before-edge">query</text></g><g stroke-linecap="round"><g transform="translate(159.0806820287928 101.00000000000006) rotate(0 35.38260042704641 4.89712621420621)"><path d="M-1.79 2.38 C9.85 3.71, 60.85 5.48, 72.55 6.03 M2.44 1.2 C13.59 3.02, 59.25 7.53, 71.15 8.59" stroke="#1971c2" stroke-width="2" fill="none"></path></g></g><mask></mask><g stroke-linecap="round"><g transform="translate(233.0806820287928 107.00000000000009) rotate(0 0.7019048104062904 -5.725377411022791)"><path d="M0.44 0.17 C1.15 -1.64, 3.24 -9.68, 4.17 -11.62 M-2.77 -2.2 C-2.4 -3.43, 0.68 -6.8, 2.03 -7.79" stroke="#1971c2" stroke-width="2" fill="none"></path></g></g><mask></mask><g stroke-linecap="round"><g transform="translate(237.0806820287928 99.00000000000009) rotate(0 7.686071227528146 13.90422401156276)"><path d="M-0.34 0.53 C2.55 5.02, 16.48 25.32, 19.34 29.46 M-3.97 -1.65 C-1.61 3.32, 12.89 20.91, 17.29 25.79" stroke="#1971c2" stroke-width="2" fill="none"></path></g></g><mask></mask><g stroke-linecap="round"><g transform="translate(257.0806820287928 128.00000000000003) rotate(0 2.9481360003724717 -17.004710860587664)"><path d="M2.33 0.16 C2.93 -4.81, 5 -25.33, 5.75 -30.51 M0.15 -2.23 C0.25 -7.86, 2.94 -28.66, 3.92 -34.17" stroke="#1971c2" stroke-width="2" fill="none"></path></g></g><mask></mask><g stroke-linecap="round"><g transform="translate(263.0806820287928 97.00000000000009) rotate(0 9.07314021624623 14.077505005262793)"><path d="M-1.76 -2.4 C1.94 2.06, 16.56 22.12, 19.9 27.31 M2.49 2.46 C5.92 7.31, 13.54 25.6, 17.07 30.56" stroke="#1971c2" stroke-width="2" fill="none"></path></g></g><mask></mask><g stroke-linecap="round"><g transform="translate(278.0806820287928 125.00000000000003) rotate(0 7.1131460960954485 -13.804715360216804)"><path d="M-1.05 1.41 C1.86 -2.63, 13.05 -20.75, 15.28 -25.06 M3.58 -0.29 C6.42 -5.04, 11.28 -24.31, 13.73 -29.02" stroke="#1971c2" stroke-width="2" fill="none"></path></g></g><mask></mask><g stroke-linecap="round" transform="translate(555.0806820287928 10) rotate(0 84.5 90.5)"><path d="M32 0 M32 0 C56.76 -2.59, 87.53 0.94, 137 0 M32 0 C52.89 3.65, 75.91 0.85, 137 0 M137 0 C156.1 3.93, 171.98 10.56, 169 32 M137 0 C162.47 2.76, 168.09 10.87, 169 32 M169 32 C171.29 65.22, 166.63 99.46, 169 149 M169 32 C170.17 75.21, 168.6 117.44, 169 149 M169 149 C171.24 173.1, 160.35 183.58, 137 181 M169 149 C166.61 165.99, 161.31 184.11, 137 181 M137 181 C111.31 180.82, 84.51 178.1, 32 181 M137 181 C94.52 182.29, 55.58 179.97, 32 181 M32 181 C14.54 179.62, -0.16 171.39, 0 149 M32 181 C13.96 177.41, 0.83 174.03, 0 149 M0 149 C-0.25 115.14, -3.72 72.3, 0 32 M0 149 C-0.3 108.48, -2.57 67.52, 0 32 M0 32 C3.45 10.09, 8.83 -0.82, 32 0 M0 32 C0.44 9.22, 14.37 1.47, 32 0" stroke="#1e1e1e" stroke-width="2" fill="none"></path></g><g stroke-linecap="round"><g transform="translate(554.0806820287928 65) rotate(0 85.5317969378084 0.29937981188803064)"><path d="M-2.19 0.51 C26.56 -0.09, 144.41 -1.18, 173.25 -1.57 M1.82 -1.69 C30.34 -1.94, 144.38 1.78, 172.24 2.3" stroke="#1e1e1e" stroke-width="2" fill="none"></path></g></g><mask></mask><g stroke-linecap="round"><g transform="translate(555.5488850909844 110.70062018811194) rotate(0 84.0697512034327 -3.2419386247173065)"><path d="M-1.75 -0.63 C26.91 -0.75, 140.68 -1.33, 169.89 -1.25 M2.49 -3.44 C30.88 -4.4, 138.62 -5.64, 167.05 -5.86" stroke="#1e1e1e" stroke-width="2" fill="none"></path></g></g><mask></mask><g stroke-linecap="round"><g transform="translate(550.5488850909844 150.70062018811194) rotate(0 85.26682024639103 -1.3472752960014702)"><path d="M0.75 2.54 C29.66 2.58, 144.16 -0.18, 172.82 -0.85 M-2.29 1.45 C26.47 0.74, 142.56 -5.32, 171.58 -5.23" stroke="#1e1e1e" stroke-width="2" fill="none"></path></g></g><mask></mask><g transform="translate(570.0806820287928 21) rotate(0 69.125 75)"><text x="0" y="0" font-family="Virgil, Segoe UI Emoji" font-size="20px" fill="#1e1e1e" text-anchor="start" style="white-space: pre;" direction="ltr" dominant-baseline="text-before-edge">Search Result</text><text x="0" y="25" font-family="Virgil, Segoe UI Emoji" font-size="20px" fill="#1e1e1e" text-anchor="start" style="white-space: pre;" direction="ltr" dominant-baseline="text-before-edge"></text><text x="0" y="50" font-family="Virgil, Segoe UI Emoji" font-size="20px" fill="#1e1e1e" text-anchor="start" style="white-space: pre;" direction="ltr" dominant-baseline="text-before-edge">1. nearest</text><text x="0" y="75" font-family="Virgil, Segoe UI Emoji" font-size="20px" fill="#1e1e1e" text-anchor="start" style="white-space: pre;" direction="ltr" dominant-baseline="text-before-edge"></text><text x="0" y="100" font-family="Virgil, Segoe UI Emoji" font-size="20px" fill="#1e1e1e" text-anchor="start" style="white-space: pre;" direction="ltr" dominant-baseline="text-before-edge">2. nearest</text><text x="0" y="125" font-family="Virgil, Segoe UI Emoji" font-size="20px" fill="#1e1e1e" text-anchor="start" style="white-space: pre;" direction="ltr" dominant-baseline="text-before-edge">     . . .</text></g><g stroke-linecap="round"><g transform="translate(458.99780585002736 100.11842072716854) rotate(0 44.183155774029615 -1.9897617592675516)"><path d="M-0.53 0.53 C14.95 0.04, 77.01 0.16, 92.63 -0.95 M-4.26 -1.65 C10.79 -3.04, 74.02 -4.06, 89.94 -4.51" stroke="#1971c2" stroke-width="2" fill="none"></path></g><g transform="translate(458.99780585002736 100.11842072716854) rotate(0 44.183155774029615 -1.9897617592675516)"><path d="M62.75 5.2 C73.81 2.94, 74.57 0.08, 87.82 -2.32 M62.81 4.52 C71.55 1.73, 80.1 1.22, 91.66 -6.5" stroke="#1971c2" stroke-width="2" fill="none"></path></g><g transform="translate(458.99780585002736 100.11842072716854) rotate(0 44.183155774029615 -1.9897617592675516)"><path d="M62.28 -15.31 C73.77 -11.59, 74.67 -8.47, 87.82 -2.32 M62.35 -15.99 C71.24 -11.97, 79.95 -5.68, 91.66 -6.5" stroke="#1971c2" stroke-width="2" fill="none"></path></g></g><mask></mask><g transform="translate(350.4860658983489 187.32866822443407) rotate(0 49.28222787491171 18.103903688969382)"><text x="0" y="0" font-family="Virgil, Segoe UI Emoji" font-size="28.966245902351016px" fill="#1971c2" text-anchor="start" style="white-space: pre;" direction="ltr" dominant-baseline="text-before-edge">Qdrant</text></g><g stroke-linecap="round"><g transform="translate(358.08181250367033 86.38645102097678) rotate(0 1.0682106218114313 23.855841728259847)"><path d="M-1.2 2.04 C-1 9.53, 0.42 36.44, 1.03 44.04 M3.34 0.67 C3.19 8.62, -0.83 39.9, -1.14 47.04" stroke="#e03131" stroke-width="2" fill="none"></path></g></g><mask></mask><g stroke-linecap="round"><g transform="translate(360.76780894911235 132.04839059349342) rotate(0 17.0629276985959 9.844138450386296)"><path d="M0.13 -1.17 C6.56 2.48, 31.68 19.91, 37.37 23.96 M-3.24 -4.27 C3.06 -1.54, 30.16 16.5, 35.98 20.29" stroke="#e03131" stroke-width="2" fill="none"></path></g></g><mask></mask><g stroke-linecap="round"><g transform="translate(397.4764270368214 153.0886960827903) rotate(0 7.3079449098844975 -2.8963578008259248)"><path d="M1.56 2.47 C3.22 1.98, 8.87 -2.64, 10.1 -4.16 M-1.04 1.35 C1.53 0.15, 13.11 -7.38, 15.66 -8.27" stroke="#e03131" stroke-width="2" fill="none"></path></g></g><mask></mask><g stroke-linecap="round"><g transform="translate(398.3717591853024 137.42038348437768) rotate(0 0.0376003441587045 8.853287841847134)"><path d="M-1.54 1.66 C-2.26 3.65, -2.67 12.62, -2.74 14.42 M2.81 0.1 C2.78 3.71, 2.01 15.29, 2.18 17.61" stroke="#e03131" stroke-width="2" fill="none"></path></g></g><mask></mask><g stroke-linecap="round"><g transform="translate(410.0110771155523 132.4960566677338) rotate(0 0.29670262447132245 4.523943533065207)"><path d="M-2.74 -0.8 C-2.81 0.69, -2.8 7.94, -1.97 10.64 M0.97 -3.71 C1.93 -2.13, 3.25 10.31, 3.36 12.75" stroke="#e03131" stroke-width="2" fill="none"></path></g></g><mask></mask><g stroke-linecap="round"><g transform="translate(371.51179473088087 122.6474030344458) rotate(0 13.786698122026166 7.646413142382855)"><path d="M-1.97 -2.79 C3.41 0.36, 24.5 15.28, 29.55 18.08 M2.15 1.87 C7.61 4.31, 24.38 11.79, 28.52 14.14" stroke="#e03131" stroke-width="2" fill="none"></path></g></g><mask></mask><g stroke-linecap="round"><g transform="translate(397.9240931110621 138.7633817070988) rotate(0 6.086411676893022 -2.9848259603003697)"><path d="M2.24 1.97 C4.59 1.11, 10.75 -7.09, 12.17 -7.94 M0.01 0.57 C2.26 0.25, 9.02 -4.17, 10.46 -5.46" stroke="#e03131" stroke-width="2" fill="none"></path></g></g><mask></mask><g stroke-linecap="round"><g transform="translate(371.51179473088087 93.54910820882253) rotate(0 -1.0056210521936464 15.307254986628024)"><path d="M0.97 -2.12 C0.52 3.01, -0.31 26.97, -0.48 32.73 M-1.94 2.91 C-3.02 7.15, -2.99 24.98, -2.98 29.21" stroke="#e03131" stroke-width="2" fill="none"></path></g></g><mask></mask><g stroke-linecap="round"><g transform="translate(371.9594608051211 92.65377606034178) rotate(0 10.626585270321243 -5.936265265742733)"><path d="M-0.48 2.74 C3.59 1.27, 21.5 -8.4, 25.44 -10.95 M-4.19 1.76 C-0.58 -0.26, 17.68 -11.38, 23.17 -14.61" stroke="#e03131" stroke-width="2" fill="none"></path></g></g><mask></mask><g stroke-linecap="round"><g transform="translate(397.4764270368214 79.67145990737129) rotate(0 12.5803712560936 8.049068209952978)"><path d="M-0.07 2.48 C3.94 4.48, 19.66 13, 23.6 14.74 M-3.56 1.36 C1.35 3.67, 23.27 7.84, 28.72 10.19" stroke="#e03131" stroke-width="2" fill="none"></path></g></g><mask></mask><g stroke-linecap="round"><g transform="translate(423.8887254170031 93.99677428306279) rotate(0 0.4024612891309971 29.572534482250546)"><path d="M-2.36 0.86 C-2.67 9.98, -2.37 47.6, -1.92 57.2 M1.55 -1.14 C2.1 9.58, 3.72 49.81, 3.19 60.29" stroke="#e03131" stroke-width="2" fill="none"></path></g></g><mask></mask><g stroke-linecap="round"><g transform="translate(409.5634110413116 145.92603889494455) rotate(0 5.895686076920697 4.050226345397419)"><path d="M-2.37 -1 C0.38 0.25, 11.63 6.65, 14.16 8.33 M1.54 -4.01 C4.12 -2.33, 10.39 10.75, 11.84 12.11" stroke="#e03131" stroke-width="2" fill="none"></path></g></g><mask></mask><g stroke-linecap="round"><g transform="translate(424.33639149124383 94.44444035730317) rotate(0 5.811630631538151 -5.823409189459639)"><path d="M-0.16 0.27 C1.85 -0.81, 7.61 -6.19, 9.72 -7.47 M-3.7 -2.05 C-0.53 -3.9, 12.81 -10.21, 15.32 -11.92" stroke="#e03131" stroke-width="2" fill="none"></path></g></g><mask></mask><g stroke-linecap="round"><g transform="translate(435.97570942149287 86.38645102097678) rotate(0 0.7227379390969872 29.890836560168538)"><path d="M-1.47 1.04 C-1.24 11.1, 0.97 50.87, 1.27 60.65 M2.92 -0.87 C2.92 8.31, 0.42 45.62, -0.27 56.24" stroke="#e03131" stroke-width="2" fill="none"></path></g></g><mask></mask><g stroke-linecap="round"><g transform="translate(423.44105934276286 153.0886960827903) rotate(0 5.712531159118498 -3.1682225886089554)"><path d="M1.27 1.11 C3.67 -0.3, 11.46 -6.41, 12.9 -7.45 M-1.48 -0.75 C0.71 -1.76, 8.06 -2.31, 10.87 -3.73" stroke="#e03131" stroke-width="2" fill="none"></path></g></g><mask></mask><g stroke-linecap="round"><g transform="translate(397.9240931110621 62.66014908623765) rotate(0 18.783511171317627 12.233111197128522)"><path d="M0.37 0.16 C6.07 4.42, 28.73 22.29, 35.45 26.68 M-2.87 -2.22 C3.54 1.21, 33.25 18.95, 40.44 23.04" stroke="#e03131" stroke-width="2" fill="none"></path></g></g><mask></mask><g stroke-linecap="round"><g transform="translate(358.97714465215086 86.38645102097678) rotate(0 6.278106554382191 5.687014759379423)"><path d="M-2.6 2.51 C-0.14 4.15, 12.97 9.15, 15.16 9.97 M1.18 1.41 C3.48 2.28, 11.83 4.74, 14.34 6.24" stroke="#e03131" stroke-width="2" fill="none"></path></g></g><mask></mask><g stroke-linecap="round"><g transform="translate(358.08181250367033 85.49111887249603) rotate(0 22.30954592167234 -10.117018800456151)"><path d="M2.62 2.36 C9.51 -1.83, 32.69 -18.93, 38.71 -22.59 M0.6 1.17 C8.61 -1.34, 36.69 -14.95, 44.02 -19.08" stroke="#e03131" stroke-width="2" fill="none"></path></g></g><mask></mask><g stroke-linecap="round"><g transform="translate(382.70344658688964 100.26409932242791) rotate(0 1.021288692796361 8.06035084698324)"><path d="M-2.02 -0.21 C-2.64 2.55, -1.86 16.45, -1.06 18.91 M2.07 -2.79 C2.11 0.49, 4.3 12.14, 4.29 15.42" stroke="#e03131" stroke-width="2" fill="none"></path></g></g><mask></mask><g stroke-linecap="round"><g transform="translate(384.49411088385114 115.48474584660005) rotate(0 5.780866164593874 5.1380441655051925)"><path d="M-1.95 2.8 C0.64 3.77, 11.6 4.93, 13.51 5.63 M2.18 1.84 C4.75 3.18, 10.11 7.07, 12.29 8.43" stroke="#e03131" stroke-width="2" fill="none"></path></g></g><mask></mask><g stroke-linecap="round"><g transform="translate(396.1334288141006 107.42675651027366) rotate(0 0.5619127805946391 8.087115214396462)"><path d="M1.87 -1.53 C1.85 0.36, -1.75 11.48, -2.08 14.16 M-0.55 3.81 C0.48 7.36, 3.43 15.37, 3.19 17.7" stroke="#e03131" stroke-width="2" fill="none"></path></g></g><mask></mask><g stroke-linecap="round"><g transform="translate(383.1511126611299 99.36876717394716) rotate(0 5.384291597937761 4.683892431594316)"><path d="M-2.08 -0.16 C-0.25 1.48, 10.14 7.31, 12.85 8.32 M1.98 -2.72 C3.26 -0.43, 8.7 10.33, 10.54 12.09" stroke="#e03131" stroke-width="2" fill="none"></path></g></g><mask></mask><g stroke-linecap="round"><g transform="translate(397.4764270368214 92.65377606034178) rotate(0 -6.965318640197154 2.9211970754815155)"><path d="M-0.13 0.26 C-1.82 1.19, -9.97 4.18, -12.22 5.45 M-3.65 -2.07 C-5.41 -0.83, -11.82 5.71, -13.8 7.91" stroke="#e03131" stroke-width="2" fill="none"></path></g></g><mask></mask><g stroke-linecap="round"><g transform="translate(409.11574496707135 100.71176539666828) rotate(0 -7.12939680717659 -2.2523762753335603)"><path d="M1.21 -2.16 C-0.96 -3.42, -10.35 -6.23, -13.14 -7.35 M-1.57 2.84 C-4.12 2.06, -14.04 -2.03, -15.47 -3.58" stroke="#e03131" stroke-width="2" fill="none"></path></g></g><mask></mask><g stroke-linecap="round"><g transform="translate(396.1334288141006 108.76975473299467) rotate(0 5.624570344247559 -4.068994229642769)"><path d="M-0.16 0.26 C1.29 -0.78, 7.57 -7.33, 9.95 -8.4 M-3.69 -2.06 C-1.52 -2.54, 12.14 -3.92, 14.94 -5.44" stroke="#e03131" stroke-width="2" fill="none"></path></g></g><mask></mask><g stroke-linecap="round"><g transform="translate(407.7727467443501 116.82774406932117) rotate(0 -0.2840687979488621 -7.005749928423299)"><path d="M-2.59 -1.24 C-2.22 -3.58, 1.96 -11.43, 2.02 -13.79 M1.2 4.26 C1.35 1.03, 0.31 -15.45, 0.63 -18.27" stroke="#e03131" stroke-width="2" fill="none"></path></g></g><mask></mask><g stroke-linecap="round"><g transform="translate(395.68576273986037 121.75207088596517) rotate(0 6.659859345014979 -3.4209168132227887)"><path d="M1.57 0.98 C3.57 -0.12, 7.72 -6.18, 9.4 -7.82 M-1.02 -0.96 C2.04 -1.52, 12.57 -3.6, 14.34 -4.55" stroke="#e03131" stroke-width="2" fill="none"></path></g></g><mask></mask><g stroke-linecap="round"><g transform="translate(337.0806820287928 38) rotate(0 0.3169266823679209 64.33953232020139)"><path d="M-2.53 2.35 C-1.71 22.77, 2.35 104.41, 3.16 124.99 M1.29 1.15 C2 23.1, 1.65 106.33, 1.56 127.53" stroke="#1e1e1e" stroke-width="2" fill="none"></path></g></g><mask></mask><g stroke-linecap="round"><g transform="translate(453.7637553464249 40.66046767979867) rotate(0 1.2674451199206942 63.798403173871336)"><path d="M-1.05 0.31 C-0.55 22.34, 3.3 108.59, 3.47 129.59 M3.57 -2 C3.79 19.55, 1.67 104.15, 2.04 125.99" stroke="#1e1e1e" stroke-width="2" fill="none"></path></g></g><mask></mask><g stroke-linecap="round" transform="translate(335.0806820287928 29) rotate(0 61 15)"><path d="M94.83 3.99 C103.9 4.86, 113.15 6.07, 117.33 8.65 C121.51 11.23, 121.5 16.79, 119.9 19.49 C118.31 22.18, 115.11 23.39, 107.77 24.82 C100.42 26.26, 86.69 27.54, 75.83 28.12 C64.98 28.7, 53.14 28.7, 42.64 28.31 C32.14 27.92, 19.75 27.5, 12.83 25.78 C5.92 24.05, 2.13 20.86, 1.15 17.96 C0.17 15.05, 2.43 11.12, 6.97 8.36 C11.51 5.6, 18.85 2.94, 28.4 1.39 C37.95 -0.16, 49.05 -2.66, 64.28 -0.95 C79.51 0.76, 111.11 8.3, 119.77 11.65 C128.43 15.01, 117.64 19.16, 116.24 19.17 M54.36 0.18 C65.39 -0.78, 82.69 -1.5, 92.79 0.2 C102.9 1.9, 109.99 7.29, 114.97 10.39 C119.96 13.49, 123.76 16.74, 122.73 18.78 C121.69 20.82, 115.25 21.02, 108.75 22.63 C102.24 24.24, 93.43 27.07, 83.7 28.44 C73.96 29.81, 61.77 31.53, 50.35 30.86 C38.94 30.19, 23.21 26.61, 15.19 24.42 C7.17 22.22, 4.03 20.41, 2.24 17.68 C0.45 14.96, 0.93 10.81, 4.43 8.06 C7.93 5.31, 14.1 2.99, 23.23 1.17 C32.37 -0.64, 53.77 -3.09, 59.24 -2.82 C64.71 -2.55, 56.27 2.12, 56.06 2.79" stroke="#1e1e1e" stroke-width="2" fill="none"></path></g><g stroke-linecap="round"><g transform="translate(339.0806820287928 168) rotate(0 58.61857074461881 8.492427355992376)"><path d="M-2.1 1.59 C7.58 3.62, 37.07 14.96, 57.31 14.54 C77.55 14.12, 109.19 1.58, 119.34 -0.94 M1.95 -0.01 C12.52 3.68, 42.77 17.64, 62.25 17.92 C81.72 18.2, 109.27 4.36, 118.8 1.66" stroke="#1e1e1e" stroke-width="2" fill="none"></path></g></g><mask></mask></svg>