<svg version="1.1" xmlns="http://www.w3.org/2000/svg" viewBox="0 0 644.3317817221955 435.5364756023729" width="644.3317817221955" height="435.5364756023729">
  <!-- svg-source:excalidraw -->
  
  <defs>
    <style class="style-fonts">
      @font-face {
        font-family: "Virgil";
        src: url("https://excalidraw.com/Virgil.woff2");
      }
      @font-face {
        font-family: "Cascadia";
        src: url("https://excalidraw.com/Cascadia.woff2");
      }
    </style>
    
  </defs>
  <rect x="0" y="0" width="644.3317817221955" height="435.5364756023729" fill="#ffffff"></rect><g stroke-linecap="round" transform="translate(10 23.100006103515625) rotate(0 74 49.5)"><path d="M24.75 0 M24.75 0 C48.31 -1, 71.02 0.06, 123.25 0 M24.75 0 C60.2 -0.66, 95.34 -1.02, 123.25 0 M123.25 0 C138.62 -1.6, 147.95 8.94, 148 24.75 M123.25 0 C140.34 -0.57, 149.12 10.01, 148 24.75 M148 24.75 C148.18 40.67, 149.78 55.03, 148 74.25 M148 24.75 C148.52 43.35, 147.82 60.13, 148 74.25 M148 74.25 C147.15 89, 138.35 97.31, 123.25 99 M148 74.25 C146.4 90.49, 138.18 98.8, 123.25 99 M123.25 99 C99.32 99.56, 77.96 98.3, 24.75 99 M123.25 99 C95.03 99.21, 68.54 99.37, 24.75 99 M24.75 99 C9.22 98.2, 0.57 91.4, 0 74.25 M24.75 99 C6.7 97.52, -1.87 88.98, 0 74.25 M0 74.25 C-1 57.59, -1.59 38.71, 0 24.75 M0 74.25 C1.18 55.71, 0.34 36.96, 0 24.75 M0 24.75 C-1.92 8.48, 7.64 -0.03, 24.75 0 M0 24.75 C0.96 9.4, 10.43 1.86, 24.75 0" stroke="#1e1e1e" stroke-width="2" fill="none"></path></g><g transform="translate(53 44.100006103515625) rotate(0 32.47916793823242 25)"><text x="0" y="0" font-family="Virgil, Segoe UI Emoji" font-size="20px" fill="#1e1e1e" text-anchor="start" style="white-space: pre;" direction="ltr" dominant-baseline="text-before-edge">Search</text><text x="0" y="25" font-family="Virgil, Segoe UI Emoji" font-size="20px" fill="#1e1e1e" text-anchor="start" style="white-space: pre;" direction="ltr" dominant-baseline="text-before-edge">Query</text></g><g stroke-linecap="round"><g transform="translate(226.0222072974958 112.10000610351562) rotate(0 2.6744872611016035 35.57458063550294)"><path d="M-1.18 -0.95 C0.04 10.96, 5.06 60, 6.53 72.1 M0.4 1.16 C1.49 12.71, 4.2 59.14, 5.33 70.56" stroke="#1e1e1e" stroke-width="2" fill="none"></path></g></g><mask></mask><g stroke-linecap="round"><g transform="translate(226.3477200363942 109.52542546801266) rotate(0 7.203353861955804 35.58528289651497)"><path d="M0.64 0.36 C2.56 7.39, 11.64 29.9, 12.55 41.6 C13.46 53.3, 6.92 65.58, 6.08 70.57 M-0.49 -0.49 C1.69 6.7, 13.18 30.6, 14.67 42.63 C16.17 54.65, 9.59 67.22, 8.49 71.66" stroke="#1e1e1e" stroke-width="2" fill="none"></path></g></g><mask></mask><g stroke-linecap="round"><g transform="translate(224.12048590281654 115.2872122751944) rotate(332.62567937440684 -4.316372300675141 36.05337678446435)"><path d="M-0.1 1.02 C-1.43 13.04, -6.11 60.07, -7.38 71.59 M-1.61 0.51 C-3.19 12.22, -7.92 58.02, -8.53 69.78" stroke="#1e1e1e" stroke-width="2" fill="none"></path></g></g><mask></mask><g stroke-linecap="round"><g transform="translate(220.1877431817892 115.49311543083951) rotate(332.62567937440684 -6.488842397572142 35.608997125914314)"><path d="M-0.38 0.59 C-2.77 7.38, -13.21 29.97, -14.44 41.76 C-15.67 53.55, -9.14 66.63, -7.77 71.36 M1.62 -0.14 C-0.38 7.3, -10.98 31.31, -12.13 42.87 C-13.28 54.43, -6.38 64.55, -5.28 69.2" stroke="#1e1e1e" stroke-width="2" fill="none"></path></g></g><mask></mask><g stroke-linecap="round" transform="translate(208.0222072974949 176.10000610351562) rotate(0 12 12.5)"><path d="M10.63 0.07 C13.34 -0.38, 17.73 0.64, 19.72 2.18 C21.71 3.72, 22.08 6.85, 22.57 9.31 C23.05 11.76, 23.56 14.6, 22.62 16.9 C21.68 19.21, 19.24 21.87, 16.92 23.12 C14.6 24.37, 11.2 25, 8.7 24.42 C6.21 23.83, 3.34 21.71, 1.95 19.6 C0.56 17.49, 0.07 14.37, 0.35 11.74 C0.63 9.1, 1.64 5.66, 3.62 3.8 C5.61 1.93, 11.06 1.22, 12.25 0.55 C13.44 -0.12, 10.86 -0.25, 10.76 -0.21 M10.12 1 C12.58 0.57, 16.94 2.12, 19.05 3.3 C21.15 4.48, 21.86 5.79, 22.75 8.08 C23.63 10.37, 25.27 14.45, 24.36 17.04 C23.44 19.64, 19.65 22.3, 17.25 23.64 C14.85 24.99, 12.25 25.65, 9.94 25.13 C7.62 24.61, 5.15 22.72, 3.37 20.54 C1.59 18.36, -0.87 14.88, -0.74 12.04 C-0.61 9.2, 2.02 5.53, 4.15 3.51 C6.27 1.49, 10.75 0.44, 12.02 -0.1 C13.3 -0.63, 11.97 0.26, 11.79 0.28" stroke="#1e1e1e" stroke-width="2" fill="none"></path></g><g stroke-linecap="round" transform="translate(233.0222072974958 169.60000610351562) rotate(0 12 12.5)"><path d="M11.34 -0.84 C13.75 -1.18, 17.63 0.47, 19.65 2.17 C21.67 3.87, 22.99 6.83, 23.47 9.36 C23.94 11.9, 23.79 14.81, 22.49 17.4 C21.2 19.99, 17.98 23.79, 15.7 24.9 C13.41 26.02, 11.14 25.1, 8.8 24.09 C6.46 23.09, 3.09 21.1, 1.66 18.85 C0.23 16.6, -0.13 13.08, 0.23 10.59 C0.58 8.09, 1.36 5.54, 3.79 3.88 C6.22 2.21, 12.59 1.1, 14.8 0.57 C17 0.04, 17.32 0.45, 16.99 0.71 M10.86 -0.89 C12.89 -1.32, 15.88 1.69, 17.85 3.4 C19.81 5.11, 21.69 7.15, 22.63 9.35 C23.57 11.55, 24.29 14.22, 23.49 16.62 C22.7 19.02, 20.22 22.58, 17.85 23.76 C15.48 24.93, 11.76 24.13, 9.26 23.67 C6.76 23.21, 4.61 23.13, 2.87 21.01 C1.12 18.89, -1.13 13.92, -1.24 10.95 C-1.35 7.99, -0.05 5.24, 2.19 3.23 C4.44 1.23, 10.72 -0.53, 12.23 -1.09 C13.74 -1.65, 11.66 -0.32, 11.25 -0.11" stroke="#1e1e1e" stroke-width="2" fill="none"></path></g><g stroke-linecap="round"><g transform="translate(216 138.96297710451964) rotate(0 27.0268597001608 18.60114295183753)"><path d="M1.04 0.59 C10.05 6.43, 45.09 29.89, 53.92 35.93 M0.13 -0.14 C8.94 5.81, 43.89 31.53, 52.7 37.35" stroke="#1971c2" stroke-width="2" fill="none"></path></g><g transform="translate(216 138.96297710451964) rotate(0 27.0268597001608 18.60114295183753)"><path d="M24.72 28.68 C31.9 30.86, 41.8 34.63, 52.18 38.5 M23.24 28.61 C33.28 31.83, 45.33 34.63, 53.01 37.38" stroke="#1971c2" stroke-width="2" fill="none"></path></g><g transform="translate(216 138.96297710451964) rotate(0 27.0268597001608 18.60114295183753)"><path d="M36.52 11.89 C40.37 19.08, 46.81 27.77, 52.18 38.5 M35.03 11.82 C40.71 21.06, 48.52 29.9, 53.01 37.38" stroke="#1971c2" stroke-width="2" fill="none"></path></g></g><mask></mask><g stroke-linecap="round" transform="translate(272 151.10000610351548) rotate(0 75.5 26.000000000000014)"><path d="M13 0 M13 0 C48.95 -0.7, 82.39 1.37, 138 0 M13 0 C54.44 -1.1, 95.78 -1.53, 138 0 M138 0 C145.71 1.08, 150.8 5.28, 151 13 M138 0 C145.1 1.13, 151.88 6.25, 151 13 M151 13 C152.17 17.62, 150.66 26.67, 151 39 M151 13 C150.75 18.98, 151.39 25.77, 151 39 M151 39 C152.83 49.33, 147.24 50.58, 138 52 M151 39 C151.85 47.1, 145.17 53.67, 138 52 M138 52 C92.63 50.93, 47.51 53.02, 13 52 M138 52 C94.08 51.79, 51.95 53.27, 13 52 M13 52 C2.39 51.39, -1.22 48.32, 0 39 M13 52 C4.6 50.88, -1.15 47.64, 0 39 M0 39 C1.97 30.27, 0.4 24.32, 0 13 M0 39 C-0.06 30.09, 0.79 19.39, 0 13 M0 13 C1.03 5.38, 4.11 -1.73, 13 0 M0 13 C0.25 4.67, 2.28 -1.23, 13 0" stroke="#1e1e1e" stroke-width="2" fill="none"></path></g><g transform="translate(281 164.10000610351562) rotate(0 65.69999694824219 12.5)"><text x="0" y="0" font-family="Virgil, Segoe UI Emoji" font-size="20px" fill="#1e1e1e" text-anchor="start" style="white-space: pre;" direction="ltr" dominant-baseline="text-before-edge">T O K E N S</text></g><g stroke-linecap="round"><g transform="translate(301 152.10000610351548) rotate(0 0.4001129408180759 25.871766229122898)"><path d="M0.73 0.79 C0.9 9.55, 0.96 43.1, 1.14 51.59 M-0.34 0.15 C-0.33 8.65, -0.04 41.51, 0.27 49.78" stroke="#1e1e1e" stroke-width="2" fill="none"></path></g></g><mask></mask><g stroke-linecap="round"><g transform="translate(323.5998870591819 152.22823987439276) rotate(0 0.7194361682410886 25.015253143664438)"><path d="M0.86 -0.46 C1.26 7.79, 1.65 41.97, 1.58 50.5 M-0.15 -1.75 C0.21 7.18, 1.02 42.83, 0.94 51.78" stroke="#1e1e1e" stroke-width="2" fill="none"></path></g></g><mask></mask><g stroke-linecap="round"><g transform="translate(348.5998870591819 151.22823987439264) rotate(0 0.39081102166824166 25.722193916067482)"><path d="M-0.5 0.87 C-0.54 9.32, 0.45 41.91, 0.54 50.1 M1.44 0.28 C1.13 8.9, -0.82 42.74, -0.65 51.17" stroke="#1e1e1e" stroke-width="2" fill="none"></path></g></g><mask></mask><g stroke-linecap="round"><g transform="translate(371.5998870591819 151.22823987439264) rotate(0 1.0749389963783642 25.490992536535487)"><path d="M0.52 0.25 C0.56 8.89, 0.47 43.3, 0.41 51.65 M-0.66 -0.67 C-0.25 7.65, 2.27 41.21, 2.81 49.87" stroke="#1e1e1e" stroke-width="2" fill="none"></path></g></g><mask></mask><g stroke-linecap="round"><g transform="translate(395.5998870591819 152.22823987439276) rotate(0 1.1139674986154091 25.322436072304853)"><path d="M0.65 -0.87 C0.66 7.82, 0.43 43.03, 0.33 51.51 M-0.47 1.29 C-0.08 9.67, 2.2 41.4, 2.7 49.66" stroke="#1e1e1e" stroke-width="2" fill="none"></path></g></g><mask></mask><g stroke-linecap="round"><g transform="translate(205 130.10000610351562) rotate(0 -23.604485641568914 -15.392748598009348)"><path d="M-0.45 0.94 C-8.62 -4.2, -40.61 -24.61, -48.72 -30.09 M1.51 0.39 C-6.29 -5.15, -38.33 -26.49, -46.38 -31.73" stroke="#1971c2" stroke-width="2" fill="none"></path></g></g><mask></mask><g transform="translate(189 84.10000610351562) rotate(0 46.32500076293945 12.5)"><text x="0" y="0" font-family="Virgil, Segoe UI Emoji" font-size="20px" fill="#1971c2" text-anchor="start" style="white-space: pre;" direction="ltr" dominant-baseline="text-before-edge">Tokenizer</text></g><g stroke-linecap="round"><g transform="translate(227.1126239979858 255.33207123929708) rotate(0 -24.834577622916328 26.67734107998163)"><path d="M-0.12 -0.78 C-8.24 8.31, -40.54 45.07, -48.55 54.14 M-1.64 1.42 C-9.94 10.17, -41.69 43.26, -49.55 52.17" stroke="#1971c2" stroke-width="2" fill="none"></path></g><g transform="translate(227.1126239979858 255.33207123929708) rotate(0 -24.834577622916328 26.67734107998163)"><path d="M-39.24 24.34 C-41.19 33.6, -45.67 41.03, -51.37 50.8 M-37.36 24.47 C-41.34 33.1, -45.7 42.35, -50.04 52.76" stroke="#1971c2" stroke-width="2" fill="none"></path></g><g transform="translate(227.1126239979858 255.33207123929708) rotate(0 -24.834577622916328 26.67734107998163)"><path d="M-24.18 38.28 C-30.8 43.16, -40 46.21, -51.37 50.8 M-22.3 38.41 C-31.26 42.39, -40.63 47.01, -50.04 52.76" stroke="#1971c2" stroke-width="2" fill="none"></path></g></g><mask></mask><g stroke-linecap="round"><g transform="translate(236.43520045304206 273.55154831068506) rotate(334.90373538033356 -0.4260925085727649 -28.525094867957222)"><path d="M-0.19 0.93 C2.12 0.51, 11.16 -0.09, 13.35 -2.93 C15.54 -5.77, 11.38 -9.6, 12.94 -16.13 C14.5 -22.66, 23.35 -35.67, 22.71 -42.12 C22.07 -48.57, 15.18 -53.33, 9.09 -54.82 C3.01 -56.31, -8.29 -54.75, -13.78 -51.07 C-19.27 -47.4, -25.37 -38.92, -23.83 -32.78 C-22.29 -26.64, -8.68 -19.63, -4.54 -14.22 C-0.41 -8.8, 0.31 -2.57, 0.98 -0.28 M-1.75 0.37 C0.55 0.16, 10.66 1.47, 12.98 -1.58 C15.31 -4.64, 10.49 -11.35, 12.21 -17.95 C13.92 -24.56, 23.5 -34.6, 23.29 -41.19 C23.08 -47.78, 17.45 -55.76, 10.95 -57.5 C4.45 -59.24, -9.97 -56.03, -15.72 -51.63 C-21.47 -47.22, -25.76 -37.23, -23.56 -31.05 C-21.35 -24.88, -6.41 -19.45, -2.51 -14.58 C1.39 -9.7, -0.59 -4.04, -0.17 -1.82" stroke="#000000" stroke-width="2" fill="none"></path></g></g><mask></mask><g stroke-linecap="round"><g transform="translate(251.94116052157517 265.8865295472071) rotate(327.423799657176 6.1277949795013456 5.507367261981614)"><path d="M-0.36 0.05 C1.27 3.97, 0.17 6.08, 1.83 12.38 M-0.57 -0.01 C0.69 4.32, 0.23 8.66, 0.29 11.34 M0.9 11.64 C4.19 12.22, 7.81 9.71, 12.82 9.01 M0.43 11.79 C5.16 10.77, 8.76 10.37, 11.86 10.07 M12.58 10.71 C11.09 5.43, 11.4 0.53, 10.28 -1.13 M12.13 10 C11.49 5.59, 9.95 1.99, 10.5 -1.3 M9.25 0.12 C7.85 -0.14, 4.3 -1.04, -0.28 0.21 M9.7 -1.37 C7.2 -0.99, 3.72 -0.27, -0.42 -0.18" stroke="#000000" stroke-width="2" fill="none"></path></g></g><mask></mask><g stroke-linecap="round"><g transform="translate(250.5476825185682 265.62623270086937) rotate(0 -3.721287172818961 -10.797350229278692)"><path d="M1.59 1.01 C-5.33 -6.85, -7.82 -10.72, -10.84 -16 M0.79 -0.23 C-2.8 -3.49, -5.65 -6.91, -12.68 -14.96 M-11.95 -14.16 C-9.89 -17.78, -8.57 -19.69, -6.39 -22.61 M-12.18 -15.16 C-11.34 -16.6, -9.85 -18.1, -6.6 -22.16 M-7.35 -22.18 C-1.1 -15.9, 1.8 -7.52, 5.24 -0.06 M-6.44 -22.49 C-4.12 -15.08, 1.39 -9.12, 3.56 -2.28" stroke="#000000" stroke-width="2" fill="none"></path></g></g><mask></mask><g transform="translate(265 230.12212936748807) rotate(0 46.900001525878906 12.5)"><text x="0" y="0" font-family="Virgil, Segoe UI Emoji" font-size="20px" fill="#1971c2" text-anchor="start" style="white-space: pre;" direction="ltr" dominant-baseline="text-before-edge">Embedding</text></g><g stroke-linecap="round" transform="translate(87.08068202879281 313) rotate(0 48.99999999999997 26.5)"><path d="M13.25 0 M13.25 0 C32.23 3.46, 59.02 -0.36, 84.75 0 M13.25 0 C35.19 0.29, 58.48 -1.23, 84.75 0 M84.75 0 C97.43 -1.08, 101.13 4.45, 98 13.25 M84.75 0 C91.82 3.48, 101.68 3.7, 98 13.25 M98 13.25 C99.87 20.17, 98.31 28.03, 98 39.75 M98 13.25 C98.78 21.62, 99.16 31.44, 98 39.75 M98 39.75 C99.86 49.87, 97.21 50.65, 84.75 53 M98 39.75 C101.17 44.09, 92.03 49.96, 84.75 53 M84.75 53 C63.24 53.63, 43.61 49.97, 13.25 53 M84.75 53 C57.77 53.71, 32.23 55.77, 13.25 53 M13.25 53 C2.2 52, -2.79 48.95, 0 39.75 M13.25 53 C0.38 54.46, -0.89 52.71, 0 39.75 M0 39.75 C-3.1 32.14, 0.37 17.11, 0 13.25 M0 39.75 C0.64 31.19, 1.85 24.81, 0 13.25 M0 13.25 C2.27 4.08, 4.83 -1.31, 13.25 0 M0 13.25 C-2.9 7.41, 3.67 2.61, 13.25 0" stroke="#1e1e1e" stroke-width="2" fill="none"></path></g><g transform="translate(105.08068202879281 329) rotate(0 31.14583396911621 12.5)"><text x="0" y="0" font-family="Virgil, Segoe UI Emoji" font-size="20px" fill="#1e1e1e" text-anchor="start" style="white-space: pre;" direction="ltr" dominant-baseline="text-before-edge">Vector</text></g><g stroke-linecap="round"><g transform="translate(323.0806820287928 329) rotate(0 48.87705192778259 -2.8263940063491475)"><path d="M-0.48 -2.15 C16.87 -3.47, 84.79 -7.44, 101.94 -8.5 M-4.18 2.85 C13.17 1.85, 83.07 -4.63, 100.75 -6.23" stroke="#1971c2" stroke-width="2" fill="none"></path></g><g transform="translate(323.0806820287928 329) rotate(0 48.87705192778259 -2.8263940063491475)"><path d="M70.54 9.31 C76.13 7.22, 82.14 -2.19, 102.9 -9.08 M72.68 7.34 C84.17 3.73, 88.92 -0.1, 99.64 -4.6" stroke="#1971c2" stroke-width="2" fill="none"></path></g><g transform="translate(323.0806820287928 329) rotate(0 48.87705192778259 -2.8263940063491475)"><path d="M68.67 -11.12 C74.59 -8.66, 81.01 -13.53, 102.9 -9.08 M70.82 -13.1 C82.48 -10.39, 87.81 -7.89, 99.64 -4.6" stroke="#1971c2" stroke-width="2" fill="none"></path></g></g><mask></mask><g transform="translate(203.0806820287928 352) rotate(0 101.5 12.5)"><text x="0" y="0" font-family="Virgil, Segoe UI Emoji" font-size="20px" fill="#1971c2" text-anchor="start" style="white-space: pre;" direction="ltr" dominant-baseline="text-before-edge">query points request</text></g><g stroke-linecap="round"><g transform="translate(185.0806820287928 341) rotate(0 37.38260042704644 -2.7947860423475674)"><path d="M-1.79 2.38 C10.52 1.38, 64.18 -6.19, 76.55 -7.97 M2.44 1.2 C14.26 0.68, 62.59 -4.14, 75.15 -5.41" stroke="#1971c2" stroke-width="2" fill="none"></path></g></g><mask></mask><g stroke-linecap="round"><g transform="translate(263.0806820287928 333) rotate(0 0.7019048104062904 -5.725377411022777)"><path d="M0.44 0.17 C1.15 -1.64, 3.24 -9.68, 4.17 -11.62 M-2.77 -2.2 C-2.4 -3.43, 0.68 -6.8, 2.03 -7.79" stroke="#1971c2" stroke-width="2" fill="none"></path></g></g><mask></mask><g stroke-linecap="round"><g transform="translate(267.0806820287928 325) rotate(0 7.686071227528146 13.904224011562775)"><path d="M-0.34 0.53 C2.55 5.02, 16.48 25.32, 19.34 29.46 M-3.97 -1.65 C-1.61 3.32, 12.89 20.91, 17.29 25.79" stroke="#1971c2" stroke-width="2" fill="none"></path></g></g><mask></mask><g stroke-linecap="round"><g transform="translate(287.0806820287928 354) rotate(0 2.9481360003724717 -17.004710860587636)"><path d="M2.33 0.16 C2.93 -4.81, 5 -25.33, 5.75 -30.51 M0.15 -2.23 C0.25 -7.86, 2.94 -28.66, 3.92 -34.17" stroke="#1971c2" stroke-width="2" fill="none"></path></g></g><mask></mask><g stroke-linecap="round"><g transform="translate(293.0806820287928 323) rotate(0 9.073140216246259 14.077505005262793)"><path d="M-1.76 -2.4 C1.94 2.06, 16.56 22.12, 19.9 27.31 M2.49 2.46 C5.92 7.31, 13.54 25.6, 17.07 30.56" stroke="#1971c2" stroke-width="2" fill="none"></path></g></g><mask></mask><g stroke-linecap="round"><g transform="translate(308.0806820287928 351) rotate(0 7.11314609609542 -13.80471536021679)"><path d="M-1.05 1.41 C1.86 -2.63, 13.05 -20.75, 15.28 -25.06 M3.58 -0.29 C6.42 -5.04, 11.28 -24.31, 13.73 -29.02" stroke="#1971c2" stroke-width="2" fill="none"></path></g></g><mask></mask><g stroke-linecap="round"><g transform="translate(277.0806820287928 199) rotate(0 -12.749955032132561 13.855208623111224)"><path d="M0.38 0.99 C-3.92 5.49, -19.2 21.96, -23.06 26.42 M-2.86 -0.94 C-7.87 3.86, -22.19 23.46, -25.88 28.65" stroke="#1971c2" stroke-width="2" fill="none"></path></g></g><mask></mask><g stroke-linecap="round"><g transform="translate(247.0806820287928 223) rotate(0 -11.495035184621827 14.016603120565406)"><path d="M-0.61 -0.14 C-4.64 4.68, -21.23 22.81, -26.41 27.41 M4.25 -2.68 C0.28 2.7, -22.15 25.23, -27.24 30.72" stroke="#1971c2" stroke-width="2" fill="none"></path></g></g><mask></mask><g stroke-linecap="round" transform="translate(462.0806820287928 10) rotate(0 84.5 90.5)"><path d="M32 0 M32 0 C56.76 -2.59, 87.53 0.94, 137 0 M32 0 C52.89 3.65, 75.91 0.85, 137 0 M137 0 C156.1 3.93, 171.98 10.56, 169 32 M137 0 C162.47 2.76, 168.09 10.87, 169 32 M169 32 C171.29 65.22, 166.63 99.46, 169 149 M169 32 C170.17 75.21, 168.6 117.44, 169 149 M169 149 C171.24 173.1, 160.35 183.58, 137 181 M169 149 C166.61 165.99, 161.31 184.11, 137 181 M137 181 C111.31 180.82, 84.51 178.1, 32 181 M137 181 C94.52 182.29, 55.58 179.97, 32 181 M32 181 C14.54 179.62, -0.16 171.39, 0 149 M32 181 C13.96 177.41, 0.83 174.03, 0 149 M0 149 C-0.25 115.14, -3.72 72.3, 0 32 M0 149 C-0.3 108.48, -2.57 67.52, 0 32 M0 32 C3.45 10.09, 8.83 -0.82, 32 0 M0 32 C0.44 9.22, 14.37 1.47, 32 0" stroke="#1e1e1e" stroke-width="2" fill="none"></path></g><g stroke-linecap="round"><g transform="translate(461.0806820287928 65) rotate(0 85.5317969378084 0.29937981188803064)"><path d="M-2.19 0.51 C26.56 -0.09, 144.41 -1.18, 173.25 -1.57 M1.82 -1.69 C30.34 -1.94, 144.38 1.78, 172.24 2.3" stroke="#1e1e1e" stroke-width="2" fill="none"></path></g></g><mask></mask><g stroke-linecap="round"><g transform="translate(462.5488850909844 110.70062018811194) rotate(0 84.0697512034327 -3.2419386247173065)"><path d="M-1.75 -0.63 C26.91 -0.75, 140.68 -1.33, 169.89 -1.25 M2.49 -3.44 C30.88 -4.4, 138.62 -5.64, 167.05 -5.86" stroke="#1e1e1e" stroke-width="2" fill="none"></path></g></g><mask></mask><g stroke-linecap="round"><g transform="translate(457.5488850909844 150.70062018811194) rotate(0 85.26682024639103 -1.3472752960014702)"><path d="M0.75 2.54 C29.66 2.58, 144.16 -0.18, 172.82 -0.85 M-2.29 1.45 C26.47 0.74, 142.56 -5.32, 171.58 -5.23" stroke="#1e1e1e" stroke-width="2" fill="none"></path></g></g><mask></mask><g transform="translate(477.0806820287928 21) rotate(0 69.125 75)"><text x="0" y="0" font-family="Virgil, Segoe UI Emoji" font-size="20px" fill="#1e1e1e" text-anchor="start" style="white-space: pre;" direction="ltr" dominant-baseline="text-before-edge">Search Result</text><text x="0" y="25" font-family="Virgil, Segoe UI Emoji" font-size="20px" fill="#1e1e1e" text-anchor="start" style="white-space: pre;" direction="ltr" dominant-baseline="text-before-edge"></text><text x="0" y="50" font-family="Virgil, Segoe UI Emoji" font-size="20px" fill="#1e1e1e" text-anchor="start" style="white-space: pre;" direction="ltr" dominant-baseline="text-before-edge">1. nearest</text><text x="0" y="75" font-family="Virgil, Segoe UI Emoji" font-size="20px" fill="#1e1e1e" text-anchor="start" style="white-space: pre;" direction="ltr" dominant-baseline="text-before-edge"></text><text x="0" y="100" font-family="Virgil, Segoe UI Emoji" font-size="20px" fill="#1e1e1e" text-anchor="start" style="white-space: pre;" direction="ltr" dominant-baseline="text-before-edge">2. nearest</text><text x="0" y="125" font-family="Virgil, Segoe UI Emoji" font-size="20px" fill="#1e1e1e" text-anchor="start" style="white-space: pre;" direction="ltr" dominant-baseline="text-before-edge">     . . .</text></g><g stroke-linecap="round"><g transform="translate(496.99780585002736 235.11842072716854) rotate(0 13.683155774029615 -24.73534259348611)"><path d="M-0.53 0.53 C4.78 -7.54, 26.17 -37.75, 31.63 -46.44 M-4.26 -1.65 C0.62 -10.62, 23.19 -41.97, 28.94 -50" stroke="#1971c2" stroke-width="2" fill="none"></path></g><g transform="translate(496.99780585002736 235.11842072716854) rotate(0 13.683155774029615 -24.73534259348611)"><path d="M21.81 -22.83 C26.77 -30.26, 21.68 -38.21, 26.82 -47.82 M21.87 -23.5 C23.95 -32.46, 25.86 -38.75, 30.66 -51.99" stroke="#1971c2" stroke-width="2" fill="none"></path></g><g transform="translate(496.99780585002736 235.11842072716854) rotate(0 13.683155774029615 -24.73534259348611)"><path d="M5.42 -34.53 C15.33 -38.49, 15.02 -43.03, 26.82 -47.82 M5.49 -35.21 C13 -39.98, 20.34 -42.4, 30.66 -51.99" stroke="#1971c2" stroke-width="2" fill="none"></path></g></g><mask></mask><g transform="translate(432.4860658983489 389.32866822443407) rotate(0 49.28222787491171 18.10390368896941)"><text x="0" y="0" font-family="Virgil, Segoe UI Emoji" font-size="28.966245902351016px" fill="#1971c2" text-anchor="start" style="white-space: pre;" direction="ltr" dominant-baseline="text-before-edge">Qdrant</text></g><g stroke-linecap="round"><g transform="translate(440.08181250367033 295.3864510209768) rotate(0 1.0682106218114313 23.855841728259833)"><path d="M-1.2 2.04 C-1 9.53, 0.42 36.44, 1.03 44.04 M3.34 0.67 C3.19 8.62, -0.83 39.9, -1.14 47.04" stroke="#e03131" stroke-width="2" fill="none"></path></g></g><mask></mask><g stroke-linecap="round"><g transform="translate(442.76780894911235 341.0483905934934) rotate(0 17.0629276985959 9.84413845038631)"><path d="M0.13 -1.17 C6.56 2.48, 31.68 19.91, 37.37 23.96 M-3.24 -4.27 C3.06 -1.54, 30.16 16.5, 35.98 20.29" stroke="#e03131" stroke-width="2" fill="none"></path></g></g><mask></mask><g stroke-linecap="round"><g transform="translate(479.4764270368214 362.0886960827903) rotate(0 7.3079449098844975 -2.8963578008259105)"><path d="M1.56 2.47 C3.22 1.98, 8.87 -2.64, 10.1 -4.16 M-1.04 1.35 C1.53 0.15, 13.11 -7.38, 15.66 -8.27" stroke="#e03131" stroke-width="2" fill="none"></path></g></g><mask></mask><g stroke-linecap="round"><g transform="translate(480.3717591853024 346.4203834843777) rotate(0 0.0376003441587045 8.853287841847134)"><path d="M-1.54 1.66 C-2.26 3.65, -2.67 12.62, -2.74 14.42 M2.81 0.1 C2.78 3.71, 2.01 15.29, 2.18 17.61" stroke="#e03131" stroke-width="2" fill="none"></path></g></g><mask></mask><g stroke-linecap="round"><g transform="translate(492.0110771155523 341.4960566677338) rotate(0 0.29670262447132245 4.523943533065221)"><path d="M-2.74 -0.8 C-2.81 0.69, -2.8 7.94, -1.97 10.64 M0.97 -3.71 C1.93 -2.13, 3.25 10.31, 3.36 12.75" stroke="#e03131" stroke-width="2" fill="none"></path></g></g><mask></mask><g stroke-linecap="round"><g transform="translate(453.51179473088087 331.6474030344458) rotate(0 13.786698122026166 7.646413142382869)"><path d="M-1.97 -2.79 C3.41 0.36, 24.5 15.28, 29.55 18.08 M2.15 1.87 C7.61 4.31, 24.38 11.79, 28.52 14.14" stroke="#e03131" stroke-width="2" fill="none"></path></g></g><mask></mask><g stroke-linecap="round"><g transform="translate(479.9240931110621 347.7633817070988) rotate(0 6.086411676893022 -2.9848259603003555)"><path d="M2.24 1.97 C4.59 1.11, 10.75 -7.09, 12.17 -7.94 M0.01 0.57 C2.26 0.25, 9.02 -4.17, 10.46 -5.46" stroke="#e03131" stroke-width="2" fill="none"></path></g></g><mask></mask><g stroke-linecap="round"><g transform="translate(453.51179473088087 302.54910820882253) rotate(0 -1.0056210521936464 15.30725498662801)"><path d="M0.97 -2.12 C0.52 3.01, -0.31 26.97, -0.48 32.73 M-1.94 2.91 C-3.02 7.15, -2.99 24.98, -2.98 29.21" stroke="#e03131" stroke-width="2" fill="none"></path></g></g><mask></mask><g stroke-linecap="round"><g transform="translate(453.9594608051211 301.6537760603418) rotate(0 10.626585270321243 -5.9362652657427475)"><path d="M-0.48 2.74 C3.59 1.27, 21.5 -8.4, 25.44 -10.95 M-4.19 1.76 C-0.58 -0.26, 17.68 -11.38, 23.17 -14.61" stroke="#e03131" stroke-width="2" fill="none"></path></g></g><mask></mask><g stroke-linecap="round"><g transform="translate(479.4764270368214 288.6714599073713) rotate(0 12.5803712560936 8.049068209952992)"><path d="M-0.07 2.48 C3.94 4.48, 19.66 13, 23.6 14.74 M-3.56 1.36 C1.35 3.67, 23.27 7.84, 28.72 10.19" stroke="#e03131" stroke-width="2" fill="none"></path></g></g><mask></mask><g stroke-linecap="round"><g transform="translate(505.8887254170031 302.9967742830628) rotate(0 0.4024612891309971 29.572534482250575)"><path d="M-2.36 0.86 C-2.67 9.98, -2.37 47.6, -1.92 57.2 M1.55 -1.14 C2.1 9.58, 3.72 49.81, 3.19 60.29" stroke="#e03131" stroke-width="2" fill="none"></path></g></g><mask></mask><g stroke-linecap="round"><g transform="translate(491.5634110413116 354.92603889494455) rotate(0 5.895686076920697 4.050226345397391)"><path d="M-2.37 -1 C0.38 0.25, 11.63 6.65, 14.16 8.33 M1.54 -4.01 C4.12 -2.33, 10.39 10.75, 11.84 12.11" stroke="#e03131" stroke-width="2" fill="none"></path></g></g><mask></mask><g stroke-linecap="round"><g transform="translate(506.33639149124383 303.44444035730317) rotate(0 5.811630631538151 -5.823409189459625)"><path d="M-0.16 0.27 C1.85 -0.81, 7.61 -6.19, 9.72 -7.47 M-3.7 -2.05 C-0.53 -3.9, 12.81 -10.21, 15.32 -11.92" stroke="#e03131" stroke-width="2" fill="none"></path></g></g><mask></mask><g stroke-linecap="round"><g transform="translate(517.9757094214929 295.3864510209768) rotate(0 0.7227379390969872 29.890836560168538)"><path d="M-1.47 1.04 C-1.24 11.1, 0.97 50.87, 1.27 60.65 M2.92 -0.87 C2.92 8.31, 0.42 45.62, -0.27 56.24" stroke="#e03131" stroke-width="2" fill="none"></path></g></g><mask></mask><g stroke-linecap="round"><g transform="translate(505.44105934276286 362.0886960827903) rotate(0 5.712531159118498 -3.168222588608984)"><path d="M1.27 1.11 C3.67 -0.3, 11.46 -6.41, 12.9 -7.45 M-1.48 -0.75 C0.71 -1.76, 8.06 -2.31, 10.87 -3.73" stroke="#e03131" stroke-width="2" fill="none"></path></g></g><mask></mask><g stroke-linecap="round"><g transform="translate(479.9240931110621 271.66014908623765) rotate(0 18.783511171317627 12.233111197128522)"><path d="M0.37 0.16 C6.07 4.42, 28.73 22.29, 35.45 26.68 M-2.87 -2.22 C3.54 1.21, 33.25 18.95, 40.44 23.04" stroke="#e03131" stroke-width="2" fill="none"></path></g></g><mask></mask><g stroke-linecap="round"><g transform="translate(440.97714465215086 295.3864510209768) rotate(0 6.278106554382191 5.687014759379423)"><path d="M-2.6 2.51 C-0.14 4.15, 12.97 9.15, 15.16 9.97 M1.18 1.41 C3.48 2.28, 11.83 4.74, 14.34 6.24" stroke="#e03131" stroke-width="2" fill="none"></path></g></g><mask></mask><g stroke-linecap="round"><g transform="translate(440.08181250367033 294.49111887249603) rotate(0 22.30954592167234 -10.117018800456151)"><path d="M2.62 2.36 C9.51 -1.83, 32.69 -18.93, 38.71 -22.59 M0.6 1.17 C8.61 -1.34, 36.69 -14.95, 44.02 -19.08" stroke="#e03131" stroke-width="2" fill="none"></path></g></g><mask></mask><g stroke-linecap="round"><g transform="translate(464.70344658688964 309.2640993224279) rotate(0 1.021288692796361 8.060350846983255)"><path d="M-2.02 -0.21 C-2.64 2.55, -1.86 16.45, -1.06 18.91 M2.07 -2.79 C2.11 0.49, 4.3 12.14, 4.29 15.42" stroke="#e03131" stroke-width="2" fill="none"></path></g></g><mask></mask><g stroke-linecap="round"><g transform="translate(466.49411088385114 324.48474584660005) rotate(0 5.780866164593874 5.1380441655051925)"><path d="M-1.95 2.8 C0.64 3.77, 11.6 4.93, 13.51 5.63 M2.18 1.84 C4.75 3.18, 10.11 7.07, 12.29 8.43" stroke="#e03131" stroke-width="2" fill="none"></path></g></g><mask></mask><g stroke-linecap="round"><g transform="translate(478.1334288141006 316.42675651027366) rotate(0 0.5619127805946391 8.087115214396476)"><path d="M1.87 -1.53 C1.85 0.36, -1.75 11.48, -2.08 14.16 M-0.55 3.81 C0.48 7.36, 3.43 15.37, 3.19 17.7" stroke="#e03131" stroke-width="2" fill="none"></path></g></g><mask></mask><g stroke-linecap="round"><g transform="translate(465.1511126611299 308.36876717394716) rotate(0 5.384291597937761 4.683892431594302)"><path d="M-2.08 -0.16 C-0.25 1.48, 10.14 7.31, 12.85 8.32 M1.98 -2.72 C3.26 -0.43, 8.7 10.33, 10.54 12.09" stroke="#e03131" stroke-width="2" fill="none"></path></g></g><mask></mask><g stroke-linecap="round"><g transform="translate(479.4764270368214 301.6537760603418) rotate(0 -6.965318640197154 2.9211970754815297)"><path d="M-0.13 0.26 C-1.82 1.19, -9.97 4.18, -12.22 5.45 M-3.65 -2.07 C-5.41 -0.83, -11.82 5.71, -13.8 7.91" stroke="#e03131" stroke-width="2" fill="none"></path></g></g><mask></mask><g stroke-linecap="round"><g transform="translate(491.11574496707135 309.7117653966683) rotate(0 -7.12939680717659 -2.252376275333546)"><path d="M1.21 -2.16 C-0.96 -3.42, -10.35 -6.23, -13.14 -7.35 M-1.57 2.84 C-4.12 2.06, -14.04 -2.03, -15.47 -3.58" stroke="#e03131" stroke-width="2" fill="none"></path></g></g><mask></mask><g stroke-linecap="round"><g transform="translate(478.1334288141006 317.76975473299467) rotate(0 5.624570344247559 -4.068994229642755)"><path d="M-0.16 0.26 C1.29 -0.78, 7.57 -7.33, 9.95 -8.4 M-3.69 -2.06 C-1.52 -2.54, 12.14 -3.92, 14.94 -5.44" stroke="#e03131" stroke-width="2" fill="none"></path></g></g><mask></mask><g stroke-linecap="round"><g transform="translate(489.7727467443501 325.82774406932117) rotate(0 -0.2840687979488621 -7.005749928423285)"><path d="M-2.59 -1.24 C-2.22 -3.58, 1.96 -11.43, 2.02 -13.79 M1.2 4.26 C1.35 1.03, 0.31 -15.45, 0.63 -18.27" stroke="#e03131" stroke-width="2" fill="none"></path></g></g><mask></mask><g stroke-linecap="round"><g transform="translate(477.68576273986037 330.75207088596517) rotate(0 6.659859345014979 -3.4209168132227887)"><path d="M1.57 0.98 C3.57 -0.12, 7.72 -6.18, 9.4 -7.82 M-1.02 -0.96 C2.04 -1.52, 12.57 -3.6, 14.34 -4.55" stroke="#e03131" stroke-width="2" fill="none"></path></g></g><mask></mask><g stroke-linecap="round"><g transform="translate(419.0806820287928 247) rotate(0 0.3169266823679209 64.33953232020139)"><path d="M-2.53 2.35 C-1.71 22.77, 2.35 104.41, 3.16 124.99 M1.29 1.15 C2 23.1, 1.65 106.33, 1.56 127.53" stroke="#1e1e1e" stroke-width="2" fill="none"></path></g></g><mask></mask><g stroke-linecap="round"><g transform="translate(535.7637553464249 249.66046767979867) rotate(0 1.2674451199206942 63.79840317387135)"><path d="M-1.05 0.31 C-0.55 22.34, 3.3 108.59, 3.47 129.59 M3.57 -2 C3.79 19.55, 1.67 104.15, 2.04 125.99" stroke="#1e1e1e" stroke-width="2" fill="none"></path></g></g><mask></mask><g stroke-linecap="round" transform="translate(417.0806820287928 238) rotate(0 61 15)"><path d="M94.83 3.99 C103.9 4.86, 113.15 6.07, 117.33 8.65 C121.51 11.23, 121.5 16.79, 119.9 19.49 C118.31 22.18, 115.11 23.39, 107.77 24.82 C100.42 26.26, 86.69 27.54, 75.83 28.12 C64.98 28.7, 53.14 28.7, 42.64 28.31 C32.14 27.92, 19.75 27.5, 12.83 25.78 C5.92 24.05, 2.13 20.86, 1.15 17.96 C0.17 15.05, 2.43 11.12, 6.97 8.36 C11.51 5.6, 18.85 2.94, 28.4 1.39 C37.95 -0.16, 49.05 -2.66, 64.28 -0.95 C79.51 0.76, 111.11 8.3, 119.77 11.65 C128.43 15.01, 117.64 19.16, 116.24 19.17 M54.36 0.18 C65.39 -0.78, 82.69 -1.5, 92.79 0.2 C102.9 1.9, 109.99 7.29, 114.97 10.39 C119.96 13.49, 123.76 16.74, 122.73 18.78 C121.69 20.82, 115.25 21.02, 108.75 22.63 C102.24 24.24, 93.43 27.07, 83.7 28.44 C73.96 29.81, 61.77 31.53, 50.35 30.86 C38.94 30.19, 23.21 26.61, 15.19 24.42 C7.17 22.22, 4.03 20.41, 2.24 17.68 C0.45 14.96, 0.93 10.81, 4.43 8.06 C7.93 5.31, 14.1 2.99, 23.23 1.17 C32.37 -0.64, 53.77 -3.09, 59.24 -2.82 C64.71 -2.55, 56.27 2.12, 56.06 2.79" stroke="#1e1e1e" stroke-width="2" fill="none"></path></g><g stroke-linecap="round"><g transform="translate(421.0806820287928 377) rotate(0 58.61857074461881 8.49242735599239)"><path d="M-2.1 1.59 C7.58 3.62, 37.07 14.96, 57.31 14.54 C77.55 14.12, 109.19 1.58, 119.34 -0.94 M1.95 -0.01 C12.52 3.68, 42.77 17.64, 62.25 17.92 C81.72 18.2, 109.27 4.36, 118.8 1.66" stroke="#1e1e1e" stroke-width="2" fill="none"></path></g></g><mask></mask></svg>