<svg width="540" height="368" viewBox="0 0 540 368" fill="none" xmlns="http://www.w3.org/2000/svg">
<path d="M271 278L271 74" stroke="#B4BACC"/>
<path d="M271 159V161.744C271 169.476 277.268 175.744 285 175.744H393C400.732 175.744 407 182.012 407 189.744V291" stroke="#B4BACC"/>
<path d="M271 159V161.744C271 169.476 277.268 175.744 285 175.744H461C468.732 175.744 475 182.012 475 189.744V291" stroke="#B4BACC"/>
<path d="M271 159V161.744C271 169.476 277.268 175.744 285 175.744H325C332.732 175.744 339 182.012 339 189.744V291" stroke="#B4BACC"/>
<path d="M271 159V161.744C271 169.476 264.732 175.744 257 175.744H216C208.268 175.744 202 182.012 202 189.744V291" stroke="#B4BACC"/>
<path d="M271 159V161.744C271 169.476 264.732 175.744 257 175.744H148C140.268 175.744 134 182.012 134 189.744V291" stroke="#B4BACC"/>
<path d="M271 159V161.744C271 169.476 264.732 175.744 257 175.744H80C72.268 175.744 66 182.012 66 189.744V291" stroke="#B4BACC"/>
<rect x="42.5" y="264.5" width="47" height="47" rx="3.5" fill="#F0F3FA"/>
<rect x="42.5" y="264.5" width="47" height="47" rx="3.5" stroke="#D4D9E6"/>
<path d="M66.0027 301.201V296.082C71.4211 296.082 75.6272 290.708 73.5466 285.005C72.7832 282.91 71.0918 281.218 68.9813 280.455C63.2785 278.389 57.9049 282.58 57.9049 287.999H52.8008C52.8008 279.362 61.153 272.627 70.2087 275.456C74.1603 276.698 77.3186 279.841 78.5459 283.793C81.3749 292.849 74.6393 301.201 66.0027 301.201Z" fill="#0080FF"/>
<path fill-rule="evenodd" clip-rule="evenodd" d="M66.0182 296.112H60.9141V291.008H66.0182V296.112Z" fill="#0080FF"/>
<path fill-rule="evenodd" clip-rule="evenodd" d="M60.9145 300.018H57.0078V296.111H60.9145V300.018Z" fill="#0080FF"/>
<path fill-rule="evenodd" clip-rule="evenodd" d="M57.0046 296.11H53.7266V292.832H57.0046V296.11Z" fill="#0080FF"/>
<rect x="110.5" y="264.5" width="47" height="47" rx="3.5" fill="#F0F3FA"/>
<rect x="110.5" y="264.5" width="47" height="47" rx="3.5" stroke="#D4D9E6"/>
<g clip-path="url(#clip0_7517_33495)">
<path d="M146.014 286.348L142.026 284.143L138.66 286.197L138.618 288.297L136.982 287.22L134.757 288.576L134.661 286.28L132.366 284.747L134.556 283.615C134.538 283.615 134.556 283.834 134.232 276.094L129.052 273.6L122 275.79L123.575 283.374L125.942 285.207L124.142 286.061L125.318 291.778L126.971 293.33L125.789 294.051L126.706 298.471L130.417 302.4C130.434 302.378 130.806 302.091 135.189 298.606L135.062 295.604L136.941 297.198C136.967 297.172 137.344 296.894 140.787 294.156L140.92 291.935L142.339 292.921C142.368 292.895 142.685 292.654 145.462 290.439L146.014 286.348Z" fill="#D4D9E6"/>
<path d="M142.705 288.711L146.014 286.348L142.026 284.143L138.66 286.197L142.705 288.711Z" fill="black"/>
<path d="M142.341 292.917L142.706 288.712L138.661 286.197L138.578 290.304L142.341 292.917Z" fill="#004B16"/>
<path d="M136.942 297.193V292.837L132.855 289.738L133.177 294.018L136.942 297.193Z" fill="#004B16"/>
<path d="M136.942 292.838L141.046 289.897L136.984 287.221L132.855 289.739L136.942 292.838Z" fill="black"/>
<path d="M130.417 302.396L129.764 297.945L125.789 294.047L126.707 298.467L130.417 302.396Z" fill="#004B16"/>
<path d="M129.764 297.946L135.001 294.209L130.942 290.904L125.789 294.047L129.764 297.946Z" fill="black"/>
<path d="M129.428 295.633L128.565 289.746L124.137 286.064L125.322 291.774L129.428 295.633Z" fill="#004B16"/>
<path d="M128.565 289.746L134.664 286.282L130.109 283.229L124.137 286.065L128.565 289.746Z" fill="black"/>
<path d="M128.148 286.934L126.965 278.872L122 275.793L123.575 283.375L128.148 286.934Z" fill="#004B16"/>
<path d="M126.965 278.871L134.223 276.09L129.052 273.6L122 275.792L126.965 278.871Z" fill="black"/>
<path d="M145.464 290.436C142.394 292.874 142.326 292.917 142.341 292.917C142.722 288.515 142.689 288.712 142.707 288.712C146.211 286.205 145.992 286.349 146.016 286.349L145.464 290.436Z" fill="#1CB35C"/>
<path d="M140.788 294.152C136.988 297.175 136.927 297.194 136.942 297.194C136.905 292.634 136.927 292.838 136.942 292.838C141.323 289.706 141.031 289.897 141.047 289.897L140.788 294.152Z" fill="#1CB35C"/>
<path d="M135.191 298.603C130.447 302.375 130.403 302.396 130.419 302.396C129.746 297.81 129.762 297.946 129.762 297.946C135.34 293.969 134.987 294.21 135.003 294.21L135.191 298.603Z" fill="#1CB35C"/>
<path d="M134.222 276.09C134.555 283.836 134.529 283.611 134.546 283.611C128.27 286.872 128.132 286.933 128.147 286.933C126.938 278.692 126.949 278.871 126.964 278.871L134.222 276.09Z" fill="#1CB35C"/>
<path d="M134.664 286.281C134.916 292.153 134.883 291.949 134.907 291.949C129.474 295.6 129.412 295.633 129.432 295.633C128.556 289.593 128.556 289.746 128.569 289.746L134.664 286.281Z" fill="#1CB35C"/>
</g>
<rect x="178.5" y="264.5" width="47" height="47" rx="3.5" fill="#F0F3FA"/>
<rect x="178.5" y="264.5" width="47" height="47" rx="3.5" stroke="#D4D9E6"/>
<g clip-path="url(#clip1_7517_33495)">
<path fill-rule="evenodd" clip-rule="evenodd" d="M193.614 296.118C185.027 292.852 185.817 280.666 194.801 278.644C195.536 278.479 196.579 278.398 197.93 278.4C200.514 278.407 203.098 278.407 205.683 278.402C207.345 278.399 208.563 278.486 209.335 278.664C218.689 280.817 218.764 294.111 209.486 296.419C208.786 296.593 207.774 296.681 206.45 296.683C203.085 296.687 199.72 296.687 196.354 296.683C195.518 296.683 194.605 296.495 193.614 296.118ZM191.139 288.048C191.392 290.875 193.874 293.427 196.778 293.432C199.947 293.437 203.115 293.437 206.284 293.43C207.451 293.428 208.32 293.337 208.89 293.157C214.397 291.423 214.288 283.6 208.751 281.942C208.209 281.78 207.473 281.699 206.54 281.7C203.593 281.703 200.645 281.704 197.698 281.704C196.608 281.704 195.785 281.79 195.227 281.962C192.656 282.761 190.904 285.407 191.139 288.048Z" fill="#E7202C"/>
</g>
<rect x="246.5" y="264.5" width="47" height="47" rx="3.5" fill="#F0F3FA"/>
<rect x="246.5" y="264.5" width="47" height="47" rx="3.5" stroke="#D4D9E6"/>
<path d="M269.737 294.626H274.087C274.55 294.571 274.978 294.353 275.295 294.012C275.612 293.671 275.799 293.229 275.821 292.763V286.487C275.821 286.087 275.663 285.704 275.38 285.421C275.097 285.138 274.713 284.979 274.313 284.979C273.913 284.979 273.529 285.138 273.246 285.421C272.963 285.704 272.804 286.087 272.804 286.487V290.475C272.804 290.776 272.685 291.064 272.472 291.276C272.26 291.489 271.972 291.608 271.672 291.608H269.7C269.5 291.608 269.302 291.648 269.118 291.725C268.934 291.802 268.767 291.915 268.626 292.057C268.486 292.2 268.376 292.368 268.301 292.554C268.227 292.739 268.19 292.937 268.192 293.137C268.203 293.538 268.372 293.919 268.66 294.197C268.949 294.476 269.336 294.63 269.737 294.626ZM271.699 280.299H267.347C266.885 280.355 266.457 280.572 266.14 280.913C265.822 281.254 265.636 281.697 265.613 282.162V288.437C265.613 288.837 265.772 289.221 266.055 289.503C266.338 289.786 266.722 289.945 267.122 289.945C267.522 289.945 267.906 289.786 268.189 289.503C268.472 289.221 268.631 288.837 268.631 288.437V284.45C268.631 284.15 268.75 283.861 268.962 283.649C269.175 283.437 269.463 283.317 269.763 283.317H271.734C271.934 283.317 272.131 283.277 272.316 283.2C272.5 283.123 272.667 283.01 272.807 282.868C272.947 282.726 273.058 282.557 273.133 282.372C273.207 282.186 273.244 281.988 273.241 281.788C273.23 281.387 273.063 281.007 272.774 280.728C272.486 280.45 272.1 280.296 271.699 280.299Z" fill="#5700C9"/>
<path d="M271.927 277.818C273.627 277.82 275.257 278.496 276.459 279.698C277.661 280.899 278.337 282.529 278.339 284.229V296.558C278.268 296.974 278.064 297.357 277.76 297.649C277.455 297.941 277.065 298.128 276.646 298.182H268.447C266.746 298.182 265.114 297.507 263.912 296.304C262.709 295.101 262.033 293.47 262.033 291.768V279.801C262.033 279.275 262.242 278.771 262.614 278.399C262.986 278.027 263.49 277.818 264.016 277.818H271.927ZM271.927 274.801H264.016C262.69 274.801 261.418 275.328 260.48 276.265C259.542 277.203 259.016 278.475 259.016 279.801V291.77C259.016 294.271 260.009 296.67 261.778 298.438C263.547 300.207 265.946 301.201 268.447 301.201H276.798C277.956 301.106 279.046 300.61 279.878 299.799C280.711 298.987 281.235 297.911 281.36 296.755V284.229C281.36 282.99 281.116 281.764 280.642 280.62C280.168 279.476 279.473 278.436 278.597 277.561C277.721 276.685 276.681 275.991 275.537 275.517C274.392 275.044 273.166 274.8 271.927 274.801Z" fill="#5700C9"/>
<rect x="314.5" y="264.5" width="47" height="47" rx="3.5" fill="#F0F3FA"/>
<rect x="314.5" y="264.5" width="47" height="47" rx="3.5" stroke="#D4D9E6"/>
<g clip-path="url(#clip2_7517_33495)">
<path d="M342.812 289.319C344.712 289.319 347.45 288.921 347.45 286.669C347.45 286.492 347.45 286.315 347.406 286.161L346.28 281.257C346.015 280.175 345.794 279.689 343.895 278.74C342.415 277.989 339.234 276.752 338.285 276.752C337.401 276.752 337.136 277.9 336.098 277.9C335.082 277.9 334.331 277.061 333.382 277.061C332.476 277.061 331.88 277.68 331.416 278.961C331.416 278.961 330.135 282.538 329.98 283.069C329.958 283.157 329.936 283.267 329.936 283.356C329.958 284.747 335.436 289.319 342.812 289.319ZM347.738 287.596C348.003 288.833 348.003 288.965 348.003 289.12C348.003 291.24 345.617 292.411 342.481 292.411C335.392 292.411 329.207 288.259 329.207 285.52C329.207 285.145 329.296 284.769 329.428 284.416C326.888 284.548 323.598 285.012 323.598 287.905C323.598 292.676 334.884 298.529 343.828 298.529C350.675 298.529 352.398 295.437 352.398 292.985C352.398 291.086 350.719 288.899 347.738 287.596Z" fill="#E41814"/>
<path d="M347.737 287.596C348.002 288.833 348.002 288.965 348.002 289.12C348.002 291.24 345.617 292.411 342.481 292.411C335.391 292.411 329.207 288.281 329.207 285.542C329.207 285.167 329.295 284.791 329.428 284.438L329.98 283.068C329.958 283.157 329.936 283.267 329.936 283.355C329.936 284.747 335.435 289.319 342.79 289.319C344.689 289.319 347.428 288.921 347.428 286.668C347.428 286.492 347.428 286.315 347.384 286.16L347.737 287.596Z" fill="#010202"/>
</g>
<rect x="382.5" y="264.5" width="47" height="47" rx="3.5" fill="#F0F3FA"/>
<rect x="382.5" y="264.5" width="47" height="47" rx="3.5" stroke="#D4D9E6"/>
<g clip-path="url(#clip3_7517_33495)">
<path fill-rule="evenodd" clip-rule="evenodd" d="M418.608 280.593C420.032 283.159 420.661 286.091 420.415 289.016C420.169 291.941 419.059 294.727 417.227 297.02H409.311L411.747 292.711H408.524L412.323 286.017H415.565L418.608 280.6V280.593ZM402.975 297.02H394.903C393.036 294.737 391.904 291.943 391.654 289.005C391.404 286.066 392.049 283.121 393.504 280.556L398.739 289.65L404.511 279.6H413.003L402.978 297.013L402.975 297.02Z" fill="#000E9C"/>
</g>
<rect x="450.5" y="264.5" width="47" height="47" rx="3.5" fill="#F0F3FA"/>
<rect x="450.5" y="264.5" width="47" height="47" rx="3.5" stroke="#D4D9E6"/>
<path d="M469.644 299.061H478.354C478.545 299.061 478.672 298.997 478.863 298.934C478.99 298.87 479.117 298.743 479.244 298.616L484.775 291.686C484.902 291.559 484.966 291.368 484.966 291.241C485.03 291.05 485.03 290.923 484.966 290.732L482.868 282.277C482.804 282.149 482.741 281.959 482.677 281.832C482.55 281.704 482.423 281.577 482.296 281.514L474.539 277.572C474.222 277.445 473.84 277.445 473.522 277.572L465.639 281.514C465.512 281.577 465.384 281.704 465.257 281.832C465.13 281.959 465.067 282.086 465.067 282.277L463.032 290.732C462.968 290.923 462.968 291.05 463.032 291.241C463.096 291.432 463.159 291.559 463.223 291.686L468.818 298.616C468.945 298.743 469.072 298.87 469.199 298.934C469.326 298.997 469.453 299.061 469.644 299.061ZM478.354 297.853H469.644L464.113 290.987L466.084 282.531L473.967 278.653L481.724 282.531L483.822 290.987L478.354 297.853Z" fill="#238FCF"/>
<path d="M463.986 279.923L462.969 279.097L473.395 273.947V275.219L463.986 279.923Z" fill="#1BBFD3"/>
<path d="M486.873 292.066L488.144 292.321L480.896 301.476L480.324 300.331L486.873 292.066Z" fill="#79BF43"/>
<path d="M474.602 275.283V274.012L484.901 279.161L483.947 279.988L474.602 275.283Z" fill="#1BBFD3"/>
<path d="M484.586 280.877L485.603 280.051L488.401 291.24L487.129 290.986L484.586 280.877Z" fill="#1D4489"/>
<path d="M460.869 290.922L459.598 291.177L462.268 280.051L463.285 280.877L460.869 290.922Z" fill="#1D4489"/>
<path d="M461.123 292.066L467.799 300.331L467.226 301.476L459.852 292.384L461.123 292.066Z" fill="#79BF43"/>
<path d="M479.245 300.84L479.817 302.048H468.246L468.818 300.84H479.245Z" fill="#1BBFD3"/>
<rect x="42.5" y="200.5" width="47" height="47" rx="3.5" fill="#F0F3FA"/>
<rect x="42.5" y="200.5" width="47" height="47" rx="3.5" stroke="#D4D9E6"/>
<path d="M60.2389 223.157C60.2389 223.482 60.274 223.746 60.3355 223.939C60.4057 224.132 60.4935 224.343 60.6165 224.571C60.6604 224.641 60.6779 224.712 60.6779 224.773C60.6779 224.861 60.6252 224.949 60.5111 225.036L59.9579 225.405C59.8789 225.458 59.7999 225.484 59.7296 225.484C59.6418 225.484 59.554 225.44 59.4662 225.361C59.3433 225.23 59.2379 225.089 59.1501 224.949C59.0623 224.799 58.9745 224.633 58.8779 224.431C58.193 225.238 57.3326 225.642 56.2965 225.642C55.5589 225.642 54.9706 225.432 54.5404 225.01C54.1101 224.589 53.8906 224.027 53.8906 223.324C53.8906 222.578 54.154 221.972 54.6896 221.516C55.2253 221.059 55.9365 220.831 56.8409 220.831C57.1394 220.831 57.4467 220.857 57.7716 220.901C58.0965 220.945 58.4301 221.015 58.7813 221.094V220.453C58.7813 219.786 58.6408 219.32 58.3687 219.048C58.0877 218.776 57.6135 218.644 56.9374 218.644C56.6301 218.644 56.314 218.679 55.9892 218.758C55.6643 218.837 55.3482 218.934 55.0409 219.057C54.9004 219.118 54.795 219.154 54.7335 219.171C54.6721 219.189 54.6282 219.197 54.5931 219.197C54.4701 219.197 54.4087 219.11 54.4087 218.925V218.495C54.4087 218.355 54.4262 218.249 54.4701 218.188C54.514 218.126 54.5931 218.065 54.716 218.003C55.0233 217.845 55.3921 217.714 55.8223 217.608C56.2526 217.494 56.7091 217.441 57.1921 217.441C58.2369 217.441 59.0008 217.678 59.4926 218.153C59.9755 218.627 60.2213 219.347 60.2213 220.313V223.157H60.2389ZM56.674 224.492C56.9638 224.492 57.2623 224.439 57.5784 224.334C57.8945 224.229 58.1755 224.036 58.4126 223.772C58.553 223.605 58.6584 223.421 58.7111 223.21C58.7638 222.999 58.7989 222.745 58.7989 222.446V222.077C58.5443 222.016 58.2721 221.963 57.9911 221.928C57.7101 221.893 57.4379 221.876 57.1657 221.876C56.5774 221.876 56.1472 221.99 55.8574 222.227C55.5677 222.464 55.4272 222.797 55.4272 223.236C55.4272 223.649 55.5326 223.956 55.7521 224.167C55.9628 224.387 56.2701 224.492 56.674 224.492ZM63.7247 225.44C63.5667 225.44 63.4613 225.414 63.3911 225.353C63.3208 225.3 63.2594 225.177 63.2067 225.01L61.1433 218.223C61.0906 218.047 61.0643 217.933 61.0643 217.872C61.0643 217.731 61.1345 217.652 61.275 217.652H62.1355C62.3023 217.652 62.4164 217.678 62.4779 217.74C62.5482 217.793 62.6008 217.916 62.6535 218.082L64.1286 223.895L65.4984 218.082C65.5423 217.907 65.595 217.793 65.6652 217.74C65.7355 217.687 65.8584 217.652 66.0164 217.652H66.7189C66.8857 217.652 66.9998 217.678 67.0701 217.74C67.1403 217.793 67.2018 217.916 67.2369 218.082L68.6242 223.965L70.1432 218.082C70.1959 217.907 70.2574 217.793 70.3188 217.74C70.3891 217.687 70.5032 217.652 70.6613 217.652H71.4779C71.6184 217.652 71.6974 217.722 71.6974 217.872C71.6974 217.916 71.6886 217.959 71.6798 218.012C71.671 218.065 71.6535 218.135 71.6184 218.232L69.5023 225.019C69.4496 225.195 69.3881 225.309 69.3179 225.361C69.2476 225.414 69.1335 225.449 68.9842 225.449H68.2291C68.0623 225.449 67.9481 225.423 67.8779 225.361C67.8076 225.3 67.7462 225.186 67.7111 225.01L66.3501 219.347L64.9979 225.001C64.954 225.177 64.9013 225.291 64.8311 225.353C64.7608 225.414 64.6379 225.44 64.4798 225.44H63.7247ZM75.0076 225.677C74.551 225.677 74.0944 225.625 73.6554 225.519C73.2164 225.414 72.874 225.3 72.6457 225.168C72.5052 225.089 72.4086 225.001 72.3735 224.922C72.3384 224.843 72.3208 224.756 72.3208 224.676V224.229C72.3208 224.044 72.391 223.956 72.5227 223.956C72.5754 223.956 72.6281 223.965 72.6808 223.983C72.7335 224 72.8125 224.036 72.9003 224.071C73.1988 224.202 73.5237 224.308 73.8662 224.378C74.2174 224.448 74.5598 224.483 74.911 224.483C75.4642 224.483 75.8944 224.387 76.193 224.194C76.4915 224 76.6496 223.719 76.6496 223.359C76.6496 223.114 76.5705 222.912 76.4125 222.745C76.2544 222.578 75.9559 222.429 75.5257 222.288L74.2525 221.893C73.6115 221.691 73.1374 221.393 72.8476 220.997C72.5579 220.611 72.4086 220.181 72.4086 219.724C72.4086 219.356 72.4876 219.031 72.6457 218.75C72.8037 218.469 73.0144 218.223 73.2779 218.03C73.5413 217.828 73.8398 217.678 74.191 217.573C74.5422 217.468 74.911 217.424 75.2974 217.424C75.4905 217.424 75.6925 217.433 75.8857 217.459C76.0876 217.485 76.272 217.52 76.4564 217.556C76.632 217.599 76.7988 217.643 76.9569 217.696C77.1149 217.749 77.2378 217.801 77.3256 217.854C77.4486 217.924 77.5364 217.995 77.5891 218.074C77.6417 218.144 77.6681 218.24 77.6681 218.363V218.776C77.6681 218.96 77.5978 219.057 77.4661 219.057C77.3959 219.057 77.2817 219.022 77.1325 218.952C76.632 218.723 76.07 218.609 75.4466 218.609C74.9461 218.609 74.551 218.688 74.2788 218.855C74.0066 219.022 73.8662 219.277 73.8662 219.637C73.8662 219.882 73.954 220.093 74.1296 220.26C74.3052 220.427 74.6301 220.594 75.0954 220.743L76.3422 221.138C76.9744 221.34 77.431 221.621 77.7032 221.981C77.9754 222.341 78.1071 222.754 78.1071 223.21C78.1071 223.588 78.0281 223.93 77.8788 224.229C77.7208 224.527 77.51 224.791 77.2378 225.001C76.9657 225.221 76.6408 225.379 76.2632 225.493C75.8681 225.616 75.4554 225.677 75.0076 225.677Z" fill="#161E33"/>
<path fill-rule="evenodd" clip-rule="evenodd" d="M76.6689 229.943C73.7801 232.077 69.583 233.21 65.9743 233.21C60.9167 233.21 56.3597 231.339 52.9177 228.231C52.6455 227.985 52.8914 227.652 53.2163 227.845C56.9392 230.005 61.5314 231.313 66.2816 231.313C69.4864 231.313 73.0074 230.646 76.2474 229.276C76.7303 229.057 77.143 229.592 76.6689 229.943Z" fill="#FF9900"/>
<path fill-rule="evenodd" clip-rule="evenodd" d="M77.8726 228.575C77.5038 228.1 75.4317 228.346 74.4922 228.46C74.2112 228.496 74.1673 228.25 74.4219 228.065C76.0726 226.906 78.7858 227.24 79.1019 227.626C79.418 228.021 79.0141 230.735 77.4687 232.034C77.2317 232.236 77.0034 232.131 77.1087 231.867C77.4599 230.998 78.2414 229.04 77.8726 228.575Z" fill="#FF9900"/>
<rect x="110.5" y="200.5" width="47" height="47" rx="3.5" fill="#F0F3FA"/>
<rect x="110.5" y="200.5" width="47" height="47" rx="3.5" stroke="#D4D9E6"/>
<path d="M130.001 213.129H137.103L129.73 234.973C129.655 235.197 129.51 235.392 129.318 235.53C129.125 235.669 128.895 235.743 128.658 235.743H123.131C122.951 235.743 122.774 235.7 122.615 235.618C122.455 235.536 122.317 235.418 122.212 235.272C122.108 235.126 122.039 234.957 122.012 234.78C121.986 234.602 122.002 234.421 122.059 234.251L128.928 213.899C129.004 213.675 129.148 213.48 129.34 213.342C129.533 213.203 129.764 213.129 130.001 213.129Z" fill="url(#paint0_linear_7517_33495)"/>
<path d="M140.319 227.781H129.057C128.952 227.781 128.85 227.813 128.763 227.871C128.677 227.93 128.61 228.014 128.572 228.111C128.533 228.209 128.525 228.315 128.548 228.417C128.571 228.52 128.624 228.612 128.701 228.684L135.938 235.438C136.148 235.635 136.426 235.744 136.714 235.744H143.091L140.319 227.781Z" fill="#0078D4"/>
<path d="M129.999 213.129C129.76 213.128 129.526 213.204 129.333 213.345C129.139 213.486 128.996 213.686 128.924 213.914L122.066 234.232C122.005 234.403 121.986 234.586 122.01 234.766C122.035 234.945 122.102 235.116 122.207 235.265C122.311 235.413 122.45 235.534 122.611 235.617C122.772 235.7 122.951 235.743 123.132 235.743H128.802C129.013 235.705 129.21 235.612 129.374 235.473C129.537 235.334 129.661 235.154 129.732 234.952L131.099 230.921L135.984 235.478C136.189 235.647 136.446 235.741 136.712 235.743H143.065L140.278 227.78L132.156 227.782L137.127 213.129H129.999Z" fill="url(#paint1_linear_7517_33495)"/>
<path d="M139.068 213.898C138.993 213.674 138.849 213.479 138.656 213.341C138.464 213.203 138.234 213.129 137.997 213.129H130.082C130.319 213.129 130.549 213.203 130.741 213.341C130.934 213.479 131.078 213.674 131.153 213.898L138.022 234.251C138.08 234.421 138.096 234.602 138.069 234.78C138.043 234.957 137.974 235.126 137.869 235.272C137.765 235.417 137.627 235.536 137.467 235.618C137.307 235.7 137.13 235.743 136.951 235.743H144.866C145.046 235.743 145.223 235.7 145.382 235.618C145.542 235.536 145.68 235.417 145.784 235.272C145.889 235.126 145.958 234.957 145.984 234.779C146.011 234.602 145.995 234.421 145.937 234.251L139.068 213.898Z" fill="url(#paint2_linear_7517_33495)"/>
<rect x="178.5" y="200.5" width="47" height="47" rx="3.5" fill="#F0F3FA"/>
<rect x="178.5" y="200.5" width="47" height="47" rx="3.5" stroke="#D4D9E6"/>
<path d="M205.552 218.815H206.357L208.652 216.52L208.765 215.546C207.45 214.386 205.861 213.58 204.149 213.204C202.436 212.829 200.656 212.896 198.976 213.4C197.297 213.903 195.773 214.827 194.55 216.083C193.326 217.339 192.443 218.886 191.984 220.579C192.24 220.474 192.523 220.457 192.79 220.53L197.379 219.773C197.379 219.773 197.613 219.387 197.734 219.411C198.717 218.331 200.076 217.668 201.532 217.557C202.989 217.446 204.433 217.896 205.568 218.815H205.552Z" fill="#EA4335"/>
<path d="M211.923 220.579C211.395 218.637 210.312 216.89 208.807 215.555L205.586 218.775C206.257 219.324 206.795 220.018 207.159 220.804C207.523 221.591 207.704 222.45 207.688 223.317V223.888C208.064 223.888 208.437 223.962 208.785 224.107C209.132 224.251 209.448 224.462 209.714 224.728C209.981 224.994 210.192 225.31 210.336 225.658C210.48 226.006 210.554 226.378 210.554 226.755C210.554 227.131 210.48 227.504 210.336 227.852C210.192 228.2 209.981 228.516 209.714 228.782C209.448 229.048 209.132 229.259 208.785 229.403C208.437 229.547 208.064 229.621 207.688 229.621H201.955L201.383 230.201V233.639L201.955 234.211H207.688C209.288 234.223 210.851 233.72 212.144 232.776C213.436 231.831 214.391 230.496 214.866 228.967C215.341 227.438 215.311 225.797 214.781 224.287C214.251 222.776 213.249 221.476 211.923 220.579Z" fill="#4285F4"/>
<path d="M196.212 234.179H201.945V229.59H196.212C195.804 229.59 195.4 229.502 195.028 229.332L194.223 229.582L191.912 231.876L191.711 232.682C193.007 233.66 194.588 234.186 196.212 234.179Z" fill="#34A853"/>
<path d="M196.212 219.291C194.659 219.3 193.147 219.795 191.888 220.705C190.63 221.615 189.686 222.895 189.191 224.367C188.695 225.84 188.671 227.43 189.123 228.916C189.575 230.402 190.48 231.71 191.711 232.657L195.037 229.332C194.614 229.141 194.244 228.85 193.959 228.485C193.673 228.119 193.48 227.69 193.397 227.234C193.314 226.778 193.342 226.308 193.481 225.866C193.619 225.423 193.862 225.02 194.19 224.693C194.518 224.365 194.921 224.121 195.363 223.983C195.806 223.845 196.276 223.816 196.732 223.9C197.188 223.983 197.617 224.176 197.982 224.461C198.348 224.747 198.638 225.117 198.829 225.539L202.155 222.214C201.457 221.301 200.557 220.563 199.526 220.056C198.495 219.549 197.361 219.287 196.212 219.291Z" fill="#FBBC05"/>
<rect x="246.5" y="200.5" width="47" height="47" rx="3.5" fill="#F0F3FA"/>
<rect x="246.5" y="200.5" width="47" height="47" rx="3.5" stroke="#D4D9E6"/>
<g clip-path="url(#clip4_7517_33495)">
<path d="M284.384 220.594L284.069 218.717C283.968 218.112 283.729 217.621 283.552 217.621C283.363 217.621 283.212 218.125 283.212 218.73V219.221C283.212 219.825 282.708 220.329 282.104 220.329H281.612C281.575 220.329 281.537 220.329 281.512 220.329V221.677C281.55 221.677 281.587 221.677 281.612 221.677H283.464C284.069 221.677 284.484 221.186 284.384 220.594Z" fill="#2453FF"/>
<path d="M279.961 219.007H276.976C276.95 219.007 276.925 219.007 276.9 219.007H273.826C273.789 219.007 273.751 219.007 273.726 219.019V218.73C273.726 218.125 273.575 217.621 273.386 217.621C273.197 217.621 272.97 218.112 272.869 218.717L272.554 220.594C272.453 221.198 272.869 221.69 273.486 221.69H275.325C275.514 221.69 275.691 221.665 275.854 221.614C275.792 221.929 275.527 222.168 275.187 222.168H272.605C272.189 222.168 271.874 221.791 271.937 221.375L272.202 219.8C272.265 219.385 271.95 219.007 271.534 219.007H258.66C258.383 219.007 258.156 219.17 258.043 219.41L255.625 223.101C255.587 223.164 255.587 223.239 255.637 223.302L256.103 223.856C256.166 223.932 256.267 223.932 256.343 223.882L257.993 222.584V230.469C257.993 230.847 258.295 231.15 258.673 231.15H262.326C262.704 231.15 263.006 230.847 263.006 230.469V227.723C263.006 227.346 263.308 227.043 263.686 227.043H272.806C273.184 227.043 273.486 227.346 273.486 227.723V230.469C273.486 230.847 273.789 231.15 274.167 231.15H277.82C278.197 231.15 278.5 230.847 278.5 230.469V227.522H276.56C275.955 227.522 275.451 227.018 275.451 226.413V224.511C275.451 224.146 275.628 223.831 275.892 223.63V225.897C275.892 226.502 276.396 227.005 277.001 227.005H279.986C280.591 227.005 281.095 226.502 281.095 225.897V220.128C281.069 219.498 280.578 219.007 279.961 219.007Z" fill="#2453FF"/>
</g>
<rect x="314.5" y="200.5" width="47" height="47" rx="3.5" fill="#F0F3FA"/>
<rect x="314.5" y="200.5" width="47" height="47" rx="3.5" stroke="#D4D9E6"/>
<g clip-path="url(#clip5_7517_33495)">
<path d="M333.63 212.686C333.502 212.478 333.324 212.305 333.112 212.185C332.899 212.065 332.66 212.002 332.416 212H325.038C324.656 212 324.289 212.152 324.019 212.422C323.749 212.692 323.598 213.058 323.598 213.44C323.598 213.711 323.674 213.978 323.817 214.208L325.717 216.999L335.214 214.942L333.63 212.686Z" fill="#C9F4FF"/>
<path d="M335.254 214.998C335.125 214.79 334.946 214.617 334.732 214.497C334.519 214.378 334.278 214.314 334.034 214.312H326.683C326.419 214.3 326.156 214.361 325.924 214.489C325.693 214.617 325.501 214.806 325.371 215.036C325.24 215.266 325.175 215.528 325.184 215.792C325.193 216.056 325.275 216.313 325.421 216.534L327.54 219.894L337.352 218.358L335.254 214.998Z" fill="#51B9FF"/>
<path d="M327.453 219.755C327.334 219.565 327.26 219.349 327.238 219.126C327.215 218.902 327.244 218.676 327.323 218.466C327.43 218.191 327.619 217.956 327.865 217.792C328.11 217.627 328.399 217.542 328.694 217.547H336.045C336.29 217.548 336.531 217.612 336.744 217.732C336.958 217.852 337.137 218.024 337.266 218.233L343.869 228.704C344.012 228.934 344.088 229.2 344.088 229.472C344.087 229.743 344.011 230.009 343.869 230.24L340.18 236.089C340.049 236.294 339.869 236.463 339.656 236.58C339.442 236.697 339.203 236.759 338.959 236.759C338.716 236.759 338.477 236.697 338.263 236.58C338.05 236.463 337.869 236.294 337.739 236.089L327.453 219.755Z" fill="#007BFC"/>
<path d="M346.047 223.102C346.178 223.307 346.358 223.476 346.572 223.593C346.785 223.71 347.025 223.772 347.268 223.772C347.511 223.772 347.751 223.71 347.964 223.593C348.177 223.476 348.358 223.307 348.489 223.102L349.757 221.093L352.178 217.253C352.321 217.022 352.397 216.756 352.397 216.485C352.396 216.213 352.32 215.948 352.178 215.717L350.258 212.686C350.129 212.477 349.949 212.305 349.736 212.185C349.522 212.065 349.282 212.002 349.037 212H341.659C341.47 212 341.282 212.037 341.108 212.11C340.933 212.182 340.774 212.288 340.641 212.422C340.507 212.555 340.401 212.714 340.328 212.889C340.256 213.064 340.219 213.251 340.219 213.44C340.216 213.713 340.295 213.98 340.445 214.208L346.047 223.102Z" fill="#007BFC"/>
</g>
<rect x="382.5" y="200.5" width="47" height="47" rx="3.5" fill="#F0F3FA"/>
<rect x="382.5" y="200.5" width="47" height="47" rx="3.5" stroke="#D4D9E6"/>
<g clip-path="url(#clip6_7517_33495)">
<path fill-rule="evenodd" clip-rule="evenodd" d="M396.42 225.294L399.001 213.199H420.402L419.209 218.788H404.261L402.872 225.294H396.42ZM407.792 228.822L409.188 222.277H415.641L413.052 234.41H391.602L392.794 228.822H407.792Z" fill="#025462"/>
</g>
<rect x="450.5" y="200.5" width="47" height="47" rx="3.5" fill="#F0F3FA"/>
<rect x="450.5" y="200.5" width="47" height="47" rx="3.5" stroke="#D4D9E6"/>
<g clip-path="url(#clip7_7517_33495)">
<path fill-rule="evenodd" clip-rule="evenodd" d="M466.956 226.176C466.848 225.94 466.538 225.875 466.348 226.053C465.844 226.523 465.168 226.811 464.423 226.811C462.471 226.811 460.982 224.84 461.853 222.788C462.111 222.181 462.6 221.696 463.209 221.44C464.401 220.939 465.56 221.225 466.328 221.927C466.521 222.103 466.829 222.041 466.937 221.804L467.453 220.678C467.536 220.497 467.479 220.286 467.32 220.166C466.111 219.257 464.461 218.9 462.742 219.483C461.362 219.952 460.285 221.059 459.847 222.444C458.799 225.755 461.254 228.799 464.423 228.799C465.526 228.799 466.54 228.428 467.351 227.806C467.505 227.689 467.553 227.479 467.473 227.304L466.956 226.176ZM470.676 219.203H469.484C469.265 219.203 469.121 219.371 469.121 219.582V228.414C469.121 228.625 469.265 228.795 469.484 228.795H470.676C470.895 228.795 471.064 228.625 471.064 228.414V219.582C471.064 219.371 470.895 219.203 470.676 219.203ZM485.262 219.484C486.642 219.952 487.718 221.06 488.156 222.444C489.204 225.755 486.749 228.799 483.58 228.799C482.477 228.799 481.463 228.428 480.652 227.806C480.498 227.689 480.45 227.479 480.531 227.304L481.047 226.177C481.155 225.941 481.465 225.876 481.655 226.053C482.159 226.523 482.835 226.811 483.58 226.811C485.154 226.811 486.426 225.531 486.404 223.959C486.391 223.581 486.312 223.198 486.156 222.825C485.91 222.229 485.446 221.743 484.856 221.477C484.008 221.095 483.132 221.133 482.391 221.447C481.411 221.861 481.037 222.465 480.42 223.913C480.396 223.969 478.368 228.564 478.368 228.564C478.322 228.668 478.233 228.743 478.127 228.778C478.098 228.788 478.067 228.795 478.036 228.795H476.504L476.438 228.789C476.288 228.789 476.151 228.697 476.089 228.561L472.037 219.743C471.921 219.489 472.108 219.201 472.388 219.202L473.752 219.204C473.903 219.204 474.039 219.292 474.102 219.428L477.225 226.263L479.066 222.289C479.983 220.329 481.026 219.649 482.467 219.329C483.33 219.125 484.285 219.152 485.262 219.484Z" fill="#229DFF"/>
</g>
<rect x="247.5" y="104.5" width="47" height="47" rx="3.5" fill="#F0F3FA"/>
<rect x="247.5" y="104.5" width="47" height="47" rx="3.5" stroke="#D4D9E6"/>
<g clip-path="url(#clip8_7517_33495)">
<path d="M270.905 114.418C270.657 114.431 270.414 114.492 270.191 114.599L260.456 119.251C260.204 119.371 259.982 119.546 259.808 119.763C259.634 119.98 259.511 120.233 259.449 120.503L257.047 130.952C256.991 131.193 256.985 131.442 257.029 131.685C257.072 131.928 257.164 132.16 257.3 132.367C257.332 132.418 257.368 132.467 257.405 132.514L264.144 140.893C264.318 141.109 264.54 141.284 264.792 141.405C265.044 141.525 265.32 141.587 265.599 141.587L276.405 141.585C276.685 141.585 276.961 141.523 277.213 141.403C277.465 141.283 277.686 141.108 277.861 140.891L284.597 132.512C284.771 132.295 284.894 132.042 284.956 131.771C285.019 131.501 285.019 131.22 284.956 130.949L282.551 120.501C282.489 120.23 282.366 119.977 282.191 119.76C282.017 119.543 281.796 119.368 281.544 119.248L271.807 114.599C271.526 114.465 271.216 114.403 270.905 114.418Z" fill="#326CE5"/>
<path d="M270.998 117.975C270.677 117.975 270.416 118.265 270.416 118.622C270.416 118.628 270.417 118.633 270.417 118.638C270.416 118.687 270.414 118.745 270.416 118.788C270.423 118.994 270.468 119.152 270.495 119.342C270.544 119.748 270.585 120.085 270.56 120.399C270.535 120.517 270.448 120.625 270.371 120.7L270.357 120.947C270.008 120.976 269.655 121.029 269.304 121.108C267.791 121.452 266.488 122.231 265.496 123.284C265.432 123.24 265.319 123.159 265.286 123.134C265.182 123.148 265.077 123.18 264.94 123.101C264.679 122.925 264.442 122.683 264.154 122.391C264.023 122.251 263.927 122.118 263.771 121.984C263.735 121.953 263.681 121.912 263.641 121.88C263.519 121.783 263.375 121.732 263.235 121.727C263.056 121.721 262.884 121.791 262.771 121.933C262.57 122.184 262.635 122.569 262.914 122.792C262.917 122.794 262.92 122.796 262.923 122.798C262.961 122.829 263.008 122.869 263.044 122.895C263.21 123.018 263.361 123.08 263.527 123.178C263.875 123.393 264.164 123.571 264.393 123.787C264.483 123.882 264.498 124.05 264.51 124.123L264.697 124.29C263.697 125.794 263.235 127.653 263.508 129.546L263.264 129.617C263.2 129.7 263.109 129.831 263.014 129.87C262.714 129.965 262.376 129.999 261.969 130.042C261.778 130.058 261.613 130.048 261.41 130.087C261.365 130.095 261.303 130.111 261.254 130.123C261.253 130.123 261.251 130.124 261.249 130.124C261.247 130.125 261.243 130.126 261.241 130.127C260.897 130.21 260.677 130.525 260.748 130.836C260.819 131.147 261.154 131.337 261.5 131.262C261.502 131.262 261.506 131.261 261.508 131.261C261.512 131.26 261.516 131.258 261.52 131.257C261.568 131.247 261.628 131.235 261.67 131.224C261.87 131.17 262.014 131.092 262.193 131.023C262.579 130.885 262.898 130.769 263.209 130.724C263.339 130.714 263.476 130.804 263.544 130.843L263.798 130.799C264.383 132.611 265.608 134.076 267.159 134.995L267.053 135.249C267.091 135.347 267.133 135.481 267.105 135.578C266.991 135.872 266.798 136.181 266.577 136.526C266.47 136.686 266.361 136.809 266.265 136.992C266.242 137.036 266.212 137.103 266.19 137.149C266.04 137.469 266.15 137.838 266.438 137.977C266.727 138.116 267.086 137.969 267.242 137.648C267.242 137.648 267.243 137.647 267.243 137.647C267.243 137.647 267.243 137.646 267.243 137.646C267.265 137.6 267.297 137.54 267.315 137.497C267.398 137.308 267.425 137.146 267.484 136.963C267.638 136.576 267.722 136.17 267.935 135.916C267.993 135.847 268.088 135.82 268.186 135.794L268.318 135.555C269.67 136.074 271.183 136.213 272.695 135.87C273.04 135.792 273.373 135.69 273.695 135.569C273.732 135.635 273.801 135.761 273.82 135.793C273.92 135.825 274.029 135.842 274.117 135.973C274.276 136.245 274.385 136.566 274.517 136.953C274.575 137.136 274.604 137.298 274.686 137.487C274.705 137.531 274.736 137.591 274.759 137.637C274.914 137.959 275.274 138.107 275.564 137.967C275.852 137.828 275.962 137.459 275.812 137.139C275.79 137.093 275.759 137.026 275.736 136.982C275.64 136.8 275.53 136.677 275.423 136.518C275.203 136.172 275.02 135.886 274.907 135.592C274.859 135.441 274.915 135.347 274.952 135.249C274.929 135.224 274.882 135.081 274.854 135.014C276.466 134.062 277.655 132.542 278.214 130.788C278.289 130.8 278.42 130.823 278.463 130.831C278.55 130.774 278.631 130.698 278.789 130.711C279.1 130.756 279.419 130.871 279.805 131.009C279.984 131.078 280.128 131.158 280.328 131.211C280.37 131.222 280.43 131.233 280.478 131.243C280.482 131.244 280.486 131.246 280.49 131.247C280.492 131.248 280.496 131.248 280.498 131.248C280.844 131.323 281.179 131.134 281.25 130.823C281.321 130.512 281.101 130.196 280.757 130.113C280.707 130.102 280.637 130.082 280.588 130.073C280.385 130.035 280.22 130.044 280.029 130.028C279.622 129.986 279.284 129.951 278.984 129.856C278.862 129.809 278.775 129.664 278.733 129.604L278.498 129.535C278.62 128.652 278.587 127.734 278.376 126.815C278.162 125.887 277.786 125.038 277.284 124.291C277.344 124.236 277.458 124.135 277.49 124.105C277.5 124.001 277.492 123.891 277.6 123.775C277.829 123.56 278.118 123.382 278.466 123.167C278.632 123.069 278.785 123.007 278.951 122.884C278.988 122.856 279.04 122.812 279.079 122.781C279.358 122.558 279.423 122.173 279.222 121.922C279.021 121.67 278.633 121.646 278.353 121.869C278.313 121.901 278.259 121.942 278.224 121.973C278.067 122.107 277.971 122.24 277.839 122.38C277.552 122.672 277.314 122.915 277.053 123.091C276.94 123.156 276.775 123.134 276.7 123.129L276.478 123.287C275.214 121.962 273.494 121.115 271.641 120.95C271.636 120.873 271.629 120.732 271.627 120.69C271.551 120.618 271.46 120.556 271.437 120.399C271.411 120.085 271.454 119.748 271.503 119.342C271.53 119.152 271.575 118.994 271.582 118.788C271.584 118.741 271.581 118.673 271.581 118.622C271.581 118.265 271.32 117.975 270.998 117.975ZM270.269 122.494L270.096 125.551L270.083 125.557C270.072 125.831 269.847 126.049 269.57 126.049C269.457 126.049 269.353 126.013 269.268 125.951L269.263 125.953L266.756 124.176C267.527 123.419 268.512 122.859 269.648 122.601C269.855 122.554 270.062 122.519 270.269 122.494ZM271.729 122.494C273.055 122.657 274.281 123.258 275.22 124.178L272.73 125.943L272.722 125.939C272.501 126.101 272.189 126.061 272.017 125.845C271.946 125.756 271.909 125.652 271.905 125.547L271.902 125.546L271.729 122.494ZM265.848 125.318L268.136 127.365L268.133 127.377C268.34 127.557 268.371 127.869 268.198 128.085C268.128 128.173 268.033 128.233 267.932 128.26L267.929 128.27L264.996 129.117C264.847 127.752 265.168 126.425 265.848 125.318ZM276.133 125.319C276.473 125.87 276.731 126.486 276.884 127.153C277.035 127.813 277.073 128.471 277.011 129.107L274.063 128.258L274.06 128.245C273.796 128.173 273.634 127.905 273.695 127.635C273.72 127.525 273.779 127.431 273.858 127.363L273.857 127.356L276.133 125.319ZM270.529 127.523H271.467L272.049 128.251L271.84 129.16L270.998 129.565L270.154 129.159L269.945 128.25L270.529 127.523ZM273.535 130.016C273.574 130.014 273.614 130.017 273.653 130.024L273.658 130.018L276.692 130.531C276.248 131.779 275.398 132.86 274.263 133.583L273.085 130.738L273.089 130.733C272.981 130.482 273.089 130.187 273.338 130.067C273.402 130.036 273.468 130.019 273.535 130.016ZM268.439 130.028C268.67 130.031 268.878 130.192 268.932 130.428C268.957 130.538 268.945 130.648 268.903 130.744L268.912 130.755L267.746 133.572C266.657 132.873 265.789 131.826 265.325 130.541L268.333 130.031L268.338 130.037C268.371 130.031 268.405 130.028 268.439 130.028ZM270.98 131.262C271.06 131.259 271.142 131.276 271.22 131.313C271.322 131.362 271.401 131.44 271.45 131.532H271.462L272.944 134.212C272.752 134.276 272.554 134.331 272.352 134.377C271.218 134.635 270.087 134.557 269.064 134.208L270.543 131.534H270.545C270.634 131.368 270.802 131.269 270.98 131.262Z" fill="white"/>
</g>
<path fill-rule="evenodd" clip-rule="evenodd" d="M295.004 38L271.004 52.0004L271.006 80.0004L295.004 65.9999V38Z" fill="url(#paint3_linear_7517_33495)"/>
<path fill-rule="evenodd" clip-rule="evenodd" d="M247.004 38L271.004 52.0004L271.002 80.0004L247.004 65.9999V38Z" fill="url(#paint4_linear_7517_33495)"/>
<path fill-rule="evenodd" clip-rule="evenodd" d="M295 38L271.005 52L247.004 38L271.002 24L295 38Z" fill="url(#paint5_linear_7517_33495)"/>
<g clip-path="url(#clip9_7517_33495)">
<path fill-rule="evenodd" clip-rule="evenodd" d="M281.953 45.6379L281.954 45.6371L276.442 42.4553L270.932 39.2734L265.42 42.4553L259.91 45.6371L259.91 45.6378V58.3642L265.421 61.546L270.933 64.728V64.7283L274.458 62.694L274.459 62.6937L274.458 62.6936V58.3643L270.933 60.4005L267.295 58.3009L263.659 56.2014V47.8019L267.295 45.7024L270.933 43.6029L274.569 45.7024L278.206 47.8019V64.7281L278.206 64.728L278.207 64.7291L281.955 62.566V45.6381L281.953 45.6379ZM270.933 56.0728L274.458 54.0367V49.9663L270.933 47.9303L267.407 49.9663V54.0367L270.933 56.0728Z" fill="white"/>
</g>
<defs>
<linearGradient id="paint0_linear_7517_33495" x1="132.589" y1="214.805" x2="125.214" y2="236.594" gradientUnits="userSpaceOnUse">
<stop stop-color="#114A8B"/>
<stop offset="1" stop-color="#0669BC"/>
</linearGradient>
<linearGradient id="paint1_linear_7517_33495" x1="134.892" y1="224.959" x2="133.186" y2="225.536" gradientUnits="userSpaceOnUse">
<stop stop-opacity="0.3"/>
<stop offset="0.071" stop-opacity="0.2"/>
<stop offset="0.321" stop-opacity="0.1"/>
<stop offset="0.623" stop-opacity="0.05"/>
<stop offset="1" stop-opacity="0"/>
</linearGradient>
<linearGradient id="paint2_linear_7517_33495" x1="133.952" y1="214.169" x2="142.047" y2="235.738" gradientUnits="userSpaceOnUse">
<stop stop-color="#3CCBF4"/>
<stop offset="1" stop-color="#2892DF"/>
</linearGradient>
<linearGradient id="paint3_linear_7517_33495" x1="283.004" y1="38" x2="283.004" y2="80.0004" gradientUnits="userSpaceOnUse">
<stop stop-color="#161E33"/>
<stop offset="1" stop-color="#0E1424"/>
</linearGradient>
<linearGradient id="paint4_linear_7517_33495" x1="259.004" y1="38" x2="259.004" y2="80.0004" gradientUnits="userSpaceOnUse">
<stop stop-color="#161E33"/>
<stop offset="1" stop-color="#0E1424"/>
</linearGradient>
<linearGradient id="paint5_linear_7517_33495" x1="271.002" y1="24" x2="271.002" y2="52" gradientUnits="userSpaceOnUse">
<stop stop-color="#2F3F6D"/>
<stop offset="0.355174" stop-color="#233053"/>
<stop offset="1" stop-color="#0E1424"/>
</linearGradient>
<clipPath id="clip0_7517_33495">
<rect width="28.8" height="28.8" fill="white" transform="translate(119.602 273.6)"/>
</clipPath>
<clipPath id="clip1_7517_33495">
<rect width="28.8" height="28.8" fill="white" transform="translate(187.602 273.6)"/>
</clipPath>
<clipPath id="clip2_7517_33495">
<rect width="28.8" height="28.8" fill="white" transform="translate(323.602 273.6)"/>
</clipPath>
<clipPath id="clip3_7517_33495">
<rect width="28.8" height="28.8" fill="white" transform="translate(391.602 273.6)"/>
</clipPath>
<clipPath id="clip4_7517_33495">
<rect width="28.8" height="28.8" fill="white" transform="translate(255.602 209.6)"/>
</clipPath>
<clipPath id="clip5_7517_33495">
<rect width="28.8" height="28.8" fill="white" transform="translate(323.602 209.6)"/>
</clipPath>
<clipPath id="clip6_7517_33495">
<rect width="28.8" height="28.8" fill="white" transform="translate(391.602 209.6)"/>
</clipPath>
<clipPath id="clip7_7517_33495">
<rect width="28.8" height="28.8" fill="white" transform="translate(459.602 209.6)"/>
</clipPath>
<clipPath id="clip8_7517_33495">
<rect width="28.8" height="28.8" fill="white" transform="translate(256.602 113.6)"/>
</clipPath>
<clipPath id="clip9_7517_33495">
<rect width="21.9545" height="25.4545" fill="white" transform="translate(259.91 39.2734)"/>
</clipPath>
</defs>
</svg>
