<svg width="540" height="328" viewBox="0 0 540 328" fill="none" xmlns="http://www.w3.org/2000/svg">
<path d="M270 119V129.858C270 134.276 266.418 137.858 262 137.858H78C73.5817 137.858 70 141.439 70 145.858V199" stroke="#B4BACC"/>
<path d="M270 119L270 199" stroke="#B4BACC"/>
<path d="M270 119V129.858C270 134.276 273.582 137.858 278 137.858H462C466.418 137.858 470 141.439 470 145.858V199" stroke="#B4BACC"/>
<g clip-path="url(#clip0_1319_5459)">
<path fill-rule="evenodd" clip-rule="evenodd" d="M213.855 275L213.856 275L210.392 273L206.928 271L203.464 273L200 275L200 275V283L203.464 285L206.928 287V287L209.145 285.721L209.145 285.721L209.145 285.721V283L206.928 284.28L204.642 282.96L202.356 281.64V276.361L204.642 275.041L206.928 273.721L209.214 275.041L211.501 276.361V287L211.5 287L211.501 287.001L213.857 285.641V275.001L213.855 275ZM206.928 281.56L209.145 280.28V277.721L206.928 276.441L204.712 277.721V280.28L206.928 281.56Z" fill="#DC244C"/>
</g>
<path d="M222.529 283L223.141 274.624H225.085L225.949 279.088L226.201 280.912L226.453 279.088L227.269 274.624H229.201L229.813 283H228.325L228.133 278.116L228.097 276.112L227.725 278.116L226.765 283H225.541L224.593 278.116L224.233 276.1L224.185 278.116L224.005 283H222.529ZM231.677 281.056V279.796H236.429V281.056H231.677ZM232.865 274.624H235.073L237.509 283H235.961L234.461 277.72L233.969 275.752L233.453 277.732L231.941 283H230.429L232.865 274.624ZM238.618 283V274.624H240.514L243.622 281.08L243.514 278.344V274.624H244.942V283H243.058L239.926 276.628L240.046 279.28V283H238.618ZM247.287 281.056V279.796H252.039V281.056H247.287ZM248.475 274.624H250.683L253.119 283H251.571L250.071 277.72L249.579 275.752L249.063 277.732L247.551 283H246.039L248.475 274.624ZM257.491 283.144C256.755 283.144 256.111 282.964 255.559 282.604C255.007 282.244 254.575 281.74 254.263 281.092C253.959 280.444 253.807 279.684 253.807 278.812C253.807 277.948 253.959 277.192 254.263 276.544C254.575 275.896 255.011 275.392 255.571 275.032C256.139 274.664 256.807 274.48 257.575 274.48C258.143 274.48 258.663 274.596 259.135 274.828C259.607 275.052 259.991 275.38 260.287 275.812C260.591 276.236 260.763 276.752 260.803 277.36H259.147C259.091 276.88 258.923 276.492 258.643 276.196C258.363 275.892 257.995 275.74 257.539 275.74C257.131 275.74 256.763 275.864 256.435 276.112C256.107 276.352 255.847 276.7 255.655 277.156C255.471 277.612 255.379 278.164 255.379 278.812C255.379 279.468 255.475 280.028 255.667 280.492C255.867 280.948 256.135 281.296 256.471 281.536C256.807 281.768 257.191 281.884 257.623 281.884C257.991 281.884 258.315 281.82 258.595 281.692C258.875 281.564 259.115 281.396 259.315 281.188V279.772L257.971 279.82L258.019 278.548H260.803V281.62C260.467 282.1 260.019 282.476 259.459 282.748C258.899 283.012 258.243 283.144 257.491 283.144ZM262.248 283V274.624H268.32V275.884H263.748V278.032H266.832V279.292H263.748V281.74H268.368V283H262.248ZM269.861 283V274.624H272.513C273.137 274.624 273.693 274.724 274.181 274.924C274.677 275.116 275.097 275.396 275.441 275.764C275.785 276.124 276.049 276.56 276.233 277.072C276.417 277.584 276.509 278.156 276.509 278.788C276.509 279.428 276.417 280.008 276.233 280.528C276.049 281.04 275.785 281.484 275.441 281.86C275.097 282.228 274.677 282.512 274.181 282.712C273.693 282.904 273.137 283 272.513 283H269.861ZM271.361 281.74H272.513C273.025 281.74 273.461 281.62 273.821 281.38C274.181 281.132 274.457 280.788 274.649 280.348C274.849 279.9 274.949 279.38 274.949 278.788C274.949 278.196 274.849 277.684 274.649 277.252C274.457 276.812 274.181 276.476 273.821 276.244C273.461 276.004 273.025 275.884 272.513 275.884H271.361V281.74ZM286.706 279.616V278.368H288.758C289.07 278.368 289.346 278.316 289.586 278.212C289.826 278.1 290.014 277.948 290.15 277.756C290.286 277.556 290.354 277.328 290.354 277.072C290.354 276.824 290.294 276.612 290.174 276.436C290.054 276.26 289.89 276.124 289.682 276.028C289.474 275.932 289.238 275.884 288.974 275.884H286.706V274.624H288.974C289.542 274.624 290.046 274.72 290.486 274.912C290.934 275.104 291.286 275.384 291.542 275.752C291.798 276.112 291.926 276.552 291.926 277.072C291.926 277.392 291.85 277.704 291.698 278.008C291.546 278.312 291.33 278.588 291.05 278.836C290.77 279.076 290.43 279.268 290.03 279.412C289.63 279.548 289.178 279.616 288.674 279.616H286.706ZM285.626 283V274.624H287.138V283H285.626ZM290.354 283C290.322 282.632 290.234 282.268 290.09 281.908C289.946 281.54 289.742 281.188 289.478 280.852C289.222 280.516 288.906 280.208 288.53 279.928C288.154 279.64 287.714 279.392 287.21 279.184L288.89 278.824C289.394 279.08 289.83 279.368 290.198 279.688C290.566 280.008 290.87 280.352 291.11 280.72C291.358 281.08 291.546 281.456 291.674 281.848C291.802 282.232 291.878 282.616 291.902 283H290.354ZM293.467 283V274.624H299.539V275.884H294.967V278.032H298.051V279.292H294.967V281.74H299.587V283H293.467ZM304.32 283.144C303.584 283.144 302.94 282.964 302.388 282.604C301.836 282.244 301.404 281.74 301.092 281.092C300.788 280.444 300.636 279.684 300.636 278.812C300.636 277.948 300.788 277.192 301.092 276.544C301.404 275.896 301.84 275.392 302.4 275.032C302.968 274.664 303.636 274.48 304.404 274.48C304.972 274.48 305.492 274.596 305.964 274.828C306.436 275.052 306.82 275.38 307.116 275.812C307.42 276.236 307.592 276.752 307.632 277.36H305.976C305.92 276.88 305.752 276.492 305.472 276.196C305.192 275.892 304.824 275.74 304.368 275.74C303.96 275.74 303.592 275.864 303.264 276.112C302.936 276.352 302.676 276.7 302.484 277.156C302.3 277.612 302.208 278.164 302.208 278.812C302.208 279.468 302.304 280.028 302.496 280.492C302.696 280.948 302.964 281.296 303.3 281.536C303.636 281.768 304.02 281.884 304.452 281.884C304.82 281.884 305.144 281.82 305.424 281.692C305.704 281.564 305.944 281.396 306.144 281.188V279.772L304.8 279.82L304.848 278.548H307.632V281.62C307.296 282.1 306.848 282.476 306.288 282.748C305.728 283.012 305.072 283.144 304.32 283.144ZM311.26 283V274.624H312.76V283H311.26ZM309.22 274.624H314.8V275.884H309.22V274.624ZM309.22 281.74H314.8V283H309.22V281.74ZM319.833 283.144C319.113 283.144 318.481 282.968 317.937 282.616C317.401 282.264 316.985 281.764 316.689 281.116C316.393 280.468 316.245 279.7 316.245 278.812C316.245 277.924 316.393 277.156 316.689 276.508C316.985 275.852 317.401 275.352 317.937 275.008C318.481 274.656 319.113 274.48 319.833 274.48C320.553 274.48 321.181 274.656 321.717 275.008C322.253 275.352 322.669 275.848 322.965 276.496C323.261 277.144 323.409 277.916 323.409 278.812C323.409 279.7 323.261 280.468 322.965 281.116C322.669 281.764 322.253 282.264 321.717 282.616C321.181 282.968 320.553 283.144 319.833 283.144ZM319.833 281.884C320.225 281.884 320.573 281.76 320.877 281.512C321.181 281.264 321.417 280.912 321.585 280.456C321.761 279.992 321.849 279.444 321.849 278.812C321.849 278.172 321.761 277.624 321.585 277.168C321.417 276.704 321.181 276.352 320.877 276.112C320.573 275.864 320.225 275.74 319.833 275.74C319.441 275.74 319.089 275.864 318.777 276.112C318.473 276.36 318.237 276.716 318.069 277.18C317.901 277.636 317.817 278.18 317.817 278.812C317.817 279.444 317.901 279.992 318.069 280.456C318.237 280.912 318.473 281.264 318.777 281.512C319.089 281.76 319.441 281.884 319.833 281.884ZM324.47 283V274.624H326.366L329.474 281.08L329.366 278.344V274.624H330.794V283H328.91L325.778 276.628L325.898 279.28V283H324.47ZM335.526 283.144C334.862 283.144 334.286 283.02 333.798 282.772C333.318 282.516 332.946 282.156 332.682 281.692C332.426 281.22 332.298 280.656 332.298 280H333.786C333.786 280.608 333.934 281.076 334.23 281.404C334.534 281.724 334.962 281.884 335.514 281.884C335.978 281.884 336.346 281.78 336.618 281.572C336.898 281.364 337.038 281.072 337.038 280.696C337.038 280.424 336.954 280.212 336.786 280.06C336.626 279.9 336.406 279.768 336.126 279.664C335.854 279.56 335.554 279.468 335.226 279.388C334.898 279.3 334.57 279.204 334.242 279.1C333.914 278.988 333.61 278.844 333.33 278.668C333.058 278.492 332.838 278.264 332.67 277.984C332.502 277.696 332.418 277.332 332.418 276.892C332.418 276.428 332.542 276.016 332.79 275.656C333.038 275.296 333.386 275.012 333.834 274.804C334.282 274.588 334.806 274.48 335.406 274.48C335.982 274.48 336.502 274.588 336.966 274.804C337.438 275.02 337.814 275.328 338.094 275.728C338.382 276.12 338.53 276.6 338.538 277.168H337.026C337.018 276.864 336.938 276.608 336.786 276.4C336.642 276.184 336.446 276.02 336.198 275.908C335.958 275.796 335.694 275.74 335.406 275.74C334.998 275.74 334.658 275.84 334.386 276.04C334.122 276.232 333.99 276.504 333.99 276.856C333.99 277.104 334.074 277.3 334.242 277.444C334.41 277.588 334.63 277.708 334.902 277.804C335.182 277.892 335.486 277.976 335.814 278.056C336.142 278.136 336.466 278.232 336.786 278.344C337.114 278.448 337.414 278.596 337.686 278.788C337.966 278.972 338.19 279.216 338.358 279.52C338.526 279.824 338.61 280.212 338.61 280.684C338.61 281.18 338.474 281.612 338.202 281.98C337.938 282.348 337.574 282.636 337.11 282.844C336.646 283.044 336.118 283.144 335.526 283.144Z" fill="#3D4866"/>
<rect x="0.5" y="199.5" width="167" height="47" rx="7.5" fill="#F0F3FA"/>
<rect x="0.5" y="199.5" width="167" height="47" rx="7.5" stroke="#D4D9E6"/>
<path d="M20.812 212.524C19.072 212.524 18.076 213.784 18.076 215.68C18.076 217.636 19.204 218.704 20.824 218.704C22.348 218.704 23.272 217.864 23.272 216.46V216.424H20.62V215.068H24.7V220H23.404L23.308 218.992C22.828 219.664 21.832 220.132 20.644 220.132C18.184 220.132 16.468 218.344 16.468 215.644C16.468 212.98 18.208 211.084 20.848 211.084C22.852 211.084 24.4 212.248 24.652 214.036H23.032C22.756 213.004 21.868 212.524 20.812 212.524ZM25.7947 217.024C25.7947 215.176 27.1267 213.904 28.9627 213.904C30.7987 213.904 32.1307 215.176 32.1307 217.024C32.1307 218.872 30.7987 220.144 28.9627 220.144C27.1267 220.144 25.7947 218.872 25.7947 217.024ZM27.2587 217.024C27.2587 218.104 27.9547 218.836 28.9627 218.836C29.9707 218.836 30.6667 218.104 30.6667 217.024C30.6667 215.944 29.9707 215.212 28.9627 215.212C27.9547 215.212 27.2587 215.944 27.2587 217.024ZM32.9432 217.024C32.9432 215.176 34.2752 213.904 36.1112 213.904C37.9472 213.904 39.2792 215.176 39.2792 217.024C39.2792 218.872 37.9472 220.144 36.1112 220.144C34.2752 220.144 32.9432 218.872 32.9432 217.024ZM34.4072 217.024C34.4072 218.104 35.1032 218.836 36.1112 218.836C37.1192 218.836 37.8152 218.104 37.8152 217.024C37.8152 215.944 37.1192 215.212 36.1112 215.212C35.1032 215.212 34.4072 215.944 34.4072 217.024ZM40.1036 216.904C40.1036 215.176 41.2316 213.88 42.9236 213.88C43.8116 213.88 44.5076 214.252 44.8556 214.888L44.9396 214.072H46.2956V219.7C46.2956 221.68 45.1076 222.916 43.1876 222.916C41.4836 222.916 40.3196 221.944 40.1396 220.36H41.6036C41.6996 221.128 42.2876 221.584 43.1876 221.584C44.1956 221.584 44.8436 220.948 44.8436 219.964V218.98C44.4716 219.532 43.7396 219.88 42.8876 219.88C41.2076 219.88 40.1036 218.62 40.1036 216.904ZM41.5796 216.868C41.5796 217.864 42.2156 218.608 43.1756 218.608C44.1836 218.608 44.8076 217.9 44.8076 216.868C44.8076 215.86 44.1956 215.164 43.1756 215.164C42.2036 215.164 41.5796 215.896 41.5796 216.868ZM49.2867 220H47.8347V211.072H49.2867V220ZM53.4744 220.156C51.7104 220.156 50.4744 218.872 50.4744 217.036C50.4744 215.176 51.6864 213.892 53.4264 213.892C55.2024 213.892 56.3304 215.08 56.3304 216.928V217.372L51.8664 217.384C51.9744 218.428 52.5264 218.956 53.4984 218.956C54.3024 218.956 54.8304 218.644 54.9984 218.08H56.3544C56.1024 219.376 55.0224 220.156 53.4744 220.156ZM53.4384 215.092C52.5744 215.092 52.0464 215.56 51.9024 216.448H54.8784C54.8784 215.632 54.3144 215.092 53.4384 215.092ZM64.6605 220.144C62.1045 220.144 60.4485 218.368 60.4485 215.62C60.4485 212.896 62.1645 211.084 64.7325 211.084C66.8085 211.084 68.3565 212.296 68.6565 214.18H67.0365C66.7365 213.16 65.8605 212.56 64.6965 212.56C63.0765 212.56 62.0565 213.736 62.0565 215.608C62.0565 217.468 63.0885 218.668 64.6965 218.668C65.8845 218.668 66.7965 218.044 67.0845 217.072H68.6805C68.3445 218.92 66.7365 220.144 64.6605 220.144ZM71.2593 220H69.8073V211.072H71.2593V220ZM72.4471 217.024C72.4471 215.176 73.7791 213.904 75.6151 213.904C77.4511 213.904 78.7831 215.176 78.7831 217.024C78.7831 218.872 77.4511 220.144 75.6151 220.144C73.7791 220.144 72.4471 218.872 72.4471 217.024ZM73.9111 217.024C73.9111 218.104 74.6071 218.836 75.6151 218.836C76.6231 218.836 77.3191 218.104 77.3191 217.024C77.3191 215.944 76.6231 215.212 75.6151 215.212C74.6071 215.212 73.9111 215.944 73.9111 217.024ZM83.8229 214.072H85.2869V220H83.9309L83.8229 219.208C83.4629 219.772 82.6949 220.156 81.9029 220.156C80.5349 220.156 79.7309 219.232 79.7309 217.78V214.072H81.1949V217.264C81.1949 218.392 81.6389 218.848 82.4549 218.848C83.3789 218.848 83.8229 218.308 83.8229 217.18V214.072ZM89.1178 220.156C87.4018 220.156 86.3338 218.896 86.3338 217.06C86.3338 215.212 87.4138 213.892 89.2018 213.892C90.0298 213.892 90.7618 214.24 91.1338 214.828V211.072H92.5858V220H91.2418L91.1458 219.076C90.7858 219.76 90.0178 220.156 89.1178 220.156ZM89.4418 218.812C90.4618 218.812 91.1218 218.08 91.1218 217.012C91.1218 215.944 90.4618 215.2 89.4418 215.2C88.4218 215.2 87.7978 215.956 87.7978 217.012C87.7978 218.068 88.4218 218.812 89.4418 218.812Z" fill="#161E33"/>
<path d="M20.12 231.16H20.81V236H20.21L20.12 235.18C19.85 235.74 19.18 236.12 18.42 236.12C17.28 236.12 16.66 235.34 16.66 234.16V231.15H17.36V233.94C17.36 235.09 17.87 235.5 18.64 235.5C19.57 235.5 20.12 234.88 20.12 233.73V231.16ZM21.7397 234.64H22.3997C22.3997 235.2 22.8197 235.55 23.4997 235.55C24.2497 235.55 24.6897 235.23 24.6897 234.71C24.6897 234.31 24.4897 234.08 23.9197 233.94L23.0897 233.73C22.2497 233.52 21.8397 233.08 21.8397 232.42C21.8397 231.57 22.5497 231.03 23.5897 231.03C24.6097 231.03 25.2697 231.59 25.2997 232.49H24.6297C24.6097 231.93 24.2197 231.6 23.5697 231.6C22.8897 231.6 22.5097 231.89 22.5097 232.41C22.5097 232.78 22.7697 233.04 23.2997 233.17L24.1297 233.38C24.9697 233.59 25.3497 233.98 25.3497 234.68C25.3497 235.55 24.6097 236.12 23.5097 236.12C22.4197 236.12 21.7397 235.54 21.7397 234.64ZM26.2298 233.68V233.06H29.1298V233.68H26.2298ZM32.5195 236.12C31.0995 236.12 30.1495 235.1 30.1495 233.58C30.1495 232.07 31.0895 231.03 32.4695 231.03C33.7795 231.03 34.6695 231.96 34.6695 233.33V233.67H30.8195C30.8695 234.85 31.4895 235.53 32.5295 235.53C33.3195 235.53 33.8295 235.19 34.0095 234.55H34.6695C34.4095 235.57 33.6595 236.12 32.5195 236.12ZM32.4695 231.62C31.5595 231.62 30.9595 232.22 30.8395 233.17H33.9795C33.9795 232.24 33.3795 231.62 32.4695 231.62ZM37.1139 236.12C36.0839 236.12 35.4739 235.54 35.4739 234.69C35.4739 233.8 36.1539 233.24 37.2839 233.15L38.8839 233.02V232.86C38.8839 231.91 38.3139 231.61 37.6039 231.61C36.7639 231.61 36.2639 231.99 36.2639 232.64H35.6339C35.6339 231.66 36.4339 231.03 37.6239 231.03C38.7439 231.03 39.5639 231.59 39.5639 232.87V236H38.9839L38.8939 235.15C38.5939 235.76 37.9339 236.12 37.1139 236.12ZM37.2739 235.56C38.2939 235.56 38.8839 234.85 38.8839 233.8V233.54L37.4539 233.65C36.5439 233.73 36.1739 234.13 36.1739 234.67C36.1739 235.26 36.6139 235.56 37.2739 235.56ZM40.5385 234.64H41.1985C41.1985 235.2 41.6185 235.55 42.2985 235.55C43.0485 235.55 43.4885 235.23 43.4885 234.71C43.4885 234.31 43.2885 234.08 42.7185 233.94L41.8885 233.73C41.0485 233.52 40.6385 233.08 40.6385 232.42C40.6385 231.57 41.3485 231.03 42.3885 231.03C43.4085 231.03 44.0685 231.59 44.0985 232.49H43.4285C43.4085 231.93 43.0185 231.6 42.3685 231.6C41.6885 231.6 41.3085 231.89 41.3085 232.41C41.3085 232.78 41.5685 233.04 42.0985 233.17L42.9285 233.38C43.7685 233.59 44.1485 233.98 44.1485 234.68C44.1485 235.55 43.4085 236.12 42.3085 236.12C41.2185 236.12 40.5385 235.54 40.5385 234.64ZM46.3945 236H45.7145V231.74H44.7445V231.16H45.7145V229.63H46.3945V231.16H47.3645V231.74H46.3945V236ZM47.9877 233.68V233.06H50.8877V233.68H47.9877ZM57.2273 234.48H56.3873V236H55.6873V234.48H51.9273V233.84L55.4273 228.84H56.3873V233.84H57.2273V234.48ZM52.7073 233.84H55.6873V229.58L52.7073 233.84ZM59.4732 235.66C59.4732 236.28 58.9932 236.82 58.3732 236.91V236.54C58.7332 236.48 58.9932 236.22 58.9932 235.94C58.9332 235.98 58.8532 236.01 58.7332 236.01C58.4532 236.01 58.2132 235.81 58.2132 235.47C58.2132 235.12 58.4532 234.87 58.8032 234.87C59.1632 234.87 59.4732 235.16 59.4732 235.66ZM65.6738 236.12C64.2538 236.12 63.3038 235.1 63.3038 233.58C63.3038 232.07 64.2438 231.03 65.6238 231.03C66.9338 231.03 67.8238 231.96 67.8238 233.33V233.67H63.9738C64.0238 234.85 64.6438 235.53 65.6838 235.53C66.4738 235.53 66.9838 235.19 67.1638 234.55H67.8238C67.5638 235.57 66.8138 236.12 65.6738 236.12ZM65.6238 231.62C64.7138 231.62 64.1138 232.22 63.9938 233.17H67.1338C67.1338 232.24 66.5338 231.62 65.6238 231.62ZM72.327 231.16H73.017V236H72.417L72.327 235.18C72.057 235.74 71.387 236.12 70.627 236.12C69.487 236.12 68.867 235.34 68.867 234.16V231.15H69.567V233.94C69.567 235.09 70.077 235.5 70.847 235.5C71.777 235.5 72.327 234.88 72.327 233.73V231.16ZM74.3744 233.68V233.06H77.2744V233.68H74.3744ZM78.2941 233.59C78.2941 232.07 79.2241 231.03 80.6341 231.03C81.7541 231.03 82.5741 231.68 82.7641 232.68H82.0741C81.8941 232.01 81.3141 231.64 80.6441 231.64C79.6641 231.64 78.9741 232.39 78.9741 233.58C78.9741 234.73 79.6141 235.5 80.5941 235.5C81.3141 235.5 81.8941 235.1 82.0841 234.48H82.7841C82.5541 235.47 81.6941 236.12 80.5941 236.12C79.2241 236.12 78.2941 235.11 78.2941 233.59ZM85.8594 236.12C84.4394 236.12 83.4894 235.1 83.4894 233.58C83.4894 232.07 84.4294 231.03 85.8094 231.03C87.1194 231.03 88.0094 231.96 88.0094 233.33V233.67H84.1594C84.2094 234.85 84.8294 235.53 85.8694 235.53C86.6594 235.53 87.1694 235.19 87.3494 234.55H88.0094C87.7494 235.57 86.9994 236.12 85.8594 236.12ZM85.8094 231.62C84.8994 231.62 84.2994 232.22 84.1794 233.17H87.3194C87.3194 232.24 86.7194 231.62 85.8094 231.62ZM89.8026 236H89.1126V231.16H89.7126L89.8126 232C90.1326 231.38 90.7726 231.03 91.4726 231.03C92.8026 231.03 93.3526 231.82 93.3526 233.04V236H92.6626V233.19C92.6626 232.06 92.1526 231.66 91.3526 231.66C90.3626 231.66 89.8026 232.38 89.8026 233.47V236ZM95.8378 236H95.1578V231.74H94.1878V231.16H95.1578V229.63H95.8378V231.16H96.8078V231.74H95.8378V236ZM100.236 231.1V231.72H99.8563C98.9663 231.72 98.3963 232.32 98.3963 233.24V236H97.7063V231.16H98.3563L98.4063 231.91C98.5963 231.39 99.1063 231.05 99.7863 231.05C99.9363 231.05 100.066 231.06 100.236 231.1ZM102.348 236.12C101.318 236.12 100.708 235.54 100.708 234.69C100.708 233.8 101.388 233.24 102.518 233.15L104.118 233.02V232.86C104.118 231.91 103.548 231.61 102.838 231.61C101.998 231.61 101.498 231.99 101.498 232.64H100.868C100.868 231.66 101.668 231.03 102.858 231.03C103.978 231.03 104.798 231.59 104.798 232.87V236H104.218L104.128 235.15C103.828 235.76 103.168 236.12 102.348 236.12ZM102.508 235.56C103.528 235.56 104.118 234.85 104.118 233.8V233.54L102.688 233.65C101.778 233.73 101.408 234.13 101.408 234.67C101.408 235.26 101.848 235.56 102.508 235.56ZM106.903 236H106.213V228.71H106.903V236ZM109.59 235.66C109.59 236.28 109.11 236.82 108.49 236.91V236.54C108.85 236.48 109.11 236.22 109.11 235.94C109.05 235.98 108.97 236.01 108.85 236.01C108.57 236.01 108.33 235.81 108.33 235.47C108.33 235.12 108.57 234.87 108.92 234.87C109.28 234.87 109.59 235.16 109.59 235.66ZM114.351 236.11C114.011 236.11 113.721 235.83 113.721 235.5C113.721 235.16 114.011 234.87 114.351 234.87C114.691 234.87 114.981 235.16 114.981 235.5C114.981 235.83 114.691 236.11 114.351 236.11ZM116.501 236.11C116.151 236.11 115.871 235.83 115.871 235.5C115.871 235.16 116.151 234.87 116.501 234.87C116.841 234.87 117.131 235.16 117.131 235.5C117.131 235.83 116.841 236.11 116.501 236.11ZM118.641 236.11C118.301 236.11 118.021 235.83 118.021 235.5C118.021 235.16 118.301 234.87 118.641 234.87C118.981 234.87 119.271 235.16 119.271 235.5C119.271 235.83 118.981 236.11 118.641 236.11Z" fill="#3D4866"/>
<path d="M142.961 216.68H143.632L145.544 214.768L145.638 213.956C144.542 212.989 143.219 212.317 141.791 212.004C140.364 211.691 138.88 211.747 137.481 212.167C136.081 212.587 134.812 213.357 133.792 214.403C132.773 215.45 132.037 216.739 131.654 218.15C131.867 218.062 132.103 218.048 132.325 218.109L136.15 217.479C136.15 217.479 136.345 217.157 136.445 217.177C137.265 216.277 138.397 215.724 139.611 215.632C140.825 215.539 142.028 215.915 142.974 216.68H142.961Z" fill="#EA4335"/>
<path d="M148.268 218.15C147.828 216.531 146.926 215.076 145.671 213.963L142.987 216.647C143.546 217.104 143.995 217.682 144.298 218.337C144.601 218.993 144.752 219.709 144.738 220.431V220.907C145.052 220.907 145.363 220.969 145.652 221.089C145.942 221.209 146.206 221.385 146.427 221.607C146.649 221.829 146.825 222.092 146.945 222.382C147.065 222.672 147.127 222.982 147.127 223.296C147.127 223.61 147.065 223.92 146.945 224.21C146.825 224.5 146.649 224.763 146.427 224.985C146.206 225.207 145.942 225.383 145.652 225.503C145.363 225.623 145.052 225.685 144.738 225.685H139.961L139.484 226.168V229.033L139.961 229.509H144.738C146.072 229.52 147.374 229.101 148.452 228.314C149.529 227.527 150.325 226.414 150.72 225.14C151.116 223.866 151.091 222.498 150.65 221.239C150.208 219.98 149.373 218.897 148.268 218.15Z" fill="#4285F4"/>
<path d="M135.177 229.483H139.954V225.658H135.177C134.836 225.658 134.5 225.585 134.19 225.443L133.519 225.651L131.594 227.564L131.426 228.235C132.506 229.05 133.823 229.489 135.177 229.483Z" fill="#34A853"/>
<path d="M135.176 217.076C133.882 217.084 132.622 217.496 131.573 218.254C130.524 219.013 129.738 220.08 129.325 221.306C128.912 222.533 128.892 223.858 129.269 225.097C129.645 226.335 130.399 227.425 131.425 228.215L134.197 225.443C133.845 225.284 133.536 225.042 133.298 224.738C133.06 224.433 132.9 224.076 132.83 223.695C132.761 223.315 132.785 222.924 132.9 222.555C133.015 222.186 133.218 221.851 133.491 221.577C133.764 221.304 134.1 221.101 134.469 220.986C134.838 220.871 135.229 220.847 135.609 220.917C135.989 220.986 136.347 221.147 136.651 221.385C136.956 221.623 137.198 221.931 137.357 222.283L140.128 219.512C139.547 218.751 138.797 218.136 137.938 217.713C137.079 217.291 136.134 217.073 135.176 217.076Z" fill="#FBBC05"/>
<rect x="372.5" y="199.5" width="167" height="47" rx="7.5" fill="#F0F3FA"/>
<rect x="372.5" y="199.5" width="167" height="47" rx="7.5" stroke="#D4D9E6"/>
<path d="M399.228 228H397.632L400.8 219.228H402.372L405.54 228H403.92L403.212 225.972H399.936L399.228 228ZM401.388 221.844L400.392 224.676H402.768L401.76 221.844C401.688 221.616 401.604 221.352 401.58 221.172C401.544 221.34 401.472 221.604 401.388 221.844ZM410.9 228H406.112V226.8L409.064 223.296H406.112V222.072H410.9V223.284L407.9 226.776H410.9V228ZM416.116 222.072H417.58V228H416.224L416.116 227.208C415.756 227.772 414.988 228.156 414.196 228.156C412.828 228.156 412.024 227.232 412.024 225.78V222.072H413.488V225.264C413.488 226.392 413.932 226.848 414.748 226.848C415.672 226.848 416.116 226.308 416.116 225.18V222.072ZM422.812 222.048V223.404H422.272C421.216 223.404 420.556 223.968 420.556 225.12V228H419.092V222.084H420.472L420.556 222.948C420.808 222.36 421.372 221.964 422.164 221.964C422.368 221.964 422.572 221.988 422.812 222.048ZM426.256 228.156C424.492 228.156 423.256 226.872 423.256 225.036C423.256 223.176 424.468 221.892 426.208 221.892C427.984 221.892 429.112 223.08 429.112 224.928V225.372L424.648 225.384C424.756 226.428 425.308 226.956 426.28 226.956C427.084 226.956 427.612 226.644 427.78 226.08H429.136C428.884 227.376 427.804 228.156 426.256 228.156ZM426.22 223.092C425.356 223.092 424.828 223.56 424.684 224.448H427.66C427.66 223.632 427.096 223.092 426.22 223.092ZM437.442 228.144C434.886 228.144 433.23 226.368 433.23 223.62C433.23 220.896 434.946 219.084 437.514 219.084C439.59 219.084 441.138 220.296 441.438 222.18H439.818C439.518 221.16 438.642 220.56 437.478 220.56C435.858 220.56 434.838 221.736 434.838 223.608C434.838 225.468 435.87 226.668 437.478 226.668C438.666 226.668 439.578 226.044 439.866 225.072H441.462C441.126 226.92 439.518 228.144 437.442 228.144ZM444.041 228H442.589V219.072H444.041V228ZM445.228 225.024C445.228 223.176 446.56 221.904 448.396 221.904C450.232 221.904 451.564 223.176 451.564 225.024C451.564 226.872 450.232 228.144 448.396 228.144C446.56 228.144 445.228 226.872 445.228 225.024ZM446.692 225.024C446.692 226.104 447.388 226.836 448.396 226.836C449.404 226.836 450.1 226.104 450.1 225.024C450.1 223.944 449.404 223.212 448.396 223.212C447.388 223.212 446.692 223.944 446.692 225.024ZM456.604 222.072H458.068V228H456.712L456.604 227.208C456.244 227.772 455.476 228.156 454.684 228.156C453.316 228.156 452.512 227.232 452.512 225.78V222.072H453.976V225.264C453.976 226.392 454.42 226.848 455.236 226.848C456.16 226.848 456.604 226.308 456.604 225.18V222.072ZM461.899 228.156C460.183 228.156 459.115 226.896 459.115 225.06C459.115 223.212 460.195 221.892 461.983 221.892C462.811 221.892 463.543 222.24 463.915 222.828V219.072H465.367V228H464.023L463.927 227.076C463.567 227.76 462.799 228.156 461.899 228.156ZM462.223 226.812C463.243 226.812 463.903 226.08 463.903 225.012C463.903 223.944 463.243 223.2 462.223 223.2C461.203 223.2 460.579 223.956 460.579 225.012C460.579 226.068 461.203 226.812 462.223 226.812Z" fill="#161E33"/>
<path d="M499.166 213.942H505.085L498.941 232.145C498.878 232.332 498.758 232.494 498.597 232.609C498.437 232.725 498.244 232.786 498.047 232.787H493.441C493.292 232.787 493.144 232.751 493.011 232.683C492.878 232.614 492.763 232.515 492.676 232.394C492.589 232.272 492.532 232.132 492.509 231.984C492.487 231.836 492.501 231.685 492.548 231.543L498.272 214.584C498.335 214.396 498.456 214.234 498.616 214.119C498.776 214.003 498.969 213.942 499.166 213.942Z" fill="url(#paint0_linear_1319_5459)"/>
<path d="M507.767 226.151H498.382C498.295 226.151 498.21 226.177 498.137 226.226C498.065 226.275 498.01 226.345 497.978 226.426C497.946 226.507 497.939 226.596 497.958 226.681C497.977 226.766 498.022 226.844 498.085 226.903L504.116 232.532C504.292 232.696 504.523 232.787 504.763 232.787H510.077L507.767 226.151Z" fill="#0078D4"/>
<path d="M499.166 213.942C498.967 213.941 498.772 214.004 498.611 214.122C498.449 214.239 498.33 214.406 498.27 214.596L492.555 231.528C492.504 231.67 492.488 231.823 492.509 231.972C492.529 232.122 492.585 232.265 492.672 232.388C492.759 232.512 492.875 232.612 493.009 232.682C493.143 232.751 493.292 232.787 493.444 232.787H498.168C498.344 232.755 498.509 232.678 498.645 232.562C498.781 232.446 498.884 232.296 498.943 232.127L500.083 228.769L504.154 232.566C504.324 232.707 504.538 232.785 504.76 232.787H510.054L507.732 226.151L500.963 226.153L505.106 213.942H499.166Z" fill="url(#paint1_linear_1319_5459)"/>
<path d="M506.726 214.583C506.663 214.396 506.543 214.234 506.383 214.119C506.222 214.004 506.03 213.942 505.833 213.942H499.237C499.434 213.942 499.627 214.004 499.787 214.119C499.947 214.234 500.067 214.396 500.13 214.583L505.854 231.543C505.902 231.685 505.915 231.836 505.893 231.984C505.871 232.132 505.814 232.272 505.727 232.394C505.64 232.516 505.525 232.615 505.392 232.683C505.258 232.751 505.111 232.787 504.961 232.787H511.557C511.707 232.787 511.854 232.751 511.987 232.683C512.121 232.614 512.235 232.515 512.323 232.394C512.41 232.272 512.467 232.132 512.489 231.984C512.511 231.836 512.498 231.685 512.45 231.543L506.726 214.583Z" fill="url(#paint2_linear_1319_5459)"/>
<rect x="186.5" y="175.5" width="167" height="47" rx="7.5" fill="#F0F3FA"/>
<rect x="186.5" y="175.5" width="167" height="47" rx="7.5" stroke="#D4D9E6"/>
<path d="M203.728 196H202.132L205.3 187.228H206.872L210.04 196H208.42L207.712 193.972H204.436L203.728 196ZM205.888 189.844L204.892 192.676H207.268L206.26 189.844C206.188 189.616 206.104 189.352 206.08 189.172C206.044 189.34 205.972 189.604 205.888 189.844ZM212.015 196L209.399 187.228H210.995L212.387 191.86C212.519 192.34 212.651 192.832 212.783 193.6C212.927 192.82 213.059 192.364 213.215 191.86L214.595 187.228H216.287L217.643 191.86C217.787 192.352 217.919 192.856 218.063 193.6C218.231 192.784 218.351 192.316 218.483 191.872L219.899 187.228H221.459L218.795 196H217.307L215.435 189.616L213.527 196H212.015ZM222.027 189.676C222.027 188.14 223.299 187.072 225.147 187.072C226.923 187.072 228.051 188.056 228.099 189.64H226.563C226.527 188.884 225.987 188.44 225.123 188.44C224.175 188.44 223.563 188.896 223.563 189.628C223.563 190.252 223.899 190.6 224.631 190.768L226.011 191.068C227.511 191.392 228.243 192.16 228.243 193.468C228.243 195.1 226.971 196.156 225.039 196.156C223.167 196.156 221.943 195.16 221.907 193.588H223.443C223.455 194.332 224.055 194.776 225.039 194.776C226.059 194.776 226.707 194.332 226.707 193.6C226.707 193.012 226.407 192.664 225.687 192.508L224.295 192.196C222.807 191.872 222.027 191.02 222.027 189.676Z" fill="#161E33"/>
<path d="M206.12 207.16H206.81V212H206.21L206.12 211.18C205.85 211.74 205.18 212.12 204.42 212.12C203.28 212.12 202.66 211.34 202.66 210.16V207.15H203.36V209.94C203.36 211.09 203.87 211.5 204.64 211.5C205.57 211.5 206.12 210.88 206.12 209.73V207.16ZM207.74 210.64H208.4C208.4 211.2 208.82 211.55 209.5 211.55C210.25 211.55 210.69 211.23 210.69 210.71C210.69 210.31 210.49 210.08 209.92 209.94L209.09 209.73C208.25 209.52 207.84 209.08 207.84 208.42C207.84 207.57 208.55 207.03 209.59 207.03C210.61 207.03 211.27 207.59 211.3 208.49H210.63C210.61 207.93 210.22 207.6 209.57 207.6C208.89 207.6 208.51 207.89 208.51 208.41C208.51 208.78 208.77 209.04 209.3 209.17L210.13 209.38C210.97 209.59 211.35 209.98 211.35 210.68C211.35 211.55 210.61 212.12 209.51 212.12C208.42 212.12 207.74 211.54 207.74 210.64ZM212.23 209.68V209.06H215.13V209.68H212.23ZM217.265 212L215.665 207.16H216.375L217.325 210.08C217.435 210.4 217.525 210.73 217.625 211.12C217.705 210.73 217.865 210.24 217.915 210.08L218.875 207.16H219.585L220.535 210.08C220.625 210.34 220.745 210.76 220.835 211.12C220.935 210.72 220.955 210.6 221.125 210.08L222.085 207.16H222.805L221.165 212H220.495L219.495 208.96C219.375 208.6 219.295 208.3 219.235 208.01C219.165 208.27 219.085 208.56 218.955 208.96L217.955 212H217.265ZM225.482 212.12C224.062 212.12 223.112 211.1 223.112 209.58C223.112 208.07 224.052 207.03 225.432 207.03C226.742 207.03 227.632 207.96 227.632 209.33V209.67H223.782C223.832 210.85 224.452 211.53 225.492 211.53C226.282 211.53 226.792 211.19 226.972 210.55H227.632C227.372 211.57 226.622 212.12 225.482 212.12ZM225.432 207.62C224.522 207.62 223.922 208.22 223.802 209.17H226.942C226.942 208.24 226.342 207.62 225.432 207.62ZM228.326 210.64H228.986C228.986 211.2 229.406 211.55 230.086 211.55C230.836 211.55 231.276 211.23 231.276 210.71C231.276 210.31 231.076 210.08 230.506 209.94L229.676 209.73C228.836 209.52 228.426 209.08 228.426 208.42C228.426 207.57 229.136 207.03 230.176 207.03C231.196 207.03 231.856 207.59 231.886 208.49H231.216C231.196 207.93 230.806 207.6 230.156 207.6C229.476 207.6 229.096 207.89 229.096 208.41C229.096 208.78 229.356 209.04 229.886 209.17L230.716 209.38C231.556 209.59 231.936 209.98 231.936 210.68C231.936 211.55 231.196 212.12 230.096 212.12C229.006 212.12 228.326 211.54 228.326 210.64ZM234.182 212H233.502V207.74H232.532V207.16H233.502V205.63H234.182V207.16H235.152V207.74H234.182V212ZM235.775 209.68V209.06H238.675V209.68H235.775ZM240.568 205.49H239.108V204.84H241.258V212H240.568V205.49ZM244.038 211.66C244.038 212.28 243.558 212.82 242.938 212.91V212.54C243.298 212.48 243.558 212.22 243.558 211.94C243.498 211.98 243.418 212.01 243.298 212.01C243.018 212.01 242.778 211.81 242.778 211.47C242.778 211.12 243.018 210.87 243.368 210.87C243.728 210.87 244.038 211.16 244.038 211.66ZM250.238 212.12C248.818 212.12 247.868 211.1 247.868 209.58C247.868 208.07 248.808 207.03 250.188 207.03C251.498 207.03 252.388 207.96 252.388 209.33V209.67H248.538C248.588 210.85 249.208 211.53 250.248 211.53C251.038 211.53 251.548 211.19 251.728 210.55H252.388C252.128 211.57 251.378 212.12 250.238 212.12ZM250.188 207.62C249.278 207.62 248.678 208.22 248.558 209.17H251.698C251.698 208.24 251.098 207.62 250.188 207.62ZM256.891 207.16H257.581V212H256.981L256.891 211.18C256.621 211.74 255.951 212.12 255.191 212.12C254.051 212.12 253.431 211.34 253.431 210.16V207.15H254.131V209.94C254.131 211.09 254.641 211.5 255.411 211.5C256.341 211.5 256.891 210.88 256.891 209.73V207.16ZM258.939 209.68V209.06H261.839V209.68H258.939ZM262.859 209.59C262.859 208.07 263.789 207.03 265.199 207.03C266.319 207.03 267.139 207.68 267.329 208.68H266.639C266.459 208.01 265.879 207.64 265.209 207.64C264.229 207.64 263.539 208.39 263.539 209.58C263.539 210.73 264.179 211.5 265.159 211.5C265.879 211.5 266.459 211.1 266.649 210.48H267.349C267.119 211.47 266.259 212.12 265.159 212.12C263.789 212.12 262.859 211.11 262.859 209.59ZM270.424 212.12C269.004 212.12 268.054 211.1 268.054 209.58C268.054 208.07 268.994 207.03 270.374 207.03C271.684 207.03 272.574 207.96 272.574 209.33V209.67H268.724C268.774 210.85 269.394 211.53 270.434 211.53C271.224 211.53 271.734 211.19 271.914 210.55H272.574C272.314 211.57 271.564 212.12 270.424 212.12ZM270.374 207.62C269.464 207.62 268.864 208.22 268.744 209.17H271.884C271.884 208.24 271.284 207.62 270.374 207.62ZM274.367 212H273.677V207.16H274.277L274.377 208C274.697 207.38 275.337 207.03 276.037 207.03C277.367 207.03 277.917 207.82 277.917 209.04V212H277.227V209.19C277.227 208.06 276.717 207.66 275.917 207.66C274.927 207.66 274.367 208.38 274.367 209.47V212ZM280.402 212H279.722V207.74H278.752V207.16H279.722V205.63H280.402V207.16H281.372V207.74H280.402V212ZM284.801 207.1V207.72H284.421C283.531 207.72 282.961 208.32 282.961 209.24V212H282.271V207.16H282.921L282.971 207.91C283.161 207.39 283.671 207.05 284.351 207.05C284.501 207.05 284.631 207.06 284.801 207.1ZM286.913 212.12C285.883 212.12 285.273 211.54 285.273 210.69C285.273 209.8 285.953 209.24 287.083 209.15L288.683 209.02V208.86C288.683 207.91 288.113 207.61 287.403 207.61C286.563 207.61 286.063 207.99 286.063 208.64H285.433C285.433 207.66 286.233 207.03 287.423 207.03C288.543 207.03 289.363 207.59 289.363 208.87V212H288.783L288.693 211.15C288.393 211.76 287.733 212.12 286.913 212.12ZM287.073 211.56C288.093 211.56 288.683 210.85 288.683 209.8V209.54L287.253 209.65C286.343 209.73 285.973 210.13 285.973 210.67C285.973 211.26 286.413 211.56 287.073 211.56ZM291.467 212H290.777V204.71H291.467V212ZM292.855 209.68V209.06H295.755V209.68H292.855ZM297.648 205.49H296.188V204.84H298.338V212H297.648V205.49ZM301.118 211.66C301.118 212.28 300.638 212.82 300.018 212.91V212.54C300.378 212.48 300.638 212.22 300.638 211.94C300.578 211.98 300.498 212.01 300.378 212.01C300.098 212.01 299.858 211.81 299.858 211.47C299.858 211.12 300.098 210.87 300.448 210.87C300.808 210.87 301.118 211.16 301.118 211.66ZM305.878 212.11C305.538 212.11 305.248 211.83 305.248 211.5C305.248 211.16 305.538 210.87 305.878 210.87C306.218 210.87 306.508 211.16 306.508 211.5C306.508 211.83 306.218 212.11 305.878 212.11ZM308.028 212.11C307.678 212.11 307.398 211.83 307.398 211.5C307.398 211.16 307.678 210.87 308.028 210.87C308.368 210.87 308.658 211.16 308.658 211.5C308.658 211.83 308.368 212.11 308.028 212.11ZM310.168 212.11C309.828 212.11 309.548 211.83 309.548 211.5C309.548 211.16 309.828 210.87 310.168 210.87C310.508 210.87 310.798 211.16 310.798 211.5C310.798 211.83 310.508 212.11 310.168 212.11Z" fill="#3D4866"/>
<path d="M327.2 196.297C327.2 196.568 327.23 196.788 327.281 196.949C327.339 197.11 327.413 197.285 327.515 197.475C327.552 197.534 327.566 197.592 327.566 197.644C327.566 197.717 327.522 197.79 327.427 197.863L326.966 198.171C326.9 198.214 326.835 198.236 326.776 198.236C326.703 198.236 326.63 198.2 326.556 198.134C326.454 198.024 326.366 197.907 326.293 197.79C326.22 197.666 326.147 197.527 326.066 197.358C325.496 198.032 324.778 198.368 323.915 198.368C323.3 198.368 322.81 198.192 322.452 197.841C322.093 197.49 321.91 197.022 321.91 196.436C321.91 195.814 322.13 195.31 322.576 194.929C323.022 194.549 323.615 194.358 324.369 194.358C324.617 194.358 324.874 194.38 325.144 194.417C325.415 194.453 325.693 194.512 325.986 194.578V194.044C325.986 193.488 325.869 193.1 325.642 192.873C325.408 192.646 325.013 192.536 324.449 192.536C324.193 192.536 323.93 192.566 323.659 192.632C323.388 192.697 323.125 192.778 322.869 192.88C322.752 192.932 322.664 192.961 322.613 192.975C322.561 192.99 322.525 192.997 322.496 192.997C322.393 192.997 322.342 192.924 322.342 192.771V192.412C322.342 192.295 322.356 192.207 322.393 192.156C322.43 192.105 322.496 192.053 322.598 192.002C322.854 191.871 323.161 191.761 323.52 191.673C323.878 191.578 324.259 191.534 324.661 191.534C325.532 191.534 326.169 191.732 326.578 192.127C326.981 192.522 327.186 193.122 327.186 193.927V196.297H327.2ZM324.23 197.41C324.471 197.41 324.72 197.366 324.983 197.278C325.247 197.19 325.481 197.029 325.678 196.81C325.796 196.671 325.883 196.517 325.927 196.341C325.971 196.166 326 195.953 326 195.705V195.397C325.788 195.346 325.561 195.302 325.327 195.273C325.093 195.244 324.866 195.229 324.639 195.229C324.149 195.229 323.791 195.324 323.549 195.522C323.308 195.719 323.191 195.997 323.191 196.363C323.191 196.707 323.278 196.963 323.461 197.139C323.637 197.322 323.893 197.41 324.23 197.41ZM330.105 198.2C329.974 198.2 329.886 198.178 329.827 198.127C329.769 198.083 329.717 197.98 329.674 197.841L327.954 192.185C327.91 192.039 327.888 191.944 327.888 191.893C327.888 191.775 327.947 191.71 328.064 191.71H328.781C328.92 191.71 329.015 191.732 329.066 191.783C329.125 191.827 329.169 191.929 329.213 192.068L330.442 196.912L331.583 192.068C331.62 191.922 331.664 191.827 331.722 191.783C331.781 191.739 331.883 191.71 332.015 191.71H332.6C332.739 191.71 332.834 191.732 332.893 191.783C332.952 191.827 333.003 191.929 333.032 192.068L334.188 196.971L335.454 192.068C335.498 191.922 335.549 191.827 335.6 191.783C335.659 191.739 335.754 191.71 335.886 191.71H336.566C336.683 191.71 336.749 191.768 336.749 191.893C336.749 191.929 336.742 191.966 336.734 192.01C336.727 192.053 336.713 192.112 336.683 192.193L334.92 197.849C334.876 197.995 334.825 198.09 334.766 198.134C334.708 198.178 334.613 198.207 334.488 198.207H333.859C333.72 198.207 333.625 198.185 333.566 198.134C333.508 198.083 333.456 197.988 333.427 197.841L332.293 193.122L331.166 197.834C331.13 197.98 331.086 198.075 331.027 198.127C330.969 198.178 330.866 198.2 330.735 198.2H330.105ZM339.508 198.397C339.127 198.397 338.747 198.353 338.381 198.266C338.015 198.178 337.73 198.083 337.539 197.973C337.422 197.907 337.342 197.834 337.313 197.768C337.283 197.702 337.269 197.629 337.269 197.563V197.19C337.269 197.036 337.327 196.963 337.437 196.963C337.481 196.963 337.525 196.971 337.569 196.985C337.613 197 337.678 197.029 337.752 197.058C338 197.168 338.271 197.256 338.556 197.314C338.849 197.373 339.134 197.402 339.427 197.402C339.888 197.402 340.247 197.322 340.495 197.161C340.744 197 340.876 196.766 340.876 196.466C340.876 196.261 340.81 196.092 340.678 195.953C340.547 195.814 340.298 195.69 339.939 195.573L338.878 195.244C338.344 195.075 337.949 194.827 337.708 194.497C337.466 194.175 337.342 193.817 337.342 193.436C337.342 193.129 337.408 192.858 337.539 192.624C337.671 192.39 337.847 192.185 338.066 192.024C338.286 191.856 338.534 191.732 338.827 191.644C339.12 191.556 339.427 191.519 339.749 191.519C339.91 191.519 340.078 191.527 340.239 191.549C340.408 191.571 340.561 191.6 340.715 191.629C340.861 191.666 341 191.702 341.132 191.746C341.264 191.79 341.366 191.834 341.439 191.878C341.542 191.936 341.615 191.995 341.659 192.061C341.703 192.119 341.725 192.2 341.725 192.302V192.646C341.725 192.8 341.666 192.88 341.556 192.88C341.498 192.88 341.403 192.851 341.278 192.793C340.861 192.602 340.393 192.507 339.873 192.507C339.456 192.507 339.127 192.573 338.9 192.712C338.673 192.851 338.556 193.063 338.556 193.363C338.556 193.568 338.63 193.744 338.776 193.883C338.922 194.022 339.193 194.161 339.581 194.285L340.62 194.614C341.147 194.783 341.527 195.017 341.754 195.317C341.981 195.617 342.091 195.961 342.091 196.341C342.091 196.656 342.025 196.941 341.9 197.19C341.769 197.439 341.593 197.658 341.366 197.834C341.139 198.017 340.869 198.149 340.554 198.244C340.225 198.346 339.881 198.397 339.508 198.397Z" fill="#252F3E"/>
<path fill-rule="evenodd" clip-rule="evenodd" d="M340.891 201.953C338.484 203.732 334.986 204.675 331.979 204.675C327.764 204.675 323.967 203.117 321.098 200.527C320.872 200.322 321.076 200.044 321.347 200.205C324.45 202.005 328.276 203.095 332.235 203.095C334.906 203.095 337.84 202.539 340.54 201.397C340.942 201.214 341.286 201.661 340.891 201.953Z" fill="#FF9900"/>
<path fill-rule="evenodd" clip-rule="evenodd" d="M341.893 200.812C341.585 200.417 339.858 200.622 339.075 200.717C338.841 200.746 338.805 200.541 339.017 200.388C340.393 199.422 342.654 199.7 342.917 200.022C343.18 200.351 342.844 202.612 341.556 203.695C341.358 203.863 341.168 203.775 341.256 203.556C341.549 202.832 342.2 201.2 341.893 200.812Z" fill="#FF9900"/>
<path fill-rule="evenodd" clip-rule="evenodd" d="M297.718 71.9995L270.003 88L270.005 120L297.718 103.999V71.9995Z" fill="url(#paint3_linear_1319_5459)"/>
<path fill-rule="evenodd" clip-rule="evenodd" d="M242.288 71.9995L270.003 88L270.001 120L242.288 103.999V71.9995Z" fill="url(#paint4_linear_1319_5459)"/>
<path fill-rule="evenodd" clip-rule="evenodd" d="M297.714 72L270.005 88L242.289 72L270.001 56L297.714 72Z" fill="url(#paint5_linear_1319_5459)"/>
<g clip-path="url(#clip1_1319_5459)">
<path fill-rule="evenodd" clip-rule="evenodd" d="M282.805 80.7282L282.807 80.7273L276.507 77.0909L270.21 73.4545L263.911 77.0909L257.613 80.7273L257.614 80.7281V95.2725L263.911 98.9089L270.21 102.545V102.546L274.24 100.221L274.24 100.221L274.24 100.22V95.2727L270.21 97.5998L266.053 95.2002L261.897 92.8007V83.2013L266.053 80.8019L270.21 78.4025L274.366 80.8019L278.523 83.2013V102.546L278.523 102.545L278.524 102.547L282.807 100.075V80.7284L282.805 80.7282ZM270.21 92.6538L274.24 90.3269V85.675L270.21 83.3481L266.181 85.675V90.3269L270.21 92.6538Z" fill="white"/>
</g>
<g clip-path="url(#clip2_1319_5459)">
<path fill-rule="evenodd" clip-rule="evenodd" d="M221.855 28.0005L221.856 28L218.392 26L214.928 24L211.464 26L208 28L208 28.0005V35.9999L211.464 37.9999L214.928 40V40.0002L217.145 38.7215L217.145 38.7213L217.145 38.7213V36L214.928 37.2799L212.642 35.9601L210.356 34.6404V29.3607L212.642 28.041L214.928 26.7214L217.214 28.041L219.501 29.3607V40.0001L219.5 40L219.501 40.0007L221.857 38.641V28.0006L221.855 28.0005ZM214.928 34.5596L217.145 33.2798V30.7213L214.928 29.4415L212.712 30.7213V33.2798L214.928 34.5596Z" fill="#DC244C"/>
</g>
<path d="M230.333 36L230.945 27.624H232.889L233.753 32.088L234.005 33.912L234.257 32.088L235.073 27.624H237.005L237.617 36H236.129L235.937 31.116L235.901 29.112L235.529 31.116L234.569 36H233.345L232.397 31.116L232.037 29.1L231.989 31.116L231.809 36H230.333ZM239.482 34.056V32.796H244.234V34.056H239.482ZM240.67 27.624H242.878L245.314 36H243.766L242.266 30.72L241.774 28.752L241.258 30.732L239.746 36H238.234L240.67 27.624ZM246.423 36V27.624H248.319L251.427 34.08L251.319 31.344V27.624H252.747V36H250.863L247.731 29.628L247.851 32.28V36H246.423ZM255.091 34.056V32.796H259.843V34.056H255.091ZM256.279 27.624H258.487L260.923 36H259.375L257.875 30.72L257.383 28.752L256.867 30.732L255.355 36H253.843L256.279 27.624ZM265.296 36.144C264.56 36.144 263.916 35.964 263.364 35.604C262.812 35.244 262.38 34.74 262.068 34.092C261.764 33.444 261.612 32.684 261.612 31.812C261.612 30.948 261.764 30.192 262.068 29.544C262.38 28.896 262.816 28.392 263.376 28.032C263.944 27.664 264.612 27.48 265.38 27.48C265.948 27.48 266.468 27.596 266.94 27.828C267.412 28.052 267.796 28.38 268.092 28.812C268.396 29.236 268.568 29.752 268.608 30.36H266.952C266.896 29.88 266.728 29.492 266.448 29.196C266.168 28.892 265.8 28.74 265.344 28.74C264.936 28.74 264.568 28.864 264.24 29.112C263.912 29.352 263.652 29.7 263.46 30.156C263.276 30.612 263.184 31.164 263.184 31.812C263.184 32.468 263.28 33.028 263.472 33.492C263.672 33.948 263.94 34.296 264.276 34.536C264.612 34.768 264.996 34.884 265.428 34.884C265.796 34.884 266.12 34.82 266.4 34.692C266.68 34.564 266.92 34.396 267.12 34.188V32.772L265.776 32.82L265.824 31.548H268.608V34.62C268.272 35.1 267.824 35.476 267.264 35.748C266.704 36.012 266.048 36.144 265.296 36.144ZM270.053 36V27.624H276.125V28.884H271.553V31.032H274.637V32.292H271.553V34.74H276.173V36H270.053ZM277.665 36V27.624H280.317C280.941 27.624 281.497 27.724 281.985 27.924C282.481 28.116 282.901 28.396 283.245 28.764C283.589 29.124 283.853 29.56 284.037 30.072C284.221 30.584 284.313 31.156 284.313 31.788C284.313 32.428 284.221 33.008 284.037 33.528C283.853 34.04 283.589 34.484 283.245 34.86C282.901 35.228 282.481 35.512 281.985 35.712C281.497 35.904 280.941 36 280.317 36H277.665ZM279.165 34.74H280.317C280.829 34.74 281.265 34.62 281.625 34.38C281.985 34.132 282.261 33.788 282.453 33.348C282.653 32.9 282.753 32.38 282.753 31.788C282.753 31.196 282.653 30.684 282.453 30.252C282.261 29.812 281.985 29.476 281.625 29.244C281.265 29.004 280.829 28.884 280.317 28.884H279.165V34.74ZM296.527 36.144C295.783 36.144 295.139 35.964 294.595 35.604C294.059 35.236 293.643 34.724 293.347 34.068C293.051 33.412 292.903 32.66 292.903 31.812C292.903 30.932 293.055 30.168 293.359 29.52C293.663 28.872 294.091 28.372 294.643 28.02C295.195 27.66 295.843 27.48 296.587 27.48C297.179 27.48 297.715 27.596 298.195 27.828C298.683 28.06 299.079 28.392 299.383 28.824C299.695 29.248 299.871 29.764 299.911 30.372H298.267C298.211 29.876 298.035 29.48 297.739 29.184C297.443 28.888 297.055 28.74 296.575 28.74C296.167 28.74 295.803 28.864 295.483 29.112C295.163 29.352 294.915 29.704 294.739 30.168C294.563 30.624 294.475 31.172 294.475 31.812C294.475 32.46 294.563 33.012 294.739 33.468C294.923 33.924 295.167 34.276 295.471 34.524C295.783 34.764 296.135 34.884 296.527 34.884C296.863 34.884 297.155 34.816 297.403 34.68C297.659 34.536 297.867 34.336 298.027 34.08C298.187 33.824 298.279 33.524 298.303 33.18H299.959C299.903 33.78 299.727 34.304 299.431 34.752C299.143 35.192 298.751 35.536 298.255 35.784C297.767 36.024 297.191 36.144 296.527 36.144ZM301.524 36V27.624H303.036V34.74H307.308V36H301.524ZM312.028 36.144C311.308 36.144 310.676 35.968 310.132 35.616C309.596 35.264 309.18 34.764 308.884 34.116C308.588 33.468 308.44 32.7 308.44 31.812C308.44 30.924 308.588 30.156 308.884 29.508C309.18 28.852 309.596 28.352 310.132 28.008C310.676 27.656 311.308 27.48 312.028 27.48C312.748 27.48 313.376 27.656 313.912 28.008C314.448 28.352 314.864 28.848 315.16 29.496C315.456 30.144 315.604 30.916 315.604 31.812C315.604 32.7 315.456 33.468 315.16 34.116C314.864 34.764 314.448 35.264 313.912 35.616C313.376 35.968 312.748 36.144 312.028 36.144ZM312.028 34.884C312.42 34.884 312.768 34.76 313.072 34.512C313.376 34.264 313.612 33.912 313.78 33.456C313.956 32.992 314.044 32.444 314.044 31.812C314.044 31.172 313.956 30.624 313.78 30.168C313.612 29.704 313.376 29.352 313.072 29.112C312.768 28.864 312.42 28.74 312.028 28.74C311.636 28.74 311.284 28.864 310.972 29.112C310.668 29.36 310.432 29.716 310.264 30.18C310.096 30.636 310.012 31.18 310.012 31.812C310.012 32.444 310.096 32.992 310.264 33.456C310.432 33.912 310.668 34.264 310.972 34.512C311.284 34.76 311.636 34.884 312.028 34.884ZM319.821 36.144C319.141 36.144 318.553 36.016 318.057 35.76C317.561 35.496 317.177 35.132 316.905 34.668C316.641 34.196 316.509 33.648 316.509 33.024V27.624H318.021V33.024C318.021 33.4 318.093 33.728 318.237 34.008C318.389 34.28 318.601 34.492 318.873 34.644C319.145 34.796 319.461 34.872 319.821 34.872C320.189 34.872 320.505 34.796 320.769 34.644C321.041 34.492 321.249 34.28 321.393 34.008C321.545 33.728 321.621 33.4 321.621 33.024V27.624H323.145V33.024C323.145 33.648 323.009 34.196 322.737 34.668C322.465 35.132 322.081 35.496 321.585 35.76C321.089 36.016 320.501 36.144 319.821 36.144ZM324.494 36V27.624H327.146C327.77 27.624 328.326 27.724 328.814 27.924C329.31 28.116 329.73 28.396 330.074 28.764C330.418 29.124 330.682 29.56 330.866 30.072C331.05 30.584 331.142 31.156 331.142 31.788C331.142 32.428 331.05 33.008 330.866 33.528C330.682 34.04 330.418 34.484 330.074 34.86C329.73 35.228 329.31 35.512 328.814 35.712C328.326 35.904 327.77 36 327.146 36H324.494ZM325.994 34.74H327.146C327.658 34.74 328.094 34.62 328.454 34.38C328.814 34.132 329.09 33.788 329.282 33.348C329.482 32.9 329.582 32.38 329.582 31.788C329.582 31.196 329.482 30.684 329.282 30.252C329.09 29.812 328.814 29.476 328.454 29.244C328.094 29.004 327.658 28.884 327.146 28.884H325.994V34.74Z" fill="#3D4866"/>
<defs>
<linearGradient id="paint0_linear_1319_5459" x1="501.323" y1="215.338" x2="495.177" y2="233.495" gradientUnits="userSpaceOnUse">
<stop stop-color="#114A8B"/>
<stop offset="1" stop-color="#0669BC"/>
</linearGradient>
<linearGradient id="paint1_linear_1319_5459" x1="503.243" y1="223.8" x2="501.821" y2="224.281" gradientUnits="userSpaceOnUse">
<stop stop-opacity="0.3"/>
<stop offset="0.071" stop-opacity="0.2"/>
<stop offset="0.321" stop-opacity="0.1"/>
<stop offset="0.623" stop-opacity="0.05"/>
<stop offset="1" stop-opacity="0"/>
</linearGradient>
<linearGradient id="paint2_linear_1319_5459" x1="502.462" y1="214.809" x2="509.209" y2="232.783" gradientUnits="userSpaceOnUse">
<stop stop-color="#3CCBF4"/>
<stop offset="1" stop-color="#2892DF"/>
</linearGradient>
<linearGradient id="paint3_linear_1319_5459" x1="283.86" y1="71.9995" x2="283.86" y2="120" gradientUnits="userSpaceOnUse">
<stop stop-color="#161E33"/>
<stop offset="1" stop-color="#0E1424"/>
</linearGradient>
<linearGradient id="paint4_linear_1319_5459" x1="256.145" y1="71.9995" x2="256.145" y2="120" gradientUnits="userSpaceOnUse">
<stop stop-color="#161E33"/>
<stop offset="1" stop-color="#0E1424"/>
</linearGradient>
<linearGradient id="paint5_linear_1319_5459" x1="270.002" y1="56" x2="270.002" y2="88" gradientUnits="userSpaceOnUse">
<stop stop-color="#2F3F6D"/>
<stop offset="0.355174" stop-color="#233053"/>
<stop offset="1" stop-color="#0E1424"/>
</linearGradient>
<clipPath id="clip0_1319_5459">
<rect width="13.8" height="16" fill="white" transform="translate(200 271)"/>
</clipPath>
<clipPath id="clip1_1319_5459">
<rect width="25.0909" height="29.0909" fill="white" transform="translate(257.613 73.4545)"/>
</clipPath>
<clipPath id="clip2_1319_5459">
<rect width="13.8" height="16" fill="white" transform="translate(208 24)"/>
</clipPath>
</defs>
</svg>
