<svg width="394" height="420" viewBox="0 0 394 420" fill="none" xmlns="http://www.w3.org/2000/svg">
<path opacity="0.2" d="M39.4144 272.758V91.2392L196.484 0.478552L353.586 91.2556V272.758L196.5 363.529L39.4144 272.758Z" fill="url(#paint0_linear_7517_33626)" stroke="#D4D9E6" stroke-width="0.828702"/>
<path d="M78.4273 250.251V113.747L196.488 45.4936L314.573 113.759V250.251L196.5 318.512L78.4273 250.251Z" fill="url(#paint1_linear_7517_33626)" stroke="#D4D9E6" stroke-width="0.854599"/>
<path d="M106.584 233.656V130.131L196.631 78.366L286.697 130.14V233.656L196.64 285.427L106.584 233.656Z" fill="url(#paint2_linear_7517_33626)" stroke="#D4D9E6" stroke-width="0.776909"/>
<path d="M154.172 176.453L152.328 177.521V179.658L154.172 180.726L156.016 179.658V177.521L154.172 176.453Z" fill="#8547FF"/>
<path d="M241.961 225.398L240.117 226.467V228.603L241.961 229.671L243.805 228.603V226.467L241.961 225.398Z" fill="#8547FF"/>
<path d="M182.918 222.293L181.074 223.361V225.498L182.918 226.566L184.762 225.498V223.361L182.918 222.293Z" fill="#8547FF"/>
<path d="M236.524 129.062L234.68 130.131V132.267L236.524 133.335L238.367 132.267V130.131L236.524 129.062Z" fill="#8547FF"/>
<path d="M239.633 170.238L237.789 171.307V173.443L239.633 174.511L241.477 173.443V171.307L239.633 170.238Z" fill="#8547FF"/>
<path d="M175.149 120.516L173.305 121.584V123.72L175.149 124.789L176.992 123.72V121.584L175.149 120.516Z" fill="#8547FF"/>
<path d="M213.219 243.27L211.375 244.338V246.474L213.219 247.543L215.063 246.474V244.338L213.219 243.27Z" fill="#2F6FF0"/>
<path d="M236.524 199.762L234.68 200.83V202.966L236.524 204.035L238.367 202.966V200.83L236.524 199.762Z" fill="#2F6FF0"/>
<path d="M154.172 231.613L152.328 232.682V234.818L154.172 235.886L156.016 234.818V232.682L154.172 231.613Z" fill="#2F6FF0"/>
<path d="M133.195 164.023L131.352 165.092V167.228L133.195 168.296L135.039 167.228V165.092L133.195 164.023Z" fill="#2F6FF0"/>
<path d="M224.871 146.93L223.027 147.998V150.134L224.871 151.203L226.715 150.134V147.998L224.871 146.93Z" fill="#2F6FF0"/>
<path d="M253.617 153.145L251.773 154.213V156.349L253.617 157.418L255.461 156.349V154.213L253.617 153.145Z" fill="#DC244C"/>
<path d="M166.602 150.039L164.758 151.107V153.244L166.602 154.312L168.445 153.244V151.107L166.602 150.039Z" fill="#DC244C"/>
<path d="M159.609 207.531L157.766 208.599V210.736L159.609 211.804L161.453 210.736V208.599L159.609 207.531Z" fill="#DC244C"/>
<path d="M210.887 219.184L209.043 220.252V222.388L210.887 223.457L212.731 222.388V220.252L210.887 219.184Z" fill="#DC244C"/>
<path d="M208.555 114.301L206.711 115.369V117.506L208.555 118.574L210.399 117.506V115.369L208.555 114.301Z" fill="#DC244C"/>
<path d="M135.527 201.316L133.684 202.385V204.521L135.527 205.589L137.371 204.521V202.385L135.527 201.316Z" fill="#038585"/>
<path d="M259.055 174.898L257.211 175.967V178.103L259.055 179.171L260.899 178.103V175.967L259.055 174.898Z" fill="#038585"/>
<path d="M200.008 138.387L198.164 139.455V141.591L200.008 142.66L201.852 141.591V139.455L200.008 138.387Z" fill="#038585"/>
<path d="M253.617 201.316L251.773 202.385V204.521L253.617 205.589L255.461 204.521V202.385L253.617 201.316Z" fill="#038585"/>
<path d="M148.734 135.277L146.891 136.346V138.482L148.734 139.55L150.578 138.482V136.346L148.734 135.277Z" fill="#038585"/>
<path d="M177.481 243.27L175.637 244.338V246.474L177.481 247.543L179.324 246.474V244.338L177.481 243.27Z" fill="#038585"/>
<g filter="url(#filter0_dd_7517_33626)">
<rect x="86.0938" y="109.965" width="39.8813" height="39.8813" rx="4.98516" fill="#F0F3FA" shape-rendering="crispEdges"/>
<rect x="86.4053" y="110.276" width="39.2582" height="39.2582" rx="4.67359" stroke="#D4D9E6" stroke-width="0.623145" shape-rendering="crispEdges"/>
<g clip-path="url(#clip0_7517_33626)">
<path d="M112.677 133.147C114.089 132.815 115.17 131.486 115.17 129.907C115.17 128.079 113.674 126.584 111.846 126.584C111.597 123.343 108.938 120.768 105.615 120.768C102.291 120.768 99.5494 123.426 99.3832 126.667C97.9707 126.999 96.8906 128.328 96.8906 129.907C96.8906 131.486 97.9707 132.732 99.3832 133.147" stroke="#8547FF" stroke-width="1.66172" stroke-linecap="round" stroke-linejoin="round"/>
<path d="M110.185 131.568L105.2 136.554L102.707 134.061" stroke="#8547FF" stroke-width="1.66172" stroke-linecap="round" stroke-linejoin="round"/>
</g>
</g>
<g filter="url(#filter1_dd_7517_33626)">
<rect x="267.699" y="109.965" width="39.8813" height="39.8813" rx="4.98516" fill="#F0F3FA" shape-rendering="crispEdges"/>
<rect x="268.011" y="110.276" width="39.2582" height="39.2582" rx="4.67359" stroke="#D4D9E6" stroke-width="0.623145" shape-rendering="crispEdges"/>
<g clip-path="url(#clip1_7517_33626)">
<path d="M289.296 131.568H285.973V139.046H289.296V131.568Z" stroke="#2F6FF0" stroke-width="1.66172" stroke-linecap="round" stroke-linejoin="round"/>
<path d="M281.82 134.893H278.496V139.047H281.82V134.893Z" stroke="#2F6FF0" stroke-width="1.66172" stroke-linecap="round" stroke-linejoin="round"/>
<path d="M296.777 128.246H293.453V139.047H296.777V128.246Z" stroke="#2F6FF0" stroke-width="1.66172" stroke-linecap="round" stroke-linejoin="round"/>
<path d="M280.156 128.245L284.311 124.091L287.634 127.414L294.281 120.768" stroke="#2F6FF0" stroke-width="1.66172" stroke-linecap="round" stroke-linejoin="round"/>
<path d="M290.129 120.768H294.283V124.922" stroke="#2F6FF0" stroke-width="1.66172" stroke-linecap="round" stroke-linejoin="round"/>
</g>
</g>
<g filter="url(#filter2_dd_7517_33626)">
<rect x="267.699" y="214.652" width="39.8813" height="39.8813" rx="4.98516" fill="#F0F3FA" shape-rendering="crispEdges"/>
<rect x="268.011" y="214.964" width="39.2582" height="39.2582" rx="4.67359" stroke="#D4D9E6" stroke-width="0.623145" shape-rendering="crispEdges"/>
<path d="M287.637 228.777V232.932" stroke="#038585" stroke-width="1.66172" stroke-linecap="round" stroke-linejoin="round"/>
<path d="M287.637 236.256V240.41" stroke="#038585" stroke-width="1.66172" stroke-linecap="round" stroke-linejoin="round"/>
<path d="M282.438 230.04L286.189 227.93" stroke="#038585" stroke-width="1.66172" stroke-linecap="round" stroke-linejoin="round"/>
<path d="M292.837 230.04L289.086 227.93" stroke="#038585" stroke-width="1.66172" stroke-linecap="round" stroke-linejoin="round"/>
<path d="M282.438 239.146L286.189 241.257" stroke="#038585" stroke-width="1.66172" stroke-linecap="round" stroke-linejoin="round"/>
<path d="M292.837 239.146L289.086 241.257" stroke="#038585" stroke-width="1.66172" stroke-linecap="round" stroke-linejoin="round"/>
<path d="M280.992 232.516V236.67" stroke="#038585" stroke-width="1.66172" stroke-linecap="round" stroke-linejoin="round"/>
<path d="M294.285 232.516V236.67" stroke="#038585" stroke-width="1.66172" stroke-linecap="round" stroke-linejoin="round"/>
<path d="M286.19 233.779L282.438 231.668" stroke="#038585" stroke-width="1.66172" stroke-linecap="round" stroke-linejoin="round"/>
<path d="M289.086 233.779L292.836 231.67" stroke="#038585" stroke-width="1.66172" stroke-linecap="round" stroke-linejoin="round"/>
<path d="M286.19 235.408L282.438 237.519" stroke="#038585" stroke-width="1.66172" stroke-linecap="round" stroke-linejoin="round"/>
<path d="M289.086 235.408L292.836 237.518" stroke="#038585" stroke-width="1.66172" stroke-linecap="round" stroke-linejoin="round"/>
<path d="M280.99 239.993C281.908 239.993 282.652 239.249 282.652 238.332C282.652 237.414 281.908 236.67 280.99 236.67C280.072 236.67 279.328 237.414 279.328 238.332C279.328 239.249 280.072 239.993 280.99 239.993Z" stroke="#038585" stroke-width="1.66172" stroke-linecap="round" stroke-linejoin="round"/>
<path d="M280.99 232.517C281.908 232.517 282.652 231.773 282.652 230.855C282.652 229.937 281.908 229.193 280.99 229.193C280.072 229.193 279.328 229.937 279.328 230.855C279.328 231.773 280.072 232.517 280.99 232.517Z" stroke="#038585" stroke-width="1.66172" stroke-linecap="round" stroke-linejoin="round"/>
<path d="M294.287 239.993C295.204 239.993 295.948 239.249 295.948 238.332C295.948 237.414 295.204 236.67 294.287 236.67C293.369 236.67 292.625 237.414 292.625 238.332C292.625 239.249 293.369 239.993 294.287 239.993Z" stroke="#038585" stroke-width="1.66172" stroke-linecap="round" stroke-linejoin="round"/>
<path d="M294.287 232.517C295.204 232.517 295.948 231.773 295.948 230.855C295.948 229.937 295.204 229.193 294.287 229.193C293.369 229.193 292.625 229.937 292.625 230.855C292.625 231.773 293.369 232.517 294.287 232.517Z" stroke="#038585" stroke-width="1.66172" stroke-linecap="round" stroke-linejoin="round"/>
<path d="M287.638 236.255C288.556 236.255 289.3 235.511 289.3 234.593C289.3 233.676 288.556 232.932 287.638 232.932C286.721 232.932 285.977 233.676 285.977 234.593C285.977 235.511 286.721 236.255 287.638 236.255Z" stroke="#038585" stroke-width="1.66172" stroke-linecap="round" stroke-linejoin="round"/>
<path d="M287.638 228.777C288.556 228.777 289.3 228.033 289.3 227.115C289.3 226.197 288.556 225.453 287.638 225.453C286.721 225.453 285.977 226.197 285.977 227.115C285.977 228.033 286.721 228.777 287.638 228.777Z" stroke="#038585" stroke-width="1.66172" stroke-linecap="round" stroke-linejoin="round"/>
<path d="M287.638 243.734C288.556 243.734 289.3 242.99 289.3 242.072C289.3 241.154 288.556 240.41 287.638 240.41C286.721 240.41 285.977 241.154 285.977 242.072C285.977 242.99 286.721 243.734 287.638 243.734Z" stroke="#038585" stroke-width="1.66172" stroke-linecap="round" stroke-linejoin="round"/>
</g>
<g filter="url(#filter3_dd_7517_33626)">
<rect x="86.0938" y="214.652" width="39.8813" height="39.8813" rx="4.98516" fill="#F0F3FA" shape-rendering="crispEdges"/>
<rect x="86.4053" y="214.964" width="39.2582" height="39.2582" rx="4.67359" stroke="#D4D9E6" stroke-width="0.623145" shape-rendering="crispEdges"/>
<path d="M106.034 243.732C111.082 243.732 115.173 239.64 115.173 234.593C115.173 229.545 111.082 225.453 106.034 225.453C100.986 225.453 96.8945 229.545 96.8945 234.593C96.8945 239.64 100.986 243.732 106.034 243.732Z" stroke="#FF8D39" stroke-width="1.66172" stroke-linecap="round" stroke-linejoin="round"/>
<path d="M104.862 233.422L101.879 230.439" stroke="#FF8D39" stroke-width="1.66172" stroke-linecap="round" stroke-linejoin="round"/>
<path d="M106.033 236.255C106.951 236.255 107.695 235.511 107.695 234.593C107.695 233.676 106.951 232.932 106.033 232.932C105.115 232.932 104.371 233.676 104.371 234.593C104.371 235.511 105.115 236.255 106.033 236.255Z" stroke="#FF8D39" stroke-width="1.66172" stroke-linecap="round" stroke-linejoin="round"/>
<path d="M106.031 228.777V229.608" stroke="#FF8D39" stroke-width="1.66172" stroke-linecap="round" stroke-linejoin="round"/>
<path d="M110.146 230.48L109.559 231.068" stroke="#FF8D39" stroke-width="1.66172" stroke-linecap="round" stroke-linejoin="round"/>
<path d="M111.85 234.594H111.02" stroke="#FF8D39" stroke-width="1.66172" stroke-linecap="round" stroke-linejoin="round"/>
<path d="M101.05 234.594H100.219" stroke="#FF8D39" stroke-width="1.66172" stroke-linecap="round" stroke-linejoin="round"/>
</g>
<g clip-path="url(#clip2_7517_33626)">
<g filter="url(#filter4_dd_7517_33626)">
<mask id="path-68-inside-1_7517_33626" fill="white">
<path d="M119.02 269.022C119.02 265.875 121.57 263.324 124.717 263.324H205.904C209.05 263.324 211.601 265.875 211.601 269.022V414.303C211.601 417.45 209.05 420.001 205.904 420.001H124.717C121.57 420.001 119.02 417.45 119.02 414.303V269.022Z"/>
</mask>
<path d="M119.02 269.022C119.02 265.875 121.57 263.324 124.717 263.324H205.904C209.05 263.324 211.601 265.875 211.601 269.022V414.303C211.601 417.45 209.05 420.001 205.904 420.001H124.717C121.57 420.001 119.02 417.45 119.02 414.303V269.022Z" fill="url(#paint3_linear_7517_33626)"/>
<path d="M119.02 269.022C119.02 265.482 121.889 262.612 125.429 262.612H205.192C208.732 262.612 211.601 265.482 211.601 269.022C211.601 266.268 209.05 264.036 205.904 264.036H124.717C121.57 264.036 119.02 266.268 119.02 269.022ZM211.601 420.001H119.02H211.601ZM119.02 420.001V263.324V420.001ZM211.601 263.324V420.001V263.324Z" fill="#3D4866" mask="url(#path-68-inside-1_7517_33626)"/>
</g>
<g opacity="0.4" filter="url(#filter5_f_7517_33626)">
<circle cx="206.049" cy="267.74" r="13.6736" fill="#2F6FF0"/>
</g>
</g>
<rect x="115.457" y="263.324" width="79.7626" height="156.677" rx="2.84866" fill="#001848"/>
<rect x="118.305" y="266.172" width="74.0653" height="150.979" rx="2.84866" fill="#090E1A"/>
<rect x="121.156" y="266.172" width="71.2166" height="150.979" rx="2.84866" fill="url(#paint4_linear_7517_33626)"/>
<rect x="126.852" y="274.719" width="59.822" height="9.97033" rx="4.98516" fill="#28324D"/>
<rect x="132.551" y="278.992" width="34.184" height="1.42433" rx="0.712166" fill="url(#paint5_linear_7517_33626)"/>
<circle cx="171.006" cy="279.706" r="1.42433" fill="#2F6FF0"/>
<circle cx="175.28" cy="279.706" r="1.42433" fill="#8547FF"/>
<circle cx="179.549" cy="279.706" r="1.42433" fill="#038585"/>
<rect x="126.852" y="306.055" width="59.822" height="9.97033" rx="4.98516" fill="#28324D"/>
<rect x="132.551" y="310.328" width="34.184" height="1.42433" rx="0.712166" fill="url(#paint6_linear_7517_33626)"/>
<circle cx="171.006" cy="311.042" r="1.42433" fill="#2F6FF0"/>
<circle cx="175.28" cy="311.042" r="1.42433" fill="#8547FF"/>
<circle cx="179.549" cy="311.042" r="1.42433" fill="#038585"/>
<rect x="126.852" y="337.391" width="59.822" height="9.97033" rx="4.98516" fill="#28324D"/>
<rect x="132.551" y="341.664" width="34.184" height="1.42433" rx="0.712166" fill="url(#paint7_linear_7517_33626)"/>
<circle cx="171.006" cy="342.377" r="1.42433" fill="#2F6FF0"/>
<circle cx="175.28" cy="342.377" r="1.42433" fill="#8547FF"/>
<circle cx="179.549" cy="342.377" r="1.42433" fill="#038585"/>
<rect x="126.852" y="368.727" width="59.822" height="9.97033" rx="4.98516" fill="#28324D"/>
<rect x="132.551" y="373" width="34.184" height="1.42433" rx="0.712166" fill="url(#paint8_linear_7517_33626)"/>
<circle cx="171.006" cy="373.713" r="1.42433" fill="#2F6FF0"/>
<circle cx="175.28" cy="373.713" r="1.42433" fill="#8547FF"/>
<circle cx="179.549" cy="373.713" r="1.42433" fill="#038585"/>
<rect x="126.852" y="290.387" width="59.822" height="9.97033" rx="4.98516" fill="#28324D"/>
<rect x="146.793" y="294.66" width="34.184" height="1.42433" rx="0.712166" fill="url(#paint9_linear_7517_33626)"/>
<circle cx="133.975" cy="295.374" r="1.42433" fill="#2F6FF0"/>
<circle cx="138.245" cy="295.374" r="1.42433" fill="#8547FF"/>
<circle cx="142.518" cy="295.374" r="1.42433" fill="#038585"/>
<rect x="126.852" y="321.723" width="59.822" height="9.97033" rx="4.98516" fill="#28324D"/>
<rect x="146.793" y="325.996" width="34.184" height="1.42433" rx="0.712166" fill="url(#paint10_linear_7517_33626)"/>
<circle cx="133.975" cy="326.71" r="1.42433" fill="#2F6FF0"/>
<circle cx="138.245" cy="326.71" r="1.42433" fill="#8547FF"/>
<circle cx="142.518" cy="326.71" r="1.42433" fill="#038585"/>
<rect x="126.852" y="353.059" width="59.822" height="9.97033" rx="4.98516" fill="#28324D"/>
<rect x="146.793" y="357.332" width="34.184" height="1.42433" rx="0.712166" fill="url(#paint11_linear_7517_33626)"/>
<circle cx="133.975" cy="358.045" r="1.42433" fill="#2F6FF0"/>
<circle cx="138.245" cy="358.045" r="1.42433" fill="#8547FF"/>
<circle cx="142.518" cy="358.045" r="1.42433" fill="#038585"/>
<rect x="126.852" y="384.391" width="59.822" height="9.97033" rx="4.98516" fill="#28324D"/>
<rect x="146.793" y="388.664" width="34.184" height="1.42433" rx="0.712166" fill="url(#paint12_linear_7517_33626)"/>
<circle cx="133.975" cy="389.377" r="1.42433" fill="#2F6FF0"/>
<circle cx="138.245" cy="389.377" r="1.42433" fill="#8547FF"/>
<circle cx="142.518" cy="389.377" r="1.42433" fill="#038585"/>
<rect x="198.07" y="280.418" width="11.3947" height="17.092" rx="2.84866" fill="#090E1A"/>
<rect x="198.07" y="303.207" width="11.3947" height="17.092" rx="2.84866" fill="#090E1A"/>
<g clip-path="url(#clip3_7517_33626)">
<g filter="url(#filter6_dd_7517_33626)">
<mask id="path-117-inside-2_7517_33626" fill="white">
<path d="M208.75 300.357C208.75 297.211 211.301 294.66 214.447 294.66H277.118C280.264 294.66 282.815 297.211 282.815 300.357V414.304C282.815 417.451 280.265 420.001 277.118 420.001H214.447C211.301 420.001 208.75 417.451 208.75 414.304V300.357Z"/>
</mask>
<path d="M208.75 300.357C208.75 297.211 211.301 294.66 214.447 294.66H277.118C280.264 294.66 282.815 297.211 282.815 300.357V414.304C282.815 417.451 280.265 420.001 277.118 420.001H214.447C211.301 420.001 208.75 417.451 208.75 414.304V300.357Z" fill="url(#paint13_linear_7517_33626)"/>
<path d="M208.75 300.357C208.75 296.818 211.62 293.948 215.159 293.948H276.406C279.946 293.948 282.815 296.818 282.815 300.357C282.815 297.604 280.265 295.372 277.118 295.372H214.447C211.301 295.372 208.75 297.604 208.75 300.357ZM282.815 420.001H208.75H282.815ZM208.75 420.001V294.66V420.001ZM282.815 294.66V420.001V294.66Z" fill="#3D4866" mask="url(#path-117-inside-2_7517_33626)"/>
</g>
<g opacity="0.4" filter="url(#filter7_f_7517_33626)">
<circle cx="274.412" cy="300.502" r="13.6736" fill="#2F6FF0"/>
</g>
</g>
<rect x="205.902" y="294.66" width="63.8101" height="125.341" rx="2.27893" fill="#001848"/>
<rect x="208.18" y="296.938" width="59.2522" height="120.783" rx="2.27893" fill="#090E1A"/>
<rect x="210.461" y="296.938" width="56.9733" height="120.783" rx="2.27893" fill="url(#paint14_linear_7517_33626)"/>
<rect x="215.02" y="303.777" width="47.8576" height="7.97626" rx="3.98813" fill="#28324D"/>
<rect x="219.578" y="307.195" width="27.3472" height="1.13947" rx="0.569733" fill="url(#paint15_linear_7517_33626)"/>
<circle cx="250.343" cy="307.764" r="1.13947" fill="#2F6FF0"/>
<circle cx="253.764" cy="307.764" r="1.13947" fill="#8547FF"/>
<circle cx="257.179" cy="307.764" r="1.13947" fill="#038585"/>
<rect x="215.02" y="328.844" width="47.8576" height="7.97626" rx="3.98813" fill="#28324D"/>
<rect x="219.578" y="332.262" width="27.3472" height="1.13947" rx="0.569733" fill="url(#paint16_linear_7517_33626)"/>
<circle cx="250.343" cy="332.831" r="1.13947" fill="#2F6FF0"/>
<circle cx="253.764" cy="332.831" r="1.13947" fill="#8547FF"/>
<circle cx="257.179" cy="332.831" r="1.13947" fill="#038585"/>
<rect x="215.02" y="353.914" width="47.8576" height="7.97626" rx="3.98813" fill="#28324D"/>
<rect x="219.578" y="357.332" width="27.3472" height="1.13947" rx="0.569733" fill="url(#paint17_linear_7517_33626)"/>
<circle cx="250.343" cy="357.901" r="1.13947" fill="#2F6FF0"/>
<circle cx="253.764" cy="357.901" r="1.13947" fill="#8547FF"/>
<circle cx="257.179" cy="357.901" r="1.13947" fill="#038585"/>
<rect x="215.02" y="378.98" width="47.8576" height="7.97626" rx="3.98813" fill="#28324D"/>
<rect x="219.578" y="382.398" width="27.3472" height="1.13947" rx="0.569733" fill="url(#paint18_linear_7517_33626)"/>
<circle cx="250.343" cy="382.968" r="1.13947" fill="#2F6FF0"/>
<circle cx="253.764" cy="382.968" r="1.13947" fill="#8547FF"/>
<circle cx="257.179" cy="382.968" r="1.13947" fill="#038585"/>
<rect x="215.02" y="316.309" width="47.8576" height="7.97626" rx="3.98813" fill="#28324D"/>
<rect x="230.973" y="319.727" width="27.3472" height="1.13947" rx="0.569733" fill="url(#paint19_linear_7517_33626)"/>
<circle cx="220.718" cy="320.296" r="1.13947" fill="#2F6FF0"/>
<circle cx="224.136" cy="320.296" r="1.13947" fill="#8547FF"/>
<circle cx="227.554" cy="320.296" r="1.13947" fill="#038585"/>
<rect x="215.02" y="341.379" width="47.8576" height="7.97626" rx="3.98813" fill="#28324D"/>
<rect x="230.973" y="344.797" width="27.3472" height="1.13947" rx="0.569733" fill="url(#paint20_linear_7517_33626)"/>
<circle cx="220.718" cy="345.366" r="1.13947" fill="#2F6FF0"/>
<circle cx="224.136" cy="345.366" r="1.13947" fill="#8547FF"/>
<circle cx="227.554" cy="345.366" r="1.13947" fill="#038585"/>
<rect x="215.02" y="366.445" width="47.8576" height="7.97626" rx="3.98813" fill="#28324D"/>
<rect x="230.973" y="369.863" width="27.3472" height="1.13947" rx="0.569733" fill="url(#paint21_linear_7517_33626)"/>
<circle cx="220.718" cy="370.432" r="1.13947" fill="#2F6FF0"/>
<circle cx="224.136" cy="370.432" r="1.13947" fill="#8547FF"/>
<circle cx="227.554" cy="370.432" r="1.13947" fill="#038585"/>
<rect x="215.02" y="391.516" width="47.8576" height="7.97626" rx="3.98813" fill="#28324D"/>
<rect x="230.973" y="394.934" width="27.3472" height="1.13947" rx="0.569733" fill="url(#paint22_linear_7517_33626)"/>
<circle cx="220.718" cy="395.503" r="1.13947" fill="#2F6FF0"/>
<circle cx="224.136" cy="395.503" r="1.13947" fill="#8547FF"/>
<circle cx="227.554" cy="395.503" r="1.13947" fill="#038585"/>
<rect x="271.992" y="308.336" width="9.11573" height="13.6736" rx="2.27893" fill="#090E1A"/>
<rect x="271.992" y="326.566" width="9.11573" height="13.6736" rx="2.27893" fill="#090E1A"/>
<path d="M197 212V214.077C197 223.516 204.652 231.169 214.092 231.169H222.908C232.348 231.169 240 238.821 240 248.261V294" stroke="#2F6FF0" stroke-width="0.712166"/>
<path d="M197 212V212C197 221.218 189.527 228.691 180.309 228.691H171.092C161.652 228.691 154 236.343 154 245.783V263" stroke="#2F6FF0" stroke-width="0.712166"/>
<path fill-rule="evenodd" clip-rule="evenodd" d="M224.348 166L196.633 182L196.635 214L224.348 198V166Z" fill="url(#paint23_linear_7517_33626)"/>
<path fill-rule="evenodd" clip-rule="evenodd" d="M168.918 166L196.633 182L196.631 214L168.918 198V166Z" fill="url(#paint24_linear_7517_33626)"/>
<path fill-rule="evenodd" clip-rule="evenodd" d="M224.343 166L196.634 182L168.918 166L196.63 150L224.343 166Z" fill="url(#paint25_linear_7517_33626)"/>
<g clip-path="url(#clip4_7517_33626)">
<path fill-rule="evenodd" clip-rule="evenodd" d="M209.434 174.729L209.436 174.728L203.136 171.091L196.839 167.455L190.539 171.091L184.242 174.728L184.242 174.729V189.273L190.54 192.909L196.839 196.546V196.546L200.869 194.221L200.869 194.221L200.869 194.221V189.273L196.839 191.6L192.682 189.201L188.526 186.801V177.202L192.682 174.802L196.839 172.403L200.995 174.802L205.152 177.202V196.546L205.152 196.546L205.153 196.547L209.436 194.075V174.729L209.434 174.729ZM196.839 186.654L200.869 184.327V179.676L196.839 177.349L192.81 179.676V184.327L196.839 186.654Z" fill="white"/>
</g>
<defs>
<filter id="filter0_dd_7517_33626" x="73.6308" y="103.733" width="64.8086" height="64.8067" filterUnits="userSpaceOnUse" color-interpolation-filters="sRGB">
<feFlood flood-opacity="0" result="BackgroundImageFix"/>
<feColorMatrix in="SourceAlpha" type="matrix" values="0 0 0 0 0 0 0 0 0 0 0 0 0 0 0 0 0 0 127 0" result="hardAlpha"/>
<feOffset dy="6.23145"/>
<feGaussianBlur stdDeviation="6.23145"/>
<feComposite in2="hardAlpha" operator="out"/>
<feColorMatrix type="matrix" values="0 0 0 0 0.088 0 0 0 0 0.117867 0 0 0 0 0.2 0 0 0 0.1 0"/>
<feBlend mode="normal" in2="BackgroundImageFix" result="effect1_dropShadow_7517_33626"/>
<feColorMatrix in="SourceAlpha" type="matrix" values="0 0 0 0 0 0 0 0 0 0 0 0 0 0 0 0 0 0 127 0" result="hardAlpha"/>
<feOffset dy="0.623145"/>
<feGaussianBlur stdDeviation="0.623145"/>
<feComposite in2="hardAlpha" operator="out"/>
<feColorMatrix type="matrix" values="0 0 0 0 0.088 0 0 0 0 0.117867 0 0 0 0 0.2 0 0 0 0.1 0"/>
<feBlend mode="normal" in2="effect1_dropShadow_7517_33626" result="effect2_dropShadow_7517_33626"/>
<feBlend mode="normal" in="SourceGraphic" in2="effect2_dropShadow_7517_33626" result="shape"/>
</filter>
<filter id="filter1_dd_7517_33626" x="255.236" y="103.733" width="64.8086" height="64.8067" filterUnits="userSpaceOnUse" color-interpolation-filters="sRGB">
<feFlood flood-opacity="0" result="BackgroundImageFix"/>
<feColorMatrix in="SourceAlpha" type="matrix" values="0 0 0 0 0 0 0 0 0 0 0 0 0 0 0 0 0 0 127 0" result="hardAlpha"/>
<feOffset dy="6.23145"/>
<feGaussianBlur stdDeviation="6.23145"/>
<feComposite in2="hardAlpha" operator="out"/>
<feColorMatrix type="matrix" values="0 0 0 0 0.088 0 0 0 0 0.117867 0 0 0 0 0.2 0 0 0 0.1 0"/>
<feBlend mode="normal" in2="BackgroundImageFix" result="effect1_dropShadow_7517_33626"/>
<feColorMatrix in="SourceAlpha" type="matrix" values="0 0 0 0 0 0 0 0 0 0 0 0 0 0 0 0 0 0 127 0" result="hardAlpha"/>
<feOffset dy="0.623145"/>
<feGaussianBlur stdDeviation="0.623145"/>
<feComposite in2="hardAlpha" operator="out"/>
<feColorMatrix type="matrix" values="0 0 0 0 0.088 0 0 0 0 0.117867 0 0 0 0 0.2 0 0 0 0.1 0"/>
<feBlend mode="normal" in2="effect1_dropShadow_7517_33626" result="effect2_dropShadow_7517_33626"/>
<feBlend mode="normal" in="SourceGraphic" in2="effect2_dropShadow_7517_33626" result="shape"/>
</filter>
<filter id="filter2_dd_7517_33626" x="255.236" y="208.421" width="64.8086" height="64.8067" filterUnits="userSpaceOnUse" color-interpolation-filters="sRGB">
<feFlood flood-opacity="0" result="BackgroundImageFix"/>
<feColorMatrix in="SourceAlpha" type="matrix" values="0 0 0 0 0 0 0 0 0 0 0 0 0 0 0 0 0 0 127 0" result="hardAlpha"/>
<feOffset dy="6.23145"/>
<feGaussianBlur stdDeviation="6.23145"/>
<feComposite in2="hardAlpha" operator="out"/>
<feColorMatrix type="matrix" values="0 0 0 0 0.088 0 0 0 0 0.117867 0 0 0 0 0.2 0 0 0 0.1 0"/>
<feBlend mode="normal" in2="BackgroundImageFix" result="effect1_dropShadow_7517_33626"/>
<feColorMatrix in="SourceAlpha" type="matrix" values="0 0 0 0 0 0 0 0 0 0 0 0 0 0 0 0 0 0 127 0" result="hardAlpha"/>
<feOffset dy="0.623145"/>
<feGaussianBlur stdDeviation="0.623145"/>
<feComposite in2="hardAlpha" operator="out"/>
<feColorMatrix type="matrix" values="0 0 0 0 0.088 0 0 0 0 0.117867 0 0 0 0 0.2 0 0 0 0.1 0"/>
<feBlend mode="normal" in2="effect1_dropShadow_7517_33626" result="effect2_dropShadow_7517_33626"/>
<feBlend mode="normal" in="SourceGraphic" in2="effect2_dropShadow_7517_33626" result="shape"/>
</filter>
<filter id="filter3_dd_7517_33626" x="73.6308" y="208.421" width="64.8086" height="64.8067" filterUnits="userSpaceOnUse" color-interpolation-filters="sRGB">
<feFlood flood-opacity="0" result="BackgroundImageFix"/>
<feColorMatrix in="SourceAlpha" type="matrix" values="0 0 0 0 0 0 0 0 0 0 0 0 0 0 0 0 0 0 127 0" result="hardAlpha"/>
<feOffset dy="6.23145"/>
<feGaussianBlur stdDeviation="6.23145"/>
<feComposite in2="hardAlpha" operator="out"/>
<feColorMatrix type="matrix" values="0 0 0 0 0.088 0 0 0 0 0.117867 0 0 0 0 0.2 0 0 0 0.1 0"/>
<feBlend mode="normal" in2="BackgroundImageFix" result="effect1_dropShadow_7517_33626"/>
<feColorMatrix in="SourceAlpha" type="matrix" values="0 0 0 0 0 0 0 0 0 0 0 0 0 0 0 0 0 0 127 0" result="hardAlpha"/>
<feOffset dy="0.623145"/>
<feGaussianBlur stdDeviation="0.623145"/>
<feComposite in2="hardAlpha" operator="out"/>
<feColorMatrix type="matrix" values="0 0 0 0 0.088 0 0 0 0 0.117867 0 0 0 0 0.2 0 0 0 0.1 0"/>
<feBlend mode="normal" in2="effect1_dropShadow_7517_33626" result="effect2_dropShadow_7517_33626"/>
<feBlend mode="normal" in="SourceGraphic" in2="effect2_dropShadow_7517_33626" result="shape"/>
</filter>
<filter id="filter4_dd_7517_33626" x="104.776" y="256.203" width="121.069" height="185.162" filterUnits="userSpaceOnUse" color-interpolation-filters="sRGB">
<feFlood flood-opacity="0" result="BackgroundImageFix"/>
<feColorMatrix in="SourceAlpha" type="matrix" values="0 0 0 0 0 0 0 0 0 0 0 0 0 0 0 0 0 0 127 0" result="hardAlpha"/>
<feOffset dy="7.12166"/>
<feGaussianBlur stdDeviation="7.12166"/>
<feComposite in2="hardAlpha" operator="out"/>
<feColorMatrix type="matrix" values="0 0 0 0 0.088 0 0 0 0 0.117867 0 0 0 0 0.2 0 0 0 0.1 0"/>
<feBlend mode="normal" in2="BackgroundImageFix" result="effect1_dropShadow_7517_33626"/>
<feColorMatrix in="SourceAlpha" type="matrix" values="0 0 0 0 0 0 0 0 0 0 0 0 0 0 0 0 0 0 127 0" result="hardAlpha"/>
<feOffset dy="0.712166"/>
<feGaussianBlur stdDeviation="0.712166"/>
<feComposite in2="hardAlpha" operator="out"/>
<feColorMatrix type="matrix" values="0 0 0 0 0.088 0 0 0 0 0.117867 0 0 0 0 0.2 0 0 0 0.1 0"/>
<feBlend mode="normal" in2="effect1_dropShadow_7517_33626" result="effect2_dropShadow_7517_33626"/>
<feBlend mode="normal" in="SourceGraphic" in2="effect2_dropShadow_7517_33626" result="shape"/>
</filter>
<filter id="filter5_f_7517_33626" x="165.028" y="226.719" width="82.042" height="82.042" filterUnits="userSpaceOnUse" color-interpolation-filters="sRGB">
<feFlood flood-opacity="0" result="BackgroundImageFix"/>
<feBlend mode="normal" in="SourceGraphic" in2="BackgroundImageFix" result="shape"/>
<feGaussianBlur stdDeviation="13.6736" result="effect1_foregroundBlur_7517_33626"/>
</filter>
<filter id="filter6_dd_7517_33626" x="194.507" y="287.538" width="102.553" height="153.828" filterUnits="userSpaceOnUse" color-interpolation-filters="sRGB">
<feFlood flood-opacity="0" result="BackgroundImageFix"/>
<feColorMatrix in="SourceAlpha" type="matrix" values="0 0 0 0 0 0 0 0 0 0 0 0 0 0 0 0 0 0 127 0" result="hardAlpha"/>
<feOffset dy="7.12166"/>
<feGaussianBlur stdDeviation="7.12166"/>
<feComposite in2="hardAlpha" operator="out"/>
<feColorMatrix type="matrix" values="0 0 0 0 0.088 0 0 0 0 0.117867 0 0 0 0 0.2 0 0 0 0.1 0"/>
<feBlend mode="normal" in2="BackgroundImageFix" result="effect1_dropShadow_7517_33626"/>
<feColorMatrix in="SourceAlpha" type="matrix" values="0 0 0 0 0 0 0 0 0 0 0 0 0 0 0 0 0 0 127 0" result="hardAlpha"/>
<feOffset dy="0.712166"/>
<feGaussianBlur stdDeviation="0.712166"/>
<feComposite in2="hardAlpha" operator="out"/>
<feColorMatrix type="matrix" values="0 0 0 0 0.088 0 0 0 0 0.117867 0 0 0 0 0.2 0 0 0 0.1 0"/>
<feBlend mode="normal" in2="effect1_dropShadow_7517_33626" result="effect2_dropShadow_7517_33626"/>
<feBlend mode="normal" in="SourceGraphic" in2="effect2_dropShadow_7517_33626" result="shape"/>
</filter>
<filter id="filter7_f_7517_33626" x="233.391" y="259.481" width="82.042" height="82.042" filterUnits="userSpaceOnUse" color-interpolation-filters="sRGB">
<feFlood flood-opacity="0" result="BackgroundImageFix"/>
<feBlend mode="normal" in="SourceGraphic" in2="BackgroundImageFix" result="shape"/>
<feGaussianBlur stdDeviation="13.6736" result="effect1_foregroundBlur_7517_33626"/>
</filter>
<linearGradient id="paint0_linear_7517_33626" x1="196.5" y1="364" x2="196.5" y2="0" gradientUnits="userSpaceOnUse">
<stop stop-color="#89A9FF" stop-opacity="0.5"/>
<stop offset="1" stop-color="#D9E2FE" stop-opacity="0.4"/>
</linearGradient>
<linearGradient id="paint1_linear_7517_33626" x1="196.5" y1="319" x2="196.5" y2="45" gradientUnits="userSpaceOnUse">
<stop stop-color="#89A9FF" stop-opacity="0.5"/>
<stop offset="1" stop-color="#D9E2FE" stop-opacity="0.4"/>
</linearGradient>
<linearGradient id="paint2_linear_7517_33626" x1="196.64" y1="285.87" x2="196.64" y2="77.918" gradientUnits="userSpaceOnUse">
<stop stop-color="#89A9FF" stop-opacity="0.5"/>
<stop offset="1" stop-color="#D9E2FE" stop-opacity="0.4"/>
</linearGradient>
<linearGradient id="paint3_linear_7517_33626" x1="165.31" y1="263.324" x2="165.31" y2="420.001" gradientUnits="userSpaceOnUse">
<stop stop-color="#161E33"/>
<stop offset="1" stop-color="#0E1424"/>
</linearGradient>
<linearGradient id="paint4_linear_7517_33626" x1="156.765" y1="266.172" x2="156.765" y2="417.151" gradientUnits="userSpaceOnUse">
<stop stop-color="#576280"/>
<stop offset="1" stop-color="#3D4866"/>
</linearGradient>
<linearGradient id="paint5_linear_7517_33626" x1="149.643" y1="278.992" x2="149.643" y2="280.417" gradientUnits="userSpaceOnUse">
<stop stop-color="#161E33"/>
<stop offset="1" stop-color="#0E1424"/>
</linearGradient>
<linearGradient id="paint6_linear_7517_33626" x1="149.643" y1="310.328" x2="149.643" y2="311.752" gradientUnits="userSpaceOnUse">
<stop stop-color="#161E33"/>
<stop offset="1" stop-color="#0E1424"/>
</linearGradient>
<linearGradient id="paint7_linear_7517_33626" x1="149.643" y1="341.664" x2="149.643" y2="343.088" gradientUnits="userSpaceOnUse">
<stop stop-color="#161E33"/>
<stop offset="1" stop-color="#0E1424"/>
</linearGradient>
<linearGradient id="paint8_linear_7517_33626" x1="149.643" y1="373" x2="149.643" y2="374.424" gradientUnits="userSpaceOnUse">
<stop stop-color="#161E33"/>
<stop offset="1" stop-color="#0E1424"/>
</linearGradient>
<linearGradient id="paint9_linear_7517_33626" x1="163.885" y1="294.66" x2="163.885" y2="296.084" gradientUnits="userSpaceOnUse">
<stop stop-color="#161E33"/>
<stop offset="1" stop-color="#0E1424"/>
</linearGradient>
<linearGradient id="paint10_linear_7517_33626" x1="163.885" y1="325.996" x2="163.885" y2="327.42" gradientUnits="userSpaceOnUse">
<stop stop-color="#161E33"/>
<stop offset="1" stop-color="#0E1424"/>
</linearGradient>
<linearGradient id="paint11_linear_7517_33626" x1="163.885" y1="357.332" x2="163.885" y2="358.756" gradientUnits="userSpaceOnUse">
<stop stop-color="#161E33"/>
<stop offset="1" stop-color="#0E1424"/>
</linearGradient>
<linearGradient id="paint12_linear_7517_33626" x1="163.885" y1="388.664" x2="163.885" y2="390.088" gradientUnits="userSpaceOnUse">
<stop stop-color="#161E33"/>
<stop offset="1" stop-color="#0E1424"/>
</linearGradient>
<linearGradient id="paint13_linear_7517_33626" x1="245.783" y1="294.66" x2="245.783" y2="420.001" gradientUnits="userSpaceOnUse">
<stop stop-color="#161E33"/>
<stop offset="1" stop-color="#0E1424"/>
</linearGradient>
<linearGradient id="paint14_linear_7517_33626" x1="238.948" y1="296.938" x2="238.948" y2="417.721" gradientUnits="userSpaceOnUse">
<stop stop-color="#576280"/>
<stop offset="1" stop-color="#3D4866"/>
</linearGradient>
<linearGradient id="paint15_linear_7517_33626" x1="233.252" y1="307.195" x2="233.252" y2="308.335" gradientUnits="userSpaceOnUse">
<stop stop-color="#161E33"/>
<stop offset="1" stop-color="#0E1424"/>
</linearGradient>
<linearGradient id="paint16_linear_7517_33626" x1="233.252" y1="332.262" x2="233.252" y2="333.401" gradientUnits="userSpaceOnUse">
<stop stop-color="#161E33"/>
<stop offset="1" stop-color="#0E1424"/>
</linearGradient>
<linearGradient id="paint17_linear_7517_33626" x1="233.252" y1="357.332" x2="233.252" y2="358.471" gradientUnits="userSpaceOnUse">
<stop stop-color="#161E33"/>
<stop offset="1" stop-color="#0E1424"/>
</linearGradient>
<linearGradient id="paint18_linear_7517_33626" x1="233.252" y1="382.398" x2="233.252" y2="383.538" gradientUnits="userSpaceOnUse">
<stop stop-color="#161E33"/>
<stop offset="1" stop-color="#0E1424"/>
</linearGradient>
<linearGradient id="paint19_linear_7517_33626" x1="244.646" y1="319.727" x2="244.646" y2="320.866" gradientUnits="userSpaceOnUse">
<stop stop-color="#161E33"/>
<stop offset="1" stop-color="#0E1424"/>
</linearGradient>
<linearGradient id="paint20_linear_7517_33626" x1="244.646" y1="344.797" x2="244.646" y2="345.936" gradientUnits="userSpaceOnUse">
<stop stop-color="#161E33"/>
<stop offset="1" stop-color="#0E1424"/>
</linearGradient>
<linearGradient id="paint21_linear_7517_33626" x1="244.646" y1="369.863" x2="244.646" y2="371.003" gradientUnits="userSpaceOnUse">
<stop stop-color="#161E33"/>
<stop offset="1" stop-color="#0E1424"/>
</linearGradient>
<linearGradient id="paint22_linear_7517_33626" x1="244.646" y1="394.934" x2="244.646" y2="396.073" gradientUnits="userSpaceOnUse">
<stop stop-color="#161E33"/>
<stop offset="1" stop-color="#0E1424"/>
</linearGradient>
<linearGradient id="paint23_linear_7517_33626" x1="210.49" y1="166" x2="210.49" y2="214" gradientUnits="userSpaceOnUse">
<stop stop-color="#161E33"/>
<stop offset="1" stop-color="#0E1424"/>
</linearGradient>
<linearGradient id="paint24_linear_7517_33626" x1="182.775" y1="166" x2="182.775" y2="214" gradientUnits="userSpaceOnUse">
<stop stop-color="#161E33"/>
<stop offset="1" stop-color="#0E1424"/>
</linearGradient>
<linearGradient id="paint25_linear_7517_33626" x1="196.631" y1="150" x2="196.631" y2="182" gradientUnits="userSpaceOnUse">
<stop stop-color="#2F3F6D"/>
<stop offset="0.355174" stop-color="#233053"/>
<stop offset="1" stop-color="#0E1424"/>
</linearGradient>
<clipPath id="clip0_7517_33626">
<rect width="19.9407" height="19.9407" fill="white" transform="translate(96.0625 119.936)"/>
</clipPath>
<clipPath id="clip1_7517_33626">
<rect width="19.9407" height="19.9407" fill="white" transform="translate(277.668 119.936)"/>
</clipPath>
<clipPath id="clip2_7517_33626">
<rect x="119.02" y="263.324" width="92.5816" height="156.677" rx="5.69733" fill="white"/>
</clipPath>
<clipPath id="clip3_7517_33626">
<rect x="208.75" y="294.66" width="74.0653" height="125.341" rx="5.69733" fill="white"/>
</clipPath>
<clipPath id="clip4_7517_33626">
<rect width="25.0909" height="29.0909" fill="white" transform="translate(184.242 167.455)"/>
</clipPath>
</defs>
</svg>
