<svg width="120" height="64" viewBox="0 0 120 64" fill="none" xmlns="http://www.w3.org/2000/svg">
<path d="M18.8619 27.4036C18.9483 27.66 19.1288 27.8693 19.3695 27.9897C19.5134 28.0603 19.6678 28.0969 19.8221 28.0969C19.9294 28.0969 20.0392 28.0786 20.1439 28.0446L24.9082 26.4565C25.4393 26.2812 25.7245 25.7057 25.5492 25.1746C25.3739 24.6435 24.7957 24.3583 24.2671 24.5336L19.5029 26.1216C18.9745 26.2969 18.6866 26.8725 18.8619 27.4036Z" fill="#5188C7"/>
<path d="M20.0638 38.167C20.1842 37.9238 20.2051 37.6515 20.1188 37.3925C19.9435 36.8641 19.3679 36.5762 18.8368 36.7516L14.0725 38.3396C13.8161 38.426 13.6068 38.6066 13.4865 38.8473C13.3661 39.088 13.3452 39.3627 13.4315 39.6216C13.5728 40.0454 13.9679 40.315 14.3917 40.315C14.499 40.315 14.6063 40.2993 14.7109 40.2627L19.4751 38.6746C19.7315 38.5882 19.9408 38.4077 20.0612 38.167H20.0638Z" fill="#5A5F6A"/>
<path d="M15.5141 29.3108C15.658 29.3841 15.8124 29.4181 15.9641 29.4181C16.3356 29.4181 16.6941 29.214 16.872 28.8582L19.1167 24.366C19.2371 24.1253 19.258 23.8506 19.1717 23.5916C19.0853 23.3352 18.9048 23.1259 18.6641 23.0056C18.1644 22.757 17.5548 22.9585 17.3063 23.4582L15.0615 27.9503C14.8129 28.45 15.0144 29.0597 15.5141 29.3082V29.3108Z" fill="#5A5F6A"/>
<path d="M23.4648 35.4848C23.2241 35.3644 22.9467 35.3435 22.6904 35.4299C22.434 35.5161 22.2246 35.6967 22.1043 35.9374L19.8596 40.4295C19.7392 40.6702 19.7183 40.9449 19.8045 41.204C19.8909 41.463 20.0714 41.6696 20.3121 41.79C20.456 41.8606 20.6078 41.8972 20.7647 41.8972C20.872 41.8972 20.9819 41.8789 21.0865 41.845C21.3429 41.7585 21.5522 41.5781 21.6726 41.3373L23.9174 36.8452C24.0377 36.6045 24.0586 36.3298 23.9723 36.0708C23.8859 35.8144 23.7054 35.6051 23.4648 35.4848Z" fill="#5A5F6A"/>
<path d="M13.2137 32.3852C13.355 32.809 13.75 33.0786 14.1765 33.0786C14.2811 33.0786 14.391 33.0628 14.4957 33.0262C15.0242 32.851 15.3119 32.2753 15.1366 31.7442L13.5486 26.98C13.3733 26.4515 12.7977 26.1611 12.2666 26.339C11.7381 26.5143 11.4503 27.0899 11.6256 27.621L13.2137 32.3852Z" fill="#5A5F6A"/>
<path d="M25.7648 32.4113C25.5895 31.8802 25.0138 31.5951 24.4827 31.7704C24.2263 31.8567 24.017 32.0373 23.8966 32.278C23.7763 32.5187 23.7554 32.7933 23.8417 33.0524L25.4298 37.8166C25.5711 38.2405 25.9662 38.51 26.3899 38.51C26.4973 38.51 26.6045 38.4942 26.7092 38.4575C27.2376 38.2823 27.5255 37.7067 27.3502 37.1756L25.7621 32.4113H25.7648Z" fill="#5A5F6A"/>
<path d="M15.4965 36.9346C15.6037 36.9346 15.7136 36.9163 15.8183 36.8822C16.0747 36.796 16.284 36.6154 16.4043 36.3747C16.5247 36.1341 16.5456 35.8594 16.4593 35.6003C16.373 35.3439 16.1924 35.1346 15.9517 35.0143L11.4596 32.7695C10.9599 32.5209 10.3503 32.7224 10.1017 33.2221C9.98138 33.4654 9.96044 33.7375 10.0468 33.9966C10.1331 34.253 10.3136 34.4622 10.5543 34.5826L15.0465 36.8273C15.1904 36.8981 15.3448 36.9346 15.4991 36.9346H15.4965Z" fill="#5A5F6A"/>
<path d="M28.9338 30.8024C28.8476 30.5461 28.6671 30.3367 28.4263 30.2164L23.9342 27.9716C23.4345 27.7231 22.8249 27.9246 22.5763 28.4242C22.456 28.6676 22.4351 28.9397 22.5214 29.1987C22.6077 29.4551 22.7882 29.6644 23.0289 29.7847L27.521 32.0295C27.665 32.1027 27.8194 32.1367 27.9711 32.1367C28.3426 32.1367 28.701 31.9327 28.8788 31.5769C28.9993 31.3362 29.0202 31.0615 28.9338 30.8024Z" fill="#5A5F6A"/>
<path d="M42.5866 40.2155H37.8539L37.6289 39.9905V24.6618L37.8539 24.4368H42.5866C48.2221 24.4368 50.0274 27.592 50.0274 32.3275C50.0274 37.0628 48.2247 40.2181 42.5866 40.2181V40.2155ZM42.3617 26.4644H40.1064L39.8815 26.6894V37.9603L40.1064 38.1853H42.3617C46.6448 38.1853 47.7721 36.1577 47.7721 32.3248C47.7721 28.492 46.6448 26.4644 42.3617 26.4644Z" fill="#5A5F6A"/>
<path d="M57.0159 28.7195C60.396 28.7195 62.4263 30.9747 62.4263 34.58C62.4263 38.1852 60.396 40.4404 57.0159 40.4404C53.6354 40.4404 51.6055 38.1852 51.6055 34.58C51.6055 30.9747 53.6331 28.7195 57.0159 28.7195ZM57.0159 38.4128C59.0435 38.4128 60.1709 37.0601 60.1709 34.58C60.1709 32.0997 59.0435 30.7471 57.0159 30.7471C54.9882 30.7471 53.8605 32.0997 53.8605 34.58C53.8605 37.0601 54.9882 38.4128 57.0159 38.4128Z" fill="#5A5F6A"/>
<path d="M80.0097 40.2155H78.2068L77.982 39.9905V33.2274C77.982 31.8748 77.7568 30.7471 75.9543 30.7471C74.3767 30.7471 73.4741 31.8748 73.4741 33.6774V39.9905L73.2493 40.2155H71.4465L71.2216 39.9905V33.2274C71.2216 31.8748 70.9965 30.7471 69.194 30.7471C68.0662 30.7471 66.7137 31.4221 66.7137 33.6774V39.9905L66.4886 40.2155H64.6861L64.4609 39.9905V29.1695L64.6861 28.9445H66.2638L66.4886 29.1695L66.7137 30.0721H66.9386C67.3886 29.3971 68.2911 28.7195 69.8688 28.7195C71.6716 28.7195 72.3493 29.6221 72.7993 30.2971H73.0241C73.6993 29.3945 74.8267 28.7195 76.4043 28.7195C79.5597 28.7195 80.2374 30.7497 80.2374 33.2274V39.9905L80.0122 40.2155H80.0097Z" fill="#5A5F6A"/>
<path d="M84.7425 27.1425H82.94L82.7148 26.9175V25.1149L82.94 24.8899H84.7425L84.9676 25.1149V26.9175L84.7425 27.1425ZM84.7425 40.2186H82.94L82.7148 39.9937V29.1701L82.94 28.9451H84.7425L84.9676 29.1701V39.9911L84.7425 40.216V40.2186Z" fill="#5A5F6A"/>
<path d="M97.1417 40.2155H95.3389L95.1138 39.9905V33.4523C95.1138 32.3038 94.8888 30.7471 92.8587 30.7471C90.8282 30.7471 89.9282 31.8512 89.9282 34.58V39.9905L89.7034 40.2155H87.9006L87.6758 39.9905V29.1695L87.9006 28.9445H89.4782L89.7034 29.1695L89.9282 30.0721H90.1534C90.8073 29.2166 91.8877 28.7195 93.0836 28.7195C96.2382 28.7195 97.366 30.7497 97.366 33.4549V39.9931L97.1417 40.218V40.2155Z" fill="#5A5F6A"/>
<path d="M104.582 28.7195C107.963 28.7195 109.992 30.9747 109.992 34.58C109.992 38.1852 107.963 40.4404 104.582 40.4404C101.202 40.4404 99.1719 38.1852 99.1719 34.58C99.1719 30.9747 101.2 28.7195 104.582 28.7195ZM104.582 38.4128C106.61 38.4128 107.737 37.0601 107.737 34.58C107.737 32.0997 106.61 30.7471 104.582 30.7471C102.554 30.7471 101.427 32.0997 101.427 34.58C101.427 37.0601 102.554 38.4128 104.582 38.4128Z" fill="#5A5F6A"/>
</svg>
