<svg width="120" height="64" viewBox="0 0 120 64" fill="none" xmlns="http://www.w3.org/2000/svg">
<path d="M36.2533 33.1442C36.3158 33.1051 36.3424 33.0848 36.3721 33.0707C38.3633 32.1861 39.4511 30.6653 39.6027 28.4881C39.8043 25.5873 38.3601 23.3914 35.3859 22.7006C34.3356 22.4583 33.2728 22.5021 32.2115 22.4989C29.5733 22.4911 26.9366 22.4864 24.2983 22.4771C24.0545 22.4771 23.8685 22.4849 23.8248 22.8068C23.7013 23.7243 23.545 24.6355 23.4043 25.5514C23.334 26.0109 23.3465 26.0218 23.8279 26.0218C24.4687 26.0218 25.1095 26.0218 25.7831 26.0218C25.7831 26.2094 25.7831 26.3547 25.7831 26.5001C25.7831 30.5231 25.7863 34.5461 25.7769 38.5691C25.7769 38.8911 25.8597 38.9989 26.1926 38.9927C27.2226 38.9724 28.2526 38.9755 29.2826 38.9927C29.5826 38.9974 29.6702 38.9052 29.667 38.6082C29.653 37.139 29.6608 35.6699 29.6608 34.2007C29.6608 34.0804 29.6608 33.96 29.6608 33.81C30.4423 33.81 31.1753 33.8193 31.9083 33.8037C32.1427 33.799 32.2709 33.8834 32.3975 34.0725C33.4228 35.6152 34.4622 37.15 35.4874 38.6926C35.6281 38.9036 35.7813 38.9943 36.0392 38.9927C37.2723 38.9802 38.5071 38.9896 39.7418 38.9833C39.8465 38.9833 39.9512 38.9333 40.0559 38.9052C40.0262 38.7911 40.0247 38.6598 39.9637 38.5676C39.5824 37.994 39.1869 37.4282 38.7978 36.8608C37.9553 35.6324 37.1129 34.4023 36.2533 33.1473V33.1442ZM97.5441 34.146C97.5207 34.1491 97.4957 34.1523 97.4723 34.1538C97.2409 33.4708 97.0096 32.7878 96.7814 32.1048C96.1625 30.2527 95.5451 28.4006 94.9262 26.5501C94.8746 26.3954 94.8512 26.2234 94.6089 26.225C93.443 26.2328 92.277 26.2297 91.1111 26.2281C90.8438 26.2281 90.8032 26.3625 90.8844 26.5798C90.9282 26.6954 90.9735 26.8111 91.0189 26.9268C92.5318 30.7919 94.0447 34.6555 95.5545 38.5222C95.5936 38.6207 95.6264 38.7473 95.5967 38.8411C95.4607 39.2912 95.0262 39.5929 94.5417 39.5975C93.9978 39.6022 93.4555 39.6101 92.9116 39.6069C92.6318 39.6054 92.5427 39.7085 92.6365 39.982C92.9335 40.8448 93.2273 41.7106 93.5102 42.5796C93.5696 42.7625 93.6602 42.8344 93.8478 42.8313C94.3229 42.8235 94.798 42.8453 95.2732 42.825C96.4782 42.7734 97.4738 42.2936 98.1396 41.2746C98.5007 40.7213 98.8336 40.1305 99.0696 39.5147C100.706 35.226 102.314 30.9279 103.929 26.6314C104.063 26.2734 104.029 26.2312 103.629 26.2297C102.577 26.2297 101.523 26.2391 100.472 26.2234C100.187 26.2187 100.056 26.3031 99.9698 26.5813C99.4869 28.1318 98.9836 29.676 98.4866 31.2217C98.1725 32.197 97.8599 33.1723 97.5457 34.1476L97.5441 34.146ZM67.9435 33.9162C68.1061 33.9162 68.2405 33.9162 68.3734 33.9162C70.8522 33.9162 73.3295 33.9116 75.8083 33.9209C76.0912 33.9209 76.2256 33.8522 76.2162 33.549C76.1975 32.9972 76.2412 32.4408 76.1865 31.8938C76.0333 30.3621 75.527 28.9633 74.4251 27.8426C72.2776 25.6576 68.3468 25.667 66.0899 27.8739C64.5223 29.4056 63.9909 31.3186 64.2175 33.4489C64.43 35.4417 65.3725 37.0203 67.1105 38.0659C68.6125 38.9692 70.252 39.1584 71.9572 38.8645C73.3451 38.6254 74.5001 37.9627 75.4347 36.9108C75.6457 36.6748 75.6364 36.4998 75.3879 36.2919C74.8596 35.848 74.3422 35.3917 73.8374 34.9212C73.6217 34.7196 73.4717 34.7008 73.2451 34.9134C72.437 35.6714 71.4742 36.0012 70.3599 35.9418C69.172 35.8777 68.1467 35.0619 67.9404 33.9178L67.9435 33.9162ZM43.832 33.9334C43.9445 33.9272 44.0539 33.9162 44.1634 33.9162C45.1589 33.9162 46.1545 33.9162 47.1517 33.9162C48.6349 33.9162 50.1166 33.9162 51.5998 33.9162C52.0656 33.9162 52.0625 33.9162 52.1015 33.438C52.175 32.5284 52.0984 31.6297 51.8671 30.7513C51.2998 28.5866 50.0697 27.0018 47.816 26.4438C45.5341 25.878 43.4663 26.3313 41.7955 28.0536C40.3263 29.5681 39.8762 31.4452 40.0997 33.4943C40.2826 35.1729 41.0171 36.5811 42.3597 37.6329C43.8086 38.7661 45.4825 39.1162 47.2814 38.9411C48.8788 38.7864 50.2291 38.1253 51.3044 36.9218C51.5076 36.6952 51.5373 36.517 51.2826 36.3013C50.748 35.848 50.2245 35.3823 49.7071 34.9087C49.5055 34.7243 49.3601 34.6962 49.1398 34.9025C48.3317 35.6558 47.3736 36.0043 46.2577 35.9387C45.0605 35.8684 44.0383 35.0994 43.8351 33.9334H43.832ZM58.2377 34.0131C58.2095 34.0085 58.183 34.0053 58.1548 34.0006C58.1204 33.9053 58.0845 33.8115 58.0532 33.7162C57.2561 31.3405 56.4559 28.9648 55.6713 26.586C55.5822 26.3172 55.465 26.2172 55.1743 26.2219C54.088 26.2406 53.0002 26.2281 51.914 26.2297C51.553 26.2297 51.5029 26.3031 51.6311 26.6329C53.2034 30.645 54.7773 34.6571 56.3449 38.6707C56.4309 38.8911 56.5434 38.9927 56.7888 38.9896C57.7063 38.9786 58.6237 38.9771 59.5396 38.9896C59.8022 38.9943 59.9225 38.8864 60.0116 38.6551C61.573 34.6508 63.1422 30.6497 64.7083 26.6486C64.8505 26.2875 64.813 26.2297 64.4332 26.2297C63.3688 26.2281 62.3044 26.2406 61.2401 26.2219C60.9462 26.2172 60.829 26.3219 60.7415 26.5876C60.1288 28.4413 59.5005 30.2902 58.8769 32.1392C58.6659 32.7644 58.4518 33.388 58.2377 34.0131ZM77.4666 30.7138C77.4759 30.7138 77.4853 30.7138 77.4947 30.7138C77.4947 33.3348 77.5009 35.9559 77.4869 38.5754C77.4853 38.9114 77.5979 38.9943 77.9151 38.9896C78.9107 38.9724 79.9063 38.9833 80.9019 38.9833C81.352 38.9833 81.3552 38.9833 81.3536 38.5332C81.3411 34.8415 81.3255 31.1514 81.3145 27.4597C81.3098 25.9468 81.3052 24.4339 81.3208 22.9209C81.3239 22.5865 81.2333 22.463 80.8816 22.4708C79.9094 22.4911 78.9357 22.4771 77.962 22.4786C77.4619 22.4786 77.4634 22.4786 77.4634 22.9897C77.4634 25.5639 77.4634 28.1396 77.4634 30.7138H77.4666ZM86.8067 26.5204C86.838 26.2219 86.6035 26.2203 86.3269 26.2234C85.3079 26.2344 84.2904 26.2344 83.2713 26.2234C83.0088 26.2203 82.9165 26.3 82.9165 26.5704C82.9228 30.5919 82.9228 34.6133 82.9165 38.6348C82.9165 38.8973 82.9931 38.9927 83.2635 38.988C84.2935 38.9755 85.3235 38.9677 86.3519 38.9911C86.7098 38.9989 86.7848 38.8755 86.7833 38.5441C86.7708 36.1747 86.7755 33.8037 86.7739 31.4343C86.7739 30.4934 87.1646 29.9917 88.1102 29.8901C88.8823 29.8073 89.6685 29.837 90.4468 29.8198C90.8235 29.812 90.8782 29.7416 90.7469 29.4009C90.3827 28.4647 90.0108 27.5332 89.6544 26.5954C89.5684 26.3688 89.4372 26.2703 89.198 26.2938C88.4041 26.3719 87.6101 26.4438 86.8052 26.5204H86.8067Z" fill="white"/>
<path d="M36.2533 33.144C37.1129 34.4006 37.9553 35.6291 38.7978 36.8576C39.1869 37.4265 39.5824 37.9907 39.9637 38.5643C40.0247 38.6565 40.0278 38.7878 40.0559 38.9019C39.9512 38.9285 39.8465 38.9785 39.7418 38.98C38.5071 38.9863 37.2739 38.9769 36.0392 38.9894C35.7797 38.9926 35.6265 38.9019 35.4874 38.6893C34.4622 37.1467 33.4228 35.6135 32.3975 34.0693C32.2709 33.8802 32.1427 33.7942 31.9083 33.8005C31.1753 33.8161 30.4423 33.8067 29.6608 33.8067C29.6608 33.9583 29.6608 34.0787 29.6608 34.1974C29.6608 35.6666 29.653 37.1358 29.667 38.6049C29.6702 38.9035 29.5826 38.9941 29.2826 38.9894C28.2526 38.9722 27.2226 38.9707 26.1926 38.9894C25.8597 38.9957 25.7753 38.8878 25.7769 38.5659C25.7863 34.5429 25.7831 30.5198 25.7831 26.4968C25.7831 26.3515 25.7831 26.2077 25.7831 26.0186C25.1111 26.0186 24.4687 26.0186 23.8279 26.0186C23.3465 26.0186 23.334 26.0076 23.4043 25.5481C23.5434 24.6338 23.7013 23.721 23.8248 22.8036C23.8685 22.4847 24.0545 22.4754 24.2983 22.4769C26.9366 22.4863 29.5733 22.491 32.2115 22.4988C33.2743 22.5019 34.3356 22.4582 35.3874 22.702C38.3617 23.3928 39.8043 25.5887 39.6042 28.4896C39.4542 30.6667 38.3664 32.1875 36.3736 33.0721C36.3439 33.0846 36.3174 33.1065 36.2549 33.1456L36.2533 33.144ZM29.6733 30.3135C29.7702 30.326 29.8358 30.3432 29.9015 30.3432C31.0221 30.3448 32.1427 30.3651 33.2618 30.3338C33.6604 30.3229 34.073 30.2307 34.4481 30.09C35.2921 29.7712 35.7125 29.0429 35.6828 28.0738C35.6547 27.1501 35.1936 26.4953 34.3199 26.2233C33.9479 26.1076 33.5463 26.0404 33.1571 26.0311C32.0943 26.0061 31.0299 26.0217 29.9656 26.0232C29.8687 26.0232 29.7733 26.0389 29.6733 26.0483V30.3151V30.3135Z" fill="#22262E"/>
<path d="M97.5444 34.146C97.8585 33.1707 98.1711 32.1954 98.4853 31.2202C98.9823 29.6744 99.4856 28.1302 99.9685 26.5798C100.054 26.3016 100.186 26.2172 100.47 26.2219C101.522 26.2391 102.575 26.2281 103.627 26.2281C104.027 26.2281 104.063 26.2703 103.927 26.6298C102.313 30.9263 100.705 35.2244 99.0683 39.5131C98.8338 40.1289 98.5009 40.7197 98.1383 41.273C97.4725 42.2921 96.4769 42.7719 95.2719 42.8235C94.7983 42.8438 94.3216 42.8219 93.8465 42.8297C93.6573 42.8328 93.5683 42.7609 93.5089 42.5781C93.226 41.7091 92.9321 40.8448 92.6352 39.9805C92.5414 39.7069 92.6305 39.6038 92.9103 39.6054C93.4526 39.6085 93.9965 39.6007 94.5404 39.596C95.0249 39.5913 95.4579 39.2912 95.5954 38.8395C95.6235 38.7457 95.5907 38.6191 95.5532 38.5207C94.0434 34.6539 92.5305 30.7903 91.0175 26.9252C90.9722 26.8095 90.9269 26.6939 90.8831 26.5782C90.8018 26.361 90.8425 26.225 91.1097 26.2266C92.2757 26.2281 93.4417 26.2312 94.6076 26.2234C94.8499 26.2219 94.8717 26.3938 94.9249 26.5485C95.5454 28.4006 96.1612 30.2527 96.7801 32.1032C97.0083 32.7862 97.2412 33.4692 97.4709 34.1522C97.4944 34.1491 97.5194 34.146 97.5428 34.1444L97.5444 34.146Z" fill="#22262E"/>
<path d="M67.9413 33.916C68.1476 35.0586 69.1729 35.876 70.3608 35.9401C71.4736 35.9994 72.4379 35.6697 73.246 34.9116C73.4726 34.6991 73.6211 34.7178 73.8383 34.9195C74.3416 35.3899 74.8605 35.8463 75.3888 36.2902C75.6373 36.498 75.6466 36.6731 75.4356 36.9091C74.501 37.9609 73.346 38.6236 71.9581 38.8628C70.2529 39.1566 68.6118 38.9675 67.1114 38.0641C65.375 37.0185 64.431 35.4399 64.2184 33.4472C63.9902 31.3153 64.5232 29.4038 66.0908 27.8721C68.3477 25.6668 72.2769 25.6574 74.426 27.8409C75.5279 28.9615 76.0327 30.3603 76.1874 31.892C76.2421 32.4391 76.1999 32.9955 76.2171 33.5472C76.2265 33.8504 76.0921 33.9207 75.8092 33.9192C73.3304 33.9098 70.8531 33.9145 68.3743 33.9145C68.2398 33.9145 68.107 33.9145 67.9444 33.9145L67.9413 33.916ZM72.5458 31.4716C72.4473 30.1165 71.3798 29.2022 70.0153 29.2788C68.9463 29.3382 67.8694 30.4604 67.9148 31.4716H72.5442H72.5458Z" fill="#22262E"/>
<path d="M43.832 33.9333C44.0368 35.0992 45.0574 35.8682 46.2546 35.9385C47.3705 36.0042 48.3286 35.6556 49.1366 34.9023C49.3586 34.696 49.5024 34.7241 49.704 34.9085C50.2213 35.3821 50.7449 35.8494 51.2794 36.3011C51.5358 36.5168 51.5045 36.695 51.3013 36.9216C50.226 38.1251 48.8772 38.7878 47.2783 38.9409C45.4778 39.1144 43.8039 38.7659 42.3566 37.6328C41.014 36.5825 40.2794 35.1727 40.0966 33.4941C39.8746 31.4435 40.3232 29.568 41.7924 28.0535C43.4632 26.3311 45.5294 25.8779 47.8128 26.4436C50.0666 27.0016 51.2966 28.5864 51.864 30.7511C52.0937 31.6295 52.1719 32.5282 52.0984 33.4378C52.0593 33.9145 52.064 33.9161 51.5967 33.9161C50.1135 33.9161 48.6318 33.9161 47.1486 33.9161C46.153 33.9161 45.1574 33.9161 44.1602 33.9161C44.0508 33.9161 43.9414 33.927 43.8289 33.9333H43.832ZM48.4333 31.4779C48.2895 30.1056 47.3158 29.2491 45.9779 29.2773C44.8729 29.3007 43.8476 30.3182 43.7804 31.4779H48.4333Z" fill="#22262E"/>
<path d="M58.2357 34.0131C58.4482 33.3879 58.6639 32.7643 58.8749 32.1391C59.4985 30.2902 60.1268 28.4412 60.7395 26.5876C60.827 26.3219 60.9458 26.2171 61.2381 26.2218C62.3024 26.2406 63.3668 26.2281 64.4312 26.2297C64.811 26.2297 64.8485 26.2875 64.7063 26.6485C63.1402 30.6512 61.5725 34.6524 60.0096 38.6551C59.9205 38.8848 59.7986 38.9927 59.5376 38.9895C58.6201 38.9755 57.7027 38.977 56.7868 38.9895C56.5399 38.9927 56.4289 38.8926 56.3429 38.6707C54.7753 34.657 53.2014 30.645 51.6291 26.6329C51.4994 26.3031 51.5509 26.2312 51.912 26.2297C52.9982 26.2265 54.086 26.239 55.1723 26.2218C55.4646 26.2171 55.5802 26.3172 55.6693 26.586C56.4539 28.9664 57.2557 31.3405 58.0512 33.7162C58.0825 33.8115 58.1184 33.9053 58.1528 34.0006C58.181 34.0053 58.2075 34.0084 58.2357 34.0131Z" fill="#22262E"/>
<path d="M77.4668 30.7138C77.4668 28.1396 77.4668 25.5639 77.4668 22.9897C77.4668 22.4802 77.4668 22.4786 77.9654 22.4786C78.9391 22.4786 79.9128 22.4927 80.885 22.4708C81.2366 22.463 81.3273 22.5865 81.3241 22.9209C81.3085 24.4339 81.3132 25.9468 81.3179 27.4597C81.3288 31.1514 81.3445 34.8415 81.357 38.5332C81.357 38.9817 81.357 38.9833 80.9053 38.9833C79.9097 38.9833 78.9141 38.9724 77.9185 38.9896C77.6012 38.9958 77.4887 38.9114 77.4902 38.5754C77.5027 35.9543 77.4981 33.3348 77.4981 30.7138C77.4887 30.7138 77.4793 30.7138 77.4699 30.7138H77.4668Z" fill="#22262E"/>
<path d="M86.8046 26.5204C87.6095 26.4454 88.4035 26.3719 89.1975 26.2937C89.4366 26.2703 89.5679 26.3688 89.6539 26.5954C90.0102 27.5332 90.3838 28.4647 90.7464 29.4009C90.8792 29.7416 90.8229 29.8104 90.4463 29.8198C89.6664 29.8369 88.8818 29.8072 88.1097 29.8901C87.1641 29.9917 86.7734 30.4949 86.7734 31.4343C86.7734 33.8037 86.7702 36.1747 86.7827 38.5441C86.7843 38.8739 86.7093 38.9989 86.3514 38.9911C85.323 38.9677 84.2914 38.9755 83.263 38.988C82.991 38.9911 82.916 38.8958 82.916 38.6348C82.9223 34.6133 82.9223 30.5918 82.916 26.5704C82.916 26.3 83.0067 26.2203 83.2708 26.2234C84.2898 26.2344 85.3073 26.2344 86.3264 26.2234C86.603 26.2203 86.8374 26.2219 86.8062 26.5204H86.8046Z" fill="#22262E"/>
<path d="M29.6738 30.3137V26.0469C29.7739 26.0375 29.8692 26.0219 29.9661 26.0219C31.0305 26.0203 32.0948 26.0047 33.1576 26.0297C33.5468 26.0391 33.9485 26.1063 34.3205 26.2219C35.1957 26.4923 35.6568 27.1488 35.6833 28.0725C35.713 29.043 35.2926 29.7714 34.4486 30.0887C34.0751 30.2293 33.6609 30.3215 33.2623 30.3325C32.1433 30.3653 31.0226 30.3434 29.902 30.3419C29.8364 30.3419 29.7707 30.3247 29.6738 30.3122V30.3137Z" fill="white"/>
<path d="M72.5488 31.4717H67.9194C67.874 30.4605 68.9493 29.3383 70.02 29.2789C71.3844 29.2023 72.4503 30.1166 72.5504 31.4717H72.5488Z" fill="white"/>
<path d="M48.4341 31.4779H43.7812C43.8485 30.3182 44.8737 29.3007 45.9787 29.2773C47.3166 29.2492 48.2903 30.1056 48.4341 31.4779Z" fill="white"/>
<path d="M19.0649 22.499H21.9157C22.1892 22.499 22.3971 22.7444 22.3533 23.0132L19.7916 38.5958C19.7557 38.8099 19.5713 38.9662 19.354 38.9662H16.4438C16.1703 38.9662 15.9609 38.7193 16.0062 38.4504L18.6288 22.8694C18.6648 22.6569 18.8492 22.5006 19.0664 22.5006L19.0649 22.499Z" fill="#B5E58D"/>
</svg>
