<svg width="120" height="64" viewBox="0 0 120 64" fill="none" xmlns="http://www.w3.org/2000/svg">
<path d="M68.8395 37.6714H65.2295V31.7813C65.2295 31.4894 65.0307 31.2304 64.7589 31.1665C64.706 31.1501 64.6476 31.1428 64.5819 31.1428C64.2372 31.1428 63.9453 31.4274 63.9453 31.7649V38.2624C63.9453 38.6054 64.2353 38.8845 64.5929 38.8845H68.8504C69.0401 38.8845 69.2244 38.7969 69.3393 38.6492C69.4597 38.5032 69.4998 38.3135 69.4524 38.1256C69.374 37.8575 69.1222 37.6714 68.8395 37.6714Z" fill="#687A82"/>
<path d="M77.6377 31.5315C77.4936 31.2287 77.2546 31.0754 76.9263 31.0754C76.5979 31.0754 76.3681 31.2287 76.224 31.5315L73.205 37.9324C73.1047 38.082 73.0938 38.2425 73.0938 38.3045C73.0938 38.6183 73.3801 38.8846 73.7194 38.8846C73.8179 38.8846 74.1499 38.8554 74.3123 38.4851L75.0565 36.8944H78.7905L79.5384 38.4997C79.6771 38.7478 79.8923 38.8846 80.1404 38.8846C80.4852 38.8846 80.7661 38.6146 80.7661 38.2844C80.7661 38.1768 80.7387 38.0619 80.6913 37.9616L77.6359 31.5333L77.6377 31.5315ZM75.6165 35.696L76.9208 32.9123L78.2196 35.696H75.6165Z" fill="#687A82"/>
<path d="M90.8242 31.1011C90.485 31.1065 90.2204 31.3802 90.2204 31.7231V36.5425L86.0012 31.32C85.8808 31.1795 85.713 31.1011 85.5288 31.1011C85.505 31.1011 85.485 31.1047 85.4594 31.1084C85.4412 31.112 85.4211 31.1138 85.4011 31.1175C85.0508 31.1175 84.7754 31.3856 84.7754 31.7286V38.2736C84.7754 38.6111 85.0618 38.8847 85.412 38.8847C85.7622 38.8847 86.0377 38.6165 86.0377 38.2736V33.3028L90.2971 38.5819C90.3664 38.6621 90.5506 38.8756 90.8808 38.8756C91.211 38.8756 91.4736 38.6147 91.4736 38.3064V31.714C91.4736 31.3747 91.1927 31.1047 90.8261 31.1029L90.8242 31.1011Z" fill="#687A82"/>
<path d="M102.296 34.0744L102.269 33.965C102.26 33.9267 102.243 33.861 102.234 33.8446C102.212 33.7807 102.191 33.7169 102.138 33.5892C102.129 33.5545 102.114 33.5253 102.088 33.4706L102.076 33.4451C101.776 32.7829 101.3 32.2357 100.697 31.8636L100.638 31.818C100.549 31.7614 100.45 31.7103 100.374 31.6738L100.277 31.6264C99.6623 31.32 98.9728 31.1631 98.2267 31.1631H96.1144C95.7514 31.1631 95.4668 31.444 95.4668 31.8015V38.2626C95.4668 38.6056 95.7568 38.8847 96.1144 38.8847H98.2267C98.9801 38.8847 99.6587 38.7278 100.304 38.4067L100.368 38.3757C100.45 38.3374 100.551 38.2882 100.66 38.2097C101.291 37.8139 101.775 37.2685 102.059 36.6355L102.094 36.5717L102.165 36.3911C102.176 36.3601 102.187 36.3309 102.202 36.2962C102.212 36.267 102.225 36.2378 102.238 36.1941C102.238 36.1868 102.243 36.1722 102.254 36.1393C102.264 36.112 102.273 36.081 102.28 36.0536C102.302 35.9843 102.318 35.9113 102.335 35.8329C102.389 35.5684 102.417 35.3002 102.417 35.012C102.417 34.7439 102.389 34.4794 102.335 34.2222C102.324 34.1747 102.311 34.1273 102.296 34.0744ZM101.111 35.023C101.111 36.5461 99.9013 37.6516 98.234 37.6516H96.7583V32.3926H98.234C99.8958 32.3926 101.105 33.498 101.111 35.0211V35.023Z" fill="#687A82"/>
<path d="M107.056 31.0973L107.012 31.1046C106.686 31.1301 106.412 31.411 106.412 31.7248V38.2643C106.412 38.5963 106.715 38.8864 107.06 38.8864C107.404 38.8864 107.696 38.6073 107.696 38.2643V31.7175C107.696 31.38 107.404 31.0955 107.058 31.0955L107.056 31.0973Z" fill="#687A82"/>
<path d="M118.922 37.9579L118.898 37.9214L115.868 31.5315C115.724 31.2287 115.485 31.0754 115.157 31.0754C114.829 31.0754 114.599 31.2287 114.456 31.5315L111.437 37.9324C111.337 38.082 111.326 38.2425 111.326 38.3045C111.326 38.6183 111.613 38.8846 111.952 38.8846C112.05 38.8846 112.382 38.8554 112.545 38.4851L113.289 36.8944H117.023L117.771 38.4997C117.909 38.7478 118.125 38.8846 118.373 38.8846C118.718 38.8846 118.999 38.6146 118.999 38.2844C118.999 38.1768 118.971 38.0619 118.922 37.9597V37.9579ZM113.853 35.6978L115.157 32.9142L116.456 35.6978H113.853Z" fill="#687A82"/>
<path d="M49.6663 31.1428H45.0968C44.7393 31.1428 44.4492 31.4219 44.4492 31.7649V38.246C44.4492 38.5434 44.6572 38.8042 44.9436 38.8662C44.9892 38.8772 45.0421 38.8845 45.0913 38.8845C45.4361 38.8845 45.7279 38.6017 45.7279 38.2679V35.6922H49.1975C49.3853 35.6922 49.5751 35.5992 49.6936 35.4514C49.814 35.2982 49.8523 35.1103 49.7994 34.9352C49.7283 34.6762 49.4638 34.4792 49.1865 34.4792H45.7279V32.3559H49.6389C49.9326 32.3559 50.1861 32.1607 50.2682 31.8707C50.3047 31.6846 50.2555 31.4985 50.1332 31.3617C50.0165 31.2249 49.8468 31.1465 49.6663 31.1428Z" fill="#687A82"/>
<path d="M60.0067 31.1431H54.9246C54.6346 31.1431 54.3828 31.3328 54.3117 31.6046C54.2661 31.7797 54.3044 31.9676 54.4193 32.1208C54.5379 32.2722 54.724 32.3616 54.9155 32.3616H56.8272V38.2463C56.8272 38.5363 57.0406 38.8045 57.3215 38.8665C57.3671 38.8774 57.42 38.8847 57.4693 38.8847C57.8141 38.8847 58.1059 38.602 58.1059 38.2682V32.3561H60.0231C60.2128 32.3561 60.3897 32.2704 60.5083 32.119C60.6232 31.9712 60.6688 31.7797 60.6214 31.6356C60.5758 31.3528 60.3168 31.1449 60.0067 31.1431Z" fill="#687A82"/>
<path d="M38.3766 31.3453C37.7929 31.0206 37.1325 30.8491 36.4649 30.8491C34.2723 30.8491 32.4883 32.6495 32.4883 34.8641C32.4883 35.9385 32.8914 36.9345 33.6211 37.6659L33.674 37.7334C33.8163 37.8775 33.9877 38.018 34.1993 38.1657C34.8688 38.6364 35.6532 38.8845 36.4667 38.8845C37.2803 38.8845 38.0592 38.6364 38.7287 38.1657C39.8104 37.4361 40.4561 36.1957 40.4561 34.8476C40.4561 33.3591 39.6608 32.0166 38.3803 31.3435L38.3766 31.3453ZM36.4704 37.6203C35.3868 37.6203 34.389 36.9345 33.9895 35.9111L33.9823 35.8947L33.9895 35.8874L33.9786 35.8564C33.8655 35.5335 33.809 35.1997 33.809 34.8659V34.751C33.809 34.6105 33.8236 34.4609 33.8509 34.2894C34.1154 33.0326 35.2172 32.1224 36.4704 32.1224C37.9461 32.1224 39.1482 33.3555 39.1482 34.8732C39.1482 36.3909 37.9479 37.624 36.4704 37.624V37.6203Z" fill="#687A82"/>
<path d="M25.8393 34.317L25.7554 34.3079C25.6678 34.2896 25.5839 34.2696 25.511 34.2513C24.2268 33.9084 24.0936 33.611 24.0371 33.1951C24.0371 33.0364 24.0881 32.8796 24.1903 32.73C24.2049 32.7081 24.2195 32.6844 24.2377 32.6643L24.2706 32.626C24.2961 32.5968 24.3198 32.5676 24.3526 32.5421C24.608 32.3141 24.9929 32.1882 25.4362 32.1882C26.0856 32.1882 26.6383 32.3724 27.1764 32.7646C27.2877 32.8504 27.4409 32.9014 27.5868 32.9014C27.9316 32.9014 28.2235 32.6169 28.2235 32.2794C28.2235 32.0861 28.1323 31.9073 27.9644 31.7778C27.2129 31.2251 26.4613 30.9897 25.4526 30.9897C24.8853 30.9897 24.3453 31.1266 23.8893 31.3856C23.8236 31.4239 23.7561 31.4658 23.6959 31.5096L23.561 31.6081C23.5318 31.6318 23.5026 31.6556 23.4771 31.6756C23.4296 31.7158 23.3822 31.7632 23.2727 31.8799C22.9353 32.263 22.7638 32.7318 22.7638 33.2736C22.7802 33.5818 22.855 33.8591 22.99 34.12C23.291 34.7219 23.924 35.1324 24.9838 35.4078L25.0568 35.4297C25.0568 35.4297 25.3851 35.5027 25.4836 35.5246C27.087 35.831 27.2111 36.1904 27.2111 36.6628C27.2111 37.252 26.6073 37.6789 25.7736 37.6789C24.94 37.6789 24.2414 37.4271 23.5993 36.8617C23.4825 36.765 23.3366 36.7121 23.187 36.7121C23.0757 36.7121 22.9791 36.7358 22.8879 36.785C22.7346 36.8598 22.6161 37.0058 22.5632 37.1882C22.4993 37.4253 22.5905 37.6789 22.7857 37.8175C23.6978 38.5526 24.608 38.881 25.7408 38.881C27.3533 38.881 28.4788 37.9397 28.4788 36.5935C28.4788 35.3586 27.689 34.6763 25.8357 34.3133L25.8393 34.317Z" fill="#687A82"/>
<path d="M2.59795 30.0721C3.48083 30.0721 4.19589 29.3589 4.19589 28.4778C4.19589 27.5968 3.48083 26.8835 2.59795 26.8835C1.71506 26.8835 1 27.5986 1 28.4797C1 29.3607 1.71506 30.074 2.59795 30.074V30.0721Z" fill="#2B88ED"/>
<path d="M9.48271 30.3422C10.3656 30.3422 11.0807 29.6289 11.0807 28.7479C11.0807 27.8668 10.3656 27.1536 9.48271 27.1536C8.59983 27.1536 7.88477 27.8668 7.88477 28.7479C7.88477 29.6289 8.59983 30.3422 9.48271 30.3422Z" fill="#3B3B96"/>
<path d="M16.303 30.3422C17.1859 30.3422 17.901 29.6289 17.901 28.7479C17.901 27.8668 17.1859 27.1536 16.303 27.1536C15.4201 27.1536 14.7051 27.8668 14.7051 28.7479C14.7051 29.6289 15.4201 30.3422 16.303 30.3422Z" fill="#2B88ED"/>
<path d="M9.48271 36.3143C10.3656 36.3143 11.0807 35.6011 11.0807 34.72C11.0807 33.839 10.3656 33.1257 9.48271 33.1257C8.59983 33.1257 7.88477 33.839 7.88477 34.72C7.88477 35.6011 8.59983 36.3143 9.48271 36.3143Z" fill="#F6D568"/>
<path d="M9.48271 24.3699C10.3656 24.3699 11.0807 23.6566 11.0807 22.7756C11.0807 21.8945 10.3638 21.1831 9.48271 21.1831C8.60165 21.1831 7.88477 21.8963 7.88477 22.7774C7.88477 23.6585 8.59983 24.3717 9.48271 24.3717V24.3699Z" fill="#F6D568"/>
<path d="M6.97751 26.9291C7.36058 26.6373 7.60867 26.1776 7.60867 25.6595C7.60867 24.7438 6.83523 24.0087 5.90492 24.0689C5.11689 24.12 4.47479 24.7548 4.41825 25.541C4.37811 26.1028 4.62985 26.6081 5.03845 26.9218C5.46348 27.2484 5.69697 27.7628 5.69697 28.2972V29.4136C5.69697 29.9317 5.46165 30.4278 5.04757 30.7416C4.66451 31.0335 4.41642 31.4931 4.41642 32.0112C4.41642 32.9269 5.18986 33.662 6.12017 33.6018C6.9082 33.5508 7.5503 32.916 7.60684 32.1298C7.64697 31.5679 7.39524 31.0626 6.98664 30.7489C6.56161 30.4224 6.32812 29.908 6.32812 29.3735V28.2571C6.32812 27.7391 6.56344 27.2429 6.97751 26.9291Z" fill="#F27553"/>
<path d="M13.8343 30.7506C13.4093 30.4241 13.1758 29.9097 13.1758 29.3752V28.2588C13.1758 27.7408 13.4111 27.2446 13.8252 26.9308C14.2101 26.639 14.4563 26.1793 14.4563 25.6612C14.4563 24.7455 13.6829 24.0104 12.7526 24.0706C11.9645 24.1217 11.3225 24.7565 11.2659 25.5427C11.2258 26.1045 11.4775 26.6098 11.8861 26.9235C12.3111 27.2501 12.5446 27.7645 12.5446 28.2989V29.4153C12.5446 29.9334 12.3093 30.4295 11.8952 30.7433C11.5103 31.0352 11.2641 31.4948 11.2641 32.0129C11.2641 32.9286 12.0375 33.6637 12.9678 33.6035C13.7559 33.5525 14.398 32.9177 14.4545 32.1315C14.4946 31.5696 14.2429 31.0643 13.8343 30.7506Z" fill="#F27553"/>
<path d="M11.2794 39.8878V36.9126C10.7978 37.3467 10.1703 37.6131 9.46068 37.6131C9.45886 37.6131 9.45521 37.6131 9.45339 37.6131H9.44062C9.44062 37.6131 9.43515 37.6131 9.43332 37.6131C8.72373 37.6131 8.09623 37.3467 7.61465 36.9126V39.8878C7.61465 40.902 6.1444 42.6824 4.20898 42.7353V42.79H14.685V42.7353C12.7496 42.6824 11.2794 40.902 11.2794 39.8878Z" fill="#3B3B96"/>
</svg>
