<svg width="120" height="64" viewBox="0 0 120 64" fill="none" xmlns="http://www.w3.org/2000/svg">
<path d="M26.9823 26.7139C26.7117 26.5709 26.4961 26.4653 26.2893 26.3465C25.6205 25.9593 24.9561 25.5655 24.2895 25.1761C23.5172 24.7251 22.7472 24.2719 21.9728 23.8253C21.3348 23.4557 20.6902 23.0949 20.0544 22.7231C19.3196 22.2963 18.5914 21.8585 17.8566 21.4317C17.498 21.2227 17.5398 21.1941 17.135 21.4383C16.7544 21.6693 16.3562 21.8739 15.9712 22.1005C15.4674 22.3975 14.9724 22.7121 14.4664 23.0069C14.0374 23.2577 13.593 23.4865 13.164 23.7373C12.3808 24.1927 11.6042 24.6613 10.8188 25.1167C10.4536 25.3301 10.0752 25.5171 9.70775 25.7305C9.20395 26.0231 8.70675 26.3223 8.20954 26.6259C8.08414 26.7029 8.00934 26.7095 8.00934 26.5401C8.00714 26.0209 7.96974 25.4973 8.03134 24.9869C8.05114 24.8263 8.31514 24.6679 8.49775 24.5601C9.17095 24.1553 9.85516 23.7725 10.535 23.3831C10.8628 23.1961 11.1972 23.0223 11.5228 22.8331C11.8858 22.6197 12.24 22.3909 12.603 22.1775C13.3004 21.7683 14.0022 21.3591 14.704 20.9587C15.2408 20.6529 15.7864 20.3603 16.3254 20.0545C16.662 19.8631 16.9854 19.6475 17.322 19.4561C17.3858 19.4187 17.5024 19.4099 17.564 19.4451C18.0744 19.7267 18.576 20.0237 19.082 20.3097C19.9818 20.8179 20.8838 21.3173 21.7836 21.8255C22.5536 22.2611 23.3214 22.6967 24.0871 23.1389C24.9891 23.6581 25.8889 24.1883 26.7931 24.7031C26.9207 24.7757 26.9845 24.8461 26.9801 25.0023C26.9691 25.5545 26.9757 26.1067 26.9757 26.7161L26.9823 26.7139Z" fill="#EA5B3B"/>
<path d="M25.3656 40.5763V40.1781C25.3656 36.9155 25.348 33.6506 25.3832 30.388C25.3898 29.8072 25.117 29.5674 24.6858 29.332C24.017 28.9668 23.3702 28.5642 22.708 28.1858C22.2922 27.9482 21.8632 27.7348 21.4452 27.495C20.5784 26.9978 19.7204 26.4874 18.8514 25.9946C18.1495 25.5964 17.4367 25.2158 16.7327 24.8198C16.4577 24.6636 16.1937 24.4854 15.8945 24.2962C16.3961 23.9816 16.8669 23.678 17.3465 23.3942C17.4213 23.3502 17.5665 23.359 17.6457 23.403C18.2705 23.7484 18.891 24.1026 19.507 24.4634C20.0614 24.7868 20.607 25.1256 21.1614 25.4512C21.586 25.6998 22.0216 25.933 22.4506 26.1794C23.3702 26.7074 24.2876 27.2376 25.205 27.7722C25.7462 28.0868 26.2852 28.4014 26.8176 28.7314C26.8968 28.7798 26.9364 28.903 26.9826 28.9954C27.0002 29.0306 26.9848 29.0812 26.9848 29.1252C26.9848 32.5374 26.9848 35.9518 26.9892 39.3641C26.9892 39.5907 26.9298 39.7227 26.7098 39.8305C26.2698 40.0439 25.8518 40.3035 25.3678 40.5763H25.3656Z" fill="#EA5B3B"/>
<path d="M2.74951 23.9683C2.75831 24.1487 2.76931 24.2521 2.76931 24.3533C2.77811 27.7127 2.78911 31.0721 2.78691 34.4315C2.78691 34.7153 2.87491 34.8627 3.12791 34.9969C3.86272 35.3885 4.57772 35.8175 5.29933 36.2333C6.24533 36.7768 7.19794 37.3136 8.13955 37.8636C8.90295 38.3102 9.65316 38.7854 10.4166 39.232C10.9798 39.562 11.5562 39.8678 12.1238 40.1868C12.159 40.2066 12.181 40.2484 12.2184 40.288C11.7454 40.552 11.29 40.8226 10.8126 41.0536C10.7048 41.1064 10.5068 41.047 10.3858 40.9788C9.26816 40.3452 8.16155 39.6984 7.04834 39.0582C6.32453 38.6424 5.59853 38.2332 4.87473 37.8196C4.09812 37.3752 3.32371 36.933 2.54931 36.4841C2.15771 36.2575 1.7749 36.0155 1.3877 35.7823C1.2733 35.7141 1.1875 35.6525 1.1875 35.4853C1.1941 32.0115 1.1919 28.5355 1.1963 25.0617C1.1963 24.9715 1.2447 24.8395 1.3151 24.7955C1.5901 24.6239 1.8827 24.4853 2.16431 24.3269C2.34251 24.2279 2.51191 24.1135 2.74731 23.9661L2.74951 23.9683Z" fill="#EA5B3B"/>
<path d="M1.19439 37.8811C1.47819 38.0373 1.7334 38.1759 1.9864 38.3211C2.4616 38.5939 2.9346 38.8733 3.40981 39.1483C4.27221 39.6477 5.13242 40.1471 5.99702 40.6421C6.58003 40.9765 7.16963 41.2955 7.75044 41.6321C8.38184 41.9973 9.00445 42.3801 9.63585 42.7453C9.94165 42.9235 10.2585 43.0841 10.5753 43.2447C10.6259 43.2689 10.7117 43.2733 10.7579 43.2447C11.2441 42.9675 11.7215 42.6749 12.2077 42.3977C12.6257 42.1601 13.0591 41.9423 13.4749 41.7025C14.0711 41.3593 14.6585 40.9963 15.2547 40.6509C15.5825 40.4595 15.9213 40.2901 16.2491 40.1031C16.6891 39.8501 17.1203 39.5795 17.5647 39.3309C18.2027 38.9701 18.8495 38.6247 19.4897 38.2683C19.6239 38.1935 19.7493 38.1033 19.8769 38.0131C20.0045 37.9251 20.0793 37.9581 20.0815 38.1077C20.0859 38.6093 20.0859 39.1109 20.0793 39.6125C20.0793 39.6697 20.0331 39.7445 19.9847 39.7775C19.8131 39.8941 19.6349 40.0041 19.4545 40.1053C18.8451 40.4463 18.2313 40.7741 17.6263 41.1217C17.0389 41.4605 16.4691 41.8301 15.8817 42.1667C15.2525 42.5297 14.6079 42.8641 13.9765 43.2227C13.4243 43.5373 12.8831 43.8739 12.3309 44.1929C11.9349 44.4217 11.4949 44.5889 11.1451 44.8706C10.7799 45.1654 10.5291 45.1038 10.1727 44.8662C9.53685 44.4437 8.86144 44.0851 8.19924 43.7023C7.95064 43.5593 7.69544 43.4317 7.44683 43.2887C6.37763 42.6727 5.30842 42.0545 4.24141 41.4363C3.34601 40.9171 2.4506 40.3957 1.55299 39.8765C1.30659 39.7335 1.15479 39.5641 1.18559 39.2341C1.22519 38.7985 1.19439 38.3563 1.19439 37.8811Z" fill="#EA5B3B"/>
<path d="M6.17656 34.656C5.74976 34.414 5.38675 34.2072 5.02155 33.9982C4.94675 33.9542 4.85875 33.9256 4.79715 33.8662C4.72455 33.7936 4.66075 33.7056 4.62115 33.611C4.59475 33.5516 4.61455 33.4724 4.61455 33.402C4.61455 30.0162 4.61675 26.6282 4.60795 23.2423C4.60795 22.9761 4.69155 22.8463 4.92695 22.7187C5.62876 22.3381 6.31296 21.9245 7.00157 21.5197C7.81337 21.0445 8.62078 20.5627 9.43478 20.0919C9.80878 19.8741 10.196 19.6827 10.57 19.4649C11.219 19.0887 11.8592 18.6971 12.506 18.3187C12.9658 18.0481 13.4278 17.7863 13.892 17.5245C14.0152 17.4563 14.134 17.4321 14.2748 17.5179C14.7104 17.7841 15.157 18.0349 15.6344 18.3121C15.2296 18.5475 14.8446 18.7719 14.4618 18.9963C14.057 19.2361 13.6544 19.4803 13.2474 19.7157C12.8866 19.9225 12.5192 20.1139 12.1584 20.3207C11.2388 20.8487 10.3258 21.3855 9.40618 21.9113C8.85398 22.2281 8.29297 22.5295 7.74077 22.8441C7.27657 23.1081 6.81456 23.3744 6.35916 23.6538C6.29096 23.6956 6.25136 23.8122 6.23156 23.9024C6.20736 24.0212 6.21176 24.1466 6.21176 24.2698C6.20736 27.5852 6.20296 30.9028 6.19856 34.2182C6.19856 34.3392 6.18756 34.458 6.17876 34.6516L6.17656 34.656Z" fill="#EA5B3B"/>
<path d="M21.8528 29.8423C22.108 29.9765 22.295 30.0645 22.4732 30.1701C22.7284 30.3219 22.9792 30.4847 23.23 30.6409C23.3928 30.7421 23.4588 30.8741 23.4588 31.0765C23.45 32.4405 23.4544 33.8045 23.4544 35.1685C23.4544 37.2101 23.4456 39.2517 23.4632 41.2934C23.4654 41.6234 23.3818 41.7884 23.0694 41.9358C22.5326 42.1866 22.0354 42.5144 21.5206 42.8114C20.7814 43.236 20.0421 43.6628 19.3007 44.0852C18.7617 44.391 18.2161 44.6814 17.6793 44.9916C17.0479 45.359 16.4275 45.7418 15.7961 46.1114C15.2813 46.4128 14.7599 46.7054 14.2385 46.9958C14.1615 47.0376 14.0361 47.0838 13.9767 47.0486C13.4927 46.7758 13.0219 46.4832 12.4961 46.1686C13.0835 45.8408 13.6313 45.5394 14.1703 45.2292C14.5597 45.0048 14.9381 44.765 15.3253 44.5362C16.0381 44.116 16.7487 43.6914 17.4681 43.2822C18.0665 42.9412 18.6737 42.62 19.2743 42.2812C19.6901 42.048 20.0993 41.7994 20.5129 41.5596C20.9398 41.311 21.3732 41.0756 21.789 40.8116C21.877 40.7544 21.9474 40.596 21.9474 40.4816C21.954 39.2495 21.9408 38.0175 21.9386 36.7877C21.9364 35.1421 21.9452 33.4965 21.9342 31.8509C21.9298 31.2041 21.8836 30.5551 21.8528 29.8445V29.8423Z" fill="#EA5B3B"/>
<path d="M15.5137 28.3947C15.9295 28.1659 16.3101 27.9459 16.7017 27.7479C16.7721 27.7127 16.8975 27.7391 16.9767 27.7787C17.7511 28.1593 18.5189 28.5531 19.2933 28.9337C19.4407 29.0063 19.4979 29.0965 19.4979 29.2593C19.4913 30.1305 19.5023 31.0017 19.4869 31.8729C19.4869 31.9829 19.3901 32.1391 19.2911 32.1941C18.6201 32.5813 17.9359 32.9399 17.2605 33.3205C16.4949 33.7495 15.7337 34.1896 14.9747 34.6274C14.6755 34.799 14.3807 34.9794 14.0463 35.1796C14.0463 34.6978 14.0111 34.2578 14.0661 33.8287C14.0837 33.6901 14.3301 33.5603 14.4951 33.4657C15.1727 33.0763 15.8635 32.7067 16.5455 32.3217C17.0471 32.0401 17.5465 31.7541 18.0371 31.4527C18.1251 31.3977 18.2131 31.2679 18.2197 31.1667C18.2461 30.7641 18.2527 30.3571 18.2351 29.9545C18.2307 29.8599 18.1251 29.7323 18.0327 29.6861C17.2847 29.3099 16.5279 28.9491 15.7777 28.5795C15.7007 28.5421 15.6347 28.4827 15.5159 28.3991L15.5137 28.3947Z" fill="#EA5B3B"/>
<path d="M11.3606 30.6167C11.651 30.7971 11.9106 30.9907 12.1966 31.1227C12.5464 31.2855 12.5794 31.5473 12.575 31.8861C12.5596 33.1533 12.5904 34.4183 12.5552 35.6855C12.5442 36.0661 12.7136 36.2377 12.9908 36.3983C13.2306 36.5369 13.4572 36.6953 13.7036 36.8163C13.7916 36.8603 13.9478 36.8559 14.0292 36.8053C14.4934 36.5193 14.9422 36.2135 15.3976 35.9143C15.7254 35.6987 16.0554 35.4831 16.4206 35.2455C16.4206 35.7229 16.4624 36.1871 16.3986 36.6381C16.3766 36.7921 16.095 36.9197 15.919 37.0385C15.2942 37.4587 14.6694 37.8745 14.0314 38.275C13.95 38.3278 13.7806 38.3256 13.697 38.275C12.9534 37.8217 12.2186 37.3553 11.4904 36.8801C11.4112 36.8273 11.3254 36.7085 11.3254 36.6205C11.3166 34.6603 11.321 32.6979 11.3254 30.7377C11.3254 30.7223 11.3364 30.7047 11.365 30.6211L11.3606 30.6167Z" fill="#EA5B3B"/>
<path d="M16.6222 30.6562C16.4154 30.7684 16.2262 30.8696 16.0392 30.9708C15.9028 31.0456 15.7642 31.1182 15.6278 31.193C15.4694 31.2766 15.3242 31.292 15.1548 31.1864C14.2858 30.6474 13.408 30.1216 12.5346 29.5936C12.2156 29.4 11.8966 29.2108 11.5798 29.015C11.4214 28.9182 11.2894 28.8786 11.1002 28.9886C10.7262 29.2042 10.3302 29.3824 9.93639 29.565C9.77359 29.642 9.70979 29.7454 9.71199 29.9302C9.72299 30.6606 9.71639 31.391 9.71639 32.1214C9.71639 32.2072 9.71639 32.2952 9.71639 32.4536C9.35119 32.2666 9.02998 32.106 8.71758 31.9322C8.67798 31.9102 8.67798 31.8024 8.67798 31.7342C8.67578 30.8366 8.67798 29.939 8.67578 29.0414C8.67578 28.8654 8.74398 28.7796 8.91998 28.696C9.68119 28.3352 10.427 27.9392 11.1838 27.5674C11.2718 27.5234 11.4258 27.5234 11.5094 27.5718C12.099 27.9062 12.6798 28.256 13.2628 28.6058C14.3452 29.257 15.4276 29.9126 16.51 30.566C16.5386 30.5836 16.565 30.6078 16.6244 30.6518L16.6222 30.6562Z" fill="#EA5B3B"/>
<path d="M115.645 33.1049C115.645 34.4249 115.639 35.7427 115.65 37.0627C115.65 37.2981 115.579 37.3729 115.348 37.3553C115.095 37.3377 114.838 37.3421 114.583 37.3553C114.409 37.3619 114.349 37.2937 114.354 37.1243C114.36 36.7899 114.367 36.4555 114.347 36.1233C114.341 36.0265 114.261 35.8791 114.182 35.8549C114.008 35.7977 114.013 35.9539 113.991 36.0793C113.903 36.5853 113.549 36.9153 113.135 37.1309C112.627 37.3971 112.07 37.5753 111.483 37.5753C110.279 37.5753 109.232 37.1727 108.451 36.2421C107.98 35.6811 107.705 35.0123 107.527 34.2863C107.375 33.6637 107.391 33.0433 107.452 32.4361C107.516 31.8289 107.683 31.2194 108.049 30.6936C108.376 30.2228 108.691 29.7476 109.195 29.4352C109.63 29.1646 110.062 28.8962 110.583 28.8258C110.882 28.7862 111.181 28.7466 111.483 28.7224C112.242 28.6608 112.9 28.927 113.494 29.3736C113.718 29.543 113.914 29.752 114.127 29.9368C114.169 29.9742 114.226 29.994 114.275 30.0204C114.301 29.9698 114.347 29.9214 114.349 29.8708C114.358 29.598 114.36 29.3252 114.354 29.0524C114.349 28.8786 114.415 28.8192 114.587 28.828C114.851 28.839 115.115 28.8456 115.379 28.828C115.592 28.8126 115.65 28.8918 115.647 29.0964C115.641 30.258 115.643 31.4174 115.643 32.5791C115.643 32.7551 115.643 32.9311 115.643 33.1071L115.645 33.1049ZM108.717 33.2303C108.689 33.6791 108.821 34.1851 109.045 34.6757C109.327 35.2939 109.756 35.7647 110.389 36.0287C110.873 36.2311 111.371 36.2795 111.903 36.2355C112.484 36.1871 112.952 35.9605 113.373 35.5953C113.914 35.1245 114.178 34.4953 114.297 33.8023C114.479 32.7177 114.27 31.7255 113.544 30.8806C113.049 30.3042 112.398 30.0314 111.641 30.0138C111.096 30.0028 110.559 30.0666 110.123 30.4252C109.784 30.7024 109.426 30.9884 109.184 31.3448C108.827 31.8707 108.717 32.4999 108.72 33.2347L108.717 33.2303Z" fill="#EA5B3B"/>
<path d="M116.809 33.0828C116.809 31.7716 116.816 30.4626 116.805 29.1514C116.805 28.9006 116.871 28.817 117.13 28.8236C117.738 28.8412 118.345 28.8346 118.95 28.8258C119.119 28.8236 119.187 28.8742 119.181 29.0502C119.17 29.367 119.17 29.6838 119.181 30.0006C119.187 30.181 119.113 30.225 118.948 30.2206C118.543 30.2118 118.138 30.2118 117.733 30.225C117.661 30.2272 117.59 30.3064 117.518 30.3504C117.579 30.4318 117.625 30.5616 117.702 30.5836C118.07 30.6936 118.085 30.6914 118.085 31.083C118.085 33.0806 118.085 35.076 118.09 37.0715C118.09 37.2915 118.019 37.3685 117.801 37.3553C117.566 37.3399 117.326 37.3377 117.089 37.3553C116.864 37.3707 116.803 37.2805 116.805 37.0671C116.811 35.7382 116.809 34.4116 116.809 33.0828Z" fill="#EA5B3B"/>
<path d="M118.929 27.1737C118.934 27.7898 118.494 28.243 117.895 28.2628C117.323 28.2804 116.804 27.7634 116.809 27.2221C116.813 26.6259 117.315 26.0561 117.873 26.0935C118.399 26.1287 118.954 26.5731 118.932 27.1737H118.929Z" fill="#EA5B3B"/>
<path d="M70.7175 34.3832C70.5657 34.7594 70.4667 35.096 70.3017 35.3996C69.7957 36.328 69.0411 37.0012 68.0423 37.3466C67.1667 37.6502 66.2691 37.626 65.3781 37.362C64.1152 36.9858 63.288 36.1322 62.7842 34.9508C62.5378 34.3744 62.5136 33.7496 62.5026 33.1248C62.4872 32.1062 62.7314 31.1712 63.3298 30.3462C63.8094 29.684 64.4255 29.2 65.2065 28.9052C65.9567 28.6213 66.7333 28.5993 67.4791 28.7357C68.5395 28.9316 69.3975 29.5256 70.0289 30.4298C70.5921 31.235 70.7725 32.1524 70.8737 33.1006C70.8913 33.259 70.8319 33.3294 70.6713 33.3272C70.3457 33.3228 70.0201 33.3272 69.6945 33.3272C67.6793 33.3272 65.6663 33.3272 63.651 33.3272C63.607 33.3272 63.5586 33.3162 63.519 33.3294C63.4244 33.3624 63.332 33.4086 63.2396 33.4482C63.3078 33.5054 63.3716 33.6044 63.4464 33.611C63.9282 33.6594 64.0272 34.0576 64.1592 34.4008C64.7995 36.0662 66.4957 36.4292 67.8355 35.8792C68.4405 35.6306 68.8365 35.1356 69.1247 34.5526C69.1599 34.4822 69.2457 34.3942 69.3117 34.392C69.7495 34.3788 70.1895 34.3854 70.7175 34.3854V34.3832ZM64.1153 32.0204H69.2215C68.8079 30.63 67.7915 29.9018 66.0249 30.1416C65.2813 30.2428 64.3815 30.8764 64.1153 32.0204Z" fill="black"/>
<path d="M52.2864 37.3906C52.2864 36.9792 52.2952 36.6008 52.2798 36.2246C52.2754 36.1256 52.2094 35.9562 52.1478 35.943C51.9762 35.91 51.9938 36.0684 51.9696 36.1916C51.875 36.6668 51.556 36.9726 51.1512 37.1882C50.3592 37.6106 49.5232 37.7074 48.6322 37.5512C47.7368 37.395 47.0086 36.977 46.4234 36.306C45.9372 35.7472 45.6248 35.1026 45.4642 34.37C45.3102 33.6704 45.3036 32.9664 45.3982 32.28C45.5346 31.2768 45.9834 30.3946 46.7534 29.6972C47.5718 28.9558 48.5266 28.6566 49.6244 28.672C50.3834 28.683 51.0324 28.9272 51.6176 29.376C51.7892 29.5058 51.93 29.6774 52.0862 29.827C52.1258 29.8644 52.172 29.8952 52.2666 29.9678V28.8128C52.7264 28.8128 53.1532 28.8084 53.58 28.8194C53.624 28.8194 53.6834 28.8942 53.7032 28.947C53.7252 29.0108 53.712 29.0856 53.712 29.156C53.712 31.785 53.712 34.4162 53.712 37.0452C53.712 37.274 53.594 37.3884 53.3578 37.3884C53.008 37.3884 52.6582 37.3884 52.2842 37.3884L52.2864 37.3906ZM46.7402 33.149C46.7908 33.4944 46.8216 33.8442 46.8986 34.183C47.1516 35.3006 47.9106 35.9452 48.9798 36.1652C49.7542 36.3236 50.5176 36.1696 51.1842 35.657C51.776 35.2016 52.0664 34.6032 52.205 33.8948C52.2996 33.413 52.2842 32.94 52.2094 32.456C52.1346 31.9676 51.9608 31.5254 51.6704 31.136C51.0588 30.3154 50.2206 30.0294 49.2152 30.102C48.553 30.1504 48.0184 30.421 47.5718 30.8896C46.969 31.521 46.7446 32.2866 46.7402 33.149Z" fill="black"/>
<path d="M90.3587 29.9148V28.8302H91.7777V37.3729H90.3675C90.3675 36.9637 90.3719 36.5633 90.3631 36.1629C90.3631 36.0837 90.3015 36.0067 90.2663 35.9275C90.1981 35.9957 90.0815 36.0529 90.0683 36.1299C89.9451 36.8229 89.4325 37.1375 88.8561 37.3729C88.3325 37.5863 87.7781 37.6633 87.2083 37.6193C85.8839 37.5203 84.8498 36.9307 84.137 35.8021C83.8202 35.3026 83.5694 34.7724 83.5342 34.1696C83.5012 33.5954 83.3934 33.008 83.466 32.447C83.6728 30.8476 84.4824 29.6332 85.9873 28.9556C86.7617 28.6058 87.6021 28.5992 88.4095 28.7378C89.0849 28.8544 89.6635 29.2504 90.1365 29.7696C90.1871 29.8268 90.2421 29.8796 90.2949 29.9368C90.3169 29.9302 90.3367 29.9214 90.3587 29.9148ZM87.6021 30.0578C87.2875 30.1172 86.9619 30.137 86.6627 30.2404C85.6089 30.61 85.0544 31.4284 84.8916 32.48C84.786 33.162 84.7992 33.8704 85.083 34.5392C85.4681 35.4545 86.1633 35.9957 87.1159 36.1739C87.5845 36.2619 88.0729 36.2311 88.5415 36.0551C89.0937 35.8483 89.5337 35.5139 89.8615 35.0232C90.0859 34.6866 90.1871 34.3148 90.2817 33.9232C90.4885 33.0762 90.3829 32.249 89.9979 31.5142C89.5139 30.5924 88.7219 30.0424 87.6043 30.0578H87.6021Z" fill="black"/>
<path d="M99.7255 29.8974V28.8304H101.127V37.3884C100.707 37.3884 100.293 37.3972 99.8817 37.3796C99.8267 37.3774 99.7343 37.2476 99.7321 37.175C99.7167 36.8406 99.7321 36.5062 99.7211 36.1718C99.7189 36.0904 99.6617 36.009 99.6309 35.9298C99.5803 35.9936 99.5055 36.0508 99.4835 36.1234C99.2855 36.8186 98.7883 37.1816 98.1371 37.4082C97.6487 37.5798 97.1537 37.6546 96.6411 37.6238C95.1582 37.5358 94.0648 36.8318 93.3564 35.5338C93.1012 35.0674 92.9142 34.5724 92.8856 34.0312C92.8614 33.6044 92.7822 33.1754 92.8108 32.7552C92.8922 31.5496 93.3454 30.5002 94.2562 29.6774C95.0504 28.958 95.9855 28.6698 97.0547 28.6764C98.0403 28.683 98.8279 29.0614 99.4923 29.7544C99.5495 29.8138 99.5935 29.882 99.6441 29.9458C99.6727 29.9304 99.7013 29.915 99.7277 29.8996L99.7255 29.8974ZM96.9007 30.1042C96.1725 30.047 95.5169 30.3572 94.9778 30.9578C94.6214 31.3582 94.4234 31.8202 94.3002 32.3416C94.1176 33.1204 94.1726 33.8816 94.4872 34.5922C94.969 35.679 95.8446 36.2114 97.0437 36.2048C97.5563 36.2026 98.0293 36.0706 98.4561 35.7912C99.0875 35.3776 99.4813 34.8012 99.6331 34.0554C99.7981 33.248 99.8003 32.4384 99.4571 31.6926C98.9819 30.6608 98.1745 30.0624 96.8985 30.1042H96.9007Z" fill="black"/>
<path d="M77.4029 35.0606C78.0849 35.571 78.7603 35.934 79.5523 36.1056C79.9505 36.1914 80.2981 36.1474 80.6589 36.0484C81.0835 35.9318 81.2771 35.5996 81.3101 35.1904C81.3409 34.8032 81.1451 34.4864 80.8041 34.3214C80.2871 34.075 79.7437 33.8858 79.2179 33.657C78.5469 33.3644 77.8759 33.0564 77.4205 32.4514C77.0619 31.9784 76.9431 31.4438 77.0311 30.8388C77.1455 30.0446 77.5503 29.4462 78.2213 29.0744C78.9143 28.6894 79.6843 28.5794 80.4719 28.7884C80.8811 28.8962 81.2947 28.9974 81.6907 29.1382C81.8975 29.213 82.0823 29.3604 82.2649 29.4924C82.3133 29.5276 82.3595 29.6442 82.3375 29.6926C82.1725 30.0666 81.9899 30.4318 81.8249 30.7772C81.4817 30.566 81.1979 30.3658 80.8921 30.2118C80.2849 29.9082 79.6381 29.9038 79.0221 30.1458C78.6371 30.2976 78.4281 30.6716 78.3885 31.0896C78.3511 31.4856 78.5315 31.8178 78.8747 32.0004C79.4049 32.282 79.9615 32.513 80.5027 32.7726C81.2243 33.1202 81.9459 33.4744 82.4079 34.1762C82.9997 35.076 82.7225 36.4136 81.8117 37.0362C81.2705 37.4036 80.6699 37.5224 80.0231 37.5444C78.9077 37.584 77.9397 37.2364 77.0707 36.5632C76.7847 36.3432 76.7781 36.308 76.9431 35.9648C77.0861 35.6678 77.2401 35.373 77.4007 35.054L77.4029 35.0606Z" fill="black"/>
<path d="M39.7636 36.185C39.7636 36.6184 39.7768 37.0034 39.7526 37.3884C39.7482 37.4632 39.6008 37.5864 39.515 37.593C38.8154 37.6392 38.1136 37.6788 37.4184 37.5138C36.4591 37.285 35.7177 36.4336 35.7045 35.4524C35.6825 33.8266 35.6891 32.1986 35.7023 30.5728C35.7045 30.2934 35.6165 30.223 35.3591 30.2406C35.0621 30.2604 34.7607 30.2362 34.4615 30.2494C34.2855 30.256 34.2283 30.1856 34.2305 30.0206C34.2349 29.6862 34.2349 29.3518 34.2305 29.0174C34.2283 28.859 34.2921 28.804 34.4505 28.8084C34.8531 28.8172 35.2557 28.8106 35.6935 28.8106V28.397C35.6935 27.7722 35.7045 27.1473 35.6891 26.5247C35.6825 26.2607 35.7837 26.1815 36.0279 26.1947C36.2831 26.2079 36.5383 26.1947 36.7935 26.1991C37.0114 26.2035 37.1257 26.2915 37.1213 26.5379C37.1081 27.2837 37.117 28.0318 37.117 28.8106C37.3612 28.8106 37.5878 28.8062 37.8122 28.8106C38.151 28.8194 38.4898 28.8392 38.8308 28.8524C38.8418 29.1934 38.8528 29.5322 38.866 29.8732C38.866 29.9084 38.8616 29.9436 38.866 29.9788C38.8968 30.1944 38.7912 30.2494 38.5932 30.2472C37.9684 30.2384 37.3436 30.2406 36.7209 30.2472C36.6395 30.2472 36.5581 30.3044 36.4767 30.3352C36.5449 30.3836 36.6065 30.4474 36.6813 30.4738C37.0201 30.5926 37.117 30.7246 37.1191 31.125C37.1214 32.3922 37.1346 33.6572 37.1191 34.9244C37.1103 35.5866 37.601 36.2158 38.2676 36.218C38.5976 36.218 38.9298 36.2246 39.2598 36.2224C39.416 36.2224 39.5722 36.2004 39.768 36.1872L39.7636 36.185Z" fill="black"/>
<path d="M54.7227 28.8214H56.1527C56.9711 31.017 57.7961 33.2236 58.6189 35.4324C58.6475 35.4654 58.6761 35.4984 58.7047 35.5314C58.7311 35.461 58.7553 35.3884 58.7817 35.318C59.0457 34.6074 59.3053 33.8968 59.5737 33.1884C59.9301 32.2424 60.2953 31.3008 60.6517 30.3548C60.8145 29.9192 60.9641 29.477 61.1203 29.037C61.1731 28.8896 61.2457 28.795 61.4349 28.8038C61.8287 28.8214 62.2247 28.8082 62.6559 28.8082C62.4865 29.2482 62.3259 29.6618 62.1675 30.0732C61.8903 30.786 61.6153 31.4988 61.3359 32.2116C60.9773 33.1268 60.6121 34.042 60.2557 34.9594C60.0577 35.472 59.8751 35.9912 59.6815 36.506C59.5847 36.7634 59.4813 37.0208 59.3625 37.2694C59.3339 37.3266 59.2349 37.3794 59.1645 37.3816C58.8653 37.3948 58.5661 37.375 58.2669 37.3926C58.0799 37.4036 57.9919 37.3134 57.9347 37.1638C57.6333 36.363 57.3429 35.5578 57.0327 34.7592C56.6499 33.7758 56.2451 32.8012 55.8623 31.8178C55.4795 30.8344 55.1121 29.8444 54.7249 28.8192L54.7227 28.8214Z" fill="black"/>
<path d="M102.149 31.8223C102.149 30.0711 102.149 28.3221 102.149 26.5709C102.149 26.2739 102.215 26.2035 102.517 26.1969C102.763 26.1925 103.009 26.1947 103.256 26.1969C103.577 26.1969 103.614 26.2343 103.614 26.5665C103.614 28.5201 103.614 30.4715 103.614 32.4251C103.614 33.9739 103.61 35.5205 103.619 37.0694C103.619 37.3202 103.553 37.417 103.293 37.395C103.023 37.373 102.748 37.3774 102.475 37.395C102.233 37.4082 102.14 37.34 102.143 37.0737C102.156 35.3225 102.149 33.5735 102.149 31.8223Z" fill="black"/>
<path d="M40.7852 28.826H42.1976V29.4464C42.5078 29.2506 42.7806 29.0526 43.0776 28.8986C43.2712 28.7996 43.4956 28.7248 43.7112 28.7094C44.1182 28.6808 44.5296 28.694 44.9366 28.7072C45.2666 28.7182 45.3458 28.815 45.348 29.1428C45.348 29.3716 45.3392 29.6004 45.3502 29.8292C45.3634 30.0536 45.2886 30.1372 45.051 30.135C44.0126 30.124 42.9764 30.1306 41.938 30.1306H41.652C41.6344 30.1526 41.6168 30.1724 41.5992 30.1944C41.652 30.2516 41.6938 30.3374 41.7576 30.3616C42.1448 30.498 42.2042 30.564 42.2042 30.9644C42.2042 33.0324 42.2042 35.0983 42.2042 37.1663C42.2042 37.2279 42.1976 37.2873 42.1932 37.3709H40.7852V28.8304V28.826Z" fill="black"/>
<path d="M73.3143 37.3751H71.9062V28.8302H73.3165V29.4462C73.6289 29.2504 73.9083 29.0524 74.2075 28.894C74.3835 28.7994 74.5903 28.7246 74.7861 28.7114C75.2019 28.685 75.6199 28.696 76.0357 28.7092C76.3591 28.7202 76.4163 28.7928 76.4185 29.1008C76.4185 29.433 76.4185 29.7652 76.4185 30.1305C76.2931 30.1305 76.2007 30.1305 76.1061 30.1305C75.0765 30.1305 74.0469 30.1305 73.0173 30.1305C72.9557 30.1305 72.8897 30.1194 72.8325 30.1348C72.7819 30.148 72.7423 30.1943 72.6961 30.2273C72.7313 30.2713 72.7555 30.3351 72.7995 30.3549C73.3099 30.5727 73.3121 30.5705 73.3121 31.1095C73.3121 33.0983 73.3121 35.0871 73.3121 37.0759C73.3121 37.1705 73.3121 37.2673 73.3121 37.3773L73.3143 37.3751Z" fill="black"/>
<path d="M104.655 36.5369C104.603 36.0991 104.968 35.6877 105.476 35.7075C105.938 35.7251 106.321 36.1035 106.319 36.5721C106.314 37.0451 105.951 37.3949 105.463 37.3927C104.977 37.3927 104.655 37.0517 104.655 36.5391V36.5369Z" fill="black"/>
</svg>
