<svg width="541" height="448" viewBox="0 0 541 448" fill="none" xmlns="http://www.w3.org/2000/svg">
<g clip-path="url(#clip0_2561_2124)">
<path opacity="0.5" d="M540.275 372.299L421.38 441.25L325.611 385.852L400.297 342.625L540.275 372.299Z" fill="url(#paint0_linear_2561_2124)"/>
<path opacity="0.5" d="M436.44 324.801L223.539 447.719L0 318.66L149.028 232.617L436.44 324.801Z" fill="url(#paint1_linear_2561_2124)"/>
<path d="M228.276 259.417L159.757 245.325C154.989 248.076 149.028 244.638 149.028 239.131V90.8055C149.028 86.5445 151.299 82.6109 154.989 80.4831L226.877 38.977C230.868 36.6749 235.853 39.5736 235.816 44.1831L234.232 249.184C234.205 253.414 231.935 257.305 228.276 259.417Z" fill="#24386C"/>
<path d="M438.352 313.496L240.352 252.834C236.661 250.706 234.391 246.767 234.391 242.511V50.7629C234.391 46.1745 239.359 43.3075 243.33 45.599L448.685 164.299L447.291 308.337C447.291 312.92 442.322 315.787 438.352 313.496Z" fill="#24386C"/>
<path d="M319.395 45.311L319.615 74.6634L249.875 34.2111V7.97242C249.875 3.75838 254.432 1.13268 258.074 3.24631L258.074 3.24635L313.704 35.5177C317.199 37.5463 319.364 41.2694 319.395 45.311Z" fill="white" stroke="#D7E2FF"/>
<path d="M432.292 282.353L432.291 282.353L234.291 168.041L234.291 168.041C230.755 166.002 228.58 162.229 228.58 158.151V20.0529C228.58 15.8495 233.132 13.223 236.769 15.3221C236.769 15.3221 236.769 15.3221 236.769 15.3221L434.764 129.634L434.764 129.634C438.3 131.673 440.475 135.446 440.475 139.523L440.48 277.622C440.48 281.826 435.928 284.456 432.292 282.353Z" fill="white" stroke="#D7E2FF"/>
<path d="M320.058 136.712V109.879C320.058 106.293 322.972 103.379 326.557 103.379C327.682 103.379 328.807 103.685 329.805 104.266L385.435 136.537C389.226 138.739 391.607 142.831 391.639 147.213L391.871 178.365L320.058 136.712Z" fill="#F4D872"/>
<path d="M326.557 103.911C327.555 103.911 328.574 104.165 329.54 104.725L385.17 136.996C388.819 139.113 391.079 142.999 391.11 147.218L391.337 177.446L320.585 136.405V109.878C320.585 106.398 323.442 103.911 326.557 103.911ZM326.557 102.855C322.681 102.855 319.529 106.008 319.529 109.883V136.41V137.017L320.057 137.323L390.809 178.365L392.409 179.294L392.393 177.446L392.166 147.218C392.129 142.646 389.653 138.385 385.698 136.088L330.068 103.816C328.991 103.183 327.777 102.855 326.557 102.855Z" fill="#C3D0F8"/>
<path d="M213.086 215.429L213.086 215.429C209.55 213.391 207.375 209.617 207.375 205.54V67.4416C207.375 63.2381 211.927 60.6117 215.564 62.7107C215.564 62.7107 215.564 62.7108 215.564 62.7108L413.559 177.023L413.559 177.023C417.095 179.061 419.27 182.835 419.27 186.912L419.275 325.011V325.011C419.28 329.214 414.729 331.846 411.086 329.741L410.836 330.174L411.086 329.741L213.086 215.429Z" fill="#F4D872" stroke="#C3D0F8"/>
<path d="M238.842 112.914V86.0651C238.842 82.48 241.756 79.5654 245.341 79.5654C246.466 79.5654 247.585 79.8717 248.578 80.4472L324.214 124.181C328.016 126.378 330.397 130.475 330.429 134.863L330.661 166.004L238.842 112.914Z" fill="#FFE588"/>
<path d="M245.336 80.098C246.329 80.098 247.348 80.3514 248.309 80.9058L323.945 124.64C327.604 126.757 329.869 130.649 329.901 134.873L330.128 165.09L239.37 112.607V86.0644C239.37 82.5902 242.226 80.098 245.336 80.098ZM245.336 79.042C241.461 79.042 238.309 82.1942 238.309 86.0697V112.612V113.219L238.837 113.526L329.595 166.009L331.194 166.933L331.179 165.085L330.951 134.867C330.915 130.29 328.433 126.023 324.473 123.732L248.842 79.9924C247.765 79.3694 246.556 79.042 245.336 79.042Z" fill="#C3D0F8"/>
<path d="M191.851 227.768L191.851 227.768C188.315 225.73 186.14 221.956 186.14 217.879V79.7804C186.14 75.577 190.691 72.9505 194.329 75.0496C194.329 75.0496 194.329 75.0496 194.329 75.0496L392.323 189.362L392.324 189.362C395.859 191.4 398.035 195.174 398.035 199.251L398.04 337.349V337.35C398.045 341.558 393.494 344.185 389.851 342.08L389.601 342.513L389.851 342.08L191.851 227.768Z" fill="#FFE588" stroke="#C3D0F8"/>
<path d="M180.971 104.361V77.5065C180.971 73.9214 183.885 71.0068 187.47 71.0068C188.59 71.0068 189.709 71.3131 190.707 71.8833L229.082 94.0382C232.889 96.2347 235.276 100.332 235.307 104.725L235.54 135.861L180.971 104.361Z" fill="#FFECA7"/>
<path d="M187.47 71.5394C188.463 71.5394 189.482 71.7928 190.443 72.3472L228.818 94.5021C232.477 96.6141 234.747 100.511 234.779 104.74L235.006 134.952L181.504 104.059V77.5111C181.498 74.0263 184.355 71.5394 187.47 71.5394ZM187.47 70.4834C183.595 70.4834 180.442 73.6356 180.442 77.5111V104.059V104.666L180.97 104.972L234.473 135.866L236.072 136.79L236.057 134.947L235.83 104.735C235.793 100.152 233.311 95.8855 229.34 93.594L190.965 71.4391C189.894 70.8108 188.684 70.4834 187.47 70.4834Z" fill="#C3D0F8"/>
<path d="M377.223 349.61L377.218 211.512C377.218 207.256 374.948 203.317 371.257 201.189L377.223 349.61ZM377.223 349.61C377.229 354.204 372.26 357.071 368.284 354.779L377.223 349.61ZM170.534 240.034L170.534 240.034C166.999 237.996 164.823 234.222 164.823 230.145V92.0412C164.823 87.8378 169.375 85.2113 173.012 87.3103C173.012 87.3104 173.012 87.3104 173.012 87.3104L371.007 201.622L371.007 201.623C374.543 203.661 376.718 207.434 376.718 211.512L376.723 349.61V349.611C376.728 353.818 372.177 356.446 368.534 354.346C368.534 354.346 368.534 354.346 368.534 354.346L170.534 240.034Z" fill="#FFECA7" stroke="#C3D0F8"/>
<path d="M441.176 322.07L370.867 362.662C366.891 364.959 361.923 362.087 361.923 357.498V207.108C361.923 202.847 364.193 198.914 367.884 196.786L439.771 155.28C443.763 152.978 448.747 155.876 448.71 160.486V311.837C448.684 316.061 444.835 319.952 441.176 322.07Z" fill="#24386C"/>
<path d="M352.985 362.662L154.985 248.35C151.294 246.222 149.023 242.283 149.023 238.028V99.924C149.023 95.3357 153.992 92.4686 157.962 94.7601L356.418 209.334C359.822 211.299 361.918 214.93 361.919 218.86L361.924 357.493C361.929 362.087 356.96 364.954 352.985 362.662Z" fill="#C91540"/>
<path d="M344.879 352.357L162.782 246.915C159.388 244.952 157.3 241.319 157.3 237.394V110.007C157.3 105.774 161.869 103.13 165.521 105.243L347.607 210.678C351.004 212.645 353.095 216.272 353.095 220.197L353.1 347.589C353.105 351.826 348.535 354.47 344.879 352.357Z" fill="#C91540"/>
<path d="M163.057 246.439L163.058 246.439L345.154 351.88L163.057 246.439ZM163.057 246.439C159.834 244.575 157.85 241.124 157.85 237.394V110.007C157.85 106.195 161.963 103.819 165.245 105.719C165.245 105.719 165.245 105.719 165.245 105.72L347.332 211.154C350.558 213.022 352.545 216.468 352.545 220.197L352.55 347.589V347.589M163.057 246.439L352.55 347.589M352.55 347.589C352.554 351.404 348.442 353.781 345.154 351.881L352.55 347.589Z" stroke="white" stroke-opacity="0.4" stroke-width="1.1"/>
<path d="M274.428 20.237C274.296 19.7407 274.132 19.3394 273.942 19.0385C273.752 18.7375 273.551 18.5263 273.356 18.4101C273.208 18.3257 273.071 18.2834 272.934 18.294C272.796 18.2993 272.68 18.3573 272.574 18.4735C272.474 18.5844 272.395 18.7692 272.342 19.0226C272.289 19.2761 272.274 19.5981 272.295 19.9941C272.311 20.3004 272.342 20.5802 272.395 20.8389C272.448 21.0977 272.522 21.3458 272.622 21.5887C272.722 21.8316 272.849 22.0797 273.007 22.3332C273.166 22.5866 273.361 22.8612 273.588 23.1516C273.81 23.442 274.026 23.7429 274.238 24.0492C274.449 24.3554 274.639 24.7039 274.808 25.0841C274.977 25.4642 275.119 25.9025 275.23 26.3935C275.347 26.8845 275.42 27.4601 275.452 28.1201C275.489 28.7906 275.463 29.345 275.378 29.778C275.294 30.2109 275.172 30.533 275.009 30.7548C274.845 30.9713 274.65 31.0927 274.422 31.1138C274.195 31.1349 273.958 31.0716 273.71 30.929C273.546 30.834 273.382 30.702 273.219 30.5383C273.055 30.3746 272.891 30.174 272.738 29.9417C272.58 29.7093 272.432 29.4348 272.289 29.1233C272.147 28.8117 272.02 28.458 271.909 28.062L272.416 27.27C272.564 27.8349 272.749 28.3049 272.976 28.685C273.203 29.0652 273.435 29.3239 273.678 29.4665C273.821 29.5509 273.958 29.5826 274.095 29.5615C274.232 29.5457 274.354 29.4717 274.459 29.3397C274.565 29.2077 274.644 29.0229 274.702 28.7695C274.76 28.5213 274.782 28.2045 274.76 27.8244C274.739 27.4073 274.692 27.0482 274.623 26.7525C274.554 26.4569 274.449 26.1823 274.322 25.9183C274.19 25.6596 274.032 25.3956 273.842 25.1369C273.652 24.8781 273.43 24.5719 273.171 24.2287C272.965 23.9594 272.775 23.6796 272.596 23.3839C272.421 23.0882 272.263 22.7661 272.126 22.4071C271.988 22.0481 271.872 21.6521 271.782 21.2085C271.693 20.765 271.629 20.2687 271.603 19.709C271.571 19.0596 271.592 18.5263 271.672 18.1039C271.751 17.6815 271.872 17.3594 272.031 17.1429C272.189 16.9212 272.379 16.7945 272.596 16.7628C272.812 16.7311 273.039 16.7839 273.287 16.9265C273.599 17.1113 273.894 17.3964 274.164 17.7818C274.433 18.1673 274.686 18.7111 274.919 19.4133L274.428 20.237Z" fill="#721FFA"/>
<path d="M279.808 32.5817C279.623 33.1413 279.406 33.4793 279.164 33.6007C278.915 33.7221 278.62 33.6799 278.277 33.4793C277.991 33.3103 277.727 33.0357 277.485 32.6556C277.242 32.2754 277.03 31.8266 276.851 31.3145C276.671 30.8023 276.524 30.2373 276.407 29.6143C276.291 28.9913 276.217 28.3577 276.186 27.7082C276.149 27.0218 276.165 26.4199 276.228 25.8972C276.291 25.3745 276.397 24.9573 276.545 24.6405C276.693 24.3237 276.872 24.1231 277.089 24.0281C277.305 23.933 277.553 23.9647 277.822 24.1231C278.076 24.2709 278.319 24.5138 278.541 24.8517C278.768 25.1844 278.963 25.6015 279.142 26.0873C279.317 26.5783 279.459 27.138 279.575 27.761C279.692 28.3893 279.765 29.0705 279.802 29.8044L279.829 30.2796L276.872 28.5477C276.904 28.9332 276.957 29.3239 277.041 29.7093C277.125 30.0948 277.226 30.4538 277.342 30.7706C277.458 31.0927 277.595 31.3725 277.743 31.6049C277.891 31.8372 278.049 32.0061 278.218 32.1012C278.482 32.2543 278.704 32.2754 278.873 32.154C279.042 32.0325 279.19 31.7897 279.311 31.4306L279.808 32.5817ZM279.095 28.6322C279.042 27.8613 278.91 27.1961 278.694 26.6258C278.477 26.0556 278.197 25.6701 277.859 25.4748C277.521 25.2741 277.257 25.3428 277.073 25.6807C276.888 26.0133 276.793 26.5519 276.793 27.2911L279.095 28.6322Z" fill="#721FFA"/>
<path d="M280.521 27.031C280.685 26.672 280.891 26.4555 281.139 26.3868C281.387 26.3129 281.641 26.3552 281.91 26.5136C282.454 26.8304 282.861 27.3689 283.135 28.1345C283.41 28.9001 283.579 29.9139 283.642 31.1811L283.843 35.0091C283.853 35.2625 283.874 35.5318 283.901 35.8064C283.927 36.0809 283.954 36.3449 283.98 36.5825L283.394 36.2393C283.362 36.0228 283.341 35.7905 283.325 35.5424C283.309 35.2942 283.299 35.0724 283.288 34.8824L283.272 34.8718C283.177 35.2572 283.035 35.5371 282.85 35.7113C282.665 35.8856 282.433 35.8908 282.148 35.7272C281.958 35.6163 281.778 35.4579 281.609 35.2467C281.44 35.0355 281.287 34.782 281.15 34.4916C281.018 34.196 280.902 33.8633 280.812 33.4937C280.722 33.1188 280.664 32.7176 280.643 32.2846C280.606 31.5507 280.653 31.0174 280.785 30.69C280.923 30.3627 281.097 30.1673 281.319 30.0987C281.541 30.03 281.783 30.0512 282.053 30.1568C282.322 30.2624 282.565 30.3838 282.787 30.5158L283.024 30.6531L283.008 30.3838C282.977 29.7344 282.871 29.2011 282.692 28.7787C282.517 28.3563 282.285 28.0606 281.995 27.8916C281.794 27.7755 281.604 27.7438 281.424 27.786C281.24 27.8336 281.086 27.9814 280.96 28.2243L280.521 27.031ZM282.47 31.5507C282.079 31.3236 281.773 31.2761 281.562 31.4081C281.345 31.5401 281.255 31.9097 281.287 32.5222C281.319 33.0819 281.414 33.5254 281.583 33.8475C281.746 34.1748 281.947 34.4019 282.174 34.5339C282.354 34.6395 282.502 34.6553 282.628 34.5867C282.755 34.518 282.855 34.3913 282.929 34.2012C283.003 34.0112 283.056 33.7683 283.088 33.4726C283.119 33.1769 283.125 32.8443 283.114 32.48L283.082 31.9097L282.47 31.5507Z" fill="#721FFA"/>
<path d="M284.681 30.4056C284.66 29.999 284.634 29.6136 284.607 29.2545C284.581 28.8955 284.555 28.5681 284.544 28.2725L285.125 28.6104C285.135 28.8533 285.151 29.0961 285.172 29.339C285.188 29.5819 285.204 29.8301 285.22 30.0888L285.236 30.0993C285.267 29.9093 285.315 29.735 285.378 29.5713C285.442 29.4077 285.526 29.2862 285.621 29.1859C285.716 29.0856 285.827 29.0275 285.954 29.0117C286.08 28.9905 286.218 29.0275 286.371 29.1173C286.413 29.1437 286.455 29.1701 286.498 29.207C286.54 29.244 286.582 29.2915 286.63 29.3549L286.667 30.8385C286.556 30.7013 286.445 30.6009 286.334 30.5323C285.959 30.3105 285.7 30.4478 285.563 30.9389C285.426 31.4299 285.383 32.1902 285.436 33.2198L285.663 37.5653L285.051 37.2062L284.681 30.4056Z" fill="#721FFA"/>
<path d="M289.909 33.573C289.761 33.1137 289.602 32.7599 289.444 32.4959C289.286 32.2372 289.111 32.0524 288.932 31.9468C288.726 31.8306 288.552 31.8095 288.404 31.8887C288.256 31.9679 288.14 32.1316 288.055 32.3745C287.971 32.6174 287.913 32.9289 287.881 33.2985C287.849 33.6681 287.844 34.0799 287.871 34.5393C287.892 34.9986 287.944 35.4422 288.029 35.8804C288.113 36.3186 288.214 36.7146 288.335 37.0842C288.457 37.4538 288.599 37.7654 288.758 38.0241C288.916 38.2828 289.09 38.4676 289.28 38.5785C289.682 38.8161 289.972 38.626 290.157 38.0188L290.664 39.3335C290.511 39.7242 290.32 39.9671 290.093 40.0516C289.866 40.1414 289.618 40.1044 289.354 39.9513C289.074 39.7876 288.81 39.5183 288.562 39.154C288.314 38.7897 288.098 38.3462 287.913 37.834C287.728 37.3166 287.575 36.7463 287.453 36.1233C287.332 35.5002 287.253 34.8455 287.221 34.1591C287.184 33.4886 287.2 32.8919 287.258 32.3745C287.321 31.857 287.422 31.4346 287.57 31.1178C287.717 30.801 287.897 30.5846 288.119 30.4895C288.34 30.3892 288.589 30.4209 288.874 30.5898C289.143 30.7482 289.407 31.0122 289.66 31.3818C289.914 31.7514 290.146 32.2319 290.352 32.8233L289.909 33.573Z" fill="#721FFA"/>
<path d="M290.675 26.542L291.287 26.901L291.636 33.6278L291.652 33.6383C291.683 33.4852 291.731 33.3426 291.794 33.2159C291.858 33.0892 291.937 32.9836 292.032 32.9044C292.127 32.8252 292.232 32.7777 292.354 32.7618C292.475 32.746 292.607 32.7777 292.745 32.8622C292.982 33.0047 293.199 33.2106 293.378 33.4958C293.563 33.7756 293.721 34.1082 293.853 34.4937C293.985 34.8791 294.091 35.3121 294.17 35.7978C294.249 36.2836 294.302 36.7905 294.329 37.3238L294.614 42.8308L294.001 42.4718L293.721 37.1178C293.684 36.3681 293.584 35.7398 293.426 35.2276C293.267 34.7154 293.045 34.3775 292.76 34.2086C292.56 34.0924 292.396 34.0766 292.259 34.1558C292.122 34.235 292.016 34.4039 291.942 34.6574C291.868 34.9108 291.815 35.2329 291.794 35.6236C291.773 36.0196 291.773 36.4684 291.799 36.9753L292.026 41.3207L291.414 40.9617L290.675 26.542Z" fill="#721FFA"/>
<path d="M344.351 118.605L345.993 119.566C346.246 119.714 346.494 119.92 346.732 120.174C346.969 120.432 347.186 120.754 347.381 121.145C347.577 121.536 347.74 122.001 347.872 122.539C348.004 123.078 348.089 123.695 348.126 124.392C348.163 125.132 348.136 125.707 348.047 126.119C347.957 126.531 347.83 126.832 347.666 127.001C347.503 127.175 347.313 127.254 347.107 127.244C346.901 127.233 346.695 127.17 346.505 127.059L345.391 126.409L345.708 132.465L345.048 132.08L344.351 118.605ZM345.322 124.931L346.436 125.58C346.764 125.77 347.022 125.749 347.212 125.506C347.402 125.264 347.471 124.762 347.434 124.002C347.397 123.241 347.26 122.618 347.038 122.133C346.811 121.652 346.537 121.314 346.209 121.119L345.095 120.469L345.322 124.931Z" fill="#24386C"/>
<path d="M349.144 130.163C349.107 129.466 349.123 128.859 349.192 128.347C349.261 127.835 349.371 127.423 349.519 127.106C349.672 126.795 349.857 126.594 350.09 126.504C350.317 126.414 350.575 126.457 350.855 126.62C351.135 126.784 351.404 127.053 351.658 127.423C351.911 127.793 352.133 128.231 352.328 128.748C352.524 129.26 352.682 129.831 352.814 130.464C352.941 131.093 353.025 131.758 353.062 132.455C353.099 133.152 353.083 133.759 353.015 134.271C352.946 134.783 352.835 135.195 352.682 135.512C352.529 135.823 352.344 136.024 352.112 136.114C351.885 136.204 351.626 136.161 351.346 135.998C351.066 135.834 350.797 135.565 350.544 135.195C350.29 134.825 350.068 134.382 349.873 133.87C349.678 133.358 349.519 132.787 349.387 132.154C349.261 131.525 349.181 130.86 349.144 130.163ZM349.799 130.549C349.826 131.019 349.878 131.473 349.958 131.906C350.037 132.339 350.142 132.74 350.274 133.109C350.406 133.474 350.554 133.791 350.723 134.055C350.892 134.319 351.077 134.509 351.272 134.625C351.473 134.741 351.647 134.757 351.795 134.683C351.943 134.609 352.07 134.451 352.17 134.218C352.27 133.986 352.339 133.69 352.376 133.326C352.413 132.962 352.423 132.545 352.397 132.075C352.37 131.605 352.318 131.151 352.238 130.718C352.159 130.285 352.054 129.883 351.922 129.514C351.79 129.149 351.642 128.833 351.473 128.569C351.304 128.305 351.119 128.115 350.924 127.998C350.723 127.882 350.549 127.861 350.401 127.94C350.253 128.02 350.126 128.173 350.026 128.405C349.926 128.637 349.857 128.933 349.82 129.297C349.783 129.662 349.778 130.079 349.799 130.549Z" fill="#24386C"/>
<path d="M353.506 125.015C353.49 124.724 353.522 124.492 353.596 124.328C353.67 124.165 353.77 124.117 353.897 124.191C354.023 124.265 354.134 124.434 354.229 124.698C354.324 124.962 354.382 125.242 354.398 125.538C354.414 125.854 354.388 126.092 354.314 126.245C354.24 126.398 354.14 126.44 354.008 126.361C353.876 126.287 353.765 126.118 353.67 125.87C353.575 125.617 353.522 125.332 353.506 125.015ZM353.828 128.579L354.44 128.938L354.905 137.85L354.293 137.491L353.828 128.579Z" fill="#24386C"/>
<path d="M355.76 131.762C355.739 131.355 355.713 130.97 355.686 130.611C355.66 130.252 355.634 129.925 355.623 129.629L356.204 129.967C356.214 130.21 356.23 130.453 356.246 130.695C356.262 130.938 356.278 131.192 356.294 131.445L356.309 131.456C356.341 131.266 356.389 131.091 356.452 130.928C356.515 130.769 356.6 130.643 356.695 130.542C356.79 130.447 356.901 130.389 357.028 130.368C357.154 130.347 357.292 130.384 357.445 130.474C357.682 130.616 357.899 130.822 358.078 131.102C358.263 131.382 358.421 131.715 358.553 132.1C358.685 132.485 358.791 132.918 358.87 133.399C358.949 133.885 359.002 134.391 359.029 134.925L359.314 140.432L358.701 140.073L358.421 134.719C358.384 133.969 358.284 133.341 358.126 132.829C357.967 132.316 357.746 131.979 357.46 131.81C357.26 131.693 357.096 131.678 356.959 131.757C356.822 131.836 356.716 132.005 356.642 132.253C356.568 132.507 356.515 132.829 356.494 133.219C356.473 133.61 356.473 134.064 356.5 134.571L356.727 138.916L356.114 138.557L355.76 131.762Z" fill="#24386C"/>
<path d="M362.071 134.625L360.988 133.991L361.221 138.448C361.237 138.738 361.252 139.013 361.273 139.261C361.289 139.514 361.321 139.741 361.369 139.947C361.416 140.153 361.479 140.333 361.559 140.48C361.638 140.634 361.743 140.744 361.881 140.824C361.97 140.876 362.06 140.903 362.15 140.908C362.24 140.913 362.324 140.887 362.403 140.834L362.498 142.202C362.398 142.255 362.287 142.27 362.161 142.244C362.034 142.218 361.918 142.175 361.801 142.107C361.58 141.98 361.405 141.806 361.268 141.589C361.131 141.373 361.02 141.119 360.93 140.818C360.846 140.523 360.777 140.179 360.735 139.789C360.693 139.398 360.661 138.976 360.635 138.522L360.381 133.627L359.584 133.162L359.521 131.906L360.318 132.37L360.186 129.836L360.798 130.195L360.93 132.729L362.013 133.363L362.071 134.625Z" fill="#24386C"/>
<path d="M363.18 140.422C363.317 140.861 363.465 141.23 363.624 141.531C363.777 141.832 363.967 142.043 364.183 142.175C364.278 142.228 364.373 142.26 364.463 142.265C364.553 142.27 364.637 142.239 364.711 142.17C364.785 142.101 364.838 141.996 364.875 141.853C364.912 141.711 364.928 141.515 364.912 141.278C364.901 141.035 364.864 140.829 364.812 140.649C364.759 140.47 364.695 140.306 364.616 140.158C364.537 140.005 364.447 139.873 364.352 139.752C364.257 139.636 364.157 139.519 364.051 139.414C363.877 139.224 363.703 139.028 363.544 138.822C363.381 138.617 363.238 138.384 363.111 138.136C362.985 137.888 362.879 137.592 362.795 137.254C362.71 136.922 362.652 136.526 362.631 136.066C362.61 135.633 362.626 135.274 362.689 134.989C362.752 134.704 362.842 134.493 362.958 134.35C363.08 134.213 363.217 134.134 363.37 134.113C363.523 134.092 363.692 134.134 363.861 134.234C364.12 134.387 364.368 134.657 364.606 135.037C364.838 135.422 365.033 135.934 365.192 136.578L364.727 137.101C364.632 136.737 364.516 136.42 364.379 136.151C364.241 135.882 364.078 135.691 363.898 135.581C363.814 135.533 363.729 135.507 363.65 135.507C363.565 135.507 363.492 135.538 363.428 135.602C363.365 135.665 363.317 135.76 363.28 135.892C363.243 136.024 363.233 136.193 363.243 136.399C363.254 136.589 363.286 136.763 363.344 136.927C363.402 137.091 363.476 137.249 363.565 137.397C363.655 137.55 363.761 137.698 363.877 137.835C363.993 137.978 364.115 138.11 364.236 138.231C364.4 138.4 364.558 138.59 364.711 138.796C364.864 139.002 365.002 139.24 365.118 139.509C365.239 139.778 365.34 140.079 365.413 140.422C365.487 140.766 365.54 141.156 365.567 141.6C365.593 142.107 365.572 142.513 365.508 142.825C365.445 143.136 365.35 143.358 365.223 143.495C365.097 143.638 364.949 143.706 364.78 143.706C364.611 143.706 364.431 143.654 364.252 143.543C363.94 143.358 363.66 143.083 363.423 142.719C363.185 142.355 362.958 141.795 362.742 141.056L363.18 140.422Z" fill="#24386C"/>
<path d="M267.944 101.857C267.748 101.213 267.521 100.685 267.262 100.267C267.004 99.8503 266.74 99.5652 266.476 99.4121C266.17 99.2326 265.895 99.2167 265.652 99.3698C265.409 99.523 265.209 99.8028 265.045 100.209C264.886 100.616 264.77 101.123 264.702 101.746C264.633 102.364 264.617 103.045 264.654 103.779C264.696 104.565 264.786 105.331 264.923 106.07C265.066 106.809 265.24 107.485 265.451 108.098C265.663 108.71 265.906 109.233 266.18 109.676C266.455 110.12 266.745 110.431 267.062 110.616C267.4 110.817 267.695 110.833 267.944 110.664C268.192 110.495 268.398 110.162 268.567 109.671L269.11 110.97C268.905 111.635 268.63 112.058 268.297 112.232C267.965 112.406 267.579 112.364 267.13 112.105C266.734 111.873 266.354 111.477 265.99 110.922C265.626 110.368 265.304 109.698 265.018 108.921C264.733 108.145 264.496 107.285 264.306 106.334C264.116 105.389 263.994 104.396 263.941 103.372C263.889 102.379 263.91 101.492 264.005 100.711C264.1 99.9295 264.253 99.2906 264.469 98.8049C264.686 98.3191 264.96 97.9918 265.282 97.8228C265.61 97.6591 265.974 97.6961 266.386 97.9337C266.761 98.1554 267.13 98.5303 267.495 99.0636C267.859 99.5969 268.176 100.304 268.45 101.191L267.944 101.857Z" fill="#24386C"/>
<path d="M269.574 108.868C269.537 108.171 269.553 107.564 269.622 107.052C269.69 106.54 269.801 106.128 269.949 105.811C270.102 105.5 270.287 105.299 270.519 105.209C270.746 105.12 271.005 105.162 271.285 105.325C271.565 105.489 271.834 105.758 272.087 106.128C272.341 106.498 272.563 106.936 272.758 107.453C272.953 107.965 273.112 108.536 273.244 109.169C273.37 109.798 273.455 110.463 273.492 111.16C273.529 111.857 273.513 112.464 273.444 112.976C273.376 113.488 273.265 113.9 273.112 114.217C272.959 114.528 272.774 114.729 272.541 114.819C272.314 114.909 272.056 114.866 271.776 114.703C271.496 114.539 271.227 114.27 270.973 113.9C270.72 113.531 270.498 113.092 270.303 112.575C270.107 112.063 269.949 111.492 269.817 110.859C269.69 110.231 269.611 109.565 269.574 108.868ZM270.229 109.254C270.255 109.724 270.308 110.178 270.387 110.611C270.466 111.044 270.572 111.445 270.704 111.815C270.836 112.179 270.984 112.496 271.153 112.76C271.322 113.024 271.507 113.214 271.702 113.33C271.903 113.446 272.077 113.462 272.225 113.388C272.373 113.309 272.499 113.156 272.6 112.923C272.7 112.691 272.768 112.395 272.805 112.031C272.842 111.667 272.853 111.25 272.827 110.78C272.8 110.31 272.747 109.856 272.668 109.423C272.589 108.99 272.483 108.588 272.351 108.219C272.219 107.855 272.072 107.538 271.903 107.274C271.734 107.01 271.549 106.82 271.353 106.704C271.153 106.587 270.979 106.566 270.831 106.645C270.678 106.725 270.556 106.878 270.456 107.11C270.356 107.342 270.287 107.638 270.25 108.002C270.213 108.367 270.208 108.784 270.229 109.254Z" fill="#24386C"/>
<path d="M273.975 101.799L274.587 102.158L275.337 116.562L274.724 116.203L273.975 101.799Z" fill="#24386C"/>
<path d="M275.858 102.902L276.471 103.261L277.221 117.665L276.608 117.306L275.858 102.902Z" fill="#24386C"/>
<path d="M281.619 118.669C281.434 119.228 281.218 119.566 280.975 119.688C280.727 119.809 280.431 119.767 280.088 119.566C279.803 119.397 279.539 119.123 279.296 118.743C279.053 118.362 278.842 117.914 278.662 117.401C278.483 116.889 278.335 116.324 278.219 115.701C278.103 115.078 278.029 114.445 277.997 113.795C277.96 113.109 277.976 112.507 278.039 111.984C278.103 111.461 278.208 111.044 278.356 110.727C278.504 110.411 278.684 110.21 278.9 110.115C279.117 110.02 279.365 110.052 279.634 110.21C279.887 110.358 280.13 110.601 280.357 110.939C280.584 111.271 280.78 111.683 280.954 112.174C281.128 112.665 281.271 113.225 281.387 113.848C281.503 114.476 281.577 115.157 281.614 115.891L281.64 116.367L278.684 114.635C278.715 115.02 278.768 115.411 278.853 115.796C278.937 116.182 279.037 116.535 279.153 116.858C279.27 117.18 279.407 117.459 279.555 117.692C279.703 117.924 279.861 118.093 280.03 118.188C280.294 118.341 280.516 118.362 280.685 118.241C280.854 118.119 281.001 117.877 281.123 117.518L281.619 118.669ZM280.906 114.724C280.854 113.954 280.722 113.288 280.505 112.718C280.289 112.148 280.009 111.762 279.671 111.567C279.333 111.366 279.069 111.435 278.884 111.773C278.699 112.106 278.604 112.644 278.604 113.383L280.906 114.724Z" fill="#24386C"/>
<path d="M285.04 115.76C284.893 115.3 284.734 114.946 284.576 114.682C284.417 114.424 284.243 114.239 284.064 114.133C283.863 114.017 283.683 113.996 283.536 114.075C283.388 114.154 283.272 114.318 283.187 114.561C283.103 114.804 283.045 115.115 283.013 115.485C282.981 115.855 282.976 116.266 283.002 116.726C283.029 117.185 283.076 117.629 283.161 118.067C283.24 118.5 283.346 118.901 283.467 119.271C283.588 119.64 283.731 119.952 283.889 120.211C284.048 120.469 284.222 120.654 284.412 120.765C284.813 121.003 285.104 120.813 285.289 120.205L285.795 121.52C285.642 121.911 285.452 122.154 285.225 122.238C284.998 122.328 284.75 122.291 284.486 122.138C284.206 121.974 283.942 121.705 283.694 121.341C283.446 120.976 283.229 120.533 283.045 120.021C282.86 119.503 282.707 118.933 282.585 118.31C282.464 117.687 282.385 117.032 282.353 116.346C282.316 115.67 282.332 115.078 282.39 114.561C282.453 114.044 282.554 113.621 282.701 113.304C282.844 112.982 283.029 112.771 283.25 112.676C283.472 112.576 283.72 112.607 284 112.776C284.27 112.935 284.534 113.199 284.787 113.568C285.04 113.938 285.273 114.418 285.479 115.01L285.04 115.76Z" fill="#24386C"/>
<path d="M288.161 116.641L287.079 116.007L287.311 120.464C287.327 120.754 287.343 121.029 287.359 121.277C287.375 121.525 287.406 121.757 287.454 121.958C287.501 122.164 287.565 122.343 287.639 122.491C287.718 122.644 287.823 122.755 287.961 122.834C288.051 122.887 288.14 122.914 288.23 122.919C288.32 122.924 288.404 122.898 288.483 122.845L288.579 124.212C288.478 124.265 288.367 124.281 288.241 124.255C288.114 124.228 287.998 124.186 287.882 124.117C287.665 123.991 287.486 123.816 287.348 123.6C287.211 123.383 287.1 123.13 287.01 122.829C286.926 122.533 286.857 122.19 286.815 121.799C286.773 121.409 286.741 120.986 286.715 120.532L286.461 115.638L285.664 115.173L285.601 113.916L286.398 114.381L286.266 111.847L286.878 112.206L287.01 114.74L288.093 115.374L288.161 116.641Z" fill="#24386C"/>
<path d="M288.589 112.29C288.573 112 288.605 111.767 288.679 111.604C288.753 111.44 288.853 111.393 288.98 111.467C289.106 111.54 289.217 111.709 289.312 111.973C289.407 112.237 289.465 112.517 289.481 112.813C289.497 113.13 289.471 113.367 289.397 113.52C289.323 113.674 289.223 113.716 289.091 113.637C288.959 113.563 288.848 113.394 288.753 113.146C288.663 112.892 288.605 112.607 288.589 112.29ZM288.911 115.859L289.524 116.219L289.988 125.131L289.376 124.772L288.911 115.859Z" fill="#24386C"/>
<path d="M290.754 121.261C290.717 120.564 290.733 119.957 290.801 119.445C290.87 118.932 290.981 118.521 291.129 118.204C291.282 117.892 291.467 117.692 291.699 117.602C291.926 117.512 292.185 117.554 292.464 117.718C292.744 117.882 293.014 118.151 293.267 118.521C293.52 118.89 293.742 119.328 293.938 119.846C294.133 120.363 294.291 120.928 294.423 121.562C294.55 122.19 294.635 122.855 294.672 123.552C294.709 124.249 294.693 124.857 294.624 125.369C294.555 125.881 294.445 126.293 294.291 126.604C294.138 126.916 293.953 127.116 293.721 127.206C293.494 127.296 293.235 127.254 292.956 127.09C292.676 126.926 292.406 126.657 292.153 126.287C291.9 125.918 291.678 125.48 291.482 124.962C291.287 124.45 291.129 123.875 290.997 123.246C290.875 122.623 290.791 121.958 290.754 121.261ZM291.414 121.646C291.44 122.116 291.493 122.57 291.572 123.003C291.651 123.436 291.757 123.838 291.889 124.207C292.021 124.571 292.169 124.888 292.338 125.152C292.507 125.416 292.692 125.606 292.887 125.723C293.088 125.839 293.262 125.86 293.41 125.781C293.557 125.701 293.684 125.548 293.784 125.316C293.885 125.084 293.953 124.788 293.99 124.424C294.027 124.059 294.038 123.642 294.012 123.172C293.985 122.702 293.932 122.248 293.853 121.815C293.774 121.382 293.668 120.981 293.536 120.617C293.404 120.252 293.257 119.936 293.088 119.672C292.919 119.408 292.734 119.218 292.538 119.101C292.338 118.985 292.164 118.964 292.016 119.043C291.863 119.123 291.741 119.276 291.641 119.508C291.54 119.74 291.472 120.036 291.435 120.4C291.398 120.759 291.387 121.176 291.414 121.646Z" fill="#24386C"/>
<path d="M295.495 121.762C295.474 121.355 295.447 120.97 295.421 120.611C295.394 120.247 295.368 119.925 295.357 119.629L295.938 119.967C295.949 120.21 295.965 120.453 295.986 120.695C296.002 120.938 296.017 121.192 296.033 121.445L296.049 121.456C296.081 121.266 296.128 121.086 296.192 120.928C296.255 120.769 296.339 120.643 296.435 120.542C296.53 120.442 296.64 120.389 296.767 120.368C296.894 120.347 297.031 120.384 297.184 120.474C297.422 120.616 297.638 120.822 297.818 121.102C298.003 121.382 298.161 121.715 298.293 122.1C298.425 122.485 298.531 122.918 298.61 123.399C298.689 123.879 298.742 124.391 298.768 124.925L299.053 130.432L298.441 130.073L298.161 124.719C298.124 123.969 298.024 123.341 297.865 122.829C297.707 122.316 297.485 121.979 297.2 121.81C296.999 121.693 296.836 121.678 296.699 121.757C296.561 121.836 296.456 122.005 296.382 122.253C296.308 122.506 296.255 122.823 296.234 123.219C296.213 123.61 296.213 124.064 296.239 124.571L296.466 128.916L295.854 128.557L295.495 121.762Z" fill="#24386C"/>
<path d="M300.158 128.813C300.295 129.251 300.443 129.62 300.602 129.921C300.755 130.222 300.945 130.434 301.161 130.566C301.256 130.618 301.351 130.65 301.441 130.655C301.536 130.661 301.621 130.629 301.689 130.56C301.763 130.492 301.816 130.386 301.853 130.243C301.89 130.101 301.906 129.906 301.89 129.668C301.879 129.425 301.848 129.219 301.795 129.04C301.742 128.86 301.679 128.696 301.6 128.549C301.52 128.395 301.436 128.263 301.336 128.147C301.241 128.031 301.14 127.915 301.035 127.804C300.86 127.614 300.686 127.419 300.528 127.213C300.364 127.007 300.221 126.78 300.095 126.526C299.968 126.273 299.862 125.982 299.778 125.645C299.693 125.312 299.635 124.916 299.614 124.462C299.593 124.029 299.609 123.67 299.672 123.385C299.73 123.1 299.825 122.888 299.942 122.746C300.063 122.609 300.2 122.524 300.353 122.508C300.507 122.487 300.676 122.529 300.845 122.63C301.103 122.783 301.351 123.052 301.589 123.432C301.821 123.818 302.017 124.33 302.175 124.974L301.71 125.497C301.615 125.132 301.499 124.816 301.362 124.546C301.225 124.277 301.066 124.087 300.881 123.976C300.797 123.929 300.713 123.902 300.628 123.902C300.544 123.902 300.47 123.934 300.406 123.997C300.343 124.061 300.295 124.156 300.258 124.288C300.221 124.42 300.211 124.589 300.221 124.789C300.232 124.979 300.264 125.154 300.322 125.317C300.38 125.481 300.454 125.639 300.544 125.787C300.633 125.94 300.739 126.088 300.855 126.225C300.971 126.368 301.093 126.5 301.214 126.621C301.378 126.79 301.536 126.98 301.689 127.186C301.842 127.392 301.98 127.63 302.096 127.894C302.217 128.163 302.318 128.464 302.392 128.807C302.471 129.15 302.518 129.541 302.545 129.985C302.571 130.492 302.55 130.898 302.487 131.204C302.423 131.511 302.323 131.738 302.201 131.875C302.075 132.018 301.927 132.086 301.758 132.086C301.589 132.086 301.415 132.033 301.23 131.922C300.918 131.738 300.639 131.463 300.401 131.099C300.163 130.729 299.936 130.175 299.72 129.436L300.158 128.813Z" fill="#24386C"/>
<path d="M198.09 84.2148L198.75 84.6003L199.452 98.0854L198.792 97.7L198.09 84.2148Z" fill="#24386C"/>
<path d="M200.36 92.0296C200.339 91.623 200.313 91.2376 200.286 90.8786C200.26 90.5195 200.234 90.1922 200.218 89.8965L200.799 90.2344C200.809 90.4773 200.825 90.7202 200.846 90.963C200.862 91.2059 200.878 91.4594 200.894 91.7128L200.909 91.7234C200.941 91.5333 200.989 91.359 201.052 91.1954C201.115 91.037 201.2 90.9103 201.295 90.8099C201.39 90.7096 201.501 90.6515 201.628 90.6357C201.754 90.6146 201.892 90.6515 202.045 90.7413C202.282 90.8838 202.499 91.095 202.684 91.3696C202.868 91.6494 203.027 91.9821 203.159 92.3675C203.291 92.753 203.396 93.1859 203.476 93.6664C203.555 94.1469 203.608 94.659 203.634 95.1923L203.919 100.699L203.307 100.34L203.027 94.9864C202.99 94.2366 202.889 93.6083 202.731 93.0962C202.573 92.584 202.351 92.2461 202.066 92.0771C201.865 91.961 201.701 91.9451 201.564 92.0243C201.427 92.1035 201.321 92.2725 201.247 92.5206C201.173 92.7741 201.121 93.0962 201.1 93.4869C201.078 93.8776 201.078 94.3317 201.105 94.8386L201.332 99.184L200.719 98.825L200.36 92.0296Z" fill="#24386C"/>
<path d="M205.022 99.078C205.16 99.5162 205.308 99.8858 205.466 100.187C205.619 100.488 205.809 100.699 206.026 100.826C206.121 100.878 206.21 100.91 206.305 100.915C206.4 100.921 206.48 100.889 206.554 100.82C206.628 100.752 206.68 100.646 206.717 100.504C206.754 100.361 206.77 100.166 206.754 99.9281C206.744 99.6852 206.707 99.474 206.659 99.2998C206.606 99.1202 206.543 98.9566 206.464 98.8087C206.385 98.6556 206.3 98.5236 206.2 98.4074C206.105 98.2913 206.004 98.1751 205.899 98.0642C205.725 97.8742 205.55 97.6788 205.392 97.4729C205.228 97.267 205.086 97.0399 204.959 96.7865C204.832 96.533 204.727 96.2426 204.642 95.9047C204.558 95.5721 204.5 95.1761 204.479 94.7167C204.457 94.2838 204.473 93.9247 204.537 93.6396C204.6 93.3545 204.69 93.1433 204.806 93.0007C204.927 92.8634 205.065 92.779 205.218 92.7631C205.371 92.742 205.54 92.7842 205.709 92.8846C205.968 93.0377 206.216 93.307 206.453 93.6871C206.686 94.0726 206.881 94.5847 207.039 95.2289L206.575 95.7516C206.48 95.3873 206.364 95.0705 206.226 94.8012C206.089 94.5319 205.931 94.3418 205.746 94.231C205.661 94.1834 205.577 94.157 205.498 94.157C205.413 94.157 205.339 94.1887 205.276 94.2521C205.212 94.3154 205.165 94.4105 205.128 94.5425C205.091 94.6745 205.08 94.8434 205.091 95.0494C205.102 95.2394 205.133 95.4137 205.191 95.5774C205.249 95.741 205.323 95.8994 205.413 96.0473C205.503 96.2004 205.608 96.3482 205.725 96.4855C205.841 96.6281 205.962 96.7601 206.084 96.8815C206.247 97.0505 206.406 97.2406 206.559 97.4465C206.712 97.6524 206.849 97.89 206.965 98.1593C207.087 98.4286 207.187 98.7295 207.261 99.0727C207.34 99.4159 207.393 99.8066 207.414 100.25C207.441 100.757 207.42 101.164 207.356 101.475C207.293 101.781 207.198 102.003 207.071 102.146C206.944 102.288 206.796 102.357 206.628 102.357C206.459 102.357 206.279 102.304 206.1 102.193C205.788 102.008 205.508 101.734 205.271 101.37C205.033 101 204.806 100.446 204.589 99.7063L205.022 99.078Z" fill="#24386C"/>
<path d="M210.006 96.8446L208.924 96.211L209.156 100.667C209.172 100.958 209.188 101.232 209.209 101.48C209.225 101.729 209.257 101.961 209.304 102.167C209.352 102.373 209.415 102.552 209.494 102.7C209.573 102.853 209.679 102.964 209.816 103.043C209.906 103.096 209.996 103.123 210.086 103.128C210.175 103.133 210.26 103.107 210.339 103.054L210.434 104.421C210.334 104.474 210.223 104.49 210.096 104.464C209.969 104.437 209.853 104.395 209.737 104.326C209.521 104.2 209.341 104.025 209.204 103.809C209.066 103.592 208.956 103.339 208.866 103.038C208.781 102.742 208.713 102.399 208.67 102.008C208.628 101.618 208.591 101.195 208.57 100.741L208.317 95.8467L207.519 95.3821L207.456 94.1254L208.253 94.5901L208.121 92.0557L208.734 92.4147L208.866 94.9491L209.948 95.5827L210.006 96.8446Z" fill="#24386C"/>
<path d="M210.703 97.141C210.867 96.7819 211.073 96.5654 211.321 96.4968C211.569 96.4282 211.822 96.4651 212.092 96.6235C212.636 96.9403 213.042 97.4789 213.317 98.2445C213.591 99.0101 213.76 100.024 213.824 101.296L214.024 105.124C214.035 105.378 214.056 105.642 214.082 105.922C214.109 106.201 214.135 106.46 214.162 106.698L213.575 106.355C213.544 106.138 213.523 105.906 213.507 105.658C213.491 105.409 213.48 105.188 213.47 104.998L213.454 104.987C213.359 105.372 213.216 105.652 213.032 105.827C212.847 106.001 212.614 106.006 212.329 105.842C212.139 105.732 211.965 105.573 211.791 105.362C211.622 105.151 211.469 104.897 211.331 104.607C211.199 104.311 211.083 103.979 210.994 103.609C210.904 103.234 210.846 102.833 210.825 102.4C210.788 101.666 210.835 101.133 210.967 100.805C211.099 100.478 211.279 100.283 211.5 100.214C211.722 100.145 211.965 100.166 212.234 100.272C212.498 100.378 212.746 100.499 212.968 100.631L213.201 100.768L213.185 100.499C213.153 99.8496 213.047 99.3163 212.868 98.8939C212.694 98.4715 212.461 98.1758 212.176 98.0069C211.976 97.8907 211.786 97.859 211.606 97.9013C211.421 97.9488 211.268 98.0966 211.141 98.3395L210.703 97.141ZM212.657 101.661C212.266 101.434 211.96 101.381 211.749 101.513C211.532 101.645 211.442 102.014 211.474 102.627C211.506 103.187 211.601 103.63 211.764 103.952C211.928 104.274 212.129 104.507 212.356 104.639C212.535 104.744 212.683 104.76 212.81 104.691C212.937 104.623 213.037 104.496 213.111 104.306C213.185 104.116 213.238 103.873 213.269 103.577C213.301 103.282 213.306 102.949 213.296 102.585L213.264 102.014L212.657 101.661Z" fill="#24386C"/>
<path d="M214.526 92.9482L215.139 93.3073L215.889 107.711L215.276 107.352L214.526 92.9482Z" fill="#24386C"/>
<path d="M216.41 94.0518L217.023 94.4108L217.772 108.815L217.16 108.456L216.41 94.0518Z" fill="#24386C"/>
<path d="M178.782 215.411L173.755 212.47C173.122 212.1 172.514 211.477 171.944 210.601C171.374 209.729 170.867 208.695 170.418 207.501C169.975 206.308 169.6 204.983 169.304 203.531C169.008 202.079 168.818 200.584 168.739 199.059C168.66 197.533 168.702 196.176 168.861 194.988C169.019 193.8 169.272 192.844 169.621 192.11C169.964 191.381 170.397 190.896 170.909 190.658C171.421 190.42 171.997 190.489 172.636 190.859C173.269 191.228 173.877 191.851 174.447 192.728C175.017 193.599 175.524 194.634 175.973 195.827C176.416 197.021 176.791 198.346 177.087 199.798C177.382 201.25 177.573 202.744 177.652 204.27C177.699 205.162 177.694 206.023 177.641 206.847C177.588 207.67 177.493 208.415 177.346 209.069C177.203 209.724 177.018 210.284 176.791 210.738C176.564 211.192 176.3 211.493 175.989 211.641L175.994 211.699L178.671 213.267L178.782 215.411ZM169.837 199.708C169.901 200.896 170.043 202.063 170.265 203.193C170.492 204.323 170.772 205.363 171.11 206.297C171.448 207.237 171.833 208.04 172.261 208.716C172.689 209.392 173.148 209.867 173.628 210.152C174.104 210.426 174.531 210.469 174.922 210.273C175.313 210.078 175.635 209.687 175.894 209.096C176.152 208.505 176.337 207.744 176.458 206.815C176.575 205.886 176.606 204.824 176.543 203.631C176.48 202.459 176.342 201.313 176.121 200.178C175.899 199.048 175.619 198.013 175.281 197.079C174.943 196.144 174.558 195.331 174.13 194.645C173.697 193.958 173.238 193.472 172.752 193.187C172.261 192.902 171.828 192.86 171.442 193.071C171.057 193.277 170.735 193.678 170.482 194.27C170.223 194.861 170.038 195.621 169.922 196.556C169.806 197.48 169.779 198.536 169.837 199.708Z" fill="white"/>
<path d="M184.464 216.34L184.438 216.324C184.3 217.016 184.052 217.517 183.693 217.834C183.334 218.151 182.896 218.162 182.384 217.861C181.982 217.628 181.602 217.222 181.227 216.651C180.858 216.081 180.525 215.39 180.235 214.587C179.944 213.779 179.701 212.892 179.506 211.91C179.311 210.933 179.189 209.914 179.136 208.863C179.084 207.813 179.105 206.883 179.205 206.076C179.305 205.268 179.469 204.613 179.696 204.111C179.923 203.61 180.214 203.282 180.562 203.135C180.916 202.987 181.312 203.04 181.761 203.304C182.178 203.546 182.568 203.979 182.938 204.597C183.308 205.215 183.64 205.981 183.941 206.889L183.968 206.905L183.419 196.308L184.374 196.867L185.546 219.371L184.591 218.811L184.464 216.34ZM184.226 211.847C184.189 211.113 184.105 210.405 183.978 209.724C183.851 209.043 183.688 208.42 183.482 207.85C183.276 207.279 183.044 206.788 182.785 206.371C182.521 205.959 182.236 205.658 181.924 205.479C181.613 205.299 181.343 205.268 181.106 205.389C180.874 205.511 180.678 205.754 180.52 206.113C180.367 206.477 180.256 206.942 180.198 207.512C180.134 208.082 180.124 208.737 180.161 209.471C180.198 210.205 180.282 210.912 180.409 211.593C180.536 212.274 180.699 212.897 180.905 213.468C181.111 214.038 181.343 214.529 181.602 214.946C181.866 215.358 182.151 215.659 182.463 215.838C182.774 216.018 183.044 216.05 183.281 215.928C183.514 215.807 183.709 215.564 183.867 215.199C184.02 214.84 184.131 214.371 184.195 213.8C184.258 213.23 184.269 212.581 184.226 211.847Z" fill="white"/>
<path d="M186.75 209.771C186.718 209.138 186.676 208.536 186.634 207.971C186.586 207.406 186.555 206.894 186.528 206.439L187.431 206.967C187.452 207.342 187.473 207.722 187.505 208.108C187.532 208.488 187.558 208.879 187.579 209.275L187.605 209.291C187.653 208.99 187.727 208.72 187.832 208.472C187.933 208.224 188.06 208.023 188.213 207.87C188.36 207.717 188.535 207.627 188.73 207.596C188.925 207.564 189.142 207.622 189.38 207.759C189.443 207.796 189.512 207.844 189.575 207.902C189.644 207.96 189.707 208.039 189.776 208.134L189.839 210.452C189.67 210.236 189.496 210.077 189.316 209.972C188.73 209.629 188.329 209.84 188.112 210.611C187.896 211.382 187.827 212.564 187.912 214.175L188.265 220.959L187.31 220.4L186.75 209.771Z" fill="white"/>
<path d="M190.904 210.733C191.158 210.168 191.48 209.835 191.865 209.724C192.251 209.613 192.652 209.682 193.069 209.925C193.919 210.421 194.553 211.266 194.98 212.454C195.408 213.647 195.672 215.237 195.772 217.217L196.084 223.199C196.105 223.595 196.137 224.012 196.174 224.45C196.211 224.889 196.253 225.29 196.295 225.659L195.376 225.121C195.329 224.783 195.292 224.424 195.266 224.033C195.239 223.642 195.223 223.299 195.207 223.004L195.181 222.988C195.033 223.595 194.811 224.033 194.521 224.302C194.231 224.577 193.866 224.582 193.423 224.324C193.127 224.149 192.847 223.901 192.583 223.574C192.319 223.246 192.076 222.85 191.871 222.391C191.659 221.932 191.485 221.409 191.343 220.828C191.2 220.247 191.115 219.619 191.079 218.943C191.02 217.792 191.094 216.963 191.306 216.451C191.517 215.939 191.797 215.633 192.14 215.527C192.488 215.421 192.868 215.453 193.286 215.617C193.703 215.786 194.083 215.971 194.437 216.177L194.801 216.393L194.78 215.976C194.727 214.962 194.563 214.128 194.289 213.468C194.014 212.808 193.65 212.343 193.201 212.085C192.89 211.905 192.594 211.847 192.309 211.926C192.024 212 191.781 212.227 191.58 212.607L190.904 210.733ZM193.951 217.797C193.338 217.438 192.863 217.365 192.525 217.57C192.187 217.776 192.045 218.357 192.092 219.308C192.14 220.179 192.288 220.87 192.552 221.377C192.81 221.884 193.122 222.243 193.481 222.454C193.755 222.618 193.993 222.645 194.188 222.539C194.384 222.433 194.542 222.233 194.664 221.937C194.78 221.641 194.864 221.261 194.912 220.797C194.959 220.332 194.97 219.82 194.949 219.244L194.901 218.352L193.951 217.797Z" fill="white"/>
<path d="M197.403 216.008C197.372 215.375 197.329 214.773 197.287 214.208C197.24 213.643 197.208 213.131 197.182 212.677L198.085 213.205C198.106 213.58 198.127 213.96 198.158 214.345C198.185 214.725 198.211 215.116 198.232 215.512L198.259 215.528C198.306 215.227 198.38 214.958 198.481 214.71C198.581 214.461 198.708 214.261 198.861 214.108C199.009 213.955 199.183 213.865 199.378 213.833C199.573 213.801 199.79 213.859 200.028 213.997C200.402 214.219 200.735 214.546 201.02 214.984C201.311 215.422 201.553 215.94 201.759 216.542C201.965 217.144 202.129 217.819 202.25 218.575C202.372 219.33 202.456 220.122 202.499 220.956L202.947 229.557L201.992 228.997L201.559 220.634C201.495 219.462 201.342 218.479 201.094 217.677C200.846 216.88 200.497 216.346 200.049 216.088C199.737 215.908 199.478 215.882 199.267 216.003C199.056 216.13 198.892 216.389 198.776 216.785C198.66 217.175 198.581 217.682 198.549 218.295C198.512 218.907 198.517 219.615 198.56 220.407L198.913 227.191L197.958 226.632L197.403 216.008Z" fill="white"/>
<path d="M207.267 220.479L205.578 219.492L205.942 226.456C205.963 226.91 205.989 227.338 206.021 227.729C206.053 228.12 206.1 228.479 206.174 228.801C206.248 229.123 206.343 229.397 206.465 229.635C206.586 229.873 206.755 230.052 206.966 230.173C207.104 230.253 207.246 230.3 207.389 230.305C207.531 230.311 207.663 230.274 207.785 230.189L207.933 232.322C207.779 232.407 207.605 232.428 207.41 232.391C207.214 232.354 207.024 232.28 206.845 232.175C206.502 231.974 206.222 231.705 206.011 231.367C205.799 231.029 205.62 230.628 205.488 230.163C205.351 229.698 205.25 229.165 205.187 228.558C205.118 227.951 205.066 227.291 205.029 226.578L204.633 218.927L203.386 218.198L203.286 216.234L204.532 216.963L204.326 213.003L205.282 213.563L205.488 217.523L207.177 218.51L207.267 220.479Z" fill="white"/>
<path d="M169.88 214.593L173.206 216.541C173.491 216.71 173.798 216.963 174.125 217.307C174.452 217.65 174.78 218.088 175.112 218.621C175.445 219.149 175.767 219.783 176.089 220.506C176.406 221.235 176.696 222.048 176.96 222.962C177.219 223.875 177.446 224.878 177.626 225.976C177.81 227.075 177.932 228.268 178.001 229.556C178.069 230.845 178.064 231.964 177.985 232.909C177.905 233.854 177.779 234.657 177.599 235.311C177.42 235.966 177.198 236.489 176.939 236.874C176.681 237.26 176.401 237.534 176.105 237.698C175.809 237.862 175.508 237.93 175.197 237.904C174.885 237.878 174.59 237.777 174.305 237.614L170.978 235.665L169.88 214.593ZM171.881 233.944L173.84 235.09C174.336 235.38 174.79 235.491 175.197 235.422C175.603 235.354 175.947 235.074 176.221 234.593C176.496 234.108 176.696 233.405 176.823 232.476C176.95 231.547 176.976 230.359 176.897 228.912C176.823 227.465 176.665 226.172 176.432 225.037C176.2 223.901 175.91 222.909 175.566 222.064C175.223 221.219 174.827 220.512 174.389 219.947C173.951 219.382 173.481 218.954 172.985 218.664L171.026 217.518L171.881 233.944Z" fill="white"/>
<path d="M179.337 233.802C179.279 232.709 179.305 231.764 179.416 230.961C179.527 230.158 179.696 229.514 179.933 229.029C180.171 228.543 180.467 228.226 180.82 228.089C181.174 227.951 181.575 228.01 182.014 228.268C182.452 228.527 182.869 228.944 183.265 229.52C183.661 230.095 184.009 230.787 184.31 231.589C184.611 232.392 184.865 233.284 185.065 234.266C185.266 235.248 185.398 236.289 185.451 237.382C185.504 238.474 185.483 239.42 185.372 240.222C185.266 241.025 185.092 241.669 184.854 242.155C184.617 242.64 184.321 242.957 183.967 243.094C183.613 243.232 183.212 243.174 182.774 242.915C182.336 242.656 181.919 242.239 181.523 241.664C181.127 241.088 180.778 240.396 180.477 239.594C180.176 238.791 179.923 237.899 179.722 236.917C179.521 235.93 179.389 234.895 179.337 233.802ZM180.361 234.404C180.398 235.138 180.482 235.845 180.609 236.526C180.736 237.207 180.899 237.83 181.105 238.401C181.311 238.971 181.544 239.467 181.802 239.879C182.066 240.291 182.351 240.592 182.663 240.771C182.975 240.951 183.244 240.982 183.481 240.861C183.714 240.74 183.909 240.497 184.067 240.138C184.221 239.779 184.331 239.309 184.39 238.738C184.448 238.168 184.463 237.514 184.427 236.78C184.39 236.046 184.305 235.338 184.178 234.657C184.052 233.976 183.888 233.353 183.682 232.783C183.476 232.212 183.244 231.721 182.985 231.304C182.721 230.892 182.436 230.591 182.124 230.412C181.813 230.232 181.544 230.201 181.306 230.322C181.074 230.444 180.878 230.686 180.72 231.046C180.567 231.41 180.456 231.874 180.393 232.445C180.335 233.015 180.324 233.67 180.361 234.404Z" fill="white"/>
<path d="M190.82 237.143C190.588 236.43 190.345 235.87 190.091 235.464C189.843 235.057 189.574 234.772 189.289 234.603C188.972 234.418 188.697 234.387 188.465 234.513C188.233 234.64 188.053 234.893 187.916 235.274C187.784 235.659 187.689 236.134 187.642 236.715C187.594 237.291 187.589 237.94 187.626 238.653C187.663 239.366 187.747 240.063 187.869 240.744C187.995 241.425 188.154 242.053 188.344 242.623C188.534 243.199 188.756 243.69 189.009 244.096C189.257 244.503 189.532 244.793 189.822 244.962C190.45 245.332 190.905 245.036 191.19 244.086L191.982 246.14C191.744 246.752 191.448 247.127 191.089 247.264C190.736 247.402 190.345 247.349 189.933 247.106C189.495 246.847 189.078 246.436 188.692 245.86C188.307 245.284 187.969 244.598 187.678 243.795C187.388 242.993 187.145 242.101 186.96 241.124C186.77 240.147 186.649 239.123 186.591 238.051C186.538 237 186.559 236.066 186.654 235.258C186.749 234.45 186.913 233.79 187.14 233.288C187.367 232.787 187.652 232.459 187.995 232.301C188.338 232.148 188.729 232.195 189.173 232.454C189.595 232.702 190.007 233.114 190.403 233.695C190.799 234.276 191.163 235.025 191.485 235.944L190.82 237.143Z" fill="white"/>
<path d="M198.007 248.274C198.039 248.907 198.081 249.509 198.124 250.074C198.171 250.639 198.203 251.151 198.229 251.605L197.326 251.077C197.305 250.702 197.284 250.322 197.258 249.937C197.231 249.551 197.205 249.166 197.184 248.77L197.157 248.754C197.11 249.055 197.036 249.33 196.936 249.578C196.835 249.826 196.709 250.027 196.555 250.18C196.402 250.333 196.233 250.423 196.038 250.454C195.843 250.486 195.626 250.428 195.389 250.291C195.014 250.069 194.681 249.742 194.396 249.303C194.111 248.865 193.863 248.348 193.657 247.746C193.451 247.144 193.287 246.468 193.166 245.713C193.044 244.958 192.96 244.166 192.918 243.332L192.469 234.73L193.424 235.29L193.857 243.654C193.921 244.826 194.074 245.808 194.322 246.61C194.57 247.408 194.919 247.941 195.367 248.2C195.679 248.379 195.938 248.411 196.149 248.284C196.36 248.158 196.524 247.899 196.64 247.503C196.756 247.112 196.835 246.605 196.867 245.993C196.904 245.38 196.899 244.673 196.856 243.881L196.503 237.096L197.458 237.656L198.007 248.274Z" fill="white"/>
<path d="M199.432 242.011C199.4 241.378 199.358 240.776 199.316 240.211C199.268 239.646 199.236 239.134 199.21 238.68L200.113 239.208C200.134 239.583 200.155 239.963 200.181 240.348C200.208 240.728 200.234 241.119 200.255 241.515L200.282 241.531C200.329 241.23 200.403 240.961 200.504 240.712C200.604 240.464 200.731 240.264 200.884 240.111C201.032 239.957 201.206 239.868 201.401 239.836C201.597 239.804 201.813 239.862 202.051 240C202.362 240.179 202.626 240.427 202.843 240.739C203.059 241.05 203.244 241.378 203.397 241.726C203.55 242.075 203.672 242.428 203.767 242.777C203.862 243.131 203.936 243.442 203.999 243.706C204.168 242.999 204.379 242.492 204.633 242.186C204.886 241.879 205.234 241.858 205.673 242.117C206.079 242.355 206.428 242.687 206.723 243.12C207.014 243.548 207.257 244.071 207.457 244.672C207.653 245.28 207.811 245.966 207.922 246.732C208.033 247.497 208.112 248.332 208.16 249.224L208.598 257.677L207.642 257.117L207.209 248.78C207.183 248.305 207.141 247.825 207.077 247.344C207.014 246.864 206.919 246.415 206.792 245.992C206.665 245.57 206.512 245.2 206.317 244.878C206.121 244.556 205.894 244.313 205.615 244.15C205.409 244.028 205.224 244.018 205.055 244.113C204.886 244.208 204.743 244.393 204.627 244.672C204.511 244.952 204.427 245.322 204.374 245.781C204.321 246.241 204.31 246.779 204.347 247.397L204.765 255.433L203.809 254.873L203.397 246.985C203.318 245.438 203.175 244.292 202.969 243.548C202.763 242.803 202.468 242.318 202.077 242.085C201.765 241.906 201.507 241.879 201.296 242.001C201.084 242.128 200.921 242.386 200.805 242.782C200.688 243.173 200.609 243.68 200.577 244.292C200.541 244.905 200.546 245.612 200.588 246.404L200.942 253.189L199.986 252.629L199.432 242.011Z" fill="white"/>
<path d="M215.389 259.198C215.104 260.069 214.766 260.597 214.38 260.787C213.995 260.977 213.536 260.914 212.997 260.597C212.548 260.333 212.136 259.905 211.756 259.309C211.376 258.712 211.049 258.015 210.764 257.213C210.478 256.415 210.246 255.528 210.067 254.557C209.887 253.585 209.771 252.593 209.718 251.579C209.66 250.507 209.686 249.562 209.781 248.743C209.882 247.925 210.045 247.27 210.273 246.779C210.5 246.288 210.785 245.966 211.123 245.818C211.461 245.67 211.846 245.723 212.268 245.971C212.67 246.204 213.045 246.584 213.393 247.107C213.747 247.629 214.058 248.273 214.328 249.039C214.602 249.805 214.824 250.676 215.003 251.658C215.178 252.635 215.299 253.701 215.357 254.852L215.394 255.597L210.769 252.893C210.816 253.501 210.906 254.103 211.033 254.71C211.165 255.317 211.318 255.871 211.503 256.373C211.688 256.875 211.893 257.308 212.126 257.677C212.358 258.047 212.606 258.305 212.865 258.459C213.282 258.701 213.62 258.728 213.889 258.538C214.159 258.348 214.386 257.973 214.576 257.413L215.389 259.198ZM214.275 253.031C214.196 251.832 213.99 250.787 213.652 249.894C213.314 249.002 212.881 248.405 212.348 248.094C211.814 247.782 211.408 247.888 211.117 248.416C210.827 248.944 210.684 249.778 210.679 250.929L214.275 253.031Z" fill="white"/>
<path d="M216.655 252.086C216.624 251.452 216.581 250.85 216.539 250.285C216.492 249.72 216.46 249.208 216.434 248.754L217.336 249.282C217.358 249.657 217.379 250.037 217.405 250.422C217.432 250.803 217.458 251.193 217.479 251.589L217.505 251.605C217.553 251.304 217.627 251.035 217.727 250.787C217.828 250.539 217.954 250.338 218.107 250.185C218.255 250.032 218.429 249.942 218.625 249.91C218.82 249.879 219.037 249.937 219.274 250.074C219.649 250.296 219.982 250.623 220.267 251.061C220.552 251.5 220.8 252.017 221.006 252.619C221.212 253.221 221.376 253.897 221.497 254.652C221.619 255.407 221.703 256.199 221.745 257.033L222.194 265.634L221.238 265.074L220.805 256.711C220.742 255.539 220.589 254.557 220.341 253.754C220.093 252.957 219.744 252.424 219.295 252.165C218.984 251.985 218.725 251.959 218.514 252.08C218.303 252.207 218.139 252.466 218.023 252.862C217.907 253.252 217.828 253.759 217.791 254.372C217.754 254.984 217.759 255.692 217.801 256.484L218.155 263.269L217.199 262.709L216.655 252.086Z" fill="white"/>
<path d="M226.518 256.559L224.829 255.571L225.193 262.535C225.214 262.995 225.24 263.417 225.272 263.808C225.299 264.199 225.351 264.558 225.425 264.88C225.499 265.202 225.594 265.476 225.716 265.714C225.837 265.952 226.006 266.131 226.217 266.253C226.355 266.332 226.497 266.379 226.64 266.385C226.782 266.39 226.914 266.353 227.036 266.268L227.184 268.402C227.03 268.486 226.856 268.507 226.661 268.47C226.465 268.433 226.275 268.359 226.096 268.254C225.753 268.053 225.473 267.784 225.262 267.446C225.045 267.108 224.871 266.707 224.739 266.242C224.602 265.777 224.501 265.244 224.438 264.637C224.369 264.03 224.316 263.37 224.28 262.657L223.884 255.006L222.637 254.278L222.537 252.313L223.783 253.042L223.577 249.082L224.533 249.642L224.739 253.602L226.428 254.589L226.518 256.559Z" fill="white"/>
<path d="M227.605 257.023C227.859 256.463 228.181 256.125 228.566 256.014C228.952 255.904 229.353 255.972 229.77 256.215C230.62 256.711 231.254 257.556 231.682 258.749C232.109 259.943 232.373 261.527 232.474 263.512L232.785 269.494C232.806 269.89 232.833 270.307 232.875 270.746C232.912 271.184 232.954 271.585 232.996 271.955L232.078 271.416C232.03 271.078 231.993 270.714 231.967 270.328C231.94 269.938 231.925 269.595 231.909 269.299L231.882 269.283C231.729 269.885 231.513 270.329 231.222 270.598C230.932 270.872 230.568 270.878 230.129 270.619C229.834 270.445 229.554 270.197 229.29 269.869C229.026 269.542 228.788 269.146 228.577 268.686C228.366 268.227 228.192 267.704 228.049 267.124C227.906 266.543 227.822 265.914 227.785 265.239C227.727 264.088 227.801 263.259 228.012 262.746C228.223 262.234 228.503 261.928 228.846 261.822C229.189 261.717 229.575 261.748 229.992 261.912C230.409 262.076 230.789 262.266 231.143 262.467L231.507 262.683L231.486 262.266C231.433 261.252 231.27 260.418 230.995 259.758C230.721 259.098 230.356 258.633 229.908 258.375C229.596 258.195 229.3 258.142 229.015 258.216C228.73 258.29 228.487 258.517 228.287 258.903L227.605 257.023ZM230.657 264.088C230.045 263.728 229.57 263.655 229.232 263.86C228.894 264.066 228.751 264.647 228.799 265.598C228.846 266.469 228.999 267.161 229.258 267.667C229.517 268.174 229.828 268.533 230.187 268.744C230.462 268.908 230.7 268.935 230.895 268.829C231.09 268.723 231.249 268.523 231.37 268.227C231.486 267.931 231.571 267.551 231.618 267.087C231.666 266.622 231.676 266.104 231.655 265.534L231.608 264.642L230.657 264.088Z" fill="white"/>
<path d="M237.168 262.788L235.478 261.8L235.842 268.765C235.863 269.224 235.89 269.646 235.922 270.037C235.948 270.428 236.001 270.787 236.075 271.104C236.149 271.426 236.244 271.706 236.365 271.938C236.487 272.175 236.655 272.355 236.867 272.476C237.004 272.556 237.147 272.603 237.289 272.608C237.432 272.614 237.564 272.577 237.685 272.498L237.833 274.631C237.68 274.715 237.506 274.736 237.31 274.699C237.115 274.662 236.925 274.588 236.745 274.488C236.402 274.287 236.122 274.018 235.911 273.68C235.695 273.342 235.52 272.941 235.388 272.476C235.251 272.012 235.151 271.478 235.087 270.871C235.019 270.264 234.966 269.604 234.929 268.891L234.533 261.241L233.287 260.512L233.187 258.548L234.433 259.276L234.227 255.316L235.182 255.876L235.388 259.836L237.078 260.823L237.168 262.788Z" fill="white"/>
<path d="M237.833 255.992C237.807 255.538 237.854 255.179 237.971 254.92C238.087 254.662 238.245 254.588 238.44 254.704C238.636 254.82 238.81 255.084 238.963 255.501C239.116 255.918 239.201 256.351 239.227 256.81C239.254 257.307 239.206 257.676 239.095 257.919C238.979 258.162 238.821 258.22 238.62 258.104C238.414 257.983 238.24 257.729 238.092 257.333C237.949 256.937 237.86 256.488 237.833 255.992ZM238.34 261.568L239.296 262.127L240.019 276.056L239.064 275.496L238.34 261.568Z" fill="white"/>
<path d="M241.222 270.011C241.164 268.918 241.191 267.973 241.302 267.17C241.412 266.367 241.581 265.723 241.819 265.238C242.057 264.752 242.352 264.435 242.706 264.298C243.06 264.16 243.461 264.219 243.899 264.477C244.338 264.736 244.755 265.153 245.151 265.729C245.547 266.304 245.895 266.996 246.196 267.798C246.497 268.601 246.75 269.493 246.951 270.475C247.152 271.457 247.284 272.498 247.337 273.591C247.395 274.683 247.368 275.629 247.257 276.431C247.146 277.234 246.978 277.878 246.74 278.364C246.502 278.849 246.207 279.166 245.853 279.303C245.499 279.441 245.098 279.383 244.66 279.124C244.221 278.865 243.804 278.448 243.408 277.873C243.012 277.297 242.664 276.605 242.363 275.803C242.062 275 241.808 274.108 241.608 273.126C241.407 272.139 241.275 271.098 241.222 270.011ZM242.247 270.607C242.284 271.341 242.368 272.049 242.495 272.73C242.622 273.411 242.785 274.034 242.991 274.604C243.197 275.175 243.429 275.666 243.688 276.083C243.952 276.494 244.237 276.795 244.549 276.975C244.86 277.154 245.13 277.186 245.367 277.065C245.599 276.943 245.795 276.7 245.953 276.336C246.106 275.977 246.217 275.507 246.275 274.937C246.339 274.367 246.349 273.717 246.312 272.978C246.275 272.239 246.191 271.537 246.064 270.855C245.937 270.174 245.774 269.551 245.568 268.981C245.362 268.411 245.13 267.92 244.871 267.503C244.607 267.091 244.322 266.79 244.01 266.61C243.699 266.431 243.429 266.399 243.192 266.521C242.959 266.642 242.764 266.885 242.606 267.249C242.447 267.614 242.342 268.078 242.278 268.648C242.215 269.219 242.21 269.873 242.247 270.607Z" fill="white"/>
<path d="M248.626 270.794C248.594 270.16 248.552 269.558 248.51 268.993C248.462 268.428 248.431 267.916 248.404 267.462L249.307 267.99C249.328 268.365 249.349 268.745 249.381 269.13C249.408 269.511 249.434 269.901 249.455 270.297L249.481 270.313C249.529 270.012 249.603 269.743 249.708 269.495C249.809 269.247 249.935 269.046 250.089 268.893C250.236 268.74 250.411 268.65 250.606 268.618C250.801 268.587 251.018 268.645 251.255 268.782C251.63 269.004 251.963 269.331 252.248 269.769C252.533 270.208 252.781 270.725 252.987 271.327C253.193 271.929 253.357 272.605 253.478 273.36C253.6 274.115 253.684 274.907 253.727 275.741L254.175 284.342L253.22 283.782L252.787 275.419C252.723 274.247 252.57 273.265 252.322 272.462C252.074 271.665 251.725 271.131 251.277 270.873C250.965 270.693 250.706 270.667 250.495 270.788C250.284 270.915 250.12 271.174 250.004 271.57C249.888 271.96 249.809 272.467 249.772 273.08C249.735 273.692 249.74 274.4 249.782 275.192L250.136 281.977L249.18 281.417L248.626 270.794Z" fill="white"/>
<path fill-rule="evenodd" clip-rule="evenodd" d="M470.162 224.399L435.275 244.539L400.399 264.678V345.234L435.275 365.373L470.162 385.513L492.48 372.636L516.202 386.26L539.925 372.595V264.681L505.041 244.541L470.162 224.399Z" fill="#201D1D"/>
<path fill-rule="evenodd" clip-rule="evenodd" d="M516.202 331.541V278.38L539.925 264.681V372.593L516.202 386.26V331.541Z" fill="#24386C"/>
<path fill-rule="evenodd" clip-rule="evenodd" d="M539.922 264.678L516.2 278.377L493.175 265.089L470.159 251.801L447.135 265.089L424.122 278.377L400.399 264.678L435.275 244.539L470.162 224.399L505.038 244.539L539.922 264.678Z" fill="#C3D0F8"/>
<path fill-rule="evenodd" clip-rule="evenodd" d="M400.399 264.678L424.122 278.377V331.541L447.138 344.829L470.162 358.117V385.507L435.275 365.368L400.399 345.229V264.678Z" fill="#EBF1FF"/>
<path fill-rule="evenodd" clip-rule="evenodd" d="M492.477 345.23L470.159 358.116V385.506L492.477 372.629V345.23Z" fill="#24386C"/>
<path fill-rule="evenodd" clip-rule="evenodd" d="M470.163 304.956L447.846 292.08L470.163 279.191L492.481 292.08L470.163 304.956Z" fill="#B2BFE8"/>
<path fill-rule="evenodd" clip-rule="evenodd" d="M447.846 292.083L470.163 304.96V330.733L447.846 317.848V292.083Z" fill="#EBF1FF"/>
<path fill-rule="evenodd" clip-rule="evenodd" d="M470.162 304.953L492.48 292.076V317.838L470.162 330.724V304.953Z" fill="#24386C"/>
<path fill-rule="evenodd" clip-rule="evenodd" d="M492.477 372.633L516.2 386.257V278.377L493.175 265.089L470.162 251.801L447.138 265.089L424.125 278.377V331.54L447.138 344.828L470.162 358.117L492.48 345.228V372.633H492.477ZM492.477 317.838L470.159 330.724L447.842 317.838V292.076L470.159 279.188L492.477 292.076V317.838Z" fill="#C91540"/>
<path d="M470.163 358.128V330.729L447.964 317.957L447.437 344.915L470.163 358.128Z" fill="url(#paint2_linear_2561_2124)"/>
</g>
<defs>
<linearGradient id="paint0_linear_2561_2124" x1="407" y1="414.7" x2="438.573" y2="360.477" gradientUnits="userSpaceOnUse">
<stop stop-color="#B2BFE8" stop-opacity="0"/>
<stop offset="1" stop-color="#24386C" stop-opacity="0.3"/>
</linearGradient>
<linearGradient id="paint1_linear_2561_2124" x1="136.95" y1="375.1" x2="255.263" y2="235.366" gradientUnits="userSpaceOnUse">
<stop stop-color="#B2BFE8" stop-opacity="0"/>
<stop offset="1" stop-color="#24386C" stop-opacity="0.3"/>
</linearGradient>
<linearGradient id="paint2_linear_2561_2124" x1="470.47" y1="337.524" x2="447.213" y2="338.581" gradientUnits="userSpaceOnUse">
<stop stop-color="#FF3364"/>
<stop offset="1" stop-color="#C91540" stop-opacity="0"/>
</linearGradient>
<clipPath id="clip0_2561_2124">
<rect width="540.276" height="447.718" fill="white"/>
</clipPath>
</defs>
</svg>
