<?xml version="1.0" standalone="no"?>
<!DOCTYPE svg PUBLIC "-//W3C//DTD SVG 20010904//EN"
 "http://www.w3.org/TR/2001/REC-SVG-20010904/DTD/svg10.dtd">
<svg version="1.0" xmlns="http://www.w3.org/2000/svg"
 width="608.000000pt" height="608.000000pt" viewBox="0 0 608.000000 608.000000"
 preserveAspectRatio="xMidYMid meet">
<metadata>
Created by potrace 1.14, written by Peter Selinger 2001-2017
</metadata>
<g transform="translate(0.000000,608.000000) scale(0.100000,-0.100000)"
fill="#000000" stroke="none">
<path d="M2933 6015 c-62 -36 -117 -65 -122 -65 -6 0 -11 -4 -11 -10 0 -5 -4
-10 -10 -10 -5 0 -44 -21 -87 -46 -152 -90 -188 -112 -233 -136 -25 -14 -119
-68 -210 -120 -463 -268 -603 -348 -611 -348 -5 0 -9 -4 -9 -8 0 -5 -16 -14
-35 -22 -19 -8 -35 -17 -35 -22 0 -4 -4 -8 -9 -8 -7 0 -60 -29 -111 -60 -65
-40 -223 -130 -230 -130 -4 0 -13 -7 -20 -15 -7 -8 -21 -15 -30 -15 -10 0 -20
-4 -22 -8 -2 -7 -178 -111 -327 -194 -20 -11 -40 -24 -46 -28 -9 -6 -49 -29
-150 -84 -11 -6 -22 -13 -25 -16 -4 -4 -29 -18 -115 -64 -11 -6 -22 -14 -25
-17 -3 -3 -15 -11 -27 -18 l-23 -12 0 -1524 c0 -902 4 -1525 9 -1525 9 0 41
-18 194 -106 34 -20 81 -47 104 -60 23 -13 92 -53 153 -89 61 -36 115 -65 121
-65 5 0 9 -4 9 -10 0 -5 6 -10 14 -10 7 0 25 -9 40 -21 14 -11 26 -17 26 -12
0 4 4 3 8 -3 4 -6 25 -21 47 -33 48 -25 126 -70 175 -99 47 -28 259 -151 317
-184 27 -15 59 -34 73 -42 14 -8 41 -23 60 -33 19 -10 37 -21 40 -24 3 -3 55
-34 115 -68 61 -34 117 -66 125 -71 72 -43 153 -90 156 -90 2 0 27 -14 56 -31
49 -30 78 -46 139 -81 13 -7 26 -15 29 -18 5 -5 27 -17 105 -59 17 -9 32 -19
33 -23 2 -5 8 -8 13 -8 6 0 63 -31 127 -69 64 -38 133 -78 152 -88 19 -11 59
-34 88 -52 29 -17 56 -31 59 -31 4 0 14 -7 24 -16 17 -15 21 -14 61 8 101 58
126 72 188 108 36 21 81 47 100 58 19 11 78 44 130 74 192 111 296 171 330
190 19 11 40 24 45 28 6 5 45 -11 90 -36 44 -25 96 -52 115 -62 19 -9 37 -19
40 -22 3 -3 25 -15 50 -28 62 -32 227 -121 270 -145 19 -11 67 -36 105 -57
126 -67 210 -113 222 -122 12 -10 23 -5 138 62 22 13 49 28 60 34 29 16 287
165 305 176 18 11 130 76 181 105 20 11 79 45 132 75 l97 55 0 2025 0 2025
-23 10 c-46 22 -112 60 -115 68 -2 4 -8 7 -14 7 -5 0 -22 8 -36 18 -15 11 -52
33 -82 49 -76 42 -250 142 -280 161 -14 9 -27 17 -30 17 -6 1 -143 80 -192
111 -21 13 -39 24 -42 24 -2 0 -33 17 -67 38 -55 33 -115 67 -204 116 -11 6
-22 14 -25 17 -3 3 -30 19 -60 35 -65 36 -108 60 -215 123 -44 26 -87 50 -95
54 -8 4 -28 16 -45 26 -64 40 -157 91 -166 91 -5 0 -9 4 -9 9 0 5 -8 11 -17
14 -10 4 -45 22 -78 42 -33 20 -68 39 -77 42 -10 3 -18 9 -18 13 0 4 -8 10
-17 13 -10 3 -40 20 -68 36 -27 17 -61 37 -75 44 -21 10 -144 81 -215 124 -11
7 -36 20 -55 30 -19 10 -36 21 -38 26 -2 4 -10 7 -18 7 -8 0 -14 5 -14 10 0 6
-5 10 -11 10 -6 0 -48 23 -95 50 -47 28 -88 50 -93 50 -5 0 -14 7 -21 15 -7 8
-15 15 -19 15 -3 0 -56 -29 -118 -65z"/>
</g>
</svg>
