<?xml version="1.0" encoding="UTF-8"?>
<!-- Generator: Adobe Illustrator 19.0.0, SVG Export Plug-In . SVG Version: 6.00 Build 0)  -->
<svg enable-background="new 0 0 512 512" version="1.1" viewBox="0 0 512 512" xml:space="preserve" xmlns="http://www.w3.org/2000/svg">
<path d="m486.88 238.36c13.851 0 25.119-11.268 25.119-25.119v-153.92c0-13.851-11.268-25.119-25.119-25.119h-248.52v-9.086c0-13.851-11.268-25.119-25.119-25.119h-153.92c-13.851 0-25.119 11.268-25.119 25.119v9.086h-9.086c-13.851 0-25.119 11.268-25.119 25.119v153.92c0 13.851 11.268 25.119 25.119 25.119h103.15v35.273h-68.943c-13.851 0-25.119 11.268-25.119 25.119v9.086h-9.086c-13.851-1e-3 -25.119 11.268-25.119 25.118v153.92c0 13.851 11.268 25.119 25.119 25.119h461.76c13.851 0 25.119-11.268 25.119-25.119v-153.92c0-13.851-11.268-25.119-25.119-25.119h-248.52v-9.086c0-13.851-11.268-25.119-25.119-25.119h-68.944v-35.273zm-248.52-59.323v-128.8h248.52c5.01 0 9.086 4.076 9.086 9.086v153.92c0 5.01-4.076 9.086-9.086 9.086h-342.58v-18.171h68.944c13.85-1e-3 25.118-11.27 25.118-25.12zm-213.24 43.29c-5.01 0-9.086-4.076-9.086-9.086v-153.92c0-5.01 4.076-9.086 9.086-9.086h9.086v128.8c0 13.851 11.268 25.119 25.119 25.119h68.944v18.171zm213.24 230.35v-128.8h248.52c5.01 0 9.086 4.076 9.086 9.086v153.92c0 5.01-4.076 9.086-9.086 9.086h-461.76c-5.01 0-9.086-4.076-9.086-9.086v-153.92c0-5.01 4.076-9.086 9.086-9.086h9.086v128.8c0 13.851 11.268 25.119 25.119 25.119h153.92c13.85 0 25.118-11.268 25.118-25.119zm-25.119-163.01c5.01 0 9.086 4.076 9.086 9.086v153.92c0 5.01-4.076 9.086-9.086 9.086h-153.92c-5.01 0-9.086-4.076-9.086-9.086v-153.92c0-5.01 4.076-9.086 9.086-9.086zm-153.92-101.54c-5.01 0-9.086-4.076-9.086-9.086v-153.92c0-5.01 4.076-9.086 9.086-9.086h153.92c5.01 0 9.086 4.076 9.086 9.086v153.92c0 5.01-4.076 9.086-9.086 9.086h-153.92z" fill="#ffffff"/>
<g fill="#ffffff">
	<g fill="#ffffff">
		<path d="m187.06 93.528c0-27.995-22.777-50.772-50.772-50.772s-50.772 22.777-50.772 50.772v17.102c0 27.995 22.777 50.772 50.772 50.772 11.111 0 21.392-3.597 29.761-9.675l7.326 7.326c1.565 1.565 3.617 2.348 5.668 2.348s4.103-0.782 5.668-2.348c3.131-3.131 3.131-8.207 0-11.337l-7.326-7.326c6.078-8.369 9.675-18.65 9.675-29.761v-17.101zm-16.033 17.102c0 6.68-1.899 12.921-5.18 18.222l-6.789-6.789c-3.131-3.131-8.207-3.131-11.337 0-3.131 3.131-3.131 8.207 0 11.337l6.789 6.789c-5.302 3.28-11.543 5.18-18.222 5.18-19.155 0-34.739-15.584-34.739-34.739v-17.102c0-19.155 15.584-34.739 34.739-34.739s34.739 15.584 34.739 34.739v17.102z"/>
	


	
		<path d="m186.82 425.08-23.225-92.899c-2.325-9.295-10.64-15.788-20.222-15.788h-14.175c-9.582 0-17.898 6.492-20.22 15.789l-23.225 92.899c-1.074 4.295 1.538 8.646 5.833 9.721 4.293 1.076 8.647-1.537 9.722-5.833l4.896-19.581h60.167l4.896 19.581c0.911 3.643 4.179 6.075 7.771 6.075 0.643 0 1.298-0.078 1.951-0.242 4.294-1.074 6.905-5.428 5.831-9.722zm-76.61-31.726 14.321-57.284c0.537-2.145 2.455-3.643 4.667-3.643h14.175c2.212 0 4.13 1.497 4.667 3.643l14.321 57.284h-52.151z"/>
	


	
		<path d="m427.02 76.96h-153.92c-4.427 0-8.017 3.589-8.017 8.017s3.589 8.017 8.017 8.017h153.92c4.427 0 8.017-3.589 8.017-8.017s-3.59-8.017-8.017-8.017z"/>
	


	
		<path d="m461.23 145.37h-188.13c-4.427 0-8.017 3.589-8.017 8.017s3.589 8.017 8.017 8.017h188.12c4.427 0 8.017-3.589 8.017-8.017s-3.589-8.017-8.016-8.017z"/>
	


	
		<path d="m461.23 179.57h-188.13c-4.427 0-8.017 3.589-8.017 8.017s3.589 8.017 8.017 8.017h188.12c4.427 0 8.017-3.589 8.017-8.017s-3.589-8.017-8.016-8.017z"/>
	


	
		<path d="m307.31 111.16h-34.205c-4.427 0-8.017 3.589-8.017 8.017s3.589 8.017 8.017 8.017h34.205c4.427 0 8.017-3.589 8.017-8.017s-3.59-8.017-8.017-8.017z"/>
	


	
		<path d="m461.23 111.16h-119.72c-4.427 0-8.017 3.589-8.017 8.017s3.589 8.017 8.017 8.017h119.72c4.427 0 8.017-3.589 8.017-8.017s-3.589-8.017-8.016-8.017z"/>
	


	
		<path d="m427.02 350.6h-153.92c-4.427 0-8.017 3.589-8.017 8.017s3.589 8.017 8.017 8.017h153.92c4.427 0 8.017-3.589 8.017-8.017s-3.59-8.017-8.017-8.017z"/>
	


	
		<path d="m461.23 419.01h-188.13c-4.427 0-8.017 3.589-8.017 8.017 0 4.427 3.589 8.017 8.017 8.017h188.12c4.427 0 8.017-3.589 8.017-8.017 0-4.427-3.589-8.017-8.016-8.017z"/>
	


	
		<path d="m461.23 453.21h-188.13c-4.427 0-8.017 3.589-8.017 8.017 0 4.427 3.589 8.017 8.017 8.017h188.12c4.427 0 8.017-3.589 8.017-8.017s-3.589-8.017-8.016-8.017z"/>
	


	
		<path d="m307.31 384.8h-34.205c-4.427 0-8.017 3.589-8.017 8.017 0 4.427 3.589 8.017 8.017 8.017h34.205c4.427 0 8.017-3.589 8.017-8.017s-3.59-8.017-8.017-8.017z"/>
	


	
		<path d="m461.23 384.8h-119.72c-4.427 0-8.017 3.589-8.017 8.017 0 4.427 3.589 8.017 8.017 8.017h119.72c4.427 0 8.017-3.589 8.017-8.017s-3.589-8.017-8.016-8.017z"/>
	</g>
</g>















</svg>
