<svg width="64" height="64" viewBox="0 0 64 64" fill="none" xmlns="http://www.w3.org/2000/svg">
<rect width="64" height="64" rx="8" fill="#E1E5F0"/>
<path d="M25.3329 13.8833H37.1693L24.882 50.2892C24.7557 50.6633 24.5153 50.9884 24.1945 51.2187C23.8738 51.449 23.4889 51.5729 23.0941 51.573H13.8825C13.5833 51.573 13.2885 51.5018 13.0223 51.3653C12.7561 51.2287 12.5263 51.0308 12.3518 50.7878C12.1773 50.5448 12.0632 50.2637 12.0188 49.9679C11.9745 49.672 12.0013 49.3699 12.0969 49.0864L23.5446 15.167C23.6708 14.7927 23.9113 14.4675 24.2321 14.2371C24.5529 14.0068 24.9379 13.8833 25.3329 13.8833Z" fill="url(#paint0_linear_3269_2301)"/>
<path d="M42.5338 38.3022H23.7642C23.5897 38.3021 23.4192 38.3544 23.2749 38.4525C23.1306 38.5506 23.0191 38.6899 22.9551 38.8522C22.8911 39.0146 22.8774 39.1924 22.9159 39.3626C22.9544 39.5328 23.0433 39.6875 23.171 39.8065L35.2319 51.0637C35.583 51.3912 36.0454 51.5734 36.5256 51.5733H47.1537L42.5338 38.3022Z" fill="#0078D4"/>
<path d="M25.3325 13.8833C24.9332 13.8818 24.5439 14.008 24.2214 14.2434C23.8989 14.4789 23.6602 14.8113 23.5401 15.1921L12.1105 49.0555C12.0085 49.34 11.9764 49.6449 12.0171 49.9444C12.0578 50.2439 12.17 50.5292 12.3443 50.7761C12.5186 51.0231 12.7497 51.2244 13.0183 51.3631C13.2868 51.5018 13.5848 51.5738 13.887 51.573H23.3364C23.6883 51.5101 24.0173 51.3549 24.2896 51.1233C24.562 50.8917 24.7679 50.592 24.8865 50.2547L27.1658 43.5374L35.3073 51.1311C35.6485 51.4134 36.0765 51.5694 36.5192 51.573H47.1078L42.4638 38.302L28.9259 38.3052L37.2116 13.8833H25.3325Z" fill="url(#paint1_linear_3269_2301)"/>
<path d="M40.4517 15.1652C40.3256 14.7916 40.0855 14.4669 39.7652 14.2369C39.4448 14.0069 39.0604 13.8833 38.6661 13.8833H25.4746C25.8689 13.8833 26.2533 14.007 26.5736 14.237C26.894 14.467 27.1341 14.7916 27.2602 15.1652L38.7083 49.086C38.804 49.3695 38.8309 49.6717 38.7866 49.9677C38.7423 50.2636 38.6282 50.5447 38.4537 50.7878C38.2792 51.0309 38.0493 51.2289 37.7831 51.3655C37.5169 51.5022 37.222 51.5734 36.9228 51.5734H50.1147C50.4139 51.5734 50.7087 51.502 50.9749 51.3654C51.241 51.2287 51.4709 51.0307 51.6453 50.7876C51.8197 50.5445 51.9338 50.2634 51.9781 49.9675C52.0223 49.6716 51.9955 49.3695 51.8998 49.086L40.4517 15.1652Z" fill="url(#paint2_linear_3269_2301)"/>
<defs>
<linearGradient id="paint0_linear_3269_2301" x1="29.6469" y1="16.6762" x2="17.3546" y2="52.9908" gradientUnits="userSpaceOnUse">
<stop stop-color="#114A8B"/>
<stop offset="1" stop-color="#0669BC"/>
</linearGradient>
<linearGradient id="paint1_linear_3269_2301" x1="33.4863" y1="33.5998" x2="30.6429" y2="34.5613" gradientUnits="userSpaceOnUse">
<stop stop-opacity="0.3"/>
<stop offset="0.071" stop-opacity="0.2"/>
<stop offset="0.321" stop-opacity="0.1"/>
<stop offset="0.623" stop-opacity="0.05"/>
<stop offset="1" stop-opacity="0"/>
</linearGradient>
<linearGradient id="paint2_linear_3269_2301" x1="31.9237" y1="15.6171" x2="45.417" y2="51.5657" gradientUnits="userSpaceOnUse">
<stop stop-color="#3CCBF4"/>
<stop offset="1" stop-color="#2892DF"/>
</linearGradient>
</defs>
</svg>
