<svg width="64" height="64" viewBox="0 0 64 64" fill="none" xmlns="http://www.w3.org/2000/svg">
<rect width="64" height="64" rx="8" fill="#E1E5F0"/>
<path d="M31.5654 43.0458H38.816C39.5868 42.9526 40.2998 42.5898 40.8287 42.0215C41.3576 41.4531 41.6684 40.716 41.7061 39.9405V29.4809C41.7061 28.814 41.4412 28.1745 40.9696 27.7029C40.4981 27.2314 39.8585 26.9665 39.1917 26.9665C38.5248 26.9665 37.8853 27.2314 37.4137 27.7029C36.9422 28.1745 36.6773 28.814 36.6773 29.4809V36.1274C36.6773 36.6281 36.4784 37.1082 36.1244 37.4622C35.7704 37.8162 35.2902 38.0151 34.7896 38.0151H31.5031C31.1702 38.0153 30.8407 38.0816 30.5336 38.2102C30.2265 38.3388 29.948 38.5271 29.7143 38.7642C29.4806 39.0013 29.2962 39.2824 29.172 39.5912C29.0478 39.9001 28.9861 40.2306 28.9906 40.5635C29.0094 41.2319 29.2896 41.8664 29.771 42.3305C30.2525 42.7947 30.8967 43.0515 31.5654 43.0458ZM34.8349 19.1666H27.5824C26.8116 19.2597 26.0987 19.6226 25.5697 20.1909C25.0408 20.7592 24.73 21.4963 24.6924 22.2718V32.7296C24.6924 33.3964 24.9573 34.036 25.4288 34.5075C25.9004 34.9791 26.5399 35.244 27.2068 35.244C27.8736 35.244 28.5132 34.9791 28.9847 34.5075C29.4563 34.036 29.7212 33.3964 29.7212 32.7296V26.0849C29.7212 25.5843 29.9201 25.1042 30.2741 24.7501C30.6281 24.3961 31.1082 24.1973 31.6089 24.1973H34.8934C35.2263 24.197 35.5559 24.1307 35.863 24.0021C36.17 23.8735 36.4485 23.6852 36.6823 23.4482C36.916 23.2111 37.1003 22.93 37.2245 22.6211C37.3488 22.3122 37.4104 21.9818 37.4059 21.6489C37.3877 20.9809 37.1081 20.3467 36.6274 19.8826C36.1467 19.4185 35.5031 19.1614 34.8349 19.1666Z" fill="#510098"/>
<path d="M35.212 15.0288C38.0449 15.0318 40.7609 16.1584 42.7643 18.1613C44.7676 20.1643 45.8946 22.8802 45.8981 25.7131V46.2624C45.7789 46.956 45.4404 47.5931 44.9326 48.0803C44.4247 48.5674 43.774 48.879 43.0761 48.9693H29.4111C26.576 48.9693 23.8569 47.8431 21.8522 45.8383C19.8474 43.8336 18.7212 41.1145 18.7212 38.2794V18.3341C18.7212 17.4575 19.0694 16.6168 19.6893 15.9969C20.3091 15.377 21.1499 15.0288 22.0265 15.0288H35.212ZM35.212 10H22.0265C19.8162 10 17.6963 10.8781 16.1334 12.441C14.5704 14.004 13.6924 16.1238 13.6924 18.3341L13.6924 38.2813C13.6924 42.4501 15.3485 46.4483 18.2963 49.3961C21.2441 52.3439 25.2422 54 29.4111 54H43.329C45.2602 53.8418 47.0758 53.0154 48.4636 51.6632C49.8513 50.3109 50.7244 48.5173 50.9326 46.5908V25.7131C50.9326 23.649 50.5259 21.6051 49.7358 19.6982C48.9457 17.7913 47.7876 16.0588 46.3277 14.5996C44.8678 13.1404 43.1347 11.9831 41.2274 11.1939C39.3201 10.4047 37.2761 9.99901 35.212 10Z" fill="#510098"/>
</svg>
