<svg width="64" height="64" viewBox="0 0 64 64" fill="none" xmlns="http://www.w3.org/2000/svg">
<rect width="64" height="64" rx="8" fill="#E1E5F0"/>
<path d="M24.7439 50.4346H39.2605C39.5784 50.4346 39.7903 50.3286 40.1082 50.2227C40.3201 50.1167 40.5321 49.9048 40.744 49.6929L49.9626 38.1432C50.1745 37.9312 50.2805 37.6134 50.2805 37.4014C50.3864 37.0836 50.3864 36.8716 50.2805 36.5537L46.7838 22.461C46.6778 22.2491 46.5718 21.9312 46.4659 21.7192C46.2539 21.5073 46.042 21.2954 45.8301 21.1894L32.9029 14.6199C32.3731 14.408 31.7373 14.408 31.2075 14.6199L18.0684 21.1894C17.8565 21.2954 17.6445 21.5073 17.4326 21.7192C17.2207 21.9312 17.1147 22.1431 17.1147 22.461L13.724 36.5537C13.618 36.8716 13.618 37.0836 13.724 37.4014C13.83 37.7193 13.9359 37.9312 14.0419 38.1432L23.3664 49.6929C23.5783 49.9048 23.7903 50.1167 24.0022 50.2227C24.2141 50.3286 24.426 50.4346 24.7439 50.4346ZM39.2605 48.4214H24.7439L15.5253 36.9776L18.8101 22.8848L31.9492 16.4212L44.8765 22.8848L48.3732 36.9776L39.2605 48.4214Z" fill="#238FCF"/>
<path d="M15.3126 18.5404L13.6172 17.1629L30.9947 8.58008V10.6993L15.3126 18.5404Z" fill="#1BBFD3"/>
<path d="M53.4589 38.7788L55.5781 39.2026L43.4986 54.461L42.5449 52.5537L53.4589 38.7788Z" fill="#79BF43"/>
<path d="M33.0078 10.8052V8.68604L50.1734 17.2689L48.584 18.6463L33.0078 10.8052Z" fill="#1BBFD3"/>
<path d="M49.6426 20.1299L51.338 18.7524L56.0002 37.4015L53.881 36.9777L49.6426 20.1299Z" fill="#1D4489"/>
<path d="M10.1192 36.8717L8 37.2956L12.4504 18.7524L14.1457 20.1299L10.1192 36.8717Z" fill="#1D4489"/>
<path d="M10.545 38.7788L21.6709 52.5537L20.7172 54.461L8.42578 39.3086L10.545 38.7788Z" fill="#79BF43"/>
<path d="M40.7433 53.4014L41.697 55.4146H22.4121L23.3658 53.4014H40.7433Z" fill="#1BBFD3"/>
</svg>
