<?xml version="1.0" encoding="iso-8859-1"?>
<!-- Uploaded to: SVG Repo, www.svgrepo.com, Generator: SVG Repo Mixer Tools -->
<!DOCTYPE svg PUBLIC "-//W3C//DTD SVG 1.1//EN" "http://www.w3.org/Graphics/SVG/1.1/DTD/svg11.dtd">
<svg fill="#000000" version="1.1" id="Capa_1" xmlns="http://www.w3.org/2000/svg" xmlns:xlink="http://www.w3.org/1999/xlink" 
	 width="800px" height="800px" viewBox="0 0 393.642 393.642"
	 xml:space="preserve">
<g>
	<path fill="#ffffff" d="M36.846,34.046c-42.84,33.66-42.84,92.412-27.54,140.148c22.032,65.484,80.784,119.34,151.776,123.012
		c50.796,2.448,98.533-48.349,96.697-98.532c1.836-4.896,2.447-9.18,3.06-14.688c0.612-7.344-0.612-15.912-6.12-20.196
		c-1.224-0.612-2.448-0.612-3.672-0.612c-1.836-0.612-3.06-0.612-4.284-0.612c-12.852,2.448-29.376,1.224-41.004,7.956
		c-2.448-0.612-5.508,0.612-6.12,3.06c-9.792,33.048-36.108,53.244-70.992,37.944C103.554,200.51,87.03,172.97,78.462,148.49
		c-7.956-22.644-5.508-50.184,15.3-64.26c22.032-15.3,49.572-0.612,66.096,14.688c2.448,1.836,4.896,2.448,7.344,1.836
		c1.224,1.836,3.672,3.06,6.12,1.836c15.912-9.792,33.049-12.852,51.408-13.464c4.284,0,7.956-4.284,6.732-9.18
		c-2.448-7.956-6.732-13.464-12.24-18.972c0-2.448-1.224-4.284-3.06-6.12C169.038,19.97,88.866-6.958,36.846,34.046z"/>
	<path fill="#ffffff" d="M169.65,130.742c-2.448,1.836-4.284,3.672-6.12,5.508c-14.688,13.464-23.256,32.436-25.704,52.02
		c-1.224,5.509-1.836,11.017-1.224,17.137c0,3.06,2.448,6.12,6.12,6.12c18.36-0.612,31.212-7.956,42.228-22.645
		c7.956-11.016,15.301-21.42,26.929-29.376c5.508-3.672,11.016-5.508,16.524-6.12c4.283,0.612,8.567,0.612,12.852,0.612
		c18.36,3.06,36.72,17.136,48.348,29.988c22.645,23.868,36.108,61.2,31.212,93.636c-6.119,41.004-69.768,40.392-85.067,7.344
		c-0.612-1.836-2.448-1.836-4.284-1.224c-1.836-1.225-3.672-1.225-5.508,0c-7.345,4.284-12.24,12.852-18.973,18.359
		c-7.344,5.509-15.3,11.017-23.868,14.076c-3.06,1.225-3.672,5.508-1.836,7.344c-0.612,1.225-0.612,2.448,0,4.284
		c1.836,3.672,2.448,8.568,6.732,9.792c6.12,14.076,21.42,26.929,33.661,33.048c22.644,12.24,50.184,11.017,74.052,6.12
		c58.141-12.852,97.92-58.752,97.92-118.116c0-68.544-50.796-134.027-113.22-157.284C236.97,84.23,193.518,98.918,169.65,130.742z"
		/>
</g>
</svg>