<?xml version="1.0" encoding="UTF-8" standalone="no"?>
<svg xmlns="http://www.w3.org/2000/svg" width="120" height="27" viewBox="0 0 120 27" fill="none">
    <path d="M24.0571 0.000944414C26.8134 -0.0500996 28.7172 1.9755 28.7172 4.2529C28.7172 5.8218 28.2159 7.08742 26.4125 8.09958C21.852 10.6813 16.7411 17.3638 16.1401 25.9189C16.0899 26.1719 15.8386 26.1719 15.7387 25.9189C11.8299 13.6177 18.8458 0.101865 24.0571 0.000944414ZM56.1205 7.23923C59.3819 7.23939 61.4398 9.8136 61.4399 13.5273C61.4399 17.3397 59.1307 19.8154 55.9194 19.8154C53.1599 19.8154 52.1567 17.6865 52.1567 17.6865H52.1059C52.1059 17.6865 52.1567 18.1326 52.1567 18.7265V26.1045H49.8979V7.4863H52.0561V8.87301C52.0561 9.21932 52.0053 9.51657 52.0053 9.51657H52.0561C52.0561 9.51657 53.11 7.23923 56.1205 7.23923ZM2.76116 13.8203C6.21955 13.8205 10.9293 19.0348 11.8813 22.1728C11.9314 22.3756 11.7306 22.4769 11.5805 22.3759C9.37541 20.5534 5.81799 19.2882 2.86175 19.2881C1.55882 19.2881 0.105728 18.4272 0.00530436 16.706C-0.018087 16.3321 0.0360482 15.9574 0.164484 15.6054C0.292986 15.2534 0.492553 14.9311 0.751398 14.6601C1.01024 14.3891 1.32262 14.1748 1.66839 14.0302C2.01418 13.8857 2.38643 13.8141 2.76116 13.8203ZM29.3686 13.7695C29.7434 13.7632 30.1155 13.835 30.4614 13.9795C30.8072 14.124 31.1194 14.3383 31.3784 14.6093C31.6373 14.8804 31.8377 15.2026 31.9662 15.5547C32.0946 15.9066 32.1488 16.2814 32.1254 16.6552C32.025 18.3764 30.5709 19.2373 29.268 19.2373C26.362 19.2374 22.8041 20.6041 20.5492 22.3252C20.3987 22.4258 20.1983 22.3248 20.2485 22.122C21.2004 18.984 25.9112 13.7697 29.3686 13.7695ZM42.8237 7.18844C44.5296 7.18852 45.4331 7.73348 46.5873 8.47653L45.6332 9.91208C44.4795 9.41654 43.8773 9.07031 42.7231 9.07028C41.5693 9.07028 40.6655 9.5656 40.6655 10.6054C40.6655 12.9823 46.9379 12.1407 46.9379 16.2011C46.9377 18.2309 45.1814 19.7168 42.5727 19.7168C40.5654 19.7167 39.0599 18.875 38.1567 18.1816L39.1108 16.7451C39.8634 17.2406 41.2182 17.8349 42.6235 17.8349C43.8272 17.8348 44.6801 17.2906 44.6801 16.2509C44.6801 13.9238 38.4078 14.6663 38.4076 10.6552C38.4076 8.37725 40.4151 7.18844 42.8237 7.18844ZM95.8119 11.8437H97.5678L100.98 7.4863H103.439L99.5248 12.7353V12.7841L103.891 19.5195L101.282 19.5683L97.6186 13.874H95.8119V19.5683H93.5034V0.999968H95.8119V11.8437ZM108.608 15.9043C108.608 17.3896 109.862 17.4394 110.364 17.4394V19.5683C108.457 19.5683 106.299 19.2218 106.299 16.2509V0.999968H108.608V15.9043ZM75.5405 19.5195H73.2319V7.48727H75.5405V19.5195ZM85.7768 7.18942C88.6362 7.1896 89.9407 8.7246 89.9409 11.7939V19.5195H87.5326V12.3388C87.5326 10.6555 87.1811 9.31838 85.2748 9.31833C82.916 9.31833 81.2104 11.2497 81.2104 13.7256V19.5195H78.9018V7.4863H81.1596V9.31833C81.1596 9.66477 81.1098 10.0117 81.1098 10.0117H81.1596C81.6612 8.97236 83.1172 7.18942 85.7768 7.18942ZM70.8735 9.61618H70.8227C68.4645 9.6164 66.357 12.1905 66.3569 14.5175V19.5185H64.0492V7.48727H66.3071V9.61618C66.307 10.1116 66.2573 10.5078 66.2573 10.5078H66.3071C66.8589 8.92318 69.0167 7.33786 70.8735 7.33786V9.61618ZM119.997 9.51657H119.948C117.589 9.51657 115.482 12.0917 115.482 14.4189V19.4199H113.173V7.38766H115.431V9.51657C115.431 10.012 115.381 10.4082 115.381 10.4082H115.431C115.983 8.82368 118.141 7.23945 119.997 7.23923V9.51657ZM55.6684 9.21969C53.8621 9.21991 52.1568 10.4575 52.1567 13.5273C52.1567 15.6562 53.3606 17.7861 55.5688 17.7861C57.4751 17.7859 59.0805 16.2505 59.0805 13.5273C59.0804 10.903 57.6752 9.21969 55.6684 9.21969ZM5.31585 1.77243C5.76673 1.82264 6.31829 1.82317 7.17034 2.48141C10.8776 5.77161 13.0827 11.5429 12.4311 16.5537C12.3809 16.8067 12.1301 16.8067 12.0297 16.5537C10.9778 12.9598 7.51999 8.85947 4.46331 7.59372C3.01034 7.03688 2.2086 5.9739 2.30902 4.50583C2.40959 2.98715 3.66211 1.67105 5.31585 1.77243ZM74.3862 2.08981C75.1898 2.08998 75.8412 2.73218 75.8412 3.52536C75.8412 4.31856 75.1894 4.96074 74.3862 4.96091C73.5823 4.96091 72.9311 4.31866 72.9311 3.52536C72.9311 2.73208 73.5828 2.08981 74.3862 2.08981Z" fill="#161E33"/>
</svg>