<?xml version="1.0" encoding="UTF-8" standalone="no"?>
<svg
   width="119.999"
   height="26.108679"
   viewBox="0 0 119.999 26.108679"
   fill="none"
   version="1.1"
   id="svg85"
   xmlns="http://www.w3.org/2000/svg"
   xmlns:svg="http://www.w3.org/2000/svg">
  <g
     clip-path="url(#clip0_11990_33135)"
     id="g75"
     transform="translate(-20.001996,-19.000046)">
    <path
       d="m 59.1136,35.7456 c 0.7527,0.4956 2.1073,1.0895 3.5127,1.0895 1.204,0 2.057,-0.5442 2.057,-1.5841 0,-2.3271 -6.2721,-1.5846 -6.2721,-5.5958 0,-2.278 2.0069,-3.4664 4.4154,-3.4664 1.7061,0 2.6094,0.5448 3.7637,1.2879 l -0.954,1.4359 c -1.1538,-0.4955 -1.7558,-0.842 -2.9101,-0.842 -1.1538,0 -2.0571,0.4951 -2.0571,1.5349 0,2.3769 6.2721,1.5349 6.2721,5.5953 0,2.03 -1.7563,3.5157 -4.3651,3.5157 -2.0074,0 -3.5127,-0.8415 -4.4159,-1.5349 z m 10.788,9.2601 V 26.4865 h 2.1575 v 1.3863 c 0,0.3464 -0.0502,0.6437 -0.0502,0.6437 h 0.0502 c 0,0 1.0539,-2.2775 4.0644,-2.2775 3.2616,0 5.3192,2.5747 5.3192,6.2887 0,3.8124 -2.3087,6.2882 -5.52,6.2882 -2.7595,0 -3.7632,-2.1289 -3.7632,-2.1289 h -0.0502 c 0,0 0.0502,0.4454 0.0502,1.0394 v 7.3782 h -2.2579 z m 5.6701,-8.2198 c 1.9064,0 3.5121,-1.5349 3.5121,-4.2582 0,-2.6244 -1.4048,-4.308 -3.4117,-4.308 -1.8065,0 -3.5126,1.2377 -3.5126,4.308 0,2.1289 1.204,4.2582 3.4122,4.2582 z m 15.2546,-8.17 c -2.3584,0 -4.4661,2.5747 -4.4661,4.9019 v 5.0009 H 84.052 V 26.487 h 2.2585 v 2.1289 c 0,0.4956 -0.0503,0.8917 -0.0503,0.8917 h 0.0503 c 0.5517,-1.5846 2.7092,-3.1692 4.566,-3.1692 v 2.278 z m 2.4085,9.9525 V 26.487 h 2.3086 v 12.0327 h -2.3086 v 0.0492 z m 14.3012,0 v -7.2292 c 0,-1.6835 -0.352,-3.0205 -2.258,-3.0205 -2.359,0 -4.064,1.931 -4.064,4.4068 v 5.7937 H 98.9049 V 26.4865 h 2.2581 v 1.8322 c 0,0.3464 -0.05,0.6928 -0.05,0.6928 h 0.05 c 0.502,-1.0393 1.957,-2.8217 4.617,-2.8217 2.859,0 4.164,1.5349 4.164,4.6047 v 7.7247 h -2.408 z m 13.749,0 -3.664,-5.6943 h -1.806 v 5.6943 h -2.308 V 20 h 2.308 v 10.8442 h 1.756 l 3.412,-4.3577 h 2.459 l -3.914,5.2489 v 0.0492 l 4.366,6.7346 z m 9.082,0 c -1.907,0 -4.064,-0.3465 -4.064,-3.3174 V 20 h 2.308 v 14.9041 c 0,1.4857 1.254,1.5354 1.756,1.5354 z m 9.584,-10.0519 c -2.358,0 -4.466,2.5752 -4.466,4.9024 v 5.0009 h -2.308 V 26.3876 h 2.258 v 2.1289 c 0,0.4956 -0.051,0.8917 -0.051,0.8917 h 0.051 c 0.552,-1.5846 2.709,-3.1692 4.566,-3.1692 v 2.2775 z m -45.5619,-4.555 c 0.8034,0 1.4551,-0.6427 1.4551,-1.436 0,-0.7933 -0.6512,-1.436 -1.4551,-1.436 -0.8033,0 -1.455,0.6427 -1.455,1.436 0,0.7933 0.6512,1.436 1.455,1.436 z"
       id="path63"
       fill="#2e3841" />
    <g
       clip-path="url(#clip1_11990_33135)"
       id="g73">
      <path
         d="m 22.3117,23.5062 c 0.1004,-1.5188 1.3526,-2.8348 3.0065,-2.7334 0.4509,0.0502 1.0022,0.0502 1.8542,0.7085 3.7075,3.2902 5.9127,9.0617 5.2609,14.0726 -0.0502,0.2531 -0.3007,0.2531 -0.4011,0 -1.0519,-3.594 -4.5098,-7.694 -7.5666,-8.9598 -1.453,-0.5568 -2.2544,-1.6198 -2.1539,-3.0879 z"
         fill="#faa21b"
         id="path65" />
      <path
         d="m 31.8832,41.173 c -0.9519,-3.1381 -5.6616,-8.3523 -9.12,-8.3523 -0.3747,-0.0062 -0.7467,0.0652 -1.0924,0.2097 -0.3458,0.1446 -0.658,0.3591 -0.9168,0.6301 -0.2589,0.271 -0.4589,0.5927 -0.5874,0.9447 -0.1285,0.3521 -0.1827,0.727 -0.1593,1.101 0.1004,1.7212 1.5534,2.5818 2.8564,2.5818 2.9563,0 6.5141,1.2652 8.7193,3.0878 0.1501,0.101 0.3504,0 0.3002,-0.2028 z"
         fill="#70bf54"
         id="path67" />
      <path
         d="m 36.143,44.9189 c -0.0502,0.2531 -0.3012,0.2531 -0.4012,0 -3.9087,-12.3012 3.107,-25.817 8.3182,-25.9179 2.7565,-0.0513 4.6604,1.9742 4.6604,4.2517 0,1.569 -0.5011,2.8348 -2.3046,3.847 -4.5605,2.5818 -9.6718,9.2636 -10.2728,17.8187 z"
         fill="#00bae9"
         id="path69" />
      <path
         d="m 40.5508,41.3251 c -0.1506,0.1009 -0.3509,0 -0.3007,-0.2029 0.9519,-3.1381 5.6626,-8.3523 9.12,-8.3523 0.3747,-0.0063 0.7468,0.0651 1.0926,0.2096 0.3459,0.1445 0.6581,0.359 0.917,0.63 0.2589,0.2711 0.4589,0.5928 0.5874,0.9449 0.1286,0.3521 0.1829,0.7269 0.1595,1.101 -0.1005,1.7212 -1.554,2.5818 -2.857,2.5818 -2.9061,0 -6.4639,1.3667 -8.7188,3.0879 z"
         fill="#128acb"
         id="path71" />
    </g>
  </g>
  <defs
     id="defs83" />
</svg>
