<?xml version="1.0" encoding="UTF-8"?>
<svg width="366" height="366" fill="none" version="1.1" viewBox="0 0 366 366" xmlns="http://www.w3.org/2000/svg">
 <path d="m183.16 332.56c82.639 0 149.63-66.992 149.63-149.63 0-82.638-66.992-149.63-149.63-149.63s-149.63 66.992-149.63 149.63c0 82.639 66.992 149.63 149.63 149.63z" fill="#D9E2FF" stroke="white" stroke-miterlimit="10" stroke-width=".963"/>
 <mask id="mask0_821_2648" x="33" y="32" width="301" height="302" style="mask-type:alpha" maskUnits="userSpaceOnUse">
  <path d="m183.16 332.56c82.639 0 149.63-66.992 149.63-149.63 0-82.638-66.992-149.63-149.63-149.63s-149.63 66.992-149.63 149.63c0 82.639 66.992 149.63 149.63 149.63z" fill="#D9E2FF" stroke="white" stroke-miterlimit="10" stroke-width=".963"/>
 </mask>
 <g mask="url(#mask0_821_2648)">
  <g opacity=".2" stroke="black" stroke-miterlimit="10" stroke-width=".9">
   <path d="m183.16 33.302v299.26" opacity=".2"/>
   <path d="m200.49 33.302v299.26" opacity=".2"/>
   <path d="m217.82 33.302v299.26" opacity=".2"/>
   <path d="m235.16 33.302v299.26" opacity=".2"/>
   <path d="m252.49 33.302v299.26" opacity=".2"/>
   <path d="m269.82 33.302v299.26" opacity=".2"/>
   <path d="m287.16 33.302v299.26" opacity=".2"/>
   <path d="m304.49 33.302v299.26" opacity=".2"/>
   <path d="m321.83 33.302v299.26" opacity=".2"/>
   <path d="m44.483 33.302v299.26" opacity=".2"/>
   <path d="m61.817 33.302v299.26" opacity=".2"/>
   <path d="m79.151 33.302v299.26" opacity=".2"/>
   <path d="m96.485 33.302v299.26" opacity=".2"/>
   <path d="m113.82 33.302v299.26" opacity=".2"/>
   <path d="m131.15 33.302v299.26" opacity=".2"/>
   <path d="m148.49 33.302v299.26" opacity=".2"/>
   <path d="m165.82 33.302v299.26" opacity=".2"/>
   <path d="m33.524 182.93h299.26" opacity=".2"/>
   <path d="m33.524 165.6h299.26" opacity=".2"/>
   <path d="m33.524 148.26h299.26" opacity=".2"/>
   <path d="m33.524 130.93h299.26" opacity=".2"/>
   <path d="m33.524 113.6h299.26" opacity=".2"/>
   <path d="m33.524 96.262h299.26" opacity=".2"/>
   <path d="m33.524 78.928h299.26" opacity=".2"/>
   <path d="m33.524 61.594h299.26" opacity=".2"/>
   <path d="m33.524 44.26h299.26" opacity=".2"/>
   <path d="m33.524 321.6h299.26" opacity=".2"/>
   <path d="m33.524 304.27h299.26" opacity=".2"/>
   <path d="m33.524 286.94h299.26" opacity=".2"/>
   <path d="m33.524 269.6h299.26" opacity=".2"/>
   <path d="m33.524 252.27h299.26" opacity=".2"/>
   <path d="m33.524 234.93h299.26" opacity=".2"/>
   <path d="m33.524 217.6h299.26" opacity=".2"/>
   <path d="m33.524 200.27h299.26" opacity=".2"/>
  </g>
 </g>
 <path d="m183.16 245.49c34.549 0 62.556-28.008 62.556-62.557s-28.007-62.556-62.556-62.556-62.556 28.007-62.556 62.556 28.007 62.557 62.556 62.557z" fill="#DC244C" stroke="#B2BFE8" stroke-miterlimit="10" stroke-width=".963"/>
 <path d="m183.16 225.95c23.758 0 43.017-19.26 43.017-43.018 0-23.757-19.259-43.017-43.017-43.017s-43.017 19.26-43.017 43.017c0 23.758 19.259 43.018 43.017 43.018z" fill="white"/>
 <path d="m183.2 337.8c85.494 0 154.8-69.306 154.8-154.8 0-85.494-69.306-154.8-154.8-154.8-85.494 0-154.8 69.306-154.8 154.8 0 85.494 69.306 154.8 154.8 154.8z" stroke="#D9E2FF" stroke-miterlimit="10" stroke-width="1.8"/>
 <g stroke="white" stroke-miterlimit="10" stroke-width=".963">
  <path d="m229.05 182.67h101.95" opacity=".5"/>
  <path d="m35.306 182.67h101.95" opacity=".5"/>
  <path d="m183.16 286.94c57.44 0 104-46.564 104-104 0-57.439-46.564-104-104-104s-104 46.564-104 104c0 57.44 46.564 104 104 104z" opacity=".5"/>
  <path d="m183.16 123v-88.179" opacity=".5"/>
  <path d="m183.16 330.51v-101.94" opacity=".5"/>
 </g>
 <g clip-rule="evenodd" fill-rule="evenodd">
  <path d="m183.12 182.94-8.049-4.643 8.049-4.653 8.049 4.653-8.049 4.643z" fill="#B2BFE8"/>
  <path d="m175.08 178.29 8.049 4.643v9.295l-8.049-4.653v-9.285z" fill="white"/>
  <path d="m183.12 182.94 8.049-4.643v9.296l-8.049 4.653v-9.306z" fill="#7D8CB5"/>
  <path d="m195.11 192.09 0.61365-21.022 12.554-2.5115v38.173l-8.453 4.88z" fill="#24386c"/>
  <path d="m158.57 168.55 8.453 4.88 6.0126 15.381 4.0411 5.735 6.3502 7.3035v9.76l-12.431-7.175-12.426-7.174z" fill="#b2bfe8"/>
  <path d="m194.04 193.06-10.618 8.7869v9.76l7.951-4.589z" fill="#24386c"/>
  <path d="m183.42 182.9-11.382-2.9654 12.636-10.02 10.805 9.4918z" fill="#778abf"/>
  <path d="m175.47 178.32 7.951 4.589v9.184l-10.484-3.5144z" fill="#b2bfe8"/>
  <path d="m183.42 182.9 7.951-4.589 2.6672 10.803-10.618 2.9699z" fill="#24386c"/>
  <path d="m208.28 168.55-8.453 4.88-11.091-1.9419-5.3132-2.0539-7.951 4.2068-8.453-0.211-8.453-4.88 12.426-7.174 12.431-7.175 12.426 7.175z" fill="#778abf"/>
  <path d="m191.38 207.02 8.453 4.589v-38.173l-8.202-4.737-8.202-4.738-8.202 4.738-8.202 4.737v18.944l8.202 4.737 8.202 4.738 7.951-4.595v9.76zm0-19.526-7.951 4.595-7.951-4.589v-9.178l7.951-4.589 7.951 4.589v9.172z" fill="#C91540"/>
 </g>
 <path d="m183.42 201.85v-9.766l-7.951-4.589-0.251 9.617z" fill="url(#paint0_linear_821_2648)"/>
 <g fill="white">
  <path d="m152.53 143 0.019-0.019-4.497-5.278 0.635-0.539 5.297 6.231-0.79 0.674-8.253-2.177-0.019 0.01 4.536 5.335-0.636 0.539-5.306-6.23 0.789-0.674 8.225 2.128z"/>
  <path d="m154.51 140.08c0.163 0.221 0.346 0.395 0.568 0.549 0.221 0.144 0.443 0.25 0.693 0.298 0.241 0.058 0.491 0.068 0.732 0.029 0.25-0.038 0.491-0.125 0.722-0.269 0.347-0.212 0.597-0.482 0.751-0.8 0.154-0.317 0.231-0.616 0.231-0.914l0.761 0.105c-0.058 0.52-0.212 0.954-0.443 1.31-0.241 0.356-0.549 0.655-0.924 0.886-0.337 0.212-0.694 0.347-1.06 0.405-0.365 0.057-0.722 0.048-1.068-0.039-0.347-0.087-0.665-0.241-0.973-0.462-0.308-0.222-0.559-0.501-0.78-0.848-0.212-0.346-0.356-0.703-0.424-1.069-0.067-0.366-0.058-0.722 0.019-1.069 0.077-0.346 0.222-0.664 0.424-0.963 0.202-0.298 0.472-0.548 0.799-0.751 0.347-0.212 0.694-0.346 1.05-0.394 0.356-0.049 0.684-0.02 1.002 0.067 0.317 0.087 0.606 0.241 0.876 0.462 0.27 0.222 0.501 0.482 0.693 0.799l0.183 0.299-3.832 2.369zm2.802-2.465c-0.27-0.443-0.626-0.713-1.05-0.819-0.433-0.106-0.886-0.019-1.358 0.27-0.211 0.125-0.385 0.298-0.529 0.501-0.145 0.202-0.251 0.423-0.308 0.645-0.058 0.221-0.087 0.462-0.058 0.693 0.019 0.231 0.086 0.443 0.212 0.636l3.091-1.926z"/>
  <path d="m164.24 137.68c-0.078-0.125-0.145-0.25-0.203-0.385-0.057-0.125-0.125-0.26-0.183-0.395l-0.019 0.01c-0.019 0.164-0.058 0.337-0.125 0.501-0.068 0.163-0.154 0.327-0.27 0.471-0.115 0.145-0.24 0.28-0.385 0.405-0.144 0.115-0.298 0.221-0.462 0.289-0.636 0.289-1.175 0.337-1.628 0.135-0.452-0.203-0.818-0.597-1.097-1.223l-1.426-3.12 0.694-0.318 1.242 2.725c0.125 0.27 0.26 0.501 0.395 0.693 0.135 0.193 0.289 0.337 0.452 0.434 0.164 0.096 0.357 0.144 0.559 0.135 0.202-0.01 0.443-0.068 0.693-0.183 0.039-0.02 0.125-0.077 0.28-0.174 0.154-0.096 0.279-0.26 0.404-0.462s0.193-0.472 0.221-0.79c0.029-0.317-0.067-0.703-0.269-1.146l-1.156-2.523 0.694-0.317 1.752 3.842c0.058 0.135 0.145 0.298 0.241 0.501 0.096 0.202 0.202 0.385 0.299 0.558l-0.703 0.337z"/>
  <path d="m165.29 133.3c-0.077-0.232-0.164-0.453-0.25-0.684-0.087-0.231-0.202-0.53-0.337-0.896l0.712-0.241 0.318 0.954 0.019-0.01c0-0.154 0.029-0.318 0.087-0.472 0.048-0.163 0.125-0.317 0.231-0.462 0.106-0.144 0.231-0.279 0.385-0.404 0.154-0.126 0.347-0.222 0.578-0.299 0.202-0.067 0.395-0.106 0.559-0.115l0.096 0.76c-0.106 0-0.25 0.029-0.433 0.087-0.28 0.096-0.501 0.231-0.655 0.404-0.164 0.174-0.279 0.366-0.356 0.569-0.077 0.211-0.116 0.414-0.106 0.626 0 0.211 0.028 0.404 0.096 0.577l0.982 2.889-0.722 0.241-1.204-3.524z"/>
  <path d="m172.48 131.68-0.029-0.135c-0.212-0.905-0.77-1.252-1.666-1.05-0.616 0.145-1.108 0.472-1.464 0.992l-0.578-0.424c0.376-0.626 1.06-1.049 2.052-1.28 0.25-0.058 0.51-0.077 0.76-0.058 0.251 0.019 0.482 0.086 0.694 0.202s0.395 0.279 0.549 0.482c0.163 0.211 0.279 0.471 0.356 0.799l0.549 2.35c0.048 0.202 0.106 0.414 0.173 0.626 0.068 0.211 0.135 0.394 0.193 0.529l-0.722 0.164c-0.049-0.125-0.106-0.26-0.145-0.405-0.038-0.144-0.087-0.288-0.116-0.433h-0.019c-0.135 0.405-0.337 0.713-0.597 0.944s-0.607 0.385-1.03 0.481c-0.231 0.058-0.462 0.077-0.694 0.058-0.231-0.019-0.452-0.067-0.645-0.154-0.202-0.096-0.375-0.221-0.52-0.395-0.144-0.164-0.25-0.375-0.308-0.635-0.096-0.424-0.067-0.79 0.096-1.089 0.164-0.298 0.405-0.539 0.703-0.741 0.308-0.202 0.646-0.356 1.021-0.472 0.376-0.116 0.713-0.212 1.03-0.289l0.357-0.067zm-0.241 0.693c-0.183 0.048-0.424 0.106-0.693 0.193-0.28 0.086-0.54 0.192-0.78 0.327-0.241 0.135-0.434 0.299-0.588 0.491-0.144 0.193-0.192 0.424-0.135 0.684 0.039 0.173 0.106 0.318 0.212 0.424 0.097 0.106 0.222 0.183 0.357 0.24 0.134 0.058 0.288 0.077 0.443 0.077 0.154 0 0.308-0.019 0.452-0.057 0.27-0.068 0.491-0.164 0.674-0.299s0.318-0.298 0.414-0.481c0.097-0.183 0.154-0.386 0.174-0.607 0.019-0.222 0-0.453-0.058-0.684l-0.087-0.385-0.385 0.077z"/>
  <path d="m176.51 134.37-0.751 0.105-1.242-8.647 0.751-0.106 1.242 8.648z"/>
  <path d="m182.36 133.14 4.382 0.067-0.01 0.761-5.209-0.087 0.134-8.185 5.075 0.086-9e-3 0.761-4.237-0.067-0.049 2.783 3.968 0.067-0.01 0.761-3.967-0.067-0.068 3.12z"/>
  <path d="m189.34 128.84c-9e-3 0.144-0.019 0.289-0.029 0.433-0.019 0.145-0.038 0.289-0.057 0.434h0.019c0.106-0.135 0.231-0.251 0.375-0.357 0.145-0.106 0.309-0.192 0.482-0.25 0.173-0.067 0.356-0.106 0.539-0.135s0.366-0.019 0.54 0c0.683 0.096 1.165 0.356 1.444 0.761 0.279 0.404 0.366 0.953 0.27 1.618l-0.491 3.399-0.752-0.106 0.424-2.966c0.087-0.597 0.048-1.069-0.115-1.415-0.164-0.347-0.52-0.559-1.079-0.636-0.039-0.01-0.144-0.01-0.327 0-0.183 0-0.376 0.058-0.588 0.173-0.212 0.116-0.414 0.289-0.607 0.54-0.192 0.25-0.327 0.626-0.394 1.107l-0.395 2.745-0.751-0.106 0.597-4.17c0.019-0.145 0.038-0.328 0.058-0.549 0.019-0.222 0.038-0.433 0.048-0.636l0.789 0.116z"/>
  <path d="m198.83 132.1c-0.077-0.231-0.212-0.443-0.405-0.636-0.193-0.192-0.433-0.327-0.722-0.404-0.308-0.087-0.588-0.116-0.857-0.077-0.27 0.038-0.52 0.125-0.732 0.269-0.212 0.145-0.414 0.328-0.568 0.559s-0.28 0.501-0.357 0.799c-0.077 0.299-0.106 0.588-0.086 0.867 0.019 0.279 0.096 0.539 0.212 0.77 0.125 0.231 0.288 0.434 0.5 0.597 0.212 0.164 0.472 0.289 0.78 0.366 0.289 0.077 0.569 0.077 0.829 0.01 0.26-0.077 0.481-0.193 0.664-0.347l0.482 0.617c-0.347 0.231-0.694 0.385-1.06 0.442-0.366 0.058-0.732 0.039-1.088-0.048-0.424-0.106-0.79-0.269-1.098-0.5-0.308-0.232-0.549-0.501-0.722-0.809-0.173-0.309-0.279-0.655-0.318-1.021-0.038-0.376 0-0.761 0.106-1.156s0.27-0.741 0.482-1.049c0.211-0.309 0.481-0.549 0.789-0.732s0.655-0.299 1.031-0.337c0.375-0.048 0.78-0.01 1.203 0.115 0.357 0.106 0.675 0.27 0.963 0.501 0.289 0.231 0.52 0.539 0.703 0.915l-0.731 0.289z"/>
  <path d="m205.18 136.04c-0.154 0.376-0.357 0.703-0.626 0.973-0.26 0.269-0.559 0.472-0.886 0.616-0.328 0.145-0.684 0.212-1.069 0.212-0.376 0-0.761-0.077-1.156-0.241-0.385-0.154-0.712-0.366-0.982-0.626s-0.482-0.558-0.616-0.895c-0.145-0.328-0.212-0.684-0.212-1.06 0-0.375 0.077-0.751 0.221-1.126 0.154-0.376 0.357-0.703 0.626-0.973 0.27-0.27 0.559-0.472 0.886-0.616 0.328-0.145 0.684-0.212 1.059-0.212 0.376 0 0.761 0.077 1.146 0.231 0.395 0.164 0.723 0.366 1.002 0.636 0.27 0.26 0.481 0.558 0.616 0.895 0.145 0.328 0.212 0.684 0.212 1.059 0.01 0.366-0.067 0.752-0.221 1.127zm-0.771-0.318c0.116-0.279 0.174-0.558 0.183-0.837 0.01-0.28-0.029-0.54-0.125-0.79-0.096-0.241-0.231-0.462-0.424-0.665-0.192-0.192-0.433-0.356-0.722-0.471-0.289-0.116-0.578-0.174-0.847-0.164-0.28 9e-3 -0.53 0.067-0.761 0.183-0.231 0.115-0.443 0.279-0.626 0.481-0.183 0.203-0.337 0.453-0.453 0.732-0.115 0.279-0.173 0.559-0.183 0.838-9e-3 0.279 0.029 0.539 0.116 0.78s0.231 0.462 0.414 0.664c0.193 0.203 0.433 0.357 0.722 0.472 0.289 0.116 0.578 0.174 0.848 0.164 0.279-0.01 0.529-0.067 0.77-0.183 0.241-0.115 0.443-0.27 0.636-0.481 0.192-0.193 0.346-0.443 0.452-0.723z"/>
  <path d="m209.86 141.74-0.665-0.375 0.453-0.78-0.019-0.01c-0.202 0.096-0.405 0.164-0.617 0.193-0.211 0.028-0.423 0.038-0.626 0.019-0.202-0.019-0.394-0.058-0.587-0.125-0.193-0.068-0.366-0.145-0.52-0.232-0.366-0.211-0.664-0.462-0.896-0.76-0.231-0.299-0.394-0.617-0.491-0.963-0.096-0.347-0.115-0.703-0.067-1.079 0.048-0.375 0.173-0.732 0.375-1.088 0.203-0.356 0.453-0.645 0.752-0.876 0.298-0.231 0.616-0.395 0.963-0.482 0.346-0.096 0.712-0.115 1.078-0.067s0.742 0.183 1.117 0.395c0.154 0.086 0.308 0.202 0.453 0.327 0.154 0.135 0.289 0.279 0.404 0.443 0.116 0.164 0.222 0.347 0.299 0.549s0.125 0.404 0.144 0.626l0.02 9e-3 2.109-3.669 0.664 0.376-4.343 7.569zm-2.937-4.805c-0.154 0.26-0.251 0.529-0.299 0.799-0.048 0.279-0.038 0.539 0.019 0.799 0.058 0.251 0.164 0.492 0.328 0.713s0.375 0.414 0.655 0.568c0.269 0.154 0.539 0.251 0.828 0.279 0.289 0.039 0.558 0.02 0.828-0.057 0.26-0.068 0.51-0.193 0.732-0.366 0.221-0.174 0.414-0.395 0.558-0.655 0.145-0.26 0.241-0.53 0.28-0.809 0.038-0.279 0.019-0.549-0.048-0.819-0.068-0.26-0.193-0.51-0.366-0.741-0.174-0.231-0.395-0.424-0.665-0.578-0.269-0.154-0.549-0.25-0.818-0.279-0.27-0.029-0.53 0-0.78 0.077-0.251 0.077-0.482 0.212-0.694 0.385-0.221 0.202-0.404 0.424-0.558 0.684z"/>
  <path d="m212.97 140.89c-0.144 0.231-0.25 0.472-0.308 0.722-0.058 0.251-0.077 0.501-0.038 0.751 0.038 0.251 0.115 0.482 0.24 0.694 0.126 0.221 0.289 0.414 0.501 0.577 0.328 0.251 0.665 0.386 1.011 0.415 0.347 0.028 0.665-0.01 0.934-0.106l0.174 0.741c-0.511 0.125-0.963 0.145-1.387 0.048-0.424-0.096-0.799-0.279-1.156-0.549-0.317-0.24-0.568-0.529-0.751-0.847s-0.298-0.655-0.337-1.011c-0.038-0.357-9e-3 -0.713 0.087-1.069 0.096-0.366 0.27-0.703 0.52-1.031 0.25-0.327 0.53-0.577 0.857-0.77 0.318-0.193 0.655-0.318 1.002-0.366 0.346-0.048 0.703-0.038 1.049 0.058 0.347 0.087 0.674 0.25 0.982 0.481 0.328 0.251 0.569 0.53 0.742 0.838 0.164 0.318 0.27 0.636 0.289 0.963 0.029 0.328-0.01 0.655-0.116 0.982-0.106 0.328-0.269 0.646-0.5 0.935l-0.212 0.279-3.583-2.735zm3.294 1.733c0.318-0.414 0.443-0.837 0.395-1.28-0.049-0.443-0.299-0.829-0.732-1.166-0.193-0.154-0.414-0.26-0.655-0.317-0.241-0.068-0.482-0.087-0.722-0.058-0.241 0.019-0.463 0.086-0.665 0.183-0.212 0.106-0.385 0.24-0.52 0.423l2.899 2.215z"/>
  <path d="m218.49 143.78c0.164-0.173 0.328-0.356 0.482-0.539 0.163-0.193 0.375-0.424 0.635-0.723l0.549 0.511-0.683 0.732 0.019 0.019c0.144-0.068 0.289-0.116 0.462-0.154 0.164-0.029 0.337-0.039 0.51-0.019 0.174 0.019 0.357 0.067 0.54 0.154 0.183 0.086 0.366 0.202 0.539 0.366 0.154 0.144 0.279 0.298 0.366 0.443l-0.626 0.443c-0.048-0.097-0.144-0.212-0.279-0.347-0.212-0.202-0.434-0.328-0.665-0.395-0.231-0.058-0.452-0.077-0.674-0.048-0.221 0.029-0.424 0.096-0.607 0.202s-0.337 0.222-0.462 0.356l-2.09 2.225-0.558-0.52 2.542-2.706z"/>
 </g>
 <path d="m183.16 182.93h149.63c0-59.099-34.264-110.2-84.012-134.51l-65.619 134.51z" fill="url(#paint1_linear_821_2648)"/>
 <path d="m193.69 160.23 54.458-111.96" stroke="#721ffa" stroke-miterlimit="10" stroke-width=".963"/>
 <path d="m221.92 148.26c8.233 9.196 13.241 21.349 13.241 34.668 0 28.716-23.285 52.002-52.002 52.002s-52.002-23.286-52.002-52.002c0-13.319 5.008-25.472 13.241-34.668" stroke="white" stroke-dasharray="0.96 0.96" stroke-miterlimit="10" stroke-width=".72225"/>
 <g clip-rule="evenodd" fill="#721FFA" fill-rule="evenodd">
  <path d="m303.16 133.89c-3.486-1.425-7.454 0.279-8.831 3.775l2.128 0.838c0.963 0.375 0.732 1.8-0.298 1.858l-2.282 0.116c0.134 2.561 1.723 4.93 4.266 5.922 3.495 1.377 7.444-0.375 8.773-3.9 1.261-3.342-0.443-7.251-3.756-8.609z"/>
  <path d="m262.08 116.7c1.734-4.237-0.337-9.052-4.583-10.718l-1.012 2.581c-0.462 1.175-2.186 0.886-2.253-0.366l-0.144-2.764c-3.111 0.164-5.981 2.09-7.194 5.171-1.666 4.247 0.452 9.033 4.738 10.651 4.064 1.541 8.811-0.529 10.448-4.555z"/>
  <path d="m257.32 162.34c-2.928 0.452-4.902 3.206-4.411 6.115l1.772-0.299c0.799-0.135 1.223 0.915 0.549 1.377l-1.483 1.002c1.127 1.666 3.158 2.619 5.267 2.263 2.909-0.491 4.864-3.265 4.324-6.183-0.51-2.764-3.235-4.709-6.018-4.275z"/>
  <path d="m310.83 198.82c2.937-0.395 4.969-3.11 4.535-6.028l-1.781 0.26c-0.809 0.115-1.204-0.944-0.52-1.387l1.502-0.973c-1.088-1.695-3.101-2.686-5.219-2.369-2.918 0.434-4.921 3.169-4.449 6.086 0.452 2.793 3.148 4.787 5.932 4.411z"/>
  <path d="m268.54 224.05c2.022-1.339 2.552-4.064 1.194-6.058l-1.213 0.828c-0.549 0.376-1.223-0.26-0.876-0.837l0.76-1.252c-1.406-0.857-3.245-0.867-4.689 0.115-1.994 1.358-2.495 4.093-1.108 6.077 1.319 1.887 4.016 2.398 5.932 1.127z"/>
  <path d="m267.74 257.52c1.348-0.896 1.704-2.706 0.79-4.035l-0.809 0.549c-0.366 0.25-0.819-0.174-0.588-0.559l0.511-0.838c-0.935-0.568-2.158-0.577-3.13 0.077-1.329 0.906-1.666 2.726-0.732 4.045 0.886 1.262 2.677 1.608 3.958 0.761z"/>
  <path d="m233.32 263.18c-0.328-1.02-1.435-1.579-2.446-1.232l0.211 0.616c0.097 0.279-0.26 0.491-0.462 0.279l-0.443-0.481c-0.539 0.501-0.761 1.281-0.51 2.022 0.346 1.021 1.454 1.56 2.465 1.204 0.953-0.337 1.502-1.435 1.185-2.408z"/>
 </g>
 <g fill="white">
  <path d="m296.78 170.39c3.457 0 6.26-2.802 6.26-6.259s-2.803-6.26-6.26-6.26-6.259 2.803-6.259 6.26 2.802 6.259 6.259 6.259z"/>
  <path d="m296.78 158.36c3.188 0 5.778 2.59 5.778 5.778 0 3.187-2.59 5.778-5.778 5.778-3.187 0-5.778-2.591-5.778-5.778 0-3.197 2.581-5.778 5.778-5.778zm0-0.963c-3.717 0-6.741 3.023-6.741 6.741 0 3.717 3.024 6.741 6.741 6.741s6.741-3.024 6.741-6.741c0-3.718-3.033-6.741-6.741-6.741z"/>
  <path d="m249.58 146.85c3.988 0 7.222-3.234 7.222-7.223 0-3.988-3.234-7.222-7.222-7.222-3.989 0-7.223 3.234-7.223 7.222 0 3.989 3.234 7.223 7.223 7.223z"/>
  <path d="m249.59 132.88c3.727 0 6.741 3.015 6.741 6.741 0 3.727-3.014 6.741-6.741 6.741s-6.741-3.014-6.741-6.741c0-3.726 3.014-6.741 6.741-6.741zm0-0.963c-4.247 0-7.704 3.458-7.704 7.704 0 4.247 3.457 7.704 7.704 7.704s7.704-3.457 7.704-7.704c0-4.246-3.457-7.704-7.704-7.704z"/>
  <path d="m292.16 116.16c3.989 0 7.222-3.233 7.222-7.222s-3.233-7.223-7.222-7.223-7.223 3.234-7.223 7.223 3.234 7.222 7.223 7.222z"/>
  <path d="m292.16 102.2c3.727 0 6.741 3.014 6.741 6.741 0 3.726-3.014 6.741-6.741 6.741s-6.741-3.015-6.741-6.741c0-3.727 3.014-6.741 6.741-6.741zm0-0.963c-4.247 0-7.704 3.457-7.704 7.704 0 4.246 3.457 7.704 7.704 7.704s7.704-3.458 7.704-7.704c0-4.247-3.457-7.704-7.704-7.704z"/>
  <path d="m273.86 197.45c2.925 0 5.296-2.371 5.296-5.296s-2.371-5.297-5.296-5.297-5.297 2.372-5.297 5.297 2.372 5.296 5.297 5.296z"/>
  <path d="m273.86 187.34c2.658 0 4.815 2.157 4.815 4.815s-2.157 4.815-4.815 4.815-4.815-2.157-4.815-4.815 2.157-4.815 4.815-4.815zm0-0.963c-3.188 0-5.778 2.59-5.778 5.778s2.59 5.778 5.778 5.778c3.187 0 5.778-2.59 5.778-5.778s-2.591-5.778-5.778-5.778z"/>
  <path d="m298.21 222.42c2.659 0 4.815-2.155 4.815-4.815 0-2.659-2.156-4.815-4.815-4.815s-4.815 2.156-4.815 4.815c0 2.66 2.156 4.815 4.815 4.815z"/>
  <path d="m298.22 213.27c2.398 0 4.333 1.936 4.333 4.333 0 2.398-1.935 4.334-4.333 4.334s-4.334-1.936-4.334-4.334c0-2.397 1.936-4.333 4.334-4.333zm0-0.963c-2.918 0-5.297 2.379-5.297 5.296 0 2.918 2.379 5.297 5.297 5.297s5.296-2.379 5.296-5.297c0-2.917-2.378-5.296-5.296-5.296z"/>
  <path d="m246.21 238.79c2.127 0 3.852-1.724 3.852-3.852 0-2.127-1.725-3.852-3.852-3.852s-3.852 1.725-3.852 3.852c0 2.128 1.725 3.852 3.852 3.852z"/>
  <path d="m246.22 231.56c1.858 0 3.37 1.512 3.37 3.37 0 1.859-1.512 3.371-3.37 3.371-1.859 0-3.371-1.512-3.371-3.371 0-1.858 1.502-3.37 3.371-3.37zm0-0.963c-2.389 0-4.334 1.945-4.334 4.333 0 2.389 1.945 4.334 4.334 4.334 2.388 0 4.333-1.945 4.333-4.334 0-2.388-1.945-4.333-4.333-4.333z"/>
  <path d="m252.11 280.3c1.595 0 2.889-1.293 2.889-2.889 0-1.595-1.294-2.889-2.889-2.889-1.596 0-2.889 1.294-2.889 2.889 0 1.596 1.293 2.889 2.889 2.889z"/>
  <path d="m252.11 275c1.329 0 2.407 1.078 2.407 2.407s-1.078 2.408-2.407 2.408-2.408-1.079-2.408-2.408 1.079-2.407 2.408-2.407zm0-0.963c-1.859 0-3.371 1.512-3.371 3.37 0 1.859 1.512 3.371 3.371 3.371 1.858 0 3.37-1.512 3.37-3.371 0-1.858-1.512-3.37-3.37-3.37z"/>
  <path d="m208.77 262c1.063 0 1.926-0.862 1.926-1.926 0-1.063-0.863-1.926-1.926-1.926-1.064 0-1.926 0.863-1.926 1.926 0 1.064 0.862 1.926 1.926 1.926z"/>
  <path d="m208.77 258.63c0.799 0 1.444 0.645 1.444 1.444 0 0.8-0.645 1.445-1.444 1.445-0.8 0-1.445-0.645-1.445-1.445 0-0.799 0.645-1.444 1.445-1.444zm0-0.963c-1.329 0-2.408 1.078-2.408 2.407s1.079 2.408 2.408 2.408 2.407-1.079 2.407-2.408-1.078-2.407-2.407-2.407z"/>
  <path d="m252.11 90.311c5.052 0 9.148-4.096 9.148-9.1485 0-5.0526-4.096-9.1485-9.148-9.1485-5.053 0-9.149 4.0959-9.149 9.1485 0 5.0525 4.096 9.1485 9.149 9.1485z"/>
  <path d="m252.11 72.496c4.786 0 8.667 3.8809 8.667 8.667s-3.881 8.667-8.667 8.667-8.667-3.8809-8.667-8.667 3.881-8.667 8.667-8.667zm0-0.963c-5.306 0-9.63 4.3239-9.63 9.63s4.324 9.63 9.63 9.63 9.63-4.3239 9.63-9.63-4.324-9.63-9.63-9.63z"/>
  <path d="m203.26 292.83c0.798 0 1.445-0.647 1.445-1.444 0-0.798-0.647-1.445-1.445-1.445-0.797 0-1.444 0.647-1.444 1.445 0 0.797 0.647 1.444 1.444 1.444z"/>
  <path d="m203.26 290.42c0.53 0 0.963 0.434 0.963 0.963 0 0.53-0.433 0.963-0.963 0.963-0.529 0-0.963-0.433-0.963-0.963 0-0.529 0.434-0.963 0.963-0.963zm0-0.963c-1.059 0-1.926 0.867-1.926 1.926 0 1.06 0.867 1.926 1.926 1.926 1.06 0 1.926-0.866 1.926-1.926 0-1.059-0.866-1.926-1.926-1.926z"/>
  <path d="m171.88 278.85c0.532 0 0.963-0.431 0.963-0.963s-0.431-0.963-0.963-0.963-0.963 0.431-0.963 0.963 0.431 0.963 0.963 0.963z"/>
  <path d="m171.88 277.4c0.27 0 0.482 0.212 0.482 0.481 0 0.27-0.212 0.482-0.482 0.482-0.269 0-0.481-0.212-0.481-0.482 0-0.269 0.221-0.481 0.481-0.481zm0-0.963c-0.799 0-1.444 0.645-1.444 1.444 0 0.8 0.645 1.445 1.444 1.445 0.8 0 1.445-0.645 1.445-1.445 0-0.799-0.645-1.444-1.445-1.444z"/>
 </g>
 <path d="m183.2 345.9c89.967 0 162.9-72.933 162.9-162.9 0-89.967-72.933-162.9-162.9-162.9-89.967 0-162.9 72.933-162.9 162.9 0 89.967 72.933 162.9 162.9 162.9z" stroke="#DC244C" stroke-miterlimit="10" stroke-opacity=".4" stroke-width=".9"/>
 <path d="m183 365c100.52 0 182-81.484 182-182 0-100.52-81.484-182-182-182-100.52 0-182 81.484-182 182 0 100.52 81.484 182 182 182z" stroke="#C9D2EF" stroke-dasharray="3 5" stroke-linecap="round" stroke-miterlimit="10" stroke-width=".9"/>
 <defs>
  <linearGradient id="paint0_linear_821_2648" x1="183.41" x2="175.07" y1="195.05" y2="195.43" gradientUnits="userSpaceOnUse">
   <stop stop-color="#FF3364" offset="0"/>
   <stop stop-color="#C91540" stop-opacity="0" offset="1"/>
  </linearGradient>
  <linearGradient id="paint1_linear_821_2648" x1="222.35" x2="257.9" y1="70.5" y2="153.75" gradientUnits="userSpaceOnUse">
   <stop stop-color="white" offset=".041667"/>
   <stop stop-color="white" stop-opacity="0" offset="1"/>
  </linearGradient>
 </defs>
</svg>
