<svg width="366" height="366" viewBox="0 0 366 366" fill="none" xmlns="http://www.w3.org/2000/svg">
<path d="M183.155 332.563C265.794 332.563 332.786 265.571 332.786 182.932C332.786 100.294 265.794 33.3015 183.155 33.3015C100.516 33.3015 33.5239 100.294 33.5239 182.932C33.5239 265.571 100.516 332.563 183.155 332.563Z" fill="#D9E2FF" stroke="white" stroke-width="0.963" stroke-miterlimit="10"/>
<mask id="mask0_821_2648" style="mask-type:alpha" maskUnits="userSpaceOnUse" x="33" y="32" width="301" height="302">
<path d="M183.155 332.563C265.794 332.563 332.786 265.571 332.786 182.932C332.786 100.294 265.794 33.3015 183.155 33.3015C100.516 33.3015 33.5239 100.294 33.5239 182.932C33.5239 265.571 100.516 332.563 183.155 332.563Z" fill="#D9E2FF" stroke="white" stroke-width="0.963" stroke-miterlimit="10"/>
</mask>
<g mask="url(#mask0_821_2648)">
<g opacity="0.2">
<path opacity="0.2" d="M183.155 33.3015V332.563" stroke="black" stroke-width="0.9" stroke-miterlimit="10"/>
<path opacity="0.2" d="M200.489 33.3015V332.563" stroke="black" stroke-width="0.9" stroke-miterlimit="10"/>
<path opacity="0.2" d="M217.823 33.3015V332.563" stroke="black" stroke-width="0.9" stroke-miterlimit="10"/>
<path opacity="0.2" d="M235.157 33.3015V332.563" stroke="black" stroke-width="0.9" stroke-miterlimit="10"/>
<path opacity="0.2" d="M252.491 33.3015V332.563" stroke="black" stroke-width="0.9" stroke-miterlimit="10"/>
<path opacity="0.2" d="M269.825 33.3015V332.563" stroke="black" stroke-width="0.9" stroke-miterlimit="10"/>
<path opacity="0.2" d="M287.159 33.3015V332.563" stroke="black" stroke-width="0.9" stroke-miterlimit="10"/>
<path opacity="0.2" d="M304.493 33.3015V332.563" stroke="black" stroke-width="0.9" stroke-miterlimit="10"/>
<path opacity="0.2" d="M321.827 33.3015V332.563" stroke="black" stroke-width="0.9" stroke-miterlimit="10"/>
<path opacity="0.2" d="M44.4828 33.3015V332.563" stroke="black" stroke-width="0.9" stroke-miterlimit="10"/>
<path opacity="0.2" d="M61.8169 33.3015V332.563" stroke="black" stroke-width="0.9" stroke-miterlimit="10"/>
<path opacity="0.2" d="M79.1509 33.3015V332.563" stroke="black" stroke-width="0.9" stroke-miterlimit="10"/>
<path opacity="0.2" d="M96.4849 33.3015V332.563" stroke="black" stroke-width="0.9" stroke-miterlimit="10"/>
<path opacity="0.2" d="M113.819 33.3015V332.563" stroke="black" stroke-width="0.9" stroke-miterlimit="10"/>
<path opacity="0.2" d="M131.153 33.3015V332.563" stroke="black" stroke-width="0.9" stroke-miterlimit="10"/>
<path opacity="0.2" d="M148.487 33.3015V332.563" stroke="black" stroke-width="0.9" stroke-miterlimit="10"/>
<path opacity="0.2" d="M165.821 33.3015V332.563" stroke="black" stroke-width="0.9" stroke-miterlimit="10"/>
<path opacity="0.2" d="M33.5239 182.932H332.786" stroke="black" stroke-width="0.9" stroke-miterlimit="10"/>
<path opacity="0.2" d="M33.5239 165.599H332.786" stroke="black" stroke-width="0.9" stroke-miterlimit="10"/>
<path opacity="0.2" d="M33.5239 148.265H332.786" stroke="black" stroke-width="0.9" stroke-miterlimit="10"/>
<path opacity="0.2" d="M33.5239 130.931H332.786" stroke="black" stroke-width="0.9" stroke-miterlimit="10"/>
<path opacity="0.2" d="M33.5239 113.597H332.786" stroke="black" stroke-width="0.9" stroke-miterlimit="10"/>
<path opacity="0.2" d="M33.5239 96.2625H332.786" stroke="black" stroke-width="0.9" stroke-miterlimit="10"/>
<path opacity="0.2" d="M33.5239 78.9285H332.786" stroke="black" stroke-width="0.9" stroke-miterlimit="10"/>
<path opacity="0.2" d="M33.5239 61.5945H332.786" stroke="black" stroke-width="0.9" stroke-miterlimit="10"/>
<path opacity="0.2" d="M33.5239 44.2605H332.786" stroke="black" stroke-width="0.9" stroke-miterlimit="10"/>
<path opacity="0.2" d="M33.5239 321.604H332.786" stroke="black" stroke-width="0.9" stroke-miterlimit="10"/>
<path opacity="0.2" d="M33.5239 304.271H332.786" stroke="black" stroke-width="0.9" stroke-miterlimit="10"/>
<path opacity="0.2" d="M33.5239 286.937H332.786" stroke="black" stroke-width="0.9" stroke-miterlimit="10"/>
<path opacity="0.2" d="M33.5239 269.603H332.786" stroke="black" stroke-width="0.9" stroke-miterlimit="10"/>
<path opacity="0.2" d="M33.5239 252.268H332.786" stroke="black" stroke-width="0.9" stroke-miterlimit="10"/>
<path opacity="0.2" d="M33.5239 234.934H332.786" stroke="black" stroke-width="0.9" stroke-miterlimit="10"/>
<path opacity="0.2" d="M33.5239 217.601H332.786" stroke="black" stroke-width="0.9" stroke-miterlimit="10"/>
<path opacity="0.2" d="M33.5239 200.267H332.786" stroke="black" stroke-width="0.9" stroke-miterlimit="10"/>
</g>
</g>
<path d="M183.155 245.489C217.704 245.489 245.711 217.481 245.711 182.932C245.711 148.383 217.704 120.376 183.155 120.376C148.606 120.376 120.599 148.383 120.599 182.932C120.599 217.481 148.606 245.489 183.155 245.489Z" fill="#DC244C" stroke="#B2BFE8" stroke-width="0.963" stroke-miterlimit="10"/>
<path d="M183.155 225.95C206.913 225.95 226.172 206.69 226.172 182.932C226.172 159.175 206.913 139.915 183.155 139.915C159.397 139.915 140.138 159.175 140.138 182.932C140.138 206.69 159.397 225.95 183.155 225.95Z" fill="white"/>
<path d="M183.2 337.8C268.694 337.8 338 268.494 338 183C338 97.5063 268.694 28.2 183.2 28.2C97.7062 28.2 28.3999 97.5063 28.3999 183C28.3999 268.494 97.7062 337.8 183.2 337.8Z" stroke="#D9E2FF" stroke-width="1.8" stroke-miterlimit="10"/>
<path opacity="0.5" d="M229.052 182.672H331.004" stroke="white" stroke-width="0.963" stroke-miterlimit="10"/>
<path opacity="0.5" d="M35.3055 182.672H137.258" stroke="white" stroke-width="0.963" stroke-miterlimit="10"/>
<path opacity="0.5" d="M183.155 286.936C240.595 286.936 287.159 240.372 287.159 182.932C287.159 125.493 240.595 78.9285 183.155 78.9285C125.715 78.9285 79.1509 125.493 79.1509 182.932C79.1509 240.372 125.715 286.936 183.155 286.936Z" stroke="white" stroke-width="0.963" stroke-miterlimit="10"/>
<path opacity="0.5" d="M183.155 123.002V34.823" stroke="white" stroke-width="0.963" stroke-miterlimit="10"/>
<path opacity="0.5" d="M183.155 330.512V228.569" stroke="white" stroke-width="0.963" stroke-miterlimit="10"/>
<path fill-rule="evenodd" clip-rule="evenodd" d="M183.124 182.936L175.075 178.293L183.124 173.64L191.173 178.293L183.124 182.936Z" fill="#B2BFE8"/>
<path fill-rule="evenodd" clip-rule="evenodd" d="M175.075 178.293L183.124 182.936V192.231L175.075 187.578V178.293Z" fill="white"/>
<path fill-rule="evenodd" clip-rule="evenodd" d="M183.124 182.936L191.173 178.293V187.589L183.124 192.242V182.936Z" fill="#7D8CB5"/>
<path fill-rule="evenodd" clip-rule="evenodd" d="M183.425 154.2L170.994 161.375L158.568 168.549V197.253L170.994 204.428L183.425 211.608L191.376 207.019L199.829 211.608L208.282 206.728V168.549L195.851 161.375L183.425 154.2Z" fill="#201D1D"/>
<path fill-rule="evenodd" clip-rule="evenodd" d="M199.829 192.379V173.435L208.282 168.555V206.728L199.829 211.608V192.379Z" fill="#24386C"/>
<path fill-rule="evenodd" clip-rule="evenodd" d="M208.282 168.549L199.829 173.429L191.627 168.692L183.425 163.954L175.223 168.692L167.021 173.429L158.568 168.549L170.994 161.375L183.425 154.2L195.851 161.375L208.282 168.549Z" fill="#778ABF"/>
<path fill-rule="evenodd" clip-rule="evenodd" d="M158.568 168.549L167.021 173.429V192.373L175.223 197.11L183.425 201.848V211.608L170.994 204.433L158.568 197.259V168.549Z" fill="#B2BFE8"/>
<path fill-rule="evenodd" clip-rule="evenodd" d="M191.376 197.253L183.425 201.848V211.608L191.376 207.019V197.253Z" fill="#24386C"/>
<path fill-rule="evenodd" clip-rule="evenodd" d="M183.425 182.904L175.474 178.315L183.425 173.726L191.376 178.315L183.425 182.904Z" fill="#778ABF"/>
<path fill-rule="evenodd" clip-rule="evenodd" d="M175.474 178.315L183.425 182.904V192.088L175.474 187.499V178.315Z" fill="#B2BFE8"/>
<path fill-rule="evenodd" clip-rule="evenodd" d="M183.425 182.904L191.376 178.315V187.493L183.425 192.088V182.904Z" fill="#24386C"/>
<path fill-rule="evenodd" clip-rule="evenodd" d="M191.376 207.019L199.829 211.608V173.435L191.627 168.698L183.425 163.96L175.223 168.698L167.021 173.435V192.379L175.223 197.116L183.425 201.854L191.376 197.259V207.019ZM191.376 187.493L183.425 192.088L175.474 187.499V178.321L183.425 173.732L191.376 178.321V187.493Z" fill="#C91540"/>
<path d="M183.296 201.591V192.076L175.333 187.498L175.139 196.863L183.296 201.591Z" fill="url(#paint0_linear_821_2648)"/>
<path d="M152.532 142.997L152.551 142.978L148.054 137.7L148.689 137.161L153.986 143.392L153.196 144.066L144.943 141.889L144.924 141.899L149.46 147.234L148.824 147.773L143.518 141.543L144.307 140.869L152.532 142.997Z" fill="white"/>
<path d="M154.506 140.079C154.669 140.3 154.852 140.474 155.074 140.628C155.295 140.772 155.517 140.878 155.767 140.926C156.008 140.984 156.258 140.994 156.499 140.955C156.749 140.917 156.99 140.83 157.221 140.686C157.568 140.474 157.818 140.204 157.972 139.886C158.126 139.569 158.203 139.27 158.203 138.972L158.964 139.077C158.906 139.597 158.752 140.031 158.521 140.387C158.28 140.743 157.972 141.042 157.597 141.273C157.26 141.485 156.903 141.62 156.537 141.678C156.172 141.735 155.815 141.726 155.469 141.639C155.122 141.552 154.804 141.398 154.496 141.177C154.188 140.955 153.937 140.676 153.716 140.329C153.504 139.983 153.36 139.626 153.292 139.26C153.225 138.894 153.234 138.538 153.311 138.191C153.388 137.845 153.533 137.527 153.735 137.228C153.937 136.93 154.207 136.68 154.534 136.477C154.881 136.265 155.228 136.131 155.584 136.083C155.94 136.034 156.268 136.063 156.586 136.15C156.903 136.237 157.192 136.391 157.462 136.612C157.732 136.834 157.963 137.094 158.155 137.411L158.338 137.71L154.506 140.079ZM157.308 137.614C157.038 137.171 156.682 136.901 156.258 136.795C155.825 136.689 155.372 136.776 154.9 137.065C154.689 137.19 154.515 137.363 154.371 137.566C154.226 137.768 154.12 137.989 154.063 138.211C154.005 138.432 153.976 138.673 154.005 138.904C154.024 139.135 154.091 139.347 154.217 139.54L157.308 137.614Z" fill="white"/>
<path d="M164.242 137.681C164.164 137.556 164.097 137.431 164.039 137.296C163.982 137.171 163.914 137.036 163.856 136.901L163.837 136.911C163.818 137.075 163.779 137.248 163.712 137.412C163.644 137.575 163.558 137.739 163.442 137.883C163.327 138.028 163.202 138.163 163.057 138.288C162.913 138.403 162.759 138.509 162.595 138.577C161.959 138.866 161.42 138.914 160.967 138.712C160.515 138.509 160.149 138.115 159.87 137.489L158.444 134.369L159.138 134.051L160.38 136.776C160.505 137.046 160.64 137.277 160.775 137.469C160.91 137.662 161.064 137.806 161.227 137.903C161.391 137.999 161.584 138.047 161.786 138.038C161.988 138.028 162.229 137.97 162.479 137.855C162.518 137.835 162.604 137.778 162.759 137.681C162.913 137.585 163.038 137.421 163.163 137.219C163.288 137.017 163.356 136.747 163.384 136.429C163.413 136.112 163.317 135.726 163.115 135.283L161.959 132.76L162.653 132.443L164.405 136.285C164.463 136.42 164.55 136.583 164.646 136.786C164.742 136.988 164.848 137.171 164.945 137.344L164.242 137.681Z" fill="white"/>
<path d="M165.291 133.3C165.214 133.068 165.127 132.847 165.041 132.616C164.954 132.385 164.839 132.086 164.704 131.72L165.416 131.479L165.734 132.433L165.753 132.423C165.753 132.269 165.782 132.105 165.84 131.951C165.888 131.788 165.965 131.634 166.071 131.489C166.177 131.345 166.302 131.21 166.456 131.085C166.61 130.959 166.803 130.863 167.034 130.786C167.236 130.719 167.429 130.68 167.593 130.671L167.689 131.431C167.583 131.431 167.439 131.46 167.256 131.518C166.976 131.614 166.755 131.749 166.601 131.922C166.437 132.096 166.322 132.288 166.245 132.491C166.168 132.702 166.129 132.905 166.139 133.117C166.139 133.328 166.167 133.521 166.235 133.694L167.217 136.583L166.495 136.824L165.291 133.3Z" fill="white"/>
<path d="M172.485 131.682L172.456 131.547C172.244 130.642 171.686 130.295 170.79 130.497C170.174 130.642 169.682 130.969 169.326 131.489L168.748 131.065C169.124 130.439 169.808 130.016 170.8 129.785C171.05 129.727 171.31 129.708 171.56 129.727C171.811 129.746 172.042 129.813 172.254 129.929C172.466 130.045 172.649 130.208 172.803 130.411C172.966 130.622 173.082 130.882 173.159 131.21L173.708 133.56C173.756 133.762 173.814 133.974 173.881 134.186C173.949 134.397 174.016 134.58 174.074 134.715L173.352 134.879C173.303 134.754 173.246 134.619 173.207 134.474C173.169 134.33 173.12 134.186 173.091 134.041H173.072C172.937 134.446 172.735 134.754 172.475 134.985C172.215 135.216 171.868 135.37 171.445 135.466C171.214 135.524 170.983 135.543 170.751 135.524C170.52 135.505 170.299 135.457 170.106 135.37C169.904 135.274 169.731 135.149 169.586 134.975C169.442 134.811 169.336 134.6 169.278 134.34C169.182 133.916 169.211 133.55 169.374 133.251C169.538 132.953 169.779 132.712 170.077 132.51C170.385 132.308 170.723 132.154 171.098 132.038C171.474 131.922 171.811 131.826 172.128 131.749L172.485 131.682ZM172.244 132.375C172.061 132.423 171.82 132.481 171.551 132.568C171.271 132.654 171.011 132.76 170.771 132.895C170.53 133.03 170.337 133.194 170.183 133.386C170.039 133.579 169.991 133.81 170.048 134.07C170.087 134.243 170.154 134.388 170.26 134.494C170.357 134.6 170.482 134.677 170.617 134.734C170.751 134.792 170.905 134.811 171.06 134.811C171.214 134.811 171.368 134.792 171.512 134.754C171.782 134.686 172.003 134.59 172.186 134.455C172.369 134.32 172.504 134.157 172.6 133.974C172.697 133.791 172.754 133.588 172.774 133.367C172.793 133.145 172.774 132.914 172.716 132.683L172.629 132.298L172.244 132.375Z" fill="white"/>
<path d="M176.51 134.369L175.759 134.474L174.517 125.827L175.268 125.721L176.51 134.369Z" fill="white"/>
<path d="M182.355 133.136L186.737 133.203L186.727 133.964L181.518 133.877L181.652 125.692L186.727 125.778L186.718 126.539L182.481 126.472L182.432 129.255L186.4 129.322L186.39 130.083L182.423 130.016L182.355 133.136Z" fill="white"/>
<path d="M189.337 128.841C189.328 128.985 189.318 129.13 189.308 129.274C189.289 129.419 189.27 129.563 189.251 129.708H189.27C189.376 129.573 189.501 129.457 189.645 129.351C189.79 129.245 189.954 129.159 190.127 129.101C190.3 129.034 190.483 128.995 190.666 128.966C190.849 128.937 191.032 128.947 191.206 128.966C191.889 129.062 192.371 129.322 192.65 129.727C192.929 130.131 193.016 130.68 192.92 131.345L192.429 134.744L191.677 134.638L192.101 131.672C192.188 131.075 192.149 130.603 191.986 130.257C191.822 129.91 191.466 129.698 190.907 129.621C190.868 129.611 190.763 129.611 190.58 129.621C190.397 129.621 190.204 129.679 189.992 129.794C189.78 129.91 189.578 130.083 189.385 130.334C189.193 130.584 189.058 130.96 188.991 131.441L188.596 134.186L187.845 134.08L188.442 129.91C188.461 129.765 188.48 129.582 188.5 129.361C188.519 129.139 188.538 128.928 188.548 128.725L189.337 128.841Z" fill="white"/>
<path d="M198.833 132.096C198.756 131.865 198.621 131.653 198.428 131.46C198.235 131.268 197.995 131.133 197.706 131.056C197.398 130.969 197.118 130.94 196.849 130.979C196.579 131.017 196.329 131.104 196.117 131.248C195.905 131.393 195.703 131.576 195.549 131.807C195.395 132.038 195.269 132.308 195.192 132.606C195.115 132.905 195.086 133.194 195.106 133.473C195.125 133.752 195.202 134.012 195.318 134.243C195.443 134.474 195.606 134.677 195.818 134.84C196.03 135.004 196.29 135.129 196.598 135.206C196.887 135.283 197.167 135.283 197.427 135.216C197.687 135.139 197.908 135.023 198.091 134.869L198.573 135.486C198.226 135.717 197.879 135.871 197.513 135.928C197.147 135.986 196.781 135.967 196.425 135.88C196.001 135.774 195.635 135.611 195.327 135.38C195.019 135.148 194.778 134.879 194.605 134.571C194.432 134.262 194.326 133.916 194.287 133.55C194.249 133.174 194.287 132.789 194.393 132.394C194.499 131.999 194.663 131.653 194.875 131.345C195.086 131.036 195.356 130.796 195.664 130.613C195.972 130.43 196.319 130.314 196.695 130.276C197.07 130.228 197.475 130.266 197.898 130.391C198.255 130.497 198.573 130.661 198.861 130.892C199.15 131.123 199.381 131.431 199.564 131.807L198.833 132.096Z" fill="white"/>
<path d="M205.179 136.044C205.025 136.42 204.822 136.747 204.553 137.017C204.293 137.286 203.994 137.489 203.667 137.633C203.339 137.778 202.983 137.845 202.598 137.845C202.222 137.845 201.837 137.768 201.442 137.604C201.057 137.45 200.73 137.238 200.46 136.978C200.19 136.718 199.978 136.42 199.844 136.083C199.699 135.755 199.632 135.399 199.632 135.023C199.632 134.648 199.709 134.272 199.853 133.897C200.007 133.521 200.21 133.194 200.479 132.924C200.749 132.654 201.038 132.452 201.365 132.308C201.693 132.163 202.049 132.096 202.424 132.096C202.8 132.096 203.185 132.173 203.57 132.327C203.965 132.491 204.293 132.693 204.572 132.963C204.842 133.223 205.053 133.521 205.188 133.858C205.333 134.186 205.4 134.542 205.4 134.917C205.41 135.283 205.333 135.669 205.179 136.044ZM204.408 135.726C204.524 135.447 204.582 135.168 204.591 134.889C204.601 134.609 204.562 134.349 204.466 134.099C204.37 133.858 204.235 133.637 204.042 133.434C203.85 133.242 203.609 133.078 203.32 132.963C203.031 132.847 202.742 132.789 202.473 132.799C202.193 132.808 201.943 132.866 201.712 132.982C201.481 133.097 201.269 133.261 201.086 133.463C200.903 133.666 200.749 133.916 200.633 134.195C200.518 134.474 200.46 134.754 200.45 135.033C200.441 135.312 200.479 135.572 200.566 135.813C200.653 136.054 200.797 136.275 200.98 136.477C201.173 136.68 201.413 136.834 201.702 136.949C201.991 137.065 202.28 137.123 202.55 137.113C202.829 137.103 203.079 137.046 203.32 136.93C203.561 136.815 203.763 136.66 203.956 136.449C204.148 136.256 204.302 136.006 204.408 135.726Z" fill="white"/>
<path d="M209.859 141.745L209.194 141.37L209.647 140.59L209.628 140.58C209.426 140.676 209.223 140.744 209.011 140.773C208.8 140.801 208.588 140.811 208.385 140.792C208.183 140.773 207.991 140.734 207.798 140.667C207.605 140.599 207.432 140.522 207.278 140.435C206.912 140.224 206.614 139.973 206.382 139.675C206.151 139.376 205.988 139.058 205.891 138.712C205.795 138.365 205.776 138.009 205.824 137.633C205.872 137.258 205.997 136.901 206.199 136.545C206.402 136.189 206.652 135.9 206.951 135.669C207.249 135.438 207.567 135.274 207.914 135.187C208.26 135.091 208.626 135.072 208.992 135.12C209.358 135.168 209.734 135.303 210.109 135.515C210.263 135.601 210.417 135.717 210.562 135.842C210.716 135.977 210.851 136.121 210.966 136.285C211.082 136.449 211.188 136.632 211.265 136.834C211.342 137.036 211.39 137.238 211.409 137.46L211.429 137.469L213.538 133.8L214.202 134.176L209.859 141.745ZM206.922 136.94C206.768 137.2 206.671 137.469 206.623 137.739C206.575 138.018 206.585 138.278 206.642 138.538C206.7 138.789 206.806 139.03 206.97 139.251C207.134 139.472 207.345 139.665 207.625 139.819C207.894 139.973 208.164 140.07 208.453 140.098C208.742 140.137 209.011 140.118 209.281 140.041C209.541 139.973 209.791 139.848 210.013 139.675C210.234 139.501 210.427 139.28 210.571 139.02C210.716 138.76 210.812 138.49 210.851 138.211C210.889 137.932 210.87 137.662 210.803 137.392C210.735 137.132 210.61 136.882 210.437 136.651C210.263 136.42 210.042 136.227 209.772 136.073C209.503 135.919 209.223 135.823 208.954 135.794C208.684 135.765 208.424 135.794 208.174 135.871C207.923 135.948 207.692 136.083 207.48 136.256C207.259 136.458 207.076 136.68 206.922 136.94Z" fill="white"/>
<path d="M212.969 140.888C212.825 141.119 212.719 141.36 212.661 141.61C212.603 141.861 212.584 142.111 212.623 142.361C212.661 142.612 212.738 142.843 212.863 143.055C212.989 143.276 213.152 143.469 213.364 143.632C213.692 143.883 214.029 144.018 214.375 144.047C214.722 144.075 215.04 144.037 215.309 143.941L215.483 144.682C214.972 144.807 214.52 144.827 214.096 144.73C213.672 144.634 213.297 144.451 212.94 144.181C212.623 143.941 212.372 143.652 212.189 143.334C212.006 143.016 211.891 142.679 211.852 142.323C211.814 141.966 211.843 141.61 211.939 141.254C212.035 140.888 212.209 140.551 212.459 140.223C212.709 139.896 212.989 139.646 213.316 139.453C213.634 139.26 213.971 139.135 214.318 139.087C214.664 139.039 215.021 139.049 215.367 139.145C215.714 139.232 216.041 139.395 216.349 139.626C216.677 139.877 216.918 140.156 217.091 140.464C217.255 140.782 217.361 141.1 217.38 141.427C217.409 141.755 217.37 142.082 217.264 142.409C217.158 142.737 216.995 143.055 216.764 143.344L216.552 143.623L212.969 140.888ZM216.263 142.621C216.581 142.207 216.706 141.784 216.658 141.341C216.609 140.898 216.359 140.512 215.926 140.175C215.733 140.021 215.512 139.915 215.271 139.858C215.03 139.79 214.789 139.771 214.549 139.8C214.308 139.819 214.086 139.886 213.884 139.983C213.672 140.089 213.499 140.223 213.364 140.406L216.263 142.621Z" fill="white"/>
<path d="M218.487 143.777C218.651 143.604 218.815 143.421 218.969 143.238C219.132 143.045 219.344 142.814 219.604 142.515L220.153 143.026L219.47 143.758L219.489 143.777C219.633 143.709 219.778 143.661 219.951 143.623C220.115 143.594 220.288 143.584 220.461 143.604C220.635 143.623 220.818 143.671 221.001 143.758C221.184 143.844 221.367 143.96 221.54 144.124C221.694 144.268 221.819 144.422 221.906 144.567L221.28 145.01C221.232 144.913 221.136 144.798 221.001 144.663C220.789 144.461 220.567 144.335 220.336 144.268C220.105 144.21 219.884 144.191 219.662 144.22C219.441 144.249 219.238 144.316 219.055 144.422C218.872 144.528 218.718 144.644 218.593 144.778L216.503 147.003L215.945 146.483L218.487 143.777Z" fill="white"/>
<path d="M183.155 182.932H332.786C332.786 123.833 298.522 72.7363 248.774 48.4205L183.155 182.932Z" fill="url(#paint1_linear_821_2648)"/>
<path d="M193.5 160.5L248.013 48.5651" stroke="#721FFA" stroke-width="0.963" stroke-miterlimit="10"/>
<path d="M221.916 148.265C230.149 157.461 235.157 169.614 235.157 182.933C235.157 211.649 211.872 234.935 183.155 234.935C154.438 234.935 131.153 211.649 131.153 182.933C131.153 169.614 136.161 157.461 144.394 148.265" stroke="white" stroke-width="0.72225" stroke-miterlimit="10" stroke-dasharray="0.96 0.96"/>
<path fill-rule="evenodd" clip-rule="evenodd" d="M303.164 133.887C299.678 132.462 295.71 134.166 294.333 137.662L296.461 138.5C297.424 138.875 297.193 140.3 296.163 140.358L293.881 140.474C294.015 143.035 295.604 145.404 298.147 146.396C301.642 147.773 305.591 146.021 306.92 142.496C308.181 139.154 306.477 135.245 303.164 133.887Z" fill="#721FFA"/>
<path fill-rule="evenodd" clip-rule="evenodd" d="M262.082 116.697C263.816 112.46 261.745 107.645 257.499 105.979L256.487 108.56C256.025 109.735 254.301 109.446 254.234 108.194L254.09 105.43C250.979 105.594 248.109 107.52 246.896 110.601C245.23 114.848 247.348 119.634 251.634 121.252C255.698 122.793 260.445 120.723 262.082 116.697Z" fill="#721FFA"/>
<path fill-rule="evenodd" clip-rule="evenodd" d="M257.316 162.344C254.388 162.796 252.414 165.55 252.905 168.459L254.677 168.16C255.476 168.025 255.9 169.075 255.226 169.537L253.743 170.539C254.87 172.205 256.901 173.158 259.01 172.802C261.919 172.311 263.874 169.537 263.334 166.619C262.824 163.855 260.099 161.91 257.316 162.344Z" fill="#721FFA"/>
<path fill-rule="evenodd" clip-rule="evenodd" d="M310.83 198.822C313.767 198.427 315.799 195.712 315.365 192.794L313.584 193.054C312.775 193.169 312.38 192.11 313.064 191.667L314.566 190.694C313.478 188.999 311.465 188.008 309.347 188.325C306.429 188.759 304.426 191.494 304.898 194.411C305.35 197.204 308.046 199.198 310.83 198.822Z" fill="#721FFA"/>
<path fill-rule="evenodd" clip-rule="evenodd" d="M268.544 224.053C270.566 222.714 271.096 219.989 269.738 217.995L268.525 218.823C267.976 219.199 267.302 218.563 267.649 217.986L268.409 216.734C267.003 215.877 265.164 215.867 263.72 216.849C261.726 218.207 261.225 220.942 262.612 222.926C263.931 224.813 266.628 225.324 268.544 224.053Z" fill="#721FFA"/>
<path fill-rule="evenodd" clip-rule="evenodd" d="M267.745 257.517C269.093 256.621 269.449 254.811 268.535 253.482L267.726 254.031C267.36 254.281 266.907 253.857 267.138 253.472L267.649 252.634C266.714 252.066 265.491 252.057 264.519 252.711C263.19 253.617 262.853 255.437 263.787 256.756C264.673 258.018 266.464 258.364 267.745 257.517Z" fill="#721FFA"/>
<path fill-rule="evenodd" clip-rule="evenodd" d="M233.318 263.179C232.99 262.159 231.883 261.6 230.872 261.947L231.083 262.563C231.18 262.842 230.823 263.054 230.621 262.842L230.178 262.361C229.639 262.862 229.417 263.642 229.668 264.383C230.014 265.404 231.122 265.943 232.133 265.587C233.086 265.25 233.635 264.152 233.318 263.179Z" fill="#721FFA"/>
<path d="M296.779 170.394C300.236 170.394 303.039 167.592 303.039 164.135C303.039 160.678 300.236 157.875 296.779 157.875C293.322 157.875 290.52 160.678 290.52 164.135C290.52 167.592 293.322 170.394 296.779 170.394Z" fill="white"/>
<path d="M296.779 158.357C299.967 158.357 302.557 160.947 302.557 164.135C302.557 167.322 299.967 169.913 296.779 169.913C293.592 169.913 291.001 167.322 291.001 164.135C291.001 160.938 293.582 158.357 296.779 158.357ZM296.779 157.394C293.062 157.394 290.038 160.417 290.038 164.135C290.038 167.852 293.062 170.876 296.779 170.876C300.496 170.876 303.52 167.852 303.52 164.135C303.52 160.417 300.487 157.394 296.779 157.394Z" fill="white"/>
<path d="M249.583 146.849C253.571 146.849 256.805 143.615 256.805 139.626C256.805 135.638 253.571 132.404 249.583 132.404C245.594 132.404 242.36 135.638 242.36 139.626C242.36 143.615 245.594 146.849 249.583 146.849Z" fill="white"/>
<path d="M249.592 132.885C253.319 132.885 256.333 135.9 256.333 139.626C256.333 143.353 253.319 146.367 249.592 146.367C245.865 146.367 242.851 143.353 242.851 139.626C242.851 135.9 245.865 132.885 249.592 132.885ZM249.592 131.922C245.345 131.922 241.888 135.38 241.888 139.626C241.888 143.873 245.345 147.33 249.592 147.33C253.839 147.33 257.296 143.873 257.296 139.626C257.296 135.38 253.839 131.922 249.592 131.922Z" fill="white"/>
<path d="M292.157 116.158C296.146 116.158 299.379 112.925 299.379 108.936C299.379 104.947 296.146 101.713 292.157 101.713C288.168 101.713 284.934 104.947 284.934 108.936C284.934 112.925 288.168 116.158 292.157 116.158Z" fill="white"/>
<path d="M292.157 102.195C295.884 102.195 298.898 105.209 298.898 108.936C298.898 112.662 295.884 115.677 292.157 115.677C288.43 115.677 285.416 112.662 285.416 108.936C285.416 105.209 288.43 102.195 292.157 102.195ZM292.157 101.232C287.91 101.232 284.453 104.689 284.453 108.936C284.453 113.182 287.91 116.64 292.157 116.64C296.404 116.64 299.861 113.182 299.861 108.936C299.861 104.689 296.404 101.232 292.157 101.232Z" fill="white"/>
<path d="M273.86 197.454C276.785 197.454 279.156 195.083 279.156 192.158C279.156 189.233 276.785 186.861 273.86 186.861C270.935 186.861 268.563 189.233 268.563 192.158C268.563 195.083 270.935 197.454 273.86 197.454Z" fill="white"/>
<path d="M273.86 187.343C276.518 187.343 278.675 189.5 278.675 192.158C278.675 194.816 276.518 196.973 273.86 196.973C271.202 196.973 269.045 194.816 269.045 192.158C269.045 189.5 271.202 187.343 273.86 187.343ZM273.86 186.38C270.672 186.38 268.082 188.97 268.082 192.158C268.082 195.346 270.672 197.936 273.86 197.936C277.047 197.936 279.638 195.346 279.638 192.158C279.638 188.97 277.047 186.38 273.86 186.38Z" fill="white"/>
<path d="M298.214 222.415C300.873 222.415 303.029 220.26 303.029 217.6C303.029 214.941 300.873 212.785 298.214 212.785C295.555 212.785 293.399 214.941 293.399 217.6C293.399 220.26 295.555 222.415 298.214 222.415Z" fill="white"/>
<path d="M298.224 213.267C300.622 213.267 302.557 215.203 302.557 217.6C302.557 219.998 300.622 221.934 298.224 221.934C295.826 221.934 293.89 219.998 293.89 217.6C293.89 215.203 295.826 213.267 298.224 213.267ZM298.224 212.304C295.306 212.304 292.927 214.683 292.927 217.6C292.927 220.518 295.306 222.897 298.224 222.897C301.142 222.897 303.52 220.518 303.52 217.6C303.52 214.683 301.142 212.304 298.224 212.304Z" fill="white"/>
<path d="M246.212 238.786C248.339 238.786 250.064 237.062 250.064 234.934C250.064 232.807 248.339 231.082 246.212 231.082C244.085 231.082 242.36 232.807 242.36 234.934C242.36 237.062 244.085 238.786 246.212 238.786Z" fill="white"/>
<path d="M246.222 231.564C248.08 231.564 249.592 233.076 249.592 234.934C249.592 236.793 248.08 238.305 246.222 238.305C244.363 238.305 242.851 236.793 242.851 234.934C242.851 233.076 244.353 231.564 246.222 231.564ZM246.222 230.601C243.833 230.601 241.888 232.546 241.888 234.934C241.888 237.323 243.833 239.268 246.222 239.268C248.61 239.268 250.555 237.323 250.555 234.934C250.555 232.546 248.61 230.601 246.222 230.601Z" fill="white"/>
<path d="M252.106 280.301C253.701 280.301 254.995 279.008 254.995 277.412C254.995 275.817 253.701 274.523 252.106 274.523C250.51 274.523 249.217 275.817 249.217 277.412C249.217 279.008 250.51 280.301 252.106 280.301Z" fill="white"/>
<path d="M252.106 275.005C253.435 275.005 254.513 276.083 254.513 277.412C254.513 278.741 253.435 279.82 252.106 279.82C250.777 279.82 249.698 278.741 249.698 277.412C249.698 276.083 250.777 275.005 252.106 275.005ZM252.106 274.042C250.247 274.042 248.735 275.554 248.735 277.412C248.735 279.271 250.247 280.783 252.106 280.783C253.964 280.783 255.476 279.271 255.476 277.412C255.476 275.554 253.964 274.042 252.106 274.042Z" fill="white"/>
<path d="M208.771 262.004C209.834 262.004 210.697 261.142 210.697 260.078C210.697 259.015 209.834 258.152 208.771 258.152C207.707 258.152 206.845 259.015 206.845 260.078C206.845 261.142 207.707 262.004 208.771 262.004Z" fill="white"/>
<path d="M208.771 258.634C209.57 258.634 210.215 259.279 210.215 260.078C210.215 260.878 209.57 261.523 208.771 261.523C207.971 261.523 207.326 260.878 207.326 260.078C207.326 259.279 207.971 258.634 208.771 258.634ZM208.771 257.671C207.442 257.671 206.363 258.749 206.363 260.078C206.363 261.407 207.442 262.486 208.771 262.486C210.1 262.486 211.178 261.407 211.178 260.078C211.178 258.749 210.1 257.671 208.771 257.671Z" fill="white"/>
<path d="M252.106 90.3112C257.158 90.3112 261.254 86.2152 261.254 81.1627C261.254 76.1101 257.158 72.0142 252.106 72.0142C247.053 72.0142 242.957 76.1101 242.957 81.1627C242.957 86.2152 247.053 90.3112 252.106 90.3112Z" fill="white"/>
<path d="M252.106 72.4956C256.892 72.4956 260.773 76.3765 260.773 81.1626C260.773 85.9487 256.892 89.8296 252.106 89.8296C247.32 89.8296 243.439 85.9487 243.439 81.1626C243.439 76.3765 247.32 72.4956 252.106 72.4956ZM252.106 71.5326C246.8 71.5326 242.476 75.8565 242.476 81.1626C242.476 86.4687 246.8 90.7926 252.106 90.7926C257.412 90.7926 261.736 86.4687 261.736 81.1626C261.736 75.8565 257.412 71.5326 252.106 71.5326Z" fill="white"/>
<path d="M203.262 292.83C204.06 292.83 204.707 292.183 204.707 291.386C204.707 290.588 204.06 289.941 203.262 289.941C202.465 289.941 201.818 290.588 201.818 291.386C201.818 292.183 202.465 292.83 203.262 292.83Z" fill="white"/>
<path d="M203.262 290.422C203.792 290.422 204.225 290.856 204.225 291.385C204.225 291.915 203.792 292.348 203.262 292.348C202.733 292.348 202.299 291.915 202.299 291.385C202.299 290.856 202.733 290.422 203.262 290.422ZM203.262 289.459C202.203 289.459 201.336 290.326 201.336 291.385C201.336 292.445 202.203 293.311 203.262 293.311C204.322 293.311 205.188 292.445 205.188 291.385C205.188 290.326 204.322 289.459 203.262 289.459Z" fill="white"/>
<path d="M171.878 278.847C172.41 278.847 172.841 278.416 172.841 277.884C172.841 277.352 172.41 276.921 171.878 276.921C171.346 276.921 170.915 277.352 170.915 277.884C170.915 278.416 171.346 278.847 171.878 278.847Z" fill="white"/>
<path d="M171.878 277.403C172.148 277.403 172.36 277.615 172.36 277.884C172.36 278.154 172.148 278.366 171.878 278.366C171.609 278.366 171.397 278.154 171.397 277.884C171.397 277.615 171.618 277.403 171.878 277.403ZM171.878 276.44C171.079 276.44 170.434 277.085 170.434 277.884C170.434 278.684 171.079 279.329 171.878 279.329C172.678 279.329 173.323 278.684 173.323 277.884C173.323 277.085 172.678 276.44 171.878 276.44Z" fill="white"/>
<path d="M183.2 345.9C273.167 345.9 346.1 272.967 346.1 183C346.1 93.0328 273.167 20.1 183.2 20.1C93.2327 20.1 20.2999 93.0328 20.2999 183C20.2999 272.967 93.2327 345.9 183.2 345.9Z" stroke="#DC244C" stroke-opacity="0.4" stroke-width="0.9" stroke-miterlimit="10"/>
<path d="M183 365C283.516 365 365 283.516 365 183C365 82.4842 283.516 1 183 1C82.4842 1 1 82.4842 1 183C1 283.516 82.4842 365 183 365Z" stroke="#C9D2EF" stroke-width="0.9" stroke-miterlimit="10" stroke-linecap="round" stroke-dasharray="3 5"/>
<defs>
<linearGradient id="paint0_linear_821_2648" x1="183.406" y1="195.048" x2="175.066" y2="195.428" gradientUnits="userSpaceOnUse">
<stop stop-color="#FF3364"/>
<stop offset="1" stop-color="#C91540" stop-opacity="0"/>
</linearGradient>
<linearGradient id="paint1_linear_821_2648" x1="222.35" y1="70.5" x2="257.9" y2="153.75" gradientUnits="userSpaceOnUse">
<stop offset="0.0416667" stop-color="white"/>
<stop offset="1" stop-color="white" stop-opacity="0"/>
</linearGradient>
</defs>
</svg>
