<?xml version="1.0" encoding="UTF-8"?>
<svg width="397" height="381" fill="none" version="1.1" viewBox="0 0 397 381" xmlns="http://www.w3.org/2000/svg">
 <path d="m174.11 287.09-82.126 47.417c-1.7236 0.996-3.8434 0.996-5.5671 0l-82.126-47.417c-3.715-2.141-3.715-7.494 0-9.635l38.274-22.097 43.852-25.32c1.7237-0.996 3.8435-0.996 5.5671 0l43.841 25.32 38.285 22.097c3.704 2.141 3.715 7.494 0 9.635z" clip-path="url(#clipPath1162)" clip-rule="evenodd" fill="#b2bfe8" fill-rule="evenodd" opacity=".2"/>
 <path d="m0 265.73 30.277-17.473 55.404-31.989c2.1733-1.253 4.8605-1.253 7.0339 0l55.393 31.989 48.37 27.922c4.689 2.708 4.689 9.474 0 12.183l-103.76 59.911c-2.1734 1.252-4.8606 1.252-7.0339 0l-85.68-49.473" clip-path="url(#clipPath1156)" opacity=".2" stroke="#b2bfe8" stroke-miterlimit="10" stroke-width="1.0706"/>
 <path d="m283.85 108.54c-19.388 0-35.169-15.78-35.169-35.169s15.781-35.169 35.169-35.169c19.389 0 35.169 15.781 35.169 35.169s-15.78 35.169-35.169 35.169z" clip-path="url(#clipPath1150)" fill="#d9e2ff"/>
 <path d="m283.85 38.734c19.132 0 34.634 15.502 34.634 34.634 0 19.132-15.502 34.634-34.634 34.634s-34.634-15.502-34.634-34.634c0-19.132 15.502-34.634 34.634-34.634zm0-1.0706c-19.688 0-35.704 16.016-35.704 35.704 0 19.688 16.016 35.705 35.704 35.705s35.705-16.016 35.705-35.705c0-19.688-16.017-35.704-35.705-35.704z" clip-path="url(#clipPath1144)" fill="#ffffff"/>
 <path d="m276.05 57.609s-5.406 5.8241 1.231 14.057c11.295 14.003-15.695 25.395-19.377-4.8177-2.345-19.249 7.215-25.362 19.356-27.622" clip-path="url(#clipPath1138)" fill="#721ffa"/>
 <path d="m310.68 95.283c-6.349 7.7726-16.017 12.719-26.83 12.719-9.143 0-17.45-3.533-23.639-9.3248 5.557-7.2051 18.318-11.434 18.318-11.434l6.146 2.4731s0.835-4.5822 7.687-3.7792c5.246 0.5995 18.318 9.3463 18.318 9.3463z" clip-path="url(#clipPath1132)" fill="#c91540"/>
 <path d="m286.5 94.609c3.148-1.2205 7.077-3.8756 5.514-11.616l-2.655-17.365-14.25 2.184 2.655 17.365c0.696 4.55 2.559 10.363 8.736 9.432z" clip-path="url(#clipPath1126)" fill="#ffeca7"/>
 <path d="m255.19 73.368h-21.508c-2.013 0-3.929-0.8029-5.332-2.2375-13.885-14.218-35.147-23.318-58.99-23.318-21.872 0-41.571 7.6548-55.393 19.881-12.622 11.166-20.341 26.155-20.341 42.631 0 18.211 9.443 34.602 24.495 46.036 1.36 1.028 2.152 2.645 2.152 4.357v17.184c0 2.098 2.538 3.147 4.026 1.67l10.224-10.225c1.488-1.488 3.694-1.991 5.685-1.306 8.982 3.094 18.832 4.807 29.163 4.807 41.828 0 75.745-27.996 75.745-62.523 0-6.156-1.081-12.098-3.094-17.718-0.974-2.73-0.3-5.7705 1.756-7.8154z" clip-path="url(#clipPath1120)" fill="#d9e2ff"/>
 <path d="m277.47 82.854v1.6381c5.45-0.0536 5.728-3.1904 5.728-3.1904z" clip-path="url(#clipPath1114)" fill="#24386c"/>
 <path d="m261.28 62.373c2.516 18.275 8.04 23.553 22.696 19.346 10.888-3.1261 17.066-12.29 16.006-23.575s-8.918-19.174-20.202-18.115c-11.284 1.0599-20.352 8.8432-18.5 22.344z" clip-path="url(#clipPath1108)" fill="#ffeca7"/>
 <path d="m271.19 64.557-0.215 6.2201c-0.032 0.9315 0.771 1.6702 1.692 1.5738" clip-path="url(#clipPath1102)" stroke="#24386c" stroke-linecap="round" stroke-miterlimit="10" stroke-width=".5353"/>
 <path d="m275.95 65.103c0.662 0 1.199-0.5368 1.199-1.1991 0-0.6622-0.537-1.199-1.199-1.199s-1.199 0.5368-1.199 1.199c0 0.6623 0.537 1.1991 1.199 1.1991z" clip-path="url(#clipPath1096)" fill="#24386c"/>
 <path d="m266.95 64.578c0.662 0 1.199-0.5368 1.199-1.199 0-0.6623-0.537-1.1991-1.199-1.1991s-1.199 0.5368-1.199 1.1991c0 0.6622 0.537 1.199 1.199 1.199z" clip-path="url(#clipPath1090)" fill="#24386c"/>
 <path d="m275.48 76.034c-1.402 0.653-2.719 0.6102-3.736 0.3747" clip-path="url(#clipPath1084)" stroke="#24386c" stroke-linecap="round" stroke-miterlimit="10" stroke-width=".5353"/>
 <path d="m280.33 55.157s6.98 2.9763 4.689 13.308c-4.689 21.23 23.65 18.318 15.642-12.408-4.893-18.768-17.066-20.106-29.057-17.14-18.446 4.5715-20.009 26.797 8.726 16.241z" clip-path="url(#clipPath1078)" fill="#721ffa"/>
 <path d="m282.17 51.56-2.034 3.7364" clip-path="url(#clipPath1072)" stroke="#c91540" stroke-linecap="round" stroke-miterlimit="10" stroke-width="2.1412"/>
 <g fill="#24386c">
  <path d="m154.52 91.922h2.516c0.471 0 0.942 0.0749 1.424 0.2355 0.481 0.1606 0.899 0.3961 1.284 0.7173 0.386 0.3212 0.685 0.7173 0.932 1.1884 0.235 0.471 0.353 1.0277 0.353 1.6487 0 0.6316-0.118 1.1883-0.353 1.6594-0.236 0.4711-0.546 0.8672-0.932 1.1884-0.385 0.3211-0.813 0.5567-1.284 0.7066-0.471 0.1606-0.943 0.2355-1.424 0.2355h-2.516zm0.771 6.8732h1.498c0.579 0 1.082-0.0856 1.499-0.2676 0.429-0.1713 0.782-0.4069 1.06-0.6959 0.279-0.2891 0.493-0.621 0.621-0.985 0.139-0.364 0.204-0.7494 0.204-1.1348 0-0.3961-0.065-0.7709-0.204-1.1456-0.139-0.364-0.342-0.6959-0.621-0.9849-0.278-0.2891-0.631-0.5246-1.06-0.6959-0.428-0.1713-0.92-0.2677-1.499-0.2677h-1.498z" clip-path="url(#clipPath1066)"/>
  <path d="m163.33 92.564c0 0.1499-0.054 0.2676-0.161 0.3747-0.107 0.0964-0.224 0.1392-0.353 0.1392-0.128 0-0.246-0.0428-0.353-0.1392-0.107-0.0963-0.161-0.2248-0.161-0.3747s0.054-0.2676 0.161-0.364 0.225-0.1392 0.353-0.1392c0.129 0 0.246 0.0428 0.353 0.1392s0.161 0.2141 0.161 0.364zm-0.161 6.9375h-0.706v-5.0104h0.706z" clip-path="url(#clipPath1060)"/>
  <path d="m168.08 96.429v-0.1285c0-0.8672-0.428-1.2954-1.284-1.2954-0.589 0-1.092 0.1927-1.531 0.5888l-0.428-0.5032c0.471-0.4818 1.177-0.728 2.119-0.728 0.247 0 0.482 0.0321 0.707 0.1071 0.225 0.0749 0.417 0.182 0.578 0.3211 0.161 0.1392 0.3 0.3319 0.396 0.5567 0.097 0.2249 0.15 0.4818 0.15 0.7923v2.2375c0 0.1928 0.011 0.3962 0.021 0.5996 0.022 0.2141 0.043 0.3854 0.065 0.5246h-0.685c-0.022-0.1178-0.033-0.257-0.043-0.3961-0.011-0.1392-0.011-0.2784-0.011-0.4176h-0.021c-0.204 0.3319-0.45 0.5781-0.739 0.7173s-0.621 0.2248-1.028 0.2248c-0.225 0-0.439-0.0321-0.642-0.0856-0.204-0.0642-0.396-0.1499-0.557-0.2784-0.161-0.1284-0.289-0.2783-0.385-0.4603-0.097-0.182-0.15-0.3961-0.15-0.6317 0-0.4068 0.107-0.728 0.31-0.9635 0.214-0.2355 0.471-0.4068 0.792-0.5139 0.322-0.1071 0.654-0.182 1.018-0.2141s0.685-0.0428 0.984-0.0428h0.364zm-0.364 0.5781c-0.182 0-0.406 0.0107-0.663 0.0214-0.268 0.0214-0.525 0.0642-0.771 0.1285-0.246 0.0642-0.46 0.1713-0.632 0.3104-0.171 0.1392-0.257 0.3426-0.257 0.5889 0 0.1605 0.032 0.2997 0.097 0.4175 0.064 0.1178 0.16 0.2141 0.267 0.2891 0.118 0.0749 0.236 0.1284 0.375 0.1606 0.139 0.0321 0.278 0.0428 0.428 0.0428 0.257 0 0.482-0.0429 0.664-0.1285s0.353-0.2034 0.482-0.3426c0.128-0.1392 0.225-0.3212 0.278-0.5139 0.054-0.1927 0.086-0.4068 0.086-0.6209v-0.364h-0.354z" clip-path="url(#clipPath1054)"/>
  <path d="m171.3 99.502h-0.706v-8.0938h0.706z" clip-path="url(#clipPath1048)"/>
  <path d="m178.06 96.996c0 0.3747-0.064 0.728-0.203 1.0492s-0.311 0.5995-0.546 0.8351c-0.236 0.2355-0.514 0.4175-0.846 0.546-0.321 0.1284-0.685 0.2034-1.07 0.2034-0.386 0-0.739-0.0643-1.071-0.2034-0.321-0.1285-0.61-0.3105-0.846-0.546-0.235-0.2356-0.417-0.5139-0.546-0.8351-0.128-0.3212-0.203-0.6745-0.203-1.0492s0.064-0.728 0.203-1.0492c0.129-0.3212 0.311-0.5995 0.546-0.8351 0.236-0.2355 0.514-0.4175 0.846-0.546 0.321-0.1284 0.674-0.1927 1.071-0.1927 0.396 0 0.749 0.0643 1.07 0.1927 0.321 0.1285 0.6 0.3105 0.846 0.546 0.235 0.2356 0.417 0.5139 0.546 0.8351 0.128 0.3212 0.203 0.6638 0.203 1.0492zm-0.771 0c0-0.2784-0.042-0.5353-0.128-0.7815-0.086-0.2463-0.214-0.4497-0.375-0.6317-0.16-0.182-0.364-0.3212-0.599-0.4282-0.236-0.1071-0.493-0.1499-0.782-0.1499s-0.556 0.0535-0.792 0.1499c-0.236 0.107-0.428 0.2462-0.589 0.4282-0.16 0.182-0.289 0.3854-0.375 0.6317-0.085 0.2462-0.128 0.5031-0.128 0.7815s0.043 0.5353 0.128 0.7815c0.086 0.2463 0.215 0.4497 0.375 0.6317 0.161 0.182 0.353 0.3212 0.589 0.4282 0.236 0.1071 0.492 0.1499 0.792 0.1499s0.557-0.0535 0.782-0.1499c0.235-0.107 0.428-0.2462 0.599-0.4282 0.161-0.182 0.289-0.3854 0.375-0.6317 0.086-0.2462 0.128-0.5031 0.128-0.7815z" clip-path="url(#clipPath1042)"/>
  <path d="m179.73 100.51c0.204 0.278 0.482 0.503 0.803 0.664 0.332 0.171 0.707 0.257 1.114 0.257 0.353 0 0.664-0.054 0.91-0.161s0.449-0.246 0.599-0.418c0.15-0.171 0.268-0.385 0.332-0.62 0.064-0.236 0.097-0.493 0.097-0.7606v-0.8993h-0.022c-0.225 0.3426-0.503 0.5888-0.835 0.728s-0.674 0.2141-1.038 0.2141-0.707-0.0642-1.028-0.1927-0.589-0.2998-0.825-0.5246c-0.235-0.2248-0.417-0.4925-0.556-0.8137-0.139-0.3104-0.204-0.653-0.204-1.017s0.065-0.7066 0.193-1.0171c0.129-0.3105 0.311-0.5888 0.535-0.8244 0.225-0.2355 0.493-0.4175 0.803-0.546 0.311-0.1284 0.653-0.1927 1.028-0.1927 0.15 0 0.311 0.0107 0.482 0.0429 0.171 0.0321 0.332 0.0749 0.503 0.1498 0.171 0.075 0.332 0.1713 0.492 0.2891 0.161 0.1285 0.322 0.2891 0.461 0.4818h0.021v-0.8351h0.707v4.9676c0 0.2676-0.032 0.5569-0.107 0.8669-0.064 0.311-0.204 0.589-0.396 0.846-0.193 0.257-0.471 0.471-0.814 0.642-0.353 0.172-0.803 0.257-1.37 0.257-0.504 0-0.942-0.085-1.339-0.246-0.396-0.16-0.749-0.417-1.07-0.76zm0.129-3.5759c0 0.2676 0.043 0.5138 0.139 0.7494 0.096 0.2355 0.225 0.4389 0.396 0.6102s0.364 0.3105 0.589 0.4175c0.225 0.1071 0.471 0.1499 0.739 0.1499 0.257 0 0.503-0.0428 0.728-0.1391 0.235-0.0964 0.439-0.2249 0.621-0.3962s0.31-0.364 0.407-0.5995c0.096-0.2355 0.139-0.5032 0.128-0.7922 0-0.2677-0.043-0.5139-0.128-0.7495-0.086-0.2355-0.215-0.4389-0.375-0.6102-0.161-0.1713-0.364-0.3105-0.6-0.4175-0.235-0.1071-0.503-0.1499-0.792-0.1499-0.268 0-0.514 0.0535-0.739 0.1499-0.225 0.107-0.417 0.2462-0.589 0.4175-0.171 0.1713-0.299 0.3747-0.396 0.6102-0.085 0.2356-0.128 0.4818-0.128 0.7495z" clip-path="url(#clipPath1036)"/>
  <path d="m153.45 106.02c-0.332-0.493-0.824-0.739-1.466-0.739-0.204 0-0.396 0.032-0.589 0.086-0.193 0.053-0.364 0.139-0.525 0.246-0.16 0.107-0.278 0.257-0.364 0.428-0.096 0.171-0.139 0.385-0.139 0.621 0 0.343 0.096 0.61 0.289 0.803s0.428 0.343 0.717 0.46c0.289 0.118 0.6 0.236 0.943 0.332 0.342 0.097 0.653 0.225 0.942 0.386 0.289 0.16 0.524 0.374 0.717 0.642s0.289 0.621 0.289 1.081c0 0.343-0.075 0.653-0.225 0.932-0.15 0.278-0.342 0.503-0.578 0.685-0.235 0.182-0.503 0.332-0.803 0.428s-0.599 0.15-0.889 0.15c-0.46 0-0.91-0.086-1.327-0.268-0.418-0.182-0.771-0.46-1.071-0.856l0.707-0.503c0.161 0.278 0.396 0.503 0.685 0.663 0.289 0.172 0.632 0.247 1.039 0.247 0.192 0 0.385-0.032 0.578-0.086 0.192-0.064 0.364-0.15 0.514-0.268 0.15-0.117 0.278-0.267 0.374-0.439 0.097-0.171 0.15-0.364 0.15-0.588 0-0.268-0.053-0.482-0.171-0.653-0.107-0.172-0.257-0.322-0.439-0.439-0.182-0.118-0.385-0.215-0.621-0.3-0.236-0.075-0.471-0.161-0.717-0.236-0.247-0.075-0.482-0.171-0.718-0.267-0.235-0.097-0.439-0.225-0.621-0.386-0.182-0.15-0.331-0.342-0.438-0.578-0.108-0.235-0.172-0.524-0.172-0.867 0-0.364 0.064-0.685 0.214-0.953 0.14-0.268 0.322-0.492 0.557-0.674 0.236-0.182 0.493-0.311 0.792-0.396 0.289-0.086 0.589-0.129 0.9-0.129 0.428 0 0.813 0.064 1.167 0.203 0.353 0.14 0.674 0.375 0.974 0.718z" clip-path="url(#clipPath1030)"/>
  <path d="m159.21 108.52c-0.118-0.182-0.289-0.343-0.514-0.471-0.214-0.129-0.46-0.193-0.738-0.193-0.29-0.011-0.557 0.043-0.793 0.139-0.235 0.097-0.428 0.236-0.589 0.418-0.16 0.182-0.289 0.396-0.374 0.642-0.086 0.247-0.129 0.514-0.129 0.803s0.043 0.546 0.129 0.792c0.085 0.247 0.214 0.461 0.374 0.643 0.161 0.182 0.364 0.321 0.589 0.417 0.236 0.097 0.493 0.15 0.793 0.14 0.278 0 0.524-0.065 0.738-0.193 0.214-0.129 0.386-0.289 0.514-0.471l0.578 0.439c-0.246 0.289-0.535 0.514-0.845 0.653-0.311 0.139-0.643 0.214-0.985 0.225-0.407 0.01-0.771-0.054-1.103-0.193-0.332-0.129-0.61-0.311-0.846-0.546-0.235-0.236-0.407-0.514-0.535-0.846-0.118-0.321-0.182-0.674-0.182-1.049s0.064-0.728 0.182-1.06 0.3-0.61 0.535-0.846c0.236-0.235 0.514-0.417 0.846-0.546 0.332-0.128 0.696-0.192 1.103-0.182 0.342 0.011 0.674 0.075 0.985 0.214 0.31 0.14 0.599 0.354 0.845 0.653z" clip-path="url(#clipPath1024)"/>
  <path d="m161.21 110.04c0.022 0.247 0.086 0.482 0.182 0.707 0.097 0.225 0.236 0.407 0.396 0.578 0.161 0.161 0.354 0.289 0.568 0.375 0.214 0.085 0.45 0.139 0.696 0.139 0.375 0 0.706-0.086 0.985-0.268 0.278-0.171 0.482-0.374 0.621-0.599l0.546 0.449c-0.3 0.375-0.632 0.654-0.996 0.814-0.364 0.161-0.749 0.246-1.156 0.246-0.375 0-0.718-0.064-1.028-0.203s-0.589-0.311-0.814-0.546c-0.224-0.236-0.406-0.514-0.535-0.835-0.128-0.321-0.203-0.675-0.203-1.049 0-0.375 0.064-0.728 0.192-1.05 0.129-0.321 0.311-0.599 0.536-0.835 0.224-0.235 0.492-0.417 0.803-0.546 0.31-0.128 0.642-0.192 0.995-0.192 0.375 0 0.718 0.064 1.017 0.203 0.3 0.139 0.546 0.311 0.76 0.535 0.204 0.225 0.354 0.493 0.461 0.793 0.107 0.299 0.16 0.621 0.16 0.974v0.321h-4.186zm3.405-0.578c0-0.482-0.139-0.867-0.428-1.156s-0.686-0.45-1.199-0.45c-0.225 0-0.45 0.043-0.664 0.129-0.214 0.085-0.407 0.214-0.568 0.353-0.16 0.15-0.289 0.321-0.385 0.514s-0.139 0.396-0.139 0.6h3.383z" clip-path="url(#clipPath1018)"/>
  <path d="m167.35 107.34c0.01 0.14 0.021 0.268 0.032 0.407v0.407h0.021c0.075-0.139 0.182-0.257 0.3-0.375 0.118-0.117 0.257-0.214 0.407-0.299 0.15-0.086 0.31-0.15 0.482-0.193 0.171-0.043 0.331-0.064 0.492-0.064 0.642 0 1.113 0.171 1.424 0.503 0.31 0.342 0.46 0.824 0.46 1.445v3.18h-0.706v-2.773c0-0.557-0.097-0.985-0.289-1.285-0.193-0.299-0.546-0.449-1.071-0.449-0.032 0-0.139 0.01-0.3 0.042-0.16 0.033-0.332 0.108-0.514 0.236s-0.342 0.321-0.492 0.578c-0.139 0.257-0.214 0.61-0.214 1.071v2.569h-0.707v-3.908c0-0.139 0-0.31-0.011-0.513-0.01-0.204-0.021-0.407-0.042-0.589h0.728z" clip-path="url(#clipPath1012)"/>
  <path d="m175.84 109.28v-0.128c0-0.867-0.428-1.296-1.284-1.296-0.589 0-1.092 0.193-1.531 0.589l-0.428-0.503c0.471-0.482 1.177-0.728 2.119-0.728 0.247 0 0.482 0.032 0.707 0.107s0.417 0.182 0.578 0.321 0.3 0.332 0.396 0.557c0.097 0.225 0.15 0.482 0.15 0.792v2.238c0 0.192 0.011 0.396 0.032 0.599 0.022 0.214 0.043 0.386 0.054 0.525h-0.685c-0.022-0.118-0.043-0.257-0.043-0.396s-0.022-0.279-0.022-0.418h-0.021c-0.204 0.332-0.45 0.578-0.728 0.717-0.278 0.15-0.621 0.225-1.039 0.225-0.224 0-0.439-0.032-0.642-0.085-0.203-0.054-0.396-0.15-0.546-0.279-0.161-0.128-0.289-0.278-0.385-0.46-0.097-0.182-0.14-0.396-0.14-0.632 0-0.407 0.108-0.728 0.311-0.963 0.214-0.236 0.471-0.407 0.792-0.514 0.321-0.118 0.653-0.182 1.017-0.214s0.696-0.043 0.996-0.043h0.342zm-0.364 0.578c-0.182 0-0.406 0.011-0.663 0.022-0.268 0.021-0.525 0.064-0.771 0.128s-0.46 0.172-0.632 0.311c-0.171 0.139-0.267 0.342-0.267 0.589 0 0.16 0.032 0.299 0.096 0.417s0.161 0.214 0.268 0.289c0.117 0.075 0.246 0.129 0.385 0.161s0.278 0.043 0.418 0.043c0.256 0 0.481-0.043 0.663-0.129s0.354-0.203 0.482-0.343c0.129-0.139 0.225-0.321 0.278-0.513 0.054-0.193 0.097-0.407 0.097-0.621v-0.364h-0.354z" clip-path="url(#clipPath1006)"/>
  <path d="m178.26 108.89c0-0.225 0-0.45-0.021-0.675-0.011-0.224-0.022-0.524-0.022-0.888h0.696v0.931h0.021c0.054-0.139 0.118-0.267 0.215-0.385 0.096-0.129 0.203-0.236 0.331-0.343 0.129-0.107 0.29-0.182 0.461-0.235 0.171-0.065 0.375-0.086 0.589-0.086 0.203 0 0.374 0.021 0.524 0.064l-0.139 0.696c-0.096-0.032-0.225-0.053-0.407-0.053-0.267 0-0.503 0.053-0.696 0.16-0.192 0.107-0.353 0.236-0.481 0.396-0.129 0.161-0.225 0.332-0.279 0.514-0.064 0.182-0.085 0.364-0.085 0.535v2.827h-0.707z" clip-path="url(#clipPath1000)"/>
  <path d="m182.76 105.41c0 0.15-0.053 0.268-0.16 0.375-0.108 0.096-0.225 0.139-0.354 0.139-0.128 0-0.246-0.043-0.353-0.139s-0.161-0.225-0.161-0.375 0.054-0.267 0.161-0.364c0.107-0.096 0.225-0.139 0.353-0.139 0.129 0 0.246 0.043 0.354 0.139 0.107 0.097 0.16 0.214 0.16 0.364zm-0.16 6.938h-0.707v-5.011h0.707z" clip-path="url(#clipPath994)"/>
  <path d="m189.37 109.84c0 0.374-0.065 0.728-0.204 1.049s-0.31 0.599-0.546 0.835c-0.235 0.235-0.514 0.417-0.845 0.546-0.322 0.128-0.686 0.203-1.071 0.203s-0.739-0.064-1.071-0.203c-0.321-0.129-0.61-0.311-0.845-0.546-0.236-0.236-0.418-0.514-0.546-0.835-0.129-0.321-0.204-0.675-0.204-1.049 0-0.375 0.064-0.728 0.204-1.05 0.128-0.321 0.31-0.599 0.546-0.835 0.235-0.235 0.513-0.417 0.845-0.546 0.322-0.128 0.675-0.192 1.071-0.192s0.749 0.064 1.071 0.192c0.321 0.129 0.599 0.311 0.845 0.546 0.236 0.236 0.418 0.514 0.546 0.835 0.129 0.322 0.204 0.664 0.204 1.05zm-0.771 0c0-0.279-0.043-0.536-0.129-0.782-0.085-0.246-0.214-0.45-0.374-0.632-0.161-0.182-0.364-0.321-0.6-0.428-0.235-0.107-0.492-0.15-0.781-0.15s-0.557 0.054-0.793 0.15c-0.235 0.107-0.428 0.246-0.588 0.428-0.161 0.182-0.29 0.386-0.375 0.632-0.086 0.246-0.129 0.503-0.129 0.782 0 0.278 0.043 0.535 0.129 0.781 0.085 0.246 0.214 0.45 0.375 0.632 0.16 0.182 0.353 0.321 0.588 0.428 0.236 0.107 0.493 0.15 0.793 0.15 0.299 0 0.556-0.054 0.781-0.15 0.236-0.107 0.428-0.246 0.6-0.428 0.16-0.182 0.289-0.386 0.374-0.632 0.086-0.246 0.129-0.503 0.129-0.781z" clip-path="url(#clipPath988)"/>
 </g>
 <g clip-rule="evenodd" fill-rule="evenodd">
  <path d="m116.31 263.52-6.8701-37.683 28.97-9.4773v75.563l-16.733 9.656z" clip-path="url(#clipPath976)" fill="#24386c"/>
  <path d="m138.41 216.36-16.733 9.667-13.841 1.5466-17.673-5.0177-18.025 6.7391-10.276 3.882-21.862-16.817 49.205-28.414 24.602 14.207z" clip-path="url(#clipPath970)" fill="#7d8cb5"/>
  <path d="m39.998 216.36 16.734 9.667 9.0592 31.688 13.102 9.7562 10.31 14.784v19.314l-49.205-28.414z" clip-path="url(#clipPath964)" fill="#b2bfe8"/>
  <path d="m109.44 262.95-20.234 19.314v19.313l15.737-9.078z" clip-path="url(#clipPath958)" fill="#24386c"/>
  <path d="m89.202 244.77-20.984-7.3286 22.228-18.817 23.093 18.217z" clip-path="url(#clipPath952)" fill="#7d8cb5"/>
  <path d="m73.465 235.69 15.738 9.078v18.179l-23.412-5.2371z" clip-path="url(#clipPath946)" fill="#b2bfe8"/>
  <path d="m89.203 244.77 15.737-9.078 11.034 22.02-26.772 5.2371z" clip-path="url(#clipPath940)" fill="#24386c"/>
  <path d="m104.94 292.5 16.734 9.078v-75.563l-16.241-9.367-16.23-9.368-16.241 9.368-16.23 9.367v37.493l16.23 9.368 16.241 9.367 15.738-9.089zm0-38.638-15.738 9.089-15.738-9.089v-18.168l15.738-9.09 15.738 9.09z" clip-path="url(#clipPath934)" fill="#c91540"/>
 </g>
 <path d="m89.203 282.26v-19.314l-15.738-9.089-0.5031 19.024z" clip-path="url(#clipPath928)" fill="url(#paint0_linear_1033_7057)"/>
 <g fill="#ffffff">
  <path d="m154.9 132.7c2.442 0 4.422-1.98 4.422-4.422s-1.98-4.421-4.422-4.421-4.421 1.979-4.421 4.421 1.979 4.422 4.421 4.422z" clip-path="url(#clipPath922)"/>
  <path d="m169.36 132.7c2.442 0 4.422-1.98 4.422-4.422s-1.98-4.421-4.422-4.421-4.421 1.979-4.421 4.421 1.979 4.422 4.421 4.422z" clip-path="url(#clipPath916)"/>
  <path d="m183.81 132.7c2.442 0 4.422-1.98 4.422-4.422s-1.98-4.421-4.422-4.421c-2.441 0-4.421 1.979-4.421 4.421s1.98 4.422 4.421 4.422z" clip-path="url(#clipPath910)"/>
  <path d="m127.92 192.57h-78.153c-4.7321 0-8.5648-3.833-8.5648-8.565s3.8327-8.565 8.5648-8.565h78.153c4.732 0 8.565 3.833 8.565 8.565s-3.833 8.565-8.565 8.565z" clip-path="url(#clipPath904)" clip-rule="evenodd" fill-rule="evenodd" stroke="#b2bfe8" stroke-miterlimit="10" stroke-width="1.0706"/>
 </g>
 <g fill="#24386c">
  <path d="m58.337 186.43h0.0215v-6.423h0.7708v7.58h-0.9636l-4.5179-6.488h-0.0214v6.488h-0.7708v-7.58h0.9635z" clip-path="url(#clipPath898)"/>
  <path d="m61.42 185.28c0.0214 0.246 0.0856 0.482 0.182 0.707 0.0963 0.225 0.2355 0.407 0.3961 0.578 0.1606 0.161 0.3533 0.289 0.5674 0.375 0.2141 0.085 0.4496 0.139 0.6959 0.139 0.3747 0 0.7066-0.086 0.9849-0.268 0.2784-0.171 0.4818-0.375 0.621-0.599l0.546 0.449c-0.2998 0.375-0.6317 0.653-0.9957 0.814s-0.7494 0.246-1.1562 0.246c-0.3747 0-0.7173-0.064-1.0278-0.203s-0.5888-0.311-0.8136-0.546c-0.2249-0.236-0.4069-0.514-0.5353-0.835-0.1285-0.321-0.2035-0.675-0.2035-1.049 0-0.375 0.0643-0.729 0.1927-1.05 0.1285-0.321 0.3105-0.599 0.5353-0.835 0.2249-0.235 0.4925-0.417 0.803-0.546 0.3105-0.128 0.6424-0.192 0.9957-0.192 0.3747 0 0.7173 0.064 1.017 0.203 0.2998 0.139 0.546 0.31 0.7602 0.535 0.2034 0.225 0.3533 0.493 0.4603 0.792 0.1071 0.3 0.1606 0.621 0.1606 0.975v0.321h-4.186zm3.4045-0.578c0-0.482-0.1392-0.867-0.4283-1.156-0.289-0.289-0.6852-0.45-1.1991-0.45-0.2248 0-0.4496 0.043-0.6637 0.129-0.2141 0.085-0.4068 0.214-0.5674 0.353-0.1606 0.15-0.2891 0.321-0.3855 0.514-0.0963 0.193-0.1391 0.396-0.1391 0.599h3.3831z" clip-path="url(#clipPath892)"/>
  <path d="m70.499 187.59c-0.0107-0.14-0.0214-0.268-0.0321-0.407s0-0.268 0-0.407h-0.0214c-0.0749 0.139-0.182 0.257-0.2998 0.375-0.1177 0.117-0.2569 0.214-0.4068 0.299-0.1499 0.086-0.3105 0.15-0.4818 0.193-0.1712 0.043-0.3318 0.075-0.4924 0.075-0.6424 0-1.1135-0.171-1.4239-0.514-0.3105-0.342-0.4604-0.824-0.4604-1.445v-3.18h0.7066v2.773c0 0.278 0.0214 0.525 0.0642 0.739 0.0429 0.214 0.1178 0.396 0.2249 0.535 0.107 0.139 0.2462 0.257 0.4175 0.332s0.3961 0.107 0.6638 0.107c0.0321 0 0.1392-0.011 0.2997-0.043 0.1606-0.032 0.3319-0.107 0.5139-0.235 0.182-0.129 0.3426-0.322 0.4925-0.579 0.1499-0.256 0.2141-0.61 0.2141-1.07v-2.57h0.7066v3.908c0 0.139 0 0.311 0.0107 0.514s0.0214 0.407 0.0429 0.589h-0.7388z" clip-path="url(#clipPath886)"/>
  <path d="m72.908 184.14c0-0.224 0-0.449-0.0214-0.674-0.0107-0.225-0.0215-0.525-0.0215-0.889h0.6959v0.932h0.0215c0.0535-0.139 0.1177-0.268 0.2141-0.386 0.0963-0.128 0.2034-0.235 0.3319-0.342 0.1284-0.107 0.289-0.182 0.4603-0.236 0.1713-0.064 0.3747-0.085 0.5888-0.085 0.2035 0 0.3748 0.021 0.5246 0.064l-0.1391 0.696c-0.0964-0.032-0.2249-0.054-0.4069-0.054-0.2676 0-0.5031 0.054-0.6959 0.161-0.1927 0.107-0.3533 0.235-0.4817 0.396-0.1285 0.16-0.2249 0.332-0.2784 0.514-0.0642 0.182-0.0856 0.364-0.0856 0.535v2.826h-0.7066z" clip-path="url(#clipPath880)"/>
  <path d="m79.599 184.52v-0.128c0-0.868-0.4282-1.296-1.2847-1.296-0.5888 0-1.092 0.193-1.531 0.589l-0.4282-0.503c0.471-0.482 1.1776-0.728 2.1198-0.728 0.2462 0 0.4817 0.032 0.7066 0.107 0.2248 0.075 0.4175 0.182 0.5781 0.321s0.2998 0.332 0.3961 0.557c0.0964 0.225 0.1499 0.482 0.1499 0.792v2.238c0 0.192 0.0107 0.396 0.0321 0.599 0.0214 0.214 0.0428 0.385 0.0535 0.525h-0.6851c-0.0215-0.118-0.0429-0.257-0.0429-0.396 0-0.14-0.0214-0.279-0.0214-0.418h-0.0214c-0.2034 0.332-0.4496 0.578-0.728 0.717-0.2783 0.15-0.6209 0.225-1.0385 0.225-0.2248 0-0.4389-0.032-0.6423-0.086-0.2034-0.053-0.3962-0.149-0.546-0.278-0.1606-0.128-0.2891-0.278-0.3855-0.46-0.0963-0.182-0.1391-0.396-0.1391-0.632 0-0.407 0.107-0.728 0.3104-0.963 0.2142-0.236 0.4711-0.407 0.7923-0.514 0.3212-0.118 0.653-0.182 1.0171-0.214 0.364-0.033 0.6958-0.043 0.9956-0.043h0.3426zm-0.364 0.578c-0.182 0-0.4068 0.011-0.6638 0.022-0.2676 0.021-0.5246 0.064-0.7708 0.128s-0.4604 0.171-0.6317 0.311c-0.1713 0.139-0.2676 0.342-0.2676 0.588 0 0.161 0.0321 0.3 0.0963 0.418 0.0643 0.118 0.1606 0.214 0.2677 0.289 0.1178 0.075 0.2462 0.128 0.3854 0.161 0.1392 0.032 0.2784 0.042 0.4175 0.042 0.257 0 0.4818-0.042 0.6638-0.128s0.3533-0.204 0.4818-0.343 0.2248-0.321 0.2783-0.514c0.0536-0.192 0.0964-0.406 0.0964-0.621v-0.364h-0.3533z" clip-path="url(#clipPath874)"/>
  <path d="m82.811 187.59h-0.7066v-8.094h0.7066z" clip-path="url(#clipPath868)"/>
  <path d="m88.517 186.88h4.0576v0.707h-4.8284v-7.58h4.6999v0.706h-3.9291v2.58h3.6722v0.707h-3.6722z" clip-path="url(#clipPath862)"/>
  <path d="m94.513 182.58c0.0107 0.139 0.0214 0.268 0.0214 0.407v0.407h0.0214c0.075-0.139 0.182-0.257 0.2998-0.375s0.2569-0.214 0.4068-0.3c0.1499-0.085 0.3105-0.149 0.4711-0.192 0.1713-0.043 0.3319-0.064 0.5032-0.064 0.6423 0 1.1134 0.171 1.4239 0.503 0.3104 0.342 0.4603 0.824 0.4603 1.445v3.18h-0.6959v-2.773c0-0.557-0.0963-0.985-0.289-1.285s-0.546-0.45-1.0706-0.45c-0.0321 0-0.1392 0.011-0.2998 0.043s-0.3426 0.107-0.5246 0.236c-0.182 0.128-0.3426 0.321-0.4925 0.578-0.1391 0.257-0.2141 0.61-0.2141 1.071v2.569h-0.7066v-3.908c0-0.139-0.0107-0.31-0.0214-0.514-0.0107-0.203-0.0214-0.406-0.0428-0.588h0.7494z" clip-path="url(#clipPath856)"/>
  <path d="m103.44 183.76c-0.118-0.182-0.289-0.343-0.504-0.471-0.214-0.129-0.46-0.193-0.749-0.193-0.289-0.011-0.557 0.043-0.782 0.139-0.235 0.097-0.428 0.236-0.599 0.418-0.161 0.182-0.289 0.396-0.375 0.642-0.085 0.246-0.128 0.514-0.128 0.803s0.043 0.546 0.128 0.792c0.086 0.247 0.214 0.461 0.375 0.643s0.364 0.321 0.599 0.417c0.236 0.097 0.493 0.15 0.782 0.139 0.278 0 0.525-0.064 0.749-0.192 0.225-0.129 0.386-0.289 0.504-0.471l0.578 0.439c-0.247 0.289-0.536 0.513-0.846 0.653-0.311 0.139-0.642 0.214-0.985 0.224-0.407 0.011-0.771-0.053-1.103-0.192-0.332-0.129-0.61-0.311-0.846-0.546-0.235-0.236-0.4063-0.514-0.5348-0.846-0.1178-0.321-0.182-0.675-0.182-1.049 0-0.375 0.0642-0.728 0.182-1.06s0.2998-0.61 0.5348-0.846c0.236-0.235 0.514-0.417 0.846-0.546 0.332-0.128 0.696-0.193 1.103-0.182 0.343 0.011 0.674 0.075 0.985 0.214 0.31 0.139 0.599 0.353 0.846 0.653z" clip-path="url(#clipPath850)"/>
  <path d="m110.02 185.09c0 0.374-0.065 0.728-0.193 1.049s-0.31 0.599-0.557 0.835c-0.235 0.235-0.514 0.417-0.845 0.546-0.322 0.128-0.686 0.203-1.071 0.203s-0.739-0.064-1.071-0.203c-0.321-0.129-0.599-0.311-0.835-0.546-0.235-0.236-0.417-0.514-0.556-0.835-0.14-0.321-0.193-0.675-0.193-1.049 0-0.375 0.064-0.729 0.193-1.05 0.128-0.321 0.31-0.599 0.556-0.835 0.236-0.235 0.514-0.417 0.835-0.546 0.322-0.128 0.686-0.192 1.071-0.192 0.396 0 0.749 0.064 1.071 0.192 0.321 0.129 0.61 0.311 0.845 0.546 0.236 0.236 0.418 0.514 0.557 0.835 0.128 0.321 0.193 0.675 0.193 1.05zm-0.771 0c0-0.279-0.043-0.536-0.129-0.782-0.085-0.246-0.214-0.45-0.385-0.632s-0.364-0.321-0.589-0.428c-0.235-0.107-0.492-0.15-0.792-0.15s-0.557 0.054-0.782 0.15c-0.235 0.107-0.428 0.246-0.588 0.428-0.161 0.182-0.289 0.386-0.375 0.632s-0.129 0.503-0.129 0.782c0 0.278 0.043 0.535 0.129 0.781s0.214 0.45 0.375 0.632c0.16 0.182 0.353 0.321 0.588 0.428 0.236 0.107 0.493 0.15 0.782 0.15s0.557-0.054 0.792-0.15c0.236-0.096 0.428-0.246 0.589-0.428s0.289-0.386 0.385-0.632c0.086-0.235 0.129-0.503 0.129-0.781z" clip-path="url(#clipPath844)"/>
  <path d="m116.3 187.59h-0.706v-0.835h-0.022c-0.117 0.171-0.246 0.321-0.407 0.438-0.16 0.118-0.321 0.225-0.492 0.3s-0.353 0.139-0.535 0.172c-0.182 0.032-0.354 0.053-0.514 0.053-0.396 0-0.75-0.064-1.081-0.203-0.322-0.129-0.6-0.311-0.836-0.546-0.235-0.236-0.417-0.514-0.556-0.835-0.129-0.322-0.193-0.675-0.193-1.05 0-0.374 0.064-0.728 0.193-1.049 0.128-0.321 0.31-0.599 0.556-0.835 0.236-0.235 0.514-0.417 0.836-0.546 0.321-0.128 0.685-0.193 1.081-0.193 0.16 0 0.332 0.022 0.514 0.054s0.353 0.096 0.535 0.171 0.332 0.182 0.492 0.3c0.161 0.118 0.29 0.268 0.407 0.439h0.022v-3.918h0.706zm-4.571-2.506c0 0.279 0.043 0.536 0.128 0.782 0.086 0.246 0.214 0.45 0.386 0.632 0.16 0.182 0.364 0.321 0.589 0.428 0.224 0.107 0.492 0.15 0.792 0.15 0.289 0 0.546-0.054 0.792-0.15 0.246-0.107 0.46-0.246 0.642-0.428s0.322-0.386 0.418-0.632 0.15-0.503 0.15-0.782c0-0.278-0.054-0.535-0.15-0.781s-0.236-0.45-0.418-0.632-0.396-0.321-0.642-0.428-0.514-0.15-0.792-0.15c-0.289 0-0.557 0.054-0.792 0.15-0.236 0.107-0.429 0.246-0.589 0.428-0.161 0.182-0.289 0.386-0.386 0.632-0.096 0.246-0.128 0.503-0.128 0.781z" clip-path="url(#clipPath838)"/>
  <path d="m118.33 185.28c0.022 0.246 0.086 0.482 0.182 0.707 0.097 0.225 0.236 0.407 0.396 0.578 0.161 0.161 0.354 0.289 0.568 0.375 0.214 0.085 0.449 0.139 0.696 0.139 0.374 0 0.706-0.086 0.985-0.268 0.278-0.171 0.481-0.375 0.621-0.599l0.546 0.449c-0.3 0.375-0.632 0.653-0.996 0.814s-0.75 0.246-1.156 0.246c-0.375 0-0.718-0.064-1.028-0.203-0.311-0.139-0.589-0.311-0.814-0.546-0.225-0.236-0.407-0.514-0.535-0.835-0.129-0.321-0.204-0.675-0.204-1.049 0-0.375 0.065-0.729 0.193-1.05 0.129-0.321 0.311-0.599 0.535-0.835 0.225-0.235 0.493-0.417 0.803-0.546 0.311-0.128 0.643-0.192 0.996-0.192 0.375 0 0.717 0.064 1.017 0.203s0.546 0.31 0.76 0.535c0.204 0.225 0.354 0.493 0.461 0.792 0.107 0.3 0.16 0.621 0.16 0.975v0.321h-4.186zm3.405-0.578c0-0.482-0.139-0.867-0.429-1.156-0.289-0.289-0.685-0.45-1.199-0.45-0.224 0-0.449 0.043-0.663 0.129-0.214 0.085-0.407 0.214-0.568 0.353-0.16 0.15-0.289 0.321-0.385 0.514-0.097 0.193-0.139 0.396-0.139 0.599h3.383z" clip-path="url(#clipPath832)"/>
  <path d="m123.87 184.14c0-0.224 0-0.449-0.011-0.674s-0.022-0.525-0.032-0.889h0.696v0.932h0.021c0.054-0.139 0.118-0.268 0.214-0.386 0.096-0.128 0.204-0.235 0.343-0.342 0.128-0.097 0.289-0.182 0.46-0.236 0.171-0.053 0.375-0.085 0.589-0.085 0.203 0 0.375 0.021 0.524 0.064l-0.139 0.696c-0.096-0.032-0.225-0.054-0.407-0.054-0.267 0-0.503 0.054-0.695 0.161-0.193 0.107-0.354 0.235-0.482 0.396-0.129 0.16-0.225 0.332-0.279 0.514-0.064 0.182-0.085 0.364-0.085 0.535v2.826h-0.707v-3.458z" clip-path="url(#clipPath826)"/>
 </g>
 <path d="m128.58 196.06h-79.47c-6.6592 0-12.055-5.396-12.055-12.055s5.3958-12.055 12.055-12.055h79.47c6.659 0 12.055 5.396 12.055 12.055s-5.396 12.055-12.055 12.055z" clip-path="url(#clipPath820)" clip-rule="evenodd" fill-rule="evenodd" opacity=".3" stroke="#b2bfe8" stroke-miterlimit="10" stroke-width="1.0706"/>
 <path d="m283.85 24.699c26.872 0 48.669 21.787 48.669 48.669 0 26.872-21.786 48.67-48.669 48.67-26.872 0-48.669-21.787-48.669-48.67 0-26.872 21.786-48.669 48.669-48.669zm0-1.0706c-27.429 0-49.74 22.311-49.74 49.74 0 27.429 22.311 49.74 49.74 49.74s49.74-22.311 49.74-49.74c0-27.429-22.322-49.74-49.74-49.74z" clip-path="url(#clipPath814)" fill="#d9e2ff"/>
 <g clip-path="url(#clipPath808)" opacity=".5">
  <path d="m283.85 5.2138c37.643 0 68.155 30.512 68.155 68.154 0 37.642-30.512 68.155-68.155 68.155-37.642 0-68.154-30.513-68.154-68.155 0-37.642 30.512-68.154 68.154-68.154zm0-1.0706c-38.177 0-69.225 31.058-69.225 69.225 0 38.167 31.058 69.225 69.225 69.225 38.178 0 69.225-31.058 69.225-69.225 0-38.167-31.058-69.225-69.225-69.225z" fill="#d9e2ff" opacity=".5"/>
 </g>
 <path d="m79.931 100.71c0-17.054 7.9974-32.567 21.059-44.13 11.723-10.374 27.525-17.558 45.297-19.828" clip-path="url(#clipPath802)" stroke="#d9e2ff" stroke-miterlimit="10" stroke-width="1.0706"/>
 <path d="m288.71 356.19c41.732 0 75.563-33.831 75.563-75.563 0-41.733-33.831-75.563-75.563-75.563-41.733 0-75.563 33.83-75.563 75.563 0 41.732 33.83 75.563 75.563 75.563z" clip-path="url(#clipPath796)" fill="#d9e2ff"/>
 <g clip-rule="evenodd" fill-rule="evenodd">
  <path d="m133.61 262.95-8.308-14.367 8.297-4.786 8.298 4.786z" clip-path="url(#clipPath790)" fill="#7d8cb5"/>
  <path d="m125.31 248.58 8.286 4.785 0.011 9.582-8.297-4.786z" clip-path="url(#clipPath784)" fill="#b2bfe8"/>
  <path d="m133.6 253.37 8.297-4.785v9.571l-8.297 4.785z" clip-path="url(#clipPath778)" fill="#c91540"/>
 </g>
 <path d="m235.13 235.72c0.991-0.991 1.286-2.302 0.658-2.929-0.627-0.628-1.938-0.333-2.929 0.658s-1.286 2.303-0.659 2.93 1.939 0.332 2.93-0.659z" clip-path="url(#clipPath772)" fill="#7d8cb5"/>
 <g clip-path="url(#clipPath766)" opacity=".5">
  <g opacity=".5">
   <path d="m288.71 198.44c45.393 0 82.19 36.796 82.19 82.19 0 45.393-36.797 82.19-82.19 82.19-45.394 0-82.19-36.797-82.19-82.19 0-45.394 36.796-82.19 82.19-82.19zm0-1.071c-45.908 0-83.261 37.353-83.261 83.261 0 45.907 37.353 83.26 83.261 83.26 45.907 0 83.26-37.353 83.26-83.26 0-45.918-37.353-83.261-83.26-83.261z" fill="#d9e2ff" opacity=".5"/>
  </g>
 </g>
 <path d="m138.41 255.77c26.241-10.995 45.297 19.796 51.592-18.457 4.433-26.904 31.947-16.733 44.602-2.141" clip-path="url(#clipPath760)" stroke="#c91540" stroke-linecap="round" stroke-miterlimit="10" stroke-width="1.0706"/>
 <path d="m131.84 306.89 16.648-9.614-10.449-5.45-16.648 9.614z" clip-path="url(#clipPath754)" clip-rule="evenodd" fill="url(#paint1_linear_1033_7057)" fill-rule="evenodd" opacity=".5"/>
 <path d="m115.84 316.23 16.102-9.421-27.033-14.443-15.599 9.004z" clip-path="url(#clipPath748)" clip-rule="evenodd" fill="url(#paint2_linear_1033_7057)" fill-rule="evenodd" opacity=".5"/>
 <path d="m333.41 242.64c12.015 0 21.755-9.74 21.755-21.755s-9.74-21.754-21.755-21.754c-12.014 0-21.754 9.739-21.754 21.754s9.74 21.755 21.754 21.755z" clip-path="url(#clipPath742)" fill="#d9e2ff"/>
 <path d="m333.41 199.67c11.723 0 21.22 9.496 21.22 21.219s-9.497 21.219-21.22 21.219c-11.712 0-21.219-9.496-21.219-21.219s9.507-21.219 21.219-21.219zm0-1.071c-12.29 0-22.29 10-22.29 22.29 0 12.291 10 22.29 22.29 22.29 12.291 0 22.29-9.999 22.29-22.29 0-12.29-9.999-22.29-22.29-22.29z" clip-path="url(#clipPath736)" fill="#ffffff"/>
 <g fill="#24386c">
  <path d="m324.09 219.23h-0.771v-7.58h4.572v0.707h-3.801v2.58h3.533v0.706h-3.533z" clip-path="url(#clipPath730)"/>
  <path d="m329.14 219.23h-0.899l3.298-7.58h0.749l3.297 7.58h-0.899l-0.835-1.991h-3.876zm1.125-2.698h3.286l-1.638-3.983z" clip-path="url(#clipPath724)"/>
  <path d="m344.27 219.23h-4.336c-0.546 0-1.06-0.097-1.52-0.289-0.472-0.193-0.878-0.461-1.21-0.803-0.343-0.343-0.61-0.76-0.803-1.231s-0.289-0.996-0.289-1.563c0-0.568 0.096-1.082 0.289-1.564 0.193-0.471 0.46-0.888 0.803-1.231 0.342-0.342 0.749-0.621 1.21-0.803 0.471-0.192 0.974-0.289 1.52-0.289s1.049 0.097 1.52 0.289c0.471 0.193 0.867 0.461 1.21 0.803 0.342 0.343 0.61 0.76 0.803 1.231 0.192 0.471 0.289 0.996 0.289 1.564 0 0.685-0.139 1.295-0.418 1.841-0.278 0.546-0.738 0.985-1.349 1.306v0.021h2.291v0.718zm-7.334-3.886c0 0.417 0.064 0.824 0.204 1.199 0.139 0.374 0.331 0.717 0.588 1.006s0.568 0.525 0.942 0.707c0.375 0.171 0.793 0.267 1.264 0.267 0.46 0 0.878-0.085 1.252-0.267 0.375-0.182 0.686-0.407 0.943-0.707 0.256-0.3 0.449-0.632 0.588-1.006 0.14-0.386 0.204-0.782 0.204-1.199 0-0.418-0.064-0.825-0.204-1.2-0.139-0.385-0.332-0.717-0.588-1.017-0.257-0.299-0.568-0.524-0.943-0.706-0.374-0.172-0.792-0.268-1.252-0.268-0.471 0-0.889 0.086-1.264 0.268-0.374 0.171-0.685 0.407-0.942 0.706-0.257 0.3-0.449 0.632-0.588 1.017-0.14 0.386-0.204 0.782-0.204 1.2z" clip-path="url(#clipPath718)"/>
  <path d="m323.03 222.35h2.259c0.31 0 0.621 0.032 0.91 0.096 0.289 0.065 0.557 0.172 0.781 0.322 0.225 0.149 0.407 0.342 0.546 0.588 0.14 0.247 0.204 0.546 0.204 0.9 0 0.417-0.118 0.771-0.353 1.06-0.236 0.299-0.557 0.492-0.985 0.599v0.022c0.535 0.042 0.952 0.224 1.252 0.567 0.3 0.332 0.461 0.771 0.461 1.338 0 0.118-0.032 0.3-0.086 0.536-0.064 0.235-0.182 0.471-0.385 0.695-0.193 0.236-0.472 0.439-0.836 0.611-0.364 0.171-0.845 0.257-1.456 0.257h-2.312zm0.771 3.319h1.552c0.182 0 0.375-0.022 0.557-0.064 0.182-0.043 0.342-0.129 0.492-0.225 0.15-0.107 0.268-0.246 0.364-0.418 0.097-0.171 0.14-0.374 0.14-0.621 0-0.075-0.011-0.192-0.043-0.332-0.032-0.139-0.107-0.289-0.214-0.428s-0.279-0.267-0.493-0.364c-0.214-0.107-0.503-0.15-0.867-0.15h-1.478v2.602zm0 3.554h1.477c0.279 0 0.536-0.032 0.782-0.085 0.246-0.054 0.449-0.14 0.631-0.268s0.322-0.268 0.418-0.45c0.107-0.182 0.161-0.396 0.161-0.642 0-0.503-0.161-0.867-0.482-1.113-0.321-0.247-0.792-0.364-1.413-0.364h-1.574z" clip-path="url(#clipPath712)"/>
  <path d="m332.73 226.86v-0.128c0-0.868-0.428-1.296-1.285-1.296-0.589 0-1.092 0.193-1.531 0.589l-0.428-0.503c0.471-0.482 1.178-0.728 2.12-0.728 0.246 0 0.482 0.032 0.706 0.107 0.225 0.075 0.418 0.182 0.579 0.321 0.16 0.15 0.299 0.332 0.396 0.557 0.096 0.225 0.15 0.482 0.15 0.792v2.238c0 0.192 0.01 0.396 0.021 0.599 0.021 0.214 0.043 0.386 0.064 0.525h-0.685c-0.021-0.118-0.043-0.257-0.043-0.396 0-0.14-0.021-0.279-0.021-0.418h-0.022c-0.203 0.332-0.449 0.578-0.728 0.717-0.278 0.15-0.621 0.225-1.038 0.225-0.225 0-0.439-0.032-0.642-0.085-0.204-0.054-0.397-0.15-0.546-0.279-0.161-0.128-0.29-0.278-0.386-0.46s-0.139-0.396-0.139-0.632c0-0.407 0.107-0.728 0.31-0.963 0.215-0.236 0.471-0.407 0.793-0.514 0.321-0.107 0.653-0.182 1.017-0.214 0.364-0.033 0.696-0.043 0.995-0.043h0.343zm-0.364 0.578c-0.182 0-0.407 0.011-0.664 0.022-0.267 0.021-0.524 0.064-0.771 0.128-0.246 0.064-0.46 0.171-0.631 0.311-0.172 0.139-0.257 0.342-0.257 0.588 0 0.161 0.032 0.3 0.096 0.418s0.161 0.214 0.278 0.289c0.118 0.075 0.236 0.128 0.375 0.161 0.139 0.032 0.279 0.042 0.428 0.042 0.257 0 0.482-0.042 0.664-0.128 0.193-0.086 0.343-0.203 0.482-0.343 0.128-0.15 0.225-0.321 0.278-0.514 0.054-0.192 0.097-0.406 0.097-0.62v-0.365h-0.375z" clip-path="url(#clipPath706)"/>
  <path d="m337.73 226.11c-0.107-0.204-0.246-0.375-0.428-0.493-0.182-0.117-0.396-0.182-0.653-0.182-0.118 0-0.246 0.011-0.375 0.043-0.128 0.032-0.235 0.075-0.331 0.129-0.097 0.064-0.182 0.139-0.236 0.224-0.064 0.097-0.096 0.204-0.096 0.343 0 0.236 0.085 0.407 0.246 0.514 0.16 0.107 0.407 0.203 0.739 0.278l0.717 0.172c0.353 0.074 0.642 0.235 0.878 0.481 0.235 0.247 0.353 0.536 0.353 0.889 0 0.268-0.053 0.503-0.171 0.706-0.118 0.204-0.257 0.354-0.439 0.482-0.182 0.129-0.386 0.214-0.621 0.268-0.236 0.053-0.471 0.086-0.717 0.086-0.386 0-0.75-0.075-1.071-0.225s-0.621-0.396-0.846-0.76l0.61-0.418c0.14 0.225 0.322 0.407 0.546 0.546 0.215 0.139 0.482 0.203 0.771 0.203 0.139 0 0.289-0.01 0.429-0.042 0.139-0.032 0.267-0.086 0.374-0.15s0.204-0.161 0.268-0.268 0.096-0.235 0.096-0.375c0-0.246-0.096-0.428-0.278-0.546-0.182-0.107-0.407-0.192-0.675-0.257l-0.685-0.16c-0.085-0.022-0.203-0.054-0.353-0.107-0.15-0.054-0.289-0.129-0.428-0.225-0.14-0.096-0.257-0.225-0.364-0.385-0.097-0.161-0.15-0.354-0.15-0.6 0-0.257 0.053-0.482 0.16-0.674 0.107-0.193 0.247-0.354 0.418-0.472 0.171-0.117 0.375-0.214 0.589-0.267 0.214-0.054 0.449-0.086 0.685-0.086 0.353 0 0.674 0.064 0.974 0.204 0.3 0.139 0.535 0.364 0.696 0.696z" clip-path="url(#clipPath700)"/>
  <path d="m340.13 227.62c0.021 0.246 0.085 0.482 0.182 0.707 0.096 0.225 0.235 0.407 0.396 0.578 0.16 0.161 0.353 0.289 0.567 0.375 0.214 0.085 0.45 0.139 0.696 0.139 0.375 0 0.707-0.086 0.985-0.268 0.278-0.171 0.482-0.375 0.621-0.599l0.546 0.449c-0.3 0.375-0.632 0.653-0.985 0.814-0.364 0.161-0.749 0.246-1.167 0.246-0.375 0-0.717-0.064-1.028-0.203-0.31-0.139-0.589-0.311-0.813-0.546-0.225-0.236-0.407-0.514-0.536-0.835-0.128-0.321-0.203-0.675-0.203-1.049 0-0.375 0.064-0.728 0.193-1.05 0.128-0.321 0.31-0.599 0.535-0.835 0.225-0.235 0.492-0.417 0.803-0.546 0.31-0.128 0.642-0.192 0.995-0.192 0.375 0 0.718 0.064 1.018 0.203 0.299 0.139 0.556 0.31 0.76 0.535 0.203 0.225 0.353 0.493 0.471 0.793 0.107 0.299 0.16 0.62 0.16 0.974v0.321h-4.196zm3.404-0.578c0-0.482-0.139-0.867-0.428-1.156s-0.685-0.45-1.199-0.45c-0.225 0-0.45 0.043-0.664 0.129-0.214 0.085-0.407 0.214-0.567 0.353-0.161 0.15-0.289 0.321-0.386 0.514-0.096 0.193-0.139 0.396-0.139 0.599h3.383z" clip-path="url(#clipPath694)"/>
 </g>
 <g clip-rule="evenodd" fill-rule="evenodd">
  <path d="m271.88 240.8c-14.303 0-25.898 9.465-25.898 21.145 0 4.903 2.066 9.41 5.503 12.997 0.653 0.674 0.974 1.595 0.974 2.537v6.799c0 1.124 1.36 1.691 2.152 0.888l2.966-2.965c1.049-1.05 2.591-1.36 3.982-0.868 3.159 1.124 6.649 1.756 10.321 1.756 14.303 0 25.898-9.464 25.898-21.144 0-11.67-11.595-21.145-25.898-21.145z" clip-path="url(#clipPath688)" fill="#7d8cb5"/>
  <path d="m317.57 271.84c11.573 0 20.952 7.666 20.952 17.108 0 3.972-1.67 7.623-4.454 10.524-0.524 0.546-0.792 1.296-0.792 2.056v5.503c0 0.91-1.103 1.359-1.745 0.717l-2.398-2.398c-0.846-0.846-2.099-1.103-3.223-0.707-2.559 0.91-5.385 1.424-8.35 1.424-11.574 0-20.952-7.665-20.952-17.108 0.011-9.453 9.389-17.119 20.962-17.119z" clip-path="url(#clipPath682)" fill="#7d8cb5"/>
  <path d="m271.88 239.29c-14.303 0-25.898 9.464-25.898 21.144 0 4.903 2.066 9.411 5.503 12.997 0.653 0.675 0.974 1.595 0.974 2.538v6.798c0 1.124 1.36 1.691 2.152 0.888l2.966-2.965c1.049-1.049 2.591-1.36 3.982-0.867 3.159 1.124 6.649 1.756 10.321 1.756 14.303 0 25.898-9.465 25.898-21.145 0-11.669-11.595-21.144-25.898-21.144z" clip-path="url(#clipPath676)" fill="#ffffff"/>
  <path d="m273.46 292.96c-9.71 0-17.579 6.424-17.579 14.346 0 3.33 1.403 6.391 3.736 8.822 0.439 0.46 0.664 1.081 0.664 1.723v4.615c0 0.76 0.921 1.145 1.456 0.61l2.013-2.013c0.707-0.706 1.756-0.921 2.698-0.589 2.141 0.761 4.518 1.189 7.002 1.189 9.71 0 17.579-6.424 17.579-14.346 0-7.923-7.869-14.357-17.569-14.357z" clip-path="url(#clipPath670)" fill="#7d8cb5"/>
  <path d="m317.57 270.52c11.573 0 20.952 7.666 20.952 17.108 0 3.972-1.67 7.623-4.454 10.524-0.524 0.546-0.792 1.296-0.792 2.056v5.503c0 0.91-1.103 1.359-1.745 0.717l-2.398-2.398c-0.846-0.846-2.099-1.103-3.223-0.707-2.559 0.91-5.385 1.424-8.35 1.424-11.574 0-20.952-7.665-20.952-17.108 0.011-9.453 9.389-17.119 20.962-17.119z" clip-path="url(#clipPath664)" fill="#ffffff"/>
  <path d="m273.46 291.55c-9.71 0-17.579 6.423-17.579 14.346 0 3.329 1.403 6.391 3.736 8.822 0.439 0.46 0.664 1.081 0.664 1.723v4.615c0 0.76 0.921 1.145 1.456 0.61l2.013-2.013c0.707-0.706 1.756-0.921 2.698-0.589 2.141 0.76 4.518 1.189 7.002 1.189 9.71 0 17.579-6.424 17.579-14.346 0-7.923-7.869-14.357-17.569-14.357z" clip-path="url(#clipPath658)" fill="#ffffff"/>
 </g>
 <g stroke="#b2bfe8" stroke-linecap="round" stroke-miterlimit="10" stroke-width="1.0706">
  <path d="m309.39 283.3h16.358" clip-path="url(#clipPath652)"/>
  <path d="m309.39 287.76h16.358" clip-path="url(#clipPath646)"/>
  <path d="m309.39 292.21h16.358" clip-path="url(#clipPath640)"/>
  <path d="m262.22 256.06h19.303" clip-path="url(#clipPath634)"/>
  <path d="m262.22 260.51h19.303" clip-path="url(#clipPath628)"/>
  <path d="m262.22 264.96h19.303" clip-path="url(#clipPath622)"/>
  <path d="m267.56 301.8h12.43" clip-path="url(#clipPath616)"/>
  <path d="m267.56 306.26h12.43" clip-path="url(#clipPath610)"/>
  <path d="m267.56 310.71h12.43" clip-path="url(#clipPath604)"/>
 </g>
 <defs>
  <linearGradient id="paint0_linear_1033_7057" x1="88.679" x2="72.276" y1="267.74" y2="268.49" gradientUnits="userSpaceOnUse">
   <stop stop-color="#FF3364" offset="0"/>
   <stop stop-color="#C91540" stop-opacity="0" offset="1"/>
  </linearGradient>
  <linearGradient id="paint1_linear_1033_7057" x1="137.43" x2="132.46" y1="303.66" y2="295.05" gradientUnits="userSpaceOnUse">
   <stop stop-color="#F2F6FF" stop-opacity="0" offset="0"/>
   <stop stop-color="#24386C" offset="1"/>
  </linearGradient>
  <linearGradient id="paint2_linear_1033_7057" x1="117.18" x2="104.12" y1="315.46" y2="292.83" gradientUnits="userSpaceOnUse">
   <stop stop-color="#F2F6FF" stop-opacity="0" offset="0"/>
   <stop stop-color="#24386C" offset="1"/>
  </linearGradient>
  <clipPath id="clipPath604">
   <rect width="396.12" height="380.06" fill="#ffffff"/>
  </clipPath>
  <clipPath id="clipPath610">
   <rect width="396.12" height="380.06" fill="#ffffff"/>
  </clipPath>
  <clipPath id="clipPath616">
   <rect width="396.12" height="380.06" fill="#ffffff"/>
  </clipPath>
  <clipPath id="clipPath622">
   <rect width="396.12" height="380.06" fill="#ffffff"/>
  </clipPath>
  <clipPath id="clipPath628">
   <rect width="396.12" height="380.06" fill="#ffffff"/>
  </clipPath>
  <clipPath id="clipPath634">
   <rect width="396.12" height="380.06" fill="#ffffff"/>
  </clipPath>
  <clipPath id="clipPath640">
   <rect width="396.12" height="380.06" fill="#ffffff"/>
  </clipPath>
  <clipPath id="clipPath646">
   <rect width="396.12" height="380.06" fill="#ffffff"/>
  </clipPath>
  <clipPath id="clipPath652">
   <rect width="396.12" height="380.06" fill="#ffffff"/>
  </clipPath>
  <clipPath id="clipPath658">
   <rect width="396.12" height="380.06" fill="#ffffff"/>
  </clipPath>
  <clipPath id="clipPath664">
   <rect width="396.12" height="380.06" fill="#ffffff"/>
  </clipPath>
  <clipPath id="clipPath670">
   <rect width="396.12" height="380.06" fill="#ffffff"/>
  </clipPath>
  <clipPath id="clipPath676">
   <rect width="396.12" height="380.06" fill="#ffffff"/>
  </clipPath>
  <clipPath id="clipPath682">
   <rect width="396.12" height="380.06" fill="#ffffff"/>
  </clipPath>
  <clipPath id="clipPath688">
   <rect width="396.12" height="380.06" fill="#ffffff"/>
  </clipPath>
  <clipPath id="clipPath694">
   <rect width="396.12" height="380.06" fill="#ffffff"/>
  </clipPath>
  <clipPath id="clipPath700">
   <rect width="396.12" height="380.06" fill="#ffffff"/>
  </clipPath>
  <clipPath id="clipPath706">
   <rect width="396.12" height="380.06" fill="#ffffff"/>
  </clipPath>
  <clipPath id="clipPath712">
   <rect width="396.12" height="380.06" fill="#ffffff"/>
  </clipPath>
  <clipPath id="clipPath718">
   <rect width="396.12" height="380.06" fill="#ffffff"/>
  </clipPath>
  <clipPath id="clipPath724">
   <rect width="396.12" height="380.06" fill="#ffffff"/>
  </clipPath>
  <clipPath id="clipPath730">
   <rect width="396.12" height="380.06" fill="#ffffff"/>
  </clipPath>
  <clipPath id="clipPath736">
   <rect width="396.12" height="380.06" fill="#ffffff"/>
  </clipPath>
  <clipPath id="clipPath742">
   <rect width="396.12" height="380.06" fill="#ffffff"/>
  </clipPath>
  <clipPath id="clipPath748">
   <rect width="396.12" height="380.06" fill="#ffffff"/>
  </clipPath>
  <clipPath id="clipPath754">
   <rect width="396.12" height="380.06" fill="#ffffff"/>
  </clipPath>
  <clipPath id="clipPath760">
   <rect width="396.12" height="380.06" fill="#ffffff"/>
  </clipPath>
  <clipPath id="clipPath766">
   <rect width="396.12" height="380.06" fill="#ffffff"/>
  </clipPath>
  <clipPath id="clipPath772">
   <rect width="396.12" height="380.06" fill="#ffffff"/>
  </clipPath>
  <clipPath id="clipPath778">
   <rect width="396.12" height="380.06" fill="#ffffff"/>
  </clipPath>
  <clipPath id="clipPath784">
   <rect width="396.12" height="380.06" fill="#ffffff"/>
  </clipPath>
  <clipPath id="clipPath790">
   <rect width="396.12" height="380.06" fill="#ffffff"/>
  </clipPath>
  <clipPath id="clipPath796">
   <rect width="396.12" height="380.06" fill="#ffffff"/>
  </clipPath>
  <clipPath id="clipPath802">
   <rect width="396.12" height="380.06" fill="#ffffff"/>
  </clipPath>
  <clipPath id="clipPath808">
   <rect width="396.12" height="380.06" fill="#ffffff"/>
  </clipPath>
  <clipPath id="clipPath814">
   <rect width="396.12" height="380.06" fill="#ffffff"/>
  </clipPath>
  <clipPath id="clipPath820">
   <rect width="396.12" height="380.06" fill="#ffffff"/>
  </clipPath>
  <clipPath id="clipPath826">
   <rect width="396.12" height="380.06" fill="#ffffff"/>
  </clipPath>
  <clipPath id="clipPath832">
   <rect width="396.12" height="380.06" fill="#ffffff"/>
  </clipPath>
  <clipPath id="clipPath838">
   <rect width="396.12" height="380.06" fill="#ffffff"/>
  </clipPath>
  <clipPath id="clipPath844">
   <rect width="396.12" height="380.06" fill="#ffffff"/>
  </clipPath>
  <clipPath id="clipPath850">
   <rect width="396.12" height="380.06" fill="#ffffff"/>
  </clipPath>
  <clipPath id="clipPath856">
   <rect width="396.12" height="380.06" fill="#ffffff"/>
  </clipPath>
  <clipPath id="clipPath862">
   <rect width="396.12" height="380.06" fill="#ffffff"/>
  </clipPath>
  <clipPath id="clipPath868">
   <rect width="396.12" height="380.06" fill="#ffffff"/>
  </clipPath>
  <clipPath id="clipPath874">
   <rect width="396.12" height="380.06" fill="#ffffff"/>
  </clipPath>
  <clipPath id="clipPath880">
   <rect width="396.12" height="380.06" fill="#ffffff"/>
  </clipPath>
  <clipPath id="clipPath886">
   <rect width="396.12" height="380.06" fill="#ffffff"/>
  </clipPath>
  <clipPath id="clipPath892">
   <rect width="396.12" height="380.06" fill="#ffffff"/>
  </clipPath>
  <clipPath id="clipPath898">
   <rect width="396.12" height="380.06" fill="#ffffff"/>
  </clipPath>
  <clipPath id="clipPath904">
   <rect width="396.12" height="380.06" fill="#ffffff"/>
  </clipPath>
  <clipPath id="clipPath910">
   <rect width="396.12" height="380.06" fill="#ffffff"/>
  </clipPath>
  <clipPath id="clipPath916">
   <rect width="396.12" height="380.06" fill="#ffffff"/>
  </clipPath>
  <clipPath id="clipPath922">
   <rect width="396.12" height="380.06" fill="#ffffff"/>
  </clipPath>
  <clipPath id="clipPath928">
   <rect width="396.12" height="380.06" fill="#ffffff"/>
  </clipPath>
  <clipPath id="clipPath934">
   <rect width="396.12" height="380.06" fill="#ffffff"/>
  </clipPath>
  <clipPath id="clipPath940">
   <rect width="396.12" height="380.06" fill="#ffffff"/>
  </clipPath>
  <clipPath id="clipPath946">
   <rect width="396.12" height="380.06" fill="#ffffff"/>
  </clipPath>
  <clipPath id="clipPath952">
   <rect width="396.12" height="380.06" fill="#ffffff"/>
  </clipPath>
  <clipPath id="clipPath958">
   <rect width="396.12" height="380.06" fill="#ffffff"/>
  </clipPath>
  <clipPath id="clipPath964">
   <rect width="396.12" height="380.06" fill="#ffffff"/>
  </clipPath>
  <clipPath id="clipPath970">
   <rect width="396.12" height="380.06" fill="#ffffff"/>
  </clipPath>
  <clipPath id="clipPath976">
   <rect width="396.12" height="380.06" fill="#ffffff"/>
  </clipPath>
  <clipPath id="clipPath988">
   <rect width="396.12" height="380.06" fill="#ffffff"/>
  </clipPath>
  <clipPath id="clipPath994">
   <rect width="396.12" height="380.06" fill="#ffffff"/>
  </clipPath>
  <clipPath id="clipPath1000">
   <rect width="396.12" height="380.06" fill="#ffffff"/>
  </clipPath>
  <clipPath id="clipPath1006">
   <rect width="396.12" height="380.06" fill="#ffffff"/>
  </clipPath>
  <clipPath id="clipPath1012">
   <rect width="396.12" height="380.06" fill="#ffffff"/>
  </clipPath>
  <clipPath id="clipPath1018">
   <rect width="396.12" height="380.06" fill="#ffffff"/>
  </clipPath>
  <clipPath id="clipPath1024">
   <rect width="396.12" height="380.06" fill="#ffffff"/>
  </clipPath>
  <clipPath id="clipPath1030">
   <rect width="396.12" height="380.06" fill="#ffffff"/>
  </clipPath>
  <clipPath id="clipPath1036">
   <rect width="396.12" height="380.06" fill="#ffffff"/>
  </clipPath>
  <clipPath id="clipPath1042">
   <rect width="396.12" height="380.06" fill="#ffffff"/>
  </clipPath>
  <clipPath id="clipPath1048">
   <rect width="396.12" height="380.06" fill="#ffffff"/>
  </clipPath>
  <clipPath id="clipPath1054">
   <rect width="396.12" height="380.06" fill="#ffffff"/>
  </clipPath>
  <clipPath id="clipPath1060">
   <rect width="396.12" height="380.06" fill="#ffffff"/>
  </clipPath>
  <clipPath id="clipPath1066">
   <rect width="396.12" height="380.06" fill="#ffffff"/>
  </clipPath>
  <clipPath id="clipPath1072">
   <rect width="396.12" height="380.06" fill="#ffffff"/>
  </clipPath>
  <clipPath id="clipPath1078">
   <rect width="396.12" height="380.06" fill="#ffffff"/>
  </clipPath>
  <clipPath id="clipPath1084">
   <rect width="396.12" height="380.06" fill="#ffffff"/>
  </clipPath>
  <clipPath id="clipPath1090">
   <rect width="396.12" height="380.06" fill="#ffffff"/>
  </clipPath>
  <clipPath id="clipPath1096">
   <rect width="396.12" height="380.06" fill="#ffffff"/>
  </clipPath>
  <clipPath id="clipPath1102">
   <rect width="396.12" height="380.06" fill="#ffffff"/>
  </clipPath>
  <clipPath id="clipPath1108">
   <rect width="396.12" height="380.06" fill="#ffffff"/>
  </clipPath>
  <clipPath id="clipPath1114">
   <rect width="396.12" height="380.06" fill="#ffffff"/>
  </clipPath>
  <clipPath id="clipPath1120">
   <rect width="396.12" height="380.06" fill="#ffffff"/>
  </clipPath>
  <clipPath id="clipPath1126">
   <rect width="396.12" height="380.06" fill="#ffffff"/>
  </clipPath>
  <clipPath id="clipPath1132">
   <rect width="396.12" height="380.06" fill="#ffffff"/>
  </clipPath>
  <clipPath id="clipPath1138">
   <rect width="396.12" height="380.06" fill="#ffffff"/>
  </clipPath>
  <clipPath id="clipPath1144">
   <rect width="396.12" height="380.06" fill="#ffffff"/>
  </clipPath>
  <clipPath id="clipPath1150">
   <rect width="396.12" height="380.06" fill="#ffffff"/>
  </clipPath>
  <clipPath id="clipPath1156">
   <rect width="396.12" height="380.06" fill="#ffffff"/>
  </clipPath>
  <clipPath id="clipPath1162">
   <rect width="396.12" height="380.06" fill="#ffffff"/>
  </clipPath>
 </defs>
</svg>
