<svg width="397" height="381" viewBox="0 0 397 381" fill="none" xmlns="http://www.w3.org/2000/svg">
<g clip-path="url(#clip0_1033_7057)">
<path opacity="0.2" fill-rule="evenodd" clip-rule="evenodd" d="M174.112 287.092L91.9859 334.509C90.2623 335.505 88.1425 335.505 86.4188 334.509L4.29307 287.092C0.57809 284.951 0.57809 279.598 4.29307 277.457L42.567 255.36L86.4188 230.04C88.1425 229.044 90.2623 229.044 91.9859 230.04L135.827 255.36L174.112 277.457C177.816 279.598 177.827 284.951 174.112 287.092Z" fill="#B2BFE8"/>
<path opacity="0.2" d="M0 265.734L30.2766 248.261L85.6801 216.272C87.8534 215.019 90.5406 215.019 92.714 216.272L148.107 248.261L196.477 276.183C201.166 278.891 201.166 285.657 196.477 288.366L92.714 348.277C90.5406 349.529 87.8534 349.529 85.6801 348.277L0 298.804" stroke="#B2BFE8" stroke-width="1.0706" stroke-miterlimit="10"/>
<path d="M283.848 108.537C264.46 108.537 248.679 92.7568 248.679 73.3682C248.679 53.9796 264.46 38.199 283.848 38.199C303.237 38.199 319.017 53.9796 319.017 73.3682C319.017 92.7568 303.237 108.537 283.848 108.537Z" fill="#D9E2FF"/>
<path d="M283.848 38.7344C302.98 38.7344 318.482 54.2367 318.482 73.3683C318.482 92.5 302.98 108.002 283.848 108.002C264.716 108.002 249.214 92.5 249.214 73.3683C249.214 54.2367 264.716 38.7344 283.848 38.7344ZM283.848 37.6638C264.16 37.6638 248.144 53.68 248.144 73.3683C248.144 93.0567 264.16 109.073 283.848 109.073C303.536 109.073 319.553 93.0567 319.553 73.3683C319.553 53.68 303.536 37.6638 283.848 37.6638Z" fill="white"/>
<path d="M276.054 57.609C276.054 57.609 270.648 63.4331 277.285 71.666C288.58 85.6694 261.59 97.0606 257.908 66.8483C255.563 47.5989 265.123 41.4858 277.264 39.2268" fill="#721FFA"/>
<path d="M310.678 95.2834C304.329 103.056 294.661 108.002 283.848 108.002C274.705 108.002 266.398 104.469 260.209 98.6772C265.766 91.4721 278.527 87.2432 278.527 87.2432L284.673 89.7163C284.673 89.7163 285.508 85.1341 292.36 85.9371C297.606 86.5366 310.678 95.2834 310.678 95.2834Z" fill="#C91540"/>
<path d="M286.503 94.609C289.651 93.3885 293.58 90.7334 292.017 82.9929L289.362 65.6278L275.112 67.8118L277.767 85.177C278.463 89.727 280.326 95.5404 286.503 94.609Z" fill="#FFECA7"/>
<path d="M255.188 73.3682H233.68C231.667 73.3682 229.751 72.5653 228.348 71.1307C214.463 56.9131 193.201 47.813 169.358 47.813C147.486 47.813 127.787 55.4678 113.965 67.694C101.343 78.8604 93.624 93.8488 93.624 110.325C93.624 128.536 103.067 144.927 118.119 156.361C119.479 157.389 120.271 159.006 120.271 160.718V162.945V177.902C120.271 180 122.809 181.049 124.297 179.572L134.521 169.347C136.009 167.859 138.215 167.356 140.206 168.041C149.188 171.135 159.038 172.848 169.369 172.848C211.197 172.848 245.114 144.852 245.114 110.325C245.114 104.169 244.033 98.2275 242.02 92.6069C241.046 89.8769 241.72 86.8364 243.776 84.7915L255.188 73.3682Z" fill="#D9E2FF"/>
<path d="M277.467 82.8536V84.4917C282.917 84.4381 283.195 81.3013 283.195 81.3013L277.467 82.8536Z" fill="#24386C"/>
<path d="M261.28 62.3731C263.796 80.6482 269.32 85.9263 283.976 81.7188C294.864 78.5927 301.042 69.4283 299.982 58.1442C298.922 46.8601 291.064 38.9698 279.78 40.0296C268.496 41.0895 259.428 48.8728 261.28 62.3731Z" fill="#FFECA7"/>
<path d="M271.194 64.5573L270.979 70.7774C270.947 71.7089 271.75 72.4476 272.671 72.3512" stroke="#24386C" stroke-width="0.5353" stroke-miterlimit="10" stroke-linecap="round"/>
<path d="M275.947 65.1031C276.609 65.1031 277.146 64.5663 277.146 63.904C277.146 63.2418 276.609 62.705 275.947 62.705C275.285 62.705 274.748 63.2418 274.748 63.904C274.748 64.5663 275.285 65.1031 275.947 65.1031Z" fill="#24386C"/>
<path d="M266.954 64.5784C267.616 64.5784 268.153 64.0416 268.153 63.3794C268.153 62.7171 267.616 62.1803 266.954 62.1803C266.292 62.1803 265.755 62.7171 265.755 63.3794C265.755 64.0416 266.292 64.5784 266.954 64.5784Z" fill="#24386C"/>
<path d="M275.476 76.0341C274.074 76.6871 272.757 76.6443 271.74 76.4088" stroke="#24386C" stroke-width="0.5353" stroke-miterlimit="10" stroke-linecap="round"/>
<path d="M280.326 55.1572C280.326 55.1572 287.306 58.1335 285.015 68.4648C280.326 89.6948 308.665 86.7828 300.657 56.0565C295.764 37.2889 283.591 35.9507 271.6 38.9162C253.154 43.4877 251.591 65.7133 280.326 55.1572Z" fill="#721FFA"/>
<path d="M282.167 51.5602L280.133 55.2966" stroke="#C91540" stroke-width="2.1412" stroke-miterlimit="10" stroke-linecap="round"/>
<path d="M154.52 91.9218H157.036C157.507 91.9218 157.978 91.9967 158.46 92.1573C158.941 92.3179 159.359 92.5534 159.744 92.8746C160.13 93.1958 160.429 93.5919 160.676 94.063C160.911 94.534 161.029 95.0907 161.029 95.7117C161.029 96.3433 160.911 96.9 160.676 97.3711C160.44 97.8422 160.13 98.2383 159.744 98.5595C159.359 98.8806 158.931 99.1162 158.46 99.2661C157.989 99.4267 157.517 99.5016 157.036 99.5016H154.52V91.9218ZM155.291 98.795H156.789C157.368 98.795 157.871 98.7094 158.288 98.5274C158.717 98.3561 159.07 98.1205 159.348 97.8315C159.627 97.5424 159.841 97.2105 159.969 96.8465C160.108 96.4825 160.173 96.0971 160.173 95.7117C160.173 95.3156 160.108 94.9408 159.969 94.5661C159.83 94.2021 159.627 93.8702 159.348 93.5812C159.07 93.2921 158.717 93.0566 158.288 92.8853C157.86 92.714 157.368 92.6176 156.789 92.6176H155.291V98.795Z" fill="#24386C"/>
<path d="M163.331 92.5641C163.331 92.714 163.277 92.8317 163.17 92.9388C163.063 93.0352 162.946 93.078 162.817 93.078C162.689 93.078 162.571 93.0352 162.464 92.9388C162.357 92.8425 162.303 92.714 162.303 92.5641C162.303 92.4142 162.357 92.2965 162.464 92.2001C162.571 92.1037 162.689 92.0609 162.817 92.0609C162.946 92.0609 163.063 92.1037 163.17 92.2001C163.277 92.2965 163.331 92.4142 163.331 92.5641ZM163.17 99.5016H162.464V94.4912H163.17V99.5016Z" fill="#24386C"/>
<path d="M168.084 96.4291V96.3006C168.084 95.4334 167.656 95.0052 166.8 95.0052C166.211 95.0052 165.708 95.1979 165.269 95.594L164.841 95.0908C165.312 94.609 166.018 94.3628 166.96 94.3628C167.207 94.3628 167.442 94.3949 167.667 94.4699C167.892 94.5448 168.084 94.6519 168.245 94.791C168.406 94.9302 168.545 95.1229 168.641 95.3477C168.738 95.5726 168.791 95.8295 168.791 96.14V98.3775C168.791 98.5703 168.802 98.7737 168.812 98.9771C168.834 99.1912 168.855 99.3625 168.877 99.5017H168.192C168.17 99.3839 168.159 99.2447 168.149 99.1056C168.138 98.9664 168.138 98.8272 168.138 98.688H168.117C167.913 99.0199 167.667 99.2661 167.378 99.4053C167.089 99.5445 166.757 99.6301 166.35 99.6301C166.125 99.6301 165.911 99.598 165.708 99.5445C165.504 99.4803 165.312 99.3946 165.151 99.2661C164.99 99.1377 164.862 98.9878 164.766 98.8058C164.669 98.6238 164.616 98.4097 164.616 98.1741C164.616 97.7673 164.723 97.4461 164.926 97.2106C165.14 96.9751 165.397 96.8038 165.718 96.6967C166.04 96.5896 166.372 96.5147 166.736 96.4826C167.1 96.4505 167.421 96.4398 167.72 96.4398H168.084V96.4291ZM167.72 97.0072C167.538 97.0072 167.314 97.0179 167.057 97.0286C166.789 97.05 166.532 97.0928 166.286 97.1571C166.04 97.2213 165.826 97.3284 165.654 97.4675C165.483 97.6067 165.397 97.8101 165.397 98.0564C165.397 98.2169 165.429 98.3561 165.494 98.4739C165.558 98.5917 165.654 98.688 165.761 98.763C165.879 98.8379 165.997 98.8914 166.136 98.9236C166.275 98.9557 166.414 98.9664 166.564 98.9664C166.821 98.9664 167.046 98.9235 167.228 98.8379C167.41 98.7523 167.581 98.6345 167.71 98.4953C167.838 98.3561 167.935 98.1741 167.988 97.9814C168.042 97.7887 168.074 97.5746 168.074 97.3605V96.9965H167.72V97.0072Z" fill="#24386C"/>
<path d="M171.296 99.5016H170.59V91.4078H171.296V99.5016Z" fill="#24386C"/>
<path d="M178.062 96.9965C178.062 97.3712 177.998 97.7245 177.859 98.0457C177.72 98.3669 177.548 98.6452 177.313 98.8808C177.077 99.1163 176.799 99.2983 176.467 99.4268C176.146 99.5552 175.782 99.6302 175.397 99.6302C175.011 99.6302 174.658 99.5659 174.326 99.4268C174.005 99.2983 173.716 99.1163 173.48 98.8808C173.245 98.6452 173.063 98.3669 172.934 98.0457C172.806 97.7245 172.731 97.3712 172.731 96.9965C172.731 96.6218 172.795 96.2685 172.934 95.9473C173.063 95.6261 173.245 95.3478 173.48 95.1122C173.716 94.8767 173.994 94.6947 174.326 94.5662C174.647 94.4378 175 94.3735 175.397 94.3735C175.793 94.3735 176.146 94.4378 176.467 94.5662C176.788 94.6947 177.067 94.8767 177.313 95.1122C177.548 95.3478 177.73 95.6261 177.859 95.9473C177.987 96.2685 178.062 96.6111 178.062 96.9965ZM177.291 96.9965C177.291 96.7181 177.249 96.4612 177.163 96.215C177.077 95.9687 176.949 95.7653 176.788 95.5833C176.628 95.4013 176.424 95.2621 176.189 95.1551C175.953 95.048 175.696 95.0052 175.407 95.0052C175.118 95.0052 174.851 95.0587 174.615 95.1551C174.379 95.2621 174.187 95.4013 174.026 95.5833C173.866 95.7653 173.737 95.9687 173.651 96.215C173.566 96.4612 173.523 96.7181 173.523 96.9965C173.523 97.2749 173.566 97.5318 173.651 97.778C173.737 98.0243 173.866 98.2277 174.026 98.4097C174.187 98.5917 174.379 98.7309 174.615 98.8379C174.851 98.945 175.107 98.9878 175.407 98.9878C175.707 98.9878 175.964 98.9343 176.189 98.8379C176.424 98.7309 176.617 98.5917 176.788 98.4097C176.949 98.2277 177.077 98.0243 177.163 97.778C177.249 97.5318 177.291 97.2749 177.291 96.9965Z" fill="#24386C"/>
<path d="M179.732 100.508C179.936 100.786 180.214 101.011 180.535 101.172C180.867 101.343 181.242 101.429 181.649 101.429C182.002 101.429 182.313 101.375 182.559 101.268C182.805 101.161 183.008 101.022 183.158 100.85C183.308 100.679 183.426 100.465 183.49 100.23C183.554 99.994 183.587 99.737 183.587 99.4694V98.5701H183.565C183.34 98.9127 183.062 99.1589 182.73 99.2981C182.398 99.4373 182.056 99.5122 181.692 99.5122C181.328 99.5122 180.985 99.448 180.664 99.3195C180.343 99.191 180.075 99.0197 179.839 98.7949C179.604 98.5701 179.422 98.3024 179.283 97.9812C179.144 97.6708 179.079 97.3282 179.079 96.9642C179.079 96.6002 179.144 96.2576 179.272 95.9471C179.401 95.6366 179.583 95.3583 179.807 95.1227C180.032 94.8872 180.3 94.7052 180.61 94.5767C180.921 94.4483 181.263 94.384 181.638 94.384C181.788 94.384 181.949 94.3947 182.12 94.4269C182.291 94.459 182.452 94.5018 182.623 94.5767C182.794 94.6517 182.955 94.748 183.115 94.8658C183.276 94.9943 183.437 95.1549 183.576 95.3476H183.597V94.5125H184.304V99.4801C184.304 99.7477 184.272 100.037 184.197 100.347C184.133 100.658 183.993 100.936 183.801 101.193C183.608 101.45 183.33 101.664 182.987 101.835C182.634 102.007 182.184 102.092 181.617 102.092C181.113 102.092 180.675 102.007 180.278 101.846C179.882 101.686 179.529 101.429 179.208 101.086L179.732 100.508ZM179.861 96.9321C179.861 97.1997 179.904 97.4459 180 97.6815C180.096 97.917 180.225 98.1204 180.396 98.2917C180.567 98.463 180.76 98.6022 180.985 98.7092C181.21 98.8163 181.456 98.8591 181.724 98.8591C181.981 98.8591 182.227 98.8163 182.452 98.72C182.687 98.6236 182.891 98.4951 183.073 98.3238C183.255 98.1525 183.383 97.9598 183.48 97.7243C183.576 97.4888 183.619 97.2211 183.608 96.9321C183.608 96.6644 183.565 96.4182 183.48 96.1826C183.394 95.9471 183.265 95.7437 183.105 95.5724C182.944 95.4011 182.741 95.2619 182.505 95.1549C182.27 95.0478 182.002 95.005 181.713 95.005C181.445 95.005 181.199 95.0585 180.974 95.1549C180.749 95.2619 180.557 95.4011 180.385 95.5724C180.214 95.7437 180.086 95.9471 179.989 96.1826C179.904 96.4182 179.861 96.6644 179.861 96.9321Z" fill="#24386C"/>
<path d="M153.449 106.022C153.117 105.529 152.625 105.283 151.983 105.283C151.779 105.283 151.587 105.315 151.394 105.369C151.201 105.422 151.03 105.508 150.869 105.615C150.709 105.722 150.591 105.872 150.505 106.043C150.409 106.214 150.366 106.428 150.366 106.664C150.366 107.007 150.462 107.274 150.655 107.467C150.848 107.66 151.083 107.81 151.372 107.927C151.661 108.045 151.972 108.163 152.315 108.259C152.657 108.356 152.968 108.484 153.257 108.645C153.546 108.805 153.781 109.019 153.974 109.287C154.167 109.555 154.263 109.908 154.263 110.368C154.263 110.711 154.188 111.021 154.038 111.3C153.888 111.578 153.696 111.803 153.46 111.985C153.225 112.167 152.957 112.317 152.657 112.413C152.357 112.509 152.058 112.563 151.768 112.563C151.308 112.563 150.858 112.477 150.441 112.295C150.023 112.113 149.67 111.835 149.37 111.439L150.077 110.936C150.238 111.214 150.473 111.439 150.762 111.599C151.051 111.771 151.394 111.846 151.801 111.846C151.993 111.846 152.186 111.814 152.379 111.76C152.571 111.696 152.743 111.61 152.893 111.492C153.043 111.375 153.171 111.225 153.267 111.053C153.364 110.882 153.417 110.689 153.417 110.465C153.417 110.197 153.364 109.983 153.246 109.812C153.139 109.64 152.989 109.49 152.807 109.373C152.625 109.255 152.422 109.158 152.186 109.073C151.95 108.998 151.715 108.912 151.469 108.837C151.222 108.762 150.987 108.666 150.751 108.57C150.516 108.473 150.312 108.345 150.13 108.184C149.948 108.034 149.799 107.842 149.692 107.606C149.584 107.371 149.52 107.082 149.52 106.739C149.52 106.375 149.584 106.054 149.734 105.786C149.874 105.518 150.056 105.294 150.291 105.112C150.527 104.93 150.784 104.801 151.083 104.716C151.372 104.63 151.672 104.587 151.983 104.587C152.411 104.587 152.796 104.651 153.15 104.79C153.503 104.93 153.824 105.165 154.124 105.508L153.449 106.022Z" fill="#24386C"/>
<path d="M159.209 108.516C159.091 108.334 158.92 108.173 158.695 108.045C158.481 107.916 158.235 107.852 157.957 107.852C157.667 107.841 157.4 107.895 157.164 107.991C156.929 108.088 156.736 108.227 156.575 108.409C156.415 108.591 156.286 108.805 156.201 109.051C156.115 109.298 156.072 109.565 156.072 109.854C156.072 110.143 156.115 110.4 156.201 110.646C156.286 110.893 156.415 111.107 156.575 111.289C156.736 111.471 156.939 111.61 157.164 111.706C157.4 111.803 157.657 111.856 157.957 111.846C158.235 111.846 158.481 111.781 158.695 111.653C158.909 111.524 159.081 111.364 159.209 111.182L159.787 111.621C159.541 111.91 159.252 112.135 158.942 112.274C158.631 112.413 158.299 112.488 157.957 112.499C157.55 112.509 157.186 112.445 156.854 112.306C156.522 112.177 156.244 111.995 156.008 111.76C155.773 111.524 155.601 111.246 155.473 110.914C155.355 110.593 155.291 110.24 155.291 109.865C155.291 109.49 155.355 109.137 155.473 108.805C155.591 108.473 155.773 108.195 156.008 107.959C156.244 107.724 156.522 107.542 156.854 107.413C157.186 107.285 157.55 107.221 157.957 107.231C158.299 107.242 158.631 107.306 158.942 107.445C159.252 107.585 159.541 107.799 159.787 108.098L159.209 108.516Z" fill="#24386C"/>
<path d="M161.211 110.036C161.233 110.283 161.297 110.518 161.393 110.743C161.49 110.968 161.629 111.15 161.789 111.321C161.95 111.482 162.143 111.61 162.357 111.696C162.571 111.781 162.807 111.835 163.053 111.835C163.428 111.835 163.759 111.749 164.038 111.567C164.316 111.396 164.52 111.193 164.659 110.968L165.205 111.417C164.905 111.792 164.573 112.071 164.209 112.231C163.845 112.392 163.46 112.477 163.053 112.477C162.678 112.477 162.335 112.413 162.025 112.274C161.715 112.135 161.436 111.963 161.211 111.728C160.987 111.492 160.805 111.214 160.676 110.893C160.548 110.572 160.473 110.218 160.473 109.844C160.473 109.469 160.537 109.116 160.665 108.794C160.794 108.473 160.976 108.195 161.201 107.959C161.425 107.724 161.693 107.542 162.004 107.413C162.314 107.285 162.646 107.221 162.999 107.221C163.374 107.221 163.717 107.285 164.016 107.424C164.316 107.563 164.562 107.735 164.776 107.959C164.98 108.184 165.13 108.452 165.237 108.752C165.344 109.051 165.397 109.373 165.397 109.726V110.047H161.211V110.036ZM164.616 109.458C164.616 108.976 164.477 108.591 164.188 108.302C163.899 108.013 163.502 107.852 162.989 107.852C162.764 107.852 162.539 107.895 162.325 107.981C162.111 108.066 161.918 108.195 161.757 108.334C161.597 108.484 161.468 108.655 161.372 108.848C161.276 109.041 161.233 109.244 161.233 109.448H164.616V109.458Z" fill="#24386C"/>
<path d="M167.346 107.338C167.356 107.478 167.367 107.606 167.378 107.745C167.378 107.874 167.378 108.013 167.378 108.152H167.399C167.474 108.013 167.581 107.895 167.699 107.777C167.817 107.66 167.956 107.563 168.106 107.478C168.256 107.392 168.416 107.328 168.588 107.285C168.759 107.242 168.919 107.221 169.08 107.221C169.722 107.221 170.193 107.392 170.504 107.724C170.814 108.066 170.964 108.548 170.964 109.169V112.349H170.258V109.576C170.258 109.019 170.161 108.591 169.969 108.291C169.776 107.992 169.423 107.842 168.898 107.842C168.866 107.842 168.759 107.852 168.598 107.884C168.438 107.917 168.266 107.992 168.084 108.12C167.902 108.248 167.742 108.441 167.592 108.698C167.453 108.955 167.378 109.308 167.378 109.769V112.338H166.671V108.43C166.671 108.291 166.671 108.12 166.66 107.917C166.65 107.713 166.639 107.51 166.618 107.328H167.346V107.338Z" fill="#24386C"/>
<path d="M175.835 109.276V109.148C175.835 108.281 175.407 107.852 174.551 107.852C173.962 107.852 173.459 108.045 173.02 108.441L172.592 107.938C173.063 107.456 173.769 107.21 174.711 107.21C174.958 107.21 175.193 107.242 175.418 107.317C175.643 107.392 175.835 107.499 175.996 107.638C176.157 107.777 176.296 107.97 176.392 108.195C176.489 108.42 176.542 108.677 176.542 108.987V111.225C176.542 111.417 176.553 111.621 176.574 111.824C176.596 112.038 176.617 112.21 176.628 112.349H175.943C175.921 112.231 175.9 112.092 175.9 111.953C175.9 111.814 175.878 111.674 175.878 111.535H175.857C175.653 111.867 175.407 112.113 175.129 112.252C174.851 112.402 174.508 112.477 174.09 112.477C173.866 112.477 173.651 112.445 173.448 112.392C173.245 112.338 173.052 112.242 172.902 112.113C172.741 111.985 172.613 111.835 172.517 111.653C172.42 111.471 172.377 111.257 172.377 111.021C172.377 110.614 172.485 110.293 172.688 110.058C172.902 109.822 173.159 109.651 173.48 109.544C173.801 109.426 174.133 109.362 174.497 109.33C174.861 109.298 175.193 109.287 175.493 109.287H175.835V109.276ZM175.471 109.854C175.289 109.854 175.065 109.865 174.808 109.876C174.54 109.897 174.283 109.94 174.037 110.004C173.791 110.068 173.577 110.176 173.405 110.315C173.234 110.454 173.138 110.657 173.138 110.904C173.138 111.064 173.17 111.203 173.234 111.321C173.298 111.439 173.395 111.535 173.502 111.61C173.619 111.685 173.748 111.739 173.887 111.771C174.026 111.803 174.165 111.814 174.305 111.814C174.561 111.814 174.786 111.771 174.968 111.685C175.15 111.599 175.322 111.482 175.45 111.342C175.579 111.203 175.675 111.021 175.728 110.829C175.782 110.636 175.825 110.422 175.825 110.208V109.844H175.471V109.854Z" fill="#24386C"/>
<path d="M178.255 108.891C178.255 108.666 178.255 108.441 178.234 108.216C178.223 107.992 178.212 107.692 178.212 107.328H178.908V108.259H178.929C178.983 108.12 179.047 107.992 179.144 107.874C179.24 107.745 179.347 107.638 179.475 107.531C179.604 107.424 179.765 107.349 179.936 107.296C180.107 107.231 180.311 107.21 180.525 107.21C180.728 107.21 180.899 107.231 181.049 107.274L180.91 107.97C180.814 107.938 180.685 107.917 180.503 107.917C180.236 107.917 180 107.97 179.807 108.077C179.615 108.184 179.454 108.313 179.326 108.473C179.197 108.634 179.101 108.805 179.047 108.987C178.983 109.169 178.962 109.351 178.962 109.522V112.349H178.255V108.891Z" fill="#24386C"/>
<path d="M182.762 105.411C182.762 105.561 182.709 105.679 182.602 105.786C182.494 105.882 182.377 105.925 182.248 105.925C182.12 105.925 182.002 105.882 181.895 105.786C181.788 105.69 181.734 105.561 181.734 105.411C181.734 105.261 181.788 105.144 181.895 105.047C182.002 104.951 182.12 104.908 182.248 104.908C182.377 104.908 182.494 104.951 182.602 105.047C182.709 105.144 182.762 105.261 182.762 105.411ZM182.602 112.349H181.895V107.338H182.602V112.349Z" fill="#24386C"/>
<path d="M189.368 109.844C189.368 110.218 189.303 110.572 189.164 110.893C189.025 111.214 188.854 111.492 188.618 111.728C188.383 111.963 188.104 112.145 187.773 112.274C187.451 112.402 187.087 112.477 186.702 112.477C186.317 112.477 185.963 112.413 185.631 112.274C185.31 112.145 185.021 111.963 184.786 111.728C184.55 111.492 184.368 111.214 184.24 110.893C184.111 110.572 184.036 110.218 184.036 109.844C184.036 109.469 184.1 109.116 184.24 108.794C184.368 108.473 184.55 108.195 184.786 107.959C185.021 107.724 185.299 107.542 185.631 107.413C185.953 107.285 186.306 107.221 186.702 107.221C187.098 107.221 187.451 107.285 187.773 107.413C188.094 107.542 188.372 107.724 188.618 107.959C188.854 108.195 189.036 108.473 189.164 108.794C189.293 109.116 189.368 109.458 189.368 109.844ZM188.597 109.844C188.597 109.565 188.554 109.308 188.468 109.062C188.383 108.816 188.254 108.612 188.094 108.43C187.933 108.248 187.73 108.109 187.494 108.002C187.259 107.895 187.002 107.852 186.713 107.852C186.424 107.852 186.156 107.906 185.92 108.002C185.685 108.109 185.492 108.248 185.332 108.43C185.171 108.612 185.042 108.816 184.957 109.062C184.871 109.308 184.828 109.565 184.828 109.844C184.828 110.122 184.871 110.379 184.957 110.625C185.042 110.871 185.171 111.075 185.332 111.257C185.492 111.439 185.685 111.578 185.92 111.685C186.156 111.792 186.413 111.835 186.713 111.835C187.012 111.835 187.269 111.781 187.494 111.685C187.73 111.578 187.922 111.439 188.094 111.257C188.254 111.075 188.383 110.871 188.468 110.625C188.554 110.379 188.597 110.122 188.597 109.844Z" fill="#24386C"/>
<path fill-rule="evenodd" clip-rule="evenodd" d="M89.2026 187.955L64.6002 202.161L39.9978 216.368V273.185L64.6002 287.392L89.2026 301.599L104.94 292.52L121.674 301.599L138.407 291.942V216.379L113.805 202.172L89.2026 187.955Z" fill="#201D1D"/>
<path fill-rule="evenodd" clip-rule="evenodd" d="M121.674 263.518V226.025L138.407 216.358V291.921L121.674 301.577V263.518Z" fill="#24386C"/>
<path fill-rule="evenodd" clip-rule="evenodd" d="M138.407 216.358L121.674 226.025L105.433 216.657L89.2026 207.29L72.9616 216.657L56.7313 226.025L39.9978 216.358L64.6002 202.151L89.2026 187.944L113.805 202.151L138.407 216.358Z" fill="#7D8CB5"/>
<path fill-rule="evenodd" clip-rule="evenodd" d="M39.9978 216.358L56.7313 226.025V263.518L72.9616 272.885L89.2026 282.253V301.567L64.6002 287.36L39.9978 273.153V216.358Z" fill="#B2BFE8"/>
<path fill-rule="evenodd" clip-rule="evenodd" d="M104.94 273.174L89.2026 282.264V301.577L104.94 292.499V273.174Z" fill="#24386C"/>
<path fill-rule="evenodd" clip-rule="evenodd" d="M89.2024 244.771L73.4646 235.693L89.2024 226.603L104.94 235.693L89.2024 244.771Z" fill="#7D8CB5"/>
<path fill-rule="evenodd" clip-rule="evenodd" d="M73.4646 235.693L89.2024 244.771V262.95L73.4646 253.861V235.693Z" fill="#B2BFE8"/>
<path fill-rule="evenodd" clip-rule="evenodd" d="M89.2026 244.771L104.94 235.693V253.861L89.2026 262.95V244.771Z" fill="#24386C"/>
<path fill-rule="evenodd" clip-rule="evenodd" d="M104.94 292.499L121.674 301.577V226.014L105.433 216.647L89.2025 207.279L72.9615 216.647L56.7312 226.014V263.507L72.9615 272.875L89.2025 282.242L104.94 273.153V292.499ZM104.94 253.861L89.2025 262.95L73.4647 253.861V235.693L89.2025 226.603L104.94 235.693V253.861Z" fill="#C91540"/>
<path d="M88.4639 282.274V262.95L72.801 253.936L72.4263 272.95L88.4639 282.274Z" fill="url(#paint0_linear_1033_7057)"/>
<path d="M154.905 132.701C157.347 132.701 159.327 130.721 159.327 128.279C159.327 125.837 157.347 123.858 154.905 123.858C152.463 123.858 150.484 125.837 150.484 128.279C150.484 130.721 152.463 132.701 154.905 132.701Z" fill="white"/>
<path d="M169.358 132.701C171.8 132.701 173.78 130.721 173.78 128.279C173.78 125.837 171.8 123.858 169.358 123.858C166.916 123.858 164.937 125.837 164.937 128.279C164.937 130.721 166.916 132.701 169.358 132.701Z" fill="white"/>
<path d="M183.811 132.701C186.253 132.701 188.233 130.721 188.233 128.279C188.233 125.837 186.253 123.858 183.811 123.858C181.37 123.858 179.39 125.837 179.39 128.279C179.39 130.721 181.37 132.701 183.811 132.701Z" fill="white"/>
<path fill-rule="evenodd" clip-rule="evenodd" d="M127.915 192.569H49.7616C45.0295 192.569 41.1968 188.736 41.1968 184.004C41.1968 179.272 45.0295 175.439 49.7616 175.439H127.915C132.647 175.439 136.48 179.272 136.48 184.004C136.48 188.736 132.647 192.569 127.915 192.569Z" fill="white" stroke="#B2BFE8" stroke-width="1.0706" stroke-miterlimit="10"/>
<path d="M58.3369 186.434H58.3584V180.011H59.1292V187.591H58.1656L53.6477 181.103H53.6263V187.591H52.8555V180.011H53.819L58.3369 186.434Z" fill="#24386C"/>
<path d="M61.4204 185.278C61.4418 185.524 61.506 185.76 61.6024 185.985C61.6987 186.21 61.8379 186.392 61.9985 186.563C62.1591 186.724 62.3518 186.852 62.5659 186.938C62.78 187.023 63.0155 187.077 63.2618 187.077C63.6365 187.077 63.9684 186.991 64.2467 186.809C64.5251 186.638 64.7285 186.434 64.8677 186.21L65.4137 186.659C65.1139 187.034 64.782 187.312 64.418 187.473C64.054 187.634 63.6686 187.719 63.2618 187.719C62.8871 187.719 62.5445 187.655 62.234 187.516C61.9235 187.377 61.6452 187.205 61.4204 186.97C61.1955 186.734 61.0135 186.456 60.8851 186.135C60.7566 185.814 60.6816 185.46 60.6816 185.086C60.6816 184.711 60.7459 184.357 60.8743 184.036C61.0028 183.715 61.1848 183.437 61.4096 183.201C61.6345 182.966 61.9021 182.784 62.2126 182.655C62.5231 182.527 62.855 182.463 63.2083 182.463C63.583 182.463 63.9256 182.527 64.2253 182.666C64.5251 182.805 64.7713 182.976 64.9855 183.201C65.1889 183.426 65.3388 183.694 65.4458 183.993C65.5529 184.293 65.6064 184.614 65.6064 184.968V185.289H61.4204V185.278ZM64.8249 184.7C64.8249 184.218 64.6857 183.833 64.3966 183.544C64.1076 183.255 63.7114 183.094 63.1975 183.094C62.9727 183.094 62.7479 183.137 62.5338 183.223C62.3197 183.308 62.127 183.437 61.9664 183.576C61.8058 183.726 61.6773 183.897 61.5809 184.09C61.4846 184.283 61.4418 184.486 61.4418 184.689H64.8249V184.7Z" fill="#24386C"/>
<path d="M70.4992 187.591C70.4885 187.451 70.4778 187.323 70.4671 187.184C70.4564 187.045 70.4671 186.916 70.4671 186.777H70.4457C70.3708 186.916 70.2637 187.034 70.1459 187.152C70.0282 187.269 69.889 187.366 69.7391 187.451C69.5892 187.537 69.4286 187.601 69.2573 187.644C69.0861 187.687 68.9255 187.719 68.7649 187.719C68.1225 187.719 67.6514 187.548 67.341 187.205C67.0305 186.863 66.8806 186.381 66.8806 185.76V182.58H67.5872V185.353C67.5872 185.631 67.6086 185.878 67.6514 186.092C67.6943 186.306 67.7692 186.488 67.8763 186.627C67.9833 186.766 68.1225 186.884 68.2938 186.959C68.4651 187.034 68.6899 187.066 68.9576 187.066C68.9897 187.066 69.0968 187.055 69.2573 187.023C69.4179 186.991 69.5892 186.916 69.7712 186.788C69.9532 186.659 70.1138 186.466 70.2637 186.209C70.4136 185.953 70.4778 185.599 70.4778 185.139V182.569H71.1844V186.477C71.1844 186.616 71.1844 186.788 71.1951 186.991C71.2058 187.194 71.2165 187.398 71.238 187.58H70.4992V187.591Z" fill="#24386C"/>
<path d="M72.9076 184.143C72.9076 183.919 72.9076 183.694 72.8862 183.469C72.8755 183.244 72.8647 182.944 72.8647 182.58H73.5606V183.512H73.5821C73.6356 183.373 73.6998 183.244 73.7962 183.126C73.8925 182.998 73.9996 182.891 74.1281 182.784C74.2565 182.677 74.4171 182.602 74.5884 182.548C74.7597 182.484 74.9631 182.463 75.1772 182.463C75.3807 182.463 75.552 182.484 75.7018 182.527L75.5627 183.223C75.4663 183.191 75.3378 183.169 75.1558 183.169C74.8882 183.169 74.6527 183.223 74.4599 183.33C74.2672 183.437 74.1066 183.565 73.9782 183.726C73.8497 183.886 73.7533 184.058 73.6998 184.24C73.6356 184.422 73.6142 184.604 73.6142 184.775V187.601H72.9076V184.143Z" fill="#24386C"/>
<path d="M79.5989 184.518V184.39C79.5989 183.522 79.1707 183.094 78.3142 183.094C77.7254 183.094 77.2222 183.287 76.7832 183.683L76.355 183.18C76.826 182.698 77.5326 182.452 78.4748 182.452C78.721 182.452 78.9565 182.484 79.1814 182.559C79.4062 182.634 79.5989 182.741 79.7595 182.88C79.9201 183.019 80.0593 183.212 80.1556 183.437C80.252 183.662 80.3055 183.919 80.3055 184.229V186.467C80.3055 186.659 80.3162 186.863 80.3376 187.066C80.359 187.28 80.3804 187.451 80.3911 187.591H79.706C79.6845 187.473 79.6631 187.334 79.6631 187.195C79.6631 187.055 79.6417 186.916 79.6417 186.777H79.6203C79.4169 187.109 79.1707 187.355 78.8923 187.494C78.614 187.644 78.2714 187.719 77.8538 187.719C77.629 187.719 77.4149 187.687 77.2115 187.633C77.0081 187.58 76.8153 187.484 76.6655 187.355C76.5049 187.227 76.3764 187.077 76.28 186.895C76.1837 186.713 76.1409 186.499 76.1409 186.263C76.1409 185.856 76.2479 185.535 76.4513 185.3C76.6655 185.064 76.9224 184.893 77.2436 184.786C77.5648 184.668 77.8966 184.604 78.2607 184.572C78.6247 184.539 78.9565 184.529 79.2563 184.529H79.5989V184.518ZM79.2349 185.096C79.0529 185.096 78.8281 185.107 78.5711 185.118C78.3035 185.139 78.0465 185.182 77.8003 185.246C77.5541 185.31 77.3399 185.417 77.1686 185.557C76.9973 185.696 76.901 185.899 76.901 186.145C76.901 186.306 76.9331 186.445 76.9973 186.563C77.0616 186.681 77.1579 186.777 77.265 186.852C77.3828 186.927 77.5112 186.98 77.6504 187.013C77.7896 187.045 77.9288 187.055 78.0679 187.055C78.3249 187.055 78.5497 187.013 78.7317 186.927C78.9137 186.841 79.085 186.723 79.2135 186.584C79.342 186.445 79.4383 186.263 79.4918 186.07C79.5454 185.878 79.5882 185.664 79.5882 185.449V185.085H79.2349V185.096Z" fill="#24386C"/>
<path d="M82.8108 187.591H82.1042V179.497H82.8108V187.591Z" fill="#24386C"/>
<path d="M88.5174 186.884H92.575V187.591H87.7466V180.011H92.4465V180.717H88.5174V183.297H92.1896V184.004H88.5174V186.884Z" fill="#24386C"/>
<path d="M94.5126 182.58C94.5233 182.719 94.534 182.848 94.534 182.987C94.534 183.116 94.534 183.255 94.534 183.394H94.5554C94.6304 183.255 94.7374 183.137 94.8552 183.019C94.973 182.901 95.1121 182.805 95.262 182.719C95.4119 182.634 95.5725 182.57 95.7331 182.527C95.9044 182.484 96.065 182.463 96.2363 182.463C96.8786 182.463 97.3497 182.634 97.6602 182.966C97.9706 183.308 98.1205 183.79 98.1205 184.411V187.591H97.4246V184.818C97.4246 184.261 97.3283 183.833 97.1356 183.533C96.9429 183.233 96.5896 183.083 96.065 183.083C96.0329 183.083 95.9258 183.094 95.7652 183.126C95.6046 183.158 95.4226 183.233 95.2406 183.362C95.0586 183.49 94.898 183.683 94.7481 183.94C94.609 184.197 94.534 184.55 94.534 185.011V187.58H93.8274V183.672C93.8274 183.533 93.8167 183.362 93.806 183.158C93.7953 182.955 93.7846 182.752 93.7632 182.57H94.5126V182.58Z" fill="#24386C"/>
<path d="M103.442 183.758C103.324 183.576 103.153 183.415 102.938 183.287C102.724 183.158 102.478 183.094 102.189 183.094C101.9 183.083 101.632 183.137 101.407 183.233C101.172 183.33 100.979 183.469 100.808 183.651C100.647 183.833 100.519 184.047 100.433 184.293C100.348 184.539 100.305 184.807 100.305 185.096C100.305 185.385 100.348 185.642 100.433 185.888C100.519 186.135 100.647 186.349 100.808 186.531C100.969 186.713 101.172 186.852 101.407 186.948C101.643 187.045 101.9 187.098 102.189 187.087C102.467 187.087 102.714 187.023 102.938 186.895C103.163 186.766 103.324 186.606 103.442 186.424L104.02 186.863C103.773 187.152 103.484 187.376 103.174 187.516C102.863 187.655 102.532 187.73 102.189 187.74C101.782 187.751 101.418 187.687 101.086 187.548C100.754 187.419 100.476 187.237 100.24 187.002C100.005 186.766 99.8337 186.488 99.7052 186.156C99.5874 185.835 99.5232 185.481 99.5232 185.107C99.5232 184.732 99.5874 184.379 99.7052 184.047C99.823 183.715 100.005 183.437 100.24 183.201C100.476 182.966 100.754 182.784 101.086 182.655C101.418 182.527 101.782 182.462 102.189 182.473C102.532 182.484 102.863 182.548 103.174 182.687C103.484 182.826 103.773 183.04 104.02 183.34L103.442 183.758Z" fill="#24386C"/>
<path d="M110.015 185.086C110.015 185.46 109.95 185.814 109.822 186.135C109.694 186.456 109.512 186.734 109.265 186.97C109.03 187.205 108.751 187.387 108.42 187.516C108.098 187.644 107.734 187.719 107.349 187.719C106.964 187.719 106.61 187.655 106.278 187.516C105.957 187.387 105.679 187.205 105.443 186.97C105.208 186.734 105.026 186.456 104.887 186.135C104.747 185.814 104.694 185.46 104.694 185.086C104.694 184.711 104.758 184.357 104.887 184.036C105.015 183.715 105.197 183.437 105.443 183.201C105.679 182.966 105.957 182.784 106.278 182.655C106.6 182.527 106.964 182.463 107.349 182.463C107.745 182.463 108.098 182.527 108.42 182.655C108.741 182.784 109.03 182.966 109.265 183.201C109.501 183.437 109.683 183.715 109.822 184.036C109.95 184.357 110.015 184.711 110.015 185.086ZM109.244 185.086C109.244 184.807 109.201 184.55 109.115 184.304C109.03 184.058 108.901 183.854 108.73 183.672C108.559 183.49 108.366 183.351 108.141 183.244C107.906 183.137 107.649 183.094 107.349 183.094C107.049 183.094 106.792 183.148 106.567 183.244C106.332 183.351 106.139 183.49 105.979 183.672C105.818 183.854 105.69 184.058 105.604 184.304C105.518 184.55 105.475 184.807 105.475 185.086C105.475 185.364 105.518 185.621 105.604 185.867C105.69 186.113 105.818 186.317 105.979 186.499C106.139 186.681 106.332 186.82 106.567 186.927C106.803 187.034 107.06 187.077 107.349 187.077C107.638 187.077 107.906 187.023 108.141 186.927C108.377 186.831 108.569 186.681 108.73 186.499C108.891 186.317 109.019 186.113 109.115 185.867C109.201 185.632 109.244 185.364 109.244 185.086Z" fill="#24386C"/>
<path d="M116.299 187.591H115.593V186.756H115.571C115.454 186.927 115.325 187.077 115.164 187.194C115.004 187.312 114.843 187.419 114.672 187.494C114.501 187.569 114.319 187.633 114.137 187.666C113.955 187.698 113.783 187.719 113.623 187.719C113.227 187.719 112.873 187.655 112.542 187.516C112.22 187.387 111.942 187.205 111.706 186.97C111.471 186.734 111.289 186.456 111.15 186.135C111.021 185.813 110.957 185.46 110.957 185.085C110.957 184.711 111.021 184.357 111.15 184.036C111.278 183.715 111.46 183.437 111.706 183.201C111.942 182.966 112.22 182.784 112.542 182.655C112.863 182.527 113.227 182.462 113.623 182.462C113.783 182.462 113.955 182.484 114.137 182.516C114.319 182.548 114.49 182.612 114.672 182.687C114.854 182.762 115.004 182.869 115.164 182.987C115.325 183.105 115.454 183.255 115.571 183.426H115.593V179.508H116.299V187.591ZM111.728 185.085C111.728 185.364 111.771 185.621 111.856 185.867C111.942 186.113 112.07 186.317 112.242 186.499C112.402 186.681 112.606 186.82 112.831 186.927C113.055 187.034 113.323 187.077 113.623 187.077C113.912 187.077 114.169 187.023 114.415 186.927C114.661 186.82 114.875 186.681 115.057 186.499C115.239 186.317 115.379 186.113 115.475 185.867C115.571 185.621 115.625 185.364 115.625 185.085C115.625 184.807 115.571 184.55 115.475 184.304C115.379 184.058 115.239 183.854 115.057 183.672C114.875 183.49 114.661 183.351 114.415 183.244C114.169 183.137 113.901 183.094 113.623 183.094C113.334 183.094 113.066 183.148 112.831 183.244C112.595 183.351 112.402 183.49 112.242 183.672C112.081 183.854 111.953 184.058 111.856 184.304C111.76 184.55 111.728 184.807 111.728 185.085Z" fill="#24386C"/>
<path d="M118.333 185.278C118.355 185.524 118.419 185.76 118.515 185.985C118.612 186.21 118.751 186.392 118.911 186.563C119.072 186.724 119.265 186.852 119.479 186.938C119.693 187.023 119.928 187.077 120.175 187.077C120.549 187.077 120.881 186.991 121.16 186.809C121.438 186.638 121.641 186.434 121.781 186.21L122.327 186.659C122.027 187.034 121.695 187.312 121.331 187.473C120.967 187.634 120.581 187.719 120.175 187.719C119.8 187.719 119.457 187.655 119.147 187.516C118.836 187.377 118.558 187.205 118.333 186.97C118.108 186.734 117.926 186.456 117.798 186.135C117.669 185.814 117.594 185.46 117.594 185.086C117.594 184.711 117.659 184.357 117.787 184.036C117.916 183.715 118.098 183.437 118.322 183.201C118.547 182.966 118.815 182.784 119.125 182.655C119.436 182.527 119.768 182.463 120.121 182.463C120.496 182.463 120.838 182.527 121.138 182.666C121.438 182.805 121.684 182.976 121.898 183.201C122.102 183.426 122.252 183.694 122.359 183.993C122.466 184.293 122.519 184.614 122.519 184.968V185.289H118.333V185.278ZM121.738 184.7C121.738 184.218 121.599 183.833 121.309 183.544C121.02 183.255 120.624 183.094 120.11 183.094C119.886 183.094 119.661 183.137 119.447 183.223C119.233 183.308 119.04 183.437 118.879 183.576C118.719 183.726 118.59 183.897 118.494 184.09C118.397 184.283 118.355 184.486 118.355 184.689H121.738V184.7Z" fill="#24386C"/>
<path d="M123.869 184.143C123.869 183.919 123.869 183.694 123.858 183.469C123.847 183.244 123.836 182.944 123.826 182.58H124.522V183.512H124.543C124.597 183.373 124.661 183.244 124.757 183.126C124.853 182.998 124.961 182.891 125.1 182.784C125.228 182.687 125.389 182.602 125.56 182.548C125.731 182.495 125.935 182.463 126.149 182.463C126.352 182.463 126.524 182.484 126.673 182.527L126.534 183.223C126.438 183.191 126.309 183.169 126.127 183.169C125.86 183.169 125.624 183.223 125.432 183.33C125.239 183.437 125.078 183.565 124.95 183.726C124.821 183.886 124.725 184.058 124.671 184.24C124.607 184.422 124.586 184.604 124.586 184.775V187.601H123.879V184.143H123.869Z" fill="#24386C"/>
<path opacity="0.3" fill-rule="evenodd" clip-rule="evenodd" d="M128.579 196.059H49.1087C42.4495 196.059 37.0537 190.663 37.0537 184.004C37.0537 177.345 42.4495 171.949 49.1087 171.949H128.579C135.238 171.949 140.634 177.345 140.634 184.004C140.634 190.663 135.238 196.059 128.579 196.059Z" stroke="#B2BFE8" stroke-width="1.0706" stroke-miterlimit="10"/>
<path d="M283.848 24.6987C310.72 24.6987 332.517 46.4854 332.517 73.3681C332.517 100.24 310.731 122.038 283.848 122.038C256.976 122.038 235.179 100.251 235.179 73.3681C235.179 46.4961 256.965 24.6987 283.848 24.6987ZM283.848 23.6281C256.419 23.6281 234.108 45.9394 234.108 73.3681C234.108 100.797 256.419 123.108 283.848 123.108C311.277 123.108 333.588 100.797 333.588 73.3681C333.588 45.9394 311.266 23.6281 283.848 23.6281Z" fill="#D9E2FF"/>
<g opacity="0.5">
<path opacity="0.5" d="M283.848 5.21379C321.491 5.21379 352.003 35.7259 352.003 73.3682C352.003 111.01 321.491 141.523 283.848 141.523C246.206 141.523 215.694 111.01 215.694 73.3682C215.694 35.7259 246.206 5.21379 283.848 5.21379ZM283.848 4.14319C245.671 4.14319 214.623 35.2013 214.623 73.3682C214.623 111.535 245.681 142.593 283.848 142.593C322.026 142.593 353.073 111.535 353.073 73.3682C353.073 35.2013 322.015 4.14319 283.848 4.14319Z" fill="#D9E2FF"/>
</g>
<path d="M79.9309 100.711C79.9309 83.6566 87.9283 68.1437 100.99 56.5812C112.713 46.2071 128.515 39.0233 146.287 36.7537" stroke="#D9E2FF" stroke-width="1.0706" stroke-miterlimit="10"/>
<path d="M288.709 356.189C330.441 356.189 364.272 322.358 364.272 280.626C364.272 238.893 330.441 205.063 288.709 205.063C246.976 205.063 213.146 238.893 213.146 280.626C213.146 322.358 246.976 356.189 288.709 356.189Z" fill="#D9E2FF"/>
<path fill-rule="evenodd" clip-rule="evenodd" d="M133.6 253.368L125.303 248.583L133.6 243.797L141.898 248.583L133.6 253.368Z" fill="#7D8CB5"/>
<path fill-rule="evenodd" clip-rule="evenodd" d="M125.314 248.583L133.611 253.368V262.95L125.314 258.164V248.583Z" fill="#B2BFE8"/>
<path fill-rule="evenodd" clip-rule="evenodd" d="M133.6 253.368L141.897 248.583V258.154L133.6 262.939V253.368Z" fill="#C91540"/>
<path d="M235.132 235.723C236.123 234.732 236.418 233.421 235.79 232.794C235.163 232.166 233.852 232.461 232.861 233.452C231.87 234.443 231.575 235.755 232.202 236.382C232.829 237.009 234.141 236.714 235.132 235.723Z" fill="#7D8CB5"/>
<g opacity="0.5">
<g opacity="0.5">
<path opacity="0.5" d="M288.709 198.436C334.102 198.436 370.899 235.232 370.899 280.626C370.899 326.019 334.102 362.816 288.709 362.816C243.315 362.816 206.519 326.019 206.519 280.626C206.519 235.232 243.315 198.436 288.709 198.436ZM288.709 197.365C242.801 197.365 205.448 234.718 205.448 280.626C205.448 326.533 242.801 363.886 288.709 363.886C334.616 363.886 371.969 326.533 371.969 280.626C371.969 234.708 334.616 197.365 288.709 197.365Z" fill="#D9E2FF"/>
</g>
</g>
<path d="M138.407 255.766C164.648 244.771 183.704 275.562 189.999 237.309C194.432 210.405 221.946 220.576 234.601 235.168" stroke="#C91540" stroke-width="1.0706" stroke-miterlimit="10" stroke-linecap="round"/>
<path opacity="0.5" fill-rule="evenodd" clip-rule="evenodd" d="M131.844 306.888L148.492 297.274L138.043 291.824L121.395 301.438L131.844 306.888Z" fill="url(#paint1_linear_1033_7057)"/>
<path opacity="0.5" fill-rule="evenodd" clip-rule="evenodd" d="M115.839 316.234L131.941 306.813L104.908 292.37L89.3093 301.374L115.839 316.234Z" fill="url(#paint2_linear_1033_7057)"/>
<path d="M333.406 242.641C345.421 242.641 355.161 232.901 355.161 220.886C355.161 208.871 345.421 199.132 333.406 199.132C321.392 199.132 311.652 208.871 311.652 220.886C311.652 232.901 321.392 242.641 333.406 242.641Z" fill="#D9E2FF"/>
<path d="M333.406 199.667C345.129 199.667 354.626 209.163 354.626 220.886C354.626 232.609 345.129 242.105 333.406 242.105C321.694 242.105 312.187 232.609 312.187 220.886C312.187 209.163 321.694 199.667 333.406 199.667ZM333.406 198.596C321.116 198.596 311.116 208.596 311.116 220.886C311.116 233.177 321.116 243.176 333.406 243.176C345.697 243.176 355.696 233.177 355.696 220.886C355.696 208.596 345.697 198.596 333.406 198.596Z" fill="white"/>
<path d="M324.092 219.227H323.321V211.647H327.893V212.354H324.092V214.934H327.625V215.64H324.092V219.227Z" fill="#24386C"/>
<path d="M329.145 219.227H328.246L331.544 211.647H332.293L335.59 219.227H334.691L333.856 217.236H329.98L329.145 219.227ZM330.27 216.529H333.556L331.918 212.546L330.27 216.529Z" fill="#24386C"/>
<path d="M344.273 219.227H339.937C339.391 219.227 338.877 219.13 338.417 218.938C337.945 218.745 337.539 218.477 337.207 218.135C336.864 217.792 336.597 217.375 336.404 216.904C336.211 216.433 336.115 215.908 336.115 215.341C336.115 214.773 336.211 214.259 336.404 213.777C336.597 213.306 336.864 212.889 337.207 212.546C337.549 212.204 337.956 211.925 338.417 211.743C338.888 211.551 339.391 211.454 339.937 211.454C340.483 211.454 340.986 211.551 341.457 211.743C341.928 211.936 342.324 212.204 342.667 212.546C343.009 212.889 343.277 213.306 343.47 213.777C343.662 214.248 343.759 214.773 343.759 215.341C343.759 216.026 343.62 216.636 343.341 217.182C343.063 217.728 342.603 218.167 341.992 218.488V218.509H344.283V219.227H344.273ZM336.939 215.341C336.939 215.758 337.003 216.165 337.143 216.54C337.282 216.914 337.474 217.257 337.731 217.546C337.988 217.835 338.299 218.071 338.673 218.253C339.048 218.424 339.466 218.52 339.937 218.52C340.397 218.52 340.815 218.435 341.189 218.253C341.564 218.071 341.875 217.846 342.132 217.546C342.388 217.246 342.581 216.914 342.72 216.54C342.86 216.154 342.924 215.758 342.924 215.341C342.924 214.923 342.86 214.516 342.72 214.141C342.581 213.756 342.388 213.424 342.132 213.124C341.875 212.825 341.564 212.6 341.189 212.418C340.815 212.246 340.397 212.15 339.937 212.15C339.466 212.15 339.048 212.236 338.673 212.418C338.299 212.589 337.988 212.825 337.731 213.124C337.474 213.424 337.282 213.756 337.143 214.141C337.003 214.527 336.939 214.923 336.939 215.341Z" fill="#24386C"/>
<path d="M323.032 222.353H325.291C325.601 222.353 325.912 222.385 326.201 222.449C326.49 222.514 326.758 222.621 326.982 222.771C327.207 222.92 327.389 223.113 327.528 223.359C327.668 223.606 327.732 223.905 327.732 224.259C327.732 224.676 327.614 225.03 327.379 225.319C327.143 225.618 326.822 225.811 326.394 225.918V225.94C326.929 225.982 327.346 226.164 327.646 226.507C327.946 226.839 328.107 227.278 328.107 227.845C328.107 227.963 328.075 228.145 328.021 228.381C327.957 228.616 327.839 228.852 327.636 229.076C327.443 229.312 327.164 229.515 326.8 229.687C326.436 229.858 325.955 229.944 325.344 229.944H323.032V222.353ZM323.803 225.672H325.355C325.537 225.672 325.73 225.65 325.912 225.608C326.094 225.565 326.254 225.479 326.404 225.383C326.554 225.276 326.672 225.137 326.768 224.965C326.865 224.794 326.908 224.591 326.908 224.344C326.908 224.269 326.897 224.152 326.865 224.012C326.833 223.873 326.758 223.723 326.651 223.584C326.544 223.445 326.372 223.317 326.158 223.22C325.944 223.113 325.655 223.07 325.291 223.07H323.813V225.672H323.803ZM323.803 229.226H325.28C325.559 229.226 325.816 229.194 326.062 229.141C326.308 229.087 326.511 229.001 326.693 228.873C326.875 228.745 327.015 228.605 327.111 228.423C327.218 228.241 327.272 228.027 327.272 227.781C327.272 227.278 327.111 226.914 326.79 226.668C326.469 226.421 325.998 226.304 325.377 226.304H323.803V229.226Z" fill="#24386C"/>
<path d="M332.732 226.86V226.732C332.732 225.864 332.304 225.436 331.447 225.436C330.858 225.436 330.355 225.629 329.916 226.025L329.488 225.522C329.959 225.04 330.666 224.794 331.608 224.794C331.854 224.794 332.09 224.826 332.314 224.901C332.539 224.976 332.732 225.083 332.893 225.222C333.053 225.372 333.192 225.554 333.289 225.779C333.385 226.004 333.439 226.261 333.439 226.571V228.809C333.439 229.001 333.449 229.205 333.46 229.408C333.481 229.622 333.503 229.794 333.524 229.933H332.839C332.818 229.815 332.796 229.676 332.796 229.537C332.796 229.397 332.775 229.258 332.775 229.119H332.753C332.55 229.451 332.304 229.697 332.025 229.836C331.747 229.986 331.404 230.061 330.987 230.061C330.762 230.061 330.548 230.029 330.345 229.976C330.141 229.922 329.948 229.826 329.799 229.697C329.638 229.569 329.509 229.419 329.413 229.237C329.317 229.055 329.274 228.841 329.274 228.605C329.274 228.198 329.381 227.877 329.584 227.642C329.799 227.406 330.055 227.235 330.377 227.128C330.698 227.021 331.03 226.946 331.394 226.914C331.758 226.881 332.09 226.871 332.389 226.871H332.732V226.86ZM332.368 227.438C332.186 227.438 331.961 227.449 331.704 227.46C331.437 227.481 331.18 227.524 330.933 227.588C330.687 227.652 330.473 227.759 330.302 227.899C330.13 228.038 330.045 228.241 330.045 228.487C330.045 228.648 330.077 228.787 330.141 228.905C330.205 229.023 330.302 229.119 330.419 229.194C330.537 229.269 330.655 229.322 330.794 229.355C330.933 229.387 331.073 229.397 331.222 229.397C331.479 229.397 331.704 229.355 331.886 229.269C332.079 229.183 332.229 229.066 332.368 228.926C332.496 228.776 332.593 228.605 332.646 228.412C332.7 228.22 332.743 228.006 332.743 227.792V227.427H332.368V227.438Z" fill="#24386C"/>
<path d="M337.731 226.111C337.624 225.907 337.485 225.736 337.303 225.618C337.121 225.501 336.907 225.436 336.65 225.436C336.532 225.436 336.404 225.447 336.275 225.479C336.147 225.511 336.04 225.554 335.944 225.608C335.847 225.672 335.762 225.747 335.708 225.832C335.644 225.929 335.612 226.036 335.612 226.175C335.612 226.411 335.697 226.582 335.858 226.689C336.018 226.796 336.265 226.892 336.597 226.967L337.314 227.139C337.667 227.213 337.956 227.374 338.192 227.62C338.427 227.867 338.545 228.156 338.545 228.509C338.545 228.777 338.492 229.012 338.374 229.215C338.256 229.419 338.117 229.569 337.935 229.697C337.753 229.826 337.549 229.911 337.314 229.965C337.078 230.018 336.843 230.051 336.597 230.051C336.211 230.051 335.847 229.976 335.526 229.826C335.205 229.676 334.905 229.43 334.68 229.066L335.29 228.648C335.43 228.873 335.612 229.055 335.836 229.194C336.051 229.333 336.318 229.397 336.607 229.397C336.746 229.397 336.896 229.387 337.036 229.355C337.175 229.323 337.303 229.269 337.41 229.205C337.517 229.141 337.614 229.044 337.678 228.937C337.742 228.83 337.774 228.702 337.774 228.562C337.774 228.316 337.678 228.134 337.496 228.016C337.314 227.909 337.089 227.824 336.821 227.759L336.136 227.599C336.051 227.577 335.933 227.545 335.783 227.492C335.633 227.438 335.494 227.363 335.355 227.267C335.215 227.171 335.098 227.042 334.991 226.882C334.894 226.721 334.841 226.528 334.841 226.282C334.841 226.025 334.894 225.8 335.001 225.608C335.108 225.415 335.248 225.254 335.419 225.136C335.59 225.019 335.794 224.922 336.008 224.869C336.222 224.815 336.457 224.783 336.693 224.783C337.046 224.783 337.367 224.847 337.667 224.987C337.967 225.126 338.202 225.351 338.363 225.683L337.731 226.111Z" fill="#24386C"/>
<path d="M340.13 227.62C340.151 227.866 340.215 228.102 340.312 228.327C340.408 228.552 340.547 228.734 340.708 228.905C340.868 229.066 341.061 229.194 341.275 229.28C341.489 229.365 341.725 229.419 341.971 229.419C342.346 229.419 342.678 229.333 342.956 229.151C343.234 228.98 343.438 228.776 343.577 228.552L344.123 229.001C343.823 229.376 343.491 229.654 343.138 229.815C342.774 229.976 342.389 230.061 341.971 230.061C341.596 230.061 341.254 229.997 340.943 229.858C340.633 229.719 340.354 229.547 340.13 229.312C339.905 229.076 339.723 228.798 339.594 228.477C339.466 228.156 339.391 227.802 339.391 227.428C339.391 227.053 339.455 226.7 339.584 226.378C339.712 226.057 339.894 225.779 340.119 225.543C340.344 225.308 340.611 225.126 340.922 224.997C341.232 224.869 341.564 224.805 341.917 224.805C342.292 224.805 342.635 224.869 342.935 225.008C343.234 225.147 343.491 225.318 343.695 225.543C343.898 225.768 344.048 226.036 344.166 226.336C344.273 226.635 344.326 226.956 344.326 227.31V227.631H340.13V227.62ZM343.534 227.042C343.534 226.56 343.395 226.175 343.106 225.886C342.817 225.597 342.421 225.436 341.907 225.436C341.682 225.436 341.457 225.479 341.243 225.565C341.029 225.65 340.836 225.779 340.676 225.918C340.515 226.068 340.387 226.239 340.29 226.432C340.194 226.625 340.151 226.828 340.151 227.031H343.534V227.042Z" fill="#24386C"/>
<path fill-rule="evenodd" clip-rule="evenodd" d="M271.879 240.799C257.576 240.799 245.981 250.264 245.981 261.944C245.981 266.847 248.047 271.354 251.484 274.941C252.137 275.615 252.458 276.536 252.458 277.478V284.277C252.458 285.401 253.818 285.968 254.61 285.165L257.576 282.2C258.625 281.15 260.167 280.84 261.558 281.332C264.717 282.456 268.207 283.088 271.879 283.088C286.182 283.088 297.777 273.624 297.777 261.944C297.777 250.274 286.182 240.799 271.879 240.799Z" fill="#7D8CB5"/>
<path fill-rule="evenodd" clip-rule="evenodd" d="M317.572 271.836C329.145 271.836 338.524 279.502 338.524 288.944C338.524 292.916 336.854 296.567 334.07 299.468C333.546 300.014 333.278 300.764 333.278 301.524V307.027C333.278 307.937 332.175 308.386 331.533 307.744L329.135 305.346C328.289 304.5 327.036 304.243 325.912 304.639C323.353 305.549 320.527 306.063 317.562 306.063C305.988 306.063 296.61 298.398 296.61 288.955C296.621 279.502 305.999 271.836 317.572 271.836Z" fill="#7D8CB5"/>
<path fill-rule="evenodd" clip-rule="evenodd" d="M271.879 239.29C257.576 239.29 245.981 248.754 245.981 260.434C245.981 265.337 248.047 269.845 251.484 273.431C252.137 274.106 252.458 275.026 252.458 275.969V282.767C252.458 283.891 253.818 284.458 254.61 283.655L257.576 280.69C258.625 279.641 260.167 279.33 261.558 279.823C264.717 280.947 268.207 281.579 271.879 281.579C286.182 281.579 297.777 272.114 297.777 260.434C297.777 248.765 286.182 239.29 271.879 239.29Z" fill="white"/>
<path fill-rule="evenodd" clip-rule="evenodd" d="M273.463 292.959C263.753 292.959 255.884 299.383 255.884 307.305C255.884 310.635 257.287 313.696 259.62 316.127C260.059 316.587 260.284 317.208 260.284 317.85V322.465C260.284 323.225 261.205 323.61 261.74 323.075L263.753 321.062C264.46 320.356 265.509 320.141 266.451 320.473C268.592 321.234 270.969 321.662 273.453 321.662C283.163 321.662 291.032 315.238 291.032 307.316C291.032 299.393 283.163 292.959 273.463 292.959Z" fill="#7D8CB5"/>
<path fill-rule="evenodd" clip-rule="evenodd" d="M317.572 270.519C329.145 270.519 338.524 278.185 338.524 287.627C338.524 291.599 336.854 295.25 334.07 298.151C333.546 298.697 333.278 299.447 333.278 300.207V305.71C333.278 306.62 332.175 307.069 331.533 306.427L329.135 304.029C328.289 303.183 327.036 302.926 325.912 303.322C323.353 304.232 320.527 304.746 317.562 304.746C305.988 304.746 296.61 297.081 296.61 287.638C296.621 278.185 305.999 270.519 317.572 270.519Z" fill="white"/>
<path fill-rule="evenodd" clip-rule="evenodd" d="M273.463 291.546C263.753 291.546 255.884 297.969 255.884 305.892C255.884 309.221 257.287 312.283 259.62 314.714C260.059 315.174 260.284 315.795 260.284 316.437V321.052C260.284 321.812 261.205 322.197 261.74 321.662L263.753 319.649C264.46 318.943 265.509 318.728 266.451 319.06C268.592 319.82 270.969 320.249 273.453 320.249C283.163 320.249 291.032 313.825 291.032 305.903C291.032 297.98 283.163 291.546 273.463 291.546Z" fill="white"/>
<path d="M309.393 283.302H325.751" stroke="#B2BFE8" stroke-width="1.0706" stroke-miterlimit="10" stroke-linecap="round"/>
<path d="M309.393 287.756H325.751" stroke="#B2BFE8" stroke-width="1.0706" stroke-miterlimit="10" stroke-linecap="round"/>
<path d="M309.393 292.21H325.751" stroke="#B2BFE8" stroke-width="1.0706" stroke-miterlimit="10" stroke-linecap="round"/>
<path d="M262.222 256.055H281.525" stroke="#B2BFE8" stroke-width="1.0706" stroke-miterlimit="10" stroke-linecap="round"/>
<path d="M262.222 260.509H281.525" stroke="#B2BFE8" stroke-width="1.0706" stroke-miterlimit="10" stroke-linecap="round"/>
<path d="M262.222 264.963H281.525" stroke="#B2BFE8" stroke-width="1.0706" stroke-miterlimit="10" stroke-linecap="round"/>
<path d="M267.564 301.802H279.994" stroke="#B2BFE8" stroke-width="1.0706" stroke-miterlimit="10" stroke-linecap="round"/>
<path d="M267.564 306.256H279.994" stroke="#B2BFE8" stroke-width="1.0706" stroke-miterlimit="10" stroke-linecap="round"/>
<path d="M267.564 310.709H279.994" stroke="#B2BFE8" stroke-width="1.0706" stroke-miterlimit="10" stroke-linecap="round"/>
</g>
<defs>
<linearGradient id="paint0_linear_1033_7057" x1="88.6793" y1="267.741" x2="72.2761" y2="268.487" gradientUnits="userSpaceOnUse">
<stop stop-color="#FF3364"/>
<stop offset="1" stop-color="#C91540" stop-opacity="0"/>
</linearGradient>
<linearGradient id="paint1_linear_1033_7057" x1="137.43" y1="303.662" x2="132.456" y2="295.046" gradientUnits="userSpaceOnUse">
<stop stop-color="#F2F6FF" stop-opacity="0"/>
<stop offset="1" stop-color="#24386C"/>
</linearGradient>
<linearGradient id="paint2_linear_1033_7057" x1="117.18" y1="315.455" x2="104.115" y2="292.826" gradientUnits="userSpaceOnUse">
<stop stop-color="#F2F6FF" stop-opacity="0"/>
<stop offset="1" stop-color="#24386C"/>
</linearGradient>
<clipPath id="clip0_1033_7057">
<rect width="396.122" height="380.063" fill="white"/>
</clipPath>
</defs>
</svg>
