<svg width="389" height="373" viewBox="0 0 389 373" fill="none" xmlns="http://www.w3.org/2000/svg">
<g clip-path="url(#clip0_512_332)">
<path opacity="0.15" fill-rule="evenodd" clip-rule="evenodd" d="M356.622 321.405L268.244 372.425H120.257L31.878 321.395C24.78 317.3 24.78 307.052 31.878 302.957L105.074 260.694L188.937 212.289C192.234 210.389 196.287 210.389 199.584 212.289L283.416 260.694L356.633 302.957C363.72 307.073 363.72 317.31 356.622 321.405Z" stroke="#B2BFE8" stroke-width="1.05" stroke-miterlimit="10"/>
<path opacity="0.2" fill-rule="evenodd" clip-rule="evenodd" d="M319.043 319.274L226.422 372.75H162.089L69.468 319.274C64.0185 316.124 64.0185 308.259 69.468 305.109L125.717 272.633L190.166 235.431C192.696 233.972 195.815 233.972 198.345 235.431L262.773 272.633L319.043 305.12C324.492 308.259 324.492 316.124 319.043 319.274Z" stroke="#B2BFE8" stroke-width="1.05" stroke-miterlimit="10"/>
<path opacity="0.2" fill-rule="evenodd" clip-rule="evenodd" d="M290.797 317.667L197.421 371.585C195.468 372.719 193.053 372.719 191.089 371.585L97.713 317.667C93.492 315.231 93.492 309.141 97.713 306.705L141.235 281.579L191.1 252.798C193.053 251.664 195.468 251.664 197.431 252.798L247.275 281.579L290.808 306.705C295.008 309.141 295.008 315.231 290.797 317.667Z" stroke="#B2BFE8" stroke-width="1.05" stroke-miterlimit="10"/>
<path opacity="0.2" fill-rule="evenodd" clip-rule="evenodd" d="M274.333 316.732L196.875 361.452C195.247 362.386 193.252 362.386 191.625 361.452L114.167 316.722C110.67 314.706 110.67 309.645 114.167 307.629L150.265 286.786L191.625 262.909C193.252 261.975 195.247 261.975 196.875 262.909L238.224 286.786L274.333 307.629C277.84 309.666 277.84 314.716 274.333 316.732Z" fill="#B2BFE8"/>
<path fill-rule="evenodd" clip-rule="evenodd" d="M194.25 229.089L171.381 242.287L148.523 255.486V308.29L171.381 321.489L194.25 334.698L208.877 326.256L224.427 334.698L239.978 325.72V255.486L217.109 242.287L194.25 229.089Z" fill="#201D1D"/>
<path fill-rule="evenodd" clip-rule="evenodd" d="M224.427 299.323V264.474L239.978 255.496V325.72L224.427 334.698V299.323Z" fill="#24386C"/>
<path fill-rule="evenodd" clip-rule="evenodd" d="M239.978 255.486L224.427 264.463L209.339 255.748L194.25 247.033L179.162 255.748L164.073 264.463L148.523 255.486L171.381 242.287L194.25 229.089L217.109 242.287L239.978 255.486Z" fill="#7589BE"/>
<path fill-rule="evenodd" clip-rule="evenodd" d="M148.523 255.486L164.073 264.463V299.313L179.162 308.028L194.25 316.743V334.698L171.381 321.499L148.523 308.301V255.486Z" fill="#B2BFE8"/>
<path fill-rule="evenodd" clip-rule="evenodd" d="M208.876 308.29L194.25 316.743V334.698L208.876 326.256V308.29Z" fill="#24386C"/>
<path fill-rule="evenodd" clip-rule="evenodd" d="M194.25 281.893L179.624 273.451L194.25 265.009L208.876 273.451L194.25 281.893Z" fill="#7589BE"/>
<path fill-rule="evenodd" clip-rule="evenodd" d="M179.624 273.451L194.25 281.893V298.788L179.624 290.346V273.451Z" fill="#B2BFE8"/>
<path fill-rule="evenodd" clip-rule="evenodd" d="M194.25 281.893L208.876 273.451V290.335L194.25 298.788V281.893Z" fill="#24386C"/>
<path fill-rule="evenodd" clip-rule="evenodd" d="M208.876 326.256L224.427 334.698V264.474L209.338 255.759L194.25 247.044L179.162 255.759L164.073 264.474V299.323L179.162 308.038L194.25 316.753L208.876 308.301V326.256ZM208.876 290.335L194.25 298.788L179.624 290.346V273.462L194.25 265.02L208.876 273.462V290.335Z" fill="#C91540"/>
<path d="M193.568 316.743V298.788L179.015 290.419L178.668 308.091L193.568 316.743Z" fill="url(#paint0_linear_512_332)"/>
<path opacity="0.6" d="M239.978 255.486H148.523L130.179 112.581H258.195L239.978 255.486Z" fill="url(#paint1_linear_512_332)"/>
<path d="M201.652 241.804L209.034 237.625L194.25 229.089L179.791 237.436L186.931 241.657C191.457 244.345 197.074 244.398 201.652 241.804Z" fill="#24386C"/>
<path d="M241.531 199.5L199.447 241.584C196.581 244.45 191.919 244.45 189.052 241.584L146.968 199.5C144.102 196.633 144.102 191.971 146.968 189.105L189.052 147.021C191.919 144.154 196.581 144.154 199.447 147.021L241.531 189.105C244.398 191.982 244.398 196.633 241.531 199.5Z" fill="white"/>
<path opacity="0.2" d="M189.053 147.032L171.801 164.283L186.134 178.616C190.617 183.099 197.883 183.099 202.377 178.616L216.709 164.283L199.458 147.032C196.581 144.155 191.919 144.155 189.053 147.032Z" fill="#B2BFE8"/>
<path opacity="0.2" d="M231.599 199.5L199.448 231.651C196.581 234.517 191.919 234.517 189.053 231.651L156.902 199.5C154.035 196.633 154.035 191.971 156.902 189.105L189.053 156.954C191.919 154.087 196.581 154.087 199.448 156.954L231.599 189.105C234.465 191.982 234.465 196.633 231.599 199.5Z" stroke="#B2BFE8" stroke-width="1.05" stroke-miterlimit="10"/>
<path opacity="0.2" d="M221.613 199.5L199.447 221.666C196.581 224.532 191.919 224.532 189.052 221.666L166.887 199.5C164.02 196.634 164.02 191.972 166.887 189.105L189.052 166.95C191.919 164.084 196.581 164.084 199.447 166.95L221.613 189.116C224.479 191.982 224.479 196.634 221.613 199.5Z" stroke="#B2BFE8" stroke-width="1.05" stroke-miterlimit="10"/>
<path d="M257.082 119.616L199.448 177.251C196.581 180.117 191.919 180.117 189.053 177.251L131.418 119.616C128.552 116.75 128.552 112.088 131.418 109.221L189.053 51.5865C191.919 48.72 196.581 48.72 199.448 51.5865L257.082 109.221C259.949 112.088 259.949 116.739 257.082 119.616Z" fill="#7D8CB5"/>
<path d="M257.082 117.516L199.448 175.151C196.581 178.017 191.919 178.017 189.053 175.151L131.418 117.516C128.552 114.65 128.552 109.988 131.418 107.121L189.053 49.4865C191.919 46.62 196.581 46.62 199.448 49.4865L257.082 107.121C259.949 109.988 259.949 114.639 257.082 117.516Z" fill="#D9E2FF"/>
<path d="M173.712 106.092L176.967 98.2484H178.469V107.887H177.492V99.5609H177.45L173.964 107.887H173.45L169.963 99.5609H169.932V107.887H168.956V98.2484H170.457L173.712 106.092Z" fill="#24386C"/>
<path d="M184.832 103.981V103.813C184.832 102.711 184.286 102.165 183.194 102.165C182.448 102.165 181.797 102.417 181.251 102.91L180.705 102.27C181.304 101.65 182.207 101.346 183.404 101.346C183.708 101.346 184.013 101.388 184.296 101.482C184.58 101.577 184.832 101.713 185.042 101.902C185.252 102.091 185.42 102.322 185.546 102.606C185.672 102.889 185.735 103.225 185.735 103.614V106.459C185.735 106.701 185.745 106.963 185.766 107.226C185.787 107.499 185.819 107.709 185.84 107.887H184.968C184.937 107.73 184.916 107.562 184.905 107.383C184.895 107.205 184.884 107.026 184.884 106.848H184.853C184.59 107.278 184.275 107.583 183.918 107.772C183.561 107.961 183.12 108.055 182.606 108.055C182.322 108.055 182.049 108.013 181.787 107.94C181.524 107.866 181.293 107.74 181.083 107.583C180.884 107.425 180.716 107.226 180.59 106.995C180.464 106.764 180.401 106.491 180.401 106.186C180.401 105.672 180.537 105.262 180.8 104.968C181.062 104.674 181.398 104.454 181.808 104.307C182.217 104.16 182.637 104.065 183.099 104.034C183.561 104.002 183.981 103.981 184.359 103.981H184.832ZM184.37 104.716C184.139 104.716 183.855 104.727 183.519 104.748C183.183 104.769 182.847 104.821 182.543 104.916C182.228 105 181.965 105.136 181.734 105.315C181.503 105.493 181.398 105.745 181.398 106.06C181.398 106.27 181.44 106.449 181.524 106.596C181.608 106.743 181.724 106.869 181.871 106.963C182.018 107.058 182.175 107.131 182.354 107.163C182.532 107.205 182.711 107.226 182.889 107.226C183.215 107.226 183.498 107.173 183.74 107.058C183.981 106.953 184.181 106.806 184.349 106.617C184.517 106.428 184.632 106.218 184.706 105.966C184.779 105.714 184.821 105.451 184.821 105.168V104.706H184.37V104.716Z" fill="#24386C"/>
<path d="M191.11 102.333H189.273V106.092C189.273 106.334 189.294 106.522 189.336 106.669C189.378 106.816 189.441 106.932 189.525 107.016C189.609 107.1 189.703 107.153 189.819 107.184C189.934 107.216 190.06 107.236 190.197 107.236C190.354 107.236 190.512 107.215 190.669 107.173C190.837 107.131 190.984 107.069 191.121 106.995L191.163 107.825C190.827 107.982 190.428 108.056 189.955 108.056C189.787 108.056 189.609 108.034 189.42 107.992C189.231 107.95 189.063 107.856 188.905 107.73C188.748 107.604 188.622 107.426 188.527 107.216C188.422 106.995 188.38 106.712 188.38 106.355V102.344H187.036V101.525H188.38V99.729H189.283V101.525H191.121V102.333H191.11Z" fill="#24386C"/>
<path d="M196.969 103.015C196.812 102.784 196.602 102.585 196.318 102.417C196.045 102.249 195.731 102.175 195.374 102.175C195.006 102.165 194.67 102.228 194.376 102.354C194.082 102.48 193.83 102.658 193.62 102.889C193.41 103.12 193.252 103.383 193.147 103.698C193.042 104.013 192.979 104.349 192.979 104.716C192.979 105.084 193.032 105.42 193.147 105.735C193.252 106.05 193.41 106.323 193.62 106.543C193.83 106.774 194.082 106.942 194.376 107.079C194.67 107.205 195.006 107.268 195.374 107.257C195.731 107.257 196.045 107.173 196.318 107.016C196.591 106.848 196.812 106.648 196.969 106.417L197.704 106.974C197.389 107.341 197.032 107.625 196.633 107.793C196.234 107.971 195.814 108.066 195.384 108.076C194.869 108.087 194.397 108.003 193.987 107.835C193.578 107.667 193.21 107.436 192.916 107.131C192.622 106.827 192.391 106.48 192.244 106.06C192.087 105.651 192.013 105.199 192.013 104.716C192.013 104.233 192.087 103.792 192.244 103.372C192.402 102.963 192.622 102.606 192.916 102.301C193.21 101.997 193.567 101.766 193.987 101.598C194.407 101.43 194.869 101.346 195.384 101.356C195.825 101.367 196.234 101.461 196.633 101.64C197.032 101.818 197.389 102.091 197.704 102.459L196.969 103.015Z" fill="#24386C"/>
<path d="M198.891 97.5974H199.794V102.543H199.825C199.93 102.375 200.056 102.207 200.203 102.07C200.361 101.923 200.529 101.797 200.718 101.692C200.907 101.587 201.106 101.503 201.327 101.451C201.547 101.398 201.747 101.367 201.957 101.367C202.776 101.367 203.374 101.587 203.763 102.018C204.151 102.448 204.351 103.068 204.351 103.866V107.908H203.448V104.38C203.448 103.677 203.322 103.131 203.08 102.753C202.839 102.375 202.377 102.186 201.715 102.186C201.673 102.186 201.547 102.207 201.337 102.238C201.127 102.27 200.907 102.375 200.676 102.543C200.445 102.711 200.235 102.952 200.056 103.278C199.878 103.603 199.783 104.055 199.783 104.643V107.908H198.88V97.5974H198.891Z" fill="#24386C"/>
<path d="M207.764 99.0675C207.764 99.2565 207.701 99.414 207.564 99.54C207.428 99.666 207.281 99.7185 207.113 99.7185C206.945 99.7185 206.798 99.6555 206.661 99.54C206.525 99.4245 206.462 99.2565 206.462 99.0675C206.462 98.8785 206.525 98.721 206.661 98.595C206.798 98.469 206.945 98.4165 207.113 98.4165C207.281 98.4165 207.428 98.4795 207.564 98.595C207.701 98.7105 207.764 98.8785 207.764 99.0675ZM207.564 107.888H206.661V101.514H207.564V107.888Z" fill="#24386C"/>
<path d="M210.588 101.514C210.609 101.682 210.619 101.86 210.619 102.028C210.619 102.196 210.63 102.364 210.63 102.543H210.662C210.767 102.375 210.893 102.207 211.04 102.07C211.197 101.923 211.365 101.797 211.554 101.692C211.743 101.587 211.942 101.503 212.163 101.451C212.383 101.398 212.583 101.367 212.793 101.367C213.612 101.367 214.211 101.587 214.599 102.018C214.988 102.448 215.187 103.068 215.187 103.866V107.908H214.284V104.38C214.284 103.677 214.158 103.131 213.916 102.753C213.675 102.375 213.213 102.186 212.551 102.186C212.509 102.186 212.384 102.207 212.174 102.238C211.964 102.27 211.743 102.375 211.512 102.543C211.281 102.711 211.071 102.952 210.893 103.278C210.714 103.603 210.619 104.055 210.619 104.643V107.908H209.716V102.942C209.716 102.774 209.706 102.553 209.696 102.291C209.685 102.028 209.664 101.776 209.643 101.545H210.588V101.514Z" fill="#24386C"/>
<path d="M217.791 109.168C218.054 109.525 218.4 109.809 218.82 110.019C219.24 110.229 219.713 110.334 220.227 110.334C220.679 110.334 221.067 110.271 221.382 110.134C221.697 109.998 221.96 109.819 222.149 109.599C222.338 109.378 222.485 109.105 222.569 108.801C222.653 108.496 222.695 108.171 222.695 107.824V106.68H222.663C222.369 107.11 222.023 107.425 221.603 107.604C221.183 107.782 220.742 107.877 220.28 107.877C219.818 107.877 219.387 107.793 218.978 107.635C218.579 107.467 218.222 107.247 217.928 106.963C217.623 106.68 217.392 106.333 217.224 105.934C217.056 105.535 216.962 105.105 216.962 104.643C216.962 104.181 217.046 103.75 217.203 103.351C217.361 102.952 217.592 102.606 217.875 102.301C218.159 101.997 218.505 101.766 218.894 101.598C219.293 101.43 219.723 101.346 220.196 101.346C220.385 101.346 220.584 101.367 220.805 101.398C221.015 101.43 221.235 101.503 221.445 101.587C221.655 101.671 221.865 101.808 222.075 101.965C222.285 102.123 222.474 102.322 222.663 102.574H222.695V101.514H223.598V107.835C223.598 108.181 223.556 108.549 223.472 108.937C223.388 109.326 223.22 109.683 222.968 110.008C222.716 110.334 222.369 110.607 221.928 110.827C221.487 111.048 220.899 111.153 220.185 111.153C219.545 111.153 218.978 111.048 218.484 110.838C217.98 110.628 217.529 110.302 217.119 109.872L217.791 109.168ZM217.949 104.622C217.949 104.958 218.012 105.273 218.127 105.567C218.253 105.861 218.421 106.123 218.631 106.344C218.841 106.564 219.093 106.743 219.377 106.879C219.66 107.016 219.975 107.079 220.311 107.079C220.637 107.079 220.952 107.016 221.246 106.9C221.54 106.785 221.802 106.617 222.033 106.407C222.264 106.197 222.432 105.934 222.558 105.64C222.684 105.336 222.737 105.01 222.726 104.632C222.726 104.296 222.674 103.981 222.558 103.687C222.443 103.393 222.296 103.131 222.086 102.91C221.876 102.69 221.624 102.511 221.319 102.375C221.015 102.249 220.689 102.175 220.311 102.175C219.975 102.175 219.66 102.238 219.377 102.375C219.093 102.511 218.841 102.679 218.631 102.91C218.421 103.141 218.253 103.393 218.127 103.687C218.012 103.971 217.949 104.286 217.949 104.622Z" fill="#24386C"/>
<path d="M172.462 123.323H177.618V124.226H171.475V114.587H177.45V115.49H172.452V118.766H177.124V119.669H172.452V123.323H172.462Z" fill="#24386C"/>
<path d="M180.085 117.852C180.106 118.02 180.117 118.198 180.117 118.366C180.117 118.534 180.127 118.702 180.127 118.881H180.159C180.253 118.713 180.39 118.545 180.537 118.408C180.684 118.272 180.862 118.135 181.051 118.03C181.24 117.925 181.44 117.841 181.66 117.789C181.87 117.726 182.08 117.705 182.29 117.705C183.109 117.705 183.708 117.925 184.096 118.356C184.485 118.786 184.684 119.406 184.684 120.204V124.246H183.781V120.718C183.781 120.015 183.655 119.469 183.414 119.091C183.172 118.713 182.71 118.524 182.049 118.524C182.007 118.524 181.881 118.545 181.671 118.576C181.461 118.608 181.24 118.713 181.009 118.881C180.778 119.049 180.568 119.29 180.39 119.616C180.211 119.941 180.117 120.393 180.117 120.981V124.246H179.214V119.28C179.214 119.112 179.203 118.891 179.193 118.629C179.182 118.366 179.161 118.114 179.14 117.883H180.085V117.852Z" fill="#24386C"/>
<path d="M187.278 125.496C187.541 125.853 187.887 126.136 188.307 126.346C188.727 126.556 189.2 126.661 189.714 126.661C190.166 126.661 190.554 126.598 190.869 126.462C191.184 126.325 191.447 126.147 191.636 125.926C191.835 125.695 191.972 125.433 192.056 125.128C192.14 124.824 192.182 124.498 192.182 124.152V123.007H192.15C191.856 123.438 191.51 123.753 191.09 123.931C190.67 124.11 190.229 124.204 189.767 124.204C189.305 124.204 188.874 124.12 188.465 123.963C188.066 123.795 187.709 123.574 187.415 123.291C187.11 123.007 186.879 122.661 186.711 122.262C186.543 121.863 186.449 121.432 186.449 120.97C186.449 120.508 186.533 120.078 186.69 119.679C186.858 119.28 187.079 118.933 187.362 118.629C187.646 118.324 187.992 118.093 188.381 117.925C188.78 117.757 189.21 117.673 189.683 117.673C189.872 117.673 190.071 117.694 190.292 117.726C190.502 117.757 190.722 117.831 190.932 117.915C191.142 117.999 191.352 118.135 191.562 118.293C191.772 118.45 191.961 118.65 192.15 118.902H192.182V117.841H193.085V124.162C193.085 124.509 193.043 124.876 192.959 125.265C192.875 125.653 192.707 126.01 192.455 126.336C192.203 126.661 191.856 126.934 191.415 127.155C190.974 127.375 190.386 127.48 189.672 127.48C189.042 127.48 188.465 127.375 187.971 127.165C187.467 126.955 187.016 126.63 186.606 126.199L187.278 125.496ZM187.446 120.949C187.446 121.285 187.509 121.6 187.625 121.894C187.751 122.188 187.919 122.451 188.129 122.671C188.339 122.892 188.591 123.07 188.874 123.207C189.158 123.343 189.473 123.406 189.809 123.406C190.134 123.406 190.449 123.343 190.743 123.228C191.037 123.112 191.3 122.944 191.531 122.734C191.762 122.524 191.93 122.262 192.056 121.968C192.182 121.674 192.234 121.338 192.224 120.96C192.224 120.624 192.171 120.309 192.056 120.015C191.951 119.721 191.793 119.458 191.583 119.238C191.373 119.017 191.121 118.839 190.817 118.702C190.512 118.576 190.187 118.503 189.809 118.503C189.473 118.503 189.158 118.566 188.874 118.702C188.591 118.839 188.339 119.007 188.129 119.238C187.919 119.458 187.751 119.721 187.625 120.015C187.499 120.309 187.446 120.613 187.446 120.949Z" fill="#24386C"/>
<path d="M196.413 115.395C196.413 115.584 196.35 115.741 196.203 115.867C196.066 115.993 195.919 116.046 195.751 116.046C195.583 116.046 195.436 115.983 195.3 115.867C195.163 115.741 195.1 115.584 195.1 115.395C195.1 115.206 195.163 115.048 195.3 114.922C195.436 114.796 195.583 114.744 195.751 114.744C195.919 114.744 196.066 114.807 196.203 114.922C196.35 115.048 196.413 115.206 196.413 115.395ZM196.213 124.225H195.31V117.852H196.213V124.225Z" fill="#24386C"/>
<path d="M199.238 117.852C199.259 118.02 199.269 118.198 199.269 118.366C199.269 118.534 199.279 118.702 199.279 118.881H199.311C199.416 118.713 199.542 118.545 199.689 118.408C199.846 118.261 200.015 118.135 200.204 118.03C200.393 117.925 200.592 117.841 200.813 117.789C201.033 117.736 201.233 117.705 201.443 117.705C202.262 117.705 202.86 117.925 203.249 118.356C203.637 118.786 203.837 119.406 203.837 120.204V124.246H202.934V120.718C202.934 120.015 202.808 119.469 202.566 119.091C202.325 118.713 201.862 118.524 201.201 118.524C201.159 118.524 201.033 118.545 200.823 118.576C200.613 118.608 200.393 118.713 200.162 118.881C199.931 119.049 199.72 119.29 199.542 119.616C199.363 119.941 199.269 120.393 199.269 120.981V124.246H198.366V119.28C198.366 119.112 198.355 118.891 198.345 118.629C198.334 118.366 198.314 118.114 198.293 117.883H199.238V117.852Z" fill="#24386C"/>
<path d="M206.567 121.275C206.598 121.59 206.672 121.894 206.798 122.178C206.924 122.461 207.092 122.703 207.302 122.902C207.512 123.102 207.753 123.27 208.026 123.385C208.299 123.501 208.593 123.564 208.908 123.564C209.391 123.564 209.801 123.448 210.158 123.228C210.504 123.007 210.777 122.745 210.956 122.461L211.649 123.028C211.271 123.511 210.851 123.858 210.389 124.068C209.927 124.278 209.433 124.383 208.908 124.383C208.436 124.383 207.995 124.299 207.596 124.131C207.197 123.963 206.84 123.732 206.556 123.427C206.273 123.123 206.031 122.776 205.874 122.367C205.706 121.957 205.622 121.516 205.622 121.033C205.622 120.55 205.706 120.109 205.863 119.7C206.031 119.29 206.252 118.933 206.546 118.639C206.84 118.345 207.176 118.104 207.564 117.936C207.953 117.768 208.373 117.684 208.835 117.684C209.318 117.684 209.748 117.768 210.126 117.946C210.504 118.125 210.83 118.345 211.082 118.629C211.344 118.912 211.533 119.248 211.67 119.637C211.806 120.025 211.88 120.435 211.88 120.865V121.275H206.567ZM210.903 120.55C210.903 119.941 210.725 119.448 210.357 119.07C209.99 118.692 209.486 118.503 208.835 118.503C208.541 118.503 208.268 118.555 207.995 118.671C207.722 118.786 207.48 118.933 207.281 119.122C207.081 119.311 206.913 119.532 206.787 119.773C206.661 120.015 206.609 120.277 206.609 120.54H210.903V120.55Z" fill="#24386C"/>
<path d="M216.888 119.364C216.751 119.101 216.573 118.891 216.342 118.734C216.111 118.576 215.838 118.503 215.512 118.503C215.355 118.503 215.198 118.524 215.04 118.555C214.883 118.587 214.735 118.65 214.609 118.723C214.483 118.797 214.379 118.902 214.305 119.017C214.232 119.133 214.19 119.28 214.19 119.458C214.19 119.763 214.294 119.973 214.504 120.109C214.714 120.246 215.029 120.361 215.439 120.466L216.353 120.687C216.794 120.792 217.171 120.991 217.465 121.296C217.759 121.6 217.906 121.978 217.906 122.43C217.906 122.776 217.833 123.07 217.697 123.322C217.56 123.574 217.371 123.774 217.14 123.931C216.909 124.089 216.646 124.204 216.342 124.278C216.037 124.351 215.733 124.383 215.428 124.383C214.935 124.383 214.483 124.288 214.063 124.099C213.643 123.91 213.276 123.595 212.982 123.144L213.759 122.608C213.938 122.902 214.168 123.133 214.441 123.301C214.714 123.469 215.05 123.564 215.428 123.564C215.607 123.564 215.786 123.543 215.975 123.501C216.153 123.459 216.321 123.396 216.457 123.312C216.594 123.228 216.709 123.112 216.793 122.976C216.877 122.839 216.919 122.682 216.919 122.503C216.919 122.188 216.804 121.957 216.562 121.821C216.321 121.684 216.037 121.569 215.701 121.485L214.83 121.285C214.725 121.254 214.578 121.212 214.389 121.149C214.2 121.086 214.022 120.991 213.843 120.865C213.665 120.739 213.517 120.571 213.391 120.372C213.265 120.172 213.203 119.92 213.203 119.616C213.203 119.29 213.266 119.007 213.402 118.755C213.539 118.503 213.706 118.314 213.937 118.156C214.168 117.999 214.41 117.883 214.693 117.81C214.977 117.736 215.261 117.694 215.565 117.694C216.006 117.694 216.426 117.778 216.804 117.957C217.182 118.125 217.476 118.429 217.686 118.839L216.888 119.364Z" fill="#24386C"/>
<path d="M184.989 191.058H185.01V184.758H185.766V192.192H184.821L180.39 185.829H180.369V192.192H179.613V184.758H180.558L184.989 191.058Z" fill="#24386C"/>
<path d="M188.013 189.924C188.034 190.165 188.097 190.396 188.191 190.617C188.286 190.837 188.422 191.016 188.58 191.184C188.737 191.341 188.926 191.467 189.136 191.551C189.346 191.635 189.577 191.688 189.819 191.688C190.186 191.688 190.512 191.604 190.785 191.425C191.058 191.257 191.257 191.058 191.394 190.837L191.929 191.278C191.635 191.646 191.31 191.919 190.953 192.076C190.596 192.234 190.218 192.318 189.819 192.318C189.451 192.318 189.115 192.255 188.811 192.118C188.496 191.992 188.233 191.814 188.002 191.583C187.771 191.352 187.603 191.079 187.477 190.764C187.351 190.449 187.278 190.102 187.278 189.735C187.278 189.367 187.341 189.021 187.467 188.706C187.593 188.391 187.771 188.118 187.992 187.887C188.212 187.656 188.475 187.477 188.779 187.351C189.084 187.225 189.409 187.162 189.756 187.162C190.123 187.162 190.459 187.225 190.753 187.362C191.047 187.498 191.299 187.666 191.499 187.887C191.698 188.107 191.845 188.37 191.961 188.664C192.066 188.958 192.118 189.273 192.118 189.619V189.934H188.013V189.924ZM191.352 189.357C191.352 188.884 191.215 188.506 190.932 188.223C190.648 187.939 190.26 187.782 189.756 187.782C189.535 187.782 189.315 187.824 189.105 187.908C188.895 187.992 188.706 188.118 188.548 188.254C188.391 188.401 188.265 188.569 188.17 188.758C188.076 188.947 188.034 189.147 188.034 189.346H191.352V189.357Z" fill="#24386C"/>
<path d="M196.917 192.192C196.907 192.055 196.896 191.929 196.886 191.793C196.875 191.656 196.886 191.53 196.886 191.394H196.865C196.791 191.53 196.686 191.646 196.571 191.761C196.455 191.877 196.319 191.971 196.172 192.055C196.025 192.139 195.867 192.202 195.699 192.244C195.531 192.286 195.374 192.318 195.216 192.318C194.586 192.318 194.124 192.15 193.82 191.814C193.515 191.478 193.368 191.005 193.368 190.396V187.278H194.061V189.997C194.061 190.27 194.082 190.512 194.124 190.722C194.166 190.932 194.24 191.11 194.345 191.247C194.45 191.383 194.586 191.499 194.754 191.572C194.922 191.646 195.143 191.677 195.395 191.677C195.426 191.677 195.531 191.667 195.689 191.635C195.846 191.604 196.014 191.53 196.193 191.404C196.371 191.278 196.529 191.089 196.676 190.837C196.823 190.585 196.886 190.239 196.886 189.787V187.267H197.579V191.1C197.579 191.236 197.579 191.404 197.589 191.604C197.6 191.803 197.61 192.003 197.631 192.181H196.917V192.192Z" fill="#24386C"/>
<path d="M199.279 188.811C199.279 188.59 199.279 188.37 199.258 188.149C199.248 187.929 199.237 187.635 199.237 187.278H199.92V188.191H199.941C199.993 188.055 200.056 187.929 200.151 187.813C200.245 187.687 200.35 187.582 200.476 187.477C200.602 187.372 200.76 187.299 200.928 187.246C201.096 187.183 201.295 187.162 201.505 187.162C201.705 187.162 201.873 187.183 202.02 187.225L201.883 187.908C201.789 187.876 201.663 187.855 201.484 187.855C201.222 187.855 200.991 187.908 200.802 188.013C200.613 188.118 200.455 188.244 200.329 188.401C200.203 188.559 200.109 188.727 200.056 188.905C199.993 189.084 199.972 189.262 199.972 189.43V192.202H199.279V188.811Z" fill="#24386C"/>
<path d="M205.842 189.178V189.052C205.842 188.202 205.422 187.782 204.582 187.782C204.004 187.782 203.511 187.971 203.081 188.359L202.66 187.866C203.122 187.393 203.816 187.152 204.74 187.152C204.981 187.152 205.212 187.183 205.432 187.257C205.653 187.33 205.842 187.435 206 187.572C206.157 187.708 206.294 187.897 206.388 188.118C206.483 188.338 206.535 188.59 206.535 188.895V191.089C206.535 191.278 206.545 191.478 206.566 191.677C206.587 191.887 206.609 192.055 206.619 192.192H205.947C205.926 192.076 205.905 191.94 205.905 191.803C205.905 191.667 205.884 191.53 205.884 191.394H205.863C205.664 191.719 205.422 191.961 205.149 192.097C204.876 192.244 204.54 192.318 204.131 192.318C203.91 192.318 203.7 192.286 203.501 192.234C203.301 192.181 203.112 192.087 202.965 191.961C202.808 191.835 202.682 191.688 202.587 191.509C202.493 191.331 202.451 191.121 202.451 190.89C202.451 190.491 202.556 190.176 202.755 189.945C202.965 189.714 203.217 189.546 203.532 189.441C203.847 189.325 204.172 189.262 204.529 189.231C204.886 189.199 205.212 189.189 205.506 189.189H205.842V189.178ZM205.485 189.745C205.306 189.745 205.086 189.756 204.834 189.766C204.572 189.787 204.32 189.829 204.078 189.892C203.837 189.955 203.627 190.06 203.459 190.197C203.291 190.333 203.196 190.533 203.196 190.774C203.196 190.932 203.228 191.068 203.291 191.184C203.354 191.299 203.448 191.394 203.553 191.467C203.669 191.541 203.795 191.593 203.931 191.625C204.068 191.656 204.204 191.667 204.341 191.667C204.593 191.667 204.813 191.625 204.991 191.541C205.17 191.457 205.338 191.341 205.464 191.205C205.59 191.068 205.685 190.89 205.737 190.701C205.79 190.512 205.832 190.302 205.832 190.092V189.735H205.485V189.745Z" fill="#24386C"/>
<path d="M208.992 192.192H208.299V184.254H208.992V192.192Z" fill="#24386C"/>
<path d="M176.463 204.099H180.443V204.792H175.707V197.358H180.317V198.051H176.463V200.581H180.065V201.274H176.463V204.099Z" fill="#24386C"/>
<path d="M182.343 199.878C182.354 200.014 182.364 200.14 182.364 200.277C182.364 200.403 182.364 200.539 182.364 200.676H182.385C182.459 200.539 182.564 200.424 182.679 200.308C182.795 200.193 182.931 200.098 183.078 200.014C183.225 199.93 183.383 199.867 183.54 199.825C183.708 199.783 183.866 199.762 184.034 199.762C184.664 199.762 185.126 199.93 185.43 200.256C185.735 200.581 185.882 201.064 185.882 201.673V204.792H185.189V202.072C185.189 201.526 185.094 201.106 184.905 200.812C184.716 200.518 184.37 200.371 183.855 200.371C183.824 200.371 183.719 200.382 183.561 200.413C183.404 200.445 183.236 200.518 183.057 200.644C182.879 200.77 182.721 200.959 182.574 201.211C182.427 201.463 182.364 201.81 182.364 202.261V204.781H181.671V200.949C181.671 200.812 181.661 200.644 181.65 200.445C181.64 200.245 181.629 200.046 181.608 199.867H182.343V199.878Z" fill="#24386C"/>
<path d="M191.1 201.033C190.984 200.854 190.816 200.697 190.596 200.571C190.386 200.445 190.144 200.382 189.871 200.382C189.588 200.371 189.325 200.424 189.105 200.518C188.874 200.613 188.685 200.749 188.517 200.928C188.359 201.106 188.233 201.316 188.149 201.558C188.065 201.799 188.024 202.062 188.024 202.345C188.024 202.629 188.065 202.881 188.149 203.122C188.233 203.364 188.359 203.574 188.517 203.752C188.674 203.931 188.874 204.067 189.105 204.162C189.336 204.256 189.588 204.309 189.871 204.298C190.144 204.298 190.386 204.235 190.596 204.109C190.806 203.983 190.974 203.826 191.1 203.647L191.667 204.078C191.425 204.361 191.142 204.582 190.837 204.718C190.533 204.855 190.207 204.928 189.871 204.939C189.472 204.949 189.115 204.886 188.79 204.75C188.464 204.624 188.191 204.445 187.96 204.214C187.729 203.983 187.561 203.71 187.435 203.385C187.32 203.07 187.257 202.723 187.257 202.356C187.257 201.988 187.32 201.642 187.435 201.316C187.551 200.991 187.729 200.718 187.96 200.487C188.191 200.256 188.464 200.077 188.79 199.951C189.115 199.825 189.472 199.762 189.871 199.773C190.207 199.783 190.533 199.846 190.837 199.983C191.142 200.119 191.425 200.329 191.667 200.623L191.1 201.033Z" fill="#24386C"/>
<path d="M197.547 202.335C197.547 202.702 197.484 203.049 197.347 203.364C197.211 203.679 197.043 203.952 196.812 204.183C196.581 204.414 196.308 204.592 195.982 204.718C195.667 204.844 195.31 204.918 194.932 204.918C194.554 204.918 194.208 204.855 193.882 204.718C193.557 204.582 193.294 204.414 193.063 204.183C192.832 203.952 192.654 203.679 192.517 203.364C192.391 203.049 192.318 202.702 192.318 202.335C192.318 201.967 192.381 201.621 192.517 201.306C192.643 200.991 192.822 200.718 193.063 200.487C193.294 200.256 193.567 200.077 193.882 199.951C194.197 199.825 194.554 199.762 194.932 199.762C195.321 199.762 195.667 199.825 195.982 199.951C196.297 200.077 196.57 200.256 196.812 200.487C197.043 200.718 197.221 200.991 197.347 201.306C197.473 201.621 197.547 201.967 197.547 202.335ZM196.791 202.335C196.791 202.062 196.749 201.81 196.665 201.568C196.581 201.327 196.455 201.127 196.297 200.949C196.14 200.77 195.94 200.634 195.709 200.529C195.478 200.424 195.226 200.382 194.943 200.382C194.659 200.382 194.397 200.434 194.176 200.529C193.945 200.634 193.756 200.77 193.599 200.949C193.441 201.127 193.315 201.327 193.231 201.568C193.147 201.81 193.105 202.062 193.105 202.335C193.105 202.608 193.147 202.86 193.231 203.101C193.315 203.343 193.441 203.542 193.599 203.721C193.756 203.899 193.945 204.036 194.176 204.141C194.407 204.246 194.659 204.288 194.943 204.288C195.226 204.288 195.489 204.235 195.709 204.141C195.94 204.036 196.129 203.899 196.297 203.721C196.455 203.542 196.581 203.343 196.665 203.101C196.749 202.87 196.791 202.608 196.791 202.335Z" fill="#24386C"/>
<path d="M203.711 204.792H203.018V203.973H202.997C202.881 204.141 202.755 204.288 202.598 204.403C202.44 204.519 202.283 204.624 202.115 204.697C201.947 204.771 201.768 204.834 201.59 204.865C201.411 204.897 201.243 204.918 201.075 204.918C200.687 204.918 200.34 204.855 200.025 204.718C199.71 204.582 199.427 204.414 199.196 204.183C198.965 203.952 198.786 203.679 198.66 203.364C198.534 203.049 198.461 202.702 198.461 202.335C198.461 201.967 198.524 201.621 198.66 201.306C198.786 200.991 198.965 200.718 199.196 200.487C199.427 200.256 199.7 200.077 200.025 199.951C200.351 199.825 200.697 199.762 201.075 199.762C201.233 199.762 201.411 199.783 201.59 199.815C201.768 199.846 201.936 199.91 202.115 199.983C202.283 200.057 202.44 200.162 202.598 200.277C202.755 200.393 202.881 200.539 202.997 200.707H203.018V196.865H203.711V204.792ZM199.227 202.335C199.227 202.608 199.269 202.86 199.353 203.101C199.437 203.343 199.563 203.543 199.721 203.721C199.878 203.9 200.078 204.036 200.298 204.141C200.529 204.246 200.781 204.288 201.075 204.288C201.359 204.288 201.611 204.235 201.863 204.141C202.115 204.046 202.314 203.9 202.482 203.721C202.661 203.543 202.797 203.343 202.892 203.101C202.986 202.86 203.039 202.608 203.039 202.335C203.039 202.062 202.986 201.81 202.892 201.568C202.797 201.327 202.661 201.128 202.482 200.949C202.304 200.771 202.104 200.634 201.863 200.529C201.621 200.424 201.359 200.382 201.075 200.382C200.792 200.382 200.529 200.434 200.298 200.529C200.067 200.634 199.878 200.771 199.721 200.949C199.563 201.128 199.437 201.327 199.353 201.568C199.28 201.81 199.227 202.062 199.227 202.335Z" fill="#24386C"/>
<path d="M205.705 202.524C205.726 202.765 205.789 202.996 205.884 203.217C205.978 203.437 206.115 203.616 206.272 203.784C206.43 203.941 206.619 204.067 206.829 204.151C207.039 204.235 207.27 204.288 207.511 204.288C207.879 204.288 208.204 204.204 208.477 204.025C208.75 203.857 208.95 203.658 209.086 203.437L209.622 203.878C209.328 204.246 209.002 204.519 208.656 204.676C208.309 204.834 207.921 204.918 207.522 204.918C207.154 204.918 206.818 204.855 206.514 204.718C206.199 204.592 205.936 204.414 205.705 204.183C205.485 203.952 205.306 203.679 205.18 203.364C205.054 203.049 204.991 202.702 204.991 202.335C204.991 201.967 205.054 201.621 205.18 201.306C205.306 200.991 205.485 200.718 205.705 200.487C205.926 200.256 206.188 200.077 206.493 199.951C206.797 199.825 207.123 199.762 207.469 199.762C207.837 199.762 208.173 199.825 208.467 199.962C208.761 200.098 209.013 200.266 209.212 200.487C209.412 200.707 209.559 200.97 209.674 201.264C209.779 201.558 209.832 201.873 209.832 202.219V202.534H205.705V202.524ZM209.044 201.957C209.044 201.484 208.908 201.106 208.624 200.823C208.341 200.539 207.952 200.382 207.448 200.382C207.228 200.382 207.007 200.424 206.797 200.508C206.587 200.592 206.398 200.718 206.241 200.854C206.083 200.991 205.957 201.169 205.863 201.358C205.768 201.547 205.726 201.747 205.726 201.946H209.044V201.957Z" fill="#24386C"/>
<path d="M211.134 201.411C211.134 201.19 211.134 200.97 211.113 200.749C211.102 200.529 211.092 200.235 211.092 199.878H211.774V200.791H211.795C211.848 200.655 211.911 200.529 212.005 200.413C212.1 200.287 212.205 200.182 212.331 200.077C212.457 199.972 212.614 199.899 212.782 199.846C212.95 199.783 213.15 199.762 213.36 199.762C213.559 199.762 213.727 199.783 213.874 199.825L213.738 200.508C213.643 200.476 213.517 200.455 213.339 200.455C213.076 200.455 212.845 200.508 212.656 200.613C212.467 200.718 212.31 200.844 212.184 201.001C212.058 201.159 211.963 201.327 211.911 201.505C211.848 201.684 211.827 201.862 211.827 202.03V204.802H211.134V201.411Z" fill="#24386C"/>
<g opacity="0.5">
<path opacity="0.5" d="M194.25 61.1835C195.09 61.1835 195.877 61.509 196.476 62.1075L244.461 110.093C245.06 110.691 245.385 111.479 245.385 112.319C245.385 113.159 245.06 113.946 244.461 114.545L196.476 162.53C195.877 163.128 195.09 163.454 194.25 163.454C193.41 163.454 192.623 163.128 192.024 162.53L144.039 114.545C143.44 113.946 143.115 113.159 143.115 112.319C143.115 111.479 143.44 110.691 144.039 110.093L192.024 62.1075C192.623 61.509 193.41 61.1835 194.25 61.1835ZM194.25 60.1335C193.179 60.1335 192.097 60.543 191.278 61.362L143.294 109.347C141.656 110.985 141.656 113.642 143.294 115.29L191.278 163.275C192.097 164.094 193.169 164.504 194.25 164.504C195.332 164.504 196.403 164.094 197.222 163.275L245.207 115.29C246.845 113.652 246.845 110.996 245.207 109.347L197.222 61.362C196.403 60.543 195.321 60.1335 194.25 60.1335Z" fill="#7D8CB5"/>
</g>
<g opacity="0.5">
<path opacity="0.5" d="M194.25 60.1335C195.321 60.1335 196.402 60.543 197.221 61.362L245.206 109.347C246.844 110.985 246.844 113.641 245.206 115.29L197.221 163.275C196.402 164.094 195.331 164.503 194.25 164.503C193.168 164.503 192.097 164.094 191.278 163.275L143.293 115.29C141.655 113.652 141.655 110.995 143.293 109.347L191.278 61.362C192.097 60.543 193.179 60.1335 194.25 60.1335ZM194.25 59.0835C192.843 59.0835 191.53 59.6295 190.533 60.6165L142.548 108.601C141.561 109.588 141.015 110.911 141.015 112.318C141.015 113.725 141.561 115.038 142.548 116.035L190.533 164.02C191.52 165.007 192.843 165.553 194.25 165.553C195.657 165.553 196.969 165.007 197.967 164.02L245.952 116.035C246.939 115.048 247.485 113.725 247.485 112.318C247.485 110.911 246.939 109.599 245.952 108.601L197.967 60.6165C196.969 59.6295 195.657 59.0835 194.25 59.0835Z" fill="white"/>
</g>
<path opacity="0.5" fill-rule="evenodd" clip-rule="evenodd" d="M234.181 339.79L249.732 330.813L239.978 325.72L224.427 334.698L234.181 339.79Z" fill="url(#paint2_linear_512_332)"/>
<path opacity="0.5" fill-rule="evenodd" clip-rule="evenodd" d="M219.125 348.621L234.224 339.79L208.876 326.256L194.25 334.698L219.125 348.621Z" fill="url(#paint3_linear_512_332)"/>
<path d="M364.959 166.278L341.198 190.039C338.331 192.906 333.669 192.906 330.803 190.039L307.041 166.278C304.175 163.411 304.175 158.749 307.041 155.883L330.803 132.121C333.669 129.255 338.331 129.255 341.198 132.121L364.959 155.883C367.836 158.749 367.836 163.411 364.959 166.278Z" fill="#D9E2FF"/>
<path d="M88.8195 143.346L56.595 171.906C53.5605 174.594 48.909 174.321 46.221 171.276L17.661 139.051C14.973 136.017 15.246 131.365 18.291 128.677L50.5155 100.117C53.55 97.4295 58.2015 97.7025 60.8895 100.747L89.4495 132.972C92.1375 136.006 91.854 140.647 88.8195 143.346Z" fill="#D9E2FF"/>
<path d="M310.558 107.877C332.409 107.877 350.123 90.1636 350.123 68.313C350.123 46.4624 332.409 28.749 310.558 28.749C288.708 28.749 270.995 46.4624 270.995 68.313C270.995 90.1636 288.708 107.877 310.558 107.877Z" fill="#D9E2FF"/>
<path d="M82.2255 259.781C96.723 259.781 108.475 248.028 108.475 233.531C108.475 219.033 96.723 207.281 82.2255 207.281C67.728 207.281 55.9755 219.033 55.9755 233.531C55.9755 248.028 67.728 259.781 82.2255 259.781Z" fill="#D9E2FF"/>
<path d="M329.33 137.788C330.039 137.337 330.513 136.812 330.389 136.616C330.264 136.421 329.588 136.628 328.879 137.08C328.169 137.531 327.695 138.056 327.82 138.252C327.944 138.447 328.62 138.24 329.33 137.788Z" fill="#24386C"/>
<path d="M313.677 210.147L278.848 214.62C276.244 214.956 274.018 216.657 273 219.072L259.455 251.475C258.447 253.9 258.804 256.672 260.389 258.762L281.673 286.692C283.269 288.781 285.852 289.863 288.456 289.527L323.285 285.054C325.889 284.718 328.114 283.017 329.133 280.602L342.678 248.199C343.686 245.773 343.329 243.001 341.743 240.912L320.46 212.982C318.864 210.892 316.281 209.811 313.677 210.147Z" fill="#D9E2FF"/>
<path d="M280.358 223.033C281.05 222.555 281.504 222.013 281.373 221.822C281.241 221.631 280.573 221.864 279.881 222.341C279.189 222.819 278.734 223.361 278.866 223.552C278.998 223.742 279.666 223.51 280.358 223.033Z" fill="#24386C"/>
<path d="M59.7569 106.076C59.9148 105.906 59.6296 105.384 59.1199 104.911C58.6102 104.437 58.0689 104.191 57.911 104.361C57.7531 104.53 58.0383 105.052 58.548 105.526C59.0578 106 59.599 106.246 59.7569 106.076Z" fill="#24386C"/>
<path d="M127.249 8.85109L102.133 6.13159C99.519 5.84809 96.957 6.98209 95.4135 9.10309L80.4825 29.4836C78.9285 31.6046 78.6345 34.3871 79.695 36.7916L89.901 59.9126C90.9615 62.3171 93.219 63.9656 95.8335 64.2491L120.949 66.9686C123.564 67.2521 126.126 66.1181 127.669 63.9971L142.59 43.6061C144.144 41.4851 144.438 38.7026 143.377 36.2981L133.171 13.1771C132.121 10.7831 129.853 9.13459 127.249 8.85109Z" fill="#D9E2FF"/>
<path d="M258.878 113.337C258.878 113.337 300.184 94.8045 329.028 137.225" stroke="#721FFA" stroke-width="1.05" stroke-miterlimit="10" stroke-linecap="round"/>
<path d="M99.5716 61.0338C99.6876 60.833 99.3419 60.4163 98.7995 60.1031C98.2572 59.79 97.7235 59.699 97.6075 59.8998C97.4915 60.1007 97.8372 60.5174 98.3795 60.8306C98.9219 61.1437 99.4556 61.2347 99.5716 61.0338Z" fill="#24386C"/>
<path d="M258.878 113.337C301.056 139.944 251.192 180.001 280.035 222.432" stroke="#67C87A" stroke-width="1.05" stroke-miterlimit="10" stroke-linecap="round"/>
<path d="M129.57 113.337C116.403 91.9275 79.1805 84.42 59.0625 105.011" stroke="#721FFA" stroke-width="1.05" stroke-miterlimit="10" stroke-linecap="round"/>
<path d="M295.197 72.1351L309.477 68.3131L318.287 69.7411C321.5 70.7596 324.072 73.1956 325.259 76.3561L331.811 90.4681L310.905 101.808L295.964 100.758L291.092 97.7656C290.493 97.3981 290.115 96.7471 290.094 96.0436L289.59 80.2621C289.538 76.6291 291.785 73.3741 295.197 72.1351Z" fill="#721FFA"/>
<path d="M129.57 113.337C111.541 119.7 73 95 98.5 60.5" stroke="#67C87A" stroke-width="1.05" stroke-miterlimit="10" stroke-linecap="round"/>
<path fill-rule="evenodd" clip-rule="evenodd" d="M256.284 120.351V106.323C259.151 106.323 261.482 108.654 261.482 111.52V115.153C261.482 118.03 259.151 120.351 256.284 120.351Z" fill="#C91540"/>
<path d="M339.14 84.9766L341.975 84.7981L344.568 83.6536C345.02 83.5486 345.45 83.9056 345.419 84.3676L345.272 86.6986C345.188 88.0951 344.117 89.2186 342.731 89.3866L338.142 89.9326" fill="#FFECA7"/>
<path fill-rule="evenodd" clip-rule="evenodd" d="M132.163 120.351V106.323C129.297 106.323 126.966 108.654 126.966 111.52V115.153C126.966 118.03 129.297 120.351 132.163 120.351Z" fill="#C91540"/>
<path d="M297.455 98.1674C297.735 97.6269 297.349 96.8704 296.592 96.4777C295.836 96.085 294.995 96.2047 294.715 96.7452C294.434 97.2856 294.82 98.0421 295.577 98.4348C296.333 98.8276 297.174 98.7078 297.455 98.1674Z" fill="#24386C"/>
<path d="M81.0924 212.019C81.9306 211.953 82.5953 211.712 82.577 211.481C82.5587 211.249 81.8644 211.116 81.0261 211.182C80.1879 211.248 79.5232 211.49 79.5415 211.721C79.5598 211.952 80.2541 212.086 81.0924 212.019Z" fill="#24386C"/>
<path d="M129.57 113.337C129.57 140.521 69.7935 153.31 81.06 211.396" stroke="#C91540" stroke-width="1.05" stroke-miterlimit="10" stroke-linecap="round"/>
<path d="M72.7965 243.968H73.9095C74.613 243.968 75.159 243.422 75.159 242.718V241.216C77.1855 241.332 79.9575 241.406 82.2255 241.406C84.483 241.406 87.255 241.332 89.2815 241.216V242.718C89.2815 243.422 89.8275 243.968 90.5415 243.968H91.644C92.358 243.968 92.904 243.422 92.904 242.718V240.293C93.2085 239.936 93.3765 239.453 93.3765 238.865V237.237C93.3765 235.61 93.093 234.696 92.211 233.594L91.392 232.565C91.0455 230.906 90.4365 229.163 90.1215 228.48C89.607 227.388 88.6095 226.748 87.339 226.569C86.667 226.475 84.693 226.432 82.236 226.432C79.779 226.432 77.7945 226.485 77.133 226.569C75.8625 226.727 74.8545 227.388 74.3505 228.48C74.025 229.163 73.416 230.906 73.08 232.565L72.261 233.594C71.3895 234.696 71.0955 235.61 71.0955 237.237V238.865C71.0955 239.453 71.2635 239.936 71.568 240.293V242.718C71.547 243.432 72.093 243.968 72.7965 243.968ZM82.2255 239.925C79.065 239.925 75.1275 239.778 73.6365 239.6C72.8385 239.505 72.5445 239.106 72.5445 238.403V237.163C72.5445 235.914 72.786 235.326 73.4265 234.465L74.424 233.163C74.655 231.924 75.2535 230.003 75.6315 229.184C75.9465 228.533 76.5345 228.155 77.343 228.05C77.9835 227.966 79.779 227.892 82.2255 227.892C84.672 227.892 86.499 227.976 87.087 228.05C87.9165 228.155 88.494 228.543 88.7985 229.194C89.1975 229.992 89.775 231.903 90.006 233.163L91.0035 234.465C91.6545 235.326 91.8855 235.914 91.8855 237.163V238.403C91.8855 239.106 91.5915 239.505 90.804 239.6C89.3235 239.768 85.3965 239.925 82.2255 239.925Z" fill="#7D8CB5"/>
<path d="M90.573 232.208H73.8675V233.783H90.573V232.208Z" fill="#7D8CB5"/>
<path d="M325.763 163.296C325.763 165.144 326.697 166.079 328.514 166.079H331.621V169.187C331.621 171.003 332.567 171.938 334.404 171.938H337.586C339.434 171.938 340.368 171.003 340.368 169.187V166.079H343.465C345.282 166.079 346.227 165.134 346.227 163.296V160.115C346.227 158.277 345.282 157.332 343.465 157.332H340.368V154.224C340.368 152.408 339.423 151.473 337.586 151.473H334.404C332.556 151.473 331.621 152.408 331.621 154.224V157.332H328.514C326.697 157.332 325.763 158.288 325.763 160.115V163.296ZM327.663 163.097V160.314C327.663 159.6 328.01 159.243 328.745 159.243H333.543V154.434C333.543 153.71 333.9 153.363 334.604 153.363H337.396C338.1 153.363 338.457 153.71 338.457 154.434V159.243H343.256C343.98 159.243 344.337 159.6 344.337 160.314V163.097C344.337 163.811 343.98 164.157 343.256 164.157H338.457V168.966C338.457 169.691 338.1 170.037 337.396 170.037H334.604C333.9 170.037 333.543 169.691 333.543 168.966V164.157H328.745C328.01 164.157 327.663 163.811 327.663 163.097Z" fill="#7D8CB5"/>
<path d="M72.7965 242.918H73.9095C74.613 242.918 75.159 242.372 75.159 241.668V240.167C77.1855 240.282 79.9575 240.356 82.2255 240.356C84.483 240.356 87.255 240.282 89.2815 240.167V241.668C89.2815 242.372 89.8275 242.918 90.5415 242.918H91.644C92.358 242.918 92.904 242.372 92.904 241.668V239.243C93.2085 238.886 93.3765 238.403 93.3765 237.815V236.187C93.3765 234.56 93.093 233.646 92.211 232.544L91.392 231.515C91.0455 229.856 90.4365 228.113 90.1215 227.43C89.607 226.338 88.6095 225.698 87.339 225.519C86.667 225.425 84.693 225.383 82.236 225.383C79.779 225.383 77.7945 225.435 77.133 225.519C75.8625 225.677 74.8545 226.338 74.3505 227.43C74.025 228.113 73.416 229.856 73.08 231.515L72.261 232.544C71.3895 233.646 71.0955 234.56 71.0955 236.187V237.815C71.0955 238.403 71.2635 238.886 71.568 239.243V241.668C71.547 242.382 72.093 242.918 72.7965 242.918ZM82.2255 238.875C79.065 238.875 75.1275 238.728 73.6365 238.55C72.8385 238.455 72.5445 238.056 72.5445 237.353V236.114C72.5445 234.864 72.786 234.276 73.4265 233.415L74.424 232.113C74.655 230.874 75.2535 228.953 75.6315 228.134C75.9465 227.483 76.5345 227.105 77.343 227C77.9835 226.916 79.779 226.842 82.2255 226.842C84.672 226.842 86.499 226.926 87.087 227C87.9165 227.105 88.494 227.493 88.7985 228.144C89.1975 228.942 89.775 230.853 90.006 232.113L91.0035 233.415C91.6545 234.276 91.8855 234.864 91.8855 236.114V237.353C91.8855 238.056 91.5915 238.455 90.804 238.55C89.3235 238.718 85.3965 238.875 82.2255 238.875Z" fill="white" stroke="white" stroke-width="0.2625" stroke-miterlimit="10"/>
<path d="M341.439 88.998L324.492 90.0585L325.899 85.0605L341.975 84.798L341.439 88.998Z" fill="#721FFA"/>
<path d="M322.234 105.441C318.087 102.743 315.346 98.0596 315.346 92.7466C315.346 84.3886 322.129 77.6056 330.487 77.6056C336.577 77.6056 341.838 81.2071 344.232 86.3941" stroke="#24386C" stroke-width="1.05" stroke-miterlimit="10"/>
<path d="M121.548 43.4066L120.498 43.2491L115.196 37.9361L116.015 37.1276C116.592 36.5501 116.603 35.7836 116.004 35.1851L114.177 33.3581C113.673 33.7571 113.012 33.7361 112.56 33.2846C112.109 32.8541 112.088 32.1821 112.487 31.6781L106.365 25.5566C104.717 23.8976 102.953 23.8766 101.325 25.4936L99.7185 27.1001C98.1015 28.7276 98.1225 30.4916 99.771 32.1401L105.903 38.2616C106.397 37.8626 107.058 37.8836 107.51 38.3351C107.961 38.7866 107.982 39.4481 107.583 39.9521L109.41 41.7791C110.009 42.3776 110.765 42.3671 111.353 41.7896L112.161 40.9706L117.474 46.2731L117.632 47.3231C117.695 47.7116 117.926 48.0686 118.272 48.2996L121.874 50.7146C122.199 50.9351 122.546 50.9666 122.787 50.7251L124.95 48.5621C125.192 48.3206 125.16 47.9741 124.94 47.6486L122.525 44.0471C122.304 43.7006 121.937 43.4696 121.548 43.4066ZM114.335 36.5711L110.796 40.1096C110.544 40.3616 110.25 40.3406 110.009 40.0991L109.41 39.5006C109.547 38.7026 109.274 37.9571 108.633 37.3166C107.993 36.6761 107.258 36.4241 106.491 36.5816L100.842 30.9221C99.981 30.0611 99.981 29.1476 100.821 28.2971L102.522 26.5961C103.362 25.7561 104.286 25.7561 105.137 26.6171L110.807 32.2661C110.649 33.0326 110.901 33.7676 111.542 34.4081C112.182 35.0486 112.928 35.3216 113.715 35.1851L114.324 35.7836C114.566 36.0251 114.587 36.3296 114.335 36.5711ZM104.549 28.1711C104.349 27.9716 104.034 27.9821 103.845 28.1711C103.635 28.3811 103.646 28.6856 103.845 28.8746L108.003 33.0746C108.192 33.2741 108.539 33.2531 108.717 33.0746C108.927 32.8646 108.927 32.5391 108.728 32.3396L104.549 28.1711ZM103.1 29.6201C102.911 29.4311 102.575 29.4206 102.386 29.6201C102.186 29.8301 102.186 30.1346 102.386 30.3341L106.565 34.5026C106.764 34.7021 107.079 34.7021 107.279 34.5026C107.468 34.3136 107.478 33.9881 107.279 33.7886L103.1 29.6201ZM122.168 49.1396L119.238 46.9136L119.018 45.6326L113.264 39.8786L114.104 39.0386L119.858 44.7926L121.139 45.0131L123.365 47.9426L122.168 49.1396Z" fill="#7D8CB5"/>
<path d="M311.64 88.8825L317.068 87.5595C317.52 87.4545 317.95 87.8115 317.919 88.2735L317.656 92.778C317.604 93.6705 316.837 94.332 315.945 94.269L310.632 93.8385" fill="#FFECA7"/>
<path d="M90.573 231.157H73.8675V232.732H90.573V231.157Z" fill="white"/>
<path d="M307.975 75.5791C305.707 75.0751 304.101 73.0696 304.101 70.7491V58.7056H313.992V70.7596C313.981 73.9096 311.062 76.2616 307.975 75.5791Z" fill="#FFECA7"/>
<path d="M325.763 162.677C325.763 164.525 326.697 165.459 328.514 165.459H331.621V168.567C331.621 170.384 332.567 171.318 334.404 171.318H337.586C339.434 171.318 340.368 170.384 340.368 168.567V165.459H343.465C345.282 165.459 346.227 164.514 346.227 162.677V159.495C346.227 157.658 345.282 156.713 343.465 156.713H340.368V153.605C340.368 151.788 339.423 150.854 337.586 150.854H334.404C332.556 150.854 331.621 151.788 331.621 153.605V156.713H328.514C326.697 156.713 325.763 157.668 325.763 159.495V162.677ZM327.663 162.477V159.695C327.663 158.981 328.01 158.624 328.745 158.624H333.543V153.815C333.543 153.09 333.9 152.744 334.604 152.744H337.396C338.1 152.744 338.457 153.09 338.457 153.815V158.624H343.256C343.98 158.624 344.337 158.981 344.337 159.695V162.477C344.337 163.191 343.98 163.538 343.256 163.538H338.457V168.347C338.457 169.071 338.1 169.418 337.396 169.418H334.604C333.9 169.418 333.543 169.071 333.543 168.347V163.538H328.745C328.01 163.538 327.663 163.191 327.663 162.477Z" fill="white"/>
<path d="M121.548 42.3565L120.498 42.199L115.196 36.886L116.015 36.0775C116.592 35.5 116.603 34.7335 116.004 34.135L114.177 32.308C113.673 32.707 113.012 32.686 112.56 32.2345C112.109 31.804 112.088 31.132 112.487 30.628L106.365 24.5065C104.717 22.8475 102.953 22.8265 101.325 24.4435L99.7185 26.05C98.1015 27.6775 98.1225 29.4415 99.771 31.09L105.903 37.2115C106.397 36.8125 107.058 36.8335 107.51 37.285C107.961 37.7365 107.982 38.398 107.583 38.902L109.41 40.729C110.009 41.3275 110.765 41.317 111.353 40.7395L112.161 39.9205L117.474 45.223L117.632 46.273C117.695 46.6615 117.926 47.0185 118.272 47.2495L121.874 49.6645C122.199 49.885 122.546 49.9165 122.787 49.675L124.95 47.512C125.192 47.2705 125.16 46.924 124.94 46.5985L122.525 42.997C122.304 42.6505 121.937 42.4195 121.548 42.3565ZM114.335 35.521L110.796 39.0595C110.544 39.3115 110.25 39.2905 110.009 39.049L109.41 38.4505C109.547 37.6525 109.274 36.907 108.633 36.2665C107.993 35.626 107.258 35.374 106.491 35.5315L100.842 29.872C99.981 29.011 99.981 28.0975 100.821 27.247L102.522 25.546C103.362 24.706 104.286 24.706 105.137 25.567L110.807 31.216C110.649 31.9825 110.901 32.7175 111.542 33.358C112.182 33.9985 112.928 34.2715 113.715 34.135L114.324 34.7335C114.566 34.975 114.587 35.2795 114.335 35.521ZM104.549 27.121C104.349 26.9215 104.034 26.932 103.845 27.121C103.635 27.331 103.646 27.6355 103.845 27.8245L108.003 32.0245C108.192 32.224 108.539 32.203 108.717 32.0245C108.927 31.8145 108.927 31.489 108.728 31.2895L104.549 27.121ZM103.1 28.57C102.911 28.381 102.575 28.3705 102.386 28.57C102.186 28.78 102.186 29.0845 102.386 29.284L106.565 33.4525C106.764 33.652 107.079 33.652 107.279 33.4525C107.468 33.2635 107.478 32.938 107.279 32.7385L103.1 28.57ZM122.168 48.0895L119.238 45.8635L119.018 44.5825L113.264 38.8285L114.104 37.9885L119.858 43.7425L121.139 43.963L123.365 46.8925L122.168 48.0895Z" fill="white"/>
<path d="M320.523 97.2825H310.181" stroke="white" stroke-width="1.05" stroke-miterlimit="10"/>
<path d="M284.875 98.406C291.784 104.318 300.751 107.888 310.558 107.888C325.5 107.888 338.499 99.603 345.229 87.3705C345.229 87.3705 332.902 83.37 317.94 92.127C299.302 103.037 284.875 98.406 284.875 98.406Z" fill="#B2BFE8"/>
<path d="M313.981 67.7354V68.8589C310.243 68.8169 307.839 66.2234 307.839 66.2234L313.981 67.7354Z" fill="#24386C"/>
<path d="M258.878 113.337C258.878 113.337 284.476 118.797 295.963 97.629" stroke="#C91540" stroke-width="1.05" stroke-miterlimit="10" stroke-linecap="round"/>
<path d="M325.08 53.6864C324.544 64.5119 319.567 69.8459 309.508 66.9584C302.032 64.8164 297.801 58.5269 298.525 50.7884C299.25 43.0499 304.647 37.6319 312.386 38.3564C320.124 39.0914 325.468 45.9269 325.08 53.6864Z" fill="#FFECA7"/>
<path d="M321.646 53.0145L321.793 57.2775C321.814 57.918 321.268 58.422 320.628 58.359L318.948 58.1805" stroke="#24386C" stroke-width="0.525" stroke-miterlimit="10" stroke-linecap="round"/>
<path d="M316.711 51.9225C317.164 51.9225 317.53 51.5559 317.53 51.1035C317.53 50.6512 317.164 50.2845 316.711 50.2845C316.259 50.2845 315.892 50.6512 315.892 51.1035C315.892 51.5559 316.259 51.9225 316.711 51.9225Z" fill="#24386C"/>
<path d="M323.925 52.185C324.377 52.185 324.744 51.8183 324.744 51.366C324.744 50.9137 324.377 50.547 323.925 50.547C323.473 50.547 323.106 50.9137 323.106 51.366C323.106 51.8183 323.473 52.185 323.925 52.185Z" fill="#24386C"/>
<path d="M318.958 62.0446C318.958 62.0446 316.69 61.9921 315.609 59.8921" stroke="#24386C" stroke-width="0.525" stroke-miterlimit="10" stroke-linecap="round"/>
<path d="M324.219 47.8801C321.888 48.3316 317.751 48.8041 312.291 48.1531C310.769 47.9746 309.33 49.0771 309.11 50.5996L308.679 53.5816C308.606 54.0961 308.133 54.4531 307.629 54.3901C307.209 54.3376 306.884 54.0331 306.81 53.6131C306.569 52.2481 305.834 49.3396 304.091 49.7806C300.993 50.5576 304.091 56.0491 304.091 56.0491L301.749 62.0656C301.749 62.0656 295.659 57.4246 297.423 47.3761C299.187 37.3171 310.191 34.2931 317.993 37.6111C322.781 39.6481 324.86 42.8716 325.742 45.0661C326.246 46.2631 325.521 47.6281 324.219 47.8801Z" fill="#C91540"/>
<path d="M297.822 84.4619L299.03 90.4049L311.608 88.9244C311.608 88.9244 310.895 91.2344 310.895 93.8384" stroke="#24386C" stroke-width="0.525" stroke-miterlimit="10" stroke-linecap="round"/>
<path d="M314.59 88.1686L315.955 86.9296L316.27 87.8326L314.59 88.1686Z" fill="#FFECA7"/>
<path d="M40.11 127.501C40.11 127.501 39.2385 142.611 34.5765 153.846C31.6365 160.933 64.9005 153.846 64.9005 153.846C64.9005 153.846 69.93 134.841 66.7905 124.267C64.8165 117.631 40.11 127.501 40.11 127.501Z" fill="#24386C"/>
<path d="M345.23 87.3705L343.413 86.9505L342.836 85.155L343.801 84.0735L344.768 85.9635L345.23 87.3705Z" fill="#FFECA7"/>
<path d="M51.0825 150.591L55.9335 149.846L61.1625 151.809C65.079 153.279 68.229 156.293 69.8775 160.146L56.6055 171.906L56.5845 171.927C53.529 174.563 48.93 174.279 46.2315 171.287L31.815 155.033L46.137 148.901L51.0825 150.591Z" fill="white"/>
<path d="M329.123 85.155L328.135 86.0895" stroke="#24386C" stroke-width="0.525" stroke-miterlimit="10" stroke-linecap="round"/>
<path d="M321.793 84.4724L322.402 89.3759" stroke="#24386C" stroke-width="0.525" stroke-miterlimit="10" stroke-linecap="round"/>
<path d="M299.061 90.4785L298.063 91.413" stroke="#24386C" stroke-width="0.525" stroke-miterlimit="10" stroke-linecap="round"/>
<path d="M298.452 101.745C303.923 101.073 310.737 99.204 318.234 94.815C328.041 89.0715 336.725 88.8195 341.534 89.3235" stroke="#95A7DA" stroke-width="0.525" stroke-miterlimit="10" stroke-linecap="round"/>
<path d="M51.0825 156.208C48.8145 155.704 46.137 151.221 46.137 148.9V136.846H56.028V148.9C56.028 152.061 54.1695 156.891 51.0825 156.208Z" fill="#FFECA7"/>
<path d="M56.028 145.887V147.011C52.29 146.969 52.101 144.816 52.101 144.816L56.028 145.887Z" fill="#24386C"/>
<path d="M67.1265 131.838C65.394 144.375 61.614 147.998 51.555 145.11C44.079 142.968 39.8475 136.679 40.572 128.94C41.2965 121.202 46.6935 115.784 54.432 116.508C62.1705 117.233 68.4075 122.577 67.1265 131.838Z" fill="#FFECA7"/>
<path d="M60.333 133.339L60.48 137.602C60.501 138.243 59.955 138.747 59.3145 138.684" stroke="#24386C" stroke-width="0.525" stroke-miterlimit="10" stroke-linecap="round"/>
<path d="M57.0675 133.718C57.5198 133.718 57.8865 133.351 57.8865 132.899C57.8865 132.446 57.5198 132.08 57.0675 132.08C56.6152 132.08 56.2485 132.446 56.2485 132.899C56.2485 133.351 56.6152 133.718 57.0675 133.718Z" fill="#24386C"/>
<path d="M63.231 133.35C63.6833 133.35 64.05 132.983 64.05 132.531C64.05 132.079 63.6833 131.712 63.231 131.712C62.7787 131.712 62.412 132.079 62.412 132.531C62.412 132.983 62.7787 133.35 63.231 133.35Z" fill="#24386C"/>
<path d="M57.3825 141.214C58.3485 141.666 59.2515 141.634 59.9445 141.466" stroke="#24386C" stroke-width="0.525" stroke-miterlimit="10" stroke-linecap="round"/>
<path d="M67.0845 127.029C65.2785 125.076 60.879 131.239 53.0565 128.457C53.0565 128.457 48.3105 130.431 49.875 137.518C51.5445 145.11 46.137 148.9 46.137 148.9C46.137 148.9 38.346 137.55 40.11 127.501C41.874 117.453 51 112.642 60.039 115.741C71 119.5 67.0845 127.029 67.0845 127.029Z" fill="#24386C"/>
<path d="M66.0765 125.454C66.0765 125.454 60.375 127.029 52.8255 126.714C52.8255 126.714 52.122 119.837 59.892 119.354C67.662 118.86 66.0765 125.454 66.0765 125.454Z" fill="white"/>
<path d="M60.165 121.59V124.583" stroke="#C91540" stroke-width="1.05" stroke-miterlimit="10" stroke-linecap="round"/>
<path d="M328.839 281.232C327.789 283.458 325.615 284.949 323.148 285.107L322.738 285.138L289.138 289.454L288.897 289.538C288.046 289.853 287.112 289.832 286.272 289.485L287.206 273.42C287.532 267.96 290.976 263.183 296.058 261.156L306.012 257.187L318.328 258.951C321.709 259.434 324.439 261.965 325.174 265.293L328.839 281.232Z" fill="#C91540"/>
<path d="M61.656 123.091H58.674" stroke="#C91540" stroke-width="1.05" stroke-miterlimit="10" stroke-linecap="round"/>
<path d="M306.915 261.429C309.13 260.736 310.558 258.594 310.359 256.284L309.319 244.282L299.47 245.133L300.51 257.134C300.783 260.284 303.901 262.374 306.915 261.429Z" fill="#FFECA7"/>
<path d="M306.621 253.68C306.621 253.68 305.109 256.462 300.426 256.116L300.352 254.719L306.621 253.68Z" fill="#24386C"/>
<path d="M315.777 243.904C313.803 250.099 306.726 255.969 300.373 255.129C288.109 253.491 289.737 242.907 291.837 236.292C293.937 229.677 301.003 226.023 307.608 228.133C314.223 230.233 317.887 237.3 315.777 243.904Z" fill="#FFECA7"/>
<path d="M297.066 237.037L295.575 241.006C295.365 241.573 295.659 242.203 296.236 242.403L297.066 242.686" stroke="#24386C" stroke-width="0.525" stroke-miterlimit="10" stroke-linecap="round"/>
<path d="M295.039 246.152C295.039 246.152 296.793 247.076 298.631 245.732" stroke="#24386C" stroke-width="0.525" stroke-miterlimit="10" stroke-linecap="round"/>
<path d="M302.453 237.395C302.905 237.395 303.272 237.028 303.272 236.576C303.272 236.123 302.905 235.757 302.453 235.757C302 235.757 301.634 236.123 301.634 236.576C301.634 237.028 302 237.395 302.453 237.395Z" fill="#24386C"/>
<path d="M295.869 235.378C296.321 235.378 296.688 235.012 296.688 234.559C296.688 234.107 296.321 233.74 295.869 233.74C295.417 233.74 295.05 234.107 295.05 234.559C295.05 235.012 295.417 235.378 295.869 235.378Z" fill="#24386C"/>
<path d="M315.998 244.178C315.998 244.178 305.403 227.252 294.158 229.919C294.158 229.919 299.996 221.498 309.477 225.603C318.948 229.698 318.507 239.369 315.998 244.178Z" fill="#721FFA"/>
<path d="M316.18 245.782C316.962 244.795 317.009 243.532 316.287 242.959C315.564 242.387 314.345 242.722 313.563 243.708C312.782 244.695 312.734 245.958 313.457 246.531C314.179 247.103 315.399 246.768 316.18 245.782Z" fill="#FFECA7"/>
<path d="M309.172 235.935C309.172 235.935 305.445 236.281 294.871 232.848C287.406 230.422 294.157 229.929 294.157 229.929C294.157 229.929 300.31 227.388 309.172 235.935Z" fill="#67C87A"/>
<path d="M313.876 241.122L311.997 245.732L312.68 246.456L315.074 242.718L313.876 241.122Z" fill="#24386C"/>
<path d="M315.882 258.479L316.376 273.473L297.644 275.552L296.006 261.072L294.945 261.513L296.184 275.919L293.958 277.305L293.496 288.887L322.739 285.128L320.408 274.187L318.066 273.294L316.953 258.594L315.882 258.479Z" fill="#67C87A"/>
<path opacity="0.3" d="M371.626 166.278L341.198 196.707C338.331 199.573 333.669 199.573 330.802 196.707L300.374 166.278C297.507 163.411 297.507 158.749 300.374 155.883L330.802 125.454C333.669 122.587 338.331 122.587 341.198 125.454L371.626 155.883C374.493 158.749 374.493 163.411 371.626 166.278Z" stroke="#D9E2FF" stroke-width="1.05" stroke-miterlimit="10"/>
<path opacity="0.3" d="M82.2255 264.022C99.0658 264.022 112.717 250.371 112.717 233.53C112.717 216.69 99.0658 203.038 82.2255 203.038C65.3852 203.038 51.7335 216.69 51.7335 233.53C51.7335 250.371 65.3852 264.022 82.2255 264.022Z" stroke="#D9E2FF" stroke-width="1.05" stroke-miterlimit="10"/>
<path opacity="0.3" d="M130.368 4.57751L99.9915 1.28051C97.377 0.997014 94.815 2.13101 93.2715 4.25201L75.222 28.9165C73.668 31.0375 73.374 33.82 74.4345 36.2245L86.772 64.1755C87.8325 66.58 90.09 68.2285 92.7045 68.512L123.081 71.809C125.695 72.0925 128.257 70.9585 129.801 68.8375L147.84 44.173C149.394 42.052 149.688 39.2695 148.627 36.865L136.29 8.91402C135.24 6.52002 132.982 4.86101 130.368 4.57751Z" stroke="#D9E2FF" stroke-width="1.05" stroke-miterlimit="10"/>
<path opacity="0.7" d="M258.195 109.2V111.3" stroke="white" stroke-width="1.05" stroke-miterlimit="10" stroke-linecap="round"/>
<path opacity="0.7" d="M130.2 109.2V111.3" stroke="white" stroke-width="1.05" stroke-miterlimit="10" stroke-linecap="round"/>
</g>
<defs>
<linearGradient id="paint0_linear_512_332" x1="193.766" y1="303.24" x2="178.521" y2="303.933" gradientUnits="userSpaceOnUse">
<stop stop-color="#FF3364"/>
<stop offset="1" stop-color="#C91540" stop-opacity="0"/>
</linearGradient>
<linearGradient id="paint1_linear_512_332" x1="194.188" y1="255.49" x2="194.188" y2="112.579" gradientUnits="userSpaceOnUse">
<stop stop-color="white" stop-opacity="0"/>
<stop offset="0.756" stop-color="#B2BFE8" stop-opacity="0.4"/>
</linearGradient>
<linearGradient id="paint2_linear_512_332" x1="239.404" y1="336.775" x2="234.759" y2="328.729" gradientUnits="userSpaceOnUse">
<stop stop-color="#B2BFE8" stop-opacity="0"/>
<stop offset="1" stop-color="#24386C"/>
</linearGradient>
<linearGradient id="paint3_linear_512_332" x1="220.386" y1="347.891" x2="208.138" y2="326.677" gradientUnits="userSpaceOnUse">
<stop stop-color="#B2BFE8" stop-opacity="0"/>
<stop offset="1" stop-color="#24386C"/>
</linearGradient>
<clipPath id="clip0_512_332">
<rect width="388.5" height="372.75" fill="white"/>
</clipPath>
</defs>
</svg>
