<?xml version="1.0" encoding="UTF-8"?>
<svg width="389" height="373" fill="none" version="1.1" viewBox="0 0 389 373" xmlns="http://www.w3.org/2000/svg">
 <g clip-rule="evenodd" fill-rule="evenodd">
  <g stroke="#b2bfe8" stroke-miterlimit="10" stroke-width="1.05">
   <path d="m356.62 321.4-88.378 51.02h-147.99l-88.379-51.03c-7.098-4.095-7.098-14.343 0-18.438l73.196-42.263 83.863-48.405c3.297-1.9 7.35-1.9 10.647 0l83.832 48.405 73.217 42.263c7.087 4.116 7.087 14.353-0.011 18.448z" clip-path="url(#clipPath1533)" opacity=".15"/>
   <path d="m319.04 319.27-92.621 53.476h-64.333l-92.621-53.476c-5.4495-3.15-5.4495-11.015 0-14.165l56.249-32.476 64.449-37.202c2.53-1.459 5.649-1.459 8.179 0l64.428 37.202 56.27 32.487c5.449 3.139 5.449 11.004 0 14.154z" clip-path="url(#clipPath1527)" opacity=".2"/>
   <path d="m290.8 317.67-93.376 53.918c-1.953 1.134-4.368 1.134-6.332 0l-93.376-53.918c-4.221-2.436-4.221-8.526 0-10.962l43.522-25.126 49.865-28.781c1.953-1.134 4.368-1.134 6.331 0l49.844 28.781 43.533 25.126c4.2 2.436 4.2 8.526-0.011 10.962z" clip-path="url(#clipPath1521)" opacity=".2"/>
  </g>
  <path d="m274.33 316.73-77.458 44.72c-1.628 0.934-3.623 0.934-5.25 0l-77.458-44.73c-3.497-2.016-3.497-7.077 0-9.093l36.098-20.843 41.36-23.877c1.627-0.934 3.622-0.934 5.25 0l41.349 23.877 36.109 20.843c3.507 2.037 3.507 7.087 0 9.103z" clip-path="url(#clipPath1515)" fill="#b2bfe8" opacity=".2"/>
  <path d="m218.74 299.32-2.4187-37.114 23.654-6.7125v70.224l-15.551 8.978z" clip-path="url(#clipPath1503)" fill="#24386c"/>
  <path d="m239.98 255.49-15.551 8.977-18.167 0.0961-13.548-2.9013-13.551 4.3845-15.089 6.3414-15.55-16.898 22.858-13.199 22.869-13.198 22.859 13.198z" clip-path="url(#clipPath1497)" fill="#7589be"/>
  <path d="m148.52 255.49 15.55 8.977 8.1352 25.883 8.5577 11.97 13.484 14.427v17.955l-22.869-13.199-22.858-13.198z" clip-path="url(#clipPath1491)" fill="#b2bfe8"/>
  <path d="m214.24 302.32-19.987 14.427v17.955l14.626-8.442z" clip-path="url(#clipPath1485)" fill="#24386c"/>
  <path d="m194.25 281.89-20.851-8.442 21.598-11.242 22.553 12.639z" clip-path="url(#clipPath1479)" fill="#7589be"/>
  <path d="m179.62 273.45 14.626 8.442v16.895l-19.563-8.442z" clip-path="url(#clipPath1473)" fill="#b2bfe8"/>
  <path d="m194.25 281.89 14.626-8.442 9.3206 21.646-23.947 3.691z" clip-path="url(#clipPath1467)" fill="#24386c"/>
  <path d="m208.88 326.26 15.551 8.442v-70.224l-15.089-8.715-15.088-8.715-15.088 8.715-15.089 8.715v34.849l15.089 8.715 15.088 8.715 14.626-8.452zm0-35.921-14.626 8.453-14.626-8.442v-16.884l14.626-8.442 14.626 8.442z" clip-path="url(#clipPath1461)" fill="#c91540"/>
 </g>
 <path d="m194.25 316.74v-17.955l-14.626-8.442-0.462 17.692z" clip-path="url(#clipPath1455)" fill="url(#paint0_linear_512_332)"/>
 <path d="m239.98 255.49h-91.455l-18.344-142.9h128.02z" clip-path="url(#clipPath1449)" fill="url(#paint1_linear_512_332)" opacity=".6"/>
 <path d="m201.65 241.8 7.382-4.179-14.784-8.536-14.459 8.347 7.14 4.221c4.526 2.688 10.143 2.741 14.721 0.147z" clip-path="url(#clipPath1443)" fill="#24386c"/>
 <path d="m241.53 199.5-42.084 42.084c-2.866 2.866-7.528 2.866-10.395 0l-42.084-42.084c-2.866-2.867-2.866-7.529 0-10.395l42.084-42.084c2.867-2.867 7.529-2.867 10.395 0l42.084 42.084c2.867 2.877 2.867 7.528 0 10.395z" clip-path="url(#clipPath1437)" fill="#ffffff"/>
 <path d="m189.05 147.03-17.252 17.251 14.333 14.333c4.483 4.483 11.749 4.483 16.243 0l14.332-14.333-17.251-17.251c-2.877-2.877-7.539-2.877-10.405 0z" clip-path="url(#clipPath1431)" fill="#b2bfe8" opacity=".2"/>
 <path d="m231.6 199.5-32.151 32.151c-2.867 2.866-7.529 2.866-10.395 0l-32.151-32.151c-2.867-2.867-2.867-7.529 0-10.395l32.151-32.151c2.866-2.867 7.528-2.867 10.395 0l32.151 32.151c2.866 2.877 2.866 7.528 0 10.395z" clip-path="url(#clipPath1425)" opacity=".2" stroke="#b2bfe8" stroke-miterlimit="10" stroke-width="1.05"/>
 <path d="m221.61 199.5-22.166 22.166c-2.866 2.866-7.528 2.866-10.395 0l-22.165-22.166c-2.867-2.866-2.867-7.528 0-10.395l22.165-22.155c2.867-2.866 7.529-2.866 10.395 0l22.166 22.166c2.866 2.866 2.866 7.518 0 10.384z" clip-path="url(#clipPath1419)" opacity=".2" stroke="#b2bfe8" stroke-miterlimit="10" stroke-width="1.05"/>
 <path d="m257.08 119.62-57.634 57.635c-2.867 2.866-7.529 2.866-10.395 0l-57.635-57.635c-2.866-2.866-2.866-7.528 0-10.395l57.635-57.634c2.866-2.8665 7.528-2.8665 10.395 0l57.634 57.634c2.867 2.867 2.867 7.518 0 10.395z" clip-path="url(#clipPath1413)" fill="#7d8cb5"/>
 <path d="m257.08 117.52-57.634 57.635c-2.867 2.866-7.529 2.866-10.395 0l-57.635-57.635c-2.866-2.866-2.866-7.528 0-10.395l57.635-57.634c2.866-2.8665 7.528-2.8665 10.395 0l57.634 57.634c2.867 2.867 2.867 7.518 0 10.395z" clip-path="url(#clipPath1407)" fill="#d9e2ff"/>
 <g fill="#24386c">
  <path d="m173.71 106.09 3.255-7.8436h1.502v9.6386h-0.977v-8.3261h-0.042l-3.486 8.3261h-0.514l-3.487-8.3261h-0.031v8.3261h-0.976v-9.6386h1.501z" clip-path="url(#clipPath1401)"/>
  <path d="m184.83 103.98v-0.168c0-1.102-0.546-1.648-1.638-1.648-0.746 0-1.397 0.252-1.943 0.745l-0.546-0.64c0.599-0.62 1.502-0.924 2.699-0.924 0.304 0 0.609 0.042 0.892 0.136 0.284 0.095 0.536 0.231 0.746 0.42s0.378 0.42 0.504 0.704c0.126 0.283 0.189 0.619 0.189 1.008v2.845c0 0.242 0.01 0.504 0.031 0.767 0.021 0.273 0.053 0.483 0.074 0.661h-0.872c-0.031-0.157-0.052-0.325-0.063-0.504-0.01-0.178-0.021-0.357-0.021-0.535h-0.031c-0.263 0.43-0.578 0.735-0.935 0.924s-0.798 0.283-1.312 0.283c-0.284 0-0.557-0.042-0.819-0.115-0.263-0.074-0.494-0.2-0.704-0.357-0.199-0.158-0.367-0.357-0.493-0.588s-0.189-0.504-0.189-0.809c0-0.514 0.136-0.924 0.399-1.218 0.262-0.294 0.598-0.514 1.008-0.661 0.409-0.147 0.829-0.242 1.291-0.273 0.462-0.032 0.882-0.053 1.26-0.053zm-0.462 0.735c-0.231 0-0.515 0.011-0.851 0.032s-0.672 0.073-0.976 0.168c-0.315 0.084-0.578 0.22-0.809 0.399-0.231 0.178-0.336 0.43-0.336 0.745 0 0.21 0.042 0.389 0.126 0.536s0.2 0.273 0.347 0.367c0.147 0.095 0.304 0.168 0.483 0.2 0.178 0.042 0.357 0.063 0.535 0.063 0.326 0 0.609-0.053 0.851-0.168 0.241-0.105 0.441-0.252 0.609-0.441s0.283-0.399 0.357-0.651c0.073-0.252 0.115-0.515 0.115-0.798v-0.462h-0.451z" clip-path="url(#clipPath1395)"/>
  <path d="m191.11 102.33h-1.837v3.759c0 0.242 0.021 0.43 0.063 0.577s0.105 0.263 0.189 0.347 0.178 0.137 0.294 0.168c0.115 0.032 0.241 0.052 0.378 0.052 0.157 0 0.315-0.021 0.472-0.063 0.168-0.042 0.315-0.104 0.452-0.178l0.042 0.83c-0.336 0.157-0.735 0.231-1.208 0.231-0.168 0-0.346-0.022-0.535-0.064s-0.357-0.136-0.515-0.262c-0.157-0.126-0.283-0.304-0.378-0.514-0.105-0.221-0.147-0.504-0.147-0.861v-4.011h-1.344v-0.819h1.344v-1.796h0.903v1.796h1.838v0.808z" clip-path="url(#clipPath1389)"/>
  <path d="m196.97 103.02c-0.157-0.231-0.367-0.43-0.651-0.598-0.273-0.168-0.587-0.242-0.944-0.242-0.368-0.01-0.704 0.053-0.998 0.179s-0.546 0.304-0.756 0.535-0.368 0.494-0.473 0.809-0.168 0.651-0.168 1.018c0 0.368 0.053 0.704 0.168 1.019 0.105 0.315 0.263 0.588 0.473 0.808 0.21 0.231 0.462 0.399 0.756 0.536 0.294 0.126 0.63 0.189 0.998 0.178 0.357 0 0.671-0.084 0.944-0.241 0.273-0.168 0.494-0.368 0.651-0.599l0.735 0.557c-0.315 0.367-0.672 0.651-1.071 0.819-0.399 0.178-0.819 0.273-1.249 0.283-0.515 0.011-0.987-0.073-1.397-0.241-0.409-0.168-0.777-0.399-1.071-0.704-0.294-0.304-0.525-0.651-0.672-1.071-0.157-0.409-0.231-0.861-0.231-1.344s0.074-0.924 0.231-1.344c0.158-0.409 0.378-0.766 0.672-1.071 0.294-0.304 0.651-0.535 1.071-0.703s0.882-0.252 1.397-0.242c0.441 0.011 0.85 0.105 1.249 0.284 0.399 0.178 0.756 0.451 1.071 0.819z" clip-path="url(#clipPath1383)"/>
  <path d="m198.89 97.597h0.903v4.9456h0.031c0.105-0.168 0.231-0.336 0.378-0.473 0.158-0.147 0.326-0.273 0.515-0.378s0.388-0.189 0.609-0.241c0.22-0.053 0.42-0.084 0.63-0.084 0.819 0 1.417 0.22 1.806 0.651 0.388 0.43 0.588 1.05 0.588 1.848v4.042h-0.903v-3.528c0-0.703-0.126-1.249-0.368-1.627-0.241-0.378-0.703-0.567-1.365-0.567-0.042 0-0.168 0.021-0.378 0.052-0.21 0.032-0.43 0.137-0.661 0.305s-0.441 0.409-0.62 0.735c-0.178 0.325-0.273 0.777-0.273 1.365v3.265h-0.903v-10.311z" clip-path="url(#clipPath1377)"/>
  <path d="m207.76 99.068c0 0.189-0.063 0.3465-0.2 0.4725-0.136 0.126-0.283 0.1785-0.451 0.1785s-0.315-0.063-0.452-0.1785c-0.136-0.1155-0.199-0.2835-0.199-0.4725s0.063-0.3465 0.199-0.4725c0.137-0.126 0.284-0.1785 0.452-0.1785s0.315 0.063 0.451 0.1785c0.137 0.1155 0.2 0.2835 0.2 0.4725zm-0.2 8.8205h-0.903v-6.374h0.903z" clip-path="url(#clipPath1371)"/>
  <path d="m210.59 101.51c0.021 0.168 0.031 0.346 0.031 0.514s0.011 0.336 0.011 0.515h0.032c0.105-0.168 0.231-0.336 0.378-0.473 0.157-0.147 0.325-0.273 0.514-0.378s0.388-0.189 0.609-0.241c0.22-0.053 0.42-0.084 0.63-0.084 0.819 0 1.418 0.22 1.806 0.651 0.389 0.43 0.588 1.05 0.588 1.848v4.042h-0.903v-3.528c0-0.703-0.126-1.249-0.368-1.627-0.241-0.378-0.703-0.567-1.365-0.567-0.042 0-0.167 0.021-0.377 0.052-0.21 0.032-0.431 0.137-0.662 0.305s-0.441 0.409-0.619 0.735c-0.179 0.325-0.274 0.777-0.274 1.365v3.265h-0.903v-4.966c0-0.168-0.01-0.389-0.02-0.651-0.011-0.263-0.032-0.515-0.053-0.746h0.945z" clip-path="url(#clipPath1365)"/>
  <path d="m217.79 109.17c0.263 0.357 0.609 0.641 1.029 0.851s0.893 0.315 1.407 0.315c0.452 0 0.84-0.063 1.155-0.2 0.315-0.136 0.578-0.315 0.767-0.535 0.189-0.221 0.336-0.494 0.42-0.798 0.084-0.305 0.126-0.63 0.126-0.977v-1.144h-0.032c-0.294 0.43-0.64 0.745-1.06 0.924-0.42 0.178-0.861 0.273-1.323 0.273s-0.893-0.084-1.302-0.242c-0.399-0.168-0.756-0.388-1.05-0.672-0.305-0.283-0.536-0.63-0.704-1.029s-0.262-0.829-0.262-1.291 0.084-0.893 0.241-1.292c0.158-0.399 0.389-0.745 0.672-1.05 0.284-0.304 0.63-0.535 1.019-0.703 0.399-0.168 0.829-0.252 1.302-0.252 0.189 0 0.388 0.021 0.609 0.052 0.21 0.032 0.43 0.105 0.64 0.189s0.42 0.221 0.63 0.378c0.21 0.158 0.399 0.357 0.588 0.609h0.032v-1.06h0.903v6.321c0 0.346-0.042 0.714-0.126 1.102-0.084 0.389-0.252 0.746-0.504 1.071-0.252 0.326-0.599 0.599-1.04 0.819-0.441 0.221-1.029 0.326-1.743 0.326-0.64 0-1.207-0.105-1.701-0.315-0.504-0.21-0.955-0.536-1.365-0.966zm0.158-4.546c0 0.336 0.063 0.651 0.178 0.945 0.126 0.294 0.294 0.556 0.504 0.777 0.21 0.22 0.462 0.399 0.746 0.535 0.283 0.137 0.598 0.2 0.934 0.2 0.326 0 0.641-0.063 0.935-0.179 0.294-0.115 0.556-0.283 0.787-0.493s0.399-0.473 0.525-0.767c0.126-0.304 0.179-0.63 0.168-1.008 0-0.336-0.052-0.651-0.168-0.945-0.115-0.294-0.262-0.556-0.472-0.777-0.21-0.22-0.462-0.399-0.767-0.535-0.304-0.126-0.63-0.2-1.008-0.2-0.336 0-0.651 0.063-0.934 0.2-0.284 0.136-0.536 0.304-0.746 0.535s-0.378 0.483-0.504 0.777c-0.115 0.284-0.178 0.599-0.178 0.935z" clip-path="url(#clipPath1359)"/>
  <path d="m172.46 123.32h5.156v0.903h-6.143v-9.639h5.975v0.903h-4.998v3.276h4.672v0.903h-4.672v3.654z" clip-path="url(#clipPath1353)"/>
  <path d="m180.08 117.85c0.021 0.168 0.032 0.346 0.032 0.514s0.01 0.336 0.01 0.515h0.032c0.094-0.168 0.231-0.336 0.378-0.473 0.147-0.136 0.325-0.273 0.514-0.378s0.389-0.189 0.609-0.241c0.21-0.063 0.42-0.084 0.63-0.084 0.819 0 1.418 0.22 1.806 0.651 0.389 0.43 0.588 1.05 0.588 1.848v4.042h-0.903v-3.528c0-0.703-0.126-1.249-0.367-1.627-0.242-0.378-0.704-0.567-1.365-0.567-0.042 0-0.168 0.021-0.378 0.052-0.21 0.032-0.431 0.137-0.662 0.305s-0.441 0.409-0.619 0.735c-0.179 0.325-0.273 0.777-0.273 1.365v3.265h-0.903v-4.966c0-0.168-0.011-0.389-0.021-0.651-0.011-0.263-0.032-0.515-0.053-0.746h0.945z" clip-path="url(#clipPath1347)"/>
  <path d="m187.28 125.5c0.263 0.357 0.609 0.64 1.029 0.85s0.893 0.315 1.407 0.315c0.452 0 0.84-0.063 1.155-0.199 0.315-0.137 0.578-0.315 0.767-0.536 0.199-0.231 0.336-0.493 0.42-0.798 0.084-0.304 0.126-0.63 0.126-0.976v-1.145h-0.032c-0.294 0.431-0.64 0.746-1.06 0.924-0.42 0.179-0.861 0.273-1.323 0.273s-0.893-0.084-1.302-0.241c-0.399-0.168-0.756-0.389-1.05-0.672-0.305-0.284-0.536-0.63-0.704-1.029s-0.262-0.83-0.262-1.292 0.084-0.892 0.241-1.291c0.168-0.399 0.389-0.746 0.672-1.05 0.284-0.305 0.63-0.536 1.019-0.704 0.399-0.168 0.829-0.252 1.302-0.252 0.189 0 0.388 0.021 0.609 0.053 0.21 0.031 0.43 0.105 0.64 0.189s0.42 0.22 0.63 0.378c0.21 0.157 0.399 0.357 0.588 0.609h0.032v-1.061h0.903v6.321c0 0.347-0.042 0.714-0.126 1.103-0.084 0.388-0.252 0.745-0.504 1.071-0.252 0.325-0.599 0.598-1.04 0.819-0.441 0.22-1.029 0.325-1.743 0.325-0.63 0-1.207-0.105-1.701-0.315-0.504-0.21-0.955-0.535-1.365-0.966zm0.168-4.547c0 0.336 0.063 0.651 0.179 0.945 0.126 0.294 0.294 0.557 0.504 0.777 0.21 0.221 0.462 0.399 0.745 0.536 0.284 0.136 0.599 0.199 0.935 0.199 0.325 0 0.64-0.063 0.934-0.178 0.294-0.116 0.557-0.284 0.788-0.494s0.399-0.472 0.525-0.766 0.178-0.63 0.168-1.008c0-0.336-0.053-0.651-0.168-0.945-0.105-0.294-0.263-0.557-0.473-0.777-0.21-0.221-0.462-0.399-0.766-0.536-0.305-0.126-0.63-0.199-1.008-0.199-0.336 0-0.651 0.063-0.935 0.199-0.283 0.137-0.535 0.305-0.745 0.536-0.21 0.22-0.378 0.483-0.504 0.777s-0.179 0.598-0.179 0.934z" clip-path="url(#clipPath1341)"/>
  <path d="m196.41 115.4c0 0.189-0.063 0.346-0.21 0.472-0.137 0.126-0.284 0.179-0.452 0.179s-0.315-0.063-0.451-0.179c-0.137-0.126-0.2-0.283-0.2-0.472s0.063-0.347 0.2-0.473c0.136-0.126 0.283-0.178 0.451-0.178s0.315 0.063 0.452 0.178c0.147 0.126 0.21 0.284 0.21 0.473zm-0.2 8.83h-0.903v-6.373h0.903z" clip-path="url(#clipPath1335)"/>
  <path d="m199.24 117.85c0.021 0.168 0.031 0.346 0.031 0.514s0.01 0.336 0.01 0.515h0.032c0.105-0.168 0.231-0.336 0.378-0.473 0.157-0.147 0.326-0.273 0.515-0.378s0.388-0.189 0.609-0.241c0.22-0.053 0.42-0.084 0.63-0.084 0.819 0 1.417 0.22 1.806 0.651 0.388 0.43 0.588 1.05 0.588 1.848v4.042h-0.903v-3.528c0-0.703-0.126-1.249-0.368-1.627-0.241-0.378-0.704-0.567-1.365-0.567-0.042 0-0.168 0.021-0.378 0.052-0.21 0.032-0.43 0.137-0.661 0.305s-0.442 0.409-0.62 0.735c-0.179 0.325-0.273 0.777-0.273 1.365v3.265h-0.903v-4.966c0-0.168-0.011-0.389-0.021-0.651-0.011-0.263-0.031-0.515-0.052-0.746h0.945z" clip-path="url(#clipPath1329)"/>
  <path d="m206.57 121.28c0.031 0.315 0.105 0.619 0.231 0.903 0.126 0.283 0.294 0.525 0.504 0.724 0.21 0.2 0.451 0.368 0.724 0.483 0.273 0.116 0.567 0.179 0.882 0.179 0.483 0 0.893-0.116 1.25-0.336 0.346-0.221 0.619-0.483 0.798-0.767l0.693 0.567c-0.378 0.483-0.798 0.83-1.26 1.04s-0.956 0.315-1.481 0.315c-0.472 0-0.913-0.084-1.312-0.252s-0.756-0.399-1.04-0.704c-0.283-0.304-0.525-0.651-0.682-1.06-0.168-0.41-0.252-0.851-0.252-1.334s0.084-0.924 0.241-1.333c0.168-0.41 0.389-0.767 0.683-1.061s0.63-0.535 1.018-0.703c0.389-0.168 0.809-0.252 1.271-0.252 0.483 0 0.913 0.084 1.291 0.262 0.378 0.179 0.704 0.399 0.956 0.683 0.262 0.283 0.451 0.619 0.588 1.008 0.136 0.388 0.21 0.798 0.21 1.228v0.41zm4.336-0.725c0-0.609-0.178-1.102-0.546-1.48-0.367-0.378-0.871-0.567-1.522-0.567-0.294 0-0.567 0.052-0.84 0.168-0.273 0.115-0.515 0.262-0.714 0.451-0.2 0.189-0.368 0.41-0.494 0.651-0.126 0.242-0.178 0.504-0.178 0.767h4.294z" clip-path="url(#clipPath1323)"/>
  <path d="m216.89 119.36c-0.137-0.263-0.315-0.473-0.546-0.63-0.231-0.158-0.504-0.231-0.83-0.231-0.157 0-0.314 0.021-0.472 0.052-0.157 0.032-0.305 0.095-0.431 0.168-0.126 0.074-0.23 0.179-0.304 0.294-0.073 0.116-0.115 0.263-0.115 0.441 0 0.305 0.104 0.515 0.314 0.651 0.21 0.137 0.525 0.252 0.935 0.357l0.914 0.221c0.441 0.105 0.818 0.304 1.112 0.609 0.294 0.304 0.441 0.682 0.441 1.134 0 0.346-0.073 0.64-0.209 0.892-0.137 0.252-0.326 0.452-0.557 0.609-0.231 0.158-0.494 0.273-0.798 0.347-0.305 0.073-0.609 0.105-0.914 0.105-0.493 0-0.945-0.095-1.365-0.284s-0.787-0.504-1.081-0.955l0.777-0.536c0.179 0.294 0.409 0.525 0.682 0.693s0.609 0.263 0.987 0.263c0.179 0 0.358-0.021 0.547-0.063 0.178-0.042 0.346-0.105 0.482-0.189 0.137-0.084 0.252-0.2 0.336-0.336 0.084-0.137 0.126-0.294 0.126-0.473 0-0.315-0.115-0.546-0.357-0.682-0.241-0.137-0.525-0.252-0.861-0.336l-0.871-0.2c-0.105-0.031-0.252-0.073-0.441-0.136s-0.367-0.158-0.546-0.284c-0.178-0.126-0.326-0.294-0.452-0.493-0.126-0.2-0.188-0.452-0.188-0.756 0-0.326 0.063-0.609 0.199-0.861 0.137-0.252 0.304-0.441 0.535-0.599 0.231-0.157 0.473-0.273 0.756-0.346 0.284-0.074 0.568-0.116 0.872-0.116 0.441 0 0.861 0.084 1.239 0.263 0.378 0.168 0.672 0.472 0.882 0.882z" clip-path="url(#clipPath1317)"/>
  <path d="m184.99 191.06h0.021v-6.3h0.756v7.434h-0.945l-4.431-6.363h-0.021v6.363h-0.756v-7.434h0.945z" clip-path="url(#clipPath1311)"/>
  <path d="m188.01 189.92c0.021 0.241 0.084 0.472 0.178 0.693 0.095 0.22 0.231 0.399 0.389 0.567 0.157 0.157 0.346 0.283 0.556 0.367s0.441 0.137 0.683 0.137c0.367 0 0.693-0.084 0.966-0.263 0.273-0.168 0.472-0.367 0.609-0.588l0.535 0.441c-0.294 0.368-0.619 0.641-0.976 0.798-0.357 0.158-0.735 0.242-1.134 0.242-0.368 0-0.704-0.063-1.008-0.2-0.315-0.126-0.578-0.304-0.809-0.535s-0.399-0.504-0.525-0.819-0.199-0.662-0.199-1.029c0-0.368 0.063-0.714 0.189-1.029s0.304-0.588 0.525-0.819c0.22-0.231 0.483-0.41 0.787-0.536 0.305-0.126 0.63-0.189 0.977-0.189 0.367 0 0.703 0.063 0.997 0.2 0.294 0.136 0.546 0.304 0.746 0.525 0.199 0.22 0.346 0.483 0.462 0.777 0.105 0.294 0.157 0.609 0.157 0.955v0.315h-4.105zm3.339-0.567c0-0.473-0.137-0.851-0.42-1.134-0.284-0.284-0.672-0.441-1.176-0.441-0.221 0-0.441 0.042-0.651 0.126s-0.399 0.21-0.557 0.346c-0.157 0.147-0.283 0.315-0.378 0.504-0.094 0.189-0.136 0.389-0.136 0.588h3.318z" clip-path="url(#clipPath1305)"/>
  <path d="m196.92 192.19c-0.01-0.137-0.021-0.263-0.031-0.399-0.011-0.137 0-0.263 0-0.399h-0.021c-0.074 0.136-0.179 0.252-0.294 0.367-0.116 0.116-0.252 0.21-0.399 0.294s-0.305 0.147-0.473 0.189-0.325 0.074-0.483 0.074c-0.63 0-1.092-0.168-1.396-0.504-0.305-0.336-0.452-0.809-0.452-1.418v-3.118h0.693v2.719c0 0.273 0.021 0.515 0.063 0.725s0.116 0.388 0.221 0.525c0.105 0.136 0.241 0.252 0.409 0.325 0.168 0.074 0.389 0.105 0.641 0.105 0.031 0 0.136-0.01 0.294-0.042 0.157-0.031 0.325-0.105 0.504-0.231 0.178-0.126 0.336-0.315 0.483-0.567s0.21-0.598 0.21-1.05v-2.52h0.693v3.833c0 0.136 0 0.304 0.01 0.504 0.011 0.199 0.021 0.399 0.042 0.577h-0.714z" clip-path="url(#clipPath1299)"/>
  <path d="m199.28 188.81c0-0.221 0-0.441-0.021-0.662-0.01-0.22-0.021-0.514-0.021-0.871h0.683v0.913h0.021c0.052-0.136 0.115-0.262 0.21-0.378 0.094-0.126 0.199-0.231 0.325-0.336s0.284-0.178 0.452-0.231c0.168-0.063 0.367-0.084 0.577-0.084 0.2 0 0.368 0.021 0.515 0.063l-0.137 0.683c-0.094-0.032-0.22-0.053-0.399-0.053-0.262 0-0.493 0.053-0.682 0.158s-0.347 0.231-0.473 0.388c-0.126 0.158-0.22 0.326-0.273 0.504-0.063 0.179-0.084 0.357-0.084 0.525v2.772h-0.693z" clip-path="url(#clipPath1293)"/>
  <path d="m205.84 189.18v-0.126c0-0.85-0.42-1.27-1.26-1.27-0.578 0-1.071 0.189-1.501 0.577l-0.421-0.493c0.462-0.473 1.156-0.714 2.08-0.714 0.241 0 0.472 0.031 0.692 0.105 0.221 0.073 0.41 0.178 0.568 0.315 0.157 0.136 0.294 0.325 0.388 0.546 0.095 0.22 0.147 0.472 0.147 0.777v2.194c0 0.189 0.01 0.389 0.031 0.588 0.021 0.21 0.043 0.378 0.053 0.515h-0.672c-0.021-0.116-0.042-0.252-0.042-0.389 0-0.136-0.021-0.273-0.021-0.409h-0.021c-0.199 0.325-0.441 0.567-0.714 0.703-0.273 0.147-0.609 0.221-1.018 0.221-0.221 0-0.431-0.032-0.63-0.084-0.2-0.053-0.389-0.147-0.536-0.273-0.157-0.126-0.283-0.273-0.378-0.452-0.094-0.178-0.136-0.388-0.136-0.619 0-0.399 0.105-0.714 0.304-0.945 0.21-0.231 0.462-0.399 0.777-0.504 0.315-0.116 0.64-0.179 0.997-0.21 0.357-0.032 0.683-0.042 0.977-0.042h0.336zm-0.357 0.567c-0.179 0-0.399 0.011-0.651 0.021-0.262 0.021-0.514 0.063-0.756 0.126-0.241 0.063-0.451 0.168-0.619 0.305-0.168 0.136-0.263 0.336-0.263 0.577 0 0.158 0.032 0.294 0.095 0.41 0.063 0.115 0.157 0.21 0.262 0.283 0.116 0.074 0.242 0.126 0.378 0.158 0.137 0.031 0.273 0.042 0.41 0.042 0.252 0 0.472-0.042 0.65-0.126 0.179-0.084 0.347-0.2 0.473-0.336 0.126-0.137 0.221-0.315 0.273-0.504 0.053-0.189 0.095-0.399 0.095-0.609v-0.357h-0.347z" clip-path="url(#clipPath1287)"/>
  <path d="m208.99 192.19h-0.693v-7.938h0.693z" clip-path="url(#clipPath1281)"/>
  <path d="m176.46 204.1h3.98v0.693h-4.736v-7.434h4.61v0.693h-3.854v2.53h3.602v0.693h-3.602z" clip-path="url(#clipPath1275)"/>
  <path d="m182.34 199.88c0.011 0.136 0.021 0.262 0.021 0.399v0.399h0.021c0.074-0.137 0.179-0.252 0.294-0.368 0.116-0.115 0.252-0.21 0.399-0.294s0.305-0.147 0.462-0.189c0.168-0.042 0.326-0.063 0.494-0.063 0.63 0 1.092 0.168 1.396 0.494 0.305 0.325 0.452 0.808 0.452 1.417v3.119h-0.693v-2.72c0-0.546-0.095-0.966-0.284-1.26s-0.535-0.441-1.05-0.441c-0.031 0-0.136 0.011-0.294 0.042-0.157 0.032-0.325 0.105-0.504 0.231-0.178 0.126-0.336 0.315-0.483 0.567s-0.21 0.599-0.21 1.05v2.52h-0.693v-3.832c0-0.137-0.01-0.305-0.021-0.504-0.01-0.2-0.021-0.399-0.042-0.578h0.735z" clip-path="url(#clipPath1269)"/>
  <path d="m191.1 201.03c-0.116-0.179-0.284-0.336-0.504-0.462-0.21-0.126-0.452-0.189-0.725-0.189-0.283-0.011-0.546 0.042-0.766 0.136-0.231 0.095-0.42 0.231-0.588 0.41-0.158 0.178-0.284 0.388-0.368 0.63-0.084 0.241-0.125 0.504-0.125 0.787 0 0.284 0.041 0.536 0.125 0.777 0.084 0.242 0.21 0.452 0.368 0.63 0.157 0.179 0.357 0.315 0.588 0.41 0.231 0.094 0.483 0.147 0.766 0.136 0.273 0 0.515-0.063 0.725-0.189s0.378-0.283 0.504-0.462l0.567 0.431c-0.242 0.283-0.525 0.504-0.83 0.64-0.304 0.137-0.63 0.21-0.966 0.221-0.399 0.01-0.756-0.053-1.081-0.189-0.326-0.126-0.599-0.305-0.83-0.536s-0.399-0.504-0.525-0.829c-0.115-0.315-0.178-0.662-0.178-1.029 0-0.368 0.063-0.714 0.178-1.04 0.116-0.325 0.294-0.598 0.525-0.829s0.504-0.41 0.83-0.536c0.325-0.126 0.682-0.189 1.081-0.178 0.336 0.01 0.662 0.073 0.966 0.21 0.305 0.136 0.588 0.346 0.83 0.64z" clip-path="url(#clipPath1263)"/>
  <path d="m197.55 202.34c0 0.367-0.063 0.714-0.2 1.029-0.136 0.315-0.304 0.588-0.535 0.819s-0.504 0.409-0.83 0.535c-0.315 0.126-0.672 0.2-1.05 0.2s-0.724-0.063-1.05-0.2c-0.325-0.136-0.588-0.304-0.819-0.535s-0.409-0.504-0.546-0.819c-0.126-0.315-0.199-0.662-0.199-1.029 0-0.368 0.063-0.714 0.199-1.029 0.126-0.315 0.305-0.588 0.546-0.819 0.231-0.231 0.504-0.41 0.819-0.536s0.672-0.189 1.05-0.189c0.389 0 0.735 0.063 1.05 0.189s0.588 0.305 0.83 0.536c0.231 0.231 0.409 0.504 0.535 0.819s0.2 0.661 0.2 1.029zm-0.756 0c0-0.273-0.042-0.525-0.126-0.767-0.084-0.241-0.21-0.441-0.368-0.619-0.157-0.179-0.357-0.315-0.588-0.42s-0.483-0.147-0.766-0.147c-0.284 0-0.546 0.052-0.767 0.147-0.231 0.105-0.42 0.241-0.577 0.42-0.158 0.178-0.284 0.378-0.368 0.619-0.084 0.242-0.126 0.494-0.126 0.767s0.042 0.525 0.126 0.766c0.084 0.242 0.21 0.441 0.368 0.62 0.157 0.178 0.346 0.315 0.577 0.42s0.483 0.147 0.767 0.147c0.283 0 0.546-0.053 0.766-0.147 0.231-0.105 0.42-0.242 0.588-0.42 0.158-0.179 0.284-0.378 0.368-0.62 0.084-0.231 0.126-0.493 0.126-0.766z" clip-path="url(#clipPath1257)"/>
  <path d="m203.71 204.79h-0.693v-0.819h-0.021c-0.116 0.168-0.242 0.315-0.399 0.43-0.158 0.116-0.315 0.221-0.483 0.294-0.168 0.074-0.347 0.137-0.525 0.168-0.179 0.032-0.347 0.053-0.515 0.053-0.388 0-0.735-0.063-1.05-0.2-0.315-0.136-0.598-0.304-0.829-0.535s-0.41-0.504-0.536-0.819-0.199-0.662-0.199-1.029c0-0.368 0.063-0.714 0.199-1.029 0.126-0.315 0.305-0.588 0.536-0.819s0.504-0.41 0.829-0.536c0.326-0.126 0.672-0.189 1.05-0.189 0.158 0 0.336 0.021 0.515 0.053 0.178 0.031 0.346 0.095 0.525 0.168 0.168 0.074 0.325 0.179 0.483 0.294 0.157 0.116 0.283 0.262 0.399 0.43h0.021v-3.842h0.693zm-4.484-2.457c0 0.273 0.042 0.525 0.126 0.766 0.084 0.242 0.21 0.442 0.368 0.62 0.157 0.179 0.357 0.315 0.577 0.42 0.231 0.105 0.483 0.147 0.777 0.147 0.284 0 0.536-0.053 0.788-0.147 0.252-0.095 0.451-0.241 0.619-0.42 0.179-0.178 0.315-0.378 0.41-0.62 0.094-0.241 0.147-0.493 0.147-0.766s-0.053-0.525-0.147-0.767c-0.095-0.241-0.231-0.44-0.41-0.619-0.178-0.178-0.378-0.315-0.619-0.42-0.242-0.105-0.504-0.147-0.788-0.147-0.283 0-0.546 0.052-0.777 0.147-0.231 0.105-0.42 0.242-0.577 0.42-0.158 0.179-0.284 0.378-0.368 0.619-0.073 0.242-0.126 0.494-0.126 0.767z" clip-path="url(#clipPath1251)"/>
  <path d="m205.7 202.52c0.021 0.241 0.084 0.472 0.179 0.693 0.094 0.22 0.231 0.399 0.388 0.567 0.158 0.157 0.347 0.283 0.557 0.367s0.441 0.137 0.682 0.137c0.368 0 0.693-0.084 0.966-0.263 0.273-0.168 0.473-0.367 0.609-0.588l0.536 0.441c-0.294 0.368-0.62 0.641-0.966 0.798-0.347 0.158-0.735 0.242-1.134 0.242-0.368 0-0.704-0.063-1.008-0.2-0.315-0.126-0.578-0.304-0.809-0.535-0.22-0.231-0.399-0.504-0.525-0.819s-0.189-0.662-0.189-1.029c0-0.368 0.063-0.714 0.189-1.029s0.305-0.588 0.525-0.819c0.221-0.231 0.483-0.41 0.788-0.536 0.304-0.126 0.63-0.189 0.976-0.189 0.368 0 0.704 0.063 0.998 0.2 0.294 0.136 0.546 0.304 0.745 0.525 0.2 0.22 0.347 0.483 0.462 0.777 0.105 0.294 0.158 0.609 0.158 0.955v0.315h-4.127zm3.339-0.567c0-0.473-0.136-0.851-0.42-1.134-0.283-0.284-0.672-0.441-1.176-0.441-0.22 0-0.441 0.042-0.651 0.126s-0.399 0.21-0.556 0.346c-0.158 0.137-0.284 0.315-0.378 0.504-0.095 0.189-0.137 0.389-0.137 0.588h3.318z" clip-path="url(#clipPath1245)"/>
  <path d="m211.13 201.41c0-0.221 0-0.441-0.021-0.662-0.011-0.22-0.021-0.514-0.021-0.871h0.682v0.913h0.021c0.053-0.136 0.116-0.262 0.21-0.378 0.095-0.126 0.2-0.231 0.326-0.336s0.283-0.178 0.451-0.231c0.168-0.063 0.368-0.084 0.578-0.084 0.199 0 0.367 0.021 0.514 0.063l-0.136 0.683c-0.095-0.032-0.221-0.053-0.399-0.053-0.263 0-0.494 0.053-0.683 0.158s-0.346 0.231-0.472 0.388c-0.126 0.158-0.221 0.326-0.273 0.504-0.063 0.179-0.084 0.357-0.084 0.525v2.772h-0.693z" clip-path="url(#clipPath1239)"/>
 </g>
 <g clip-path="url(#clipPath1233)" opacity=".5">
  <path d="m194.25 61.184c0.84 0 1.627 0.3255 2.226 0.924l47.985 47.986c0.599 0.598 0.924 1.386 0.924 2.226s-0.325 1.627-0.924 2.226l-47.985 47.985c-0.599 0.598-1.386 0.924-2.226 0.924s-1.627-0.326-2.226-0.924l-47.985-47.985c-0.599-0.599-0.924-1.386-0.924-2.226s0.325-1.628 0.924-2.226l47.985-47.986c0.599-0.5985 1.386-0.924 2.226-0.924zm0-1.05c-1.071 0-2.153 0.4095-2.972 1.2285l-47.984 47.985c-1.638 1.638-1.638 4.295 0 5.943l47.984 47.985c0.819 0.819 1.891 1.229 2.972 1.229 1.082 0 2.153-0.41 2.972-1.229l47.985-47.985c1.638-1.638 1.638-4.294 0-5.943l-47.985-47.985c-0.819-0.819-1.901-1.2285-2.972-1.2285z" fill="#7d8cb5" opacity=".5"/>
 </g>
 <g clip-path="url(#clipPath1227)" opacity=".5">
  <path d="m194.25 60.134c1.071 0 2.152 0.4095 2.971 1.2285l47.985 47.985c1.638 1.638 1.638 4.294 0 5.943l-47.985 47.985c-0.819 0.819-1.89 1.228-2.971 1.228-1.082 0-2.153-0.409-2.972-1.228l-47.985-47.985c-1.638-1.638-1.638-4.295 0-5.943l47.985-47.985c0.819-0.819 1.901-1.2285 2.972-1.2285zm0-1.05c-1.407 0-2.72 0.546-3.717 1.533l-47.985 47.984c-0.987 0.987-1.533 2.31-1.533 3.717s0.546 2.72 1.533 3.717l47.985 47.985c0.987 0.987 2.31 1.533 3.717 1.533s2.719-0.546 3.717-1.533l47.985-47.985c0.987-0.987 1.533-2.31 1.533-3.717s-0.546-2.719-1.533-3.717l-47.985-47.984c-0.998-0.987-2.31-1.533-3.717-1.533z" fill="#ffffff" opacity=".5"/>
 </g>
 <path d="m234.18 339.79 15.551-8.977-9.754-5.093-15.551 8.978z" clip-path="url(#clipPath1221)" clip-rule="evenodd" fill="url(#paint2_linear_512_332)" fill-rule="evenodd" opacity=".5"/>
 <path d="m219.12 348.62 15.099-8.831-25.348-13.534-14.626 8.442z" clip-path="url(#clipPath1215)" clip-rule="evenodd" fill="url(#paint3_linear_512_332)" fill-rule="evenodd" opacity=".5"/>
 <g fill="#d9e2ff">
  <path d="m364.96 166.28-23.761 23.761c-2.867 2.867-7.529 2.867-10.395 0l-23.762-23.761c-2.866-2.867-2.866-7.529 0-10.395l23.762-23.762c2.866-2.866 7.528-2.866 10.395 0l23.761 23.762c2.877 2.866 2.877 7.528 0 10.395z" clip-path="url(#clipPath1209)"/>
  <path d="m88.82 143.35-32.224 28.56c-3.0345 2.688-7.686 2.415-10.374-0.63l-28.56-32.225c-2.688-3.034-2.415-7.686 0.63-10.374l32.224-28.56c3.0345-2.6875 7.686-2.4145 10.374 0.63l28.56 32.225c2.688 3.034 2.4045 7.675-0.63 10.374z" clip-path="url(#clipPath1203)"/>
  <path d="m310.56 107.88c21.851 0 39.565-17.713 39.565-39.564s-17.714-39.564-39.565-39.564c-21.85 0-39.563 17.713-39.563 39.564s17.713 39.564 39.563 39.564z" clip-path="url(#clipPath1197)"/>
  <path d="m82.226 259.78c14.498 0 26.25-11.753 26.25-26.25 0-14.498-11.752-26.25-26.25-26.25s-26.25 11.752-26.25 26.25c0 14.497 11.752 26.25 26.25 26.25z" clip-path="url(#clipPath1191)"/>
 </g>
 <path d="m329.33 137.79c0.709-0.451 1.183-0.976 1.059-1.172-0.125-0.195-0.801 0.012-1.51 0.464-0.71 0.451-1.184 0.976-1.059 1.172 0.124 0.195 0.8-0.012 1.51-0.464z" clip-path="url(#clipPath1185)" fill="#24386c"/>
 <path d="m313.68 210.15-34.829 4.473c-2.604 0.336-4.83 2.037-5.848 4.452l-13.545 32.403c-1.008 2.425-0.651 5.197 0.934 7.287l21.284 27.93c1.596 2.089 4.179 3.171 6.783 2.835l34.829-4.473c2.604-0.336 4.829-2.037 5.848-4.452l13.545-32.403c1.008-2.426 0.651-5.198-0.935-7.287l-21.283-27.93c-1.596-2.09-4.179-3.171-6.783-2.835z" clip-path="url(#clipPath1179)" fill="#d9e2ff"/>
 <path d="m280.36 223.03c0.692-0.478 1.146-1.02 1.015-1.211-0.132-0.191-0.8 0.042-1.492 0.519-0.692 0.478-1.147 1.02-1.015 1.211 0.132 0.19 0.8-0.042 1.492-0.519z" clip-path="url(#clipPath1173)" fill="#24386c"/>
 <path d="m59.757 106.08c0.1579-0.17-0.1273-0.692-0.637-1.165-0.5097-0.474-1.051-0.72-1.2089-0.55-0.1579 0.169 0.1273 0.691 0.637 1.165 0.5098 0.474 1.051 0.72 1.2089 0.55z" clip-path="url(#clipPath1167)" fill="#24386c"/>
 <path d="m127.25 8.8511-25.116-2.7195c-2.614-0.2835-5.176 0.8505-6.7195 2.9715l-14.931 20.381c-1.554 2.121-1.848 4.9035-0.7875 7.308l10.206 23.121c1.0605 2.4045 3.318 4.053 5.9325 4.3365l25.116 2.7195c2.615 0.2835 5.177-0.8505 6.72-2.9715l14.921-20.391c1.554-2.121 1.848-4.9035 0.787-7.308l-10.206-23.121c-1.05-2.394-3.318-4.0425-5.922-4.326z" clip-path="url(#clipPath1161)" fill="#d9e2ff"/>
 <path d="m258.88 113.34s41.306-18.532 70.15 23.888" clip-path="url(#clipPath1155)" stroke="#721ffa" stroke-linecap="round" stroke-miterlimit="10" stroke-width="1.05"/>
 <path d="m99.572 61.034c0.116-0.2008-0.2297-0.6175-0.7721-0.9307-0.5423-0.3131-1.076-0.4041-1.192-0.2033-0.116 0.2009 0.2297 0.6176 0.772 0.9308 0.5424 0.3131 1.0761 0.4041 1.1921 0.2032z" clip-path="url(#clipPath1149)" fill="#24386c"/>
 <path d="m258.88 113.34c42.178 26.607-7.686 66.664 21.157 109.1" clip-path="url(#clipPath1143)" stroke="#67c87a" stroke-linecap="round" stroke-miterlimit="10" stroke-width="1.05"/>
 <path d="m129.57 113.34c-13.167-21.41-50.39-28.917-70.508-8.326" clip-path="url(#clipPath1137)" stroke="#721ffa" stroke-linecap="round" stroke-miterlimit="10" stroke-width="1.05"/>
 <path d="m295.2 72.135 14.28-3.822 8.81 1.428c3.213 1.0185 5.785 3.4545 6.972 6.615l6.552 14.112-20.906 11.34-14.941-1.05-4.872-2.9924c-0.599-0.3675-0.977-1.0185-0.998-1.722l-0.504-15.782c-0.052-3.633 2.195-6.888 5.607-8.127z" clip-path="url(#clipPath1131)" fill="#721ffa"/>
 <path d="M 129.57,113.337 C 111.541,119.7 73,95 98.5,60.5" clip-path="url(#clipPath1125)" stroke="#67c87a" stroke-linecap="round" stroke-miterlimit="10" stroke-width="1.05"/>
 <path d="m256.28 120.35v-14.028c2.867 0 5.198 2.331 5.198 5.197v3.633c0 2.877-2.331 5.198-5.198 5.198z" clip-path="url(#clipPath1119)" clip-rule="evenodd" fill="#c91540" fill-rule="evenodd"/>
 <path d="m339.14 84.977 2.835-0.1785 2.593-1.1445c0.452-0.105 0.882 0.252 0.851 0.714l-0.147 2.331c-0.084 1.3965-1.155 2.52-2.541 2.688l-4.589 0.546" clip-path="url(#clipPath1113)" fill="#ffeca7"/>
 <path d="m132.16 120.35v-14.028c-2.866 0-5.197 2.331-5.197 5.197v3.633c0 2.877 2.331 5.198 5.197 5.198z" clip-path="url(#clipPath1107)" clip-rule="evenodd" fill="#c91540" fill-rule="evenodd"/>
 <path d="m297.46 98.167c0.28-0.5405-0.106-1.297-0.863-1.6897-0.756-0.3927-1.597-0.273-1.877 0.2675-0.281 0.5404 0.105 1.2969 0.862 1.6896 0.756 0.3928 1.597 0.273 1.878-0.2674z" clip-path="url(#clipPath1101)" fill="#24386c"/>
 <path d="m81.092 212.02c0.8382-0.066 1.5029-0.307 1.4846-0.538-0.0183-0.232-0.7126-0.365-1.5509-0.299-0.8382 0.066-1.5029 0.308-1.4846 0.539s0.7126 0.365 1.5509 0.298z" clip-path="url(#clipPath1095)" fill="#24386c"/>
 <path d="m129.57 113.34c0 27.184-59.776 39.973-48.51 98.059" clip-path="url(#clipPath1089)" stroke="#c91540" stroke-linecap="round" stroke-miterlimit="10" stroke-width="1.05"/>
 <g fill="#7d8cb5">
  <path d="m72.796 243.97h1.113c0.7035 0 1.2495-0.546 1.2495-1.25v-1.502c2.0265 0.116 4.7985 0.19 7.0665 0.19 2.2575 0 5.0295-0.074 7.056-0.19v1.502c0 0.704 0.546 1.25 1.26 1.25h1.1025c0.714 0 1.26-0.546 1.26-1.25v-2.425c0.3045-0.357 0.4725-0.84 0.4725-1.428v-1.628c0-1.627-0.2835-2.541-1.1655-3.643l-0.819-1.029c-0.3465-1.659-0.9555-3.402-1.2705-4.085-0.5145-1.092-1.512-1.732-2.7825-1.911-0.672-0.094-2.646-0.137-5.103-0.137s-4.4415 0.053-5.103 0.137c-1.2705 0.158-2.2785 0.819-2.7825 1.911-0.3255 0.683-0.9345 2.426-1.2705 4.085l-0.819 1.029c-0.8715 1.102-1.1655 2.016-1.1655 3.643v1.628c0 0.588 0.168 1.071 0.4725 1.428v2.425c-0.021 0.714 0.525 1.25 1.2285 1.25zm9.429-4.043c-3.1605 0-7.098-0.147-8.589-0.325-0.798-0.095-1.092-0.494-1.092-1.197v-1.24c0-1.249 0.2415-1.837 0.882-2.698l0.9975-1.302c0.231-1.239 0.8295-3.16 1.2075-3.979 0.315-0.651 0.903-1.029 1.7115-1.134 0.6405-0.084 2.436-0.158 4.8825-0.158s4.2735 0.084 4.8615 0.158c0.8295 0.105 1.407 0.493 1.7115 1.144 0.399 0.798 0.9765 2.709 1.2075 3.969l0.9975 1.302c0.651 0.861 0.882 1.449 0.882 2.698v1.24c0 0.703-0.294 1.102-1.0815 1.197-1.4805 0.168-5.4075 0.325-8.5785 0.325z" clip-path="url(#clipPath1083)"/>
  <path d="m90.573 232.21h-16.706v1.575h16.706z" clip-path="url(#clipPath1077)"/>
  <path d="m325.76 163.3c0 1.848 0.934 2.783 2.751 2.783h3.107v3.108c0 1.816 0.946 2.751 2.783 2.751h3.182c1.848 0 2.782-0.935 2.782-2.751v-3.108h3.097c1.817 0 2.762-0.945 2.762-2.783v-3.181c0-1.838-0.945-2.783-2.762-2.783h-3.097v-3.108c0-1.816-0.945-2.751-2.782-2.751h-3.182c-1.848 0-2.783 0.935-2.783 2.751v3.108h-3.107c-1.817 0-2.751 0.956-2.751 2.783zm1.9-0.199v-2.783c0-0.714 0.347-1.071 1.082-1.071h4.798v-4.809c0-0.724 0.357-1.071 1.061-1.071h2.792c0.704 0 1.061 0.347 1.061 1.071v4.809h4.799c0.724 0 1.081 0.357 1.081 1.071v2.783c0 0.714-0.357 1.06-1.081 1.06h-4.799v4.809c0 0.725-0.357 1.071-1.061 1.071h-2.792c-0.704 0-1.061-0.346-1.061-1.071v-4.809h-4.798c-0.735 0-1.082-0.346-1.082-1.06z" clip-path="url(#clipPath1071)"/>
 </g>
 <path d="m72.796 242.92h1.113c0.7035 0 1.2495-0.546 1.2495-1.25v-1.501c2.0265 0.115 4.7985 0.189 7.0665 0.189 2.2575 0 5.0295-0.074 7.056-0.189v1.501c0 0.704 0.546 1.25 1.26 1.25h1.1025c0.714 0 1.26-0.546 1.26-1.25v-2.425c0.3045-0.357 0.4725-0.84 0.4725-1.428v-1.628c0-1.627-0.2835-2.541-1.1655-3.643l-0.819-1.029c-0.3465-1.659-0.9555-3.402-1.2705-4.085-0.5145-1.092-1.512-1.732-2.7825-1.911-0.672-0.094-2.646-0.136-5.103-0.136s-4.4415 0.052-5.103 0.136c-1.2705 0.158-2.2785 0.819-2.7825 1.911-0.3255 0.683-0.9345 2.426-1.2705 4.085l-0.819 1.029c-0.8715 1.102-1.1655 2.016-1.1655 3.643v1.628c0 0.588 0.168 1.071 0.4725 1.428v2.425c-0.021 0.714 0.525 1.25 1.2285 1.25zm9.429-4.043c-3.1605 0-7.098-0.147-8.589-0.325-0.798-0.095-1.092-0.494-1.092-1.197v-1.239c0-1.25 0.2415-1.838 0.882-2.699l0.9975-1.302c0.231-1.239 0.8295-3.16 1.2075-3.979 0.315-0.651 0.903-1.029 1.7115-1.134 0.6405-0.084 2.436-0.158 4.8825-0.158s4.2735 0.084 4.8615 0.158c0.8295 0.105 1.407 0.493 1.7115 1.144 0.399 0.798 0.9765 2.709 1.2075 3.969l0.9975 1.302c0.651 0.861 0.882 1.449 0.882 2.699v1.239c0 0.703-0.294 1.102-1.0815 1.197-1.4805 0.168-5.4075 0.325-8.5785 0.325z" clip-path="url(#clipPath1065)" fill="#ffffff" stroke="#ffffff" stroke-miterlimit="10" stroke-width=".2625"/>
 <path d="m341.44 88.998-16.947 1.0605 1.407-4.998 16.076-0.2625z" clip-path="url(#clipPath1059)" fill="#721ffa"/>
 <path d="m322.23 105.44c-4.147-2.698-6.888-7.3814-6.888-12.694 0-8.358 6.783-15.141 15.141-15.141 6.09 0 11.351 3.6015 13.745 8.7885" clip-path="url(#clipPath1053)" stroke="#24386c" stroke-miterlimit="10" stroke-width="1.05"/>
 <path d="m121.55 43.407-1.05-0.1575-5.302-5.313 0.819-0.8085c0.577-0.5775 0.588-1.344-0.011-1.9425l-1.827-1.827c-0.504 0.399-1.165 0.378-1.617-0.0735-0.451-0.4305-0.472-1.1025-0.073-1.6065l-6.122-6.1215c-1.648-1.659-3.412-1.68-5.04-0.063l-1.6065 1.6065c-1.617 1.6275-1.596 3.3915 0.0525 5.04l6.132 6.1215c0.494-0.399 1.155-0.378 1.607 0.0735 0.451 0.4515 0.472 1.113 0.073 1.617l1.827 1.827c0.599 0.5985 1.355 0.588 1.943 0.0105l0.808-0.819 5.313 5.3025 0.158 1.05c0.063 0.3885 0.294 0.7455 0.64 0.9765l3.602 2.415c0.325 0.2205 0.672 0.252 0.913 0.0105l2.163-2.163c0.242-0.2415 0.21-0.588-0.01-0.9135l-2.415-3.6015c-0.221-0.3465-0.588-0.5775-0.977-0.6405zm-7.213-6.8355-3.539 3.5385c-0.252 0.252-0.546 0.231-0.787-0.0105l-0.599-0.5985c0.137-0.798-0.136-1.5435-0.777-2.184-0.64-0.6405-1.375-0.8925-2.142-0.735l-5.649-5.6595c-0.861-0.861-0.861-1.7745-0.021-2.625l1.701-1.701c0.84-0.84 1.764-0.84 2.615 0.021l5.67 5.649c-0.158 0.7665 0.094 1.5015 0.735 2.142 0.64 0.6405 1.386 0.9135 2.173 0.777l0.609 0.5985c0.242 0.2415 0.263 0.546 0.011 0.7875zm-9.786-8.4c-0.2-0.1995-0.515-0.189-0.704 0-0.21 0.21-0.199 0.5145 0 0.7035l4.158 4.2c0.189 0.1995 0.536 0.1785 0.714 0 0.21-0.21 0.21-0.5355 0.011-0.735zm-1.449 1.449c-0.189-0.189-0.525-0.1995-0.714 0-0.2 0.21-0.2 0.5145 0 0.714l4.179 4.1685c0.199 0.1995 0.514 0.1995 0.714 0 0.189-0.189 0.199-0.5145 0-0.714zm19.068 19.52-2.93-2.226-0.22-1.281-5.754-5.754 0.84-0.84 5.754 5.754 1.281 0.2205 2.226 2.9295z" clip-path="url(#clipPath1047)" fill="#7d8cb5"/>
 <path d="m311.64 88.882 5.428-1.323c0.452-0.105 0.882 0.252 0.851 0.714l-0.263 4.5045c-0.052 0.8925-0.819 1.554-1.711 1.491l-5.313-0.4305" clip-path="url(#clipPath1041)" fill="#ffeca7"/>
 <path d="m90.573 231.16h-16.706v1.575h16.706z" clip-path="url(#clipPath1035)" fill="#ffffff"/>
 <path d="m307.98 75.579c-2.268-0.504-3.874-2.5095-3.874-4.83v-12.044h9.891v12.054c-0.011 3.15-2.93 5.502-6.017 4.8195z" clip-path="url(#clipPath1029)" fill="#ffeca7"/>
 <path d="m325.76 162.68c0 1.848 0.934 2.782 2.751 2.782h3.107v3.108c0 1.817 0.946 2.751 2.783 2.751h3.182c1.848 0 2.782-0.934 2.782-2.751v-3.108h3.097c1.817 0 2.762-0.945 2.762-2.782v-3.182c0-1.837-0.945-2.782-2.762-2.782h-3.097v-3.108c0-1.817-0.945-2.751-2.782-2.751h-3.182c-1.848 0-2.783 0.934-2.783 2.751v3.108h-3.107c-1.817 0-2.751 0.955-2.751 2.782zm1.9-0.2v-2.782c0-0.714 0.347-1.071 1.082-1.071h4.798v-4.809c0-0.725 0.357-1.071 1.061-1.071h2.792c0.704 0 1.061 0.346 1.061 1.071v4.809h4.799c0.724 0 1.081 0.357 1.081 1.071v2.782c0 0.714-0.357 1.061-1.081 1.061h-4.799v4.809c0 0.724-0.357 1.071-1.061 1.071h-2.792c-0.704 0-1.061-0.347-1.061-1.071v-4.809h-4.798c-0.735 0-1.082-0.347-1.082-1.061z" clip-path="url(#clipPath1023)" fill="#ffffff"/>
 <path d="m121.55 42.356-1.05-0.1575-5.302-5.313 0.819-0.8085c0.577-0.5775 0.588-1.344-0.011-1.9425l-1.827-1.827c-0.504 0.399-1.165 0.378-1.617-0.0735-0.451-0.4305-0.472-1.1025-0.073-1.6065l-6.122-6.1215c-1.648-1.659-3.412-1.68-5.04-0.063l-1.6065 1.6065c-1.617 1.6275-1.596 3.3915 0.0525 5.04l6.132 6.1215c0.494-0.399 1.155-0.378 1.607 0.0735 0.451 0.4515 0.472 1.113 0.073 1.617l1.827 1.827c0.599 0.5985 1.355 0.588 1.943 0.0105l0.808-0.819 5.313 5.3025 0.158 1.05c0.063 0.3885 0.294 0.7455 0.64 0.9765l3.602 2.415c0.325 0.2205 0.672 0.252 0.913 0.0105l2.163-2.163c0.242-0.2415 0.21-0.588-0.01-0.9135l-2.415-3.6015c-0.221-0.3465-0.588-0.5775-0.977-0.6405zm-7.213-6.8355-3.539 3.5385c-0.252 0.252-0.546 0.231-0.787-0.0105l-0.599-0.5985c0.137-0.798-0.136-1.5435-0.777-2.184-0.64-0.6405-1.375-0.8925-2.142-0.735l-5.649-5.6595c-0.861-0.861-0.861-1.7745-0.021-2.625l1.701-1.701c0.84-0.84 1.764-0.84 2.615 0.021l5.67 5.649c-0.158 0.7665 0.094 1.5015 0.735 2.142 0.64 0.6405 1.386 0.9135 2.173 0.777l0.609 0.5985c0.242 0.2415 0.263 0.546 0.011 0.7875zm-9.786-8.4c-0.2-0.1995-0.515-0.189-0.704 0-0.21 0.21-0.199 0.5145 0 0.7035l4.158 4.2c0.189 0.1995 0.536 0.1785 0.714 0 0.21-0.21 0.21-0.5355 0.011-0.735zm-1.449 1.449c-0.189-0.189-0.525-0.1995-0.714 0-0.2 0.21-0.2 0.5145 0 0.714l4.179 4.1685c0.199 0.1995 0.514 0.1995 0.714 0 0.189-0.189 0.199-0.5145 0-0.714zm19.068 19.52-2.93-2.226-0.22-1.281-5.754-5.754 0.84-0.84 5.754 5.754 1.281 0.2205 2.226 2.9295z" clip-path="url(#clipPath1017)" fill="#ffffff"/>
 <path d="m320.52 97.282h-10.342" clip-path="url(#clipPath1011)" stroke="#ffffff" stroke-miterlimit="10" stroke-width="1.05"/>
 <path d="m284.88 98.406c6.909 5.912 15.876 9.482 25.683 9.482 14.942 0 27.941-8.285 34.671-20.518 0 0-12.327-4.0005-27.289 4.7565-18.638 10.91-33.065 6.279-33.065 6.279z" clip-path="url(#clipPath1005)" fill="#b2bfe8"/>
 <path d="m313.98 67.735v1.1235c-3.738-0.042-6.142-2.6355-6.142-2.6355z" clip-path="url(#clipPath999)" fill="#24386c"/>
 <path d="m258.88 113.34s25.598 5.46 37.085-15.708" clip-path="url(#clipPath993)" stroke="#c91540" stroke-linecap="round" stroke-miterlimit="10" stroke-width="1.05"/>
 <path d="m325.08 53.686c-0.536 10.826-5.513 16.16-15.572 13.272-7.476-2.142-11.707-8.4315-10.983-16.17 0.725-7.7385 6.122-13.156 13.861-12.432 7.738 0.735 13.082 7.5705 12.694 15.33z" clip-path="url(#clipPath987)" fill="#ffeca7"/>
 <path d="m321.65 53.014 0.147 4.263c0.021 0.6405-0.525 1.1445-1.165 1.0815l-1.68-0.1785" clip-path="url(#clipPath981)" stroke="#24386c" stroke-linecap="round" stroke-miterlimit="10" stroke-width=".525"/>
 <path d="m316.71 51.922c0.453 0 0.819-0.3666 0.819-0.819 0-0.4523-0.366-0.819-0.819-0.819-0.452 0-0.819 0.3667-0.819 0.819 0 0.4524 0.367 0.819 0.819 0.819z" clip-path="url(#clipPath975)" fill="#24386c"/>
 <path d="m323.92 52.185c0.452 0 0.819-0.3667 0.819-0.819s-0.367-0.819-0.819-0.819-0.819 0.3667-0.819 0.819 0.367 0.819 0.819 0.819z" clip-path="url(#clipPath969)" fill="#24386c"/>
 <path d="m318.96 62.045s-2.268-0.0525-3.349-2.1525" clip-path="url(#clipPath963)" stroke="#24386c" stroke-linecap="round" stroke-miterlimit="10" stroke-width=".525"/>
 <path d="m324.22 47.88c-2.331 0.4515-6.468 0.924-11.928 0.273-1.522-0.1785-2.961 0.924-3.181 2.4465l-0.431 2.982c-0.073 0.5145-0.546 0.8715-1.05 0.8085-0.42-0.0525-0.745-0.357-0.819-0.777-0.241-1.365-0.976-4.2735-2.719-3.8325-3.098 0.777 0 6.2685 0 6.2685l-2.342 6.0165s-6.09-4.641-4.326-14.69c1.764-10.059 12.768-13.083 20.57-9.765 4.788 2.037 6.867 5.2605 7.749 7.455 0.504 1.197-0.221 2.562-1.523 2.814z" clip-path="url(#clipPath957)" fill="#c91540"/>
 <path d="m297.82 84.462 1.208 5.943 12.578-1.4805s-0.713 2.31-0.713 4.914" clip-path="url(#clipPath951)" stroke="#24386c" stroke-linecap="round" stroke-miterlimit="10" stroke-width=".525"/>
 <path d="m314.59 88.169 1.365-1.239 0.315 0.903z" clip-path="url(#clipPath945)" fill="#ffeca7"/>
 <path d="m40.11 127.5s-0.8715 15.11-5.5335 26.345c-2.94 7.087 30.324 0 30.324 0s5.0295-19.005 1.89-29.579c-1.974-6.636-26.68 3.234-26.68 3.234z" clip-path="url(#clipPath939)" fill="#24386c"/>
 <path d="m345.23 87.37-1.817-0.42-0.577-1.7955 0.965-1.0815 0.967 1.89z" clip-path="url(#clipPath933)" fill="#ffeca7"/>
 <path d="m51.082 150.59 4.851-0.745 5.229 1.963c3.9165 1.47 7.0665 4.484 8.715 8.337l-13.272 11.76-0.021 0.021c-3.0555 2.636-7.6545 2.352-10.353-0.64l-14.416-16.254 14.322-6.132z" clip-path="url(#clipPath927)" fill="#ffffff"/>
 <g stroke="#24386c" stroke-linecap="round" stroke-miterlimit="10" stroke-width=".525">
  <path d="m329.12 85.155-0.988 0.9345" clip-path="url(#clipPath921)"/>
  <path d="m321.79 84.472 0.609 4.9035" clip-path="url(#clipPath915)"/>
  <path d="m299.06 90.478-0.998 0.9345" clip-path="url(#clipPath909)"/>
 </g>
 <path d="m298.45 101.74c5.471-0.672 12.285-2.541 19.782-6.93 9.807-5.7435 18.491-5.9955 23.3-5.4915" clip-path="url(#clipPath903)" stroke="#95a7da" stroke-linecap="round" stroke-miterlimit="10" stroke-width=".525"/>
 <path d="m51.082 156.21c-2.268-0.504-4.9455-4.987-4.9455-7.308v-12.054h9.891v12.054c0 3.161-1.8585 7.991-4.9455 7.308z" clip-path="url(#clipPath897)" fill="#ffeca7"/>
 <path d="m56.028 145.89v1.124c-3.738-0.042-3.927-2.195-3.927-2.195z" clip-path="url(#clipPath891)" fill="#24386c"/>
 <path d="m67.126 131.84c-1.7325 12.537-5.5125 16.16-15.572 13.272-7.476-2.142-11.708-8.431-10.983-16.17 0.7245-7.738 6.1215-13.156 13.86-12.432 7.7385 0.725 13.976 6.069 12.694 15.33z" clip-path="url(#clipPath885)" fill="#ffeca7"/>
 <path d="m60.333 133.34 0.147 4.263c0.021 0.641-0.525 1.145-1.1655 1.082" clip-path="url(#clipPath879)" stroke="#24386c" stroke-linecap="round" stroke-miterlimit="10" stroke-width=".525"/>
 <path d="m57.068 133.72c0.4523 0 0.819-0.367 0.819-0.819 0-0.453-0.3667-0.819-0.819-0.819s-0.819 0.366-0.819 0.819c0 0.452 0.3667 0.819 0.819 0.819z" clip-path="url(#clipPath873)" fill="#24386c"/>
 <path d="m63.231 133.35c0.4523 0 0.819-0.367 0.819-0.819s-0.3667-0.819-0.819-0.819-0.819 0.367-0.819 0.819 0.3667 0.819 0.819 0.819z" clip-path="url(#clipPath867)" fill="#24386c"/>
 <path d="m57.382 141.21c0.966 0.452 1.869 0.42 2.562 0.252" clip-path="url(#clipPath861)" stroke="#24386c" stroke-linecap="round" stroke-miterlimit="10" stroke-width=".525"/>
 <path d="m67.084 127.03c-1.806-1.953-6.2055 4.21-14.028 1.428 0 0-4.746 1.974-3.1815 9.061 1.6695 7.592-3.738 11.382-3.738 11.382s-7.791-11.35-6.027-21.399c1.764-10.048 10.89-14.859 19.929-11.76 10.961 3.759 7.0455 11.288 7.0455 11.288z" clip-path="url(#clipPath855)" fill="#24386c"/>
 <path d="m66.076 125.45s-5.7015 1.575-13.251 1.26c0 0-0.7035-6.877 7.0665-7.36 7.77-0.494 6.1845 6.1 6.1845 6.1z" clip-path="url(#clipPath849)" fill="#ffffff"/>
 <path d="m60.165 121.59v2.993" clip-path="url(#clipPath843)" stroke="#c91540" stroke-linecap="round" stroke-miterlimit="10" stroke-width="1.05"/>
 <path d="m328.84 281.23c-1.05 2.226-3.224 3.717-5.691 3.875l-0.41 0.031-33.6 4.316-0.241 0.084c-0.851 0.315-1.785 0.294-2.625-0.053l0.934-16.065c0.326-5.46 3.77-10.237 8.852-12.264l9.954-3.969 12.316 1.764c3.381 0.483 6.111 3.014 6.846 6.342z" clip-path="url(#clipPath837)" fill="#c91540"/>
 <path d="m61.656 123.09h-2.982" clip-path="url(#clipPath831)" stroke="#c91540" stroke-linecap="round" stroke-miterlimit="10" stroke-width="1.05"/>
 <path d="m306.92 261.43c2.215-0.693 3.643-2.835 3.444-5.145l-1.04-12.002-9.849 0.851 1.04 12.001c0.273 3.15 3.391 5.24 6.405 4.295z" clip-path="url(#clipPath825)" fill="#ffeca7"/>
 <path d="m306.62 253.68s-1.512 2.782-6.195 2.436l-0.074-1.397z" clip-path="url(#clipPath819)" fill="#24386c"/>
 <path d="m315.78 243.9c-1.974 6.195-9.051 12.065-15.404 11.225-12.264-1.638-10.636-12.222-8.536-18.837s9.166-10.269 15.771-8.159c6.615 2.1 10.279 9.167 8.169 15.771z" clip-path="url(#clipPath813)" fill="#ffeca7"/>
 <path d="m297.07 237.04-1.491 3.969c-0.21 0.567 0.084 1.197 0.661 1.397l0.83 0.283" clip-path="url(#clipPath807)" stroke="#24386c" stroke-linecap="round" stroke-miterlimit="10" stroke-width=".525"/>
 <path d="m295.04 246.15s1.754 0.924 3.592-0.42" clip-path="url(#clipPath801)" stroke="#24386c" stroke-linecap="round" stroke-miterlimit="10" stroke-width=".525"/>
 <path d="m302.45 237.4c0.452 0 0.819-0.367 0.819-0.819 0-0.453-0.367-0.819-0.819-0.819-0.453 0-0.819 0.366-0.819 0.819 0 0.452 0.366 0.819 0.819 0.819z" clip-path="url(#clipPath795)" fill="#24386c"/>
 <path d="m295.87 235.38c0.452 0 0.819-0.366 0.819-0.819 0-0.452-0.367-0.819-0.819-0.819s-0.819 0.367-0.819 0.819c0 0.453 0.367 0.819 0.819 0.819z" clip-path="url(#clipPath789)" fill="#24386c"/>
 <path d="m316 244.18s-10.595-16.926-21.84-14.259c0 0 5.838-8.421 15.319-4.316 9.471 4.095 9.03 13.766 6.521 18.575z" clip-path="url(#clipPath783)" fill="#721ffa"/>
 <path d="m316.18 245.78c0.782-0.987 0.829-2.25 0.107-2.823-0.723-0.572-1.942-0.237-2.724 0.749-0.781 0.987-0.829 2.25-0.106 2.823 0.722 0.572 1.942 0.237 2.723-0.749z" clip-path="url(#clipPath777)" fill="#ffeca7"/>
 <path d="m309.17 235.94s-3.727 0.346-14.301-3.087c-7.465-2.426-0.714-2.919-0.714-2.919s6.153-2.541 15.015 6.006z" clip-path="url(#clipPath771)" fill="#67c87a"/>
 <path d="m313.88 241.12-1.879 4.61 0.683 0.724 2.394-3.738z" clip-path="url(#clipPath765)" fill="#24386c"/>
 <path d="m315.88 258.48 0.494 14.994-18.732 2.079-1.638-14.48-1.061 0.441 1.239 14.406-2.226 1.386-0.462 11.582 29.243-3.759-2.331-10.941-2.342-0.893-1.113-14.7z" clip-path="url(#clipPath759)" fill="#67c87a"/>
 <g stroke="#d9e2ff" stroke-miterlimit="10" stroke-width="1.05">
  <path d="m371.63 166.28-30.428 30.429c-2.867 2.866-7.529 2.866-10.396 0l-30.428-30.429c-2.867-2.867-2.867-7.529 0-10.395l30.428-30.429c2.867-2.867 7.529-2.867 10.396 0l30.428 30.429c2.867 2.866 2.867 7.528 0 10.395z" clip-path="url(#clipPath753)" opacity=".3"/>
  <path d="m82.226 264.02c16.84 0 30.492-13.651 30.492-30.492 0-16.84-13.651-30.492-30.492-30.492s-30.492 13.652-30.492 30.492c0 16.841 13.652 30.492 30.492 30.492z" clip-path="url(#clipPath747)" opacity=".3"/>
  <path d="m130.37 4.5775-30.376-3.297c-2.6145-0.2835-5.1765 0.8505-6.72 2.9715l-18.05 24.664c-1.554 2.121-1.848 4.9035-0.7875 7.308l12.338 27.951c1.0605 2.4045 3.318 4.053 5.9325 4.3365l30.376 3.297c2.614 0.2835 5.176-0.8505 6.72-2.9715l18.039-24.664c1.554-2.121 1.848-4.9035 0.787-7.308l-12.337-27.951c-1.05-2.394-3.308-4.053-5.922-4.3365z" clip-path="url(#clipPath741)" opacity=".3"/>
 </g>
 <path d="m258.2 109.2v2.1" clip-path="url(#clipPath735)" opacity=".7" stroke="#ffffff" stroke-linecap="round" stroke-miterlimit="10" stroke-width="1.05"/>
 <path d="m130.2 109.2v2.1" clip-path="url(#clipPath729)" opacity=".7" stroke="#ffffff" stroke-linecap="round" stroke-miterlimit="10" stroke-width="1.05"/>
 <defs>
  <linearGradient id="paint0_linear_512_332" x1="193.77" x2="178.52" y1="303.24" y2="303.93" gradientUnits="userSpaceOnUse">
   <stop stop-color="#FF3364" offset="0"/>
   <stop stop-color="#C91540" stop-opacity="0" offset="1"/>
  </linearGradient>
  <linearGradient id="paint1_linear_512_332" x1="194.19" x2="194.19" y1="255.49" y2="112.58" gradientUnits="userSpaceOnUse">
   <stop stop-color="white" stop-opacity="0" offset="0"/>
   <stop stop-color="#B2BFE8" stop-opacity=".4" offset=".756"/>
  </linearGradient>
  <linearGradient id="paint2_linear_512_332" x1="239.4" x2="234.76" y1="336.78" y2="328.73" gradientUnits="userSpaceOnUse">
   <stop stop-color="#B2BFE8" stop-opacity="0" offset="0"/>
   <stop stop-color="#24386C" offset="1"/>
  </linearGradient>
  <linearGradient id="paint3_linear_512_332" x1="220.39" x2="208.14" y1="347.89" y2="326.68" gradientUnits="userSpaceOnUse">
   <stop stop-color="#B2BFE8" stop-opacity="0" offset="0"/>
   <stop stop-color="#24386C" offset="1"/>
  </linearGradient>
  <clipPath id="clipPath729">
   <rect width="388.5" height="372.75" fill="#ffffff"/>
  </clipPath>
  <clipPath id="clipPath735">
   <rect width="388.5" height="372.75" fill="#ffffff"/>
  </clipPath>
  <clipPath id="clipPath741">
   <rect width="388.5" height="372.75" fill="#ffffff"/>
  </clipPath>
  <clipPath id="clipPath747">
   <rect width="388.5" height="372.75" fill="#ffffff"/>
  </clipPath>
  <clipPath id="clipPath753">
   <rect width="388.5" height="372.75" fill="#ffffff"/>
  </clipPath>
  <clipPath id="clipPath759">
   <rect width="388.5" height="372.75" fill="#ffffff"/>
  </clipPath>
  <clipPath id="clipPath765">
   <rect width="388.5" height="372.75" fill="#ffffff"/>
  </clipPath>
  <clipPath id="clipPath771">
   <rect width="388.5" height="372.75" fill="#ffffff"/>
  </clipPath>
  <clipPath id="clipPath777">
   <rect width="388.5" height="372.75" fill="#ffffff"/>
  </clipPath>
  <clipPath id="clipPath783">
   <rect width="388.5" height="372.75" fill="#ffffff"/>
  </clipPath>
  <clipPath id="clipPath789">
   <rect width="388.5" height="372.75" fill="#ffffff"/>
  </clipPath>
  <clipPath id="clipPath795">
   <rect width="388.5" height="372.75" fill="#ffffff"/>
  </clipPath>
  <clipPath id="clipPath801">
   <rect width="388.5" height="372.75" fill="#ffffff"/>
  </clipPath>
  <clipPath id="clipPath807">
   <rect width="388.5" height="372.75" fill="#ffffff"/>
  </clipPath>
  <clipPath id="clipPath813">
   <rect width="388.5" height="372.75" fill="#ffffff"/>
  </clipPath>
  <clipPath id="clipPath819">
   <rect width="388.5" height="372.75" fill="#ffffff"/>
  </clipPath>
  <clipPath id="clipPath825">
   <rect width="388.5" height="372.75" fill="#ffffff"/>
  </clipPath>
  <clipPath id="clipPath831">
   <rect width="388.5" height="372.75" fill="#ffffff"/>
  </clipPath>
  <clipPath id="clipPath837">
   <rect width="388.5" height="372.75" fill="#ffffff"/>
  </clipPath>
  <clipPath id="clipPath843">
   <rect width="388.5" height="372.75" fill="#ffffff"/>
  </clipPath>
  <clipPath id="clipPath849">
   <rect width="388.5" height="372.75" fill="#ffffff"/>
  </clipPath>
  <clipPath id="clipPath855">
   <rect width="388.5" height="372.75" fill="#ffffff"/>
  </clipPath>
  <clipPath id="clipPath861">
   <rect width="388.5" height="372.75" fill="#ffffff"/>
  </clipPath>
  <clipPath id="clipPath867">
   <rect width="388.5" height="372.75" fill="#ffffff"/>
  </clipPath>
  <clipPath id="clipPath873">
   <rect width="388.5" height="372.75" fill="#ffffff"/>
  </clipPath>
  <clipPath id="clipPath879">
   <rect width="388.5" height="372.75" fill="#ffffff"/>
  </clipPath>
  <clipPath id="clipPath885">
   <rect width="388.5" height="372.75" fill="#ffffff"/>
  </clipPath>
  <clipPath id="clipPath891">
   <rect width="388.5" height="372.75" fill="#ffffff"/>
  </clipPath>
  <clipPath id="clipPath897">
   <rect width="388.5" height="372.75" fill="#ffffff"/>
  </clipPath>
  <clipPath id="clipPath903">
   <rect width="388.5" height="372.75" fill="#ffffff"/>
  </clipPath>
  <clipPath id="clipPath909">
   <rect width="388.5" height="372.75" fill="#ffffff"/>
  </clipPath>
  <clipPath id="clipPath915">
   <rect width="388.5" height="372.75" fill="#ffffff"/>
  </clipPath>
  <clipPath id="clipPath921">
   <rect width="388.5" height="372.75" fill="#ffffff"/>
  </clipPath>
  <clipPath id="clipPath927">
   <rect width="388.5" height="372.75" fill="#ffffff"/>
  </clipPath>
  <clipPath id="clipPath933">
   <rect width="388.5" height="372.75" fill="#ffffff"/>
  </clipPath>
  <clipPath id="clipPath939">
   <rect width="388.5" height="372.75" fill="#ffffff"/>
  </clipPath>
  <clipPath id="clipPath945">
   <rect width="388.5" height="372.75" fill="#ffffff"/>
  </clipPath>
  <clipPath id="clipPath951">
   <rect width="388.5" height="372.75" fill="#ffffff"/>
  </clipPath>
  <clipPath id="clipPath957">
   <rect width="388.5" height="372.75" fill="#ffffff"/>
  </clipPath>
  <clipPath id="clipPath963">
   <rect width="388.5" height="372.75" fill="#ffffff"/>
  </clipPath>
  <clipPath id="clipPath969">
   <rect width="388.5" height="372.75" fill="#ffffff"/>
  </clipPath>
  <clipPath id="clipPath975">
   <rect width="388.5" height="372.75" fill="#ffffff"/>
  </clipPath>
  <clipPath id="clipPath981">
   <rect width="388.5" height="372.75" fill="#ffffff"/>
  </clipPath>
  <clipPath id="clipPath987">
   <rect width="388.5" height="372.75" fill="#ffffff"/>
  </clipPath>
  <clipPath id="clipPath993">
   <rect width="388.5" height="372.75" fill="#ffffff"/>
  </clipPath>
  <clipPath id="clipPath999">
   <rect width="388.5" height="372.75" fill="#ffffff"/>
  </clipPath>
  <clipPath id="clipPath1005">
   <rect width="388.5" height="372.75" fill="#ffffff"/>
  </clipPath>
  <clipPath id="clipPath1011">
   <rect width="388.5" height="372.75" fill="#ffffff"/>
  </clipPath>
  <clipPath id="clipPath1017">
   <rect width="388.5" height="372.75" fill="#ffffff"/>
  </clipPath>
  <clipPath id="clipPath1023">
   <rect width="388.5" height="372.75" fill="#ffffff"/>
  </clipPath>
  <clipPath id="clipPath1029">
   <rect width="388.5" height="372.75" fill="#ffffff"/>
  </clipPath>
  <clipPath id="clipPath1035">
   <rect width="388.5" height="372.75" fill="#ffffff"/>
  </clipPath>
  <clipPath id="clipPath1041">
   <rect width="388.5" height="372.75" fill="#ffffff"/>
  </clipPath>
  <clipPath id="clipPath1047">
   <rect width="388.5" height="372.75" fill="#ffffff"/>
  </clipPath>
  <clipPath id="clipPath1053">
   <rect width="388.5" height="372.75" fill="#ffffff"/>
  </clipPath>
  <clipPath id="clipPath1059">
   <rect width="388.5" height="372.75" fill="#ffffff"/>
  </clipPath>
  <clipPath id="clipPath1065">
   <rect width="388.5" height="372.75" fill="#ffffff"/>
  </clipPath>
  <clipPath id="clipPath1071">
   <rect width="388.5" height="372.75" fill="#ffffff"/>
  </clipPath>
  <clipPath id="clipPath1077">
   <rect width="388.5" height="372.75" fill="#ffffff"/>
  </clipPath>
  <clipPath id="clipPath1083">
   <rect width="388.5" height="372.75" fill="#ffffff"/>
  </clipPath>
  <clipPath id="clipPath1089">
   <rect width="388.5" height="372.75" fill="#ffffff"/>
  </clipPath>
  <clipPath id="clipPath1095">
   <rect width="388.5" height="372.75" fill="#ffffff"/>
  </clipPath>
  <clipPath id="clipPath1101">
   <rect width="388.5" height="372.75" fill="#ffffff"/>
  </clipPath>
  <clipPath id="clipPath1107">
   <rect width="388.5" height="372.75" fill="#ffffff"/>
  </clipPath>
  <clipPath id="clipPath1113">
   <rect width="388.5" height="372.75" fill="#ffffff"/>
  </clipPath>
  <clipPath id="clipPath1119">
   <rect width="388.5" height="372.75" fill="#ffffff"/>
  </clipPath>
  <clipPath id="clipPath1125">
   <rect width="388.5" height="372.75" fill="#ffffff"/>
  </clipPath>
  <clipPath id="clipPath1131">
   <rect width="388.5" height="372.75" fill="#ffffff"/>
  </clipPath>
  <clipPath id="clipPath1137">
   <rect width="388.5" height="372.75" fill="#ffffff"/>
  </clipPath>
  <clipPath id="clipPath1143">
   <rect width="388.5" height="372.75" fill="#ffffff"/>
  </clipPath>
  <clipPath id="clipPath1149">
   <rect width="388.5" height="372.75" fill="#ffffff"/>
  </clipPath>
  <clipPath id="clipPath1155">
   <rect width="388.5" height="372.75" fill="#ffffff"/>
  </clipPath>
  <clipPath id="clipPath1161">
   <rect width="388.5" height="372.75" fill="#ffffff"/>
  </clipPath>
  <clipPath id="clipPath1167">
   <rect width="388.5" height="372.75" fill="#ffffff"/>
  </clipPath>
  <clipPath id="clipPath1173">
   <rect width="388.5" height="372.75" fill="#ffffff"/>
  </clipPath>
  <clipPath id="clipPath1179">
   <rect width="388.5" height="372.75" fill="#ffffff"/>
  </clipPath>
  <clipPath id="clipPath1185">
   <rect width="388.5" height="372.75" fill="#ffffff"/>
  </clipPath>
  <clipPath id="clipPath1191">
   <rect width="388.5" height="372.75" fill="#ffffff"/>
  </clipPath>
  <clipPath id="clipPath1197">
   <rect width="388.5" height="372.75" fill="#ffffff"/>
  </clipPath>
  <clipPath id="clipPath1203">
   <rect width="388.5" height="372.75" fill="#ffffff"/>
  </clipPath>
  <clipPath id="clipPath1209">
   <rect width="388.5" height="372.75" fill="#ffffff"/>
  </clipPath>
  <clipPath id="clipPath1215">
   <rect width="388.5" height="372.75" fill="#ffffff"/>
  </clipPath>
  <clipPath id="clipPath1221">
   <rect width="388.5" height="372.75" fill="#ffffff"/>
  </clipPath>
  <clipPath id="clipPath1227">
   <rect width="388.5" height="372.75" fill="#ffffff"/>
  </clipPath>
  <clipPath id="clipPath1233">
   <rect width="388.5" height="372.75" fill="#ffffff"/>
  </clipPath>
  <clipPath id="clipPath1239">
   <rect width="388.5" height="372.75" fill="#ffffff"/>
  </clipPath>
  <clipPath id="clipPath1245">
   <rect width="388.5" height="372.75" fill="#ffffff"/>
  </clipPath>
  <clipPath id="clipPath1251">
   <rect width="388.5" height="372.75" fill="#ffffff"/>
  </clipPath>
  <clipPath id="clipPath1257">
   <rect width="388.5" height="372.75" fill="#ffffff"/>
  </clipPath>
  <clipPath id="clipPath1263">
   <rect width="388.5" height="372.75" fill="#ffffff"/>
  </clipPath>
  <clipPath id="clipPath1269">
   <rect width="388.5" height="372.75" fill="#ffffff"/>
  </clipPath>
  <clipPath id="clipPath1275">
   <rect width="388.5" height="372.75" fill="#ffffff"/>
  </clipPath>
  <clipPath id="clipPath1281">
   <rect width="388.5" height="372.75" fill="#ffffff"/>
  </clipPath>
  <clipPath id="clipPath1287">
   <rect width="388.5" height="372.75" fill="#ffffff"/>
  </clipPath>
  <clipPath id="clipPath1293">
   <rect width="388.5" height="372.75" fill="#ffffff"/>
  </clipPath>
  <clipPath id="clipPath1299">
   <rect width="388.5" height="372.75" fill="#ffffff"/>
  </clipPath>
  <clipPath id="clipPath1305">
   <rect width="388.5" height="372.75" fill="#ffffff"/>
  </clipPath>
  <clipPath id="clipPath1311">
   <rect width="388.5" height="372.75" fill="#ffffff"/>
  </clipPath>
  <clipPath id="clipPath1317">
   <rect width="388.5" height="372.75" fill="#ffffff"/>
  </clipPath>
  <clipPath id="clipPath1323">
   <rect width="388.5" height="372.75" fill="#ffffff"/>
  </clipPath>
  <clipPath id="clipPath1329">
   <rect width="388.5" height="372.75" fill="#ffffff"/>
  </clipPath>
  <clipPath id="clipPath1335">
   <rect width="388.5" height="372.75" fill="#ffffff"/>
  </clipPath>
  <clipPath id="clipPath1341">
   <rect width="388.5" height="372.75" fill="#ffffff"/>
  </clipPath>
  <clipPath id="clipPath1347">
   <rect width="388.5" height="372.75" fill="#ffffff"/>
  </clipPath>
  <clipPath id="clipPath1353">
   <rect width="388.5" height="372.75" fill="#ffffff"/>
  </clipPath>
  <clipPath id="clipPath1359">
   <rect width="388.5" height="372.75" fill="#ffffff"/>
  </clipPath>
  <clipPath id="clipPath1365">
   <rect width="388.5" height="372.75" fill="#ffffff"/>
  </clipPath>
  <clipPath id="clipPath1371">
   <rect width="388.5" height="372.75" fill="#ffffff"/>
  </clipPath>
  <clipPath id="clipPath1377">
   <rect width="388.5" height="372.75" fill="#ffffff"/>
  </clipPath>
  <clipPath id="clipPath1383">
   <rect width="388.5" height="372.75" fill="#ffffff"/>
  </clipPath>
  <clipPath id="clipPath1389">
   <rect width="388.5" height="372.75" fill="#ffffff"/>
  </clipPath>
  <clipPath id="clipPath1395">
   <rect width="388.5" height="372.75" fill="#ffffff"/>
  </clipPath>
  <clipPath id="clipPath1401">
   <rect width="388.5" height="372.75" fill="#ffffff"/>
  </clipPath>
  <clipPath id="clipPath1407">
   <rect width="388.5" height="372.75" fill="#ffffff"/>
  </clipPath>
  <clipPath id="clipPath1413">
   <rect width="388.5" height="372.75" fill="#ffffff"/>
  </clipPath>
  <clipPath id="clipPath1419">
   <rect width="388.5" height="372.75" fill="#ffffff"/>
  </clipPath>
  <clipPath id="clipPath1425">
   <rect width="388.5" height="372.75" fill="#ffffff"/>
  </clipPath>
  <clipPath id="clipPath1431">
   <rect width="388.5" height="372.75" fill="#ffffff"/>
  </clipPath>
  <clipPath id="clipPath1437">
   <rect width="388.5" height="372.75" fill="#ffffff"/>
  </clipPath>
  <clipPath id="clipPath1443">
   <rect width="388.5" height="372.75" fill="#ffffff"/>
  </clipPath>
  <clipPath id="clipPath1449">
   <rect width="388.5" height="372.75" fill="#ffffff"/>
  </clipPath>
  <clipPath id="clipPath1455">
   <rect width="388.5" height="372.75" fill="#ffffff"/>
  </clipPath>
  <clipPath id="clipPath1461">
   <rect width="388.5" height="372.75" fill="#ffffff"/>
  </clipPath>
  <clipPath id="clipPath1467">
   <rect width="388.5" height="372.75" fill="#ffffff"/>
  </clipPath>
  <clipPath id="clipPath1473">
   <rect width="388.5" height="372.75" fill="#ffffff"/>
  </clipPath>
  <clipPath id="clipPath1479">
   <rect width="388.5" height="372.75" fill="#ffffff"/>
  </clipPath>
  <clipPath id="clipPath1485">
   <rect width="388.5" height="372.75" fill="#ffffff"/>
  </clipPath>
  <clipPath id="clipPath1491">
   <rect width="388.5" height="372.75" fill="#ffffff"/>
  </clipPath>
  <clipPath id="clipPath1497">
   <rect width="388.5" height="372.75" fill="#ffffff"/>
  </clipPath>
  <clipPath id="clipPath1503">
   <rect width="388.5" height="372.75" fill="#ffffff"/>
  </clipPath>
  <clipPath id="clipPath1515">
   <rect width="388.5" height="372.75" fill="#ffffff"/>
  </clipPath>
  <clipPath id="clipPath1521">
   <rect width="388.5" height="372.75" fill="#ffffff"/>
  </clipPath>
  <clipPath id="clipPath1527">
   <rect width="388.5" height="372.75" fill="#ffffff"/>
  </clipPath>
  <clipPath id="clipPath1533">
   <rect width="388.5" height="372.75" fill="#ffffff"/>
  </clipPath>
 </defs>
</svg>
