<?xml version="1.0" encoding="UTF-8"?>
<svg width="396" height="380" fill="none" version="1.1" viewBox="0 0 396 380" xmlns="http://www.w3.org/2000/svg">
 <path d="m0 337.16v-33.116l191.19-110.38c4.183-2.418 9.341-2.418 13.524 0l191.19 110.38v33.116l-73.937 42.693h-248z" clip-path="url(#clipPath1227)" clip-rule="evenodd" fill="url(#paint0_linear_1013_5906)" fill-rule="evenodd" opacity=".6"/>
 <path d="m255.62 210.68h61.557c4.141 0 7.49-3.349 7.49-7.49v-186.35c0-4.1409-3.349-7.49-7.49-7.49h-238.46c-4.1409 0-7.49 3.3491-7.49 7.49v186.35c0 4.141 3.3491 7.49 7.49 7.49h60.444" clip-path="url(#clipPath1221)" stroke="#d9e2ff" stroke-miterlimit="10" stroke-width="1.07"/>
 <path d="m261.9 224h68.736c4.624 0 8.364-3.876 8.364-8.668v-215.66c0-4.7923-3.74-8.6682-8.364-8.6682h-266.27c-4.6239 0-8.3636 3.8759-8.3636 8.6682v215.66c0 4.792 3.7397 8.668 8.3636 8.668h67.494" clip-path="url(#clipPath1215)" stroke="#d9e2ff" stroke-dasharray="3, 4" stroke-miterlimit="10" stroke-width="1.07"/>
 <path d="m304.95 19.068h-214c-4.1409 0-7.49 3.3491-7.49 7.49v166.92c0 4.14 3.3491 7.49 7.49 7.49h43.913c25.412 0 46.01 20.597 46.01 46.01h34.165c0-25.413 20.597-46.01 46.01-46.01h43.902c4.141 0 7.49-3.35 7.49-7.49v-166.92c0-4.1409-3.349-7.49-7.49-7.49z" clip-path="url(#clipPath1209)" fill="#d9e2ff"/>
 <path d="m260.54 29.232c-2.664 0-4.815-2.1507-4.815-4.815v-14.349c0-2.6643 2.151-4.815 4.815-4.815s4.815 2.1507 4.815 4.815v14.349c0 2.6536-2.151 4.815-4.815 4.815z" clip-path="url(#clipPath1203)" fill="#b2bfe8"/>
 <path d="m135.36 29.232c-2.664 0-4.815-2.1507-4.815-4.815v-14.349c0-2.6643 2.151-4.815 4.815-4.815s4.815 2.1507 4.815 4.815v14.349c0 2.6536-2.151 4.815-4.815 4.815z" clip-path="url(#clipPath1197)" fill="#b2bfe8"/>
 <g fill="#ffffff">
  <path d="m165.89 59.727c4.727 0 8.56-3.8324 8.56-8.56 0-4.7275-3.833-8.56-8.56-8.56-4.728 0-8.56 3.8325-8.56 8.56 0 4.7276 3.832 8.56 8.56 8.56z" clip-path="url(#clipPath1191)"/>
  <path d="m197.95 59.727c4.727 0 8.56-3.8324 8.56-8.56 0-4.7275-3.833-8.56-8.56-8.56-4.728 0-8.56 3.8325-8.56 8.56 0 4.7276 3.832 8.56 8.56 8.56z" clip-path="url(#clipPath1185)"/>
  <path d="m230.01 59.727c4.728 0 8.56-3.8324 8.56-8.56 0-4.7275-3.832-8.56-8.56-8.56-4.727 0-8.56 3.8325-8.56 8.56 0 4.7276 3.833 8.56 8.56 8.56z" clip-path="url(#clipPath1179)"/>
  <path d="m262.08 59.727c4.728 0 8.56-3.8324 8.56-8.56 0-4.7275-3.832-8.56-8.56-8.56-4.727 0-8.56 3.8325-8.56 8.56 0 4.7276 3.833 8.56 8.56 8.56z" clip-path="url(#clipPath1173)"/>
  <path d="m133.82 59.727c4.727 0 8.56-3.8324 8.56-8.56 0-4.7275-3.833-8.56-8.56-8.56-4.728 0-8.56 3.8325-8.56 8.56 0 4.7276 3.832 8.56 8.56 8.56z" clip-path="url(#clipPath1167)"/>
  <path d="m165.89 88.617c4.727 0 8.56-3.8324 8.56-8.56 0-4.7275-3.833-8.56-8.56-8.56-4.728 0-8.56 3.8325-8.56 8.56 0 4.7276 3.832 8.56 8.56 8.56z" clip-path="url(#clipPath1161)"/>
  <path d="m197.95 88.617c4.727 0 8.56-3.8324 8.56-8.56 0-4.7275-3.833-8.56-8.56-8.56-4.728 0-8.56 3.8325-8.56 8.56 0 4.7276 3.832 8.56 8.56 8.56z" clip-path="url(#clipPath1155)"/>
 </g>
 <path d="m230.01 95.038c8.273 0 14.98-6.7068 14.98-14.98s-6.707-14.98-14.98-14.98-14.98 6.7068-14.98 14.98 6.707 14.98 14.98 14.98z" clip-path="url(#clipPath1149)" fill="#721ffa"/>
 <path d="m262.08 88.617c4.728 0 8.56-3.8324 8.56-8.56 0-4.7275-3.832-8.56-8.56-8.56-4.727 0-8.56 3.8325-8.56 8.56 0 4.7276 3.833 8.56 8.56 8.56z" clip-path="url(#clipPath1143)" fill="#ffffff"/>
 <path d="m133.82 88.617c4.727 0 8.56-3.8324 8.56-8.56 0-4.7275-3.833-8.56-8.56-8.56-4.728 0-8.56 3.8325-8.56 8.56 0 4.7276 3.832 8.56 8.56 8.56z" clip-path="url(#clipPath1137)" fill="#ffffff"/>
 <path d="m165.89 123.93c8.273 0 14.98-6.707 14.98-14.98 0-8.274-6.707-14.98-14.98-14.98s-14.98 6.7065-14.98 14.98c0 8.273 6.707 14.98 14.98 14.98z" clip-path="url(#clipPath1131)" fill="#721ffa"/>
 <path d="m197.95 117.51c4.727 0 8.56-3.832 8.56-8.56 0-4.727-3.833-8.56-8.56-8.56-4.728 0-8.56 3.833-8.56 8.56 0 4.728 3.832 8.56 8.56 8.56z" clip-path="url(#clipPath1125)" fill="#ffffff"/>
 <path d="m230.01 117.51c4.728 0 8.56-3.832 8.56-8.56 0-4.727-3.832-8.56-8.56-8.56-4.727 0-8.56 3.833-8.56 8.56 0 4.728 3.833 8.56 8.56 8.56z" clip-path="url(#clipPath1119)" fill="#ffffff"/>
 <path d="m197.95 288.33v91.517" clip-path="url(#clipPath1113)" stroke="url(#paint1_linear_1013_5906)" stroke-miterlimit="10" stroke-width="2.14"/>
 <g fill="#ffffff">
  <path d="m262.08 117.51c4.728 0 8.56-3.832 8.56-8.56 0-4.727-3.832-8.56-8.56-8.56-4.727 0-8.56 3.833-8.56 8.56 0 4.728 3.833 8.56 8.56 8.56z" clip-path="url(#clipPath1107)"/>
  <path d="m133.82 117.51c4.727 0 8.56-3.832 8.56-8.56 0-4.727-3.833-8.56-8.56-8.56-4.728 0-8.56 3.833-8.56 8.56 0 4.728 3.832 8.56 8.56 8.56z" clip-path="url(#clipPath1101)"/>
  <path d="m165.89 146.4c4.727 0 8.56-3.832 8.56-8.56 0-4.727-3.833-8.56-8.56-8.56-4.728 0-8.56 3.833-8.56 8.56 0 4.728 3.832 8.56 8.56 8.56z" clip-path="url(#clipPath1095)"/>
  <path d="m197.95 146.4c4.727 0 8.56-3.832 8.56-8.56 0-4.727-3.833-8.56-8.56-8.56-4.728 0-8.56 3.833-8.56 8.56 0 4.728 3.832 8.56 8.56 8.56z" clip-path="url(#clipPath1089)"/>
 </g>
 <path d="m230.01 152.82c8.273 0 14.98-6.706 14.98-14.98 0-8.273-6.707-14.98-14.98-14.98s-14.98 6.707-14.98 14.98c0 8.274 6.707 14.98 14.98 14.98z" clip-path="url(#clipPath1083)" fill="#721ffa"/>
 <g fill="#ffffff">
  <path d="m262.08 146.4c4.728 0 8.56-3.832 8.56-8.56 0-4.727-3.832-8.56-8.56-8.56-4.727 0-8.56 3.833-8.56 8.56 0 4.728 3.833 8.56 8.56 8.56z" clip-path="url(#clipPath1077)"/>
  <path d="m133.82 146.4c4.727 0 8.56-3.832 8.56-8.56 0-4.727-3.833-8.56-8.56-8.56-4.728 0-8.56 3.833-8.56 8.56 0 4.728 3.832 8.56 8.56 8.56z" clip-path="url(#clipPath1071)"/>
  <path d="m165.89 175.29c4.727 0 8.56-3.832 8.56-8.56 0-4.727-3.833-8.56-8.56-8.56-4.728 0-8.56 3.833-8.56 8.56 0 4.728 3.832 8.56 8.56 8.56z" clip-path="url(#clipPath1065)"/>
  <path d="m197.95 175.29c4.727 0 8.56-3.832 8.56-8.56 0-4.727-3.833-8.56-8.56-8.56-4.728 0-8.56 3.833-8.56 8.56 0 4.728 3.832 8.56 8.56 8.56z" clip-path="url(#clipPath1059)"/>
  <path d="m230.01 175.29c4.728 0 8.56-3.832 8.56-8.56 0-4.727-3.832-8.56-8.56-8.56-4.727 0-8.56 3.833-8.56 8.56 0 4.728 3.833 8.56 8.56 8.56z" clip-path="url(#clipPath1053)"/>
  <path d="m262.08 175.29c4.728 0 8.56-3.832 8.56-8.56 0-4.727-3.832-8.56-8.56-8.56-4.727 0-8.56 3.833-8.56 8.56 0 4.728 3.833 8.56 8.56 8.56z" clip-path="url(#clipPath1047)"/>
  <path d="m133.82 175.29c4.727 0 8.56-3.832 8.56-8.56 0-4.727-3.833-8.56-8.56-8.56-4.728 0-8.56 3.833-8.56 8.56 0 4.728 3.832 8.56 8.56 8.56z" clip-path="url(#clipPath1041)"/>
 </g>
 <g clip-rule="evenodd" fill-rule="evenodd">
  <path d="m211.86 269.84 0.3335-33.989 20.718-1.7525v53.671l-11.888 6.859z" clip-path="url(#clipPath1029)" fill="#24386c"/>
  <path d="m232.9 234.08-11.877 6.869-12.646-0.28264-9.3307-0.92381-9.8974-2.2166-14.264 11.517-11.888-14.963 34.946-20.18 17.473 10.09z" clip-path="url(#clipPath1023)" fill="#7d8cb5"/>
  <path transform="translate(-.0105)" d="m163 234.08 11.888 6.859 5.3007 21.567 10.488 9.2356 7.2808 9.1405v13.717l-34.946-20.18v-40.339" clip-path="url(#clipPath1017)" fill="#b2bfe8"/>
  <path d="m211.86 269.84-13.906 11.06v13.718l11.181-6.452z" clip-path="url(#clipPath1011)" fill="#24386c"/>
  <path d="m197.95 254.26-16.835-5.778 16.836-10.455 16.54 10.455z" clip-path="url(#clipPath1005)" fill="#7d8cb5"/>
  <path d="m186.77 247.81 11.181 6.452v12.915l-16.414-3.4766z" clip-path="url(#clipPath999)" fill="#b2bfe8"/>
  <path d="m197.95 254.26 11.181-6.452 6.7118 16.548-17.893 2.808z" clip-path="url(#clipPath993)" fill="#24386c"/>
  <path d="m209.13 288.16 11.887 6.452v-53.671l-11.534-6.656-11.535-6.655-23.069 13.311v26.632l11.535 6.655 11.534 6.656 11.182-6.452zm0-27.446-11.182 6.452-11.181-6.452v-12.904l11.181-6.452 11.182 6.452z" clip-path="url(#clipPath987)" fill="#c91540"/>
 </g>
 <path d="m197.96 280.89-0.011-13.707-11.181-6.452-0.353 13.503z" clip-path="url(#clipPath981)" fill="url(#paint2_linear_1013_5906)"/>
 <g fill="#24386c">
  <path d="m188.46 194.98h0.022v-6.42h0.77v7.576h-0.963l-4.515-6.484h-0.022v6.484h-0.77v-7.576h0.963z" clip-path="url(#clipPath975)"/>
  <path d="m191.54 193.82c0.021 0.246 0.085 0.481 0.182 0.706 0.096 0.225 0.235 0.407 0.396 0.578 0.16 0.16 0.353 0.289 0.567 0.385s0.449 0.139 0.695 0.139c0.375 0 0.706-0.086 0.985-0.267 0.278-0.182 0.481-0.375 0.62-0.61l0.546 0.449c-0.3 0.375-0.631 0.653-0.984 0.813-0.354 0.161-0.749 0.246-1.156 0.246-0.375 0-0.717-0.064-1.027-0.192-0.321-0.129-0.589-0.311-0.824-0.557-0.225-0.235-0.407-0.513-0.535-0.834-0.129-0.321-0.193-0.674-0.193-1.049 0-0.374 0.064-0.727 0.193-1.048 0.128-0.321 0.31-0.6 0.535-0.835s0.492-0.417 0.802-0.556c0.311-0.129 0.642-0.193 0.995-0.193 0.375 0 0.717 0.064 1.017 0.203s0.556 0.311 0.76 0.535c0.203 0.225 0.353 0.492 0.47 0.792 0.107 0.3 0.161 0.631 0.161 0.974v0.321zm3.402-0.578c0-0.481-0.139-0.867-0.428-1.156-0.288-0.299-0.684-0.449-1.198-0.449-0.225 0-0.449 0.043-0.663 0.128-0.214 0.086-0.407 0.214-0.567 0.353-0.161 0.15-0.289 0.321-0.386 0.514-0.096 0.193-0.139 0.396-0.139 0.599h3.381z" clip-path="url(#clipPath969)"/>
  <path d="m200.61 196.13c-0.01-0.139-0.021-0.268-0.021-0.407 0-0.128-0.011-0.267-0.011-0.406h-0.021c-0.075 0.139-0.182 0.257-0.3 0.374-0.117 0.118-0.256 0.214-0.406 0.289-0.15 0.086-0.311 0.15-0.482 0.193s-0.332 0.064-0.492 0.064c-0.642 0-1.113-0.171-1.423-0.503-0.31-0.342-0.46-0.824-0.46-1.455v-3.178h0.706v2.771c0 0.278 0.021 0.525 0.064 0.739s0.118 0.395 0.225 0.535c0.107 0.139 0.246 0.256 0.417 0.331s0.396 0.118 0.653 0.118c0.032 0 0.139-0.011 0.3-0.043 0.16-0.032 0.342-0.107 0.524-0.235 0.182-0.129 0.342-0.321 0.492-0.578 0.139-0.257 0.214-0.61 0.214-1.07v-2.568h0.706v3.905c0 0.14 0 0.311 0.022 0.514 0.01 0.203 0.021 0.407 0.032 0.589h-0.739z" clip-path="url(#clipPath963)"/>
  <path d="m203.02 192.69c0-0.225 0-0.45-0.011-0.675-0.011-0.224-0.021-0.524-0.032-0.888h0.696v0.931h0.021c0.053-0.139 0.118-0.267 0.214-0.396 0.096-0.128 0.203-0.235 0.342-0.342 0.129-0.096 0.289-0.182 0.46-0.235 0.172-0.054 0.375-0.086 0.589-0.086 0.203 0 0.374 0.021 0.524 0.064l-0.139 0.696c-0.096-0.032-0.225-0.054-0.406-0.054-0.268 0-0.503 0.054-0.696 0.15-0.193 0.107-0.353 0.235-0.481 0.396-0.129 0.16-0.225 0.332-0.279 0.524-0.064 0.182-0.085 0.364-0.085 0.535v2.825h-0.706v-3.445z" clip-path="url(#clipPath957)"/>
  <path d="m209.71 193.06v-0.128c0-0.867-0.428-1.295-1.284-1.295-0.588 0-1.091 0.193-1.53 0.588l-0.428-0.502c0.471-0.482 1.177-0.728 2.119-0.728 0.246 0 0.481 0.032 0.706 0.107s0.417 0.182 0.578 0.332c0.16 0.149 0.299 0.331 0.396 0.545 0.096 0.225 0.149 0.482 0.149 0.792v2.236c0 0.193 0.011 0.396 0.022 0.61 0.021 0.214 0.043 0.386 0.064 0.514h-0.685c-0.021-0.118-0.032-0.257-0.043-0.396-0.01-0.139-0.01-0.278-0.01-0.417h-0.022c-0.203 0.331-0.449 0.578-0.738 0.717s-0.621 0.224-1.027 0.224c-0.225 0-0.439-0.032-0.642-0.085-0.203-0.064-0.396-0.15-0.557-0.278-0.16-0.129-0.288-0.279-0.385-0.461-0.096-0.181-0.15-0.395-0.15-0.642 0-0.406 0.107-0.727 0.311-0.952 0.214-0.235 0.471-0.406 0.792-0.524s0.652-0.182 1.016-0.214 0.685-0.043 0.984-0.043zm-0.364 0.578c-0.181 0-0.406 0.011-0.663 0.032s-0.524 0.064-0.77 0.128c-0.246 0.065-0.46 0.172-0.632 0.311-0.171 0.139-0.256 0.342-0.256 0.588 0 0.161 0.032 0.31 0.096 0.428s0.16 0.214 0.267 0.289 0.236 0.128 0.375 0.161c0.139 0.032 0.278 0.042 0.428 0.042 0.257 0 0.481-0.042 0.663-0.128s0.353-0.203 0.482-0.353c0.128-0.15 0.224-0.321 0.278-0.514 0.064-0.192 0.086-0.406 0.086-0.631v-0.364h-0.354z" clip-path="url(#clipPath951)"/>
  <path d="m212.92 196.13h-0.706v-8.089h0.706z" clip-path="url(#clipPath945)"/>
  <path d="m179.78 208.26h4.056v0.706h-4.826v-7.576h4.697v0.707h-3.927v2.578h3.67v0.706h-3.67z" clip-path="url(#clipPath939)"/>
  <path d="m185.77 203.96c0.01 0.139 0.021 0.268 0.021 0.407v0.407h0.021c0.075-0.14 0.182-0.257 0.3-0.375s0.257-0.214 0.407-0.3c0.149-0.085 0.31-0.149 0.47-0.192 0.172-0.043 0.332-0.075 0.503-0.075 0.642 0 1.113 0.171 1.423 0.503 0.311 0.342 0.461 0.824 0.461 1.455v3.178h-0.707v-2.771c0-0.557-0.096-0.985-0.289-1.284-0.192-0.3-0.545-0.45-1.07-0.45-0.032 0-0.139 0.011-0.299 0.043-0.161 0.032-0.343 0.107-0.524 0.235-0.182 0.129-0.343 0.321-0.493 0.578-0.139 0.257-0.214 0.61-0.214 1.07v2.568h-0.706v-3.905c0-0.139-0.011-0.311-0.021-0.514-0.011-0.203-0.022-0.406-0.043-0.588h0.76z" clip-path="url(#clipPath933)"/>
  <path d="m194.7 205.14c-0.117-0.181-0.289-0.342-0.513-0.47-0.214-0.129-0.461-0.193-0.739-0.193-0.289-0.011-0.556 0.043-0.791 0.139-0.236 0.096-0.428 0.236-0.589 0.417-0.16 0.182-0.289 0.396-0.375 0.632-0.085 0.246-0.128 0.513-0.128 0.802s0.043 0.546 0.128 0.803c0.086 0.246 0.215 0.46 0.375 0.631 0.161 0.182 0.364 0.321 0.589 0.417 0.235 0.097 0.492 0.15 0.791 0.139 0.278 0 0.525-0.064 0.739-0.192 0.214-0.129 0.385-0.289 0.513-0.471l0.578 0.439c-0.246 0.289-0.535 0.503-0.845 0.642-0.311 0.139-0.642 0.214-0.985 0.224-0.406 0.011-0.77-0.053-1.102-0.181-0.332-0.129-0.61-0.311-0.845-0.546-0.235-0.236-0.407-0.514-0.535-0.845-0.118-0.321-0.182-0.675-0.182-1.06s0.064-0.727 0.182-1.059c0.118-0.321 0.3-0.599 0.535-0.835 0.235-0.235 0.513-0.417 0.845-0.556 0.332-0.128 0.696-0.193 1.102-0.182 0.343 0.011 0.674 0.086 0.985 0.225 0.31 0.139 0.599 0.353 0.845 0.642z" clip-path="url(#clipPath927)"/>
  <path d="m201.27 206.47c0 0.375-0.064 0.728-0.192 1.049-0.129 0.321-0.311 0.599-0.557 0.834-0.235 0.236-0.513 0.418-0.845 0.557-0.321 0.128-0.685 0.192-1.07 0.192s-0.738-0.064-1.07-0.192c-0.321-0.129-0.599-0.311-0.835-0.557-0.235-0.235-0.417-0.513-0.556-0.834-0.129-0.321-0.193-0.674-0.193-1.049 0-0.374 0.064-0.727 0.193-1.048 0.128-0.321 0.31-0.6 0.556-0.835 0.236-0.235 0.514-0.417 0.835-0.556 0.321-0.129 0.685-0.193 1.07-0.193 0.396 0 0.749 0.064 1.07 0.193 0.321 0.128 0.61 0.321 0.845 0.556 0.236 0.235 0.417 0.514 0.557 0.835 0.128 0.321 0.192 0.674 0.192 1.048zm-0.77 0c0-0.278-0.043-0.535-0.129-0.781-0.085-0.246-0.214-0.449-0.385-0.631-0.16-0.182-0.364-0.321-0.588-0.418-0.225-0.096-0.493-0.16-0.792-0.16-0.3 0-0.557 0.053-0.781 0.16-0.236 0.107-0.428 0.247-0.589 0.418-0.16 0.182-0.289 0.385-0.374 0.631-0.086 0.246-0.129 0.503-0.129 0.781s0.043 0.535 0.129 0.781c0.085 0.246 0.214 0.45 0.374 0.632 0.161 0.181 0.353 0.321 0.589 0.417 0.235 0.107 0.492 0.16 0.781 0.16s0.556-0.053 0.792-0.16c0.235-0.107 0.428-0.246 0.588-0.417 0.161-0.182 0.289-0.386 0.385-0.632 0.086-0.235 0.129-0.503 0.129-0.781z" clip-path="url(#clipPath921)"/>
  <path d="m207.55 208.97h-0.706v-0.835h-0.022c-0.118 0.172-0.246 0.321-0.406 0.439-0.161 0.118-0.321 0.225-0.493 0.3-0.171 0.075-0.353 0.139-0.535 0.171s-0.353 0.053-0.513 0.053c-0.396 0-0.749-0.064-1.081-0.192-0.321-0.129-0.599-0.31-0.835-0.557-0.235-0.235-0.417-0.513-0.556-0.834-0.128-0.321-0.193-0.674-0.193-1.049 0-0.374 0.065-0.727 0.193-1.048 0.129-0.321 0.31-0.6 0.556-0.835 0.236-0.235 0.514-0.417 0.835-0.556 0.321-0.129 0.685-0.193 1.081-0.193 0.16 0 0.331 0.021 0.513 0.054 0.182 0.032 0.353 0.096 0.535 0.171s0.332 0.182 0.493 0.299c0.16 0.118 0.288 0.268 0.406 0.439h0.022v-3.916h0.706zm-4.569-2.504c0 0.278 0.043 0.535 0.128 0.781 0.086 0.246 0.214 0.45 0.385 0.632 0.161 0.182 0.364 0.321 0.589 0.417s0.492 0.16 0.792 0.16c0.289 0 0.546-0.053 0.792-0.16s0.46-0.246 0.642-0.417c0.181-0.182 0.321-0.386 0.417-0.632s0.15-0.503 0.15-0.781-0.054-0.535-0.15-0.781-0.236-0.449-0.417-0.631c-0.182-0.182-0.396-0.321-0.642-0.417-0.246-0.107-0.514-0.161-0.792-0.161-0.289 0-0.557 0.054-0.792 0.161s-0.428 0.246-0.589 0.417c-0.16 0.182-0.288 0.385-0.385 0.631-0.096 0.246-0.128 0.503-0.128 0.781z" clip-path="url(#clipPath915)"/>
  <path d="m209.58 206.66c0.021 0.246 0.085 0.481 0.182 0.706 0.096 0.225 0.235 0.407 0.396 0.578 0.16 0.171 0.353 0.289 0.567 0.385s0.449 0.139 0.695 0.139c0.375 0 0.706-0.086 0.985-0.267 0.278-0.182 0.481-0.375 0.62-0.61l0.546 0.449c-0.3 0.375-0.631 0.653-0.995 0.813-0.364 0.161-0.749 0.246-1.156 0.246-0.374 0-0.717-0.064-1.027-0.192-0.321-0.129-0.588-0.311-0.813-0.557-0.225-0.235-0.407-0.513-0.535-0.834-0.129-0.321-0.203-0.674-0.203-1.049 0-0.374 0.064-0.727 0.192-1.048 0.129-0.321 0.31-0.6 0.535-0.835s0.492-0.417 0.803-0.556c0.31-0.129 0.642-0.193 0.995-0.193 0.374 0 0.717 0.064 1.016 0.203 0.3 0.139 0.546 0.311 0.76 0.535 0.203 0.225 0.353 0.492 0.46 0.792s0.161 0.631 0.161 0.974v0.321zm3.402-0.578c0-0.482-0.139-0.867-0.428-1.156-0.288-0.299-0.684-0.449-1.198-0.449-0.225 0-0.449 0.043-0.663 0.128-0.214 0.086-0.407 0.214-0.567 0.353-0.161 0.15-0.289 0.321-0.386 0.514-0.096 0.193-0.139 0.396-0.139 0.599h3.381z" clip-path="url(#clipPath909)"/>
  <path d="m215.11 205.53c0-0.225 0-0.45-0.011-0.675-0.011-0.224-0.021-0.524-0.032-0.888h0.696v0.931h0.021c0.053-0.139 0.118-0.267 0.214-0.396 0.096-0.128 0.203-0.235 0.342-0.342 0.129-0.096 0.289-0.182 0.46-0.235 0.172-0.054 0.375-0.086 0.589-0.086 0.203 0 0.374 0.021 0.524 0.064l-0.139 0.696c-0.096-0.032-0.225-0.054-0.406-0.054-0.268 0-0.503 0.054-0.696 0.15-0.193 0.107-0.353 0.235-0.481 0.396-0.129 0.16-0.225 0.332-0.279 0.524-0.064 0.182-0.085 0.364-0.085 0.535v2.825h-0.706v-3.445z" clip-path="url(#clipPath903)"/>
 </g>
 <path d="m331.6 270.61h-75.767c-5.96 0-10.796-4.837-10.796-10.797s4.836-10.796 10.796-10.796h75.767c5.96 0 10.796 4.836 10.796 10.796s-4.826 10.797-10.796 10.797z" clip-path="url(#clipPath897)" clip-rule="evenodd" fill="#ffffff" fill-rule="evenodd" stroke="#b2bfe8" stroke-miterlimit="10" stroke-width="1.07"/>
 <path d="m139 270.61h-75.767c-5.9599 0-10.796-4.837-10.796-10.797s4.8364-10.796 10.796-10.796h75.767c5.96 0 10.796 4.836 10.796 10.796s-4.826 10.797-10.796 10.797z" clip-path="url(#clipPath891)" clip-rule="evenodd" fill="#ffffff" fill-rule="evenodd" stroke="#b2bfe8" stroke-miterlimit="10" stroke-width="1.07"/>
 <g fill="#24386c">
  <path d="m72.888 263.41h-0.7704v-7.576h0.7704z" clip-path="url(#clipPath885)"/>
  <path d="m77.275 259.05h-1.4445v2.953c0 0.182 0.0214 0.332 0.0535 0.45 0.0321 0.117 0.0856 0.203 0.1498 0.267s0.1391 0.107 0.2247 0.129c0.0856 0.021 0.1819 0.042 0.2996 0.042s0.2461-0.021 0.3745-0.053 0.2461-0.086 0.3531-0.139l0.0321 0.652c-0.2675 0.118-0.5778 0.182-0.9523 0.182-0.1391 0-0.2782-0.021-0.4173-0.053s-0.2782-0.107-0.4066-0.203c-0.1177-0.097-0.2247-0.236-0.2996-0.407s-0.1177-0.396-0.1177-0.674v-3.157h-1.0593v-0.642h1.0593v-1.412h0.7062v1.412h1.4445z" clip-path="url(#clipPath879)"/>
  <path d="m78.73 261.1c0.0214 0.246 0.0856 0.481 0.1819 0.706 0.0963 0.224 0.2354 0.406 0.3959 0.578 0.1605 0.171 0.3531 0.288 0.5671 0.385 0.214 0.096 0.4494 0.139 0.6955 0.139 0.3745 0 0.7062-0.086 0.9844-0.268s0.4815-0.374 0.6206-0.61l0.5457 0.45c-0.2996 0.374-0.6313 0.653-0.9951 0.813-0.3638 0.161-0.749 0.246-1.1556 0.246-0.3745 0-0.7169-0.064-1.0272-0.192-0.321-0.129-0.5885-0.311-0.8132-0.557-0.2247-0.235-0.4066-0.513-0.535-0.834s-0.2033-0.675-0.2033-1.049c0-0.375 0.0642-0.728 0.1926-1.049s0.3103-0.599 0.535-0.834c0.2247-0.236 0.4922-0.418 0.8025-0.557 0.3103-0.128 0.642-0.192 0.9951-0.192 0.3745 0 0.7169 0.064 1.0165 0.203s0.5457 0.31 0.7597 0.535c0.2033 0.225 0.3531 0.492 0.4601 0.792 0.107 0.299 0.1605 0.631 0.1605 0.974v0.321zm3.4026-0.578c0-0.482-0.1391-0.867-0.428-1.156-0.2889-0.299-0.6848-0.449-1.1984-0.449-0.2247 0-0.4494 0.043-0.6634 0.128-0.214 0.086-0.4066 0.214-0.5671 0.353-0.1605 0.15-0.2889 0.321-0.3852 0.514-0.0963 0.192-0.1391 0.396-0.1391 0.599h3.3812z" clip-path="url(#clipPath873)"/>
  <path d="m84.188 259.53c0-0.182-0.0107-0.375-0.0214-0.557s-0.0214-0.374-0.0428-0.556h0.7597v0.76h0.0214c0.1712-0.289 0.4066-0.514 0.7169-0.664s0.5992-0.225 0.8988-0.225c0.1391 0 0.2782 0.011 0.4387 0.043s0.2996 0.086 0.4494 0.15c0.1391 0.075 0.2782 0.182 0.4066 0.321s0.2247 0.31 0.3103 0.524c0.1391-0.321 0.3638-0.577 0.6741-0.759s0.6313-0.279 0.9737-0.279c0.642 0 1.1128 0.172 1.4231 0.503 0.3103 0.343 0.4601 0.824 0.4601 1.456v3.177h-0.7062v-2.921c0-0.503-0.0856-0.898-0.2675-1.166-0.1819-0.267-0.5136-0.407-0.9951-0.407-0.2675 0-0.4815 0.054-0.6634 0.161s-0.321 0.235-0.4387 0.407c-0.1177 0.171-0.1926 0.363-0.2354 0.577-0.0535 0.214-0.0749 0.45-0.0749 0.674v2.665h-0.7062v-2.921c0-0.503-0.0856-0.899-0.2675-1.167-0.1819-0.267-0.5136-0.406-0.9951-0.406-0.0428 0-0.1391 0.01-0.2996 0.043-0.1498 0.032-0.3103 0.107-0.4708 0.235s-0.3103 0.321-0.4494 0.578c-0.1284 0.257-0.2033 0.61-0.2033 1.07v2.568h-0.7062v-3.884z" clip-path="url(#clipPath867)"/>
  <path d="m98.74 262.26h0.0214l2.482-6.42h0.835l-2.9532 7.576h-0.7704l-2.8783-7.576h0.856z" clip-path="url(#clipPath861)"/>
  <path d="m103.31 261.1c0.022 0.246 0.086 0.481 0.182 0.706 0.097 0.224 0.236 0.406 0.396 0.578 0.161 0.171 0.353 0.288 0.567 0.385 0.214 0.096 0.45 0.139 0.696 0.139 0.374 0 0.706-0.086 0.984-0.268s0.482-0.374 0.621-0.61l0.545 0.45c-0.299 0.374-0.631 0.653-0.995 0.813-0.363 0.161-0.749 0.246-1.155 0.246-0.375 0-0.717-0.064-1.027-0.192-0.321-0.129-0.589-0.311-0.814-0.557-0.224-0.235-0.406-0.513-0.535-0.834-0.128-0.321-0.203-0.675-0.203-1.049 0-0.375 0.064-0.728 0.193-1.049 0.128-0.321 0.31-0.599 0.535-0.834 0.224-0.236 0.492-0.418 0.802-0.557 0.31-0.128 0.642-0.192 0.995-0.192 0.375 0 0.717 0.064 1.017 0.203 0.299 0.139 0.545 0.31 0.759 0.535 0.204 0.225 0.354 0.492 0.461 0.792 0.107 0.299 0.16 0.631 0.16 0.974v0.321zm3.403-0.578c0-0.482-0.139-0.867-0.428-1.156-0.289-0.299-0.685-0.449-1.198-0.449-0.225 0-0.45 0.043-0.664 0.128-0.214 0.086-0.406 0.214-0.567 0.353-0.16 0.15-0.289 0.321-0.385 0.514-0.096 0.192-0.139 0.396-0.139 0.599h3.381z" clip-path="url(#clipPath855)"/>
  <path d="m112.41 259.58c-0.118-0.182-0.289-0.342-0.503-0.471-0.214-0.128-0.46-0.192-0.749-0.192-0.289-0.011-0.556 0.042-0.781 0.139-0.235 0.096-0.428 0.235-0.599 0.417s-0.289 0.396-0.375 0.631c-0.085 0.246-0.128 0.514-0.128 0.803s0.043 0.546 0.128 0.802c0.086 0.246 0.214 0.46 0.375 0.632 0.16 0.182 0.364 0.321 0.599 0.417s0.492 0.15 0.781 0.139c0.278 0 0.524-0.064 0.749-0.193 0.214-0.128 0.385-0.288 0.503-0.47l0.578 0.438c-0.246 0.289-0.535 0.503-0.846 0.642-0.31 0.139-0.641 0.214-0.984 0.225-0.406 0.011-0.77-0.053-1.102-0.182-0.332-0.128-0.61-0.31-0.845-0.546-0.236-0.235-0.407-0.513-0.535-0.845-0.118-0.321-0.182-0.674-0.182-1.059s0.064-0.728 0.182-1.059c0.117-0.321 0.299-0.6 0.535-0.835 0.235-0.235 0.513-0.417 0.845-0.556 0.332-0.129 0.696-0.193 1.102-0.182 0.343 0.01 0.674 0.085 0.984 0.224 0.311 0.139 0.6 0.353 0.846 0.642z" clip-path="url(#clipPath849)"/>
  <path d="m116.51 259.05h-1.444v2.953c0 0.182 0.021 0.332 0.053 0.45 0.032 0.117 0.086 0.203 0.15 0.267s0.139 0.107 0.225 0.129c0.085 0.021 0.192 0.042 0.299 0.042 0.118 0 0.246-0.021 0.375-0.053 0.128-0.032 0.246-0.086 0.353-0.139l0.032 0.652c-0.267 0.118-0.578 0.182-0.952 0.182-0.139 0-0.278-0.021-0.428-0.053s-0.278-0.107-0.407-0.203c-0.118-0.097-0.225-0.236-0.299-0.407-0.075-0.171-0.118-0.396-0.118-0.674v-3.157h-1.059v-0.642h1.059v-1.412h0.706v1.412h1.445v0.653z" clip-path="url(#clipPath843)"/>
  <path d="m122.54 260.91c0 0.374-0.064 0.728-0.192 1.049-0.129 0.321-0.311 0.599-0.557 0.834-0.235 0.236-0.513 0.417-0.845 0.557-0.321 0.128-0.685 0.192-1.07 0.192s-0.738-0.064-1.07-0.192c-0.321-0.129-0.599-0.311-0.835-0.557-0.235-0.235-0.417-0.513-0.556-0.834-0.129-0.321-0.193-0.675-0.193-1.049 0-0.375 0.064-0.728 0.193-1.049 0.128-0.321 0.31-0.599 0.556-0.834 0.236-0.236 0.514-0.418 0.835-0.557 0.321-0.128 0.685-0.192 1.07-0.192 0.396 0 0.749 0.064 1.07 0.192 0.321 0.129 0.61 0.321 0.845 0.557 0.236 0.235 0.417 0.513 0.557 0.834 0.128 0.332 0.192 0.674 0.192 1.049zm-0.77 0c0-0.278-0.043-0.535-0.129-0.781-0.085-0.246-0.214-0.45-0.385-0.631-0.16-0.182-0.364-0.321-0.588-0.418-0.225-0.096-0.493-0.16-0.792-0.16-0.3 0-0.557 0.053-0.781 0.16-0.236 0.107-0.428 0.246-0.589 0.418-0.16 0.181-0.289 0.385-0.374 0.631-0.086 0.246-0.129 0.503-0.129 0.781s0.043 0.535 0.129 0.781c0.085 0.246 0.214 0.449 0.374 0.631 0.161 0.182 0.353 0.321 0.589 0.418 0.235 0.107 0.492 0.16 0.781 0.16s0.556-0.053 0.792-0.16c0.235-0.107 0.428-0.246 0.588-0.418 0.161-0.182 0.289-0.385 0.385-0.631 0.086-0.235 0.129-0.503 0.129-0.781z" clip-path="url(#clipPath837)"/>
  <path d="m123.9 259.97c0-0.224 0-0.449-0.021-0.674-0.011-0.224-0.021-0.524-0.021-0.888h0.695v0.931h0.021c0.054-0.139 0.118-0.267 0.214-0.396 0.097-0.128 0.204-0.235 0.332-0.342 0.129-0.097 0.289-0.182 0.46-0.236 0.171-0.064 0.375-0.085 0.589-0.085 0.203 0 0.374 0.021 0.524 0.064l-0.139 0.695c-0.096-0.032-0.225-0.053-0.407-0.053-0.267 0-0.503 0.053-0.695 0.15-0.193 0.107-0.353 0.235-0.482 0.396-0.128 0.16-0.224 0.331-0.278 0.524-0.064 0.182-0.085 0.364-0.085 0.535v2.825h-0.707z" clip-path="url(#clipPath831)"/>
  <path d="m130.03 259.6c-0.107-0.204-0.246-0.375-0.428-0.493-0.182-0.117-0.396-0.182-0.652-0.182-0.118 0-0.246 0.011-0.364 0.043-0.129 0.032-0.236 0.075-0.343 0.129-0.096 0.064-0.181 0.139-0.235 0.235-0.064 0.096-0.086 0.203-0.086 0.342 0 0.236 0.086 0.407 0.247 0.514 0.16 0.107 0.406 0.203 0.738 0.278l0.717 0.171c0.353 0.075 0.642 0.236 0.866 0.482 0.236 0.235 0.354 0.535 0.354 0.888 0 0.268-0.054 0.503-0.172 0.696-0.107 0.192-0.256 0.353-0.438 0.481s-0.386 0.214-0.621 0.268c-0.235 0.053-0.471 0.085-0.717 0.085-0.385 0-0.738-0.075-1.07-0.225-0.332-0.149-0.62-0.395-0.845-0.759l0.61-0.418c0.139 0.225 0.321 0.407 0.535 0.546s0.481 0.203 0.77 0.203c0.139 0 0.289-0.021 0.428-0.042 0.139-0.032 0.268-0.086 0.375-0.15s0.203-0.15 0.267-0.268c0.064-0.107 0.107-0.235 0.107-0.374 0-0.246-0.096-0.428-0.278-0.535s-0.407-0.203-0.674-0.268l-0.685-0.16c-0.086-0.022-0.203-0.054-0.353-0.107-0.15-0.054-0.289-0.129-0.428-0.225s-0.257-0.225-0.353-0.396c-0.096-0.16-0.15-0.353-0.15-0.588 0-0.257 0.054-0.482 0.161-0.674 0.107-0.193 0.246-0.353 0.417-0.471s0.374-0.214 0.588-0.268c0.225-0.064 0.45-0.085 0.685-0.085 0.353 0 0.674 0.064 0.974 0.203 0.299 0.139 0.535 0.364 0.695 0.696z" clip-path="url(#clipPath825)"/>
  <path d="m253.3 263.41h-0.77v-7.575h2.332c0.771 0 1.381 0.171 1.83 0.503s0.663 0.845 0.663 1.519c0 0.525-0.171 0.974-0.502 1.338-0.332 0.364-0.814 0.567-1.434 0.62l2.183 3.595h-0.942l-2.076-3.52h-1.284zm0-4.226h1.37c0.342 0 0.631-0.032 0.877-0.107 0.236-0.075 0.428-0.171 0.578-0.278 0.139-0.118 0.246-0.257 0.31-0.417 0.064-0.161 0.097-0.332 0.097-0.514s-0.033-0.353-0.097-0.514c-0.064-0.16-0.171-0.299-0.31-0.417s-0.332-0.214-0.578-0.289c-0.235-0.064-0.535-0.096-0.877-0.096h-1.37z" clip-path="url(#clipPath819)"/>
  <path d="m259.11 261.1c0.022 0.247 0.086 0.482 0.182 0.707 0.096 0.224 0.235 0.406 0.396 0.577 0.16 0.172 0.353 0.289 0.567 0.386 0.214 0.096 0.449 0.139 0.696 0.139 0.374 0 0.706-0.086 0.984-0.268s0.481-0.374 0.621-0.61l0.545 0.45c-0.299 0.374-0.631 0.652-0.995 0.813-0.364 0.16-0.749 0.246-1.155 0.246-0.375 0-0.717-0.064-1.028-0.193-0.321-0.128-0.588-0.31-0.813-0.556-0.225-0.235-0.406-0.514-0.535-0.835-0.128-0.321-0.203-0.674-0.203-1.048 0-0.375 0.064-0.728 0.192-1.049 0.129-0.321 0.311-0.599 0.535-0.834 0.225-0.236 0.493-0.418 0.803-0.557 0.31-0.128 0.642-0.192 0.995-0.192 0.375 0 0.717 0.064 1.017 0.203 0.299 0.139 0.545 0.31 0.759 0.535 0.204 0.225 0.353 0.492 0.46 0.792 0.107 0.299 0.161 0.631 0.161 0.973v0.321zm3.403-0.577c0-0.482-0.139-0.867-0.428-1.156-0.289-0.3-0.685-0.449-1.199-0.449-0.224 0-0.449 0.042-0.663 0.128s-0.407 0.214-0.567 0.353c-0.161 0.15-0.289 0.321-0.385 0.514-0.097 0.192-0.14 0.396-0.14 0.599h3.382z" clip-path="url(#clipPath813)"/>
  <path d="m268.22 259.58c-0.118-0.182-0.289-0.342-0.503-0.471-0.214-0.128-0.46-0.192-0.749-0.192-0.289-0.011-0.556 0.042-0.781 0.139-0.235 0.096-0.428 0.235-0.599 0.417s-0.289 0.396-0.375 0.631c-0.085 0.246-0.128 0.514-0.128 0.803s0.043 0.545 0.128 0.802c0.086 0.246 0.214 0.46 0.375 0.632 0.16 0.181 0.364 0.321 0.599 0.417s0.492 0.15 0.781 0.139c0.278 0 0.524-0.064 0.749-0.193 0.214-0.128 0.385-0.289 0.503-0.47l0.578 0.438c-0.246 0.289-0.535 0.503-0.846 0.642-0.31 0.139-0.642 0.214-0.984 0.225-0.407 0.011-0.77-0.054-1.102-0.182s-0.61-0.31-0.845-0.546c-0.236-0.235-0.407-0.513-0.535-0.845-0.118-0.321-0.182-0.674-0.182-1.059s0.064-0.728 0.182-1.06c0.117-0.321 0.299-0.599 0.535-0.834 0.235-0.236 0.513-0.417 0.845-0.557 0.332-0.128 0.695-0.192 1.102-0.181 0.342 0.01 0.674 0.085 0.984 0.224 0.311 0.139 0.6 0.353 0.846 0.642z" clip-path="url(#clipPath807)"/>
  <path d="m274.79 260.91c0 0.374-0.064 0.727-0.203 1.048-0.129 0.321-0.311 0.6-0.546 0.835-0.236 0.235-0.514 0.417-0.845 0.556-0.321 0.129-0.685 0.193-1.07 0.193-0.386 0-0.739-0.064-1.07-0.193-0.321-0.128-0.61-0.31-0.846-0.556-0.235-0.235-0.417-0.514-0.545-0.835-0.129-0.321-0.204-0.674-0.204-1.048 0-0.375 0.064-0.728 0.204-1.049 0.128-0.321 0.31-0.599 0.545-0.834 0.236-0.236 0.514-0.418 0.846-0.557 0.321-0.128 0.674-0.192 1.07-0.192 0.395 0 0.749 0.064 1.07 0.192 0.321 0.129 0.599 0.321 0.845 0.557 0.235 0.235 0.417 0.513 0.546 0.834 0.139 0.332 0.203 0.674 0.203 1.049zm-0.771 0c0-0.278-0.042-0.535-0.139-0.781-0.085-0.246-0.214-0.45-0.374-0.632-0.161-0.181-0.364-0.321-0.599-0.417-0.236-0.107-0.493-0.16-0.781-0.16-0.289 0-0.557 0.053-0.792 0.16-0.236 0.107-0.428 0.246-0.589 0.417-0.16 0.182-0.289 0.386-0.374 0.632-0.086 0.246-0.129 0.503-0.129 0.781s0.043 0.535 0.129 0.781c0.085 0.246 0.214 0.449 0.374 0.631 0.161 0.182 0.353 0.321 0.589 0.418 0.235 0.096 0.492 0.16 0.792 0.16 0.299 0 0.556-0.053 0.781-0.16 0.235-0.107 0.428-0.247 0.599-0.418 0.16-0.182 0.289-0.385 0.374-0.631 0.097-0.235 0.139-0.503 0.139-0.781z" clip-path="url(#clipPath801)"/>
  <path d="m276.07 259.53c0-0.182 0-0.375-0.011-0.557s-0.022-0.374-0.043-0.556h0.76v0.759h0.021c0.171-0.288 0.407-0.513 0.717-0.663s0.61-0.225 0.91-0.225c0.139 0 0.278 0.011 0.428 0.043 0.149 0.032 0.299 0.086 0.449 0.15 0.139 0.075 0.278 0.182 0.407 0.321 0.128 0.139 0.224 0.31 0.31 0.524 0.139-0.321 0.374-0.578 0.685-0.759 0.31-0.182 0.631-0.279 0.963-0.279 0.642 0 1.113 0.172 1.423 0.503 0.31 0.343 0.46 0.824 0.46 1.455v3.178h-0.706v-2.921c0-0.503-0.086-0.899-0.268-1.166-0.182-0.268-0.513-0.407-0.995-0.407-0.267 0-0.481 0.054-0.663 0.161s-0.321 0.235-0.439 0.406c-0.118 0.172-0.193 0.364-0.246 0.578-0.054 0.214-0.075 0.45-0.075 0.674v2.665h-0.706v-2.921c0-0.503-0.086-0.899-0.268-1.167-0.182-0.267-0.513-0.406-0.995-0.406-0.043 0-0.139 0.01-0.299 0.042-0.15 0.033-0.311 0.107-0.482 0.236-0.171 0.128-0.31 0.321-0.449 0.578-0.129 0.256-0.193 0.61-0.193 1.07v2.568h-0.706v-3.884z" clip-path="url(#clipPath795)"/>
  <path d="m285.19 259.53c0-0.182-0.011-0.375-0.021-0.557-0.011-0.182-0.022-0.374-0.043-0.556h0.759v0.759h0.022c0.171-0.288 0.406-0.513 0.717-0.663 0.31-0.15 0.599-0.225 0.899-0.225 0.139 0 0.278 0.011 0.438 0.043 0.161 0.032 0.3 0.086 0.45 0.15 0.139 0.075 0.278 0.182 0.406 0.321 0.129 0.139 0.225 0.31 0.311 0.524 0.139-0.321 0.363-0.578 0.674-0.759 0.31-0.182 0.631-0.279 0.973-0.279 0.642 0 1.113 0.172 1.423 0.503 0.311 0.343 0.461 0.824 0.461 1.455v3.178h-0.707v-2.921c0-0.503-0.085-0.899-0.267-1.166-0.182-0.268-0.514-0.407-0.995-0.407-0.268 0-0.482 0.054-0.664 0.161s-0.321 0.235-0.438 0.406c-0.118 0.172-0.193 0.364-0.236 0.578-0.053 0.214-0.075 0.45-0.075 0.674v2.665h-0.706v-2.921c0-0.503-0.085-0.899-0.267-1.167-0.182-0.267-0.514-0.406-0.995-0.406-0.043 0-0.139 0.01-0.3 0.042-0.15 0.033-0.31 0.107-0.471 0.236-0.16 0.128-0.31 0.321-0.449 0.578-0.129 0.256-0.204 0.61-0.204 1.07v2.568h-0.706v-3.884z" clip-path="url(#clipPath789)"/>
  <path d="m294.8 261.1c0.021 0.247 0.085 0.482 0.182 0.707 0.096 0.224 0.235 0.406 0.395 0.577 0.161 0.172 0.354 0.289 0.568 0.386 0.214 0.096 0.449 0.139 0.695 0.139 0.375 0 0.706-0.086 0.984-0.268 0.279-0.182 0.482-0.374 0.621-0.61l0.546 0.45c-0.3 0.374-0.632 0.652-0.995 0.813-0.364 0.16-0.749 0.246-1.156 0.246-0.374 0-0.717-0.064-1.027-0.193-0.321-0.128-0.589-0.31-0.813-0.556-0.225-0.235-0.407-0.514-0.535-0.835-0.129-0.321-0.204-0.674-0.204-1.048 0-0.375 0.065-0.728 0.193-1.049s0.31-0.599 0.535-0.834c0.225-0.236 0.492-0.418 0.802-0.557 0.311-0.128 0.642-0.192 0.996-0.192 0.374 0 0.716 0.064 1.016 0.203s0.546 0.31 0.76 0.535c0.203 0.225 0.353 0.492 0.46 0.792 0.107 0.299 0.16 0.631 0.16 0.973v0.321zm3.402-0.577c0-0.482-0.139-0.867-0.428-1.156-0.289-0.3-0.685-0.449-1.198-0.449-0.225 0-0.45 0.042-0.664 0.128s-0.406 0.214-0.567 0.353c-0.16 0.15-0.289 0.321-0.385 0.514-0.096 0.192-0.139 0.396-0.139 0.599h3.381z" clip-path="url(#clipPath783)"/>
  <path d="m300.93 258.42c0.011 0.139 0.021 0.267 0.021 0.406v0.407h0.022c0.075-0.139 0.182-0.257 0.299-0.375 0.118-0.117 0.257-0.214 0.407-0.299 0.15-0.086 0.31-0.15 0.471-0.193 0.171-0.043 0.331-0.075 0.503-0.075 0.642 0 1.112 0.172 1.423 0.503 0.31 0.343 0.46 0.824 0.46 1.455v3.178h-0.706v-2.771c0-0.556-0.097-0.984-0.289-1.284-0.193-0.3-0.546-0.449-1.07-0.449-0.032 0-0.139 0.01-0.3 0.042-0.16 0.033-0.342 0.107-0.524 0.236-0.182 0.128-0.343 0.321-0.492 0.578-0.139 0.256-0.214 0.61-0.214 1.07v2.568h-0.707v-3.906c0-0.139-0.01-0.31-0.021-0.513-0.011-0.204-0.021-0.407-0.043-0.589h0.76z" clip-path="url(#clipPath777)"/>
  <path d="m311.2 263.41h-0.706v-0.835h-0.022c-0.117 0.171-0.246 0.321-0.406 0.439-0.161 0.117-0.321 0.224-0.493 0.299-0.171 0.075-0.353 0.139-0.535 0.171-0.181 0.033-0.353 0.054-0.524 0.054-0.396 0-0.749-0.064-1.07-0.193-0.321-0.128-0.61-0.31-0.845-0.556-0.236-0.235-0.417-0.514-0.546-0.835-0.128-0.321-0.203-0.674-0.203-1.048 0-0.375 0.064-0.728 0.203-1.049 0.129-0.321 0.31-0.599 0.546-0.834 0.235-0.236 0.513-0.418 0.845-0.557 0.321-0.128 0.685-0.192 1.07-0.192 0.161 0 0.343 0.021 0.524 0.053 0.182 0.032 0.354 0.096 0.535 0.171 0.172 0.075 0.332 0.182 0.493 0.3 0.16 0.118 0.289 0.267 0.406 0.439h0.022v-3.917h0.706zm-4.569-2.504c0 0.278 0.043 0.535 0.128 0.781 0.086 0.246 0.214 0.449 0.375 0.631 0.16 0.182 0.364 0.321 0.588 0.417 0.236 0.107 0.493 0.161 0.792 0.161 0.289 0 0.546-0.054 0.803-0.161 0.256-0.107 0.46-0.246 0.631-0.417 0.182-0.182 0.321-0.385 0.417-0.631 0.097-0.246 0.15-0.503 0.15-0.781s-0.053-0.535-0.15-0.781c-0.096-0.246-0.235-0.45-0.417-0.632s-0.385-0.321-0.631-0.417-0.514-0.16-0.803-0.16-0.556 0.053-0.792 0.16c-0.235 0.107-0.428 0.246-0.588 0.417-0.161 0.182-0.289 0.386-0.375 0.632-0.075 0.246-0.128 0.513-0.128 0.781z" clip-path="url(#clipPath771)"/>
  <path d="m315.95 260.34v-0.129c0-0.866-0.428-1.294-1.284-1.294-0.589 0-1.092 0.192-1.53 0.588l-0.428-0.503c0.47-0.481 1.177-0.727 2.118-0.727 0.246 0 0.482 0.032 0.706 0.107 0.225 0.075 0.418 0.181 0.578 0.331 0.161 0.15 0.3 0.332 0.396 0.546 0.096 0.225 0.15 0.481 0.15 0.792v2.236c0 0.193 0.011 0.396 0.032 0.61s0.043 0.385 0.054 0.514h-0.685c-0.022-0.118-0.043-0.257-0.043-0.396-0.011-0.139-0.021-0.278-0.021-0.418h-0.022c-0.203 0.332-0.449 0.578-0.727 0.717-0.279 0.15-0.621 0.225-1.038 0.225-0.225 0-0.439-0.032-0.642-0.086-0.204-0.053-0.396-0.149-0.546-0.278-0.161-0.128-0.289-0.278-0.385-0.46-0.097-0.182-0.139-0.396-0.139-0.642 0-0.407 0.107-0.728 0.31-0.952 0.214-0.236 0.471-0.407 0.792-0.524 0.321-0.118 0.652-0.182 1.016-0.214 0.364-0.033 0.696-0.043 0.995-0.043zm-0.364 0.578c-0.182 0-0.407 0.01-0.663 0.032-0.257 0.021-0.525 0.064-0.771 0.128s-0.46 0.171-0.631 0.31-0.268 0.343-0.268 0.589c0 0.16 0.032 0.31 0.097 0.428 0.064 0.118 0.16 0.214 0.267 0.289 0.118 0.075 0.246 0.128 0.385 0.16s0.279 0.043 0.418 0.043c0.256 0 0.481-0.043 0.663-0.128 0.182-0.086 0.353-0.204 0.482-0.353 0.128-0.15 0.224-0.321 0.278-0.514 0.064-0.193 0.096-0.407 0.096-0.631v-0.364h-0.353z" clip-path="url(#clipPath765)"/>
  <path d="m320.88 259.05h-1.444v2.953c0 0.182 0.021 0.332 0.053 0.45 0.032 0.117 0.086 0.203 0.15 0.267s0.139 0.107 0.225 0.129c0.085 0.021 0.192 0.042 0.299 0.042 0.118 0 0.247-0.021 0.375-0.053s0.246-0.086 0.353-0.139l0.032 0.652c-0.267 0.118-0.578 0.182-0.952 0.182-0.139 0-0.278-0.021-0.428-0.053s-0.278-0.107-0.407-0.203c-0.117-0.097-0.224-0.236-0.299-0.407s-0.118-0.396-0.118-0.674v-3.157h-1.059v-0.642h1.059v-1.412h0.706v1.412h1.445v0.653z" clip-path="url(#clipPath759)"/>
  <path d="m322.87 256.49c0 0.149-0.054 0.267-0.161 0.363-0.107 0.097-0.225 0.14-0.353 0.14s-0.246-0.043-0.353-0.14c-0.107-0.096-0.161-0.224-0.161-0.363 0-0.15 0.054-0.268 0.161-0.375 0.107-0.096 0.225-0.139 0.353-0.139s0.246 0.043 0.353 0.139 0.161 0.214 0.161 0.375zm-0.161 6.923h-0.706v-5.008h0.706z" clip-path="url(#clipPath753)"/>
  <path d="m329.47 260.91c0 0.374-0.064 0.727-0.203 1.048-0.128 0.321-0.31 0.6-0.546 0.835-0.235 0.235-0.513 0.417-0.845 0.556-0.321 0.129-0.685 0.193-1.07 0.193s-0.738-0.064-1.07-0.193c-0.321-0.128-0.61-0.31-0.845-0.556-0.236-0.235-0.418-0.514-0.546-0.835s-0.203-0.674-0.203-1.048c0-0.375 0.064-0.728 0.203-1.049 0.128-0.321 0.31-0.599 0.546-0.834 0.235-0.236 0.513-0.418 0.845-0.557 0.321-0.128 0.674-0.192 1.07-0.192s0.749 0.064 1.07 0.192c0.321 0.129 0.599 0.321 0.845 0.557 0.236 0.235 0.418 0.513 0.546 0.834 0.139 0.332 0.203 0.674 0.203 1.049zm-0.77 0c0-0.278-0.043-0.535-0.128-0.781-0.086-0.246-0.214-0.45-0.375-0.632-0.16-0.181-0.364-0.321-0.599-0.417-0.236-0.107-0.492-0.16-0.781-0.16s-0.557 0.053-0.792 0.16-0.428 0.246-0.589 0.417c-0.16 0.182-0.288 0.386-0.374 0.632s-0.128 0.503-0.128 0.781 0.042 0.535 0.128 0.781 0.214 0.449 0.374 0.631c0.161 0.182 0.354 0.321 0.589 0.418 0.235 0.096 0.492 0.16 0.792 0.16 0.299 0 0.556-0.053 0.781-0.16 0.235-0.107 0.428-0.247 0.599-0.418 0.161-0.182 0.289-0.385 0.375-0.631 0.085-0.235 0.128-0.503 0.128-0.781z" clip-path="url(#clipPath747)"/>
  <path d="m331.43 258.42c0.01 0.139 0.021 0.267 0.032 0.406v0.407h0.021c0.075-0.139 0.182-0.257 0.3-0.375 0.117-0.117 0.257-0.214 0.406-0.299 0.15-0.086 0.311-0.15 0.482-0.193s0.332-0.075 0.492-0.075c0.642 0 1.113 0.172 1.423 0.503 0.31 0.343 0.46 0.824 0.46 1.455v3.178h-0.706v-2.771c0-0.556-0.096-0.984-0.289-1.284-0.192-0.3-0.546-0.449-1.07-0.449-0.032 0-0.139 0.01-0.299 0.042-0.161 0.033-0.332 0.107-0.514 0.236-0.182 0.128-0.342 0.321-0.492 0.578-0.139 0.256-0.214 0.61-0.214 1.07v2.568h-0.706v-3.906c0-0.139 0-0.31-0.011-0.513-0.011-0.204-0.022-0.407-0.043-0.589h0.728z" clip-path="url(#clipPath741)"/>
 </g>
 <path d="m310.71 364.66c21.764 0 39.408-17.644 39.408-39.408 0-21.765-17.644-39.408-39.408-39.408-21.765 0-39.408 17.643-39.408 39.408 0 21.764 17.643 39.408 39.408 39.408z" clip-path="url(#clipPath735)" fill="#ffffff" stroke="#d9e2ff" stroke-miterlimit="10" stroke-width="1.07"/>
 <g clip-path="url(#clipPath729)" mask="url(#mask0_1013_5906)">
  <path d="m338.15 358.92c-1.177 2.504-3.627 4.173-6.399 4.355l-0.46 0.032-37.792 4.847-0.268 0.096c-0.963 0.353-2.011 0.332-2.953-0.053l1.049-18.073c0.364-6.141 4.248-11.513 9.962-13.792l11.192-4.462 13.856 1.98c3.799 0.545 6.87 3.381 7.694 7.137z" fill="#721ffa"/>
  <path d="m313.74 339.35c2.483-0.856 4.066-3.585 3.81-6.56l-1.338-15.429-11.085 0.963 1.337 15.429c0.353 4.034 3.884 6.763 7.276 5.597z" fill="#ffeca7"/>
  <path d="m313.17 327.92s-1.691 3.124-6.966 2.739l-0.086-1.573z" fill="#24386c"/>
  <path d="m323.47 316.93c-2.215 6.966-10.176 13.568-17.324 12.615-13.792-1.84-11.962-13.749-9.598-21.186 2.365-7.436 10.305-11.545 17.741-9.18 7.437 2.364 11.545 10.315 9.181 17.751z" fill="#ffeca7"/>
  <path d="m302.42 309.2-1.669 4.462c-0.236 0.642 0.096 1.348 0.738 1.573" stroke="#24386c" stroke-linecap="round" stroke-miterlimit="10" stroke-width=".535"/>
  <path d="m300.15 319.45s1.979 1.038 4.044-0.47" stroke="#24386c" stroke-linecap="round" stroke-miterlimit="10" stroke-width=".535"/>
  <path d="m308.48 309.6c0.508 0 0.92-0.412 0.92-0.921 0-0.508-0.412-0.92-0.92-0.92s-0.92 0.412-0.92 0.92c0 0.509 0.412 0.921 0.92 0.921z" fill="#24386c"/>
  <path d="m301.08 307.34c0.508 0 0.92-0.412 0.92-0.92s-0.412-0.92-0.92-0.92c-0.509 0-0.921 0.412-0.921 0.92s0.412 0.92 0.921 0.92z" fill="#24386c"/>
  <path d="m323.72 317.24s-5.596 0.022-5.928-6.034c-0.171-3.243-3.103-1.702-4.954-4.366-2.151-3.103-8.881-6.099-12.936-4.055 0 0-1.06-8.389 4.216-7.298 2.985 0.621 7.95-1.006 12.262 0.856 10.668 4.612 10.165 15.483 7.34 20.897z" fill="#c91540"/>
  <path d="m324.62 320.63c1.255-1.584 1.334-3.612 0.176-4.529-1.158-0.918-3.115-0.377-4.37 1.207s-1.333 3.612-0.175 4.529c1.158 0.918 3.114 0.377 4.369-1.207z" fill="#ffeca7"/>
  <path d="m321.33 313.8-3.082 5.05 1.733 0.953 2.686-4.205z" fill="#c91540"/>
 </g>
 <g fill="#ffffff" stroke="#d9e2ff" stroke-miterlimit="10" stroke-width="1.07">
  <path d="m123.83 365.78c11.146 0 20.181-9.035 20.181-20.18s-9.035-20.18-20.181-20.18c-11.145 0-20.18 9.035-20.18 20.18s9.035 20.18 20.18 20.18z" clip-path="url(#clipPath723)"/>
  <path d="m62.114 345.93c13.403 0 24.268-10.865 24.268-24.268 0-13.402-10.865-24.267-24.268-24.267-13.403 0-24.268 10.865-24.268 24.267 0 13.403 10.865 24.268 24.268 24.268z" clip-path="url(#clipPath717)"/>
  <path d="m117.85 319.54c10.253 0 18.564-8.312 18.564-18.565 0-10.252-8.311-18.564-18.564-18.564s-18.565 8.312-18.565 18.564c0 10.253 8.3116 18.565 18.565 18.565z" clip-path="url(#clipPath711)"/>
  <path d="m266.2 321.56c8.788 0 15.911-7.123 15.911-15.91 0-8.788-7.123-15.911-15.911-15.911-8.787 0-15.911 7.123-15.911 15.911 0 8.787 7.124 15.91 15.911 15.91z" clip-path="url(#clipPath705)"/>
  <path d="m231.07 339.94c8.113 0 14.691-6.577 14.691-14.691s-6.578-14.691-14.691-14.691c-8.114 0-14.692 6.577-14.692 14.691s6.578 14.691 14.692 14.691z" clip-path="url(#clipPath699)"/>
  <path d="m257.68 369.28c9.302 0 16.842-7.54 16.842-16.841 0-9.302-7.54-16.842-16.842-16.842-9.301 0-16.841 7.54-16.841 16.842 0 9.301 7.54 16.841 16.841 16.841z" clip-path="url(#clipPath693)"/>
 </g>
 <g fill="#d9e2ff">
  <path d="m119.04 356.54h9.587c1.69 0 2.771-1.07 2.803-2.761l0.118-8.817 2.012 0.45c1.048 0.224 1.733-0.193 1.968-1.231l0.814-3.488c0.235-1.049-0.172-1.766-1.135-2.183l-6.484-2.76c-0.524-0.225-0.899-0.214-1.348-0.011-1.252 0.588-2.204 0.877-3.552 0.877-1.349 0-2.29-0.278-3.542-0.877-0.439-0.203-0.813-0.214-1.348 0.011l-6.485 2.76c-0.973 0.417-1.369 1.134-1.134 2.183l0.813 3.488c0.236 1.049 0.91 1.455 1.969 1.231l2.012-0.45 0.118 8.817c0.042 1.68 1.123 2.761 2.814 2.761zm0.021-1.734c-0.663 0-1.081-0.428-1.091-1.113l-0.129-10.486c0-0.224-0.171-0.374-0.428-0.32l-3.338 0.738c-0.171 0.043-0.289-0.032-0.332-0.193l-0.706-2.974c-0.043-0.214 0.021-0.311 0.193-0.386l5.885-2.503c0.502 2.161 2.45 3.68 4.697 3.68 2.258 0 4.205-1.519 4.708-3.68l5.885 2.503c0.182 0.075 0.246 0.172 0.192 0.386l-0.695 2.974c-0.043 0.161-0.161 0.236-0.332 0.193l-3.338-0.738c-0.257-0.054-0.428 0.096-0.428 0.32l-0.129 10.486c-0.01 0.685-0.428 1.113-1.091 1.113zm4.772-16.542c1.038 0 1.937-0.16 2.814-0.481-0.524 1.048-1.594 1.744-2.814 1.744-1.209 0-2.279-0.696-2.803-1.744 0.867 0.321 1.776 0.481 2.803 0.481z" clip-path="url(#clipPath687)"/>
  <path d="m52.494 330.6h1.1342c0.7169 0 1.2733-0.557 1.2733-1.273v-1.531c2.0651 0.118 4.8899 0.193 7.2011 0.193 2.3005 0 5.1253-0.075 7.1904-0.193v1.531c0 0.716 0.5564 1.273 1.284 1.273h1.1235c0.7276 0 1.284-0.557 1.284-1.273v-2.472c0.3103-0.364 0.4815-0.856 0.4815-1.455v-1.659c0-1.658-0.2889-2.589-1.1877-3.713l-0.8346-1.048c-0.3531-1.691-0.9737-3.467-1.2947-4.163-0.5243-1.112-1.5408-1.765-2.8355-1.947-0.6848-0.096-2.6964-0.139-5.2002-0.139s-4.5261 0.053-5.2002 0.139c-1.2947 0.16-2.3219 0.835-2.8355 1.947-0.3317 0.696-0.9523 2.472-1.2947 4.163l-0.8346 1.048c-0.8881 1.124-1.1877 2.055-1.1877 3.713v1.659c0 0.599 0.1712 1.091 0.4815 1.455v2.472c-0.0214 0.727 0.535 1.273 1.2519 1.273zm9.6086-4.12c-3.2207 0-7.2332-0.149-8.7526-0.331-0.8132-0.097-1.1128-0.503-1.1128-1.22v-1.263c0-1.273 0.2461-1.872 0.8988-2.75l1.0165-1.326c0.2354-1.263 0.8453-3.221 1.2305-4.056 0.321-0.663 0.9202-1.048 1.7441-1.155 0.6527-0.086 2.4824-0.161 4.9755-0.161s4.3549 0.086 4.9541 0.161c0.8453 0.107 1.4338 0.503 1.7441 1.166 0.4066 0.813 0.9951 2.761 1.2305 4.045l1.0165 1.326c0.6634 0.878 0.8988 1.477 0.8988 2.75v1.263c0 0.717-0.2996 1.123-1.1021 1.22-1.5087 0.182-5.5105 0.331-8.7419 0.331zm-6.6661-7.832c-0.0963 0.385 0.0749 0.567 0.4815 0.546 1.3803-0.086 3.1244-0.172 6.1846-0.172s4.8043 0.086 6.1739 0.172c0.4173 0.021 0.5778-0.161 0.4922-0.546-0.2033-0.899-0.5885-2.087-0.8667-2.557-0.2675-0.471-0.5671-0.664-1.1235-0.739-0.642-0.085-2.1721-0.149-4.6866-0.149s-4.0553 0.064-4.6866 0.149c-0.5564 0.075-0.8667 0.268-1.1235 0.739-0.2461 0.47-0.6313 1.658-0.8453 2.557zm-0.1391 6.613c0.8988 0 1.5836-0.674 1.5836-1.573s-0.6741-1.584-1.5836-1.584c-0.8881 0-1.5729 0.674-1.5729 1.584 0 0.899 0.6848 1.573 1.5729 1.573zm13.61 0c0.8988 0 1.5836-0.674 1.5836-1.573s-0.6741-1.584-1.5836-1.584c-0.8881 0-1.5729 0.674-1.5729 1.584 0 0.899 0.6741 1.573 1.5729 1.573zm-9.3411-0.396h5.0825c0.6634 0 1.1342-0.471 1.1342-1.135 0-0.663-0.4708-1.134-1.1342-1.134h-5.0825c-0.6741 0-1.1449 0.471-1.1449 1.134 0 0.664 0.4708 1.135 1.1449 1.135z" clip-path="url(#clipPath681)"/>
  <path d="m105.41 305.16c0 3.06 5.157 5.136 12.433 5.136 7.298 0 12.444-2.076 12.444-5.136 0-1.38-1.059-2.579-2.91-3.467 1.551-0.331 2.461-1.412 2.461-2.996 0-1.84-1.231-2.985-3.264-3.092-0.075-2.365-3.563-3.927-8.731-3.927-5.211 0-8.731 1.605-8.731 4.013v1.99c0 1.262 0.214 2.429 0.61 3.467-2.718 0.898-4.312 2.311-4.312 4.012zm12.433-7.201c-4.002 0-6.987-1.006-6.987-2.279s2.985-2.279 6.987-2.279 6.998 1.006 6.998 2.279-2.996 2.279-6.998 2.279zm8.742-0.289v-0.374c0.984 0.085 1.552 0.577 1.552 1.391 0 0.877-0.675 1.412-1.841 1.412 0.182-0.76 0.289-1.573 0.289-2.429zm-8.742 2.022c3.007 0 5.457-0.535 6.977-1.455-0.225 3.724-2.708 6.206-6.527 6.206h-0.899c-3.831 0-6.292-2.471-6.517-6.206 1.52 0.92 3.97 1.455 6.966 1.455zm-10.753 5.468c0-0.92 1.284-1.83 3.413-2.493 1.412 2.194 3.841 3.52 6.891 3.52h0.899c3.06 0 5.478-1.326 6.89-3.509 2.14 0.652 3.424 1.562 3.424 2.482 0 1.787-4.772 3.456-10.764 3.456-5.992 0.011-10.753-1.669-10.753-3.456z" clip-path="url(#clipPath675)"/>
  <path d="m260.92 313.8h10.551c1.893 0 2.867-0.974 2.867-2.846v-10.604c0-1.862-0.974-2.846-2.867-2.846h-10.551c-1.883 0-2.867 0.963-2.867 2.846v10.604c0 1.861 0.984 2.846 2.867 2.846zm0.118-1.744c-0.802 0-1.241-0.418-1.241-1.263v-10.293c0-0.846 0.449-1.263 1.241-1.263h10.326c0.791 0 1.241 0.417 1.241 1.263v10.293c0 0.845-0.45 1.263-1.241 1.263zm5.168-1.53c0.225 0 0.396-0.161 0.396-0.396v-0.589c1.412-0.128 2.472-0.931 2.472-2.257 0-1.188-0.771-1.884-2.279-2.173l-0.193-0.032v-2.172c0.546 0.097 0.942 0.428 1.102 0.942 0.118 0.289 0.31 0.449 0.631 0.449 0.354 0 0.589-0.224 0.589-0.567 0-0.107-0.021-0.203-0.054-0.299-0.235-0.91-1.102-1.552-2.279-1.67v-0.588c0-0.235-0.171-0.396-0.396-0.396-0.224 0-0.395 0.161-0.395 0.396v0.588c-1.381 0.139-2.354 0.974-2.354 2.194 0 1.123 0.759 1.797 2.204 2.129l0.15 0.032v2.29c-0.707-0.107-1.113-0.481-1.252-0.995-0.118-0.31-0.321-0.471-0.621-0.471-0.364 0-0.599 0.246-0.599 0.589 0 0.107 0.021 0.203 0.053 0.31 0.257 0.92 1.177 1.573 2.419 1.68v0.588c0.01 0.257 0.181 0.418 0.406 0.418zm-0.396-5.65-0.064-0.021c-0.695-0.214-1.016-0.514-1.016-0.974 0-0.492 0.406-0.877 1.08-0.984zm0.792 1.445 0.161 0.042c0.77 0.204 1.037 0.514 1.037 1.006 0 0.557-0.395 0.963-1.198 1.049z" clip-path="url(#clipPath669)"/>
  <path d="m249.29 348c0.738 0 1.337-0.588 1.337-1.337 0-0.739-0.588-1.338-1.337-1.338-0.739 0-1.338 0.599-1.338 1.338 0 0.738 0.599 1.337 1.338 1.337zm4.419-0.439h12.776c0.502 0 0.909-0.396 0.909-0.898 0-0.503-0.396-0.899-0.909-0.899h-12.776c-0.503 0-0.899 0.396-0.899 0.899 0 0.502 0.396 0.898 0.899 0.898zm-4.419 6.217c0.738 0 1.337-0.588 1.337-1.337 0-0.739-0.588-1.338-1.337-1.338-0.739 0-1.338 0.599-1.338 1.338 0 0.749 0.599 1.337 1.338 1.337zm4.419-0.428h12.776c0.502 0 0.909-0.396 0.909-0.899s-0.396-0.899-0.909-0.899h-12.776c-0.503 0-0.899 0.396-0.899 0.899s0.396 0.899 0.899 0.899zm-4.419 6.217c0.738 0 1.337-0.589 1.337-1.338 0-0.738-0.588-1.337-1.337-1.337-0.739 0-1.338 0.599-1.338 1.337 0 0.739 0.599 1.338 1.338 1.338zm4.419-0.439h12.776c0.502 0 0.909-0.396 0.909-0.899s-0.396-0.899-0.909-0.899h-12.776c-0.503 0-0.899 0.396-0.899 0.899s0.396 0.899 0.899 0.899z" clip-path="url(#clipPath663)"/>
  <path d="m225.11 334.4c0.418 0.247 1.006 0.182 1.338-0.299l10.818-16.061c0.353-0.524 0.171-1.113-0.268-1.359-0.406-0.224-0.952-0.139-1.295 0.375l-10.817 16.018c-0.364 0.535-0.204 1.08 0.224 1.326zm0.3-8.848c2.151 0 3.467-1.702 3.467-4.441 0-2.761-1.327-4.408-3.467-4.408s-3.467 1.669-3.467 4.408c-0.01 2.75 1.316 4.441 3.467 4.441zm0-1.552c-1.027 0-1.605-1.038-1.605-2.889 0-1.83 0.589-2.857 1.605-2.857 1.017 0 1.605 1.027 1.605 2.857 0 1.862-0.588 2.889-1.605 2.889zm11.331 10.411c2.151 0 3.467-1.701 3.467-4.44 0-2.761-1.337-4.409-3.467-4.409-2.14 0-3.477 1.669-3.477 4.409 0 2.739 1.316 4.44 3.477 4.44zm0-1.551c-1.027 0-1.605-1.038-1.605-2.889 0-1.819 0.589-2.857 1.605-2.857 1.017 0 1.595 1.027 1.595 2.857 0 1.861-0.578 2.889-1.595 2.889z" clip-path="url(#clipPath657)"/>
 </g>
 <path d="m355.1 335.85c8.787 0 15.911-7.124 15.911-15.911 0-8.788-7.124-15.911-15.911-15.911-8.788 0-15.911 7.123-15.911 15.911 0 8.787 7.123 15.911 15.911 15.911z" clip-path="url(#clipPath651)" fill="#ffffff" stroke="#d9e2ff" stroke-miterlimit="10" stroke-width="1.07"/>
 <path d="m356.05 313.06 1.52 3.081c0.16 0.321 0.46 0.535 0.802 0.589l3.403 0.492c0.877 0.128 1.23 1.209 0.588 1.83l-2.461 2.396c-0.257 0.247-0.364 0.6-0.31 0.953l0.578 3.392c0.149 0.877-0.771 1.54-1.552 1.123l-3.049-1.605c-0.311-0.16-0.685-0.16-0.995 0l-3.05 1.605c-0.781 0.417-1.701-0.257-1.551-1.123l0.577-3.392c0.065-0.343-0.053-0.706-0.31-0.953l-2.461-2.396c-0.631-0.621-0.289-1.702 0.589-1.83l3.402-0.492c0.353-0.054 0.653-0.268 0.803-0.589l1.519-3.081c0.439-0.792 1.573-0.792 1.958 0z" clip-path="url(#clipPath645)" stroke="#d9e2ff" stroke-miterlimit="10" stroke-width="1.605"/>
 <defs>
  <linearGradient id="paint0_linear_1013_5906" x1="197.95" x2="197.95" y1="379.86" y2="191.84" gradientUnits="userSpaceOnUse">
   <stop stop-color="white" stop-opacity="0" offset="0"/>
   <stop stop-color="#B2BFE8" stop-opacity=".4" offset=".756"/>
  </linearGradient>
  <linearGradient id="paint1_linear_1013_5906" x1="197.95" x2="197.95" y1="385.5" y2="316.5" gradientUnits="userSpaceOnUse">
   <stop stop-color="white" stop-opacity="0" offset="0"/>
   <stop stop-color="#B2BFE8" stop-opacity=".2" offset=".7464"/>
  </linearGradient>
  <linearGradient id="paint2_linear_1013_5906" x1="197.58" x2="185.93" y1="270.58" y2="271.11" gradientUnits="userSpaceOnUse">
   <stop stop-color="#FF3364" offset="0"/>
   <stop stop-color="#C91540" stop-opacity="0" offset="1"/>
  </linearGradient>
  <mask id="mask0_1013_5906" x="271" y="285" width="80" height="80" style="mask-type:alpha" maskUnits="userSpaceOnUse">
   <path d="m310.71 364.66c21.764 0 39.408-17.644 39.408-39.408 0-21.765-17.644-39.408-39.408-39.408-21.765 0-39.408 17.643-39.408 39.408 0 21.764 17.643 39.408 39.408 39.408z" fill="white"/>
  </mask>
  <clipPath id="clipPath645">
   <rect width="395.9" height="379.85" fill="#ffffff"/>
  </clipPath>
  <clipPath id="clipPath651">
   <rect width="395.9" height="379.85" fill="#ffffff"/>
  </clipPath>
  <clipPath id="clipPath657">
   <rect width="395.9" height="379.85" fill="#ffffff"/>
  </clipPath>
  <clipPath id="clipPath663">
   <rect width="395.9" height="379.85" fill="#ffffff"/>
  </clipPath>
  <clipPath id="clipPath669">
   <rect width="395.9" height="379.85" fill="#ffffff"/>
  </clipPath>
  <clipPath id="clipPath675">
   <rect width="395.9" height="379.85" fill="#ffffff"/>
  </clipPath>
  <clipPath id="clipPath681">
   <rect width="395.9" height="379.85" fill="#ffffff"/>
  </clipPath>
  <clipPath id="clipPath687">
   <rect width="395.9" height="379.85" fill="#ffffff"/>
  </clipPath>
  <clipPath id="clipPath693">
   <rect width="395.9" height="379.85" fill="#ffffff"/>
  </clipPath>
  <clipPath id="clipPath699">
   <rect width="395.9" height="379.85" fill="#ffffff"/>
  </clipPath>
  <clipPath id="clipPath705">
   <rect width="395.9" height="379.85" fill="#ffffff"/>
  </clipPath>
  <clipPath id="clipPath711">
   <rect width="395.9" height="379.85" fill="#ffffff"/>
  </clipPath>
  <clipPath id="clipPath717">
   <rect width="395.9" height="379.85" fill="#ffffff"/>
  </clipPath>
  <clipPath id="clipPath723">
   <rect width="395.9" height="379.85" fill="#ffffff"/>
  </clipPath>
  <clipPath id="clipPath729">
   <rect width="395.9" height="379.85" fill="#ffffff"/>
  </clipPath>
  <clipPath id="clipPath735">
   <rect width="395.9" height="379.85" fill="#ffffff"/>
  </clipPath>
  <clipPath id="clipPath741">
   <rect width="395.9" height="379.85" fill="#ffffff"/>
  </clipPath>
  <clipPath id="clipPath747">
   <rect width="395.9" height="379.85" fill="#ffffff"/>
  </clipPath>
  <clipPath id="clipPath753">
   <rect width="395.9" height="379.85" fill="#ffffff"/>
  </clipPath>
  <clipPath id="clipPath759">
   <rect width="395.9" height="379.85" fill="#ffffff"/>
  </clipPath>
  <clipPath id="clipPath765">
   <rect width="395.9" height="379.85" fill="#ffffff"/>
  </clipPath>
  <clipPath id="clipPath771">
   <rect width="395.9" height="379.85" fill="#ffffff"/>
  </clipPath>
  <clipPath id="clipPath777">
   <rect width="395.9" height="379.85" fill="#ffffff"/>
  </clipPath>
  <clipPath id="clipPath783">
   <rect width="395.9" height="379.85" fill="#ffffff"/>
  </clipPath>
  <clipPath id="clipPath789">
   <rect width="395.9" height="379.85" fill="#ffffff"/>
  </clipPath>
  <clipPath id="clipPath795">
   <rect width="395.9" height="379.85" fill="#ffffff"/>
  </clipPath>
  <clipPath id="clipPath801">
   <rect width="395.9" height="379.85" fill="#ffffff"/>
  </clipPath>
  <clipPath id="clipPath807">
   <rect width="395.9" height="379.85" fill="#ffffff"/>
  </clipPath>
  <clipPath id="clipPath813">
   <rect width="395.9" height="379.85" fill="#ffffff"/>
  </clipPath>
  <clipPath id="clipPath819">
   <rect width="395.9" height="379.85" fill="#ffffff"/>
  </clipPath>
  <clipPath id="clipPath825">
   <rect width="395.9" height="379.85" fill="#ffffff"/>
  </clipPath>
  <clipPath id="clipPath831">
   <rect width="395.9" height="379.85" fill="#ffffff"/>
  </clipPath>
  <clipPath id="clipPath837">
   <rect width="395.9" height="379.85" fill="#ffffff"/>
  </clipPath>
  <clipPath id="clipPath843">
   <rect width="395.9" height="379.85" fill="#ffffff"/>
  </clipPath>
  <clipPath id="clipPath849">
   <rect width="395.9" height="379.85" fill="#ffffff"/>
  </clipPath>
  <clipPath id="clipPath855">
   <rect width="395.9" height="379.85" fill="#ffffff"/>
  </clipPath>
  <clipPath id="clipPath861">
   <rect width="395.9" height="379.85" fill="#ffffff"/>
  </clipPath>
  <clipPath id="clipPath867">
   <rect width="395.9" height="379.85" fill="#ffffff"/>
  </clipPath>
  <clipPath id="clipPath873">
   <rect width="395.9" height="379.85" fill="#ffffff"/>
  </clipPath>
  <clipPath id="clipPath879">
   <rect width="395.9" height="379.85" fill="#ffffff"/>
  </clipPath>
  <clipPath id="clipPath885">
   <rect width="395.9" height="379.85" fill="#ffffff"/>
  </clipPath>
  <clipPath id="clipPath891">
   <rect width="395.9" height="379.85" fill="#ffffff"/>
  </clipPath>
  <clipPath id="clipPath897">
   <rect width="395.9" height="379.85" fill="#ffffff"/>
  </clipPath>
  <clipPath id="clipPath903">
   <rect width="395.9" height="379.85" fill="#ffffff"/>
  </clipPath>
  <clipPath id="clipPath909">
   <rect width="395.9" height="379.85" fill="#ffffff"/>
  </clipPath>
  <clipPath id="clipPath915">
   <rect width="395.9" height="379.85" fill="#ffffff"/>
  </clipPath>
  <clipPath id="clipPath921">
   <rect width="395.9" height="379.85" fill="#ffffff"/>
  </clipPath>
  <clipPath id="clipPath927">
   <rect width="395.9" height="379.85" fill="#ffffff"/>
  </clipPath>
  <clipPath id="clipPath933">
   <rect width="395.9" height="379.85" fill="#ffffff"/>
  </clipPath>
  <clipPath id="clipPath939">
   <rect width="395.9" height="379.85" fill="#ffffff"/>
  </clipPath>
  <clipPath id="clipPath945">
   <rect width="395.9" height="379.85" fill="#ffffff"/>
  </clipPath>
  <clipPath id="clipPath951">
   <rect width="395.9" height="379.85" fill="#ffffff"/>
  </clipPath>
  <clipPath id="clipPath957">
   <rect width="395.9" height="379.85" fill="#ffffff"/>
  </clipPath>
  <clipPath id="clipPath963">
   <rect width="395.9" height="379.85" fill="#ffffff"/>
  </clipPath>
  <clipPath id="clipPath969">
   <rect width="395.9" height="379.85" fill="#ffffff"/>
  </clipPath>
  <clipPath id="clipPath975">
   <rect width="395.9" height="379.85" fill="#ffffff"/>
  </clipPath>
  <clipPath id="clipPath981">
   <rect width="395.9" height="379.85" fill="#ffffff"/>
  </clipPath>
  <clipPath id="clipPath987">
   <rect width="395.9" height="379.85" fill="#ffffff"/>
  </clipPath>
  <clipPath id="clipPath993">
   <rect width="395.9" height="379.85" fill="#ffffff"/>
  </clipPath>
  <clipPath id="clipPath999">
   <rect width="395.9" height="379.85" fill="#ffffff"/>
  </clipPath>
  <clipPath id="clipPath1005">
   <rect width="395.9" height="379.85" fill="#ffffff"/>
  </clipPath>
  <clipPath id="clipPath1011">
   <rect width="395.9" height="379.85" fill="#ffffff"/>
  </clipPath>
  <clipPath id="clipPath1017">
   <rect width="395.9" height="379.85" fill="#ffffff"/>
  </clipPath>
  <clipPath id="clipPath1023">
   <rect width="395.9" height="379.85" fill="#ffffff"/>
  </clipPath>
  <clipPath id="clipPath1029">
   <rect width="395.9" height="379.85" fill="#ffffff"/>
  </clipPath>
  <clipPath id="clipPath1041">
   <rect width="395.9" height="379.85" fill="#ffffff"/>
  </clipPath>
  <clipPath id="clipPath1047">
   <rect width="395.9" height="379.85" fill="#ffffff"/>
  </clipPath>
  <clipPath id="clipPath1053">
   <rect width="395.9" height="379.85" fill="#ffffff"/>
  </clipPath>
  <clipPath id="clipPath1059">
   <rect width="395.9" height="379.85" fill="#ffffff"/>
  </clipPath>
  <clipPath id="clipPath1065">
   <rect width="395.9" height="379.85" fill="#ffffff"/>
  </clipPath>
  <clipPath id="clipPath1071">
   <rect width="395.9" height="379.85" fill="#ffffff"/>
  </clipPath>
  <clipPath id="clipPath1077">
   <rect width="395.9" height="379.85" fill="#ffffff"/>
  </clipPath>
  <clipPath id="clipPath1083">
   <rect width="395.9" height="379.85" fill="#ffffff"/>
  </clipPath>
  <clipPath id="clipPath1089">
   <rect width="395.9" height="379.85" fill="#ffffff"/>
  </clipPath>
  <clipPath id="clipPath1095">
   <rect width="395.9" height="379.85" fill="#ffffff"/>
  </clipPath>
  <clipPath id="clipPath1101">
   <rect width="395.9" height="379.85" fill="#ffffff"/>
  </clipPath>
  <clipPath id="clipPath1107">
   <rect width="395.9" height="379.85" fill="#ffffff"/>
  </clipPath>
  <clipPath id="clipPath1113">
   <rect width="395.9" height="379.85" fill="#ffffff"/>
  </clipPath>
  <clipPath id="clipPath1119">
   <rect width="395.9" height="379.85" fill="#ffffff"/>
  </clipPath>
  <clipPath id="clipPath1125">
   <rect width="395.9" height="379.85" fill="#ffffff"/>
  </clipPath>
  <clipPath id="clipPath1131">
   <rect width="395.9" height="379.85" fill="#ffffff"/>
  </clipPath>
  <clipPath id="clipPath1137">
   <rect width="395.9" height="379.85" fill="#ffffff"/>
  </clipPath>
  <clipPath id="clipPath1143">
   <rect width="395.9" height="379.85" fill="#ffffff"/>
  </clipPath>
  <clipPath id="clipPath1149">
   <rect width="395.9" height="379.85" fill="#ffffff"/>
  </clipPath>
  <clipPath id="clipPath1155">
   <rect width="395.9" height="379.85" fill="#ffffff"/>
  </clipPath>
  <clipPath id="clipPath1161">
   <rect width="395.9" height="379.85" fill="#ffffff"/>
  </clipPath>
  <clipPath id="clipPath1167">
   <rect width="395.9" height="379.85" fill="#ffffff"/>
  </clipPath>
  <clipPath id="clipPath1173">
   <rect width="395.9" height="379.85" fill="#ffffff"/>
  </clipPath>
  <clipPath id="clipPath1179">
   <rect width="395.9" height="379.85" fill="#ffffff"/>
  </clipPath>
  <clipPath id="clipPath1185">
   <rect width="395.9" height="379.85" fill="#ffffff"/>
  </clipPath>
  <clipPath id="clipPath1191">
   <rect width="395.9" height="379.85" fill="#ffffff"/>
  </clipPath>
  <clipPath id="clipPath1197">
   <rect width="395.9" height="379.85" fill="#ffffff"/>
  </clipPath>
  <clipPath id="clipPath1203">
   <rect width="395.9" height="379.85" fill="#ffffff"/>
  </clipPath>
  <clipPath id="clipPath1209">
   <rect width="395.9" height="379.85" fill="#ffffff"/>
  </clipPath>
  <clipPath id="clipPath1215">
   <rect width="395.9" height="379.85" fill="#ffffff"/>
  </clipPath>
  <clipPath id="clipPath1221">
   <rect width="395.9" height="379.85" fill="#ffffff"/>
  </clipPath>
  <clipPath id="clipPath1227">
   <rect width="395.9" height="379.85" fill="#ffffff"/>
  </clipPath>
 </defs>
</svg>
