<svg width="396" height="380" viewBox="0 0 396 380" fill="none" xmlns="http://www.w3.org/2000/svg">
<g clip-path="url(#clip0_1013_5906)">
<path opacity="0.6" fill-rule="evenodd" clip-rule="evenodd" d="M0 337.157V304.041L191.188 193.659C195.371 191.241 200.529 191.241 204.712 193.659L395.9 304.041V337.157L321.963 379.85H73.9584L0 337.157Z" fill="url(#paint0_linear_1013_5906)"/>
<path d="M255.623 210.683H317.18C321.321 210.683 324.67 207.334 324.67 203.193V16.8418C324.67 12.7009 321.321 9.35181 317.18 9.35181H78.72C74.5791 9.35181 71.23 12.7009 71.23 16.8418V203.193C71.23 207.334 74.5791 210.683 78.72 210.683H139.164" stroke="#D9E2FF" stroke-width="1.07" stroke-miterlimit="10"/>
<path d="M261.9 224H330.636C335.26 224 339 220.124 339 215.332V-0.331844C339 -5.1241 335.26 -9 330.636 -9H64.3636C59.7397 -9 56 -5.1241 56 -0.331844V215.332C56 220.124 59.7397 224 64.3636 224H131.858" stroke="#D9E2FF" stroke-width="1.07" stroke-miterlimit="10" stroke-dasharray="3 4"/>
<path d="M304.95 19.0675H90.95C86.8091 19.0675 83.46 22.4166 83.46 26.5575V193.478C83.46 197.618 86.8091 200.968 90.95 200.968H134.863C160.275 200.968 180.873 221.565 180.873 246.978H215.038C215.038 221.565 235.635 200.968 261.048 200.968H304.95C309.091 200.968 312.44 197.618 312.44 193.478V26.5575C312.44 22.4166 309.091 19.0675 304.95 19.0675Z" fill="#D9E2FF"/>
<path d="M260.545 29.2325C257.881 29.2325 255.73 27.0818 255.73 24.4175V10.0688C255.73 7.40448 257.881 5.25378 260.545 5.25378C263.209 5.25378 265.36 7.40448 265.36 10.0688V24.4175C265.36 27.0711 263.209 29.2325 260.545 29.2325Z" fill="#B2BFE8"/>
<path d="M135.355 29.2325C132.691 29.2325 130.54 27.0818 130.54 24.4175V10.0688C130.54 7.40448 132.691 5.25378 135.355 5.25378C138.019 5.25378 140.17 7.40448 140.17 10.0688V24.4175C140.17 27.0711 138.019 29.2325 135.355 29.2325Z" fill="#B2BFE8"/>
<path d="M165.893 59.7274C170.62 59.7274 174.453 55.895 174.453 51.1674C174.453 46.4399 170.62 42.6074 165.893 42.6074C161.165 42.6074 157.333 46.4399 157.333 51.1674C157.333 55.895 161.165 59.7274 165.893 59.7274Z" fill="white"/>
<path d="M197.95 59.7274C202.677 59.7274 206.51 55.895 206.51 51.1674C206.51 46.4399 202.677 42.6074 197.95 42.6074C193.222 42.6074 189.39 46.4399 189.39 51.1674C189.39 55.895 193.222 59.7274 197.95 59.7274Z" fill="white"/>
<path d="M230.007 59.7274C234.735 59.7274 238.567 55.895 238.567 51.1674C238.567 46.4399 234.735 42.6074 230.007 42.6074C225.28 42.6074 221.447 46.4399 221.447 51.1674C221.447 55.895 225.28 59.7274 230.007 59.7274Z" fill="white"/>
<path d="M262.075 59.7274C266.803 59.7274 270.635 55.895 270.635 51.1674C270.635 46.4399 266.803 42.6074 262.075 42.6074C257.348 42.6074 253.515 46.4399 253.515 51.1674C253.515 55.895 257.348 59.7274 262.075 59.7274Z" fill="white"/>
<path d="M133.825 59.7274C138.552 59.7274 142.385 55.895 142.385 51.1674C142.385 46.4399 138.552 42.6074 133.825 42.6074C129.097 42.6074 125.265 46.4399 125.265 51.1674C125.265 55.895 129.097 59.7274 133.825 59.7274Z" fill="white"/>
<path d="M165.893 88.6174C170.62 88.6174 174.453 84.785 174.453 80.0574C174.453 75.3299 170.62 71.4974 165.893 71.4974C161.165 71.4974 157.333 75.3299 157.333 80.0574C157.333 84.785 161.165 88.6174 165.893 88.6174Z" fill="white"/>
<path d="M197.95 88.6174C202.677 88.6174 206.51 84.785 206.51 80.0574C206.51 75.3299 202.677 71.4974 197.95 71.4974C193.222 71.4974 189.39 75.3299 189.39 80.0574C189.39 84.785 193.222 88.6174 197.95 88.6174Z" fill="white"/>
<path d="M230.007 95.0375C238.28 95.0375 244.987 88.3307 244.987 80.0575C244.987 71.7843 238.28 65.0775 230.007 65.0775C221.734 65.0775 215.027 71.7843 215.027 80.0575C215.027 88.3307 221.734 95.0375 230.007 95.0375Z" fill="#721FFA"/>
<path d="M262.075 88.6174C266.803 88.6174 270.635 84.785 270.635 80.0574C270.635 75.3299 266.803 71.4974 262.075 71.4974C257.348 71.4974 253.515 75.3299 253.515 80.0574C253.515 84.785 257.348 88.6174 262.075 88.6174Z" fill="white"/>
<path d="M133.825 88.6174C138.552 88.6174 142.385 84.785 142.385 80.0574C142.385 75.3299 138.552 71.4974 133.825 71.4974C129.097 71.4974 125.265 75.3299 125.265 80.0574C125.265 84.785 129.097 88.6174 133.825 88.6174Z" fill="white"/>
<path d="M165.893 123.928C174.166 123.928 180.873 117.221 180.873 108.948C180.873 100.674 174.166 93.9675 165.893 93.9675C157.62 93.9675 150.913 100.674 150.913 108.948C150.913 117.221 157.62 123.928 165.893 123.928Z" fill="#721FFA"/>
<path d="M197.95 117.507C202.677 117.507 206.51 113.675 206.51 108.947C206.51 104.22 202.677 100.387 197.95 100.387C193.222 100.387 189.39 104.22 189.39 108.947C189.39 113.675 193.222 117.507 197.95 117.507Z" fill="white"/>
<path d="M230.007 117.507C234.735 117.507 238.567 113.675 238.567 108.947C238.567 104.22 234.735 100.387 230.007 100.387C225.28 100.387 221.447 104.22 221.447 108.947C221.447 113.675 225.28 117.507 230.007 117.507Z" fill="white"/>
<path d="M197.95 288.333V379.85" stroke="url(#paint1_linear_1013_5906)" stroke-width="2.14" stroke-miterlimit="10"/>
<path d="M262.075 117.507C266.803 117.507 270.635 113.675 270.635 108.947C270.635 104.22 266.803 100.387 262.075 100.387C257.348 100.387 253.515 104.22 253.515 108.947C253.515 113.675 257.348 117.507 262.075 117.507Z" fill="white"/>
<path d="M133.825 117.507C138.552 117.507 142.385 113.675 142.385 108.947C142.385 104.22 138.552 100.387 133.825 100.387C129.097 100.387 125.265 104.22 125.265 108.947C125.265 113.675 129.097 117.507 133.825 117.507Z" fill="white"/>
<path d="M165.893 146.397C170.62 146.397 174.453 142.565 174.453 137.837C174.453 133.11 170.62 129.277 165.893 129.277C161.165 129.277 157.333 133.11 157.333 137.837C157.333 142.565 161.165 146.397 165.893 146.397Z" fill="white"/>
<path d="M197.95 146.397C202.677 146.397 206.51 142.565 206.51 137.837C206.51 133.11 202.677 129.277 197.95 129.277C193.222 129.277 189.39 133.11 189.39 137.837C189.39 142.565 193.222 146.397 197.95 146.397Z" fill="white"/>
<path d="M230.007 152.817C238.28 152.817 244.987 146.111 244.987 137.837C244.987 129.564 238.28 122.857 230.007 122.857C221.734 122.857 215.027 129.564 215.027 137.837C215.027 146.111 221.734 152.817 230.007 152.817Z" fill="#721FFA"/>
<path d="M262.075 146.397C266.803 146.397 270.635 142.565 270.635 137.837C270.635 133.11 266.803 129.277 262.075 129.277C257.348 129.277 253.515 133.11 253.515 137.837C253.515 142.565 257.348 146.397 262.075 146.397Z" fill="white"/>
<path d="M133.825 146.397C138.552 146.397 142.385 142.565 142.385 137.837C142.385 133.11 138.552 129.277 133.825 129.277C129.097 129.277 125.265 133.11 125.265 137.837C125.265 142.565 129.097 146.397 133.825 146.397Z" fill="white"/>
<path d="M165.893 175.287C170.62 175.287 174.453 171.455 174.453 166.727C174.453 162 170.62 158.167 165.893 158.167C161.165 158.167 157.333 162 157.333 166.727C157.333 171.455 161.165 175.287 165.893 175.287Z" fill="white"/>
<path d="M197.95 175.287C202.677 175.287 206.51 171.455 206.51 166.727C206.51 162 202.677 158.167 197.95 158.167C193.222 158.167 189.39 162 189.39 166.727C189.39 171.455 193.222 175.287 197.95 175.287Z" fill="white"/>
<path d="M230.007 175.287C234.735 175.287 238.567 171.455 238.567 166.727C238.567 162 234.735 158.167 230.007 158.167C225.28 158.167 221.447 162 221.447 166.727C221.447 171.455 225.28 175.287 230.007 175.287Z" fill="white"/>
<path d="M262.075 175.287C266.803 175.287 270.635 171.455 270.635 166.727C270.635 162 266.803 158.167 262.075 158.167C257.348 158.167 253.515 162 253.515 166.727C253.515 171.455 257.348 175.287 262.075 175.287Z" fill="white"/>
<path d="M133.825 175.287C138.552 175.287 142.385 171.455 142.385 166.727C142.385 162 138.552 158.167 133.825 158.167C129.097 158.167 125.265 162 125.265 166.727C125.265 171.455 129.097 175.287 133.825 175.287Z" fill="white"/>
<path fill-rule="evenodd" clip-rule="evenodd" d="M197.95 213.904L180.477 223.994L163.004 234.084V274.444L180.477 284.534L197.95 294.624L209.132 288.172L221.019 294.624L232.907 287.766V234.095L215.434 224.004L197.95 213.904Z" fill="#201D1D"/>
<path fill-rule="evenodd" clip-rule="evenodd" d="M221.019 267.586V240.953L232.907 234.095V287.766L221.019 294.625V267.586Z" fill="#24386C"/>
<path fill-rule="evenodd" clip-rule="evenodd" d="M232.896 234.084L221.009 240.943L209.474 234.287L197.95 227.632L186.415 234.287L174.881 240.943L162.993 234.084L180.466 223.994L197.939 213.904L215.412 223.994L232.896 234.084Z" fill="#7D8CB5"/>
<path fill-rule="evenodd" clip-rule="evenodd" d="M163.004 234.084L174.892 240.943V267.575L186.426 274.23L197.961 280.886V294.603L180.488 284.513L163.015 274.423V234.084" fill="#B2BFE8"/>
<path fill-rule="evenodd" clip-rule="evenodd" d="M209.131 274.444L197.95 280.896V294.614L209.131 288.162V274.444Z" fill="#24386C"/>
<path fill-rule="evenodd" clip-rule="evenodd" d="M197.95 254.264L186.769 247.812L197.95 241.36L209.132 247.812L197.95 254.264Z" fill="#7D8CB5"/>
<path fill-rule="evenodd" clip-rule="evenodd" d="M186.769 247.812L197.95 254.264V267.179L186.769 260.727V247.812Z" fill="#B2BFE8"/>
<path fill-rule="evenodd" clip-rule="evenodd" d="M197.95 254.264L209.131 247.812V260.716L197.95 267.168V254.264Z" fill="#24386C"/>
<path fill-rule="evenodd" clip-rule="evenodd" d="M209.132 288.162L221.019 294.614V240.943L209.485 234.287L197.95 227.632L186.416 234.287L174.881 240.943V267.575L186.416 274.23L197.95 280.886L209.132 274.434V288.162ZM209.132 260.716L197.95 267.168L186.769 260.716V247.812L197.95 241.36L209.132 247.812V260.716Z" fill="#C91540"/>
<path d="M197.426 280.896V267.179L186.309 260.78L186.041 274.284L197.426 280.896Z" fill="url(#paint2_linear_1013_5906)"/>
<path d="M188.459 194.975H188.481V188.555H189.251V196.131H188.288L183.773 189.647H183.751V196.131H182.981V188.555H183.944L188.459 194.975Z" fill="#24386C"/>
<path d="M191.541 193.82C191.562 194.066 191.626 194.301 191.723 194.526C191.819 194.751 191.958 194.933 192.119 195.104C192.279 195.264 192.472 195.393 192.686 195.489C192.9 195.585 193.135 195.628 193.381 195.628C193.756 195.628 194.087 195.542 194.366 195.361C194.644 195.179 194.847 194.986 194.986 194.751L195.532 195.2C195.232 195.575 194.901 195.853 194.548 196.013C194.194 196.174 193.799 196.259 193.392 196.259C193.017 196.259 192.675 196.195 192.365 196.067C192.044 195.938 191.776 195.756 191.541 195.51C191.316 195.275 191.134 194.997 191.006 194.676C190.877 194.355 190.813 194.002 190.813 193.627C190.813 193.253 190.877 192.9 191.006 192.579C191.134 192.258 191.316 191.979 191.541 191.744C191.766 191.509 192.033 191.327 192.343 191.188C192.654 191.059 192.985 190.995 193.338 190.995C193.713 190.995 194.055 191.059 194.355 191.198C194.655 191.337 194.911 191.509 195.115 191.733C195.318 191.958 195.468 192.225 195.585 192.525C195.692 192.825 195.746 193.156 195.746 193.499V193.82H191.541ZM194.943 193.242C194.943 192.761 194.804 192.375 194.515 192.086C194.227 191.787 193.831 191.637 193.317 191.637C193.092 191.637 192.868 191.68 192.654 191.765C192.44 191.851 192.247 191.979 192.087 192.118C191.926 192.268 191.798 192.439 191.701 192.632C191.605 192.825 191.562 193.028 191.562 193.231H194.943V193.242Z" fill="#24386C"/>
<path d="M200.614 196.131C200.604 195.992 200.593 195.863 200.593 195.724C200.593 195.596 200.582 195.457 200.582 195.318H200.561C200.486 195.457 200.379 195.575 200.261 195.692C200.144 195.81 200.005 195.906 199.855 195.981C199.705 196.067 199.544 196.131 199.373 196.174C199.202 196.217 199.041 196.238 198.881 196.238C198.239 196.238 197.768 196.067 197.458 195.735C197.148 195.393 196.998 194.911 196.998 194.28V191.102H197.704V193.873C197.704 194.151 197.725 194.398 197.768 194.612C197.811 194.826 197.886 195.007 197.993 195.147C198.1 195.286 198.239 195.403 198.41 195.478C198.581 195.553 198.806 195.596 199.063 195.596C199.095 195.596 199.202 195.585 199.363 195.553C199.523 195.521 199.705 195.446 199.887 195.318C200.069 195.189 200.229 194.997 200.379 194.74C200.518 194.483 200.593 194.13 200.593 193.67V191.102H201.299V195.007C201.299 195.147 201.299 195.318 201.321 195.521C201.331 195.724 201.342 195.928 201.353 196.11H200.614V196.131Z" fill="#24386C"/>
<path d="M203.022 192.686C203.022 192.461 203.022 192.236 203.011 192.011C203 191.787 202.99 191.487 202.979 191.123H203.675V192.054H203.696C203.749 191.915 203.814 191.787 203.91 191.658C204.006 191.53 204.113 191.423 204.252 191.316C204.381 191.22 204.541 191.134 204.712 191.081C204.884 191.027 205.087 190.995 205.301 190.995C205.504 190.995 205.675 191.016 205.825 191.059L205.686 191.755C205.59 191.723 205.461 191.701 205.28 191.701C205.012 191.701 204.777 191.755 204.584 191.851C204.391 191.958 204.231 192.086 204.103 192.247C203.974 192.407 203.878 192.579 203.824 192.771C203.76 192.953 203.739 193.135 203.739 193.306V196.131H203.033V192.686H203.022Z" fill="#24386C"/>
<path d="M209.709 193.06V192.932C209.709 192.065 209.281 191.637 208.425 191.637C207.837 191.637 207.334 191.83 206.895 192.225L206.467 191.723C206.938 191.241 207.644 190.995 208.586 190.995C208.832 190.995 209.067 191.027 209.292 191.102C209.517 191.177 209.709 191.284 209.87 191.434C210.03 191.583 210.169 191.765 210.266 191.979C210.362 192.204 210.415 192.461 210.415 192.771V195.007C210.415 195.2 210.426 195.403 210.437 195.617C210.458 195.831 210.48 196.003 210.501 196.131H209.816C209.795 196.013 209.784 195.874 209.773 195.735C209.763 195.596 209.763 195.457 209.763 195.318H209.741C209.538 195.649 209.292 195.896 209.003 196.035C208.714 196.174 208.382 196.259 207.976 196.259C207.751 196.259 207.537 196.227 207.334 196.174C207.131 196.11 206.938 196.024 206.777 195.896C206.617 195.767 206.489 195.617 206.392 195.435C206.296 195.254 206.242 195.04 206.242 194.793C206.242 194.387 206.349 194.066 206.553 193.841C206.767 193.606 207.024 193.435 207.345 193.317C207.666 193.199 207.997 193.135 208.361 193.103C208.725 193.071 209.046 193.06 209.345 193.06H209.709ZM209.345 193.638C209.164 193.638 208.939 193.649 208.682 193.67C208.425 193.691 208.158 193.734 207.912 193.798C207.666 193.863 207.452 193.97 207.28 194.109C207.109 194.248 207.024 194.451 207.024 194.697C207.024 194.858 207.056 195.007 207.12 195.125C207.184 195.243 207.28 195.339 207.387 195.414C207.494 195.489 207.623 195.542 207.762 195.575C207.901 195.607 208.04 195.617 208.19 195.617C208.447 195.617 208.671 195.575 208.853 195.489C209.035 195.403 209.206 195.286 209.335 195.136C209.463 194.986 209.559 194.815 209.613 194.622C209.677 194.43 209.699 194.216 209.699 193.991V193.627H209.345V193.638Z" fill="#24386C"/>
<path d="M212.919 196.131H212.213V188.042H212.919V196.131Z" fill="#24386C"/>
<path d="M179.781 208.265H183.837V208.971H179.011V201.395H183.708V202.102H179.781V204.68H183.451V205.386H179.781V208.265Z" fill="#24386C"/>
<path d="M185.774 203.963C185.784 204.102 185.795 204.231 185.795 204.37C185.795 204.498 185.795 204.637 185.795 204.777H185.816C185.891 204.637 185.998 204.52 186.116 204.402C186.234 204.284 186.373 204.188 186.523 204.102C186.672 204.017 186.833 203.953 186.993 203.91C187.165 203.867 187.325 203.835 187.496 203.835C188.138 203.835 188.609 204.006 188.919 204.338C189.23 204.68 189.38 205.162 189.38 205.793V208.971H188.673V206.2C188.673 205.643 188.577 205.215 188.384 204.916C188.192 204.616 187.839 204.466 187.314 204.466C187.282 204.466 187.175 204.477 187.015 204.509C186.854 204.541 186.672 204.616 186.491 204.744C186.309 204.873 186.148 205.065 185.998 205.322C185.859 205.579 185.784 205.932 185.784 206.392V208.96H185.078V205.055C185.078 204.916 185.067 204.744 185.057 204.541C185.046 204.338 185.035 204.135 185.014 203.953H185.774V203.963Z" fill="#24386C"/>
<path d="M194.697 205.14C194.58 204.959 194.408 204.798 194.184 204.67C193.97 204.541 193.723 204.477 193.445 204.477C193.156 204.466 192.889 204.52 192.654 204.616C192.418 204.712 192.226 204.852 192.065 205.033C191.905 205.215 191.776 205.429 191.69 205.665C191.605 205.911 191.562 206.178 191.562 206.467C191.562 206.756 191.605 207.013 191.69 207.27C191.776 207.516 191.905 207.73 192.065 207.901C192.226 208.083 192.429 208.222 192.654 208.318C192.889 208.415 193.146 208.468 193.445 208.457C193.723 208.457 193.97 208.393 194.184 208.265C194.398 208.136 194.569 207.976 194.697 207.794L195.275 208.233C195.029 208.522 194.74 208.736 194.43 208.875C194.119 209.014 193.788 209.089 193.445 209.099C193.039 209.11 192.675 209.046 192.343 208.918C192.011 208.789 191.733 208.607 191.498 208.372C191.263 208.136 191.091 207.858 190.963 207.527C190.845 207.206 190.781 206.852 190.781 206.467C190.781 206.082 190.845 205.74 190.963 205.408C191.081 205.087 191.263 204.809 191.498 204.573C191.733 204.338 192.011 204.156 192.343 204.017C192.675 203.889 193.039 203.824 193.445 203.835C193.788 203.846 194.119 203.921 194.43 204.06C194.74 204.199 195.029 204.413 195.275 204.702L194.697 205.14Z" fill="#24386C"/>
<path d="M201.267 206.467C201.267 206.842 201.203 207.195 201.075 207.516C200.946 207.837 200.764 208.115 200.518 208.35C200.283 208.586 200.005 208.768 199.673 208.907C199.352 209.035 198.988 209.099 198.603 209.099C198.218 209.099 197.865 209.035 197.533 208.907C197.212 208.778 196.934 208.596 196.698 208.35C196.463 208.115 196.281 207.837 196.142 207.516C196.013 207.195 195.949 206.842 195.949 206.467C195.949 206.093 196.013 205.74 196.142 205.419C196.27 205.098 196.452 204.819 196.698 204.584C196.934 204.349 197.212 204.167 197.533 204.028C197.854 203.899 198.218 203.835 198.603 203.835C198.999 203.835 199.352 203.899 199.673 204.028C199.994 204.156 200.283 204.349 200.518 204.584C200.754 204.819 200.935 205.098 201.075 205.419C201.203 205.74 201.267 206.093 201.267 206.467ZM200.497 206.467C200.497 206.189 200.454 205.932 200.368 205.686C200.283 205.44 200.154 205.237 199.983 205.055C199.823 204.873 199.619 204.734 199.395 204.637C199.17 204.541 198.902 204.477 198.603 204.477C198.303 204.477 198.046 204.53 197.822 204.637C197.586 204.744 197.394 204.884 197.233 205.055C197.073 205.237 196.944 205.44 196.859 205.686C196.773 205.932 196.73 206.189 196.73 206.467C196.73 206.745 196.773 207.002 196.859 207.248C196.944 207.494 197.073 207.698 197.233 207.88C197.394 208.061 197.586 208.201 197.822 208.297C198.057 208.404 198.314 208.457 198.603 208.457C198.892 208.457 199.159 208.404 199.395 208.297C199.63 208.19 199.823 208.051 199.983 207.88C200.144 207.698 200.272 207.494 200.368 207.248C200.454 207.013 200.497 206.745 200.497 206.467Z" fill="#24386C"/>
<path d="M207.548 208.971H206.842V208.136H206.82C206.702 208.308 206.574 208.457 206.414 208.575C206.253 208.693 206.093 208.8 205.921 208.875C205.75 208.95 205.568 209.014 205.386 209.046C205.204 209.078 205.033 209.099 204.873 209.099C204.477 209.099 204.124 209.035 203.792 208.907C203.471 208.778 203.193 208.597 202.957 208.35C202.722 208.115 202.54 207.837 202.401 207.516C202.273 207.195 202.208 206.842 202.208 206.467C202.208 206.093 202.273 205.74 202.401 205.419C202.53 205.098 202.711 204.819 202.957 204.584C203.193 204.349 203.471 204.167 203.792 204.028C204.113 203.899 204.477 203.835 204.873 203.835C205.033 203.835 205.204 203.856 205.386 203.889C205.568 203.921 205.739 203.985 205.921 204.06C206.103 204.135 206.253 204.242 206.414 204.359C206.574 204.477 206.702 204.627 206.82 204.798H206.842V200.882H207.548V208.971ZM202.979 206.467C202.979 206.745 203.022 207.002 203.107 207.248C203.193 207.494 203.321 207.698 203.492 207.88C203.653 208.062 203.856 208.201 204.081 208.297C204.306 208.393 204.573 208.457 204.873 208.457C205.162 208.457 205.419 208.404 205.665 208.297C205.911 208.19 206.125 208.051 206.307 207.88C206.488 207.698 206.628 207.494 206.724 207.248C206.82 207.002 206.874 206.745 206.874 206.467C206.874 206.189 206.82 205.932 206.724 205.686C206.628 205.44 206.488 205.237 206.307 205.055C206.125 204.873 205.911 204.734 205.665 204.638C205.419 204.531 205.151 204.477 204.873 204.477C204.584 204.477 204.316 204.531 204.081 204.638C203.846 204.745 203.653 204.884 203.492 205.055C203.332 205.237 203.204 205.44 203.107 205.686C203.011 205.932 202.979 206.189 202.979 206.467Z" fill="#24386C"/>
<path d="M209.581 206.66C209.602 206.906 209.666 207.141 209.763 207.366C209.859 207.591 209.998 207.773 210.159 207.944C210.319 208.115 210.512 208.233 210.726 208.329C210.94 208.425 211.175 208.468 211.421 208.468C211.796 208.468 212.127 208.382 212.406 208.201C212.684 208.019 212.887 207.826 213.026 207.591L213.572 208.04C213.272 208.415 212.941 208.693 212.577 208.853C212.213 209.014 211.828 209.099 211.421 209.099C211.047 209.099 210.704 209.035 210.394 208.907C210.073 208.778 209.806 208.596 209.581 208.35C209.356 208.115 209.174 207.837 209.046 207.516C208.917 207.195 208.843 206.842 208.843 206.467C208.843 206.093 208.907 205.74 209.035 205.419C209.164 205.098 209.345 204.819 209.57 204.584C209.795 204.349 210.062 204.167 210.373 204.028C210.683 203.899 211.015 203.835 211.368 203.835C211.742 203.835 212.085 203.899 212.384 204.038C212.684 204.177 212.93 204.349 213.144 204.573C213.347 204.798 213.497 205.065 213.604 205.365C213.711 205.665 213.765 205.996 213.765 206.339V206.66H209.581ZM212.983 206.082C212.983 205.6 212.844 205.215 212.555 204.926C212.267 204.627 211.871 204.477 211.357 204.477C211.132 204.477 210.908 204.52 210.694 204.605C210.48 204.691 210.287 204.819 210.127 204.958C209.966 205.108 209.838 205.279 209.741 205.472C209.645 205.665 209.602 205.868 209.602 206.071H212.983V206.082Z" fill="#24386C"/>
<path d="M215.113 205.526C215.113 205.301 215.113 205.076 215.102 204.851C215.091 204.627 215.081 204.327 215.07 203.963H215.766V204.894H215.787C215.84 204.755 215.905 204.627 216.001 204.498C216.097 204.37 216.204 204.263 216.343 204.156C216.472 204.06 216.632 203.974 216.803 203.921C216.975 203.867 217.178 203.835 217.392 203.835C217.595 203.835 217.766 203.856 217.916 203.899L217.777 204.595C217.681 204.563 217.552 204.541 217.371 204.541C217.103 204.541 216.868 204.595 216.675 204.691C216.482 204.798 216.322 204.926 216.194 205.087C216.065 205.247 215.969 205.419 215.915 205.611C215.851 205.793 215.83 205.975 215.83 206.146V208.971H215.124V205.526H215.113Z" fill="#24386C"/>
<path fill-rule="evenodd" clip-rule="evenodd" d="M331.604 270.614H255.837C249.877 270.614 245.041 265.777 245.041 259.817C245.041 253.857 249.877 249.021 255.837 249.021H331.604C337.564 249.021 342.4 253.857 342.4 259.817C342.4 265.777 337.574 270.614 331.604 270.614Z" fill="white" stroke="#B2BFE8" stroke-width="1.07" stroke-miterlimit="10"/>
<path fill-rule="evenodd" clip-rule="evenodd" d="M139.004 270.614H63.237C57.2771 270.614 52.4407 265.777 52.4407 259.817C52.4407 253.857 57.2771 249.021 63.237 249.021H139.004C144.964 249.021 149.8 253.857 149.8 259.817C149.8 265.777 144.974 270.614 139.004 270.614Z" fill="white" stroke="#B2BFE8" stroke-width="1.07" stroke-miterlimit="10"/>
<path d="M72.8883 263.413H72.1179V255.837H72.8883V263.413Z" fill="#24386C"/>
<path d="M77.2754 259.047H75.8309V262C75.8309 262.182 75.8523 262.332 75.8844 262.45C75.9165 262.567 75.97 262.653 76.0342 262.717C76.0984 262.781 76.1733 262.824 76.2589 262.846C76.3445 262.867 76.4408 262.888 76.5585 262.888C76.6762 262.888 76.8046 262.867 76.933 262.835C77.0614 262.803 77.1791 262.749 77.2861 262.696L77.3182 263.348C77.0507 263.466 76.7404 263.53 76.3659 263.53C76.2268 263.53 76.0877 263.509 75.9486 263.477C75.8095 263.445 75.6704 263.37 75.542 263.274C75.4243 263.177 75.3173 263.038 75.2424 262.867C75.1675 262.696 75.1247 262.471 75.1247 262.193V259.036H74.0654V258.394H75.1247V256.982H75.8309V258.394H77.2754V259.047Z" fill="#24386C"/>
<path d="M78.7305 261.102C78.7519 261.348 78.8161 261.583 78.9124 261.808C79.0087 262.032 79.1478 262.214 79.3083 262.386C79.4688 262.557 79.6614 262.674 79.8754 262.771C80.0894 262.867 80.3248 262.91 80.5709 262.91C80.9454 262.91 81.2771 262.824 81.5553 262.642C81.8335 262.46 82.0368 262.268 82.1759 262.032L82.7216 262.482C82.422 262.856 82.0903 263.135 81.7265 263.295C81.3627 263.456 80.9775 263.541 80.5709 263.541C80.1964 263.541 79.854 263.477 79.5437 263.349C79.2227 263.22 78.9552 263.038 78.7305 262.792C78.5058 262.557 78.3239 262.279 78.1955 261.958C78.0671 261.637 77.9922 261.283 77.9922 260.909C77.9922 260.534 78.0564 260.181 78.1848 259.86C78.3132 259.539 78.4951 259.261 78.7198 259.026C78.9445 258.79 79.212 258.608 79.5223 258.469C79.8326 258.341 80.1643 258.277 80.5174 258.277C80.8919 258.277 81.2343 258.341 81.5339 258.48C81.8335 258.619 82.0796 258.79 82.2936 259.015C82.4969 259.24 82.6467 259.507 82.7537 259.807C82.8607 260.106 82.9142 260.438 82.9142 260.781V261.102H78.7305ZM82.1331 260.524C82.1331 260.042 81.994 259.657 81.7051 259.368C81.4162 259.069 81.0203 258.919 80.5067 258.919C80.282 258.919 80.0573 258.962 79.8433 259.047C79.6293 259.133 79.4367 259.261 79.2762 259.4C79.1157 259.55 78.9873 259.721 78.891 259.914C78.7947 260.106 78.7519 260.31 78.7519 260.513H82.1331V260.524Z" fill="#24386C"/>
<path d="M84.1875 259.529C84.1875 259.347 84.1768 259.154 84.1661 258.972C84.1554 258.79 84.1447 258.598 84.1233 258.416H84.883V259.176H84.9044C85.0756 258.887 85.311 258.662 85.6213 258.512C85.9316 258.362 86.2205 258.287 86.5201 258.287C86.6592 258.287 86.7983 258.298 86.9588 258.33C87.1193 258.362 87.2584 258.416 87.4082 258.48C87.5473 258.555 87.6864 258.662 87.8148 258.801C87.9432 258.94 88.0395 259.111 88.1251 259.325C88.2642 259.004 88.4889 258.748 88.7992 258.566C89.1095 258.384 89.4305 258.287 89.7729 258.287C90.4149 258.287 90.8857 258.459 91.196 258.79C91.5063 259.133 91.6561 259.614 91.6561 260.246V263.423H90.9499V260.502C90.9499 259.999 90.8643 259.604 90.6824 259.336C90.5005 259.069 90.1688 258.929 89.6873 258.929C89.4198 258.929 89.2058 258.983 89.0239 259.09C88.842 259.197 88.7029 259.325 88.5852 259.497C88.4675 259.668 88.3926 259.86 88.3498 260.074C88.2963 260.288 88.2749 260.524 88.2749 260.748V263.413H87.5687V260.492C87.5687 259.989 87.4831 259.593 87.3012 259.325C87.1193 259.058 86.7876 258.919 86.3061 258.919C86.2633 258.919 86.167 258.929 86.0065 258.962C85.8567 258.994 85.6962 259.069 85.5357 259.197C85.3752 259.325 85.2254 259.518 85.0863 259.775C84.9579 260.032 84.883 260.385 84.883 260.845V263.413H84.1768V259.529H84.1875Z" fill="#24386C"/>
<path d="M98.7396 262.257H98.761L101.243 255.837H102.078L99.1248 263.413H98.3544L95.4761 255.837H96.3321L98.7396 262.257Z" fill="#24386C"/>
<path d="M103.308 261.102C103.33 261.348 103.394 261.583 103.49 261.808C103.587 262.032 103.726 262.214 103.886 262.386C104.047 262.557 104.239 262.674 104.453 262.771C104.667 262.867 104.903 262.91 105.149 262.91C105.523 262.91 105.855 262.824 106.133 262.642C106.411 262.46 106.615 262.268 106.754 262.032L107.299 262.482C107 262.856 106.668 263.135 106.304 263.295C105.941 263.456 105.555 263.541 105.149 263.541C104.774 263.541 104.432 263.477 104.122 263.349C103.801 263.22 103.533 263.038 103.308 262.792C103.084 262.557 102.902 262.279 102.773 261.958C102.645 261.637 102.57 261.283 102.57 260.909C102.57 260.534 102.634 260.181 102.763 259.86C102.891 259.539 103.073 259.261 103.298 259.026C103.522 258.79 103.79 258.608 104.1 258.469C104.41 258.341 104.742 258.277 105.095 258.277C105.47 258.277 105.812 258.341 106.112 258.48C106.411 258.619 106.657 258.79 106.871 259.015C107.075 259.24 107.225 259.507 107.332 259.807C107.439 260.106 107.492 260.438 107.492 260.781V261.102H103.308ZM106.711 260.524C106.711 260.042 106.572 259.657 106.283 259.368C105.994 259.069 105.598 258.919 105.085 258.919C104.86 258.919 104.635 258.962 104.421 259.047C104.207 259.133 104.015 259.261 103.854 259.4C103.694 259.55 103.565 259.721 103.469 259.914C103.373 260.106 103.33 260.31 103.33 260.513H106.711V260.524Z" fill="#24386C"/>
<path d="M112.414 259.582C112.296 259.4 112.125 259.24 111.911 259.111C111.697 258.983 111.451 258.919 111.162 258.919C110.873 258.908 110.606 258.961 110.381 259.058C110.146 259.154 109.953 259.293 109.782 259.475C109.611 259.657 109.493 259.871 109.407 260.106C109.322 260.352 109.279 260.62 109.279 260.909C109.279 261.198 109.322 261.455 109.407 261.711C109.493 261.957 109.621 262.171 109.782 262.343C109.942 262.525 110.146 262.664 110.381 262.76C110.616 262.856 110.873 262.91 111.162 262.899C111.44 262.899 111.686 262.835 111.911 262.706C112.125 262.578 112.296 262.418 112.414 262.236L112.992 262.674C112.746 262.963 112.457 263.177 112.146 263.316C111.836 263.455 111.505 263.53 111.162 263.541C110.756 263.552 110.392 263.488 110.06 263.359C109.728 263.231 109.45 263.049 109.215 262.813C108.979 262.578 108.808 262.3 108.68 261.968C108.562 261.647 108.498 261.294 108.498 260.909C108.498 260.524 108.562 260.181 108.68 259.85C108.797 259.529 108.979 259.25 109.215 259.015C109.45 258.78 109.728 258.598 110.06 258.459C110.392 258.33 110.756 258.266 111.162 258.277C111.505 258.287 111.836 258.362 112.146 258.501C112.457 258.64 112.746 258.854 112.992 259.143L112.414 259.582Z" fill="#24386C"/>
<path d="M116.512 259.047H115.068V262C115.068 262.182 115.089 262.332 115.121 262.45C115.153 262.567 115.207 262.653 115.271 262.717C115.335 262.781 115.41 262.824 115.496 262.846C115.581 262.867 115.688 262.888 115.795 262.888C115.913 262.888 116.041 262.867 116.17 262.835C116.298 262.803 116.416 262.749 116.523 262.696L116.555 263.348C116.288 263.466 115.977 263.53 115.603 263.53C115.464 263.53 115.325 263.509 115.175 263.477C115.025 263.445 114.897 263.37 114.768 263.274C114.65 263.177 114.543 263.038 114.469 262.867C114.394 262.696 114.351 262.471 114.351 262.193V259.036H113.292V258.394H114.351V256.982H115.057V258.394H116.502V259.047H116.512Z" fill="#24386C"/>
<path d="M122.536 260.909C122.536 261.283 122.472 261.637 122.344 261.958C122.215 262.279 122.033 262.557 121.787 262.792C121.552 263.028 121.274 263.209 120.942 263.349C120.621 263.477 120.257 263.541 119.872 263.541C119.487 263.541 119.134 263.477 118.802 263.349C118.481 263.22 118.203 263.038 117.967 262.792C117.732 262.557 117.55 262.279 117.411 261.958C117.282 261.637 117.218 261.283 117.218 260.909C117.218 260.534 117.282 260.181 117.411 259.86C117.539 259.539 117.721 259.261 117.967 259.026C118.203 258.79 118.481 258.608 118.802 258.469C119.123 258.341 119.487 258.277 119.872 258.277C120.268 258.277 120.621 258.341 120.942 258.469C121.263 258.598 121.552 258.79 121.787 259.026C122.023 259.261 122.204 259.539 122.344 259.86C122.472 260.192 122.536 260.534 122.536 260.909ZM121.766 260.909C121.766 260.631 121.723 260.374 121.637 260.128C121.552 259.882 121.423 259.678 121.252 259.497C121.092 259.315 120.888 259.176 120.664 259.079C120.439 258.983 120.171 258.919 119.872 258.919C119.572 258.919 119.315 258.972 119.091 259.079C118.855 259.186 118.663 259.325 118.502 259.497C118.342 259.678 118.213 259.882 118.128 260.128C118.042 260.374 117.999 260.631 117.999 260.909C117.999 261.187 118.042 261.444 118.128 261.69C118.213 261.936 118.342 262.139 118.502 262.321C118.663 262.503 118.855 262.642 119.091 262.739C119.326 262.846 119.583 262.899 119.872 262.899C120.161 262.899 120.428 262.846 120.664 262.739C120.899 262.632 121.092 262.493 121.252 262.321C121.413 262.139 121.541 261.936 121.637 261.69C121.723 261.455 121.766 261.187 121.766 260.909Z" fill="#24386C"/>
<path d="M123.895 259.967C123.895 259.743 123.895 259.518 123.874 259.293C123.863 259.069 123.853 258.769 123.853 258.405H124.548V259.336H124.569C124.623 259.197 124.687 259.069 124.783 258.94C124.88 258.812 124.987 258.705 125.115 258.598C125.244 258.501 125.404 258.416 125.575 258.362C125.746 258.298 125.95 258.277 126.164 258.277C126.367 258.277 126.538 258.298 126.688 258.341L126.549 259.036C126.453 259.004 126.324 258.983 126.142 258.983C125.875 258.983 125.639 259.036 125.447 259.133C125.254 259.24 125.094 259.368 124.965 259.529C124.837 259.689 124.741 259.86 124.687 260.053C124.623 260.235 124.602 260.417 124.602 260.588V263.413H123.895V259.967Z" fill="#24386C"/>
<path d="M130.026 259.604C129.919 259.4 129.78 259.229 129.598 259.111C129.416 258.994 129.202 258.929 128.946 258.929C128.828 258.929 128.7 258.94 128.582 258.972C128.453 259.004 128.346 259.047 128.239 259.101C128.143 259.165 128.058 259.24 128.004 259.336C127.94 259.432 127.918 259.539 127.918 259.678C127.918 259.914 128.004 260.085 128.165 260.192C128.325 260.299 128.571 260.395 128.903 260.47L129.62 260.641C129.973 260.716 130.262 260.877 130.486 261.123C130.722 261.358 130.84 261.658 130.84 262.011C130.84 262.279 130.786 262.514 130.668 262.707C130.561 262.899 130.412 263.06 130.23 263.188C130.048 263.316 129.844 263.402 129.609 263.456C129.374 263.509 129.138 263.541 128.892 263.541C128.507 263.541 128.154 263.466 127.822 263.316C127.49 263.167 127.202 262.921 126.977 262.557L127.587 262.139C127.726 262.364 127.908 262.546 128.122 262.685C128.336 262.824 128.603 262.888 128.892 262.888C129.031 262.888 129.181 262.867 129.32 262.846C129.459 262.814 129.588 262.76 129.695 262.696C129.802 262.632 129.898 262.546 129.962 262.428C130.026 262.321 130.069 262.193 130.069 262.054C130.069 261.808 129.973 261.626 129.791 261.519C129.609 261.412 129.384 261.316 129.117 261.251L128.432 261.091C128.346 261.069 128.229 261.037 128.079 260.984C127.929 260.93 127.79 260.855 127.651 260.759C127.512 260.663 127.394 260.534 127.298 260.363C127.202 260.203 127.148 260.01 127.148 259.775C127.148 259.518 127.202 259.293 127.309 259.101C127.416 258.908 127.555 258.748 127.726 258.63C127.897 258.512 128.1 258.416 128.314 258.362C128.539 258.298 128.764 258.277 128.999 258.277C129.352 258.277 129.673 258.341 129.973 258.48C130.272 258.619 130.508 258.844 130.668 259.176L130.026 259.604Z" fill="#24386C"/>
<path d="M253.301 263.412H252.531V255.837H254.863C255.634 255.837 256.244 256.008 256.693 256.34C257.142 256.672 257.356 257.185 257.356 257.859C257.356 258.384 257.185 258.833 256.854 259.197C256.522 259.561 256.04 259.764 255.42 259.817L257.603 263.412H256.661L254.585 259.892H253.301V263.412ZM253.301 259.186H254.671C255.013 259.186 255.302 259.154 255.548 259.079C255.784 259.004 255.976 258.908 256.126 258.801C256.265 258.683 256.372 258.544 256.436 258.384C256.5 258.223 256.533 258.052 256.533 257.87C256.533 257.688 256.5 257.517 256.436 257.356C256.372 257.196 256.265 257.057 256.126 256.939C255.987 256.821 255.794 256.725 255.548 256.65C255.313 256.586 255.013 256.554 254.671 256.554H253.301V259.186Z" fill="#24386C"/>
<path d="M259.111 261.101C259.133 261.348 259.197 261.583 259.293 261.808C259.389 262.032 259.528 262.214 259.689 262.385C259.849 262.557 260.042 262.674 260.256 262.771C260.47 262.867 260.705 262.91 260.952 262.91C261.326 262.91 261.658 262.824 261.936 262.642C262.214 262.46 262.417 262.268 262.557 262.032L263.102 262.482C262.803 262.856 262.471 263.134 262.107 263.295C261.743 263.455 261.358 263.541 260.952 263.541C260.577 263.541 260.235 263.477 259.924 263.348C259.603 263.22 259.336 263.038 259.111 262.792C258.886 262.557 258.705 262.278 258.576 261.957C258.448 261.636 258.373 261.283 258.373 260.909C258.373 260.534 258.437 260.181 258.565 259.86C258.694 259.539 258.876 259.261 259.1 259.026C259.325 258.79 259.593 258.608 259.903 258.469C260.213 258.341 260.545 258.277 260.898 258.277C261.273 258.277 261.615 258.341 261.915 258.48C262.214 258.619 262.46 258.79 262.674 259.015C262.878 259.24 263.027 259.507 263.134 259.807C263.241 260.106 263.295 260.438 263.295 260.78V261.101H259.111ZM262.514 260.524C262.514 260.042 262.375 259.657 262.086 259.368C261.797 259.068 261.401 258.919 260.887 258.919C260.663 258.919 260.438 258.961 260.224 259.047C260.01 259.133 259.817 259.261 259.657 259.4C259.496 259.55 259.368 259.721 259.272 259.914C259.175 260.106 259.132 260.31 259.132 260.513H262.514V260.524Z" fill="#24386C"/>
<path d="M268.217 259.582C268.099 259.4 267.928 259.24 267.714 259.111C267.5 258.983 267.254 258.919 266.965 258.919C266.676 258.908 266.409 258.961 266.184 259.058C265.949 259.154 265.756 259.293 265.585 259.475C265.414 259.657 265.296 259.871 265.21 260.106C265.125 260.352 265.082 260.62 265.082 260.909C265.082 261.198 265.125 261.454 265.21 261.711C265.296 261.957 265.424 262.171 265.585 262.343C265.745 262.524 265.949 262.664 266.184 262.76C266.419 262.856 266.676 262.91 266.965 262.899C267.243 262.899 267.489 262.835 267.714 262.706C267.928 262.578 268.099 262.417 268.217 262.236L268.795 262.674C268.549 262.963 268.26 263.177 267.949 263.316C267.639 263.455 267.307 263.53 266.965 263.541C266.558 263.552 266.195 263.487 265.863 263.359C265.531 263.231 265.253 263.049 265.018 262.813C264.782 262.578 264.611 262.3 264.483 261.968C264.365 261.647 264.301 261.294 264.301 260.909C264.301 260.524 264.365 260.181 264.483 259.849C264.6 259.528 264.782 259.25 265.018 259.015C265.253 258.779 265.531 258.598 265.863 258.458C266.195 258.33 266.558 258.266 266.965 258.277C267.307 258.287 267.639 258.362 267.949 258.501C268.26 258.64 268.549 258.854 268.795 259.143L268.217 259.582Z" fill="#24386C"/>
<path d="M274.787 260.909C274.787 261.283 274.723 261.636 274.584 261.957C274.455 262.278 274.273 262.557 274.038 262.792C273.802 263.027 273.524 263.209 273.193 263.348C272.872 263.477 272.508 263.541 272.123 263.541C271.737 263.541 271.384 263.477 271.053 263.348C270.732 263.22 270.443 263.038 270.207 262.792C269.972 262.557 269.79 262.278 269.662 261.957C269.533 261.636 269.458 261.283 269.458 260.909C269.458 260.534 269.522 260.181 269.662 259.86C269.79 259.539 269.972 259.261 270.207 259.026C270.443 258.79 270.721 258.608 271.053 258.469C271.374 258.341 271.727 258.277 272.123 258.277C272.518 258.277 272.872 258.341 273.193 258.469C273.514 258.598 273.792 258.79 274.038 259.026C274.273 259.261 274.455 259.539 274.584 259.86C274.723 260.192 274.787 260.534 274.787 260.909ZM274.016 260.909C274.016 260.631 273.974 260.374 273.877 260.128C273.792 259.882 273.663 259.678 273.503 259.496C273.342 259.315 273.139 259.175 272.904 259.079C272.668 258.972 272.411 258.919 272.123 258.919C271.834 258.919 271.566 258.972 271.331 259.079C271.095 259.186 270.903 259.325 270.742 259.496C270.582 259.678 270.453 259.882 270.368 260.128C270.282 260.374 270.239 260.631 270.239 260.909C270.239 261.187 270.282 261.444 270.368 261.69C270.453 261.936 270.582 262.139 270.742 262.321C270.903 262.503 271.095 262.642 271.331 262.739C271.566 262.835 271.823 262.899 272.123 262.899C272.422 262.899 272.679 262.846 272.904 262.739C273.139 262.632 273.332 262.492 273.503 262.321C273.663 262.139 273.792 261.936 273.877 261.69C273.974 261.455 274.016 261.187 274.016 260.909Z" fill="#24386C"/>
<path d="M276.071 259.529C276.071 259.347 276.071 259.154 276.06 258.972C276.049 258.79 276.038 258.598 276.017 258.416H276.777V259.175H276.798C276.969 258.887 277.205 258.662 277.515 258.512C277.825 258.362 278.125 258.287 278.425 258.287C278.564 258.287 278.703 258.298 278.853 258.33C279.002 258.362 279.152 258.416 279.302 258.48C279.441 258.555 279.58 258.662 279.709 258.801C279.837 258.94 279.933 259.111 280.019 259.325C280.158 259.004 280.393 258.747 280.704 258.566C281.014 258.384 281.335 258.287 281.667 258.287C282.309 258.287 282.78 258.459 283.09 258.79C283.4 259.133 283.55 259.614 283.55 260.245V263.423H282.844V260.502C282.844 259.999 282.758 259.603 282.576 259.336C282.394 259.068 282.063 258.929 281.581 258.929C281.314 258.929 281.1 258.983 280.918 259.09C280.736 259.197 280.597 259.325 280.479 259.496C280.361 259.668 280.286 259.86 280.233 260.074C280.179 260.288 280.158 260.524 280.158 260.748V263.413H279.452V260.492C279.452 259.989 279.366 259.593 279.184 259.325C279.002 259.058 278.671 258.919 278.189 258.919C278.146 258.919 278.05 258.929 277.89 258.961C277.74 258.994 277.579 259.068 277.408 259.197C277.237 259.325 277.098 259.518 276.959 259.775C276.83 260.031 276.766 260.385 276.766 260.845V263.413H276.06V259.529H276.071Z" fill="#24386C"/>
<path d="M285.187 259.529C285.187 259.347 285.176 259.154 285.166 258.972C285.155 258.79 285.144 258.598 285.123 258.416H285.882V259.175H285.904C286.075 258.887 286.31 258.662 286.621 258.512C286.931 258.362 287.22 258.287 287.52 258.287C287.659 258.287 287.798 258.298 287.958 258.33C288.119 258.362 288.258 258.416 288.408 258.48C288.547 258.555 288.686 258.662 288.814 258.801C288.943 258.94 289.039 259.111 289.125 259.325C289.264 259.004 289.488 258.747 289.799 258.566C290.109 258.384 290.43 258.287 290.772 258.287C291.414 258.287 291.885 258.459 292.195 258.79C292.506 259.133 292.656 259.614 292.656 260.245V263.423H291.949V260.502C291.949 259.999 291.864 259.603 291.682 259.336C291.5 259.068 291.168 258.929 290.687 258.929C290.419 258.929 290.205 258.983 290.023 259.09C289.841 259.197 289.702 259.325 289.585 259.496C289.467 259.668 289.392 259.86 289.349 260.074C289.296 260.288 289.274 260.524 289.274 260.748V263.413H288.568V260.492C288.568 259.989 288.483 259.593 288.301 259.325C288.119 259.058 287.787 258.919 287.306 258.919C287.263 258.919 287.167 258.929 287.006 258.961C286.856 258.994 286.696 259.068 286.535 259.197C286.375 259.325 286.225 259.518 286.086 259.775C285.957 260.031 285.882 260.385 285.882 260.845V263.413H285.176V259.529H285.187Z" fill="#24386C"/>
<path d="M294.796 261.101C294.817 261.348 294.881 261.583 294.978 261.808C295.074 262.032 295.213 262.214 295.373 262.385C295.534 262.557 295.727 262.674 295.941 262.771C296.155 262.867 296.39 262.91 296.636 262.91C297.011 262.91 297.342 262.824 297.62 262.642C297.899 262.46 298.102 262.268 298.241 262.032L298.787 262.482C298.487 262.856 298.155 263.134 297.792 263.295C297.428 263.455 297.043 263.541 296.636 263.541C296.262 263.541 295.919 263.477 295.609 263.348C295.288 263.22 295.02 263.038 294.796 262.792C294.571 262.557 294.389 262.278 294.261 261.957C294.132 261.636 294.057 261.283 294.057 260.909C294.057 260.534 294.122 260.181 294.25 259.86C294.378 259.539 294.56 259.261 294.785 259.026C295.01 258.79 295.277 258.608 295.587 258.469C295.898 258.341 296.229 258.277 296.583 258.277C296.957 258.277 297.299 258.341 297.599 258.48C297.899 258.619 298.145 258.79 298.359 259.015C298.562 259.24 298.712 259.507 298.819 259.807C298.926 260.106 298.979 260.438 298.979 260.78V261.101H294.796ZM298.198 260.524C298.198 260.042 298.059 259.657 297.77 259.368C297.481 259.068 297.085 258.919 296.572 258.919C296.347 258.919 296.122 258.961 295.908 259.047C295.694 259.133 295.502 259.261 295.341 259.4C295.181 259.55 295.052 259.721 294.956 259.914C294.86 260.106 294.817 260.31 294.817 260.513H298.198V260.524Z" fill="#24386C"/>
<path d="M300.927 258.416C300.938 258.555 300.948 258.683 300.948 258.822C300.948 258.951 300.948 259.09 300.948 259.229H300.97C301.045 259.09 301.152 258.972 301.269 258.854C301.387 258.737 301.526 258.64 301.676 258.555C301.826 258.469 301.986 258.405 302.147 258.362C302.318 258.319 302.478 258.287 302.65 258.287C303.292 258.287 303.762 258.459 304.073 258.79C304.383 259.133 304.533 259.614 304.533 260.245V263.423H303.827V260.652C303.827 260.096 303.73 259.668 303.538 259.368C303.345 259.068 302.992 258.919 302.468 258.919C302.436 258.919 302.329 258.929 302.168 258.961C302.008 258.994 301.826 259.068 301.644 259.197C301.462 259.325 301.301 259.518 301.152 259.775C301.013 260.031 300.938 260.385 300.938 260.845V263.413H300.231V259.507C300.231 259.368 300.221 259.197 300.21 258.994C300.199 258.79 300.189 258.587 300.167 258.405H300.927V258.416Z" fill="#24386C"/>
<path d="M311.199 263.413H310.493V262.578H310.471C310.354 262.749 310.225 262.899 310.065 263.017C309.904 263.134 309.744 263.241 309.572 263.316C309.401 263.391 309.219 263.455 309.037 263.487C308.856 263.52 308.684 263.541 308.513 263.541C308.117 263.541 307.764 263.477 307.443 263.348C307.122 263.22 306.833 263.038 306.598 262.792C306.362 262.557 306.181 262.278 306.052 261.957C305.924 261.636 305.849 261.283 305.849 260.909C305.849 260.534 305.913 260.181 306.052 259.86C306.181 259.539 306.362 259.261 306.598 259.026C306.833 258.79 307.111 258.608 307.443 258.469C307.764 258.341 308.128 258.277 308.513 258.277C308.674 258.277 308.856 258.298 309.037 258.33C309.219 258.362 309.391 258.426 309.572 258.501C309.744 258.576 309.904 258.683 310.065 258.801C310.225 258.919 310.354 259.068 310.471 259.24H310.493V255.323H311.199V263.413ZM306.63 260.909C306.63 261.187 306.673 261.444 306.758 261.69C306.844 261.936 306.972 262.139 307.133 262.321C307.293 262.503 307.497 262.642 307.721 262.738C307.957 262.845 308.214 262.899 308.513 262.899C308.802 262.899 309.059 262.845 309.316 262.738C309.572 262.631 309.776 262.492 309.947 262.321C310.129 262.139 310.268 261.936 310.364 261.69C310.461 261.444 310.514 261.187 310.514 260.909C310.514 260.631 310.461 260.374 310.364 260.128C310.268 259.882 310.129 259.678 309.947 259.496C309.765 259.314 309.562 259.175 309.316 259.079C309.07 258.983 308.802 258.919 308.513 258.919C308.224 258.919 307.957 258.972 307.721 259.079C307.486 259.186 307.293 259.325 307.133 259.496C306.972 259.678 306.844 259.882 306.758 260.128C306.683 260.374 306.63 260.641 306.63 260.909Z" fill="#24386C"/>
<path d="M315.95 260.342V260.213C315.95 259.347 315.522 258.919 314.666 258.919C314.077 258.919 313.574 259.111 313.136 259.507L312.708 259.004C313.178 258.523 313.885 258.277 314.826 258.277C315.072 258.277 315.308 258.309 315.532 258.384C315.757 258.459 315.95 258.565 316.11 258.715C316.271 258.865 316.41 259.047 316.506 259.261C316.602 259.486 316.656 259.742 316.656 260.053V262.289C316.656 262.482 316.667 262.685 316.688 262.899C316.709 263.113 316.731 263.284 316.742 263.413H316.057C316.035 263.295 316.014 263.156 316.014 263.017C316.003 262.878 315.993 262.739 315.993 262.599H315.971C315.768 262.931 315.522 263.177 315.244 263.316C314.965 263.466 314.623 263.541 314.206 263.541C313.981 263.541 313.767 263.509 313.564 263.455C313.36 263.402 313.168 263.306 313.018 263.177C312.857 263.049 312.729 262.899 312.633 262.717C312.536 262.535 312.494 262.321 312.494 262.075C312.494 261.668 312.601 261.347 312.804 261.123C313.018 260.887 313.275 260.716 313.596 260.599C313.917 260.481 314.248 260.417 314.612 260.385C314.976 260.352 315.308 260.342 315.607 260.342H315.95ZM315.586 260.92C315.404 260.92 315.179 260.93 314.923 260.952C314.666 260.973 314.398 261.016 314.152 261.08C313.906 261.144 313.692 261.251 313.521 261.39C313.35 261.529 313.253 261.733 313.253 261.979C313.253 262.139 313.285 262.289 313.35 262.407C313.414 262.525 313.51 262.621 313.617 262.696C313.735 262.771 313.863 262.824 314.002 262.856C314.141 262.888 314.281 262.899 314.42 262.899C314.676 262.899 314.901 262.856 315.083 262.771C315.265 262.685 315.436 262.567 315.565 262.418C315.693 262.268 315.789 262.097 315.843 261.904C315.907 261.711 315.939 261.497 315.939 261.273V260.909H315.586V260.92Z" fill="#24386C"/>
<path d="M320.882 259.047H319.438V262C319.438 262.182 319.459 262.332 319.491 262.45C319.523 262.567 319.577 262.653 319.641 262.717C319.705 262.781 319.78 262.824 319.866 262.846C319.951 262.867 320.058 262.888 320.165 262.888C320.283 262.888 320.412 262.867 320.54 262.835C320.668 262.803 320.786 262.749 320.893 262.696L320.925 263.348C320.658 263.466 320.347 263.53 319.973 263.53C319.834 263.53 319.695 263.509 319.545 263.477C319.395 263.445 319.267 263.37 319.138 263.274C319.021 263.177 318.914 263.038 318.839 262.867C318.764 262.696 318.721 262.471 318.721 262.193V259.036H317.662V258.394H318.721V256.982H319.427V258.394H320.872V259.047H320.882Z" fill="#24386C"/>
<path d="M322.873 256.49C322.873 256.639 322.819 256.757 322.712 256.853C322.605 256.95 322.487 256.993 322.359 256.993C322.231 256.993 322.113 256.95 322.006 256.853C321.899 256.757 321.845 256.629 321.845 256.49C321.845 256.34 321.899 256.222 322.006 256.115C322.113 256.019 322.231 255.976 322.359 255.976C322.487 255.976 322.605 256.019 322.712 256.115C322.819 256.211 322.873 256.329 322.873 256.49ZM322.712 263.413H322.006V258.405H322.712V263.413Z" fill="#24386C"/>
<path d="M329.474 260.909C329.474 261.283 329.41 261.636 329.271 261.957C329.143 262.278 328.961 262.557 328.725 262.792C328.49 263.027 328.212 263.209 327.88 263.348C327.559 263.477 327.195 263.541 326.81 263.541C326.425 263.541 326.072 263.477 325.74 263.348C325.419 263.22 325.13 263.038 324.895 262.792C324.659 262.557 324.477 262.278 324.349 261.957C324.221 261.636 324.146 261.283 324.146 260.909C324.146 260.534 324.21 260.181 324.349 259.86C324.477 259.539 324.659 259.261 324.895 259.026C325.13 258.79 325.408 258.608 325.74 258.469C326.061 258.341 326.414 258.277 326.81 258.277C327.206 258.277 327.559 258.341 327.88 258.469C328.201 258.598 328.479 258.79 328.725 259.026C328.961 259.261 329.143 259.539 329.271 259.86C329.41 260.192 329.474 260.534 329.474 260.909ZM328.704 260.909C328.704 260.631 328.661 260.374 328.576 260.128C328.49 259.882 328.362 259.678 328.201 259.496C328.041 259.315 327.837 259.175 327.602 259.079C327.366 258.972 327.11 258.919 326.821 258.919C326.532 258.919 326.264 258.972 326.029 259.079C325.794 259.186 325.601 259.325 325.44 259.496C325.28 259.678 325.152 259.882 325.066 260.128C324.98 260.374 324.938 260.631 324.938 260.909C324.938 261.187 324.98 261.444 325.066 261.69C325.152 261.936 325.28 262.139 325.44 262.321C325.601 262.503 325.794 262.642 326.029 262.739C326.264 262.835 326.521 262.899 326.821 262.899C327.12 262.899 327.377 262.846 327.602 262.739C327.837 262.632 328.03 262.492 328.201 262.321C328.362 262.139 328.49 261.936 328.576 261.69C328.661 261.455 328.704 261.187 328.704 260.909Z" fill="#24386C"/>
<path d="M331.433 258.416C331.443 258.555 331.454 258.683 331.465 258.822C331.465 258.951 331.465 259.09 331.465 259.229H331.486C331.561 259.09 331.668 258.972 331.786 258.854C331.903 258.737 332.043 258.64 332.192 258.555C332.342 258.469 332.503 258.405 332.674 258.362C332.845 258.319 333.006 258.287 333.166 258.287C333.808 258.287 334.279 258.459 334.589 258.79C334.899 259.133 335.049 259.614 335.049 260.245V263.423H334.343V260.652C334.343 260.096 334.247 259.668 334.054 259.368C333.862 259.068 333.508 258.919 332.984 258.919C332.952 258.919 332.845 258.929 332.685 258.961C332.524 258.994 332.353 259.068 332.171 259.197C331.989 259.325 331.829 259.518 331.679 259.775C331.54 260.031 331.465 260.385 331.465 260.845V263.413H330.759V259.507C330.759 259.368 330.759 259.197 330.748 258.994C330.737 258.79 330.726 258.587 330.705 258.405H331.433V258.416Z" fill="#24386C"/>
<path d="M310.707 364.656C332.471 364.656 350.115 347.012 350.115 325.248C350.115 303.483 332.471 285.84 310.707 285.84C288.942 285.84 271.299 303.483 271.299 325.248C271.299 347.012 288.942 364.656 310.707 364.656Z" fill="white" stroke="#D9E2FF" stroke-width="1.07" stroke-miterlimit="10"/>
<mask id="mask0_1013_5906" style="mask-type:alpha" maskUnits="userSpaceOnUse" x="271" y="285" width="80" height="80">
<path d="M310.707 364.656C332.471 364.656 350.115 347.012 350.115 325.248C350.115 303.483 332.471 285.84 310.707 285.84C288.942 285.84 271.299 303.483 271.299 325.248C271.299 347.012 288.942 364.656 310.707 364.656Z" fill="white"/>
</mask>
<g mask="url(#mask0_1013_5906)">
<path d="M338.152 358.921C336.975 361.425 334.525 363.094 331.753 363.276L331.293 363.308L293.501 368.155L293.233 368.251C292.27 368.604 291.222 368.583 290.28 368.198L291.329 350.125C291.693 343.984 295.577 338.612 301.291 336.333L312.483 331.871L326.339 333.851C330.138 334.396 333.209 337.232 334.033 340.988L338.152 358.921Z" fill="#721FFA"/>
<path d="M313.745 339.351C316.228 338.495 317.811 335.766 317.555 332.791L316.217 317.362L305.132 318.325L306.469 333.754C306.822 337.788 310.353 340.517 313.745 339.351Z" fill="#FFECA7"/>
<path d="M313.168 327.923C313.168 327.923 311.477 331.047 306.202 330.662L306.116 329.089L313.168 327.923Z" fill="#24386C"/>
<path d="M323.472 316.934C321.257 323.9 313.296 330.502 306.148 329.549C292.356 327.709 294.186 315.8 296.55 308.363C298.915 300.927 306.855 296.818 314.291 299.183C321.728 301.547 325.836 309.498 323.472 316.934Z" fill="#FFECA7"/>
<path d="M302.425 309.198L300.756 313.66C300.52 314.302 300.852 315.008 301.494 315.233" stroke="#24386C" stroke-width="0.535" stroke-miterlimit="10" stroke-linecap="round"/>
<path d="M300.146 319.448C300.146 319.448 302.125 320.486 304.19 318.978" stroke="#24386C" stroke-width="0.535" stroke-miterlimit="10" stroke-linecap="round"/>
<path d="M308.481 309.605C308.989 309.605 309.401 309.193 309.401 308.684C309.401 308.176 308.989 307.764 308.481 307.764C307.973 307.764 307.561 308.176 307.561 308.684C307.561 309.193 307.973 309.605 308.481 309.605Z" fill="#24386C"/>
<path d="M301.077 307.336C301.585 307.336 301.997 306.924 301.997 306.416C301.997 305.908 301.585 305.496 301.077 305.496C300.568 305.496 300.156 305.908 300.156 306.416C300.156 306.924 300.568 307.336 301.077 307.336Z" fill="#24386C"/>
<path d="M323.718 317.244C323.718 317.244 318.122 317.266 317.79 311.21C317.619 307.967 314.687 309.508 312.836 306.844C310.685 303.741 303.955 300.745 299.9 302.789C299.9 302.789 298.84 294.4 304.116 295.491C307.101 296.112 312.066 294.485 316.378 296.347C327.046 300.959 326.543 311.83 323.718 317.244Z" fill="#C91540"/>
<path d="M324.615 320.634C325.87 319.05 325.949 317.022 324.791 316.105C323.633 315.187 321.676 315.728 320.421 317.312C319.166 318.896 319.088 320.924 320.246 321.841C321.404 322.759 323.36 322.218 324.615 320.634Z" fill="#FFECA7"/>
<path d="M321.332 313.799L318.25 318.849L319.983 319.802L322.669 315.597L321.332 313.799Z" fill="#C91540"/>
</g>
<path d="M123.831 365.779C134.977 365.779 144.012 356.744 144.012 345.599C144.012 334.454 134.977 325.419 123.831 325.419C112.686 325.419 103.651 334.454 103.651 345.599C103.651 356.744 112.686 365.779 123.831 365.779Z" fill="white" stroke="#D9E2FF" stroke-width="1.07" stroke-miterlimit="10"/>
<path d="M62.1135 345.931C75.5162 345.931 86.3812 335.066 86.3812 321.663C86.3812 308.261 75.5162 297.396 62.1135 297.396C48.7109 297.396 37.8459 308.261 37.8459 321.663C37.8459 335.066 48.7109 345.931 62.1135 345.931Z" fill="white" stroke="#D9E2FF" stroke-width="1.07" stroke-miterlimit="10"/>
<path d="M117.85 319.545C128.103 319.545 136.414 311.233 136.414 300.98C136.414 290.728 128.103 282.416 117.85 282.416C107.597 282.416 99.2854 290.728 99.2854 300.98C99.2854 311.233 107.597 319.545 117.85 319.545Z" fill="white" stroke="#D9E2FF" stroke-width="1.07" stroke-miterlimit="10"/>
<path d="M266.205 321.556C274.993 321.556 282.116 314.433 282.116 305.646C282.116 296.858 274.993 289.735 266.205 289.735C257.418 289.735 250.294 296.858 250.294 305.646C250.294 314.433 257.418 321.556 266.205 321.556Z" fill="white" stroke="#D9E2FF" stroke-width="1.07" stroke-miterlimit="10"/>
<path d="M231.067 339.939C239.18 339.939 245.758 333.362 245.758 325.248C245.758 317.134 239.18 310.557 231.067 310.557C222.953 310.557 216.375 317.134 216.375 325.248C216.375 333.362 222.953 339.939 231.067 339.939Z" fill="white" stroke="#D9E2FF" stroke-width="1.07" stroke-miterlimit="10"/>
<path d="M257.677 369.278C266.979 369.278 274.519 361.738 274.519 352.437C274.519 343.135 266.979 335.595 257.677 335.595C248.376 335.595 240.836 343.135 240.836 352.437C240.836 361.738 248.376 369.278 257.677 369.278Z" fill="white" stroke="#D9E2FF" stroke-width="1.07" stroke-miterlimit="10"/>
<path d="M119.038 356.535H128.625C130.315 356.535 131.396 355.465 131.428 353.774L131.546 344.957L133.558 345.407C134.606 345.631 135.291 345.214 135.526 344.176L136.34 340.688C136.575 339.639 136.168 338.922 135.205 338.505L128.721 335.745C128.197 335.52 127.822 335.531 127.373 335.734C126.121 336.322 125.169 336.611 123.821 336.611C122.472 336.611 121.531 336.333 120.279 335.734C119.84 335.531 119.466 335.52 118.931 335.745L112.446 338.505C111.473 338.922 111.077 339.639 111.312 340.688L112.125 344.176C112.361 345.225 113.035 345.631 114.094 345.407L116.106 344.957L116.224 353.774C116.266 355.454 117.347 356.535 119.038 356.535ZM119.059 354.801C118.396 354.801 117.978 354.373 117.968 353.688L117.839 343.202C117.839 342.978 117.668 342.828 117.411 342.882L114.073 343.62C113.902 343.663 113.784 343.588 113.741 343.427L113.035 340.453C112.992 340.239 113.056 340.142 113.228 340.067L119.113 337.564C119.615 339.725 121.563 341.244 123.81 341.244C126.068 341.244 128.015 339.725 128.518 337.564L134.403 340.067C134.585 340.142 134.649 340.239 134.595 340.453L133.9 343.427C133.857 343.588 133.739 343.663 133.568 343.62L130.23 342.882C129.973 342.828 129.802 342.978 129.802 343.202L129.673 353.688C129.663 354.373 129.245 354.801 128.582 354.801H119.059ZM123.831 338.259C124.869 338.259 125.768 338.099 126.645 337.778C126.121 338.826 125.051 339.522 123.831 339.522C122.622 339.522 121.552 338.826 121.028 337.778C121.895 338.099 122.804 338.259 123.831 338.259Z" fill="#D9E2FF"/>
<path d="M52.4941 330.598H53.6283C54.3452 330.598 54.9016 330.041 54.9016 329.325V327.794C56.9667 327.912 59.7915 327.987 62.1027 327.987C64.4032 327.987 67.228 327.912 69.2931 327.794V329.325C69.2931 330.041 69.8495 330.598 70.5771 330.598H71.7006C72.4282 330.598 72.9846 330.041 72.9846 329.325V326.853C73.2949 326.489 73.4661 325.997 73.4661 325.398V323.739C73.4661 322.081 73.1772 321.15 72.2784 320.026L71.4438 318.978C71.0907 317.287 70.4701 315.511 70.1491 314.815C69.6248 313.703 68.6083 313.05 67.3136 312.868C66.6288 312.772 64.6172 312.729 62.1134 312.729C59.6096 312.729 57.5873 312.782 56.9132 312.868C55.6185 313.028 54.5913 313.703 54.0777 314.815C53.746 315.511 53.1254 317.287 52.783 318.978L51.9484 320.026C51.0603 321.15 50.7607 322.081 50.7607 323.739V325.398C50.7607 325.997 50.9319 326.489 51.2422 326.853V329.325C51.2208 330.052 51.7772 330.598 52.4941 330.598ZM62.1027 326.478C58.882 326.478 54.8695 326.329 53.3501 326.147C52.5369 326.05 52.2373 325.644 52.2373 324.927V323.664C52.2373 322.391 52.4834 321.792 53.1361 320.914L54.1526 319.588C54.388 318.325 54.9979 316.367 55.3831 315.532C55.7041 314.869 56.3033 314.484 57.1272 314.377C57.7799 314.291 59.6096 314.216 62.1027 314.216C64.5958 314.216 66.4576 314.302 67.0568 314.377C67.9021 314.484 68.4906 314.88 68.8009 315.543C69.2075 316.356 69.796 318.304 70.0314 319.588L71.0479 320.914C71.7113 321.792 71.9467 322.391 71.9467 323.664V324.927C71.9467 325.644 71.6471 326.05 70.8446 326.147C69.3359 326.329 65.3341 326.478 62.1027 326.478ZM55.4366 318.646C55.3403 319.031 55.5115 319.213 55.9181 319.192C57.2984 319.106 59.0425 319.02 62.1027 319.02C65.1629 319.02 66.907 319.106 68.2766 319.192C68.6939 319.213 68.8544 319.031 68.7688 318.646C68.5655 317.747 68.1803 316.559 67.9021 316.089C67.6346 315.618 67.335 315.425 66.7786 315.35C66.1366 315.265 64.6065 315.201 62.092 315.201C59.5775 315.201 58.0367 315.265 57.4054 315.35C56.849 315.425 56.5387 315.618 56.2819 316.089C56.0358 316.559 55.6506 317.747 55.4366 318.646ZM55.2975 325.259C56.1963 325.259 56.8811 324.585 56.8811 323.686C56.8811 322.787 56.207 322.102 55.2975 322.102C54.4094 322.102 53.7246 322.776 53.7246 323.686C53.7246 324.585 54.4094 325.259 55.2975 325.259ZM68.9079 325.259C69.8067 325.259 70.4915 324.585 70.4915 323.686C70.4915 322.787 69.8174 322.102 68.9079 322.102C68.0198 322.102 67.335 322.776 67.335 323.686C67.335 324.585 68.0091 325.259 68.9079 325.259ZM59.5668 324.863H64.6493C65.3127 324.863 65.7835 324.392 65.7835 323.728C65.7835 323.065 65.3127 322.594 64.6493 322.594H59.5668C58.8927 322.594 58.4219 323.065 58.4219 323.728C58.4219 324.392 58.8927 324.863 59.5668 324.863Z" fill="#D9E2FF"/>
<path d="M105.406 305.164C105.406 308.224 110.563 310.3 117.839 310.3C125.137 310.3 130.283 308.224 130.283 305.164C130.283 303.784 129.224 302.585 127.373 301.697C128.924 301.366 129.834 300.285 129.834 298.701C129.834 296.861 128.603 295.716 126.57 295.609C126.495 293.244 123.007 291.682 117.839 291.682C112.628 291.682 109.108 293.287 109.108 295.695V297.685C109.108 298.947 109.322 300.114 109.718 301.152C107 302.05 105.406 303.463 105.406 305.164ZM117.839 297.963C113.837 297.963 110.852 296.957 110.852 295.684C110.852 294.411 113.837 293.405 117.839 293.405C121.841 293.405 124.837 294.411 124.837 295.684C124.837 296.957 121.841 297.963 117.839 297.963ZM126.581 297.674V297.3C127.565 297.385 128.133 297.877 128.133 298.691C128.133 299.568 127.458 300.103 126.292 300.103C126.474 299.343 126.581 298.53 126.581 297.674ZM117.839 299.696C120.846 299.696 123.296 299.161 124.816 298.241C124.591 301.965 122.108 304.447 118.289 304.447H117.39C113.559 304.447 111.098 301.976 110.873 298.241C112.393 299.161 114.843 299.696 117.839 299.696ZM107.086 305.164C107.086 304.244 108.37 303.334 110.499 302.671C111.911 304.865 114.34 306.191 117.39 306.191H118.289C121.349 306.191 123.767 304.865 125.179 302.682C127.319 303.334 128.603 304.244 128.603 305.164C128.603 306.951 123.831 308.62 117.839 308.62C111.847 308.631 107.086 306.951 107.086 305.164Z" fill="#D9E2FF"/>
<path d="M260.919 313.799H271.47C273.363 313.799 274.337 312.825 274.337 310.953V300.349C274.337 298.487 273.363 297.503 271.47 297.503H260.919C259.036 297.503 258.052 298.466 258.052 300.349V310.953C258.052 312.814 259.036 313.799 260.919 313.799ZM261.037 312.055C260.235 312.055 259.796 311.637 259.796 310.792V300.499C259.796 299.653 260.245 299.236 261.037 299.236H271.363C272.154 299.236 272.604 299.653 272.604 300.499V310.792C272.604 311.637 272.154 312.055 271.363 312.055H261.037ZM266.205 310.525C266.43 310.525 266.601 310.364 266.601 310.129V309.54C268.013 309.412 269.073 308.609 269.073 307.283C269.073 306.095 268.302 305.399 266.794 305.11L266.601 305.078V302.906C267.147 303.003 267.543 303.334 267.703 303.848C267.821 304.137 268.013 304.297 268.334 304.297C268.688 304.297 268.923 304.073 268.923 303.73C268.923 303.623 268.902 303.527 268.869 303.431C268.634 302.521 267.767 301.879 266.59 301.761V301.173C266.59 300.938 266.419 300.777 266.194 300.777C265.97 300.777 265.799 300.938 265.799 301.173V301.761C264.418 301.9 263.445 302.735 263.445 303.955C263.445 305.078 264.204 305.752 265.649 306.084L265.799 306.116V308.406C265.092 308.299 264.686 307.925 264.547 307.411C264.429 307.101 264.226 306.94 263.926 306.94C263.562 306.94 263.327 307.186 263.327 307.529C263.327 307.636 263.348 307.732 263.38 307.839C263.637 308.759 264.557 309.412 265.799 309.519V310.107C265.809 310.364 265.98 310.525 266.205 310.525ZM265.809 304.875L265.745 304.854C265.05 304.64 264.729 304.34 264.729 303.88C264.729 303.388 265.135 303.003 265.809 302.896V304.875ZM266.601 306.32L266.762 306.362C267.532 306.566 267.799 306.876 267.799 307.368C267.799 307.925 267.404 308.331 266.601 308.417V306.32Z" fill="#D9E2FF"/>
<path d="M249.289 347.996C250.027 347.996 250.626 347.408 250.626 346.659C250.626 345.92 250.038 345.321 249.289 345.321C248.55 345.321 247.951 345.92 247.951 346.659C247.951 347.397 248.55 347.996 249.289 347.996ZM253.708 347.557H266.484C266.986 347.557 267.393 347.161 267.393 346.659C267.393 346.156 266.997 345.76 266.484 345.76H253.708C253.205 345.76 252.809 346.156 252.809 346.659C252.809 347.161 253.205 347.557 253.708 347.557ZM249.289 353.774C250.027 353.774 250.626 353.186 250.626 352.437C250.626 351.698 250.038 351.099 249.289 351.099C248.55 351.099 247.951 351.698 247.951 352.437C247.951 353.186 248.55 353.774 249.289 353.774ZM253.708 353.346H266.484C266.986 353.346 267.393 352.95 267.393 352.447C267.393 351.944 266.997 351.548 266.484 351.548H253.708C253.205 351.548 252.809 351.944 252.809 352.447C252.809 352.95 253.205 353.346 253.708 353.346ZM249.289 359.563C250.027 359.563 250.626 358.974 250.626 358.225C250.626 357.487 250.038 356.888 249.289 356.888C248.55 356.888 247.951 357.487 247.951 358.225C247.951 358.964 248.55 359.563 249.289 359.563ZM253.708 359.124H266.484C266.986 359.124 267.393 358.728 267.393 358.225C267.393 357.722 266.997 357.326 266.484 357.326H253.708C253.205 357.326 252.809 357.722 252.809 358.225C252.809 358.728 253.205 359.124 253.708 359.124Z" fill="#D9E2FF"/>
<path d="M225.106 334.396C225.524 334.643 226.112 334.578 226.444 334.097L237.262 318.036C237.615 317.512 237.433 316.923 236.994 316.677C236.588 316.453 236.042 316.538 235.699 317.052L224.882 333.07C224.518 333.605 224.678 334.15 225.106 334.396ZM225.406 325.548C227.557 325.548 228.873 323.846 228.873 321.107C228.873 318.346 227.546 316.699 225.406 316.699C223.266 316.699 221.939 318.368 221.939 321.107C221.929 323.857 223.255 325.548 225.406 325.548ZM225.406 323.996C224.379 323.996 223.801 322.958 223.801 321.107C223.801 319.277 224.39 318.25 225.406 318.25C226.423 318.25 227.011 319.277 227.011 321.107C227.011 322.969 226.423 323.996 225.406 323.996ZM236.737 334.407C238.888 334.407 240.204 332.706 240.204 329.967C240.204 327.206 238.867 325.558 236.737 325.558C234.597 325.558 233.26 327.227 233.26 329.967C233.26 332.706 234.576 334.407 236.737 334.407ZM236.737 332.856C235.71 332.856 235.132 331.818 235.132 329.967C235.132 328.148 235.721 327.11 236.737 327.11C237.754 327.11 238.332 328.137 238.332 329.967C238.332 331.828 237.754 332.856 236.737 332.856Z" fill="#D9E2FF"/>
<path d="M355.101 335.852C363.888 335.852 371.012 328.728 371.012 319.941C371.012 311.153 363.888 304.03 355.101 304.03C346.313 304.03 339.19 311.153 339.19 319.941C339.19 328.728 346.313 335.852 355.101 335.852Z" fill="white" stroke="#D9E2FF" stroke-width="1.07" stroke-miterlimit="10"/>
<path d="M356.053 313.061L357.573 316.142C357.733 316.463 358.033 316.677 358.375 316.731L361.778 317.223C362.655 317.351 363.008 318.432 362.366 319.053L359.905 321.449C359.648 321.696 359.541 322.049 359.595 322.402L360.173 325.794C360.322 326.671 359.402 327.334 358.621 326.917L355.572 325.312C355.261 325.152 354.887 325.152 354.577 325.312L351.527 326.917C350.746 327.334 349.826 326.66 349.976 325.794L350.553 322.402C350.618 322.059 350.5 321.696 350.243 321.449L347.782 319.053C347.151 318.432 347.493 317.351 348.371 317.223L351.773 316.731C352.126 316.677 352.426 316.463 352.576 316.142L354.095 313.061C354.534 312.269 355.668 312.269 356.053 313.061Z" stroke="#D9E2FF" stroke-width="1.605" stroke-miterlimit="10"/>
</g>
<defs>
<linearGradient id="paint0_linear_1013_5906" x1="197.954" y1="379.856" x2="197.954" y2="191.843" gradientUnits="userSpaceOnUse">
<stop stop-color="white" stop-opacity="0"/>
<stop offset="0.756" stop-color="#B2BFE8" stop-opacity="0.4"/>
</linearGradient>
<linearGradient id="paint1_linear_1013_5906" x1="197.95" y1="385.5" x2="197.95" y2="316.5" gradientUnits="userSpaceOnUse">
<stop stop-color="white" stop-opacity="0"/>
<stop offset="0.7464" stop-color="#B2BFE8" stop-opacity="0.2"/>
</linearGradient>
<linearGradient id="paint2_linear_1013_5906" x1="197.58" y1="270.578" x2="185.929" y2="271.107" gradientUnits="userSpaceOnUse">
<stop stop-color="#FF3364"/>
<stop offset="1" stop-color="#C91540" stop-opacity="0"/>
</linearGradient>
<clipPath id="clip0_1013_5906">
<rect width="395.9" height="379.85" fill="white"/>
</clipPath>
</defs>
</svg>
