<svg width="389" height="373" viewBox="0 0 389 373" fill="none" xmlns="http://www.w3.org/2000/svg">
<g clip-path="url(#clip0_896_3944)">
<path fill-rule="evenodd" clip-rule="evenodd" d="M311.325 243.075H77.175C61.5195 243.075 48.825 230.381 48.825 214.725C48.825 199.07 61.5195 186.375 77.175 186.375H311.325C326.98 186.375 339.675 199.07 339.675 214.725C339.675 230.381 326.98 243.075 311.325 243.075Z" fill="white" stroke="#B2BFE8" stroke-width="1.05" stroke-miterlimit="10"/>
<path opacity="0.4" d="M247.306 186.375H141.204V243.075H247.306V186.375Z" fill="#7D8CB5"/>
<g opacity="0.7">
<path opacity="0.5" d="M75.033 210.788C74.571 210.116 73.899 209.769 73.017 209.769C72.744 209.769 72.471 209.811 72.2085 209.885C71.946 209.958 71.7045 210.074 71.4945 210.221C71.2845 210.378 71.1165 210.567 70.9905 210.809C70.8645 211.05 70.8015 211.334 70.8015 211.649C70.8015 212.121 70.938 212.489 71.2005 212.741C71.463 213.003 71.7885 213.213 72.1875 213.381C72.576 213.549 73.0065 213.696 73.4685 213.833C73.9305 213.969 74.361 214.137 74.7495 214.358C75.138 214.578 75.474 214.872 75.7365 215.229C75.999 215.597 76.1355 216.09 76.1355 216.71C76.1355 217.182 76.0305 217.602 75.831 217.98C75.6315 218.358 75.369 218.673 75.033 218.925C74.697 219.177 74.34 219.377 73.9305 219.513C73.521 219.65 73.1115 219.723 72.702 219.723C72.0615 219.723 71.463 219.608 70.8855 219.366C70.308 219.125 69.825 218.736 69.426 218.18L70.392 217.487C70.6125 217.865 70.9275 218.18 71.3265 218.411C71.7255 218.642 72.198 218.757 72.744 218.757C73.0065 218.757 73.269 218.715 73.5315 218.631C73.794 218.547 74.0355 218.421 74.2455 218.264C74.4555 218.106 74.634 217.907 74.7705 217.665C74.907 217.434 74.9805 217.161 74.9805 216.857C74.9805 216.489 74.907 216.195 74.7495 215.954C74.592 215.712 74.3925 215.513 74.151 215.355C73.9095 215.198 73.6155 215.061 73.3005 214.956C72.9855 214.851 72.6495 214.736 72.3135 214.631C71.9775 214.526 71.652 214.4 71.3265 214.263C71.0115 214.127 70.728 213.948 70.476 213.738C70.224 213.528 70.0245 213.266 69.8775 212.94C69.7305 212.625 69.6465 212.226 69.6465 211.743C69.6465 211.239 69.741 210.809 69.93 210.431C70.119 210.063 70.371 209.748 70.6965 209.507C71.0115 209.265 71.379 209.076 71.778 208.961C72.177 208.845 72.5865 208.782 73.017 208.782C73.605 208.782 74.1405 208.877 74.6235 209.066C75.1065 209.255 75.5475 209.58 75.957 210.053L75.033 210.788Z" fill="#24386C"/>
<path opacity="0.5" d="M78.603 216.3C78.6345 216.647 78.7185 216.962 78.855 217.266C78.9915 217.571 79.17 217.833 79.401 218.054C79.632 218.274 79.884 218.453 80.178 218.579C80.472 218.705 80.787 218.768 81.1335 218.768C81.6585 218.768 82.0995 218.652 82.4775 218.411C82.8555 218.169 83.139 217.896 83.3385 217.581L84.084 218.201C83.6745 218.715 83.223 219.093 82.7295 219.314C82.236 219.534 81.7005 219.65 81.1335 219.65C80.619 219.65 80.1465 219.555 79.716 219.377C79.2855 219.198 78.9075 218.946 78.5925 218.621C78.2775 218.295 78.036 217.917 77.847 217.476C77.658 217.035 77.574 216.552 77.574 216.038C77.574 215.523 77.658 215.04 77.8365 214.599C78.015 214.158 78.2565 213.78 78.5715 213.455C78.8865 213.129 79.254 212.877 79.674 212.699C80.094 212.52 80.5455 212.426 81.039 212.426C81.564 212.426 82.026 212.52 82.4355 212.709C82.845 212.898 83.1915 213.14 83.475 213.455C83.7585 213.77 83.9685 214.127 84.1155 214.547C84.2625 214.967 84.336 215.408 84.336 215.88V216.3H78.603ZM83.2755 215.513C83.2755 214.862 83.076 214.326 82.6875 213.917C82.299 213.507 81.7425 213.308 81.039 213.308C80.724 213.308 80.4195 213.371 80.1255 213.486C79.8315 213.612 79.569 213.77 79.3485 213.98C79.128 214.19 78.9495 214.421 78.8235 214.683C78.687 214.946 78.624 215.219 78.624 215.502H83.2755V215.513Z" fill="#24386C"/>
<path opacity="0.5" d="M90.5099 215.261V215.082C90.5099 213.896 89.9219 213.308 88.7459 213.308C87.9374 213.308 87.2444 213.581 86.6459 214.116L86.0579 213.423C86.7089 212.762 87.6749 212.426 88.9664 212.426C89.3024 212.426 89.6174 212.478 89.9324 212.573C90.2369 212.667 90.5099 212.825 90.7304 213.024C90.9509 213.224 91.1399 213.476 91.2764 213.78C91.4129 214.085 91.4864 214.442 91.4864 214.872V217.949C91.4864 218.211 91.4969 218.495 91.5284 218.778C91.5599 219.062 91.5809 219.303 91.6124 219.492H90.6674C90.6359 219.324 90.6149 219.146 90.6044 218.946C90.5939 218.747 90.5834 218.558 90.5834 218.369H90.5519C90.2684 218.831 89.9324 219.156 89.5439 219.366C89.1554 219.566 88.6829 219.671 88.1264 219.671C87.8219 219.671 87.5279 219.629 87.2444 219.545C86.9609 219.461 86.7089 219.335 86.4884 219.167C86.2679 218.999 86.0894 218.789 85.9634 218.537C85.8374 218.285 85.7639 217.991 85.7639 217.665C85.7639 217.109 85.9109 216.668 86.1944 216.353C86.4779 216.038 86.8454 215.796 87.2864 215.639C87.7274 215.481 88.1894 215.387 88.6829 215.345C89.1764 215.303 89.6279 215.282 90.0374 215.282H90.5099V215.261ZM90.0164 216.059C89.7749 216.059 89.4599 216.069 89.0924 216.101C88.7249 216.122 88.3679 216.185 88.0319 216.279C87.6959 216.374 87.4019 216.521 87.1604 216.71C86.9189 216.909 86.8034 217.172 86.8034 217.518C86.8034 217.739 86.8454 217.938 86.9399 218.096C87.0344 218.253 87.1604 218.39 87.3179 218.495C87.4754 218.6 87.6539 218.673 87.8429 218.715C88.0319 218.757 88.2314 218.778 88.4204 218.778C88.7774 218.778 89.0819 218.715 89.3444 218.6C89.6069 218.484 89.8274 218.327 89.9954 218.117C90.1634 217.907 90.2999 217.676 90.3839 217.413C90.4679 217.151 90.5099 216.857 90.5099 216.552V216.048H90.0164V216.059Z" fill="#24386C"/>
<path opacity="0.5" d="M93.8384 214.746C93.8384 214.442 93.8279 214.137 93.8174 213.822C93.8069 213.507 93.7859 213.098 93.7754 212.604H94.7309V213.885H94.7624C94.8254 213.696 94.9304 213.518 95.0564 213.35C95.1824 213.182 95.3399 213.024 95.5184 212.888C95.6969 212.751 95.9069 212.636 96.1484 212.562C96.3899 212.478 96.6629 212.436 96.9674 212.436C97.2404 212.436 97.4819 212.468 97.6919 212.52L97.5029 213.476C97.3769 213.423 97.1879 213.402 96.9464 213.402C96.5789 213.402 96.2534 213.476 95.9909 213.612C95.7284 213.749 95.5079 213.938 95.3294 214.158C95.1509 214.379 95.0249 214.62 94.9409 214.872C94.8569 215.124 94.8149 215.376 94.8149 215.607V219.492H93.8489V214.746H93.8384Z" fill="#24386C"/>
<path opacity="0.5" d="M103.624 214.221C103.456 213.969 103.225 213.749 102.921 213.57C102.616 213.392 102.28 213.308 101.902 213.308C101.503 213.297 101.136 213.36 100.821 213.497C100.506 213.633 100.233 213.822 100.002 214.074C99.7814 214.316 99.6029 214.61 99.4874 214.946C99.3719 215.282 99.3089 215.649 99.3089 216.038C99.3089 216.426 99.3719 216.794 99.4874 217.13C99.6029 217.466 99.7814 217.76 100.002 218.001C100.222 218.243 100.495 218.442 100.821 218.579C101.136 218.715 101.503 218.778 101.902 218.768C102.28 218.768 102.627 218.684 102.921 218.505C103.215 218.327 103.456 218.117 103.624 217.854L104.422 218.453C104.076 218.852 103.687 219.156 103.257 219.345C102.826 219.534 102.375 219.639 101.902 219.65C101.346 219.66 100.842 219.576 100.39 219.387C99.9389 219.209 99.5504 218.957 99.2354 218.631C98.9204 218.306 98.6789 217.928 98.5109 217.476C98.3429 217.035 98.2589 216.552 98.2589 216.027C98.2589 215.513 98.3429 215.03 98.5109 214.578C98.6789 214.137 98.9204 213.749 99.2354 213.423C99.5504 213.098 99.9389 212.846 100.39 212.667C100.842 212.489 101.346 212.405 101.902 212.405C102.375 212.415 102.826 212.51 103.257 212.709C103.687 212.898 104.076 213.192 104.422 213.602L103.624 214.221Z" fill="#24386C"/>
<path opacity="0.5" d="M105.693 208.362H106.659V213.696H106.69C106.795 213.507 106.932 213.339 107.1 213.182C107.268 213.024 107.457 212.888 107.656 212.783C107.866 212.667 108.076 212.583 108.307 212.52C108.538 212.457 108.769 212.426 108.99 212.426C109.872 212.426 110.523 212.657 110.943 213.129C111.363 213.602 111.573 214.263 111.573 215.124V219.492H110.607V215.681C110.607 214.914 110.47 214.326 110.208 213.927C109.945 213.528 109.452 213.318 108.738 213.318C108.685 213.318 108.549 213.339 108.328 213.381C108.108 213.423 107.866 213.528 107.614 213.707C107.362 213.885 107.142 214.148 106.942 214.505C106.743 214.862 106.648 215.345 106.648 215.975V219.503H105.682V208.362H105.693Z" fill="#24386C"/>
</g>
<path fill-rule="evenodd" clip-rule="evenodd" d="M244.65 168.105V186.417H249.953L244.65 168.105Z" fill="#B2BFE8"/>
<path fill-rule="evenodd" clip-rule="evenodd" d="M143.85 168.105V186.417H138.547L143.85 168.105Z" fill="#B2BFE8"/>
<path fill-rule="evenodd" clip-rule="evenodd" d="M143.85 261.398V243.075H138.547L143.85 261.398Z" fill="#B2BFE8"/>
<path fill-rule="evenodd" clip-rule="evenodd" d="M244.65 261.398V243.075H249.953L244.65 261.398Z" fill="#B2BFE8"/>
<path fill-rule="evenodd" clip-rule="evenodd" d="M243.6 262.007H144.9C144.322 262.007 143.85 261.534 143.85 260.957V168.494C143.85 167.916 144.322 167.444 144.9 167.444H243.6C244.177 167.444 244.65 167.916 244.65 168.494V260.957C244.65 261.534 244.177 262.007 243.6 262.007Z" fill="#D9E2FF"/>
<path opacity="0.5" fill-rule="evenodd" clip-rule="evenodd" d="M217.612 248.315L226.643 243.096L220.972 240.135L211.943 245.354L217.612 248.315Z" fill="url(#paint0_linear_896_3944)"/>
<path opacity="0.5" fill-rule="evenodd" clip-rule="evenodd" d="M208.929 253.386L217.665 248.273L202.997 240.44L194.534 245.322L208.929 253.386Z" fill="url(#paint1_linear_896_3944)"/>
<path d="M230.601 155.211H223.251V167.444H230.601V155.211Z" fill="#DC244C"/>
<path d="M164.451 155.211H157.101V167.444H164.451V155.211Z" fill="#67C87A"/>
<path fill-rule="evenodd" clip-rule="evenodd" d="M230.601 138.411H223.251V132.636C223.251 131.481 224.196 130.536 225.351 130.536H228.501C229.656 130.536 230.601 131.481 230.601 132.636V138.411Z" fill="#DC244C"/>
<path fill-rule="evenodd" clip-rule="evenodd" d="M164.451 138.411H157.101V132.636C157.101 131.481 158.046 130.536 159.201 130.536H162.351C163.506 130.536 164.451 131.481 164.451 132.636V138.411Z" fill="#67C87A"/>
<path fill-rule="evenodd" clip-rule="evenodd" d="M232.176 155.211H155.526C150.885 155.211 147.126 151.452 147.126 146.811C147.126 142.17 150.885 138.411 155.526 138.411H232.176C236.817 138.411 240.576 142.17 240.576 146.811C240.576 151.452 236.817 155.211 232.176 155.211Z" stroke="#B2BFE8" stroke-width="1.05" stroke-miterlimit="10"/>
<path d="M163.937 149.205H163.958V142.905H164.714V150.339H163.769L159.338 143.976H159.317V150.339H158.561V142.905H159.506L163.937 149.205Z" fill="#24386C"/>
<path d="M166.961 148.071C166.982 148.313 167.045 148.544 167.139 148.764C167.234 148.985 167.37 149.163 167.528 149.331C167.685 149.499 167.874 149.615 168.084 149.709C168.294 149.804 168.525 149.846 168.767 149.846C169.134 149.846 169.46 149.762 169.733 149.583C170.006 149.415 170.205 149.216 170.342 148.985L170.877 149.426C170.583 149.793 170.258 150.066 169.911 150.224C169.554 150.381 169.176 150.465 168.767 150.465C168.399 150.465 168.063 150.402 167.759 150.276C167.444 150.15 167.181 149.972 166.961 149.73C166.74 149.499 166.562 149.226 166.436 148.911C166.31 148.596 166.236 148.25 166.236 147.882C166.236 147.515 166.299 147.168 166.425 146.853C166.551 146.538 166.73 146.265 166.95 146.034C167.171 145.803 167.433 145.625 167.738 145.488C168.042 145.362 168.368 145.299 168.714 145.299C169.082 145.299 169.418 145.362 169.712 145.499C170.006 145.635 170.258 145.803 170.457 146.024C170.657 146.244 170.804 146.507 170.919 146.801C171.024 147.095 171.077 147.42 171.077 147.756V148.071H166.961ZM170.3 147.504C170.3 147.032 170.163 146.654 169.88 146.37C169.596 146.076 169.208 145.929 168.704 145.929C168.483 145.929 168.263 145.971 168.053 146.055C167.843 146.139 167.654 146.265 167.496 146.402C167.339 146.549 167.213 146.717 167.118 146.906C167.024 147.095 166.982 147.294 166.982 147.494H170.3V147.504Z" fill="#24386C"/>
<path d="M175.864 150.339C175.854 150.203 175.843 150.077 175.843 149.94C175.843 149.814 175.833 149.678 175.833 149.541H175.812C175.738 149.678 175.633 149.793 175.518 149.909C175.402 150.024 175.266 150.119 175.119 150.192C174.972 150.276 174.814 150.339 174.646 150.381C174.478 150.423 174.321 150.444 174.163 150.444C173.533 150.444 173.071 150.276 172.767 149.951C172.462 149.625 172.315 149.142 172.315 148.523V145.404H173.008V148.124C173.008 148.397 173.029 148.638 173.071 148.848C173.113 149.058 173.187 149.237 173.292 149.373C173.397 149.51 173.533 149.625 173.701 149.699C173.869 149.772 174.09 149.814 174.352 149.814C174.384 149.814 174.489 149.804 174.646 149.772C174.804 149.741 174.982 149.667 175.161 149.541C175.339 149.415 175.497 149.226 175.644 148.974C175.78 148.722 175.854 148.376 175.854 147.924V145.404H176.547V149.237C176.547 149.373 176.547 149.541 176.568 149.741C176.578 149.94 176.589 150.14 176.599 150.318H175.864V150.339Z" fill="#24386C"/>
<path d="M178.227 146.958C178.227 146.738 178.227 146.517 178.216 146.297C178.206 146.076 178.195 145.782 178.185 145.425H178.867V146.339H178.888C178.941 146.202 179.004 146.076 179.098 145.95C179.193 145.824 179.298 145.719 179.434 145.614C179.56 145.52 179.718 145.436 179.886 145.383C180.054 145.32 180.253 145.299 180.463 145.299C180.663 145.299 180.831 145.32 180.978 145.362L180.841 146.045C180.747 146.013 180.621 145.992 180.442 145.992C180.18 145.992 179.949 146.045 179.76 146.139C179.571 146.234 179.413 146.37 179.287 146.528C179.161 146.685 179.067 146.853 179.014 147.042C178.951 147.221 178.93 147.399 178.93 147.567V150.339H178.237V146.958H178.227Z" fill="#24386C"/>
<path d="M184.789 147.326V147.2C184.789 146.349 184.369 145.929 183.529 145.929C182.952 145.929 182.458 146.118 182.028 146.507L181.608 146.013C182.07 145.541 182.763 145.299 183.687 145.299C183.928 145.299 184.159 145.331 184.369 145.404C184.59 145.478 184.779 145.583 184.936 145.73C185.094 145.877 185.23 146.055 185.325 146.265C185.419 146.486 185.472 146.738 185.472 147.042V149.237C185.472 149.426 185.482 149.625 185.503 149.835C185.524 150.045 185.545 150.213 185.556 150.339H184.884C184.863 150.224 184.852 150.087 184.842 149.951C184.831 149.814 184.831 149.678 184.831 149.541H184.81C184.611 149.867 184.369 150.108 184.086 150.245C183.802 150.381 183.477 150.465 183.078 150.465C182.857 150.465 182.647 150.434 182.448 150.381C182.248 150.318 182.059 150.234 181.902 150.108C181.744 149.982 181.618 149.835 181.524 149.657C181.429 149.478 181.377 149.268 181.377 149.027C181.377 148.628 181.482 148.313 181.681 148.092C181.881 147.872 182.143 147.693 182.458 147.578C182.773 147.462 183.099 147.399 183.456 147.368C183.813 147.336 184.128 147.326 184.422 147.326H184.789ZM184.432 147.893C184.254 147.893 184.033 147.903 183.781 147.924C183.529 147.945 183.267 147.987 183.025 148.05C182.784 148.113 182.574 148.218 182.406 148.355C182.238 148.491 182.143 148.691 182.143 148.932C182.143 149.09 182.175 149.237 182.248 149.352C182.311 149.468 182.406 149.562 182.511 149.636C182.626 149.709 182.752 149.762 182.889 149.793C183.025 149.825 183.162 149.835 183.298 149.835C183.55 149.835 183.771 149.793 183.949 149.709C184.138 149.625 184.296 149.51 184.422 149.363C184.548 149.216 184.642 149.048 184.705 148.859C184.768 148.67 184.789 148.46 184.789 148.239V147.882H184.432V147.893Z" fill="#24386C"/>
<path d="M187.94 150.339H187.247V142.401H187.94V150.339Z" fill="#24386C"/>
<path d="M193.536 149.646H197.516V150.339H192.78V142.905H197.39V143.598H193.536V146.129H197.138V146.822H193.536V149.646Z" fill="#24386C"/>
<path d="M199.416 145.425C199.426 145.562 199.437 145.688 199.437 145.824C199.437 145.95 199.447 146.087 199.447 146.223H199.468C199.542 146.087 199.647 145.971 199.762 145.856C199.878 145.74 200.014 145.646 200.161 145.562C200.308 145.478 200.466 145.415 200.634 145.373C200.802 145.331 200.959 145.299 201.117 145.299C201.747 145.299 202.209 145.467 202.513 145.793C202.818 146.129 202.965 146.601 202.965 147.221V150.339H202.272V147.62C202.272 147.074 202.177 146.654 201.988 146.36C201.799 146.066 201.453 145.919 200.938 145.919C200.907 145.919 200.802 145.929 200.644 145.961C200.487 145.992 200.308 146.066 200.13 146.192C199.951 146.318 199.794 146.507 199.647 146.759C199.51 147.011 199.437 147.357 199.437 147.809V150.329H198.744V146.496C198.744 146.36 198.733 146.192 198.723 145.992C198.712 145.793 198.702 145.593 198.681 145.415H199.416V145.425Z" fill="#24386C"/>
<path d="M208.162 146.58C208.047 146.402 207.879 146.244 207.669 146.118C207.459 145.992 207.217 145.929 206.934 145.929C206.65 145.919 206.388 145.971 206.167 146.066C205.936 146.16 205.747 146.297 205.59 146.475C205.432 146.654 205.306 146.864 205.222 147.095C205.138 147.336 205.096 147.599 205.096 147.882C205.096 148.166 205.138 148.418 205.222 148.67C205.306 148.911 205.432 149.121 205.59 149.289C205.747 149.468 205.947 149.604 206.167 149.699C206.398 149.793 206.65 149.846 206.934 149.835C207.207 149.835 207.448 149.772 207.669 149.646C207.879 149.52 208.047 149.363 208.162 149.184L208.729 149.615C208.488 149.898 208.204 150.108 207.9 150.245C207.595 150.381 207.27 150.455 206.934 150.465C206.535 150.476 206.178 150.413 205.852 150.287C205.527 150.161 205.254 149.982 205.023 149.751C204.792 149.52 204.624 149.247 204.498 148.922C204.382 148.607 204.319 148.26 204.319 147.882C204.319 147.504 204.382 147.168 204.498 146.843C204.613 146.528 204.792 146.255 205.023 146.024C205.254 145.793 205.527 145.614 205.852 145.478C206.178 145.352 206.535 145.289 206.934 145.299C207.27 145.31 207.595 145.383 207.9 145.52C208.204 145.656 208.488 145.866 208.729 146.15L208.162 146.58Z" fill="#24386C"/>
<path d="M214.62 147.882C214.62 148.25 214.557 148.596 214.431 148.911C214.305 149.226 214.127 149.499 213.896 149.73C213.665 149.961 213.392 150.14 213.066 150.276C212.751 150.402 212.394 150.465 212.006 150.465C211.628 150.465 211.281 150.402 210.966 150.276C210.651 150.15 210.368 149.972 210.137 149.73C209.906 149.499 209.727 149.226 209.591 148.911C209.465 148.596 209.402 148.25 209.402 147.882C209.402 147.515 209.465 147.168 209.591 146.853C209.717 146.538 209.895 146.265 210.137 146.034C210.368 145.803 210.641 145.625 210.966 145.488C211.281 145.362 211.628 145.299 212.006 145.299C212.394 145.299 212.741 145.362 213.066 145.488C213.381 145.614 213.654 145.803 213.896 146.034C214.127 146.265 214.305 146.538 214.431 146.853C214.547 147.168 214.62 147.504 214.62 147.882ZM213.864 147.882C213.864 147.609 213.822 147.357 213.738 147.116C213.654 146.874 213.528 146.675 213.371 146.496C213.213 146.318 213.014 146.181 212.783 146.087C212.552 145.982 212.3 145.929 212.006 145.929C211.712 145.929 211.46 145.982 211.239 146.087C211.019 146.192 210.819 146.328 210.662 146.496C210.504 146.675 210.378 146.874 210.294 147.116C210.21 147.357 210.168 147.609 210.168 147.882C210.168 148.155 210.21 148.407 210.294 148.649C210.378 148.89 210.504 149.09 210.662 149.268C210.819 149.447 211.008 149.583 211.239 149.678C211.47 149.772 211.722 149.835 212.006 149.835C212.289 149.835 212.552 149.783 212.783 149.678C213.014 149.573 213.203 149.436 213.371 149.268C213.528 149.09 213.654 148.89 213.738 148.649C213.822 148.407 213.864 148.155 213.864 147.882Z" fill="#24386C"/>
<path d="M220.784 150.339H220.091V149.52H220.07C219.954 149.688 219.828 149.835 219.671 149.951C219.513 150.066 219.356 150.171 219.188 150.245C219.02 150.318 218.852 150.381 218.673 150.413C218.495 150.444 218.327 150.465 218.159 150.465C217.77 150.465 217.424 150.402 217.109 150.276C216.794 150.15 216.51 149.972 216.279 149.73C216.048 149.499 215.87 149.226 215.733 148.911C215.607 148.596 215.544 148.25 215.544 147.882C215.544 147.515 215.607 147.168 215.733 146.853C215.859 146.538 216.038 146.265 216.279 146.034C216.51 145.803 216.783 145.625 217.109 145.488C217.424 145.362 217.781 145.299 218.159 145.299C218.316 145.299 218.495 145.32 218.673 145.352C218.852 145.383 219.02 145.446 219.188 145.52C219.356 145.593 219.513 145.698 219.671 145.814C219.828 145.929 219.954 146.076 220.07 146.244H220.091V142.401H220.784V150.339ZM216.29 147.882C216.29 148.155 216.332 148.407 216.416 148.649C216.5 148.89 216.626 149.09 216.794 149.268C216.951 149.447 217.151 149.583 217.371 149.678C217.592 149.772 217.854 149.835 218.148 149.835C218.432 149.835 218.684 149.783 218.936 149.678C219.188 149.573 219.387 149.436 219.555 149.268C219.734 149.09 219.87 148.89 219.965 148.649C220.059 148.407 220.112 148.155 220.112 147.882C220.112 147.609 220.059 147.357 219.965 147.116C219.87 146.874 219.734 146.675 219.555 146.496C219.377 146.318 219.177 146.181 218.936 146.087C218.694 145.992 218.432 145.929 218.148 145.929C217.865 145.929 217.602 145.982 217.371 146.087C217.14 146.192 216.951 146.328 216.794 146.496C216.636 146.675 216.51 146.874 216.416 147.116C216.342 147.347 216.29 147.609 216.29 147.882Z" fill="#24386C"/>
<path d="M222.768 148.071C222.789 148.313 222.852 148.544 222.946 148.764C223.041 148.985 223.177 149.163 223.335 149.331C223.492 149.489 223.681 149.615 223.891 149.709C224.101 149.804 224.332 149.846 224.574 149.846C224.941 149.846 225.267 149.762 225.529 149.583C225.802 149.415 226.002 149.216 226.149 148.985L226.684 149.426C226.39 149.793 226.065 150.066 225.708 150.224C225.351 150.381 224.973 150.465 224.574 150.465C224.206 150.465 223.87 150.402 223.566 150.276C223.251 150.15 222.988 149.972 222.757 149.73C222.537 149.499 222.358 149.226 222.232 148.911C222.106 148.596 222.043 148.25 222.043 147.882C222.043 147.515 222.106 147.168 222.232 146.853C222.358 146.538 222.537 146.265 222.757 146.034C222.978 145.803 223.24 145.625 223.545 145.488C223.849 145.362 224.175 145.299 224.521 145.299C224.889 145.299 225.225 145.362 225.519 145.499C225.813 145.635 226.054 145.803 226.264 146.024C226.474 146.244 226.611 146.507 226.716 146.801C226.821 147.095 226.873 147.42 226.873 147.756V148.071H222.768ZM226.107 147.504C226.107 147.032 225.97 146.654 225.687 146.37C225.403 146.076 225.015 145.929 224.511 145.929C224.29 145.929 224.07 145.971 223.86 146.055C223.65 146.139 223.461 146.265 223.303 146.402C223.146 146.549 223.02 146.717 222.925 146.906C222.831 147.095 222.789 147.294 222.789 147.494H226.107V147.504Z" fill="#24386C"/>
<path d="M228.197 146.958C228.197 146.738 228.197 146.517 228.186 146.297C228.176 146.076 228.165 145.782 228.165 145.425H228.848V146.339H228.869C228.921 146.202 228.984 146.076 229.079 145.95C229.173 145.824 229.278 145.719 229.415 145.614C229.541 145.52 229.698 145.436 229.866 145.383C230.034 145.32 230.234 145.299 230.444 145.299C230.643 145.299 230.811 145.32 230.958 145.362L230.822 146.045C230.727 146.013 230.601 145.992 230.423 145.992C230.16 145.992 229.929 146.045 229.74 146.139C229.551 146.244 229.394 146.37 229.268 146.528C229.142 146.685 229.047 146.853 228.995 147.042C228.932 147.221 228.9 147.399 228.9 147.567V150.339H228.207V146.958H228.197Z" fill="#24386C"/>
<path d="M91.7385 133.161C123.633 133.161 149.489 107.306 149.489 75.4111C149.489 43.5167 123.633 17.6611 91.7385 17.6611C59.8441 17.6611 33.9885 43.5167 33.9885 75.4111C33.9885 107.306 59.8441 133.161 91.7385 133.161Z" fill="#D9E2FF"/>
<path d="M299.407 127.47C325.503 127.47 346.657 106.315 346.657 80.22C346.657 54.1245 325.503 32.97 299.407 32.97C273.312 32.97 252.157 54.1245 252.157 80.22C252.157 106.315 273.312 127.47 299.407 127.47Z" fill="#D9E2FF"/>
<path d="M143.994 92.1663C144.617 91.3728 144.727 90.4188 144.239 90.0356C143.751 89.6523 142.85 89.9848 142.227 90.7783C141.603 91.5718 141.494 92.5258 141.982 92.9091C142.469 93.2924 143.37 92.9598 143.994 92.1663Z" fill="#7D8CB5"/>
<path d="M259.396 96.5087C259.981 96.3012 260.181 95.3622 259.844 94.4113C259.507 93.4604 258.759 92.8577 258.174 93.0652C257.59 93.2727 257.389 94.2118 257.726 95.1627C258.064 96.1136 258.811 96.7162 259.396 96.5087Z" fill="#7D8CB5"/>
<path d="M226.905 129.98C226.842 126.063 227.787 102.617 259.329 94.6156" stroke="#C91540" stroke-width="1.05" stroke-miterlimit="10" stroke-linecap="round"/>
<path d="M160.713 129.938C159.579 125.202 144.826 127.785 148.648 111.846C151.221 101.147 147.262 94.8256 142.632 91.1821" stroke="#67C87A" stroke-width="1.05" stroke-miterlimit="10"/>
<path d="M284.382 88.6621C287.007 88.6621 289.474 87.8641 291.522 86.5096L298.756 93.7651C299.239 94.2271 299.848 94.4581 300.51 94.4581C301.885 94.4581 302.893 93.3871 302.893 92.0326C302.893 91.4026 302.683 90.7936 302.211 90.3316L295.029 83.1181C296.52 81.0076 297.391 78.4456 297.391 75.6736C297.391 68.5231 291.543 62.6746 284.392 62.6746C277.252 62.6746 271.393 68.5231 271.393 75.6736C271.372 82.8136 277.221 88.6621 284.382 88.6621ZM284.382 85.1971C279.142 85.1971 274.848 80.9026 274.848 75.6631C274.848 70.4236 279.142 66.1291 284.382 66.1291C289.621 66.1291 293.916 70.4236 293.916 75.6631C293.905 80.9026 289.611 85.1971 284.382 85.1971Z" fill="#7D8CB5"/>
<path d="M284.382 88.0426C287.007 88.0426 289.474 87.2446 291.522 85.8901L298.756 93.1456C299.239 93.6076 299.848 93.8386 300.51 93.8386C301.885 93.8386 302.893 92.7676 302.893 91.4131C302.893 90.7831 302.683 90.1741 302.211 89.7121L295.029 82.4986C296.52 80.3881 297.391 77.8261 297.391 75.0541C297.391 67.9036 291.543 62.0551 284.392 62.0551C277.252 62.0551 271.393 67.9036 271.393 75.0541C271.372 82.1941 277.221 88.0426 284.382 88.0426ZM284.382 84.5776C279.142 84.5776 274.848 80.2831 274.848 75.0436C274.848 69.8041 279.142 65.5096 284.382 65.5096C289.621 65.5096 293.916 69.8041 293.916 75.0436C293.905 80.2831 289.611 84.5776 284.382 84.5776Z" fill="white"/>
<path d="M73.8885 90.531C73.8885 94.248 75.81 96.1695 79.4745 96.1695H95.508C99.1725 96.1695 101.094 94.2375 101.094 90.531V87.36H104.003C107.667 87.36 109.589 85.428 109.589 81.7215V68.1765C109.589 65.919 109.106 64.4805 107.751 63.084L99.225 54.39C97.923 53.067 96.3795 52.5525 94.416 52.5525H87.9795C84.315 52.5525 82.3935 54.4845 82.3935 58.2015V61.3515H79.485C75.8205 61.3515 73.899 63.3045 73.899 67.0005V90.531H73.8885ZM99.3615 72.513L90.0795 63.0945C88.7775 61.7715 87.6645 61.4145 85.7955 61.383V58.422C85.7955 56.868 86.6145 55.986 88.263 55.986H95.403V64.1235C95.403 66.2445 96.5371 67.3575 98.6371 67.3575H106.155V81.5115C106.155 83.0865 105.336 83.958 103.688 83.958H101.084V77.385C101.094 75.0645 100.8 73.983 99.3615 72.513ZM98.238 63.693V57.372L105.284 64.533H99.078C98.469 64.5225 98.238 64.2915 98.238 63.693ZM77.301 90.3105V67.2315C77.301 65.6565 78.12 64.785 79.7895 64.785H85.0185V74.109C85.0185 76.5975 86.2366 77.7945 88.7041 77.7945H97.7026V90.321C97.7026 91.896 96.8835 92.7675 95.214 92.7675H79.7791C78.1201 92.757 77.301 91.8855 77.301 90.3105ZM89.019 74.7915C88.3155 74.7915 88.011 74.4975 88.011 73.7835V65.436L97.23 74.7915H89.019Z" fill="#7D8CB5"/>
<path d="M73.8885 89.5126C73.8885 93.2296 75.81 95.1511 79.4745 95.1511H95.508C99.1725 95.1511 101.094 93.2191 101.094 89.5126V86.3416H104.003C107.667 86.3416 109.589 84.4096 109.589 80.7031V67.1581C109.589 64.9006 109.106 63.4621 107.751 62.0656L99.225 53.3611C97.923 52.0381 96.3795 51.5236 94.416 51.5236H87.9795C84.315 51.5236 82.3935 53.4556 82.3935 57.1726V60.3226H79.485C75.8205 60.3226 73.899 62.2756 73.899 65.9716V89.5126H73.8885ZM99.3615 71.4841L90.0795 62.0656C88.7775 60.7426 87.6645 60.3856 85.7955 60.3541V57.3931C85.7955 55.8391 86.6145 54.9571 88.263 54.9571H95.403V63.0946C95.403 65.2156 96.5371 66.3286 98.6371 66.3286H106.155V80.4826C106.155 82.0576 105.336 82.9291 103.688 82.9291H101.084V76.3561C101.094 74.0356 100.8 72.9646 99.3615 71.4841ZM98.238 62.6641V56.3431L105.284 63.5041H99.078C98.469 63.5041 98.238 63.2626 98.238 62.6641ZM77.301 89.2816V66.2131C77.301 64.6381 78.12 63.7666 79.7895 63.7666H85.0185V73.0906C85.0185 75.5791 86.2366 76.7761 88.7041 76.7761H97.7026V89.3026C97.7026 90.8776 96.8835 91.7491 95.214 91.7491H79.7791C78.1201 91.7386 77.301 90.8566 77.301 89.2816ZM89.019 73.7626C88.3155 73.7626 88.011 73.4686 88.011 72.7546V64.4071L97.23 73.7626H89.019Z" fill="white"/>
<path opacity="0.3" fill-rule="evenodd" clip-rule="evenodd" d="M232.827 158.634H154.875C148.344 158.634 143.052 153.342 143.052 146.811C143.052 140.28 148.344 134.988 154.875 134.988H232.816C239.347 134.988 244.639 140.28 244.639 146.811C244.65 153.342 239.358 158.634 232.827 158.634Z" stroke="#B2BFE8" stroke-width="1.05" stroke-miterlimit="10"/>
<path d="M161.889 129.654H159.673V130.536H161.889V129.654Z" fill="black"/>
<path d="M228.039 129.654H225.823V130.536H228.039V129.654Z" fill="black"/>
<path fill-rule="evenodd" clip-rule="evenodd" d="M211.764 224.879V204.656L220.783 199.448V240.209L211.764 245.417V224.879Z" fill="#24386C"/>
<path fill-rule="evenodd" clip-rule="evenodd" d="M220.794 199.448L211.775 204.656L203.018 199.605L194.261 194.555L185.504 199.605L176.747 204.656L167.727 199.448L180.999 191.783L194.271 184.118L207.543 191.783L220.794 199.448Z" fill="#778ABF"/>
<path fill-rule="evenodd" clip-rule="evenodd" d="M167.706 199.448L176.725 204.656V224.879L185.482 229.929L194.239 234.98V245.396L180.967 237.731L167.695 230.066V199.448" fill="#B2BFE8"/>
<path fill-rule="evenodd" clip-rule="evenodd" d="M202.744 230.087L194.25 234.99V245.406L202.744 240.503V230.087Z" fill="#24386C"/>
<path fill-rule="evenodd" clip-rule="evenodd" d="M194.25 214.767L185.755 209.874L194.25 204.971L202.744 209.874L194.25 214.767Z" fill="#778ABF"/>
<path fill-rule="evenodd" clip-rule="evenodd" d="M185.755 209.874L194.25 214.767V224.574L185.755 219.671V209.874Z" fill="#B2BFE8"/>
<path fill-rule="evenodd" clip-rule="evenodd" d="M194.25 214.767L202.744 209.864V219.66L194.25 224.564V214.767Z" fill="#24386C"/>
<path fill-rule="evenodd" clip-rule="evenodd" d="M202.744 240.513L211.764 245.417V204.666L203.007 199.616L194.25 194.565L185.493 199.616L176.736 204.666V224.889L185.493 229.94L194.25 234.99L202.744 230.087V240.513ZM202.744 219.671L194.25 224.574L185.755 219.671V209.874L194.25 204.971L202.744 209.874V219.671Z" fill="#DC244C"/>
<path fill-rule="evenodd" clip-rule="evenodd" d="M157.101 262.007H164.451V267.782C164.451 268.937 163.506 269.882 162.351 269.882H159.201C158.046 269.882 157.101 268.937 157.101 267.782V262.007Z" fill="#67C87A"/>
<path fill-rule="evenodd" clip-rule="evenodd" d="M223.251 262.007H230.601V267.782C230.601 268.937 229.656 269.882 228.501 269.882H225.351C224.196 269.882 223.251 268.937 223.251 267.782V262.007Z" fill="#DC244C"/>
<path fill-rule="evenodd" clip-rule="evenodd" d="M139.849 341.754H48.132C34.6395 341.754 23.6985 330.813 23.6985 317.321C23.6985 303.828 34.6395 292.887 48.132 292.887H139.849C153.342 292.887 164.283 303.828 164.283 317.321C164.283 330.813 153.342 341.754 139.849 341.754Z" fill="#D9E2FF"/>
<path fill-rule="evenodd" clip-rule="evenodd" d="M341.649 362.88H250.057C233.068 362.88 219.303 349.104 219.303 332.126C219.303 315.137 233.079 301.371 250.057 301.371H341.649C358.638 301.371 372.403 315.147 372.403 332.126C372.403 349.115 358.638 362.88 341.649 362.88Z" fill="#D9E2FF"/>
<path d="M226.905 270.375C226.863 273.147 230.233 292.709 241.909 286.367C258.163 277.547 270.228 286.734 270.784 299.786C270.858 301.466 270.732 303.219 270.406 305.004" stroke="#C91540" stroke-width="1.05" stroke-miterlimit="10" stroke-linecap="round"/>
<path d="M160.776 269.882C160.776 269.882 159.936 288.435 136.857 285.737C120.907 283.878 106.722 283.479 100.254 290.693C98.9625 292.131 97.986 293.864 97.356 295.953" stroke="#67C87A" stroke-width="1.05" stroke-miterlimit="10" stroke-linecap="round"/>
<path d="M228.039 269.882H225.823V270.764H228.039V269.882Z" fill="black"/>
<path d="M162.025 269.882H159.81V270.764H162.025V269.882Z" fill="black"/>
<path d="M293.223 329.333H292.467V322.592H289.978V321.899H295.711V322.592H293.223V329.333Z" fill="#24386C"/>
<path d="M301.581 326.876C301.581 327.243 301.518 327.59 301.392 327.905C301.266 328.22 301.087 328.493 300.846 328.724C300.615 328.955 300.342 329.133 300.016 329.259C299.701 329.385 299.344 329.459 298.966 329.459C298.588 329.459 298.242 329.396 297.916 329.259C297.601 329.133 297.328 328.955 297.097 328.724C296.866 328.493 296.688 328.22 296.551 327.905C296.415 327.59 296.362 327.243 296.362 326.876C296.362 326.508 296.425 326.162 296.551 325.847C296.677 325.532 296.856 325.259 297.097 325.028C297.328 324.797 297.601 324.618 297.916 324.492C298.231 324.366 298.588 324.303 298.966 324.303C299.355 324.303 299.701 324.366 300.016 324.492C300.331 324.618 300.615 324.797 300.846 325.028C301.077 325.259 301.255 325.532 301.392 325.847C301.518 326.162 301.581 326.508 301.581 326.876ZM300.825 326.876C300.825 326.603 300.783 326.351 300.699 326.109C300.615 325.868 300.489 325.668 300.321 325.49C300.153 325.311 299.964 325.175 299.743 325.07C299.512 324.965 299.26 324.923 298.966 324.923C298.672 324.923 298.42 324.975 298.2 325.07C297.969 325.175 297.78 325.311 297.622 325.49C297.465 325.668 297.339 325.868 297.255 326.109C297.171 326.351 297.129 326.603 297.129 326.876C297.129 327.149 297.171 327.401 297.255 327.642C297.339 327.884 297.465 328.083 297.622 328.262C297.78 328.44 297.969 328.577 298.2 328.682C298.431 328.787 298.683 328.829 298.966 328.829C299.25 328.829 299.512 328.776 299.743 328.682C299.974 328.587 300.163 328.44 300.321 328.262C300.478 328.083 300.604 327.884 300.699 327.642C300.783 327.401 300.825 327.149 300.825 326.876Z" fill="#24386C"/>
<path d="M302.841 324.419H303.534V325.238H303.555C303.67 325.07 303.796 324.923 303.954 324.807C304.111 324.692 304.269 324.587 304.437 324.513C304.605 324.44 304.783 324.377 304.962 324.345C305.14 324.314 305.308 324.293 305.476 324.293C305.865 324.293 306.211 324.356 306.526 324.482C306.841 324.608 307.114 324.786 307.345 325.017C307.576 325.248 307.755 325.521 307.891 325.836C308.017 326.151 308.08 326.498 308.08 326.865C308.08 327.233 308.017 327.579 307.891 327.894C307.765 328.209 307.587 328.482 307.345 328.713C307.114 328.944 306.841 329.123 306.526 329.249C306.211 329.375 305.854 329.448 305.476 329.448C305.319 329.448 305.14 329.427 304.962 329.396C304.783 329.364 304.615 329.301 304.437 329.228C304.258 329.154 304.111 329.049 303.954 328.934C303.796 328.818 303.67 328.671 303.555 328.503H303.534V332.346H302.841V324.419ZM307.324 326.876C307.324 326.603 307.282 326.351 307.198 326.109C307.114 325.868 306.988 325.668 306.82 325.49C306.652 325.311 306.463 325.175 306.243 325.07C306.012 324.965 305.76 324.923 305.476 324.923C305.193 324.923 304.93 324.975 304.689 325.07C304.447 325.175 304.248 325.311 304.069 325.49C303.891 325.668 303.754 325.868 303.66 326.109C303.565 326.351 303.513 326.603 303.513 326.876C303.513 327.149 303.565 327.401 303.66 327.642C303.754 327.884 303.891 328.083 304.069 328.262C304.248 328.44 304.447 328.577 304.689 328.682C304.93 328.787 305.193 328.829 305.476 328.829C305.76 328.829 306.022 328.776 306.243 328.682C306.463 328.587 306.663 328.44 306.82 328.262C306.978 328.083 307.104 327.884 307.198 327.642C307.293 327.401 307.324 327.149 307.324 326.876Z" fill="#24386C"/>
<path d="M315.945 323.127C315.619 322.644 315.136 322.403 314.506 322.403C314.307 322.403 314.118 322.434 313.929 322.487C313.74 322.539 313.572 322.623 313.414 322.728C313.267 322.833 313.141 322.98 313.057 323.148C312.963 323.316 312.921 323.526 312.921 323.757C312.921 324.093 313.015 324.356 313.204 324.545C313.393 324.734 313.624 324.881 313.908 324.996C314.191 325.112 314.496 325.227 314.832 325.322C315.168 325.416 315.472 325.542 315.756 325.7C316.039 325.857 316.27 326.067 316.459 326.33C316.648 326.592 316.743 326.939 316.743 327.39C316.743 327.726 316.669 328.031 316.522 328.304C316.375 328.577 316.186 328.797 315.955 328.976C315.724 329.154 315.462 329.301 315.168 329.396C314.874 329.49 314.59 329.543 314.296 329.543C313.845 329.543 313.414 329.459 313.005 329.28C312.595 329.112 312.249 328.829 311.955 328.44L312.648 327.947C312.805 328.22 313.036 328.44 313.32 328.598C313.603 328.766 313.939 328.839 314.338 328.839C314.527 328.839 314.716 328.808 314.905 328.755C315.094 328.703 315.262 328.608 315.409 328.493C315.556 328.377 315.682 328.23 315.777 328.062C315.871 327.894 315.924 327.705 315.924 327.485C315.924 327.222 315.871 327.012 315.766 326.844C315.661 326.676 315.514 326.529 315.336 326.414C315.157 326.298 314.958 326.204 314.727 326.12C314.496 326.036 314.265 325.962 314.023 325.889C313.782 325.815 313.551 325.721 313.32 325.626C313.089 325.532 312.889 325.406 312.711 325.248C312.532 325.101 312.385 324.912 312.28 324.681C312.175 324.45 312.112 324.167 312.112 323.831C312.112 323.474 312.186 323.159 312.322 322.896C312.459 322.634 312.637 322.413 312.868 322.235C313.099 322.056 313.351 321.93 313.635 321.846C313.918 321.762 314.212 321.72 314.517 321.72C314.937 321.72 315.315 321.783 315.661 321.92C316.008 322.056 316.323 322.287 316.617 322.623L315.945 323.127Z" fill="#24386C"/>
<path d="M321.594 325.574C321.478 325.395 321.31 325.238 321.1 325.112C320.89 324.986 320.649 324.923 320.365 324.923C320.082 324.912 319.819 324.965 319.599 325.059C319.368 325.154 319.179 325.29 319.011 325.469C318.853 325.647 318.727 325.857 318.643 326.099C318.559 326.34 318.517 326.603 318.517 326.886C318.517 327.17 318.559 327.422 318.643 327.663C318.727 327.905 318.853 328.115 319.011 328.293C319.168 328.472 319.368 328.608 319.599 328.703C319.83 328.797 320.082 328.85 320.365 328.839C320.638 328.839 320.88 328.776 321.1 328.65C321.321 328.524 321.478 328.367 321.594 328.188L322.161 328.619C321.919 328.902 321.636 329.123 321.331 329.259C321.027 329.396 320.701 329.469 320.365 329.48C319.966 329.49 319.609 329.427 319.284 329.291C318.958 329.165 318.685 328.986 318.454 328.755C318.223 328.524 318.055 328.251 317.929 327.926C317.814 327.611 317.751 327.264 317.751 326.897C317.751 326.529 317.814 326.183 317.929 325.857C318.045 325.532 318.223 325.259 318.454 325.028C318.685 324.797 318.958 324.618 319.284 324.492C319.609 324.366 319.966 324.303 320.365 324.314C320.701 324.324 321.027 324.387 321.331 324.524C321.636 324.66 321.919 324.87 322.161 325.164L321.594 325.574Z" fill="#24386C"/>
<path d="M328.041 326.876C328.041 327.243 327.978 327.59 327.841 327.905C327.705 328.22 327.537 328.493 327.306 328.724C327.075 328.955 326.802 329.133 326.476 329.259C326.161 329.385 325.804 329.459 325.426 329.459C325.048 329.459 324.702 329.396 324.376 329.259C324.061 329.133 323.778 328.955 323.547 328.724C323.316 328.493 323.137 328.22 323.011 327.905C322.885 327.59 322.812 327.243 322.812 326.876C322.812 326.508 322.875 326.162 323.011 325.847C323.137 325.532 323.316 325.259 323.547 325.028C323.778 324.797 324.051 324.618 324.376 324.492C324.691 324.366 325.038 324.303 325.426 324.303C325.815 324.303 326.161 324.366 326.476 324.492C326.791 324.618 327.064 324.797 327.306 325.028C327.537 325.259 327.715 325.532 327.841 325.847C327.967 326.162 328.041 326.508 328.041 326.876ZM327.285 326.876C327.285 326.603 327.243 326.351 327.159 326.109C327.075 325.868 326.949 325.668 326.791 325.49C326.634 325.311 326.434 325.175 326.203 325.07C325.972 324.965 325.72 324.923 325.437 324.923C325.153 324.923 324.891 324.975 324.66 325.07C324.429 325.175 324.24 325.311 324.082 325.49C323.925 325.668 323.799 325.868 323.715 326.109C323.631 326.351 323.589 326.603 323.589 326.876C323.589 327.149 323.631 327.401 323.715 327.642C323.799 327.884 323.925 328.083 324.082 328.262C324.24 328.44 324.429 328.577 324.66 328.682C324.891 328.787 325.143 328.829 325.437 328.829C325.731 328.829 325.983 328.776 326.203 328.682C326.434 328.577 326.623 328.44 326.791 328.262C326.949 328.083 327.075 327.884 327.159 327.642C327.243 327.401 327.285 327.149 327.285 326.876Z" fill="#24386C"/>
<path d="M329.374 325.952C329.374 325.731 329.374 325.511 329.353 325.29C329.343 325.07 329.332 324.776 329.332 324.419H330.015V325.332H330.036C330.088 325.196 330.151 325.07 330.246 324.954C330.34 324.828 330.445 324.723 330.571 324.618C330.697 324.513 330.855 324.44 331.023 324.387C331.191 324.324 331.39 324.303 331.6 324.303C331.8 324.303 331.968 324.324 332.115 324.366L331.978 325.049C331.884 325.017 331.758 324.996 331.579 324.996C331.317 324.996 331.086 325.049 330.897 325.154C330.708 325.259 330.55 325.385 330.424 325.542C330.298 325.7 330.204 325.868 330.151 326.046C330.088 326.225 330.067 326.403 330.067 326.571V329.343H329.374V325.952Z" fill="#24386C"/>
<path d="M333.27 327.065C333.291 327.306 333.354 327.537 333.448 327.758C333.543 327.978 333.679 328.157 333.837 328.325C333.994 328.482 334.183 328.608 334.393 328.692C334.603 328.776 334.834 328.829 335.076 328.829C335.443 328.829 335.769 328.745 336.042 328.566C336.315 328.398 336.514 328.199 336.651 327.978L337.186 328.419C336.892 328.787 336.567 329.06 336.22 329.217C335.874 329.375 335.485 329.459 335.086 329.459C334.719 329.459 334.383 329.396 334.078 329.259C333.763 329.133 333.501 328.955 333.27 328.724C333.049 328.493 332.871 328.22 332.745 327.905C332.619 327.59 332.556 327.243 332.556 326.876C332.556 326.508 332.619 326.162 332.745 325.847C332.871 325.532 333.049 325.259 333.27 325.028C333.49 324.797 333.753 324.618 334.057 324.492C334.362 324.366 334.687 324.303 335.034 324.303C335.401 324.303 335.737 324.366 336.031 324.503C336.325 324.639 336.577 324.807 336.777 325.028C336.976 325.248 337.123 325.511 337.239 325.805C337.344 326.099 337.396 326.414 337.396 326.76V327.075H333.27V327.065ZM336.609 326.498C336.609 326.025 336.472 325.647 336.189 325.364C335.905 325.08 335.517 324.923 335.013 324.923C334.792 324.923 334.572 324.965 334.362 325.049C334.152 325.133 333.963 325.259 333.805 325.395C333.648 325.532 333.522 325.71 333.427 325.899C333.333 326.088 333.291 326.288 333.291 326.487H336.609V326.498Z" fill="#24386C"/>
<path d="M343.528 329.333H342.835V328.514H342.814C342.699 328.682 342.573 328.829 342.415 328.944C342.258 329.06 342.1 329.165 341.932 329.238C341.764 329.312 341.586 329.375 341.407 329.406C341.229 329.438 341.061 329.459 340.893 329.459C340.504 329.459 340.158 329.396 339.843 329.259C339.528 329.123 339.244 328.955 339.013 328.724C338.782 328.493 338.604 328.22 338.478 327.905C338.352 327.59 338.278 327.243 338.278 326.876C338.278 326.508 338.341 326.162 338.478 325.847C338.604 325.532 338.782 325.259 339.013 325.028C339.244 324.797 339.517 324.618 339.843 324.492C340.168 324.366 340.515 324.303 340.893 324.303C341.05 324.303 341.229 324.324 341.407 324.356C341.586 324.387 341.754 324.45 341.932 324.524C342.1 324.597 342.258 324.702 342.415 324.818C342.573 324.933 342.699 325.08 342.814 325.248H342.835V321.405H343.528V329.333ZM339.045 326.876C339.045 327.149 339.087 327.401 339.171 327.642C339.255 327.884 339.381 328.083 339.538 328.262C339.696 328.44 339.895 328.577 340.116 328.682C340.347 328.787 340.599 328.829 340.893 328.829C341.176 328.829 341.428 328.776 341.68 328.682C341.932 328.587 342.132 328.44 342.3 328.262C342.478 328.083 342.615 327.884 342.709 327.642C342.804 327.401 342.856 327.149 342.856 326.876C342.856 326.603 342.804 326.351 342.709 326.109C342.615 325.868 342.478 325.668 342.3 325.49C342.121 325.311 341.922 325.175 341.68 325.07C341.439 324.965 341.176 324.923 340.893 324.923C340.609 324.923 340.347 324.975 340.116 325.07C339.885 325.175 339.696 325.311 339.538 325.49C339.381 325.668 339.255 325.868 339.171 326.109C339.087 326.351 339.045 326.603 339.045 326.876Z" fill="#24386C"/>
<path d="M291.217 334.499H293.685C294.147 334.499 294.609 334.572 295.081 334.73C295.554 334.887 295.963 335.118 296.341 335.433C296.719 335.748 297.024 336.137 297.255 336.599C297.486 337.061 297.601 337.607 297.601 338.216C297.601 338.835 297.486 339.381 297.255 339.843C297.024 340.305 296.719 340.694 296.341 341.009C295.963 341.324 295.543 341.555 295.081 341.702C294.619 341.859 294.147 341.933 293.685 341.933H291.217V334.499ZM291.973 341.24H293.443C294.01 341.24 294.504 341.156 294.924 340.977C295.344 340.799 295.69 340.578 295.963 340.295C296.236 340.011 296.446 339.686 296.572 339.329C296.709 338.972 296.772 338.594 296.772 338.216C296.772 337.827 296.709 337.46 296.572 337.092C296.436 336.735 296.236 336.41 295.963 336.126C295.69 335.843 295.344 335.612 294.924 335.444C294.504 335.276 294.01 335.181 293.443 335.181H291.973V341.24Z" fill="#24386C"/>
<path d="M303.817 339.476C303.817 339.843 303.754 340.19 303.618 340.505C303.481 340.82 303.313 341.093 303.082 341.324C302.851 341.555 302.578 341.733 302.253 341.859C301.938 341.985 301.581 342.059 301.203 342.059C300.825 342.059 300.478 341.996 300.153 341.859C299.838 341.733 299.554 341.555 299.323 341.324C299.092 341.093 298.914 340.82 298.788 340.505C298.662 340.19 298.588 339.843 298.588 339.476C298.588 339.108 298.651 338.762 298.788 338.447C298.914 338.132 299.092 337.859 299.323 337.628C299.554 337.397 299.827 337.218 300.153 337.092C300.468 336.966 300.814 336.903 301.203 336.903C301.591 336.903 301.938 336.966 302.253 337.092C302.568 337.218 302.841 337.397 303.082 337.628C303.313 337.859 303.492 338.132 303.618 338.447C303.744 338.762 303.817 339.108 303.817 339.476ZM303.061 339.476C303.061 339.203 303.019 338.951 302.935 338.709C302.851 338.468 302.725 338.268 302.568 338.09C302.41 337.911 302.211 337.775 301.98 337.67C301.749 337.565 301.497 337.523 301.213 337.523C300.93 337.523 300.667 337.575 300.436 337.67C300.205 337.775 300.016 337.911 299.859 338.09C299.701 338.268 299.575 338.468 299.491 338.709C299.407 338.951 299.365 339.203 299.365 339.476C299.365 339.749 299.407 340.001 299.491 340.242C299.575 340.484 299.701 340.683 299.859 340.862C300.016 341.04 300.205 341.177 300.436 341.282C300.667 341.387 300.919 341.429 301.213 341.429C301.507 341.429 301.759 341.376 301.98 341.282C302.211 341.177 302.4 341.04 302.568 340.862C302.725 340.683 302.851 340.484 302.935 340.242C303.019 340.001 303.061 339.749 303.061 339.476Z" fill="#24386C"/>
<path d="M308.658 338.174C308.542 337.995 308.374 337.838 308.154 337.712C307.944 337.586 307.702 337.523 307.429 337.523C307.146 337.512 306.883 337.565 306.652 337.659C306.421 337.754 306.232 337.89 306.075 338.069C305.917 338.247 305.791 338.457 305.707 338.699C305.623 338.94 305.581 339.203 305.581 339.486C305.581 339.77 305.623 340.022 305.707 340.263C305.791 340.505 305.917 340.715 306.075 340.893C306.232 341.072 306.432 341.208 306.652 341.303C306.883 341.397 307.135 341.45 307.429 341.439C307.702 341.439 307.944 341.376 308.154 341.25C308.364 341.124 308.532 340.967 308.658 340.788L309.225 341.219C308.983 341.502 308.7 341.723 308.395 341.859C308.091 341.996 307.765 342.069 307.429 342.08C307.03 342.09 306.673 342.027 306.348 341.891C306.022 341.765 305.749 341.586 305.518 341.355C305.287 341.124 305.119 340.851 304.993 340.526C304.878 340.211 304.815 339.864 304.815 339.497C304.815 339.129 304.878 338.783 304.993 338.457C305.109 338.132 305.287 337.859 305.518 337.628C305.749 337.397 306.022 337.218 306.348 337.092C306.673 336.966 307.03 336.903 307.429 336.914C307.765 336.924 308.091 336.987 308.395 337.124C308.7 337.26 308.983 337.47 309.225 337.764L308.658 338.174Z" fill="#24386C"/>
<path d="M313.687 341.933C313.677 341.796 313.666 341.67 313.666 341.534C313.666 341.408 313.656 341.271 313.656 341.135H313.635C313.561 341.271 313.456 341.387 313.341 341.502C313.225 341.618 313.089 341.712 312.942 341.796C312.795 341.88 312.637 341.943 312.469 341.985C312.301 342.027 312.144 342.059 311.986 342.059C311.356 342.059 310.894 341.891 310.59 341.555C310.285 341.219 310.138 340.746 310.138 340.137V337.019H310.831V339.738C310.831 340.011 310.852 340.253 310.894 340.463C310.936 340.673 311.01 340.851 311.115 340.988C311.22 341.124 311.356 341.24 311.524 341.313C311.692 341.387 311.913 341.418 312.165 341.418C312.196 341.418 312.301 341.408 312.459 341.376C312.616 341.345 312.795 341.271 312.973 341.145C313.152 341.019 313.309 340.83 313.456 340.578C313.593 340.326 313.666 339.98 313.666 339.528V337.008H314.359V340.841C314.359 340.977 314.359 341.145 314.38 341.345C314.391 341.544 314.401 341.744 314.412 341.922H313.687V341.933Z" fill="#24386C"/>
<path d="M315.976 338.111C315.976 337.932 315.966 337.743 315.955 337.565C315.945 337.386 315.934 337.197 315.913 337.019H316.659V337.764H316.68C316.848 337.481 317.079 337.26 317.383 337.113C317.677 336.966 317.971 336.893 318.265 336.893C318.402 336.893 318.538 336.903 318.696 336.935C318.843 336.966 318.99 337.008 319.137 337.082C319.273 337.155 319.41 337.26 319.536 337.386C319.662 337.523 319.756 337.691 319.84 337.901C319.977 337.586 320.197 337.334 320.502 337.155C320.806 336.977 321.121 336.882 321.457 336.882C322.087 336.882 322.549 337.05 322.854 337.376C323.158 337.712 323.305 338.184 323.305 338.793V341.912H322.612V339.045C322.612 338.552 322.528 338.163 322.35 337.901C322.171 337.638 321.846 337.502 321.373 337.502C321.111 337.502 320.901 337.554 320.722 337.649C320.544 337.754 320.407 337.89 320.292 338.058C320.176 338.226 320.103 338.415 320.061 338.625C320.019 338.835 319.987 339.066 319.987 339.287V341.901H319.294V339.035C319.294 338.541 319.21 338.153 319.032 337.89C318.853 337.628 318.528 337.491 318.055 337.491C318.013 337.491 317.919 337.502 317.761 337.533C317.614 337.565 317.457 337.638 317.299 337.764C317.142 337.89 316.995 338.079 316.858 338.331C316.732 338.583 316.659 338.93 316.659 339.381V341.901H315.966V338.111H315.976Z" fill="#24386C"/>
<path d="M325.406 339.665C325.427 339.906 325.49 340.137 325.584 340.358C325.679 340.578 325.815 340.757 325.973 340.925C326.13 341.082 326.319 341.208 326.529 341.292C326.739 341.376 326.97 341.429 327.212 341.429C327.579 341.429 327.905 341.345 328.178 341.166C328.451 340.998 328.65 340.799 328.787 340.578L329.322 341.019C329.028 341.387 328.703 341.66 328.356 341.817C328.01 341.975 327.621 342.059 327.222 342.059C326.855 342.059 326.519 341.996 326.214 341.859C325.899 341.733 325.637 341.555 325.406 341.324C325.185 341.093 325.007 340.82 324.881 340.505C324.755 340.19 324.692 339.843 324.692 339.476C324.692 339.108 324.755 338.762 324.881 338.447C325.007 338.132 325.185 337.859 325.406 337.628C325.626 337.397 325.889 337.218 326.193 337.092C326.498 336.966 326.823 336.903 327.17 336.903C327.537 336.903 327.873 336.966 328.167 337.103C328.461 337.239 328.713 337.407 328.913 337.628C329.112 337.848 329.259 338.111 329.375 338.405C329.48 338.699 329.532 339.014 329.532 339.36V339.675H325.406V339.665ZM328.745 339.098C328.745 338.625 328.608 338.247 328.325 337.964C328.041 337.68 327.653 337.523 327.149 337.523C326.928 337.523 326.708 337.565 326.498 337.649C326.288 337.733 326.099 337.859 325.941 337.995C325.784 338.132 325.658 338.31 325.563 338.499C325.469 338.688 325.427 338.888 325.427 339.087H328.745V339.098Z" fill="#24386C"/>
<path d="M331.422 337.019C331.433 337.155 331.443 337.281 331.454 337.418C331.454 337.544 331.454 337.68 331.454 337.817H331.475C331.548 337.68 331.653 337.565 331.769 337.449C331.884 337.334 332.021 337.239 332.168 337.155C332.315 337.071 332.472 337.008 332.64 336.966C332.808 336.924 332.966 336.903 333.123 336.903C333.753 336.903 334.215 337.071 334.52 337.397C334.824 337.733 334.971 338.205 334.971 338.814V341.933H334.278V339.213C334.278 338.667 334.184 338.247 333.995 337.953C333.806 337.659 333.459 337.512 332.945 337.512C332.913 337.512 332.808 337.523 332.651 337.554C332.493 337.586 332.325 337.659 332.147 337.785C331.968 337.911 331.811 338.1 331.664 338.352C331.527 338.604 331.454 338.951 331.454 339.402V341.922H330.761V338.1C330.761 337.964 330.761 337.796 330.75 337.596C330.74 337.397 330.729 337.197 330.708 337.019H331.422Z" fill="#24386C"/>
<path d="M339.139 337.649H337.722V340.547C337.722 340.725 337.743 340.883 337.774 340.988C337.806 341.103 337.858 341.198 337.921 341.25C337.984 341.313 338.058 341.355 338.142 341.376C338.226 341.397 338.32 341.418 338.436 341.418C338.551 341.418 338.677 341.397 338.803 341.366C338.929 341.334 339.045 341.282 339.15 341.229L339.181 341.87C338.919 341.985 338.614 342.048 338.247 342.048C338.11 342.048 337.974 342.027 337.837 341.996C337.69 341.964 337.564 341.891 337.438 341.796C337.312 341.702 337.218 341.565 337.144 341.397C337.071 341.229 337.029 341.009 337.029 340.736V337.638H335.989V337.008H337.029V335.622H337.722V337.008H339.139V337.649Z" fill="#24386C"/>
<path d="M342.688 338.184C342.583 337.985 342.447 337.817 342.268 337.701C342.09 337.586 341.88 337.523 341.628 337.523C341.512 337.523 341.386 337.533 341.271 337.565C341.155 337.596 341.04 337.638 340.935 337.691C340.84 337.754 340.756 337.827 340.704 337.911C340.651 337.995 340.62 338.111 340.62 338.247C340.62 338.478 340.704 338.646 340.861 338.751C341.019 338.856 341.26 338.951 341.586 339.024L342.289 339.192C342.636 339.266 342.919 339.423 343.15 339.665C343.381 339.906 343.497 340.19 343.497 340.536C343.497 340.799 343.444 341.03 343.329 341.229C343.213 341.429 343.077 341.576 342.898 341.702C342.72 341.828 342.51 341.912 342.289 341.964C342.058 342.017 341.827 342.048 341.586 342.048C341.208 342.048 340.851 341.975 340.536 341.828C340.21 341.681 339.927 341.439 339.706 341.082L340.305 340.673C340.441 340.893 340.62 341.072 340.83 341.208C341.04 341.345 341.302 341.408 341.596 341.408C341.733 341.408 341.88 341.397 342.016 341.366C342.153 341.334 342.279 341.282 342.394 341.219C342.51 341.156 342.594 341.061 342.657 340.956C342.72 340.851 342.751 340.725 342.751 340.589C342.751 340.347 342.657 340.169 342.478 340.053C342.3 339.948 342.079 339.864 341.817 339.801L341.145 339.644C341.061 339.623 340.945 339.591 340.798 339.539C340.651 339.486 340.515 339.413 340.378 339.318C340.242 339.224 340.126 339.098 340.032 338.94C339.937 338.783 339.885 338.594 339.885 338.352C339.885 338.1 339.937 337.88 340.032 337.691C340.137 337.502 340.273 337.344 340.441 337.229C340.609 337.113 340.809 337.019 341.019 336.966C341.239 336.903 341.46 336.882 341.691 336.882C342.037 336.882 342.352 336.945 342.646 337.082C342.94 337.218 343.171 337.439 343.329 337.764L342.688 338.184Z" fill="#24386C"/>
<path d="M98.133 313.961H97.377V306.527H98.133V313.961Z" fill="#24386C"/>
<path d="M100.558 309.047C100.569 309.183 100.579 309.309 100.579 309.446C100.579 309.572 100.579 309.708 100.579 309.845H100.6C100.674 309.708 100.779 309.593 100.894 309.477C101.01 309.362 101.146 309.267 101.293 309.183C101.44 309.099 101.598 309.036 101.755 308.994C101.923 308.952 102.081 308.921 102.249 308.921C102.879 308.921 103.341 309.089 103.645 309.414C103.95 309.75 104.097 310.223 104.097 310.842V313.961H103.404V311.241C103.404 310.695 103.309 310.275 103.12 309.981C102.931 309.687 102.585 309.54 102.07 309.54C102.039 309.54 101.934 309.551 101.776 309.582C101.619 309.614 101.44 309.687 101.262 309.813C101.083 309.939 100.926 310.128 100.779 310.38C100.642 310.632 100.569 310.979 100.569 311.43V313.95H99.876V310.118C99.876 309.981 99.8655 309.813 99.855 309.614C99.8445 309.414 99.834 309.215 99.813 309.036H100.558V309.047Z" fill="#24386C"/>
<path d="M110.639 313.961H109.946V313.142H109.925C109.809 313.31 109.683 313.457 109.526 313.572C109.368 313.688 109.211 313.793 109.043 313.866C108.875 313.94 108.696 314.003 108.518 314.034C108.339 314.066 108.171 314.087 108.003 314.087C107.615 314.087 107.268 314.024 106.953 313.898C106.638 313.772 106.355 313.593 106.124 313.352C105.893 313.121 105.714 312.848 105.588 312.533C105.462 312.218 105.389 311.871 105.389 311.504C105.389 311.136 105.452 310.79 105.588 310.475C105.714 310.16 105.893 309.887 106.124 309.656C106.355 309.425 106.628 309.246 106.953 309.11C107.268 308.984 107.625 308.921 108.003 308.921C108.161 308.921 108.339 308.942 108.518 308.973C108.696 309.005 108.864 309.068 109.043 309.141C109.211 309.215 109.368 309.32 109.526 309.435C109.683 309.551 109.809 309.698 109.925 309.866H109.946V306.023H110.639V313.961ZM106.155 311.504C106.155 311.777 106.197 312.029 106.281 312.27C106.365 312.512 106.491 312.711 106.649 312.89C106.806 313.068 107.006 313.205 107.226 313.299C107.457 313.404 107.709 313.457 108.003 313.457C108.287 313.457 108.539 313.404 108.791 313.299C109.043 313.194 109.242 313.058 109.41 312.89C109.589 312.711 109.725 312.512 109.82 312.27C109.914 312.029 109.967 311.777 109.967 311.504C109.967 311.231 109.914 310.979 109.82 310.737C109.725 310.496 109.589 310.296 109.41 310.118C109.232 309.939 109.032 309.803 108.791 309.708C108.549 309.614 108.287 309.551 108.003 309.551C107.72 309.551 107.457 309.603 107.226 309.708C106.995 309.813 106.806 309.95 106.649 310.118C106.491 310.296 106.365 310.496 106.281 310.737C106.197 310.979 106.155 311.231 106.155 311.504Z" fill="#24386C"/>
<path d="M112.633 311.693C112.654 311.934 112.717 312.165 112.812 312.386C112.906 312.606 113.043 312.785 113.2 312.953C113.358 313.11 113.547 313.236 113.757 313.331C113.967 313.425 114.198 313.467 114.439 313.467C114.807 313.467 115.132 313.383 115.405 313.205C115.678 313.026 115.878 312.837 116.014 312.606L116.55 313.047C116.256 313.415 115.93 313.688 115.584 313.845C115.237 314.003 114.849 314.087 114.45 314.087C114.082 314.087 113.746 314.024 113.442 313.898C113.127 313.772 112.864 313.593 112.633 313.352C112.413 313.121 112.234 312.848 112.108 312.533C111.982 312.218 111.919 311.871 111.919 311.504C111.919 311.136 111.982 310.79 112.108 310.475C112.234 310.16 112.413 309.887 112.633 309.656C112.854 309.425 113.116 309.246 113.421 309.11C113.725 308.984 114.051 308.921 114.397 308.921C114.765 308.921 115.101 308.984 115.395 309.12C115.689 309.257 115.941 309.425 116.14 309.645C116.34 309.866 116.487 310.128 116.602 310.422C116.707 310.716 116.76 311.042 116.76 311.378V311.693H112.633ZM115.972 311.126C115.972 310.653 115.836 310.275 115.552 309.992C115.269 309.698 114.88 309.551 114.376 309.551C114.156 309.551 113.935 309.593 113.725 309.677C113.515 309.761 113.326 309.887 113.169 310.023C113.011 310.17 112.885 310.338 112.791 310.527C112.696 310.716 112.654 310.916 112.654 311.115H115.972V311.126Z" fill="#24386C"/>
<path d="M119.259 311.336L117.474 309.047H118.419L119.784 310.884L121.086 309.047H121.947L120.236 311.336L122.294 313.961H121.349L119.7 311.808L118.115 313.961H117.233L119.259 311.336Z" fill="#24386C"/>
<path d="M123.532 311.693C123.553 311.934 123.616 312.165 123.711 312.386C123.805 312.606 123.942 312.785 124.099 312.953C124.257 313.11 124.446 313.236 124.656 313.331C124.866 313.425 125.097 313.467 125.338 313.467C125.706 313.467 126.031 313.383 126.304 313.205C126.577 313.026 126.777 312.837 126.913 312.606L127.449 313.047C127.155 313.415 126.829 313.688 126.483 313.845C126.136 314.003 125.748 314.087 125.349 314.087C124.981 314.087 124.645 314.024 124.341 313.898C124.026 313.772 123.763 313.593 123.532 313.352C123.312 313.121 123.133 312.848 123.007 312.533C122.881 312.218 122.818 311.871 122.818 311.504C122.818 311.136 122.881 310.79 123.007 310.475C123.133 310.16 123.312 309.887 123.532 309.656C123.753 309.425 124.015 309.246 124.32 309.11C124.624 308.984 124.95 308.921 125.296 308.921C125.664 308.921 126 308.984 126.294 309.12C126.588 309.257 126.84 309.425 127.039 309.645C127.239 309.866 127.386 310.128 127.501 310.422C127.606 310.716 127.659 311.042 127.659 311.378V311.693H123.532ZM126.871 311.126C126.871 310.653 126.735 310.275 126.451 309.992C126.168 309.698 125.779 309.551 125.275 309.551C125.055 309.551 124.834 309.593 124.624 309.677C124.414 309.761 124.225 309.887 124.068 310.023C123.91 310.17 123.784 310.338 123.69 310.527C123.595 310.716 123.553 310.916 123.553 311.115H126.871V311.126Z" fill="#24386C"/>
<path d="M133.791 313.961H133.098V313.142H133.077C132.962 313.31 132.836 313.457 132.678 313.572C132.521 313.688 132.363 313.793 132.195 313.866C132.027 313.94 131.849 314.003 131.67 314.034C131.492 314.066 131.324 314.087 131.156 314.087C130.767 314.087 130.421 314.024 130.106 313.898C129.791 313.772 129.507 313.593 129.276 313.352C129.045 313.121 128.867 312.848 128.741 312.533C128.615 312.218 128.541 311.871 128.541 311.504C128.541 311.136 128.604 310.79 128.741 310.475C128.867 310.16 129.045 309.887 129.276 309.656C129.507 309.425 129.78 309.246 130.106 309.11C130.421 308.984 130.778 308.921 131.156 308.921C131.313 308.921 131.492 308.942 131.67 308.973C131.849 309.005 132.017 309.068 132.195 309.141C132.363 309.215 132.521 309.32 132.678 309.435C132.836 309.551 132.962 309.698 133.077 309.866H133.098V306.023H133.791V313.961ZM129.308 311.504C129.308 311.777 129.35 312.029 129.434 312.27C129.518 312.512 129.644 312.711 129.801 312.89C129.959 313.068 130.158 313.205 130.379 313.299C130.61 313.404 130.862 313.457 131.156 313.457C131.439 313.457 131.691 313.404 131.943 313.299C132.195 313.194 132.395 313.058 132.563 312.89C132.741 312.711 132.878 312.512 132.972 312.27C133.067 312.029 133.119 311.777 133.119 311.504C133.119 311.231 133.067 310.979 132.972 310.737C132.878 310.496 132.741 310.296 132.563 310.118C132.384 309.939 132.185 309.803 131.943 309.708C131.702 309.614 131.439 309.551 131.156 309.551C130.872 309.551 130.61 309.603 130.379 309.708C130.148 309.813 129.959 309.95 129.801 310.118C129.644 310.296 129.518 310.496 129.434 310.737C129.35 310.979 129.308 311.231 129.308 311.504Z" fill="#24386C"/>
<path d="M101.136 325.427H101.157L103.593 319.127H104.412L101.514 326.561H100.758L97.9335 319.127H98.7735L101.136 325.427Z" fill="#24386C"/>
<path d="M105.62 324.293C105.641 324.534 105.704 324.765 105.798 324.986C105.893 325.206 106.029 325.385 106.187 325.553C106.344 325.71 106.533 325.836 106.743 325.931C106.953 326.025 107.184 326.067 107.426 326.067C107.793 326.067 108.119 325.983 108.392 325.805C108.665 325.626 108.864 325.437 109.001 325.206L109.536 325.647C109.242 326.015 108.917 326.288 108.57 326.445C108.224 326.603 107.835 326.687 107.436 326.687C107.069 326.687 106.733 326.624 106.428 326.498C106.113 326.372 105.851 326.193 105.62 325.952C105.399 325.721 105.221 325.448 105.095 325.133C104.969 324.818 104.906 324.471 104.906 324.104C104.906 323.736 104.969 323.39 105.095 323.075C105.221 322.76 105.399 322.487 105.62 322.256C105.84 322.025 106.103 321.846 106.407 321.71C106.712 321.584 107.037 321.521 107.384 321.521C107.751 321.521 108.087 321.584 108.381 321.72C108.675 321.857 108.927 322.025 109.127 322.245C109.326 322.466 109.473 322.728 109.589 323.022C109.694 323.316 109.746 323.642 109.746 323.978V324.293H105.62ZM108.959 323.726C108.959 323.253 108.822 322.875 108.539 322.592C108.255 322.298 107.867 322.151 107.363 322.151C107.142 322.151 106.922 322.193 106.712 322.277C106.502 322.361 106.313 322.487 106.155 322.623C105.998 322.77 105.872 322.938 105.777 323.127C105.683 323.316 105.641 323.516 105.641 323.715H108.959V323.726Z" fill="#24386C"/>
<path d="M114.555 322.802C114.439 322.623 114.271 322.466 114.061 322.34C113.851 322.214 113.61 322.151 113.326 322.151C113.043 322.14 112.78 322.193 112.56 322.287C112.329 322.382 112.14 322.518 111.972 322.697C111.804 322.875 111.688 323.085 111.604 323.316C111.52 323.558 111.478 323.82 111.478 324.104C111.478 324.387 111.52 324.639 111.604 324.891C111.688 325.133 111.814 325.343 111.972 325.511C112.129 325.689 112.329 325.826 112.56 325.92C112.791 326.015 113.043 326.067 113.326 326.057C113.599 326.057 113.841 325.994 114.061 325.868C114.271 325.742 114.439 325.584 114.555 325.406L115.122 325.836C114.88 326.12 114.597 326.33 114.292 326.466C113.988 326.603 113.662 326.676 113.326 326.687C112.927 326.697 112.57 326.634 112.245 326.508C111.919 326.382 111.646 326.204 111.415 325.973C111.184 325.742 111.016 325.469 110.89 325.143C110.775 324.828 110.712 324.482 110.712 324.104C110.712 323.726 110.775 323.39 110.89 323.064C111.006 322.749 111.184 322.476 111.415 322.245C111.646 322.014 111.919 321.836 112.245 321.699C112.57 321.573 112.927 321.51 113.326 321.521C113.662 321.531 113.988 321.605 114.292 321.741C114.597 321.878 114.88 322.088 115.122 322.371L114.555 322.802Z" fill="#24386C"/>
<path d="M118.576 322.276H117.159V325.175C117.159 325.353 117.18 325.5 117.211 325.615C117.243 325.731 117.295 325.815 117.358 325.878C117.421 325.941 117.495 325.983 117.579 326.004C117.663 326.025 117.757 326.046 117.873 326.046C117.988 326.046 118.114 326.025 118.24 325.994C118.366 325.962 118.482 325.909 118.587 325.857L118.618 326.498C118.356 326.613 118.051 326.676 117.684 326.676C117.547 326.676 117.411 326.655 117.274 326.624C117.138 326.592 117.001 326.519 116.875 326.424C116.76 326.33 116.655 326.193 116.581 326.025C116.508 325.857 116.466 325.636 116.466 325.363V322.266H115.426V321.636H116.466V320.25H117.159V321.636H118.576V322.276Z" fill="#24386C"/>
<path d="M124.488 324.104C124.488 324.471 124.425 324.818 124.288 325.133C124.162 325.448 123.984 325.721 123.753 325.952C123.522 326.183 123.249 326.361 122.923 326.498C122.608 326.624 122.251 326.687 121.873 326.687C121.495 326.687 121.149 326.624 120.823 326.498C120.508 326.372 120.225 326.193 119.994 325.952C119.763 325.721 119.584 325.448 119.458 325.133C119.332 324.818 119.259 324.471 119.259 324.104C119.259 323.736 119.322 323.39 119.458 323.075C119.584 322.76 119.763 322.487 119.994 322.256C120.225 322.025 120.498 321.846 120.823 321.71C121.138 321.584 121.485 321.521 121.873 321.521C122.262 321.521 122.608 321.584 122.923 321.71C123.238 321.836 123.511 322.025 123.753 322.256C123.984 322.487 124.162 322.76 124.288 323.075C124.414 323.39 124.488 323.736 124.488 324.104ZM123.732 324.104C123.732 323.831 123.69 323.579 123.606 323.337C123.522 323.096 123.396 322.896 123.238 322.718C123.081 322.539 122.881 322.403 122.65 322.308C122.419 322.203 122.167 322.151 121.884 322.151C121.6 322.151 121.338 322.203 121.107 322.308C120.876 322.413 120.687 322.55 120.529 322.718C120.372 322.896 120.246 323.096 120.162 323.337C120.078 323.579 120.036 323.831 120.036 324.104C120.036 324.377 120.078 324.629 120.162 324.87C120.246 325.112 120.372 325.311 120.529 325.49C120.687 325.668 120.876 325.805 121.107 325.899C121.338 325.994 121.59 326.057 121.884 326.057C122.178 326.057 122.43 326.004 122.65 325.899C122.881 325.794 123.07 325.658 123.238 325.49C123.396 325.311 123.522 325.112 123.606 324.87C123.69 324.629 123.732 324.377 123.732 324.104Z" fill="#24386C"/>
<path d="M125.822 323.18C125.822 322.959 125.822 322.739 125.801 322.518C125.79 322.298 125.78 322.004 125.78 321.647H126.462V322.56H126.483C126.536 322.424 126.599 322.298 126.693 322.172C126.788 322.046 126.893 321.941 127.019 321.836C127.145 321.741 127.302 321.657 127.47 321.605C127.638 321.542 127.838 321.521 128.048 321.521C128.247 321.521 128.415 321.542 128.562 321.584L128.426 322.266C128.331 322.235 128.205 322.214 128.027 322.214C127.764 322.214 127.533 322.266 127.344 322.361C127.155 322.466 126.998 322.592 126.872 322.749C126.746 322.907 126.651 323.075 126.599 323.264C126.536 323.442 126.515 323.621 126.515 323.789V326.561H125.822V323.18Z" fill="#24386C"/>
<path d="M131.838 322.812C131.733 322.613 131.596 322.445 131.418 322.329C131.239 322.214 131.029 322.151 130.777 322.151C130.662 322.151 130.536 322.161 130.42 322.193C130.294 322.224 130.189 322.266 130.084 322.319C129.99 322.382 129.906 322.455 129.853 322.55C129.79 322.644 129.769 322.749 129.769 322.886C129.769 323.117 129.853 323.285 130.011 323.39C130.168 323.495 130.41 323.589 130.735 323.663L131.439 323.831C131.785 323.904 132.069 324.062 132.289 324.303C132.52 324.534 132.636 324.828 132.636 325.175C132.636 325.437 132.583 325.668 132.468 325.857C132.363 326.046 132.216 326.204 132.037 326.33C131.859 326.456 131.659 326.54 131.428 326.592C131.197 326.645 130.966 326.676 130.725 326.676C130.347 326.676 130 326.603 129.675 326.456C129.349 326.309 129.066 326.067 128.845 325.71L129.444 325.301C129.58 325.521 129.759 325.7 129.969 325.836C130.179 325.973 130.441 326.036 130.725 326.036C130.861 326.036 131.008 326.015 131.145 325.994C131.281 325.962 131.407 325.91 131.512 325.847C131.617 325.784 131.712 325.7 131.775 325.584C131.838 325.479 131.88 325.353 131.88 325.217C131.88 324.975 131.785 324.797 131.607 324.692C131.428 324.587 131.208 324.492 130.945 324.429L130.273 324.272C130.189 324.251 130.074 324.219 129.927 324.167C129.78 324.114 129.643 324.041 129.507 323.946C129.37 323.852 129.255 323.726 129.16 323.558C129.066 323.4 129.013 323.211 129.013 322.98C129.013 322.728 129.066 322.508 129.171 322.319C129.276 322.13 129.412 321.972 129.58 321.857C129.748 321.741 129.948 321.647 130.158 321.594C130.378 321.531 130.599 321.51 130.83 321.51C131.176 321.51 131.491 321.573 131.785 321.71C132.079 321.846 132.31 322.067 132.468 322.392L131.838 322.812Z" fill="#24386C"/>
<path d="M309.593 83.4646C310.055 83.4646 310.37 83.1706 310.37 82.6876V81.7846H310.401C310.874 82.8241 311.819 83.4646 313.058 83.4646C315.116 83.4646 316.428 81.8476 316.428 79.3171C316.428 76.7656 315.105 75.1591 313.068 75.1591C311.871 75.1591 310.895 75.8101 310.443 76.8391H310.401V73.1956C310.401 72.7021 310.086 72.3766 309.624 72.3766C309.162 72.3766 308.837 72.7021 308.837 73.1956V82.6771C308.837 83.1811 309.131 83.4646 309.593 83.4646ZM321.101 83.4646C322.613 83.4646 323.904 82.6666 324.356 81.5326C324.419 81.3751 324.44 81.2386 324.44 81.1126C324.44 80.7241 324.145 80.4616 323.778 80.4616C323.421 80.4616 323.253 80.5981 323.054 80.9761C322.676 81.7531 322.046 82.1941 321.111 82.1941C319.757 82.1941 318.875 81.1021 318.875 79.3066C318.875 77.5321 319.767 76.4086 321.111 76.4086C322.004 76.4086 322.644 76.8391 323.033 77.6791C323.222 78.0151 323.4 78.1516 323.736 78.1516C324.125 78.1516 324.408 77.9101 324.408 77.5111C324.408 77.3956 324.377 77.2591 324.335 77.1436C323.936 75.9781 322.644 75.1486 321.069 75.1486C318.759 75.1486 317.279 76.7866 317.279 79.3171C317.289 81.8686 318.78 83.4646 321.101 83.4646ZM303.271 83.4646C304.374 83.4646 305.424 82.8766 305.876 81.9316H305.907V82.7506C305.939 83.2021 306.222 83.4751 306.663 83.4751C307.115 83.4751 307.419 83.1811 307.419 82.6876V77.8471C307.419 76.2196 306.18 75.1591 304.217 75.1591C302.715 75.1591 301.518 75.7786 301.098 76.7551C301.014 76.9231 300.972 77.1016 300.972 77.2591C300.972 77.6371 301.256 77.8996 301.644 77.8996C301.928 77.8996 302.138 77.7946 302.285 77.5636C302.715 76.7761 303.282 76.4191 304.154 76.4191C305.214 76.4191 305.855 77.0071 305.855 77.9731V78.5716L303.565 78.7081C301.623 78.8341 300.552 79.6846 300.552 81.0916C300.563 82.4986 301.686 83.4646 303.271 83.4646ZM312.627 82.1836C311.325 82.1836 310.401 81.0496 310.401 79.3171C310.401 77.5951 311.325 76.4506 312.627 76.4506C313.971 76.4506 314.821 77.5636 314.821 79.3171C314.832 81.0706 313.971 82.1836 312.627 82.1836ZM303.692 82.2676C302.778 82.2676 302.148 81.7636 302.148 81.0076C302.148 80.2831 302.736 79.8001 303.796 79.7266L305.876 79.5901V80.3356C305.865 81.4276 304.899 82.2676 303.692 82.2676Z" fill="#7D8CB5"/>
<path d="M309.593 82.8556C310.055 82.8556 310.37 82.5616 310.37 82.0786V81.1756H310.401C310.874 82.2151 311.819 82.8556 313.058 82.8556C315.116 82.8556 316.428 81.2386 316.428 78.7081C316.428 76.1566 315.105 74.5501 313.068 74.5501C311.871 74.5501 310.895 75.2011 310.443 76.2301H310.401V72.5866C310.401 72.0931 310.086 71.7676 309.624 71.7676C309.162 71.7676 308.837 72.0931 308.837 72.5866V82.0681C308.837 82.5616 309.131 82.8556 309.593 82.8556ZM321.101 82.8556C322.613 82.8556 323.904 82.0576 324.356 80.9236C324.419 80.7661 324.44 80.6296 324.44 80.5036C324.44 80.1151 324.145 79.8526 323.778 79.8526C323.421 79.8526 323.253 79.9891 323.054 80.3671C322.676 81.1441 322.046 81.5851 321.111 81.5851C319.757 81.5851 318.875 80.4931 318.875 78.6976C318.875 76.9231 319.767 75.7996 321.111 75.7996C322.004 75.7996 322.644 76.2301 323.033 77.0701C323.222 77.4061 323.4 77.5426 323.736 77.5426C324.125 77.5426 324.408 77.3011 324.408 76.9021C324.408 76.7866 324.377 76.6501 324.335 76.5346C323.936 75.3691 322.644 74.5396 321.069 74.5396C318.759 74.5396 317.279 76.1776 317.279 78.7081C317.289 81.2491 318.78 82.8556 321.101 82.8556ZM303.271 82.8556C304.374 82.8556 305.424 82.2676 305.876 81.3226H305.907V82.1416C305.939 82.5931 306.222 82.8661 306.663 82.8661C307.115 82.8661 307.419 82.5721 307.419 82.0786V77.2381C307.419 75.6106 306.18 74.5501 304.217 74.5501C302.715 74.5501 301.518 75.1696 301.098 76.1461C301.014 76.3141 300.972 76.4926 300.972 76.6501C300.972 77.0281 301.256 77.2906 301.644 77.2906C301.928 77.2906 302.138 77.1856 302.285 76.9546C302.715 76.1671 303.282 75.8101 304.154 75.8101C305.214 75.8101 305.855 76.3981 305.855 77.3641V77.9626L303.565 78.0991C301.623 78.2251 300.552 79.0756 300.552 80.4826C300.563 81.8896 301.686 82.8556 303.271 82.8556ZM312.627 81.5746C311.325 81.5746 310.401 80.4406 310.401 78.7081C310.401 76.9861 311.325 75.8416 312.627 75.8416C313.971 75.8416 314.821 76.9546 314.821 78.7081C314.832 80.4616 313.971 81.5746 312.627 81.5746ZM303.692 81.6481C302.778 81.6481 302.148 81.1441 302.148 80.3881C302.148 79.6636 302.736 79.1806 303.796 79.1071L305.876 78.9706V79.7161C305.865 80.8186 304.899 81.6481 303.692 81.6481Z" fill="white"/>
<path d="M53.9279 333.407H81.7004C85.2179 333.407 87.0554 331.59 87.0554 328.115V308.364C87.0554 304.889 85.2179 303.072 81.7004 303.072H53.9279C50.4209 303.072 48.5834 304.878 48.5834 308.364V328.115C48.5939 331.59 50.4209 333.407 53.9279 333.407ZM51.8174 308.658C51.8174 307.083 52.6469 306.306 54.1379 306.306H81.4904C82.9814 306.306 83.8109 307.083 83.8109 308.658V312.459H51.8174V308.658ZM78.4244 311.367C79.4954 311.346 80.3879 310.454 80.3879 309.383C80.3879 308.291 79.4954 307.388 78.4244 307.388C77.3534 307.388 76.4294 308.301 76.4294 309.383C76.4294 310.454 77.3534 311.378 78.4244 311.367ZM51.8174 321.311V315.158H83.8109V321.311H51.8174ZM78.4244 320.198C79.4954 320.177 80.3879 319.284 80.3879 318.213C80.3879 317.121 79.4954 316.197 78.4244 316.197C77.3534 316.197 76.4294 317.121 76.4294 318.213C76.4294 319.284 77.3534 320.208 78.4244 320.198ZM54.1379 330.173C52.6469 330.173 51.8174 329.396 51.8174 327.821V324.02H83.8109V327.821C83.8109 329.396 82.9814 330.173 81.4904 330.173H54.1379ZM78.4244 329.007C79.4954 328.986 80.3879 328.094 80.3879 327.023C80.3879 325.931 79.4954 325.028 78.4244 325.028C77.3534 325.028 76.4294 325.952 76.4294 327.023C76.4294 328.104 77.3534 329.039 78.4244 329.007Z" fill="#7D8CB5"/>
<path d="M53.9279 332.493H81.7004C85.2179 332.493 87.0554 330.676 87.0554 327.201V307.45C87.0554 303.975 85.2179 302.158 81.7004 302.158H53.9279C50.4209 302.158 48.5834 303.964 48.5834 307.45V327.201C48.5939 330.676 50.4209 332.493 53.9279 332.493ZM51.8174 307.744C51.8174 306.169 52.6469 305.392 54.1379 305.392H81.4904C82.9814 305.392 83.8109 306.169 83.8109 307.744V311.545H51.8174V307.744ZM78.4244 310.453C79.4954 310.432 80.3879 309.54 80.3879 308.469C80.3879 307.377 79.4954 306.474 78.4244 306.474C77.3534 306.474 76.4294 307.387 76.4294 308.469C76.4294 309.54 77.3534 310.464 78.4244 310.453ZM51.8174 320.397V314.244H83.8109V320.397H51.8174ZM78.4244 319.284C79.4954 319.263 80.3879 318.37 80.3879 317.299C80.3879 316.207 79.4954 315.283 78.4244 315.283C77.3534 315.283 76.4294 316.207 76.4294 317.299C76.4294 318.37 77.3534 319.294 78.4244 319.284ZM54.1379 329.259C52.6469 329.259 51.8174 328.482 51.8174 326.907V323.106H83.8109V326.907C83.8109 328.482 82.9814 329.259 81.4904 329.259H54.1379ZM78.4244 328.093C79.4954 328.072 80.3879 327.18 80.3879 326.109C80.3879 325.017 79.4954 324.114 78.4244 324.114C77.3534 324.114 76.4294 325.038 76.4294 326.109C76.4294 327.18 77.3534 328.125 78.4244 328.093Z" fill="white"/>
<path d="M100.254 290.682C98.9625 292.121 97.986 293.853 97.356 295.943" stroke="#67C87A" stroke-width="3.15" stroke-miterlimit="10" stroke-linecap="round"/>
<path d="M270.784 299.796C270.858 301.476 270.732 303.23 270.406 305.015" stroke="#C91540" stroke-width="3.15" stroke-miterlimit="10" stroke-linecap="round"/>
<path d="M269.378 316.187C267.162 316.187 265.902 317.457 265.902 319.725V341.408C265.902 343.665 267.173 344.925 269.378 344.925H274.691C276.917 344.925 278.166 343.655 278.166 341.408V319.725C278.166 317.457 276.917 316.187 274.691 316.187H269.378ZM275.489 319.956V341.156C275.489 341.859 275.079 342.248 274.365 342.248H269.693C268.979 342.248 268.569 341.859 268.569 341.156V319.956C268.569 319.274 268.979 318.864 269.693 318.864H274.365C275.079 318.864 275.489 319.274 275.489 319.956ZM254.52 326.33C252.305 326.33 251.055 327.6 251.055 329.847V341.397C251.055 343.655 252.305 344.915 254.52 344.915H259.844C262.059 344.915 263.319 343.644 263.319 341.397V329.847C263.319 327.59 262.049 326.33 259.844 326.33H254.52ZM260.631 330.099V341.156C260.631 341.859 260.243 342.248 259.529 342.248H254.856C254.132 342.248 253.733 341.859 253.733 341.156V330.099C253.733 329.396 254.121 329.007 254.856 329.007H259.529C260.243 329.007 260.631 329.396 260.631 330.099ZM248.567 347.571C247.853 347.571 247.296 348.18 247.296 348.884C247.296 349.598 247.853 350.207 248.567 350.207H280.686C281.39 350.207 281.957 349.598 281.957 348.884C281.957 348.18 281.39 347.571 280.686 347.571H248.567Z" fill="#7D8CB5"/>
<path d="M269.378 315.651C267.162 315.651 265.902 316.922 265.902 319.19V340.872C265.902 343.13 267.173 344.39 269.378 344.39H274.691C276.917 344.39 278.166 343.119 278.166 340.872V319.19C278.166 316.922 276.917 315.651 274.691 315.651H269.378ZM275.489 319.421V340.62C275.489 341.324 275.079 341.712 274.365 341.712H269.693C268.979 341.712 268.569 341.324 268.569 340.62V319.421C268.569 318.738 268.979 318.329 269.693 318.329H274.365C275.079 318.329 275.489 318.738 275.489 319.421ZM254.52 325.794C252.305 325.794 251.055 327.065 251.055 329.312V340.862C251.055 343.119 252.305 344.379 254.52 344.379H259.844C262.059 344.379 263.319 343.109 263.319 340.862V329.312C263.319 327.054 262.049 325.794 259.844 325.794H254.52ZM260.631 329.564V340.62C260.631 341.324 260.243 341.712 259.529 341.712H254.856C254.132 341.712 253.733 341.324 253.733 340.62V329.564C253.733 328.86 254.121 328.472 254.856 328.472H259.529C260.243 328.472 260.631 328.86 260.631 329.564ZM248.567 347.036C247.853 347.036 247.296 347.645 247.296 348.348C247.296 349.062 247.853 349.671 248.567 349.671H280.686C281.39 349.671 281.957 349.062 281.957 348.348C281.957 347.645 281.39 347.036 280.686 347.036H248.567Z" fill="white"/>
<path d="M91.7385 138.422C126.538 138.422 154.749 110.211 154.749 75.411C154.749 40.6113 126.538 12.4005 91.7385 12.4005C56.9388 12.4005 28.728 40.6113 28.728 75.411C28.728 110.211 56.9388 138.422 91.7385 138.422Z" stroke="#D9E2FF" stroke-width="1.05" stroke-miterlimit="10"/>
<path d="M299.407 132.615C328.344 132.615 351.802 109.157 351.802 80.22C351.802 51.283 328.344 27.825 299.407 27.825C270.47 27.825 247.012 51.283 247.012 80.22C247.012 109.157 270.47 132.615 299.407 132.615Z" stroke="#D9E2FF" stroke-width="1.05" stroke-miterlimit="10"/>
</g>
<defs>
<linearGradient id="paint0_linear_896_3944" x1="220.647" y1="246.565" x2="217.948" y2="241.891" gradientUnits="userSpaceOnUse">
<stop stop-color="#F2F6FF" stop-opacity="0"/>
<stop offset="1" stop-color="#24386C"/>
</linearGradient>
<linearGradient id="paint1_linear_896_3944" x1="209.661" y1="252.963" x2="202.573" y2="240.686" gradientUnits="userSpaceOnUse">
<stop stop-color="#F2F6FF" stop-opacity="0"/>
<stop offset="1" stop-color="#24386C"/>
</linearGradient>
<clipPath id="clip0_896_3944">
<rect width="388.5" height="372.75" fill="white"/>
</clipPath>
</defs>
</svg>
