<svg width="397" height="381" viewBox="0 0 397 381" fill="none" xmlns="http://www.w3.org/2000/svg">
<g clip-path="url(#clip0_971_4867)">
<path d="M109.769 45.008L63.4545 39.9869C60.7887 39.6979 58.1764 40.8541 56.6026 43.0167L29.0882 80.6162C27.5037 82.7788 27.204 85.6159 28.2853 88.0676L47.0957 130.688C48.177 133.14 50.4788 134.821 53.1446 135.11L99.4588 140.131C102.125 140.42 104.737 139.264 106.311 137.101L133.825 99.5016C135.41 97.339 135.709 94.5019 134.628 92.0502L115.818 49.4296C114.736 46.9779 112.434 45.2971 109.769 45.008Z" fill="#D9E2FF"/>
<path d="M108.088 92.7889L55.3072 97.157C53.712 97.2855 52.3202 96.1078 52.1917 94.5126C52.0632 92.9174 53.2409 91.5256 54.8361 91.3972L107.617 87.0291C109.212 86.9006 110.604 88.0783 110.732 89.6735C110.861 91.2687 109.672 92.6605 108.088 92.7889Z" fill="#C91540"/>
<path d="M107.606 87.0292L54.8253 91.3972C53.2302 91.5257 51.8384 90.348 51.7099 88.7528C51.5814 87.1576 52.7591 85.7659 54.3543 85.6374L107.135 81.2694C108.73 81.1409 110.122 82.3185 110.25 83.9137C110.379 85.5089 109.201 86.9007 107.606 87.0292Z" fill="#C91540"/>
<path d="M54.7077 95.8081L108.452 91.3651C109.512 91.2794 110.443 92.061 110.529 93.1209L110.604 94.0844C110.914 97.7994 106.846 109.854 83.0893 111.824C59.3327 113.794 53.3373 102.564 53.0268 98.8486L52.9519 97.885C52.8556 96.8251 53.6478 95.8937 54.7077 95.8081Z" fill="#FFECA7"/>
<path d="M101.964 85.6801L93.1958 86.4081" stroke="#24386C" stroke-width="0.5353" stroke-miterlimit="10" stroke-linecap="round"/>
<path d="M100.893 81.794L60.5853 85.1343C59.5254 85.2199 58.594 84.4384 58.5084 83.3785C58.4227 82.3186 59.2043 81.3872 60.2642 81.3015L100.572 77.9613C101.632 77.8756 102.564 78.6571 102.649 79.717C102.735 80.7769 101.953 81.7084 100.893 81.794Z" fill="white"/>
<path d="M66.1417 86.9862L59.9857 87.5001" stroke="#24386C" stroke-width="0.5353" stroke-miterlimit="10" stroke-linecap="round"/>
<path d="M81.6975 89.181L78.0039 89.4808" stroke="#24386C" stroke-width="0.5353" stroke-miterlimit="10" stroke-linecap="round"/>
<path d="M107.413 94.6946C109.501 92.457 110.347 90.2088 110.571 88.6243" stroke="#24386C" stroke-width="0.5353" stroke-miterlimit="10" stroke-linecap="round"/>
<path d="M91.0973 92.7567C91.0973 92.7567 86.1619 95.4654 85.4338 98.0776C85.4338 98.0776 83.9029 96.718 84.5238 94.8551C85.2518 92.6604 91.0973 92.7567 91.0973 92.7567Z" fill="#24386C"/>
<path d="M315.752 146.726C339.314 146.726 358.415 127.625 358.415 104.062C358.415 80.5001 339.314 61.399 315.752 61.399C292.19 61.399 273.089 80.5001 273.089 104.062C273.089 127.625 292.19 146.726 315.752 146.726Z" fill="#D9E2FF"/>
<path d="M107.638 76.9655L54.151 83.7959C53.0911 83.9351 52.1275 83.1857 51.9991 82.1258L51.8813 81.173C51.4102 77.4794 54.9432 65.2531 78.5821 62.234C102.232 59.2149 108.719 70.1672 109.191 73.8608L109.308 74.8136C109.437 75.8735 108.687 76.837 107.638 76.9655Z" fill="#FFECA7"/>
<path d="M81.5156 67.8119C81.6456 67.8119 81.7511 67.7064 81.7511 67.5763C81.7511 67.4463 81.6456 67.3408 81.5156 67.3408C81.3855 67.3408 81.28 67.4463 81.28 67.5763C81.28 67.7064 81.3855 67.8119 81.5156 67.8119Z" stroke="#24386C" stroke-width="0.5353" stroke-miterlimit="10" stroke-linecap="round"/>
<path d="M72.9185 68.9145C73.0486 68.9145 73.1541 68.8091 73.1541 68.679C73.1541 68.5489 73.0486 68.4435 72.9185 68.4435C72.7884 68.4435 72.683 68.5489 72.683 68.679C72.683 68.8091 72.7884 68.9145 72.9185 68.9145Z" stroke="#24386C" stroke-width="0.5353" stroke-miterlimit="10" stroke-linecap="round"/>
<path d="M75.6913 74.182C75.8214 74.182 75.9269 74.0766 75.9269 73.9465C75.9269 73.8164 75.8214 73.7109 75.6913 73.7109C75.5613 73.7109 75.4558 73.8164 75.4558 73.9465C75.4558 74.0766 75.5613 74.182 75.6913 74.182Z" stroke="#24386C" stroke-width="0.5353" stroke-miterlimit="10" stroke-linecap="round"/>
<path d="M80.477 77.4044C80.6071 77.4044 80.7125 77.299 80.7125 77.1689C80.7125 77.0388 80.6071 76.9333 80.477 76.9333C80.3469 76.9333 80.2415 77.0388 80.2415 77.1689C80.2415 77.299 80.3469 77.4044 80.477 77.4044Z" stroke="#24386C" stroke-width="0.5353" stroke-miterlimit="10" stroke-linecap="round"/>
<path d="M85.723 71.7089C85.853 71.7089 85.9585 71.6034 85.9585 71.4733C85.9585 71.3432 85.853 71.2378 85.723 71.2378C85.5929 71.2378 85.4874 71.3432 85.4874 71.4733C85.4874 71.6034 85.5929 71.7089 85.723 71.7089Z" stroke="#24386C" stroke-width="0.5353" stroke-miterlimit="10" stroke-linecap="round"/>
<path d="M69.2571 76.0448C69.3872 76.0448 69.4927 75.9393 69.4927 75.8093C69.4927 75.6792 69.3872 75.5737 69.2571 75.5737C69.1271 75.5737 69.0216 75.6792 69.0216 75.8093C69.0216 75.9393 69.1271 76.0448 69.2571 76.0448Z" stroke="#24386C" stroke-width="0.5353" stroke-miterlimit="10" stroke-linecap="round"/>
<path d="M77.0939 64.6215C77.224 64.6215 77.3295 64.516 77.3295 64.3859C77.3295 64.2558 77.224 64.1504 77.0939 64.1504C76.9639 64.1504 76.8584 64.2558 76.8584 64.3859C76.8584 64.516 76.9639 64.6215 77.0939 64.6215Z" stroke="#24386C" stroke-width="0.5353" stroke-miterlimit="10" stroke-linecap="round"/>
<path d="M66.6663 69.4607C66.7964 69.4607 66.9019 69.3552 66.9019 69.2252C66.9019 69.0951 66.7964 68.9896 66.6663 68.9896C66.5362 68.9896 66.4308 69.0951 66.4308 69.2252C66.4308 69.3552 66.5362 69.4607 66.6663 69.4607Z" stroke="#24386C" stroke-width="0.5353" stroke-miterlimit="10" stroke-linecap="round"/>
<path d="M88.3566 64.3109C88.4867 64.3109 88.5922 64.2055 88.5922 64.0754C88.5922 63.9453 88.4867 63.8398 88.3566 63.8398C88.2265 63.8398 88.1211 63.9453 88.1211 64.0754C88.1211 64.2055 88.2265 64.3109 88.3566 64.3109Z" stroke="#24386C" stroke-width="0.5353" stroke-miterlimit="10" stroke-linecap="round"/>
<path d="M93.9987 70.8951C94.1288 70.8951 94.2342 70.7897 94.2342 70.6596C94.2342 70.5295 94.1288 70.4241 93.9987 70.4241C93.8686 70.4241 93.7632 70.5295 93.7632 70.6596C93.7632 70.7897 93.8686 70.8951 93.9987 70.8951Z" stroke="#24386C" stroke-width="0.5353" stroke-miterlimit="10" stroke-linecap="round"/>
<path d="M97.2961 66.0454C97.4262 66.0454 97.5316 65.94 97.5316 65.8099C97.5316 65.6798 97.4262 65.5743 97.2961 65.5743C97.166 65.5743 97.0605 65.6798 97.0605 65.8099C97.0605 65.94 97.166 66.0454 97.2961 66.0454Z" stroke="#24386C" stroke-width="0.5353" stroke-miterlimit="10" stroke-linecap="round"/>
<path d="M61.6024 73.8608C61.7324 73.8608 61.8379 73.7554 61.8379 73.6253C61.8379 73.4952 61.7324 73.3898 61.6024 73.3898C61.4723 73.3898 61.3668 73.4952 61.3668 73.6253C61.3668 73.7554 61.4723 73.8608 61.6024 73.8608Z" stroke="#24386C" stroke-width="0.5353" stroke-miterlimit="10" stroke-linecap="round"/>
<path d="M90.2623 92.8638C90.2623 92.8638 92.3607 87.8213 97.7458 88.3352C103.12 88.8491 111.032 82.7681 111.032 82.7681C111.032 82.7681 113.858 89.6734 105.947 94.2556C98.0242 98.8378 97.3497 91.6648 90.2623 92.8638Z" fill="#67C87A"/>
<path fill-rule="evenodd" clip-rule="evenodd" d="M60.371 92.1466C60.371 92.1466 56.0779 91.9325 53.9902 88.7207C53.9902 88.7207 53.1338 90.4979 53.8725 91.9325C54.6112 93.3671 60.371 92.1466 60.371 92.1466Z" fill="#24386C"/>
<path d="M91.6647 92.7462C91.6647 92.7462 89.5128 88.057 83.7315 87.5966C77.961 87.1256 74.0854 90.1125 74.6742 94.1594C75.2631 98.2063 79.7168 99.6623 79.7168 99.6623C82.6823 95.958 87.3287 92.864 91.6647 92.7462Z" fill="#67C87A"/>
<path d="M77.2438 93.9454C77.2438 93.9454 69.0751 94.1916 59.6967 97.7674C47.7702 102.307 49.0335 90.0591 49.0335 90.0591C49.0335 90.0591 57.3949 93.7634 63.2939 91.4723C69.2036 89.1705 77.2438 93.9454 77.2438 93.9454Z" fill="#67C87A"/>
<path d="M85.4124 83.0786L79.2565 83.5818" stroke="#24386C" stroke-width="0.5353" stroke-miterlimit="10" stroke-linecap="round"/>
<path fill-rule="evenodd" clip-rule="evenodd" d="M337.999 86.0763L326.362 124.928L326.244 125.367C325.313 126.845 319.521 127.38 312.658 126.556C305.774 125.731 300.228 123.836 299.736 122.177L299.714 121.856V121.845L297.177 81.2051C301.663 83.3142 308.932 85.2091 317.294 86.2048C325.634 87.1897 333.149 87.072 337.999 86.0763Z" fill="#C91540"/>
<path d="M314.789 114.426C318.75 114.426 321.962 111.214 321.962 107.253C321.962 103.291 318.75 100.08 314.789 100.08C310.827 100.08 307.615 103.291 307.615 107.253C307.615 111.214 310.827 114.426 314.789 114.426Z" fill="#FFECA7"/>
<path fill-rule="evenodd" clip-rule="evenodd" d="M297.209 80.9908C302.07 79.9951 309.767 78.4321 318.107 79.4277C326.458 80.4234 333.535 83.7636 338.021 85.8727C338.021 85.8727 333.931 95.8079 316.405 93.7202C298.847 91.6218 297.209 80.9908 297.209 80.9908Z" fill="white"/>
<path fill-rule="evenodd" clip-rule="evenodd" d="M298.216 82.7039C302.766 81.9544 309.671 83.282 317.519 84.2134C325.388 85.1555 332.421 85.4874 336.672 87.2967C336.672 87.2967 332.957 95.4654 316.448 93.4955C299.907 91.5256 298.216 82.7039 298.216 82.7039Z" fill="#F7DC84"/>
<path d="M319.426 74.8154L317.927 74.6367L315.662 93.6344L317.161 93.8131L319.426 74.8154Z" fill="#F7DC84"/>
<path d="M309.525 82.6547L308.05 82.3342L306.204 90.8293L307.679 91.1498L309.525 82.6547Z" fill="#F7DC84"/>
<path d="M315.682 74.0921L314.173 74.1333L314.695 93.2573L316.204 93.2161L315.682 74.0921Z" fill="#F7DC84"/>
<path d="M310.029 72.9355L308.52 72.9767L309.043 92.1007L310.552 92.0594L310.029 72.9355Z" fill="#FFECA7"/>
<path d="M309.755 71.4455L308.28 71.125L304.218 89.8204L305.693 90.1409L309.755 71.4455Z" fill="#FFECA7"/>
<path d="M321.717 74.8156L320.218 74.6368L317.953 93.6345L319.452 93.8133L321.717 74.8156Z" fill="#FFECA7"/>
<path d="M328.405 78.0132L327.152 77.1703L316.469 93.0419L317.721 93.8848L328.405 78.0132Z" fill="#FFECA7"/>
<path d="M330.581 82.8045L329.328 81.9615L322.256 92.4686L323.508 93.3115L330.581 82.8045Z" fill="#F7DC84"/>
<path d="M323.223 74.6698L321.716 74.7401L322.607 93.8507L324.115 93.7804L323.223 74.6698Z" fill="#F7DC84"/>
<path d="M327.584 81.1733L326.116 80.8184L323.139 93.1289L324.606 93.4838L327.584 81.1733Z" fill="#FFECA7"/>
<path d="M302.888 77.5896L301.413 77.2692L299.567 85.7642L301.042 86.0847L302.888 77.5896Z" fill="#F7DC84"/>
<path d="M314.03 80.2842L312.563 79.9293L309.585 92.2399L311.053 92.5948L314.03 80.2842Z" fill="#F7DC84"/>
<path d="M304.896 78.5313L303.44 78.9291L306.777 91.1459L308.233 90.7482L304.896 78.5313Z" fill="#FFECA7"/>
<path d="M327.613 79.7205L326.157 80.1183L329.494 92.3351L330.95 91.9374L327.613 79.7205Z" fill="#FFECA7"/>
<path d="M305.102 74.5882L303.656 74.1528L300.004 86.2798L301.449 86.7151L305.102 74.5882Z" fill="#FFECA7"/>
<path d="M325.674 74.9048L324.199 74.5844L320.137 93.2798L321.612 93.6003L325.674 74.9048Z" fill="#FFECA7"/>
<path d="M311.978 79.4894L310.471 79.3956L309.685 92.0368L311.192 92.1305L311.978 79.4894Z" fill="#FFECA7"/>
<path d="M331.667 79.4674L330.16 79.3737L329.374 92.0148L330.881 92.1085L331.667 79.4674Z" fill="#FFECA7"/>
<path d="M334.307 79.375L332.84 79.0201L329.863 91.3307L331.33 91.6856L334.307 79.375Z" fill="#FFECA7"/>
<path d="M316.986 74.3159L315.501 74.0444L312.061 92.8642L313.546 93.1356L316.986 74.3159Z" fill="#FFECA7"/>
<path d="M318.545 71.9732L317.035 71.9851L317.187 91.1167L318.696 91.1048L318.545 71.9732Z" fill="#FFECA7"/>
<path d="M329.043 73.2155L327.733 72.4644L318.213 89.0591L319.523 89.8103L329.043 73.2155Z" fill="#FFECA7"/>
<path d="M312.186 72.055L310.73 72.4528L314.067 84.6696L315.523 84.2718L312.186 72.055Z" fill="#FFECA7"/>
<path d="M329.731 87.1185L328.285 86.6831L326.457 92.7517L327.903 93.187L329.731 87.1185Z" fill="#FFECA7"/>
<path d="M326.284 86.6055L325.008 87.4122L328.395 92.7697L329.671 91.963L326.284 86.6055Z" fill="#FFECA7"/>
<path d="M306.507 81.016L305.032 80.6956L303.186 89.1906L304.661 89.5111L306.507 81.016Z" fill="#FFECA7"/>
<path d="M303.457 80.0958L301.952 80.2203L302.669 88.8841L304.174 88.7595L303.457 80.0958Z" fill="#FFECA7"/>
<path d="M335.939 86.3565L334.686 85.5135L331.488 90.2653L332.74 91.1082L335.939 86.3565Z" fill="#F7DC84"/>
<path d="M334.472 78.033L332.965 77.9392L332.179 90.5803L333.686 90.6741L334.472 78.033Z" fill="#FFECA7"/>
<path fill-rule="evenodd" clip-rule="evenodd" d="M316.769 90.6693C305.421 89.3203 300.218 86.7723 298.098 83.4749C299.736 86.7509 304.265 92.2752 316.405 93.7205C328.524 95.1658 334.22 90.862 336.586 88.0677C333.738 90.7763 328.096 92.0182 316.769 90.6693Z" fill="#FFECA7"/>
<path d="M324.236 85.9817L322.96 86.7885L326.347 92.1459L327.623 91.3392L324.236 85.9817Z" fill="#FFECA7"/>
<path d="M312.216 85.5758L310.94 86.3824L314.327 91.7399L315.603 90.9332L312.216 85.5758Z" fill="#FFECA7"/>
<path d="M316.225 86.2385L315.059 85.2793L311.032 90.1735L312.198 91.1326L316.225 86.2385Z" fill="#FFECA7"/>
<path d="M327.175 121.385C326.576 122.337 324.049 122.905 320.516 123.001" stroke="#24386C" stroke-width="0.5353" stroke-miterlimit="10" stroke-linecap="round"/>
<path d="M299.522 113.773C299.875 114.511 301.256 115.164 303.322 115.668" stroke="#24386C" stroke-width="0.5353" stroke-miterlimit="10" stroke-linecap="round"/>
<path d="M257.854 60.6068L216.946 118.944C214.57 122.338 209.891 123.151 206.508 120.774L148.171 79.8562C144.777 77.4794 143.964 72.8009 146.34 69.4178L187.248 11.0808C189.625 7.68701 194.303 6.87335 197.686 9.25009L256.023 50.1577C259.406 52.5452 260.231 57.213 257.854 60.6068Z" fill="#D9E2FF"/>
<path opacity="0.2" fill-rule="evenodd" clip-rule="evenodd" d="M186.905 254.235L120.357 292.659C118.965 293.462 117.241 293.462 115.85 292.659L49.3012 254.235C46.2928 252.501 46.2928 248.165 49.3012 246.42L80.3165 228.509L115.85 207.996C117.241 207.193 118.965 207.193 120.357 207.996L155.879 228.509L186.905 246.42C189.914 248.154 189.914 252.501 186.905 254.235Z" stroke="#B2BFE8" stroke-width="1.0706" stroke-miterlimit="10"/>
<path opacity="0.2" fill-rule="evenodd" clip-rule="evenodd" d="M175.182 253.572L119.982 285.443C118.826 286.107 117.402 286.107 116.246 285.443L61.0457 253.572C58.5512 252.126 58.5512 248.529 61.0457 247.095L86.7722 232.235L116.246 215.223C117.402 214.559 118.826 214.559 119.982 215.223L149.445 232.235L175.182 247.095C177.677 248.529 177.677 252.126 175.182 253.572Z" fill="#B2BFE8"/>
<path d="M227.824 65.5957C229.101 65.5957 230.136 64.5604 230.136 63.2832C230.136 62.006 229.101 60.9707 227.824 60.9707C226.547 60.9707 225.511 62.006 225.511 63.2832C225.511 64.5604 226.547 65.5957 227.824 65.5957Z" fill="#C91540"/>
<path opacity="0.16" fill-rule="evenodd" clip-rule="evenodd" d="M213.67 255.756L121.246 309.125C119.308 310.249 116.92 310.249 114.983 309.125L22.5577 255.756C18.3823 253.347 18.3823 247.319 22.5577 244.91L65.6279 220.04L114.983 191.552C116.92 190.428 119.308 190.438 121.246 191.552L170.59 220.04L213.681 244.91C217.846 247.309 217.846 253.336 213.67 255.756Z" stroke="#B2BFE8" stroke-width="1.0706" stroke-miterlimit="10"/>
<path d="M175.632 62.3518C176.909 62.3518 177.944 61.3165 177.944 60.0393C177.944 58.7622 176.909 57.7268 175.632 57.7268C174.355 57.7268 173.319 58.7622 173.319 60.0393C173.319 61.3165 174.355 62.3518 175.632 62.3518Z" fill="#C91540"/>
<path d="M181.552 58.0802C182.83 58.0802 183.865 57.0449 183.865 55.7677C183.865 54.4905 182.83 53.4552 181.552 53.4552C180.275 53.4552 179.24 54.4905 179.24 55.7677C179.24 57.0449 180.275 58.0802 181.552 58.0802Z" fill="#C91540"/>
<path d="M194.196 51.9133C195.473 51.9133 196.509 50.878 196.509 49.6008C196.509 48.3237 195.473 47.2883 194.196 47.2883C192.919 47.2883 191.884 48.3237 191.884 49.6008C191.884 50.878 192.919 51.9133 194.196 51.9133Z" fill="#C91540"/>
<path d="M220.03 55.4893C221.307 55.4893 222.342 54.4539 222.342 53.1768C222.342 51.8996 221.307 50.8643 220.03 50.8643C218.753 50.8643 217.717 51.8996 217.717 53.1768C217.717 54.4539 218.753 55.4893 220.03 55.4893Z" fill="#C91540"/>
<path opacity="0.1" d="M0 235.329L46.0572 208.735L113.815 169.626C116.471 168.084 119.747 168.084 122.412 169.626L190.139 208.735L249.289 242.876C255.028 246.185 255.028 254.46 249.289 257.779L122.412 331.03C119.747 332.571 116.471 332.571 113.815 331.03L0 265.327" stroke="#B2BFE8" stroke-width="1.0706" stroke-miterlimit="10"/>
<path d="M219.955 65.7992C219.955 65.7992 217.246 53.2517 203.885 54.9968C190.524 56.7419 198.607 66.2809 203.992 64.8142C209.388 63.3475 213.296 56.3565 208.97 51.5067C204.645 46.6568 188.565 49.5153 190.738 61.0885C192.911 72.6617 201.176 71.4948 205.373 69.8246C209.57 68.1545 212.632 61.6024 206.476 59.7717C206.476 59.7717 189.989 54.2474 185.299 68.6041C180.61 82.9609 205.084 71.2699 196.155 62.127C187.226 52.9841 182.933 56.592 179.668 61.0992C176.403 65.6065 182.355 70.3171 188.468 70.1565C194.582 69.9959 192.965 58.9045 184.946 59.0865C176.927 59.2685 170.953 63.6473 172.516 69.0324C174.08 74.4175 189.025 69.7925 185.535 62.6516C182.045 55.5107 174.272 56.1209 171.125 58.7653C167.977 61.4204 169.84 66.6664 176.007 67.6192C182.173 68.572 183.512 57.4485 189.742 54.0975C195.963 50.7572 196.562 60.0715 200.952 61.5703C205.341 63.0691 204.966 56.9346 207.9 56.849C210.823 56.7633 209.441 62.6409 214.302 65.114C219.162 67.5871 221.496 67.2766 223.605 63.84C225.715 60.4033 218.509 56.2922 215.009 60.2749C211.508 64.2682 210.769 71.7196 216.25 73.0578C221.732 74.3961 227.428 74.4817 228.102 70.1779C228.776 65.8741 216.647 69.0324 215.769 63.3475C214.891 57.6626 224.248 55.8319 227.16 59.1293C230.072 62.4268 221.143 66.4844 222.706 69.7069C224.269 72.9294 230.265 72.4797 232.834 70.4777C235.403 68.465 236.613 62.8871 230.104 62.0307C223.595 61.1742 222.042 70.3599 217.171 69.2358C212.3 68.1117 208.681 57.4485 217.278 54.4508C225.875 51.4531 231.646 58.9902 229.483 65.5208C227.32 72.0515 211.197 73.7216 203.607 67.0197C196.016 60.3177 197.033 52.6522 201.155 51.8171C205.277 50.9821 209.752 50.9928 213.52 53.8084C217.278 56.6241 214.912 64.0755 207.654 65.2532C200.384 66.4308 199.378 59.3006 201.647 57.1487C203.917 54.9968 199.87 50.8001 196.744 53.0483C193.618 55.2966 192.612 60.5211 194.218 63.2083C195.813 65.8848 183.586 68.2508 181.124 62.127C178.651 56.0032 177.602 55.5321 173.394 55.5428C169.187 55.5535 171.189 64.7607 176.874 65.1247C182.559 65.4887 194.592 57.4057 200.855 67.9725C207.118 78.5393 221.529 71.5697 220.897 62.0307C220.265 52.4916 230.832 54.4508 232.213 58.9366C233.594 63.4224 232.791 67.3622 230.2 69.5356C227.599 71.6982 216.026 68.4114 218.295 55.9175C220.565 43.4236 204.977 49.601 204.506 57.2237C204.035 64.8463 218.178 57.8018 215.608 51.1319C213.039 44.4621 200.127 47.1814 198.725 51.1641C197.322 55.1467 192.397 49.1406 188.586 49.3119C184.775 49.4832 181.038 57.2344 186.937 60.5318C192.836 63.8293 193.811 52.4916 187.323 52.2133C180.824 51.9456 177.613 55.9711 176.167 59.2578C174.722 62.5445 180.996 68.9253 188.65 68.0367C196.305 67.1588 200.545 61.0885 205.534 62.748C210.523 64.4074 223.124 67.8761 225.147 59.4505C227.171 51.0249 222.556 57.5448 219.933 56.0139C217.31 54.4829 213.82 56.1638 212.814 50.5324C211.807 44.9011 202.868 48.9586 203.703 53.0911" stroke="#FFECA7" stroke-width="1.6059" stroke-miterlimit="10"/>
<path d="M208.927 59.4291C210.205 59.4291 211.24 58.3937 211.24 57.1166C211.24 55.8394 210.205 54.8041 208.927 54.8041C207.65 54.8041 206.615 55.8394 206.615 57.1166C206.615 58.3937 207.65 59.4291 208.927 59.4291Z" fill="#C91540"/>
<path d="M187.269 64.8142C188.547 64.8142 189.582 63.7789 189.582 62.5017C189.582 61.2245 188.547 60.1892 187.269 60.1892C185.992 60.1892 184.957 61.2245 184.957 62.5017C184.957 63.7789 185.992 64.8142 187.269 64.8142Z" fill="#C91540"/>
<path fill-rule="evenodd" clip-rule="evenodd" d="M118.109 186.252L100.626 196.348L83.1428 206.444V246.827L100.626 256.923L118.109 267.019L129.296 260.563L141.191 267.019L153.085 260.156V206.455L135.602 196.359L118.109 186.252Z" fill="#201D1D"/>
<path fill-rule="evenodd" clip-rule="evenodd" d="M141.18 239.964V213.317L153.074 206.455V260.156L141.18 267.018V239.964Z" fill="#24386C"/>
<path fill-rule="evenodd" clip-rule="evenodd" d="M153.074 206.444L141.18 213.307L129.639 206.647L118.098 199.988L106.557 206.647L95.0158 213.307L83.1215 206.444L100.604 196.348L118.087 186.252L135.57 196.348L153.074 206.444Z" fill="#7D8CB5"/>
<path fill-rule="evenodd" clip-rule="evenodd" d="M83.1428 206.444L95.0372 213.306V239.954L106.578 246.613L118.119 253.272V266.997L100.636 256.901L83.1535 246.805V206.444" fill="#B2BFE8"/>
<path fill-rule="evenodd" clip-rule="evenodd" d="M129.297 246.827L118.109 253.283V267.008L129.297 260.552V246.827Z" fill="#24386C"/>
<path fill-rule="evenodd" clip-rule="evenodd" d="M118.109 226.635L106.921 220.18L118.109 213.724L129.296 220.18L118.109 226.635Z" fill="#7D8CB5"/>
<path fill-rule="evenodd" clip-rule="evenodd" d="M106.921 220.18L118.109 226.636V239.558L106.921 233.102V220.18Z" fill="#B2BFE8"/>
<path fill-rule="evenodd" clip-rule="evenodd" d="M118.109 226.636L129.297 220.18V233.091L118.109 239.547V226.636Z" fill="#24386C"/>
<path fill-rule="evenodd" clip-rule="evenodd" d="M129.296 260.563L141.191 267.018V213.317L129.65 206.658L118.109 199.999L106.567 206.658L95.0264 213.317V239.964L106.567 246.624L118.109 253.283L129.296 246.827V260.563ZM129.296 233.091L118.109 239.547L106.921 233.091V220.18L118.109 213.724L129.296 220.18V233.091Z" fill="#C91540"/>
<path d="M117.584 253.293V239.557L106.461 233.155L106.193 246.666L117.584 253.293Z" fill="url(#paint0_linear_971_4867)"/>
<path d="M215.522 68.1545C216.8 68.1545 217.835 67.1192 217.835 65.842C217.835 64.5649 216.8 63.5295 215.522 63.5295C214.245 63.5295 213.21 64.5649 213.21 65.842C213.21 67.1192 214.245 68.1545 215.522 68.1545Z" fill="#C91540"/>
<path d="M236.699 66.7521C238.026 66.8377 239.033 68.0261 238.851 69.3536C236.41 87.8215 226.336 87.4039 200.887 85.8194C175.45 84.235 165.365 83.4106 165.236 64.7714C165.226 63.4332 166.371 62.3733 167.699 62.459C167.699 62.459 193.907 65.0498 202.675 65.5958C211.165 66.1204 236.699 66.7521 236.699 66.7521Z" fill="white"/>
<path d="M237.705 71.666C234.312 71.7196 220.297 71.848 202.247 70.7132C185.128 69.6319 169.786 67.7369 166.093 67.2659" stroke="#24386C" stroke-width="0.5353" stroke-miterlimit="10" stroke-linecap="round"/>
<path fill-rule="evenodd" clip-rule="evenodd" d="M252.394 232.459H160.633C154.67 232.459 149.831 227.62 149.831 221.657C149.831 215.694 154.67 210.855 160.633 210.855H252.394C258.357 210.855 263.196 215.694 263.196 221.657C263.196 227.62 258.357 232.459 252.394 232.459Z" fill="white" stroke="#B2BFE8" stroke-width="1.0706" stroke-miterlimit="10"/>
<path d="M178.287 226.186H177.313V216.625H180.257C181.231 216.625 181.991 216.839 182.559 217.257C183.126 217.685 183.405 218.317 183.405 219.173C183.405 219.837 183.19 220.404 182.773 220.854C182.355 221.304 181.745 221.571 180.953 221.646L183.704 226.186H182.516L179.893 221.743H178.276V226.186H178.287ZM178.287 220.854H180.011C180.439 220.854 180.814 220.811 181.113 220.715C181.413 220.629 181.66 220.501 181.831 220.362C182.013 220.212 182.141 220.04 182.227 219.837C182.313 219.634 182.345 219.42 182.345 219.184C182.345 218.959 182.302 218.745 182.227 218.542C182.141 218.338 182.013 218.156 181.831 218.006C181.649 217.856 181.413 217.739 181.113 217.653C180.814 217.567 180.45 217.525 180.011 217.525H178.287V220.854Z" fill="#24386C"/>
<path d="M185.621 223.274C185.653 223.584 185.728 223.884 185.845 224.162C185.974 224.441 186.134 224.687 186.349 224.88C186.552 225.083 186.798 225.244 187.066 225.361C187.334 225.479 187.633 225.533 187.944 225.533C188.426 225.533 188.832 225.426 189.175 225.201C189.518 224.976 189.785 224.73 189.967 224.441L190.652 225.008C190.278 225.49 189.86 225.832 189.4 226.036C188.95 226.239 188.458 226.346 187.933 226.346C187.462 226.346 187.034 226.261 186.627 226.1C186.22 225.94 185.877 225.704 185.599 225.404C185.321 225.104 185.085 224.751 184.914 224.355C184.743 223.948 184.668 223.509 184.668 223.027C184.668 222.546 184.753 222.107 184.914 221.7C185.075 221.293 185.299 220.94 185.588 220.651C185.878 220.362 186.209 220.126 186.606 219.955C186.991 219.784 187.408 219.709 187.858 219.709C188.34 219.709 188.757 219.794 189.143 219.966C189.518 220.137 189.839 220.362 190.096 220.651C190.353 220.94 190.545 221.272 190.684 221.646C190.824 222.021 190.888 222.439 190.888 222.867V223.274H185.621ZM189.914 222.546C189.914 221.946 189.732 221.454 189.378 221.079C189.014 220.704 188.511 220.522 187.869 220.522C187.58 220.522 187.301 220.576 187.034 220.694C186.766 220.811 186.531 220.961 186.327 221.143C186.124 221.325 185.963 221.55 185.845 221.796C185.728 222.043 185.663 222.289 185.663 222.556H189.914V222.546Z" fill="#24386C"/>
<path d="M195.856 221.368C195.716 221.111 195.545 220.897 195.32 220.747C195.095 220.597 194.817 220.522 194.496 220.522C194.346 220.522 194.185 220.544 194.036 220.576C193.875 220.608 193.736 220.672 193.607 220.747C193.479 220.822 193.382 220.918 193.308 221.036C193.233 221.154 193.19 221.293 193.19 221.464C193.19 221.764 193.297 221.978 193.5 222.117C193.704 222.257 194.014 222.374 194.432 222.471L195.331 222.685C195.77 222.781 196.134 222.985 196.434 223.284C196.723 223.584 196.873 223.959 196.873 224.409C196.873 224.751 196.808 225.04 196.658 225.297C196.519 225.543 196.337 225.747 196.102 225.907C195.877 226.068 195.609 226.175 195.31 226.25C195.01 226.325 194.71 226.357 194.41 226.357C193.928 226.357 193.468 226.261 193.051 226.079C192.633 225.897 192.269 225.576 191.98 225.126L192.751 224.601C192.933 224.89 193.158 225.115 193.436 225.286C193.714 225.458 194.036 225.543 194.41 225.543C194.592 225.543 194.774 225.522 194.946 225.479C195.128 225.436 195.288 225.372 195.427 225.286C195.566 225.201 195.684 225.094 195.77 224.955C195.856 224.815 195.898 224.665 195.898 224.483C195.898 224.173 195.781 223.937 195.545 223.798C195.31 223.659 195.031 223.552 194.699 223.466L193.832 223.263C193.725 223.242 193.575 223.188 193.393 223.124C193.211 223.06 193.029 222.963 192.858 222.845C192.687 222.717 192.537 222.556 192.408 222.353C192.28 222.15 192.215 221.903 192.215 221.604C192.215 221.282 192.28 220.993 192.408 220.758C192.537 220.512 192.719 220.319 192.933 220.169C193.147 220.019 193.404 219.901 193.682 219.826C193.961 219.751 194.25 219.709 194.549 219.709C194.988 219.709 195.395 219.794 195.781 219.966C196.155 220.137 196.455 220.426 196.658 220.843L195.856 221.368Z" fill="#24386C"/>
<path d="M205.491 224.73H205.523V216.625H206.497V226.186H205.288L199.592 218.006H199.56V226.186H198.586V216.625H199.795L205.491 224.73Z" fill="#24386C"/>
<path d="M209.377 223.274C209.409 223.584 209.484 223.884 209.602 224.162C209.73 224.441 209.891 224.687 210.105 224.88C210.309 225.083 210.555 225.244 210.822 225.361C211.09 225.479 211.39 225.533 211.7 225.533C212.182 225.533 212.589 225.426 212.932 225.201C213.274 224.976 213.542 224.73 213.724 224.441L214.409 225.008C214.034 225.49 213.617 225.832 213.156 226.036C212.707 226.239 212.214 226.346 211.69 226.346C211.219 226.346 210.79 226.261 210.384 226.1C209.977 225.94 209.634 225.704 209.356 225.404C209.077 225.104 208.842 224.751 208.671 224.355C208.499 223.948 208.424 223.509 208.424 223.027C208.424 222.546 208.51 222.107 208.671 221.7C208.831 221.293 209.056 220.94 209.345 220.651C209.634 220.362 209.966 220.126 210.362 219.955C210.748 219.784 211.165 219.709 211.615 219.709C212.096 219.709 212.514 219.794 212.899 219.966C213.274 220.137 213.595 220.362 213.852 220.651C214.109 220.94 214.302 221.272 214.441 221.646C214.58 222.021 214.645 222.439 214.645 222.867V223.274H209.377ZM213.67 222.546C213.67 221.946 213.488 221.454 213.135 221.079C212.771 220.704 212.268 220.522 211.625 220.522C211.336 220.522 211.058 220.576 210.79 220.694C210.523 220.811 210.287 220.961 210.084 221.143C209.88 221.325 209.72 221.55 209.602 221.796C209.484 222.043 209.42 222.289 209.42 222.556H213.67V222.546Z" fill="#24386C"/>
<path d="M219.537 220.683H217.717V224.409C217.717 224.644 217.739 224.837 217.781 224.987C217.824 225.137 217.889 225.254 217.974 225.329C218.06 225.415 218.156 225.468 218.263 225.501C218.37 225.533 218.499 225.543 218.638 225.543C218.788 225.543 218.948 225.522 219.109 225.479C219.27 225.436 219.42 225.372 219.559 225.308L219.601 226.132C219.27 226.282 218.863 226.357 218.402 226.357C218.231 226.357 218.049 226.336 217.867 226.293C217.685 226.25 217.514 226.164 217.364 226.036C217.214 225.907 217.086 225.736 216.989 225.522C216.893 225.308 216.839 225.019 216.839 224.676V220.694H215.501V219.88H216.839V218.092H217.728V219.88H219.548V220.683H219.537Z" fill="#24386C"/>
<path opacity="0.3" fill-rule="evenodd" clip-rule="evenodd" d="M253.111 236.86H159.916C151.522 236.86 144.713 230.051 144.713 221.657C144.713 213.264 151.522 206.455 159.916 206.455H253.111C261.505 206.455 268.314 213.264 268.314 221.657C268.314 230.051 261.505 236.86 253.111 236.86Z" stroke="#B2BFE8" stroke-width="1.0706" stroke-miterlimit="10"/>
<path d="M291.243 134.37C291.56 133.823 291.094 132.961 290.203 132.447C289.312 131.933 288.333 131.96 288.017 132.508C287.701 133.055 288.166 133.917 289.057 134.431C289.948 134.945 290.927 134.918 291.243 134.37Z" fill="#7D8CB5"/>
<path fill-rule="evenodd" clip-rule="evenodd" d="M141.565 192.515V203.478C141.565 203.842 141.383 204.196 141.03 204.41L137.411 206.497C137.08 206.69 136.705 206.786 136.341 206.786V192.515H141.565Z" fill="#24386C"/>
<path d="M202.268 113.708C203.297 113.708 204.131 113.196 204.131 112.563C204.131 111.93 203.297 111.417 202.268 111.417C201.24 111.417 200.406 111.93 200.406 112.563C200.406 113.196 201.24 113.708 202.268 113.708Z" fill="#7D8CB5"/>
<path fill-rule="evenodd" clip-rule="evenodd" d="M136.341 192.515V206.786C135.977 206.786 135.602 206.69 135.27 206.497L131.652 204.41C131.288 204.196 131.116 203.842 131.116 203.478V192.515H136.341Z" fill="#B2BFE8"/>
<path fill-rule="evenodd" clip-rule="evenodd" d="M135.26 195.534L131.641 193.447C130.924 193.04 130.924 192.001 131.641 191.595L135.26 189.507C135.923 189.121 136.737 189.121 137.401 189.507L141.019 191.595C141.737 192.001 141.737 193.04 141.019 193.447L137.401 195.534C136.748 195.92 135.923 195.92 135.26 195.534Z" fill="#7D8CB5"/>
<path d="M80.0872 132.784C81.0709 132.483 81.718 131.748 81.5327 131.143C81.3473 130.538 80.3996 130.292 79.416 130.594C78.4323 130.895 77.7852 131.63 77.9705 132.235C78.1559 132.84 79.1036 133.086 80.0872 132.784Z" fill="#7D8CB5"/>
<path d="M289.843 132.947C289.843 132.947 266.354 189.218 209.966 168.438C176.231 156.008 140.655 169.765 136.341 192.515" stroke="#67C87A" stroke-width="1.0706" stroke-miterlimit="10" stroke-linecap="round"/>
<path d="M202.247 112.049C206.519 153.289 121.706 144.852 136.341 192.515" stroke="#67C87A" stroke-width="1.0706" stroke-miterlimit="10" stroke-linecap="round"/>
<path opacity="0.3" d="M245.606 225.522C248.013 225.522 249.964 224.88 249.964 224.087C249.964 223.295 248.013 222.653 245.606 222.653C243.2 222.653 241.249 223.295 241.249 224.087C241.249 224.88 243.2 225.522 245.606 225.522Z" fill="#B2BFE8"/>
<path d="M136.341 192.515C136.341 192.515 146.073 158.299 111.043 153.406C90.1017 150.484 82.2756 138.707 79.6741 131.32" stroke="#67C87A" stroke-width="1.0706" stroke-miterlimit="10" stroke-linecap="round"/>
<path d="M245.596 183.886C237.277 183.886 231.731 189.314 231.731 197.44C231.731 201.348 233.252 205.363 234.601 208.296C236.667 212.9 239.836 217.921 242.662 222.278C243.422 223.434 244.322 224.098 245.596 224.098C246.88 224.098 247.78 223.434 248.54 222.278C251.388 217.889 254.567 212.846 256.644 208.2C257.95 205.309 259.471 201.326 259.471 197.44C259.471 189.314 253.925 183.886 245.596 183.886Z" fill="#721FFA"/>
<path d="M245.596 187.751C251.612 187.751 255.606 191.616 255.606 197.429C255.606 200.534 254.375 203.682 253.186 206.337C251.12 211.144 248.379 215.158 245.788 219.045C245.692 219.237 245.499 219.237 245.403 219.045C242.823 215.18 240.093 211.154 238.048 206.412C236.86 203.703 235.607 200.555 235.607 197.429C235.596 191.616 239.6 187.751 245.596 187.751Z" fill="white"/>
<path d="M245.606 203.467C248.711 203.467 251.227 200.951 251.227 197.847C251.227 194.743 248.711 192.226 245.606 192.226C242.502 192.226 239.986 194.743 239.986 197.847C239.986 200.951 242.502 203.467 245.606 203.467Z" fill="#721FFA"/>
<path fill-rule="evenodd" clip-rule="evenodd" d="M233.701 237.374H241.195V245.007C241.195 246.185 240.232 247.148 239.054 247.148H235.842C234.665 247.148 233.701 246.185 233.701 245.007V237.374Z" fill="#D9E2FF"/>
<path d="M322.904 321.073C350.356 321.073 372.611 298.818 372.611 271.365C372.611 243.912 350.356 221.657 322.904 221.657C295.451 221.657 273.196 243.912 273.196 271.365C273.196 298.818 295.451 321.073 322.904 321.073Z" fill="#D9E2FF"/>
<path d="M275.602 273.591C276.233 273.549 276.689 272.682 276.62 271.656C276.55 270.629 275.982 269.831 275.351 269.874C274.72 269.917 274.265 270.783 274.334 271.81C274.403 272.836 274.971 273.634 275.602 273.591Z" fill="#7D8CB5"/>
<path d="M205.47 361.413C225.496 361.413 241.731 345.179 241.731 325.152C241.731 305.126 225.496 288.891 205.47 288.891C185.443 288.891 169.208 305.126 169.208 325.152C169.208 345.179 185.443 361.413 205.47 361.413Z" fill="#D9E2FF"/>
<path d="M246.5 325.5C246.5 348.144 228.144 366.5 205.5 366.5C182.856 366.5 164.5 348.144 164.5 325.5C164.5 302.856 182.856 284.5 205.5 284.5C228.144 284.5 246.5 302.856 246.5 325.5Z" stroke="#D9E2FF"/>
<path opacity="0.5" d="M256.5 325.5C256.5 353.667 233.667 376.5 205.5 376.5C177.333 376.5 154.5 353.667 154.5 325.5C154.5 297.333 177.333 274.5 205.5 274.5C233.667 274.5 256.5 297.333 256.5 325.5Z" stroke="#D9E2FF"/>
<path d="M204.592 292.501C205.62 292.461 206.433 291.916 206.409 291.284C206.384 290.652 205.531 290.171 204.503 290.211C203.475 290.251 202.661 290.795 202.686 291.428C202.71 292.06 203.563 292.54 204.592 292.501Z" fill="#7D8CB5"/>
<path d="M357.013 248.24C362.345 248.24 366.755 243.84 366.755 238.508C366.755 233.187 362.345 228.777 357.002 228.777C351.681 228.777 347.281 233.177 347.281 238.508C347.292 243.829 351.692 248.24 357.013 248.24ZM357.013 246.302C352.698 246.302 349.24 242.834 349.24 238.508C349.24 234.194 352.698 230.725 357.002 230.725C361.317 230.725 364.796 234.183 364.807 238.508C364.818 242.823 361.338 246.302 357.013 246.302ZM353.93 242.459C354.176 242.459 354.39 242.373 354.551 242.202L357.013 239.74L359.475 242.202C359.636 242.363 359.839 242.459 360.096 242.459C360.578 242.459 360.953 242.084 360.953 241.602C360.953 241.367 360.856 241.163 360.696 241.003L358.223 238.53L360.696 236.046C360.878 235.864 360.964 235.682 360.964 235.457C360.964 234.975 360.589 234.601 360.107 234.601C359.871 234.601 359.679 234.676 359.497 234.858L357.013 237.331L354.529 234.868C354.369 234.697 354.176 234.611 353.93 234.611C353.448 234.611 353.073 234.975 353.073 235.457C353.073 235.693 353.17 235.896 353.341 236.057L355.803 238.53L353.341 241.014C353.17 241.163 353.073 241.378 353.073 241.602C353.073 242.084 353.448 242.459 353.93 242.459Z" fill="#C91540"/>
<path d="M226.582 306.213L234.14 313.761C235.575 315.195 237.052 315.206 238.476 313.782L246.056 306.202C247.491 304.768 247.48 303.29 246.035 301.856L238.487 294.308C237.052 292.873 235.575 292.863 234.14 294.287L226.56 301.866C225.136 303.29 225.158 304.768 226.582 306.213ZM227.974 304.982C227.342 304.35 227.32 303.697 227.974 303.055L235.339 295.689C236.003 295.036 236.635 295.047 237.266 295.678L244.643 303.066C245.274 303.697 245.296 304.35 244.643 304.993L237.277 312.358C236.624 313.011 235.971 312.99 235.35 312.369L227.974 304.982ZM235.307 308.493C235.65 308.493 235.939 308.322 236.131 308.022L240.339 301.449C240.457 301.256 240.574 301.021 240.574 300.807C240.574 300.346 240.157 300.036 239.718 300.036C239.44 300.036 239.183 300.186 238.979 300.507L235.264 306.47L233.519 304.243C233.294 303.954 233.07 303.847 232.781 303.847C232.32 303.847 231.967 304.211 231.967 304.682C231.967 304.907 232.053 305.11 232.213 305.314L234.429 308.022C234.686 308.354 234.954 308.493 235.307 308.493Z" fill="#67C87A"/>
<path d="M237.448 248.058C237.448 258.475 248.604 274.245 275.754 271.729" stroke="#C91540" stroke-width="1.0706" stroke-miterlimit="10" stroke-linecap="round"/>
<path d="M237.448 248.058C237.448 248.058 237.812 260.284 219.965 262.49C197.13 265.305 204.538 291.76 204.538 291.76" stroke="#C91540" stroke-width="1.0706" stroke-miterlimit="10" stroke-linecap="round"/>
<path d="M238.572 247.148H236.313V248.047H238.572V247.148Z" fill="black"/>
<path d="M230.95 341.115C212.857 320.292 208.071 304.522 208.071 304.522C207.536 303.151 205.951 302.52 204.602 303.13C192.558 308.558 183.437 318 178.212 329.22C177.591 330.559 178.201 332.143 179.572 332.7C179.572 332.7 207.161 341.436 222.235 343.78C229.344 344.894 233.273 343.791 230.95 341.115Z" fill="#E8C76B"/>
<path d="M230.746 340.868C212.653 320.045 208.082 302.594 208.082 302.594C207.547 301.224 205.962 300.592 204.613 301.203C192.569 306.631 183.447 316.073 178.223 327.293C177.602 328.631 178.212 330.216 179.582 330.773C179.582 330.773 237.984 349.208 230.746 340.868Z" fill="#FFECA7"/>
<path d="M212.396 328.107C213.039 329.456 214.837 327.604 218.06 328.364C221.689 329.22 222.867 332.122 224.034 335.473C225.201 338.824 227.535 340.965 224.826 340.9C222.107 340.836 217.032 337.956 212.396 338.438C207.761 338.92 201.947 334.327 198.864 334.723C195.31 335.183 195.534 332.057 192.697 332.186C189.86 332.314 184.475 332.004 183.212 327.828C181.949 323.664 187.002 319.81 189.967 319.81C192.933 319.81 193.95 324.06 195.149 323.064C196.348 322.079 192.248 317.529 193.95 315.955C195.652 314.382 199.132 316.041 199.763 312.904C200.395 309.767 200.202 307.177 203.682 306.802C207.15 306.427 209.741 312.358 209.11 315.388C208.478 318.418 213.938 316.491 215.341 320.795C217.385 327.122 211.315 325.848 212.396 328.107Z" fill="white"/>
<path d="M215.073 327.24C214.27 328.706 212.428 329.242 210.962 328.439C209.495 327.636 208.96 325.794 209.763 324.327C210.565 322.861 212.171 322.743 213.638 323.546C215.105 324.36 215.876 325.784 215.073 327.24Z" fill="#C91540"/>
<path d="M191.798 328.128C190.995 329.595 188.543 329.745 187.077 328.942C185.61 328.139 185.075 326.298 185.878 324.831C186.68 323.364 188.286 323.246 189.753 324.049C191.22 324.852 192.601 326.662 191.798 328.128Z" fill="#C91540"/>
<path d="M204.41 314.007C202.964 314.607 201.176 313.525 200.652 312.262C200.127 310.999 200.823 309.039 202.268 308.429C203.714 307.83 205.48 308.997 206.005 310.249C206.529 311.513 205.844 313.397 204.41 314.007Z" fill="#C91540"/>
<path d="M220.94 337.999C220.287 339.198 218.638 339.573 217.278 338.824C215.908 338.074 215.341 336.5 215.994 335.291C216.647 334.092 218.103 334.07 219.462 334.82C220.833 335.569 221.593 336.8 220.94 337.999Z" fill="#C91540"/>
<path d="M206.315 332.207C205.512 333.674 204.303 333.845 202.836 333.042C201.369 332.239 200.77 330.848 201.573 329.381C202.376 327.914 203.981 327.796 205.448 328.599C206.915 329.402 207.118 330.741 206.315 332.207Z" fill="#C91540"/>
<path d="M201.808 322.957C201.005 324.424 199.11 324.649 197.643 323.846C196.177 323.043 195.641 321.202 196.444 319.735C197.247 318.268 198.853 318.15 200.32 318.953C201.787 319.756 202.611 321.491 201.808 322.957Z" fill="#C91540"/>
<path d="M198.008 313.397C196.423 314.05 194.517 313.525 193.201 314.585C191.884 315.634 190.802 313.493 193.201 310.902C199.1 304.522 199.592 312.733 198.008 313.397Z" fill="white"/>
<path d="M192.248 319.917C190.171 318.504 187.88 317.968 186.809 318.91C185.738 319.853 186.145 315.731 188.768 314.724C191.391 313.729 194.314 321.33 192.248 319.917Z" fill="white"/>
<path d="M213.071 340.258C211.7 339.916 218.038 338.738 222.931 341.661C225.201 343.01 221.047 343.042 221.036 344.209C221.015 347.517 217.353 345.847 216.561 344.209C215.769 342.571 215.608 340.879 213.071 340.258Z" fill="white"/>
<path d="M214.238 317.08C215.394 315.313 213.617 312.144 211.422 311.352C209.527 310.667 209.506 315.27 210.608 316.405C211.476 317.305 214.238 317.08 214.238 317.08Z" fill="white"/>
<path d="M313.151 275.808L293.773 256.976" stroke="#C91540" stroke-width="1.0706" stroke-miterlimit="10" stroke-linecap="round"/>
<path d="M336.725 274.245C336.725 274.245 333.781 265.98 324.884 268.346C315.988 270.712 322.304 276.45 325.826 274.984C329.349 273.506 331.383 268.432 328.021 265.53C324.66 262.629 314.018 265.98 316.512 273.635C319.007 281.289 324.499 279.759 327.197 278.26C329.895 276.761 331.383 272.05 327.058 271.354C327.058 271.354 315.399 269.063 313.493 279.213C311.577 289.351 327.133 279.277 320.27 273.87C313.418 268.464 310.827 271.29 309.007 274.63C307.187 277.971 311.641 280.636 315.763 279.983C319.895 279.33 317.818 271.965 312.401 272.789C306.984 273.613 303.322 277.114 304.864 280.626C306.395 284.137 316.116 279.684 313.118 275.155C310.121 270.626 304.907 271.718 303.012 273.795C301.117 275.872 302.841 279.255 307.102 279.362C311.363 279.469 311.288 271.804 315.206 268.999C319.125 266.183 320.356 272.446 323.46 273.067C326.565 273.688 325.773 269.577 327.743 269.256C329.713 268.935 329.295 273.046 332.807 274.288C336.318 275.53 337.871 275.112 338.995 272.596C340.119 270.08 334.873 267.928 332.86 270.937C330.837 273.945 330.997 279.063 334.83 279.491C338.663 279.919 342.528 279.469 342.603 276.493C342.678 273.517 334.745 276.729 333.653 272.95C332.561 269.181 338.727 267.104 340.997 269.085C343.267 271.065 337.571 274.598 338.909 276.643C340.247 278.688 344.273 277.853 345.836 276.268C347.399 274.684 347.731 270.798 343.245 270.787C338.759 270.776 338.524 277.146 335.119 276.804C331.725 276.472 328.321 269.566 333.888 266.783C339.444 263.999 344.016 268.592 343.127 273.206C342.239 277.821 331.469 280.369 325.73 276.504C320.002 272.639 320.013 267.35 322.732 266.419C325.452 265.498 328.482 265.102 331.276 266.676C334.07 268.25 333.128 273.506 328.31 274.941C323.493 276.375 322.176 271.633 323.525 269.973C324.874 268.314 321.758 265.83 319.842 267.629C317.925 269.427 317.701 273.057 319.017 274.727C320.334 276.397 312.262 279.073 310.046 275.144C307.83 271.215 307.08 270.99 304.232 271.365C301.385 271.74 303.558 277.81 307.434 277.542C311.309 277.285 318.75 270.755 323.931 277.36C329.102 283.966 338.256 277.971 336.982 271.568C335.719 265.166 343.042 265.562 344.38 268.474C345.718 271.386 345.515 274.127 343.952 275.829C342.378 277.521 334.252 276.311 334.68 267.65C335.119 258.989 325.098 264.545 325.452 269.748C325.805 274.952 334.766 268.935 332.432 264.642C330.098 260.349 321.598 263.336 320.998 266.151C320.398 268.967 316.534 265.338 313.964 265.787C311.395 266.237 309.553 271.825 313.836 273.528C318.118 275.23 317.786 267.468 313.365 267.864C308.943 268.26 307.112 271.269 306.427 273.613C305.742 275.969 310.549 279.737 315.656 278.463C320.763 277.189 323.107 272.703 326.629 273.388C330.152 274.074 338.995 275.305 339.626 269.427C340.258 263.55 337.699 268.367 335.794 267.564C333.888 266.761 331.661 268.207 330.484 264.481C329.306 260.755 323.61 264.299 324.531 267.018" stroke="#FFECA7" stroke-width="1.39178" stroke-miterlimit="10"/>
<path d="M315.206 275.101L300.014 252.747" stroke="#C91540" stroke-width="1.0706" stroke-miterlimit="10" stroke-linecap="round"/>
<path d="M301.32 275.433C300.25 275.508 299.468 276.45 299.575 277.521C300.956 290.411 307.401 300.196 326.148 298.933C344.894 297.67 349.968 287.103 349.604 274.149C349.572 273.078 348.662 272.243 347.602 272.318L301.32 275.433Z" fill="white"/>
</g>
<defs>
<linearGradient id="paint0_linear_971_4867" x1="117.737" y1="242.96" x2="106.08" y2="243.49" gradientUnits="userSpaceOnUse">
<stop stop-color="#FF3364"/>
<stop offset="1" stop-color="#C91540" stop-opacity="0"/>
</linearGradient>
<clipPath id="clip0_971_4867">
<rect width="396.122" height="380.063" fill="white"/>
</clipPath>
</defs>
</svg>
