<?xml version="1.0" encoding="UTF-8"?>
<svg width="397" height="381" fill="none" version="1.1" viewBox="0 0 397 381" xmlns="http://www.w3.org/2000/svg">
 <path d="m109.77 45.008-46.314-5.0211c-2.6658-0.289-5.2781 0.8672-6.8519 3.0298l-27.514 37.6c-1.5845 2.1626-1.8842 4.9997-0.8029 7.4514l18.81 42.62c1.0813 2.452 3.3831 4.133 6.0489 4.422l46.314 5.021c2.6662 0.289 5.2782-0.867 6.8522-3.03l27.514-37.599c1.585-2.1626 1.884-4.9997 0.803-7.4514l-18.81-42.621c-1.082-2.4517-3.384-4.1325-6.049-4.4216z" clip-path="url(#clipPath2266)" fill="#d9e2ff"/>
 <path d="m108.09 92.789-52.781 4.3681c-1.5952 0.1285-2.987-1.0492-3.1155-2.6444s1.0492-2.987 2.6444-3.1154l52.781-4.3681c1.595-0.1285 2.987 1.0492 3.115 2.6444 0.129 1.5952-1.06 2.987-2.644 3.1154z" clip-path="url(#clipPath2260)" fill="#c91540"/>
 <path d="m107.61 87.029-52.781 4.368c-1.5951 0.1285-2.9869-1.0492-3.1154-2.6444s1.0492-2.9869 2.6444-3.1154l52.781-4.368c1.595-0.1285 2.987 1.0491 3.115 2.6443 0.129 1.5952-1.049 2.987-2.644 3.1155z" clip-path="url(#clipPath2254)" fill="#c91540"/>
 <path d="m54.708 95.808 53.744-4.443c1.06-0.0857 1.991 0.6959 2.077 1.7558l0.075 0.9635c0.31 3.715-3.758 15.77-27.515 17.74-23.757 1.97-29.752-9.26-30.062-12.975l-0.0749-0.9636c-0.0963-1.0599 0.6959-1.9913 1.7558-2.0769z" clip-path="url(#clipPath2248)" fill="#ffeca7"/>
 <path d="m101.96 85.68-8.7682 0.728" clip-path="url(#clipPath2242)" stroke="#24386c" stroke-linecap="round" stroke-miterlimit="10" stroke-width=".5353"/>
 <path d="m100.89 81.794-40.308 3.3403c-1.0599 0.0856-1.9913-0.6959-2.0769-1.7558-0.0857-1.0599 0.6959-1.9913 1.7558-2.077l40.308-3.3402c1.06-0.0857 1.992 0.6958 2.077 1.7557 0.086 1.0599-0.696 1.9914-1.756 2.077z" clip-path="url(#clipPath2236)" fill="#ffffff"/>
 <g stroke="#24386c" stroke-linecap="round" stroke-miterlimit="10" stroke-width=".5353">
  <path d="m66.142 86.986-6.156 0.5139" clip-path="url(#clipPath2230)"/>
  <path d="m81.698 89.181-3.6936 0.2998" clip-path="url(#clipPath2224)"/>
  <path d="m107.41 94.695c2.088-2.2376 2.934-4.4858 3.158-6.0703" clip-path="url(#clipPath2218)"/>
 </g>
 <path d="m91.097 92.757s-4.9354 2.7087-5.6635 5.3209c0 0-1.5309-1.3596-0.91-3.2225 0.728-2.1947 6.5735-2.0984 6.5735-2.0984z" clip-path="url(#clipPath2212)" fill="#24386c"/>
 <path d="m315.75 146.73c23.562 0 42.663-19.101 42.663-42.664 0-23.562-19.101-42.663-42.663-42.663s-42.663 19.101-42.663 42.663c0 23.563 19.101 42.664 42.663 42.664z" clip-path="url(#clipPath2206)" fill="#d9e2ff"/>
 <path d="m107.64 76.966-53.487 6.8304c-1.0599 0.1392-2.0235-0.6102-2.1519-1.6701l-0.1178-0.9528c-0.4711-3.6936 3.0619-15.92 26.701-18.939 23.65-3.0191 30.137 7.9332 30.609 11.627l0.117 0.9528c0.129 1.0599-0.621 2.0234-1.67 2.1519z" clip-path="url(#clipPath2200)" fill="#ffeca7"/>
 <g stroke="#24386c" stroke-linecap="round" stroke-miterlimit="10" stroke-width=".5353">
  <path d="m81.516 67.812c0.13 0 0.2355-0.1055 0.2355-0.2356 0-0.13-0.1055-0.2355-0.2355-0.2355-0.1301 0-0.2356 0.1055-0.2356 0.2355 0 0.1301 0.1055 0.2356 0.2356 0.2356z" clip-path="url(#clipPath2194)"/>
  <path d="m72.918 68.914c0.1301 0 0.2356-0.1054 0.2356-0.2355s-0.1055-0.2355-0.2356-0.2355-0.2355 0.1054-0.2355 0.2355 0.1054 0.2355 0.2355 0.2355z" clip-path="url(#clipPath2188)"/>
  <path d="m75.691 74.182c0.1301 0 0.2356-0.1054 0.2356-0.2355s-0.1055-0.2356-0.2356-0.2356c-0.13 0-0.2355 0.1055-0.2355 0.2356s0.1055 0.2355 0.2355 0.2355z" clip-path="url(#clipPath2182)"/>
  <path d="m80.477 77.404c0.1301 0 0.2355-0.1054 0.2355-0.2355s-0.1054-0.2356-0.2355-0.2356-0.2355 0.1055-0.2355 0.2356 0.1054 0.2355 0.2355 0.2355z" clip-path="url(#clipPath2176)"/>
  <path d="m85.723 71.709c0.13 0 0.2355-0.1055 0.2355-0.2356s-0.1055-0.2355-0.2355-0.2355c-0.1301 0-0.2356 0.1054-0.2356 0.2355s0.1055 0.2356 0.2356 0.2356z" clip-path="url(#clipPath2170)"/>
  <path d="m69.257 76.045c0.1301 0 0.2356-0.1055 0.2356-0.2355 0-0.1301-0.1055-0.2356-0.2356-0.2356-0.13 0-0.2355 0.1055-0.2355 0.2356 0 0.13 0.1055 0.2355 0.2355 0.2355z" clip-path="url(#clipPath2164)"/>
  <path d="m77.094 64.622c0.1301 0 0.2356-0.1055 0.2356-0.2356s-0.1055-0.2355-0.2356-0.2355c-0.13 0-0.2355 0.1054-0.2355 0.2355s0.1055 0.2356 0.2355 0.2356z" clip-path="url(#clipPath2158)"/>
  <path d="m66.666 69.461c0.1301 0 0.2356-0.1055 0.2356-0.2355 0-0.1301-0.1055-0.2356-0.2356-0.2356s-0.2355 0.1055-0.2355 0.2356c0 0.13 0.1054 0.2355 0.2355 0.2355z" clip-path="url(#clipPath2152)"/>
  <path d="m88.357 64.311c0.1301 0 0.2356-0.1054 0.2356-0.2355s-0.1055-0.2356-0.2356-0.2356-0.2355 0.1055-0.2355 0.2356 0.1054 0.2355 0.2355 0.2355z" clip-path="url(#clipPath2146)"/>
  <path d="m93.999 70.895c0.1301 0 0.2355-0.1054 0.2355-0.2355s-0.1054-0.2355-0.2355-0.2355-0.2355 0.1054-0.2355 0.2355 0.1054 0.2355 0.2355 0.2355z" clip-path="url(#clipPath2140)"/>
  <path d="m97.296 66.045c0.1301 0 0.2355-0.1054 0.2355-0.2355s-0.1054-0.2356-0.2355-0.2356-0.2356 0.1055-0.2356 0.2356 0.1055 0.2355 0.2356 0.2355z" clip-path="url(#clipPath2134)"/>
  <path d="m61.602 73.861c0.13 0 0.2355-0.1054 0.2355-0.2355s-0.1055-0.2355-0.2355-0.2355c-0.1301 0-0.2356 0.1054-0.2356 0.2355s0.1055 0.2355 0.2356 0.2355z" clip-path="url(#clipPath2128)"/>
 </g>
 <path d="m90.262 92.864s2.0984-5.0425 7.4835-4.5286c5.3742 0.5139 13.286-5.5671 13.286-5.5671s2.826 6.9053-5.085 11.488c-7.9228 4.5822-8.5973-2.5908-15.685-1.3918z" clip-path="url(#clipPath2122)" fill="#67c87a"/>
 <path d="m60.371 92.147s-4.2931-0.2141-6.3808-3.4259c0 0-0.8564 1.7772-0.1177 3.2118s6.4985 0.2141 6.4985 0.2141z" clip-path="url(#clipPath2116)" clip-rule="evenodd" fill="#24386c" fill-rule="evenodd"/>
 <path d="m91.665 92.746s-2.1519-4.6892-7.9332-5.1496c-5.7705-0.471-9.6461 2.5159-9.0573 6.5628 0.5889 4.0469 5.0426 5.5029 5.0426 5.5029 2.9655-3.7043 7.6119-6.7983 11.948-6.9161z" clip-path="url(#clipPath2110)" fill="#67c87a"/>
 <path d="m77.244 93.945s-8.1687 0.2462-17.547 3.822c-11.926 4.5396-10.663-7.7083-10.663-7.7083s8.3614 3.7043 14.26 1.4132c5.9097-2.3018 13.95 2.4731 13.95 2.4731z" clip-path="url(#clipPath2104)" fill="#67c87a"/>
 <path d="m85.412 83.079-6.1559 0.5032" clip-path="url(#clipPath2098)" stroke="#24386c" stroke-linecap="round" stroke-miterlimit="10" stroke-width=".5353"/>
 <path d="m338 86.076-11.637 38.852-0.118 0.439c-0.931 1.478-6.723 2.013-13.586 1.189-6.884-0.825-12.43-2.72-12.922-4.379l-0.022-0.321v-0.011l-2.537-40.64c4.486 2.1091 11.755 4.004 20.117 4.9997 8.34 0.9849 15.855 0.8672 20.705-0.1285z" clip-path="url(#clipPath2092)" clip-rule="evenodd" fill="#c91540" fill-rule="evenodd"/>
 <path d="m314.79 114.43c3.961 0 7.173-3.212 7.173-7.173 0-3.962-3.212-7.173-7.173-7.173-3.962 0-7.174 3.211-7.174 7.173 0 3.961 3.212 7.173 7.174 7.173z" clip-path="url(#clipPath2086)" fill="#ffeca7"/>
 <path d="m297.21 80.991c4.861-0.9957 12.558-2.5587 20.898-1.5631 8.351 0.9957 15.428 4.3359 19.914 6.445 0 0-4.09 9.9352-21.616 7.8475-17.558-2.0984-19.196-12.729-19.196-12.729z" clip-path="url(#clipPath2080)" clip-rule="evenodd" fill="#ffffff" fill-rule="evenodd"/>
 <g fill="#f7dc84">
  <path d="m298.22 82.704c4.55-0.7495 11.455 0.5781 19.303 1.5095 7.869 0.9421 14.902 1.274 19.153 3.0833 0 0-3.715 8.1687-20.224 6.1988-16.541-1.9699-18.232-10.792-18.232-10.792z" clip-path="url(#clipPath2074)" clip-rule="evenodd" fill-rule="evenodd"/>
  <path d="m319.43 74.815-1.499-0.1787-2.265 18.998 1.499 0.1787z" clip-path="url(#clipPath2068)"/>
  <path d="m309.52 82.655-1.475-0.3205-1.846 8.4951 1.475 0.3205z" clip-path="url(#clipPath2062)"/>
  <path d="m315.68 74.092-1.509 0.0412 0.522 19.124 1.509-0.0412z" clip-path="url(#clipPath2056)"/>
 </g>
 <g fill="#ffeca7">
  <path d="m310.03 72.936-1.509 0.0412 0.523 19.124 1.509-0.0413z" clip-path="url(#clipPath2050)"/>
  <path d="m309.76 71.446-1.475-0.3205-4.062 18.695 1.475 0.3205z" clip-path="url(#clipPath2044)"/>
  <path d="m321.72 74.816-1.499-0.1788-2.265 18.998 1.499 0.1788z" clip-path="url(#clipPath2038)"/>
  <path d="m328.4 78.013-1.253-0.8429-10.683 15.872 1.252 0.8429z" clip-path="url(#clipPath2032)"/>
 </g>
 <path d="m330.58 82.804-1.253-0.843-7.072 10.507 1.252 0.8429z" clip-path="url(#clipPath2026)" fill="#f7dc84"/>
 <path d="m323.22 74.67-1.507 0.0703 0.891 19.111 1.508-0.0703z" clip-path="url(#clipPath2020)" fill="#f7dc84"/>
 <path d="m327.58 81.173-1.468-0.3549-2.977 12.31 1.467 0.3549z" clip-path="url(#clipPath2014)" fill="#ffeca7"/>
 <path d="m302.89 77.59-1.475-0.3204-1.846 8.495 1.475 0.3205z" clip-path="url(#clipPath2008)" fill="#f7dc84"/>
 <path d="m314.03 80.284-1.467-0.3549-2.978 12.311 1.468 0.3549z" clip-path="url(#clipPath2002)" fill="#f7dc84"/>
 <g fill="#ffeca7">
  <path d="m304.9 78.531-1.456 0.3978 3.337 12.217 1.456-0.3977z" clip-path="url(#clipPath1996)"/>
  <path d="m327.61 79.72-1.456 0.3978 3.337 12.217 1.456-0.3977z" clip-path="url(#clipPath1990)"/>
  <path d="m305.1 74.588-1.446-0.4354-3.652 12.127 1.445 0.4353z" clip-path="url(#clipPath1984)"/>
  <path d="m325.67 74.905-1.475-0.3204-4.062 18.695 1.475 0.3205z" clip-path="url(#clipPath1978)"/>
  <path d="m311.98 79.489-1.507-0.0938-0.786 12.641 1.507 0.0937z" clip-path="url(#clipPath1972)"/>
  <path d="m331.67 79.467-1.507-0.0937-0.786 12.641 1.507 0.0937z" clip-path="url(#clipPath1966)"/>
  <path d="m334.31 79.375-1.467-0.3549-2.977 12.311 1.467 0.3549z" clip-path="url(#clipPath1960)"/>
  <path d="m316.99 74.316-1.485-0.2715-3.44 18.82 1.485 0.2714z" clip-path="url(#clipPath1954)"/>
  <path d="m318.54 71.973-1.51 0.0119 0.152 19.132 1.509-0.0119z" clip-path="url(#clipPath1948)"/>
  <path d="m329.04 73.216-1.31-0.7511-9.52 16.595 1.31 0.7512z" clip-path="url(#clipPath1942)"/>
  <path d="m312.19 72.055-1.456 0.3978 3.337 12.217 1.456-0.3978z" clip-path="url(#clipPath1936)"/>
  <path d="m329.73 87.118-1.446-0.4354-1.828 6.0686 1.446 0.4353z" clip-path="url(#clipPath1930)"/>
  <path d="m326.28 86.606-1.276 0.8067 3.387 5.3575 1.276-0.8067z" clip-path="url(#clipPath1924)"/>
  <path d="m306.51 81.016-1.475-0.3204-1.846 8.495 1.475 0.3205z" clip-path="url(#clipPath1918)"/>
  <path d="m303.46 80.096-1.505 0.1245 0.717 8.6638 1.505-0.1246z" clip-path="url(#clipPath1912)"/>
 </g>
 <path d="m335.94 86.356-1.253-0.843-3.198 4.7518 1.252 0.8429z" clip-path="url(#clipPath1906)" fill="#f7dc84"/>
 <g fill="#ffeca7">
  <path d="m334.47 78.033-1.507-0.0938-0.786 12.641 1.507 0.0938z" clip-path="url(#clipPath1900)"/>
  <path d="m316.77 90.669c-11.348-1.349-16.551-3.897-18.671-7.1944 1.638 3.276 6.167 8.8003 18.307 10.246 12.119 1.4453 17.815-2.8585 20.181-5.6528-2.848 2.7086-8.49 3.9505-19.817 2.6016z" clip-path="url(#clipPath1894)" clip-rule="evenodd" fill-rule="evenodd"/>
  <path d="m324.24 85.982-1.276 0.8068 3.387 5.3574 1.276-0.8067z" clip-path="url(#clipPath1888)"/>
  <path d="m312.22 85.576-1.276 0.8066 3.387 5.3575 1.276-0.8067z" clip-path="url(#clipPath1882)"/>
  <path d="m316.22 86.238-1.166-0.9592-4.027 4.8942 1.166 0.9591z" clip-path="url(#clipPath1876)"/>
 </g>
 <path d="m327.18 121.38c-0.599 0.952-3.126 1.52-6.659 1.616" clip-path="url(#clipPath1870)" stroke="#24386c" stroke-linecap="round" stroke-miterlimit="10" stroke-width=".5353"/>
 <path d="m299.52 113.77c0.353 0.738 1.734 1.391 3.8 1.895" clip-path="url(#clipPath1864)" stroke="#24386c" stroke-linecap="round" stroke-miterlimit="10" stroke-width=".5353"/>
 <path d="m257.85 60.607-40.908 58.337c-2.376 3.394-7.055 4.207-10.438 1.83l-58.337-40.918c-3.394-2.3768-4.207-7.0553-1.831-10.438l40.908-58.337c2.377-3.3938 7.055-4.2074 10.438-1.8307l58.337 40.908c3.383 2.3875 4.208 7.0553 1.831 10.449z" clip-path="url(#clipPath1858)" fill="#d9e2ff"/>
 <path d="m186.9 254.24-66.548 38.424c-1.392 0.803-3.116 0.803-4.507 0l-66.549-38.424c-3.0084-1.734-3.0084-6.07 0-7.815l31.015-17.911 35.534-20.513c1.391-0.803 3.115-0.803 4.507 0l35.522 20.513 31.026 17.911c3.009 1.734 3.009 6.081 0 7.815z" clip-path="url(#clipPath1852)" clip-rule="evenodd" fill-rule="evenodd" opacity=".2" stroke="#b2bfe8" stroke-miterlimit="10" stroke-width="1.0706"/>
 <path d="m175.18 253.57-55.2 31.871c-1.156 0.664-2.58 0.664-3.736 0l-55.2-31.871c-2.4945-1.446-2.4945-5.043 0-6.477l25.726-14.86 29.474-17.012c1.156-0.664 2.58-0.664 3.736 0l55.2 31.872c2.495 1.434 2.495 5.031 0 6.477z" clip-path="url(#clipPath1846)" clip-rule="evenodd" fill="#b2bfe8" fill-rule="evenodd" opacity=".2"/>
 <path d="m227.82 65.596c1.277 0 2.312-1.0353 2.312-2.3125s-1.035-2.3125-2.312-2.3125-2.313 1.0353-2.313 2.3125 1.036 2.3125 2.313 2.3125z" clip-path="url(#clipPath1840)" fill="#c91540"/>
 <path d="m213.67 255.76-92.424 53.369c-1.938 1.124-4.326 1.124-6.263 0l-92.425-53.369c-4.1754-2.409-4.1754-8.437 0-10.846l43.07-24.87 49.355-28.488c1.937-1.124 4.325-1.114 6.263 0l49.344 28.488 43.091 24.87c4.165 2.399 4.165 8.426-0.011 10.846z" clip-path="url(#clipPath1834)" clip-rule="evenodd" fill-rule="evenodd" opacity=".16" stroke="#b2bfe8" stroke-miterlimit="10" stroke-width="1.0706"/>
 <g fill="#c91540">
  <path d="m175.63 62.352c1.277 0 2.312-1.0353 2.312-2.3125 0-1.2771-1.035-2.3125-2.312-2.3125s-2.313 1.0354-2.313 2.3125c0 1.2772 1.036 2.3125 2.313 2.3125z" clip-path="url(#clipPath1828)"/>
  <path d="m181.55 58.08c1.278 0 2.313-1.0353 2.313-2.3125s-1.035-2.3125-2.313-2.3125c-1.277 0-2.312 1.0353-2.312 2.3125s1.035 2.3125 2.312 2.3125z" clip-path="url(#clipPath1822)"/>
  <path d="m194.2 51.913c1.277 0 2.313-1.0353 2.313-2.3125 0-1.2771-1.036-2.3125-2.313-2.3125s-2.312 1.0354-2.312 2.3125c0 1.2772 1.035 2.3125 2.312 2.3125z" clip-path="url(#clipPath1816)"/>
  <path d="m220.03 55.489c1.277 0 2.312-1.0354 2.312-2.3125 0-1.2772-1.035-2.3125-2.312-2.3125s-2.313 1.0353-2.313 2.3125c0 1.2771 1.036 2.3125 2.313 2.3125z" clip-path="url(#clipPath1810)"/>
 </g>
 <path d="m0 235.33 46.057-26.594 67.758-39.109c2.656-1.542 5.932-1.542 8.597 0l67.727 39.109 59.15 34.141c5.739 3.309 5.739 11.584 0 14.903l-126.88 73.251c-2.665 1.541-5.941 1.541-8.597 0l-113.82-65.703" clip-path="url(#clipPath1804)" opacity=".1" stroke="#b2bfe8" stroke-miterlimit="10" stroke-width="1.0706"/>
 <path d="m219.96 65.799s-2.709-12.548-16.07-10.802-5.278 11.284 0.107 9.8174c5.396-1.4667 9.304-8.4577 4.978-13.308-4.325-4.8499-20.405-1.9914-18.232 9.5818s10.438 10.406 14.635 8.7361c4.197-1.6701 7.259-8.2222 1.103-10.053 0 0-16.487-5.5243-21.177 8.8324-4.689 14.357 19.785 2.6658 10.856-6.4771s-13.222-5.535-16.487-1.0278c-3.265 4.5073 2.687 9.2179 8.8 9.0573 6.114-0.1606 4.497-11.252-3.522-11.07s-13.993 4.5608-12.43 9.9459c1.564 5.3851 16.509 0.7601 13.019-6.3808s-11.263-6.5307-14.41-3.8863c-3.148 2.6551-1.285 7.9011 4.882 8.8539 6.166 0.9528 7.505-10.171 13.735-13.522 6.221-3.3403 6.82 5.974 11.21 7.4728 4.389 1.4988 4.014-4.6357 6.948-4.7213 2.923-0.0857 1.541 5.7919 6.402 8.265 4.86 2.4731 7.194 2.1626 9.303-1.274 2.11-3.4367-5.096-7.5478-8.596-3.5651-3.501 3.9933-4.24 11.445 1.241 12.783 5.482 1.3383 11.178 1.4239 11.852-2.8799s-11.455-1.1455-12.333-6.8304 8.479-7.5156 11.391-4.2182c2.912 3.2975-6.017 7.3551-4.454 10.578s7.559 2.7728 10.128 0.7708c2.569-2.0127 3.779-7.5906-2.73-8.447-6.509-0.8565-8.062 8.3292-12.933 7.2051s-8.49-11.787 0.107-14.785 14.368 4.5394 12.205 11.07c-2.163 6.5307-18.286 8.2008-25.876 1.4989-7.591-6.702-6.574-14.368-2.452-15.203 4.122-0.835 8.597-0.8243 12.365 1.9913 3.758 2.8157 1.392 10.267-5.866 11.445-7.27 1.1776-8.276-5.9526-6.007-8.1045 2.27-2.1519-1.777-6.3486-4.903-4.1004-3.126 2.2483-4.132 7.4728-2.526 10.16 1.595 2.6765-10.632 5.0425-13.094-1.0813-2.473-6.1238-3.522-6.5949-7.73-6.5842-4.207 0.0107-2.205 9.2179 3.48 9.5819s17.718-7.719 23.981 2.8478 20.674 3.5972 20.042-5.9418c-0.632-9.5391 9.935-7.5799 11.316-3.0941s0.578 8.4256-2.013 10.599c-2.601 2.1626-14.174-1.1242-11.905-13.618 2.27-12.494-13.318-6.3165-13.789 1.3062-0.471 7.6226 13.672 0.5781 11.102-6.0918-2.569-6.6698-15.481-3.9505-16.883 0.0322-1.403 3.9826-6.328-2.0235-10.139-1.8522s-7.548 7.9225-1.649 11.22c5.899 3.2975 6.874-8.0402 0.386-8.3185-6.499-0.2677-9.71 3.7578-11.156 7.0445-1.445 3.2867 4.829 9.6675 12.483 8.7789 7.655-0.8779 11.895-6.9482 16.884-5.2887 4.989 1.6594 17.59 5.1281 19.613-3.2975 2.024-8.4256-2.591-1.9057-5.214-3.4366-2.623-1.531-6.113 0.1499-7.119-5.4815-1.007-5.6313-9.946-1.5738-9.111 2.5587" clip-path="url(#clipPath1798)" stroke="#ffeca7" stroke-miterlimit="10" stroke-width="1.6059"/>
 <path d="m208.93 59.429c1.278 0 2.313-1.0354 2.313-2.3125 0-1.2772-1.035-2.3125-2.313-2.3125-1.277 0-2.312 1.0353-2.312 2.3125 0 1.2771 1.035 2.3125 2.312 2.3125z" clip-path="url(#clipPath1792)" fill="#c91540"/>
 <path d="m187.27 64.814c1.278 0 2.313-1.0353 2.313-2.3125s-1.035-2.3125-2.313-2.3125c-1.277 0-2.312 1.0353-2.312 2.3125s1.035 2.3125 2.312 2.3125z" clip-path="url(#clipPath1786)" fill="#c91540"/>
 <g clip-rule="evenodd" fill-rule="evenodd">
  <path d="m136.63 239.96 0.23027-29.644 16.209-3.8647v53.701l-11.894 6.862z" clip-path="url(#clipPath1774)" fill="#24386c"/>
  <path d="m153.07 206.44-11.894 6.863-13.84-1.2786-9.2307-5.5734-7.1244 3.8647-16.396 9.8603-11.467-13.736 17.482-10.096 17.483-10.096 17.483 10.096z" clip-path="url(#clipPath1768)" fill="#7d8cb5"/>
  <path transform="translate(-.01 .011)" d="m83.143 206.44 11.894 6.862 4.7041 22.778 8.85 6.1529 9.5277 11.035v13.725l-17.483-10.096-17.482-10.096v-40.361" clip-path="url(#clipPath1762)" fill="#b2bfe8"/>
  <path d="m131.08 242.25-12.975 7.4815 5e-3 17.279 11.188-6.456z" clip-path="url(#clipPath1756)" fill="#24386c"/>
  <path d="m118.11 226.64-15.636-6.455 16.106-9.8603 17.332 10.63z" clip-path="url(#clipPath1750)" fill="#7d8cb5"/>
  <path d="m106.92 220.18 11.188 6.456v12.922l-16.762-5.3623z" clip-path="url(#clipPath1744)" fill="#b2bfe8"/>
  <path d="m118.11 226.64 11.188-6.456 7.044 15.315-18.232 4.0522z" clip-path="url(#clipPath1738)" fill="#24386c"/>
  <path d="m129.3 260.56 11.895 6.455v-53.701l-23.082-13.318-11.542 6.659-11.541 6.659v26.647l11.541 6.66 11.542 6.659 11.187-6.456zm0-27.472-11.187 6.456-11.188-6.456v-12.911l11.188-6.456 11.187 6.456z" clip-path="url(#clipPath1732)" fill="#c91540"/>
 </g>
 <path d="m118.12 253.27-0.01-13.714-11.188-6.456-0.25114 13.564z" clip-path="url(#clipPath1726)" fill="url(#paint0_linear_971_4867)"/>
 <path d="m215.52 68.154c1.278 0 2.313-1.0353 2.313-2.3125 0-1.2771-1.035-2.3125-2.313-2.3125-1.277 0-2.312 1.0354-2.312 2.3125 0 1.2772 1.035 2.3125 2.312 2.3125z" clip-path="url(#clipPath1720)" fill="#c91540"/>
 <path d="m236.7 66.752c1.327 0.0856 2.334 1.274 2.152 2.6015-2.441 18.468-12.515 18.05-37.964 16.466-25.437-1.5844-35.522-2.4088-35.651-21.048-0.01-1.3382 1.135-2.3981 2.463-2.3124 0 0 26.208 2.5908 34.976 3.1368 8.49 0.5246 34.024 1.1563 34.024 1.1563z" clip-path="url(#clipPath1714)" fill="#ffffff"/>
 <path d="m237.7 71.666c-3.393 0.0536-17.408 0.182-35.458-0.9528-17.119-1.0813-32.461-2.9763-36.154-3.4473" clip-path="url(#clipPath1708)" stroke="#24386c" stroke-linecap="round" stroke-miterlimit="10" stroke-width=".5353"/>
 <path d="m252.39 232.46h-91.761c-5.963 0-10.802-4.839-10.802-10.802s4.839-10.802 10.802-10.802h91.761c5.963 0 10.802 4.839 10.802 10.802s-4.839 10.802-10.802 10.802z" clip-path="url(#clipPath1702)" clip-rule="evenodd" fill="#ffffff" fill-rule="evenodd" stroke="#b2bfe8" stroke-miterlimit="10" stroke-width="1.0706"/>
 <g fill="#24386c">
  <path d="m178.29 226.19h-0.974v-9.561h2.944c0.974 0 1.734 0.214 2.302 0.632 0.567 0.428 0.846 1.06 0.846 1.916 0 0.664-0.215 1.231-0.632 1.681-0.418 0.45-1.028 0.717-1.82 0.792l2.751 4.54h-1.188l-2.623-4.443h-1.617v4.443zm0-5.332h1.724c0.428 0 0.803-0.043 1.102-0.139 0.3-0.086 0.547-0.214 0.718-0.353 0.182-0.15 0.31-0.322 0.396-0.525s0.118-0.417 0.118-0.653c0-0.225-0.043-0.439-0.118-0.642-0.086-0.204-0.214-0.386-0.396-0.536s-0.418-0.267-0.718-0.353c-0.299-0.086-0.663-0.128-1.102-0.128h-1.724z" clip-path="url(#clipPath1696)"/>
  <path d="m185.62 223.27c0.032 0.31 0.107 0.61 0.224 0.888 0.129 0.279 0.289 0.525 0.504 0.718 0.203 0.203 0.449 0.364 0.717 0.481 0.268 0.118 0.567 0.172 0.878 0.172 0.482 0 0.888-0.107 1.231-0.332s0.61-0.471 0.792-0.76l0.685 0.567c-0.374 0.482-0.792 0.824-1.252 1.028-0.45 0.203-0.942 0.31-1.467 0.31-0.471 0-0.899-0.085-1.306-0.246-0.407-0.16-0.75-0.396-1.028-0.696s-0.514-0.653-0.685-1.049c-0.171-0.407-0.246-0.846-0.246-1.328 0-0.481 0.085-0.92 0.246-1.327s0.385-0.76 0.674-1.049c0.29-0.289 0.621-0.525 1.018-0.696 0.385-0.171 0.802-0.246 1.252-0.246 0.482 0 0.899 0.085 1.285 0.257 0.375 0.171 0.696 0.396 0.953 0.685s0.449 0.621 0.588 0.995c0.14 0.375 0.204 0.793 0.204 1.221v0.407zm4.293-0.728c0-0.6-0.182-1.092-0.536-1.467-0.364-0.375-0.867-0.557-1.509-0.557-0.289 0-0.568 0.054-0.835 0.172-0.268 0.117-0.503 0.267-0.707 0.449-0.203 0.182-0.364 0.407-0.482 0.653-0.117 0.247-0.182 0.493-0.182 0.76h4.251z" clip-path="url(#clipPath1690)"/>
  <path d="m195.86 221.37c-0.14-0.257-0.311-0.471-0.536-0.621s-0.503-0.225-0.824-0.225c-0.15 0-0.311 0.022-0.46 0.054-0.161 0.032-0.3 0.096-0.429 0.171-0.128 0.075-0.225 0.171-0.299 0.289-0.075 0.118-0.118 0.257-0.118 0.428 0 0.3 0.107 0.514 0.31 0.653 0.204 0.14 0.514 0.257 0.932 0.354l0.899 0.214c0.439 0.096 0.803 0.3 1.103 0.599 0.289 0.3 0.439 0.675 0.439 1.125 0 0.342-0.065 0.631-0.215 0.888-0.139 0.246-0.321 0.45-0.556 0.61-0.225 0.161-0.493 0.268-0.792 0.343-0.3 0.075-0.6 0.107-0.9 0.107-0.482 0-0.942-0.096-1.359-0.278-0.418-0.182-0.782-0.503-1.071-0.953l0.771-0.525c0.182 0.289 0.407 0.514 0.685 0.685 0.278 0.172 0.6 0.257 0.974 0.257 0.182 0 0.364-0.021 0.536-0.064 0.182-0.043 0.342-0.107 0.481-0.193 0.139-0.085 0.257-0.192 0.343-0.331 0.086-0.14 0.128-0.29 0.128-0.472 0-0.31-0.117-0.546-0.353-0.685-0.235-0.139-0.514-0.246-0.846-0.332l-0.867-0.203c-0.107-0.021-0.257-0.075-0.439-0.139s-0.364-0.161-0.535-0.279c-0.171-0.128-0.321-0.289-0.45-0.492-0.128-0.203-0.193-0.45-0.193-0.749 0-0.322 0.065-0.611 0.193-0.846 0.129-0.246 0.311-0.439 0.525-0.589s0.471-0.268 0.749-0.343c0.279-0.075 0.568-0.117 0.867-0.117 0.439 0 0.846 0.085 1.232 0.257 0.374 0.171 0.674 0.46 0.877 0.877z" clip-path="url(#clipPath1684)"/>
  <path d="m205.49 224.73h0.032v-8.105h0.974v9.561h-1.209l-5.696-8.18h-0.032v8.18h-0.974v-9.561h1.209z" clip-path="url(#clipPath1678)"/>
  <path d="m209.38 223.27c0.032 0.31 0.107 0.61 0.225 0.888 0.128 0.279 0.289 0.525 0.503 0.718 0.204 0.203 0.45 0.364 0.717 0.481 0.268 0.118 0.568 0.172 0.878 0.172 0.482 0 0.889-0.107 1.232-0.332 0.342-0.225 0.61-0.471 0.792-0.76l0.685 0.567c-0.375 0.482-0.792 0.824-1.253 1.028-0.449 0.203-0.942 0.31-1.466 0.31-0.471 0-0.9-0.085-1.306-0.246-0.407-0.16-0.75-0.396-1.028-0.696-0.279-0.3-0.514-0.653-0.685-1.049-0.172-0.407-0.247-0.846-0.247-1.328 0-0.481 0.086-0.92 0.247-1.327 0.16-0.407 0.385-0.76 0.674-1.049s0.621-0.525 1.017-0.696c0.386-0.171 0.803-0.246 1.253-0.246 0.481 0 0.899 0.085 1.284 0.257 0.375 0.171 0.696 0.396 0.953 0.685s0.45 0.621 0.589 0.995c0.139 0.375 0.204 0.793 0.204 1.221v0.407zm4.293-0.728c0-0.6-0.182-1.092-0.535-1.467-0.364-0.375-0.867-0.557-1.51-0.557-0.289 0-0.567 0.054-0.835 0.172-0.267 0.117-0.503 0.267-0.706 0.449-0.204 0.182-0.364 0.407-0.482 0.653-0.118 0.247-0.182 0.493-0.182 0.76h4.25z" clip-path="url(#clipPath1672)"/>
  <path d="m219.54 220.68h-1.82v3.726c0 0.235 0.022 0.428 0.064 0.578 0.043 0.15 0.108 0.267 0.193 0.342 0.086 0.086 0.182 0.139 0.289 0.172 0.107 0.032 0.236 0.042 0.375 0.042 0.15 0 0.31-0.021 0.471-0.064s0.311-0.107 0.45-0.171l0.042 0.824c-0.331 0.15-0.738 0.225-1.199 0.225-0.171 0-0.353-0.021-0.535-0.064s-0.353-0.129-0.503-0.257c-0.15-0.129-0.278-0.3-0.375-0.514-0.096-0.214-0.15-0.503-0.15-0.846v-3.982h-1.338v-0.814h1.338v-1.788h0.889v1.788h1.82v0.803z" clip-path="url(#clipPath1666)"/>
 </g>
 <path d="m253.11 236.86h-93.195c-8.394 0-15.203-6.809-15.203-15.203 0-8.393 6.809-15.202 15.203-15.202h93.195c8.394 0 15.203 6.809 15.203 15.202 0 8.394-6.809 15.203-15.203 15.203z" clip-path="url(#clipPath1660)" clip-rule="evenodd" fill-rule="evenodd" opacity=".3" stroke="#b2bfe8" stroke-miterlimit="10" stroke-width="1.0706"/>
 <path d="m291.24 134.37c0.317-0.547-0.149-1.409-1.04-1.923s-1.87-0.487-2.186 0.061c-0.316 0.547 0.149 1.409 1.04 1.923s1.87 0.487 2.186-0.061z" clip-path="url(#clipPath1654)" fill="#7d8cb5"/>
 <path d="m141.56 192.52v10.963c0 0.364-0.182 0.718-0.535 0.932l-3.619 2.087c-0.331 0.193-0.706 0.289-1.07 0.289v-14.271z" clip-path="url(#clipPath1648)" clip-rule="evenodd" fill="#24386c" fill-rule="evenodd"/>
 <path d="m202.27 113.71c1.029 0 1.863-0.512 1.863-1.145s-0.834-1.146-1.863-1.146c-1.028 0-1.862 0.513-1.862 1.146s0.834 1.145 1.862 1.145z" clip-path="url(#clipPath1642)" fill="#7d8cb5"/>
 <path d="m136.34 192.52v14.271c-0.364 0-0.739-0.096-1.071-0.289l-3.618-2.087c-0.364-0.214-0.536-0.568-0.536-0.932v-10.963z" clip-path="url(#clipPath1636)" clip-rule="evenodd" fill="#b2bfe8" fill-rule="evenodd"/>
 <path d="m135.26 195.53-3.619-2.087c-0.717-0.407-0.717-1.446 0-1.852l3.619-2.088c0.663-0.386 1.477-0.386 2.141 0l3.618 2.088c0.718 0.406 0.718 1.445 0 1.852l-3.618 2.087c-0.653 0.386-1.478 0.386-2.141 0z" clip-path="url(#clipPath1630)" clip-rule="evenodd" fill="#7d8cb5" fill-rule="evenodd"/>
 <path d="m80.087 132.78c0.9837-0.301 1.6308-1.036 1.4455-1.641-0.1854-0.605-1.1331-0.851-2.1167-0.549-0.9837 0.301-1.6308 1.036-1.4455 1.641 0.1854 0.605 1.1331 0.851 2.1167 0.549z" clip-path="url(#clipPath1624)" fill="#7d8cb5"/>
 <path d="m289.84 132.95s-23.489 56.271-79.877 35.491c-33.735-12.43-69.311 1.327-73.625 24.077" clip-path="url(#clipPath1618)" stroke="#67c87a" stroke-linecap="round" stroke-miterlimit="10" stroke-width="1.0706"/>
 <path d="m202.25 112.05c4.272 41.24-80.541 32.803-65.906 80.466" clip-path="url(#clipPath1612)" stroke="#67c87a" stroke-linecap="round" stroke-miterlimit="10" stroke-width="1.0706"/>
 <path d="m245.61 225.52c2.407 0 4.358-0.642 4.358-1.435 0-0.792-1.951-1.434-4.358-1.434-2.406 0-4.357 0.642-4.357 1.434 0 0.793 1.951 1.435 4.357 1.435z" clip-path="url(#clipPath1606)" fill="#b2bfe8" opacity=".3"/>
 <path d="m136.34 192.52s9.732-34.216-25.298-39.109c-20.941-2.922-28.767-14.699-31.369-22.086" clip-path="url(#clipPath1600)" stroke="#67c87a" stroke-linecap="round" stroke-miterlimit="10" stroke-width="1.0706"/>
 <path d="m245.6 183.89c-8.319 0-13.865 5.428-13.865 13.554 0 3.908 1.521 7.923 2.87 10.856 2.066 4.604 5.235 9.625 8.061 13.982 0.76 1.156 1.66 1.82 2.934 1.82 1.284 0 2.184-0.664 2.944-1.82 2.848-4.389 6.027-9.432 8.104-14.078 1.306-2.891 2.827-6.874 2.827-10.76 0-8.126-5.546-13.554-13.875-13.554z" clip-path="url(#clipPath1594)" fill="#721ffa"/>
 <path d="m245.6 187.75c6.016 0 10.01 3.865 10.01 9.678 0 3.105-1.231 6.253-2.42 8.908-2.066 4.807-4.807 8.821-7.398 12.708-0.096 0.192-0.289 0.192-0.385 0-2.58-3.865-5.31-7.891-7.355-12.633-1.188-2.709-2.441-5.857-2.441-8.983-0.011-5.813 3.993-9.678 9.989-9.678z" clip-path="url(#clipPath1588)" fill="#ffffff"/>
 <path d="m245.61 203.47c3.105 0 5.621-2.516 5.621-5.62s-2.516-5.621-5.621-5.621c-3.104 0-5.62 2.517-5.62 5.621s2.516 5.62 5.62 5.62z" clip-path="url(#clipPath1582)" fill="#721ffa"/>
 <path d="m233.7 237.37h7.494v7.633c0 1.178-0.963 2.141-2.141 2.141h-3.212c-1.177 0-2.141-0.963-2.141-2.141z" clip-path="url(#clipPath1576)" clip-rule="evenodd" fill="#d9e2ff" fill-rule="evenodd"/>
 <path d="m322.9 321.07c27.452 0 49.707-22.255 49.707-49.708s-22.255-49.708-49.707-49.708c-27.453 0-49.708 22.255-49.708 49.708s22.255 49.708 49.708 49.708z" clip-path="url(#clipPath1570)" fill="#d9e2ff"/>
 <path d="m275.6 273.59c0.631-0.042 1.087-0.909 1.018-1.935-0.07-1.027-0.638-1.825-1.269-1.782s-1.086 0.909-1.017 1.936c0.069 1.026 0.637 1.824 1.268 1.781z" clip-path="url(#clipPath1564)" fill="#7d8cb5"/>
 <path d="m205.47 361.41c20.026 0 36.261-16.234 36.261-36.261 0-20.026-16.235-36.261-36.261-36.261-20.027 0-36.262 16.235-36.262 36.261 0 20.027 16.235 36.261 36.262 36.261z" clip-path="url(#clipPath1558)" fill="#d9e2ff"/>
 <path d="m246.5 325.5c0 22.644-18.356 41-41 41s-41-18.356-41-41 18.356-41 41-41 41 18.356 41 41z" clip-path="url(#clipPath1552)" stroke="#d9e2ff"/>
 <path d="m256.5 325.5c0 28.167-22.833 51-51 51s-51-22.833-51-51 22.833-51 51-51 51 22.833 51 51z" clip-path="url(#clipPath1546)" opacity=".5" stroke="#d9e2ff"/>
 <path d="m204.59 292.5c1.028-0.04 1.841-0.585 1.817-1.217-0.025-0.632-0.878-1.113-1.906-1.073s-1.842 0.584-1.817 1.217c0.024 0.632 0.877 1.112 1.906 1.073z" clip-path="url(#clipPath1540)" fill="#7d8cb5"/>
 <path d="m357.01 248.24c5.332 0 9.742-4.4 9.742-9.732 0-5.321-4.41-9.731-9.753-9.731-5.321 0-9.721 4.4-9.721 9.731 0.011 5.321 4.411 9.732 9.732 9.732zm0-1.938c-4.315 0-7.773-3.468-7.773-7.794 0-4.314 3.458-7.783 7.762-7.783 4.315 0 7.794 3.458 7.805 7.783 0.011 4.315-3.469 7.794-7.794 7.794zm-3.083-3.843c0.246 0 0.46-0.086 0.621-0.257l2.462-2.462 2.462 2.462c0.161 0.161 0.364 0.257 0.621 0.257 0.482 0 0.857-0.375 0.857-0.857 0-0.235-0.097-0.439-0.257-0.599l-2.473-2.473 2.473-2.484c0.182-0.182 0.268-0.364 0.268-0.589 0-0.482-0.375-0.856-0.857-0.856-0.236 0-0.428 0.075-0.61 0.257l-2.484 2.473-2.484-2.463c-0.16-0.171-0.353-0.257-0.599-0.257-0.482 0-0.857 0.364-0.857 0.846 0 0.236 0.097 0.439 0.268 0.6l2.462 2.473-2.462 2.484c-0.171 0.149-0.268 0.364-0.268 0.588 0 0.482 0.375 0.857 0.857 0.857z" clip-path="url(#clipPath1534)" fill="#c91540"/>
 <path d="m226.58 306.21 7.558 7.548c1.435 1.434 2.912 1.445 4.336 0.021l7.58-7.58c1.435-1.434 1.424-2.912-0.021-4.346l-7.548-7.548c-1.435-1.435-2.912-1.445-4.347-0.021l-7.58 7.579c-1.424 1.424-1.402 2.902 0.022 4.347zm1.392-1.231c-0.632-0.632-0.654-1.285 0-1.927l7.365-7.366c0.664-0.653 1.296-0.642 1.927-0.011l7.377 7.388c0.631 0.631 0.653 1.284 0 1.927l-7.366 7.365c-0.653 0.653-1.306 0.632-1.927 0.011zm7.333 3.511c0.343 0 0.632-0.171 0.824-0.471l4.208-6.573c0.118-0.193 0.235-0.428 0.235-0.642 0-0.461-0.417-0.771-0.856-0.771-0.278 0-0.535 0.15-0.739 0.471l-3.715 5.963-1.745-2.227c-0.225-0.289-0.449-0.396-0.738-0.396-0.461 0-0.814 0.364-0.814 0.835 0 0.225 0.086 0.428 0.246 0.632l2.216 2.708c0.257 0.332 0.525 0.471 0.878 0.471z" clip-path="url(#clipPath1528)" fill="#67c87a"/>
 <path d="m237.45 248.06c0 10.417 11.156 26.187 38.306 23.671" clip-path="url(#clipPath1522)" stroke="#c91540" stroke-linecap="round" stroke-miterlimit="10" stroke-width="1.0706"/>
 <path d="m237.45 248.06s0.364 12.226-17.483 14.432c-22.835 2.815-15.427 29.27-15.427 29.27" clip-path="url(#clipPath1516)" stroke="#c91540" stroke-linecap="round" stroke-miterlimit="10" stroke-width="1.0706"/>
 <path d="m238.57 247.15h-2.259v0.899h2.259z" clip-path="url(#clipPath1510)" fill="#000000"/>
 <path d="m230.95 341.12c-18.093-20.823-22.879-36.593-22.879-36.593-0.535-1.371-2.12-2.002-3.469-1.392-12.044 5.428-21.165 14.87-26.39 26.09-0.621 1.339-0.011 2.923 1.36 3.48 0 0 27.589 8.736 42.663 11.08 7.109 1.114 11.038 0.011 8.715-2.665z" clip-path="url(#clipPath1504)" fill="#e8c76b"/>
 <path d="m230.75 340.87c-18.093-20.823-22.664-38.274-22.664-38.274-0.535-1.37-2.12-2.002-3.469-1.391-12.044 5.428-21.166 14.87-26.39 26.09-0.621 1.338-0.011 2.923 1.359 3.48 0 0 58.402 18.435 51.164 10.095z" clip-path="url(#clipPath1498)" fill="#ffeca7"/>
 <path d="m212.4 328.11c0.643 1.349 2.441-0.503 5.664 0.257 3.629 0.856 4.807 3.758 5.974 7.109s3.501 5.492 0.792 5.427c-2.719-0.064-7.794-2.944-12.43-2.462-4.635 0.482-10.449-4.111-13.532-3.715-3.554 0.46-3.33-2.666-6.167-2.537-2.837 0.128-8.222-0.182-9.485-4.358-1.263-4.164 3.79-8.018 6.755-8.018 2.966 0 3.983 4.25 5.182 3.254 1.199-0.985-2.901-5.535-1.199-7.109 1.702-1.573 5.182 0.086 5.813-3.051 0.632-3.137 0.439-5.727 3.919-6.102 3.468-0.375 6.059 5.556 5.428 8.586-0.632 3.03 4.828 1.103 6.231 5.407 2.044 6.327-4.026 5.053-2.945 7.312z" clip-path="url(#clipPath1492)" fill="#ffffff"/>
 <g fill="#c91540">
  <path d="m215.07 327.24c-0.803 1.466-2.645 2.002-4.111 1.199-1.467-0.803-2.002-2.645-1.199-4.112 0.802-1.466 2.408-1.584 3.875-0.781 1.467 0.814 2.238 2.238 1.435 3.694z" clip-path="url(#clipPath1486)"/>
  <path d="m191.8 328.13c-0.803 1.467-3.255 1.617-4.721 0.814-1.467-0.803-2.002-2.644-1.199-4.111 0.802-1.467 2.408-1.585 3.875-0.782s2.848 2.613 2.045 4.079z" clip-path="url(#clipPath1480)"/>
  <path d="m204.41 314.01c-1.446 0.6-3.234-0.482-3.758-1.745-0.525-1.263 0.171-3.223 1.616-3.833 1.446-0.599 3.212 0.568 3.737 1.82 0.524 1.264-0.161 3.148-1.595 3.758z" clip-path="url(#clipPath1474)"/>
  <path d="m220.94 338c-0.653 1.199-2.302 1.574-3.662 0.825-1.37-0.75-1.937-2.324-1.284-3.533 0.653-1.199 2.109-1.221 3.468-0.471 1.371 0.749 2.131 1.98 1.478 3.179z" clip-path="url(#clipPath1468)"/>
  <path d="m206.32 332.21c-0.803 1.467-2.012 1.638-3.479 0.835s-2.066-2.194-1.263-3.661 2.408-1.585 3.875-0.782 1.67 2.142 0.867 3.608z" clip-path="url(#clipPath1462)"/>
  <path d="m201.81 322.96c-0.803 1.467-2.698 1.692-4.165 0.889-1.466-0.803-2.002-2.644-1.199-4.111s2.409-1.585 3.876-0.782 2.291 2.538 1.488 4.004z" clip-path="url(#clipPath1456)"/>
 </g>
 <g fill="#ffffff">
  <path d="m198.01 313.4c-1.585 0.653-3.491 0.128-4.807 1.188-1.317 1.049-2.399-1.092 0-3.683 5.899-6.38 6.391 1.831 4.807 2.495z" clip-path="url(#clipPath1450)"/>
  <path d="m192.25 319.92c-2.077-1.413-4.368-1.949-5.439-1.007-1.071 0.943-0.664-3.179 1.959-4.186 2.623-0.995 5.546 6.606 3.48 5.193z" clip-path="url(#clipPath1444)"/>
  <path d="m213.07 340.26c-1.371-0.342 4.967-1.52 9.86 1.403 2.27 1.349-1.884 1.381-1.895 2.548-0.021 3.308-3.683 1.638-4.475 0s-0.953-3.33-3.49-3.951z" clip-path="url(#clipPath1438)"/>
  <path d="m214.24 317.08c1.156-1.767-0.621-4.936-2.816-5.728-1.895-0.685-1.916 3.918-0.814 5.053 0.868 0.9 3.63 0.675 3.63 0.675z" clip-path="url(#clipPath1432)"/>
 </g>
 <g stroke-miterlimit="10">
  <path d="m313.15 275.81-19.378-18.832" clip-path="url(#clipPath1426)" stroke="#c91540" stroke-linecap="round" stroke-width="1.0706"/>
  <path d="m336.72 274.24s-2.944-8.265-11.841-5.899c-8.896 2.366-2.58 8.104 0.942 6.638 3.523-1.478 5.557-6.552 2.195-9.454-3.361-2.901-14.003 0.45-11.509 8.105 2.495 7.654 7.987 6.124 10.685 4.625s4.186-6.21-0.139-6.906c0 0-11.659-2.291-13.565 7.859-1.916 10.138 13.64 0.064 6.777-5.343-6.852-5.406-9.443-2.58-11.263 0.76-1.82 3.341 2.634 6.006 6.756 5.353 4.132-0.653 2.055-8.018-3.362-7.194s-9.079 4.325-7.537 7.837c1.531 3.511 11.252-0.942 8.254-5.471-2.997-4.529-8.211-3.437-10.106-1.36s-0.171 5.46 4.09 5.567 4.186-7.558 8.104-10.363c3.919-2.816 5.15 3.447 8.254 4.068 3.105 0.621 2.313-3.49 4.283-3.811s1.552 3.79 5.064 5.032c3.511 1.242 5.064 0.824 6.188-1.692s-4.122-4.668-6.135-1.659c-2.023 3.008-1.863 8.126 1.97 8.554s7.698-0.022 7.773-2.998-7.858 0.236-8.95-3.543c-1.092-3.769 5.074-5.846 7.344-3.865 2.27 1.98-3.426 5.513-2.088 7.558s5.364 1.21 6.927-0.375c1.563-1.584 1.895-5.47-2.591-5.481s-4.721 6.359-8.126 6.017c-3.394-0.332-6.798-7.238-1.231-10.021 5.556-2.784 10.128 1.809 9.239 6.423-0.888 4.615-11.658 7.163-17.397 3.298-5.728-3.865-5.717-9.154-2.998-10.085 2.72-0.921 5.75-1.317 8.544 0.257s1.852 6.83-2.966 8.265c-4.817 1.434-6.134-3.308-4.785-4.968 1.349-1.659-1.767-4.143-3.683-2.344-1.917 1.798-2.141 5.428-0.825 7.098 1.317 1.67-6.755 4.346-8.971 0.417s-2.966-4.154-5.814-3.779c-2.847 0.375-0.674 6.445 3.202 6.177 3.875-0.257 11.316-6.787 16.497-0.182 5.171 6.606 14.325 0.611 13.051-5.792-1.263-6.402 6.06-6.006 7.398-3.094s1.135 5.653-0.428 7.355c-1.574 1.692-9.7 0.482-9.272-8.179 0.439-8.661-9.582-3.105-9.228 2.098 0.353 5.204 9.314-0.813 6.98-5.106s-10.834-1.306-11.434 1.509c-0.6 2.816-4.464-0.813-7.034-0.364-2.569 0.45-4.411 6.038-0.128 7.741 4.282 1.702 3.95-6.06-0.471-5.664-4.422 0.396-6.253 3.405-6.938 5.749-0.685 2.356 4.122 6.124 9.229 4.85s7.451-5.76 10.973-5.075c3.523 0.686 12.366 1.917 12.997-3.961 0.632-5.877-1.927-1.06-3.832-1.863-1.906-0.803-4.133 0.643-5.31-3.083-1.178-3.726-6.874-0.182-5.953 2.537" clip-path="url(#clipPath1420)" stroke="#ffeca7" stroke-width="1.3918"/>
  <path d="m315.21 275.1-15.192-22.354" clip-path="url(#clipPath1414)" stroke="#c91540" stroke-linecap="round" stroke-width="1.0706"/>
 </g>
 <path d="m301.32 275.43c-1.07 0.075-1.852 1.017-1.745 2.088 1.381 12.89 7.826 22.675 26.573 21.412 18.746-1.263 23.82-11.83 23.456-24.784-0.032-1.071-0.942-1.906-2.002-1.831z" clip-path="url(#clipPath1408)" fill="#ffffff"/>
 <defs>
  <linearGradient id="paint0_linear_971_4867" x1="117.74" x2="106.08" y1="242.96" y2="243.49" gradientUnits="userSpaceOnUse">
   <stop stop-color="#FF3364" offset="0"/>
   <stop stop-color="#C91540" stop-opacity="0" offset="1"/>
  </linearGradient>
  <clipPath id="clipPath1408">
   <rect width="396.12" height="380.06" fill="#ffffff"/>
  </clipPath>
  <clipPath id="clipPath1414">
   <rect width="396.12" height="380.06" fill="#ffffff"/>
  </clipPath>
  <clipPath id="clipPath1420">
   <rect width="396.12" height="380.06" fill="#ffffff"/>
  </clipPath>
  <clipPath id="clipPath1426">
   <rect width="396.12" height="380.06" fill="#ffffff"/>
  </clipPath>
  <clipPath id="clipPath1432">
   <rect width="396.12" height="380.06" fill="#ffffff"/>
  </clipPath>
  <clipPath id="clipPath1438">
   <rect width="396.12" height="380.06" fill="#ffffff"/>
  </clipPath>
  <clipPath id="clipPath1444">
   <rect width="396.12" height="380.06" fill="#ffffff"/>
  </clipPath>
  <clipPath id="clipPath1450">
   <rect width="396.12" height="380.06" fill="#ffffff"/>
  </clipPath>
  <clipPath id="clipPath1456">
   <rect width="396.12" height="380.06" fill="#ffffff"/>
  </clipPath>
  <clipPath id="clipPath1462">
   <rect width="396.12" height="380.06" fill="#ffffff"/>
  </clipPath>
  <clipPath id="clipPath1468">
   <rect width="396.12" height="380.06" fill="#ffffff"/>
  </clipPath>
  <clipPath id="clipPath1474">
   <rect width="396.12" height="380.06" fill="#ffffff"/>
  </clipPath>
  <clipPath id="clipPath1480">
   <rect width="396.12" height="380.06" fill="#ffffff"/>
  </clipPath>
  <clipPath id="clipPath1486">
   <rect width="396.12" height="380.06" fill="#ffffff"/>
  </clipPath>
  <clipPath id="clipPath1492">
   <rect width="396.12" height="380.06" fill="#ffffff"/>
  </clipPath>
  <clipPath id="clipPath1498">
   <rect width="396.12" height="380.06" fill="#ffffff"/>
  </clipPath>
  <clipPath id="clipPath1504">
   <rect width="396.12" height="380.06" fill="#ffffff"/>
  </clipPath>
  <clipPath id="clipPath1510">
   <rect width="396.12" height="380.06" fill="#ffffff"/>
  </clipPath>
  <clipPath id="clipPath1516">
   <rect width="396.12" height="380.06" fill="#ffffff"/>
  </clipPath>
  <clipPath id="clipPath1522">
   <rect width="396.12" height="380.06" fill="#ffffff"/>
  </clipPath>
  <clipPath id="clipPath1528">
   <rect width="396.12" height="380.06" fill="#ffffff"/>
  </clipPath>
  <clipPath id="clipPath1534">
   <rect width="396.12" height="380.06" fill="#ffffff"/>
  </clipPath>
  <clipPath id="clipPath1540">
   <rect width="396.12" height="380.06" fill="#ffffff"/>
  </clipPath>
  <clipPath id="clipPath1546">
   <rect width="396.12" height="380.06" fill="#ffffff"/>
  </clipPath>
  <clipPath id="clipPath1552">
   <rect width="396.12" height="380.06" fill="#ffffff"/>
  </clipPath>
  <clipPath id="clipPath1558">
   <rect width="396.12" height="380.06" fill="#ffffff"/>
  </clipPath>
  <clipPath id="clipPath1564">
   <rect width="396.12" height="380.06" fill="#ffffff"/>
  </clipPath>
  <clipPath id="clipPath1570">
   <rect width="396.12" height="380.06" fill="#ffffff"/>
  </clipPath>
  <clipPath id="clipPath1576">
   <rect width="396.12" height="380.06" fill="#ffffff"/>
  </clipPath>
  <clipPath id="clipPath1582">
   <rect width="396.12" height="380.06" fill="#ffffff"/>
  </clipPath>
  <clipPath id="clipPath1588">
   <rect width="396.12" height="380.06" fill="#ffffff"/>
  </clipPath>
  <clipPath id="clipPath1594">
   <rect width="396.12" height="380.06" fill="#ffffff"/>
  </clipPath>
  <clipPath id="clipPath1600">
   <rect width="396.12" height="380.06" fill="#ffffff"/>
  </clipPath>
  <clipPath id="clipPath1606">
   <rect width="396.12" height="380.06" fill="#ffffff"/>
  </clipPath>
  <clipPath id="clipPath1612">
   <rect width="396.12" height="380.06" fill="#ffffff"/>
  </clipPath>
  <clipPath id="clipPath1618">
   <rect width="396.12" height="380.06" fill="#ffffff"/>
  </clipPath>
  <clipPath id="clipPath1624">
   <rect width="396.12" height="380.06" fill="#ffffff"/>
  </clipPath>
  <clipPath id="clipPath1630">
   <rect width="396.12" height="380.06" fill="#ffffff"/>
  </clipPath>
  <clipPath id="clipPath1636">
   <rect width="396.12" height="380.06" fill="#ffffff"/>
  </clipPath>
  <clipPath id="clipPath1642">
   <rect width="396.12" height="380.06" fill="#ffffff"/>
  </clipPath>
  <clipPath id="clipPath1648">
   <rect width="396.12" height="380.06" fill="#ffffff"/>
  </clipPath>
  <clipPath id="clipPath1654">
   <rect width="396.12" height="380.06" fill="#ffffff"/>
  </clipPath>
  <clipPath id="clipPath1660">
   <rect width="396.12" height="380.06" fill="#ffffff"/>
  </clipPath>
  <clipPath id="clipPath1666">
   <rect width="396.12" height="380.06" fill="#ffffff"/>
  </clipPath>
  <clipPath id="clipPath1672">
   <rect width="396.12" height="380.06" fill="#ffffff"/>
  </clipPath>
  <clipPath id="clipPath1678">
   <rect width="396.12" height="380.06" fill="#ffffff"/>
  </clipPath>
  <clipPath id="clipPath1684">
   <rect width="396.12" height="380.06" fill="#ffffff"/>
  </clipPath>
  <clipPath id="clipPath1690">
   <rect width="396.12" height="380.06" fill="#ffffff"/>
  </clipPath>
  <clipPath id="clipPath1696">
   <rect width="396.12" height="380.06" fill="#ffffff"/>
  </clipPath>
  <clipPath id="clipPath1702">
   <rect width="396.12" height="380.06" fill="#ffffff"/>
  </clipPath>
  <clipPath id="clipPath1708">
   <rect width="396.12" height="380.06" fill="#ffffff"/>
  </clipPath>
  <clipPath id="clipPath1714">
   <rect width="396.12" height="380.06" fill="#ffffff"/>
  </clipPath>
  <clipPath id="clipPath1720">
   <rect width="396.12" height="380.06" fill="#ffffff"/>
  </clipPath>
  <clipPath id="clipPath1726">
   <rect width="396.12" height="380.06" fill="#ffffff"/>
  </clipPath>
  <clipPath id="clipPath1732">
   <rect width="396.12" height="380.06" fill="#ffffff"/>
  </clipPath>
  <clipPath id="clipPath1738">
   <rect width="396.12" height="380.06" fill="#ffffff"/>
  </clipPath>
  <clipPath id="clipPath1744">
   <rect width="396.12" height="380.06" fill="#ffffff"/>
  </clipPath>
  <clipPath id="clipPath1750">
   <rect width="396.12" height="380.06" fill="#ffffff"/>
  </clipPath>
  <clipPath id="clipPath1756">
   <rect width="396.12" height="380.06" fill="#ffffff"/>
  </clipPath>
  <clipPath id="clipPath1762">
   <rect width="396.12" height="380.06" fill="#ffffff"/>
  </clipPath>
  <clipPath id="clipPath1768">
   <rect width="396.12" height="380.06" fill="#ffffff"/>
  </clipPath>
  <clipPath id="clipPath1774">
   <rect width="396.12" height="380.06" fill="#ffffff"/>
  </clipPath>
  <clipPath id="clipPath1786">
   <rect width="396.12" height="380.06" fill="#ffffff"/>
  </clipPath>
  <clipPath id="clipPath1792">
   <rect width="396.12" height="380.06" fill="#ffffff"/>
  </clipPath>
  <clipPath id="clipPath1798">
   <rect width="396.12" height="380.06" fill="#ffffff"/>
  </clipPath>
  <clipPath id="clipPath1804">
   <rect width="396.12" height="380.06" fill="#ffffff"/>
  </clipPath>
  <clipPath id="clipPath1810">
   <rect width="396.12" height="380.06" fill="#ffffff"/>
  </clipPath>
  <clipPath id="clipPath1816">
   <rect width="396.12" height="380.06" fill="#ffffff"/>
  </clipPath>
  <clipPath id="clipPath1822">
   <rect width="396.12" height="380.06" fill="#ffffff"/>
  </clipPath>
  <clipPath id="clipPath1828">
   <rect width="396.12" height="380.06" fill="#ffffff"/>
  </clipPath>
  <clipPath id="clipPath1834">
   <rect width="396.12" height="380.06" fill="#ffffff"/>
  </clipPath>
  <clipPath id="clipPath1840">
   <rect width="396.12" height="380.06" fill="#ffffff"/>
  </clipPath>
  <clipPath id="clipPath1846">
   <rect width="396.12" height="380.06" fill="#ffffff"/>
  </clipPath>
  <clipPath id="clipPath1852">
   <rect width="396.12" height="380.06" fill="#ffffff"/>
  </clipPath>
  <clipPath id="clipPath1858">
   <rect width="396.12" height="380.06" fill="#ffffff"/>
  </clipPath>
  <clipPath id="clipPath1864">
   <rect width="396.12" height="380.06" fill="#ffffff"/>
  </clipPath>
  <clipPath id="clipPath1870">
   <rect width="396.12" height="380.06" fill="#ffffff"/>
  </clipPath>
  <clipPath id="clipPath1876">
   <rect width="396.12" height="380.06" fill="#ffffff"/>
  </clipPath>
  <clipPath id="clipPath1882">
   <rect width="396.12" height="380.06" fill="#ffffff"/>
  </clipPath>
  <clipPath id="clipPath1888">
   <rect width="396.12" height="380.06" fill="#ffffff"/>
  </clipPath>
  <clipPath id="clipPath1894">
   <rect width="396.12" height="380.06" fill="#ffffff"/>
  </clipPath>
  <clipPath id="clipPath1900">
   <rect width="396.12" height="380.06" fill="#ffffff"/>
  </clipPath>
  <clipPath id="clipPath1906">
   <rect width="396.12" height="380.06" fill="#ffffff"/>
  </clipPath>
  <clipPath id="clipPath1912">
   <rect width="396.12" height="380.06" fill="#ffffff"/>
  </clipPath>
  <clipPath id="clipPath1918">
   <rect width="396.12" height="380.06" fill="#ffffff"/>
  </clipPath>
  <clipPath id="clipPath1924">
   <rect width="396.12" height="380.06" fill="#ffffff"/>
  </clipPath>
  <clipPath id="clipPath1930">
   <rect width="396.12" height="380.06" fill="#ffffff"/>
  </clipPath>
  <clipPath id="clipPath1936">
   <rect width="396.12" height="380.06" fill="#ffffff"/>
  </clipPath>
  <clipPath id="clipPath1942">
   <rect width="396.12" height="380.06" fill="#ffffff"/>
  </clipPath>
  <clipPath id="clipPath1948">
   <rect width="396.12" height="380.06" fill="#ffffff"/>
  </clipPath>
  <clipPath id="clipPath1954">
   <rect width="396.12" height="380.06" fill="#ffffff"/>
  </clipPath>
  <clipPath id="clipPath1960">
   <rect width="396.12" height="380.06" fill="#ffffff"/>
  </clipPath>
  <clipPath id="clipPath1966">
   <rect width="396.12" height="380.06" fill="#ffffff"/>
  </clipPath>
  <clipPath id="clipPath1972">
   <rect width="396.12" height="380.06" fill="#ffffff"/>
  </clipPath>
  <clipPath id="clipPath1978">
   <rect width="396.12" height="380.06" fill="#ffffff"/>
  </clipPath>
  <clipPath id="clipPath1984">
   <rect width="396.12" height="380.06" fill="#ffffff"/>
  </clipPath>
  <clipPath id="clipPath1990">
   <rect width="396.12" height="380.06" fill="#ffffff"/>
  </clipPath>
  <clipPath id="clipPath1996">
   <rect width="396.12" height="380.06" fill="#ffffff"/>
  </clipPath>
  <clipPath id="clipPath2002">
   <rect width="396.12" height="380.06" fill="#ffffff"/>
  </clipPath>
  <clipPath id="clipPath2008">
   <rect width="396.12" height="380.06" fill="#ffffff"/>
  </clipPath>
  <clipPath id="clipPath2014">
   <rect width="396.12" height="380.06" fill="#ffffff"/>
  </clipPath>
  <clipPath id="clipPath2020">
   <rect width="396.12" height="380.06" fill="#ffffff"/>
  </clipPath>
  <clipPath id="clipPath2026">
   <rect width="396.12" height="380.06" fill="#ffffff"/>
  </clipPath>
  <clipPath id="clipPath2032">
   <rect width="396.12" height="380.06" fill="#ffffff"/>
  </clipPath>
  <clipPath id="clipPath2038">
   <rect width="396.12" height="380.06" fill="#ffffff"/>
  </clipPath>
  <clipPath id="clipPath2044">
   <rect width="396.12" height="380.06" fill="#ffffff"/>
  </clipPath>
  <clipPath id="clipPath2050">
   <rect width="396.12" height="380.06" fill="#ffffff"/>
  </clipPath>
  <clipPath id="clipPath2056">
   <rect width="396.12" height="380.06" fill="#ffffff"/>
  </clipPath>
  <clipPath id="clipPath2062">
   <rect width="396.12" height="380.06" fill="#ffffff"/>
  </clipPath>
  <clipPath id="clipPath2068">
   <rect width="396.12" height="380.06" fill="#ffffff"/>
  </clipPath>
  <clipPath id="clipPath2074">
   <rect width="396.12" height="380.06" fill="#ffffff"/>
  </clipPath>
  <clipPath id="clipPath2080">
   <rect width="396.12" height="380.06" fill="#ffffff"/>
  </clipPath>
  <clipPath id="clipPath2086">
   <rect width="396.12" height="380.06" fill="#ffffff"/>
  </clipPath>
  <clipPath id="clipPath2092">
   <rect width="396.12" height="380.06" fill="#ffffff"/>
  </clipPath>
  <clipPath id="clipPath2098">
   <rect width="396.12" height="380.06" fill="#ffffff"/>
  </clipPath>
  <clipPath id="clipPath2104">
   <rect width="396.12" height="380.06" fill="#ffffff"/>
  </clipPath>
  <clipPath id="clipPath2110">
   <rect width="396.12" height="380.06" fill="#ffffff"/>
  </clipPath>
  <clipPath id="clipPath2116">
   <rect width="396.12" height="380.06" fill="#ffffff"/>
  </clipPath>
  <clipPath id="clipPath2122">
   <rect width="396.12" height="380.06" fill="#ffffff"/>
  </clipPath>
  <clipPath id="clipPath2128">
   <rect width="396.12" height="380.06" fill="#ffffff"/>
  </clipPath>
  <clipPath id="clipPath2134">
   <rect width="396.12" height="380.06" fill="#ffffff"/>
  </clipPath>
  <clipPath id="clipPath2140">
   <rect width="396.12" height="380.06" fill="#ffffff"/>
  </clipPath>
  <clipPath id="clipPath2146">
   <rect width="396.12" height="380.06" fill="#ffffff"/>
  </clipPath>
  <clipPath id="clipPath2152">
   <rect width="396.12" height="380.06" fill="#ffffff"/>
  </clipPath>
  <clipPath id="clipPath2158">
   <rect width="396.12" height="380.06" fill="#ffffff"/>
  </clipPath>
  <clipPath id="clipPath2164">
   <rect width="396.12" height="380.06" fill="#ffffff"/>
  </clipPath>
  <clipPath id="clipPath2170">
   <rect width="396.12" height="380.06" fill="#ffffff"/>
  </clipPath>
  <clipPath id="clipPath2176">
   <rect width="396.12" height="380.06" fill="#ffffff"/>
  </clipPath>
  <clipPath id="clipPath2182">
   <rect width="396.12" height="380.06" fill="#ffffff"/>
  </clipPath>
  <clipPath id="clipPath2188">
   <rect width="396.12" height="380.06" fill="#ffffff"/>
  </clipPath>
  <clipPath id="clipPath2194">
   <rect width="396.12" height="380.06" fill="#ffffff"/>
  </clipPath>
  <clipPath id="clipPath2200">
   <rect width="396.12" height="380.06" fill="#ffffff"/>
  </clipPath>
  <clipPath id="clipPath2206">
   <rect width="396.12" height="380.06" fill="#ffffff"/>
  </clipPath>
  <clipPath id="clipPath2212">
   <rect width="396.12" height="380.06" fill="#ffffff"/>
  </clipPath>
  <clipPath id="clipPath2218">
   <rect width="396.12" height="380.06" fill="#ffffff"/>
  </clipPath>
  <clipPath id="clipPath2224">
   <rect width="396.12" height="380.06" fill="#ffffff"/>
  </clipPath>
  <clipPath id="clipPath2230">
   <rect width="396.12" height="380.06" fill="#ffffff"/>
  </clipPath>
  <clipPath id="clipPath2236">
   <rect width="396.12" height="380.06" fill="#ffffff"/>
  </clipPath>
  <clipPath id="clipPath2242">
   <rect width="396.12" height="380.06" fill="#ffffff"/>
  </clipPath>
  <clipPath id="clipPath2248">
   <rect width="396.12" height="380.06" fill="#ffffff"/>
  </clipPath>
  <clipPath id="clipPath2254">
   <rect width="396.12" height="380.06" fill="#ffffff"/>
  </clipPath>
  <clipPath id="clipPath2260">
   <rect width="396.12" height="380.06" fill="#ffffff"/>
  </clipPath>
  <clipPath id="clipPath2266">
   <rect width="396.12" height="380.06" fill="#ffffff"/>
  </clipPath>
 </defs>
</svg>
