<svg width="31" height="31" viewBox="0 0 31 31" fill="none" xmlns="http://www.w3.org/2000/svg">
<g clip-path="url(#clip0_17580_11082)">
<path d="M14.6437 4.60924H16.4384C16.6424 4.60924 16.8056 4.44608 16.8056 4.24213C16.8056 4.03819 16.6424 3.87503 16.4384 3.87503H14.6437V4.60924ZM14.6437 6.3224H16.4792C16.724 6.3224 16.8871 6.15924 16.8871 5.9145C16.8871 5.66977 16.724 5.50661 16.4792 5.50661H14.6437V6.3224ZM17.5398 5.01713C17.7845 5.26187 17.9477 5.58819 17.9477 5.95529C17.9477 6.6895 17.3766 7.26056 16.6424 7.26056H13.6648V2.97766H16.6016C17.295 2.97766 17.8661 3.54871 17.8661 4.24213C17.8253 4.52766 17.7029 4.81319 17.5398 5.01713ZM18.2332 12.3592H17.1319L16.8056 11.625H14.399L14.0727 12.3592H12.9713L15.0924 8.07634H16.0713L18.2332 12.3592ZM15.5819 9.17766L14.8477 10.7277H16.3161L15.5819 9.17766ZM17.0503 13.2974H18.274L16.1121 16.0711V17.5803H15.0924V16.0711L12.9306 13.2974H14.1542L15.6227 15.2553L17.0503 13.2974ZM22.72 13.2974V14.2356H19.8648V14.9698H22.6384V15.9079H19.8648V16.7237H22.72V17.6619H18.845V13.2974H22.72ZM25.8608 15.9487H25.0858V17.5803H24.0661V13.2974H26.6766C27.4108 13.2974 27.9819 13.9092 27.9819 14.6435C27.9819 15.2553 27.574 15.7448 27.0437 15.9079L28.3082 17.5803H27.0845L25.8608 15.9487ZM26.595 14.1948H25.1266V15.0106H26.595C26.8398 15.0106 27.0029 14.8066 27.0029 14.6027C27.0029 14.3987 26.799 14.1948 26.595 14.1948ZM13.3792 17.5803H12.2779L11.9516 16.8461H9.54502L9.21871 17.5803H8.11739L10.2792 13.2974H11.2582L13.3792 17.5803ZM10.7279 14.3987L9.99371 15.9487H11.5029L10.7279 14.3987ZM4.24239 14.929H6.03713C6.24108 14.929 6.40424 14.7658 6.40424 14.5619C6.40424 14.3579 6.24108 14.1948 6.03713 14.1948H4.24239V14.929ZM4.24239 16.6421H6.07792C6.32266 16.6421 6.48581 16.479 6.48581 16.2342C6.48581 15.9895 6.32266 15.8263 6.07792 15.8263H4.24239V16.6421ZM7.13845 15.3369C7.38318 15.5816 7.54634 15.9079 7.54634 16.275C7.54634 17.0092 6.97529 17.5803 6.24108 17.5803H3.22266V13.2974H6.1595C6.85292 13.2974 7.42397 13.8685 7.42397 14.5619C7.42397 14.8474 7.3016 15.1329 7.13845 15.3369ZM17.5398 18.4777V19.4158H14.6845V20.15H17.4582V21.0882H14.6845V21.904H17.5398V22.8421H13.6648V18.4777H17.5398ZM16.8056 25.1263C16.8056 24.8816 16.6424 24.7185 16.3977 24.7185H14.6437V25.5342H16.3977C16.6424 25.5342 16.8056 25.3711 16.8056 25.1263ZM13.624 28.104V23.8211H16.4792C17.2134 23.8211 17.7845 24.4329 17.7845 25.1671C17.7845 25.7382 17.4582 26.1869 16.9687 26.3908L18.274 28.104H17.0503L15.8266 26.4724H14.6437V28.104H13.624Z" fill="#B4BACC"/>
<path d="M31.0405 14.5211C30.551 6.44474 23.8208 0 15.5813 0C7.34181 0 0.611544 6.44474 0.12207 14.5211C0.12207 14.8474 0.16286 15.1737 0.203649 15.5C0.529965 18.1921 1.5497 20.6803 3.0997 22.7605C5.91418 26.5947 10.4418 29.0829 15.5813 29.0829C8.40233 29.0829 2.52865 23.4947 2.03918 16.4789C1.99839 16.1526 1.99839 15.8263 1.99839 15.5C1.99839 15.1737 1.99839 14.8474 2.03918 14.5211C2.52865 7.50526 8.40233 1.91711 15.5813 1.91711C20.7208 1.91711 25.2484 4.40526 28.0629 8.23947C29.6129 10.3197 30.6326 12.8079 30.9589 15.5C30.9997 15.8263 31.0405 16.1526 31.0405 16.4382C31.0405 16.1118 31.0813 15.7855 31.0813 15.4592C31.0813 15.1737 31.0813 14.8474 31.0405 14.5211Z" fill="#B4BACC"/>
<path d="M0.122577 16.479C0.61205 24.5553 7.34231 31 15.5818 31C23.8213 31 30.5515 24.5553 31.041 16.479C31.041 16.1526 31.0002 15.8263 30.9594 15.5C30.6331 12.8079 29.6134 10.3197 28.0634 8.23948C25.2489 4.40527 20.7213 1.91711 15.5818 1.91711C22.7607 1.91711 28.6344 7.50527 29.1239 14.5211C29.1647 14.8474 29.1647 15.1737 29.1647 15.5C29.1647 15.8263 29.1647 16.1526 29.1239 16.479C28.6344 23.5355 22.7607 29.0829 15.5818 29.0829C10.4423 29.0829 5.91468 26.5947 3.10021 22.7605C1.55021 20.6803 0.530471 18.1921 0.204156 15.5C0.163366 15.1737 0.122577 14.8474 0.122577 14.5619C0.122577 14.8882 0.0817871 15.2145 0.0817871 15.5408C0.0817871 15.8263 0.0817871 16.1526 0.122577 16.479Z" fill="#B4BACC"/>
</g>
<defs>
<clipPath id="clip0_17580_11082">
<rect width="31" height="31" fill="white"/>
</clipPath>
</defs>
</svg>
