<svg width="57" height="32" viewBox="0 0 57 32" fill="none" xmlns="http://www.w3.org/2000/svg">
<g clip-path="url(#clip0_17580_11087)">
<path fill-rule="evenodd" clip-rule="evenodd" d="M8 23C9.85652 23 11.637 22.2625 12.9497 20.9497C14.2625 19.637 15 17.8565 15 16C15 17.8565 15.7375 19.637 17.0503 20.9497C18.363 22.2625 20.1435 23 22 23C23.8565 23 25.637 22.2625 26.9497 20.9497C28.2625 19.637 29 17.8565 29 16V23H36C36.9283 23 37.8185 22.6313 38.4749 21.9749C39.1312 21.3185 39.5 20.4283 39.5 19.5C39.5 18.5717 39.1312 17.6815 38.4749 17.0251C37.8185 16.3687 36.9283 16 36 16H43V23H50V16H57V9H36C35.0717 9 34.1815 9.36875 33.5251 10.0251C32.8687 10.6815 32.5 11.5717 32.5 12.5C32.5 13.4283 32.8687 14.3185 33.5251 14.9749C34.1815 15.6313 35.0717 16 36 16H29V9H22H15V16C15 14.1435 14.2625 12.363 12.9497 11.0503C11.637 9.7375 9.85652 9 8 9H1V16V23H8Z" fill="#B4BACC"/>
</g>
<defs>
<clipPath id="clip0_17580_11087">
<rect width="57" height="32" fill="white"/>
</clipPath>
</defs>
</svg>
