<svg width="102" height="32" viewBox="0 0 102 32" fill="none" xmlns="http://www.w3.org/2000/svg">
<path fill-rule="evenodd" clip-rule="evenodd" d="M10.0484 4V10.4488L4.25263 4.6964L3.67872 4.12678V4.932V10.9333H1.27607H0.939941V11.2667V20.3133V20.6467H1.27607H3.67939V26.686V27.4912L4.2533 26.9216L10.0484 21.1699V28H10.7206V21.1406L16.5446 26.9216L17.1185 27.4913V26.686V20.6467H19.5212H19.8573V20.3133V11.2667V10.9333H19.5212H17.1185V6.66667V4.932V4.12672L16.5446 4.69641L10.7206 10.4774V4H10.0484ZM4.35098 5.73722L9.58626 10.9333H4.35098V5.73722ZM1.6122 11.6H3.67872V11.6013H4.01485H9.58632L3.77952 17.3653L3.77774 17.3671L3.77773 17.3671L3.67943 17.4647L3.67939 17.6026V17.6027L3.6788 19.98H1.6122V11.6ZM10.0484 12.0866L4.35165 17.7407V25.8808L10.0484 20.2267V12.0866ZM10.7354 20.212V12.0726L16.4462 17.7406L16.4456 20.3133L16.4455 20.6467H16.4462V25.8807L10.7354 20.212ZM17.1185 17.6027V19.98H19.185V11.6H17.1185V11.6013H16.7824H11.2116L17.0052 17.3522L17.0202 17.3671L17.0202 17.3671L17.1185 17.4647V17.6027V17.6027ZM16.4462 6.66667V10.9333H11.2116L16.4462 5.73728V6.66667ZM39.0609 10.976C38.3423 11.3767 37.785 11.946 37.3863 12.6853L37.387 12.6847C36.9884 13.4247 36.7894 14.2947 36.7894 15.2973C36.7894 16.3 36.9944 17.1707 37.4045 17.9107C37.8146 18.6507 38.3974 19.2207 39.151 19.62C39.9053 20.0193 40.7772 20.2193 41.7668 20.2193C43.0817 20.2193 44.0928 19.9007 44.798 19.262C45.5039 18.624 45.9711 17.8687 46.2003 16.998H44.4807C44.2871 17.5593 43.9832 17.9973 43.5664 18.3133C43.151 18.6293 42.55 18.7873 41.7661 18.7873C40.8001 18.7873 40.031 18.5133 39.4582 17.964C38.8855 17.4153 38.5688 16.6753 38.5083 15.7447H46.0181V14.6713C46.0181 13.8967 45.8521 13.184 45.5207 12.5333C45.1892 11.8833 44.6884 11.3613 44.0188 10.9673C43.3499 10.5733 42.5506 10.3767 41.5853 10.3767C40.6199 10.3767 39.7782 10.5767 39.0609 10.976ZM43.5758 12.4967C43.998 12.9567 44.2091 13.5913 44.2091 14.4027H38.5265C38.6468 13.568 38.9756 12.926 39.5127 12.4787C40.0492 12.0313 40.7402 11.808 41.5846 11.808C42.4901 11.808 43.1536 12.0373 43.5758 12.4967ZM48.2742 12.13V10.6447V10.644H46.644V19.9507H48.2729V14.6713C48.2729 13.8 48.4719 13.174 48.8705 12.792C49.2692 12.41 49.8722 12.2193 50.6809 12.2193H51.7128V10.6093H50.9169C49.6739 10.6093 48.8954 11.0987 48.5821 12.0767C48.5586 12.148 48.5351 12.1953 48.5102 12.2193C48.4853 12.2433 48.4497 12.2553 48.4013 12.2553C48.3166 12.2553 48.2742 12.214 48.2742 12.13ZM59.6119 19.6633C60.2935 19.294 60.8488 18.736 61.277 17.9907C61.7053 17.2447 61.9197 16.3467 61.9197 15.298C61.9197 14.2493 61.7053 13.3507 61.277 12.6053C60.8481 11.8593 60.2935 11.3013 59.6119 10.932C58.9302 10.5627 58.1968 10.3773 57.4129 10.3773C55.8687 10.3773 54.7824 10.9853 54.1551 12.2027C54.1067 12.2973 54.0469 12.3453 53.9743 12.3453C53.9017 12.3453 53.8654 12.3093 53.8654 12.238V10.6453H52.2365V23.35H53.8654V18.3573C53.8654 18.286 53.9024 18.25 53.9743 18.25C54.0462 18.25 54.1067 18.298 54.1551 18.3927C54.7824 19.61 55.8687 20.218 57.4129 20.218C58.1968 20.218 58.9302 20.0327 59.6119 19.6633ZM57.0331 11.8073C58.0099 11.8073 58.7971 12.1147 59.3947 12.7293C59.9924 13.344 60.2908 14.2 60.2908 15.2973C60.2908 16.3947 59.9924 17.2507 59.3947 17.8653C58.7978 18.4807 58.0099 18.7873 57.0331 18.7873C56.0563 18.7873 55.2691 18.48 54.6714 17.8653C54.0738 17.2513 53.8546 16.3947 53.8546 15.2973C53.8546 14.2 54.0738 13.344 54.6714 12.7293C55.2684 12.1147 56.0563 11.8073 57.0331 11.8073ZM64.2834 19.95V7.06668H62.6545V19.95H64.2834ZM65.6249 12.684C65.6248 12.6842 65.6247 12.6845 65.6245 12.6847V12.684H65.6249ZM65.6249 12.684H65.6252C65.2266 13.424 65.0276 14.294 65.0276 15.2967C65.0276 16.2993 65.2326 17.17 65.6427 17.91C66.0528 18.65 66.6356 19.22 67.3892 19.6193C68.1435 20.0187 69.0154 20.2187 70.005 20.2187C71.3199 20.2187 72.331 19.9 73.0362 19.2613C73.7414 18.6233 74.2093 17.868 74.4385 16.9973H72.7189C72.5253 17.5587 72.2214 17.9967 71.8046 18.3127C71.3885 18.6287 70.7881 18.7867 70.0043 18.7867C69.0383 18.7867 68.2692 18.5127 67.6964 17.9633C67.1237 17.4147 66.807 16.6747 66.7465 15.744H74.2563V14.6707C74.2563 13.896 74.091 13.1833 73.7589 12.5327C73.4274 11.8827 72.9266 11.3607 72.257 10.9667C71.5881 10.5727 70.7875 10.376 69.8228 10.376C68.8581 10.376 68.0164 10.576 67.2991 10.9753C66.5807 11.3759 66.0228 11.945 65.6249 12.684ZM71.814 12.496C72.2362 12.956 72.4473 13.5907 72.4473 14.402H66.7647C66.8857 13.5673 67.2138 12.9253 67.7509 12.478C68.2874 12.0307 68.9791 11.8073 69.8228 11.8073C70.7283 11.8073 71.3918 12.0367 71.814 12.496ZM77.2593 15.028L73.5316 19.592H73.533V19.95H75.3608L78.3282 16.21L81.0972 19.95H82.8525V19.592L79.6129 15.2973L83.1234 11.02V10.644H81.2962L78.5453 14.1153L75.9928 10.644H74.2012V11.002L77.2593 15.028ZM85.4884 9.62934V7.61534H83.5859V9.62934H85.4884ZM83.76 19.9507H85.3896V10.6447H83.76V19.9507ZM85.9045 10.6447H85.9032V10.644H85.9045V10.6447ZM85.9045 10.6447V12.008H87.6759V16.9073C87.6759 17.934 87.9301 18.6967 88.4363 19.198C88.9425 19.7 89.7149 19.95 90.7529 19.95H92.0194V18.5187H91.3861C90.7703 18.5187 90.3146 18.5333 90.0194 18.5633C89.7236 18.5933 89.5455 18.608 89.4857 18.608C89.4003 18.608 89.3344 18.5847 89.286 18.5367C89.2376 18.4893 89.2141 18.424 89.2141 18.34C89.2141 18.2807 89.2289 18.1047 89.2591 17.812C89.2894 17.5193 89.3048 17.0687 89.3048 16.4607V12.0087H91.6275L91.1697 10.6447H89.3048V8.13935H87.6753V10.6447H85.9045ZM93.3209 10.6447H91.6604V10.6453H91.6618L94.7844 19.9507H95.8882C95.9602 19.9507 96.0146 19.9567 96.0509 19.9687C96.0872 19.98 96.1168 20.01 96.141 20.058C96.1887 20.1307 96.1834 20.238 96.1229 20.3807L95.616 21.7407C95.5427 21.9193 95.4042 22.0087 95.1992 22.0087C95.1266 22.0087 94.9572 21.994 94.6923 21.964C94.4268 21.934 94.0832 21.9193 93.661 21.9193H92.3394V23.3507H94.0765C95.0909 23.3507 95.7007 23.1807 96.2257 22.8407C96.7501 22.5007 97.1568 21.9013 97.4465 21.042L100.82 11.0027V10.6447H99.271L96.5746 18.452C96.5383 18.5473 96.4812 18.674 96.2963 18.674C96.1114 18.674 96.0543 18.548 96.0173 18.452L93.3209 10.6447ZM34.0889 19.6787C34.7706 19.3093 35.3259 18.7513 35.7541 18.006C36.1823 17.2607 36.3968 16.3627 36.3968 15.3133C36.3968 14.264 36.1823 13.3653 35.7541 12.62C35.3252 11.8747 34.7706 11.3167 34.0889 10.9473C33.4072 10.578 32.6738 10.3927 31.89 10.3927C30.3458 10.3927 29.2587 11.0007 28.6322 12.218C28.5838 12.3127 28.524 12.3607 28.4514 12.3607C28.3788 12.3607 28.3425 12.3247 28.3425 12.2533V10.6607H26.7136V23.3653H28.3425V18.3727C28.3425 18.3013 28.3794 18.2653 28.4514 18.2653C28.5233 18.2653 28.5838 18.3133 28.6322 18.408C29.2594 19.6253 30.3458 20.2333 31.89 20.2333C32.6738 20.2333 33.4072 20.048 34.0889 19.6787ZM31.5101 11.8227C32.4869 11.8227 33.2741 12.13 33.8718 12.7447C34.4694 13.3593 34.7679 14.2153 34.7679 15.3127C34.7679 16.41 34.4694 17.266 33.8718 17.8807C33.2748 18.496 32.4869 18.8027 31.5101 18.8027C30.5333 18.8027 29.7461 18.4953 29.1485 17.8807C28.5509 17.2667 28.3317 16.41 28.3317 15.3127C28.3317 14.2153 28.5509 13.3593 29.1485 12.7447C29.7455 12.13 30.5333 11.8227 31.5101 11.8227Z" fill="#B4BACC"/>
</svg>
