<svg width="107" height="32" viewBox="0 0 107 32" fill="none" xmlns="http://www.w3.org/2000/svg">
<path d="M2.26185 8.4242C2.3493 7.10155 3.43977 5.95555 4.88004 6.04387C5.27268 6.0876 5.75276 6.0876 6.49476 6.66081C9.72333 9.52604 11.6437 14.5521 11.0761 18.9157C11.0324 19.1361 10.8142 19.1361 10.7268 18.9157C9.81077 15.786 6.79951 12.2155 4.13761 11.1132C2.87224 10.6283 2.1744 9.70268 2.26185 8.4242Z" fill="#B4BACC"/>
<path d="M10.5969 23.809C9.76786 21.0763 5.66656 16.5355 2.65486 16.5355C2.32853 16.5301 2.00462 16.5923 1.70349 16.7182C1.40236 16.844 1.13054 17.0309 0.905116 17.2669C0.679694 17.5029 0.505552 17.783 0.393644 18.0896C0.281736 18.3962 0.234483 18.7226 0.254858 19.0484C0.342306 20.5472 1.60767 21.2966 2.74231 21.2966C5.31677 21.2966 8.41504 22.3985 10.3354 23.9856C10.4661 24.0735 10.6406 23.9856 10.5969 23.809Z" fill="#B4BACC"/>
<path d="M14.306 27.0711C14.2623 27.2914 14.0436 27.2914 13.9566 27.0711C10.5527 16.3587 16.6623 4.58871 21.2004 4.50083C23.6008 4.45623 25.2588 6.22005 25.2588 8.20336C25.2588 9.56973 24.8224 10.672 23.2519 11.5535C19.2804 13.8018 14.8294 19.621 14.306 27.0711Z" fill="#B4BACC"/>
<path d="M18.146 23.9414C18.0148 24.0293 17.8403 23.9414 17.8841 23.7648C18.7131 21.032 22.8152 16.4913 25.8261 16.4913C26.1524 16.4859 26.4764 16.548 26.7776 16.6738C27.0788 16.7997 27.3506 16.9865 27.5761 17.2225C27.8016 17.4585 27.9757 17.7387 28.0877 18.0453C28.1996 18.3519 28.2469 18.6784 28.2265 19.0041C28.1391 20.503 26.8732 21.2524 25.7386 21.2524C23.2079 21.2524 20.1096 22.4426 18.146 23.9414Z" fill="#B4BACC"/>
<path d="M34.311 19.0862C34.9664 19.5178 36.1461 20.035 37.3699 20.035C38.4184 20.035 39.1613 19.5611 39.1613 18.6556C39.1613 16.6289 33.6993 17.2756 33.6993 13.7825C33.6993 11.7988 35.447 10.7638 37.5444 10.7638C39.0301 10.7638 39.8167 11.2382 40.8219 11.8853L39.9912 13.1358C38.9864 12.7043 38.4622 12.4026 37.457 12.4026C36.4522 12.4026 35.6656 12.8337 35.6656 13.7392C35.6656 15.8091 41.1276 15.0759 41.1276 18.6118C41.1276 20.3796 39.5981 21.6734 37.3262 21.6734C35.5781 21.6734 34.2673 20.9406 33.4807 20.3367L34.311 19.0862ZM43.7055 11.0231H45.5843V12.2303C45.5843 12.532 45.5406 12.7909 45.5406 12.7909H45.5843C45.5843 12.7909 46.5021 10.8076 49.1238 10.8076C51.9641 10.8076 53.7559 13.0497 53.7559 16.284C53.7559 19.6039 51.7455 21.7599 48.9489 21.7599C46.5458 21.7599 45.6718 19.9061 45.6718 19.9061H45.6281C45.6281 19.9061 45.6718 20.2939 45.6718 20.8111V27.2364H43.7055V11.0231ZM48.6433 19.9922C50.3035 19.9922 51.7018 18.6556 51.7018 16.284C51.7018 13.9985 50.4784 12.5325 48.7307 12.5325C47.1575 12.5325 45.6718 13.6103 45.6718 16.284C45.6718 18.1379 46.7203 19.9922 48.6433 19.9922ZM61.9274 12.8774C59.8737 12.8774 58.0382 15.1196 58.0382 17.1462V21.5011H56.0282V11.0236H57.9949V12.8774C57.9949 13.309 57.9512 13.654 57.9512 13.654H57.9949C58.4755 12.2741 60.3543 10.8941 61.9712 10.8941V12.8779L61.9274 12.8774ZM64.0249 21.5444V11.0236H66.0353V21.502H64.0249V21.5444ZM76.4787 21.5444V15.249C76.4787 13.783 76.1727 12.6186 74.5125 12.6186C72.4583 12.6186 70.973 14.3002 70.973 16.4562V21.5015H68.9626V11.0231H70.9293V12.6186C70.9293 12.9203 70.8856 13.222 70.8856 13.222H70.9293C71.3661 12.3169 72.6332 10.7647 74.9493 10.7647C77.4398 10.7647 78.5762 12.1013 78.5762 14.7746V21.5015H76.4787V21.5444ZM88.4516 21.5444L85.2616 16.5857H83.6888V21.5444H81.6784V5.37443H83.6888V14.8179H85.2178L88.1893 11.0231H90.3305L86.9222 15.594V15.6369L90.724 21.5015L88.4516 21.5444ZM96.3609 21.5444C94.7002 21.5444 92.8214 21.2427 92.8214 18.6556V5.37443H94.8314V18.3534C94.8314 19.6472 95.9236 19.6905 96.3609 19.6905V21.5444ZM104.707 12.7909C102.653 12.7909 100.818 15.0335 100.818 17.0601V21.415H98.8076V10.937H100.774V12.7909C100.774 13.2224 100.73 13.5674 100.73 13.5674H100.774C101.255 12.1875 103.134 10.8076 104.751 10.8076V12.7909H104.707ZM65.0301 8.82424C65.7297 8.82424 66.2972 8.26458 66.2972 7.57374C66.2972 6.8829 65.7301 6.32324 65.0301 6.32324C64.3305 6.32324 63.763 6.8829 63.763 7.57374C63.763 8.26458 64.3301 8.82424 65.0301 8.82424Z" fill="#B4BACC"/>
</svg>
