<?xml version="1.0" encoding="UTF-8" standalone="no"?>
<!-- Generator: Adobe Illustrator 19.0.0, SVG Export Plug-In . SVG Version: 6.00 Build 0)  -->

<svg
   version="1.1"
   id="Layer_1"
   x="0px"
   y="0px"
   viewBox="0 0 480 480"
   style="enable-background:new 0 0 480 480;"
   xml:space="preserve"
   sodipodi:docname="icon.svg"
   inkscape:version="1.2.2 (b0a8486541, 2022-12-01)"
   xmlns:inkscape="http://www.inkscape.org/namespaces/inkscape"
   xmlns:sodipodi="http://sodipodi.sourceforge.net/DTD/sodipodi-0.dtd"
   xmlns="http://www.w3.org/2000/svg"
   xmlns:svg="http://www.w3.org/2000/svg"><defs
   id="defs49" /><sodipodi:namedview
   id="namedview47"
   pagecolor="#ffffff"
   bordercolor="#666666"
   borderopacity="1.0"
   inkscape:showpageshadow="2"
   inkscape:pageopacity="0.0"
   inkscape:pagecheckerboard="true"
   inkscape:deskcolor="#d1d1d1"
   showgrid="false"
   inkscape:zoom="1.8145833"
   inkscape:cx="225.94719"
   inkscape:cy="254.32836"
   inkscape:window-width="2560"
   inkscape:window-height="1048"
   inkscape:window-x="0"
   inkscape:window-y="32"
   inkscape:window-maximized="1"
   inkscape:current-layer="Layer_1" />
<g
   id="g14"
   style="fill:#ffffff">
	<g
   id="g12"
   style="fill:#ffffff">
		<g
   id="g10"
   style="fill:#ffffff">
			<path
   d="M257.272,84.059c5.522,0,10-4.477,10-10c0-5.523-4.478-10-10-10c-30.557,0-55.416,24.861-55.416,55.42     c0,30.535,24.86,55.378,55.416,55.378c5.522,0,10-4.477,10-10s-4.478-10-10-10c-19.528,0-35.416-15.871-35.416-35.378     C221.856,99.948,237.744,84.059,257.272,84.059z"
   id="path2"
   style="fill:#ffffff" />
			<path
   d="M356.535,317.055c-14.379,0-27.52,5.376-37.543,14.208v-56.767c0-5.523-4.478-10-10-10c-5.522,0-10,4.477-10,10V366.5     c0,1.392,0.285,2.716,0.799,3.92c-0.07,1.156-0.117,2.318-0.117,3.492c0,31.335,25.508,56.827,56.861,56.827     c31.341,0,56.838-25.493,56.838-56.827C413.373,342.561,387.876,317.055,356.535,317.055z M356.535,410.739     c-20.325,0-36.861-16.52-36.861-36.827c0-20.323,16.536-36.857,36.861-36.857c20.313,0,36.838,16.534,36.838,36.857     C393.373,394.219,376.848,410.739,356.535,410.739z"
   id="path4"
   style="fill:#ffffff" />
			<path
   d="M121.653,288.144c-32.179,0-58.358,26.183-58.358,58.366c0,32.173,26.18,58.347,58.358,58.347     c15.151,0,28.969-5.806,39.354-15.305V412.5c0,5.523,4.477,10,10,10s10-4.477,10-10v-69c0-2.007-0.597-3.872-1.615-5.438     C175.287,309.869,150.963,288.144,121.653,288.144z M121.653,384.857c-21.151,0-38.358-17.203-38.358-38.347     c0-21.155,17.208-38.366,38.358-38.366s38.358,17.211,38.358,38.366C160.012,367.654,142.804,384.857,121.653,384.857z"
   id="path6"
   style="fill:#ffffff" />
			<path
   d="M432.625,230H365V47.379C365,21.254,343.748,0,317.625,0h-155.25C136.252,0,115,21.254,115,47.379V230H47.375     C21.252,230,0,251.254,0,277.379v155.242C0,458.746,21.252,480,47.375,480h155.25c15.176,0,28.699-7.182,37.375-18.316     C248.676,472.818,262.198,480,277.375,480h155.25C458.748,480,480,458.746,480,432.621V277.379     C480,251.254,458.748,230,432.625,230z M230,432.621C230,447.718,217.72,460,202.625,460H47.375C32.28,460,20,447.718,20,432.621     V277.379C20,262.282,32.28,250,47.375,250h155.25C217.72,250,230,262.282,230,277.379V432.621z M240,248.316     C231.324,237.182,217.801,230,202.625,230H135V47.379C135,32.282,147.28,20,162.375,20h155.25C332.72,20,345,32.282,345,47.379     V230h-67.625C262.198,230,248.676,237.182,240,248.316z M460,432.621C460,447.718,447.72,460,432.625,460h-155.25     C262.28,460,250,447.718,250,432.621V277.379C250,262.282,262.28,250,277.375,250h155.25C447.72,250,460,262.282,460,277.379     V432.621z"
   id="path8"
   style="fill:#ffffff" />
		</g>
	</g>
</g>
<g
   id="g16">
</g>
<g
   id="g18">
</g>
<g
   id="g20">
</g>
<g
   id="g22">
</g>
<g
   id="g24">
</g>
<g
   id="g26">
</g>
<g
   id="g28">
</g>
<g
   id="g30">
</g>
<g
   id="g32">
</g>
<g
   id="g34">
</g>
<g
   id="g36">
</g>
<g
   id="g38">
</g>
<g
   id="g40">
</g>
<g
   id="g42">
</g>
<g
   id="g44">
</g>
</svg>
