<?xml version="1.0" encoding="UTF-8" standalone="no"?>
<!-- Created with Inkscape (http://www.inkscape.org/) -->

<svg
   width="107.82531mm"
   height="103.74821mm"
   viewBox="0 0 107.82531 103.74821"
   version="1.1"
   id="svg5"
   inkscape:version="1.2.2 (b0a8486541, 2022-12-01)"
   sodipodi:docname="scoring-2.svg"
   inkscape:export-filename="scoring-2.png"
   inkscape:export-xdpi="150"
   inkscape:export-ydpi="150"
   xmlns:inkscape="http://www.inkscape.org/namespaces/inkscape"
   xmlns:sodipodi="http://sodipodi.sourceforge.net/DTD/sodipodi-0.dtd"
   xmlns="http://www.w3.org/2000/svg"
   xmlns:svg="http://www.w3.org/2000/svg">
  <sodipodi:namedview
     id="namedview7"
     pagecolor="#ffffff"
     bordercolor="#666666"
     borderopacity="1.0"
     inkscape:showpageshadow="2"
     inkscape:pageopacity="0.0"
     inkscape:pagecheckerboard="0"
     inkscape:deskcolor="#d1d1d1"
     inkscape:document-units="mm"
     showgrid="false"
     inkscape:zoom="2.123775"
     inkscape:cx="236.13613"
     inkscape:cy="254.97051"
     inkscape:window-width="1798"
     inkscape:window-height="1048"
     inkscape:window-x="762"
     inkscape:window-y="32"
     inkscape:window-maximized="0"
     inkscape:current-layer="layer1" />
  <defs
     id="defs2">
    <inkscape:path-effect
       effect="bspline"
       id="path-effect7500"
       is_visible="true"
       lpeversion="1"
       weight="33.333333"
       steps="2"
       helper_size="0"
       apply_no_weight="true"
       apply_with_weight="true"
       only_selected="false" />
  </defs>
  <g
     inkscape:label="Layer 1"
     inkscape:groupmode="layer"
     id="layer1"
     transform="translate(-51.94278,-3.4329469)">
    <rect
       style="opacity:0.937695;fill:#ffffff;fill-opacity:1;stroke:none;stroke-width:0.396875;stroke-linecap:round;stroke-linejoin:round;stroke-dasharray:none;stroke-dashoffset:0;stroke-opacity:1;paint-order:stroke fill markers"
       id="rect7562"
       width="107.82531"
       height="103.74821"
       x="51.94278"
       y="3.4329469"
       ry="1.7782483"
       sodipodi:insensitive="true" />
    <g
       id="g9881"
       transform="translate(0,-11.756141)">
      <rect
         style="opacity:0.937695;fill:#15202b;fill-opacity:1;stroke:#15202b;stroke-width:0.79375;stroke-linecap:round;stroke-linejoin:round;stroke-opacity:1;paint-order:stroke fill markers"
         id="rect234-3"
         width="63.247219"
         height="8.9203663"
         x="73.376389"
         y="19.196898"
         ry="0.69643092" />
      <rect
         style="opacity:0.937695;fill:#00ba7c;fill-opacity:1;stroke:#00ba7c;stroke-width:0.79375;stroke-linecap:round;stroke-linejoin:round;stroke-opacity:1;paint-order:stroke fill markers"
         id="rect234-3-6"
         width="46.518997"
         height="8.9203663"
         x="73.376389"
         y="19.196898"
         ry="0.69643092" />
      <text
         xml:space="preserve"
         style="font-size:3.70417px;line-height:1;font-family:EuropeanTypewriter;-inkscape-font-specification:EuropeanTypewriter;fill:#ffffff;fill-opacity:1;stroke-width:0.264583"
         x="80.666954"
         y="25.038004"
         id="text4814-5"><tspan
           sodipodi:role="line"
           id="tspan4812-3"
           style="font-style:normal;font-variant:normal;font-weight:normal;font-stretch:normal;font-size:3.70417px;font-family:sans-serif;-inkscape-font-specification:sans-serif;fill:#ffffff;fill-opacity:1;stroke-width:0.264583"
           x="80.666954"
           y="25.038004">grill</tspan></text>
      <text
         xml:space="preserve"
         style="font-size:3.70417px;line-height:1;font-family:EuropeanTypewriter;-inkscape-font-specification:EuropeanTypewriter;fill:#ffffff;fill-opacity:1;stroke-width:0.264583"
         x="127.55319"
         y="25.038004"
         id="text4814-5-5"><tspan
           sodipodi:role="line"
           id="tspan4812-3-6"
           style="font-style:normal;font-variant:normal;font-weight:normal;font-stretch:normal;font-size:3.70417px;font-family:sans-serif;-inkscape-font-specification:sans-serif;fill:#ffffff;fill-opacity:1;stroke-width:0.264583"
           x="127.55319"
           y="25.038004">121</tspan></text>
    </g>
    <g
       id="g9889"
       transform="translate(0,11.756141)">
      <rect
         style="opacity:0.937695;fill:#15202b;fill-opacity:1;stroke:#15202b;stroke-width:0.79375;stroke-linecap:round;stroke-linejoin:round;stroke-opacity:1;paint-order:stroke fill markers"
         id="rect234"
         width="63.247219"
         height="8.9203663"
         x="73.376389"
         y="7.4407563"
         ry="0.69643092" />
      <rect
         style="opacity:0.937695;fill:#ef7d31;fill-opacity:1;stroke:#ef7d31;stroke-width:0.79375;stroke-linecap:round;stroke-linejoin:round;stroke-opacity:1;paint-order:stroke fill markers"
         id="rect234-3-6-7"
         width="26.182402"
         height="8.9203663"
         x="73.376389"
         y="7.4407563"
         ry="0.69643092" />
      <text
         xml:space="preserve"
         style="font-size:3.70417px;line-height:1;font-family:EuropeanTypewriter;-inkscape-font-specification:EuropeanTypewriter;fill:#ffffff;fill-opacity:1;stroke-width:0.264583"
         x="80.666954"
         y="13.281863"
         id="text4814"><tspan
           sodipodi:role="line"
           id="tspan4812"
           style="font-style:normal;font-variant:normal;font-weight:normal;font-stretch:normal;font-size:3.70417px;font-family:sans-serif;-inkscape-font-specification:sans-serif;fill:#ffffff;fill-opacity:1;stroke-width:0.264583"
           x="80.666954"
           y="13.281863">house</tspan></text>
      <text
         xml:space="preserve"
         style="font-size:3.70417px;line-height:1;font-family:EuropeanTypewriter;-inkscape-font-specification:EuropeanTypewriter;fill:#ffffff;fill-opacity:1;stroke-width:0.264583"
         x="127.44467"
         y="13.249309"
         id="text4814-5-5-2"><tspan
           sodipodi:role="line"
           id="tspan4812-3-6-9"
           style="font-style:normal;font-variant:normal;font-weight:normal;font-stretch:normal;font-size:3.70417px;font-family:sans-serif;-inkscape-font-specification:sans-serif;fill:#ffffff;fill-opacity:1;stroke-width:0.264583"
           x="127.44467"
           y="13.249309">846</tspan></text>
    </g>
    <path
       style="opacity:0.937695;fill:none;fill-opacity:1;stroke:#ababab;stroke-width:0.264583;stroke-linecap:round;stroke-linejoin:round;stroke-dasharray:none;stroke-opacity:1;paint-order:stroke fill markers"
       id="path6164"
       sodipodi:type="arc"
       sodipodi:cx="94.41291"
       sodipodi:cy="81.009117"
       sodipodi:rx="0.75485724"
       sodipodi:ry="0.75485724"
       sodipodi:start="0"
       sodipodi:end="6.2808117"
       sodipodi:open="true"
       sodipodi:arc-type="chord"
       d="m 95.167768,81.009117 a 0.75485724,0.75485724 0 0 1 -0.75441,0.754857 0.75485724,0.75485724 0 0 1 -0.755304,-0.753961 0.75485724,0.75485724 0 0 1 0.753513,-0.755752 0.75485724,0.75485724 0 0 1 0.756199,0.753064 z" />
    <path
       style="opacity:0.937695;fill:none;fill-opacity:1;stroke:#000000;stroke-width:0.26458333;stroke-linecap:round;stroke-linejoin:round;stroke-dasharray:none;stroke-opacity:1;paint-order:stroke fill markers"
       id="path6164-9"
       sodipodi:type="arc"
       sodipodi:cx="97.499123"
       sodipodi:cy="87.061478"
       sodipodi:rx="0.75485724"
       sodipodi:ry="0.75485724"
       sodipodi:start="0"
       sodipodi:end="6.2808117"
       sodipodi:open="true"
       sodipodi:arc-type="chord"
       d="m 98.25398,87.061478 a 0.75485724,0.75485724 0 0 1 -0.754409,0.754857 0.75485724,0.75485724 0 0 1 -0.755305,-0.753961 0.75485724,0.75485724 0 0 1 0.753513,-0.755752 0.75485724,0.75485724 0 0 1 0.756199,0.753064 z" />
    <path
       style="opacity:0.937695;fill:none;fill-opacity:1;stroke:#000000;stroke-width:0.396875;stroke-linecap:round;stroke-linejoin:round;stroke-dasharray:none;stroke-opacity:1;paint-order:stroke fill markers"
       id="path6164-2"
       sodipodi:type="arc"
       sodipodi:cx="100.84282"
       sodipodi:cy="63.052021"
       sodipodi:rx="0.75485724"
       sodipodi:ry="0.75485724"
       sodipodi:start="0"
       sodipodi:end="6.2808117"
       sodipodi:open="true"
       sodipodi:arc-type="chord"
       d="m 101.59768,63.052021 a 0.75485724,0.75485724 0 0 1 -0.75441,0.754857 0.75485724,0.75485724 0 0 1 -0.75531,-0.753961 0.75485724,0.75485724 0 0 1 0.75352,-0.755752 0.75485724,0.75485724 0 0 1 0.75619,0.753064 z" />
    <path
       style="opacity:0.937695;fill:none;fill-opacity:1;stroke:#000000;stroke-width:0.26458333;stroke-linecap:round;stroke-linejoin:round;stroke-dasharray:none;stroke-opacity:1;paint-order:stroke fill markers"
       id="path6164-0"
       sodipodi:type="arc"
       sodipodi:cx="139.57541"
       sodipodi:cy="96.429375"
       sodipodi:rx="0.75485724"
       sodipodi:ry="0.75485724"
       sodipodi:start="0"
       sodipodi:end="6.2808117"
       sodipodi:open="true"
       sodipodi:arc-type="chord"
       d="m 140.33027,96.429375 a 0.75485724,0.75485724 0 0 1 -0.75441,0.754857 0.75485724,0.75485724 0 0 1 -0.75531,-0.753961 0.75485724,0.75485724 0 0 1 0.75352,-0.755752 0.75485724,0.75485724 0 0 1 0.75619,0.753064 z" />
    <path
       style="opacity:0.937695;fill:none;fill-opacity:1;stroke:#000000;stroke-width:0.26458333;stroke-linecap:round;stroke-linejoin:round;stroke-dasharray:none;stroke-opacity:1;paint-order:stroke fill markers"
       id="path6164-23"
       sodipodi:type="arc"
       sodipodi:cx="150.86624"
       sodipodi:cy="53.414841"
       sodipodi:rx="0.75485724"
       sodipodi:ry="0.75485724"
       sodipodi:start="0"
       sodipodi:end="6.2808117"
       sodipodi:open="true"
       sodipodi:arc-type="chord"
       d="m 151.6211,53.414841 a 0.75485724,0.75485724 0 0 1 -0.75441,0.754857 0.75485724,0.75485724 0 0 1 -0.75531,-0.753961 0.75485724,0.75485724 0 0 1 0.75352,-0.755752 0.75485724,0.75485724 0 0 1 0.7562,0.753064 z" />
    <path
       style="opacity:0.937695;fill:none;fill-opacity:1;stroke:#ababab;stroke-width:0.264583;stroke-linecap:round;stroke-linejoin:round;stroke-dasharray:none;stroke-opacity:1;paint-order:stroke fill markers"
       id="path6164-7"
       sodipodi:type="arc"
       sodipodi:cx="90.193657"
       sodipodi:cy="72.987473"
       sodipodi:rx="0.75485724"
       sodipodi:ry="0.75485724"
       sodipodi:start="0"
       sodipodi:end="6.2808117"
       sodipodi:open="true"
       sodipodi:arc-type="chord"
       d="m 90.948514,72.987473 a 0.75485724,0.75485724 0 0 1 -0.754409,0.754857 0.75485724,0.75485724 0 0 1 -0.755305,-0.753962 0.75485724,0.75485724 0 0 1 0.753513,-0.755752 0.75485724,0.75485724 0 0 1 0.756199,0.753065 z" />
    <path
       style="opacity:0.937695;fill:none;fill-opacity:1;stroke:#ababab;stroke-width:0.264583;stroke-linecap:round;stroke-linejoin:round;stroke-dasharray:none;stroke-opacity:1;paint-order:stroke fill markers"
       id="path6164-5"
       sodipodi:type="arc"
       sodipodi:cx="74.735985"
       sodipodi:cy="82.584167"
       sodipodi:rx="0.75485724"
       sodipodi:ry="0.75485724"
       sodipodi:start="0"
       sodipodi:end="6.2808117"
       sodipodi:open="true"
       sodipodi:arc-type="chord"
       d="m 75.490842,82.584167 a 0.75485724,0.75485724 0 0 1 -0.754409,0.754858 0.75485724,0.75485724 0 0 1 -0.755305,-0.753962 0.75485724,0.75485724 0 0 1 0.753513,-0.755752 0.75485724,0.75485724 0 0 1 0.756199,0.753065 z" />
    <path
       style="opacity:0.937695;fill:none;fill-opacity:1;stroke:#000000;stroke-width:0.26458333;stroke-linecap:round;stroke-linejoin:round;stroke-dasharray:none;stroke-opacity:1;paint-order:stroke fill markers"
       id="path6164-92"
       sodipodi:type="arc"
       sodipodi:cx="126.61852"
       sodipodi:cy="83.110352"
       sodipodi:rx="0.75485724"
       sodipodi:ry="0.75485724"
       sodipodi:start="0"
       sodipodi:end="6.2808117"
       sodipodi:open="true"
       sodipodi:arc-type="chord"
       d="m 127.37338,83.110352 a 0.75485724,0.75485724 0 0 1 -0.75441,0.754857 0.75485724,0.75485724 0 0 1 -0.7553,-0.753962 0.75485724,0.75485724 0 0 1 0.75351,-0.755751 0.75485724,0.75485724 0 0 1 0.7562,0.753064 z" />
    <path
       style="opacity:0.937695;fill:none;fill-opacity:1;stroke:#000000;stroke-width:0.396875;stroke-linecap:round;stroke-linejoin:round;stroke-dasharray:none;stroke-opacity:1;paint-order:stroke fill markers"
       id="path6164-28"
       sodipodi:type="arc"
       sodipodi:cx="111.82188"
       sodipodi:cy="58.205639"
       sodipodi:rx="0.75485724"
       sodipodi:ry="0.75485724"
       sodipodi:start="0"
       sodipodi:end="6.2808117"
       sodipodi:open="true"
       sodipodi:arc-type="chord"
       d="m 112.57673,58.205639 a 0.75485724,0.75485724 0 0 1 -0.75441,0.754857 0.75485724,0.75485724 0 0 1 -0.7553,-0.753961 0.75485724,0.75485724 0 0 1 0.75351,-0.755752 0.75485724,0.75485724 0 0 1 0.7562,0.753064 z" />
    <path
       style="opacity:0.937695;fill:none;fill-opacity:1;stroke:#000000;stroke-width:0.396875;stroke-linecap:round;stroke-linejoin:round;stroke-dasharray:none;stroke-opacity:1;paint-order:stroke fill markers"
       id="path6164-97"
       sodipodi:type="arc"
       sodipodi:cx="128.75783"
       sodipodi:cy="44.412277"
       sodipodi:rx="0.75485724"
       sodipodi:ry="0.75485724"
       sodipodi:start="0"
       sodipodi:end="6.2808117"
       sodipodi:open="true"
       sodipodi:arc-type="chord"
       d="m 129.51269,44.412277 a 0.75485724,0.75485724 0 0 1 -0.75441,0.754857 0.75485724,0.75485724 0 0 1 -0.75531,-0.753961 0.75485724,0.75485724 0 0 1 0.75351,-0.755752 0.75485724,0.75485724 0 0 1 0.7562,0.753064 z" />
    <path
       style="opacity:0.937695;fill:none;fill-opacity:1;stroke:#000000;stroke-width:0.26458333;stroke-linecap:round;stroke-linejoin:round;stroke-dasharray:none;stroke-opacity:1;paint-order:stroke fill markers"
       id="path6164-3"
       sodipodi:type="arc"
       sodipodi:cx="137.59096"
       sodipodi:cy="94.760628"
       sodipodi:rx="0.75485724"
       sodipodi:ry="0.75485724"
       sodipodi:start="0"
       sodipodi:end="6.2808117"
       sodipodi:open="true"
       sodipodi:arc-type="chord"
       d="m 138.34581,94.760628 a 0.75485724,0.75485724 0 0 1 -0.7544,0.754857 0.75485724,0.75485724 0 0 1 -0.75531,-0.753961 0.75485724,0.75485724 0 0 1 0.75351,-0.755752 0.75485724,0.75485724 0 0 1 0.7562,0.753064 z" />
    <path
       style="opacity:0.937695;fill:none;fill-opacity:1;stroke:#ababab;stroke-width:0.264583;stroke-linecap:round;stroke-linejoin:round;stroke-dasharray:none;stroke-opacity:1;paint-order:stroke fill markers"
       id="path6164-6"
       sodipodi:type="arc"
       sodipodi:cx="90.304245"
       sodipodi:cy="94.060204"
       sodipodi:rx="0.75485724"
       sodipodi:ry="0.75485724"
       sodipodi:start="0"
       sodipodi:end="6.2808117"
       sodipodi:open="true"
       sodipodi:arc-type="chord"
       d="m 91.059102,94.060204 a 0.75485724,0.75485724 0 0 1 -0.754409,0.754857 0.75485724,0.75485724 0 0 1 -0.755305,-0.753962 0.75485724,0.75485724 0 0 1 0.753513,-0.755751 0.75485724,0.75485724 0 0 1 0.756199,0.753064 z" />
    <path
       style="opacity:0.937695;fill:none;fill-opacity:1;stroke:#ef7d31;stroke-width:0.396875;stroke-linecap:round;stroke-linejoin:round;stroke-dasharray:none;stroke-opacity:1;paint-order:stroke fill markers"
       id="path6164-1"
       sodipodi:type="arc"
       sodipodi:cx="121.92664"
       sodipodi:cy="70.110764"
       sodipodi:rx="0.75485724"
       sodipodi:ry="0.75485724"
       sodipodi:start="0"
       sodipodi:end="6.2808117"
       sodipodi:open="true"
       sodipodi:arc-type="chord"
       d="m 122.6815,70.110764 a 0.75485724,0.75485724 0 0 1 -0.75441,0.754857 0.75485724,0.75485724 0 0 1 -0.7553,-0.753962 0.75485724,0.75485724 0 0 1 0.75351,-0.755751 0.75485724,0.75485724 0 0 1 0.7562,0.753064 z" />
    <path
       style="opacity:0.937695;fill:none;fill-opacity:1;stroke:#000000;stroke-width:0.26458333;stroke-linecap:round;stroke-linejoin:round;stroke-dasharray:none;stroke-opacity:1;paint-order:stroke fill markers"
       id="path6164-29"
       sodipodi:type="arc"
       sodipodi:cx="122.81564"
       sodipodi:cy="54.353756"
       sodipodi:rx="0.75485724"
       sodipodi:ry="0.75485724"
       sodipodi:start="0"
       sodipodi:end="6.2808117"
       sodipodi:open="true"
       sodipodi:arc-type="chord"
       d="m 123.5705,54.353756 a 0.75485724,0.75485724 0 0 1 -0.75441,0.754857 0.75485724,0.75485724 0 0 1 -0.7553,-0.753961 0.75485724,0.75485724 0 0 1 0.75351,-0.755752 0.75485724,0.75485724 0 0 1 0.7562,0.753064 z" />
    <path
       style="opacity:0.937695;fill:none;fill-opacity:1;stroke:#ababab;stroke-width:0.264583;stroke-linecap:round;stroke-linejoin:round;stroke-dasharray:none;stroke-opacity:1;paint-order:stroke fill markers"
       id="path6164-31"
       sodipodi:type="arc"
       sodipodi:cx="75.000969"
       sodipodi:cy="89.839622"
       sodipodi:rx="0.75485724"
       sodipodi:ry="0.75485724"
       sodipodi:start="0"
       sodipodi:end="6.2808117"
       sodipodi:open="true"
       sodipodi:arc-type="chord"
       d="m 75.755826,89.839622 a 0.75485724,0.75485724 0 0 1 -0.754409,0.754858 0.75485724,0.75485724 0 0 1 -0.755305,-0.753962 0.75485724,0.75485724 0 0 1 0.753513,-0.755752 0.75485724,0.75485724 0 0 1 0.756199,0.753065 z" />
    <path
       style="opacity:0.937695;fill:none;fill-opacity:1;stroke:#ababab;stroke-width:0.264583;stroke-linecap:round;stroke-linejoin:round;stroke-dasharray:none;stroke-opacity:1;paint-order:stroke fill markers"
       id="path6164-78"
       sodipodi:type="arc"
       sodipodi:cx="55.535976"
       sodipodi:cy="82.148232"
       sodipodi:rx="0.75485724"
       sodipodi:ry="0.75485724"
       sodipodi:start="0"
       sodipodi:end="6.2808117"
       sodipodi:open="true"
       sodipodi:arc-type="chord"
       d="m 56.290834,82.148232 a 0.75485724,0.75485724 0 0 1 -0.75441,0.754857 0.75485724,0.75485724 0 0 1 -0.755304,-0.753962 0.75485724,0.75485724 0 0 1 0.753513,-0.755752 0.75485724,0.75485724 0 0 1 0.756199,0.753065 z" />
    <path
       style="opacity:0.937695;fill:none;fill-opacity:1;stroke:#ababab;stroke-width:0.264583;stroke-linecap:round;stroke-linejoin:round;stroke-dasharray:none;stroke-opacity:1;paint-order:stroke fill markers"
       id="path6164-4"
       sodipodi:type="arc"
       sodipodi:cx="76.944359"
       sodipodi:cy="75.603615"
       sodipodi:rx="0.75485724"
       sodipodi:ry="0.75485724"
       sodipodi:start="0"
       sodipodi:end="6.2808117"
       sodipodi:open="true"
       sodipodi:arc-type="chord"
       d="m 77.699216,75.603615 a 0.75485724,0.75485724 0 0 1 -0.754409,0.754857 0.75485724,0.75485724 0 0 1 -0.755305,-0.753961 0.75485724,0.75485724 0 0 1 0.753513,-0.755752 0.75485724,0.75485724 0 0 1 0.756199,0.753064 z" />
    <path
       style="opacity:0.937695;fill:none;fill-opacity:1;stroke:#000000;stroke-width:0.26458333;stroke-linecap:round;stroke-linejoin:round;stroke-dasharray:none;stroke-opacity:1;paint-order:stroke fill markers"
       id="path6164-50"
       sodipodi:type="arc"
       sodipodi:cx="145.03268"
       sodipodi:cy="83.120872"
       sodipodi:rx="0.75485724"
       sodipodi:ry="0.75485724"
       sodipodi:start="0"
       sodipodi:end="6.2808117"
       sodipodi:open="true"
       sodipodi:arc-type="chord"
       d="m 145.78754,83.120872 a 0.75485724,0.75485724 0 0 1 -0.75441,0.754858 0.75485724,0.75485724 0 0 1 -0.7553,-0.753962 0.75485724,0.75485724 0 0 1 0.75351,-0.755752 0.75485724,0.75485724 0 0 1 0.7562,0.753065 z" />
    <path
       style="opacity:0.937695;fill:none;fill-opacity:1;stroke:#ababab;stroke-width:0.264583;stroke-linecap:round;stroke-linejoin:round;stroke-dasharray:none;stroke-opacity:1;paint-order:stroke fill markers"
       id="path6164-36"
       sodipodi:type="arc"
       sodipodi:cx="82.664047"
       sodipodi:cy="54.374702"
       sodipodi:rx="0.75485724"
       sodipodi:ry="0.75485724"
       sodipodi:start="0"
       sodipodi:end="6.2808117"
       sodipodi:open="true"
       sodipodi:arc-type="chord"
       d="m 83.418904,54.374702 a 0.75485724,0.75485724 0 0 1 -0.754409,0.754858 0.75485724,0.75485724 0 0 1 -0.755304,-0.753962 0.75485724,0.75485724 0 0 1 0.753512,-0.755752 0.75485724,0.75485724 0 0 1 0.756199,0.753065 z" />
    <path
       style="opacity:0.937695;fill:none;fill-opacity:1;stroke:#ababab;stroke-width:0.264583;stroke-linecap:round;stroke-linejoin:round;stroke-dasharray:none;stroke-opacity:1;paint-order:stroke fill markers"
       id="path6164-10"
       sodipodi:type="arc"
       sodipodi:cx="72.384827"
       sodipodi:cy="88.386703"
       sodipodi:rx="0.75485724"
       sodipodi:ry="0.75485724"
       sodipodi:start="0"
       sodipodi:end="6.2808117"
       sodipodi:open="true"
       sodipodi:arc-type="chord"
       d="m 73.139684,88.386703 a 0.75485724,0.75485724 0 0 1 -0.754409,0.754858 0.75485724,0.75485724 0 0 1 -0.755305,-0.753962 0.75485724,0.75485724 0 0 1 0.753513,-0.755752 0.75485724,0.75485724 0 0 1 0.756199,0.753065 z" />
    <path
       style="opacity:0.937695;fill:none;fill-opacity:1;stroke:#00ba7c;stroke-width:0.396875;stroke-linecap:round;stroke-linejoin:round;stroke-dasharray:none;stroke-opacity:1;paint-order:stroke fill markers"
       id="path6164-63"
       sodipodi:type="arc"
       sodipodi:cx="106.80873"
       sodipodi:cy="53.983494"
       sodipodi:rx="0.75485724"
       sodipodi:ry="0.75485724"
       sodipodi:start="0"
       sodipodi:end="6.2808117"
       sodipodi:open="true"
       sodipodi:arc-type="chord"
       d="m 107.56359,53.983494 a 0.75485724,0.75485724 0 0 1 -0.75441,0.754857 0.75485724,0.75485724 0 0 1 -0.75531,-0.753961 0.75485724,0.75485724 0 0 1 0.75352,-0.755752 0.75485724,0.75485724 0 0 1 0.7562,0.753064 z" />
    <path
       style="opacity:0.937695;fill:none;fill-opacity:1;stroke:#f91880;stroke-width:0.264583;stroke-linecap:round;stroke-linejoin:round;stroke-dasharray:none;stroke-opacity:1;paint-order:stroke fill markers"
       id="path6164-61"
       sodipodi:type="arc"
       sodipodi:cx="73.374825"
       sodipodi:cy="64.99527"
       sodipodi:rx="0.75485724"
       sodipodi:ry="0.75485724"
       sodipodi:start="0"
       sodipodi:end="6.2808117"
       sodipodi:open="true"
       sodipodi:arc-type="chord"
       d="m 74.129682,64.99527 a 0.75485724,0.75485724 0 0 1 -0.75441,0.754857 0.75485724,0.75485724 0 0 1 -0.755304,-0.753961 0.75485724,0.75485724 0 0 1 0.753513,-0.755752 0.75485724,0.75485724 0 0 1 0.756199,0.753064 z" />
    <path
       style="opacity:0.937695;fill:none;fill-opacity:1;stroke:#ababab;stroke-width:0.264583;stroke-linecap:round;stroke-linejoin:round;stroke-dasharray:none;stroke-opacity:1;paint-order:stroke fill markers"
       id="path6164-55"
       sodipodi:type="arc"
       sodipodi:cx="76.0737"
       sodipodi:cy="44.409828"
       sodipodi:rx="0.75485724"
       sodipodi:ry="0.75485724"
       sodipodi:start="0"
       sodipodi:end="6.2808117"
       sodipodi:open="true"
       sodipodi:arc-type="chord"
       d="m 76.828557,44.409828 a 0.75485724,0.75485724 0 0 1 -0.754409,0.754857 0.75485724,0.75485724 0 0 1 -0.755305,-0.753961 0.75485724,0.75485724 0 0 1 0.753513,-0.755752 0.75485724,0.75485724 0 0 1 0.756199,0.753064 z" />
    <path
       style="opacity:0.937695;fill:none;fill-opacity:1;stroke:#000000;stroke-width:0.26458333;stroke-linecap:round;stroke-linejoin:round;stroke-dasharray:none;stroke-opacity:1;paint-order:stroke fill markers"
       id="path6164-47"
       sodipodi:type="arc"
       sodipodi:cx="156.47246"
       sodipodi:cy="68.84317"
       sodipodi:rx="0.75485724"
       sodipodi:ry="0.75485724"
       sodipodi:start="0"
       sodipodi:end="6.2808117"
       sodipodi:open="true"
       sodipodi:arc-type="chord"
       d="m 157.22732,68.84317 a 0.75485724,0.75485724 0 0 1 -0.75441,0.754857 0.75485724,0.75485724 0 0 1 -0.75531,-0.753961 0.75485724,0.75485724 0 0 1 0.75351,-0.755752 0.75485724,0.75485724 0 0 1 0.7562,0.753064 z" />
    <path
       style="opacity:0.937695;fill:none;fill-opacity:1;stroke:#000000;stroke-width:0.26458333;stroke-linecap:round;stroke-linejoin:round;stroke-dasharray:none;stroke-opacity:1;paint-order:stroke fill markers"
       id="path6164-65"
       sodipodi:type="arc"
       sodipodi:cx="113.33567"
       sodipodi:cy="65.751152"
       sodipodi:rx="0.75485724"
       sodipodi:ry="0.75485724"
       sodipodi:start="0"
       sodipodi:end="6.2808117"
       sodipodi:open="true"
       sodipodi:arc-type="chord"
       d="m 114.09053,65.751152 a 0.75485724,0.75485724 0 0 1 -0.75441,0.754857 0.75485724,0.75485724 0 0 1 -0.75531,-0.753961 0.75485724,0.75485724 0 0 1 0.75352,-0.755752 0.75485724,0.75485724 0 0 1 0.7562,0.753064 z" />
    <path
       style="opacity:0.937695;fill:none;fill-opacity:1;stroke:#ababab;stroke-width:0.264583;stroke-linecap:round;stroke-linejoin:round;stroke-dasharray:none;stroke-opacity:1;paint-order:stroke fill markers"
       id="path6164-69"
       sodipodi:type="arc"
       sodipodi:cx="66.077614"
       sodipodi:cy="81.330261"
       sodipodi:rx="0.75485724"
       sodipodi:ry="0.75485724"
       sodipodi:start="0"
       sodipodi:end="6.2808117"
       sodipodi:open="true"
       sodipodi:arc-type="chord"
       d="m 66.832471,81.330261 a 0.75485724,0.75485724 0 0 1 -0.754409,0.754857 0.75485724,0.75485724 0 0 1 -0.755305,-0.753961 0.75485724,0.75485724 0 0 1 0.753513,-0.755752 0.75485724,0.75485724 0 0 1 0.756199,0.753064 z" />
    <path
       style="opacity:0.937695;fill:none;fill-opacity:1;stroke:#ababab;stroke-width:0.264583;stroke-linecap:round;stroke-linejoin:round;stroke-dasharray:none;stroke-opacity:1;paint-order:stroke fill markers"
       id="path6164-45"
       sodipodi:type="arc"
       sodipodi:cx="63.327023"
       sodipodi:cy="63.01553"
       sodipodi:rx="0.75485724"
       sodipodi:ry="0.75485724"
       sodipodi:start="0"
       sodipodi:end="6.2808117"
       sodipodi:open="true"
       sodipodi:arc-type="chord"
       d="m 64.08188,63.01553 a 0.75485724,0.75485724 0 0 1 -0.75441,0.754857 0.75485724,0.75485724 0 0 1 -0.755304,-0.753962 0.75485724,0.75485724 0 0 1 0.753513,-0.755751 0.75485724,0.75485724 0 0 1 0.756199,0.753064 z" />
    <path
       style="opacity:0.937695;fill:none;fill-opacity:1;stroke:#ababab;stroke-width:0.264583;stroke-linecap:round;stroke-linejoin:round;stroke-dasharray:none;stroke-opacity:1;paint-order:stroke fill markers"
       id="path6164-25"
       sodipodi:type="arc"
       sodipodi:cx="61.128078"
       sodipodi:cy="78.316399"
       sodipodi:rx="0.75485724"
       sodipodi:ry="0.75485724"
       sodipodi:start="0"
       sodipodi:end="6.2808117"
       sodipodi:open="true"
       sodipodi:arc-type="chord"
       d="m 61.882936,78.316399 a 0.75485724,0.75485724 0 0 1 -0.75441,0.754857 0.75485724,0.75485724 0 0 1 -0.755304,-0.753962 0.75485724,0.75485724 0 0 1 0.753513,-0.755751 0.75485724,0.75485724 0 0 1 0.756199,0.753064 z" />
    <path
       style="opacity:0.937695;fill:none;fill-opacity:1;stroke:#ababab;stroke-width:0.264583;stroke-linecap:round;stroke-linejoin:round;stroke-dasharray:none;stroke-opacity:1;paint-order:stroke fill markers"
       id="path6164-474"
       sodipodi:type="arc"
       sodipodi:cx="68.870201"
       sodipodi:cy="93.767914"
       sodipodi:rx="0.75485724"
       sodipodi:ry="0.75485724"
       sodipodi:start="0"
       sodipodi:end="6.2808117"
       sodipodi:open="true"
       sodipodi:arc-type="chord"
       d="m 69.625058,93.767914 a 0.75485724,0.75485724 0 0 1 -0.754409,0.754857 0.75485724,0.75485724 0 0 1 -0.755305,-0.753961 0.75485724,0.75485724 0 0 1 0.753513,-0.755752 0.75485724,0.75485724 0 0 1 0.756199,0.753064 z" />
    <path
       style="opacity:0.937695;fill:none;fill-opacity:1;stroke:#000000;stroke-width:0.396875;stroke-linecap:round;stroke-linejoin:round;stroke-dasharray:none;stroke-opacity:1;paint-order:stroke fill markers"
       id="path6164-43"
       sodipodi:type="arc"
       sodipodi:cx="108.9613"
       sodipodi:cy="60.614094"
       sodipodi:rx="0.75485724"
       sodipodi:ry="0.75485724"
       sodipodi:start="0"
       sodipodi:end="6.2808117"
       sodipodi:open="true"
       sodipodi:arc-type="chord"
       d="m 109.71616,60.614094 a 0.75485724,0.75485724 0 0 1 -0.75441,0.754857 0.75485724,0.75485724 0 0 1 -0.7553,-0.753961 0.75485724,0.75485724 0 0 1 0.75351,-0.755752 0.75485724,0.75485724 0 0 1 0.7562,0.753064 z" />
    <path
       style="opacity:0.937695;fill:none;fill-opacity:1;stroke:#000000;stroke-width:0.26458333;stroke-linecap:round;stroke-linejoin:round;stroke-dasharray:none;stroke-opacity:1;paint-order:stroke fill markers"
       id="path6164-07"
       sodipodi:type="arc"
       sodipodi:cx="130.29276"
       sodipodi:cy="89.673027"
       sodipodi:rx="0.75485724"
       sodipodi:ry="0.75485724"
       sodipodi:start="0"
       sodipodi:end="6.2808117"
       sodipodi:open="true"
       sodipodi:arc-type="chord"
       d="m 131.04761,89.673027 a 0.75485724,0.75485724 0 0 1 -0.75441,0.754857 0.75485724,0.75485724 0 0 1 -0.7553,-0.753961 0.75485724,0.75485724 0 0 1 0.75351,-0.755752 0.75485724,0.75485724 0 0 1 0.7562,0.753064 z" />
    <text
       xml:space="preserve"
       style="font-size:3.70417px;line-height:1;font-family:EuropeanTypewriter;-inkscape-font-specification:EuropeanTypewriter;stroke-width:0.264583"
       x="123.37005"
       y="69.452599"
       id="text6611-1"><tspan
         sodipodi:role="line"
         id="tspan6609-7"
         style="font-style:normal;font-variant:normal;font-weight:normal;font-stretch:normal;font-size:3.70417px;font-family:sans-serif;-inkscape-font-specification:sans-serif;stroke-width:0.264583"
         x="123.37005"
         y="69.452599">house</tspan></text>
    <text
       xml:space="preserve"
       style="font-size:3.70417px;line-height:1;font-family:EuropeanTypewriter;-inkscape-font-specification:EuropeanTypewriter;stroke-width:0.264583"
       x="103.39938"
       y="51.382126"
       id="text6611-1-7"><tspan
         sodipodi:role="line"
         id="tspan6609-7-2"
         style="font-style:normal;font-variant:normal;font-weight:normal;font-stretch:normal;font-size:3.70417px;font-family:sans-serif;-inkscape-font-specification:sans-serif;stroke-width:0.264583"
         x="103.39938"
         y="51.382126">grill</tspan></text>
    <path
       style="fill:none;stroke:#000000;stroke-width:0.211667;stroke-linecap:butt;stroke-linejoin:miter;stroke-dasharray:0.846667, 0.211667;stroke-dashoffset:0;stroke-opacity:1"
       d="M 130.27974,44.126567 C 114.70355,61.06684 99.127366,78.007103 83.551196,94.947352"
       id="path7498"
       inkscape:path-effect="#path-effect7500"
       inkscape:original-d="M 130.27974,44.126567 C 114.70382,61.067093 99.127641,78.007356 83.551196,94.947352"
       sodipodi:nodetypes="cc" />
    <text
       xml:space="preserve"
       style="font-size:4.7625px;line-height:1;font-family:EuropeanTypewriter;-inkscape-font-specification:EuropeanTypewriter;stroke-width:0.264583"
       x="128.83879"
       y="55.307049"
       id="text7504"><tspan
         sodipodi:role="line"
         id="tspan7502"
         style="font-size:4.7625px;stroke-width:0.264583"
         x="128.83879"
         y="55.307049">--1</tspan></text>
    <text
       xml:space="preserve"
       style="font-size:4.7625px;line-height:1;font-family:EuropeanTypewriter;-inkscape-font-specification:EuropeanTypewriter;stroke-width:0.264583"
       x="118.55876"
       y="45.933895"
       id="text7508"><tspan
         sodipodi:role="line"
         id="tspan7506"
         style="font-size:4.7625px;stroke-width:0.264583"
         x="118.55876"
         y="45.933895">+1</tspan></text>
  </g>
</svg>
