<?xml version="1.0" encoding="UTF-8" standalone="no"?>
<!-- Created with Inkscape (http://www.inkscape.org/) -->

<svg
   width="407.52899"
   height="392.11948"
   viewBox="0 0 107.82537 103.74827"
   version="1.1"
   id="svg5"
   sodipodi:docname="scoring-1.svg"
   inkscape:version="1.2.2 (b0a8486541, 2022-12-01)"
   inkscape:export-filename="scoring-1.png"
   inkscape:export-xdpi="150"
   inkscape:export-ydpi="150"
   xmlns:inkscape="http://www.inkscape.org/namespaces/inkscape"
   xmlns:sodipodi="http://sodipodi.sourceforge.net/DTD/sodipodi-0.dtd"
   xmlns="http://www.w3.org/2000/svg"
   xmlns:svg="http://www.w3.org/2000/svg">
  <sodipodi:namedview
     id="namedview8216"
     pagecolor="#ffffff"
     bordercolor="#666666"
     borderopacity="1.0"
     inkscape:showpageshadow="2"
     inkscape:pageopacity="0.0"
     inkscape:pagecheckerboard="0"
     inkscape:deskcolor="#d1d1d1"
     inkscape:document-units="mm"
     showgrid="false"
     inkscape:zoom="1.917527"
     inkscape:cx="208.08051"
     inkscape:cy="178.09397"
     inkscape:window-width="1781"
     inkscape:window-height="1048"
     inkscape:window-x="779"
     inkscape:window-y="32"
     inkscape:window-maximized="0"
     inkscape:current-layer="layer1" />
  <defs
     id="defs2" />
  <g
     id="layer1"
     transform="translate(-51.94278,-3.4329469)">
    <rect
       style="opacity:0.937695;fill:#ffffff;fill-opacity:1;stroke:none;stroke-width:0.396875;stroke-linecap:round;stroke-linejoin:round;stroke-dasharray:none;stroke-dashoffset:0;stroke-opacity:1;paint-order:stroke fill markers"
       id="rect7562"
       width="107.82531"
       height="103.74821"
       x="51.94278"
       y="3.4329469"
       ry="1.7782483"
       sodipodi:insensitive="true" />
    <g
       id="g5796"
       transform="translate(5.6417255,-9.3599751)">
      <rect
         style="opacity:0.937695;fill:#15202b;fill-opacity:1;stroke:#15202b;stroke-width:0.79375;stroke-linecap:round;stroke-linejoin:round;stroke-opacity:1;paint-order:stroke fill markers"
         id="rect234"
         width="63.247219"
         height="8.9203663"
         x="67.734665"
         y="16.800732"
         ry="0.69643092" />
      <rect
         style="opacity:0.937695;fill:#15202b;fill-opacity:1;stroke:#15202b;stroke-width:0.79375;stroke-linecap:round;stroke-linejoin:round;stroke-opacity:1;paint-order:stroke fill markers"
         id="rect234-3"
         width="63.247219"
         height="8.9203663"
         x="67.734665"
         y="28.556873"
         ry="0.69643092" />
      <rect
         style="opacity:0.937695;fill:#f91880;fill-opacity:1;stroke:#f91880;stroke-width:0.79375;stroke-linecap:round;stroke-linejoin:round;stroke-opacity:1;paint-order:stroke fill markers"
         id="rect234-3-6"
         width="3.6608486"
         height="8.9203663"
         x="67.734665"
         y="28.556873"
         ry="0.69643092" />
      <rect
         style="opacity:0.937695;fill:#ef7d31;fill-opacity:1;stroke:#ef7d31;stroke-width:0.79375;stroke-linecap:round;stroke-linejoin:round;stroke-opacity:1;paint-order:stroke fill markers"
         id="rect234-3-6-7"
         width="26.182402"
         height="8.9203663"
         x="67.734665"
         y="16.800732"
         ry="0.69643092" />
      <text
         xml:space="preserve"
         style="font-size:3.70417px;line-height:1;font-family:EuropeanTypewriter;-inkscape-font-specification:EuropeanTypewriter;fill:#ffffff;fill-opacity:1;stroke-width:0.264583"
         x="75.02523"
         y="22.641838"
         id="text4814"><tspan
           id="tspan4812"
           style="font-style:normal;font-variant:normal;font-weight:normal;font-stretch:normal;font-size:3.70417px;font-family:sans-serif;-inkscape-font-specification:sans-serif;fill:#ffffff;fill-opacity:1;stroke-width:0.264583"
           x="75.02523"
           y="22.641838">house</tspan></text>
      <text
         xml:space="preserve"
         style="font-size:3.70417px;line-height:1;font-family:EuropeanTypewriter;-inkscape-font-specification:EuropeanTypewriter;fill:#ffffff;fill-opacity:1;stroke-width:0.264583"
         x="75.02523"
         y="34.39798"
         id="text4814-5"><tspan
           id="tspan4812-3"
           style="font-style:normal;font-variant:normal;font-weight:normal;font-stretch:normal;font-size:3.70417px;font-family:sans-serif;-inkscape-font-specification:sans-serif;fill:#ffffff;fill-opacity:1;stroke-width:0.264583"
           x="75.02523"
           y="34.39798">blue</tspan></text>
      <text
         xml:space="preserve"
         style="font-size:3.70417px;line-height:1;font-family:EuropeanTypewriter;-inkscape-font-specification:EuropeanTypewriter;fill:#ffffff;fill-opacity:1;stroke-width:0.264583"
         x="119.53667"
         y="34.39798"
         id="text4814-5-5"><tspan
           id="tspan4812-3-6"
           style="font-style:normal;font-variant:normal;font-weight:normal;font-stretch:normal;font-size:3.70417px;font-family:sans-serif;-inkscape-font-specification:sans-serif;fill:#ffffff;fill-opacity:1;stroke-width:0.264583"
           x="119.53667"
           y="34.39798">5625</tspan></text>
      <text
         xml:space="preserve"
         style="font-size:3.70417px;line-height:1;font-family:EuropeanTypewriter;-inkscape-font-specification:EuropeanTypewriter;fill:#ffffff;fill-opacity:1;stroke-width:0.264583"
         x="121.80295"
         y="22.609283"
         id="text4814-5-5-2"><tspan
           id="tspan4812-3-6-9"
           style="font-style:normal;font-variant:normal;font-weight:normal;font-stretch:normal;font-size:3.70417px;font-family:sans-serif;-inkscape-font-specification:sans-serif;fill:#ffffff;fill-opacity:1;stroke-width:0.264583"
           x="121.80295"
           y="22.609283">846</tspan></text>
    </g>
    <path
       style="opacity:0.937695;fill:none;fill-opacity:1;stroke:#999999;stroke-width:0.264583;stroke-linecap:round;stroke-linejoin:round;stroke-dasharray:none;stroke-opacity:1;paint-order:stroke fill markers"
       id="path6164"
       d="m 95.167768,81.009117 a 0.75485724,0.75485724 0 0 1 -0.75441,0.754857 0.75485724,0.75485724 0 0 1 -0.755304,-0.753961 0.75485724,0.75485724 0 0 1 0.753513,-0.755752 0.75485724,0.75485724 0 0 1 0.756199,0.753064 z" />
    <path
       style="opacity:0.937695;fill:none;fill-opacity:1;stroke:#000000;stroke-width:0.264583;stroke-linecap:round;stroke-linejoin:round;stroke-dasharray:none;stroke-opacity:1;paint-order:stroke fill markers"
       id="path6164-9"
       d="m 98.25398,87.061478 a 0.75485724,0.75485724 0 0 1 -0.754409,0.754857 0.75485724,0.75485724 0 0 1 -0.755305,-0.753961 0.75485724,0.75485724 0 0 1 0.753513,-0.755752 0.75485724,0.75485724 0 0 1 0.756199,0.753064 z" />
    <path
       style="opacity:0.937695;fill:none;fill-opacity:1;stroke:#000000;stroke-width:0.264583;stroke-linecap:round;stroke-linejoin:round;stroke-dasharray:none;stroke-opacity:1;paint-order:stroke fill markers"
       id="path6164-2"
       d="m 101.59768,63.052021 a 0.75485724,0.75485724 0 0 1 -0.75441,0.754857 0.75485724,0.75485724 0 0 1 -0.75531,-0.753961 0.75485724,0.75485724 0 0 1 0.75352,-0.755752 0.75485724,0.75485724 0 0 1 0.75619,0.753064 z" />
    <path
       style="opacity:0.937695;fill:none;fill-opacity:1;stroke:#000000;stroke-width:0.264583;stroke-linecap:round;stroke-linejoin:round;stroke-dasharray:none;stroke-opacity:1;paint-order:stroke fill markers"
       id="path6164-0"
       d="m 140.33027,96.429375 a 0.75485724,0.75485724 0 0 1 -0.75441,0.754857 0.75485724,0.75485724 0 0 1 -0.75531,-0.753961 0.75485724,0.75485724 0 0 1 0.75352,-0.755752 0.75485724,0.75485724 0 0 1 0.75619,0.753064 z" />
    <path
       style="opacity:0.937695;fill:none;fill-opacity:1;stroke:#000000;stroke-width:0.264583;stroke-linecap:round;stroke-linejoin:round;stroke-dasharray:none;stroke-opacity:1;paint-order:stroke fill markers"
       id="path6164-23"
       d="m 151.6211,53.414841 a 0.75485724,0.75485724 0 0 1 -0.75441,0.754857 0.75485724,0.75485724 0 0 1 -0.75531,-0.753961 0.75485724,0.75485724 0 0 1 0.75352,-0.755752 0.75485724,0.75485724 0 0 1 0.7562,0.753064 z" />
    <path
       style="opacity:0.937695;fill:none;fill-opacity:1;stroke:#999999;stroke-width:0.264583;stroke-linecap:round;stroke-linejoin:round;stroke-dasharray:none;stroke-opacity:1;paint-order:stroke fill markers"
       id="path6164-7"
       d="m 90.948514,72.987473 a 0.75485724,0.75485724 0 0 1 -0.754409,0.754857 0.75485724,0.75485724 0 0 1 -0.755305,-0.753962 0.75485724,0.75485724 0 0 1 0.753513,-0.755752 0.75485724,0.75485724 0 0 1 0.756199,0.753065 z" />
    <path
       style="opacity:0.937695;fill:none;fill-opacity:1;stroke:#999999;stroke-width:0.264583;stroke-linecap:round;stroke-linejoin:round;stroke-dasharray:none;stroke-opacity:1;paint-order:stroke fill markers"
       id="path6164-5"
       d="m 75.490842,82.584167 a 0.75485724,0.75485724 0 0 1 -0.754409,0.754858 0.75485724,0.75485724 0 0 1 -0.755305,-0.753962 0.75485724,0.75485724 0 0 1 0.753513,-0.755752 0.75485724,0.75485724 0 0 1 0.756199,0.753065 z" />
    <path
       style="opacity:0.937695;fill:none;fill-opacity:1;stroke:#000000;stroke-width:0.264583;stroke-linecap:round;stroke-linejoin:round;stroke-dasharray:none;stroke-opacity:1;paint-order:stroke fill markers"
       id="path6164-92"
       d="m 127.37338,83.110352 a 0.75485724,0.75485724 0 0 1 -0.75441,0.754857 0.75485724,0.75485724 0 0 1 -0.7553,-0.753962 0.75485724,0.75485724 0 0 1 0.75351,-0.755751 0.75485724,0.75485724 0 0 1 0.7562,0.753064 z" />
    <path
       style="opacity:0.937695;fill:none;fill-opacity:1;stroke:#000000;stroke-width:0.264583;stroke-linecap:round;stroke-linejoin:round;stroke-dasharray:none;stroke-opacity:1;paint-order:stroke fill markers"
       id="path6164-28"
       d="m 112.57673,58.205639 a 0.75485724,0.75485724 0 0 1 -0.75441,0.754857 0.75485724,0.75485724 0 0 1 -0.7553,-0.753961 0.75485724,0.75485724 0 0 1 0.75351,-0.755752 0.75485724,0.75485724 0 0 1 0.7562,0.753064 z" />
    <path
       style="opacity:0.937695;fill:none;fill-opacity:1;stroke:#000000;stroke-width:0.264583;stroke-linecap:round;stroke-linejoin:round;stroke-dasharray:none;stroke-opacity:1;paint-order:stroke fill markers"
       id="path6164-97"
       d="m 129.87183,45.36557 a 0.75485724,0.75485724 0 0 1 -0.75441,0.754857 0.75485724,0.75485724 0 0 1 -0.7553,-0.753961 0.75485724,0.75485724 0 0 1 0.75351,-0.755752 0.75485724,0.75485724 0 0 1 0.7562,0.753064 z" />
    <path
       style="opacity:0.937695;fill:none;fill-opacity:1;stroke:#000000;stroke-width:0.264583;stroke-linecap:round;stroke-linejoin:round;stroke-dasharray:none;stroke-opacity:1;paint-order:stroke fill markers"
       id="path6164-3"
       d="m 138.34581,94.760628 a 0.75485724,0.75485724 0 0 1 -0.7544,0.754857 0.75485724,0.75485724 0 0 1 -0.75531,-0.753961 0.75485724,0.75485724 0 0 1 0.75351,-0.755752 0.75485724,0.75485724 0 0 1 0.7562,0.753064 z" />
    <path
       style="opacity:0.937695;fill:none;fill-opacity:1;stroke:#999999;stroke-width:0.264583;stroke-linecap:round;stroke-linejoin:round;stroke-dasharray:none;stroke-opacity:1;paint-order:stroke fill markers"
       id="path6164-6"
       d="m 91.059102,94.060204 a 0.75485724,0.75485724 0 0 1 -0.754409,0.754857 0.75485724,0.75485724 0 0 1 -0.755305,-0.753962 0.75485724,0.75485724 0 0 1 0.753513,-0.755751 0.75485724,0.75485724 0 0 1 0.756199,0.753064 z" />
    <path
       style="opacity:0.937695;fill:none;fill-opacity:1;stroke:#ef7d31;stroke-width:0.396875;stroke-linecap:round;stroke-linejoin:round;stroke-dasharray:none;stroke-opacity:1;paint-order:stroke fill markers"
       id="path6164-1"
       d="m 122.6815,70.110764 a 0.75485724,0.75485724 0 0 1 -0.75441,0.754857 0.75485724,0.75485724 0 0 1 -0.7553,-0.753962 0.75485724,0.75485724 0 0 1 0.75351,-0.755751 0.75485724,0.75485724 0 0 1 0.7562,0.753064 z" />
    <path
       style="opacity:0.937695;fill:none;fill-opacity:1;stroke:#000000;stroke-width:0.264583;stroke-linecap:round;stroke-linejoin:round;stroke-dasharray:none;stroke-opacity:1;paint-order:stroke fill markers"
       id="path6164-29"
       d="m 123.5705,54.353756 a 0.75485724,0.75485724 0 0 1 -0.75441,0.754857 0.75485724,0.75485724 0 0 1 -0.7553,-0.753961 0.75485724,0.75485724 0 0 1 0.75351,-0.755752 0.75485724,0.75485724 0 0 1 0.7562,0.753064 z" />
    <path
       style="opacity:0.937695;fill:none;fill-opacity:1;stroke:#999999;stroke-width:0.264583;stroke-linecap:round;stroke-linejoin:round;stroke-dasharray:none;stroke-opacity:1;paint-order:stroke fill markers"
       id="path6164-31"
       d="m 75.755826,89.839622 a 0.75485724,0.75485724 0 0 1 -0.754409,0.754858 0.75485724,0.75485724 0 0 1 -0.755305,-0.753962 0.75485724,0.75485724 0 0 1 0.753513,-0.755752 0.75485724,0.75485724 0 0 1 0.756199,0.753065 z" />
    <path
       style="opacity:0.937695;fill:none;fill-opacity:1;stroke:#999999;stroke-width:0.264583;stroke-linecap:round;stroke-linejoin:round;stroke-dasharray:none;stroke-opacity:1;paint-order:stroke fill markers"
       id="path6164-78"
       d="m 56.290834,82.148232 a 0.75485724,0.75485724 0 0 1 -0.75441,0.754857 0.75485724,0.75485724 0 0 1 -0.755304,-0.753962 0.75485724,0.75485724 0 0 1 0.753513,-0.755752 0.75485724,0.75485724 0 0 1 0.756199,0.753065 z" />
    <path
       style="opacity:0.937695;fill:none;fill-opacity:1;stroke:#999999;stroke-width:0.264583;stroke-linecap:round;stroke-linejoin:round;stroke-dasharray:none;stroke-opacity:1;paint-order:stroke fill markers"
       id="path6164-4"
       d="m 77.699216,75.603615 a 0.75485724,0.75485724 0 0 1 -0.754409,0.754857 0.75485724,0.75485724 0 0 1 -0.755305,-0.753961 0.75485724,0.75485724 0 0 1 0.753513,-0.755752 0.75485724,0.75485724 0 0 1 0.756199,0.753064 z" />
    <path
       style="opacity:0.937695;fill:none;fill-opacity:1;stroke:#000000;stroke-width:0.264583;stroke-linecap:round;stroke-linejoin:round;stroke-dasharray:none;stroke-opacity:1;paint-order:stroke fill markers"
       id="path6164-50"
       d="m 145.78754,83.120872 a 0.75485724,0.75485724 0 0 1 -0.75441,0.754858 0.75485724,0.75485724 0 0 1 -0.7553,-0.753962 0.75485724,0.75485724 0 0 1 0.75351,-0.755752 0.75485724,0.75485724 0 0 1 0.7562,0.753065 z" />
    <path
       style="opacity:0.937695;fill:none;fill-opacity:1;stroke:#999999;stroke-width:0.264583;stroke-linecap:round;stroke-linejoin:round;stroke-dasharray:none;stroke-opacity:1;paint-order:stroke fill markers"
       id="path6164-36"
       d="m 83.418904,54.374702 a 0.75485724,0.75485724 0 0 1 -0.754409,0.754858 0.75485724,0.75485724 0 0 1 -0.755304,-0.753962 0.75485724,0.75485724 0 0 1 0.753512,-0.755752 0.75485724,0.75485724 0 0 1 0.756199,0.753065 z" />
    <path
       style="opacity:0.937695;fill:none;fill-opacity:1;stroke:#999999;stroke-width:0.264583;stroke-linecap:round;stroke-linejoin:round;stroke-dasharray:none;stroke-opacity:1;paint-order:stroke fill markers"
       id="path6164-10"
       d="m 73.139684,88.386703 a 0.75485724,0.75485724 0 0 1 -0.754409,0.754858 0.75485724,0.75485724 0 0 1 -0.755305,-0.753962 0.75485724,0.75485724 0 0 1 0.753513,-0.755752 0.75485724,0.75485724 0 0 1 0.756199,0.753065 z" />
    <path
       style="opacity:0.937695;fill:none;fill-opacity:1;stroke:#000000;stroke-width:0.264583;stroke-linecap:round;stroke-linejoin:round;stroke-dasharray:none;stroke-opacity:1;paint-order:stroke fill markers"
       id="path6164-63"
       d="m 107.56359,53.983494 a 0.75485724,0.75485724 0 0 1 -0.75441,0.754857 0.75485724,0.75485724 0 0 1 -0.75531,-0.753961 0.75485724,0.75485724 0 0 1 0.75352,-0.755752 0.75485724,0.75485724 0 0 1 0.7562,0.753064 z" />
    <path
       style="opacity:0.937695;fill:none;fill-opacity:1;stroke:#f91880;stroke-width:0.264583;stroke-linecap:round;stroke-linejoin:round;stroke-dasharray:none;stroke-opacity:1;paint-order:stroke fill markers"
       id="path6164-61"
       d="m 74.129682,64.99527 a 0.75485724,0.75485724 0 0 1 -0.75441,0.754857 0.75485724,0.75485724 0 0 1 -0.755304,-0.753961 0.75485724,0.75485724 0 0 1 0.753513,-0.755752 0.75485724,0.75485724 0 0 1 0.756199,0.753064 z" />
    <path
       style="opacity:0.937695;fill:none;fill-opacity:1;stroke:#999999;stroke-width:0.264583;stroke-linecap:round;stroke-linejoin:round;stroke-dasharray:none;stroke-opacity:1;paint-order:stroke fill markers"
       id="path6164-55"
       d="m 76.828557,44.409828 a 0.75485724,0.75485724 0 0 1 -0.754409,0.754857 0.75485724,0.75485724 0 0 1 -0.755305,-0.753961 0.75485724,0.75485724 0 0 1 0.753513,-0.755752 0.75485724,0.75485724 0 0 1 0.756199,0.753064 z" />
    <path
       style="opacity:0.937695;fill:none;fill-opacity:1;stroke:#000000;stroke-width:0.264583;stroke-linecap:round;stroke-linejoin:round;stroke-dasharray:none;stroke-opacity:1;paint-order:stroke fill markers"
       id="path6164-47"
       d="m 157.22732,68.84317 a 0.75485724,0.75485724 0 0 1 -0.75441,0.754857 0.75485724,0.75485724 0 0 1 -0.75531,-0.753961 0.75485724,0.75485724 0 0 1 0.75351,-0.755752 0.75485724,0.75485724 0 0 1 0.7562,0.753064 z" />
    <path
       style="opacity:0.937695;fill:none;fill-opacity:1;stroke:#000000;stroke-width:0.264583;stroke-linecap:round;stroke-linejoin:round;stroke-dasharray:none;stroke-opacity:1;paint-order:stroke fill markers"
       id="path6164-65"
       d="m 114.09053,65.751152 a 0.75485724,0.75485724 0 0 1 -0.75441,0.754857 0.75485724,0.75485724 0 0 1 -0.75531,-0.753961 0.75485724,0.75485724 0 0 1 0.75352,-0.755752 0.75485724,0.75485724 0 0 1 0.7562,0.753064 z" />
    <path
       style="opacity:0.937695;fill:none;fill-opacity:1;stroke:#999999;stroke-width:0.264583;stroke-linecap:round;stroke-linejoin:round;stroke-dasharray:none;stroke-opacity:1;paint-order:stroke fill markers"
       id="path6164-69"
       d="m 66.832471,81.330261 a 0.75485724,0.75485724 0 0 1 -0.754409,0.754857 0.75485724,0.75485724 0 0 1 -0.755305,-0.753961 0.75485724,0.75485724 0 0 1 0.753513,-0.755752 0.75485724,0.75485724 0 0 1 0.756199,0.753064 z" />
    <path
       style="opacity:0.937695;fill:none;fill-opacity:1;stroke:#999999;stroke-width:0.264583;stroke-linecap:round;stroke-linejoin:round;stroke-dasharray:none;stroke-opacity:1;paint-order:stroke fill markers"
       id="path6164-45"
       d="m 64.08188,63.01553 a 0.75485724,0.75485724 0 0 1 -0.75441,0.754857 0.75485724,0.75485724 0 0 1 -0.755304,-0.753962 0.75485724,0.75485724 0 0 1 0.753513,-0.755751 0.75485724,0.75485724 0 0 1 0.756199,0.753064 z" />
    <path
       style="opacity:0.937695;fill:none;fill-opacity:1;stroke:#999999;stroke-width:0.264583;stroke-linecap:round;stroke-linejoin:round;stroke-dasharray:none;stroke-opacity:1;paint-order:stroke fill markers"
       id="path6164-25"
       d="m 61.882936,78.316399 a 0.75485724,0.75485724 0 0 1 -0.75441,0.754857 0.75485724,0.75485724 0 0 1 -0.755304,-0.753962 0.75485724,0.75485724 0 0 1 0.753513,-0.755751 0.75485724,0.75485724 0 0 1 0.756199,0.753064 z" />
    <path
       style="opacity:0.937695;fill:none;fill-opacity:1;stroke:#999999;stroke-width:0.264583;stroke-linecap:round;stroke-linejoin:round;stroke-dasharray:none;stroke-opacity:1;paint-order:stroke fill markers"
       id="path6164-474"
       d="m 69.625058,93.767914 a 0.75485724,0.75485724 0 0 1 -0.754409,0.754857 0.75485724,0.75485724 0 0 1 -0.755305,-0.753961 0.75485724,0.75485724 0 0 1 0.753513,-0.755752 0.75485724,0.75485724 0 0 1 0.756199,0.753064 z" />
    <path
       style="opacity:0.937695;fill:none;fill-opacity:1;stroke:#000000;stroke-width:0.264583;stroke-linecap:round;stroke-linejoin:round;stroke-dasharray:none;stroke-opacity:1;paint-order:stroke fill markers"
       id="path6164-43"
       d="m 109.71616,60.614094 a 0.75485724,0.75485724 0 0 1 -0.75441,0.754857 0.75485724,0.75485724 0 0 1 -0.7553,-0.753961 0.75485724,0.75485724 0 0 1 0.75351,-0.755752 0.75485724,0.75485724 0 0 1 0.7562,0.753064 z" />
    <path
       style="opacity:0.937695;fill:none;fill-opacity:1;stroke:#000000;stroke-width:0.264583;stroke-linecap:round;stroke-linejoin:round;stroke-dasharray:none;stroke-opacity:1;paint-order:stroke fill markers"
       id="path6164-07"
       d="m 131.04761,89.673027 a 0.75485724,0.75485724 0 0 1 -0.75441,0.754857 0.75485724,0.75485724 0 0 1 -0.7553,-0.753961 0.75485724,0.75485724 0 0 1 0.75351,-0.755752 0.75485724,0.75485724 0 0 1 0.7562,0.753064 z" />
    <text
       xml:space="preserve"
       style="font-size:3.70417px;line-height:1;font-family:EuropeanTypewriter;-inkscape-font-specification:EuropeanTypewriter;stroke-width:0.264583"
       x="73.758369"
       y="63.509304"
       id="text6611"><tspan
         id="tspan6609"
         style="font-style:normal;font-variant:normal;font-weight:normal;font-stretch:normal;font-size:3.70417px;font-family:sans-serif;-inkscape-font-specification:sans-serif;stroke-width:0.264583"
         x="73.758369"
         y="63.509304">blue</tspan></text>
    <text
       xml:space="preserve"
       style="font-size:3.70417px;line-height:1;font-family:EuropeanTypewriter;-inkscape-font-specification:EuropeanTypewriter;stroke-width:0.264583"
       x="123.37005"
       y="69.452599"
       id="text6611-1"><tspan
         id="tspan6609-7"
         style="font-style:normal;font-variant:normal;font-weight:normal;font-stretch:normal;font-size:3.70417px;font-family:sans-serif;-inkscape-font-specification:sans-serif;stroke-width:0.264583"
         x="123.37005"
         y="69.452599">house</tspan></text>
    <path
       style="fill:none;stroke:#000000;stroke-width:0.211667;stroke-linecap:butt;stroke-linejoin:miter;stroke-dasharray:0.846667, 0.211667;stroke-dashoffset:0;stroke-opacity:1"
       d="M 103.50525,32.837915 C 99.602203,57.095266 95.69919,81.352403 91.796213,105.60932"
       id="path7498" />
    <text
       xml:space="preserve"
       style="font-size:4.7625px;line-height:1;font-family:EuropeanTypewriter;-inkscape-font-specification:EuropeanTypewriter;stroke-width:0.264583"
       x="94.745079"
       y="41.106216"
       id="text7504"><tspan
         id="tspan7502"
         style="font-size:4.7625px;stroke-width:0.264583"
         x="94.745079"
         y="41.106216">--1</tspan></text>
    <text
       xml:space="preserve"
       style="font-size:4.7625px;line-height:1;font-family:EuropeanTypewriter;-inkscape-font-specification:EuropeanTypewriter;stroke-width:0.264583"
       x="104.58462"
       y="41.106216"
       id="text7508"><tspan
         id="tspan7506"
         style="font-size:4.7625px;stroke-width:0.264583"
         x="104.58462"
         y="41.106216">+1</tspan></text>
  </g>
</svg>
