<svg width="117" height="40" viewBox="0 0 117 40" fill="none" xmlns="http://www.w3.org/2000/svg">
<path d="M41.85 26.1667C41.143 26.1838 40.441 26.043 39.7952 25.7547C39.1494 25.4664 38.576 25.0378 38.1167 24.5C37.1423 23.3797 36.6247 21.9341 36.6667 20.45C36.6157 18.9609 37.1309 17.5078 38.1083 16.3833C38.568 15.846 39.1415 15.4177 39.7872 15.1294C40.4329 14.8411 41.1347 14.7002 41.8417 14.7167C42.4799 14.6835 43.1166 14.8057 43.6972 15.0728C44.2778 15.3399 44.7849 15.7438 45.175 16.25V10.3333C45.1679 10.2879 45.1716 10.2415 45.1858 10.1978C45.2001 10.1541 45.2244 10.1144 45.2569 10.0819C45.2894 10.0494 45.3291 10.0251 45.3728 10.0108C45.4165 9.99659 45.4629 9.99288 45.5083 10H47.9333C47.9787 9.99288 48.0252 9.99659 48.0689 10.0108C48.1126 10.0251 48.1523 10.0494 48.1848 10.0819C48.2173 10.1144 48.2416 10.1541 48.2558 10.1978C48.2701 10.2415 48.2738 10.2879 48.2667 10.3333V25.5667C48.2667 25.7917 48.15 25.9 47.9083 25.9H45.7833C45.7379 25.9071 45.6915 25.9034 45.6478 25.8892C45.6041 25.8749 45.5644 25.8506 45.5319 25.8181C45.4994 25.7856 45.4751 25.7459 45.4608 25.7022C45.4466 25.6585 45.4429 25.6121 45.45 25.5667L45.4083 24.3667C45.0221 24.9493 44.491 25.4216 43.8672 25.7372C43.2434 26.0527 42.5483 26.2007 41.85 26.1667ZM40.4667 22.5667C40.7288 22.8373 41.0439 23.0509 41.3924 23.1943C41.7408 23.3377 42.115 23.4077 42.4917 23.4C42.8625 23.4101 43.2312 23.341 43.5732 23.1973C43.9153 23.0536 44.2227 22.8386 44.475 22.5667C44.976 21.9752 45.2509 21.2251 45.2509 20.45C45.2509 19.6749 44.976 18.9248 44.475 18.3333C44.223 18.0609 43.9157 17.8457 43.5736 17.7019C43.2315 17.5582 42.8626 17.4893 42.4917 17.5C42.1146 17.4898 41.7397 17.5586 41.3909 17.7022C41.0421 17.8457 40.7273 18.0607 40.4667 18.3333C40.1922 18.6065 39.9766 18.9331 39.8333 19.2928C39.69 19.6526 39.6219 20.0379 39.6333 20.425C39.617 20.8202 39.6826 21.2144 39.826 21.583C39.9694 21.9516 40.1875 22.2865 40.4667 22.5667Z" fill="#CAD0E5"/>
<path d="M56.2667 26.1667C55.4722 26.1922 54.6807 26.0578 53.9392 25.7715C53.1976 25.4852 52.5212 25.0528 51.95 24.5C51.3991 23.9586 50.9665 23.3087 50.6796 22.5915C50.3927 21.8743 50.2578 21.1054 50.2833 20.3333C50.2582 19.5883 50.3832 18.8457 50.6509 18.15C50.9186 17.4542 51.3236 16.8194 51.8417 16.2833C52.3649 15.7435 52.996 15.3198 53.6937 15.0399C54.3915 14.7599 55.1404 14.6299 55.8917 14.6583C56.5983 14.6234 57.3041 14.7424 57.9603 15.0071C58.6164 15.2719 59.2072 15.6761 59.6917 16.1917C60.1717 16.6938 60.5454 17.2878 60.7902 17.9379C61.0351 18.588 61.1461 19.2809 61.1167 19.975C61.1312 20.4011 61.0335 20.8235 60.8333 21.2C60.7334 21.3483 60.5959 21.4673 60.4348 21.5449C60.2737 21.6226 60.0949 21.6559 59.9167 21.6417H53.3333C53.6722 23.0639 54.7472 23.775 56.5583 23.775C57.4357 23.776 58.2979 23.5461 59.0583 23.1083C59.0879 23.0862 59.122 23.0709 59.1581 23.0636C59.1943 23.0562 59.2316 23.0569 59.2675 23.0657C59.3033 23.0744 59.3368 23.091 59.3655 23.1142C59.3941 23.1375 59.4173 23.1668 59.4333 23.2L60.2667 24.3333C60.3833 24.5 60.35 24.6583 60.1583 24.825C59.634 25.3001 59.0188 25.6639 58.3499 25.8945C57.6811 26.1251 56.9723 26.2177 56.2667 26.1667ZM53.2417 19.45H58.3833C58.3253 18.8212 58.0268 18.239 57.55 17.825C57.0803 17.4433 56.4881 17.2449 55.8833 17.2667C55.2503 17.2441 54.629 17.4414 54.125 17.825C53.6407 18.2396 53.3262 18.8181 53.2417 19.45Z" fill="#CAD0E5"/>
<path d="M68.5 26.1667C67.7055 26.1922 66.914 26.0578 66.1725 25.7715C65.431 25.4852 64.7545 25.0528 64.1833 24.5C63.6324 23.9586 63.1998 23.3087 62.9129 22.5915C62.6261 21.8743 62.4911 21.1054 62.5167 20.3333C62.4915 19.5883 62.6166 18.8457 62.8843 18.15C63.152 17.4542 63.5569 16.8194 64.075 16.2833C64.5983 15.7435 65.2293 15.3198 65.9271 15.0399C66.6248 14.7599 67.3737 14.6299 68.125 14.6583C68.8317 14.6234 69.5375 14.7424 70.1936 15.0071C70.8497 15.2719 71.4405 15.6761 71.925 16.1917C72.4021 16.6952 72.7727 17.2898 73.0146 17.9398C73.2566 18.5899 73.365 19.2821 73.3333 19.975C73.3604 20.4136 73.2683 20.8513 73.0667 21.2417C72.9604 21.3849 72.818 21.4975 72.654 21.5677C72.4901 21.638 72.3104 21.6635 72.1333 21.6417H65.4667C65.8111 23.0639 66.8861 23.775 68.6917 23.775C69.5691 23.776 70.4313 23.5461 71.1917 23.1083C71.2212 23.0862 71.2553 23.0709 71.2915 23.0636C71.3276 23.0562 71.3649 23.0569 71.4008 23.0657C71.4366 23.0744 71.4701 23.091 71.4988 23.1142C71.5275 23.1375 71.5506 23.1668 71.5667 23.2L72.4 24.3333C72.5167 24.5 72.4833 24.6583 72.2917 24.825C71.7794 25.2876 71.1806 25.6444 70.5299 25.8746C69.8791 26.1049 69.1893 26.2041 68.5 26.1667ZM65.475 19.45H70.6167C70.5587 18.8212 70.2601 18.239 69.7833 17.825C69.3137 17.4433 68.7215 17.2449 68.1167 17.2667C67.4837 17.2441 66.8623 17.4414 66.3583 17.825C65.8715 18.2376 65.5565 18.8171 65.475 19.45Z" fill="#CAD0E5"/>
<path d="M75.6333 30.8083C75.5879 30.8155 75.5415 30.8117 75.4978 30.7975C75.4541 30.7833 75.4144 30.7589 75.3819 30.7264C75.3494 30.6939 75.3251 30.6542 75.3108 30.6105C75.2966 30.5668 75.2929 30.5204 75.3 30.475V15.3417C75.2929 15.2963 75.2966 15.2498 75.3108 15.2061C75.3251 15.1624 75.3494 15.1227 75.3819 15.0902C75.4144 15.0577 75.4541 15.0334 75.4978 15.0192C75.5415 15.0049 75.5879 15.0012 75.6333 15.0083H77.8333C77.8787 15.0012 77.9252 15.0049 77.9689 15.0192C78.0126 15.0334 78.0523 15.0577 78.0848 15.0902C78.1172 15.1227 78.1416 15.1624 78.1558 15.2061C78.1701 15.2498 78.1738 15.2963 78.1667 15.3417V16.5417C78.5462 15.9523 79.0759 15.4749 79.7014 15.1585C80.3269 14.8421 81.0254 14.6982 81.725 14.7417C82.4293 14.7265 83.1282 14.8681 83.771 15.1564C84.4139 15.4447 84.9845 15.8723 85.4417 16.4083C86.4199 17.5324 86.9351 18.9858 86.8833 20.475C86.934 21.9716 86.4193 23.4324 85.4417 24.5667C84.9845 25.1027 84.4139 25.5303 83.771 25.8186C83.1282 26.1069 82.4293 26.2485 81.725 26.2333C81.0772 26.2654 80.4313 26.1404 79.8422 25.8691C79.2531 25.5978 78.7383 25.1881 78.3417 24.675V30.5583C78.3488 30.6037 78.3451 30.6502 78.3308 30.6939C78.3166 30.7376 78.2922 30.7773 78.2598 30.8098C78.2273 30.8423 78.1876 30.8666 78.1439 30.8808C78.1002 30.8951 78.0537 30.8988 78.0083 30.8917H75.5917L75.6333 30.8083ZM81.125 23.3083C81.4982 23.3176 81.8692 23.2483 82.2137 23.1047C82.5583 22.9611 82.8688 22.7465 83.125 22.475C83.401 22.1977 83.6173 21.8669 83.7606 21.5029C83.9039 21.1388 83.9712 20.7493 83.9583 20.3583C83.9697 19.9712 83.9017 19.5859 83.7584 19.2262C83.615 18.8664 83.3995 18.5399 83.125 18.2667C82.8705 17.993 82.5603 17.777 82.2153 17.6333C81.8703 17.4895 81.4985 17.4214 81.125 17.4333C80.7479 17.4226 80.3728 17.4912 80.0239 17.6348C79.6751 17.7783 79.3603 17.9936 79.1 18.2667C78.6097 18.8631 78.3417 19.6113 78.3417 20.3833C78.3417 21.1554 78.6097 21.9036 79.1 22.5C79.3573 22.7791 79.6708 23.0006 80.0198 23.15C80.3688 23.2993 80.7454 23.3732 81.125 23.3667V23.3083Z" fill="#CAD0E5"/>
<path d="M92.4167 26.1667C91.6438 26.1982 90.8739 26.0524 90.1661 25.7404C89.4584 25.4284 88.8314 24.9585 88.3333 24.3667C88.2 24.2 88.2167 23.9917 88.3333 23.725L89.1083 22.6333C89.1331 22.5841 89.1693 22.5414 89.2137 22.5087C89.2582 22.4761 89.3097 22.4544 89.3642 22.4455C89.4186 22.4365 89.4744 22.4406 89.5269 22.4573C89.5795 22.474 89.6274 22.5029 89.6667 22.5417C90.365 23.1546 91.2409 23.5284 92.1667 23.6083C93 23.6083 93.3917 23.3083 93.3917 22.7C93.3936 22.5829 93.3709 22.4668 93.3249 22.3591C93.279 22.2514 93.2109 22.1546 93.125 22.075C92.8795 21.8575 92.5974 21.6854 92.2917 21.5667L90.9167 21.0083C89.3333 20.3833 88.5333 19.3917 88.5333 18.025C88.5163 17.5651 88.6087 17.1078 88.8028 16.6906C88.9969 16.2734 89.2873 15.9082 89.65 15.625C90.4154 15.0222 91.3678 14.7067 92.3417 14.7333C93.037 14.7137 93.7276 14.8537 94.3603 15.1426C94.9931 15.4315 95.5511 15.8617 95.9917 16.4C96.0508 16.4633 96.0838 16.5467 96.0838 16.6333C96.0838 16.72 96.0508 16.8034 95.9917 16.8667L95 18.0417C94.8667 18.2083 94.7 18.2083 94.4917 18.0417C93.9569 17.5165 93.2552 17.1952 92.5083 17.1333C92.2289 17.1146 91.9526 17.2008 91.7333 17.375C91.6475 17.4546 91.5793 17.5514 91.5334 17.6591C91.4874 17.7668 91.4647 17.8829 91.4667 18C91.4667 18.4583 91.8167 18.8333 92.5083 19.0667L94.0417 19.6667C95.7083 20.3333 96.525 21.3861 96.4917 22.825C96.509 23.3077 96.4088 23.7874 96.1998 24.2229C95.9908 24.6584 95.6791 25.0366 95.2917 25.325C94.4505 25.9111 93.4411 26.2066 92.4167 26.1667Z" fill="#CAD0E5"/>
<path d="M103.9 26.1667C103.106 26.1922 102.314 26.0578 101.572 25.7715C100.831 25.4852 100.155 25.0528 99.5833 24.5C99.0324 23.9586 98.5998 23.3087 98.313 22.5915C98.0261 21.8743 97.8911 21.1054 97.9167 20.3333C97.8915 19.5883 98.0166 18.8457 98.2843 18.15C98.552 17.4542 98.9569 16.8194 99.475 16.2833C99.9986 15.7439 100.63 15.3205 101.327 15.0406C102.025 14.7607 102.774 14.6304 103.525 14.6583C104.232 14.6234 104.937 14.7424 105.594 15.0071C106.25 15.2719 106.84 15.6761 107.325 16.1917C107.805 16.6938 108.179 17.2878 108.424 17.9379C108.668 18.588 108.779 19.2809 108.75 19.975C108.777 20.4136 108.685 20.8513 108.483 21.2417C108.377 21.3849 108.235 21.4975 108.071 21.5677C107.907 21.638 107.727 21.6635 107.55 21.6417H100.925C101.269 23.0639 102.344 23.775 104.15 23.775C105.027 23.776 105.89 23.5461 106.65 23.1083C106.68 23.0862 106.714 23.0709 106.75 23.0636C106.786 23.0562 106.823 23.0569 106.859 23.0657C106.895 23.0744 106.928 23.091 106.957 23.1142C106.986 23.1375 107.009 23.1668 107.025 23.2L107.858 24.3333C107.975 24.5 107.942 24.6583 107.75 24.825C107.231 25.2949 106.622 25.6557 105.961 25.8862C105.3 26.1166 104.599 26.212 103.9 26.1667ZM100.875 19.45H106.017C105.959 18.8212 105.66 18.239 105.183 17.825C104.714 17.4433 104.121 17.2449 103.517 17.2667C102.884 17.2441 102.262 17.4414 101.758 17.825C101.272 18.2376 100.956 18.8171 100.875 19.45Z" fill="#CAD0E5"/>
<path d="M114.817 26.1667C113.958 26.2025 113.114 25.9339 112.433 25.4083C112.108 25.0991 111.858 24.7202 111.701 24.3002C111.543 23.8801 111.483 23.4299 111.525 22.9833V17.375H110.15C110.105 17.3821 110.058 17.3784 110.014 17.3642C109.971 17.3499 109.931 17.3256 109.899 17.2931C109.866 17.2606 109.842 17.2209 109.827 17.1772C109.813 17.1335 109.81 17.0871 109.817 17.0417V15.325C109.81 15.2796 109.813 15.2332 109.827 15.1895C109.842 15.1458 109.866 15.1061 109.899 15.0736C109.931 15.0411 109.971 15.0167 110.014 15.0025C110.058 14.9883 110.105 14.9845 110.15 14.9917H111.525V12.475C111.518 12.4296 111.522 12.3832 111.536 12.3395C111.55 12.2958 111.574 12.2561 111.607 12.2236C111.639 12.1911 111.679 12.1667 111.723 12.1525C111.766 12.1383 111.813 12.1345 111.858 12.1417H114.283C114.329 12.1345 114.375 12.1383 114.419 12.1525C114.463 12.1667 114.502 12.1911 114.535 12.2236C114.567 12.2561 114.592 12.2958 114.606 12.3395C114.62 12.3832 114.624 12.4296 114.617 12.475V14.975H116.333C116.379 14.9679 116.425 14.9716 116.469 14.9858C116.513 15.0001 116.552 15.0244 116.585 15.0569C116.617 15.0894 116.642 15.1291 116.656 15.1728C116.67 15.2165 116.674 15.2629 116.667 15.3083V17.0583C116.674 17.1037 116.67 17.1502 116.656 17.1939C116.642 17.2376 116.617 17.2773 116.585 17.3098C116.552 17.3423 116.513 17.3666 116.469 17.3808C116.425 17.3951 116.379 17.3988 116.333 17.3917H114.617V22.6667C114.595 22.7974 114.605 22.9314 114.645 23.0576C114.686 23.1837 114.756 23.2984 114.85 23.3921C114.943 23.4858 115.058 23.5558 115.184 23.5963C115.31 23.6368 115.444 23.6467 115.575 23.625C115.858 23.625 116.083 23.625 116.267 23.625C116.45 23.625 116.667 23.7 116.667 23.9333V25.6C116.667 25.9583 116.05 26.1667 114.817 26.1667Z" fill="#CAD0E5"/>
<path d="M18.7917 26.6417H17.0417C16.9924 26.6417 16.9437 26.632 16.8982 26.6131C16.8527 26.5943 16.8113 26.5667 16.7765 26.5318C16.7417 26.497 16.7141 26.4557 16.6952 26.4102C16.6764 26.3647 16.6667 26.3159 16.6667 26.2667V21.85C16.6667 21.7947 16.6447 21.7418 16.6056 21.7027C16.5666 21.6636 16.5136 21.6417 16.4583 21.6417H0.375001C0.275544 21.6417 0.180161 21.6022 0.109835 21.5318C0.0395085 21.4615 0 21.3661 0 21.2667V5.375C0 5.27554 0.0395085 5.18016 0.109835 5.10983C0.180161 5.03951 0.275544 5 0.375001 5H18.7917C18.8409 5 18.8897 5.0097 18.9352 5.02855C18.9807 5.04739 19.022 5.07501 19.0568 5.10983C19.0917 5.14466 19.1193 5.186 19.1381 5.23149C19.157 5.27699 19.1667 5.32575 19.1667 5.375V18.9583C19.1667 19.0136 19.1886 19.0666 19.2277 19.1056C19.2668 19.1447 19.3197 19.1667 19.375 19.1667H32.125C32.1742 19.1667 32.223 19.1764 32.2685 19.1952C32.314 19.2141 32.3553 19.2417 32.3902 19.2765C32.425 19.3113 32.4526 19.3527 32.4715 19.3982C32.4903 19.4437 32.5 19.4924 32.5 19.5417V21.2917C32.5 21.3911 32.4605 21.4865 32.3902 21.5568C32.3198 21.6272 32.2245 21.6667 32.125 21.6667H19.375C19.3197 21.6667 19.2668 21.6886 19.2277 21.7277C19.1886 21.7668 19.1667 21.8197 19.1667 21.875V26.2917C19.1603 26.3867 19.118 26.4758 19.0484 26.5408C18.9787 26.6058 18.8869 26.6419 18.7917 26.6417ZM2.66667 19.1417H16.5C16.5442 19.1417 16.5866 19.1241 16.6178 19.0929C16.6491 19.0616 16.6667 19.0192 16.6667 18.975V7.66667C16.6667 7.62246 16.6491 7.58007 16.6178 7.54882C16.5866 7.51756 16.5442 7.5 16.5 7.5H2.66667C2.62246 7.5 2.58007 7.51756 2.54882 7.54882C2.51756 7.58007 2.5 7.62246 2.5 7.66667V19C2.50603 19.0397 2.52621 19.076 2.55684 19.102C2.58747 19.128 2.62647 19.1421 2.66667 19.1417Z" fill="#CAD0E5"/>
<path d="M17.9167 35C19.5275 35 20.8333 33.6942 20.8333 32.0833C20.8333 30.4725 19.5275 29.1667 17.9167 29.1667C16.3058 29.1667 15 30.4725 15 32.0833C15 33.6942 16.3058 35 17.9167 35Z" fill="#CAD0E5"/>
</svg>
