<?xml version="1.0" encoding="UTF-8" standalone="no"?>
<svg
   version="1.1"
   width="82"
   height="25"
   id="svg14"
   xmlns="http://www.w3.org/2000/svg"
   xmlns:svg="http://www.w3.org/2000/svg">
  <defs
     id="defs14" />
  <path
     d="m 59.273054,9.9479813 c 0.36741,0.3126867 0.36741,0.3126867 0.625373,0.6253717 0.06965,0.07223 0.139305,0.144462 0.211063,0.218882 0.470682,0.806873 0.456716,1.803931 0.453401,2.71255 0.0018,0.109716 0.004,0.219433 0.0061,0.332474 0.0011,1.171841 -0.229105,2.173024 -1.04872,3.036231 -0.430638,0.354895 -0.930112,0.578958 -1.497959,0.578958 0,0.206372 0,0.412744 0,0.625372 0.330201,0.04126 0.660394,0.08255 1.000602,0.125074 0,0.371471 0,0.742943 0,1.125672 -0.257891,0.01023 -0.515889,0.01744 -0.773906,0.02346 -0.215478,0.0066 -0.215478,0.0066 -0.435317,0.01319 -0.455774,-0.04007 -0.680062,-0.138357 -1.042123,-0.411872 -0.287102,-0.492173 -0.272118,-0.940563 -0.25015,-1.50089 -0.108828,-0.02975 -0.108828,-0.02975 -0.219856,-0.0601 -0.831498,-0.248352 -1.369766,-0.535461 -1.882961,-1.261004 -0.370614,-0.760737 -0.305674,-1.55995 -0.310514,-2.391072 -0.0014,-0.171746 -0.0039,-0.343486 -0.0077,-0.515199 -0.02497,-1.159806 -0.0085,-1.981064 0.750106,-2.900408 1.309806,-1.0777238 2.923947,-1.2279187 4.422552,-0.3766897 z m -3.502076,1.6259677 c -0.207161,0.621484 -0.158644,1.264426 -0.164164,1.915203 -0.0036,0.141156 -0.0073,0.282312 -0.01098,0.427743 -0.0061,0.797693 -0.0041,1.312963 0.550376,1.909584 0.564738,0.376492 1.03869,0.40813 1.704141,0.30487 0.547685,-0.233274 0.718325,-0.43648 1.047501,-0.930241 0.306377,-1.083955 0.29479,-2.627229 -0.134851,-3.676992 -0.247516,-0.430016 -0.535121,-0.548713 -0.990825,-0.700613 -0.862626,-0.05566 -1.422334,0.05583 -2.001183,0.750446 z"
     fill="#cad0e5"
     id="path1"
     style="stroke-width:0.125074" />
  <path
     d="m 76.033773,9.549551 c 0.08339,1e-5 0.166761,2e-5 0.252687,3e-5 0.25059,-2.8e-4 0.501206,-0.0026 0.751808,-0.0049 1.244204,-0.0019 2.496604,0.03381 3.431971,0.961754 0.936679,1.163987 0.796489,2.916791 0.651762,4.324351 -0.171654,1.014523 -0.622138,1.641882 -1.461802,2.246454 -0.588255,0.246405 -1.124801,0.28369 -1.753987,0.274577 -0.09331,-3.72e-4 -0.186657,-7.73e-4 -0.282813,-9.67e-4 -0.295611,-0.0013 -0.591198,-0.0044 -0.886816,-0.0078 -0.201469,-0.0012 -0.402913,-0.0024 -0.60437,-0.0034 -0.491686,-0.0027 -0.98334,-0.0071 -1.475006,-0.01221 0,-0.412746 0,-0.825491 0,-1.250745 0.330204,-0.04127 0.660389,-0.08255 1.000604,-0.125074 0.04124,-1.650982 0.08255,-3.301964 0.125082,-5.002977 -0.330211,0 -0.660395,0 -1.000611,0 -0.125075,-0.125074 -0.125075,-0.125074 -0.141687,-0.379131 4.06e-4,-0.101898 6.06e-4,-0.203794 0.0013,-0.308779 -4.07e-4,-0.101898 -6e-4,-0.203793 -0.0013,-0.3087767 0.0422,-0.645491 0.903797,-0.4001023 1.393178,-0.4023393 z m 1.249999,1.399026 c 0,1.650983 0,3.301964 0,5.002978 1.097127,0.07997 1.097127,0.07997 1.876112,-0.375223 0.550081,-0.603144 0.434815,-1.272219 0.429962,-2.048094 0.0025,-0.140591 0.0053,-0.281184 0.0075,-0.426036 -5.38e-4,-0.788221 -0.0073,-1.318365 -0.56259,-1.903476 -0.631036,-0.261938 -1.044444,-0.250149 -1.751043,-0.250149 z"
     fill="#cad0e5"
     id="path2"
     style="stroke-width:0.125074" />
  <path
     d="m 33.507723,9.572758 c 3.627162,0 3.627162,0 4.877908,0.3752233 0.590074,0.5900807 0.892807,0.9425827 0.914604,1.7823117 -0.0074,0.807376 -0.273278,1.188738 -0.820803,1.766676 -0.108341,0.100606 -0.108341,0.100606 -0.218877,0.203246 0.100606,0.05676 0.201214,0.113505 0.304864,0.171977 0.320509,0.203246 0.320509,0.203246 0.445585,0.453394 0.01055,0.226814 0.0134,0.454013 0.01217,0.681071 -4.01e-4,0.134626 -7.74e-4,0.269253 -0.0013,0.407958 -0.0015,0.211611 -0.0015,0.211611 -0.0031,0.427499 -5.35e-4,0.142042 -0.0011,0.284086 -0.0017,0.430432 -0.0015,0.351612 -0.0037,0.703221 -0.0061,1.054828 -0.495294,0 -0.990589,0 -1.500893,0 -0.0076,-0.188156 -0.01516,-0.376307 -0.02296,-0.570164 -0.0105,-0.245101 -0.02115,-0.490201 -0.03176,-0.735301 -0.0048,-0.124228 -0.0098,-0.248454 -0.01492,-0.376445 -0.0054,-0.118099 -0.01049,-0.2362 -0.01589,-0.357879 -0.0045,-0.109384 -0.0091,-0.218766 -0.0139,-0.331464 0.0016,-0.254402 0.0016,-0.254402 -0.150754,-0.380386 -0.167617,-0.01948 -0.33615,-0.03133 -0.504695,-0.03958 -0.0911,-0.0047 -0.182211,-0.0095 -0.276075,-0.01444 -0.116398,-0.0055 -0.232792,-0.01079 -0.352719,-0.01634 -0.368891,-0.01806 -0.737781,-0.03611 -1.117853,-0.05473 0,0.949316 0,1.898631 0,2.876715 -0.495294,0 -0.990588,0 -1.50089,0 0,-2.559025 0,-5.118047 0,-7.754617 z m 1.500897,1.375819 c 0,0.701668 0,1.403336 0,2.126266 0.5069,0.01935 0.5069,0.01935 1.024045,0.03908 0.15797,0.0086 0.15797,0.0086 0.319129,0.01725 0.527756,0.0097 0.727421,-0.01347 1.161246,-0.347528 0.299734,-0.405178 0.320698,-0.591242 0.247221,-1.084629 -0.06051,-0.287845 -0.06051,-0.287845 -0.250154,-0.500301 -0.571651,-0.239888 -1.056637,-0.27741 -1.672874,-0.265783 -0.273439,0.0053 -0.546881,0.01032 -0.828613,0.01563 z"
     fill="#cad0e5"
     id="path3"
     style="stroke-width:0.125074" />
  <path
     d="m 0.98837193,9.572758 c 0.49529437,0 0.99058987,0 1.50089347,0 0,1.073139 0,2.146279 0,3.251937 0.9080404,0 1.8160809,0 2.7516371,0 -0.00141,-0.224272 -0.00291,-0.44854 -0.00438,-0.679606 -0.0011,-0.292001 -0.00238,-0.584005 -0.00342,-0.876009 -9.68e-4,-0.148088 -0.00213,-0.296177 -0.00316,-0.448753 -4.272e-4,-0.140672 -7.745e-4,-0.281344 -0.00116,-0.426278 -7.745e-4,-0.130344 -0.00129,-0.260687 -0.002,-0.3949807 C 5.2409805,9.697833 5.2409805,9.697833 5.3660558,9.572758 5.5950871,9.560428 5.8246037,9.556538 6.0539655,9.557128 6.179079,9.556781 6.3041926,9.556444 6.433097,9.556186 c 0.3087782,0.01661 0.3087782,0.01661 0.4338524,0.141685 0.011739,0.2379473 0.014689,0.476332 0.014198,0.714567 -9.6e-6,0.15274 -1.93e-5,0.30548 -2.84e-5,0.462848 -7.1e-4,0.167921 -0.00122,0.335841 -0.002,0.503761 -2.537e-4,0.170878 -4.402e-4,0.341756 -5.738e-4,0.512633 -5.06e-4,0.450518 -0.00175,0.90103 -0.0031,1.351546 -0.00122,0.459408 -0.00187,0.91882 -0.00244,1.378231 -0.00135,0.901988 -0.00354,1.80397 -0.00607,2.705955 -0.5365691,0 -1.0731382,0 -1.6259678,0 0,-1.031864 0,-2.063727 0,-3.12686 -0.9080402,0 -1.8160806,0 -2.7516373,0 0,1.031864 0,2.063726 0,3.12686 -0.4952947,0 -0.9905894,0 -1.50089327,0 0,-2.559024 0,-5.118046 0,-7.754615 z"
     fill="#cad0e5"
     id="path4"
     style="stroke-width:0.125074" />
  <path
     d="m 52.492653,9.9562883 c 0.501778,0.3744797 0.72185,0.7773337 0.901903,1.3675127 0.0269,0.34074 0.01805,0.657843 0,1.000594 -0.495292,0 -0.990585,0 -1.500886,0 -0.08256,-0.412744 -0.165101,-0.825491 -0.250153,-1.250743 -0.596958,-0.14924 -1.138849,-0.197158 -1.751038,-0.125075 -0.352879,0.175214 -0.352879,0.175214 -0.5003,0.500298 0.01796,0.400182 0.01796,0.400182 0.125069,0.750446 0.197936,0.07325 0.395998,0.146127 0.594107,0.21888 0.187912,0.06941 0.187912,0.06941 0.379618,0.140221 0.26183,0.09194 0.526065,0.177348 0.792469,0.255035 0.851372,0.250531 1.570875,0.526685 2.111114,1.261981 0.27484,0.62642 0.305623,1.195038 0.125076,1.852666 -0.279138,0.694173 -0.743263,1.020925 -1.402686,1.349434 -0.867854,0.360447 -1.965823,0.31982 -2.860594,0.06499 -0.713902,-0.324795 -1.102016,-0.714867 -1.490143,-1.390964 -0.120157,-0.360478 -0.138312,-0.587663 -0.132886,-0.961511 0.0011,-0.101092 0.0023,-0.202181 0.0034,-0.306334 0.0014,-0.0769 0.0028,-0.153813 0.0042,-0.233049 0.226686,-0.0033 0.453388,-0.0058 0.680093,-0.0079 0.126245,-0.0014 0.252482,-0.0028 0.382551,-0.0043 0.313175,0.01221 0.313175,0.01221 0.438251,0.137288 0.04319,0.291619 0.08479,0.583482 0.125077,0.875521 0.04127,0.123823 0.08255,0.247647 0.125076,0.375222 0.706671,0.252384 1.394658,0.340084 2.126259,0.125076 0.315904,-0.263976 0.462464,-0.459317 0.500297,-0.875522 -0.0672,-0.263084 -0.0672,-0.263084 -0.250144,-0.500297 -0.338947,-0.152926 -0.338947,-0.152926 -0.742627,-0.25015 -0.145593,-0.04126 -0.291185,-0.08255 -0.441184,-0.125074 -0.145915,-0.04127 -0.291822,-0.08255 -0.442162,-0.125074 -1.76179,-0.563038 -1.76179,-0.563038 -2.227889,-1.414874 -0.213048,-0.661612 -0.214074,-1.116945 -0.01562,-1.782324 0.377322,-0.669432 0.822859,-1.057939 1.532163,-1.352368 1.088787,-0.18454 2.092883,-0.1468685 3.061393,0.4304333 z"
     fill="#cad0e5"
     id="path5"
     style="stroke-width:0.125074" />
  <path
     d="m 9.368359,9.572758 c 0.866765,0 1.73353,0 2.626559,0 0.24544,0.91852 0.49022,1.837211 0.733847,2.756213 0.113165,0.426748 0.226609,0.853414 0.340713,1.279912 0.131241,0.490617 0.261228,0.981558 0.391159,1.472526 0.04104,0.152713 0.08206,0.305429 0.124354,0.462773 0.03757,0.142687 0.07514,0.285372 0.113826,0.432382 0.03334,0.125263 0.06665,0.250523 0.101,0.37958 0.07123,0.345856 0.07123,0.345856 0.07123,0.97123 -0.495302,0 -0.990595,0 -1.500895,0 -0.12383,-0.536569 -0.247647,-1.07314 -0.37523,-1.625969 -0.908035,0 -1.816076,0 -2.751633,0 -0.04127,0.330197 -0.08255,0.660395 -0.125075,1.000595 -0.123822,0.30956 -0.123822,0.30956 -0.250149,0.625374 -0.495294,0 -0.99059,0 -1.5008935,0 C 7.542767,16.406489 7.755866,15.502102 7.993031,14.595278 8.028471,14.458834 8.063911,14.322389 8.100424,14.181809 8.174784,13.895873 8.249312,13.609983 8.32401,13.324137 8.438664,12.885156 8.552633,12.446001 8.66653,12.006825 8.73904,11.728328 8.811593,11.449842 8.884188,11.171366 8.918308,11.039788 8.952458,10.90821 8.98763,10.772646 9.01936,10.651497 9.0511,10.530349 9.08379,10.40553 9.12557,10.245377 9.12557,10.245377 9.1682,10.081988 9.24329,9.822907 9.24329,9.822907 9.368359,9.572758 Z m 1.250744,1.000595 c -0.254798,0.713439 -0.46271,1.431549 -0.6488227,2.165352 -0.02237,0.08674 -0.04475,0.173482 -0.0678,0.262853 C 9.79853,13.418971 9.74357,13.766971 9.74357,14.200512 c 0.619119,0 1.238238,0 1.876117,0 -0.2638,-1.217228 -0.5276,-2.430521 -0.87552,-3.627159 -0.04128,0 -0.08255,0 -0.125074,0 z"
     fill="#cad0e5"
     id="path6"
     style="stroke-width:0.125074" />
  <path
     d="m 69.77931,9.572758 c 0.866771,0 1.733541,0 2.626566,0 0.509937,1.829188 1.015809,3.659496 1.500898,5.495459 0.03788,0.14048 0.07563,0.280961 0.114589,0.425698 0.03447,0.131512 0.06885,0.263025 0.104287,0.398523 0.03028,0.114462 0.06059,0.228925 0.09186,0.346855 0.06447,0.337633 0.06447,0.337633 0.06447,1.088081 -0.495295,0 -0.9906,0 -1.500906,0 -0.123811,-0.495297 -0.247641,-0.99059 -0.375214,-1.500895 -0.866764,0 -1.733533,0 -2.626564,0 -0.12383,0.495295 -0.24764,0.990591 -0.375227,1.500895 -0.4953,0 -0.990586,0 -1.500885,0 0.07546,-0.928212 0.277444,-1.78794 0.520327,-2.685682 0.03866,-0.145543 0.07737,-0.291086 0.117228,-0.441039 0.122869,-0.461465 0.246833,-0.922622 0.370857,-1.383777 0.08386,-0.314211 0.167659,-0.628446 0.25137,-0.9427 0.204594,-0.767368 0.410195,-1.534462 0.61633,-2.301418 z m 1.250742,1.000595 c -0.346648,1.202707 -0.680886,2.388597 -0.875528,3.627159 0.619123,0 1.238247,0 1.876118,0 -0.194615,-1.238562 -0.528867,-2.424452 -0.875508,-3.627159 -0.04123,0 -0.08256,0 -0.125082,0 z"
     fill="#cad0e5"
     id="path7"
     style="stroke-width:0.125074" />
  <path
     d="m 61.7081,9.556146 c 0.18767,5.07e-4 0.18767,5.07e-4 0.379125,9.43e-4 0.125125,-3.47e-4 0.250229,-6.85e-4 0.379145,-9.43e-4 0.308773,0.01661 0.308773,0.01661 0.433852,0.141687 0.01204,0.1733093 0.01563,0.347214 0.01577,0.52094 5.96e-4,0.165983 5.96e-4,0.165983 0.0012,0.335321 1.29e-4,0.120506 2.73e-4,0.241012 4.03e-4,0.365169 0.0024,0.253245 0.0049,0.506487 0.0074,0.75973 0.0037,0.400754 0.0064,0.801422 0.0065,1.202191 4.03e-4,0.385788 0.0049,0.771371 0.0097,1.157123 -0.0012,0.119493 -0.0018,0.238986 -0.0024,0.3621 0.01048,0.573675 0.02358,0.842123 0.377781,1.311624 0.420759,0.301465 0.693989,0.355548 1.209819,0.364599 0.480533,-0.110892 0.822697,-0.226725 1.125672,-0.625372 0.11515,-0.34542 0.143592,-0.565563 0.150756,-0.923006 0.0025,-0.110152 0.0053,-0.220303 0.0075,-0.333791 0.0032,-0.177662 0.0032,-0.177662 0.0065,-0.358913 0.0025,-0.121618 0.0059,-0.243238 0.0079,-0.368545 0.0082,-0.388677 0.01549,-0.777364 0.0229,-1.166058 0.0059,-0.263423 0.01079,-0.526845 0.01639,-0.790265 0.01342,-0.645964 0.02608,-1.291936 0.03834,-1.937922 0.495299,0 0.9906,0 1.500905,0 0.01233,0.798759 0.02149,1.597461 0.0275,2.396294 0.0025,0.271371 0.0065,0.542734 0.01032,0.814081 0.0065,0.391537 0.0089,0.782984 0.0111,1.17456 0.0025,0.120039 0.0059,0.240077 0.0079,0.363756 2.72e-4,0.891356 -0.151613,1.693876 -0.775912,2.366168 -0.694685,0.639277 -1.328298,0.808302 -2.266919,0.803915 -0.0853,0.002 -0.170574,0.0039 -0.258463,0.0061 -0.771169,8.41e-4 -1.31336,-0.219528 -1.969424,-0.631478 -0.811788,-0.811788 -0.927727,-1.800185 -0.931984,-2.903946 2.6e-4,-0.107904 5.27e-4,-0.215806 5.95e-4,-0.326981 -1.17e-4,-0.112465 -2.67e-4,-0.224928 -3.96e-4,-0.340799 -9.4e-5,-0.236412 1.17e-4,-0.472823 5.95e-4,-0.709234 5.96e-4,-0.363393 6e-6,-0.726765 -5.95e-4,-1.090157 8.6e-5,-0.229873 2.67e-4,-0.459745 5.33e-4,-0.68962 -2.66e-4,-0.109169 -5.33e-4,-0.218339 -5.96e-4,-0.330818 0.0037,-0.894374 0.0037,-0.894374 0.451224,-0.91846 z"
     fill="#cad0e5"
     id="path8"
     style="stroke-width:0.125074" />
  <path
     d="m 21.125353,9.572758 c 0.495302,0 0.990595,0 1.500896,0 0,1.031865 0,2.063728 0,3.126862 0.37965,-0.379649 0.724514,-0.728945 1.060691,-1.138374 0.07585,-0.09221 0.151717,-0.184446 0.229869,-0.279462 0.07716,-0.09449 0.154299,-0.188961 0.233781,-0.286304 0.0786,-0.09545 0.157201,-0.190895 0.238181,-0.289235 0.304352,-0.371076 0.597578,-0.7337977 0.864042,-1.133487 0.407464,-0.03664 0.407464,-0.03664 0.891158,-0.02345 0.240391,0.0051 0.240391,0.0051 0.48564,0.01026 0.123496,0.0044 0.247,0.0087 0.374241,0.01319 -0.07406,0.479697 -0.292522,0.743217 -0.601917,1.110035 -0.149945,0.179449 -0.149945,0.179449 -0.302918,0.362521 -0.24887,0.292182 -0.501124,0.581248 -0.754351,0.869658 -0.06839,0.07838 -0.13679,0.156754 -0.20725,0.237508 -0.135279,0.154638 -0.271441,0.308519 -0.408505,0.461578 -0.388133,0.416921 -0.388133,0.416921 -0.4767,0.961083 0.193679,0.287208 0.193679,0.287208 0.461218,0.594102 0.151633,0.181141 0.151633,0.181141 0.306331,0.365941 0.260547,0.304597 0.524976,0.605569 0.790513,0.905813 0.07333,0.08332 0.146658,0.16663 0.222212,0.252469 0.145519,0.16485 0.291892,0.328952 0.439163,0.492237 0.06728,0.07606 0.134566,0.152119 0.203885,0.230484 0.0603,0.06722 0.120603,0.134444 0.182731,0.203704 0.163773,0.233055 0.218607,0.42936 0.270665,0.707483 -0.63613,0.126698 -1.254718,0.217825 -1.876116,0 -0.602343,-0.459461 -1.021964,-1.109272 -1.442329,-1.731013 -0.192987,-0.283927 -0.393078,-0.561091 -0.597462,-0.836922 -0.06149,-0.08328 -0.122992,-0.16655 -0.186359,-0.252347 -0.04959,-0.0599 -0.09917,-0.119794 -0.150261,-0.181506 -0.04127,0 -0.08256,0 -0.125076,0 -0.04127,0.990592 -0.08256,1.981181 -0.125077,3.001788 -0.495293,0 -0.990586,0 -1.500896,0 0,-2.559024 0,-5.118047 0,-7.754616 z"
     fill="#cad0e5"
     id="path9"
     style="stroke-width:0.125074" />
  <path
     d="m 27.7543,9.572758 c 1.650979,0 3.301966,0 5.002975,0 0,0.454021 0,0.908041 0,1.375819 -1.155686,0 -2.311371,0 -3.502078,0 0,0.577844 0,1.155689 0,1.751043 1.031857,0 2.063725,0 3.12686,0 0,0.495294 0,0.990589 0,1.500892 -1.031869,0 -2.063726,0 -3.12686,0 0,0.577843 0,1.155688 0,1.751043 1.155685,0 2.311371,0 3.502078,0 0,0.45402 0,0.90804 0,1.375819 -1.650978,0 -3.301967,0 -5.002975,0 0,-2.559024 0,-5.118047 0,-7.754616 z"
     fill="#cad0e5"
     id="path10"
     style="stroke-width:0.125074" />
  <path
     d="m 19.374313,9.9479813 c 0.514573,0.4292217 0.791254,0.9979377 1.000592,1.6259677 0.02346,0.492482 0.02346,0.492482 0,0.87552 -0.495293,0 -0.990585,0 -1.500887,0 -0.04901,-0.177996 -0.09803,-0.355993 -0.148531,-0.539382 -0.130628,-0.384638 -0.200281,-0.561386 -0.500296,-0.844252 -0.673944,-0.224648 -1.146267,-0.216489 -1.774493,0.08598 -0.439352,0.397508 -0.552661,0.750028 -0.603873,1.340397 -0.01272,0.337911 -0.01488,0.674424 -0.01367,1.012564 -0.002,0.114555 -0.0039,0.229108 -0.0061,0.347132 -5.33e-4,0.712176 0.06899,1.224809 0.420416,1.849488 0.570615,0.380414 1.047748,0.405673 1.719772,0.304871 0.429842,-0.146661 0.429842,-0.146661 0.641004,-0.531568 0.162264,-0.429812 0.162264,-0.429812 0.265788,-1.024047 0.495292,0 0.990584,0 1.500887,0 0.05414,0.866222 -0.101572,1.532097 -0.648818,2.22007 -0.90945,0.727557 -1.703916,0.890314 -2.862548,0.837414 -0.785875,-0.08914 -1.384648,-0.323958 -1.947451,-0.886758 -0.736978,-0.940873 -0.715424,-2.001347 -0.716726,-3.14787 -0.003,-0.140671 -0.0061,-0.281344 -0.0093,-0.426278 -0.0034,-0.986384 0.09388,-1.93786 0.762323,-2.7124 1.203036,-1.1477421 3.015356,-1.2220053 4.421918,-0.3868577 z"
     fill="#cad0e5"
     id="path12"
     style="stroke-width:0.125074" />
  <path
     d="m 46.703565,9.560544 c 0.189364,0.0022 0.189364,0.0022 0.382552,0.0044 0.126568,0.0011 0.253127,0.0023 0.383529,0.0034 0.09787,0.0014 0.195734,0.0029 0.296563,0.0044 -0.208633,1.077924 -0.555518,2.106098 -0.899457,3.146403 -0.06388,0.194374 -0.12772,0.388761 -0.191519,0.583156 -0.13307,0.405043 -0.26651,0.809962 -0.40024,1.214789 -0.171673,0.519783 -0.342516,1.039831 -0.513099,1.559969 -0.131363,0.400304 -0.263107,0.800483 -0.394968,1.200621 -0.06318,0.191865 -0.126265,0.383762 -0.189247,0.575696 -0.08763,0.26686 -0.175758,0.533556 -0.264025,0.800211 -0.05008,0.151863 -0.100152,0.303727 -0.151738,0.46019 -0.122564,0.339851 -0.122564,0.339851 -0.247641,0.464917 -0.210888,0.0091 -0.42213,0.01048 -0.633192,0.0078 -0.172434,-0.0016 -0.172434,-0.0016 -0.348346,-0.0034 -0.08884,-0.0014 -0.177676,-0.0028 -0.269207,-0.0042 0.0662,-0.839273 0.237462,-1.56327 0.512516,-2.356869 0.03881,-0.115034 0.07761,-0.230068 0.117601,-0.348589 0.125072,-0.370126 0.25168,-0.739709 0.378297,-1.109311 0.128979,-0.380385 0.257563,-0.760901 0.386102,-1.141433 0.08462,-0.250451 0.169353,-0.50086 0.254221,-0.751226 0.374983,-1.107659 0.733238,-2.21991 1.081437,-3.336282 0.03513,-0.111813 0.07027,-0.223625 0.106477,-0.338824 0.04398,-0.141781 0.04398,-0.141781 0.08886,-0.2864257 C 46.309089,9.576417 46.335547,9.575082 46.703569,9.560729 Z"
     fill="#cad0e5"
     id="path13"
     style="stroke-width:0.125074" />
  <path
     d="m 42.388006,9.572758 c 0.454019,0 0.908039,0 1.375819,0 -0.0794,0.835022 -0.339288,1.593504 -0.603383,2.386674 -0.048,0.146112 -0.09603,0.292222 -0.145495,0.442761 -0.153572,0.466775 -0.308161,0.93321 -0.462778,1.399645 -0.101602,0.308349 -0.203149,0.616719 -0.304624,0.92511 -0.533057,1.618516 -1.070271,3.235655 -1.610578,4.851764 -0.454021,0 -0.90804,0 -1.375821,0 0.074,-0.631462 0.212186,-1.209748 0.414829,-1.813059 0.02931,-0.08918 0.05859,-0.178363 0.08878,-0.27025 0.09607,-0.291899 0.193195,-0.583442 0.290328,-0.874994 0.06718,-0.203434 0.134301,-0.406888 0.201364,-0.610365 0.175976,-0.533381 0.352836,-1.066465 0.529877,-1.599492 0.180789,-0.544809 0.360739,-1.089896 0.540753,-1.63496 0.352824,-1.067883 0.706587,-2.135455 1.06093,-3.202834 z"
     fill="#cad0e5"
     id="path14"
     style="stroke-width:0.125074" />
</svg>
