<svg width="76" height="40" viewBox="0 0 76 40" fill="none" xmlns="http://www.w3.org/2000/svg">
<path fill-rule="evenodd" clip-rule="evenodd" d="M18.1406 25.049L27.0334 16.0107L34.6101 23.5498L38.4981 19.6963L38.581 22.9328L25.9426 35.5304L24.3199 33.9189L26.39 31.9711L20.4889 25.9317L18.309 28.0338L18.1406 25.049Z" fill="#CAD0E5" stroke="#CAD0E5" stroke-width="0.148319" stroke-miterlimit="2.613"/>
<path fill-rule="evenodd" clip-rule="evenodd" d="M56.6877 13.4463H69.27V16.2768H67.2846V26.3657L75.0453 22.1198L75.0733 29.5325H56.6172V26.6034H58.6872L58.7005 16.2768H56.7018L56.6877 13.4463Z" fill="#CAD0E5" stroke="#CAD0E5" stroke-width="0.148319" stroke-miterlimit="2.613"/>
<path fill-rule="evenodd" clip-rule="evenodd" d="M25.9472 15.3526C28.6314 15.3526 30.8398 13.1387 30.8398 10.4336C30.8398 7.72981 28.6314 5.53027 25.9472 5.53027C23.235 5.53027 21.0391 7.72981 21.0391 10.4336C21.0391 13.1387 23.235 15.3526 25.9472 15.3526Z" fill="#CAD0E5" stroke="#CAD0E5" stroke-width="0.148319" stroke-miterlimit="2.613"/>
<path fill-rule="evenodd" clip-rule="evenodd" d="M0.144771 13.6299H12.7146V16.4596H10.742V26.5481L18.5027 22.303L18.5159 29.7149H0.0742188V26.8002H2.12984L2.14468 16.4596H0.131542L0.144771 13.6299Z" fill="#CAD0E5" stroke="#CAD0E5" stroke-width="0.148319" stroke-miterlimit="2.613"/>
<path fill-rule="evenodd" clip-rule="evenodd" d="M49.1661 29.5043H36.0655V26.6597H38.2879L38.2458 16.3748H36.0234V13.586H49.2351C53.0661 13.5724 56.1139 16.2485 56.1564 21.5163C56.1287 26.9548 52.745 29.5043 49.1661 29.5043ZM46.5505 24.5292C48.0758 24.5159 49.3481 23.6468 49.3614 21.3074C49.3614 19.0369 48.0477 18.0424 46.5798 18.0424L46.5505 24.5292Z" fill="#CAD0E5"/>
</svg>
