<svg width="123" height="40" viewBox="0 0 123 40" fill="none" xmlns="http://www.w3.org/2000/svg">
<g clip-path="url(#clip0_369_1581)">
<path d="M62.8401 20.4835C62.8065 19.6064 62.6489 18.6954 62.2894 17.8969C60.6026 14.1744 55.1944 14.062 52.9569 17.2896C51.3488 14.658 47.3799 14.2532 45.0862 16.2212L44.5012 16.8735V15.4902H40.0938V31.3024H44.5012V21.0796C44.5012 20.8997 44.67 20.3711 44.7486 20.1911C45.4685 18.5042 48.1217 18.4143 48.9426 20.0337C49.0551 20.2474 49.2462 20.7985 49.2462 21.0346V31.3024H53.654V21.372C53.6764 19.5276 55.2954 18.3693 57.0495 19.0778C57.668 19.3252 58.3875 20.2024 58.3875 20.8772V31.2461C58.3875 31.2461 58.4438 31.3136 58.455 31.3136H62.7726C62.8065 31.3136 62.8513 31.2124 62.8401 31.1674C62.7164 27.6361 62.9865 24.0148 62.8401 20.4948V20.4835Z" fill="#CAD0E5"/>
<path d="M95.447 15.8501C94.8285 16.2437 94.3676 16.7385 93.8955 17.2896C92.6246 14.9841 89.3189 14.4106 87.0591 15.5577C86.4182 15.8838 85.9346 16.3337 85.4625 16.8735V15.4902H81.0547V31.3023H85.4625V21.6194C85.2486 18.1443 90.2072 17.8632 90.2523 21.372V31.3023H94.6601V21.0795C94.6601 20.9221 94.8173 20.416 94.8848 20.2473C95.5931 18.5042 98.2579 18.3805 99.1126 20.0337C99.2136 20.2249 99.4159 20.7984 99.4159 20.9896V31.3023H103.824V20.0674C103.711 15.7939 99.0113 13.6121 95.4805 15.8501H95.447Z" fill="#CAD0E5"/>
<path d="M64.5745 19.6963C61.7521 25.8817 66.5757 32.7757 73.4684 31.6623C76.3806 31.19 78.8878 29.0532 79.63 26.1967H75.1998C74.7837 26.8827 74.3116 27.4899 73.5582 27.8273C71.2756 28.817 68.8132 27.3662 68.3861 24.9933H79.8212C79.8659 24.9708 79.8659 24.9371 79.8774 24.8921C80.1021 23.9699 80.0347 22.5079 79.8659 21.5632C78.5279 13.8933 67.8239 12.5775 64.5629 19.7188L64.5745 19.6963ZM68.3861 21.7207C68.8132 19.7863 70.2413 18.4593 72.31 18.628C73.873 18.7517 75.4022 20.1012 75.391 21.7207H68.3861Z" fill="#CAD0E5"/>
<path d="M121.77 15.7038C120.814 11.4415 117.969 8.04517 113.269 8.22509C105.05 8.52875 103.779 19.2801 105.668 25.398C106.984 29.6603 110.357 32.4269 115.001 31.6734C121.961 30.5375 123.018 21.2932 121.758 15.7151L121.77 15.7038ZM109.682 19.7412C109.682 19.1564 109.716 18.6278 109.761 18.1892C109.941 16.2211 110.706 12.971 113.112 12.7011C114.326 12.5661 115.214 12.9822 115.867 13.7245C116.092 13.9832 116.215 14.1181 116.294 14.4217C116.328 14.5455 116.339 14.7704 116.328 14.9053C116.294 15.2202 116.148 15.4452 115.867 15.8838L112.887 20.4609C112.134 21.6081 111.763 22.1929 111.099 22.2379C110.818 22.2603 110.425 22.1366 110.2 21.968C109.671 21.5631 109.682 20.967 109.694 19.7637L109.682 19.7412ZM117.475 20.2023C117.463 21.2369 117.373 22.1704 117.261 22.8564C116.957 24.7008 116.058 27.1637 113.854 27.3211C112.718 27.3998 111.886 26.9725 111.268 26.2527C111.043 25.9941 110.931 25.8591 110.852 25.5555C110.818 25.4318 110.807 25.2069 110.818 25.0832C110.852 24.7682 110.998 24.5546 111.279 24.116L114.293 19.4938C115.035 18.3579 115.406 17.7844 116.069 17.7506C116.35 17.7281 116.744 17.8518 116.969 18.0205C117.497 18.4254 117.486 19.0214 117.475 20.2023Z" fill="#CAD0E5"/>
<path d="M15.2776 15.749C12.9276 15.749 11.0273 17.6496 11.0273 20.0001C11.0273 22.3505 12.9276 24.2512 15.2776 24.2512C17.6275 24.2512 19.5277 22.3505 19.5277 20.0001C19.5277 17.6496 17.6275 15.749 15.2776 15.749Z" fill="#CAD0E5"/>
<path d="M15.3015 7.43827C15.9874 7.42702 16.5496 6.8647 16.5384 6.15619C16.5271 5.44769 15.9649 4.90787 15.2565 4.91912C14.5482 4.93036 14.0085 5.49267 14.0197 6.20119C14.031 6.90968 14.5932 7.44952 15.3015 7.43827Z" fill="#CAD0E5"/>
<path d="M15.2565 32.5622C14.5482 32.5734 14.0085 33.1357 14.0197 33.8443C14.031 34.5528 14.5932 35.0926 15.3015 35.0813C15.9874 35.0701 16.5496 34.5078 16.5384 33.7993C16.5271 33.0907 15.9649 32.5509 15.2565 32.5622Z" fill="#CAD0E5"/>
<path d="M6.4185 11.1044C6.89073 10.6096 6.89073 9.81113 6.38475 9.31629C5.8788 8.82145 5.09172 8.84396 4.59699 9.35001C4.10225 9.8561 4.12472 10.6433 4.63071 11.1382C5.13669 11.633 5.92377 11.6105 6.4185 11.1044Z" fill="#CAD0E5"/>
<path d="M24.1517 28.8954C23.6569 29.4015 23.6794 30.1887 24.1854 30.6836C24.6914 31.1784 25.4784 31.1559 25.9732 30.6498C26.4454 30.155 26.4454 29.3565 25.9395 28.8617C25.4335 28.3669 24.6464 28.3893 24.1517 28.8954Z" fill="#CAD0E5"/>
<path d="M24.1737 11.1382C24.6684 11.6105 25.4667 11.6105 25.9614 11.1044C26.4562 10.5983 26.4337 9.81113 25.9277 9.31629C25.4217 8.82145 24.6347 8.84396 24.14 9.35001C23.6452 9.8561 23.6677 10.6433 24.1737 11.1382Z" fill="#CAD0E5"/>
<path d="M6.38475 28.8617C5.8788 28.3669 5.09172 28.3893 4.59699 28.8954C4.10225 29.4015 4.12472 30.1887 4.63071 30.6836C5.12544 31.1559 5.92377 31.1559 6.4185 30.6498C6.91324 30.1438 6.89073 29.3565 6.38475 28.8617Z" fill="#CAD0E5"/>
<path d="M29.0294 18.7403C28.321 18.7853 27.8038 19.3701 27.8375 20.0674C27.8713 20.7534 28.4672 21.2932 29.1643 21.2595C29.8727 21.2145 30.3899 20.6297 30.3561 19.9324C30.3112 19.2239 29.7265 18.7066 29.0294 18.7403Z" fill="#CAD0E5"/>
<path d="M1.53928 21.2595C2.24766 21.2145 2.76486 20.6297 2.73114 19.9324C2.68617 19.2239 2.10149 18.7066 1.40436 18.7403C0.695987 18.7853 0.178766 19.3701 0.212497 20.0674C0.246228 20.7534 0.842157 21.2932 1.53928 21.2595Z" fill="#CAD0E5"/>
<path d="M13.3321 12.7577C13.4108 12.8814 13.512 12.9938 13.6132 13.095C14.3553 13.8148 15.5134 13.916 16.3679 13.3425C16.9301 12.9601 17.2787 12.3303 17.3237 11.633C17.3574 11.172 17.4586 10.5309 17.9646 10.1823C18.4818 9.85615 19.1115 10.0136 19.55 10.1598C20.2134 10.396 20.9217 10.3172 21.4952 9.94613C21.9899 9.63122 22.3272 9.13638 22.4509 8.56285C22.5746 7.98929 22.4734 7.40447 22.1473 6.90964L22.0574 6.77469C21.9786 6.65099 21.8775 6.53854 21.7763 6.43731C21.0342 5.71757 19.876 5.61634 19.0215 6.1899C18.4593 6.57226 18.1108 7.20205 18.0658 7.89931C18.0321 8.36043 17.9309 9.00143 17.4249 9.35006C16.9076 9.67623 16.278 9.51877 15.8395 9.37257C15.1761 9.13638 14.4677 9.21511 13.8943 9.58625C12.8823 10.2385 12.59 11.5993 13.2421 12.6115L13.3321 12.7464V12.7577Z" fill="#CAD0E5"/>
<path d="M8.50006 33.226C8.57875 33.3497 8.67995 33.4621 8.78115 33.5633C9.52325 34.2831 10.6814 34.3843 11.5359 33.8107C12.0981 33.4284 12.4466 32.7986 12.4916 32.1013C12.5254 31.6402 12.6266 30.9992 13.1325 30.6506C13.6498 30.3244 14.2794 30.4819 14.7179 30.6281C15.3813 30.8643 16.0897 30.7855 16.6631 30.4144C17.1578 30.0995 17.4952 29.6047 17.6189 29.0311C17.7426 28.4575 17.6414 27.8728 17.3153 27.3779L17.2253 27.243C17.1466 27.1192 17.0454 27.0068 16.9442 26.9056C16.2021 26.1858 15.044 26.0846 14.1895 26.6582C13.6273 27.0406 13.2787 27.6703 13.2337 28.3676C13.2 28.8287 13.0988 29.4697 12.5928 29.8184C12.0756 30.1445 11.446 29.987 11.0075 29.8408C10.344 29.6047 9.63566 29.6834 9.06223 30.0545C8.0503 30.7068 7.75796 32.0676 8.41008 33.0797L8.50006 33.2147V33.226Z" fill="#CAD0E5"/>
<path d="M19.0133 13.4886C18.9908 13.6348 18.9683 13.781 18.9795 13.9271C18.9908 14.9618 19.7441 15.8503 20.7673 16.0414C21.442 16.1651 22.1278 15.974 22.6563 15.5016C23.0049 15.198 23.5334 14.8156 24.1293 14.9281C24.7252 15.063 25.0625 15.6253 25.2649 16.0302C25.5685 16.66 26.1307 17.1098 26.7941 17.256C27.3675 17.3798 27.9522 17.2673 28.4469 16.9524C28.9417 16.6375 29.279 16.1427 29.4027 15.5691L29.4364 15.4117C29.4589 15.2655 29.4814 15.1192 29.4701 14.973C29.4589 13.9384 28.7056 13.05 27.6823 12.8588C27.0077 12.7351 26.3218 12.9263 25.7934 13.3986C25.4448 13.7023 24.9164 14.0846 24.3204 13.9722C23.7245 13.8372 23.3872 13.2749 23.1848 12.87C22.8812 12.2402 22.319 11.7904 21.6556 11.6442C20.475 11.3968 19.3056 12.1503 19.0583 13.3311L19.0245 13.4886H19.0133Z" fill="#CAD0E5"/>
<path d="M1.14609 24.5774C1.12359 24.7236 1.10112 24.8698 1.11237 25.016C1.12359 26.0507 1.87694 26.9391 2.90013 27.1303C3.57479 27.254 4.26067 27.0628 4.78913 26.5905C5.13769 26.2869 5.66615 25.9045 6.26208 26.0169C6.85801 26.1519 7.19532 26.7142 7.39772 27.1191C7.70131 27.7488 8.26349 28.1987 8.92689 28.3449C9.50032 28.4686 10.085 28.3561 10.5797 28.0412C11.0745 27.7264 11.4118 27.2315 11.5355 26.658L11.5692 26.5005C11.5917 26.3543 11.6142 26.2081 11.6029 26.0619C11.5917 25.0273 10.8384 24.1388 9.81517 23.9476C9.14054 23.8239 8.45463 24.0151 7.92617 24.4874C7.57761 24.7911 7.04915 25.1735 6.45322 25.061C5.85729 24.926 5.51998 24.3637 5.31758 23.9589C5.01399 23.3291 4.45181 22.8793 3.7884 22.7331C2.60779 22.4856 1.43843 23.2391 1.19106 24.42L1.15734 24.5774H1.14609Z" fill="#CAD0E5"/>
<path d="M22.519 18.0319C22.3954 18.1106 22.2829 18.2118 22.1817 18.313C21.4621 19.0553 21.3609 20.2136 21.9456 21.0684C22.3279 21.6307 22.9576 21.9793 23.6547 22.0243C24.1157 22.058 24.7566 22.1592 25.1052 22.6653C25.4312 23.1826 25.2738 23.8124 25.1276 24.251C24.8915 24.9145 24.9702 25.623 25.3413 26.1966C25.6561 26.6914 26.1509 27.0288 26.7243 27.1525C27.2977 27.2762 27.8824 27.1638 28.3771 26.8489L28.5121 26.7589C28.6357 26.6802 28.7482 26.579 28.8494 26.4778C29.569 25.7355 29.6702 24.5771 29.0855 23.7224C28.7032 23.1601 28.0736 22.8115 27.3764 22.7665C26.9154 22.7328 26.2745 22.6316 25.926 22.1255C25.5999 21.6082 25.7573 20.9784 25.9035 20.5398C26.1396 19.8763 26.0609 19.1677 25.6898 18.5942C25.0377 17.582 23.6772 17.2896 22.6652 17.9419L22.5303 18.0319H22.519Z" fill="#CAD0E5"/>
<path d="M2.05814 13.2408C1.93444 13.3196 1.82199 13.4208 1.72079 13.522C1.00119 14.2643 0.899996 15.4226 1.48468 16.2773C1.86696 16.8396 2.49665 17.1882 3.19374 17.2333C3.65476 17.267 4.29566 17.3682 4.64423 17.8743C4.97029 18.3916 4.8129 19.0214 4.6667 19.46C4.43058 20.1235 4.50931 20.832 4.88034 21.4056C5.19519 21.9004 5.68992 22.2378 6.26335 22.3615C6.83678 22.4852 7.42146 22.3728 7.91619 22.0578L8.05114 21.9679C8.17481 21.8892 8.28726 21.7879 8.38846 21.6867C9.10806 20.9445 9.20925 19.7861 8.62457 18.9314C8.24229 18.3691 7.61263 18.0205 6.9155 17.9755C6.45449 17.9418 5.81359 17.8405 5.46502 17.3344C5.13896 16.8171 5.29638 16.1874 5.44255 15.7487C5.67867 15.0852 5.59997 14.3767 5.22891 13.8032C4.57675 12.791 3.21625 12.4986 2.20431 13.1509L2.06936 13.2408H2.05814Z" fill="#CAD0E5"/>
<path d="M21.7886 23.7335C21.6424 23.711 21.4962 23.6885 21.3501 23.6998C20.3156 23.711 19.4274 24.4645 19.2362 25.4879C19.1125 26.1627 19.3037 26.8487 19.7759 27.3773C20.0795 27.7259 20.4618 28.2545 20.3494 28.8505C20.2144 29.4466 19.6523 29.7839 19.2475 29.9864C18.6178 30.29 18.168 30.8523 18.0219 31.5159C17.8982 32.0894 18.0106 32.6742 18.3255 33.169C18.6403 33.6639 19.135 34.0013 19.7085 34.125L19.8659 34.1587C20.012 34.1812 20.1582 34.2037 20.3044 34.1925C21.3388 34.1812 22.2271 33.4277 22.4182 32.4043C22.5419 31.7295 22.3508 31.0435 21.8785 30.515C21.575 30.1663 21.1926 29.6377 21.3051 29.0417C21.44 28.4456 22.0022 28.1083 22.407 27.9058C23.0367 27.6022 23.4864 27.0399 23.6326 26.3763C23.88 25.1955 23.1266 24.0259 21.946 23.7785L21.7886 23.7447V23.7335Z" fill="#CAD0E5"/>
<path d="M10.7027 5.86337C10.5565 5.8409 10.4103 5.8184 10.2641 5.82965C9.2297 5.8409 8.34143 6.59439 8.15029 7.61779C8.02659 8.29258 8.21773 8.9786 8.68999 9.50715C8.99355 9.85579 9.37587 10.3843 9.26342 10.9804C9.12851 11.5764 8.56629 11.9138 8.16151 12.1163C7.53185 12.4199 7.08209 12.9822 6.93592 13.6457C6.81225 14.2193 6.9247 14.8041 7.23951 15.299C7.55436 15.7938 8.04909 16.1312 8.62252 16.2549L8.77994 16.2886C8.92611 16.3111 9.07228 16.3336 9.21845 16.3223C10.2529 16.3111 11.1412 15.5576 11.3323 14.5342C11.456 13.8594 11.2648 13.1734 10.7926 12.6448C10.489 12.2962 10.1067 11.7676 10.2192 11.1716C10.3541 10.5756 10.9163 10.2382 11.3211 10.0357C11.9507 9.73208 12.4005 9.16977 12.5466 8.50623C12.794 7.32538 12.0407 6.15578 10.86 5.90838L10.7027 5.87463V5.86337Z" fill="#CAD0E5"/>
</g>
<defs>
<clipPath id="clip0_369_1581">
<rect width="122.5" height="40" fill="white"/>
</clipPath>
</defs>
</svg>
