<svg width="60" height="40" viewBox="0 0 60 40" fill="none" xmlns="http://www.w3.org/2000/svg">
<g clip-path="url(#clip0_369_1643)">
<mask id="mask0_369_1643" style="mask-type:luminance" maskUnits="userSpaceOnUse" x="0" y="33" width="60" height="7">
<path d="M59.1304 33.043H0V39.4198H59.1304V33.043Z" fill="white"/>
</mask>
<g mask="url(#mask0_369_1643)">
<path d="M40.1429 36.5996H37.9414V37.0769H40.1429V36.5996Z" fill="#CAD0E5"/>
<path d="M1.33919 33.7021L1.14311 38.4957V38.5792C1.14311 38.9861 1.27106 39.0695 1.96082 39.1152V39.3368C1.4574 39.3004 1.26549 39.2912 0.987362 39.2912C0.709229 39.2912 0.511759 39.303 0 39.3368V39.1152C0.695328 39.0695 0.788499 38.9952 0.807965 38.4957L1.01518 33.9564V33.9055C1.01518 33.4804 0.87611 33.3839 0.197472 33.3513V33.1204C0.581293 33.1479 0.728702 33.157 1.00544 33.157C1.31997 33.16 1.63439 33.1448 1.94691 33.1113L3.77284 37.7851L5.63492 33.1113C5.94864 33.1414 6.26377 33.1566 6.57919 33.157C6.82673 33.157 6.98383 33.1479 7.35791 33.1204V33.3513C6.68765 33.3878 6.54023 33.4816 6.54023 33.8964V33.9564L6.6487 38.4905C6.65844 38.99 6.74742 39.0643 7.45664 39.1099V39.3316C7.04812 39.2866 6.63728 39.2618 6.22591 39.2573C5.81415 39.2617 5.40284 39.2865 4.99383 39.3316V39.1099C5.66412 39.0734 5.81154 38.9717 5.81154 38.5375V38.4905L5.72252 33.7112L4.09824 37.8307L3.98004 38.1359L3.84097 38.4775L3.71304 38.8283L3.60456 39.1334H3.45715L3.34868 38.8374L3.20962 38.4775L3.07056 38.1176L2.95235 37.7942L1.33919 33.7021Z" fill="#CAD0E5"/>
<path d="M10.0118 39.1067C9.11482 39.1067 8.72126 38.4546 8.71152 37.0202H11.6513C11.6319 35.5975 11.0102 34.8398 9.84352 34.8398C8.67674 34.8398 7.92578 35.7357 7.92578 37.1571C7.92578 38.5785 8.66561 39.4118 9.93529 39.4118C10.9004 39.4118 11.5318 38.8471 11.6597 37.8965H11.2633C11.1451 38.679 10.7071 39.1067 10.0118 39.1067ZM8.73517 36.6863C8.8339 35.6248 9.20798 35.0798 9.83795 35.0798C10.4679 35.0798 10.8114 35.6014 10.8628 36.6863H8.73517Z" fill="#CAD0E5"/>
<path d="M12.238 35.1803V35.0134C12.6784 34.9872 13.1144 34.916 13.5382 34.8008C13.5883 35.1425 13.6078 35.2911 13.6272 35.5676V35.6693C13.8442 35.1477 14.2683 34.8373 14.78 34.8373C15.2918 34.8373 15.6367 35.1425 15.6367 35.5858C15.6367 35.8545 15.4698 36.0292 15.2195 36.0292C14.9692 36.0292 14.8148 35.8988 14.8148 35.7149C14.8184 35.684 14.8249 35.6535 14.8343 35.6237L14.8551 35.531V35.4476C14.8551 35.3172 14.7369 35.2259 14.5589 35.2259C14.0472 35.2259 13.7246 35.8075 13.7246 36.7217V38.6503C13.7246 39.0416 13.8233 39.1211 14.4199 39.1485V39.3337C13.6896 39.2607 12.953 39.2607 12.2227 39.3337V39.1511C12.8234 39.1237 12.9319 39.0494 12.9319 38.653V35.6328C12.9221 35.235 12.8735 35.1894 12.3617 35.1803H12.238Z" fill="#CAD0E5"/>
<path d="M19.4097 34.7559V36.279H19.1955C19.0175 35.4757 18.6532 35.0884 18.0524 35.0884C17.314 35.0884 16.8801 35.8356 16.8801 37.1566C16.8801 38.4502 17.2639 39.1127 18.0232 39.1127C18.6332 39.1127 18.9976 38.7063 19.1162 37.8934H19.5196C19.3916 38.8819 18.8311 39.4178 17.944 39.4178C16.8022 39.4178 16.0234 38.5115 16.0234 37.1632C16.0234 35.7874 16.812 34.8446 17.9703 34.8446C18.1583 34.8362 18.3459 34.867 18.5198 34.9346C18.6936 35.0022 18.8493 35.1051 18.9758 35.2357L19.2414 34.765L19.4097 34.7559Z" fill="#CAD0E5"/>
<path d="M22.3053 39.1067C21.4083 39.1067 21.0147 38.4546 21.005 37.0202H23.9392C23.9197 35.5975 23.2995 34.8398 22.1314 34.8398C20.9632 34.8398 20.2109 35.737 20.2109 37.1584C20.2109 38.5798 20.9494 39.4131 22.2204 39.4131C23.1855 39.4131 23.8155 38.8485 23.9448 37.8978H23.5498C23.4316 38.6803 22.9936 39.108 22.2983 39.108M21.0175 36.6877C21.1162 35.6262 21.4903 35.0811 22.1203 35.0811C22.7502 35.0811 23.0854 35.6027 23.1452 36.6877H21.0175Z" fill="#CAD0E5"/>
<path d="M28.5212 38.3753V33.043C28.0332 33.1642 27.5356 33.2488 27.0332 33.296V33.4524C27.6534 33.4524 27.7285 33.5176 27.7285 33.9975V35.6132C27.3642 35.059 27.0777 34.8934 26.5465 34.8934C25.4923 34.8934 24.7539 35.8258 24.7539 37.156C24.7539 38.4861 25.5021 39.4198 26.5756 39.4198C27.1319 39.4198 27.5213 39.1798 27.798 38.6621C27.8152 38.9122 27.8618 39.1597 27.9371 39.4002C28.31 39.2833 28.6966 39.2093 29.0886 39.1798L29.2374 39.1603V39.0038C28.5768 38.9855 28.5184 38.9386 28.5184 38.3753M26.6661 39.1577C25.9568 39.1577 25.5827 38.4652 25.5827 37.1442C25.5827 35.8232 25.9276 35.149 26.6369 35.149C27.3461 35.149 27.7396 35.8519 27.7396 37.2094C27.7396 38.4926 27.3753 39.1577 26.6661 39.1577Z" fill="#CAD0E5"/>
<path d="M31.6984 39.1067C30.8028 39.1067 30.4092 38.4546 30.3981 37.0202H33.3338C33.3143 35.5975 32.6941 34.8398 31.5259 34.8398C30.3578 34.8398 29.6055 35.737 29.6055 37.1584C29.6055 38.5798 30.3439 39.4131 31.615 39.4131C32.5801 39.4131 33.21 38.8485 33.338 37.8978H32.9444C32.8262 38.6803 32.3881 39.108 31.6928 39.108M30.4134 36.6877C30.5107 35.6262 30.8862 35.0811 31.5162 35.0811C32.1462 35.0811 32.4813 35.6027 32.5411 36.6877H30.4134Z" fill="#CAD0E5"/>
<path d="M34.1719 39.4204V37.8777L34.3874 37.8686C34.5654 38.7084 34.9784 39.1153 35.6682 39.1153C36.2495 39.1153 36.6834 38.7553 36.6834 38.2833C36.6834 37.9703 36.4956 37.7616 36.0131 37.5543L35.639 37.3978L35.1857 37.2035C34.4667 36.8892 34.24 36.631 34.24 36.0951C34.24 35.3648 34.8505 34.8666 35.7183 34.8666C36.0783 34.8596 36.4309 34.9631 36.7223 35.1613L36.8892 34.7832H37.0672V36.2176H36.8405C36.7515 35.4783 36.4234 35.1274 35.8059 35.1274C35.2844 35.1274 34.8797 35.46 34.8797 35.8942C34.8797 36.2633 35.0285 36.3833 35.9241 36.7536L36.3413 36.9192C37.0894 37.2244 37.3551 37.5204 37.3551 38.0655C37.3551 38.8401 36.6959 39.3943 35.7697 39.3943C35.3381 39.4032 34.9177 39.2641 34.5876 39.0031L34.3512 39.4204H34.1719Z" fill="#CAD0E5"/>
<path d="M44.7944 34.6546C44.7999 34.4294 44.7494 34.206 44.6468 34.0022C44.5442 33.7985 44.3924 33.62 44.2034 33.481C43.8696 33.2501 43.4844 33.1484 42.8447 33.1484H40.2539V33.3792C40.9631 33.4171 41.0618 33.4901 41.0618 33.9895V38.469C41.0618 38.9684 40.9826 39.0323 40.2539 39.0884V39.3101H42.746C43.4747 39.3101 43.8696 39.2266 44.2826 38.9866C44.5332 38.828 44.7386 38.6145 44.8811 38.3645C45.0236 38.1145 45.0988 37.8357 45.1003 37.5522C45.1057 37.3173 45.0535 37.0843 44.9476 36.8713C44.8418 36.6584 44.6852 36.471 44.4898 36.3238C44.2601 36.1668 43.9926 36.0651 43.7111 36.0277C44.4203 35.7787 44.7944 35.3079 44.7944 34.6611M41.8893 33.4353H42.7237C43.5511 33.4353 43.9155 33.8135 43.9155 34.6728C43.9155 35.098 43.807 35.4031 43.5901 35.643C43.3731 35.883 43.1075 35.9469 42.5568 35.9469H41.8865L41.8893 33.4353ZM42.8294 36.2338C43.3509 36.2338 43.6471 36.3173 43.8737 36.5298C44.1005 36.7424 44.2201 37.1388 44.2201 37.5822C44.2201 38.5055 43.7264 39.0232 42.8503 39.0232H42.4956C41.9741 39.0232 41.8852 38.9488 41.8852 38.5433V36.2338H42.8294Z" fill="#CAD0E5"/>
<path d="M47.9928 39.1067C47.0958 39.1067 46.7022 38.4546 46.6925 37.0202H49.6281C49.6087 35.5975 48.9871 34.8398 47.8203 34.8398C46.6536 34.8398 45.8984 35.737 45.8984 37.1584C45.8984 38.5798 46.6383 39.4131 47.9079 39.4131C48.873 39.4131 49.5044 38.8485 49.6323 37.8978H49.2444C49.1262 38.6803 48.6881 39.108 47.9928 39.108M46.7119 36.6877C46.8107 35.6262 47.1848 35.0811 47.8161 35.0811C48.4475 35.0811 48.7812 35.6027 48.8397 36.6877H46.7119Z" fill="#CAD0E5"/>
<path d="M50.1467 35.2175V35.0597C50.5916 35.0131 51.0295 34.9203 51.4526 34.7832C51.5079 35.0481 51.5409 35.3167 51.5513 35.5865C51.9045 35.0884 52.3092 34.8666 52.8808 34.8666C53.4523 34.8666 53.9835 35.1522 54.181 35.6048C54.2871 35.8695 54.3354 36.1516 54.3228 36.4341V38.651C54.3228 39.0422 54.4216 39.1218 55.0182 39.1492V39.3343C54.6617 39.2973 54.3033 39.279 53.9446 39.2796C53.5859 39.2786 53.2275 39.2969 52.871 39.3343V39.1518C53.4023 39.1335 53.5302 39.0409 53.5302 38.6719V36.4093C53.5302 35.6048 53.2743 35.2826 52.6443 35.2826C51.9741 35.2826 51.6194 35.6739 51.6194 36.4367V38.6719C51.6194 39.0409 51.7474 39.1335 52.2605 39.1518V39.3369C51.9073 39.2998 51.5521 39.2815 51.1967 39.2822C50.8413 39.2816 50.4861 39.3 50.1328 39.3369V39.1518C50.7336 39.1244 50.8282 39.05 50.8282 38.6536V35.6543C50.8184 35.2761 50.7586 35.2201 50.2719 35.2201C50.2427 35.2201 50.1926 35.2109 50.1439 35.2109" fill="#CAD0E5"/>
<path d="M55.4102 39.31L58.0802 35.1905H56.8689C56.2278 35.1905 56.0707 35.3209 55.7161 36.1503H55.5186L55.7453 34.9492H59.1341L56.4545 39.07H57.6074C58.2761 39.07 58.5532 38.8197 58.8477 37.9798H59.0553L58.799 39.31H55.4102Z" fill="#CAD0E5"/>
</g>
<path d="M37.8399 15.742L30.6756 10.1372L29.4085 1.12094C31.0655 1.16968 32.6251 1.60831 34.0872 2.43683C35.598 3.31409 36.8652 4.58125 37.7424 6.09212C38.6197 7.6029 39.0584 9.3087 39.0584 11.0632C39.0096 12.6715 38.6197 14.2798 37.8399 15.742ZM34.0384 19.6409C32.5276 20.5181 30.8219 20.9568 29.0673 20.9568C27.3128 20.9568 25.607 20.5181 24.0962 19.6409C22.6828 18.8123 21.4644 17.6427 20.6359 16.278L29.0673 12.8665L37.4988 16.278C36.6703 17.6427 35.5006 18.8123 34.0384 19.6409ZM19.125 11.0145C19.125 9.26 19.5636 7.5542 20.4409 6.04336C21.3182 4.53251 22.5853 3.26536 24.0962 2.3881C25.5096 1.55957 27.1179 1.12094 28.7749 1.07221L27.5078 10.0885L20.3435 15.6932C19.5636 14.2798 19.125 12.6715 19.125 11.0145ZM38.6685 5.50725C37.6937 3.8502 36.2803 2.43683 34.6233 1.4621C32.9663 0.487367 31.0168 0 29.1161 0C27.1666 0 25.2659 0.487367 23.6088 1.4621C21.9518 2.43683 20.5384 3.8502 19.5636 5.50725C18.5889 7.16429 18.1016 9.11374 18.1016 11.0145C18.1016 12.9639 18.5889 14.8647 19.5636 16.5217C20.5384 18.1788 21.9518 19.5922 23.6088 20.5669C25.2659 21.5416 27.2154 22.029 29.1161 22.029C31.0655 22.029 32.9663 21.5416 34.6233 20.5669C36.2803 19.5922 37.6937 18.1788 38.6685 16.5217C39.6432 14.8647 40.1305 12.9152 40.1305 11.0145C40.1305 9.11374 39.6432 7.16429 38.6685 5.50725Z" fill="#CAD0E5"/>
</g>
<defs>
<clipPath id="clip0_369_1643">
<rect width="59.1304" height="40" fill="white"/>
</clipPath>
</defs>
</svg>
