<svg width="142" height="41" viewBox="0 0 142 41" fill="none" xmlns="http://www.w3.org/2000/svg">
<g clip-path="url(#clip0_369_1577)">
<path d="M49.8002 22.378L48.9593 24.7606H48.8892C48.7491 24.2233 48.4921 23.4058 48.0716 22.4247L43.5633 11.0955H39.1484V29.1521H42.0683V18.0098C42.0683 17.309 42.0683 16.5148 42.045 15.5337C42.0216 15.0432 41.9749 14.6694 41.9515 14.3891H42.0216C42.1618 15.0899 42.3253 15.6038 42.4421 15.9308L47.8614 29.1054H49.917L55.2896 15.814C55.4064 15.5104 55.5232 14.903 55.64 14.3891H55.7101C55.64 15.7206 55.5933 16.9119 55.5699 17.636V29.082H58.6767V11.0488H54.4253L49.8002 22.378ZM61.62 16.1411H64.6567V29.082H61.62V16.1411ZM63.1617 10.675C62.6478 10.675 62.2273 10.8619 61.8769 11.1889C61.5265 11.5159 61.3397 11.9364 61.3397 12.4503C61.3397 12.9409 61.5265 13.3613 61.8769 13.6883C62.2273 14.0154 62.6478 14.1789 63.1617 14.1789C63.6756 14.1789 64.1194 13.992 64.4464 13.6883C64.7968 13.3613 64.9837 12.9409 64.9837 12.4503C64.9837 11.9598 64.7968 11.5393 64.4464 11.1889C64.1427 10.8619 63.6989 10.675 63.1617 10.675ZM75.4252 16.0243C74.8646 15.9075 74.2806 15.8374 73.72 15.8374C72.3418 15.8374 71.0804 16.1411 70.0293 16.7484C68.9781 17.3557 68.1372 18.1967 67.5999 19.2478C67.0393 20.3223 66.759 21.5604 66.759 22.9853C66.759 24.2233 67.0393 25.3212 67.5765 26.3257C68.1138 27.3067 68.8613 28.101 69.8658 28.6382C70.8235 29.1755 71.9447 29.4558 73.2061 29.4558C74.6544 29.4558 75.8924 29.1521 76.8735 28.5915L76.8969 28.5681V25.765L76.7801 25.8585C76.3362 26.1855 75.8223 26.4658 75.3084 26.6293C74.7712 26.8162 74.2806 26.9096 73.8602 26.9096C72.6455 26.9096 71.6878 26.5592 71.0103 25.7884C70.3096 25.0409 69.9592 24.0131 69.9592 22.7283C69.9592 21.3969 70.3096 20.3457 71.0337 19.5749C71.7578 18.804 72.7156 18.4069 73.8835 18.4069C74.8646 18.4069 75.8691 18.7339 76.7801 19.388L76.8969 19.4814V16.5148L76.8735 16.4914C76.4764 16.3279 76.0326 16.1411 75.4252 16.0243ZM85.4463 15.9308C84.6988 15.9308 83.9981 16.1644 83.3907 16.655C82.8768 17.0754 82.5264 17.6828 82.2228 18.4069H82.1994V16.1411H79.1627V29.082H82.1994V22.4714C82.1994 21.3502 82.433 20.4158 82.9469 19.7384C83.4608 19.0376 84.1148 18.6872 84.9091 18.6872C85.1894 18.6872 85.4697 18.7573 85.8201 18.804C86.1471 18.8974 86.3807 18.9909 86.5442 19.1077L86.661 19.2011V16.1644L86.5909 16.1411C86.3807 16.0009 85.9602 15.9308 85.4463 15.9308ZM93.7155 15.8607C91.5898 15.8607 89.8846 16.4914 88.6932 17.7295C87.4786 18.9675 86.8946 20.6727 86.8946 22.8218C86.8946 24.8307 87.5019 26.4658 88.6699 27.6571C89.8378 28.8251 91.4263 29.4324 93.4118 29.4324C95.4908 29.4324 97.1493 28.8017 98.3406 27.5403C99.5553 26.2789 100.139 24.5971 100.139 22.5181C100.139 20.4625 99.5786 18.8274 98.434 17.636C97.3361 16.4447 95.7244 15.8607 93.7155 15.8607ZM96.1448 25.8118C95.5842 26.5359 94.6966 26.8863 93.5987 26.8863C92.5008 26.8863 91.6131 26.5359 90.9824 25.765C90.3517 25.0409 90.0481 23.9897 90.0481 22.6583C90.0481 21.2801 90.3751 20.2289 90.9824 19.4814C91.6131 18.7339 92.4774 18.3602 93.5753 18.3602C94.6498 18.3602 95.4908 18.7106 96.0981 19.4347C96.7054 20.1588 97.0325 21.21 97.0325 22.5882C96.9857 23.9897 96.7288 25.0876 96.1448 25.8118ZM106.913 21.5137C105.956 21.1166 105.348 20.8129 105.068 20.5559C104.834 20.3223 104.718 19.9953 104.718 19.5749C104.718 19.2245 104.858 18.8741 105.208 18.6405C105.559 18.4069 105.956 18.2901 106.54 18.2901C107.054 18.2901 107.591 18.3835 108.105 18.5237C108.619 18.6638 109.086 18.8741 109.46 19.1544L109.576 19.2478V16.398L109.506 16.3746C109.156 16.2345 108.689 16.0943 108.128 15.9775C107.567 15.8841 107.054 15.8374 106.633 15.8374C105.185 15.8374 103.994 16.1878 103.059 16.9586C102.125 17.6828 101.681 18.6638 101.681 19.8084C101.681 20.4158 101.774 20.953 101.985 21.3969C102.195 21.8407 102.499 22.2612 102.919 22.6115C103.339 22.9386 103.947 23.3123 104.788 23.6627C105.488 23.9664 106.026 24.2 106.353 24.3868C106.68 24.5737 106.89 24.784 107.054 24.9475C107.17 25.1343 107.24 25.3679 107.24 25.6716C107.24 26.5359 106.586 26.9564 105.255 26.9564C104.741 26.9564 104.204 26.8629 103.573 26.6527C102.942 26.4425 102.358 26.1388 101.868 25.7884L101.751 25.695V28.6616L101.821 28.6849C102.265 28.8952 102.802 29.0353 103.456 29.1988C104.11 29.3156 104.694 29.4091 105.208 29.4091C106.773 29.4091 108.058 29.0587 108.969 28.2878C109.903 27.5403 110.394 26.5826 110.394 25.3446C110.394 24.4803 110.16 23.7094 109.646 23.1254C108.969 22.5648 108.128 21.9808 106.913 21.5137ZM118.406 15.8607C116.28 15.8607 114.575 16.4914 113.384 17.7295C112.193 18.9675 111.585 20.6727 111.585 22.8218C111.585 24.8307 112.193 26.4658 113.361 27.6571C114.528 28.8251 116.117 29.4324 118.102 29.4324C120.181 29.4324 121.84 28.8017 123.031 27.5403C124.246 26.2789 124.83 24.5971 124.83 22.5181C124.83 20.4625 124.269 18.8274 123.125 17.636C122.027 16.4447 120.415 15.8607 118.406 15.8607ZM120.812 25.8118C120.251 26.5359 119.364 26.8863 118.266 26.8863C117.145 26.8863 116.28 26.5359 115.65 25.765C115.019 25.0409 114.715 23.9897 114.715 22.6583C114.715 21.2801 115.042 20.2289 115.65 19.4814C116.28 18.7339 117.145 18.3602 118.243 18.3602C119.294 18.3602 120.158 18.7106 120.765 19.4347C121.373 20.1588 121.7 21.21 121.7 22.5882C121.7 23.9897 121.396 25.0876 120.812 25.8118ZM141.065 18.6405V16.1411H138.004V12.3102L137.911 12.3335L135.014 13.1978L134.944 13.2212V16.1411H130.366V14.5059C130.366 13.7584 130.553 13.1744 130.88 12.8007C131.207 12.4269 131.697 12.2401 132.305 12.2401C132.725 12.2401 133.169 12.3335 133.66 12.5437L133.776 12.6138V9.97424L133.706 9.95088C133.286 9.81072 132.725 9.71729 132.001 9.71729C131.09 9.71729 130.296 9.92752 129.572 10.2779C128.848 10.675 128.31 11.2123 127.913 11.9364C127.516 12.6372 127.306 13.4314 127.306 14.3424V16.1411H125.18V18.6171H127.306V29.082H130.366V18.6405H134.944V25.2979C134.944 28.0309 136.229 29.4091 138.799 29.4091C139.219 29.4091 139.663 29.339 140.083 29.2689C140.527 29.1755 140.854 29.0587 141.041 28.9652L141.065 28.9419V26.4425L140.948 26.5359C140.761 26.6527 140.597 26.7461 140.317 26.8162C140.083 26.8863 139.873 26.9096 139.71 26.9096C139.102 26.9096 138.682 26.7695 138.378 26.4191C138.098 26.0921 137.958 25.5548 137.958 24.7606V18.6405H141.065Z" fill="#CAD0E5"/>
<path d="M0 5.02246H14.3192V19.3416H0V5.02246Z" fill="#CAD0E5"/>
<path d="M15.8164 5.02246H30.1356V19.3416H15.8164V5.02246Z" fill="#CAD0E5"/>
<path d="M0 20.8369H14.3192V35.1561H0V20.8369Z" fill="#CAD0E5"/>
<path d="M15.8164 20.8369H30.1356V35.1561H15.8164V20.8369Z" fill="#CAD0E5"/>
</g>
<defs>
<clipPath id="clip0_369_1577">
<rect width="141.25" height="40.1778" fill="white"/>
</clipPath>
</defs>
</svg>
