<svg width="74" height="27" viewBox="0 0 74 27" fill="none" xmlns="http://www.w3.org/2000/svg">
<path fill-rule="evenodd" clip-rule="evenodd" d="M34.0688 11.3335C32.2012 11.3335 30.6318 10.0587 30.1869 8.3335H25.593C24.6134 8.3335 23.7773 9.04033 23.6163 10.0047L23.4515 10.9912C23.2952 11.9277 22.8204 12.7427 22.149 13.3335C22.8204 13.9243 23.2952 14.7393 23.4515 15.6758L23.6163 16.6623C23.7773 17.6267 24.6134 18.3335 25.593 18.3335H26.1788C26.6237 16.6083 28.1931 15.3335 30.0607 15.3335C32.2743 15.3335 34.0688 17.1243 34.0688 19.3335C34.0688 21.5427 32.2743 23.3335 30.0607 23.3335C28.1931 23.3335 26.6237 22.0587 26.1788 20.3335H25.593C23.6337 20.3335 21.9617 18.9198 21.6395 16.9912L21.4747 16.0047C21.3137 15.0403 20.4777 14.3335 19.498 14.3335H17.9102C17.4653 16.0587 15.8959 17.3335 14.0283 17.3335C12.1607 17.3335 10.5914 16.0587 10.1465 14.3335H7.88993C7.44503 16.0587 5.87569 17.3335 4.00809 17.3335C1.79449 17.3335 0 15.5427 0 13.3335C0 11.1243 1.79449 9.3335 4.00809 9.3335C5.87569 9.3335 7.44503 10.6083 7.88993 12.3335H10.1465C10.5914 10.6083 12.1607 9.3335 14.0283 9.3335C15.8959 9.3335 17.4653 10.6083 17.9102 12.3335H19.498C20.4777 12.3335 21.3137 11.6267 21.4747 10.6623L21.6395 9.67583C21.9617 7.74716 23.6337 6.3335 25.593 6.3335H30.1869C30.6318 4.60833 32.2012 3.3335 34.0688 3.3335C36.2824 3.3335 38.0769 5.12433 38.0769 7.3335C38.0769 9.54266 36.2824 11.3335 34.0688 11.3335ZM34.0688 9.3335C35.1755 9.3335 36.0728 8.438 36.0728 7.3335C36.0728 6.229 35.1755 5.3335 34.0688 5.3335C32.962 5.3335 32.0647 6.229 32.0647 7.3335C32.0647 8.438 32.962 9.3335 34.0688 9.3335ZM4.00809 15.3335C5.11482 15.3335 6.01214 14.438 6.01214 13.3335C6.01214 12.229 5.11482 11.3335 4.00809 11.3335C2.90129 11.3335 2.00405 12.229 2.00405 13.3335C2.00405 14.438 2.90129 15.3335 4.00809 15.3335ZM16.0324 13.3335C16.0324 14.438 15.1351 15.3335 14.0283 15.3335C12.9216 15.3335 12.0243 14.438 12.0243 13.3335C12.0243 12.229 12.9216 11.3335 14.0283 11.3335C15.1351 11.3335 16.0324 12.229 16.0324 13.3335ZM32.0647 19.3335C32.0647 20.438 31.1674 21.3335 30.0607 21.3335C28.9539 21.3335 28.0566 20.438 28.0566 19.3335C28.0566 18.229 28.9539 17.3335 30.0607 17.3335C31.1674 17.3335 32.0647 18.229 32.0647 19.3335Z" fill="#CAD0E5"/>
<path fill-rule="evenodd" clip-rule="evenodd" d="M62.1283 11.9815V11.8863C62.8275 11.5368 63.5267 10.9332 63.5267 9.74182C63.5267 8.02615 62.1124 6.99365 60.1578 6.99365C58.1554 6.99365 56.7252 8.08965 56.7252 9.77349C56.7252 10.9173 57.3925 11.5368 58.1237 11.8863V11.9815C57.3132 12.2675 56.3438 13.1253 56.3438 14.555C56.3438 16.2863 57.774 17.4937 60.1419 17.4937C62.5097 17.4937 63.8923 16.2863 63.8923 14.555C63.8923 13.1253 62.9387 12.2833 62.1283 11.9815ZM60.1419 8.45515C60.9365 8.45515 61.5244 8.96332 61.5244 9.82115C61.5244 10.679 60.9205 11.1873 60.1419 11.1873C59.3632 11.1873 58.7115 10.679 58.7115 9.82115C58.7115 8.94749 59.3314 8.45515 60.1419 8.45515ZM60.1419 15.9687C59.2201 15.9687 58.4732 15.381 58.4732 14.3802C58.4732 13.4748 59.093 12.7917 60.1259 12.7917C61.1431 12.7917 61.7629 13.4588 61.7629 14.412C61.7629 15.381 61.0477 15.9687 60.1419 15.9687Z" fill="#CAD0E5"/>
<path d="M66.3438 17.3347H68.3779V13.0299C68.3779 11.6161 69.2361 10.9966 70.2054 10.9966C71.159 10.9966 71.9058 11.6321 71.9058 12.9346V17.3347H73.9399V12.5216C73.9399 10.4406 72.7321 9.2334 70.8412 9.2334C69.6493 9.2334 68.9817 9.7099 68.5049 10.3294H68.3779L68.203 9.39223H66.3438V17.3347Z" fill="#CAD0E5"/>
<path d="M48.3349 17.3347H46.3008V9.39223H48.16L48.3349 10.3294H48.462C48.9388 9.7099 49.6063 9.2334 50.7982 9.2334C52.6892 9.2334 53.8969 10.4406 53.8969 12.5216V17.3347H51.8628V12.9346C51.8628 11.6321 51.116 10.9966 50.1624 10.9966C49.1931 10.9966 48.3349 11.6161 48.3349 13.0299V17.3347Z" fill="#CAD0E5"/>
</svg>
