<svg width="100" height="27" viewBox="0 0 100 27" fill="none" xmlns="http://www.w3.org/2000/svg">
<g clip-path="url(#clip0_368_1427)">
<mask id="mask0_368_1427" style="mask-type:luminance" maskUnits="userSpaceOnUse" x="0" y="3" width="100" height="21">
<path d="M99.5147 3.3335H0.0703125V23.3335H99.5147V3.3335Z" fill="white"/>
</mask>
<g mask="url(#mask0_368_1427)">
<path d="M14.4527 10.1904H6.39175C6.19914 10.1904 6.04297 10.3468 6.04297 10.5396V11.0307C6.04297 11.2235 6.19914 11.3799 6.39175 11.3799H14.4527C14.6454 11.3799 14.8015 11.2235 14.8015 11.0307V10.5396C14.8015 10.3468 14.6454 10.1904 14.4527 10.1904Z" fill="#CAD0E5"/>
<path d="M4.52519 10.1904H0.419073C0.226458 10.1904 0.0703125 10.3468 0.0703125 10.5396V11.0307C0.0703125 11.2235 0.226458 11.3799 0.419073 11.3799H4.52519C4.7178 11.3799 4.87395 11.2235 4.87395 11.0307V10.5396C4.87395 10.3468 4.7178 10.1904 4.52519 10.1904Z" fill="#CAD0E5"/>
<path d="M22.1204 10.1904H17.3332C17.1405 10.1904 16.9844 10.3468 16.9844 10.5396V11.0307C16.9844 11.2235 17.1405 11.3799 17.3332 11.3799H22.1204C22.313 11.3799 22.4692 11.2235 22.4692 11.0307V10.5396C22.4692 10.3468 22.313 10.1904 22.1204 10.1904Z" fill="#CAD0E5"/>
<path d="M22.1195 8.48535H18.1183C17.9257 8.48535 17.7695 8.6417 17.7695 8.83455V9.32561C17.7695 9.5185 17.9257 9.67483 18.1183 9.67483H22.1195C22.3121 9.67483 22.4683 9.5185 22.4683 9.32561V8.83455C22.4683 8.6417 22.3121 8.48535 22.1195 8.48535Z" fill="#CAD0E5"/>
<path d="M26.4593 8.48535H23.4308C23.2381 8.48535 23.082 8.6417 23.082 8.83455V9.32561C23.082 9.5185 23.2381 9.67483 23.4308 9.67483H26.4593C26.6519 9.67483 26.808 9.5185 26.808 9.32561V8.83455C26.808 8.6417 26.6519 8.48535 26.4593 8.48535Z" fill="#CAD0E5"/>
<path d="M25.3922 6.74365H21.8487C21.6561 6.74365 21.5 6.9 21.5 7.09286V7.58392C21.5 7.77678 21.6561 7.93312 21.8487 7.93312H25.3922C25.5848 7.93312 25.7409 7.77678 25.7409 7.58392V7.09286C25.7409 6.9 25.5848 6.74365 25.3922 6.74365Z" fill="#CAD0E5"/>
<path d="M23.739 5.03857H23.1886C22.996 5.03857 22.8398 5.19491 22.8398 5.38777V5.87884C22.8398 6.0717 22.996 6.22804 23.1886 6.22804H23.739C23.9316 6.22804 24.0878 6.0717 24.0878 5.87884V5.38777C24.0878 5.19491 23.9316 5.03857 23.739 5.03857Z" fill="#CAD0E5"/>
<path d="M12.002 18.6968H10.5401C10.3475 18.6968 10.1914 18.8531 10.1914 19.046V19.5752C10.1914 19.7681 10.3475 19.9244 10.5401 19.9244H12.002C12.1946 19.9244 12.3507 19.7681 12.3507 19.5752V19.046C12.3507 18.8531 12.1946 18.6968 12.002 18.6968Z" fill="#CAD0E5"/>
<path d="M15.0081 18.6968H14.2901C14.0975 18.6968 13.9414 18.8531 13.9414 19.046V19.5752C13.9414 19.7681 14.0975 19.9244 14.2901 19.9244H15.0081C15.2007 19.9244 15.3569 19.7681 15.3569 19.5752V19.046C15.3569 18.8531 15.2007 18.6968 15.0081 18.6968Z" fill="#CAD0E5"/>
<path d="M19.4789 18.731H16.3605C16.1679 18.731 16.0117 18.8873 16.0117 19.0802V19.5412C16.0117 19.7341 16.1679 19.8904 16.3605 19.8904H19.4789C19.6715 19.8904 19.8277 19.7341 19.8277 19.5412V19.0802C19.8277 18.8873 19.6715 18.731 19.4789 18.731Z" fill="#CAD0E5"/>
<path d="M19.1575 16.9917H18.2707C18.078 16.9917 17.9219 17.148 17.9219 17.3409V17.8701C17.9219 18.063 18.078 18.2194 18.2707 18.2194H19.1575C19.3502 18.2194 19.5063 18.063 19.5063 17.8701V17.3409C19.5063 17.148 19.3502 16.9917 19.1575 16.9917Z" fill="#CAD0E5"/>
<path d="M8.11401 18.6968H7.56362C7.37101 18.6968 7.21484 18.8531 7.21484 19.046V19.5752C7.21484 19.7681 7.37101 19.9244 7.56362 19.9244H8.11401C8.30662 19.9244 8.46279 19.7681 8.46279 19.5752V19.046C8.46279 18.8531 8.30662 18.6968 8.11401 18.6968Z" fill="#CAD0E5"/>
<path d="M12.9766 20.7496C12.9766 20.5573 13.1332 20.4004 13.3253 20.4004H13.8757C14.0678 20.4004 14.2245 20.5573 14.2245 20.7496V21.2788C14.2245 21.4712 14.0678 21.6281 13.8757 21.6281H13.3253C13.1332 21.6281 12.9766 21.4712 12.9766 21.2788V20.7496Z" fill="#CAD0E5"/>
<path d="M12.597 22.106H12.1065C11.9139 22.106 11.7578 22.2623 11.7578 22.4552V22.9845C11.7578 23.1773 11.9139 23.3336 12.1065 23.3336H12.597C12.7896 23.3336 12.9458 23.1773 12.9458 22.9845V22.4552C12.9458 22.2623 12.7896 22.106 12.597 22.106Z" fill="#CAD0E5"/>
<path d="M17.6702 3.3335H16.8214C16.6288 3.3335 16.4727 3.48984 16.4727 3.6827V4.17376C16.4727 4.36662 16.6288 4.52297 16.8214 4.52297H17.6702C17.8628 4.52297 18.0189 4.36662 18.0189 4.17376V3.6827C18.0189 3.48984 17.8628 3.3335 17.6702 3.3335Z" fill="#CAD0E5"/>
<path d="M11.2833 8.48535H8.02456C7.83195 8.48535 7.67578 8.6417 7.67578 8.83455V9.32561C7.67578 9.5185 7.83195 9.67483 8.02456 9.67483H11.2833C11.4759 9.67483 11.6321 9.5185 11.6321 9.32561V8.83455C11.6321 8.6417 11.4759 8.48535 11.2833 8.48535Z" fill="#CAD0E5"/>
<path d="M17.0662 5.03857H15.3605C15.1679 5.03857 15.0117 5.19491 15.0117 5.38777V5.87884C15.0117 6.0717 15.1679 6.22804 15.3605 6.22804H17.0662C17.2588 6.22804 17.4149 6.0717 17.4149 5.87884V5.38777C17.4149 5.19491 17.2588 5.03857 17.0662 5.03857Z" fill="#CAD0E5"/>
<path d="M17.065 6.74365H13.8839C13.6913 6.74365 13.5352 6.9 13.5352 7.09286V7.58392C13.5352 7.77678 13.6913 7.93312 13.8839 7.93312H17.065C17.2576 7.93312 17.4137 7.77678 17.4137 7.58392V7.09286C17.4137 6.9 17.2576 6.74365 17.065 6.74365Z" fill="#CAD0E5"/>
<path d="M27.5157 10.1904H25.9503C25.7577 10.1904 25.6016 10.3468 25.6016 10.5396V11.0307C25.6016 11.2235 25.7577 11.3799 25.9503 11.3799H27.5157C27.7083 11.3799 27.8645 11.2235 27.8645 11.0307V10.5396C27.8645 10.3468 27.7083 10.1904 27.5157 10.1904Z" fill="#CAD0E5"/>
<path d="M15.0689 11.896H4.58704C4.39443 11.896 4.23828 12.0523 4.23828 12.2452V12.7363C4.23828 12.9291 4.39443 13.0855 4.58704 13.0855H15.0689C15.2616 13.0855 15.4177 12.9291 15.4177 12.7363V12.2452C15.4177 12.0523 15.2616 11.896 15.0689 11.896Z" fill="#CAD0E5"/>
<path d="M18.4057 15.3062H14.7355C14.5429 15.3062 14.3867 15.4625 14.3867 15.6553V16.1464C14.3867 16.3393 14.5429 16.4956 14.7355 16.4956H18.4057C18.5983 16.4956 18.7544 16.3393 18.7544 16.1464V15.6553C18.7544 15.4625 18.5983 15.3062 18.4057 15.3062Z" fill="#CAD0E5"/>
<path d="M19.8967 13.6011H6.39175C6.19914 13.6011 6.04297 13.7575 6.04297 13.9503V14.4414C6.04297 14.6342 6.19914 14.7906 6.39175 14.7906H19.8967C20.0893 14.7906 20.2455 14.6342 20.2455 14.4414V13.9503C20.2455 13.7575 20.0893 13.6011 19.8967 13.6011Z" fill="#CAD0E5"/>
<path d="M8.80276 15.3062H4.21985C4.02724 15.3062 3.87109 15.4625 3.87109 15.6553V16.1464C3.87109 16.3393 4.02724 16.4956 4.21985 16.4956H8.80276C8.99537 16.4956 9.15154 16.3393 9.15154 16.1464V15.6553C9.15154 15.4625 8.99537 15.3062 8.80276 15.3062Z" fill="#CAD0E5"/>
<path d="M10.0742 16.9917H9.04013C8.84752 16.9917 8.69141 17.148 8.69141 17.3409V17.8701C8.69141 18.063 8.84752 18.2194 9.04013 18.2194H10.0742C10.2668 18.2194 10.423 18.063 10.423 17.8701V17.3409C10.423 17.148 10.2668 16.9917 10.0742 16.9917Z" fill="#CAD0E5"/>
<path d="M16.321 16.9917H15.1534C14.9608 16.9917 14.8047 17.148 14.8047 17.3409V17.8701C14.8047 18.063 14.9608 18.2194 15.1534 18.2194H16.321C16.5136 18.2194 16.6697 18.063 16.6697 17.8701V17.3409C16.6697 17.148 16.5136 16.9917 16.321 16.9917Z" fill="#CAD0E5"/>
<path d="M6.89792 16.9917H5.84487C5.65226 16.9917 5.49609 17.148 5.49609 17.3409V17.8701C5.49609 18.063 5.65226 18.2194 5.84487 18.2194H6.89792C7.09059 18.2194 7.2467 18.063 7.2467 17.8701V17.3409C7.2467 17.148 7.09059 16.9917 6.89792 16.9917Z" fill="#CAD0E5"/>
<path d="M21.1504 11.896H17.3332C17.1405 11.896 16.9844 12.0523 16.9844 12.2452V12.7363C16.9844 12.9291 17.1405 13.0855 17.3332 13.0855H21.1504C21.343 13.0855 21.4992 12.9291 21.4992 12.7363V12.2452C21.4992 12.0523 21.343 11.896 21.1504 11.896Z" fill="#CAD0E5"/>
<path d="M96.6864 18.3726C94.4997 18.3726 93.8864 17.2063 93.8986 16.2351C93.9014 15.9923 94.0569 15.8709 94.3019 15.8709H94.7397C94.9914 15.8709 95.1003 16.0046 95.1247 16.257C95.1892 16.8585 95.5825 17.2282 96.6714 17.2282C97.7597 17.2282 98.2842 16.8298 98.2842 16.2174C98.2842 15.6772 97.9775 15.4794 97.2164 15.3485L95.9058 15.1234C94.8075 14.9352 94.0803 14.3158 94.0803 13.2041C94.0803 11.9533 95.0081 11.0366 96.7242 11.0366C98.4408 11.0366 99.4258 11.9683 99.4108 13.0555C99.4081 13.2956 99.2475 13.417 99.0047 13.417H98.5619C98.3103 13.417 98.2186 13.2833 98.1836 13.0377C98.1192 12.5848 97.7503 12.1729 96.7242 12.1729C95.6986 12.1729 95.3047 12.604 95.3047 13.1632C95.3047 13.6461 95.5842 13.8589 96.2814 13.983L97.5919 14.2136C98.7269 14.4141 99.5147 14.9692 99.5147 16.1601C99.5147 17.2718 98.8442 18.374 96.6847 18.374L96.6864 18.3726Z" fill="#CAD0E5"/>
<path d="M87.8634 17.8129C87.8634 18.0652 87.7272 18.2016 87.475 18.2016H87.0172C86.765 18.2016 86.6289 18.0652 86.6289 17.8129V8.87411C86.6289 8.62176 86.765 8.48535 87.0172 8.48535H87.4778C87.73 8.48535 87.8661 8.62176 87.8661 8.87411V12.0769C88.2761 11.4358 89.0089 11.0348 89.9489 11.0348C91.7445 11.0348 93.1056 12.4589 93.1056 14.7028C93.1056 16.9467 91.7445 18.3708 89.9489 18.3708C89.0061 18.3708 88.2722 17.9697 87.8617 17.3259V17.8115L87.8634 17.8129ZM91.8578 14.7042C91.8578 13.0864 90.9328 12.1902 89.8317 12.1902C88.7311 12.1902 87.7939 13.0864 87.7939 14.7042C87.7939 16.3219 88.7311 17.2181 89.8317 17.2181C90.9328 17.2181 91.8578 16.3219 91.8578 14.7042Z" fill="#CAD0E5"/>
<path d="M82.4035 11.0366C84.2835 11.0366 85.1363 11.9287 85.1324 13.372L85.1268 16.0346C85.1268 16.5447 85.1446 17.2759 85.2113 17.7861C85.244 18.0507 85.1324 18.2021 84.8651 18.2021H84.4524C84.2129 18.2021 84.0763 18.1107 84.0518 17.9252L83.9824 17.4C83.6118 18.0098 82.8874 18.3235 81.999 18.3235C80.394 18.3235 79.4062 17.3755 79.4062 16.0851C79.4062 14.9556 80.2007 14.26 81.5535 14.1631L83.5274 14.024C83.8857 13.9994 83.9007 13.9667 83.9007 13.6325V13.3378C83.9007 12.5603 83.4307 12.1661 82.4024 12.1661C81.3735 12.1661 80.9524 12.5521 80.9101 13.0923C80.8929 13.3474 80.804 13.4838 80.5468 13.4838H80.074C79.8285 13.4838 79.6735 13.3597 79.6707 13.1168C79.6613 11.9806 80.4951 11.0366 82.4035 11.0366ZM80.6568 16.0987C80.6568 16.7794 81.2113 17.2677 82.1585 17.2677C83.2646 17.2677 83.9024 16.5993 83.9024 15.5981V14.9392C83.7563 14.9911 83.5835 15.0279 83.3857 15.0456L81.6568 15.2093C81.0263 15.2707 80.6557 15.5135 80.6557 16.0987H80.6568Z" fill="#CAD0E5"/>
<path d="M73.4743 18.2016C73.2221 18.2016 73.0859 18.0652 73.0859 17.8129V8.87411C73.0859 8.62176 73.2221 8.48535 73.4743 8.48535H73.9593C74.2115 8.48535 74.3476 8.62176 74.3476 8.87411V17.0053H78.7032C78.9548 17.0053 79.0915 17.1417 79.0915 17.3941V17.8129C79.0915 18.0652 78.9548 18.2016 78.7032 18.2016H73.4743Z" fill="#CAD0E5"/>
<path d="M68.8342 18.3726C66.8087 18.3726 65.4531 16.9267 65.4531 14.6596C65.4531 12.3925 66.7881 11.0366 68.7198 11.0366C70.652 11.0366 71.8915 12.4457 71.8915 14.4468V14.5955C71.8915 14.8478 71.7553 14.9843 71.5031 14.9843H66.7026C66.8087 16.3783 67.6081 17.2227 68.8342 17.2227C69.6859 17.2227 70.2048 16.8885 70.4148 16.3061C70.4937 16.0851 70.6081 15.9691 70.8426 15.9691H71.2881C71.5481 15.9691 71.7037 16.1151 71.6587 16.3729C71.4553 17.5569 70.352 18.374 68.8359 18.374L68.8342 18.3726ZM66.7515 13.9367H70.6326C70.4898 12.8127 69.7992 12.1238 68.7187 12.1238C67.6381 12.1238 66.957 12.7977 66.7504 13.9367H66.7515Z" fill="#CAD0E5"/>
<path d="M61.5266 18.2019C61.3022 18.2019 61.1633 18.1051 61.0811 17.895L58.7955 11.844C58.7233 11.6557 58.7188 11.5248 58.7855 11.3911C58.85 11.2642 58.9766 11.2056 59.1961 11.2056H59.5349C59.7599 11.2056 59.9016 11.3025 59.9805 11.5152L61.8388 16.52L61.9422 16.8419L62.0461 16.52L63.9055 11.5152C63.9844 11.3025 64.1261 11.2056 64.3511 11.2056H64.6899C64.9083 11.2056 65.0361 11.2628 65.1005 11.3911C65.1672 11.5248 65.1644 11.6557 65.0905 11.844L62.8049 17.895C62.7227 18.1051 62.5838 18.2019 62.3594 18.2019H61.5283H61.5266Z" fill="#CAD0E5"/>
<path d="M56.6562 8.87411C56.6562 8.62176 56.7924 8.48535 57.0446 8.48535H57.5051C57.7568 8.48535 57.8935 8.62176 57.8935 8.87411V17.8129C57.8935 18.0652 57.7568 18.2016 57.5051 18.2016H57.0446C56.7924 18.2016 56.6562 18.0652 56.6562 17.8129V8.87411Z" fill="#CAD0E5"/>
<path d="M52.4829 18.3721C50.4571 18.3721 49.1016 16.9262 49.1016 14.6591C49.1016 12.392 50.4353 11.0361 52.3671 11.0361C54.2989 11.0361 55.5386 12.4452 55.5386 14.4464V14.595C55.5386 14.8474 55.4024 14.9838 55.1503 14.9838H50.3495C50.4557 16.3779 51.2568 17.2222 52.4815 17.2222C53.3343 17.2222 53.8521 16.888 54.0618 16.3056C54.1408 16.0846 54.2553 15.9686 54.4896 15.9686H54.9351C55.1953 15.9686 55.3506 16.1146 55.3043 16.3724C55.1013 17.5564 53.9978 18.3735 52.4815 18.3735L52.4829 18.3721ZM50.3998 13.9362H54.2812C54.1381 12.8122 53.4475 12.1233 52.3671 12.1233C51.2867 12.1233 50.6056 12.7972 50.3985 13.9362H50.3998Z" fill="#CAD0E5"/>
<path d="M40.7474 18.2015C40.5198 18.2015 40.3768 18.0978 40.3101 17.8795L38.4423 11.834C38.381 11.643 38.3851 11.5148 38.4477 11.3852C38.5118 11.2611 38.6357 11.2065 38.8537 11.2065H39.1997C39.43 11.2065 39.5703 11.3102 39.6371 11.5312L41.1533 16.5509L41.1806 16.6724L41.2078 16.5455L42.7664 11.5298C42.8331 11.3115 42.9762 11.2079 43.2037 11.2079H43.9067C44.1342 11.2079 44.2772 11.3115 44.3439 11.5298L45.9025 16.5455L45.9325 16.6819L45.9624 16.5482L47.4787 11.5325C47.5454 11.3115 47.6845 11.2079 47.9161 11.2079H48.2553C48.4732 11.2079 48.5972 11.2624 48.6612 11.3866C48.7253 11.5175 48.728 11.6444 48.6667 11.8354L46.7989 17.8809C46.7322 18.0992 46.5891 18.2028 46.3616 18.2028H45.5823C45.3548 18.2028 45.2118 18.0992 45.145 17.8809L43.5892 12.8653L43.5497 12.707L43.5102 12.8653L41.9571 17.8809C41.8877 18.0992 41.7446 18.2028 41.5171 18.2028H40.7433L40.7474 18.2015Z" fill="#CAD0E5"/>
<path d="M33.0914 9.67616C32.8393 9.67616 32.7031 9.53977 32.7031 9.28744V8.87411C32.7031 8.62176 32.8393 8.48535 33.0914 8.48535H39.7233C39.9753 8.48535 40.1116 8.62176 40.1116 8.87411V9.28744C40.1116 9.53977 39.9753 9.67616 39.7233 9.67616H37.0395V17.8142C37.0395 18.0666 36.9032 18.203 36.6512 18.203H36.1662C35.9142 18.203 35.7779 18.0666 35.7779 17.8142V9.67616H33.0914Z" fill="#CAD0E5"/>
</g>
</g>
<defs>
<clipPath id="clip0_368_1427">
<rect width="99.5833" height="26.6667" fill="white"/>
</clipPath>
</defs>
</svg>
