<svg width="101" height="40" viewBox="0 0 101 40" fill="none" xmlns="http://www.w3.org/2000/svg">
<path d="M100.742 25.4232L98.2169 21.0709C99.0488 20.7165 99.7327 20.0857 100.153 19.2851C100.573 18.4845 100.704 17.5633 100.523 16.6773C100.342 15.7914 99.8612 14.9951 99.1609 14.4231C98.4606 13.8512 97.5842 13.5387 96.68 13.5386H91.1415C90.9579 13.5386 90.7818 13.6115 90.652 13.7413C90.5222 13.8712 90.4492 14.0473 90.4492 14.2309V25.7693C90.4492 25.953 90.5222 26.129 90.652 26.2589C90.7818 26.3887 90.9579 26.4617 91.1415 26.4617H91.6031C91.7867 26.4617 91.9628 26.3887 92.0926 26.2589C92.2224 26.129 92.2954 25.953 92.2954 25.7693V21.3847H96.3292L99.0754 26.1155C99.1362 26.2218 99.2243 26.31 99.3306 26.3708C99.4369 26.4317 99.5575 26.463 99.68 26.4617H100.142C100.325 26.4617 100.501 26.3887 100.631 26.2589C100.761 26.129 100.834 25.953 100.834 25.7693C100.834 25.6478 100.803 25.5283 100.742 25.4232ZM92.2954 15.3847H96.68C97.2308 15.3847 97.7591 15.6035 98.1486 15.993C98.5381 16.3825 98.7569 16.9108 98.7569 17.4617C98.7569 18.0125 98.5381 18.5408 98.1486 18.9303C97.7591 19.3198 97.2308 19.5386 96.68 19.5386H92.2954V15.3847Z" fill="#CAD0E5"/>
<path d="M86.5252 13.5386H76.8329C76.6493 13.5386 76.4732 13.6115 76.3434 13.7413C76.2136 13.8712 76.1406 14.0473 76.1406 14.2309V14.6924C76.1406 14.876 76.2136 15.0521 76.3434 15.182C76.4732 15.3118 76.6493 15.3847 76.8329 15.3847H80.756V25.7693C80.756 25.953 80.829 26.129 80.9588 26.2589C81.0886 26.3887 81.2647 26.4617 81.4483 26.4617H81.9099C82.0935 26.4617 82.2696 26.3887 82.3994 26.2589C82.5292 26.129 82.6022 25.953 82.6022 25.7693V15.3847H86.5252C86.7089 15.3847 86.8849 15.3118 87.0148 15.182C87.1446 15.0521 87.2175 14.876 87.2175 14.6924V14.2309C87.2175 14.0473 87.1446 13.8712 87.0148 13.7413C86.8849 13.6115 86.7089 13.5386 86.5252 13.5386Z" fill="#CAD0E5"/>
<path d="M76.3699 24.6155H70.1391V14.2309C70.1391 14.0473 70.0662 13.8712 69.9363 13.7413C69.8065 13.6115 69.6304 13.5386 69.4468 13.5386H68.9853C68.8017 13.5386 68.6256 13.6115 68.4957 13.7413C68.3659 13.8712 68.293 14.0473 68.293 14.2309V25.7693C68.293 25.953 68.3659 26.129 68.4957 26.2589C68.6256 26.3887 68.8017 26.4617 68.9853 26.4617H76.3699C76.5535 26.4617 76.7296 26.3887 76.8594 26.2589C76.9893 26.129 77.0622 25.953 77.0622 25.7693V25.3078C77.0622 25.1242 76.9893 24.9481 76.8594 24.8183C76.7296 24.6884 76.5535 24.6155 76.3699 24.6155Z" fill="#CAD0E5"/>
<path d="M64.6037 14.2309C64.6037 14.0473 64.5307 13.8712 64.4009 13.7413C64.2711 13.6115 64.095 13.5386 63.9114 13.5386H63.4498C63.2662 13.5386 63.0901 13.6115 62.9603 13.7413C62.8305 13.8712 62.7575 14.0473 62.7575 14.2309V21.3847C62.7575 22.3028 62.3928 23.1832 61.7437 23.8324C61.0945 24.4816 60.214 24.8463 59.296 24.8463C58.3779 24.8463 57.4975 24.4816 56.8483 23.8324C56.1991 23.1832 55.8344 22.3028 55.8344 21.3847V14.2309C55.8344 14.0473 55.7615 13.8712 55.6317 13.7413C55.5018 13.6115 55.3257 13.5386 55.1421 13.5386H54.6806C54.497 13.5386 54.3209 13.6115 54.1911 13.7413C54.0612 13.8712 53.9883 14.0473 53.9883 14.2309V21.3847C53.9883 22.7924 54.5475 24.1424 55.5429 25.1378C56.5383 26.1332 57.8883 26.6924 59.296 26.6924C60.7037 26.6924 62.0537 26.1332 63.0491 25.1378C64.0445 24.1424 64.6037 22.7924 64.6037 21.3847V14.2309Z" fill="#CAD0E5"/>
<path d="M50.5258 13.5386H50.0643C49.9263 13.5387 49.7915 13.5801 49.6772 13.6574C49.5629 13.7347 49.4743 13.8444 49.4228 13.9724L45.4489 23.9647L41.452 13.9724C41.4005 13.8444 41.3119 13.7347 41.1976 13.6574C41.0833 13.5801 40.9485 13.5387 40.8105 13.5386H40.3489C40.1693 13.5446 39.9991 13.6201 39.8742 13.7493C39.7494 13.8785 39.6796 14.0512 39.6797 14.2309C39.6805 14.3194 39.6977 14.4071 39.7305 14.4893L44.3458 26.0278C44.3968 26.1562 44.4853 26.2662 44.5997 26.3436C44.7142 26.421 44.8492 26.4621 44.9874 26.4617H45.9105C46.0486 26.4621 46.1837 26.421 46.2981 26.3436C46.4125 26.2662 46.501 26.1562 46.552 26.0278L51.1674 14.4893C51.2002 14.4071 51.2174 14.3194 51.2181 14.2309C51.2181 14.0473 51.1452 13.8712 51.0154 13.7413C50.8855 13.6115 50.7095 13.5386 50.5258 13.5386Z" fill="#CAD0E5"/>
<path d="M9.64721 8.64615C9.52278 8.44879 9.35049 8.28608 9.14635 8.17311C8.94221 8.06015 8.71283 8.0006 8.47952 8H1.38567C1.13796 7.99981 0.894731 8.06608 0.681349 8.1919C0.467968 8.31771 0.292247 8.49847 0.172508 8.71532C0.0527688 8.93217 -0.00660302 9.17717 0.00058284 9.42478C0.0077687 9.67239 0.0812491 9.91354 0.213362 10.1231L1.66721 12.4308L11.1057 10.9538L9.64721 8.64615Z" fill="#CAD0E5"/>
<path d="M11.1049 10.9538C10.9801 10.7558 10.8071 10.5926 10.6021 10.4796C10.3971 10.3666 10.1667 10.3074 9.93264 10.3076H2.8388C2.59108 10.3074 2.34786 10.3737 2.13447 10.4995C1.92109 10.6253 1.74537 10.8061 1.62563 11.0229C1.50589 11.2398 1.44652 11.4848 1.45371 11.7324C1.46089 11.98 1.53437 12.2212 1.66649 12.4307L3.69264 15.6615L13.1265 14.1845L11.1049 10.9538Z" fill="#CAD0E5"/>
<path d="M3.69111 15.6617C3.5548 15.4399 3.48585 15.1834 3.49265 14.9232C3.49265 14.556 3.63852 14.2038 3.89819 13.9441C4.15786 13.6845 4.51004 13.5386 4.87726 13.5386H11.9665C12.2006 13.5384 12.4309 13.5976 12.6359 13.7106C12.8409 13.8236 13.0139 13.9867 13.1388 14.1847L19.485 24.2509C19.6243 24.472 19.6983 24.728 19.6983 24.9893C19.6983 25.2507 19.6243 25.5067 19.485 25.7278L15.9403 31.354C15.8157 31.5523 15.6428 31.7158 15.4377 31.8291C15.2327 31.9424 15.0023 32.0018 14.768 32.0018C14.5338 32.0018 14.3034 31.9424 14.0983 31.8291C13.8933 31.7158 13.7204 31.5523 13.5957 31.354L3.69111 15.6617Z" fill="#CAD0E5"/>
<path d="M21.5931 18.6754C21.718 18.8727 21.8908 19.0352 22.0953 19.1479C22.2999 19.2605 22.5296 19.3196 22.7631 19.3196C22.9966 19.3196 23.2264 19.2605 23.4309 19.1479C23.6355 19.0352 23.8082 18.8727 23.9331 18.6754L25.1562 16.7415L27.4639 13.0492C27.6042 12.8276 27.6787 12.5707 27.6787 12.3085C27.6787 12.0462 27.6042 11.7893 27.4639 11.5677L25.6177 8.64154C25.494 8.447 25.3237 8.28643 25.1222 8.1744C24.9207 8.06237 24.6944 8.00242 24.4639 8H17.37C17.1223 7.99981 16.8791 8.06608 16.6657 8.1919C16.4523 8.31771 16.2766 8.49847 16.1569 8.71532C16.0371 8.93217 15.9778 9.17717 15.985 9.42478C15.9921 9.67239 16.0656 9.91354 16.1977 10.1231L21.5931 18.6754Z" fill="#CAD0E5"/>
</svg>
