<svg width="112" height="40" viewBox="0 0 112 40" fill="none" xmlns="http://www.w3.org/2000/svg">
<g clip-path="url(#clip0_369_1606)">
<path d="M18.7942 17.8423C17.3858 16.084 15.4142 14.3782 12.8342 12.839L12.8242 12.834C10.2233 11.3315 7.78417 10.449 5.58333 10.0873C4.2075 9.86151 3.55167 10.1248 3.2525 10.2998C2.95417 10.4748 2.40167 10.9215 1.90667 12.2448C1.115 14.3648 0.645833 16.9523 0.625 19.9948V20.0057C0.645833 23.0473 1.11417 25.6348 1.90667 27.7548C2.40167 29.0782 2.95417 29.5248 3.2525 29.6998C3.55083 29.8748 4.20833 30.1382 5.5825 29.9123C7.78417 29.5507 10.2233 28.6682 12.8242 27.1665L12.8342 27.1607C15.4142 25.6215 17.385 23.9148 18.7942 22.1573C19.6742 21.0598 19.7783 20.3507 19.7783 19.999C19.7783 19.649 19.6742 18.9398 18.795 17.8423" fill="#CAD0E5"/>
<path d="M24.7812 24.5165L33.2396 16.3099H25.0071V14.2207H36.5112V16.6124L28.0529 24.8182H36.7129V26.9082H24.7812V24.5165ZM37.1154 23.459C37.1154 20.6399 39.5321 19.859 41.6713 19.5832L45.6488 19.079C46.6054 18.954 46.8821 18.5257 46.8821 17.9465V17.9215C46.8821 16.7882 45.9004 15.9582 43.7612 15.9582C41.6971 15.9582 40.5387 16.7382 40.3371 18.0474H37.6687C37.9712 15.4799 40.2113 13.894 43.8363 13.894C47.8896 13.894 49.5504 15.6057 49.5504 18.4249V26.9082H47.0087V24.894C45.9254 26.4549 43.9871 27.2357 41.7971 27.2357C38.9021 27.2357 37.1154 25.7757 37.1154 23.459ZM46.8821 21.169V20.5649C46.4546 20.7407 45.9762 20.8415 45.4471 20.9165L42.2754 21.3449C40.6396 21.5715 39.8838 22.1757 39.8838 23.2832C39.8838 24.4665 40.8912 25.1715 42.5271 25.1715C45.2212 25.1715 46.8821 23.3332 46.8821 21.169ZM50.7346 10.999H53.4029V26.9074H50.7346V10.999ZM54.2837 23.459C54.2837 20.6399 56.7004 19.859 58.8396 19.5832L62.8171 19.079C63.7737 18.954 64.0504 18.5257 64.0504 17.9465V17.9215C64.0504 16.7882 63.0687 15.9582 60.9287 15.9582C58.8646 15.9582 57.7071 16.7382 57.5054 18.0474H54.8371C55.1396 15.4799 57.3796 13.894 61.0046 13.894C65.0571 13.894 66.7187 15.6057 66.7187 18.4249V26.9082H64.1771V24.894C63.0938 26.4549 61.1554 27.2357 58.9654 27.2357C56.0704 27.2357 54.2837 25.7757 54.2837 23.459ZM64.0504 21.169V20.5649C63.6229 20.7407 63.1446 20.8415 62.6154 20.9165L59.4437 21.3449C57.8079 21.5715 57.0521 22.1757 57.0521 23.2832C57.0521 24.4665 58.0596 25.1715 59.6954 25.1715C62.3888 25.1715 64.0504 23.3332 64.0504 21.169ZM67.9013 14.2207H70.5704V16.2849C71.5262 14.7749 73.3387 13.8932 75.5537 13.8932C78.8771 13.8932 80.8404 15.8065 80.8404 19.3315V26.9082H78.1721V19.7082C78.1721 17.3674 76.9388 16.0832 74.6729 16.0832C72.2313 16.0832 70.5704 17.7199 70.5704 20.0357V26.9082H67.9013V14.2207ZM81.7221 20.514C81.7221 16.4107 84.5662 13.8932 87.9646 13.8932C90.0037 13.8932 91.7663 14.6232 92.8229 16.134V10.999H95.4912V26.9074H92.8229V24.9699C91.6654 26.5307 90.0037 27.2349 87.9646 27.2349C84.5662 27.2349 81.7221 24.6682 81.7221 20.514ZM92.8987 20.539C92.8987 17.8957 91.3379 16.0582 88.6946 16.0582C86.0771 16.0582 84.4912 17.8707 84.4912 20.514C84.4912 23.1824 86.0771 25.0707 88.6946 25.0707C91.3379 25.0707 92.8987 23.1824 92.8987 20.539ZM96.3729 20.539C96.3729 16.6374 99.0163 13.894 103.37 13.894C107.751 13.894 110.369 16.6374 110.369 20.539C110.369 24.4407 107.751 27.2357 103.37 27.2357C99.0163 27.2357 96.3729 24.4415 96.3729 20.539ZM107.6 20.539C107.6 18.0724 106.24 16.059 103.37 16.059C100.5 16.059 99.1421 18.0724 99.1421 20.539C99.1421 23.0315 100.501 25.0707 103.37 25.0707C106.24 25.0707 107.6 23.0315 107.6 20.539Z" fill="#CAD0E5"/>
</g>
<defs>
<clipPath id="clip0_369_1606">
<rect width="110" height="20" fill="white" transform="translate(0.625 10)"/>
</clipPath>
</defs>
</svg>
