<svg width="195" height="104" viewBox="0 0 195 104" fill="none" xmlns="http://www.w3.org/2000/svg">
<g clip-path="url(#clip0_16174_8660)">
<path fill-rule="evenodd" clip-rule="evenodd" d="M39.0926 30.877C43.5717 30.7938 46.6656 34.0845 46.6658 37.7852C46.6658 40.3349 45.8514 42.3923 42.9207 44.0372C35.51 48.2327 27.204 59.0914 26.2274 72.9932C26.1458 73.4045 25.7384 73.4045 25.576 72.9932C19.2243 53.004 30.6244 31.0416 39.0926 30.877ZM91.1961 42.6388C96.4962 42.6388 99.8397 46.8223 99.8397 52.8575C99.8397 59.0525 96.0883 63.0762 90.8699 63.0763C86.3858 63.0763 84.7547 59.6163 84.7547 59.6163H84.6727C84.6727 59.6163 84.7547 60.3405 84.7547 61.3057V73.295H81.0858V43.0401H84.5916V45.293C84.5916 45.8487 84.5117 46.3266 84.5096 46.3389H84.5916C84.6099 46.2997 86.3302 42.6388 91.1961 42.6388ZM4.48713 53.3331C10.107 53.3331 17.7605 61.807 19.3074 66.9063C19.3887 67.2357 19.063 67.3994 18.8192 67.2354C15.2357 64.2738 9.45415 62.2179 4.65022 62.2179C2.53304 62.2178 0.17184 60.8193 0.00861731 58.0225C-0.0293988 57.4148 0.0586366 56.8055 0.267406 56.2335C0.47623 55.6614 0.801841 55.1387 1.22248 54.6983C1.6431 54.258 2.14988 53.9088 2.71174 53.6739C3.27361 53.4391 3.87824 53.323 4.48713 53.3331ZM47.7254 53.2511C48.3343 53.2409 48.9389 53.3571 49.5008 53.5919C50.0627 53.8267 50.5704 54.175 50.991 54.6153C51.4116 55.0556 51.7363 55.5785 51.9451 56.1505C52.154 56.7226 52.242 57.3326 52.2039 57.9405C52.0405 60.7371 49.6785 62.1358 47.5614 62.1358C42.839 62.136 37.0575 64.3566 33.3934 67.1534C33.1486 67.3171 32.8235 67.1528 32.9051 66.8233C34.4522 61.7239 42.1072 53.2511 47.7254 53.2511ZM69.5887 42.5567C72.3611 42.5567 73.8292 43.442 75.7049 44.6495L74.1541 46.9825C72.2795 46.1773 71.3011 45.6144 69.4256 45.6143C67.5508 45.6143 66.0831 46.4191 66.0828 48.1085C66.0828 51.9709 76.2752 50.6031 76.2752 57.2013C76.2752 60.4999 73.4209 62.9141 69.1815 62.9141C65.9195 62.9141 63.4735 61.5468 62.0057 60.42L63.5555 58.087C64.7786 58.8922 66.9801 59.8575 69.2635 59.8575C71.2197 59.8574 72.6061 58.9726 72.6063 57.2833C72.6063 53.5016 62.4139 54.7078 62.4139 48.1895C62.414 44.4879 65.6749 42.5567 69.5887 42.5567ZM155.695 50.1222H158.549L164.094 43.0401H168.089L161.729 51.5704V51.6495L168.823 62.5938L164.583 62.6739L158.631 53.42H155.695V62.6739H151.944V32.5001H155.695V50.1222ZM176.488 56.7188C176.488 59.1329 178.526 59.2139 179.342 59.2139V62.6739C176.243 62.6739 172.737 62.1105 172.737 57.2833V32.5001H176.488V56.7188ZM122.754 62.5948H119.002V43.0411H122.754V62.5948ZM139.388 42.5587C144.035 42.5588 146.155 45.0528 146.155 50.0411V62.5938H142.241V50.9259C142.241 48.1903 141.67 46.0177 138.572 46.0177C134.739 46.0177 131.968 49.1557 131.968 53.1788V62.5938H128.216V43.0401H131.886V46.0177C131.886 46.576 131.806 47.1345 131.805 47.1436H131.886C132.701 45.4547 135.066 42.5587 139.388 42.5587ZM115.17 46.502L115.088 46.5011C111.256 46.5013 107.831 50.6853 107.831 54.4669V62.5929H104.08V43.0411H107.75V46.5011C107.75 47.3062 107.669 47.9503 107.669 47.9503H107.75C108.646 45.3753 112.153 42.7999 115.17 42.7999V46.502ZM194.997 46.3389H194.916C191.084 46.3389 187.658 50.524 187.658 54.3057V62.4317H183.908V42.88H187.577V46.3389C187.577 47.1389 187.496 47.7797 187.495 47.7882H187.577C188.475 45.2134 191.98 42.639 194.997 42.6388V46.3389ZM90.4627 45.8575C87.5271 45.8575 84.7547 47.8683 84.7547 52.8575C84.7547 56.3169 86.7113 59.7774 90.2996 59.7774C93.3975 59.7773 96.0066 57.2828 96.0067 52.8575C96.0067 48.5928 93.7238 45.8576 90.4627 45.8575ZM8.63948 33.7559C9.37208 33.8375 10.2678 33.8379 11.6522 34.9073C17.6767 40.2539 21.26 49.6328 20.201 57.7755C20.1193 58.1862 19.7129 58.1862 19.5496 57.7755C17.8403 51.9353 12.2209 45.2729 7.25373 43.2159C4.89252 42.3111 3.59055 40.583 3.75373 38.1973C3.91707 35.7294 5.95202 33.5911 8.63948 33.7559ZM120.878 34.2706C122.184 34.2706 123.242 35.3146 123.242 36.6036C123.242 37.8927 122.183 38.9376 120.878 38.9376C119.572 38.9376 118.513 37.8927 118.513 36.6036C118.514 35.3146 119.572 34.2706 120.878 34.2706Z" fill="white"/>
</g>
<defs>
<clipPath id="clip0_16174_8660">
<rect width="195" height="104" fill="white"/>
</clipPath>
</defs>
</svg>
