<svg width="114" height="61" viewBox="0 0 114 61" fill="none" xmlns="http://www.w3.org/2000/svg">
<g clip-path="url(#clip0_17380_1727)">
<path d="M22.8546 18.633C25.4731 18.5843 27.2821 20.5086 27.2824 22.672C27.2824 24.1626 26.8062 25.3657 25.0929 26.3273C20.7605 28.78 15.9042 35.1278 15.3332 43.2551C15.2855 43.4955 15.0472 43.4955 14.9523 43.2551C11.2392 31.569 17.904 18.7289 22.8546 18.633ZM53.3146 25.509C56.4131 25.509 58.3683 27.9553 58.3683 31.4836C58.3683 35.1053 56.175 37.4572 53.1242 37.4572C50.5027 37.4572 49.549 35.4347 49.549 35.4347H49.5011C49.5011 35.4347 49.549 35.8579 49.549 36.422V43.4318H47.4044V25.7443H49.4542V27.0617C49.4542 27.3883 49.4071 27.6688 49.4064 27.673H49.4542C49.4648 27.6504 50.47 25.5091 53.3146 25.509ZM2.62319 31.7619C5.90858 31.7619 10.3827 36.7153 11.2873 39.6965C11.335 39.8892 11.1447 39.9857 11.0021 39.8898C8.90717 38.1584 5.5274 36.9562 2.71889 36.9562C1.48115 36.9562 0.100421 36.1381 0.00502712 34.5031C-0.0171796 34.1478 0.0343471 33.7916 0.156394 33.4572C0.278476 33.1227 0.469073 32.8172 0.714988 32.5597C0.960885 32.3023 1.25762 32.0984 1.58608 31.9611C1.91436 31.8239 2.26745 31.7561 2.62319 31.7619ZM27.9015 31.714C28.2573 31.7081 28.6103 31.7761 28.9386 31.9133C29.2672 32.0505 29.5637 32.2544 29.8097 32.5119C30.0557 32.7694 30.2462 33.0749 30.3683 33.4094C30.4903 33.7437 30.5419 34.1 30.5197 34.4552C30.4242 36.0901 29.0435 36.9073 27.8058 36.9074C25.045 36.9074 21.6648 38.2059 19.5226 39.841C19.3795 39.9368 19.1898 39.8413 19.2374 39.6486C20.1418 36.6674 24.617 31.714 27.9015 31.714ZM40.6828 25.4621C42.3033 25.4621 43.1616 25.979 44.258 26.6847L43.3517 28.049C42.2559 27.5783 41.6835 27.2492 40.5871 27.2492C39.4913 27.2493 38.6332 27.7198 38.633 28.7072C38.633 30.9653 44.5919 30.1662 44.5919 34.0236C44.5917 35.9518 42.9227 37.3635 40.4445 37.3635C38.5377 37.3633 37.1082 36.5631 36.2501 35.9045L37.1554 34.5402C37.8704 35.011 39.1573 35.5753 40.4923 35.5754C41.6361 35.5754 42.4464 35.0583 42.4464 34.0705C42.4458 31.8601 36.4887 32.5652 36.4884 28.7551C36.4884 26.591 38.3947 25.4621 40.6828 25.4621ZM91.0226 29.884H92.6906L95.9318 25.7443H98.2677L94.5499 30.7306V30.7775L98.6974 37.176L96.2179 37.2219L92.7384 31.8127H91.0226V37.2219H88.8292V19.5822H91.0226V29.884ZM103.178 33.7414C103.178 35.1522 104.369 35.2003 104.846 35.2004V37.2219C103.034 37.2218 100.985 36.8926 100.985 34.0705V19.5822H103.178V33.7414ZM71.7638 37.176H69.5705V25.7453H71.7638V37.176ZM81.4884 25.4631C84.2052 25.4631 85.4445 26.9209 85.4445 29.8371V37.176H83.1564V30.3547C83.1564 28.7554 82.8229 27.4856 81.0119 27.4855C78.771 27.4855 77.1505 29.32 77.1505 31.672V37.176H74.9572V25.7443H77.1027V27.4855C77.1026 27.8145 77.0548 28.1437 77.0548 28.1437H77.1027C77.5792 27.1564 78.9618 25.4631 81.4884 25.4631ZM67.3302 27.7677H67.2824C65.0421 27.7679 63.0404 30.2133 63.0402 32.424V37.175H60.8468V25.7453H62.9923V27.7677C62.9923 28.2337 62.9454 28.6071 62.9445 28.6144H62.9923C63.5166 27.1091 65.5664 25.6037 67.3302 25.6037V27.7677ZM113.999 27.673H113.951C111.711 27.673 109.708 30.1194 109.708 32.3302V37.0812H107.516V25.6506H109.66V27.673C109.66 28.1351 109.614 28.5061 109.612 28.5197H109.66C110.185 27.0144 112.235 25.509 113.999 25.509V27.673ZM52.8859 27.3908C51.1698 27.3909 49.549 28.567 49.549 31.4836C49.549 33.506 50.6934 35.5295 52.7912 35.5295C54.6021 35.5293 56.1271 34.0706 56.1271 31.4836C56.1271 28.9904 54.7924 27.3908 52.8859 27.3908ZM5.05093 20.3166C5.47925 20.3643 6.00324 20.3641 6.81264 20.9894C10.3347 24.1151 12.4298 29.5983 11.8107 34.3586C11.763 34.599 11.5243 34.599 11.4289 34.3586C10.4296 30.9445 7.14512 27.0495 4.24136 25.8469C2.86095 25.3179 2.09908 24.308 2.19448 22.9133C2.2899 21.4704 3.47975 20.2202 5.05093 20.3166ZM70.6671 20.6174C71.4308 20.6174 72.0499 21.228 72.0499 21.9816C72.0499 22.7352 71.4303 23.3459 70.6671 23.3459C69.9036 23.3458 69.2853 22.7352 69.2853 21.9816C69.2853 21.228 69.904 20.6174 70.6671 20.6174Z" fill="#B4BACC"/>
</g>
<defs>
<clipPath id="clip0_17380_1727">
<rect width="114" height="61" fill="white"/>
</clipPath>
</defs>
</svg>
