<svg width="158" height="50" viewBox="0 0 158 50" fill="none" xmlns="http://www.w3.org/2000/svg">
<path d="M156.376 30.952C156.265 30.952 156.156 30.9737 156.054 31.016C155.952 31.0583 155.859 31.1203 155.78 31.1985C155.702 31.2767 155.64 31.3695 155.598 31.4716C155.555 31.5738 155.534 31.6833 155.534 31.7939C155.534 31.9045 155.555 32.014 155.598 32.1162C155.64 32.2184 155.702 32.3112 155.78 32.3894C155.858 32.4677 155.951 32.5297 156.053 32.5721C156.155 32.6144 156.265 32.6363 156.375 32.6363C156.599 32.6364 156.813 32.5477 156.971 32.3898C157.129 32.232 157.218 32.0178 157.218 31.7944C157.218 31.5711 157.129 31.3569 156.971 31.1989C156.814 31.0409 156.599 30.9521 156.376 30.952ZM156.376 32.5045C156.188 32.5045 156.007 32.4297 155.874 32.2964C155.741 32.1632 155.666 31.9826 155.666 31.7942C155.666 31.6058 155.741 31.4251 155.874 31.2919C156.007 31.1587 156.188 31.0838 156.376 31.0838C156.564 31.0838 156.745 31.1587 156.878 31.2919C157.012 31.4251 157.086 31.6058 157.086 31.7942C157.086 31.9826 157.012 32.1632 156.878 32.2964C156.745 32.4297 156.564 32.5045 156.376 32.5045ZM156.65 31.6509C156.65 31.4976 156.54 31.4066 156.38 31.4066H156.11V32.1739H156.243V31.8955H156.387L156.526 32.1739H156.668L156.518 31.8668C156.559 31.8483 156.594 31.8178 156.617 31.7793C156.641 31.7408 156.652 31.696 156.65 31.6509ZM156.375 31.7782H156.244V31.5241H156.375C156.463 31.5241 156.517 31.5688 156.517 31.6509C156.517 31.733 156.463 31.7794 156.375 31.7794V31.7782ZM57.2107 20.372H58.6719V23.2644H56.9619C55.6451 23.2644 54.7999 23.9106 54.7999 25.2279V32.4992H51.674V20.3725H54.7999V22.41C55.0735 20.9687 56.0676 20.372 57.2107 20.372ZM63.4891 17.4887C63.489 17.7368 63.44 17.9824 63.345 18.2115C63.25 18.4406 63.1108 18.6488 62.9354 18.8241C62.7599 18.9995 62.5516 19.1385 62.3224 19.2333C62.0932 19.3282 61.8476 19.3769 61.5996 19.3768C61.0989 19.3767 60.6187 19.1777 60.2647 18.8236C59.9107 18.4696 59.7118 17.9894 59.7117 17.4887C59.7117 16.4198 60.5315 15.5749 61.6004 15.5749C62.669 15.5749 63.4891 16.4198 63.4891 17.4887ZM60.0415 20.3717H63.1579V32.4986H60.0404L60.0415 20.3717ZM71.7443 20.167C70.4156 20.1606 69.122 20.5931 68.0644 21.3973V20.3717H64.9474V36.0585H68.0644V31.4736C69.122 32.2779 70.4156 32.7105 71.7443 32.7041C75.2064 32.7041 78.0109 29.8977 78.0109 26.4356C78.0109 22.9741 75.2064 20.1676 71.7443 20.1676M71.4698 29.841C69.589 29.841 68.0644 28.3164 68.0644 26.4359C68.0644 24.5553 69.589 23.0305 71.4698 23.0305C73.3507 23.0305 74.8749 24.555 74.8749 26.4359C74.8749 28.3167 73.3504 29.8407 71.4698 29.841ZM135.166 28.6685C135.166 31.0067 133.16 32.7041 130.397 32.7041C127.633 32.7041 125.526 30.9665 125.526 28.4787V28.4111H128.576V28.4787C128.576 29.5168 129.317 30.2146 130.422 30.2146C131.526 30.2146 132.192 29.698 132.192 28.9296C132.192 28.2017 131.699 27.7946 130.376 27.4285L128.634 26.9533C126.803 26.4576 125.753 25.2648 125.753 23.6805C125.753 21.645 127.674 20.1676 130.321 20.1676C132.968 20.1676 134.788 21.6458 134.788 23.8469V23.9159H131.914V23.8469C131.914 23.0997 131.214 22.5145 130.321 22.5145C129.383 22.5145 128.728 22.945 128.728 23.5618C128.728 24.1789 129.194 24.5614 130.391 24.8728L132.21 25.3717C134.654 26.0237 135.166 27.5246 135.166 28.6685ZM89.076 21.3976C88.0179 20.5929 86.7237 20.1603 85.3944 20.167C81.9323 20.167 79.1261 22.9738 79.1261 26.4356C79.1261 29.8974 81.9331 32.7039 85.3944 32.7039C86.7231 32.7102 88.0167 32.2777 89.0743 31.4733V32.4989H92.1915V20.3723H89.0743L89.076 21.3976ZM89.076 26.4359C89.076 28.3164 87.5511 29.841 85.6705 29.8407C83.7897 29.8407 82.2651 28.3159 82.2654 26.4353C82.2654 24.5545 83.79 23.0302 85.6708 23.0302C87.5511 23.031 89.0751 24.5556 89.0751 26.4359H89.076ZM103.453 21.3976C102.396 20.5933 101.102 20.1607 99.7735 20.167C96.3117 20.167 93.505 22.9738 93.505 26.4356C93.505 29.8974 96.3117 32.7039 99.7735 32.7039C101.102 32.7102 102.396 32.2776 103.453 31.4733V32.4989H106.571V16.0555H103.453V21.3976ZM100.048 29.8407C98.1677 29.8407 96.6432 28.3164 96.6429 26.4359C96.6426 24.5553 98.1672 23.0307 100.048 23.0302C101.928 23.0302 103.453 24.5547 103.453 26.4353C103.453 28.3159 101.929 29.8407 100.048 29.8407ZM121.05 20.3734H124.167V32.4989H121.05V20.3734ZM124.497 17.4898C124.497 17.7379 124.449 17.9834 124.354 18.2126C124.259 18.4417 124.12 18.6499 123.944 18.8253C123.769 19.0007 123.561 19.1398 123.331 19.2347C123.102 19.3296 122.857 19.3785 122.609 19.3785C122.361 19.3785 122.115 19.3296 121.886 19.2347C121.657 19.1398 121.449 19.0007 121.273 18.8253C121.098 18.6499 120.959 18.4417 120.864 18.2126C120.769 17.9834 120.72 17.7379 120.72 17.4898C120.72 16.421 121.54 15.576 122.609 15.576C123.677 15.576 124.496 16.4196 124.496 17.4884L124.497 17.4898ZM142.378 20.1684C138.916 20.1684 136.11 22.9749 136.11 26.437C136.11 29.8991 138.916 32.7053 142.378 32.7053C145.84 32.7053 148.645 29.8988 148.645 26.4367C148.645 22.9752 145.838 20.1673 142.376 20.1673L142.378 20.1684ZM142.378 29.8421C140.497 29.8421 138.973 28.3175 138.973 26.437C138.973 24.5564 140.497 23.0316 142.378 23.0316C144.259 23.0316 145.783 24.5561 145.783 26.437C145.783 28.3173 144.258 29.8416 142.377 29.8407H142.376L142.378 29.8421ZM53.2036 18.8374H48.7762V32.4989H45.6693V18.8374H41.2417V16.0555H53.2025L53.2036 18.8374ZM116.469 20.372H119.744L115.559 32.4989H111.809L107.647 20.3723H110.922L113.696 29.1781L116.469 20.372ZM155.625 20.372H157.086V23.2644H155.376C154.059 23.2644 153.214 23.9106 153.214 25.2279V32.4992H150.088V20.3725H153.214V22.41C153.487 20.9687 154.482 20.372 155.625 20.372ZM13.2099 26.2748C13.2099 28.0718 11.7529 29.5288 9.9561 29.5288C8.1593 29.5288 6.70232 28.0718 6.70232 26.2748C6.70232 24.478 8.1593 23.0207 9.9561 23.0207C11.7529 23.0207 13.2099 24.478 13.2099 26.2748ZM28.2958 23.0207C26.499 23.0207 25.042 24.478 25.042 26.2748C25.042 28.0718 26.499 29.5288 28.2958 29.5288C30.0926 29.5288 31.5496 28.0718 31.5496 26.2748C31.549 24.4788 30.0934 23.0226 28.2974 23.0218L28.2958 23.0207ZM37.4696 26.2748C37.4696 31.3387 33.3609 35.4444 28.2958 35.4444C25.9853 35.4484 23.7592 34.5764 22.0663 33.004L19.13 36.1983L16.1926 33.0004C14.4996 34.5744 12.2727 35.4478 9.96113 35.4442C4.89965 35.4442 0.792279 31.3387 0.792279 26.2745C0.790487 24.9988 1.05562 23.7369 1.57065 22.5698C2.08567 21.4027 2.83918 20.3562 3.78276 19.4977L0.782227 16.233H7.44896C14.503 11.4321 23.7743 11.4321 30.8283 16.233H37.4777L34.4775 19.4977C35.4214 20.3561 36.1753 21.4025 36.6906 22.5697C37.2059 23.7368 37.4713 24.9989 37.4696 26.2748ZM16.1635 26.2748C16.1635 22.8478 13.3852 20.069 9.95834 20.069C6.53143 20.069 3.75316 22.8478 3.75316 26.2748C3.75316 29.7017 6.53143 32.4805 9.95834 32.4805C13.3852 32.4805 16.1632 29.7028 16.1635 26.2759V26.2748ZM26.0153 17.0101C23.8333 16.101 21.4928 15.633 19.1289 15.633C16.765 15.633 14.4245 16.101 12.2424 17.0101C16.1599 18.5096 19.13 22.0121 19.13 26.096C19.13 22.0124 22.0992 18.5096 26.0153 17.0101ZM34.5026 26.2745C34.5026 22.8473 31.7243 20.0687 28.2974 20.0687C24.8705 20.0687 22.0923 22.847 22.0923 26.2745C22.0923 29.7014 24.8705 32.4802 28.2974 32.4802C31.7243 32.4802 34.5026 29.7014 34.5026 26.2745Z" fill="#B4BACC"/>
</svg>
