<svg width="48" height="48" viewBox="0 0 48 48" fill="none" xmlns="http://www.w3.org/2000/svg">
<g clip-path="url(#clip0_9064_50563)">
<path fill-rule="evenodd" clip-rule="evenodd" d="M24 48C37.2548 48 48 37.2548 48 24C48 10.7452 37.2548 0 24 0C10.7452 0 0 10.7452 0 24C0 37.2548 10.7452 48 24 48ZM29.0794 10C31.6809 10.4366 34.1732 11.2189 36.5201 12.2923C40.5952 18.2414 42.6165 24.9727 41.8342 32.7227C38.7215 34.9967 35.6832 36.3794 32.7179 37.2892C31.9901 36.3068 31.3352 35.2515 30.7711 34.1417C31.8446 33.7416 32.8634 33.2504 33.8458 32.6681C33.6687 32.5417 33.5004 32.4064 33.3286 32.2684C33.2534 32.208 33.1775 32.147 33.0999 32.086C27.2418 34.7968 20.818 34.7968 14.8871 32.086C14.6506 32.2862 14.3959 32.4863 14.1412 32.6681C15.1236 33.2504 16.1424 33.7416 17.2158 34.1417C16.6518 35.2515 15.9969 36.3068 15.2692 37.2892C12.3019 36.3794 9.28189 34.9967 6.15274 32.7227C5.51599 26.0278 6.7895 19.2419 11.5014 12.2923C13.8319 11.2189 16.3243 10.4366 18.944 10C19.2533 10.564 19.6354 11.3281 19.8901 11.9284C22.619 11.5282 25.3662 11.5282 28.1333 11.9284C28.3879 11.3281 28.7517 10.564 29.0794 10ZM14.7961 24.9908C14.7961 26.9739 16.2515 28.593 18.0345 28.593C19.8355 28.593 21.2727 26.9739 21.2727 24.9908C21.3091 23.0079 19.8355 21.3886 18.0345 21.3886C16.2152 21.3886 14.7961 23.0079 14.7961 24.9908ZM26.7487 24.9908C26.7487 26.9739 28.2059 28.593 29.989 28.593C31.8083 28.593 33.2272 26.9739 33.2272 24.9908C33.2637 23.0079 31.79 21.3886 29.989 21.3886C28.1696 21.3886 26.7487 23.0079 26.7487 24.9908Z" fill="#161E33"/>
</g>
<defs>
<clipPath id="clip0_9064_50563">
<rect width="48" height="48" fill="white"/>
</clipPath>
</defs>
</svg>
