<svg width="300" height="211" viewBox="0 0 300 211" fill="none" xmlns="http://www.w3.org/2000/svg">
<g clip-path="url(#clip0_9428_37165)">
<circle cx="150" cy="254.5" r="156" fill="url(#paint0_linear_9428_37165)"/>
<path d="M40.9771 77.9639L37.1016 80.2092V84.6998L40.9771 86.9452L44.8525 84.6998V80.2092L40.9771 77.9639Z" fill="#8547FF"/>
<path d="M227.701 66.8153L226.549 71.1433L229.724 74.3187L234.052 73.166L235.205 68.8379L232.029 65.6626L227.701 66.8153Z" fill="#008A53"/>
<path d="M73.7013 28.8153L72.5486 33.1433L75.724 36.3187L80.0521 35.166L81.2048 30.8379L78.0294 27.6626L73.7013 28.8153Z" fill="#E0700D"/>
<path d="M174.875 18.5L171 20.7453V25.236L174.875 27.4813L178.751 25.236V20.7453L174.875 18.5Z" fill="#DC244C"/>
<path d="M191.712 138.124H107.64L102.819 80.751C102.361 75.317 106.649 70.6528 112.104 70.6528H187.248C192.703 70.6528 196.99 75.317 196.533 80.751L191.712 138.124Z" fill="#3D4866"/>
<path d="M236.33 120.883C231.926 113.907 227.105 108.343 213.543 97.0135C199.98 85.6841 185.493 79.6231 179.72 78.0649C174.398 76.6268 153.045 77.8021 149.742 77.9966C146.439 77.8042 125.086 76.6288 119.764 78.0649C113.991 79.6252 99.5036 85.6861 85.9415 97.0135C72.3793 108.343 67.4895 113.874 63.0447 120.839C52.8658 136.792 80.7393 145.133 80.7393 145.133L91.63 130.321L108.232 120.13L111.789 140.52H187.695L191.25 120.13L207.496 130.102L217.547 143.333C217.547 143.333 246.393 136.829 236.328 120.883H236.33Z" fill="#89A9FF"/>
<path d="M236.33 120.883C231.926 113.907 227.105 108.343 213.543 97.0135C199.98 85.6841 185.493 79.6231 179.72 78.0649C174.398 76.6268 153.045 77.8021 149.742 77.9966C146.439 77.8042 125.086 76.6288 119.764 78.0649C113.991 79.6252 99.5036 85.6861 85.9415 97.0135C72.3793 108.343 67.4895 113.874 63.0447 120.839C52.8658 136.792 80.7393 145.133 80.7393 145.133L91.63 130.321L108.232 120.13L111.789 140.52H187.695L191.25 120.13L207.496 130.102L217.547 143.333C217.547 143.333 246.393 136.829 236.328 120.883H236.33Z" fill="url(#paint1_linear_9428_37165)"/>
<path d="M163.521 47.2012C163.515 46.8908 163.513 46.5783 163.513 46.2659C163.513 44.5504 163.542 42.7998 162.88 41.194C161.884 38.7812 159.631 37.6079 157.237 36.983C156.229 36.7202 155.275 36.296 154.259 36.0477C153.156 35.7787 152.03 35.609 150.896 35.5304C150.102 35.4766 149.282 35.4683 148.531 35.729C147.848 35.9649 147.252 36.3498 146.511 36.3746C145.756 36.3995 144.986 36.5278 144.237 36.6664C144.219 36.6871 144.2 36.7057 144.181 36.7264C144.169 36.714 144.157 36.6995 144.142 36.6871C142.99 36.9085 141.858 37.2251 140.771 37.6845C139.279 38.3156 137.887 39.3151 137.231 40.836C136.62 42.2473 136.504 43.7993 136.473 45.3181C136.417 48.0434 136.457 50.7645 136.612 53.4857C136.639 53.9657 136.666 54.4458 136.695 54.928C136.713 55.5322 136.732 56.1364 136.753 56.7407C136.753 56.7407 136.866 57.0076 137.038 57.409C137.357 58.3713 138.011 59.9129 138.536 61.109L138.247 61.1214L138.549 61.1441C138.975 62.1146 139.314 62.8492 139.314 62.8492L149.99 62.0257L160.665 62.8492C160.665 62.8492 161.005 62.1146 161.431 61.1441L161.735 61.1214L161.448 61.109C161.973 59.9129 162.627 58.3713 162.946 57.409C163.118 57.0076 163.233 56.7407 163.233 56.7407C163.254 56.1364 163.271 55.5322 163.289 54.928C163.32 54.4479 163.345 53.9657 163.372 53.4857C163.492 51.3915 163.563 49.2974 163.517 47.2012H163.521Z" fill="#0040A1"/>
<path d="M160.529 54.7666C160.529 54.7666 164.564 52.9601 165.305 54.6507C166.046 56.3413 164.362 60.3516 163.693 61.7401C163.025 63.1307 159.312 64.7778 159.312 64.7778L160.529 54.7666Z" fill="#FFB2B7"/>
<path d="M138.826 54.7666C138.826 54.7666 134.793 52.9601 134.052 54.6507C133.311 56.3413 134.993 60.3516 135.662 61.7401C136.33 63.1307 140.043 64.7778 140.043 64.7778L138.826 54.7666Z" fill="white"/>
<path d="M158.954 63.29L159.072 78.1256C157.02 80.8031 153.839 82.3731 150.465 82.3731H148.91C145.591 82.3731 142.452 80.8657 140.377 78.2756L140.258 63.3563L158.954 63.29Z" fill="#FFB2B7"/>
<path d="M161.147 46.2868L138.654 44.8838C138.654 44.8838 138.222 56.4222 138.398 58.9033C138.573 61.3844 138.762 65.6037 141.152 69.0449C143.542 72.4862 146.693 74.9445 149.725 74.8783C152.756 74.81 158.145 70.092 159.898 66.2224C161.65 62.3528 161.149 49.012 161.149 46.2888L161.147 46.2868Z" fill="#FFDADB"/>
<path d="M161.143 44.2315C158.613 43.199 155.966 42.5389 153.408 42.1788C145.305 41.0386 138.081 42.9403 138.116 45.709C138.129 46.6919 137.23 54.1352 137.23 54.1352C137.23 54.1352 138.124 55.5858 138.311 56.2521C139.668 54.6008 140.258 49.0468 140.258 46.4747C140.258 45.6552 140.682 45.4421 141.154 45.8394C142.766 47.1969 145.044 47.8425 147.049 48.3432C149.276 48.8978 151.556 49.1958 153.837 49.4069C156.001 49.6076 158.575 49.5393 159.088 46.9237C159.115 46.783 159.138 46.634 159.227 46.5202C159.674 45.9573 159.91 47.1782 159.956 47.3893C160.318 49.0551 160.336 50.8471 160.529 52.5439C160.665 53.7648 160.731 55.0602 161.05 56.2521C161.071 56.3287 162.346 54.1352 162.346 54.1352L161.139 44.2315H161.143Z" fill="#0040A1"/>
<path d="M164.654 137.562C164.857 137.108 165.289 136.556 165.85 135.962C169.283 132.328 178.737 127.047 183.801 127.418C184.635 127.478 189.874 131.261 191.697 133.189C191.697 133.189 198.557 129.818 204.339 125.758L215.271 143.517C206.296 146.16 196.44 148.314 196.44 148.314C194.224 148.597 191.482 147.337 189.22 145.942C188.552 147.279 183.151 152.879 181.254 152.783C180.844 152.763 169.643 147.6 169.643 147.6C168.412 142.184 175.491 135.155 175.491 135.155C175.491 135.155 168.509 138.393 166.802 139.714C165.097 141.032 163.621 139.869 164.656 137.564L164.654 137.562Z" fill="#FFDADB"/>
<path d="M129.269 137.562C129.067 137.108 128.636 136.556 128.073 135.962C124.64 132.328 115.186 127.047 110.122 127.418C109.288 127.478 104.049 131.261 102.224 133.189C102.224 133.189 95.364 129.818 89.5824 125.758L78.6523 143.517C87.6269 146.16 97.483 148.314 97.483 148.314C99.6992 148.597 102.441 147.337 104.703 145.942C105.369 147.279 110.772 152.879 112.67 152.783C113.079 152.763 124.278 147.6 124.278 147.6C125.51 142.184 118.43 135.155 118.43 135.155C118.43 135.155 125.414 138.393 127.119 139.714C128.825 141.032 130.302 139.869 129.265 137.564L129.269 137.562Z" fill="#FFDADB"/>
<path d="M93.2737 126.89C95.5789 128.953 94.9395 129.199 94.9395 129.199L92.1459 127.608C91.9431 127.527 91.6141 127.443 91.4548 127.581C86.9292 131.544 83.13 141.47 82.8403 143.949C82.803 144.264 82.9727 144.469 83.2624 144.607C84.0756 144.996 86.1325 145.578 86.1325 145.578C86.1325 145.578 84.7958 147.6 83.1631 147.115C81.9318 146.749 77.0524 144.837 75.9329 144.285C75.0121 143.831 74.6148 142.929 74.6293 142.671C74.7866 139.931 79.3307 130.907 85.907 124.194C86.445 123.643 87.0347 123.281 87.7755 123.587C89.3317 124.231 90.9374 124.798 93.2716 126.89H93.2737Z" fill="white"/>
<path d="M199.92 127.366C198.313 128.535 198.681 129.373 198.681 129.373L201.576 127.715C201.779 127.635 202.108 127.55 202.267 127.689C206.793 131.651 210.552 141.454 210.842 143.93C210.879 144.245 210.712 144.45 210.42 144.588C209.607 144.98 207.597 145.625 207.597 145.625C207.597 145.625 209.193 147.332 210.859 146.976C212.15 146.701 215.918 145.143 217.094 144.725C218.888 144.086 219.173 143.97 219.196 143.177C219.272 140.435 214.594 130.904 208.018 124.193C207.48 123.643 207.07 123.455 206.354 123.817C204.862 124.572 200.912 126.646 199.925 127.364L199.92 127.366Z" fill="white"/>
<path d="M187.955 155.5H111.397C110.276 155.5 109.307 154.713 109.077 153.615L101.781 118.697C101.475 117.226 102.596 115.844 104.101 115.844H195.251C196.754 115.844 197.877 117.226 197.571 118.697L190.275 153.615C190.045 154.713 189.079 155.5 187.955 155.5Z" fill="#2F6FF0"/>
<path d="M101.889 119.208C102.226 118.333 103.074 117.69 104.101 117.69H195.251C196.276 117.69 197.126 118.333 197.463 119.208L197.571 118.697C197.879 117.226 196.756 115.844 195.251 115.844H104.101C102.598 115.844 101.475 117.226 101.781 118.697L101.889 119.208Z" fill="#D9E2FE"/>
</g>
<defs>
<linearGradient id="paint0_linear_9428_37165" x1="150" y1="98.5" x2="150" y2="410.5" gradientUnits="userSpaceOnUse">
<stop stop-color="#161E33"/>
<stop offset="1" stop-color="#0E1424"/>
</linearGradient>
<linearGradient id="paint1_linear_9428_37165" x1="149.634" y1="77.3599" x2="149.634" y2="145.133" gradientUnits="userSpaceOnUse">
<stop stop-color="#F5F5F5" stop-opacity="0"/>
<stop offset="1" stop-color="#2861D3"/>
</linearGradient>
<clipPath id="clip0_9428_37165">
<rect width="300" height="210" fill="white" transform="translate(0 0.5)"/>
</clipPath>
</defs>
</svg>
