<svg width="48" height="48" viewBox="0 0 48 48" fill="none" xmlns="http://www.w3.org/2000/svg">
<g clip-path="url(#clip0_9064_50556)">
<path fill-rule="evenodd" clip-rule="evenodd" d="M24 0.600098C10.8 0.600098 0 11.4001 0 24.6001C0 35.2001 6.8 44.2001 16.4 47.4001C17.6 47.6001 18 46.8001 18 46.2001C18 45.6001 18 44.2001 18 42.2001C11.4 43.6001 10 39.0001 10 39.0001C9 36.2001 7.4 35.4001 7.4 35.4001C5 34.0001 7.4 34.0001 7.4 34.0001C9.8 34.2001 11 36.4001 11 36.4001C13.2 40.0001 16.6 39.0001 18 38.4001C18.2 36.8001 18.8 35.8001 19.6 35.2001C14.2 34.6001 8.6 32.6001 8.6 23.4001C8.6 20.8001 9.6 18.6001 11 17.0001C11 16.2001 10 13.8001 11.4 10.6001C11.4 10.6001 13.4 10.0001 18 13.0001C20 12.4001 22 12.2001 24 12.2001C26 12.2001 28 12.4001 30 13.0001C34.6 9.8001 36.6 10.6001 36.6 10.6001C38 14.0001 37 16.4001 36.8 17.0001C38.4 18.6001 39.2 20.8001 39.2 23.4001C39.2 32.6001 33.6 34.6001 28.2 35.2001C29 36.0001 29.8 37.4001 29.8 39.6001C29.8 42.8001 29.8 45.4001 29.8 46.2001C29.8 46.8001 30.2 47.6001 31.4 47.4001C41 44.2001 47.8 35.2001 47.8 24.6001C48 11.4001 37.2 0.600098 24 0.600098Z" fill="#161E33"/>
</g>
<defs>
<clipPath id="clip0_9064_50556">
<rect width="48" height="48" fill="white"/>
</clipPath>
</defs>
</svg>
