<svg width="48" height="49" viewBox="0 0 48 49" fill="none" xmlns="http://www.w3.org/2000/svg">
<g clip-path="url(#clip0_9064_50553)">
<path d="M47.1593 1.34798C46.9612 1.1485 46.7233 0.993026 46.461 0.891709C46.1988 0.790393 45.9181 0.745505 45.6373 0.759975C17.5813 2.22398 7.21735 27.216 7.11735 27.468C6.971 27.8315 6.93468 28.2301 7.0129 28.6141C7.09113 28.9981 7.28045 29.3506 7.55735 29.628L18.8713 40.942C19.15 41.2202 19.5045 41.41 19.8905 41.4875C20.2766 41.5651 20.6769 41.527 21.0413 41.378C21.2913 41.276 46.1493 30.796 47.7373 2.87198C47.7534 2.59161 47.7102 2.311 47.6106 2.04842C47.5111 1.78585 47.3573 1.54718 47.1593 1.34798ZM30.8273 23.328C30.268 23.8875 29.5553 24.2686 28.7793 24.423C28.0033 24.5775 27.199 24.4983 26.468 24.1956C25.7371 23.8929 25.1123 23.3802 24.6727 22.7224C24.2331 22.0646 23.9985 21.2912 23.9985 20.5C23.9985 19.7088 24.2331 18.9354 24.6727 18.2776C25.1123 17.6197 25.7371 17.1071 26.468 16.8043C27.199 16.5016 28.0033 16.4225 28.7793 16.5769C29.5553 16.7314 30.268 17.1124 30.8273 17.672C31.5772 18.4221 31.9985 19.4393 31.9985 20.5C31.9985 21.5606 31.5772 22.5779 30.8273 23.328Z" fill="#161E33"/>
<path d="M2.226 38.188C2.75353 37.6569 3.38071 37.2351 4.07158 36.9469C4.76245 36.6586 5.50343 36.5096 6.25202 36.5083C7.00061 36.507 7.74208 36.6535 8.43394 36.9394C9.12579 37.2253 9.7544 37.6449 10.2837 38.1743C10.8131 38.7036 11.2327 39.3322 11.5186 40.0241C11.8045 40.7159 11.951 41.4574 11.9497 42.206C11.9484 42.9546 11.7994 43.6956 11.5112 44.3864C11.2229 45.0773 10.8011 45.7045 10.27 46.232C8.048 48.454 0 48.5 0 48.5C0 48.5 0 40.408 2.226 38.188Z" fill="#161E33"/>
<path d="M20.7147 5.18193C17.8957 4.6913 15.0001 4.8866 12.2727 5.75133C9.54516 6.61605 7.06596 8.12476 5.04465 10.1499C3.97506 11.2294 3.04513 12.4389 2.27665 13.7499C2.05163 14.132 1.95997 14.5781 2.01608 15.0179C2.0722 15.4578 2.27291 15.8666 2.58665 16.1799L6.56465 20.1599C10.2611 14.2936 15.0677 9.20565 20.7147 5.18193Z" fill="#161E33"/>
<path d="M43.3178 27.7859C43.8085 30.6048 43.6132 33.5004 42.7484 36.2279C41.8837 38.9554 40.375 41.4346 38.3498 43.4559C37.2703 44.5255 36.0609 45.4554 34.7498 46.2239C34.3677 46.4489 33.9217 46.5406 33.4818 46.4845C33.042 46.4283 32.6332 46.2276 32.3198 45.9139L28.3398 41.9359C34.2062 38.2394 39.2941 33.4328 43.3178 27.7859Z" fill="#161E33"/>
</g>
<defs>
<clipPath id="clip0_9064_50553">
<rect width="48" height="48" fill="white" transform="translate(0 0.5)"/>
</clipPath>
</defs>
</svg>
