<svg width="48" height="49" viewBox="0 0 48 49" fill="none" xmlns="http://www.w3.org/2000/svg">
<g clip-path="url(#clip0_9064_50559)">
<path d="M22.5009 6.1535C22.5009 5.96617 22.5378 5.78067 22.6095 5.6076C22.6812 5.43453 22.7863 5.27728 22.9187 5.14481C23.0512 5.01235 23.2084 4.90727 23.3815 4.83559C23.5546 4.7639 23.7401 4.727 23.9274 4.727C24.1147 4.727 24.3002 4.7639 24.4733 4.83559C24.6464 4.90727 24.8036 5.01235 24.9361 5.14481C25.0686 5.27728 25.1736 5.43453 25.2453 5.6076C25.317 5.78067 25.3539 5.96617 25.3539 6.1535C25.3539 6.53183 25.2036 6.89467 24.9361 7.16219C24.6686 7.42971 24.3057 7.58 23.9274 7.58C23.5491 7.58 23.1862 7.42971 22.9187 7.16219C22.6512 6.89467 22.5009 6.53183 22.5009 6.1535ZM5.48191 19.0685C5.48191 18.8812 5.5188 18.6957 5.59049 18.5226C5.66218 18.3495 5.76725 18.1923 5.89972 18.0598C6.03218 17.9273 6.18944 17.8223 6.36251 17.7506C6.53558 17.6789 6.72108 17.642 6.90841 17.642C7.09574 17.642 7.28123 17.6789 7.4543 17.7506C7.62738 17.8223 7.78463 17.9273 7.91709 18.0598C8.04956 18.1923 8.15463 18.3495 8.22632 18.5226C8.29801 18.6957 8.33491 18.8812 8.33491 19.0685C8.33491 19.4468 8.18461 19.8097 7.91709 20.0772C7.64957 20.3447 7.28674 20.495 6.90841 20.495C6.53007 20.495 6.16724 20.3447 5.89972 20.0772C5.6322 19.8097 5.48191 19.4468 5.48191 19.0685ZM39.5199 19.1345C39.5199 18.7562 39.6702 18.3933 39.9377 18.1258C40.2052 17.8583 40.5681 17.708 40.9464 17.708C41.3247 17.708 41.6876 17.8583 41.9551 18.1258C42.2226 18.3933 42.3729 18.7562 42.3729 19.1345C42.3729 19.5128 42.2226 19.8757 41.9551 20.1432C41.6876 20.4107 41.3247 20.561 40.9464 20.561C40.5681 20.561 40.2052 20.4107 39.9377 20.1432C39.6702 19.8757 39.5199 19.5128 39.5199 19.1345ZM9.60991 21.0935C9.92511 20.9527 10.1717 20.6928 10.2957 20.3706C10.4197 20.0484 10.4109 19.6903 10.2714 19.3745L9.63841 17.9435H12.1284V29.1635H7.10491C6.48507 26.986 6.29203 24.7093 6.53641 22.4585L9.60991 21.0935ZM20.0229 21.3695V18.062H25.9509C26.2569 18.062 28.1109 18.416 28.1109 19.802C28.1109 20.954 26.6859 21.368 25.5159 21.368L20.0229 21.3695ZM11.9289 39.176C11.9289 38.9887 11.9658 38.8032 12.0375 38.6301C12.1092 38.457 12.2143 38.2998 12.3467 38.1673C12.4792 38.0349 12.6364 37.9298 12.8095 37.8581C12.9826 37.7864 13.1681 37.7495 13.3554 37.7495C13.5427 37.7495 13.7282 37.7864 13.9013 37.8581C14.0744 37.9298 14.2316 38.0349 14.3641 38.1673C14.4966 38.2998 14.6016 38.457 14.6733 38.6301C14.745 38.8032 14.7819 38.9887 14.7819 39.176C14.7819 39.5543 14.6316 39.9172 14.3641 40.1847C14.0966 40.4522 13.7337 40.6025 13.3554 40.6025C12.9771 40.6025 12.6142 40.4522 12.3467 40.1847C12.0792 39.9172 11.9289 39.5543 11.9289 39.176ZM33.0684 39.242C33.0684 38.8637 33.2187 38.5008 33.4862 38.2333C33.7537 37.9658 34.1166 37.8155 34.4949 37.8155C34.8732 37.8155 35.2361 37.9658 35.5036 38.2333C35.7711 38.5008 35.9214 38.8637 35.9214 39.242C35.9214 39.6203 35.7711 39.9832 35.5036 40.2507C35.2361 40.5182 34.8732 40.6685 34.4949 40.6685C34.1166 40.6685 33.7537 40.5182 33.4862 40.2507C33.2187 39.9832 33.0684 39.6203 33.0684 39.242ZM33.5094 36.0065C32.8044 35.8565 32.1144 36.3035 31.9644 37.007L31.2489 40.349C28.9461 41.392 26.4454 41.9256 23.9175 41.9134C21.3895 41.9013 18.894 41.3436 16.6014 40.2785L15.8859 36.9365C15.7359 36.2315 15.0459 35.7845 14.3409 35.936L11.3904 36.569C10.8422 36.0044 10.3325 35.4035 9.86491 34.7705H24.2199C24.3819 34.7705 24.4899 34.7405 24.4899 34.5935V29.516C24.4899 29.366 24.3819 29.339 24.2199 29.339H20.0199V26.12H24.5604C24.9744 26.12 26.7759 26.24 27.3534 28.541L28.2009 32.291C28.4709 33.116 29.5704 34.7705 30.7404 34.7705H38.1504C37.6531 35.4357 37.1092 36.0648 36.5229 36.653L33.5094 36.0065ZM41.4804 22.5995C41.5813 23.613 41.5938 24.6333 41.5179 25.649H39.7179C39.5379 25.649 39.4629 25.769 39.4629 25.9445V26.7725C39.4629 28.7225 38.3649 29.1425 37.4019 29.252C36.4869 29.357 35.4669 28.868 35.3439 28.307C34.8039 25.265 33.9039 24.617 32.4939 23.492C34.2594 22.37 36.0969 20.717 36.0969 18.5015C36.0969 16.1105 34.4574 14.6045 33.3399 13.8665C31.7724 12.8315 30.0369 12.626 29.5689 12.626H10.9164C13.4929 9.74713 16.9467 7.79802 20.7429 7.0805L22.9404 9.386C23.4354 9.9065 24.2604 9.926 24.7794 9.428L27.2394 7.0775C29.7452 7.5467 32.1189 8.55573 34.1955 10.0345C36.2721 11.5133 38.002 13.4264 39.2649 15.641L37.5819 19.442C37.4424 19.7578 37.4337 20.1159 37.5576 20.4381C37.6816 20.7603 37.9282 21.0202 38.2434 21.161L41.4804 22.5995ZM45.6774 22.6595L45.6204 22.0715L47.3544 20.4545C47.7069 20.1245 47.5749 19.4645 47.1249 19.2965L44.9094 18.4685L44.7354 17.8985L46.1154 15.9785C46.3974 15.5885 46.1379 14.966 45.6654 14.888L43.3284 14.5085L43.0479 13.9835L44.0304 11.828C44.2314 11.3885 43.8579 10.8275 43.3749 10.8455L41.0049 10.928L40.6299 10.4735L41.1744 8.1635C41.2839 7.694 40.8084 7.2185 40.3389 7.328L38.0289 7.8725L37.5729 7.4975L37.6554 5.1275C37.6734 4.6475 37.1124 4.2725 36.6744 4.472L34.5204 5.4545L33.9954 5.1725L33.6144 2.8355C33.5394 2.3615 32.9139 2.1035 32.5239 2.3855L30.6039 3.7655L30.0339 3.593L29.2059 1.3775C29.0379 0.9275 28.3764 0.7955 28.0479 1.1465L26.4309 2.8805L25.8429 2.8235L24.5949 0.806C24.3429 0.398 23.6649 0.398 23.4144 0.806L22.1664 2.8235L21.5784 2.8805L19.9584 1.1435C19.6284 0.7925 18.9684 0.923 18.8004 1.3745L17.9724 3.59L17.4024 3.7625L15.4824 2.3825C15.0924 2.1005 14.4684 2.36 14.3919 2.8325L14.0109 5.1695L13.4859 5.4515L11.3319 4.469C10.8939 4.2695 10.3314 4.6445 10.3509 5.1245L10.4334 7.4945L9.97741 7.8695L7.66741 7.325C7.19791 7.2155 6.72241 7.691 6.83191 8.1605L7.37641 10.4705L7.00141 10.925L4.63141 10.8425C4.15141 10.8275 3.77641 11.3855 3.97591 11.825L4.95841 13.9805L4.67641 14.5055L2.33941 14.885C1.86541 14.96 1.60741 15.5855 1.88941 15.9755L3.26941 17.8955L3.09541 18.4655L0.879906 19.2935C0.429906 19.4615 0.297906 20.123 0.650406 20.4515L2.38441 22.0685L2.32741 22.6565L0.309906 23.9045C-0.0980937 24.1565 -0.0980937 24.8345 0.309906 25.085L2.32741 26.333L2.38441 26.921L0.645906 28.544C0.294906 28.874 0.425406 29.534 0.875406 29.702L3.09091 30.53L3.26491 31.1L1.88491 33.02C1.60441 33.41 1.86241 34.034 2.33491 34.1105L4.67041 34.49L4.95241 35.015L3.96991 37.169C3.77041 37.607 4.14691 38.1695 4.62541 38.1515L6.99541 38.069L7.37041 38.525L6.82591 40.835C6.71641 41.303 7.19191 41.78 7.66141 41.669L9.97141 41.1245L10.4274 41.4995L10.3449 43.8695C10.3269 44.3495 10.8879 44.7245 11.3259 44.525L13.4799 43.5425L14.0049 43.8245L14.3859 46.16C14.4609 46.6355 15.0864 46.892 15.4764 46.613L17.3964 45.23L17.9664 45.404L18.7944 47.6195C18.9624 48.0695 19.6239 48.2015 19.9524 47.849L21.5694 46.115L22.1574 46.175L23.4054 48.1925C23.6574 48.5975 24.3324 48.6005 24.5859 48.1925L25.8339 46.175L26.4219 46.115L28.0389 47.849C28.3689 48.2015 29.0289 48.0695 29.1969 47.6195L30.0249 45.404L30.5949 45.23L32.5149 46.613C32.9049 46.8935 33.5289 46.6355 33.6054 46.16L33.9864 43.8245L34.5114 43.5425L36.6654 44.525C37.1034 44.7245 37.6644 44.351 37.6464 43.8695L37.5639 41.4995L38.0184 41.1245L40.3284 41.669C40.7979 41.7785 41.2734 41.303 41.1639 40.835L40.6194 38.525L40.9944 38.069L43.3644 38.1515C43.8444 38.171 44.2194 37.607 44.0199 37.169L43.0374 35.015L43.3179 34.49L45.6549 34.1105C46.1304 34.0355 46.3899 33.4115 46.1049 33.02L44.7249 31.1L44.8989 30.53L47.1144 29.702C47.5644 29.5325 47.6964 28.8725 47.3439 28.544L45.6099 26.927L45.6669 26.339L47.6844 25.091C48.0924 24.839 48.0939 24.164 47.6844 23.9105L45.6774 22.6595Z" fill="#161E33"/>
</g>
<defs>
<clipPath id="clip0_9064_50559">
<rect width="48" height="48" fill="white" transform="translate(0 0.5)"/>
</clipPath>
</defs>
</svg>
