<svg width="48" height="49" viewBox="0 0 48 49" fill="none" xmlns="http://www.w3.org/2000/svg">
<g clip-path="url(#clip0_9064_50566)">
<path d="M40 16.5C39.6022 16.5 39.2206 16.342 38.9393 16.0607C38.658 15.7794 38.5 15.3978 38.5 15C38.5 14.2044 38.1839 13.4413 37.6213 12.8787C37.0587 12.3161 36.2956 12 35.5 12C35.1022 12 34.7206 11.842 34.4393 11.5607C34.158 11.2794 34 10.8978 34 10.5C34 10.1022 34.158 9.72064 34.4393 9.43934C34.7206 9.15804 35.1022 9 35.5 9C36.2956 9 37.0587 8.68393 37.6213 8.12132C38.1839 7.55871 38.5 6.79565 38.5 6C38.5 5.60218 38.658 5.22064 38.9393 4.93934C39.2206 4.65804 39.6022 4.5 40 4.5C40.3978 4.5 40.7794 4.65804 41.0607 4.93934C41.342 5.22064 41.5 5.60218 41.5 6C41.5 6.79565 41.8161 7.55871 42.3787 8.12132C42.9413 8.68393 43.7044 9 44.5 9C44.8978 9 45.2794 9.15804 45.5607 9.43934C45.842 9.72064 46 10.1022 46 10.5C46 10.8978 45.842 11.2794 45.5607 11.5607C45.2794 11.842 44.8978 12 44.5 12C43.7044 12 42.9413 12.3161 42.3787 12.8787C41.8161 13.4413 41.5 14.2044 41.5 15C41.5 15.3978 41.342 15.7794 41.0607 16.0607C40.7794 16.342 40.3978 16.5 40 16.5Z" fill="#161E33"/>
<path d="M8 48.5C7.60218 48.5 7.22064 48.342 6.93934 48.0607C6.65804 47.7794 6.5 47.3978 6.5 47C6.5 46.2044 6.18393 45.4413 5.62132 44.8787C5.05871 44.3161 4.29565 44 3.5 44C3.10218 44 2.72064 43.842 2.43934 43.5607C2.15804 43.2794 2 42.8978 2 42.5C2 42.1022 2.15804 41.7206 2.43934 41.4393C2.72064 41.158 3.10218 41 3.5 41C4.29565 41 5.05871 40.6839 5.62132 40.1213C6.18393 39.5587 6.5 38.7956 6.5 38C6.5 37.6022 6.65804 37.2206 6.93934 36.9393C7.22064 36.658 7.60218 36.5 8 36.5C8.39782 36.5 8.77936 36.658 9.06066 36.9393C9.34196 37.2206 9.5 37.6022 9.5 38C9.5 38.7956 9.81607 39.5587 10.3787 40.1213C10.9413 40.6839 11.7044 41 12.5 41C12.8978 41 13.2794 41.158 13.5607 41.4393C13.842 41.7206 14 42.1022 14 42.5C14 42.8978 13.842 43.2794 13.5607 43.5607C13.2794 43.842 12.8978 44 12.5 44C11.7044 44 10.9413 44.3161 10.3787 44.8787C9.81607 45.4413 9.5 46.2044 9.5 47C9.5 47.3978 9.34196 47.7794 9.06066 48.0607C8.77936 48.342 8.39782 48.5 8 48.5Z" fill="#161E33"/>
<path d="M34 48.5C33.4696 48.5 32.9609 48.2893 32.5858 47.9142C32.2107 47.5391 32 47.0304 32 46.5C32 44.3783 31.1571 42.3434 29.6569 40.8431C28.1566 39.3429 26.1217 38.5 24 38.5C23.4696 38.5 22.9609 38.2893 22.5858 37.9142C22.2107 37.5391 22 37.0304 22 36.5C22 35.9696 22.2107 35.4609 22.5858 35.0858C22.9609 34.7107 23.4696 34.5 24 34.5C26.1217 34.5 28.1566 33.6571 29.6569 32.1569C31.1571 30.6566 32 28.6217 32 26.5C32 25.9696 32.2107 25.4609 32.5858 25.0858C32.9609 24.7107 33.4696 24.5 34 24.5C34.5304 24.5 35.0391 24.7107 35.4142 25.0858C35.7893 25.4609 36 25.9696 36 26.5C36 28.6217 36.8429 30.6566 38.3431 32.1569C39.8434 33.6571 41.8783 34.5 44 34.5C44.5304 34.5 45.0391 34.7107 45.4142 35.0858C45.7893 35.4609 46 35.9696 46 36.5C46 37.0304 45.7893 37.5391 45.4142 37.9142C45.0391 38.2893 44.5304 38.5 44 38.5C41.8783 38.5 39.8434 39.3429 38.3431 40.8431C36.8429 42.3434 36 44.3783 36 46.5C36 47.0304 35.7893 47.5391 35.4142 47.9142C35.0391 48.2893 34.5304 48.5 34 48.5Z" fill="#161E33"/>
<path d="M14 28.5C13.4696 28.5 12.9609 28.2893 12.5858 27.9142C12.2107 27.5391 12 27.0304 12 26.5C12 24.3783 11.1571 22.3434 9.65685 20.8431C8.15656 19.3429 6.12173 18.5 4 18.5C3.46957 18.5 2.96086 18.2893 2.58579 17.9142C2.21071 17.5391 2 17.0304 2 16.5C2 15.9696 2.21071 15.4609 2.58579 15.0858C2.96086 14.7107 3.46957 14.5 4 14.5C6.12173 14.5 8.15656 13.6571 9.65685 12.1569C11.1571 10.6566 12 8.62173 12 6.5C12 5.96957 12.2107 5.46086 12.5858 5.08579C12.9609 4.71071 13.4696 4.5 14 4.5C14.5304 4.5 15.0391 4.71071 15.4142 5.08579C15.7893 5.46086 16 5.96957 16 6.5C16 8.62173 16.8429 10.6566 18.3431 12.1569C19.8434 13.6571 21.8783 14.5 24 14.5C24.5304 14.5 25.0391 14.7107 25.4142 15.0858C25.7893 15.4609 26 15.9696 26 16.5C26 17.0304 25.7893 17.5391 25.4142 17.9142C25.0391 18.2893 24.5304 18.5 24 18.5C21.8783 18.5 19.8434 19.3429 18.3431 20.8431C16.8429 22.3434 16 24.3783 16 26.5C16 27.0304 15.7893 27.5391 15.4142 27.9142C15.0391 28.2893 14.5304 28.5 14 28.5Z" fill="#161E33"/>
</g>
<defs>
<clipPath id="clip0_9064_50566">
<rect width="48" height="48" fill="white" transform="translate(0 0.5)"/>
</clipPath>
</defs>
</svg>
