<svg width="300" height="211" viewBox="0 0 300 211" fill="none" xmlns="http://www.w3.org/2000/svg">
<g clip-path="url(#clip0_9064_50713)">
<g filter="url(#filter0_f_9064_50713)">
<path d="M29.4046 33.0433L56.8563 24.4947C60.3939 23.393 64.0925 25.1679 65.1173 28.4588L73.3406 54.8658C73.7684 56.2395 72.8299 57.3171 71.0456 57.1922L61.3282 56.7194L38.9477 63.6888C35.4101 64.7904 31.7115 63.0156 30.6867 59.7246L24.8548 40.9968C23.8299 37.7058 25.867 34.1449 29.4046 33.0433Z" fill="url(#paint0_linear_9064_50713)" fill-opacity="0.8"/>
<rect width="21.0848" height="3.24381" rx="1.62191" transform="matrix(-0.954777 0.297322 0.297322 0.954777 63.3359 44.5601)" fill="url(#paint1_linear_9064_50713)"/>
<rect width="29.1943" height="3.24381" rx="1.62191" transform="matrix(-0.954777 0.297322 0.297322 0.954777 61.4062 38.3662)" fill="url(#paint2_linear_9064_50713)"/>
<rect width="29.1943" height="3.24381" rx="1.62191" transform="matrix(-0.954777 0.297322 0.297322 0.954777 59.4805 32.1719)" fill="url(#paint3_linear_9064_50713)"/>
</g>
<circle cx="151" cy="256.5" r="156" fill="url(#paint4_linear_9064_50713)"/>
<path d="M235.674 98.1002C235.674 115.091 221.765 128.958 204.722 128.958C204.33 128.958 201.98 128.958 183.369 128.958C170.44 128.958 149.871 128.958 117.156 128.958H101.681C80.9156 129.544 64.6562 112.943 64.6562 93.2176C64.6562 73.2967 81.1115 56.6959 102.072 57.4771C119.899 1.62052 201.784 9.43264 208.836 67.4376C223.92 69.5859 235.674 82.4759 235.674 98.1002Z" fill="url(#paint5_linear_9064_50713)"/>
<path d="M154.375 129.351C184.777 129.351 209.422 104.78 209.422 74.4704C209.422 44.161 184.777 19.5903 154.375 19.5903C123.973 19.5903 99.3281 44.161 99.3281 74.4704C99.3281 104.78 123.973 129.351 154.375 129.351Z" fill="url(#paint6_linear_9064_50713)"/>
<path d="M204.721 128.958C221.815 128.958 235.673 115.143 235.673 98.1005C235.673 81.0582 221.815 67.2427 204.721 67.2427C187.627 67.2427 173.77 81.0582 173.77 98.1005C173.77 115.143 187.627 128.958 204.721 128.958Z" fill="url(#paint7_linear_9064_50713)"/>
<g filter="url(#filter1_d_9064_50713)">
<rect x="118.281" y="71.5" width="69.9536" height="63.1451" rx="2.08744" transform="rotate(3.88621 118.281 71.5)" fill="url(#paint8_linear_9064_50713)"/>
<path d="M130.086 120.756L125.837 120.468L138.879 91.0996L143.42 91.408L152.412 122.273L148.122 121.981L145.924 114.3L133.261 113.44L130.086 120.756ZM140.187 97.7163L134.751 109.984L144.956 110.677L141.187 97.7842C141.018 97.1869 140.858 96.4647 140.806 96.0008C140.695 96.4117 140.438 97.1056 140.187 97.7163ZM161.508 123.393C157.135 123.096 154.719 120.463 154.971 116.756C155.226 113.007 158.175 110.864 162.99 110.815L169.439 110.75L169.479 110.167C169.711 106.752 167.752 105.405 165.003 105.218C161.712 104.995 159.739 106.325 159.572 108.783L156.156 108.551C156.445 104.302 160.133 101.749 165.381 102.106C170.421 102.448 173.656 105.346 173.282 110.844L172.414 123.632L169.081 123.405L168.888 120.086C167.689 122.348 164.799 123.616 161.508 123.393ZM162.84 120.429C166.547 120.681 168.96 118.417 169.22 114.585L169.294 113.502L164.059 113.565C160.579 113.664 159.072 114.9 158.937 116.9C158.789 119.066 160.299 120.256 162.84 120.429Z" fill="#F0F3FA"/>
</g>
<rect x="68.1484" y="152.5" width="13.0006" height="17.7281" rx="2.36374" fill="#40000E"/>
<rect x="90.0156" y="152.5" width="12.4097" height="17.7281" rx="2.36374" fill="#67001B"/>
<rect x="111.289" y="152.5" width="13.0006" height="17.7281" rx="2.36374" fill="#91012A"/>
<rect x="133.152" y="152.5" width="13.0006" height="17.7281" rx="2.36374" fill="#DC244C"/>
<rect x="155.016" y="152.5" width="13.0006" height="17.7281" rx="2.36374" fill="#FF516B"/>
<rect x="176.883" y="152.5" width="13.5915" height="17.7281" rx="2.36374" fill="#FF8792"/>
<rect x="199.336" y="152.5" width="13.0006" height="17.7281" rx="2.36374" fill="#FFB2B7"/>
<rect x="221.203" y="152.5" width="13.0006" height="17.7281" rx="2.36374" fill="#FFDADB"/>
<path d="M222.349 57.9898L228.171 65.2935C228.783 66.0606 229.732 66.4777 230.711 66.4092L240.033 65.7551C242.499 65.582 244.092 68.3095 242.729 70.3705L237.576 78.1631C237.035 78.9814 236.931 80.0135 237.299 80.9229L240.8 89.5814C241.726 91.8712 239.622 94.2289 237.24 93.5711L228.234 91.0833C227.288 90.8219 226.274 91.0426 225.522 91.6734L218.363 97.6787C216.47 99.2669 213.577 97.9966 213.467 95.529L213.054 86.1988C213.01 85.2188 212.487 84.3234 211.655 83.8037L203.73 78.8569C201.634 77.5484 201.949 74.4057 204.264 73.5386L213.015 70.2601C213.934 69.9158 214.625 69.1416 214.862 68.1896L217.123 59.1271C217.72 56.7303 220.809 56.0583 222.348 57.9899L222.349 57.9898Z" fill="url(#paint9_linear_9064_50713)"/>
<path opacity="0.2" d="M224.027 78.2805C226.183 77.8115 227.55 75.6837 227.081 73.5281C226.612 71.3726 224.484 70.0053 222.329 70.4744C220.173 70.9435 218.806 73.0712 219.275 75.2268C219.744 77.3824 221.872 78.7496 224.027 78.2805Z" fill="#F0F3FA"/>
<path opacity="0.2" d="M232.815 83.8835C232.897 84.2578 232.946 84.6317 232.966 85.0024L219.468 87.9397C219.332 87.5944 219.222 87.2335 219.14 86.8592C218.318 83.0828 220.713 79.3559 224.49 78.5342C228.266 77.7125 231.993 80.1074 232.815 83.8835Z" fill="#F0F3FA"/>
<path d="M74.8947 99.796L78.381 108.258C78.7472 109.147 79.5318 109.801 80.479 110.008L89.4993 111.976C91.885 112.497 92.6359 115.496 90.7701 117.051L83.7149 122.932C82.9738 123.549 82.5884 124.489 82.6838 125.443L83.5923 134.533C83.8325 136.937 81.1816 138.565 79.1063 137.288L71.2598 132.461C70.4357 131.954 69.4127 131.88 68.5245 132.263L60.0656 135.912C57.8283 136.878 55.4391 134.885 56.0223 132.541L58.2281 123.676C58.4597 122.745 58.213 121.76 57.5687 121.043L51.4322 114.209C49.8094 112.401 50.9836 109.541 53.4194 109.369L62.6289 108.718C63.5961 108.65 64.4666 108.115 64.9567 107.288L69.6233 99.4152C70.8576 97.333 73.9726 97.5581 74.8947 99.796Z" fill="url(#paint10_linear_9064_50713)"/>
<path d="M86.7404 16.2406L85.5877 20.5686L88.763 23.744L93.0911 22.5913L94.2438 18.2632L91.0684 15.0879L86.7404 16.2406Z" fill="#E0700D"/>
<path d="M26.8755 86.5L23 88.7453V93.236L26.8755 95.4813L30.751 93.236V88.7453L26.8755 86.5Z" fill="#8547FF"/>
<path d="M217.74 22.2406L216.588 26.5686L219.763 29.744L224.091 28.5913L225.244 24.2632L222.068 21.0879L217.74 22.2406Z" fill="#008A53"/>
<path d="M257.875 78.5L254 80.7453V85.236L257.875 87.4813L261.751 85.236V80.7453L257.875 78.5Z" fill="#DC244C"/>
<g clip-path="url(#clip1_9064_50713)">
<path d="M242.494 108.378L242.287 108.515C241.215 107.144 238.534 107.728 237.575 107.993C236.389 106.695 233.97 107.288 233.247 107.502L232.083 102.441C231.377 99.3706 227.081 100.358 227.787 103.429L231.008 117.434C230.704 116.11 229.811 115.733 228.493 115.027C225.284 113.312 223.422 116.934 226.068 118.57C231.96 122.218 234.501 126.078 235.533 130.566L248.42 127.603C248.42 127.603 248.014 125.01 248.434 122.415C248.874 119.681 248.744 115.89 248.103 113.103L247.386 109.985C246.669 106.866 242.493 108.375 242.493 108.375L242.494 108.378Z" fill="white"/>
<path d="M246.57 107.724C245.079 106.923 243.07 107.436 242.442 107.631C242.289 107.505 242.127 107.39 241.949 107.297C240.458 106.496 238.449 107.009 237.821 107.204C237.668 107.078 237.506 106.963 237.328 106.87C236.167 106.244 234.69 106.42 233.797 106.619L232.8 102.281C232.345 100.305 230.666 99.6021 229.245 99.9289C227.823 100.256 226.62 101.622 227.074 103.598L229.688 114.964C229.422 114.741 229.139 114.547 228.85 114.39C226.799 113.294 225.132 114.035 224.45 115.189C223.753 116.368 223.954 118.121 225.681 119.19C230.912 122.429 233.731 125.986 234.822 130.732L234.985 131.441L249.256 128.159L249.151 127.491C249.145 127.466 248.767 124.982 249.163 122.53C249.62 119.679 249.486 115.826 248.822 112.937L248.106 109.827C247.887 108.875 247.358 108.149 246.574 107.729L246.57 107.724ZM247.387 113.27C248.002 115.947 248.135 119.662 247.708 122.304C247.402 124.201 247.515 126.073 247.612 127.042L236.074 129.695C234.78 124.894 231.788 121.251 226.458 117.951C225.48 117.344 225.385 116.473 225.713 115.917C226.032 115.375 226.862 114.984 228.142 115.669C229.287 116.28 230.3 117.641 230.551 118.733L231.984 118.403L228.503 103.264C228.25 102.164 228.856 101.505 229.566 101.341C230.277 101.178 231.11 101.506 231.363 102.606L233.931 113.776L235.364 113.447L234.118 108.029C234.848 107.867 235.909 107.76 236.622 108.146C237.036 108.37 237.297 108.746 237.423 109.293L238.222 112.766L239.655 112.436L238.856 108.963C238.816 108.788 238.763 108.624 238.702 108.464C239.43 108.297 240.52 108.181 241.243 108.573C241.657 108.797 241.918 109.173 242.044 109.72L242.843 113.193L244.276 112.863L243.477 109.39C243.437 109.214 243.384 109.051 243.323 108.891C244.048 108.725 245.131 108.607 245.862 109C246.275 109.224 246.539 109.6 246.666 110.15L247.383 113.268L247.387 113.27Z" fill="#3D4866"/>
</g>
</g>
<defs>
<filter id="filter0_f_9064_50713" x="20.5898" y="20.168" width="56.8516" height="47.8477" filterUnits="userSpaceOnUse" color-interpolation-filters="sRGB">
<feFlood flood-opacity="0" result="BackgroundImageFix"/>
<feBlend mode="normal" in="SourceGraphic" in2="BackgroundImageFix" result="shape"/>
<feGaussianBlur stdDeviation="2" result="effect1_foregroundBlur_9064_50713"/>
</filter>
<filter id="filter1_d_9064_50713" x="98.9367" y="49.4367" width="106.201" height="99.8678" filterUnits="userSpaceOnUse" color-interpolation-filters="sRGB">
<feFlood flood-opacity="0" result="BackgroundImageFix"/>
<feColorMatrix in="SourceAlpha" type="matrix" values="0 0 0 0 0 0 0 0 0 0 0 0 0 0 0 0 0 0 127 0" result="hardAlpha"/>
<feOffset dx="1" dy="-6"/>
<feGaussianBlur stdDeviation="8.1"/>
<feComposite in2="hardAlpha" operator="out"/>
<feColorMatrix type="matrix" values="0 0 0 0 0 0 0 0 0 0 0 0 0 0 0 0 0 0 0.27 0"/>
<feBlend mode="normal" in2="BackgroundImageFix" result="effect1_dropShadow_9064_50713"/>
<feBlend mode="normal" in="SourceGraphic" in2="effect1_dropShadow_9064_50713" result="shape"/>
</filter>
<linearGradient id="paint0_linear_9064_50713" x1="42.7644" y1="30.6563" x2="52.3801" y2="47.7636" gradientUnits="userSpaceOnUse">
<stop stop-color="#2861D3"/>
<stop offset="1" stop-color="#7335F0"/>
</linearGradient>
<linearGradient id="paint1_linear_9064_50713" x1="10.5424" y1="0" x2="10.5424" y2="3.24381" gradientUnits="userSpaceOnUse">
<stop stop-color="#D0D0FB"/>
<stop offset="1" stop-color="#81A7F3"/>
</linearGradient>
<linearGradient id="paint2_linear_9064_50713" x1="14.5972" y1="0" x2="14.5972" y2="3.24381" gradientUnits="userSpaceOnUse">
<stop stop-color="#D0D0FB"/>
<stop offset="1" stop-color="#81A7F3"/>
</linearGradient>
<linearGradient id="paint3_linear_9064_50713" x1="14.5972" y1="0" x2="14.5972" y2="3.24381" gradientUnits="userSpaceOnUse">
<stop stop-color="#D0D0FB"/>
<stop offset="1" stop-color="#81A7F3"/>
</linearGradient>
<linearGradient id="paint4_linear_9064_50713" x1="151" y1="100.5" x2="151" y2="412.5" gradientUnits="userSpaceOnUse">
<stop stop-color="#161E33"/>
<stop offset="1" stop-color="#0E1424"/>
</linearGradient>
<linearGradient id="paint5_linear_9064_50713" x1="124.62" y1="-6.91788" x2="144.173" y2="99.1315" gradientUnits="userSpaceOnUse">
<stop stop-color="#D9E2FE"/>
<stop offset="0.485" stop-color="#89A9FF"/>
<stop offset="1" stop-color="#2F6FF0"/>
</linearGradient>
<linearGradient id="paint6_linear_9064_50713" x1="143.26" y1="-8.87973" x2="160.428" y2="96.5848" gradientUnits="userSpaceOnUse">
<stop stop-color="#D9E2FE"/>
<stop offset="0.485" stop-color="#89A9FF"/>
<stop offset="1" stop-color="#2F6FF0"/>
</linearGradient>
<linearGradient id="paint7_linear_9064_50713" x1="188.39" y1="18.0993" x2="187.899" y2="95.113" gradientUnits="userSpaceOnUse">
<stop stop-color="#D9E2FE"/>
<stop offset="0.404572" stop-color="#89A9FF"/>
<stop offset="1" stop-color="#2F6FF0"/>
</linearGradient>
<linearGradient id="paint8_linear_9064_50713" x1="153.258" y1="71.5" x2="153.258" y2="134.645" gradientUnits="userSpaceOnUse">
<stop stop-color="#DC244C"/>
<stop offset="1" stop-color="#BE003A"/>
</linearGradient>
<linearGradient id="paint9_linear_9064_50713" x1="221.45" y1="66.4361" x2="227.876" y2="95.9658" gradientUnits="userSpaceOnUse">
<stop stop-color="#2861D3"/>
<stop offset="1" stop-color="#7335F0"/>
</linearGradient>
<linearGradient id="paint10_linear_9064_50713" x1="71.5968" y1="108.771" x2="69.5614" y2="136.941" gradientUnits="userSpaceOnUse">
<stop stop-color="#779CE6"/>
<stop offset="1" stop-color="#2567EB"/>
</linearGradient>
<clipPath id="clip0_9064_50713">
<rect width="300" height="210" fill="white" transform="translate(0 0.5)"/>
</clipPath>
<clipPath id="clip1_9064_50713">
<rect width="25" height="32" fill="white" transform="translate(220.629 101.904) rotate(-12.9499)"/>
</clipPath>
</defs>
</svg>
