<?xml version="1.0" encoding="UTF-8"?>
<svg id="Layer_1" data-name="Layer 1" xmlns="http://www.w3.org/2000/svg" viewBox="0 0 40 40">
  <defs>
    <style>
      .cls-1 {
        fill: #7ec465;
      }

      .cls-1, .cls-2, .cls-3, .cls-4, .cls-5, .cls-6, .cls-7, .cls-8, .cls-9, .cls-10, .cls-11 {
        stroke-width: 0px;
      }

      .cls-2 {
        fill: #f2695e;
      }

      .cls-3 {
        fill: #fdd92f;
      }

      .cls-4 {
        fill: #023848;
      }

      .cls-5 {
        fill: #fdda32;
      }

      .cls-6 {
        fill: #7dc363;
      }

      .cls-7 {
        fill: #034a61;
      }

      .cls-8 {
        fill: #8e9da9;
      }

      .cls-9 {
        fill: #e7f4fa;
      }

      .cls-10 {
        fill: #71b3e2;
      }

      .cls-11 {
        fill: #73b4e2;
      }
    </style>
  </defs>
  <path class="cls-9" d="m2,27.87c0-7.11,0-14.21,0-21.32,0-.83.49-1.52,1.25-1.83.15-.06.31-.07.47-.1.06-.01.12,0,.18,0,10.73,0,21.45,0,32.18,0,.83,0,1.52.5,1.83,1.25.06.15.07.31.1.47.01.06,0,.12,0,.18v21.35c-.11.1-.24.11-.37.12-.12,0-.24,0-.36,0-11.51,0-23.02,0-34.53,0-.25,0-.51.06-.74-.12Z"/>
  <path class="cls-7" d="m2,27.87h36.01c0,.4,0,.8,0,1.2.02.83-.49,1.52-1.25,1.83-.19.07-.4.11-.61.11-3.1,0-6.19,0-9.29,0-.14.12-.31.12-.48.12-4.25,0-8.49,0-12.74,0-.17,0-.34,0-.48-.12-3.1,0-6.19,0-9.29,0-.49,0-.92-.18-1.27-.53-.18-.18-.34-.36-.43-.59-.08-.2-.16-.4-.16-.63,0-.46,0-.92,0-1.38Z"/>
  <path class="cls-4" d="m13.15,31.01h13.7c-.01.16.09.29.16.4.27.44.52.91.79,1.35.29.46.53.96.84,1.4.17.24.28.51.42.77.04.07.04.15.08.26-.08.05-.17.1-.31.18H11.07c-.05-.06-.11-.12-.18-.19-.05-.2.09-.36.18-.53.12-.23.26-.45.41-.67.25-.39.48-.8.71-1.2.22-.38.46-.75.66-1.15.09-.17.19-.33.28-.5.02-.04.02-.09.03-.13Z"/>
  <path class="cls-10" d="m6.81,17.45c-.4-.22-.71-.56-1-.91-.51-.6-.9-1.28-1.11-2.05-.11-.41-.23-.82-.22-1.26,0-.16-.1-.31-.07-.48.06-.4.07-.81.16-1.21.08-.38.2-.76.36-1.12.36-.81.89-1.5,1.56-2.08.25-.22.52-.43.82-.58.28-.14.53-.35.86-.38.45-.26.95-.3,1.45-.38.21-.03.42-.06.63-.06.07.07.1.16.1.26,0,1.02.05,2.04-.02,3.06-.05.18-.21.18-.35.2-.99.16-1.66.72-1.95,1.67-.27.9-.01,1.69.64,2.36.06.06.13.11.15.2.02.11-.03.19-.09.27-.59.79-1.18,1.58-1.77,2.36-.04.05-.08.09-.14.12Z"/>
  <path class="cls-10" d="m35.02,26.91c-.1.07-.22.16-.33.24h-1.93c-.09-.09-.2-.2-.3-.3,0-3.55,0-7.08,0-10.6,0-.11,0-.21.02-.32.03-.17.18-.23.33-.31h1.87c.11.08.22.16.33.24v11.04Z"/>
  <path class="cls-3" d="m10.23,10.38v-3.43c.33.02.67.01.99.08.38.08.76.19,1.14.32.51.18.97.45,1.39.77.29.23.63.41.81.77.08.16.25.28.37.43.26.32.45.67.62,1.02.17.37.29.75.39,1.15.15.61.15,1.22.13,1.84,0,.28-.06.58-.15.85-.09.28-.15.57-.3.82,0,.02-.04.02-.06.03-.12.09-.23.02-.34-.03-.81-.35-1.62-.71-2.44-1.05-.11-.05-.22-.1-.27-.22-.05-.16,0-.31.03-.46.3-1.47-.81-2.75-2.07-2.8-.08,0-.17-.02-.23-.09Z"/>
  <path class="cls-11" d="m29.23,16.23c.41-.4.8-.81,1.23-1.17.29-.24.53-.52.82-.75.36-.28.67-.62,1-.93.05-.05.12-.09.23-.16-.39.02-.74.02-.97-.32-.03-.1-.06-.2-.1-.32.11-.18.13-.45.55-.52.28,0,.72-.03,1.16.01.29.03.59.06.88.07.09,0,.19.07.27.12.08.05.14.13.2.19,0,.28,0,.53-.06.79-.05.23-.08.47-.15.7-.04.14-.04.3-.06.44-.02.16-.11.31-.09.48-.09.08-.17.17-.24.23-.1.03-.17.05-.28.09-.12-.04-.28-.1-.4-.15-.23-.21-.15-.46-.18-.71-.19.15-.37.28-.54.43-.4.36-.79.74-1.18,1.11-.45.43-.9.86-1.36,1.29-.14.13-.29.23-.46.36-.06.02-.14.04-.25.08-.12-.05-.3-.07-.41-.17-.47-.4-1.01-.69-1.5-1.04-.63-.45-1.29-.87-1.94-1.29-.16-.1-.33-.19-.52-.3-.18.22-.34.42-.5.62-.02.03-.03.06-.05.09-.08.11-.17.22-.26.33-.12.15-.26.28-.35.44-.09.15-.2.29-.3.42-.21.25-.41.51-.6.77-.29.38-.58.75-.86,1.13-.2.26-.41.51-.6.78-.21.28-.46.52-.63.83-.06.11-.19.17-.32.18-.12,0-.24,0-.35,0-.27-.07-.3-.32-.41-.52.03-.1.06-.19.11-.33.31-.38.63-.81.95-1.24.19-.25.39-.49.58-.75.29-.38.58-.75.86-1.13.18-.25.39-.49.58-.75.29-.39.6-.76.88-1.16.23-.33.5-.63.77-.92.24-.26.47-.26.77-.06.39.27.77.53,1.16.8.9.61,1.8,1.22,2.7,1.83.05.04.12.05.23.1Z"/>
  <path class="cls-6" d="m12.56,13.73c.06.05.11.12.18.13.33.09.62.26.93.38.48.18.93.44,1.42.6.16.05.28.2.46.2,0,.07,0,.15-.03.21-.13.26-.24.55-.42.77-.28.34-.51.71-.84,1-.52.45-1.07.87-1.72,1.12-.38.14-.75.34-1.17.33-.16.14-.37,0-.51.08-.19.11-.37.04-.56.06-.18.02-.38.05-.54,0-.26-.08-.53-.04-.78-.13-.23-.09-.48-.14-.71-.21-.25-.08-.47-.22-.71-.32-.28-.12-.54-.27-.76-.49,0-.04,0-.1.03-.13.39-.47.74-.97,1.1-1.46.27-.37.56-.73.84-1.1.16-.06.27.06.4.12.82.39,2.07.34,2.8-.51.11-.13.2-.27.3-.41.07-.1.11-.25.29-.22Z"/>
  <path class="cls-1" d="m25.79,17.67c.19.15.26.34.26.59,0,2.77,0,5.53,0,8.3,0,.27-.06.48-.38.59h-1.93s-.1-.1-.15-.15c-.12-.12-.18-.26-.18-.44,0-1,0-1.99,0-2.99,0-1.75,0-3.5,0-5.24,0-.13.01-.25.07-.37.08-.17.18-.28.37-.28.4,0,.8,0,1.2,0h.72Z"/>
  <path class="cls-5" d="m30.21,27.15h-1.97c-.09-.09-.2-.2-.3-.3,0-2.18,0-4.33,0-6.47,0-.27.04-.49.39-.59h1.93c.1.12.21.26.31.38,0,2.08,0,4.15,0,6.21,0,.32-.05.59-.36.77Z"/>
  <path class="cls-8" d="m5,25.79c-.03-.1-.06-.2-.1-.31.06-.12.13-.25.19-.38.14-.15.31-.14.49-.14,3.21,0,6.41,0,9.65,0,.1.12.21.25.3.35.09.44-.08.69-.52.82-3.04,0-6.15,0-9.26,0-.31,0-.56-.05-.75-.34Z"/>
  <path class="cls-8" d="m4.9,20.67c.07-.14.13-.26.19-.37.14-.15.31-.15.49-.15,3.18,0,6.36,0,9.54,0,.18.09.36.17.41.4.03.19.04.39-.11.58-.1.05-.22.11-.37.19-3.14,0-6.31,0-9.47,0-.27,0-.43-.16-.57-.31-.04-.13-.07-.23-.11-.34Z"/>
  <path class="cls-8" d="m15.12,22.55c.38.15.48.42.43.78-.15.26-.39.39-.7.39-3.15,0-6.29,0-9.46,0-.12-.09-.26-.2-.36-.27-.05-.14-.08-.24-.12-.36.13-.17.11-.47.41-.53h9.8Z"/>
  <path class="cls-2" d="m18.98,22.86c.1-.07.22-.16.33-.24h1.93c.09.09.2.2.3.3v3.93c-.09.09-.2.2-.3.3h-1.93c-.11-.08-.22-.16-.33-.24v-4.05Z"/>
  <path class="cls-8" d="m27.98,11.84c.1.1.2.21.32.32v.44c-.12.33-.39.41-.7.41-2.83,0-5.66,0-8.49,0-.31,0-.58-.07-.71-.42v-.42c.11-.1.22-.2.35-.32h9.23Z"/>
  <path class="cls-8" d="m18.4,7.34c.13-.1.25-.2.38-.3h9.15c.12.09.26.19.39.3,0,.1,0,.19,0,.27,0,.16-.04.29-.15.41-.11.12-.27.12-.4.17-.06.03-.14,0-.22,0-2.79,0-5.59,0-8.38,0-.14,0-.27,0-.41-.07-.21-.09-.34-.21-.36-.42,0-.12,0-.24,0-.37Z"/>
  <path class="cls-8" d="m18.4,9.79c.11-.11.24-.24.35-.35h9.17c.12.09.26.2.39.3,0,.16.02.31,0,.45-.03.2-.29.39-.54.41-.07,0-.15,0-.22,0-2.79,0-5.59,0-8.38,0-.12,0-.24,0-.38-.06-.29-.14-.38-.21-.39-.49,0-.07,0-.14,0-.25Z"/>
  <path class="cls-9" d="m12.56,13.73c-.13.02-.14.14-.19.23-.28.56-.75.89-1.29,1.13-.15.07-.33.07-.5.09-.12.01-.24,0-.36,0-.48.03-.91-.08-1.3-.36-.04-.03-.1-.05-.15-.07-.02-.03-.03-.08-.05-.08-.27-.1-.39-.36-.52-.58-.13-.22-.25-.44-.31-.7-.09-.35-.03-.68-.06-1.02.16-.4.23-.84.58-1.14.23-.2.41-.43.7-.58.36-.18.72-.29,1.12-.27.41-.05.79.06,1.14.24.56.28.93.75,1.18,1.31.04.1-.04.22.08.3-.03.28.17.54.02.85-.09.19-.06.43-.09.66Z"/>
</svg>