<svg width="72" height="64" viewBox="0 0 72 64" fill="none" xmlns="http://www.w3.org/2000/svg">
<path d="M40.3966 24.1726L40.2825 24.0594C40.3247 23.9484 40.3532 23.8262 40.3966 23.7198H40.5107C40.481 23.9213 40.4171 24.0549 40.3966 24.1726Z" fill="#B4BACC"/>
<path d="M40.3966 24.1726C39.7576 27.8338 39.0366 31.4815 38.457 35.1541H47.9266L43.4462 21.0333L38.3429 18.2857H46.5575L54.5679 42.6577L58.8794 45.0023H46.8998L50.5599 43.1162C50.6534 42.8139 48.8656 37.3888 48.6705 37.0752C48.5028 36.8058 48.4994 36.6903 48.1046 36.7311L38.0542 36.8477L36.9692 42.7686L41.1952 45.0023H29.786L33.4609 42.9316C35.7929 36.6643 37.9151 30.3109 40.2825 24.0594C40.3703 23.9337 40.408 23.9711 40.3966 24.1726Z" fill="#B4BACC"/>
<path d="M71.8859 18.2856L67.8927 20.7197L67.8836 42.5705L72 45.0023H60.0204L64.1368 42.5728L64.1311 20.628L60.1344 18.2856H71.8859Z" fill="#B4BACC"/>
<path d="M9.36474 18.3988C9.6899 18.332 9.84165 18.3694 9.82111 18.5121C4.7463 22.2525 7.5233 26.7662 10.8445 30.3448C14.1349 33.8895 19.5657 39.5364 23.2235 42.515C24.5504 43.595 26.0701 44.2245 27.5042 45.1166H21.1721C17.2987 40.2508 6.52842 33.0336 4.51812 27.4534C3.17754 23.7299 4.96308 18.6355 9.36474 18.3988Z" fill="#B4BACC"/>
<path d="M5.37154 32.2106V32.3238C-1.75349 39.5964 7.31681 47.6718 14.1566 40.3617V40.4749C13.5976 42.8014 11.0134 45.0543 8.68249 45.5151C-1.02673 47.4363 -3.24467 34.8891 5.37154 32.2106Z" fill="#B4BACC"/>
<path d="M13.4721 27.5689C15.6215 24.7817 14.9336 19.9759 11.6477 18.3977C16.5982 17.8441 19.9331 23.6982 16.6096 27.5689H13.4721Z" fill="#B4BACC"/>
<path d="M18.4921 34.2484C18.6747 32.823 18.2388 31.9423 17.123 31.0785H21.4585C20.5811 32.2694 19.5897 33.3721 18.6062 34.4748C18.4522 34.5993 18.4145 34.5235 18.4921 34.2484Z" fill="#B4BACC"/>
</svg>
