<svg width="90" height="80" viewBox="0 0 90 80" fill="none" xmlns="http://www.w3.org/2000/svg">
<path d="M50.4957 30.2159L50.3531 30.0744C50.4059 29.9357 50.4415 29.7828 50.4957 29.6498H50.6383C50.6012 29.9017 50.5214 30.0687 50.4957 30.2159Z" fill="white"/>
<path d="M50.4957 30.2159C49.6971 34.7924 48.7957 39.352 48.0712 43.9427H59.9083L54.3078 26.2917L47.9286 22.8572H58.1969L68.2099 53.3222L73.5993 56.2529H58.6247L63.1998 53.8953C63.3168 53.5175 61.082 46.7362 60.8381 46.3442C60.6285 46.0074 60.6242 45.863 60.1307 45.914L47.5678 46.0597L46.2115 53.4609L51.494 56.2529H37.2325L41.8261 53.6647C44.7412 45.8305 47.3938 37.8887 50.3531 30.0744C50.4629 29.9173 50.51 29.964 50.4957 30.2159Z" fill="white"/>
<path d="M89.8574 22.8572L84.8659 25.8997L84.8545 53.2132L90 56.2529H75.0254L80.171 53.2161L80.1639 25.7851L75.1681 22.8572H89.8574Z" fill="white"/>
<path d="M11.7059 22.9987C12.1124 22.9152 12.3021 22.9619 12.2764 23.1402C5.93288 27.8158 9.40412 33.4579 13.5556 37.9312C17.6687 42.362 24.4571 49.4207 29.0293 53.1439C30.688 54.4939 32.5876 55.2807 34.3803 56.3958H26.4651C21.6234 50.3136 8.16052 41.2921 5.64765 34.3169C3.97192 29.6625 6.20385 23.2944 11.7059 22.9987Z" fill="white"/>
<path d="M6.71443 40.2633V40.4048C-2.19187 49.4957 9.14601 59.5898 17.6958 50.4523V50.5938C16.997 53.5019 13.7667 56.318 10.8531 56.894C-1.28341 59.2955 -4.05584 43.6115 6.71443 40.2633Z" fill="white"/>
<path d="M16.8401 34.4613C19.5269 30.9772 18.667 24.97 14.5597 22.9973C20.7477 22.3053 24.9164 29.6229 20.762 34.4613H16.8401Z" fill="white"/>
<path d="M23.1152 42.8106C23.3433 41.0289 22.7986 39.9279 21.4038 38.8482H26.8231C25.7264 40.3369 24.4871 41.7153 23.2578 43.0936C23.0652 43.2493 23.0182 43.1544 23.1152 42.8106Z" fill="white"/>
</svg>
