<svg width="128" height="56" viewBox="0 0 128 56" fill="none" xmlns="http://www.w3.org/2000/svg">
<g clip-path="url(#clip0_17178_6010)">
<path d="M14.0102 18.0775L10.29 28.7671H17.8246L14.0102 18.0775ZM10.4313 39.598V41.5759H0.918945V39.598H3.93276L13.2097 14.1689H16.8357L26.3951 39.598H29.3148V41.5759H18.2955V39.598H21.7331L18.5309 30.6979H9.58367L6.47567 39.598H10.4313ZM40.7042 39.8806V41.5759H30.0615V39.8806H32.8399V23.2104H30.0615V21.5151H36.9839V24.9999C38.8205 23.2104 40.9396 21.0442 42.5877 21.0442C44.1418 21.0442 45.5075 22.0331 46.2609 22.9279L44.0476 26.3655C42.6349 25.3766 41.5046 24.4819 40.2332 24.4819C39.6211 24.4819 38.3966 24.7644 36.9839 26.0359V39.8806H40.7042ZM57.4303 28.202C57.4303 25.7533 56.2058 23.7755 53.2391 23.7755C51.0729 23.7755 49.3306 25.3766 48.2946 27.7782L46.5522 27.0719C47.8707 23.5871 50.7433 21.0442 54.6518 21.0442C58.7958 21.0442 61.5743 23.6342 61.5743 28.0137V37.9969C61.5743 39.1742 62.1393 39.6451 62.9398 39.6451C63.6933 39.6451 64.3526 39.2684 64.8706 38.7975L65.7653 39.9748C64.8236 41.0108 63.4578 42.0468 61.9038 42.0468C59.8318 42.0468 58.1366 41.0108 57.4773 38.6562C56.1116 40.3515 53.8042 41.9997 51.3084 41.9997C48.6242 41.9997 46.2226 40.2573 46.2226 37.1964C46.2226 34.2768 48.6713 32.8169 51.638 31.7339L57.4303 29.6619V28.202ZM57.4303 31.31L53.4746 32.8169C51.5438 33.5704 50.3195 34.5593 50.3195 36.3959C50.3195 38.4679 51.4496 39.551 53.0507 39.551C54.746 39.551 56.3 38.562 57.4303 37.3377V31.31ZM75.7556 22.7866C72.7889 22.7866 69.9164 25.4708 69.9164 30.2269C69.9164 35.7837 73.4482 39.4568 77.4038 39.4568C79.0049 39.4568 80.6531 38.9388 82.2071 37.1964L83.1489 38.1382C81.2182 40.7753 78.534 42.0468 75.7085 42.0468C70.5285 42.0468 65.9607 38.1382 65.9607 32.1106C65.9607 26.0359 70.3402 21.0442 75.944 21.0442C78.2043 21.0442 79.7584 21.986 80.5589 22.7866L81.0298 21.2326H82.3954V28.2962H80.8414C80.1351 24.576 78.4398 22.7866 75.7556 22.7866ZM93.745 42.0468C88.8947 42.0468 84.1385 37.9969 84.1385 31.5455C84.1385 25.094 88.8947 21.0442 93.745 21.0442C98.5953 21.0442 103.351 25.094 103.351 31.5455C103.351 37.9969 98.5953 42.0468 93.745 42.0468ZM93.745 22.8337C90.6841 22.8337 88.4709 25.8946 88.4709 31.5455C88.4709 37.1964 90.6841 40.2573 93.745 40.2573C96.8059 40.2573 99.0191 37.1964 99.0191 31.5455C99.0191 25.8946 96.8059 22.8337 93.745 22.8337ZM115.715 39.8806V41.5759H105.072V39.8806H107.851V23.2104H105.072V21.5151H111.995V24.9999C113.831 23.2104 115.95 21.0442 117.598 21.0442C119.152 21.0442 120.518 22.0331 121.272 22.9279L119.058 26.3655C117.646 25.3766 116.515 24.4819 115.244 24.4819C114.632 24.4819 113.407 24.7644 111.995 26.0359V39.8806H115.715Z" fill="#B4BACC"/>
<path d="M120.155 38.986C120.155 37.2907 121.521 35.925 123.216 35.925C124.911 35.925 126.277 37.2907 126.277 38.986C126.277 40.6812 124.911 42.0469 123.216 42.0469C121.521 42.0469 120.155 40.6812 120.155 38.986Z" fill="#B4BACC"/>
</g>
<defs>
<clipPath id="clip0_17178_6010">
<rect width="127.75" height="56" fill="white"/>
</clipPath>
</defs>
</svg>
