<svg width="146" height="64" viewBox="0 0 146 64" fill="none" xmlns="http://www.w3.org/2000/svg">
<g clip-path="url(#clip0_16185_9678)">
<g clip-path="url(#clip1_16185_9678)">
<path d="M16.7144 20.6598L12.4627 32.8765H21.0737L16.7144 20.6598ZM12.6242 45.2547V47.5151H1.75293V45.2547H5.19729L15.7995 16.1929H19.9435L30.8686 45.2547H34.2053V47.5151H21.6118V45.2547H25.5406L21.8809 35.0831H11.6555L8.10347 45.2547H12.6242ZM47.2218 45.5776V47.5151H35.0588V45.5776H38.234V26.526H35.0588V24.5885H42.97V28.5711C45.0689 26.526 47.4909 24.0503 49.3744 24.0503C51.1505 24.0503 52.7112 25.1805 53.5723 26.2031L51.0429 30.1318C49.4283 29.0016 48.1366 27.9791 46.6835 27.9791C45.984 27.9791 44.5846 28.302 42.97 29.7551V45.5776H47.2218ZM66.3373 32.2307C66.3373 29.4321 64.9379 27.1718 61.5474 27.1718C59.0718 27.1718 57.0805 29.0016 55.8965 31.7463L53.9052 30.9391C55.4121 26.9565 58.695 24.0503 63.1619 24.0503C67.8979 24.0503 71.0733 27.0103 71.0733 32.0154V43.4249C71.0733 44.7703 71.719 45.3085 72.6339 45.3085C73.495 45.3085 74.2485 44.878 74.8405 44.3398L75.863 45.6852C74.7868 46.8692 73.2259 48.0532 71.4499 48.0532C69.0819 48.0532 67.1445 46.8692 66.391 44.1783C64.8303 46.1158 62.1932 47.9994 59.3408 47.9994C56.2732 47.9994 53.5285 46.0081 53.5285 42.51C53.5285 39.1732 56.327 37.5049 59.7176 36.2671L66.3373 33.8991V32.2307ZM66.3373 35.7827L61.8165 37.5049C59.6099 38.366 58.2107 39.4961 58.2107 41.5951C58.2107 43.9631 59.5023 45.2009 61.3321 45.2009C63.2696 45.2009 65.0456 44.0707 66.3373 42.6714V35.7827ZM87.2806 26.0416C83.89 26.0416 80.6071 29.1092 80.6071 34.5449C80.6071 40.8954 84.6435 45.0932 89.1642 45.0932C90.994 45.0932 92.8776 44.5012 94.6536 42.51L95.73 43.5863C93.5235 46.6001 90.4558 48.0532 87.2267 48.0532C81.3067 48.0532 76.0864 43.5863 76.0864 36.6976C76.0864 29.7551 81.0915 24.0503 87.4958 24.0503C90.0791 24.0503 91.8551 25.1267 92.77 26.0416L93.3082 24.2656H94.8689V32.3383H93.0929C92.2856 28.0867 90.3482 26.0416 87.2806 26.0416ZM107.84 48.0532C102.297 48.0532 96.861 43.4249 96.861 36.0518C96.861 28.6787 102.297 24.0503 107.84 24.0503C113.383 24.0503 118.819 28.6787 118.819 36.0518C118.819 43.4249 113.383 48.0532 107.84 48.0532ZM107.84 26.0954C104.342 26.0954 101.812 29.5936 101.812 36.0518C101.812 42.51 104.342 46.0081 107.84 46.0081C111.338 46.0081 113.867 42.51 113.867 36.0518C113.867 29.5936 111.338 26.0954 107.84 26.0954ZM132.948 45.5776V47.5151H120.785V45.5776H123.961V26.526H120.785V24.5885H128.697V28.5711C130.795 26.526 133.217 24.0503 135.101 24.0503C136.877 24.0503 138.438 25.1805 139.299 26.2031L136.769 30.1318C135.155 29.0016 133.863 27.9791 132.41 27.9791C131.71 27.9791 130.311 28.302 128.697 29.7551V45.5776H132.948Z" fill="white"/>
<path d="M138.022 44.5553C138.022 42.6179 139.583 41.0571 141.521 41.0571C143.458 41.0571 145.019 42.6179 145.019 44.5553C145.019 46.4928 143.458 48.0535 141.521 48.0535C139.583 48.0535 138.022 46.4928 138.022 44.5553Z" fill="#E35336"/>
</g>
</g>
<defs>
<clipPath id="clip0_16185_9678">
<rect width="146" height="64" fill="white"/>
</clipPath>
<clipPath id="clip1_16185_9678">
<rect width="148" height="33.6364" fill="white" transform="translate(1 15)"/>
</clipPath>
</defs>
</svg>
