<svg width="158" height="56" viewBox="0 0 158 56" fill="none" xmlns="http://www.w3.org/2000/svg">
<g clip-path="url(#clip0_17178_6015)">
<path d="M18.3784 10.5C20.4959 10.5 22.3683 11.5357 23.5044 13.1218C24.1131 12.9275 24.7624 12.8226 25.4366 12.8226C28.7408 12.8226 31.4485 15.3443 31.6926 18.5446C34.2067 19.352 36.0239 21.6843 36.0239 24.4355C36.0239 25.8529 35.5415 27.159 34.7301 28.2027C35.3024 29.1368 35.6318 30.2321 35.6318 31.4033C35.6318 34.0058 34.0057 36.2332 31.7019 37.1498C31.5295 40.4184 28.7904 43.0162 25.4366 43.0162C24.7624 43.0162 24.1131 42.9112 23.5044 42.7169C22.3683 44.3031 20.4959 45.3388 18.3784 45.3388C16.2608 45.3388 14.3884 44.3031 13.2522 42.7169C12.6436 42.9112 11.9944 43.0162 11.3202 43.0162C7.96639 43.0162 5.22714 40.4184 5.05482 37.1498C2.75104 36.2331 1.125 34.0058 1.125 31.4033C1.125 30.1115 1.52565 28.912 2.21095 27.9194C1.52565 26.9268 1.125 25.7274 1.125 24.4355C1.125 21.833 2.75102 19.6056 5.05482 18.6889C5.22719 15.4204 7.96642 12.8226 11.3202 12.8226C11.9943 12.8226 12.6436 12.9275 13.2522 13.1218C14.3884 11.5356 16.2609 10.5 18.3784 10.5ZM14.9176 40.8566C15.8437 41.7156 17.0902 42.242 18.4612 42.242C19.7959 42.242 21.0124 41.7431 21.9303 40.9241L19.6185 34.2218C19.2787 34.2775 18.93 34.3065 18.5744 34.3065C18.1118 34.3065 17.6606 34.2573 17.2258 34.1642L14.9176 40.8566ZM7.58618 36.3329C8.10219 38.6178 10.1681 40.3259 12.6381 40.3259C12.8514 40.3259 13.0616 40.313 13.2681 40.2882L15.5857 33.5682C14.9039 33.208 14.2951 32.7284 13.7873 32.1573L7.58618 36.3329ZM23.2878 32.2384C22.7261 32.849 22.047 33.3501 21.2861 33.706L23.5519 40.275C23.7911 40.3084 24.0356 40.3259 24.2841 40.3259C26.7611 40.3259 28.8315 38.6083 29.3402 36.3137L23.2878 32.2384ZM4.61953 28.7904C4.36674 29.3926 4.22713 30.0528 4.22712 30.7451C4.22713 32.5009 5.12427 34.0497 6.49057 34.9695L12.8174 30.7091C12.5281 30.1152 12.3282 29.4698 12.2354 28.7904H4.61953ZM24.9135 28.7904C24.8156 29.5073 24.5984 30.1864 24.2827 30.807L30.4481 34.9585C31.8052 34.0374 32.6951 32.4939 32.6951 30.7451C32.6951 30.0528 32.5556 29.3925 32.3028 28.7904H24.9135ZM24.2146 24.9013C24.5673 25.5569 24.8087 26.281 24.9135 27.0484H32.5845C32.8637 26.4205 33.0187 25.7266 33.0187 24.9969C33.0187 23.1529 32.0292 21.5369 30.5458 20.6384L24.2146 24.9013ZM6.54974 20.7331C5.15017 21.6477 4.22712 23.2159 4.22712 24.9969C4.22714 25.7266 4.38209 26.4205 4.66128 27.0484H12.2354C12.3351 26.3184 12.5583 25.6277 12.8834 24.9978L6.54974 20.7331ZM12.6381 15.4161C10.1929 15.4161 8.14361 17.09 7.60209 19.3404L13.8868 23.5722C14.3883 23.0335 14.9819 22.5815 15.6425 22.2409L13.303 15.4582C13.0853 15.4306 12.8634 15.4161 12.6381 15.4161ZM24.2841 15.4161C24.0234 15.4161 23.7672 15.4353 23.5168 15.4721L21.2284 22.106C21.9672 22.4427 22.6305 22.9155 23.1864 23.4924L29.3246 19.3594C28.7901 17.0995 26.7363 15.4161 24.2841 15.4161ZM18.4612 13.5C17.1026 13.5 15.8663 14.0167 14.9428 14.8619L17.2881 21.6614C17.7036 21.5767 18.1338 21.5323 18.5744 21.5323C18.9079 21.5323 19.2354 21.5578 19.555 21.6069L21.9047 14.7951C20.9899 13.9897 19.7835 13.5 18.4612 13.5Z" fill="#B4BACC"/>
<path d="M54.4598 21.6843C54.6851 21.6843 54.9275 21.6843 55.0468 21.6843C55.0468 21.6843 55.0468 20.371 55.0468 19.6205H59.3873C59.3873 22.7904 59.4617 30.8049 59.462 34.2417L59.461 38.0849C59.461 39.0482 59.5065 40.0459 59.3393 40.9985C59.2133 41.6827 58.8798 42.3118 58.384 42.8007C57.796 43.3844 57.2231 43.6718 56.4001 43.8267C55.4903 43.998 53.4414 43.8862 52.4337 43.8855L43.9269 43.8872C43.9269 43.0646 43.9269 40.7904 43.9269 40.0281C46.6173 40.0281 52.1461 40.0281 54.1804 40.0281C54.6087 40.0281 54.9537 39.6825 54.9537 39.2549C54.9537 37.8884 54.9537 35.1312 54.9537 34.5031C54.8408 34.5005 54.4855 34.4754 54.4016 34.5338C54.2707 34.6256 54.1006 34.9155 53.9935 35.0488C53.4477 35.7272 52.8326 36.1902 52.0188 36.512C50.1333 37.2577 47.7405 37.1471 45.8894 36.3417C44.0958 35.5613 42.6117 33.9969 41.8965 32.1792C40.9938 29.8851 41.0662 27.2568 41.5781 24.878C42.2307 21.8466 44.9459 19.6963 47.9167 19.2415C50.5165 18.8634 52.7756 19.6234 54.4598 21.6843ZM52.1947 32.835C53.6935 32.3164 54.684 31.0353 55.0017 29.5326C55.2717 28.2528 55.1524 26.5923 54.5931 25.4129C54.1525 24.4843 53.0973 23.5729 52.124 23.2311C50.9381 22.8146 49.5467 22.9188 48.3733 23.3246C46.8283 23.8582 45.6807 25.7074 45.604 27.2657C45.5272 28.8303 45.6939 30.4888 46.8034 31.6898C48.1684 33.1673 50.3506 33.4733 52.1947 32.835Z" fill="#B4BACC"/>
<path d="M110.651 12.5323C112.088 12.5323 113.577 12.5323 115.053 12.5323C115.053 15.242 115.041 32.371 115.041 36.9194L110.717 36.9097C110.717 36.3291 110.717 34.805 110.717 34.805H110.087C109.554 35.7664 108.489 36.5754 107.736 36.9006C105.354 37.9307 101.905 37.324 99.8792 35.7664C98.8722 34.9917 98.0313 33.731 97.5463 32.5606C96.7509 30.6358 96.6608 28.1792 96.9768 26.0571C97.1734 24.0851 98.4251 22.0181 99.9412 20.7922C101.651 19.41 103.764 18.9901 105.904 19.2199C107.345 19.3745 108.647 19.9181 109.626 21C109.771 21.1604 109.918 21.4589 110.055 21.6291C110.184 21.6291 110.504 21.6317 110.672 21.6291C110.672 21.5323 110.668 21.4304 110.672 21.322C110.672 18.3921 110.651 15.4621 110.651 12.5323ZM106.731 33.5288C107.679 33.5234 108.809 32.8924 109.456 32.2375C110.515 31.165 110.769 29.2448 110.769 28.1792C110.769 26.9033 110.472 25.362 109.397 24.3094C108.383 23.3153 107.59 22.9849 105.809 22.9849C104.028 22.9849 102.859 23.9591 102.156 24.8309C101.266 25.9346 101.149 27.8939 101.301 29.2448C101.445 30.5178 101.898 31.7427 102.931 32.5593C104.088 33.4734 105.312 33.5876 106.731 33.5288Z" fill="#B4BACC"/>
<path d="M71.6167 19.1337C74.8284 19.2542 77.9591 20.4477 78.7118 23.9378C78.9508 25.0446 78.882 26.2113 78.8825 27.3371L78.8815 31.2649C78.881 31.8187 78.7618 32.6653 79.1844 33.0981C79.4723 33.3929 80.8629 33.2463 81.2958 33.242C81.2958 33.799 81.2958 36.2904 81.2958 36.9194C80.1112 36.918 78.1278 37.0839 77.0522 36.7252C76.5103 36.5444 75.6596 36.0208 75.4982 35.4392C75.4275 35.183 75.4357 34.8488 75.3145 34.6183C75.2673 34.5277 74.8322 34.6038 74.7358 34.6151C74.4721 34.9342 74.3582 35.3537 74.1173 35.6876C73.4634 36.5931 72.1998 37.1297 71.133 37.3079C68.4971 37.7586 64.893 36.966 63.6646 34.3095C63.067 33.0192 63.0296 31.2401 63.5066 29.9193C64.192 28.0206 65.9122 27.1355 67.7434 26.6482C69.8648 26.0835 72.3694 26.466 74.5366 26.4678C74.7038 25.4517 74.4839 24.1222 73.9394 23.5753C73.2729 22.9052 72.3302 22.6912 71.4102 22.6916C69.0094 22.6926 68.451 23.7581 67.8849 25.3722C67.773 25.2758 64.3795 24.1936 63.9501 24.0187C64.1856 23.2259 64.4694 22.6041 64.808 22.1157C65.5559 21.0399 66.8448 20.1179 68.0808 19.6796C69.1858 19.2873 70.4521 19.0901 71.6167 19.1337ZM72.3884 33.5082C73.2647 33.1548 73.969 32.475 74.3524 31.6125C74.5703 31.1126 74.7358 30.3388 74.5356 29.7546L71.2309 29.7529C70.1343 29.7529 68.6766 29.6878 67.898 30.6543C67.6125 31.0088 67.5544 31.6321 67.6082 32.0746C67.7209 32.9957 68.5138 33.543 69.3633 33.739C70.3928 33.9766 71.3991 33.8121 72.3884 33.5082Z" fill="#B4BACC"/>
<path d="M132.318 20.3632C134.216 21.5379 135.417 23.42 135.922 25.5685C136.213 26.8036 136.213 28.9356 136.213 29.5646C134.97 29.5643 123.666 29.5646 123.666 29.5646C123.666 31.9396 125.494 33.2877 127.235 33.516C128.13 33.6334 129.04 33.5972 129.899 33.3026C131.078 32.8973 132.189 31.0865 132.189 30.9194C133.13 31.4081 134.577 32.3227 135.573 32.8966C135.478 33.515 133.88 35.2533 133.305 35.7072C131.362 37.2423 128.926 37.6158 126.514 37.3345C124.31 37.0773 122.325 36.0712 120.941 34.3191C119.249 32.1778 118.891 29.3074 119.202 26.6671C119.63 23.0372 121.623 20.2171 125.258 19.4033C127.683 18.8603 130.098 18.989 132.318 20.3632ZM131.668 26.2531C131.753 24.871 129.917 23.4143 129.087 23.1775C128.069 22.8388 126.948 22.8348 126.034 23.1775C124.92 23.5956 124.449 24.1264 123.949 25.1613C123.851 25.3659 123.666 25.8992 123.666 26.2531C126.06 26.2531 129.087 26.2531 131.668 26.2531Z" fill="#B4BACC"/>
<path d="M148.632 19.4278C150.022 19.3246 151.448 19.3304 152.77 19.8321C154.63 20.5372 156.041 22.3386 156.556 24.2103C156.787 25.051 156.834 25.908 156.875 26.775C156.875 28.8871 156.875 36.5323 156.875 36.9028L152.371 36.9194C152.371 33.9194 152.371 28.8387 152.371 27C152.371 24.9179 151.735 24.1856 150.948 23.6129C150.256 23.1105 147.506 23.0494 146.44 23.6129C145.616 24.0484 144.5 25.5968 144.501 27C144.501 27.5807 144.5 33.5856 144.5 36.9194H140.039C140.039 32.2742 140.068 22.1129 140.068 19.6205H144.359V21.908C144.581 21.921 144.791 21.9117 145.013 21.9105C145.013 21.9105 146.1 19.7419 148.632 19.4278Z" fill="#B4BACC"/>
<path d="M88.7731 21.6145H89.4206C89.4206 21.6145 89.8559 20.6011 90.505 20.1775C91.7652 19.3549 94.8577 19.621 94.8577 19.621C94.8577 19.8387 94.8606 23.0323 94.8606 23.4678C92.153 23.4678 91.3774 23.5892 91.1351 23.6613C89.4206 24.1717 88.8739 25.5 88.8739 27.9183C88.8971 30.9268 88.8739 33.9359 88.8739 36.9445H84.4573C84.4573 32.9767 84.4573 23.6731 84.4573 19.621C84.9633 19.6209 88.7501 19.621 88.7741 19.6449C88.7741 20.0807 88.7731 21.6145 88.7731 21.6145Z" fill="#B4BACC"/>
</g>
<defs>
<clipPath id="clip0_17178_6015">
<rect width="157.5" height="56" fill="white"/>
</clipPath>
</defs>
</svg>
