<svg width="150" height="80" viewBox="0 0 150 80" fill="none" xmlns="http://www.w3.org/2000/svg">
<path d="M16.6164 23.605C18.6558 23.605 20.459 24.6024 21.5532 26.13C22.1394 25.9429 22.7648 25.8418 23.414 25.8418C26.5963 25.8418 29.204 28.2704 29.4391 31.3526C31.8604 32.1302 33.6105 34.3764 33.6105 37.026C33.6105 38.3911 33.1459 39.6489 32.3645 40.6542C32.9156 41.5537 33.2329 42.6086 33.2329 43.7366C33.2329 46.243 31.6668 48.3881 29.448 49.271C29.2821 52.4188 26.644 54.9208 23.414 54.9208C22.7647 54.9208 22.1394 54.8196 21.5532 54.6325C20.459 56.1601 18.6558 57.1576 16.6164 57.1576C14.577 57.1576 12.7737 56.1601 11.6795 54.6325C11.0934 54.8196 10.4681 54.9208 9.81884 54.9208C6.58882 54.9208 3.9507 52.4188 3.78474 49.271C1.56601 48.3881 0 46.243 0 43.7366C0 42.4924 0.385858 41.3373 1.04586 40.3813C0.385858 39.4253 0 38.2702 0 37.026C0 34.5196 1.56599 32.3744 3.78474 31.4915C3.95074 28.3437 6.58885 25.8418 9.81884 25.8418C10.4681 25.8418 11.0934 25.9429 11.6795 26.13C12.7737 24.6024 14.5771 23.605 16.6164 23.605ZM13.2834 52.8408C14.1753 53.6682 15.3758 54.1752 16.6962 54.1752C17.9816 54.1751 19.1532 53.6947 20.0372 52.9059L17.8107 46.4511C17.4835 46.5047 17.1476 46.5326 16.8053 46.5326C16.3597 46.5326 15.9251 46.4852 15.5064 46.3955L13.2834 52.8408ZM6.22265 48.4842C6.71961 50.6847 8.70923 52.3298 11.0881 52.3298C11.2935 52.3298 11.496 52.3173 11.6948 52.2935L13.9269 45.8216C13.2702 45.4746 12.6838 45.0128 12.1948 44.4627L6.22265 48.4842ZM21.3446 44.5409C20.8037 45.1289 20.1496 45.6115 19.4168 45.9543L21.5989 52.2807C21.8293 52.313 22.0648 52.3298 22.3042 52.3298C24.6897 52.3298 26.6836 50.6755 27.1736 48.4657L21.3446 44.5409ZM3.36552 41.2201C3.12206 41.8001 2.98761 42.4359 2.9876 43.1027C2.98761 44.7936 3.85163 46.2852 5.16749 47.1711L11.2608 43.068C10.9821 42.496 10.7896 41.8745 10.7002 41.2201H3.36552ZM22.9103 41.2201C22.816 41.9106 22.6068 42.5646 22.3028 43.1623L28.2405 47.1605C29.5476 46.2734 30.4046 44.7869 30.4046 43.1027C30.4046 42.4359 30.2703 41.8 30.0268 41.2201H22.9103ZM22.2371 37.4747C22.5768 38.106 22.8093 38.8033 22.9103 39.5425H30.298C30.567 38.9378 30.7162 38.2694 30.7163 37.5667C30.7163 35.7907 29.7633 34.2344 28.3346 33.369L22.2371 37.4747ZM5.22447 33.4602C3.87657 34.3411 2.9876 35.8514 2.9876 37.5667C2.98762 38.2694 3.13685 38.9377 3.40573 39.5425H10.7002C10.7962 38.8394 11.0112 38.1742 11.3243 37.5676L5.22447 33.4602ZM11.0881 28.3396C8.7331 28.3396 6.75949 29.9517 6.23796 32.119L12.2907 36.1946C12.7737 35.6758 13.3454 35.2405 13.9816 34.9124L11.7284 28.3801C11.5188 28.3536 11.305 28.3396 11.0881 28.3396ZM22.3042 28.3396C22.053 28.3396 21.8063 28.3581 21.5651 28.3935L19.3612 34.7825C20.0727 35.1068 20.7116 35.5622 21.2469 36.1178L27.1585 32.1373C26.6437 29.9608 24.6658 28.3396 22.3042 28.3396ZM16.6962 26.4942C15.3878 26.4942 14.197 26.9919 13.3077 27.8059L15.5664 34.3543C15.9666 34.2728 16.3809 34.23 16.8053 34.23C17.1264 34.23 17.4418 34.2545 17.7496 34.3018L20.0126 27.7415C19.1315 26.9658 17.9697 26.4942 16.6962 26.4942Z" fill="white"/>
<path d="M51.3658 34.3764C51.5828 34.3764 51.8162 34.3764 51.9311 34.3764C51.9311 34.3764 51.9311 33.1116 51.9311 32.3888H56.1114C56.1114 35.4416 56.183 43.1602 56.1833 46.4702L56.1823 50.1715C56.1823 51.0992 56.2262 52.0601 56.0652 52.9775C55.9438 53.6364 55.6226 54.2423 55.1451 54.7132C54.5788 55.2753 54.0271 55.5522 53.2344 55.7013C52.3582 55.8663 50.385 55.7587 49.4145 55.7579L41.2218 55.7596C41.2218 54.9674 41.2218 52.7771 41.2218 52.043C43.8128 52.043 49.1375 52.043 51.0967 52.043C51.5092 52.043 51.8414 51.7101 51.8414 51.2983C51.8414 49.9823 51.8414 47.3268 51.8414 46.7219C51.7327 46.7194 51.3905 46.6953 51.3097 46.7515C51.1837 46.8399 51.0198 47.1191 50.9167 47.2475C50.391 47.9008 49.7987 48.3468 49.0149 48.6566C47.199 49.3748 44.8946 49.2683 43.1118 48.4926C41.3844 47.7411 39.9551 46.2345 39.2663 44.4838C38.3969 42.2744 38.4667 39.7431 38.9597 37.4521C39.5882 34.5326 42.2031 32.4617 45.0643 32.0238C47.5681 31.6596 49.7438 32.3916 51.3658 34.3764ZM49.1843 45.1154C50.6277 44.616 51.5817 43.3822 51.8877 41.9349C52.1477 40.7024 52.0328 39.1032 51.4941 37.9674C51.0698 37.0731 50.0535 36.1952 49.1162 35.8661C47.9741 35.465 46.6341 35.5653 45.504 35.9562C44.016 36.47 42.9108 38.251 42.8369 39.7517C42.763 41.2586 42.9235 42.8558 43.992 44.0125C45.3066 45.4355 47.4083 45.7301 49.1843 45.1154Z" fill="white"/>
<path d="M105.483 25.5622C106.867 25.5622 108.301 25.5622 109.722 25.5622C109.722 28.1719 109.71 44.6686 109.71 49.0491L105.546 49.0397C105.546 48.4805 105.546 47.0127 105.546 47.0127H104.939C104.426 47.9386 103.4 48.7177 102.675 49.0309C100.381 50.023 97.059 49.4387 95.1084 47.9386C94.1385 47.1925 93.3287 45.9783 92.8616 44.8512C92.0956 42.9974 92.0088 40.6315 92.3131 38.5878C92.5025 36.6886 93.7079 34.6979 95.1681 33.5172C96.8146 32.186 98.8494 31.7817 100.911 32.003C102.298 32.1519 103.553 32.6754 104.495 33.7174C104.635 33.8718 104.777 34.1593 104.909 34.3232C105.033 34.3232 105.341 34.3257 105.503 34.3232C105.503 34.23 105.499 34.1318 105.503 34.0275C105.503 31.2057 105.483 28.3839 105.483 25.5622ZM101.707 45.7836C102.62 45.7784 103.708 45.1707 104.331 44.54C105.351 43.5071 105.596 41.6578 105.596 40.6315C105.596 39.4027 105.31 37.9183 104.275 36.9045C103.298 35.9471 102.534 35.6289 100.819 35.6289C99.1043 35.6289 97.9784 36.5672 97.301 37.4068C96.4439 38.4697 96.3314 40.3567 96.478 41.6578C96.6162 42.8838 97.0527 44.0635 98.0479 44.8499C99.1622 45.7303 100.341 45.8402 101.707 45.7836Z" fill="white"/>
<path d="M67.8893 31.92C70.9824 32.036 73.9975 33.1854 74.7225 36.5467C74.9526 37.6126 74.8863 38.7363 74.8868 39.8205L74.8859 43.6032C74.8854 44.1366 74.7706 44.952 75.1776 45.3688C75.4549 45.6527 76.7942 45.5115 77.211 45.5074C77.211 46.0438 77.211 48.4433 77.211 49.0491C76.0701 49.0477 74.16 49.2075 73.1241 48.862C72.6022 48.6879 71.783 48.1836 71.6275 47.6235C71.5594 47.3767 71.5673 47.0549 71.4506 46.8329C71.4051 46.7456 70.986 46.8189 70.8932 46.8297C70.6393 47.1371 70.5296 47.5412 70.2976 47.8627C69.6678 48.7347 68.4509 49.2516 67.4234 49.4232C64.8849 49.8573 61.4138 49.0939 60.2308 46.5355C59.6552 45.2928 59.6192 43.5794 60.0786 42.3073C60.7387 40.4787 62.3954 39.6264 64.159 39.1571C66.202 38.6132 68.6142 38.9816 70.7014 38.9833C70.8624 38.0047 70.6506 36.7243 70.1263 36.1975C69.4844 35.5522 68.5764 35.3461 67.6904 35.3465C65.3783 35.3475 64.8405 36.3736 64.2953 37.9281C64.1875 37.8353 60.9193 36.793 60.5057 36.6246C60.7325 35.861 61.0058 35.2622 61.332 34.7918C62.0523 33.7558 63.2935 32.8678 64.4839 32.4457C65.5482 32.0678 66.7677 31.878 67.8893 31.92ZM68.6324 45.7638C69.4764 45.4234 70.1547 44.7687 70.524 43.9381C70.7339 43.4566 70.8932 42.7113 70.7004 42.1488L67.5177 42.1471C66.4616 42.1471 65.0578 42.0844 64.3079 43.0152C64.0329 43.3567 63.9769 43.9569 64.0287 44.3831C64.1373 45.2701 64.9009 45.7973 65.7191 45.9861C66.7106 46.2149 67.6797 46.0564 68.6324 45.7638Z" fill="white"/>
<path d="M126.35 33.1041C128.178 34.2354 129.334 36.048 129.821 38.1172C130.1 39.3067 130.1 41.3599 130.1 41.9657C128.904 41.9655 118.017 41.9657 118.017 41.9657C118.017 44.2531 119.778 45.5514 121.454 45.7713C122.316 45.8843 123.193 45.8494 124.02 45.5658C125.155 45.1754 126.226 43.4315 126.226 43.2706C127.132 43.7412 128.525 44.622 129.484 45.1748C129.393 45.7703 127.854 47.4444 127.3 47.8816C125.429 49.36 123.083 49.7197 120.76 49.4488C118.637 49.2011 116.726 48.2322 115.392 46.5447C113.763 44.4825 113.418 41.718 113.718 39.1752C114.13 35.6793 116.049 32.9633 119.55 32.1796C121.886 31.6566 124.211 31.7805 126.35 33.1041ZM125.724 38.7765C125.806 37.4455 124.038 36.0425 123.238 35.8144C122.258 35.4882 121.178 35.4844 120.297 35.8144C119.225 36.2171 118.771 36.7283 118.29 37.7251C118.195 37.9221 118.017 38.4356 118.017 38.7765C120.323 38.7765 123.238 38.7765 125.724 38.7765Z" fill="white"/>
<path d="M142.061 32.2032C143.4 32.1037 144.773 32.1094 146.046 32.5926C147.838 33.2717 149.197 35.0065 149.693 36.8091C149.915 37.6188 149.96 38.4441 150 39.2791C150 41.3133 150 48.6762 150 49.0331L145.662 49.049C145.662 46.1598 145.662 41.2667 145.662 39.4959C145.662 37.4906 145.05 36.7853 144.291 36.2338C143.626 35.7499 140.977 35.691 139.95 36.2338C139.156 36.6532 138.082 38.1444 138.083 39.4959C138.083 40.0551 138.082 45.8383 138.082 49.049H133.786C133.786 44.5754 133.814 34.7892 133.814 32.3888H137.946V34.5919C138.16 34.6043 138.362 34.5954 138.576 34.5942C138.576 34.5942 139.623 32.5057 142.061 32.2032Z" fill="white"/>
<path d="M84.4123 34.3091H85.0359C85.0359 34.3091 85.4551 33.3332 86.0802 32.9252C87.2939 32.1329 90.2722 32.3892 90.2722 32.3892C90.2722 32.5989 90.275 35.6746 90.275 36.094C87.6674 36.094 86.9205 36.2109 86.6871 36.2804C85.0359 36.772 84.5094 38.0513 84.5094 40.3803C84.5317 43.2776 84.5094 46.1757 84.5094 49.0732H80.2558C80.2558 45.2519 80.2558 36.2918 80.2558 32.3892C80.7432 32.3892 84.3902 32.3892 84.4133 32.4123C84.4133 32.832 84.4123 34.3091 84.4123 34.3091Z" fill="white"/>
</svg>
