<svg width="193" height="80" viewBox="0 0 193 80" fill="none" xmlns="http://www.w3.org/2000/svg">
<path d="M15.0624 51.7861H18.6305C21.0967 51.7861 23.0381 51.5762 24.4024 51.104C25.8191 50.6317 26.9735 49.8971 27.813 48.8477C28.6526 47.7982 30.4366 44.3876 30.699 42.1313H35.1591C35.4214 44.545 37.153 47.7982 37.9925 48.9001C38.8321 49.8971 39.9865 50.6317 41.4557 51.104C42.9249 51.5762 44.8663 51.7861 47.28 51.7861H54.4162C57.3021 51.7861 59.8208 52.3633 61.9196 53.5177C63.4413 50.4218 64.4383 47.0636 64.858 43.4956C64.5432 40.6096 63.7037 38.2484 62.2869 36.4119C60.4504 34.0507 57.8268 32.8438 54.4162 32.8438H46.1781C42.715 32.8438 39.8815 32.1092 37.7302 30.6925C35.5788 29.2757 34.0047 26.967 33.0602 23.8187H32.9553C32.4305 26.5472 31.0138 28.6985 28.7575 30.3776C26.5012 32.0043 23.5104 32.8438 19.8373 32.8438H11.4419C7.97873 32.8438 5.40762 34.0507 3.57111 36.4119C2.15438 38.2484 1.31483 40.6096 1 43.4956C1.41977 47.0636 2.46921 50.4218 3.93841 53.5177C6.03728 52.3633 8.55592 51.7336 11.3894 51.7336L15.0624 51.7861Z" fill="white"/>
<path d="M11.4421 27.1769H18.6307C21.0969 27.1769 23.0383 26.967 24.4026 26.4947C25.8193 26.075 26.9737 25.2879 27.8132 24.2385C28.6528 23.189 30.4368 19.7784 30.6992 17.5221H35.1593C35.4216 19.9358 37.1532 23.189 37.9927 24.2909C38.8323 25.2879 39.9867 26.0225 41.4559 26.4947C42.9251 26.967 44.8665 27.1769 47.2802 27.1769H54.4164C58.1419 27.1769 61.2377 28.1214 63.6514 30.0628C59.716 16.9974 47.4376 7.5 33.0079 7.5C18.5782 7.5 6.29985 16.9974 2.25953 30.1153C4.67322 28.1738 7.76905 27.1769 11.4421 27.1769Z" fill="white"/>
<path d="M54.5212 57.453H46.1782C42.7151 57.453 39.8816 56.7184 37.7303 55.3017C35.5789 53.885 34.0573 51.5762 33.0603 48.4279H32.9554C32.4306 51.1564 31.0139 53.3602 28.7576 54.9869C26.5013 56.6135 23.5105 57.453 19.8374 57.453H11.442C9.7104 57.453 8.18872 57.7679 6.87693 58.3975C12.7013 66.4782 22.2511 71.7253 33.0078 71.7253C43.7645 71.7253 53.2619 66.4782 59.1387 58.3975C57.8269 57.7679 56.2528 57.453 54.5212 57.453Z" fill="white"/>
<path d="M187.332 50.8168V36.3779H190.653V50.8168H187.332ZM187.015 34.2698V30.8622H191V34.2698H187.015Z" fill="white"/>
<path d="M175.757 51.2788C172.899 51.2788 170.819 49.4307 170.819 46.8317C170.819 44.1749 172.985 42.5866 177.086 42.1535C179.858 41.8069 180.522 41.4604 180.465 40.363C180.407 39.3523 179.454 38.8036 177.894 38.8036C175.844 38.8036 174.516 39.7566 174.516 41.1716L171.224 40.8828C171.224 37.9662 173.938 35.9159 177.721 35.9159C181.504 35.9159 183.843 37.9951 183.843 41.3449V50.8168H180.522V48.2178C179.714 50.1237 178.01 51.2788 175.757 51.2788ZM176.595 48.3911C178.992 48.3911 180.522 46.3119 180.522 43.2219V43.1064C179.945 43.8284 178.79 44.2904 177.288 44.4348C175.238 44.6658 174.227 45.3878 174.227 46.5429C174.227 47.698 175.209 48.3911 176.595 48.3911Z" fill="white"/>
<path d="M164.004 50.8168V46.7739H168.249V50.8168H164.004Z" fill="white"/>
<path d="M154.776 51.2788C150.329 51.2788 147.297 48.1889 147.297 43.5685C147.297 39.0924 150.214 35.9159 154.314 35.9159C158.444 35.9159 161.274 39.0635 161.274 43.6551V44.5503H150.733C150.733 46.8317 152.293 48.3911 154.603 48.3911C156.22 48.3911 157.462 47.6114 157.895 46.3119L161.245 46.6006C160.783 49.4307 158.213 51.2788 154.776 51.2788ZM157.866 42.0091C157.866 40.1031 156.394 38.8036 154.285 38.8036C152.177 38.8036 150.733 40.1031 150.733 42.0091H157.866Z" fill="white"/>
<path d="M141.09 42.0091C141.09 39.9299 140.194 38.8036 138.606 38.8036C136.556 38.8036 135.227 40.7385 135.227 43.7995V50.8168H131.907V42.0091C131.907 39.9299 131.011 38.8036 129.423 38.8036C127.373 38.8036 126.044 40.7385 126.044 43.7995V50.8168H122.723V36.3779H126.044V38.8325C126.882 37.0421 128.528 35.9159 130.578 35.9159C132.686 35.9159 134.188 37.0998 134.852 39.1791C135.718 37.1865 137.538 35.9159 139.761 35.9159C142.678 35.9159 144.411 38.1106 144.411 41.8936V50.8168H141.09V42.0091Z" fill="white"/>
<path d="M102.449 50.8168L98.9256 36.3779H102.275L104.759 46.8894L108.167 36.3779H110.766L114.173 46.8894L116.657 36.3779H120.006L116.483 50.8168H112.585L109.466 40.9984L106.347 50.8168H102.449Z" fill="white"/>
<path d="M88.4191 51.2788C85.5602 51.2788 83.481 49.4307 83.481 46.8317C83.481 44.1749 85.6468 42.5866 89.7474 42.1535C92.5197 41.8069 93.1839 41.4604 93.1261 40.363C93.0684 39.3523 92.1154 38.8036 90.556 38.8036C88.5057 38.8036 87.1773 39.7566 87.1773 41.1716L83.8852 40.8828C83.8852 37.9662 86.5998 35.9159 90.3828 35.9159C94.1657 35.9159 96.5048 37.9951 96.5048 41.3449V50.8168H93.1839V48.2178C92.3753 50.1237 90.6715 51.2788 88.4191 51.2788ZM89.2565 48.3911C91.6534 48.3911 93.1839 46.3119 93.1839 43.2219V43.1064C92.6063 43.8284 91.4512 44.2904 89.9496 44.4348C87.8993 44.6658 86.8885 45.3878 86.8885 46.5429C86.8885 47.698 87.8704 48.3911 89.2565 48.3911Z" fill="white"/>
<path d="M76.9009 50.8168V30.3136H80.2218V50.8168H76.9009Z" fill="white"/>
</svg>
