<svg width="116" height="48" viewBox="0 0 116 48" fill="none" xmlns="http://www.w3.org/2000/svg">
<g clip-path="url(#clip0_17178_6018)">
<path d="M8.86616 31.0717H11.007C12.4867 31.0717 13.6516 30.9457 14.4701 30.6624C15.3202 30.379 16.0128 29.9383 16.5165 29.3086C17.0203 28.6789 18.0907 26.6325 18.2481 25.2788H20.9242C21.0816 26.727 22.1205 28.6789 22.6242 29.3401C23.128 29.9383 23.8206 30.379 24.7021 30.6624C25.5836 30.9457 26.7485 31.0717 28.1967 31.0717H32.4784C34.21 31.0717 35.7212 31.418 36.9805 32.1106C37.8935 30.2531 38.4917 28.2382 38.7435 26.0973C38.5546 24.3658 38.0509 22.949 37.2009 21.8471C36.099 20.4304 34.5248 19.7063 32.4784 19.7063H27.5356C25.4577 19.7063 23.7576 19.2655 22.4668 18.4155C21.176 17.5654 20.2315 16.1802 19.6648 14.2912H19.6019C19.287 15.9283 18.437 17.2191 17.0832 18.2266C15.7295 19.2026 13.9349 19.7063 11.7311 19.7063H6.69383C4.61595 19.7063 3.07328 20.4304 1.97138 21.8471C1.12134 22.949 0.617609 24.3658 0.428711 26.0973C0.680575 28.2382 1.31024 30.2531 2.19176 32.1106C3.45108 31.418 4.96227 31.0402 6.66235 31.0402L8.86616 31.0717Z" fill="#B4BACC"/>
<path d="M6.69395 16.3061H11.0071C12.4868 16.3061 13.6517 16.1802 14.4703 15.8968C15.3203 15.645 16.0129 15.1727 16.5167 14.5431C17.0204 13.9134 18.0908 11.867 18.2482 10.5133H20.9243C21.0817 11.9615 22.1206 13.9134 22.6244 14.5746C23.1281 15.1727 23.8207 15.6135 24.7022 15.8968C25.5838 16.1802 26.7486 16.3061 28.1968 16.3061H32.4785C34.7138 16.3061 36.5713 16.8728 38.0196 18.0377C35.6583 10.1984 28.2913 4.5 19.6335 4.5C10.9756 4.5 3.60862 10.1984 1.18443 18.0692C2.63264 16.9043 4.49014 16.3061 6.69395 16.3061Z" fill="#B4BACC"/>
<path d="M32.5415 34.4718H27.5357C25.4578 34.4718 23.7577 34.0311 22.4669 33.181C21.1761 32.331 20.2631 30.9457 19.6649 29.0567H19.6019C19.2871 30.6939 18.4371 32.0161 17.0833 32.9921C15.7295 33.9681 13.935 34.4718 11.7312 34.4718H6.69389C5.65495 34.4718 4.74195 34.6607 3.95487 35.0385C7.44949 39.8869 13.1794 43.0352 19.6334 43.0352C26.0874 43.0352 31.7859 39.8869 35.312 35.0385C34.5249 34.6607 33.5804 34.4718 32.5415 34.4718Z" fill="#B4BACC"/>
<path d="M112.228 30.4901V21.8267H114.221V30.4901H112.228ZM112.038 20.5619V18.5173H114.429V20.5619H112.038Z" fill="#B4BACC"/>
<path d="M105.283 30.7673C103.568 30.7673 102.32 29.6584 102.32 28.099C102.32 26.5049 103.62 25.552 106.08 25.2921C107.744 25.0842 108.142 24.8762 108.107 24.2178C108.073 23.6114 107.501 23.2822 106.565 23.2822C105.335 23.2822 104.538 23.854 104.538 24.703L102.563 24.5297C102.563 22.7797 104.192 21.5495 106.461 21.5495C108.731 21.5495 110.135 22.797 110.135 24.8069V30.4901H108.142V28.9307C107.657 30.0742 106.635 30.7673 105.283 30.7673ZM105.786 29.0346C107.224 29.0346 108.142 27.7871 108.142 25.9332V25.8639C107.796 26.297 107.102 26.5743 106.202 26.6609C104.971 26.7995 104.365 27.2327 104.365 27.9257C104.365 28.6188 104.954 29.0346 105.786 29.0346Z" fill="#B4BACC"/>
<path d="M98.2308 30.4901V28.0643H100.778V30.4901H98.2308Z" fill="#B4BACC"/>
<path d="M92.6945 30.7673C90.0262 30.7673 88.2069 28.9134 88.2069 26.1411C88.2069 23.4555 89.9569 21.5495 92.4173 21.5495C94.895 21.5495 96.593 23.4381 96.593 26.1931V26.7302H90.2688C90.2688 28.099 91.2045 29.0346 92.5906 29.0346C93.5609 29.0346 94.3059 28.5668 94.5658 27.7871L96.5757 27.9604C96.2985 29.6584 94.7564 30.7673 92.6945 30.7673ZM94.5485 25.2054C94.5485 24.0619 93.6648 23.2822 92.4 23.2822C91.1351 23.2822 90.2688 24.0619 90.2688 25.2054H94.5485Z" fill="#B4BACC"/>
<path d="M84.4825 25.2054C84.4825 23.9579 83.9454 23.2822 82.9924 23.2822C81.7622 23.2822 80.9652 24.4431 80.9652 26.2797V30.4901H78.9726V25.2054C78.9726 23.9579 78.4355 23.2822 77.4825 23.2822C76.2523 23.2822 75.4553 24.4431 75.4553 26.2797V30.4901H73.4627V21.8267H75.4553V23.2995C75.9578 22.2253 76.9454 21.5495 78.1756 21.5495C79.4405 21.5495 80.3414 22.2599 80.74 23.5074C81.2598 22.3119 82.3513 21.5495 83.6855 21.5495C85.4355 21.5495 86.4751 22.8663 86.4751 25.1361V30.4901H84.4825V25.2054Z" fill="#B4BACC"/>
<path d="M61.2979 30.4901L59.1841 21.8267H61.194L62.6841 28.1337L64.7286 21.8267H66.288L68.3326 28.1337L69.8227 21.8267H71.8326L69.7187 30.4901H67.3796L65.5083 24.599L63.637 30.4901H61.2979Z" fill="#B4BACC"/>
<path d="M52.8802 30.7673C51.1648 30.7673 49.9173 29.6584 49.9173 28.099C49.9173 26.5049 51.2168 25.552 53.6772 25.2921C55.3405 25.0842 55.7391 24.8762 55.7044 24.2178C55.6697 23.6114 55.098 23.2822 54.1623 23.2822C52.9321 23.2822 52.1351 23.854 52.1351 24.703L50.1599 24.5297C50.1599 22.7797 51.7886 21.5495 54.0584 21.5495C56.3282 21.5495 57.7316 22.797 57.7316 24.8069V30.4901H55.7391V28.9307C55.2539 30.0742 54.2316 30.7673 52.8802 30.7673ZM53.3826 29.0346C54.8207 29.0346 55.7391 27.7871 55.7391 25.9332V25.8639C55.3925 26.297 54.6995 26.5743 53.7985 26.6609C52.5683 26.7995 51.9618 27.2327 51.9618 27.9257C51.9618 28.6188 52.5509 29.0346 53.3826 29.0346Z" fill="#B4BACC"/>
<path d="M45.9692 30.4901V18.1881H47.9618V30.4901H45.9692Z" fill="#B4BACC"/>
</g>
<defs>
<clipPath id="clip0_17178_6018">
<rect width="115.5" height="48" fill="white"/>
</clipPath>
</defs>
</svg>
