<svg width="150" height="80" viewBox="0 0 150 80" fill="none" xmlns="http://www.w3.org/2000/svg">
<path fill-rule="evenodd" clip-rule="evenodd" d="M18.6408 24.369C15.4485 24.369 12.3278 25.3156 9.67347 27.0892C7.01912 28.8628 4.95031 31.3836 3.72865 34.333C2.50699 37.2823 2.18735 40.5277 2.81015 43.6587C3.43295 46.7898 4.97021 49.6658 7.22754 51.9231C9.48488 54.1805 12.3609 55.7177 15.4919 56.3405C18.6229 56.9633 21.8683 56.6437 24.8176 55.422C27.767 54.2004 30.2878 52.1315 32.0614 49.4772C33.835 46.8228 34.7816 43.7022 34.7816 40.5098C34.7816 36.229 33.0811 32.1235 30.0541 29.0965C27.0271 26.0695 22.9216 24.369 18.6408 24.369ZM18.6408 55.1437C15.7465 55.1437 12.9172 54.2855 10.5107 52.6775C8.10414 51.0695 6.22847 48.784 5.12087 46.11C4.01326 43.436 3.72346 40.4936 4.28812 37.6549C4.85277 34.8162 6.24651 32.2087 8.2931 30.1621C10.3397 28.1155 12.9472 26.7217 15.7859 26.1571C18.6246 25.5924 21.567 25.8822 24.241 26.9898C26.915 28.0974 29.2005 29.9731 30.8085 32.3796C32.4165 34.7862 33.2747 37.6155 33.2747 40.5098C33.2738 44.3907 31.7318 48.1124 28.9876 50.8566C26.2434 53.6008 22.5217 55.1429 18.6408 55.1437ZM100.283 37.9983L101.02 38.1657C104.067 38.802 107.751 39.7396 107.684 44.5953C107.684 49.25 103.431 51.5271 99.4461 51.5271C94.8583 51.5271 92.4808 49.7858 90.6055 47.5421L93.9877 44.1934C95.4276 46.0352 97.3029 46.9394 99.3791 46.9394C101.12 46.9394 102.259 46.1022 102.259 44.8297C102.259 43.4902 101.221 43.0548 98.4415 42.4856L97.7047 42.3181C94.356 41.6149 91.6101 39.7396 91.6101 35.9221C91.6101 31.7362 95.0258 29.2246 99.5131 29.2246C103.331 29.2246 105.775 30.8655 107.282 32.5733L103.967 35.8551C103.416 35.2441 102.745 34.7533 101.996 34.4133C101.247 34.0734 100.436 33.8916 99.6135 33.8793C98.408 33.8793 97.035 34.4486 97.035 35.8551C97.035 37.1611 98.475 37.6299 100.283 37.9983ZM79.8906 29.2582C73.7289 29.2582 70.1123 34.1808 70.1123 40.4094C70.1123 46.638 73.7289 51.5607 79.8906 51.5607C86.0522 51.5607 89.6688 46.6715 89.6688 40.4094C89.6688 34.1473 86.0857 29.2582 79.8906 29.2582ZM79.8906 46.4706C76.8767 46.4706 75.3698 43.7581 75.3698 40.4094C75.3698 37.0607 76.8767 34.3817 79.8906 34.3817C82.9044 34.3817 84.4448 37.0942 84.4448 40.4094C84.4448 43.7916 82.9044 46.4706 79.8906 46.4706ZM64.5197 40.0075C65.3959 39.6685 66.1476 39.0699 66.6743 38.2919C67.2009 37.5139 67.4773 36.5936 67.4666 35.6542C67.4666 31.7362 64.6871 29.7939 60.8696 29.7939H50.8569V51.0985H61.7403C65.089 51.0985 68.3707 48.7544 68.3707 45.1713C68.3707 41.2888 65.1714 40.2273 64.6049 40.0394C64.5499 40.0211 64.5197 40.0111 64.5197 40.0075ZM56.0809 34.2142H59.9654C60.2142 34.1988 60.4635 34.2326 60.6992 34.3137C60.9348 34.3947 61.1522 34.5215 61.3388 34.6866C61.5255 34.8518 61.6777 35.0521 61.7868 35.2762C61.8959 35.5003 61.9597 35.7436 61.9747 35.9924V36.2235C61.9641 36.7472 61.747 37.2456 61.3707 37.61C60.9944 37.9744 60.4893 38.1754 59.9654 38.1691H56.0474L56.0809 34.2142ZM59.9989 46.638H56.1144V42.4521H59.8985C61.8072 42.4521 62.7114 43.2893 62.7114 44.5283C62.7114 46.0754 61.5728 46.638 59.9989 46.638ZM119.605 46.4706C117.261 46.4706 114.817 44.5283 114.817 40.2755C114.817 36.4914 117.094 34.3817 119.471 34.3817C121.347 34.3817 122.452 35.2524 123.322 36.7593L127.609 33.9129C125.466 30.6646 122.921 29.2916 119.404 29.2916C112.975 29.2916 109.492 34.2812 109.492 40.3089C109.492 46.638 113.343 51.5942 119.337 51.5942C123.557 51.5942 125.566 50.1207 127.743 46.9729L123.423 44.0662C122.552 45.466 121.615 46.4706 119.605 46.4706ZM141.909 37.6299V29.7939H147.501V51.0918H141.909V42.6865H135.446V51.0918H129.854V29.7939H135.446V37.6299H141.909ZM24.2014 30.4302H25.3064V30.4369C26.9748 31.5365 28.3441 33.033 29.2916 34.7923C30.239 36.5515 30.735 38.5184 30.735 40.5165C30.735 42.5147 30.239 44.4816 29.2916 46.2408C28.3441 48 26.9748 49.4966 25.3064 50.5962H24.2014V45.0708H13.1171V50.5895H11.9785C10.3109 49.4893 8.94231 47.9926 7.99536 46.2335C7.04842 44.4743 6.55273 42.5077 6.55273 40.5098C6.55273 38.512 7.04842 36.5454 7.99536 34.7862C8.94231 33.0271 10.3109 31.5303 11.9785 30.4302H13.1171V35.9556H24.2014V30.4302ZM9.08519 45.1284C9.69152 46.3784 10.5381 47.4967 11.5767 48.4195V32.6069C11.2667 32.8823 10.9726 33.1752 10.696 33.4842C9.77308 34.5227 9.06377 35.7328 8.60855 37.0454C8.15333 38.358 7.96113 39.7474 8.04291 41.1343C8.12469 42.5212 8.47886 43.8784 9.08519 45.1284ZM13.1171 43.5304H24.2014V37.4625H13.1171V43.5304ZM25.7083 45.0373V48.3793C25.9883 48.1261 26.2554 47.859 26.5086 47.579C27.4396 46.5436 28.1574 45.3348 28.621 44.0219C29.0846 42.7089 29.285 41.3175 29.2107 39.9271C29.1363 38.5367 28.7888 37.1745 28.1878 35.9185C27.5869 34.6625 26.7443 33.5371 25.7083 32.6069V35.9556V45.0373Z" fill="#161E33"/>
</svg>
