<svg width="150" height="80" viewBox="0 0 150 80" fill="none" xmlns="http://www.w3.org/2000/svg">
<path fill-rule="evenodd" clip-rule="evenodd" d="M17.8788 34.3214C18.7872 35.4573 19.2414 37.201 19.2414 39.5511C19.2414 42.0669 18.7603 43.9362 17.8015 45.1579C16.8417 46.3819 15.3342 46.9917 13.277 46.9917H11.7695V32.6194H13.7397C15.5918 32.6194 16.9694 33.1863 17.8788 34.3214ZM22.8145 49.2035C25.1164 46.8877 26.2675 43.5882 26.2675 39.3063C26.2675 35.3274 25.1735 32.2869 22.9861 30.1803C20.7982 28.0749 17.693 27.0215 13.671 27.0215H5V52.6789H13.1052C17.2764 52.6789 20.5126 51.5204 22.8145 49.2035ZM55.1685 52.6786H48.7188V26.9139H55.1685V52.6786ZM64.8721 46.8249C64.4436 45.9639 64.2289 44.7109 64.2289 43.0682C64.2289 41.4233 64.4436 40.1875 64.8721 39.3597C65.3017 38.5331 66.0091 38.1175 66.9991 38.1175C68.0115 38.1175 68.7254 38.5352 69.1442 39.3693C69.5618 40.2015 69.7701 41.434 69.7701 43.0682C69.7701 44.7109 69.5651 45.9639 69.1527 46.8249C68.7406 47.6872 68.0328 48.1177 67.0323 48.1177C66.0208 48.1177 65.3015 47.6872 64.8721 46.8249ZM73.8694 50.3896C75.5144 48.6394 76.3346 46.198 76.3346 43.0682C76.3346 41.0743 75.9534 39.3308 75.1889 37.8404C74.4256 36.3482 73.339 35.2023 71.9315 34.4026C70.5249 33.6026 68.9015 33.2021 67.0666 33.2021C64.0969 33.2021 61.7905 34.0665 60.1458 35.795C58.5008 37.5237 57.6795 39.9481 57.6795 43.0682C57.6795 46.1196 58.5181 48.5397 60.1962 50.3305C61.8721 52.1215 64.1301 53.017 66.9668 53.017C69.9246 53.017 72.2258 52.1408 73.8694 50.3896ZM85.3466 52.6787H78.8959V33.5405H85.3466V52.6787ZM85.3463 31.2256H78.8957V26.9126H85.3463V31.2256ZM101.533 47.1371C100.323 47.5761 99.286 47.7974 98.4152 47.7974C97.2515 47.7974 96.6683 47.1779 96.6683 45.9388V38.4897H100.784V33.5421H96.6685V27.5242L90.1684 28.6547V33.5421H87.9093V38.4897H90.1683V46.3789C90.1683 48.6304 90.6471 50.2989 91.6017 51.3855C92.5606 52.4722 94.1216 53.0165 96.2873 53.0165C97.3426 53.0165 98.2649 52.9349 99.0509 52.7706C99.8368 52.6084 100.664 52.3347 101.533 51.9524V47.1371ZM116.462 47.1371C115.252 47.5761 114.215 47.7974 113.344 47.7974C112.18 47.7974 111.596 47.1779 111.596 45.9388V38.4897H115.714V33.5421H111.596V27.5242L105.097 28.5806V33.5421H102.837V38.4897H105.097V46.3789C105.097 48.6304 105.576 50.2989 106.533 51.3855C107.49 52.4722 109.051 53.0165 111.216 53.0165C112.274 53.0165 113.193 52.9349 113.98 52.7706C114.766 52.6084 115.594 52.3347 116.462 51.9524V47.1371ZM125.5 38.4304C124.989 38.9211 124.69 39.6889 124.602 40.7367H130.143C130.122 39.8133 129.867 39.0757 129.376 38.5249C128.889 37.971 128.232 37.6961 127.405 37.6961C126.647 37.6961 126.013 37.9408 125.5 38.4304ZM127.175 33.2028C129.989 33.2028 132.165 33.9554 133.698 35.4585C135.232 36.9606 135.999 39.1263 135.999 41.9532V44.8919H124.47C124.513 45.9612 124.897 46.8008 125.616 47.4095C126.336 48.0174 127.317 48.3211 128.56 48.3211C129.694 48.3211 130.736 48.2105 131.685 47.9904C132.342 47.8391 133.037 47.6093 133.769 47.3108L134.76 51.6238C133.754 52.1477 132.716 52.5106 131.645 52.7113C130.567 52.9144 129.281 53.0163 127.786 53.0163C124.673 53.0163 122.257 52.1681 120.536 50.4739C118.816 48.7796 117.953 46.366 117.953 43.2364C117.953 40.0044 118.751 37.5243 120.345 35.7956C121.941 34.0671 124.217 33.2028 127.175 33.2028ZM35.7264 38.4304C35.2153 38.9211 34.9158 39.6889 34.8278 40.7367H40.3701C40.3475 39.8133 40.0931 39.0757 39.6025 38.5249C39.1138 37.971 38.4568 37.6961 37.6321 37.6961C36.873 37.6961 36.2385 37.9408 35.7264 38.4304ZM37.4014 33.2028C40.2165 33.2028 42.3907 33.9554 43.9248 35.4585H43.925C45.4582 36.9606 46.2249 39.1263 46.2249 41.9532V44.8919H34.6957C34.7398 45.9612 35.1219 46.8008 35.8424 47.4095C36.5617 48.0174 37.5441 48.3211 38.7863 48.3211C39.9202 48.3211 40.9606 48.2105 41.9118 47.9904C42.5677 47.8391 43.2636 47.6093 43.9949 47.3108L44.9869 51.6238C43.9797 52.1477 42.9426 52.5106 41.8711 52.7113C40.793 52.9144 39.5069 53.0163 38.0122 53.0163C34.8997 53.0163 32.4829 52.1681 30.7627 50.4739C29.0407 48.7796 28.1795 46.366 28.1795 43.2364C28.1795 40.0044 28.9784 37.5243 30.5728 35.7956C32.1671 34.0671 34.4422 33.2028 37.4014 33.2028ZM141.289 45.6674C139.241 45.6674 137.578 47.3294 137.578 49.378C137.578 51.4266 139.241 53.0876 141.289 53.0876C143.337 53.0876 144.998 51.4266 144.998 49.378C144.998 47.3294 143.337 45.6674 141.289 45.6674Z" fill="#161E33"/>
</svg>
