<svg width="150" height="80" viewBox="0 0 150 80" fill="none" xmlns="http://www.w3.org/2000/svg">
<g clip-path="url(#clip0_4723_32838)">
<path fill-rule="evenodd" clip-rule="evenodd" d="M24.0244 26.25C26.6956 26.7019 29.296 27.502 31.7593 28.6297C36.0027 34.8342 38.1111 41.8318 37.3326 49.9058C34.4654 52.0258 31.2543 53.6359 27.8402 54.6653C27.0715 53.6337 26.3918 52.5387 25.8084 51.392C26.9197 50.9767 27.9923 50.4646 29.0139 49.8616C28.7485 49.6817 28.486 49.4812 28.2295 49.2718C25.2626 50.667 22.0245 51.3905 18.7459 51.3905C15.4674 51.3905 12.2292 50.667 9.26236 49.2718C9.00876 49.4664 8.74631 49.667 8.47796 49.8616C9.49758 50.4636 10.5682 50.9748 11.6775 51.3891C11.0935 52.5363 10.4138 53.6322 9.64571 54.6653C6.23457 53.6317 3.02591 52.0209 0.159211 49.9029C-0.504285 42.9406 0.822705 35.878 5.71782 28.6356C8.18356 27.5077 10.7857 26.7058 13.4586 26.25C13.824 26.9035 14.1547 27.5758 14.4494 28.2641C17.2947 27.8353 20.1882 27.8353 23.0336 28.2641C23.3281 27.5757 23.6589 26.9034 24.0244 26.25ZM9.14146 41.879C9.14146 43.9432 10.669 45.6211 12.5179 45.6211C14.4022 45.6211 15.859 43.9432 15.8914 41.879C15.9239 39.8148 14.4081 38.1221 12.512 38.1221C10.6159 38.1221 9.14146 39.8148 9.14146 41.879ZM21.6004 41.879C21.6004 43.9432 23.122 45.6211 24.9739 45.6211C26.8582 45.6211 28.312 43.9432 28.3445 41.879C28.3769 39.8148 26.873 38.1221 24.9739 38.1221C23.0749 38.1221 21.6004 39.8148 21.6004 41.879ZM149.999 31.7938V46.6561H144.942V43.9432C144.56 44.909 143.875 45.7246 142.989 46.2669C142.012 46.8239 140.9 47.1013 139.775 47.069C138.717 47.0936 137.675 46.8031 136.782 46.2344C135.917 45.6727 135.228 44.8786 134.795 43.9432C134.321 42.9106 134.085 41.785 134.104 40.6493C134.071 39.4717 134.322 38.3034 134.836 37.2433C135.308 36.2724 136.045 35.4546 136.962 34.8842C137.904 34.3133 138.989 34.0199 140.091 34.0379C142.497 34.0379 144.114 35.0838 144.942 37.1755V31.7938H149.999ZM144.198 42.4687C144.456 42.215 144.658 41.9104 144.792 41.5743C144.925 41.2382 144.987 40.878 144.974 40.5166C144.985 40.166 144.922 39.8171 144.788 39.4928C144.654 39.1685 144.453 38.8762 144.198 38.6352C143.62 38.1641 142.897 37.9069 142.15 37.9069C141.404 37.9069 140.681 38.1641 140.102 38.6352C139.848 38.8818 139.649 39.1791 139.517 39.5078C139.386 39.8365 139.325 40.1893 139.339 40.5431C139.326 40.9003 139.388 41.2562 139.521 41.5878C139.654 41.9195 139.855 42.2196 140.111 42.4687C140.382 42.7206 140.701 42.9158 141.048 43.0429C141.396 43.17 141.765 43.2264 142.134 43.2089C142.51 43.2297 142.887 43.1749 143.241 43.0478C143.596 42.9206 143.921 42.7237 144.198 42.4687ZM50.3809 32.2067H58.4313C60.3716 32.2067 62.0132 32.5094 63.3559 33.1149C64.5921 33.6347 65.6418 34.5168 66.3667 35.6451C67.0452 36.7597 67.3929 38.0442 67.3693 39.3488C67.3842 40.6595 67.0229 41.9469 66.3283 43.0585C65.5535 44.2328 64.4455 45.1487 63.1465 45.6889C61.7232 46.3377 59.9588 46.661 57.8533 46.6591H50.3809V32.2067ZM57.7707 42.9818C59.078 42.9818 60.0826 42.6555 60.7845 42.0028C61.1403 41.6577 61.4183 41.2406 61.5999 40.7793C61.7815 40.318 61.8624 39.8233 61.8372 39.3282C61.8591 38.8686 61.7873 38.4094 61.626 37.9785C61.4648 37.5476 61.2176 37.154 60.8995 36.8217C60.2704 36.1965 59.3238 35.8829 58.0597 35.881H55.5414V42.9818H57.7707ZM79.4249 46.6355C78.3628 46.3694 77.3468 45.9449 76.4111 45.3763V41.9497C77.2281 42.5439 78.1479 42.9818 79.1241 43.2413C80.192 43.5672 81.3015 43.737 82.418 43.7456C82.8033 43.7662 83.1883 43.6996 83.5444 43.551C83.798 43.4212 83.9249 43.2561 83.9249 43.0851C83.9276 42.9895 83.9107 42.8944 83.8751 42.8056C83.8396 42.7169 83.7863 42.6363 83.7184 42.569C83.4829 42.3878 83.2064 42.2673 82.9134 42.2181L80.4363 41.6608C79.0169 41.3305 78.0094 40.8734 77.4137 40.2895C77.1147 39.9879 76.8817 39.6274 76.7294 39.231C76.5771 38.8345 76.5089 38.4107 76.5291 37.9865C76.5191 37.2176 76.7992 36.4732 77.3135 35.9016C77.9232 35.2566 78.6922 34.7837 79.5428 34.5304C80.6376 34.1863 81.7808 34.022 82.9281 34.0438C83.9992 34.0338 85.0672 34.1586 86.107 34.4154C86.9469 34.6144 87.7535 34.9342 88.5015 35.3649V38.6087C87.8 38.2017 87.0459 37.8931 86.2603 37.6916C85.4092 37.4634 84.5318 37.3484 83.6506 37.3495C82.357 37.3495 81.7102 37.5697 81.7102 38.0101C81.7081 38.1081 81.7349 38.2046 81.7874 38.2875C81.8398 38.3704 81.9156 38.436 82.0051 38.476C82.3586 38.6262 82.7289 38.7332 83.108 38.7945L85.1722 39.166C86.513 39.4019 87.5126 39.8148 88.1712 40.4045C88.8298 40.9943 89.1601 41.8573 89.162 42.9936C89.1725 43.5912 89.0264 44.181 88.7383 44.7045C88.4501 45.2281 88.0299 45.6671 87.5195 45.9779C86.4324 46.7072 84.8803 47.0709 82.8633 47.069C81.7034 47.0708 80.548 46.9251 79.4249 46.6355ZM91.364 43.8429C92.005 44.8745 92.9351 45.6949 94.0387 46.202C95.3856 46.8167 96.8552 47.1153 98.3352 47.0749C100.182 47.1143 102.003 46.6428 103.599 45.7125V42.0559C103.057 42.3709 102.479 42.6175 101.877 42.7902C101.217 42.9874 100.531 43.0867 99.842 43.0851C98.5072 43.0851 97.4888 42.8482 96.787 42.3744C96.4648 42.1877 96.1977 41.9189 96.0131 41.5955C95.8284 41.2721 95.7327 40.9055 95.7357 40.5331C95.7387 40.1607 95.8403 39.7957 96.0301 39.4753C96.22 39.1549 96.4913 38.8904 96.8165 38.7089C97.54 38.2411 98.5416 38.0071 99.8214 38.0071C100.521 38.0015 101.218 38.106 101.886 38.3167C102.482 38.5022 103.048 38.7734 103.566 39.1218V35.3384C102.204 34.4714 100.491 34.0379 98.4266 34.0379C96.9514 34.0001 95.4858 34.2859 94.133 34.8754C93.0204 35.3608 92.0735 36.1601 91.4083 37.1755C90.7842 38.1704 90.4616 39.3247 90.4794 40.4989C90.46 41.6739 90.7662 42.8313 91.364 43.8429ZM108.705 46.202C107.589 45.6924 106.643 44.8737 105.978 43.8429C105.351 42.8336 105.025 41.6662 105.04 40.4782C105.02 39.3043 105.346 38.1505 105.978 37.1608C106.646 36.1561 107.589 35.3641 108.694 34.8783C111.407 33.7774 114.443 33.7774 117.157 34.8783C118.257 35.3604 119.196 36.1485 119.861 37.149C120.488 38.1424 120.811 39.2976 120.79 40.4723C120.804 41.6592 120.482 42.8258 119.861 43.837C119.203 44.8686 118.261 45.6878 117.148 46.1961C115.814 46.7681 114.378 47.0631 112.927 47.0631C111.475 47.0631 110.039 46.7681 108.705 46.1961V46.202ZM114.978 42.5395C115.233 42.2762 115.431 41.9636 115.561 41.6208C115.691 41.278 115.749 40.9122 115.733 40.5461C115.75 40.1833 115.692 39.8208 115.562 39.4817C115.432 39.1425 115.233 38.8342 114.978 38.5762C114.7 38.3218 114.375 38.1258 114.02 37.9996C113.665 37.8735 113.289 37.8199 112.913 37.842C112.538 37.8222 112.162 37.8769 111.808 38.0029C111.454 38.129 111.128 38.3238 110.849 38.5762C110.594 38.8347 110.396 39.1433 110.267 39.4823C110.137 39.8214 110.08 40.1836 110.097 40.5461C110.081 40.912 110.139 41.2774 110.268 41.6201C110.397 41.9629 110.595 42.2757 110.849 42.5395C111.125 42.797 111.45 42.9964 111.805 43.1255C112.159 43.2547 112.536 43.3112 112.913 43.2915C113.291 43.3134 113.668 43.258 114.023 43.1287C114.378 42.9994 114.703 42.7989 114.978 42.5395ZM133.198 39.2663V34.8017C132.632 34.4602 131.98 34.2883 131.319 34.3063C130.877 34.2929 130.437 34.3757 130.03 34.5487C129.623 34.7218 129.258 34.9812 128.96 35.3089C128.347 35.9753 127.903 37.0104 127.627 38.414V34.5805H122.673V46.6561H127.731V42.858C127.731 41.4543 128.026 40.4193 128.615 39.7528C129.205 39.0864 130.054 38.7502 131.154 38.7502C131.871 38.7191 132.582 38.8985 133.198 39.2663ZM71.635 35.8662C73.0275 35.8662 74.1563 34.8523 74.1563 33.6015C74.1563 32.3507 73.0275 31.3368 71.635 31.3368C70.2426 31.3368 69.1138 32.3507 69.1138 33.6015C69.1138 34.8523 70.2426 35.8662 71.635 35.8662ZM71.6341 37.9348C70.7677 37.9348 69.91 37.7619 69.1113 37.4262V46.721H74.1568V37.4262C73.3581 37.7619 72.5005 37.9348 71.6341 37.9348Z" fill="#161E33"/>
</g>
<defs>
<clipPath id="clip0_4723_32838">
<rect width="150" height="80" fill="white"/>
</clipPath>
</defs>
</svg>
