<svg width="150" height="80" viewBox="0 0 150 80" fill="none" xmlns="http://www.w3.org/2000/svg">
<path fill-rule="evenodd" clip-rule="evenodd" d="M32.6081 29.4444C32.6212 29.3459 32.657 29.2518 32.7126 29.1695C42.9234 13.8372 60.0196 4.68311 78.4433 4.68311C89.5876 4.68311 100.315 7.99875 109.465 14.2703C118.404 20.3963 125.275 28.9231 129.338 38.9257C129.375 39.0162 129.389 39.1144 129.379 39.2115C129.369 39.3087 129.335 39.4018 129.28 39.4826C129.225 39.5635 129.152 39.6297 129.066 39.6757C128.98 39.7216 128.884 39.7458 128.787 39.7461H127.079C126.932 39.7463 126.788 39.7029 126.665 39.6214C126.542 39.54 126.446 39.424 126.388 39.2882C122.448 29.9852 115.927 22.069 107.531 16.3951C98.9258 10.5781 88.8677 7.50306 78.4433 7.50306C69.8127 7.50306 61.2641 9.66431 53.7189 13.7502C46.4103 17.7074 40.0725 23.4353 35.3897 30.3148C35.3169 30.4231 35.2185 30.5119 35.1032 30.5732C34.9879 30.6344 34.8593 30.6664 34.7288 30.6662C34.6416 30.6655 34.5551 30.6516 34.4722 30.625L33.0426 30.1438C32.9486 30.1111 32.8633 30.0575 32.7931 29.9871C32.7229 29.9166 32.6696 29.8311 32.6372 29.7371C32.605 29.6431 32.595 29.5429 32.6081 29.4444ZM69.0849 52.5617C69.067 52.5592 69.0473 52.5563 69.0185 52.5524L63.6093 51.9147C63.5367 51.9068 63.5231 51.9044 63.4535 51.8878C63.426 51.8822 63.3867 51.8757 63.3393 51.8678C62.9827 51.8083 62.1698 51.6726 62.508 51.3055C62.6101 51.1914 62.9138 51.1051 63.1084 51.0498C63.1188 51.0469 63.1289 51.044 63.1386 51.0412C65.0059 50.5321 67.2559 50.4553 69.3589 50.3836C70.0124 50.3613 70.6517 50.3395 71.2608 50.3053L71.3018 50.3027C71.8944 50.2655 73.1545 50.1863 73.771 49.9901C74.3727 49.8035 74.869 49.3779 75.0078 48.7175C75.0766 48.3657 74.9085 48.2017 74.5795 48.0252C72.4481 46.8927 68.9401 46.89 66.7701 47.16C64.5282 47.4378 61.5271 48.1373 60.246 49.9791C59.7572 50.6823 59.4704 51.7624 59.6952 52.6426C59.8219 53.1309 60.249 53.5722 60.6855 53.7694C61.1201 53.9642 61.6652 54.0654 62.167 54.1371C62.5681 54.1961 64.0141 54.3197 65.2326 54.4239C65.4946 54.4463 65.7461 54.4678 65.9744 54.4875C67.2038 54.5888 69.5902 54.8509 70.8818 55.3894C70.8818 55.3894 72.1055 55.8161 72.0971 56.5141C72.0944 56.8598 71.8366 57.1339 71.5741 57.3213C69.6568 58.6798 67.0223 59.0657 64.6782 59.0271C63.8847 59.0165 63.2292 58.8919 62.4229 58.5456C62.0796 58.3947 61.6294 58.0356 61.6942 57.6517C61.8244 56.9068 62.6486 56.7157 63.331 56.7807C63.7109 56.8158 64.2081 56.9779 64.5812 57.1241C64.8962 57.2484 65.1753 57.3687 65.4319 57.4793C66.3997 57.8964 67.0473 58.1754 68.0924 58.0154C68.5862 57.9409 70.2965 57.5698 70.5266 56.866C70.5834 56.6942 70.5014 56.5083 70.3749 56.3803C70.1952 56.1964 69.1658 55.7953 68.8867 55.6945C67.8796 55.3362 65.9697 55.0083 64.9091 54.9672C63.5178 54.918 61.6706 55.1778 60.8082 56.3582C60.2672 57.0989 60.253 58.1127 60.6977 58.8919C61.3025 59.9556 62.5013 60.7812 63.4831 61.2607C65.1425 62.0633 67.1343 62.4454 68.9784 62.2423C70.0329 62.1219 70.9522 61.9065 71.8854 61.4541C72.7839 61.0219 73.7682 60.2064 74.2165 59.2338C74.8167 57.9268 74.7734 56.1999 74.1093 54.9672C73.6725 54.1544 73.1941 53.6983 72.3779 53.338C71.4973 52.9443 70.3468 52.7333 69.176 52.5742C69.134 52.5687 69.1116 52.5655 69.0849 52.5617ZM54.5001 39.9922C54.1499 40.4677 53.7319 41.0946 53.7319 41.0946C53.7319 41.0946 53.6433 40.9072 53.5857 40.768C53.1891 39.7823 54.0657 38.6731 54.8628 37.9907C55.3459 37.5755 56.3127 36.9329 56.9721 36.8046C57.2499 36.7478 57.7401 36.6971 57.7401 36.6971C57.7401 36.6971 57.4267 36.9543 57.1608 37.1814C56.2918 37.925 55.1378 39.1261 54.5001 39.9922ZM61.7005 41.2218C60.6023 41.831 59.4227 42.1936 58.1634 42.2804C57.6716 42.3138 56.3732 42.3266 56.3352 42.1876C56.3245 42.1542 56.4098 42.0287 56.5195 41.8921C56.6127 41.7734 56.7197 41.6256 56.8327 41.4695C56.9307 41.334 57.0333 41.1923 57.1352 41.058C58.0862 39.8321 59.8378 38.2961 61.0732 37.5783C61.4941 37.3374 61.695 37.2583 62.1407 37.1279C62.7543 36.9455 63.0048 36.912 63.4852 37.1201C63.8548 37.2776 64.1475 37.6152 64.1974 38.0625C64.3618 39.444 62.7776 40.6192 61.7005 41.2218ZM54.6995 45.0619C54.788 44.8903 54.8741 44.7233 54.9571 44.6355C54.9733 44.6168 55.066 44.6648 55.1378 44.7199C55.1956 44.7593 55.7369 44.8989 55.885 44.9116C56.0356 44.9216 56.1905 44.9476 56.3463 44.9737C56.4907 44.9979 56.6358 45.0222 56.7791 45.0341C57.7385 45.1204 59.0556 44.8118 59.9012 44.4814C61.8265 43.7277 63.3128 42.6449 64.8178 41.105C65.6967 40.2102 66.4684 38.74 66.1855 37.4C66.0445 36.734 65.7396 36.2751 65.1831 35.795C64.9061 35.5575 64.228 35.2009 63.757 35.1193C63.7227 35.1129 63.6861 35.1072 63.6496 35.1014C63.5408 35.0843 63.4322 35.0671 63.383 35.0358C63.3291 35.0012 63.2834 34.9401 63.2345 34.8748C63.2169 34.8513 63.1989 34.8272 63.1799 34.8036C62.8434 34.375 62.1736 33.9659 61.6929 33.8012C60.2162 33.2898 58.2457 33.6759 56.9009 34.2423C55.4784 34.845 54.1703 35.7303 53.1705 36.7955C52.1777 37.8489 51.4134 39.1845 51.4931 40.6344C51.5165 41.0994 51.7045 41.8196 51.9368 42.2326C52.006 42.3552 52.0959 42.4812 52.187 42.6088C52.3563 42.8461 52.5299 43.0892 52.5824 43.3277C52.6132 43.465 52.6069 43.6293 52.6004 43.7967C52.5967 43.8943 52.5929 43.9928 52.5964 44.0877C52.6146 44.6781 52.8712 45.2851 53.3149 45.6776C53.6313 45.956 53.909 45.9449 54.2367 45.7038C54.3301 45.6375 54.4711 45.4723 54.5473 45.344C54.5987 45.2574 54.6495 45.1589 54.6995 45.0619ZM56.9033 47.6726C56.8256 47.6427 56.7352 47.6164 56.6766 47.6065C56.2547 47.524 56.0125 48.106 55.8988 48.395C55.5657 49.2519 55.3255 51.2958 55.2597 51.9337C55.0618 53.865 54.9004 58.4419 55.2357 60.7739C55.3767 61.7513 55.6978 62.3867 56.6861 62.5911C57.087 62.6738 57.8164 62.6582 58.1369 62.453C58.4166 62.2791 58.612 61.9394 58.6777 61.6473C58.8443 60.8982 58.7984 59.8594 58.7614 59.0224C58.7583 58.9521 58.7553 58.8831 58.7524 58.8159C58.7325 58.3475 58.7163 57.8801 58.7001 57.4116C58.6809 56.8563 58.6616 56.2996 58.6361 55.7379C58.572 54.3582 58.4075 50.8334 58.0222 49.2401C57.8559 48.554 57.5782 47.9293 56.9033 47.6726ZM24.1292 51.7031C25.1415 51.5908 26.6123 51.4866 26.6123 51.4866C26.6123 51.4866 26.5802 52.961 26.5724 54.4501C26.559 57.2729 26.6338 60.1386 26.6338 60.1386C26.6338 60.1386 25.6273 59.7783 25.0189 59.5266C23.2481 58.7852 20.8437 57.2585 19.658 56.2685C19.3751 56.0327 18.3663 55.0623 18.1881 54.8525C17.8799 54.4912 17.6027 54.142 17.6804 53.6955C17.7544 53.2646 18.6055 52.9084 19.0245 52.7584C20.4213 52.2596 22.8413 51.8418 24.1292 51.7031ZM53.4333 55.0446C53.4677 54.8526 53.6655 53.397 53.5813 52.6271C53.5919 52.3869 53.4941 51.8624 53.4353 51.5469C53.4149 51.4376 53.3992 51.3533 53.3943 51.3148C53.3813 51.2989 53.2909 50.9092 53.2264 50.631L53.2213 50.6091C53.1559 50.327 52.7628 49.3505 52.6709 49.1872C52.5034 48.8883 52.3778 48.6178 52.2564 48.3562C52.1842 48.2006 52.1135 48.0482 52.0362 47.8949C51.1756 46.1777 49.4041 44.0142 47.9799 42.6028C47.2437 41.8724 46.2271 40.959 45.4498 40.3235C45.0772 40.0137 42.6786 38.2513 42.2687 37.9808C40.9691 37.13 38.6556 35.828 37.1873 35.12C35.141 34.1348 32.3458 33.0515 30.2108 32.4059C26.4805 31.2733 22.8366 30.6001 18.9865 30.7455C17.2855 30.8105 15.0109 31.1571 13.2095 31.6528C11.9412 31.9991 11.0751 32.5521 10.4705 33.6154C10.1696 34.1469 9.89098 34.7217 10.0427 35.3081C10.1735 35.806 10.8855 35.981 11.4573 36.0722C12.0076 36.1593 13.2573 36.2274 13.5893 35.8236C13.7309 35.6478 13.7161 35.4817 13.5977 35.271C13.473 35.0493 13.158 34.8905 12.8555 34.8335C12.7184 34.8084 12.5295 34.7868 12.343 34.7655C12.0694 34.7343 11.8011 34.7036 11.7088 34.6633C11.6224 34.6268 11.5321 34.5769 11.5321 34.5769C11.5548 34.5515 11.5792 34.5278 11.6053 34.5059C11.6717 34.4522 11.9136 34.3506 12.0672 34.313C12.1966 34.2839 12.3334 34.2429 12.4722 34.2014C12.5418 34.1805 12.6119 34.1595 12.6818 34.1398C14.1472 33.7345 17.046 33.6674 18.3755 33.7167C23.5328 33.9091 28.3355 35.058 33.1949 37.0552C37.9547 39.0127 43.3649 42.3517 46.5211 46.4106C47.7157 47.947 49.2116 50.4702 49.392 52.5957C49.5566 54.5419 48.9347 56.4052 47.7472 57.7667C46.8461 58.7956 45.656 59.5557 44.3587 60.1662C41.4038 61.5606 37.8101 61.8489 34.5903 61.7639C34.1674 61.7535 32.5761 61.6102 32.2005 61.5533C31.5459 61.4472 30.7154 61.289 30.7154 61.289L30.503 51.325C30.503 51.325 31.5076 51.3605 32.2139 51.402C34.0183 51.5087 37.7523 52.1254 39.6224 52.8684C40.021 53.0252 40.4392 53.2689 40.4763 53.6641C40.5032 53.9686 40.262 54.2283 39.9941 54.4643C39.8664 54.5806 39.7247 54.6806 39.5724 54.762C39.2499 54.9315 38.7035 55.222 38.6649 55.2697C38.5631 55.4056 38.5558 55.6059 38.6968 55.7169C39.0565 55.9954 40.2255 56.1508 40.5361 56.1328C41.5797 56.0737 42.609 55.3658 43.1532 54.4134C43.6372 53.57 43.6848 52.9233 43.3671 51.9887C43.025 50.9692 41.9694 50.0059 40.8417 49.4342C39.4721 48.7399 37.0842 48.2189 35.8591 48.0225C34.9021 47.87 33.8859 47.7246 32.964 47.7031C32.0152 47.6762 30.4729 47.7218 30.4729 47.7218C30.4729 47.7218 30.4432 46.3698 30.3834 45.471C30.2834 43.9958 29.8749 41.0964 28.5305 40.2604C28.2848 40.1093 27.9834 40.0907 27.813 40.3208C27.5525 40.6613 27.2973 41.9584 27.2397 42.2954C27.1293 42.9185 26.7859 45.865 26.7973 46.3137C26.8061 46.77 26.7605 48.0173 26.7335 48.0554C26.7179 48.0732 26.7029 48.0873 26.6814 48.1038C26.6286 48.1381 25.7698 48.2919 25.2161 48.371C24.0439 48.5419 21.222 49.4633 20.3145 49.864C19.0781 50.4046 17.2715 51.3534 16.7686 52.6135C16.404 53.5175 16.542 54.2747 17.0215 55.1279C17.6382 56.2201 18.4489 57.0712 19.35 57.9267C19.6714 58.2295 21.1274 59.4489 21.4663 59.7018C22.6896 60.6057 24.0879 61.4847 25.5601 62.2101C26.0394 62.4493 26.6143 62.7215 26.6143 62.7215C26.6143 62.7215 26.7276 63.8742 26.8359 64.5373C26.9698 65.3664 27.2457 66.0854 28.0141 66.4087C28.4821 66.6087 29.0193 66.5774 29.5257 66.4834C29.9454 66.4028 30.234 66.2155 30.4097 65.8524C30.4768 65.7169 30.5964 65.2989 30.6157 65.14C30.6553 64.7919 30.6513 64.2968 30.6513 64.2968C30.6513 64.2968 31.8894 64.5822 32.7214 64.7335C35.1389 65.1808 37.7604 65.2212 40.0419 64.9456C43.4043 64.5352 47.3235 63.2893 49.8552 61.101C50.536 60.5121 51.6829 59.1361 52.1652 58.2681C52.4466 57.7611 52.7122 57.2528 52.9816 56.6324C53.037 56.5079 53.3707 55.4871 53.4333 55.0446ZM95.439 51.0706C95.439 51.0706 100.18 50.8397 101.983 50.424C102.909 50.2052 102.364 49.2961 102.364 49.296C101.24 47.048 99.9441 47.1753 99.9441 47.1753C96.2151 47.0499 90.7959 48.0389 90.2047 48.3309C89.6518 48.5816 89.7122 48.9991 90.4333 49.9073C91.2075 50.8646 92.5088 50.775 92.5088 50.775L91.3663 53.1385C90.4333 53.2042 90.1133 53.4946 90.1133 53.4946C89.5755 54.0693 90.3176 55.7649 90.3176 55.7649C90.3176 55.7649 88.6985 59.3971 89.8727 61.3154C91.1334 63.3284 92.625 63.2322 92.625 63.2322C95.4635 63.4397 100.125 60.467 100.373 59.4854C100.582 58.6934 99.8604 57.8244 99.2086 57.6625C98.6003 57.5364 93.9302 58.4128 93.3717 58.5623C92.7706 58.7233 93.0388 58.159 93.0388 58.159L93.7606 55.7179C93.7606 55.7179 98.2176 55.5455 98.8675 55.4372C99.4671 55.3296 99.5029 54.9064 99.5029 54.9064C99.5029 54.9064 99.5805 54.207 99.5583 53.5552C99.4926 52.8563 98.9341 52.9212 98.9341 52.9212C97.2105 52.7411 94.8411 52.9434 94.8411 52.9434L95.439 51.0706ZM84.6487 61.0898C86.2171 61.8355 87.4795 60.6359 87.9574 59.5118C88.4425 58.3792 89.2682 54.636 88.0395 50.4863C86.8027 46.3378 84.2547 45.0567 84.2547 45.0567C84.2547 45.0567 83.5946 44.7476 83.4277 45.4061C83.2596 46.0578 83.5081 46.7533 83.5081 46.7533C85.1521 52.3308 85.526 55.6261 85.526 55.6261C85.526 55.6261 85.6023 56.5956 85.4131 56.6497C85.2818 56.7495 85.1346 56.6106 85.1346 56.6106C84.9463 56.6176 83.1443 53.5939 83.1443 53.5939L82.7943 53.0019C80.8113 49.8014 79.6088 48.7115 79.6088 48.7115C79.6018 48.705 79.5945 48.6981 79.5869 48.691C79.2913 48.4136 78.5833 47.7489 77.7067 48.7222C76.8065 49.7271 76.1019 52.9542 75.8186 55.9874C75.5776 59.0147 75.7614 60.7383 76.2032 61.4637C76.6891 62.2 77.6262 62.4509 78.4 61.8207C79.0219 61.3422 79.0813 58.9142 79.1311 56.8786C79.1467 56.24 79.1613 55.6401 79.1921 55.1511C79.3162 53.0945 79.5184 53.462 79.5184 53.462C79.6985 53.4135 80.6346 55.2955 80.6346 55.2955C80.6346 55.2955 83.1006 60.3426 84.6487 61.0898ZM106.594 62.2879C110.946 63.2884 114.22 59.0509 115.38 57.0272C116.061 55.8112 116.429 54.1887 116.429 52.6621C116.429 50.9241 115.951 49.3112 114.914 48.5697C111.829 46.4288 106.852 53.2177 104.662 56.5843C104.336 54.8696 105.495 52.6956 105.495 52.6956C105.495 52.6956 107.354 49.4777 107.617 48.8237C107.871 48.1659 108.019 46.8131 107.699 46.6791C107.409 46.546 106.909 46.9782 106.909 46.9782C102.733 50.7252 102.15 54.8825 102.15 54.8825C101.755 57.1212 102.217 58.6934 102.894 59.7939C100.573 64.7382 99.4374 69.0501 99.74 71.6009C100.021 73.5427 101.412 74.9463 102.256 75.2418C103.108 75.5978 103.26 74.5728 103.26 74.5728C103.95 69.2979 105.157 65.7727 106.594 62.2879ZM112.999 51.8315C114.308 50.3569 114.48 51.6954 114.48 51.6954C114.785 54.2988 112.891 56.2559 112.078 56.9773C111.578 57.4511 109.924 58.3814 108.21 58.574C109.844 55.4073 111.874 53.0759 112.999 51.8315ZM131.377 51.3907H139.352C139.524 51.391 139.689 51.4594 139.81 51.5809C139.931 51.7023 140 51.867 140 52.0387V53.697C140 54.0539 139.709 54.3455 139.352 54.3455H131.486C131.491 54.7547 131.495 55.1225 131.495 55.465C131.495 57.9019 131.395 59.895 131.162 62.1318C131.147 62.2912 131.072 62.4392 130.953 62.5468C130.835 62.6543 130.68 62.7138 130.52 62.7135H128.815C128.731 62.7135 128.648 62.6957 128.571 62.6613C128.495 62.6269 128.426 62.5768 128.371 62.5141C128.313 62.4515 128.269 62.3773 128.243 62.2965C128.216 62.2156 128.208 62.13 128.217 62.0455C128.458 59.8238 128.561 57.8551 128.561 55.4651C128.561 55.1213 128.557 54.7548 128.552 54.3456H120.77C120.598 54.3452 120.433 54.2768 120.312 54.1552C120.19 54.0337 120.122 53.869 120.122 53.6971V52.0389C120.122 51.6828 120.412 51.3933 120.77 51.3933H128.442C128.279 48.7022 127.948 46.1122 127.426 43.4807C127.41 43.4021 127.413 43.3212 127.433 43.2436C127.452 43.1661 127.489 43.0938 127.54 43.0321C127.59 42.9706 127.653 42.921 127.725 42.8868C127.797 42.8527 127.876 42.8349 127.955 42.8347H129.794C129.932 42.835 130.066 42.8837 130.173 42.9724C130.279 43.0611 130.351 43.1841 130.376 43.3203C130.891 46.0396 131.218 48.6801 131.377 51.3907Z" fill="#161E33"/>
</svg>
