<svg width="150" height="80" viewBox="0 0 150 80" fill="none" xmlns="http://www.w3.org/2000/svg">
<g clip-path="url(#clip0_4716_31447)">
<path fill-rule="evenodd" clip-rule="evenodd" d="M149.934 26.124L149.932 26.1275C149.96 26.218 149.938 26.2675 149.864 26.2846C148.404 26.2907 146.942 26.2853 145.48 26.2799L145.48 26.2799C144.479 26.2763 143.479 26.2726 142.479 26.2726C141.981 26.2726 141.484 26.2732 140.986 26.2738H140.986C139.992 26.2749 138.998 26.276 138.007 26.2726C134.85 26.276 131.695 26.2749 128.542 26.2738L128.539 26.2738C126.963 26.2732 125.387 26.2726 123.811 26.2726C123.793 26.2726 123.775 26.2728 123.757 26.2731L123.732 26.2736C123.637 26.2753 123.545 26.277 123.453 26.2555L123.414 26.2726C121.674 26.276 119.936 26.2749 118.197 26.2738H118.197H118.196C117.327 26.2732 116.457 26.2726 115.587 26.2726C114.54 26.2899 113.495 26.2884 112.45 26.2869C111.742 26.2859 111.034 26.2849 110.325 26.2897C110.297 26.2809 110.275 26.2764 110.258 26.2728C110.236 26.2682 110.222 26.2653 110.213 26.257C110.198 26.2428 110.198 26.213 110.198 26.1328V26.1326C110.198 25.9682 110.318 25.8299 110.451 25.7483C110.872 25.477 111.285 25.1924 111.699 24.9076C112.016 24.6893 112.33 24.4668 112.654 24.2368L112.655 24.2361C112.799 24.1338 112.946 24.03 113.095 23.9245C113.426 23.691 113.765 23.4661 114.103 23.2415C114.284 23.1211 114.465 23.0009 114.644 22.8794C114.783 22.7892 114.922 22.6957 115.039 22.5786C115.018 22.5363 114.998 22.4922 114.978 22.4477L114.978 22.4476C114.886 22.2429 114.79 22.0305 114.57 21.9435C114.332 21.8474 114.089 21.7704 113.845 21.6935C113.785 21.6743 113.716 21.6578 113.644 21.6408C113.376 21.5765 113.072 21.504 113.043 21.2468L113.051 21.2346C113.098 21.1644 113.148 21.0887 113.238 21.0726C113.596 20.9351 113.956 20.8002 114.315 20.6653C114.674 20.5304 115.033 20.3955 115.391 20.258C115.438 20.2471 115.483 20.2317 115.528 20.2164L115.528 20.2164C115.604 20.1908 115.679 20.1656 115.755 20.1624H144.331C144.555 20.1965 144.783 20.2529 144.991 20.3536C145.25 20.4494 145.509 20.5472 145.768 20.6452L145.768 20.6453L145.769 20.6457L145.77 20.646C146.176 20.7994 146.583 20.9531 146.992 21.0999C147.166 21.2247 146.96 21.4633 146.759 21.5335C146.615 21.5835 146.47 21.6306 146.325 21.6777L146.325 21.678C146.071 21.7608 145.816 21.8436 145.567 21.9418C145.093 22.1288 145.093 22.3575 145.093 22.5703C145.218 22.6955 145.361 22.7896 145.505 22.8836C146.019 23.2189 146.532 23.5683 147.044 23.9228C147.435 24.1933 147.798 24.4517 148.152 24.7041L148.153 24.7055L148.154 24.706C148.5 24.9529 148.838 25.1941 149.188 25.4355C149.266 25.4898 149.355 25.5347 149.442 25.5792C149.682 25.7013 149.917 25.8208 149.934 26.124ZM121.573 24.225C122.181 24.3719 122.846 23.8545 122.841 23.2209H122.843C122.894 22.5754 122.207 22.0255 121.591 22.1706C121.272 22.2441 120.971 22.4575 120.858 22.7718C120.702 23.0962 120.746 23.4958 120.942 23.793C121.091 24.0116 121.326 24.1414 121.573 24.225ZM137.563 23.8955C137.886 24.237 138.423 24.3497 138.848 24.114C139.33 23.8613 139.52 23.2107 139.274 22.7274C139.151 22.4473 138.872 22.2612 138.587 22.1775C138.206 22.0767 137.797 22.239 137.541 22.5259C137.211 22.9016 137.233 23.5198 137.563 23.8955ZM27.1338 31.1464C27.9449 31.0235 28.8768 30.9466 29.5639 31.4538C29.9924 31.7766 30.1454 32.3589 30.1148 32.8815C30.1454 33.7405 29.7475 34.6627 28.984 35.1067C28.3106 35.4755 27.5011 35.5063 26.7529 35.4294C26.2478 35.368 25.7445 35.0913 25.4843 34.6319C24.9027 33.2965 25.622 31.4077 27.1355 31.1464H27.1338ZM2.89015 32.1148C2.93607 31.6537 3.3493 31.2404 3.82205 31.2558C5.00019 31.2558 6.17645 31.2575 7.35145 31.2592H7.3516H7.35175H7.3519H7.35205H7.3522H7.35235H7.3525H7.35265H7.3528C9.69991 31.2626 12.042 31.266 14.3841 31.2558C14.7667 31.225 15.1782 31.3941 15.3619 31.7322C15.5474 32.0611 15.4839 32.4125 15.4211 32.7599C15.3958 32.8996 15.3707 33.0386 15.3619 33.1753C15.3446 33.2793 15.3309 33.3889 15.3169 33.5007C15.2443 34.0811 15.1645 34.7195 14.5371 34.9257C13.0267 34.9709 11.5163 34.9629 10.0056 34.9549H10.0055H10.0055H10.0055H10.0055H10.0055H10.0054H10.0054H10.0054H10.0054H10.0054C8.9478 34.9494 7.89004 34.9438 6.832 34.9564C6.72037 35.6983 6.61193 36.437 6.50377 37.1737L6.50374 37.1739L6.50371 37.1741L6.50368 37.1743L6.50366 37.1745L6.50363 37.1746L6.5036 37.1748L6.50358 37.175L6.50355 37.1752L6.50352 37.1754C6.37448 38.0543 6.24584 38.9306 6.11267 39.8064C6.11267 39.8371 6.11649 39.8871 6.12032 39.937L6.12032 39.937C6.12415 39.987 6.12797 40.0369 6.12797 40.0677C7.06834 40.06 8.00828 40.06 8.94822 40.06C9.88822 40.06 10.8282 40.06 11.7687 40.0523C12.289 40.0216 12.8383 40.4673 12.7924 41.0189C12.7639 41.3711 12.7061 41.7168 12.6481 42.064L12.6481 42.0641C12.6124 42.2775 12.5766 42.4914 12.5475 42.7078C12.4863 43.0921 12.1802 43.4439 11.7823 43.5207C10.8845 43.5405 9.98146 43.5348 9.07778 43.5292H9.07774H9.0777H9.07766H9.07761H9.07757H9.07753H9.07749H9.07745H9.07741C7.8723 43.5216 6.66609 43.5141 5.46987 43.5668C5.28036 44.8711 5.07147 46.1759 4.86258 47.4806C4.70032 48.4941 4.53807 49.5076 4.38492 50.5207C4.33901 50.9818 3.97169 51.3797 3.51425 51.395C2.64357 51.4104 1.7712 51.4104 0.900524 51.395C0.334246 51.4104 -0.123198 50.7803 0.0298498 50.244C0.889553 44.674 1.77377 39.1184 2.65993 33.5507L2.65995 33.5505L2.88845 32.1148H2.89015ZM19.9478 31.2545C19.4372 31.2501 18.9248 31.2456 18.4192 31.2847H18.4175C18.0213 31.3462 17.7152 31.698 17.6693 32.0823C16.8445 37.3182 16.0334 42.537 15.2239 47.7558C15.0862 48.7378 15.1321 49.8427 15.8038 50.6265C16.7357 51.7007 18.3104 51.8851 19.6096 51.6392C19.66 51.6249 19.7124 51.6106 19.7661 51.596L19.7663 51.596C20.3479 51.4375 21.0811 51.2378 21.1231 50.5343C21.1357 50.3735 21.1576 50.2117 21.1796 50.0498L21.1796 50.0498C21.2373 49.6234 21.2952 49.196 21.1843 48.7839C21.0606 48.4275 20.738 48.3253 20.4195 48.2244C20.1077 48.1256 19.7997 48.0281 19.6861 47.6943C19.519 47.1263 19.6111 46.5366 19.6992 45.9717C19.716 45.8641 19.7327 45.7574 19.7474 45.6519C20.0688 43.595 20.3936 41.538 20.7184 39.4811C21.0432 37.4241 21.368 35.3671 21.6894 33.3101C21.7061 33.1646 21.7309 33.0193 21.7557 32.8741L21.7558 32.8741C21.7991 32.6205 21.8424 32.3671 21.8424 32.113C21.7965 31.6075 21.3085 31.2233 20.8187 31.254C20.5301 31.2596 20.2393 31.2571 19.9478 31.2545ZM48.7638 32.1148C48.8097 31.6537 49.2229 31.2558 49.6803 31.2558H52.0033C52.5832 31.2404 53.0576 31.8706 52.9199 32.4221C52.6523 34.1246 52.3814 35.8266 52.1105 37.5286L52.1096 37.5342C51.8383 39.2381 51.5671 40.942 51.2993 42.6463C52.1087 42.5234 53.027 42.3697 53.5916 41.7105C54.5388 40.6363 55.3193 39.3931 55.8992 38.0884C55.9349 37.9974 55.9677 37.8989 56.0012 37.7982L56.0012 37.798L56.0013 37.7977L56.0014 37.7975L56.0015 37.7973L56.0016 37.7971L56.0016 37.7969L56.0016 37.7968C56.1547 37.3367 56.3237 36.8285 56.8617 36.753C57.7324 36.7222 58.6201 36.7376 59.4907 36.753C60.0876 36.7376 60.5298 37.4121 60.3308 37.9654C60.1012 38.78 59.7186 39.5314 59.3224 40.2521C58.4364 41.6951 57.4569 43.1228 56.173 44.2584C56.5352 45.3486 56.9594 46.42 57.3823 47.4881L57.3823 47.4883L57.3824 47.4884L57.3825 47.4886L57.3826 47.4888L57.3826 47.4889L57.3827 47.4891C57.6208 48.0904 57.8584 48.6907 58.0844 49.2928C58.1238 49.4116 58.1752 49.5345 58.2276 49.6597L58.2276 49.6598L58.2276 49.6598L58.2277 49.6599L58.2277 49.6599C58.4192 50.1178 58.6231 50.6055 58.2987 51.0279C57.962 51.4848 57.418 51.4557 56.8953 51.4278C56.6815 51.4164 56.4712 51.4052 56.2801 51.4275C56.0928 51.4065 55.8827 51.4176 55.6683 51.4288C55.0962 51.4589 54.494 51.4905 54.2157 50.9203C53.8745 50.1265 53.5612 49.3226 53.2477 48.5183C52.9003 47.6269 52.5527 46.7349 52.1665 45.8552C51.738 45.8705 51.2959 45.8859 50.8673 45.8398L50.7449 46.0857C50.5153 47.621 50.2704 49.1562 50.0256 50.6915C49.9337 51.0603 49.6429 51.3814 49.2467 51.4121C48.6398 51.4352 48.0233 51.4323 47.4052 51.4294C47.1989 51.4285 46.9924 51.4275 46.786 51.4275C46.434 51.4275 46.1143 51.1969 45.9613 50.8896C45.832 50.6299 45.8774 50.3386 45.9223 50.0507C45.9306 49.9977 45.9388 49.9448 45.946 49.8922C46.8932 43.9664 47.8268 38.0406 48.7587 32.1165L48.7638 32.1148ZM92.1899 33.0796C91.7631 33.0643 91.3499 33.3563 91.2427 33.7867V33.7832C91.035 34.4439 90.8408 35.111 90.646 35.7801C90.5553 36.0916 90.4644 36.4035 90.3721 36.7154C90.1883 36.7392 90.0002 36.7354 89.8129 36.7315C89.5166 36.7254 89.2224 36.7194 88.9504 36.823C88.4939 37.0522 88.4262 37.5441 88.3641 37.9945C88.3513 38.0877 88.3387 38.1791 88.3229 38.266C88.3125 38.3475 88.2984 38.4316 88.2842 38.5169C88.215 38.931 88.1408 39.3751 88.4454 39.6937C88.7385 40.0442 89.1958 40.0238 89.5991 40.0059C89.638 40.0041 89.6763 40.0024 89.714 40.0011C89.5602 41.3972 89.3355 42.7842 89.1111 44.1697L89.1111 44.1699C88.9333 45.2671 88.7558 46.3633 88.6137 47.4622C88.4913 48.7515 88.6749 50.2714 89.8211 51.0535C91.0591 51.8681 92.6644 51.8681 94.0554 51.4992C94.1081 51.485 94.1625 51.471 94.2178 51.4569C94.6923 51.3351 95.2361 51.1957 95.4006 50.6864C95.4789 50.3617 95.5134 50.0315 95.5481 49.6987L95.5482 49.6984L95.5482 49.6981C95.5677 49.5112 95.5873 49.3236 95.6148 49.1357C95.6914 48.6764 95.4023 48.1692 94.9431 48.0308C94.7906 48.0147 94.6288 48.0155 94.4655 48.0163C94.0061 48.0185 93.5356 48.0208 93.2307 47.6466C92.9552 47.2316 92.9858 46.6954 93.0317 46.2189C93.1456 45.4856 93.2617 44.7522 93.3778 44.019L93.3783 44.0161L93.3787 44.0132L93.3792 44.0103L93.3797 44.0074L93.3801 44.0045L93.3806 44.0016L93.3807 44.0011L93.3808 44.0006L93.3809 44L93.3809 43.9995L93.381 43.9989L93.3811 43.9984C93.5897 42.6809 93.7982 41.3637 93.9942 40.0472C94.3926 40.0045 94.791 40.0092 95.1923 40.014C95.5139 40.0178 95.8373 40.0216 96.1641 40.0011C96.545 39.9413 96.8817 39.6186 96.9583 39.2189C96.9965 38.9807 97.0424 38.7468 97.0883 38.5128C97.1343 38.2788 97.1802 38.0449 97.2184 37.8067C97.3103 37.2858 96.8681 36.7325 96.3325 36.7325C95.934 36.7222 95.5295 36.7257 95.1271 36.7291H95.1269H95.1268H95.1266H95.1264H95.1263H95.1261C94.926 36.7308 94.7263 36.7325 94.5282 36.7325C94.5622 36.247 94.6434 35.7609 94.7246 35.275L94.7246 35.2748L94.7246 35.2746L94.7247 35.2744L94.7247 35.2743L94.7247 35.2741L94.7247 35.2739L94.7248 35.2736C94.7897 34.8849 94.8547 34.4961 94.8955 34.1077C94.9567 33.6176 94.5605 33.1104 94.0554 33.095C93.6965 33.0774 93.3382 33.08 92.9826 33.0825C92.7165 33.0844 92.452 33.0862 92.1899 33.0796ZM82.6054 38.7612C83.5679 37.7947 84.7311 36.9954 86.0609 36.5975C86.6425 36.3363 87.3907 36.8281 87.3754 37.4719C87.3103 37.9846 87.2112 38.4923 87.1126 38.9977L87.1126 38.9978L87.1126 38.998L87.1125 38.9982L87.1125 38.9983L87.1125 38.9985V38.9986V38.9986L87.1125 38.9987C87.0489 39.3244 86.9855 39.6492 86.9316 39.9737C86.8703 40.3887 86.5183 40.7422 86.1051 40.7866C84.6069 41.0479 83.3077 41.953 82.2687 43.0271C82.2095 43.1006 82.144 43.1732 82.0775 43.2468L82.0774 43.2469L82.0773 43.247L82.0772 43.2471L82.0772 43.2472C81.8517 43.4971 81.6158 43.7585 81.5817 44.1013C81.2883 46.0625 80.9821 48.0251 80.6761 49.9865L80.5886 50.548C80.5426 51.0091 80.1447 51.4531 79.672 51.4224H77.349C76.8134 51.4531 76.3406 50.9152 76.4018 50.3789L76.7551 48.1443C77.3091 44.641 77.862 41.1445 78.4034 37.6375C78.434 37.2072 78.7401 36.7939 79.1822 36.7478C79.6062 36.7248 80.0292 36.7276 80.4591 36.7305H80.4593C80.6035 36.7315 80.7486 36.7324 80.8947 36.7324C81.3538 36.7324 81.7806 37.1474 81.7806 37.6222C81.7806 37.9965 81.7609 38.3763 81.741 38.7585L81.741 38.759C81.7259 39.0497 81.7107 39.3418 81.7041 39.6339C81.9326 39.4904 82.1079 39.2935 82.2809 39.0989C82.3861 38.9807 82.4904 38.8634 82.6054 38.7595V38.7612ZM27.0374 36.7342H27.0373C26.512 36.7198 25.9836 36.7053 25.4677 36.811V36.8127C25.0086 36.9971 24.8861 37.518 24.8555 37.9637C24.5265 40.013 24.2055 42.0584 23.8845 44.1038C23.5636 46.1493 23.2426 48.1947 22.9135 50.244C22.7775 50.7512 23.1584 51.3489 23.6788 51.4104C24.3091 51.4335 24.9318 51.4306 25.5518 51.4277C25.7581 51.4267 25.9641 51.4258 26.17 51.4258C26.6428 51.4411 27.0101 50.9971 27.056 50.5514C27.6682 46.6048 28.294 42.66 28.9215 38.7151C28.9349 38.5941 28.9548 38.4731 28.9748 38.3519C29.0232 38.0576 29.072 37.7613 29.0287 37.4565C28.9521 36.9801 28.4488 36.6727 27.9743 36.7341C27.6654 36.7514 27.352 36.7428 27.0375 36.7342H27.0374H27.0374H27.0374H27.0374ZM74.9322 37.0109C72.6552 36.5805 70.3306 36.2731 68.023 36.5037C65.9585 36.7649 63.8805 37.7008 62.6119 39.4051C60.8535 41.6456 60.2583 44.6547 60.6545 47.4485C60.8688 48.784 61.4487 50.1348 62.5353 50.963C63.5438 51.7452 64.9042 51.8528 66.1269 51.6529C67.8393 51.3148 69.2916 50.2099 70.4836 48.9821C70.5171 49.2681 70.4956 49.5535 70.4743 49.8366V49.8367V49.8368V49.8369C70.4567 50.0709 70.4392 50.3032 70.453 50.5327C70.4836 51.0074 70.9122 51.4531 71.3849 51.4224H72.9443C73.4035 51.4224 73.7844 50.9921 73.815 50.548L73.9166 49.9056C74.5406 45.9612 75.1626 42.03 75.7723 38.0987C75.8641 37.5761 75.4509 37.0706 74.9322 37.0092V37.0109ZM70.6367 44.2414C70.0245 45.3924 69.1691 46.4375 68.2066 47.3273C67.6556 47.7884 66.9533 48.2631 66.2051 48.1094C65.4705 47.9557 65.1201 47.1889 64.9518 46.528C64.5692 44.8084 64.9212 42.935 65.8837 41.4475C66.3122 40.7559 66.9992 40.2351 67.7951 40.0199C68.9106 39.7432 70.0874 39.8816 71.1741 40.1889L71.2353 40.2504C71.1449 41.1268 71.0018 41.9965 70.8583 42.8683L70.8583 42.8685L70.8581 42.8695C70.783 43.3258 70.7078 43.7827 70.6401 44.2414H70.6367ZM43.4285 37.6393C44.4981 38.7903 44.9114 40.4024 44.9267 41.9376V41.9359C45.0185 44.6392 44.1631 47.4177 42.3282 49.4277C40.0801 51.7161 36.5804 52.1157 33.5688 51.5317C33.4157 52.8978 33.2474 54.2486 33.0025 55.5995C32.9847 55.6939 32.9704 55.7942 32.9557 55.8966L32.9557 55.8969L32.9556 55.897C32.882 56.4116 32.8004 56.9809 32.239 57.1347C31.6641 57.2189 31.0742 57.2094 30.4849 57.2H30.4848H30.4846H30.4844C30.2127 57.1957 29.9411 57.1913 29.6712 57.1962C29.0913 57.2116 28.6015 56.6292 28.7393 56.0606C29.2205 52.99 29.706 49.9199 30.1915 46.8498L30.1916 46.8492L30.1917 46.8485C30.6772 43.7789 31.1626 40.7093 31.6438 37.6393C31.6744 37.1645 32.0706 36.7342 32.5604 36.7342H34.1198C34.5772 36.7342 35.021 37.1474 35.0057 37.6239C35.0145 37.9237 35.0032 38.2179 34.9919 38.51C34.9835 38.727 34.9751 38.9429 34.9751 39.1591C35.1606 39.0531 35.3055 38.8948 35.4512 38.7355L35.4512 38.7355C35.5566 38.6203 35.6625 38.5045 35.7846 38.4077C37.0838 37.2414 38.7503 36.3653 40.524 36.4268C41.5936 36.4114 42.6956 36.8264 43.4285 37.6393ZM39.0717 47.3562C40.0495 46.3282 40.5546 44.9005 40.6464 43.4882L40.6481 43.4899C40.7093 42.4619 40.6481 41.3245 39.9747 40.4809C39.5768 39.9737 38.8285 39.9122 38.2776 40.1735C36.7947 40.9557 35.754 42.3833 34.8986 43.7956C34.7145 44.5896 34.5968 45.3946 34.479 46.2008C34.4009 46.735 34.3228 47.2697 34.2252 47.802C34.2405 47.8481 34.2864 47.9403 34.317 47.9864C35.8764 48.3997 37.8031 48.5687 39.0717 47.3562ZM149.936 26.7867C149.958 26.843 149.975 26.8994 149.992 26.9557L149.99 26.9523C149.996 31.6979 149.995 36.4438 149.994 41.1898C149.993 46.7747 149.993 52.3597 150.002 57.9442C150.028 58.7501 149.535 59.3702 149.228 59.5444C148.92 59.7185 148.152 59.7578 147.8 59.7459C145.611 59.7425 143.423 59.7436 141.236 59.7447C140.143 59.7453 139.051 59.7459 137.959 59.7459C137.772 59.7415 137.586 59.743 137.399 59.7445C137.144 59.7464 136.889 59.7484 136.634 59.7356C136.634 59.6844 136.641 59.5888 136.646 59.5444C136.761 58.9025 136.876 58.2607 136.99 57.6194C137.119 56.8922 137.248 56.1657 137.379 55.4407C137.432 55.1638 137.48 54.8857 137.528 54.6079C137.601 54.183 137.673 53.759 137.765 53.3419C138.391 53.3487 139.017 53.3464 139.644 53.3442C139.957 53.343 140.27 53.3419 140.583 53.3419C140.625 53.3419 140.667 53.3424 140.709 53.3428C140.954 53.3456 141.199 53.3484 141.428 53.2582C141.683 53.1762 141.906 53.0259 142.093 52.8398C142.285 52.6485 142.441 52.418 142.557 52.1755C142.831 51.6136 142.975 51.0074 143.065 50.396C143.139 49.853 143.188 49.2689 142.965 48.7515C142.792 48.3468 142.356 48.1111 141.931 48.1111C141.321 48.1052 140.71 48.1061 140.101 48.1069C139.644 48.1075 139.188 48.1082 138.732 48.106C138.809 47.6346 138.896 47.1649 138.982 46.6961C139.066 46.2428 139.15 45.7903 139.224 45.3377C139.42 44.3046 139.772 43.2731 140.436 42.4414C140.683 42.1289 140.982 41.8625 141.312 41.6422C141.739 41.357 142.219 41.1504 142.719 41.0428C143.249 40.9134 143.792 40.9113 144.335 40.9093C144.896 40.9071 145.457 40.905 146.006 40.7627C146.176 40.7132 146.351 40.6466 146.499 40.5476C146.608 40.4741 146.705 40.3819 146.771 40.2624C146.907 40.028 146.895 39.7491 146.883 39.4836C146.88 39.4241 146.877 39.3652 146.876 39.3077C146.754 38.5273 146.608 37.752 146.351 37.0057C146.234 36.6915 146.075 36.3773 145.814 36.1638C145.496 35.8889 145.082 35.7761 144.679 35.6805C144.064 35.602 143.438 35.5849 142.817 35.6412C140.906 35.7317 138.981 36.2031 137.321 37.1799C135.544 38.2233 134.083 39.7961 133.162 41.649C132.575 42.8 132.194 44.0467 131.954 45.3104C131.887 45.6671 131.82 46.0235 131.753 46.3798C131.65 46.9329 131.546 47.4858 131.441 48.0394C131.432 48.1111 131.363 48.1108 131.302 48.1105C131.281 48.1103 131.262 48.1102 131.245 48.1128L131.242 48.1128C129.136 48.1077 127.033 48.1026 124.928 48.1128C123.914 48.2118 122.898 48.3235 121.883 48.4352C121.235 48.5065 120.587 48.5777 119.94 48.6456L119.896 48.6627C119.882 48.6644 119.868 48.6657 119.854 48.667C119.84 48.6682 119.826 48.6695 119.812 48.6712C119.71 48.6819 119.608 48.6923 119.505 48.7026C119.183 48.7351 118.86 48.7676 118.539 48.813C118.469 48.8215 118.401 48.83 118.331 48.842C119.582 49.0491 120.836 49.2342 122.09 49.4193C122.843 49.5304 123.595 49.6415 124.348 49.7573C124.43 49.9316 124.483 50.1266 124.535 50.3214C124.564 50.4283 124.593 50.5351 124.627 50.6385C124.509 50.6418 124.392 50.6547 124.275 50.6676C124.207 50.675 124.14 50.6824 124.072 50.6881C124.047 50.6915 124.021 50.6949 123.996 50.6949C123.97 50.6966 123.945 50.6987 123.92 50.7009C123.895 50.703 123.87 50.7051 123.844 50.7068C123.319 50.7463 122.794 50.7893 122.269 50.8324C121.907 50.8621 121.546 50.8918 121.183 50.9203C121.156 50.9234 121.128 50.9231 121.1 50.9228C121.033 50.9222 120.964 50.9215 120.909 50.9647C122.033 51.1205 123.159 51.2822 124.287 51.4443L124.538 51.4804C124.561 51.4843 124.587 51.4859 124.613 51.4876C124.704 51.4931 124.804 51.4993 124.834 51.5983C124.847 51.6595 124.86 51.7208 124.872 51.782C124.902 51.929 124.932 52.0757 124.968 52.2216C124.712 52.2488 124.453 52.2589 124.193 52.269C123.916 52.2798 123.639 52.2906 123.365 52.3224C123.098 52.3201 122.832 52.3394 122.566 52.3587C122.428 52.3686 122.291 52.3786 122.154 52.3855H122.149C122.066 52.3907 121.982 52.3924 121.899 52.3924C121.873 52.3924 121.847 52.3932 121.821 52.3941C121.795 52.3949 121.769 52.3958 121.742 52.3958C121.731 52.3975 121.719 52.3984 121.708 52.3992C121.696 52.4001 121.685 52.4009 121.673 52.4026C121.464 52.426 121.254 52.433 121.045 52.44C120.811 52.4478 120.577 52.4557 120.345 52.4863C120.072 52.4888 119.803 52.5071 119.533 52.5255C119.243 52.5452 118.953 52.5649 118.661 52.5649C118.419 52.5993 118.176 52.6064 117.932 52.6135C117.692 52.6205 117.453 52.6275 117.214 52.6605C116.943 52.6605 116.673 52.6788 116.403 52.6972C116.133 52.7156 115.863 52.7339 115.592 52.7339C115.324 52.7717 115.054 52.7783 114.785 52.7849C114.531 52.7911 114.278 52.7972 114.025 52.8296C113.943 52.8314 113.861 52.8346 113.779 52.8379C113.629 52.8439 113.479 52.85 113.326 52.8466C113.326 52.8535 113.321 52.8757 113.316 52.8808C113.598 52.8876 113.88 52.9015 114.161 52.9155C114.584 52.9364 115.008 52.9573 115.43 52.9542C115.763 52.9909 116.098 52.9965 116.433 53.002C116.769 53.0076 117.104 53.0131 117.437 53.0499C117.581 53.0559 117.726 53.057 117.871 53.0581C118.136 53.0602 118.401 53.0623 118.661 53.0942C118.897 53.1053 119.132 53.1089 119.368 53.1125C119.752 53.1185 120.136 53.1244 120.518 53.1626C120.91 53.1626 121.301 53.1809 121.691 53.1993C122.081 53.2177 122.47 53.236 122.861 53.236C123.259 53.2746 123.658 53.2802 124.056 53.2858C124.292 53.2891 124.528 53.2924 124.763 53.3026C125.021 53.3337 125.286 53.3372 125.548 53.3405C125.66 53.342 125.771 53.3434 125.882 53.347C126.642 53.3496 127.403 53.3496 128.165 53.3496C128.927 53.3496 129.689 53.3496 130.449 53.3521C130.443 53.3937 130.438 53.4356 130.432 53.4776C130.427 53.5202 130.421 53.5627 130.415 53.6049C130.136 55.0787 129.875 56.5563 129.614 58.032C129.525 58.5347 129.437 59.0372 129.347 59.5392C129.345 59.5534 129.342 59.5733 129.34 59.5936C129.337 59.6199 129.333 59.6468 129.33 59.6622C129.328 59.6733 129.325 59.6887 129.322 59.704C129.319 59.7194 129.316 59.7348 129.313 59.7459C129.202 59.7909 129.086 59.7883 128.97 59.7857C128.928 59.7847 128.886 59.7838 128.844 59.7851H112.406C112.199 59.8073 112.011 59.8082 111.791 59.7288L111.784 59.7261C111.483 59.6175 111.172 59.5052 110.936 59.2848C110.533 58.9091 110.23 58.4087 110.146 57.8588C110.152 47.5441 110.152 37.2363 110.152 26.9216C110.157 26.8703 110.179 26.8311 110.213 26.7918C116.832 26.7892 123.451 26.7892 130.072 26.7892C136.692 26.7892 143.313 26.7892 149.936 26.7867ZM139.054 30.3387C139.093 30.3217 139.115 30.2875 139.115 30.2482L139.119 30.2465C139.121 30.151 139.136 30.058 139.151 29.9654C139.172 29.8393 139.192 29.7139 139.18 29.5839C139.229 29.309 139.234 29.0272 139.224 28.7471C139.178 28.6634 139.173 28.5627 139.173 28.4671L139.129 28.4722C139.062 28.2263 138.855 27.9906 138.586 27.9786C138.386 27.9616 138.134 27.9667 138.017 28.158C137.851 28.3821 137.866 28.6517 137.88 28.9148C137.885 29.0085 137.89 29.1014 137.887 29.1911C137.887 29.2022 137.889 29.2176 137.89 29.233C137.891 29.2483 137.892 29.2637 137.892 29.2748C137.892 29.5054 137.864 29.7291 137.824 29.9545C137.79 30.0211 137.773 30.0945 137.773 30.1731C137.678 30.7008 137.488 31.2233 137.231 31.6998C137.182 31.7664 137.143 31.8398 137.125 31.9184C136.957 32.2104 136.756 32.4802 136.549 32.75C136.515 32.7791 136.486 32.8115 136.459 32.8457C136.32 33.0174 136.17 33.164 136.015 33.3141L135.995 33.3341C135.972 33.3468 135.954 33.3617 135.936 33.3763C135.922 33.3872 135.909 33.398 135.894 33.4075C135.706 33.5937 135.493 33.7679 135.263 33.9079C135.247 33.9176 135.231 33.9288 135.214 33.9409C135.202 33.9501 135.188 33.9597 135.173 33.9694C133.743 34.9189 132.003 35.3116 130.31 35.3287C128.873 35.3748 127.426 35.0657 126.128 34.4424C126.12 34.4386 126.107 34.4332 126.093 34.4273C126.069 34.4171 126.042 34.4055 126.028 34.398C125.972 34.3679 125.916 34.3388 125.86 34.3097C125.697 34.225 125.534 34.1406 125.385 34.0326C125.368 34.0239 125.35 34.0142 125.333 34.0042C125.305 33.9887 125.277 33.9727 125.246 33.9591C125.04 33.8362 124.843 33.7013 124.659 33.5441C124.617 33.506 124.573 33.4733 124.528 33.4403C124.506 33.4245 124.485 33.4087 124.463 33.3922C124.261 33.2299 124.055 33.0557 123.882 32.8593C123.838 32.8099 123.792 32.7639 123.748 32.7195L123.747 32.7193C123.139 32.0857 122.662 31.3104 122.411 30.4685C122.214 29.9198 122.2 29.3309 122.187 28.7498C122.184 28.622 122.181 28.4946 122.176 28.368C121.974 28.0589 121.549 27.8847 121.214 28.076C121.132 28.1351 121.092 28.2229 121.052 28.3116C121.024 28.3742 120.995 28.4373 120.952 28.491C120.778 30.3439 121.566 32.1916 122.824 33.5271C122.824 33.5732 122.846 33.6005 122.885 33.6176C122.964 33.6915 123.043 33.766 123.121 33.8405C123.264 33.9759 123.406 34.1109 123.55 34.2409C123.589 34.2802 123.633 34.3195 123.684 34.3536C123.853 34.4919 124.03 34.6216 124.207 34.7513C124.266 34.7945 124.325 34.8377 124.383 34.8813C124.428 34.9155 124.472 34.9445 124.523 34.9718C124.609 35.0221 124.694 35.075 124.779 35.1279C124.997 35.2637 125.214 35.3991 125.451 35.4875C125.473 35.5046 125.513 35.5319 125.535 35.5439C126.597 36.0545 127.744 36.4029 128.917 36.5156C129.046 36.5156 129.174 36.5276 129.303 36.5549C129.825 36.5851 130.345 36.5738 130.867 36.5624L130.98 36.56C132.708 36.408 134.491 35.9862 135.933 34.965L135.95 34.9872C135.996 34.9479 136.035 34.9155 136.08 34.8813C136.309 34.7139 136.534 34.5346 136.756 34.3485C136.807 34.3092 136.862 34.2648 136.913 34.2136C136.986 34.1342 137.062 34.0567 137.139 33.9788C137.321 33.7935 137.505 33.6064 137.651 33.3887L137.685 33.4058C137.693 33.3928 137.702 33.3742 137.712 33.3552C137.724 33.332 137.737 33.3081 137.746 33.2931C137.935 33.0352 138.108 32.7654 138.277 32.4956C138.282 32.4871 138.292 32.476 138.301 32.4649C138.311 32.4538 138.321 32.4427 138.326 32.4341L138.304 32.4119C138.31 32.4039 138.319 32.3927 138.329 32.3806C138.346 32.3594 138.366 32.3356 138.377 32.3214C138.685 31.6913 138.959 31.0355 139.054 30.3387Z" fill="#161E33"/>
</g>
<defs>
<clipPath id="clip0_4716_31447">
<rect width="150" height="80" fill="white"/>
</clipPath>
</defs>
</svg>
