<svg width="150" height="80" viewBox="0 0 150 80" fill="none" xmlns="http://www.w3.org/2000/svg">
<g clip-path="url(#clip0_4716_32748)">
<path fill-rule="evenodd" clip-rule="evenodd" d="M20.2802 50.1355C20.2802 49.5349 19.8298 48.9344 19.0791 48.9344C18.3284 48.9344 17.8779 49.5349 17.8779 50.1355C17.8779 50.736 18.3284 51.3366 19.0791 51.3366C19.6796 51.3366 20.2802 50.8862 20.2802 50.1355ZM37.5462 40.0762C37.5462 40.6767 37.9966 41.2773 38.7473 41.2773C39.3479 41.2773 39.9484 40.6767 39.9484 40.0762C39.9484 39.4756 39.498 38.8751 38.7473 38.8751C38.1468 38.8751 37.5462 39.4756 37.5462 40.0762ZM34.8437 40.0762C34.8437 37.9742 36.6454 36.1726 38.7473 36.1726C40.8493 36.1726 42.5008 37.8241 42.8011 39.6258C42.8011 41.7277 40.9994 43.5294 38.8975 43.5294C37.9966 43.5294 37.2459 43.3792 36.4952 42.7787L23.1328 49.9853C23.1328 52.0873 21.3312 53.7388 19.2292 53.7388C17.4275 53.7388 15.776 52.3876 15.4757 50.4358L3.31442 44.1299C1.21247 43.0789 -0.138783 40.2263 0.0113561 37.5238C0.161496 35.8723 0.762052 34.521 1.96317 33.7703C2.08959 33.7071 2.68836 33.4111 3.63345 32.9438L3.63615 32.9424L3.63863 32.9412C7.18623 31.1871 15.5973 27.0284 22.232 23.711L22.6824 23.5609C22.7012 23.5515 22.7236 23.5397 22.7494 23.5261C23.1351 23.3231 24.2874 22.7165 25.8353 23.5609C27.7871 24.4617 31.9911 26.4135 35.7445 28.2152C36.7908 28.7859 37.8973 29.2963 38.8733 29.7465L38.8734 29.7465L38.8735 29.7466L38.8735 29.7466L38.8736 29.7466L38.874 29.7468L38.8741 29.7469L38.8743 29.747L38.8744 29.747C39.4385 30.0072 39.959 30.2473 40.3989 30.4673C40.3989 30.4673 40.9994 30.7675 40.9994 31.3681C40.9994 31.8185 40.6991 32.1188 40.3989 32.2689L19.8298 42.9288C18.7788 43.5294 18.3284 43.3792 17.7278 43.079C17.5613 42.9124 14.3924 41.2678 11.0905 39.5541C8.43944 38.1783 5.70266 36.7579 4.3654 36.0224H4.21526C3.91498 35.8723 3.46456 35.8723 3.16428 36.0224C2.71386 36.3227 2.26345 37.0734 2.26345 37.9742C2.11331 39.7759 3.01414 41.8778 4.21526 42.4784L15.6259 48.484C16.2264 47.2828 17.5777 46.382 19.0791 46.382C20.2802 46.382 21.4813 46.9826 22.232 48.0335L34.9938 41.2773C34.8437 40.977 34.8437 40.5266 34.8437 40.0762ZM64.8712 48.334C66.2225 47.8836 67.2734 47.1329 68.0241 46.3822H68.1743V38.575H60.2169V41.7279H63.52V44.7307C62.9194 45.1811 62.0186 45.4814 60.8174 45.4814C59.3161 45.4814 58.2651 44.8808 57.6645 43.98C56.9138 43.0791 56.6135 41.5778 56.6135 39.6259V38.4248C56.7637 36.6232 57.064 35.2719 57.6645 34.2209C58.2651 33.17 59.1659 32.7195 60.367 32.7195C61.2679 32.7195 62.0186 33.0198 62.6191 33.4702C63.2197 33.9207 63.52 34.6714 63.6701 35.7223H68.1743C67.874 33.4702 67.1233 31.8187 65.772 30.7677C64.4208 29.7168 62.469 29.1162 60.0667 29.1162C58.4152 29.1162 56.9138 29.5666 55.7127 30.3173C54.5116 31.068 53.6108 32.119 52.8601 33.6204C52.1094 34.9716 51.8091 36.6232 51.8091 38.575V40.2265C51.8091 42.929 52.7099 45.1811 54.2113 46.6825C55.7127 48.334 57.8147 49.0847 60.367 49.0847C62.0186 49.0847 63.52 48.7844 64.8712 48.334ZM70.7263 48.7844H75.2305V34.371H70.7263V48.7844ZM70.5762 30.6176C70.5762 30.017 70.8764 29.4165 71.3269 28.966C71.7773 28.5156 72.3778 28.3655 73.1285 28.3655C73.8792 28.3655 74.4798 28.5156 74.9302 28.966C75.3806 29.4165 75.6809 29.8669 75.6809 30.6176C75.6809 31.2181 75.3806 31.8187 74.9302 32.2691C74.4798 32.7195 73.8792 32.8696 73.1285 32.8696C72.3778 32.8696 71.7773 32.7195 71.3269 32.2691C70.7263 31.8187 70.5762 31.3683 70.5762 30.6176ZM83.3371 34.3709V30.7675H78.8329V34.3709H77.0312V37.5238H78.8329V44.7304C78.8329 46.2318 79.1332 47.2828 79.8839 48.0335C80.6346 48.7842 81.8357 49.0845 83.3371 49.0845C84.2379 49.0845 85.1388 48.9343 85.8895 48.6341V45.4811C85.5892 45.6313 85.2889 45.6313 84.8385 45.6313C84.2379 45.6313 83.7875 45.4811 83.6374 45.331C83.4872 45.0307 83.3371 44.7304 83.3371 44.1299V37.5238H85.7393V34.3709H83.3371ZM92.3472 40.5265V45.1808H95.35C96.2508 45.1808 96.8514 45.0307 97.3018 44.5802C97.7522 44.1298 98.0525 43.6794 98.0525 42.9287C98.0525 41.2772 97.3018 40.5265 95.6503 40.5265H92.3472ZM92.3472 37.5237H94.7494C95.8004 37.5237 96.5511 37.3736 97.0015 36.9232C97.4519 36.6229 97.6021 36.0223 97.6021 35.2716C97.6021 34.5209 97.3018 33.9204 96.8514 33.47C96.401 33.1697 95.6503 32.8694 94.5993 32.8694H92.3472V37.5237ZM87.6929 48.7841V29.4162H94.7494C97.3018 29.4162 99.1035 29.8666 100.455 30.7675C101.806 31.6683 102.407 33.0195 102.407 34.8212C102.407 35.8722 102.106 36.6229 101.656 37.3736C101.205 38.1243 100.455 38.5747 99.5539 38.875C100.605 39.1752 101.356 39.6257 101.956 40.3764C102.557 41.127 102.707 42.0279 102.707 43.0789C102.707 45.0307 102.106 46.3819 100.905 47.4329C99.704 48.3337 97.9023 48.9343 95.5001 48.9343L87.6929 48.7841ZM109.612 44.7303C109.161 43.9796 109.011 43.0788 109.011 41.7275L108.861 40.8267C109.011 38.5746 109.762 37.5236 111.263 37.5236C112.915 37.5236 113.815 38.8749 113.815 41.4272V41.8777C113.815 44.43 113.065 45.6311 111.413 45.6311C110.663 45.6311 110.062 45.3309 109.612 44.7303ZM105.408 37.5236C104.807 38.7247 104.507 39.9259 104.507 41.4272V42.3281C104.507 44.43 105.258 46.0816 106.459 47.2827C107.66 48.4838 109.311 49.0843 111.413 49.0843C113.515 49.0843 115.317 48.4838 116.518 47.1325C117.869 45.7813 118.47 43.9796 118.47 41.7275V41.4272C118.47 39.1752 117.869 37.3735 116.668 36.0222C115.467 34.671 113.665 34.0704 111.563 34.0704C110.062 34.0704 108.861 34.3707 107.81 34.9713C106.759 35.5718 106.008 36.4727 105.408 37.5236ZM124.477 41.7275C124.477 43.0788 124.627 43.9796 125.078 44.7303C125.528 45.3309 126.129 45.6311 126.88 45.6311C128.531 45.6311 129.282 44.43 129.282 41.8777V41.4272C129.282 38.8749 128.381 37.5236 126.729 37.5236C125.228 37.5236 124.477 38.5746 124.327 40.8267L124.477 41.7275ZM119.973 41.4272C119.973 39.9259 120.273 38.7247 120.874 37.5236C121.475 36.4727 122.225 35.5718 123.276 34.9713C124.327 34.3707 125.528 34.0704 127.03 34.0704C129.132 34.0704 130.933 34.671 132.134 36.0222C133.336 37.3735 133.936 39.1752 133.936 41.4272V41.7275C133.936 43.9796 133.336 45.7813 131.984 47.1325C130.783 48.4838 128.982 49.0843 126.88 49.0843C124.778 49.0843 123.126 48.4838 121.925 47.2827C120.724 46.0816 119.973 44.43 119.973 42.3281V41.4272ZM140.393 44.7306L141.744 43.5295L144.897 48.7844H150.002L144.597 40.3766L149.702 34.371H144.296L140.843 38.5749L140.393 39.1755V28.3655H135.889V48.7844H140.393V44.7306Z" fill="#161E33"/>
</g>
<defs>
<clipPath id="clip0_4716_32748">
<rect width="150" height="80" fill="white"/>
</clipPath>
</defs>
</svg>
