<svg width="150" height="80" viewBox="0 0 150 80" fill="none" xmlns="http://www.w3.org/2000/svg">
<path fill-rule="evenodd" clip-rule="evenodd" d="M108.923 27.6766V37.4604H105.431V22.3146H108.923V24.2259H109.099C109.781 22.9861 111 22.015 113.19 22.015C116.269 22.015 117.87 23.9573 117.87 27.0774V37.4708H114.378V27.098C114.378 25.3107 113.665 24.1329 111.857 24.1329C110.049 24.1329 108.923 25.4347 108.923 27.6766ZM92.5893 29.8875C92.5893 33.8858 93.86 36.0967 96.1433 36.0967C98.4162 36.0967 99.6973 33.9168 99.6973 29.8875C99.6973 25.8582 98.4265 23.6783 96.1433 23.6783C93.86 23.6783 92.5893 25.8892 92.5893 29.8875ZM103.365 29.8875C103.365 34.2164 100.792 37.7704 96.1433 37.7704C91.4941 37.7704 88.9216 34.2267 88.9216 29.8875C88.9216 25.5586 91.4941 22.0046 96.1433 22.0046C100.792 22.0046 103.365 25.5586 103.365 29.8875ZM87.4649 32.832C87.4649 35.8591 85.3056 37.7704 81.3073 37.7704C77.7223 37.7704 75.3564 36.169 75.1808 33.5552L78.3216 32.646C78.6418 35.1565 79.6853 36.1587 81.6896 36.1587C83.5596 36.1587 84.6237 35.2805 84.6237 33.7308C84.6237 32.46 83.9109 31.8815 82.3508 31.4889L79.3857 30.7347C77.4847 30.2491 75.8007 28.8854 75.8007 26.3748C75.8007 23.4097 78.1666 22.015 81.452 22.015C84.7374 22.015 86.783 23.5027 87.1343 25.6206L84.1691 26.5298C84.0245 24.6185 82.9294 23.6163 81.1524 23.6163C79.644 23.6163 78.6418 24.3499 78.6418 25.5586C78.6418 26.5298 79.2617 27.191 80.6875 27.5629L83.5286 28.2861C85.5432 28.8027 87.4649 29.9805 87.4649 32.832ZM64.5807 27.6766V37.4604H61.0887V22.3146H64.5807V24.2259H64.7564C65.4383 22.9861 66.6574 22.015 68.8373 22.015C71.9161 22.015 73.5174 23.9573 73.5174 27.0774V37.4708H70.0357V27.098C70.0357 25.3107 69.3229 24.1329 67.5149 24.1329C65.7069 24.1329 64.5807 25.4347 64.5807 27.6766ZM49.3419 27.6766V37.4604H45.8499V16.25H49.3419V24.2156H49.5175C50.1994 22.9758 51.4185 22.0046 53.5984 22.0046C56.6772 22.0046 58.2786 23.9469 58.2786 27.067V37.4604H54.7866V27.098C54.7866 25.3107 54.0737 24.1329 52.276 24.1329C50.468 24.1329 49.3419 25.4347 49.3419 27.6766ZM32.9976 29.8875C32.9976 33.8858 34.2683 36.0967 36.5516 36.0967C38.8245 36.0967 40.1056 33.9168 40.1056 29.8875C40.1056 25.8582 38.8348 23.6783 36.5516 23.6783C34.2787 23.668 32.9976 25.8789 32.9976 29.8875ZM43.7732 29.8875C43.7732 34.2164 41.2007 37.7704 36.5516 37.7704C31.9024 37.7704 29.3299 34.2267 29.3299 29.8875C29.3299 25.5586 31.9024 22.0046 36.5516 22.0046C41.2007 22.015 43.7732 25.5586 43.7732 29.8875ZM27.2533 30.9516C27.2533 34.9189 25.3316 37.946 20.3829 37.946C15.4341 37.946 13.5125 34.9189 13.5125 30.9516V29.6499L17.1801 28.7097V31.6232C17.1801 34.3817 18.1306 35.9831 20.3726 35.9831C22.6248 35.9831 23.565 34.4643 23.565 31.9228V16.25H27.2326V30.9516H27.2533ZM128.543 62.2559V52.689C128.543 50.4987 129.669 49.2176 131.477 49.2176C133.285 49.2176 133.998 50.3747 133.998 52.1207V62.2559H137.5V52.0898C137.5 49.042 135.899 47.141 132.82 47.141C130.63 47.141 129.41 48.0915 128.729 49.3003H128.553V47.4303H125.051V62.2456H128.543V62.2559ZM112.188 54.8482C112.188 58.7639 113.459 60.9231 115.742 60.9231C118.025 60.9231 119.296 58.7845 119.296 54.8482C119.296 50.9016 118.025 48.7734 115.742 48.7734C113.459 48.7734 112.188 50.9326 112.188 54.8482ZM122.974 54.8586C122.974 59.0945 120.391 62.5658 115.742 62.5658C111.093 62.5658 108.51 59.0945 108.51 54.8586C108.51 50.6227 111.093 47.1513 115.742 47.1513C120.391 47.1513 122.974 50.6227 122.974 54.8586ZM107.064 57.7307C107.064 60.6958 104.894 62.5658 100.896 62.5658C97.3107 62.5658 94.9448 60.9955 94.7589 58.4436L97.8996 57.5551C98.2199 60.014 99.2634 60.9955 101.278 60.9955C103.148 60.9955 104.212 60.1379 104.212 58.6192C104.212 57.3691 103.499 56.8112 101.929 56.429L98.9638 55.6851C97.0628 55.2099 95.3788 53.8771 95.3788 51.4182C95.3788 48.5151 97.7447 47.1513 101.04 47.1513C104.336 47.1513 106.371 48.6081 106.733 50.6743L103.768 51.5628C103.623 49.6929 102.528 48.7217 100.751 48.7217C99.2427 48.7217 98.2302 49.4346 98.2302 50.6227C98.2302 51.5732 98.8501 52.2241 100.276 52.5753L103.117 53.2882C105.132 53.7841 107.064 54.9412 107.064 57.7307ZM84.1485 52.689V62.2662H80.6461V47.4406H84.1485V49.3106H84.3241C85.006 48.0915 86.2251 47.1513 88.4154 47.1513C91.4941 47.1513 93.0955 49.0523 93.0955 52.1001V62.2662H89.5931V52.1311C89.5931 50.3851 88.8803 49.228 87.0723 49.228C85.2746 49.2176 84.1485 50.4884 84.1485 52.689ZM68.889 52.689V62.2662H65.3866V41.5104H68.889V49.3106H69.0646C69.7465 48.0915 70.9656 47.1513 73.1558 47.1513C76.2346 47.1513 77.836 49.0523 77.836 52.1001V62.2662H74.3336V52.1311C74.3336 50.3851 73.6208 49.228 71.8128 49.228C70.0151 49.2176 68.889 50.4884 68.889 52.689ZM52.5343 54.8482C52.5343 58.7639 53.8051 60.9231 56.0883 60.9231C58.3716 60.9231 59.6423 58.7845 59.6423 54.8482C59.6423 50.912 58.3716 48.7734 56.0883 48.7734C53.8051 48.7734 52.5343 50.9326 52.5343 54.8482ZM63.3203 54.8482C63.3203 59.0841 60.7375 62.5555 56.0883 62.5555C51.4392 62.5555 48.8563 59.0841 48.8563 54.8482C48.8563 50.6124 51.4392 47.141 56.0883 47.141C60.7375 47.1513 63.3203 50.6124 63.3203 54.8482ZM46.7797 55.8917C46.7797 59.7763 44.858 62.7415 39.899 62.7415C34.9502 62.7415 33.0182 59.7763 33.0182 55.8917V54.621L36.6962 53.7015V56.5426C36.6962 59.2391 37.6467 60.8095 39.899 60.8095C42.1512 60.8095 43.1017 59.3321 43.1017 56.8422V41.5207H46.7797V55.8917ZM15.7544 55.8091C15.7544 58.268 17.5004 60.5822 20.3519 60.5822C21.6227 60.5822 23.0174 60.1069 24.2675 59.3631L17.5727 52.0484C16.4363 52.844 15.7544 54.2697 15.7544 55.8091ZM27.8112 53.7635C27.8112 51.3666 26.3338 49.9718 23.9266 49.9718C23.0897 49.9718 22.0876 50.1164 21.0544 50.5297L26.8607 56.9352C27.5116 55.9227 27.8112 54.8276 27.8112 53.7635ZM23.131 45.457C23.131 43.618 22.0979 42.6158 20.3416 42.6158C18.6265 42.6158 17.5314 43.5973 17.5314 45.3123C17.5314 46.2318 17.8517 46.9964 18.9881 48.2465L20.2589 49.6722C22.3045 48.7527 23.131 47.1513 23.131 45.457ZM30.3011 52.1621C30.3011 53.9701 29.3816 56.0467 27.7802 57.9373L31.5718 62.1112V62.2559H26.9227L25.1457 60.3342C22.9451 61.8736 20.5172 62.7311 18.4509 62.7311C14.8349 62.7311 12.5 60.1793 12.5 57.1315C12.5 54.8173 13.8328 52.565 16.7359 51.1703L16.7049 51.1083C14.9899 49.2383 14.3287 47.6989 14.3287 46.1595C14.3287 43.3184 16.3433 41.0351 20.4345 41.0351C23.9886 41.0351 26.0032 42.8121 26.0032 45.0644C26.0032 46.6348 25.0527 47.7609 22.8004 48.98L22.8624 49.0936C23.7819 48.7424 25.1767 48.3808 26.4164 48.3808C28.7823 48.4014 30.3011 49.9098 30.3011 52.1621Z" fill="#161E33"/>
</svg>
