<svg width="150" height="80" viewBox="0 0 150 80" fill="none" xmlns="http://www.w3.org/2000/svg">
<path fill-rule="evenodd" clip-rule="evenodd" d="M121.847 37.5196L117.157 37.5243L117.188 49.6072L121.851 49.6033L121.846 43.2766C121.837 41.5537 122.493 40.4798 124.255 40.5047C125.99 40.5359 126.336 41.6954 126.338 43.2984L126.343 49.5986L131.054 49.5947L131.034 42.1483C131.044 38.5842 129.208 37.0955 125.862 37.0986C124.12 37.1002 122.954 37.5188 121.849 39.0433L121.847 37.5196ZM98.323 30.042L93.6329 30.0459L93.6508 49.622L98.3409 49.6173L98.323 30.042ZM89.6813 41.0868L92.9271 41.0837L92.924 37.5461L89.6649 37.5484L89.6766 35.5282C89.6945 33.3555 91.3777 33.0489 92.9279 34.0147L92.9248 30.2389C88.7498 28.46 85.0557 31.4116 85.0402 35.9695L85.0409 37.5523L83.4114 37.5539L83.4145 41.0915L85.0448 41.0899L85.0526 49.6297L89.6766 49.6251L89.6813 41.0868ZM68.4461 37.5686L68.4321 44.8291C68.4563 48.9691 71.6834 50.0531 75.4794 50.0694C79.4147 50.0461 82.5546 49.6523 82.4971 44.8229L82.4901 37.5562L77.747 37.5601L77.7532 44.026C77.7548 45.8081 77.2785 46.6501 75.4763 46.6516C73.6343 46.6462 73.13 45.7458 73.1285 44.0299L73.1223 37.5648L68.4461 37.5686ZM38.6564 38.8145L38.6494 31.1299L33.4426 31.1346L33.4589 49.6834L38.7257 49.6788V41.6829L45.5099 49.6733L52.2272 49.6671L43.5457 39.9693L51.6132 31.1183L45.1006 31.1245L38.6564 38.8145ZM107.375 40.8658C109.025 40.8643 110.377 42.0751 110.378 43.5724C110.379 45.0626 109.029 46.2828 107.38 46.2843C105.724 46.2859 104.377 45.0688 104.376 43.577C104.376 42.0806 105.719 40.8666 107.375 40.8658ZM114.878 37.5266L110.254 37.5305L110.256 38.8223C109.128 37.7694 107.737 37.1484 106.147 37.1103C102.51 36.9749 99.5712 39.8791 99.5417 43.5762C99.5518 47.1925 102.476 50.0251 105.868 50.022C107.927 50.0204 109.45 49.1045 110.264 48.2695L110.266 49.6072L114.89 49.6033L114.878 37.5266ZM140.3 40.8355C141.95 40.8339 143.301 42.0455 143.303 43.5428C143.305 45.033 141.954 46.2532 140.305 46.2548C138.655 46.2563 137.302 45.0385 137.301 43.5475C137.3 42.051 138.65 40.837 140.3 40.8355ZM147.756 29.9969L143.152 30.0016L143.179 38.792C142.059 37.7399 140.661 37.1181 139.077 37.0799C135.434 36.9438 132.496 39.8487 132.466 43.5451C132.476 47.1621 135.406 49.9947 138.792 49.9916C140.851 49.9893 142.375 49.0741 143.189 48.2384L143.189 49.5768L147.774 49.5792L147.756 29.9969ZM58.7569 40.9102C60.4067 40.9086 61.7592 42.1195 61.7607 43.6167C61.7615 45.1077 60.4114 46.3271 58.7616 46.3287C57.1056 46.3302 55.7594 45.1132 55.7586 43.6214C55.757 42.1241 57.101 40.911 58.7569 40.9102ZM66.2594 37.571L61.6355 37.5749L61.6362 38.8667C60.5094 37.8146 59.111 37.1928 57.5274 37.1547C53.8902 37.0185 50.9455 39.9227 50.9152 43.6198C50.9315 47.236 53.8559 50.0686 57.2473 50.0655C59.3071 50.064 60.83 49.1481 61.644 48.3131L61.6456 49.6508L66.2696 49.6469L66.2594 37.571ZM33.4612 52.4265L147.743 52.323L147.746 55.0646L33.4636 55.1689L33.4612 52.4265ZM4.50883 27.1931L15.1941 27.183L15.2058 39.4853L4.5205 39.4947L4.50883 27.1931ZM16.6252 27.1814L29.3314 27.1697L16.6361 39.4838L16.6252 27.1814ZM16.6376 40.7024L29.3547 53.0522L16.6485 53.0647L16.6376 40.7024ZM4.52128 40.7732L15.2066 40.7639L15.2182 53.0654L4.53295 53.0756L4.52128 40.7732ZM2.79137 25.4655L30.6675 25.4398L30.694 54.5557L2.81783 54.5806L2.79137 25.4655ZM2.1875 24.8702L31.2629 24.8438L31.2909 55.1518L2.21551 55.1774L2.1875 24.8702Z" fill="#161E33"/>
</svg>
