<svg width="150" height="80" viewBox="0 0 150 80" fill="none" xmlns="http://www.w3.org/2000/svg">
<path d="M44.8242 32.8994C46.3428 32.8994 47.7107 33.1489 48.9238 33.6436C50.1326 34.1383 51.1738 34.8566 52.0342 35.79C52.8989 36.7279 53.5571 37.8592 54.0088 39.1885C54.4605 40.5221 54.6885 42.0197 54.6885 43.6846C54.6884 44.2092 54.5081 44.6091 54.1426 44.8887C53.7769 45.164 53.2607 45.3017 52.5811 45.3018H39.3301C39.5151 47.0011 40.0489 48.3308 40.9395 49.2686C42.0666 50.4559 43.723 51.0449 45.917 51.0449C46.6742 51.0449 47.5308 50.95 48.4814 50.7607C49.432 50.5714 50.3314 50.2452 51.1787 49.7764C51.7939 49.4236 52.3319 49.2725 52.8008 49.3154C53.2695 49.3586 53.6393 49.5269 53.9189 49.8193C54.1941 50.1119 54.3617 50.473 54.4219 50.8945C54.4822 51.3204 54.401 51.7506 54.1816 52.1895C53.9622 52.6282 53.5873 53.0065 53.0625 53.3291C52.0387 53.9702 50.8645 54.4484 49.5352 54.7539C48.2059 55.0593 46.971 55.2139 45.8311 55.2139C43.4047 55.2139 41.3178 54.7622 39.5625 53.8545C37.8074 52.9467 36.4566 51.66 35.5059 49.9951C34.5552 48.3259 34.082 46.3552 34.082 44.0752C34.0821 41.8556 34.5423 39.9109 35.4629 38.2461C36.3878 36.5813 37.6574 35.2739 39.2793 34.3232C40.9011 33.3725 42.7507 32.8994 44.8242 32.8994ZM68.6914 32.8994C70.2099 32.8994 71.5779 33.1489 72.791 33.6436C73.9999 34.1383 75.041 34.8566 75.9014 35.79C76.766 36.7279 77.4242 37.8592 77.876 39.1885C78.3277 40.5221 78.5557 42.0197 78.5557 43.6846C78.5556 44.2092 78.3754 44.6091 78.0098 44.8887C77.6441 45.164 77.1236 45.3017 76.4482 45.3018H63.1982C63.3832 47.0011 63.9118 48.3308 64.8066 49.2686C65.9338 50.4559 67.5902 51.0449 69.7842 51.0449C70.5414 51.0449 71.3979 50.95 72.3486 50.7607C73.2992 50.5714 74.1985 50.2452 75.0459 49.7764C75.6611 49.4236 76.1991 49.2724 76.668 49.3154C77.1367 49.3586 77.5066 49.5269 77.7861 49.8193C78.0614 50.1119 78.2288 50.473 78.2891 50.8945C78.3493 51.3204 78.2682 51.7506 78.0488 52.1895C77.8295 52.6282 77.4545 53.0065 76.9297 53.3291C75.9058 53.9701 74.7316 54.4484 73.4023 54.7539C72.073 55.0593 70.8383 55.2139 69.6982 55.2139C67.2719 55.2139 65.185 54.7622 63.4297 53.8545C61.6746 52.9467 60.3238 51.6599 59.373 49.9951C58.4224 48.3259 57.9492 46.3552 57.9492 44.0752C57.9493 41.8556 58.4096 39.9109 59.3301 38.2461C60.2551 36.5813 61.5247 35.2739 63.1465 34.3232C64.7683 33.3725 66.6179 32.8994 68.6914 32.8994ZM106.747 23.6074C107.625 23.6074 108.305 23.8397 108.787 24.3086C109.269 24.7775 109.509 25.4616 109.509 26.3691V36.5391C110.115 35.5626 110.912 34.7755 111.896 34.1904C113.256 33.386 114.797 32.9854 116.521 32.9854C118.243 32.9854 119.662 33.3082 120.772 33.9492C121.886 34.5945 122.717 35.5667 123.276 36.8701C123.831 38.1693 124.11 39.8132 124.11 41.8008V52.4092C124.11 53.3169 123.878 54.0094 123.409 54.4912C122.941 54.973 122.269 55.2139 121.392 55.2139C120.514 55.2138 119.834 54.973 119.353 54.4912C118.871 54.0094 118.629 53.317 118.629 52.4092V42.0625C118.629 40.3977 118.315 39.1843 117.688 38.4229C117.059 37.6617 116.087 37.2832 114.771 37.2832C113.162 37.2832 111.885 37.7912 110.934 38.7979C109.983 39.8044 109.509 41.142 109.509 42.8066V52.4092C109.509 54.2806 108.588 55.2139 106.747 55.2139C105.869 55.2138 105.199 54.9729 104.729 54.4912C104.261 54.0094 104.028 53.317 104.028 52.4092V26.3691C104.028 25.4615 104.261 24.7775 104.729 24.3086C105.199 23.8398 105.869 23.6075 106.747 23.6074ZM139.038 32.8994C141.258 32.8995 143.19 33.3511 144.824 34.2588C146.463 35.1622 147.732 36.4481 148.64 38.1172C149.547 39.7863 149.999 41.757 149.999 44.0371C149.999 45.7622 149.745 47.3113 149.233 48.6836C148.721 50.0558 147.982 51.2302 147.019 52.2109C146.054 53.1918 144.897 53.9363 143.555 54.4482C142.208 54.9557 140.703 55.2138 139.038 55.2139C136.818 55.2139 134.887 54.7622 133.251 53.8545C131.613 52.9467 130.338 51.6557 129.436 49.9736C128.528 48.2916 128.076 46.3122 128.076 44.0322C128.076 42.3074 128.33 40.7675 128.842 39.4082C129.354 38.0488 130.093 36.8822 131.058 35.9014C132.021 34.9205 133.178 34.1769 134.521 33.665C135.868 33.1574 137.374 32.8994 139.038 32.8994ZM21.1533 32.8555C23.5537 32.8555 25.7219 33.8271 27.292 35.4014C28.8666 36.9758 29.8388 39.1488 29.8389 41.5449C29.8389 41.5449 29.8389 52.726 29.8389 52.752C29.8389 54.0683 28.7035 55.2079 27.3828 55.208C26.0277 55.208 24.9258 54.107 24.9258 52.752V41.5068C24.9387 39.4247 23.2054 37.742 21.1533 37.7764C19.1013 37.7419 17.3713 39.429 17.3799 41.5068V52.752C17.3713 54.0856 16.2487 55.208 14.915 55.208C13.5815 55.2079 12.459 54.0856 12.459 52.752V41.5068C12.4719 39.4246 10.7377 37.7419 8.68555 37.7764C6.63361 37.7421 4.90448 39.4291 4.91309 41.5068V52.752C4.91309 54.107 3.81121 55.208 2.45605 55.208C1.1355 55.2078 0 54.0683 0 52.752V41.5449C6.73851e-05 39.1444 0.972372 36.9716 2.54688 35.4014C4.12134 33.8271 6.28955 32.8556 8.68555 32.8555C11.1291 32.8555 13.3411 33.866 14.9199 35.4922C16.4945 33.8661 18.7056 32.8555 21.1533 32.8555ZM91.501 32.8818C92.7872 32.8818 93.992 33.0192 95.1191 33.2988C96.2415 33.5784 97.3348 34.0088 98.3848 34.5938C98.8231 34.826 99.1236 35.1362 99.2832 35.5146C99.4418 35.893 99.477 36.2802 99.3916 36.6758C99.3051 37.0716 99.1287 37.425 98.8662 37.7305C98.6037 38.0401 98.2769 38.2297 97.8809 38.3027C97.4857 38.3759 97.0372 38.2938 96.543 38.0615C95.6393 37.597 94.7701 37.2612 93.9355 37.0547C93.1054 36.8526 92.3092 36.749 91.5479 36.749C90.1154 36.7491 89.0574 36.9995 88.3691 37.4941C87.6852 37.9932 87.3408 38.6515 87.3408 39.4688C87.3409 40.0837 87.5475 40.5954 87.9561 41.0039C88.3647 41.4169 88.9933 41.6926 89.8408 41.8389L94.2236 42.6738C96.1207 43.0266 97.5621 43.6673 98.5342 44.5879C99.5111 45.5214 100.002 46.7776 100.002 48.3564C100.002 50.4902 99.1673 52.1638 97.502 53.377C95.8375 54.5901 93.6135 55.1962 90.8389 55.1963C89.5827 55.1963 88.253 55.0632 86.8506 54.8008C85.4483 54.5384 84.1919 54.0867 83.082 53.4414C82.6174 53.1532 82.286 52.809 82.0967 52.4131C81.9074 52.0175 81.8341 51.6262 81.877 51.2305C81.92 50.8347 82.0669 50.4898 82.3164 50.1973C82.5615 49.9093 82.8839 49.7158 83.2793 49.6299C83.6256 49.5546 83.9985 49.6011 84.4004 49.7695L85.0088 50.0498C86.0136 50.4986 86.9655 50.8188 87.8613 51.0107C88.8852 51.2301 89.8919 51.3379 90.8857 51.3379C92.2922 51.3379 93.3332 51.0969 94.0215 50.6152C94.7055 50.1334 95.0498 49.4963 95.0498 48.709C95.0498 48.0379 94.8218 47.517 94.3701 47.1514C93.9142 46.7901 93.2343 46.5192 92.3311 46.3428L87.9473 45.5088C86.1363 45.1561 84.7554 44.4934 83.8047 43.5127C82.854 42.5362 82.3809 41.2704 82.3809 39.7217C82.3809 38.3195 82.7679 37.1067 83.542 36.083C84.3164 35.0634 85.3922 34.2718 86.7646 33.7168C88.1413 33.1618 89.72 32.8818 91.501 32.8818ZM139.043 37.0586C137.963 37.0586 137.012 37.3133 136.194 37.8252C135.377 38.337 134.74 39.1111 134.289 40.1475C133.837 41.1843 133.608 42.4796 133.608 44.0283C133.608 46.3385 134.103 48.0855 135.098 49.2686C136.091 50.4557 137.408 51.0449 139.043 51.0449C140.123 51.0448 141.072 50.7825 141.89 50.2578C142.707 49.7329 143.344 48.9498 143.795 47.9131C144.247 46.8763 144.476 45.5814 144.476 44.0283C144.476 41.688 143.981 39.9411 142.986 38.7881C141.993 37.6355 140.677 37.0587 139.043 37.0586ZM45.0479 36.624C43.8177 36.624 42.7725 36.9084 41.9121 37.4805C41.0518 38.0483 40.3936 38.8529 39.9375 39.8896C39.6492 40.5565 39.4597 41.3181 39.3564 42.1484H50.1074C50.0515 41.0945 49.866 40.1825 49.5391 39.4297C49.1475 38.5262 48.5754 37.8295 47.8311 37.3477C47.0868 36.8658 46.1577 36.624 45.0479 36.624ZM68.915 36.624C67.6848 36.624 66.6396 36.9084 65.7793 37.4805C64.9146 38.0483 64.2563 38.8529 63.8047 39.8896C63.5164 40.5565 63.3269 41.3181 63.2236 42.1484H73.9746C73.9187 41.0945 73.7333 40.1825 73.4062 39.4297C73.0148 38.5262 72.4425 37.8295 71.6982 37.3477C70.954 36.8659 70.025 36.624 68.915 36.624Z" fill="#161E33"/>
</svg>
