<svg width="136" height="80" viewBox="0 0 136 80" fill="none" xmlns="http://www.w3.org/2000/svg">
<g clip-path="url(#clip0_4723_32881)">
<path fill-rule="evenodd" clip-rule="evenodd" d="M136 20.877H1V59.4801H136V20.877ZM129.23 48.7007C129.453 48.7007 129.676 48.6602 129.939 48.5858L129.966 51.1298C129.068 51.623 127.981 51.9197 126.935 51.9197C124.687 51.9197 123.452 50.6101 123.229 48.5516C122.257 50.2728 120.536 51.9197 117.802 51.9197C115.365 51.9197 112.598 50.6033 112.598 47.0866C112.598 42.9286 116.607 41.9567 120.462 41.9567C121.4 41.9567 122.372 41.9905 123.236 42.1049V41.5451C123.236 39.8239 123.196 37.7649 120.462 37.7649C119.45 37.7649 118.666 37.8392 117.877 38.2508L117.33 40.1544L113.476 39.7428L114.137 35.8545C117.101 34.6602 118.592 34.3225 121.366 34.3225C124.998 34.3225 128.069 36.1991 128.069 40.0531V47.3911C128.069 48.3629 128.44 48.7007 129.23 48.7007ZM117.586 46.5269C117.586 47.614 118.113 48.4778 119.571 48.4778C121.292 48.4778 123.128 47.2425 123.243 44.4278C122.453 44.3197 121.589 44.2049 120.806 44.2049C119.085 44.2049 117.586 44.6908 117.586 46.5269ZM105.78 51.5491L113.084 25.7844H108.325L101.022 51.5491H105.78ZM95.9727 51.5491L103.276 25.7844H98.5243L91.2206 51.5491H95.9727ZM88.0552 34.6607H82.9991V40.7219H88.0552V34.6607ZM88.0552 45.4807H82.9991V51.5491H88.0552V45.4807ZM79.4621 45.6293L75.6418 45.2578L74.8587 47.877H69.391L78.7605 37.1984L78.3822 34.654H63.5523L62.9515 40.5733L66.435 40.9516L67.1839 38.3324H72.4624L63.1745 49.0042L63.6604 51.5491H78.4159L79.4621 45.6293ZM42.378 43.3479C42.378 38.4067 45.3746 34.3234 51.443 34.3234C57.5046 34.3234 60.4679 38.3999 60.4679 43.1187C60.4679 48.5115 56.5728 51.9202 51.1795 51.9202C45.9753 51.9202 42.378 48.7412 42.378 43.3479ZM47.3592 43.0439C47.3592 45.9666 48.7094 48.2143 51.3281 48.2143C53.8393 48.2143 55.4862 46.1896 55.4862 42.9701C55.4862 39.5609 53.6501 38.0289 51.3691 38.0289C48.8913 38.0289 47.3592 39.8582 47.3592 43.0439ZM40.2785 47.877H38.0375V40.1549C38.0375 36.1523 35.2629 34.3162 32.2326 34.3162C29.5728 34.3162 27.6629 35.7001 26.7244 37.9478C25.8944 35.4772 23.6535 34.3162 21.2167 34.3162C18.8609 34.3162 17.0992 35.4034 16.0863 37.1984V34.6535H9.01232V38.3256H11.2605V47.877H9.01232V51.5491H19.3063V47.877H16.0863V42.0045C16.0863 39.642 17.0249 37.9946 19.3469 37.9946C21.2568 37.9946 22.2291 39.1155 22.2291 42.0383V51.5491H29.3031V47.877H27.0554V42.0045C27.0554 39.642 27.9935 37.9946 30.3155 37.9946C32.2258 37.9946 33.1977 39.1155 33.1977 42.0383V51.5491H40.2785V47.877Z" fill="#161E33"/>
</g>
<defs>
<clipPath id="clip0_4723_32881">
<rect width="135" height="80" fill="white" transform="translate(0.5)"/>
</clipPath>
</defs>
</svg>
