<svg width="150" height="80" viewBox="0 0 150 80" fill="none" xmlns="http://www.w3.org/2000/svg">
<path fill-rule="evenodd" clip-rule="evenodd" d="M14.3569 22.5V32.2173L5.69627 23.5494L4.83868 22.691V23.9044V32.9474H1.24837H0.746094V33.4497V47.0816V47.5839H1.24837H4.83968V56.6842V57.8975L5.69728 57.0392L14.3569 48.3723V58.6642H15.3614V48.3282L24.0642 57.0392L24.9219 57.8976V56.6842V47.5839H28.5122H29.0144V47.0816V33.4497V32.9474H28.5122H24.9219V26.5182V23.9044V22.691L24.0642 23.5494L15.3614 32.2604V22.5H14.3569ZM5.84324 25.1177L13.6664 32.9474H5.84324V25.1177ZM1.75065 33.952H4.83868V33.954H5.34096H13.6665L4.9893 42.6394L4.98664 42.642L4.98663 42.6421L4.83973 42.7891L4.83968 42.9969V42.9971L4.8388 46.5793H1.75065V33.952ZM14.3569 34.6852L5.84424 43.205V55.4709L14.3569 46.951V34.6852ZM15.3835 46.9289V34.6641L23.9172 43.2049L23.9163 47.0815L23.9162 47.5839H23.9173V55.4708L15.3835 46.9289ZM24.9219 42.9972V46.5793H28.0099V33.952H24.9219V33.954H24.4196H16.0951L24.7525 42.6196L24.7749 42.642L24.7749 42.6421L24.9219 42.7891V42.9971V42.9972ZM23.9173 26.5182V32.9474H16.0951L23.9173 25.1178V26.5182ZM57.7106 33.0117C56.6367 33.6155 55.804 34.4734 55.2083 35.5874L55.2093 35.5864C54.6136 36.7015 54.3162 38.0124 54.3162 39.5233C54.3162 41.0342 54.6226 42.3461 55.2354 43.4612C55.8482 44.5762 56.7191 45.4351 57.8452 46.0369C58.9724 46.6386 60.2753 46.94 61.754 46.94C63.7189 46.94 65.2298 46.4598 66.2835 45.4974C67.3383 44.5361 68.0365 43.3979 68.3791 42.0859H65.8094C65.5201 42.9318 65.066 43.5918 64.4432 44.0679C63.8224 44.5441 62.9243 44.7822 61.753 44.7822C60.3094 44.7822 59.1602 44.3693 58.3043 43.5415C57.4484 42.7148 56.9753 41.5997 56.8849 40.1974H68.1068V38.58C68.1068 37.4127 67.8587 36.3388 67.3634 35.3584C66.8682 34.3789 66.1198 33.5924 65.1193 32.9987C64.1197 32.405 62.9253 32.1086 61.4827 32.1086C60.0402 32.1086 58.7825 32.41 57.7106 33.0117ZM64.4573 35.3031C65.0881 35.9963 65.4036 36.9526 65.4036 38.1752H56.912C57.0918 36.9175 57.583 35.9501 58.3857 35.276C59.1873 34.602 60.22 34.2654 61.4818 34.2654C62.8349 34.2654 63.8264 34.611 64.4573 35.3031ZM71.4781 34.7506V32.5125V32.5115H69.0421V46.5351H71.4761V38.58C71.4761 37.2671 71.7735 36.3238 72.3692 35.7482C72.9649 35.1726 73.866 34.8852 75.0745 34.8852H76.6165V32.4592H75.4271C73.5696 32.4592 72.4063 33.1966 71.9382 34.6703C71.9031 34.7778 71.8679 34.8491 71.8307 34.8852C71.7936 34.9214 71.7403 34.9395 71.668 34.9395C71.5414 34.9395 71.4781 34.8772 71.4781 34.7506ZM88.4201 46.1022C89.4387 45.5456 90.2684 44.7048 90.9083 43.5817C91.5483 42.4576 91.8687 41.1045 91.8687 39.5243C91.8687 37.9441 91.5483 36.59 90.9083 35.4669C90.2674 34.3428 89.4387 33.502 88.4201 32.9454C87.4014 32.3889 86.3055 32.1096 85.1341 32.1096C82.8267 32.1096 81.2033 33.0258 80.266 34.8601C80.1937 35.0028 80.1043 35.0751 79.9958 35.0751C79.8873 35.0751 79.8331 35.0209 79.8331 34.9134V32.5135H77.399V51.6574H79.8331V44.1342C79.8331 44.0268 79.8883 43.9725 79.9958 43.9725C80.1033 43.9725 80.1937 44.0448 80.266 44.1875C81.2033 46.0218 82.8267 46.938 85.1341 46.938C86.3055 46.938 87.4014 46.6587 88.4201 46.1022ZM84.5666 34.2644C86.0262 34.2644 87.2025 34.7275 88.0956 35.6537C88.9886 36.5799 89.4347 37.8698 89.4347 39.5233C89.4347 41.1768 88.9886 42.4667 88.0956 43.3929C87.2035 44.3201 86.0262 44.7822 84.5666 44.7822C83.1069 44.7822 81.9306 44.3191 81.0375 43.3929C80.1445 42.4677 79.817 41.1768 79.817 39.5233C79.817 37.8698 80.1445 36.5799 81.0375 35.6537C81.9296 34.7275 83.1069 34.2644 84.5666 34.2644ZM95.4007 46.5341V27.121H92.9667V46.5341H95.4007ZM97.4054 35.5854C97.4052 35.5858 97.405 35.5861 97.4048 35.5864V35.5854H97.4054ZM97.4054 35.5854H97.4058C96.8101 36.7005 96.5128 38.0114 96.5128 39.5223C96.5128 41.0332 96.8192 42.3451 97.432 43.4602C98.0447 44.5752 98.9157 45.4341 100.042 46.0359C101.169 46.6376 102.472 46.939 103.951 46.939C105.915 46.939 107.426 46.4588 108.48 45.4964C109.534 44.5351 110.233 43.3969 110.576 42.0849H108.006C107.717 42.9308 107.263 43.5908 106.64 44.0669C106.018 44.5431 105.121 44.7812 103.95 44.7812C102.506 44.7812 101.357 44.3683 100.501 43.5405C99.645 42.7138 99.1719 41.5987 99.0815 40.1964H110.303V38.579C110.303 37.4117 110.056 36.3378 109.56 35.3574C109.065 34.3779 108.316 33.5914 107.316 32.9977C106.316 32.404 105.12 32.1076 103.678 32.1076C102.237 32.1076 100.979 32.409 99.9072 33.0107C98.8336 33.6143 98 34.4719 97.4054 35.5854ZM106.654 35.3021C107.285 35.9953 107.6 36.9516 107.6 38.1742H99.1086C99.2894 36.9165 99.7796 35.9491 100.582 35.275C101.384 34.601 102.418 34.2644 103.678 34.2644C105.031 34.2644 106.023 34.61 106.654 35.3021ZM114.791 39.1175L109.22 45.9947H109.222V46.5341H111.954L116.388 40.8986L120.526 46.5341H123.149V45.9947L118.308 39.5233L123.554 33.078V32.5115H120.823L116.713 37.7422L112.898 32.5115H110.221V33.0509L114.791 39.1175ZM127.088 30.9825V27.9478H124.245V30.9825H127.088ZM124.505 46.5351H126.94V32.5125H124.505V46.5351ZM127.709 32.5125H127.707V32.5115H127.709V32.5125ZM127.709 32.5125V34.5668H130.356V41.9493C130.356 43.4963 130.736 44.6456 131.493 45.401C132.249 46.1574 133.403 46.5341 134.954 46.5341H136.847V44.3773H135.901C134.98 44.3773 134.299 44.3994 133.858 44.4446C133.416 44.4899 133.15 44.512 133.061 44.512C132.933 44.512 132.835 44.4768 132.762 44.4045C132.69 44.3331 132.655 44.2347 132.655 44.1081C132.655 44.0187 132.677 43.7535 132.722 43.3125C132.767 42.8715 132.791 42.1924 132.791 41.2763V34.5678H136.261L135.577 32.5125H132.791V28.7373H130.355V32.5125H127.709ZM138.792 32.5125H136.31V32.5135H136.312L140.979 46.5351H142.628C142.736 46.5351 142.817 46.5442 142.871 46.5623C142.926 46.5793 142.97 46.6245 143.006 46.6969C143.077 46.8064 143.069 46.9681 142.979 47.1831L142.221 49.2324C142.112 49.5016 141.905 49.6362 141.598 49.6362C141.49 49.6362 141.237 49.6141 140.841 49.5689C140.444 49.5237 139.931 49.5016 139.3 49.5016H137.325V51.6584H139.921C141.437 51.6584 142.348 51.4022 143.132 50.8899C143.916 50.3776 144.524 49.4745 144.957 48.1796L149.998 33.0519V32.5125H147.683L143.654 44.2769C143.6 44.4205 143.514 44.6114 143.238 44.6114C142.962 44.6114 142.876 44.4215 142.821 44.2769L138.792 32.5125ZM50.2809 46.1253C51.2995 45.5688 52.1293 44.7279 52.7692 43.6048C53.4091 42.4817 53.7295 41.1286 53.7295 39.5474C53.7295 37.9662 53.4091 36.6121 52.7692 35.489C52.1283 34.3659 51.2995 33.5251 50.2809 32.9685C49.2623 32.412 48.1663 32.1328 46.995 32.1328C44.6875 32.1328 43.0631 33.0489 42.1269 34.8832C42.0545 35.0259 41.9651 35.0982 41.8566 35.0982C41.7482 35.0982 41.6939 35.044 41.6939 34.9365V32.5366H39.2599V51.6805H41.6939V44.1573C41.6939 44.0499 41.7492 43.9956 41.8566 43.9956C41.9641 43.9956 42.0545 44.0679 42.1269 44.2106C43.0641 46.0449 44.6875 46.9611 46.995 46.9611C48.1663 46.9611 49.2623 46.6818 50.2809 46.1253ZM46.4274 34.2875C47.887 34.2875 49.0634 34.7506 49.9564 35.6768C50.8495 36.603 51.2955 37.8929 51.2955 39.5464C51.2955 41.1999 50.8495 42.4898 49.9564 43.416C49.0644 44.3432 47.887 44.8053 46.4274 44.8053C44.9678 44.8053 43.7914 44.3422 42.8984 43.416C42.0053 42.4908 41.6778 41.1999 41.6778 39.5464C41.6778 37.8929 42.0053 36.603 42.8984 35.6768C43.7904 34.7506 44.9678 34.2875 46.4274 34.2875Z" fill="#161E33"/>
</svg>
