<svg width="130" height="80" viewBox="0 0 130 80" fill="none" xmlns="http://www.w3.org/2000/svg">
<g clip-path="url(#clip0_4716_31476)">
<path d="M18.5189 49.8135C17.2722 47.3598 15.8097 44.8814 12.9569 44.8814C12.4116 44.8814 11.8669 44.9717 11.367 45.1999L10.3979 43.2603C11.5789 42.247 13.4873 41.4436 15.9404 41.4436C19.7565 41.4436 21.7149 43.2818 23.2697 45.6282C24.1927 43.6249 24.6314 40.9197 24.6314 37.5664C24.6314 29.1926 22.0126 24.8929 15.8955 24.8929C9.86752 24.8929 7.26301 29.1926 7.26301 37.5664C7.26301 45.896 9.86752 50.1515 15.8955 50.1515C16.8536 50.1515 17.7213 50.0462 18.5189 49.8135ZM20.0132 52.7359C18.6918 53.0901 17.2878 53.2858 15.8955 53.2858C7.8688 53.2858 0.00976562 46.8807 0.00976562 37.5664C0.00976562 28.1636 7.8688 21.7573 15.8955 21.7573C24.0568 21.7573 31.8404 28.1175 31.8404 37.5664C31.8404 42.8222 29.388 47.0933 25.8235 49.8538C26.9753 51.5795 28.1608 52.7255 29.8118 52.7255C31.6136 52.7255 32.3403 51.3332 32.4618 50.2412H34.8083C34.9454 51.6952 34.2181 57.7382 27.6603 57.7382C23.6883 57.7382 21.5881 55.4359 20.0132 52.7359ZM37.0007 44.7455V33.9778C37.0007 32.7513 36.5477 32.2066 35.1391 32.2066H33.6396V29.3453H43.4369V44.6097C43.4369 47.183 44.8298 48.3179 46.9508 48.3179C48.6914 48.3179 50.4328 47.5476 51.372 45.7894V33.9778C51.372 32.7513 50.9176 32.2066 49.5098 32.2066H47.9199V29.3453H57.8088V45.3344C57.8088 46.9269 58.399 47.6529 60.2158 47.6529H60.5343V50.6058L51.6905 52.0137V48.9705H51.5085C49.7977 51.0589 47.3901 52.4681 43.9524 52.4681C40.0908 52.4681 37.0007 50.5155 37.0007 44.7455ZM73.4002 49.6068C76.8835 49.6068 78.2068 46.5766 78.2764 40.4751C78.344 34.5069 76.8835 31.6177 73.4002 31.6177C70.3569 31.6177 68.4485 34.5082 68.4485 40.4751C68.4485 46.5779 70.3257 49.6068 73.4002 49.6068ZM73.4002 52.4681C67.1011 52.4681 61.4208 47.6516 61.4208 40.4751C61.4208 33.4331 66.964 28.7538 73.4002 28.7538C80.1087 28.7538 85.4848 33.5228 85.4848 40.4751C85.4848 47.6516 80.1087 52.4681 73.4002 52.4681ZM85.685 52.0137V49.1518H86.6392C89.0019 49.1518 89.2287 48.4706 89.2287 46.4264V33.9778C89.2287 32.7513 88.593 32.2066 87.1397 32.2066H85.8676V29.3453H94.8466L95.3009 34.0246H95.4836C96.4833 30.6615 99.1632 28.8897 101.676 28.8897C103.751 28.8897 105.371 30.0713 105.371 32.4646C105.371 34.1299 104.57 35.9024 102.328 35.9024C100.313 35.9024 99.9204 34.5387 98.2538 34.5387C96.7706 34.5387 95.6188 35.9479 95.6188 38.0214V46.4264C95.6188 48.4706 96.1193 49.1518 98.4365 49.1518H99.7534V52.0137H85.685ZM115.578 48.6825C118.441 48.6825 119.621 45.9721 119.621 43.248V39.6119C117.532 41.7764 112.67 41.8524 112.67 45.714C112.67 47.6068 113.792 48.6825 115.578 48.6825ZM119.758 48.6669C118.576 50.938 116.153 52.4681 112.762 52.4681C108.825 52.4681 106.281 50.377 106.281 46.6981C106.281 39.2947 116.593 41.2622 119.621 36.3568V35.8257C119.621 32.0558 118.137 31.4656 116.502 31.4656C111.913 31.4656 114.002 36.3997 109.778 36.3997C107.749 36.3997 106.961 35.1751 106.961 33.7971C106.961 31.0106 110.293 28.7538 116.548 28.7538C122.467 28.7538 126.103 30.3898 126.103 36.2807V45.6841C126.103 47.1375 126.633 47.9259 127.905 47.9259C128.45 47.9259 128.904 47.7745 129.252 47.532L130.01 49.378C129.388 50.3328 127.737 52.0137 124.602 52.0137C121.878 52.0137 120.166 50.7417 119.939 48.6669H119.758Z" fill="#161E33"/>
</g>
<defs>
<clipPath id="clip0_4716_31476">
<rect width="130" height="80" fill="white"/>
</clipPath>
</defs>
</svg>
