<svg width="150" height="80" viewBox="0 0 150 80" fill="none" xmlns="http://www.w3.org/2000/svg">
<path d="M75.4122 39.4851C75.0908 40.1114 74.9346 40.7952 74.9346 41.5326C74.9346 42.27 75.095 42.954 75.4122 43.5801C75.7294 44.2064 76.1745 44.6966 76.747 45.0591C77.3154 45.4217 77.9663 45.603 78.6874 45.603C79.4085 45.603 80.0222 45.4547 80.5369 45.1539C81.0482 44.8532 81.4273 44.4493 81.6743 43.9386H84.8463C84.5663 44.7295 84.1583 45.4589 83.6312 46.118C83.1 46.777 82.4119 47.3085 81.567 47.7164C80.7186 48.1242 79.7339 48.3261 78.6048 48.3261C77.3732 48.3261 76.2447 48.0253 75.2229 47.4156C74.197 46.8059 73.3975 45.9861 72.8167 44.9437C72.2319 43.9056 71.9436 42.7686 71.9436 41.5326C71.9436 40.2967 72.236 39.1638 72.8167 38.1215C73.3975 37.0833 74.2011 36.2593 75.2229 35.6496C76.2447 35.0441 77.369 34.7391 78.6048 34.7391C79.7339 34.7391 80.7186 34.941 81.567 35.3489C82.4154 35.7526 83.1041 36.2882 83.6312 36.9474C84.1583 37.6065 84.5622 38.3357 84.8463 39.1267H81.6743C81.4273 38.6159 81.0482 38.212 80.5369 37.9113C80.0264 37.6107 79.4085 37.4624 78.6874 37.4624C77.9663 37.4624 77.3195 37.6477 76.747 38.0061C76.1745 38.3686 75.7294 38.8589 75.4122 39.4851ZM88.3239 39.7284C88.5502 39.0156 88.9665 38.4224 89.5679 37.9569C90.1651 37.4913 90.9771 37.2566 91.9989 37.2566C92.6374 37.2566 93.2099 37.3801 93.7328 37.6272C94.2523 37.8744 94.6768 38.2122 95.0147 38.6448C95.3477 39.0734 95.5789 39.5635 95.6979 40.1115H88.2124C88.2454 39.9837 88.2826 39.856 88.3239 39.7284ZM98.1289 44.6474C98.2149 44.4332 98.2975 44.2188 98.3677 44.0006H95.4633C95.3725 44.1736 95.2651 44.3343 95.1461 44.4908C94.8083 44.9234 94.3837 45.2611 93.8649 45.5084C93.3454 45.7556 92.8225 45.8214 92.1881 45.8214C91.467 45.8214 90.7872 45.6525 90.1528 45.3187C89.5142 44.9809 89.0078 44.532 88.6163 43.9552C88.2826 43.4649 88.0851 42.9211 88.0273 42.3321H98.6353C98.7055 40.9232 98.4915 39.6376 98.0009 38.4842H97.9968C97.5028 37.3307 96.7445 36.4201 95.7227 35.7486C94.7009 35.0772 93.4775 34.7434 92.0518 34.7434C90.7665 34.7434 89.5968 35.0483 88.5502 35.654C87.5037 36.2637 86.68 37.0834 86.0787 38.1134C85.4773 39.1475 85.1807 40.2804 85.1807 41.5122C85.1807 41.7924 85.1966 42.0642 85.2296 42.3321C85.3287 43.2714 85.6087 44.1447 86.0663 44.9604C86.6553 46.011 87.4837 46.8431 88.5502 47.4612C89.6174 48.075 90.8284 48.3881 92.1839 48.3881C93.6096 48.3881 94.833 48.0543 95.8548 47.3829C96.8766 46.7114 97.6349 45.8008 98.1289 44.6474ZM62.6282 43.5966C62.2656 44.2311 61.7836 44.7337 61.1739 45.1044H61.1822C60.5724 45.4752 59.901 45.6566 59.1592 45.6566C58.4178 45.6566 57.7463 45.4752 57.1365 45.1044C56.5267 44.7337 56.0447 44.2311 55.6823 43.5966C55.3197 42.9621 55.1385 42.3195 55.1385 41.5614C55.1385 40.8034 55.3157 40.1154 55.6658 39.4893C56.016 38.8631 56.5022 38.3727 57.12 38.0103C57.738 37.6477 58.4137 37.4664 59.1552 37.4664C59.8968 37.4664 60.5765 37.6518 61.1904 38.0103C61.8083 38.3727 62.2944 38.8631 62.6446 39.4893C62.9948 40.1154 63.1719 40.8365 63.1719 41.5614C63.1719 42.2865 62.9907 42.9621 62.6282 43.5966ZM62.7065 35.6578C61.6393 35.0441 60.457 34.735 59.1511 34.735C57.8451 34.735 56.6628 35.0441 55.5957 35.6578C54.5287 36.2799 53.6966 37.1121 53.0868 38.1585C52.4811 39.2091 52.1765 40.3378 52.1765 41.5574C52.1765 42.7767 52.4728 43.9097 53.0621 44.956C53.6513 46.0067 54.4794 46.8431 55.5462 47.4568H55.5422C56.6092 48.0707 57.8163 48.3797 59.1511 48.3797C60.4859 48.3797 61.6889 48.0666 62.7559 47.4403C63.8229 46.8142 64.6509 45.9819 65.2401 44.9397C65.8293 43.9014 66.1258 42.7767 66.1258 41.5574C66.1258 40.3378 65.8251 39.2049 65.2155 38.1585C64.61 37.1081 63.7734 36.2717 62.7065 35.6578ZM67.5642 34.9782H70.4684V48.1409H67.5642V34.9782ZM107.348 29.1116H108.226V31.5959H107.546C106.895 31.5959 106.376 31.777 105.993 32.1396C105.61 32.5022 105.35 33.0584 105.222 33.8163L105.019 34.9782H108.226V37.4873H104.58L102.714 48.1407H102.708L102.5 49.3272C102.249 50.7361 101.685 51.7949 100.807 52.4953H100.811C99.9296 53.1999 98.8541 53.5541 97.5853 53.5541C96.6337 53.5541 95.9745 53.5458 95.6037 53.5293L96.0406 51.0453H97.3878C98.0388 51.0453 98.5576 50.8638 98.9408 50.5014C99.3241 50.1389 99.5835 49.5826 99.7115 48.8245L101.697 37.4873H99.5456V34.9782H102.136L102.433 33.3138C102.681 31.9049 103.245 30.846 104.127 30.1456L104.122 30.1416C105 29.437 106.08 29.1116 107.348 29.1116ZM54.8218 29.1116L46.945 48.1407H43.7728L35.8958 29.1116H39.1998L45.4248 44.5322L51.6497 29.1116H54.8218ZM150 34.9782L145.139 48.1409H142.234L139.05 38.8269L135.865 48.1409H132.961L128.099 34.9782H131.123L134.481 44.5485L137.707 34.9782H140.537L143.738 44.5485L147.12 34.9782H150ZM110.158 29.1116H113.063V48.1407H110.158V29.1116ZM125.056 43.5966C124.693 44.2311 124.212 44.7337 123.601 45.1044H123.61C123 45.4752 122.328 45.6566 121.587 45.6566C120.846 45.6566 120.174 45.4752 119.564 45.1044C118.955 44.7337 118.472 44.2311 118.11 43.5966C117.747 42.9621 117.566 42.3195 117.566 41.5614C117.566 40.8034 117.743 40.1154 118.093 39.4893C118.444 38.8631 118.933 38.3727 119.548 38.0103C120.166 37.6477 120.842 37.4664 121.583 37.4664C122.324 37.4664 123.004 37.6518 123.618 38.0103C124.236 38.3727 124.722 38.8631 125.072 39.4893C125.423 40.1154 125.6 40.8365 125.6 41.5614C125.6 42.2865 125.419 42.9621 125.056 43.5966ZM125.134 35.6578C124.067 35.0441 122.884 34.735 121.579 34.735C120.273 34.735 119.09 35.0441 118.023 35.6578C116.96 36.2799 116.124 37.1121 115.514 38.1585C114.909 39.2091 114.604 40.3378 114.604 41.5574C114.604 42.7767 114.901 43.9097 115.49 44.956C116.079 46.0067 116.907 46.8431 117.974 47.4568H117.97C119.037 48.0707 120.24 48.3797 121.579 48.3797C122.917 48.3797 124.121 48.0666 125.187 47.4403C126.255 46.8142 127.083 45.9819 127.672 44.9397C128.261 43.9014 128.558 42.7767 128.558 41.5574C128.558 40.3378 128.253 39.2049 127.643 38.1585C127.038 37.1081 126.201 36.2717 125.134 35.6578ZM67.5642 29.1116H70.4684V32.016H67.5642V29.1116ZM27.2882 42.71C27.5059 41.4184 27.6123 40.0308 27.6123 38.6481C27.6123 37.2656 27.5059 35.8777 27.2882 34.5863C29.3799 34.8952 30.9905 36.597 30.9905 38.6481C30.9905 40.6993 29.3799 42.4011 27.2882 42.71ZM25.2978 42.4922C23.9456 42.158 18.41 38.9013 18.1567 38.7595V38.5367C18.41 38.3949 23.9456 35.1384 25.2978 34.8041C25.4851 35.9082 25.6068 37.1895 25.6068 38.6481C25.6068 40.1067 25.4851 41.3882 25.2978 42.4922ZM23.4087 47.025C23.2669 47.1213 23.0948 47.101 22.9377 47.0199C22.102 46.5692 19.0583 41.8135 19.0583 41.6514L19.2051 41.4945C20.1168 42.1275 22.4313 43.7026 24.837 44.442C24.3963 45.845 23.8543 46.7262 23.4087 47.025ZM22.9377 30.2763C23.0948 30.1953 23.2669 30.175 23.4087 30.2712C23.8543 30.57 24.3963 31.4513 24.837 32.8542C22.4313 33.5937 20.1168 35.1687 19.2051 35.8018L19.0583 35.6448C19.0583 35.4828 22.102 30.727 22.9377 30.2763ZM14.8444 38.7595C14.5912 38.9013 9.05567 42.158 7.70339 42.4922C7.51589 41.3882 7.39438 40.1067 7.39438 38.6481C7.39438 37.1895 7.51589 35.9082 7.70339 34.8041C9.05567 35.1384 14.5912 38.3949 14.8444 38.5367V38.7595ZM10.0635 47.0199C9.90647 47.101 9.73424 47.1213 9.5925 47.025C9.1467 46.7262 8.60491 45.845 8.1642 44.442C10.5699 43.7026 12.8844 42.1275 13.7961 41.4945L13.943 41.6514C13.943 41.8135 10.8992 46.5692 10.0635 47.0199ZM9.5925 30.2712C9.73424 30.175 9.90647 30.1953 10.0635 30.2763C10.8992 30.727 13.943 35.4828 13.943 35.6448L13.7961 35.8018C12.8844 35.1687 10.5699 33.5937 8.1642 32.8542C8.60491 31.4513 9.1467 30.57 9.5925 30.2712ZM5.7129 42.71C3.6213 42.4011 2.01075 40.6993 2.01075 38.6481C2.01075 36.597 3.6213 34.8952 5.7129 34.5863C5.4951 35.8777 5.38875 37.2656 5.38875 38.6481C5.38875 40.0308 5.4951 41.4184 5.7129 42.71ZM26.8325 32.5351C26.0878 29.9724 24.837 28.1441 23.0948 28.1441C20.77 28.1441 17.5843 34.6724 17.5843 34.6724L17.3767 34.6267L17.4325 33.8925C17.4418 33.7518 17.4511 33.4634 17.4606 33.0999C17.506 31.3425 17.4866 29.5842 17.4074 27.8282L17.3385 26.2983C17.3372 26.2713 17.315 26.25 17.2878 26.25H15.7133C15.6862 26.25 15.6639 26.2713 15.6627 26.2983L15.5939 27.8282C15.5147 29.5842 15.4951 31.3425 15.5406 33.0999C15.5499 33.4634 15.5593 33.7518 15.5686 33.8925L15.6244 34.6267L15.4167 34.6724C15.4167 34.6724 12.2311 28.1441 9.90647 28.1441C8.1642 28.1441 6.91321 29.9724 6.16875 32.5351C2.7501 32.6466 0 35.3409 0 38.6481C0 41.9553 2.7501 44.6498 6.16875 44.7612C6.91321 47.3238 8.1642 49.1522 9.90647 49.1522C12.2311 49.1522 15.4167 42.6239 15.4167 42.6239L15.6244 42.6694L15.5686 43.4039C15.5593 43.5445 15.5499 43.8328 15.5406 44.1965C15.4951 45.9537 15.5147 47.7122 15.5939 49.4682L15.6627 50.9979C15.6639 51.025 15.6862 51.0464 15.7133 51.0464H17.2878C17.315 51.0464 17.3372 51.025 17.3385 50.9979L17.4074 49.4682C17.4866 47.7122 17.506 45.9537 17.4606 44.1965C17.4511 43.8328 17.4418 43.5445 17.4325 43.4039L17.3767 42.6694L17.5843 42.6239C17.5843 42.6239 20.77 49.1522 23.0948 49.1522C24.837 49.1522 26.0878 47.3238 26.8325 44.7612C30.2511 44.6498 33.001 41.9553 33.001 38.6481C33.001 35.3409 30.2511 32.6466 26.8325 32.5351Z" fill="#161E33"/>
</svg>
