<?xml version="1.0" encoding="UTF-8" standalone="no"?>
<svg
   width="63"
   height="20"
   viewBox="0 0 63 20"
   fill="none"
   version="1.1"
   id="svg1"
   xmlns="http://www.w3.org/2000/svg"
   xmlns:svg="http://www.w3.org/2000/svg">
  <g
     clip-path="url(#clip0_962_24240)"
     id="g1"
     transform="matrix(0.98666798,0,0,0.98666798,0.7208238,0.32199712)">
    <path
       d="M 6.02113,2.98145 H 10.2369 L 16.1908,17.3284 H 11.735 L 7.97055,7.8022 5.48336,14.0538 H 8.4411 l 1.18118,3.2746 H 0 Z M 21.1556,5.95841 c 0.4321,0 0.9027,0.03841 1.3732,0.15365 V 2.55892 h 3.726 V 16.6946 c -0.8547,0.3842 -2.6985,0.8547 -4.5423,0.8547 -3.3418,0 -6.2131,-1.9014 -6.2131,-5.6946 0,-3.79322 2.7656,-5.88669 5.6562,-5.88669 z m 0.4705,8.51789 c 0.3457,0 0.6242,-0.0672 0.9027,-0.1536 V 9.11782 c -0.2785,-0.10563 -0.557,-0.15365 -0.9219,-0.15365 -1.2196,0 -2.3527,0.90269 -2.3527,2.80413 0,1.9014 1.1523,2.6984 2.3719,2.6984 z M 32.8905,5.95841 c 3.1018,0 5.7427,2.09347 5.7427,5.78109 0,3.6875 -2.6313,5.781 -5.7427,5.781 -3.1114,0 -5.7618,-2.0935 -5.7618,-5.781 0,-3.68762 2.612,-5.78109 5.7618,-5.78109 z m 0,8.46029 c 1.066,0 2.0551,-0.8547 2.0551,-2.6792 0,-1.82463 -0.9891,-2.6793 -2.0551,-2.6793 -1.0659,0 -2.0358,0.85467 -2.0358,2.6793 0,1.8245 0.9219,2.6792 2.0358,2.6792 z M 39.5262,2.55892 h 3.7453 v 3.55314 c 0.4513,-0.08643 0.9218,-0.15365 1.3924,-0.15365 2.9097,0 5.6082,1.90141 5.6082,5.62739 0,3.9373 -2.8713,5.9347 -6.2708,5.9347 -1.4597,0 -3.3227,-0.2977 -4.4751,-0.8355 V 2.54932 Z m 4.5615,11.89818 c 1.2868,0 2.4584,-0.9219 2.4584,-2.8233 0,-1.77655 -1.1524,-2.61201 -2.4008,-2.61201 -0.3457,0 -0.6242,0.03841 -0.8738,0.15365 v 5.13766 c 0.2112,0.0864 0.4897,0.1536 0.8162,0.1536 z M 56.6293,5.95841 c 2.8041,0 5.3777,1.79577 5.3777,5.41609 0,0.4898 -0.0192,0.9603 -0.0864,1.4309 h -6.9814 c 0.3841,1.2676 1.4981,1.863 2.8905,1.863 1.1332,0 2.1799,-0.2785 3.3611,-0.7875 v 2.8522 c -1.0948,0.5569 -2.4008,0.7874 -3.7452,0.7874 -3.5532,0 -6.3188,-2.1415 -6.3188,-5.781 0,-3.63961 2.5064,-5.78109 5.5025,-5.78109 z m 1.8822,4.51349 c -0.192,-1.21964 -1.0083,-1.7094 -1.8438,-1.7094 -0.8354,0 -1.5172,0.51857 -1.7957,1.7094 z"
       fill="#cad0e5"
       id="path1" />
  </g>
  <defs
     id="defs1">
    <clipPath
       id="clip0_962_24240">
      <rect
         width="62.1875"
         height="20"
         fill="#ffffff"
         id="rect1"
         x="0"
         y="0" />
    </clipPath>
  </defs>
</svg>
