<svg width="73" height="27" viewBox="0 0 73 27" fill="none" xmlns="http://www.w3.org/2000/svg">
<path d="M72.9039 15.382H63.883C63.8759 15.467 63.8759 15.5485 63.883 15.6336C64.3082 16.8701 65.1125 17.7063 66.4341 17.9295C67.7557 18.1528 69.0029 17.9295 69.8674 16.7178C69.9489 16.5973 70.0764 16.5158 70.2217 16.4946H72.6098C72.4822 18.6453 69.5024 20.4771 66.5333 20.2539C63.3692 19.9988 61.0059 17.228 61.261 14.0604C61.261 14.0214 61.2681 13.9825 61.2717 13.9435C61.5658 10.2551 64.1983 8.09727 67.9576 8.47284C71.1925 8.79527 73.2972 11.7007 72.9039 15.382ZM63.9255 13.0683H70.2855C69.9312 11.566 68.6521 10.6554 66.9478 10.6909C65.4526 10.7228 64.1664 11.7326 63.9255 13.0683Z" fill="#CAD0E5"/>
<path d="M8.86068 5.77287C9.34609 5.75516 9.79962 5.99964 10.0547 6.41419C12.4889 9.91838 14.9195 13.4261 17.3395 16.9338C17.8178 17.5681 17.6938 18.468 17.0631 18.9499C17.0383 18.9676 17.0135 18.9853 16.9852 19.003C16.3049 19.4601 15.3801 19.2759 14.9266 18.5956C14.9159 18.5779 14.9053 18.5637 14.8947 18.546C13.2188 16.1366 11.5535 13.7237 9.89882 11.3108L9.79962 11.1904C9.1335 10.2443 8.47447 10.2443 7.82607 11.1904C6.13598 13.6139 4.44944 16.0445 2.76289 18.4787C2.5255 18.8897 2.11095 19.166 1.64325 19.2334C1.0728 19.3219 0.50944 19.0491 0.225987 18.546C-0.0964409 18.0464 -0.0716388 17.398 0.286221 16.9232C1.09406 15.7504 1.91253 14.5812 2.72746 13.4084C4.33606 11.1018 5.94111 8.79165 7.54616 6.48151C7.82253 6.02444 8.32566 5.75516 8.86068 5.77287Z" fill="#CAD0E5"/>
<path d="M34.4676 20.0732H32.0582V19.1484C31.9732 19.1484 31.9307 19.1484 31.9059 19.1768C30.1272 20.5373 27.7072 20.7003 25.7656 19.5842C23.6822 18.4859 22.7999 16.5761 22.8247 14.2695C22.846 11.6511 24.281 9.49685 26.5521 8.77758C28.43 8.17879 30.2618 8.24257 31.9023 9.52165C31.9519 9.54999 32.0086 9.57125 32.0653 9.58188V8.6394H34.4853L34.4676 20.0732ZM25.2872 14.3793C25.2872 14.5175 25.2872 14.7336 25.3262 14.9817C25.4715 16.6222 26.8037 17.9048 28.4513 17.9898C30.0457 18.1953 31.548 17.182 31.9484 15.623C32.0547 15.2403 32.1149 14.847 32.1291 14.4502C32.2318 11.8743 30.3327 10.2409 27.8773 10.7653C26.3325 11.0984 25.3191 12.4873 25.2872 14.3793Z" fill="#CAD0E5"/>
<path d="M56.4967 10.8575H50.5477V8.64307H59.8556V10.5705C59.8556 10.7087 59.7068 10.854 59.604 10.9745C57.7793 13.1181 55.951 15.2617 54.1263 17.3982C54.0377 17.501 53.9562 17.6073 53.8216 17.7773H59.845V20.0485H50.4414V18.1139C50.4414 17.9864 50.5725 17.8517 50.6682 17.7384L56.2451 11.1906C56.3124 11.1127 56.3727 11.0241 56.4967 10.8575Z" fill="#CAD0E5"/>
<path d="M39.6973 20.1692H37.2773V8.71065H39.6973V9.94368C40.3386 9.55747 40.9374 9.13229 41.5894 8.81695C42.2909 8.5335 43.0527 8.43783 43.8039 8.54058V10.8897C43.6798 10.8897 43.5594 10.9145 43.4495 10.9145C41.5575 10.9358 40.2394 11.9987 39.8426 13.8695C39.7505 14.3266 39.708 14.7907 39.7115 15.2549V19.698L39.6973 20.1692Z" fill="#CAD0E5"/>
<path d="M45.8633 8.61816H48.2514V20.0732H45.8633V8.61816Z" fill="#CAD0E5"/>
<path d="M8.7963 19.3613C9.77421 19.34 10.5821 20.1195 10.6033 21.0974C10.6033 21.101 10.6033 21.108 10.6033 21.1116C10.6104 22.0966 9.81673 22.9009 8.83173 22.9044C7.84673 22.9115 7.04244 22.1178 7.03535 21.1364C7.02118 20.1726 7.79004 19.3754 8.75378 19.3613C8.76796 19.3613 8.77859 19.3613 8.79276 19.3613H8.7963Z" fill="#CAD0E5"/>
<path d="M48.7415 5.4366C48.7592 6.36845 48.0187 7.13732 47.0868 7.15503C47.0833 7.15503 47.0762 7.15503 47.0727 7.15503C46.1337 7.20464 45.3294 6.48183 45.2834 5.54289C45.2373 4.60395 45.953 3.8032 46.8955 3.75005C46.9451 3.75005 46.9982 3.75005 47.0478 3.75005C47.9762 3.74296 48.7344 4.48703 48.7415 5.41534C48.7415 5.42242 48.7415 5.42951 48.7415 5.4366Z" fill="#CAD0E5"/>
</svg>
