<svg width="40" height="40" viewBox="0 0 40 40" fill="none" xmlns="http://www.w3.org/2000/svg">
<g clip-path="url(#clip0_369_1534)">
<path d="M11.2712 18.5563C11.2712 19.0485 11.3244 19.4476 11.4176 19.7403C11.524 20.033 11.6571 20.3523 11.8433 20.6982C11.9098 20.8046 11.9364 20.9111 11.9364 21.0042C11.9364 21.1373 11.8566 21.2703 11.6837 21.4033L10.8455 21.9621C10.7258 22.0419 10.606 22.0818 10.4996 22.0818C10.3666 22.0818 10.2335 22.0153 10.1005 21.8956C9.91421 21.696 9.75456 21.4832 9.62152 21.2703C9.48848 21.0441 9.35544 20.7913 9.20909 20.4854C8.17137 21.7093 6.86756 22.3213 5.29768 22.3213C4.18013 22.3213 3.28875 22.002 2.63685 21.3634C1.98495 20.7248 1.65234 19.8734 1.65234 18.809C1.65234 17.6782 2.05147 16.7602 2.86302 16.0684C3.67457 15.3766 4.75221 15.0307 6.12253 15.0307C6.57487 15.0307 7.04052 15.0706 7.53277 15.1371C8.02502 15.2036 8.53058 15.31 9.06275 15.4298V14.4586C9.06275 13.4475 8.84988 12.7423 8.43745 12.3299C8.01172 11.9175 7.2933 11.7179 6.26888 11.7179C5.80323 11.7179 5.32428 11.7711 4.83203 11.8909C4.33978 12.0106 3.86083 12.157 3.39519 12.3432C3.18232 12.4363 3.02267 12.4896 2.92954 12.5162C2.83641 12.5428 2.76989 12.5561 2.71667 12.5561C2.53042 12.5561 2.43729 12.423 2.43729 12.1437V11.4918C2.43729 11.2789 2.4639 11.1192 2.53042 11.0261C2.59694 10.933 2.71667 10.8399 2.90293 10.7467C3.36858 10.5073 3.92735 10.3077 4.57925 10.148C5.23116 9.97509 5.92297 9.89526 6.6547 9.89526C8.23789 9.89526 9.39535 10.2545 10.1404 10.9729C10.8721 11.6913 11.2446 12.7823 11.2446 14.2457V18.5563H11.2712ZM5.86975 20.5785C6.30879 20.5785 6.76113 20.4987 7.24008 20.339C7.71903 20.1794 8.14476 19.8867 8.50397 19.4875C8.71684 19.2348 8.87649 18.9554 8.95631 18.6361C9.03614 18.3168 9.08935 17.931 9.08935 17.4786V16.9198C8.70353 16.8267 8.29111 16.7469 7.86537 16.6937C7.43964 16.6405 7.02721 16.6138 6.61479 16.6138C5.72341 16.6138 5.07151 16.7868 4.63247 17.146C4.19343 17.5052 3.98057 18.0108 3.98057 18.676C3.98057 19.3013 4.14022 19.7669 4.47282 20.0862C4.79212 20.4188 5.25776 20.5785 5.86975 20.5785ZM16.553 22.0153C16.3135 22.0153 16.1538 21.9754 16.0474 21.8823C15.941 21.8025 15.8479 21.6162 15.768 21.3634L12.6416 11.0793C12.5617 10.8132 12.5218 10.6403 12.5218 10.5472C12.5218 10.3343 12.6283 10.2146 12.8411 10.2146H14.1449C14.3977 10.2146 14.5707 10.2545 14.6638 10.3476C14.7702 10.4274 14.85 10.6137 14.9299 10.8665L17.165 19.6738L19.2404 10.8665C19.3069 10.6004 19.3868 10.4274 19.4932 10.3476C19.5996 10.2678 19.7859 10.2146 20.0253 10.2146H21.0897C21.3425 10.2146 21.5154 10.2545 21.6218 10.3476C21.7283 10.4274 21.8214 10.6137 21.8746 10.8665L23.9767 19.7802L26.2783 10.8665C26.3581 10.6004 26.4512 10.4274 26.5444 10.3476C26.6508 10.2678 26.8238 10.2146 27.0632 10.2146H28.3005C28.5134 10.2146 28.6331 10.321 28.6331 10.5472C28.6331 10.6137 28.6198 10.6802 28.6065 10.76C28.5932 10.8399 28.5666 10.9463 28.5134 11.0926L25.3071 21.3767C25.2273 21.6428 25.1341 21.8158 25.0277 21.8956C24.9213 21.9754 24.7483 22.0286 24.5221 22.0286H23.378C23.1252 22.0286 22.9523 21.9887 22.8458 21.8956C22.7394 21.8025 22.6463 21.6295 22.593 21.3634L20.5309 12.7823L18.4821 21.3501C18.4156 21.6162 18.3357 21.7892 18.2293 21.8823C18.1229 21.9754 17.9366 22.0153 17.6971 22.0153H16.553ZM33.6488 22.3745C32.957 22.3745 32.2652 22.2947 31.5999 22.1351C30.9347 21.9754 30.4159 21.8025 30.07 21.6029C29.8571 21.4832 29.7108 21.3501 29.6575 21.2304C29.6043 21.1106 29.5777 20.9776 29.5777 20.8579V20.1794C29.5777 19.9 29.6842 19.7669 29.8837 19.7669C29.9635 19.7669 30.0434 19.7802 30.1232 19.8068C30.203 19.8334 30.3227 19.8867 30.4558 19.9399C30.9081 20.1394 31.4004 20.2991 31.9192 20.4055C32.4514 20.512 32.9703 20.5652 33.5024 20.5652C34.3406 20.5652 34.9925 20.4188 35.4448 20.1261C35.8972 19.8334 36.1367 19.4077 36.1367 18.8622C36.1367 18.4897 36.0169 18.1837 35.7774 17.931C35.538 17.6782 35.0856 17.452 34.4337 17.2391L32.5046 16.6405C31.5334 16.3345 30.815 15.8821 30.376 15.2834C29.9369 14.6981 29.7108 14.0461 29.7108 13.3543C29.7108 12.7956 29.8305 12.3033 30.07 11.8776C30.3094 11.4518 30.6287 11.0793 31.0279 10.7866C31.427 10.4806 31.8793 10.2545 32.4115 10.0948C32.9437 9.93517 33.5024 9.86865 34.0878 9.86865C34.3805 9.86865 34.6865 9.88196 34.9792 9.92187C35.2852 9.96178 35.5646 10.015 35.844 10.0682C36.11 10.1347 36.3628 10.2013 36.6023 10.2811C36.8418 10.3609 37.028 10.4407 37.1611 10.5206C37.3473 10.627 37.4804 10.7334 37.5602 10.8532C37.64 10.9596 37.6799 11.1059 37.6799 11.2922V11.9175C37.6799 12.1969 37.5735 12.3432 37.3739 12.3432C37.2675 12.3432 37.0946 12.29 36.8684 12.1836C36.11 11.8377 35.2586 11.6647 34.314 11.6647C33.5557 11.6647 32.957 11.7844 32.5445 12.0372C32.1321 12.29 31.9192 12.6758 31.9192 13.2213C31.9192 13.5938 32.0523 13.9131 32.3184 14.1659C32.5845 14.4187 33.0767 14.6714 33.7818 14.8976L35.671 15.4963C36.6289 15.8023 37.3207 16.228 37.7331 16.7735C38.1456 17.319 38.3451 17.9443 38.3451 18.6361C38.3451 19.2082 38.2254 19.727 37.9992 20.1794C37.7598 20.6317 37.4405 21.0308 37.028 21.3501C36.6156 21.6827 36.1233 21.9222 35.5513 22.0951C34.9526 22.2814 34.3273 22.3745 33.6488 22.3745Z" fill="#CAD0E5"/>
<path fill-rule="evenodd" clip-rule="evenodd" d="M36.1649 28.8403C31.7878 32.0732 25.4285 33.7895 19.9605 33.7895C12.2973 33.7895 5.39243 30.9557 0.177213 26.246C-0.235215 25.8735 0.137301 25.368 0.629554 25.6607C6.27051 28.9335 13.2286 30.9158 20.4261 30.9158C25.2821 30.9158 30.6171 29.9047 35.5263 27.8292C36.258 27.4966 36.8833 28.3082 36.1649 28.8403Z" fill="#CAD0E5"/>
<path fill-rule="evenodd" clip-rule="evenodd" d="M37.987 26.7646C37.4282 26.0462 34.2884 26.4187 32.8649 26.5916C32.4392 26.6449 32.3726 26.2723 32.7585 25.993C35.2596 24.2368 39.3706 24.7424 39.8496 25.3278C40.3285 25.9264 39.7165 30.0374 37.375 32.0064C37.0158 32.3124 36.6699 32.1528 36.8295 31.7536C37.3617 30.4365 38.5458 27.4697 37.987 26.7646Z" fill="#CAD0E5"/>
</g>
<defs>
<clipPath id="clip0_369_1534">
<rect width="40" height="40" fill="white"/>
</clipPath>
</defs>
</svg>
