<svg width="68" height="40" viewBox="0 0 68 40" fill="none" xmlns="http://www.w3.org/2000/svg">
<g clip-path="url(#clip0_369_1604)">
<path fill-rule="evenodd" clip-rule="evenodd" d="M2.42552 9.56975H5.66896C7.65596 9.56975 8.41222 10.2743 8.41222 11.5183C8.41222 13.1505 7.36114 13.671 5.64977 13.671H2.42552V9.56975ZM0.640625 21.3593H6.32924C9.25831 21.3593 10.8223 19.5594 10.8223 17.4231C10.8223 15.1385 9.29344 14.5275 8.42816 14.1721C9.88309 13.4869 10.1971 12.2623 10.1971 11.3897C10.1971 9.57011 8.92509 8.02881 6.46036 8.02881H0.640625V21.3593ZM2.42552 15.1382H5.94459C7.39953 15.1382 9.03737 15.5096 9.03737 17.384C9.03737 18.8705 8.0982 19.8176 6.23942 19.8176H2.42552V15.1382ZM13.7995 14.6016C13.9085 13.8584 14.1682 12.7239 16.0078 12.7239C17.5366 12.7239 18.2737 13.2828 18.2737 14.3043C18.2737 15.2675 17.8122 15.4161 17.4276 15.4548L14.7579 15.7879C12.0693 16.1239 11.8288 18.0177 11.8288 18.8322C11.8288 20.5061 13.0816 21.6372 14.8477 21.6372C16.7257 21.6372 17.7032 20.7457 18.328 20.0605C18.3823 20.8034 18.6036 21.5441 20.0426 21.5441C20.4113 21.5441 20.6482 21.4341 20.9242 21.3596V20.1704C20.7417 20.2088 20.5396 20.2449 20.3922 20.2449C20.0589 20.2449 19.8568 20.0765 19.8568 19.6693V14.0812C19.8568 11.5928 17.0589 11.3696 16.2867 11.3696C13.9089 11.3696 12.3833 12.278 12.3098 14.6016H13.7995ZM18.2382 17.998C18.2382 19.2975 16.7641 20.2825 15.2548 20.2825C14.04 20.2825 13.505 19.6496 13.505 18.5926C13.505 17.3676 14.7771 17.1254 15.5656 17.0158C17.575 16.754 17.9789 16.6053 18.2382 16.4015V17.998ZM25.0072 18.8125H24.9688L22.3632 11.6476H20.4881L24.1256 20.677C23.3372 22.4962 23.2441 22.7132 22.382 22.7132C21.93 22.7132 21.5935 22.6292 21.3885 22.5612V23.9086C21.6515 23.9765 21.8373 24.0412 22.0807 24.0412C24.1992 24.0412 24.369 23.8407 25.9232 20.276C27.1797 17.3997 28.3043 14.5235 29.4485 11.6472H27.6313L25.0072 18.8125ZM36.8713 18.315C36.8169 19.0389 35.9161 20.2248 34.3877 20.2248C32.5257 20.2248 31.5868 19.0586 31.5868 17.0323H38.621C38.621 13.5969 37.2592 11.37 34.4779 11.37C31.2953 11.37 29.8566 13.7652 29.8566 16.7737C29.8566 19.5754 31.459 21.6372 34.1668 21.6372C35.7119 21.6372 36.3399 21.2654 36.7822 20.9681C37.997 20.154 38.4396 18.777 38.4935 18.315H36.8713ZM31.5865 15.7328C31.5865 14.2298 32.7658 12.8372 34.2559 12.8372C36.2266 12.8372 36.8521 14.2298 36.9448 15.7328H31.5865ZM42.0213 15.7134C42.0213 14.3043 42.9764 13.1151 44.486 13.1151H45.0952V11.4252C44.967 11.3897 44.8747 11.37 44.6722 11.37C43.4574 11.37 42.6081 12.1297 41.967 13.2641H41.9289V11.6483H40.4001V21.3596H42.0217V15.7134H42.0213Z" fill="#CAD0E5" stroke="#CAD0E5" stroke-width="0.295842" stroke-miterlimit="2.613"/>
<path d="M48.5469 15.9231C48.5469 10.6491 52.7936 6.3667 58.0233 6.3667C63.2574 6.3667 67.5005 10.6487 67.5005 15.9231C67.5005 21.1975 63.2574 25.4792 58.0233 25.4792C52.7936 25.4792 48.5469 21.1972 48.5469 15.9231Z" stroke="#CAD0E5" stroke-width="0.595337" stroke-miterlimit="2.613"/>
<path fill-rule="evenodd" clip-rule="evenodd" d="M50.038 14.7788V15.632H50.9221C51.1724 15.632 51.3615 15.5999 51.4893 15.5319C51.6175 15.4636 51.6816 15.3475 51.6816 15.1828C51.6816 15.0502 51.6237 14.9501 51.5056 14.8822C51.3868 14.8142 51.1945 14.7788 50.9283 14.7788H50.038ZM49.5469 17.2321V14.4592H51.1463C51.3651 14.4592 51.5502 14.4914 51.7045 14.5527C51.8617 14.6141 51.9761 14.6981 52.0569 14.8048C52.134 14.9114 52.1721 15.0275 52.1721 15.1572C52.1721 15.4286 52.0123 15.6225 51.6882 15.7387C51.8769 15.7971 52.0341 15.8712 52.1594 15.9651C52.284 16.0557 52.3455 16.2076 52.3455 16.414C52.3455 16.5626 52.2974 16.7018 52.2014 16.8245C52.1079 16.9505 51.9674 17.0473 51.7784 17.1218C51.5922 17.196 51.368 17.2318 51.1119 17.2318L49.5469 17.2321ZM50.038 15.9392V16.9118H51.0858C51.3354 16.9118 51.5288 16.8665 51.6595 16.7759C51.7214 16.7365 51.7719 16.6814 51.8062 16.6162C51.8404 16.551 51.8572 16.4779 51.8548 16.4041C51.8548 16.094 51.5734 15.9388 51.0058 15.9388L50.038 15.9392ZM55.3833 16.4238H53.9254L53.5477 17.2318H53.0413L54.4068 14.4589H54.9642L56.2779 17.2318H55.7429L55.3833 16.4238ZM54.0757 16.0944H55.204L54.6683 14.8727H54.6592L54.0757 16.0944ZM58.2743 16.1138V17.2321H57.7839V16.1138L56.4123 14.4592H56.9827L58.0273 15.7909L59.0686 14.4592H59.6459L58.2743 16.1138ZM62.9147 16.899V17.2321H60.2359V14.4592H62.8796V14.792H60.726V15.6386H62.7126V15.9717H60.726V16.899H62.9147ZM64.2349 16.0425V17.2321H63.7445V14.4592H65.424C65.7699 14.4592 66.0557 14.514 66.2799 14.6305C66.5041 14.7438 66.6167 14.9344 66.6167 15.2061C66.6167 15.3869 66.5714 15.5257 66.478 15.6229C66.3853 15.7197 66.2636 15.8008 66.11 15.8683C66.248 15.9136 66.3534 15.9655 66.424 16.033C66.4976 16.0977 66.5392 16.2171 66.5457 16.3888L66.5776 16.8928C66.5776 16.9739 66.5903 17.032 66.6164 17.0674C66.6384 17.1028 66.6863 17.1386 66.7598 17.1711V17.2325H66.1578C66.1316 17.1639 66.1142 17.0922 66.106 17.0192C66.0931 16.9302 66.0846 16.8406 66.0807 16.7507C66.0749 16.6799 66.0716 16.6089 66.0709 16.5378C66.0709 16.3892 66.03 16.2697 65.9427 16.1791C65.8594 16.0886 65.683 16.0433 65.4233 16.0433H64.2349V16.0425ZM64.2349 14.7788V15.7193H65.3733C65.5913 15.7193 65.7703 15.6872 65.909 15.6225C66.0434 15.5546 66.1107 15.4286 66.1107 15.2445C66.1107 14.934 65.8956 14.7792 65.4599 14.7792L64.2349 14.7788ZM57.1714 7.91162V8.76445H58.0592C58.3062 8.76445 58.4956 8.73231 58.6238 8.66438C58.752 8.59644 58.819 8.4803 58.819 8.3185C58.819 8.18263 58.7582 8.08255 58.6394 8.01462C58.5213 7.94669 58.329 7.91126 58.0628 7.91126H57.1714V7.91162ZM56.6814 10.3646V7.59131H58.2808C58.4989 7.59131 58.6847 7.62381 58.8419 7.68517C58.9954 7.74653 59.1113 7.83054 59.1914 7.93719C59.2678 8.04384 59.3095 8.15998 59.3095 8.28964C59.3095 8.56102 59.1461 8.75495 58.8227 8.8711C59.0143 8.92917 59.1686 9.00368 59.2932 9.09755C59.4185 9.18776 59.4793 9.34007 59.4793 9.54643C59.4793 9.69837 59.4311 9.83423 59.3384 9.95695C59.2421 10.083 59.1016 10.1801 58.9125 10.2543C58.7263 10.3288 58.5021 10.3642 58.2453 10.3642L56.6814 10.3646ZM57.1714 9.07162V10.0442H58.22C58.4695 10.0442 58.6622 9.99932 58.7937 9.90874C58.8555 9.86928 58.9061 9.81421 58.9403 9.749C58.9745 9.68378 58.9913 9.61068 58.9889 9.53693C58.9889 9.22684 58.7068 9.07162 58.1399 9.07162H57.1714ZM58.7419 13.0662H57.2873L56.9052 13.8708H56.3996L57.7651 11.098H58.3225L59.6361 13.8708H59.1012L58.7419 13.0662ZM57.4373 12.7331H58.5655L58.0273 11.5114H58.0208L57.4373 12.7331ZM59.4054 20.4378V20.7705H56.7263V17.9977H59.3699V18.3275H57.2167V19.1774H59.2037V19.5105H57.2167V20.4378H59.4054ZM57.1298 23.1749V24.3678H56.6401V21.5949H58.3188C58.6655 21.5949 58.9505 21.6497 59.1747 21.7625C59.3989 21.879 59.5116 22.0697 59.5116 22.3378C59.5116 22.5222 59.4663 22.661 59.3736 22.7578C59.2837 22.8553 59.1584 22.9357 59.0048 23.0036C59.1428 23.0456 59.2482 23.1008 59.3218 23.1683C59.3924 23.2333 59.4344 23.3524 59.4406 23.5241L59.4732 24.0285C59.4732 24.1092 59.4858 24.1673 59.5112 24.203C59.5333 24.2385 59.5811 24.271 59.6546 24.3028V24.3678H59.0527C59.0265 24.2991 59.0091 24.2273 59.0009 24.1541C58.9879 24.0652 58.9794 23.9758 58.9755 23.886C58.9699 23.8151 58.9669 23.7439 58.9665 23.6727C58.9665 23.5244 58.9248 23.4046 58.8379 23.3144C58.7546 23.2238 58.5818 23.1753 58.3185 23.1753L57.1298 23.1749ZM57.1298 21.9148V22.8553H58.2681C58.4887 22.8553 58.6658 22.8228 58.8038 22.7549C58.9382 22.6902 59.0056 22.5646 59.0056 22.3769C59.0056 22.0697 58.7912 21.9148 58.3547 21.9148H57.1298Z" fill="#CAD0E5" stroke="#CAD0E5" stroke-width="0.295842" stroke-miterlimit="2.613"/>
<path fill-rule="evenodd" clip-rule="evenodd" d="M0 28.207V30.1424H66.9494V28.207H0Z" fill="#CAD0E5"/>
<path fill-rule="evenodd" clip-rule="evenodd" d="M0.00390625 31.2705V33.2066H66.9529V31.2705H0.00390625Z" fill="#CAD0E5"/>
</g>
<defs>
<clipPath id="clip0_369_1604">
<rect width="67.5" height="40" fill="white"/>
</clipPath>
</defs>
</svg>
