<svg width="107" height="40" viewBox="0 0 107 40" fill="none" xmlns="http://www.w3.org/2000/svg">
<g clip-path="url(#clip0_369_1600)">
<path d="M12.6992 7.5C10.2864 7.5 7.92785 8.21547 5.9217 9.55594C3.91555 10.8964 2.35195 12.8017 1.42862 15.0308C0.505286 17.2599 0.263701 19.7128 0.73441 22.0792C1.20512 24.4456 2.36698 26.6193 4.07307 28.3254C5.77916 30.0315 7.95286 31.1934 10.3193 31.6641C12.6857 32.1348 15.1385 31.8932 17.3677 30.9699C19.5968 30.0465 21.502 28.4829 22.8425 26.4768C24.183 24.4706 24.8984 22.112 24.8984 19.6992C24.8984 16.4638 23.6132 13.3609 21.3254 11.0731C19.0376 8.78527 15.9347 7.5 12.6992 7.5ZM12.6992 30.7595C10.5117 30.7595 8.37331 30.1109 6.55446 28.8955C4.7356 27.6802 3.31798 25.9528 2.48085 23.9318C1.64372 21.9108 1.42469 19.687 1.85146 17.5415C2.27822 15.396 3.33161 13.4252 4.87842 11.8784C6.42523 10.3316 8.39598 9.27822 10.5415 8.85145C12.687 8.42469 14.9108 8.64372 16.9318 9.48085C18.9528 10.318 20.6802 11.7356 21.8955 13.5545C23.1108 15.3733 23.7595 17.5117 23.7595 19.6992C23.7588 22.6324 22.5933 25.4453 20.5193 27.5193C18.4452 29.5934 15.6324 30.7589 12.6992 30.7595Z" fill="#CAD0E5"/>
<path d="M17.7362 12.0811H16.901V16.2571H8.52348V12.0811H7.66296C6.40256 12.9126 5.36817 14.0438 4.65247 15.3734C3.93677 16.7029 3.56213 18.1893 3.56213 19.6993C3.56213 21.2092 3.93677 22.6956 4.65247 24.0252C5.36817 25.3547 6.40256 26.486 7.66296 27.3175H8.52348V23.1464H16.901V27.3225H17.7362C18.9971 26.4914 20.032 25.3603 20.7481 24.0307C21.4642 22.7011 21.8391 21.2145 21.8391 19.7043C21.8391 18.1941 21.4642 16.7075 20.7481 15.3779C20.032 14.0483 18.9971 12.9172 17.7362 12.0861V12.0811ZM7.35924 25.6774C6.5743 24.9799 5.93443 24.1347 5.47616 23.19C5.0179 22.2452 4.75021 21.2194 4.6884 20.1712C4.62659 19.123 4.77186 18.0729 5.11591 17.0808C5.45997 16.0887 5.99607 15.1742 6.6936 14.3893C6.90267 14.1558 7.12491 13.9344 7.35924 13.7262V25.6774ZM16.901 21.9822H8.52348V17.3961H16.901V21.9822ZM18.0399 25.6521V13.7262C18.8229 14.4293 19.4597 15.2798 19.9139 16.2291C20.3681 17.1784 20.6308 18.2079 20.687 19.2588C20.7431 20.3097 20.5917 21.3613 20.2413 22.3537C19.8909 23.346 19.3484 24.2595 18.6448 25.0421C18.4534 25.2537 18.2515 25.4556 18.0399 25.647V25.6521Z" fill="#CAD0E5"/>
<path fill-rule="evenodd" clip-rule="evenodd" d="M42.7825 19.3956C43.4447 19.1393 44.0129 18.6869 44.4109 18.0989C44.8089 17.5109 45.0179 16.8153 45.0097 16.1053C45.0097 13.1441 42.909 11.6761 40.0237 11.6761H32.4562V27.7781H40.6818C43.2127 27.7781 45.6931 26.0064 45.6931 23.2983C45.6931 20.0789 42.7825 19.4259 42.7825 19.3956ZM36.4045 15.017H39.3404C39.5284 15.0053 39.7168 15.0309 39.8949 15.0921C40.0731 15.1534 40.2373 15.2492 40.3784 15.374C40.5194 15.4989 40.6345 15.6503 40.717 15.8196C40.7994 15.989 40.8477 16.1729 40.859 16.3609C40.859 16.4183 40.859 16.4765 40.859 16.5356C40.851 16.9314 40.6869 17.3081 40.4025 17.5835C40.118 17.8589 39.7363 18.0108 39.3404 18.0061H36.3792L36.4045 15.017ZM39.3657 24.4069H36.4298V21.2432H39.2898C40.7324 21.2432 41.4158 21.8759 41.4158 22.8124C41.4158 23.9817 40.5552 24.4069 39.3657 24.4069Z" fill="#CAD0E5"/>
<path fill-rule="evenodd" clip-rule="evenodd" d="M54.3988 11.2712C49.7419 11.2712 47.0084 14.9917 47.0084 19.6993C47.0084 24.4069 49.7419 28.1274 54.3988 28.1274C59.0558 28.1274 61.7892 24.4322 61.7892 19.6993C61.7892 14.9664 59.0811 11.2712 54.3988 11.2712ZM54.3988 24.2803C52.121 24.2803 50.9821 22.2303 50.9821 19.6993C50.9821 17.1683 52.121 15.1436 54.3988 15.1436C56.6767 15.1436 57.8409 17.1936 57.8409 19.6993C57.8409 22.2556 56.6767 24.2803 54.3988 24.2803Z" fill="#CAD0E5"/>
<path fill-rule="evenodd" clip-rule="evenodd" d="M70.3694 18.0035L69.8126 17.877C68.4458 17.5986 67.3575 17.2442 67.3575 16.2571C67.3575 15.1941 68.3952 14.7639 69.3064 14.7639C69.928 14.7731 70.541 14.9105 71.1072 15.1675C71.6733 15.4244 72.1804 15.7954 72.5966 16.2571L75.1022 13.7768C73.9633 12.486 72.1157 11.2458 69.2304 11.2458C65.839 11.2458 63.2574 13.1441 63.2574 16.3078C63.2574 19.1931 65.3328 20.6104 67.8637 21.1419L68.4205 21.2685C70.5212 21.6987 71.3058 22.0277 71.3058 23.0401C71.3058 24.0019 70.4453 24.6346 69.1292 24.6346C67.56 24.6346 66.1427 23.9513 65.0544 22.5592L62.4981 25.0902C63.9154 26.786 65.7124 28.1021 69.1798 28.1021C72.1917 28.1021 75.406 26.381 75.406 22.863C75.4566 19.1931 72.6725 18.4844 70.3694 18.0035Z" fill="#CAD0E5"/>
<path fill-rule="evenodd" clip-rule="evenodd" d="M84.4162 24.2803C82.6445 24.2803 80.7969 22.8124 80.7969 19.5981C80.7969 16.7381 82.5179 15.1436 84.3149 15.1436C85.7322 15.1436 86.5675 15.8016 87.2255 16.9405L90.4651 14.7892C88.8453 12.3342 86.9218 11.2965 84.2643 11.2965C79.4049 11.2965 76.7727 15.0676 76.7727 19.6234C76.7727 24.4069 79.6833 28.1527 84.2137 28.1527C87.4027 28.1527 88.9213 27.0391 90.5664 24.66L87.3014 22.4631C86.6434 23.521 85.9347 24.2803 84.4162 24.2803Z" fill="#CAD0E5"/>
<path fill-rule="evenodd" clip-rule="evenodd" d="M101.273 11.6761V17.5986H96.3884V11.6761H92.1617V27.773H96.3884V21.4203H101.273V27.773H105.5V11.6761H101.273Z" fill="#CAD0E5"/>
</g>
<defs>
<clipPath id="clip0_369_1600">
<rect width="106.25" height="40" fill="white"/>
</clipPath>
</defs>
</svg>
