<svg width="95" height="37" viewBox="0 0 95 37" fill="none" xmlns="http://www.w3.org/2000/svg">
<mask id="mask0_369_1591" style="mask-type:alpha" maskUnits="userSpaceOnUse" x="0" y="10" width="95" height="27">
<path fill-rule="evenodd" clip-rule="evenodd" d="M7.02358 13.0628C4.67543 13.0628 2.90391 14.8416 2.90391 16.876V18.9908C2.90391 21.0252 4.67543 22.8038 7.02358 22.8038C8.17685 22.8038 8.97929 22.4648 10.1474 21.6171C10.7955 21.1472 11.7049 21.2899 12.1745 21.9354C12.6472 22.5808 12.5015 23.4851 11.8535 23.952C10.3971 25.0049 9.00305 25.689 7.02055 25.689C3.21598 25.695 0 22.7652 0 18.9908V16.876C0 13.1046 3.21598 10.1748 7.02358 10.1748C9.00608 10.1748 10.4001 10.8589 11.8566 11.9118C12.5045 12.3818 12.6472 13.283 12.1776 13.9284C11.7049 14.5739 10.7983 14.7166 10.1504 14.2467C8.98232 13.402 8.17685 13.0599 7.02646 13.0599L7.02358 13.0628ZM21.2846 13.0628C19.0018 13.0628 17.1501 14.904 17.1501 17.1793V18.7261C17.1501 21.0014 19.0018 22.8426 21.2846 22.8426C23.5674 22.8426 25.3864 21.0104 25.3864 18.7261V17.1793C25.3864 14.895 23.5554 13.0628 21.2846 13.0628ZM14.2462 17.1793C14.2462 13.3127 17.3969 10.1748 21.2846 10.1748C25.1724 10.1748 28.2903 13.3216 28.2903 17.1793V18.7261C28.2903 22.5838 25.1813 25.7306 21.2846 25.7306C17.388 25.7306 14.2462 22.5927 14.2462 18.7261V17.1793ZM37.9175 13.1402C35.6289 13.1402 33.7832 14.9784 33.7832 17.2389C33.7832 19.4993 35.6319 21.3376 37.9175 21.3376C40.2033 21.3376 42.0193 19.5113 42.0193 17.2389C42.0193 14.9665 40.1944 13.1402 37.9175 13.1402ZM30.8791 17.2389C30.8791 13.3752 34.0358 10.2521 37.9175 10.2521C39.5701 10.2521 41.0801 10.8173 42.2719 11.7602L43.3598 10.6774C43.9275 10.1123 44.8459 10.1123 45.4136 10.6774C45.9813 11.2426 45.9813 12.1556 45.4136 12.7208L44.1296 13.9998C44.638 14.9695 44.9233 16.073 44.9233 17.2418C44.9233 21.0936 41.8112 24.2286 37.9175 24.2286C37.8789 24.2286 37.8403 24.2286 37.8016 24.2286H34.7194C34.2023 24.2286 33.7832 24.645 33.7832 25.1596C33.7832 25.6741 34.2023 26.0905 34.7194 26.0905H38.6992H39.9715C41.0177 26.0905 42.1026 26.3791 42.9734 27.0661C43.8741 27.7741 44.4447 28.824 44.5458 30.112C44.7241 32.3932 43.1162 33.9518 41.8084 34.4544L38.1703 36.0546C37.4361 36.3759 36.5801 36.0457 36.256 35.3171C35.932 34.5884 36.265 33.7346 36.9961 33.4135L40.6699 31.7984C40.6967 31.7865 40.7264 31.7745 40.7532 31.7656C40.9077 31.7091 41.1692 31.5425 41.3743 31.266C41.5646 31.0102 41.6746 30.7037 41.6478 30.3409C41.6062 29.8115 41.4041 29.517 41.1692 29.3355C40.9107 29.1303 40.5004 28.9817 39.9684 28.9817H34.7789C34.7639 28.9817 34.7491 28.9817 34.7312 28.9817H34.7135C32.5942 28.9817 30.8732 27.2713 30.8732 25.1626C30.8732 23.7944 31.5954 22.5957 32.6805 21.9206C31.5569 20.6832 30.8732 19.0444 30.8732 17.2448L30.8791 17.2389ZM54.4554 13.1402C52.1816 13.1402 50.3357 14.9754 50.3357 17.2389V24.2851C50.3357 25.0822 49.685 25.7306 48.8854 25.7306C48.0858 25.7306 47.4349 25.0853 47.4349 24.2851V17.2389C47.4349 13.3811 50.5796 10.2521 54.4585 10.2521C58.3372 10.2521 61.4819 13.3811 61.4819 17.2389V24.2851C61.4819 25.0822 60.8309 25.7306 60.0314 25.7306C59.2319 25.7306 58.581 25.0853 58.581 24.2851V17.2389C58.581 14.9754 56.7382 13.1402 54.4613 13.1402H54.4554ZM71.5817 13.1432C69.2425 13.1432 67.367 15.0111 67.367 17.2895V18.7766C67.367 21.055 69.2425 22.9228 71.5817 22.9228C72.3931 22.9228 73.1421 22.6968 73.7754 22.3101C74.4589 21.8938 75.3536 22.1049 75.7727 22.786C76.1918 23.4672 75.9778 24.3565 75.2941 24.7729C74.2152 25.4332 72.9401 25.811 71.5817 25.811C67.6612 25.811 64.4631 22.6731 64.4631 18.7766V17.2895C64.4631 13.3931 67.6612 10.255 71.5817 10.255C74.9345 10.255 77.7225 12.5454 78.4685 15.6327L78.7599 16.8403L72.5716 19.3448C71.8284 19.6451 70.9814 19.2912 70.6782 18.5505C70.3751 17.8129 70.7316 16.9682 71.4747 16.6678L75.1752 15.1687C74.4501 13.9552 73.1155 13.1402 71.5758 13.1402L71.5817 13.1432ZM87.4984 13.1432C85.1591 13.1432 83.2836 15.0111 83.2836 17.2895V18.7766C83.2836 21.055 85.1591 22.9228 87.4984 22.9228C88.3099 22.9228 89.0589 22.6968 89.692 22.3101C90.01 22.1169 90.3013 21.8818 90.5539 21.6112C91.1038 21.0282 92.0223 21.0014 92.6048 21.5457C93.1904 22.0901 93.22 23.0062 92.6702 23.5862C92.2392 24.0413 91.7488 24.4428 91.2077 24.7729C90.1259 25.4332 88.8538 25.811 87.4924 25.811C83.5719 25.811 80.3738 22.6731 80.3738 18.7766V17.2895C80.3738 13.3931 83.5719 10.255 87.4924 10.255C90.8452 10.255 93.6332 12.5454 94.3792 15.6327L94.6705 16.8403L88.4823 19.3448C87.7392 19.6451 86.8921 19.2912 86.5889 18.5505C86.2858 17.8129 86.6423 16.9682 87.3855 16.6678L91.0859 15.1687C90.3606 13.9552 89.0262 13.1402 87.4866 13.1402L87.4984 13.1432Z" fill="#6510F4"/>
</mask>
<g mask="url(#mask0_369_1591)">
<path d="M131.939 -24.7876H-37.5703V60.1183H131.939V-24.7876Z" fill="#CAD0E5"/>
</g>
</svg>
