<svg width="154" height="40" viewBox="0 0 154 40" fill="none" xmlns="http://www.w3.org/2000/svg">
<g clip-path="url(#clip0_369_1626)">
<path d="M28.3778 19.0607L28.359 19.0714L25.0072 20.4384L24.9046 20.4857L24.0876 24.2179C24.0331 24.3455 23.8697 24.3759 23.7599 24.2696L21.3179 21.3821L21.3063 21.3732L7.5358 27.2821C7.51523 27.2911 7.49211 27.2922 7.47077 27.2853C7.44943 27.2784 7.43136 27.2639 7.41995 27.2446C7.40854 27.2253 7.40458 27.2025 7.40881 27.1804C7.41305 27.1584 7.42519 27.1387 7.44294 27.125L19.3474 18.2143L17.8412 14.775C17.7662 14.6187 17.9046 14.4518 18.0885 14.4982H18.0903L21.7385 15.3964L24.5706 12.8759C24.6929 12.7804 24.859 12.8491 24.8903 13.0009L25.1671 16.7875L28.4331 18.6991C28.5733 18.7884 28.5528 18.9955 28.3778 19.0607ZM26.7135 8.23482C22.4867 6.57589 17.8385 7.82143 14.9706 11.0089L3.77955 22.9982C3.62866 23.1598 3.69919 23.3625 3.88223 23.3893L6.86437 23.5723C7.10276 23.5875 7.13223 23.7929 7.01259 23.933L-0.277593 31.7955C-0.404379 31.9312 -0.250808 32.1455 -0.0775933 32.092L10.3295 28.8036C10.5492 28.7277 10.7188 28.9241 10.626 29.0964L9.23312 31.5571C9.16169 31.6973 9.29651 31.8893 9.47151 31.8768L24.4751 28.5348C28.0599 27.967 31.2608 25.5741 32.6831 21.9509C34.826 16.5134 32.1492 10.3732 26.7135 8.23482Z" fill="#CAD0E5"/>
<path d="M46.5564 23.4456H45.859L47.1126 17.0331H48.0903C49.5698 17.0331 50.1099 17.9081 50.1099 19.1072C50.1099 21.5313 48.7671 23.4456 46.5564 23.4456ZM49.8769 17.2608L52.2448 14.9884C51.3206 14.4322 50.0528 14.1777 48.4706 14.1777H43.9412L41.5742 26.3393H46.2965C51.7823 26.3393 53.976 22.5063 53.976 18.5179C53.976 17.4813 53.7528 16.6518 53.3224 16.009L49.8769 17.2608Z" fill="#CAD0E5"/>
<path d="M66.9305 26.4782H63.5117L66.1876 13.9496L69.9162 12.5791L66.9314 26.4764" fill="#CAD0E5"/>
<path d="M59.5893 19.3018C58.7705 19.3018 58.3 19.9794 58.1089 20.7643C59.7277 20.7643 60.2179 20.2589 60.2179 19.8393C60.2179 19.5446 59.9545 19.3018 59.5893 19.3018ZM57.7259 22.9589C57.708 23.0446 57.6902 23.2035 57.6902 23.2893C57.6902 23.8473 58.0723 24.0393 59.0848 24.0393C59.9893 24.0393 61.2777 23.8116 62.0286 23.5518V26.1125C61.0705 26.4607 59.5705 26.6509 58.3679 26.6509C55.5464 26.6509 54.1875 25.8839 54.1875 23.325C54.1875 20.8125 55.3545 16.8955 59.8518 16.8955C62.7071 16.8955 63.5598 18.1857 63.5598 19.5455C63.5598 21.3044 62.0455 22.8018 57.7259 22.9589Z" fill="#CAD0E5"/>
<path d="M73.1378 16.447C71.9727 16.447 71.2227 15.6979 71.2227 14.6703C71.2227 13.3283 72.1637 12.5801 73.3289 12.5801C74.5146 12.5801 75.2468 13.3283 75.2468 14.339C75.2468 15.6979 74.3236 16.447 73.1378 16.447Z" fill="#CAD0E5"/>
<path d="M70.7401 17.21H74.2579L72.4794 26.3385H68.9258L70.1776 19.9278" fill="#CAD0E5"/>
<path d="M84.3987 17.21C83.1782 20.2769 81.8362 23.2725 80.1308 26.3385H75.7737C75.2174 23.4457 74.9719 20.3975 75.0433 17.21H78.5978C78.5301 18.6958 78.5408 20.1842 78.6299 21.6689C78.6487 22.0528 78.6844 22.4171 78.7183 22.7859H78.738C78.8933 22.4171 79.0665 22.0537 79.2246 21.6689C79.8335 20.1689 80.3907 18.535 80.8112 17.21H84.3987Z" fill="#CAD0E5"/>
<path d="M89.1587 19.3018C88.3417 19.3018 87.8685 19.9794 87.6757 20.7643C89.298 20.7643 89.7855 20.2589 89.7855 19.8393C89.7855 19.5446 89.5266 19.3018 89.1587 19.3018ZM87.2962 22.9589C87.2749 23.0678 87.2624 23.1783 87.2587 23.2893C87.2587 23.8473 87.6435 24.0393 88.6525 24.0393C89.5596 24.0393 90.8489 23.8116 91.598 23.5518V26.1125C90.6391 26.4607 89.1408 26.6509 87.94 26.6509C85.1158 26.6509 83.7578 25.8839 83.7578 23.325C83.7578 20.8125 84.9239 16.8955 89.4194 16.8955C92.2766 16.8955 93.1292 18.1857 93.1292 19.5455C93.1292 21.3044 91.6167 22.8018 87.2962 22.9589Z" fill="#CAD0E5"/>
<path d="M99.9563 20.433C99.6762 20.3661 99.3897 20.3301 99.1018 20.3259C98.317 20.3259 97.6902 21.1116 97.4098 22.558L96.6813 26.3393H93.125L94.9045 17.2107H97.5714L97.6571 18.4277C98.475 17.4187 99.1214 16.8955 100.114 16.8955C100.566 16.8955 100.811 16.9303 100.931 16.9652L99.9571 20.4321" fill="#CAD0E5"/>
<path d="M111.067 17.21C109.497 21.2876 108.104 24.2653 106.71 26.3234C104.69 29.3376 102.912 30.035 101.081 30.035C100.541 30.035 99.9679 29.8921 99.6875 29.7546L100.246 27.1234H101.466C102.076 27.1234 102.336 26.8778 102.738 26.3385C102.058 23.8832 101.726 20.451 101.761 17.21H105.334C105.265 18.6785 105.276 20.1498 105.369 21.6171C105.387 22.0171 105.419 22.401 105.454 22.7859H105.471C105.629 22.4171 105.802 22.0537 105.96 21.6519C106.554 20.1995 107.072 18.7168 107.51 17.21H111.067Z" fill="#CAD0E5"/>
<path d="M124.735 26.3384H120.985L121.876 21.7376H118.703L117.813 26.3384H114.07L116.438 14.1777H120.185L119.333 18.517H122.503L123.358 14.1777H127.102L124.735 26.3384" fill="#CAD0E5"/>
<path d="M132.116 19.3018C131.296 19.3018 130.828 19.9794 130.635 20.7643C132.256 20.7643 132.746 20.2589 132.746 19.8393C132.746 19.5446 132.482 19.3018 132.116 19.3018ZM130.251 22.9589C130.232 23.068 130.221 23.1784 130.218 23.2893C130.218 23.8473 130.602 24.0393 131.61 24.0393C132.518 24.0393 133.807 23.8116 134.556 23.5518V26.1125C133.598 26.4607 132.099 26.6509 130.895 26.6509C128.074 26.6509 126.715 25.8839 126.715 23.325C126.715 20.8125 127.882 16.8955 132.377 16.8955C135.234 16.8955 136.09 18.1857 136.09 19.5455C136.09 21.3044 134.572 22.8018 130.251 22.9589Z" fill="#CAD0E5"/>
<path d="M142.917 20.433C142.638 20.3658 142.352 20.3299 142.065 20.3259C141.282 20.3259 140.653 21.1116 140.375 22.558L139.643 26.3393H136.09L137.865 17.2107H140.53L140.619 18.4277C141.437 17.4187 142.081 16.8955 143.073 16.8955C143.528 16.8955 143.771 16.9303 143.894 16.9652L142.917 20.4321" fill="#CAD0E5"/>
<path d="M148.753 19.7009C147.325 19.7009 146.941 21.8794 146.941 22.8553C146.941 23.6384 147.271 23.8643 147.919 23.8643C149.327 23.8643 149.694 21.6857 149.694 20.6946C149.694 19.9285 149.381 19.7009 148.753 19.7009ZM147.428 26.6509C144.658 26.6509 143.301 25.466 143.301 23.0973C143.301 20.466 144.606 16.8955 149.207 16.8955C151.961 16.8955 153.336 18.1152 153.336 20.4509C153.336 23.1339 152.028 26.6509 147.428 26.6509Z" fill="#CAD0E5"/>
</g>
<defs>
<clipPath id="clip0_369_1626">
<rect width="153.75" height="40" fill="white"/>
</clipPath>
</defs>
</svg>
