<svg width="75" height="40" viewBox="0 0 75 40" fill="none" xmlns="http://www.w3.org/2000/svg">
<path d="M47.4647 20.91C44.0632 21.0215 41.9497 21.6354 41.9497 23.8759C41.9497 25.3264 43.106 26.8988 46.0417 26.8988C49.9776 26.8988 52.0786 24.7534 52.0786 21.2347L52.0788 20.8477C50.6989 20.8477 48.9973 20.8597 47.4647 20.91ZM55.8303 25.559C55.8303 26.6507 55.8619 27.7283 55.9571 28.6987H52.4676C52.3745 27.8996 52.3406 27.1057 52.3406 26.3356C50.454 28.6547 48.21 29.3214 45.0971 29.3214C40.48 29.3214 38.0078 26.881 38.0078 24.0583C38.0078 19.97 41.3702 18.5286 47.2073 18.3949C48.8035 18.3584 50.5965 18.353 52.0788 18.353L52.0786 17.9536C52.0786 15.2166 50.3236 14.0913 47.2825 14.0913C45.0248 14.0913 43.3609 15.0256 43.1895 16.64H39.248C39.6651 12.6147 43.8942 11.5967 47.6128 11.5967C52.0675 11.5967 55.8303 13.1817 55.8303 17.8935L55.8303 25.559Z" fill="#CAD0E5"/>
<path d="M15.015 18.9137C14.8694 15.4045 12.3365 14.0913 9.62948 14.0913C6.7104 14.0913 4.37984 15.5685 3.97159 18.9137H15.015ZM3.89072 21.4084C4.09316 24.8133 6.44116 26.8271 9.66968 26.8271C11.9065 26.8271 13.8962 25.9157 14.5625 23.933H18.4315C17.679 27.9559 13.4044 29.3214 9.72513 29.3214C3.03523 29.3214 0.0703125 25.6371 0.0703125 20.6685C0.0703125 15.1989 3.13698 11.5967 9.78617 11.5967C15.0786 11.5967 18.9564 14.3664 18.9564 20.4118V21.4084H3.89072Z" fill="#CAD0E5"/>
<path d="M28.5787 26.7559C32.0651 26.7559 34.4508 24.2465 34.4508 20.4596C34.4508 16.673 32.0651 14.1633 28.5787 14.1633C25.112 14.1633 22.7065 16.673 22.7065 20.4596C22.7065 24.2465 25.112 26.7559 28.5787 26.7559ZM18.9558 5H22.7065L22.7061 14.4231C24.5444 12.2327 27.0771 11.5968 29.5699 11.5968C33.7497 11.5968 38.3922 14.4173 38.3922 20.5072C38.3922 25.6068 34.7 29.3215 29.5003 29.3215C26.7786 29.3215 24.2167 28.3451 22.6367 26.4107C22.6367 27.1834 22.5936 27.9621 22.5091 28.6987H18.8281C18.8921 27.5078 18.9558 26.0249 18.9558 24.825L18.9558 5Z" fill="#CAD0E5"/>
<path d="M74.9356 12.2207L63.3366 34.9999H59.1365L62.4712 28.6747L53.7422 12.2207H58.1309L64.5542 25.0764L70.9594 12.2207H74.9356Z" fill="#CAD0E5"/>
</svg>
