<svg width="210" height="40" viewBox="0 0 210 40" fill="none" xmlns="http://www.w3.org/2000/svg">
<path fill-rule="evenodd" clip-rule="evenodd" d="M5.37473 15.4929C4.9645 10.3147 8.79934 5.00879 15.2145 5.00879C17.3401 5.00879 19.5785 5.54917 21.4573 6.43992C26.5586 8.84494 30.0872 14.0291 30.0872 20.0327C30.0872 25.5821 27.0728 30.4307 22.581 33.0317C24.7482 30.9088 26.0324 27.8624 25.7619 24.4865C25.3249 18.9668 20.1136 14.4745 15.387 14.4745C10.9903 14.4745 9.26904 18.3076 9.69414 20.9116C9.85467 21.8885 10.2768 22.7792 10.8892 23.5067C10.0955 23.0821 9.32849 22.5357 8.62098 21.8796C6.71545 20.107 5.56202 17.8385 5.37473 15.4929ZM24.7125 24.5785C25.1227 29.7567 21.2879 35.0626 14.8727 35.0626C12.7472 35.0626 10.5087 34.5222 8.6299 33.6315C3.52866 31.2265 0 26.0423 0 20.0387C0 14.4893 3.01437 9.64068 7.5062 7.03969C5.33906 9.16264 4.05483 12.209 4.32535 15.5849C4.76235 21.1046 9.97358 25.5969 14.7003 25.5969C19.097 25.5969 20.8182 21.7638 20.3931 19.1598C20.2325 18.1829 19.8104 17.2922 19.201 16.5648C19.9947 16.9893 20.7617 17.5357 21.4692 18.1919C23.3747 19.9644 24.5282 22.2358 24.7125 24.5785ZM46.5295 21.6628V19.2697H54.553C54.6362 19.6913 54.6838 20.1931 54.6838 20.7364C54.6838 22.5328 54.1903 24.7537 52.6088 26.3363C51.0689 27.9396 49.1009 28.7947 46.4879 28.7947C41.6512 28.7947 37.5875 24.8606 37.5875 20.0298C37.5875 15.1989 41.6542 11.2648 46.4879 11.2648C49.1634 11.2648 51.0659 12.3129 52.5018 13.6817L50.8103 15.3712C49.7817 14.4092 48.3934 13.6609 46.4879 13.6609C42.9563 13.6609 40.1975 16.5024 40.1975 20.0327C40.1975 23.5601 42.9592 26.4045 46.4879 26.4045C48.7769 26.4045 50.0819 25.4841 50.9173 24.6527C51.598 23.9728 52.044 22.9989 52.2194 21.6687L46.5295 21.6628ZM61.2387 28.7947C64.363 28.7947 66.9077 26.4016 66.9077 23.1504C66.9077 19.8783 64.3601 17.506 61.2387 17.506C58.1143 17.506 55.5696 19.8991 55.5696 23.1504C55.5696 26.4016 58.1143 28.7947 61.2387 28.7947ZM61.2387 19.7329C62.951 19.7329 64.4255 21.1224 64.4255 23.1533C64.4255 25.1634 62.951 26.5738 61.2387 26.5738C59.5264 26.5738 58.0489 25.1842 58.0489 23.1533C58.0519 21.1224 59.5264 19.7329 61.2387 19.7329ZM79.2803 23.1533C79.2803 26.4016 76.7327 28.7977 73.6083 28.7977C70.4839 28.7977 67.9392 26.4046 67.9392 23.1533C67.9392 19.9021 70.4869 17.5089 73.6083 17.5089C76.7327 17.5089 79.2803 19.8813 79.2803 23.1533ZM76.7981 23.1533C76.7981 21.1224 75.3236 19.7329 73.6113 19.7329C71.899 19.7329 70.4215 21.1224 70.4215 23.1533C70.4215 25.1842 71.899 26.5738 73.6113 26.5738C75.3206 26.5738 76.7981 25.1605 76.7981 23.1533ZM91.1356 27.9841V17.8504H88.7812V18.7708H88.695C88.1391 18.1087 87.0689 17.5089 85.7193 17.5089C82.8952 17.5089 80.3059 20.009 80.3059 23.1741C80.3059 26.3392 82.8952 28.7947 85.7193 28.7947C87.0689 28.7947 88.1391 28.195 88.695 27.512H88.7812V28.3256C88.7812 30.4842 87.6248 31.6392 85.7639 31.6392C84.2448 31.6392 83.3024 30.5495 82.919 29.6291L80.7578 30.5257C81.3791 32.0222 83.026 33.8601 85.7639 33.8601C88.6742 33.8631 91.1356 32.1528 91.1356 27.9841ZM85.9363 19.7329C87.6278 19.7329 88.9536 21.1877 88.9536 23.1741C88.9536 25.1397 87.6486 26.5738 85.9363 26.5738C84.224 26.5738 82.7911 25.1634 82.7911 23.1741C82.7911 21.1848 84.2448 19.7329 85.9363 19.7329ZM95.3391 11.921V28.4533H92.8569V11.921H95.3391ZM106.85 26.2947L104.923 25.012C104.281 25.9532 103.404 26.5738 102.141 26.5738C100.877 26.5738 99.9796 25.9978 99.4029 24.8636L106.957 21.743L106.701 21.1016C106.231 19.8397 104.775 17.5089 101.864 17.5089C98.954 17.5089 96.5371 19.7952 96.5371 23.1533C96.5371 26.3184 98.9332 28.7977 102.144 28.7977C104.73 28.7947 106.228 27.2122 106.85 26.2947ZM104.046 20.8849L98.9956 22.9811C98.9302 20.8017 100.687 19.6883 101.948 19.6883C102.934 19.6883 103.77 20.1812 104.046 20.8849ZM114.341 12.9157H119.299C124.766 12.9157 127.278 15.9175 127.278 20.7127C127.278 25.4871 124.766 28.4681 119.299 28.4681H114.341V12.9157ZM119.234 26.6035C123.545 26.6035 125.04 24.3796 125.04 20.7127C125.04 17.025 123.551 14.7536 119.234 14.7536H116.541V26.6005H119.234V26.6035ZM130.468 23.471H139.116C139.137 23.0672 139.137 22.7347 139.137 22.4229C139.137 19.5814 137.091 17.1794 133.845 17.1794C130.557 17.1794 128.31 19.5131 128.31 23.0019C128.31 26.4491 130.575 28.7353 133.824 28.7353C136.423 28.7353 138.224 27.1795 138.825 25.11H136.625C136.179 26.1997 135.204 26.9093 133.824 26.9093C132.112 26.9152 130.602 25.7157 130.468 23.471ZM133.824 19.0084C135.557 19.0084 136.868 20.1188 136.958 21.9182H130.51C130.759 20.009 132.18 19.0084 133.824 19.0084ZM151.099 23.471H142.451C142.588 25.7157 144.095 26.9152 145.808 26.9152C147.187 26.9152 148.162 26.2056 148.608 25.1159H150.808C150.207 27.1854 148.406 28.7413 145.808 28.7413C142.561 28.7413 140.293 26.455 140.293 23.0078C140.293 19.5191 142.54 17.1853 145.828 17.1853C149.075 17.1853 151.12 19.5874 151.12 22.4288C151.12 22.7347 151.12 23.0672 151.099 23.471ZM148.941 21.9152C148.852 20.1159 147.541 19.0054 145.808 19.0054C144.164 19.0054 142.743 20.006 142.493 21.9152H148.941ZM154.408 17.4466H152.431V33.3583H154.631V26.7371C155.389 28.0079 156.762 28.7383 158.522 28.7383C161.765 28.7383 163.989 26.3155 163.989 22.9841C163.989 19.6527 161.762 17.1823 158.543 17.1823C156.566 17.1823 155.32 18.1354 154.631 19.2043L154.408 17.4466ZM158.189 19.0915C160.279 19.0915 161.747 20.6741 161.747 22.9603C161.747 25.2733 160.279 26.8291 158.189 26.8291C156.12 26.8291 154.631 25.2733 154.631 22.9603C154.631 20.6681 156.12 19.0915 158.189 19.0915ZM181.148 12.9157V28.4711H178.948V16.7578L174.058 26.2472H172.366L167.452 16.7578V28.4711H165.252V12.9157H167.83L173.21 23.4265L178.567 12.9157H181.148ZM183.951 12.4703C183.124 12.4703 182.503 13.0522 182.503 13.8509C182.503 14.6496 183.124 15.2524 183.951 15.2524C184.795 15.2524 185.419 14.6496 185.419 13.8509C185.416 13.0433 184.795 12.4703 183.951 12.4703ZM185.06 17.4466H182.86V28.4711H185.06V17.4466ZM196.954 22.1141V28.4711H194.775V22.3368C194.775 20.1604 193.862 19.0707 192.081 19.0707C190.28 19.0707 188.969 20.3831 188.969 22.7822V28.4711H186.769V17.4466H188.725L188.88 19.3795C189.59 18.0256 190.97 17.1823 192.682 17.1823C195.331 17.1823 196.954 18.8065 196.954 22.1141ZM203.61 17.1289C200.363 17.1289 198.164 19.5517 198.164 22.8831C198.164 26.2145 200.369 28.6849 203.583 28.6849C205.566 28.6849 206.808 27.7318 207.519 26.6629L207.742 28.4206H209.719V12.4198H207.519V19.1301C206.77 17.8623 205.39 17.1289 203.61 17.1289ZM203.943 19.044C206.033 19.044 207.501 20.5998 207.501 22.9128C207.501 25.1991 206.033 26.7757 203.943 26.7816C201.874 26.7816 200.384 25.1991 200.384 22.9128C200.384 20.5998 201.874 19.044 203.943 19.044Z" fill="#CAD0E5"/>
</svg>
