<svg width="64" height="27" viewBox="0 0 64 27" fill="none" xmlns="http://www.w3.org/2000/svg">
<g clip-path="url(#clip0_962_24245)">
<path d="M6.82221 7.24996V12.347H2.1396V7.24996H-0.0820312V19.4172H2.1402V14.4856H6.82161V19.4172H9.04444V7.24996H6.82221ZM16.1574 15.4845C16.1574 15.9722 15.9636 16.4399 15.6188 16.7848C15.274 17.1296 14.8062 17.3234 14.3186 17.3234C13.8309 17.3234 13.3632 17.1296 13.0183 16.7848C12.6735 16.4399 12.4797 15.9722 12.4797 15.4845V10.2727H10.3718V15.4845C10.3718 16.5302 10.7872 17.5331 11.5266 18.2726C12.266 19.012 13.2689 19.4274 14.3146 19.4274C15.3604 19.4274 16.3632 19.012 17.1027 18.2726C17.8421 17.5331 18.2575 16.5302 18.2575 15.4845V10.2727H16.1574V15.4845ZM31.7767 10.8097C31.7767 9.74102 32.4834 9.40242 33.2574 9.40242C33.8817 9.40242 34.7056 9.87754 35.2451 10.4537L36.6253 8.82627C35.9361 7.89407 34.5384 7.24996 33.3939 7.24996C31.1068 7.24996 29.4529 8.58931 29.4529 10.8097C29.4529 14.9294 34.4879 13.622 34.4879 15.9278C34.4879 16.6386 33.7975 17.2665 33.0072 17.2665C31.7605 17.2665 31.3563 16.6573 30.7838 16.0126L29.2514 17.6057C30.2317 18.8086 31.4405 19.4196 32.8881 19.4196C35.0611 19.4196 36.8088 18.064 36.8088 15.9446C36.8088 11.3715 31.7731 12.7926 31.7731 10.8097M62.9264 17.4734C61.6809 17.4734 61.3267 16.9345 61.3267 16.1094V12.4558H63.2632V10.6047H61.3267V8.1623L59.1892 9.12156V16.5635C59.1892 18.467 60.5027 19.4262 62.3034 19.4262C62.586 19.431 62.8687 19.4082 63.1465 19.3588L63.668 17.4391C63.4328 17.4554 63.1628 17.4716 62.9264 17.4716M24.1815 10.3334C23.1374 10.3334 22.4085 10.6365 21.7036 11.3276V7.32273H19.5927V14.746C19.5927 17.5245 21.6014 19.4286 23.8591 19.4286C26.3634 19.4286 28.5664 17.4909 28.5664 14.8819C28.5664 12.3055 26.539 10.3352 24.1815 10.3352M24.1682 17.3038C23.8536 17.3038 23.5421 17.2418 23.2514 17.1214C22.9608 17.0011 22.6967 16.8246 22.4742 16.6021C22.2517 16.3797 22.0753 16.1156 21.9549 15.8249C21.8345 15.5342 21.7725 15.2227 21.7725 14.9081C21.7725 14.5935 21.8345 14.2819 21.9549 13.9913C22.0753 13.7006 22.2517 13.4365 22.4742 13.214C22.6967 12.9916 22.9608 12.8151 23.2514 12.6947C23.5421 12.5743 23.8536 12.5123 24.1682 12.5123C24.8036 12.5123 25.413 12.7647 25.8623 13.214C26.3116 13.6633 26.564 14.2727 26.564 14.9081C26.564 15.5435 26.3116 16.1528 25.8623 16.6021C25.413 17.0514 24.8036 17.3038 24.1682 17.3038ZM47.1074 14.7713C47.1074 12.1575 44.9092 10.2246 42.4001 10.2246C40.143 10.2246 38.1337 12.128 38.1337 14.9072V22.3347H40.2447V18.3244C40.9483 19.0142 41.6784 19.3186 42.7213 19.3186C45.0788 19.3186 47.1074 17.3483 47.1074 14.7713ZM45.1083 14.7448C45.1083 15.3802 44.8559 15.9895 44.4066 16.4388C43.9573 16.8881 43.348 17.1405 42.7126 17.1405C42.0772 17.1405 41.4678 16.8881 41.0185 16.4388C40.5692 15.9895 40.3168 15.3802 40.3168 14.7448C40.3168 14.1094 40.5692 13.5 41.0185 13.0507C41.4678 12.6015 42.0772 12.3491 42.7126 12.3491C43.348 12.3491 43.9573 12.6015 44.4066 13.0507C44.8559 13.5 45.1083 14.1094 45.1083 14.7448Z" fill="#CAD0E5"/>
<path d="M53.9292 10.1223V8.00113C54.2095 7.87013 54.4468 7.6622 54.6136 7.40156C54.7803 7.14091 54.8696 6.83828 54.871 6.52887V6.48015C54.871 5.57803 54.1397 4.84671 53.2376 4.84671H53.1889C52.7556 4.84671 52.3402 5.0188 52.0338 5.32513C51.7275 5.63146 51.5554 6.04694 51.5554 6.48015V6.52887C51.5568 6.83828 51.6461 7.14091 51.8129 7.40156C51.9796 7.6622 52.2169 7.87013 52.4972 8.00113V10.1223C51.6916 10.2457 50.9329 10.5797 50.2979 11.0906L44.4804 6.55954C44.5219 6.40979 44.5435 6.25583 44.5459 6.10126C44.5466 5.73723 44.4394 5.38116 44.2377 5.0781C44.036 4.77504 43.749 4.53859 43.4129 4.39868C43.0768 4.25877 42.7068 4.22167 42.3497 4.29207C41.9925 4.36248 41.6642 4.53723 41.4064 4.79422C41.1486 5.05121 40.9728 5.37889 40.9012 5.73582C40.8296 6.09275 40.8655 6.46289 41.0043 6.79942C41.1431 7.13594 41.3786 7.42374 41.681 7.62641C41.9834 7.82908 42.3392 7.93751 42.7032 7.93798C43.0217 7.93648 43.3342 7.85146 43.6095 7.6914L49.338 12.1491C48.8234 12.9265 48.5549 13.841 48.5676 14.7732C48.5802 15.7054 48.8734 16.6122 49.409 17.3754L47.6667 19.1183C47.5258 19.0733 47.3791 19.0493 47.2312 19.0473C46.9324 19.0476 46.6404 19.1364 46.392 19.3025C46.1437 19.4687 45.9501 19.7048 45.8359 19.9809C45.7217 20.257 45.6918 20.5608 45.7502 20.8538C45.8085 21.1469 45.9525 21.4161 46.1638 21.6274C46.375 21.8387 46.6442 21.9826 46.9373 22.0409C47.2304 22.0993 47.5341 22.0695 47.8103 21.9552C48.0864 21.841 48.3224 21.6475 48.4886 21.3991C48.6548 21.1507 48.7436 20.8587 48.7438 20.5599C48.7419 20.412 48.7179 20.2653 48.6728 20.1245L50.3965 18.4002C50.9586 18.8329 51.6122 19.1312 52.3074 19.2723C53.0026 19.4134 53.7208 19.3935 54.4071 19.2141C55.0934 19.0347 55.7295 18.7006 56.2667 18.2374C56.804 17.7742 57.228 17.1942 57.5065 16.5417C57.7849 15.8893 57.9103 15.1818 57.8731 14.4735C57.8358 13.7651 57.6369 13.0746 57.2917 12.455C56.9464 11.8354 56.4638 11.303 55.881 10.8987C55.2982 10.4943 54.6305 10.2288 53.9292 10.1223ZM53.2147 17.0987C52.8962 17.1075 52.5791 17.0523 52.2822 16.9365C51.9854 16.8206 51.7147 16.6465 51.4863 16.4242C51.2579 16.202 51.0763 15.9363 50.9524 15.6427C50.8284 15.3491 50.7645 15.0337 50.7645 14.715C50.7645 14.3964 50.8284 14.0809 50.9524 13.7874C51.0763 13.4938 51.2579 13.228 51.4863 13.0058C51.7147 12.7836 51.9854 12.6094 52.2822 12.4936C52.5791 12.3777 52.8962 12.3226 53.2147 12.3313C53.8321 12.3529 54.417 12.6133 54.8463 13.0576C55.2755 13.5019 55.5156 14.0955 55.5159 14.7133C55.5162 15.331 55.2767 15.9248 54.8479 16.3696C54.4192 16.8143 53.8345 17.0753 53.2171 17.0975" fill="#CAD0E5"/>
</g>
<defs>
<clipPath id="clip0_962_24245">
<rect width="63.75" height="26.6667" fill="white"/>
</clipPath>
</defs>
</svg>
