<svg width="74" height="40" viewBox="0 0 74 40" fill="none" xmlns="http://www.w3.org/2000/svg">
<path fill-rule="evenodd" clip-rule="evenodd" d="M56.8184 13.4453V19.071H54.8105V10.3621H56.8184V11.4611H56.9194C57.3114 10.7483 58.0124 10.1898 59.2718 10.1898C61.0421 10.1898 61.9629 11.3067 61.9629 13.1007V19.0769H59.955V13.1126C59.955 12.0849 59.5451 11.4077 58.5055 11.4077C57.4659 11.4077 56.8184 12.1562 56.8184 13.4453ZM47.4263 14.7166C47.4263 17.0156 48.157 18.2868 49.4699 18.2868C50.7768 18.2868 51.5134 17.0334 51.5134 14.7166C51.5134 12.3997 50.7828 11.1463 49.4699 11.1463C48.157 11.1463 47.4263 12.4176 47.4263 14.7166ZM53.6223 14.7166C53.6223 17.2057 52.1431 19.2492 49.4699 19.2492C46.7966 19.2492 45.3174 17.2116 45.3174 14.7166C45.3174 12.2275 46.7966 10.1839 49.4699 10.1839C52.1431 10.1839 53.6223 12.2275 53.6223 14.7166ZM44.4798 16.4096C44.4798 18.1502 43.2382 19.2492 40.9392 19.2492C38.8778 19.2492 37.5174 18.3284 37.4165 16.8255L39.2224 16.3027C39.4066 17.7462 40.0066 18.3225 41.159 18.3225C42.2343 18.3225 42.8461 17.8175 42.8461 16.9264C42.8461 16.1958 42.4362 15.8631 41.5392 15.6373L39.8343 15.2037C38.7412 14.9245 37.7729 14.1403 37.7729 12.6968C37.7729 10.9918 39.1333 10.1898 41.0224 10.1898C42.9115 10.1898 44.0877 11.0453 44.2897 12.2631L42.5848 12.7859C42.5016 11.6869 41.8719 11.1106 40.8501 11.1106C39.9828 11.1106 39.4066 11.5324 39.4066 12.2275C39.4066 12.7859 39.763 13.1661 40.5828 13.3799L42.2164 13.7958C43.3749 14.0928 44.4798 14.77 44.4798 16.4096ZM31.3214 13.4453V19.071H29.3135V10.3621H31.3214V11.4611H31.4224C31.8145 10.7483 32.5155 10.1898 33.7689 10.1898C35.5392 10.1898 36.46 11.3067 36.46 13.1007V19.0769H34.4581V13.1126C34.4581 12.0849 34.0482 11.4077 33.0086 11.4077C31.969 11.4077 31.3214 12.1562 31.3214 13.4453ZM22.5591 13.4453V19.071H20.5512V6.875H22.5591V11.4552H22.6601C23.0522 10.7423 23.7531 10.1839 25.0066 10.1839C26.7769 10.1839 27.6977 11.3007 27.6977 13.0948V19.071H25.6898V13.1126C25.6898 12.0849 25.2799 11.4077 24.2462 11.4077C23.2066 11.4077 22.5591 12.1562 22.5591 13.4453ZM13.1611 14.7166C13.1611 17.0156 13.8918 18.2868 15.2047 18.2868C16.5116 18.2868 17.2482 17.0334 17.2482 14.7166C17.2482 12.3997 16.5175 11.1463 15.2047 11.1463C13.8977 11.1403 13.1611 12.4116 13.1611 14.7166ZM19.3571 14.7166C19.3571 17.2057 17.8779 19.2492 15.2047 19.2492C12.5314 19.2492 11.0522 17.2116 11.0522 14.7166C11.0522 12.2275 12.5314 10.1839 15.2047 10.1839C17.8779 10.1898 19.3571 12.2275 19.3571 14.7166ZM9.85814 15.3284C9.85814 17.6096 8.75319 19.3502 5.90766 19.3502C3.06212 19.3502 1.95718 17.6096 1.95718 15.3284V14.5799L4.06608 14.0393V15.7146C4.06608 17.3007 4.61261 18.2215 5.90172 18.2215C7.19676 18.2215 7.73736 17.3482 7.73736 15.8868V6.875H9.84626V15.3284H9.85814ZM68.0995 33.3284V27.8274C68.0995 26.568 68.747 25.8314 69.7866 25.8314C70.8262 25.8314 71.2361 26.4967 71.2361 27.5007V33.3284H73.25V27.4828C73.25 25.7304 72.3292 24.6373 70.5589 24.6373C69.2995 24.6373 68.5985 25.1838 68.2065 25.8789H68.1055V24.8036H66.0916V33.3224H68.0995V33.3284ZM58.6956 29.069C58.6956 31.3205 59.4263 32.562 60.7392 32.562C62.052 32.562 62.7827 31.3323 62.7827 29.069C62.7827 26.7997 62.052 25.5759 60.7392 25.5759C59.4263 25.5759 58.6956 26.8175 58.6956 29.069ZM64.8976 29.0749C64.8976 31.5106 63.4124 33.5066 60.7392 33.5066C58.0659 33.5066 56.5808 31.5106 56.5808 29.0749C56.5808 26.6393 58.0659 24.6433 60.7392 24.6433C63.4124 24.6433 64.8976 26.6393 64.8976 29.0749ZM55.7491 30.7264C55.7491 32.4313 54.5015 33.5066 52.2025 33.5066C50.1412 33.5066 48.7808 32.6036 48.6738 31.1363L50.4798 30.6254C50.6639 32.0393 51.2639 32.6036 52.4224 32.6036C53.4976 32.6036 54.1095 32.1106 54.1095 31.2373C54.1095 30.5185 53.6996 30.1977 52.7966 29.9779L51.0917 29.5502C49.9986 29.2769 49.0303 28.5106 49.0303 27.0967C49.0303 25.4274 50.3907 24.6433 52.2857 24.6433C54.1808 24.6433 55.3511 25.4809 55.559 26.669L53.854 27.1799C53.7709 26.1046 53.1412 25.5462 52.1194 25.5462C51.2521 25.5462 50.6699 25.9561 50.6699 26.6393C50.6699 27.1858 51.0263 27.5601 51.8461 27.7621L53.4798 28.172C54.6382 28.4571 55.7491 29.1224 55.7491 30.7264ZM42.5729 27.8274V33.3343H40.559V24.8096H42.5729V25.8848H42.6739C43.0659 25.1838 43.7669 24.6433 45.0263 24.6433C46.7966 24.6433 47.7174 25.7363 47.7174 27.4888V33.3343H45.7036V27.5066C45.7036 26.5027 45.2937 25.8373 44.2541 25.8373C43.2204 25.8314 42.5729 26.5621 42.5729 27.8274ZM33.7986 27.8274V33.3343H31.7848V21.3997H33.7986V25.8848H33.8996C34.2917 25.1838 34.9927 24.6433 36.2521 24.6433C38.0224 24.6433 38.9432 25.7363 38.9432 27.4888V33.3343H36.9293V27.5066C36.9293 26.5027 36.5194 25.8373 35.4798 25.8373C34.4462 25.8314 33.7986 26.5621 33.7986 27.8274ZM24.3947 29.069C24.3947 31.3205 25.1254 32.562 26.4383 32.562C27.7511 32.562 28.4818 31.3323 28.4818 29.069C28.4818 26.8056 27.7511 25.5759 26.4383 25.5759C25.1254 25.5759 24.3947 26.8175 24.3947 29.069ZM30.5967 29.069C30.5967 31.5046 29.1115 33.5006 26.4383 33.5006C23.765 33.5006 22.2799 31.5046 22.2799 29.069C22.2799 26.6333 23.765 24.6373 26.4383 24.6373C29.1115 24.6433 30.5967 26.6333 30.5967 29.069ZM21.0858 29.669C21.0858 31.9026 19.9809 33.6076 17.1294 33.6076C14.2839 33.6076 13.173 31.9026 13.173 29.669V28.9383L15.2878 28.4096V30.0432C15.2878 31.5937 15.8344 32.4967 17.1294 32.4967C18.4244 32.4967 18.971 31.6472 18.971 30.2155V21.4056H21.0858V29.669ZM3.24628 29.6215C3.24628 31.0353 4.25024 32.366 5.88984 32.366C6.62053 32.366 7.4225 32.0927 8.14131 31.665L4.29182 27.4591C3.63836 27.9165 3.24628 28.7363 3.24628 29.6215ZM10.1789 28.4452C10.1789 27.067 9.32943 26.265 7.94527 26.265C7.46409 26.265 6.88785 26.3482 6.2938 26.5858L9.6324 30.269C10.0067 29.6868 10.1789 29.0571 10.1789 28.4452ZM7.48785 23.669C7.48785 22.6116 6.89379 22.0353 5.88389 22.0353C4.89776 22.0353 4.26806 22.5997 4.26806 23.5858C4.26806 24.1145 4.45222 24.5541 5.10568 25.273L5.83637 26.0928C7.0126 25.564 7.48785 24.6433 7.48785 23.669ZM11.6106 27.5244C11.6106 28.564 11.0819 29.7581 10.1611 30.8452L12.3413 33.2452V33.3284H9.66804L8.64626 32.2234C7.38092 33.1086 5.98489 33.6016 4.79677 33.6016C2.71757 33.6016 1.375 32.1343 1.375 30.3818C1.375 29.0512 2.14133 27.7561 3.81064 26.9541L3.79281 26.9185C2.80668 25.8433 2.42648 24.9581 2.42648 24.073C2.42648 22.4393 3.58489 21.1264 5.93736 21.1264C7.98092 21.1264 9.13933 22.1482 9.13933 23.4433C9.13933 24.3462 8.5928 24.9937 7.29775 25.6947L7.3334 25.7601C7.86211 25.5581 8.66408 25.3502 9.37695 25.3502C10.7373 25.3621 11.6106 26.2294 11.6106 27.5244Z" fill="#CAD0E5"/>
</svg>
