<svg width="107" height="27" viewBox="0 0 107 27" fill="none" xmlns="http://www.w3.org/2000/svg">
<g clip-path="url(#clip0_368_1423)">
<path d="M0 7.3335C0 5.12436 1.79231 3.3335 4.00325 3.3335H16.013C18.2239 3.3335 20.0162 5.12436 20.0162 7.3335V19.3335C20.0162 21.5426 18.2239 23.3335 16.013 23.3335H4.00325C1.79231 23.3335 0 21.5426 0 19.3335V7.3335Z" fill="#CAD0E5"/>
<path d="M12.5773 16.4882C11.2888 17.057 9.89295 16.8239 9.35607 16.6363C9.35607 16.7647 9.35022 17.1636 9.3268 17.7324C9.30337 18.3012 9.12182 18.6607 9.03397 18.7693C9.04372 19.1248 9.05155 19.9009 9.0047 20.1616C8.95782 20.4223 8.78995 20.6455 8.71185 20.7245H7.9212C7.99147 20.369 8.26282 20.1419 8.38972 20.0728C8.46 19.3381 8.3214 18.7002 8.24332 18.473C8.16522 18.7495 7.9739 19.3914 7.83335 19.7469C7.69277 20.1024 7.48195 20.4283 7.39407 20.5468H6.80842C6.77912 20.1913 6.97435 20.0728 7.10125 20.0728C7.15982 19.9641 7.30037 19.6225 7.39407 19.1248C7.4878 18.6271 7.35505 17.6929 7.27695 17.2881V16.0142C6.33987 15.5106 5.98847 15.007 5.7542 14.4441C5.5668 13.9938 5.61755 13.3085 5.66635 13.0221C5.60777 12.9135 5.43702 12.6374 5.37352 12.2519C5.28567 11.7187 5.33447 11.3335 5.37352 11.1262C5.31495 11.0669 5.19782 10.7648 5.19782 10.0301C5.19782 9.29539 5.41255 8.91422 5.51992 8.81547V8.48959C5.10995 8.45997 4.69997 8.28222 4.46572 8.04524C4.23145 7.80824 4.40715 7.45274 4.55357 7.33424C4.69997 7.21574 4.8464 7.30462 5.0514 7.24537C5.25637 7.18612 5.43207 7.12687 5.51992 6.94912C5.5902 6.80694 5.4516 6.21839 5.3735 5.94189C5.72492 5.98929 5.94942 6.29739 6.01775 6.44552V5.94189C6.457 6.14927 7.24767 6.65289 7.51122 7.74899C7.72205 8.62587 7.87237 10.4646 7.92117 11.2743C9.04372 11.2842 10.4689 11.1135 11.7573 11.3928C12.9287 11.6467 13.4558 12.163 14.0707 12.163C14.6857 12.163 15.0371 11.8075 15.4764 12.1038C15.9156 12.4 16.1499 13.2295 16.0913 13.8516C16.0445 14.3493 15.6618 14.5132 15.4764 14.533C15.2421 15.3151 15.4764 16.0636 15.6228 16.3401V17.4658C15.6911 17.5646 15.8278 17.8687 15.8278 18.2953C15.8278 18.7219 15.6911 19.0063 15.6228 19.0952C15.7399 19.7587 15.574 20.4381 15.4764 20.6949H14.6857C14.7794 20.4579 14.9395 20.3986 15.0078 20.3986C15.1484 19.664 15.0469 18.9865 14.9785 18.7397C14.5334 18.479 14.2464 18.0188 14.1586 17.8213C14.1684 17.9892 14.141 18.4553 13.9536 18.9767C13.7662 19.4981 13.4851 19.8061 13.3679 19.895V20.5171H12.5773C12.5773 20.1379 12.792 20.0629 12.8994 20.0728C13.0361 19.8259 13.3679 19.4507 13.3679 18.71C13.3679 18.0851 12.9287 17.7917 12.6066 17.2288C12.4535 16.9614 12.5285 16.6265 12.5773 16.4882Z" fill="url(#paint0_linear_368_1423)"/>
<path d="M12.5773 16.4882C11.2888 17.057 9.89295 16.8239 9.35607 16.6363C9.35607 16.7647 9.35022 17.1636 9.3268 17.7324C9.30337 18.3012 9.12182 18.6607 9.03397 18.7693C9.04372 19.1248 9.05155 19.9009 9.0047 20.1616C8.95782 20.4223 8.78995 20.6455 8.71185 20.7245H7.9212C7.99147 20.369 8.26282 20.1419 8.38972 20.0728C8.46 19.3381 8.3214 18.7002 8.24332 18.473C8.16522 18.7495 7.9739 19.3914 7.83335 19.7469C7.69277 20.1024 7.48195 20.4283 7.39407 20.5468H6.80842C6.77912 20.1913 6.97435 20.0728 7.10125 20.0728C7.15982 19.9641 7.30037 19.6225 7.39407 19.1248C7.4878 18.6271 7.35505 17.6929 7.27695 17.2881V16.0142C6.33987 15.5106 5.98847 15.007 5.7542 14.4441C5.5668 13.9938 5.61755 13.3085 5.66635 13.0221C5.60777 12.9135 5.43702 12.6374 5.37352 12.2519C5.28567 11.7187 5.33447 11.3335 5.37352 11.1262C5.31495 11.0669 5.19782 10.7648 5.19782 10.0301C5.19782 9.29539 5.41255 8.91422 5.51992 8.81547V8.48959C5.10995 8.45997 4.69997 8.28222 4.46572 8.04524C4.23145 7.80824 4.40715 7.45274 4.55357 7.33424C4.69997 7.21574 4.8464 7.30462 5.0514 7.24537C5.25637 7.18612 5.43207 7.12687 5.51992 6.94912C5.5902 6.80694 5.4516 6.21839 5.3735 5.94189C5.72492 5.98929 5.94942 6.29739 6.01775 6.44552V5.94189C6.457 6.14927 7.24767 6.65289 7.51122 7.74899C7.72205 8.62587 7.87237 10.4646 7.92117 11.2743C9.04372 11.2842 10.4689 11.1135 11.7573 11.3928C12.9287 11.6467 13.4558 12.163 14.0707 12.163C14.6857 12.163 15.0371 11.8075 15.4764 12.1038C15.9156 12.4 16.1499 13.2295 16.0913 13.8516C16.0445 14.3493 15.6618 14.5132 15.4764 14.533C15.2421 15.3151 15.4764 16.0636 15.6228 16.3401V17.4658C15.6911 17.5646 15.8278 17.8687 15.8278 18.2953C15.8278 18.7219 15.6911 19.0063 15.6228 19.0952C15.7399 19.7587 15.574 20.4381 15.4764 20.6949H14.6857C14.7794 20.4579 14.9395 20.3986 15.0078 20.3986C15.1484 19.664 15.0469 18.9865 14.9785 18.7397C14.5334 18.479 14.2464 18.0188 14.1586 17.8213C14.1684 17.9892 14.141 18.4553 13.9536 18.9767C13.7662 19.4981 13.4851 19.8061 13.3679 19.895V20.5171H12.5773C12.5773 20.1379 12.792 20.0629 12.8994 20.0728C13.0361 19.8259 13.3679 19.4507 13.3679 18.71C13.3679 18.0851 12.9287 17.7917 12.6066 17.2288C12.4535 16.9614 12.5285 16.6265 12.5773 16.4882Z" fill="black"/>
<path d="M33.9297 18.0946V8.26318H36.0199V18.0946H33.9297Z" fill="#CAD0E5"/>
<path fill-rule="evenodd" clip-rule="evenodd" d="M85.3579 18.2006C84.6787 18.2006 84.0669 18.0505 83.5224 17.7501C82.9774 17.441 82.5442 17.0126 82.2227 16.4649C81.9102 15.9172 81.7539 15.2724 81.7539 14.5304C81.7539 13.7796 81.9102 13.1303 82.2227 12.5827C82.5442 12.035 82.9774 11.611 83.5224 11.3107C84.0669 11.0103 84.6787 10.8602 85.3579 10.8602C85.9652 10.8602 86.4969 10.9927 86.9524 11.2577C87.1614 11.3794 87.3489 11.5299 87.5147 11.7094V8.26318H89.6049V18.0946H87.6089V17.2715C87.4287 17.4866 87.2189 17.6638 86.9794 17.8031C86.5324 18.0681 85.9919 18.2006 85.3579 18.2006ZM85.7199 16.5046C86.0592 16.5046 86.3669 16.4251 86.6442 16.2661C86.9212 16.1071 87.1397 15.8819 87.3004 15.5904C87.4702 15.2901 87.5552 14.9367 87.5552 14.5304C87.5552 14.1152 87.4702 13.7619 87.3004 13.4704C87.1397 13.1789 86.9212 12.9537 86.6442 12.7947C86.3669 12.6357 86.0592 12.5562 85.7199 12.5562C85.3714 12.5562 85.0584 12.6357 84.7819 12.7947C84.5049 12.9537 84.2814 13.1789 84.1119 13.4704C83.9512 13.7619 83.8709 14.1152 83.8709 14.5304C83.8709 14.9367 83.9512 15.2901 84.1119 15.5904C84.2814 15.8819 84.5049 16.1071 84.7819 16.2661C85.0584 16.4251 85.3714 16.5046 85.7199 16.5046Z" fill="#CAD0E5"/>
<path fill-rule="evenodd" clip-rule="evenodd" d="M92.9464 17.7234C93.5719 18.0413 94.2954 18.2003 95.1172 18.2003C95.7692 18.2003 96.3452 18.1032 96.8457 17.9088C97.3457 17.7057 97.7609 17.4186 98.0914 17.0476L96.9797 15.8551C96.7384 16.0848 96.4707 16.257 96.1757 16.3719C95.8897 16.4867 95.5549 16.5441 95.1707 16.5441C94.7419 16.5441 94.3667 16.469 94.0452 16.3189C93.7327 16.1599 93.4869 15.9346 93.3084 15.6431C93.2159 15.4795 93.1487 15.3029 93.1064 15.1131H98.5607L98.5647 15.0737C98.5719 14.9973 98.5797 14.9177 98.5874 14.8349C98.5962 14.7289 98.6007 14.6361 98.6007 14.5566C98.6007 13.7881 98.4354 13.13 98.1052 12.5824C97.7744 12.0259 97.3234 11.6019 96.7517 11.3104C96.1889 11.01 95.5549 10.8599 94.8492 10.8599C94.1164 10.8599 93.4602 11.0189 92.8797 11.3369C92.2987 11.646 91.8387 12.0789 91.4994 12.6354C91.1687 13.183 91.0039 13.8146 91.0039 14.5301C91.0039 15.2368 91.1734 15.8684 91.5132 16.4249C91.8524 16.9725 92.3302 17.4054 92.9464 17.7234ZM93.0824 13.9074C93.1172 13.6865 93.1834 13.4878 93.2817 13.3111C93.4334 13.0284 93.6432 12.812 93.9112 12.6619C94.1882 12.5029 94.5052 12.4234 94.8627 12.4234C95.2197 12.4234 95.5327 12.5029 95.8007 12.6619C96.0687 12.812 96.2784 13.024 96.4302 13.2979C96.5307 13.4796 96.5982 13.6828 96.6322 13.9074H93.0824Z" fill="#CAD0E5"/>
<path d="M101.656 14.4992L98.8828 18.0948H101.161L102.798 15.9112L104.376 18.0948H106.748L103.96 14.4524L106.641 10.9663H104.417L102.851 13.0482L101.321 10.9663H98.9768L101.656 14.4992Z" fill="#CAD0E5"/>
<path d="M78.8538 11.2044C78.4073 10.9747 77.8983 10.8599 77.3263 10.8599C76.7101 10.8599 76.1611 10.9879 75.6786 11.2441C75.3941 11.3952 75.1483 11.5848 74.9416 11.8128V10.9659H72.9453V18.0943H75.0356V14.5699C75.0356 14.1282 75.1068 13.766 75.2498 13.4834C75.4016 13.2007 75.6068 12.9931 75.8663 12.8606C76.1343 12.7193 76.4336 12.6486 76.7638 12.6486C77.2283 12.6486 77.5858 12.7855 77.8356 13.0594C78.0951 13.3332 78.2243 13.7572 78.2243 14.3314V18.0943H80.3146V14.0134C80.3146 13.289 80.1851 12.6972 79.9258 12.2379C79.6668 11.7697 79.3093 11.4252 78.8538 11.2044Z" fill="#CAD0E5"/>
<path d="M68.6992 18.0943V8.81934H70.87V18.0943H68.6992Z" fill="#CAD0E5"/>
<path fill-rule="evenodd" clip-rule="evenodd" d="M64.7027 17.2087V18.0943H66.659V14.0266C66.659 12.9401 66.3552 12.1407 65.748 11.6284C65.1407 11.116 64.2877 10.8599 63.189 10.8599C62.6172 10.8599 62.0545 10.9349 61.5008 11.0851C60.9468 11.2353 60.4735 11.4473 60.0805 11.7211L60.8307 13.1654C61.0897 12.9622 61.4022 12.8032 61.7687 12.6884C62.144 12.5647 62.5233 12.5029 62.9075 12.5029C63.4703 12.5029 63.8858 12.6265 64.1538 12.8739C64.4303 13.1212 64.5688 13.4657 64.5688 13.9074H62.9075C62.1748 13.9074 61.5813 14.0001 61.1258 14.1856C60.67 14.3623 60.3347 14.6096 60.1205 14.9276C59.9152 15.2456 59.8125 15.6166 59.8125 16.0406C59.8125 16.4469 59.9198 16.8135 60.1343 17.1404C60.3485 17.4672 60.6565 17.7278 61.0585 17.9221C61.4602 18.1076 61.9428 18.2003 62.5055 18.2003C63.1395 18.2003 63.6578 18.0811 64.0598 17.8426C64.331 17.6816 64.5455 17.4703 64.7027 17.2087ZM64.5688 15.1131H63.1355C62.644 15.1131 62.3047 15.1926 62.1172 15.3516C61.9382 15.5106 61.8493 15.7094 61.8493 15.9479C61.8493 16.2129 61.9518 16.4249 62.157 16.5839C62.3715 16.734 62.6617 16.8091 63.0282 16.8091C63.3765 16.8091 63.689 16.7296 63.9663 16.5706C64.2428 16.4028 64.444 16.1599 64.5688 15.8419V15.1131Z" fill="#CAD0E5"/>
<path d="M55.4583 10.8599C56.0296 10.8599 56.5343 10.9747 56.9721 11.2044C57.4186 11.4252 57.7668 11.7697 58.0171 12.2379C58.2761 12.6972 58.4061 13.289 58.4061 14.0134V18.0943H56.3158V14.3314C56.3158 13.7572 56.1951 13.3332 55.9538 13.0594C55.7126 12.7855 55.3733 12.6486 54.9356 12.6486C54.6316 12.6486 54.3596 12.7193 54.1183 12.8606C53.8773 12.9931 53.6896 13.1963 53.5556 13.4701C53.4218 13.7439 53.3546 14.0929 53.3546 14.5169V18.0943H51.2643V14.3314C51.2643 13.7572 51.1438 13.3332 50.9028 13.0594C50.6701 12.7855 50.3356 12.6486 49.8976 12.6486C49.5938 12.6486 49.3218 12.7193 49.0803 12.8606C48.8393 12.9931 48.6516 13.1963 48.5176 13.4701C48.3836 13.7439 48.3166 14.0929 48.3166 14.5169V18.0943H46.2266V10.9659H48.2228V11.7883C48.4168 11.5676 48.6446 11.3862 48.9063 11.2441C49.3708 10.9879 49.8976 10.8599 50.4871 10.8599C51.1481 10.8599 51.7243 11.0277 52.2158 11.3634C52.4771 11.5341 52.6923 11.7532 52.8608 12.0205C53.0683 11.7597 53.3223 11.5363 53.6223 11.3501C54.1583 11.0233 54.7701 10.8599 55.4583 10.8599Z" fill="#CAD0E5"/>
<path fill-rule="evenodd" clip-rule="evenodd" d="M42.3785 17.2086V18.0943H44.3348V14.0266C44.3348 12.9401 44.031 12.1407 43.4238 11.6284C42.8163 11.116 41.9633 10.8599 40.8645 10.8599C40.293 10.8599 39.7303 10.9349 39.1763 11.0851C38.6225 11.2353 38.1493 11.4473 37.756 11.7211L38.5065 13.1654C38.7655 12.9622 39.078 12.8032 39.4443 12.6884C39.8195 12.5647 40.199 12.5029 40.5833 12.5029C41.146 12.5029 41.5613 12.6265 41.8293 12.8739C42.1063 13.1212 42.2445 13.4657 42.2445 13.9074H40.5833C39.8508 13.9074 39.2568 14.0001 38.8013 14.1856C38.3458 14.3623 38.0108 14.6096 37.7963 14.9276C37.5908 15.2456 37.4883 15.6166 37.4883 16.0406C37.4883 16.4469 37.5953 16.8135 37.8098 17.1404C38.024 17.4672 38.3323 17.7278 38.7343 17.9221C39.136 18.1076 39.6185 18.2003 40.1813 18.2003C40.8155 18.2003 41.3335 18.0811 41.7355 17.8426C42.0068 17.6816 42.2213 17.4702 42.3785 17.2086ZM42.2445 15.1131H40.811C40.3198 15.1131 39.9803 15.1926 39.7928 15.3516C39.614 15.5106 39.5248 15.7094 39.5248 15.9479C39.5248 16.2129 39.6275 16.4249 39.8328 16.5839C40.0473 16.734 40.3375 16.8091 40.7038 16.8091C41.0523 16.8091 41.3648 16.7296 41.6418 16.5706C41.9185 16.4028 42.1195 16.1599 42.2445 15.8419V15.1131Z" fill="#CAD0E5"/>
<path d="M25.9766 8.81934V18.0943H32.8501V16.3453H28.1471V8.81934H25.9766Z" fill="#CAD0E5"/>
</g>
<defs>
<linearGradient id="paint0_linear_368_1423" x1="5.28865" y1="7.18612" x2="17.9716" y2="17.8152" gradientUnits="userSpaceOnUse">
<stop offset="0.0619804" stop-color="#F6DCD9"/>
<stop offset="0.325677" stop-color="#FFA5EA"/>
<stop offset="0.589257" stop-color="#45DFF8"/>
<stop offset="1" stop-color="#BC8DEB"/>
</linearGradient>
<clipPath id="clip0_368_1423">
<rect width="106.667" height="26.6667" fill="white"/>
</clipPath>
</defs>
</svg>
