<svg width="256" height="64" viewBox="0 0 256 64" fill="none" xmlns="http://www.w3.org/2000/svg">
<g clip-path="url(#clip0_1563_4607)">
<mask id="llama-cutout">
<rect x="0" y="0" width="48.0389" height="64" fill="white"/>
<path d="M30.187 39.5729C27.0947 40.938 23.7446 40.3786 22.4561 39.9284C22.4561 40.2364 22.4421 41.1939 22.3859 42.559C22.3297 43.9241 21.8939 44.7868 21.6831 45.0475C21.7065 45.9007 21.7253 47.7634 21.6128 48.3891C21.5003 49.0148 21.0974 49.5504 20.91 49.74H19.0124C19.1811 48.8868 19.8323 48.3417 20.1369 48.1758C20.3056 46.4125 19.9729 44.8816 19.7855 44.3365C19.5981 45.0001 19.1389 46.5405 18.8016 47.3937C18.4642 48.2469 17.9582 49.029 17.7473 49.3134H16.3418C16.2715 48.4602 16.74 48.1758 17.0446 48.1758C17.1851 47.9151 17.5225 47.0951 17.7473 45.9007C17.9723 44.7062 17.6537 42.4642 17.4662 41.4925V38.4353C15.2173 37.2266 14.3739 36.018 13.8116 34.6671C13.3619 33.5863 13.4837 31.9416 13.6008 31.2543C13.4602 30.9936 13.0504 30.331 12.898 29.4058C12.6872 28.126 12.8043 27.2017 12.898 26.704C12.7574 26.5618 12.4763 25.8366 12.4763 24.0733C12.4763 22.3101 12.9917 21.3953 13.2494 21.1583V20.3762C12.2654 20.3051 11.2815 19.8785 10.7193 19.3098C10.157 18.741 10.5787 17.8878 10.9301 17.6034C11.2815 17.319 11.6329 17.5323 12.1249 17.3901C12.6169 17.2479 13.0385 17.1057 13.2494 16.6791C13.418 16.3378 13.0854 14.9253 12.898 14.2617C13.7414 14.3755 14.2802 15.1149 14.4442 15.4704V14.2617C15.4984 14.7594 17.396 15.9681 18.0285 18.5988C18.5345 20.7033 18.8953 25.1161 19.0124 27.0595C21.7065 27.0832 25.1269 26.6735 28.2192 27.3439C31.0304 27.9534 32.2955 29.1925 33.7714 29.1925C35.2472 29.1925 36.0906 28.3393 37.1449 29.0503C38.1991 29.7613 38.7613 31.752 38.6207 33.2451C38.5083 34.4395 37.5899 34.833 37.1449 34.8804C36.5826 36.7574 37.1449 38.5538 37.4962 39.2174V41.9191C37.6603 42.1561 37.9882 42.8861 37.9882 43.9099C37.9882 44.9337 37.6603 45.6163 37.4962 45.8296C37.7774 47.4222 37.3791 49.0527 37.1449 49.6689H35.2472C35.4722 49.1001 35.8564 48.9579 36.0203 48.9579C36.3577 47.1947 36.1141 45.5689 35.9501 44.9764C34.8818 44.3507 34.193 43.2463 33.9822 42.7723C34.0057 43.1752 33.94 44.2938 33.4903 45.5452C33.0404 46.7965 32.3657 47.5359 32.0846 47.7492V49.2423H30.187C30.187 48.3322 30.7024 48.1521 30.9601 48.1758C31.2881 47.5833 32.0846 46.6828 32.0846 44.9053C32.0846 43.4055 31.0304 42.7012 30.2573 41.3503C29.89 40.7085 30.0699 39.9047 30.187 39.5729Z" fill="black"/>
</mask>
<path d="M0 17.6C0 12.2981 4.30155 8 9.6078 8H38.4311C43.7373 8 48.0389 12.2981 48.0389 17.6V46.4C48.0389 51.702 43.7373 56 38.4311 56H9.6078C4.30154 56 0 51.702 0 46.4V17.6Z" fill="white" mask="url(#llama-cutout)"/>
<path d="M81.4297 43.4275V19.832H86.4463V43.4275H81.4297Z" fill="white"/>
<path fill-rule="evenodd" clip-rule="evenodd" d="M204.861 43.6819C203.23 43.6819 201.762 43.3216 200.455 42.6007C199.147 41.8587 198.108 40.8306 197.336 39.5161C196.586 38.2017 196.211 36.6541 196.211 34.8733C196.211 33.0714 196.586 31.5132 197.336 30.1988C198.108 28.8844 199.147 27.8668 200.455 27.146C201.762 26.4252 203.23 26.0648 204.861 26.0648C206.318 26.0648 207.594 26.3828 208.687 27.0188C209.189 27.3109 209.639 27.6722 210.037 28.1029V19.832H215.053V43.4275H210.263V41.452C209.83 41.9681 209.327 42.3935 208.752 42.7279C207.679 43.3639 206.382 43.6819 204.861 43.6819ZM205.729 39.6115C206.544 39.6115 207.282 39.4207 207.948 39.0391C208.612 38.6575 209.137 38.1169 209.523 37.4173C209.93 36.6966 210.134 35.8486 210.134 34.8733C210.134 33.877 209.93 33.0289 209.523 32.3294C209.137 31.6298 208.612 31.0892 207.948 30.7076C207.282 30.326 206.544 30.1352 205.729 30.1352C204.893 30.1352 204.142 30.326 203.478 30.7076C202.813 31.0892 202.277 31.6298 201.87 32.3294C201.484 33.0289 201.292 33.877 201.292 34.8733C201.292 35.8486 201.484 36.6966 201.87 37.4173C202.277 38.1169 202.813 38.6575 203.478 39.0391C204.142 39.4207 204.893 39.6115 205.729 39.6115Z" fill="white"/>
<path fill-rule="evenodd" clip-rule="evenodd" d="M223.068 42.5369C224.569 43.2999 226.306 43.6815 228.278 43.6815C229.843 43.6815 231.225 43.4484 232.426 42.9819C233.626 42.4944 234.623 41.8055 235.416 40.9151L232.748 38.0531C232.169 38.6042 231.526 39.0176 230.818 39.2933C230.132 39.5688 229.329 39.7067 228.406 39.7067C227.377 39.7067 226.477 39.5264 225.705 39.1661C224.955 38.7845 224.365 38.2439 223.937 37.5443C223.715 37.1517 223.554 36.7277 223.452 36.2723H236.542L236.552 36.1776C236.569 35.9942 236.588 35.8032 236.607 35.6045C236.628 35.3501 236.638 35.1275 236.638 34.9367C236.638 33.0923 236.242 31.5128 235.449 30.1985C234.655 28.8629 233.573 27.8453 232.201 27.1457C230.85 26.4248 229.329 26.0645 227.635 26.0645C225.876 26.0645 224.301 26.4461 222.908 27.2093C221.514 27.9512 220.41 28.9901 219.595 30.3257C218.802 31.64 218.406 33.1559 218.406 34.8731C218.406 36.569 218.813 38.0849 219.628 39.4205C220.443 40.7348 221.589 41.7737 223.068 42.5369ZM223.395 33.3785C223.478 32.8485 223.637 32.3715 223.873 31.9475C224.237 31.269 224.74 30.7496 225.384 30.3893C226.048 30.0077 226.809 29.8169 227.667 29.8169C228.524 29.8169 229.275 30.0077 229.918 30.3893C230.562 30.7496 231.065 31.2584 231.429 31.9157C231.67 32.3518 231.832 32.8394 231.914 33.3785H223.395Z" fill="white"/>
<path d="M243.976 34.7973L237.32 43.4266H242.787L246.716 38.1862L250.505 43.4266H256.197L249.504 34.6849L255.94 26.3184H250.602L246.843 31.3149L243.173 26.3184H237.546L243.976 34.7973Z" fill="white"/>
<path d="M189.251 26.8893C188.179 26.338 186.958 26.0625 185.585 26.0625C184.106 26.0625 182.788 26.3698 181.63 26.9847C180.947 27.3474 180.358 27.8024 179.861 28.3496V26.3169H175.07V43.4252H180.087V34.9665C180.087 33.9064 180.258 33.0373 180.601 32.3589C180.965 31.6804 181.458 31.1823 182.081 30.8643C182.724 30.5251 183.442 30.3555 184.235 30.3555C185.35 30.3555 186.208 30.6841 186.807 31.3413C187.43 31.9984 187.74 33.016 187.74 34.3941V43.4252H192.757V33.6309C192.757 31.8925 192.446 30.472 191.824 29.3697C191.202 28.246 190.344 27.4192 189.251 26.8893Z" fill="white"/>
<path d="M164.875 43.426V21.166H170.085V43.426H164.875Z" fill="white"/>
<path fill-rule="evenodd" clip-rule="evenodd" d="M155.283 41.2996V43.4252H159.978V33.6627C159.978 31.0551 159.249 29.1364 157.792 27.9069C156.335 26.6773 154.287 26.0625 151.65 26.0625C150.278 26.0625 148.928 26.2426 147.599 26.6031C146.269 26.9635 145.133 27.4723 144.19 28.1295L145.991 31.5957C146.612 31.108 147.362 30.7264 148.242 30.4509C149.142 30.154 150.053 30.0057 150.975 30.0057C152.325 30.0057 153.323 30.3025 153.966 30.8961C154.629 31.4896 154.962 32.3164 154.962 33.3765H150.975C149.216 33.3765 147.792 33.5991 146.699 34.0443C145.605 34.4683 144.8 35.0619 144.286 35.8251C143.793 36.5883 143.547 37.4787 143.547 38.4963C143.547 39.4714 143.804 40.3513 144.319 41.1357C144.833 41.92 145.572 42.5455 146.537 43.0118C147.501 43.457 148.659 43.6796 150.01 43.6796C151.532 43.6796 152.775 43.3935 153.74 42.8211C154.391 42.4347 154.906 41.9275 155.283 41.2996ZM154.962 36.2703H151.522C150.342 36.2703 149.528 36.4611 149.078 36.8427C148.649 37.2243 148.435 37.7013 148.435 38.2737C148.435 38.9097 148.681 39.4185 149.174 39.8001C149.688 40.1605 150.385 40.3407 151.265 40.3407C152.1 40.3407 152.85 40.1499 153.516 39.7683C154.179 39.3655 154.662 38.7825 154.962 38.0193V36.2703Z" fill="white"/>
<path d="M133.102 26.0625C134.473 26.0625 135.684 26.338 136.735 26.8893C137.806 27.4192 138.642 28.246 139.243 29.3697C139.864 30.472 140.176 31.8925 140.176 33.6309V43.4252H135.16V34.3941C135.16 33.016 134.87 31.9984 134.291 31.3413C133.712 30.6841 132.898 30.3555 131.847 30.3555C131.117 30.3555 130.465 30.5251 129.886 30.8643C129.307 31.1823 128.857 31.6699 128.535 32.3271C128.214 32.9842 128.053 33.8217 128.053 34.8393V43.4252H123.036V34.3941C123.036 33.016 122.747 31.9984 122.168 31.3413C121.61 30.6841 120.807 30.3555 119.756 30.3555C119.027 30.3555 118.374 30.5251 117.794 30.8643C117.216 31.1823 116.765 31.6699 116.444 32.3271C116.122 32.9842 115.961 33.8217 115.961 34.8393V43.4252H110.945V26.3169H115.736V28.2908C116.202 27.761 116.749 27.3256 117.377 26.9847C118.492 26.3698 119.756 26.0625 121.171 26.0625C122.757 26.0625 124.14 26.4652 125.32 27.2709C125.947 27.6808 126.463 28.2065 126.868 28.848C127.366 28.2222 127.975 27.6859 128.695 27.2391C129.982 26.4547 131.45 26.0625 133.102 26.0625Z" fill="white"/>
<path fill-rule="evenodd" clip-rule="evenodd" d="M101.713 41.2994V43.4252H106.408V33.6627C106.408 31.0551 105.679 29.1364 104.222 27.9069C102.764 26.6773 100.717 26.0625 98.0796 26.0625C96.708 26.0625 95.3574 26.2426 94.0278 26.6031C92.6988 26.9635 91.563 27.4723 90.6192 28.1295L92.4204 31.5957C93.042 31.108 93.792 30.7264 94.671 30.4509C95.5716 30.154 96.4824 30.0057 97.4046 30.0057C98.7552 30.0057 99.7518 30.3025 100.395 30.8961C101.06 31.4896 101.392 32.3164 101.392 33.3765H97.4046C95.6466 33.3765 94.221 33.5991 93.1278 34.0443C92.0346 34.4683 91.2306 35.0619 90.7158 35.8251C90.2226 36.5883 89.9766 37.4787 89.9766 38.4963C89.9766 39.4714 90.2334 40.3513 90.7482 41.1357C91.2624 41.92 92.0022 42.5455 92.967 43.0118C93.9312 43.457 95.0892 43.6796 96.4398 43.6796C97.962 43.6796 99.2052 43.3935 100.17 42.8211C100.821 42.4346 101.336 41.9274 101.713 41.2994ZM101.392 36.2703H97.9512C96.7722 36.2703 95.9574 36.4611 95.5074 36.8427C95.0784 37.2243 94.8642 37.7013 94.8642 38.2737C94.8642 38.9097 95.1108 39.4185 95.6034 39.8001C96.1182 40.1605 96.8148 40.3407 97.6938 40.3407C98.5302 40.3407 99.2802 40.1499 99.945 39.7683C100.609 39.3655 101.092 38.7825 101.392 38.0193V36.2703Z" fill="white"/>
<path d="M62.3438 21.166V43.426H78.8401V39.2284H67.553V21.166H62.3438Z" fill="white"/>
</g>
<defs>
<clipPath id="clip0_1563_4607">
<rect width="256" height="64" fill="white"/>
</clipPath>
</defs>
</svg>
