<?xml version="1.0" encoding="UTF-8" standalone="no"?>
<svg
   width="92.000618"
   height="29.870001"
   viewBox="0 0 92.000618 29.870001"
   fill="none"
   version="1.1"
   id="svg7"
   sodipodi:docname="Neo4j.svg"
   inkscape:export-filename="Neo4j.svg"
   inkscape:export-xdpi="45"
   inkscape:export-ydpi="45"
   xmlns:inkscape="http://www.inkscape.org/namespaces/inkscape"
   xmlns:sodipodi="http://sodipodi.sourceforge.net/DTD/sodipodi-0.dtd"
   xmlns="http://www.w3.org/2000/svg"
   xmlns:svg="http://www.w3.org/2000/svg">
  <defs
     id="defs7" />
  <sodipodi:namedview
     id="namedview7"
     pagecolor="#ffffff"
     bordercolor="#000000"
     borderopacity="0.25"
     inkscape:showpageshadow="2"
     inkscape:pageopacity="0.0"
     inkscape:pagecheckerboard="0"
     inkscape:deskcolor="#d1d1d1">
    <inkscape:page
       x="0"
       y="0"
       width="92.000618"
       height="29.870001"
       id="page2"
       margin="0"
       bleed="0" />
  </sodipodi:namedview>
  <g
     id="g7"
     transform="matrix(0.83696576,0,0,0.83696576,8.105263,-11.953509)"
     inkscape:export-filename="Neo4j.svg"
     inkscape:export-xdpi="86.779999"
     inkscape:export-ydpi="86.779999">
    <path
       d="m 17.5164,23.8887 c -5.0043,0 -8.34993,2.9062 -8.34993,8.5626 v 4.0261 c 0.49618,-0.241 1.03493,-0.3686 1.61613,-0.3686 0.5812,0 1.1341,0.1418 1.6303,0.3828 v -4.0403 c 0,-3.6575 2.013,-5.543 5.1035,-5.543 3.0905,0 5.1036,1.8855 5.1036,5.543 v 8.8036 h 3.2464 v -8.8036 c 0,-5.6848 -3.3599,-8.5626 -8.35,-8.5626 z"
       fill="#cad0e5"
       id="path1" />
    <path
       d="m 27.6388,32.7915 c 0,-5.1318 3.7709,-8.9028 9.1013,-8.9028 5.3304,0 9.0446,3.771 9.0446,8.9028 v 1.205 H 31.0553 c 0.482,3.0196 2.7361,4.6925 5.6848,4.6925 2.1974,0 3.7284,-0.6805 4.7208,-2.1549 h 3.6008 c -1.3042,3.1472 -4.3805,5.1745 -8.3216,5.1745 -5.3445,-0.0142 -9.1013,-3.771 -9.1013,-8.9171 z M 42.354,31.0904 c -0.6521,-2.7077 -2.8778,-4.1821 -5.6139,-4.1821 -2.7361,0 -4.9334,1.5027 -5.5855,4.1821 z"
       fill="#cad0e5"
       id="path2" />
    <path
       d="m 47.5285,32.7915 c 0,-5.1318 3.7709,-8.9028 9.1013,-8.9028 5.3303,0 9.1013,3.771 9.1013,8.9028 0,5.1319 -3.771,8.9029 -9.1013,8.9029 -5.3304,0 -9.1013,-3.7568 -9.1013,-8.9029 z m 14.9136,0 c 0,-3.4307 -2.3249,-5.8832 -5.8265,-5.8832 -3.5016,0 -5.8265,2.4667 -5.8265,5.8832 0,3.4166 2.3249,5.8833 5.8265,5.8833 3.5016,0 5.8265,-2.4525 5.8265,-5.8833 z"
       fill="#cad0e5"
       id="path3" />
    <path
       d="m 84.3305,44.6148 h 0.3827 c 2.084,0 2.8779,-0.9215 2.8779,-3.3173 V 24.4558 h 3.2464 v 16.629 c 0,4.1821 -1.6445,6.3369 -5.8265,6.3369 h -0.6805 z"
       fill="#cad0e5"
       id="path4" />
    <path
       d="m 82.7,42.8852 h -3.2464 v -4.0119 h -8.2507 c -1.6445,0 -3.0763,-0.8081 -3.7285,-2.0981 -0.6095,-1.2192 -0.4394,-2.651 0.4395,-3.856 l 7.4143,-9.7251 c 1.0632,-1.4318 2.8637,-2.0131 4.5648,-1.446 1.7012,0.567 2.807,2.0839 2.807,3.8702 v 10.363 h 2.4383 v 2.892 H 82.7 Z m -12.05,-8.194 c -0.0993,0.1276 -0.156,0.2977 -0.156,0.482 0,0.4537 0.3686,0.8222 0.8223,0.8222 h 8.1515 v -10.448 c 0,-0.5387 -0.397,-0.7372 -0.5671,-0.7939 -0.0709,-0.0142 -0.1701,-0.0425 -0.2977,-0.0425 -0.1985,0 -0.4395,0.0708 -0.6521,0.3402 z"
       fill="#cad0e5"
       id="path5" />
    <path
       d="m 1.46884,32.9476 c -0.42529,0.2126 -0.822235,0.567 -1.105764,1.0348 -0.2835301,0.4679 -0.3969419,0.964 -0.3544124,1.4602 0.0425295,0.8931 0.5387064,1.7154 1.3467664,2.169 0.75135,0.4253 1.60194,0.3261 2.41,0.1418 0.99236,-0.2552 1.84295,-0.3544 2.73606,0.1843 0,0 0,0 0.04253,0 1.53106,0.8931 1.53106,3.133 0,4.0261 0,0 0,0 -0.04253,0 -0.89311,0.5387 -1.7437,0.4253 -2.73606,0.1843 -0.7797,-0.2127 -1.63029,-0.3261 -2.41,0.1418 -0.822237,0.4678 -1.275884,1.3184 -1.3467664,2.169 -0.0425295,0.4961 0.0708823,0.9923 0.3544124,1.4601 0.283529,0.4679 0.637944,0.8223 1.105764,1.0349 0.77971,0.397 1.74371,0.397 2.55177,-0.0709 0.75135,-0.4253 1.10577,-1.2475 1.31841,-2.0272 0.28353,-0.9924 0.60959,-1.7862 1.53106,-2.2824 0.89312,-0.5387 1.74371,-0.4253 2.73606,-0.1843 0.77976,0.2126 1.63026,0.3261 2.40996,-0.1418 0.8223,-0.4678 1.2759,-1.3184 1.3468,-2.169 0,-0.0709 0,-0.1134 0,-0.1843 0,-0.0708 0,-0.1134 0,-0.1843 -0.0425,-0.8931 -0.5387,-1.7153 -1.3468,-2.169 C 11.2648,37.1154 10.4142,37.2147 9.60614,37.399 8.61379,37.6541 7.7632,37.7534 6.87008,37.2147 5.97696,36.676 5.62255,35.9246 5.33902,34.9323 5.12638,34.1526 4.77196,33.3587 4.02061,32.905 3.19837,32.5648 2.24855,32.5648 1.46884,32.9476 Z"
       fill="#cad0e5"
       id="path6" />
    <path
       d="m 89.2214,17.5519 c -1.5311,0 -2.7786,1.2475 -2.7786,2.7786 0,1.531 1.2475,2.7786 2.7786,2.7786 1.5311,0 2.7786,-1.2476 2.7786,-2.7786 0,-1.5311 -1.2475,-2.7786 -2.7786,-2.7786 z"
       fill="#cad0e5"
       id="path7" />
  </g>
</svg>
