<svg width="109" height="27" viewBox="0 0 109 27" fill="none" xmlns="http://www.w3.org/2000/svg">
<g clip-path="url(#clip0_757_3085)">
<path d="M29.3954 9.07359C29.6873 9.07359 29.9375 9.30987 29.9375 9.61564V19.97C29.9375 20.2619 29.6734 20.4982 29.3954 20.4982H27.9917C27.7276 20.4982 27.4635 20.2897 27.4635 19.9978V19.0388C26.7547 20.0812 25.5316 20.804 23.7526 20.804C20.7783 20.804 18.9437 18.8304 18.9437 15.8978V9.58784C18.9437 9.29597 19.2078 9.0597 19.4858 9.0597H20.8895C21.1814 9.0597 21.4177 9.29597 21.4177 9.58784V15.4947C21.4177 17.3988 22.4183 18.6636 24.3919 18.6636C26.3238 18.6636 27.4635 17.3571 27.4635 15.5225V9.58784C27.4635 9.29597 27.7276 9.0597 27.9917 9.0597L29.3954 9.07359ZM8.68659 3.3335C3.87769 3.3335 0 7.0722 0 12.0618C0 17.0653 3.87769 20.7901 8.68659 20.7901C9.5066 20.7901 10.2988 20.6789 11.0493 20.4704L11.9944 22.9026C12.0917 23.1667 12.2863 23.3335 12.6338 23.3335H14.1348C14.4962 23.3335 14.7603 23.0972 14.5935 22.6386L13.3704 19.4558C15.7748 17.9409 17.3732 15.2584 17.3732 12.0479C17.3732 7.0722 13.4955 3.3335 8.68659 3.3335ZM12.467 17.1347L11.369 14.2855C11.2717 14.0493 11.0771 13.8269 10.6602 13.8269H9.22863C8.86727 13.8269 8.5893 14.0632 8.75608 14.5218L10.2015 18.2605C9.72898 18.3856 9.21473 18.4412 8.68659 18.4412C5.17026 18.4412 2.66852 15.6754 2.66852 12.0618C2.66852 8.44816 5.17026 5.68235 8.68659 5.68235C12.2029 5.68235 14.7047 8.44816 14.7047 12.0618C14.7047 14.1744 13.8568 15.9812 12.467 17.1347ZM108.867 19.9145C108.992 20.2063 108.839 20.4843 108.492 20.4843H106.921C106.63 20.4843 106.393 20.3453 106.296 20.0534L103.391 12.2425L100.445 20.0534C100.32 20.3592 100.111 20.4843 99.8193 20.4843H98.4156C98.1237 20.4843 97.9152 20.3592 97.7901 20.0534L94.8159 12.2008L91.8833 20.0534C91.7582 20.3453 91.5497 20.4843 91.2578 20.4843H89.7846C89.4927 20.4843 89.2842 20.3453 89.1591 20.0534L86.2543 12.2008L83.2523 20.0534C83.1272 20.3592 82.9187 20.4843 82.6268 20.4843H81.2231C80.9312 20.4843 80.7227 20.3592 80.5976 20.0534L77.6651 12.2008L74.7325 20.0534C74.6352 20.3453 74.3989 20.4843 74.107 20.4843H72.5782C72.2168 20.4843 72.0778 20.1924 72.2029 19.9145L76.1779 9.51835C76.303 9.21258 76.5115 9.0597 76.8033 9.0597H78.5129C78.8047 9.0597 79.0132 9.19868 79.1383 9.51835L82.0014 17.1069L84.8367 9.51835C84.9618 9.21258 85.1703 9.0597 85.4621 9.0597H87.1439C87.4357 9.0597 87.6442 9.19868 87.7693 9.51835L90.5768 17.1069L93.3843 9.51835C93.5094 9.21258 93.7179 9.0597 94.0097 9.0597H95.7054C95.9972 9.0597 96.2057 9.19868 96.3308 9.51835L99.18 17.1069L101.96 9.51835C102.085 9.21258 102.293 9.0597 102.585 9.0597H104.295C104.587 9.0597 104.795 9.19868 104.92 9.51835L108.867 19.9145ZM43.0021 9.07359H41.5983C41.3065 9.07359 41.0563 9.30987 41.0563 9.61564V10.5607C40.3475 9.49055 38.9576 8.72613 37.3176 8.72613C34.2182 8.72613 31.5636 11.1723 31.5636 14.7442C31.5636 18.3578 34.2321 20.7901 37.3037 20.7901C38.9715 20.7901 40.3197 20.0256 41.0702 18.9555V19.9562C41.0702 20.248 41.3343 20.4843 41.6122 20.4843H43.016C43.3079 20.4843 43.5441 20.248 43.5441 19.9562V9.61564C43.5302 9.30987 43.294 9.07359 43.0021 9.07359ZM37.5817 18.5107C35.5386 18.5107 34.0792 16.8429 34.0792 14.772C34.0792 12.6733 35.5247 11.0611 37.5817 11.0611C39.6108 11.0611 41.0841 12.6733 41.0841 14.772C41.0702 16.8568 39.5969 18.5107 37.5817 18.5107ZM59.7498 18.8721C60.0556 19.2473 59.7915 19.5392 59.6247 19.6643C58.6518 20.4009 57.3593 20.804 55.9555 20.804C52.4114 20.804 50.0487 18.2049 50.0487 14.7859C50.0487 11.3669 52.4114 8.74003 55.9555 8.74003C57.3593 8.74003 58.638 9.14309 59.6247 9.87971C59.7915 10.0048 60.0278 10.255 59.7498 10.6719L59.0827 11.6031C58.8186 11.9645 58.5129 11.8672 58.2488 11.7004C57.6234 11.3252 56.8867 11.0055 56.0389 11.0055C53.968 11.0055 52.5921 12.6733 52.5921 14.7859C52.5921 16.8985 53.968 18.5524 56.0389 18.5524C56.9006 18.5524 57.5817 18.2188 58.2071 17.8575C58.4712 17.7185 58.7491 17.5934 59.041 17.9826L59.7498 18.8721ZM66.3655 8.75393C63.0299 8.75393 60.3753 11.3669 60.3753 14.772C60.3753 18.2049 63.0438 20.7901 66.3655 20.7901C69.7012 20.7901 72.3558 18.191 72.3558 14.772C72.3697 11.3808 69.7012 8.75393 66.3655 8.75393ZM66.3655 18.4968C64.3225 18.4968 62.8631 16.8568 62.8631 14.7859C62.8631 12.6872 64.3086 11.075 66.3655 11.075C68.4086 11.075 69.868 12.6872 69.868 14.7859C69.868 16.8568 68.4225 18.4968 66.3655 18.4968ZM47.9222 3.63926C48.2279 3.63926 48.4503 3.90334 48.4503 4.18131V19.9423C48.4503 20.2341 48.2418 20.4843 47.9222 20.4843H46.5184C46.2266 20.4843 45.9764 20.2202 45.9764 19.9423V4.19521C45.9764 3.90334 46.2405 3.65316 46.5184 3.65316L47.9222 3.63926Z" fill="#CAD0E5"/>
</g>
<defs>
<clipPath id="clip0_757_3085">
<rect width="108.75" height="26.6667" fill="white"/>
</clipPath>
</defs>
</svg>
