<svg width="99" height="34" viewBox="0 0 99 34" fill="none" xmlns="http://www.w3.org/2000/svg">
<g clip-path="url(#clip0_1159_5150)">
<path fill-rule="evenodd" clip-rule="evenodd" d="M31.3047 23.6235L32.5259 20.7858C33.845 21.7721 35.6024 22.2849 37.3364 22.2849C38.6163 22.2849 39.4265 21.7917 39.4265 21.0441C39.407 18.954 31.7587 20.5901 31.7 15.349C31.6804 12.6874 34.0446 10.6364 37.3951 10.6364C39.3874 10.6364 41.3758 11.1296 42.7966 12.2529L41.6537 15.1494C40.3542 14.3196 38.7377 13.7286 37.1994 13.7286C36.1543 13.7286 35.4654 14.2218 35.4654 14.8519C35.485 16.9029 43.1919 15.7796 43.2702 20.7858C43.2702 23.5061 40.9648 25.4201 37.6534 25.4201C35.2267 25.4162 32.9995 24.8447 31.3047 23.6235ZM78.2001 19.7603C77.5895 20.8249 76.4465 21.5529 75.1235 21.5529C73.1704 21.5529 71.5969 19.9755 71.5969 18.0263C71.5969 16.0771 73.1743 14.4997 75.1235 14.4997C76.4426 14.4997 77.5895 15.2277 78.2001 16.2923L81.5701 14.4214C80.3098 12.1747 77.883 10.6364 75.1235 10.6364C71.0411 10.6364 67.7297 13.9478 67.7297 18.0302C67.7297 22.1127 71.0411 25.424 75.1235 25.424C77.9026 25.424 80.3098 23.9053 81.5701 21.6391L78.2001 19.7603ZM44.9651 4.50293H49.1845V25.1422H44.9651V4.50293ZM83.2258 4.50293V25.1422H87.4453V18.95L92.4515 25.1422H97.853L91.4847 17.7875L97.3794 10.926H92.2127L87.4414 16.6211V4.50293H83.2258Z" fill="white"/>
<path d="M61.723 19.7988C61.1124 20.8047 59.852 21.5523 58.4312 21.5523C56.478 21.5523 54.9046 19.9749 54.9046 18.0257C54.9046 16.0764 56.482 14.499 58.4312 14.499C59.852 14.499 61.1124 15.2858 61.723 16.3113V19.7988ZM61.723 10.9293V12.6046C61.0341 11.4421 59.3197 10.6318 57.5231 10.6318C53.8164 10.6318 50.9004 13.9041 50.9004 18.0061C50.9004 22.1081 53.8164 25.4195 57.5231 25.4195C59.3158 25.4195 61.0302 24.6132 61.723 23.4467V25.122H65.9424V10.9293H61.723Z" fill="white"/>
<path fill-rule="evenodd" clip-rule="evenodd" d="M5.22534 19.7797C5.22534 21.2201 4.06284 22.3826 2.62244 22.3826C1.18203 22.3826 0.0195312 21.2162 0.0195312 19.7797C0.0195312 18.3432 1.18203 17.1768 2.62244 17.1768H5.22534V19.7797ZM6.52484 19.7797C6.52484 18.3393 7.68734 17.1768 9.12775 17.1768C10.5682 17.1768 11.7307 18.3393 11.7307 19.7797V26.285C11.7307 27.7254 10.5682 28.8879 9.12775 28.8879C7.68734 28.8879 6.52484 27.7254 6.52484 26.285V19.7797Z" fill="white"/>
<path fill-rule="evenodd" clip-rule="evenodd" d="M9.12779 9.33277C7.68738 9.33277 6.52488 8.17026 6.52488 6.72986C6.52488 5.28945 7.68738 4.12695 9.12779 4.12695C10.5682 4.12695 11.7307 5.28945 11.7307 6.72986V9.33277H9.12779ZM9.12779 10.6518C10.5682 10.6518 11.7307 11.8143 11.7307 13.2547C11.7307 14.6951 10.5682 15.8576 9.12779 15.8576H2.60291C1.1625 15.8576 0 14.6912 0 13.2547C0 11.8182 1.1625 10.6518 2.60291 10.6518H9.12779Z" fill="white"/>
<path fill-rule="evenodd" clip-rule="evenodd" d="M19.5541 13.2547C19.5541 11.8143 20.7166 10.6518 22.157 10.6518C23.5974 10.6518 24.7599 11.8143 24.7599 13.2547C24.7599 14.6951 23.5974 15.8576 22.157 15.8576H19.5541V13.2547ZM18.2546 13.2547C18.2546 14.6951 17.0921 15.8576 15.6517 15.8576C14.2113 15.8576 13.0488 14.6951 13.0488 13.2547V6.72986C13.0488 5.28945 14.2113 4.12695 15.6517 4.12695C17.0921 4.12695 18.2546 5.28945 18.2546 6.72986V13.2547Z" fill="white"/>
<path fill-rule="evenodd" clip-rule="evenodd" d="M15.6517 23.6821C17.0921 23.6821 18.2546 24.8446 18.2546 26.285C18.2546 27.7254 17.0921 28.8879 15.6517 28.8879C14.2113 28.8879 13.0488 27.7254 13.0488 26.285V23.6821H15.6517ZM15.6517 22.3826C14.2113 22.3826 13.0488 21.2201 13.0488 19.7797C13.0488 18.3393 14.2113 17.1768 15.6517 17.1768H22.1766C23.617 17.1768 24.7795 18.3393 24.7795 19.7797C24.7795 21.2201 23.617 22.3826 22.1766 22.3826H15.6517Z" fill="white"/>
</g>
<defs>
<clipPath id="clip0_1159_5150">
<rect width="98.0118" height="33.0145" fill="white"/>
</clipPath>
</defs>
</svg>
