<svg width="169" height="40" viewBox="0 0 169 40" fill="none" xmlns="http://www.w3.org/2000/svg">
<g clip-path="url(#clip0_369_1589)">
<path d="M40.4102 20.6807H42.3722C42.5248 22.7532 44.1379 24.084 46.4051 24.084C48.4544 24.084 49.8277 23.1023 49.8277 21.4878C49.8277 19.8735 48.6069 19.2845 45.7293 18.8045C42.5684 18.2809 40.7808 17.1029 40.7808 14.6158C40.7808 12.1288 42.8736 10.2744 45.9473 10.2744C49.1955 10.2744 51.3537 12.107 51.5281 14.9212H49.5662C49.3699 13.1324 47.9311 11.9978 45.9473 11.9978C43.9635 11.9978 42.6774 12.9142 42.6774 14.5067C42.6774 16.0993 43.8764 16.6229 46.7975 17.1029C49.9149 17.6046 51.7243 18.8699 51.7243 21.3133C51.7243 23.9531 49.5225 25.8074 46.3833 25.8074C42.8082 25.8074 40.5192 23.7786 40.4102 20.6807Z" fill="#CAD0E5"/>
<path d="M61.5521 14.5518H63.3396V25.678H61.7918L61.5521 24.1945C60.8981 25.0235 59.8298 25.8089 58.0641 25.8089C55.7097 25.8089 53.7695 24.4999 53.7695 20.9658V14.5518H55.5571V20.8566C55.5571 23.0164 56.6035 24.1727 58.3692 24.1727C60.3312 24.1727 61.5521 22.711 61.5521 20.333V14.5518Z" fill="#CAD0E5"/>
<path d="M76.3966 20.1139C76.3966 23.5173 74.1294 25.8079 71.0556 25.8079C69.1809 25.8079 67.9165 25.0443 67.2407 23.9754V30.0402H65.4531V14.5509H67.0009L67.2407 16.3398C67.982 15.3144 69.1809 14.4199 71.0556 14.4199C74.1294 14.4199 76.3966 16.4924 76.3966 20.1139ZM74.5654 20.1139C74.5654 17.6923 73.083 16.0126 70.8813 16.0126C68.6795 16.0126 67.2189 17.6923 67.2189 20.0703C67.2189 22.4482 68.7013 24.2154 70.8813 24.2154C73.0612 24.2154 74.5654 22.5355 74.5654 20.1139Z" fill="#CAD0E5"/>
<path d="M80.0623 20.5067V20.6157C80.1277 22.7319 81.4575 24.2154 83.5721 24.2154C85.1417 24.2154 86.3624 23.3863 86.7331 21.9464H88.5425C88.1065 24.1717 86.2753 25.8079 83.7029 25.8079C80.3675 25.8079 78.1875 23.5173 78.1875 20.1139C78.1875 16.7107 80.3239 14.4199 83.4631 14.4199C86.6022 14.4199 88.6514 16.4052 88.7387 19.6994C88.7387 19.8739 88.7169 20.2449 88.6951 20.5067H80.0623ZM80.1713 18.9795H86.8202C86.6459 17.0597 85.3379 15.9907 83.4849 15.9907C81.8499 15.9907 80.3457 17.1688 80.1713 18.9795Z" fill="#CAD0E5"/>
<path d="M99.5141 14.5518V16.297H98.0753C95.4811 16.297 94.7182 18.2823 94.7182 20.0494V24.0418H97.9663V25.678H90.4453V24.0418H92.9306V16.188H90.4453V14.5518H94.6309L94.6964 16.428C95.1977 15.5553 96.2005 14.5518 98.3151 14.5518H99.5141Z" fill="#CAD0E5"/>
<path d="M109.688 24.0413V25.6775H101.164V24.0413H104.521V12.0424H101.164V10.4062H106.309V24.0413H109.688Z" fill="#CAD0E5"/>
<path d="M120.204 24.0405V25.6767H111.68V24.0405H115.037V16.1867H111.68V14.5505H116.825V24.0405H120.204ZM114.579 11.2345C114.579 10.4709 115.189 9.88184 115.952 9.88184C116.715 9.88184 117.304 10.4709 117.304 11.2345C117.304 12.0416 116.715 12.6089 115.952 12.6089C115.189 12.6089 114.579 12.0416 114.579 11.2345Z" fill="#CAD0E5"/>
<path d="M131.964 19.2631V25.6771H130.177V19.3722C130.177 17.2124 129.13 16.0561 127.299 16.0561C125.337 16.0561 124.073 17.5178 124.073 19.8958V25.6771H122.285V14.5509H123.833L124.073 16.0561C124.726 15.2053 125.839 14.4199 127.604 14.4199C130.002 14.4199 131.964 15.7289 131.964 19.2631Z" fill="#CAD0E5"/>
<path d="M134.289 25.6775V10.4062H136.076V20.4635L142.006 14.5513H144.273L139.587 19.22L144.491 25.6775H142.29L138.344 20.4417L136.076 22.7105V25.6775H134.289Z" fill="#CAD0E5"/>
<path d="M146.933 20.5067V20.6157C146.999 22.7319 148.329 24.2154 150.444 24.2154C152.013 24.2154 153.233 23.3863 153.604 21.9464H155.413C154.978 24.1717 153.147 25.8079 150.574 25.8079C147.239 25.8079 145.059 23.5173 145.059 20.1139C145.059 16.7107 147.195 14.4199 150.334 14.4199C153.473 14.4199 155.523 16.4052 155.61 19.6994C155.61 19.8739 155.588 20.2449 155.566 20.5067H146.933ZM147.043 18.9795H153.691C153.518 17.0597 152.209 15.9907 150.356 15.9907C148.721 15.9907 147.216 17.1688 147.043 18.9795Z" fill="#CAD0E5"/>
<path d="M166.636 10.4062H168.424V25.6775H166.875L166.636 23.8886C165.894 24.9139 164.695 25.8084 162.82 25.8084C159.747 25.8084 157.48 23.7359 157.48 20.1144C157.48 16.711 159.747 14.4204 162.82 14.4204C164.695 14.4204 165.96 15.184 166.636 16.2529V10.4062ZM166.657 20.158C166.657 17.7146 165.175 16.0129 162.995 16.0129C160.815 16.0129 159.311 17.6928 159.311 20.1144C159.311 22.536 160.793 24.2158 162.995 24.2158C165.197 24.2158 166.657 22.536 166.657 20.158Z" fill="#CAD0E5"/>
<path d="M14.8397 30.2721L0 15.43L14.8397 0.587891L29.6793 15.43L23.9777 21.1325L14.8397 11.9929L11.4032 15.43L20.5413 24.5696L14.8397 30.2721ZM2.26517 15.43L14.8397 28.0065L18.2761 24.5696L9.13804 15.43L14.8397 9.72744L23.9777 18.8669L27.4141 15.43L14.8397 2.85343L2.26517 15.43Z" fill="#CAD0E5"/>
<path d="M14.8396 39.4107L0 24.5686L5.7016 18.8661L14.8396 28.0057L18.276 24.5686L9.13804 15.4292L14.8396 9.72656L29.6793 24.5686L14.8396 39.4107ZM2.26516 24.5686L14.8396 37.1453L27.4141 24.5686L14.8396 11.9921L11.4032 15.4292L20.5412 24.5686L14.8396 30.2712L5.7016 21.1317L2.26516 24.5686Z" fill="#CAD0E5"/>
</g>
<defs>
<clipPath id="clip0_369_1589">
<rect width="168.421" height="40" fill="white"/>
</clipPath>
</defs>
</svg>
