<?xml version="1.0" encoding="UTF-8"?>
<svg width="512" height="512" version="1.1" xmlns="http://www.w3.org/2000/svg">
 <path d="m214.06 1.1094c-7.7855 0.18536-15.486 0.89062-22.064 0.89062-15.999 0-32.002-0.11007-48 0-5.892 0.04053-12.378 2.6768-10.551 9.9844 2.218 8.8721 16.787 6.0156 23.551 6.0156h49c7.593 0 16.581-1.3106 24 0.39453 7.044 1.619 10.585 8.2294 12.564 14.605 4.135 13.326 8.6266 26.578 12.436 40h-202c4.0647-14.324 7.5445-38.564 17.391-49.895 6.7601-7.7792 26.934-0.54839 28.338-12.109 1.8384-15.144-27.785-8.813-34.729-4.5273-14.391 8.8817-17.689 31.34-22 46.531-9.9059-5.5554-29.336-7.1812-37.66 2.1055-4.8949 5.4609-5.8678 14.893-3.0684 22.248 7.1995 8.211 12.807 11.548 24.729 11.646-4.4974 14.212-14.171 26.265-18.254 41-2.3333 8.4214-3.1605 17.354-3.375 26.406-0.25999 12.625 0.62891 25.464 0.62891 37.594 0 10.458-2.9412 26.241 1.0098 36 6.0616 14.972 34.707 17.353 44.352 4.9062 6.8359-8.823 3.6387-25.359 3.6387-35.906h148c0.146 17.343 12.079 23.998 28 24-7.229 15.466-18.553 29.29-20 47h-65-1c-0.15715 0-0.31352-0.00159-0.4707-0.00195-3.7469-0.01876-7.467-0.06618-11.1 0.10937-0.68946 0.02225-1.3684 0.08486-2.0527 0.125-7.3276 0.56835-14.267 2.3678-20.338 7.9531-10.955 10.08-13.589 29.138-18.039 42.814-6.8483-2.637-17.366-4.6758-25.947-3.1562-0.31012 0.05469-0.60076 0.13698-0.90625 0.19922-2.6411 0.55802-5.0958 1.4374-7.1426 2.8106-11.859 7.956-11.578 24.418 0 32.494 5.2032 3.63 11.911 3.6483 17.996 3.6523-4.1154 12.915-13.775 23.542-17.572 37-6.1108 21.658-3.4277 45.716-3.4277 68 0 10.805-2.9855 26.941 1.2285 37 6.0946 14.549 34.948 15.764 44.133 3.9062 6.707-8.66 3.6387-24.566 3.6387-34.906h199c0 11.086-2.9612 27.035 5.2148 35.906 10.569 11.468 40.143 8.9977 44.252-7.9062 4.239-17.441 0.5332-40.043 0.5332-58 0-0.11699 0.01801-0.31502 0.01953-0.43555-7e-4 -0.17943-0.01953-0.3859-0.01953-0.56445 0-2.51 0.40132-6.2167 0.49609-9.8262 0.01462-3.8298-0.42088-7.5401-2.2383-9.9453-4.005-5.299-11.348-2.7927-13.516 2.7773-3.382 8.686-0.74219 22.713-0.74219 31.994h-6c0-16.818-2.065-38.876-23.988-39.959-0.01368-6.8e-4 -0.02734-0.00129-0.04102-0.00196-17.656-0.85543-35.072 6.4774-46.67 19.963-4.323 5.027-7.2884 15.525-12.691 18.971-1.8143 1.1571-4.3485 1.3202-6.916 1.2578-2.3441 0.01736-4.747-0.23047-6.6934-0.23047h-29-1-31c-1.8509 0-4.2669 0.26777-6.6152 0.25977-2.5519 0.07404-5.0654-0.08758-6.6856-1.2871-4.979-3.686-7.9881-13.938-12.164-18.969-11.267-13.576-29.048-20.808-46.498-19.965-0.01756 8.5e-4 -0.03518 0.00109-0.05273 0.00196-18.779 0.92968-22.89 16.53-23.736 31.594-0.10438 2.8298-0.24805 5.7066-0.24805 8.3652h-6c0-28.775-1.2101-53.643 14.576-79 2.8391-4.56 5.6953-10.994 9.9414-14.396 2.0398-1.634 5.0902-1.9326 8.2148-1.8926 2.9088-0.04792 5.9199 0.28906 8.2676 0.28906h38 1 106c16.642 0 35.553-2.5346 51.961 0.14844 8.167 1.335 15.051 18.235 18.734 24.852 2.335 4.195 5.5171 9.9873 11.289 7.9473 14.051-4.968-4.1114-25.965-7.9844-32.947 16.084-2e-3 27.952-6.474 28-24h98c0 10.721-3.1479 26.951 3.7891 35.906 2.2324 2.8809 5.6164 4.9645 9.5312 6.2871 0.33616 0.10622 0.68953 0.18494 1.0332 0.28125 1.6624 0.49413 3.3997 0.86116 5.1894 1.0879 0.52484 0.06758 1.0572 0.09127 1.5879 0.13867 10.909 0.88979 22.889-2.9832 26.645-11.701 4.745-11.013 2.2246-26.271 2.2246-38 0-23.149 2.0607-47.631-5.0293-70-3.927-12.391-12.477-22.143-16.971-34 8.7204-0.00107 18.877-3.9006 24.314-10.318 0.64472-1.1168 1.2235-2.3225 1.6856-3.6816h0.77734c2.4354-5.0414 2.0713-11.177-3.1973-17.984-8.373-10.818-28.596-10.17-39.58-4.0156-2.608-12.602-6.6069-31.131-15.213-40.984-10.961-12.549-27.852-10.016-42.787-10.016h-75c-8.659 0-23.857 2.9575-31.771-0.60352-3.998-1.799-4.6325-9.6395-5.8965-13.396-4.007-11.905-11.076-21.756-16.332-33 6.191-0.0171 13.698-0.16142 18.957-3.8535 8.851-6.2143 9.7511-22.178 2.7031-30.041-8.324-9.2867-27.754-7.6609-37.66-2.1055-3.766-13.27-6.8108-33.01-17.094-42.814-8.6537-8.2497-21.866-9.3851-34.842-9.0762zm-189.48 62.99c4.7203 0.58804 9.1587 4.2075 9.418 8.9004h-8c-1.6542-0.0028-3.3493 0.078225-4.9961-0.10938-2.8547-0.3252-7.617-2.8281-4.3809-6.1523 2.1939-2.2536 5.1268-2.9915 7.959-2.6387zm258.84 0c2.8321-0.35282 5.7652 0.38511 7.959 2.6387 3.236 3.3243-1.5278 5.8271-4.3828 6.1523-1.646 0.1876-3.3401 0.10658-4.9941 0.10938h-8c0.25937-4.6929 4.6978-8.3124 9.418-8.9004zm-229.93 24.564c2.6672 0.026075 5.3923 0.33594 7.5117 0.33594h35 120 32c4.062 0 10.147-1.1 13.789 1.0273 3.608 2.1071 5.9862 7.5412 8.1582 10.973 6.499 10.268 13.976 22.659 15.053 35-9.373 0.079-14.565 5.8864-23 7.6934-16.221 3.475-28.489 1.219-43 12.207-6.12 4.634-11.272 10.452-15.123 17.1-2.351 4.059-3.5529 9.4464-8.9199 9.9414-19.624 1.813-40.242 0.05859-59.957 0.05859-6.727 0-18.48 2.2785-24.609-0.60352-5.207-2.45-8.8152-13.888-12.691-18.395-10.814-12.575-27.149-20.146-43.699-20.291-23.393-0.206-27 21.001-27 39.289h-6c0-27.108-0.7546-50.678 13.15-75 3.0248-5.291 6.8135-14.754 12.176-17.973 1.8861-1.1321 4.4949-1.3894 7.1621-1.3633zm367.59 62.346c6.9196-0.10875 13.638 0.55458 17.877 3.6426 5.092 3.709 6.1879 9.7237 8.0449 15.348 3.932 11.913 9.32 24.551 10.998 37h-202c3.831-11.981 7.354-24.066 11.332-36 1.977-5.929 3.3005-12.503 8.6875-16.348 8.436-6.023 26.016-2.6523 35.98-2.6523h90c5.04 0 12.16-0.88148 19.08-0.99023zm-366.1 7.6172c13.808-1.1864 32.237 14.534 36.021 24.373h-48c0-6.375-1.7052-15.684 3.3945-20.57 2.4574-2.3544 5.3976-3.529 8.584-3.8027zm198.02 0.37305-6 24h-30c6.273-16.308 21.302-19.534 36-24zm-22.854 39.844c3.52 0.251 6.6654 2.4091 6.8535 8.1562h-8c-16.152-0.02681-6.5976-8.7084 1.1465-8.1562zm254.39 0.07422c7.8352-0.54743 16.761 8.0545 0.46289 8.082h-8c0.64-5.6944 3.9757-7.8332 7.5371-8.082zm-463.54 0.08203h17c0 5.887 2.6975 20.693-1.0273 25.396-2.2938 2.896-13.656 2.7672-15.369-0.71484-2.9542-6.004-0.60352-18.024-0.60352-24.682zm436.08 23.635c2.8661-0.03588 5.6739 0.22107 7.7324 1.3926 5.383 3.063 8.9398 11.872 12.133 16.973 14.923 23.843 14.051 49.922 14.051 77h-6c-1.765-22.365-5.942-41.189-33-39.961-15.881 0.721-31.144 10.77-40.711 22.963-3.307 4.215-5.7997 14.099-10.68 16.395-5.906 2.777-17.133 0.60352-23.609 0.60352-18.826 0-40.401 2.9686-58.945-0.14844-5.325-0.895-5.7551-7.5856-7.0801-11.852-3.261-10.492-5.9692-22.194-14.99-29.318-16.627-13.133-49.927-6.6816-69.984-6.6816 1.842-12.47 8.8578-24.449 15.426-35 2.198-3.53 4.9104-9.6315 8.9004-11.396 4.002-1.771 10.373-0.60352 14.674-0.60352h33 115 36c2.293 0 5.2179-0.32936 8.084-0.36523zm-189.51 62.379c7.0902-0.07937 13.959 0.66802 18.244 3.9785 5.12 3.956 6.6868 11.107 8.4648 17.008 3.504 11.631 7.9827 23.166 10.721 35h-202c1.793-12.14 7.3326-24.283 10.975-36 1.774-5.708 2.9989-12.379 8.1309-16.146 8.445-6.197 25.893-2.8535 35.895-2.8535h90c5.169 0 12.48-0.90695 19.57-0.98633zm188.37 7.8262c3.2581 0.22037 6.2829 1.3276 8.834 3.5938 4.909 4.361 3.7445 15.437 4.2285 21.566h-49c3.3207-10.4 21.819-26.115 35.938-25.16zm-122.52 39.482c2.7938-0.3472 5.6769 0.3615 7.8223 2.5312 3.232 3.269-1.3981 5.7131-4.2441 6.0371-1.646 0.188-3.3401 0.10638-4.9941 0.10938h-8c0.34875-4.585 4.7596-8.0991 9.416-8.6777zm-258.9 0.0039c4.6924 0.55824 9.1295 4.0357 9.4824 8.6738h-8c-1.6542-3e-3 -3.3493 0.07862-4.9961-0.10938-2.75-0.31299-7.6591-2.7971-4.3809-6.0371 2.1722-2.1469 5.0791-2.8623 7.8945-2.5274zm398.48 0.67383h18c0 6.694 2.3278 18.661-0.74219 24.682-1.797 3.525-13.88 3.6818-16.23 0.71484-3.725-4.703-1.0273-19.509-1.0273-25.396zm-172.77 93.564c4.5174-0.32857 8.6983 0.99205 11.969 4.7793 4.494 5.204 2.8047 14.279 2.8047 20.656h-49c4.0958-8.619 20.674-24.45 34.227-25.436zm-193.19 1.3691c1.3925 0.11055 2.7418 0.311 3.9648 0.53125 13.782 2.48 24.497 11.38 31 23.535h-49c0-6.301-1.7083-15.576 2.6523-20.771 2.6456-3.1515 7.2052-3.6266 11.383-3.2949zm-36.035 40.066h17v26h-17v-26zm248 0h18c0 5.699 2.5866 19.833-1.0273 24.396-2.333 2.945-14.626 2.8272-16.369-0.71484-2.847-5.787-0.60352-17.269-0.60352-23.682z" fill="#ffffff"/>
</svg>
