<svg width="540" height="360" viewBox="0 0 540 360" fill="none" xmlns="http://www.w3.org/2000/svg">
<g opacity="0.5" filter="url(#filter0_f_1799_14143)">
<rect x="210" y="120" width="120" height="120" rx="4.21053" fill="#8547FF"/>
</g>
<path d="M270 237.5C301.756 237.5 327.5 211.756 327.5 180C327.5 148.244 301.756 122.5 270 122.5C238.244 122.5 212.5 148.244 212.5 180C212.5 211.756 238.244 237.5 270 237.5Z" fill="url(#paint0_linear_1799_14143)"/>
<path fill-rule="evenodd" clip-rule="evenodd" d="M245 165C245 151.193 256.193 140 270 140C283.807 140 295 151.193 295 165V187.484C295 193.016 290.519 197.5 285.002 197.5H254.998C249.476 197.5 245 193.015 245 187.484V165Z" fill="#DC244C"/>
<path d="M282.5 180H257.5V208.533H282.5V180Z" fill="#FFB2B7"/>
<path fill-rule="evenodd" clip-rule="evenodd" d="M303.273 207.886L282.5 197.5C282.5 197.5 277.5 202.5 270 202.5C262.5 202.5 257.5 197.5 257.5 197.5L236.727 207.886C232.995 209.752 230 214.598 230 218.729V221.286C240.35 231.316 254.449 237.5 270 237.5C285.551 237.5 299.65 231.316 310 221.286V218.729C310 214.604 306.988 209.744 303.273 207.886Z" fill="#0040A1"/>
<path fill-rule="evenodd" clip-rule="evenodd" d="M250 168.863V172.5C250 183.527 258.973 192.5 270 192.5C281.027 192.5 290 183.527 290 172.5V168.863C290 165.851 287.558 163.409 284.545 163.409C278.213 163.409 272.72 159.812 270 154.549C267.28 159.812 261.787 163.409 255.455 163.409C252.442 163.409 250 165.851 250 168.863Z" fill="#FFDADB"/>
<path opacity="0.5" d="M284.206 177.927C285.887 177.927 287.25 176.564 287.25 174.882C287.25 173.201 285.887 171.838 284.206 171.838C282.525 171.838 281.162 173.201 281.162 174.882C281.162 176.564 282.525 177.927 284.206 177.927Z" fill="#FF8792"/>
<path opacity="0.5" d="M255.794 177.927C257.475 177.927 258.838 176.564 258.838 174.882C258.838 173.201 257.475 171.838 255.794 171.838C254.113 171.838 252.75 173.201 252.75 174.882C252.75 176.564 254.113 177.927 255.794 177.927Z" fill="#FF8792"/>
<path d="M264.926 170.824C264.657 170.824 264.399 170.717 264.209 170.526C264.018 170.336 263.911 170.078 263.911 169.809C263.911 169.271 263.698 168.754 263.317 168.374C262.936 167.993 262.42 167.779 261.882 167.779C261.344 167.779 260.828 167.993 260.447 168.374C260.066 168.754 259.853 169.271 259.853 169.809C259.853 170.078 259.746 170.336 259.555 170.526C259.365 170.717 259.107 170.824 258.838 170.824C258.569 170.824 258.311 170.717 258.12 170.526C257.93 170.336 257.823 170.078 257.823 169.809C257.823 168.732 258.251 167.7 259.012 166.939C259.773 166.178 260.806 165.75 261.882 165.75C262.959 165.75 263.991 166.178 264.752 166.939C265.513 167.7 265.941 168.732 265.941 169.809C265.941 170.078 265.834 170.336 265.644 170.526C265.453 170.717 265.195 170.824 264.926 170.824Z" fill="#28324D"/>
<path d="M281.162 170.824C280.893 170.824 280.635 170.717 280.445 170.526C280.254 170.336 280.147 170.078 280.147 169.809C280.147 169.271 279.934 168.754 279.553 168.374C279.172 167.993 278.656 167.779 278.118 167.779C277.58 167.779 277.063 167.993 276.683 168.374C276.302 168.754 276.088 169.271 276.088 169.809C276.088 170.078 275.982 170.336 275.791 170.526C275.601 170.717 275.343 170.824 275.074 170.824C274.805 170.824 274.547 170.717 274.356 170.526C274.166 170.336 274.059 170.078 274.059 169.809C274.059 168.732 274.487 167.7 275.248 166.939C276.009 166.178 277.041 165.75 278.118 165.75C279.194 165.75 280.227 166.178 280.988 166.939C281.749 167.7 282.177 168.732 282.177 169.809C282.177 170.078 282.07 170.336 281.88 170.526C281.689 170.717 281.431 170.824 281.162 170.824Z" fill="#28324D"/>
<path d="M270.06 183C268.451 182.996 266.871 182.569 265.48 181.761C264.088 180.953 262.935 179.792 262.135 178.396C262.001 178.163 261.965 177.885 262.036 177.626C262.107 177.366 262.278 177.145 262.511 177.011C262.745 176.877 263.022 176.842 263.282 176.912C263.541 176.983 263.762 177.154 263.896 177.388C264.516 178.476 265.412 179.38 266.495 180.01C267.577 180.639 268.807 180.97 270.059 180.97C271.311 180.97 272.541 180.639 273.623 180.01C274.706 179.38 275.602 178.476 276.222 177.388C276.356 177.154 276.577 176.983 276.836 176.912C277.096 176.842 277.373 176.877 277.607 177.011C277.84 177.145 278.011 177.366 278.082 177.626C278.153 177.885 278.117 178.163 277.983 178.396C277.183 179.792 276.03 180.952 274.639 181.761C273.248 182.569 271.668 182.996 270.06 183Z" fill="#28324D"/>
<path d="M295.235 175.5H290.647V161.735C290.647 150.35 281.385 141.088 270 141.088C258.615 141.088 249.353 150.35 249.353 161.735V175.5H244.765V161.735C244.765 147.82 256.085 136.5 270 136.5C283.915 136.5 295.235 147.82 295.235 161.735V175.5Z" fill="#0040A1"/>
<path d="M247.071 163.929C242.338 163.929 238.5 167.766 238.5 172.5C238.5 177.234 242.338 181.072 247.071 181.072V163.929Z" fill="#89A9FF"/>
<path d="M292.929 163.929C297.663 163.929 301.5 167.766 301.5 172.5C301.5 177.234 297.663 181.072 292.929 181.072V163.929Z" fill="#89A9FF"/>
<path d="M247.929 162.214C246.509 162.214 245.357 163.366 245.357 164.786V180.214C245.357 181.635 246.509 182.786 247.929 182.786C249.349 182.786 250.5 181.635 250.5 180.214V164.786C250.5 163.366 249.349 162.214 247.929 162.214Z" fill="#28324D"/>
<path d="M292.071 162.214C293.492 162.214 294.643 163.366 294.643 164.786V180.214C294.643 181.635 293.492 182.786 292.071 182.786C290.651 182.786 289.5 181.635 289.5 180.214V164.786C289.5 163.366 290.651 162.214 292.071 162.214Z" fill="#28324D"/>
<circle opacity="0.8" cx="270" cy="180" r="95.5" stroke="#161E33"/>
<circle opacity="0.6" cx="270" cy="180" r="131.5" stroke="#161E33"/>
<circle opacity="0.4" cx="270" cy="180" r="167.5" stroke="#161E33"/>
<path d="M232.539 41.659C232.444 41.6097 232.339 41.582 232.231 41.5777C232.124 41.5735 232.017 41.5929 231.918 41.6346L218.278 47.4417C218.124 47.5075 217.997 47.6247 217.919 47.7736C217.841 47.9224 217.817 48.0936 217.851 48.2581L220.629 61.6101C219.953 61.3369 219.205 61.2976 218.504 61.4984C217.803 61.6992 217.189 62.1286 216.76 62.7183C216.33 63.308 216.111 64.0243 216.135 64.7532C216.16 65.4821 216.428 66.1818 216.896 66.7412C217.364 67.3006 218.005 67.6876 218.718 67.8406C219.431 67.9935 220.175 67.9038 220.831 67.5856C221.487 67.2674 222.019 66.7389 222.34 66.0843C222.661 65.4296 222.755 64.6863 222.605 63.9725L220.252 52.6584L232.527 47.432L234.268 55.8016C233.592 55.5284 232.844 55.4891 232.143 55.6899C231.442 55.8906 230.828 56.3199 230.399 56.9095C229.97 57.4991 229.75 58.2153 229.774 58.9441C229.799 59.673 230.066 60.3727 230.534 60.9322C231.002 61.4916 231.643 61.8787 232.356 62.0319C233.069 62.185 233.813 62.0955 234.469 61.7776C235.126 61.4596 235.657 60.9314 235.979 60.2769C236.3 59.6225 236.394 58.8792 236.245 58.1654L232.914 42.1549C232.892 42.0497 232.847 41.9506 232.782 41.8649C232.717 41.7791 232.634 41.7088 232.539 41.659Z" fill="#2F6FF0"/>
<path fill-rule="evenodd" clip-rule="evenodd" d="M276.957 28.7245C276.957 29.343 277.458 29.8445 278.077 29.8445C278.696 29.8445 279.197 29.343 279.197 28.7245V24.2445C279.197 20.8478 276.434 18.0845 273.037 18.0845C270.875 18.0845 269.117 16.326 269.117 14.1645C269.117 14.1645 269.117 14.1645 269.117 14.1644C269.117 13.5459 268.615 13.0444 267.997 13.0444C267.378 13.0444 266.877 13.5459 266.877 14.1644V14.1645V14.7245V18.6445V30.7815C266.368 30.5397 265.798 30.4044 265.197 30.4044C263.032 30.4044 261.277 32.1595 261.277 34.3244C261.277 36.4894 263.032 38.2444 265.197 38.2444C267.362 38.2444 269.117 36.4894 269.117 34.3244C269.117 34.3053 269.117 34.2862 269.117 34.2671V33.7646V23.3928C270.183 24.2742 271.549 24.8045 273.037 24.8045C275.198 24.8045 276.957 26.563 276.957 28.7245ZM273.037 22.5645C270.968 22.5645 269.269 20.9539 269.127 18.9206C270.191 19.7973 271.554 20.3245 273.037 20.3245C275.106 20.3245 276.805 21.935 276.947 23.9683C275.883 23.0917 274.52 22.5645 273.037 22.5645Z" fill="#8547FF"/>
<path d="M322.242 45.2265C322.076 45.0335 321.835 44.9212 321.582 44.9155L308.963 44.6545C308.504 44.645 308.113 44.9826 308.055 45.4369L306.535 57.3009C306.155 57.0558 305.718 56.8867 305.24 56.8255C303.524 56.6056 301.949 57.8229 301.729 59.5389C301.509 61.255 302.727 62.8299 304.443 63.0498C306.159 63.2696 307.734 62.0524 307.954 60.3363L309.161 50.9097L319.978 51.1334L319.211 57.1172C318.831 56.8722 318.394 56.703 317.917 56.6418C316.2 56.422 314.626 57.6392 314.406 59.3553C314.186 61.0713 315.403 62.6463 317.119 62.8661C318.835 63.0859 320.41 61.8687 320.63 60.1526L322.453 45.9257C322.485 45.6734 322.408 45.4192 322.242 45.2265ZM309.731 46.4638L320.547 46.6873L320.207 49.3447L309.39 49.1212L309.731 46.4638Z" fill="#038585"/>
<rect x="52" y="68" width="144" height="48" rx="8" fill="url(#paint1_linear_1799_14143)"/>
<g clip-path="url(#clip0_1799_14143)">
<path d="M83 80H69C66.2386 80 64 82.2386 64 85V99C64 101.761 66.2386 104 69 104H83C85.7614 104 88 101.761 88 99V85C88 82.2386 85.7614 80 83 80Z" fill="#28324D"/>
<path d="M82.5998 95H69.3998C69.2407 95 69.0881 95.0632 68.9755 95.1757C68.863 95.2883 68.7998 95.4409 68.7998 95.6V98.6C68.7998 98.7591 68.863 98.9117 68.9755 99.0243C69.0881 99.1368 69.2407 99.2 69.3998 99.2H82.5998C82.7589 99.2 82.9115 99.1368 83.0241 99.0243C83.1366 98.9117 83.1998 98.7591 83.1998 98.6V95.6C83.1998 95.4409 83.1366 95.2883 83.0241 95.1757C82.9115 95.0632 82.7589 95 82.5998 95Z" fill="#FFDADB"/>
<path d="M70.5996 93.7998H81.3996V91.3998C81.3996 91.2407 81.3364 91.0881 81.2239 90.9755C81.1114 90.863 80.9587 90.7998 80.7996 90.7998H71.1996C71.0405 90.7998 70.8879 90.863 70.7753 90.9755C70.6628 91.0881 70.5996 91.2407 70.5996 91.3998V93.7998Z" fill="#FFB2B7"/>
<path d="M78.2044 85.2445C77.9182 84.9598 77.5306 84.8005 77.1269 84.8015C76.7232 84.8025 76.3365 84.9638 76.0516 85.2499C76.0342 85.2679 76.0168 85.2859 76 85.3045C75.8675 85.1541 75.7066 85.0314 75.5265 84.9434C75.3465 84.8555 75.1508 84.8039 74.9507 84.7918C74.7507 84.7797 74.5502 84.8073 74.3608 84.8729C74.1715 84.9385 73.9969 85.0409 73.8473 85.1742C73.6976 85.3075 73.5758 85.4691 73.4887 85.6496C73.4017 85.8302 73.3512 86.0261 73.3402 86.2263C73.3292 86.4264 73.3578 86.6267 73.4244 86.8157C73.491 87.0047 73.5944 87.1787 73.7284 87.3277C73.75 87.3517 73.7722 87.3757 73.7956 87.3985L76 89.5999L78.2044 87.3949C78.4894 87.1099 78.6495 86.7233 78.6495 86.3203C78.6495 85.9172 78.4894 85.5307 78.2044 85.2457V85.2445Z" fill="#FF516B"/>
</g>
<path d="M97.82 82.77V89.09H101V90H96.84V82.77H97.82ZM101.487 87.55C101.487 86.04 102.567 84.98 104.037 84.98C105.497 84.98 106.577 86.04 106.577 87.55C106.577 89.06 105.497 90.12 104.037 90.12C102.567 90.12 101.487 89.06 101.487 87.55ZM102.437 87.55C102.437 88.57 103.087 89.28 104.037 89.28C104.977 89.28 105.637 88.57 105.637 87.55C105.637 86.53 104.977 85.82 104.037 85.82C103.087 85.82 102.437 86.53 102.437 87.55ZM108.763 90L106.793 85.11H107.793L108.863 87.84C109.033 88.3 109.173 88.71 109.253 89.01C109.333 88.69 109.493 88.27 109.663 87.84L110.753 85.11H111.733L109.693 90H108.763ZM114.366 90.12C112.926 90.12 111.936 89.08 111.936 87.56C111.936 86.03 112.906 84.97 114.326 84.97C115.716 84.97 116.626 85.93 116.626 87.38V87.73L112.846 87.74C112.916 88.77 113.456 89.34 114.386 89.34C115.116 89.34 115.596 89.04 115.756 88.48H116.636C116.396 89.53 115.576 90.12 114.366 90.12ZM114.326 85.76C113.506 85.76 112.986 86.25 112.866 87.11H115.686C115.686 86.3 115.156 85.76 114.326 85.76ZM120.01 88.58H120.91C120.91 89.08 121.29 89.38 121.91 89.38C122.57 89.38 122.95 89.11 122.95 88.66C122.95 88.33 122.79 88.13 122.28 88L121.42 87.8C120.55 87.59 120.14 87.16 120.14 86.44C120.14 85.54 120.9 84.97 121.98 84.97C123.05 84.97 123.75 85.57 123.77 86.5H122.87C122.85 86.01 122.52 85.7 121.95 85.7C121.36 85.7 121.03 85.96 121.03 86.41C121.03 86.74 121.27 86.96 121.75 87.08L122.61 87.29C123.44 87.49 123.85 87.87 123.85 88.6C123.85 89.53 123.05 90.12 121.89 90.12C120.74 90.12 120.01 89.51 120.01 88.58ZM124.573 87.55C124.573 86.04 125.653 84.98 127.123 84.98C128.583 84.98 129.663 86.04 129.663 87.55C129.663 89.06 128.583 90.12 127.123 90.12C125.653 90.12 124.573 89.06 124.573 87.55ZM125.523 87.55C125.523 88.57 126.173 89.28 127.123 89.28C128.063 89.28 128.723 88.57 128.723 87.55C128.723 86.53 128.063 85.82 127.123 85.82C126.173 85.82 125.523 86.53 125.523 87.55ZM131.643 90H130.703V85.11H131.553L131.653 85.86C131.963 85.3 132.583 84.97 133.273 84.97C134.563 84.97 135.153 85.76 135.153 87.01V90H134.213V87.22C134.213 86.23 133.753 85.83 133.033 85.83C132.153 85.83 131.643 86.46 131.643 87.41V90ZM136.145 87.43C136.145 86.05 137.035 84.97 138.455 84.97C139.245 84.97 139.855 85.33 140.165 85.94L140.235 85.11H141.075V89.8C141.075 91.34 140.125 92.32 138.625 92.32C137.295 92.32 136.385 91.57 136.205 90.33H137.145C137.265 91.05 137.805 91.47 138.625 91.47C139.545 91.47 140.145 90.87 140.145 89.94V88.96C139.825 89.53 139.185 89.87 138.415 89.87C137.025 89.87 136.145 88.8 136.145 87.43ZM137.085 87.41C137.085 88.33 137.655 89.05 138.575 89.05C139.525 89.05 140.105 88.37 140.105 87.41C140.105 86.47 139.545 85.79 138.585 85.79C137.645 85.79 137.085 86.51 137.085 87.41Z" fill="#E1E5F0"/>
<path d="M96.696 102H96.112L98.216 96.272H98.928L101.056 102H100.456L99.896 100.48H97.256L96.696 102ZM98.496 97.08L97.432 99.976H99.712L98.64 97.08C98.616 97 98.576 96.904 98.568 96.848C98.56 96.896 98.528 97 98.496 97.08ZM102.829 102.096C102.005 102.096 101.517 101.632 101.517 100.952C101.517 100.24 102.061 99.792 102.965 99.72L104.245 99.616V99.488C104.245 98.728 103.789 98.488 103.221 98.488C102.549 98.488 102.149 98.792 102.149 99.312H101.645C101.645 98.528 102.285 98.024 103.237 98.024C104.133 98.024 104.789 98.472 104.789 99.496V102H104.325L104.253 101.32C104.013 101.808 103.485 102.096 102.829 102.096ZM102.957 101.648C103.773 101.648 104.245 101.08 104.245 100.24V100.032L103.101 100.12C102.373 100.184 102.077 100.504 102.077 100.936C102.077 101.408 102.429 101.648 102.957 101.648ZM107.92 98.08V98.576H107.616C106.904 98.576 106.448 99.056 106.448 99.792V102H105.896V98.128H106.416L106.456 98.728C106.608 98.312 107.016 98.04 107.56 98.04C107.68 98.04 107.784 98.048 107.92 98.08ZM108.234 100.064C108.234 98.88 109.066 98.024 110.202 98.024C111.338 98.024 112.17 98.88 112.17 100.064C112.17 101.24 111.338 102.096 110.202 102.096C109.066 102.096 108.234 101.24 108.234 100.064ZM108.794 100.056C108.794 100.968 109.37 101.6 110.202 101.6C111.026 101.6 111.61 100.968 111.61 100.056C111.61 99.16 111.026 98.52 110.202 98.52C109.37 98.52 108.794 99.16 108.794 100.056ZM113.605 102H113.053V98.128H113.533L113.613 98.8C113.869 98.304 114.381 98.024 114.941 98.024C116.005 98.024 116.445 98.656 116.445 99.632V102H115.893V99.752C115.893 98.848 115.485 98.528 114.845 98.528C114.053 98.528 113.605 99.104 113.605 99.976V102ZM119.764 103.688V98.128H120.243L120.3 98.912C120.572 98.312 121.116 98.024 121.764 98.024C122.884 98.024 123.556 98.88 123.556 100.048C123.556 101.216 122.908 102.096 121.764 102.096C121.108 102.096 120.588 101.816 120.316 101.256V103.688H119.764ZM120.324 100.064C120.324 100.952 120.82 101.6 121.668 101.6C122.508 101.6 122.996 100.952 122.996 100.064C122.996 99.168 122.508 98.528 121.668 98.528C120.82 98.528 120.324 99.168 120.324 100.064ZM125.547 102.096C124.723 102.096 124.235 101.632 124.235 100.952C124.235 100.24 124.779 99.792 125.683 99.72L126.963 99.616V99.488C126.963 98.728 126.507 98.488 125.939 98.488C125.267 98.488 124.867 98.792 124.867 99.312H124.363C124.363 98.528 125.003 98.024 125.955 98.024C126.851 98.024 127.507 98.472 127.507 99.496V102H127.043L126.971 101.32C126.731 101.808 126.203 102.096 125.547 102.096ZM125.675 101.648C126.491 101.648 126.963 101.08 126.963 100.24V100.032L125.819 100.12C125.091 100.184 124.795 100.504 124.795 100.936C124.795 101.408 125.147 101.648 125.675 101.648ZM131.335 98.128H131.887V102H131.407L131.335 101.344C131.119 101.792 130.583 102.096 129.975 102.096C129.063 102.096 128.567 101.472 128.567 100.528V98.12H129.127V100.352C129.127 101.272 129.535 101.6 130.151 101.6C130.895 101.6 131.335 101.104 131.335 100.184V98.128ZM133.613 102H133.061V96.168H133.613V102Z" fill="#717C99"/>
<g clip-path="url(#clip1_1799_14143)">
<path d="M181.139 87C180.734 87.0005 180.333 87.0875 179.965 87.2552C179.596 87.4229 179.267 87.6675 179 87.9725C178.617 87.5357 178.11 87.2262 177.546 87.0854C176.982 86.9446 176.389 86.9791 175.846 87.1843C175.302 87.3896 174.834 87.7558 174.505 88.2341C174.175 88.7123 173.999 89.2799 174 89.8608C174 92.4575 178.523 96.7083 178.716 96.8883C178.793 96.9603 178.895 97.0003 179 97.0003C179.105 97.0003 179.207 96.9603 179.284 96.8883C179.477 96.7083 184 92.4575 184 89.8608C183.999 89.1024 183.697 88.3752 183.161 87.8389C182.625 87.3026 181.898 87.0009 181.139 87Z" fill="#576280"/>
</g>
<rect x="22" y="156" width="144" height="48" rx="8" fill="url(#paint2_linear_1799_14143)"/>
<g clip-path="url(#clip2_1799_14143)">
<path d="M53 168H39C36.2386 168 34 170.239 34 173V187C34 189.761 36.2386 192 39 192H53C55.7614 192 58 189.761 58 187V173C58 170.239 55.7614 168 53 168Z" fill="#28324D"/>
<path d="M51.0398 181.62C50.5598 181.74 50.0798 181.8 49.5998 181.8C46.5998 181.8 44.1998 179.4 44.1998 176.4C44.1998 175.92 44.2598 175.44 44.3798 174.96C44.4398 174.78 44.3798 174.54 44.1998 174.36C44.0198 174.18 43.8398 174.12 43.5998 174.18C40.7798 175.02 38.7998 177.66 38.7998 180.6C38.7998 184.26 41.7398 187.2 45.3998 187.2C48.3398 187.2 50.9798 185.22 51.7598 182.34C51.8198 182.16 51.7598 181.92 51.5798 181.74C51.4598 181.62 51.2198 181.56 51.0398 181.62Z" fill="#B99AFF"/>
<path d="M46.6 175.2H47.2V175.8C47.2 176.16 47.44 176.4 47.8 176.4C48.16 176.4 48.4 176.16 48.4 175.8V175.2H49C49.36 175.2 49.6 174.96 49.6 174.6C49.6 174.24 49.36 174 49 174H48.4V173.4C48.4 173.04 48.16 172.8 47.8 172.8C47.44 172.8 47.2 173.04 47.2 173.4V174H46.6C46.24 174 46 174.24 46 174.6C46 174.96 46.24 175.2 46.6 175.2Z" fill="#8547FF"/>
<path d="M52.5996 177.6H51.9996V177C51.9996 176.64 51.7596 176.4 51.3996 176.4C51.0396 176.4 50.7996 176.64 50.7996 177V177.6H50.1996C49.8396 177.6 49.5996 177.84 49.5996 178.2C49.5996 178.56 49.8396 178.8 50.1996 178.8H50.7996V179.4C50.7996 179.76 51.0396 180 51.3996 180C51.7596 180 51.9996 179.76 51.9996 179.4V178.8H52.5996C52.9596 178.8 53.1996 178.56 53.1996 178.2C53.1996 177.84 52.9596 177.6 52.5996 177.6Z" fill="#8547FF"/>
</g>
<path d="M67.14 178H66.12L68.76 170.77H69.85L72.5 178H71.47L70.82 176.2H67.78L67.14 178ZM69.18 172.33L68.08 175.35H70.53L69.42 172.33C69.37 172.19 69.32 172.02 69.3 171.91C69.28 172.01 69.23 172.18 69.18 172.33ZM76.8855 178H76.0355V170.64H76.9755V173.95C77.2955 173.31 77.9555 172.97 78.7555 172.97C80.1555 172.97 80.9955 174.07 80.9955 175.58C80.9955 177.06 80.1155 178.12 78.6955 178.12C77.9255 178.12 77.2755 177.78 76.9555 177.11L76.8855 178ZM76.9855 175.54C76.9855 176.56 77.5655 177.27 78.5255 177.27C79.4855 177.27 80.0555 176.55 80.0555 175.54C80.0555 174.54 79.4855 173.82 78.5255 173.82C77.5655 173.82 76.9855 174.54 76.9855 175.54ZM84.1416 178.12C82.7016 178.12 81.7116 177.08 81.7116 175.56C81.7116 174.03 82.6816 172.97 84.1016 172.97C85.4916 172.97 86.4016 173.93 86.4016 175.38V175.73L82.6216 175.74C82.6916 176.77 83.2316 177.34 84.1616 177.34C84.8916 177.34 85.3716 177.04 85.5316 176.48H86.4116C86.1716 177.53 85.3516 178.12 84.1416 178.12ZM84.1016 173.76C83.2816 173.76 82.7616 174.25 82.6416 175.11H85.4616C85.4616 174.3 84.9316 173.76 84.1016 173.76ZM88.8327 178.12C87.7827 178.12 87.1627 177.53 87.1627 176.64C87.1627 175.74 87.8327 175.18 88.9827 175.09L90.5227 174.97V174.83C90.5227 174.01 90.0327 173.72 89.3727 173.72C88.5827 173.72 88.1327 174.07 88.1327 174.66H87.3127C87.3127 173.64 88.1527 172.97 89.4127 172.97C90.6227 172.97 91.4427 173.61 91.4427 174.93V178H90.6427L90.5427 177.21C90.2927 177.77 89.6227 178.12 88.8327 178.12ZM89.1027 177.39C89.9927 177.39 90.5327 176.81 90.5327 175.89V175.63L89.2827 175.73C88.4527 175.81 88.1127 176.13 88.1127 176.61C88.1127 177.13 88.4927 177.39 89.1027 177.39ZM96.1245 173.11H97.0545V178H96.2145L96.1145 177.26C95.8345 177.77 95.1845 178.12 94.4645 178.12C93.3245 178.12 92.6845 177.35 92.6845 176.15V173.11H93.6245V175.84C93.6245 176.89 94.0745 177.29 94.7945 177.29C95.6545 177.29 96.1245 176.74 96.1245 175.69V173.11ZM99.7983 178H98.8583V173.9H97.8983V173.11H98.8583V171.58H99.7983V173.11H100.758V173.9H99.7983V178ZM101.132 180.19V179.42H101.762C102.212 179.42 102.572 179.35 102.802 178.73L102.972 178.26L101.002 173.11H101.992L103.412 177.05L104.862 173.11H105.832L103.522 179.1C103.192 179.94 102.702 180.29 101.952 180.29C101.642 180.29 101.382 180.25 101.132 180.19ZM110.257 178H109.317V173.11H110.167L110.267 173.86C110.577 173.3 111.197 172.97 111.887 172.97C113.177 172.97 113.767 173.76 113.767 175.01V178H112.827V175.22C112.827 174.23 112.367 173.83 111.647 173.83C110.767 173.83 110.257 174.46 110.257 175.41V178ZM115.529 171.95C115.189 171.95 114.909 171.67 114.909 171.33C114.909 170.98 115.189 170.71 115.529 170.71C115.869 170.71 116.149 170.98 116.149 171.33C116.149 171.67 115.869 171.95 115.529 171.95ZM115.069 178V173.11H116.009V178H115.069ZM117.063 175.43C117.063 174.05 117.953 172.97 119.373 172.97C120.163 172.97 120.773 173.33 121.083 173.94L121.153 173.11H121.993V177.8C121.993 179.34 121.043 180.32 119.543 180.32C118.213 180.32 117.303 179.57 117.123 178.33H118.063C118.183 179.05 118.723 179.47 119.543 179.47C120.463 179.47 121.063 178.87 121.063 177.94V176.96C120.743 177.53 120.103 177.87 119.333 177.87C117.943 177.87 117.063 176.8 117.063 175.43ZM118.003 175.41C118.003 176.33 118.573 177.05 119.493 177.05C120.443 177.05 121.023 176.37 121.023 175.41C121.023 174.47 120.463 173.79 119.503 173.79C118.563 173.79 118.003 174.51 118.003 175.41ZM124.29 177.99H123.35V170.64H124.29V173.86C124.6 173.33 125.19 172.97 125.95 172.97C127.2 172.97 127.8 173.76 127.8 175.01V178H126.86V175.22C126.86 174.23 126.39 173.83 125.69 173.83C124.78 173.83 124.29 174.49 124.29 175.33V177.99ZM130.482 178H129.542V173.9H128.582V173.11H129.542V171.58H130.482V173.11H131.442V173.9H130.482V178Z" fill="#E1E5F0"/>
<path d="M66.352 185.76C66.352 184.8 67.12 184.168 68.272 184.168C69.304 184.168 69.984 184.744 70.072 185.704H69.488C69.424 185.056 68.984 184.688 68.264 184.688C67.456 184.688 66.928 185.104 66.928 185.752C66.928 186.256 67.224 186.576 67.824 186.728L68.808 186.968C69.704 187.184 70.168 187.696 70.168 188.472C70.168 189.464 69.4 190.096 68.216 190.096C67.104 190.096 66.352 189.512 66.28 188.576H66.872C66.904 189.176 67.432 189.568 68.216 189.568C69.056 189.568 69.592 189.16 69.592 188.504C69.592 187.992 69.304 187.656 68.688 187.512L67.72 187.272C66.824 187.056 66.352 186.544 66.352 185.76ZM71.3558 185.064C71.1318 185.064 70.9478 184.88 70.9478 184.656C70.9478 184.432 71.1318 184.24 71.3558 184.24C71.5798 184.24 71.7718 184.432 71.7718 184.656C71.7718 184.88 71.5798 185.064 71.3558 185.064ZM71.0838 190V186.128H71.6358V190H71.0838ZM73.3389 190H72.7869V186.128H73.2669L73.3469 186.8C73.6029 186.304 74.1149 186.024 74.6749 186.024C75.7389 186.024 76.1789 186.656 76.1789 187.632V190H75.6269V187.752C75.6269 186.848 75.2189 186.528 74.5789 186.528C73.7869 186.528 73.3389 187.104 73.3389 187.976V190ZM78.7991 190.096C77.6711 190.096 77.0071 189.232 77.0071 188.072C77.0071 186.904 77.6711 186.024 78.8231 186.024C79.4631 186.024 79.9751 186.304 80.2471 186.864V184.168H80.7991V190H80.3191L80.2631 189.208C79.9911 189.808 79.4471 190.096 78.7991 190.096ZM78.8951 189.592C79.7431 189.592 80.2391 188.952 80.2391 188.056C80.2391 187.168 79.7431 186.52 78.8951 186.52C78.0551 186.52 77.5671 187.168 77.5671 188.056C77.5671 188.952 78.0551 189.592 78.8951 189.592ZM81.559 191.688V191.232H81.983C82.319 191.232 82.655 191.208 82.847 190.688L83.015 190.232L81.447 186.128H82.031L83.279 189.504L84.503 186.128H85.071L83.295 190.888C83.071 191.496 82.695 191.744 82.143 191.744C81.911 191.744 81.735 191.728 81.559 191.688ZM90.3914 190.088C88.7914 190.088 87.7034 188.896 87.7034 187.136C87.7034 185.376 88.8074 184.176 90.4234 184.176C91.6554 184.176 92.6234 184.92 92.8554 186.056H92.2394C91.9994 185.232 91.2954 184.728 90.3994 184.728C89.1434 184.728 88.3034 185.688 88.3034 187.136C88.3034 188.576 89.1434 189.536 90.3994 189.536C91.3034 189.536 92.0234 189.048 92.2714 188.28H92.8874C92.6234 189.36 91.6234 190.088 90.3914 190.088ZM95.7875 186.08V186.576H95.4835C94.7715 186.576 94.3155 187.056 94.3155 187.792V190H93.7635V186.128H94.2835L94.3235 186.728C94.4755 186.312 94.8835 186.04 95.4275 186.04C95.5475 186.04 95.6515 186.048 95.7875 186.08ZM96.1009 188.064C96.1009 186.88 96.9329 186.024 98.0689 186.024C99.2049 186.024 100.037 186.88 100.037 188.064C100.037 189.24 99.2049 190.096 98.0689 190.096C96.9329 190.096 96.1009 189.24 96.1009 188.064ZM96.6609 188.056C96.6609 188.968 97.2369 189.6 98.0689 189.6C98.8929 189.6 99.4769 188.968 99.4769 188.056C99.4769 187.16 98.8929 186.52 98.0689 186.52C97.2369 186.52 96.6609 187.16 96.6609 188.056ZM101.564 190L100.284 186.128H100.852L101.612 188.464C101.7 188.72 101.772 188.984 101.852 189.296C101.916 188.984 102.044 188.592 102.084 188.464L102.852 186.128H103.42L104.18 188.464C104.252 188.672 104.348 189.008 104.42 189.296C104.5 188.976 104.516 188.88 104.652 188.464L105.42 186.128H105.996L104.684 190H104.148L103.348 187.568C103.252 187.28 103.188 187.04 103.14 186.808C103.084 187.016 103.02 187.248 102.916 187.568L102.116 190H101.564Z" fill="#717C99"/>
<g clip-path="url(#clip3_1799_14143)">
<path d="M151.139 175C150.734 175 150.333 175.088 149.965 175.255C149.596 175.423 149.267 175.667 149 175.973C148.617 175.536 148.11 175.226 147.546 175.085C146.982 174.945 146.389 174.979 145.846 175.184C145.302 175.39 144.834 175.756 144.505 176.234C144.175 176.712 143.999 177.28 144 177.861C144 180.458 148.523 184.708 148.716 184.888C148.793 184.96 148.895 185 149 185C149.105 185 149.207 184.96 149.284 184.888C149.477 184.708 154 180.458 154 177.861C153.999 177.102 153.697 176.375 153.161 175.839C152.625 175.303 151.898 175.001 151.139 175Z" fill="#576280"/>
</g>
<rect x="344" y="68" width="144" height="48" rx="8" fill="url(#paint3_linear_1799_14143)"/>
<g clip-path="url(#clip4_1799_14143)">
<path d="M375 80H361C358.239 80 356 82.2386 356 85V99C356 101.761 358.239 104 361 104H375C377.761 104 380 101.761 380 99V85C380 82.2386 377.761 80 375 80Z" fill="#28324D"/>
<path d="M372.617 85.0954C372.49 84.9682 372.285 84.9682 372.157 85.0954L371.445 85.8083C372.819 87.0589 373.689 88.8558 373.689 90.8564C373.689 94.6237 370.624 97.6888 366.856 97.6888C364.856 97.6888 363.059 96.8192 361.808 95.4445L361.095 96.1574C360.968 96.2846 360.968 96.4902 361.095 96.6174C362.684 98.2058 364.77 99 366.856 99C368.943 99 371.029 98.2058 372.617 96.6174C375.794 93.4407 375.794 88.2722 372.617 85.0954Z" fill="#50BF83"/>
<path d="M366.856 97.0384C370.265 97.0384 373.038 94.2654 373.038 90.8567C373.038 89.0354 372.241 87.4008 370.984 86.2686L362.268 94.9847C363.4 96.2419 365.035 97.0384 366.856 97.0384ZM369.554 90.6267L370.205 89.9759C370.332 89.8487 370.538 89.8487 370.665 89.9759C370.792 90.1032 370.792 90.3088 370.665 90.436L370.014 91.0867C369.951 91.1501 369.868 91.182 369.784 91.182C369.701 91.182 369.618 91.1501 369.554 91.0867C369.427 90.9595 369.427 90.7539 369.554 90.6267ZM368.578 92.5788C368.705 92.4516 368.911 92.4516 369.038 92.5788L369.689 93.2295C369.816 93.3567 369.816 93.5623 369.689 93.6895C369.626 93.753 369.542 93.7848 369.459 93.7848C369.376 93.7848 369.292 93.753 369.229 93.6895L368.578 93.0388C368.451 92.9116 368.451 92.706 368.578 92.5788ZM365.975 94.2055L366.626 93.5548C366.753 93.4276 366.959 93.4276 367.086 93.5548C367.213 93.682 367.213 93.8877 367.086 94.0149L366.436 94.6656C366.372 94.729 366.289 94.7609 366.205 94.7609C366.122 94.7609 366.039 94.729 365.975 94.6656C365.848 94.5384 365.848 94.3327 365.975 94.2055Z" fill="#FF8792"/>
</g>
<path d="M390.3 90L388.15 82.77H389.17L390.49 87.19C390.59 87.57 390.69 87.95 390.79 88.5C390.91 87.92 391.02 87.57 391.13 87.19L392.5 82.77H393.56L394.92 87.19C395.04 87.58 395.14 87.96 395.25 88.5C395.37 87.89 395.47 87.52 395.57 87.2L396.9 82.77H397.9L395.72 90H394.78L393.03 84.28L391.26 90H390.3ZM399.465 90.12C398.415 90.12 397.795 89.53 397.795 88.64C397.795 87.74 398.465 87.18 399.615 87.09L401.155 86.97V86.83C401.155 86.01 400.665 85.72 400.005 85.72C399.215 85.72 398.765 86.07 398.765 86.66H397.945C397.945 85.64 398.785 84.97 400.045 84.97C401.255 84.97 402.075 85.61 402.075 86.93V90H401.275L401.175 89.21C400.925 89.77 400.255 90.12 399.465 90.12ZM399.735 89.39C400.625 89.39 401.165 88.81 401.165 87.89V87.63L399.915 87.73C399.085 87.81 398.745 88.13 398.745 88.61C398.745 89.13 399.125 89.39 399.735 89.39ZM404.679 90H403.739V85.9H402.779V85.11H403.739V83.58H404.679V85.11H405.639V85.9H404.679V90ZM408.544 90.12C407.104 90.12 406.114 89.08 406.114 87.56C406.114 86.03 407.084 84.97 408.504 84.97C409.894 84.97 410.804 85.93 410.804 87.38V87.73L407.024 87.74C407.094 88.77 407.634 89.34 408.564 89.34C409.294 89.34 409.774 89.04 409.934 88.48H410.814C410.574 89.53 409.754 90.12 408.544 90.12ZM408.504 85.76C407.684 85.76 407.164 86.25 407.044 87.11H409.864C409.864 86.3 409.334 85.76 408.504 85.76ZM414.654 85.07V85.93H414.234C413.344 85.93 412.794 86.47 412.794 87.41V90H411.854V85.12H412.734L412.794 85.86C412.994 85.35 413.484 85.01 414.154 85.01C414.324 85.01 414.464 85.03 414.654 85.07ZM416.475 90H415.535V85.11H416.375L416.465 85.75C416.715 85.29 417.235 84.97 417.925 84.97C418.685 84.97 419.225 85.35 419.475 85.96C419.705 85.35 420.295 84.97 421.055 84.97C422.175 84.97 422.855 85.67 422.855 86.8V90H421.935V87.03C421.935 86.26 421.505 85.82 420.845 85.82C420.135 85.82 419.665 86.32 419.665 87.1V90H418.735V87.02C418.735 86.25 418.315 85.83 417.655 85.83C416.945 85.83 416.475 86.32 416.475 87.1V90ZM426.269 90.12C424.829 90.12 423.839 89.08 423.839 87.56C423.839 86.03 424.809 84.97 426.229 84.97C427.619 84.97 428.529 85.93 428.529 87.38V87.73L424.749 87.74C424.819 88.77 425.359 89.34 426.289 89.34C427.019 89.34 427.499 89.04 427.659 88.48H428.539C428.299 89.53 427.479 90.12 426.269 90.12ZM426.229 85.76C425.409 85.76 424.889 86.25 424.769 87.11H427.589C427.589 86.3 427.059 85.76 426.229 85.76ZM430.538 90H429.598V82.64H430.538V90ZM431.602 87.55C431.602 86.04 432.682 84.98 434.152 84.98C435.612 84.98 436.692 86.04 436.692 87.55C436.692 89.06 435.612 90.12 434.152 90.12C432.682 90.12 431.602 89.06 431.602 87.55ZM432.552 87.55C432.552 88.57 433.202 89.28 434.152 89.28C435.092 89.28 435.752 88.57 435.752 87.55C435.752 86.53 435.092 85.82 434.152 85.82C433.202 85.82 432.552 86.53 432.552 87.55ZM438.673 90H437.733V85.11H438.583L438.683 85.86C438.993 85.3 439.613 84.97 440.303 84.97C441.593 84.97 442.183 85.76 442.183 87.01V90H441.243V87.22C441.243 86.23 440.783 85.83 440.063 85.83C439.183 85.83 438.673 86.46 438.673 87.41V90Z" fill="#E1E5F0"/>
<path d="M388.696 102H388.112L390.216 96.272H390.928L393.056 102H392.456L391.896 100.48H389.256L388.696 102ZM390.496 97.08L389.432 99.976H391.712L390.64 97.08C390.616 97 390.576 96.904 390.568 96.848C390.56 96.896 390.528 97 390.496 97.08ZM394.308 102H393.756V96.168H394.308V102ZM395.754 97.064C395.53 97.064 395.346 96.88 395.346 96.656C395.346 96.432 395.53 96.24 395.754 96.24C395.978 96.24 396.17 96.432 396.17 96.656C396.17 96.88 395.978 97.064 395.754 97.064ZM395.482 102V98.128H396.034V102H395.482ZM397.737 102H397.185V98.128H397.665L397.745 98.8C398.001 98.304 398.513 98.024 399.073 98.024C400.137 98.024 400.577 98.656 400.577 99.632V102H400.025V99.752C400.025 98.848 399.617 98.528 398.977 98.528C398.185 98.528 397.737 99.104 397.737 99.976V102ZM402.79 102.096C401.966 102.096 401.478 101.632 401.478 100.952C401.478 100.24 402.022 99.792 402.926 99.72L404.206 99.616V99.488C404.206 98.728 403.75 98.488 403.182 98.488C402.51 98.488 402.11 98.792 402.11 99.312H401.606C401.606 98.528 402.246 98.024 403.198 98.024C404.094 98.024 404.75 98.472 404.75 99.496V102H404.286L404.214 101.32C403.974 101.808 403.446 102.096 402.79 102.096ZM402.918 101.648C403.734 101.648 404.206 101.08 404.206 100.24V100.032L403.062 100.12C402.334 100.184 402.038 100.504 402.038 100.936C402.038 101.408 402.39 101.648 402.918 101.648ZM410.532 102.088C408.932 102.088 407.844 100.896 407.844 99.136C407.844 97.376 408.948 96.176 410.564 96.176C411.796 96.176 412.764 96.92 412.996 98.056H412.38C412.14 97.232 411.436 96.728 410.54 96.728C409.284 96.728 408.444 97.688 408.444 99.136C408.444 100.576 409.284 101.536 410.54 101.536C411.444 101.536 412.164 101.048 412.412 100.28H413.028C412.764 101.36 411.764 102.088 410.532 102.088ZM414.417 101.992H413.865V96.168H414.417V98.8C414.665 98.336 415.137 98.024 415.785 98.024C416.801 98.024 417.257 98.656 417.257 99.632V102H416.705V99.752C416.705 98.848 416.281 98.528 415.681 98.528C414.849 98.528 414.417 99.144 414.417 99.888V101.992ZM419.981 102.096C418.845 102.096 418.085 101.28 418.085 100.064C418.085 98.856 418.837 98.024 419.941 98.024C420.989 98.024 421.701 98.768 421.701 99.864V100.136H418.621C418.661 101.08 419.157 101.624 419.989 101.624C420.621 101.624 421.029 101.352 421.173 100.84H421.701C421.493 101.656 420.893 102.096 419.981 102.096ZM419.941 98.496C419.213 98.496 418.733 98.976 418.637 99.736H421.149C421.149 98.992 420.669 98.496 419.941 98.496ZM424.208 102.096C423.072 102.096 422.312 101.28 422.312 100.064C422.312 98.856 423.064 98.024 424.168 98.024C425.216 98.024 425.928 98.768 425.928 99.864V100.136H422.848C422.888 101.08 423.384 101.624 424.216 101.624C424.848 101.624 425.256 101.352 425.4 100.84H425.928C425.72 101.656 425.12 102.096 424.208 102.096ZM424.168 98.496C423.44 98.496 422.96 98.976 422.864 99.736H425.376C425.376 98.992 424.896 98.496 424.168 98.496ZM427.386 102H426.834V96.168H427.386V100.128L429.306 98.128H430.002L428.514 99.672L430.01 102H429.37L428.138 100.064L427.386 100.84V102Z" fill="#717C99"/>
<g clip-path="url(#clip5_1799_14143)">
<path d="M473.139 87C472.734 87.0005 472.333 87.0875 471.965 87.2552C471.596 87.4229 471.267 87.6675 471 87.9725C470.617 87.5357 470.11 87.2262 469.546 87.0854C468.982 86.9446 468.389 86.9791 467.846 87.1843C467.302 87.3896 466.834 87.7558 466.505 88.2341C466.175 88.7123 465.999 89.2799 466 89.8608C466 92.4575 470.523 96.7083 470.716 96.8883C470.793 96.9603 470.895 97.0003 471 97.0003C471.105 97.0003 471.207 96.9603 471.284 96.8883C471.477 96.7083 476 92.4575 476 89.8608C475.999 89.1024 475.697 88.3752 475.161 87.8389C474.625 87.3026 473.898 87.0009 473.139 87Z" fill="#576280"/>
</g>
<rect x="376" y="156" width="144" height="48" rx="8" fill="url(#paint4_linear_1799_14143)"/>
<g clip-path="url(#clip6_1799_14143)">
<path d="M407 168H393C390.239 168 388 170.239 388 173V187C388 189.761 390.239 192 393 192H407C409.761 192 412 189.761 412 187V173C412 170.239 409.761 168 407 168Z" fill="#28324D"/>
<path d="M401.39 176.248C401.791 175.99 402.1 175.633 402.1 175.2C402.1 173.899 400.877 173.1 400 173.1C399.123 173.1 397.9 173.899 397.9 175.2C397.9 175.633 398.209 175.99 398.61 176.248C395.587 176.89 393.1 179.533 393.1 182.4C393.1 182.566 393.234 182.7 393.4 182.7H396.414C397.616 182.7 398.655 181.927 398.998 180.783C399.004 180.765 399.503 179.244 400 177.514C400.497 179.244 400.996 180.764 401 180.776C401.345 181.927 402.384 182.7 403.586 182.7H406.6C406.766 182.7 406.9 182.566 406.9 182.4C406.9 179.533 404.413 176.89 401.39 176.248Z" fill="#FFDBC7"/>
<path d="M400.425 180.948C400.425 180.948 400.248 180.411 400 179.609C399.75 180.419 399.571 180.963 399.568 180.972C399.236 182.08 398.358 182.902 397.269 183.189C397.695 184.582 398.612 186.9 400 186.9C401.387 186.9 402.305 184.582 402.732 183.188C401.642 182.901 400.762 182.073 400.425 180.948ZM398.699 185.1C398.504 184.758 398.316 184.355 398.141 183.9H401.858C401.684 184.355 401.495 184.758 401.3 185.1H398.699Z" fill="#FF8D39"/>
</g>
<path d="M421.82 178H420.84V170.77H421.82V173.88H425.4V170.77H426.38V178H425.4V174.79H421.82V178ZM427.577 175.55C427.577 174.04 428.657 172.98 430.127 172.98C431.587 172.98 432.667 174.04 432.667 175.55C432.667 177.06 431.587 178.12 430.127 178.12C428.657 178.12 427.577 177.06 427.577 175.55ZM428.527 175.55C428.527 176.57 429.177 177.28 430.127 177.28C431.067 177.28 431.727 176.57 431.727 175.55C431.727 174.53 431.067 173.82 430.127 173.82C429.177 173.82 428.527 174.53 428.527 175.55ZM434.647 178H433.707V173.11H434.557L434.657 173.86C434.967 173.3 435.587 172.97 436.277 172.97C437.567 172.97 438.157 173.76 438.157 175.01V178H437.217V175.22C437.217 174.23 436.757 173.83 436.037 173.83C435.157 173.83 434.647 174.46 434.647 175.41V178ZM441.569 178.12C440.129 178.12 439.139 177.08 439.139 175.56C439.139 174.03 440.109 172.97 441.529 172.97C442.919 172.97 443.829 173.93 443.829 175.38V175.73L440.049 175.74C440.119 176.77 440.659 177.34 441.589 177.34C442.319 177.34 442.799 177.04 442.959 176.48H443.839C443.599 177.53 442.779 178.12 441.569 178.12ZM441.529 173.76C440.709 173.76 440.189 174.25 440.069 175.11H442.889C442.889 174.3 442.359 173.76 441.529 173.76ZM444.273 180.19V179.42H444.903C445.353 179.42 445.713 179.35 445.943 178.73L446.113 178.26L444.143 173.11H445.133L446.553 177.05L448.003 173.11H448.973L446.663 179.1C446.333 179.94 445.843 180.29 445.093 180.29C444.783 180.29 444.523 180.25 444.273 180.19ZM453.307 178H452.457V170.64H453.397V173.95C453.717 173.31 454.377 172.97 455.177 172.97C456.577 172.97 457.417 174.07 457.417 175.58C457.417 177.06 456.537 178.12 455.117 178.12C454.347 178.12 453.697 177.78 453.377 177.11L453.307 178ZM453.407 175.54C453.407 176.56 453.987 177.27 454.947 177.27C455.907 177.27 456.477 176.55 456.477 175.54C456.477 174.54 455.907 173.82 454.947 173.82C453.987 173.82 453.407 174.54 453.407 175.54ZM460.563 178.12C459.123 178.12 458.133 177.08 458.133 175.56C458.133 174.03 459.103 172.97 460.523 172.97C461.913 172.97 462.823 173.93 462.823 175.38V175.73L459.043 175.74C459.113 176.77 459.653 177.34 460.583 177.34C461.313 177.34 461.793 177.04 461.953 176.48H462.833C462.593 177.53 461.773 178.12 460.563 178.12ZM460.523 173.76C459.703 173.76 459.183 174.25 459.063 175.11H461.883C461.883 174.3 461.353 173.76 460.523 173.76ZM465.983 178.12C464.543 178.12 463.553 177.08 463.553 175.56C463.553 174.03 464.523 172.97 465.943 172.97C467.333 172.97 468.243 173.93 468.243 175.38V175.73L464.463 175.74C464.533 176.77 465.073 177.34 466.003 177.34C466.733 177.34 467.213 177.04 467.373 176.48H468.253C468.013 177.53 467.193 178.12 465.983 178.12ZM465.943 173.76C465.123 173.76 464.603 174.25 464.483 175.11H467.303C467.303 174.3 466.773 173.76 465.943 173.76Z" fill="#E1E5F0"/>
<path d="M422.88 187.896H421.272V190H420.696V184.272H422.88C423.984 184.272 424.68 184.992 424.68 186.072C424.68 187.112 423.976 187.896 422.88 187.896ZM422.8 184.792H421.272V187.376H422.768C423.6 187.376 424.08 186.848 424.08 186.064C424.08 185.272 423.592 184.792 422.8 184.792ZM426.446 190.096C425.622 190.096 425.134 189.632 425.134 188.952C425.134 188.24 425.678 187.792 426.582 187.72L427.862 187.616V187.488C427.862 186.728 427.406 186.488 426.838 186.488C426.166 186.488 425.766 186.792 425.766 187.312H425.262C425.262 186.528 425.902 186.024 426.854 186.024C427.75 186.024 428.406 186.472 428.406 187.496V190H427.942L427.87 189.32C427.63 189.808 427.102 190.096 426.446 190.096ZM426.574 189.648C427.39 189.648 427.862 189.08 427.862 188.24V188.032L426.718 188.12C425.99 188.184 425.694 188.504 425.694 188.936C425.694 189.408 426.046 189.648 426.574 189.648ZM432.234 186.128H432.786V190H432.306L432.234 189.344C432.018 189.792 431.482 190.096 430.874 190.096C429.962 190.096 429.465 189.472 429.465 188.528V186.12H430.026V188.352C430.026 189.272 430.434 189.6 431.049 189.6C431.794 189.6 432.234 189.104 432.234 188.184V186.128ZM434.511 190H433.959V184.168H434.511V190ZM438.6 184.272V189.472H441.232V190H438.024V184.272H438.6ZM443.52 190.096C442.384 190.096 441.624 189.28 441.624 188.064C441.624 186.856 442.376 186.024 443.48 186.024C444.528 186.024 445.24 186.768 445.24 187.864V188.136H442.16C442.2 189.08 442.696 189.624 443.528 189.624C444.16 189.624 444.568 189.352 444.712 188.84H445.24C445.032 189.656 444.432 190.096 443.52 190.096ZM443.48 186.496C442.752 186.496 442.272 186.976 442.176 187.736H444.688C444.688 186.992 444.208 186.496 443.48 186.496ZM447.747 190.096C446.611 190.096 445.851 189.28 445.851 188.064C445.851 186.856 446.603 186.024 447.707 186.024C448.755 186.024 449.467 186.768 449.467 187.864V188.136H446.387C446.427 189.08 446.923 189.624 447.755 189.624C448.387 189.624 448.795 189.352 448.939 188.84H449.467C449.259 189.656 448.659 190.096 447.747 190.096ZM447.707 186.496C446.979 186.496 446.499 186.976 446.403 187.736H448.915C448.915 186.992 448.435 186.496 447.707 186.496Z" fill="#717C99"/>
<g clip-path="url(#clip7_1799_14143)">
<path d="M505.139 175C504.734 175 504.333 175.088 503.965 175.255C503.596 175.423 503.267 175.667 503 175.973C502.617 175.536 502.11 175.226 501.546 175.085C500.982 174.945 500.389 174.979 499.846 175.184C499.302 175.39 498.834 175.756 498.505 176.234C498.175 176.712 497.999 177.28 498 177.861C498 180.458 502.523 184.708 502.716 184.888C502.793 184.96 502.895 185 503 185C503.105 185 503.207 184.96 503.284 184.888C503.477 184.708 508 180.458 508 177.861C507.999 177.102 507.697 176.375 507.161 175.839C506.625 175.303 505.898 175.001 505.139 175Z" fill="#576280"/>
</g>
<rect x="52" y="244" width="144" height="48" rx="8" fill="url(#paint5_linear_1799_14143)"/>
<g clip-path="url(#clip8_1799_14143)">
<path d="M83 256H69C66.2386 256 64 258.239 64 261V275C64 277.761 66.2386 280 69 280H83C85.7614 280 88 277.761 88 275V261C88 258.239 85.7614 256 83 256Z" fill="#28324D"/>
<path d="M82.7199 265.6L74.4399 262.06C74.3799 262 74.2599 262 74.1999 262C70.8399 262 69.1599 263.74 68.8599 265.6H82.7199Z" fill="#FFDBC7"/>
<path d="M82.5998 268.6C82.9598 268.6 83.1998 268.36 83.1998 268V266.8H68.7998V273.4C68.7998 273.76 69.0398 274 69.3998 274H82.5998C82.9598 274 83.1998 273.76 83.1998 273.4V271.6C83.1998 271.24 82.9598 271 82.5998 271C81.9398 271 81.3998 270.46 81.3998 269.8C81.3998 269.14 81.9398 268.6 82.5998 268.6ZM72.9998 272.2C71.9798 272.2 71.1998 271.42 71.1998 270.4C71.1998 269.38 71.9798 268.6 72.9998 268.6C74.0198 268.6 74.7998 269.38 74.7998 270.4C74.7998 271.42 74.0198 272.2 72.9998 272.2ZM77.7998 271.6C77.1398 271.6 76.5998 271.06 76.5998 270.4C76.5998 269.74 77.1398 269.2 77.7998 269.2C78.4598 269.2 78.9998 269.74 78.9998 270.4C78.9998 271.06 78.4598 271.6 77.7998 271.6Z" fill="#FF8D39"/>
</g>
<path d="M99.65 263.42H97.82V266H96.84V258.77H99.65C101.07 258.77 101.98 259.7 101.98 261.09C101.98 262.44 101.06 263.42 99.65 263.42ZM99.48 259.65H97.82V262.54H99.44C100.41 262.54 100.95 261.97 100.95 261.08C100.95 260.17 100.4 259.65 99.48 259.65ZM104.165 266.12C103.115 266.12 102.495 265.53 102.495 264.64C102.495 263.74 103.165 263.18 104.315 263.09L105.855 262.97V262.83C105.855 262.01 105.365 261.72 104.705 261.72C103.915 261.72 103.465 262.07 103.465 262.66H102.645C102.645 261.64 103.485 260.97 104.745 260.97C105.955 260.97 106.775 261.61 106.775 262.93V266H105.975L105.875 265.21C105.625 265.77 104.955 266.12 104.165 266.12ZM104.435 265.39C105.325 265.39 105.865 264.81 105.865 263.89V263.63L104.615 263.73C103.785 263.81 103.445 264.13 103.445 264.61C103.445 265.13 103.825 265.39 104.435 265.39ZM107.676 264.58H108.576C108.576 265.08 108.956 265.38 109.576 265.38C110.236 265.38 110.616 265.11 110.616 264.66C110.616 264.33 110.456 264.13 109.946 264L109.086 263.8C108.216 263.59 107.806 263.16 107.806 262.44C107.806 261.54 108.566 260.97 109.646 260.97C110.716 260.97 111.416 261.57 111.436 262.5H110.536C110.516 262.01 110.186 261.7 109.616 261.7C109.026 261.7 108.696 261.96 108.696 262.41C108.696 262.74 108.936 262.96 109.416 263.08L110.276 263.29C111.106 263.49 111.516 263.87 111.516 264.6C111.516 265.53 110.716 266.12 109.556 266.12C108.406 266.12 107.676 265.51 107.676 264.58ZM112.159 264.58H113.059C113.059 265.08 113.439 265.38 114.059 265.38C114.719 265.38 115.099 265.11 115.099 264.66C115.099 264.33 114.939 264.13 114.429 264L113.569 263.8C112.699 263.59 112.289 263.16 112.289 262.44C112.289 261.54 113.049 260.97 114.129 260.97C115.199 260.97 115.899 261.57 115.919 262.5H115.019C114.999 262.01 114.669 261.7 114.099 261.7C113.509 261.7 113.179 261.96 113.179 262.41C113.179 262.74 113.419 262.96 113.899 263.08L114.759 263.29C115.589 263.49 115.999 263.87 115.999 264.6C115.999 265.53 115.199 266.12 114.039 266.12C112.889 266.12 112.159 265.51 112.159 264.58ZM117.501 259.95C117.161 259.95 116.881 259.67 116.881 259.33C116.881 258.98 117.161 258.71 117.501 258.71C117.841 258.71 118.121 258.98 118.121 259.33C118.121 259.67 117.841 259.95 117.501 259.95ZM117.041 266V261.11H117.981V266H117.041ZM119.026 263.55C119.026 262.04 120.106 260.98 121.576 260.98C123.036 260.98 124.116 262.04 124.116 263.55C124.116 265.06 123.036 266.12 121.576 266.12C120.106 266.12 119.026 265.06 119.026 263.55ZM119.976 263.55C119.976 264.57 120.626 265.28 121.576 265.28C122.516 265.28 123.176 264.57 123.176 263.55C123.176 262.53 122.516 261.82 121.576 261.82C120.626 261.82 119.976 262.53 119.976 263.55ZM126.097 266H125.157V261.11H126.007L126.107 261.86C126.417 261.3 127.037 260.97 127.727 260.97C129.017 260.97 129.607 261.76 129.607 263.01V266H128.667V263.22C128.667 262.23 128.207 261.83 127.487 261.83C126.607 261.83 126.097 262.46 126.097 263.41V266ZM133.323 263.56C133.323 262.03 134.293 260.97 135.723 260.97C136.953 260.97 137.813 261.67 137.983 262.76H137.043C136.883 262.14 136.383 261.81 135.753 261.81C134.863 261.81 134.253 262.49 134.253 263.55C134.253 264.6 134.823 265.28 135.713 265.28C136.383 265.28 136.883 264.93 137.053 264.35H137.993C137.803 265.41 136.893 266.12 135.713 266.12C134.273 266.12 133.323 265.1 133.323 263.56ZM139.925 265.99H138.985V258.64H139.925V261.86C140.235 261.33 140.825 260.97 141.585 260.97C142.835 260.97 143.435 261.76 143.435 263.01V266H142.495V263.22C142.495 262.23 142.025 261.83 141.325 261.83C140.415 261.83 139.925 262.49 139.925 263.33V265.99ZM146.847 266.12C145.407 266.12 144.417 265.08 144.417 263.56C144.417 262.03 145.387 260.97 146.807 260.97C148.197 260.97 149.107 261.93 149.107 263.38V263.73L145.327 263.74C145.397 264.77 145.937 265.34 146.867 265.34C147.597 265.34 148.077 265.04 148.237 264.48H149.117C148.877 265.53 148.057 266.12 146.847 266.12ZM146.807 261.76C145.987 261.76 145.467 262.25 145.347 263.11H148.167C148.167 262.3 147.637 261.76 146.807 261.76ZM152.267 266.12C150.827 266.12 149.837 265.08 149.837 263.56C149.837 262.03 150.807 260.97 152.227 260.97C153.617 260.97 154.527 261.93 154.527 263.38V263.73L150.747 263.74C150.817 264.77 151.357 265.34 152.287 265.34C153.017 265.34 153.497 265.04 153.657 264.48H154.537C154.297 265.53 153.477 266.12 152.267 266.12ZM152.227 261.76C151.407 261.76 150.887 262.25 150.767 263.11H153.587C153.587 262.3 153.057 261.76 152.227 261.76ZM155.176 264.58H156.076C156.076 265.08 156.456 265.38 157.076 265.38C157.736 265.38 158.116 265.11 158.116 264.66C158.116 264.33 157.956 264.13 157.446 264L156.586 263.8C155.716 263.59 155.306 263.16 155.306 262.44C155.306 261.54 156.066 260.97 157.146 260.97C158.216 260.97 158.916 261.57 158.936 262.5H158.036C158.016 262.01 157.686 261.7 157.116 261.7C156.526 261.7 156.196 261.96 156.196 262.41C156.196 262.74 156.436 262.96 156.916 263.08L157.776 263.29C158.606 263.49 159.016 263.87 159.016 264.6C159.016 265.53 158.216 266.12 157.056 266.12C155.906 266.12 155.176 265.51 155.176 264.58ZM162.169 266.12C160.729 266.12 159.739 265.08 159.739 263.56C159.739 262.03 160.709 260.97 162.129 260.97C163.519 260.97 164.429 261.93 164.429 263.38V263.73L160.649 263.74C160.719 264.77 161.259 265.34 162.189 265.34C162.919 265.34 163.399 265.04 163.559 264.48H164.439C164.199 265.53 163.379 266.12 162.169 266.12ZM162.129 261.76C161.309 261.76 160.789 262.25 160.669 263.11H163.489C163.489 262.3 162.959 261.76 162.129 261.76Z" fill="#E1E5F0"/>
<path d="M98.44 278H96.696V272.272H98.424C100.152 272.272 101.304 273.424 101.304 275.136C101.304 276.848 100.16 278 98.44 278ZM98.4 272.8H97.272V277.472H98.416C99.816 277.472 100.712 276.56 100.712 275.136C100.712 273.704 99.816 272.8 98.4 272.8ZM102.496 273.064C102.272 273.064 102.088 272.88 102.088 272.656C102.088 272.432 102.272 272.24 102.496 272.24C102.72 272.24 102.912 272.432 102.912 272.656C102.912 272.88 102.72 273.064 102.496 273.064ZM102.224 278V274.128H102.776V278H102.224ZM104.48 278H103.928V274.128H104.408L104.472 274.68C104.664 274.272 105.096 274.024 105.64 274.024C106.248 274.024 106.704 274.344 106.888 274.848C107.064 274.344 107.536 274.024 108.16 274.024C109 274.024 109.552 274.568 109.552 275.464V278H109.016V275.576C109.016 274.912 108.648 274.52 108.056 274.52C107.408 274.52 107.024 275.008 107.024 275.608V278H106.48V275.568C106.48 274.912 106.104 274.528 105.52 274.528C104.872 274.528 104.48 275.008 104.48 275.6V278ZM110.934 273.064C110.71 273.064 110.526 272.88 110.526 272.656C110.526 272.432 110.71 272.24 110.934 272.24C111.158 272.24 111.35 272.432 111.35 272.656C111.35 272.88 111.158 273.064 110.934 273.064ZM110.662 278V274.128H111.214V278H110.662ZM113.253 278H112.709V274.592H111.933V274.128H112.709V272.904H113.253V274.128H114.029V274.592H113.253V278ZM116.772 274.08V274.576H116.468C115.756 274.576 115.3 275.056 115.3 275.792V278H114.748V274.128H115.268L115.308 274.728C115.46 274.312 115.868 274.04 116.412 274.04C116.532 274.04 116.636 274.048 116.772 274.08ZM117.231 279.688V279.232H117.655C117.991 279.232 118.327 279.208 118.519 278.688L118.687 278.232L117.119 274.128H117.703L118.951 277.504L120.175 274.128H120.743L118.967 278.888C118.743 279.496 118.367 279.744 117.815 279.744C117.583 279.744 117.407 279.728 117.231 279.688Z" fill="#717C99"/>
<g clip-path="url(#clip9_1799_14143)">
<path d="M181.139 263C180.734 263 180.333 263.088 179.965 263.255C179.596 263.423 179.267 263.667 179 263.973C178.617 263.536 178.11 263.226 177.546 263.085C176.982 262.945 176.389 262.979 175.846 263.184C175.302 263.39 174.834 263.756 174.505 264.234C174.175 264.712 173.999 265.28 174 265.861C174 268.458 178.523 272.708 178.716 272.888C178.793 272.96 178.895 273 179 273C179.105 273 179.207 272.96 179.284 272.888C179.477 272.708 184 268.458 184 265.861C183.999 265.102 183.697 264.375 183.161 263.839C182.625 263.303 181.898 263.001 181.139 263Z" fill="#576280"/>
</g>
<rect x="344" y="244" width="144" height="48" rx="8" fill="url(#paint6_linear_1799_14143)"/>
<g clip-path="url(#clip10_1799_14143)">
<path d="M375 256H361C358.239 256 356 258.239 356 261V275C356 277.761 358.239 280 361 280H375C377.761 280 380 277.761 380 275V261C380 258.239 377.761 256 375 256Z" fill="#28324D"/>
<path d="M372.934 269.531C372.884 269.507 372.828 269.496 372.773 269.501C372.717 269.506 372.664 269.527 372.62 269.56L368.6 272.575V268.855C368.202 268.915 367.798 268.915 367.4 268.855V272.575L363.38 269.56C363.335 269.527 363.282 269.506 363.227 269.501C363.171 269.496 363.116 269.507 363.066 269.532C363.016 269.557 362.974 269.595 362.945 269.642C362.915 269.69 362.9 269.744 362.9 269.8V272.2C362.901 272.916 363.185 273.602 363.692 274.108C364.198 274.614 364.884 274.899 365.6 274.9H370.4C371.116 274.899 371.802 274.614 372.308 274.108C372.814 273.602 373.099 272.916 373.1 272.2V269.8C373.1 269.744 373.084 269.69 373.055 269.642C373.026 269.595 372.984 269.556 372.934 269.531Z" fill="#2F6FF0"/>
<path d="M368 268.3C369.034 268.299 370.025 267.888 370.756 267.156C371.487 266.425 371.898 265.434 371.9 264.4V261.4C371.9 261.341 371.882 261.283 371.849 261.233C371.816 261.184 371.769 261.146 371.714 261.123C371.66 261.1 371.599 261.094 371.541 261.106C371.483 261.117 371.429 261.146 371.388 261.188L369.8 262.776L368.212 261.188C368.155 261.132 368.079 261.1 368 261.1C367.92 261.1 367.844 261.132 367.788 261.188L366.2 262.776L364.612 261.188C364.57 261.146 364.516 261.117 364.458 261.106C364.4 261.094 364.34 261.1 364.285 261.123C364.23 261.146 364.183 261.184 364.15 261.233C364.117 261.283 364.1 261.341 364.1 261.4V264.4C364.101 265.434 364.512 266.425 365.243 267.156C365.974 267.888 366.966 268.299 368 268.3Z" fill="#89A9FF"/>
</g>
<path d="M388.84 266V258.77H391.6C393.01 258.77 393.87 259.49 393.87 260.68C393.87 261.51 393.51 262.07 392.79 262.37C393.59 262.63 394 263.21 394 264.07C394 265.27 393.13 266 391.7 266H388.84ZM391.54 259.64H389.82V261.96H391.6C392.41 261.96 392.87 261.52 392.87 260.77C392.87 260.05 392.39 259.64 391.54 259.64ZM391.68 262.81H389.82V265.13H391.68C392.52 265.13 392.99 264.7 392.99 263.95C392.99 263.23 392.51 262.81 391.68 262.81ZM396.027 266H395.087V258.64H396.027V266ZM400.79 261.11H401.72V266H400.88L400.78 265.26C400.5 265.77 399.85 266.12 399.13 266.12C397.99 266.12 397.35 265.35 397.35 264.15V261.11H398.29V263.84C398.29 264.89 398.74 265.29 399.46 265.29C400.32 265.29 400.79 264.74 400.79 263.69V261.11ZM405.097 266.12C403.657 266.12 402.667 265.08 402.667 263.56C402.667 262.03 403.637 260.97 405.057 260.97C406.447 260.97 407.357 261.93 407.357 263.38V263.73L403.577 263.74C403.647 264.77 404.187 265.34 405.117 265.34C405.847 265.34 406.327 265.04 406.487 264.48H407.367C407.127 265.53 406.307 266.12 405.097 266.12ZM405.057 261.76C404.237 261.76 403.717 262.25 403.597 263.11H406.417C406.417 262.3 405.887 261.76 405.057 261.76ZM415.301 266H414.371V261.9H412.281V266H411.341V261.9H410.621V261.11H411.341V260.33C411.341 259.13 411.981 258.64 412.831 258.64C413.011 258.64 413.221 258.65 413.411 258.68V259.49H412.991C412.421 259.49 412.281 259.8 412.281 260.33V261.11H414.371V258.64H415.301V266ZM416.358 263.55C416.358 262.04 417.438 260.98 418.908 260.98C420.368 260.98 421.448 262.04 421.448 263.55C421.448 265.06 420.368 266.12 418.908 266.12C417.438 266.12 416.358 265.06 416.358 263.55ZM417.308 263.55C417.308 264.57 417.958 265.28 418.908 265.28C419.848 265.28 420.508 264.57 420.508 263.55C420.508 262.53 419.848 261.82 418.908 261.82C417.958 261.82 417.308 262.53 417.308 263.55ZM423.314 266L421.714 261.11H422.684L423.494 263.65C423.604 264.01 423.704 264.38 423.794 264.81C423.874 264.38 424.004 263.97 424.114 263.65L424.934 261.11H425.894L426.704 263.65C426.784 263.89 426.944 264.46 427.024 264.81C427.104 264.42 427.194 264.08 427.334 263.65L428.154 261.11H429.134L427.464 266H426.574L425.724 263.38C425.564 262.89 425.464 262.51 425.414 262.24C425.364 262.48 425.274 262.8 425.094 263.39L424.244 266H423.314ZM431.825 266.12C430.385 266.12 429.395 265.08 429.395 263.56C429.395 262.03 430.365 260.97 431.785 260.97C433.175 260.97 434.085 261.93 434.085 263.38V263.73L430.305 263.74C430.375 264.77 430.915 265.34 431.845 265.34C432.575 265.34 433.055 265.04 433.215 264.48H434.095C433.855 265.53 433.035 266.12 431.825 266.12ZM431.785 261.76C430.965 261.76 430.445 262.25 430.325 263.11H433.145C433.145 262.3 432.615 261.76 431.785 261.76ZM437.935 261.07V261.93H437.515C436.625 261.93 436.075 262.47 436.075 263.41V266H435.135V261.12H436.015L436.075 261.86C436.275 261.35 436.765 261.01 437.435 261.01C437.605 261.01 437.745 261.03 437.935 261.07ZM438.417 264.58H439.317C439.317 265.08 439.697 265.38 440.317 265.38C440.977 265.38 441.357 265.11 441.357 264.66C441.357 264.33 441.197 264.13 440.687 264L439.827 263.8C438.957 263.59 438.547 263.16 438.547 262.44C438.547 261.54 439.307 260.97 440.387 260.97C441.457 260.97 442.157 261.57 442.177 262.5H441.277C441.257 262.01 440.927 261.7 440.357 261.7C439.767 261.7 439.437 261.96 439.437 262.41C439.437 262.74 439.677 262.96 440.157 263.08L441.017 263.29C441.847 263.49 442.257 263.87 442.257 264.6C442.257 265.53 441.457 266.12 440.297 266.12C439.147 266.12 438.417 265.51 438.417 264.58Z" fill="#E1E5F0"/>
<path d="M388.096 272.8V272.272H392.2V272.8H390.432V278H389.856V272.8H388.096ZM393.425 277.992H392.873V272.168H393.425V274.8C393.673 274.336 394.145 274.024 394.793 274.024C395.809 274.024 396.265 274.656 396.265 275.632V278H395.713V275.752C395.713 274.848 395.289 274.528 394.689 274.528C393.857 274.528 393.425 275.144 393.425 275.888V277.992ZM398.989 278.096C397.853 278.096 397.093 277.28 397.093 276.064C397.093 274.856 397.845 274.024 398.949 274.024C399.997 274.024 400.709 274.768 400.709 275.864V276.136H397.629C397.669 277.08 398.165 277.624 398.997 277.624C399.629 277.624 400.037 277.352 400.181 276.84H400.709C400.501 277.656 399.901 278.096 398.989 278.096ZM398.949 274.496C398.221 274.496 397.741 274.976 397.645 275.736H400.157C400.157 274.992 399.677 274.496 398.949 274.496ZM404.626 278L403.346 274.128H403.914L404.674 276.464C404.762 276.72 404.834 276.984 404.914 277.296C404.978 276.984 405.106 276.592 405.146 276.464L405.914 274.128H406.482L407.242 276.464C407.314 276.672 407.41 277.008 407.482 277.296C407.562 276.976 407.578 276.88 407.714 276.464L408.482 274.128H409.058L407.746 278H407.21L406.41 275.568C406.314 275.28 406.25 275.04 406.202 274.808C406.146 275.016 406.082 275.248 405.978 275.568L405.178 278H404.626ZM410.688 278.096C409.864 278.096 409.376 277.632 409.376 276.952C409.376 276.24 409.92 275.792 410.824 275.72L412.104 275.616V275.488C412.104 274.728 411.648 274.488 411.08 274.488C410.408 274.488 410.008 274.792 410.008 275.312H409.504C409.504 274.528 410.144 274.024 411.096 274.024C411.992 274.024 412.648 274.472 412.648 275.496V278H412.184L412.112 277.32C411.872 277.808 411.344 278.096 410.688 278.096ZM410.816 277.648C411.632 277.648 412.104 277.08 412.104 276.24V276.032L410.96 276.12C410.232 276.184 409.936 276.504 409.936 276.936C409.936 277.408 410.288 277.648 410.816 277.648ZM414.308 278H413.756V274.128H414.236L414.316 274.8C414.572 274.304 415.084 274.024 415.644 274.024C416.708 274.024 417.148 274.656 417.148 275.632V278H416.596V275.752C416.596 274.848 416.188 274.528 415.548 274.528C414.756 274.528 414.308 275.104 414.308 275.976V278ZM419.768 278.096C418.64 278.096 417.976 277.232 417.976 276.072C417.976 274.904 418.64 274.024 419.792 274.024C420.432 274.024 420.944 274.304 421.216 274.864V272.168H421.768V278H421.288L421.232 277.208C420.96 277.808 420.416 278.096 419.768 278.096ZM419.864 277.592C420.712 277.592 421.208 276.952 421.208 276.056C421.208 275.168 420.712 274.52 419.864 274.52C419.024 274.52 418.536 275.168 418.536 276.056C418.536 276.952 419.024 277.592 419.864 277.592ZM424.544 278.096C423.408 278.096 422.648 277.28 422.648 276.064C422.648 274.856 423.4 274.024 424.504 274.024C425.552 274.024 426.264 274.768 426.264 275.864V276.136H423.184C423.224 277.08 423.72 277.624 424.552 277.624C425.184 277.624 425.592 277.352 425.736 276.84H426.264C426.056 277.656 425.456 278.096 424.544 278.096ZM424.504 274.496C423.776 274.496 423.296 274.976 423.2 275.736H425.712C425.712 274.992 425.232 274.496 424.504 274.496ZM429.17 274.08V274.576H428.866C428.154 274.576 427.698 275.056 427.698 275.792V278H427.146V274.128H427.666L427.706 274.728C427.858 274.312 428.266 274.04 428.81 274.04C428.93 274.04 429.034 274.048 429.17 274.08ZM429.576 276.912H430.104C430.104 277.36 430.44 277.64 430.984 277.64C431.584 277.64 431.936 277.384 431.936 276.968C431.936 276.648 431.776 276.464 431.32 276.352L430.656 276.184C429.984 276.016 429.656 275.664 429.656 275.136C429.656 274.456 430.224 274.024 431.056 274.024C431.872 274.024 432.4 274.472 432.424 275.192H431.888C431.872 274.744 431.56 274.48 431.04 274.48C430.496 274.48 430.192 274.712 430.192 275.128C430.192 275.424 430.4 275.632 430.824 275.736L431.488 275.904C432.16 276.072 432.464 276.384 432.464 276.944C432.464 277.64 431.872 278.096 430.992 278.096C430.12 278.096 429.576 277.632 429.576 276.912Z" fill="#717C99"/>
<g clip-path="url(#clip11_1799_14143)">
<path d="M473.139 263C472.734 263 472.333 263.088 471.965 263.255C471.596 263.423 471.267 263.667 471 263.973C470.617 263.536 470.11 263.226 469.546 263.085C468.982 262.945 468.389 262.979 467.846 263.184C467.302 263.39 466.834 263.756 466.505 264.234C466.175 264.712 465.999 265.28 466 265.861C466 268.458 470.523 272.708 470.716 272.888C470.793 272.96 470.895 273 471 273C471.105 273 471.207 272.96 471.284 272.888C471.477 272.708 476 268.458 476 265.861C475.999 265.102 475.697 264.375 475.161 263.839C474.625 263.303 473.898 263.001 473.139 263Z" fill="#576280"/>
</g>
<g clip-path="url(#clip12_1799_14143)">
<path d="M222.5 310C222.367 310 222.24 310.053 222.146 310.146C222.053 310.24 222 310.367 222 310.5V321.5C222 321.633 222.053 321.76 222.146 321.854C222.24 321.947 222.367 322 222.5 322C222.633 322 222.76 321.947 222.854 321.854C222.947 321.76 223 321.633 223 321.5V310.5C223 310.367 222.947 310.24 222.854 310.146C222.76 310.053 222.633 310 222.5 310Z" fill="#E1E5F0"/>
<path d="M232.732 310.058C232.652 310.016 232.561 309.996 232.471 310.001C232.38 310.007 232.292 310.037 232.217 310.088L224.217 315.588C224.15 315.634 224.096 315.695 224.058 315.767C224.02 315.839 224 315.919 224 316C224 316.081 224.02 316.161 224.058 316.233C224.096 316.304 224.15 316.366 224.217 316.412L232.217 321.912C232.3 321.969 232.399 322 232.5 322C232.581 322 232.661 321.98 232.732 321.942C232.813 321.9 232.881 321.836 232.928 321.758C232.975 321.68 233 321.591 233 321.5V310.5C233 310.409 232.975 310.319 232.928 310.242C232.881 310.164 232.813 310.1 232.732 310.058Z" fill="#E1E5F0"/>
</g>
<rect x="250.5" y="296.5" width="39" height="39" rx="19.5" stroke="url(#paint7_angular_1799_14143)"/>
<path d="M265 321.833H268.333V310.167H265V321.833ZM271.667 310.167V321.833H275V310.167H271.667Z" fill="#E1E5F0"/>
<g clip-path="url(#clip13_1799_14143)">
<path d="M317.5 310C317.367 310 317.24 310.053 317.146 310.146C317.053 310.24 317 310.367 317 310.5V321.5C317 321.633 317.053 321.76 317.146 321.854C317.24 321.947 317.367 322 317.5 322C317.633 322 317.76 321.947 317.854 321.854C317.947 321.76 318 321.633 318 321.5V310.5C318 310.367 317.947 310.24 317.854 310.146C317.76 310.053 317.633 310 317.5 310Z" fill="#E1E5F0"/>
<path d="M307.783 310.088C307.708 310.036 307.62 310.006 307.529 310.001C307.438 309.996 307.348 310.015 307.267 310.058C307.187 310.1 307.119 310.164 307.072 310.241C307.025 310.319 307 310.409 307 310.5V321.5C307 321.591 307.025 321.68 307.072 321.758C307.12 321.836 307.187 321.9 307.268 321.942C307.339 321.98 307.419 322 307.5 322C307.601 322 307.7 321.969 307.783 321.912L315.783 316.412C315.85 316.366 315.904 316.304 315.942 316.233C315.98 316.161 316 316.081 316 316C316 315.919 315.98 315.839 315.942 315.767C315.904 315.695 315.85 315.634 315.783 315.588L307.783 310.088Z" fill="#E1E5F0"/>
</g>
<defs>
<filter id="filter0_f_1799_14143" x="90" y="0" width="360" height="360" filterUnits="userSpaceOnUse" color-interpolation-filters="sRGB">
<feFlood flood-opacity="0" result="BackgroundImageFix"/>
<feBlend mode="normal" in="SourceGraphic" in2="BackgroundImageFix" result="shape"/>
<feGaussianBlur stdDeviation="60" result="effect1_foregroundBlur_1799_14143"/>
</filter>
<linearGradient id="paint0_linear_1799_14143" x1="270" y1="122.5" x2="270" y2="237.5" gradientUnits="userSpaceOnUse">
<stop stop-color="#161E33"/>
<stop offset="1" stop-color="#0E1424"/>
</linearGradient>
<linearGradient id="paint1_linear_1799_14143" x1="124" y1="68" x2="124" y2="116" gradientUnits="userSpaceOnUse">
<stop stop-color="#161E33"/>
<stop offset="1" stop-color="#0E1424"/>
</linearGradient>
<linearGradient id="paint2_linear_1799_14143" x1="94" y1="156" x2="94" y2="204" gradientUnits="userSpaceOnUse">
<stop stop-color="#161E33"/>
<stop offset="1" stop-color="#0E1424"/>
</linearGradient>
<linearGradient id="paint3_linear_1799_14143" x1="416" y1="68" x2="416" y2="116" gradientUnits="userSpaceOnUse">
<stop stop-color="#161E33"/>
<stop offset="1" stop-color="#0E1424"/>
</linearGradient>
<linearGradient id="paint4_linear_1799_14143" x1="448" y1="156" x2="448" y2="204" gradientUnits="userSpaceOnUse">
<stop stop-color="#161E33"/>
<stop offset="1" stop-color="#0E1424"/>
</linearGradient>
<linearGradient id="paint5_linear_1799_14143" x1="124" y1="244" x2="124" y2="292" gradientUnits="userSpaceOnUse">
<stop stop-color="#161E33"/>
<stop offset="1" stop-color="#0E1424"/>
</linearGradient>
<linearGradient id="paint6_linear_1799_14143" x1="416" y1="244" x2="416" y2="292" gradientUnits="userSpaceOnUse">
<stop stop-color="#161E33"/>
<stop offset="1" stop-color="#0E1424"/>
</linearGradient>
<radialGradient id="paint7_angular_1799_14143" cx="0" cy="0" r="1" gradientUnits="userSpaceOnUse" gradientTransform="translate(270 316) rotate(90) scale(20)">
<stop stop-color="#DC244C"/>
<stop offset="0.753625" stop-color="#DC244C"/>
<stop offset="0.755407" stop-color="#94A8D3"/>
<stop offset="0.998326" stop-color="#B4BACC"/>
<stop offset="1" stop-color="#B4BACC" stop-opacity="0"/>
</radialGradient>
<clipPath id="clip0_1799_14143">
<rect width="24" height="24" fill="white" transform="translate(64 80)"/>
</clipPath>
<clipPath id="clip1_1799_14143">
<rect width="10" height="10" fill="white" transform="translate(174 87)"/>
</clipPath>
<clipPath id="clip2_1799_14143">
<rect width="24" height="24" fill="white" transform="translate(34 168)"/>
</clipPath>
<clipPath id="clip3_1799_14143">
<rect width="10" height="10" fill="white" transform="translate(144 175)"/>
</clipPath>
<clipPath id="clip4_1799_14143">
<rect width="24" height="24" fill="white" transform="translate(356 80)"/>
</clipPath>
<clipPath id="clip5_1799_14143">
<rect width="10" height="10" fill="white" transform="translate(466 87)"/>
</clipPath>
<clipPath id="clip6_1799_14143">
<rect width="24" height="24" fill="white" transform="translate(388 168)"/>
</clipPath>
<clipPath id="clip7_1799_14143">
<rect width="10" height="10" fill="white" transform="translate(498 175)"/>
</clipPath>
<clipPath id="clip8_1799_14143">
<rect width="24" height="24" fill="white" transform="translate(64 256)"/>
</clipPath>
<clipPath id="clip9_1799_14143">
<rect width="10" height="10" fill="white" transform="translate(174 263)"/>
</clipPath>
<clipPath id="clip10_1799_14143">
<rect width="24" height="24" fill="white" transform="translate(356 256)"/>
</clipPath>
<clipPath id="clip11_1799_14143">
<rect width="10" height="10" fill="white" transform="translate(466 263)"/>
</clipPath>
<clipPath id="clip12_1799_14143">
<rect width="12" height="12" fill="white" transform="translate(222 310)"/>
</clipPath>
<clipPath id="clip13_1799_14143">
<rect width="12" height="12" fill="white" transform="translate(306 310)"/>
</clipPath>
</defs>
</svg>
