<svg width="540" height="361" viewBox="0 0 540 361" fill="none" xmlns="http://www.w3.org/2000/svg">
<rect x="38" y="20" width="64" height="64" rx="8" fill="url(#paint0_linear_1799_14256)"/>
<g clip-path="url(#clip0_1799_14256)">
<path d="M55.8335 52.0002C53.0763 52.0002 50.8335 49.7573 50.8335 47.0002V33.6668C50.8335 33.2062 51.2066 32.8335 51.6668 32.8335C56.7547 32.8335 61.474 35.8022 63.6899 40.397C63.8193 40.6655 63.7953 40.9829 63.6273 41.2287L56.5216 51.6364C56.3665 51.8643 56.109 52.0002 55.8335 52.0002Z" fill="#733501"/>
<path d="M84.1666 52.0002C83.8911 52.0002 83.6335 51.8643 83.4785 51.6364L76.3728 41.2287C76.2047 40.9829 76.1807 40.6655 76.3101 40.397C78.5261 35.8022 83.2453 32.8335 88.3332 32.8335C88.7934 32.8335 89.1666 33.2062 89.1666 33.6668V47.0002C89.1666 49.7573 86.9237 52.0002 84.1666 52.0002Z" fill="#733501"/>
<path d="M74.1667 39.5H65.8333C59.8596 39.5 55 44.36 55 50.3333V60.3333C55 63.5942 56.7546 66.6354 59.5793 68.2712L59.7729 68.3835L80.2242 68.3851L80.4179 68.2728C83.2442 66.6379 85 63.595 85 60.3333V50.3333C85 44.36 80.1404 39.5 74.1667 39.5Z" fill="#E1E5F0"/>
<path d="M62.5002 53.6668C63.4206 53.6668 64.1668 52.9206 64.1668 52.0002C64.1668 51.0797 63.4206 50.3335 62.5002 50.3335C61.5797 50.3335 60.8335 51.0797 60.8335 52.0002C60.8335 52.9206 61.5797 53.6668 62.5002 53.6668Z" fill="#161E33"/>
<path d="M77.5002 53.6668C78.4206 53.6668 79.1668 52.9206 79.1668 52.0002C79.1668 51.0797 78.4206 50.3335 77.5002 50.3335C76.5797 50.3335 75.8335 51.0797 75.8335 52.0002C75.8335 52.9206 76.5797 53.6668 77.5002 53.6668Z" fill="#161E33"/>
<path d="M60.3276 63.667C61.4393 67.9777 65.342 71.167 69.9999 71.167C74.6578 71.167 78.5604 67.9777 79.6721 63.667H60.3276Z" fill="#3D4866"/>
<path d="M70.0003 61.4444V63.6667C70.0003 67.3333 67.0003 70.3333 63.3337 70.3333H59.167V62C59.167 59.2386 61.4056 57 64.167 57H66.2503L70.0003 61.4444Z" fill="#8F98B3"/>
<path d="M70 61.4444V63.6667C70 67.3333 73 70.3333 76.6667 70.3333H80.8333V62C80.8333 59.2386 78.5948 57 75.8333 57H73.75L70 61.4444Z" fill="#8F98B3"/>
<path d="M74.3634 57.3185C74.0081 56.6081 73.294 56.167 72.5002 56.167H67.5002C66.7063 56.167 65.9922 56.6081 65.637 57.3185C65.2817 58.0282 65.357 58.8647 65.8335 59.5003L68.3335 62.8345C68.7306 63.3634 69.3381 63.667 70.0002 63.667C70.6622 63.667 71.2697 63.3634 71.6668 62.8337L74.1672 59.5003C74.6433 58.8647 74.7186 58.0282 74.3634 57.3185Z" fill="#161E33"/>
</g>
<rect x="118.5" y="20.5" width="63" height="63" rx="7.5" fill="url(#paint1_linear_1799_14256)"/>
<rect x="118.5" y="20.5" width="63" height="63" rx="7.5" stroke="#DC244C"/>
<path d="M150 71.1667C141.269 71.1667 134.167 64.0642 134.167 55.3333V35.3334C134.167 35.0125 134.351 34.7217 134.639 34.5825C134.926 34.4434 135.27 34.4825 135.521 34.6825L143.439 41.0175C144.488 40.5258 147.034 39.5009 150 39.5009C152.967 39.5009 155.513 40.5258 156.562 41.0175L164.479 34.6825C164.729 34.4825 165.071 34.4442 165.362 34.5825C165.65 34.7217 165.834 35.0134 165.834 35.3334V55.3333C165.834 64.0642 158.731 71.1667 150 71.1667Z" fill="#89A9FF"/>
<path d="M157.327 64.0065C157.052 63.6382 156.529 63.5615 156.161 63.8382C155.583 64.2715 154.893 64.4999 154.167 64.4999C152.51 64.4999 151.129 63.3082 150.885 61.6665C150.825 61.2632 150.483 60.9924 150.088 60.974C150.079 60.9724 150.073 60.9665 150.063 60.9649C150.041 60.9624 150.022 60.9699 150 60.969C149.978 60.9699 149.959 60.9624 149.938 60.9649C149.928 60.9665 149.921 60.9724 149.912 60.974C149.518 60.9924 149.176 61.2632 149.115 61.6665C148.87 63.309 147.49 64.4999 145.833 64.4999C145.108 64.4999 144.418 64.2715 143.839 63.8382C143.47 63.5615 142.948 63.6382 142.673 64.0065C142.398 64.374 142.473 64.8965 142.842 65.1724C143.71 65.8224 144.744 66.1657 145.833 66.1657C147.581 66.1657 149.108 65.2732 150 63.8949C150.892 65.2732 152.419 66.1657 154.167 66.1657C155.256 66.1657 156.29 65.8224 157.158 65.1724C157.527 64.8965 157.603 64.374 157.327 64.0065Z" fill="#161E33"/>
<path d="M143.75 53.6667C142.601 53.6667 141.667 52.7325 141.667 51.5833C141.667 50.4342 142.601 49.5 143.75 49.5C144.899 49.5 145.834 50.4342 145.834 51.5833C145.834 52.7325 144.899 53.6667 143.75 53.6667Z" fill="#161E33"/>
<path d="M156.25 53.6667C155.101 53.6667 154.167 52.7325 154.167 51.5833C154.167 50.4342 155.101 49.5 156.25 49.5C157.399 49.5 158.334 50.4342 158.334 51.5833C158.334 52.7325 157.399 53.6667 156.25 53.6667Z" fill="#161E33"/>
<path d="M150 62.626C149.643 62.626 149.309 62.4877 149.058 62.236L146.931 60.1093C146.548 59.7268 146.434 59.156 146.642 58.656C146.848 58.156 147.332 57.8335 147.873 57.8335H152.127C152.668 57.8335 153.151 58.1568 153.358 58.656C153.566 59.1568 153.452 59.7268 153.069 60.1093L150.943 62.236C150.691 62.4877 150.357 62.626 150 62.626Z" fill="#FF516B"/>
<path d="M142.501 58.6667C142.455 58.6667 142.41 58.6634 142.364 58.655L132.364 56.9884C131.909 56.9125 131.603 56.4834 131.679 56.03C131.754 55.5759 132.184 55.2634 132.637 55.345L142.637 57.0117C143.091 57.0875 143.398 57.5167 143.322 57.97C143.254 58.3775 142.901 58.6667 142.501 58.6667Z" fill="#161E33"/>
<path d="M134.166 64.5001C133.784 64.5001 133.439 64.2359 133.353 63.8476C133.254 63.3984 133.537 62.9534 133.986 62.8534L141.486 61.1867C141.935 61.0926 142.38 61.3709 142.48 61.8201C142.579 62.2692 142.296 62.7142 141.847 62.8142L134.347 64.4809C134.286 64.4942 134.227 64.5001 134.166 64.5001Z" fill="#161E33"/>
<path d="M157.499 58.6665C157.099 58.6665 156.746 58.3773 156.679 57.9698C156.603 57.5165 156.909 57.0865 157.364 57.0115L167.364 55.3448C167.818 55.264 168.247 55.5756 168.322 56.0298C168.398 56.4831 168.091 56.9131 167.637 56.9881L157.637 58.6548C157.59 58.6631 157.545 58.6665 157.499 58.6665Z" fill="#161E33"/>
<path d="M165.834 64.4998C165.774 64.4998 165.713 64.4932 165.653 64.4807L158.153 62.814C157.703 62.714 157.42 62.269 157.519 61.8198C157.619 61.3707 158.068 61.0932 158.513 61.1865L166.013 62.8532C166.463 62.9532 166.746 63.3982 166.647 63.8473C166.56 64.2357 166.216 64.4998 165.834 64.4998Z" fill="#161E33"/>
<rect x="198" y="20" width="64" height="64" rx="8" fill="url(#paint2_linear_1799_14256)"/>
<g clip-path="url(#clip1_1799_14256)">
<path d="M215.833 52.0002C213.076 52.0002 210.833 49.7573 210.833 47.0002V33.6668C210.833 33.2062 211.207 32.8335 211.667 32.8335C216.755 32.8335 221.474 35.8022 223.69 40.397C223.819 40.6655 223.795 40.9829 223.627 41.2287L216.522 51.6364C216.367 51.8643 216.109 52.0002 215.833 52.0002Z" fill="#733501"/>
<path d="M244.167 52.0002C243.891 52.0002 243.634 51.8643 243.478 51.6364L236.373 41.2287C236.205 40.9829 236.181 40.6655 236.31 40.397C238.526 35.8022 243.245 32.8335 248.333 32.8335C248.793 32.8335 249.167 33.2062 249.167 33.6668V47.0002C249.167 49.7573 246.924 52.0002 244.167 52.0002Z" fill="#733501"/>
<path d="M234.167 39.5H225.833C219.86 39.5 215 44.36 215 50.3333V60.3333C215 63.5942 216.755 66.6354 219.579 68.2712L219.773 68.3835L240.224 68.3851L240.418 68.2728C243.244 66.6379 245 63.595 245 60.3333V50.3333C245 44.36 240.14 39.5 234.167 39.5Z" fill="#E1E5F0"/>
<path d="M222.5 53.6668C223.421 53.6668 224.167 52.9206 224.167 52.0002C224.167 51.0797 223.421 50.3335 222.5 50.3335C221.58 50.3335 220.833 51.0797 220.833 52.0002C220.833 52.9206 221.58 53.6668 222.5 53.6668Z" fill="#161E33"/>
<path d="M237.5 53.6668C238.421 53.6668 239.167 52.9206 239.167 52.0002C239.167 51.0797 238.421 50.3335 237.5 50.3335C236.58 50.3335 235.833 51.0797 235.833 52.0002C235.833 52.9206 236.58 53.6668 237.5 53.6668Z" fill="#161E33"/>
<path d="M220.328 63.667C221.439 67.9777 225.342 71.167 230 71.167C234.658 71.167 238.56 67.9777 239.672 63.667H220.328Z" fill="#3D4866"/>
<path d="M230 61.4444V63.6667C230 67.3333 227 70.3333 223.334 70.3333H219.167V62C219.167 59.2386 221.406 57 224.167 57H226.25L230 61.4444Z" fill="#8F98B3"/>
<path d="M230 61.4444V63.6667C230 67.3333 233 70.3333 236.667 70.3333H240.833V62C240.833 59.2386 238.595 57 235.833 57H233.75L230 61.4444Z" fill="#8F98B3"/>
<path d="M234.363 57.3185C234.008 56.6081 233.294 56.167 232.5 56.167H227.5C226.706 56.167 225.992 56.6081 225.637 57.3185C225.282 58.0282 225.357 58.8647 225.834 59.5003L228.334 62.8345C228.731 63.3634 229.338 63.667 230 63.667C230.662 63.667 231.27 63.3634 231.667 62.8337L234.167 59.5003C234.643 58.8647 234.719 58.0282 234.363 57.3185Z" fill="#161E33"/>
</g>
<rect x="278" y="20" width="64" height="64" rx="8" fill="url(#paint3_linear_1799_14256)"/>
<g clip-path="url(#clip2_1799_14256)">
<path d="M295.833 52.0002C293.076 52.0002 290.833 49.7573 290.833 47.0002V33.6668C290.833 33.2062 291.207 32.8335 291.667 32.8335C296.755 32.8335 301.474 35.8022 303.69 40.397C303.819 40.6655 303.795 40.9829 303.627 41.2287L296.522 51.6364C296.367 51.8643 296.109 52.0002 295.833 52.0002Z" fill="#733501"/>
<path d="M324.167 52.0002C323.891 52.0002 323.634 51.8643 323.478 51.6364L316.373 41.2287C316.205 40.9829 316.181 40.6655 316.31 40.397C318.526 35.8022 323.245 32.8335 328.333 32.8335C328.793 32.8335 329.167 33.2062 329.167 33.6668V47.0002C329.167 49.7573 326.924 52.0002 324.167 52.0002Z" fill="#733501"/>
<path d="M314.167 39.5H305.833C299.86 39.5 295 44.36 295 50.3333V60.3333C295 63.5942 296.755 66.6354 299.579 68.2712L299.773 68.3835L320.224 68.3851L320.418 68.2728C323.244 66.6379 325 63.595 325 60.3333V50.3333C325 44.36 320.14 39.5 314.167 39.5Z" fill="#E1E5F0"/>
<path d="M302.5 53.6668C303.421 53.6668 304.167 52.9206 304.167 52.0002C304.167 51.0797 303.421 50.3335 302.5 50.3335C301.58 50.3335 300.833 51.0797 300.833 52.0002C300.833 52.9206 301.58 53.6668 302.5 53.6668Z" fill="#161E33"/>
<path d="M317.5 53.6668C318.421 53.6668 319.167 52.9206 319.167 52.0002C319.167 51.0797 318.421 50.3335 317.5 50.3335C316.58 50.3335 315.833 51.0797 315.833 52.0002C315.833 52.9206 316.58 53.6668 317.5 53.6668Z" fill="#161E33"/>
<path d="M300.328 63.667C301.439 67.9777 305.342 71.167 310 71.167C314.658 71.167 318.56 67.9777 319.672 63.667H300.328Z" fill="#3D4866"/>
<path d="M310 61.4444V63.6667C310 67.3333 307 70.3333 303.334 70.3333H299.167V62C299.167 59.2386 301.406 57 304.167 57H306.25L310 61.4444Z" fill="#8F98B3"/>
<path d="M310 61.4444V63.6667C310 67.3333 313 70.3333 316.667 70.3333H320.833V62C320.833 59.2386 318.595 57 315.833 57H313.75L310 61.4444Z" fill="#8F98B3"/>
<path d="M314.363 57.3185C314.008 56.6081 313.294 56.167 312.5 56.167H307.5C306.706 56.167 305.992 56.6081 305.637 57.3185C305.282 58.0282 305.357 58.8647 305.834 59.5003L308.334 62.8345C308.731 63.3634 309.338 63.667 310 63.667C310.662 63.667 311.27 63.3634 311.667 62.8337L314.167 59.5003C314.643 58.8647 314.719 58.0282 314.363 57.3185Z" fill="#161E33"/>
</g>
<rect x="358.5" y="20.5" width="63" height="63" rx="7.5" fill="url(#paint4_linear_1799_14256)"/>
<rect x="358.5" y="20.5" width="63" height="63" rx="7.5" stroke="#DC244C"/>
<path d="M390 71.1667C381.269 71.1667 374.167 64.0642 374.167 55.3333V35.3334C374.167 35.0125 374.351 34.7217 374.639 34.5825C374.926 34.4434 375.27 34.4825 375.521 34.6825L383.439 41.0175C384.488 40.5258 387.034 39.5009 390 39.5009C392.967 39.5009 395.513 40.5258 396.562 41.0175L404.479 34.6825C404.729 34.4825 405.071 34.4442 405.362 34.5825C405.65 34.7217 405.834 35.0134 405.834 35.3334V55.3333C405.834 64.0642 398.731 71.1667 390 71.1667Z" fill="#89A9FF"/>
<path d="M397.327 64.0065C397.052 63.6382 396.529 63.5615 396.161 63.8382C395.583 64.2715 394.893 64.4999 394.167 64.4999C392.51 64.4999 391.129 63.3082 390.885 61.6665C390.825 61.2632 390.483 60.9924 390.088 60.974C390.079 60.9724 390.073 60.9665 390.063 60.9649C390.041 60.9624 390.022 60.9699 390 60.969C389.978 60.9699 389.959 60.9624 389.938 60.9649C389.928 60.9665 389.921 60.9724 389.912 60.974C389.518 60.9924 389.176 61.2632 389.115 61.6665C388.87 63.309 387.49 64.4999 385.833 64.4999C385.108 64.4999 384.418 64.2715 383.839 63.8382C383.47 63.5615 382.948 63.6382 382.673 64.0065C382.398 64.374 382.473 64.8965 382.842 65.1724C383.71 65.8224 384.744 66.1657 385.833 66.1657C387.581 66.1657 389.108 65.2732 390 63.8949C390.892 65.2732 392.419 66.1657 394.167 66.1657C395.256 66.1657 396.29 65.8224 397.158 65.1724C397.527 64.8965 397.603 64.374 397.327 64.0065Z" fill="#161E33"/>
<path d="M383.75 53.6667C382.601 53.6667 381.667 52.7325 381.667 51.5833C381.667 50.4342 382.601 49.5 383.75 49.5C384.899 49.5 385.834 50.4342 385.834 51.5833C385.834 52.7325 384.899 53.6667 383.75 53.6667Z" fill="#161E33"/>
<path d="M396.25 53.6667C395.101 53.6667 394.167 52.7325 394.167 51.5833C394.167 50.4342 395.101 49.5 396.25 49.5C397.399 49.5 398.334 50.4342 398.334 51.5833C398.334 52.7325 397.399 53.6667 396.25 53.6667Z" fill="#161E33"/>
<path d="M390 62.626C389.643 62.626 389.309 62.4877 389.058 62.236L386.931 60.1093C386.548 59.7268 386.434 59.156 386.642 58.656C386.848 58.156 387.332 57.8335 387.873 57.8335H392.127C392.668 57.8335 393.151 58.1568 393.358 58.656C393.566 59.1568 393.452 59.7268 393.069 60.1093L390.943 62.236C390.691 62.4877 390.357 62.626 390 62.626Z" fill="#FF516B"/>
<path d="M382.501 58.6667C382.455 58.6667 382.41 58.6634 382.364 58.655L372.364 56.9884C371.909 56.9125 371.603 56.4834 371.679 56.03C371.754 55.5759 372.184 55.2634 372.637 55.345L382.637 57.0117C383.091 57.0875 383.398 57.5167 383.322 57.97C383.254 58.3775 382.901 58.6667 382.501 58.6667Z" fill="#161E33"/>
<path d="M374.166 64.5001C373.784 64.5001 373.439 64.2359 373.353 63.8476C373.254 63.3984 373.537 62.9534 373.986 62.8534L381.486 61.1867C381.935 61.0926 382.38 61.3709 382.48 61.8201C382.579 62.2692 382.296 62.7142 381.847 62.8142L374.347 64.4809C374.286 64.4942 374.227 64.5001 374.166 64.5001Z" fill="#161E33"/>
<path d="M397.499 58.6665C397.099 58.6665 396.746 58.3773 396.679 57.9698C396.603 57.5165 396.909 57.0865 397.364 57.0115L407.364 55.3448C407.818 55.264 408.247 55.5756 408.322 56.0298C408.398 56.4831 408.091 56.9131 407.637 56.9881L397.637 58.6548C397.59 58.6631 397.545 58.6665 397.499 58.6665Z" fill="#161E33"/>
<path d="M405.834 64.4998C405.774 64.4998 405.713 64.4932 405.653 64.4807L398.153 62.814C397.703 62.714 397.42 62.269 397.519 61.8198C397.619 61.3707 398.068 61.0932 398.513 61.1865L406.013 62.8532C406.463 62.9532 406.746 63.3982 406.647 63.8473C406.56 64.2357 406.216 64.4998 405.834 64.4998Z" fill="#161E33"/>
<rect x="438" y="20" width="64" height="64" rx="8" fill="url(#paint5_linear_1799_14256)"/>
<g clip-path="url(#clip3_1799_14256)">
<path d="M455.833 52.0002C453.076 52.0002 450.833 49.7573 450.833 47.0002V33.6668C450.833 33.2062 451.207 32.8335 451.667 32.8335C456.755 32.8335 461.474 35.8022 463.69 40.397C463.819 40.6655 463.795 40.9829 463.627 41.2287L456.522 51.6364C456.367 51.8643 456.109 52.0002 455.833 52.0002Z" fill="#733501"/>
<path d="M484.167 52.0002C483.891 52.0002 483.634 51.8643 483.478 51.6364L476.373 41.2287C476.205 40.9829 476.181 40.6655 476.31 40.397C478.526 35.8022 483.245 32.8335 488.333 32.8335C488.793 32.8335 489.167 33.2062 489.167 33.6668V47.0002C489.167 49.7573 486.924 52.0002 484.167 52.0002Z" fill="#733501"/>
<path d="M474.167 39.5H465.833C459.86 39.5 455 44.36 455 50.3333V60.3333C455 63.5942 456.755 66.6354 459.579 68.2712L459.773 68.3835L480.224 68.3851L480.418 68.2728C483.244 66.6379 485 63.595 485 60.3333V50.3333C485 44.36 480.14 39.5 474.167 39.5Z" fill="#E1E5F0"/>
<path d="M462.5 53.6668C463.421 53.6668 464.167 52.9206 464.167 52.0002C464.167 51.0797 463.421 50.3335 462.5 50.3335C461.58 50.3335 460.833 51.0797 460.833 52.0002C460.833 52.9206 461.58 53.6668 462.5 53.6668Z" fill="#161E33"/>
<path d="M477.5 53.6668C478.421 53.6668 479.167 52.9206 479.167 52.0002C479.167 51.0797 478.421 50.3335 477.5 50.3335C476.58 50.3335 475.833 51.0797 475.833 52.0002C475.833 52.9206 476.58 53.6668 477.5 53.6668Z" fill="#161E33"/>
<path d="M460.328 63.667C461.439 67.9777 465.342 71.167 470 71.167C474.658 71.167 478.56 67.9777 479.672 63.667H460.328Z" fill="#3D4866"/>
<path d="M470 61.4444V63.6667C470 67.3333 467 70.3333 463.334 70.3333H459.167V62C459.167 59.2386 461.406 57 464.167 57H466.25L470 61.4444Z" fill="#8F98B3"/>
<path d="M470 61.4444V63.6667C470 67.3333 473 70.3333 476.667 70.3333H480.833V62C480.833 59.2386 478.595 57 475.833 57H473.75L470 61.4444Z" fill="#8F98B3"/>
<path d="M474.363 57.3185C474.008 56.6081 473.294 56.167 472.5 56.167H467.5C466.706 56.167 465.992 56.6081 465.637 57.3185C465.282 58.0282 465.357 58.8647 465.834 59.5003L468.334 62.8345C468.731 63.3634 469.338 63.667 470 63.667C470.662 63.667 471.27 63.3634 471.667 62.8337L474.167 59.5003C474.643 58.8647 474.719 58.0282 474.363 57.3185Z" fill="#161E33"/>
</g>
<path d="M149.667 15.3333C150.311 15.3333 150.833 14.811 150.833 14.1667C150.833 13.5223 150.311 13 149.667 13C149.022 13 148.5 13.5223 148.5 14.1667C148.5 14.811 149.022 15.3333 149.667 15.3333Z" fill="#DC244C"/>
<path d="M149.976 1.00033C148.759 1.00033 147.563 1.31067 146.499 1.90167L145.753 2.31633C145.592 2.40567 145.535 2.60867 145.624 2.76967L146.272 3.935C146.361 4.096 146.564 4.15367 146.725 4.06433L147.308 3.74033C148.137 3.27933 149.076 3.02333 150 2.99967C150.813 2.99967 152.177 3.245 152.177 4.88867C152.177 5.81567 151.675 6.27433 150.786 7.00533C149.842 7.78233 148.666 8.74967 148.666 10.6663V11.333C148.666 11.517 148.816 11.6663 149 11.6663H150.333C150.517 11.6663 150.666 11.517 150.666 11.333V10.6663C150.666 9.73933 151.169 9.28067 152.057 8.54933C153.002 7.77233 154.177 6.805 154.177 4.88867C154.177 2.56267 152.499 1 149.975 1L149.976 1.00033Z" fill="#DC244C"/>
<path d="M389.667 15.3333C390.311 15.3333 390.833 14.811 390.833 14.1667C390.833 13.5223 390.311 13 389.667 13C389.022 13 388.5 13.5223 388.5 14.1667C388.5 14.811 389.022 15.3333 389.667 15.3333Z" fill="#DC244C"/>
<path d="M389.976 1.00033C388.759 1.00033 387.563 1.31067 386.499 1.90167L385.753 2.31633C385.592 2.40567 385.535 2.60867 385.624 2.76967L386.272 3.935C386.361 4.096 386.564 4.15367 386.725 4.06433L387.308 3.74033C388.137 3.27933 389.076 3.02333 390 2.99967C390.813 2.99967 392.177 3.245 392.177 4.88867C392.177 5.81567 391.675 6.27433 390.786 7.00533C389.842 7.78233 388.666 8.74967 388.666 10.6663V11.333C388.666 11.517 388.816 11.6663 389 11.6663H390.333C390.517 11.6663 390.666 11.517 390.666 11.333V10.6663C390.666 9.73933 391.169 9.28067 392.057 8.54933C393.002 7.77233 394.177 6.805 394.177 4.88867C394.177 2.56267 392.499 1 389.975 1L389.976 1.00033Z" fill="#DC244C"/>
<g clip-path="url(#clip4_1799_14256)">
<path d="M123.726 300L122 301V303L123.726 304L125.452 303V301L123.726 300Z" fill="#2F6FF0"/>
<path d="M126.726 324L125 325V327L126.726 328L128.452 327V325L126.726 324Z" fill="#038585"/>
<path d="M432.726 342L431 343V345L432.726 346L434.452 345V343L432.726 342Z" fill="#038585"/>
<path d="M424.726 302L423 303V305L424.726 306L426.452 305V303L424.726 302Z" fill="#038585"/>
<path d="M198.726 318L197 319V321L198.726 322L200.452 321V319L198.726 318Z" fill="#038585"/>
<path d="M260.726 291L259 292V294L260.726 295L262.452 294V292L260.726 291Z" fill="#038585"/>
<path d="M355.726 298L354 299V301L355.726 302L357.452 301V299L355.726 298Z" fill="#038585"/>
<path d="M312.726 336L311 337V339L312.726 340L314.452 339V337L312.726 336Z" fill="#038585"/>
<path d="M232.726 310L231 311V313L232.726 314L234.452 313V311L232.726 310Z" fill="#E0700D"/>
<path d="M278.726 312L277 313V315L278.726 316L280.452 315V313L278.726 312Z" fill="#2F6FF0"/>
<path d="M257.726 322L256 323V325L257.726 326L259.452 325V323L257.726 322Z" fill="#2F6FF0"/>
<path d="M94.726 350L93 351V353L94.726 354L96.4521 353V351L94.726 350Z" fill="#2F6FF0"/>
<path d="M297.726 293L296 294V296L297.726 297L299.452 296V294L297.726 293Z" fill="#2F6FF0"/>
<path d="M447.726 291L446 292V294L447.726 295L449.452 294V292L447.726 291Z" fill="#2F6FF0"/>
<path d="M371.726 326L370 327V329L371.726 330L373.452 329V327L371.726 326Z" fill="#2F6FF0"/>
<path d="M220.726 344L219 345V347L220.726 348L222.452 347V345L220.726 344Z" fill="#E0700D"/>
<path d="M171.726 298L170 299V301L171.726 302L173.452 301V299L171.726 298Z" fill="#E0700D"/>
<path d="M136.726 347L135 348V350L136.726 351L138.452 350V348L136.726 347Z" fill="#E0700D"/>
<path d="M382.726 359L381 360V362L382.726 363L384.452 362V360L382.726 359Z" fill="#E0700D"/>
<path d="M411.726 322L410 323V325L411.726 326L413.452 325V323L411.726 322Z" fill="#E0700D"/>
<path d="M282.726 342L281 343V345L282.726 346L284.452 345V343L282.726 342Z" fill="#E0700D"/>
<path d="M89.726 293L88 294V296L89.726 297L91.4521 296V294L89.726 293Z" fill="#E0700D"/>
<path d="M92.726 316L91 317V319L92.726 320L94.4521 319V317L92.726 316Z" fill="#8547FF"/>
<path d="M312.726 359L311 360V362L312.726 363L314.452 362V360L312.726 359Z" fill="#8547FF"/>
<path d="M454.726 322L453 323V325L454.726 326L456.452 325V323L454.726 322Z" fill="#8547FF"/>
<path d="M404.726 346L403 347V349L404.726 350L406.452 349V347L404.726 346Z" fill="#8547FF"/>
<path d="M390.726 297L389 298V300L390.726 301L392.452 300V298L390.726 297Z" fill="#8547FF"/>
<path d="M322.726 316L321 317V319L322.726 320L324.452 319V317L322.726 316Z" fill="#8547FF"/>
<path d="M329.726 298L328 299V301L329.726 302L331.452 301V299L329.726 298Z" fill="#E0700D"/>
<path d="M196.726 340L195 341V343L196.726 344L198.452 343V341L196.726 340Z" fill="#8547FF"/>
<path d="M246.726 349L245 350V352L246.726 353L248.452 352V350L246.726 349Z" fill="#8547FF"/>
<path d="M219.726 293L218 294V296L219.726 297L221.452 296V294L219.726 293Z" fill="#8547FF"/>
</g>
<rect x="70" y="280" width="400" height="80" rx="8" stroke="#717C99" stroke-miterlimit="2.61313" stroke-linejoin="round" stroke-dasharray="4 4"/>
<path d="M165 343C173.284 343 180 336.284 180 328C180 319.716 173.284 313 165 313C156.716 313 150 319.716 150 328C150 336.284 156.716 343 165 343Z" stroke="#717C99" stroke-linecap="round" stroke-linejoin="round"/>
<path d="M165 309.667V316.333" stroke="#717C99" stroke-linecap="round" stroke-linejoin="round"/>
<path d="M183.333 328H176.667" stroke="#717C99" stroke-linecap="round" stroke-linejoin="round"/>
<path d="M165 346.333V339.667" stroke="#717C99" stroke-linecap="round" stroke-linejoin="round"/>
<path d="M146.667 328H153.333" stroke="#717C99" stroke-linecap="round" stroke-linejoin="round"/>
<path d="M165.026 326L163.3 327V329L165.026 330L166.752 329V327L165.026 326Z" fill="#DC244C"/>
<path d="M348 349C356.284 349 363 342.284 363 334C363 325.716 356.284 319 348 319C339.716 319 333 325.716 333 334C333 342.284 339.716 349 348 349Z" stroke="#717C99" stroke-linecap="round" stroke-linejoin="round"/>
<path d="M348 315.667V322.333" stroke="#717C99" stroke-linecap="round" stroke-linejoin="round"/>
<path d="M366.333 334H359.667" stroke="#717C99" stroke-linecap="round" stroke-linejoin="round"/>
<path d="M348 352.333V345.667" stroke="#717C99" stroke-linecap="round" stroke-linejoin="round"/>
<path d="M329.667 334H336.333" stroke="#717C99" stroke-linecap="round" stroke-linejoin="round"/>
<path d="M348.026 332L346.3 333V335L348.026 336L349.752 335V333L348.026 332Z" fill="#DC244C"/>
<line x1="270.5" y1="164.5" x2="270.5" y2="186.5" stroke="#717C99" stroke-linecap="round" stroke-linejoin="round"/>
<path d="M270 127V101.829C270 97.4103 266.418 93.8286 262 93.8286H157C152.582 93.8286 149 90.2468 149 85.8286V84" stroke="#717C99" stroke-linecap="round" stroke-linejoin="round"/>
<path d="M270 127V101.829C270 97.4103 273.582 93.8286 278 93.8286H382C386.418 93.8286 390 90.2468 390 85.8286V84" stroke="#717C99" stroke-linecap="round" stroke-linejoin="round"/>
<path d="M348 316V271.543C348 267.125 344.418 263.543 340 263.543H278C273.582 263.543 270 259.961 270 255.543V248" stroke="#717C99" stroke-linecap="round" stroke-linejoin="round"/>
<path d="M165 311V271.62C165 267.202 168.582 263.62 173 263.62H262C266.418 263.62 270 260.039 270 255.62V248" stroke="#717C99" stroke-linecap="round" stroke-linejoin="round"/>
<rect x="178.555" y="118" width="182.488" height="52" rx="8" fill="url(#paint6_linear_1799_14256)"/>
<path d="M213.813 126.659L212.833 126.092L212.708 126.308L212.343 126.097L211.978 126.308L211.853 126.092L210.873 126.659L210.998 126.876L210.018 127.443L209.893 127.227L208.913 127.795L209.038 128.011L208.058 128.579L207.933 128.363L206.953 128.93L207.078 129.147L206.098 129.715L205.973 129.498L204.993 130.066L205.118 130.282L204.138 130.85L204.013 130.634L203.033 131.202L203.158 131.418L202.178 131.986L202.053 131.769L201.073 132.337L201.198 132.553L200.218 133.121L200.093 132.905L199.113 133.473L199.238 133.689L198.258 134.257L198.133 134.04L197.153 134.608L197.278 134.825L196.913 135.036V135.46H196.663V136.595H196.913V137.731H196.663V138.867H196.913V140.002H196.663V141.138H196.913V142.273H196.663V143.409H196.913V144.544H196.663V145.68H196.913V146.816H196.663V147.951H196.913V149.087H196.663V150.222H196.913V151.358H196.663V152.493H196.913V152.917L197.278 153.129L197.153 153.345L198.133 153.913L198.258 153.696L199.238 154.264L199.113 154.481L200.093 155.048L200.218 154.832L201.198 155.4L201.073 155.616L202.053 156.184L202.178 155.968L203.158 156.535L203.033 156.752L204.013 157.319L204.138 157.103L205.118 157.671L204.993 157.887L205.973 158.455L206.098 158.239L207.078 158.806L206.953 159.023L207.933 159.591L208.058 159.374L209.038 159.942L208.913 160.158L209.893 160.726L210.018 160.51L210.998 161.078L210.873 161.294L211.853 161.862L211.978 161.645L212.343 161.857L212.708 161.645L212.833 161.862L213.813 161.294L213.688 161.078L214.668 160.51L214.793 160.726L215.773 160.158L215.648 159.942L216.628 159.374L216.753 159.591L217.733 159.023L217.608 158.806L218.588 158.239L218.713 158.455L219.693 157.887L219.568 157.671L220.548 157.103L220.673 157.319L221.653 156.752L221.528 156.535L222.508 155.968L222.633 156.184L223.613 155.616L223.488 155.4L224.468 154.832L224.593 155.048L225.573 154.481L225.448 154.264L226.428 153.696L226.553 153.913L227.533 153.345L227.408 153.129L227.773 152.917V152.493H228.023V151.358H227.773V150.222H228.023V149.087H227.773V147.951H228.023V146.816H227.773V145.68H228.023V144.544H227.773V143.409H228.023V142.273H227.773V141.138H228.023V140.002H227.773V138.867H228.023V137.731H227.773V136.595H228.023V135.46H227.773V135.036L227.408 134.825L227.533 134.608L226.553 134.04L226.428 134.257L225.448 133.689L225.573 133.473L224.593 132.905L224.468 133.121L223.488 132.553L223.613 132.337L222.633 131.769L222.508 131.986L221.528 131.418L221.653 131.202L220.673 130.634L220.548 130.85L219.568 130.282L219.693 130.066L218.713 129.498L218.588 129.715L217.608 129.147L217.733 128.93L216.753 128.363L216.628 128.579L215.648 128.011L215.773 127.795L214.793 127.227L214.668 127.443L213.688 126.876L213.813 126.659Z" stroke="#8F98B3" stroke-width="0.5" stroke-dasharray="1.18 1.18"/>
<line x1="212.483" y1="126.422" x2="212.483" y2="161.549" stroke="#8F98B3" stroke-width="0.5" stroke-dasharray="1.18 1.18"/>
<line x1="197.215" y1="135.29" x2="228.103" y2="152.853" stroke="#8F98B3" stroke-width="0.5" stroke-dasharray="1.18 1.18"/>
<line x1="228.103" y1="135.119" x2="197.215" y2="152.682" stroke="#8F98B3" stroke-width="0.5" stroke-dasharray="1.18 1.18"/>
<path d="M212.299 124L210.179 125.211V127.634L212.299 128.845L214.419 127.634V125.211L212.299 124Z" fill="#2F6FF0"/>
<path d="M227.923 132.413L225.804 133.624V136.047L227.923 137.258L230.043 136.047V133.624L227.923 132.413Z" fill="#8547FF"/>
<path d="M196.674 132.413L194.555 133.624V136.047L196.674 137.258L198.794 136.047V133.624L196.674 132.413Z" fill="#038585"/>
<path d="M196.674 150.141L194.555 151.352V153.775L196.674 154.986L198.794 153.775V151.352L196.674 150.141Z" fill="#008A53"/>
<path d="M212.299 159.155L210.179 160.367V162.789L212.299 164L214.419 162.789V160.367L212.299 159.155Z" fill="#E0700D"/>
<path d="M227.923 150.742L225.804 151.953V154.375L227.923 155.587L230.043 154.375V151.953L227.923 150.742Z" fill="#038585"/>
<path d="M212.421 141.563L210.301 142.775V145.197L212.421 146.409L214.541 145.197V142.775L212.421 141.563Z" fill="#DC244C"/>
<path d="M248.591 149.5H247.219V139.378H248.591L253.771 147.204V139.378H255.143V149.5H253.771L248.591 141.674V149.5ZM260.23 149.668C258.214 149.668 256.828 148.212 256.828 146.084C256.828 143.942 258.186 142.458 260.174 142.458C262.12 142.458 263.394 143.802 263.394 145.832V146.322L258.102 146.336C258.2 147.778 258.956 148.576 260.258 148.576C261.28 148.576 261.952 148.156 262.176 147.372H263.408C263.072 148.842 261.924 149.668 260.23 149.668ZM260.174 143.564C259.026 143.564 258.298 144.25 258.13 145.454H262.078C262.078 144.32 261.336 143.564 260.174 143.564ZM269.596 142.654H270.898V149.5H269.722L269.582 148.464C269.19 149.178 268.28 149.668 267.272 149.668C265.676 149.668 264.78 148.59 264.78 146.91V142.654H266.096V146.476C266.096 147.946 266.726 148.506 267.734 148.506C268.938 148.506 269.596 147.736 269.596 146.266V142.654ZM276.727 142.598V143.802H276.139C274.893 143.802 274.123 144.558 274.123 145.874V149.5H272.807V142.668H274.039L274.123 143.704C274.403 142.99 275.089 142.514 276.027 142.514C276.265 142.514 276.461 142.542 276.727 142.598ZM279.69 149.668C278.22 149.668 277.352 148.842 277.352 147.596C277.352 146.336 278.29 145.552 279.9 145.426L282.056 145.258V145.062C282.056 143.914 281.37 143.508 280.446 143.508C279.34 143.508 278.71 143.998 278.71 144.824H277.562C277.562 143.396 278.738 142.458 280.502 142.458C282.196 142.458 283.344 143.354 283.344 145.202V149.5H282.224L282.084 148.394C281.734 149.178 280.796 149.668 279.69 149.668ZM280.068 148.646C281.314 148.646 282.07 147.834 282.07 146.546V146.182L280.32 146.322C279.158 146.434 278.682 146.882 278.682 147.554C278.682 148.282 279.214 148.646 280.068 148.646ZM286.511 149.5H285.195V139.196H286.511V149.5ZM298.674 149.5H292.5V139.378H298.674V140.638H293.872V143.802H298.198V145.02H293.872V148.226H298.674V149.5ZM301.754 149.5H300.438V142.654H301.628L301.768 143.704C302.202 142.92 303.07 142.458 304.036 142.458C305.842 142.458 306.668 143.564 306.668 145.314V149.5H305.352V145.608C305.352 144.222 304.708 143.662 303.7 143.662C302.468 143.662 301.754 144.544 301.754 145.874V149.5ZM308.043 146.084C308.043 143.942 309.401 142.458 311.403 142.458C313.125 142.458 314.329 143.438 314.567 144.964H313.251C313.027 144.096 312.327 143.634 311.445 143.634C310.199 143.634 309.345 144.586 309.345 146.07C309.345 147.54 310.143 148.492 311.389 148.492C312.327 148.492 313.027 148.002 313.265 147.19H314.581C314.315 148.674 313.041 149.668 311.389 149.668C309.373 149.668 308.043 148.24 308.043 146.084ZM315.522 146.07C315.522 143.956 317.034 142.472 319.092 142.472C321.136 142.472 322.648 143.956 322.648 146.07C322.648 148.184 321.136 149.668 319.092 149.668C317.034 149.668 315.522 148.184 315.522 146.07ZM316.852 146.07C316.852 147.498 317.762 148.492 319.092 148.492C320.408 148.492 321.332 147.498 321.332 146.07C321.332 144.642 320.408 143.648 319.092 143.648C317.762 143.648 316.852 144.642 316.852 146.07ZM326.848 149.668C324.86 149.668 323.656 148.184 323.656 146.098C323.656 143.998 324.874 142.458 326.904 142.458C327.954 142.458 328.836 142.92 329.298 143.76V139.196H330.6V149.5H329.424L329.312 148.254C328.864 149.192 327.94 149.668 326.848 149.668ZM327.114 148.478C328.458 148.478 329.284 147.484 329.284 146.056C329.284 144.656 328.458 143.648 327.114 143.648C325.77 143.648 324.986 144.656 324.986 146.056C324.986 147.47 325.77 148.478 327.114 148.478ZM335.453 149.668C333.437 149.668 332.051 148.212 332.051 146.084C332.051 143.942 333.409 142.458 335.397 142.458C337.343 142.458 338.617 143.802 338.617 145.832V146.322L333.325 146.336C333.423 147.778 334.179 148.576 335.481 148.576C336.503 148.576 337.175 148.156 337.399 147.372H338.631C338.295 148.842 337.147 149.668 335.453 149.668ZM335.397 143.564C334.249 143.564 333.521 144.25 333.353 145.454H337.301C337.301 144.32 336.559 143.564 335.397 143.564ZM344.007 142.598V143.802H343.419C342.173 143.802 341.403 144.558 341.403 145.874V149.5H340.087V142.668H341.319L341.403 143.704C341.683 142.99 342.369 142.514 343.307 142.514C343.545 142.514 343.741 142.542 344.007 142.598Z" fill="#E1E5F0"/>
<g opacity="0.5" filter="url(#filter0_f_1799_14256)">
<path fill-rule="evenodd" clip-rule="evenodd" d="M300.72 200.261C300.719 200.261 300.718 200.261 300.717 200.26L271.217 183.24C270.447 182.796 269.499 182.796 268.729 183.24L239.229 200.261C239.229 200.261 239.229 200.261 239.229 200.261C239.229 200.261 239.229 200.261 239.229 200.261V200.261V234.301C239.229 235.19 239.703 236.013 240.474 236.457L269.971 253.477C269.973 253.478 269.975 253.478 269.976 253.478C269.978 253.478 269.98 253.478 269.981 253.477L299.479 236.457C300.249 236.013 300.724 235.19 300.724 234.301V200.265C300.724 200.263 300.722 200.261 300.72 200.261Z" fill="#8547FF"/>
</g>
<path fill-rule="evenodd" clip-rule="evenodd" d="M296.002 202.99L270.002 218L270.004 248.02L296.002 233.01V202.99Z" fill="url(#paint7_linear_1799_14256)"/>
<path fill-rule="evenodd" clip-rule="evenodd" d="M244.002 202.99L270.002 218L270 248.02L244.002 233.01V202.99Z" fill="url(#paint8_linear_1799_14256)"/>
<path fill-rule="evenodd" clip-rule="evenodd" d="M295.998 202.99L270.003 218L244.002 202.99L270 187.98L295.998 202.99Z" fill="url(#paint9_linear_1799_14256)"/>
<g clip-path="url(#clip5_1799_14256)">
<path fill-rule="evenodd" clip-rule="evenodd" d="M282.012 211.178L282.013 211.177L276.104 207.766L270.196 204.354L264.287 207.766L258.379 211.177L258.379 211.178V224.823L264.287 228.234L270.196 231.645V231.646L273.977 229.465L273.977 229.464L273.977 229.464V224.823L270.196 227.006L266.296 224.755L262.398 222.504V213.498L266.296 211.247L270.196 208.996L274.095 211.247L277.995 213.498V231.646L277.995 231.645L277.995 231.647L282.014 229.327V211.178L282.012 211.178ZM270.196 222.366L273.977 220.183V215.819L270.196 213.636L266.416 215.819V220.183L270.196 222.366Z" fill="white"/>
</g>
<defs>
<filter id="filter0_f_1799_14256" x="191.229" y="134.907" width="157.496" height="166.572" filterUnits="userSpaceOnUse" color-interpolation-filters="sRGB">
<feFlood flood-opacity="0" result="BackgroundImageFix"/>
<feBlend mode="normal" in="SourceGraphic" in2="BackgroundImageFix" result="shape"/>
<feGaussianBlur stdDeviation="24" result="effect1_foregroundBlur_1799_14256"/>
</filter>
<linearGradient id="paint0_linear_1799_14256" x1="70" y1="20" x2="70" y2="84" gradientUnits="userSpaceOnUse">
<stop stop-color="#161E33"/>
<stop offset="1" stop-color="#0E1424"/>
</linearGradient>
<linearGradient id="paint1_linear_1799_14256" x1="150" y1="20" x2="150" y2="84" gradientUnits="userSpaceOnUse">
<stop stop-color="#161E33"/>
<stop offset="1" stop-color="#0E1424"/>
</linearGradient>
<linearGradient id="paint2_linear_1799_14256" x1="230" y1="20" x2="230" y2="84" gradientUnits="userSpaceOnUse">
<stop stop-color="#161E33"/>
<stop offset="1" stop-color="#0E1424"/>
</linearGradient>
<linearGradient id="paint3_linear_1799_14256" x1="310" y1="20" x2="310" y2="84" gradientUnits="userSpaceOnUse">
<stop stop-color="#161E33"/>
<stop offset="1" stop-color="#0E1424"/>
</linearGradient>
<linearGradient id="paint4_linear_1799_14256" x1="390" y1="20" x2="390" y2="84" gradientUnits="userSpaceOnUse">
<stop stop-color="#161E33"/>
<stop offset="1" stop-color="#0E1424"/>
</linearGradient>
<linearGradient id="paint5_linear_1799_14256" x1="470" y1="20" x2="470" y2="84" gradientUnits="userSpaceOnUse">
<stop stop-color="#161E33"/>
<stop offset="1" stop-color="#0E1424"/>
</linearGradient>
<linearGradient id="paint6_linear_1799_14256" x1="269.799" y1="118" x2="269.799" y2="170" gradientUnits="userSpaceOnUse">
<stop stop-color="#161E33"/>
<stop offset="1" stop-color="#0E1424"/>
</linearGradient>
<linearGradient id="paint7_linear_1799_14256" x1="283.002" y1="202.99" x2="283.002" y2="248.02" gradientUnits="userSpaceOnUse">
<stop stop-color="#161E33"/>
<stop offset="1" stop-color="#0E1424"/>
</linearGradient>
<linearGradient id="paint8_linear_1799_14256" x1="257.002" y1="202.99" x2="257.002" y2="248.02" gradientUnits="userSpaceOnUse">
<stop stop-color="#161E33"/>
<stop offset="1" stop-color="#0E1424"/>
</linearGradient>
<linearGradient id="paint9_linear_1799_14256" x1="270" y1="187.98" x2="270" y2="218" gradientUnits="userSpaceOnUse">
<stop stop-color="#2F3F6D"/>
<stop offset="0.355174" stop-color="#233053"/>
<stop offset="1" stop-color="#0E1424"/>
</linearGradient>
<clipPath id="clip0_1799_14256">
<rect width="40" height="40" fill="white" transform="translate(50 32)"/>
</clipPath>
<clipPath id="clip1_1799_14256">
<rect width="40" height="40" fill="white" transform="translate(210 32)"/>
</clipPath>
<clipPath id="clip2_1799_14256">
<rect width="40" height="40" fill="white" transform="translate(290 32)"/>
</clipPath>
<clipPath id="clip3_1799_14256">
<rect width="40" height="40" fill="white" transform="translate(450 32)"/>
</clipPath>
<clipPath id="clip4_1799_14256">
<rect x="70" y="280" width="400" height="80" rx="8" fill="white"/>
</clipPath>
<clipPath id="clip5_1799_14256">
<rect width="23.5384" height="27.2909" fill="white" transform="translate(258.379 204.354)"/>
</clipPath>
</defs>
</svg>
