<svg width="53" height="53" viewBox="0 0 53 53" fill="none" xmlns="http://www.w3.org/2000/svg">
<path fill-rule="evenodd" clip-rule="evenodd" d="M20.979 29.3568C21.8003 29.3568 23.4429 29.3157 25.7426 28.3712C28.4119 27.2624 33.6683 25.2913 37.4874 23.238C40.1567 21.8007 41.3066 19.9116 41.3066 17.3656C41.3066 13.875 38.473 11.0004 34.9414 11.0004H20.1577C15.1066 11.0004 11 15.1069 11 20.158C11 25.2091 14.8602 29.3568 20.979 29.3568Z" fill="#39594D"/>
<path fill-rule="evenodd" clip-rule="evenodd" d="M23.4844 35.6398C23.4844 33.1759 24.9627 30.9172 27.2624 29.9727L31.9029 28.0426C36.6254 26.1125 41.7997 29.5621 41.7997 34.6542C41.7997 38.5965 38.5966 41.7997 34.6543 41.7997H29.6032C26.2358 41.7997 23.4844 39.0483 23.4844 35.6398Z" fill="#D18EE2"/>
<path d="M16.2975 30.5476C13.3818 30.5476 11 32.9294 11 35.8451V36.5432C11 39.4178 13.3818 41.7996 16.2975 41.7996C19.2132 41.7996 21.595 39.4178 21.595 36.5021V35.804C21.5539 32.9294 19.2132 30.5476 16.2975 30.5476Z" fill="#FF7759"/>
</svg>
