<svg width="53" height="53" viewBox="0 0 53 53" fill="none" xmlns="http://www.w3.org/2000/svg">
<g clip-path="url(#clip0_16563_18430)">
<path fill-rule="evenodd" clip-rule="evenodd" d="M13.4174 13.1998H39.3825C46.7811 13.1998 52.8 19.1214 52.8 26.3998C52.8 33.6783 46.7811 39.5998 39.3825 39.5998H13.4174C6.0188 39.5998 0 33.6783 0 26.3998C0 19.1214 6.0188 13.1998 13.4174 13.1998ZM25.3386 33.6617C25.6646 33.9978 26.1471 33.9812 26.5746 33.8941L26.5788 33.8962C26.7773 33.738 26.4952 33.5375 26.2259 33.3462C26.0644 33.2315 25.9074 33.1198 25.8613 33.0226C26.0105 32.8443 25.5695 32.4397 25.2262 32.1245C25.0821 31.9923 24.9552 31.8759 24.8963 31.7985C24.6521 31.5378 24.5539 31.2089 24.4551 30.878C24.3896 30.6585 24.3238 30.4381 24.2149 30.2361C23.544 28.7091 22.7758 27.1945 21.6986 25.9018C21.0063 25.0427 20.2162 24.2734 19.4259 23.5037C18.9163 23.0076 18.4067 22.5113 17.923 21.9909C17.4254 21.4872 17.1259 20.8667 16.8259 20.2452C16.5748 19.7248 16.3233 19.2038 15.9549 18.75C14.8396 17.1316 11.3181 16.6897 10.8017 18.9761C10.8038 19.0467 10.7805 19.0923 10.717 19.138C10.4313 19.3434 10.1774 19.5758 9.96362 19.8579C9.44089 20.5737 9.36046 21.7875 10.0123 22.4307C10.0132 22.4169 10.0142 22.4032 10.0151 22.3894C10.0369 22.0647 10.0572 21.7611 10.3192 21.5282C10.8229 21.9535 11.5869 22.105 12.1709 21.7875C12.8752 22.7779 13.0995 23.9752 13.3247 25.1765C13.5121 26.1773 13.7002 27.1809 14.1666 28.0701C14.1763 28.0858 14.1858 28.1015 14.1955 28.1173C14.4697 28.5648 14.7483 29.0195 15.0999 29.4104C15.2277 29.6045 15.4899 29.8141 15.7517 30.0233C16.0971 30.2992 16.4418 30.5746 16.4755 30.813C16.4771 30.9168 16.4766 31.0219 16.4761 31.1276C16.4734 31.7537 16.4706 32.4021 16.8798 32.9169C17.1062 33.3671 16.5517 33.8194 16.1052 33.7634C15.8603 33.7966 15.5929 33.7334 15.3273 33.6706C14.9638 33.5847 14.604 33.4995 14.3106 33.6638C14.2282 33.7512 14.11 33.7542 13.9912 33.7572C13.8503 33.761 13.7087 33.7646 13.6248 33.9087C13.6076 33.9515 13.5674 33.9998 13.5256 34.0501C13.4337 34.1604 13.3342 34.28 13.4534 34.3713C13.4641 34.3634 13.4748 34.3554 13.4853 34.3474C13.666 34.2123 13.8381 34.0834 14.082 34.1638C14.0495 34.3404 14.1659 34.3878 14.2822 34.4351C14.3024 34.4433 14.3227 34.4516 14.3423 34.4605C14.3411 34.5015 14.3328 34.543 14.3246 34.584C14.305 34.682 14.2859 34.7782 14.3635 34.863C14.4003 34.8263 14.4329 34.785 14.4655 34.7437C14.5453 34.6425 14.6256 34.5409 14.7698 34.5041C15.087 34.9194 15.4066 34.7469 15.8076 34.5305C16.26 34.2863 16.8158 33.9862 17.5887 34.4107C17.2925 34.3962 17.0278 34.4315 16.8289 34.6721C16.7803 34.7261 16.7379 34.7883 16.8247 34.8589C17.282 34.5684 17.4722 34.6728 17.6514 34.7711C17.7806 34.842 17.904 34.9097 18.1178 34.8236C18.1683 34.7978 18.2188 34.7711 18.2694 34.7442C18.6128 34.5627 18.961 34.3785 19.3685 34.4419C19.064 34.5279 18.9557 34.7171 18.8376 34.9237C18.779 35.0258 18.7182 35.1321 18.63 35.2323C18.5834 35.278 18.5622 35.332 18.6151 35.4087C19.2526 35.3567 19.4936 35.1982 19.819 34.9842C19.9742 34.882 20.1488 34.7671 20.3949 34.6452C20.667 34.481 20.939 34.586 21.2027 34.6878C21.4887 34.7982 21.7648 34.9047 22.0203 34.6597C22.101 34.5851 22.2021 34.5843 22.303 34.5833C22.3397 34.583 22.3763 34.5827 22.4118 34.5787C22.3323 34.1613 21.8838 34.1662 21.4285 34.1712C20.902 34.1769 20.3664 34.1828 20.3822 33.5352C20.8715 33.2076 20.876 32.639 20.8803 32.1016C20.8814 31.9719 20.8823 31.844 20.8902 31.7218C21.25 31.9185 21.6307 32.0722 22.0089 32.225C22.3648 32.3687 22.7186 32.5116 23.051 32.6886C23.398 33.2364 23.9397 33.9626 24.6615 33.9148C24.6805 33.8588 24.6974 33.8111 24.7186 33.7551C24.7602 33.7622 24.8041 33.7731 24.8488 33.7842C25.0382 33.8312 25.2411 33.8816 25.3386 33.6617ZM39.4832 27.437C39.9011 27.8457 40.4678 28.0753 41.0587 28.0753C41.6496 28.0753 42.2164 27.8457 42.6343 27.437C43.0521 27.0284 43.2869 26.474 43.2869 25.8961C43.2869 25.3181 43.0521 24.7638 42.6343 24.3552C42.2164 23.9465 41.6496 23.7169 41.0587 23.7169C40.782 23.7169 40.5106 23.7672 40.2574 23.8628L38.9803 22.0351L38.0902 22.6329L39.3739 24.47C39.0246 24.8647 38.8306 25.3706 38.8306 25.8961C38.8306 26.474 39.0653 27.0284 39.4832 27.437ZM35.4849 21.5183C35.7975 21.6698 36.1422 21.7473 36.491 21.7447C36.9671 21.7411 37.4294 21.5885 37.8103 21.3092C38.1912 21.0299 38.4707 20.6387 38.6077 20.1928C38.7447 19.7469 38.7321 19.2698 38.5717 18.8314C38.4114 18.393 38.1117 18.0164 37.7165 17.7567C37.4269 17.5664 37.0957 17.4453 36.7494 17.403C36.4032 17.3608 36.0517 17.3987 35.7232 17.5137C35.3947 17.6286 35.0984 17.8174 34.8581 18.0649C34.6178 18.3123 34.4403 18.6115 34.3399 18.9383C34.2395 19.2651 34.2189 19.6104 34.28 19.9464C34.3409 20.2823 34.4817 20.5996 34.691 20.8727C34.9002 21.1457 35.1721 21.3669 35.4849 21.5183ZM35.4849 34.1727C35.7975 34.3241 36.1422 34.4016 36.491 34.399C36.9671 34.3954 37.4294 34.2427 37.8103 33.9635C38.1912 33.6843 38.4707 33.293 38.6077 32.8471C38.7447 32.4012 38.7321 31.9241 38.5717 31.4858C38.4114 31.0473 38.1117 30.6707 37.7165 30.411C37.4269 30.2207 37.0957 30.0996 36.7494 30.0573C36.4032 30.0152 36.0517 30.0531 35.7232 30.168C35.3947 30.283 35.0984 30.4718 34.8581 30.7192C34.6178 30.9667 34.4403 31.2659 34.3399 31.5926C34.2395 31.9194 34.2189 32.2647 34.28 32.6007C34.3409 32.9367 34.4817 33.2539 34.691 33.527C34.9002 33.8 35.1721 34.0211 35.4849 34.1727ZM37.5332 26.4379V25.3544H34.123C34.0372 25.026 33.8736 24.7216 33.6453 24.4661L34.9284 22.6025L33.9953 21.9958L32.7122 23.8593C32.4771 23.776 32.2292 23.7321 31.9791 23.7293C31.3899 23.7293 30.8248 23.9576 30.4081 24.3639C29.9914 24.7703 29.7574 25.3215 29.7574 25.8962C29.7574 26.4708 29.9914 27.022 30.4081 27.4284C30.8248 27.8347 31.3899 28.0631 31.9791 28.0631C32.2292 28.0603 32.4771 28.0163 32.7122 27.933L33.9953 29.7965L34.9172 29.1898L33.6453 27.3263C33.8736 27.0706 34.0372 26.7664 34.123 26.4379H37.5332Z" fill="#F0F3FA"/>
</g>
<defs>
<clipPath id="clip0_16563_18430">
<rect width="52.8" height="52.8" fill="white"/>
</clipPath>
</defs>
</svg>
