<svg width="53" height="53" viewBox="0 0 53 53" fill="none" xmlns="http://www.w3.org/2000/svg">
<path d="M43.5985 22.8047C44.0473 21.4713 44.2026 20.0588 44.0538 18.6615C43.9051 17.2642 43.4557 15.9142 42.7358 14.7019C41.6686 12.8695 40.039 11.4187 38.0819 10.5587C36.1249 9.69873 33.9416 9.474 31.8467 9.91692C30.6566 8.61105 29.139 7.63707 27.4465 7.09281C25.754 6.54854 23.9461 6.45315 22.2044 6.81621C20.4627 7.17928 18.8485 7.98801 17.5239 9.1612C16.1993 10.3344 15.211 11.8307 14.6582 13.4999C13.2626 13.7822 11.9442 14.3551 10.791 15.1802C9.6378 16.0054 8.67645 17.0639 7.97118 18.2849C6.89232 20.1143 6.43123 22.2347 6.65456 24.3396C6.87788 26.4445 7.77405 28.4248 9.21351 29.9942C8.76299 31.327 8.60618 32.7393 8.75359 34.1366C8.901 35.534 9.34923 36.8842 10.0683 38.0969C11.1369 39.93 12.7679 41.3811 14.7263 42.2411C16.6848 43.1011 18.8694 43.3255 20.9654 42.882C21.911 43.9323 23.0728 44.7716 24.3733 45.3437C25.6738 45.9159 27.0831 46.2077 28.5071 46.1998C30.6543 46.2018 32.7465 45.5307 34.4819 44.2833C36.2172 43.036 37.5058 41.277 38.1618 39.2603C39.5572 38.9775 40.8755 38.4044 42.0286 37.5793C43.1817 36.7541 44.1432 35.6959 44.8488 34.4751C45.9149 32.6484 46.3681 30.536 46.1435 28.4399C45.9189 26.3438 45.0281 24.3712 43.5985 22.8047ZM28.5071 43.608C26.7486 43.6108 25.0452 43.0028 23.6957 41.8907L23.933 41.758L31.9258 37.207C32.1248 37.0919 32.2899 36.9278 32.4051 36.7307C32.5203 36.5336 32.5815 36.3104 32.5827 36.0829V24.967L35.9616 26.8952C35.9783 26.9036 35.9928 26.9157 36.0038 26.9306C36.0149 26.9455 36.0222 26.9628 36.0252 26.981V36.1923C36.0209 38.1578 35.2275 40.0416 33.8185 41.4314C32.4095 42.8213 30.4997 43.6039 28.5071 43.608ZM12.3474 36.8011C11.4655 35.299 11.1488 33.5382 11.4531 31.8285L11.6907 31.9691L19.6913 36.5201C19.8893 36.6347 20.1147 36.6951 20.3442 36.6951C20.5737 36.6951 20.7991 36.6347 20.9971 36.5201L30.7705 30.9621V34.8106C30.7696 34.8305 30.7641 34.85 30.7545 34.8676C30.7449 34.8851 30.7313 34.9003 30.7149 34.912L22.6193 39.5177C20.8915 40.4994 18.8395 40.7648 16.9136 40.2555C14.9877 39.7461 13.3455 38.5038 12.3474 36.8011ZM10.2424 19.6276C11.1304 18.1159 12.5321 16.9628 14.1992 16.3725V25.7399C14.1962 25.9662 14.2549 26.1891 14.369 26.3855C14.4831 26.5818 14.6486 26.7444 14.8481 26.8561L24.574 32.3907L21.1949 34.3187C21.1767 34.3283 21.1563 34.3333 21.1356 34.3333C21.1148 34.3333 21.0945 34.3283 21.0762 34.3187L12.9964 29.721C11.2719 28.735 10.0138 27.1151 9.49765 25.216C8.98148 23.3169 9.24928 21.2934 10.2424 19.5887V19.6276ZM38.0035 25.9897L28.246 20.4005L31.6172 18.4799C31.6355 18.4703 31.6559 18.4653 31.6766 18.4653C31.6973 18.4653 31.7177 18.4703 31.736 18.4799L39.8158 23.0855C41.0512 23.7887 42.0583 24.824 42.7195 26.0706C43.3808 27.3171 43.6689 28.7235 43.5503 30.1256C43.4317 31.5276 42.9111 32.8674 42.0495 33.9886C41.1878 35.1098 40.0206 35.9661 38.6842 36.4574V27.0901C38.6772 26.8642 38.6107 26.6439 38.4914 26.451C38.372 26.258 38.204 26.0992 38.0035 25.9897ZM41.3669 21.0016L41.1294 20.861L33.1446 16.2711C32.9454 16.1558 32.7186 16.095 32.4877 16.095C32.2568 16.095 32.03 16.1558 31.8308 16.2711L22.0656 21.8289V17.9806C22.0635 17.9611 22.0668 17.9413 22.0752 17.9234C22.0836 17.9056 22.0966 17.8903 22.1131 17.8791L30.1929 13.2813C31.4312 12.5776 32.8471 12.2362 34.2749 12.2971C35.7027 12.3581 37.0834 12.8187 38.2555 13.6253C39.4276 14.4318 40.3427 15.5509 40.8937 16.8516C41.4447 18.1523 41.6089 19.5809 41.367 20.9702L41.3669 21.0016ZM20.2214 27.8238L16.8425 25.9036C16.8256 25.8935 16.8111 25.8799 16.8001 25.8638C16.7892 25.8476 16.7819 25.8293 16.7789 25.81V16.6223C16.7808 15.2129 17.1894 13.833 17.957 12.6442C18.7245 11.4554 19.8193 10.5066 21.1134 9.9089C22.4074 9.31119 23.8472 9.08922 25.2645 9.26893C26.6817 9.44865 28.0178 10.0226 29.1165 10.9237L28.879 11.0566L20.8863 15.6073C20.6874 15.7223 20.5222 15.8865 20.4071 16.0836C20.2919 16.2807 20.2307 16.5039 20.2294 16.7314L20.2214 27.8238ZM22.0574 23.9209L26.4098 21.4463L30.7705 23.9209V28.8699L26.4257 31.3444L22.0654 28.8699L22.0574 23.9209Z" fill="#14A27F"/>
</svg>
