<svg width="53" height="53" viewBox="0 0 53 53" fill="none" xmlns="http://www.w3.org/2000/svg">
<path d="M32.9285 14.1201H19.0737C16.3385 14.1201 14.1211 16.3375 14.1211 19.0727V32.9275C14.1211 35.6628 16.3385 37.8801 19.0737 37.8801H32.9285C35.6637 37.8801 37.8811 35.6628 37.8811 32.9275V19.0727C37.8811 16.3375 35.6637 14.1201 32.9285 14.1201Z" fill="black"/>
<path d="M29.6797 31.7191C29.6258 31.659 29.5717 31.5989 29.5178 31.539C29.1378 31.1236 28.9493 30.6439 29.099 30.0079C27.6598 30.4746 26.2777 30.5802 24.8504 30.2538C24.813 30.6807 24.798 31.0709 24.7401 31.4547C24.6693 31.9244 24.5611 32.3883 24.4724 32.8553C24.4415 33.0179 24.4075 33.1817 24.3973 33.3463C24.3671 33.8363 24.378 34.3312 24.312 34.8159C24.278 35.0652 24.1149 35.297 24.0191 35.5162H22.9506L22.9563 35.5028C23.0134 35.3476 23.0703 35.1924 23.1274 35.0371L23.1245 35.0408C23.1823 34.983 23.2399 34.9249 23.2976 34.867L23.2939 34.8707C23.3231 34.8415 23.3522 34.8123 23.3814 34.783L23.5387 34.7649C23.5539 34.5051 23.5516 34.6006 23.5539 34.5051C23.5653 34.0415 23.5586 33.5766 23.5337 33.1135C23.5245 32.9435 23.4476 32.7772 23.4017 32.6091C23.3698 32.61 23.3379 32.6108 23.306 32.6116C23.1356 33.2262 22.9653 33.841 22.7949 34.4556L22.8025 34.4523C22.6805 34.6734 22.5089 35.1023 22.387 35.3234C22.2353 35.3371 21.8077 35.3108 21.4536 35.3128C21.4825 35.0208 21.5908 34.8677 21.7749 34.7024C22.1708 34.3471 22.2774 33.8259 22.2759 33.3268C22.2738 32.6296 22.1807 31.9329 22.1265 31.2359C22.2034 31.0958 22.2479 30.9171 22.3622 30.8219C23.1355 30.1777 23.7664 29.408 24.3553 28.6016C24.9253 27.8208 25.4991 27.0416 26.0363 26.2382C26.628 25.3533 27.241 24.47 27.3767 23.3685C28.3788 23.4741 29.3355 23.7181 30.2337 24.1992C30.5081 24.3462 30.8526 24.3627 31.1648 24.439C31.2806 24.5284 31.4522 24.5939 31.5027 24.7113C31.757 25.3029 32.0059 25.8996 32.2071 26.5107C32.4544 27.2625 32.5206 28.0334 32.3927 28.8286C32.2395 29.7806 31.8203 30.6 31.2803 31.3773C31.1905 31.5067 31.1614 31.6781 31.1042 31.8302L31.1062 31.8277C31.0125 31.894 30.9133 31.954 30.826 32.0277C30.5898 32.2269 30.5327 32.6136 30.1568 32.6677C30.1517 32.6472 30.1492 32.6266 30.1497 32.6054C30.1299 32.568 30.1102 32.5308 30.0904 32.4934C29.9534 32.2353 29.8164 31.9773 29.6794 31.7192L29.6797 31.7191ZM19.9132 20.6457C19.7694 20.6396 19.6205 20.7514 19.4739 20.8088C19.4739 20.8088 19.3397 21.92 19.3397 22.4792C19.3397 23.0385 19.5309 23.5126 19.5634 24.0386C19.5865 24.4133 19.6048 24.8139 19.75 25.1487C19.9243 25.5503 20.0001 25.9385 19.9784 26.3656C19.9181 27.5522 20.5335 28.355 21.4766 28.9665C21.9008 28.5056 22.3612 28.0728 22.7414 27.578C23.5024 26.5877 24.1522 25.5268 24.51 24.3142C24.5845 24.0616 24.6336 23.8017 24.7063 23.495C24.7459 23.4545 24.8272 23.3713 24.9084 23.2882L22.9568 23.2827C22.928 23.2567 22.9079 23.2384 22.8792 23.2124L22.6323 20.8039C21.726 20.7483 20.82 20.6838 19.9129 20.6455L19.9132 20.6457ZM21.9559 17.7751C21.6292 17.1156 21.1495 16.6061 20.4226 16.3157C20.4111 16.5146 20.4017 16.674 20.3916 16.8503C20.1487 16.6752 19.934 16.5205 19.6566 16.3206C19.6921 16.6778 19.7265 16.9271 19.7397 17.1777C19.7657 17.6729 19.5529 17.9217 19.0541 17.991C18.9569 18.0044 18.856 17.991 18.7582 18.0024C18.4656 18.0362 18.3093 18.2008 18.2699 18.4923C18.2185 18.8729 18.4131 19.1222 18.7245 19.2737C19.0486 19.4314 19.3941 19.5453 19.7894 19.7017C19.7316 19.8969 19.6727 20.0898 19.6174 20.2836C19.5677 20.4581 19.5219 20.6337 19.4743 20.8089C19.6209 20.7516 19.7696 20.6398 19.9136 20.6458C20.8207 20.684 21.7267 20.7484 22.6329 20.8042C22.5818 19.7555 22.4279 18.7276 21.9562 17.7754L21.9559 17.7751ZM31.555 32.3879C31.582 32.4161 31.6088 32.4442 31.6358 32.4723C31.6639 32.5007 31.6921 32.529 31.7203 32.5572C31.7484 32.5841 31.7763 32.6111 31.8043 32.638C31.9075 32.7066 32.0106 32.7754 32.1136 32.844C32.1636 32.5752 32.469 32.1885 32.7245 32.001C32.8299 31.9236 32.8764 31.7685 32.9581 31.6548C33.0037 31.5912 33.0666 31.5401 33.1217 31.4834C33.0995 31.3041 33.0644 31.1255 33.0575 30.9457C33.0378 30.4296 33.0702 29.9203 32.9085 29.4051C32.7142 28.7864 32.7897 28.133 32.8257 27.4778C33.4186 27.3586 33.6709 26.9719 33.7042 26.4515C33.7443 25.8228 33.6265 25.2165 33.2327 24.7021C32.9504 24.3334 32.568 24.1265 32.0936 24.2012C31.7794 24.2505 31.4743 24.3575 31.1651 24.4388C31.2809 24.5281 31.4525 24.5936 31.5029 24.711C31.7573 25.3027 32.0062 25.8993 32.2073 26.5105C32.4547 27.2622 32.5209 28.0331 32.393 28.8283C32.2398 29.7804 31.8206 30.5997 31.2806 31.377C31.1908 31.5064 31.1617 31.6779 31.1045 31.8299C31.2547 32.016 31.4049 32.2019 31.5552 32.3879H31.555ZM26.3545 23.3239C26.268 24.4397 25.7366 25.3783 25.1467 26.2852C24.6274 27.0837 24.1052 27.8844 23.5222 28.6361C23.1035 29.1759 22.5826 29.6367 22.1073 30.1326C22.1137 30.5003 22.1202 30.8681 22.1267 31.2358C22.2035 31.0957 22.2481 30.9169 22.3623 30.8218C23.1356 30.1776 23.7665 29.4079 24.3554 28.6014C24.9255 27.8207 25.4993 27.0415 26.0365 26.2381C26.6281 25.3531 27.2411 24.4698 27.3768 23.3683C27.0361 23.3535 26.6954 23.3388 26.3547 23.3239H26.3545ZM21.938 29.283C22.3779 28.7983 22.8726 28.3519 23.245 27.8199C23.8204 26.998 24.3348 26.1306 24.8307 25.2574C25.1121 24.7623 25.3167 24.2229 25.3431 23.6331C25.3477 23.527 25.4562 23.4257 25.5167 23.322C25.467 23.3234 25.4173 23.3247 25.3675 23.3261C25.3037 23.313 25.2399 23.2998 25.1763 23.2868C25.087 23.2873 24.9979 23.2877 24.9087 23.2883C24.8274 23.3715 24.746 23.4547 24.7066 23.4951C24.6338 23.8017 24.5846 24.0617 24.5102 24.3143C24.1525 25.5269 23.5026 26.5879 22.7417 27.5782C22.3615 28.0729 21.901 28.5057 21.4768 28.9666C21.6306 29.0721 21.7843 29.1776 21.938 29.2832V29.283ZM25.763 23.3218C25.796 24.2489 25.3824 25.0363 24.9392 25.7973C24.5112 26.5319 24.0301 27.2374 23.5418 27.9346C23.2546 28.3447 22.9115 28.7161 22.5873 29.0997C22.4347 29.2803 22.2673 29.4484 22.1066 29.6221C22.1069 29.7923 22.107 29.9624 22.1073 30.1326C22.5826 29.6367 23.1035 29.1759 23.5222 28.6361C24.1052 27.8845 24.6275 27.0838 25.1467 26.2852C25.7366 25.3783 26.268 24.4397 26.3545 23.3239C26.1573 23.3232 25.9602 23.3225 25.7629 23.3218H25.763ZM32.1294 32.9112C32.2045 33.0651 32.3421 33.2184 32.3431 33.3727C32.3465 33.9199 32.3068 34.4679 32.272 35.0147C32.2689 35.0631 32.1833 35.1063 32.136 35.1519C32.1044 35.1756 32.0726 35.1992 32.041 35.2229C32.0136 35.252 31.9862 35.2812 31.9589 35.3102C31.929 35.3365 31.8991 35.3626 31.8692 35.3888C31.9161 35.4416 31.9607 35.5375 32.0102 35.5401C32.2881 35.5549 32.567 35.5472 32.8581 35.5472C33.1029 34.9495 33.1868 34.3657 33.0963 33.7549C33.0784 33.6339 33.0447 33.4825 33.097 33.3893C33.4534 32.7535 33.3586 32.1214 33.1217 31.4833C33.0666 31.54 33.0037 31.5911 32.9581 31.6546C32.8764 31.7683 32.8299 31.9234 32.7245 32.0008C32.469 32.1884 32.1636 32.5751 32.1136 32.8439C32.1176 32.8666 32.1228 32.889 32.1294 32.9111V32.9112ZM25.5169 23.3218C25.4564 23.4254 25.3479 23.5269 25.3432 23.633C25.3168 24.2227 25.1122 24.7622 24.8309 25.2573C24.3348 26.1306 23.8205 26.998 23.2451 27.8197C22.8726 28.3517 22.378 28.7981 21.9382 29.2829C21.9944 29.3959 22.0505 29.5089 22.1067 29.622C22.2675 29.4482 22.4348 29.2801 22.5874 29.0996C22.9117 28.7161 23.2547 28.3446 23.542 27.9344C24.0301 27.2373 24.5113 26.5318 24.9394 25.7971C25.3825 25.0362 25.7961 24.2487 25.7631 23.3217C25.681 23.3217 25.5991 23.3217 25.517 23.3217L25.5169 23.3218ZM25.1763 23.2866C25.2401 23.2997 25.3039 23.3129 25.3675 23.326C25.3037 23.3129 25.2399 23.2997 25.1763 23.2866ZM22.8831 23.2476C22.9077 23.2593 22.9324 23.271 22.957 23.2827C22.935 23.2655 22.9103 23.2538 22.8831 23.2476ZM29.5117 34.644C29.3956 34.7246 29.2796 34.8052 29.1635 34.8857C29.141 35.0157 29.1184 35.1456 29.0948 35.2817H30.0881C30.0881 35.0811 30.0747 34.9006 30.0927 34.7234C30.1047 34.6056 30.13 34.4639 30.2038 34.3821C30.8608 33.6536 31.1201 32.7901 31.1065 31.8276C31.0127 31.8939 30.9136 31.9538 30.8263 32.0275C30.5901 32.2268 30.533 32.6134 30.1571 32.6676C30.1678 33.4002 29.9464 34.0569 29.5118 34.644H29.5117Z" fill="url(#paint0_linear_16563_26192)"/>
<defs>
<linearGradient id="paint0_linear_16563_26192" x1="15.8762" y1="22.8865" x2="34.7247" y2="33.7239" gradientUnits="userSpaceOnUse">
<stop stop-color="#F6DDD7"/>
<stop offset="0.25" stop-color="#FCABE6"/>
<stop offset="0.3" stop-color="#F3ADE6"/>
<stop offset="0.38" stop-color="#DDB3E8"/>
<stop offset="0.48" stop-color="#B8BCEC"/>
<stop offset="0.59" stop-color="#85CAF1"/>
<stop offset="0.7" stop-color="#50D8F6"/>
<stop offset="0.76" stop-color="#50D8F6"/>
<stop offset="0.86" stop-color="#B58FE8"/>
</linearGradient>
</defs>
</svg>
