<svg width="53" height="53" viewBox="0 0 53 53" fill="none" xmlns="http://www.w3.org/2000/svg">
<path d="M15.8416 24.8542C15.8416 25.4498 15.906 25.9327 16.0187 26.2869C16.1475 26.641 16.3084 27.0274 16.5338 27.4459C16.6143 27.5747 16.6465 27.7034 16.6465 27.8161C16.6465 27.9771 16.5499 28.1381 16.3406 28.2991L15.3265 28.9751C15.1816 29.0717 15.0367 29.12 14.908 29.12C14.747 29.12 14.586 29.0395 14.425 28.8947C14.1997 28.6532 14.0065 28.3956 13.8455 28.1381C13.6845 27.8644 13.5236 27.5586 13.3465 27.1883C12.0909 28.6693 10.5133 29.4098 8.61384 29.4098C7.26165 29.4098 6.18312 29.0234 5.39434 28.2508C4.60556 27.4781 4.20312 26.4478 4.20312 25.16C4.20312 23.7918 4.68605 22.681 5.668 21.844C6.64994 21.0069 7.95384 20.5884 9.61188 20.5884C10.1592 20.5884 10.7226 20.6366 11.3182 20.7171C11.9138 20.7976 12.5255 20.9264 13.1694 21.0713V19.8962C13.1694 18.6728 12.9119 17.8196 12.4128 17.3206C11.8977 16.8215 11.0285 16.5801 9.78895 16.5801C9.22554 16.5801 8.64603 16.6445 8.05043 16.7893C7.45482 16.9342 6.87531 17.1113 6.3119 17.3367C6.05434 17.4493 5.86117 17.5137 5.74848 17.5459C5.6358 17.5781 5.55531 17.5942 5.49092 17.5942C5.26556 17.5942 5.15288 17.4332 5.15288 17.0952V16.3064C5.15288 16.0489 5.18507 15.8557 5.26556 15.743C5.34605 15.6303 5.49092 15.5176 5.71629 15.405C6.2797 15.1152 6.9558 14.8737 7.74457 14.6806C8.53335 14.4713 9.37042 14.3747 10.2558 14.3747C12.1714 14.3747 13.5719 14.8094 14.4733 15.6786C15.3587 16.5479 15.8094 17.8679 15.8094 19.6386V24.8542H15.8416ZM9.30603 27.301C9.83725 27.301 10.3846 27.2044 10.9641 27.0113C11.5436 26.8181 12.0587 26.4639 12.4933 25.981C12.7509 25.6752 12.9441 25.3371 13.0406 24.9508C13.1372 24.5644 13.2016 24.0976 13.2016 23.5503V22.8742C12.7348 22.7615 12.2358 22.6649 11.7207 22.6005C11.2055 22.5362 10.7065 22.504 10.2075 22.504C9.12896 22.504 8.34018 22.7132 7.80896 23.1479C7.27775 23.5825 7.02019 24.1942 7.02019 24.9991C7.02019 25.7557 7.21336 26.3191 7.61579 26.7054C8.00213 27.1078 8.56555 27.301 9.30603 27.301ZM22.2323 29.0395C21.9426 29.0395 21.7494 28.9912 21.6206 28.8786C21.4918 28.782 21.3792 28.5566 21.2826 28.2508L17.4997 15.8074C17.4031 15.4855 17.3548 15.2762 17.3548 15.1635C17.3548 14.9059 17.4836 14.7611 17.7411 14.7611H19.3187C19.6245 14.7611 19.8338 14.8094 19.9465 14.922C20.0753 15.0186 20.1718 15.244 20.2684 15.5498L22.9728 26.2064L25.484 15.5498C25.5645 15.2279 25.6611 15.0186 25.7899 14.922C25.9186 14.8255 26.144 14.7611 26.4338 14.7611H27.7216C28.0274 14.7611 28.2367 14.8094 28.3655 14.922C28.4942 15.0186 28.6069 15.244 28.6713 15.5498L31.2147 26.3352L33.9996 15.5498C34.0962 15.2279 34.2089 15.0186 34.3215 14.922C34.4503 14.8255 34.6596 14.7611 34.9493 14.7611H36.4464C36.704 14.7611 36.8488 14.8898 36.8488 15.1635C36.8488 15.244 36.8327 15.3245 36.8166 15.4211C36.8005 15.5176 36.7684 15.6464 36.704 15.8235L32.8245 28.2669C32.7279 28.5888 32.6152 28.7981 32.4864 28.8947C32.3576 28.9912 32.1484 29.0556 31.8747 29.0556H30.4903C30.1845 29.0556 29.9752 29.0073 29.8464 28.8947C29.7177 28.782 29.605 28.5727 29.5406 28.2508L27.0455 17.8679L24.5665 28.2347C24.486 28.5566 24.3894 28.7659 24.2606 28.8786C24.1318 28.9912 23.9065 29.0395 23.6167 29.0395H22.2323ZM42.9176 29.4742C42.0805 29.4742 41.2435 29.3776 40.4386 29.1844C39.6337 28.9912 39.0059 28.782 38.5874 28.5405C38.3298 28.3956 38.1527 28.2347 38.0883 28.0898C38.024 27.9449 37.9918 27.7839 37.9918 27.6391V26.8181C37.9918 26.48 38.1205 26.3191 38.362 26.3191C38.4586 26.3191 38.5552 26.3352 38.6518 26.3674C38.7483 26.3996 38.8932 26.4639 39.0542 26.5283C39.6015 26.7698 40.1971 26.963 40.8249 27.0917C41.4688 27.2205 42.0966 27.2849 42.7405 27.2849C43.7547 27.2849 44.5434 27.1078 45.0908 26.7537C45.6381 26.3996 45.9278 25.8844 45.9278 25.2244C45.9278 24.7737 45.783 24.4035 45.4932 24.0976C45.2034 23.7918 44.6561 23.5181 43.8673 23.2605L41.5332 22.5362C40.3581 22.1659 39.4888 21.6186 38.9576 20.8942C38.4264 20.1859 38.1527 19.3971 38.1527 18.5601C38.1527 17.884 38.2976 17.2884 38.5874 16.7733C38.8771 16.2581 39.2635 15.8074 39.7464 15.4533C40.2293 15.083 40.7766 14.8094 41.4205 14.6162C42.0644 14.423 42.7405 14.3425 43.4488 14.3425C43.803 14.3425 44.1732 14.3586 44.5273 14.4069C44.8976 14.4552 45.2356 14.5196 45.5737 14.584C45.8956 14.6645 46.2015 14.745 46.4912 14.8416C46.781 14.9381 47.0064 15.0347 47.1673 15.1313C47.3927 15.2601 47.5537 15.3889 47.6503 15.5337C47.7468 15.6625 47.7951 15.8396 47.7951 16.065V16.8215C47.7951 17.1596 47.6664 17.3367 47.4249 17.3367C47.2961 17.3367 47.0868 17.2723 46.8132 17.1435C45.8956 16.725 44.8654 16.5157 43.7225 16.5157C42.8049 16.5157 42.0805 16.6606 41.5815 16.9664C41.0825 17.2723 40.8249 17.7391 40.8249 18.3991C40.8249 18.8498 40.9859 19.2362 41.3078 19.542C41.6298 19.8479 42.2254 20.1537 43.0786 20.4274L45.3644 21.1518C46.5234 21.522 47.3605 22.0371 47.8595 22.6971C48.3585 23.3571 48.6 24.1137 48.6 24.9508C48.6 25.643 48.4551 26.2708 48.1815 26.8181C47.8917 27.3654 47.5054 27.8483 47.0064 28.2347C46.5073 28.6371 45.9117 28.9269 45.2195 29.1361C44.4951 29.3615 43.7386 29.4742 42.9176 29.4742Z" fill="#F0F3FA"/>
<path fill-rule="evenodd" clip-rule="evenodd" d="M45.9613 37.2977C40.6652 41.2094 32.9706 43.2859 26.3545 43.2859C17.0824 43.2859 8.72776 39.8572 2.41755 34.1587C1.91852 33.7079 2.36925 33.0962 2.96486 33.4504C9.7902 37.4104 18.2092 39.8089 26.9179 39.8089C32.7935 39.8089 39.2486 38.5855 45.1886 36.0743C46.0739 35.6718 46.8305 36.6538 45.9613 37.2977Z" fill="#FF9900"/>
<path fill-rule="evenodd" clip-rule="evenodd" d="M48.1656 34.7864C47.4895 33.9171 43.6905 34.3678 41.968 34.5771C41.4529 34.6415 41.3724 34.1908 41.8393 33.8527C44.8656 31.7278 49.8397 32.3396 50.4192 33.0478C50.9987 33.7722 50.2582 38.7464 47.4251 41.1288C46.9905 41.499 46.5719 41.3059 46.7651 40.8229C47.409 39.2293 48.8417 35.6395 48.1656 34.7864Z" fill="#FF9900"/>
</svg>
