<svg width="53" height="53" viewBox="0 0 53 53" fill="none" xmlns="http://www.w3.org/2000/svg">
<path d="M5.3656 36.3203C7.1148 36.3203 8.53198 34.9031 8.53198 33.1539C8.53198 31.4047 7.1148 29.9875 5.3656 29.9875C3.6164 29.9875 2.19922 31.4047 2.19922 33.1539C2.19922 34.9031 3.6164 36.3203 5.3656 36.3203Z" fill="#EB6161"/>
<path d="M15.3431 23.1769C15.7561 23.1769 16.0881 23.509 16.0881 23.922L16.0476 29.9875C16.0476 33.4454 13.2699 36.2636 9.82012 36.3202H9.71484V30.0037H9.73914L9.76343 23.9382C9.76343 23.5252 10.0955 23.1931 10.5085 23.1931H15.3512C15.3431 23.1931 15.3431 23.1769 15.3431 23.1769ZM25.069 23.1769C25.482 23.1769 25.814 23.509 25.814 23.922V32.4088C25.814 32.8218 25.482 33.1539 25.069 33.1539H20.2263C19.8133 33.1539 19.4812 32.8218 19.4812 32.4088V23.922C19.4812 23.509 19.8133 23.1769 20.2263 23.1769H25.069ZM32.6893 23.1526H32.7946C35.8962 23.1931 38.4228 25.6955 38.5119 28.8052V32.3926C38.5119 32.8056 38.1799 33.1377 37.7669 33.1377H29.9441C29.531 33.1377 29.199 32.8056 29.199 32.3926V23.8977C29.199 23.4847 29.531 23.1526 29.9441 23.1526C29.936 23.1526 32.6893 23.1526 32.6893 23.1526ZM45.5087 33.0486C42.9011 32.8866 40.8118 30.7082 40.8118 28.0601C40.8118 25.3067 43.0469 23.0717 45.8003 23.0717C48.4484 23.0717 50.6268 25.1448 50.7887 27.7686V32.3036C50.7887 32.7166 50.4567 33.0486 50.0437 33.0486C50.0356 33.0486 45.5087 33.0486 45.5087 33.0486Z" fill="#009191"/>
<path d="M22.639 21.9946C24.3882 21.9946 25.8054 20.5775 25.8054 18.8282C25.8054 17.079 24.3882 15.6619 22.639 15.6619C20.8898 15.6619 19.4727 17.079 19.4727 18.8282C19.4727 20.5775 20.8898 21.9946 22.639 21.9946Z" fill="#FBCB67"/>
</svg>
