<svg width="53" height="53" viewBox="0 0 53 53" fill="none" xmlns="http://www.w3.org/2000/svg">
<path d="M27.4961 6.70295C18.6394 8.59467 9.18078 21.4928 9.09479 31.9832C9.0088 41.1838 14.254 46.4291 23.5407 46.3431C34.719 46.2571 47.2731 34.9068 43.6617 28.1998C42.5438 26.0501 41.34 25.9641 39.1903 27.8558C36.5247 30.1775 36.4387 28.3717 38.8464 23.0405C41.77 16.4195 41.684 14.1838 38.3305 10.4864C35.0629 7.0469 31.6235 5.75709 27.4961 6.70295ZM36.3528 10.1424C40.1362 13.4959 40.3082 17.1934 37.1266 24.1584C34.805 29.3176 33.5152 30.0055 30.7636 27.2539C28.6999 25.1902 28.5279 21.4928 30.3336 17.1934C32.2254 12.808 31.9674 12.0342 29.3878 14.4418C23.1967 20.031 18.6394 30.6934 20.3591 35.2507C21.133 37.2284 21.7349 37.5724 24.9164 37.5724C29.5598 37.5724 35.4069 34.7348 38.1585 31.0373C41.0821 27.2539 42.8018 27.2539 42.8018 30.9514C42.8018 37.4004 32.0534 45.3112 23.4547 45.3112C13.0502 45.3112 7.89097 37.4004 10.9865 26.2221C12.4483 21.2348 18.3814 13.066 22.7668 10.1424C28.184 6.53098 32.2254 6.53098 36.3528 10.1424Z" fill="#F0F3FA"/>
</svg>
