<svg width="53" height="53" viewBox="0 0 53 53" fill="none" xmlns="http://www.w3.org/2000/svg">
<path d="M39.4259 29.3899C37.6911 25.6403 39.3699 21.1635 43.1195 19.4286L40.769 14.336C37.8589 15.6791 35.5646 18.0296 34.2773 20.9394C31.3114 27.5429 34.2773 35.3217 40.9368 38.2318L43.2313 33.1392C41.5524 32.4117 40.2093 31.0686 39.4259 29.3899ZM35.6205 12.2095L32.3748 7.62073C30.64 8.8519 29.1291 10.3068 27.786 11.9857L32.151 15.4555C33.1583 14.2243 34.2775 13.1611 35.6208 12.2098L35.6205 12.2095ZM28.4014 26.2559C28.4014 18.9808 24.8759 12.0975 18.9998 7.78851L15.642 12.3215C20.119 15.5673 22.7491 20.7717 22.8051 26.3119C22.8051 33.587 26.2749 40.4703 32.1507 44.7793L35.4525 40.2463C31.0315 36.9445 28.4011 31.7961 28.4011 26.2556L28.4014 26.2559ZM15.642 40.2463L18.9998 44.7793C20.6227 43.6041 22.0777 42.1491 23.3087 40.5821L18.9438 37.1126C17.9924 38.2878 16.8732 39.351 15.642 40.2463ZM10.1578 14.28L8.03125 19.4844C9.87802 20.2119 11.333 21.6669 12.0604 23.5135C13.5714 27.2628 11.7806 31.5161 8.087 33.0272L10.2135 38.2316C13.4593 36.8885 15.9776 34.3702 17.2649 31.1245C19.951 24.465 16.7612 16.9661 10.1578 14.28Z" fill="white"/>
</svg>
