<svg width="508" height="491" viewBox="0 0 508 491" fill="none" xmlns="http://www.w3.org/2000/svg">
<g clip-path="url(#clip0_2495_387)">
<path d="M217.3 178.354L134.826 130.738C122.216 123.456 106.682 123.456 94.073 130.738L11.5983 178.354C-1.98589 186.197 -1.98589 205.803 11.5983 213.646L94.073 261.262C106.682 268.544 122.216 268.544 134.826 261.262L217.305 213.646C230.884 205.803 230.884 186.197 217.3 178.354Z" stroke="#C91540" stroke-width="1.0206" stroke-miterlimit="10"/>
<path opacity="0.2" d="M217.3 220.663L134.826 173.042C122.216 165.76 106.682 165.76 94.073 173.042L11.5983 220.663C-1.98589 228.506 -1.98589 248.112 11.5983 255.955L94.073 303.571C106.682 310.853 122.216 310.853 134.826 303.571L217.305 255.955C230.884 248.112 230.884 228.506 217.3 220.663Z" fill="#B2BFE8"/>
<path d="M217.3 177.874L134.826 130.258C122.216 122.976 106.682 122.976 94.073 130.258L11.5983 177.874C-1.98589 185.718 -1.98589 205.324 11.5983 213.167L94.073 260.783C106.682 268.065 122.216 268.065 134.826 260.783L217.305 213.167C230.884 205.324 230.884 185.713 217.3 177.874Z" fill="#D9E2FF"/>
<path d="M227.491 160.503H1.41309V195.515H227.491V160.503Z" fill="#D9E2FF"/>
<path d="M217.305 178.15L134.826 225.771C122.216 233.048 106.682 233.048 94.073 225.771L11.5983 178.15C-1.98589 170.312 -1.98589 150.701 11.5983 142.858L94.0781 95.2418C106.682 87.9598 122.221 87.9598 134.831 95.2418L152.778 105.606L217.305 142.858C223.837 146.624 227.226 153.12 227.476 159.708C227.751 166.832 224.358 174.078 217.305 178.15Z" fill="#EBF1FF"/>
<path d="M217.3 142.863L134.826 95.2466C122.216 87.9647 106.682 87.9647 94.073 95.2466L11.5983 142.863C-1.98589 150.706 -1.98589 170.312 11.5983 178.155L94.073 225.771C106.682 233.053 122.216 233.053 134.826 225.771L217.305 178.155C230.884 170.312 230.884 150.706 217.3 142.863Z" stroke="white" stroke-width="1.0206" stroke-miterlimit="10"/>
<path d="M430.361 294.397L306.434 222.848C287.487 211.907 264.146 211.907 245.198 222.848L121.267 294.397C100.855 306.18 100.855 335.644 121.267 347.427L245.193 418.976C264.141 429.917 287.482 429.917 306.429 418.976L430.361 347.422C450.773 335.644 450.773 306.185 430.361 294.397Z" stroke="#C91540" stroke-width="1.0206" stroke-miterlimit="10"/>
<path opacity="0.2" d="M430.361 357.97L306.434 286.416C287.487 275.475 264.146 275.475 245.198 286.416L121.267 357.97C100.855 369.753 100.855 399.217 121.267 411L245.193 482.549C264.141 493.49 287.482 493.49 306.429 482.549L430.361 410.995C450.773 399.217 450.773 369.753 430.361 357.97Z" fill="#B2BFE8"/>
<path opacity="0.2" d="M403.83 374.683C421.394 374.683 435.632 366.595 435.632 356.618C435.632 346.642 421.394 338.554 403.83 338.554C386.267 338.554 372.028 346.642 372.028 356.618C372.028 366.595 386.267 374.683 403.83 374.683Z" fill="#B2BFE8"/>
<path d="M430.361 293.672L306.434 222.118C287.487 211.177 264.146 211.177 245.198 222.118L121.267 293.672C100.855 305.455 100.855 334.92 121.267 346.702L245.193 418.252C264.141 429.192 287.482 429.192 306.429 418.252L430.361 346.697C450.773 334.92 450.773 305.455 430.361 293.672Z" fill="#D9E2FF"/>
<path d="M445.67 267.575H105.958V320.187H445.67V267.575Z" fill="#D9E2FF"/>
<path d="M403.83 275.032C421.394 275.032 435.632 266.944 435.632 256.967C435.632 246.99 421.394 238.902 403.83 238.902C386.267 238.902 372.028 246.99 372.028 256.967C372.028 266.944 386.267 275.032 403.83 275.032Z" fill="#B2BFE8"/>
<path d="M435.627 257.487V183.483H372.028V256.967L435.627 257.487Z" fill="#24386C"/>
<path d="M403.83 201.548C421.394 201.548 435.632 193.46 435.632 183.484C435.632 173.507 421.394 165.419 403.83 165.419C386.267 165.419 372.028 173.507 372.028 183.484C372.028 193.46 386.267 201.548 403.83 201.548Z" fill="#EBF1FF"/>
<path d="M430.361 241.06L306.434 169.511C287.487 158.57 264.146 158.57 245.198 169.511L121.267 241.06C100.855 252.843 100.855 282.308 121.267 294.091L245.193 365.64C264.141 376.581 287.482 376.581 306.429 365.64L430.361 294.086C450.773 282.308 450.773 252.848 430.361 241.06Z" fill="#EBF1FF"/>
<path d="M275.816 326.526C333.121 326.526 379.575 300.133 379.575 267.576C379.575 235.019 333.121 208.626 275.816 208.626C218.511 208.626 172.057 235.019 172.057 267.576C172.057 300.133 218.511 326.526 275.816 326.526Z" fill="#721FFA"/>
<path d="M311.588 246.98L318.369 245.919C322.59 245.245 327.019 246.628 328.3 248.991C329.581 251.353 327.172 253.803 322.952 254.482L257.552 264.764L275.504 274.383C281.327 277.501 278.127 283.002 271.126 284.247L218.488 256.043C215.274 254.323 215.131 251.527 218.167 249.766C221.198 248.001 226.209 247.97 229.419 249.69L244.177 257.599L293.987 249.751L297.758 240.969C298.794 238.591 303.05 237.162 307.367 237.764C311.654 238.382 314.282 240.78 313.277 243.178L311.588 246.98ZM230.858 268.959L216.177 271.276C211.957 271.949 207.527 270.566 206.246 268.204C204.966 265.841 207.374 263.391 211.594 262.713L222.484 260.998C228.526 262.713 231.277 265.361 230.858 268.959ZM295.324 285.033L310.383 293.101C313.598 294.821 313.741 297.617 310.705 299.378C307.674 301.143 302.662 301.174 299.453 299.454L291.089 294.974L287.486 303.373C286.45 305.751 282.194 307.18 277.877 306.578C273.591 305.961 270.963 303.562 271.968 301.164C278.03 287.018 282.541 276.419 285.567 269.367C288.614 262.177 300.009 259.426 306.117 259.697C303.76 265.315 300.142 273.761 295.324 285.033Z" fill="#5916DB"/>
<path d="M311.588 233.202L318.369 232.14C322.59 231.467 327.019 232.85 328.3 235.212C329.581 237.575 327.172 240.025 322.952 240.703L257.552 250.986L275.504 260.605C281.327 263.723 278.127 269.224 271.126 270.469L218.488 242.265C215.274 240.545 215.131 237.749 218.167 235.988C221.198 234.222 226.209 234.192 229.419 235.911L244.177 243.821L293.987 235.973L297.758 227.19C298.794 224.812 303.05 223.384 307.367 223.986C311.654 224.603 314.282 227.002 313.277 229.4L311.588 233.202ZM230.858 255.18L216.177 257.497C211.957 258.171 207.527 256.788 206.246 254.425C204.966 252.062 207.374 249.613 211.594 248.934L222.484 247.22C228.526 248.934 231.277 251.583 230.858 255.18ZM295.324 271.255L310.383 279.323C313.598 281.042 313.741 283.839 310.705 285.599C307.674 287.365 302.662 287.396 299.453 285.676L291.089 281.196L287.486 289.595C286.45 291.973 282.194 293.402 277.877 292.8C273.591 292.182 270.963 289.784 271.968 287.385C278.03 273.24 282.541 262.641 285.567 255.589C288.614 248.399 300.009 245.648 306.117 245.918C303.76 251.537 300.142 259.982 295.324 271.255Z" fill="white"/>
<path d="M275.816 326.526C333.121 326.526 379.575 300.133 379.575 267.576C379.575 235.019 333.121 208.626 275.816 208.626C218.511 208.626 172.057 235.019 172.057 267.576C172.057 300.133 218.511 326.526 275.816 326.526Z" stroke="#24386C" stroke-width="1.5309" stroke-miterlimit="10"/>
<path d="M430.361 241.06L306.434 169.511C287.487 158.57 264.146 158.57 245.198 169.511L121.267 241.06C100.855 252.843 100.855 282.308 121.267 294.091L245.193 365.64C264.141 376.581 287.482 376.581 306.429 365.64L430.361 294.086C450.773 282.308 450.773 252.848 430.361 241.06Z" stroke="white" stroke-width="1.5309" stroke-miterlimit="10"/>
<path d="M403.83 206.146C386.266 206.146 372.028 198.057 372.028 188.081V192.674C372.028 202.65 386.266 210.738 403.83 210.738C421.395 210.738 435.632 202.65 435.632 192.674V188.081C435.627 198.057 421.39 206.146 403.83 206.146Z" fill="#C91540"/>
<path d="M403.83 201.548C421.394 201.548 435.632 193.46 435.632 183.484C435.632 173.507 421.394 165.419 403.83 165.419C386.267 165.419 372.028 173.507 372.028 183.484C372.028 193.46 386.267 201.548 403.83 201.548Z" stroke="white" stroke-width="1.5309" stroke-miterlimit="10"/>
<path opacity="0.5" d="M470.169 117.144C470.169 80.5045 452.487 41.6196 403.83 41.6196C355.173 41.6196 337.491 80.5045 337.491 117.144C337.491 145.098 352.004 153.921 367.456 169.97C370.773 173.42 372.319 178.115 372.044 182.891C372.033 183.085 372.028 183.284 372.028 183.483C372.028 193.383 386.041 201.415 403.407 201.543C403.407 201.553 404.254 201.553 404.254 201.543C421.619 201.415 435.627 193.378 435.627 183.483C435.627 183.284 435.622 183.09 435.612 182.896C435.341 178.12 436.882 173.42 440.199 169.975C455.651 153.921 470.169 148.043 470.169 117.144Z" fill="#FFECA7" stroke="white" stroke-width="2.0412" stroke-miterlimit="10"/>
<path d="M403.83 168.067C461.134 168.067 507.589 141.674 507.589 109.117C507.589 76.5602 461.134 50.1675 403.83 50.1675C346.525 50.1675 300.07 76.5602 300.07 109.117C300.07 141.674 346.525 168.067 403.83 168.067Z" stroke="#FFECA7" stroke-width="0.5103" stroke-miterlimit="10"/>
<path d="M262.395 90.5723L210.339 60.5207C202.379 55.928 192.576 55.928 184.62 60.5207L132.565 90.5774C123.992 95.5273 123.992 107.902 132.565 112.852L184.615 142.904C192.571 147.496 202.379 147.496 210.334 142.904L262.39 112.852C270.968 107.897 270.968 95.5222 262.395 90.5723Z" stroke="#C91540" stroke-width="1.0206" stroke-miterlimit="10"/>
<path opacity="0.2" d="M227.476 159.708L210.34 169.603C202.384 174.196 192.577 174.196 184.621 169.603L132.57 139.546C123.992 134.597 123.992 122.222 132.57 117.272L152.778 105.606L217.306 142.858C223.837 146.624 227.226 153.12 227.476 159.708Z" fill="#B2BFE8"/>
<path d="M262.395 90.2666L210.339 60.215C202.379 55.6223 192.576 55.6223 184.62 60.215L132.565 90.2717C123.992 95.2216 123.992 107.596 132.565 112.546L184.615 142.598C192.571 147.191 202.379 147.191 210.334 142.598L262.39 112.546C270.968 107.591 270.968 95.2165 262.395 90.2666Z" fill="#D9E2FF"/>
<path d="M268.825 79.3057H126.135V101.402H268.825V79.3057Z" fill="#D9E2FF"/>
<path d="M262.396 90.4452L210.34 120.497C202.384 125.095 192.577 125.095 184.621 120.497L132.57 90.4452C127.758 87.6692 125.646 82.5509 126.232 77.7234C126.692 73.9472 128.804 70.3445 132.57 68.1706L171.935 45.4419L184.621 38.114C192.582 33.5213 202.384 33.5213 210.345 38.114L262.396 68.1706C270.969 73.1205 270.969 85.4953 262.396 90.4452Z" fill="#EBF1FF"/>
<path d="M262.395 68.1709L210.339 38.1193C202.379 33.5266 192.576 33.5266 184.62 38.1193L132.565 68.176C123.992 73.1259 123.992 85.5007 132.565 90.4506L184.615 120.502C192.571 125.095 202.379 125.095 210.334 120.502L262.39 90.4506C270.968 85.4956 270.968 73.1208 262.395 68.1709Z" stroke="white" stroke-width="0.5103" stroke-miterlimit="10"/>
<path d="M179.987 33.986L148.579 15.8551C143.777 13.0841 137.862 13.0841 133.06 15.8551L101.651 33.986C96.4769 36.9713 96.4769 44.437 101.651 47.4273L133.055 65.5583C137.857 68.3292 143.772 68.3292 148.573 65.5583L179.982 47.4273C185.157 44.437 185.157 36.9713 179.987 33.986Z" stroke="#C91540" stroke-width="1.0206" stroke-miterlimit="10"/>
<path opacity="0.2" d="M179.987 63.5325L148.578 81.6686C143.777 84.4395 137.862 84.4395 133.06 81.6686L126.232 77.724C126.692 73.9477 128.804 70.345 132.57 68.1711L171.935 45.4424L179.987 50.0912C185.162 53.0816 185.162 60.5473 179.987 63.5325Z" fill="#B2BFE8"/>
<path d="M179.987 33.8017L148.579 15.6656C143.777 12.8947 137.862 12.8947 133.06 15.6656L101.651 33.8017C96.4769 36.7869 96.4769 44.2526 101.651 47.243L133.055 65.3739C137.857 68.1448 143.772 68.1448 148.573 65.3739L179.982 47.243C185.157 44.2526 185.157 36.7869 179.987 33.8017Z" fill="#D9E2FF"/>
<path d="M183.866 27.189H97.7734V40.5231H183.866V27.189Z" fill="#D9E2FF"/>
<path d="M179.987 33.9039L148.579 52.0399C143.777 54.8109 137.862 54.8109 133.06 52.0399L101.651 33.9039C96.4769 30.9186 96.4769 23.4529 101.651 20.4626L133.06 2.33161C137.862 -0.439314 143.777 -0.439314 148.579 2.33161L155.411 6.27623L179.982 20.4626C182.468 21.8965 183.759 24.3715 183.856 26.877C183.963 29.5969 182.672 32.3526 179.987 33.9039Z" fill="#EBF1FF"/>
<path d="M179.987 20.4677L148.579 2.33161C143.777 -0.439314 137.862 -0.439314 133.06 2.33161L101.651 20.4677C96.4769 23.4529 96.4769 30.9186 101.651 33.909L133.055 52.0399C137.857 54.8109 143.772 54.8109 148.573 52.0399L179.982 33.909C185.157 30.9186 185.157 23.4529 179.987 20.4677Z" stroke="white" stroke-width="0.5103" stroke-miterlimit="10"/>
<path d="M152.66 359.848L94.5364 326.291C85.6521 321.162 74.7011 321.162 65.8168 326.291L7.69359 359.848C-1.87964 365.375 -1.87964 379.194 7.69359 384.72L65.8168 418.277C74.7011 423.406 85.6521 423.406 94.5364 418.277L152.665 384.72C162.233 379.194 162.233 365.375 152.66 359.848Z" stroke="#C91540" stroke-width="1.0206" stroke-miterlimit="10"/>
<path opacity="0.2" d="M152.661 389.665L94.5377 356.108C85.6533 350.98 74.7023 350.98 65.818 356.108L7.68969 389.665C-1.88354 395.192 -1.88354 409.011 7.68969 414.537L65.8129 448.095C74.6972 453.223 85.6482 453.223 94.5325 448.095L152.661 414.537C162.234 409.011 162.234 395.192 152.661 389.665Z" fill="#B2BFE8"/>
<path d="M152.66 359.512L94.5364 325.954C85.6521 320.826 74.7011 320.826 65.8168 325.954L7.69359 359.512C-1.87964 365.038 -1.87964 378.857 7.69359 384.384L65.8168 417.941C74.7011 423.07 85.6521 423.07 94.5364 417.941L152.665 384.384C162.233 378.857 162.233 365.038 152.66 359.512Z" fill="#D9E2FF"/>
<path d="M159.841 347.27H0.509766V371.943H159.841V347.27Z" fill="#D9E2FF"/>
<path d="M152.661 359.705L94.5325 393.268C85.6482 398.396 74.6972 398.396 65.8129 393.268L7.68969 359.705C-1.88354 354.179 -1.88354 340.36 7.68969 334.833L65.818 301.276C74.7023 296.142 85.6533 296.142 94.5376 301.276L107.188 308.578L152.666 334.833C157.269 337.487 159.657 342.064 159.836 346.708C160.024 351.729 157.631 356.837 152.661 359.705Z" fill="#EBF1FF"/>
<path d="M152.66 334.833L94.5364 301.276C85.6521 296.147 74.7011 296.147 65.8168 301.276L7.69359 334.833C-1.87964 340.359 -1.87964 354.178 7.69359 359.705L65.8168 393.262C74.7011 398.391 85.6521 398.391 94.5364 393.262L152.665 359.705C162.233 354.178 162.233 340.359 152.66 334.833Z" stroke="white" stroke-width="0.5103" stroke-miterlimit="10"/>
</g>
<defs>
<clipPath id="clip0_2495_387">
<rect width="507.845" height="490.756" fill="white"/>
</clipPath>
</defs>
</svg>
