<?xml version="1.0" encoding="UTF-8"?>
<svg width="508" height="491" fill="none" version="1.1" viewBox="0 0 508 491" xmlns="http://www.w3.org/2000/svg">
 <path d="m217.3 178.35-82.474-47.616c-12.61-7.282-28.144-7.282-40.753 0l-82.475 47.616c-13.584 7.843-13.584 27.449 0 35.292l82.475 47.616c12.609 7.282 28.143 7.282 40.753 0l82.479-47.616c13.579-7.843 13.579-27.449-5e-3 -35.292z" clip-path="url(#clipPath670)" stroke="#c91540" stroke-miterlimit="10" stroke-width="3"/>
 <path d="m217.3 220.66-82.474-47.621c-12.61-7.282-28.144-7.282-40.753 0l-82.475 47.621c-13.584 7.843-13.584 27.449 0 35.292l82.475 47.616c12.609 7.282 28.143 7.282 40.753 0l82.479-47.616c13.579-7.843 13.579-27.449-5e-3 -35.292z" clip-path="url(#clipPath664)" fill="#b2bfe8" opacity=".2"/>
 <path d="m217.3 177.87-82.474-47.616c-12.61-7.282-28.144-7.282-40.753 0l-82.475 47.616c-13.584 7.844-13.584 27.45 0 35.293l82.475 47.616c12.609 7.282 28.143 7.282 40.753 0l82.479-47.616c13.579-7.843 13.579-27.454-5e-3 -35.293z" clip-path="url(#clipPath658)" fill="#d9e2ff"/>
 <path d="m227.49 160.5h-226.08v35.012h226.08z" clip-path="url(#clipPath652)" fill="#d9e2ff"/>
 <path d="m217.3 178.15-82.479 47.621c-12.61 7.277-28.144 7.277-40.753 0l-82.475-47.621c-13.584-7.838-13.584-27.449 0-35.292l82.48-47.616c12.604-7.282 28.143-7.282 40.753 0l17.947 10.364 64.527 37.252c6.532 3.766 9.921 10.262 10.171 16.85 0.275 7.124-3.118 14.37-10.171 18.442z" clip-path="url(#clipPath646)" fill="#ebf1ff"/>
 <path d="m217.3 142.86-82.474-47.616c-12.61-7.2819-28.144-7.2819-40.753 0l-82.475 47.616c-13.584 7.843-13.584 27.449 0 35.292l82.475 47.616c12.609 7.282 28.143 7.282 40.753 0l82.479-47.616c13.579-7.843 13.579-27.449-5e-3 -35.292z" clip-path="url(#clipPath640)" stroke="#ffffff" stroke-miterlimit="10" stroke-width="1.0206"/>
 <path d="m430.36 357.97-123.93-71.554c-18.947-10.941-42.288-10.941-61.236 0l-123.93 71.554c-20.412 11.783-20.412 41.247 0 53.03l123.93 71.549c18.948 10.941 42.289 10.941 61.236 0l123.93-71.554c20.412-11.778 20.412-41.242 0-53.025z" clip-path="url(#clipPath628)" fill="#b2bfe8" opacity=".2"/>
 <path d="m430.36 294.4-123.93-71.549c-18.947-10.941-42.288-10.941-61.236 0l-123.93 71.549c-20.412 11.783-20.412 41.247 0 53.03l123.93 71.549c18.948 10.941 42.289 10.941 61.236 0l123.93-71.554c20.412-11.778 20.412-41.237 0-53.025z" clip-path="url(#clipPath634)" stroke="#c91540" stroke-miterlimit="10" stroke-width="3"/>
 <path d="m430.36 293.67-123.93-71.554c-18.947-10.941-42.288-10.941-61.236 0l-123.93 71.554c-20.412 11.783-20.412 41.248 0 53.03l123.93 71.55c18.948 10.94 42.289 10.94 61.236 0l123.93-71.555c20.412-11.777 20.412-41.242 0-53.025z" clip-path="url(#clipPath616)" fill="#d9e2ff"/>
 <path d="m445.67 267.58h-339.71v52.612h339.71z" clip-path="url(#clipPath610)" fill="#d9e2ff"/>
 <path d="m403.83 275.03c17.564 0 31.802-8.088 31.802-18.065s-14.238-18.065-31.802-18.065c-17.563 0-31.802 8.088-31.802 18.065s14.239 18.065 31.802 18.065z" clip-path="url(#clipPath604)" fill="#b2bfe8"/>
 <path d="m430.36 241.06-123.93-71.549c-18.947-10.941-42.288-10.941-61.236 0l-123.93 71.549c-20.412 11.783-20.412 41.248 0 53.031l123.93 71.549c18.948 10.941 42.289 10.941 61.236 0l123.93-71.554c20.412-11.778 20.412-41.238 0-53.026z" clip-path="url(#clipPath586)" fill="#ebf1ff"/>
 <path d="m275.82 326.53c57.305 0 103.76-26.393 103.76-58.95s-46.454-58.95-103.76-58.95-103.76 26.393-103.76 58.95 46.454 58.95 103.76 58.95z" clip-path="url(#clipPath580)" fill="#721ffa"/>
 <path d="m311.59 246.98 6.781-1.061c4.221-0.674 8.65 0.709 9.931 3.072 1.281 2.362-1.128 4.812-5.348 5.491l-65.4 10.282 17.952 9.619c5.823 3.118 2.623 8.619-4.378 9.864l-52.638-28.204c-3.214-1.72-3.357-4.516-0.321-6.277 3.031-1.765 8.042-1.796 11.252-0.076l14.758 7.909 49.81-7.848 3.771-8.782c1.036-2.378 5.292-3.807 9.609-3.205 4.287 0.618 6.915 3.016 5.91 5.414zm-80.73 21.979-14.681 2.317c-4.22 0.673-8.65-0.71-9.931-3.072-1.28-2.363 1.128-4.813 5.348-5.491l10.89-1.715c6.042 1.715 8.793 4.363 8.374 7.961zm64.466 16.074 15.059 8.068c3.215 1.72 3.358 4.516 0.322 6.277-3.031 1.765-8.043 1.796-11.252 0.076l-8.364-4.48-3.603 8.399c-1.036 2.378-5.292 3.807-9.609 3.205-4.286-0.617-6.914-3.016-5.909-5.414 6.062-14.146 10.573-24.745 13.599-31.797 3.047-7.19 14.442-9.941 20.55-9.67-2.357 5.618-5.975 14.064-10.793 25.336z" clip-path="url(#clipPath574)" fill="#5916db"/>
 <path d="m311.59 233.2 6.781-1.062c4.221-0.673 8.65 0.71 9.931 3.072 1.281 2.363-1.128 4.813-5.348 5.491l-65.4 10.283 17.952 9.619c5.823 3.118 2.623 8.619-4.378 9.864l-52.638-28.204c-3.214-1.72-3.357-4.516-0.321-6.277 3.031-1.766 8.042-1.796 11.252-0.077l14.758 7.91 49.81-7.848 3.771-8.783c1.036-2.378 5.292-3.806 9.609-3.204 4.287 0.617 6.915 3.016 5.91 5.414zm-80.73 21.978-14.681 2.317c-4.22 0.674-8.65-0.709-9.931-3.072-1.28-2.363 1.128-4.812 5.348-5.491l10.89-1.714c6.042 1.714 8.793 4.363 8.374 7.96zm64.466 16.075 15.059 8.068c3.215 1.719 3.358 4.516 0.322 6.276-3.031 1.766-8.043 1.797-11.252 0.077l-8.364-4.48-3.603 8.399c-1.036 2.378-5.292 3.807-9.609 3.205-4.286-0.618-6.914-3.016-5.909-5.415 6.062-14.145 10.573-24.744 13.599-31.796 3.047-7.19 14.442-9.941 20.55-9.671-2.357 5.619-5.975 14.064-10.793 25.337z" clip-path="url(#clipPath568)" fill="#ffffff"/>
 <g stroke-miterlimit="10">
  <path d="m275.82 326.53c57.305 0 103.76-26.393 103.76-58.95s-46.454-58.95-103.76-58.95-103.76 26.393-103.76 58.95 46.454 58.95 103.76 58.95z" clip-path="url(#clipPath562)" stroke="#24386c" stroke-width="1.5309"/>
  <path d="m430.36 241.06-123.93-71.549c-18.947-10.941-42.288-10.941-61.236 0l-123.93 71.549c-20.412 11.783-20.412 41.248 0 53.031l123.93 71.549c18.948 10.941 42.289 10.941 61.236 0l123.93-71.554c20.412-11.778 20.412-41.238 0-53.026z" clip-path="url(#clipPath556)" stroke="#ffffff" stroke-width="1.5309"/>
  <path d="m262.4 90.572-52.056-30.052c-7.96-4.5927-17.763-4.5927-25.719 0l-52.055 30.057c-8.573 4.9499-8.573 17.325 0 22.275l52.05 30.052c7.956 4.592 17.764 4.592 25.719 0l52.056-30.052c8.578-4.955 8.578-17.33 5e-3 -22.28z" clip-path="url(#clipPath526)" stroke="#c91540" stroke-width="3"/>
 </g>
 <path d="m227.48 159.71-17.136 9.895c-7.956 4.593-17.763 4.593-25.719 0l-52.051-30.057c-8.578-4.949-8.578-17.324 0-22.274l20.208-11.666 64.528 37.252c6.531 3.766 9.92 10.262 10.17 16.85z" clip-path="url(#clipPath520)" fill="#b2bfe8" opacity=".2"/>
 <path d="m262.4 90.267-52.056-30.052c-7.96-4.5927-17.763-4.5927-25.719 0l-52.055 30.057c-8.573 4.9499-8.573 17.324 0 22.274l52.05 30.052c7.956 4.593 17.764 4.593 25.719 0l52.056-30.052c8.578-4.955 8.578-17.33 5e-3 -22.279z" clip-path="url(#clipPath514)" fill="#d9e2ff"/>
 <path d="m268.82 79.306h-142.69v22.096h142.69z" clip-path="url(#clipPath508)" fill="#d9e2ff"/>
 <path d="m262.4 90.445-52.056 30.052c-7.956 4.598-17.763 4.598-25.719 0l-52.051-30.052c-4.812-2.776-6.924-7.8943-6.338-12.722 0.46-3.7762 2.572-7.3789 6.338-9.5528l39.365-22.729 12.686-7.3279c7.961-4.5927 17.763-4.5927 25.724 0l52.051 30.057c8.573 4.9499 8.573 17.325 0 22.275z" clip-path="url(#clipPath502)" fill="#ebf1ff"/>
 <path d="m262.4 68.171-52.056-30.052c-7.96-4.5927-17.763-4.5927-25.719 0l-52.055 30.057c-8.573 4.9499-8.573 17.325 0 22.275l52.05 30.051c7.956 4.593 17.764 4.593 25.719 0l52.056-30.051c8.578-4.955 8.578-17.33 5e-3 -22.28z" clip-path="url(#clipPath496)" stroke="#ffffff" stroke-miterlimit="10" stroke-width=".5103"/>
 <path d="m179.99 33.986-31.408-18.131c-4.802-2.771-10.717-2.771-15.519 0l-31.409 18.131c-5.1741 2.9853-5.1741 10.451 0 13.441l31.404 18.131c4.802 2.7709 10.717 2.7709 15.518 0l31.409-18.131c5.175-2.9903 5.175-10.456 5e-3 -13.441z" clip-path="url(#clipPath490)" stroke="#c91540" stroke-miterlimit="10" stroke-width="3"/>
 <path d="m179.99 63.532-31.409 18.136c-4.801 2.7709-10.716 2.7709-15.518 0l-6.828-3.9446c0.46-3.7763 2.572-7.379 6.338-9.5529l39.365-22.729 8.052 4.6488c5.175 2.9904 5.175 10.456 0 13.441z" clip-path="url(#clipPath484)" fill="#b2bfe8" opacity=".2"/>
 <path d="m179.99 33.802-31.408-18.136c-4.802-2.7709-10.717-2.7709-15.519 0l-31.409 18.136c-5.1741 2.9852-5.1741 10.451 0 13.441l31.404 18.131c4.802 2.7709 10.717 2.7709 15.518 0l31.409-18.131c5.175-2.9904 5.175-10.456 5e-3 -13.441z" clip-path="url(#clipPath478)" fill="#d9e2ff"/>
 <path d="m183.87 27.189h-86.093v13.334h86.093z" clip-path="url(#clipPath472)" fill="#d9e2ff"/>
 <path d="m179.99 33.904-31.408 18.136c-4.802 2.771-10.717 2.771-15.519 0l-31.409-18.136c-5.1741-2.9853-5.1741-10.451 0-13.441l31.409-18.131c4.802-2.7709 10.717-2.7709 15.519 0l31.403 18.131c2.486 1.4339 3.777 3.9089 3.874 6.4144 0.107 2.7199-1.184 5.4756-3.869 7.0269z" clip-path="url(#clipPath466)" fill="#ebf1ff"/>
 <path d="m179.99 20.468-31.408-18.136c-4.802-2.7709-10.717-2.7709-15.519 0l-31.409 18.136c-5.1741 2.9852-5.1741 10.451 0 13.441l31.404 18.131c4.802 2.771 10.717 2.771 15.518 0l31.409-18.131c5.175-2.9904 5.175-10.456 5e-3 -13.441z" clip-path="url(#clipPath460)" stroke="#ffffff" stroke-miterlimit="10" stroke-width=".5103"/>
 <path d="m152.66 359.85-58.124-33.557c-8.8843-5.129-19.835-5.129-28.72 0l-58.123 33.557c-9.5732 5.527-9.5732 19.346 0 24.872l58.123 33.557c8.8843 5.129 19.835 5.129 28.72 0l58.129-33.557c9.568-5.526 9.568-19.345-5e-3 -24.872z" clip-path="url(#clipPath454)" stroke="#c91540" stroke-miterlimit="10" stroke-width="3"/>
 <path d="m152.66 389.66-58.123-33.557c-8.8844-5.128-19.835-5.128-28.72 0l-58.128 33.557c-9.5732 5.527-9.5732 19.346 0 24.872l58.123 33.558c8.8843 5.128 19.835 5.128 28.72 0l58.128-33.558c9.573-5.526 9.573-19.345 0-24.872z" clip-path="url(#clipPath448)" fill="#b2bfe8" opacity=".2"/>
 <path transform="matrix(.89229 0 0 .89229 337.93 -187.53)" d="m152.66 389.66-58.123-33.557c-8.8844-5.128-19.835-5.128-28.72 0l-58.128 33.557c-9.5732 5.527-9.5732 19.346 0 24.872l58.123 33.558c8.8843 5.128 19.835 5.128 28.72 0l58.128-33.558c9.573-5.526 9.573-19.345 0-24.872z" clip-path="url(#clipPath448-8)" fill="#b2bfe8" opacity=".2" stroke-width="1.1207"/>
 <path d="m152.66 359.51-58.124-33.558c-8.8843-5.128-19.835-5.128-28.72 0l-58.123 33.558c-9.5732 5.526-9.5732 19.345 0 24.872l58.123 33.557c8.8843 5.129 19.835 5.129 28.72 0l58.129-33.557c9.568-5.527 9.568-19.346-5e-3 -24.872z" clip-path="url(#clipPath442)" fill="#d9e2ff"/>
 <path d="m159.84 347.27h-159.33v24.673h159.33z" clip-path="url(#clipPath436)" fill="#d9e2ff"/>
 <path d="m152.66 359.7-58.128 33.563c-8.8843 5.128-19.835 5.128-28.72 0l-58.123-33.563c-9.5732-5.526-9.5732-19.345 0-24.872l58.128-33.557c8.8843-5.134 19.835-5.134 28.72 0l12.65 7.302 45.478 26.255c4.603 2.654 6.991 7.231 7.17 11.875 0.188 5.021-2.205 10.129-7.175 12.997z" clip-path="url(#clipPath430)" fill="#ebf1ff"/>
 <path d="m152.66 334.83-58.124-33.557c-8.8843-5.129-19.835-5.129-28.72 0l-58.123 33.557c-9.5732 5.526-9.5732 19.345 0 24.872l58.123 33.557c8.8843 5.129 19.835 5.129 28.72 0l58.129-33.557c9.568-5.527 9.568-19.346-5e-3 -24.872z" clip-path="url(#clipPath424)" stroke="#ffffff" stroke-miterlimit="10" stroke-width=".5103"/>
 <defs>
  <clipPath id="clipPath424">
   <rect width="507.84" height="490.76" fill="#ffffff"/>
  </clipPath>
  <clipPath id="clipPath430">
   <rect width="507.84" height="490.76" fill="#ffffff"/>
  </clipPath>
  <clipPath id="clipPath436">
   <rect width="507.84" height="490.76" fill="#ffffff"/>
  </clipPath>
  <clipPath id="clipPath442">
   <rect width="507.84" height="490.76" fill="#ffffff"/>
  </clipPath>
  <clipPath id="clipPath448">
   <rect width="507.84" height="490.76" fill="#ffffff"/>
  </clipPath>
  <clipPath id="clipPath454">
   <rect width="507.84" height="490.76" fill="#ffffff"/>
  </clipPath>
  <clipPath id="clipPath460">
   <rect width="507.84" height="490.76" fill="#ffffff"/>
  </clipPath>
  <clipPath id="clipPath466">
   <rect width="507.84" height="490.76" fill="#ffffff"/>
  </clipPath>
  <clipPath id="clipPath472">
   <rect width="507.84" height="490.76" fill="#ffffff"/>
  </clipPath>
  <clipPath id="clipPath478">
   <rect width="507.84" height="490.76" fill="#ffffff"/>
  </clipPath>
  <clipPath id="clipPath484">
   <rect width="507.84" height="490.76" fill="#ffffff"/>
  </clipPath>
  <clipPath id="clipPath490">
   <rect width="507.84" height="490.76" fill="#ffffff"/>
  </clipPath>
  <clipPath id="clipPath496">
   <rect width="507.84" height="490.76" fill="#ffffff"/>
  </clipPath>
  <clipPath id="clipPath502">
   <rect width="507.84" height="490.76" fill="#ffffff"/>
  </clipPath>
  <clipPath id="clipPath508">
   <rect width="507.84" height="490.76" fill="#ffffff"/>
  </clipPath>
  <clipPath id="clipPath514">
   <rect width="507.84" height="490.76" fill="#ffffff"/>
  </clipPath>
  <clipPath id="clipPath520">
   <rect width="507.84" height="490.76" fill="#ffffff"/>
  </clipPath>
  <clipPath id="clipPath526">
   <rect width="507.84" height="490.76" fill="#ffffff"/>
  </clipPath>
  <clipPath id="clipPath556">
   <rect width="507.84" height="490.76" fill="#ffffff"/>
  </clipPath>
  <clipPath id="clipPath562">
   <rect width="507.84" height="490.76" fill="#ffffff"/>
  </clipPath>
  <clipPath id="clipPath568">
   <rect width="507.84" height="490.76" fill="#ffffff"/>
  </clipPath>
  <clipPath id="clipPath574">
   <rect width="507.84" height="490.76" fill="#ffffff"/>
  </clipPath>
  <clipPath id="clipPath580">
   <rect width="507.84" height="490.76" fill="#ffffff"/>
  </clipPath>
  <clipPath id="clipPath586">
   <rect width="507.84" height="490.76" fill="#ffffff"/>
  </clipPath>
  <clipPath id="clipPath604">
   <rect width="507.84" height="490.76" fill="#ffffff"/>
  </clipPath>
  <clipPath id="clipPath610">
   <rect width="507.84" height="490.76" fill="#ffffff"/>
  </clipPath>
  <clipPath id="clipPath616">
   <rect width="507.84" height="490.76" fill="#ffffff"/>
  </clipPath>
  <clipPath id="clipPath628">
   <rect width="507.84" height="490.76" fill="#ffffff"/>
  </clipPath>
  <clipPath id="clipPath634">
   <rect width="507.84" height="490.76" fill="#ffffff"/>
  </clipPath>
  <clipPath id="clipPath640">
   <rect width="507.84" height="490.76" fill="#ffffff"/>
  </clipPath>
  <clipPath id="clipPath646">
   <rect width="507.84" height="490.76" fill="#ffffff"/>
  </clipPath>
  <clipPath id="clipPath652">
   <rect width="507.84" height="490.76" fill="#ffffff"/>
  </clipPath>
  <clipPath id="clipPath658">
   <rect width="507.84" height="490.76" fill="#ffffff"/>
  </clipPath>
  <clipPath id="clipPath664">
   <rect width="507.84" height="490.76" fill="#ffffff"/>
  </clipPath>
  <clipPath id="clipPath670">
   <rect width="507.84" height="490.76" fill="#ffffff"/>
  </clipPath>
  <clipPath id="clipPath526-8">
   <rect width="507.84" height="490.76" fill="#ffffff"/>
  </clipPath>
  <clipPath id="clipPath514-9">
   <rect width="507.84" height="490.76" fill="#ffffff"/>
  </clipPath>
  <clipPath id="clipPath508-0">
   <rect width="507.84" height="490.76" fill="#ffffff"/>
  </clipPath>
  <clipPath id="clipPath502-5">
   <rect width="507.84" height="490.76" fill="#ffffff"/>
  </clipPath>
  <clipPath id="clipPath496-6">
   <rect width="507.84" height="490.76" fill="#ffffff"/>
  </clipPath>
  <clipPath id="clipPath448-8">
   <rect width="507.84" height="490.76" fill="#ffffff"/>
  </clipPath>
 </defs>
 <path transform="matrix(.89229 0 0 .89229 233.26 53.434)" d="m262.4 90.572-52.056-30.052c-7.96-4.5927-17.763-4.5927-25.719 0l-52.055 30.057c-8.573 4.9499-8.573 17.325 0 22.275l52.05 30.052c7.956 4.592 17.764 4.592 25.719 0l52.056-30.052c8.578-4.955 8.578-17.33 5e-3 -22.28z" clip-path="url(#clipPath526-8)" stroke="#c91540" stroke-miterlimit="10" stroke-width="3.3622"/>
 <g stroke-width="1.1207">
  <path transform="matrix(.89229 0 0 .89229 233.26 53.434)" d="m262.4 90.267-52.056-30.052c-7.96-4.5927-17.763-4.5927-25.719 0l-52.055 30.057c-8.573 4.9499-8.573 17.324 0 22.274l52.05 30.052c7.956 4.593 17.764 4.593 25.719 0l52.056-30.052c8.578-4.955 8.578-17.33 5e-3 -22.279z" clip-path="url(#clipPath514-9)" fill="#d9e2ff"/>
  <path transform="matrix(.89229 0 0 .89229 233.26 53.434)" d="m268.82 79.306h-142.69v22.096h142.69z" clip-path="url(#clipPath508-0)" fill="#d9e2ff"/>
  <path transform="matrix(.89229 0 0 .89229 233.26 53.434)" d="m262.4 90.445-52.056 30.052c-7.956 4.598-17.763 4.598-25.719 0l-52.051-30.052c-4.812-2.776-6.924-7.8943-6.338-12.722 0.46-3.7762 2.572-7.3789 6.338-9.5528l39.365-22.729 12.686-7.3279c7.961-4.5927 17.763-4.5927 25.724 0l52.051 30.057c8.573 4.9499 8.573 17.325 0 22.275z" clip-path="url(#clipPath502-5)" fill="#ebf1ff"/>
 </g>
 <path transform="matrix(.89229 0 0 .89229 233.26 53.434)" d="m262.4 68.171-52.056-30.052c-7.96-4.5927-17.763-4.5927-25.719 0l-52.055 30.057c-8.573 4.9499-8.573 17.325 0 22.275l52.05 30.051c7.956 4.593 17.764 4.593 25.719 0l52.056-30.051c8.578-4.955 8.578-17.33 5e-3 -22.28z" clip-path="url(#clipPath496-6)" stroke="#ffffff" stroke-miterlimit="10" stroke-width=".5719"/>
</svg>
