<svg width="16" height="16" viewBox="0 0 16 16" fill="none" xmlns="http://www.w3.org/2000/svg">
<path fill-rule="evenodd" clip-rule="evenodd" d="M0.5 1C0.223858 1 0 1.22386 0 1.5C0 1.77614 0.223858 2 0.5 2H15.5C15.7761 2 16 1.77614 16 1.5C16 1.22386 15.7761 1 15.5 1H0.5ZM0.5 5C0.223858 5 0 5.22386 0 5.5C0 5.77614 0.223858 6 0.5 6H5.5C5.77614 6 6 5.77614 6 5.5C6 5.22386 5.77614 5 5.5 5H0.5ZM0 9.5C0 9.22386 0.223858 9 0.5 9H5.5C5.77614 9 6 9.22386 6 9.5C6 9.77614 5.77614 10 5.5 10H0.5C0.223858 10 0 9.77614 0 9.5ZM0.5 13C0.223858 13 0 13.2239 0 13.5C0 13.7761 0.223858 14 0.5 14H15.5C15.7761 14 16 13.7761 16 13.5C16 13.2239 15.7761 13 15.5 13H0.5ZM11 5C9.89543 5 9 5.89543 9 7C9 8.10457 9.89543 9 11 9C12.1046 9 13 8.10457 13 7C13 5.89543 12.1046 5 11 5ZM8 7C8 5.34315 9.34315 4 11 4C12.6569 4 14 5.34315 14 7C14 7.6479 13.7946 8.24783 13.4454 8.73823L15.3536 10.6465C15.5489 10.8417 15.5489 11.1583 15.3536 11.3536C15.1584 11.5488 14.8418 11.5488 14.6465 11.3536L12.7383 9.44535C12.2479 9.79459 11.6479 10 11 10C9.34315 10 8 8.65685 8 7Z" fill="#DC244C"/>
</svg>
