<svg width="16" height="16" viewBox="0 0 16 16" fill="none" xmlns="http://www.w3.org/2000/svg">
<path fill-rule="evenodd" clip-rule="evenodd" d="M1 1.5C1 1.22386 0.776142 1 0.5 1C0.223858 1 0 1.22386 0 1.5V14.5C0 14.7761 0.223858 15 0.5 15H15.5C15.7761 15 16 14.7761 16 14.5C16 14.2239 15.7761 14 15.5 14H1V1.5ZM2.5 13C4.75183 13 6.23306 12.2632 7.28906 11.1206C8.30379 10.0227 8.8953 8.57665 9.4451 7.23252L9.4451 7.23252L9.46277 7.18932C10.0329 5.79559 10.5647 4.51095 11.4453 3.55812C12.2956 2.63818 13.5018 2 15.5 2C15.7761 2 16 1.77614 16 1.5C16 1.22386 15.7761 1 15.5 1C13.2482 1 11.7669 1.73682 10.7109 2.87938C9.69621 3.97728 9.1047 5.42336 8.5549 6.76748L8.53723 6.81068C7.96707 8.20441 7.43533 9.48905 6.55469 10.4419C5.70444 11.3618 4.49817 12 2.5 12C2.22386 12 2 12.2239 2 12.5C2 12.7761 2.22386 13 2.5 13Z" fill="#DC244C"/>
</svg>
