<svg width="16" height="16" viewBox="0 0 16 16" fill="none" xmlns="http://www.w3.org/2000/svg">
<g clip-path="url(#clip0_7453_33494)">
<path d="M8.33333 4.66665V15M8.33333 4.66665C7 4.66665 5.66667 3.66665 5.66667 3.66665C5.86667 2.33331 7 1.33331 8.33333 1.33331C9.66667 1.33331 10.8 2.33331 11 3.66665C11 3.66665 9.66667 4.66665 8.33333 4.66665ZM8.33333 15C11.2667 15 13.6667 12.2622 13.6667 8.95131C13.6667 6.65915 12.6 4.68537 10.9333 3.66665M8.33333 15C5.4 15 3 12.2622 3 8.95131C3 6.65915 4.13333 4.68537 5.73333 3.66665M3 8.99998H1M15.6667 8.99998H13.6667M3 3.66665L4.33333 4.99998L4 4.66665M13.6667 14.3333L12.3333 13L12.5715 13.238M3 14.3333L4.33333 13L4.24201 13.0913M13.6667 3.66665L12.3333 4.99998L12.5431 4.79025" stroke="#DC244C" stroke-linecap="round" stroke-linejoin="round"/>
</g>
<defs>
<clipPath id="clip0_7453_33494">
<rect width="16" height="16" fill="white"/>
</clipPath>
</defs>
</svg>
