<svg width="16" height="16" viewBox="0 0 16 16" fill="none" xmlns="http://www.w3.org/2000/svg">
<g clip-path="url(#clip0_1584_9090)">
<path fill-rule="evenodd" clip-rule="evenodd" d="M7.2842 1.03557C8.91326 0.868195 10.5494 1.27727 11.908 2.19163C12.9861 2.91717 13.8352 3.92441 14.3689 5.09496L10.2827 3.72781C10.0208 3.64019 9.7375 3.78145 9.64988 4.04333C9.56227 4.3052 9.70353 4.58852 9.9654 4.67614L15.0524 6.37814C15.2057 6.42942 15.3743 6.40344 15.505 6.30841C15.6358 6.21337 15.7125 6.061 15.711 5.89938L15.662 0.564378C15.6595 0.288248 15.4336 0.0664555 15.1575 0.0689917C14.8813 0.0715279 14.6595 0.297432 14.6621 0.573563L14.69 3.61262C14.1102 2.72836 13.3566 1.96115 12.4664 1.36201C10.9137 0.317039 9.04377 -0.150479 7.182 0.0408105C5.32022 0.2321 3.58444 1.07009 2.27669 2.40896C0.968932 3.74784 0.171989 5.50284 0.024529 7.3686C0.00277196 7.64389 0.208296 7.88468 0.48358 7.90644C0.758864 7.9282 0.999663 7.72267 1.02142 7.44739C1.15045 5.81485 1.84777 4.27922 2.99206 3.10771C4.13634 1.93619 5.65515 1.20295 7.2842 1.03557ZM0.4951 9.69157C0.625839 9.59654 0.794454 9.57056 0.947733 9.62185L6.03473 11.3238C6.29661 11.4115 6.43787 11.6948 6.35025 11.9567C6.26263 12.2185 5.97932 12.3598 5.71744 12.2722L1.63084 10.9049C2.16453 12.0755 3.01368 13.0828 4.09177 13.8083C5.45037 14.7227 7.08654 15.1318 8.7156 14.9644C10.3447 14.797 11.8635 14.0638 13.0077 12.8923C14.152 11.7208 14.8494 10.1851 14.9784 8.55259C15.0001 8.2773 15.2409 8.07178 15.5162 8.09354C15.7915 8.11529 15.997 8.35609 15.9753 8.63138C15.8278 10.4971 15.0309 12.2521 13.7231 13.591C12.4154 14.9299 10.6796 15.7679 8.81781 15.9592C6.95603 16.1505 5.08611 15.6829 3.53343 14.638C2.64338 14.0389 1.88986 13.2719 1.31016 12.3879L1.33807 15.4264C1.3406 15.7025 1.11881 15.9285 0.84268 15.931C0.566549 15.9335 0.340645 15.7117 0.338109 15.4356L0.289109 10.1006C0.287625 9.93898 0.36436 9.7866 0.4951 9.69157Z" fill="#DC244C"/>
</g>
<defs>
<clipPath id="clip0_1584_9090">
<rect width="16" height="16" fill="white"/>
</clipPath>
</defs>
</svg>
