<svg width="16" height="16" viewBox="0 0 16 16" fill="none" xmlns="http://www.w3.org/2000/svg">
<g clip-path="url(#clip0_10183_44707)">
<path d="M10 14L12.6667 14" stroke="#DC244C" stroke-linecap="round" stroke-linejoin="round"/>
<path d="M8 12.6667L8 9.99999" stroke="#DC244C" stroke-linecap="round" stroke-linejoin="round"/>
<path d="M4 14L6 14" stroke="#DC244C" stroke-linecap="round" stroke-linejoin="round"/>
<path d="M8.00008 15.3333C8.73646 15.3333 9.33341 14.7364 9.33341 14C9.33341 13.2636 8.73646 12.6667 8.00008 12.6667C7.2637 12.6667 6.66675 13.2636 6.66675 14C6.66675 14.7364 7.2637 15.3333 8.00008 15.3333Z" stroke="#DC244C" stroke-linecap="round" stroke-linejoin="round"/>
<path d="M12.6667 4.66667C12.6487 4.66667 12.6321 4.67134 12.6147 4.67201C12.4563 3.56097 11.9024 2.54438 11.0547 1.80894C10.207 1.07351 9.12236 0.66861 8.00008 0.66861C6.87781 0.66861 5.79321 1.07351 4.94548 1.80894C4.09776 2.54438 3.54382 3.56097 3.38541 4.67201C3.36808 4.67134 3.35141 4.66667 3.33341 4.66667C2.62617 4.66667 1.94789 4.94762 1.4478 5.44772C0.9477 5.94782 0.666748 6.6261 0.666748 7.33334C0.666748 8.04058 0.9477 8.71886 1.4478 9.21896C1.94789 9.71906 2.62617 10 3.33341 10H12.6667C13.374 10 14.0523 9.71906 14.5524 9.21896C15.0525 8.71886 15.3334 8.04058 15.3334 7.33334C15.3334 6.6261 15.0525 5.94782 14.5524 5.44772C14.0523 4.94762 13.374 4.66667 12.6667 4.66667Z" stroke="#DC244C" stroke-linecap="round" stroke-linejoin="round"/>
<rect x="0.5" y="12.5" width="3" height="3" rx="0.833333" stroke="#DC244C"/>
<rect x="12.5" y="12.5" width="3" height="3" rx="0.833333" stroke="#DC244C"/>
</g>
<defs>
<clipPath id="clip0_10183_44707">
<rect width="16" height="16" fill="white"/>
</clipPath>
</defs>
</svg>
