<svg width="16" height="16" viewBox="0 0 16 16" fill="none" xmlns="http://www.w3.org/2000/svg">
<g clip-path="url(#clip0_1518_11412)">
<path fill-rule="evenodd" clip-rule="evenodd" d="M2.19727 5.02086C2.51573 2.31996 4.85384 0.166687 7.66675 0.166687C10.4542 0.166687 12.7065 2.21787 13.1156 4.86524C14.6476 5.08466 15.8334 6.40952 15.8334 8.00002C15.8334 9.49334 14.8123 10.7657 13.4479 11.0867C13.1791 11.15 12.91 10.9833 12.8467 10.7145C12.7835 10.4457 12.9501 10.1766 13.2189 10.1133C14.1212 9.90101 14.8334 9.04004 14.8334 8.00002C14.8334 6.8095 13.8573 5.83335 12.6667 5.83335C12.4055 5.83335 12.1883 5.6322 12.1682 5.3717C11.9876 3.02351 10.0635 1.16669 7.66675 1.16669C5.26804 1.16669 3.28588 3.0897 3.16609 5.42563C3.1547 5.64783 2.99785 5.83577 2.78127 5.88673C1.87898 6.09903 1.16675 6.96 1.16675 8.00002C1.16675 9.02032 1.86276 9.84238 2.80783 10.1203C3.07275 10.1983 3.22435 10.4762 3.14643 10.7411C3.06851 11.006 2.79059 11.1576 2.52566 11.0797C1.20407 10.691 0.166748 9.51305 0.166748 8.00002C0.166748 6.63934 1.01451 5.46211 2.19727 5.02086ZM4.83325 9.33331C4.83325 9.05717 5.05711 8.83331 5.33325 8.83331H9.45946L8.9797 8.35355C8.78444 8.15829 8.78444 7.84171 8.9797 7.64645C9.17496 7.45118 9.49154 7.45118 9.68681 7.64645L11.0174 8.97704C11.0272 8.98665 11.0365 8.99667 11.0455 9.00706C11.0783 9.04503 11.1044 9.08676 11.1238 9.13073C11.1513 9.19265 11.1666 9.2612 11.1666 9.33331C11.1666 9.39788 11.1543 9.45958 11.1321 9.51624C11.1077 9.5784 11.0704 9.63666 11.0201 9.68689L9.68681 11.0202C9.49154 11.2155 9.17496 11.2155 8.9797 11.0202C8.78444 10.825 8.78444 10.5084 8.9797 10.3131L9.4595 9.83331H5.33325C5.05711 9.83331 4.83325 9.60946 4.83325 9.33331ZM4.876 13.1307C4.84852 13.1927 4.83325 13.2612 4.83325 13.3333C4.83325 13.3425 4.8335 13.3516 4.83399 13.3607C4.83693 13.4153 4.84866 13.4676 4.86777 13.5162C4.89216 13.5784 4.92947 13.6367 4.9797 13.6869L6.31303 15.0202C6.50829 15.2155 6.82488 15.2155 7.02014 15.0202C7.2154 14.825 7.2154 14.5084 7.02014 14.3131L6.54034 13.8333H10.6666C10.9427 13.8333 11.1666 13.6095 11.1666 13.3333C11.1666 13.0572 10.9427 12.8333 10.6666 12.8333H6.54038L7.02014 12.3536C7.2154 12.1583 7.2154 11.8417 7.02014 11.6464C6.82488 11.4512 6.50829 11.4512 6.31303 11.6464L4.98243 12.9771C4.97342 12.9859 4.96475 12.9951 4.95644 13.0046C4.92269 13.0433 4.89588 13.0858 4.876 13.1307Z" fill="#DC244C"/>
</g>
<defs>
<clipPath id="clip0_1518_11412">
<rect width="16" height="16" fill="white"/>
</clipPath>
</defs>
</svg>
