<svg width="16" height="16" viewBox="0 0 16 16" fill="none" xmlns="http://www.w3.org/2000/svg">
<path fill-rule="evenodd" clip-rule="evenodd" d="M2.19727 5.02086C2.51573 2.31996 4.85384 0.166687 7.66675 0.166687C10.4542 0.166687 12.7065 2.21787 13.1156 4.86524C14.6476 5.08466 15.8334 6.40952 15.8334 8.00002C15.8334 9.49334 14.8123 10.7657 13.4479 11.0867C13.1791 11.15 12.91 10.9833 12.8467 10.7145C12.7835 10.4457 12.9501 10.1766 13.2189 10.1133C14.1212 9.90101 14.8334 9.04004 14.8334 8.00002C14.8334 6.8095 13.8573 5.83335 12.6667 5.83335C12.4055 5.83335 12.1883 5.6322 12.1682 5.3717C11.9876 3.02351 10.0635 1.16669 7.66675 1.16669C5.26804 1.16669 3.28588 3.0897 3.16609 5.42563C3.1547 5.64783 2.99785 5.83577 2.78127 5.88673C1.87898 6.09903 1.16675 6.96 1.16675 8.00002C1.16675 9.02032 1.86276 9.84238 2.80783 10.1203C3.07275 10.1983 3.22435 10.4762 3.14643 10.7411C3.06851 11.006 2.79059 11.1576 2.52566 11.0797C1.20407 10.691 0.166748 9.51305 0.166748 8.00002C0.166748 6.63934 1.01451 5.46211 2.19727 5.02086ZM4.83325 10.4444C4.83325 10.1683 5.05711 9.9444 5.33325 9.9444H6.1665V8.66665C6.1665 7.65406 6.98725 6.83331 7.99984 6.83331C9.01242 6.83331 9.83317 7.65406 9.83317 8.66665V9.9444H10.6666C10.9427 9.9444 11.1666 10.1683 11.1666 10.4444V14.4444C11.1666 14.7205 10.9427 14.9444 10.6666 14.9444H5.33325C5.05711 14.9444 4.83325 14.7205 4.83325 14.4444V10.4444ZM9.32786 10.9444C9.32963 10.9444 9.3314 10.9444 9.33317 10.9444C9.33494 10.9444 9.33672 10.9444 9.33848 10.9444H10.1666V13.9444H5.83325V10.9444H6.66119C6.66296 10.9444 6.66473 10.9444 6.6665 10.9444C6.66828 10.9444 6.67005 10.9444 6.67182 10.9444H9.32786ZM8.83317 9.9444V8.66665C8.83317 8.20634 8.46014 7.83331 7.99984 7.83331C7.53954 7.83331 7.1665 8.20634 7.1665 8.66665V9.9444H8.83317Z" fill="#DC244C"/>
</svg>
