<svg width="16" height="16" viewBox="0 0 16 16" fill="none" xmlns="http://www.w3.org/2000/svg">
<path fill-rule="evenodd" clip-rule="evenodd" d="M2 3C2 2.84416 2.08019 2.6396 2.34719 2.39681C2.61433 2.15389 3.02877 1.91218 3.5833 1.69891C4.68901 1.27363 6.2504 1 8 1C9.7496 1 11.311 1.27363 12.4167 1.69891C12.9712 1.91218 13.3857 2.15389 13.6528 2.39681C13.9198 2.6396 14 2.84416 14 3C14 3.15584 13.9198 3.3604 13.6528 3.60319C13.3857 3.84611 12.9712 4.08782 12.4167 4.30109C11.311 4.72637 9.7496 5 8 5C6.2504 5 4.68901 4.72637 3.5833 4.30109C3.02877 4.08782 2.61433 3.84611 2.34719 3.60319C2.08019 3.3604 2 3.15584 2 3ZM8 0C6.15975 0 4.47114 0.286013 3.22432 0.76556C2.60257 1.00469 2.06511 1.30169 1.67442 1.65696C1.28358 2.01237 1 2.46548 1 3C1 3.53452 1.28358 3.98763 1.67442 4.34304C2.06511 4.69831 2.60257 4.99531 3.22432 5.23444C4.47114 5.71399 6.15975 6 8 6C9.84025 6 11.5289 5.71399 12.7757 5.23444C13.3974 4.99531 13.9349 4.69831 14.3256 4.34304C14.7164 3.98763 15 3.53452 15 3C15 2.46548 14.7164 2.01237 14.3256 1.65696C13.9349 1.30169 13.3974 1.00469 12.7757 0.76556C11.5289 0.286013 9.84025 0 8 0ZM2 6.5C2 6.22386 1.77614 6 1.5 6C1.22386 6 1 6.22386 1 6.5V13C1 13.5345 1.28353 13.9877 1.67438 14.3431C2.06508 14.6984 2.60253 14.9954 3.22427 15.2346C4.47108 15.7141 6.15969 16 8 16C9.84031 16 11.5289 15.7141 12.7757 15.2346C13.3975 14.9954 13.9349 14.6984 14.3256 14.3431C14.7165 13.9877 15 13.5345 15 13V6.5C15 6.22386 14.7761 6 14.5 6C14.2239 6 14 6.22386 14 6.5V13C14 13.1559 13.9198 13.3605 13.6528 13.6033C13.3857 13.8462 12.9713 14.0879 12.4168 14.3012C11.3111 14.7264 9.74969 15 8 15C6.25031 15 4.68892 14.7264 3.58323 14.3012C3.02872 14.0879 2.6143 13.8462 2.34718 13.6033C2.08022 13.3605 2 13.1559 2 13V6.5Z" fill="#DC244C"/>
<path d="M5 9C5.55228 9 6 8.55228 6 8C6 7.44772 5.55228 7 5 7C4.44772 7 4 7.44772 4 8C4 8.55228 4.44772 9 5 9Z" fill="#DC244C"/>
<path d="M11 9C11.5523 9 12 8.55228 12 8C12 7.44772 11.5523 7 11 7C10.4477 7 10 7.44772 10 8C10 8.55228 10.4477 9 11 9Z" fill="#DC244C"/>
<path d="M8 12C8.55228 12 9 11.5523 9 11C9 10.4477 8.55228 10 8 10C7.44772 10 7 10.4477 7 11C7 11.5523 7.44772 12 8 12Z" fill="#DC244C"/>
<path d="M4 13C4.55228 13 5 12.5523 5 12C5 11.4477 4.55228 11 4 11C3.44772 11 3 11.4477 3 12C3 12.5523 3.44772 13 4 13Z" fill="#DC244C"/>
<path d="M12 13C12.5523 13 13 12.5523 13 12C13 11.4477 12.5523 11 12 11C11.4477 11 11 11.4477 11 12C11 12.5523 11.4477 13 12 13Z" fill="#DC244C"/>
</svg>
