<svg width="16" height="16" viewBox="0 0 16 16" fill="none" xmlns="http://www.w3.org/2000/svg">
<g clip-path="url(#clip0_1974_23053)">
<path d="M8.00001 1.00003C6.1435 1.00003 4.36302 1.73753 3.05026 3.05028C1.73751 4.36304 1.00001 6.14351 1.00001 8.00003C0.997105 9.61182 1.53549 11.1779 2.52886 12.4472C3.52222 13.7165 4.91302 14.6155 6.47827 15V13.1739H5.86958C4.27479 13.1739 3.71479 10.7392 2.8261 10.7392C4.52436 10.7392 4.85305 11.9566 5.86958 11.9566C5.95211 11.9676 6.03608 11.9594 6.11495 11.9327C6.19383 11.906 6.26549 11.8615 6.32437 11.8026C6.38325 11.7438 6.42776 11.6721 6.45446 11.5932C6.48115 11.5144 6.4893 11.4304 6.47827 11.3479V11.1348C4.70697 10.6357 3.43479 9.30873 3.43479 7.69568C3.44904 6.85652 3.79222 6.05651 4.39045 5.46786C4.23796 5.13878 4.18162 4.77329 4.22793 4.41356C4.27425 4.05384 4.42132 3.71454 4.65219 3.43481C5.20903 3.60198 5.70984 3.91762 6.10088 4.34786C7.32777 3.90229 8.67226 3.90229 9.89914 4.34786C10.2902 3.91762 10.791 3.60198 11.3478 3.43481C11.5787 3.71454 11.7258 4.05384 11.7721 4.41356C11.8184 4.77329 11.7621 5.13878 11.6096 5.46786C12.2078 6.05651 12.551 6.85652 12.5652 7.69568C12.5652 9.36351 11.1713 10.7392 9.2661 11.2018C9.46237 11.6283 9.55019 12.0966 9.52175 12.5652V15C11.087 14.6155 12.4778 13.7165 13.4712 12.4472C14.4645 11.1779 15.0029 9.61182 15 8.00003C15 6.14351 14.2625 4.36304 12.9498 3.05028C11.637 1.73753 9.85653 1.00003 8.00001 1.00003Z" stroke="#DC244C" stroke-linecap="round" stroke-linejoin="round"/>
</g>
<defs>
<clipPath id="clip0_1974_23053">
<rect width="16" height="16" fill="white"/>
</clipPath>
</defs>
</svg>
