<svg width="16" height="16" viewBox="0 0 16 16" fill="none" xmlns="http://www.w3.org/2000/svg">
<path d="M7.33333 9.33332H8.66667C9.02029 9.33332 9.35943 9.19285 9.60948 8.9428C9.85952 8.69275 10 8.35361 10 7.99999C10 7.64637 9.85952 7.30723 9.60948 7.05718C9.35943 6.80713 9.02029 6.66666 8.66667 6.66666H6.66667C6.26667 6.66666 5.93333 6.79999 5.73333 7.06666L2 10.6667" stroke="#DC244C" stroke-linecap="round" stroke-linejoin="round"/>
<path d="M4.6665 13.3333L5.73317 12.4C5.93317 12.1333 6.2665 12 6.6665 12H9.33317C10.0665 12 10.7332 11.7333 11.1998 11.2L14.2665 8.26667C14.5238 8.02356 14.6739 7.68821 14.6839 7.33439C14.6939 6.98057 14.563 6.63727 14.3198 6.38001C14.0767 6.12275 13.7414 5.9726 13.3875 5.9626C13.0337 5.9526 12.6904 6.08356 12.4332 6.32667L9.63317 8.92668" stroke="#DC244C" stroke-linecap="round" stroke-linejoin="round"/>
<path d="M1.3335 10L5.3335 14" stroke="#DC244C" stroke-linecap="round" stroke-linejoin="round"/>
<path d="M13.0003 5.66667C13.4669 5.2 14.0003 4.6 14.0003 3.86667C14.0469 3.45929 13.9545 3.0481 13.7382 2.69976C13.5219 2.35141 13.1943 2.08632 12.8085 1.94743C12.4227 1.80854 12.0013 1.804 11.6126 1.93454C11.2239 2.06509 10.8907 2.32306 10.6669 2.66667C10.4289 2.34972 10.0956 2.11742 9.7159 2.00386C9.33617 1.8903 8.93003 1.90146 8.55712 2.03571C8.1842 2.16996 7.86414 2.42022 7.64393 2.74976C7.42372 3.0793 7.31495 3.47076 7.3336 3.86667C7.3336 4.66667 7.86693 5.2 8.3336 5.73333L10.6669 8L13.0003 5.66667Z" stroke="#DC244C" stroke-linecap="round" stroke-linejoin="round"/>
</svg>
