<svg width="16" height="16" viewBox="0 0 16 16" fill="none" xmlns="http://www.w3.org/2000/svg">
<g clip-path="url(#clip0_1518_11272)">
<path fill-rule="evenodd" clip-rule="evenodd" d="M2 3C2 2.44772 2.44772 2 3 2C3.55228 2 4 2.44772 4 3C4 3.55228 3.55228 4 3 4C2.44772 4 2 3.55228 2 3ZM3 1C1.89543 1 1 1.89543 1 3C1 4.10457 1.89543 5 3 5C4.10457 5 5 4.10457 5 3C5 1.89543 4.10457 1 3 1ZM1.9105 7.10141C2.09332 7.02873 2.28906 6.99416 2.48572 6.9998L2.50007 7.00001C3.20819 7.00001 3.63483 7.29643 4.20874 7.90436C4.34514 8.04885 4.48996 8.21187 4.6475 8.38921C5.15096 8.95594 5.78433 9.66891 6.68803 10.3907C6.9038 10.563 7.21842 10.5278 7.39075 10.312C7.56308 10.0963 7.52787 9.78166 7.3121 9.60932C6.48211 8.94641 5.92826 8.32339 5.43242 7.76563C5.26304 7.5751 5.10043 7.39219 4.9359 7.2179C4.29266 6.53652 3.62077 6.00226 2.50711 6.00001C2.17681 5.99152 1.84819 6.05006 1.54111 6.17213C1.23176 6.2951 0.950782 6.47994 0.715392 6.71533C0.480002 6.95072 0.295159 7.2317 0.172192 7.54105C0.0501584 7.84805 -0.00838411 8.17657 6.82493e-05 8.50677V14.5C6.82493e-05 14.7761 0.223926 15 0.500068 15H4.50007C4.77621 15 5.00007 14.7761 5.00007 14.5V10.5C5.00007 10.2239 4.77621 10 4.50007 10C4.22393 10 4.00007 10.2239 4.00007 10.5V14H1.00007V8.50001L0.999862 8.48566C0.994218 8.289 1.02879 8.09326 1.10147 7.91044C1.17414 7.72761 1.28338 7.56155 1.4225 7.42244C1.56161 7.28332 1.72767 7.17408 1.9105 7.10141ZM13.493 6.00001C13.8233 5.99152 14.1519 6.05006 14.459 6.17213C14.7683 6.2951 15.0493 6.47994 15.2847 6.71533C15.5201 6.95072 15.7049 7.2317 15.8279 7.54105C15.9499 7.84804 16.0085 8.17656 16 8.50676V14.5C16 14.7761 15.7761 15 15.5 15H11.5C11.2239 15 11 14.7761 11 14.5V10.5C11 10.2239 11.2239 10 11.5 10C11.7761 10 12 10.2239 12 10.5V14H15V8.50001L15.0002 8.48566C15.0058 8.289 14.9713 8.09326 14.8986 7.91044C14.8259 7.72761 14.7167 7.56155 14.5776 7.42244C14.4385 7.28332 14.2724 7.17408 14.0896 7.10141C13.9067 7.02873 13.711 6.99416 13.5143 6.9998L13.5 7.00001C12.7919 7.00001 12.3652 7.29643 11.7913 7.90436C11.6549 8.04883 11.5101 8.21183 11.3526 8.38914L11.3526 8.38921C10.8491 8.95594 10.2157 9.66891 9.31204 10.3907C9.09627 10.563 8.78165 10.5278 8.60932 10.312C8.43698 10.0963 8.47219 9.78166 8.68796 9.60932C9.51796 8.94641 10.0718 8.32339 10.5677 7.76563L10.5677 7.76555L10.5678 7.76541C10.7372 7.57496 10.8997 7.39212 11.0642 7.2179C11.7074 6.53652 12.3793 6.00226 13.493 6.00001ZM12 3C12 2.44772 12.4477 2 13 2C13.5523 2 14 2.44772 14 3C14 3.55228 13.5523 4 13 4C12.4477 4 12 3.55228 12 3ZM13 1C11.8954 1 11 1.89543 11 3C11 4.10457 11.8954 5 13 5C14.1046 5 15 4.10457 15 3C15 1.89543 14.1046 1 13 1Z" fill="#DC244C"/>
</g>
<defs>
<clipPath id="clip0_1518_11272">
<rect width="16" height="16" fill="white"/>
</clipPath>
</defs>
</svg>
