<svg width="16" height="16" viewBox="0 0 16 16" fill="none" xmlns="http://www.w3.org/2000/svg">
<g clip-path="url(#clip0_1518_11078)">
<path fill-rule="evenodd" clip-rule="evenodd" d="M8.24744 0.233663L7.99743 0.089325L7.74743 0.233665L1.39673 3.90031L1.14673 4.04465L1.14673 4.33333L1.14689 11.6665L1.1469 11.9552L1.39689 12.0995L7.74767 15.7662L7.99757 15.9105L8.24752 15.7663L10.2791 14.5944L10.5292 14.4501V14.1613L10.5293 11.6666L10.5293 10.8005L9.77921 11.2336L7.99764 12.2625L4.30655 10.1316V5.86934L7.99769 3.73857L11.6888 5.86934V15.3333V16.199L12.4387 15.7664L14.5984 14.5206L14.8485 14.3763L14.8485 14.0875L14.8483 4.33331L14.8483 4.04464L14.5983 3.9003L8.24744 0.233663ZM2.14674 4.62199L7.99744 1.24403L13.8483 4.622L13.8485 13.7987L12.6888 14.4677V5.58065V5.29195L12.4388 5.14762L8.24766 2.72821L7.99768 2.58391L7.74771 2.72821L3.55658 5.14762L3.30655 5.29195V5.58065V10.4203V10.709L3.55657 10.8534L7.7477 13.2729L7.99773 13.4172L8.24773 13.2728L9.52925 12.5327L9.52925 13.8725L7.99778 14.7559L2.14689 11.3778L2.14674 4.62199ZM8.24772 5.22166L7.99768 5.07728L7.74765 5.22166L5.71608 6.39479L5.46611 6.53914V6.82779V9.17309V9.46174L5.71608 9.60609L7.74765 10.7792L7.99768 10.9236L8.24772 10.7792L10.2793 9.60609L10.5293 9.46174V9.17309V6.82779V6.53914L10.2793 6.39479L8.24772 5.22166ZM7.99768 9.76885L6.46612 8.88444V7.11644L7.99768 6.23203L9.52925 7.11644V8.88444L7.99768 9.76885Z" fill="#DC244C"/>
</g>
<defs>
<clipPath id="clip0_1518_11078">
<rect width="16" height="16" fill="white"/>
</clipPath>
</defs>
</svg>
