<svg xmlns="http://www.w3.org/2000/svg" viewBox="0 0 760 420" font-family="-apple-system, BlinkMacSystemFont, 'Segoe UI', Roboto, sans-serif" font-size="13" role="img" aria-label="Recall at 16× compression — TurboQuant 2-bit vs Binary Quantization 2-bit">
<rect width="100%" height="100%" fill="#ffffff"/>
<text x="380.0" y="30" text-anchor="middle" font-size="16" font-weight="600" fill="#0F172A">Recall at 16× compression — TurboQuant 2-bit vs Binary Quantization 2-bit</text>
<line x1="56" y1="342.0" x2="736" y2="342.0" stroke="#E2E8F0" stroke-width="1"/>
<text x="48" y="346.0" text-anchor="end" fill="#64748B">0.0</text>
<line x1="56" y1="287.6" x2="736" y2="287.6" stroke="#E2E8F0" stroke-width="1"/>
<text x="48" y="291.6" text-anchor="end" fill="#64748B">0.2</text>
<line x1="56" y1="233.2" x2="736" y2="233.2" stroke="#E2E8F0" stroke-width="1"/>
<text x="48" y="237.2" text-anchor="end" fill="#64748B">0.4</text>
<line x1="56" y1="178.8" x2="736" y2="178.8" stroke="#E2E8F0" stroke-width="1"/>
<text x="48" y="182.8" text-anchor="end" fill="#64748B">0.6</text>
<line x1="56" y1="124.4" x2="736" y2="124.4" stroke="#E2E8F0" stroke-width="1"/>
<text x="48" y="128.4" text-anchor="end" fill="#64748B">0.8</text>
<line x1="56" y1="70.0" x2="736" y2="70.0" stroke="#E2E8F0" stroke-width="1"/>
<text x="48" y="74.0" text-anchor="end" fill="#64748B">1.0</text>
<line x1="56" y1="342" x2="736" y2="342" stroke="#0F172A" stroke-width="1.2"/>
<rect x="74.0" y="118.2" width="64.0" height="223.8" fill="#DC244C" rx="2"/>
<text x="106.0" y="114.2" text-anchor="middle" font-size="11" fill="#0F172A" font-weight="500">0.823</text>
<rect x="144.0" y="158.2" width="64.0" height="183.8" fill="#94A3B8" rx="2"/>
<text x="176.0" y="154.2" text-anchor="middle" font-size="11" fill="#0F172A" font-weight="500">0.676</text>
<text x="141.0" y="360.0" text-anchor="middle" font-size="12" fill="#334155">arxiv-instructorxl-768</text>
<rect x="244.0" y="119.8" width="64.0" height="222.2" fill="#DC244C" rx="2"/>
<text x="276.0" y="115.8" text-anchor="middle" font-size="11" fill="#0F172A" font-weight="500">0.817</text>
<rect x="314.0" y="160.1" width="64.0" height="181.9" fill="#94A3B8" rx="2"/>
<text x="346.0" y="156.1" text-anchor="middle" font-size="11" fill="#0F172A" font-weight="500">0.669</text>
<text x="311.0" y="360.0" text-anchor="middle" font-size="12" fill="#334155">dbpedia-gemini</text>
<rect x="414.0" y="111.3" width="64.0" height="230.7" fill="#DC244C" rx="2"/>
<text x="446.0" y="107.3" text-anchor="middle" font-size="11" fill="#0F172A" font-weight="500">0.848</text>
<rect x="484.0" y="142.6" width="64.0" height="199.4" fill="#94A3B8" rx="2"/>
<text x="516.0" y="138.6" text-anchor="middle" font-size="11" fill="#0F172A" font-weight="500">0.733</text>
<text x="481.0" y="360.0" text-anchor="middle" font-size="12" fill="#334155">dbpedia-openai-ada</text>
<rect x="584.0" y="116.2" width="64.0" height="225.8" fill="#DC244C" rx="2"/>
<text x="616.0" y="112.2" text-anchor="middle" font-size="11" fill="#0F172A" font-weight="500">0.830</text>
<rect x="654.0" y="154.9" width="64.0" height="187.1" fill="#94A3B8" rx="2"/>
<text x="686.0" y="150.9" text-anchor="middle" font-size="11" fill="#0F172A" font-weight="500">0.688</text>
<text x="651.0" y="360.0" text-anchor="middle" font-size="12" fill="#334155">wiki-cohere-v3-1024</text>
<rect x="250.0" y="380.0" width="12" height="12" fill="#DC244C" rx="2"/>
<text x="270.0" y="390.0" fill="#0F172A">TQ 2-bit — 16×</text>
<rect x="392.0" y="380.0" width="12" height="12" fill="#94A3B8" rx="2"/>
<text x="412.0" y="390.0" fill="#0F172A">BQ 2-bit — 16×</text>
</svg>