<svg xmlns="http://www.w3.org/2000/svg" viewBox="0 0 760 420" font-family="-apple-system, BlinkMacSystemFont, 'Segoe UI', Roboto, sans-serif" font-size="13" role="img" aria-label="Recall at 32× compression — TurboQuant 1-bit vs Binary Quantization 1-bit">
<rect width="100%" height="100%" fill="#ffffff"/>
<text x="380.0" y="30" text-anchor="middle" font-size="16" font-weight="600" fill="#0F172A">Recall at 32× compression — TurboQuant 1-bit vs Binary Quantization 1-bit</text>
<line x1="56" y1="342.0" x2="736" y2="342.0" stroke="#E2E8F0" stroke-width="1"/>
<text x="48" y="346.0" text-anchor="end" fill="#64748B">0.0</text>
<line x1="56" y1="287.6" x2="736" y2="287.6" stroke="#E2E8F0" stroke-width="1"/>
<text x="48" y="291.6" text-anchor="end" fill="#64748B">0.2</text>
<line x1="56" y1="233.2" x2="736" y2="233.2" stroke="#E2E8F0" stroke-width="1"/>
<text x="48" y="237.2" text-anchor="end" fill="#64748B">0.4</text>
<line x1="56" y1="178.8" x2="736" y2="178.8" stroke="#E2E8F0" stroke-width="1"/>
<text x="48" y="182.8" text-anchor="end" fill="#64748B">0.6</text>
<line x1="56" y1="124.4" x2="736" y2="124.4" stroke="#E2E8F0" stroke-width="1"/>
<text x="48" y="128.4" text-anchor="end" fill="#64748B">0.8</text>
<line x1="56" y1="70.0" x2="736" y2="70.0" stroke="#E2E8F0" stroke-width="1"/>
<text x="48" y="74.0" text-anchor="end" fill="#64748B">1.0</text>
<line x1="56" y1="342" x2="736" y2="342" stroke="#0F172A" stroke-width="1.2"/>
<rect x="74.0" y="158.0" width="64.0" height="184.0" fill="#DC244C" rx="2"/>
<text x="106.0" y="154.0" text-anchor="middle" font-size="11" fill="#0F172A" font-weight="500">0.676</text>
<rect x="144.0" y="214.6" width="64.0" height="127.4" fill="#94A3B8" rx="2"/>
<text x="176.0" y="210.6" text-anchor="middle" font-size="11" fill="#0F172A" font-weight="500">0.468</text>
<text x="141.0" y="360.0" text-anchor="middle" font-size="12" fill="#334155">arxiv-instructorxl-768</text>
<rect x="244.0" y="151.9" width="64.0" height="190.1" fill="#DC244C" rx="2"/>
<text x="276.0" y="147.9" text-anchor="middle" font-size="11" fill="#0F172A" font-weight="500">0.699</text>
<rect x="314.0" y="207.5" width="64.0" height="134.5" fill="#94A3B8" rx="2"/>
<text x="346.0" y="203.5" text-anchor="middle" font-size="11" fill="#0F172A" font-weight="500">0.494</text>
<text x="311.0" y="360.0" text-anchor="middle" font-size="12" fill="#334155">dbpedia-gemini</text>
<rect x="414.0" y="141.9" width="64.0" height="200.1" fill="#DC244C" rx="2"/>
<text x="446.0" y="137.9" text-anchor="middle" font-size="11" fill="#0F172A" font-weight="500">0.736</text>
<rect x="484.0" y="176.1" width="64.0" height="165.9" fill="#94A3B8" rx="2"/>
<text x="516.0" y="172.1" text-anchor="middle" font-size="11" fill="#0F172A" font-weight="500">0.610</text>
<text x="481.0" y="360.0" text-anchor="middle" font-size="12" fill="#334155">dbpedia-openai-ada</text>
<rect x="584.0" y="170.6" width="64.0" height="171.4" fill="#DC244C" rx="2"/>
<text x="616.0" y="166.6" text-anchor="middle" font-size="11" fill="#0F172A" font-weight="500">0.630</text>
<rect x="654.0" y="194.9" width="64.0" height="147.1" fill="#94A3B8" rx="2"/>
<text x="686.0" y="190.9" text-anchor="middle" font-size="11" fill="#0F172A" font-weight="500">0.541</text>
<text x="651.0" y="360.0" text-anchor="middle" font-size="12" fill="#334155">wiki-cohere-v3-1024</text>
<rect x="250.0" y="380.0" width="12" height="12" fill="#DC244C" rx="2"/>
<text x="270.0" y="390.0" fill="#0F172A">TQ 1-bit — 32×</text>
<rect x="392.0" y="380.0" width="12" height="12" fill="#94A3B8" rx="2"/>
<text x="412.0" y="390.0" fill="#0F172A">BQ 1-bit — 32×</text>
</svg>