<svg preserveAspectRatio="none" width="100%" height="100%" overflow="visible" style="display: block;" viewBox="0 0 13.3333 13.3333" fill="none" xmlns="http://www.w3.org/2000/svg">
<path id="Vector" d="M6 0C5.64638 0 5.30724 0.140476 5.05719 0.390524C4.80714 0.640573 4.66667 0.979711 4.66667 1.33333V4.66667H1.33333C0.979711 4.66667 0.640573 4.80714 0.390524 5.05719C0.140476 5.30724 0 5.64638 0 6V7.33333C0 8.06667 0.6 8.66667 1.33333 8.66667H4.66667V12C4.66667 12.7333 5.26667 13.3333 6 13.3333H7.33333C7.68696 13.3333 8.02609 13.1929 8.27614 12.9428C8.52619 12.6928 8.66667 12.3536 8.66667 12V8.66667H12C12.3536 8.66667 12.6928 8.52619 12.9428 8.27614C13.1929 8.02609 13.3333 7.68696 13.3333 7.33333V6C13.3333 5.64638 13.1929 5.30724 12.9428 5.05719C12.6928 4.80714 12.3536 4.66667 12 4.66667H8.66667V1.33333C8.66667 0.979711 8.52619 0.640573 8.27614 0.390524C8.02609 0.140476 7.68696 0 7.33333 0H6Z" fill="var(--fill-0, #D4D9E6)"/>
</svg>
