<svg width="120" height="64" viewBox="0 0 120 64" fill="none" xmlns="http://www.w3.org/2000/svg">
<path fill-rule="evenodd" clip-rule="evenodd" d="M21.1058 16.973C12.755 16.973 5.97353 23.7545 5.97353 32.1059C5.97353 40.4572 12.755 47.2381 21.1058 47.2381C29.4636 47.2381 36.2392 40.4579 36.2392 32.1059C36.2392 23.7538 29.4636 16.973 21.1058 16.973ZM5.00049 32.1059C5.00049 23.2172 12.2176 16 21.1058 16C30.0012 16 37.2123 23.2166 37.2123 32.1059C37.2123 40.9952 30.0012 48.2112 21.1058 48.2112C12.2176 48.2112 5.00049 40.9946 5.00049 32.1059ZM7.94385 30.2356V31.6301H9.40102C9.81352 31.6301 10.1251 31.5776 10.3359 31.4665C10.5472 31.3549 10.6528 31.1651 10.6528 30.8959C10.6528 30.6792 10.5573 30.5156 10.3627 30.4046C10.1669 30.2935 9.84993 30.2356 9.41117 30.2356H7.94385ZM7.13438 34.2454V29.7133H9.77054C10.1311 29.7133 10.4361 29.7658 10.6905 29.8661C10.9495 29.9664 11.1382 30.1037 11.2713 30.278C11.3984 30.4523 11.4611 30.6422 11.4611 30.8541C11.4611 31.2976 11.1979 31.6146 10.6636 31.8044C10.9746 31.8999 11.2337 32.0211 11.4402 32.1745C11.6456 32.3226 11.7471 32.5709 11.7471 32.9082C11.7471 33.1512 11.6677 33.3786 11.5095 33.5792C11.3555 33.7851 11.1238 33.9433 10.8122 34.0651C10.5054 34.1863 10.1359 34.2448 9.71383 34.2448L7.13438 34.2454ZM7.94385 32.1322V33.7219H9.67085C10.0821 33.7219 10.4009 33.6478 10.6164 33.4998C10.7183 33.4353 10.8016 33.3453 10.8581 33.2387C10.9145 33.1321 10.9421 33.0126 10.9382 32.8921C10.9382 32.3853 10.4744 32.1316 9.53892 32.1316L7.94385 32.1322ZM16.7537 32.9243H14.351L13.7284 34.2448H12.8938L15.1443 29.7127H16.0631L18.2282 34.2448H17.3465L16.7537 32.9243ZM14.5987 32.3859H16.4582L15.5753 30.389H15.5604L14.5987 32.3859ZM21.5186 32.4175V34.2454H20.7104V32.4175L18.4497 29.7133H19.3899L21.1115 31.8898L22.8278 29.7133H23.7793L21.5186 32.4175ZM29.1668 33.701V34.2454H24.7518V29.7133H29.1089V30.2571H25.5594V31.6409H28.8337V32.1853H25.5594V33.701H29.1668ZM31.3428 32.3023V34.2454H30.5345V29.7133H33.3026C33.8727 29.7133 34.3437 29.8028 34.7132 29.9933C35.0827 30.1783 35.2683 30.4899 35.2683 30.9341C35.2683 31.2296 35.1937 31.4564 35.0397 31.6152C34.8869 31.7734 34.6863 31.9059 34.4332 32.0163C34.6606 32.0904 34.8344 32.1751 34.9508 32.2856C35.0719 32.3912 35.1406 32.5864 35.1513 32.867L35.2039 33.6908C35.2039 33.8233 35.2248 33.9182 35.2677 33.9762C35.3042 34.0341 35.383 34.0926 35.5041 34.1457V34.246H34.512C34.4688 34.1339 34.4401 34.0167 34.4266 33.8974C34.4053 33.7519 34.3913 33.6055 34.3848 33.4586C34.3753 33.3428 34.3699 33.2267 34.3687 33.1106C34.3687 32.8676 34.3013 32.6724 34.1574 32.5244C34.0201 32.3763 33.7294 32.3023 33.3014 32.3023H31.3428ZM31.3428 30.2356V31.7728H33.219C33.5784 31.7728 33.8732 31.7203 34.1019 31.6146C34.3234 31.5036 34.4344 31.2976 34.4344 30.9967C34.4344 30.4893 34.0798 30.2362 33.3617 30.2362L31.3428 30.2356ZM19.7009 19.0116V20.4055H21.1641C21.5712 20.4055 21.8834 20.353 22.0947 20.242C22.306 20.1309 22.4165 19.9411 22.4165 19.6767C22.4165 19.4546 22.3162 19.291 22.1204 19.18C21.9258 19.069 21.6088 19.0111 21.17 19.0111H19.7009V19.0116ZM18.8932 23.0208V18.4881H21.5294C21.8888 18.4881 22.195 18.5412 22.4541 18.6415C22.7072 18.7418 22.8982 18.8791 23.0301 19.0534C23.1561 19.2277 23.2247 19.4176 23.2247 19.6295C23.2247 20.073 22.9555 20.39 22.4224 20.5799C22.7382 20.6748 22.9925 20.7965 23.1979 20.95C23.4044 21.0974 23.5047 21.3463 23.5047 21.6836C23.5047 21.932 23.4253 22.154 23.2725 22.3546C23.1137 22.5606 22.8821 22.7193 22.5705 22.8405C22.2636 22.9623 21.8941 23.0202 21.4709 23.0202L18.8932 23.0208ZM19.7009 20.9076V22.4973H21.4291C21.8404 22.4973 22.158 22.4239 22.3747 22.2758C22.4766 22.2113 22.5599 22.1213 22.6163 22.0147C22.6728 21.9081 22.7004 21.7886 22.6964 21.6681C22.6964 21.1613 22.2314 20.9076 21.2972 20.9076H19.7009ZM22.2893 27.4365H19.8919L19.2621 28.7516H18.4288L20.6793 24.2195H21.598L23.7632 28.7516H22.8815L22.2893 27.4365ZM20.1391 26.8921H21.9986L21.1115 24.8953H21.1008L20.1391 26.8921ZM23.3829 39.4849V40.0287H18.9672V35.4966H23.3244V36.0357H19.7755V37.4248H23.0504V37.9692H19.7755V39.4849H23.3829ZM19.6323 43.9585V45.9081H18.8252V41.376H21.5921C22.1634 41.376 22.6332 41.4656 23.0027 41.65C23.3722 41.8405 23.5578 42.1521 23.5578 42.5902C23.5578 42.8917 23.4832 43.1185 23.3304 43.2767C23.1824 43.4361 22.9758 43.5674 22.7227 43.6785C22.9501 43.7471 23.1239 43.8373 23.245 43.9477C23.3614 44.054 23.4307 44.2486 23.4408 44.5291L23.4946 45.3535C23.4946 45.4855 23.5155 45.5804 23.5573 45.6389C23.5937 45.6968 23.6725 45.7499 23.7936 45.8019V45.9081H22.8015C22.7583 45.7958 22.7296 45.6785 22.7161 45.5589C22.6947 45.4136 22.6808 45.2674 22.6744 45.1207C22.6651 45.0047 22.6601 44.8885 22.6594 44.7721C22.6594 44.5297 22.5908 44.3339 22.4475 44.1865C22.3102 44.0385 22.0255 43.9591 21.5915 43.9591L19.6323 43.9585ZM19.6323 41.899V43.4361H21.5085C21.872 43.4361 22.164 43.383 22.3914 43.272C22.6129 43.1663 22.7239 42.9609 22.7239 42.6541C22.7239 42.1521 22.3705 41.899 21.6512 41.899H19.6323ZM50.0194 21.7212H44.6736V28.4245H49.9878C52.8084 28.4245 54.5407 27.5738 54.5407 24.906C54.5407 22.8728 53.2943 21.7212 50.0194 21.7212ZM51.1076 40.9904H41.7318V19.2027H51.3237C55.386 19.2027 57.4825 21.7218 57.4825 24.6959C57.4825 26.122 56.965 28.1236 54.567 29.2435L54.5981 29.2561C56.0294 29.8389 58.5129 30.85 58.5129 34.557C58.5129 38.0486 55.9352 40.9904 51.1076 40.9904ZM50.4737 30.8224H44.6736V38.4706H50.9596C54.0232 38.4706 55.5711 36.9227 55.5711 34.4931C55.5711 31.4295 52.8716 30.8224 50.4737 30.8224ZM67.0595 26.8765C64.0276 26.8765 63.5996 28.7307 63.4199 29.9455H60.9646C61.0858 26.1477 63.6001 24.663 67.5192 24.663C68.7919 24.663 73.4034 25.0278 73.4034 29.0948V38.2283C73.4034 38.8939 73.7365 39.1691 74.2857 39.1691C74.5286 39.1691 74.8617 39.11 75.1626 39.0473V40.991C75.0536 41.0202 74.9482 41.0527 74.8427 41.0853C74.508 41.1886 74.1716 41.2924 73.7096 41.2924C71.3379 41.2924 70.9732 40.0818 70.8836 38.8676C69.8539 39.9875 68.2427 41.4447 65.1475 41.4447C62.2367 41.4447 60.1718 39.5959 60.1718 36.86C60.1718 35.5288 60.5682 32.4336 64.9994 31.8844L69.3996 31.34C70.0335 31.2767 70.7941 31.0338 70.7941 29.4596C70.7941 27.7899 69.5793 26.8765 67.0595 26.8765ZM65.8184 39.2306C68.306 39.2306 70.7356 37.6206 70.7356 35.4966V32.8873C70.3082 33.2204 69.6425 33.4634 66.3306 33.8914C65.0311 34.0705 62.9345 34.4663 62.9345 36.4684C62.9345 38.196 63.8162 39.2306 65.8184 39.2306ZM81.8288 36.8278H81.8921L86.217 25.1167H89.212C88.9684 25.724 88.7253 26.3313 88.4822 26.9386C86.8437 31.0323 85.2051 35.1261 83.4018 39.2198C80.8403 45.0461 80.5603 45.3738 77.0687 45.3738C76.7396 45.3738 76.4744 45.3027 76.1505 45.2159C76.0795 45.1969 76.0058 45.1771 75.9279 45.1571V42.955C76.2658 43.066 76.8203 43.2033 77.5653 43.2033C78.9846 43.2033 79.1392 42.8495 80.4348 39.885L80.4391 39.8753L74.4439 25.1173H77.5343L81.8288 36.8278ZM97.3527 39.1362C99.8718 39.1362 101.356 37.1979 101.446 36.0148H104.12C104.031 36.7699 103.301 39.0204 101.299 40.351C100.57 40.837 99.5351 41.4447 96.9885 41.4447C92.5257 41.4447 89.8847 38.0749 89.8847 33.4956C89.8847 28.5785 92.2559 24.6636 97.5013 24.6636C102.085 24.6636 104.33 28.3033 104.33 33.9182H92.7364C92.7364 37.2302 94.2837 39.1362 97.3527 39.1362ZM97.1354 27.0616C94.6795 27.0616 92.7358 29.3378 92.7358 31.7943H101.567C101.414 29.3378 100.383 27.0616 97.1354 27.0616ZM113.996 27.5159C111.508 27.5159 109.934 29.4596 109.934 31.7626H109.935V40.991H107.262V25.1185H109.782V27.7594H109.845C110.901 25.9053 112.301 24.6636 114.303 24.6636C114.637 24.6636 114.789 24.6959 115 24.7538V27.5159H113.996Z" fill="#161E33"/>
</svg>
