<svg width="120" height="64" viewBox="0 0 120 64" fill="none" xmlns="http://www.w3.org/2000/svg"><path fill-rule="evenodd" clip-rule="evenodd" d="M14.9127 19.4951C12.3588 19.4951 9.86225 20.2524 7.73877 21.6713C5.6153 23.0902 3.96025 25.1068 2.98292 27.4663C2.00559 29.8258 1.74988 32.4221 2.24812 34.9269C2.74636 37.4317 3.97617 39.7326 5.78203 41.5384C7.5879 43.3443 9.88872 44.5741 12.3935 45.0724C14.8983 45.5706 17.4946 45.3149 19.8541 44.3376C22.2136 43.3602 24.2303 41.7052 25.6491 39.5817C27.068 37.4582 27.8253 34.9617 27.8253 32.4078C27.8253 28.9831 26.4649 25.6987 24.0433 23.2772C21.6217 20.8556 18.3373 19.4951 14.9127 19.4951ZM14.9127 44.1149C12.5972 44.1149 10.3338 43.4283 8.40853 42.1419C6.48331 40.8555 4.98278 39.0271 4.09669 36.8879C3.21061 34.7487 2.97877 32.3948 3.43049 30.1238C3.88221 27.8529 4.99721 25.7669 6.63448 24.1296C8.27175 22.4923 10.3578 21.3773 12.6287 20.9256C14.8997 20.4739 17.2536 20.7057 19.3928 21.5918C21.532 22.4779 23.3604 23.9784 24.6468 25.9037C25.9332 27.8289 26.6198 30.0923 26.6198 32.4078C26.6191 35.5125 25.3854 38.4898 23.1901 40.6852C20.9947 42.8806 18.0174 44.1142 14.9127 44.1149ZM80.2266 30.3986L80.816 30.5325C83.2538 31.0415 86.2007 31.7916 86.1471 35.6762C86.1471 39.3999 82.7448 41.2216 79.5569 41.2216C75.8867 41.2216 73.9846 39.8286 72.4844 38.0337L75.1901 35.3547C76.3421 36.8281 77.8423 37.5514 79.5033 37.5514C80.8963 37.5514 81.8072 36.8817 81.8072 35.8637C81.8072 34.7921 80.9767 34.4438 78.7532 33.9884L78.1638 33.8544C75.4848 33.2919 73.2881 31.7916 73.2881 28.7376C73.2881 25.3889 76.0206 23.3796 79.6104 23.3796C82.6645 23.3796 84.6201 24.6923 85.8257 26.0586L83.1735 28.684C82.7329 28.1952 82.1962 27.8026 81.5969 27.5306C80.9977 27.2586 80.3488 27.1132 79.6908 27.1034C78.7264 27.1034 77.628 27.5588 77.628 28.684C77.628 29.7288 78.78 30.1039 80.2266 30.3986ZM63.9115 23.4065C58.9822 23.4065 56.0889 27.3446 56.0889 32.3275C56.0889 37.3104 58.9822 41.2485 63.9115 41.2485C68.8408 41.2485 71.7341 37.3372 71.7341 32.3275C71.7341 27.3178 68.8676 23.4065 63.9115 23.4065ZM63.9115 37.1764C61.5004 37.1764 60.2949 35.0064 60.2949 32.3275C60.2949 29.6485 61.5004 27.5053 63.9115 27.5053C66.3225 27.5053 67.5549 29.6753 67.5549 32.3275C67.5549 35.0332 66.3225 37.1764 63.9115 37.1764ZM51.6158 32.006C52.3167 31.7347 52.9181 31.2559 53.3394 30.6335C53.7607 30.0111 53.9819 29.2748 53.9733 28.5233C53.9733 25.3889 51.7497 23.8351 48.6957 23.8351H40.6855V40.8787H49.3922C52.0712 40.8787 54.6966 39.0035 54.6966 36.137C54.6966 33.031 52.1371 32.1818 51.6839 32.0314C51.6399 32.0168 51.6158 32.0088 51.6158 32.006ZM44.8647 27.3713H47.9724C48.1713 27.359 48.3708 27.386 48.5593 27.4509C48.7479 27.5157 48.9218 27.6171 49.0711 27.7492C49.2204 27.8814 49.3422 28.0417 49.4294 28.2209C49.5167 28.4002 49.5678 28.5949 49.5797 28.7939V28.9787C49.5713 29.3977 49.3976 29.7964 49.0965 30.0879C48.7955 30.3795 48.3914 30.5402 47.9724 30.5352H44.838L44.8647 27.3713ZM47.9991 37.3103H44.8915V33.9616H47.9188C49.4458 33.9616 50.1691 34.6314 50.1691 35.6226C50.1691 36.8603 49.2583 37.3103 47.9991 37.3103ZM95.6842 37.1764C93.809 37.1764 91.8533 35.6226 91.8533 32.2203C91.8533 29.1931 93.675 27.5053 95.5771 27.5053C97.0773 27.5053 97.9614 28.2018 98.6579 29.4074L102.087 27.1302C100.372 24.5316 98.3364 23.4333 95.5235 23.4333C90.3799 23.4333 87.5937 27.4249 87.5937 32.2471C87.5937 37.3104 90.6746 41.2753 95.4699 41.2753C98.8454 41.2753 100.453 40.0965 102.194 37.5783L98.7383 35.2529C98.0417 36.3727 97.2916 37.1764 95.6842 37.1764ZM113.527 30.1039V23.8351H118.001V40.8734H113.527V34.1492H108.357V40.8734H103.883V23.8351H108.357V30.1039H113.527ZM19.3601 24.3441H20.2442V24.3494C21.5789 25.2291 22.6743 26.4264 23.4323 27.8338C24.1902 29.2411 24.587 30.8147 24.587 32.4132C24.587 34.0117 24.1902 35.5852 23.4323 36.9926C22.6743 38.4 21.5789 39.5972 20.2442 40.4769H19.3601V36.0566H10.4927V40.4715H9.58186C8.24776 39.5914 7.15287 38.394 6.39531 36.9867C5.63776 35.5794 5.24121 34.0061 5.24121 32.4078C5.24121 30.8095 5.63776 29.2362 6.39531 27.8289C7.15287 26.4216 8.24776 25.2242 9.58186 24.3441H10.4927V28.7644H19.3601V24.3441ZM7.26718 36.1027C7.75224 37.1027 8.42954 37.9973 9.26039 38.7356V26.0854C9.01235 26.3058 8.77711 26.5401 8.55582 26.7873C7.81749 27.6181 7.25004 28.5861 6.88586 29.6362C6.52169 30.6863 6.36792 31.7979 6.43335 32.9074C6.49878 34.0169 6.78211 35.1026 7.26718 36.1027ZM10.4927 34.8243H19.3601V29.9699H10.4927V34.8243ZM20.5657 36.0298V38.7034C20.7897 38.5008 21.0034 38.2871 21.2059 38.0631C21.9507 37.2348 22.5249 36.2678 22.8958 35.2175C23.2667 34.1671 23.427 33.0539 23.3675 31.9416C23.3081 30.8293 23.03 29.7396 22.5493 28.7347C22.0685 27.7299 21.3945 26.8297 20.5657 26.0854V28.7644V36.0298Z" fill="#161E33"/></svg>