<svg width="1440" height="425" viewBox="0 0 1440 425" fill="none" xmlns="http://www.w3.org/2000/svg">
<rect y="24" width="80" height="80" stroke="#161E33"/>
<rect x="80" y="24" width="80" height="80" fill="url(#paint0_linear_2067_21415)" stroke="#161E33"/>
<rect x="160" y="24" width="80" height="80" stroke="#161E33"/>
<rect x="240" y="24" width="80" height="80" stroke="#161E33"/>
<rect x="320" y="24" width="80" height="80" stroke="#161E33"/>
<rect x="400" y="24" width="80" height="80" stroke="#161E33"/>
<rect x="480" y="24" width="80" height="80" stroke="#161E33"/>
<rect x="560" y="24" width="80" height="80" stroke="#161E33"/>
<rect x="640" y="24" width="80" height="80" stroke="#161E33"/>
<rect x="720" y="24" width="80" height="80" stroke="#161E33"/>
<rect x="800" y="24" width="80" height="80" stroke="#161E33"/>
<rect x="880" y="24" width="80" height="80" stroke="#161E33"/>
<rect x="960" y="24" width="80" height="80" stroke="#161E33"/>
<rect x="1040" y="24" width="80" height="80" stroke="#161E33"/>
<rect x="1120" y="24" width="80" height="80" stroke="#161E33"/>
<rect x="1200" y="24" width="80" height="80" fill="url(#paint1_linear_2067_21415)" stroke="#161E33"/>
<rect x="1280" y="24" width="80" height="80" stroke="#161E33"/>
<rect x="1360" y="24" width="80" height="80" stroke="#161E33"/>
<rect y="104" width="80" height="80" stroke="#161E33"/>
<rect x="80" y="104" width="80" height="80" stroke="#161E33"/>
<rect x="160" y="104" width="80" height="80" stroke="#161E33"/>
<rect x="240" y="104" width="80" height="80" fill="url(#paint2_linear_2067_21415)" stroke="#161E33"/>
<rect x="320" y="104" width="80" height="80" stroke="#161E33"/>
<rect x="400" y="104" width="80" height="80" stroke="#161E33"/>
<rect x="480" y="104" width="80" height="80" stroke="#161E33"/>
<rect x="560" y="104" width="80" height="80" stroke="#161E33"/>
<rect x="640" y="104" width="80" height="80" stroke="#161E33"/>
<rect x="720" y="104" width="80" height="80" stroke="#161E33"/>
<rect x="800" y="104" width="80" height="80" stroke="#161E33"/>
<rect x="880" y="104" width="80" height="80" stroke="#161E33"/>
<rect x="960" y="104" width="80" height="80" stroke="#161E33"/>
<rect x="1040" y="104" width="80" height="80" stroke="#161E33"/>
<rect x="1120" y="104" width="80" height="80" stroke="#161E33"/>
<rect x="1200" y="104" width="80" height="80" stroke="#161E33"/>
<rect x="1280" y="104" width="80" height="80" stroke="#161E33"/>
<rect x="1360" y="104" width="80" height="80" stroke="#161E33"/>
<rect y="184" width="80" height="80" stroke="#161E33"/>
<rect x="80" y="184" width="80" height="80" stroke="#161E33"/>
<rect x="160" y="184" width="80" height="80" stroke="#161E33"/>
<rect x="240" y="184" width="80" height="80" stroke="#161E33"/>
<rect x="320" y="184" width="80" height="80" stroke="#161E33"/>
<rect x="400" y="184" width="80" height="80" stroke="#161E33"/>
<rect x="480" y="184" width="80" height="80" stroke="#161E33"/>
<rect x="560" y="184" width="80" height="80" stroke="#161E33"/>
<rect x="640" y="184" width="80" height="80" stroke="#161E33"/>
<rect x="720" y="184" width="80" height="80" stroke="#161E33"/>
<rect x="800" y="184" width="80" height="80" stroke="#161E33"/>
<rect x="880" y="184" width="80" height="80" stroke="#161E33"/>
<rect x="960" y="184" width="80" height="80" stroke="#161E33"/>
<rect x="1040" y="184" width="80" height="80" stroke="#161E33"/>
<rect x="1120" y="184" width="80" height="80" fill="url(#paint3_linear_2067_21415)" stroke="#161E33"/>
<rect x="1200" y="184" width="80" height="80" stroke="#161E33"/>
<rect x="1280" y="184" width="80" height="80" stroke="#161E33"/>
<rect x="1360" y="184" width="80" height="80" stroke="#161E33"/>
<rect y="264" width="80" height="80" stroke="#161E33"/>
<rect x="80" y="264" width="80" height="80" stroke="#161E33"/>
<rect x="160" y="264" width="80" height="80" fill="url(#paint4_linear_2067_21415)" stroke="#161E33"/>
<rect x="240" y="264" width="80" height="80" stroke="#161E33"/>
<rect x="320" y="264" width="80" height="80" stroke="#161E33"/>
<rect x="400" y="264" width="80" height="80" stroke="#161E33"/>
<rect x="480" y="264" width="80" height="80" stroke="#161E33"/>
<rect x="560" y="264" width="80" height="80" stroke="#161E33"/>
<rect x="640" y="264" width="80" height="80" stroke="#161E33"/>
<rect x="720" y="264" width="80" height="80" stroke="#161E33"/>
<rect x="800" y="264" width="80" height="80" stroke="#161E33"/>
<rect x="880" y="264" width="80" height="80" stroke="#161E33"/>
<rect x="960" y="264" width="80" height="80" stroke="#161E33"/>
<rect x="1040" y="264" width="80" height="80" stroke="#161E33"/>
<rect x="1120" y="264" width="80" height="80" stroke="#161E33"/>
<rect x="1200" y="264" width="80" height="80" stroke="#161E33"/>
<rect x="1280" y="264" width="80" height="80" stroke="#161E33"/>
<rect x="1360" y="264" width="80" height="80" stroke="#161E33"/>
<rect y="344" width="80" height="80" stroke="#161E33"/>
<rect x="80" y="344" width="80" height="80" stroke="#161E33"/>
<rect x="160" y="344" width="80" height="80" stroke="#161E33"/>
<rect x="240" y="344" width="80" height="80" stroke="#161E33"/>
<rect x="320" y="344" width="80" height="80" stroke="#161E33"/>
<rect x="400" y="344" width="80" height="80" stroke="#161E33"/>
<rect x="480" y="344" width="80" height="80" stroke="#161E33"/>
<rect x="560" y="344" width="80" height="80" stroke="#161E33"/>
<rect x="640" y="344" width="80" height="80" stroke="#161E33"/>
<rect x="720" y="344" width="80" height="80" stroke="#161E33"/>
<rect x="800" y="344" width="80" height="80" stroke="#161E33"/>
<rect x="880" y="344" width="80" height="80" stroke="#161E33"/>
<rect x="960" y="344" width="80" height="80" stroke="#161E33"/>
<rect x="1040" y="344" width="80" height="80" stroke="#161E33"/>
<rect x="1120" y="344" width="80" height="80" stroke="#161E33"/>
<rect x="1200" y="344" width="80" height="80" fill="url(#paint5_linear_2067_21415)" stroke="#161E33"/>
<rect x="1280" y="344" width="80" height="80" stroke="#161E33"/>
<rect x="1360" y="344" width="80" height="80" stroke="#161E33"/>
<rect x="160" y="424" width="160" height="400" transform="rotate(-180 160 424)" fill="url(#paint6_linear_2067_21415)"/>
<rect width="160" height="400" transform="matrix(1 -8.74228e-08 -8.74228e-08 -1 1280 424)" fill="url(#paint7_linear_2067_21415)"/>
<path d="M83.8755 196L80 198.245V202.736L83.8755 204.981L87.751 202.736V198.245L83.8755 196Z" fill="#8547FF"/>
<path d="M202.74 341.74L201.588 346.068L204.763 349.244L209.091 348.091L210.244 343.763L207.068 340.588L202.74 341.74Z" fill="#038585"/>
<path d="M261.74 51.7404L260.588 56.0685L263.763 59.2438L268.091 58.0911L269.244 53.7631L266.068 50.5877L261.74 51.7404Z" fill="#E0700D"/>
<path d="M1229.74 360.74L1228.59 365.068L1231.76 368.244L1236.09 367.091L1237.24 362.763L1234.07 359.588L1229.74 360.74Z" fill="#2F6FF0"/>
<path d="M1227.88 76L1224 78.2453V82.736L1227.88 84.9813L1231.75 82.736V78.2453L1227.88 76Z" fill="#DC244C"/>
<path d="M1355.88 205L1352 207.245V211.736L1355.88 213.981L1359.75 211.736V207.245L1355.88 205Z" fill="#8547FF"/>
<defs>
<linearGradient id="paint0_linear_2067_21415" x1="120" y1="24" x2="120" y2="104" gradientUnits="userSpaceOnUse">
<stop stop-color="#090E1A" stop-opacity="0"/>
<stop offset="1" stop-color="#161E33"/>
</linearGradient>
<linearGradient id="paint1_linear_2067_21415" x1="1240" y1="24" x2="1240" y2="104" gradientUnits="userSpaceOnUse">
<stop stop-color="#090E1A" stop-opacity="0"/>
<stop offset="1" stop-color="#161E33"/>
</linearGradient>
<linearGradient id="paint2_linear_2067_21415" x1="280" y1="104" x2="280" y2="184" gradientUnits="userSpaceOnUse">
<stop stop-color="#090E1A" stop-opacity="0"/>
<stop offset="1" stop-color="#161E33"/>
</linearGradient>
<linearGradient id="paint3_linear_2067_21415" x1="1160" y1="184" x2="1160" y2="264" gradientUnits="userSpaceOnUse">
<stop stop-color="#090E1A" stop-opacity="0"/>
<stop offset="1" stop-color="#161E33"/>
</linearGradient>
<linearGradient id="paint4_linear_2067_21415" x1="200" y1="264" x2="200" y2="344" gradientUnits="userSpaceOnUse">
<stop stop-color="#090E1A" stop-opacity="0"/>
<stop offset="1" stop-color="#161E33"/>
</linearGradient>
<linearGradient id="paint5_linear_2067_21415" x1="1240" y1="344" x2="1240" y2="424" gradientUnits="userSpaceOnUse">
<stop stop-color="#090E1A" stop-opacity="0"/>
<stop offset="1" stop-color="#161E33"/>
</linearGradient>
<linearGradient id="paint6_linear_2067_21415" x1="320" y1="624" x2="160" y2="624" gradientUnits="userSpaceOnUse">
<stop offset="0.387879" stop-color="#090E1A"/>
<stop offset="1" stop-color="#090E1A" stop-opacity="0"/>
</linearGradient>
<linearGradient id="paint7_linear_2067_21415" x1="160" y1="200" x2="-7.1562e-06" y2="200" gradientUnits="userSpaceOnUse">
<stop offset="0.387879" stop-color="#090E1A"/>
<stop offset="1" stop-color="#090E1A" stop-opacity="0"/>
</linearGradient>
</defs>
</svg>
