<svg width="540" height="480" viewBox="0 0 540 480" fill="none" xmlns="http://www.w3.org/2000/svg">
<g clip-path="url(#clip0_9882_57035)">
<g filter="url(#filter0_d_9882_57035)">
<path d="M310 80L312.887 75L307.113 75L310 80ZM278 40L277.5 40L277.5 44.2053L278 44.2053L278.5 44.2053L278.5 40L278 40ZM294 60.2806L293.998 60.7806C302.571 60.8209 309.5 67.7824 309.5 76.356L310 76.356L310.5 76.356C310.5 67.232 303.126 59.8235 294.002 59.7806L294 60.2806ZM278 44.2053L277.5 44.2053C277.5 53.3293 284.874 60.7377 293.998 60.7806L294 60.2806L294.002 59.7806C285.429 59.7403 278.5 52.7788 278.5 44.2053L278 44.2053Z" fill="#0040A1"/>
</g>
<g filter="url(#filter1_d_9882_57035)">
<path d="M230 80L227.113 75L232.887 75L230 80ZM262 40L262.5 40L262.5 44.2053L262 44.2053L261.5 44.2053L261.5 40L262 40ZM246 60.2806L246.002 60.7806C237.429 60.8209 230.5 67.7824 230.5 76.356L230 76.356L229.5 76.356C229.5 67.232 236.874 59.8235 245.998 59.7806L246 60.2806ZM262 44.2053L262.5 44.2053C262.5 53.3293 255.126 60.7377 246.002 60.7806L246 60.2806L245.998 59.7806C254.571 59.7403 261.5 52.7788 261.5 44.2053L262 44.2053Z" fill="#0040A1"/>
</g>
<path d="M290.458 130.1H292.208V124.92H290.458V124.02H295.008V124.92H293.268V130.1H295.008V131H290.458V130.1ZM296.452 131L296.972 124.02H298.362L299.252 128.15L299.462 129.51L299.682 128.15L300.552 124.02H301.922L302.452 131H301.402L301.172 126.63L301.132 125.09L300.832 126.63L299.882 131H298.982L298.042 126.63L297.762 125.07L297.702 126.63L297.482 131H296.452ZM305.386 124.02H306.906L309.066 131H307.976L307.436 129.24H304.836L304.296 131H303.226L305.386 124.02ZM305.726 126.39L305.116 128.34H307.166L306.566 126.38L306.146 124.85L305.726 126.39ZM312.99 131.12C311.14 131.12 309.91 129.68 309.91 127.51C309.91 125.36 311.15 123.9 313.02 123.9C314.45 123.9 315.54 124.78 315.67 126.27H314.5C314.39 125.38 313.84 124.8 313 124.8C311.88 124.8 311.03 125.82 311.03 127.51C311.03 129.26 311.9 130.22 313.07 130.22C313.74 130.22 314.27 129.94 314.62 129.56V128.18L313.4 128.22L313.44 127.31H315.67V129.87C315.12 130.66 314.17 131.12 312.99 131.12ZM317.134 131V124.02H322.144V124.92H318.194V126.93H320.914V127.83H318.194V130.1H322.184V131H317.134ZM326.358 131.12C324.738 131.12 323.688 130.17 323.688 128.51H324.738C324.738 129.61 325.338 130.22 326.348 130.22C327.198 130.22 327.768 129.81 327.768 129.1C327.768 127.41 323.798 128.39 323.798 125.87C323.798 124.73 324.768 123.9 326.238 123.9C327.668 123.9 328.768 124.72 328.798 126.08H327.738C327.718 125.29 327.058 124.8 326.238 124.8C325.448 124.8 324.908 125.2 324.908 125.84C324.908 127.42 328.878 126.39 328.878 129.09C328.878 130.33 327.798 131.12 326.358 131.12Z" fill="#8F98B3"/>
<path d="M298 110L303 104L307 108L314 100L320 107" stroke="#038585" stroke-width="2" stroke-linecap="round" stroke-linejoin="round"/>
<path d="M320 93H298V111H320V93Z" stroke="#038585" stroke-width="2" stroke-linecap="round" stroke-linejoin="round"/>
<path d="M306 100C307.105 100 308 99.1046 308 98C308 96.8954 307.105 96 306 96C304.895 96 304 96.8954 304 98C304 99.1046 304.895 100 306 100Z" stroke="#038585" stroke-width="2" stroke-linecap="round" stroke-linejoin="round"/>
<path d="M218.912 131V124.92H216.662V124.02H222.222V124.92H219.972V131H218.912ZM223.726 131V124.02H228.736V124.92H224.786V126.93H227.506V127.83H224.786V130.1H228.776V131H223.726ZM230 131L232.12 127.44L230.07 124.02H231.28L232.26 125.65L232.86 126.71L233.46 125.64L234.44 124.02H235.63L233.58 127.4L235.72 131H234.53L233.46 129.21L232.86 128.14L232.26 129.21L231.18 131H230ZM239.024 131V124.92H236.774V124.02H242.334V124.92H240.084V131H239.024Z" fill="#8F98B3"/>
<path d="M219.779 105H227.224" stroke="#8547FF" stroke-width="2" stroke-linecap="round" stroke-linejoin="round"/>
<path d="M218.594 109H218.5L222.944 95H224.056L228.5 109H228.409" stroke="#8547FF" stroke-width="2" stroke-linecap="round" stroke-linejoin="round"/>
<path d="M239.985 105.558C238.981 107.869 236.936 108.965 235.029 109C233.688 109.024 232.301 108.185 232.039 106.707C231.815 105.438 232.55 103.942 234.309 103.432C236.225 102.876 240 103.016 240 103.016" stroke="#8547FF" stroke-width="2" stroke-linecap="round" stroke-linejoin="round"/>
<path d="M240 109V101.738C240 99.6736 238.326 98 236.262 98C235.292 98 234.36 98.3768 233.663 99.051L233 99.6923" stroke="#8547FF" stroke-width="2" stroke-linecap="round" stroke-linejoin="round"/>
<g clip-path="url(#clip1_9882_57035)">
<g filter="url(#filter2_f_9882_57035)">
<ellipse cx="270.497" cy="215.5" rx="34.3739" ry="12.5005" fill="#DC244C"/>
</g>
<g filter="url(#filter3_f_9882_57035)">
<ellipse cx="270.497" cy="250.5" rx="34.3739" ry="12.5005" fill="#008A53"/>
</g>
<g filter="url(#filter4_f_9882_57035)">
<ellipse cx="318.626" cy="233.418" rx="34.3739" ry="12.5005" fill="#2F6FF0"/>
</g>
<g filter="url(#filter5_f_9882_57035)">
<ellipse cx="222.374" cy="233.418" rx="34.3739" ry="12.5005" fill="#E0700D"/>
</g>
<g filter="url(#filter6_f_9882_57035)">
<ellipse cx="236.126" cy="220.5" rx="34.3739" ry="12.5005" fill="#E02828"/>
</g>
<g filter="url(#filter7_f_9882_57035)">
<ellipse cx="304.874" cy="220.5" rx="34.3739" ry="12.5005" fill="#8547FF"/>
</g>
<g filter="url(#filter8_f_9882_57035)">
<ellipse cx="304.874" cy="245.504" rx="34.3739" ry="12.5005" fill="#038585"/>
</g>
<g filter="url(#filter9_f_9882_57035)">
<ellipse cx="236.126" cy="245.504" rx="34.3739" ry="12.5005" fill="#EABA25"/>
</g>
<path d="M270 272V272C270 293.539 252.539 311 231 311L150 311C128.461 311 111 328.461 111 350V350" stroke="url(#paint0_linear_9882_57035)"/>
<g filter="url(#filter10_d_9882_57035)">
<path d="M270 272V272C270 293.539 252.539 311 231 311L150 311C128.461 311 111 328.461 111 350V350" stroke="#DC244C" stroke-dasharray="40 24"/>
</g>
<path d="M270.93 272V272C270.93 293.539 288.391 311 309.93 311L390 311C411.539 311 429 328.461 429 350V350" stroke="url(#paint1_linear_9882_57035)"/>
<g filter="url(#filter11_d_9882_57035)">
<path d="M270.93 272V272C270.93 293.539 288.391 311 309.93 311L390 311C411.539 311 429 328.461 429 350V350" stroke="#DC244C" stroke-dasharray="40 24"/>
</g>
<line x1="270.5" y1="272" x2="270.5" y2="350" stroke="url(#paint2_linear_9882_57035)"/>
<g filter="url(#filter12_d_9882_57035)">
<line x1="270.5" y1="272" x2="270.5" y2="350" stroke="#DC244C" stroke-dasharray="40 24"/>
</g>
<g filter="url(#filter13_dd_9882_57035)">
<mask id="path-28-inside-1_9882_57035" fill="white">
<path d="M187.5 196C187.5 191.582 191.082 188 195.5 188H344.5C348.918 188 352.5 191.582 352.5 196V264C352.5 268.418 348.918 272 344.5 272H195.5C191.082 272 187.5 268.418 187.5 264V196Z"/>
</mask>
<path d="M187.5 196C187.5 191.582 191.082 188 195.5 188H344.5C348.918 188 352.5 191.582 352.5 196V264C352.5 268.418 348.918 272 344.5 272H195.5C191.082 272 187.5 268.418 187.5 264V196Z" fill="url(#paint3_linear_9882_57035)" shape-rendering="crispEdges"/>
<path d="M187.5 196C187.5 191.029 191.529 187 196.5 187H343.5C348.471 187 352.5 191.029 352.5 196C352.5 192.134 348.918 189 344.5 189H195.5C191.082 189 187.5 192.134 187.5 196ZM352.5 272H187.5H352.5ZM187.5 272V188V272ZM352.5 188V272V188Z" fill="#3D4866" mask="url(#path-28-inside-1_9882_57035)"/>
<g clip-path="url(#clip2_9882_57035)">
<path d="M278.667 218.667C282.717 218.667 286.001 215.383 286.001 211.333C286.001 207.283 282.717 204 278.667 204C274.617 204 271.334 207.283 271.334 211.333C271.334 215.383 274.617 218.667 278.667 218.667Z" fill="#DC244C"/>
<path d="M271.333 218.668H261.999C261.263 218.668 260.666 219.265 260.666 220.001V229.335C260.666 230.071 261.263 230.668 261.999 230.668H271.333C272.069 230.668 272.666 230.071 272.666 229.335V220.001C272.666 219.265 272.069 218.668 271.333 218.668Z" fill="#DC244C"/>
<path d="M268.577 213.004C268.635 212.903 268.666 212.788 268.666 212.671C268.666 212.554 268.635 212.439 268.577 212.338L262.577 201.671C262.514 201.574 262.428 201.495 262.326 201.439C262.225 201.384 262.111 201.355 261.995 201.355C261.88 201.355 261.766 201.384 261.665 201.439C261.563 201.495 261.477 201.574 261.414 201.671L255.414 212.338C255.356 212.44 255.325 212.555 255.326 212.673C255.327 212.79 255.359 212.905 255.418 213.006C255.478 213.108 255.563 213.191 255.665 213.249C255.768 213.307 255.883 213.336 256.001 213.335H268.001C268.117 213.335 268.232 213.304 268.333 213.246C268.434 213.188 268.518 213.105 268.577 213.004Z" fill="#DC244C"/>
</g>
<path d="M212.158 256H205.102V244.432H212.158V245.872H206.67V249.488H211.614V250.88H206.67V254.544H212.158V256ZM215.678 256H214.174V248.176H215.518L215.662 249.2C216.062 248.464 216.894 247.952 217.998 247.952C219.214 247.952 220.078 248.56 220.478 249.536C220.846 248.56 221.79 247.952 223.006 247.952C224.798 247.952 225.886 249.072 225.886 250.88V256H224.414V251.248C224.414 250.016 223.726 249.312 222.67 249.312C221.534 249.312 220.782 250.112 220.782 251.36V256H219.294V251.232C219.294 250 218.622 249.328 217.566 249.328C216.43 249.328 215.678 250.112 215.678 251.36V256ZM229.331 256H227.971V244.224H229.475V249.52C229.987 248.496 231.043 247.952 232.323 247.952C234.563 247.952 235.907 249.712 235.907 252.128C235.907 254.496 234.499 256.192 232.227 256.192C230.995 256.192 229.955 255.648 229.443 254.576L229.331 256ZM229.491 252.064C229.491 253.696 230.419 254.832 231.955 254.832C233.491 254.832 234.403 253.68 234.403 252.064C234.403 250.464 233.491 249.312 231.955 249.312C230.419 249.312 229.491 250.464 229.491 252.064ZM240.941 256.192C238.637 256.192 237.053 254.528 237.053 252.096C237.053 249.648 238.605 247.952 240.877 247.952C243.101 247.952 244.557 249.488 244.557 251.808V252.368L238.509 252.384C238.621 254.032 239.485 254.944 240.973 254.944C242.141 254.944 242.909 254.464 243.165 253.568H244.573C244.189 255.248 242.877 256.192 240.941 256.192ZM240.877 249.216C239.565 249.216 238.733 250 238.541 251.376H243.053C243.053 250.08 242.205 249.216 240.877 249.216ZM249.372 256.192C247.1 256.192 245.724 254.496 245.724 252.112C245.724 249.712 247.116 247.952 249.436 247.952C250.636 247.952 251.644 248.48 252.172 249.44V244.224H253.66V256H252.316L252.188 254.576C251.676 255.648 250.62 256.192 249.372 256.192ZM249.676 254.832C251.212 254.832 252.156 253.696 252.156 252.064C252.156 250.464 251.212 249.312 249.676 249.312C248.14 249.312 247.244 250.464 247.244 252.064C247.244 253.68 248.14 254.832 249.676 254.832ZM258.966 256.192C256.694 256.192 255.318 254.496 255.318 252.112C255.318 249.712 256.71 247.952 259.03 247.952C260.23 247.952 261.238 248.48 261.766 249.44V244.224H263.254V256H261.91L261.782 254.576C261.27 255.648 260.214 256.192 258.966 256.192ZM259.27 254.832C260.806 254.832 261.75 253.696 261.75 252.064C261.75 250.464 260.806 249.312 259.27 249.312C257.734 249.312 256.838 250.464 256.838 252.064C256.838 253.68 257.734 254.832 259.27 254.832ZM266.16 246.32C265.616 246.32 265.168 245.872 265.168 245.328C265.168 244.768 265.616 244.336 266.16 244.336C266.704 244.336 267.152 244.768 267.152 245.328C267.152 245.872 266.704 246.32 266.16 246.32ZM265.424 256V248.176H266.928V256H265.424ZM270.615 256H269.111V248.176H270.471L270.631 249.376C271.127 248.48 272.119 247.952 273.223 247.952C275.287 247.952 276.231 249.216 276.231 251.216V256H274.727V251.552C274.727 249.968 273.991 249.328 272.839 249.328C271.431 249.328 270.615 250.336 270.615 251.856V256ZM277.819 251.888C277.819 249.68 279.243 247.952 281.515 247.952C282.779 247.952 283.755 248.528 284.251 249.504L284.363 248.176H285.707V255.68C285.707 258.144 284.187 259.712 281.787 259.712C279.659 259.712 278.203 258.512 277.915 256.528H279.419C279.611 257.68 280.475 258.352 281.787 258.352C283.259 258.352 284.219 257.392 284.219 255.904V254.336C283.707 255.248 282.683 255.792 281.451 255.792C279.227 255.792 277.819 254.08 277.819 251.888ZM279.323 251.856C279.323 253.328 280.235 254.48 281.707 254.48C283.227 254.48 284.155 253.392 284.155 251.856C284.155 250.352 283.259 249.264 281.723 249.264C280.219 249.264 279.323 250.416 279.323 251.856ZM294.044 256H292.508V244.432H294.044L298.028 254.16L302.012 244.432H303.58V256H302.044V251.424C302.044 249.264 302.06 248.48 302.14 247.664L298.764 256H297.292L293.932 247.696C294.012 248.256 294.044 249.44 294.044 251.056V256ZM305.506 252.08C305.506 249.664 307.234 247.968 309.586 247.968C311.922 247.968 313.65 249.664 313.65 252.08C313.65 254.496 311.922 256.192 309.586 256.192C307.234 256.192 305.506 254.496 305.506 252.08ZM307.026 252.08C307.026 253.712 308.066 254.848 309.586 254.848C311.09 254.848 312.146 253.712 312.146 252.08C312.146 250.448 311.09 249.312 309.586 249.312C308.066 249.312 307.026 250.448 307.026 252.08ZM318.451 256.192C316.179 256.192 314.803 254.496 314.803 252.112C314.803 249.712 316.195 247.952 318.515 247.952C319.715 247.952 320.723 248.48 321.251 249.44V244.224H322.739V256H321.395L321.267 254.576C320.755 255.648 319.699 256.192 318.451 256.192ZM318.755 254.832C320.291 254.832 321.235 253.696 321.235 252.064C321.235 250.464 320.291 249.312 318.755 249.312C317.219 249.312 316.323 250.464 316.323 252.064C316.323 253.68 317.219 254.832 318.755 254.832ZM328.284 256.192C325.98 256.192 324.396 254.528 324.396 252.096C324.396 249.648 325.948 247.952 328.22 247.952C330.444 247.952 331.9 249.488 331.9 251.808V252.368L325.852 252.384C325.964 254.032 326.828 254.944 328.316 254.944C329.484 254.944 330.252 254.464 330.508 253.568H331.916C331.532 255.248 330.22 256.192 328.284 256.192ZM328.22 249.216C326.908 249.216 326.076 250 325.884 251.376H330.396C330.396 250.08 329.548 249.216 328.22 249.216ZM335.116 256H333.612V244.224H335.116V256Z" fill="#F0F3FA"/>
</g>
<path d="M206.2 465.12C204.48 465.12 203.27 463.65 203.27 461.51C203.27 459.33 204.49 457.9 206.21 457.9C207.93 457.9 209.14 459.32 209.14 461.51C209.14 462.83 208.59 463.94 207.79 464.43L208.58 464.28L209.45 464.22L209.16 465.12H206.2ZM206.21 464.22C207.26 464.22 208.02 463.13 208.02 461.51C208.02 459.86 207.26 458.8 206.21 458.8C205.16 458.8 204.4 459.85 204.4 461.51C204.4 463.14 205.16 464.22 206.21 464.22ZM210.394 465V458.02H212.544C214.574 458.02 215.844 459.38 215.844 461.49C215.844 463.62 214.574 465 212.544 465H210.394ZM211.454 464.1H212.544C213.904 464.1 214.734 463.07 214.734 461.49C214.734 459.92 213.904 458.92 212.544 458.92H211.454V464.1ZM217.258 465V458.02H220.008C221.388 458.02 222.398 458.76 222.398 460C222.398 460.88 221.708 461.72 220.538 461.99C221.718 462.83 222.248 463.91 222.348 465H221.268C221.128 463.91 220.468 462.84 219.158 462.08H218.318V465H217.258ZM220.008 458.92H218.318V461.18H219.788C220.658 461.18 221.288 460.72 221.288 460C221.288 459.34 220.718 458.92 220.008 458.92ZM225.602 458.02H227.122L229.282 465H228.192L227.652 463.24H225.052L224.512 465H223.442L225.602 458.02ZM225.942 460.39L225.332 462.34H227.382L226.782 460.38L226.362 458.85L225.942 460.39ZM230.486 465V458.02H231.806L234.716 463.62L234.636 461.46V458.02H235.656V465H234.346L231.416 459.46L231.506 461.55V465H230.486ZM239.24 465V458.92H236.99V458.02H242.55V458.92H240.3V465H239.24ZM253.297 465.12C251.447 465.12 250.297 463.62 250.297 461.5C250.297 459.3 251.517 457.9 253.337 457.9C254.797 457.9 255.937 458.8 256.067 460.28H254.907C254.797 459.38 254.207 458.8 253.327 458.8C252.187 458.8 251.407 459.84 251.407 461.51C251.407 463.2 252.207 464.22 253.297 464.22C254.217 464.22 254.857 463.61 254.937 462.66H256.107C255.967 464.15 254.917 465.12 253.297 465.12ZM257.731 465V458.02H258.791V464.1H262.451V465H257.731ZM266.595 465.12C264.815 465.12 263.655 463.71 263.655 461.51C263.655 459.3 264.815 457.9 266.595 457.9C268.375 457.9 269.535 459.29 269.535 461.51C269.535 463.72 268.375 465.12 266.595 465.12ZM266.595 464.22C267.685 464.22 268.425 463.17 268.425 461.51C268.425 459.84 267.685 458.8 266.595 458.8C265.505 458.8 264.765 459.85 264.765 461.51C264.765 463.17 265.505 464.22 266.595 464.22ZM273.299 465.12C271.649 465.12 270.579 464.08 270.579 462.52V458.02H271.649V462.52C271.649 463.54 272.299 464.21 273.299 464.21C274.289 464.21 274.939 463.54 274.939 462.52V458.02H276.009V462.52C276.009 464.08 274.929 465.12 273.299 465.12ZM277.433 465V458.02H279.583C281.613 458.02 282.883 459.38 282.883 461.49C282.883 463.62 281.613 465 279.583 465H277.433ZM278.493 464.1H279.583C280.943 464.1 281.773 463.07 281.773 461.49C281.773 459.92 280.943 458.92 279.583 458.92H278.493V464.1ZM293.521 465.12C291.671 465.12 290.521 463.62 290.521 461.5C290.521 459.3 291.741 457.9 293.561 457.9C295.021 457.9 296.161 458.8 296.291 460.28H295.131C295.021 459.38 294.431 458.8 293.551 458.8C292.411 458.8 291.631 459.84 291.631 461.51C291.631 463.2 292.431 464.22 293.521 464.22C294.441 464.22 295.081 463.61 295.161 462.66H296.331C296.191 464.15 295.141 465.12 293.521 465.12ZM297.955 465V458.02H299.015V464.1H302.675V465H297.955ZM306.819 465.12C305.169 465.12 304.099 464.08 304.099 462.52V458.02H305.169V462.52C305.169 463.54 305.819 464.21 306.819 464.21C307.809 464.21 308.459 463.54 308.459 462.52V458.02H309.529V462.52C309.529 464.08 308.449 465.12 306.819 465.12ZM313.612 465.12C311.992 465.12 310.942 464.17 310.942 462.51H311.992C311.992 463.61 312.592 464.22 313.602 464.22C314.452 464.22 315.022 463.81 315.022 463.1C315.022 461.41 311.052 462.39 311.052 459.87C311.052 458.73 312.022 457.9 313.492 457.9C314.922 457.9 316.022 458.72 316.052 460.08H314.992C314.972 459.29 314.312 458.8 313.492 458.8C312.702 458.8 312.162 459.2 312.162 459.84C312.162 461.42 316.132 460.39 316.132 463.09C316.132 464.33 315.052 465.12 313.612 465.12ZM319.686 465V458.92H317.436V458.02H322.996V458.92H320.746V465H319.686ZM324.5 465V458.02H329.51V458.92H325.56V460.93H328.28V461.83H325.56V464.1H329.55V465H324.5ZM331.224 465V458.02H333.974C335.354 458.02 336.364 458.76 336.364 460C336.364 460.88 335.674 461.72 334.504 461.99C335.684 462.83 336.214 463.91 336.314 465H335.234C335.094 463.91 334.434 462.84 333.124 462.08H332.284V465H331.224ZM333.974 458.92H332.284V461.18H333.754C334.624 461.18 335.254 460.72 335.254 460C335.254 459.34 334.684 458.92 333.974 458.92Z" fill="#8F98B3"/>
<mask id="path-35-inside-2_9882_57035" fill="white">
<path d="M50 354C50 351.791 51.7909 350 54 350H166C168.209 350 170 351.791 170 354V434C170 436.209 168.209 438 166 438H54C51.7909 438 50 436.209 50 434V354Z"/>
</mask>
<path d="M50 354C50 351.791 51.7909 350 54 350H166C168.209 350 170 351.791 170 354V434C170 436.209 168.209 438 166 438H54C51.7909 438 50 436.209 50 434V354Z" fill="url(#paint4_linear_9882_57035)"/>
<path d="M50 354C50 351.239 52.2386 349 55 349H165C167.761 349 170 351.239 170 354C170 352.343 168.209 351 166 351H54C51.7909 351 50 352.343 50 354ZM170 438H50H170ZM50 438V350V438ZM170 350V438V350Z" fill="#576280" mask="url(#path-35-inside-2_9882_57035)"/>
<path d="M110.062 389.346C105.094 389.346 97.4309 388.389 94.0625 385.172V398.911C94.0625 402.824 102.315 404.998 110.062 404.998C117.81 404.998 126.062 402.824 126.062 398.911V385.172C122.694 388.389 115.031 389.346 110.062 389.346Z" fill="url(#paint5_linear_9882_57035)"/>
<path d="M110.062 375.432C105.094 375.432 97.4309 374.475 94.0625 371.258V384.997C94.0625 388.91 102.315 391.084 110.062 391.084C117.81 391.084 126.062 388.91 126.062 384.997V371.258C122.694 374.475 115.031 375.432 110.062 375.432Z" fill="url(#paint6_linear_9882_57035)"/>
<path d="M110.062 365C102.315 365 94.0625 367.174 94.0625 371.087C94.0625 375 102.315 377.174 110.062 377.174C117.81 377.174 126.062 375 126.062 371.087C126.062 367.174 117.81 365 110.062 365Z" fill="url(#paint7_linear_9882_57035)"/>
<path d="M73.2466 422.12C71.3966 422.12 70.2466 420.62 70.2466 418.5C70.2466 416.3 71.4666 414.9 73.2866 414.9C74.7466 414.9 75.8866 415.8 76.0166 417.28H74.8566C74.7466 416.38 74.1566 415.8 73.2766 415.8C72.1366 415.8 71.3566 416.84 71.3566 418.51C71.3566 420.2 72.1566 421.22 73.2466 421.22C74.1666 421.22 74.8066 420.61 74.8866 419.66H76.0566C75.9166 421.15 74.8666 422.12 73.2466 422.12ZM79.8405 422.12C78.0605 422.12 76.9005 420.71 76.9005 418.51C76.9005 416.3 78.0605 414.9 79.8405 414.9C81.6205 414.9 82.7805 416.29 82.7805 418.51C82.7805 420.72 81.6205 422.12 79.8405 422.12ZM79.8405 421.22C80.9305 421.22 81.6705 420.17 81.6705 418.51C81.6705 416.84 80.9305 415.8 79.8405 415.8C78.7505 415.8 78.0105 416.85 78.0105 418.51C78.0105 420.17 78.7505 421.22 79.8405 421.22ZM84.3844 422V415.02H85.4444V421.1H89.1044V422H84.3844ZM91.0883 422V415.02H92.1483V421.1H95.8083V422H91.0883ZM97.5222 422V415.02H102.532V415.92H98.5822V417.93H101.302V418.83H98.5822V421.1H102.572V422H97.5222ZM106.766 422.12C104.916 422.12 103.766 420.62 103.766 418.5C103.766 416.3 104.986 414.9 106.806 414.9C108.266 414.9 109.406 415.8 109.536 417.28H108.376C108.266 416.38 107.676 415.8 106.796 415.8C105.656 415.8 104.876 416.84 104.876 418.51C104.876 420.2 105.676 421.22 106.766 421.22C107.686 421.22 108.326 420.61 108.406 419.66H109.576C109.436 421.15 108.386 422.12 106.766 422.12ZM112.82 422V415.92H110.57V415.02H116.13V415.92H113.88V422H112.82ZM117.774 421.1H119.524V415.92H117.774V415.02H122.324V415.92H120.584V421.1H122.324V422H117.774V421.1ZM126.768 422.12C124.988 422.12 123.828 420.71 123.828 418.51C123.828 416.3 124.988 414.9 126.768 414.9C128.548 414.9 129.708 416.29 129.708 418.51C129.708 420.72 128.548 422.12 126.768 422.12ZM126.768 421.22C127.858 421.22 128.598 420.17 128.598 418.51C128.598 416.84 127.858 415.8 126.768 415.8C125.678 415.8 124.938 416.85 124.938 418.51C124.938 420.17 125.678 421.22 126.768 421.22ZM130.882 422V415.02H132.202L135.112 420.62L135.032 418.46V415.02H136.052V422H134.742L131.812 416.46L131.902 418.55V422H130.882ZM146.11 415.02H147.63L149.79 422H148.7L148.16 420.24H145.56L145.02 422H143.95L146.11 415.02ZM146.45 417.39L145.84 419.34H147.89L147.29 417.38L146.87 415.85L146.45 417.39Z" fill="#8F98B3"/>
<mask id="path-41-inside-3_9882_57035" fill="white">
<path d="M210 354C210 351.791 211.791 350 214 350H326C328.209 350 330 351.791 330 354V434C330 436.209 328.209 438 326 438H214C211.791 438 210 436.209 210 434V354Z"/>
</mask>
<path d="M210 354C210 351.791 211.791 350 214 350H326C328.209 350 330 351.791 330 354V434C330 436.209 328.209 438 326 438H214C211.791 438 210 436.209 210 434V354Z" fill="url(#paint8_linear_9882_57035)"/>
<path d="M210 354C210 351.239 212.239 349 215 349H325C327.761 349 330 351.239 330 354C330 352.343 328.209 351 326 351H214C211.791 351 210 352.343 210 354ZM330 438H210H330ZM210 438V350V438ZM330 350V438V350Z" fill="#576280" mask="url(#path-41-inside-3_9882_57035)"/>
<path d="M270.062 389.346C265.094 389.346 257.431 388.389 254.062 385.172V398.911C254.062 402.824 262.315 404.998 270.062 404.998C277.81 404.998 286.062 402.824 286.062 398.911V385.172C282.694 388.389 275.031 389.346 270.062 389.346Z" fill="url(#paint9_linear_9882_57035)"/>
<path d="M270.062 375.432C265.094 375.432 257.431 374.475 254.062 371.258V384.997C254.062 388.91 262.315 391.084 270.062 391.084C277.81 391.084 286.062 388.91 286.062 384.997V371.258C282.694 374.475 275.031 375.432 270.062 375.432Z" fill="url(#paint10_linear_9882_57035)"/>
<path d="M270.062 365C262.315 365 254.062 367.174 254.062 371.087C254.062 375 262.315 377.174 270.062 377.174C277.81 377.174 286.062 375 286.062 371.087C286.062 367.174 277.81 365 270.062 365Z" fill="url(#paint11_linear_9882_57035)"/>
<path d="M233.247 422.12C231.397 422.12 230.247 420.62 230.247 418.5C230.247 416.3 231.467 414.9 233.287 414.9C234.747 414.9 235.887 415.8 236.017 417.28H234.857C234.747 416.38 234.157 415.8 233.277 415.8C232.137 415.8 231.357 416.84 231.357 418.51C231.357 420.2 232.157 421.22 233.247 421.22C234.167 421.22 234.807 420.61 234.887 419.66H236.057C235.917 421.15 234.867 422.12 233.247 422.12ZM239.84 422.12C238.06 422.12 236.9 420.71 236.9 418.51C236.9 416.3 238.06 414.9 239.84 414.9C241.62 414.9 242.78 416.29 242.78 418.51C242.78 420.72 241.62 422.12 239.84 422.12ZM239.84 421.22C240.93 421.22 241.67 420.17 241.67 418.51C241.67 416.84 240.93 415.8 239.84 415.8C238.75 415.8 238.01 416.85 238.01 418.51C238.01 420.17 238.75 421.22 239.84 421.22ZM244.384 422V415.02H245.444V421.1H249.104V422H244.384ZM251.088 422V415.02H252.148V421.1H255.808V422H251.088ZM257.522 422V415.02H262.532V415.92H258.582V417.93H261.302V418.83H258.582V421.1H262.572V422H257.522ZM266.766 422.12C264.916 422.12 263.766 420.62 263.766 418.5C263.766 416.3 264.986 414.9 266.806 414.9C268.266 414.9 269.406 415.8 269.536 417.28H268.376C268.266 416.38 267.676 415.8 266.796 415.8C265.656 415.8 264.876 416.84 264.876 418.51C264.876 420.2 265.676 421.22 266.766 421.22C267.686 421.22 268.326 420.61 268.406 419.66H269.576C269.436 421.15 268.386 422.12 266.766 422.12ZM272.82 422V415.92H270.57V415.02H276.13V415.92H273.88V422H272.82ZM277.774 421.1H279.524V415.92H277.774V415.02H282.324V415.92H280.584V421.1H282.324V422H277.774V421.1ZM286.768 422.12C284.988 422.12 283.828 420.71 283.828 418.51C283.828 416.3 284.988 414.9 286.768 414.9C288.548 414.9 289.708 416.29 289.708 418.51C289.708 420.72 288.548 422.12 286.768 422.12ZM286.768 421.22C287.858 421.22 288.598 420.17 288.598 418.51C288.598 416.84 287.858 415.8 286.768 415.8C285.678 415.8 284.938 416.85 284.938 418.51C284.938 420.17 285.678 421.22 286.768 421.22ZM290.882 422V415.02H292.202L295.112 420.62L295.032 418.46V415.02H296.052V422H294.742L291.812 416.46L291.902 418.55V422H290.882ZM308.25 418.34C309.01 418.55 309.57 419.12 309.57 420.04C309.57 421.22 308.63 422 307.16 422H304.46V415.02H307.06C308.53 415.02 309.4 415.71 309.4 416.76C309.4 417.5 308.98 418.12 308.25 418.34ZM307.01 415.92H305.52V417.98H307.01C307.79 417.98 308.29 417.56 308.29 416.92C308.29 416.29 307.78 415.92 307.01 415.92ZM305.52 421.1H307.14C307.95 421.1 308.46 420.67 308.46 419.99C308.46 419.29 307.92 418.88 307.04 418.88H305.52V421.1Z" fill="#8F98B3"/>
<mask id="path-47-inside-4_9882_57035" fill="white">
<path d="M370 354C370 351.791 371.791 350 374 350H486C488.209 350 490 351.791 490 354V434C490 436.209 488.209 438 486 438H374C371.791 438 370 436.209 370 434V354Z"/>
</mask>
<path d="M370 354C370 351.791 371.791 350 374 350H486C488.209 350 490 351.791 490 354V434C490 436.209 488.209 438 486 438H374C371.791 438 370 436.209 370 434V354Z" fill="url(#paint12_linear_9882_57035)"/>
<path d="M370 354C370 351.239 372.239 349 375 349H485C487.761 349 490 351.239 490 354C490 352.343 488.209 351 486 351H374C371.791 351 370 352.343 370 354ZM490 438H370H490ZM370 438V350V438ZM490 350V438V350Z" fill="#576280" mask="url(#path-47-inside-4_9882_57035)"/>
<path d="M430.062 389.346C425.094 389.346 417.431 388.389 414.062 385.172V398.911C414.062 402.824 422.315 404.998 430.062 404.998C437.81 404.998 446.062 402.824 446.062 398.911V385.172C442.694 388.389 435.031 389.346 430.062 389.346Z" fill="url(#paint13_linear_9882_57035)"/>
<path d="M430.062 375.432C425.094 375.432 417.431 374.475 414.062 371.258V384.997C414.062 388.91 422.315 391.084 430.062 391.084C437.81 391.084 446.062 388.91 446.062 384.997V371.258C442.694 374.475 435.031 375.432 430.062 375.432Z" fill="url(#paint14_linear_9882_57035)"/>
<path d="M430.062 365C422.315 365 414.062 367.174 414.062 371.087C414.062 375 422.315 377.174 430.062 377.174C437.81 377.174 446.062 375 446.062 371.087C446.062 367.174 437.81 365 430.062 365Z" fill="url(#paint15_linear_9882_57035)"/>
<path d="M393.247 422.12C391.397 422.12 390.247 420.62 390.247 418.5C390.247 416.3 391.467 414.9 393.287 414.9C394.747 414.9 395.887 415.8 396.017 417.28H394.857C394.747 416.38 394.157 415.8 393.277 415.8C392.137 415.8 391.357 416.84 391.357 418.51C391.357 420.2 392.157 421.22 393.247 421.22C394.167 421.22 394.807 420.61 394.887 419.66H396.057C395.917 421.15 394.867 422.12 393.247 422.12ZM399.84 422.12C398.06 422.12 396.9 420.71 396.9 418.51C396.9 416.3 398.06 414.9 399.84 414.9C401.62 414.9 402.78 416.29 402.78 418.51C402.78 420.72 401.62 422.12 399.84 422.12ZM399.84 421.22C400.93 421.22 401.67 420.17 401.67 418.51C401.67 416.84 400.93 415.8 399.84 415.8C398.75 415.8 398.01 416.85 398.01 418.51C398.01 420.17 398.75 421.22 399.84 421.22ZM404.384 422V415.02H405.444V421.1H409.104V422H404.384ZM411.088 422V415.02H412.148V421.1H415.808V422H411.088ZM417.522 422V415.02H422.532V415.92H418.582V417.93H421.302V418.83H418.582V421.1H422.572V422H417.522ZM426.766 422.12C424.916 422.12 423.766 420.62 423.766 418.5C423.766 416.3 424.986 414.9 426.806 414.9C428.266 414.9 429.406 415.8 429.536 417.28H428.376C428.266 416.38 427.676 415.8 426.796 415.8C425.656 415.8 424.876 416.84 424.876 418.51C424.876 420.2 425.676 421.22 426.766 421.22C427.686 421.22 428.326 420.61 428.406 419.66H429.576C429.436 421.15 428.386 422.12 426.766 422.12ZM432.82 422V415.92H430.57V415.02H436.13V415.92H433.88V422H432.82ZM437.774 421.1H439.524V415.92H437.774V415.02H442.324V415.92H440.584V421.1H442.324V422H437.774V421.1ZM446.768 422.12C444.988 422.12 443.828 420.71 443.828 418.51C443.828 416.3 444.988 414.9 446.768 414.9C448.548 414.9 449.708 416.29 449.708 418.51C449.708 420.72 448.548 422.12 446.768 422.12ZM446.768 421.22C447.858 421.22 448.598 420.17 448.598 418.51C448.598 416.84 447.858 415.8 446.768 415.8C445.678 415.8 444.938 416.85 444.938 418.51C444.938 420.17 445.678 421.22 446.768 421.22ZM450.882 422V415.02H452.202L455.112 420.62L455.032 418.46V415.02H456.052V422H454.742L451.812 416.46L451.902 418.55V422H450.882ZM466.99 422.12C465.14 422.12 463.99 420.62 463.99 418.5C463.99 416.3 465.21 414.9 467.03 414.9C468.49 414.9 469.63 415.8 469.76 417.28H468.6C468.49 416.38 467.9 415.8 467.02 415.8C465.88 415.8 465.1 416.84 465.1 418.51C465.1 420.2 465.9 421.22 466.99 421.22C467.91 421.22 468.55 420.61 468.63 419.66H469.8C469.66 421.15 468.61 422.12 466.99 422.12Z" fill="#8F98B3"/>
</g>
<rect x="24.5" y="160.5" width="491" height="319" rx="15.5" stroke="#3D4866"/>
<g filter="url(#filter14_d_9882_57035)">
<path d="M310 188L312.887 183L307.113 183L310 188ZM310 142L309.5 142L309.5 165L310 165L310.5 165L310.5 142L310 142ZM310 165L309.5 165L309.5 183.5L310 183.5L310.5 183.5L310.5 165L310 165Z" fill="#0040A1"/>
</g>
<g filter="url(#filter15_d_9882_57035)">
<path d="M230 188L232.887 183L227.113 183L230 188ZM230 142L229.5 142L229.5 165L230 165L230.5 165L230.5 142L230 142ZM230 165L229.5 165L229.5 183.5L230 183.5L230.5 183.5L230.5 165L230 165Z" fill="#0040A1"/>
</g>
<g filter="url(#filter16_dd_9882_57035)">
<mask id="path-55-inside-5_9882_57035" fill="white">
<path d="M179 8C179 3.58172 182.582 0 187 0H354C358.418 0 362 3.58172 362 8V32C362 36.4183 358.418 40 354 40H187C182.582 40 179 36.4183 179 32V8Z"/>
</mask>
<path d="M179 8C179 3.58172 182.582 0 187 0H354C358.418 0 362 3.58172 362 8V32C362 36.4183 358.418 40 354 40H187C182.582 40 179 36.4183 179 32V8Z" fill="url(#paint16_linear_9882_57035)" shape-rendering="crispEdges"/>
<path d="M179 8C179 3.02944 183.029 -1 188 -1H353C357.971 -1 362 3.02944 362 8C362 4.13401 358.418 1 354 1H187C182.582 1 179 4.13401 179 8ZM362 40H179H362ZM179 40V0V40ZM362 0V40V0Z" fill="#3D4866" mask="url(#path-55-inside-5_9882_57035)"/>
<g clip-path="url(#clip3_9882_57035)">
<path d="M209 10V16V18L212 16H217C217.552 16 218 15.552 218 15V10C218 9.448 217.552 9 217 9H210C209.448 9 209 9.448 209 10Z" stroke="#2F6FF0" stroke-width="2" stroke-miterlimit="10"/>
<path d="M205 19H198C196.895 19 196 19.895 196 21V29C196 30.105 196.895 31 198 31H212C213.105 31 214 30.105 214 29V21" stroke="#2F6FF0" stroke-width="2" stroke-miterlimit="10" stroke-linecap="square"/>
<path d="M201 15V13" stroke="#2F6FF0" stroke-width="2" stroke-miterlimit="10" stroke-linecap="square"/>
<path d="M201 13C201.552 13 202 12.5523 202 12C202 11.4477 201.552 11 201 11C200.448 11 200 11.4477 200 12C200 12.5523 200.448 13 201 13Z" fill="#2F6FF0" stroke="#2F6FF0" stroke-width="2" stroke-miterlimit="10" stroke-linecap="square"/>
<path d="M201.5 25C202.328 25 203 24.3284 203 23.5C203 22.6716 202.328 22 201.5 22C200.672 22 200 22.6716 200 23.5C200 24.3284 200.672 25 201.5 25Z" fill="#2F6FF0"/>
<path d="M208.5 25C209.328 25 210 24.3284 210 23.5C210 22.6716 209.328 22 208.5 22C207.672 22 207 22.6716 207 23.5C207 24.3284 207.672 25 208.5 25Z" fill="#2F6FF0"/>
</g>
<path d="M231.557 21.296L227.637 14.432H229.397L231.973 19.056C232.133 19.328 232.229 19.552 232.357 19.824C232.501 19.536 232.533 19.44 232.741 19.056L235.301 14.432H237.013L233.125 21.296V26H231.557V21.296ZM236.178 22.08C236.178 19.664 237.906 17.968 240.258 17.968C242.594 17.968 244.322 19.664 244.322 22.08C244.322 24.496 242.594 26.192 240.258 26.192C237.906 26.192 236.178 24.496 236.178 22.08ZM237.698 22.08C237.698 23.712 238.738 24.848 240.258 24.848C241.762 24.848 242.818 23.712 242.818 22.08C242.818 20.448 241.762 19.312 240.258 19.312C238.738 19.312 237.698 20.448 237.698 22.08ZM251.207 18.176H252.695V26H251.351L251.191 24.816C250.743 25.632 249.703 26.192 248.551 26.192C246.727 26.192 245.703 24.96 245.703 23.04V18.176H247.207V22.544C247.207 24.224 247.927 24.864 249.079 24.864C250.455 24.864 251.207 23.984 251.207 22.304V18.176ZM259.357 18.112V19.488H258.685C257.261 19.488 256.381 20.352 256.381 21.856V26H254.877V18.192H256.285L256.381 19.376C256.701 18.56 257.485 18.016 258.557 18.016C258.829 18.016 259.053 18.048 259.357 18.112ZM265.879 26H264.247L268.471 14.432H270.215L274.455 26H272.807L271.767 23.12H266.903L265.879 26ZM269.143 16.928L267.383 21.76H271.303L269.527 16.928C269.447 16.704 269.367 16.432 269.335 16.256C269.303 16.416 269.223 16.688 269.143 16.928ZM275.736 29.504V18.176H277.096L277.208 19.584C277.736 18.512 278.792 17.952 280.04 17.952C282.28 17.952 283.672 19.632 283.672 22.032C283.672 24.416 282.36 26.208 280.04 26.208C278.792 26.208 277.752 25.68 277.24 24.72V29.504H275.736ZM277.256 22.096C277.256 23.696 278.184 24.848 279.72 24.848C281.256 24.848 282.168 23.696 282.168 22.096C282.168 20.48 281.256 19.328 279.72 19.328C278.184 19.328 277.256 20.464 277.256 22.096ZM285.33 29.504V18.176H286.69L286.802 19.584C287.33 18.512 288.386 17.952 289.634 17.952C291.874 17.952 293.266 19.632 293.266 22.032C293.266 24.416 291.954 26.208 289.634 26.208C288.386 26.208 287.346 25.68 286.834 24.72V29.504H285.33ZM286.85 22.096C286.85 23.696 287.778 24.848 289.314 24.848C290.85 24.848 291.762 23.696 291.762 22.096C291.762 20.48 290.85 19.328 289.314 19.328C287.778 19.328 286.85 20.464 286.85 22.096ZM296.46 26H294.956V14.224H296.46V26ZM299.41 16.32C298.866 16.32 298.418 15.872 298.418 15.328C298.418 14.768 298.866 14.336 299.41 14.336C299.954 14.336 300.402 14.768 300.402 15.328C300.402 15.872 299.954 16.32 299.41 16.32ZM298.674 26V18.176H300.178V26H298.674ZM301.849 22.096C301.849 19.648 303.401 17.952 305.689 17.952C307.657 17.952 309.033 19.072 309.305 20.816H307.801C307.545 19.824 306.745 19.296 305.737 19.296C304.313 19.296 303.337 20.384 303.337 22.08C303.337 23.76 304.249 24.848 305.673 24.848C306.745 24.848 307.545 24.288 307.817 23.36H309.321C309.017 25.056 307.561 26.192 305.673 26.192C303.369 26.192 301.849 24.56 301.849 22.096ZM313.196 26.192C311.516 26.192 310.524 25.248 310.524 23.824C310.524 22.384 311.596 21.488 313.436 21.344L315.9 21.152V20.928C315.9 19.616 315.116 19.152 314.06 19.152C312.796 19.152 312.076 19.712 312.076 20.656H310.764C310.764 19.024 312.108 17.952 314.124 17.952C316.06 17.952 317.372 18.976 317.372 21.088V26H316.092L315.932 24.736C315.532 25.632 314.46 26.192 313.196 26.192ZM313.628 25.024C315.052 25.024 315.916 24.096 315.916 22.624V22.208L313.916 22.368C312.588 22.496 312.044 23.008 312.044 23.776C312.044 24.608 312.652 25.024 313.628 25.024ZM321.538 26H320.034V19.44H318.498V18.176H320.034V15.728H321.538V18.176H323.074V19.44H321.538V26ZM325.16 16.32C324.616 16.32 324.168 15.872 324.168 15.328C324.168 14.768 324.616 14.336 325.16 14.336C325.704 14.336 326.152 14.768 326.152 15.328C326.152 15.872 325.704 16.32 325.16 16.32ZM324.424 26V18.176H325.928V26H324.424ZM327.599 22.08C327.599 19.664 329.327 17.968 331.679 17.968C334.015 17.968 335.743 19.664 335.743 22.08C335.743 24.496 334.015 26.192 331.679 26.192C329.327 26.192 327.599 24.496 327.599 22.08ZM329.119 22.08C329.119 23.712 330.159 24.848 331.679 24.848C333.183 24.848 334.239 23.712 334.239 22.08C334.239 20.448 333.183 19.312 331.679 19.312C330.159 19.312 329.119 20.448 329.119 22.08ZM338.912 26H337.408V18.176H338.768L338.928 19.376C339.424 18.48 340.416 17.952 341.52 17.952C343.584 17.952 344.528 19.216 344.528 21.216V26H343.024V21.552C343.024 19.968 342.288 19.328 341.136 19.328C339.728 19.328 338.912 20.336 338.912 21.856V26Z" fill="#F0F3FA"/>
</g>
</g>
<defs>
<filter id="filter0_d_9882_57035" x="273.5" y="40" width="43.3867" height="48" filterUnits="userSpaceOnUse" color-interpolation-filters="sRGB">
<feFlood flood-opacity="0" result="BackgroundImageFix"/>
<feColorMatrix in="SourceAlpha" type="matrix" values="0 0 0 0 0 0 0 0 0 0 0 0 0 0 0 0 0 0 127 0" result="hardAlpha"/>
<feOffset dy="4"/>
<feGaussianBlur stdDeviation="2"/>
<feComposite in2="hardAlpha" operator="out"/>
<feColorMatrix type="matrix" values="0 0 0 0 0 0 0 0 0 0 0 0 0 0 0 0 0 0 0.25 0"/>
<feBlend mode="normal" in2="BackgroundImageFix" result="effect1_dropShadow_9882_57035"/>
<feBlend mode="normal" in="SourceGraphic" in2="effect1_dropShadow_9882_57035" result="shape"/>
</filter>
<filter id="filter1_d_9882_57035" x="223.113" y="40" width="43.3867" height="48" filterUnits="userSpaceOnUse" color-interpolation-filters="sRGB">
<feFlood flood-opacity="0" result="BackgroundImageFix"/>
<feColorMatrix in="SourceAlpha" type="matrix" values="0 0 0 0 0 0 0 0 0 0 0 0 0 0 0 0 0 0 127 0" result="hardAlpha"/>
<feOffset dy="4"/>
<feGaussianBlur stdDeviation="2"/>
<feComposite in2="hardAlpha" operator="out"/>
<feColorMatrix type="matrix" values="0 0 0 0 0 0 0 0 0 0 0 0 0 0 0 0 0 0 0.25 0"/>
<feBlend mode="normal" in2="BackgroundImageFix" result="effect1_dropShadow_9882_57035"/>
<feBlend mode="normal" in="SourceGraphic" in2="effect1_dropShadow_9882_57035" result="shape"/>
</filter>
<filter id="filter2_f_9882_57035" x="182.366" y="149.243" width="176.263" height="132.515" filterUnits="userSpaceOnUse" color-interpolation-filters="sRGB">
<feFlood flood-opacity="0" result="BackgroundImageFix"/>
<feBlend mode="normal" in="SourceGraphic" in2="BackgroundImageFix" result="shape"/>
<feGaussianBlur stdDeviation="26.8787" result="effect1_foregroundBlur_9882_57035"/>
</filter>
<filter id="filter3_f_9882_57035" x="182.366" y="184.243" width="176.263" height="132.515" filterUnits="userSpaceOnUse" color-interpolation-filters="sRGB">
<feFlood flood-opacity="0" result="BackgroundImageFix"/>
<feBlend mode="normal" in="SourceGraphic" in2="BackgroundImageFix" result="shape"/>
<feGaussianBlur stdDeviation="26.8787" result="effect1_foregroundBlur_9882_57035"/>
</filter>
<filter id="filter4_f_9882_57035" x="230.495" y="167.161" width="176.263" height="132.515" filterUnits="userSpaceOnUse" color-interpolation-filters="sRGB">
<feFlood flood-opacity="0" result="BackgroundImageFix"/>
<feBlend mode="normal" in="SourceGraphic" in2="BackgroundImageFix" result="shape"/>
<feGaussianBlur stdDeviation="26.8787" result="effect1_foregroundBlur_9882_57035"/>
</filter>
<filter id="filter5_f_9882_57035" x="134.243" y="167.161" width="176.263" height="132.515" filterUnits="userSpaceOnUse" color-interpolation-filters="sRGB">
<feFlood flood-opacity="0" result="BackgroundImageFix"/>
<feBlend mode="normal" in="SourceGraphic" in2="BackgroundImageFix" result="shape"/>
<feGaussianBlur stdDeviation="26.8787" result="effect1_foregroundBlur_9882_57035"/>
</filter>
<filter id="filter6_f_9882_57035" x="147.995" y="154.243" width="176.263" height="132.515" filterUnits="userSpaceOnUse" color-interpolation-filters="sRGB">
<feFlood flood-opacity="0" result="BackgroundImageFix"/>
<feBlend mode="normal" in="SourceGraphic" in2="BackgroundImageFix" result="shape"/>
<feGaussianBlur stdDeviation="26.8787" result="effect1_foregroundBlur_9882_57035"/>
</filter>
<filter id="filter7_f_9882_57035" x="216.743" y="154.243" width="176.263" height="132.515" filterUnits="userSpaceOnUse" color-interpolation-filters="sRGB">
<feFlood flood-opacity="0" result="BackgroundImageFix"/>
<feBlend mode="normal" in="SourceGraphic" in2="BackgroundImageFix" result="shape"/>
<feGaussianBlur stdDeviation="26.8787" result="effect1_foregroundBlur_9882_57035"/>
</filter>
<filter id="filter8_f_9882_57035" x="216.743" y="179.247" width="176.263" height="132.515" filterUnits="userSpaceOnUse" color-interpolation-filters="sRGB">
<feFlood flood-opacity="0" result="BackgroundImageFix"/>
<feBlend mode="normal" in="SourceGraphic" in2="BackgroundImageFix" result="shape"/>
<feGaussianBlur stdDeviation="26.8787" result="effect1_foregroundBlur_9882_57035"/>
</filter>
<filter id="filter9_f_9882_57035" x="147.995" y="179.247" width="176.263" height="132.515" filterUnits="userSpaceOnUse" color-interpolation-filters="sRGB">
<feFlood flood-opacity="0" result="BackgroundImageFix"/>
<feBlend mode="normal" in="SourceGraphic" in2="BackgroundImageFix" result="shape"/>
<feGaussianBlur stdDeviation="26.8787" result="effect1_foregroundBlur_9882_57035"/>
</filter>
<filter id="filter10_d_9882_57035" x="107.5" y="269" width="166" height="84" filterUnits="userSpaceOnUse" color-interpolation-filters="sRGB">
<feFlood flood-opacity="0" result="BackgroundImageFix"/>
<feColorMatrix in="SourceAlpha" type="matrix" values="0 0 0 0 0 0 0 0 0 0 0 0 0 0 0 0 0 0 127 0" result="hardAlpha"/>
<feOffset/>
<feGaussianBlur stdDeviation="1.5"/>
<feComposite in2="hardAlpha" operator="out"/>
<feColorMatrix type="matrix" values="0 0 0 0 1 0 0 0 0 0.371037 0 0 0 0 0.507768 0 0 0 1 0"/>
<feBlend mode="normal" in2="BackgroundImageFix" result="effect1_dropShadow_9882_57035"/>
<feBlend mode="normal" in="SourceGraphic" in2="effect1_dropShadow_9882_57035" result="shape"/>
</filter>
<filter id="filter11_d_9882_57035" x="267.43" y="269" width="165.07" height="84" filterUnits="userSpaceOnUse" color-interpolation-filters="sRGB">
<feFlood flood-opacity="0" result="BackgroundImageFix"/>
<feColorMatrix in="SourceAlpha" type="matrix" values="0 0 0 0 0 0 0 0 0 0 0 0 0 0 0 0 0 0 127 0" result="hardAlpha"/>
<feOffset/>
<feGaussianBlur stdDeviation="1.5"/>
<feComposite in2="hardAlpha" operator="out"/>
<feColorMatrix type="matrix" values="0 0 0 0 1 0 0 0 0 0.371037 0 0 0 0 0.507768 0 0 0 1 0"/>
<feBlend mode="normal" in2="BackgroundImageFix" result="effect1_dropShadow_9882_57035"/>
<feBlend mode="normal" in="SourceGraphic" in2="effect1_dropShadow_9882_57035" result="shape"/>
</filter>
<filter id="filter12_d_9882_57035" x="267" y="269" width="7" height="84" filterUnits="userSpaceOnUse" color-interpolation-filters="sRGB">
<feFlood flood-opacity="0" result="BackgroundImageFix"/>
<feColorMatrix in="SourceAlpha" type="matrix" values="0 0 0 0 0 0 0 0 0 0 0 0 0 0 0 0 0 0 127 0" result="hardAlpha"/>
<feOffset/>
<feGaussianBlur stdDeviation="1.5"/>
<feComposite in2="hardAlpha" operator="out"/>
<feColorMatrix type="matrix" values="0 0 0 0 1 0 0 0 0 0.371037 0 0 0 0 0.507768 0 0 0 1 0"/>
<feBlend mode="normal" in2="BackgroundImageFix" result="effect1_dropShadow_9882_57035"/>
<feBlend mode="normal" in="SourceGraphic" in2="effect1_dropShadow_9882_57035" result="shape"/>
</filter>
<filter id="filter13_dd_9882_57035" x="167.5" y="178" width="205" height="124" filterUnits="userSpaceOnUse" color-interpolation-filters="sRGB">
<feFlood flood-opacity="0" result="BackgroundImageFix"/>
<feColorMatrix in="SourceAlpha" type="matrix" values="0 0 0 0 0 0 0 0 0 0 0 0 0 0 0 0 0 0 127 0" result="hardAlpha"/>
<feOffset dy="10"/>
<feGaussianBlur stdDeviation="10"/>
<feComposite in2="hardAlpha" operator="out"/>
<feColorMatrix type="matrix" values="0 0 0 0 0.088 0 0 0 0 0.117867 0 0 0 0 0.2 0 0 0 0.1 0"/>
<feBlend mode="normal" in2="BackgroundImageFix" result="effect1_dropShadow_9882_57035"/>
<feColorMatrix in="SourceAlpha" type="matrix" values="0 0 0 0 0 0 0 0 0 0 0 0 0 0 0 0 0 0 127 0" result="hardAlpha"/>
<feOffset dy="1"/>
<feGaussianBlur stdDeviation="1"/>
<feComposite in2="hardAlpha" operator="out"/>
<feColorMatrix type="matrix" values="0 0 0 0 0.088 0 0 0 0 0.117867 0 0 0 0 0.2 0 0 0 0.1 0"/>
<feBlend mode="normal" in2="effect1_dropShadow_9882_57035" result="effect2_dropShadow_9882_57035"/>
<feBlend mode="normal" in="SourceGraphic" in2="effect2_dropShadow_9882_57035" result="shape"/>
</filter>
<filter id="filter14_d_9882_57035" x="303.113" y="142" width="13.7734" height="54" filterUnits="userSpaceOnUse" color-interpolation-filters="sRGB">
<feFlood flood-opacity="0" result="BackgroundImageFix"/>
<feColorMatrix in="SourceAlpha" type="matrix" values="0 0 0 0 0 0 0 0 0 0 0 0 0 0 0 0 0 0 127 0" result="hardAlpha"/>
<feOffset dy="4"/>
<feGaussianBlur stdDeviation="2"/>
<feComposite in2="hardAlpha" operator="out"/>
<feColorMatrix type="matrix" values="0 0 0 0 0 0 0 0 0 0 0 0 0 0 0 0 0 0 0.25 0"/>
<feBlend mode="normal" in2="BackgroundImageFix" result="effect1_dropShadow_9882_57035"/>
<feBlend mode="normal" in="SourceGraphic" in2="effect1_dropShadow_9882_57035" result="shape"/>
</filter>
<filter id="filter15_d_9882_57035" x="223.113" y="142" width="13.7734" height="54" filterUnits="userSpaceOnUse" color-interpolation-filters="sRGB">
<feFlood flood-opacity="0" result="BackgroundImageFix"/>
<feColorMatrix in="SourceAlpha" type="matrix" values="0 0 0 0 0 0 0 0 0 0 0 0 0 0 0 0 0 0 127 0" result="hardAlpha"/>
<feOffset dy="4"/>
<feGaussianBlur stdDeviation="2"/>
<feComposite in2="hardAlpha" operator="out"/>
<feColorMatrix type="matrix" values="0 0 0 0 0 0 0 0 0 0 0 0 0 0 0 0 0 0 0.25 0"/>
<feBlend mode="normal" in2="BackgroundImageFix" result="effect1_dropShadow_9882_57035"/>
<feBlend mode="normal" in="SourceGraphic" in2="effect1_dropShadow_9882_57035" result="shape"/>
</filter>
<filter id="filter16_dd_9882_57035" x="159" y="-10" width="223" height="80" filterUnits="userSpaceOnUse" color-interpolation-filters="sRGB">
<feFlood flood-opacity="0" result="BackgroundImageFix"/>
<feColorMatrix in="SourceAlpha" type="matrix" values="0 0 0 0 0 0 0 0 0 0 0 0 0 0 0 0 0 0 127 0" result="hardAlpha"/>
<feOffset dy="10"/>
<feGaussianBlur stdDeviation="10"/>
<feComposite in2="hardAlpha" operator="out"/>
<feColorMatrix type="matrix" values="0 0 0 0 0.088 0 0 0 0 0.117867 0 0 0 0 0.2 0 0 0 0.1 0"/>
<feBlend mode="normal" in2="BackgroundImageFix" result="effect1_dropShadow_9882_57035"/>
<feColorMatrix in="SourceAlpha" type="matrix" values="0 0 0 0 0 0 0 0 0 0 0 0 0 0 0 0 0 0 127 0" result="hardAlpha"/>
<feOffset dy="1"/>
<feGaussianBlur stdDeviation="1"/>
<feComposite in2="hardAlpha" operator="out"/>
<feColorMatrix type="matrix" values="0 0 0 0 0.088 0 0 0 0 0.117867 0 0 0 0 0.2 0 0 0 0.1 0"/>
<feBlend mode="normal" in2="effect1_dropShadow_9882_57035" result="effect2_dropShadow_9882_57035"/>
<feBlend mode="normal" in="SourceGraphic" in2="effect2_dropShadow_9882_57035" result="shape"/>
</filter>
<linearGradient id="paint0_linear_9882_57035" x1="271.73" y1="272" x2="271.727" y2="343.008" gradientUnits="userSpaceOnUse">
<stop stop-color="#161E33" stop-opacity="0"/>
<stop offset="0.26" stop-color="#3D4866"/>
<stop offset="0.735" stop-color="#3D4866"/>
<stop offset="0.99" stop-color="#161E33" stop-opacity="0"/>
</linearGradient>
<linearGradient id="paint1_linear_9882_57035" x1="269.21" y1="272" x2="269.213" y2="343.008" gradientUnits="userSpaceOnUse">
<stop stop-color="#161E33" stop-opacity="0"/>
<stop offset="0.26" stop-color="#3D4866"/>
<stop offset="0.735" stop-color="#3D4866"/>
<stop offset="0.99" stop-color="#161E33" stop-opacity="0"/>
</linearGradient>
<linearGradient id="paint2_linear_9882_57035" x1="268.989" y1="272" x2="269.464" y2="343.005" gradientUnits="userSpaceOnUse">
<stop stop-color="#161E33" stop-opacity="0"/>
<stop offset="0.26" stop-color="#3D4866"/>
<stop offset="0.735" stop-color="#3D4866"/>
<stop offset="0.99" stop-color="#161E33" stop-opacity="0"/>
</linearGradient>
<linearGradient id="paint3_linear_9882_57035" x1="270" y1="188" x2="270" y2="272" gradientUnits="userSpaceOnUse">
<stop stop-color="#28324D"/>
<stop offset="1" stop-color="#141B2E"/>
</linearGradient>
<linearGradient id="paint4_linear_9882_57035" x1="110" y1="350" x2="110" y2="438" gradientUnits="userSpaceOnUse">
<stop stop-color="#28324D"/>
<stop offset="1" stop-color="#141B2E"/>
</linearGradient>
<linearGradient id="paint5_linear_9882_57035" x1="110.063" y1="389.998" x2="110.063" y2="404.998" gradientUnits="userSpaceOnUse">
<stop stop-color="#2861D3"/>
<stop offset="1" stop-color="#7335F0"/>
</linearGradient>
<linearGradient id="paint6_linear_9882_57035" x1="110.062" y1="376.747" x2="110.062" y2="391.084" gradientUnits="userSpaceOnUse">
<stop stop-color="#779CE6"/>
<stop offset="1" stop-color="#2567EB"/>
</linearGradient>
<linearGradient id="paint7_linear_9882_57035" x1="110.062" y1="365" x2="110.062" y2="377.174" gradientUnits="userSpaceOnUse">
<stop stop-color="#D0D0FB"/>
<stop offset="1" stop-color="#81A7F3"/>
</linearGradient>
<linearGradient id="paint8_linear_9882_57035" x1="270" y1="350" x2="270" y2="438" gradientUnits="userSpaceOnUse">
<stop stop-color="#28324D"/>
<stop offset="1" stop-color="#141B2E"/>
</linearGradient>
<linearGradient id="paint9_linear_9882_57035" x1="270.063" y1="389.998" x2="270.063" y2="404.998" gradientUnits="userSpaceOnUse">
<stop stop-color="#2861D3"/>
<stop offset="1" stop-color="#7335F0"/>
</linearGradient>
<linearGradient id="paint10_linear_9882_57035" x1="270.062" y1="376.747" x2="270.062" y2="391.084" gradientUnits="userSpaceOnUse">
<stop stop-color="#779CE6"/>
<stop offset="1" stop-color="#2567EB"/>
</linearGradient>
<linearGradient id="paint11_linear_9882_57035" x1="270.062" y1="365" x2="270.062" y2="377.174" gradientUnits="userSpaceOnUse">
<stop stop-color="#D0D0FB"/>
<stop offset="1" stop-color="#81A7F3"/>
</linearGradient>
<linearGradient id="paint12_linear_9882_57035" x1="430" y1="350" x2="430" y2="438" gradientUnits="userSpaceOnUse">
<stop stop-color="#28324D"/>
<stop offset="1" stop-color="#141B2E"/>
</linearGradient>
<linearGradient id="paint13_linear_9882_57035" x1="430.063" y1="389.998" x2="430.063" y2="404.998" gradientUnits="userSpaceOnUse">
<stop stop-color="#2861D3"/>
<stop offset="1" stop-color="#7335F0"/>
</linearGradient>
<linearGradient id="paint14_linear_9882_57035" x1="430.062" y1="376.747" x2="430.062" y2="391.084" gradientUnits="userSpaceOnUse">
<stop stop-color="#779CE6"/>
<stop offset="1" stop-color="#2567EB"/>
</linearGradient>
<linearGradient id="paint15_linear_9882_57035" x1="430.062" y1="365" x2="430.062" y2="377.174" gradientUnits="userSpaceOnUse">
<stop stop-color="#D0D0FB"/>
<stop offset="1" stop-color="#81A7F3"/>
</linearGradient>
<linearGradient id="paint16_linear_9882_57035" x1="270.5" y1="0" x2="270.5" y2="40" gradientUnits="userSpaceOnUse">
<stop stop-color="#28324D"/>
<stop offset="1" stop-color="#141B2E"/>
</linearGradient>
<clipPath id="clip0_9882_57035">
<rect width="540" height="480" fill="white"/>
</clipPath>
<clipPath id="clip1_9882_57035">
<rect x="24" y="160" width="492" height="320" rx="16" fill="white"/>
</clipPath>
<clipPath id="clip2_9882_57035">
<rect width="32" height="32" fill="white" transform="translate(254 200)"/>
</clipPath>
<clipPath id="clip3_9882_57035">
<rect width="24" height="24" fill="white" transform="translate(195 8)"/>
</clipPath>
</defs>
</svg>
