<svg width="301" height="211" viewBox="0 0 301 211" fill="none" xmlns="http://www.w3.org/2000/svg">
<g clip-path="url(#clip0_2725_13145)">
<circle cx="150.5" cy="254.256" r="156" fill="url(#paint0_linear_2725_13145)"/>
<path d="M190.271 142.255C176.771 150.255 155.864 141.545 139.271 132.755C122.677 123.966 106.704 117.486 114.771 102.255C122.839 87.0246 156.677 86.9662 173.271 95.7555C189.864 104.545 203.771 134.255 190.271 142.255Z" fill="#161E33"/>
<path d="M144.771 91.9513C134.834 91.9513 119.507 90.0383 112.771 83.6035V111.082C112.771 118.908 129.276 123.256 144.771 123.256C160.265 123.256 176.771 118.908 176.771 111.082V83.6035C170.034 90.0383 154.707 91.9513 144.771 91.9513Z" fill="url(#paint1_linear_2725_13145)"/>
<path d="M144.771 64.1253C134.834 64.1253 119.507 62.2122 112.771 55.7773V83.2557C112.771 91.0818 129.276 95.4296 144.771 95.4296C160.265 95.4296 176.771 91.0818 176.771 83.2557V55.7773C170.034 62.2122 154.707 64.1253 144.771 64.1253Z" fill="url(#paint2_linear_2725_13145)"/>
<path d="M144.771 43.2559C129.276 43.2559 112.771 47.6037 112.771 55.4298C112.771 63.2559 129.276 67.6037 144.771 67.6037C160.265 67.6037 176.771 63.2559 176.771 55.4298C176.771 47.6037 160.265 43.2559 144.771 43.2559Z" fill="url(#paint3_linear_2725_13145)"/>
<g clip-path="url(#clip1_2725_13145)">
<path d="M194.103 102.59C188.589 102.59 184.103 107.076 184.103 112.59C184.103 118.104 188.589 122.59 194.103 122.59C199.617 122.59 204.103 118.104 204.103 112.59C204.103 107.076 199.617 102.59 194.103 102.59Z" fill="url(#paint4_linear_2725_13145)"/>
<path d="M198.771 113.256H194.771V117.256C194.771 117.625 194.473 117.923 194.104 117.923C193.735 117.923 193.437 117.625 193.437 117.256V113.256H189.437C189.069 113.256 188.771 112.958 188.771 112.589C188.771 112.221 189.069 111.923 189.437 111.923H193.437V107.923C193.437 107.554 193.735 107.256 194.104 107.256C194.473 107.256 194.771 107.554 194.771 107.923V111.923H198.771C199.139 111.923 199.437 112.221 199.437 112.589C199.437 112.958 199.139 113.256 198.771 113.256Z" fill="white"/>
<path d="M188.769 97.9232L174.103 92.5898L179.436 107.257L182.103 100.59L188.769 97.9232Z" fill="#161E33"/>
<path d="M179.437 107.923C179.433 107.923 179.429 107.923 179.426 107.923C179.149 107.918 178.905 107.744 178.81 107.484L173.477 92.8175C173.388 92.5742 173.449 92.3008 173.632 92.1182C173.814 91.9348 174.087 91.8742 174.331 91.9635L188.998 97.2968C189.258 97.3915 189.432 97.6362 189.437 97.9128C189.441 98.1888 189.275 98.4395 189.017 98.5422L182.616 101.103L180.055 107.504C179.954 107.758 179.709 107.923 179.437 107.923ZM175.218 93.7042L179.467 105.387L181.484 100.342C181.552 100.172 181.686 100.038 181.856 99.9702L186.901 97.9528L175.218 93.7042Z" fill="#E1E5F0"/>
</g>
<path d="M41.479 77.7197L37.6035 79.965V84.4557L41.479 86.701L45.3545 84.4557V79.965L41.479 77.7197Z" fill="#8547FF"/>
<path d="M228.199 66.5711L227.047 70.8992L230.222 74.0746L234.55 72.9219L235.703 68.5938L232.527 65.4184L228.199 66.5711Z" fill="#008A53"/>
<path d="M74.1994 28.5711L73.0467 32.8992L76.222 36.0746L80.5501 34.9219L81.7028 30.5938L78.5274 27.4184L74.1994 28.5711Z" fill="#E0700D"/>
<path d="M175.375 18.2559L171.5 20.5012V24.9918L175.375 27.2371L179.251 24.9918V20.5012L175.375 18.2559Z" fill="#DC244C"/>
</g>
<defs>
<linearGradient id="paint0_linear_2725_13145" x1="150.5" y1="98.2559" x2="150.5" y2="410.256" gradientUnits="userSpaceOnUse">
<stop stop-color="#161E33"/>
<stop offset="1" stop-color="#0E1424"/>
</linearGradient>
<linearGradient id="paint1_linear_2725_13145" x1="144.771" y1="93.2557" x2="144.771" y2="123.256" gradientUnits="userSpaceOnUse">
<stop stop-color="#2861D3"/>
<stop offset="1" stop-color="#7335F0"/>
</linearGradient>
<linearGradient id="paint2_linear_2725_13145" x1="144.771" y1="66.7557" x2="144.771" y2="95.4296" gradientUnits="userSpaceOnUse">
<stop stop-color="#779CE6"/>
<stop offset="1" stop-color="#2567EB"/>
</linearGradient>
<linearGradient id="paint3_linear_2725_13145" x1="144.771" y1="43.2559" x2="144.771" y2="67.6037" gradientUnits="userSpaceOnUse">
<stop stop-color="#D0D0FB"/>
<stop offset="1" stop-color="#81A7F3"/>
</linearGradient>
<linearGradient id="paint4_linear_2725_13145" x1="200.103" y1="103.923" x2="187.103" y2="120.59" gradientUnits="userSpaceOnUse">
<stop stop-color="#14A33A"/>
<stop offset="1" stop-color="#0E8F8F"/>
</linearGradient>
<clipPath id="clip0_2725_13145">
<rect width="300" height="210" fill="white" transform="translate(0.5 0.255859)"/>
</clipPath>
<clipPath id="clip1_2725_13145">
<rect width="32" height="32" fill="white" transform="translate(172.771 91.2559)"/>
</clipPath>
</defs>
</svg>
