<svg width="300" height="210" viewBox="0 0 300 210" fill="none" xmlns="http://www.w3.org/2000/svg">
<path d="M28.8755 112L25 114.245V118.736L28.8755 120.981L32.751 118.736V114.245L28.8755 112Z" fill="#8547FF"/>
<path d="M41.7404 54.7401L40.5877 59.0682L43.763 62.2435L48.0911 61.0908L49.2438 56.7627L46.0684 53.5874L41.7404 54.7401Z" fill="#E0700D"/>
<path d="M239.74 48.7401L238.588 53.0682L241.763 56.2435L246.091 55.0908L247.244 50.7627L244.068 47.5874L239.74 48.7401Z" fill="#2F6FF0"/>
<path d="M256.74 104.74L255.588 109.068L258.763 112.244L263.091 111.091L264.244 106.763L261.068 103.587L256.74 104.74Z" fill="#DC244C"/>
<path opacity="0.5" d="M150 184C189.212 184 221 181.761 221 179C221 176.239 189.212 174 150 174C110.788 174 79 176.239 79 179C79 181.761 110.788 184 150 184Z" fill="#3D4866"/>
<path d="M174.913 30.5217V102.87L147.783 130H93.5217C91.0235 130 89 127.977 89 125.478V30.5217C89 28.0235 91.0235 26 93.5217 26H170.391C172.89 26 174.913 28.0235 174.913 30.5217Z" fill="url(#paint0_linear_10262_36961)"/>
<mask id="mask0_10262_36961" style="mask-type:alpha" maskUnits="userSpaceOnUse" x="89" y="26" width="86" height="104">
<path d="M174.913 30.5217V102.87L147.783 130H93.5217C91.0235 130 89 127.977 89 125.478V30.5217C89 28.0235 91.0235 26 93.5217 26H170.391C172.89 26 174.913 28.0235 174.913 30.5217Z" fill="url(#paint1_linear_10262_36961)"/>
</mask>
<g mask="url(#mask0_10262_36961)">
<g opacity="0.1" filter="url(#filter0_f_10262_36961)">
<path d="M186.913 115.87L159.783 143H105.522C103.023 143 101 140.977 101 138.478V43.5217C101 41.0235 103.023 39 105.522 39H168.5L186.377 55.5C186.377 66.5 186.913 95.8387 186.913 115.87Z" fill="#090E1A"/>
</g>
</g>
<path d="M147.781 130.002V107.393C147.781 104.895 149.805 102.871 152.303 102.871H174.912L147.781 130.002Z" fill="#002020"/>
<path d="M188.436 148H111.567C109.068 148 107.045 145.977 107.045 143.478V48.5217C107.045 46.0235 109.068 44 111.567 44H165.828L192.958 71.1304V143.478C192.958 145.977 190.934 148 188.436 148Z" fill="url(#paint2_linear_10262_36961)"/>
<path d="M165.826 44V66.6087C165.826 69.107 167.85 71.1304 170.348 71.1304H192.957L165.826 44Z" fill="#0040A1"/>
<path d="M140.956 114.086C140.377 114.086 139.798 113.865 139.357 113.424L125.792 99.8587C124.908 98.9747 124.908 97.5458 125.792 96.6618L139.357 83.0966C140.241 82.2126 141.67 82.2126 142.554 83.0966C143.438 83.9806 143.438 85.4095 142.554 86.2935L130.587 98.2602L142.554 110.227C143.438 111.111 143.438 112.54 142.554 113.424C142.113 113.865 141.534 114.086 140.956 114.086Z" fill="#D9E2FE"/>
<path d="M159.045 114.086C158.466 114.086 157.887 113.865 157.446 113.424C156.562 112.54 156.562 111.111 157.446 110.227L169.413 98.2602L157.446 86.2935C156.562 85.4095 156.562 83.9806 157.446 83.0966C158.33 82.2126 159.759 82.2126 160.643 83.0966L174.208 96.6618C175.092 97.5458 175.092 98.9747 174.208 99.8587L160.643 113.424C160.202 113.865 159.623 114.086 159.045 114.086Z" fill="#D9E2FE"/>
<path d="M218 101.5H188C186.619 101.5 185.5 102.619 185.5 104V134C185.5 135.381 186.619 136.5 188 136.5H218C219.381 136.5 220.5 135.381 220.5 134V104C220.5 102.619 219.381 101.5 218 101.5Z" fill="#8547FF"/>
<path d="M193.833 127.335C193.668 127.335 193.507 127.286 193.37 127.194C193.233 127.103 193.126 126.972 193.063 126.82C193 126.668 192.984 126.5 193.016 126.339C193.048 126.177 193.127 126.029 193.244 125.912L200.155 119.001L193.244 112.09C193.092 111.933 193.008 111.723 193.01 111.504C193.012 111.286 193.1 111.077 193.254 110.922C193.409 110.768 193.618 110.68 193.836 110.678C194.055 110.676 194.265 110.76 194.422 110.912L201.922 118.412C202.079 118.568 202.166 118.78 202.166 119.001C202.166 119.222 202.079 119.434 201.922 119.59L194.422 127.09C194.266 127.247 194.054 127.335 193.833 127.335ZM212.166 127.335H202.166C201.945 127.335 201.734 127.247 201.577 127.091C201.421 126.934 201.333 126.722 201.333 126.501C201.333 126.28 201.421 126.068 201.577 125.912C201.734 125.756 201.945 125.668 202.166 125.668H212.166C212.388 125.668 212.599 125.756 212.756 125.912C212.912 126.068 213 126.28 213 126.501C213 126.722 212.912 126.934 212.756 127.091C212.599 127.247 212.388 127.335 212.166 127.335ZM212.166 119.835H207.166C206.945 119.835 206.734 119.747 206.577 119.591C206.421 119.434 206.333 119.222 206.333 119.001C206.333 118.78 206.421 118.568 206.577 118.412C206.734 118.256 206.945 118.168 207.166 118.168H212.166C212.388 118.168 212.599 118.256 212.756 118.412C212.912 118.568 213 118.78 213 119.001C213 119.222 212.912 119.434 212.756 119.591C212.599 119.747 212.388 119.835 212.166 119.835ZM212.166 112.335H202.166C201.945 112.335 201.734 112.247 201.577 112.091C201.421 111.934 201.333 111.722 201.333 111.501C201.333 111.28 201.421 111.068 201.577 110.912C201.734 110.756 201.945 110.668 202.166 110.668H212.166C212.388 110.668 212.599 110.756 212.756 110.912C212.912 111.068 213 111.28 213 111.501C213 111.722 212.912 111.934 212.756 112.091C212.599 112.247 212.388 112.335 212.166 112.335Z" fill="#EADDFF"/>
<defs>
<filter id="filter0_f_10262_36961" x="93" y="31" width="101.912" height="120" filterUnits="userSpaceOnUse" color-interpolation-filters="sRGB">
<feFlood flood-opacity="0" result="BackgroundImageFix"/>
<feBlend mode="normal" in="SourceGraphic" in2="BackgroundImageFix" result="shape"/>
<feGaussianBlur stdDeviation="4" result="effect1_foregroundBlur_10262_36961"/>
</filter>
<linearGradient id="paint0_linear_10262_36961" x1="71" y1="-74.5" x2="145.162" y2="73.4058" gradientUnits="userSpaceOnUse">
<stop stop-color="#D9E2FE"/>
<stop offset="0.485" stop-color="#89A9FF"/>
<stop offset="1" stop-color="#2F6FF0"/>
</linearGradient>
<linearGradient id="paint1_linear_10262_36961" x1="61" y1="-80" x2="121.511" y2="41.2515" gradientUnits="userSpaceOnUse">
<stop stop-color="#D9E2FE"/>
<stop offset="0.485" stop-color="#89A9FF"/>
<stop offset="1" stop-color="#2F6FF0"/>
</linearGradient>
<linearGradient id="paint2_linear_10262_36961" x1="141.327" y1="17.024" x2="160.841" y2="115.745" gradientUnits="userSpaceOnUse">
<stop stop-color="#D9E2FE"/>
<stop offset="0.485" stop-color="#89A9FF"/>
<stop offset="1" stop-color="#2F6FF0"/>
</linearGradient>
</defs>
</svg>
