<svg width="550" height="520" viewBox="0 0 550 520" fill="none" xmlns="http://www.w3.org/2000/svg">
<path d="M275 461L275 142" stroke="#28324D"/>
<path d="M275 316V321.057C275 329.894 282.163 337.057 291 337.057H419C427.837 337.057 435 344.22 435 353.057V482" stroke="#28324D"/>
<path d="M275 316V321.307C275 330.144 282.163 337.307 291 337.307H499C507.837 337.307 515 344.471 515 353.307V482" stroke="#28324D"/>
<path d="M275 316V321.057C275 329.894 282.163 337.057 291 337.057H339C347.837 337.057 355 344.22 355 353.057V482" stroke="#28324D"/>
<path d="M275 316V321.057C275 329.894 267.837 337.057 259 337.057H211C202.163 337.057 195 344.22 195 353.057V482" stroke="#28324D"/>
<path d="M275 312V320.722C275 329.558 267.837 336.722 259 336.722H131C122.163 336.722 115 343.885 115 352.722V482" stroke="#28324D"/>
<path d="M275 316V321.307C275 330.144 267.837 337.307 259 337.307H51C42.1634 337.307 35 344.471 35 353.307V482" stroke="#28324D"/>
<g clip-path="url(#clip0_1276_6836)">
<rect x="7" y="456" width="56" height="56" rx="5.6" fill="url(#paint0_linear_1276_6836)"/>
<path d="M35.0018 499.4V493.428C41.3233 493.428 46.2304 487.159 43.8031 480.505C42.9125 478.06 40.9392 476.087 38.4769 475.197C31.8236 472.787 25.5544 477.676 25.5544 483.998H19.5996C19.5996 473.922 29.3439 466.064 39.9089 469.364C44.519 470.813 48.2037 474.481 49.6356 479.091C52.9361 489.656 45.0778 499.4 35.0018 499.4Z" fill="#0080FF"/>
<path fill-rule="evenodd" clip-rule="evenodd" d="M35.0193 493.463H29.0645V487.508H35.0193V493.463Z" fill="#0080FF"/>
<path fill-rule="evenodd" clip-rule="evenodd" d="M29.0646 498.02H24.5068V493.463H29.0646V498.02Z" fill="#0080FF"/>
<path fill-rule="evenodd" clip-rule="evenodd" d="M24.507 493.463H20.6826V489.638H24.507V493.463Z" fill="#0080FF"/>
<g opacity="0.4" filter="url(#filter0_f_1276_6836)">
<circle cx="63.0002" cy="456" r="16.8" fill="#2F6FF0"/>
</g>
</g>
<g clip-path="url(#clip1_1276_6836)">
<rect x="87" y="456" width="56" height="56" rx="5.6" fill="url(#paint1_linear_1276_6836)"/>
<g clip-path="url(#clip2_1276_6836)">
<path d="M129.018 482.073L124.365 479.5L120.438 481.897L120.389 484.348L118.48 483.09L115.884 484.672L115.772 481.994L113.094 480.206L115.649 478.885C115.629 478.885 115.649 479.14 115.271 470.11L109.228 467.2L101.001 469.755L102.838 478.604L105.6 480.742L103.5 481.739L104.872 488.408L106.801 490.219L105.421 491.06L106.492 496.216L110.82 500.8C110.841 500.774 111.275 500.44 116.388 496.375L116.24 492.871L118.432 494.732C118.463 494.701 118.902 494.376 122.919 491.183L123.074 488.592L124.73 489.741C124.763 489.711 125.134 489.43 128.374 486.846L129.018 482.073Z" fill="#E1E5F0"/>
<path d="M125.157 484.83L129.018 482.073L124.365 479.5L120.438 481.897L125.157 484.83Z" fill="black"/>
<path d="M124.73 489.736L125.156 484.83L120.437 481.897L120.34 486.688L124.73 489.736Z" fill="#004B16"/>
<path d="M118.432 494.726V489.644L113.664 486.029L114.04 491.022L118.432 494.726Z" fill="#004B16"/>
<path d="M118.432 489.644L123.22 486.213L118.48 483.09L113.664 486.029L118.432 489.644Z" fill="black"/>
<path d="M110.819 500.795L110.057 495.603L105.42 491.055L106.491 496.211L110.819 500.795Z" fill="#004B16"/>
<path d="M110.057 495.603L116.167 491.244L111.432 487.388L105.42 491.055L110.057 495.603Z" fill="black"/>
<path d="M109.662 492.905L108.656 486.036L103.489 481.741L104.872 488.403L109.662 492.905Z" fill="#004B16"/>
<path d="M108.656 486.036L115.772 481.994L110.457 478.432L103.489 481.741L108.656 486.036Z" fill="black"/>
<path d="M108.173 482.756L106.793 473.35L101.001 469.758L102.838 478.604L108.173 482.756Z" fill="#004B16"/>
<path d="M106.793 473.35L115.261 470.105L109.228 467.2L101.001 469.758L106.793 473.35Z" fill="black"/>
<path d="M128.374 486.841C124.791 489.685 124.712 489.736 124.73 489.736C125.175 484.6 125.136 484.83 125.157 484.83C129.245 481.905 128.989 482.073 129.018 482.073L128.374 486.841Z" fill="#1CB35C"/>
<path d="M122.918 491.177C118.485 494.703 118.413 494.726 118.431 494.726C118.388 489.407 118.413 489.644 118.431 489.644C123.541 485.99 123.202 486.213 123.219 486.213L122.918 491.177Z" fill="#1CB35C"/>
<path d="M116.387 496.369C110.853 500.769 110.801 500.795 110.819 500.795C110.035 495.444 110.053 495.603 110.053 495.603C116.561 490.963 116.149 491.244 116.167 491.244L116.387 496.369Z" fill="#1CB35C"/>
<path d="M115.26 470.105C115.649 479.143 115.618 478.879 115.639 478.879C108.316 482.684 108.155 482.756 108.173 482.756C106.762 473.141 106.775 473.35 106.793 473.35L115.26 470.105Z" fill="#1CB35C"/>
<path d="M115.771 481.994C116.065 488.845 116.027 488.607 116.055 488.607C109.716 492.866 109.644 492.905 109.667 492.905C108.645 485.858 108.645 486.036 108.66 486.036L115.771 481.994Z" fill="#1CB35C"/>
</g>
<g opacity="0.4" filter="url(#filter1_f_1276_6836)">
<circle cx="143" cy="456" r="16.8" fill="#2F6FF0"/>
</g>
</g>
<g clip-path="url(#clip3_1276_6836)">
<rect x="167" y="456" width="56" height="56" rx="5.6" fill="url(#paint2_linear_1276_6836)"/>
<g clip-path="url(#clip4_1276_6836)">
<path fill-rule="evenodd" clip-rule="evenodd" d="M185.219 493.47C175.202 489.66 176.123 475.443 186.604 473.084C187.462 472.892 188.678 472.797 190.254 472.8C193.269 472.807 196.284 472.808 199.3 472.802C201.239 472.798 202.659 472.9 203.561 473.108C214.473 475.619 214.561 491.129 203.737 493.822C202.92 494.024 201.739 494.127 200.194 494.13C196.269 494.134 192.343 494.134 188.416 494.13C187.441 494.13 186.375 493.91 185.219 493.47ZM182.332 484.055C182.627 487.353 185.522 490.331 188.911 490.337C192.607 490.343 196.304 490.342 200.001 490.335C201.363 490.332 202.376 490.226 203.042 490.016C209.466 487.993 209.339 478.866 202.879 476.931C202.247 476.742 201.388 476.649 200.3 476.65C196.861 476.653 193.422 476.654 189.984 476.654C188.713 476.654 187.752 476.755 187.101 476.956C184.102 477.888 182.057 480.975 182.332 484.055Z" fill="#E7202C"/>
</g>
<g opacity="0.4" filter="url(#filter2_f_1276_6836)">
<circle cx="223" cy="456" r="16.8" fill="#2F6FF0"/>
</g>
</g>
<g clip-path="url(#clip5_1276_6836)">
<rect x="247" y="456" width="56" height="56" rx="5.6" fill="url(#paint3_linear_1276_6836)"/>
<path d="M274.696 491.732H279.771C280.311 491.667 280.81 491.413 281.18 491.015C281.55 490.617 281.768 490.101 281.794 489.559V482.237C281.794 481.77 281.609 481.322 281.279 480.992C280.949 480.662 280.501 480.477 280.034 480.477C279.567 480.477 279.12 480.662 278.79 480.992C278.46 481.322 278.274 481.77 278.274 482.237V486.889C278.274 487.24 278.135 487.576 277.887 487.824C277.639 488.071 277.303 488.211 276.953 488.211H274.652C274.419 488.211 274.189 488.257 273.974 488.347C273.759 488.437 273.564 488.569 273.4 488.735C273.236 488.901 273.107 489.098 273.021 489.314C272.934 489.53 272.89 489.762 272.894 489.995C272.907 490.463 273.103 490.907 273.44 491.232C273.777 491.556 274.228 491.736 274.696 491.732ZM276.985 475.017H271.908C271.368 475.082 270.869 475.336 270.499 475.734C270.129 476.132 269.911 476.648 269.885 477.19V484.511C269.885 484.978 270.07 485.425 270.4 485.755C270.73 486.085 271.178 486.271 271.645 486.271C272.112 486.271 272.559 486.085 272.889 485.755C273.219 485.425 273.405 484.978 273.405 484.511V479.86C273.405 479.509 273.544 479.173 273.792 478.925C274.04 478.677 274.376 478.538 274.726 478.538H277.025C277.259 478.538 277.489 478.492 277.704 478.402C277.919 478.312 278.114 478.18 278.278 478.014C278.441 477.848 278.57 477.651 278.657 477.435C278.744 477.219 278.787 476.987 278.784 476.754C278.771 476.287 278.576 475.843 278.239 475.518C277.903 475.193 277.452 475.013 276.985 475.017Z" fill="#5700C9"/>
<path d="M277.248 472.12C279.231 472.122 281.133 472.911 282.535 474.313C283.937 475.715 284.726 477.616 284.729 479.599V493.984C284.645 494.469 284.408 494.915 284.053 495.256C283.697 495.597 283.242 495.815 282.753 495.879H273.188C271.203 495.879 269.3 495.09 267.896 493.687C266.493 492.284 265.705 490.38 265.705 488.396V474.434C265.705 473.82 265.948 473.232 266.382 472.798C266.816 472.364 267.405 472.12 268.018 472.12H277.248ZM277.248 468.6H268.018C266.471 468.6 264.987 469.215 263.893 470.309C262.799 471.403 262.185 472.887 262.185 474.434V488.397C262.185 491.315 263.344 494.114 265.407 496.177C267.471 498.241 270.269 499.4 273.188 499.4H282.93C284.282 499.289 285.553 498.711 286.524 497.764C287.496 496.818 288.107 495.562 288.253 494.214V479.599C288.253 478.154 287.968 476.724 287.415 475.389C286.862 474.054 286.051 472.841 285.029 471.82C284.007 470.798 282.794 469.988 281.459 469.436C280.124 468.883 278.693 468.599 277.248 468.6Z" fill="#5700C9"/>
<g opacity="0.4" filter="url(#filter3_f_1276_6836)">
<circle cx="303" cy="456" r="16.8" fill="#2F6FF0"/>
</g>
</g>
<g clip-path="url(#clip6_1276_6836)">
<rect x="327" y="456" width="56" height="56" rx="5.6" fill="url(#paint4_linear_1276_6836)"/>
<g clip-path="url(#clip7_1276_6836)">
<path d="M348.022 482.477L342.658 484.428C342.727 485.288 342.875 486.138 343.084 486.97L348.178 485.115C348.015 484.255 347.957 483.366 348.023 482.476" fill="#DA2430"/>
<path d="M371.727 476.545C371.353 475.774 370.92 475.028 370.419 474.325L365.057 476.277C365.681 476.915 366.204 477.633 366.633 478.4L371.727 476.545L371.727 476.545Z" fill="#DA2430"/>
<path d="M362.212 476.514C361.538 475.928 360.776 475.423 359.927 475.027H359.927C354.947 472.706 349.006 474.866 346.684 479.847C346.554 480.128 346.438 480.412 346.336 480.699C346.046 481.542 345.877 482.404 345.812 483.264L345.793 483.271C345.793 483.277 345.792 483.284 345.792 483.29L342.564 484.465L340.487 485.232C340.486 485.228 340.486 485.225 340.486 485.221L340.429 485.242C340.227 482.691 340.657 480.056 341.814 477.575C341.965 477.25 342.127 476.933 342.298 476.624C346.111 469.521 354.788 466.552 362.106 470.018C363.62 470.736 364.963 471.677 366.116 472.784C366.892 473.502 367.584 474.292 368.188 475.139L362.825 477.091C362.797 477.063 362.769 477.035 362.742 477.007L362.727 477.012C362.562 476.841 362.39 476.674 362.212 476.514Z" fill="#DA2430"/>
<path d="M340.728 493.896L340.72 493.899C339.604 492.328 338.792 490.563 338.323 488.705L343.419 486.849L343.419 486.849C343.42 486.855 343.421 486.86 343.422 486.866L343.456 486.854L343.456 486.856C343.718 488.242 344.263 489.564 345.057 490.727C345.36 491.159 345.699 491.569 346.071 491.951L346.051 491.958C346.063 491.972 346.076 491.985 346.089 491.999L340.775 493.964C340.759 493.941 340.744 493.918 340.728 493.896Z" fill="#E82429"/>
<path d="M360.967 492.524C358.204 494.233 354.66 494.563 351.502 493.09C350.385 492.569 349.412 491.865 348.599 491.03L343.248 492.979C343.262 492.998 343.275 493.017 343.289 493.036L343.286 493.037C344.758 495.139 346.765 496.896 349.228 498.064C354.539 500.579 360.566 499.704 364.93 496.32C366.884 494.856 368.515 492.906 369.617 490.543C370.774 488.063 371.202 485.428 370.997 482.88L370.848 482.934C370.846 482.907 370.844 482.879 370.842 482.852L365.527 484.815L365.528 484.816C365.443 485.987 365.152 487.162 364.634 488.288C363.806 490.094 362.513 491.531 360.967 492.524Z" fill="#DA2430"/>
<path d="M366.885 478.308L366.965 478.279V478.278C367.803 480.003 368.315 481.878 368.468 483.798L363.117 485.745C363.118 485.732 363.119 485.719 363.12 485.705L363.018 485.743C363.164 483.762 362.72 481.793 361.78 480.083L366.84 478.212L366.84 478.212C366.855 478.244 366.87 478.276 366.885 478.308Z" fill="#E82429"/>
<path d="M348.029 482.445L342.703 484.414C342.771 485.281 342.918 486.138 343.126 486.977L348.185 485.106C348.021 484.237 347.962 483.342 348.031 482.445" fill="#C22035"/>
<path d="M371.567 476.464C371.196 475.686 370.766 474.934 370.268 474.225L364.943 476.193C365.563 476.837 366.083 477.561 366.508 478.335L371.567 476.464L371.567 476.464Z" fill="#C22035"/>
<path d="M342.703 484.414L348.016 482.468L347.994 483.535L342.868 485.471L342.702 484.413L342.703 484.414Z" fill="#AC223B"/>
<path d="M364.943 476.177L370.339 474.326L370.9 475.172L365.657 477.025L364.944 476.177L364.943 476.177Z" fill="#AC223B"/>
<path d="M343.287 493.017L348.607 491.081L350.216 492.599L344.637 494.693L343.287 493.017L343.287 493.017Z" fill="#B92135"/>
<path d="M370.931 482.866L365.528 484.815L365.13 486.977L370.891 484.924L370.932 482.867L370.931 482.866Z" fill="#B92135"/>
</g>
<g opacity="0.4" filter="url(#filter4_f_1276_6836)">
<circle cx="383" cy="456" r="16.8" fill="#2F6FF0"/>
</g>
</g>
<g clip-path="url(#clip8_1276_6836)">
<rect x="407" y="456" width="56" height="56" rx="5.6" fill="url(#paint5_linear_1276_6836)"/>
<g clip-path="url(#clip9_1276_6836)">
<path fill-rule="evenodd" clip-rule="evenodd" d="M449.707 475.359C451.369 478.353 452.103 481.774 451.816 485.186C451.529 488.599 450.234 491.849 448.096 494.524H438.861L441.704 489.497H437.943L442.376 481.687H446.158L449.707 475.367V475.359ZM431.469 494.524H422.052C419.874 491.86 418.553 488.601 418.261 485.173C417.97 481.744 418.722 478.308 420.419 475.316L426.528 485.926L433.261 474.2H443.168L431.473 494.515L431.469 494.524Z" fill="#F0F3FA"/>
</g>
<g opacity="0.4" filter="url(#filter5_f_1276_6836)">
<circle cx="463" cy="456" r="16.8" fill="#2F6FF0"/>
</g>
</g>
<g clip-path="url(#clip10_1276_6836)">
<rect x="487" y="456" width="56" height="56" rx="5.6" fill="url(#paint6_linear_1276_6836)"/>
<path d="M509.921 496.904H520.083C520.305 496.904 520.453 496.83 520.676 496.756C520.824 496.682 520.973 496.533 521.121 496.385L527.574 488.3C527.722 488.152 527.797 487.929 527.797 487.781C527.871 487.558 527.871 487.41 527.797 487.188L525.349 477.323C525.275 477.174 525.2 476.952 525.126 476.803C524.978 476.655 524.83 476.507 524.681 476.432L515.632 471.834C515.261 471.685 514.816 471.685 514.445 471.834L505.248 476.432C505.1 476.507 504.951 476.655 504.803 476.803C504.655 476.952 504.581 477.1 504.581 477.323L502.207 487.188C502.133 487.41 502.133 487.558 502.207 487.781C502.281 488.003 502.355 488.152 502.43 488.3L508.957 496.385C509.105 496.533 509.253 496.682 509.402 496.756C509.55 496.83 509.698 496.904 509.921 496.904ZM520.083 495.495H509.921L503.468 487.484L505.767 477.619L514.965 473.095L524.014 477.619L526.461 487.484L520.083 495.495Z" fill="#238FCF"/>
<path d="M503.319 474.578L502.132 473.614L514.296 467.606V469.089L503.319 474.578Z" fill="#1BBFD3"/>
<path d="M530.022 488.745L531.505 489.042L523.049 499.723L522.382 498.388L530.022 488.745Z" fill="#79BF43"/>
<path d="M515.706 469.164V467.68L527.722 473.688L526.609 474.652L515.706 469.164Z" fill="#1BBFD3"/>
<path d="M527.35 475.691L528.536 474.727L531.8 487.781L530.317 487.484L527.35 475.691Z" fill="#1D4489"/>
<path d="M499.684 487.41L498.2 487.707L501.315 474.727L502.502 475.691L499.684 487.41Z" fill="#1D4489"/>
<path d="M499.981 488.745L507.77 498.388L507.102 499.723L498.498 489.116L499.981 488.745Z" fill="#79BF43"/>
<path d="M521.121 498.981L521.788 500.39H508.289L508.957 498.981H521.121Z" fill="#1BBFD3"/>
<g opacity="0.4" filter="url(#filter6_f_1276_6836)">
<circle cx="543" cy="456" r="16.8" fill="#2F6FF0"/>
</g>
</g>
<g clip-path="url(#clip11_1276_6836)">
<rect x="87" y="373.5" width="56" height="56" rx="5.6" fill="url(#paint7_linear_1276_6836)"/>
<path d="M108.28 400.516C108.28 400.895 108.321 401.203 108.393 401.428C108.475 401.653 108.577 401.899 108.721 402.166C108.772 402.248 108.793 402.329 108.793 402.401C108.793 402.504 108.731 402.606 108.598 402.709L107.953 403.139C107.86 403.2 107.768 403.231 107.686 403.231C107.584 403.231 107.481 403.18 107.379 403.088C107.235 402.934 107.113 402.77 107.01 402.606C106.908 402.432 106.805 402.237 106.693 402.002C105.894 402.944 104.89 403.415 103.681 403.415C102.82 403.415 102.134 403.169 101.632 402.678C101.13 402.186 100.874 401.53 100.874 400.711C100.874 399.84 101.181 399.133 101.806 398.601C102.431 398.068 103.261 397.802 104.316 397.802C104.664 397.802 105.023 397.832 105.402 397.884C105.781 397.935 106.17 398.017 106.58 398.109V397.361C106.58 396.583 106.416 396.04 106.098 395.722C105.771 395.405 105.217 395.251 104.429 395.251C104.07 395.251 103.701 395.292 103.322 395.384C102.943 395.476 102.575 395.589 102.216 395.732C102.052 395.804 101.929 395.845 101.857 395.866C101.786 395.886 101.735 395.896 101.694 395.896C101.55 395.896 101.478 395.794 101.478 395.579V395.077C101.478 394.913 101.499 394.79 101.55 394.718C101.601 394.647 101.694 394.575 101.837 394.503C102.195 394.319 102.626 394.165 103.128 394.042C103.63 393.909 104.162 393.848 104.726 393.848C105.945 393.848 106.836 394.124 107.41 394.677C107.973 395.23 108.26 396.07 108.26 397.197V400.516H108.28ZM104.121 402.073C104.459 402.073 104.808 402.012 105.176 401.889C105.545 401.766 105.873 401.541 106.15 401.233C106.314 401.039 106.436 400.824 106.498 400.578C106.559 400.332 106.6 400.035 106.6 399.687V399.256C106.303 399.185 105.986 399.123 105.658 399.082C105.33 399.041 105.013 399.021 104.695 399.021C104.009 399.021 103.507 399.154 103.169 399.43C102.831 399.707 102.667 400.096 102.667 400.609C102.667 401.09 102.79 401.449 103.046 401.694C103.292 401.95 103.65 402.073 104.121 402.073ZM112.347 403.18C112.163 403.18 112.04 403.149 111.958 403.077C111.876 403.016 111.804 402.872 111.743 402.678L109.335 394.759C109.274 394.554 109.243 394.421 109.243 394.35C109.243 394.186 109.325 394.093 109.489 394.093H110.493C110.688 394.093 110.821 394.124 110.893 394.196C110.974 394.257 111.036 394.401 111.097 394.595L112.818 401.377L114.416 394.595C114.468 394.39 114.529 394.257 114.611 394.196C114.693 394.134 114.836 394.093 115.021 394.093H115.84C116.035 394.093 116.168 394.124 116.25 394.196C116.332 394.257 116.404 394.401 116.445 394.595L118.063 401.459L119.835 394.595C119.897 394.39 119.969 394.257 120.04 394.196C120.122 394.134 120.255 394.093 120.44 394.093H121.392C121.556 394.093 121.649 394.175 121.649 394.35C121.649 394.401 121.638 394.452 121.628 394.513C121.618 394.575 121.597 394.657 121.556 394.77L119.088 402.688C119.026 402.893 118.954 403.026 118.872 403.088C118.791 403.149 118.657 403.19 118.483 403.19H117.602C117.408 403.19 117.274 403.159 117.192 403.088C117.111 403.016 117.039 402.883 116.998 402.678L115.41 396.07L113.833 402.668C113.781 402.872 113.72 403.006 113.638 403.077C113.556 403.149 113.413 403.18 113.228 403.18H112.347ZM125.511 403.456C124.978 403.456 124.445 403.395 123.933 403.272C123.421 403.149 123.021 403.016 122.755 402.862C122.591 402.77 122.478 402.668 122.437 402.575C122.396 402.483 122.376 402.381 122.376 402.289V401.766C122.376 401.551 122.458 401.449 122.611 401.449C122.673 401.449 122.734 401.459 122.796 401.479C122.857 401.5 122.95 401.541 123.052 401.582C123.4 401.735 123.779 401.858 124.179 401.94C124.589 402.022 124.988 402.063 125.398 402.063C126.043 402.063 126.545 401.95 126.893 401.725C127.242 401.5 127.426 401.172 127.426 400.752C127.426 400.465 127.334 400.229 127.15 400.035C126.965 399.84 126.617 399.666 126.115 399.502L124.63 399.041C123.882 398.806 123.329 398.457 122.991 397.996C122.652 397.546 122.478 397.044 122.478 396.511C122.478 396.081 122.571 395.702 122.755 395.374C122.939 395.046 123.185 394.759 123.492 394.534C123.8 394.298 124.148 394.124 124.558 394.001C124.968 393.878 125.398 393.827 125.849 393.827C126.074 393.827 126.31 393.837 126.535 393.868C126.771 393.899 126.986 393.94 127.201 393.981C127.406 394.032 127.6 394.083 127.785 394.145C127.969 394.206 128.112 394.268 128.215 394.329C128.358 394.411 128.461 394.493 128.522 394.585C128.584 394.667 128.614 394.78 128.614 394.923V395.405C128.614 395.62 128.532 395.732 128.379 395.732C128.297 395.732 128.164 395.691 127.99 395.61C127.406 395.343 126.75 395.21 126.023 395.21C125.439 395.21 124.978 395.302 124.66 395.497C124.343 395.691 124.179 395.989 124.179 396.409C124.179 396.695 124.281 396.941 124.486 397.136C124.691 397.33 125.07 397.525 125.613 397.699L127.068 398.16C127.805 398.396 128.338 398.724 128.655 399.144C128.973 399.564 129.127 400.045 129.127 400.578C129.127 401.018 129.034 401.418 128.86 401.766C128.676 402.114 128.43 402.422 128.112 402.668C127.795 402.924 127.416 403.108 126.975 403.241C126.514 403.385 126.033 403.456 125.511 403.456Z" fill="#E1E5F0"/>
<path fill-rule="evenodd" clip-rule="evenodd" d="M127.448 408.435C124.077 410.924 119.181 412.246 114.971 412.246C109.07 412.246 103.754 410.064 99.738 406.437C99.4205 406.15 99.7073 405.761 100.086 405.987C104.43 408.507 109.787 410.033 115.329 410.033C119.068 410.033 123.176 409.254 126.956 407.656C127.519 407.4 128.001 408.025 127.448 408.435Z" fill="#FF9900"/>
<path fill-rule="evenodd" clip-rule="evenodd" d="M128.85 406.837C128.42 406.284 126.002 406.57 124.906 406.704C124.578 406.745 124.527 406.458 124.824 406.243C126.75 404.89 129.915 405.28 130.284 405.73C130.653 406.191 130.181 409.357 128.379 410.873C128.102 411.109 127.836 410.986 127.959 410.678C128.368 409.664 129.28 407.38 128.85 406.837Z" fill="#FF9900"/>
<g opacity="0.4" filter="url(#filter7_f_1276_6836)">
<circle cx="143" cy="373.5" r="16.8" fill="#2F6FF0"/>
</g>
</g>
<g clip-path="url(#clip12_1276_6836)">
<rect x="167" y="373.5" width="56" height="56" rx="5.6" fill="url(#paint8_linear_1276_6836)"/>
<path d="M190.333 388.818H198.619L190.018 414.303C189.929 414.564 189.761 414.792 189.537 414.953C189.312 415.114 189.043 415.201 188.766 415.201H182.318C182.109 415.201 181.902 415.151 181.716 415.056C181.53 414.96 181.369 414.822 181.247 414.652C181.124 414.481 181.045 414.285 181.014 414.078C180.983 413.871 181.001 413.659 181.068 413.461L189.082 389.717C189.17 389.455 189.338 389.227 189.563 389.066C189.787 388.905 190.057 388.818 190.333 388.818Z" fill="url(#paint9_linear_1276_6836)"/>
<path d="M202.373 405.911H189.235C189.113 405.911 188.993 405.948 188.892 406.017C188.791 406.085 188.713 406.183 188.668 406.296C188.624 406.41 188.614 406.535 188.641 406.654C188.668 406.773 188.73 406.881 188.819 406.964L197.262 414.845C197.508 415.074 197.832 415.201 198.168 415.201H205.607L202.373 405.911Z" fill="#0078D4"/>
<path d="M190.333 388.818C190.053 388.817 189.781 388.906 189.555 389.071C189.329 389.235 189.162 389.468 189.078 389.735L181.077 413.439C181.006 413.638 180.984 413.852 181.012 414.061C181.04 414.271 181.119 414.471 181.241 414.643C181.363 414.816 181.525 414.957 181.713 415.054C181.901 415.151 182.109 415.202 182.321 415.201H188.935C189.182 415.157 189.412 415.049 189.603 414.886C189.793 414.724 189.938 414.515 190.021 414.278L191.616 409.576L197.315 414.892C197.554 415.089 197.854 415.199 198.163 415.201H205.575L202.325 405.912L192.848 405.914L198.648 388.818H190.333Z" fill="url(#paint10_linear_1276_6836)"/>
<path d="M200.917 389.716C200.828 389.454 200.66 389.227 200.436 389.066C200.212 388.905 199.943 388.818 199.667 388.818H190.433C190.709 388.818 190.978 388.905 191.202 389.066C191.426 389.227 191.594 389.454 191.683 389.716L199.696 413.46C199.763 413.659 199.782 413.87 199.751 414.077C199.72 414.285 199.64 414.481 199.518 414.652C199.396 414.822 199.235 414.96 199.049 415.056C198.862 415.152 198.656 415.202 198.446 415.202H207.681C207.89 415.201 208.097 415.152 208.283 415.056C208.469 414.96 208.63 414.822 208.752 414.651C208.874 414.481 208.954 414.285 208.985 414.077C209.016 413.87 208.997 413.659 208.93 413.46L200.917 389.716Z" fill="url(#paint11_linear_1276_6836)"/>
<g opacity="0.4" filter="url(#filter8_f_1276_6836)">
<circle cx="223" cy="373.5" r="16.8" fill="#2F6FF0"/>
</g>
</g>
<g clip-path="url(#clip13_1276_6836)">
<rect x="247" y="373.5" width="56" height="56" rx="5.6" fill="url(#paint12_linear_1276_6836)"/>
<path d="M279.145 395.452H280.085L282.762 392.775L282.894 391.638C281.36 390.285 279.506 389.344 277.508 388.906C275.51 388.468 273.433 388.546 271.473 389.134C269.514 389.722 267.737 390.799 266.309 392.265C264.882 393.73 263.852 395.535 263.316 397.51C263.615 397.387 263.945 397.367 264.256 397.453L269.61 396.57C269.61 396.57 269.883 396.119 270.024 396.147C271.171 394.887 272.757 394.114 274.456 393.984C276.155 393.855 277.839 394.38 279.164 395.452H279.145Z" fill="#EA4335"/>
<path d="M286.575 397.51C285.96 395.243 284.696 393.206 282.94 391.648L279.182 395.405C279.965 396.045 280.593 396.855 281.017 397.772C281.442 398.69 281.653 399.692 281.634 400.703V401.37C282.073 401.37 282.508 401.457 282.914 401.625C283.319 401.793 283.688 402.039 283.999 402.35C284.309 402.66 284.555 403.029 284.724 403.435C284.892 403.841 284.978 404.275 284.978 404.715C284.978 405.154 284.892 405.589 284.724 405.994C284.555 406.4 284.309 406.769 283.999 407.079C283.688 407.39 283.319 407.636 282.914 407.804C282.508 407.972 282.073 408.059 281.634 408.059H274.945L274.278 408.735V412.746L274.945 413.413H281.634C283.502 413.428 285.324 412.841 286.833 411.739C288.341 410.637 289.455 409.079 290.009 407.296C290.563 405.512 290.528 403.597 289.91 401.835C289.291 400.073 288.122 398.556 286.575 397.51Z" fill="#4285F4"/>
<path d="M268.247 413.376H274.936V408.021H268.247C267.771 408.021 267.3 407.919 266.866 407.721L265.927 408.012L263.231 410.689L262.996 411.628C264.508 412.77 266.353 413.384 268.247 413.376Z" fill="#34A853"/>
<path d="M268.247 396.007C266.434 396.017 264.671 396.594 263.202 397.656C261.733 398.718 260.633 400.212 260.054 401.929C259.476 403.647 259.449 405.502 259.976 407.236C260.503 408.97 261.559 410.495 262.995 411.6L266.875 407.721C266.382 407.498 265.95 407.159 265.617 406.733C265.284 406.306 265.059 405.806 264.962 405.274C264.865 404.741 264.898 404.193 265.059 403.677C265.221 403.161 265.505 402.691 265.887 402.308C266.27 401.926 266.739 401.642 267.256 401.481C267.772 401.32 268.32 401.286 268.852 401.383C269.385 401.48 269.885 401.705 270.312 402.038C270.738 402.372 271.077 402.803 271.3 403.296L275.179 399.417C274.365 398.352 273.315 397.49 272.113 396.899C270.91 396.307 269.587 396.002 268.247 396.007Z" fill="#FBBC05"/>
<g opacity="0.4" filter="url(#filter9_f_1276_6836)">
<circle cx="303" cy="373.5" r="16.8" fill="#2F6FF0"/>
</g>
</g>
<g clip-path="url(#clip14_1276_6836)">
<rect x="327" y="373.5" width="56" height="56" rx="5.6" fill="url(#paint13_linear_1276_6836)"/>
<g clip-path="url(#clip15_1276_6836)">
<path d="M371.782 397.526L371.415 395.337C371.297 394.631 371.018 394.058 370.812 394.058C370.592 394.058 370.416 394.646 370.416 395.351V395.924C370.416 396.63 369.828 397.218 369.122 397.218H368.549C368.505 397.218 368.461 397.218 368.432 397.218V398.79C368.476 398.79 368.52 398.79 368.549 398.79H370.709C371.415 398.79 371.9 398.217 371.782 397.526Z" fill="#2453FF"/>
<path d="M366.624 395.675H363.141C363.112 395.675 363.082 395.675 363.053 395.675H359.467C359.423 395.675 359.379 395.675 359.35 395.689V395.351C359.35 394.646 359.173 394.058 358.953 394.058C358.732 394.058 358.468 394.631 358.35 395.337L357.983 397.526C357.865 398.232 358.35 398.805 359.07 398.805H361.216C361.436 398.805 361.642 398.775 361.833 398.717C361.76 399.084 361.451 399.363 361.054 399.363H358.042C357.557 399.363 357.189 398.922 357.263 398.437L357.571 396.6C357.645 396.115 357.277 395.675 356.792 395.675H341.773C341.45 395.675 341.185 395.866 341.053 396.145L338.232 400.451C338.188 400.524 338.188 400.612 338.246 400.686L338.79 401.332C338.864 401.421 338.981 401.421 339.069 401.362L340.994 399.848V409.048C340.994 409.489 341.347 409.841 341.788 409.841H346.05C346.491 409.841 346.843 409.489 346.843 409.048V405.844C346.843 405.403 347.196 405.051 347.637 405.051H358.277C358.718 405.051 359.07 405.403 359.07 405.844V409.048C359.07 409.489 359.423 409.841 359.864 409.841H364.126C364.567 409.841 364.919 409.489 364.919 409.048V405.609H362.656C361.951 405.609 361.363 405.021 361.363 404.316V402.097C361.363 401.671 361.569 401.303 361.877 401.068V403.713C361.877 404.419 362.465 405.006 363.17 405.006H366.653C367.359 405.006 367.947 404.419 367.947 403.713V396.983C367.917 396.248 367.344 395.675 366.624 395.675Z" fill="#2453FF"/>
</g>
<g opacity="0.4" filter="url(#filter10_f_1276_6836)">
<circle cx="383" cy="373.5" r="16.8" fill="#2F6FF0"/>
</g>
</g>
<g clip-path="url(#clip16_1276_6836)">
<rect x="407" y="373.5" width="56" height="56" rx="5.6" fill="url(#paint14_linear_1276_6836)"/>
<g clip-path="url(#clip17_1276_6836)">
<path d="M429.904 388.3C429.756 388.057 429.548 387.856 429.3 387.716C429.052 387.576 428.773 387.502 428.488 387.5H419.88C419.435 387.5 419.007 387.677 418.692 387.992C418.377 388.307 418.2 388.734 418.2 389.18C418.2 389.497 418.289 389.807 418.456 390.076L420.672 393.332L431.752 390.932L429.904 388.3Z" fill="#C9F4FF"/>
<path d="M431.801 390.996C431.651 390.753 431.441 390.552 431.192 390.412C430.943 390.272 430.662 390.198 430.377 390.196H421.801C421.493 390.182 421.186 390.253 420.916 390.402C420.646 390.551 420.422 390.772 420.27 391.041C420.117 391.309 420.042 391.614 420.053 391.923C420.063 392.231 420.159 392.531 420.329 392.788L422.801 396.708L434.249 394.916L431.801 390.996Z" fill="#51B9FF"/>
<path d="M422.697 396.548C422.558 396.326 422.473 396.074 422.446 395.814C422.42 395.553 422.454 395.29 422.545 395.044C422.671 394.723 422.891 394.449 423.177 394.257C423.463 394.066 423.801 393.966 424.145 393.972H432.721C433.007 393.973 433.288 394.047 433.537 394.187C433.786 394.327 433.995 394.529 434.145 394.772L441.849 406.988C442.016 407.257 442.105 407.567 442.105 407.884C442.104 408.201 442.015 408.511 441.849 408.78L437.545 415.604C437.393 415.844 437.182 416.041 436.933 416.177C436.684 416.314 436.405 416.386 436.121 416.386C435.837 416.386 435.558 416.314 435.309 416.177C435.06 416.041 434.85 415.844 434.697 415.604L422.697 396.548Z" fill="#007BFC"/>
<path d="M444.393 400.452C444.545 400.692 444.756 400.889 445.005 401.025C445.254 401.162 445.533 401.234 445.817 401.234C446.101 401.234 446.38 401.162 446.629 401.025C446.878 400.889 447.088 400.692 447.241 400.452L448.721 398.108L451.545 393.628C451.712 393.359 451.801 393.049 451.801 392.732C451.8 392.415 451.711 392.105 451.545 391.836L449.305 388.3C449.155 388.057 448.945 387.856 448.696 387.716C448.447 387.576 448.167 387.502 447.881 387.5H439.273C439.052 387.5 438.834 387.543 438.63 387.628C438.426 387.712 438.241 387.836 438.085 387.992C437.929 388.148 437.805 388.333 437.721 388.537C437.636 388.741 437.593 388.959 437.593 389.18C437.59 389.498 437.682 389.81 437.857 390.076L444.393 400.452Z" fill="#007BFC"/>
</g>
<g opacity="0.4" filter="url(#filter11_f_1276_6836)">
<circle cx="463" cy="373.5" r="16.8" fill="#2F6FF0"/>
</g>
</g>
<g clip-path="url(#clip18_1276_6836)">
<rect x="239" y="226.5" width="72" height="72" rx="7.2" fill="url(#paint15_linear_1276_6836)"/>
<g clip-path="url(#clip19_1276_6836)">
<path d="M274.855 242.128C274.483 242.146 274.12 242.238 273.785 242.398L259.182 249.376C258.804 249.556 258.472 249.819 258.21 250.144C257.949 250.469 257.764 250.849 257.671 251.255L254.068 266.928C253.985 267.289 253.976 267.663 254.041 268.028C254.106 268.392 254.244 268.74 254.447 269.051C254.497 269.127 254.55 269.201 254.606 269.272L264.714 281.839C264.975 282.164 265.307 282.426 265.685 282.607C266.063 282.787 266.477 282.881 266.897 282.881L283.106 282.877C283.525 282.877 283.939 282.784 284.317 282.604C284.695 282.424 285.027 282.162 285.289 281.837L295.393 269.268C295.655 268.942 295.839 268.563 295.933 268.157C296.026 267.751 296.026 267.33 295.933 266.924L292.325 251.251C292.231 250.845 292.047 250.466 291.785 250.14C291.524 249.815 291.192 249.553 290.814 249.372L276.209 242.398C275.787 242.197 275.322 242.104 274.855 242.128Z" fill="#326CE5"/>
<path d="M275 247.461C274.517 247.461 274.125 247.896 274.126 248.433C274.126 248.441 274.127 248.449 274.127 248.457C274.127 248.53 274.123 248.617 274.126 248.681C274.137 248.99 274.204 249.227 274.245 249.512C274.319 250.122 274.38 250.628 274.342 251.098C274.305 251.275 274.175 251.437 274.058 251.55L274.038 251.919C273.513 251.963 272.985 252.042 272.458 252.162C270.188 252.677 268.234 253.846 266.747 255.425C266.65 255.359 266.481 255.238 266.431 255.201C266.275 255.222 266.117 255.27 265.912 255.15C265.521 254.887 265.164 254.524 264.733 254.086C264.536 253.876 264.393 253.677 264.158 253.475C264.105 253.429 264.023 253.367 263.964 253.32C263.78 253.174 263.564 253.098 263.355 253.09C263.086 253.081 262.828 253.186 262.658 253.399C262.357 253.776 262.454 254.353 262.873 254.687C262.877 254.691 262.882 254.693 262.886 254.697C262.944 254.743 263.014 254.803 263.067 254.842C263.316 255.026 263.544 255.12 263.792 255.266C264.315 255.589 264.748 255.857 265.092 256.179C265.226 256.322 265.25 256.575 265.267 256.684L265.548 256.934C264.048 259.191 263.354 261.979 263.764 264.819L263.398 264.925C263.301 265.05 263.165 265.246 263.023 265.305C262.573 265.446 262.067 265.498 261.456 265.562C261.169 265.586 260.921 265.572 260.617 265.63C260.55 265.642 260.457 265.667 260.384 265.684C260.381 265.684 260.379 265.685 260.376 265.686C260.372 265.687 260.367 265.688 260.363 265.689C259.848 265.814 259.517 266.287 259.623 266.754C259.73 267.221 260.233 267.504 260.752 267.393C260.755 267.392 260.761 267.392 260.765 267.391C260.77 267.389 260.776 267.387 260.781 267.385C260.854 267.369 260.944 267.352 261.007 267.335C261.306 267.255 261.523 267.137 261.792 267.034C262.37 266.827 262.849 266.653 263.316 266.586C263.511 266.571 263.716 266.706 263.818 266.763L264.199 266.698C265.076 269.416 266.913 271.613 269.24 272.992L269.081 273.373C269.138 273.521 269.201 273.721 269.159 273.867C268.989 274.307 268.699 274.771 268.368 275.289C268.207 275.528 268.043 275.714 267.899 275.987C267.864 276.053 267.82 276.153 267.787 276.223C267.562 276.703 267.727 277.257 268.158 277.465C268.593 277.674 269.132 277.453 269.365 276.972C269.365 276.971 269.366 276.97 269.367 276.97C269.367 276.969 269.367 276.968 269.367 276.968C269.4 276.9 269.447 276.81 269.475 276.746C269.599 276.462 269.64 276.219 269.727 275.944C269.959 275.364 270.086 274.754 270.404 274.374C270.491 274.27 270.633 274.23 270.781 274.191L270.979 273.832C273.007 274.611 275.277 274.82 277.545 274.305C278.063 274.187 278.562 274.035 279.045 273.853C279.1 273.951 279.204 274.141 279.232 274.189C279.381 274.238 279.545 274.263 279.678 274.46C279.916 274.867 280.079 275.348 280.277 275.929C280.365 276.204 280.408 276.447 280.531 276.731C280.56 276.795 280.607 276.886 280.64 276.955C280.873 277.438 281.413 277.659 281.848 277.45C282.28 277.242 282.445 276.688 282.22 276.208C282.186 276.139 282.14 276.038 282.106 275.972C281.961 275.699 281.797 275.515 281.637 275.276C281.306 274.758 281.032 274.328 280.862 273.888C280.791 273.661 280.874 273.52 280.929 273.373C280.896 273.335 280.825 273.121 280.784 273.02C283.201 271.592 284.985 269.313 285.822 266.681C285.936 266.699 286.132 266.734 286.196 266.746C286.327 266.66 286.448 266.547 286.685 266.565C287.152 266.633 287.631 266.806 288.209 267.013C288.478 267.116 288.695 267.236 288.994 267.316C289.057 267.333 289.147 267.349 289.22 267.365C289.225 267.366 289.231 267.369 289.236 267.37C289.24 267.371 289.246 267.371 289.25 267.372C289.768 267.484 290.271 267.2 290.378 266.733C290.484 266.267 290.153 265.793 289.638 265.669C289.563 265.652 289.457 265.623 289.384 265.609C289.08 265.551 288.832 265.566 288.545 265.542C287.934 265.478 287.428 265.426 286.978 265.284C286.795 265.213 286.665 264.995 286.601 264.905L286.248 264.802C286.431 263.478 286.382 262.1 286.065 260.721C285.746 259.33 285.181 258.057 284.427 256.936C284.518 256.853 284.689 256.702 284.737 256.658C284.752 256.501 284.739 256.336 284.902 256.163C285.245 255.84 285.679 255.572 286.202 255.249C286.45 255.103 286.679 255.009 286.928 254.825C286.984 254.784 287.061 254.718 287.12 254.67C287.54 254.336 287.636 253.759 287.335 253.382C287.034 253.004 286.451 252.969 286.032 253.303C285.972 253.351 285.891 253.412 285.837 253.458C285.603 253.66 285.458 253.86 285.26 254.069C284.829 254.507 284.473 254.872 284.082 255.135C283.912 255.234 283.664 255.2 283.551 255.193L283.219 255.43C281.323 253.443 278.742 252.172 275.963 251.925C275.955 251.809 275.945 251.598 275.943 251.535C275.829 251.426 275.692 251.333 275.657 251.098C275.619 250.628 275.682 250.122 275.756 249.512C275.797 249.227 275.864 248.99 275.875 248.681C275.878 248.611 275.874 248.509 275.874 248.433C275.874 247.896 275.482 247.461 275 247.461ZM273.905 254.241L273.646 258.826L273.627 258.835C273.609 259.245 273.272 259.573 272.857 259.573C272.688 259.573 272.531 259.518 272.404 259.425L272.396 259.429L268.637 256.764C269.792 255.628 271.27 254.788 272.973 254.401C273.284 254.331 273.595 254.278 273.905 254.241ZM276.096 254.241C278.084 254.485 279.923 255.386 281.333 256.766L277.597 259.414L277.584 259.409C277.253 259.651 276.786 259.591 276.527 259.267C276.421 259.134 276.366 258.978 276.359 258.82L276.355 258.818L276.096 254.241ZM267.273 258.477L270.706 261.547L270.702 261.566C271.012 261.835 271.058 262.302 270.799 262.626C270.693 262.759 270.552 262.848 270.4 262.89L270.396 262.905L265.996 264.175C265.772 262.127 266.254 260.136 267.273 258.477ZM282.702 258.478C283.212 259.305 283.598 260.228 283.828 261.229C284.055 262.218 284.112 263.206 284.018 264.16L279.596 262.886L279.592 262.867C279.196 262.759 278.953 262.356 279.045 261.952C279.083 261.787 279.17 261.647 279.289 261.543L279.288 261.534L282.702 258.478ZM274.295 261.784H275.702L276.576 262.877L276.262 264.24L275 264.847L273.733 264.238L273.42 262.875L274.295 261.784ZM278.804 265.523C278.864 265.52 278.923 265.525 278.981 265.536L278.989 265.527L283.54 266.296C282.874 268.168 281.599 269.789 279.896 270.874L278.13 266.606L278.135 266.599C277.973 266.222 278.135 265.78 278.509 265.6C278.604 265.554 278.704 265.528 278.804 265.523ZM271.16 265.542C271.507 265.547 271.819 265.788 271.899 266.141C271.937 266.307 271.919 266.471 271.856 266.616L271.869 266.632L270.121 270.857C268.487 269.808 267.185 268.238 266.489 266.311L271.001 265.546L271.008 265.555C271.059 265.546 271.11 265.541 271.16 265.542ZM274.972 267.393C275.093 267.388 275.215 267.413 275.332 267.469C275.485 267.543 275.603 267.659 275.678 267.798H275.694L277.919 271.817C277.63 271.914 277.333 271.996 277.03 272.065C275.329 272.452 273.633 272.335 272.097 271.811L274.316 267.8H274.32C274.453 267.551 274.705 267.402 274.972 267.393Z" fill="white"/>
</g>
<g opacity="0.4" filter="url(#filter12_f_1276_6836)">
<circle cx="311" cy="226.5" r="21.6" fill="#2F6FF0"/>
</g>
</g>
<g opacity="0.5" filter="url(#filter13_f_1276_6836)">
<path fill-rule="evenodd" clip-rule="evenodd" d="M320.131 116.5C320.13 116.5 320.129 116.5 320.128 116.499L276.89 91.5522C275.761 90.901 274.371 90.901 273.242 91.5522L230.005 116.5C230.005 116.5 230.005 116.5 230.004 116.5C230.004 116.499 230.004 116.5 230.004 116.5V116.5V166.392C230.004 167.696 230.7 168.901 231.829 169.552L275.063 194.498C275.065 194.499 275.068 194.5 275.071 194.5C275.073 194.5 275.076 194.499 275.078 194.498L318.312 169.552C319.441 168.901 320.137 167.696 320.137 166.392V116.506C320.137 116.502 320.134 116.5 320.131 116.5Z" fill="#8547FF"/>
</g>
<path fill-rule="evenodd" clip-rule="evenodd" d="M312.826 119.999L274.718 142L274.721 186L312.826 163.999V119.999Z" fill="url(#paint16_linear_1276_6836)"/>
<path fill-rule="evenodd" clip-rule="evenodd" d="M236.61 119.999L274.718 142L274.715 186L236.61 163.999V119.999Z" fill="url(#paint17_linear_1276_6836)"/>
<path fill-rule="evenodd" clip-rule="evenodd" d="M312.821 120L274.721 142L236.611 120L274.716 98L312.821 120Z" fill="url(#paint18_linear_1276_6836)"/>
<g clip-path="url(#clip20_1276_6836)">
<path fill-rule="evenodd" clip-rule="evenodd" d="M291.822 132.001L291.824 132L283.163 127L274.504 122L265.842 127L257.184 132L257.184 132.001V152L265.843 157L274.504 162V162L280.045 158.804L280.045 158.803L280.045 158.803V152L274.504 155.2L268.788 151.9L263.074 148.601V135.402L268.788 132.103L274.504 128.803L280.218 132.103L285.935 135.402V162L285.934 162L285.935 162.002L291.825 158.603V132.001L291.822 132.001ZM274.504 148.399L280.045 145.199V138.803L274.504 135.604L268.964 138.803V145.199L274.504 148.399Z" fill="white"/>
</g>
<defs>
<filter id="filter0_f_1276_6836" x="12.6002" y="405.6" width="100.8" height="100.8" filterUnits="userSpaceOnUse" color-interpolation-filters="sRGB">
<feFlood flood-opacity="0" result="BackgroundImageFix"/>
<feBlend mode="normal" in="SourceGraphic" in2="BackgroundImageFix" result="shape"/>
<feGaussianBlur stdDeviation="16.8" result="effect1_foregroundBlur_1276_6836"/>
</filter>
<filter id="filter1_f_1276_6836" x="92.6002" y="405.6" width="100.8" height="100.8" filterUnits="userSpaceOnUse" color-interpolation-filters="sRGB">
<feFlood flood-opacity="0" result="BackgroundImageFix"/>
<feBlend mode="normal" in="SourceGraphic" in2="BackgroundImageFix" result="shape"/>
<feGaussianBlur stdDeviation="16.8" result="effect1_foregroundBlur_1276_6836"/>
</filter>
<filter id="filter2_f_1276_6836" x="172.6" y="405.6" width="100.8" height="100.8" filterUnits="userSpaceOnUse" color-interpolation-filters="sRGB">
<feFlood flood-opacity="0" result="BackgroundImageFix"/>
<feBlend mode="normal" in="SourceGraphic" in2="BackgroundImageFix" result="shape"/>
<feGaussianBlur stdDeviation="16.8" result="effect1_foregroundBlur_1276_6836"/>
</filter>
<filter id="filter3_f_1276_6836" x="252.6" y="405.6" width="100.8" height="100.8" filterUnits="userSpaceOnUse" color-interpolation-filters="sRGB">
<feFlood flood-opacity="0" result="BackgroundImageFix"/>
<feBlend mode="normal" in="SourceGraphic" in2="BackgroundImageFix" result="shape"/>
<feGaussianBlur stdDeviation="16.8" result="effect1_foregroundBlur_1276_6836"/>
</filter>
<filter id="filter4_f_1276_6836" x="332.6" y="405.6" width="100.8" height="100.8" filterUnits="userSpaceOnUse" color-interpolation-filters="sRGB">
<feFlood flood-opacity="0" result="BackgroundImageFix"/>
<feBlend mode="normal" in="SourceGraphic" in2="BackgroundImageFix" result="shape"/>
<feGaussianBlur stdDeviation="16.8" result="effect1_foregroundBlur_1276_6836"/>
</filter>
<filter id="filter5_f_1276_6836" x="412.6" y="405.6" width="100.8" height="100.8" filterUnits="userSpaceOnUse" color-interpolation-filters="sRGB">
<feFlood flood-opacity="0" result="BackgroundImageFix"/>
<feBlend mode="normal" in="SourceGraphic" in2="BackgroundImageFix" result="shape"/>
<feGaussianBlur stdDeviation="16.8" result="effect1_foregroundBlur_1276_6836"/>
</filter>
<filter id="filter6_f_1276_6836" x="492.6" y="405.6" width="100.8" height="100.8" filterUnits="userSpaceOnUse" color-interpolation-filters="sRGB">
<feFlood flood-opacity="0" result="BackgroundImageFix"/>
<feBlend mode="normal" in="SourceGraphic" in2="BackgroundImageFix" result="shape"/>
<feGaussianBlur stdDeviation="16.8" result="effect1_foregroundBlur_1276_6836"/>
</filter>
<filter id="filter7_f_1276_6836" x="92.6002" y="323.1" width="100.8" height="100.8" filterUnits="userSpaceOnUse" color-interpolation-filters="sRGB">
<feFlood flood-opacity="0" result="BackgroundImageFix"/>
<feBlend mode="normal" in="SourceGraphic" in2="BackgroundImageFix" result="shape"/>
<feGaussianBlur stdDeviation="16.8" result="effect1_foregroundBlur_1276_6836"/>
</filter>
<filter id="filter8_f_1276_6836" x="172.6" y="323.1" width="100.8" height="100.8" filterUnits="userSpaceOnUse" color-interpolation-filters="sRGB">
<feFlood flood-opacity="0" result="BackgroundImageFix"/>
<feBlend mode="normal" in="SourceGraphic" in2="BackgroundImageFix" result="shape"/>
<feGaussianBlur stdDeviation="16.8" result="effect1_foregroundBlur_1276_6836"/>
</filter>
<filter id="filter9_f_1276_6836" x="252.6" y="323.1" width="100.8" height="100.8" filterUnits="userSpaceOnUse" color-interpolation-filters="sRGB">
<feFlood flood-opacity="0" result="BackgroundImageFix"/>
<feBlend mode="normal" in="SourceGraphic" in2="BackgroundImageFix" result="shape"/>
<feGaussianBlur stdDeviation="16.8" result="effect1_foregroundBlur_1276_6836"/>
</filter>
<filter id="filter10_f_1276_6836" x="332.6" y="323.1" width="100.8" height="100.8" filterUnits="userSpaceOnUse" color-interpolation-filters="sRGB">
<feFlood flood-opacity="0" result="BackgroundImageFix"/>
<feBlend mode="normal" in="SourceGraphic" in2="BackgroundImageFix" result="shape"/>
<feGaussianBlur stdDeviation="16.8" result="effect1_foregroundBlur_1276_6836"/>
</filter>
<filter id="filter11_f_1276_6836" x="412.6" y="323.1" width="100.8" height="100.8" filterUnits="userSpaceOnUse" color-interpolation-filters="sRGB">
<feFlood flood-opacity="0" result="BackgroundImageFix"/>
<feBlend mode="normal" in="SourceGraphic" in2="BackgroundImageFix" result="shape"/>
<feGaussianBlur stdDeviation="16.8" result="effect1_foregroundBlur_1276_6836"/>
</filter>
<filter id="filter12_f_1276_6836" x="246.2" y="161.7" width="129.6" height="129.6" filterUnits="userSpaceOnUse" color-interpolation-filters="sRGB">
<feFlood flood-opacity="0" result="BackgroundImageFix"/>
<feBlend mode="normal" in="SourceGraphic" in2="BackgroundImageFix" result="shape"/>
<feGaussianBlur stdDeviation="21.6" result="effect1_foregroundBlur_1276_6836"/>
</filter>
<filter id="filter13_f_1276_6836" x="139.871" y="0.930511" width="270.4" height="283.703" filterUnits="userSpaceOnUse" color-interpolation-filters="sRGB">
<feFlood flood-opacity="0" result="BackgroundImageFix"/>
<feBlend mode="normal" in="SourceGraphic" in2="BackgroundImageFix" result="shape"/>
<feGaussianBlur stdDeviation="45.0667" result="effect1_foregroundBlur_1276_6836"/>
</filter>
<linearGradient id="paint0_linear_1276_6836" x1="35" y1="456" x2="35" y2="512" gradientUnits="userSpaceOnUse">
<stop stop-color="#161E33"/>
<stop offset="1" stop-color="#0E1424"/>
</linearGradient>
<linearGradient id="paint1_linear_1276_6836" x1="115" y1="456" x2="115" y2="512" gradientUnits="userSpaceOnUse">
<stop stop-color="#161E33"/>
<stop offset="1" stop-color="#0E1424"/>
</linearGradient>
<linearGradient id="paint2_linear_1276_6836" x1="195" y1="456" x2="195" y2="512" gradientUnits="userSpaceOnUse">
<stop stop-color="#161E33"/>
<stop offset="1" stop-color="#0E1424"/>
</linearGradient>
<linearGradient id="paint3_linear_1276_6836" x1="275" y1="456" x2="275" y2="512" gradientUnits="userSpaceOnUse">
<stop stop-color="#161E33"/>
<stop offset="1" stop-color="#0E1424"/>
</linearGradient>
<linearGradient id="paint4_linear_1276_6836" x1="355" y1="456" x2="355" y2="512" gradientUnits="userSpaceOnUse">
<stop stop-color="#161E33"/>
<stop offset="1" stop-color="#0E1424"/>
</linearGradient>
<linearGradient id="paint5_linear_1276_6836" x1="435" y1="456" x2="435" y2="512" gradientUnits="userSpaceOnUse">
<stop stop-color="#161E33"/>
<stop offset="1" stop-color="#0E1424"/>
</linearGradient>
<linearGradient id="paint6_linear_1276_6836" x1="515" y1="456" x2="515" y2="512" gradientUnits="userSpaceOnUse">
<stop stop-color="#161E33"/>
<stop offset="1" stop-color="#0E1424"/>
</linearGradient>
<linearGradient id="paint7_linear_1276_6836" x1="115" y1="373.5" x2="115" y2="429.5" gradientUnits="userSpaceOnUse">
<stop stop-color="#161E33"/>
<stop offset="1" stop-color="#0E1424"/>
</linearGradient>
<linearGradient id="paint8_linear_1276_6836" x1="195" y1="373.5" x2="195" y2="429.5" gradientUnits="userSpaceOnUse">
<stop stop-color="#161E33"/>
<stop offset="1" stop-color="#0E1424"/>
</linearGradient>
<linearGradient id="paint9_linear_1276_6836" x1="193.353" y1="390.773" x2="184.749" y2="416.194" gradientUnits="userSpaceOnUse">
<stop stop-color="#114A8B"/>
<stop offset="1" stop-color="#0669BC"/>
</linearGradient>
<linearGradient id="paint10_linear_1276_6836" x1="196.04" y1="402.62" x2="194.05" y2="403.293" gradientUnits="userSpaceOnUse">
<stop stop-opacity="0.3"/>
<stop offset="0.071" stop-opacity="0.2"/>
<stop offset="0.321" stop-opacity="0.1"/>
<stop offset="0.623" stop-opacity="0.05"/>
<stop offset="1" stop-opacity="0"/>
</linearGradient>
<linearGradient id="paint11_linear_1276_6836" x1="194.947" y1="390.032" x2="204.392" y2="415.196" gradientUnits="userSpaceOnUse">
<stop stop-color="#3CCBF4"/>
<stop offset="1" stop-color="#2892DF"/>
</linearGradient>
<linearGradient id="paint12_linear_1276_6836" x1="275" y1="373.5" x2="275" y2="429.5" gradientUnits="userSpaceOnUse">
<stop stop-color="#161E33"/>
<stop offset="1" stop-color="#0E1424"/>
</linearGradient>
<linearGradient id="paint13_linear_1276_6836" x1="355" y1="373.5" x2="355" y2="429.5" gradientUnits="userSpaceOnUse">
<stop stop-color="#161E33"/>
<stop offset="1" stop-color="#0E1424"/>
</linearGradient>
<linearGradient id="paint14_linear_1276_6836" x1="435" y1="373.5" x2="435" y2="429.5" gradientUnits="userSpaceOnUse">
<stop stop-color="#161E33"/>
<stop offset="1" stop-color="#0E1424"/>
</linearGradient>
<linearGradient id="paint15_linear_1276_6836" x1="275" y1="226.5" x2="275" y2="298.5" gradientUnits="userSpaceOnUse">
<stop stop-color="#161E33"/>
<stop offset="1" stop-color="#0E1424"/>
</linearGradient>
<linearGradient id="paint16_linear_1276_6836" x1="293.772" y1="119.999" x2="293.772" y2="186" gradientUnits="userSpaceOnUse">
<stop stop-color="#161E33"/>
<stop offset="1" stop-color="#0E1424"/>
</linearGradient>
<linearGradient id="paint17_linear_1276_6836" x1="255.664" y1="119.999" x2="255.664" y2="186" gradientUnits="userSpaceOnUse">
<stop stop-color="#161E33"/>
<stop offset="1" stop-color="#0E1424"/>
</linearGradient>
<linearGradient id="paint18_linear_1276_6836" x1="274.716" y1="98" x2="274.716" y2="142" gradientUnits="userSpaceOnUse">
<stop stop-color="#2F3F6D"/>
<stop offset="0.355174" stop-color="#233053"/>
<stop offset="1" stop-color="#0E1424"/>
</linearGradient>
<clipPath id="clip0_1276_6836">
<rect x="7" y="456" width="56" height="56" rx="5.6" fill="white"/>
</clipPath>
<clipPath id="clip1_1276_6836">
<rect x="87" y="456" width="56" height="56" rx="5.6" fill="white"/>
</clipPath>
<clipPath id="clip2_1276_6836">
<rect width="33.6" height="33.6" fill="white" transform="translate(98.2002 467.2)"/>
</clipPath>
<clipPath id="clip3_1276_6836">
<rect x="167" y="456" width="56" height="56" rx="5.6" fill="white"/>
</clipPath>
<clipPath id="clip4_1276_6836">
<rect width="33.6" height="33.6" fill="white" transform="translate(178.2 467.2)"/>
</clipPath>
<clipPath id="clip5_1276_6836">
<rect x="247" y="456" width="56" height="56" rx="5.6" fill="white"/>
</clipPath>
<clipPath id="clip6_1276_6836">
<rect x="327" y="456" width="56" height="56" rx="5.6" fill="white"/>
</clipPath>
<clipPath id="clip7_1276_6836">
<rect width="33.6" height="33.6" fill="white" transform="translate(338.2 467.2)"/>
</clipPath>
<clipPath id="clip8_1276_6836">
<rect x="407" y="456" width="56" height="56" rx="5.6" fill="white"/>
</clipPath>
<clipPath id="clip9_1276_6836">
<rect width="33.6" height="33.6" fill="white" transform="translate(418.2 467.2)"/>
</clipPath>
<clipPath id="clip10_1276_6836">
<rect x="487" y="456" width="56" height="56" rx="5.6" fill="white"/>
</clipPath>
<clipPath id="clip11_1276_6836">
<rect x="87" y="373.5" width="56" height="56" rx="5.6" fill="white"/>
</clipPath>
<clipPath id="clip12_1276_6836">
<rect x="167" y="373.5" width="56" height="56" rx="5.6" fill="white"/>
</clipPath>
<clipPath id="clip13_1276_6836">
<rect x="247" y="373.5" width="56" height="56" rx="5.6" fill="white"/>
</clipPath>
<clipPath id="clip14_1276_6836">
<rect x="327" y="373.5" width="56" height="56" rx="5.6" fill="white"/>
</clipPath>
<clipPath id="clip15_1276_6836">
<rect width="33.6" height="33.6" fill="white" transform="translate(338.2 384.7)"/>
</clipPath>
<clipPath id="clip16_1276_6836">
<rect x="407" y="373.5" width="56" height="56" rx="5.6" fill="white"/>
</clipPath>
<clipPath id="clip17_1276_6836">
<rect width="33.6" height="33.6" fill="white" transform="translate(418.2 384.7)"/>
</clipPath>
<clipPath id="clip18_1276_6836">
<rect x="239" y="226.5" width="72" height="72" rx="7.2" fill="white"/>
</clipPath>
<clipPath id="clip19_1276_6836">
<rect width="43.2" height="43.2" fill="white" transform="translate(253.4 240.9)"/>
</clipPath>
<clipPath id="clip20_1276_6836">
<rect width="34.5" height="40" fill="white" transform="translate(257.184 122)"/>
</clipPath>
</defs>
</svg>
