<svg width="540" height="400" viewBox="0 0 540 400" fill="none" xmlns="http://www.w3.org/2000/svg">
<circle opacity="0.4" cx="270" cy="200" r="199.5" fill="#89A9FF" stroke="#E1E5F0"/>
<circle cx="270" cy="200" r="151.5" stroke="#E1E5F0"/>
<circle cx="270" cy="200" r="103.5" stroke="#E1E5F0"/>
<line x1="70" y1="199.5" x2="470" y2="199.5" stroke="#E1E5F0"/>
<line y1="-0.5" x2="400" y2="-0.5" transform="matrix(2.18557e-08 1 1 -2.18557e-08 270 0)" stroke="#E1E5F0"/>
<path d="M269.785 169.819C269.235 169.846 268.696 169.983 268.199 170.22L246.565 180.557C246.005 180.824 245.513 181.213 245.126 181.695C244.738 182.177 244.465 182.739 244.327 183.34L238.99 206.56C238.866 207.095 238.853 207.649 238.949 208.189C239.046 208.729 239.25 209.245 239.551 209.705C239.624 209.818 239.703 209.927 239.787 210.032L254.761 228.65C255.148 229.132 255.64 229.521 256.2 229.788C256.76 230.055 257.374 230.194 257.995 230.194L282.009 230.188C282.63 230.189 283.243 230.051 283.803 229.784C284.363 229.517 284.855 229.128 285.243 228.647L300.212 210.026C300.599 209.544 300.873 208.982 301.011 208.381C301.15 207.78 301.15 207.155 301.011 206.554L295.666 183.335C295.527 182.734 295.254 182.171 294.867 181.69C294.479 181.208 293.987 180.819 293.427 180.551L271.791 170.22C271.166 169.922 270.477 169.784 269.785 169.819Z" fill="#326CE5"/>
<path d="M269.999 177.721C269.284 177.721 268.704 178.365 268.705 179.159C268.705 179.171 268.707 179.183 268.707 179.195C268.706 179.303 268.701 179.433 268.705 179.527C268.722 179.986 268.821 180.336 268.882 180.759C268.991 181.662 269.082 182.411 269.025 183.108C268.971 183.37 268.777 183.61 268.605 183.777L268.574 184.325C267.797 184.389 267.015 184.507 266.234 184.685C262.871 185.448 259.977 187.18 257.773 189.518C257.63 189.421 257.38 189.241 257.305 189.186C257.074 189.218 256.84 189.289 256.536 189.112C255.956 188.722 255.429 188.183 254.79 187.535C254.497 187.224 254.286 186.929 253.938 186.63C253.859 186.562 253.738 186.47 253.65 186.4C253.378 186.183 253.058 186.07 252.748 186.06C252.35 186.046 251.967 186.202 251.716 186.516C251.27 187.075 251.413 187.93 252.034 188.425C252.041 188.43 252.047 188.434 252.054 188.439C252.139 188.508 252.244 188.597 252.322 188.655C252.691 188.927 253.028 189.067 253.396 189.283C254.17 189.761 254.812 190.158 255.321 190.636C255.52 190.848 255.555 191.222 255.581 191.383L255.996 191.754C253.775 195.098 252.746 199.227 253.354 203.436L252.812 203.593C252.669 203.778 252.467 204.068 252.256 204.155C251.589 204.365 250.84 204.442 249.934 204.537C249.509 204.572 249.143 204.551 248.692 204.636C248.593 204.655 248.455 204.691 248.346 204.717C248.342 204.717 248.339 204.719 248.335 204.719C248.329 204.721 248.321 204.724 248.316 204.725C247.552 204.909 247.062 205.611 247.22 206.302C247.378 206.993 248.123 207.414 248.891 207.248C248.897 207.247 248.905 207.247 248.911 207.246C248.919 207.244 248.927 207.239 248.935 207.237C249.042 207.214 249.177 207.188 249.27 207.163C249.713 207.044 250.034 206.87 250.432 206.717C251.289 206.41 251.999 206.153 252.69 206.053C252.979 206.03 253.283 206.231 253.434 206.316L253.999 206.219C255.298 210.246 258.02 213.501 261.466 215.543L261.231 216.108C261.316 216.327 261.41 216.623 261.346 216.84C261.095 217.492 260.665 218.18 260.174 218.946C259.937 219.301 259.694 219.576 259.48 219.981C259.429 220.078 259.363 220.227 259.314 220.33C258.981 221.042 259.225 221.862 259.864 222.17C260.508 222.48 261.306 222.153 261.652 221.439C261.652 221.438 261.654 221.438 261.655 221.437C261.655 221.436 261.654 221.435 261.655 221.434C261.704 221.333 261.774 221.2 261.815 221.105C261.999 220.684 262.06 220.324 262.189 219.918C262.531 219.057 262.719 218.154 263.191 217.591C263.32 217.437 263.531 217.378 263.749 217.32L264.042 216.788C267.047 217.942 270.411 218.251 273.771 217.488C274.537 217.314 275.277 217.089 275.992 216.819C276.075 216.965 276.228 217.246 276.269 217.317C276.491 217.389 276.733 217.426 276.93 217.718C277.283 218.321 277.525 219.034 277.818 219.896C277.948 220.302 278.011 220.662 278.195 221.083C278.237 221.178 278.306 221.313 278.355 221.415C278.7 222.13 279.501 222.458 280.145 222.148C280.785 221.84 281.029 221.02 280.696 220.308C280.647 220.205 280.578 220.056 280.527 219.959C280.313 219.554 280.07 219.281 279.833 218.927C279.342 218.16 278.936 217.523 278.685 216.871C278.579 216.535 278.702 216.326 278.784 216.108C278.735 216.052 278.63 215.734 278.568 215.585C282.15 213.47 284.792 210.093 286.033 206.194C286.201 206.22 286.492 206.272 286.587 206.291C286.781 206.163 286.96 205.995 287.312 206.023C288.003 206.123 288.712 206.379 289.569 206.687C289.968 206.839 290.288 207.016 290.731 207.135C290.825 207.16 290.959 207.183 291.066 207.207C291.075 207.209 291.082 207.213 291.091 207.215C291.097 207.216 291.105 207.217 291.11 207.218C291.878 207.383 292.624 206.963 292.782 206.272C292.939 205.58 292.449 204.879 291.686 204.694C291.575 204.669 291.417 204.626 291.31 204.606C290.859 204.521 290.492 204.542 290.067 204.506C289.162 204.411 288.412 204.334 287.746 204.125C287.474 204.019 287.281 203.696 287.187 203.563L286.664 203.411C286.935 201.449 286.862 199.408 286.393 197.365C285.919 195.304 285.083 193.418 283.966 191.757C284.101 191.635 284.354 191.41 284.426 191.344C284.447 191.112 284.429 190.869 284.669 190.611C285.178 190.133 285.82 189.737 286.595 189.258C286.962 189.042 287.302 188.903 287.671 188.63C287.755 188.569 287.869 188.471 287.956 188.401C288.577 187.905 288.72 187.05 288.274 186.491C287.828 185.932 286.964 185.88 286.343 186.375C286.255 186.445 286.135 186.537 286.055 186.605C285.708 186.904 285.493 187.199 285.2 187.51C284.562 188.158 284.034 188.699 283.455 189.089C283.203 189.236 282.836 189.185 282.669 189.175L282.176 189.527C279.368 186.582 275.544 184.699 271.427 184.333C271.416 184.161 271.4 183.849 271.397 183.755C271.228 183.594 271.024 183.456 270.973 183.108C270.917 182.411 271.011 181.662 271.12 180.759C271.18 180.336 271.28 179.986 271.297 179.527C271.301 179.423 271.295 179.272 271.294 179.159C271.294 178.365 270.715 177.72 269.999 177.721ZM268.378 187.764L267.993 194.557L267.966 194.571C267.94 195.178 267.44 195.664 266.826 195.664C266.574 195.664 266.342 195.583 266.153 195.445L266.142 195.45L260.573 191.502C262.285 189.819 264.474 188.575 266.997 188.002C267.458 187.897 267.919 187.82 268.378 187.764ZM271.624 187.764C274.57 188.127 277.294 189.46 279.382 191.505L273.848 195.428L273.829 195.42C273.338 195.779 272.646 195.69 272.263 195.21C272.106 195.013 272.024 194.782 272.014 194.548L272.008 194.546L271.624 187.764ZM258.553 194.039L263.638 198.588L263.633 198.616C264.092 199.015 264.16 199.707 263.777 200.187C263.62 200.384 263.41 200.516 263.185 200.577L263.179 200.6L256.66 202.481C256.329 199.447 257.044 196.498 258.553 194.039ZM281.41 194.042C282.165 195.267 282.738 196.635 283.078 198.118C283.415 199.583 283.499 201.045 283.36 202.459L276.809 200.572L276.803 200.544C276.216 200.384 275.856 199.787 275.992 199.188C276.048 198.943 276.179 198.736 276.355 198.583L276.352 198.569L281.41 194.042ZM268.956 198.939H271.04L272.335 200.558L271.87 202.578L269.999 203.477L268.123 202.575L267.659 200.555L268.956 198.939ZM275.635 204.479C275.724 204.474 275.812 204.482 275.898 204.498L275.909 204.484L282.652 205.624C281.665 208.397 279.777 210.798 277.254 212.406L274.637 206.083L274.645 206.072C274.404 205.514 274.645 204.859 275.198 204.592C275.34 204.524 275.488 204.486 275.635 204.479ZM264.311 204.506C264.825 204.514 265.287 204.871 265.406 205.394C265.462 205.64 265.435 205.883 265.343 206.097L265.362 206.122L262.772 212.381C260.351 210.827 258.423 208.501 257.391 205.646L264.076 204.512L264.087 204.526C264.161 204.512 264.237 204.505 264.311 204.506ZM269.958 207.248C270.137 207.242 270.319 207.278 270.492 207.362C270.719 207.471 270.894 207.643 271.004 207.849H271.029L274.324 213.803C273.896 213.946 273.457 214.069 273.007 214.171C270.487 214.743 267.975 214.57 265.7 213.795L268.987 207.851H268.992C269.19 207.483 269.564 207.263 269.958 207.248Z" fill="white"/>
<path d="M216.452 194L213 196V200L216.452 202L219.904 200V196L216.452 194Z" fill="#001848"/>
<path d="M329.452 257L326 259V263L329.452 265L332.904 263V259L329.452 257Z" fill="#001848"/>
<path d="M253.452 253L250 255V259L253.452 261L256.904 259V255L253.452 253Z" fill="#001848"/>
<path d="M322.452 133L319 135V139L322.452 141L325.904 139V135L322.452 133Z" fill="#001848"/>
<path d="M326.452 186L323 188V192L326.452 194L329.904 192V188L326.452 186Z" fill="#001848"/>
<path d="M243.452 122L240 124V128L243.452 130L246.904 128V124L243.452 122Z" fill="#001848"/>
<path d="M292.452 280L289 282V286L292.452 288L295.904 286V282L292.452 280Z" fill="#2F6FF0"/>
<path d="M322.452 224L319 226V230L322.452 232L325.904 230V226L322.452 224Z" fill="#2F6FF0"/>
<path d="M216.452 265L213 267V271L216.452 273L219.904 271V267L216.452 265Z" fill="#2F6FF0"/>
<path d="M189.452 178L186 180V184L189.452 186L192.904 184V180L189.452 178Z" fill="#2F6FF0"/>
<path d="M307.452 156L304 158V162L307.452 164L310.904 162V158L307.452 156Z" fill="#2F6FF0"/>
<path d="M344.452 164L341 166V170L344.452 172L347.904 170V166L344.452 164Z" fill="white"/>
<path d="M232.452 160L229 162V166L232.452 168L235.904 166V162L232.452 160Z" fill="white"/>
<path d="M223.452 234L220 236V240L223.452 242L226.904 240V236L223.452 234Z" fill="white"/>
<path d="M289.452 249L286 251V255L289.452 257L292.904 255V251L289.452 249Z" fill="white"/>
<path d="M286.452 114L283 116V120L286.452 122L289.904 120V116L286.452 114Z" fill="white"/>
<path d="M192.452 226L189 228V232L192.452 234L195.904 232V228L192.452 226Z" fill="#0040A1"/>
<path d="M351.452 192L348 194V198L351.452 200L354.904 198V194L351.452 192Z" fill="#0040A1"/>
<path d="M275.452 145L272 147V151L275.452 153L278.904 151V147L275.452 145Z" fill="#0040A1"/>
<path d="M344.452 226L341 228V232L344.452 234L347.904 232V228L344.452 226Z" fill="#0040A1"/>
<path d="M209.452 141L206 143V147L209.452 149L212.904 147V143L209.452 141Z" fill="#0040A1"/>
<path d="M246.452 280L243 282V286L246.452 288L249.904 286V282L246.452 280Z" fill="#0040A1"/>
<g filter="url(#filter0_dd_1283_9258)">
<rect x="364" y="104" width="120" height="40" rx="8" fill="#F0F3FA" shape-rendering="crispEdges"/>
<rect x="364.5" y="104.5" width="119" height="39" rx="7.5" stroke="#D4D9E6" shape-rendering="crispEdges"/>
<path d="M395.25 125.5H372.75C372.551 125.5 372.36 125.579 372.22 125.72C372.079 125.86 372 126.051 372 126.25V133.75C372 133.949 372.079 134.14 372.22 134.28C372.36 134.421 372.551 134.5 372.75 134.5H395.25C395.449 134.5 395.64 134.421 395.78 134.28C395.921 134.14 396 133.949 396 133.75V126.25C396 126.051 395.921 125.86 395.78 125.72C395.64 125.579 395.449 125.5 395.25 125.5ZM381 130.75H375.75V129.25H381V130.75ZM391.5 130.75C391.352 130.75 391.207 130.706 391.083 130.624C390.96 130.541 390.864 130.424 390.807 130.287C390.75 130.15 390.735 129.999 390.764 129.854C390.793 129.708 390.865 129.575 390.97 129.47C391.075 129.365 391.208 129.293 391.354 129.264C391.499 129.235 391.65 129.25 391.787 129.307C391.924 129.364 392.041 129.46 392.124 129.583C392.206 129.707 392.25 129.852 392.25 130C392.25 130.199 392.171 130.39 392.03 130.53C391.89 130.671 391.699 130.75 391.5 130.75Z" fill="#2F6FF0"/>
<path d="M395.25 113.5H372.75C372.551 113.5 372.36 113.579 372.22 113.72C372.079 113.86 372 114.051 372 114.25V121.75C372 121.949 372.079 122.14 372.22 122.28C372.36 122.421 372.551 122.5 372.75 122.5H375V124.75H376.5V122.5H391.5V124.75H393V122.5H395.25C395.449 122.5 395.64 122.421 395.78 122.28C395.921 122.14 396 121.949 396 121.75V114.25C396 114.051 395.921 113.86 395.78 113.72C395.64 113.579 395.449 113.5 395.25 113.5ZM381 118.75H375.75V117.25H381V118.75ZM390.75 118C390.75 117.852 390.794 117.707 390.876 117.583C390.959 117.46 391.076 117.364 391.213 117.307C391.35 117.25 391.501 117.235 391.646 117.264C391.792 117.293 391.925 117.365 392.03 117.47C392.135 117.575 392.207 117.708 392.236 117.854C392.265 117.999 392.25 118.15 392.193 118.287C392.136 118.424 392.04 118.541 391.917 118.624C391.793 118.706 391.648 118.75 391.5 118.75C391.301 118.75 391.11 118.671 390.97 118.53C390.829 118.39 390.75 118.199 390.75 118Z" fill="#2F6FF0"/>
<path d="M407.489 128.12C405.689 128.12 404.499 126.73 404.499 124.51C404.499 122.28 405.689 120.9 407.489 120.9C409.289 120.9 410.469 122.28 410.469 124.51C410.469 126.73 409.289 128.12 407.489 128.12ZM407.489 127.07C408.479 127.07 409.169 126.1 409.169 124.51C409.169 122.91 408.479 121.95 407.489 121.95C406.499 121.95 405.809 122.92 405.809 124.51C405.809 126.1 406.499 127.07 407.489 127.07ZM411.352 128V121.02H412.932L415.522 126.4L415.432 124.12V121.02H416.622V128H415.052L412.442 122.69L412.542 124.9V128H411.352ZM418.906 125.43V124.39H422.056V125.43H418.906ZM424.48 128V121.02H427.19C428.75 121.02 429.78 121.9 429.78 123.27C429.78 124.66 428.73 125.57 427.13 125.57H425.74V128H424.48ZM427.19 122.07H425.74V124.52H427.12C427.93 124.52 428.47 124.02 428.47 123.27C428.47 122.55 427.96 122.07 427.19 122.07ZM431.014 128V121.02H433.804C435.234 121.02 436.264 121.78 436.264 123.06C436.264 123.9 435.634 124.72 434.574 125.04C435.674 125.86 436.174 126.95 436.244 128H434.954C434.864 126.96 434.244 125.91 433.054 125.18H432.274V128H431.014ZM433.804 122.07H432.274V124.14H433.624C434.404 124.14 434.954 123.71 434.954 123.06C434.954 122.46 434.454 122.07 433.804 122.07ZM437.548 128V121.02H442.608V122.07H438.798V123.86H441.368V124.91H438.798V126.95H442.648V128H437.548ZM443.472 128L443.982 121.02H445.602L446.322 124.74L446.532 126.26L446.742 124.74L447.422 121.02H449.032L449.542 128H448.302L448.142 123.93L448.112 122.26L447.802 123.93L447.002 128H445.982L445.192 123.93L444.892 122.25L444.852 123.93L444.702 128H443.472ZM450.676 126.95H452.376V122.07H450.676V121.02H455.326V122.07H453.626V126.95H455.326V128H450.676V126.95ZM459.59 128.12C457.93 128.12 456.9 127.15 456.9 125.5H458.14C458.14 126.51 458.66 127.07 459.58 127.07C460.35 127.07 460.85 126.71 460.85 126.08C460.85 124.53 457 125.47 457 122.91C457 121.76 457.99 120.9 459.49 120.9C460.92 120.9 462.07 121.73 462.1 123.14H460.84C460.82 122.39 460.21 121.95 459.49 121.95C458.8 121.95 458.31 122.3 458.31 122.88C458.31 124.34 462.16 123.32 462.16 126.07C462.16 127.3 461.07 128.12 459.59 128.12ZM463.564 128V121.02H468.624V122.07H464.814V123.86H467.384V124.91H464.814V126.95H468.664V128H463.564ZM472.598 128.12C470.938 128.12 469.908 127.15 469.908 125.5H471.148C471.148 126.51 471.668 127.07 472.588 127.07C473.358 127.07 473.858 126.71 473.858 126.08C473.858 124.53 470.008 125.47 470.008 122.91C470.008 121.76 470.998 120.9 472.498 120.9C473.928 120.9 475.078 121.73 475.108 123.14H473.848C473.828 122.39 473.218 121.95 472.498 121.95C471.808 121.95 471.318 122.3 471.318 122.88C471.318 124.34 475.168 123.32 475.168 126.07C475.168 127.3 474.078 128.12 472.598 128.12Z" fill="#3D4866"/>
</g>
<g filter="url(#filter1_dd_1283_9258)">
<rect x="388" y="180" width="120" height="40" rx="8" fill="#F0F3FA" shape-rendering="crispEdges"/>
<rect x="388.5" y="180.5" width="119" height="39" rx="7.5" stroke="#D4D9E6" shape-rendering="crispEdges"/>
<path d="M416.1 198.575C415.5 194.675 412.05 191.75 408 191.75C404.475 191.75 401.4 193.925 400.275 197.15C397.725 197.825 396 200 396 202.625C396 205.55 398.25 208.025 401.25 208.25H415.5H415.575C418.05 208.025 420 205.85 420 203.375C420 201.05 418.35 199.1 416.1 198.575Z" fill="#8547FF"/>
<path d="M431.579 204.12C429.719 204.12 428.559 202.65 428.559 200.51C428.559 198.31 429.769 196.9 431.629 196.9C433.099 196.9 434.289 197.8 434.399 199.31H433.029C432.929 198.49 432.419 197.95 431.619 197.95C430.589 197.95 429.869 198.9 429.869 200.51C429.869 202.13 430.589 203.07 431.579 203.07C432.409 203.07 432.979 202.53 433.059 201.65H434.439C434.289 203.15 433.239 204.12 431.579 204.12ZM435.742 204V197.02H437.002V202.95H440.562V204H435.742ZM444.496 204.12C442.696 204.12 441.506 202.73 441.506 200.51C441.506 198.28 442.696 196.9 444.496 196.9C446.296 196.9 447.476 198.28 447.476 200.51C447.476 202.73 446.296 204.12 444.496 204.12ZM444.496 203.07C445.486 203.07 446.176 202.1 446.176 200.51C446.176 198.91 445.486 197.95 444.496 197.95C443.506 197.95 442.816 198.92 442.816 200.51C442.816 202.1 443.506 203.07 444.496 203.07ZM450.99 204.12C449.29 204.12 448.23 203.08 448.23 201.52V197.02H449.49V201.52C449.49 202.46 450.08 203.06 450.99 203.06C451.9 203.06 452.49 202.46 452.49 201.52V197.02H453.76V201.52C453.76 203.08 452.68 204.12 450.99 204.12ZM454.884 204V197.02H457.094C459.154 197.02 460.424 198.38 460.424 200.49C460.424 202.62 459.154 204 457.094 204H454.884ZM456.134 202.95H457.094C458.364 202.95 459.124 201.98 459.124 200.49C459.124 199.02 458.364 198.07 457.094 198.07H456.134V202.95ZM471.982 200.35C472.752 200.58 473.262 201.14 473.262 202.02C473.262 203.22 472.282 204 470.792 204H468.022V197.02H470.692C472.202 197.02 473.092 197.73 473.092 198.79C473.092 199.53 472.672 200.1 471.982 200.35ZM470.622 198.07H469.282V199.92H470.622C471.322 199.92 471.782 199.54 471.782 198.98C471.782 198.41 471.312 198.07 470.622 198.07ZM469.282 202.95H470.762C471.482 202.95 471.952 202.57 471.952 201.97C471.952 201.34 471.472 200.97 470.692 200.97H469.282V202.95ZM476.086 197.02H477.926L479.956 204H478.666L478.206 202.38H475.776L475.316 204H474.056L476.086 197.02ZM476.576 199.61L476.076 201.33H477.906L477.416 199.6L477.006 197.96L476.576 199.61ZM483.59 204.12C481.93 204.12 480.9 203.15 480.9 201.5H482.14C482.14 202.51 482.66 203.07 483.58 203.07C484.35 203.07 484.85 202.71 484.85 202.08C484.85 200.53 481 201.47 481 198.91C481 197.76 481.99 196.9 483.49 196.9C484.92 196.9 486.07 197.73 486.1 199.14H484.84C484.82 198.39 484.21 197.95 483.49 197.95C482.8 197.95 482.31 198.3 482.31 198.88C482.31 200.34 486.16 199.32 486.16 202.07C486.16 203.3 485.07 204.12 483.59 204.12ZM487.564 204V197.02H492.624V198.07H488.814V199.86H491.384V200.91H488.814V202.95H492.664V204H487.564ZM493.908 204V197.02H496.118C498.178 197.02 499.448 198.38 499.448 200.49C499.448 202.62 498.178 204 496.118 204H493.908ZM495.158 202.95H496.118C497.388 202.95 498.148 201.98 498.148 200.49C498.148 199.02 497.388 198.07 496.118 198.07H495.158V202.95Z" fill="#3D4866"/>
</g>
<g filter="url(#filter2_dd_1283_9258)">
<rect x="32" y="168" width="64" height="64" rx="8" fill="#F0F3FA" shape-rendering="crispEdges"/>
<rect x="32.5" y="168.5" width="63" height="63" rx="7.5" stroke="#D4D9E6" shape-rendering="crispEdges"/>
<path fill-rule="evenodd" clip-rule="evenodd" d="M81.3184 190L81.3205 189.999L72.659 184.999L63.9999 179.999L55.3385 184.999L46.6797 189.999L46.6801 190V209.999L55.3392 214.999L64.0005 219.999V220L69.5412 216.803L69.5415 216.802L69.5413 216.802V209.999L64.0006 213.199L58.284 209.899L52.5701 206.6V193.401L58.284 190.102L64.0006 186.802L69.7145 190.102L75.431 193.401V219.999L75.4306 219.999L75.4314 220.001L81.3212 216.602V190.001L81.3184 190ZM64.0006 206.398L69.5413 203.199V196.802L64.0006 193.603L58.4599 196.802V203.199L64.0006 206.398Z" fill="#DC244C"/>
</g>
<g filter="url(#filter3_dd_1283_9258)">
<rect x="364" y="256" width="114" height="40" rx="8" fill="#F0F3FA" shape-rendering="crispEdges"/>
<rect x="364.5" y="256.5" width="113" height="39" rx="7.5" stroke="#D4D9E6" shape-rendering="crispEdges"/>
<g clip-path="url(#clip0_1283_9258)">
<path d="M384 273C383.407 273 382.827 273.176 382.333 273.506C381.84 273.835 381.455 274.304 381.228 274.852C381.001 275.4 380.942 276.003 381.058 276.585C381.173 277.167 381.459 277.702 381.879 278.121C382.298 278.541 382.833 278.827 383.415 278.942C383.997 279.058 384.6 278.999 385.148 278.772C385.696 278.545 386.165 278.16 386.494 277.667C386.824 277.173 387 276.593 387 276C387 275.204 386.684 274.441 386.121 273.879C385.559 273.316 384.796 273 384 273Z" fill="#038585"/>
<path d="M396 276C396 273.421 393.6 271.173 390.041 269.959C388.827 266.4 386.579 264 384 264C380.134 264 377 269.373 377 276C376.999 277.226 377.11 278.449 377.333 279.655C375.243 278.675 374 277.3 374 276C374.03 275.582 374.144 275.174 374.333 274.8C374.523 274.426 374.785 274.093 375.105 273.822C375.204 272.873 375.37 271.933 375.6 271.007C373.379 272.277 372 274.044 372 276C372 278.579 374.4 280.827 377.959 282.041C379.173 285.6 381.421 288 384 288C385.956 288 387.723 286.621 388.993 284.4C388.067 284.629 387.127 284.793 386.178 284.891C385.907 285.211 385.575 285.474 385.201 285.665C384.827 285.855 384.419 285.969 384 286C382.7 286 381.325 284.757 380.345 282.667C381.551 282.89 382.774 283.001 384 283C390.627 283 396 279.866 396 276ZM379 276C379 270.106 381.635 266 384 266C385.3 266 386.675 267.243 387.655 269.333C386.449 269.11 385.226 268.999 384 269C383.592 269 383.189 269.012 382.792 269.036C382.353 269.686 382.005 270.392 381.756 271.136C382.501 271.046 383.25 271 384 271C385.5 270.994 386.994 271.18 388.446 271.554C388.82 273.006 389.006 274.5 389 276C389 276.75 388.955 277.499 388.865 278.244C389.609 277.995 390.315 277.647 390.965 277.208C390.988 276.81 391 276.407 391 276C391.001 274.774 390.89 273.551 390.667 272.345C392.757 273.325 394 274.7 394 276C394 278.365 389.894 281 384 281C382.5 281.006 381.006 280.82 379.554 280.446C379.18 278.994 378.994 277.5 379 276Z" fill="#038585"/>
</g>
<path d="M405.28 280V273.02H410.34V274.07H406.53V275.86H409.1V276.91H406.53V278.95H410.38V280H405.28ZM411.624 280V273.02H413.834C415.894 273.02 417.164 274.38 417.164 276.49C417.164 278.62 415.894 280 413.834 280H411.624ZM412.874 278.95H413.834C415.104 278.95 415.864 277.98 415.864 276.49C415.864 275.02 415.104 274.07 413.834 274.07H412.874V278.95ZM420.828 280.12C418.978 280.12 417.758 278.68 417.758 276.51C417.758 274.36 418.978 272.9 420.898 272.9C422.318 272.9 423.478 273.78 423.588 275.3H422.208C422.118 274.5 421.628 273.95 420.868 273.95C419.838 273.95 419.068 274.9 419.068 276.51C419.068 278.16 419.858 279.07 420.938 279.07C421.548 279.07 422.008 278.84 422.348 278.49V277.31L421.228 277.35L421.268 276.29H423.588V278.85C423.018 279.65 422.078 280.12 420.828 280.12ZM424.792 280V273.02H429.852V274.07H426.042V275.86H428.612V276.91H426.042V278.95H429.892V280H424.792ZM441.73 276.35C442.5 276.58 443.01 277.14 443.01 278.02C443.01 279.22 442.03 280 440.54 280H437.77V273.02H440.44C441.95 273.02 442.84 273.73 442.84 274.79C442.84 275.53 442.42 276.1 441.73 276.35ZM440.37 274.07H439.03V275.92H440.37C441.07 275.92 441.53 275.54 441.53 274.98C441.53 274.41 441.06 274.07 440.37 274.07ZM439.03 278.95H440.51C441.23 278.95 441.7 278.57 441.7 277.97C441.7 277.34 441.22 276.97 440.44 276.97H439.03V278.95ZM445.834 273.02H447.674L449.704 280H448.414L447.954 278.38H445.524L445.064 280H443.804L445.834 273.02ZM446.324 275.61L445.824 277.33H447.654L447.164 275.6L446.754 273.96L446.324 275.61ZM453.338 280.12C451.678 280.12 450.648 279.15 450.648 277.5H451.888C451.888 278.51 452.408 279.07 453.328 279.07C454.098 279.07 454.598 278.71 454.598 278.08C454.598 276.53 450.748 277.47 450.748 274.91C450.748 273.76 451.738 272.9 453.238 272.9C454.668 272.9 455.818 273.73 455.848 275.14H454.588C454.568 274.39 453.958 273.95 453.238 273.95C452.548 273.95 452.058 274.3 452.058 274.88C452.058 276.34 455.908 275.32 455.908 278.07C455.908 279.3 454.818 280.12 453.338 280.12ZM457.312 280V273.02H462.372V274.07H458.562V275.86H461.132V276.91H458.562V278.95H462.412V280H457.312ZM463.656 280V273.02H465.866C467.926 273.02 469.196 274.38 469.196 276.49C469.196 278.62 467.926 280 465.866 280H463.656ZM464.906 278.95H465.866C467.136 278.95 467.896 277.98 467.896 276.49C467.896 275.02 467.136 274.07 465.866 274.07H464.906V278.95Z" fill="#3D4866"/>
</g>
<defs>
<filter id="filter0_dd_1283_9258" x="344" y="94" width="160" height="80" filterUnits="userSpaceOnUse" color-interpolation-filters="sRGB">
<feFlood flood-opacity="0" result="BackgroundImageFix"/>
<feColorMatrix in="SourceAlpha" type="matrix" values="0 0 0 0 0 0 0 0 0 0 0 0 0 0 0 0 0 0 127 0" result="hardAlpha"/>
<feOffset dy="10"/>
<feGaussianBlur stdDeviation="10"/>
<feComposite in2="hardAlpha" operator="out"/>
<feColorMatrix type="matrix" values="0 0 0 0 0.088 0 0 0 0 0.117867 0 0 0 0 0.2 0 0 0 0.1 0"/>
<feBlend mode="normal" in2="BackgroundImageFix" result="effect1_dropShadow_1283_9258"/>
<feColorMatrix in="SourceAlpha" type="matrix" values="0 0 0 0 0 0 0 0 0 0 0 0 0 0 0 0 0 0 127 0" result="hardAlpha"/>
<feOffset dy="1"/>
<feGaussianBlur stdDeviation="1"/>
<feComposite in2="hardAlpha" operator="out"/>
<feColorMatrix type="matrix" values="0 0 0 0 0.088 0 0 0 0 0.117867 0 0 0 0 0.2 0 0 0 0.1 0"/>
<feBlend mode="normal" in2="effect1_dropShadow_1283_9258" result="effect2_dropShadow_1283_9258"/>
<feBlend mode="normal" in="SourceGraphic" in2="effect2_dropShadow_1283_9258" result="shape"/>
</filter>
<filter id="filter1_dd_1283_9258" x="368" y="170" width="160" height="80" filterUnits="userSpaceOnUse" color-interpolation-filters="sRGB">
<feFlood flood-opacity="0" result="BackgroundImageFix"/>
<feColorMatrix in="SourceAlpha" type="matrix" values="0 0 0 0 0 0 0 0 0 0 0 0 0 0 0 0 0 0 127 0" result="hardAlpha"/>
<feOffset dy="10"/>
<feGaussianBlur stdDeviation="10"/>
<feComposite in2="hardAlpha" operator="out"/>
<feColorMatrix type="matrix" values="0 0 0 0 0.088 0 0 0 0 0.117867 0 0 0 0 0.2 0 0 0 0.1 0"/>
<feBlend mode="normal" in2="BackgroundImageFix" result="effect1_dropShadow_1283_9258"/>
<feColorMatrix in="SourceAlpha" type="matrix" values="0 0 0 0 0 0 0 0 0 0 0 0 0 0 0 0 0 0 127 0" result="hardAlpha"/>
<feOffset dy="1"/>
<feGaussianBlur stdDeviation="1"/>
<feComposite in2="hardAlpha" operator="out"/>
<feColorMatrix type="matrix" values="0 0 0 0 0.088 0 0 0 0 0.117867 0 0 0 0 0.2 0 0 0 0.1 0"/>
<feBlend mode="normal" in2="effect1_dropShadow_1283_9258" result="effect2_dropShadow_1283_9258"/>
<feBlend mode="normal" in="SourceGraphic" in2="effect2_dropShadow_1283_9258" result="shape"/>
</filter>
<filter id="filter2_dd_1283_9258" x="12" y="158" width="104" height="104" filterUnits="userSpaceOnUse" color-interpolation-filters="sRGB">
<feFlood flood-opacity="0" result="BackgroundImageFix"/>
<feColorMatrix in="SourceAlpha" type="matrix" values="0 0 0 0 0 0 0 0 0 0 0 0 0 0 0 0 0 0 127 0" result="hardAlpha"/>
<feOffset dy="10"/>
<feGaussianBlur stdDeviation="10"/>
<feComposite in2="hardAlpha" operator="out"/>
<feColorMatrix type="matrix" values="0 0 0 0 0.088 0 0 0 0 0.117867 0 0 0 0 0.2 0 0 0 0.1 0"/>
<feBlend mode="normal" in2="BackgroundImageFix" result="effect1_dropShadow_1283_9258"/>
<feColorMatrix in="SourceAlpha" type="matrix" values="0 0 0 0 0 0 0 0 0 0 0 0 0 0 0 0 0 0 127 0" result="hardAlpha"/>
<feOffset dy="1"/>
<feGaussianBlur stdDeviation="1"/>
<feComposite in2="hardAlpha" operator="out"/>
<feColorMatrix type="matrix" values="0 0 0 0 0.088 0 0 0 0 0.117867 0 0 0 0 0.2 0 0 0 0.1 0"/>
<feBlend mode="normal" in2="effect1_dropShadow_1283_9258" result="effect2_dropShadow_1283_9258"/>
<feBlend mode="normal" in="SourceGraphic" in2="effect2_dropShadow_1283_9258" result="shape"/>
</filter>
<filter id="filter3_dd_1283_9258" x="344" y="246" width="154" height="80" filterUnits="userSpaceOnUse" color-interpolation-filters="sRGB">
<feFlood flood-opacity="0" result="BackgroundImageFix"/>
<feColorMatrix in="SourceAlpha" type="matrix" values="0 0 0 0 0 0 0 0 0 0 0 0 0 0 0 0 0 0 127 0" result="hardAlpha"/>
<feOffset dy="10"/>
<feGaussianBlur stdDeviation="10"/>
<feComposite in2="hardAlpha" operator="out"/>
<feColorMatrix type="matrix" values="0 0 0 0 0.088 0 0 0 0 0.117867 0 0 0 0 0.2 0 0 0 0.1 0"/>
<feBlend mode="normal" in2="BackgroundImageFix" result="effect1_dropShadow_1283_9258"/>
<feColorMatrix in="SourceAlpha" type="matrix" values="0 0 0 0 0 0 0 0 0 0 0 0 0 0 0 0 0 0 127 0" result="hardAlpha"/>
<feOffset dy="1"/>
<feGaussianBlur stdDeviation="1"/>
<feComposite in2="hardAlpha" operator="out"/>
<feColorMatrix type="matrix" values="0 0 0 0 0.088 0 0 0 0 0.117867 0 0 0 0 0.2 0 0 0 0.1 0"/>
<feBlend mode="normal" in2="effect1_dropShadow_1283_9258" result="effect2_dropShadow_1283_9258"/>
<feBlend mode="normal" in="SourceGraphic" in2="effect2_dropShadow_1283_9258" result="shape"/>
</filter>
<clipPath id="clip0_1283_9258">
<rect width="24" height="24" fill="white" transform="translate(372 264)"/>
</clipPath>
</defs>
</svg>
