<svg width="801" height="562" viewBox="0 0 801 562" fill="none" xmlns="http://www.w3.org/2000/svg">
<rect x="1" y="1" width="80" height="80" stroke="#D4D9E6"/>
<rect x="81" y="1" width="80" height="80" stroke="#D4D9E6"/>
<rect x="161" y="1" width="80" height="80" stroke="#D4D9E6"/>
<rect x="241" y="1" width="80" height="80" stroke="#D4D9E6"/>
<rect x="321" y="1" width="80" height="80" fill="url(#paint0_linear_8106_34156)" stroke="#D4D9E6"/>
<rect x="401" y="1" width="80" height="80" stroke="#D4D9E6"/>
<rect x="481" y="1" width="80" height="80" stroke="#D4D9E6"/>
<rect x="561" y="1" width="80" height="80" stroke="#D4D9E6"/>
<rect x="641" y="1" width="80" height="80" stroke="#D4D9E6"/>
<rect x="721" y="1" width="80" height="80" stroke="#D4D9E6"/>
<rect x="1" y="81" width="80" height="80" stroke="#D4D9E6"/>
<rect x="81" y="81" width="80" height="80" fill="url(#paint1_linear_8106_34156)" stroke="#D4D9E6"/>
<rect x="161" y="81" width="80" height="80" stroke="#D4D9E6"/>
<rect x="241" y="81" width="80" height="80" stroke="#D4D9E6"/>
<rect x="321" y="81" width="80" height="80" stroke="#D4D9E6"/>
<rect x="401" y="81" width="80" height="80" stroke="#D4D9E6"/>
<rect x="481" y="81" width="80" height="80" stroke="#D4D9E6"/>
<rect x="561" y="81" width="80" height="80" stroke="#D4D9E6"/>
<rect x="641" y="81" width="80" height="80" stroke="#D4D9E6"/>
<rect x="721" y="81" width="80" height="80" stroke="#D4D9E6"/>
<rect x="1" y="161" width="80" height="80" stroke="#D4D9E6"/>
<path d="M81 161H161V241H81V161Z" fill="url(#paint2_linear_8106_34156)" stroke="#D4D9E6"/>
<rect x="161" y="161" width="80" height="80" stroke="#D4D9E6"/>
<rect x="241" y="161" width="80" height="80" stroke="#D4D9E6"/>
<rect x="321" y="161" width="80" height="80" stroke="#D4D9E6"/>
<rect x="401" y="161" width="80" height="80" stroke="#D4D9E6"/>
<rect x="481" y="161" width="80" height="80" stroke="#D4D9E6"/>
<rect x="561" y="161" width="80" height="80" stroke="#D4D9E6"/>
<rect x="641" y="161" width="80" height="80" stroke="#D4D9E6"/>
<rect x="721" y="161" width="80" height="80" stroke="#D4D9E6"/>
<rect x="1" y="241" width="80" height="80" stroke="#D4D9E6"/>
<rect x="81" y="241" width="80" height="80" stroke="#D4D9E6"/>
<rect x="161" y="241" width="80" height="80" stroke="#D4D9E6"/>
<rect x="241" y="241" width="80" height="80" stroke="#D4D9E6"/>
<rect x="321" y="241" width="80" height="80" stroke="#D4D9E6"/>
<rect x="401" y="241" width="80" height="80" stroke="#D4D9E6"/>
<rect x="481" y="241" width="80" height="80" fill="url(#paint3_linear_8106_34156)" stroke="#D4D9E6"/>
<path d="M561 241H641V321H561V241Z" fill="url(#paint4_linear_8106_34156)" stroke="#D4D9E6"/>
<rect x="641" y="241" width="80" height="80" stroke="#D4D9E6"/>
<rect x="721" y="241" width="80" height="80" stroke="#D4D9E6"/>
<rect x="1" y="321" width="80" height="80" stroke="#D4D9E6"/>
<rect x="81" y="321" width="80" height="80" stroke="#D4D9E6"/>
<rect x="161" y="321" width="80" height="80" stroke="#D4D9E6"/>
<rect x="241" y="321" width="80" height="80" stroke="#D4D9E6"/>
<rect x="321" y="321" width="80" height="80" stroke="#D4D9E6"/>
<rect x="401" y="321" width="80" height="80" stroke="#D4D9E6"/>
<rect x="481" y="321" width="80" height="80" stroke="#D4D9E6"/>
<rect x="561" y="321" width="80" height="80" stroke="#D4D9E6"/>
<rect x="641" y="321" width="80" height="80" stroke="#D4D9E6"/>
<rect x="721" y="321" width="80" height="80" fill="url(#paint5_linear_8106_34156)" stroke="#D4D9E6"/>
<rect x="1" y="401" width="80" height="80" stroke="#D4D9E6"/>
<rect x="81" y="401" width="80" height="80" stroke="#D4D9E6"/>
<rect x="161" y="401" width="80" height="80" stroke="#D4D9E6"/>
<rect x="241" y="401" width="80" height="80" stroke="#D4D9E6"/>
<rect x="321" y="401" width="80" height="80" stroke="#D4D9E6"/>
<rect x="401" y="401" width="80" height="80" stroke="#D4D9E6"/>
<rect x="481" y="401" width="80" height="80" stroke="#D4D9E6"/>
<rect x="561" y="401" width="80" height="80" stroke="#D4D9E6"/>
<rect x="641" y="401" width="80" height="80" stroke="#D4D9E6"/>
<rect x="721" y="401" width="80" height="80" stroke="#D4D9E6"/>
<rect x="1" y="481" width="80" height="80" stroke="#D4D9E6"/>
<rect x="81" y="481" width="80" height="80" stroke="#D4D9E6"/>
<rect x="161" y="481" width="80" height="80" stroke="#D4D9E6"/>
<rect x="241" y="481" width="80" height="80" stroke="#D4D9E6"/>
<rect x="321" y="481" width="80" height="80" stroke="#D4D9E6"/>
<rect x="401" y="481" width="80" height="80" fill="url(#paint6_linear_8106_34156)" stroke="#D4D9E6"/>
<rect x="481" y="481" width="80" height="80" stroke="#D4D9E6"/>
<rect x="561" y="481" width="80" height="80" stroke="#D4D9E6"/>
<rect x="641" y="481" width="80" height="80" stroke="#D4D9E6"/>
<rect x="721" y="481" width="80" height="80" stroke="#D4D9E6"/>
<rect y="1" width="240" height="560" fill="url(#paint7_linear_8106_34156)"/>
<rect x="562" y="1" width="240" height="560" fill="url(#paint8_linear_8106_34156)"/>
<defs>
<linearGradient id="paint0_linear_8106_34156" x1="361" y1="1" x2="361" y2="81" gradientUnits="userSpaceOnUse">
<stop stop-color="#F0F3FA" stop-opacity="0"/>
<stop offset="1" stop-color="#F0F3FA"/>
</linearGradient>
<linearGradient id="paint1_linear_8106_34156" x1="121" y1="81" x2="121" y2="161" gradientUnits="userSpaceOnUse">
<stop stop-color="#F0F3FA" stop-opacity="0"/>
<stop offset="1" stop-color="#F0F3FA"/>
</linearGradient>
<linearGradient id="paint2_linear_8106_34156" x1="121" y1="161" x2="121" y2="241" gradientUnits="userSpaceOnUse">
<stop stop-color="#F0F3FA" stop-opacity="0"/>
<stop offset="1" stop-color="#F0F3FA"/>
</linearGradient>
<linearGradient id="paint3_linear_8106_34156" x1="521" y1="241" x2="521" y2="321" gradientUnits="userSpaceOnUse">
<stop stop-color="#F0F3FA" stop-opacity="0"/>
<stop offset="1" stop-color="#F0F3FA"/>
</linearGradient>
<linearGradient id="paint4_linear_8106_34156" x1="601" y1="241" x2="601" y2="321" gradientUnits="userSpaceOnUse">
<stop stop-color="#F0F3FA" stop-opacity="0"/>
<stop offset="1" stop-color="#F0F3FA"/>
</linearGradient>
<linearGradient id="paint5_linear_8106_34156" x1="761" y1="321" x2="761" y2="401" gradientUnits="userSpaceOnUse">
<stop stop-color="#F0F3FA" stop-opacity="0"/>
<stop offset="1" stop-color="#F0F3FA"/>
</linearGradient>
<linearGradient id="paint6_linear_8106_34156" x1="441" y1="481" x2="441" y2="561" gradientUnits="userSpaceOnUse">
<stop stop-color="#F0F3FA" stop-opacity="0"/>
<stop offset="1" stop-color="#F0F3FA"/>
</linearGradient>
<linearGradient id="paint7_linear_8106_34156" x1="0" y1="281" x2="240" y2="281" gradientUnits="userSpaceOnUse">
<stop offset="0.32" stop-color="#E1E5F0"/>
<stop offset="1" stop-color="#E1E5F0" stop-opacity="0"/>
</linearGradient>
<linearGradient id="paint8_linear_8106_34156" x1="802" y1="281" x2="562" y2="281" gradientUnits="userSpaceOnUse">
<stop offset="0.387879" stop-color="#E1E5F0"/>
<stop offset="1" stop-color="#E1E5F0" stop-opacity="0"/>
</linearGradient>
</defs>
</svg>
