<svg width="300" height="210" viewBox="0 0 300 210" fill="none" xmlns="http://www.w3.org/2000/svg">
<g clip-path="url(#clip0_4227_7427)">
<circle cx="150" cy="254" r="156" fill="url(#paint0_linear_4227_7427)"/>
<path d="M221.74 13.7403L220.588 18.0684L223.763 21.2438L228.091 20.0911L229.244 15.763L226.068 12.5876L221.74 13.7403Z" fill="#E0700D"/>
<path d="M125.875 33L122 35.2453V39.736L125.875 41.9813L129.751 39.736V35.2453L125.875 33Z" fill="#8547FF"/>
<path d="M279.74 90.7403L278.588 95.0684L281.763 98.2438L286.091 97.0911L287.244 92.763L284.068 89.5876L279.74 90.7403Z" fill="#008A53"/>
<path d="M24.8755 37L21 39.2453V43.736L24.8755 45.9813L28.751 43.736V39.2453L24.8755 37Z" fill="#DC244C"/>
<g clip-path="url(#clip1_4227_7427)">
<rect x="47" y="68" width="72" height="72" rx="6.54546" fill="url(#paint1_linear_4227_7427)"/>
<path d="M71.9212 94.968L68.4632 88.766H70.4652L72.4812 92.49C72.6352 92.77 72.7332 92.994 72.8452 93.246C72.9712 92.994 73.0272 92.826 73.2092 92.49L75.2112 88.766H77.1572L73.7132 94.968V99H71.9212V94.968ZM76.3188 95.528C76.3188 93.372 77.8728 91.888 80.0148 91.888C82.1568 91.888 83.7108 93.372 83.7108 95.528C83.7108 97.684 82.1568 99.168 80.0148 99.168C77.8728 99.168 76.3188 97.684 76.3188 95.528ZM78.0268 95.528C78.0268 96.788 78.8388 97.642 80.0148 97.642C81.1908 97.642 82.0028 96.788 82.0028 95.528C82.0028 94.268 81.1908 93.414 80.0148 93.414C78.8388 93.414 78.0268 94.268 78.0268 95.528ZM89.5906 92.084H91.2986V99H89.7166L89.5906 98.076C89.1706 98.734 88.2746 99.182 87.3506 99.182C85.7546 99.182 84.8166 98.104 84.8166 96.41V92.084H86.5246V95.808C86.5246 97.124 87.0426 97.656 87.9946 97.656C89.0726 97.656 89.5906 97.026 89.5906 95.71V92.084ZM97.4027 92.056V93.638H96.7727C95.5407 93.638 94.7707 94.296 94.7707 95.64V99H93.0627V92.098H94.6727L94.7707 93.106C95.0647 92.42 95.7227 91.958 96.6467 91.958C96.8847 91.958 97.1227 91.986 97.4027 92.056ZM56.8575 120.168C53.8755 120.168 51.9435 118.096 51.9435 114.89C51.9435 111.712 53.9455 109.598 56.9415 109.598C59.3635 109.598 61.1695 111.012 61.5195 113.21H59.6295C59.2795 112.02 58.2575 111.32 56.8995 111.32C55.0095 111.32 53.8195 112.692 53.8195 114.876C53.8195 117.046 55.0235 118.446 56.8995 118.446C58.2855 118.446 59.3495 117.718 59.6855 116.584H61.5475C61.1555 118.74 59.2795 120.168 56.8575 120.168ZM62.4965 116.528C62.4965 114.372 64.0505 112.888 66.1925 112.888C68.3345 112.888 69.8885 114.372 69.8885 116.528C69.8885 118.684 68.3345 120.168 66.1925 120.168C64.0505 120.168 62.4965 118.684 62.4965 116.528ZM64.2045 116.528C64.2045 117.788 65.0165 118.642 66.1925 118.642C67.3685 118.642 68.1805 117.788 68.1805 116.528C68.1805 115.268 67.3685 114.414 66.1925 114.414C65.0165 114.414 64.2045 115.268 64.2045 116.528ZM72.9504 120H71.2424V113.084H72.8104L72.9504 113.896C73.3004 113.322 74.0004 112.874 74.9944 112.874C76.0444 112.874 76.7724 113.392 77.1364 114.19C77.4864 113.392 78.2984 112.874 79.3484 112.874C81.0284 112.874 81.9524 113.882 81.9524 115.478V120H80.2584V115.926C80.2584 114.932 79.7264 114.414 78.9144 114.414C78.0884 114.414 77.4584 114.946 77.4584 116.08V120H75.7504V115.912C75.7504 114.946 75.2324 114.428 74.4204 114.428C73.6084 114.428 72.9504 114.96 72.9504 116.08V120ZM83.6291 123.206V113.084H85.2111L85.3231 114.134C85.7431 113.336 86.6531 112.874 87.7031 112.874C89.6491 112.874 90.9371 114.288 90.9371 116.458C90.9371 118.614 89.7611 120.182 87.7031 120.182C86.6671 120.182 85.7711 119.776 85.3371 119.076V123.206H83.6291ZM85.3511 116.542C85.3511 117.788 86.1211 118.642 87.2971 118.642C88.5011 118.642 89.2151 117.774 89.2151 116.542C89.2151 115.31 88.5011 114.428 87.2971 114.428C86.1211 114.428 85.3511 115.296 85.3511 116.542ZM94.355 120.182C92.885 120.182 91.989 119.328 91.989 118.026C91.989 116.752 92.913 115.954 94.551 115.828L96.623 115.674V115.52C96.623 114.582 96.063 114.204 95.195 114.204C94.187 114.204 93.627 114.624 93.627 115.352H92.171C92.171 113.854 93.403 112.874 95.279 112.874C97.141 112.874 98.289 113.882 98.289 115.8V120H96.791L96.665 118.978C96.371 119.692 95.433 120.182 94.355 120.182ZM94.915 118.894C95.965 118.894 96.637 118.264 96.637 117.2V116.836L95.195 116.948C94.131 117.046 93.725 117.396 93.725 117.956C93.725 118.586 94.145 118.894 94.915 118.894ZM101.675 120H99.967V113.084H101.549L101.689 113.98C102.123 113.28 102.963 112.874 103.901 112.874C105.637 112.874 106.533 113.952 106.533 115.744V120H104.825V116.15C104.825 114.988 104.251 114.428 103.369 114.428C102.319 114.428 101.675 115.156 101.675 116.276V120ZM107.472 123.206V121.778H108.494C109.166 121.778 109.586 121.624 109.88 120.812L110.076 120.294L107.29 113.084H109.096L110.874 118.124L112.75 113.084H114.514L111.126 121.54C110.608 122.828 109.88 123.36 108.746 123.36C108.27 123.36 107.85 123.304 107.472 123.206Z" fill="#D9E2FE"/>
<g clip-path="url(#clip2_4227_7427)">
<g filter="url(#filter0_f_4227_7427)">
<circle cx="56.818" cy="67.9999" r="19.6364" fill="#2F6FF0"/>
</g>
</g>
</g>
<rect x="181" y="68" width="72" height="72" rx="7.2" fill="url(#paint2_linear_4227_7427)"/>
<g clip-path="url(#clip3_4227_7427)">
<path fill-rule="evenodd" clip-rule="evenodd" d="M232.649 95.0011L232.651 95L224.856 90.5L217.063 86L209.268 90.5L201.475 95L201.475 95.0011V113L209.268 117.5L217.063 122V122L222.05 119.123L222.05 119.123L222.05 119.123V113L217.063 115.88L211.919 112.91L206.776 109.941V98.0616L211.919 95.0924L217.063 92.1231L222.206 95.0924L227.351 98.0616V122L227.35 122L227.351 122.002L232.652 118.942V95.0014L232.649 95.0011ZM217.063 109.759L222.05 106.88V101.123L217.063 98.2433L212.077 101.123V106.88L217.063 109.759Z" fill="white"/>
</g>
<g clip-path="url(#clip4_4227_7427)">
<g filter="url(#filter1_f_4227_7427)">
<ellipse cx="192.555" cy="79.5552" rx="13.3463" ry="17.7951" transform="rotate(45 192.555 79.5552)" fill="url(#paint3_linear_4227_7427)"/>
</g>
</g>
<rect x="140" y="84" width="20" height="20" rx="2" fill="#D4D9E6"/>
<g clip-path="url(#clip5_4227_7427)">
<path d="M150 89V99" stroke="#161E33" stroke-linecap="round" stroke-linejoin="round"/>
<path d="M155 94H145" stroke="#161E33" stroke-linecap="round" stroke-linejoin="round"/>
</g>
</g>
<defs>
<filter id="filter0_f_4227_7427" x="-15.182" y="-4.00011" width="144.001" height="144" filterUnits="userSpaceOnUse" color-interpolation-filters="sRGB">
<feFlood flood-opacity="0" result="BackgroundImageFix"/>
<feBlend mode="normal" in="SourceGraphic" in2="BackgroundImageFix" result="shape"/>
<feGaussianBlur stdDeviation="26.1818" result="effect1_foregroundBlur_4227_7427"/>
</filter>
<filter id="filter1_f_4227_7427" x="143.46" y="30.4597" width="98.1906" height="98.191" filterUnits="userSpaceOnUse" color-interpolation-filters="sRGB">
<feFlood flood-opacity="0" result="BackgroundImageFix"/>
<feBlend mode="normal" in="SourceGraphic" in2="BackgroundImageFix" result="shape"/>
<feGaussianBlur stdDeviation="16.6829" result="effect1_foregroundBlur_4227_7427"/>
</filter>
<linearGradient id="paint0_linear_4227_7427" x1="150" y1="98" x2="150" y2="410" gradientUnits="userSpaceOnUse">
<stop stop-color="#161E33"/>
<stop offset="1" stop-color="#0E1424"/>
</linearGradient>
<linearGradient id="paint1_linear_4227_7427" x1="83" y1="68" x2="83" y2="140" gradientUnits="userSpaceOnUse">
<stop stop-color="#161E33"/>
<stop offset="1" stop-color="#0E1424"/>
</linearGradient>
<linearGradient id="paint2_linear_4227_7427" x1="217" y1="68" x2="217" y2="140" gradientUnits="userSpaceOnUse">
<stop stop-color="#DC244C"/>
<stop offset="1" stop-color="#CC143C"/>
</linearGradient>
<linearGradient id="paint3_linear_4227_7427" x1="191.299" y1="76.4095" x2="192.555" y2="97.3503" gradientUnits="userSpaceOnUse">
<stop stop-color="#FFBFCD"/>
<stop offset="1" stop-color="white"/>
</linearGradient>
<clipPath id="clip0_4227_7427">
<rect width="300" height="210" fill="white"/>
</clipPath>
<clipPath id="clip1_4227_7427">
<rect x="47" y="68" width="72" height="72" rx="6.54546" fill="white"/>
</clipPath>
<clipPath id="clip2_4227_7427">
<rect x="47" y="68" width="72" height="72" rx="7.2" fill="white"/>
</clipPath>
<clipPath id="clip3_4227_7427">
<rect width="31.05" height="36" fill="white" transform="translate(201.475 86)"/>
</clipPath>
<clipPath id="clip4_4227_7427">
<rect x="181" y="68" width="57.6" height="57.6" rx="7.2" fill="white"/>
</clipPath>
<clipPath id="clip5_4227_7427">
<rect width="12" height="12" fill="white" transform="translate(144 88)"/>
</clipPath>
</defs>
</svg>
