<svg width="1257" height="256" viewBox="0 0 1257 256" fill="none" xmlns="http://www.w3.org/2000/svg">
<path d="M81.4521 88L78 90V94L81.4521 96L84.9041 94V90L81.4521 88Z" fill="#8547FF"/>
<path d="M677.179 135L673.727 137V141L677.179 143L680.631 141V137L677.179 135Z" fill="#DC244C"/>
<path d="M949.452 30L946 32V36L949.452 38L952.904 36V32L949.452 30Z" fill="#008A53"/>
<path d="M1021.32 178L1017.86 180V184L1021.32 186L1024.77 184V180L1021.32 178Z" fill="#E02828"/>
<path d="M314.452 193L311 195V199L314.452 201L317.904 199V195L314.452 193Z" fill="#038585"/>
<path d="M437.315 21L433.863 23V27L437.315 29L440.767 27V23L437.315 21Z" fill="#E0700D"/>
<rect x="787" y="61" width="104" height="104" rx="10.4" fill="url(#paint0_linear_714_4539)"/>
<path d="M830.333 89.4485H845.721L829.747 136.776C829.583 137.263 829.27 137.685 828.853 137.985C828.437 138.284 827.936 138.445 827.423 138.445H815.448C815.059 138.445 814.676 138.353 814.33 138.175C813.984 137.998 813.685 137.74 813.458 137.424C813.231 137.108 813.083 136.743 813.025 136.359C812.967 135.974 813.002 135.581 813.127 135.213L828.009 91.1174C828.173 90.6309 828.485 90.2081 828.902 89.9086C829.319 89.6091 829.82 89.4486 830.333 89.4485Z" fill="url(#paint1_linear_714_4539)"/>
<path d="M852.693 121.193H828.293C828.066 121.193 827.844 121.261 827.657 121.388C827.469 121.516 827.324 121.697 827.241 121.908C827.158 122.119 827.14 122.35 827.19 122.571C827.24 122.793 827.356 122.994 827.521 123.148L843.201 137.783C843.657 138.209 844.258 138.445 844.883 138.445H858.699L852.693 121.193Z" fill="#0078D4"/>
<path d="M830.332 89.4484C829.813 89.4465 829.307 89.6105 828.888 89.9166C828.469 90.2227 828.158 90.6548 828.002 91.1498L813.144 135.172C813.011 135.542 812.969 135.939 813.022 136.328C813.075 136.717 813.221 137.088 813.448 137.409C813.674 137.73 813.975 137.992 814.324 138.172C814.673 138.353 815.06 138.446 815.453 138.445H827.737C828.195 138.363 828.622 138.162 828.977 137.86C829.331 137.559 829.598 137.17 829.752 136.731L832.716 127.999L843.3 137.871C843.743 138.237 844.299 138.44 844.875 138.445H858.64L852.603 121.193L835.004 121.197L845.775 89.4484H830.332Z" fill="url(#paint2_linear_714_4539)"/>
<path d="M849.988 91.1149C849.824 90.6292 849.512 90.2071 849.095 89.9081C848.679 89.6091 848.179 89.4484 847.666 89.4484H830.518C831.03 89.4485 831.53 89.6093 831.946 89.9082C832.363 90.2072 832.675 90.6292 832.839 91.1149L847.721 135.212C847.846 135.58 847.881 135.973 847.823 136.358C847.766 136.743 847.617 137.108 847.39 137.424C847.164 137.74 846.865 137.998 846.519 138.175C846.173 138.353 845.789 138.446 845.4 138.446H862.55C862.939 138.446 863.322 138.353 863.668 138.175C864.014 137.998 864.313 137.74 864.539 137.424C864.766 137.108 864.915 136.743 864.972 136.358C865.03 135.973 864.995 135.58 864.87 135.212L849.988 91.1149Z" fill="url(#paint3_linear_714_4539)"/>
<g clip-path="url(#clip0_714_4539)">
<g filter="url(#filter0_f_714_4539)">
<ellipse cx="803.69" cy="77.691" rx="19.278" ry="25.704" transform="rotate(45 803.69 77.691)" fill="url(#paint4_linear_714_4539)"/>
</g>
</g>
<rect x="1193" y="181" width="64" height="64" rx="6.4" fill="url(#paint5_linear_714_4539)"/>
<path d="M1217.32 211.876C1217.32 212.309 1217.37 212.66 1217.45 212.918C1217.54 213.175 1217.66 213.456 1217.82 213.761C1217.88 213.854 1217.91 213.948 1217.91 214.03C1217.91 214.147 1217.83 214.264 1217.68 214.381L1216.95 214.873C1216.84 214.943 1216.73 214.978 1216.64 214.978C1216.52 214.978 1216.41 214.92 1216.29 214.814C1216.13 214.639 1215.99 214.451 1215.87 214.264C1215.75 214.065 1215.63 213.843 1215.51 213.573C1214.59 214.65 1213.44 215.189 1212.06 215.189C1211.08 215.189 1210.3 214.908 1209.72 214.346C1209.15 213.784 1208.86 213.035 1208.86 212.098C1208.86 211.103 1209.21 210.295 1209.92 209.687C1210.63 209.078 1211.58 208.773 1212.79 208.773C1213.19 208.773 1213.6 208.808 1214.03 208.867C1214.46 208.926 1214.91 209.019 1215.38 209.125V208.27C1215.38 207.38 1215.19 206.76 1214.83 206.397C1214.45 206.034 1213.82 205.858 1212.92 205.858C1212.51 205.858 1212.09 205.905 1211.65 206.01C1211.22 206.116 1210.8 206.245 1210.39 206.409C1210.2 206.49 1210.06 206.537 1209.98 206.561C1209.9 206.584 1209.84 206.596 1209.79 206.596C1209.63 206.596 1209.55 206.479 1209.55 206.233V205.659C1209.55 205.472 1209.57 205.331 1209.63 205.249C1209.69 205.168 1209.79 205.086 1209.96 205.004C1210.37 204.793 1210.86 204.617 1211.43 204.477C1212 204.325 1212.61 204.254 1213.26 204.254C1214.65 204.254 1215.67 204.57 1216.32 205.203C1216.97 205.835 1217.3 206.795 1217.3 208.083V211.876H1217.32ZM1212.57 213.655C1212.95 213.655 1213.35 213.585 1213.77 213.445C1214.19 213.304 1214.57 213.047 1214.88 212.695C1215.07 212.473 1215.21 212.227 1215.28 211.946C1215.35 211.665 1215.4 211.326 1215.4 210.928V210.436C1215.06 210.354 1214.7 210.284 1214.32 210.237C1213.95 210.19 1213.59 210.167 1213.22 210.167C1212.44 210.167 1211.86 210.319 1211.48 210.635C1211.09 210.951 1210.9 211.396 1210.9 211.981C1210.9 212.531 1211.04 212.941 1211.34 213.222C1211.62 213.515 1212.03 213.655 1212.57 213.655ZM1221.97 214.92C1221.76 214.92 1221.62 214.885 1221.52 214.803C1221.43 214.732 1221.35 214.568 1221.28 214.346L1218.53 205.296C1218.46 205.062 1218.42 204.91 1218.42 204.828C1218.42 204.641 1218.51 204.535 1218.7 204.535H1219.85C1220.07 204.535 1220.22 204.57 1220.31 204.652C1220.4 204.723 1220.47 204.887 1220.54 205.109L1222.51 212.859L1224.33 205.109C1224.39 204.875 1224.46 204.723 1224.55 204.652C1224.65 204.582 1224.81 204.535 1225.02 204.535H1225.96C1226.18 204.535 1226.33 204.57 1226.43 204.652C1226.52 204.723 1226.6 204.887 1226.65 205.109L1228.5 212.953L1230.53 205.109C1230.6 204.875 1230.68 204.723 1230.76 204.652C1230.85 204.582 1231.01 204.535 1231.22 204.535H1232.31C1232.49 204.535 1232.6 204.629 1232.6 204.828C1232.6 204.887 1232.59 204.945 1232.57 205.015C1232.56 205.086 1232.54 205.179 1232.49 205.308L1229.67 214.358C1229.6 214.592 1229.52 214.744 1229.43 214.814C1229.33 214.885 1229.18 214.931 1228.98 214.931H1227.97C1227.75 214.931 1227.6 214.896 1227.51 214.814C1227.41 214.732 1227.33 214.58 1227.28 214.346L1225.47 206.795L1223.67 214.334C1223.61 214.568 1223.54 214.721 1223.44 214.803C1223.35 214.885 1223.19 214.92 1222.97 214.92H1221.97ZM1237.01 215.236C1236.4 215.236 1235.79 215.166 1235.21 215.025C1234.62 214.885 1234.17 214.732 1233.86 214.557C1233.67 214.451 1233.55 214.334 1233.5 214.229C1233.45 214.124 1233.43 214.007 1233.43 213.901V213.304C1233.43 213.058 1233.52 212.941 1233.7 212.941C1233.77 212.941 1233.84 212.953 1233.91 212.976C1233.98 213 1234.08 213.047 1234.2 213.093C1234.6 213.269 1235.03 213.409 1235.49 213.503C1235.96 213.597 1236.41 213.644 1236.88 213.644C1237.62 213.644 1238.19 213.515 1238.59 213.257C1238.99 213 1239.2 212.625 1239.2 212.145C1239.2 211.817 1239.1 211.548 1238.88 211.326C1238.67 211.103 1238.28 210.904 1237.7 210.717L1236 210.19C1235.15 209.921 1234.52 209.523 1234.13 208.996C1233.75 208.481 1233.55 207.907 1233.55 207.298C1233.55 206.807 1233.65 206.373 1233.86 205.999C1234.07 205.624 1234.35 205.296 1234.71 205.039C1235.06 204.769 1235.45 204.57 1235.92 204.43C1236.39 204.289 1236.88 204.231 1237.4 204.231C1237.66 204.231 1237.92 204.243 1238.18 204.278C1238.45 204.313 1238.7 204.36 1238.94 204.407C1239.18 204.465 1239.4 204.524 1239.61 204.594C1239.82 204.664 1239.99 204.734 1240.1 204.805C1240.27 204.898 1240.38 204.992 1240.45 205.097C1240.52 205.191 1240.56 205.32 1240.56 205.484V206.034C1240.56 206.28 1240.47 206.409 1240.29 206.409C1240.2 206.409 1240.04 206.362 1239.84 206.268C1239.18 205.964 1238.43 205.811 1237.6 205.811C1236.93 205.811 1236.4 205.917 1236.04 206.139C1235.68 206.362 1235.49 206.701 1235.49 207.181C1235.49 207.509 1235.61 207.79 1235.84 208.012C1236.07 208.235 1236.51 208.457 1237.13 208.656L1238.79 209.183C1239.63 209.452 1240.24 209.827 1240.61 210.307C1240.97 210.787 1241.14 211.337 1241.14 211.946C1241.14 212.449 1241.04 212.906 1240.84 213.304C1240.63 213.702 1240.35 214.053 1239.99 214.334C1239.62 214.627 1239.19 214.838 1238.69 214.99C1238.16 215.154 1237.61 215.236 1237.01 215.236Z" fill="white"/>
<path fill-rule="evenodd" clip-rule="evenodd" d="M1239.23 220.926C1235.37 223.77 1229.78 225.281 1224.97 225.281C1218.22 225.281 1212.15 222.787 1207.56 218.643C1207.2 218.315 1207.52 217.87 1207.96 218.128C1212.92 221.008 1219.04 222.752 1225.38 222.752C1229.65 222.752 1234.34 221.862 1238.66 220.036C1239.31 219.743 1239.86 220.457 1239.23 220.926Z" fill="#FF9900"/>
<path fill-rule="evenodd" clip-rule="evenodd" d="M1240.83 219.099C1240.34 218.467 1237.57 218.795 1236.32 218.947C1235.95 218.994 1235.89 218.666 1236.23 218.42C1238.43 216.875 1242.05 217.32 1242.47 217.835C1242.89 218.362 1242.35 221.979 1240.29 223.712C1239.97 223.981 1239.67 223.841 1239.81 223.489C1240.28 222.33 1241.32 219.72 1240.83 219.099Z" fill="#FF9900"/>
<g clip-path="url(#clip1_714_4539)">
<g filter="url(#filter1_f_714_4539)">
<ellipse cx="1203.27" cy="191.271" rx="11.8634" ry="15.8179" transform="rotate(45 1203.27 191.271)" fill="url(#paint6_linear_714_4539)"/>
</g>
</g>
<g filter="url(#filter2_f_714_4539)">
<rect x="1048" y="59" width="64" height="64" rx="6.4" fill="url(#paint7_linear_714_4539)"/>
<path d="M1075.31 83.3071C1074.94 83.3095 1074.58 83.2983 1074.21 83.2735C1074.11 83.2663 1073.98 83.2987 1073.85 83.2351C1073.84 83.2303 1073.83 83.2274 1073.82 83.2267L1071.91 83.1679C1071.89 83.1671 1071.86 83.1567 1071.84 83.1367C1071.82 83.1143 1071.79 83.1015 1071.75 83.0983C1071.48 83.0743 1071.28 83.0611 1071.16 83.0587C1071.13 83.0587 1071.12 83.0479 1071.12 83.0263C1071.11 83.0079 1071.11 82.9943 1071.1 82.9855C1071.08 82.9743 1071.06 82.9743 1071.05 82.9855C1071.02 83.0007 1071 83.0071 1070.98 83.0047" stroke="#F9D6DB" stroke-width="0.26713"/>
<path d="M1075.39 84.1158C1074.71 84.139 1074.04 84.1362 1073.37 84.1074C1072.72 84.0798 1072.05 84.0474 1071.39 83.9886C1071.28 83.979 1071.14 84.0198 1071 83.9454C1070.96 83.9246 1070.93 83.9246 1070.89 83.9454C1070.86 83.9606 1070.83 83.9662 1070.79 83.9622C1070.74 83.9582 1070.72 83.9326 1070.72 83.8854L1070.73 83.7402" stroke="#FBC6E0" stroke-width="0.26713"/>
<path d="M1075.5 85.1262C1075.45 85.1046 1075.41 85.0986 1075.38 85.1082C1075.35 85.1146 1075.34 85.1054 1075.34 85.0806C1075.34 85.0366 1075.32 85.0142 1075.28 85.0134C1074.98 85.0118 1074.82 85.011 1074.78 85.011C1074.59 85.0118 1074.38 85.0122 1074.15 85.0122H1070.73C1070.72 85.0122 1070.71 85.017 1070.7 85.0255C1070.69 85.0341 1070.69 85.0457 1070.69 85.0578V85.1166C1070.69 85.1232 1070.68 85.1297 1070.68 85.1357C1070.68 85.1416 1070.67 85.1467 1070.67 85.1506C1070.66 85.1546 1070.66 85.1572 1070.65 85.1584C1070.64 85.1596 1070.64 85.1592 1070.63 85.1574C1070.61 85.151 1070.59 85.1286 1070.57 85.0902" stroke="#FEB2E6" stroke-width="0.26713"/>
<path d="M1079.72 87.2347L1079.38 88.8391C1079.38 88.8673 1079.36 88.8934 1079.34 88.9147C1079.25 89.0171 1079.2 89.1379 1079.2 89.2771C1079.2 89.3235 1079.19 89.3639 1079.16 89.3983C1078.99 89.5819 1079.02 89.7811 1078.87 89.9683C1078.85 89.9971 1078.83 90.0291 1078.82 90.0643C1078.73 90.3483 1078.59 90.6087 1078.41 90.8455C1078.39 90.8799 1078.37 90.9183 1078.36 90.9607C1078.31 91.3551 1078.24 91.6867 1078.17 91.9555C1078.16 91.9811 1078.14 92.0007 1078.12 92.0143C1078.09 92.0279 1078.06 92.0495 1078.05 92.0791L1077.78 92.5723C1077.76 92.6067 1077.73 92.6279 1077.69 92.6359C1077.63 92.6479 1077.6 92.6823 1077.59 92.7391C1077.58 92.7815 1077.56 92.8151 1077.52 92.8399C1077.43 92.9071 1077.37 92.9999 1077.34 93.1183C1077.33 93.1335 1077.32 93.1411 1077.31 93.1411C1077.3 93.1411 1077.29 93.1411 1077.28 93.1411C1077.25 93.1419 1077.23 93.1511 1077.21 93.1687C1076.93 93.4255 1076.54 93.6751 1076.33 94.0015C1076.14 94.3171 1075.93 94.5427 1075.71 94.8103C1075.69 94.8303 1075.67 94.8435 1075.65 94.8499C1075.63 94.8547 1075.62 94.8655 1075.61 94.8823C1075.48 95.0711 1075.33 95.2427 1075.16 95.3971C1075.01 95.5267 1074.93 95.7067 1074.77 95.8375C1074.76 95.8455 1074.73 95.8743 1074.69 95.9239C1074.64 95.9847 1074.56 95.9919 1074.44 95.9455" stroke="#CAA7ED" stroke-width="0.26713"/>
<path d="M1081.83 87.3425C1081.88 87.6753 1081.82 87.9785 1081.66 88.2521C1081.6 88.3553 1081.62 88.4309 1081.55 88.5233C1081.54 88.5441 1081.52 88.5785 1081.5 88.6265C1081.48 88.6673 1081.48 88.7097 1081.48 88.7537C1081.49 88.7969 1081.48 88.8349 1081.45 88.8677C1081.25 89.0885 1081.15 89.3449 1081.14 89.6369C1081.14 89.6593 1081.13 89.6733 1081.1 89.6789L1081.07 89.6885C1081.04 89.6949 1081.02 89.7097 1081.01 89.7329C1080.9 89.9513 1080.81 90.1505 1080.64 90.3497C1080.52 90.4921 1080.41 90.6453 1080.32 90.8093C1080.25 90.9533 1080.15 91.1021 1080.03 91.2557C1079.92 91.3949 1079.83 91.5461 1079.76 91.7093C1079.75 91.7325 1079.73 91.7513 1079.71 91.7657L1079.66 91.7957C1079.64 91.8109 1079.63 91.8321 1079.62 91.8593C1079.58 92.0129 1079.47 92.0885 1079.4 92.2073C1079.27 92.4137 1079.14 92.5589 1078.96 92.8073C1078.85 92.9521 1078.69 93.0889 1078.5 93.2177C1078.22 93.4033 1078.01 93.6865 1077.86 94.0673C1077.72 94.4345 1077.43 94.7153 1077.25 95.0549C1077.15 95.2505 1076.97 95.3489 1076.85 95.5661C1076.78 95.6945 1076.5 95.9261 1076.48 96.0077C1076.48 96.0373 1076.46 96.0629 1076.44 96.0845C1075.95 96.5637 1075.64 96.8785 1075.52 97.0289C1075.17 97.4425 1074.81 97.7637 1074.45 97.9925" stroke="#7CB9F2" stroke-width="0.26713"/>
<path d="M1087.17 88.8402C1087.14 88.9746 1087.17 89.1094 1087.26 89.2446C1087.37 89.391 1087.44 89.5018 1087.47 89.577C1087.58 89.853 1087.7 90.1222 1087.84 90.3846C1088.04 90.7518 1088.3 91.5262 1088.63 92.7078C1088.7 92.9702 1088.73 93.253 1088.72 93.5562C1088.72 93.7842 1088.8 94.0218 1088.78 94.2378C1088.73 94.6818 1088.74 95.1234 1088.63 95.5482C1088.54 95.8746 1088.45 96.2006 1088.36 96.5262C1088.32 96.6726 1088.21 96.7986 1088.18 96.9702C1088.17 97.0054 1088.16 97.0354 1088.13 97.0602C1088.1 97.0922 1088.08 97.1214 1088.07 97.1478C1088.02 97.4174 1087.9 97.6522 1087.72 97.8522C1087.69 97.8818 1087.67 97.9162 1087.66 97.9554C1087.62 98.1282 1087.53 98.2622 1087.39 98.3574C1087.35 98.3822 1087.32 98.4142 1087.3 98.4534L1087.14 98.7822C1087.12 98.8174 1087.1 98.847 1087.07 98.871C1086.99 98.9346 1086.96 99.0498 1086.92 99.1086C1086.58 99.583 1086.21 100.053 1085.82 100.52" stroke="#6CC4F4" stroke-width="0.26713"/>
<path d="M1085.37 99.4099C1085.51 99.1723 1085.66 98.9515 1085.81 98.7475C1085.94 98.5819 1085.98 98.4115 1086.12 98.2615C1086.3 98.0647 1086.33 97.8751 1086.45 97.6867C1086.6 97.4647 1086.7 97.2319 1086.83 96.9979C1086.85 96.9579 1086.86 96.9155 1086.85 96.8707C1086.85 96.8235 1086.86 96.7867 1086.9 96.7603C1086.93 96.7379 1086.95 96.7091 1086.96 96.6739L1087.14 96.0979C1087.16 96.0635 1087.16 96.0283 1087.15 95.9923C1087.15 95.9547 1087.16 95.9227 1087.18 95.8963C1087.2 95.8651 1087.21 95.8303 1087.21 95.7919C1087.22 95.5579 1087.34 95.3899 1087.34 95.1715C1087.34 94.7603 1087.34 94.3491 1087.34 93.9379C1087.33 93.6963 1087.2 93.1623 1086.93 92.3359C1086.87 92.1583 1086.77 91.9819 1086.69 91.8127C1086.61 91.6387 1086.59 91.3795 1086.39 91.1995C1086.35 91.1715 1086.34 91.1371 1086.35 91.0963C1086.35 91.0547 1086.34 91.0227 1086.31 91.0003C1086.28 90.9819 1086.26 90.9571 1086.25 90.9259C1086.18 90.7755 1086.11 90.6295 1086.04 90.4879C1085.96 90.3431 1085.89 90.2091 1085.83 90.0859C1085.62 89.6291 1085.34 89.2135 1085 88.8391C1084.97 88.8127 1084.97 88.7867 1085 88.7611L1085.03 88.7311C1085.04 88.7238 1085.04 88.7152 1085.04 88.7057C1085.05 88.6962 1085.05 88.686 1085.05 88.6757C1085.05 88.6655 1085.05 88.6553 1085.04 88.6458C1085.04 88.6364 1085.03 88.6278 1085.03 88.6207C1084.91 88.5135 1084.78 88.4491 1084.62 88.4275C1084.6 88.4243 1084.59 88.4139 1084.58 88.3963C1084.57 88.3771 1084.56 88.3627 1084.54 88.3531C1084.52 88.3419 1084.49 88.3423 1084.46 88.3543C1084.2 88.4511 1084.02 88.5619 1083.93 88.6867C1083.78 88.8947 1083.61 89.0919 1083.43 89.2783C1082.97 89.7487 1082.52 90.2239 1082.13 90.7519C1082.03 90.8831 1081.91 90.9943 1081.77 91.0855C1081.74 91.1071 1081.71 91.1351 1081.7 91.1695C1081.59 91.3879 1081.36 91.4203 1081.23 91.5379C1081.08 91.6683 1080.95 91.8071 1080.82 91.9543C1080.82 91.9623 1080.76 92.0183 1080.64 92.1223C1080.58 92.1791 1080.54 92.2515 1080.52 92.3395C1080.51 92.3803 1080.49 92.4175 1080.47 92.4511L1080.27 92.7103C1080.26 92.7199 1080.25 92.7251 1080.24 92.7259C1080.23 92.7259 1080.22 92.7263 1080.21 92.7271C1080.2 92.7278 1080.18 92.7317 1080.17 92.7383C1080.16 92.745 1080.15 92.7543 1080.14 92.7655C1080.03 92.9279 1079.89 93.0591 1079.73 93.1591C1079.69 93.1839 1079.66 93.2199 1079.65 93.2671C1079.64 93.3263 1079.61 93.3763 1079.58 93.4171C1079.55 93.4467 1079.54 93.4807 1079.55 93.5191C1079.57 93.6091 1079.57 93.6463 1079.51 93.7291C1079.43 93.8571 1079.37 93.9935 1079.33 94.1383C1079.31 94.1775 1079.29 94.2087 1079.26 94.2319C1079.14 94.3063 1079.17 94.4455 1079.12 94.5343C1079.04 94.6711 1078.93 94.7707 1078.88 94.9135C1078.78 95.1711 1078.67 95.3599 1078.56 95.4799C1078.41 95.6383 1078.31 95.7807 1078.25 95.9071C1078.17 96.0619 1078.02 96.3163 1077.9 96.4327C1077.73 96.6087 1077.57 96.8055 1077.44 97.0231C1077.42 97.0607 1077.39 97.0903 1077.35 97.1119C1077.25 97.1751 1077.19 97.2667 1077.19 97.3867C1077.19 97.4299 1077.17 97.4671 1077.14 97.4983C1076.47 98.2175 1075.76 98.8915 1075.01 99.5203C1074.98 99.5437 1074.96 99.5756 1074.95 99.6115C1074.94 99.6795 1074.89 99.7139 1074.82 99.7147C1074.79 99.7155 1074.76 99.7267 1074.73 99.7483C1074.71 99.7707 1074.69 99.7955 1074.68 99.8227" stroke="#55D5F7" stroke-width="0.26713"/>
<path d="M1089.55 88.6555C1089.58 88.7771 1089.61 88.8899 1089.64 88.9939C1089.67 89.1059 1089.71 89.2111 1089.78 89.3095C1089.97 89.5783 1090.12 89.8519 1090.21 90.1303C1090.38 90.6095 1090.55 91.1815 1090.72 91.8463C1090.74 91.9183 1090.74 92.0131 1090.73 92.1307C1090.72 92.2803 1090.76 92.3743 1090.85 92.4127" stroke="#8CAEF0" stroke-width="0.26713"/>
<path d="M1089.88 96.111C1089.83 96.3614 1089.78 96.6022 1089.71 96.8334C1089.61 97.1634 1089.42 97.473 1089.27 97.8054C1089.23 97.9182 1089.13 97.959 1089.07 98.0862C1088.96 98.3526 1088.78 98.6302 1088.54 98.919C1088.3 99.1974 1088.06 99.5826 1087.81 100.075" stroke="#8CAEF0" stroke-width="0.26713"/>
<path d="M1087.27 100.289C1086.92 100.785 1086.58 101.267 1086.25 101.738C1086.19 101.821 1086.18 101.93 1086.14 101.995C1085.91 102.339 1085.68 102.686 1085.46 103.035C1085.4 103.125 1085.27 103.198 1085.27 103.355C1085.27 103.395 1085.26 103.432 1085.24 103.468L1084.86 104.359" stroke="#8CAEF0" stroke-width="0.26713"/>
<path d="M1085.83 101.335C1086 101.141 1086.22 100.836 1086.49 100.42C1086.65 100.162 1086.89 99.8887 1087.21 99.6007C1087.24 99.5751 1087.25 99.5439 1087.25 99.5071C1087.24 99.4455 1087.26 99.3983 1087.31 99.3655C1087.33 99.3495 1087.35 99.3283 1087.36 99.3019C1087.39 99.2107 1087.48 99.1579 1087.53 99.0883C1087.62 98.9395 1087.68 98.7643 1087.77 98.6287C1088.19 97.9935 1088.54 97.3239 1088.83 96.6199C1089.17 95.7739 1089.37 94.8355 1089.29 93.9199C1089.27 93.6991 1089.33 93.4915 1089.29 93.2779C1089.27 93.1771 1089.26 93.0767 1089.25 92.9767C1089.19 92.4431 1089.05 91.9327 1088.83 91.4455C1088.81 91.4079 1088.8 91.3683 1088.81 91.3267C1088.81 91.2875 1088.81 91.2491 1088.79 91.2115L1087.78 88.7539" stroke="#7CB9F2" stroke-width="0.26713"/>
<path d="M1090.07 96.5527C1090.07 96.9511 1090.07 97.2991 1090.02 97.7143C1089.98 97.9579 1090.06 98.2831 1089.92 98.5051C1089.83 98.6531 1089.77 98.7575 1089.75 98.8183C1089.6 99.2071 1089.22 99.5215 1088.98 99.8503C1088.78 100.112 1088.58 100.378 1088.38 100.65" stroke="#A69CED" stroke-width="0.26713"/>
<path d="M1075.31 83.3071C1074.94 83.3095 1074.58 83.2983 1074.21 83.2735C1074.11 83.2663 1073.97 83.2987 1073.85 83.2351C1073.84 83.2303 1073.83 83.2275 1073.82 83.2267L1071.91 83.1679C1071.88 83.1671 1071.86 83.1567 1071.84 83.1367C1071.82 83.1143 1071.79 83.1015 1071.75 83.0983C1071.48 83.0743 1071.28 83.0611 1071.15 83.0587C1071.13 83.0587 1071.12 83.0479 1071.12 83.0263C1071.11 83.0079 1071.11 82.9943 1071.09 82.9855C1071.08 82.9743 1071.06 82.9743 1071.05 82.9855C1071.02 83.0007 1071 83.0071 1070.97 83.0047C1071.15 82.7799 1071.2 82.5131 1071.13 82.2043C1071.12 82.1643 1071.1 82.1411 1071.06 82.1347C1070.44 82.0267 1069.44 81.6835 1069.12 81.1111C1068.9 80.7103 1069.01 79.9987 1069.5 79.8151C1069.51 79.8119 1069.69 79.7895 1070.05 79.7479C1070.38 79.7083 1071.15 79.5043 1071.14 79.0507C1071.14 78.5179 1071.11 77.9263 1070.92 77.4391C1070.89 77.3783 1070.91 77.3595 1070.97 77.3827C1071.34 77.5243 1071.66 77.7375 1071.93 78.0223C1072.01 78.1047 1072.05 78.0891 1072.05 77.9755L1072.05 77.4115C1072.05 77.3635 1072.07 77.3471 1072.11 77.3623C1074.5 78.1699 1075.1 81.1687 1075.31 83.3071Z" fill="#F8DFD8"/>
<path d="M1075.3 83.3072L1075.39 84.116C1074.7 84.1392 1074.03 84.1364 1073.37 84.1076C1072.71 84.08 1072.05 84.0476 1071.39 83.9888C1071.27 83.9792 1071.13 84.02 1071 83.9456C1070.96 83.9248 1070.92 83.9248 1070.88 83.9456C1070.85 83.9608 1070.82 83.9664 1070.79 83.9624C1070.74 83.9584 1070.72 83.9328 1070.72 83.8856L1070.72 83.7404L1070.97 83.0048C1071 83.0072 1071.02 83.0008 1071.04 82.9856C1071.06 82.9744 1071.07 82.9744 1071.09 82.9856C1071.1 82.9944 1071.11 83.008 1071.11 83.0264C1071.12 83.048 1071.13 83.0588 1071.15 83.0588C1071.28 83.0612 1071.48 83.0744 1071.75 83.0984C1071.79 83.1016 1071.82 83.1144 1071.84 83.1368C1071.86 83.1568 1071.88 83.1672 1071.91 83.168L1073.82 83.2268C1073.83 83.2276 1073.84 83.2304 1073.85 83.2352C1073.97 83.2988 1074.1 83.2664 1074.2 83.2736C1074.57 83.2984 1074.94 83.3096 1075.3 83.3072Z" fill="#FACCDE"/>
<path d="M1070.72 83.7402L1070.72 83.8854C1070.72 83.9326 1070.74 83.9582 1070.79 83.9622C1070.82 83.9662 1070.85 83.9606 1070.88 83.9454C1070.92 83.9246 1070.96 83.9246 1071 83.9454C1071.14 84.0198 1071.27 83.979 1071.39 83.9886C1072.05 84.0474 1072.71 84.0798 1073.37 84.1074C1074.03 84.1362 1074.7 84.139 1075.39 84.1158L1075.49 85.1262C1075.45 85.1046 1075.41 85.0986 1075.38 85.1082C1075.35 85.1146 1075.34 85.1054 1075.34 85.0806C1075.33 85.0366 1075.31 85.0142 1075.28 85.0134C1074.98 85.0118 1074.81 85.011 1074.78 85.011C1074.59 85.0118 1074.37 85.0122 1074.15 85.0122H1070.73C1070.72 85.0122 1070.71 85.017 1070.7 85.0256C1070.69 85.0341 1070.68 85.0457 1070.68 85.0578V85.1166C1070.68 85.1233 1070.68 85.1298 1070.68 85.1357C1070.68 85.1416 1070.67 85.1467 1070.67 85.1507C1070.66 85.1546 1070.66 85.1573 1070.65 85.1585C1070.64 85.1596 1070.64 85.1593 1070.63 85.1574C1070.61 85.151 1070.59 85.1286 1070.57 85.0902L1070.72 83.7402Z" fill="#FCBFE2"/>
<path d="M1075.49 85.1262L1075.68 87.1398C1075.68 87.2022 1075.72 87.2334 1075.78 87.2334L1079.71 87.2346L1079.38 88.839C1079.38 88.8673 1079.36 88.8934 1079.34 88.9146C1079.25 89.017 1079.2 89.1378 1079.2 89.277C1079.2 89.3234 1079.19 89.3638 1079.15 89.3982C1078.98 89.5818 1079.01 89.781 1078.87 89.9682C1078.85 89.997 1078.83 90.029 1078.82 90.0642C1078.72 90.3482 1078.59 90.6086 1078.41 90.8454C1078.38 90.8798 1078.37 90.9182 1078.36 90.9606C1078.3 91.355 1078.24 91.6866 1078.17 91.9554C1078.16 91.981 1078.14 92.0006 1078.11 92.0142C1078.08 92.0278 1078.06 92.0494 1078.04 92.079L1077.78 92.5722C1077.76 92.6066 1077.73 92.6278 1077.69 92.6358C1077.63 92.6478 1077.6 92.6822 1077.58 92.739C1077.58 92.7814 1077.56 92.8151 1077.52 92.8399C1077.43 92.9071 1077.36 92.9998 1077.34 93.1182C1077.33 93.1334 1077.32 93.141 1077.31 93.141C1077.3 93.141 1077.29 93.141 1077.27 93.141C1077.25 93.1418 1077.23 93.151 1077.21 93.1686C1076.92 93.4254 1076.53 93.675 1076.33 94.0014C1076.14 94.317 1075.93 94.5427 1075.71 94.8103C1075.69 94.8303 1075.67 94.8435 1075.65 94.8499C1075.63 94.8547 1075.61 94.8654 1075.6 94.8822C1075.47 95.071 1075.33 95.2427 1075.15 95.3971C1075.01 95.5267 1074.93 95.7067 1074.77 95.8375C1074.76 95.8455 1074.73 95.8743 1074.69 95.9239C1074.64 95.9847 1074.55 95.9918 1074.44 95.9454C1073.21 95.2986 1071.93 94.1815 1071.55 92.7799C1071.38 92.1655 1071.46 91.3422 1071.45 90.6354C1071.45 90.5954 1071.43 90.5582 1071.41 90.5238C1070.76 89.5278 1070.84 88.3758 1070.85 87.2826C1070.85 87.0986 1070.81 86.9014 1070.75 86.691C1070.58 86.1758 1070.52 85.6422 1070.57 85.0902C1070.59 85.1286 1070.61 85.151 1070.63 85.1574C1070.64 85.1593 1070.64 85.1596 1070.65 85.1585C1070.66 85.1573 1070.66 85.1546 1070.67 85.1507C1070.67 85.1467 1070.68 85.1416 1070.68 85.1357C1070.68 85.1298 1070.68 85.1233 1070.68 85.1166V85.0578C1070.68 85.0458 1070.69 85.0342 1070.7 85.0256C1070.71 85.0171 1070.72 85.0122 1070.73 85.0122H1074.15C1074.38 85.0122 1074.59 85.0118 1074.78 85.011C1074.82 85.011 1074.98 85.0118 1075.28 85.0134C1075.31 85.0142 1075.33 85.0366 1075.34 85.0806C1075.34 85.1054 1075.35 85.1146 1075.38 85.1082C1075.41 85.0986 1075.45 85.1046 1075.49 85.1262Z" fill="#FFA5EA"/>
<path d="M1079.72 87.2348C1080.42 87.202 1081.12 87.238 1081.83 87.3428C1081.88 87.6756 1081.82 87.9788 1081.66 88.2524C1081.6 88.3556 1081.62 88.4312 1081.55 88.5236C1081.54 88.5444 1081.52 88.5788 1081.5 88.6268C1081.48 88.6676 1081.48 88.71 1081.48 88.754C1081.49 88.7972 1081.48 88.8352 1081.45 88.868C1081.26 89.0888 1081.15 89.3452 1081.14 89.6372C1081.14 89.6596 1081.13 89.6736 1081.11 89.6792L1081.07 89.6888C1081.05 89.6952 1081.03 89.71 1081.01 89.7332C1080.9 89.9516 1080.81 90.1508 1080.64 90.35C1080.52 90.4924 1080.42 90.6456 1080.33 90.8096C1080.25 90.9536 1080.15 91.1024 1080.03 91.256C1079.92 91.3952 1079.83 91.5464 1079.76 91.7096C1079.75 91.7328 1079.73 91.7516 1079.71 91.766L1079.67 91.796C1079.64 91.8112 1079.63 91.8324 1079.62 91.8596C1079.58 92.0132 1079.47 92.0888 1079.4 92.2076C1079.28 92.414 1079.14 92.5592 1078.96 92.8076C1078.85 92.9524 1078.7 93.0892 1078.5 93.218C1078.22 93.4036 1078.01 93.6868 1077.86 94.0676C1077.73 94.4348 1077.43 94.7156 1077.26 95.0552C1077.16 95.2508 1076.97 95.3492 1076.85 95.5664C1076.78 95.6948 1076.5 95.9264 1076.49 96.008C1076.48 96.0376 1076.47 96.0632 1076.44 96.0848C1075.95 96.564 1075.65 96.8788 1075.52 97.0292C1075.17 97.4428 1074.81 97.764 1074.46 97.9928L1074.44 95.9456C1074.56 95.992 1074.64 95.9848 1074.69 95.924C1074.73 95.8744 1074.76 95.8456 1074.77 95.8376C1074.93 95.7068 1075.01 95.5268 1075.16 95.3972C1075.33 95.2428 1075.48 95.0712 1075.61 94.8824C1075.62 94.8656 1075.63 94.8548 1075.65 94.85C1075.67 94.8436 1075.69 94.8304 1075.71 94.8104C1075.93 94.5428 1076.14 94.3172 1076.33 94.0016C1076.54 93.6752 1076.93 93.4256 1077.21 93.1688C1077.23 93.1512 1077.25 93.142 1077.28 93.1412C1077.29 93.1412 1077.3 93.1412 1077.31 93.1412C1077.32 93.1412 1077.33 93.1336 1077.34 93.1184C1077.37 93 1077.43 92.9072 1077.52 92.84C1077.56 92.8152 1077.58 92.7816 1077.59 92.7392C1077.6 92.6824 1077.63 92.648 1077.69 92.636C1077.73 92.628 1077.76 92.6068 1077.78 92.5724L1078.05 92.0792C1078.06 92.0496 1078.09 92.028 1078.12 92.0144C1078.14 92.0008 1078.16 91.9812 1078.17 91.9556C1078.24 91.6868 1078.31 91.3552 1078.36 90.9608C1078.37 90.9184 1078.39 90.88 1078.41 90.8456C1078.59 90.6088 1078.73 90.3484 1078.82 90.0644C1078.83 90.0292 1078.85 89.9972 1078.87 89.9684C1079.02 89.7812 1078.99 89.582 1079.16 89.3984C1079.19 89.364 1079.2 89.3236 1079.2 89.2772C1079.2 89.138 1079.25 89.0172 1079.34 88.9148C1079.36 88.8935 1079.38 88.8674 1079.38 88.8392L1079.72 87.2348Z" fill="#94A8EF"/>
<path d="M1081.83 87.3426C1082.82 87.4178 1083.79 87.6114 1084.71 87.9234C1085.58 88.2174 1086.21 88.7778 1087.17 88.8402C1087.14 88.9746 1087.17 89.1094 1087.26 89.2446C1087.37 89.391 1087.44 89.5018 1087.47 89.577C1087.58 89.853 1087.7 90.1222 1087.84 90.3846C1088.04 90.7518 1088.3 91.5262 1088.63 92.7078C1088.7 92.9702 1088.73 93.253 1088.72 93.5562C1088.72 93.7842 1088.8 94.0218 1088.78 94.2378C1088.73 94.6818 1088.74 95.1234 1088.63 95.5482C1088.54 95.8746 1088.45 96.2006 1088.36 96.5262C1088.32 96.6726 1088.21 96.7986 1088.18 96.9702C1088.17 97.0054 1088.16 97.0354 1088.13 97.0602C1088.1 97.0922 1088.08 97.1214 1088.07 97.1478C1088.02 97.4174 1087.9 97.6522 1087.72 97.8522C1087.69 97.8818 1087.67 97.9162 1087.66 97.9554C1087.62 98.1282 1087.53 98.2622 1087.38 98.3574C1087.35 98.3822 1087.32 98.4142 1087.3 98.4534L1087.14 98.7822C1087.12 98.8174 1087.1 98.847 1087.07 98.871C1086.98 98.9346 1086.96 99.0498 1086.92 99.1086C1086.58 99.583 1086.21 100.053 1085.82 100.52C1085.72 100.08 1085.57 99.7098 1085.37 99.4098C1085.51 99.1722 1085.66 98.9514 1085.81 98.7474C1085.94 98.5818 1085.98 98.4114 1086.12 98.2614C1086.3 98.0646 1086.33 97.875 1086.46 97.6866C1086.6 97.4646 1086.71 97.2318 1086.83 96.9978C1086.85 96.9578 1086.86 96.9154 1086.86 96.8706C1086.85 96.8234 1086.86 96.7866 1086.9 96.7602C1086.93 96.7378 1086.95 96.709 1086.96 96.6738L1087.15 96.0978C1087.16 96.0634 1087.16 96.0282 1087.16 95.9922C1087.15 95.9546 1087.16 95.9226 1087.18 95.8962C1087.2 95.865 1087.21 95.8302 1087.21 95.7918C1087.22 95.5578 1087.34 95.3898 1087.34 95.1714C1087.34 94.7602 1087.34 94.349 1087.34 93.9378C1087.34 93.6962 1087.2 93.1622 1086.93 92.3358C1086.87 92.1582 1086.77 91.9818 1086.69 91.8126C1086.61 91.6386 1086.59 91.3794 1086.39 91.1994C1086.35 91.1714 1086.34 91.137 1086.35 91.0962C1086.35 91.0546 1086.34 91.0226 1086.31 91.0002C1086.28 90.9818 1086.26 90.957 1086.25 90.9258C1086.18 90.7754 1086.11 90.6294 1086.04 90.4878C1085.96 90.343 1085.89 90.209 1085.83 90.0858C1085.62 89.629 1085.34 89.2134 1085 88.839C1084.97 88.8126 1084.97 88.7866 1085 88.761L1085.03 88.731C1085.04 88.7237 1085.04 88.7151 1085.05 88.7056C1085.05 88.6961 1085.05 88.6859 1085.05 88.6756C1085.05 88.6654 1085.05 88.6552 1085.04 88.6458C1085.04 88.6363 1085.03 88.6277 1085.03 88.6206C1084.91 88.5134 1084.78 88.449 1084.63 88.4274C1084.61 88.4242 1084.59 88.4138 1084.58 88.3962C1084.57 88.377 1084.56 88.3626 1084.54 88.353C1084.52 88.3418 1084.5 88.3422 1084.46 88.3542C1084.2 88.451 1084.02 88.5618 1083.93 88.6866C1083.78 88.8946 1083.61 89.0918 1083.43 89.2782C1082.97 89.7486 1082.52 90.2238 1082.13 90.7518C1082.03 90.883 1081.91 90.9942 1081.77 91.0854C1081.74 91.107 1081.72 91.135 1081.7 91.1694C1081.6 91.3878 1081.36 91.4202 1081.23 91.5378C1081.08 91.6682 1080.95 91.807 1080.83 91.9542C1080.82 91.9622 1080.76 92.0182 1080.64 92.1222C1080.58 92.179 1080.54 92.2514 1080.52 92.3394C1080.51 92.3802 1080.49 92.4174 1080.47 92.451L1080.27 92.7102C1080.26 92.7198 1080.25 92.725 1080.24 92.7258C1080.23 92.7258 1080.22 92.7262 1080.21 92.727C1080.2 92.7277 1080.18 92.7316 1080.17 92.7382C1080.16 92.7449 1080.15 92.7542 1080.14 92.7654C1080.03 92.9278 1079.89 93.059 1079.73 93.159C1079.69 93.1838 1079.66 93.2198 1079.65 93.267C1079.64 93.3262 1079.62 93.3762 1079.58 93.417C1079.55 93.4466 1079.54 93.4806 1079.55 93.519C1079.57 93.609 1079.57 93.6462 1079.51 93.729C1079.43 93.857 1079.37 93.9934 1079.33 94.1382C1079.32 94.1774 1079.29 94.2086 1079.26 94.2318C1079.15 94.3062 1079.17 94.4454 1079.12 94.5342C1079.05 94.671 1078.93 94.7706 1078.88 94.9134C1078.78 95.171 1078.67 95.3598 1078.56 95.4798C1078.41 95.6382 1078.31 95.7806 1078.25 95.907C1078.18 96.0618 1078.02 96.3162 1077.91 96.4326C1077.73 96.6086 1077.57 96.8054 1077.44 97.023C1077.42 97.0606 1077.39 97.0902 1077.35 97.1118C1077.25 97.175 1077.19 97.2666 1077.19 97.3866C1077.19 97.4298 1077.17 97.467 1077.14 97.4982C1076.48 98.2174 1075.77 98.8914 1075.01 99.5202C1074.98 99.5436 1074.96 99.5755 1074.95 99.6114C1074.94 99.6794 1074.89 99.7138 1074.82 99.7146C1074.79 99.7154 1074.76 99.7266 1074.73 99.7482C1074.71 99.7706 1074.69 99.7954 1074.68 99.8226L1074.45 97.9926C1074.81 97.7638 1075.17 97.4426 1075.52 97.029C1075.64 96.8786 1075.95 96.5638 1076.44 96.0846C1076.46 96.063 1076.48 96.0374 1076.48 96.0078C1076.5 95.9262 1076.78 95.6946 1076.85 95.5662C1076.97 95.349 1077.15 95.2506 1077.25 95.055C1077.43 94.7154 1077.72 94.4346 1077.86 94.0674C1078.01 93.6866 1078.22 93.4034 1078.5 93.2178C1078.69 93.089 1078.85 92.9522 1078.96 92.8074C1079.14 92.559 1079.27 92.4138 1079.4 92.2074C1079.47 92.0886 1079.58 92.013 1079.62 91.8594C1079.63 91.8322 1079.64 91.811 1079.66 91.7958L1079.71 91.7658C1079.73 91.7514 1079.75 91.7326 1079.76 91.7094C1079.83 91.5462 1079.92 91.395 1080.03 91.2558C1080.15 91.1022 1080.25 90.9534 1080.32 90.8094C1080.41 90.6454 1080.52 90.4922 1080.64 90.3498C1080.81 90.1506 1080.9 89.9514 1081.01 89.733C1081.02 89.7098 1081.04 89.695 1081.07 89.6886L1081.1 89.679C1081.13 89.6734 1081.14 89.6594 1081.14 89.637C1081.15 89.345 1081.25 89.0886 1081.45 88.8678C1081.48 88.835 1081.49 88.797 1081.48 88.7538C1081.48 88.7098 1081.48 88.6674 1081.5 88.6266C1081.52 88.5786 1081.54 88.5442 1081.55 88.5234C1081.62 88.431 1081.6 88.3554 1081.66 88.2522C1081.82 87.9786 1081.88 87.6754 1081.83 87.3426Z" fill="#64CAF5"/>
<path d="M1085.37 99.41C1085.07 99.0308 1084.62 98.6252 1084.45 98.2496C1084.26 97.8152 1084.31 97.4048 1084.32 96.9428C1084.33 96.8972 1084.31 96.882 1084.26 96.8972C1082.42 97.5356 1080.34 97.6904 1078.44 97.1912C1078.4 97.18 1078.38 97.1964 1078.38 97.2404C1078.37 98.2844 1078.29 99.2532 1078.13 100.147C1078.09 100.433 1077.98 100.724 1077.81 101.018C1077.79 101.052 1077.78 101.09 1077.78 101.128C1077.78 101.792 1077.77 102.455 1077.76 103.117C1077.76 103.424 1077.53 104.634 1077.08 104.647C1076.64 104.66 1076.19 104.664 1075.73 104.661C1075.72 104.661 1075.71 104.658 1075.7 104.654C1075.69 104.649 1075.68 104.642 1075.68 104.634C1075.67 104.625 1075.67 104.616 1075.67 104.606C1075.66 104.596 1075.67 104.586 1075.67 104.576C1075.84 104.124 1076.12 103.749 1076.49 103.45C1076.53 103.425 1076.54 103.392 1076.54 103.352C1076.57 102.56 1076.66 101.254 1076.32 100.538C1076.31 100.531 1076.31 100.525 1076.3 100.522C1076.29 100.518 1076.29 100.517 1076.28 100.518C1076.27 100.519 1076.26 100.522 1076.26 100.527C1076.25 100.532 1076.25 100.539 1076.25 100.546C1075.95 101.832 1075.53 103.191 1074.8 104.311C1074.79 104.327 1074.78 104.34 1074.76 104.349C1074.74 104.359 1074.72 104.364 1074.71 104.364H1073.61C1073.57 104.364 1073.55 104.344 1073.55 104.304C1073.56 103.93 1073.7 103.52 1074.1 103.426C1074.14 103.418 1074.17 103.396 1074.19 103.36C1074.76 102.177 1074.81 101.319 1074.68 99.8228C1074.69 99.7956 1074.71 99.7708 1074.73 99.7484C1074.76 99.7268 1074.79 99.7156 1074.82 99.7148C1074.89 99.714 1074.94 99.6796 1074.96 99.6116C1074.96 99.5757 1074.98 99.5438 1075.01 99.5204C1075.77 98.8916 1076.48 98.2176 1077.14 97.4984C1077.17 97.4672 1077.19 97.43 1077.19 97.3868C1077.19 97.2668 1077.25 97.1752 1077.35 97.112C1077.39 97.0904 1077.42 97.0608 1077.45 97.0232C1077.57 96.8056 1077.73 96.6088 1077.91 96.4328C1078.02 96.3164 1078.18 96.062 1078.25 95.9072C1078.31 95.7808 1078.41 95.6384 1078.56 95.48C1078.67 95.36 1078.78 95.1712 1078.88 94.9136C1078.93 94.7708 1079.05 94.6712 1079.12 94.5344C1079.17 94.4456 1079.15 94.3064 1079.26 94.232C1079.29 94.2088 1079.32 94.1776 1079.33 94.1384C1079.37 93.9936 1079.43 93.8572 1079.51 93.7292C1079.57 93.6464 1079.57 93.6092 1079.55 93.5192C1079.54 93.4808 1079.55 93.4468 1079.58 93.4172C1079.62 93.3764 1079.64 93.3264 1079.65 93.2672C1079.66 93.22 1079.69 93.184 1079.73 93.1592C1079.89 93.0592 1080.03 92.928 1080.14 92.7656C1080.15 92.7544 1080.16 92.7451 1080.17 92.7385C1080.18 92.7318 1080.2 92.7279 1080.21 92.7272C1080.22 92.7264 1080.23 92.726 1080.24 92.726C1080.25 92.7252 1080.26 92.72 1080.27 92.7104L1080.47 92.4512C1080.49 92.4176 1080.51 92.3804 1080.52 92.3396C1080.54 92.2516 1080.58 92.1792 1080.64 92.1224C1080.76 92.0184 1080.82 91.9624 1080.83 91.9544C1080.95 91.8072 1081.09 91.6684 1081.23 91.538C1081.36 91.4204 1081.6 91.388 1081.7 91.1696C1081.72 91.1352 1081.74 91.1072 1081.77 91.0856C1081.91 90.9944 1082.03 90.8832 1082.13 90.752C1082.52 90.224 1082.97 89.7488 1083.43 89.2784C1083.61 89.092 1083.78 88.8948 1083.93 88.6868C1084.02 88.562 1084.2 88.4512 1084.46 88.3544C1084.5 88.3424 1084.52 88.342 1084.54 88.3532C1084.56 88.3628 1084.57 88.3772 1084.58 88.3964C1084.59 88.414 1084.61 88.4244 1084.63 88.4276C1084.78 88.4492 1084.91 88.5136 1085.03 88.6208C1085.03 88.628 1085.04 88.6365 1085.04 88.646C1085.05 88.6554 1085.05 88.6656 1085.05 88.6759C1085.05 88.6861 1085.05 88.6963 1085.05 88.7058C1085.04 88.7153 1085.04 88.724 1085.03 88.7312L1085 88.7612C1084.97 88.7868 1084.97 88.8128 1085 88.8392C1085.34 89.2136 1085.62 89.6292 1085.83 90.086C1085.89 90.2092 1085.96 90.3432 1086.04 90.488C1086.12 90.6296 1086.18 90.7756 1086.25 90.926C1086.26 90.9572 1086.28 90.982 1086.31 91.0004C1086.34 91.0228 1086.35 91.0548 1086.35 91.0964C1086.34 91.1372 1086.36 91.1716 1086.39 91.1996C1086.59 91.3796 1086.61 91.6388 1086.69 91.8128C1086.78 91.982 1086.87 92.1584 1086.93 92.336C1087.2 93.1624 1087.34 93.6964 1087.34 93.938C1087.34 94.3492 1087.34 94.7604 1087.34 95.1716C1087.34 95.39 1087.22 95.558 1087.21 95.792C1087.21 95.8304 1087.2 95.8652 1087.18 95.8964C1087.16 95.9228 1087.15 95.9548 1087.16 95.9924C1087.16 96.0284 1087.16 96.0636 1087.15 96.098L1086.96 96.674C1086.95 96.7092 1086.93 96.738 1086.9 96.7604C1086.86 96.7868 1086.85 96.8236 1086.86 96.8708C1086.86 96.9156 1086.85 96.958 1086.83 96.998C1086.71 97.232 1086.6 97.4648 1086.46 97.6868C1086.33 97.8752 1086.3 98.0648 1086.12 98.2616C1085.98 98.4116 1085.94 98.582 1085.81 98.7476C1085.66 98.9516 1085.51 99.1724 1085.37 99.41Z" fill="#45DFF8"/>
<path d="M1089.55 88.6556C1089.58 88.7772 1089.61 88.89 1089.64 88.994C1089.66 89.106 1089.71 89.2112 1089.78 89.3096C1089.97 89.5784 1090.11 89.852 1090.21 90.1304C1090.38 90.6096 1090.54 91.1816 1090.72 91.8464C1090.74 91.9184 1090.74 92.0132 1090.73 92.1308C1090.72 92.2804 1090.76 92.3744 1090.84 92.4128C1090.64 92.8544 1090.31 93.1376 1089.84 93.2624C1089.8 93.2728 1089.77 93.2988 1089.77 93.3404C1089.64 94.2836 1089.68 95.2072 1089.88 96.1112C1089.83 96.3616 1089.77 96.6024 1089.71 96.8336C1089.61 97.1636 1089.41 97.4732 1089.27 97.8056C1089.22 97.9184 1089.13 97.9592 1089.07 98.0864C1088.95 98.3528 1088.78 98.6304 1088.53 98.9192C1088.3 99.1976 1088.06 99.5828 1087.81 100.075L1087.42 99.5312C1087.39 99.4872 1087.37 99.492 1087.37 99.5456L1087.27 100.29C1086.92 100.785 1086.58 101.268 1086.25 101.738C1086.19 101.821 1086.18 101.93 1086.14 101.995C1085.91 102.34 1085.68 102.686 1085.46 103.035C1085.4 103.125 1085.27 103.198 1085.26 103.356C1085.26 103.395 1085.26 103.432 1085.24 103.468L1084.86 104.359L1084.41 104.354C1084.37 104.354 1084.35 104.333 1084.35 104.292C1084.36 103.947 1084.49 103.522 1084.87 103.441C1084.92 103.432 1084.95 103.41 1084.97 103.376C1085.4 102.742 1085.68 102.061 1085.83 101.335C1086 101.141 1086.21 100.836 1086.48 100.42C1086.65 100.162 1086.89 99.8888 1087.21 99.6008C1087.24 99.5752 1087.25 99.544 1087.24 99.5072C1087.24 99.4456 1087.26 99.3984 1087.31 99.3656C1087.33 99.3496 1087.35 99.3284 1087.36 99.302C1087.39 99.2108 1087.48 99.158 1087.52 99.0884C1087.62 98.9396 1087.68 98.7644 1087.77 98.6288C1088.18 97.9936 1088.54 97.324 1088.83 96.62C1089.17 95.774 1089.36 94.8356 1089.29 93.92C1089.27 93.6992 1089.32 93.4916 1089.29 93.278C1089.27 93.1772 1089.26 93.0768 1089.25 92.9768C1089.19 92.4432 1089.05 91.9328 1088.82 91.4456C1088.81 91.408 1088.8 91.3684 1088.8 91.3268C1088.81 91.2876 1088.8 91.2492 1088.79 91.2116L1087.77 88.754C1088.14 88.6172 1088.49 88.5344 1088.82 88.5056C1089.09 88.4816 1089.33 88.5316 1089.55 88.6556Z" fill="#84B4F1"/>
<path d="M1089.55 88.6556C1090.88 89.3744 1091.23 91.076 1090.85 92.4128C1090.76 92.3744 1090.72 92.2804 1090.73 92.1308C1090.74 92.0132 1090.74 91.9184 1090.72 91.8464C1090.55 91.1816 1090.38 90.6096 1090.21 90.1304C1090.12 89.852 1089.97 89.5784 1089.78 89.3096C1089.71 89.2112 1089.67 89.106 1089.64 88.994C1089.61 88.89 1089.58 88.7772 1089.55 88.6556Z" fill="#94A8EF"/>
<path d="M1087.78 88.7542L1088.79 91.2118C1088.81 91.2494 1088.81 91.2878 1088.81 91.327C1088.8 91.3686 1088.81 91.4081 1088.83 91.4457C1089.05 91.933 1089.19 92.4434 1089.25 92.977C1089.26 93.077 1089.27 93.1774 1089.29 93.2782C1089.33 93.4918 1089.27 93.6994 1089.29 93.9202C1089.37 94.8358 1089.17 95.7742 1088.83 96.6202C1088.54 97.3242 1088.19 97.9938 1087.77 98.629C1087.68 98.7646 1087.62 98.9398 1087.53 99.0886C1087.48 99.1582 1087.39 99.211 1087.36 99.3022C1087.35 99.3286 1087.33 99.3498 1087.31 99.3658C1087.26 99.3986 1087.24 99.4458 1087.25 99.5074C1087.25 99.5442 1087.24 99.5754 1087.21 99.601C1086.89 99.889 1086.65 100.162 1086.49 100.421C1086.22 100.837 1086 101.141 1085.83 101.335L1085.82 100.52C1086.21 100.054 1086.58 99.5834 1086.92 99.109C1086.96 99.0502 1086.99 98.935 1087.07 98.8714C1087.1 98.8474 1087.12 98.8178 1087.14 98.7826L1087.3 98.4538C1087.32 98.4146 1087.35 98.3826 1087.39 98.3578C1087.53 98.2626 1087.62 98.1286 1087.66 97.9558C1087.67 97.9166 1087.69 97.8822 1087.72 97.8526C1087.9 97.6526 1088.02 97.4178 1088.07 97.1482C1088.08 97.1218 1088.1 97.0926 1088.13 97.0606C1088.16 97.0358 1088.17 97.0058 1088.18 96.9706C1088.21 96.799 1088.32 96.673 1088.36 96.5266C1088.45 96.201 1088.54 95.875 1088.63 95.5486C1088.74 95.1238 1088.73 94.6822 1088.78 94.2382C1088.8 94.0222 1088.72 93.7846 1088.72 93.5566C1088.73 93.2534 1088.7 92.9706 1088.63 92.7082C1088.3 91.5266 1088.04 90.7522 1087.84 90.385C1087.7 90.1226 1087.58 89.8534 1087.47 89.5774C1087.44 89.5022 1087.37 89.3914 1087.26 89.245C1087.17 89.1098 1087.14 88.9749 1087.17 88.8405L1087.78 88.7542Z" fill="#74BEF3"/>
<path d="M1089.88 96.1111L1090.07 96.5527C1090.06 96.9511 1090.07 97.2991 1090.02 97.7143C1089.98 97.9579 1090.06 98.2831 1089.92 98.5051C1089.83 98.6531 1089.77 98.7575 1089.74 98.8183C1089.59 99.2071 1089.22 99.5215 1088.97 99.8503C1088.77 100.112 1088.58 100.378 1088.38 100.649L1087.81 100.075C1088.06 99.5827 1088.3 99.1975 1088.53 98.9191C1088.78 98.6303 1088.95 98.3527 1089.07 98.0863C1089.13 97.9591 1089.22 97.9183 1089.27 97.8055C1089.41 97.4731 1089.61 97.1635 1089.71 96.8335C1089.77 96.6023 1089.83 96.3615 1089.88 96.1111Z" fill="#94A8EF"/>
<path d="M1090.07 96.5527C1090.07 97.1407 1090.07 97.7287 1090.08 98.3167C1090.08 98.5159 1090.12 98.7259 1090.2 98.9467C1090.52 99.8623 1090.62 100.738 1090.11 101.608C1090.09 101.642 1090.08 101.678 1090.09 101.718C1090.2 102.662 1090.22 103.716 1089.81 104.598C1089.8 104.617 1089.79 104.634 1089.77 104.646C1089.75 104.657 1089.73 104.663 1089.71 104.664L1088.34 104.662C1088.33 104.662 1088.31 104.66 1088.3 104.654C1088.29 104.648 1088.29 104.64 1088.28 104.63C1088.27 104.62 1088.27 104.609 1088.27 104.597C1088.27 104.585 1088.27 104.574 1088.28 104.564C1088.41 104.34 1088.58 104.16 1088.8 104.023C1088.83 104.002 1088.85 103.973 1088.85 103.935C1088.97 103.125 1089.1 101.89 1088.86 101.107C1088.85 101.068 1088.83 101.036 1088.8 101.01L1088.38 100.65C1088.58 100.378 1088.78 100.112 1088.97 99.8503C1089.22 99.5215 1089.6 99.2071 1089.75 98.8183C1089.77 98.7575 1089.83 98.6531 1089.92 98.5051C1090.06 98.2831 1089.98 97.9579 1090.02 97.7143C1090.07 97.2991 1090.07 96.9511 1090.07 96.5527Z" fill="#B890EB"/>
<path d="M1087.27 100.289C1087.12 101.299 1086.72 102.398 1085.95 103.081C1085.92 103.1 1085.91 103.124 1085.89 103.152C1085.88 103.179 1085.88 103.208 1085.88 103.238L1085.88 104.289C1085.88 104.332 1085.86 104.354 1085.82 104.354L1084.86 104.359L1085.24 103.468C1085.26 103.432 1085.26 103.395 1085.26 103.355C1085.27 103.198 1085.4 103.125 1085.46 103.035C1085.68 102.686 1085.91 102.339 1086.14 101.995C1086.18 101.93 1086.19 101.821 1086.25 101.738C1086.58 101.267 1086.92 100.785 1087.27 100.289Z" fill="#94A8EF"/>
<g clip-path="url(#clip2_714_4539)">
<g filter="url(#filter3_f_714_4539)">
<ellipse cx="1058.27" cy="69.2713" rx="11.8634" ry="15.8179" transform="rotate(45 1058.27 69.2713)" fill="url(#paint8_linear_714_4539)"/>
</g>
</g>
</g>
<g filter="url(#filter4_f_714_4539)">
<rect x="3" y="165" width="88" height="88" rx="8.8" fill="url(#paint9_linear_714_4539)"/>
<g clip-path="url(#clip3_714_4539)">
<path d="M33.587 211.06C33.587 212.854 33.0549 214.283 31.9905 215.347C30.7946 216.615 29.222 217.249 27.2727 217.249C25.4071 217.249 23.8285 216.603 22.537 215.311C21.2454 214.02 20.5996 212.429 20.5996 210.54C20.5996 208.65 21.2454 207.06 22.537 205.768C23.8285 204.476 25.4071 203.831 27.2727 203.831C28.2175 203.831 29.1084 203.998 29.9455 204.333C30.7827 204.668 31.4703 205.14 32.0085 205.75L30.8245 206.934C30.4299 206.456 29.9186 206.082 29.2908 205.813C28.6629 205.544 27.9902 205.409 27.2727 205.409C25.8735 205.409 24.6896 205.894 23.7209 206.862C22.7642 207.843 22.2858 209.069 22.2858 210.54C22.2858 212.011 22.7642 213.236 23.7209 214.217C24.6896 215.186 25.8735 215.67 27.2727 215.67C28.5523 215.67 29.6167 215.311 30.4657 214.594C31.3148 213.876 31.8051 212.89 31.9367 211.634H27.2727V210.091H33.4973C33.5571 210.426 33.587 210.749 33.587 211.06Z" fill="url(#paint10_radial_714_4539)"/>
<path d="M38.7678 207.921C40.0845 207.921 41.1324 208.347 41.9116 209.199C42.6908 210.05 43.0803 211.243 43.0803 212.777L43.0622 212.958H36.0861C36.1102 213.828 36.4002 214.529 36.9558 215.06C37.5115 215.592 38.1759 215.858 38.949 215.858C40.012 215.858 40.8456 215.326 41.4495 214.263L42.9354 214.988C42.5367 215.737 41.9841 216.323 41.2774 216.746C40.5707 217.168 39.7704 217.38 38.8765 217.38C37.5719 217.38 36.4968 216.933 35.6512 216.039C34.8056 215.145 34.3828 214.015 34.3828 212.65C34.3828 211.297 34.7935 210.171 35.615 209.271C36.4364 208.371 37.4873 207.921 38.7678 207.921ZM38.7316 209.443C38.1034 209.443 37.5628 209.636 37.1098 210.023C36.6569 210.41 36.3579 210.929 36.2129 211.581H41.3046C41.2563 210.965 41.0056 210.455 40.5526 210.05C40.0996 209.646 39.4926 209.443 38.7316 209.443Z" fill="url(#paint11_radial_714_4539)"/>
<path d="M45.8143 217.062H44.1523V208.21H45.7421V209.439H45.8143C46.0672 209.005 46.4556 208.644 46.9795 208.355C47.5034 208.066 48.0242 207.921 48.5421 207.921C49.1924 207.921 49.7645 208.072 50.2583 208.373C50.752 208.674 51.1133 209.089 51.3422 209.619C52.0768 208.487 53.0945 207.921 54.3951 207.921C55.4188 207.921 56.2076 208.234 56.7616 208.861C57.3156 209.487 57.5926 210.378 57.5926 211.534V217.062H55.9306V211.787C55.9306 210.956 55.7801 210.357 55.479 209.99C55.1779 209.622 54.6721 209.439 53.9616 209.439C53.3233 209.439 52.7874 209.71 52.3538 210.252C51.9202 210.793 51.7035 211.432 51.7035 212.166V217.062H50.0415V211.787C50.0415 210.956 49.8909 210.357 49.5899 209.99C49.2888 209.622 48.783 209.439 48.0724 209.439C47.4341 209.439 46.8982 209.71 46.4646 210.252C46.0311 210.793 45.8143 211.432 45.8143 212.166V217.062Z" fill="url(#paint12_radial_714_4539)"/>
<path d="M61.155 205.138C61.155 205.464 61.0404 205.741 60.8112 205.97C60.582 206.199 60.3046 206.314 59.9789 206.314C59.6532 206.314 59.3757 206.199 59.1465 205.97C58.9173 205.741 58.8027 205.464 58.8027 205.138C58.8027 204.812 58.9173 204.535 59.1465 204.306C59.3757 204.076 59.6532 203.962 59.9789 203.962C60.3046 203.962 60.582 204.076 60.8112 204.306C61.0404 204.535 61.155 204.812 61.155 205.138ZM60.8112 208.196V217.062H59.1465V208.196H60.8112Z" fill="url(#paint13_linear_714_4539)"/>
<path d="M73.3991 205.138C73.3991 205.464 73.2845 205.741 73.0553 205.97C72.8261 206.199 72.5487 206.314 72.223 206.314C71.8973 206.314 71.6199 206.199 71.3907 205.97C71.1615 205.741 71.0469 205.464 71.0469 205.138C71.0469 204.812 71.1615 204.535 71.3907 204.306C71.6199 204.076 71.8973 203.962 72.223 203.962C72.5487 203.962 72.8261 204.076 73.0553 204.306C73.2845 204.535 73.3991 204.812 73.3991 205.138ZM73.0553 208.196V217.062H71.3907V208.196H73.0553Z" fill="url(#paint14_radial_714_4539)"/>
<path d="M62.2637 208.21H63.8534V209.439H63.9256C64.1785 209.005 64.5669 208.644 65.0908 208.355C65.6147 208.066 66.1597 207.921 66.7257 207.921C67.8096 207.921 68.6436 208.231 69.2277 208.851C69.8118 209.472 70.1038 210.354 70.1038 211.498V217.062H68.4419V211.606C68.4057 210.161 67.6771 209.439 66.256 209.439C65.5936 209.439 65.0396 209.707 64.594 210.242C64.1484 210.778 63.9256 211.42 63.9256 212.166V217.062H62.2637V208.21Z" fill="url(#paint15_linear_714_4539)"/>
<path d="M56.527 205.503C56.2334 203.566 54.7128 202.045 52.7754 201.752C54.7128 201.458 56.2334 199.937 56.527 198C56.8206 199.937 58.3413 201.458 60.2787 201.752C58.3413 202.045 56.8206 203.566 56.527 205.503Z" fill="#076EFF"/>
</g>
<g clip-path="url(#clip4_714_4539)">
<g filter="url(#filter5_f_714_4539)">
<ellipse cx="17.122" cy="179.123" rx="16.3122" ry="21.7496" transform="rotate(45 17.122 179.123)" fill="url(#paint16_linear_714_4539)"/>
</g>
</g>
</g>
<g filter="url(#filter6_f_714_4539)">
<rect x="427" y="155" width="64" height="64" rx="6.4" fill="url(#paint17_linear_714_4539)"/>
<path d="M467 177.4H463.16V181.24H467V177.4Z" fill="black"/>
<path d="M468.92 177.4H465.08V181.24H468.92V177.4Z" fill="#F7D046"/>
<path d="M451.641 177.4H447.801V181.24H451.641V177.4Z" fill="black"/>
<path d="M451.641 181.24H447.801V185.08H451.641V181.24Z" fill="black"/>
<path d="M451.641 185.08H447.801V188.92H451.641V185.08Z" fill="black"/>
<path d="M451.641 188.92H447.801V192.76H451.641V188.92Z" fill="black"/>
<path d="M451.641 192.76H447.801V196.6H451.641V192.76Z" fill="black"/>
<path d="M453.561 177.4H449.721V181.24H453.561V177.4Z" fill="#F7D046"/>
<path d="M468.92 181.24H465.08V185.08H468.92V181.24Z" fill="#F2A73B"/>
<path d="M453.561 181.24H449.721V185.08H453.561V181.24Z" fill="#F2A73B"/>
<path d="M463.16 181.24H459.32V185.08H463.16V181.24Z" fill="black"/>
<path d="M465.08 181.24H461.24V185.08H465.08V181.24Z" fill="#F2A73B"/>
<path d="M457.403 181.24H453.562V185.08H457.403V181.24Z" fill="#F2A73B"/>
<path d="M461.24 185.08H457.4V188.92H461.24V185.08Z" fill="#EE792F"/>
<path d="M465.08 185.08H461.24V188.92H465.08V185.08Z" fill="#EE792F"/>
<path d="M457.403 185.08H453.562V188.92H457.403V185.08Z" fill="#EE792F"/>
<path d="M459.321 188.92H455.48V192.76H459.321V188.92Z" fill="black"/>
<path d="M461.24 188.92H457.4V192.76H461.24V188.92Z" fill="#EB5829"/>
<path d="M468.92 185.08H465.08V188.92H468.92V185.08Z" fill="#EE792F"/>
<path d="M453.561 185.08H449.721V188.92H453.561V185.08Z" fill="#EE792F"/>
<path d="M467 188.92H463.16V192.76H467V188.92Z" fill="black"/>
<path d="M468.92 188.92H465.08V192.76H468.92V188.92Z" fill="#EB5829"/>
<path d="M467 192.76H463.16V196.6H467V192.76Z" fill="black"/>
<path d="M453.561 188.92H449.721V192.76H453.561V188.92Z" fill="#EB5829"/>
<path d="M468.92 192.76H465.08V196.6H468.92V192.76Z" fill="#EA3326"/>
<path d="M453.561 192.76H449.721V196.6H453.561V192.76Z" fill="#EA3326"/>
<g clip-path="url(#clip5_714_4539)">
<g filter="url(#filter7_f_714_4539)">
<ellipse cx="437.272" cy="165.271" rx="11.8634" ry="15.8179" transform="rotate(45 437.272 165.271)" fill="url(#paint18_linear_714_4539)"/>
</g>
</g>
</g>
<rect x="219" y="52" width="104" height="104" rx="10.4" fill="url(#paint19_linear_714_4539)"/>
<path d="M278.699 92.7686H280.444L285.416 87.7966L285.66 85.6856C282.812 83.1717 279.37 81.4253 275.659 80.6115C271.948 79.7977 268.091 79.9433 264.452 81.0346C260.813 82.126 257.512 84.127 254.861 86.8486C252.211 89.5702 250.297 92.9226 249.303 96.5892C249.857 96.3621 250.47 96.3253 251.047 96.4845L260.992 94.8446C260.992 94.8446 261.498 94.0072 261.759 94.0596C263.89 91.7195 266.835 90.2824 269.99 90.0424C273.146 89.8024 276.274 90.7777 278.734 92.7686H278.699Z" fill="#EA4335"/>
<path d="M292.499 96.5893C291.356 92.3807 289.01 88.5973 285.747 85.7032L278.769 92.6814C280.223 93.8698 281.389 95.3728 282.178 97.0773C282.966 98.7817 283.358 100.643 283.322 102.521V103.759C284.138 103.759 284.946 103.92 285.699 104.232C286.453 104.544 287.137 105.002 287.714 105.578C288.291 106.155 288.748 106.84 289.06 107.593C289.372 108.347 289.533 109.154 289.533 109.97C289.533 110.786 289.372 111.593 289.06 112.347C288.748 113.1 288.291 113.785 287.714 114.362C287.137 114.938 286.453 115.396 285.699 115.708C284.946 116.02 284.138 116.181 283.322 116.181H270.901L269.662 117.437V124.886L270.901 126.125H283.322C286.791 126.152 290.176 125.062 292.977 123.016C295.778 120.969 297.846 118.076 298.876 114.764C299.905 111.451 299.841 107.895 298.692 104.622C297.544 101.349 295.372 98.5326 292.499 96.5893Z" fill="#4285F4"/>
<path d="M258.461 126.055H270.883V116.111H258.461C257.576 116.111 256.702 115.92 255.897 115.552L254.152 116.093L249.145 121.065L248.709 122.81C251.517 124.93 254.943 126.07 258.461 126.055Z" fill="#34A853"/>
<path d="M258.459 93.7979C255.093 93.818 251.818 94.8888 249.09 96.8607C246.363 98.8325 244.319 101.607 243.245 104.797C242.171 107.986 242.12 111.432 243.099 114.652C244.078 117.872 246.039 120.706 248.707 122.758L255.912 115.553C254.996 115.139 254.195 114.509 253.576 113.718C252.957 112.926 252.539 111.996 252.359 111.008C252.179 110.019 252.241 109.002 252.54 108.043C252.839 107.084 253.367 106.212 254.077 105.501C254.788 104.791 255.66 104.263 256.619 103.964C257.578 103.665 258.596 103.603 259.584 103.783C260.572 103.963 261.502 104.381 262.294 105C263.086 105.619 263.715 106.42 264.129 107.336L271.334 100.131C269.822 98.1536 267.873 96.5533 265.639 95.4547C263.405 94.3561 260.948 93.789 258.459 93.7979Z" fill="#FBBC05"/>
<g clip-path="url(#clip6_714_4539)">
<g filter="url(#filter8_f_714_4539)">
<ellipse cx="235.691" cy="68.6909" rx="19.278" ry="25.704" transform="rotate(45 235.691 68.6909)" fill="url(#paint20_linear_714_4539)"/>
</g>
</g>
<g filter="url(#filter9_f_714_4539)">
<rect x="542" y="3" width="88" height="88" rx="8.8" fill="url(#paint21_linear_714_4539)"/>
<path fill-rule="evenodd" clip-rule="evenodd" d="M580.579 49.9567C581.4 49.9567 583.043 49.9156 585.342 48.9711C588.012 47.8623 593.268 45.8912 597.087 43.8379C599.756 42.4006 600.906 40.5116 600.906 37.9655C600.906 34.4749 598.073 31.6003 594.541 31.6003H579.757C574.706 31.6003 570.6 35.7069 570.6 40.7579C570.6 45.809 574.46 49.9567 580.579 49.9567Z" fill="#39594D"/>
<path fill-rule="evenodd" clip-rule="evenodd" d="M583.084 56.2398C583.084 53.7758 584.562 51.5172 586.862 50.5727L591.502 48.6426C596.225 46.7125 601.399 50.162 601.399 55.2542C601.399 59.1965 598.196 62.3996 594.254 62.3996H589.203C585.835 62.3996 583.084 59.6482 583.084 56.2398Z" fill="#D18EE2"/>
<path d="M575.897 51.1475C572.981 51.1475 570.6 53.5293 570.6 56.445V57.1431C570.6 60.0177 572.981 62.3995 575.897 62.3995C578.813 62.3995 581.195 60.0177 581.195 57.1021V56.4039C581.154 53.5293 578.813 51.1475 575.897 51.1475Z" fill="#FF7759"/>
<g clip-path="url(#clip7_714_4539)">
<g filter="url(#filter10_f_714_4539)">
<ellipse cx="556.124" cy="17.123" rx="16.3122" ry="21.7496" transform="rotate(45 556.124 17.123)" fill="url(#paint22_linear_714_4539)"/>
</g>
</g>
</g>
<defs>
<filter id="filter0_f_714_4539" x="732.776" y="6.77531" width="141.831" height="141.831" filterUnits="userSpaceOnUse" color-interpolation-filters="sRGB">
<feFlood flood-opacity="0" result="BackgroundImageFix"/>
<feBlend mode="normal" in="SourceGraphic" in2="BackgroundImageFix" result="shape"/>
<feGaussianBlur stdDeviation="24.0975" result="effect1_foregroundBlur_714_4539"/>
</filter>
<filter id="filter1_f_714_4539" x="1159.63" y="147.631" width="87.2798" height="87.2809" filterUnits="userSpaceOnUse" color-interpolation-filters="sRGB">
<feFlood flood-opacity="0" result="BackgroundImageFix"/>
<feBlend mode="normal" in="SourceGraphic" in2="BackgroundImageFix" result="shape"/>
<feGaussianBlur stdDeviation="14.8292" result="effect1_foregroundBlur_714_4539"/>
</filter>
<filter id="filter2_f_714_4539" x="1045" y="56" width="70" height="70" filterUnits="userSpaceOnUse" color-interpolation-filters="sRGB">
<feFlood flood-opacity="0" result="BackgroundImageFix"/>
<feBlend mode="normal" in="SourceGraphic" in2="BackgroundImageFix" result="shape"/>
<feGaussianBlur stdDeviation="1.5" result="effect1_foregroundBlur_714_4539"/>
</filter>
<filter id="filter3_f_714_4539" x="1014.63" y="25.6309" width="87.2798" height="87.2809" filterUnits="userSpaceOnUse" color-interpolation-filters="sRGB">
<feFlood flood-opacity="0" result="BackgroundImageFix"/>
<feBlend mode="normal" in="SourceGraphic" in2="BackgroundImageFix" result="shape"/>
<feGaussianBlur stdDeviation="14.8292" result="effect1_foregroundBlur_714_4539"/>
</filter>
<filter id="filter4_f_714_4539" x="0.461538" y="162.462" width="93.0769" height="93.0769" filterUnits="userSpaceOnUse" color-interpolation-filters="sRGB">
<feFlood flood-opacity="0" result="BackgroundImageFix"/>
<feBlend mode="normal" in="SourceGraphic" in2="BackgroundImageFix" result="shape"/>
<feGaussianBlur stdDeviation="1.26923" result="effect1_foregroundBlur_714_4539"/>
</filter>
<filter id="filter5_f_714_4539" x="-42.8839" y="119.117" width="120.012" height="120.011" filterUnits="userSpaceOnUse" color-interpolation-filters="sRGB">
<feFlood flood-opacity="0" result="BackgroundImageFix"/>
<feBlend mode="normal" in="SourceGraphic" in2="BackgroundImageFix" result="shape"/>
<feGaussianBlur stdDeviation="20.3902" result="effect1_foregroundBlur_714_4539"/>
</filter>
<filter id="filter6_f_714_4539" x="425.154" y="153.154" width="67.6923" height="67.6923" filterUnits="userSpaceOnUse" color-interpolation-filters="sRGB">
<feFlood flood-opacity="0" result="BackgroundImageFix"/>
<feBlend mode="normal" in="SourceGraphic" in2="BackgroundImageFix" result="shape"/>
<feGaussianBlur stdDeviation="0.923077" result="effect1_foregroundBlur_714_4539"/>
</filter>
<filter id="filter7_f_714_4539" x="393.633" y="121.631" width="87.2798" height="87.2809" filterUnits="userSpaceOnUse" color-interpolation-filters="sRGB">
<feFlood flood-opacity="0" result="BackgroundImageFix"/>
<feBlend mode="normal" in="SourceGraphic" in2="BackgroundImageFix" result="shape"/>
<feGaussianBlur stdDeviation="14.8292" result="effect1_foregroundBlur_714_4539"/>
</filter>
<filter id="filter8_f_714_4539" x="164.776" y="-2.22475" width="141.831" height="141.831" filterUnits="userSpaceOnUse" color-interpolation-filters="sRGB">
<feFlood flood-opacity="0" result="BackgroundImageFix"/>
<feBlend mode="normal" in="SourceGraphic" in2="BackgroundImageFix" result="shape"/>
<feGaussianBlur stdDeviation="24.0975" result="effect1_foregroundBlur_714_4539"/>
</filter>
<filter id="filter9_f_714_4539" x="539" y="0" width="94" height="94" filterUnits="userSpaceOnUse" color-interpolation-filters="sRGB">
<feFlood flood-opacity="0" result="BackgroundImageFix"/>
<feBlend mode="normal" in="SourceGraphic" in2="BackgroundImageFix" result="shape"/>
<feGaussianBlur stdDeviation="1.5" result="effect1_foregroundBlur_714_4539"/>
</filter>
<filter id="filter10_f_714_4539" x="496.118" y="-42.8826" width="120.012" height="120.011" filterUnits="userSpaceOnUse" color-interpolation-filters="sRGB">
<feFlood flood-opacity="0" result="BackgroundImageFix"/>
<feBlend mode="normal" in="SourceGraphic" in2="BackgroundImageFix" result="shape"/>
<feGaussianBlur stdDeviation="20.3902" result="effect1_foregroundBlur_714_4539"/>
</filter>
<linearGradient id="paint0_linear_714_4539" x1="800.65" y1="75.95" x2="876.7" y2="153.95" gradientUnits="userSpaceOnUse">
<stop stop-color="#28324D"/>
<stop offset="1" stop-color="#090E1A"/>
</linearGradient>
<linearGradient id="paint1_linear_714_4539" x1="835.942" y1="93.0794" x2="819.962" y2="140.288" gradientUnits="userSpaceOnUse">
<stop stop-color="#114A8B"/>
<stop offset="1" stop-color="#0669BC"/>
</linearGradient>
<linearGradient id="paint2_linear_714_4539" x1="840.932" y1="115.08" x2="837.236" y2="116.33" gradientUnits="userSpaceOnUse">
<stop stop-opacity="0.3"/>
<stop offset="0.071" stop-opacity="0.2"/>
<stop offset="0.321" stop-opacity="0.1"/>
<stop offset="0.623" stop-opacity="0.05"/>
<stop offset="1" stop-opacity="0"/>
</linearGradient>
<linearGradient id="paint3_linear_714_4539" x1="838.901" y1="91.7023" x2="856.443" y2="138.436" gradientUnits="userSpaceOnUse">
<stop stop-color="#3CCBF4"/>
<stop offset="1" stop-color="#2892DF"/>
</linearGradient>
<linearGradient id="paint4_linear_714_4539" x1="801.875" y1="73.1472" x2="803.69" y2="103.395" gradientUnits="userSpaceOnUse">
<stop stop-color="#096FFE"/>
<stop offset="1" stop-color="#8BB8FE"/>
</linearGradient>
<linearGradient id="paint5_linear_714_4539" x1="1201.4" y1="190.2" x2="1248.2" y2="238.2" gradientUnits="userSpaceOnUse">
<stop stop-color="#28324D"/>
<stop offset="1" stop-color="#090E1A"/>
</linearGradient>
<linearGradient id="paint6_linear_714_4539" x1="1202.15" y1="188.475" x2="1203.27" y2="207.089" gradientUnits="userSpaceOnUse">
<stop stop-color="#096FFE"/>
<stop offset="1" stop-color="#8BB8FE"/>
</linearGradient>
<linearGradient id="paint7_linear_714_4539" x1="1056.4" y1="68.2" x2="1103.2" y2="116.2" gradientUnits="userSpaceOnUse">
<stop stop-color="#28324D"/>
<stop offset="1" stop-color="#090E1A"/>
</linearGradient>
<linearGradient id="paint8_linear_714_4539" x1="1057.15" y1="66.4751" x2="1058.27" y2="85.0892" gradientUnits="userSpaceOnUse">
<stop stop-color="#096FFE"/>
<stop offset="1" stop-color="#8BB8FE"/>
</linearGradient>
<linearGradient id="paint9_linear_714_4539" x1="14.55" y1="177.65" x2="78.9" y2="243.65" gradientUnits="userSpaceOnUse">
<stop stop-color="#28324D"/>
<stop offset="1" stop-color="#090E1A"/>
</linearGradient>
<radialGradient id="paint10_radial_714_4539" cx="0" cy="0" r="1" gradientUnits="userSpaceOnUse" gradientTransform="translate(-1082.63 500.651) rotate(151.125) scale(1329.29 1071.22)">
<stop stop-color="#5BAEFF"/>
<stop offset="1" stop-color="#9CBFFF"/>
</radialGradient>
<radialGradient id="paint11_radial_714_4539" cx="0" cy="0" r="1" gradientUnits="userSpaceOnUse" gradientTransform="translate(-320.08 664.435) rotate(99.2039) scale(645.966 760.969)">
<stop stop-color="#409DFF"/>
<stop offset="1" stop-color="#64B0FF"/>
</radialGradient>
<radialGradient id="paint12_radial_714_4539" cx="0" cy="0" r="1" gradientUnits="userSpaceOnUse" gradientTransform="translate(-220.511 871.153) rotate(99.4856) scale(1466.08 699.522)">
<stop stop-color="#177CFF"/>
<stop offset="1" stop-color="#4DA4FF"/>
</radialGradient>
<linearGradient id="paint13_linear_714_4539" x1="173.797" y1="319.361" x2="173.797" y2="1513.98" gradientUnits="userSpaceOnUse">
<stop stop-color="#076EFF"/>
<stop offset="1" stop-color="#3E93FF"/>
</linearGradient>
<radialGradient id="paint14_radial_714_4539" cx="0" cy="0" r="1" gradientUnits="userSpaceOnUse" gradientTransform="translate(-272.186 147.193) rotate(21.4306) scale(548.211 2744.54)">
<stop stop-color="#1C7AFF"/>
<stop offset="1" stop-color="#8FB9FF"/>
</radialGradient>
<linearGradient id="paint15_linear_714_4539" x1="165.886" y1="207.921" x2="789.787" y2="978.925" gradientUnits="userSpaceOnUse">
<stop stop-color="#076EFF"/>
<stop offset="1" stop-color="#69A3FF"/>
</linearGradient>
<linearGradient id="paint16_linear_714_4539" x1="15.586" y1="175.278" x2="17.122" y2="200.873" gradientUnits="userSpaceOnUse">
<stop stop-color="#096FFE"/>
<stop offset="1" stop-color="#8BB8FE"/>
</linearGradient>
<linearGradient id="paint17_linear_714_4539" x1="435.4" y1="164.2" x2="482.2" y2="212.2" gradientUnits="userSpaceOnUse">
<stop stop-color="#28324D"/>
<stop offset="1" stop-color="#090E1A"/>
</linearGradient>
<linearGradient id="paint18_linear_714_4539" x1="436.155" y1="162.475" x2="437.272" y2="181.089" gradientUnits="userSpaceOnUse">
<stop stop-color="#096FFE"/>
<stop offset="1" stop-color="#8BB8FE"/>
</linearGradient>
<linearGradient id="paint19_linear_714_4539" x1="232.65" y1="66.95" x2="308.7" y2="144.95" gradientUnits="userSpaceOnUse">
<stop stop-color="#28324D"/>
<stop offset="1" stop-color="#090E1A"/>
</linearGradient>
<linearGradient id="paint20_linear_714_4539" x1="233.875" y1="64.1471" x2="235.69" y2="94.395" gradientUnits="userSpaceOnUse">
<stop stop-color="#096FFE"/>
<stop offset="1" stop-color="#8BB8FE"/>
</linearGradient>
<linearGradient id="paint21_linear_714_4539" x1="553.55" y1="15.65" x2="617.9" y2="81.65" gradientUnits="userSpaceOnUse">
<stop stop-color="#28324D"/>
<stop offset="1" stop-color="#090E1A"/>
</linearGradient>
<linearGradient id="paint22_linear_714_4539" x1="554.588" y1="13.2783" x2="556.124" y2="38.8726" gradientUnits="userSpaceOnUse">
<stop stop-color="#096FFE"/>
<stop offset="1" stop-color="#8BB8FE"/>
</linearGradient>
<clipPath id="clip0_714_4539">
<rect x="787" y="61" width="83.2" height="83.2" rx="10.4" fill="white"/>
</clipPath>
<clipPath id="clip1_714_4539">
<rect x="1193" y="181" width="51.2" height="51.2" rx="6.4" fill="white"/>
</clipPath>
<clipPath id="clip2_714_4539">
<rect x="1048" y="59" width="51.2" height="51.2" rx="6.4" fill="white"/>
</clipPath>
<clipPath id="clip3_714_4539">
<rect width="52.8" height="52.8" fill="white" transform="translate(20.5996 182.6)"/>
</clipPath>
<clipPath id="clip4_714_4539">
<rect x="3" y="165" width="70.4" height="70.4" rx="8.8" fill="white"/>
</clipPath>
<clipPath id="clip5_714_4539">
<rect x="427" y="155" width="51.2" height="51.2" rx="6.4" fill="white"/>
</clipPath>
<clipPath id="clip6_714_4539">
<rect x="219" y="52" width="83.2" height="83.2" rx="10.4" fill="white"/>
</clipPath>
<clipPath id="clip7_714_4539">
<rect x="542" y="3" width="70.4" height="70.4" rx="8.8" fill="white"/>
</clipPath>
</defs>
</svg>
