<svg width="560" height="400" viewBox="0 0 560 400" fill="none" xmlns="http://www.w3.org/2000/svg">
<g clip-path="url(#clip0_724_2099)">
<rect width="560" height="400" rx="8" fill="#090E1A"/>
<rect width="80" height="80" stroke="#161E33"/>
<rect x="80" width="80" height="80" stroke="#161E33"/>
<rect x="160" width="80" height="80" stroke="#161E33"/>
<rect x="240" width="80" height="80" stroke="#161E33"/>
<rect x="320" width="80" height="80" stroke="#161E33"/>
<rect x="400" width="80" height="80" stroke="#161E33"/>
<rect x="480" width="80" height="80" stroke="#161E33"/>
<rect y="80" width="80" height="80" stroke="#161E33"/>
<rect x="80" y="80" width="80" height="80" stroke="#161E33"/>
<rect x="160" y="80" width="80" height="80" stroke="#161E33"/>
<rect x="240" y="80" width="80" height="80" stroke="#161E33"/>
<rect x="320" y="80" width="80" height="80" stroke="#161E33"/>
<rect x="400" y="80" width="80" height="80" stroke="#161E33"/>
<rect x="480" y="80" width="80" height="80" stroke="#161E33"/>
<rect y="160" width="80" height="80" stroke="#161E33"/>
<rect x="80" y="160" width="80" height="80" stroke="#161E33"/>
<rect x="160" y="160" width="80" height="80" stroke="#161E33"/>
<rect x="240" y="160" width="80" height="80" stroke="#161E33"/>
<rect x="320" y="160" width="80" height="80" stroke="#161E33"/>
<rect x="400" y="160" width="80" height="80" stroke="#161E33"/>
<rect x="480" y="160" width="80" height="80" stroke="#161E33"/>
<rect y="240" width="80" height="80" stroke="#161E33"/>
<rect x="80" y="240" width="80" height="80" stroke="#161E33"/>
<rect x="160" y="240" width="80" height="80" stroke="#161E33"/>
<rect x="240" y="240" width="80" height="80" stroke="#161E33"/>
<rect x="320" y="240" width="80" height="80" stroke="#161E33"/>
<rect x="400" y="240" width="80" height="80" stroke="#161E33"/>
<rect x="480" y="240" width="80" height="80" stroke="#161E33"/>
<rect y="320" width="80" height="80" stroke="#161E33"/>
<rect x="80" y="320" width="80" height="80" stroke="#161E33"/>
<rect x="160" y="320" width="80" height="80" stroke="#161E33"/>
<rect x="240" y="320" width="80" height="80" stroke="#161E33"/>
<rect x="320" y="320" width="80" height="80" stroke="#161E33"/>
<rect x="400" y="320" width="80" height="80" stroke="#161E33"/>
<rect x="480" y="320" width="80" height="80" stroke="#161E33"/>
<g filter="url(#filter0_f_724_2099)">
<path d="M653.001 -32.7722C694.955 -2.76853 727.107 -0.869085 776.411 14.279C871.584 43.5199 934.333 22.8088 1027.68 57.4406C1218.15 128.104 616.488 244.519 507.705 72.9461C439.32 -34.9102 424.718 -349.363 509.735 -254.066C543.688 -216.008 539.854 -179.808 567.415 -136.894C595.859 -92.6049 610.188 -63.3909 653.001 -32.7722Z" fill="url(#paint0_linear_724_2099)"/>
</g>
<g filter="url(#filter1_f_724_2099)">
<path d="M132.121 475.408C174.074 505.411 206.226 507.311 255.53 522.459C350.703 551.7 413.452 530.989 506.798 565.62C697.265 636.284 95.6074 752.699 -13.1761 581.126C-81.561 473.27 -96.1631 158.817 -11.1455 254.114C22.8075 292.172 18.973 328.372 46.534 371.286C74.9777 415.575 89.3067 444.789 132.121 475.408Z" fill="url(#paint1_linear_724_2099)"/>
</g>
<path d="M158.471 156.08H144.231V142.8L174.311 115.12H125.671V97.04H199.911V113.36L171.431 139.6C189.351 143.12 203.271 156.24 203.271 176.88C203.271 200.88 184.551 216.08 160.871 216.08C137.991 216.08 120.231 202 120.231 176.72H140.391C140.391 190.16 148.711 197.84 161.191 197.84C173.991 197.84 182.471 189.52 182.471 176.56C182.471 164.72 174.791 156.08 158.471 156.08ZM240.925 214H221.085V97.04H240.925L278.685 190.16L316.445 97.04H336.605V214H316.765V178C316.765 154.48 316.765 147.6 317.885 139.28L288.125 214H269.245L239.645 139.44C240.765 146.48 240.925 157.52 240.925 172.08V214ZM354.521 129.68C354.521 109.2 371.481 94.96 396.121 94.96C419.801 94.96 434.841 108.08 435.481 129.2H415.001C414.521 119.12 407.321 113.2 395.801 113.2C383.161 113.2 375.001 119.28 375.001 129.04C375.001 137.36 379.481 142 389.241 144.24L407.641 148.24C427.641 152.56 437.401 162.8 437.401 180.24C437.401 202 420.441 216.08 394.681 216.08C369.721 216.08 353.401 202.8 352.921 181.84H373.401C373.561 191.76 381.561 197.68 394.681 197.68C408.281 197.68 416.921 191.76 416.921 182C416.921 174.16 412.921 169.52 403.321 167.44L384.761 163.28C364.921 158.96 354.521 147.6 354.521 129.68Z" fill="url(#paint2_linear_724_2099)"/>
<path d="M207.048 269.432H198.344V279H194.248V255.608H208.712V259.384H198.344V265.752H207.048V269.432ZM209.682 271.064C209.682 266.136 213.234 262.744 218.13 262.744C223.026 262.744 226.578 266.136 226.578 271.064C226.578 275.992 223.026 279.384 218.13 279.384C213.234 279.384 209.682 275.992 209.682 271.064ZM213.586 271.064C213.586 273.944 215.442 275.896 218.13 275.896C220.818 275.896 222.674 273.944 222.674 271.064C222.674 268.184 220.818 266.232 218.13 266.232C215.442 266.232 213.586 268.184 213.586 271.064ZM239.592 263.128V266.744H238.152C235.336 266.744 233.576 268.248 233.576 271.32V279H229.672V263.224H233.352L233.576 265.528C234.248 263.96 235.752 262.904 237.864 262.904C238.408 262.904 238.952 262.968 239.592 263.128ZM255.052 259.288H249.932V255.608H258.988V279H255.052V259.288ZM276.779 279H272.811V255.608H276.779L284.331 274.232L291.883 255.608H295.915V279H291.947V271.8C291.947 267.096 291.947 265.72 292.171 264.056L286.219 279H282.443L276.523 264.088C276.747 265.496 276.779 267.704 276.779 270.616V279ZM302.468 260.024C301.124 260.024 300.068 258.968 300.068 257.656C300.068 256.344 301.124 255.32 302.468 255.32C303.748 255.32 304.804 256.344 304.804 257.656C304.804 258.968 303.748 260.024 302.468 260.024ZM300.516 279V263.192H304.42V279H300.516ZM312.39 279H308.518V255.192H312.39V279ZM320.421 279H316.549V255.192H320.421V279ZM326.468 260.024C325.124 260.024 324.068 258.968 324.068 257.656C324.068 256.344 325.124 255.32 326.468 255.32C327.748 255.32 328.804 256.344 328.804 257.656C328.804 258.968 327.748 260.024 326.468 260.024ZM324.516 279V263.192H328.42V279H324.516ZM331.526 271.064C331.526 266.136 335.078 262.744 339.974 262.744C344.87 262.744 348.422 266.136 348.422 271.064C348.422 275.992 344.87 279.384 339.974 279.384C335.078 279.384 331.526 275.992 331.526 271.064ZM335.43 271.064C335.43 273.944 337.286 275.896 339.974 275.896C342.662 275.896 344.518 273.944 344.518 271.064C344.518 268.184 342.662 266.232 339.974 266.232C337.286 266.232 335.43 268.184 335.43 271.064ZM355.42 279H351.516V263.192H355.132L355.452 265.24C356.444 263.64 358.364 262.712 360.508 262.712C364.476 262.712 366.524 265.176 366.524 269.272V279H362.62V270.2C362.62 267.544 361.308 266.264 359.292 266.264C356.892 266.264 355.42 267.928 355.42 270.488V279Z" fill="#F0F3FA"/>
<path d="M207.15 315.484C207.15 319.444 204.558 322.216 200.868 322.216C197.196 322.216 194.64 319.444 194.64 315.484C194.64 311.542 197.214 308.752 200.886 308.752C204.576 308.752 207.15 311.524 207.15 315.484ZM205.296 315.484C205.296 312.46 203.532 310.462 200.886 310.462C198.24 310.462 196.494 312.46 196.494 315.484C196.494 318.508 198.24 320.524 200.886 320.524C203.532 320.524 205.296 318.49 205.296 315.484ZM209.119 325.942V313.198H210.649L210.775 314.782C211.369 313.576 212.557 312.946 213.961 312.946C216.481 312.946 218.047 314.836 218.047 317.536C218.047 320.218 216.571 322.234 213.961 322.234C212.557 322.234 211.387 321.64 210.811 320.56V325.942H209.119ZM210.829 317.608C210.829 319.408 211.873 320.704 213.601 320.704C215.329 320.704 216.355 319.408 216.355 317.608C216.355 315.79 215.329 314.494 213.601 314.494C211.873 314.494 210.829 315.772 210.829 317.608ZM223.71 322.216C221.118 322.216 219.336 320.344 219.336 317.608C219.336 314.854 221.082 312.946 223.638 312.946C226.14 312.946 227.777 314.674 227.777 317.284V317.914L220.974 317.932C221.1 319.786 222.072 320.812 223.746 320.812C225.06 320.812 225.924 320.272 226.212 319.264H227.796C227.364 321.154 225.888 322.216 223.71 322.216ZM223.638 314.368C222.162 314.368 221.226 315.25 221.01 316.798H226.086C226.086 315.34 225.132 314.368 223.638 314.368ZM231.359 322H229.667V313.198H231.197L231.377 314.548C231.935 313.54 233.051 312.946 234.293 312.946C236.615 312.946 237.677 314.368 237.677 316.618V322H235.985V316.996C235.985 315.214 235.157 314.494 233.861 314.494C232.277 314.494 231.359 315.628 231.359 317.338V322ZM245.771 322H243.935L248.687 308.986H250.649L255.419 322H253.565L252.395 318.76H246.923L245.771 322ZM249.443 311.794L247.463 317.23H251.873L249.875 311.794C249.785 311.542 249.695 311.236 249.659 311.038C249.623 311.218 249.533 311.524 249.443 311.794ZM258.913 308.986V322H257.149V308.986H258.913ZM270.379 322.216C267.787 322.216 266.005 320.344 266.005 317.608C266.005 314.854 267.751 312.946 270.307 312.946C272.809 312.946 274.447 314.674 274.447 317.284V317.914L267.643 317.932C267.769 319.786 268.741 320.812 270.415 320.812C271.729 320.812 272.593 320.272 272.881 319.264H274.465C274.033 321.154 272.557 322.216 270.379 322.216ZM270.307 314.368C268.831 314.368 267.895 315.25 267.679 316.798H272.755C272.755 315.34 271.801 314.368 270.307 314.368ZM278.029 322H276.337V313.198H277.849L278.011 314.35C278.461 313.522 279.397 312.946 280.639 312.946C282.007 312.946 282.979 313.63 283.429 314.728C283.843 313.63 284.905 312.946 286.273 312.946C288.289 312.946 289.513 314.206 289.513 316.24V322H287.857V316.654C287.857 315.268 287.083 314.476 285.895 314.476C284.617 314.476 283.771 315.376 283.771 316.78V322H282.097V316.636C282.097 315.25 281.341 314.494 280.153 314.494C278.875 314.494 278.029 315.376 278.029 316.78V322ZM293.389 322H291.859V308.752H293.551V314.71C294.127 313.558 295.315 312.946 296.755 312.946C299.275 312.946 300.787 314.926 300.787 317.644C300.787 320.308 299.203 322.216 296.647 322.216C295.261 322.216 294.091 321.604 293.515 320.398L293.389 322ZM293.569 317.572C293.569 319.408 294.613 320.686 296.341 320.686C298.069 320.686 299.095 319.39 299.095 317.572C299.095 315.772 298.069 314.476 296.341 314.476C294.613 314.476 293.569 315.772 293.569 317.572ZM306.45 322.216C303.858 322.216 302.076 320.344 302.076 317.608C302.076 314.854 303.822 312.946 306.378 312.946C308.88 312.946 310.518 314.674 310.518 317.284V317.914L303.714 317.932C303.84 319.786 304.812 320.812 306.486 320.812C307.8 320.812 308.664 320.272 308.952 319.264H310.536C310.104 321.154 308.628 322.216 306.45 322.216ZM306.378 314.368C304.902 314.368 303.966 315.25 303.75 316.798H308.826C308.826 315.34 307.872 314.368 306.378 314.368ZM315.936 322.216C313.38 322.216 311.832 320.308 311.832 317.626C311.832 314.926 313.398 312.946 316.008 312.946C317.358 312.946 318.492 313.54 319.086 314.62V308.752H320.76V322H319.248L319.104 320.398C318.528 321.604 317.34 322.216 315.936 322.216ZM316.278 320.686C318.006 320.686 319.068 319.408 319.068 317.572C319.068 315.772 318.006 314.476 316.278 314.476C314.55 314.476 313.542 315.772 313.542 317.572C313.542 319.39 314.55 320.686 316.278 320.686ZM326.729 322.216C324.173 322.216 322.625 320.308 322.625 317.626C322.625 314.926 324.191 312.946 326.801 312.946C328.151 312.946 329.285 313.54 329.879 314.62V308.752H331.553V322H330.041L329.897 320.398C329.321 321.604 328.133 322.216 326.729 322.216ZM327.071 320.686C328.799 320.686 329.861 319.408 329.861 317.572C329.861 315.772 328.799 314.476 327.071 314.476C325.343 314.476 324.335 315.772 324.335 317.572C324.335 319.39 325.343 320.686 327.071 320.686ZM334.822 311.11C334.21 311.11 333.706 310.606 333.706 309.994C333.706 309.364 334.21 308.878 334.822 308.878C335.434 308.878 335.938 309.364 335.938 309.994C335.938 310.606 335.434 311.11 334.822 311.11ZM333.994 322V313.198H335.686V322H333.994ZM339.834 322H338.142V313.198H339.672L339.852 314.548C340.41 313.54 341.526 312.946 342.768 312.946C345.09 312.946 346.152 314.368 346.152 316.618V322H344.46V316.996C344.46 315.214 343.632 314.494 342.336 314.494C340.752 314.494 339.834 315.628 339.834 317.338V322ZM347.937 317.374C347.937 314.89 349.539 312.946 352.095 312.946C353.517 312.946 354.615 313.594 355.173 314.692L355.299 313.198H356.811V321.64C356.811 324.412 355.101 326.176 352.401 326.176C350.007 326.176 348.369 324.826 348.045 322.594H349.737C349.953 323.89 350.925 324.646 352.401 324.646C354.057 324.646 355.137 323.566 355.137 321.892V320.128C354.561 321.154 353.409 321.766 352.023 321.766C349.521 321.766 347.937 319.84 347.937 317.374ZM349.629 317.338C349.629 318.994 350.655 320.29 352.311 320.29C354.021 320.29 355.065 319.066 355.065 317.338C355.065 315.646 354.057 314.422 352.329 314.422C350.637 314.422 349.629 315.718 349.629 317.338ZM358.533 319.444H360.153C360.153 320.344 360.837 320.884 361.953 320.884C363.141 320.884 363.825 320.398 363.825 319.588C363.825 318.994 363.537 318.634 362.619 318.4L361.071 318.04C359.505 317.662 358.767 316.888 358.767 315.592C358.767 313.972 360.135 312.946 362.079 312.946C364.005 312.946 365.265 314.026 365.301 315.7H363.681C363.645 314.818 363.051 314.26 362.025 314.26C360.963 314.26 360.369 314.728 360.369 315.538C360.369 316.132 360.801 316.528 361.665 316.744L363.213 317.122C364.707 317.482 365.445 318.166 365.445 319.48C365.445 321.154 364.005 322.216 361.917 322.216C359.847 322.216 358.533 321.118 358.533 319.444Z" fill="#F0F3FA"/>
</g>
<rect x="0.5" y="0.5" width="559" height="399" rx="7.5" stroke="#161E33"/>
<defs>
<filter id="filter0_f_724_2099" x="291.098" y="-431.813" width="933.572" height="753.913" filterUnits="userSpaceOnUse" color-interpolation-filters="sRGB">
<feFlood flood-opacity="0" result="BackgroundImageFix"/>
<feBlend mode="normal" in="SourceGraphic" in2="BackgroundImageFix" result="shape"/>
<feGaussianBlur stdDeviation="80" result="effect1_foregroundBlur_724_2099"/>
</filter>
<filter id="filter1_f_724_2099" x="-229.783" y="76.3669" width="933.572" height="753.913" filterUnits="userSpaceOnUse" color-interpolation-filters="sRGB">
<feFlood flood-opacity="0" result="BackgroundImageFix"/>
<feBlend mode="normal" in="SourceGraphic" in2="BackgroundImageFix" result="shape"/>
<feGaussianBlur stdDeviation="80" result="effect1_foregroundBlur_724_2099"/>
</filter>
<linearGradient id="paint0_linear_724_2099" x1="714.099" y1="60.0625" x2="649.918" y2="110.878" gradientUnits="userSpaceOnUse">
<stop stop-color="#DC244C"/>
<stop offset="0.446034" stop-color="#F54C71"/>
<stop offset="1" stop-color="#4A16B1"/>
</linearGradient>
<linearGradient id="paint1_linear_724_2099" x1="193.218" y1="568.242" x2="129.037" y2="619.058" gradientUnits="userSpaceOnUse">
<stop stop-color="#DC244C"/>
<stop offset="0.446034" stop-color="#F54C71"/>
<stop offset="1" stop-color="#4A16B1"/>
</linearGradient>
<linearGradient id="paint2_linear_724_2099" x1="281.058" y1="94" x2="281.058" y2="213.333" gradientUnits="userSpaceOnUse">
<stop stop-color="#F45C84"/>
<stop offset="0.472198" stop-color="#CC2150"/>
<stop offset="1" stop-color="#7335F0"/>
</linearGradient>
<clipPath id="clip0_724_2099">
<rect width="560" height="400" rx="8" fill="white"/>
</clipPath>
</defs>
</svg>
