<svg width="1440" height="408" viewBox="0 0 1440 408" fill="none" xmlns="http://www.w3.org/2000/svg">
<rect width="80" height="80" stroke="#D4D9E6"/>
<rect x="80" width="80" height="80" fill="url(#paint0_linear_13193_44264)" stroke="#D4D9E6"/>
<rect x="160" width="80" height="80" stroke="#D4D9E6"/>
<rect x="240" width="80" height="80" stroke="#D4D9E6"/>
<rect x="320" width="80" height="80" stroke="#D4D9E6"/>
<rect x="400" width="80" height="80" stroke="#D4D9E6"/>
<rect x="480" width="80" height="80" stroke="#D4D9E6"/>
<rect x="560" width="80" height="80" stroke="#D4D9E6"/>
<rect x="640" width="80" height="80" stroke="#D4D9E6"/>
<rect x="720" width="80" height="80" stroke="#D4D9E6"/>
<rect x="800" width="80" height="80" stroke="#D4D9E6"/>
<rect x="880" width="80" height="80" stroke="#D4D9E6"/>
<rect x="960" width="80" height="80" stroke="#D4D9E6"/>
<rect x="1040" width="80" height="80" stroke="#D4D9E6"/>
<rect x="1120" width="80" height="80" stroke="#D4D9E6"/>
<rect x="1200" width="80" height="80" fill="url(#paint1_linear_13193_44264)" stroke="#D4D9E6"/>
<rect x="1280" width="80" height="80" stroke="#D4D9E6"/>
<rect x="1360" width="80" height="80" stroke="#D4D9E6"/>
<rect y="80" width="80" height="80" stroke="#D4D9E6"/>
<rect x="80" y="80" width="80" height="80" stroke="#D4D9E6"/>
<rect x="160" y="80" width="80" height="80" stroke="#D4D9E6"/>
<rect x="240" y="80" width="80" height="80" fill="url(#paint2_linear_13193_44264)" stroke="#D4D9E6"/>
<rect x="320" y="80" width="80" height="80" stroke="#D4D9E6"/>
<rect x="400" y="80" width="80" height="80" stroke="#D4D9E6"/>
<rect x="480" y="80" width="80" height="80" stroke="#D4D9E6"/>
<rect x="560" y="80" width="80" height="80" stroke="#D4D9E6"/>
<rect x="640" y="80" width="80" height="80" stroke="#D4D9E6"/>
<rect x="720" y="80" width="80" height="80" stroke="#D4D9E6"/>
<rect x="800" y="80" width="80" height="80" stroke="#D4D9E6"/>
<rect x="880" y="80" width="80" height="80" stroke="#D4D9E6"/>
<rect x="960" y="80" width="80" height="80" stroke="#D4D9E6"/>
<rect x="1040" y="80" width="80" height="80" fill="url(#paint3_linear_13193_44264)" stroke="#D4D9E6"/>
<rect x="1120" y="80" width="80" height="80" stroke="#D4D9E6"/>
<rect x="1200" y="80" width="80" height="80" stroke="#D4D9E6"/>
<rect x="1280" y="80" width="80" height="80" stroke="#D4D9E6"/>
<rect x="1360" y="80" width="80" height="80" stroke="#D4D9E6"/>
<rect y="160" width="80" height="80" stroke="#D4D9E6"/>
<rect x="80" y="160" width="80" height="80" stroke="#D4D9E6"/>
<rect x="160" y="160" width="80" height="80" stroke="#D4D9E6"/>
<rect x="240" y="160" width="80" height="80" stroke="#D4D9E6"/>
<rect x="320" y="160" width="80" height="80" stroke="#D4D9E6"/>
<rect x="400" y="160" width="80" height="80" stroke="#D4D9E6"/>
<rect x="480" y="160" width="80" height="80" stroke="#D4D9E6"/>
<rect x="560" y="160" width="80" height="80" stroke="#D4D9E6"/>
<rect x="640" y="160" width="80" height="80" stroke="#D4D9E6"/>
<rect x="720" y="160" width="80" height="80" stroke="#D4D9E6"/>
<rect x="800" y="160" width="80" height="80" stroke="#D4D9E6"/>
<rect x="880" y="160" width="80" height="80" stroke="#D4D9E6"/>
<rect x="960" y="160" width="80" height="80" stroke="#D4D9E6"/>
<rect x="1040" y="160" width="80" height="80" stroke="#D4D9E6"/>
<rect x="1120" y="160" width="80" height="80" stroke="#D4D9E6"/>
<rect x="1200" y="160" width="80" height="80" stroke="#D4D9E6"/>
<rect x="1280" y="160" width="80" height="80" stroke="#D4D9E6"/>
<rect x="1360" y="160" width="80" height="80" stroke="#D4D9E6"/>
<rect y="240" width="80" height="80" stroke="#D4D9E6"/>
<rect x="80" y="240" width="80" height="80" stroke="#D4D9E6"/>
<rect x="160" y="240" width="80" height="80" fill="url(#paint4_linear_13193_44264)" stroke="#D4D9E6"/>
<rect x="240" y="240" width="80" height="80" stroke="#D4D9E6"/>
<rect x="320" y="240" width="80" height="80" stroke="#D4D9E6"/>
<rect x="400" y="240" width="80" height="80" stroke="#D4D9E6"/>
<rect x="480" y="240" width="80" height="80" stroke="#D4D9E6"/>
<rect x="560" y="240" width="80" height="80" stroke="#D4D9E6"/>
<rect x="640" y="240" width="80" height="80" stroke="#D4D9E6"/>
<rect x="720" y="240" width="80" height="80" stroke="#D4D9E6"/>
<rect x="800" y="240" width="80" height="80" stroke="#D4D9E6"/>
<rect x="880" y="240" width="80" height="80" stroke="#D4D9E6"/>
<rect x="960" y="240" width="80" height="80" stroke="#D4D9E6"/>
<rect x="1040" y="240" width="80" height="80" stroke="#D4D9E6"/>
<rect x="1120" y="240" width="80" height="80" stroke="#D4D9E6"/>
<rect x="1200" y="240" width="80" height="80" fill="url(#paint5_linear_13193_44264)" stroke="#D4D9E6"/>
<rect x="1280" y="240" width="80" height="80" stroke="#D4D9E6"/>
<rect x="1360" y="240" width="80" height="80" stroke="#D4D9E6"/>
<rect y="320" width="80" height="80" stroke="#D4D9E6"/>
<rect x="80" y="320" width="80" height="80" stroke="#D4D9E6"/>
<rect x="160" y="320" width="80" height="80" stroke="#D4D9E6"/>
<rect x="240" y="320" width="80" height="80" stroke="#D4D9E6"/>
<rect x="320" y="320" width="80" height="80" stroke="#D4D9E6"/>
<rect x="400" y="320" width="80" height="80" stroke="#D4D9E6"/>
<rect x="480" y="320" width="80" height="80" stroke="#D4D9E6"/>
<rect x="560" y="320" width="80" height="80" stroke="#D4D9E6"/>
<rect x="640" y="320" width="80" height="80" stroke="#D4D9E6"/>
<rect x="720" y="320" width="80" height="80" stroke="#D4D9E6"/>
<rect x="800" y="320" width="80" height="80" stroke="#D4D9E6"/>
<rect x="880" y="320" width="80" height="80" stroke="#D4D9E6"/>
<rect x="960" y="320" width="80" height="80" stroke="#D4D9E6"/>
<rect x="1040" y="320" width="80" height="80" fill="url(#paint6_linear_13193_44264)" stroke="#D4D9E6"/>
<rect x="1120" y="320" width="80" height="80" stroke="#D4D9E6"/>
<rect x="1200" y="320" width="80" height="80" stroke="#D4D9E6"/>
<rect x="1280" y="320" width="80" height="80" stroke="#D4D9E6"/>
<rect x="1360" y="320" width="80" height="80" stroke="#D4D9E6"/>
<rect y="408" width="135" height="1440" transform="rotate(-90 0 408)" fill="url(#paint7_linear_13193_44264)"/>
<rect x="-2" y="-8" width="240" height="416" fill="url(#paint8_linear_13193_44264)"/>
<rect x="1201" y="-8" width="240" height="416" fill="url(#paint9_linear_13193_44264)"/>
<defs>
<linearGradient id="paint0_linear_13193_44264" x1="120" y1="0" x2="120" y2="80" gradientUnits="userSpaceOnUse">
<stop stop-color="#F0F3FA" stop-opacity="0"/>
<stop offset="1" stop-color="#F0F3FA"/>
</linearGradient>
<linearGradient id="paint1_linear_13193_44264" x1="1240" y1="0" x2="1240" y2="80" gradientUnits="userSpaceOnUse">
<stop stop-color="#F0F3FA" stop-opacity="0"/>
<stop offset="1" stop-color="#F0F3FA"/>
</linearGradient>
<linearGradient id="paint2_linear_13193_44264" x1="280" y1="80" x2="280" y2="160" gradientUnits="userSpaceOnUse">
<stop stop-color="#F0F3FA" stop-opacity="0"/>
<stop offset="1" stop-color="#F0F3FA"/>
</linearGradient>
<linearGradient id="paint3_linear_13193_44264" x1="1080" y1="80" x2="1080" y2="160" gradientUnits="userSpaceOnUse">
<stop stop-color="#F0F3FA" stop-opacity="0"/>
<stop offset="1" stop-color="#F0F3FA"/>
</linearGradient>
<linearGradient id="paint4_linear_13193_44264" x1="200" y1="240" x2="200" y2="320" gradientUnits="userSpaceOnUse">
<stop stop-color="#F0F3FA" stop-opacity="0"/>
<stop offset="1" stop-color="#F0F3FA"/>
</linearGradient>
<linearGradient id="paint5_linear_13193_44264" x1="1240" y1="240" x2="1240" y2="320" gradientUnits="userSpaceOnUse">
<stop stop-color="#F0F3FA" stop-opacity="0"/>
<stop offset="1" stop-color="#F0F3FA"/>
</linearGradient>
<linearGradient id="paint6_linear_13193_44264" x1="1080" y1="320" x2="1080" y2="400" gradientUnits="userSpaceOnUse">
<stop stop-color="#F0F3FA" stop-opacity="0"/>
<stop offset="1" stop-color="#F0F3FA"/>
</linearGradient>
<linearGradient id="paint7_linear_13193_44264" x1="0" y1="1128" x2="135" y2="1128" gradientUnits="userSpaceOnUse">
<stop offset="0.32" stop-color="#E1E5F0"/>
<stop offset="1" stop-color="#E1E5F0" stop-opacity="0"/>
</linearGradient>
<linearGradient id="paint8_linear_13193_44264" x1="-2" y1="200" x2="238" y2="200" gradientUnits="userSpaceOnUse">
<stop offset="0.32" stop-color="#E1E5F0"/>
<stop offset="1" stop-color="#E1E5F0" stop-opacity="0"/>
</linearGradient>
<linearGradient id="paint9_linear_13193_44264" x1="1441" y1="200" x2="1201" y2="200" gradientUnits="userSpaceOnUse">
<stop offset="0.387879" stop-color="#E1E5F0"/>
<stop offset="1" stop-color="#E1E5F0" stop-opacity="0"/>
</linearGradient>
</defs>
</svg>
