<svg width="1288" height="527" viewBox="0 0 1288 527" fill="none" xmlns="http://www.w3.org/2000/svg">
<g clip-path="url(#clip0_2095_31306)">
<path d="M1195.5 624.5C1195.5 919.958 948.599 1159.5 644 1159.5C339.401 1159.5 92.5 919.958 92.5 624.5C92.5 329.042 339.401 89.5 644 89.5C948.599 89.5 1195.5 329.042 1195.5 624.5Z" stroke="#161E33"/>
<path d="M1287.5 625C1287.5 969.888 999.409 1249.5 644 1249.5C288.591 1249.5 0.5 969.888 0.5 625C0.5 280.112 288.591 0.5 644 0.5C999.409 0.5 1287.5 280.112 1287.5 625Z" stroke="#161E33"/>
<path d="M1103.5 625C1103.5 871.028 897.789 1070.5 644 1070.5C390.21 1070.5 184.5 871.028 184.5 625C184.5 378.972 390.21 179.5 644 179.5C897.789 179.5 1103.5 378.972 1103.5 625Z" stroke="#161E33"/>
<g filter="url(#filter0_f_2095_31306)">
<circle cx="644.001" cy="365.333" r="133.333" fill="#DC244C"/>
</g>
<g filter="url(#filter1_f_2095_31306)">
<circle cx="644.001" cy="738.667" r="133.333" fill="#008A53"/>
</g>
<g filter="url(#filter2_f_2095_31306)">
<circle cx="830.665" cy="556.445" r="133.333" fill="#2F6FF0"/>
</g>
<g filter="url(#filter3_f_2095_31306)">
<circle cx="457.333" cy="556.445" r="133.333" fill="#DC244C"/>
</g>
<g filter="url(#filter4_f_2095_31306)">
<circle cx="510.665" cy="418.667" r="133.333" fill="#DC244C"/>
</g>
<g filter="url(#filter5_f_2095_31306)">
<circle cx="777.333" cy="418.667" r="133.333" fill="#8547FF"/>
</g>
<g filter="url(#filter6_f_2095_31306)">
<circle cx="777.333" cy="685.333" r="133.333" fill="#038585"/>
</g>
<g filter="url(#filter7_f_2095_31306)">
<circle cx="510.665" cy="685.333" r="133.333" fill="#FF8D39"/>
</g>
<g clip-path="url(#clip1_2095_31306)">
<path d="M244.432 649.408C222.823 127.784 1019.07 91.8476 1043.99 615.222C1046.59 1132.31 283.419 1154.7 244.432 649.408Z" fill="#020713"/>
<path d="M244.432 649.408C222.823 127.784 1019.07 91.8476 1043.99 615.222C1046.59 1132.31 283.419 1154.7 244.432 649.408Z" fill="black" fill-opacity="0.2"/>
<path opacity="0.03" d="M273.987 473.122C276.728 466.35 280.084 458.962 283.665 451.686C284.504 449.895 285.399 448.16 286.294 446.425C286.63 445.753 287.022 445.082 287.357 444.41C288.364 442.451 289.371 440.492 290.378 438.59C295.693 428.571 301.287 419.169 306.994 410.27C308.84 407.359 310.686 404.505 312.644 401.651C312.868 401.315 313.147 400.923 313.371 400.587C314.77 398.573 316.112 396.614 317.511 394.655C318.798 392.808 320.084 391.129 321.427 389.338C350.014 376.017 385.539 364.04 445.007 357.548C450.77 356.932 456.756 356.261 461.791 356.317C472.14 356.429 474.658 359.451 472.196 362.529C465.259 371.148 430.91 380.103 416.196 389.058C400.476 398.628 409.427 406.688 400.252 415.979C393.651 422.695 378.098 429.691 362.77 436.519C331.385 450.455 301.455 464.503 271.805 478.551C272.532 476.704 273.259 474.857 274.098 473.01L273.987 473.122ZM1040.64 680.371C1040.64 680.371 1040.64 680.035 1040.7 679.811C1041.03 677.293 1041.37 674.606 1041.65 671.808C1041.82 670.129 1041.99 668.394 1042.15 666.715C1042.15 666.155 1042.27 665.595 1042.32 665.036C1042.77 660.11 1043.22 655.073 1043.5 649.868C1043.89 644.048 1044 637.611 1044 630.951C1044 628.209 1044 625.41 1044 622.612V618.526C1044 617.295 1043.89 615.952 1043.83 614.664C1043.55 606.549 1043.1 598.602 1042.49 591.382C1042.49 590.822 1042.43 590.207 1042.38 589.647C1042.1 586.289 1041.71 582.651 1041.26 578.957C971.385 592.725 900.112 606.493 838.35 622.164C737.818 647.686 660.504 679.195 556.448 703.541C471.245 723.466 375.189 736.898 283.553 753.017C277.008 754.192 270.518 755.424 263.973 756.599C271.805 780.217 283.441 806.858 300.672 834.842C301.903 836.913 303.077 838.872 304.252 840.663C305.707 843.069 307.329 845.588 309.008 848.107C311.637 852.136 314.378 856.166 317.175 860.14C358.63 846.483 400.308 832.883 443.777 819.843C478.014 809.545 514.993 799.135 557.063 792.251C598.797 785.422 641.091 782.68 683.329 777.867C816.979 762.532 937.986 727.552 1033.59 693.411C1035.44 692.74 1037.29 692.068 1039.08 691.396C1039.58 687.926 1040.08 684.512 1040.53 681.042C1040.53 680.819 1040.53 680.595 1040.59 680.371H1040.64ZM701.287 1025.58C655.245 1025.13 619.553 1020.04 604.112 1009.8C598.406 1006.05 594.826 1001.57 581.623 999.891C565.287 997.765 537.986 1000.84 512.084 1006.27C514.434 1007.11 516.784 1007.84 519.861 1008.85C520.084 1008.9 520.364 1009.01 520.588 1009.07C521.483 1009.35 522.378 1009.63 523.441 1009.97C523.944 1010.13 524.504 1010.3 525.007 1010.47C525.119 1010.47 525.175 1010.47 525.287 1010.53C530.77 1012.26 537.483 1014.28 542.742 1015.51H542.909C542.909 1015.51 543.189 1015.62 543.357 1015.67L548.616 1017.02L550.014 1017.3C553.147 1018.02 556.112 1018.7 558.965 1019.31C559.469 1019.42 559.972 1019.54 560.476 1019.65C560.979 1019.76 561.483 1019.87 562.042 1019.98C562.434 1020.04 562.881 1020.15 563.273 1020.21C570.49 1021.77 574.742 1022.56 581.455 1023.51C581.846 1023.57 586.993 1024.41 594.937 1025.41C595.049 1025.41 595.105 1025.41 595.217 1025.41C597.063 1025.64 599.077 1025.86 601.203 1026.08C601.203 1026.08 601.315 1026.08 601.371 1026.08C603.049 1026.25 604.839 1026.42 606.63 1026.59C607.972 1026.7 609.259 1026.81 610.546 1026.92C614.014 1027.2 617.371 1027.48 620.616 1027.65C621.231 1027.65 621.902 1027.71 622.518 1027.76C622.574 1027.76 622.686 1027.76 622.742 1027.76C648.14 1029.95 674.49 1029.27 701.119 1025.47L701.287 1025.58ZM957.343 877.042C958.797 875.251 960.308 873.404 961.874 871.389C962.322 870.773 962.769 870.158 963.273 869.542C964.336 868.143 965.343 866.8 966.35 865.401C972.168 857.565 977.65 849.562 982.853 841.446C942.238 859.916 873.259 878.721 804.28 891.705C688.252 913.589 563.553 926.741 449.091 949.688C437.511 951.983 425.819 954.501 415.581 957.3C427.497 965.527 441.427 974.202 457.651 982.653C457.819 982.765 457.986 982.821 458.154 982.933C461.119 984.5 464.196 986.011 467.273 987.522C488.14 986.571 510.462 984.668 532.28 982.541C644.672 971.684 759.692 955.453 869.287 934.913C883.049 932.338 896.699 929.708 910.294 926.965C926.965 912.134 942.853 895.567 957.399 877.042H957.343ZM381.959 900.269C372.728 901.836 363.497 903.347 354.266 904.858C358.294 909.112 361.931 912.749 364.56 915.156C365.679 916.163 366.742 917.171 367.805 918.178C370.882 921.089 373.959 923.943 377.091 926.797C588.168 890.642 795.273 849.897 1001.26 809.209C1006.07 799.75 1010.55 790.068 1014.57 780.273C953.594 791.131 892.224 801.821 832.028 813.127C680.923 841.446 535.301 874.02 381.959 900.325V900.269ZM1016.36 479.726C1000.87 440.436 978.937 403.778 951.021 370.812C941.566 359.451 933.734 351.28 927.301 344.899L926.965 344.564C926.965 344.564 926.741 344.34 926.629 344.228C926.518 344.116 926.35 344.004 926.238 343.836C787.497 338.967 641.259 348.257 480.42 407.751C405.343 435.511 441.203 461.257 415.972 489.185C390.014 517.952 278.686 544.873 246.966 571.905C245.847 579.796 244.952 587.52 244.336 594.964C252.56 601.4 264.644 607.724 243.161 616.288C242.938 624.907 242.938 633.246 243.217 641.137C243.329 644.216 243.441 647.406 243.609 650.596C243.609 650.988 243.609 651.379 243.665 651.715C244.728 670.297 247.301 690.445 251.945 711.825C330.434 696.881 406.294 679.419 475.833 661.733C690.154 607.277 881.035 544.425 1016.36 479.782V479.726ZM573.063 311.375C558.574 316.859 571.497 323.184 593.091 324.751C614.686 326.318 641.035 324.527 665.483 322.4C736.196 316.356 805.455 307.905 870.462 297.439C863.581 292.737 856.028 287.868 847.748 282.943C846.741 282.327 845.734 281.768 844.671 281.208C842.042 279.697 839.413 278.13 836.615 276.619C834.098 275.219 831.581 273.932 829.007 272.589C756.839 284.006 682.658 294.64 608.308 304.602C595.161 306.337 581.175 308.296 573.063 311.375ZM402.993 317.923C415.637 314.509 427.497 311.878 435.497 306.841C511.301 259.101 602.602 241.639 665.651 227.591C661.119 227.367 656.7 227.199 652.448 227.143C612.616 226.08 573.623 230.949 535.693 241.806C528.084 243.877 520.868 246.172 513.875 248.635C513.819 248.635 513.707 248.691 513.651 248.691C504.756 251.769 496.252 255.071 488.084 258.597C485.399 259.716 482.77 260.836 479.972 262.067C478.014 262.906 475.889 263.914 473.763 264.921C473.651 264.921 473.539 265.033 473.427 265.089C473.427 265.089 473.371 265.089 473.315 265.145C469.791 266.824 466.098 268.615 462.462 270.462C462.406 270.462 462.294 270.518 462.238 270.574C454.686 274.324 444.84 279.865 437.623 284.174C434.937 285.797 431.972 287.7 428.952 289.659C423.357 293.073 417.931 296.599 413.399 299.901C412.336 300.685 411.161 301.468 410.042 302.308C410.154 302.196 410.322 302.084 410.434 301.972C410.098 302.196 409.819 302.42 409.539 302.644C401.986 308.072 393.483 314.565 383.861 322.736C390.406 321.225 396.784 319.602 402.938 317.979L402.993 317.923ZM629.511 269.399C642.266 274.66 703.301 270.294 798.462 258.205C793.259 255.91 788.895 254.231 782.853 252.049C782.294 251.825 781.623 251.601 780.951 251.321C775.189 249.138 771.664 248.019 763.832 245.5C763.832 245.5 763.832 245.5 763.776 245.5C763.329 245.332 762.769 245.165 762.322 245.053C762.21 245.053 762.154 244.997 762.042 244.941C757.231 243.43 751.581 241.751 746.714 240.519C739.329 238.56 732.504 236.993 725.678 235.538C725.567 235.538 725.511 235.538 725.399 235.538C725.399 235.538 725.343 235.538 725.287 235.538L722.434 234.978C717.678 234.027 713.035 233.187 708.448 232.404C647.245 249.25 613.79 262.962 629.679 269.455L629.511 269.399Z" fill="#D9E2FE"/>
<g opacity="0.1" filter="url(#filter8_f_2095_31306)">
<path d="M998 428C998 468.451 820.731 347 644 347C467.269 347 285.5 468.451 285.5 428C285.5 387.549 467.269 240 644 240C820.731 240 998 387.549 998 428Z" fill="#2F6FF0"/>
</g>
<g opacity="0.8" filter="url(#filter9_f_2095_31306)">
<path d="M895 261C895 293.309 784.862 249 649 249C513.138 249 403 293.309 403 261C403 228.691 513.138 145 649 145C784.862 145 895 228.691 895 261Z" fill="#B99AFF"/>
</g>
</g>
<g clip-path="url(#clip2_2095_31306)">
<rect x="940" y="367" width="176" height="80" rx="9" fill="#161E33"/>
<path fill-rule="evenodd" clip-rule="evenodd" d="M1030.3 408.943L1028.98 409.903C1030.1 411.862 1032.06 413.102 1034.34 413.061C1037.09 413.061 1039.13 411.422 1039.13 408.943C1039.13 406.943 1037.85 405.864 1035.7 404.824L1034.06 404.025L1033.99 403.992C1032.7 403.368 1031.7 402.882 1031.7 401.546C1031.7 400.067 1032.98 399.387 1034.34 399.387C1035.7 399.387 1036.94 400.066 1037.73 401.266L1039.01 400.306C1038.1 398.826 1036.42 397.787 1034.38 397.787C1031.98 397.787 1029.9 399.305 1029.9 401.625C1029.9 403.824 1031.7 404.824 1033.26 405.584L1034.94 406.383C1036.42 407.064 1037.41 407.624 1037.41 408.983C1037.41 410.502 1036.18 411.462 1034.42 411.462C1032.54 411.462 1031.18 410.302 1030.3 408.943ZM1050.45 406.385H1043.53C1043.93 404.504 1045.37 403.266 1047.21 403.225C1048.93 403.225 1050.41 404.345 1050.45 406.385ZM1043.49 407.903H1052.13C1052.17 407.704 1052.25 407.184 1052.29 406.581C1052.29 403.703 1050.09 401.664 1047.29 401.664C1044.13 401.664 1041.7 404.183 1041.7 407.382C1041.7 410.622 1044.21 413.101 1047.49 413.101C1049.25 413.101 1050.77 412.342 1051.85 411.182L1050.85 410.022C1049.93 410.902 1048.85 411.502 1047.49 411.502C1045.37 411.502 1043.73 410.062 1043.49 407.903ZM1064.33 412.861V405.984C1064.33 403.465 1062.85 401.665 1060.25 401.705C1058.85 401.705 1057.69 402.225 1056.89 403.105V401.945H1055.29V412.861H1057.01V406.184C1057.01 404.464 1058.21 403.264 1059.89 403.264C1061.57 403.264 1062.61 404.464 1062.61 406.184V412.861H1064.33ZM1068.05 409.823L1066.97 410.982C1067.85 412.142 1069.29 413.102 1071.21 413.101C1073.25 413.101 1075.05 412.02 1075.05 409.902C1075.05 408.343 1074.13 407.503 1072.17 406.663L1071.17 406.224C1069.97 405.704 1069.41 405.384 1069.41 404.625C1069.41 403.745 1070.17 403.266 1071.21 403.266C1072.21 403.266 1073.17 403.706 1073.89 404.466L1074.92 403.386C1074.09 402.347 1072.84 401.667 1071.29 401.667C1069.29 401.667 1067.61 402.746 1067.61 404.705C1067.61 406.264 1068.65 407.064 1070.33 407.744L1071.37 408.183C1072.48 408.624 1073.28 408.983 1073.28 409.943C1073.28 410.942 1072.36 411.502 1071.2 411.502C1069.85 411.502 1068.92 410.783 1068.05 409.823ZM1086.16 406.385H1079.24C1079.64 404.504 1081.08 403.266 1082.92 403.225C1084.64 403.225 1086.12 404.345 1086.16 406.385ZM1079.2 407.903H1087.84C1087.88 407.704 1087.96 407.184 1088 406.581C1088 403.703 1085.8 401.664 1083 401.664C1079.84 401.664 1077.4 404.183 1077.4 407.382C1077.4 410.622 1079.92 413.101 1083.2 413.101C1084.96 413.101 1086.48 412.342 1087.56 411.182L1086.56 410.022C1085.64 410.902 1084.56 411.502 1083.2 411.502C1081.08 411.502 1079.44 410.062 1079.2 407.903ZM968 412.861L974.637 397.787H975.636L982.234 412.861H978.995L978.156 410.942H972.078L971.238 412.861H968ZM977.077 408.423L975.118 403.425L973.119 408.423H977.077ZM995.87 404.224C997.47 404.224 998.749 405.424 998.749 407.303C998.749 409.184 997.43 410.382 995.87 410.342C994.47 410.342 993.071 409.382 993.071 407.263C993.071 405.145 994.47 404.224 995.87 404.224ZM993.111 411.782C993.911 412.662 995.07 413.141 996.43 413.141C999.589 413.141 1001.83 410.662 1001.83 407.303C1001.83 403.945 999.589 401.506 996.43 401.506C994.911 401.506 993.631 402.106 992.871 403.145V401.746H990.072V416.979H993.111V411.782ZM1023.62 408.582V408.703C1023.62 410.023 1022.54 410.902 1021.3 410.902C1020.34 410.902 1019.7 410.461 1019.7 409.702C1019.7 408.983 1020.26 408.582 1021.26 408.582H1023.62ZM1026.62 412.861V406.264C1026.62 403.105 1024.7 401.506 1021.82 401.507C1019.86 401.507 1018.3 402.228 1016.98 403.787L1018.54 405.666C1019.46 404.705 1020.3 404.145 1021.5 404.145C1022.9 404.145 1023.58 404.905 1023.58 406.105V406.584H1020.78C1018.22 406.584 1016.58 407.783 1016.58 409.823C1016.58 411.702 1017.98 413.141 1020.42 413.141C1021.86 413.141 1023.02 412.622 1023.82 411.782V412.861H1026.62ZM987.074 412.861H984.035V397.787H987.074V412.861ZM1007.23 402.706C1007.95 401.945 1009.03 401.506 1010.27 401.506C1012.82 401.506 1014.42 403.306 1014.42 405.984V412.863H1011.43V406.385C1011.43 405.066 1010.58 404.226 1009.35 404.226C1008.11 404.226 1007.23 405.106 1007.23 406.385V412.863H1004.19V397.788H1007.23V402.706ZM968 415.301H987.074V416.981H968V415.301Z" fill="#F0F3FA"/>
<g opacity="0.4" filter="url(#filter10_f_2095_31306)">
<ellipse cx="1068" cy="367" rx="72" ry="24" fill="#DC244C"/>
</g>
</g>
<g clip-path="url(#clip3_2095_31306)">
<rect x="172" y="367" width="176" height="80" rx="9" fill="#161E33"/>
<path fill-rule="evenodd" clip-rule="evenodd" d="M319.947 395.899L319.946 395.902C319.968 395.974 319.95 396.014 319.892 396.028C318.724 396.032 317.554 396.028 316.384 396.024L316.384 396.024C315.583 396.021 314.783 396.018 313.983 396.018C313.585 396.018 313.187 396.019 312.789 396.019L312.789 396.019C311.993 396.02 311.199 396.021 310.405 396.018C307.88 396.021 305.356 396.02 302.833 396.019H302.833H302.832C301.57 396.019 300.309 396.018 299.048 396.018C299.027 396.018 299.006 396.018 298.986 396.019C298.91 396.02 298.836 396.022 298.763 396.004L298.731 396.018C297.339 396.021 295.948 396.02 294.558 396.019H294.557H294.557C293.861 396.019 293.166 396.018 292.469 396.018C291.632 396.032 290.796 396.031 289.96 396.029H289.96C289.393 396.029 288.827 396.028 288.26 396.032C288.238 396.025 288.22 396.021 288.206 396.018C288.188 396.015 288.177 396.012 288.17 396.006C288.158 395.994 288.158 395.97 288.158 395.906C288.158 395.775 288.254 395.664 288.361 395.599C288.698 395.382 289.028 395.154 289.359 394.926L289.359 394.926C289.613 394.751 289.864 394.573 290.123 394.39L290.123 394.389C290.239 394.307 290.356 394.224 290.476 394.14C290.741 393.953 291.012 393.773 291.282 393.593L291.283 393.593L291.283 393.592C291.428 393.496 291.572 393.4 291.716 393.303C291.827 393.231 291.938 393.157 292.031 393.063C292.015 393.029 291.999 392.994 291.983 392.958V392.958C291.909 392.794 291.832 392.624 291.656 392.555C291.466 392.478 291.271 392.416 291.076 392.355C291.028 392.339 290.973 392.326 290.916 392.313C290.701 392.261 290.458 392.203 290.434 391.997L290.441 391.988C290.478 391.931 290.519 391.871 290.591 391.858C290.876 391.748 291.163 391.641 291.449 391.533L291.45 391.533L291.452 391.532C291.739 391.424 292.027 391.316 292.313 391.206C292.35 391.198 292.387 391.185 292.423 391.173L292.423 391.173C292.483 391.153 292.543 391.132 292.604 391.13H315.465C315.644 391.157 315.827 391.202 315.993 391.283C316.2 391.36 316.408 391.438 316.615 391.517L316.616 391.517C316.941 391.64 317.266 391.762 317.594 391.88C317.732 391.98 317.568 392.171 317.407 392.227C317.292 392.267 317.176 392.304 317.061 392.342L317.06 392.342C316.856 392.409 316.653 392.475 316.454 392.553C316.074 392.703 316.074 392.886 316.074 393.056C316.174 393.156 316.289 393.232 316.404 393.307C316.815 393.575 317.225 393.855 317.635 394.138C317.949 394.355 318.239 394.562 318.523 394.765L318.524 394.765C318.801 394.963 319.071 395.155 319.35 395.348C319.413 395.392 319.484 395.428 319.554 395.463L319.554 395.463C319.746 395.561 319.934 395.657 319.947 395.899ZM297.258 394.38C297.745 394.497 298.277 394.084 298.273 393.577H298.274C298.315 393.06 297.766 392.62 297.273 392.736C297.017 392.795 296.777 392.966 296.687 393.217C296.562 393.477 296.597 393.797 296.753 394.034C296.873 394.209 297.061 394.313 297.258 394.38ZM310.05 394.116C310.309 394.39 310.739 394.48 311.079 394.291C311.464 394.089 311.616 393.568 311.419 393.182C311.321 392.958 311.098 392.809 310.869 392.742C310.564 392.661 310.238 392.791 310.033 393.021C309.769 393.321 309.786 393.816 310.05 394.116ZM221.707 399.917C222.356 399.819 223.101 399.757 223.651 400.163C223.994 400.421 224.116 400.887 224.092 401.305C224.116 401.992 223.798 402.73 223.187 403.085C222.648 403.38 222.001 403.405 221.402 403.344C220.998 403.294 220.596 403.073 220.387 402.706C219.922 401.637 220.498 400.126 221.708 399.917H221.707ZM202.312 400.692C202.349 400.323 202.679 399.992 203.058 400.005C203.998 400.005 204.936 400.006 205.874 400.007H205.875H205.876H205.877H205.878H205.879H205.879H205.88H205.881H205.882H205.883H205.883H205.883H205.883H205.883H205.883H205.883H205.883H205.883C207.761 400.01 209.634 400.013 211.507 400.005C211.813 399.98 212.143 400.115 212.29 400.386C212.438 400.649 212.387 400.93 212.337 401.208C212.317 401.32 212.297 401.431 212.29 401.54C212.276 401.623 212.265 401.711 212.254 401.801C212.195 402.265 212.132 402.776 211.63 402.941C210.421 402.977 209.213 402.97 208.004 402.964C207.158 402.959 206.312 402.955 205.466 402.965C205.376 403.559 205.29 404.15 205.203 404.739L205.203 404.741L205.202 404.747C205.099 405.448 204.996 406.147 204.89 406.845L204.89 406.856L204.891 406.869L204.892 406.895C204.893 406.912 204.895 406.931 204.896 406.95C204.899 406.99 204.902 407.03 204.902 407.054C205.655 407.048 206.407 407.048 207.159 407.048C207.911 407.048 208.663 407.048 209.415 407.042C209.831 407.017 210.271 407.374 210.234 407.815C210.211 408.097 210.165 408.373 210.118 408.651L210.118 408.652L210.118 408.652L210.118 408.653C210.09 408.823 210.061 408.994 210.038 409.166C209.989 409.474 209.744 409.755 209.426 409.817C208.708 409.832 207.985 409.828 207.262 409.823C206.298 409.817 205.333 409.811 204.376 409.853C204.224 410.897 204.057 411.941 203.89 412.984C203.76 413.795 203.63 414.606 203.508 415.417C203.471 415.785 203.177 416.104 202.811 416.116C202.115 416.128 201.417 416.128 200.72 416.116C200.267 416.128 199.901 415.624 200.024 415.195C200.712 410.739 201.419 406.294 202.128 401.84L202.311 400.692H202.312ZM215.958 400.004C215.55 400 215.14 399.996 214.735 400.028H214.734C214.417 400.077 214.172 400.358 214.135 400.666C213.476 404.855 212.827 409.03 212.179 413.205C212.069 413.99 212.106 414.874 212.643 415.501C213.389 416.361 214.648 416.508 215.688 416.311L215.738 416.297L215.813 416.277C216.278 416.15 216.865 415.99 216.898 415.427C216.909 415.299 216.926 415.169 216.944 415.04C216.99 414.699 217.036 414.357 216.947 414.027C216.848 413.742 216.59 413.66 216.336 413.58C216.086 413.501 215.84 413.422 215.749 413.155C215.615 412.701 215.689 412.229 215.759 411.777C215.773 411.691 215.786 411.606 215.798 411.522C216.055 409.876 216.315 408.231 216.575 406.585L216.575 406.585C216.835 404.939 217.094 403.294 217.352 401.648C217.365 401.532 217.385 401.415 217.405 401.299C217.439 401.096 217.474 400.894 217.474 400.69C217.437 400.286 217.047 399.979 216.655 400.003C216.424 400.008 216.191 400.006 215.958 400.004ZM239.011 400.692C239.048 400.323 239.378 400.005 239.744 400.005H241.603C242.067 399.992 242.446 400.496 242.336 400.938C242.122 402.301 241.905 403.663 241.688 405.026C241.471 406.39 241.254 407.753 241.039 409.117C241.687 409.019 242.422 408.896 242.873 408.368C243.631 407.509 244.255 406.514 244.719 405.471C244.748 405.398 244.774 405.318 244.801 405.237C244.924 404.869 245.059 404.463 245.489 404.402C246.186 404.378 246.896 404.39 247.593 404.402C248.07 404.39 248.424 404.93 248.265 405.372C248.081 406.024 247.775 406.625 247.458 407.202C246.749 408.356 245.966 409.498 244.938 410.407C245.228 411.279 245.567 412.136 245.906 412.99L245.906 412.99L245.906 412.991C246.097 413.472 246.287 413.952 246.468 414.434C246.499 414.529 246.54 414.628 246.582 414.728C246.735 415.094 246.899 415.484 246.639 415.822C246.37 416.188 245.934 416.165 245.516 416.142C245.345 416.133 245.177 416.124 245.024 416.142C244.874 416.125 244.706 416.134 244.535 416.143C244.077 416.167 243.595 416.192 243.373 415.736C243.1 415.101 242.849 414.458 242.598 413.815C242.32 413.101 242.042 412.388 241.733 411.684C241.39 411.696 241.037 411.709 240.694 411.672L240.596 411.869C240.412 413.097 240.216 414.325 240.02 415.553C239.947 415.848 239.714 416.105 239.397 416.13C238.912 416.148 238.419 416.146 237.924 416.144L237.923 416.143C237.759 416.143 237.594 416.142 237.429 416.142C237.147 416.142 236.891 415.958 236.769 415.712C236.666 415.504 236.702 415.271 236.738 415.04C236.744 414.998 236.751 414.956 236.757 414.914C237.515 410.173 238.261 405.432 239.007 400.693L239.011 400.692ZM273.753 401.464C273.411 401.451 273.081 401.685 272.995 402.029V402.027C272.829 402.555 272.674 403.089 272.518 403.624C272.445 403.873 272.373 404.123 272.299 404.372C272.152 404.391 272.001 404.388 271.851 404.385C271.614 404.38 271.379 404.375 271.161 404.458C270.796 404.642 270.742 405.035 270.692 405.395L270.692 405.396L270.692 405.396L270.692 405.396L270.692 405.396C270.682 405.471 270.672 405.544 270.659 405.613C270.651 405.678 270.64 405.745 270.628 405.813L270.628 405.813C270.573 406.145 270.514 406.5 270.757 406.755C270.992 407.035 271.358 407.019 271.68 407.005L271.68 407.005C271.711 407.003 271.742 407.002 271.772 407.001C271.649 408.118 271.469 409.228 271.29 410.336C271.148 411.214 271.006 412.091 270.892 412.97C270.794 414.001 270.941 415.217 271.858 415.843C272.848 416.494 274.132 416.494 275.245 416.199L275.271 416.193L275.305 416.184L275.375 416.165C275.755 416.068 276.19 415.956 276.321 415.549C276.384 415.289 276.412 415.025 276.439 414.759L276.44 414.759L276.44 414.758L276.44 414.758L276.44 414.758L276.44 414.758L276.44 414.757C276.455 414.608 276.471 414.458 276.493 414.309C276.554 413.941 276.323 413.535 275.955 413.425C275.833 413.412 275.704 413.412 275.573 413.413C275.206 413.415 274.829 413.417 274.586 413.117C274.365 412.785 274.39 412.356 274.426 411.975C274.517 411.393 274.609 410.811 274.701 410.228L274.702 410.222L274.705 410.202L274.705 410.202L274.705 410.201L274.705 410.201L274.705 410.201L274.706 410.2L274.706 410.2C274.873 409.145 275.039 408.091 275.196 407.038C275.515 407.004 275.834 407.007 276.155 407.011C276.412 407.014 276.671 407.017 276.932 407.001C277.237 406.953 277.506 406.695 277.568 406.375C277.598 406.185 277.635 405.997 277.672 405.81C277.708 405.623 277.745 405.436 277.776 405.245C277.849 404.829 277.495 404.386 277.067 404.386C276.748 404.378 276.425 404.38 276.103 404.383C275.942 404.385 275.782 404.386 275.624 404.386C275.651 403.997 275.716 403.608 275.781 403.219L275.781 403.219L275.781 403.219L275.781 403.219L275.781 403.218L275.781 403.218L275.781 403.218L275.781 403.218C275.833 402.907 275.885 402.596 275.917 402.286C275.966 401.894 275.649 401.488 275.245 401.476C274.958 401.462 274.671 401.464 274.387 401.466C274.174 401.467 273.963 401.469 273.753 401.464ZM266.085 406.009C266.855 405.236 267.786 404.596 268.85 404.278C269.315 404.069 269.914 404.462 269.901 404.977C269.849 405.388 269.77 405.794 269.691 406.199C269.64 406.459 269.589 406.719 269.546 406.979C269.497 407.311 269.216 407.594 268.885 407.629C267.687 407.838 266.647 408.562 265.816 409.422C265.769 409.48 265.716 409.539 265.663 409.598L265.663 409.598C265.482 409.798 265.294 410.007 265.266 410.281C265.033 411.842 264.789 413.404 264.546 414.965L264.545 414.969L264.544 414.973L264.544 414.977L264.543 414.98L264.542 414.99L264.472 415.438C264.435 415.807 264.117 416.162 263.739 416.138H261.88C261.452 416.162 261.073 415.732 261.122 415.303L261.405 413.516C261.848 410.713 262.291 407.916 262.724 405.11C262.748 404.766 262.993 404.435 263.347 404.398C263.686 404.38 264.024 404.382 264.368 404.384C264.484 404.385 264.6 404.386 264.717 404.386C265.084 404.386 265.425 404.718 265.425 405.098C265.425 405.396 265.41 405.7 265.394 406.005V406.005V406.005V406.006V406.006V406.007C265.382 406.239 265.37 406.473 265.364 406.707C265.547 406.592 265.687 406.435 265.826 406.279C265.91 406.185 265.993 406.091 266.085 406.008V406.009ZM221.629 404.387C221.209 404.376 220.786 404.364 220.373 404.449V404.45C220.006 404.598 219.908 405.014 219.883 405.371C219.62 407.011 219.363 408.647 219.107 410.284L219.106 410.284L219.106 410.284L219.106 410.285L219.106 410.285C218.85 411.921 218.593 413.556 218.33 415.195C218.221 415.601 218.526 416.079 218.942 416.128C219.446 416.147 219.944 416.144 220.44 416.142C220.606 416.141 220.77 416.141 220.935 416.141C221.313 416.153 221.607 415.798 221.644 415.441C222.134 412.284 222.634 409.128 223.136 405.972C223.147 405.875 223.163 405.779 223.179 405.682L223.179 405.681C223.218 405.446 223.257 405.209 223.222 404.965C223.161 404.584 222.758 404.338 222.378 404.387C222.131 404.401 221.881 404.394 221.629 404.387ZM259.947 404.609C258.125 404.264 256.265 404.018 254.419 404.203C252.768 404.412 251.105 405.161 250.09 406.524C248.684 408.316 248.208 410.724 248.525 412.959C248.696 414.027 249.16 415.108 250.029 415.77C250.836 416.396 251.924 416.482 252.902 416.322C254.272 416.052 255.434 415.168 256.388 414.186C256.415 414.414 256.397 414.643 256.38 414.869V414.869C256.366 415.057 256.352 415.242 256.363 415.426C256.388 415.806 256.731 416.162 257.109 416.138H258.356C258.724 416.138 259.028 415.794 259.053 415.438L259.133 414.933L259.133 414.932C259.633 411.774 260.131 408.626 260.619 405.479C260.692 405.061 260.362 404.656 259.947 404.607V404.609ZM256.51 410.393C256.021 411.314 255.336 412.15 254.566 412.862C254.125 413.231 253.564 413.61 252.965 413.487C252.377 413.365 252.097 412.751 251.962 412.222C251.656 410.847 251.938 409.348 252.708 408.158C253.051 407.605 253.6 407.188 254.237 407.016C255.129 406.795 256.071 406.905 256.94 407.151L256.989 407.2C256.917 407.901 256.802 408.597 256.688 409.295L256.688 409.295C256.627 409.66 256.567 410.026 256.513 410.393H256.51ZM234.742 405.111C235.598 406.032 235.928 407.322 235.94 408.55V408.549C236.014 410.711 235.33 412.934 233.862 414.542C232.063 416.373 229.263 416.693 226.854 416.225C226.732 417.318 226.597 418.399 226.401 419.48C226.387 419.555 226.375 419.636 226.364 419.718C226.305 420.129 226.239 420.585 225.79 420.708C225.33 420.775 224.858 420.768 224.387 420.76C224.169 420.757 223.952 420.753 223.736 420.757C223.272 420.769 222.88 420.303 222.99 419.848C223.375 417.392 223.764 414.936 224.152 412.48L224.152 412.479L224.152 412.479C224.541 410.023 224.929 407.567 225.314 405.111C225.339 404.732 225.656 404.387 226.047 404.387H227.295C227.661 404.387 228.016 404.718 228.004 405.099C228.011 405.339 228.002 405.574 227.993 405.808C227.986 405.982 227.979 406.154 227.979 406.327C228.128 406.242 228.243 406.116 228.36 405.988L228.36 405.988C228.444 405.896 228.529 405.804 228.627 405.726C229.666 404.793 230.999 404.092 232.418 404.141C233.274 404.129 234.155 404.461 234.742 405.111ZM231.256 412.885C232.039 412.063 232.443 410.92 232.516 409.791L232.518 409.792C232.566 408.969 232.518 408.06 231.979 407.385C231.66 406.979 231.062 406.93 230.621 407.139C229.435 407.765 228.602 408.907 227.918 410.036C227.771 410.672 227.677 411.316 227.582 411.96L227.582 411.961L227.582 411.961L227.582 411.961C227.52 412.388 227.457 412.816 227.379 413.242C227.391 413.278 227.428 413.352 227.453 413.389C228.7 413.72 230.242 413.855 231.256 412.885ZM319.948 396.429C319.965 396.474 319.979 396.519 319.992 396.565L319.991 396.562C319.995 400.359 319.995 404.157 319.994 407.955C319.994 412.422 319.993 416.889 320.001 421.355C320.021 422 319.627 422.496 319.381 422.635C319.135 422.775 318.52 422.806 318.239 422.797C316.488 422.794 314.737 422.795 312.988 422.796C312.114 422.796 311.24 422.797 310.366 422.797C310.217 422.793 310.068 422.794 309.918 422.796C309.715 422.797 309.511 422.799 309.306 422.788C309.306 422.747 309.312 422.671 309.316 422.635C309.408 422.122 309.499 421.608 309.591 421.095C309.694 420.514 309.797 419.932 309.902 419.352C309.945 419.131 309.983 418.908 310.021 418.686C310.079 418.346 310.138 418.007 310.211 417.673C310.712 417.679 311.213 417.677 311.714 417.675C311.964 417.674 312.215 417.673 312.465 417.673C312.499 417.673 312.533 417.674 312.567 417.674C312.762 417.676 312.958 417.679 313.141 417.606C313.345 417.541 313.524 417.421 313.673 417.272C313.827 417.119 313.952 416.934 314.045 416.74C314.264 416.291 314.379 415.806 314.451 415.317C314.51 414.882 314.549 414.415 314.371 414.001C314.232 413.677 313.884 413.489 313.544 413.489C313.056 413.484 312.567 413.485 312.08 413.485C311.714 413.486 311.349 413.486 310.985 413.485C311.047 413.108 311.116 412.732 311.185 412.357C311.252 411.994 311.319 411.632 311.378 411.27C311.535 410.444 311.816 409.618 312.348 408.953C312.545 408.703 312.785 408.49 313.049 408.314C313.39 408.086 313.774 407.92 314.174 407.834C314.598 407.731 315.032 407.729 315.467 407.727C315.916 407.726 316.365 407.724 316.804 407.61C316.94 407.57 317.08 407.517 317.198 407.438C317.285 407.379 317.363 407.305 317.416 407.21C317.525 407.022 317.515 406.799 317.505 406.587C317.503 406.539 317.501 406.492 317.5 406.446C317.402 405.822 317.285 405.202 317.08 404.605C316.986 404.353 316.859 404.102 316.65 403.931C316.395 403.711 316.065 403.621 315.742 403.544C315.25 403.482 314.749 403.468 314.253 403.513C312.724 403.585 311.184 403.962 309.856 404.744C308.434 405.579 307.266 406.837 306.528 408.319C306.059 409.24 305.754 410.237 305.562 411.248C305.508 411.534 305.455 411.819 305.401 412.105C305.319 412.547 305.236 412.989 305.152 413.431C305.144 413.489 305.09 413.489 305.04 413.488C305.024 413.488 305.008 413.488 304.995 413.49L304.992 413.49C303.308 413.486 301.626 413.482 299.941 413.49C299.13 413.569 298.317 413.659 297.505 413.748C296.987 413.805 296.468 413.862 295.951 413.916L295.916 413.93C295.894 413.933 295.871 413.934 295.849 413.937C295.767 413.945 295.685 413.954 295.603 413.962C295.345 413.988 295.087 414.014 294.83 414.05C294.774 414.057 294.72 414.064 294.664 414.074C295.665 414.239 296.668 414.387 297.671 414.535C298.273 414.624 298.875 414.713 299.477 414.806C299.543 414.945 299.585 415.101 299.627 415.257C299.65 415.343 299.673 415.428 299.7 415.511C299.606 415.513 299.512 415.524 299.419 415.534C299.365 415.54 299.311 415.546 299.257 415.55C299.243 415.552 299.23 415.554 299.217 415.555C299.21 415.556 299.203 415.556 299.196 415.556C299.155 415.559 299.115 415.563 299.074 415.565C298.654 415.597 298.234 415.631 297.814 415.666C297.525 415.69 297.236 415.713 296.945 415.736C296.924 415.739 296.901 415.738 296.879 415.738C296.825 415.738 296.77 415.737 296.726 415.772C297.626 415.896 298.526 416.026 299.429 416.155L299.63 416.184C299.648 416.187 299.668 416.189 299.69 416.19C299.762 416.194 299.842 416.199 299.866 416.279C299.877 416.328 299.887 416.377 299.897 416.426C299.921 416.543 299.945 416.661 299.974 416.777C299.769 416.799 299.561 416.807 299.354 416.815C299.132 416.824 298.91 416.832 298.691 416.858C298.477 416.856 298.264 416.871 298.051 416.887C297.942 416.895 297.832 416.903 297.722 416.908H297.718C297.651 416.912 297.585 416.914 297.518 416.914C297.476 416.914 297.435 416.917 297.393 416.917C297.383 416.918 297.374 416.919 297.365 416.919C297.356 416.92 297.347 416.921 297.337 416.922C297.17 416.941 297.002 416.946 296.835 416.952C296.648 416.958 296.461 416.964 296.275 416.989C296.057 416.991 295.841 417.006 295.625 417.02C295.394 417.036 295.162 417.052 294.928 417.052C294.734 417.079 294.54 417.085 294.345 417.091C294.153 417.096 293.961 417.102 293.77 417.128C293.553 417.128 293.337 417.143 293.121 417.158C292.905 417.172 292.689 417.187 292.472 417.187C292.258 417.217 292.043 417.223 291.827 417.228C291.624 417.233 291.421 417.238 291.219 417.264C291.153 417.265 291.088 417.268 291.022 417.27C290.902 417.275 290.782 417.28 290.66 417.277C290.66 417.283 290.656 417.3 290.652 417.305C290.877 417.31 291.103 417.321 291.328 417.332C291.667 417.349 292.005 417.366 292.343 417.363C292.609 417.393 292.877 417.397 293.146 417.402C293.414 417.406 293.682 417.41 293.948 417.44C294.064 417.445 294.18 417.446 294.296 417.446C294.508 417.448 294.72 417.45 294.928 417.475C295.116 417.484 295.305 417.487 295.493 417.49C295.801 417.495 296.108 417.499 296.413 417.53C296.727 417.53 297.04 417.545 297.352 417.559C297.664 417.574 297.975 417.589 298.288 417.589C298.606 417.62 298.925 417.624 299.244 417.629C299.433 417.631 299.621 417.634 299.809 417.642C300.016 417.667 300.228 417.67 300.438 417.672C300.527 417.674 300.616 417.675 300.704 417.678C301.312 417.68 301.922 417.68 302.531 417.68C303.141 417.68 303.75 417.68 304.358 417.682C304.349 417.749 304.341 417.817 304.331 417.884C304.108 419.063 303.899 420.245 303.69 421.426C303.619 421.828 303.548 422.23 303.477 422.631C303.473 422.657 303.467 422.708 303.463 422.73C303.459 422.747 303.454 422.779 303.45 422.797C303.361 422.833 303.268 422.831 303.175 422.828C303.141 422.828 303.108 422.827 303.074 422.828H289.924C289.758 422.846 289.608 422.846 289.432 422.783L289.426 422.781C289.185 422.694 288.937 422.604 288.747 422.428C288.425 422.127 288.183 421.727 288.116 421.287C288.12 413.035 288.12 404.789 288.12 396.537C288.124 396.496 288.142 396.465 288.169 396.433C293.465 396.431 298.76 396.431 304.056 396.431C309.353 396.431 314.649 396.431 319.948 396.429ZM311.242 399.271C311.273 399.257 311.291 399.23 311.291 399.199L311.294 399.197C311.296 399.121 311.308 399.046 311.32 398.972C311.337 398.871 311.353 398.771 311.343 398.667C311.382 398.447 311.386 398.222 311.378 397.998C311.341 397.931 311.337 397.85 311.337 397.774L311.302 397.778C311.249 397.581 311.083 397.392 310.868 397.383C310.707 397.369 310.506 397.373 310.412 397.526C310.28 397.706 310.292 397.921 310.303 398.132C310.307 398.207 310.311 398.281 310.309 398.353C310.309 398.362 310.31 398.374 310.311 398.386C310.312 398.399 310.313 398.411 310.313 398.42C310.313 398.604 310.29 398.783 310.259 398.964C310.231 399.017 310.218 399.076 310.218 399.138C310.142 399.561 309.989 399.979 309.784 400.36C309.744 400.413 309.713 400.472 309.699 400.535C309.565 400.768 309.404 400.984 309.238 401.2C309.211 401.223 309.188 401.249 309.166 401.276C309.056 401.414 308.935 401.531 308.812 401.651L308.795 401.667C308.777 401.677 308.762 401.689 308.748 401.701C308.737 401.71 308.726 401.718 308.714 401.726C308.563 401.875 308.393 402.014 308.21 402.126C308.197 402.134 308.184 402.143 308.171 402.153C308.16 402.16 308.149 402.168 308.138 402.175C306.994 402.935 305.602 403.249 304.247 403.263C303.097 403.3 301.94 403.053 300.902 402.554C300.884 402.546 300.839 402.528 300.821 402.518C300.777 402.494 300.732 402.471 300.687 402.448C300.557 402.38 300.427 402.312 300.307 402.226C300.293 402.219 300.279 402.211 300.265 402.203C300.243 402.191 300.22 402.178 300.195 402.167C300.031 402.069 299.873 401.961 299.726 401.835C299.693 401.805 299.657 401.779 299.621 401.752C299.604 401.74 299.587 401.727 299.57 401.714C299.408 401.584 299.243 401.445 299.104 401.287C299.069 401.248 299.033 401.211 298.997 401.176L298.997 401.175C298.51 400.669 298.129 400.048 297.928 399.375C297.77 398.936 297.759 398.465 297.749 398C297.746 397.898 297.744 397.796 297.74 397.694C297.578 397.447 297.238 397.308 296.97 397.461C296.904 397.508 296.873 397.578 296.841 397.649C296.818 397.699 296.795 397.75 296.76 397.793C296.622 399.275 297.251 400.753 298.258 401.822C298.258 401.858 298.276 401.88 298.307 401.894C298.37 401.953 298.433 402.013 298.496 402.072C298.61 402.181 298.724 402.289 298.839 402.393C298.87 402.424 298.906 402.456 298.947 402.483C299.081 402.594 299.223 402.697 299.364 402.801C299.412 402.836 299.459 402.87 299.506 402.905C299.541 402.932 299.576 402.956 299.617 402.977C299.686 403.018 299.754 403.06 299.822 403.102C299.996 403.211 300.17 403.319 300.36 403.39C300.378 403.404 300.409 403.425 300.427 403.435C301.277 403.844 302.194 404.122 303.133 404.212C303.236 404.212 303.338 404.222 303.441 404.244C303.859 404.268 304.275 404.259 304.692 404.25L304.783 404.248C306.165 404.126 307.592 403.789 308.746 402.972L308.759 402.99C308.796 402.958 308.827 402.932 308.863 402.905C309.046 402.771 309.226 402.628 309.404 402.479C309.445 402.447 309.489 402.412 309.529 402.371C309.588 402.307 309.649 402.245 309.71 402.183C309.856 402.035 310.003 401.885 310.12 401.711L310.147 401.725C310.153 401.714 310.161 401.699 310.169 401.684C310.179 401.665 310.188 401.646 310.196 401.634C310.347 401.428 310.486 401.212 310.62 400.996C310.629 400.983 310.652 400.961 310.66 400.947L310.642 400.929C310.649 400.921 310.66 400.907 310.672 400.893C310.683 400.88 310.694 400.866 310.701 400.857C310.947 400.353 311.166 399.828 311.242 399.271Z" fill="#F0F3FA"/>
<g opacity="0.4" filter="url(#filter11_f_2095_31306)">
<ellipse cx="300" cy="367" rx="72" ry="24" fill="#2F6FF0"/>
</g>
</g>
<g clip-path="url(#clip4_2095_31306)">
<rect x="276" y="239" width="176" height="80" rx="9" fill="#161E33"/>
<path fill-rule="evenodd" clip-rule="evenodd" d="M331 290C333.917 290 336.715 288.841 338.778 286.778C340.841 284.715 342 281.917 342 279C342 281.917 343.159 284.715 345.222 286.778C347.285 288.841 350.083 290 353 290C355.917 290 358.715 288.841 360.778 286.778C362.841 284.715 364 281.917 364 279V290H375C376.459 290 377.858 289.421 378.889 288.389C379.921 287.358 380.5 285.959 380.5 284.5C380.5 283.041 379.921 281.642 378.889 280.611C377.858 279.579 376.459 279 375 279H386V290H397V279H408V268H375C373.541 268 372.142 268.579 371.111 269.611C370.079 270.642 369.5 272.041 369.5 273.5C369.5 274.959 370.079 276.358 371.111 277.389C372.142 278.421 373.541 279 375 279H364V268H353H342V279C342 276.083 340.841 273.285 338.778 271.222C336.715 269.159 333.917 268 331 268H320V279V290H331Z" fill="#F0F3FA"/>
<g opacity="0.4" filter="url(#filter12_f_2095_31306)">
<ellipse cx="404" cy="239" rx="72" ry="24" fill="#8547FF"/>
</g>
</g>
<g clip-path="url(#clip5_2095_31306)">
<rect x="836" y="239" width="176" height="80" rx="9" fill="#161E33"/>
<path fill-rule="evenodd" clip-rule="evenodd" d="M880.224 287.108C880.224 286.628 879.864 286.147 879.263 286.147C878.663 286.147 878.302 286.628 878.302 287.108C878.302 287.589 878.663 288.069 879.263 288.069C879.744 288.069 880.224 287.709 880.224 287.108ZM894.037 279.061C894.037 279.541 894.397 280.022 894.998 280.022C895.478 280.022 895.959 279.541 895.959 279.061C895.959 278.58 895.598 278.1 894.998 278.1C894.517 278.1 894.037 278.58 894.037 279.061ZM891.875 279.061C891.875 277.379 893.316 275.938 894.998 275.938C896.679 275.938 898.001 277.259 898.241 278.701C898.241 280.382 896.8 281.823 895.118 281.823C894.397 281.823 893.797 281.703 893.196 281.223L882.506 286.988C882.506 288.67 881.065 289.991 879.383 289.991C877.942 289.991 876.621 288.91 876.381 287.349L866.652 282.304C864.97 281.463 863.889 279.181 864.009 277.019C864.129 275.698 864.61 274.617 865.571 274.016C865.672 273.966 866.152 273.728 866.911 273.353C869.749 271.95 876.478 268.623 881.786 265.969L882.146 265.849C882.161 265.841 882.179 265.832 882.199 265.821L882.2 265.821C882.508 265.658 883.43 265.173 884.668 265.849C886.23 266.569 889.593 268.131 892.596 269.572C893.433 270.029 894.318 270.437 895.099 270.797C895.55 271.006 895.967 271.198 896.319 271.374C896.319 271.374 896.8 271.614 896.8 272.094C896.8 272.455 896.559 272.695 896.319 272.815L879.864 281.343C879.023 281.823 878.663 281.703 878.182 281.463C878.049 281.33 875.514 280.014 872.872 278.643C870.752 277.543 868.562 276.406 867.492 275.818H867.372C867.132 275.698 866.772 275.698 866.531 275.818C866.171 276.058 865.811 276.659 865.811 277.379C865.691 278.821 866.411 280.502 867.372 280.983L876.501 285.787C876.981 284.826 878.062 284.106 879.263 284.106C880.224 284.106 881.185 284.586 881.786 285.427L891.995 280.022C891.875 279.782 891.875 279.421 891.875 279.061ZM915.897 285.667C916.978 285.307 917.819 284.706 918.419 284.106H918.539V277.86H912.174V280.382H914.816V282.784C914.336 283.145 913.615 283.385 912.654 283.385C911.453 283.385 910.612 282.905 910.132 282.184C909.531 281.463 909.291 280.262 909.291 278.701V277.74C909.411 276.298 909.651 275.217 910.132 274.377C910.612 273.536 911.333 273.176 912.294 273.176C913.014 273.176 913.615 273.416 914.095 273.776C914.576 274.136 914.816 274.737 914.936 275.578H918.539C918.299 273.776 917.699 272.455 916.618 271.614C915.537 270.773 913.975 270.293 912.053 270.293C910.732 270.293 909.531 270.653 908.57 271.254C907.609 271.854 906.889 272.695 906.288 273.896C905.687 274.977 905.447 276.298 905.447 277.86V279.181C905.447 281.343 906.168 283.145 907.369 284.346C908.57 285.667 910.252 286.268 912.294 286.268C913.615 286.268 914.816 286.027 915.897 285.667ZM920.581 286.027H924.184V274.497H920.581V286.027ZM920.461 271.494C920.461 271.013 920.701 270.533 921.061 270.173C921.422 269.812 921.902 269.692 922.503 269.692C923.103 269.692 923.584 269.812 923.944 270.173C924.305 270.533 924.545 270.893 924.545 271.494C924.545 271.974 924.305 272.455 923.944 272.815C923.584 273.175 923.103 273.296 922.503 273.296C921.902 273.296 921.422 273.175 921.061 272.815C920.581 272.455 920.461 272.094 920.461 271.494ZM930.671 274.497V271.614H927.067V274.497H925.626V277.019H927.067V282.784C927.067 283.986 927.308 284.826 927.908 285.427C928.509 286.027 929.47 286.268 930.671 286.268C931.391 286.268 932.112 286.148 932.713 285.907V283.385C932.472 283.505 932.232 283.505 931.872 283.505C931.391 283.505 931.031 283.385 930.911 283.265C930.791 283.025 930.671 282.784 930.671 282.304V277.019H932.592V274.497H930.671ZM937.878 279.421V283.145H940.28C941.001 283.145 941.481 283.025 941.841 282.664C942.202 282.304 942.442 281.944 942.442 281.343C942.442 280.022 941.841 279.421 940.52 279.421H937.878ZM937.878 277.019H939.8C940.64 277.019 941.241 276.899 941.601 276.539C941.962 276.298 942.082 275.818 942.082 275.217C942.082 274.617 941.841 274.136 941.481 273.776C941.121 273.536 940.52 273.296 939.679 273.296H937.878V277.019ZM934.154 286.027V270.533H939.8C941.841 270.533 943.283 270.893 944.364 271.614C945.445 272.335 945.925 273.416 945.925 274.857C945.925 275.698 945.685 276.298 945.325 276.899C944.964 277.499 944.364 277.86 943.643 278.1C944.484 278.34 945.084 278.701 945.565 279.301C946.045 279.902 946.165 280.622 946.165 281.463C946.165 283.025 945.685 284.106 944.724 284.946C943.763 285.667 942.322 286.147 940.4 286.147L934.154 286.027ZM951.69 282.784C951.33 282.184 951.21 281.463 951.21 280.382L951.09 279.661C951.21 277.86 951.81 277.019 953.011 277.019C954.333 277.019 955.053 278.1 955.053 280.142V280.502C955.053 282.544 954.453 283.505 953.132 283.505C952.531 283.505 952.051 283.265 951.69 282.784ZM948.327 277.019C947.847 277.98 947.606 278.941 947.606 280.142V280.863C947.606 282.544 948.207 283.865 949.168 284.826C950.129 285.787 951.45 286.268 953.132 286.268C954.813 286.268 956.254 285.787 957.215 284.706C958.296 283.625 958.777 282.184 958.777 280.382V280.142C958.777 278.34 958.296 276.899 957.335 275.818C956.375 274.737 954.933 274.256 953.252 274.256C952.051 274.256 951.09 274.497 950.249 274.977C949.408 275.458 948.808 276.178 948.327 277.019ZM963.582 280.382C963.582 281.463 963.702 282.184 964.062 282.784C964.423 283.265 964.903 283.505 965.504 283.505C966.825 283.505 967.425 282.544 967.425 280.502V280.142C967.425 278.1 966.705 277.019 965.384 277.019C964.182 277.019 963.582 277.86 963.462 279.661L963.582 280.382ZM959.979 280.142C959.979 278.941 960.219 277.98 960.699 277.019C961.18 276.178 961.78 275.458 962.621 274.977C963.462 274.497 964.423 274.256 965.624 274.256C967.305 274.256 968.747 274.737 969.708 275.818C970.668 276.899 971.149 278.34 971.149 280.142V280.382C971.149 282.184 970.668 283.625 969.587 284.706C968.627 285.787 967.185 286.268 965.504 286.268C963.822 286.268 962.501 285.787 961.54 284.826C960.579 283.865 959.979 282.544 959.979 280.863V280.142ZM976.313 282.784L977.394 281.823L979.917 286.027H984L979.676 279.301L983.76 274.497H979.436L976.674 277.86L976.313 278.34V269.692H972.71V286.027H976.313V282.784Z" fill="#F0F3FA"/>
<g opacity="0.4" filter="url(#filter13_f_2095_31306)">
<ellipse cx="964" cy="239" rx="72" ry="24" fill="#038585"/>
</g>
</g>
</g>
<defs>
<filter id="filter0_f_2095_31306" x="310.668" y="32" width="666.668" height="666.667" filterUnits="userSpaceOnUse" color-interpolation-filters="sRGB">
<feFlood flood-opacity="0" result="BackgroundImageFix"/>
<feBlend mode="normal" in="SourceGraphic" in2="BackgroundImageFix" result="shape"/>
<feGaussianBlur stdDeviation="100" result="effect1_foregroundBlur_2095_31306"/>
</filter>
<filter id="filter1_f_2095_31306" x="310.668" y="405.333" width="666.668" height="666.667" filterUnits="userSpaceOnUse" color-interpolation-filters="sRGB">
<feFlood flood-opacity="0" result="BackgroundImageFix"/>
<feBlend mode="normal" in="SourceGraphic" in2="BackgroundImageFix" result="shape"/>
<feGaussianBlur stdDeviation="100" result="effect1_foregroundBlur_2095_31306"/>
</filter>
<filter id="filter2_f_2095_31306" x="497.332" y="223.111" width="666.668" height="666.667" filterUnits="userSpaceOnUse" color-interpolation-filters="sRGB">
<feFlood flood-opacity="0" result="BackgroundImageFix"/>
<feBlend mode="normal" in="SourceGraphic" in2="BackgroundImageFix" result="shape"/>
<feGaussianBlur stdDeviation="100" result="effect1_foregroundBlur_2095_31306"/>
</filter>
<filter id="filter3_f_2095_31306" x="124" y="223.111" width="666.668" height="666.667" filterUnits="userSpaceOnUse" color-interpolation-filters="sRGB">
<feFlood flood-opacity="0" result="BackgroundImageFix"/>
<feBlend mode="normal" in="SourceGraphic" in2="BackgroundImageFix" result="shape"/>
<feGaussianBlur stdDeviation="100" result="effect1_foregroundBlur_2095_31306"/>
</filter>
<filter id="filter4_f_2095_31306" x="177.332" y="85.3335" width="666.668" height="666.667" filterUnits="userSpaceOnUse" color-interpolation-filters="sRGB">
<feFlood flood-opacity="0" result="BackgroundImageFix"/>
<feBlend mode="normal" in="SourceGraphic" in2="BackgroundImageFix" result="shape"/>
<feGaussianBlur stdDeviation="100" result="effect1_foregroundBlur_2095_31306"/>
</filter>
<filter id="filter5_f_2095_31306" x="444" y="85.3335" width="666.668" height="666.667" filterUnits="userSpaceOnUse" color-interpolation-filters="sRGB">
<feFlood flood-opacity="0" result="BackgroundImageFix"/>
<feBlend mode="normal" in="SourceGraphic" in2="BackgroundImageFix" result="shape"/>
<feGaussianBlur stdDeviation="100" result="effect1_foregroundBlur_2095_31306"/>
</filter>
<filter id="filter6_f_2095_31306" x="444" y="352" width="666.668" height="666.667" filterUnits="userSpaceOnUse" color-interpolation-filters="sRGB">
<feFlood flood-opacity="0" result="BackgroundImageFix"/>
<feBlend mode="normal" in="SourceGraphic" in2="BackgroundImageFix" result="shape"/>
<feGaussianBlur stdDeviation="100" result="effect1_foregroundBlur_2095_31306"/>
</filter>
<filter id="filter7_f_2095_31306" x="177.332" y="352" width="666.668" height="666.667" filterUnits="userSpaceOnUse" color-interpolation-filters="sRGB">
<feFlood flood-opacity="0" result="BackgroundImageFix"/>
<feBlend mode="normal" in="SourceGraphic" in2="BackgroundImageFix" result="shape"/>
<feGaussianBlur stdDeviation="100" result="effect1_foregroundBlur_2095_31306"/>
</filter>
<filter id="filter8_f_2095_31306" x="165.5" y="120" width="952.5" height="436.25" filterUnits="userSpaceOnUse" color-interpolation-filters="sRGB">
<feFlood flood-opacity="0" result="BackgroundImageFix"/>
<feBlend mode="normal" in="SourceGraphic" in2="BackgroundImageFix" result="shape"/>
<feGaussianBlur stdDeviation="60" result="effect1_foregroundBlur_2095_31306"/>
</filter>
<filter id="filter9_f_2095_31306" x="379" y="121" width="540" height="175.795" filterUnits="userSpaceOnUse" color-interpolation-filters="sRGB">
<feFlood flood-opacity="0" result="BackgroundImageFix"/>
<feBlend mode="normal" in="SourceGraphic" in2="BackgroundImageFix" result="shape"/>
<feGaussianBlur stdDeviation="12" result="effect1_foregroundBlur_2095_31306"/>
</filter>
<filter id="filter10_f_2095_31306" x="948" y="295" width="240" height="144" filterUnits="userSpaceOnUse" color-interpolation-filters="sRGB">
<feFlood flood-opacity="0" result="BackgroundImageFix"/>
<feBlend mode="normal" in="SourceGraphic" in2="BackgroundImageFix" result="shape"/>
<feGaussianBlur stdDeviation="24" result="effect1_foregroundBlur_2095_31306"/>
</filter>
<filter id="filter11_f_2095_31306" x="180" y="295" width="240" height="144" filterUnits="userSpaceOnUse" color-interpolation-filters="sRGB">
<feFlood flood-opacity="0" result="BackgroundImageFix"/>
<feBlend mode="normal" in="SourceGraphic" in2="BackgroundImageFix" result="shape"/>
<feGaussianBlur stdDeviation="24" result="effect1_foregroundBlur_2095_31306"/>
</filter>
<filter id="filter12_f_2095_31306" x="284" y="167" width="240" height="144" filterUnits="userSpaceOnUse" color-interpolation-filters="sRGB">
<feFlood flood-opacity="0" result="BackgroundImageFix"/>
<feBlend mode="normal" in="SourceGraphic" in2="BackgroundImageFix" result="shape"/>
<feGaussianBlur stdDeviation="24" result="effect1_foregroundBlur_2095_31306"/>
</filter>
<filter id="filter13_f_2095_31306" x="844" y="167" width="240" height="144" filterUnits="userSpaceOnUse" color-interpolation-filters="sRGB">
<feFlood flood-opacity="0" result="BackgroundImageFix"/>
<feBlend mode="normal" in="SourceGraphic" in2="BackgroundImageFix" result="shape"/>
<feGaussianBlur stdDeviation="24" result="effect1_foregroundBlur_2095_31306"/>
</filter>
<clipPath id="clip0_2095_31306">
<rect width="1288" height="527" fill="white"/>
</clipPath>
<clipPath id="clip1_2095_31306">
<rect x="244" y="240" width="800" height="776" rx="388" fill="white"/>
</clipPath>
<clipPath id="clip2_2095_31306">
<rect x="940" y="367" width="176" height="80" rx="9" fill="white"/>
</clipPath>
<clipPath id="clip3_2095_31306">
<rect x="172" y="367" width="176" height="80" rx="9" fill="white"/>
</clipPath>
<clipPath id="clip4_2095_31306">
<rect x="276" y="239" width="176" height="80" rx="9" fill="white"/>
</clipPath>
<clipPath id="clip5_2095_31306">
<rect x="836" y="239" width="176" height="80" rx="9" fill="white"/>
</clipPath>
</defs>
</svg>
