<svg width="542" height="387" viewBox="0 0 542 387" fill="none" xmlns="http://www.w3.org/2000/svg">
<path d="M406 323L398.442 323C385.187 323 374.442 312.255 374.442 299L374.442 217C374.442 203.745 363.696 193 350.442 193L271 193" stroke="#3D4866"/>
<path d="M406 65L398.442 65C385.187 65 374.442 75.7452 374.442 89L374.442 169C374.442 182.255 363.696 193 350.442 193L271 193" stroke="#3D4866"/>
<path d="M136 323L143.558 323C156.813 323 167.558 312.255 167.558 299L167.558 217C167.558 203.745 178.304 193 191.558 193L271 193" stroke="#3D4866"/>
<path d="M136 65L143.558 65C156.813 65 167.558 75.7452 167.558 89L167.558 169C167.558 182.255 178.304 193 191.558 193L271 193" stroke="#3D4866"/>
<path d="M508 193L34 193" stroke="#3D4866"/>
<g clip-path="url(#clip0_1356_7168)">
<rect x="406" y="33.5" width="64" height="64" rx="7.11111" fill="url(#paint0_linear_1356_7168)"/>
<g clip-path="url(#clip1_1356_7168)">
<path d="M431.6 57.5H455.6" stroke="#E0700D" stroke-width="2.28571" stroke-linecap="round" stroke-linejoin="round"/>
<path d="M455.6 74.3V47.9H431.6V77.5" stroke="#E0700D" stroke-width="2.28571" stroke-linecap="round" stroke-linejoin="round"/>
<path d="M426 83.1C429.093 83.1 431.6 80.5928 431.6 77.5C431.6 74.4072 429.093 71.9 426 71.9C422.908 71.9 420.4 74.4072 420.4 77.5C420.4 80.5928 422.908 83.1 426 83.1Z" stroke="#E0700D" stroke-width="1.6" stroke-linecap="round" stroke-linejoin="round"/>
<path d="M450 79.9C453.093 79.9 455.6 77.3928 455.6 74.3C455.6 71.2072 453.093 68.7 450 68.7C446.908 68.7 444.4 71.2072 444.4 74.3C444.4 77.3928 446.908 79.9 450 79.9Z" stroke="#E0700D" stroke-width="1.6" stroke-linecap="round" stroke-linejoin="round"/>
</g>
<g opacity="0.4" filter="url(#filter0_f_1356_7168)">
<circle cx="470.001" cy="33.5" r="19.2" fill="#2F6FF0"/>
</g>
</g>
<g clip-path="url(#clip2_1356_7168)">
<rect x="72" y="33.5" width="64" height="64" rx="7.11111" fill="url(#paint1_linear_1356_7168)"/>
<path fill-rule="evenodd" clip-rule="evenodd" d="M89.1431 62.3C89.1431 55.862 94.3622 50.6429 100.8 50.6429C107.238 50.6429 112.457 55.862 112.457 62.3C112.457 68.7381 107.238 73.9572 100.8 73.9572C94.3622 73.9572 89.1431 68.7381 89.1431 62.3ZM100.8 48.3572C93.0999 48.3572 86.8574 54.5996 86.8574 62.3C86.8574 70.0005 93.0999 76.2429 100.8 76.2429C108.501 76.2429 114.743 70.0005 114.743 62.3C114.743 54.5996 108.501 48.3572 100.8 48.3572ZM114.408 74.2919C113.962 73.8456 113.238 73.8456 112.792 74.2919C112.346 74.7382 112.346 75.4618 112.792 75.9082L119.192 82.3082C119.638 82.7545 120.362 82.7545 120.808 82.3082C121.255 81.8618 121.255 81.1382 120.808 80.6919L114.408 74.2919Z" fill="#8547FF"/>
<g opacity="0.4" filter="url(#filter1_f_1356_7168)">
<circle cx="136.001" cy="33.5" r="19.2" fill="#2F6FF0"/>
</g>
</g>
<g clip-path="url(#clip3_1356_7168)">
<rect x="406" y="290.5" width="64" height="64" rx="7.11111" fill="url(#paint2_linear_1356_7168)"/>
<g clip-path="url(#clip4_1356_7168)">
<path d="M452.4 304.9H423.6V340.1H452.4V304.9Z" stroke="#DC244C" stroke-width="2.28571" stroke-linecap="round" stroke-linejoin="round"/>
<path d="M442.799 312.9H445.999" stroke="#DC244C" stroke-width="2.28571" stroke-linecap="round" stroke-linejoin="round"/>
<path d="M442.799 319.3H445.999" stroke="#DC244C" stroke-width="1.6" stroke-linecap="round" stroke-linejoin="round"/>
<path d="M430 325.7H446" stroke="#DC244C" stroke-width="1.6" stroke-linecap="round" stroke-linejoin="round"/>
<path d="M430 332.1H446" stroke="#DC244C" stroke-width="1.6" stroke-linecap="round" stroke-linejoin="round"/>
<path d="M436.4 312.9H430V319.3H436.4V312.9Z" stroke="#DC244C" stroke-width="1.6" stroke-linecap="round" stroke-linejoin="round"/>
</g>
<g opacity="0.4" filter="url(#filter2_f_1356_7168)">
<circle cx="470.001" cy="290.5" r="19.2" fill="#2F6FF0"/>
</g>
</g>
<g clip-path="url(#clip5_1356_7168)">
<rect x="72" y="290.5" width="64" height="64" rx="7.11111" fill="url(#paint3_linear_1356_7168)"/>
<path fill-rule="evenodd" clip-rule="evenodd" d="M92.7987 309.243C92.2531 309.243 91.7299 309.46 91.3441 309.845C90.9583 310.231 90.7416 310.754 90.7416 311.3V324.1C90.7416 324.731 90.2299 325.243 89.5987 325.243C88.9675 325.243 88.4559 324.731 88.4559 324.1V311.3C88.4559 310.148 88.9134 309.044 89.7279 308.229C90.5423 307.415 91.6469 306.957 92.7987 306.957H115.199C116.351 306.957 117.455 307.415 118.27 308.229C119.084 309.044 119.542 310.148 119.542 311.3V324.1C119.542 324.731 119.03 325.243 118.399 325.243C117.768 325.243 117.256 324.731 117.256 324.1V311.3C117.256 310.754 117.039 310.231 116.653 309.845C116.268 309.46 115.744 309.243 115.199 309.243H92.7987ZM85.5906 329.692C85.8049 329.477 86.0956 329.357 86.3987 329.357H121.599C122.23 329.357 122.742 329.869 122.742 330.5C122.742 332.5 121.947 334.419 120.532 335.834C119.118 337.248 117.199 338.043 115.199 338.043H92.7987C90.7982 338.043 88.8797 337.248 87.4651 335.834C86.0506 334.419 85.2559 332.5 85.2559 330.5C85.2559 330.197 85.3763 329.906 85.5906 329.692ZM87.6673 331.643C87.8828 332.61 88.3694 333.505 89.0814 334.217C90.0673 335.203 91.4044 335.757 92.7987 335.757H115.199C116.593 335.757 117.93 335.203 118.916 334.217C119.628 333.505 120.115 332.61 120.33 331.643H87.6673ZM108.799 319.3L100.799 324.1V314.5L108.799 319.3Z" fill="#038585"/>
<g opacity="0.4" filter="url(#filter3_f_1356_7168)">
<circle cx="136.001" cy="290.5" r="19.2" fill="#2F6FF0"/>
</g>
</g>
<g clip-path="url(#clip6_1356_7168)">
<rect x="474" y="162" width="64" height="64" rx="7.11111" fill="url(#paint4_linear_1356_7168)"/>
<path d="M488.4 206.8L496.4 197.2L502.8 203.6L514 190.8L523.6 202" stroke="#D4D9E6" stroke-width="2.28571" stroke-linecap="round" stroke-linejoin="round"/>
<path d="M523.6 179.6H488.4V208.4H523.6V179.6Z" stroke="#D4D9E6" stroke-width="2.28571" stroke-linecap="round" stroke-linejoin="round"/>
<path d="M501.2 190.8C502.967 190.8 504.4 189.367 504.4 187.6C504.4 185.833 502.967 184.4 501.2 184.4C499.433 184.4 498 185.833 498 187.6C498 189.367 499.433 190.8 501.2 190.8Z" stroke="#D4D9E6" stroke-width="1.6" stroke-linecap="round" stroke-linejoin="round"/>
<g opacity="0.4" filter="url(#filter4_f_1356_7168)">
<circle cx="538.001" cy="162" r="19.2" fill="#2F6FF0"/>
</g>
</g>
<g clip-path="url(#clip7_1356_7168)">
<rect x="4" y="162" width="64" height="64" rx="7.11111" fill="url(#paint5_linear_1356_7168)"/>
<path d="M36.0004 211.6C45.7206 211.6 53.6004 203.72 53.6004 194C53.6004 184.28 45.7206 176.4 36.0004 176.4C26.2802 176.4 18.4004 184.28 18.4004 194C18.4004 203.72 26.2802 211.6 36.0004 211.6Z" stroke="#2F6FF0" stroke-width="2.28571" stroke-linecap="round" stroke-linejoin="round"/>
<path d="M32.8008 200.4V187.6L42.4008 194L32.8008 200.4Z" stroke="#2F6FF0" stroke-width="2.28571" stroke-linecap="round" stroke-linejoin="round"/>
<g opacity="0.4" filter="url(#filter5_f_1356_7168)">
<circle cx="68.0008" cy="162" r="19.2" fill="#2F6FF0"/>
</g>
</g>
<path d="M212.768 178L210 179.603V182.81L212.768 184.414L215.535 182.81V179.603L212.768 178Z" fill="#8547FF"/>
<path d="M332.043 262.455L329.275 264.058V267.265L332.043 268.869L334.811 267.265V264.058L332.043 262.455Z" fill="#8547FF"/>
<path d="M251.402 256.099L248.635 257.703V260.91L251.402 262.513L254.17 260.91V257.703L251.402 256.099Z" fill="#8547FF"/>
<path d="M339.043 115.455L336.275 117.058V120.265L339.043 121.869L341.811 120.265V117.058L339.043 115.455Z" fill="#8547FF"/>
<path d="M336.537 177.965L333.77 179.569V182.776L336.537 184.379L339.305 182.776V179.569L336.537 177.965Z" fill="#8547FF"/>
<path d="M249.043 118.455L246.275 120.058V123.265L249.043 124.869L251.811 123.265V120.058L249.043 118.455Z" fill="#8547FF"/>
<path d="M296.887 287.586L294.119 289.189V292.396L296.887 294L299.655 292.396V289.189L296.887 287.586Z" fill="#2F6FF0"/>
<path d="M326.043 224.455L323.275 226.058V229.265L326.043 230.869L328.811 229.265V226.058L326.043 224.455Z" fill="#2F6FF0"/>
<path d="M208.258 270.093L205.49 271.697V274.904L208.258 276.507L211.026 274.904V271.697L208.258 270.093Z" fill="#2F6FF0"/>
<path d="M179.768 164L177 165.603V168.81L179.768 170.414L182.535 168.81V165.603L179.768 164Z" fill="#2F6FF0"/>
<path d="M314.379 142.98L311.611 144.583V147.79L314.379 149.394L317.147 147.79V144.583L314.379 142.98Z" fill="#2F6FF0"/>
<path d="M351.043 149.455L348.275 151.058V154.265L351.043 155.869L353.811 154.265V151.058L351.043 149.455Z" fill="#DC244C"/>
<path d="M222.043 143.455L219.275 145.058V148.265L222.043 149.869L224.811 148.265V145.058L222.043 143.455Z" fill="#DC244C"/>
<path d="M216.418 233.942L213.65 235.545V238.752L216.418 240.356L219.186 238.752V235.545L216.418 233.942Z" fill="#DC244C"/>
<path d="M293.387 251.434L290.619 253.038V256.245L293.387 257.848L296.155 256.245V253.038L293.387 251.434Z" fill="#DC244C"/>
<path d="M296.043 103.455L293.275 105.058V108.265L296.043 109.869L298.811 108.265V105.058L296.043 103.455Z" fill="#DC244C"/>
<path d="M189.768 225L187 226.603V229.81L189.768 231.414L192.535 229.81V226.603L189.768 225Z" fill="#038585"/>
<path d="M213.043 103.455L210.275 105.058V108.265L213.043 109.869L215.811 108.265V105.058L213.043 103.455Z" fill="#038585"/>
<path d="M281.043 127.455L278.275 129.058V132.265L281.043 133.869L283.811 132.265V129.058L281.043 127.455Z" fill="#038585"/>
<path d="M351.043 233.455L348.275 235.058V238.265L351.043 239.869L353.811 238.265V235.058L351.043 233.455Z" fill="#038585"/>
<path d="M190.043 127.455L187.275 129.058V132.265L190.043 133.869L192.811 132.265V129.058L190.043 127.455Z" fill="#038585"/>
<path d="M243.244 287.586L240.477 289.19V292.397L243.244 294L246.012 292.397V289.19L243.244 287.586Z" fill="#038585"/>
<g opacity="0.5" filter="url(#filter6_f_1356_7168)">
<path fill-rule="evenodd" clip-rule="evenodd" d="M316.127 167C316.126 167 316.125 167 316.124 166.999L272.886 142.052C271.757 141.401 270.367 141.401 269.238 142.052L226.001 167C226.001 167 226.001 167 226.001 167C226 166.999 226 167 226 167V167V216.892C226 218.196 226.696 219.401 227.825 220.052L271.059 244.998C271.062 244.999 271.064 245 271.067 245C271.069 245 271.072 244.999 271.074 244.998L314.308 220.052C315.437 219.401 316.133 218.196 316.133 216.892V167.006C316.133 167.002 316.13 167 316.127 167Z" fill="#8547FF"/>
</g>
<path fill-rule="evenodd" clip-rule="evenodd" d="M312.291 168.999L270.719 193L270.722 241L312.291 216.999V168.999Z" fill="url(#paint6_linear_1356_7168)"/>
<path fill-rule="evenodd" clip-rule="evenodd" d="M229.146 168.999L270.719 193L270.716 241L229.146 216.999V168.999Z" fill="url(#paint7_linear_1356_7168)"/>
<path fill-rule="evenodd" clip-rule="evenodd" d="M312.285 169L270.721 193L229.146 169L270.715 145L312.285 169Z" fill="url(#paint8_linear_1356_7168)"/>
<g clip-path="url(#clip8_1356_7168)">
<path fill-rule="evenodd" clip-rule="evenodd" d="M289.922 182.092L289.925 182.091L280.476 176.636L271.03 171.182L261.581 176.636L252.135 182.091L252.135 182.092V203.909L261.581 209.363L271.03 214.818V214.819L277.075 211.331L277.075 211.331L277.075 211.331V203.909L271.03 207.4L264.794 203.8L258.561 200.201V185.802L264.794 182.203L271.03 178.604L277.264 182.203L283.5 185.802V214.818L283.499 214.818L283.5 214.82L289.925 211.112V182.093L289.922 182.092ZM271.03 199.981L277.075 196.49V189.512L271.03 186.022L264.986 189.512V196.49L271.03 199.981Z" fill="white"/>
</g>
<defs>
<filter id="filter0_f_1356_7168" x="412.401" y="-24.1" width="115.2" height="115.2" filterUnits="userSpaceOnUse" color-interpolation-filters="sRGB">
<feFlood flood-opacity="0" result="BackgroundImageFix"/>
<feBlend mode="normal" in="SourceGraphic" in2="BackgroundImageFix" result="shape"/>
<feGaussianBlur stdDeviation="19.2" result="effect1_foregroundBlur_1356_7168"/>
</filter>
<filter id="filter1_f_1356_7168" x="78.4008" y="-24.1" width="115.2" height="115.2" filterUnits="userSpaceOnUse" color-interpolation-filters="sRGB">
<feFlood flood-opacity="0" result="BackgroundImageFix"/>
<feBlend mode="normal" in="SourceGraphic" in2="BackgroundImageFix" result="shape"/>
<feGaussianBlur stdDeviation="19.2" result="effect1_foregroundBlur_1356_7168"/>
</filter>
<filter id="filter2_f_1356_7168" x="412.401" y="232.9" width="115.2" height="115.2" filterUnits="userSpaceOnUse" color-interpolation-filters="sRGB">
<feFlood flood-opacity="0" result="BackgroundImageFix"/>
<feBlend mode="normal" in="SourceGraphic" in2="BackgroundImageFix" result="shape"/>
<feGaussianBlur stdDeviation="19.2" result="effect1_foregroundBlur_1356_7168"/>
</filter>
<filter id="filter3_f_1356_7168" x="78.4008" y="232.9" width="115.2" height="115.2" filterUnits="userSpaceOnUse" color-interpolation-filters="sRGB">
<feFlood flood-opacity="0" result="BackgroundImageFix"/>
<feBlend mode="normal" in="SourceGraphic" in2="BackgroundImageFix" result="shape"/>
<feGaussianBlur stdDeviation="19.2" result="effect1_foregroundBlur_1356_7168"/>
</filter>
<filter id="filter4_f_1356_7168" x="480.401" y="104.4" width="115.2" height="115.2" filterUnits="userSpaceOnUse" color-interpolation-filters="sRGB">
<feFlood flood-opacity="0" result="BackgroundImageFix"/>
<feBlend mode="normal" in="SourceGraphic" in2="BackgroundImageFix" result="shape"/>
<feGaussianBlur stdDeviation="19.2" result="effect1_foregroundBlur_1356_7168"/>
</filter>
<filter id="filter5_f_1356_7168" x="10.4008" y="104.4" width="115.2" height="115.2" filterUnits="userSpaceOnUse" color-interpolation-filters="sRGB">
<feFlood flood-opacity="0" result="BackgroundImageFix"/>
<feBlend mode="normal" in="SourceGraphic" in2="BackgroundImageFix" result="shape"/>
<feGaussianBlur stdDeviation="19.2" result="effect1_foregroundBlur_1356_7168"/>
</filter>
<filter id="filter6_f_1356_7168" x="135.867" y="51.4305" width="270.399" height="283.703" filterUnits="userSpaceOnUse" color-interpolation-filters="sRGB">
<feFlood flood-opacity="0" result="BackgroundImageFix"/>
<feBlend mode="normal" in="SourceGraphic" in2="BackgroundImageFix" result="shape"/>
<feGaussianBlur stdDeviation="45.0667" result="effect1_foregroundBlur_1356_7168"/>
</filter>
<linearGradient id="paint0_linear_1356_7168" x1="438" y1="33.5" x2="438" y2="97.5" gradientUnits="userSpaceOnUse">
<stop stop-color="#161E33"/>
<stop offset="1" stop-color="#0E1424"/>
</linearGradient>
<linearGradient id="paint1_linear_1356_7168" x1="104" y1="33.5" x2="104" y2="97.5" gradientUnits="userSpaceOnUse">
<stop stop-color="#161E33"/>
<stop offset="1" stop-color="#0E1424"/>
</linearGradient>
<linearGradient id="paint2_linear_1356_7168" x1="438" y1="290.5" x2="438" y2="354.5" gradientUnits="userSpaceOnUse">
<stop stop-color="#161E33"/>
<stop offset="1" stop-color="#0E1424"/>
</linearGradient>
<linearGradient id="paint3_linear_1356_7168" x1="104" y1="290.5" x2="104" y2="354.5" gradientUnits="userSpaceOnUse">
<stop stop-color="#161E33"/>
<stop offset="1" stop-color="#0E1424"/>
</linearGradient>
<linearGradient id="paint4_linear_1356_7168" x1="506" y1="162" x2="506" y2="226" gradientUnits="userSpaceOnUse">
<stop stop-color="#161E33"/>
<stop offset="1" stop-color="#0E1424"/>
</linearGradient>
<linearGradient id="paint5_linear_1356_7168" x1="36" y1="162" x2="36" y2="226" gradientUnits="userSpaceOnUse">
<stop stop-color="#161E33"/>
<stop offset="1" stop-color="#0E1424"/>
</linearGradient>
<linearGradient id="paint6_linear_1356_7168" x1="291.505" y1="168.999" x2="291.505" y2="241" gradientUnits="userSpaceOnUse">
<stop stop-color="#161E33"/>
<stop offset="1" stop-color="#0E1424"/>
</linearGradient>
<linearGradient id="paint7_linear_1356_7168" x1="249.933" y1="168.999" x2="249.933" y2="241" gradientUnits="userSpaceOnUse">
<stop stop-color="#161E33"/>
<stop offset="1" stop-color="#0E1424"/>
</linearGradient>
<linearGradient id="paint8_linear_1356_7168" x1="270.716" y1="145" x2="270.716" y2="193" gradientUnits="userSpaceOnUse">
<stop stop-color="#2F3F6D"/>
<stop offset="0.355174" stop-color="#233053"/>
<stop offset="1" stop-color="#0E1424"/>
</linearGradient>
<clipPath id="clip0_1356_7168">
<rect x="406" y="33.5" width="64" height="64" rx="7.11111" fill="white"/>
</clipPath>
<clipPath id="clip1_1356_7168">
<rect width="38.4" height="38.4" fill="white" transform="translate(418.801 46.3)"/>
</clipPath>
<clipPath id="clip2_1356_7168">
<rect x="72" y="33.5" width="64" height="64" rx="7.11111" fill="white"/>
</clipPath>
<clipPath id="clip3_1356_7168">
<rect x="406" y="290.5" width="64" height="64" rx="7.11111" fill="white"/>
</clipPath>
<clipPath id="clip4_1356_7168">
<rect width="38.4" height="38.4" fill="white" transform="translate(418.801 303.3)"/>
</clipPath>
<clipPath id="clip5_1356_7168">
<rect x="72" y="290.5" width="64" height="64" rx="7.11111" fill="white"/>
</clipPath>
<clipPath id="clip6_1356_7168">
<rect x="474" y="162" width="64" height="64" rx="7.11111" fill="white"/>
</clipPath>
<clipPath id="clip7_1356_7168">
<rect x="4" y="162" width="64" height="64" rx="7.11111" fill="white"/>
</clipPath>
<clipPath id="clip8_1356_7168">
<rect width="37.6364" height="43.6364" fill="white" transform="translate(252.135 171.182)"/>
</clipPath>
</defs>
</svg>
