<svg width="301" height="210" viewBox="0 0 301 210" fill="none" xmlns="http://www.w3.org/2000/svg">
<g clip-path="url(#clip0_2662_12732)">
<circle cx="150.5" cy="254" r="156" fill="url(#paint0_linear_2662_12732)"/>
<path d="M164.5 151.05L148 148.053C144.513 158.207 140.782 180.519 139.786 184.45C138.291 183.467 136.796 184.45 136.298 184.941C124.341 173.64 114.875 186.416 115.373 191.82C111.388 190.838 107.9 191.329 105.409 194.277C102.42 184.45 92.4851 190.94 93.4518 194.277C87.9715 191.329 81.4947 192.312 79.5018 200.665C71.0322 194.277 60.5697 201.648 61.5661 210.001L219.5 210.001C216.71 195.063 204.055 195.588 198.077 197.717C199.485 193.604 192.596 186.416 185.123 191.329C182.333 182.288 176.321 184.941 173.664 187.398C166.689 178.062 159.714 185.924 159.714 189.364C159.714 187.791 157.721 187.398 156.725 187.398L164.5 151.05Z" fill="url(#paint1_linear_2662_12732)" fill-opacity="0.8"/>
<path d="M144.184 94.425C143.726 94.3364 125.131 98.9155 120.357 118.131C115.97 135.802 125.013 155.134 126.823 154.322C129.038 153.326 127.878 141.562 134.134 129.579C136.353 125.327 143.005 122.461 143.005 122.461L144.184 94.425Z" fill="url(#paint2_linear_2662_12732)"/>
<path opacity="0.1" d="M143.006 122.455C143.006 122.455 140.122 123.698 137.517 125.763C136.074 119.6 133.397 108.1 131.666 100.643C137.787 95.8263 143.92 94.3673 144.18 94.4176L143.006 122.455Z" fill="black"/>
<path d="M187.608 102.857C188.066 102.945 203.589 114.156 200.809 133.758C198.253 151.783 182.615 166.321 181.246 164.889C179.57 163.133 185.051 152.666 183.75 139.209C183.286 134.438 178.194 129.287 178.194 129.287L187.615 102.852L187.608 102.857Z" fill="url(#paint3_linear_2662_12732)"/>
<path opacity="0.1" d="M196.925 113.394C192.494 119.711 185.692 129.4 182.098 134.518C180.452 131.577 178.188 129.285 178.188 129.285L187.609 102.85C187.869 102.901 193.057 106.586 196.925 113.394Z" fill="black"/>
<path fill-rule="evenodd" clip-rule="evenodd" d="M144.412 140.785L170.154 145.788C170.154 145.788 186.518 126.454 190.131 100.296C191.933 87.2401 191.098 73.5736 189.15 62.0262C186.454 46.075 181.617 34.1854 178.612 33.6033C175.623 33.0244 166.672 42.2261 158.2 56.0083C152.053 65.9877 146.161 78.3396 142.936 91.12C136.487 116.728 144.412 140.785 144.412 140.785ZM146.905 138.053C147.385 138.146 147.849 137.837 147.942 137.356C148.035 136.876 147.727 136.411 147.247 136.318C146.766 136.225 146.302 136.534 146.209 137.015C146.116 137.495 146.425 137.96 146.905 138.053ZM153.45 138.429C153.357 138.909 152.892 139.218 152.412 139.125C151.932 139.032 151.623 138.568 151.716 138.087C151.809 137.606 152.274 137.297 152.754 137.39C153.234 137.483 153.543 137.948 153.45 138.429ZM157.915 140.191C158.395 140.284 158.859 139.975 158.952 139.494C159.045 139.014 158.737 138.549 158.257 138.456C157.776 138.363 157.312 138.672 157.219 139.153C157.126 139.634 157.434 140.098 157.915 140.191ZM164.459 140.567C164.366 141.048 163.902 141.357 163.422 141.264C162.942 141.171 162.633 140.706 162.726 140.225C162.819 139.745 163.283 139.436 163.764 139.529C164.244 139.622 164.553 140.086 164.459 140.567ZM168.929 142.336C169.409 142.429 169.874 142.12 169.967 141.639C170.06 141.159 169.751 140.694 169.271 140.601C168.791 140.508 168.326 140.817 168.233 141.298C168.14 141.779 168.449 142.243 168.929 142.336Z" fill="url(#paint4_linear_2662_12732)"/>
<path d="M182.591 95.3576C180.993 103.566 173.05 108.922 164.854 107.33C156.651 105.737 151.304 97.7916 152.9 89.5884C154.497 81.3794 162.44 76.0236 170.637 77.6157C178.839 79.2089 184.187 87.1543 182.591 95.3576Z" fill="white"/>
<path d="M182.353 93.7384C180.756 101.947 172.813 107.303 164.616 105.711C156.414 104.118 151.067 96.1725 152.663 87.9692C154.26 79.7603 162.203 74.4045 170.4 75.9966C178.602 77.5898 183.949 85.5352 182.353 93.7384Z" fill="url(#paint5_linear_2662_12732)"/>
<path d="M177.808 92.8468C176.704 98.5406 171.2 102.262 165.51 101.161C159.821 100.06 156.105 94.5543 157.209 88.8605C158.313 83.1666 163.817 79.4449 169.506 80.5459C175.196 81.6469 178.912 87.1529 177.808 92.8468Z" fill="url(#paint6_linear_2662_12732)"/>
<path d="M177.807 92.8474C177.552 94.1648 177.064 95.3787 176.389 96.4447L169.38 101.184C168.14 101.413 166.827 101.411 165.516 101.157C164.561 100.973 163.661 100.658 162.833 100.245L177.963 90.0149C178.036 90.9383 177.993 91.8862 177.807 92.8474Z" fill="#698DFF" fill-opacity="0.5"/>
<path d="M177.487 87.606L160.778 98.9034C160.535 98.7039 160.306 98.4953 160.081 98.2641L177.155 86.7204C177.281 87.0087 177.387 87.3051 177.487 87.606Z" fill="#698DFF" fill-opacity="0.5"/>
<path fill-rule="evenodd" clip-rule="evenodd" d="M158.202 56.0082L189.147 62.0201C186.453 46.0702 181.618 34.182 178.613 33.6004C175.624 33.022 166.671 42.2244 158.202 56.0082ZM163.112 54.5413C163.592 54.6342 164.056 54.3252 164.149 53.8446C164.243 53.364 163.934 52.8995 163.454 52.8065C162.974 52.7136 162.509 53.0226 162.416 53.5033C162.323 53.9839 162.631 54.4484 163.112 54.5413ZM169.657 54.9162C169.564 55.3969 169.099 55.7059 168.619 55.613C168.139 55.52 167.83 55.0555 167.923 54.5749C168.017 54.0943 168.481 53.7853 168.961 53.8782C169.441 53.9711 169.75 54.4356 169.657 54.9162ZM174.126 56.6847C174.607 56.7776 175.071 56.4685 175.164 55.9879C175.257 55.5073 174.949 55.0428 174.468 54.9499C173.988 54.857 173.524 55.166 173.431 55.6466C173.338 56.1272 173.646 56.5917 174.126 56.6847ZM180.667 57.0529C180.574 57.5335 180.109 57.8425 179.629 57.7496C179.149 57.6566 178.84 57.1922 178.934 56.7115C179.027 56.2309 179.491 55.9219 179.971 56.0148C180.452 56.1077 180.76 56.5722 180.667 57.0529ZM185.137 58.8213C185.617 58.9142 186.081 58.6052 186.174 58.1245C186.267 57.6439 185.959 57.1794 185.479 57.0865C184.998 56.9936 184.534 57.3026 184.441 57.7832C184.348 58.2638 184.656 58.7283 185.137 58.8213Z" fill="url(#paint7_linear_2662_12732)"/>
<path d="M166.269 153.068L145.328 148.998L145.853 141.062L168.759 145.513L166.269 153.068Z" fill="url(#paint8_linear_2662_12732)"/>
<path opacity="0.1" d="M168.758 145.517L167.541 149.194L145.651 144.096L145.852 141.066L168.758 145.517Z" fill="black"/>
<path d="M92.2404 37.7401L91.0877 42.0682L94.263 45.2435L98.5911 44.0908L99.7438 39.7627L96.5684 36.5874L92.2404 37.7401Z" fill="#E0700D"/>
<path d="M42.3755 96L38.5 98.2453V102.736L42.3755 104.981L46.251 102.736V98.2453L42.3755 96Z" fill="#8547FF"/>
<path d="M244.24 36.7401L243.088 41.0682L246.263 44.2435L250.591 43.0908L251.744 38.7627L248.568 35.5874L244.24 36.7401Z" fill="#008A53"/>
<path d="M269.375 99L265.5 101.245V105.736L269.375 107.981L273.251 105.736V101.245L269.375 99Z" fill="#DC244C"/>
</g>
<defs>
<linearGradient id="paint0_linear_2662_12732" x1="150.5" y1="98" x2="150.5" y2="410" gradientUnits="userSpaceOnUse">
<stop stop-color="#161E33"/>
<stop offset="1" stop-color="#0E1424"/>
</linearGradient>
<linearGradient id="paint1_linear_2662_12732" x1="143.912" y1="150.993" x2="140.5" y2="185.501" gradientUnits="userSpaceOnUse">
<stop stop-color="#2861D3"/>
<stop offset="1" stop-color="#7335F0"/>
</linearGradient>
<linearGradient id="paint2_linear_2662_12732" x1="133.667" y1="109.918" x2="125.127" y2="154.049" gradientUnits="userSpaceOnUse">
<stop stop-color="#779CE6"/>
<stop offset="1" stop-color="#2567EB"/>
</linearGradient>
<linearGradient id="paint3_linear_2662_12732" x1="191.538" y1="121.144" x2="182.996" y2="165.282" gradientUnits="userSpaceOnUse">
<stop stop-color="#779CE6"/>
<stop offset="1" stop-color="#2567EB"/>
</linearGradient>
<linearGradient id="paint4_linear_2662_12732" x1="178.561" y1="33.5934" x2="157.312" y2="143.301" gradientUnits="userSpaceOnUse">
<stop stop-color="#D0D0FB"/>
<stop offset="1" stop-color="#81A7F3"/>
</linearGradient>
<linearGradient id="paint5_linear_2662_12732" x1="168.793" y1="84.2225" x2="164.634" y2="105.715" gradientUnits="userSpaceOnUse">
<stop stop-color="#779CE6"/>
<stop offset="1" stop-color="#2567EB"/>
</linearGradient>
<linearGradient id="paint6_linear_2662_12732" x1="169.506" y1="80.5459" x2="165.517" y2="101.163" gradientUnits="userSpaceOnUse">
<stop stop-color="#D0D0FB"/>
<stop offset="1" stop-color="#81A7F3"/>
</linearGradient>
<linearGradient id="paint7_linear_2662_12732" x1="177.24" y1="40.6387" x2="173.681" y2="59.0271" gradientUnits="userSpaceOnUse">
<stop stop-color="#779CE6"/>
<stop offset="1" stop-color="#2567EB"/>
</linearGradient>
<linearGradient id="paint8_linear_2662_12732" x1="156.891" y1="145.429" x2="155.804" y2="151.043" gradientUnits="userSpaceOnUse">
<stop stop-color="#779CE6"/>
<stop offset="1" stop-color="#2567EB"/>
</linearGradient>
<clipPath id="clip0_2662_12732">
<rect width="300" height="210" fill="white" transform="translate(0.5)"/>
</clipPath>
</defs>
</svg>
