<svg width="1440" height="242" viewBox="0 0 1440 242" fill="none" xmlns="http://www.w3.org/2000/svg">
<rect y="1" width="80" height="80" stroke="#D4D9E6" stroke-width="1.16163"/>
<rect x="80" y="1" width="80" height="80" stroke="#D4D9E6" stroke-width="1.16163"/>
<rect x="160" y="1" width="80" height="80" stroke="#D4D9E6" stroke-width="1.16163"/>
<rect x="240" y="1" width="80" height="80" stroke="#D4D9E6" stroke-width="1.16163"/>
<rect x="320" y="1" width="80" height="80" stroke="#D4D9E6" stroke-width="1.16163"/>
<rect x="400" y="1" width="80" height="80" stroke="#D4D9E6" stroke-width="1.16163"/>
<rect x="480" y="1" width="80" height="80" stroke="#D4D9E6" stroke-width="1.16163"/>
<rect x="560" y="1" width="80" height="80" stroke="#D4D9E6" stroke-width="1.16163"/>
<rect x="640" y="1" width="80" height="80" stroke="#D4D9E6" stroke-width="1.16163"/>
<rect x="720" y="1" width="80" height="80" stroke="#D4D9E6" stroke-width="1.16163"/>
<rect x="800" y="1" width="80" height="80" stroke="#D4D9E6" stroke-width="1.16163"/>
<rect x="880" y="1" width="80" height="80" stroke="#D4D9E6" stroke-width="1.16163"/>
<rect x="960" y="1" width="80" height="80" stroke="#D4D9E6" stroke-width="1.16163"/>
<rect x="1040" y="1" width="80" height="80" stroke="#D4D9E6" stroke-width="1.16163"/>
<rect x="1120" y="1" width="80" height="80" stroke="#D4D9E6" stroke-width="1.16163"/>
<rect x="1200" y="1" width="80" height="80" stroke="#D4D9E6" stroke-width="1.16163"/>
<rect x="1280" y="1" width="80" height="80" stroke="#D4D9E6" stroke-width="1.16163"/>
<rect x="1360" y="1" width="80" height="80" stroke="#D4D9E6" stroke-width="1.16163"/>
<rect y="81" width="80" height="80" stroke="#D4D9E6" stroke-width="1.16163"/>
<rect x="80" y="81" width="80" height="80" stroke="#D4D9E6" stroke-width="1.16163"/>
<rect x="160" y="81" width="80" height="80" stroke="#D4D9E6" stroke-width="1.16163"/>
<rect x="240" y="81" width="80" height="80" stroke="#D4D9E6" stroke-width="1.16163"/>
<rect x="320" y="81" width="80" height="80" stroke="#D4D9E6" stroke-width="1.16163"/>
<rect x="400" y="81" width="80" height="80" stroke="#D4D9E6" stroke-width="1.16163"/>
<rect x="480" y="81" width="80" height="80" stroke="#D4D9E6" stroke-width="1.16163"/>
<rect x="560" y="81" width="80" height="80" stroke="#D4D9E6" stroke-width="1.16163"/>
<rect x="640" y="81" width="80" height="80" stroke="#D4D9E6" stroke-width="1.16163"/>
<rect x="720" y="81" width="80" height="80" stroke="#D4D9E6" stroke-width="1.16163"/>
<rect x="800" y="81" width="80" height="80" stroke="#D4D9E6" stroke-width="1.16163"/>
<rect x="880" y="81" width="80" height="80" stroke="#D4D9E6" stroke-width="1.16163"/>
<rect x="960" y="81" width="80" height="80" stroke="#D4D9E6" stroke-width="1.16163"/>
<rect x="1040" y="81" width="80" height="80" stroke="#D4D9E6" stroke-width="1.16163"/>
<rect x="1120" y="81" width="80" height="80" stroke="#D4D9E6" stroke-width="1.16163"/>
<rect x="1200" y="81" width="80" height="80" stroke="#D4D9E6" stroke-width="1.16163"/>
<rect x="1280" y="81" width="80" height="80" stroke="#D4D9E6" stroke-width="1.16163"/>
<rect x="1360" y="81" width="80" height="80" stroke="#D4D9E6" stroke-width="1.16163"/>
<rect y="161" width="80" height="80" stroke="#D4D9E6" stroke-width="1.16163"/>
<rect x="80" y="161" width="80" height="80" stroke="#D4D9E6" stroke-width="1.16163"/>
<rect x="160" y="161" width="80" height="80" stroke="#D4D9E6" stroke-width="1.16163"/>
<rect x="240" y="161" width="80" height="80" stroke="#D4D9E6" stroke-width="1.16163"/>
<rect x="320" y="161" width="80" height="80" stroke="#D4D9E6" stroke-width="1.16163"/>
<rect x="400" y="161" width="80" height="80" stroke="#D4D9E6" stroke-width="1.16163"/>
<rect x="480" y="161" width="80" height="80" stroke="#D4D9E6" stroke-width="1.16163"/>
<rect x="560" y="161" width="80" height="80" stroke="#D4D9E6" stroke-width="1.16163"/>
<rect x="640" y="161" width="80" height="80" stroke="#D4D9E6" stroke-width="1.16163"/>
<rect x="720" y="161" width="80" height="80" stroke="#D4D9E6" stroke-width="1.16163"/>
<rect x="800" y="161" width="80" height="80" stroke="#D4D9E6" stroke-width="1.16163"/>
<rect x="880" y="161" width="80" height="80" stroke="#D4D9E6" stroke-width="1.16163"/>
<rect x="960" y="161" width="80" height="80" stroke="#D4D9E6" stroke-width="1.16163"/>
<rect x="1040" y="161" width="80" height="80" stroke="#D4D9E6" stroke-width="1.16163"/>
<rect x="1120" y="161" width="80" height="80" stroke="#D4D9E6" stroke-width="1.16163"/>
<rect x="1200" y="161" width="80" height="80" stroke="#D4D9E6" stroke-width="1.16163"/>
<rect x="1280" y="161" width="80" height="80" stroke="#D4D9E6" stroke-width="1.16163"/>
<rect x="1360" y="161" width="80" height="80" stroke="#D4D9E6" stroke-width="1.16163"/>
</svg>
