<svg width="781" height="454" viewBox="0 0 781 454" fill="none" xmlns="http://www.w3.org/2000/svg">
<rect x="0.5" y="463" width="58.2039" height="58.2039" transform="rotate(-90 0.5 463)" stroke="#161E33"/>
<rect x="0.5" y="404.796" width="58.2039" height="58.2039" transform="rotate(-90 0.5 404.796)" stroke="#161E33"/>
<rect x="0.5" y="346.592" width="58.2039" height="58.2039" transform="rotate(-90 0.5 346.592)" stroke="#161E33"/>
<rect x="0.5" y="288.388" width="58.2039" height="58.2039" transform="rotate(-90 0.5 288.388)" stroke="#161E33"/>
<rect x="0.5" y="230.184" width="58.2039" height="58.2039" transform="rotate(-90 0.5 230.184)" stroke="#161E33"/>
<rect x="0.5" y="171.98" width="58.2039" height="58.2039" transform="rotate(-90 0.5 171.98)" stroke="#161E33"/>
<rect x="0.5" y="113.776" width="58.2039" height="58.2039" transform="rotate(-90 0.5 113.776)" stroke="#161E33"/>
<rect x="0.5" y="55.5723" width="58.2039" height="58.2039" transform="rotate(-90 0.5 55.5723)" stroke="#161E33"/>
<rect x="58.7031" y="463" width="58.2039" height="58.2039" transform="rotate(-90 58.7031 463)" stroke="#161E33"/>
<rect x="58.7031" y="404.796" width="58.2039" height="58.2039" transform="rotate(-90 58.7031 404.796)" stroke="#161E33"/>
<rect x="58.7031" y="346.592" width="58.2039" height="58.2039" transform="rotate(-90 58.7031 346.592)" stroke="#161E33"/>
<rect x="58.7031" y="288.388" width="58.2039" height="58.2039" transform="rotate(-90 58.7031 288.388)" stroke="#161E33"/>
<rect x="58.7031" y="230.184" width="58.2039" height="58.2039" transform="rotate(-90 58.7031 230.184)" stroke="#161E33"/>
<rect x="58.7031" y="171.98" width="58.2039" height="58.2039" transform="rotate(-90 58.7031 171.98)" stroke="#161E33"/>
<rect x="58.7031" y="113.776" width="58.2039" height="58.2039" transform="rotate(-90 58.7031 113.776)" stroke="#161E33"/>
<rect x="58.7031" y="55.5724" width="58.2039" height="58.2039" transform="rotate(-90 58.7031 55.5724)" stroke="#161E33"/>
<rect x="116.908" y="463" width="58.2039" height="58.2039" transform="rotate(-90 116.908 463)" stroke="#161E33"/>
<rect x="116.908" y="404.796" width="58.2039" height="58.2039" transform="rotate(-90 116.908 404.796)" stroke="#161E33"/>
<rect x="116.908" y="346.592" width="58.2039" height="58.2039" transform="rotate(-90 116.908 346.592)" stroke="#161E33"/>
<rect x="116.908" y="288.388" width="58.2039" height="58.2039" transform="rotate(-90 116.908 288.388)" stroke="#161E33"/>
<rect x="116.908" y="230.184" width="58.2039" height="58.2039" transform="rotate(-90 116.908 230.184)" stroke="#161E33"/>
<rect x="116.908" y="171.98" width="58.2039" height="58.2039" transform="rotate(-90 116.908 171.98)" stroke="#161E33"/>
<rect x="116.908" y="113.776" width="58.2039" height="58.2039" transform="rotate(-90 116.908 113.776)" stroke="#161E33"/>
<rect x="116.908" y="55.5724" width="58.2039" height="58.2039" transform="rotate(-90 116.908 55.5724)" stroke="#161E33"/>
<rect x="175.111" y="463" width="58.2039" height="58.2039" transform="rotate(-90 175.111 463)" stroke="#161E33"/>
<rect x="175.111" y="404.796" width="58.2039" height="58.2039" transform="rotate(-90 175.111 404.796)" stroke="#161E33"/>
<rect x="175.111" y="346.592" width="58.2039" height="58.2039" transform="rotate(-90 175.111 346.592)" stroke="#161E33"/>
<rect x="175.111" y="288.388" width="58.2039" height="58.2039" transform="rotate(-90 175.111 288.388)" stroke="#161E33"/>
<rect x="175.111" y="230.184" width="58.2039" height="58.2039" transform="rotate(-90 175.111 230.184)" stroke="#161E33"/>
<rect x="175.111" y="171.98" width="58.2039" height="58.2039" transform="rotate(-90 175.111 171.98)" stroke="#161E33"/>
<rect x="175.111" y="113.776" width="58.2039" height="58.2039" transform="rotate(-90 175.111 113.776)" stroke="#161E33"/>
<rect x="175.111" y="55.5724" width="58.2039" height="58.2039" transform="rotate(-90 175.111 55.5724)" stroke="#161E33"/>
<rect x="233.316" y="463" width="58.2039" height="58.2039" transform="rotate(-90 233.316 463)" stroke="#161E33"/>
<rect x="233.316" y="404.796" width="58.2039" height="58.2039" transform="rotate(-90 233.316 404.796)" stroke="#161E33"/>
<rect x="233.316" y="346.592" width="58.2039" height="58.2039" transform="rotate(-90 233.316 346.592)" stroke="#161E33"/>
<rect x="233.316" y="288.388" width="58.2039" height="58.2039" transform="rotate(-90 233.316 288.388)" stroke="#161E33"/>
<rect x="233.316" y="230.184" width="58.2039" height="58.2039" transform="rotate(-90 233.316 230.184)" stroke="#161E33"/>
<rect x="233.316" y="171.98" width="58.2039" height="58.2039" transform="rotate(-90 233.316 171.98)" stroke="#161E33"/>
<rect x="233.316" y="113.776" width="58.2039" height="58.2039" transform="rotate(-90 233.316 113.776)" stroke="#161E33"/>
<rect x="233.316" y="55.5724" width="58.2039" height="58.2039" transform="rotate(-90 233.316 55.5724)" stroke="#161E33"/>
<rect x="291.52" y="463" width="58.2039" height="58.2039" transform="rotate(-90 291.52 463)" stroke="#161E33"/>
<rect x="291.52" y="404.796" width="58.2039" height="58.2039" transform="rotate(-90 291.52 404.796)" stroke="#161E33"/>
<rect x="291.52" y="346.592" width="58.2039" height="58.2039" transform="rotate(-90 291.52 346.592)" stroke="#161E33"/>
<rect x="291.52" y="288.388" width="58.2039" height="58.2039" transform="rotate(-90 291.52 288.388)" stroke="#161E33"/>
<rect x="291.52" y="230.184" width="58.2039" height="58.2039" transform="rotate(-90 291.52 230.184)" stroke="#161E33"/>
<rect x="291.52" y="171.98" width="58.2039" height="58.2039" transform="rotate(-90 291.52 171.98)" stroke="#161E33"/>
<rect x="291.52" y="113.776" width="58.2039" height="58.2039" transform="rotate(-90 291.52 113.776)" stroke="#161E33"/>
<rect x="291.52" y="55.5724" width="58.2039" height="58.2039" transform="rotate(-90 291.52 55.5724)" stroke="#161E33"/>
<rect x="349.725" y="463" width="58.2039" height="58.2039" transform="rotate(-90 349.725 463)" stroke="#161E33"/>
<rect x="349.725" y="404.796" width="58.2039" height="58.2039" transform="rotate(-90 349.725 404.796)" stroke="#161E33"/>
<rect x="349.725" y="346.592" width="58.2039" height="58.2039" transform="rotate(-90 349.725 346.592)" stroke="#161E33"/>
<rect x="349.725" y="288.388" width="58.2039" height="58.2039" transform="rotate(-90 349.725 288.388)" stroke="#161E33"/>
<rect x="349.725" y="230.184" width="58.2039" height="58.2039" transform="rotate(-90 349.725 230.184)" stroke="#161E33"/>
<rect x="349.725" y="171.98" width="58.2039" height="58.2039" transform="rotate(-90 349.725 171.98)" stroke="#161E33"/>
<rect x="349.725" y="113.776" width="58.2039" height="58.2039" transform="rotate(-90 349.725 113.776)" stroke="#161E33"/>
<rect x="349.725" y="55.5724" width="58.2039" height="58.2039" transform="rotate(-90 349.725 55.5724)" stroke="#161E33"/>
<rect x="407.928" y="463" width="58.2039" height="58.2039" transform="rotate(-90 407.928 463)" stroke="#161E33"/>
<rect x="407.928" y="404.796" width="58.2039" height="58.2039" transform="rotate(-90 407.928 404.796)" stroke="#161E33"/>
<rect x="407.928" y="346.592" width="58.2039" height="58.2039" transform="rotate(-90 407.928 346.592)" stroke="#161E33"/>
<rect x="407.928" y="288.388" width="58.2039" height="58.2039" transform="rotate(-90 407.928 288.388)" stroke="#161E33"/>
<rect x="407.928" y="230.184" width="58.2039" height="58.2039" transform="rotate(-90 407.928 230.184)" stroke="#161E33"/>
<rect x="407.928" y="171.98" width="58.2039" height="58.2039" transform="rotate(-90 407.928 171.98)" stroke="#161E33"/>
<rect x="407.928" y="113.776" width="58.2039" height="58.2039" transform="rotate(-90 407.928 113.776)" stroke="#161E33"/>
<rect x="407.928" y="55.5724" width="58.2039" height="58.2039" transform="rotate(-90 407.928 55.5724)" stroke="#161E33"/>
<rect x="466.131" y="463" width="58.2039" height="58.2039" transform="rotate(-90 466.131 463)" stroke="#161E33"/>
<rect x="466.131" y="404.796" width="58.2039" height="58.2039" transform="rotate(-90 466.131 404.796)" stroke="#161E33"/>
<rect x="466.131" y="346.592" width="58.2039" height="58.2039" transform="rotate(-90 466.131 346.592)" stroke="#161E33"/>
<rect x="466.131" y="288.388" width="58.2039" height="58.2039" transform="rotate(-90 466.131 288.388)" stroke="#161E33"/>
<rect x="466.131" y="230.184" width="58.2039" height="58.2039" transform="rotate(-90 466.131 230.184)" stroke="#161E33"/>
<rect x="466.131" y="171.98" width="58.2039" height="58.2039" transform="rotate(-90 466.131 171.98)" stroke="#161E33"/>
<rect x="466.131" y="113.776" width="58.2039" height="58.2039" transform="rotate(-90 466.131 113.776)" stroke="#161E33"/>
<rect x="466.131" y="55.5724" width="58.2039" height="58.2039" transform="rotate(-90 466.131 55.5724)" stroke="#161E33"/>
<rect x="524.336" y="463" width="58.2039" height="58.2039" transform="rotate(-90 524.336 463)" stroke="#161E33"/>
<rect x="524.336" y="404.796" width="58.2039" height="58.2039" transform="rotate(-90 524.336 404.796)" stroke="#161E33"/>
<rect x="524.336" y="346.592" width="58.2039" height="58.2039" transform="rotate(-90 524.336 346.592)" stroke="#161E33"/>
<rect x="524.336" y="288.388" width="58.2039" height="58.2039" transform="rotate(-90 524.336 288.388)" stroke="#161E33"/>
<rect x="524.336" y="230.184" width="58.2039" height="58.2039" transform="rotate(-90 524.336 230.184)" stroke="#161E33"/>
<rect x="524.336" y="171.98" width="58.2039" height="58.2039" transform="rotate(-90 524.336 171.98)" stroke="#161E33"/>
<rect x="524.336" y="113.776" width="58.2039" height="58.2039" transform="rotate(-90 524.336 113.776)" stroke="#161E33"/>
<rect x="524.336" y="55.5724" width="58.2039" height="58.2039" transform="rotate(-90 524.336 55.5724)" stroke="#161E33"/>
<rect x="582.539" y="463" width="58.2039" height="58.2039" transform="rotate(-90 582.539 463)" stroke="#161E33"/>
<rect x="582.539" y="404.796" width="58.2039" height="58.2039" transform="rotate(-90 582.539 404.796)" stroke="#161E33"/>
<rect x="582.539" y="346.592" width="58.2039" height="58.2039" transform="rotate(-90 582.539 346.592)" stroke="#161E33"/>
<rect x="582.539" y="288.388" width="58.2039" height="58.2039" transform="rotate(-90 582.539 288.388)" stroke="#161E33"/>
<rect x="582.539" y="230.184" width="58.2039" height="58.2039" transform="rotate(-90 582.539 230.184)" stroke="#161E33"/>
<rect x="582.539" y="171.98" width="58.2039" height="58.2039" transform="rotate(-90 582.539 171.98)" stroke="#161E33"/>
<rect x="582.539" y="113.776" width="58.2039" height="58.2039" transform="rotate(-90 582.539 113.776)" stroke="#161E33"/>
<rect x="582.539" y="55.5724" width="58.2039" height="58.2039" transform="rotate(-90 582.539 55.5724)" stroke="#161E33"/>
<rect x="640.744" y="463" width="58.2039" height="58.2039" transform="rotate(-90 640.744 463)" stroke="#161E33"/>
<rect x="640.744" y="404.796" width="58.2039" height="58.2039" transform="rotate(-90 640.744 404.796)" stroke="#161E33"/>
<rect x="640.744" y="346.592" width="58.2039" height="58.2039" transform="rotate(-90 640.744 346.592)" stroke="#161E33"/>
<rect x="640.744" y="288.388" width="58.2039" height="58.2039" transform="rotate(-90 640.744 288.388)" stroke="#161E33"/>
<rect x="640.744" y="230.184" width="58.2039" height="58.2039" transform="rotate(-90 640.744 230.184)" stroke="#161E33"/>
<rect x="640.744" y="171.98" width="58.2039" height="58.2039" transform="rotate(-90 640.744 171.98)" stroke="#161E33"/>
<rect x="640.744" y="113.776" width="58.2039" height="58.2039" transform="rotate(-90 640.744 113.776)" stroke="#161E33"/>
<rect x="640.744" y="55.5724" width="58.2039" height="58.2039" transform="rotate(-90 640.744 55.5724)" stroke="#161E33"/>
<rect x="698.947" y="463" width="58.2039" height="58.2039" transform="rotate(-90 698.947 463)" stroke="#161E33"/>
<rect x="698.947" y="404.796" width="58.2039" height="58.2039" transform="rotate(-90 698.947 404.796)" stroke="#161E33"/>
<rect x="698.947" y="346.592" width="58.2039" height="58.2039" transform="rotate(-90 698.947 346.592)" stroke="#161E33"/>
<rect x="698.947" y="288.388" width="58.2039" height="58.2039" transform="rotate(-90 698.947 288.388)" stroke="#161E33"/>
<rect x="698.947" y="230.184" width="58.2039" height="58.2039" transform="rotate(-90 698.947 230.184)" stroke="#161E33"/>
<rect x="698.947" y="171.98" width="58.2039" height="58.2039" transform="rotate(-90 698.947 171.98)" stroke="#161E33"/>
<rect x="698.947" y="113.776" width="58.2039" height="58.2039" transform="rotate(-90 698.947 113.776)" stroke="#161E33"/>
<rect x="698.947" y="55.5724" width="58.2039" height="58.2039" transform="rotate(-90 698.947 55.5724)" stroke="#161E33"/>
<rect x="757.15" y="463" width="58.2039" height="58.2039" transform="rotate(-90 757.15 463)" stroke="#161E33"/>
<rect x="757.15" y="404.796" width="58.2039" height="58.2039" transform="rotate(-90 757.15 404.796)" stroke="#161E33"/>
<rect x="757.15" y="346.592" width="58.2039" height="58.2039" transform="rotate(-90 757.15 346.592)" stroke="#161E33"/>
<rect x="757.15" y="288.388" width="58.2039" height="58.2039" transform="rotate(-90 757.15 288.388)" stroke="#161E33"/>
<rect x="757.15" y="230.184" width="58.2039" height="58.2039" transform="rotate(-90 757.15 230.184)" stroke="#161E33"/>
<rect x="757.15" y="171.98" width="58.2039" height="58.2039" transform="rotate(-90 757.15 171.98)" stroke="#161E33"/>
<rect x="757.15" y="113.776" width="58.2039" height="58.2039" transform="rotate(-90 757.15 113.776)" stroke="#161E33"/>
<rect x="757.15" y="55.5724" width="58.2039" height="58.2039" transform="rotate(-90 757.15 55.5724)" stroke="#161E33"/>
</svg>
