<svg width="361" height="201" viewBox="0 0 361 201" fill="none" xmlns="http://www.w3.org/2000/svg">
<g opacity="0.8">
<rect x="0.304688" y="67.042" width="66.7395" height="66.7395" transform="rotate(-90 0.304688 67.042)" stroke="#303547" stroke-width="0.60549"/>
<rect x="67.043" y="67.042" width="66.7395" height="66.7395" transform="rotate(-90 67.043 67.042)" stroke="#303547" stroke-width="0.60549"/>
<rect x="133.785" y="67.042" width="66.7395" height="66.7395" transform="rotate(-90 133.785 67.042)" stroke="#303547" stroke-width="0.60549"/>
<rect x="200.523" y="67.042" width="66.7395" height="66.7395" transform="rotate(-90 200.523 67.042)" stroke="#303547" stroke-width="0.60549"/>
<rect x="267.262" y="67.042" width="66.7395" height="66.7395" transform="rotate(-90 267.262 67.042)" stroke="#303547" stroke-width="0.60549"/>
<rect x="200.523" y="133.782" width="66.7395" height="66.7395" transform="rotate(-90 200.523 133.782)" stroke="#303547" stroke-width="0.60549"/>
<rect x="267.262" y="133.782" width="66.7395" height="66.7395" transform="rotate(-90 267.262 133.782)" stroke="#303547" stroke-width="0.60549"/>
<rect x="0.304688" y="200.521" width="66.7395" height="66.7395" transform="rotate(-90 0.304688 200.521)" stroke="#303547" stroke-width="0.60549"/>
<rect x="133.785" y="200.521" width="66.7395" height="66.7395" transform="rotate(-90 133.785 200.521)" stroke="#303547" stroke-width="0.60549"/>
<rect x="200.523" y="200.521" width="66.7395" height="66.7395" transform="rotate(-90 200.523 200.521)" stroke="#303547" stroke-width="0.60549"/>
<rect x="267.262" y="200.521" width="66.7395" height="66.7395" transform="rotate(-90 267.262 200.521)" stroke="#303547" stroke-width="0.60549"/>
<rect x="67.043" y="200.521" width="66.7395" height="66.7395" transform="rotate(-90 67.043 200.521)" stroke="#303547" stroke-width="0.60549"/>
<rect x="0.304688" y="133.782" width="66.7395" height="66.7395" transform="rotate(-90 0.304688 133.782)" stroke="#303547" stroke-width="0.60549"/>
<rect x="67.043" y="133.782" width="66.7395" height="66.7395" transform="rotate(-90 67.043 133.782)" stroke="#303547" stroke-width="0.60549"/>
<rect x="133.785" y="133.782" width="66.7395" height="66.7395" transform="rotate(-90 133.785 133.782)" stroke="#303547" stroke-width="0.60549"/>
</g>
</svg>
