<svg width="560" height="400" viewBox="0 0 560 400" fill="none" xmlns="http://www.w3.org/2000/svg">
<g clip-path="url(#clip0_5768_32988)">
<rect width="80" height="80" stroke="#161E33"/>
<rect x="80" width="80" height="80" stroke="#161E33"/>
<rect x="160" width="80" height="80" stroke="#161E33"/>
<rect x="240" width="80" height="80" stroke="#161E33"/>
<rect x="320" width="80" height="80" stroke="#161E33"/>
<rect x="400" width="80" height="80" stroke="#161E33"/>
<rect x="480" width="80" height="80" stroke="#161E33"/>
<rect y="80" width="80" height="80" stroke="#161E33"/>
<rect x="80" y="80" width="80" height="80" stroke="#161E33"/>
<rect x="160" y="80" width="80" height="80" stroke="#161E33"/>
<rect x="240" y="80" width="80" height="80" stroke="#161E33"/>
<rect x="320" y="80" width="80" height="80" stroke="#161E33"/>
<rect x="400" y="80" width="80" height="80" stroke="#161E33"/>
<rect x="480" y="80" width="80" height="80" stroke="#161E33"/>
<rect y="160" width="80" height="80" stroke="#161E33"/>
<rect x="80" y="160" width="80" height="80" stroke="#161E33"/>
<rect x="160" y="160" width="80" height="80" stroke="#161E33"/>
<rect x="240" y="160" width="80" height="80" stroke="#161E33"/>
<rect x="320" y="160" width="80" height="80" stroke="#161E33"/>
<rect x="400" y="160" width="80" height="80" stroke="#161E33"/>
<rect x="480" y="160" width="80" height="80" stroke="#161E33"/>
<rect y="240" width="80" height="80" stroke="#161E33"/>
<rect x="80" y="240" width="80" height="80" stroke="#161E33"/>
<rect x="160" y="240" width="80" height="80" stroke="#161E33"/>
<rect x="240" y="240" width="80" height="80" stroke="#161E33"/>
<rect x="320" y="240" width="80" height="80" stroke="#161E33"/>
<rect x="400" y="240" width="80" height="80" stroke="#161E33"/>
<rect x="480" y="240" width="80" height="80" stroke="#161E33"/>
<path d="M170.054 177.701L168.531 178.584V180.348L170.054 181.231L171.577 180.348V178.584L170.054 177.701Z" fill="#8547FF"/>
<path d="M408.687 320L407.164 320.882V322.647L408.687 323.529L410.21 322.647V320.882L408.687 320Z" fill="#8547FF"/>
<path d="M241.042 297.059L239.52 297.941V299.706L241.042 300.588L242.565 299.706V297.941L241.042 297.059Z" fill="#8547FF"/>
<path d="M179.277 367.647L177.754 368.53V370.295L179.277 371.177L180.8 370.295V368.53L179.277 367.647Z" fill="#8547FF"/>
<path d="M119.277 302.353L117.754 303.235V305L119.277 305.882L120.8 305V303.235L119.277 302.353Z" fill="#8547FF"/>
<path d="M53.9839 147.059L52.4609 147.941V149.706L53.9839 150.588L55.5069 149.706V147.941L53.9839 147.059Z" fill="#8547FF"/>
<path d="M138.687 28.8232L137.164 29.7056V31.4703L138.687 32.3527L140.21 31.4703V29.7056L138.687 28.8232Z" fill="#8547FF"/>
<path d="M355.746 -1.17676L354.223 -0.294405V1.4703L355.746 2.35265L357.269 1.4703V-0.294405L355.746 -1.17676Z" fill="#8547FF"/>
<path d="M449.277 76.4707L447.754 77.3531V79.1178L449.277 80.0001L450.8 79.1178V77.3531L449.277 76.4707Z" fill="#8547FF"/>
<path d="M465.16 217.647L463.637 218.53V220.295L465.16 221.177L466.683 220.295V218.53L465.16 217.647Z" fill="#8547FF"/>
<path d="M374.113 60.2676L372.59 61.1499V62.9146L374.113 63.797L375.636 62.9146V61.1499L374.113 60.2676Z" fill="#8547FF"/>
<path d="M381.816 162.3L380.293 163.182V164.947L381.816 165.829L383.339 164.947V163.182L381.816 162.3Z" fill="#8547FF"/>
<path d="M222.031 39.0908L220.508 39.9732V41.7379L222.031 42.6202L223.554 41.7379V39.9732L222.031 39.0908Z" fill="#8547FF"/>
<path d="M368.101 260L366.578 260.882V262.647L368.101 263.529L369.624 262.647V260.882L368.101 260Z" fill="#2F6FF0"/>
<path d="M175.746 314.706L174.223 315.588V317.353L175.746 318.235L177.269 317.353V315.588L175.746 314.706Z" fill="#2F6FF0"/>
<path d="M54.523 259L53 259.882V261.647L54.523 262.529L56.0459 261.647V259.882L54.523 259Z" fill="#2F6FF0"/>
<path d="M75.523 43L74 43.8824V45.6471L75.523 46.5294L77.0459 45.6471V43.8824L75.523 43Z" fill="#2F6FF0"/>
<path d="M486.335 147.059L484.812 147.941V149.706L486.335 150.588L487.858 149.706V147.941L486.335 147.059Z" fill="#2F6FF0"/>
<path d="M459.863 275.883L458.34 276.765V278.53L459.863 279.412L461.386 278.53V276.765L459.863 275.883Z" fill="#2F6FF0"/>
<path d="M118.074 146.898L116.551 147.781V149.545L118.074 150.428L119.597 149.545V147.781L118.074 146.898Z" fill="#2F6FF0"/>
<path d="M345.238 104.546L343.715 105.428V107.193L345.238 108.075L346.761 107.193V105.428L345.238 104.546Z" fill="#2F6FF0"/>
<path d="M416.472 119.946L414.949 120.829V122.593L416.472 123.476L417.995 122.593V120.829L416.472 119.946Z" fill="#DC244C"/>
<path d="M200.851 112.246L199.328 113.128V114.893L200.851 115.776L202.374 114.893V113.128L200.851 112.246Z" fill="#DC244C"/>
<path d="M183.527 254.706L182.004 255.588V257.353L183.527 258.235L185.05 257.353V255.588L183.527 254.706Z" fill="#DC244C"/>
<path d="M346.921 302.353L345.398 303.235V305L346.921 305.882L348.444 305V303.235L346.921 302.353Z" fill="#DC244C"/>
<path d="M304.812 23.6895L303.289 24.5718V26.3365L304.812 27.2189L306.335 26.3365V24.5718L304.812 23.6895Z" fill="#DC244C"/>
<path d="M38.523 100L37 100.882V102.647L38.523 103.529L40.0459 102.647V100.882L38.523 100Z" fill="#DC244C"/>
<path d="M41.523 297L40 297.882V299.647L41.523 300.529L43.0459 299.647V297.882L41.523 297Z" fill="#DC244C"/>
<path d="M505.746 222.941L504.223 223.824V225.588L505.746 226.471L507.269 225.588V223.824L505.746 222.941Z" fill="#DC244C"/>
<path d="M116.523 217L115 217.882V219.647L116.523 220.529L118.046 219.647V217.882L116.523 217Z" fill="#038585"/>
<path d="M429.945 173.851L428.422 174.733V176.498L429.945 177.38L431.468 176.498V174.733L429.945 173.851Z" fill="#038585"/>
<path d="M491.628 94.1172L490.105 94.9995V96.7642L491.628 97.6466L493.151 96.7642V94.9995L491.628 94.1172Z" fill="#038585"/>
<path d="M51.523 198L50 198.882V200.647L51.523 201.529L53.0459 200.647V198.882L51.523 198Z" fill="#038585"/>
<path d="M435.156 28.8232L433.633 29.7056V31.4703L435.156 32.3527L436.679 31.4703V29.7056L435.156 28.8232Z" fill="#038585"/>
<path d="M339.523 180L338 180.882V182.647L339.523 183.529L341.046 182.647V180.882L339.523 180Z" fill="#038585"/>
<path d="M482.804 314.706L481.281 315.588V317.353L482.804 318.235L484.327 317.353V315.588L482.804 314.706Z" fill="#038585"/>
<path d="M313.394 348.235L311.871 349.118V350.882L313.394 351.765L314.917 350.882V349.118L313.394 348.235Z" fill="#038585"/>
<path d="M283.636 83.3691L282.113 84.2515V86.0162L283.636 86.8986L285.159 86.0162V84.2515L283.636 83.3691Z" fill="#038585"/>
<path d="M416.472 239.305L414.949 240.187V241.952L416.472 242.834L417.995 241.952V240.187L416.472 239.305Z" fill="#038585"/>
<path d="M122.523 90L121 90.8824V92.6471L122.523 93.5294L124.046 92.6471V90.8824L122.523 90Z" fill="#038585"/>
<path d="M237.511 348.235L235.988 349.118V350.882L237.511 351.765L239.034 350.882V349.118L237.511 348.235Z" fill="#038585"/>
<path d="M502.523 40L501 40.8824V42.6471L502.523 43.5294L504.046 42.6471V40.8824L502.523 40Z" fill="#2F6FF0"/>
<path d="M284.3 211.907H185.478L173 61.96H271.822L284.3 211.907Z" fill="#0B101A"/>
<path d="M191.005 334.079C190.87 334.068 190.737 334.031 190.616 333.969C190.494 333.907 190.386 333.821 190.298 333.717C190.209 333.613 190.142 333.493 190.1 333.363C190.059 333.232 190.043 333.095 190.054 332.959L210.855 83.0088H212.922V85.0825H212.788L192.112 333.135C192.088 333.407 191.959 333.658 191.752 333.835C191.544 334.011 191.276 334.099 191.005 334.079Z" fill="#1B2B4C"/>
<path d="M283.426 334.079C283.562 334.068 283.695 334.031 283.816 333.969C283.938 333.907 284.046 333.821 284.134 333.717C284.223 333.613 284.29 333.493 284.331 333.363C284.373 333.232 284.389 333.095 284.377 332.959L263.577 83.0088H261.51V85.0825H261.675L274.97 244.921H208.062L194.622 83.0088H192.555V85.0825H192.72L213.396 333.135C213.42 333.409 213.551 333.662 213.76 333.838C213.969 334.015 214.24 334.102 214.513 334.079C214.649 334.068 214.781 334.031 214.903 333.969C215.024 333.907 215.132 333.821 215.221 333.717C215.309 333.613 215.376 333.493 215.418 333.363C215.459 333.232 215.475 333.095 215.464 332.959L208.31 246.995H275.218L282.382 333.135C282.406 333.396 282.526 333.637 282.72 333.812C282.913 333.987 283.166 334.082 283.426 334.079Z" fill="#1B2B4C"/>
<path d="M288.21 211.907H189.388L176.91 61.96H275.732L288.21 211.907Z" fill="#111827"/>
<path d="M275.65 65.4857H176.756C175.891 65.4802 175.063 65.1315 174.453 64.5157C173.842 63.8999 173.5 63.067 173.5 62.1989C173.5 61.3272 173.845 60.4912 174.46 59.8748C175.074 59.2584 175.908 58.9121 176.777 58.9121H275.671C276.54 58.9121 277.374 59.2584 277.988 59.8748C278.603 60.4912 278.948 61.3272 278.948 62.1989C278.948 62.6323 278.863 63.0614 278.697 63.4615C278.531 63.8616 278.288 64.2249 277.981 64.5303C277.675 64.8358 277.311 65.0775 276.911 65.2414C276.511 65.4054 276.083 65.4884 275.65 65.4857Z" fill="#24386C"/>
<path d="M236.273 181.456L223.34 195.214C223.153 195.37 222.928 195.472 222.688 195.509C222.448 195.546 222.203 195.516 221.978 195.423C221.754 195.331 221.559 195.178 221.414 194.982C221.27 194.786 221.181 194.555 221.159 194.312L220.621 189.916L233.812 161.32L236.273 181.456Z" fill="#1B2B4C"/>
<path d="M244.73 181.466L261.033 195.225C261.196 195.401 261.41 195.521 261.645 195.568C261.879 195.615 262.123 195.587 262.341 195.487C262.558 195.387 262.739 195.22 262.857 195.011C262.975 194.802 263.024 194.561 262.997 194.323L262.449 189.927L242.27 161.32L244.73 181.466Z" fill="#1B2B4C"/>
<path d="M246.381 194.935H237.914L238.555 186.454H243.672L246.381 194.935Z" fill="#1B2B4C"/>
<path d="M238.689 132.01L234.306 96.1661C234.027 93.8229 229.933 75.8545 227.596 75.8545C225.26 75.8545 225.529 93.8229 225.849 96.1661L230.233 132.01C229.6 140.664 229.541 149.351 230.057 158.013L233.624 187.211H248.779L245.212 158.003C243.579 149.211 241.401 140.53 238.689 132.01Z" fill="#24386C"/>
<path d="M270.359 198.014L266.172 198.004L266.306 192.343H268.839L270.359 198.014Z" fill="#1B2B4C"/>
<path d="M263.947 193.691L260.401 164.66C260.132 162.482 259.791 145.769 261.879 145.769C263.968 145.769 267.71 162.482 267.979 164.66L271.525 193.691H263.947Z" fill="#1B2B4C"/>
<path d="M218.689 198.005H214.492L214.627 192.333H217.17L218.689 198.005Z" fill="#1B2B4C"/>
<path d="M212.278 193.68L208.732 164.649C208.463 162.472 208.111 145.758 210.21 145.758C212.309 145.758 216.041 162.472 216.299 164.649L219.845 193.68H212.278Z" fill="#1B2B4C"/>
<path d="M224.569 109.841L221.291 105.144L220.713 98.2285H188.551L189.316 107.405H220.444L224.569 109.841Z" fill="#1B2B4C"/>
<path d="M242.195 134.726L245.472 130.029L246.051 123.113H278.203L277.438 132.289H246.32L242.195 134.726Z" fill="#1B2B4C"/>
<path d="M280.409 380C371.762 380 445.818 374.661 445.818 368.076C445.818 361.491 371.762 356.152 280.409 356.152C189.056 356.152 115 361.491 115 368.076C115 374.661 189.056 380 280.409 380Z" fill="#02050E"/>
<path d="M292.189 363.639L267.781 363.628L272.609 339.148L287.372 339.159L292.189 363.639Z" fill="#202D48"/>
<path d="M267.79 324.736L225.611 364.447C225.105 364.922 224.471 365.238 223.788 365.357C223.105 365.476 222.403 365.391 221.767 365.115C221.131 364.838 220.589 364.382 220.209 363.801C219.828 363.22 219.625 362.54 219.625 361.845V349.133L267.79 266.611V324.736Z" fill="#5573A9"/>
<path d="M292.195 324.747L334.354 364.448C334.858 364.923 335.49 365.24 336.172 365.36C336.854 365.48 337.556 365.397 338.191 365.121C338.826 364.846 339.367 364.39 339.747 363.809C340.127 363.229 340.33 362.55 340.329 361.856V349.165L292.195 266.622V324.747Z" fill="#5573A9"/>
<path d="M292.229 182.037V78.602C292.229 71.8418 286.781 20 280.041 20C273.3 20 267.821 71.8418 267.821 78.602V182.037C261.99 210.311 258.145 249.504 258.145 257.083V341.347H301.875V257.083C301.875 249.514 298.049 210.322 292.229 182.037Z" fill="#5573A9"/>
<path d="M318.822 372.494H306.727L309.125 356.143H316.434L318.822 372.494Z" fill="#202D48"/>
<path d="M301.844 360.03V276.296C301.844 270.012 306.754 221.789 312.792 221.789C318.829 221.789 323.729 270.012 323.729 276.316V360.051L301.844 360.03Z" fill="#1B2B4C"/>
<path opacity="0.2" d="M313.973 222.401C317.684 238.182 319.493 269.246 319.286 274.482L315.947 360.041H323.711V276.306C323.732 270.428 319.462 227.907 313.973 222.401Z" fill="black"/>
<path d="M323.728 278.908H301.863V290.915H323.728V278.908Z" fill="#5573A9"/>
<path d="M253.236 372.483L241.141 372.473L243.539 356.122H250.848L253.236 372.483Z" fill="#202D48"/>
<path d="M236.266 360.021V276.317C236.266 270.034 241.176 221.811 247.214 221.811C253.251 221.811 258.131 270.044 258.131 276.327V360.062L236.266 360.021Z" fill="#1B2B4C"/>
<path opacity="0.2" d="M248.387 222.401C252.098 238.192 253.907 269.246 253.7 274.482L250.361 360.041H258.125V276.306C258.146 270.407 253.845 227.897 248.387 222.401Z" fill="black"/>
<path d="M258.146 278.888H236.281V290.894H258.146V278.888Z" fill="#5573A9"/>
<path d="M292.261 84.8123V78.5913C292.261 78.5913 292.261 78.4565 292.261 78.415H267.863C267.863 78.4669 267.863 78.5602 267.863 78.6017V84.8227L292.261 84.8123Z" fill="#1B2B4C"/>
<path d="M292.24 174.178H267.832V180.938H292.24V174.178Z" fill="#1B2B4C"/>
<path d="M267.787 334.534H261.574L264.686 308.966L267.787 308.976V334.534Z" fill="#202D48"/>
<path d="M277.549 334.545L271.336 334.535L273.414 308.977H277.559L277.549 334.545Z" fill="#202D48"/>
<path d="M287.308 334.545H281.105V308.977H285.251L287.308 334.545Z" fill="#202D48"/>
<path d="M297.066 334.545H290.863V308.977H293.975L297.066 334.545Z" fill="#202D48"/>
<path d="M271.873 93.6053C271.451 93.6053 271.046 93.4371 270.747 93.1377C270.449 92.8382 270.281 92.4321 270.281 92.0086V90.1319C270.281 89.9214 270.323 89.7129 270.403 89.5185C270.484 89.3241 270.602 89.1476 270.751 88.9992C270.9 88.8508 271.077 88.7334 271.271 88.6538C271.465 88.5741 271.673 88.5338 271.883 88.5352C272.305 88.5352 272.71 88.7034 273.009 89.0029C273.307 89.3023 273.475 89.7084 273.475 90.1319V92.0086C273.475 92.2192 273.433 92.4276 273.353 92.622C273.272 92.8164 273.154 92.9929 273.005 93.1413C272.856 93.2897 272.679 93.4071 272.485 93.4868C272.291 93.5664 272.083 93.6067 271.873 93.6053Z" fill="#202D48"/>
<path d="M276.888 93.6043C276.466 93.6043 276.062 93.4361 275.763 93.1366C275.465 92.8372 275.297 92.4311 275.297 92.0076V90.1309C275.297 89.7074 275.465 89.3013 275.763 89.0018C276.062 88.7024 276.466 88.5342 276.888 88.5342C277.311 88.5342 277.715 88.7024 278.014 89.0018C278.312 89.3013 278.48 89.7074 278.48 90.1309V92.0076C278.48 92.4311 278.312 92.8372 278.014 93.1366C277.715 93.4361 277.311 93.6043 276.888 93.6043Z" fill="#202D48"/>
<path d="M281.892 93.6043C281.47 93.6043 281.065 93.4361 280.767 93.1366C280.468 92.8372 280.301 92.4311 280.301 92.0076V90.1309C280.301 89.7074 280.468 89.3013 280.767 89.0018C281.065 88.7024 281.47 88.5342 281.892 88.5342C282.315 88.5342 282.719 88.7024 283.018 89.0018C283.316 89.3013 283.484 89.7074 283.484 90.1309V92.0076C283.484 92.4311 283.316 92.8372 283.018 93.1366C282.719 93.4361 282.315 93.6043 281.892 93.6043Z" fill="#202D48"/>
<path d="M286.924 93.6147C286.714 93.6147 286.506 93.573 286.312 93.4922C286.118 93.4113 285.942 93.2927 285.795 93.1434C285.647 92.994 285.53 92.8167 285.45 92.6218C285.371 92.4269 285.331 92.2181 285.332 92.0076V90.1309C285.332 89.7074 285.5 89.3013 285.798 89.0018C286.097 88.7024 286.502 88.5342 286.924 88.5342C287.346 88.5342 287.751 88.7024 288.049 89.0018C288.348 89.3013 288.515 89.7074 288.515 90.1309V92.018C288.515 92.4414 288.348 92.8476 288.049 93.147C287.751 93.4465 287.346 93.6147 286.924 93.6147Z" fill="#202D48"/>
<path d="M271.873 101.89C271.451 101.89 271.046 101.721 270.747 101.422C270.449 101.122 270.281 100.716 270.281 100.293V98.4161C270.281 98.2055 270.323 97.9971 270.403 97.8027C270.484 97.6082 270.602 97.4318 270.751 97.2833C270.9 97.1349 271.077 97.0175 271.271 96.9379C271.465 96.8583 271.673 96.818 271.883 96.8194C272.305 96.8194 272.71 96.9876 273.009 97.287C273.307 97.5865 273.475 97.9926 273.475 98.4161V100.293C273.475 100.503 273.433 100.712 273.353 100.906C273.272 101.101 273.154 101.277 273.005 101.426C272.856 101.574 272.679 101.691 272.485 101.771C272.291 101.851 272.083 101.891 271.873 101.89Z" fill="#202D48"/>
<path d="M276.888 101.889C276.466 101.889 276.062 101.721 275.763 101.422C275.465 101.122 275.297 100.716 275.297 100.293V98.4161C275.297 97.9926 275.465 97.5864 275.763 97.287C276.062 96.9876 276.466 96.8193 276.888 96.8193C277.311 96.8193 277.715 96.9876 278.014 97.287C278.312 97.5864 278.48 97.9926 278.48 98.4161V100.293C278.48 100.716 278.312 101.122 278.014 101.422C277.715 101.721 277.311 101.889 276.888 101.889Z" fill="#202D48"/>
<path d="M281.892 101.889C281.47 101.889 281.065 101.721 280.767 101.422C280.468 101.122 280.301 100.716 280.301 100.293V98.4161C280.301 97.9926 280.468 97.5864 280.767 97.287C281.065 96.9876 281.47 96.8193 281.892 96.8193C282.315 96.8193 282.719 96.9876 283.018 97.287C283.316 97.5864 283.484 97.9926 283.484 98.4161V100.293C283.484 100.716 283.316 101.122 283.018 101.422C282.719 101.721 282.315 101.889 281.892 101.889Z" fill="#202D48"/>
<path d="M286.924 101.889C286.502 101.889 286.097 101.721 285.798 101.422C285.5 101.122 285.332 100.716 285.332 100.293V98.4161C285.332 97.9926 285.5 97.5864 285.798 97.287C286.097 96.9876 286.502 96.8193 286.924 96.8193C287.346 96.8193 287.751 96.9876 288.049 97.287C288.348 97.5864 288.515 97.9926 288.515 98.4161V100.293C288.517 100.503 288.476 100.711 288.397 100.905C288.317 101.1 288.2 101.276 288.052 101.425C287.904 101.573 287.728 101.691 287.534 101.771C287.341 101.85 287.133 101.891 286.924 101.889Z" fill="#202D48"/>
<path d="M258.145 257.083V260.764H301.875V257.135C301.875 254.564 301.42 248.301 300.613 240.11H259.416C258.599 248.25 258.145 254.543 258.145 257.083Z" fill="#1B2B4C"/>
<path opacity="0.2" d="M292.228 182.037V78.6019C292.228 72.2254 287.369 25.7232 281.156 20.5391C285.715 34.6297 288.114 70.3072 287.917 75.9165L287.008 180.399C292.053 209.907 294.616 250.8 294.337 258.711L291.443 341.378H301.781V257.114C301.874 249.514 298.049 210.322 292.228 182.037Z" fill="black"/>
<g clip-path="url(#clip1_5768_32988)">
<path d="M372 154C372 149.582 375.582 146 380 146H528C532.418 146 536 149.582 536 154V252C536 256.418 532.418 260 528 260H380C375.582 260 372 256.418 372 252V154Z" fill="url(#paint0_linear_5768_32988)"/>
<path d="M391.39 171.12C390.777 171.12 390.243 170.963 389.79 170.65C389.343 170.337 389 169.91 388.76 169.37C388.52 168.823 388.4 168.2 388.4 167.5C388.4 166.767 388.527 166.13 388.78 165.59C389.033 165.05 389.387 164.633 389.84 164.34C390.293 164.047 390.817 163.9 391.41 163.9C391.897 163.9 392.333 163.997 392.72 164.19C393.107 164.377 393.423 164.647 393.67 165C393.917 165.353 394.063 165.77 394.11 166.25H393.15C393.097 165.77 392.913 165.383 392.6 165.09C392.287 164.797 391.887 164.65 391.4 164.65C390.987 164.65 390.623 164.767 390.31 165C389.997 165.233 389.75 165.567 389.57 166C389.397 166.427 389.31 166.93 389.31 167.51C389.31 168.097 389.4 168.607 389.58 169.04C389.76 169.467 390.007 169.797 390.32 170.03C390.633 170.257 390.99 170.37 391.39 170.37C391.73 170.37 392.027 170.3 392.28 170.16C392.54 170.02 392.747 169.823 392.9 169.57C393.06 169.317 393.157 169.02 393.19 168.68H394.14C394.093 169.167 393.95 169.597 393.71 169.97C393.477 170.337 393.163 170.62 392.77 170.82C392.377 171.02 391.917 171.12 391.39 171.12ZM398.564 171.12C397.977 171.12 397.467 170.973 397.034 170.68C396.601 170.38 396.264 169.96 396.024 169.42C395.791 168.873 395.674 168.237 395.674 167.51C395.674 166.777 395.791 166.14 396.024 165.6C396.264 165.06 396.601 164.643 397.034 164.35C397.467 164.05 397.977 163.9 398.564 163.9C399.151 163.9 399.661 164.05 400.094 164.35C400.527 164.643 400.861 165.06 401.094 165.6C401.334 166.14 401.454 166.777 401.454 167.51C401.454 168.237 401.334 168.873 401.094 169.42C400.861 169.96 400.527 170.38 400.094 170.68C399.661 170.973 399.151 171.12 398.564 171.12ZM398.564 170.37C398.964 170.37 399.311 170.253 399.604 170.02C399.904 169.787 400.134 169.457 400.294 169.03C400.461 168.597 400.544 168.09 400.544 167.51C400.544 166.93 400.461 166.427 400.294 166C400.134 165.573 399.904 165.243 399.604 165.01C399.311 164.77 398.964 164.65 398.564 164.65C398.164 164.65 397.814 164.77 397.514 165.01C397.221 165.243 396.991 165.573 396.824 166C396.657 166.427 396.574 166.93 396.574 167.51C396.574 168.09 396.657 168.597 396.824 169.03C396.991 169.457 397.221 169.787 397.514 170.02C397.814 170.253 398.164 170.37 398.564 170.37ZM403.328 171V164.02H404.388L407.618 169.84L407.548 167.81V164.02H408.398V171H407.338L404.098 165.23L404.178 167.2V171H403.328ZM412.562 171L410.242 164.02H411.142L412.782 168.83L413.172 170.24L413.562 168.84L415.202 164.02H416.092L413.772 171H412.562ZM418.076 171V164.02H423.036V164.77H418.946V167.01H421.816V167.76H418.946V170.25H423.076V171H418.076ZM426.06 167.98V167.23H427.89C428.216 167.23 428.503 167.18 428.75 167.08C429.003 166.973 429.2 166.823 429.34 166.63C429.486 166.43 429.56 166.2 429.56 165.94C429.56 165.7 429.496 165.493 429.37 165.32C429.243 165.147 429.073 165.013 428.86 164.92C428.646 164.82 428.41 164.77 428.15 164.77H426.06V164.02H428.15C428.596 164.02 428.993 164.097 429.34 164.25C429.693 164.403 429.97 164.623 430.17 164.91C430.37 165.197 430.47 165.54 430.47 165.94C430.47 166.207 430.41 166.463 430.29 166.71C430.176 166.95 430.006 167.167 429.78 167.36C429.553 167.547 429.28 167.697 428.96 167.81C428.64 167.923 428.273 167.98 427.86 167.98H426.06ZM425.44 171V164.02H426.3V171H425.44ZM429.52 171C429.466 170.68 429.37 170.367 429.23 170.06C429.096 169.753 428.916 169.46 428.69 169.18C428.47 168.9 428.193 168.637 427.86 168.39C427.526 168.143 427.14 167.917 426.7 167.71L427.66 167.49C428.126 167.717 428.523 167.967 428.85 168.24C429.176 168.507 429.446 168.79 429.66 169.09C429.88 169.383 430.046 169.69 430.16 170.01C430.273 170.33 430.35 170.66 430.39 171H429.52ZM435.183 171.12C434.657 171.12 434.193 171.02 433.793 170.82C433.4 170.62 433.093 170.327 432.873 169.94C432.653 169.553 432.543 169.083 432.543 168.53H433.403C433.403 169.117 433.563 169.57 433.883 169.89C434.203 170.21 434.637 170.37 435.183 170.37C435.643 170.37 436.017 170.263 436.303 170.05C436.597 169.83 436.743 169.523 436.743 169.13C436.743 168.87 436.667 168.66 436.513 168.5C436.367 168.333 436.17 168.203 435.923 168.11C435.683 168.01 435.42 167.923 435.133 167.85C434.847 167.77 434.557 167.687 434.263 167.6C433.977 167.507 433.71 167.393 433.463 167.26C433.223 167.12 433.03 166.937 432.883 166.71C432.737 166.483 432.663 166.193 432.663 165.84C432.663 165.46 432.76 165.123 432.953 164.83C433.153 164.537 433.43 164.31 433.783 164.15C434.143 163.983 434.567 163.9 435.053 163.9C435.527 163.9 435.95 163.987 436.323 164.16C436.697 164.333 436.993 164.58 437.213 164.9C437.433 165.213 437.55 165.59 437.563 166.03H436.693C436.687 165.75 436.61 165.507 436.463 165.3C436.317 165.093 436.12 164.933 435.873 164.82C435.633 164.707 435.36 164.65 435.053 164.65C434.607 164.65 434.247 164.757 433.973 164.97C433.707 165.177 433.573 165.457 433.573 165.81C433.573 166.05 433.647 166.243 433.793 166.39C433.94 166.537 434.133 166.657 434.373 166.75C434.62 166.837 434.887 166.917 435.173 166.99C435.467 167.063 435.757 167.147 436.043 167.24C436.337 167.327 436.603 167.443 436.843 167.59C437.09 167.737 437.287 167.933 437.433 168.18C437.58 168.427 437.653 168.74 437.653 169.12C437.653 169.533 437.543 169.89 437.323 170.19C437.11 170.49 436.817 170.72 436.443 170.88C436.07 171.04 435.65 171.12 435.183 171.12ZM441.937 171V164.02H442.807V171H441.937ZM440.147 164.02H444.597V164.77H440.147V164.02ZM440.147 170.25H444.597V171H440.147V170.25ZM449.691 171.12C449.105 171.12 448.595 170.973 448.161 170.68C447.728 170.38 447.391 169.96 447.151 169.42C446.918 168.873 446.801 168.237 446.801 167.51C446.801 166.777 446.918 166.14 447.151 165.6C447.391 165.06 447.728 164.643 448.161 164.35C448.595 164.05 449.105 163.9 449.691 163.9C450.278 163.9 450.788 164.05 451.221 164.35C451.655 164.643 451.988 165.06 452.221 165.6C452.461 166.14 452.581 166.777 452.581 167.51C452.581 168.237 452.461 168.873 452.221 169.42C451.988 169.96 451.655 170.38 451.221 170.68C450.788 170.973 450.278 171.12 449.691 171.12ZM449.691 170.37C450.091 170.37 450.438 170.253 450.731 170.02C451.031 169.787 451.261 169.457 451.421 169.03C451.588 168.597 451.671 168.09 451.671 167.51C451.671 166.93 451.588 166.427 451.421 166C451.261 165.573 451.031 165.243 450.731 165.01C450.438 164.77 450.091 164.65 449.691 164.65C449.291 164.65 448.941 164.77 448.641 165.01C448.348 165.243 448.118 165.573 447.951 166C447.785 166.427 447.701 166.93 447.701 167.51C447.701 168.09 447.785 168.597 447.951 169.03C448.118 169.457 448.348 169.787 448.641 170.02C448.941 170.253 449.291 170.37 449.691 170.37ZM454.455 171V164.02H455.515L458.745 169.84L458.675 167.81V164.02H459.525V171H458.465L455.225 165.23L455.305 167.2V171H454.455ZM464.399 171.12C463.872 171.12 463.409 171.02 463.009 170.82C462.616 170.62 462.309 170.327 462.089 169.94C461.869 169.553 461.759 169.083 461.759 168.53H462.619C462.619 169.117 462.779 169.57 463.099 169.89C463.419 170.21 463.852 170.37 464.399 170.37C464.859 170.37 465.232 170.263 465.519 170.05C465.812 169.83 465.959 169.523 465.959 169.13C465.959 168.87 465.882 168.66 465.729 168.5C465.582 168.333 465.386 168.203 465.139 168.11C464.899 168.01 464.636 167.923 464.349 167.85C464.062 167.77 463.772 167.687 463.479 167.6C463.192 167.507 462.926 167.393 462.679 167.26C462.439 167.12 462.246 166.937 462.099 166.71C461.952 166.483 461.879 166.193 461.879 165.84C461.879 165.46 461.976 165.123 462.169 164.83C462.369 164.537 462.646 164.31 462.999 164.15C463.359 163.983 463.782 163.9 464.269 163.9C464.742 163.9 465.166 163.987 465.539 164.16C465.912 164.333 466.209 164.58 466.429 164.9C466.649 165.213 466.766 165.59 466.779 166.03H465.909C465.902 165.75 465.826 165.507 465.679 165.3C465.532 165.093 465.336 164.933 465.089 164.82C464.849 164.707 464.576 164.65 464.269 164.65C463.822 164.65 463.462 164.757 463.189 164.97C462.922 165.177 462.789 165.457 462.789 165.81C462.789 166.05 462.862 166.243 463.009 166.39C463.156 166.537 463.349 166.657 463.589 166.75C463.836 166.837 464.102 166.917 464.389 166.99C464.682 167.063 464.972 167.147 465.259 167.24C465.552 167.327 465.819 167.443 466.059 167.59C466.306 167.737 466.502 167.933 466.649 168.18C466.796 168.427 466.869 168.74 466.869 169.12C466.869 169.533 466.759 169.89 466.539 170.19C466.326 170.49 466.032 170.72 465.659 170.88C465.286 171.04 464.866 171.12 464.399 171.12Z" fill="#717C99"/>
<path d="M388 240.923C388 239.82 388.894 238.926 389.998 238.926H403.145C404.248 238.926 405.143 239.82 405.143 240.923V246H388V240.923Z" fill="#8547FF"/>
<path d="M407.145 235.87C407.145 234.766 408.039 233.872 409.142 233.872H422.29C423.393 233.872 424.287 234.766 424.287 235.87V246H407.145V235.87Z" fill="#8547FF"/>
<path d="M426.285 229.806C426.285 228.703 427.18 227.809 428.283 227.809H441.43C442.534 227.809 443.428 228.703 443.428 229.806V246H426.285V229.806Z" fill="#8547FF"/>
<path d="M445.43 223.743C445.43 222.64 446.324 221.745 447.427 221.745H460.575C461.678 221.745 462.573 222.64 462.573 223.743V246H445.43V223.743Z" fill="#8547FF"/>
<path d="M464.57 206.998C464.57 205.894 465.465 205 466.568 205H479.716C480.819 205 481.713 205.894 481.713 206.998V246H464.57V206.998Z" fill="#8547FF"/>
<path d="M483.715 209.998C483.715 208.894 484.609 208 485.713 208H498.86C499.963 208 500.858 208.894 500.858 209.998V246H483.715V209.998Z" fill="#8547FF"/>
<path d="M502.855 203.998C502.855 202.894 503.75 202 504.853 202H518.001C519.104 202 519.998 202.894 519.998 203.998V246H502.855V203.998Z" fill="#8547FF"/>
</g>
<rect x="394" y="48" width="48" height="48" rx="7.27273" fill="url(#paint1_linear_5768_32988)"/>
<path d="M429 65V76C429 76.5304 428.789 77.0391 428.414 77.4142C428.039 77.7893 427.53 78 427 78H425V82L419 78H418" stroke="#2F6FF0" stroke-width="2" stroke-linecap="round" stroke-linejoin="round"/>
<path d="M423 62H409C408.47 62 407.961 62.2107 407.586 62.5858C407.211 62.9609 407 63.4696 407 64V72C407 72.5304 407.211 73.0391 407.586 73.4142C407.961 73.7893 408.47 74 409 74H411V79L418 74H423C423.53 74 424.039 73.7893 424.414 73.4142C424.789 73.0391 425 72.5304 425 72V64C425 63.4696 424.789 62.9609 424.414 62.5858C424.039 62.2107 423.53 62 423 62Z" stroke="#2F6FF0" stroke-width="2" stroke-linecap="round" stroke-linejoin="round"/>
<rect x="116" y="192" width="48" height="48" rx="8" fill="url(#paint2_linear_5768_32988)"/>
<g clip-path="url(#clip2_5768_32988)">
<path d="M135.968 219.906L138.187 224.778C138.549 225.589 138.185 226.539 137.374 226.901C136.563 227.263 135.613 226.899 135.251 226.088L131.074 216.851" stroke="#038585" stroke-width="2" stroke-linecap="round" stroke-linejoin="round"/>
<path d="M144 222L136 217H132C130.343 217 129 215.657 129 214C129 212.343 130.343 211 132 211H136L144 206V222Z" stroke="#038585" stroke-width="2" stroke-linecap="round" stroke-linejoin="round"/>
<path d="M149 214H151" stroke="#038585" stroke-width="2" stroke-linecap="round" stroke-linejoin="round"/>
<path d="M147.793 209.5L149.525 208.5" stroke="#038585" stroke-width="2" stroke-linecap="round" stroke-linejoin="round"/>
<path d="M147.793 218.5L149.525 219.5" stroke="#038585" stroke-width="2" stroke-linecap="round" stroke-linejoin="round"/>
</g>
<rect x="466" y="24" width="48" height="48" rx="8" fill="url(#paint3_linear_5768_32988)"/>
<g clip-path="url(#clip3_5768_32988)">
<path d="M501 41H479V59H501V41Z" stroke="#8547FF" stroke-width="2" stroke-linecap="round" stroke-linejoin="round"/>
<path d="M486 41V37H494V41" stroke="#8547FF" stroke-width="2" stroke-linecap="round" stroke-linejoin="round"/>
<path d="M488 54V46L494 50L488 54Z" stroke="#8547FF" stroke-width="2" stroke-linecap="round" stroke-linejoin="round"/>
</g>
<rect x="44" y="168" width="48" height="48" rx="8" fill="url(#paint4_linear_5768_32988)"/>
<path d="M62.997 198.487C59.503 197.25 57 193.918 57 190C57 185.029 61.029 181 66 181C69.92 181 73.254 183.506 74.489 187.003" stroke="#2F6FF0" stroke-width="2" stroke-linecap="round" stroke-linejoin="round"/>
<path d="M63.003 194.003C61.787 193.091 61 191.637 61 190C61 187.239 63.239 185 66 185C67.636 185 69.088 185.785 70 187" stroke="#2F6FF0" stroke-width="2" stroke-linecap="round" stroke-linejoin="round"/>
<path d="M66 190L67 201L70 198L74 202L78 198L74 194L77 191L66 190Z" stroke="#2F6FF0" stroke-width="2" stroke-linecap="round" stroke-linejoin="round"/>
</g>
<defs>
<linearGradient id="paint0_linear_5768_32988" x1="454" y1="146" x2="454" y2="260" gradientUnits="userSpaceOnUse">
<stop stop-color="#161E33"/>
<stop offset="1" stop-color="#0E1424"/>
</linearGradient>
<linearGradient id="paint1_linear_5768_32988" x1="418" y1="48" x2="418" y2="96" gradientUnits="userSpaceOnUse">
<stop stop-color="#28324D"/>
<stop offset="1" stop-color="#141B2E"/>
</linearGradient>
<linearGradient id="paint2_linear_5768_32988" x1="140" y1="192" x2="140" y2="240" gradientUnits="userSpaceOnUse">
<stop stop-color="#28324D"/>
<stop offset="1" stop-color="#141B2E"/>
</linearGradient>
<linearGradient id="paint3_linear_5768_32988" x1="490" y1="24" x2="490" y2="72" gradientUnits="userSpaceOnUse">
<stop stop-color="#28324D"/>
<stop offset="1" stop-color="#141B2E"/>
</linearGradient>
<linearGradient id="paint4_linear_5768_32988" x1="68" y1="168" x2="68" y2="216" gradientUnits="userSpaceOnUse">
<stop stop-color="#28324D"/>
<stop offset="1" stop-color="#141B2E"/>
</linearGradient>
<clipPath id="clip0_5768_32988">
<rect width="560" height="400" fill="white"/>
</clipPath>
<clipPath id="clip1_5768_32988">
<path d="M372 154C372 149.582 375.582 146 380 146H528C532.418 146 536 149.582 536 154V252C536 256.418 532.418 260 528 260H380C375.582 260 372 256.418 372 252V154Z" fill="white"/>
</clipPath>
<clipPath id="clip2_5768_32988">
<rect width="24" height="24" fill="white" transform="translate(128 204)"/>
</clipPath>
<clipPath id="clip3_5768_32988">
<rect width="24" height="24" fill="white" transform="translate(478 36)"/>
</clipPath>
</defs>
</svg>
