<svg width="560" height="400" viewBox="0 0 560 400" fill="none" xmlns="http://www.w3.org/2000/svg">
<g clip-path="url(#clip0_5768_32988)">
<rect width="80" height="80" stroke="#161E33"/>
<rect x="80" width="80" height="80" stroke="#161E33"/>
<rect x="160" width="80" height="80" stroke="#161E33"/>
<rect x="240" width="80" height="80" stroke="#161E33"/>
<rect x="320" width="80" height="80" stroke="#161E33"/>
<rect x="400" width="80" height="80" stroke="#161E33"/>
<rect x="480" width="80" height="80" stroke="#161E33"/>
<rect y="80" width="80" height="80" stroke="#161E33"/>
<rect x="80" y="80" width="80" height="80" stroke="#161E33"/>
<rect x="160" y="80" width="80" height="80" stroke="#161E33"/>
<rect x="240" y="80" width="80" height="80" stroke="#161E33"/>
<rect x="320" y="80" width="80" height="80" stroke="#161E33"/>
<rect x="400" y="80" width="80" height="80" stroke="#161E33"/>
<rect x="480" y="80" width="80" height="80" stroke="#161E33"/>
<rect y="160" width="80" height="80" stroke="#161E33"/>
<rect x="80" y="160" width="80" height="80" stroke="#161E33"/>
<rect x="160" y="160" width="80" height="80" stroke="#161E33"/>
<rect x="240" y="160" width="80" height="80" stroke="#161E33"/>
<rect x="320" y="160" width="80" height="80" stroke="#161E33"/>
<rect x="400" y="160" width="80" height="80" stroke="#161E33"/>
<rect x="480" y="160" width="80" height="80" stroke="#161E33"/>
<rect y="240" width="80" height="80" stroke="#161E33"/>
<rect x="80" y="240" width="80" height="80" stroke="#161E33"/>
<rect x="160" y="240" width="80" height="80" stroke="#161E33"/>
<rect x="240" y="240" width="80" height="80" stroke="#161E33"/>
<rect x="320" y="240" width="80" height="80" stroke="#161E33"/>
<rect x="400" y="240" width="80" height="80" stroke="#161E33"/>
<rect x="480" y="240" width="80" height="80" stroke="#161E33"/>
<path d="M170.054 177.701L168.531 178.584V180.348L170.054 181.231L171.577 180.348V178.584L170.054 177.701Z" fill="#8547FF"/>
<path d="M429.523 291L428 291.882V293.647L429.523 294.529L431.046 293.647V291.882L429.523 291Z" fill="#8547FF"/>
<path d="M241.042 297.059L239.52 297.941V299.706L241.042 300.588L242.565 299.706V297.941L241.042 297.059Z" fill="#8547FF"/>
<path d="M179.277 367.647L177.754 368.53V370.295L179.277 371.177L180.8 370.295V368.53L179.277 367.647Z" fill="#8547FF"/>
<path d="M119.277 302.353L117.754 303.235V305L119.277 305.882L120.8 305V303.235L119.277 302.353Z" fill="#8547FF"/>
<path d="M60.523 143L59 143.882V145.647L60.523 146.529L62.0459 145.647V143.882L60.523 143Z" fill="#8547FF"/>
<path d="M138.687 28.8232L137.164 29.7056V31.4703L138.687 32.3527L140.21 31.4703V29.7056L138.687 28.8232Z" fill="#8547FF"/>
<path d="M351.523 11L350 11.8824V13.6471L351.523 14.5294L353.046 13.6471V11.8824L351.523 11Z" fill="#8547FF"/>
<path d="M465.16 217.647L463.637 218.53V220.295L465.16 221.177L466.683 220.295V218.53L465.16 217.647Z" fill="#8547FF"/>
<path d="M374.113 60.2676L372.59 61.1499V62.9146L374.113 63.797L375.636 62.9146V61.1499L374.113 60.2676Z" fill="#8547FF"/>
<path d="M370.523 135L369 135.882V137.647L370.523 138.529L372.046 137.647V135.882L370.523 135Z" fill="#8547FF"/>
<path d="M222.031 39.0908L220.508 39.9732V41.7379L222.031 42.6202L223.554 41.7379V39.9732L222.031 39.0908Z" fill="#8547FF"/>
<path d="M348.523 261L347 261.882V263.647L348.523 264.529L350.046 263.647V261.882L348.523 261Z" fill="#2F6FF0"/>
<path d="M173.523 305L172 305.882V307.647L173.523 308.529L175.046 307.647V305.882L173.523 305Z" fill="#2F6FF0"/>
<path d="M54.523 259L53 259.882V261.647L54.523 262.529L56.0459 261.647V259.882L54.523 259Z" fill="#2F6FF0"/>
<path d="M51.523 33L50 33.8824V35.6471L51.523 36.5294L53.0459 35.6471V33.8824L51.523 33Z" fill="#2F6FF0"/>
<path d="M507.523 135L506 135.882V137.647L507.523 138.529L509.046 137.647V135.882L507.523 135Z" fill="#2F6FF0"/>
<path d="M536.523 278L535 278.882V280.647L536.523 281.529L538.046 280.647V278.882L536.523 278Z" fill="#2F6FF0"/>
<path d="M134.523 132L133 132.882V134.647L134.523 135.529L136.046 134.647V132.882L134.523 132Z" fill="#2F6FF0"/>
<path d="M337.523 97L336 97.8824V99.6471L337.523 100.529L339.046 99.6471V97.8824L337.523 97Z" fill="#2F6FF0"/>
<path d="M421.523 119L420 119.882V121.647L421.523 122.529L423.046 121.647V119.882L421.523 119Z" fill="#DC244C"/>
<path d="M200.851 112.246L199.328 113.128V114.893L200.851 115.776L202.374 114.893V113.128L200.851 112.246Z" fill="#DC244C"/>
<path d="M188.523 253L187 253.882V255.647L188.523 256.529L190.046 255.647V253.882L188.523 253Z" fill="#DC244C"/>
<path d="M375.523 303L374 303.882V305.647L375.523 306.529L377.046 305.647V303.882L375.523 303Z" fill="#DC244C"/>
<path d="M305.523 37L304 37.8824V39.6471L305.523 40.5294L307.046 39.6471V37.8824L305.523 37Z" fill="#DC244C"/>
<path d="M27.523 101L26 101.882V103.647L27.523 104.529L29.0459 103.647V101.882L27.523 101Z" fill="#DC244C"/>
<path d="M24.523 304L23 304.882V306.647L24.523 307.529L26.0459 306.647V304.882L24.523 304Z" fill="#DC244C"/>
<path d="M505.746 222.941L504.223 223.824V225.588L505.746 226.471L507.269 225.588V223.824L505.746 222.941Z" fill="#DC244C"/>
<path d="M491.628 94.1172L490.105 94.9995V96.7642L491.628 97.6466L493.151 96.7642V94.9995L491.628 94.1172Z" fill="#038585"/>
<path d="M51.523 198L50 198.882V200.647L51.523 201.529L53.0459 200.647V198.882L51.523 198Z" fill="#038585"/>
<path d="M338.523 195L337 195.882V197.647L338.523 198.529L340.046 197.647V195.882L338.523 195Z" fill="#038585"/>
<path d="M492.523 309L491 309.882V311.647L492.523 312.529L494.046 311.647V309.882L492.523 309Z" fill="#038585"/>
<path d="M313.394 348.235L311.871 349.118V350.882L313.394 351.765L314.917 350.882V349.118L313.394 348.235Z" fill="#038585"/>
<path d="M283.636 83.3691L282.113 84.2515V86.0162L283.636 86.8986L285.159 86.0162V84.2515L283.636 83.3691Z" fill="#038585"/>
<path d="M416.472 239.305L414.949 240.187V241.952L416.472 242.834L417.995 241.952V240.187L416.472 239.305Z" fill="#038585"/>
<path d="M122.523 90L121 90.8824V92.6471L122.523 93.5294L124.046 92.6471V90.8824L122.523 90Z" fill="#038585"/>
<path d="M237.511 348.235L235.988 349.118V350.882L237.511 351.765L239.034 350.882V349.118L237.511 348.235Z" fill="#038585"/>
<path d="M521.523 40L520 40.8824V42.6471L521.523 43.5294L523.046 42.6471V40.8824L521.523 40Z" fill="#2F6FF0"/>
<path d="M442.523 69L441 69.8824V71.6471L442.523 72.5294L444.046 71.6471V69.8824L442.523 69Z" fill="#8547FF"/>
<path d="M457.523 15L456 15.8824V17.6471L457.523 18.5294L459.046 17.6471V15.8824L457.523 15Z" fill="#038585"/>
<path d="M544.523 196L543 196.882V198.647L544.523 199.529L546.046 198.647V196.882L544.523 196Z" fill="#038585"/>
<path d="M111.523 195L110 195.882V197.647L111.523 198.529L113.046 197.647V195.882L111.523 195Z" fill="#038585"/>
<path d="M284.3 211.907H185.478L173 61.96H271.822L284.3 211.907Z" fill="#0B101A"/>
<path d="M191.005 334.079C190.87 334.068 190.737 334.031 190.616 333.969C190.494 333.907 190.386 333.821 190.298 333.717C190.209 333.613 190.142 333.493 190.1 333.363C190.059 333.232 190.043 333.095 190.054 332.959L210.855 83.0088H212.922V85.0825H212.788L192.112 333.135C192.088 333.407 191.959 333.658 191.752 333.835C191.544 334.011 191.276 334.099 191.005 334.079Z" fill="#1B2B4C"/>
<path d="M283.426 334.079C283.562 334.068 283.695 334.031 283.816 333.969C283.938 333.907 284.046 333.821 284.134 333.717C284.223 333.613 284.29 333.493 284.331 333.363C284.373 333.232 284.389 333.095 284.377 332.959L263.577 83.0088H261.51V85.0825H261.675L274.97 244.921H208.062L194.622 83.0088H192.555V85.0825H192.72L213.396 333.135C213.42 333.409 213.551 333.662 213.76 333.838C213.969 334.015 214.24 334.102 214.513 334.079C214.649 334.068 214.781 334.031 214.903 333.969C215.024 333.907 215.132 333.821 215.221 333.717C215.309 333.613 215.376 333.493 215.418 333.363C215.459 333.232 215.475 333.095 215.464 332.959L208.31 246.995H275.218L282.382 333.135C282.406 333.396 282.526 333.637 282.72 333.812C282.913 333.987 283.166 334.082 283.426 334.079Z" fill="#1B2B4C"/>
<path d="M288.21 211.907H189.388L176.91 61.96H275.732L288.21 211.907Z" fill="#111827"/>
<path d="M275.65 65.4857H176.756C175.891 65.4802 175.063 65.1315 174.453 64.5157C173.842 63.8999 173.5 63.067 173.5 62.1989C173.5 61.3272 173.845 60.4912 174.46 59.8748C175.074 59.2584 175.908 58.9121 176.777 58.9121H275.671C276.54 58.9121 277.374 59.2584 277.988 59.8748C278.603 60.4912 278.948 61.3272 278.948 62.1989C278.948 62.6323 278.863 63.0614 278.697 63.4615C278.531 63.8616 278.288 64.2249 277.981 64.5303C277.675 64.8358 277.311 65.0775 276.911 65.2414C276.511 65.4054 276.083 65.4884 275.65 65.4857Z" fill="#24386C"/>
<path d="M236.273 181.456L223.34 195.214C223.153 195.37 222.928 195.472 222.688 195.509C222.448 195.546 222.203 195.516 221.978 195.423C221.754 195.331 221.559 195.178 221.414 194.982C221.27 194.786 221.181 194.555 221.159 194.312L220.621 189.916L233.812 161.32L236.273 181.456Z" fill="#1B2B4C"/>
<path d="M244.73 181.466L261.033 195.225C261.196 195.401 261.41 195.521 261.645 195.568C261.879 195.615 262.123 195.587 262.341 195.487C262.558 195.387 262.739 195.22 262.857 195.011C262.975 194.802 263.024 194.561 262.997 194.323L262.449 189.927L242.27 161.32L244.73 181.466Z" fill="#1B2B4C"/>
<path d="M246.381 194.935H237.914L238.555 186.454H243.672L246.381 194.935Z" fill="#1B2B4C"/>
<path d="M238.689 132.01L234.306 96.1661C234.027 93.8229 229.933 75.8545 227.596 75.8545C225.26 75.8545 225.529 93.8229 225.849 96.1661L230.233 132.01C229.6 140.664 229.541 149.351 230.057 158.013L233.624 187.211H248.779L245.212 158.003C243.579 149.211 241.401 140.53 238.689 132.01Z" fill="#24386C"/>
<path d="M270.359 198.014L266.172 198.004L266.306 192.343H268.839L270.359 198.014Z" fill="#1B2B4C"/>
<path d="M263.947 193.691L260.401 164.66C260.132 162.482 259.791 145.769 261.879 145.769C263.968 145.769 267.71 162.482 267.979 164.66L271.525 193.691H263.947Z" fill="#1B2B4C"/>
<path d="M218.689 198.005H214.492L214.627 192.333H217.17L218.689 198.005Z" fill="#1B2B4C"/>
<path d="M212.278 193.68L208.732 164.649C208.463 162.472 208.111 145.758 210.21 145.758C212.309 145.758 216.041 162.472 216.299 164.649L219.845 193.68H212.278Z" fill="#1B2B4C"/>
<path d="M224.569 109.841L221.291 105.144L220.713 98.2285H188.551L189.316 107.405H220.444L224.569 109.841Z" fill="#1B2B4C"/>
<path d="M242.195 134.726L245.472 130.029L246.051 123.113H278.203L277.438 132.289H246.32L242.195 134.726Z" fill="#1B2B4C"/>
<path d="M280.409 380C371.762 380 445.818 374.661 445.818 368.076C445.818 361.491 371.762 356.152 280.409 356.152C189.056 356.152 115 361.491 115 368.076C115 374.661 189.056 380 280.409 380Z" fill="#02050E"/>
<path d="M292.189 363.639L267.781 363.628L272.609 339.148L287.372 339.159L292.189 363.639Z" fill="#202D48"/>
<path d="M267.79 324.736L225.611 364.447C225.105 364.922 224.471 365.238 223.788 365.357C223.105 365.476 222.403 365.391 221.767 365.115C221.131 364.838 220.589 364.382 220.209 363.801C219.828 363.22 219.625 362.54 219.625 361.845V349.133L267.79 266.611V324.736Z" fill="#5573A9"/>
<path d="M292.195 324.747L334.354 364.448C334.858 364.923 335.49 365.24 336.172 365.36C336.854 365.48 337.556 365.397 338.191 365.121C338.826 364.846 339.367 364.39 339.747 363.809C340.127 363.229 340.33 362.55 340.329 361.856V349.165L292.195 266.622V324.747Z" fill="#5573A9"/>
<path d="M292.229 182.037V78.602C292.229 71.8418 286.781 20 280.041 20C273.3 20 267.821 71.8418 267.821 78.602V182.037C261.99 210.311 258.145 249.504 258.145 257.083V341.347H301.875V257.083C301.875 249.514 298.049 210.322 292.229 182.037Z" fill="#5573A9"/>
<path d="M318.822 372.494H306.727L309.125 356.143H316.434L318.822 372.494Z" fill="#202D48"/>
<path d="M301.844 360.03V276.296C301.844 270.012 306.754 221.789 312.792 221.789C318.829 221.789 323.729 270.012 323.729 276.316V360.051L301.844 360.03Z" fill="#1B2B4C"/>
<path opacity="0.2" d="M313.973 222.401C317.684 238.182 319.493 269.246 319.286 274.482L315.947 360.041H323.711V276.306C323.732 270.428 319.462 227.907 313.973 222.401Z" fill="black"/>
<path d="M323.728 278.908H301.863V290.915H323.728V278.908Z" fill="#5573A9"/>
<path d="M253.236 372.483L241.141 372.473L243.539 356.122H250.848L253.236 372.483Z" fill="#202D48"/>
<path d="M236.266 360.021V276.317C236.266 270.034 241.176 221.811 247.214 221.811C253.251 221.811 258.131 270.044 258.131 276.327V360.062L236.266 360.021Z" fill="#1B2B4C"/>
<path opacity="0.2" d="M248.387 222.401C252.098 238.192 253.907 269.246 253.7 274.482L250.361 360.041H258.125V276.306C258.146 270.407 253.845 227.897 248.387 222.401Z" fill="black"/>
<path d="M258.146 278.888H236.281V290.894H258.146V278.888Z" fill="#5573A9"/>
<path d="M292.261 84.8123V78.5913C292.261 78.5913 292.261 78.4565 292.261 78.415H267.863C267.863 78.4669 267.863 78.5602 267.863 78.6017V84.8227L292.261 84.8123Z" fill="#1B2B4C"/>
<path d="M292.24 174.178H267.832V180.938H292.24V174.178Z" fill="#1B2B4C"/>
<path d="M267.787 334.534H261.574L264.686 308.966L267.787 308.976V334.534Z" fill="#202D48"/>
<path d="M277.549 334.545L271.336 334.535L273.414 308.977H277.559L277.549 334.545Z" fill="#202D48"/>
<path d="M287.308 334.545H281.105V308.977H285.251L287.308 334.545Z" fill="#202D48"/>
<path d="M297.066 334.545H290.863V308.977H293.975L297.066 334.545Z" fill="#202D48"/>
<path d="M271.873 93.6053C271.451 93.6053 271.046 93.4371 270.747 93.1377C270.449 92.8382 270.281 92.4321 270.281 92.0086V90.1319C270.281 89.9214 270.323 89.7129 270.403 89.5185C270.484 89.3241 270.602 89.1476 270.751 88.9992C270.9 88.8508 271.077 88.7334 271.271 88.6538C271.465 88.5741 271.673 88.5338 271.883 88.5352C272.305 88.5352 272.71 88.7034 273.009 89.0029C273.307 89.3023 273.475 89.7084 273.475 90.1319V92.0086C273.475 92.2192 273.433 92.4276 273.353 92.622C273.272 92.8164 273.154 92.9929 273.005 93.1413C272.856 93.2897 272.679 93.4071 272.485 93.4868C272.291 93.5664 272.083 93.6067 271.873 93.6053Z" fill="#202D48"/>
<path d="M276.888 93.6043C276.466 93.6043 276.062 93.4361 275.763 93.1366C275.465 92.8372 275.297 92.4311 275.297 92.0076V90.1309C275.297 89.7074 275.465 89.3013 275.763 89.0018C276.062 88.7024 276.466 88.5342 276.888 88.5342C277.311 88.5342 277.715 88.7024 278.014 89.0018C278.312 89.3013 278.48 89.7074 278.48 90.1309V92.0076C278.48 92.4311 278.312 92.8372 278.014 93.1366C277.715 93.4361 277.311 93.6043 276.888 93.6043Z" fill="#202D48"/>
<path d="M281.892 93.6043C281.47 93.6043 281.065 93.4361 280.767 93.1366C280.468 92.8372 280.301 92.4311 280.301 92.0076V90.1309C280.301 89.7074 280.468 89.3013 280.767 89.0018C281.065 88.7024 281.47 88.5342 281.892 88.5342C282.315 88.5342 282.719 88.7024 283.018 89.0018C283.316 89.3013 283.484 89.7074 283.484 90.1309V92.0076C283.484 92.4311 283.316 92.8372 283.018 93.1366C282.719 93.4361 282.315 93.6043 281.892 93.6043Z" fill="#202D48"/>
<path d="M286.924 93.6147C286.714 93.6147 286.506 93.573 286.312 93.4922C286.118 93.4113 285.942 93.2927 285.795 93.1434C285.647 92.994 285.53 92.8167 285.45 92.6218C285.371 92.4269 285.331 92.2181 285.332 92.0076V90.1309C285.332 89.7074 285.5 89.3013 285.798 89.0018C286.097 88.7024 286.502 88.5342 286.924 88.5342C287.346 88.5342 287.751 88.7024 288.049 89.0018C288.348 89.3013 288.515 89.7074 288.515 90.1309V92.018C288.515 92.4414 288.348 92.8476 288.049 93.147C287.751 93.4465 287.346 93.6147 286.924 93.6147Z" fill="#202D48"/>
<path d="M271.873 101.89C271.451 101.89 271.046 101.721 270.747 101.422C270.449 101.122 270.281 100.716 270.281 100.293V98.4161C270.281 98.2055 270.323 97.9971 270.403 97.8027C270.484 97.6082 270.602 97.4318 270.751 97.2833C270.9 97.1349 271.077 97.0175 271.271 96.9379C271.465 96.8583 271.673 96.818 271.883 96.8194C272.305 96.8194 272.71 96.9876 273.009 97.287C273.307 97.5865 273.475 97.9926 273.475 98.4161V100.293C273.475 100.503 273.433 100.712 273.353 100.906C273.272 101.101 273.154 101.277 273.005 101.426C272.856 101.574 272.679 101.691 272.485 101.771C272.291 101.851 272.083 101.891 271.873 101.89Z" fill="#202D48"/>
<path d="M276.888 101.889C276.466 101.889 276.062 101.721 275.763 101.422C275.465 101.122 275.297 100.716 275.297 100.293V98.4161C275.297 97.9926 275.465 97.5864 275.763 97.287C276.062 96.9876 276.466 96.8193 276.888 96.8193C277.311 96.8193 277.715 96.9876 278.014 97.287C278.312 97.5864 278.48 97.9926 278.48 98.4161V100.293C278.48 100.716 278.312 101.122 278.014 101.422C277.715 101.721 277.311 101.889 276.888 101.889Z" fill="#202D48"/>
<path d="M281.892 101.889C281.47 101.889 281.065 101.721 280.767 101.422C280.468 101.122 280.301 100.716 280.301 100.293V98.4161C280.301 97.9926 280.468 97.5864 280.767 97.287C281.065 96.9876 281.47 96.8193 281.892 96.8193C282.315 96.8193 282.719 96.9876 283.018 97.287C283.316 97.5864 283.484 97.9926 283.484 98.4161V100.293C283.484 100.716 283.316 101.122 283.018 101.422C282.719 101.721 282.315 101.889 281.892 101.889Z" fill="#202D48"/>
<path d="M286.924 101.889C286.502 101.889 286.097 101.721 285.798 101.422C285.5 101.122 285.332 100.716 285.332 100.293V98.4161C285.332 97.9926 285.5 97.5864 285.798 97.287C286.097 96.9876 286.502 96.8193 286.924 96.8193C287.346 96.8193 287.751 96.9876 288.049 97.287C288.348 97.5864 288.515 97.9926 288.515 98.4161V100.293C288.517 100.503 288.476 100.711 288.397 100.905C288.317 101.1 288.2 101.276 288.052 101.425C287.904 101.573 287.728 101.691 287.534 101.771C287.341 101.85 287.133 101.891 286.924 101.889Z" fill="#202D48"/>
<path d="M258.145 257.083V260.764H301.875V257.135C301.875 254.564 301.42 248.301 300.613 240.11H259.416C258.599 248.25 258.145 254.543 258.145 257.083Z" fill="#1B2B4C"/>
<path opacity="0.2" d="M292.228 182.037V78.6019C292.228 72.2254 287.369 25.7232 281.156 20.5391C285.715 34.6297 288.114 70.3072 287.917 75.9165L287.008 180.399C292.053 209.907 294.616 250.8 294.337 258.711L291.443 341.378H301.781V257.114C301.874 249.514 298.049 210.322 292.228 182.037Z" fill="black"/>
<rect x="88" y="68" width="48" height="48" rx="8" fill="url(#paint0_linear_5768_32988)"/>
<path d="M121.629 96.1907C121.579 96.0007 121.497 95.8204 121.388 95.6571C121.411 95.5711 121.429 95.4837 121.441 95.3954C121.519 94.8352 121.324 94.3223 120.958 93.9254C120.76 93.7087 120.548 93.5655 120.322 93.4777C120.47 92.8455 120.545 92.1985 120.545 91.5494C120.545 91.2529 120.528 90.9625 120.5 90.6763C120.486 90.5335 120.468 90.391 120.447 90.2488C120.383 89.8295 120.287 89.4155 120.161 89.0104C120.079 88.7442 119.983 88.4822 119.875 88.2253C119.713 87.8449 119.523 87.4766 119.309 87.1234C119.168 86.8884 119.014 86.6611 118.848 86.4426C118.767 86.3322 118.683 86.2245 118.595 86.1195C118.335 85.803 118.052 85.5058 117.748 85.2302C117.647 85.1375 117.544 85.0481 117.437 84.9619C117.333 84.8745 117.226 84.79 117.116 84.7084C116.897 84.5448 116.669 84.3913 116.436 84.2484C115.144 83.4637 113.628 83.0137 112.009 83.0137C107.294 83.0137 103.473 86.8351 103.473 91.5497C103.473 92.2071 103.549 92.8622 103.7 93.502C103.497 93.5899 103.303 93.727 103.123 93.9252C102.757 94.3219 102.563 94.8329 102.641 95.3932C102.653 95.4821 102.67 95.5703 102.694 95.6569C102.585 95.8203 102.503 96.0007 102.453 96.1907C102.34 96.6183 102.377 97.0039 102.52 97.3418C102.365 97.7833 102.404 98.2536 102.606 98.6624C102.753 98.961 102.964 99.192 103.224 99.3985C103.532 99.6439 103.919 99.8524 104.385 100.052C104.941 100.29 105.62 100.512 105.929 100.594C106.726 100.801 107.491 100.932 108.266 100.938C109.37 100.948 110.32 100.689 111.001 100.024C111.336 100.065 111.672 100.086 112.009 100.085C112.365 100.085 112.721 100.062 113.074 100.018C113.753 100.687 114.708 100.949 115.816 100.938C116.591 100.932 117.355 100.801 118.151 100.595C118.461 100.513 119.14 100.29 119.696 100.053C120.162 99.8526 120.549 99.6441 120.86 99.399C121.117 99.1925 121.328 98.9616 121.475 98.663C121.68 98.254 121.716 97.7838 121.563 97.3422C121.705 97.0044 121.741 96.6179 121.629 96.1907ZM120.838 97.3132C120.994 97.6105 121.004 97.9464 120.866 98.2592C120.657 98.7333 120.136 99.1068 119.125 99.5078C118.496 99.7571 117.92 99.9166 117.915 99.918C117.083 100.134 116.331 100.243 115.68 100.243C114.601 100.243 113.799 99.9458 113.29 99.3581C112.43 99.5048 111.551 99.5097 110.689 99.373C110.179 99.9508 109.382 100.243 108.312 100.243C107.661 100.243 106.909 100.134 106.077 99.918C106.072 99.9166 105.496 99.7571 104.867 99.5078C103.856 99.1068 103.335 98.7336 103.126 98.2592C102.987 97.9464 102.998 97.6105 103.154 97.3132C103.169 97.2855 103.184 97.2586 103.201 97.2325C103.107 97.0915 103.044 96.9323 103.016 96.7651C102.988 96.598 102.996 96.427 103.039 96.2631C103.101 96.0265 103.23 95.8299 103.404 95.6886C103.32 95.5504 103.265 95.3966 103.242 95.2365C103.192 94.8883 103.307 94.5407 103.567 94.2572C103.77 94.0366 104.056 93.9152 104.373 93.9152H104.381C104.142 93.1494 104.021 92.3516 104.022 91.5494C104.022 87.174 107.569 83.6266 111.945 83.6266C116.321 83.6266 119.868 87.1736 119.868 91.5494C119.869 92.3538 119.747 93.1536 119.507 93.9212C119.545 93.9175 119.582 93.9156 119.619 93.9155C119.936 93.9155 120.222 94.0369 120.425 94.2575C120.685 94.5407 120.8 94.8886 120.75 95.2368C120.727 95.3969 120.672 95.5507 120.588 95.6889C120.762 95.8301 120.891 96.0268 120.953 96.2634C120.996 96.4272 121.004 96.5983 120.976 96.7655C120.948 96.9325 120.885 97.0918 120.791 97.2328C120.808 97.2586 120.824 97.2855 120.838 97.3132Z" fill="white"/>
<path d="M120.792 97.233C120.886 97.092 120.949 96.9327 120.977 96.7656C121.005 96.5985 120.997 96.4274 120.954 96.2635C120.892 96.027 120.763 95.8303 120.588 95.689C120.673 95.5508 120.728 95.3971 120.751 95.2369C120.801 94.8888 120.685 94.5411 120.425 94.2576C120.223 94.037 119.937 93.9156 119.62 93.9156C119.583 93.9156 119.545 93.9176 119.507 93.9214C119.747 93.1537 119.869 92.354 119.868 91.5498C119.868 87.1743 116.321 83.627 111.946 83.627C107.57 83.627 104.022 87.1739 104.022 91.5498C104.022 92.352 104.143 93.1497 104.382 93.9155H104.373C104.056 93.9155 103.77 94.0368 103.568 94.2574C103.308 94.5407 103.192 94.8887 103.242 95.2368C103.265 95.3969 103.321 95.5507 103.405 95.6889C103.23 95.8301 103.101 96.0268 103.039 96.2633C102.996 96.4273 102.988 96.5984 103.016 96.7655C103.044 96.9326 103.107 97.092 103.201 97.233C103.185 97.259 103.169 97.2859 103.155 97.3136C102.998 97.6109 102.988 97.9468 103.126 98.2596C103.336 98.7337 103.857 99.1072 104.868 99.5082C105.497 99.7576 106.073 99.917 106.078 99.9184C106.909 100.134 107.662 100.244 108.313 100.244C109.382 100.244 110.18 99.9513 110.69 99.3734C111.552 99.5102 112.43 99.5051 113.291 99.3586C113.8 99.9462 114.602 100.244 115.68 100.244C116.332 100.244 117.084 100.134 117.915 99.9184C117.921 99.917 118.496 99.7576 119.125 99.5082C120.137 99.1072 120.657 98.7337 120.867 98.2596C121.005 97.9468 120.995 97.6109 120.838 97.3136C120.824 97.2858 120.808 97.2588 120.792 97.233ZM110.325 98.4687C110.281 98.5454 110.234 98.6203 110.184 98.6931C110.052 98.886 109.879 99.0333 109.678 99.1428C109.294 99.3525 108.807 99.4257 108.313 99.4257C107.532 99.4257 106.732 99.243 106.283 99.1266C106.261 99.1209 103.533 98.3504 103.878 97.6945C103.936 97.5842 104.032 97.5401 104.153 97.5401C104.639 97.5401 105.524 98.2642 105.905 98.2642C105.99 98.2642 106.05 98.228 106.074 98.1397C106.236 97.5581 103.609 97.3136 103.831 96.4713C103.87 96.3223 103.976 96.2617 104.124 96.2617C104.767 96.2616 106.21 97.3924 106.512 97.3924C106.535 97.3924 106.552 97.3855 106.561 97.3713C106.562 97.3691 106.563 97.367 106.565 97.3648C106.706 97.1309 106.625 96.9608 105.655 96.3664L105.561 96.3097C104.494 95.6634 103.744 95.2744 104.17 94.8104C104.219 94.7569 104.289 94.7331 104.373 94.7331C104.474 94.7331 104.595 94.7666 104.728 94.8228C105.292 95.0607 106.074 95.7093 106.4 95.9922C106.452 96.0368 106.503 96.0819 106.554 96.1273C106.554 96.1273 106.967 96.5572 107.217 96.5572C107.274 96.5572 107.323 96.5345 107.356 96.4785C107.534 96.1796 105.71 94.7975 105.607 94.2273C105.537 93.8409 105.656 93.6452 105.875 93.6452C105.98 93.6452 106.107 93.6896 106.248 93.7788C106.683 94.0554 107.525 95.5018 107.833 96.0645C107.937 96.253 108.113 96.3327 108.272 96.3327C108.587 96.3327 108.834 96.0193 108.301 95.621C107.5 95.0218 107.781 94.0423 108.163 93.982C108.179 93.9794 108.196 93.9781 108.212 93.9781C108.56 93.9781 108.713 94.577 108.713 94.577C108.713 94.577 109.163 95.7056 109.935 96.4771C110.635 97.1773 110.733 97.7519 110.325 98.4687ZM112.821 98.6009L112.781 98.6057L112.713 98.6134C112.677 98.6172 112.641 98.6208 112.605 98.624L112.57 98.6272L112.538 98.6299L112.492 98.6336L112.442 98.6373L112.392 98.6405L112.38 98.6413C112.367 98.642 112.354 98.6429 112.341 98.6435L112.324 98.6445C112.309 98.6453 112.293 98.6461 112.277 98.6467L112.223 98.6491L112.173 98.6508L112.14 98.6517H112.124C112.113 98.6517 112.103 98.6523 112.093 98.6523H112.076C112.066 98.6523 112.056 98.6523 112.046 98.6528L112.004 98.6534H111.945C111.899 98.6534 111.853 98.6529 111.807 98.652L111.77 98.6511C111.76 98.6511 111.749 98.6507 111.739 98.6503L111.699 98.6492L111.65 98.6473L111.606 98.6453L111.595 98.6448L111.553 98.6427C111.541 98.642 111.53 98.6415 111.518 98.6406L111.491 98.639C111.457 98.6369 111.423 98.6345 111.389 98.6319L111.353 98.629C111.338 98.6279 111.323 98.6265 111.308 98.6252C111.291 98.6237 111.273 98.622 111.256 98.6203C111.227 98.6176 111.197 98.6146 111.168 98.6114H111.166C111.595 97.6556 111.378 96.7629 110.512 95.8979C109.945 95.3308 109.567 94.4934 109.488 94.3096C109.33 93.7653 108.91 93.1604 108.213 93.1604C108.154 93.1604 108.095 93.1651 108.037 93.1743C107.731 93.2223 107.464 93.3981 107.274 93.6627C107.068 93.4067 106.868 93.2031 106.687 93.0882C106.414 92.9152 106.142 92.8275 105.877 92.8275C105.546 92.8275 105.25 92.9634 105.044 93.21L105.038 93.2163C105.034 93.2 105.031 93.1838 105.027 93.1675L105.026 93.1653C104.987 92.9975 104.954 92.8283 104.927 92.658C104.927 92.6568 104.927 92.6557 104.927 92.6546C104.925 92.6418 104.923 92.6288 104.921 92.616C104.915 92.5779 104.91 92.5398 104.905 92.5016C104.903 92.4843 104.9 92.4669 104.898 92.4496L104.892 92.3975C104.889 92.3802 104.888 92.3644 104.886 92.3479L104.885 92.3438C104.878 92.2763 104.871 92.2088 104.866 92.1411L104.864 92.1152L104.86 92.0709C104.859 92.0588 104.858 92.0466 104.858 92.0344C104.858 92.0315 104.857 92.0287 104.857 92.026C104.855 91.9921 104.853 91.958 104.851 91.924C104.85 91.9063 104.849 91.8887 104.849 91.8709L104.847 91.8244L104.846 91.8103L104.845 91.7674L104.844 91.731C104.844 91.7164 104.843 91.7019 104.843 91.6874C104.843 91.6729 104.842 91.6569 104.842 91.6415C104.842 91.6262 104.842 91.611 104.842 91.5957C104.841 91.5803 104.842 91.565 104.842 91.5498C104.842 87.626 108.023 84.445 111.947 84.445C115.871 84.445 119.052 87.626 119.052 91.5498V91.6415C119.052 91.6568 119.051 91.6722 119.051 91.6874C119.051 91.7 119.05 91.7125 119.05 91.7254C119.05 91.7366 119.049 91.7479 119.049 91.7588C119.049 91.7732 119.048 91.7875 119.048 91.8018V91.803L119.046 91.8528C119.045 91.8673 119.045 91.8819 119.044 91.8964L119.043 91.9068L119.041 91.9533C119.035 92.0529 119.028 92.1524 119.018 92.2518V92.253C119.017 92.2693 119.015 92.2856 119.013 92.3019L119.009 92.3404L119.001 92.4158L118.996 92.454L118.99 92.4989C118.988 92.5152 118.986 92.5316 118.983 92.5478C118.981 92.5661 118.978 92.5843 118.975 92.6025L118.969 92.6455L118.961 92.6943C118.959 92.7105 118.956 92.7266 118.953 92.7427C118.95 92.7589 118.947 92.7751 118.944 92.7912C118.939 92.8234 118.933 92.8557 118.927 92.8878C118.917 92.9359 118.908 92.9839 118.898 93.0319L118.887 93.0795C118.884 93.0953 118.88 93.1113 118.877 93.1271C118.677 92.9328 118.412 92.8269 118.12 92.8269C117.855 92.8269 117.582 92.9146 117.31 93.0875C117.129 93.2025 116.929 93.4061 116.723 93.662C116.532 93.3975 116.265 93.2217 115.96 93.1736C115.902 93.1644 115.843 93.1597 115.784 93.1597C115.086 93.1597 114.667 93.7647 114.508 94.3089C114.429 94.4928 114.051 95.3301 113.483 95.8981C112.618 96.7604 112.4 97.649 112.821 98.6009ZM120.156 96.6875L120.154 96.6959C120.147 96.7147 120.138 96.7331 120.129 96.7509C120.122 96.764 120.114 96.7768 120.106 96.7892C120.09 96.8125 120.073 96.8348 120.055 96.8558C120.05 96.8607 120.046 96.8656 120.041 96.8703C120.035 96.8776 120.028 96.8847 120.021 96.8916C119.895 97.0167 119.702 97.1264 119.485 97.227C119.46 97.2381 119.435 97.2493 119.41 97.2605L119.385 97.2717C119.368 97.2791 119.351 97.2864 119.333 97.2936C119.317 97.3009 119.299 97.3083 119.282 97.3154L119.229 97.3369C119.107 97.3873 118.982 97.4353 118.86 97.4826L118.807 97.503L118.756 97.5232C118.721 97.5366 118.687 97.55 118.654 97.5634L118.604 97.5835L118.555 97.6035L118.531 97.6136C118.515 97.6203 118.499 97.6269 118.484 97.6336C118.124 97.788 117.865 97.945 117.92 98.1398C117.921 98.1453 117.923 98.1506 117.925 98.1558C117.93 98.1702 117.936 98.1838 117.945 98.1966C117.949 98.2042 117.955 98.2114 117.961 98.218C118.025 98.2845 118.142 98.274 118.288 98.2212C118.309 98.2136 118.329 98.2057 118.35 98.1975L118.363 98.1922C118.396 98.178 118.432 98.162 118.468 98.1448C118.477 98.1405 118.486 98.1363 118.495 98.1316C118.675 98.0438 118.878 97.9257 119.08 97.8182C119.161 97.7746 119.243 97.7332 119.325 97.6939C119.516 97.604 119.696 97.5403 119.84 97.5403C119.908 97.5403 119.968 97.5542 120.018 97.586L120.026 97.5916C120.058 97.6136 120.084 97.6419 120.103 97.6747C120.107 97.681 120.111 97.6877 120.115 97.6945C120.186 97.83 120.126 97.9702 119.987 98.1078C119.852 98.2399 119.644 98.3693 119.406 98.4891C119.389 98.498 119.371 98.5069 119.353 98.5157C118.647 98.8623 117.723 99.1234 117.71 99.1267C117.464 99.1906 117.111 99.2744 116.714 99.3371L116.656 99.3463L116.646 99.3477C116.602 99.3544 116.557 99.3607 116.513 99.3665C116.467 99.3726 116.421 99.3782 116.375 99.3833L116.367 99.3843C116.2 99.4035 116.033 99.4162 115.865 99.4223H115.862C115.802 99.4245 115.741 99.4256 115.68 99.4256H115.61C115.517 99.4244 115.425 99.4202 115.333 99.413C115.331 99.413 115.328 99.413 115.326 99.4125C115.293 99.4099 115.26 99.4068 115.227 99.4032C115.193 99.3995 115.159 99.3954 115.125 99.3908C115.102 99.3878 115.08 99.3844 115.058 99.3808C115.035 99.3771 115.012 99.3734 114.99 99.3694L114.959 99.3636L114.956 99.3632C114.924 99.357 114.891 99.3501 114.859 99.3426C114.84 99.3384 114.822 99.3343 114.803 99.3292L114.792 99.3264C114.783 99.3242 114.774 99.3217 114.765 99.3193L114.76 99.318L114.731 99.3095C114.721 99.3066 114.71 99.3034 114.7 99.3003L114.696 99.2993L114.669 99.291C114.658 99.2878 114.648 99.2844 114.638 99.281L114.613 99.2727L114.594 99.2662C114.576 99.2599 114.559 99.2535 114.541 99.2467L114.525 99.2402L114.511 99.2347C114.484 99.224 114.458 99.2129 114.432 99.2012L114.414 99.1927L114.411 99.1914C114.405 99.1885 114.399 99.1856 114.393 99.1831C114.381 99.1773 114.369 99.1713 114.357 99.1652L114.353 99.1634L114.336 99.1543C114.305 99.1383 114.275 99.1212 114.246 99.1031L114.23 99.0932C114.222 99.0882 114.214 99.083 114.206 99.0778L114.185 99.0639L114.162 99.0483L114.149 99.0387C114.134 99.0286 114.12 99.0181 114.107 99.0073L114.085 98.9905C114.076 98.9835 114.068 98.9763 114.059 98.9691C114.052 98.9632 114.045 98.957 114.038 98.9508L114.037 98.9504C114.03 98.9437 114.022 98.9371 114.015 98.9302C114.007 98.9236 114 98.9168 113.993 98.91L113.992 98.9091C113.985 98.902 113.977 98.8948 113.97 98.8874C113.963 98.8801 113.955 98.8728 113.948 98.8653C113.941 98.8579 113.934 98.8503 113.927 98.8425C113.92 98.8348 113.914 98.8278 113.907 98.8202L113.905 98.8176C113.899 98.8103 113.893 98.8029 113.886 98.7953C113.873 98.7793 113.86 98.7629 113.847 98.7461C113.835 98.7292 113.822 98.712 113.81 98.6944L113.799 98.6772C113.783 98.6547 113.768 98.632 113.754 98.6089C113.743 98.5923 113.732 98.5757 113.722 98.5587C113.715 98.5481 113.709 98.5374 113.703 98.5269L113.7 98.5226C113.694 98.5123 113.688 98.5022 113.682 98.4919C113.679 98.4864 113.676 98.4809 113.673 98.4752C113.669 98.4693 113.666 98.4634 113.663 98.4575L113.657 98.4483L113.654 98.4423C113.648 98.431 113.642 98.4197 113.636 98.4082C113.633 98.4032 113.63 98.3981 113.627 98.3932L113.619 98.377L113.61 98.361C113.589 98.3188 113.569 98.276 113.55 98.2327L113.544 98.2169C113.54 98.2063 113.535 98.1958 113.531 98.1854C113.529 98.1803 113.527 98.1753 113.525 98.1703C113.515 98.1443 113.506 98.1181 113.497 98.0916C113.494 98.0822 113.491 98.0729 113.488 98.0635C113.482 98.0422 113.475 98.0208 113.47 97.9991C113.463 97.9739 113.457 97.9485 113.453 97.9229C113.451 97.9177 113.45 97.9126 113.45 97.9076C113.445 97.8826 113.441 97.8573 113.438 97.832C113.437 97.8271 113.436 97.8221 113.436 97.8171L113.434 97.8019C113.432 97.7821 113.431 97.7621 113.43 97.7421C113.43 97.7371 113.429 97.732 113.429 97.7271C113.429 97.7172 113.428 97.7073 113.428 97.6973C113.423 97.2967 113.626 96.9116 114.059 96.4784C114.831 95.7071 115.281 94.5784 115.281 94.5784C115.281 94.5784 115.293 94.5311 115.318 94.4629C115.321 94.4535 115.325 94.4437 115.329 94.4335C115.344 94.3953 115.36 94.3578 115.378 94.3213L115.382 94.3143C115.398 94.2831 115.415 94.2528 115.433 94.2232C115.437 94.2164 115.442 94.2096 115.446 94.2028C115.46 94.1824 115.475 94.1626 115.49 94.1433C115.498 94.1329 115.507 94.1226 115.516 94.1126C115.52 94.1087 115.524 94.1047 115.527 94.101C115.572 94.0548 115.623 94.0171 115.681 93.997L115.688 93.9946C115.693 93.993 115.698 93.9915 115.703 93.9901C115.709 93.9886 115.715 93.9873 115.721 93.986L115.723 93.9855C115.735 93.983 115.748 93.9814 115.76 93.9806H115.761C115.768 93.9806 115.774 93.9799 115.781 93.9799C115.789 93.9799 115.797 93.9799 115.805 93.9808C115.814 93.9815 115.822 93.9825 115.83 93.9838C115.9 93.9949 115.966 94.0363 116.023 94.1002C116.045 94.1246 116.064 94.1508 116.081 94.1786C116.093 94.1966 116.103 94.2156 116.113 94.2357C116.117 94.244 116.121 94.2517 116.125 94.26C116.135 94.2812 116.144 94.3027 116.151 94.3248C116.169 94.3763 116.183 94.4294 116.192 94.4834C116.2 94.5307 116.205 94.5785 116.206 94.6264C116.207 94.652 116.207 94.678 116.206 94.7042C116.201 94.8258 116.176 94.9459 116.133 95.0597C116.129 95.0701 116.124 95.0806 116.12 95.0911C116.111 95.1123 116.102 95.1331 116.092 95.1534C116.084 95.1689 116.076 95.1844 116.068 95.1999C116.062 95.2102 116.056 95.2205 116.05 95.2309C116.035 95.2565 116.019 95.282 116.001 95.3074L115.991 95.3226C115.949 95.3804 115.903 95.4346 115.853 95.4846C115.803 95.5344 115.75 95.5804 115.693 95.6224C115.637 95.6643 115.584 95.7106 115.535 95.7609C115.394 95.9088 115.361 96.0393 115.393 96.1382C115.398 96.1537 115.405 96.1688 115.413 96.1831C115.422 96.1994 115.433 96.2144 115.446 96.2281L115.451 96.2332L115.456 96.2383C115.461 96.2432 115.467 96.2479 115.472 96.2526L115.478 96.2571C115.492 96.2676 115.506 96.277 115.521 96.2853C115.526 96.2876 115.529 96.2899 115.534 96.2922C115.551 96.3002 115.568 96.307 115.585 96.3125C115.59 96.3141 115.594 96.3155 115.599 96.317L115.605 96.3186L115.614 96.3209L115.621 96.3227L115.629 96.3243L115.637 96.3259L115.644 96.3272C115.649 96.3281 115.655 96.329 115.661 96.3297L115.666 96.3305L115.676 96.3315L115.682 96.3321L115.692 96.3328H115.697L115.708 96.3333H115.74L115.749 96.3328L115.76 96.3321L115.773 96.3309L115.785 96.3295C115.788 96.3295 115.791 96.3288 115.794 96.3282C115.831 96.3228 115.868 96.3128 115.903 96.2986L115.918 96.2923C115.926 96.2886 115.935 96.2848 115.943 96.2807C115.959 96.2724 115.975 96.263 115.991 96.2528C116.012 96.2388 116.032 96.223 116.051 96.2057C116.056 96.2016 116.06 96.1973 116.064 96.1932C116.067 96.1911 116.069 96.1892 116.071 96.1869C116.075 96.1827 116.079 96.1786 116.083 96.174C116.113 96.141 116.139 96.1046 116.16 96.0655C116.344 95.7319 116.536 95.4032 116.737 95.0798L116.765 95.0357L116.793 94.9915C116.806 94.9691 116.82 94.9471 116.834 94.9251L116.849 94.9032C116.895 94.8301 116.943 94.7574 116.991 94.6853L117.02 94.6426C117.077 94.5575 117.134 94.4748 117.191 94.3963L117.219 94.3574C117.281 94.2724 117.345 94.1891 117.412 94.1079L117.438 94.0762C117.442 94.071 117.446 94.0657 117.451 94.0607C117.46 94.0503 117.469 94.0403 117.477 94.0306C117.482 94.0256 117.486 94.0207 117.49 94.0159L117.515 93.9875L117.528 93.9738C117.54 93.9602 117.553 93.9471 117.565 93.9347C117.573 93.9262 117.581 93.9179 117.589 93.91C117.637 93.8614 117.689 93.8179 117.746 93.7801L117.759 93.7716C117.771 93.7632 117.785 93.7553 117.798 93.7482C118.019 93.6224 118.203 93.6131 118.309 93.7188C118.373 93.7827 118.408 93.8887 118.406 94.0363C118.406 94.0428 118.406 94.0493 118.406 94.0561V94.0633C118.406 94.07 118.405 94.0768 118.404 94.0836C118.404 94.0921 118.403 94.1004 118.403 94.1089C118.402 94.1172 118.401 94.1236 118.4 94.1311C118.4 94.1331 118.4 94.1353 118.4 94.1375C118.399 94.144 118.398 94.1507 118.397 94.1573C118.397 94.1593 118.397 94.1614 118.397 94.1634C118.396 94.1723 118.394 94.1811 118.393 94.1899C118.392 94.1984 118.39 94.2063 118.389 94.2145L118.386 94.2285C118.384 94.2418 118.381 94.2549 118.377 94.2678C118.37 94.2921 118.361 94.3158 118.35 94.3389C118.336 94.3706 118.32 94.4014 118.302 94.4314C118.293 94.4481 118.283 94.4645 118.272 94.4808C118.261 94.4975 118.25 94.5145 118.239 94.5317C118.209 94.574 118.178 94.6156 118.146 94.6562L118.132 94.6746C118.079 94.7396 118.026 94.8033 117.97 94.8654L117.953 94.8851C117.929 94.9114 117.905 94.938 117.88 94.9646L117.862 94.9847C117.85 94.9981 117.837 95.0115 117.824 95.025C117.812 95.0384 117.799 95.052 117.786 95.0656L117.748 95.1062L117.709 95.147L117.669 95.1879C117.643 95.2153 117.616 95.2427 117.59 95.27C117.21 95.6599 116.809 96.0485 116.673 96.2908C116.664 96.3065 116.656 96.3229 116.649 96.3394C116.63 96.3835 116.622 96.4212 116.627 96.4517C116.629 96.4617 116.632 96.4713 116.637 96.4801C116.645 96.4933 116.654 96.5055 116.665 96.5163C116.67 96.5212 116.675 96.5257 116.681 96.5298C116.709 96.5497 116.742 96.5599 116.777 96.559H116.787L116.798 96.5582L116.809 96.5569L116.819 96.5556C116.82 96.5554 116.821 96.5553 116.822 96.5549L116.831 96.5533L116.833 96.5528L116.842 96.5508L116.845 96.55C116.849 96.5492 116.852 96.5483 116.855 96.5474C116.858 96.5464 116.863 96.5452 116.867 96.5439C116.883 96.5389 116.899 96.533 116.915 96.5263C116.924 96.5229 116.932 96.5193 116.94 96.5153C116.944 96.5134 116.948 96.5115 116.952 96.5094L116.965 96.5032C116.995 96.4877 117.024 96.4707 117.053 96.4525L117.065 96.4441C117.069 96.4414 117.073 96.4387 117.077 96.4357L117.09 96.4274L117.097 96.4228L117.115 96.4101C117.131 96.3986 117.147 96.3867 117.163 96.3746L117.164 96.3735L117.189 96.354C117.224 96.3268 117.257 96.2994 117.286 96.2736L117.306 96.2564L117.308 96.2547L117.318 96.2456C117.342 96.2238 117.364 96.2036 117.382 96.1869L117.389 96.1797C117.395 96.1736 117.401 96.1679 117.407 96.163L117.417 96.1526L117.421 96.1489L117.422 96.1479L117.433 96.1369L117.44 96.1297L117.441 96.1291L117.444 96.1261L117.448 96.1223L117.449 96.1211L117.453 96.1179L117.472 96.1011L117.483 96.0916C117.488 96.0866 117.494 96.0815 117.5 96.0764L117.512 96.065C117.515 96.0632 117.517 96.0611 117.519 96.059L117.533 96.0473L117.552 96.03L117.563 96.0209C117.604 95.9854 117.653 95.9426 117.71 95.8943L117.734 95.8745L117.772 95.8422L117.812 95.8093C117.863 95.7664 117.919 95.721 117.977 95.6738L118.016 95.6429C118.049 95.6167 118.082 95.5901 118.116 95.5633C118.13 95.5525 118.144 95.5417 118.158 95.531C118.193 95.5039 118.228 95.477 118.264 95.4505C118.344 95.3898 118.427 95.3289 118.511 95.2697L118.547 95.2445C118.572 95.2272 118.597 95.2098 118.623 95.1928L118.645 95.1774C118.69 95.1469 118.736 95.1172 118.782 95.0883L118.805 95.0739L118.827 95.0598C118.85 95.0458 118.872 95.032 118.895 95.0186L118.917 95.0052L118.962 94.9791L119.006 94.9539L119.015 94.949L119.05 94.9299C119.064 94.922 119.079 94.9144 119.093 94.907L119.114 94.896L119.135 94.8855C119.143 94.882 119.15 94.8783 119.157 94.8749C119.204 94.8516 119.252 94.8303 119.301 94.8108C119.314 94.8051 119.327 94.8001 119.34 94.7957L119.379 94.7822C119.39 94.7783 119.401 94.7747 119.412 94.7714L119.416 94.7703C119.422 94.7684 119.428 94.7667 119.433 94.7652L119.435 94.7647C119.447 94.7613 119.459 94.7583 119.471 94.7554H119.471C119.505 94.7475 119.538 94.7418 119.572 94.7383C119.588 94.7367 119.604 94.7358 119.619 94.7359H119.627C119.638 94.7359 119.648 94.7366 119.658 94.7376C119.663 94.7376 119.667 94.7386 119.672 94.7391H119.674C119.678 94.7397 119.683 94.7403 119.687 94.7414C119.691 94.7422 119.696 94.743 119.7 94.744H119.702C119.706 94.7449 119.71 94.7461 119.715 94.7474C119.738 94.754 119.761 94.7643 119.782 94.7779C119.792 94.7845 119.802 94.792 119.811 94.8003L119.813 94.8028C119.815 94.8043 119.816 94.8059 119.818 94.8075L119.822 94.8124C119.86 94.8519 119.891 94.8972 119.915 94.9465L119.918 94.9549C119.926 94.9737 119.933 94.9931 119.937 95.0129C119.95 95.0734 119.945 95.1366 119.922 95.1943C119.913 95.2175 119.903 95.2399 119.89 95.2613C119.861 95.3104 119.827 95.3561 119.787 95.3974L119.779 95.4063C119.767 95.4195 119.754 95.4326 119.74 95.4457C119.734 95.4516 119.728 95.4574 119.721 95.4634L119.702 95.4811L119.692 95.49C119.668 95.5115 119.643 95.5324 119.618 95.5527C119.603 95.5651 119.587 95.5772 119.572 95.5891C119.517 95.6311 119.461 95.6716 119.404 95.7107C119.369 95.7343 119.335 95.7574 119.3 95.7803C119.214 95.8368 119.127 95.892 119.039 95.9456C118.854 96.059 118.65 96.1803 118.432 96.3123L118.375 96.3465C118.313 96.3842 118.255 96.4202 118.2 96.4545L118.173 96.4718L118.12 96.5054C118.086 96.5276 118.051 96.55 118.016 96.5724L117.989 96.5908C117.975 96.5996 117.961 96.6086 117.948 96.6176L117.935 96.626L117.894 96.6533L117.873 96.668L117.848 96.6855L117.824 96.7017C117.785 96.7294 117.749 96.7557 117.715 96.7807L117.703 96.7903C117.683 96.8052 117.664 96.8204 117.644 96.8358C117.615 96.8592 117.589 96.8815 117.565 96.903L117.554 96.9136C117.547 96.9197 117.54 96.9258 117.534 96.9318C117.53 96.936 117.526 96.9402 117.521 96.9442L117.515 96.9502C117.502 96.9637 117.489 96.9775 117.476 96.9917L117.47 96.9988C117.456 97.0147 117.444 97.03 117.434 97.0449L117.429 97.0516C117.421 97.0636 117.413 97.0759 117.406 97.0887C117.404 97.0919 117.403 97.0951 117.401 97.0983L117.397 97.1078L117.394 97.1148L117.392 97.1194L117.39 97.1237L117.388 97.1294C117.382 97.1452 117.378 97.1617 117.376 97.1784L117.375 97.1842L117.374 97.1897V97.2192C117.374 97.2216 117.374 97.2241 117.375 97.2267L117.375 97.2312C117.375 97.2336 117.376 97.236 117.376 97.2386C117.377 97.241 117.377 97.2454 117.378 97.2489V97.2494C117.379 97.2527 117.38 97.2558 117.38 97.2591C117.381 97.2624 117.382 97.2662 117.383 97.2695C117.385 97.2762 117.387 97.2828 117.389 97.2893C117.391 97.2933 117.392 97.2971 117.394 97.3009C117.394 97.3017 117.395 97.3025 117.395 97.3033L117.398 97.3109L117.403 97.3213C117.408 97.3321 117.414 97.3426 117.42 97.3528L117.426 97.3635L117.432 97.3742C117.433 97.3759 117.435 97.3776 117.436 97.3792L117.438 97.3814L117.44 97.3835L117.443 97.3854C117.446 97.3879 117.45 97.3899 117.454 97.3913C117.456 97.3921 117.459 97.3926 117.461 97.3932C117.515 97.4054 117.626 97.3607 117.774 97.2827C117.782 97.2782 117.791 97.2735 117.8 97.2686L117.845 97.244L117.867 97.2318C117.883 97.2235 117.899 97.214 117.915 97.2048L117.945 97.188C118.14 97.0756 118.373 96.9312 118.615 96.7902C118.637 96.777 118.66 96.7638 118.683 96.7507L118.728 96.7216C118.781 96.6913 118.834 96.6614 118.887 96.6319C118.955 96.5949 119.022 96.5589 119.091 96.524L119.135 96.5014C119.165 96.4868 119.194 96.4726 119.223 96.4587C119.279 96.4321 119.336 96.4068 119.393 96.3828L119.425 96.3701L119.429 96.3686C119.595 96.3027 119.746 96.262 119.868 96.262C119.894 96.2617 119.921 96.264 119.947 96.2685H119.948C119.956 96.27 119.963 96.2717 119.971 96.2735H119.973C119.993 96.2786 120.012 96.2858 120.03 96.2951C120.056 96.3084 120.079 96.3261 120.099 96.3475C120.108 96.3574 120.116 96.3682 120.123 96.3797C120.136 96.3998 120.146 96.4217 120.154 96.4445C120.157 96.4534 120.159 96.4622 120.162 96.4714C120.182 96.5424 120.18 96.6177 120.156 96.6875Z" fill="#FF9D00"/>
<path fill-rule="evenodd" clip-rule="evenodd" d="M119.053 91.596V91.55C119.053 87.6262 115.873 84.4453 111.949 84.4453C108.025 84.4453 104.844 87.6263 104.844 91.55V91.5653C104.844 91.5756 104.844 91.5858 104.844 91.596C104.845 91.6113 104.845 91.6266 104.845 91.6418L104.845 91.6756L104.846 91.6877C104.846 91.6933 104.846 91.6988 104.846 91.7045C104.846 91.7134 104.846 91.7224 104.846 91.7313L104.847 91.7678L104.849 91.8106L104.849 91.8247L104.851 91.869V91.8712C104.852 91.8885 104.853 91.9057 104.854 91.923L104.854 91.9243C104.855 91.9419 104.856 91.9597 104.857 91.9774C104.858 91.9937 104.859 92.01 104.86 92.0263L104.86 92.0292C104.861 92.0432 104.862 92.0573 104.863 92.0712L104.863 92.075L104.866 92.1155L104.867 92.1181C104.867 92.126 104.868 92.1338 104.869 92.1414C104.874 92.209 104.881 92.2766 104.888 92.344L104.889 92.3483L104.894 92.3978L104.901 92.4499L104.905 92.4852L104.908 92.5018C104.913 92.5401 104.918 92.5782 104.924 92.6163L104.924 92.6188L104.93 92.6548C104.956 92.8263 104.99 92.9967 105.029 93.1658L105.03 93.1678L105.033 93.1805L105.041 93.2166L105.046 93.2103C105.253 92.9637 105.548 92.8278 105.879 92.8278C106.145 92.8278 106.417 92.9155 106.69 93.0885C106.871 93.2034 107.071 93.407 107.277 93.663C107.467 93.3984 107.734 93.2226 108.04 93.1746C108.098 93.1654 108.157 93.1608 108.216 93.1607C108.913 93.1607 109.333 93.7657 109.491 94.3099C109.57 94.4937 109.947 95.3311 110.517 95.8975C111.383 96.7626 111.6 97.6552 111.171 98.6109H111.172C111.202 98.6142 111.231 98.6172 111.261 98.6199C111.278 98.6216 111.295 98.6233 111.313 98.6248L111.319 98.6254L111.358 98.6287L111.394 98.6315C111.428 98.6341 111.462 98.6365 111.496 98.6387L111.523 98.6403L111.544 98.6416L111.558 98.6423L111.6 98.6445L111.611 98.645L111.655 98.6469L111.704 98.6488L111.743 98.6499L111.75 98.6501C111.758 98.6505 111.766 98.6508 111.775 98.6508L111.784 98.6511C111.839 98.6524 111.894 98.653 111.95 98.6529H112.008L112.05 98.6525C112.06 98.652 112.071 98.652 112.081 98.652H112.097L112.112 98.6516C112.117 98.6514 112.123 98.6512 112.128 98.6512H112.145L112.178 98.6504L112.227 98.6487L112.282 98.6463C112.298 98.6457 112.313 98.6449 112.329 98.6441L112.346 98.6431L112.371 98.6418L112.385 98.6409L112.396 98.6402L112.447 98.6369L112.497 98.6332L112.542 98.6296L112.575 98.6269L112.61 98.6237C112.669 98.6184 112.727 98.6123 112.786 98.6052L112.826 98.6004C112.404 97.6487 112.623 96.7599 113.485 95.8984C114.053 95.3304 114.431 94.4931 114.51 94.3091C114.668 93.765 115.088 93.16 115.785 93.16C115.844 93.16 115.903 93.1647 115.962 93.1739C116.267 93.2219 116.534 93.3978 116.724 93.6623C116.93 93.4064 117.13 93.2027 117.311 93.0878C117.584 92.9149 117.857 92.8271 118.122 92.8271C118.414 92.8271 118.678 92.9331 118.878 93.1274C118.882 93.1116 118.886 93.0957 118.889 93.0798L118.899 93.0323C118.903 93.015 118.907 92.9977 118.91 92.9803C118.916 92.9497 118.923 92.919 118.928 92.8881C118.935 92.856 118.941 92.8238 118.946 92.7915L118.949 92.7741C118.951 92.7638 118.953 92.7534 118.954 92.743C118.958 92.7269 118.96 92.7108 118.963 92.6945L118.964 92.6883L118.971 92.6458L118.977 92.6028V92.6024C118.982 92.5706 118.986 92.5388 118.991 92.5071L118.992 92.4992L118.998 92.4544L119.002 92.4161L119.011 92.3408L119.014 92.3105L119.015 92.3022C119.017 92.2859 119.018 92.2696 119.02 92.2533V92.252C119.021 92.239 119.022 92.226 119.024 92.213C119.03 92.1391 119.036 92.0648 119.04 91.9903C119.041 91.9781 119.042 91.9658 119.043 91.9536V91.953L119.045 91.907L119.046 91.8967C119.047 91.8655 119.048 91.8344 119.049 91.8033V91.8022L119.05 91.79C119.05 91.7798 119.051 91.7694 119.051 91.7591L119.051 91.755C119.051 91.7453 119.052 91.7354 119.052 91.7256L119.052 91.7171C119.052 91.7073 119.053 91.6975 119.053 91.6877L119.053 91.6793C119.053 91.6669 119.053 91.6543 119.053 91.6418V91.596ZM110.187 98.6934C110.75 97.8683 110.71 97.249 109.938 96.4775C109.166 95.7058 108.717 94.5774 108.717 94.5774C108.717 94.5774 108.549 93.922 108.166 93.9822C107.784 94.0424 107.503 95.0218 108.304 95.6213C109.105 96.2209 108.145 96.6274 107.836 96.0648C107.528 95.5021 106.687 94.0558 106.25 93.7792C105.814 93.5025 105.507 93.6576 105.61 94.2278C105.661 94.5108 106.136 94.9939 106.58 95.4452C107.031 95.9031 107.449 96.3283 107.359 96.4788C107.182 96.7776 106.557 96.1277 106.557 96.1277C106.557 96.1277 104.6 94.3466 104.174 94.8108C103.781 95.2386 104.387 95.6022 105.32 96.1628C105.399 96.2104 105.481 96.2595 105.565 96.3101C106.633 96.9566 106.716 97.1272 106.564 97.3717C106.508 97.4621 106.151 97.2475 105.711 96.9836C104.961 96.5335 103.973 95.9402 103.834 96.4713C103.713 96.9309 104.44 97.2126 105.099 97.468C105.649 97.6808 106.151 97.8755 106.077 98.1397C106.001 98.4136 105.585 98.1851 105.132 97.9354C104.622 97.655 104.064 97.3478 103.881 97.6944C103.536 98.3498 106.263 99.1212 106.286 99.1269C107.167 99.3555 109.405 99.8398 110.187 98.6934ZM113.812 98.6934C113.249 97.8683 113.289 97.249 114.061 96.4775C114.833 95.7058 115.283 94.5774 115.283 94.5774C115.283 94.5774 115.45 93.922 115.833 93.9822C116.215 94.0424 116.496 95.0218 115.695 95.6213C114.894 96.2209 115.854 96.6274 116.163 96.0648C116.471 95.5021 117.312 94.0558 117.748 93.7792C118.185 93.5025 118.492 93.6576 118.389 94.2278C118.338 94.5108 117.863 94.9939 117.419 95.4453C116.968 95.9032 116.55 96.3283 116.639 96.4788C116.817 96.7776 117.442 96.1273 117.442 96.1273C117.442 96.1273 119.399 94.3463 119.826 94.8105C120.218 95.2382 119.613 95.6019 118.679 96.1625C118.597 96.2115 118.516 96.2606 118.434 96.3098C117.367 96.9563 117.283 97.1269 117.435 97.3714C117.491 97.4618 117.849 97.2472 118.288 96.9833C119.038 96.5333 120.026 95.9398 120.166 96.471C120.286 96.9307 119.559 97.2123 118.9 97.4678C118.35 97.6806 117.848 97.8752 117.922 98.1394C117.998 98.4132 118.413 98.1847 118.867 97.935C119.377 97.6546 119.935 97.3473 120.118 97.6942C120.463 98.3498 117.735 99.1206 117.713 99.1262C116.832 99.3555 114.594 99.8398 113.812 98.6934Z" fill="#FFD21E"/>
<path fill-rule="evenodd" clip-rule="evenodd" d="M114.253 89.6153C114.364 89.6545 114.446 89.7737 114.525 89.8873C114.631 90.0407 114.729 90.1834 114.881 90.103C115.059 90.008 115.205 89.8623 115.301 89.6842C115.397 89.5061 115.438 89.3037 115.418 89.1024C115.404 88.9519 115.356 88.8065 115.279 88.6767C115.201 88.5468 115.096 88.4357 114.971 88.3515C114.845 88.2672 114.702 88.2119 114.553 88.1894C114.403 88.1669 114.251 88.1778 114.106 88.2214C113.961 88.265 113.828 88.3401 113.716 88.4414C113.604 88.5427 113.515 88.6676 113.457 88.8071C113.399 88.9466 113.372 89.0973 113.38 89.2483C113.387 89.3993 113.427 89.5468 113.498 89.6803C113.568 89.8122 113.724 89.7499 113.888 89.6842C114.017 89.6327 114.151 89.5791 114.253 89.6153ZM109.437 89.6153C109.326 89.6545 109.244 89.7738 109.165 89.8873C109.059 90.0407 108.961 90.1834 108.809 90.103C108.585 89.9841 108.413 89.7858 108.326 89.547C108.24 89.308 108.246 89.0455 108.343 88.8107C108.439 88.5758 108.62 88.3853 108.85 88.2764C109.079 88.1675 109.341 88.148 109.584 88.2216C109.778 88.2799 109.949 88.3943 110.078 88.5503C110.207 88.7062 110.286 88.8969 110.306 89.098C110.327 89.2991 110.287 89.5018 110.192 89.6803C110.122 89.8122 109.966 89.7499 109.802 89.6843C109.673 89.6327 109.539 89.5791 109.437 89.6153ZM113.508 93.9982C114.271 93.3968 114.552 92.4149 114.552 91.81C114.552 91.3319 114.23 91.4823 113.715 91.7373L113.686 91.7517C113.213 91.9858 112.584 92.2975 111.893 92.2975C111.203 92.2975 110.573 91.9858 110.101 91.7516C109.569 91.4882 109.236 91.3231 109.236 91.8101C109.236 92.4341 109.534 93.4587 110.353 94.0539C110.461 93.8346 110.613 93.64 110.8 93.4821C110.986 93.3242 111.204 93.2066 111.438 93.1365C111.52 93.1121 111.604 93.2528 111.69 93.3969C111.773 93.5358 111.858 93.678 111.945 93.678C112.037 93.678 112.127 93.5379 112.216 93.4012C112.308 93.2582 112.398 93.119 112.485 93.1469C112.924 93.2876 113.29 93.5927 113.508 93.9982Z" fill="#32343D"/>
<path d="M113.511 93.9983C113.113 94.3116 112.584 94.5217 111.896 94.5217C111.25 94.5217 110.744 94.3363 110.355 94.054C110.464 93.8347 110.616 93.64 110.802 93.4822C110.989 93.3243 111.206 93.2067 111.441 93.1366C111.601 93.0887 111.771 93.6781 111.947 93.6781C112.136 93.6781 112.317 93.0925 112.488 93.147C112.926 93.2878 113.293 93.5929 113.511 93.9983Z" fill="#FF323D"/>
<path fill-rule="evenodd" clip-rule="evenodd" d="M107.612 90.4662C107.521 90.5269 107.417 90.5643 107.308 90.575C107.199 90.5858 107.089 90.5695 106.988 90.5276C106.908 90.4943 106.834 90.4454 106.773 90.3836C106.711 90.3219 106.662 90.2486 106.629 90.1679C106.587 90.0669 106.571 89.9572 106.581 89.8485C106.592 89.7397 106.63 89.6353 106.69 89.5444C106.763 89.4351 106.867 89.3499 106.989 89.2996C107.11 89.2493 107.244 89.2361 107.372 89.2618C107.501 89.2875 107.62 89.3508 107.713 89.4437C107.806 89.5367 107.869 89.6552 107.894 89.7841C107.92 89.913 107.907 90.0466 107.857 90.168C107.806 90.2895 107.721 90.3931 107.612 90.4662ZM117.119 90.4662C117.028 90.5269 116.924 90.5643 116.815 90.575C116.706 90.5858 116.597 90.5695 116.496 90.5276C116.415 90.4942 116.342 90.4454 116.28 90.3836C116.218 90.3219 116.169 90.2486 116.136 90.1679C116.094 90.0669 116.078 89.9572 116.089 89.8485C116.1 89.7397 116.137 89.6353 116.198 89.5444C116.252 89.4627 116.324 89.3941 116.409 89.3436C116.493 89.2931 116.587 89.2619 116.685 89.2523C116.783 89.2426 116.882 89.2549 116.974 89.288C117.067 89.3211 117.151 89.3744 117.22 89.4439C117.313 89.5368 117.376 89.6552 117.402 89.7841C117.428 89.913 117.414 90.0466 117.364 90.168C117.314 90.2895 117.229 90.3931 117.119 90.4662Z" fill="#FFAD03"/>
<g clip-path="url(#clip1_5768_32988)">
<path d="M366 174C366 169.582 369.582 166 374 166H512C516.418 166 520 169.582 520 174V247C520 251.418 516.418 255 512 255H374C369.582 255 366 251.418 366 247V174Z" fill="url(#paint1_linear_5768_32988)"/>
<path d="M377 232.998C377 231.894 377.894 231 378.998 231H392.145C393.248 231 394.143 231.894 394.143 232.998V239H377V232.998Z" fill="#8547FF"/>
<path d="M396.145 226.998C396.145 225.894 397.039 225 398.142 225H411.29C412.393 225 413.287 225.894 413.287 226.998V239H396.145V226.998Z" fill="#8547FF"/>
<path d="M415.285 219.998C415.285 218.894 416.18 218 417.283 218H430.43C431.534 218 432.428 218.894 432.428 219.998V239H415.285V219.998Z" fill="#8547FF"/>
<path d="M434.43 212.998C434.43 211.894 435.324 211 436.427 211H449.575C450.678 211 451.573 211.894 451.573 212.998V239H434.43V212.998Z" fill="#8547FF"/>
<path d="M453.57 193.998C453.57 192.894 454.465 192 455.568 192H468.716C469.819 192 470.713 192.894 470.713 193.998V239H453.57V193.998Z" fill="#8547FF"/>
<path d="M472.715 198.998C472.715 197.894 473.609 197 474.713 197H487.86C488.963 197 489.858 197.894 489.858 198.998V239H472.715V198.998Z" fill="#8547FF"/>
<path d="M491.855 187.998C491.855 186.894 492.75 186 493.853 186H507.001C508.104 186 508.998 186.894 508.998 187.998V239H491.855V187.998Z" fill="#8547FF"/>
</g>
<rect x="360" y="34" width="48" height="48" rx="7.27273" fill="url(#paint2_linear_5768_32988)"/>
<path d="M395 51V62C395 62.5304 394.789 63.0391 394.414 63.4142C394.039 63.7893 393.53 64 393 64H391V68L385 64H384" stroke="#2F6FF0" stroke-width="2" stroke-linecap="round" stroke-linejoin="round"/>
<path d="M389 48H375C374.47 48 373.961 48.2107 373.586 48.5858C373.211 48.9609 373 49.4696 373 50V58C373 58.5304 373.211 59.0391 373.586 59.4142C373.961 59.7893 374.47 60 375 60H377V65L384 60H389C389.53 60 390.039 59.7893 390.414 59.4142C390.789 59.0391 391 58.5304 391 58V50C391 49.4696 390.789 48.9609 390.414 48.5858C390.039 48.2107 389.53 48 389 48Z" stroke="#2F6FF0" stroke-width="2" stroke-linecap="round" stroke-linejoin="round"/>
<rect x="454" y="81" width="48" height="48" rx="8" fill="url(#paint3_linear_5768_32988)"/>
<g clip-path="url(#clip2_5768_32988)">
<path d="M489 98H467V116H489V98Z" stroke="#8547FF" stroke-width="2" stroke-linecap="round" stroke-linejoin="round"/>
<path d="M474 98V94H482V98" stroke="#8547FF" stroke-width="2" stroke-linecap="round" stroke-linejoin="round"/>
<path d="M476 111V103L482 107L476 111Z" stroke="#8547FF" stroke-width="2" stroke-linecap="round" stroke-linejoin="round"/>
</g>
<rect x="112" y="223" width="48" height="48" rx="8" fill="url(#paint4_linear_5768_32988)"/>
<path fill-rule="evenodd" clip-rule="evenodd" d="M132.661 239.135C134.983 236.525 138.83 235.759 141.993 237.266C146.194 239.267 147.727 244.366 145.439 248.3L140.293 257.138C140.006 257.633 139.532 257.993 138.978 258.14C138.423 258.288 137.831 258.211 137.333 257.926L143.564 247.224C145.223 244.369 144.113 240.668 141.067 239.212C138.781 238.118 135.987 238.664 134.299 240.544C133.367 241.576 132.844 242.909 132.827 244.295C132.809 245.681 133.298 247.025 134.204 248.08C134.366 248.27 134.542 248.448 134.728 248.614L131.09 254.874C130.948 255.119 130.759 255.333 130.533 255.505C130.307 255.677 130.05 255.803 129.775 255.876C129.5 255.949 129.214 255.968 128.932 255.931C128.65 255.894 128.378 255.803 128.131 255.662L132.08 248.866C131.512 248.054 131.105 247.143 130.879 246.181L128.46 250.353C128.172 250.847 127.699 251.207 127.144 251.355C126.589 251.503 125.998 251.426 125.5 251.141L131.757 240.378C132.018 239.935 132.32 239.519 132.661 239.135ZM139.883 242.561C141.39 243.425 141.91 245.347 141.038 246.843L135.038 257.138C134.75 257.632 134.277 257.992 133.722 258.14C133.167 258.287 132.576 258.21 132.078 257.925L137.65 248.341C137.202 248.247 136.781 248.059 136.415 247.788C136.049 247.517 135.746 247.17 135.527 246.772C135.309 246.374 135.18 245.933 135.15 245.48C135.12 245.027 135.189 244.574 135.353 244.15C135.516 243.727 135.77 243.343 136.098 243.027C136.425 242.71 136.818 242.468 137.248 242.317C137.679 242.166 138.138 242.11 138.593 242.152C139.047 242.193 139.487 242.333 139.883 242.561ZM137.7 244.495C137.597 244.574 137.51 244.672 137.446 244.784H137.445C137.348 244.952 137.302 245.146 137.315 245.34C137.328 245.534 137.398 245.719 137.518 245.874C137.637 246.028 137.799 246.144 137.985 246.206C138.17 246.269 138.37 246.275 138.559 246.224C138.748 246.174 138.918 246.069 139.047 245.923C139.176 245.777 139.259 245.596 139.284 245.403C139.31 245.211 139.277 245.015 139.191 244.84C139.104 244.666 138.967 244.52 138.798 244.423C138.685 244.359 138.561 244.317 138.432 244.3C138.303 244.283 138.172 244.291 138.046 244.325C137.921 244.359 137.803 244.417 137.7 244.495Z" fill="#F0F3FA"/>
<rect x="26" y="167" width="48" height="48" rx="8" fill="url(#paint5_linear_5768_32988)"/>
<g clip-path="url(#clip3_5768_32988)">
<path d="M58.3945 176.6H41.6008C38.2854 176.6 35.5977 179.287 35.5977 182.603V199.396C35.5977 202.712 38.2854 205.4 41.6008 205.4H58.3945C61.7099 205.4 64.3977 202.712 64.3977 199.396V182.603C64.3977 179.287 61.7099 176.6 58.3945 176.6Z" fill="black"/>
<path d="M54.4611 197.933C54.3957 197.86 54.3302 197.787 54.2649 197.714C53.8042 197.211 53.5757 196.629 53.7572 195.858C52.0127 196.424 50.3374 196.552 48.6074 196.156C48.5621 196.674 48.5439 197.147 48.4737 197.612C48.3879 198.181 48.2567 198.744 48.1492 199.31C48.1117 199.507 48.0706 199.705 48.0582 199.905C48.0216 200.499 48.0347 201.099 47.9547 201.686C47.9136 201.988 47.7159 202.269 47.5997 202.535H46.3046L46.3116 202.519C46.3807 202.331 46.4497 202.143 46.5189 201.954L46.5154 201.959C46.5854 201.889 46.6552 201.818 46.7252 201.748L46.7207 201.753C46.7561 201.717 46.7914 201.682 46.8267 201.646L47.0174 201.624C47.0359 201.31 47.0331 201.425 47.0359 201.31C47.0497 200.748 47.0416 200.184 47.0114 199.623C47.0002 199.417 46.9071 199.215 46.8514 199.011C46.8127 199.012 46.7741 199.013 46.7354 199.014C46.5289 199.759 46.3224 200.505 46.1159 201.25L46.1251 201.246C45.9772 201.514 45.7692 202.033 45.6214 202.301C45.4376 202.318 44.9192 202.286 44.4901 202.289C44.5251 201.935 44.6564 201.749 44.8796 201.549C45.3594 201.118 45.4886 200.486 45.4867 199.881C45.4842 199.036 45.3714 198.192 45.3057 197.347C45.3989 197.177 45.4529 196.96 45.5914 196.845C46.5287 196.064 47.2934 195.131 48.0072 194.154C48.6982 193.207 49.3937 192.263 50.0449 191.289C50.7621 190.216 51.5051 189.146 51.6696 187.811C52.8842 187.939 54.0439 188.234 55.1326 188.818C55.4652 188.996 55.8827 189.016 56.2612 189.108C56.4016 189.217 56.6096 189.296 56.6707 189.438C56.9791 190.155 57.2807 190.879 57.5246 191.619C57.8244 192.531 57.9046 193.465 57.7496 194.429C57.5639 195.583 57.0557 196.576 56.4012 197.518C56.2924 197.675 56.2571 197.883 56.1877 198.067L56.1902 198.064C56.0766 198.145 55.9564 198.217 55.8506 198.307C55.5642 198.548 55.4951 199.017 55.0394 199.082C55.0332 199.058 55.0302 199.033 55.0307 199.007C55.0067 198.962 54.9829 198.916 54.9589 198.871C54.7929 198.558 54.6267 198.246 54.4607 197.933L54.4611 197.933ZM42.6229 184.51C42.4486 184.503 42.2681 184.638 42.0904 184.708C42.0904 184.708 41.9277 186.055 41.9277 186.733C41.9277 187.411 42.1596 187.985 42.1989 188.623C42.2269 189.077 42.2491 189.563 42.4251 189.968C42.6364 190.455 42.7282 190.926 42.7019 191.443C42.6289 192.882 43.3747 193.855 44.5179 194.596C45.0321 194.037 45.5902 193.513 46.0511 192.913C46.9734 191.713 47.7611 190.427 48.1947 188.957C48.2851 188.651 48.3446 188.336 48.4327 187.964C48.4807 187.915 48.5792 187.814 48.6777 187.713L46.3121 187.707C46.2772 187.675 46.2529 187.653 46.2181 187.621L45.9187 184.702C44.8202 184.635 43.7221 184.556 42.6226 184.51L42.6229 184.51ZM45.0989 181.031C44.7029 180.231 44.1214 179.614 43.2404 179.262C43.2264 179.503 43.2151 179.696 43.2027 179.91C42.9084 179.698 42.6481 179.51 42.3119 179.268C42.3549 179.701 42.3966 180.003 42.4126 180.307C42.4441 180.907 42.1862 181.208 41.5816 181.292C41.4637 181.309 41.3414 181.292 41.2229 181.306C40.8682 181.347 40.6787 181.547 40.6311 181.9C40.5687 182.361 40.8046 182.664 41.1821 182.847C41.5749 183.038 41.9937 183.176 42.4729 183.366C42.4027 183.603 42.3314 183.836 42.2644 184.071C42.2041 184.283 42.1486 184.496 42.0909 184.708C42.2686 184.639 42.4489 184.503 42.6234 184.51C43.7229 184.557 44.8211 184.635 45.9196 184.702C45.8576 183.431 45.6711 182.185 45.0992 181.031L45.0989 181.031ZM56.7342 198.743C56.7669 198.777 56.7994 198.811 56.8321 198.846C56.8662 198.88 56.9004 198.914 56.9346 198.948C56.9686 198.981 57.0024 199.014 57.0364 199.046C57.1614 199.13 57.2864 199.213 57.4112 199.296C57.4719 198.97 57.8421 198.502 58.1517 198.274C58.2796 198.18 58.3359 197.992 58.4349 197.855C58.4902 197.778 58.5664 197.716 58.6332 197.647C58.6062 197.43 58.5637 197.213 58.5554 196.995C58.5316 196.37 58.5707 195.752 58.3747 195.128C58.1392 194.378 58.2307 193.586 58.2744 192.792C58.9931 192.647 59.2989 192.178 59.3392 191.548C59.3879 190.786 59.2451 190.051 58.7677 189.427C58.4256 188.98 57.9621 188.729 57.3871 188.82C57.0062 188.88 56.6364 189.009 56.2616 189.108C56.4019 189.216 56.6099 189.296 56.6711 189.438C56.9794 190.155 57.2811 190.878 57.5249 191.619C57.8247 192.53 57.9049 193.465 57.7499 194.429C57.5642 195.583 57.0561 196.576 56.4016 197.518C56.2927 197.675 56.2574 197.883 56.1881 198.067C56.3702 198.292 56.5522 198.518 56.7344 198.743H56.7342ZM50.4306 187.757C50.3257 189.109 49.6816 190.247 48.9666 191.346C48.3371 192.314 47.7041 193.284 46.9974 194.196C46.4899 194.85 45.8586 195.408 45.2824 196.01C45.2902 196.455 45.2981 196.901 45.3059 197.347C45.3991 197.177 45.4531 196.96 45.5916 196.845C46.5289 196.064 47.2936 195.131 48.0074 194.154C48.6984 193.207 49.3939 192.263 50.0451 191.289C50.7622 190.216 51.5052 189.146 51.6697 187.81C51.2567 187.792 50.8437 187.775 50.4307 187.757H50.4306ZM45.0772 194.98C45.6104 194.392 46.2101 193.851 46.6614 193.206C47.3589 192.21 47.9824 191.159 48.5836 190.1C48.9246 189.5 49.1726 188.846 49.2046 188.131C49.2102 188.003 49.3417 187.88 49.4151 187.754C49.3547 187.756 49.2946 187.758 49.2342 187.759C49.1569 187.743 49.0796 187.727 49.0024 187.712C48.8942 187.712 48.7862 187.713 48.6781 187.713C48.5796 187.814 48.4809 187.915 48.4331 187.964C48.3449 188.336 48.2852 188.651 48.1951 188.957C47.7614 190.427 46.9737 191.713 46.0514 192.913C45.5906 193.513 45.0324 194.038 44.5182 194.596C44.7046 194.724 44.8909 194.852 45.0772 194.98V194.98ZM49.7136 187.754C49.7536 188.878 49.2522 189.832 48.7151 190.755C48.1962 191.645 47.6131 192.5 47.0212 193.345C46.6731 193.842 46.2572 194.293 45.8642 194.758C45.6792 194.976 45.4764 195.18 45.2816 195.391C45.2819 195.597 45.2821 195.803 45.2824 196.01C45.8586 195.408 46.4899 194.85 46.9974 194.196C47.7041 193.285 48.3372 192.314 48.9666 191.346C49.6816 190.247 50.3257 189.109 50.4306 187.757C50.1916 187.756 49.9526 187.755 49.7134 187.754H49.7136ZM57.4304 199.378C57.5214 199.564 57.6882 199.75 57.6894 199.937C57.6936 200.6 57.6454 201.264 57.6032 201.927C57.5996 201.986 57.4957 202.038 57.4384 202.094C57.4001 202.122 57.3616 202.151 57.3232 202.18C57.2901 202.215 57.2569 202.25 57.2237 202.285C57.1876 202.317 57.1512 202.349 57.1151 202.381C57.1719 202.445 57.2259 202.561 57.2859 202.564C57.6227 202.582 57.9609 202.573 58.3137 202.573C58.6104 201.848 58.7121 201.141 58.6024 200.4C58.5807 200.254 58.5399 200.07 58.6032 199.957C59.0352 199.186 58.9204 198.42 58.6332 197.647C58.5664 197.715 58.4902 197.777 58.4349 197.854C58.3359 197.992 58.2796 198.18 58.1517 198.274C57.8421 198.501 57.4719 198.97 57.4112 199.296C57.4161 199.323 57.4224 199.351 57.4304 199.377V199.378ZM49.4152 187.754C49.3419 187.88 49.2104 188.003 49.2047 188.131C49.1727 188.846 48.9247 189.5 48.5837 190.1C47.9824 191.159 47.3591 192.21 46.6616 193.206C46.2101 193.851 45.6106 194.392 45.0774 194.98C45.1456 195.117 45.2136 195.254 45.2817 195.391C45.4766 195.18 45.6794 194.976 45.8644 194.757C46.2574 194.293 46.6732 193.842 47.0214 193.345C47.6131 192.5 48.1964 191.645 48.7152 190.754C49.2524 189.832 49.7537 188.878 49.7137 187.754C49.6142 187.754 49.5149 187.754 49.4154 187.754L49.4152 187.754ZM49.0024 187.711C49.0797 187.727 49.1571 187.743 49.2342 187.759C49.1569 187.743 49.0796 187.727 49.0024 187.711ZM46.2227 187.664C46.2526 187.678 46.2826 187.692 46.3124 187.707C46.2857 187.686 46.2557 187.672 46.2227 187.664ZM54.2574 201.478C54.1167 201.576 53.9761 201.673 53.8354 201.771C53.8081 201.928 53.7807 202.086 53.7521 202.251H54.9561C54.9561 202.008 54.9399 201.789 54.9617 201.574C54.9762 201.431 55.0069 201.26 55.0964 201.16C55.8927 200.277 56.2071 199.231 56.1906 198.064C56.0769 198.144 55.9567 198.217 55.8509 198.306C55.5646 198.548 55.4954 199.017 55.0397 199.082C55.0527 199.97 54.7844 200.766 54.2576 201.478H54.2574Z" fill="url(#paint6_linear_5768_32988)"/>
</g>
</g>
<defs>
<linearGradient id="paint0_linear_5768_32988" x1="112" y1="68" x2="112" y2="116" gradientUnits="userSpaceOnUse">
<stop stop-color="#28324D"/>
<stop offset="1" stop-color="#141B2E"/>
</linearGradient>
<linearGradient id="paint1_linear_5768_32988" x1="443" y1="166" x2="443" y2="255" gradientUnits="userSpaceOnUse">
<stop stop-color="#161E33"/>
<stop offset="1" stop-color="#0E1424"/>
</linearGradient>
<linearGradient id="paint2_linear_5768_32988" x1="384" y1="34" x2="384" y2="82" gradientUnits="userSpaceOnUse">
<stop stop-color="#28324D"/>
<stop offset="1" stop-color="#141B2E"/>
</linearGradient>
<linearGradient id="paint3_linear_5768_32988" x1="478" y1="81" x2="478" y2="129" gradientUnits="userSpaceOnUse">
<stop stop-color="#28324D"/>
<stop offset="1" stop-color="#141B2E"/>
</linearGradient>
<linearGradient id="paint4_linear_5768_32988" x1="136" y1="223" x2="136" y2="271" gradientUnits="userSpaceOnUse">
<stop stop-color="#28324D"/>
<stop offset="1" stop-color="#141B2E"/>
</linearGradient>
<linearGradient id="paint5_linear_5768_32988" x1="50" y1="167" x2="50" y2="215" gradientUnits="userSpaceOnUse">
<stop stop-color="#28324D"/>
<stop offset="1" stop-color="#141B2E"/>
</linearGradient>
<linearGradient id="paint6_linear_5768_32988" x1="37.7296" y1="187.226" x2="60.5762" y2="200.363" gradientUnits="userSpaceOnUse">
<stop stop-color="#F6DDD7"/>
<stop offset="0.25" stop-color="#FCABE6"/>
<stop offset="0.3" stop-color="#F3ADE6"/>
<stop offset="0.38" stop-color="#DDB3E8"/>
<stop offset="0.48" stop-color="#B8BCEC"/>
<stop offset="0.59" stop-color="#85CAF1"/>
<stop offset="0.7" stop-color="#50D8F6"/>
<stop offset="0.76" stop-color="#50D8F6"/>
<stop offset="0.86" stop-color="#B58FE8"/>
</linearGradient>
<clipPath id="clip0_5768_32988">
<rect width="560" height="400" fill="white"/>
</clipPath>
<clipPath id="clip1_5768_32988">
<path d="M366 174C366 169.582 369.582 166 374 166H512C516.418 166 520 169.582 520 174V247C520 251.418 516.418 255 512 255H374C369.582 255 366 251.418 366 247V174Z" fill="white"/>
</clipPath>
<clipPath id="clip2_5768_32988">
<rect width="24" height="24" fill="white" transform="translate(466 93)"/>
</clipPath>
<clipPath id="clip3_5768_32988">
<rect width="32" height="32" fill="white" transform="translate(34 175)"/>
</clipPath>
</defs>
</svg>
