<svg width="300" height="210" viewBox="0 0 300 210" fill="none" xmlns="http://www.w3.org/2000/svg">
<g clip-path="url(#clip0_4341_9481)">
<circle cx="150" cy="254" r="156" fill="url(#paint0_linear_4341_9481)"/>
<path d="M82.0327 129.476C96.0441 114.807 133.01 113.959 163.708 115.229C194.406 116.5 222.523 115.67 221.711 135.267C220.9 154.865 171.312 170.911 140.614 169.641C109.916 168.37 68.0213 144.145 82.0327 129.476Z" fill="#161E33"/>
<path d="M114.871 65.9949L122.406 81.0904C123.197 82.6755 124.727 83.7744 126.496 84.0291L143.343 86.4499C147.799 87.09 149.578 92.5045 146.354 95.6124L134.163 107.362C132.882 108.596 132.298 110.374 132.6 112.117L135.478 128.709C136.24 133.097 131.582 136.443 127.596 134.371L112.528 126.538C110.945 125.715 109.054 125.715 107.472 126.538L92.4038 134.371C88.4182 136.443 83.7605 133.096 84.5215 128.709L87.3995 112.117C87.7016 110.374 87.1179 108.596 85.8373 107.362L73.6463 95.6118C70.4223 92.5038 72.2014 87.0894 76.6571 86.4493L93.504 84.0285C95.2732 83.7744 96.8027 82.6755 97.594 81.0898L105.129 65.9943C107.121 62.0019 112.879 62.0019 114.871 65.9943V65.9949Z" fill="url(#paint1_linear_4341_9481)"/>
<path d="M193.871 65.9943L201.406 81.09C202.197 82.6751 203.727 83.774 205.496 84.0287L222.343 86.4495C226.799 87.0896 228.578 92.5041 225.354 95.612L213.163 107.362C211.882 108.596 211.298 110.374 211.6 112.117L214.478 128.708C215.24 133.097 210.582 136.443 206.596 134.371L191.528 126.538C189.945 125.715 188.054 125.715 186.472 126.538L171.404 134.371C167.418 136.443 162.76 133.096 163.522 128.708L166.4 112.117C166.702 110.374 166.117 108.596 164.837 107.362L152.646 95.612C149.422 92.5041 151.201 87.0896 155.657 86.4495L172.504 84.0287C174.273 83.7746 175.803 82.6757 176.594 81.09L184.129 65.9943C186.121 62.0019 191.879 62.0019 193.871 65.9943Z" fill="url(#paint2_linear_4341_9481)"/>
<path d="M156.026 35.7428L165.345 54.6122C166.323 56.5939 168.215 57.9673 170.403 58.2856L191.24 61.3114C196.751 62.1115 198.951 68.8796 194.964 72.7644L179.886 87.4522C178.303 88.9946 177.58 91.2172 177.953 93.3956L181.513 114.136C182.454 119.621 176.694 123.803 171.764 121.214L153.127 111.422C151.17 110.393 148.831 110.393 146.873 111.422L128.236 121.214C123.307 123.803 117.546 119.621 118.487 114.136L122.047 93.3956C122.42 91.2172 121.698 88.9952 120.114 87.4522L105.036 72.7644C101.049 68.8796 103.249 62.1115 108.76 61.3114L129.597 58.2856C131.785 57.9679 133.677 56.5945 134.655 54.6122L143.974 35.7428C146.439 30.7524 153.56 30.7524 156.024 35.7428H156.026Z" fill="url(#paint3_linear_4341_9481)"/>
<path opacity="0.2" d="M150 81.2197C154.971 81.2197 159 77.1903 159 72.2197C159 67.2492 154.971 63.2197 150 63.2197C145.029 63.2197 141 67.2492 141 72.2197C141 77.1903 145.029 81.2197 150 81.2197Z" fill="#F0F3FA"/>
<path opacity="0.2" d="M166.662 97.7648C166.662 98.628 166.593 99.4752 166.459 100.301H135.332C135.198 99.4752 135.129 98.628 135.129 97.7648C135.129 89.057 142.188 81.999 150.895 81.999C159.602 81.999 166.662 89.0576 166.662 97.7648Z" fill="#F0F3FA"/>
<path d="M269.74 102.74L268.588 107.068L271.763 110.244L276.091 109.091L277.244 104.763L274.068 101.588L269.74 102.74Z" fill="#E0700D"/>
<path d="M31.8755 109L28 111.245V115.736L31.8755 117.981L35.751 115.736V111.245L31.8755 109Z" fill="#8547FF"/>
<path d="M231.74 42.7403L230.588 47.0684L233.763 50.2438L238.091 49.0911L239.244 44.763L236.068 41.5876L231.74 42.7403Z" fill="#008A53"/>
<path d="M71.8755 33L68 35.2453V39.736L71.8755 41.9813L75.751 39.736V35.2453L71.8755 33Z" fill="#DC244C"/>
</g>
<defs>
<linearGradient id="paint0_linear_4341_9481" x1="150" y1="98" x2="150" y2="410" gradientUnits="userSpaceOnUse">
<stop stop-color="#161E33"/>
<stop offset="1" stop-color="#0E1424"/>
</linearGradient>
<linearGradient id="paint1_linear_4341_9481" x1="110" y1="82.9343" x2="110" y2="135" gradientUnits="userSpaceOnUse">
<stop stop-color="#779CE6"/>
<stop offset="1" stop-color="#2567EB"/>
</linearGradient>
<linearGradient id="paint2_linear_4341_9481" x1="189" y1="82.9343" x2="189" y2="135" gradientUnits="userSpaceOnUse">
<stop stop-color="#779CE6"/>
<stop offset="1" stop-color="#2567EB"/>
</linearGradient>
<linearGradient id="paint3_linear_4341_9481" x1="150" y1="53.9079" x2="150" y2="122" gradientUnits="userSpaceOnUse">
<stop stop-color="#2861D3"/>
<stop offset="1" stop-color="#7335F0"/>
</linearGradient>
<clipPath id="clip0_4341_9481">
<rect width="300" height="210" fill="white"/>
</clipPath>
</defs>
</svg>
