<svg width="24" height="24" viewBox="0 0 24 24" fill="none" xmlns="http://www.w3.org/2000/svg">
<path d="M19.6512 3.40083C18.217 2.7449 16.6939 2.26683 15.1041 2C14.9038 2.34466 14.6815 2.81159 14.5259 3.17849C12.8349 2.93389 11.1561 2.93389 9.48839 3.17849C9.33274 2.81159 9.09925 2.34466 8.91024 2C7.30931 2.26683 5.78616 2.7449 4.36198 3.40083C1.48247 7.64783 0.704217 11.7948 1.09334 15.8861C3.0056 17.2758 4.85117 18.1208 6.66449 18.6767C7.1092 18.0764 7.50945 17.4315 7.8541 16.7533C7.19815 16.5088 6.57555 16.2086 5.97519 15.8527C6.13084 15.7416 6.28649 15.6194 6.43103 15.497C10.0554 17.1536 13.9811 17.1536 17.5611 15.497C17.7167 15.6194 17.8612 15.7416 18.0169 15.8527C17.4165 16.2086 16.7939 16.5088 16.1379 16.7533C16.4826 17.4315 16.8828 18.0764 17.3276 18.6767C19.1397 18.1208 20.9965 17.2758 22.8987 15.8861C23.3768 11.15 22.1415 7.03639 19.6512 3.40083ZM8.3544 13.3624C7.26483 13.3624 6.37541 12.3729 6.37541 11.161C6.37541 9.94927 7.2426 8.95973 8.3544 8.95973C9.45504 8.95973 10.3556 9.94927 10.3333 11.161C10.3333 12.3729 9.45504 13.3624 8.3544 13.3624ZM15.6599 13.3624C14.5703 13.3624 13.6798 12.3729 13.6798 11.161C13.6798 9.94927 14.5481 8.95973 15.6599 8.95973C16.7606 8.95973 17.6611 9.94927 17.6388 11.161C17.6388 12.3729 16.7717 13.3624 15.6599 13.3624Z" stroke="#161E33" stroke-width="2" stroke-linejoin="round"/>
</svg>
