<svg width="24" height="24" viewBox="0 0 24 24" fill="none" xmlns="http://www.w3.org/2000/svg">
<path d="M7.20038 11.2973C7.20038 11.568 7.22964 11.7876 7.28086 11.9485C7.3394 12.1095 7.41257 12.2851 7.51501 12.4754C7.55159 12.5339 7.56623 12.5924 7.56623 12.6436C7.56623 12.7168 7.52233 12.79 7.4272 12.8632L6.96623 13.1705C6.90038 13.2144 6.83452 13.2363 6.77599 13.2363C6.70282 13.2363 6.62965 13.1997 6.55648 13.1339C6.45404 13.0241 6.36623 12.9071 6.29306 12.79C6.21989 12.6656 6.14672 12.5266 6.06624 12.3583C5.49551 13.0315 4.77844 13.368 3.91502 13.368C3.30039 13.368 2.81015 13.1924 2.45162 12.8412C2.09308 12.49 1.91016 12.0217 1.91016 11.4363C1.91016 10.8144 2.12967 10.3095 2.57601 9.92903C3.02235 9.54854 3.61503 9.3583 4.36868 9.3583C4.61746 9.3583 4.87356 9.38025 5.14429 9.41683C5.41502 9.45342 5.69307 9.51196 5.98575 9.57781V9.04367C5.98575 8.48757 5.86867 8.09977 5.64185 7.87294C5.4077 7.64611 5.01258 7.53636 4.44917 7.53636C4.19307 7.53636 3.92966 7.56562 3.65893 7.63148C3.3882 7.69733 3.12478 7.77782 2.86869 7.88026C2.75162 7.93148 2.66381 7.96074 2.61259 7.97538C2.56137 7.99001 2.52479 7.99733 2.49552 7.99733C2.39308 7.99733 2.34186 7.92416 2.34186 7.7705V7.41197C2.34186 7.29489 2.3565 7.20709 2.39308 7.15587C2.42967 7.10465 2.49552 7.05343 2.59796 7.00221C2.85405 6.8705 3.16137 6.76075 3.5199 6.67294C3.87844 6.57782 4.25893 6.53392 4.66136 6.53392C5.53209 6.53392 6.16867 6.73148 6.57843 7.1266C6.98086 7.52172 7.18574 8.12172 7.18574 8.92659V11.2973H7.20038ZM4.22966 12.4095C4.47112 12.4095 4.7199 12.3656 4.98331 12.2778C5.24673 12.19 5.48087 12.029 5.67843 11.8095C5.7955 11.6705 5.88331 11.5168 5.92721 11.3412C5.97111 11.1656 6.00038 10.9534 6.00038 10.7046V10.3973C5.78819 10.3461 5.56136 10.3022 5.32721 10.2729C5.09307 10.2437 4.86624 10.229 4.63941 10.229C4.14917 10.229 3.79064 10.3241 3.54917 10.5217C3.30771 10.7193 3.19064 10.9973 3.19064 11.3632C3.19064 11.7071 3.27844 11.9632 3.46137 12.1388C3.63698 12.3217 3.89307 12.4095 4.22966 12.4095ZM10.1052 13.1997C9.97353 13.1997 9.88573 13.1778 9.82719 13.1266C9.76866 13.0827 9.71744 12.9802 9.67353 12.8412L7.95403 7.18514C7.91013 7.0388 7.88818 6.94368 7.88818 6.89246C7.88818 6.77538 7.94671 6.70953 8.06379 6.70953H8.78086C8.91988 6.70953 9.015 6.73148 9.06622 6.7827C9.12476 6.8266 9.16866 6.92904 9.21256 7.06807L10.4418 11.9119L11.5833 7.06807C11.6199 6.92172 11.6638 6.8266 11.7223 6.7827C11.7808 6.7388 11.8833 6.70953 12.015 6.70953H12.6004C12.7394 6.70953 12.8345 6.73148 12.893 6.7827C12.9516 6.8266 13.0028 6.92904 13.0321 7.06807L14.1881 11.9705L15.454 7.06807C15.4979 6.92172 15.5491 6.8266 15.6003 6.7827C15.6589 6.7388 15.754 6.70953 15.8857 6.70953H16.5662C16.6833 6.70953 16.7491 6.76807 16.7491 6.89246C16.7491 6.92904 16.7418 6.96563 16.7345 7.00953C16.7272 7.05343 16.7125 7.11197 16.6833 7.19245L14.9199 12.8485C14.8759 12.9949 14.8247 13.09 14.7662 13.1339C14.7077 13.1778 14.6125 13.2071 14.4881 13.2071H13.8589C13.7199 13.2071 13.6247 13.1851 13.5662 13.1339C13.5077 13.0827 13.4564 12.9875 13.4272 12.8412L12.293 8.12172L11.1662 12.8339C11.1296 12.9802 11.0857 13.0754 11.0272 13.1266C10.9687 13.1778 10.8662 13.1997 10.7345 13.1997H10.1052ZM19.5076 13.3973C19.1271 13.3973 18.7467 13.3534 18.3808 13.2656C18.015 13.1778 17.7296 13.0827 17.5394 12.9729C17.4223 12.9071 17.3418 12.8339 17.3125 12.768C17.2833 12.7022 17.2686 12.629 17.2686 12.5632V12.19C17.2686 12.0363 17.3272 11.9632 17.4369 11.9632C17.4808 11.9632 17.5247 11.9705 17.5686 11.9851C17.6125 11.9997 17.6784 12.029 17.7515 12.0583C18.0003 12.168 18.2711 12.2558 18.5564 12.3144C18.8491 12.3729 19.1345 12.4022 19.4271 12.4022C19.8881 12.4022 20.2467 12.3217 20.4954 12.1607C20.7442 11.9997 20.8759 11.7656 20.8759 11.4656C20.8759 11.2607 20.8101 11.0924 20.6784 10.9534C20.5467 10.8144 20.2979 10.69 19.9393 10.5729L18.8784 10.2437C18.3442 10.0754 17.9491 9.82659 17.7076 9.49732C17.4662 9.17537 17.3418 8.81684 17.3418 8.43635C17.3418 8.12904 17.4076 7.85831 17.5394 7.62416C17.6711 7.39001 17.8467 7.18514 18.0662 7.02416C18.2857 6.85587 18.5345 6.73148 18.8272 6.64368C19.1198 6.55587 19.4271 6.51929 19.7491 6.51929C19.9101 6.51929 20.0784 6.5266 20.2393 6.54856C20.4076 6.57051 20.5613 6.59977 20.7149 6.62904C20.8613 6.66563 21.0003 6.70221 21.132 6.74612C21.2637 6.79002 21.3662 6.83392 21.4393 6.87782C21.5418 6.93636 21.6149 6.99489 21.6588 7.06075C21.7027 7.11928 21.7247 7.19977 21.7247 7.30221V7.64611C21.7247 7.79977 21.6662 7.88026 21.5564 7.88026C21.4979 7.88026 21.4027 7.85099 21.2784 7.79245C20.8613 7.60221 20.393 7.50709 19.8735 7.50709C19.4564 7.50709 19.1271 7.57294 18.9003 7.71196C18.6735 7.85099 18.5564 8.06318 18.5564 8.36318C18.5564 8.56806 18.6296 8.74367 18.7759 8.88269C18.9223 9.02171 19.193 9.16074 19.5808 9.28513L20.6198 9.61439C21.1467 9.78269 21.5271 10.0168 21.754 10.3168C21.9808 10.6168 22.0905 10.9607 22.0905 11.3412C22.0905 11.6558 22.0247 11.9412 21.9003 12.19C21.7686 12.4388 21.593 12.6583 21.3662 12.8339C21.1393 13.0168 20.8686 13.1485 20.554 13.2436C20.2247 13.3461 19.8808 13.3973 19.5076 13.3973Z" fill="#252F3E"/>
<path fill-rule="evenodd" clip-rule="evenodd" d="M20.891 16.9535C18.4837 18.7315 14.9862 19.6754 11.9789 19.6754C7.76426 19.6754 3.96672 18.1169 1.09844 15.5266C0.871613 15.3218 1.07649 15.0437 1.34722 15.2047C4.44964 17.0047 8.27646 18.0949 12.235 18.0949C14.9057 18.0949 17.8398 17.5388 20.5398 16.3974C20.9423 16.2144 21.2862 16.6608 20.891 16.9535Z" fill="#FF9900"/>
<path fill-rule="evenodd" clip-rule="evenodd" d="M21.8926 15.812C21.5852 15.4169 19.8584 15.6218 19.0755 15.7169C18.8413 15.7461 18.8048 15.5413 19.017 15.3876C20.3926 14.4218 22.6535 14.6998 22.9169 15.0218C23.1804 15.351 22.8438 17.612 21.556 18.6949C21.3584 18.8632 21.1682 18.7754 21.256 18.5559C21.5487 17.8315 22.1999 16.1998 21.8926 15.812Z" fill="#FF9900"/>
</svg>
