<svg width="24" height="24" viewBox="0 0 24 24" fill="none" xmlns="http://www.w3.org/2000/svg">
<path d="M8.66646 2.94176H14.5846L8.44099 21.1447C8.37784 21.3318 8.25763 21.4943 8.09727 21.6095C7.93691 21.7246 7.74447 21.7866 7.54706 21.7866H2.94125C2.79167 21.7866 2.64424 21.751 2.51115 21.6828C2.37806 21.6145 2.26314 21.5155 2.17589 21.394C2.08864 21.2725 2.03158 21.132 2.00942 20.9841C1.98726 20.8361 2.00064 20.6851 2.04846 20.5433L7.7723 3.58362C7.83542 3.3965 7.95565 3.23388 8.11606 3.11869C8.27647 3.0035 8.46897 2.94177 8.66646 2.94176Z" fill="url(#paint0_linear_701_2956)"/>
<path d="M17.2669 15.151H7.8821C7.79485 15.1509 7.70959 15.1771 7.63743 15.2261C7.56528 15.2752 7.50956 15.3448 7.47755 15.426C7.44554 15.5072 7.43872 15.5961 7.45797 15.6812C7.47722 15.7663 7.52166 15.8436 7.58548 15.9031L13.6159 21.5317C13.7915 21.6955 14.0227 21.7866 14.2628 21.7865H19.5769L17.2669 15.151Z" fill="#0078D4"/>
<path d="M8.66623 2.94178C8.46659 2.94101 8.27194 3.0041 8.1107 3.12183C7.94946 3.23956 7.83009 3.40576 7.77003 3.59615L2.05527 20.5279C2.00424 20.6701 1.98822 20.8226 2.00857 20.9723C2.02891 21.1221 2.08502 21.2647 2.17215 21.3882C2.25928 21.5117 2.37487 21.6123 2.50914 21.6817C2.64341 21.751 2.7924 21.787 2.94352 21.7866H7.6682C7.84417 21.7552 8.00864 21.6776 8.14481 21.5618C8.28098 21.446 8.38397 21.2961 8.44326 21.1275L9.58289 17.7688L13.6537 21.5657C13.8242 21.7068 14.0382 21.7848 14.2596 21.7866H19.5539L17.2319 15.1511L10.463 15.1527L14.6058 2.94178H8.66623Z" fill="url(#paint1_linear_701_2956)"/>
<path d="M16.2258 3.58261C16.1628 3.39578 16.0427 3.23344 15.8826 3.11845C15.7224 3.00347 15.5302 2.94163 15.333 2.94165H8.7373C8.93447 2.94166 9.12666 3.00351 9.28682 3.1185C9.44698 3.23348 9.56704 3.3958 9.6301 3.58261L15.3542 20.543C15.402 20.6847 15.4154 20.8359 15.3933 20.9838C15.3712 21.1318 15.3141 21.2724 15.2269 21.3939C15.1396 21.5154 15.0247 21.6145 14.8916 21.6828C14.7585 21.7511 14.611 21.7867 14.4614 21.7867H21.0573C21.2069 21.7867 21.3544 21.751 21.4874 21.6827C21.6205 21.6144 21.7354 21.5153 21.8226 21.3938C21.9099 21.2723 21.9669 21.1317 21.989 20.9838C22.0112 20.8358 21.9977 20.6847 21.9499 20.543L16.2258 3.58261Z" fill="url(#paint2_linear_701_2956)"/>
<defs>
<linearGradient id="paint0_linear_701_2956" x1="10.8234" y1="4.33823" x2="4.67729" y2="22.4955" gradientUnits="userSpaceOnUse">
<stop stop-color="#114A8B"/>
<stop offset="1" stop-color="#0669BC"/>
</linearGradient>
<linearGradient id="paint1_linear_701_2956" x1="12.7431" y1="12.8" x2="11.3214" y2="13.2807" gradientUnits="userSpaceOnUse">
<stop stop-opacity="0.3"/>
<stop offset="0.071" stop-opacity="0.2"/>
<stop offset="0.321" stop-opacity="0.1"/>
<stop offset="0.623" stop-opacity="0.05"/>
<stop offset="1" stop-opacity="0"/>
</linearGradient>
<linearGradient id="paint2_linear_701_2956" x1="11.9619" y1="3.80853" x2="18.7085" y2="21.7829" gradientUnits="userSpaceOnUse">
<stop stop-color="#3CCBF4"/>
<stop offset="1" stop-color="#2892DF"/>
</linearGradient>
</defs>
</svg>
