<svg width="24" height="24" viewBox="0 0 24 24" fill="none" xmlns="http://www.w3.org/2000/svg">
<path d="M14.9607 7.68026H15.6317L17.544 5.76795L17.638 4.95606C16.5424 3.98914 15.2185 3.31745 13.7912 3.00445C12.3639 2.69145 10.8804 2.74747 9.48077 3.16721C8.08115 3.58695 6.81163 4.35657 5.79216 5.40335C4.77268 6.45013 4.03689 7.73952 3.6543 9.14972C3.86734 9.0624 4.10334 9.04824 4.3253 9.10946L8.15 8.47874C8.15 8.47874 8.34459 8.15666 8.44524 8.17679C9.26476 7.27678 10.3973 6.72404 11.611 6.63173C12.8248 6.53943 14.0279 6.91453 14.9741 7.68026H14.9607Z" fill="#EA4335"/>
<path d="M20.2678 9.14972C19.8282 7.53106 18.9257 6.0759 17.671 4.96277L14.987 7.64671C15.5464 8.10376 15.9947 8.68187 16.298 9.33742C16.6014 9.99297 16.7519 10.7089 16.7383 11.4311V11.9075C17.052 11.9075 17.3626 11.9693 17.6525 12.0893C17.9423 12.2093 18.2056 12.3853 18.4274 12.6071C18.6492 12.8289 18.8252 13.0923 18.9452 13.3821C19.0653 13.6719 19.1271 13.9825 19.1271 14.2962C19.1271 14.6099 19.0653 14.9205 18.9452 15.2103C18.8252 15.5001 18.6492 15.7634 18.4274 15.9853C18.2056 16.2071 17.9423 16.383 17.6525 16.5031C17.3626 16.6231 17.052 16.6849 16.7383 16.6849H11.9608L11.4844 17.168V20.0331L11.9608 20.5095H16.7383C18.0724 20.5199 19.3744 20.1006 20.4518 19.3137C21.5291 18.5267 22.3245 17.4139 22.7204 16.1399C23.1162 14.8658 23.0914 13.4982 22.6498 12.2393C22.2081 10.9804 21.3729 9.89716 20.2678 9.14972Z" fill="#4285F4"/>
<path d="M7.17668 20.4827H11.9542V16.6581H7.17668C6.8363 16.658 6.49991 16.5848 6.1903 16.4434L5.5193 16.6514L3.59353 18.5637L3.42578 19.2347C4.50571 20.0501 5.82345 20.4886 7.17668 20.4827Z" fill="#34A853"/>
<path d="M7.17635 8.07621C5.88187 8.08394 4.62213 8.49578 3.57307 9.2542C2.52402 10.0126 1.73804 11.0797 1.32491 12.3065C0.911788 13.5333 0.892148 14.8585 1.26874 16.097C1.64533 17.3355 2.39934 18.4254 3.42546 19.2146L6.19669 16.4434C5.84452 16.2843 5.53622 16.0421 5.29822 15.7377C5.06023 15.4332 4.89965 15.0756 4.83026 14.6954C4.76088 14.3153 4.78476 13.924 4.89986 13.5551C5.01496 13.1862 5.21784 12.8507 5.4911 12.5775C5.76435 12.3042 6.09982 12.1014 6.46872 11.9863C6.83762 11.8712 7.22894 11.8473 7.6091 11.9167C7.98926 11.986 8.34691 12.1466 8.65137 12.3846C8.95583 12.6226 9.198 12.9309 9.35711 13.2831L12.1283 10.5119C11.5467 9.7515 10.797 9.13597 9.93794 8.71343C9.07888 8.29089 8.13371 8.0728 7.17635 8.07621Z" fill="#FBBC05"/>
</svg>
