<svg width="375" height="420" viewBox="0 0 375 420" fill="none" xmlns="http://www.w3.org/2000/svg">
<path d="M180.452 154L177 156V160L180.452 162L183.904 160V156L180.452 154Z" fill="#8547FF"/>
<path d="M315.778 139L312.326 141V145L315.778 147L319.23 145V141L315.778 139Z" fill="#DC244C"/>
<path d="M298.452 33L295 35V39L298.452 41L301.904 39V35L298.452 33Z" fill="#008A53"/>
<path d="M309.452 355L306 357V361L309.452 363L312.904 361V357L309.452 355Z" fill="#E02828"/>
<path d="M82.4521 300L79 302V306L82.4521 308L85.9041 306V302L82.4521 300Z" fill="#038585"/>
<path d="M33.4521 42L30 44V48L33.4521 50L36.9041 48V44L33.4521 42Z" fill="#E0700D"/>
<rect x="259" y="75" width="84" height="84" rx="6" fill="url(#paint0_linear_1811_13566)"/>
<path d="M294.067 98.1587H306.377L293.599 136.021C293.467 136.41 293.217 136.748 292.884 136.988C292.55 137.227 292.15 137.356 291.739 137.356H282.159C281.848 137.356 281.541 137.282 281.264 137.14C280.988 136.998 280.749 136.792 280.567 136.539C280.386 136.287 280.267 135.994 280.221 135.687C280.175 135.379 280.203 135.065 280.302 134.77L292.208 99.4938C292.339 99.1045 292.589 98.7663 292.923 98.5267C293.256 98.2871 293.657 98.1587 294.067 98.1587Z" fill="url(#paint1_linear_1811_13566)"/>
<path d="M311.956 123.555H292.436C292.254 123.554 292.077 123.609 291.927 123.711C291.777 123.813 291.661 123.958 291.594 124.127C291.528 124.296 291.513 124.48 291.554 124.657C291.594 124.834 291.686 124.995 291.819 125.119L304.362 136.827C304.727 137.167 305.208 137.357 305.708 137.357H316.761L311.956 123.555Z" fill="#0078D4"/>
<path d="M294.065 98.1592C293.65 98.1576 293.245 98.2888 292.909 98.5337C292.574 98.7786 292.326 99.1243 292.201 99.5203L280.314 134.738C280.208 135.034 280.175 135.351 280.217 135.663C280.259 135.974 280.376 136.271 280.557 136.528C280.739 136.785 280.979 136.994 281.258 137.138C281.538 137.282 281.847 137.357 282.162 137.356H291.989C292.355 137.291 292.697 137.13 292.98 136.889C293.264 136.648 293.478 136.336 293.601 135.985L295.972 128.999L304.439 136.897C304.794 137.19 305.239 137.353 305.699 137.356H316.711L311.882 123.555L297.802 123.558L306.419 98.1592H294.065Z" fill="url(#paint2_linear_1811_13566)"/>
<path d="M309.789 99.4924C309.658 99.1038 309.408 98.7661 309.075 98.5269C308.742 98.2878 308.342 98.1591 307.932 98.1592H294.213C294.623 98.1592 295.023 98.2879 295.356 98.527C295.689 98.7662 295.939 99.1038 296.07 99.4924L307.976 134.77C308.076 135.065 308.103 135.379 308.057 135.687C308.011 135.995 307.893 136.287 307.711 136.54C307.53 136.793 307.291 136.999 307.014 137.141C306.737 137.283 306.43 137.357 306.119 137.357H319.839C320.15 137.357 320.456 137.283 320.733 137.141C321.01 136.998 321.249 136.792 321.43 136.54C321.612 136.287 321.73 135.995 321.776 135.687C321.823 135.379 321.795 135.065 321.695 134.77L309.789 99.4924Z" fill="url(#paint3_linear_1811_13566)"/>
<g clip-path="url(#clip0_1811_13566)">
<g filter="url(#filter0_f_1811_13566)">
<ellipse cx="272.353" cy="88.3529" rx="15.4224" ry="20.5632" transform="rotate(45 272.353 88.3529)" fill="url(#paint4_linear_1811_13566)"/>
</g>
</g>
<rect x="209" y="323" width="52" height="52" rx="6" fill="url(#paint5_linear_1811_13566)"/>
<path d="M228.857 348.1C228.857 348.447 228.895 348.728 228.96 348.934C229.035 349.14 229.129 349.365 229.26 349.608C229.307 349.683 229.326 349.758 229.326 349.824C229.326 349.917 229.27 350.011 229.148 350.105L228.558 350.498C228.473 350.554 228.389 350.582 228.314 350.582C228.221 350.582 228.127 350.535 228.033 350.451C227.902 350.311 227.79 350.161 227.696 350.011C227.602 349.852 227.509 349.674 227.406 349.458C226.675 350.32 225.757 350.751 224.652 350.751C223.865 350.751 223.238 350.526 222.779 350.076C222.32 349.627 222.086 349.027 222.086 348.278C222.086 347.482 222.367 346.836 222.938 346.349C223.51 345.862 224.268 345.618 225.233 345.618C225.551 345.618 225.879 345.646 226.226 345.693C226.572 345.74 226.928 345.815 227.303 345.899V345.216C227.303 344.504 227.153 344.007 226.863 343.717C226.563 343.427 226.057 343.286 225.336 343.286C225.008 343.286 224.671 343.324 224.324 343.408C223.978 343.492 223.641 343.595 223.313 343.726C223.163 343.792 223.051 343.829 222.985 343.848C222.919 343.867 222.873 343.876 222.835 343.876C222.704 343.876 222.639 343.783 222.639 343.586V343.127C222.639 342.977 222.657 342.865 222.704 342.799C222.751 342.734 222.835 342.668 222.966 342.603C223.294 342.434 223.687 342.293 224.146 342.181C224.605 342.059 225.092 342.003 225.607 342.003C226.722 342.003 227.537 342.256 228.061 342.762C228.576 343.267 228.839 344.035 228.839 345.066V348.1H228.857ZM225.055 349.524C225.364 349.524 225.682 349.468 226.02 349.355C226.357 349.243 226.656 349.037 226.909 348.756C227.059 348.578 227.172 348.381 227.228 348.156C227.284 347.932 227.321 347.66 227.321 347.342V346.948C227.05 346.883 226.759 346.826 226.46 346.789C226.16 346.752 225.87 346.733 225.579 346.733C224.952 346.733 224.493 346.855 224.184 347.107C223.875 347.36 223.725 347.716 223.725 348.185C223.725 348.625 223.837 348.953 224.071 349.177C224.296 349.411 224.624 349.524 225.055 349.524ZM232.576 350.535C232.407 350.535 232.295 350.507 232.22 350.442C232.145 350.386 232.079 350.254 232.023 350.076L229.822 342.837C229.766 342.649 229.738 342.528 229.738 342.462C229.738 342.312 229.813 342.228 229.963 342.228H230.88C231.058 342.228 231.18 342.256 231.246 342.322C231.321 342.378 231.377 342.509 231.433 342.687L233.006 348.887L234.468 342.687C234.514 342.499 234.571 342.378 234.645 342.322C234.72 342.265 234.852 342.228 235.02 342.228H235.769C235.947 342.228 236.069 342.256 236.144 342.322C236.219 342.378 236.285 342.509 236.322 342.687L237.802 348.962L239.422 342.687C239.478 342.499 239.544 342.378 239.609 342.322C239.684 342.265 239.806 342.228 239.975 342.228H240.846C240.996 342.228 241.08 342.303 241.08 342.462C241.08 342.509 241.07 342.556 241.061 342.612C241.052 342.668 241.033 342.743 240.996 342.846L238.738 350.086C238.682 350.273 238.617 350.395 238.542 350.451C238.467 350.507 238.345 350.545 238.186 350.545H237.38C237.202 350.545 237.081 350.517 237.006 350.451C236.931 350.386 236.865 350.264 236.828 350.076L235.376 344.035L233.934 350.067C233.887 350.254 233.831 350.376 233.756 350.442C233.681 350.507 233.55 350.535 233.381 350.535H232.576ZM244.611 350.788C244.124 350.788 243.637 350.732 243.168 350.62C242.7 350.507 242.335 350.386 242.091 350.245C241.941 350.161 241.838 350.067 241.801 349.983C241.764 349.898 241.745 349.805 241.745 349.721V349.243C241.745 349.046 241.82 348.953 241.96 348.953C242.016 348.953 242.073 348.962 242.129 348.981C242.185 348.999 242.269 349.037 242.363 349.074C242.681 349.215 243.028 349.327 243.393 349.402C243.768 349.477 244.133 349.514 244.508 349.514C245.098 349.514 245.557 349.411 245.875 349.205C246.194 348.999 246.362 348.7 246.362 348.316C246.362 348.053 246.278 347.838 246.109 347.66C245.941 347.482 245.622 347.323 245.163 347.173L243.805 346.752C243.122 346.536 242.616 346.218 242.307 345.796C241.998 345.384 241.838 344.925 241.838 344.438C241.838 344.045 241.923 343.698 242.091 343.399C242.26 343.099 242.485 342.837 242.766 342.631C243.047 342.415 243.365 342.256 243.74 342.144C244.114 342.031 244.508 341.984 244.92 341.984C245.126 341.984 245.341 341.994 245.547 342.022C245.763 342.05 245.959 342.087 246.156 342.125C246.343 342.172 246.521 342.219 246.69 342.275C246.859 342.331 246.99 342.387 247.083 342.443C247.214 342.518 247.308 342.593 247.364 342.677C247.42 342.752 247.449 342.855 247.449 342.987V343.427C247.449 343.623 247.374 343.726 247.233 343.726C247.158 343.726 247.036 343.689 246.877 343.614C246.343 343.371 245.744 343.249 245.079 343.249C244.545 343.249 244.124 343.333 243.833 343.511C243.543 343.689 243.393 343.961 243.393 344.345C243.393 344.607 243.487 344.832 243.674 345.01C243.861 345.187 244.208 345.365 244.704 345.525L246.034 345.946C246.709 346.162 247.196 346.461 247.486 346.845C247.776 347.229 247.917 347.669 247.917 348.156C247.917 348.559 247.833 348.924 247.673 349.243C247.505 349.561 247.28 349.842 246.99 350.067C246.699 350.301 246.353 350.47 245.95 350.592C245.529 350.723 245.088 350.788 244.611 350.788Z" fill="white"/>
<path fill-rule="evenodd" clip-rule="evenodd" d="M246.379 355.34C243.298 357.616 238.821 358.824 234.972 358.824C229.577 358.824 224.716 356.829 221.045 353.514C220.754 353.251 221.017 352.896 221.363 353.102C225.334 355.406 230.233 356.801 235.299 356.801C238.718 356.801 242.474 356.089 245.93 354.628C246.445 354.394 246.885 354.965 246.379 355.34Z" fill="#FF9900"/>
<path fill-rule="evenodd" clip-rule="evenodd" d="M247.663 353.879C247.269 353.373 245.059 353.635 244.057 353.757C243.757 353.794 243.71 353.532 243.982 353.335C245.743 352.099 248.637 352.455 248.974 352.867C249.311 353.289 248.88 356.183 247.232 357.569C246.979 357.784 246.735 357.672 246.848 357.391C247.223 356.464 248.056 354.375 247.663 353.879Z" fill="#FF9900"/>
<g clip-path="url(#clip1_1811_13566)">
<g filter="url(#filter1_f_1811_13566)">
<ellipse cx="217.216" cy="331.217" rx="9.49071" ry="12.6543" transform="rotate(45 217.216 331.217)" fill="url(#paint6_linear_1811_13566)"/>
</g>
</g>
<g filter="url(#filter2_f_1811_13566)">
<rect x="315" y="229" width="52" height="52" rx="6" fill="url(#paint7_linear_1811_13566)"/>
<path d="M337.244 248.845C336.953 248.847 336.66 248.838 336.364 248.818C336.285 248.812 336.179 248.838 336.08 248.787C336.072 248.784 336.063 248.781 336.054 248.781L334.529 248.734C334.507 248.733 334.488 248.725 334.473 248.709C334.457 248.691 334.432 248.681 334.399 248.678C334.184 248.659 334.025 248.648 333.922 248.646C333.905 248.646 333.895 248.638 333.893 248.62C333.89 248.606 333.884 248.595 333.874 248.588C333.862 248.579 333.849 248.579 333.836 248.588C333.818 248.6 333.799 248.605 333.779 248.603" stroke="#F9D6DB" stroke-width="0.213704"/>
<path d="M337.313 249.492C336.765 249.51 336.226 249.508 335.698 249.485C335.172 249.463 334.639 249.437 334.114 249.39C334.021 249.382 333.909 249.415 333.799 249.356C333.769 249.339 333.738 249.339 333.708 249.356C333.685 249.368 333.659 249.372 333.631 249.369C333.594 249.366 333.576 249.345 333.576 249.308L333.579 249.191" stroke="#FBC6E0" stroke-width="0.213704"/>
<path d="M337.396 250.299C337.361 250.282 337.329 250.277 337.301 250.285C337.282 250.29 337.271 250.283 337.27 250.263C337.268 250.228 337.251 250.21 337.221 250.209C336.985 250.208 336.853 250.207 336.824 250.207C336.669 250.208 336.501 250.208 336.321 250.208H333.585C333.575 250.208 333.566 250.212 333.559 250.219C333.552 250.226 333.548 250.235 333.548 250.244V250.292C333.548 250.297 333.547 250.302 333.544 250.307C333.542 250.311 333.538 250.316 333.534 250.319C333.53 250.322 333.525 250.324 333.52 250.325C333.515 250.326 333.509 250.326 333.504 250.324C333.487 250.319 333.471 250.301 333.457 250.27" stroke="#FEB2E6" stroke-width="0.213704"/>
<path d="M340.773 251.987L340.507 253.271C340.502 253.293 340.491 253.314 340.475 253.331C340.399 253.413 340.361 253.51 340.363 253.621C340.364 253.658 340.351 253.691 340.326 253.718C340.189 253.865 340.213 254.024 340.096 254.174C340.078 254.197 340.064 254.223 340.055 254.251C339.981 254.478 339.872 254.687 339.729 254.876C339.709 254.903 339.696 254.934 339.691 254.968C339.645 255.284 339.593 255.549 339.535 255.764C339.529 255.784 339.515 255.8 339.492 255.811C339.469 255.822 339.45 255.839 339.438 255.863L339.223 256.257C339.209 256.285 339.186 256.302 339.155 256.308C339.107 256.318 339.078 256.345 339.07 256.391C339.064 256.425 339.047 256.452 339.019 256.471C338.943 256.525 338.894 256.599 338.871 256.694C338.868 256.706 338.86 256.712 338.847 256.712C338.839 256.712 338.83 256.712 338.821 256.712C338.801 256.713 338.783 256.72 338.767 256.735C338.541 256.94 338.23 257.14 338.068 257.401C337.911 257.653 337.744 257.834 337.567 258.048C337.555 258.064 337.538 258.074 337.519 258.079C337.505 258.083 337.494 258.092 337.485 258.105C337.382 258.256 337.262 258.394 337.126 258.517C337.012 258.621 336.947 258.765 336.817 258.87C336.808 258.876 336.787 258.899 336.752 258.939C336.71 258.987 336.644 258.993 336.555 258.956" stroke="#CAA7ED" stroke-width="0.213704"/>
<path d="M342.461 252.073C342.5 252.339 342.457 252.582 342.329 252.801C342.281 252.883 342.294 252.944 342.241 253.018C342.229 253.035 342.215 253.062 342.199 253.1C342.186 253.133 342.182 253.167 342.186 253.202C342.19 253.237 342.181 253.267 342.158 253.293C342.003 253.47 341.921 253.675 341.911 253.909C341.91 253.927 341.901 253.938 341.884 253.942L341.855 253.95C341.835 253.955 341.819 253.967 341.81 253.986C341.717 254.16 341.647 254.32 341.511 254.479C341.415 254.593 341.331 254.715 341.259 254.847C341.196 254.962 341.117 255.081 341.022 255.204C340.935 255.315 340.863 255.436 340.806 255.567C340.797 255.585 340.785 255.6 340.768 255.612L340.731 255.636C340.712 255.648 340.7 255.665 340.694 255.687C340.665 255.81 340.573 255.87 340.518 255.965C340.419 256.13 340.314 256.246 340.164 256.445C340.077 256.561 339.955 256.67 339.799 256.773C339.575 256.922 339.405 257.148 339.29 257.453C339.179 257.747 338.944 257.971 338.803 258.243C338.723 258.4 338.576 258.478 338.478 258.652C338.42 258.755 338.201 258.94 338.188 259.005C338.183 259.029 338.171 259.05 338.154 259.067C337.762 259.45 337.515 259.702 337.413 259.822C337.133 260.153 336.85 260.41 336.562 260.593" stroke="#7CB9F2" stroke-width="0.213704"/>
<path d="M346.739 253.271C346.709 253.379 346.733 253.487 346.811 253.595C346.896 253.712 346.95 253.801 346.973 253.861C347.061 254.082 347.161 254.297 347.274 254.507C347.431 254.801 347.64 255.42 347.901 256.366C347.958 256.575 347.984 256.802 347.978 257.044C347.973 257.227 348.043 257.417 348.024 257.59C347.984 257.945 347.995 258.298 347.905 258.638C347.835 258.899 347.763 259.16 347.69 259.42C347.657 259.537 347.571 259.638 347.544 259.775C347.538 259.804 347.525 259.828 347.504 259.847C347.477 259.873 347.462 259.896 347.457 259.918C347.414 260.133 347.32 260.321 347.173 260.481C347.151 260.505 347.136 260.532 347.128 260.564C347.094 260.702 347.021 260.809 346.908 260.885C346.879 260.905 346.856 260.931 346.841 260.962L346.712 261.225C346.698 261.253 346.679 261.277 346.654 261.296C346.588 261.347 346.571 261.439 346.538 261.486C346.265 261.866 345.971 262.242 345.656 262.615" stroke="#6CC4F4" stroke-width="0.213704"/>
<path d="M345.294 261.728C345.408 261.538 345.527 261.361 345.649 261.198C345.748 261.066 345.782 260.929 345.895 260.809C346.043 260.652 346.065 260.5 346.164 260.349C346.281 260.172 346.363 259.986 346.465 259.798C346.482 259.766 346.488 259.732 346.483 259.697C346.479 259.659 346.49 259.629 346.518 259.608C346.542 259.59 346.558 259.567 346.568 259.539L346.716 259.078C346.725 259.051 346.727 259.023 346.723 258.994C346.719 258.964 346.726 258.938 346.742 258.917C346.76 258.892 346.77 258.864 346.77 258.834C346.772 258.646 346.868 258.512 346.868 258.337C346.869 258.008 346.869 257.679 346.868 257.35C346.868 257.157 346.759 256.73 346.542 256.069C346.496 255.927 346.419 255.786 346.353 255.65C346.285 255.511 346.269 255.304 346.108 255.16C346.083 255.137 346.073 255.11 346.077 255.077C346.081 255.044 346.07 255.018 346.045 255C346.023 254.986 346.007 254.966 345.997 254.941C345.947 254.82 345.891 254.704 345.83 254.59C345.767 254.474 345.712 254.367 345.666 254.269C345.494 253.903 345.271 253.571 344.996 253.271C344.977 253.25 344.978 253.229 344.998 253.209L345.022 253.185C345.028 253.179 345.032 253.172 345.035 253.165C345.038 253.157 345.04 253.149 345.04 253.141C345.04 253.132 345.038 253.124 345.034 253.117C345.031 253.109 345.026 253.102 345.02 253.097C344.93 253.011 344.823 252.959 344.7 252.942C344.684 252.939 344.671 252.931 344.663 252.917C344.655 252.902 344.644 252.89 344.63 252.882C344.616 252.874 344.596 252.874 344.57 252.883C344.359 252.961 344.217 253.05 344.143 253.149C344.02 253.316 343.886 253.474 343.741 253.623C343.375 253.999 343.015 254.379 342.701 254.802C342.622 254.906 342.527 254.995 342.417 255.068C342.391 255.086 342.372 255.108 342.358 255.136C342.276 255.31 342.087 255.336 341.983 255.43C341.867 255.535 341.759 255.646 341.659 255.763C341.654 255.77 341.605 255.815 341.511 255.898C341.461 255.943 341.428 256.001 341.413 256.072C341.406 256.104 341.392 256.134 341.372 256.161L341.215 256.368C341.209 256.376 341.201 256.38 341.192 256.381C341.183 256.381 341.175 256.381 341.167 256.382C341.156 256.382 341.146 256.385 341.136 256.391C341.127 256.396 341.119 256.403 341.113 256.412C341.025 256.542 340.915 256.647 340.783 256.727C340.75 256.747 340.729 256.776 340.721 256.814C340.711 256.861 340.691 256.901 340.662 256.934C340.641 256.957 340.634 256.985 340.641 257.015C340.658 257.087 340.652 257.117 340.61 257.183C340.543 257.286 340.494 257.395 340.46 257.511C340.451 257.542 340.433 257.567 340.406 257.586C340.315 257.645 340.334 257.756 340.296 257.827C340.236 257.937 340.146 258.017 340.102 258.131C340.023 258.337 339.938 258.488 339.849 258.584C339.73 258.711 339.647 258.825 339.599 258.926C339.54 259.05 339.416 259.253 339.324 259.346C339.182 259.487 339.059 259.644 338.955 259.818C338.937 259.849 338.913 259.872 338.882 259.89C338.796 259.94 338.752 260.013 338.75 260.109C338.75 260.144 338.738 260.174 338.714 260.199C338.18 260.774 337.611 261.313 337.009 261.816C336.987 261.835 336.97 261.86 336.963 261.889C336.949 261.944 336.913 261.971 336.856 261.972C336.83 261.972 336.806 261.981 336.786 261.999C336.766 262.017 336.751 262.036 336.74 262.058" stroke="#55D5F7" stroke-width="0.213704"/>
<path d="M348.639 253.124C348.667 253.221 348.691 253.312 348.711 253.395C348.732 253.484 348.771 253.569 348.826 253.647C348.978 253.862 349.092 254.081 349.169 254.304C349.301 254.687 349.436 255.145 349.575 255.677C349.59 255.734 349.594 255.81 349.586 255.904C349.577 256.024 349.607 256.099 349.676 256.13" stroke="#8CAEF0" stroke-width="0.213704"/>
<path d="M348.905 259.088C348.865 259.288 348.819 259.481 348.766 259.666C348.69 259.93 348.531 260.177 348.417 260.443C348.379 260.534 348.3 260.566 348.256 260.668C348.163 260.881 348.021 261.103 347.828 261.334C347.642 261.557 347.45 261.865 347.25 262.259" stroke="#8CAEF0" stroke-width="0.213704"/>
<path d="M346.814 262.432C346.537 262.828 346.265 263.214 345.997 263.59C345.95 263.657 345.946 263.744 345.911 263.796C345.728 264.072 345.547 264.349 345.368 264.628C345.322 264.7 345.217 264.759 345.213 264.884C345.213 264.916 345.206 264.946 345.193 264.975L344.889 265.687" stroke="#8CAEF0" stroke-width="0.213704"/>
<path d="M345.668 263.268C345.801 263.113 345.975 262.869 346.189 262.536C346.322 262.33 346.516 262.111 346.769 261.881C346.791 261.86 346.801 261.835 346.798 261.806C346.792 261.756 346.809 261.719 346.85 261.692C346.868 261.68 346.881 261.663 346.889 261.642C346.915 261.569 346.986 261.526 347.022 261.471C347.097 261.352 347.143 261.211 347.215 261.103C347.55 260.595 347.833 260.059 348.063 259.496C348.341 258.819 348.494 258.068 348.432 257.336C348.416 257.159 348.462 256.993 348.433 256.822C348.419 256.742 348.408 256.661 348.4 256.581C348.355 256.154 348.242 255.746 348.061 255.356C348.047 255.326 348.042 255.295 348.046 255.261C348.05 255.23 348.046 255.199 348.033 255.169L347.222 253.203" stroke="#7CB9F2" stroke-width="0.213704"/>
<path d="M349.054 259.441C349.053 259.76 349.059 260.039 349.014 260.371C348.987 260.566 349.05 260.826 348.938 261.003C348.862 261.122 348.815 261.205 348.797 261.254C348.677 261.565 348.378 261.816 348.179 262.079C348.021 262.289 347.863 262.502 347.707 262.719" stroke="#A69CED" stroke-width="0.213704"/>
<path d="M337.244 248.845C336.953 248.847 336.66 248.838 336.363 248.818C336.285 248.813 336.179 248.838 336.08 248.788C336.072 248.784 336.063 248.781 336.054 248.781L334.529 248.734C334.506 248.733 334.488 248.725 334.473 248.709C334.456 248.691 334.432 248.681 334.399 248.678C334.183 248.659 334.024 248.648 333.922 248.646C333.905 248.646 333.895 248.638 333.892 248.621C333.89 248.606 333.884 248.595 333.874 248.588C333.861 248.579 333.848 248.579 333.836 248.588C333.818 248.6 333.799 248.605 333.779 248.603C333.917 248.423 333.959 248.21 333.904 247.963C333.897 247.931 333.878 247.912 333.846 247.907C333.348 247.821 332.552 247.546 332.296 247.088C332.115 246.768 332.207 246.198 332.602 246.052C332.609 246.049 332.754 246.031 333.038 245.998C333.302 245.966 333.918 245.803 333.913 245.44C333.91 245.014 333.886 244.541 333.733 244.151C333.714 244.102 333.728 244.087 333.777 244.106C334.071 244.219 334.327 244.39 334.543 244.617C334.606 244.683 334.637 244.671 334.637 244.58L334.636 244.129C334.636 244.09 334.654 244.077 334.69 244.089C336.596 244.735 337.078 247.134 337.244 248.845Z" fill="#F8DFD8"/>
<path d="M337.242 248.846L337.311 249.493C336.763 249.512 336.224 249.509 335.696 249.486C335.17 249.464 334.637 249.438 334.112 249.391C334.019 249.384 333.907 249.416 333.797 249.357C333.767 249.34 333.736 249.34 333.706 249.357C333.683 249.369 333.657 249.373 333.629 249.37C333.592 249.367 333.574 249.347 333.574 249.309L333.577 249.193L333.778 248.604C333.798 248.606 333.816 248.601 333.834 248.589C333.847 248.58 333.86 248.58 333.873 248.589C333.882 248.596 333.888 248.607 333.891 248.621C333.894 248.639 333.904 248.647 333.921 248.647C334.023 248.649 334.182 248.66 334.398 248.679C334.431 248.682 334.455 248.692 334.472 248.71C334.487 248.726 334.505 248.734 334.528 248.735L336.053 248.782C336.062 248.782 336.071 248.785 336.079 248.788C336.178 248.839 336.283 248.813 336.362 248.819C336.658 248.839 336.952 248.848 337.242 248.846Z" fill="#FACCDE"/>
<path d="M333.579 249.192L333.576 249.309C333.575 249.346 333.594 249.367 333.631 249.37C333.659 249.373 333.685 249.369 333.708 249.357C333.738 249.34 333.769 249.34 333.799 249.357C333.909 249.416 334.021 249.383 334.114 249.391C334.639 249.438 335.172 249.464 335.698 249.486C336.226 249.509 336.765 249.511 337.312 249.493L337.396 250.301C337.361 250.284 337.329 250.279 337.301 250.287C337.282 250.292 337.271 250.285 337.27 250.265C337.268 250.23 337.251 250.212 337.221 250.211C336.985 250.21 336.853 250.209 336.824 250.209C336.669 250.21 336.501 250.21 336.321 250.21H333.585C333.575 250.21 333.566 250.214 333.559 250.221C333.552 250.228 333.548 250.237 333.548 250.246V250.294C333.548 250.299 333.547 250.304 333.544 250.309C333.542 250.313 333.538 250.318 333.534 250.321C333.53 250.324 333.525 250.326 333.52 250.327C333.515 250.328 333.509 250.328 333.504 250.326C333.487 250.321 333.471 250.303 333.457 250.272L333.579 249.192Z" fill="#FCBFE2"/>
<path d="M337.395 250.3L337.541 251.911C337.546 251.961 337.572 251.986 337.622 251.986L340.771 251.987L340.505 253.27C340.5 253.293 340.489 253.314 340.473 253.331C340.396 253.413 340.359 253.509 340.361 253.621C340.361 253.658 340.349 253.69 340.323 253.718C340.187 253.865 340.211 254.024 340.094 254.174C340.076 254.197 340.062 254.222 340.052 254.251C339.978 254.478 339.87 254.686 339.727 254.876C339.707 254.903 339.694 254.934 339.689 254.968C339.643 255.283 339.59 255.548 339.532 255.764C339.526 255.784 339.512 255.8 339.49 255.811C339.466 255.821 339.448 255.839 339.435 255.862L339.221 256.257C339.206 256.284 339.184 256.301 339.153 256.308C339.104 256.317 339.076 256.345 339.068 256.39C339.062 256.424 339.045 256.451 339.017 256.471C338.94 256.525 338.891 256.599 338.869 256.694C338.866 256.706 338.858 256.712 338.845 256.712C338.836 256.712 338.828 256.712 338.819 256.712C338.798 256.713 338.78 256.72 338.765 256.734C338.539 256.94 338.228 257.139 338.065 257.4C337.909 257.653 337.742 257.833 337.565 258.047C337.552 258.063 337.536 258.074 337.516 258.079C337.503 258.083 337.492 258.092 337.483 258.105C337.38 258.256 337.26 258.393 337.124 258.517C337.009 258.62 336.945 258.764 336.814 258.869C336.806 258.876 336.785 258.899 336.75 258.938C336.708 258.987 336.642 258.993 336.552 258.956C335.565 258.438 334.547 257.544 334.241 256.423C334.106 255.932 334.165 255.273 334.157 254.708C334.156 254.676 334.147 254.646 334.129 254.618C333.605 253.821 333.673 252.9 333.677 252.025C333.678 251.878 333.651 251.72 333.597 251.552C333.465 251.14 333.418 250.713 333.456 250.271C333.47 250.302 333.486 250.32 333.503 250.325C333.508 250.327 333.514 250.327 333.519 250.326C333.524 250.325 333.529 250.323 333.533 250.32C333.538 250.317 333.541 250.312 333.544 250.308C333.546 250.303 333.547 250.298 333.548 250.292V250.245C333.548 250.236 333.551 250.226 333.558 250.22C333.565 250.213 333.574 250.209 333.584 250.209H336.32C336.5 250.209 336.668 250.209 336.823 250.208C336.852 250.208 336.984 250.209 337.22 250.21C337.251 250.211 337.267 250.228 337.269 250.264C337.271 250.284 337.281 250.291 337.3 250.286C337.328 250.278 337.36 250.283 337.395 250.3Z" fill="#FFA5EA"/>
<path d="M340.773 251.987C341.336 251.961 341.899 251.989 342.463 252.073C342.502 252.34 342.458 252.582 342.331 252.801C342.283 252.884 342.295 252.944 342.243 253.018C342.231 253.035 342.216 253.062 342.2 253.101C342.188 253.133 342.183 253.167 342.188 253.202C342.192 253.237 342.183 253.267 342.16 253.293C342.005 253.47 341.923 253.675 341.912 253.909C341.912 253.927 341.903 253.938 341.886 253.942L341.857 253.95C341.836 253.955 341.821 253.967 341.812 253.986C341.719 254.16 341.648 254.32 341.513 254.479C341.416 254.593 341.332 254.716 341.261 254.847C341.198 254.962 341.119 255.081 341.023 255.204C340.937 255.315 340.865 255.436 340.807 255.567C340.799 255.585 340.787 255.6 340.77 255.612L340.733 255.636C340.714 255.648 340.702 255.665 340.696 255.687C340.666 255.81 340.575 255.87 340.519 255.965C340.421 256.13 340.316 256.246 340.166 256.445C340.079 256.561 339.957 256.67 339.8 256.773C339.576 256.922 339.407 257.149 339.292 257.453C339.18 257.747 338.946 257.972 338.805 258.243C338.724 258.4 338.577 258.478 338.479 258.652C338.422 258.755 338.203 258.94 338.19 259.005C338.184 259.029 338.173 259.05 338.156 259.067C337.764 259.45 337.517 259.702 337.415 259.822C337.135 260.153 336.852 260.41 336.564 260.593L336.555 258.956C336.644 258.993 336.71 258.987 336.752 258.938C336.787 258.899 336.808 258.876 336.817 258.869C336.947 258.765 337.012 258.621 337.126 258.517C337.262 258.393 337.382 258.256 337.485 258.105C337.494 258.092 337.505 258.083 337.519 258.079C337.538 258.074 337.555 258.063 337.567 258.047C337.744 257.833 337.911 257.653 338.068 257.4C338.23 257.139 338.541 256.94 338.767 256.734C338.783 256.72 338.801 256.713 338.821 256.712C338.83 256.712 338.839 256.712 338.847 256.712C338.86 256.712 338.868 256.706 338.871 256.694C338.894 256.599 338.943 256.525 339.019 256.471C339.047 256.451 339.064 256.424 339.07 256.39C339.078 256.345 339.107 256.317 339.155 256.308C339.186 256.301 339.209 256.285 339.223 256.257L339.438 255.862C339.45 255.839 339.469 255.821 339.492 255.811C339.515 255.8 339.529 255.784 339.535 255.764C339.593 255.549 339.645 255.283 339.691 254.968C339.696 254.934 339.709 254.903 339.729 254.876C339.872 254.686 339.981 254.478 340.055 254.251C340.064 254.222 340.078 254.197 340.096 254.174C340.213 254.024 340.189 253.865 340.326 253.718C340.351 253.69 340.364 253.658 340.363 253.621C340.361 253.509 340.399 253.413 340.475 253.331C340.491 253.314 340.502 253.293 340.507 253.27L340.773 251.987Z" fill="#94A8EF"/>
<path d="M342.461 252.074C343.259 252.134 344.028 252.289 344.77 252.539C345.465 252.774 345.971 253.222 346.739 253.272C346.708 253.38 346.732 253.488 346.811 253.596C346.895 253.713 346.949 253.802 346.973 253.862C347.06 254.083 347.161 254.298 347.273 254.508C347.431 254.802 347.64 255.421 347.9 256.366C347.958 256.576 347.983 256.803 347.977 257.045C347.972 257.228 348.042 257.418 348.023 257.59C347.984 257.946 347.994 258.299 347.904 258.639C347.834 258.9 347.763 259.161 347.689 259.421C347.656 259.538 347.571 259.639 347.543 259.776C347.537 259.804 347.524 259.828 347.504 259.848C347.477 259.874 347.461 259.897 347.457 259.918C347.414 260.134 347.319 260.322 347.172 260.482C347.151 260.506 347.136 260.533 347.127 260.564C347.093 260.703 347.02 260.81 346.907 260.886C346.878 260.906 346.856 260.932 346.84 260.963L346.712 261.226C346.698 261.254 346.678 261.278 346.653 261.297C346.588 261.348 346.571 261.44 346.537 261.487C346.264 261.867 345.971 262.243 345.656 262.616C345.573 262.264 345.453 261.968 345.295 261.728C345.409 261.538 345.528 261.361 345.65 261.198C345.749 261.066 345.782 260.929 345.896 260.809C346.043 260.652 346.066 260.5 346.164 260.349C346.282 260.172 346.364 259.986 346.466 259.798C346.483 259.766 346.489 259.732 346.484 259.697C346.48 259.659 346.491 259.629 346.519 259.608C346.542 259.59 346.559 259.567 346.569 259.539L346.716 259.078C346.725 259.051 346.728 259.023 346.724 258.994C346.72 258.964 346.727 258.938 346.743 258.917C346.761 258.892 346.771 258.864 346.771 258.834C346.773 258.646 346.869 258.512 346.869 258.337C346.87 258.008 346.87 257.679 346.869 257.35C346.868 257.157 346.76 256.73 346.543 256.069C346.497 255.927 346.42 255.786 346.354 255.65C346.285 255.511 346.27 255.304 346.109 255.16C346.084 255.137 346.074 255.11 346.078 255.077C346.082 255.044 346.071 255.018 346.045 255C346.024 254.986 346.008 254.966 345.997 254.941C345.947 254.82 345.892 254.704 345.83 254.59C345.768 254.475 345.713 254.367 345.667 254.269C345.495 253.903 345.272 253.571 344.997 253.271C344.978 253.25 344.979 253.229 344.999 253.209L345.023 253.185C345.029 253.179 345.033 253.172 345.036 253.165C345.039 253.157 345.041 253.149 345.041 253.141C345.04 253.132 345.039 253.124 345.035 253.117C345.032 253.109 345.027 253.102 345.021 253.097C344.931 253.011 344.824 252.959 344.7 252.942C344.684 252.939 344.672 252.931 344.664 252.917C344.656 252.902 344.645 252.89 344.631 252.883C344.617 252.874 344.596 252.874 344.571 252.883C344.36 252.961 344.218 253.05 344.144 253.149C344.021 253.316 343.887 253.474 343.741 253.623C343.376 253.999 343.016 254.379 342.702 254.802C342.623 254.907 342.528 254.995 342.418 255.068C342.392 255.086 342.372 255.108 342.359 255.136C342.276 255.31 342.088 255.336 341.984 255.43C341.868 255.535 341.76 255.646 341.66 255.763C341.655 255.77 341.606 255.815 341.512 255.898C341.462 255.943 341.429 256.001 341.413 256.072C341.406 256.104 341.393 256.134 341.373 256.161L341.216 256.368C341.21 256.376 341.202 256.38 341.193 256.381C341.184 256.381 341.176 256.381 341.168 256.382C341.157 256.382 341.146 256.385 341.137 256.391C341.128 256.396 341.12 256.404 341.114 256.412C341.026 256.542 340.915 256.647 340.784 256.727C340.75 256.747 340.73 256.776 340.722 256.814C340.712 256.861 340.692 256.901 340.663 256.934C340.642 256.957 340.635 256.985 340.642 257.015C340.659 257.087 340.653 257.117 340.611 257.183C340.544 257.286 340.494 257.395 340.461 257.511C340.452 257.542 340.434 257.567 340.406 257.586C340.316 257.645 340.335 257.756 340.297 257.827C340.236 257.937 340.147 258.017 340.103 258.131C340.024 258.337 339.939 258.488 339.85 258.584C339.731 258.711 339.648 258.825 339.6 258.926C339.54 259.05 339.417 259.253 339.324 259.346C339.182 259.487 339.059 259.644 338.956 259.819C338.938 259.849 338.914 259.872 338.883 259.89C338.797 259.94 338.753 260.013 338.751 260.109C338.751 260.144 338.739 260.174 338.715 260.199C338.18 260.774 337.612 261.313 337.01 261.816C336.987 261.835 336.971 261.861 336.964 261.889C336.95 261.944 336.914 261.971 336.857 261.972C336.83 261.972 336.807 261.981 336.787 261.999C336.767 262.017 336.752 262.036 336.741 262.058L336.562 260.594C336.85 260.411 337.133 260.154 337.413 259.823C337.515 259.703 337.762 259.451 338.154 259.068C338.171 259.051 338.183 259.03 338.188 259.006C338.201 258.941 338.42 258.756 338.478 258.653C338.576 258.479 338.723 258.401 338.803 258.244C338.944 257.972 339.179 257.748 339.29 257.454C339.405 257.149 339.575 256.923 339.799 256.774C339.955 256.671 340.077 256.562 340.164 256.446C340.314 256.247 340.419 256.131 340.518 255.966C340.573 255.871 340.665 255.811 340.694 255.688C340.7 255.666 340.712 255.649 340.731 255.637L340.768 255.613C340.785 255.601 340.797 255.586 340.806 255.568C340.863 255.437 340.935 255.316 341.022 255.205C341.117 255.082 341.196 254.963 341.259 254.848C341.331 254.716 341.415 254.594 341.511 254.48C341.647 254.321 341.717 254.161 341.81 253.987C341.819 253.968 341.835 253.956 341.855 253.951L341.884 253.943C341.901 253.939 341.91 253.928 341.911 253.91C341.921 253.676 342.003 253.471 342.158 253.294C342.181 253.268 342.19 253.238 342.186 253.203C342.182 253.168 342.186 253.134 342.199 253.101C342.215 253.063 342.229 253.035 342.241 253.019C342.294 252.945 342.281 252.884 342.329 252.802C342.457 252.583 342.5 252.34 342.461 252.074Z" fill="#64CAF5"/>
<path d="M345.295 261.727C345.057 261.424 344.698 261.099 344.563 260.799C344.407 260.451 344.448 260.123 344.46 259.753C344.461 259.717 344.444 259.705 344.41 259.717C342.934 260.227 341.27 260.351 339.752 259.952C339.719 259.943 339.702 259.956 339.701 259.991C339.694 260.826 339.629 261.601 339.507 262.316C339.468 262.545 339.382 262.778 339.25 263.013C339.235 263.04 339.227 263.071 339.227 263.102C339.226 263.633 339.22 264.163 339.21 264.692C339.205 264.938 339.021 265.906 338.661 265.916C338.314 265.927 337.954 265.93 337.582 265.928C337.574 265.928 337.566 265.926 337.559 265.922C337.552 265.918 337.546 265.913 337.541 265.906C337.537 265.899 337.534 265.892 337.533 265.884C337.532 265.876 337.533 265.867 337.535 265.86C337.673 265.498 337.893 265.198 338.195 264.959C338.22 264.939 338.234 264.913 338.235 264.881C338.252 264.247 338.329 263.202 338.053 262.629C338.05 262.624 338.046 262.619 338.04 262.616C338.035 262.613 338.029 262.612 338.023 262.613C338.016 262.614 338.011 262.616 338.006 262.621C338.002 262.625 337.998 262.63 337.997 262.636C337.759 263.664 337.424 264.752 336.841 265.648C336.833 265.66 336.822 265.671 336.808 265.679C336.795 265.686 336.78 265.69 336.764 265.69H335.891C335.859 265.69 335.843 265.674 335.844 265.642C335.849 265.343 335.957 265.015 336.283 264.94C336.314 264.933 336.337 264.915 336.351 264.887C336.805 263.941 336.851 263.254 336.741 262.057C336.752 262.035 336.768 262.016 336.787 261.998C336.807 261.98 336.831 261.971 336.858 261.971C336.914 261.97 336.95 261.943 336.964 261.888C336.972 261.859 336.988 261.834 337.01 261.815C337.612 261.312 338.181 260.773 338.715 260.198C338.739 260.173 338.751 260.143 338.752 260.108C338.754 260.012 338.797 259.939 338.883 259.889C338.914 259.871 338.938 259.848 338.956 259.817C339.06 259.643 339.183 259.486 339.325 259.345C339.417 259.252 339.541 259.049 339.6 258.925C339.648 258.824 339.731 258.71 339.85 258.583C339.939 258.487 340.024 258.336 340.103 258.13C340.147 258.016 340.237 257.936 340.297 257.826C340.336 257.755 340.316 257.644 340.407 257.585C340.434 257.566 340.452 257.541 340.461 257.51C340.495 257.394 340.545 257.285 340.611 257.182C340.653 257.116 340.659 257.086 340.642 257.014C340.635 256.984 340.642 256.956 340.663 256.933C340.692 256.9 340.712 256.86 340.722 256.813C340.73 256.775 340.751 256.746 340.784 256.726C340.916 256.646 341.026 256.541 341.114 256.411C341.12 256.402 341.128 256.395 341.137 256.39C341.147 256.384 341.157 256.381 341.168 256.381C341.176 256.38 341.185 256.38 341.193 256.38C341.202 256.379 341.21 256.375 341.216 256.367L341.373 256.16C341.393 256.133 341.407 256.103 341.414 256.071C341.429 256 341.462 255.942 341.513 255.897C341.606 255.814 341.655 255.769 341.66 255.762C341.76 255.645 341.868 255.534 341.984 255.429C342.089 255.335 342.277 255.309 342.359 255.135C342.373 255.107 342.392 255.085 342.418 255.067C342.529 254.994 342.623 254.905 342.702 254.801C343.016 254.378 343.376 253.998 343.742 253.622C343.887 253.473 344.021 253.315 344.144 253.148C344.218 253.049 344.361 252.96 344.571 252.882C344.597 252.873 344.617 252.873 344.632 252.881C344.645 252.889 344.656 252.901 344.664 252.916C344.673 252.93 344.685 252.938 344.701 252.941C344.824 252.958 344.931 253.01 345.021 253.096C345.027 253.101 345.032 253.108 345.036 253.116C345.039 253.123 345.041 253.131 345.041 253.14C345.041 253.148 345.04 253.156 345.037 253.164C345.034 253.171 345.029 253.178 345.023 253.184L344.999 253.208C344.979 253.228 344.978 253.249 344.997 253.27C345.272 253.57 345.495 253.902 345.667 254.268C345.714 254.366 345.768 254.473 345.831 254.589C345.892 254.703 345.948 254.819 345.998 254.94C346.008 254.965 346.024 254.985 346.046 254.999C346.071 255.017 346.082 255.043 346.078 255.076C346.074 255.109 346.084 255.136 346.109 255.159C346.27 255.303 346.286 255.51 346.354 255.649C346.42 255.785 346.497 255.926 346.543 256.068C346.76 256.729 346.869 257.156 346.869 257.349C346.87 257.678 346.87 258.007 346.869 258.336C346.869 258.511 346.773 258.645 346.771 258.833C346.771 258.863 346.762 258.891 346.744 258.916C346.727 258.937 346.721 258.963 346.724 258.993C346.728 259.022 346.726 259.05 346.717 259.077L346.569 259.538C346.559 259.566 346.543 259.589 346.519 259.607C346.491 259.628 346.48 259.658 346.484 259.696C346.49 259.731 346.483 259.765 346.466 259.797C346.364 259.985 346.282 260.171 346.165 260.348C346.066 260.499 346.044 260.651 345.896 260.808C345.783 260.928 345.749 261.065 345.65 261.197C345.528 261.36 345.41 261.537 345.295 261.727Z" fill="#45DFF8"/>
<path d="M348.639 253.124C348.667 253.221 348.691 253.311 348.711 253.394C348.733 253.484 348.771 253.568 348.826 253.647C348.978 253.862 349.092 254.081 349.169 254.304C349.302 254.687 349.437 255.144 349.575 255.676C349.591 255.734 349.594 255.81 349.587 255.904C349.577 256.024 349.607 256.099 349.677 256.129C349.514 256.483 349.245 256.709 348.872 256.809C348.839 256.817 348.82 256.838 348.816 256.872C348.717 257.626 348.747 258.365 348.906 259.088C348.866 259.288 348.82 259.481 348.767 259.666C348.691 259.93 348.532 260.178 348.418 260.444C348.38 260.534 348.301 260.567 348.257 260.668C348.164 260.881 348.022 261.104 347.829 261.335C347.643 261.557 347.451 261.865 347.251 262.259L346.94 261.824C346.915 261.789 346.9 261.793 346.894 261.836L346.814 262.431C346.537 262.827 346.265 263.213 345.997 263.59C345.95 263.656 345.945 263.743 345.911 263.795C345.728 264.071 345.547 264.348 345.368 264.627C345.321 264.699 345.217 264.758 345.213 264.884C345.212 264.915 345.206 264.945 345.193 264.974L344.889 265.686L344.53 265.682C344.498 265.682 344.482 265.666 344.482 265.632C344.492 265.357 344.591 265.017 344.901 264.952C344.934 264.945 344.959 264.928 344.977 264.9C345.319 264.392 345.548 263.848 345.666 263.267C345.799 263.112 345.973 262.868 346.187 262.536C346.321 262.329 346.514 262.11 346.767 261.88C346.79 261.859 346.799 261.834 346.796 261.805C346.79 261.756 346.808 261.718 346.848 261.692C346.866 261.679 346.88 261.662 346.887 261.641C346.913 261.568 346.984 261.526 347.02 261.47C347.096 261.351 347.142 261.211 347.214 261.102C347.548 260.594 347.831 260.058 348.061 259.495C348.339 258.818 348.492 258.068 348.43 257.335C348.415 257.159 348.46 256.992 348.431 256.822C348.417 256.741 348.407 256.661 348.398 256.581C348.353 256.154 348.241 255.745 348.059 255.356C348.045 255.326 348.04 255.294 348.044 255.261C348.048 255.229 348.044 255.199 348.032 255.168L347.22 253.202C347.515 253.093 347.794 253.027 348.057 253.004C348.273 252.984 348.468 253.024 348.639 253.124Z" fill="#84B4F1"/>
<path d="M348.639 253.124C349.7 253.699 349.98 255.06 349.676 256.13C349.607 256.099 349.577 256.024 349.586 255.904C349.594 255.81 349.59 255.734 349.575 255.677C349.436 255.145 349.301 254.687 349.169 254.304C349.092 254.081 348.978 253.862 348.826 253.647C348.771 253.569 348.732 253.484 348.711 253.395C348.691 253.312 348.667 253.221 348.639 253.124Z" fill="#94A8EF"/>
<path d="M347.221 253.203L348.032 255.169C348.044 255.199 348.049 255.23 348.045 255.261C348.041 255.295 348.046 255.326 348.06 255.356C348.241 255.746 348.354 256.154 348.399 256.581C348.407 256.661 348.418 256.742 348.432 256.822C348.46 256.993 348.415 257.159 348.431 257.336C348.493 258.068 348.339 258.819 348.062 259.496C347.832 260.059 347.549 260.595 347.214 261.103C347.142 261.211 347.096 261.352 347.02 261.471C346.985 261.526 346.914 261.569 346.888 261.642C346.88 261.663 346.867 261.68 346.849 261.692C346.808 261.719 346.791 261.756 346.797 261.806C346.8 261.835 346.79 261.86 346.768 261.881C346.514 262.111 346.321 262.33 346.188 262.536C345.974 262.869 345.8 263.113 345.667 263.268L345.656 262.616C345.971 262.243 346.265 261.866 346.538 261.487C346.571 261.44 346.588 261.348 346.654 261.297C346.679 261.278 346.698 261.254 346.712 261.226L346.841 260.963C346.856 260.931 346.879 260.906 346.908 260.886C347.021 260.81 347.094 260.703 347.128 260.564C347.136 260.533 347.151 260.506 347.173 260.482C347.32 260.322 347.414 260.134 347.457 259.918C347.462 259.897 347.477 259.874 347.504 259.848C347.525 259.828 347.538 259.804 347.544 259.776C347.571 259.639 347.657 259.538 347.69 259.421C347.763 259.161 347.835 258.9 347.905 258.639C347.995 258.299 347.984 257.946 348.024 257.59C348.043 257.418 347.973 257.227 347.978 257.045C347.984 256.802 347.958 256.576 347.901 256.366C347.64 255.421 347.431 254.802 347.274 254.508C347.161 254.298 347.061 254.082 346.973 253.862C346.95 253.802 346.896 253.713 346.811 253.596C346.733 253.488 346.709 253.38 346.739 253.272L347.221 253.203Z" fill="#74BEF3"/>
<path d="M348.905 259.089L349.053 259.442C349.052 259.761 349.058 260.039 349.013 260.371C348.986 260.566 349.049 260.826 348.937 261.004C348.861 261.122 348.814 261.206 348.796 261.255C348.676 261.566 348.377 261.817 348.178 262.08C348.02 262.29 347.862 262.503 347.706 262.72L347.25 262.26C347.45 261.866 347.642 261.558 347.828 261.335C348.021 261.104 348.163 260.882 348.256 260.669C348.3 260.567 348.379 260.535 348.417 260.444C348.531 260.178 348.69 259.931 348.766 259.667C348.819 259.482 348.865 259.289 348.905 259.089Z" fill="#94A8EF"/>
<path d="M349.054 259.442C349.056 259.913 349.06 260.383 349.064 260.854C349.065 261.013 349.097 261.181 349.158 261.358C349.415 262.09 349.494 262.791 349.09 263.487C349.074 263.514 349.068 263.543 349.071 263.574C349.157 264.33 349.177 265.173 348.847 265.878C348.84 265.894 348.828 265.907 348.813 265.917C348.799 265.926 348.782 265.931 348.765 265.931L347.669 265.93C347.66 265.93 347.651 265.928 347.643 265.923C347.635 265.919 347.629 265.912 347.624 265.904C347.62 265.896 347.617 265.887 347.617 265.878C347.617 265.869 347.62 265.859 347.624 265.851C347.725 265.672 347.863 265.528 348.038 265.418C348.064 265.402 348.079 265.378 348.083 265.348C348.177 264.7 348.283 263.712 348.087 263.086C348.077 263.055 348.06 263.029 348.036 263.008L347.707 262.72C347.863 262.503 348.02 262.29 348.179 262.08C348.378 261.817 348.676 261.566 348.796 261.255C348.815 261.206 348.862 261.123 348.937 261.004C349.05 260.827 348.986 260.567 349.013 260.372C349.058 260.04 349.053 259.761 349.054 259.442Z" fill="#B890EB"/>
<path d="M346.814 262.431C346.696 263.238 346.381 264.117 345.758 264.664C345.741 264.679 345.726 264.699 345.717 264.72C345.707 264.742 345.702 264.766 345.703 264.789L345.709 265.63C345.709 265.665 345.692 265.682 345.658 265.682L344.889 265.686L345.193 264.974C345.206 264.945 345.213 264.915 345.213 264.883C345.217 264.758 345.322 264.699 345.368 264.627C345.547 264.348 345.728 264.071 345.911 263.795C345.946 263.743 345.95 263.656 345.997 263.589C346.265 263.213 346.537 262.827 346.814 262.431Z" fill="#94A8EF"/>
<g clip-path="url(#clip2_1811_13566)">
<g filter="url(#filter3_f_1811_13566)">
<ellipse cx="323.218" cy="237.217" rx="9.49071" ry="12.6543" transform="rotate(45 323.218 237.217)" fill="url(#paint8_linear_1811_13566)"/>
</g>
</g>
</g>
<g filter="url(#filter4_f_1811_13566)">
<rect x="139" y="197" width="70" height="70" rx="6" fill="url(#paint9_linear_1811_13566)"/>
<g clip-path="url(#clip3_1811_13566)">
<path d="M163.271 233.649C163.271 235.084 162.845 236.227 161.994 237.078C161.037 238.093 159.779 238.6 158.219 238.6C156.727 238.6 155.464 238.083 154.431 237.05C153.397 236.016 152.881 234.744 152.881 233.232C152.881 231.721 153.397 230.448 154.431 229.415C155.464 228.382 156.727 227.865 158.219 227.865C158.975 227.865 159.688 227.999 160.358 228.267C161.027 228.535 161.577 228.913 162.008 229.401L161.061 230.348C160.745 229.965 160.336 229.666 159.834 229.451C159.332 229.236 158.793 229.128 158.219 229.128C157.1 229.128 156.153 229.516 155.378 230.291C154.613 231.075 154.23 232.056 154.23 233.232C154.23 234.409 154.613 235.39 155.378 236.174C156.153 236.949 157.1 237.337 158.219 237.337C159.243 237.337 160.095 237.05 160.774 236.476C161.453 235.902 161.845 235.112 161.951 234.108H158.219V232.874H163.199C163.247 233.142 163.271 233.4 163.271 233.649Z" fill="url(#paint10_radial_1811_13566)"/>
<path d="M167.416 231.137C168.47 231.137 169.308 231.477 169.931 232.159C170.555 232.84 170.866 233.794 170.866 235.022L170.852 235.167H165.271C165.29 235.862 165.522 236.423 165.967 236.848C166.411 237.273 166.943 237.486 167.561 237.486C168.412 237.486 169.078 237.061 169.562 236.21L170.75 236.79C170.431 237.389 169.989 237.858 169.424 238.196C168.859 238.534 168.218 238.704 167.503 238.704C166.459 238.704 165.599 238.346 164.923 237.631C164.246 236.916 163.908 236.012 163.908 234.92C163.908 233.838 164.237 232.937 164.894 232.217C165.551 231.497 166.392 231.137 167.416 231.137ZM167.387 232.354C166.885 232.354 166.452 232.509 166.09 232.818C165.727 233.127 165.488 233.543 165.372 234.065H169.446C169.407 233.572 169.206 233.164 168.844 232.84C168.482 232.516 167.996 232.354 167.387 232.354Z" fill="url(#paint11_radial_1811_13566)"/>
<path d="M173.05 238.449H171.721V231.368H172.992V232.351H173.05C173.253 232.004 173.563 231.715 173.982 231.484C174.402 231.252 174.818 231.137 175.233 231.137C175.753 231.137 176.21 231.257 176.605 231.498C177 231.739 177.289 232.071 177.473 232.495C178.06 231.59 178.874 231.137 179.915 231.137C180.734 231.137 181.365 231.387 181.808 231.888C182.251 232.389 182.473 233.102 182.473 234.027V238.449H181.143V234.229C181.143 233.565 181.023 233.085 180.782 232.791C180.541 232.498 180.137 232.351 179.568 232.351C179.057 232.351 178.629 232.567 178.282 233.001C177.935 233.435 177.762 233.945 177.762 234.533V238.449H176.432V234.229C176.432 233.565 176.312 233.085 176.071 232.791C175.83 232.498 175.425 232.351 174.857 232.351C174.346 232.351 173.917 232.567 173.571 233.001C173.224 233.435 173.05 233.945 173.05 234.533V238.449Z" fill="url(#paint12_radial_1811_13566)"/>
<path d="M185.325 228.91C185.325 229.17 185.233 229.392 185.05 229.576C184.867 229.759 184.645 229.851 184.384 229.851C184.124 229.851 183.902 229.759 183.718 229.576C183.535 229.392 183.443 229.17 183.443 228.91C183.443 228.649 183.535 228.427 183.718 228.244C183.902 228.06 184.124 227.969 184.384 227.969C184.645 227.969 184.867 228.06 185.05 228.244C185.233 228.427 185.325 228.649 185.325 228.91ZM185.05 231.356V238.449H183.718V231.356H185.05Z" fill="url(#paint13_linear_1811_13566)"/>
<path d="M195.12 228.91C195.12 229.17 195.028 229.392 194.845 229.576C194.662 229.759 194.44 229.851 194.179 229.851C193.919 229.851 193.697 229.759 193.513 229.576C193.33 229.392 193.238 229.17 193.238 228.91C193.238 228.649 193.33 228.427 193.513 228.244C193.697 228.06 193.919 227.969 194.179 227.969C194.44 227.969 194.662 228.06 194.845 228.244C195.028 228.427 195.12 228.649 195.12 228.91ZM194.845 231.356V238.449H193.513V231.356H194.845Z" fill="url(#paint14_radial_1811_13566)"/>
<path d="M186.209 231.368H187.481V232.351H187.539C187.741 232.004 188.052 231.715 188.471 231.484C188.89 231.252 189.326 231.137 189.779 231.137C190.646 231.137 191.313 231.385 191.78 231.881C192.247 232.377 192.481 233.083 192.481 233.998V238.449H191.152V234.085C191.123 232.929 190.54 232.351 189.403 232.351C188.873 232.351 188.43 232.565 188.073 232.994C187.717 233.423 187.539 233.936 187.539 234.533V238.449H186.209V231.368Z" fill="url(#paint15_linear_1811_13566)"/>
<path d="M181.62 229.203C181.386 227.653 180.169 226.436 178.619 226.202C180.169 225.967 181.386 224.75 181.62 223.2C181.855 224.75 183.072 225.967 184.622 226.202C183.072 226.436 181.855 227.653 181.62 229.203Z" fill="#076EFF"/>
</g>
<g clip-path="url(#clip4_1811_13566)">
<g filter="url(#filter5_f_1811_13566)">
<ellipse cx="150.299" cy="208.299" rx="13.0497" ry="17.3996" transform="rotate(45 150.299 208.299)" fill="url(#paint16_linear_1811_13566)"/>
</g>
</g>
</g>
<g filter="url(#filter6_f_1811_13566)">
<rect x="16" y="158" width="52" height="52" rx="6" fill="url(#paint17_linear_1811_13566)"/>
<path d="M48.4002 176.319H45.3281V179.391H48.4002V176.319Z" fill="black"/>
<path d="M49.9373 176.319H46.8652V179.391H49.9373V176.319Z" fill="#F7D046"/>
<path d="M36.1131 176.319H33.041V179.391H36.1131V176.319Z" fill="black"/>
<path d="M36.1131 179.392H33.041V182.464H36.1131V179.392Z" fill="black"/>
<path d="M36.1131 182.464H33.041V185.536H36.1131V182.464Z" fill="black"/>
<path d="M36.1131 185.536H33.041V188.608H36.1131V185.536Z" fill="black"/>
<path d="M36.1131 188.607H33.041V191.679H36.1131V188.607Z" fill="black"/>
<path d="M37.6482 176.319H34.5762V179.391H37.6482V176.319Z" fill="#F7D046"/>
<path d="M49.9373 179.392H46.8652V182.464H49.9373V179.392Z" fill="#F2A73B"/>
<path d="M37.6482 179.392H34.5762V182.464H37.6482V179.392Z" fill="#F2A73B"/>
<path d="M45.3279 179.392H42.2559V182.464H45.3279V179.392Z" fill="black"/>
<path d="M46.865 179.392H43.793V182.464H46.865V179.392Z" fill="#F2A73B"/>
<path d="M40.7205 179.392H37.6484V182.464H40.7205V179.392Z" fill="#F2A73B"/>
<path d="M43.7928 182.464H40.7207V185.536H43.7928V182.464Z" fill="#EE792F"/>
<path d="M46.865 182.464H43.793V185.536H46.865V182.464Z" fill="#EE792F"/>
<path d="M40.7205 182.464H37.6484V185.536H40.7205V182.464Z" fill="#EE792F"/>
<path d="M42.2576 185.536H39.1855V188.608H42.2576V185.536Z" fill="black"/>
<path d="M43.7928 185.536H40.7207V188.608H43.7928V185.536Z" fill="#EB5829"/>
<path d="M49.9373 182.464H46.8652V185.536H49.9373V182.464Z" fill="#EE792F"/>
<path d="M37.6482 182.464H34.5762V185.536H37.6482V182.464Z" fill="#EE792F"/>
<path d="M48.4002 185.536H45.3281V188.608H48.4002V185.536Z" fill="black"/>
<path d="M49.9373 185.536H46.8652V188.608H49.9373V185.536Z" fill="#EB5829"/>
<path d="M48.4002 188.607H45.3281V191.679H48.4002V188.607Z" fill="black"/>
<path d="M37.6482 185.536H34.5762V188.608H37.6482V185.536Z" fill="#EB5829"/>
<path d="M49.9373 188.607H46.8652V191.679H49.9373V188.607Z" fill="#EA3326"/>
<path d="M37.6482 188.607H34.5762V191.679H37.6482V188.607Z" fill="#EA3326"/>
<g clip-path="url(#clip5_1811_13566)">
<g filter="url(#filter7_f_1811_13566)">
<ellipse cx="24.2181" cy="166.217" rx="9.49071" ry="12.6543" transform="rotate(45 24.2181 166.217)" fill="url(#paint18_linear_1811_13566)"/>
</g>
</g>
</g>
<rect x="15" y="320" width="84" height="84" rx="6" fill="url(#paint19_linear_1811_13566)"/>
<path d="M63.1579 353.015H64.5535L68.5312 349.037L68.7266 347.348C66.448 345.337 63.6942 343.94 60.7254 343.289C57.7566 342.638 54.6709 342.754 51.7597 343.628C48.8485 344.501 46.2079 346.101 44.0874 348.279C41.9669 350.456 40.4364 353.138 39.6406 356.071C40.0838 355.89 40.5746 355.86 41.0363 355.987L48.9917 354.676C48.9917 354.676 49.3964 354.006 49.6058 354.047C51.3104 352.175 53.6661 351.026 56.1906 350.834C58.7152 350.642 61.2177 351.422 63.1858 353.015H63.1579Z" fill="#EA4335"/>
<path d="M74.1972 356.071C73.2829 352.704 71.4057 349.678 68.7959 347.362L63.2132 352.945C64.3767 353.896 65.3091 355.098 65.9401 356.462C66.5712 357.825 66.8843 359.314 66.8559 360.816V361.807C67.5084 361.807 68.1545 361.936 68.7573 362.185C69.3602 362.435 69.9079 362.801 70.3693 363.263C70.8307 363.724 71.1966 364.272 71.4463 364.874C71.696 365.477 71.8245 366.123 71.8245 366.776C71.8245 367.428 71.696 368.074 71.4463 368.677C71.1966 369.28 70.8307 369.828 70.3693 370.289C69.9079 370.75 69.3602 371.116 68.7573 371.366C68.1545 371.616 67.5084 371.744 66.8559 371.744H56.9187L55.9277 372.749V378.709L56.9187 379.7H66.8559C69.6309 379.721 72.3391 378.849 74.5799 377.212C76.8208 375.575 78.4752 373.261 79.2986 370.611C80.1219 367.961 80.0704 365.116 79.1517 362.498C78.233 359.879 76.4958 357.626 74.1972 356.071Z" fill="#4285F4"/>
<path d="M46.9679 379.644H56.9051V371.689H46.9679C46.2599 371.689 45.5602 371.536 44.9162 371.242L43.5205 371.675L39.5149 375.652L39.166 377.048C41.4123 378.744 44.1532 379.656 46.9679 379.644Z" fill="#34A853"/>
<path d="M46.966 353.838C44.2734 353.854 41.6532 354.711 39.4711 356.288C37.2891 357.866 35.6543 360.085 34.795 362.637C33.9357 365.189 33.8948 367.945 34.6781 370.521C35.4614 373.097 37.0298 375.364 39.1641 377.006L44.9283 371.242C44.1958 370.911 43.5545 370.407 43.0594 369.774C42.5644 369.141 42.2304 368.397 42.0861 367.606C41.9418 366.815 41.9914 366.001 42.2309 365.234C42.4703 364.467 42.8923 363.769 43.4606 363.201C44.029 362.632 44.7268 362.21 45.4941 361.971C46.2614 361.731 47.0753 361.682 47.8661 361.826C48.6568 361.97 49.4007 362.304 50.034 362.799C50.6673 363.294 51.171 363.936 51.5019 364.668L57.2661 358.904C56.0562 357.323 54.4969 356.042 52.7101 355.163C50.9232 354.285 48.9573 353.831 46.966 353.838Z" fill="#FBBC05"/>
<g clip-path="url(#clip6_1811_13566)">
<g filter="url(#filter8_f_1811_13566)">
<ellipse cx="28.3532" cy="333.353" rx="15.4224" ry="20.5632" transform="rotate(45 28.3532 333.353)" fill="url(#paint20_linear_1811_13566)"/>
</g>
</g>
<g filter="url(#filter9_f_1811_13566)">
<rect x="91" y="32" width="70" height="70" rx="6" fill="url(#paint21_linear_1811_13566)"/>
<path fill-rule="evenodd" clip-rule="evenodd" d="M121.665 69.3648C122.322 69.3648 123.636 69.332 125.476 68.5763C127.611 67.6893 131.816 66.1124 134.872 64.4698C137.007 63.3199 137.927 61.8087 137.927 59.7718C137.927 56.9794 135.66 54.6797 132.835 54.6797H121.008C116.967 54.6797 113.682 57.965 113.682 62.0058C113.682 66.0467 116.77 69.3648 121.665 69.3648Z" fill="#39594D"/>
<path fill-rule="evenodd" clip-rule="evenodd" d="M123.666 74.3912C123.666 72.4201 124.849 70.6132 126.688 69.8576L130.401 68.3135C134.179 66.7694 138.318 69.529 138.318 73.6028C138.318 76.7566 135.756 79.3191 132.602 79.3191H128.561C125.867 79.3191 123.666 77.118 123.666 74.3912Z" fill="#D18EE2"/>
<path d="M117.92 70.3184C115.587 70.3184 113.682 72.2238 113.682 74.5563V75.1148C113.682 77.4145 115.587 79.32 117.92 79.32C120.252 79.32 122.158 77.4145 122.158 75.082V74.5235C122.125 72.2238 120.252 70.3184 117.92 70.3184Z" fill="#FF7759"/>
<g clip-path="url(#clip7_1811_13566)">
<g filter="url(#filter10_f_1811_13566)">
<ellipse cx="102.299" cy="43.2985" rx="13.0497" ry="17.3996" transform="rotate(45 102.299 43.2985)" fill="url(#paint22_linear_1811_13566)"/>
</g>
</g>
</g>
<defs>
<filter id="filter0_f_1811_13566" x="215.62" y="31.6207" width="113.466" height="113.465" filterUnits="userSpaceOnUse" color-interpolation-filters="sRGB">
<feFlood flood-opacity="0" result="BackgroundImageFix"/>
<feBlend mode="normal" in="SourceGraphic" in2="BackgroundImageFix" result="shape"/>
<feGaussianBlur stdDeviation="19.278" result="effect1_foregroundBlur_1811_13566"/>
</filter>
<filter id="filter1_f_1811_13566" x="182.304" y="296.305" width="69.8247" height="69.8247" filterUnits="userSpaceOnUse" color-interpolation-filters="sRGB">
<feFlood flood-opacity="0" result="BackgroundImageFix"/>
<feBlend mode="normal" in="SourceGraphic" in2="BackgroundImageFix" result="shape"/>
<feGaussianBlur stdDeviation="11.8634" result="effect1_foregroundBlur_1811_13566"/>
</filter>
<filter id="filter2_f_1811_13566" x="312.6" y="226.6" width="56.8" height="56.8" filterUnits="userSpaceOnUse" color-interpolation-filters="sRGB">
<feFlood flood-opacity="0" result="BackgroundImageFix"/>
<feBlend mode="normal" in="SourceGraphic" in2="BackgroundImageFix" result="shape"/>
<feGaussianBlur stdDeviation="1.2" result="effect1_foregroundBlur_1811_13566"/>
</filter>
<filter id="filter3_f_1811_13566" x="288.306" y="202.305" width="69.8247" height="69.8247" filterUnits="userSpaceOnUse" color-interpolation-filters="sRGB">
<feFlood flood-opacity="0" result="BackgroundImageFix"/>
<feBlend mode="normal" in="SourceGraphic" in2="BackgroundImageFix" result="shape"/>
<feGaussianBlur stdDeviation="11.8634" result="effect1_foregroundBlur_1811_13566"/>
</filter>
<filter id="filter4_f_1811_13566" x="136.969" y="194.969" width="74.0615" height="74.0615" filterUnits="userSpaceOnUse" color-interpolation-filters="sRGB">
<feFlood flood-opacity="0" result="BackgroundImageFix"/>
<feBlend mode="normal" in="SourceGraphic" in2="BackgroundImageFix" result="shape"/>
<feGaussianBlur stdDeviation="1.01538" result="effect1_foregroundBlur_1811_13566"/>
</filter>
<filter id="filter5_f_1811_13566" x="102.296" y="160.294" width="96.0084" height="96.0094" filterUnits="userSpaceOnUse" color-interpolation-filters="sRGB">
<feFlood flood-opacity="0" result="BackgroundImageFix"/>
<feBlend mode="normal" in="SourceGraphic" in2="BackgroundImageFix" result="shape"/>
<feGaussianBlur stdDeviation="16.3122" result="effect1_foregroundBlur_1811_13566"/>
</filter>
<filter id="filter6_f_1811_13566" x="14.5231" y="156.523" width="54.9538" height="54.9538" filterUnits="userSpaceOnUse" color-interpolation-filters="sRGB">
<feFlood flood-opacity="0" result="BackgroundImageFix"/>
<feBlend mode="normal" in="SourceGraphic" in2="BackgroundImageFix" result="shape"/>
<feGaussianBlur stdDeviation="0.738462" result="effect1_foregroundBlur_1811_13566"/>
</filter>
<filter id="filter7_f_1811_13566" x="-10.6936" y="131.305" width="69.8247" height="69.8247" filterUnits="userSpaceOnUse" color-interpolation-filters="sRGB">
<feFlood flood-opacity="0" result="BackgroundImageFix"/>
<feBlend mode="normal" in="SourceGraphic" in2="BackgroundImageFix" result="shape"/>
<feGaussianBlur stdDeviation="11.8634" result="effect1_foregroundBlur_1811_13566"/>
</filter>
<filter id="filter8_f_1811_13566" x="-28.3802" y="276.621" width="113.466" height="113.465" filterUnits="userSpaceOnUse" color-interpolation-filters="sRGB">
<feFlood flood-opacity="0" result="BackgroundImageFix"/>
<feBlend mode="normal" in="SourceGraphic" in2="BackgroundImageFix" result="shape"/>
<feGaussianBlur stdDeviation="19.278" result="effect1_foregroundBlur_1811_13566"/>
</filter>
<filter id="filter9_f_1811_13566" x="88.6" y="29.6" width="74.8" height="74.8" filterUnits="userSpaceOnUse" color-interpolation-filters="sRGB">
<feFlood flood-opacity="0" result="BackgroundImageFix"/>
<feBlend mode="normal" in="SourceGraphic" in2="BackgroundImageFix" result="shape"/>
<feGaussianBlur stdDeviation="1.2" result="effect1_foregroundBlur_1811_13566"/>
</filter>
<filter id="filter10_f_1811_13566" x="54.2956" y="-4.70636" width="96.0084" height="96.0094" filterUnits="userSpaceOnUse" color-interpolation-filters="sRGB">
<feFlood flood-opacity="0" result="BackgroundImageFix"/>
<feBlend mode="normal" in="SourceGraphic" in2="BackgroundImageFix" result="shape"/>
<feGaussianBlur stdDeviation="16.3122" result="effect1_foregroundBlur_1811_13566"/>
</filter>
<linearGradient id="paint0_linear_1811_13566" x1="270.025" y1="87.075" x2="331.45" y2="150.075" gradientUnits="userSpaceOnUse">
<stop stop-color="#28324D"/>
<stop offset="1" stop-color="#090E1A"/>
</linearGradient>
<linearGradient id="paint1_linear_1811_13566" x1="298.554" y1="101.063" x2="285.77" y2="138.831" gradientUnits="userSpaceOnUse">
<stop stop-color="#114A8B"/>
<stop offset="1" stop-color="#0669BC"/>
</linearGradient>
<linearGradient id="paint2_linear_1811_13566" x1="302.545" y1="118.664" x2="299.588" y2="119.664" gradientUnits="userSpaceOnUse">
<stop stop-opacity="0.3"/>
<stop offset="0.071" stop-opacity="0.2"/>
<stop offset="0.321" stop-opacity="0.1"/>
<stop offset="0.623" stop-opacity="0.05"/>
<stop offset="1" stop-opacity="0"/>
</linearGradient>
<linearGradient id="paint3_linear_1811_13566" x1="300.92" y1="99.9623" x2="314.953" y2="137.349" gradientUnits="userSpaceOnUse">
<stop stop-color="#3CCBF4"/>
<stop offset="1" stop-color="#2892DF"/>
</linearGradient>
<linearGradient id="paint4_linear_1811_13566" x1="270.901" y1="84.7178" x2="272.353" y2="108.916" gradientUnits="userSpaceOnUse">
<stop stop-color="#096FFE"/>
<stop offset="1" stop-color="#8BB8FE"/>
</linearGradient>
<linearGradient id="paint5_linear_1811_13566" x1="215.825" y1="330.475" x2="253.85" y2="369.475" gradientUnits="userSpaceOnUse">
<stop stop-color="#28324D"/>
<stop offset="1" stop-color="#090E1A"/>
</linearGradient>
<linearGradient id="paint6_linear_1811_13566" x1="216.322" y1="328.98" x2="217.216" y2="343.872" gradientUnits="userSpaceOnUse">
<stop stop-color="#096FFE"/>
<stop offset="1" stop-color="#8BB8FE"/>
</linearGradient>
<linearGradient id="paint7_linear_1811_13566" x1="321.825" y1="236.475" x2="359.85" y2="275.475" gradientUnits="userSpaceOnUse">
<stop stop-color="#28324D"/>
<stop offset="1" stop-color="#090E1A"/>
</linearGradient>
<linearGradient id="paint8_linear_1811_13566" x1="322.324" y1="234.98" x2="323.218" y2="249.872" gradientUnits="userSpaceOnUse">
<stop stop-color="#096FFE"/>
<stop offset="1" stop-color="#8BB8FE"/>
</linearGradient>
<linearGradient id="paint9_linear_1811_13566" x1="148.188" y1="207.062" x2="199.375" y2="259.562" gradientUnits="userSpaceOnUse">
<stop stop-color="#28324D"/>
<stop offset="1" stop-color="#090E1A"/>
</linearGradient>
<radialGradient id="paint10_radial_1811_13566" cx="0" cy="0" r="1" gradientUnits="userSpaceOnUse" gradientTransform="translate(-729.706 465.321) rotate(151.125) scale(1063.43 856.98)">
<stop stop-color="#5BAEFF"/>
<stop offset="1" stop-color="#9CBFFF"/>
</radialGradient>
<radialGradient id="paint11_radial_1811_13566" cx="0" cy="0" r="1" gradientUnits="userSpaceOnUse" gradientTransform="translate(-119.662 596.348) rotate(99.2039) scale(516.773 608.775)">
<stop stop-color="#409DFF"/>
<stop offset="1" stop-color="#64B0FF"/>
</radialGradient>
<radialGradient id="paint12_radial_1811_13566" cx="0" cy="0" r="1" gradientUnits="userSpaceOnUse" gradientTransform="translate(-40.0096 761.722) rotate(99.4856) scale(1172.86 559.617)">
<stop stop-color="#177CFF"/>
<stop offset="1" stop-color="#4DA4FF"/>
</radialGradient>
<linearGradient id="paint13_linear_1811_13566" x1="275.439" y1="320.288" x2="275.439" y2="1275.99" gradientUnits="userSpaceOnUse">
<stop stop-color="#076EFF"/>
<stop offset="1" stop-color="#3E93FF"/>
</linearGradient>
<radialGradient id="paint14_radial_1811_13566" cx="0" cy="0" r="1" gradientUnits="userSpaceOnUse" gradientTransform="translate(-81.348 182.554) rotate(21.4306) scale(438.568 2195.63)">
<stop stop-color="#1C7AFF"/>
<stop offset="1" stop-color="#8FB9FF"/>
</radialGradient>
<linearGradient id="paint15_linear_1811_13566" x1="269.107" y1="231.137" x2="768.228" y2="847.94" gradientUnits="userSpaceOnUse">
<stop stop-color="#076EFF"/>
<stop offset="1" stop-color="#69A3FF"/>
</linearGradient>
<linearGradient id="paint16_linear_1811_13566" x1="149.07" y1="205.223" x2="150.299" y2="225.698" gradientUnits="userSpaceOnUse">
<stop stop-color="#096FFE"/>
<stop offset="1" stop-color="#8BB8FE"/>
</linearGradient>
<linearGradient id="paint17_linear_1811_13566" x1="22.825" y1="165.475" x2="60.85" y2="204.475" gradientUnits="userSpaceOnUse">
<stop stop-color="#28324D"/>
<stop offset="1" stop-color="#090E1A"/>
</linearGradient>
<linearGradient id="paint18_linear_1811_13566" x1="23.3244" y1="163.981" x2="24.2181" y2="178.872" gradientUnits="userSpaceOnUse">
<stop stop-color="#096FFE"/>
<stop offset="1" stop-color="#8BB8FE"/>
</linearGradient>
<linearGradient id="paint19_linear_1811_13566" x1="26.025" y1="332.075" x2="87.45" y2="395.075" gradientUnits="userSpaceOnUse">
<stop stop-color="#28324D"/>
<stop offset="1" stop-color="#090E1A"/>
</linearGradient>
<linearGradient id="paint20_linear_1811_13566" x1="26.901" y1="329.718" x2="28.3532" y2="353.916" gradientUnits="userSpaceOnUse">
<stop stop-color="#096FFE"/>
<stop offset="1" stop-color="#8BB8FE"/>
</linearGradient>
<linearGradient id="paint21_linear_1811_13566" x1="100.188" y1="42.0625" x2="151.375" y2="94.5625" gradientUnits="userSpaceOnUse">
<stop stop-color="#28324D"/>
<stop offset="1" stop-color="#090E1A"/>
</linearGradient>
<linearGradient id="paint22_linear_1811_13566" x1="101.07" y1="40.2227" x2="102.299" y2="60.6982" gradientUnits="userSpaceOnUse">
<stop stop-color="#096FFE"/>
<stop offset="1" stop-color="#8BB8FE"/>
</linearGradient>
<clipPath id="clip0_1811_13566">
<rect x="259" y="75" width="66.56" height="66.56" rx="8.32" fill="white"/>
</clipPath>
<clipPath id="clip1_1811_13566">
<rect x="209" y="323" width="40.96" height="40.96" rx="5.12" fill="white"/>
</clipPath>
<clipPath id="clip2_1811_13566">
<rect x="315" y="229" width="40.96" height="40.96" rx="5.12" fill="white"/>
</clipPath>
<clipPath id="clip3_1811_13566">
<rect width="42.24" height="42.24" fill="white" transform="translate(152.881 210.88)"/>
</clipPath>
<clipPath id="clip4_1811_13566">
<rect x="139" y="197" width="56.32" height="56.32" rx="7.04" fill="white"/>
</clipPath>
<clipPath id="clip5_1811_13566">
<rect x="16" y="158" width="40.96" height="40.96" rx="5.12" fill="white"/>
</clipPath>
<clipPath id="clip6_1811_13566">
<rect x="15" y="320" width="66.56" height="66.56" rx="8.32" fill="white"/>
</clipPath>
<clipPath id="clip7_1811_13566">
<rect x="91" y="32" width="56.32" height="56.32" rx="7.04" fill="white"/>
</clipPath>
</defs>
</svg>
