<svg width="335" height="240" viewBox="0 0 335 240" fill="none" xmlns="http://www.w3.org/2000/svg">
<g clip-path="url(#clip0_1811_13674)">
<rect width="335" height="239.286" rx="4.78571" fill="#090E1A"/>
<rect width="47.8571" height="47.8571" stroke="#161E33" stroke-width="0.598214"/>
<rect x="47.8574" width="47.8571" height="47.8571" stroke="#161E33" stroke-width="0.598214"/>
<rect x="95.7148" width="47.8571" height="47.8571" stroke="#161E33" stroke-width="0.598214"/>
<rect x="143.572" width="47.8571" height="47.8571" stroke="#161E33" stroke-width="0.598214"/>
<rect x="191.428" width="47.8571" height="47.8571" stroke="#161E33" stroke-width="0.598214"/>
<rect x="239.285" width="47.8571" height="47.8571" stroke="#161E33" stroke-width="0.598214"/>
<rect x="287.143" width="47.8571" height="47.8571" stroke="#161E33" stroke-width="0.598214"/>
<rect y="47.8574" width="47.8571" height="47.8571" stroke="#161E33" stroke-width="0.598214"/>
<rect x="47.8574" y="47.8574" width="47.8571" height="47.8571" stroke="#161E33" stroke-width="0.598214"/>
<rect x="95.7148" y="47.8574" width="47.8571" height="47.8571" stroke="#161E33" stroke-width="0.598214"/>
<rect x="143.572" y="47.8574" width="47.8571" height="47.8571" stroke="#161E33" stroke-width="0.598214"/>
<rect x="191.428" y="47.8574" width="47.8571" height="47.8571" stroke="#161E33" stroke-width="0.598214"/>
<rect x="239.285" y="47.8574" width="47.8571" height="47.8571" stroke="#161E33" stroke-width="0.598214"/>
<rect x="287.143" y="47.8574" width="47.8571" height="47.8571" stroke="#161E33" stroke-width="0.598214"/>
<rect y="95.7139" width="47.8571" height="47.8571" stroke="#161E33" stroke-width="0.598214"/>
<rect x="47.8574" y="95.7139" width="47.8571" height="47.8571" stroke="#161E33" stroke-width="0.598214"/>
<rect x="95.7148" y="95.7139" width="47.8571" height="47.8571" stroke="#161E33" stroke-width="0.598214"/>
<rect x="143.572" y="95.7139" width="47.8571" height="47.8571" stroke="#161E33" stroke-width="0.598214"/>
<rect x="191.428" y="95.7139" width="47.8571" height="47.8571" stroke="#161E33" stroke-width="0.598214"/>
<rect x="239.285" y="95.7139" width="47.8571" height="47.8571" stroke="#161E33" stroke-width="0.598214"/>
<rect x="287.143" y="95.7139" width="47.8571" height="47.8571" stroke="#161E33" stroke-width="0.598214"/>
<rect y="143.571" width="47.8571" height="47.8571" stroke="#161E33" stroke-width="0.598214"/>
<rect x="47.8574" y="143.571" width="47.8571" height="47.8571" stroke="#161E33" stroke-width="0.598214"/>
<rect x="95.7148" y="143.571" width="47.8571" height="47.8571" stroke="#161E33" stroke-width="0.598214"/>
<rect x="143.572" y="143.571" width="47.8571" height="47.8571" stroke="#161E33" stroke-width="0.598214"/>
<rect x="191.428" y="143.571" width="47.8571" height="47.8571" stroke="#161E33" stroke-width="0.598214"/>
<rect x="239.285" y="143.571" width="47.8571" height="47.8571" stroke="#161E33" stroke-width="0.598214"/>
<rect x="287.143" y="143.571" width="47.8571" height="47.8571" stroke="#161E33" stroke-width="0.598214"/>
<rect y="191.429" width="47.8571" height="47.8571" stroke="#161E33" stroke-width="0.598214"/>
<rect x="47.8574" y="191.429" width="47.8571" height="47.8571" stroke="#161E33" stroke-width="0.598214"/>
<rect x="95.7148" y="191.429" width="47.8571" height="47.8571" stroke="#161E33" stroke-width="0.598214"/>
<rect x="143.572" y="191.429" width="47.8571" height="47.8571" stroke="#161E33" stroke-width="0.598214"/>
<rect x="191.428" y="191.429" width="47.8571" height="47.8571" stroke="#161E33" stroke-width="0.598214"/>
<rect x="239.285" y="191.429" width="47.8571" height="47.8571" stroke="#161E33" stroke-width="0.598214"/>
<rect x="287.143" y="191.429" width="47.8571" height="47.8571" stroke="#161E33" stroke-width="0.598214"/>
<g filter="url(#filter0_f_1811_13674)">
<path d="M390.634 -19.6044C415.731 -1.65581 434.965 -0.51953 464.459 8.54226C521.393 26.0346 558.931 13.6449 614.772 34.3621C728.712 76.6343 368.791 146.275 303.716 43.6378C262.807 -20.8834 254.072 -208.993 304.93 -151.985C325.241 -129.218 322.948 -107.563 339.435 -81.8913C356.45 -55.3972 365.022 -37.921 390.634 -19.6044Z" fill="url(#paint0_linear_1811_13674)"/>
</g>
<g filter="url(#filter1_f_1811_13674)">
<path d="M79.0364 284.396C104.134 302.344 123.368 303.48 152.862 312.542C209.796 330.035 247.333 317.645 303.174 338.362C417.114 380.634 57.1937 450.275 -7.88209 347.638C-48.7909 283.117 -57.5261 95.0066 -6.66737 152.015C13.6438 174.782 11.3499 196.437 27.8373 222.109C44.8528 248.603 53.4246 266.079 79.0364 284.396Z" fill="url(#paint1_linear_1811_13674)"/>
</g>
<path d="M135.539 54.1416H133.835V52.5527L137.434 49.241H131.614V47.0779H140.497V49.0304L137.089 52.1699C139.233 52.591 140.899 54.1607 140.899 56.6301C140.899 59.5016 138.659 61.3201 135.826 61.3201C133.088 61.3201 130.963 59.6356 130.963 56.611H133.375C133.375 58.219 134.371 59.1379 135.864 59.1379C137.395 59.1379 138.41 58.1424 138.41 56.5919C138.41 55.1753 137.491 54.1416 135.539 54.1416ZM150.563 61.0713H148.19V47.0779H150.563L155.081 58.219L159.599 47.0779H162.011V61.0713H159.637V56.7641C159.637 53.9501 159.637 53.127 159.771 52.1316L156.21 61.0713H153.952L150.41 52.1507C150.544 52.993 150.563 54.3139 150.563 56.0559V61.0713ZM164.154 50.983C164.154 48.5327 166.183 46.829 169.131 46.829C171.965 46.829 173.764 48.3987 173.841 50.9256H171.39C171.333 49.7196 170.471 49.0113 169.093 49.0113C167.581 49.0113 166.605 49.7387 166.605 50.9064C166.605 51.9019 167.141 52.457 168.308 52.725L170.51 53.2036C172.903 53.7204 174.07 54.9456 174.07 57.0321C174.07 59.6356 172.041 61.3201 168.959 61.3201C165.973 61.3201 164.02 59.7313 163.963 57.2236H166.413C166.432 58.4104 167.389 59.1187 168.959 59.1187C170.586 59.1187 171.62 58.4104 171.62 57.2427C171.62 56.3047 171.141 55.7496 169.993 55.5007L167.772 55.003C165.399 54.4861 164.154 53.127 164.154 50.983ZM180.164 51.6147H181.523V50.4661C181.523 47.901 182.882 46.829 184.93 46.829C185.294 46.829 185.734 46.8481 186.136 46.9247V48.9156H185.313C184.126 48.9156 183.839 49.5281 183.839 50.4661V51.6147H186.098V53.5673H183.839V61.0713H181.523V53.5673H180.164V51.6147ZM186.753 56.3239C186.753 53.3759 188.878 51.3467 191.807 51.3467C194.736 51.3467 196.861 53.3759 196.861 56.3239C196.861 59.2719 194.736 61.301 191.807 61.301C188.878 61.301 186.753 59.2719 186.753 56.3239ZM189.089 56.3239C189.089 58.0467 190.199 59.2144 191.807 59.2144C193.415 59.2144 194.525 58.0467 194.525 56.3239C194.525 54.601 193.415 53.4333 191.807 53.4333C190.199 53.4333 189.089 54.601 189.089 56.3239ZM204.646 51.5764V53.7396H203.785C202.1 53.7396 201.047 54.6393 201.047 56.477V61.0713H198.712V51.6339H200.913L201.047 53.0121C201.449 52.0741 202.349 51.4424 203.612 51.4424C203.938 51.4424 204.263 51.4807 204.646 51.5764Z" fill="#F0F3FA"/>
<path d="M125.006 100.683H109.691V89.6754H136.779V159.643H125.006V100.683ZM164.195 159.643H152.326V89.6754H164.195L186.783 145.381L209.372 89.6754H221.432V159.643H209.563V138.107C209.563 124.037 209.563 119.921 210.233 114.944L192.43 159.643H181.136L163.429 115.04C164.099 119.251 164.195 125.855 164.195 134.565V159.643Z" fill="url(#paint2_linear_1811_13674)"/>
<path d="M124.22 188.316C124.22 190.685 122.67 192.343 120.462 192.343C118.266 192.343 116.737 190.685 116.737 188.316C116.737 185.958 118.276 184.289 120.473 184.289C122.68 184.289 124.22 185.947 124.22 188.316ZM123.111 188.316C123.111 186.507 122.056 185.312 120.473 185.312C118.89 185.312 117.846 186.507 117.846 188.316C117.846 190.125 118.89 191.331 120.473 191.331C122.056 191.331 123.111 190.114 123.111 188.316ZM125.398 194.572V186.948H126.313L126.388 187.896C126.744 187.175 127.454 186.798 128.294 186.798C129.802 186.798 130.738 187.928 130.738 189.543C130.738 191.148 129.856 192.354 128.294 192.354C127.454 192.354 126.754 191.999 126.41 191.352V194.572H125.398ZM126.421 189.587C126.421 190.663 127.045 191.439 128.079 191.439C129.113 191.439 129.726 190.663 129.726 189.587C129.726 188.499 129.113 187.724 128.079 187.724C127.045 187.724 126.421 188.488 126.421 189.587ZM134.126 192.343C132.576 192.343 131.51 191.223 131.51 189.587C131.51 187.939 132.554 186.798 134.083 186.798C135.58 186.798 136.56 187.831 136.56 189.393V189.77L132.489 189.78C132.565 190.889 133.146 191.503 134.148 191.503C134.934 191.503 135.451 191.18 135.623 190.577H136.57C136.312 191.708 135.429 192.343 134.126 192.343ZM134.083 187.648C133.2 187.648 132.64 188.176 132.511 189.102H135.548C135.548 188.23 134.977 187.648 134.083 187.648ZM138.702 192.214H137.69V186.948H138.606L138.713 187.756C139.047 187.153 139.715 186.798 140.458 186.798C141.847 186.798 142.482 187.648 142.482 188.994V192.214H141.47V189.22C141.47 188.154 140.974 187.724 140.199 187.724C139.252 187.724 138.702 188.402 138.702 189.425V192.214ZM147.324 192.214H146.225L149.068 184.429H150.242L153.095 192.214H151.986L151.286 190.276H148.013L147.324 192.214ZM149.52 186.108L148.336 189.36H150.974L149.779 186.108C149.725 185.958 149.671 185.775 149.649 185.656C149.628 185.764 149.574 185.947 149.52 186.108ZM155.185 184.429V192.214H154.13V184.429H155.185ZM162.045 192.343C160.494 192.343 159.428 191.223 159.428 189.587C159.428 187.939 160.473 186.798 162.002 186.798C163.498 186.798 164.478 187.831 164.478 189.393V189.77L160.408 189.78C160.483 190.889 161.065 191.503 162.066 191.503C162.852 191.503 163.369 191.18 163.542 190.577H164.489C164.231 191.708 163.348 192.343 162.045 192.343ZM162.002 187.648C161.119 187.648 160.559 188.176 160.43 189.102H163.466C163.466 188.23 162.895 187.648 162.002 187.648ZM166.621 192.214H165.609V186.948H166.513L166.61 187.638C166.879 187.142 167.439 186.798 168.182 186.798C169.001 186.798 169.582 187.207 169.851 187.864C170.099 187.207 170.734 186.798 171.553 186.798C172.759 186.798 173.491 187.551 173.491 188.768V192.214H172.5V189.016C172.5 188.187 172.037 187.713 171.327 187.713C170.562 187.713 170.056 188.251 170.056 189.091V192.214H169.055V189.005C169.055 188.176 168.602 187.724 167.892 187.724C167.127 187.724 166.621 188.251 166.621 189.091V192.214ZM175.809 192.214H174.894V184.289H175.906V187.853C176.251 187.164 176.961 186.798 177.823 186.798C179.33 186.798 180.235 187.982 180.235 189.608C180.235 191.202 179.287 192.343 177.758 192.343C176.929 192.343 176.229 191.977 175.885 191.256L175.809 192.214ZM175.917 189.565C175.917 190.663 176.542 191.428 177.575 191.428C178.609 191.428 179.223 190.653 179.223 189.565C179.223 188.488 178.609 187.713 177.575 187.713C176.542 187.713 175.917 188.488 175.917 189.565ZM183.623 192.343C182.072 192.343 181.006 191.223 181.006 189.587C181.006 187.939 182.05 186.798 183.579 186.798C185.076 186.798 186.056 187.831 186.056 189.393V189.77L181.986 189.78C182.061 190.889 182.643 191.503 183.644 191.503C184.43 191.503 184.947 191.18 185.119 190.577H186.067C185.808 191.708 184.925 192.343 183.623 192.343ZM183.579 187.648C182.697 187.648 182.137 188.176 182.007 189.102H185.044C185.044 188.23 184.473 187.648 183.579 187.648ZM189.297 192.343C187.768 192.343 186.842 191.202 186.842 189.597C186.842 187.982 187.779 186.798 189.34 186.798C190.148 186.798 190.826 187.153 191.182 187.799V184.289H192.183V192.214H191.278L191.192 191.256C190.848 191.977 190.137 192.343 189.297 192.343ZM189.502 191.428C190.535 191.428 191.171 190.663 191.171 189.565C191.171 188.488 190.535 187.713 189.502 187.713C188.468 187.713 187.865 188.488 187.865 189.565C187.865 190.653 188.468 191.428 189.502 191.428ZM195.754 192.343C194.225 192.343 193.299 191.202 193.299 189.597C193.299 187.982 194.235 186.798 195.797 186.798C196.604 186.798 197.283 187.153 197.638 187.799V184.289H198.639V192.214H197.735L197.649 191.256C197.304 191.977 196.594 192.343 195.754 192.343ZM195.958 191.428C196.992 191.428 197.627 190.663 197.627 189.565C197.627 188.488 196.992 187.713 195.958 187.713C194.925 187.713 194.322 188.488 194.322 189.565C194.322 190.653 194.925 191.428 195.958 191.428ZM200.595 185.699C200.229 185.699 199.927 185.398 199.927 185.032C199.927 184.655 200.229 184.364 200.595 184.364C200.961 184.364 201.263 184.655 201.263 185.032C201.263 185.398 200.961 185.699 200.595 185.699ZM200.1 192.214V186.948H201.112V192.214H200.1ZM203.593 192.214H202.581V186.948H203.497L203.604 187.756C203.938 187.153 204.606 186.798 205.349 186.798C206.738 186.798 207.373 187.648 207.373 188.994V192.214H206.361V189.22C206.361 188.154 205.865 187.724 205.09 187.724C204.143 187.724 203.593 188.402 203.593 189.425V192.214ZM208.441 189.447C208.441 187.961 209.399 186.798 210.928 186.798C211.779 186.798 212.436 187.185 212.77 187.842L212.845 186.948H213.75V191.999C213.75 193.657 212.727 194.712 211.112 194.712C209.679 194.712 208.7 193.904 208.506 192.569H209.518C209.647 193.344 210.229 193.797 211.112 193.797C212.102 193.797 212.748 193.151 212.748 192.149V191.094C212.404 191.708 211.715 192.074 210.885 192.074C209.389 192.074 208.441 190.922 208.441 189.447ZM209.453 189.425C209.453 190.416 210.067 191.191 211.058 191.191C212.081 191.191 212.705 190.459 212.705 189.425C212.705 188.413 212.102 187.681 211.068 187.681C210.056 187.681 209.453 188.456 209.453 189.425ZM214.78 190.685H215.749C215.749 191.223 216.158 191.546 216.826 191.546C217.536 191.546 217.945 191.256 217.945 190.771C217.945 190.416 217.773 190.2 217.224 190.06L216.298 189.845C215.361 189.619 214.92 189.156 214.92 188.381C214.92 187.411 215.738 186.798 216.901 186.798C218.053 186.798 218.807 187.444 218.828 188.445H217.859C217.838 187.917 217.482 187.584 216.869 187.584C216.233 187.584 215.878 187.864 215.878 188.348C215.878 188.704 216.136 188.94 216.653 189.07L217.579 189.296C218.473 189.511 218.915 189.92 218.915 190.706C218.915 191.708 218.053 192.343 216.804 192.343C215.566 192.343 214.78 191.686 214.78 190.685Z" fill="#F0F3FA"/>
</g>
<rect x="0.299107" y="0.299107" width="334.402" height="238.688" rx="4.48661" stroke="#161E33" stroke-width="0.598214"/>
<defs>
<filter id="filter0_f_1811_13674" x="174.139" y="-258.316" width="558.475" height="451.001" filterUnits="userSpaceOnUse" color-interpolation-filters="sRGB">
<feFlood flood-opacity="0" result="BackgroundImageFix"/>
<feBlend mode="normal" in="SourceGraphic" in2="BackgroundImageFix" result="shape"/>
<feGaussianBlur stdDeviation="47.8571" result="effect1_foregroundBlur_1811_13674"/>
</filter>
<filter id="filter1_f_1811_13674" x="-137.458" y="45.6842" width="558.475" height="451.001" filterUnits="userSpaceOnUse" color-interpolation-filters="sRGB">
<feFlood flood-opacity="0" result="BackgroundImageFix"/>
<feBlend mode="normal" in="SourceGraphic" in2="BackgroundImageFix" result="shape"/>
<feGaussianBlur stdDeviation="47.8571" result="effect1_foregroundBlur_1811_13674"/>
</filter>
<linearGradient id="paint0_linear_1811_13674" x1="427.183" y1="35.9306" x2="388.79" y2="66.3294" gradientUnits="userSpaceOnUse">
<stop stop-color="#DC244C"/>
<stop offset="0.446034" stop-color="#F54C71"/>
<stop offset="1" stop-color="#4A16B1"/>
</linearGradient>
<linearGradient id="paint1_linear_1811_13674" x1="115.586" y1="339.931" x2="77.192" y2="370.329" gradientUnits="userSpaceOnUse">
<stop stop-color="#DC244C"/>
<stop offset="0.446034" stop-color="#F54C71"/>
<stop offset="1" stop-color="#4A16B1"/>
</linearGradient>
<linearGradient id="paint2_linear_1811_13674" x1="168.2" y1="87.8426" x2="168.2" y2="159.443" gradientUnits="userSpaceOnUse">
<stop stop-color="#F45C84"/>
<stop offset="0.472198" stop-color="#CC2150"/>
<stop offset="1" stop-color="#7335F0"/>
</linearGradient>
<clipPath id="clip0_1811_13674">
<rect width="335" height="239.286" rx="4.78571" fill="white"/>
</clipPath>
</defs>
</svg>
