<svg width="375" height="312" viewBox="0 0 375 312" fill="none" xmlns="http://www.w3.org/2000/svg">
<g clip-path="url(#clip0_1817_20968)">
<path d="M533.491 398.608C533.491 583.883 378.666 734.093 187.659 734.093C-3.34763 734.093 -158.173 583.883 -158.173 398.608C-158.173 213.334 -3.34763 63.1231 187.659 63.1231C378.666 63.1231 533.491 213.334 533.491 398.608Z" stroke="#161E33" stroke-width="0.627075"/>
<path d="M591.183 398.922C591.183 615.192 410.529 790.53 187.66 790.53C-35.2079 790.53 -215.862 615.192 -215.862 398.922C-215.862 182.651 -35.2079 7.31354 187.66 7.31354C410.529 7.31354 591.183 182.651 591.183 398.922Z" stroke="#161E33" stroke-width="0.627075"/>
<path d="M475.801 398.922C475.801 553.2 346.805 678.283 187.66 678.283C28.5145 678.283 -100.481 553.2 -100.481 398.922C-100.481 244.643 28.5145 119.56 187.66 119.56C346.805 119.56 475.801 244.643 475.801 398.922Z" stroke="#161E33" stroke-width="0.627075"/>
<g filter="url(#filter0_f_1817_20968)">
<path d="M-113.674 352.312C-9.11462 437.594 67.5799 321.399 92.9325 352.312C152.591 425.052 316.737 356.388 375.839 356.388C413.236 356.387 486.929 406.238 537.468 392.973C608.698 374.277 612.293 317.118 643.987 356.388C671.863 390.927 749.778 472.917 600.778 472.917H-181.326C-332.093 472.917 -338.335 287.021 -279.278 328.438C-255.692 344.978 -254.412 363.769 -234.096 383.327C-213.129 403.512 -137.305 333.037 -113.674 352.312Z" fill="url(#paint0_linear_1817_20968)"/>
</g>
<g filter="url(#filter1_f_1817_20968)">
<circle cx="187.661" cy="236.091" r="83.61" fill="#DC244C"/>
</g>
<g filter="url(#filter2_f_1817_20968)">
<circle cx="187.661" cy="470.2" r="83.61" fill="#008A53"/>
</g>
<g filter="url(#filter3_f_1817_20968)">
<circle cx="304.714" cy="355.932" r="83.61" fill="#2F6FF0"/>
</g>
<g filter="url(#filter4_f_1817_20968)">
<circle cx="70.6061" cy="355.932" r="83.61" fill="#DC244C"/>
</g>
<g filter="url(#filter5_f_1817_20968)">
<circle cx="104.049" cy="269.536" r="83.61" fill="#DC244C"/>
</g>
<g filter="url(#filter6_f_1817_20968)">
<circle cx="271.27" cy="269.536" r="83.61" fill="#8547FF"/>
</g>
<g filter="url(#filter7_f_1817_20968)">
<circle cx="271.27" cy="436.755" r="83.61" fill="#038585"/>
</g>
<g filter="url(#filter8_f_1817_20968)">
<circle cx="104.049" cy="436.755" r="83.61" fill="#FF8D39"/>
</g>
<g clip-path="url(#clip1_1817_20968)">
<path d="M-62.8991 414.228C-76.4493 87.1305 422.855 64.5954 438.486 392.79C440.111 717.04 -38.4514 731.085 -62.8991 414.228Z" fill="#020713"/>
<path d="M-62.8991 414.228C-76.4493 87.1305 422.855 64.5954 438.486 392.79C440.111 717.04 -38.4514 731.085 -62.8991 414.228Z" fill="black" fill-opacity="0.2"/>
<path opacity="0.03" d="M-44.366 303.682C-42.647 299.436 -40.5421 294.803 -38.2969 290.241C-37.7707 289.118 -37.2094 288.03 -36.6481 286.942C-36.4376 286.521 -36.1921 286.099 -35.9816 285.678C-35.3501 284.45 -34.7187 283.221 -34.0872 282.028C-30.7545 275.746 -27.2464 269.85 -23.6681 264.27C-22.5105 262.445 -21.3528 260.655 -20.1249 258.865C-19.9846 258.654 -19.8092 258.409 -19.6689 258.198C-18.7919 256.935 -17.9499 255.706 -17.0729 254.478C-16.266 253.32 -15.4591 252.267 -14.6172 251.144C3.30923 242.791 25.5857 235.28 62.8769 231.209C66.4903 230.823 70.2439 230.402 73.4012 230.437C79.8913 230.507 81.4699 232.402 79.9263 234.333C75.5763 239.737 54.0365 245.353 44.8102 250.968C34.9524 256.97 40.5653 262.023 34.812 267.849C30.6725 272.061 20.9199 276.448 11.3077 280.73C-8.37277 289.469 -27.1412 298.278 -45.7341 307.087C-45.2781 305.929 -44.822 304.77 -44.2958 303.612L-44.366 303.682ZM436.385 433.643C436.385 433.643 436.385 433.433 436.42 433.292C436.631 431.713 436.841 430.028 437.017 428.273C437.122 427.221 437.227 426.133 437.333 425.08C437.333 424.729 437.403 424.378 437.438 424.027C437.718 420.938 437.999 417.78 438.174 414.516C438.42 410.866 438.49 406.83 438.49 402.653C438.49 400.934 438.49 399.179 438.49 397.424V394.862C438.49 394.09 438.42 393.248 438.385 392.44C438.21 387.351 437.929 382.368 437.543 377.84C437.543 377.489 437.508 377.103 437.473 376.752C437.297 374.647 437.052 372.365 436.771 370.049C392.955 378.683 348.262 387.316 309.532 397.143C246.491 413.147 198.009 432.906 132.758 448.173C79.33 460.667 19.0957 469.09 -38.3671 479.198C-42.4716 479.935 -46.541 480.707 -50.6455 481.444C-45.7341 496.255 -38.4373 512.96 -27.6323 530.508C-26.8605 531.807 -26.1238 533.035 -25.3871 534.158C-24.475 535.667 -23.4576 537.247 -22.4052 538.826C-20.7564 541.353 -19.0374 543.88 -17.2834 546.372C8.71172 537.808 34.8471 529.28 62.1051 521.103C83.5748 514.645 106.763 508.117 133.144 503.8C159.315 499.518 185.836 497.799 212.322 494.78C296.131 485.164 372.012 463.229 431.965 441.821C433.123 441.399 434.28 440.978 435.403 440.557C435.719 438.381 436.034 436.24 436.315 434.064C436.315 433.924 436.315 433.784 436.35 433.643H436.385ZM223.583 650.116C194.712 649.835 172.33 646.641 162.648 640.219C159.069 637.867 156.824 635.059 148.545 634.007C138.301 632.673 121.182 634.603 104.939 638.007C106.413 638.534 107.886 638.99 109.815 639.622C109.956 639.657 110.131 639.727 110.271 639.762C110.833 639.938 111.394 640.113 112.061 640.324C112.376 640.429 112.727 640.534 113.043 640.64C113.113 640.64 113.148 640.64 113.218 640.675C116.656 641.763 120.866 643.026 124.164 643.798H124.269C124.269 643.798 124.444 643.868 124.549 643.904L127.847 644.746L128.724 644.921C130.689 645.378 132.548 645.799 134.337 646.185C134.653 646.255 134.969 646.325 135.284 646.395C135.6 646.466 135.916 646.536 136.267 646.606C136.512 646.641 136.793 646.711 137.038 646.746C141.564 647.729 144.23 648.22 148.44 648.817C148.685 648.852 151.913 649.379 156.894 650.01C156.964 650.01 157 650.01 157.07 650.01C158.227 650.151 159.49 650.291 160.823 650.431C160.823 650.431 160.893 650.431 160.929 650.431C161.981 650.537 163.104 650.642 164.226 650.747C165.068 650.818 165.875 650.888 166.682 650.958C168.857 651.133 170.962 651.309 172.996 651.414C173.382 651.414 173.803 651.449 174.189 651.484C174.224 651.484 174.294 651.484 174.33 651.484C190.256 652.853 206.78 652.432 223.478 650.045L223.583 650.116ZM384.15 556.971C385.062 555.848 386.009 554.689 386.991 553.426C387.272 553.04 387.552 552.654 387.868 552.268C388.535 551.39 389.166 550.548 389.798 549.671C393.446 544.757 396.884 539.739 400.147 534.65C374.678 546.231 331.423 558.024 288.168 566.166C215.409 579.888 137.214 588.136 65.4379 602.525C58.1761 603.964 50.8441 605.544 44.4243 607.298C51.8966 612.458 60.6317 617.897 70.8053 623.197C70.9105 623.267 71.0157 623.302 71.121 623.372C72.9803 624.355 74.9097 625.303 76.8392 626.25C89.9245 625.654 103.922 624.46 117.603 623.127C188.081 616.318 260.208 606.14 328.932 593.26C337.562 591.646 346.122 589.996 354.646 588.276C365.1 578.976 375.064 568.587 384.185 556.971H384.15ZM23.3405 571.536C17.5522 572.518 11.7638 573.466 5.97538 574.413C8.50121 577.081 10.7815 579.362 12.4303 580.871C13.1319 581.503 13.7985 582.135 14.465 582.766C16.3945 584.591 18.3239 586.381 20.2885 588.171C152.649 565.499 282.52 539.949 411.688 514.434C414.705 508.503 417.512 502.431 420.038 496.29C381.799 503.098 343.315 509.802 305.568 516.891C210.814 534.65 119.498 555.076 23.3405 571.571V571.536ZM421.16 307.824C411.443 283.186 397.691 260.198 380.185 239.527C374.257 232.402 369.345 227.278 365.311 223.277L365.101 223.067C365.101 223.067 364.96 222.926 364.89 222.856C364.82 222.786 364.715 222.716 364.644 222.611C277.643 219.557 185.941 225.383 85.0833 262.69C38.0044 280.098 60.4914 296.242 44.6698 313.755C28.3922 331.794 -41.4192 348.676 -61.3101 365.627C-62.0118 370.576 -62.5731 375.419 -62.959 380.087C-57.802 384.123 -50.2245 388.088 -63.6957 393.458C-63.836 398.863 -63.836 404.092 -63.6606 409.041C-63.5904 410.971 -63.5202 412.972 -63.415 414.972C-63.415 415.218 -63.415 415.463 -63.3799 415.674C-62.7134 427.326 -61.0997 439.96 -58.1879 453.367C-8.96915 443.996 38.6008 433.047 82.2066 421.956C216.602 387.808 336.299 348.395 421.16 307.859V307.824ZM143.178 202.255C134.092 205.694 142.195 209.66 155.737 210.643C169.278 211.626 185.801 210.502 201.132 209.169C245.474 205.378 288.904 200.079 329.669 193.516C325.354 190.568 320.618 187.515 315.426 184.426C314.794 184.04 314.163 183.689 313.496 183.338C311.847 182.391 310.199 181.408 308.445 180.46C306.866 179.583 305.287 178.776 303.674 177.933C258.419 185.093 211.901 191.761 165.279 198.008C157.035 199.096 148.264 200.325 143.178 202.255ZM36.531 206.361C44.4594 204.22 51.8965 202.571 56.9131 199.412C104.448 169.475 161.7 158.525 201.237 149.716C198.395 149.576 195.624 149.47 192.958 149.435C167.98 148.768 143.528 151.822 119.743 158.63C114.972 159.929 110.447 161.368 106.062 162.912C106.027 162.912 105.957 162.947 105.921 162.947C100.344 164.878 95.0112 166.948 89.8894 169.159C88.2055 169.861 86.5567 170.563 84.8026 171.335C83.5748 171.862 82.2417 172.493 80.9086 173.125C80.8384 173.125 80.7683 173.195 80.6981 173.23C80.6981 173.23 80.6631 173.23 80.628 173.266C78.4179 174.318 76.1025 175.441 73.8222 176.6C73.7871 176.6 73.717 176.635 73.6819 176.67C68.946 179.021 62.7717 182.496 58.2462 185.198C56.5623 186.216 54.703 187.409 52.8087 188.638C49.3006 190.778 45.8977 192.99 43.0561 195.06C42.3896 195.552 41.6529 196.043 40.9512 196.569C41.0214 196.499 41.1266 196.429 41.1968 196.359C40.9863 196.499 40.8109 196.64 40.6355 196.78C35.8996 200.184 30.5672 204.255 24.5333 209.379C28.6378 208.432 32.637 207.414 36.4959 206.396L36.531 206.361ZM178.574 175.933C186.573 179.232 224.846 176.494 284.519 168.914C281.257 167.475 278.52 166.422 274.732 165.053C274.381 164.913 273.96 164.772 273.539 164.597C269.926 163.228 267.715 162.526 262.804 160.947C262.804 160.947 262.804 160.947 262.769 160.947C262.488 160.842 262.138 160.736 261.857 160.666C261.787 160.666 261.752 160.631 261.681 160.596C258.664 159.648 255.121 158.595 252.069 157.823C247.439 156.595 243.159 155.612 238.879 154.7C238.809 154.7 238.773 154.7 238.703 154.7C238.703 154.7 238.668 154.7 238.633 154.7L236.844 154.349C233.862 153.752 230.95 153.226 228.074 152.734C189.695 163.298 168.717 171.897 178.68 175.968L178.574 175.933Z" fill="#D9E2FE"/>
<g opacity="0.1" filter="url(#filter9_f_1817_20968)">
<path d="M409.644 275.388C409.644 300.754 298.484 224.595 187.66 224.595C76.8362 224.595 -37.1465 300.754 -37.1465 275.388C-37.1465 250.023 76.8362 157.498 187.66 157.498C298.484 157.498 409.644 250.023 409.644 275.388Z" fill="#2F6FF0"/>
</g>
<g opacity="0.8" filter="url(#filter10_f_1817_20968)">
<path d="M345.056 170.666C345.056 190.926 275.991 163.142 190.796 163.142C105.6 163.142 36.5352 190.926 36.5352 170.666C36.5352 150.407 105.6 97.9258 190.796 97.9258C275.991 97.9258 345.056 150.407 345.056 170.666Z" fill="#B99AFF"/>
</g>
</g>
<g clip-path="url(#clip2_1817_20968)">
<rect x="24.1602" y="122" width="90" height="42" rx="4.5" fill="#161E33"/>
<path fill-rule="evenodd" clip-rule="evenodd" d="M103.523 136.605L103.522 136.607C103.535 136.648 103.524 136.671 103.491 136.679C102.818 136.682 102.144 136.679 101.47 136.677L101.47 136.677C101.009 136.675 100.548 136.673 100.087 136.673C99.8576 136.673 99.6284 136.674 99.3993 136.674L99.3987 136.674C98.9405 136.675 98.4827 136.675 98.0257 136.673C96.5707 136.675 95.1167 136.675 93.6634 136.674H93.6633L93.6625 136.674C92.9359 136.674 92.2094 136.673 91.4831 136.673C91.4709 136.673 91.4588 136.674 91.4468 136.674C91.4033 136.675 91.3609 136.675 91.3185 136.666L91.3004 136.673C90.4981 136.675 89.6971 136.675 88.8959 136.674L88.8955 136.674C88.4948 136.674 88.094 136.673 87.6929 136.673C87.2103 136.681 86.7287 136.681 86.2472 136.68H86.2471H86.247C85.9208 136.68 85.5946 136.679 85.268 136.681C85.255 136.677 85.2448 136.675 85.2369 136.674C85.2267 136.671 85.2202 136.67 85.2161 136.666C85.2093 136.66 85.2093 136.646 85.2093 136.609V136.609C85.2093 136.533 85.2646 136.469 85.3259 136.432C85.52 136.307 85.7105 136.176 85.9011 136.044C86.0473 135.944 86.1919 135.841 86.3414 135.735L86.3418 135.735C86.4082 135.688 86.4757 135.64 86.5446 135.591C86.6972 135.484 86.8531 135.38 87.0088 135.277L87.0089 135.277L87.0089 135.277C87.0924 135.221 87.1758 135.166 87.2586 135.11C87.3226 135.068 87.3866 135.025 87.4405 134.971C87.4309 134.951 87.4217 134.931 87.4125 134.911C87.37 134.816 87.3259 134.718 87.2242 134.678C87.1148 134.634 87.0024 134.599 86.8903 134.563C86.8623 134.554 86.8306 134.547 86.7977 134.539C86.6739 134.509 86.5341 134.476 86.5204 134.357L86.5242 134.352C86.5458 134.319 86.5691 134.284 86.6106 134.277C86.7754 134.214 86.9408 134.152 87.1062 134.089L87.1067 134.089C87.2722 134.027 87.4378 133.965 87.6028 133.901C87.6242 133.896 87.6452 133.889 87.666 133.882L87.666 133.882C87.7008 133.871 87.7352 133.859 87.7705 133.857H100.94C101.044 133.873 101.149 133.899 101.244 133.946C101.364 133.99 101.484 134.035 101.603 134.08L101.604 134.08C101.791 134.151 101.978 134.222 102.167 134.29C102.247 134.347 102.152 134.457 102.059 134.489C101.993 134.512 101.926 134.534 101.86 134.556L101.859 134.556C101.742 134.594 101.625 134.632 101.51 134.678C101.291 134.764 101.291 134.869 101.291 134.967C101.349 135.025 101.415 135.068 101.482 135.112C101.719 135.266 101.955 135.427 102.191 135.591C102.372 135.715 102.539 135.835 102.702 135.951L102.702 135.951C102.862 136.065 103.018 136.176 103.179 136.288C103.215 136.313 103.256 136.333 103.296 136.354C103.407 136.41 103.515 136.465 103.523 136.605ZM90.4517 135.73C90.7322 135.798 91.0387 135.559 91.0363 135.267H91.0371C91.0606 134.97 90.744 134.716 90.4603 134.783C90.3129 134.817 90.1742 134.915 90.1225 135.06C90.0504 135.21 90.0708 135.394 90.1609 135.531C90.2299 135.631 90.338 135.691 90.4517 135.73ZM97.8211 135.578C97.97 135.735 98.2177 135.787 98.4136 135.679C98.6354 135.562 98.7232 135.262 98.6096 135.04C98.5531 134.91 98.4246 134.825 98.2929 134.786C98.1174 134.74 97.9293 134.814 97.8109 134.947C97.6589 135.12 97.6691 135.405 97.8211 135.578ZM46.9272 138.92C47.301 138.863 47.7305 138.828 48.0471 139.062C48.2446 139.21 48.3152 139.479 48.301 139.72C48.3152 140.115 48.1318 140.54 47.7799 140.745C47.4695 140.915 47.0964 140.929 46.7516 140.894C46.5188 140.866 46.2868 140.738 46.1669 140.526C45.8989 139.911 46.2304 139.04 46.9279 138.92H46.9272ZM35.7539 139.366C35.775 139.154 35.9655 138.963 36.1834 138.97C36.7265 138.97 37.2688 138.971 37.8105 138.972L37.8106 138.972H37.8106H37.8106H37.8107H37.8107H37.8107H37.8107H37.8107H37.8108H37.8108C38.8924 138.973 39.9718 138.975 41.0511 138.97C41.2275 138.956 41.4171 139.034 41.5018 139.19C41.5873 139.341 41.558 139.503 41.5291 139.663L41.5291 139.663C41.5174 139.728 41.5058 139.792 41.5018 139.855C41.4938 139.903 41.4875 139.953 41.481 140.005C41.4476 140.272 41.4108 140.567 41.1217 140.662C40.4256 140.682 39.7295 140.679 39.0333 140.675H39.0333H39.0333H39.0332H39.0332H39.0332H39.0332H39.0332H39.0332H39.0332H39.0331H39.0331H39.0331H39.0331H39.0331H39.0331H39.0331H39.0331H39.0331C38.5457 140.672 38.0582 140.67 37.5706 140.676C37.5191 141.018 37.4691 141.359 37.4192 141.698L37.4192 141.699L37.4191 141.699L37.4191 141.699L37.419 141.699L37.419 141.7C37.3596 142.104 37.3004 142.508 37.2391 142.911C37.2391 142.925 37.2408 142.948 37.2426 142.971C37.2443 142.994 37.2461 143.017 37.2461 143.031C37.6795 143.028 38.1126 143.028 38.5458 143.028H38.5459H38.5461C38.9793 143.028 39.4124 143.028 39.8458 143.024C40.0856 143.01 40.3387 143.216 40.3176 143.47C40.3045 143.632 40.2778 143.791 40.2511 143.951C40.2346 144.05 40.2181 144.148 40.2047 144.248C40.1765 144.425 40.0354 144.587 39.852 144.623C39.4383 144.632 39.0221 144.629 38.6056 144.627C38.0501 144.623 37.4942 144.62 36.9428 144.644C36.8555 145.245 36.7592 145.846 36.6629 146.448L36.6629 146.448L36.6629 146.448C36.5881 146.915 36.5134 147.382 36.4428 147.849C36.4216 148.061 36.2523 148.245 36.0415 148.252C35.6402 148.259 35.2382 148.259 34.8369 148.252C34.5759 148.259 34.3651 147.969 34.4356 147.721C34.8318 145.154 35.2393 142.594 35.6477 140.028L35.6477 140.028L35.6478 140.028L35.7531 139.366H35.7539ZM43.6153 138.969C43.38 138.967 43.1438 138.965 42.9108 138.983H42.9101C42.7274 139.012 42.5864 139.174 42.5652 139.351C42.1851 141.764 41.8113 144.169 41.4382 146.574C41.3747 147.027 41.3959 147.536 41.7055 147.897C42.1349 148.392 42.8607 148.477 43.4595 148.364C43.4827 148.358 43.5069 148.351 43.5317 148.344C43.7997 148.271 44.1376 148.179 44.157 147.855C44.1628 147.781 44.1729 147.706 44.183 147.632C44.2096 147.435 44.2363 147.238 44.1852 147.048C44.1282 146.884 43.9795 146.837 43.8327 146.79C43.689 146.745 43.5471 146.7 43.4947 146.546C43.4177 146.284 43.4601 146.012 43.5007 145.752C43.5085 145.702 43.5162 145.653 43.5229 145.605C43.6711 144.657 43.8208 143.709 43.9705 142.761L43.9705 142.761C44.1202 141.813 44.2698 140.865 44.418 139.917C44.4257 139.85 44.4371 139.783 44.4486 139.716C44.4685 139.599 44.4885 139.482 44.4885 139.365C44.4673 139.132 44.2424 138.955 44.0167 138.969C43.8837 138.972 43.7496 138.97 43.6153 138.969ZM56.8959 139.366C56.917 139.153 57.1075 138.97 57.3183 138.97H58.3889C58.6561 138.963 58.8748 139.253 58.8113 139.507C58.6879 140.293 58.5629 141.078 58.4379 141.863C58.3129 142.649 58.1879 143.434 58.0644 144.219C58.4375 144.163 58.8607 144.092 59.1209 143.788C59.5574 143.293 59.9172 142.72 60.1844 142.119C60.201 142.077 60.2161 142.031 60.2316 141.984C60.3022 141.772 60.38 141.538 60.628 141.503C61.0293 141.489 61.4384 141.496 61.8397 141.503C62.1148 141.496 62.3185 141.807 62.2268 142.062C62.121 142.438 61.9447 142.784 61.7621 143.116C61.3537 143.781 60.9023 144.439 60.3106 144.962C60.4775 145.465 60.673 145.958 60.8679 146.451L60.8679 146.451C60.9777 146.728 61.0873 147.005 61.1915 147.283C61.2097 147.337 61.2334 147.394 61.2575 147.452C61.3458 147.663 61.4398 147.888 61.2903 148.082C61.1351 148.293 60.8844 148.279 60.6435 148.267C60.5449 148.261 60.448 148.256 60.36 148.266C60.2737 148.257 60.1768 148.262 60.078 148.267C59.8143 148.281 59.5368 148.295 59.4085 148.033C59.2513 147.667 59.107 147.297 58.9625 146.926L58.9624 146.926C58.8023 146.515 58.6421 146.104 58.4641 145.698C58.2666 145.705 58.0628 145.712 57.8653 145.691L57.8089 145.805C57.7031 146.512 57.5903 147.22 57.4774 147.927C57.4351 148.097 57.3011 148.245 57.1185 148.259C56.8388 148.27 56.5547 148.269 56.2698 148.267H56.2697L56.2694 148.267C56.1744 148.267 56.0794 148.266 55.9844 148.266C55.8222 148.266 55.6748 148.16 55.6043 148.019C55.5447 147.899 55.5656 147.765 55.5863 147.632L55.5863 147.632L55.5864 147.632C55.5902 147.607 55.5939 147.583 55.5972 147.559C56.0338 144.828 56.464 142.097 56.8935 139.366L56.8959 139.366ZM76.9099 139.81C76.7132 139.803 76.5227 139.938 76.4734 140.136V140.135C76.3776 140.439 76.2881 140.747 76.1983 141.055L76.198 141.056C76.1563 141.199 76.1146 141.343 76.0721 141.486C75.9874 141.497 75.9007 141.495 75.8144 141.494C75.6778 141.491 75.5422 141.488 75.4169 141.536C75.2065 141.641 75.1753 141.868 75.1467 142.076C75.1408 142.119 75.135 142.161 75.1277 142.201C75.1229 142.238 75.1164 142.277 75.1098 142.316C75.078 142.507 75.0438 142.712 75.1841 142.859C75.3192 143.02 75.53 143.011 75.7158 143.003L75.716 143.003C75.7338 143.002 75.7515 143.001 75.7688 143C75.698 143.644 75.5944 144.283 75.491 144.921L75.491 144.922L75.491 144.922L75.491 144.922L75.4909 144.922L75.4909 144.922C75.409 145.427 75.3272 145.933 75.2617 146.439C75.2053 147.033 75.2899 147.734 75.8182 148.094C76.3887 148.47 77.1286 148.47 77.7697 148.3C77.794 148.293 77.819 148.287 77.8445 148.28C78.0632 148.224 78.3138 148.16 78.3896 147.925C78.4257 147.775 78.4416 147.623 78.4576 147.47C78.4666 147.384 78.4757 147.297 78.4883 147.21C78.5236 146.999 78.3904 146.765 78.1788 146.701C78.1085 146.694 78.0339 146.694 77.9587 146.694C77.747 146.695 77.5301 146.696 77.3896 146.524C77.2626 146.333 77.2767 146.086 77.2979 145.866C77.3508 145.525 77.4047 145.185 77.4586 144.844L77.4588 144.843C77.555 144.236 77.6511 143.629 77.7415 143.022C77.9251 143.002 78.1087 143.004 78.2936 143.006C78.4418 143.008 78.5909 143.01 78.7415 143C78.9171 142.973 79.0722 142.824 79.1075 142.64C79.1251 142.53 79.1463 142.423 79.1674 142.315L79.1674 142.315C79.1886 142.207 79.2098 142.099 79.2274 141.989C79.2697 141.749 79.066 141.494 78.8191 141.494C78.6355 141.489 78.449 141.491 78.2636 141.492C78.1712 141.493 78.079 141.494 77.9875 141.494C78.0032 141.27 78.0407 141.046 78.0781 140.822L78.0782 140.822C78.1081 140.642 78.138 140.463 78.1568 140.284C78.185 140.058 78.0024 139.825 77.7697 139.818C77.6043 139.809 77.4391 139.811 77.2752 139.812C77.1526 139.813 77.0307 139.814 76.9099 139.81ZM72.4926 142.429C72.9362 141.984 73.4723 141.615 74.0852 141.432C74.3532 141.311 74.6981 141.538 74.691 141.835C74.661 142.071 74.6153 142.305 74.5698 142.538L74.5698 142.539L74.5698 142.539L74.5698 142.539L74.5698 142.539L74.5698 142.539C74.5405 142.689 74.5113 142.838 74.4865 142.988C74.4582 143.179 74.296 143.342 74.1056 143.363C73.4151 143.483 72.8163 143.9 72.3375 144.395C72.3101 144.429 72.2799 144.463 72.2492 144.497C72.1453 144.612 72.0366 144.732 72.0208 144.89C71.8856 145.794 71.7444 146.699 71.6034 147.603L71.5631 147.861C71.542 148.074 71.3586 148.278 71.1407 148.264H70.0701C69.8232 148.278 69.6054 148.031 69.6336 147.783L69.7967 146.751C70.0519 145.137 70.3066 143.527 70.556 141.911C70.5701 141.713 70.7112 141.522 70.915 141.501C71.1104 141.491 71.3053 141.492 71.5034 141.493C71.57 141.494 71.6368 141.494 71.7042 141.494C71.9158 141.494 72.1125 141.685 72.1125 141.904C72.1125 142.077 72.1034 142.252 72.0943 142.428L72.0943 142.428C72.0873 142.562 72.0803 142.697 72.0773 142.831C72.1826 142.765 72.2633 142.674 72.3431 142.585C72.3915 142.53 72.4396 142.476 72.4926 142.428V142.429ZM46.8827 141.495C46.6406 141.488 46.3971 141.481 46.1593 141.53V141.531C45.9477 141.616 45.8913 141.856 45.8772 142.061C45.7255 143.006 45.5776 143.948 45.4297 144.891C45.2817 145.834 45.1338 146.777 44.9821 147.721C44.9194 147.955 45.095 148.23 45.3348 148.259C45.6253 148.269 45.9123 148.268 46.1981 148.267C46.2932 148.266 46.3881 148.266 46.483 148.266C46.7009 148.273 46.8702 148.068 46.8913 147.863C47.1735 146.044 47.4619 144.226 47.7511 142.408C47.7573 142.352 47.7664 142.296 47.7756 142.24C47.798 142.105 47.8204 141.968 47.8005 141.828C47.7652 141.608 47.5332 141.466 47.3145 141.495C47.1722 141.503 47.0277 141.499 46.8827 141.495ZM68.9563 141.622C67.9068 141.424 66.8355 141.282 65.772 141.389C64.8205 141.509 63.8628 141.94 63.2781 142.726C62.4677 143.758 62.1934 145.145 62.376 146.433C62.4748 147.048 62.742 147.671 63.2428 148.053C63.7076 148.413 64.3346 148.463 64.8981 148.371C65.6873 148.215 66.3566 147.705 66.906 147.14C66.9215 147.271 66.9115 147.403 66.9017 147.533V147.533V147.533V147.533V147.533V147.533V147.533C66.8936 147.641 66.8855 147.748 66.8919 147.854C66.906 148.073 67.1035 148.278 67.3214 148.264H68.0401C68.2517 148.264 68.4272 148.066 68.4414 147.861L68.4884 147.564L68.4887 147.562L68.4889 147.561L68.489 147.56C68.7763 145.744 69.0627 143.934 69.3434 142.124C69.3858 141.883 69.1953 141.65 68.9563 141.622V141.622ZM66.9766 144.955C66.6944 145.485 66.3002 145.967 65.8566 146.377C65.6027 146.589 65.279 146.808 64.9341 146.737C64.5956 146.667 64.4341 146.313 64.3565 146.009C64.1802 145.216 64.3424 144.353 64.786 143.667C64.9835 143.348 65.3001 143.108 65.6669 143.009C66.1811 142.882 66.7234 142.945 67.2242 143.087L67.2524 143.115C67.2108 143.519 67.1448 143.92 67.0787 144.322V144.322V144.322V144.322L67.0786 144.323C67.044 144.533 67.0093 144.743 66.9781 144.955H66.9766ZM54.437 141.912C54.9299 142.442 55.1204 143.185 55.1275 143.893V143.892C55.1698 145.138 54.7756 146.419 53.9299 147.345C52.8938 148.4 51.2809 148.584 49.8929 148.315C49.8224 148.944 49.7448 149.567 49.6319 150.189C49.6237 150.233 49.6171 150.279 49.6103 150.326C49.5763 150.564 49.5388 150.826 49.28 150.897C49.0151 150.936 48.7432 150.931 48.4716 150.927H48.4716C48.3463 150.925 48.221 150.923 48.0966 150.925C47.8293 150.932 47.6036 150.664 47.6671 150.402C47.8889 148.987 48.1127 147.571 48.3365 146.156C48.5602 144.742 48.7839 143.327 49.0057 141.912C49.0198 141.693 49.2024 141.495 49.4281 141.495H50.1468C50.3576 141.495 50.5622 141.685 50.5551 141.905C50.5592 142.043 50.554 142.179 50.5487 142.313C50.5449 142.413 50.541 142.513 50.541 142.612C50.6265 142.564 50.6933 142.491 50.7604 142.417C50.809 142.364 50.8578 142.311 50.9141 142.266C51.5129 141.729 52.2809 141.325 53.0984 141.353C53.5913 141.346 54.0992 141.537 54.437 141.912ZM52.4291 146.39C52.8797 145.916 53.1125 145.258 53.1548 144.608L53.1556 144.608C53.1838 144.135 53.1556 143.61 52.8452 143.222C52.6618 142.988 52.317 142.959 52.063 143.08C51.3796 143.44 50.9 144.098 50.5058 144.749C50.4209 145.115 50.3667 145.486 50.3124 145.858L50.3124 145.858C50.2764 146.104 50.2404 146.35 50.1954 146.596C50.2025 146.617 50.2236 146.659 50.2377 146.681C50.9564 146.871 51.8444 146.949 52.4291 146.39ZM103.523 136.911C103.534 136.936 103.541 136.962 103.549 136.988L103.549 136.987C103.551 139.174 103.551 141.362 103.55 143.55C103.55 146.123 103.55 148.697 103.554 151.27C103.566 151.642 103.339 151.928 103.197 152.008C103.055 152.088 102.701 152.106 102.539 152.101C101.531 152.099 100.522 152.1 99.514 152.1C99.0104 152.1 98.5069 152.101 98.0036 152.101C97.9176 152.099 97.8317 152.099 97.7458 152.1C97.6283 152.101 97.5108 152.102 97.3931 152.096C97.3931 152.072 97.3962 152.028 97.3986 152.008C97.4518 151.712 97.5044 151.416 97.5569 151.121C97.6165 150.786 97.676 150.451 97.7364 150.117C97.7608 149.989 97.7829 149.861 97.8049 149.733C97.8385 149.537 97.8721 149.341 97.9143 149.149C98.2027 149.152 98.4915 149.151 98.7802 149.15C98.9245 149.15 99.0687 149.149 99.2129 149.149C99.2324 149.149 99.2518 149.149 99.2713 149.15C99.3839 149.151 99.4969 149.152 99.6024 149.111C99.72 149.073 99.8227 149.004 99.9089 148.918C99.9974 148.83 100.07 148.723 100.123 148.612C100.249 148.353 100.316 148.073 100.357 147.792C100.391 147.541 100.414 147.272 100.311 147.034C100.231 146.847 100.03 146.739 99.8344 146.739C99.5531 146.736 99.2718 146.736 98.9909 146.737C98.7804 146.737 98.5701 146.737 98.3602 146.736C98.3957 146.519 98.4356 146.302 98.4754 146.086C98.514 145.877 98.5524 145.669 98.5867 145.46C98.6768 144.984 98.8391 144.509 99.1455 144.125C99.2591 143.981 99.3971 143.859 99.5491 143.757C99.7458 143.626 99.9669 143.53 100.197 143.481C100.442 143.421 100.692 143.42 100.942 143.419C101.201 143.418 101.459 143.417 101.712 143.352C101.791 143.329 101.871 143.298 101.94 143.253C101.99 143.219 102.034 143.176 102.065 143.121C102.128 143.013 102.122 142.885 102.116 142.762C102.115 142.735 102.114 142.708 102.114 142.681C102.057 142.322 101.99 141.964 101.871 141.62C101.817 141.475 101.744 141.331 101.624 141.232C101.477 141.106 101.287 141.054 101.101 141.01C100.817 140.973 100.529 140.965 100.243 140.991C99.3618 141.033 98.4746 141.25 97.7097 141.701C96.8907 142.181 96.2175 142.906 95.7927 143.76C95.5223 144.291 95.3467 144.865 95.2362 145.448C95.2052 145.612 95.1743 145.777 95.1435 145.942C95.0958 146.196 95.0481 146.451 94.9995 146.705C94.9954 146.739 94.964 146.738 94.9356 146.738C94.9261 146.738 94.9171 146.738 94.9094 146.739L94.9075 146.739C93.9371 146.737 92.9682 146.735 91.9978 146.739C91.5306 146.785 91.0624 146.836 90.5946 146.888C90.2959 146.921 89.9973 146.954 89.6992 146.985L89.6788 146.993C89.6662 146.994 89.6529 146.995 89.6404 146.997C89.5933 147.002 89.5461 147.006 89.4989 147.011C89.3504 147.026 89.2014 147.041 89.0534 147.062C89.0212 147.066 88.9899 147.07 88.9577 147.075C89.5343 147.171 90.1122 147.256 90.6902 147.341C91.037 147.393 91.3839 147.444 91.7306 147.497C91.7686 147.578 91.7928 147.667 91.817 147.757C91.8303 147.806 91.8436 147.856 91.8591 147.903C91.8049 147.905 91.751 147.911 91.697 147.917C91.6659 147.92 91.6348 147.924 91.6036 147.926C91.5919 147.928 91.5801 147.929 91.5684 147.929C91.5566 147.93 91.5451 147.931 91.5335 147.932C91.5219 147.933 91.5104 147.934 91.4986 147.935C91.2564 147.953 91.0147 147.973 90.7727 147.993C90.6061 148.006 90.4393 148.02 90.2721 148.033C90.2597 148.035 90.2468 148.034 90.2337 148.034C90.2028 148.034 90.1712 148.034 90.1459 148.054C90.664 148.125 91.1828 148.2 91.7029 148.275L91.8184 148.291C91.8289 148.293 91.8407 148.294 91.853 148.295C91.8946 148.297 91.9408 148.3 91.9547 148.346C91.9607 148.374 91.9665 148.402 91.9723 148.43C91.9862 148.498 92.0001 148.566 92.0167 148.633C91.8985 148.645 91.779 148.65 91.6596 148.655C91.5318 148.66 91.404 148.665 91.2776 148.679C91.1546 148.678 91.0319 148.687 90.9093 148.696C90.846 148.701 90.7828 148.705 90.7196 148.708H90.7172C90.6788 148.711 90.6404 148.712 90.602 148.712C90.5899 148.712 90.5779 148.712 90.566 148.712C90.554 148.713 90.5421 148.713 90.5299 148.713C90.5244 148.714 90.5191 148.714 90.5138 148.715C90.5086 148.715 90.5033 148.716 90.4978 148.716C90.4015 148.727 90.3049 148.73 90.2084 148.734C90.1005 148.737 89.9928 148.741 89.8857 148.755C89.7602 148.756 89.6359 148.765 89.5116 148.773C89.378 148.782 89.2445 148.791 89.1098 148.791C88.9984 148.807 88.8862 148.81 88.7739 148.814C88.6634 148.817 88.5528 148.82 88.4428 148.835C88.3178 148.835 88.1934 148.844 88.069 148.852C87.9446 148.861 87.8202 148.869 87.6951 148.869C87.5717 148.886 87.4476 148.89 87.3235 148.893C87.2066 148.895 87.0897 148.898 86.9733 148.913C86.9353 148.914 86.8975 148.915 86.8599 148.917C86.7904 148.92 86.7213 148.923 86.6512 148.921C86.6512 148.923 86.6505 148.926 86.6496 148.93C86.6487 148.933 86.6476 148.936 86.6465 148.937C86.7763 148.94 86.9061 148.946 87.036 148.953C87.231 148.962 87.426 148.972 87.6207 148.971C87.7739 148.988 87.9285 148.99 88.0831 148.993C88.2377 148.995 88.3923 148.998 88.5455 149.015C88.6121 149.017 88.6789 149.018 88.7457 149.018C88.8678 149.019 88.9898 149.02 89.1098 149.035C89.2184 149.04 89.3269 149.042 89.4354 149.044C89.6126 149.046 89.7896 149.049 89.9656 149.067C90.1464 149.067 90.3263 149.075 90.5062 149.084C90.6859 149.092 90.8655 149.1 91.0456 149.1C91.2287 149.118 91.4127 149.121 91.5963 149.123C91.705 149.125 91.8137 149.126 91.9218 149.131C92.0411 149.145 92.1631 149.147 92.284 149.149C92.3355 149.149 92.3867 149.15 92.4375 149.152C92.7878 149.153 93.1389 149.153 93.49 149.153C93.8411 149.153 94.1923 149.153 94.5426 149.154C94.5399 149.173 94.5373 149.193 94.5348 149.212C94.5322 149.232 94.5297 149.251 94.527 149.27C94.3983 149.95 94.2779 150.631 94.1577 151.311C94.1168 151.543 94.076 151.774 94.0348 152.005C94.0338 152.012 94.0326 152.021 94.0314 152.031C94.0298 152.043 94.0283 152.055 94.0269 152.062C94.0258 152.067 94.0244 152.074 94.023 152.081C94.0217 152.088 94.0203 152.096 94.0191 152.101C93.968 152.121 93.9144 152.12 93.861 152.119C93.8415 152.119 93.8221 152.118 93.8028 152.119H86.2272C86.1316 152.129 86.0448 152.129 85.9435 152.093L85.9401 152.092C85.8015 152.042 85.6583 151.99 85.5493 151.888C85.3635 151.715 85.224 151.484 85.1856 151.231C85.188 146.477 85.188 141.727 85.188 136.973C85.1903 136.949 85.2005 136.931 85.2162 136.913C88.2669 136.912 91.3176 136.912 94.3687 136.912C97.4197 136.912 100.471 136.912 103.523 136.911ZM98.5083 138.548C98.5264 138.54 98.5365 138.524 98.5365 138.506L98.5381 138.505C98.5391 138.461 98.5462 138.418 98.5532 138.376C98.5627 138.317 98.5722 138.26 98.5663 138.2C98.5891 138.073 98.5914 137.943 98.5867 137.814C98.5655 137.776 98.5632 137.729 98.5632 137.685L98.5428 137.687C98.5123 137.574 98.4166 137.465 98.2928 137.46C98.2003 137.452 98.0843 137.454 98.0303 137.543C97.954 137.646 97.9608 137.77 97.9674 137.891C97.9698 137.935 97.9721 137.977 97.9707 138.019C97.9707 138.024 97.9713 138.031 97.9719 138.038C97.9725 138.045 97.973 138.052 97.973 138.057C97.973 138.164 97.9597 138.267 97.9417 138.371C97.926 138.401 97.9182 138.435 97.9182 138.471C97.8743 138.715 97.7865 138.955 97.6682 139.175C97.6454 139.206 97.6274 139.239 97.6196 139.276C97.542 139.41 97.4495 139.535 97.3539 139.659C97.3382 139.672 97.3249 139.687 97.3124 139.703C97.2486 139.782 97.1791 139.85 97.1079 139.919L97.0984 139.928C97.0881 139.934 97.0796 139.941 97.0712 139.948C97.065 139.953 97.0589 139.958 97.0522 139.962C96.9652 140.048 96.8672 140.128 96.7614 140.193C96.7539 140.197 96.7466 140.202 96.7388 140.208C96.7329 140.212 96.7267 140.216 96.7198 140.221C96.0607 140.659 95.259 140.84 94.4784 140.847C93.8161 140.869 93.1492 140.726 92.5512 140.439C92.5474 140.437 92.5415 140.435 92.535 140.432C92.524 140.427 92.5113 140.422 92.5049 140.418C92.4793 140.405 92.4534 140.391 92.4276 140.378C92.3524 140.339 92.2775 140.3 92.2087 140.25C92.2007 140.246 92.1928 140.242 92.1846 140.237C92.1719 140.23 92.1587 140.222 92.1444 140.216C92.0496 140.16 91.9587 140.097 91.874 140.025C91.8549 140.007 91.8344 139.992 91.8136 139.977C91.8037 139.97 91.7938 139.963 91.7839 139.955C91.6906 139.88 91.5958 139.8 91.5159 139.709C91.4956 139.687 91.4745 139.665 91.4542 139.645L91.4539 139.645C91.1734 139.353 90.9539 138.996 90.8379 138.607C90.7473 138.355 90.741 138.083 90.7348 137.815C90.7334 137.756 90.732 137.698 90.7298 137.639C90.6365 137.497 90.4406 137.417 90.2862 137.505C90.2485 137.532 90.2302 137.573 90.2118 137.613C90.1987 137.642 90.1856 137.671 90.1655 137.696C90.0855 138.55 90.4484 139.402 91.0284 140.017C91.0284 140.038 91.0386 140.051 91.0566 140.059C91.093 140.093 91.1292 140.127 91.1654 140.162C91.2312 140.224 91.2968 140.286 91.363 140.346C91.3811 140.364 91.4014 140.382 91.4249 140.398C91.5025 140.462 91.5841 140.522 91.6656 140.581C91.6928 140.601 91.72 140.621 91.7471 140.641C91.7674 140.657 91.7878 140.67 91.8113 140.683C91.8511 140.706 91.8902 140.731 91.9294 140.755C92.0297 140.817 92.1298 140.88 92.2392 140.921C92.2494 140.928 92.2675 140.941 92.2776 140.947C92.7675 141.182 93.2957 141.342 93.8365 141.394C93.8961 141.394 93.9548 141.4 94.0144 141.413C94.2549 141.426 94.4947 141.421 94.7351 141.416L94.7872 141.415C95.5834 141.345 96.4056 141.15 97.0702 140.68L97.078 140.69C97.0992 140.672 97.1172 140.657 97.1376 140.641C97.2434 140.564 97.3468 140.481 97.4495 140.396C97.473 140.378 97.4981 140.357 97.5216 140.333C97.5552 140.297 97.5904 140.261 97.6257 140.225C97.7096 140.14 97.7944 140.054 97.8618 139.953L97.8774 139.961C97.881 139.955 97.8854 139.947 97.89 139.938C97.8956 139.927 97.9013 139.916 97.9056 139.909C97.9926 139.79 98.0726 139.666 98.1502 139.542C98.1525 139.538 98.157 139.533 98.1615 139.528C98.166 139.522 98.1705 139.517 98.1729 139.513L98.1627 139.503C98.1666 139.498 98.1731 139.49 98.1796 139.482C98.186 139.474 98.1925 139.467 98.1964 139.461C98.3383 139.171 98.4644 138.869 98.5083 138.548Z" fill="#F0F3FA"/>
<g opacity="0.4" filter="url(#filter11_f_1817_20968)">
<ellipse cx="92.2044" cy="119.956" rx="35.7825" ry="11.7825" fill="#2F6FF0"/>
</g>
</g>
<g clip-path="url(#clip3_1817_20968)">
<rect x="261.16" y="122" width="90" height="42" rx="4.5" fill="#161E33"/>
<path fill-rule="evenodd" clip-rule="evenodd" d="M307.311 144.119L306.551 144.672C307.196 145.801 308.325 146.516 309.638 146.492C311.227 146.492 312.402 145.547 312.402 144.119C312.402 142.967 311.664 142.346 310.421 141.747L309.476 141.286L309.437 141.267C308.695 140.908 308.117 140.628 308.117 139.858C308.117 139.006 308.854 138.614 309.638 138.614C310.421 138.614 311.135 139.006 311.596 139.697L312.333 139.144C311.803 138.291 310.836 137.692 309.661 137.692C308.279 137.692 307.081 138.567 307.081 139.904C307.081 141.17 308.118 141.747 309.016 142.184L309.983 142.645C310.836 143.037 311.411 143.359 311.411 144.142C311.411 145.017 310.698 145.571 309.684 145.571C308.601 145.571 307.818 144.902 307.311 144.119ZM318.922 142.646H314.937C315.167 141.562 315.996 140.849 317.056 140.826C318.046 140.826 318.898 141.471 318.922 142.646ZM314.913 143.521H319.889C319.912 143.406 319.958 143.106 319.982 142.759C319.982 141.101 318.715 139.926 317.102 139.926C315.282 139.926 313.877 141.377 313.877 143.22C313.877 145.087 315.328 146.515 317.217 146.515C318.23 146.515 319.106 146.077 319.728 145.409L319.152 144.741C318.622 145.248 318 145.594 317.217 145.594C315.996 145.594 315.051 144.764 314.913 143.521ZM326.915 146.377V142.415C326.915 140.964 326.063 139.927 324.565 139.95C323.759 139.95 323.091 140.249 322.63 140.756V140.088H321.709V146.377H322.7V142.53C322.7 141.539 323.391 140.848 324.359 140.848C325.326 140.848 325.925 141.539 325.925 142.53V146.377H326.915ZM329.057 144.626L328.435 145.294C328.942 145.962 329.772 146.516 330.879 146.515C332.053 146.515 333.09 145.892 333.09 144.672C333.09 143.774 332.56 143.29 331.431 142.806L330.856 142.553C330.164 142.254 329.842 142.069 329.842 141.632C329.842 141.125 330.28 140.849 330.879 140.849C331.454 140.849 332.008 141.103 332.422 141.54L333.021 140.918C332.537 140.319 331.822 139.928 330.924 139.928C329.772 139.928 328.805 140.549 328.805 141.678C328.805 142.576 329.404 143.037 330.371 143.429L330.97 143.682C331.615 143.936 332.075 144.142 332.075 144.696C332.075 145.271 331.545 145.594 330.877 145.594C330.094 145.594 329.564 145.179 329.057 144.626ZM339.492 142.646H335.507C335.738 141.562 336.567 140.849 337.627 140.826C338.617 140.826 339.469 141.471 339.492 142.646ZM335.485 143.521H340.461C340.483 143.406 340.529 143.106 340.553 142.759C340.553 141.101 339.286 139.926 337.674 139.926C335.854 139.926 334.449 141.377 334.449 143.22C334.449 145.087 335.9 146.515 337.789 146.515C338.802 146.515 339.677 146.077 340.299 145.409L339.724 144.741C339.194 145.248 338.572 145.594 337.789 145.594C336.567 145.594 335.623 144.764 335.485 143.521ZM271.422 146.377L275.246 137.692H275.821L279.622 146.377H277.756L277.272 145.271H273.771L273.287 146.377H271.422ZM276.651 143.82L275.523 140.941L274.371 143.82H276.651ZM287.478 141.401C288.4 141.401 289.136 142.092 289.136 143.175C289.136 144.258 288.376 144.949 287.478 144.926C286.671 144.926 285.865 144.372 285.865 143.152C285.865 141.931 286.671 141.401 287.478 141.401ZM285.888 145.755C286.349 146.262 287.017 146.538 287.8 146.538C289.62 146.538 290.91 145.11 290.91 143.175C290.91 141.24 289.62 139.835 287.8 139.835C286.925 139.835 286.188 140.181 285.75 140.779V139.973H284.138V148.749H285.888V145.755ZM303.465 143.912V143.981C303.465 144.742 302.843 145.248 302.128 145.248C301.576 145.248 301.207 144.994 301.207 144.557C301.207 144.142 301.53 143.912 302.105 143.912H303.465ZM305.192 146.377V142.576C305.192 140.756 304.086 139.835 302.428 139.836C301.3 139.836 300.401 140.251 299.641 141.149L300.539 142.231C301.068 141.678 301.552 141.356 302.243 141.356C303.049 141.356 303.441 141.793 303.441 142.484V142.761H301.829C300.354 142.761 299.41 143.451 299.41 144.626C299.41 145.709 300.216 146.538 301.621 146.538C302.451 146.538 303.119 146.239 303.58 145.755V146.377H305.192ZM282.41 146.377H280.659V137.692H282.41V146.377ZM294.02 140.526C294.434 140.088 295.056 139.835 295.771 139.835C297.245 139.835 298.166 140.872 298.166 142.415V146.378H296.439V142.646C296.439 141.886 295.954 141.402 295.241 141.402C294.527 141.402 294.02 141.909 294.02 142.646V146.378H292.27V137.693H294.02V140.526ZM271.422 147.782H282.41V148.75H271.422V147.782Z" fill="#F0F3FA"/>
<g opacity="0.4" filter="url(#filter12_f_1817_20968)">
<ellipse cx="329.204" cy="119.956" rx="35.7825" ry="11.7825" fill="#DC244C"/>
</g>
</g>
<g clip-path="url(#clip4_1817_20968)">
<rect x="64.1602" y="48" width="90" height="42" rx="4.5" fill="#161E33"/>
<path fill-rule="evenodd" clip-rule="evenodd" d="M89.9757 75.3371C91.6564 75.3371 93.2682 74.6695 94.4567 73.4811C95.6451 72.2927 96.3127 70.6808 96.3127 69.0001C96.3127 70.6808 96.9804 72.2927 98.1688 73.4811C99.3572 74.6695 100.969 75.3371 102.65 75.3371C104.33 75.3371 105.942 74.6695 107.131 73.4811C108.319 72.2927 108.987 70.6808 108.987 69.0001V75.3371H115.324C116.164 75.3371 116.97 75.0033 117.564 74.4091C118.159 73.8149 118.492 73.009 118.492 72.1686C118.492 71.3283 118.159 70.5224 117.564 69.9282C116.97 69.3339 116.164 69.0001 115.324 69.0001H121.661V75.3371H127.998V69.0001H134.335V62.6631H115.324C114.483 62.6631 113.678 62.9969 113.083 63.5911C112.489 64.1853 112.155 64.9913 112.155 65.8316C112.155 66.6719 112.489 67.4779 113.083 68.0721C113.678 68.6663 114.483 69.0001 115.324 69.0001H108.987V62.6631H102.65H96.3127V69.0001C96.3127 67.3194 95.6451 65.7076 94.4567 64.5192C93.2682 63.3307 91.6564 62.6631 89.9757 62.6631H83.6387V69.0001V75.3371H89.9757Z" fill="#F0F3FA"/>
<g opacity="0.4" filter="url(#filter13_f_1817_20968)">
<ellipse cx="132.204" cy="45.9563" rx="35.7825" ry="11.7825" fill="#8547FF"/>
</g>
</g>
<g clip-path="url(#clip5_1817_20968)">
<rect x="221.16" y="48" width="90" height="42" rx="4.5" fill="#161E33"/>
<path fill-rule="evenodd" clip-rule="evenodd" d="M240.768 73.6711C240.768 73.3943 240.561 73.1175 240.215 73.1175C239.869 73.1175 239.661 73.3943 239.661 73.6711C239.661 73.9479 239.869 74.2247 240.215 74.2247C240.492 74.2247 240.768 74.0171 240.768 73.6711ZM248.726 69.035C248.726 69.3118 248.934 69.5886 249.28 69.5886C249.556 69.5886 249.833 69.3118 249.833 69.035C249.833 68.7582 249.626 68.4815 249.28 68.4815C249.003 68.4815 248.726 68.7582 248.726 69.035ZM247.48 69.035C247.48 68.0663 248.311 67.2359 249.28 67.2359C250.248 67.2359 251.009 67.9971 251.148 68.8274C251.148 69.7962 250.317 70.6265 249.349 70.6265C248.934 70.6265 248.588 70.5573 248.242 70.2805L242.083 73.6019C242.083 74.5707 241.253 75.3318 240.284 75.3318C239.454 75.3318 238.693 74.709 238.554 73.8095L232.949 70.9033C231.981 70.4189 231.358 69.1042 231.427 67.8587C231.496 67.0976 231.773 66.4748 232.327 66.1288C232.385 66.0996 232.662 65.9627 233.099 65.7467L233.099 65.7465L233.099 65.7465C234.734 64.938 238.611 63.0215 241.668 61.4927L241.876 61.4235C241.884 61.4192 241.895 61.4138 241.906 61.4076L241.907 61.4075C242.084 61.3139 242.615 61.0344 243.329 61.4235C244.228 61.8387 246.166 62.7382 247.896 63.5686C248.378 63.8316 248.888 64.0669 249.338 64.2744L249.338 64.2744C249.598 64.3944 249.838 64.5051 250.041 64.6065C250.041 64.6065 250.317 64.7449 250.317 65.0217C250.317 65.2293 250.179 65.3677 250.041 65.4369L240.561 70.3497C240.077 70.6265 239.869 70.5573 239.592 70.4189C239.515 70.3422 238.055 69.5843 236.534 68.7946L236.533 68.7946L236.533 68.7945L236.533 68.7945L236.533 68.7944L236.533 68.7944C235.311 68.1603 234.05 67.5057 233.434 67.1668H233.365C233.226 67.0976 233.019 67.0976 232.88 67.1668C232.673 67.3051 232.465 67.6511 232.465 68.0663C232.396 68.8966 232.811 69.8654 233.365 70.1421L238.623 72.91C238.9 72.3564 239.523 71.9412 240.215 71.9412C240.768 71.9412 241.322 72.218 241.668 72.7024L247.55 69.5886C247.48 69.4502 247.48 69.2426 247.48 69.035ZM261.319 72.8409C261.942 72.6333 262.427 72.2873 262.772 71.9413H262.842V68.3432H259.174V69.7963H260.697V71.1802C260.42 71.3878 260.005 71.5261 259.451 71.5261C258.759 71.5261 258.275 71.2494 257.998 70.8342C257.652 70.419 257.514 69.7271 257.514 68.8275V68.274C257.583 67.4436 257.721 66.8209 257.998 66.3365C258.275 65.8521 258.69 65.6445 259.244 65.6445C259.659 65.6445 260.005 65.7829 260.281 65.9905C260.558 66.1981 260.697 66.5441 260.766 67.0284H262.842C262.703 65.9905 262.357 65.2294 261.735 64.745C261.112 64.2606 260.212 63.9839 259.105 63.9839C258.344 63.9839 257.652 64.1914 257.098 64.5374C256.545 64.8834 256.13 65.3678 255.784 66.0597C255.438 66.6825 255.299 67.4436 255.299 68.3432V69.1043C255.299 70.3498 255.715 71.3878 256.407 72.0797C257.098 72.8409 258.067 73.1868 259.244 73.1868C260.005 73.1868 260.697 73.0484 261.319 72.8409ZM264.018 73.0484H266.094V66.4057H264.018V73.0484ZM263.949 64.6758C263.949 64.399 264.087 64.1222 264.295 63.9146C264.502 63.7071 264.779 63.6379 265.125 63.6379C265.471 63.6379 265.748 63.7071 265.955 63.9146C266.163 64.1222 266.301 64.3298 266.301 64.6758C266.301 64.9526 266.163 65.2294 265.955 65.4369C265.748 65.6445 265.471 65.7137 265.125 65.7137C264.779 65.7137 264.502 65.6445 264.295 65.4369C264.018 65.2294 263.949 65.0218 263.949 64.6758ZM269.83 66.4057V64.745H267.754V66.4057H266.924V67.8588H267.754V71.1802C267.754 71.8722 267.892 72.3565 268.238 72.7025C268.584 73.0485 269.138 73.1869 269.83 73.1869C270.245 73.1869 270.66 73.1177 271.006 72.9793V71.5262C270.868 71.5954 270.729 71.5954 270.522 71.5954C270.245 71.5954 270.037 71.5262 269.968 71.457C269.899 71.3186 269.83 71.1802 269.83 70.9034V67.8588H270.937V66.4057H269.83ZM273.982 69.2427V71.3878H275.366C275.781 71.3878 276.058 71.3186 276.266 71.111C276.473 70.9034 276.612 70.6958 276.612 70.3498C276.612 69.5887 276.266 69.2427 275.505 69.2427H273.982ZM273.982 67.8588H275.09C275.574 67.8588 275.92 67.7896 276.127 67.582C276.335 67.4436 276.404 67.1668 276.404 66.8209C276.404 66.4749 276.266 66.1981 276.058 65.9905C275.851 65.8521 275.505 65.7137 275.02 65.7137H273.982V67.8588ZM271.837 73.0485V64.1223H275.09C276.266 64.1223 277.096 64.3298 277.719 64.745C278.342 65.1602 278.618 65.7829 278.618 66.6133C278.618 67.0977 278.48 67.4436 278.273 67.7896C278.065 68.1356 277.719 68.3432 277.304 68.4816C277.788 68.6199 278.134 68.8275 278.411 69.1735C278.688 69.5195 278.757 69.9347 278.757 70.419C278.757 71.3186 278.48 71.9413 277.927 72.4257C277.373 72.8409 276.543 73.1176 275.435 73.1176L271.837 73.0485ZM281.939 71.1803C281.732 70.8343 281.662 70.4191 281.662 69.7964L281.593 69.3812C281.662 68.3433 282.008 67.8589 282.7 67.8589C283.461 67.8589 283.877 68.4817 283.877 69.658V69.8656C283.877 71.0419 283.531 71.5955 282.769 71.5955C282.423 71.5955 282.147 71.4571 281.939 71.1803ZM280.002 67.8589C279.725 68.4125 279.586 68.966 279.586 69.658V70.0732C279.586 71.0419 279.932 71.803 280.486 72.3566C281.04 72.9102 281.801 73.1869 282.769 73.1869C283.738 73.1869 284.569 72.9102 285.122 72.2874C285.745 71.6646 286.022 70.8343 286.022 69.7964V69.658C286.022 68.6201 285.745 67.7897 285.191 67.167C284.638 66.5442 283.807 66.2674 282.839 66.2674C282.147 66.2674 281.593 66.4058 281.109 66.6826C280.624 66.9594 280.278 67.3745 280.002 67.8589ZM288.79 69.7964C288.79 70.4191 288.86 70.8343 289.067 71.1803C289.275 71.4571 289.551 71.5955 289.897 71.5955C290.659 71.5955 291.005 71.0419 291.005 69.8656V69.658C291.005 68.4817 290.589 67.8589 289.828 67.8589C289.136 67.8589 288.79 68.3433 288.721 69.3812L288.79 69.7964ZM286.714 69.658C286.714 68.966 286.853 68.4125 287.13 67.8589C287.406 67.3745 287.752 66.9594 288.237 66.6826C288.721 66.4058 289.275 66.2674 289.967 66.2674C290.935 66.2674 291.766 66.5442 292.319 67.167C292.873 67.7897 293.15 68.6201 293.15 69.658V69.7964C293.15 70.8343 292.873 71.6646 292.25 72.2874C291.697 72.9102 290.866 73.1869 289.897 73.1869C288.929 73.1869 288.168 72.9102 287.614 72.3566C287.06 71.803 286.714 71.0419 286.714 70.0732V69.658ZM296.125 71.1802L296.748 70.6266L298.201 73.0484H300.554L298.063 69.1735L300.416 66.4057H297.924L296.333 68.3431L296.125 68.6199V63.6379H294.05V73.0484H296.125V71.1802Z" fill="#F0F3FA"/>
<g opacity="0.4" filter="url(#filter14_f_1817_20968)">
<ellipse cx="289.204" cy="45.9563" rx="35.7825" ry="11.7825" fill="#038585"/>
</g>
</g>
</g>
<defs>
<filter id="filter0_f_1817_20968" x="-389.249" y="247.17" width="1153.82" height="300.996" filterUnits="userSpaceOnUse" color-interpolation-filters="sRGB">
<feFlood flood-opacity="0" result="BackgroundImageFix"/>
<feBlend mode="normal" in="SourceGraphic" in2="BackgroundImageFix" result="shape"/>
<feGaussianBlur stdDeviation="37.6245" result="effect1_foregroundBlur_1817_20968"/>
</filter>
<filter id="filter1_f_1817_20968" x="-21.3642" y="27.0664" width="418.051" height="418.05" filterUnits="userSpaceOnUse" color-interpolation-filters="sRGB">
<feFlood flood-opacity="0" result="BackgroundImageFix"/>
<feBlend mode="normal" in="SourceGraphic" in2="BackgroundImageFix" result="shape"/>
<feGaussianBlur stdDeviation="62.7075" result="effect1_foregroundBlur_1817_20968"/>
</filter>
<filter id="filter2_f_1817_20968" x="-21.3642" y="261.175" width="418.051" height="418.05" filterUnits="userSpaceOnUse" color-interpolation-filters="sRGB">
<feFlood flood-opacity="0" result="BackgroundImageFix"/>
<feBlend mode="normal" in="SourceGraphic" in2="BackgroundImageFix" result="shape"/>
<feGaussianBlur stdDeviation="62.7075" result="effect1_foregroundBlur_1817_20968"/>
</filter>
<filter id="filter3_f_1817_20968" x="95.6885" y="146.907" width="418.051" height="418.05" filterUnits="userSpaceOnUse" color-interpolation-filters="sRGB">
<feFlood flood-opacity="0" result="BackgroundImageFix"/>
<feBlend mode="normal" in="SourceGraphic" in2="BackgroundImageFix" result="shape"/>
<feGaussianBlur stdDeviation="62.7075" result="effect1_foregroundBlur_1817_20968"/>
</filter>
<filter id="filter4_f_1817_20968" x="-138.419" y="146.907" width="418.051" height="418.05" filterUnits="userSpaceOnUse" color-interpolation-filters="sRGB">
<feFlood flood-opacity="0" result="BackgroundImageFix"/>
<feBlend mode="normal" in="SourceGraphic" in2="BackgroundImageFix" result="shape"/>
<feGaussianBlur stdDeviation="62.7075" result="effect1_foregroundBlur_1817_20968"/>
</filter>
<filter id="filter5_f_1817_20968" x="-104.976" y="60.5108" width="418.051" height="418.05" filterUnits="userSpaceOnUse" color-interpolation-filters="sRGB">
<feFlood flood-opacity="0" result="BackgroundImageFix"/>
<feBlend mode="normal" in="SourceGraphic" in2="BackgroundImageFix" result="shape"/>
<feGaussianBlur stdDeviation="62.7075" result="effect1_foregroundBlur_1817_20968"/>
</filter>
<filter id="filter6_f_1817_20968" x="62.2452" y="60.5108" width="418.051" height="418.05" filterUnits="userSpaceOnUse" color-interpolation-filters="sRGB">
<feFlood flood-opacity="0" result="BackgroundImageFix"/>
<feBlend mode="normal" in="SourceGraphic" in2="BackgroundImageFix" result="shape"/>
<feGaussianBlur stdDeviation="62.7075" result="effect1_foregroundBlur_1817_20968"/>
</filter>
<filter id="filter7_f_1817_20968" x="62.2452" y="227.731" width="418.051" height="418.05" filterUnits="userSpaceOnUse" color-interpolation-filters="sRGB">
<feFlood flood-opacity="0" result="BackgroundImageFix"/>
<feBlend mode="normal" in="SourceGraphic" in2="BackgroundImageFix" result="shape"/>
<feGaussianBlur stdDeviation="62.7075" result="effect1_foregroundBlur_1817_20968"/>
</filter>
<filter id="filter8_f_1817_20968" x="-104.976" y="227.731" width="418.051" height="418.05" filterUnits="userSpaceOnUse" color-interpolation-filters="sRGB">
<feFlood flood-opacity="0" result="BackgroundImageFix"/>
<feBlend mode="normal" in="SourceGraphic" in2="BackgroundImageFix" result="shape"/>
<feGaussianBlur stdDeviation="62.7075" result="effect1_foregroundBlur_1817_20968"/>
</filter>
<filter id="filter9_f_1817_20968" x="-112.395" y="82.249" width="597.289" height="273.561" filterUnits="userSpaceOnUse" color-interpolation-filters="sRGB">
<feFlood flood-opacity="0" result="BackgroundImageFix"/>
<feBlend mode="normal" in="SourceGraphic" in2="BackgroundImageFix" result="shape"/>
<feGaussianBlur stdDeviation="37.6245" result="effect1_foregroundBlur_1817_20968"/>
</filter>
<filter id="filter10_f_1817_20968" x="21.4854" y="82.876" width="338.621" height="110.236" filterUnits="userSpaceOnUse" color-interpolation-filters="sRGB">
<feFlood flood-opacity="0" result="BackgroundImageFix"/>
<feBlend mode="normal" in="SourceGraphic" in2="BackgroundImageFix" result="shape"/>
<feGaussianBlur stdDeviation="7.5249" result="effect1_foregroundBlur_1817_20968"/>
</filter>
<filter id="filter11_f_1817_20968" x="28.7694" y="80.5213" width="126.869" height="78.8704" filterUnits="userSpaceOnUse" color-interpolation-filters="sRGB">
<feFlood flood-opacity="0" result="BackgroundImageFix"/>
<feBlend mode="normal" in="SourceGraphic" in2="BackgroundImageFix" result="shape"/>
<feGaussianBlur stdDeviation="13.8262" result="effect1_foregroundBlur_1817_20968"/>
</filter>
<filter id="filter12_f_1817_20968" x="265.769" y="80.5213" width="126.869" height="78.8704" filterUnits="userSpaceOnUse" color-interpolation-filters="sRGB">
<feFlood flood-opacity="0" result="BackgroundImageFix"/>
<feBlend mode="normal" in="SourceGraphic" in2="BackgroundImageFix" result="shape"/>
<feGaussianBlur stdDeviation="13.8262" result="effect1_foregroundBlur_1817_20968"/>
</filter>
<filter id="filter13_f_1817_20968" x="68.7694" y="6.52133" width="126.869" height="78.8704" filterUnits="userSpaceOnUse" color-interpolation-filters="sRGB">
<feFlood flood-opacity="0" result="BackgroundImageFix"/>
<feBlend mode="normal" in="SourceGraphic" in2="BackgroundImageFix" result="shape"/>
<feGaussianBlur stdDeviation="13.8262" result="effect1_foregroundBlur_1817_20968"/>
</filter>
<filter id="filter14_f_1817_20968" x="225.769" y="6.52133" width="126.869" height="78.8704" filterUnits="userSpaceOnUse" color-interpolation-filters="sRGB">
<feFlood flood-opacity="0" result="BackgroundImageFix"/>
<feBlend mode="normal" in="SourceGraphic" in2="BackgroundImageFix" result="shape"/>
<feGaussianBlur stdDeviation="13.8262" result="effect1_foregroundBlur_1817_20968"/>
</filter>
<linearGradient id="paint0_linear_1817_20968" x1="-320.903" y1="394.251" x2="696.772" y2="395.692" gradientUnits="userSpaceOnUse">
<stop offset="0.0775907" stop-color="#DC244C"/>
<stop offset="0.293353" stop-color="#2567EB"/>
<stop offset="0.486232" stop-color="#F54C71"/>
<stop offset="0.687211" stop-color="#7335F0"/>
<stop offset="1" stop-color="#BB3987"/>
</linearGradient>
<clipPath id="clip0_1817_20968">
<rect width="375" height="960" fill="white"/>
</clipPath>
<clipPath id="clip1_1817_20968">
<rect x="-63.1699" y="157.498" width="501.66" height="486.61" rx="243.305" fill="white"/>
</clipPath>
<clipPath id="clip2_1817_20968">
<rect x="24.1602" y="122" width="90" height="42" rx="4.5" fill="white"/>
</clipPath>
<clipPath id="clip3_1817_20968">
<rect x="261.16" y="122" width="90" height="42" rx="4.5" fill="white"/>
</clipPath>
<clipPath id="clip4_1817_20968">
<rect x="64.1602" y="48" width="90" height="42" rx="4.5" fill="white"/>
</clipPath>
<clipPath id="clip5_1817_20968">
<rect x="221.16" y="48" width="90" height="42" rx="4.5" fill="white"/>
</clipPath>
</defs>
</svg>
