<svg width="167" height="56" viewBox="0 0 167 56" fill="none" xmlns="http://www.w3.org/2000/svg">
<path d="M78.3379 42.6243C78.3379 44.6538 76.6928 46.2992 74.6633 46.2992H72.1514V43.4301H72.0618C71.7928 43.8185 71.4342 44.222 70.9859 44.6402C70.5673 45.0289 70.0595 45.3876 69.4617 45.7164C68.8939 46.0449 68.2513 46.3139 67.534 46.5234C66.8465 46.7325 66.1292 46.8368 65.3822 46.8368C63.7683 46.8368 62.304 46.5678 60.9889 46.0299C59.6738 45.4622 58.5384 44.685 57.5819 43.6988C56.6555 42.6827 55.9383 41.4874 55.4301 40.1128C54.9219 38.7378 54.668 37.2286 54.668 35.585C54.668 34.0608 54.8921 32.6112 55.3404 31.2362C55.8185 29.8318 56.4762 28.5912 57.3129 27.5153C58.1797 26.4396 59.2255 25.5879 60.451 24.9602C61.6764 24.3028 63.0661 23.974 64.6201 23.974C66.0249 23.974 67.3249 24.1981 68.5203 24.6464C69.7457 25.0649 70.7467 25.7971 71.5238 26.8433H71.6135V16.0827C71.6135 14.0533 73.2586 12.4082 75.288 12.4082H78.3379V42.6243ZM72.1514 35.4053C72.1514 33.7617 71.6734 32.4319 70.7169 31.4155C69.7905 30.3995 68.4754 29.8913 66.7719 29.8913C65.0684 29.8913 63.7386 30.3995 62.7821 31.4155C61.8557 32.4319 61.3924 33.7617 61.3924 35.4053C61.3924 37.0493 61.8557 38.3791 62.7821 39.3951C63.7386 40.4115 65.0684 40.9197 66.7719 40.9197C68.4754 40.9197 69.7905 40.4115 70.7169 39.3951C71.6734 38.3791 72.1514 37.0493 72.1514 35.4053Z" fill="white"/>
<path d="M82.6885 28.1863C82.6885 26.1571 84.3336 24.512 86.3631 24.512H89.413V28.0085H89.5026C90.2199 26.6638 91.0716 25.6626 92.0579 25.0051C93.0441 24.3177 94.2843 23.974 95.7787 23.974C96.1671 23.974 96.5555 23.989 96.9443 24.0188C97.3327 24.0487 97.6913 24.1085 98.0202 24.1982V30.3398C97.5418 30.1902 97.0637 30.0855 96.5857 30.0256C96.1374 29.9359 95.6589 29.8911 95.1511 29.8911C93.8658 29.8911 92.8497 30.0704 92.1027 30.4291C91.3553 30.7877 90.7725 31.2959 90.3544 31.9533C89.9656 32.5809 89.7117 33.343 89.5923 34.2396C89.4725 35.1365 89.413 36.1224 89.413 37.1983V42.6241C89.413 44.6536 87.7679 46.299 85.7384 46.299H82.6885V28.1863Z" fill="white"/>
<path d="M114.33 43.565H114.24C113.493 44.7306 112.492 45.5673 111.237 46.0754C110.012 46.5833 108.712 46.8372 107.337 46.8372C106.321 46.8372 105.334 46.688 104.378 46.3893C103.452 46.1203 102.63 45.7017 101.912 45.134C101.195 44.5659 100.627 43.8637 100.209 43.0267C99.7906 42.19 99.5811 41.2188 99.5811 40.1131C99.5811 38.8579 99.8053 37.7967 100.254 36.9303C100.732 36.0634 101.36 35.3462 102.136 34.7784C102.943 34.2104 103.855 33.7771 104.871 33.4784C105.887 33.1495 106.933 32.9103 108.009 32.7607C109.115 32.6116 110.206 32.5219 111.282 32.4918C112.388 32.462 113.404 32.4473 114.33 32.4473C114.33 31.2516 113.897 30.3102 113.03 29.6227C112.193 28.9054 111.192 28.5468 110.026 28.5468C108.921 28.5468 107.905 28.786 106.978 29.2641C106.081 29.7127 105.274 30.3403 104.557 31.1469L100.971 27.4709C102.226 26.3055 103.691 25.4388 105.364 24.871C107.038 24.2732 108.771 23.9744 110.564 23.9744C112.537 23.9744 114.151 24.2284 115.406 24.7365C116.691 25.2146 117.707 25.9319 118.454 26.8881C119.231 27.8446 119.769 29.0252 120.068 30.4296C120.367 31.8046 120.516 33.4034 120.516 35.2264V42.6251C120.516 44.6541 118.871 46.2996 116.842 46.2996H114.33V43.565ZM112.671 36.7506C112.164 36.7506 111.521 36.7807 110.744 36.8402C109.997 36.8704 109.264 36.9898 108.547 37.1989C107.86 37.4083 107.262 37.7221 106.754 38.1403C106.276 38.5588 106.037 39.1416 106.037 39.889C106.037 40.6959 106.381 41.2934 107.068 41.6818C107.755 42.0706 108.472 42.2646 109.219 42.2646C109.877 42.2646 110.505 42.1749 111.102 41.9956C111.73 41.8163 112.283 41.5624 112.761 41.2335C113.239 40.905 113.613 40.4865 113.882 39.9783C114.181 39.4705 114.33 38.8726 114.33 38.1855V36.7506H112.671Z" fill="white"/>
<path d="M125.185 28.1863C125.185 26.1571 126.83 24.512 128.859 24.512H131.64V27.4705H131.73C131.939 27.0524 132.238 26.6339 132.626 26.2155C133.015 25.7971 133.478 25.4235 134.016 25.0947C134.554 24.766 135.166 24.497 135.854 24.2878C136.541 24.0786 137.289 23.974 138.095 23.974C139.799 23.974 141.174 24.243 142.22 24.7809C143.266 25.289 144.072 26.0063 144.641 26.9326C145.238 27.8593 145.641 28.9499 145.851 30.2051C146.06 31.4603 146.165 32.8203 146.165 34.2849V42.6243C146.165 44.6538 144.52 46.2992 142.49 46.2992H139.44V35.6295C139.44 35.0019 139.41 34.3595 139.351 33.7018C139.321 33.0147 139.186 32.387 138.947 31.8193C138.738 31.2512 138.394 30.7879 137.916 30.4293C137.468 30.0706 136.81 29.8913 135.944 29.8913C135.077 29.8913 134.375 30.0559 133.837 30.3844C133.299 30.6835 132.88 31.1017 132.581 31.6396C132.312 32.1478 132.133 32.7306 132.044 33.388C131.954 34.0457 131.909 34.7329 131.909 35.4501V42.6243C131.909 44.6538 130.264 46.2992 128.234 46.2992H125.185V28.1863Z" fill="white"/>
<path d="M166.215 26.2168C166.215 28.246 164.569 29.8911 162.54 29.8911H160.297V37.1538C160.297 37.7513 160.327 38.3043 160.387 38.8122C160.447 39.2906 160.581 39.7088 160.79 40.0674C161 40.426 161.313 40.7101 161.732 40.9195C162.18 41.0988 162.763 41.1881 163.48 41.1881C163.839 41.1881 164.302 41.1584 164.87 41.0985C165.467 41.0088 165.916 40.8299 166.215 40.5609V43.7666C166.215 45.2051 165.314 46.5434 163.883 46.7021C163.076 46.7918 162.285 46.8366 161.507 46.8366C160.372 46.8366 159.326 46.7172 158.369 46.478C157.413 46.2392 156.576 45.8654 155.859 45.3576C155.142 44.8197 154.574 44.1322 154.155 43.2951C153.767 42.4584 153.573 41.4424 153.573 40.2471V29.8911H149.269V28.1861C149.269 26.1569 150.914 24.5118 152.944 24.5118H153.573V21.7309C153.573 19.7015 155.218 18.0563 157.247 18.0563H160.297V24.5118H166.215V26.2168Z" fill="white"/>
<path fill-rule="evenodd" clip-rule="evenodd" d="M48.6797 14.0017L48.6827 14L36.5565 7L24.4338 0L12.3079 7L0.185547 14L0.186145 14.0016V41.9996L12.3088 48.9996L24.4348 56V56.0007L32.1917 51.5252L32.1921 51.5246L32.1917 51.5244V42L24.4348 46.4796L16.4316 41.8604L8.43217 37.2415V18.7626L16.4316 14.1437L24.4348 9.52477L32.4343 14.1437L40.4374 18.7626V56.0004L40.4368 56L40.438 56.0025L48.6836 51.2436V14.0022L48.6797 14.0017ZM24.4348 36.9585L32.1917 32.4793V23.5244L24.4348 19.0451L16.6778 23.5244V32.4793L24.4348 36.9585Z" fill="white"/>
</svg>
