<svg xmlns="http://www.w3.org/2000/svg" width="199.423" height="49" viewBox="79 7.658 199.423 49" fill="none">
<path d="M98.7676 9.54105H112.258L131.311 55.4514H117.052L105.006 24.9674L97.0467 44.9725H106.512L110.291 55.4514H79.5L98.7676 9.54105ZM147.198 19.0673C148.581 19.0673 150.086 19.1902 151.592 19.559V8.18893H163.515V53.4232C160.78 54.6524 154.88 56.1582 148.98 56.1582C138.286 56.1582 129.098 50.0737 129.098 37.9354C129.098 25.7971 137.948 19.098 147.198 19.098V19.0673ZM148.704 46.3247C149.81 46.3247 150.701 46.1096 151.592 45.833V29.1774C150.701 28.8394 149.81 28.6857 148.642 28.6857C144.739 28.6857 141.113 31.5743 141.113 37.6588C141.113 43.7434 144.801 46.2939 148.704 46.2939V46.3247ZM184.75 19.0673C194.675 19.0673 203.126 25.7664 203.126 37.5667C203.126 49.3669 194.706 56.066 184.75 56.066C174.793 56.066 166.312 49.3669 166.312 37.5667C166.312 25.7664 174.67 19.0673 184.75 19.0673ZM184.75 46.1403C188.161 46.1403 191.326 43.4053 191.326 37.5667C191.326 31.728 188.161 28.993 184.75 28.993C181.339 28.993 178.235 31.728 178.235 37.5667C178.235 43.4053 181.185 46.1403 184.75 46.1403ZM205.984 8.18893H217.969V19.559C219.413 19.2824 220.919 19.0673 222.424 19.0673C231.736 19.0673 240.371 25.1518 240.371 37.075C240.371 49.6742 231.182 56.066 220.304 56.066C215.633 56.066 209.672 55.1134 205.984 53.3925V8.1582V8.18893ZM220.581 46.2632C224.698 46.2632 228.448 43.3131 228.448 37.2286C228.448 31.5436 224.76 28.8701 220.765 28.8701C219.659 28.8701 218.768 28.993 217.969 29.3618V45.8022C218.645 46.0788 219.536 46.2939 220.581 46.2939V46.2632ZM260.714 19.0673C269.687 19.0673 277.923 24.8138 277.923 36.3989C277.923 37.9661 277.861 39.4719 277.646 40.9777H255.305C256.535 45.034 260.099 46.9393 264.555 46.9393C268.181 46.9393 271.531 46.0481 275.311 44.4194V53.5462C271.807 55.3285 267.628 56.066 263.326 56.066C251.956 56.066 243.106 49.2133 243.106 37.5667C243.106 25.92 251.126 19.0673 260.714 19.0673ZM266.737 33.5103C266.122 29.6076 263.51 28.0404 260.837 28.0404C258.163 28.0404 255.981 29.6998 255.09 33.5103H266.737Z" fill="#FF0000" />
</svg>
