<svg xmlns="http://www.w3.org/2000/svg" width="176.084" height="46.971" viewBox="99 8.5 176.084 46.971" fill="none">
<path d="M274.471 36.9171H252.821C252.804 37.1212 252.804 37.3168 252.821 37.5209C253.842 40.4886 255.772 42.4955 258.944 43.0312C262.116 43.5669 265.109 43.0312 267.184 40.123C267.379 39.8339 267.686 39.6383 268.034 39.5872H273.766C273.46 44.7489 266.308 49.1453 259.182 48.6096C251.588 47.9973 245.916 41.3475 246.529 33.7453C246.529 33.6517 246.546 33.5582 246.554 33.4647C247.26 24.6124 253.578 19.4337 262.6 20.3351C270.364 21.1089 275.415 28.0819 274.471 36.9171ZM252.923 31.3643H268.187C267.337 27.7587 264.267 25.5733 260.177 25.6584C256.588 25.7349 253.502 28.1584 252.923 31.3643Z" fill="black" />
<path d="M120.766 13.8552C121.931 13.8127 123.019 14.3994 123.631 15.3943C129.473 23.8044 135.307 32.223 141.115 40.6415C142.263 42.1637 141.965 44.3236 140.451 45.4801C140.392 45.5226 140.332 45.5651 140.264 45.6076C138.632 46.7046 136.412 46.2624 135.324 44.6297C135.298 44.5872 135.273 44.5532 135.247 44.5106C131.225 38.7282 127.228 32.9373 123.257 27.1463L123.019 26.8572C121.42 24.5867 119.839 24.5867 118.283 26.8572C114.226 32.6736 110.179 38.5071 106.131 44.3491C105.561 45.3355 104.566 45.9988 103.444 46.1603C102.075 46.3729 100.723 45.7182 100.042 44.5106C99.2685 43.3116 99.3281 41.7555 100.187 40.616C102.126 37.8013 104.09 34.9951 106.046 32.1804C109.907 26.6446 113.759 21.1003 117.611 15.5559C118.274 14.4589 119.482 13.8127 120.766 13.8552Z" fill="#FF008C" />
<path d="M182.217 48.176H176.435V45.9566C176.231 45.9566 176.129 45.9566 176.069 46.0246C171.801 49.29 165.993 49.6812 161.333 47.0026C156.333 44.3664 154.215 39.783 154.275 34.2472C154.326 27.963 157.77 22.7928 163.22 21.0666C167.727 19.6295 172.124 19.7825 176.061 22.8523C176.18 22.9204 176.316 22.9714 176.452 22.9969V20.735H182.26L182.217 48.176ZM160.185 34.5108C160.185 34.8424 160.185 35.3611 160.278 35.9564C160.627 39.8935 163.824 42.9718 167.778 43.1759C171.605 43.6691 175.211 41.2371 176.171 37.4955C176.427 36.5771 176.571 35.6332 176.605 34.6808C176.852 28.4987 172.294 24.5786 166.401 25.8371C162.693 26.6364 160.261 29.9699 160.185 34.5108Z" fill="black" />
<path d="M235.089 26.0584H220.811V20.7437H243.15V25.3696C243.15 25.7012 242.793 26.0499 242.546 26.339C238.167 31.4837 233.779 36.6284 229.4 41.756C229.187 42.0026 228.992 42.2577 228.669 42.6659H243.125V48.1167H220.556V43.4738C220.556 43.1676 220.871 42.8445 221.1 42.5724L234.485 26.8577C234.647 26.6707 234.791 26.4581 235.089 26.0584Z" fill="black" />
<path d="M194.775 48.4064H188.967V20.9058H194.775V23.865C196.314 22.9381 197.751 21.9177 199.316 21.1609C201 20.4806 202.828 20.251 204.631 20.4976V26.1355C204.333 26.1355 204.044 26.195 203.781 26.195C199.24 26.246 196.076 28.7971 195.124 33.287C194.903 34.384 194.801 35.4979 194.809 36.6119V47.2754L194.775 48.4064Z" fill="black" />
<path d="M209.569 20.6836H215.301V48.1757H209.569V20.6836Z" fill="black" />
<path d="M120.613 46.4668C122.96 46.4158 124.899 48.2866 124.95 50.6336C124.95 50.6421 124.95 50.6591 124.95 50.6676C124.967 53.0316 123.063 54.9619 120.699 54.9704C118.335 54.9874 116.404 53.0826 116.387 50.7271C116.353 48.4142 118.198 46.5009 120.511 46.4668C120.545 46.4668 120.571 46.4668 120.605 46.4668H120.613Z" fill="#FF008C" />
<path d="M216.476 13.0478C216.519 15.2843 214.742 17.1296 212.505 17.1721C212.497 17.1721 212.48 17.1721 212.471 17.1721C210.218 17.2911 208.287 15.5564 208.177 13.3029C208.066 11.0495 209.784 9.12767 212.046 9.00012C212.165 9.00012 212.293 9.00012 212.412 9.00012C214.64 8.98311 216.459 10.7689 216.476 12.9968C216.476 13.0138 216.476 13.0308 216.476 13.0478Z" fill="black" />
</svg>
