<svg width="43.19" height="26" viewBox="-0.34 5.5 43.19 26" fill="none" xmlns="http://www.w3.org/2000/svg">
<g clip-path="url(#clip0_2335_3299)">
<path d="M12.0448 15.0795C12.0448 15.5939 12.101 16.0111 12.1992 16.317C12.3114 16.6229 12.4518 16.9566 12.6482 17.3181C12.7184 17.4293 12.7464 17.5405 12.7464 17.6379C12.7464 17.7769 12.6622 17.9159 12.4798 18.055L11.5958 18.639C11.4695 18.7224 11.3433 18.7641 11.231 18.7641C11.0907 18.7641 10.9504 18.6946 10.81 18.5695C10.6136 18.3609 10.4452 18.1384 10.3049 17.9159C10.1646 17.6796 10.0243 17.4154 9.86992 17.0956C8.77545 18.3748 7.40034 19.0144 5.7446 19.0144C4.56593 19.0144 3.6258 18.6807 2.93825 18.0133C2.2507 17.3459 1.8999 16.456 1.8999 15.3437C1.8999 14.1618 2.32085 13.2024 3.17679 12.4794C4.03273 11.7564 5.16929 11.3949 6.61456 11.3949C7.09164 11.3949 7.58275 11.4366 8.10193 11.5061C8.6211 11.5756 9.15431 11.6868 9.71558 11.812V10.797C9.71558 9.74025 9.49107 9.00332 9.05608 8.57229C8.60707 8.14126 7.84935 7.93269 6.76891 7.93269C6.2778 7.93269 5.77266 7.98831 5.25349 8.11345C4.73431 8.23859 4.22917 8.39153 3.73806 8.58619C3.51355 8.68352 3.34517 8.73914 3.24695 8.76695C3.14873 8.79476 3.07857 8.80866 3.02244 8.80866C2.826 8.80866 2.72777 8.66962 2.72777 8.37763V7.69632C2.72777 7.47385 2.75584 7.307 2.826 7.20967C2.89616 7.11234 3.02244 7.01501 3.21888 6.91768C3.71 6.6674 4.29933 6.45884 4.98688 6.29199C5.67444 6.11123 6.40409 6.02781 7.17583 6.02781C8.84561 6.02781 10.0664 6.40322 10.8521 7.15405C11.6239 7.90488 12.0168 9.04503 12.0168 10.5745V15.0795H12.0448ZM6.34796 17.1929C6.81101 17.1929 7.28809 17.1095 7.79323 16.9427C8.29837 16.7758 8.74739 16.4699 9.12624 16.0528C9.35075 15.7886 9.51913 15.4966 9.60332 15.1629C9.68751 14.8292 9.74364 14.426 9.74364 13.9532V13.3693C9.33672 13.2719 8.90173 13.1885 8.45272 13.1329C8.0037 13.0773 7.56872 13.0495 7.13374 13.0495C6.19361 13.0495 5.50606 13.2302 5.04301 13.6056C4.57996 13.981 4.35545 14.5094 4.35545 15.2046C4.35545 15.8581 4.52384 16.3448 4.87463 16.6785C5.21139 17.0261 5.7025 17.1929 6.34796 17.1929ZM17.6154 18.6946C17.3629 18.6946 17.1945 18.6529 17.0822 18.5555C16.97 18.4721 16.8718 18.2775 16.7876 18.0133L13.4901 7.26529C13.4059 6.9872 13.3638 6.80645 13.3638 6.70912C13.3638 6.48665 13.4761 6.36151 13.7006 6.36151H15.0757C15.3423 6.36151 15.5247 6.40322 15.6229 6.50055C15.7352 6.58398 15.8194 6.77864 15.9036 7.04282L18.2609 16.2474L20.4498 7.04282C20.52 6.76473 20.6042 6.58398 20.7164 6.50055C20.8287 6.41713 21.0251 6.36151 21.2777 6.36151H22.4003C22.6669 6.36151 22.8493 6.40322 22.9615 6.50055C23.0738 6.58398 23.172 6.77864 23.2281 7.04282L25.4451 16.3587L27.8726 7.04282C27.9568 6.76473 28.055 6.58398 28.1533 6.50055C28.2655 6.41713 28.4479 6.36151 28.7005 6.36151H30.0055C30.23 6.36151 30.3562 6.47274 30.3562 6.70912C30.3562 6.77864 30.3422 6.84816 30.3282 6.93159C30.3141 7.01501 30.2861 7.12624 30.23 7.27919L26.8483 18.0272C26.7641 18.3053 26.6659 18.486 26.5536 18.5695C26.4414 18.6529 26.259 18.7085 26.0204 18.7085H24.8137C24.5471 18.7085 24.3647 18.6668 24.2524 18.5695C24.1402 18.4721 24.042 18.2914 23.9858 18.0133L21.8109 9.04503L19.65 17.9994C19.5799 18.2775 19.4957 18.4582 19.3834 18.5555C19.2712 18.6529 19.0747 18.6946 18.8222 18.6946H17.6154ZM35.6462 19.07C34.9166 19.07 34.1869 18.9866 33.4853 18.8197C32.7837 18.6529 32.2365 18.4721 31.8717 18.2636C31.6472 18.1384 31.4928 17.9994 31.4367 17.8742C31.3806 17.7491 31.3525 17.6101 31.3525 17.4849V16.7758C31.3525 16.4838 31.4648 16.3448 31.6752 16.3448C31.7594 16.3448 31.8436 16.3587 31.9278 16.3865C32.012 16.4143 32.1383 16.4699 32.2786 16.5255C32.7557 16.7341 33.2748 16.9009 33.8221 17.0122C34.3834 17.1234 34.9306 17.179 35.4919 17.179C36.3759 17.179 37.0634 17.0261 37.5405 16.7202C38.0176 16.4143 38.2701 15.9694 38.2701 15.3993C38.2701 15.01 38.1439 14.6902 37.8913 14.426C37.6387 14.1618 37.1616 13.9254 36.4741 13.703L34.4395 13.0773C33.4152 12.7575 32.6574 12.2847 32.1944 11.659C31.7314 11.0472 31.4928 10.3659 31.4928 9.64292C31.4928 9.05894 31.6191 8.54448 31.8717 8.09954C32.1242 7.65461 32.461 7.26529 32.882 6.95939C33.3029 6.6396 33.78 6.40322 34.3413 6.23637C34.9025 6.06952 35.4919 6 36.1093 6C36.4179 6 36.7407 6.0139 37.0494 6.05562C37.3721 6.09733 37.6668 6.15295 37.9614 6.20856C38.2421 6.27809 38.5087 6.34761 38.7612 6.43103C39.0138 6.51446 39.2103 6.59788 39.3506 6.68131C39.547 6.79254 39.6873 6.90378 39.7715 7.02892C39.8557 7.14015 39.8978 7.2931 39.8978 7.48776V8.14126C39.8978 8.43325 39.7856 8.58619 39.5751 8.58619C39.4628 8.58619 39.2804 8.53058 39.0419 8.41934C38.2421 8.05783 37.344 7.87707 36.3478 7.87707C35.548 7.87707 34.9166 8.00221 34.4816 8.26639C34.0466 8.53058 33.8221 8.9338 33.8221 9.50387C33.8221 9.89319 33.9624 10.2269 34.243 10.4911C34.5237 10.7553 35.0428 11.0194 35.7865 11.2558L37.779 11.8815C38.7893 12.2013 39.519 12.6462 39.9539 13.2163C40.3889 13.7864 40.5994 14.4399 40.5994 15.1629C40.5994 15.7608 40.4731 16.3031 40.2346 16.7758C39.982 17.2485 39.6452 17.6657 39.2103 17.9994C38.7753 18.347 38.2561 18.5973 37.6527 18.778C37.0213 18.9727 36.3618 19.07 35.6462 19.07Z" fill="black"/>
<path fill-rule="evenodd" clip-rule="evenodd" d="M38.299 25.8278C33.6825 29.2066 26.9754 31.0002 21.2083 31.0002C13.1261 31.0002 5.84359 28.0386 0.343155 23.1165C-0.0918286 22.7272 0.30106 22.1988 0.820234 22.5047C6.76969 25.9252 14.1083 27.9969 21.6994 27.9969C26.821 27.9969 32.4478 26.9402 37.6255 24.7711C38.3972 24.4235 39.0567 25.2717 38.299 25.8278Z" fill="#FF9900"/>
<path fill-rule="evenodd" clip-rule="evenodd" d="M40.2195 23.6588C39.6302 22.9079 36.3187 23.2972 34.8173 23.478C34.3683 23.5336 34.2981 23.1443 34.705 22.8523C37.343 21.0169 41.6788 21.5453 42.1839 22.1571C42.6891 22.7828 42.0436 27.0792 39.574 29.137C39.1952 29.4568 38.8304 29.29 38.9987 28.8728C39.56 27.4963 40.8088 24.3957 40.2195 23.6588Z" fill="#FF9900"/>
</g>
<defs>
<clipPath id="clip0_2335_3299">
<rect width="42.5" height="40" fill="white" transform="translate(0 -4)"/>
</clipPath>
</defs>
</svg>
