<svg xmlns="http://www.w3.org/2000/svg" width="168.476" height="47" viewBox="92 17.5 168.476 47" fill="none">
<mask id="mask0_17400_28597" style="mask-type:alpha" maskUnits="userSpaceOnUse" x="92" y="18" width="168" height="46">
<path fill-rule="evenodd" clip-rule="evenodd" d="M104.925 23.109C100.771 23.109 97.6371 26.2558 97.6371 29.8547V33.5959C97.6371 37.1948 100.771 40.3413 104.925 40.3413C106.965 40.3413 108.385 39.7416 110.451 38.242C111.598 37.4106 113.207 37.6631 114.037 38.805C114.873 39.9467 114.616 41.5464 113.469 42.3724C110.893 44.2351 108.427 45.4453 104.92 45.4453C98.1892 45.456 92.5 40.273 92.5 33.5959V29.8547C92.5 23.1829 98.1892 18 104.925 18C108.432 18 110.898 19.2102 113.475 21.0729C114.621 21.9042 114.873 23.4986 114.043 24.6402C113.206 25.7821 111.603 26.0346 110.457 25.2033C108.39 23.709 106.965 23.1039 104.93 23.1039L104.925 23.109ZM130.153 23.109C126.115 23.109 122.839 26.3661 122.839 30.3913V33.1276C122.839 37.1528 126.115 40.4099 130.153 40.4099C134.192 40.4099 137.41 37.1686 137.41 33.1276V30.3913C137.41 26.3503 134.171 23.109 130.153 23.109ZM117.702 30.3913C117.702 23.5511 123.276 18 130.153 18C137.031 18 142.547 23.5669 142.547 30.3913V33.1276C142.547 39.952 137.047 45.5189 130.153 45.5189C123.26 45.5189 117.702 39.9678 117.702 33.1276V30.3913ZM159.578 23.2458C155.529 23.2458 152.264 26.4978 152.264 30.4968C152.264 34.4955 155.534 37.7475 159.578 37.7475C163.621 37.7475 166.834 34.5166 166.834 30.4968C166.834 26.4767 163.606 23.2458 159.578 23.2458ZM147.127 30.4968C147.127 23.6616 152.711 18.1368 159.578 18.1368C162.501 18.1368 165.172 19.1366 167.281 20.8046L169.205 18.8892C170.21 17.8894 171.834 17.8894 172.839 18.8892C173.843 19.8889 173.843 21.5042 172.839 22.5039L170.567 24.7666C171.467 26.482 171.971 28.4341 171.971 30.5019C171.971 37.3159 166.466 42.8618 159.578 42.8618C159.509 42.8618 159.441 42.8618 159.373 42.8618H153.92C153.005 42.8618 152.264 43.5984 152.264 44.5087C152.264 45.419 153.005 46.1556 153.92 46.1556H160.961H163.211C165.062 46.1556 166.981 46.6661 168.522 47.8814C170.115 49.1339 171.125 50.9912 171.303 53.2697C171.619 57.3053 168.774 60.0625 166.461 60.9517L160.025 63.7825C158.726 64.3509 157.212 63.7667 156.639 62.4778C156.065 61.1887 156.654 59.6783 157.948 59.1102L164.447 56.2531C164.494 56.232 164.547 56.2108 164.594 56.195C164.868 56.0952 165.33 55.8004 165.693 55.3112C166.03 54.8587 166.224 54.3166 166.177 53.6748C166.103 52.7382 165.746 52.2172 165.33 51.8962C164.873 51.5331 164.147 51.2702 163.206 51.2702H154.025C153.999 51.2702 153.973 51.2702 153.941 51.2702H153.91C150.161 51.2702 147.116 48.2445 147.116 44.5141C147.116 42.0937 148.394 39.9732 150.313 38.7788C148.325 36.5897 147.116 33.6907 147.116 30.5072L147.127 30.4968ZM188.834 23.2458C184.811 23.2458 181.546 26.4925 181.546 30.4968V42.9617C181.546 44.3719 180.395 45.5189 178.98 45.5189C177.566 45.5189 176.414 44.3772 176.414 42.9617V30.4968C176.414 23.6721 181.977 18.1368 188.839 18.1368C195.701 18.1368 201.264 23.6721 201.264 30.4968V42.9617C201.264 44.3719 200.113 45.5189 198.698 45.5189C197.284 45.5189 196.132 44.3772 196.132 42.9617V30.4968C196.132 26.4925 192.872 23.2458 188.844 23.2458H188.834ZM219.131 23.2512C214.993 23.2512 211.675 26.5556 211.675 30.5862V33.217C211.675 37.2476 214.993 40.5518 219.131 40.5518C220.567 40.5518 221.892 40.152 223.012 39.468C224.221 38.7314 225.804 39.1049 226.545 40.3097C227.287 41.5148 226.908 43.0881 225.699 43.8246C223.79 44.9928 221.534 45.6611 219.131 45.6611C212.196 45.6611 206.538 40.11 206.538 33.217V30.5862C206.538 23.6932 212.196 18.1419 219.131 18.1419C225.062 18.1419 229.995 22.1936 231.314 27.6553L231.83 29.7915L220.882 34.2221C219.568 34.7533 218.069 34.1273 217.533 32.817C216.997 31.512 217.627 30.0178 218.942 29.4863L225.488 26.8344C224.205 24.6876 221.845 23.2458 219.121 23.2458L219.131 23.2512ZM247.288 23.2512C243.15 23.2512 239.832 26.5556 239.832 30.5862V33.217C239.832 37.2476 243.15 40.5518 247.288 40.5518C248.724 40.5518 250.049 40.152 251.169 39.468C251.732 39.126 252.247 38.7102 252.694 38.2315C253.667 37.2002 255.291 37.1528 256.322 38.1156C257.358 39.0787 257.41 40.6993 256.438 41.7253C255.675 42.5304 254.808 43.2407 253.85 43.8246C251.937 44.9928 249.686 45.6611 247.278 45.6611C240.342 45.6611 234.685 40.11 234.685 33.217V30.5862C234.685 23.6932 240.342 18.1419 247.278 18.1419C253.209 18.1419 258.141 22.1936 259.461 27.6553L259.976 29.7915L249.029 34.2221C247.714 34.7533 246.216 34.1273 245.68 32.817C245.143 31.512 245.774 30.0178 247.089 29.4863L253.635 26.8344C252.352 24.6876 249.991 23.2458 247.268 23.2458L247.288 23.2512Z" fill="#6510F4" />
</mask>
<g mask="url(#mask0_17400_28597)">
<path d="M325.905 -43.8506H26.0361V106.352H325.905V-43.8506Z" fill="#6510F4" />
</g>
</svg>
