<svg xmlns="http://www.w3.org/2000/svg" width="187.672" height="49" viewBox="87 7.5 187.672 49" fill="none">
<path d="M154.46 41.8667C153.329 41.894 152.206 41.6689 151.172 41.2076C150.139 40.7463 149.222 40.0605 148.487 39.2C146.928 37.4076 146.1 35.0946 146.167 32.72C146.085 30.3375 146.909 28.0125 148.473 26.2133C149.209 25.3536 150.126 24.6683 151.16 24.2071C152.193 23.7458 153.316 23.5203 154.447 23.5467C155.468 23.4937 156.487 23.6892 157.415 24.1165C158.344 24.5438 159.156 25.1901 159.78 26V16.5333C159.769 16.4607 159.775 16.3864 159.797 16.3165C159.82 16.2466 159.859 16.183 159.911 16.131C159.963 16.0791 160.027 16.0401 160.096 16.0173C160.166 15.9945 160.241 15.9886 160.313 16H164.193C164.266 15.9886 164.34 15.9945 164.41 16.0173C164.48 16.0401 164.544 16.0791 164.596 16.131C164.648 16.183 164.687 16.2466 164.709 16.3165C164.732 16.3864 164.738 16.4607 164.727 16.5333V40.9067C164.727 41.2667 164.54 41.44 164.153 41.44H160.753C160.681 41.4514 160.606 41.4455 160.536 41.4227C160.467 41.3999 160.403 41.3609 160.351 41.309C160.299 41.257 160.26 41.1934 160.237 41.1235C160.215 41.0536 160.209 40.9793 160.22 40.9067L160.153 38.9867C159.535 39.919 158.686 40.6746 157.687 41.1795C156.689 41.6844 155.577 41.9212 154.46 41.8667ZM152.247 36.1067C152.666 36.5396 153.17 36.8814 153.728 37.1108C154.285 37.3403 154.884 37.4523 155.487 37.44C156.08 37.4562 156.67 37.3457 157.217 37.1157C157.764 36.8858 158.256 36.5418 158.66 36.1067C159.462 35.1603 159.901 33.9602 159.901 32.72C159.901 31.4798 159.462 30.2797 158.66 29.3333C158.257 28.8975 157.765 28.553 157.218 28.3231C156.67 28.0931 156.08 27.9829 155.487 28C154.883 27.9836 154.283 28.0938 153.725 28.3235C153.167 28.5531 152.664 28.8971 152.247 29.3333C151.808 29.7704 151.463 30.2929 151.233 30.8685C151.004 31.4441 150.895 32.0607 150.913 32.68C150.887 33.3122 150.992 33.9431 151.222 34.5328C151.451 35.1225 151.8 35.6584 152.247 36.1067Z" fill="black" />
<path d="M177.527 41.8667C176.255 41.9075 174.989 41.6925 173.803 41.2344C172.616 40.7763 171.534 40.0845 170.62 39.2C169.739 38.3337 169.046 37.2939 168.587 36.1464C168.128 34.9989 167.912 33.7686 167.953 32.5333C167.913 31.3412 168.113 30.1532 168.541 29.04C168.97 27.9267 169.618 26.911 170.447 26.0533C171.284 25.1896 172.294 24.5117 173.41 24.0638C174.526 23.6158 175.725 23.4079 176.927 23.4533C178.057 23.3974 179.187 23.5878 180.236 24.0114C181.286 24.435 182.231 25.0817 183.007 25.9067C183.775 26.7101 184.373 27.6605 184.764 28.7007C185.156 29.7409 185.334 30.8495 185.287 31.96C185.31 32.6418 185.154 33.3177 184.833 33.92C184.673 34.1573 184.453 34.3477 184.196 34.4719C183.938 34.5961 183.652 34.6495 183.367 34.6267H172.833C173.376 36.9022 175.096 38.04 177.993 38.04C179.397 38.0416 180.777 37.6737 181.993 36.9733C182.041 36.938 182.095 36.9135 182.153 36.9017C182.211 36.8899 182.271 36.891 182.328 36.905C182.385 36.9191 182.439 36.9456 182.485 36.9828C182.531 37.0199 182.568 37.0668 182.593 37.12L183.927 38.9333C184.113 39.2 184.06 39.4533 183.753 39.72C182.914 40.4801 181.93 41.0623 180.86 41.4313C179.79 41.8002 178.656 41.9483 177.527 41.8667ZM172.687 31.12H180.913C180.821 30.1139 180.343 29.1824 179.58 28.52C178.829 27.9093 177.881 27.5918 176.913 27.6267C175.9 27.5905 174.906 27.9062 174.1 28.52C173.325 29.1833 172.822 30.109 172.687 31.12Z" fill="black" />
<path d="M197.1 41.8667C195.829 41.9075 194.562 41.6925 193.376 41.2344C192.19 40.7763 191.107 40.0845 190.193 39.2C189.312 38.3337 188.62 37.2939 188.161 36.1464C187.702 34.9989 187.486 33.7686 187.527 32.5333C187.486 31.3412 187.686 30.1532 188.115 29.04C188.543 27.9267 189.191 26.911 190.02 26.0533C190.857 25.1896 191.867 24.5117 192.983 24.0638C194.1 23.6158 195.298 23.4079 196.5 23.4533C197.631 23.3974 198.76 23.5878 199.81 24.0114C200.86 24.435 201.805 25.0817 202.58 25.9067C203.343 26.7123 203.936 27.6636 204.323 28.7037C204.711 29.7438 204.884 30.8513 204.833 31.96C204.877 32.6617 204.729 33.362 204.407 33.9867C204.237 34.2159 204.009 34.3959 203.746 34.5084C203.484 34.6208 203.197 34.6616 202.913 34.6267H192.247C192.798 36.9022 194.518 38.04 197.407 38.04C198.81 38.0416 200.19 37.6737 201.407 36.9733C201.454 36.938 201.508 36.9135 201.566 36.9017C201.624 36.8899 201.684 36.891 201.741 36.905C201.799 36.9191 201.852 36.9456 201.898 36.9828C201.944 37.0199 201.981 37.0668 202.007 37.12L203.34 38.9333C203.527 39.2 203.473 39.4533 203.167 39.72C202.347 40.4602 201.389 41.031 200.348 41.3994C199.307 41.7678 198.203 41.9266 197.1 41.8667ZM192.26 31.12H200.487C200.394 30.1139 199.916 29.1824 199.153 28.52C198.402 27.9093 197.454 27.5918 196.487 27.6267C195.474 27.5905 194.48 27.9062 193.673 28.52C192.894 29.1801 192.39 30.1074 192.26 31.12Z" fill="black" />
<path d="M208.513 49.2933C208.441 49.3047 208.366 49.2988 208.296 49.276C208.227 49.2532 208.163 49.2143 208.111 49.1623C208.059 49.1103 208.02 49.0468 207.997 48.9768C207.975 48.9069 207.969 48.8326 207.98 48.76V24.5467C207.969 24.474 207.975 24.3997 207.997 24.3298C208.02 24.2599 208.059 24.1964 208.111 24.1444C208.163 24.0924 208.227 24.0534 208.296 24.0306C208.366 24.0079 208.441 24.0019 208.513 24.0133H212.033C212.106 24.0019 212.18 24.0079 212.25 24.0306C212.32 24.0534 212.384 24.0924 212.436 24.1444C212.488 24.1964 212.527 24.2599 212.549 24.3298C212.572 24.3997 212.578 24.474 212.567 24.5467V26.4667C213.174 25.5238 214.021 24.7598 215.022 24.2536C216.023 23.7474 217.141 23.5171 218.26 23.5867C219.387 23.5623 220.505 23.789 221.534 24.2502C222.562 24.7114 223.475 25.3957 224.207 26.2533C225.772 28.0518 226.596 30.3773 226.513 32.76C226.594 35.1545 225.771 37.4918 224.207 39.3067C223.475 40.1643 222.562 40.8486 221.534 41.3098C220.505 41.771 219.387 41.9976 218.26 41.9733C217.224 42.0246 216.19 41.8247 215.248 41.3906C214.305 40.9564 213.481 40.301 212.847 39.48V48.8933C212.858 48.966 212.852 49.0403 212.829 49.1102C212.807 49.1801 212.768 49.2436 212.716 49.2956C212.664 49.3476 212.6 49.3866 212.53 49.4094C212.46 49.4321 212.386 49.4381 212.313 49.4267H208.447L208.513 49.2933ZM217.3 37.2933C217.897 37.3082 218.491 37.1972 219.042 36.9675C219.593 36.7377 220.09 36.3945 220.5 35.96C220.942 35.5163 221.288 34.987 221.517 34.4046C221.746 33.8221 221.854 33.1989 221.833 32.5733C221.852 31.954 221.743 31.3375 221.513 30.7619C221.284 30.1863 220.939 29.6638 220.5 29.2267C220.093 28.7888 219.596 28.4432 219.044 28.2132C218.492 27.9832 217.898 27.8742 217.3 27.8933C216.697 27.8761 216.096 27.9859 215.538 28.2156C214.98 28.4453 214.476 28.7898 214.06 29.2267C213.276 30.181 212.847 31.378 212.847 32.6133C212.847 33.8487 213.276 35.0457 214.06 36C214.472 36.4465 214.973 36.8009 215.532 37.0399C216.09 37.2789 216.693 37.3971 217.3 37.3867V37.2933Z" fill="black" />
<path d="M235.367 41.8667C234.13 41.9172 232.898 41.6839 231.766 41.1847C230.633 40.6855 229.63 39.9336 228.833 38.9867C228.62 38.72 228.647 38.3867 228.833 37.96L230.073 36.2133C230.113 36.1345 230.171 36.0662 230.242 36.014C230.313 35.9617 230.396 35.9271 230.483 35.9128C230.57 35.8985 230.659 35.9049 230.743 35.9317C230.827 35.9584 230.904 36.0047 230.967 36.0667C232.084 37.0474 233.485 37.6454 234.967 37.7733C236.3 37.7733 236.927 37.2933 236.927 36.32C236.93 36.1327 236.893 35.9468 236.82 35.7745C236.746 35.6022 236.637 35.4474 236.5 35.32C236.107 34.972 235.656 34.6966 235.167 34.5067L232.967 33.6133C230.433 32.6133 229.153 31.0267 229.153 28.84C229.126 28.1042 229.274 27.3725 229.584 26.7049C229.895 26.0374 230.36 25.4531 230.94 25C232.165 24.0356 233.688 23.5308 235.247 23.5733C236.359 23.5418 237.464 23.7659 238.476 24.2281C239.489 24.6904 240.382 25.3787 241.087 26.24C241.181 26.3413 241.234 26.4747 241.234 26.6133C241.234 26.752 241.181 26.8854 241.087 26.9867L239.5 28.8667C239.287 29.1333 239.02 29.1333 238.687 28.8667C237.831 28.0264 236.708 27.5123 235.513 27.4133C235.066 27.3834 234.624 27.5213 234.273 27.8C234.136 27.9274 234.027 28.0822 233.953 28.2545C233.88 28.4268 233.844 28.6127 233.847 28.8C233.847 29.5333 234.407 30.1333 235.513 30.5067L237.967 31.4667C240.633 32.5333 241.94 34.2178 241.887 36.52C241.914 37.2924 241.754 38.0599 241.42 38.7566C241.085 39.4534 240.587 40.0585 239.967 40.52C238.621 41.4577 237.006 41.9305 235.367 41.8667Z" fill="black" />
<path d="M253.74 41.8667C252.469 41.9075 251.202 41.6925 250.016 41.2344C248.83 40.7763 247.747 40.0845 246.833 39.2C245.952 38.3337 245.26 37.2939 244.801 36.1464C244.342 34.9989 244.126 33.7686 244.167 32.5333C244.126 31.3412 244.326 30.1532 244.755 29.04C245.183 27.9267 245.831 26.911 246.66 26.0533C247.498 25.1903 248.507 24.5129 249.624 24.065C250.74 23.6171 251.938 23.4087 253.14 23.4533C254.271 23.3974 255.4 23.5878 256.45 24.0114C257.5 24.435 258.445 25.0817 259.22 25.9067C259.988 26.7101 260.586 27.6605 260.978 28.7007C261.37 29.7409 261.547 30.8495 261.5 31.96C261.543 32.6617 261.396 33.362 261.073 33.9867C260.903 34.2159 260.675 34.3959 260.413 34.5084C260.151 34.6208 259.863 34.6616 259.58 34.6267H248.98C249.531 36.9022 251.251 38.04 254.14 38.04C255.544 38.0416 256.923 37.6737 258.14 36.9733C258.187 36.938 258.242 36.9135 258.3 36.9017C258.357 36.8899 258.417 36.891 258.475 36.905C258.532 36.9191 258.586 36.9456 258.631 36.9828C258.677 37.0199 258.714 37.0668 258.74 37.12L260.073 38.9333C260.26 39.2 260.207 39.4533 259.9 39.72C259.069 40.4718 258.096 41.0491 257.038 41.4179C255.98 41.7866 254.858 41.9392 253.74 41.8667ZM248.9 31.12H257.127C257.034 30.1139 256.556 29.1824 255.793 28.52C255.042 27.9093 254.094 27.5918 253.127 27.6267C252.114 27.5905 251.12 27.9062 250.313 28.52C249.534 29.1801 249.03 30.1074 248.9 31.12Z" fill="black" />
<path d="M271.207 41.8667C269.832 41.9239 268.482 41.4942 267.393 40.6533C266.874 40.1585 266.473 39.5523 266.221 38.8803C265.969 38.2082 265.873 37.4879 265.94 36.7733V27.8H263.74C263.667 27.8114 263.593 27.8055 263.523 27.7827C263.453 27.7599 263.39 27.7209 263.338 27.669C263.286 27.617 263.247 27.5534 263.224 27.4835C263.201 27.4136 263.195 27.3393 263.207 27.2667V24.52C263.195 24.4474 263.201 24.3731 263.224 24.3032C263.247 24.2332 263.286 24.1697 263.338 24.1177C263.39 24.0657 263.453 24.0268 263.523 24.004C263.593 23.9812 263.667 23.9753 263.74 23.9867H265.94V19.96C265.929 19.8874 265.935 19.8131 265.957 19.7432C265.98 19.6732 266.019 19.6097 266.071 19.5577C266.123 19.5057 266.187 19.4668 266.256 19.444C266.326 19.4212 266.401 19.4153 266.473 19.4267H270.353C270.426 19.4153 270.5 19.4212 270.57 19.444C270.64 19.4668 270.704 19.5057 270.756 19.5577C270.808 19.6097 270.847 19.6732 270.869 19.7432C270.892 19.8131 270.898 19.8874 270.887 19.96V23.96H273.633C273.706 23.9486 273.78 23.9545 273.85 23.9773C273.92 24.0001 273.984 24.0391 274.036 24.091C274.088 24.143 274.127 24.2066 274.149 24.2765C274.172 24.3464 274.178 24.4207 274.167 24.4933V27.2933C274.178 27.366 274.172 27.4403 274.149 27.5102C274.127 27.5801 274.088 27.6436 274.036 27.6956C273.984 27.7476 273.92 27.7866 273.85 27.8094C273.78 27.8321 273.706 27.8381 273.633 27.8267H270.887V36.2667C270.852 36.4758 270.868 36.6902 270.933 36.8921C270.997 37.094 271.109 37.2775 271.259 37.4274C271.409 37.5773 271.593 37.6893 271.795 37.7541C271.996 37.8189 272.211 37.8347 272.42 37.8C272.873 37.8 273.233 37.8 273.527 37.8C273.82 37.8 274.167 37.92 274.167 38.2933V40.96C274.167 41.5333 273.18 41.8667 271.207 41.8667Z" fill="black" />
<path d="M117.567 42.6267H114.767C114.688 42.6267 114.61 42.6111 114.537 42.581C114.464 42.5508 114.398 42.5066 114.342 42.4509C114.287 42.3952 114.242 42.3291 114.212 42.2563C114.182 42.1835 114.167 42.1055 114.167 42.0267V34.96C114.167 34.8716 114.132 34.7868 114.069 34.7243C114.007 34.6618 113.922 34.6267 113.833 34.6267H88.1C87.9409 34.6267 87.7883 34.5635 87.6757 34.4509C87.5632 34.3384 87.5 34.1858 87.5 34.0267V8.6C87.5 8.44087 87.5632 8.28826 87.6757 8.17574C87.7883 8.06321 87.9409 8 88.1 8H117.567C117.645 8 117.723 8.01552 117.796 8.04567C117.869 8.07582 117.935 8.12002 117.991 8.17574C118.047 8.23145 118.091 8.29759 118.121 8.37039C118.151 8.44318 118.167 8.52121 118.167 8.6V30.3333C118.167 30.4217 118.202 30.5065 118.264 30.569C118.327 30.6315 118.412 30.6667 118.5 30.6667H138.9C138.979 30.6667 139.057 30.6822 139.13 30.7123C139.202 30.7425 139.269 30.7867 139.324 30.8424C139.38 30.8981 139.424 30.9643 139.454 31.0371C139.484 31.1099 139.5 31.1879 139.5 31.2667V34.0667C139.5 34.2258 139.437 34.3784 139.324 34.4909C139.212 34.6035 139.059 34.6667 138.9 34.6667H118.5C118.412 34.6667 118.327 34.7018 118.264 34.7643C118.202 34.8268 118.167 34.9116 118.167 35V42.0667C118.156 42.2188 118.089 42.3613 117.977 42.4653C117.866 42.5693 117.719 42.627 117.567 42.6267ZM91.7667 30.6267H113.9C113.971 30.6267 114.039 30.5986 114.089 30.5486C114.139 30.4986 114.167 30.4307 114.167 30.36V12.2667C114.167 12.1959 114.139 12.1281 114.089 12.0781C114.039 12.0281 113.971 12 113.9 12H91.7667C91.6959 12 91.6281 12.0281 91.5781 12.0781C91.5281 12.1281 91.5 12.1959 91.5 12.2667V30.4C91.5096 30.4636 91.5419 30.5215 91.5909 30.5632C91.6399 30.6049 91.7024 30.6274 91.7667 30.6267Z" fill="black" />
<path d="M116.167 56C118.744 56 120.833 53.9107 120.833 51.3333C120.833 48.756 118.744 46.6667 116.167 46.6667C113.589 46.6667 111.5 48.756 111.5 51.3333C111.5 53.9107 113.589 56 116.167 56Z" fill="black" />
</svg>
