<svg xmlns="http://www.w3.org/2000/svg" width="335.949" height="49" viewBox="11 7.5 335.949 49" fill="none">
<path fill-rule="evenodd" clip-rule="evenodd" d="M20.0842 24.7445C19.429 16.4742 25.5537 8 35.7997 8C39.1944 8 42.7696 8.86307 45.7702 10.2857C53.9176 14.1268 59.5533 22.4066 59.5533 31.9953C59.5533 40.8583 54.739 48.6023 47.5649 52.7564C51.0261 49.3657 53.0772 44.5003 52.6451 39.1085C51.9472 30.2928 43.6242 23.118 36.075 23.118C29.0529 23.118 26.3039 29.2401 26.9828 33.3989C27.2392 34.9591 27.9134 36.3817 28.8915 37.5436C27.6238 36.8654 26.3989 35.9929 25.2689 34.9449C22.2255 32.1138 20.3833 28.4908 20.0842 24.7445ZM50.9692 39.2555C51.6244 47.5258 45.4996 56 35.2537 56C31.8589 56 28.2838 55.1369 25.2831 53.7143C17.1357 49.8732 11.5 41.5934 11.5 32.0048C11.5 23.1417 16.3144 15.3977 23.4884 11.2436C20.0272 14.6343 17.9761 19.4997 18.4082 24.8915C19.1061 33.7072 27.4291 40.882 34.9783 40.882C42.0004 40.882 44.7494 34.7599 44.0705 30.6011C43.8141 29.0409 43.1399 27.6183 42.1666 26.4564C43.4343 27.1346 44.6592 28.0071 45.7892 29.0551C48.8326 31.8862 50.6748 35.5139 50.9692 39.2555ZM85.8139 34.5987V30.7765H98.6284C98.7613 31.4499 98.8373 32.2513 98.8373 33.1191C98.8373 35.9881 98.0492 39.5353 95.5233 42.0628C93.0639 44.6236 89.9208 45.9893 85.7474 45.9893C78.0226 45.9893 71.5322 39.706 71.5322 31.9905C71.5322 24.2751 78.0273 17.9917 85.7474 17.9917C90.0205 17.9917 93.0591 19.6657 95.3523 21.8518L92.6508 24.5501C91.008 23.0136 88.7908 21.8186 85.7474 21.8186C80.1069 21.8186 75.7009 26.3568 75.7009 31.9953C75.7009 37.6289 80.1117 42.1719 85.7474 42.1719C89.4033 42.1719 91.4876 40.7018 92.8217 39.374C93.909 38.2881 94.6212 36.7327 94.9013 34.6082L85.8139 34.5987ZM109.306 45.9893C114.296 45.9893 118.361 42.1672 118.361 36.9745C118.361 31.7487 114.292 27.9597 109.306 27.9597C104.316 27.9597 100.252 31.7819 100.252 36.9745C100.252 42.1672 104.316 45.9893 109.306 45.9893ZM109.306 31.5163C112.041 31.5163 114.396 33.7356 114.396 36.9793C114.396 40.1897 112.041 42.4422 109.306 42.4422C106.572 42.4422 104.212 40.2229 104.212 36.9793C104.217 33.7356 106.572 31.5163 109.306 31.5163ZM138.121 36.9793C138.121 42.1672 134.052 45.9941 129.062 45.9941C124.072 45.9941 120.008 42.1719 120.008 36.9793C120.008 31.7866 124.077 27.9644 129.062 27.9644C134.052 27.9644 138.121 31.7534 138.121 36.9793ZM134.157 36.9793C134.157 33.7356 131.802 31.5163 129.067 31.5163C126.332 31.5163 123.973 33.7356 123.973 36.9793C123.973 40.2229 126.332 42.4422 129.067 42.4422C131.797 42.4422 134.157 40.1849 134.157 36.9793ZM157.056 44.6947V28.5098H153.296V29.9798H153.158C152.27 28.9223 150.561 27.9644 148.405 27.9644C143.895 27.9644 139.759 31.9573 139.759 37.0125C139.759 42.0676 143.895 45.9893 148.405 45.9893C150.561 45.9893 152.27 45.0314 153.158 43.9407H153.296V45.2401C153.296 48.6876 151.449 50.5323 148.476 50.5323C146.05 50.5323 144.545 48.7919 143.933 47.3219L140.481 48.754C141.473 51.144 144.104 54.0794 148.476 54.0794C153.125 54.0842 157.056 51.3527 157.056 44.6947ZM148.752 31.5163C151.453 31.5163 153.571 33.84 153.571 37.0125C153.571 40.1518 151.487 42.4422 148.752 42.4422C146.017 42.4422 143.729 40.1897 143.729 37.0125C143.729 33.8352 146.05 31.5163 148.752 31.5163ZM163.769 19.0397V45.444H159.805V19.0397H163.769ZM182.153 41.9964L179.077 39.9478C178.051 41.4511 176.65 42.4422 174.633 42.4422C172.615 42.4422 171.181 41.5222 170.26 39.7107L182.324 34.7267L181.916 33.7024C181.166 31.687 178.839 27.9644 174.191 27.9644C169.543 27.9644 165.683 31.6159 165.683 36.9793C165.683 42.0344 169.51 45.9941 174.637 45.9941C178.768 45.9893 181.161 43.4618 182.153 41.9964ZM177.676 33.3563L169.609 36.7042C169.505 33.2235 172.311 31.4452 174.324 31.4452C175.9 31.4452 177.234 32.2324 177.676 33.3563ZM194.118 20.6283H202.037C210.769 20.6283 214.781 25.4226 214.781 33.0812C214.781 40.7066 210.769 45.4677 202.037 45.4677H194.118V20.6283ZM201.933 42.4896C208.817 42.4896 211.205 38.9378 211.205 33.0812C211.205 27.1915 208.827 23.5637 201.933 23.5637H197.631V42.4849H201.933V42.4896ZM219.875 37.4867H233.687C233.72 36.8417 233.72 36.3106 233.72 35.8127C233.72 31.2745 230.453 27.4381 225.269 27.4381C220.018 27.4381 216.428 31.1654 216.428 36.7374C216.428 42.243 220.046 45.8945 225.235 45.8945C229.385 45.8945 232.262 43.4096 233.221 40.1043H229.708C228.996 41.8447 227.438 42.9781 225.235 42.9781C222.501 42.9876 220.089 41.0717 219.875 37.4867ZM225.235 30.3592C228.003 30.3592 230.097 32.1328 230.24 35.0065H219.942C220.34 31.9573 222.61 30.3592 225.235 30.3592ZM252.825 37.4867H239.014C239.232 41.0717 241.639 42.9875 244.374 42.9875C246.577 42.9875 248.134 41.8542 248.847 40.1138H252.36C251.401 43.4191 248.524 45.904 244.374 45.904C239.189 45.904 235.567 42.2525 235.567 36.7469C235.567 31.1749 239.156 27.4475 244.407 27.4475C249.592 27.4475 252.859 31.2839 252.859 35.8222C252.859 36.3106 252.859 36.8417 252.825 37.4867ZM249.378 35.0018C249.236 32.128 247.142 30.3545 244.374 30.3545C241.749 30.3545 239.479 31.9526 239.08 35.0018H249.378ZM258.11 27.8648H254.952V53.278H258.466V42.703C259.677 44.7327 261.87 45.8992 264.681 45.8992C269.861 45.8992 273.412 42.0296 273.412 36.709C273.412 31.3883 269.856 27.4428 264.714 27.4428C261.557 27.4428 259.567 28.965 258.466 30.6722L258.11 27.8648ZM264.149 30.492C267.487 30.492 269.832 33.0196 269.832 36.671C269.832 40.3652 267.487 42.85 264.149 42.85C260.845 42.85 258.466 40.3652 258.466 36.671C258.466 33.0101 260.845 30.492 264.149 30.492ZM300.817 20.6283V45.4724H297.304V26.7647L289.493 41.9206H286.792L278.944 26.7647V45.4724H275.43V20.6283H279.546L288.14 37.4155L296.696 20.6283H300.817ZM305.294 19.917C303.974 19.917 302.982 20.8465 302.982 22.1221C302.982 23.3977 303.974 24.3604 305.294 24.3604C306.643 24.3604 307.64 23.3977 307.64 22.1221C307.635 20.8322 306.643 19.917 305.294 19.917ZM307.065 27.8648H303.552V45.4724H307.065V27.8648ZM326.061 35.3195V45.4724H322.581V35.6752C322.581 32.1992 321.124 30.4588 318.28 30.4588C315.402 30.4588 313.309 32.5548 313.309 36.3865V45.4724H309.795V27.8648H312.919L313.166 30.952C314.301 28.7896 316.504 27.4428 319.239 27.4428C323.469 27.4428 326.061 30.0368 326.061 35.3195ZM336.692 27.3574C331.507 27.3574 327.994 31.227 327.994 36.5477C327.994 41.8684 331.517 45.8139 336.649 45.8139C339.816 45.8139 341.801 44.2916 342.935 42.5845L343.292 45.3918H346.449V19.8364H342.935V30.5536C341.739 28.5287 339.536 27.3574 336.692 27.3574ZM337.224 30.4161C340.562 30.4161 342.907 32.901 342.907 36.5951C342.907 40.2466 340.562 42.7647 337.224 42.7742C333.919 42.7742 331.541 40.2466 331.541 36.5951C331.541 32.901 333.919 30.4161 337.224 30.4161Z" fill="#0053D6" />
</svg>
