<svg width="77.5" height="22.69" viewBox="-1 4.61 77.5 22.69" fill="none" xmlns="http://www.w3.org/2000/svg">
<g clip-path="url(#clip0_2335_72)">
<path d="M7.78509 8.70005V14.8164H2.16595V8.70005H-0.5V23.3007H2.16667V17.3828H7.78437V23.3007H10.4518V8.70005H7.78509ZM18.9873 18.5815C18.9873 19.1668 18.7548 19.728 18.341 20.1418C17.9272 20.5556 17.3659 20.7881 16.7807 20.7881C16.1955 20.7881 15.6342 20.5556 15.2204 20.1418C14.8066 19.728 14.5741 19.1668 14.5741 18.5815V12.3273H12.0446V18.5815C12.0446 19.8364 12.543 21.0399 13.4304 21.9272C14.3177 22.8145 15.5212 23.313 16.776 23.313C18.0309 23.313 19.2343 22.8145 20.1217 21.9272C21.009 21.0399 21.5075 19.8364 21.5075 18.5815V12.3273H18.9873V18.5815ZM37.7305 12.9718C37.7305 11.6893 38.5785 11.283 39.5073 11.283C40.2565 11.283 41.2452 11.8531 41.8925 12.5445L43.5488 10.5916C42.7218 9.47299 41.0446 8.70005 39.6712 8.70005C36.9265 8.70005 34.9419 10.3073 34.9419 12.9718C34.9419 17.9154 40.9839 16.3464 40.9839 19.1134C40.9839 19.9665 40.1554 20.7199 39.2071 20.7199C37.711 20.7199 37.226 19.9888 36.539 19.2152L34.7001 21.127C35.8765 22.5704 37.3271 23.3036 39.0642 23.3036C41.6717 23.3036 43.769 21.6769 43.769 19.1336C43.769 13.6458 37.7262 15.3512 37.7262 12.9718M75.1101 20.9682C73.6155 20.9682 73.1904 20.3216 73.1904 19.3314V14.9471H75.5143V12.7257H73.1904V9.79486L70.6255 10.946V19.8763C70.6255 22.1604 72.2017 23.3115 74.3625 23.3115C74.7017 23.3173 75.0409 23.2899 75.3743 23.2307L76 20.9271C75.7178 20.9465 75.3938 20.966 75.1101 20.966M28.6162 12.4002C27.3633 12.4002 26.4886 12.7639 25.6428 13.5932V8.78737H23.1096V17.6953C23.1096 21.0295 25.5201 23.3144 28.2294 23.3144C31.2345 23.3144 33.8781 20.9891 33.8781 17.8584C33.8781 14.7666 31.4452 12.4024 28.6162 12.4024M28.6003 20.7647C28.2228 20.7647 27.8489 20.6903 27.5001 20.5458C27.1513 20.4014 26.8344 20.1896 26.5675 19.9226C26.3005 19.6557 26.0887 19.3388 25.9443 18.99C25.7998 18.6412 25.7254 18.2673 25.7254 17.8898C25.7254 17.5123 25.7998 17.1384 25.9443 16.7896C26.0887 16.4408 26.3005 16.1239 26.5675 15.8569C26.8344 15.59 27.1513 15.3782 27.5001 15.2337C27.8489 15.0893 28.2228 15.0149 28.6003 15.0149C29.3628 15.0149 30.094 15.3178 30.6332 15.8569C31.1723 16.3961 31.4752 17.1273 31.4752 17.8898C31.4752 18.6523 31.1723 19.3835 30.6332 19.9226C30.094 20.4618 29.3628 20.7647 28.6003 20.7647ZM56.1273 17.7256C56.1273 14.5891 53.4895 12.2696 50.4786 12.2696C47.7701 12.2696 45.3589 14.5537 45.3589 17.8887V26.8017H47.892V21.9894C48.7364 22.8172 49.6125 23.1824 50.864 23.1824C53.693 23.1824 56.1273 20.8181 56.1273 17.7256ZM53.7284 17.6938C53.7284 18.4563 53.4255 19.1876 52.8864 19.7267C52.3472 20.2658 51.616 20.5687 50.8535 20.5687C50.091 20.5687 49.3598 20.2658 48.8207 19.7267C48.2815 19.1876 47.9786 18.4563 47.9786 17.6938C47.9786 16.9314 48.2815 16.2001 48.8207 15.661C49.3598 15.1219 50.091 14.819 50.8535 14.819C51.616 14.819 52.3472 15.1219 52.8864 15.661C53.4255 16.2001 53.7284 16.9314 53.7284 17.6938Z" fill="#FE4802"/>
<path d="M64.3135 12.1469V9.60146C64.6498 9.44425 64.9347 9.19474 65.1347 8.88197C65.3348 8.5692 65.4419 8.20603 65.4437 7.83474V7.77628C65.4437 6.69374 64.5661 5.81615 63.4835 5.81615H63.4251C62.9052 5.81615 62.4066 6.02266 62.039 6.39026C61.6714 6.75786 61.4649 7.25642 61.4649 7.77628V7.83474C61.4666 8.20603 61.5738 8.5692 61.7739 8.88197C61.9739 9.19474 62.2587 9.44425 62.5951 9.60146V12.1469C61.6284 12.2949 60.7179 12.6958 59.9559 13.3088L52.9749 7.87155C53.0247 7.69184 53.0507 7.50709 53.0535 7.32161C53.0544 6.88477 52.9257 6.45749 52.6837 6.09382C52.4417 5.73014 52.0972 5.44641 51.6939 5.27851C51.2906 5.11062 50.8466 5.0661 50.418 5.15059C49.9894 5.23507 49.5955 5.44477 49.2861 5.75316C48.9767 6.06155 48.7657 6.45477 48.6799 6.88308C48.594 7.3114 48.637 7.75556 48.8036 8.1594C48.9702 8.56323 49.2528 8.90859 49.6157 9.15179C49.9786 9.39499 50.4054 9.52511 50.8423 9.52568C51.2244 9.52388 51.5995 9.42185 51.9299 9.22978L58.804 14.579C58.1865 15.5119 57.8643 16.6092 57.8795 17.7279C57.8947 18.8466 58.2466 19.9348 58.8892 20.8506L56.7984 22.942C56.6294 22.888 56.4533 22.8593 56.2759 22.8569C55.9173 22.8572 55.5669 22.9637 55.2689 23.1631C54.9708 23.3625 54.7386 23.6458 54.6015 23.9771C54.4644 24.3085 54.4286 24.673 54.4987 25.0247C54.5687 25.3764 54.7414 25.6994 54.9949 25.9529C55.2485 26.2065 55.5715 26.3792 55.9232 26.4492C56.2749 26.5192 56.6394 26.4835 56.9707 26.3464C57.3021 26.2093 57.5854 25.977 57.7847 25.679C57.9841 25.381 58.0907 25.0305 58.091 24.672C58.0887 24.4945 58.06 24.3184 58.0058 24.1494L60.0742 22.0803C60.7487 22.5996 61.5331 22.9576 62.3673 23.1269C63.2015 23.2962 64.0634 23.2723 64.887 23.057C65.7105 22.8417 66.4739 22.4408 67.1185 21.885C67.7632 21.3291 68.2721 20.6331 68.6062 19.8502C68.9403 19.0673 69.0908 18.2183 69.0461 17.3682C69.0014 16.5182 68.7628 15.6897 68.3484 14.9461C67.9341 14.2025 67.355 13.5637 66.6556 13.0785C65.9562 12.5933 65.1551 12.2746 64.3135 12.1469ZM63.4561 20.5186C63.0738 20.5291 62.6933 20.4629 62.3371 20.3239C61.9809 20.1849 61.6561 19.9758 61.382 19.7092C61.1079 19.4425 60.89 19.1236 60.7413 18.7713C60.5925 18.4191 60.5159 18.0405 60.5159 17.6581C60.5159 17.2757 60.5925 16.8972 60.7413 16.5449C60.89 16.1926 61.1079 15.8737 61.382 15.6071C61.6561 15.3404 61.9809 15.1314 62.3371 14.9924C62.6933 14.8534 63.0738 14.7872 63.4561 14.7977C64.197 14.8236 64.8989 15.1361 65.414 15.6693C65.929 16.2024 66.2171 16.9147 66.2175 17.656C66.2179 18.3974 65.9305 19.1099 65.416 19.6436C64.9014 20.1773 64.1998 20.4904 63.459 20.5171" fill="#FE4802"/>
</g>
<defs>
<clipPath id="clip0_2335_72">
<rect width="76.5" height="32" fill="white"/>
</clipPath>
</defs>
</svg>
