<svg xmlns="http://www.w3.org/2000/svg" width="312.13" height="49" viewBox="24 7.5 312.13 49" fill="none">
<path fill-rule="evenodd" clip-rule="evenodd" d="M48.215 8H94.115C107.195 8 117.83 18.68 117.83 31.805C117.83 44.93 107.195 55.61 94.115 55.61H48.215C35.135 55.595 24.5 44.915 24.5 31.805C24.5 18.695 35.135 8 48.215 8ZM69.29 44.885C69.86 45.485 70.715 45.455 71.48 45.305C71.825 45.02 71.33 44.66 70.85 44.315C70.565 44.105 70.28 43.91 70.205 43.73C70.475 43.415 69.695 42.68 69.08 42.11C68.825 41.87 68.6 41.66 68.495 41.525C68.06 41.06 67.895 40.46 67.715 39.86C67.595 39.47 67.49 39.065 67.295 38.705C66.11 35.945 64.745 33.215 62.84 30.89C61.61 29.345 60.215 27.95 58.82 26.57C57.92 25.67 57.02 24.785 56.165 23.84C55.28 22.925 54.755 21.815 54.23 20.69C53.78 19.745 53.345 18.815 52.685 17.99C50.72 15.065 44.495 14.27 43.58 18.395C43.58 18.515 43.55 18.605 43.43 18.68C42.92 19.055 42.47 19.475 42.095 19.985C41.165 21.275 41.03 23.465 42.185 24.62C42.185 24.59 42.185 24.575 42.185 24.545C42.23 23.96 42.26 23.405 42.725 22.985C43.61 23.75 44.96 24.02 45.995 23.45C47.24 25.235 47.63 27.395 48.035 29.555C48.365 31.355 48.695 33.17 49.52 34.775C49.535 34.805 49.55 34.835 49.565 34.865C50.045 35.675 50.54 36.485 51.17 37.19C51.395 37.535 51.86 37.925 52.325 38.3C52.94 38.795 53.54 39.29 53.6 39.725C53.6 39.905 53.6 40.1 53.6 40.295C53.6 41.42 53.6 42.59 54.32 43.52C54.725 44.33 53.735 45.14 52.955 45.05C52.52 45.11 52.055 44.99 51.575 44.885C50.93 44.735 50.3 44.57 49.775 44.885C49.625 45.035 49.415 45.05 49.205 45.05C48.95 45.05 48.71 45.05 48.56 45.32C48.53 45.395 48.455 45.485 48.38 45.575C48.215 45.77 48.035 45.995 48.245 46.16C48.26 46.16 48.29 46.13 48.305 46.115C48.62 45.875 48.935 45.635 49.355 45.785C49.295 46.1 49.505 46.19 49.715 46.28C49.745 46.28 49.79 46.31 49.82 46.325C49.82 46.4 49.805 46.475 49.79 46.55C49.76 46.73 49.715 46.895 49.865 47.06C49.925 47 49.985 46.925 50.045 46.85C50.18 46.67 50.33 46.49 50.585 46.415C51.14 47.165 51.71 46.85 52.415 46.46C53.21 46.025 54.2 45.485 55.565 46.25C55.04 46.22 54.575 46.28 54.215 46.715C54.125 46.805 54.05 46.925 54.215 47.045C55.025 46.52 55.355 46.715 55.67 46.88C55.895 47.015 56.12 47.135 56.495 46.97C56.585 46.925 56.675 46.88 56.765 46.82C57.365 46.49 57.98 46.16 58.715 46.28C58.175 46.43 57.98 46.775 57.77 47.15C57.665 47.33 57.56 47.525 57.41 47.705C57.335 47.78 57.29 47.885 57.38 48.02C58.505 47.93 58.925 47.645 59.51 47.255C59.78 47.075 60.095 46.865 60.53 46.64C61.01 46.34 61.49 46.535 61.955 46.715C62.465 46.91 62.945 47.105 63.395 46.67C63.545 46.535 63.71 46.535 63.89 46.535C63.95 46.535 64.025 46.535 64.085 46.535C63.95 45.785 63.155 45.785 62.345 45.8C61.415 45.8 60.47 45.815 60.5 44.66C61.37 44.075 61.37 43.04 61.385 42.08C61.385 41.84 61.385 41.615 61.4 41.39C62.03 41.75 62.705 42.02 63.38 42.29C64.01 42.545 64.64 42.8 65.225 43.13C65.84 44.12 66.8 45.425 68.075 45.335C68.105 45.23 68.135 45.155 68.18 45.05C68.255 45.05 68.33 45.08 68.405 45.095C68.735 45.185 69.095 45.275 69.275 44.87L69.29 44.885ZM94.295 33.665C95.03 34.4 96.035 34.82 97.085 34.82C98.135 34.82 99.125 34.4 99.875 33.665C100.61 32.93 101.03 31.925 101.03 30.89C101.03 29.855 100.61 28.85 99.875 28.115C99.14 27.38 98.135 26.96 97.085 26.96C96.59 26.96 96.11 27.05 95.675 27.23L93.425 23.93L91.85 25.01L94.115 28.325C93.5 29.03 93.155 29.945 93.155 30.89C93.155 31.925 93.575 32.93 94.31 33.665H94.295ZM87.215 23C87.77 23.27 88.37 23.42 89 23.405C89.84 23.405 90.665 23.12 91.325 22.625C92 22.115 92.495 21.41 92.735 20.615C92.975 19.805 92.96 18.95 92.675 18.155C92.39 17.36 91.865 16.685 91.16 16.22C90.65 15.875 90.065 15.665 89.45 15.575C88.835 15.5 88.22 15.575 87.635 15.77C87.05 15.98 86.525 16.325 86.105 16.76C85.685 17.21 85.37 17.75 85.19 18.335C85.01 18.92 84.98 19.55 85.085 20.15C85.19 20.75 85.445 21.335 85.805 21.815C86.18 22.31 86.66 22.7 87.215 22.985V23ZM87.215 45.815C87.77 46.085 88.37 46.235 89 46.22C89.84 46.22 90.665 45.935 91.325 45.44C92 44.93 92.495 44.225 92.735 43.43C92.975 42.62 92.96 41.765 92.675 40.97C92.39 40.175 91.865 39.5 91.16 39.035C90.65 38.69 90.065 38.48 89.45 38.39C88.835 38.315 88.22 38.39 87.635 38.585C87.05 38.795 86.525 39.14 86.105 39.575C85.685 40.025 85.37 40.565 85.19 41.15C85.01 41.735 84.98 42.365 85.085 42.965C85.19 43.565 85.445 44.15 85.805 44.63C86.18 45.125 86.66 45.515 87.215 45.8V45.815ZM90.845 31.865V29.915H84.815C84.665 29.33 84.38 28.775 83.975 28.31L86.24 24.95L84.59 23.855L82.325 27.215C81.905 27.065 81.47 26.99 81.035 26.975C80 26.975 78.995 27.38 78.26 28.115C77.525 28.85 77.105 29.84 77.105 30.875C77.105 31.91 77.525 32.9 78.26 33.635C78.995 34.37 80 34.775 81.035 34.775C81.47 34.775 81.92 34.685 82.325 34.535L84.59 37.895L86.225 36.8L83.975 33.44C84.38 32.975 84.665 32.435 84.815 31.835H90.845V31.865Z" fill="black" />
<path d="M247.64 19.4147C245.6 17.7947 242.765 16.9697 239.255 16.9697C236.72 16.9697 234.41 17.5697 232.4 18.7397C230.375 19.9247 228.77 21.6347 227.615 23.8547C226.445 26.0747 225.86 28.7747 225.86 31.8947C225.86 34.2797 226.205 36.4247 226.895 38.2697C227.585 40.1147 228.545 41.6897 229.775 42.9497C230.99 44.2097 232.43 45.1847 234.05 45.8447C235.67 46.5047 237.425 46.8347 239.27 46.8347C242.03 46.8347 244.43 46.2347 246.41 45.0497C248.39 43.8647 249.92 42.1997 250.985 40.1147C252.05 38.0147 252.59 35.5997 252.59 32.8997C252.59 32.8247 252.59 32.5697 252.575 32.1647C252.575 31.8347 252.545 31.5647 252.53 31.3547H242.555V34.8647H247.685V35.0297C247.415 36.6947 246.935 38.1197 246.23 39.2297C245.525 40.3547 244.595 41.1947 243.485 41.7497C242.375 42.3047 241.04 42.5747 239.585 42.5597C237.62 42.5297 235.97 42.0797 234.65 41.1947C233.345 40.3097 232.34 39.0647 231.695 37.4897C231.05 35.9147 230.72 34.0397 230.72 31.9247C230.72 29.8097 231.05 27.9197 231.71 26.3297C232.37 24.7397 233.36 23.4647 234.665 22.5947C235.97 21.7097 237.635 21.2747 239.585 21.3047C241.535 21.3047 243.17 21.8297 244.43 22.8647C245.66 23.8847 246.575 25.2497 247.13 26.9297L251.81 26.1947C251.075 23.3297 249.68 21.0647 247.67 19.4597L247.64 19.4147Z" fill="black" />
<path d="M308.284 25.5503C306.769 24.5453 304.999 24.0503 302.944 24.0503C300.889 24.0503 299.149 24.5453 297.754 25.5503C297.469 25.7603 297.199 25.9703 296.944 26.2103V24.6503H292.669V56.0003H297.544V45.2603C297.634 45.3203 297.724 45.3953 297.814 45.4553C299.254 46.4603 301.024 46.9553 303.139 46.9553C305.134 46.9553 306.874 46.4603 308.359 45.4553C309.844 44.4503 310.999 43.0853 311.809 41.3603C312.619 39.6353 313.039 37.6853 313.039 35.5103C313.039 33.3353 312.619 31.3553 311.794 29.6303C310.969 27.9053 309.799 26.5553 308.284 25.5503ZM307.324 39.1103C306.934 40.1903 306.319 41.0453 305.509 41.6753C304.699 42.3053 303.649 42.6203 302.389 42.6203C301.129 42.6203 300.034 42.3203 299.239 41.7203C298.444 41.1203 297.859 40.2953 297.499 39.2153C297.124 38.1503 296.944 36.9053 296.944 35.4953C296.944 34.0853 297.124 32.8253 297.499 31.7753C297.859 30.7103 298.444 29.8853 299.209 29.2853C299.989 28.6853 300.994 28.3853 302.224 28.3853C303.529 28.3853 304.594 28.7003 305.434 29.3453C306.274 29.9753 306.904 30.8453 307.309 31.9253C307.714 33.0053 307.909 34.2053 307.909 35.5103C307.909 36.8153 307.714 38.0453 307.324 39.1103Z" fill="black" />
<path d="M335.495 32.1946C335.405 31.3546 335.225 30.4696 334.925 29.5246C334.625 28.5796 334.175 27.7096 333.56 26.8696C332.945 26.0446 332.12 25.3546 331.07 24.8146C330.02 24.2746 328.7 24.0046 327.095 24.0046C325.055 24.0046 323.345 24.4546 321.95 25.3396C321.2 25.8196 320.555 26.3896 320 27.0346V17.3896H315.68V46.3246H320.585V35.1796C320.585 33.8596 320.735 32.7646 321.02 31.9096C321.32 31.0546 321.71 30.3946 322.19 29.8996C322.685 29.4046 323.225 29.0596 323.825 28.8646C324.425 28.6696 325.04 28.5646 325.655 28.5646C326.81 28.5646 327.725 28.8046 328.4 29.3146C329.075 29.8096 329.585 30.4396 329.93 31.2196C330.275 31.9846 330.485 32.7946 330.59 33.6196C330.68 34.4446 330.725 35.2096 330.725 35.8846V46.3396H335.63V34.2196C335.63 33.6946 335.585 33.0196 335.495 32.1796V32.1946Z" fill="black" />
<path d="M266.93 24.8448C266.27 24.8898 265.61 25.0098 264.98 25.2198C264.35 25.4148 263.765 25.6998 263.255 26.0448C262.64 26.4198 262.115 26.8998 261.68 27.4848C261.485 27.7398 261.32 28.0098 261.14 28.3098L260.96 28.6248V24.9198H256.925V46.1598H261.53V35.3598C261.53 34.5348 261.635 33.7548 261.83 33.0348C262.025 32.3148 262.355 31.6698 262.775 31.1148C263.195 30.5448 263.75 30.0798 264.425 29.7198C265.085 29.3148 265.865 29.0748 266.69 29.0148C267.47 28.9548 268.175 29.0148 268.79 29.1648V24.9048C268.19 24.8148 267.56 24.7848 266.93 24.8298V24.8448Z" fill="black" />
<path d="M136.865 17.375V46.235H156.74V41.87H141.38V17.375H136.865Z" fill="black" />
<path d="M167.345 24.2148C163.01 24.2148 159.77 26.2398 158.45 29.7948C158.36 30.0198 158.12 30.7098 158.12 30.7098L161.84 33.1098L162.35 31.7898C163.205 29.5398 164.81 28.5048 167.36 28.5048C169.91 28.5048 171.38 29.7498 171.35 32.1798C171.35 32.2848 171.35 32.5848 171.35 32.5848C171.35 32.5848 167.975 33.1398 166.58 33.4248C160.64 34.6848 158.15 36.9498 158.15 40.6698C158.15 42.6498 159.245 44.7948 161.255 45.9948C162.455 46.7148 164.03 46.9848 165.755 46.9848C166.895 46.9848 168.005 46.8198 169.025 46.5048C171.365 45.7248 172.01 44.2098 172.01 44.2098V46.2048H175.88V31.9698C175.88 27.1248 172.7 24.2448 167.375 24.2448L167.345 24.2148ZM171.35 39.4098C171.35 40.9098 169.715 43.0098 165.92 43.0098C164.855 43.0098 164.09 42.7248 163.58 42.3048C162.905 41.7348 162.68 40.9248 162.77 40.2048C162.815 39.8898 162.995 39.2148 163.7 38.6448C164.42 38.0448 165.68 37.6248 167.63 37.1898C169.235 36.8448 171.35 36.4548 171.35 36.4548V39.4098Z" fill="black" />
<path d="M280.445 24.2148C276.11 24.2148 272.87 26.2398 271.55 29.7948C271.46 30.0198 271.22 30.7098 271.22 30.7098L274.94 33.1098L275.45 31.7898C276.305 29.5398 277.91 28.5048 280.46 28.5048C283.01 28.5048 284.48 29.7498 284.45 32.1798C284.45 32.2848 284.45 32.5848 284.45 32.5848C284.45 32.5848 281.06 33.1398 279.68 33.4248C273.74 34.6848 271.25 36.9498 271.25 40.6698C271.25 42.6498 272.345 44.7948 274.355 45.9948C275.555 46.7148 277.13 46.9848 278.855 46.9848C279.995 46.9848 281.105 46.8198 282.125 46.5048C284.465 45.7248 285.11 44.2098 285.11 44.2098V46.2048H288.98V31.9698C288.98 27.1248 285.8 24.2448 280.475 24.2448L280.445 24.2148ZM284.45 39.4098C284.45 40.9098 282.815 43.0098 279.02 43.0098C277.955 43.0098 277.19 42.7248 276.68 42.3048C276.005 41.7348 275.78 40.9248 275.87 40.2048C275.915 39.8898 276.095 39.2148 276.8 38.6448C277.52 38.0448 278.78 37.6248 280.73 37.1898C282.335 36.8448 284.45 36.4548 284.45 36.4548V39.4098Z" fill="black" />
<path d="M190.13 24.2148C189.59 24.2148 189.065 24.2448 188.57 24.3198C185.105 24.8448 184.1 26.5998 184.1 26.5998V24.8448H179.765V46.1898H184.28V34.3548C184.28 30.3348 187.22 28.5048 189.935 28.5048C192.875 28.5048 194.315 30.0948 194.315 33.3498V46.1898H198.83V32.7198C198.83 27.4698 195.5 24.2148 190.13 24.2148Z" fill="black" />
<path d="M217.67 24.8298V27.0348C217.67 27.0348 216.56 24.2148 211.535 24.2148C205.28 24.2148 201.395 28.5348 201.395 35.4798C201.395 39.3948 202.64 42.4848 204.86 44.4348C206.585 45.9498 208.88 46.7298 211.61 46.7748C213.515 46.8048 214.745 46.2948 215.51 45.7998C216.995 44.8548 217.535 43.9698 217.535 43.9698C217.535 43.9698 217.475 44.6748 217.355 45.6198C217.28 46.3098 217.115 46.7898 217.115 46.7898C216.425 49.2348 214.415 50.6448 211.49 50.6448C208.565 50.6448 206.78 49.6848 206.435 47.7798L202.04 49.0848C202.805 52.7448 206.225 54.9198 211.22 54.9198C214.61 54.9198 217.265 54.0048 219.125 52.1748C220.985 50.3448 221.945 47.6898 221.945 44.3148V24.8148H217.67V24.8298ZM217.385 35.6748C217.385 39.9498 215.3 42.4998 211.805 42.4998C208.055 42.4998 205.91 39.9348 205.91 35.4798C205.91 31.0248 208.055 28.5048 211.805 28.5048C215.21 28.5048 217.355 31.0398 217.385 35.1348V35.6748Z" fill="black" />
</svg>
