<svg xmlns="http://www.w3.org/2000/svg" width="257.2" height="49" viewBox="48.5 7.5 257.2 49" fill="none">
<path d="M49 17.6C49 12.2981 53.3016 8 58.6078 8H87.4311C92.7373 8 97.0389 12.2981 97.0389 17.6V46.4C97.0389 51.702 92.7373 56 87.4311 56H58.6078C53.3015 56 49 51.702 49 46.4V17.6Z" fill="black" />
<path d="M79.1851 39.5719C76.0927 40.937 72.7427 40.3777 71.4542 39.9274C71.4542 40.2355 71.4401 41.1929 71.3839 42.5581C71.3277 43.9231 70.892 44.7858 70.6811 45.0465C70.7045 45.8997 70.7233 47.7625 70.6109 48.3881C70.4984 49.0138 70.0955 49.5494 69.908 49.739H68.0105C68.1791 48.8858 68.8304 48.3407 69.1349 48.1748C69.3036 46.4116 68.971 44.8806 68.7836 44.3355C68.5961 44.9991 68.137 46.5395 67.7996 47.3927C67.4623 48.2459 66.9563 49.028 66.7454 49.3124H65.3398C65.2695 48.4592 65.738 48.1748 66.0426 48.1748C66.1832 47.9141 66.5205 47.0941 66.7454 45.8997C66.9703 44.7052 66.6517 42.4633 66.4643 41.4916V38.4343C64.2153 37.2256 63.3719 36.017 62.8097 34.6661C62.3599 33.5854 62.4817 31.9406 62.5988 31.2533C62.4583 30.9926 62.0485 30.3301 61.8961 29.4048C61.6852 28.125 61.8023 27.2007 61.8961 26.703C61.7555 26.5608 61.4744 25.8356 61.4744 24.0724C61.4744 22.3091 61.9897 21.3943 62.2474 21.1573V20.3752C61.2635 20.3041 60.2795 19.8775 59.7173 19.3088C59.1551 18.74 59.5768 17.8868 59.9282 17.6024C60.2795 17.318 60.631 17.5313 61.123 17.3891C61.6149 17.2469 62.0366 17.1047 62.2474 16.6781C62.4161 16.3369 62.0834 14.9243 61.896 14.2607C62.7394 14.3745 63.2782 15.1139 63.4422 15.4694V14.2607C64.4964 14.7584 66.394 15.9671 67.0265 18.5978C67.5325 20.7023 67.8933 25.1152 68.0104 27.0586C70.7045 27.0823 74.1249 26.6725 77.2172 27.3429C80.0285 27.9524 81.2935 29.1915 82.7694 29.1915C84.2453 29.1915 85.0886 28.3383 86.1429 29.0493C87.1971 29.7603 87.7594 31.751 87.6188 33.2441C87.5063 34.4386 86.588 34.832 86.1429 34.8794C85.5806 36.7564 86.1429 38.5528 86.4943 39.2164V41.9182C86.6583 42.1552 86.9863 42.8851 86.9863 43.9089C86.9863 44.9327 86.6583 45.6153 86.4943 45.8286C86.7754 47.4212 86.3771 49.0517 86.1429 49.6679H84.2453C84.4702 49.0991 84.8544 48.9569 85.0184 48.9569C85.3558 47.1937 85.1121 45.5679 84.9481 44.9754C83.8798 44.3497 83.1911 43.2454 82.9802 42.7714C83.0037 43.1743 82.9381 44.2928 82.4883 45.5442C82.0385 46.7956 81.3638 47.5349 81.0827 47.7482V49.2413H79.1851C79.1851 48.3313 79.7005 48.1511 79.9582 48.1748C80.2862 47.5823 81.0827 46.6818 81.0827 44.9043C81.0827 43.4045 80.0285 42.7003 79.2554 41.3494C78.8881 40.7075 79.0679 39.9037 79.1851 39.5719Z" fill="url(#paint0_linear_17397_2554)" />
<path d="M130.428 43.4265V19.8311H135.445V43.4265H130.428Z" fill="black" />
<path fill-rule="evenodd" clip-rule="evenodd" d="M253.859 43.6809C252.228 43.6809 250.76 43.3206 249.453 42.5997C248.145 41.8578 247.106 40.8296 246.334 39.5151C245.584 38.2008 245.209 36.6531 245.209 34.8723C245.209 33.0704 245.584 31.5122 246.334 30.1979C247.106 28.8834 248.145 27.8658 249.453 27.1451C250.76 26.4242 252.228 26.0639 253.859 26.0639C255.316 26.0639 256.592 26.3819 257.685 27.0179C258.187 27.3099 258.637 27.6713 259.035 28.1019V19.8311H264.051V43.4265H259.261V41.451C258.828 41.9672 258.325 42.3925 257.75 42.7269C256.677 43.3629 255.38 43.6809 253.859 43.6809ZM254.727 39.6105C255.542 39.6105 256.28 39.4197 256.946 39.0381C257.61 38.6565 258.135 38.1159 258.521 37.4163C258.928 36.6956 259.132 35.8476 259.132 34.8723C259.132 33.876 258.928 33.0279 258.521 32.3285C258.135 31.6289 257.61 31.0883 256.946 30.7067C256.28 30.3251 255.542 30.1343 254.727 30.1343C253.891 30.1343 253.14 30.3251 252.476 30.7067C251.811 31.0883 251.275 31.6289 250.868 32.3285C250.482 33.0279 250.29 33.876 250.29 34.8723C250.29 35.8476 250.482 36.6956 250.868 37.4163C251.275 38.1159 251.811 38.6565 252.476 39.0381C253.14 39.4197 253.891 39.6105 254.727 39.6105Z" fill="black" />
<path fill-rule="evenodd" clip-rule="evenodd" d="M272.071 42.5361C273.572 43.2992 275.309 43.6808 277.281 43.6808C278.846 43.6808 280.228 43.4476 281.429 42.9812C282.629 42.4936 283.626 41.8047 284.419 40.9143L281.751 38.0523C281.172 38.6035 280.529 39.0169 279.821 39.2925C279.135 39.568 278.332 39.7059 277.409 39.7059C276.38 39.7059 275.48 39.5257 274.708 39.1653C273.958 38.7837 273.368 38.2431 272.94 37.5435C272.718 37.1509 272.557 36.7269 272.455 36.2715H285.545L285.555 36.1769C285.572 35.9935 285.591 35.8024 285.61 35.6037C285.631 35.3493 285.641 35.1267 285.641 34.9359C285.641 33.0915 285.245 31.5121 284.452 30.1977C283.658 28.8621 282.576 27.8445 281.204 27.1449C279.853 26.4241 278.332 26.0637 276.638 26.0637C274.879 26.0637 273.304 26.4453 271.911 27.2085C270.517 27.9505 269.413 28.9893 268.598 30.3249C267.805 31.6393 267.409 33.1551 267.409 34.8723C267.409 36.5683 267.816 38.0841 268.631 39.4197C269.446 40.7341 270.592 41.7729 272.071 42.5361ZM272.398 33.3777C272.481 32.8477 272.64 32.3707 272.876 31.9467C273.24 31.2682 273.743 30.7489 274.387 30.3885C275.051 30.0069 275.812 29.8161 276.67 29.8161C277.527 29.8161 278.278 30.0069 278.921 30.3885C279.565 30.7489 280.068 31.2577 280.432 31.9149C280.673 32.3511 280.835 32.8387 280.917 33.3777H272.398Z" fill="black" />
<path d="M292.979 34.7975L286.323 43.4269H291.79L295.719 38.1864L299.508 43.4269H305.2L298.507 34.6851L304.942 26.3186H299.605L295.846 31.3151L292.176 26.3186H286.549L292.979 34.7975Z" fill="black" />
<path d="M238.252 26.8903C237.181 26.339 235.959 26.0635 234.586 26.0635C233.107 26.0635 231.79 26.3708 230.632 26.9857C229.949 27.3484 229.359 27.8034 228.863 28.3506V26.3179H224.072V43.4262H229.088V34.9675C229.088 33.9074 229.259 33.0382 229.603 32.3599C229.967 31.6814 230.459 31.1833 231.082 30.8653C231.725 30.526 232.444 30.3565 233.236 30.3565C234.351 30.3565 235.209 30.685 235.808 31.3423C236.431 31.9994 236.741 33.017 236.741 34.3951V43.4262H241.758V33.6319C241.758 31.8934 241.447 30.473 240.825 29.3707C240.203 28.247 239.345 27.4202 238.252 26.8903Z" fill="black" />
<path d="M213.874 43.4265V21.1665H219.083V43.4265H213.874Z" fill="black" />
<path fill-rule="evenodd" clip-rule="evenodd" d="M204.285 41.3006V43.4262H208.98V33.6637C208.98 31.0561 208.251 29.1374 206.794 27.9079C205.337 26.6782 203.289 26.0635 200.652 26.0635C199.28 26.0635 197.93 26.2436 196.601 26.6041C195.271 26.9644 194.135 27.4732 193.192 28.1305L194.993 31.5967C195.614 31.109 196.364 30.7274 197.244 30.4519C198.144 30.155 199.055 30.0067 199.977 30.0067C201.327 30.0067 202.325 30.3034 202.968 30.8971C203.631 31.4906 203.964 32.3174 203.964 33.3775H199.977C198.218 33.3775 196.794 33.6001 195.701 34.0453C194.607 34.4692 193.802 35.0629 193.288 35.8261C192.795 36.5893 192.549 37.4797 192.549 38.4973C192.549 39.4724 192.806 40.3522 193.321 41.1367C193.835 41.921 194.574 42.5464 195.539 43.0128C196.503 43.458 197.661 43.6806 199.012 43.6806C200.534 43.6806 201.777 43.3945 202.742 42.8221C203.393 42.4357 203.908 41.9285 204.285 41.3006ZM203.964 36.2713H200.524C199.344 36.2713 198.53 36.4621 198.08 36.8437C197.651 37.2253 197.437 37.7023 197.437 38.2747C197.437 38.9107 197.683 39.4195 198.176 39.8011C198.69 40.1614 199.387 40.3417 200.267 40.3417C201.102 40.3417 201.852 40.1509 202.518 39.7693C203.181 39.3664 203.664 38.7835 203.964 38.0203V36.2713Z" fill="black" />
<path d="M182.103 26.0635C183.474 26.0635 184.686 26.339 185.736 26.8903C186.808 27.4202 187.644 28.247 188.244 29.3707C188.866 30.473 189.178 31.8934 189.178 33.6319V43.4262H184.161V34.3951C184.161 33.017 183.872 31.9994 183.293 31.3423C182.714 30.685 181.899 30.3565 180.849 30.3565C180.119 30.3565 179.466 30.526 178.887 30.8653C178.309 31.1833 177.858 31.6708 177.537 32.3281C177.216 32.9852 177.054 33.8227 177.054 34.8403V43.4262H172.038V34.3951C172.038 33.017 171.749 31.9994 171.17 31.3423C170.612 30.685 169.809 30.3565 168.758 30.3565C168.029 30.3565 167.376 30.526 166.796 30.8653C166.218 31.1833 165.767 31.6708 165.446 32.3281C165.124 32.9852 164.963 33.8227 164.963 34.8403V43.4262H159.947V26.3179H164.738V28.2918C165.204 27.762 165.75 27.3266 166.379 26.9857C167.493 26.3708 168.758 26.0635 170.172 26.0635C171.759 26.0635 173.142 26.4662 174.321 27.2719C174.948 27.6817 175.465 28.2075 175.869 28.849C176.367 28.2232 176.977 27.6869 177.697 27.2401C178.983 26.4556 180.452 26.0635 182.103 26.0635Z" fill="black" />
<path fill-rule="evenodd" clip-rule="evenodd" d="M150.712 41.3004V43.4262H155.407V33.6637C155.407 31.0561 154.678 29.1374 153.22 27.9079C151.762 26.6782 149.715 26.0635 147.078 26.0635C145.707 26.0635 144.356 26.2436 143.026 26.6041C141.697 26.9644 140.561 27.4732 139.618 28.1305L141.419 31.5967C142.04 31.109 142.791 30.7274 143.67 30.4519C144.57 30.155 145.481 30.0067 146.403 30.0067C147.754 30.0067 148.75 30.3034 149.393 30.8971C150.058 31.4906 150.39 32.3174 150.39 33.3775H146.403C144.645 33.3775 143.219 33.6001 142.126 34.0453C141.033 34.4692 140.229 35.0629 139.714 35.8261C139.221 36.5893 138.975 37.4797 138.975 38.4973C138.975 39.4724 139.232 40.3522 139.747 41.1367C140.261 41.921 141.001 42.5464 141.965 43.0128C142.93 43.458 144.088 43.6806 145.438 43.6806C146.961 43.6806 148.204 43.3945 149.168 42.8221C149.819 42.4356 150.334 41.9284 150.712 41.3004ZM150.39 36.2713H146.95C145.771 36.2713 144.956 36.4621 144.506 36.8437C144.077 37.2253 143.863 37.7023 143.863 38.2747C143.863 38.9107 144.109 39.4195 144.602 39.8011C145.117 40.1614 145.813 40.3417 146.692 40.3417C147.529 40.3417 148.279 40.1509 148.943 39.7693C149.608 39.3664 150.09 38.7835 150.39 38.0203V36.2713Z" fill="black" />
<path d="M111.344 21.1665V43.4265H127.84V39.2289H116.553V21.1665H111.344Z" fill="black" />
<defs>
<linearGradient id="paint0_linear_17397_2554" x1="61.6924" y1="17.2469" x2="92.1315" y2="42.7566" gradientUnits="userSpaceOnUse">
<stop offset="0.0619804" stop-color="#F6DCD9" />
<stop offset="0.325677" stop-color="#FFA5EA" />
<stop offset="0.589257" stop-color="#45DFF8" />
<stop offset="1" stop-color="#BC8DEB" />
</linearGradient>
</defs>
</svg>
