<svg xmlns="http://www.w3.org/2000/svg" width="196.21" height="49.26" viewBox="73.837 7.37 196.21 49.26" fill="none">
<path d="M174.546 32.7735C174.492 31.37 174.24 29.9125 173.665 28.6349C170.966 22.6789 162.313 22.4989 158.733 27.6632C156.16 23.4527 149.81 22.8049 146.14 25.9538L145.204 26.9974V24.7842H138.152V50.0836H145.204V33.7271C145.204 33.4393 145.474 32.5936 145.6 32.3056C146.751 29.6066 150.997 29.4626 152.31 32.0538C152.49 32.3956 152.796 33.2773 152.796 33.6552V50.0836H159.848V34.195C159.884 31.244 162.474 29.3906 165.281 30.5242C166.271 30.9201 167.422 32.3236 167.422 33.4033V49.9936C167.422 49.9936 167.512 50.1016 167.53 50.1016H174.438C174.492 50.1016 174.564 49.9397 174.546 49.8677C174.348 44.2176 174.78 38.4236 174.546 32.7915V32.7735Z" fill="black" />
<path d="M226.718 25.3604C225.728 25.9902 224.991 26.7819 224.235 27.6636C222.202 23.9749 216.913 23.0572 213.297 24.8926C212.272 25.4144 211.498 26.1342 210.742 26.9979V24.7846H203.69V50.084H210.742V34.5913C210.4 29.0312 218.334 28.5813 218.406 34.1954V50.084H225.459V33.7276C225.459 33.4757 225.71 32.6659 225.818 32.396C226.951 29.607 231.215 29.409 232.583 32.0542C232.744 32.3601 233.068 33.2778 233.068 33.5837V50.084H240.12V32.1081C239.94 25.2705 232.42 21.7796 226.771 25.3604H226.718Z" fill="black" />
<path d="M177.316 31.5144C172.8 41.4111 180.518 52.4414 191.547 50.66C196.206 49.9042 200.218 46.4854 201.405 41.9149H194.317C193.651 43.0126 192.896 43.9842 191.69 44.524C188.038 46.1075 184.098 43.7863 183.415 39.9896H201.711C201.783 39.9536 201.783 39.8996 201.801 39.8277C202.161 38.3521 202.053 36.0129 201.783 34.5015C199.642 22.2296 182.515 20.1243 177.298 31.5504L177.316 31.5144ZM183.415 34.7533C184.098 31.6584 186.383 29.5351 189.693 29.805C192.194 30.003 194.641 32.1623 194.623 34.7533H183.415Z" fill="black" />
<path d="M268.833 25.1263C267.304 18.3066 262.752 12.8725 255.233 13.1603C242.081 13.6462 240.049 30.8484 243.071 40.637C245.176 47.4567 250.573 51.8832 258.003 50.6776C269.139 48.8602 270.83 34.0693 268.815 25.1443L268.833 25.1263ZM249.493 31.5861C249.493 30.6504 249.548 29.8047 249.619 29.103C249.907 25.954 251.13 20.7538 254.98 20.3219C256.923 20.106 258.345 20.7718 259.388 21.9594C259.748 22.3733 259.946 22.5892 260.072 23.075C260.126 23.273 260.144 23.6328 260.126 23.8487C260.072 24.3526 259.838 24.7125 259.388 25.4142L254.621 32.7377C253.415 34.5731 252.822 35.5088 251.761 35.5808C251.31 35.6167 250.681 35.4188 250.321 35.1489C249.476 34.5012 249.493 33.5475 249.511 31.6221L249.493 31.5861ZM261.961 32.3239C261.943 33.9793 261.799 35.4728 261.619 36.5704C261.133 39.5214 259.694 43.4621 256.168 43.714C254.351 43.8399 253.02 43.1562 252.03 42.0046C251.671 41.5907 251.49 41.3748 251.365 40.889C251.31 40.691 251.293 40.3312 251.31 40.1332C251.365 39.6294 251.598 39.2875 252.048 38.5858L256.87 31.1902C258.057 29.3729 258.65 28.4552 259.712 28.4012C260.162 28.3652 260.791 28.5632 261.151 28.833C261.997 29.4809 261.979 30.4345 261.961 32.3239Z" fill="black" />
<path d="M98.4468 25.1982C94.6868 25.1982 91.6465 28.2392 91.6465 31.9999C91.6465 35.7607 94.6868 38.8016 98.4468 38.8016C102.207 38.8016 105.247 35.7607 105.247 31.9999C105.247 28.2392 102.207 25.1982 98.4468 25.1982Z" fill="black" />
<path d="M98.4828 11.901C99.5802 11.883 100.48 10.9833 100.462 9.84971C100.444 8.71611 99.5443 7.8524 98.4109 7.87039C97.2775 7.88839 96.4139 8.78808 96.4319 9.92172C96.4499 11.0553 97.3495 11.919 98.4828 11.901Z" fill="black" />
<path d="M98.4109 52.0994C97.2775 52.1174 96.4139 53.0171 96.4319 54.1507C96.4499 55.2844 97.3495 56.148 98.4828 56.13C99.5802 56.112 100.48 55.2123 100.462 54.0787C100.444 52.9451 99.5443 52.0814 98.4109 52.0994Z" fill="black" />
<path d="M84.2706 17.7671C85.0262 16.9753 85.0262 15.6978 84.2166 14.9061C83.407 14.1143 82.1477 14.1503 81.3562 14.96C80.5646 15.7698 80.6005 17.0293 81.4101 17.8211C82.2197 18.6128 83.479 18.5768 84.2706 17.7671Z" fill="black" />
<path d="M112.641 46.233C111.85 47.0427 111.886 48.3023 112.695 49.094C113.505 49.8857 114.764 49.8497 115.556 49.0401C116.311 48.2483 116.311 46.9707 115.502 46.179C114.692 45.3873 113.433 45.4233 112.641 46.233Z" fill="black" />
<path d="M112.677 17.8211C113.469 18.5768 114.746 18.5768 115.538 17.7671C116.329 16.9573 116.293 15.6978 115.484 14.9061C114.674 14.1143 113.415 14.1503 112.623 14.96C111.832 15.7698 111.868 17.0293 112.677 17.8211Z" fill="black" />
<path d="M84.2166 46.179C83.407 45.3873 82.1477 45.4233 81.3562 46.233C80.5646 47.0427 80.6005 48.3023 81.4101 49.094C82.2017 49.8497 83.479 49.8497 84.2706 49.0401C85.0622 48.2303 85.0262 46.9707 84.2166 46.179Z" fill="black" />
<path d="M120.45 29.9844C119.316 30.0564 118.489 30.9921 118.543 32.1077C118.597 33.2053 119.55 34.069 120.665 34.0151C121.799 33.9431 122.626 33.0074 122.572 31.8918C122.5 30.7582 121.565 29.9305 120.45 29.9844Z" fill="black" />
<path d="M76.4627 34.0151C77.5962 33.9431 78.4237 33.0074 78.3697 31.8918C78.2978 30.7582 77.3623 29.9305 76.2469 29.9844C75.1135 30.0564 74.2859 30.9921 74.3399 32.1077C74.3939 33.2053 75.3474 34.069 76.4627 34.0151Z" fill="black" />
<path d="M95.3344 20.4121C95.4603 20.61 95.6222 20.79 95.7841 20.9519C96.9715 22.1035 98.8245 22.2655 100.192 21.3478C101.091 20.7359 101.649 19.7283 101.721 18.6127C101.775 17.8749 101.937 16.8493 102.746 16.2915C103.574 15.7696 104.581 16.0216 105.283 16.2555C106.344 16.6333 107.478 16.5074 108.395 15.9136C109.187 15.4098 109.727 14.618 109.924 13.7004C110.122 12.7827 109.96 11.847 109.439 11.0552L109.295 10.8393C109.169 10.6414 109.007 10.4615 108.845 10.2995C107.658 9.14792 105.805 8.98595 104.437 9.90365C103.538 10.5154 102.98 11.5231 102.908 12.6387C102.854 13.3765 102.692 14.4021 101.883 14.9599C101.055 15.4818 100.048 15.2298 99.3462 14.9959C98.2848 14.618 97.1514 14.744 96.2339 15.3378C94.6147 16.3815 94.147 18.5587 95.1904 20.1781L95.3344 20.3941V20.4121Z" fill="black" />
<path d="M87.599 53.1611C87.7249 53.3591 87.8868 53.539 88.0488 53.7009C89.2361 54.8525 91.0891 55.0145 92.4564 54.0968C93.3559 53.485 93.9136 52.4774 93.9855 51.3617C94.0395 50.6239 94.2014 49.5983 95.011 49.0405C95.8385 48.5187 96.846 48.7706 97.5476 49.0045C98.6091 49.3824 99.7424 49.2565 100.66 48.6626C101.451 48.1588 101.991 47.3671 102.189 46.4494C102.387 45.5317 102.225 44.596 101.703 43.8043L101.559 43.5884C101.434 43.3904 101.272 43.2105 101.11 43.0486C99.9223 41.8969 98.0693 41.735 96.7021 42.6527C95.8025 43.2645 95.2448 44.2722 95.1729 45.3878C95.1189 46.1255 94.957 47.1512 94.1474 47.709C93.3199 48.2308 92.3125 47.9789 91.6108 47.7449C90.5494 47.3671 89.416 47.4931 88.4985 48.0868C86.8794 49.1305 86.4117 51.3077 87.4551 52.9272L87.599 53.1431V53.1611Z" fill="black" />
<path d="M104.419 21.5819C104.383 21.8158 104.347 22.0498 104.365 22.2836C104.383 23.9391 105.588 25.3606 107.226 25.6665C108.305 25.8644 109.402 25.5585 110.248 24.8028C110.806 24.317 111.651 23.7052 112.605 23.8851C113.558 24.101 114.098 25.0007 114.422 25.6485C114.907 26.6562 115.807 27.3759 116.868 27.6098C117.786 27.8078 118.721 27.6278 119.513 27.124C120.305 26.6202 120.844 25.8285 121.042 24.9108L121.096 24.6588C121.132 24.4249 121.168 24.191 121.15 23.9571C121.132 22.3016 119.927 20.8801 118.29 20.5742C117.21 20.3763 116.113 20.6822 115.267 21.4379C114.71 21.9238 113.864 22.5356 112.911 22.3556C111.957 22.1397 111.417 21.24 111.094 20.5922C110.608 19.5846 109.708 18.8648 108.647 18.6309C106.758 18.235 104.887 19.4406 104.491 21.33L104.437 21.5819H104.419Z" fill="black" />
<path d="M75.8332 39.3236C75.7972 39.5575 75.7612 39.7914 75.7792 40.0253C75.7972 41.6808 77.0025 43.1023 78.6396 43.4082C79.7191 43.6061 80.8165 43.3002 81.662 42.5445C82.2197 42.0587 83.0652 41.4469 84.0187 41.6268C84.9722 41.8427 85.5119 42.7424 85.8358 43.3902C86.3215 44.3978 87.221 45.1176 88.2824 45.3515C89.1999 45.5495 90.1354 45.3695 90.927 44.8657C91.7186 44.3619 92.2583 43.5701 92.4562 42.6524L92.5101 42.4005C92.5462 42.1666 92.5821 41.9327 92.5641 41.6988C92.5462 40.0434 91.3408 38.6218 89.7037 38.3159C88.6243 38.118 87.5268 38.4239 86.6813 39.1796C86.1236 39.6655 85.2781 40.2773 84.3246 40.0973C83.3711 39.8814 82.8314 38.9817 82.5075 38.3339C82.0218 37.3262 81.1223 36.6065 80.0609 36.3726C78.1719 35.9767 76.3009 37.1823 75.9051 39.0716L75.8512 39.3236H75.8332Z" fill="black" />
<path d="M110.033 28.8511C109.835 28.977 109.655 29.139 109.493 29.3009C108.341 30.4886 108.18 32.3419 109.115 33.7095C109.727 34.6092 110.734 35.1669 111.85 35.2389C112.587 35.2929 113.613 35.4549 114.17 36.2646C114.692 37.0923 114.44 38.0999 114.206 38.8017C113.828 39.8633 113.954 40.997 114.548 41.9147C115.052 42.7064 115.843 43.2462 116.761 43.4441C117.678 43.6421 118.614 43.4621 119.405 42.9583L119.621 42.8144C119.819 42.6884 119.999 42.5264 120.161 42.3645C121.312 41.1769 121.474 39.3235 120.539 37.956C119.927 37.0563 118.92 36.4985 117.804 36.4265C117.067 36.3726 116.041 36.2106 115.484 35.4008C114.962 34.5732 115.214 33.5655 115.448 32.8637C115.825 31.8021 115.699 30.6685 115.106 29.7508C114.062 28.1313 111.886 27.6635 110.266 28.7072L110.051 28.8511H110.033Z" fill="black" />
<path d="M77.2909 21.1855C77.093 21.3115 76.913 21.4735 76.7511 21.6354C75.5998 22.823 75.4378 24.6764 76.3733 26.0439C76.985 26.9436 77.9925 27.5014 79.1078 27.5734C79.8455 27.6274 80.8709 27.7893 81.4286 28.5991C81.9503 29.4268 81.6985 30.4344 81.4646 31.1362C81.0868 32.1978 81.2127 33.3314 81.8064 34.2491C82.3101 35.0409 83.1017 35.5807 84.0192 35.7786C84.9367 35.9765 85.8722 35.7966 86.6638 35.2928L86.8797 35.1488C87.0775 35.0229 87.2575 34.8609 87.4194 34.699C88.5707 33.5114 88.7327 31.658 87.7972 30.2904C87.1855 29.3907 86.1781 28.833 85.0627 28.761C84.325 28.707 83.2996 28.5451 82.7419 27.7353C82.2202 26.9076 82.4721 25.9 82.7059 25.1982C83.0837 24.1366 82.9578 23.0029 82.3641 22.0852C81.3207 20.4658 79.1438 19.998 77.5247 21.0416L77.3088 21.1855H77.2909Z" fill="black" />
<path d="M108.863 37.9738C108.629 37.9378 108.395 37.9018 108.161 37.9198C106.506 37.9378 105.085 39.1434 104.779 40.7808C104.581 41.8605 104.887 42.9581 105.643 43.8038C106.128 44.3616 106.74 45.2073 106.56 46.161C106.344 47.1147 105.445 47.6545 104.797 47.9784C103.79 48.4642 103.07 49.3639 102.836 50.4256C102.638 51.3433 102.818 52.279 103.322 53.0707C103.826 53.8624 104.617 54.4022 105.535 54.6002L105.786 54.6541C106.02 54.6901 106.254 54.7261 106.488 54.7081C108.143 54.6901 109.564 53.4846 109.87 51.8471C110.068 50.7675 109.762 49.6698 109.007 48.8241C108.521 48.2663 107.909 47.4206 108.089 46.4669C108.305 45.5132 109.205 44.9734 109.852 44.6495C110.86 44.1637 111.579 43.264 111.813 42.2023C112.209 40.313 111.004 38.4416 109.115 38.0458L108.863 37.9918V37.9738Z" fill="black" />
<path d="M91.1245 9.3815C90.8907 9.34555 90.6568 9.30954 90.4229 9.32754C88.7678 9.34555 87.3466 10.5511 87.0408 12.1886C86.8428 13.2682 87.1487 14.3659 87.9043 15.2115C88.39 15.7694 89.0017 16.615 88.8218 17.5688C88.6059 18.5224 87.7064 19.0622 87.0587 19.3861C86.0513 19.872 85.3316 20.7717 85.0978 21.8333C84.8999 22.751 85.0798 23.6867 85.5835 24.4784C86.0873 25.2702 86.8788 25.81 87.7963 26.0079L88.0482 26.0618C88.2821 26.0978 88.5159 26.1339 88.7498 26.1159C90.4049 26.0978 91.8262 24.8923 92.132 23.2548C92.3299 22.1752 92.024 21.0775 91.2685 20.2318C90.7827 19.674 90.171 18.8283 90.351 17.8746C90.5668 16.921 91.4663 16.3812 92.114 16.0572C93.1214 15.5714 93.841 14.6717 94.0749 13.6101C94.4707 11.7207 93.2653 9.84935 91.3764 9.45351L91.1245 9.3995V9.3815Z" fill="black" />
</svg>
