<svg xmlns="http://www.w3.org/2000/svg" width="225.707" height="49.001" viewBox="58.5 7.5 225.707 49.001" fill="none">
<path d="M138.331 35.646L136.991 39.4413H136.88C136.656 38.5855 136.247 37.2832 135.577 35.7204L128.396 17.6739H121.363V46.4367H126.014V28.6878C126.014 27.5715 126.014 26.3064 125.977 24.7436C125.94 23.9622 125.866 23.3669 125.828 22.9204H125.94C126.163 24.0367 126.424 24.8553 126.61 25.3762L135.242 46.3622H138.517L147.075 25.1901C147.261 24.7064 147.447 23.739 147.633 22.9204H147.745C147.633 25.0413 147.559 26.939 147.521 28.0925V46.325H152.47V17.5994H145.698L138.331 35.646ZM157.159 25.7111H161.996V46.325H157.159V25.7111ZM159.614 17.0041C158.796 17.0041 158.126 17.3018 157.568 17.8227C157.01 18.3436 156.712 19.0134 156.712 19.832C156.712 20.6134 157.01 21.2832 157.568 21.8041C158.126 22.325 158.796 22.5855 159.614 22.5855C160.433 22.5855 161.14 22.2878 161.661 21.8041C162.219 21.2832 162.517 20.6134 162.517 19.832C162.517 19.0506 162.219 18.3808 161.661 17.8227C161.177 17.3018 160.47 17.0041 159.614 17.0041ZM179.149 25.525C178.256 25.339 177.326 25.2274 176.433 25.2274C174.238 25.2274 172.228 25.7111 170.554 26.6785C168.88 27.646 167.54 28.9855 166.684 30.6599C165.791 32.3715 165.345 34.3436 165.345 36.6134C165.345 38.5855 165.791 40.3343 166.647 41.9343C167.503 43.4971 168.694 44.7622 170.294 45.618C171.819 46.4739 173.605 46.9204 175.614 46.9204C177.921 46.9204 179.894 46.4367 181.456 45.5436L181.494 45.5064V41.0413L181.307 41.1901C180.6 41.7111 179.782 42.1576 178.963 42.4181C178.107 42.7157 177.326 42.8646 176.656 42.8646C174.721 42.8646 173.196 42.3064 172.117 41.0785C171 39.8878 170.442 38.2506 170.442 36.2041C170.442 34.0832 171 32.4087 172.154 31.1808C173.307 29.9529 174.833 29.3204 176.694 29.3204C178.256 29.3204 179.856 29.8413 181.307 30.8832L181.494 31.032V26.3064L181.456 26.2692C180.824 26.0087 180.117 25.7111 179.149 25.525ZM195.112 25.3762C193.921 25.3762 192.805 25.7483 191.838 26.5297C191.019 27.1994 190.461 28.1669 189.977 29.3204H189.94V25.7111H185.103V46.325H189.94V35.7948C189.94 34.0087 190.312 32.5204 191.131 31.4413C191.949 30.325 192.991 29.7669 194.256 29.7669C194.703 29.7669 195.149 29.8785 195.707 29.9529C196.228 30.1018 196.6 30.2506 196.861 30.4367L197.047 30.5855V25.7483L196.935 25.7111C196.6 25.4878 195.931 25.3762 195.112 25.3762ZM208.284 25.2646C204.898 25.2646 202.182 26.2692 200.284 28.2413C198.349 30.2134 197.419 32.9297 197.419 36.3529C197.419 39.5529 198.387 42.1576 200.247 44.0553C202.107 45.9157 204.638 46.8832 207.8 46.8832C211.112 46.8832 213.754 45.8785 215.652 43.8692C217.587 41.8599 218.517 39.1808 218.517 35.8692C218.517 32.5948 217.624 29.9901 215.8 28.0925C214.052 26.1948 211.484 25.2646 208.284 25.2646ZM212.154 41.1157C211.261 42.2692 209.847 42.8274 208.098 42.8274C206.349 42.8274 204.935 42.2692 203.931 41.0413C202.926 39.8878 202.442 38.2134 202.442 36.0925C202.442 33.8971 202.963 32.2227 203.931 31.032C204.935 29.8413 206.312 29.246 208.061 29.246C209.773 29.246 211.112 29.8041 212.08 30.9576C213.047 32.1111 213.568 33.7855 213.568 35.9808C213.494 38.2134 213.084 39.9622 212.154 41.1157ZM229.307 34.2692C227.782 33.6367 226.814 33.1529 226.368 32.7436C225.996 32.3715 225.81 31.8506 225.81 31.1808C225.81 30.6227 226.033 30.0646 226.591 29.6925C227.149 29.3204 227.782 29.1343 228.712 29.1343C229.531 29.1343 230.387 29.2832 231.205 29.5064C232.024 29.7297 232.768 30.0646 233.363 30.5111L233.549 30.6599V26.1204L233.438 26.0832C232.88 25.8599 232.135 25.6367 231.242 25.4506C230.349 25.3018 229.531 25.2274 228.861 25.2274C226.554 25.2274 224.656 25.7855 223.168 27.0134C221.68 28.1669 220.973 29.7297 220.973 31.5529C220.973 32.5204 221.121 33.3762 221.456 34.0832C221.791 34.7901 222.275 35.4599 222.945 36.0181C223.614 36.539 224.582 37.1343 225.921 37.6925C227.038 38.1762 227.894 38.5483 228.414 38.846C228.935 39.1436 229.27 39.4785 229.531 39.739C229.717 40.0367 229.828 40.4087 229.828 40.8925C229.828 42.2692 228.787 42.939 226.666 42.939C225.847 42.939 224.991 42.7901 223.987 42.4553C222.982 42.1204 222.052 41.6367 221.27 41.0785L221.084 40.9297V45.6553L221.196 45.6925C221.903 46.0274 222.759 46.2506 223.8 46.5111C224.842 46.6971 225.773 46.846 226.591 46.846C229.084 46.846 231.131 46.2878 232.582 45.0599C234.07 43.8692 234.852 42.3436 234.852 40.3715C234.852 38.9948 234.48 37.7669 233.661 36.8367C232.582 35.9436 231.242 35.0134 229.307 34.2692ZM247.614 25.2646C244.228 25.2646 241.512 26.2692 239.614 28.2413C237.717 30.2134 236.749 32.9297 236.749 36.3529C236.749 39.5529 237.717 42.1576 239.577 44.0553C241.438 45.9157 243.968 46.8832 247.131 46.8832C250.442 46.8832 253.084 45.8785 254.982 43.8692C256.917 41.8599 257.847 39.1808 257.847 35.8692C257.847 32.5948 256.954 29.9901 255.131 28.0925C253.382 26.1948 250.814 25.2646 247.614 25.2646ZM251.447 41.1157C250.554 42.2692 249.14 42.8274 247.391 42.8274C245.605 42.8274 244.228 42.2692 243.224 41.0413C242.219 39.8878 241.735 38.2134 241.735 36.0925C241.735 33.8971 242.256 32.2227 243.224 31.032C244.228 29.8413 245.605 29.246 247.354 29.246C249.028 29.246 250.405 29.8041 251.373 30.9576C252.34 32.1111 252.861 33.7855 252.861 35.9808C252.861 38.2134 252.377 39.9622 251.447 41.1157ZM283.707 29.6925V25.7111H278.833V19.6087L278.684 19.646L274.07 21.0227L273.959 21.0599V25.7111H266.666V23.1064C266.666 21.9157 266.963 20.9855 267.484 20.3901C268.005 19.7948 268.787 19.4971 269.754 19.4971C270.424 19.4971 271.131 19.646 271.912 19.9808L272.098 20.0925V15.8878L271.987 15.8506C271.317 15.6274 270.424 15.4785 269.27 15.4785C267.819 15.4785 266.554 15.8134 265.4 16.3715C264.247 17.0041 263.391 17.8599 262.759 19.0134C262.126 20.1297 261.791 21.3948 261.791 22.846V25.7111H258.405V29.6553H261.791V46.325H266.666V29.6925H273.959V40.2971C273.959 44.6506 276.005 46.846 280.098 46.846C280.768 46.846 281.475 46.7343 282.145 46.6227C282.852 46.4739 283.373 46.2878 283.67 46.139L283.707 46.1018V42.1204L283.521 42.2692C283.224 42.4553 282.963 42.6041 282.517 42.7157C282.145 42.8274 281.81 42.8646 281.549 42.8646C280.582 42.8646 279.912 42.6413 279.428 42.0832C278.982 41.5622 278.759 40.7064 278.759 39.4413V29.6925H283.707Z" fill="black" />
<path d="M59 8H81.8093V30.8093H59V8Z" fill="#F25022" />
<path d="M84.1914 8H107.001V30.8093H84.1914V8Z" fill="#7FBA00" />
<path d="M59 33.1914H81.8093V56.0007H59V33.1914Z" fill="#00A4EF" />
<path d="M84.1914 33.1914H107.001V56.0007H84.1914V33.1914Z" fill="#FFB900" />
</svg>
