<svg xmlns="http://www.w3.org/2000/svg" width="178.455" height="49" viewBox="87.5 7.5 178.455 49" fill="none">
<path fill-rule="evenodd" clip-rule="evenodd" d="M169.765 27.2C165.283 27.2 161.516 24.1404 160.449 20H149.423C147.072 20 145.066 21.6964 144.679 24.0108L144.284 26.3784C143.908 28.626 142.769 30.582 141.158 32C142.769 33.418 143.908 35.374 144.284 37.6216L144.679 39.9892C145.066 42.3036 147.072 44 149.423 44H150.829C151.897 39.8596 155.663 36.8 160.146 36.8C165.458 36.8 169.765 41.098 169.765 46.4C169.765 51.702 165.458 56 160.146 56C155.663 56 151.897 52.9404 150.829 48.8H149.423C144.721 48.8 140.708 45.4072 139.935 40.7784L139.539 38.4108C139.153 36.0964 137.146 34.4 134.795 34.4H130.984C129.917 38.5404 126.15 41.6 121.668 41.6C117.186 41.6 113.419 38.5404 112.352 34.4H106.936C105.868 38.5404 102.102 41.6 97.6194 41.6C92.3068 41.6 88 37.302 88 32C88 26.698 92.3068 22.4 97.6194 22.4C102.102 22.4 105.868 25.4596 106.936 29.6H112.352C113.419 25.4596 117.186 22.4 121.668 22.4C126.15 22.4 129.917 25.4596 130.984 29.6H134.795C137.146 29.6 139.153 27.9036 139.539 25.5892L139.935 23.2216C140.708 18.5928 144.721 15.2 149.423 15.2H160.449C161.516 11.0596 165.283 8 169.765 8C175.078 8 179.384 12.298 179.384 17.6C179.384 22.902 175.078 27.2 169.765 27.2ZM169.765 22.4C172.421 22.4 174.575 20.2508 174.575 17.6C174.575 14.9492 172.421 12.8 169.765 12.8C167.109 12.8 164.955 14.9492 164.955 17.6C164.955 20.2508 167.109 22.4 169.765 22.4ZM97.6194 36.8C100.276 36.8 102.429 34.6508 102.429 32C102.429 29.3492 100.276 27.2 97.6194 27.2C94.9631 27.2 92.8097 29.3492 92.8097 32C92.8097 34.6508 94.9631 36.8 97.6194 36.8ZM126.478 32C126.478 34.6508 124.324 36.8 121.668 36.8C119.012 36.8 116.858 34.6508 116.858 32C116.858 29.3492 119.012 27.2 121.668 27.2C124.324 27.2 126.478 29.3492 126.478 32ZM164.955 46.4C164.955 49.0508 162.802 51.2 160.146 51.2C157.489 51.2 155.336 49.0508 155.336 46.4C155.336 43.7492 157.489 41.6 160.146 41.6C162.802 41.6 164.955 43.7492 164.955 46.4Z" fill="#EA4B71" />
<path fill-rule="evenodd" clip-rule="evenodd" d="M237.105 28.755V28.5266C238.784 27.6878 240.462 26.239 240.462 23.3798C240.462 19.2622 237.067 16.7842 232.376 16.7842C227.571 16.7842 224.138 19.4146 224.138 23.4558C224.138 26.201 225.74 27.6878 227.494 28.5266V28.755C225.549 29.4414 223.223 31.5002 223.223 34.9314C223.223 39.0866 226.655 41.9842 232.338 41.9842C238.021 41.9842 241.339 39.0866 241.339 34.9314C241.339 31.5002 239.051 29.4794 237.105 28.755ZM232.338 20.2918C234.245 20.2918 235.656 21.5114 235.656 23.5702C235.656 25.629 234.207 26.849 232.338 26.849C230.469 26.849 228.905 25.629 228.905 23.5702C228.905 21.4734 230.393 20.2918 232.338 20.2918ZM232.338 38.3242C230.126 38.3242 228.333 36.9138 228.333 34.5118C228.333 32.339 229.821 30.6994 232.3 30.6994C234.741 30.6994 236.229 32.3006 236.229 34.5882C236.229 36.9138 234.512 38.3242 232.338 38.3242Z" fill="black" />
<path d="M247.224 41.6029H252.106V31.2713C252.106 27.8781 254.166 26.3913 256.492 26.3913C258.781 26.3913 260.573 27.9165 260.573 31.0425V41.6029H265.455V30.0513C265.455 25.0569 262.556 22.1597 258.018 22.1597C255.157 22.1597 253.555 23.3033 252.411 24.7901H252.106L251.686 22.5409H247.224V41.6029Z" fill="black" />
<path d="M204.008 41.6029H199.126V22.5409H203.589L204.008 24.7901H204.313C205.458 23.3033 207.06 22.1597 209.92 22.1597C214.459 22.1597 217.357 25.0569 217.357 30.0513V41.6029H212.475V31.0425C212.475 27.9165 210.683 26.3913 208.394 26.3913C206.068 26.3913 204.008 27.8781 204.008 31.2713V41.6029Z" fill="black" />
</svg>
