<svg xmlns="http://www.w3.org/2000/svg" width="148.836" height="49" viewBox="107.604 7.826 148.836 49" fill="none">
<path d="M136.253 18.5088C128.212 18.5088 122.835 23.1788 122.835 32.2683V38.7381C123.633 38.3508 124.498 38.1458 125.432 38.1458C126.366 38.1458 127.255 38.3736 128.052 38.7609V32.2683C128.052 26.3909 131.287 23.3611 136.253 23.3611C141.219 23.3611 144.454 26.3909 144.454 32.2683V46.4152H149.671V32.2683C149.671 23.1333 144.272 18.5088 136.253 18.5088Z" fill="black" />
<path d="M152.517 32.8131C152.517 24.5665 158.577 18.5068 167.142 18.5068C175.708 18.5068 181.676 24.5665 181.676 32.8131V34.7495H158.007C158.782 39.6018 162.404 42.2899 167.142 42.2899C170.673 42.2899 173.134 41.1964 174.728 38.8272H180.515C178.419 43.8846 173.475 47.1422 167.142 47.1422C158.554 47.1194 152.517 41.0825 152.517 32.8131ZM176.163 30.0794C175.116 25.7283 171.539 23.3591 167.142 23.3591C162.746 23.3591 159.215 25.7739 158.167 30.0794H176.163Z" fill="black" />
<path d="M184.478 32.8131C184.478 24.5665 190.538 18.5068 199.103 18.5068C207.669 18.5068 213.728 24.5665 213.728 32.8131C213.728 41.0597 207.669 47.1194 199.103 47.1194C190.538 47.1194 184.478 41.0825 184.478 32.8131ZM208.443 32.8131C208.443 27.3002 204.707 23.3591 199.08 23.3591C193.454 23.3591 189.718 27.323 189.718 32.8131C189.718 38.3033 193.454 42.2671 199.08 42.2671C204.707 42.2671 208.443 38.3261 208.443 32.8131Z" fill="black" />
<path d="M243.618 51.8151H244.233C247.582 51.8151 248.858 50.3343 248.858 46.4844V19.4209H254.075V46.1427C254.075 52.863 251.432 56.3257 244.712 56.3257H243.618V51.8151Z" fill="black" />
<path d="M241 49.0347H235.783V42.5878H222.524C219.882 42.5878 217.581 41.2893 216.533 39.2163C215.553 37.2571 215.827 34.9563 217.239 33.0199L229.154 17.3923C230.862 15.0915 233.755 14.1575 236.489 15.0687C239.223 15.9799 241 18.4175 241 21.2878V37.9405H244.918V42.5878H241V49.0347ZM221.636 35.8675C221.476 36.0725 221.385 36.3459 221.385 36.642C221.385 37.371 221.978 37.9633 222.707 37.9633H235.806V21.1739C235.806 20.3083 235.168 19.9893 234.894 19.8982C234.78 19.8754 234.621 19.8299 234.416 19.8299C234.097 19.8299 233.71 19.9438 233.368 20.3766L221.636 35.8675Z" fill="black" />
<path d="M110.465 33.0659C109.781 33.4076 109.144 33.9772 108.688 34.7289C108.232 35.4807 108.05 36.278 108.118 37.0753C108.187 38.5105 108.984 39.8318 110.283 40.5608C111.49 41.2442 112.857 41.0847 114.155 40.7886C115.75 40.3785 117.117 40.2191 118.552 41.0847C118.552 41.0847 118.552 41.0847 118.62 41.0847C121.081 42.5199 121.081 46.1193 118.62 47.5545C118.62 47.5545 118.62 47.5545 118.552 47.5545C117.117 48.4201 115.75 48.2379 114.155 47.8506C112.902 47.5089 111.536 47.3267 110.283 48.0784C108.961 48.8302 108.232 50.197 108.118 51.5639C108.05 52.3612 108.232 53.1585 108.688 53.9103C109.144 54.6621 109.713 55.2316 110.465 55.5733C111.718 56.2111 113.267 56.2111 114.565 55.4594C115.773 54.776 116.342 53.4547 116.684 52.2017C117.14 50.6071 117.664 49.3314 119.144 48.534C120.579 47.6684 121.946 47.8506 123.541 48.2379C124.794 48.5796 126.161 48.7618 127.414 48.0101C128.735 47.2583 129.464 45.8915 129.578 44.5246C129.578 44.4107 129.578 44.3424 129.578 44.2285C129.578 44.1146 129.578 44.0462 129.578 43.9323C129.51 42.4972 128.712 41.1759 127.414 40.4469C126.206 39.7635 124.839 39.9229 123.541 40.2191C121.946 40.6291 120.579 40.7886 119.144 39.9229C117.709 39.0573 117.14 37.8499 116.684 36.2552C116.342 35.0023 115.773 33.7266 114.565 32.9976C113.244 32.4509 111.718 32.4509 110.465 33.0659Z" fill="black" />
<path d="M251.475 8.32568C249.015 8.32568 247.01 10.3304 247.01 12.7907C247.01 15.251 249.015 17.2557 251.475 17.2557C253.936 17.2557 255.94 15.251 255.94 12.7907C255.94 10.3304 253.936 8.32568 251.475 8.32568Z" fill="black" />
</svg>
