<svg xmlns="http://www.w3.org/2000/svg" width="262.385" height="49" viewBox="43.5 7.5 262.385 49" fill="none">
<path d="M114.549 21.7762C115.249 21.7762 115.85 22.3433 115.85 23.0771V47.9277C115.85 48.6282 115.216 49.1953 114.549 49.1953H111.18C110.546 49.1953 109.912 48.6949 109.912 47.9944V45.6928C108.211 48.1946 105.276 49.9291 101.006 49.9291C93.868 49.9291 89.4649 45.1925 89.4649 38.1543V23.0104C89.4649 22.3099 90.0987 21.7429 90.7658 21.7429H94.1348C94.8353 21.7429 95.4024 22.3099 95.4024 23.0104V37.1869C95.4024 41.7568 97.804 44.7922 102.541 44.7922C107.177 44.7922 109.912 41.6567 109.912 37.2536V23.0104C109.912 22.3099 110.546 21.7429 111.18 21.7429L114.549 21.7762ZM64.8478 8C53.3065 8 44 16.9729 44 28.9479C44 40.9562 53.3065 49.8958 64.8478 49.8958C66.8158 49.8958 68.7172 49.6289 70.5184 49.1286L72.7867 54.966C73.0202 55.5997 73.4871 56 74.3211 56H77.9236C78.7908 56 79.4246 55.4329 79.0243 54.3322L76.089 46.6935C81.8596 43.0577 85.6956 36.6199 85.6956 28.9145C85.6956 16.9729 76.3892 8 64.8478 8ZM73.9208 41.123L71.2856 34.2849C71.0521 33.7179 70.5851 33.1842 69.5844 33.1842H66.1487C65.2814 33.1842 64.6143 33.7512 65.0146 34.852L68.4837 43.8249C67.3496 44.1251 66.1154 44.2585 64.8478 44.2585C56.4086 44.2585 50.4044 37.6206 50.4044 28.9479C50.4044 20.2752 56.4086 13.6372 64.8478 13.6372C73.287 13.6372 79.2912 20.2752 79.2912 28.9479C79.2912 34.0181 77.2564 38.3544 73.9208 41.123ZM305.281 47.7943C305.582 48.4948 305.215 49.1619 304.381 49.1619H300.612C299.911 49.1619 299.344 48.8284 299.111 48.1279L292.139 29.3815L285.067 48.1279C284.767 48.8617 284.267 49.1619 283.566 49.1619H280.197C279.497 49.1619 278.997 48.8617 278.696 48.1279L271.558 29.2814L264.52 48.1279C264.22 48.8284 263.719 49.1619 263.019 49.1619H259.483C258.783 49.1619 258.282 48.8284 257.982 48.1279L251.01 29.2814L243.805 48.1279C243.505 48.8617 243.005 49.1619 242.304 49.1619H238.935C238.235 49.1619 237.735 48.8617 237.434 48.1279L230.396 29.2814L223.358 48.1279C223.124 48.8284 222.557 49.1619 221.857 49.1619H218.188C217.32 49.1619 216.987 48.4614 217.287 47.7943L226.827 22.8436C227.127 22.1098 227.628 21.7429 228.328 21.7429H232.431C233.131 21.7429 233.632 22.0764 233.932 22.8436L240.803 41.0563L247.608 22.8436C247.908 22.1098 248.409 21.7429 249.109 21.7429H253.145C253.846 21.7429 254.346 22.0764 254.646 22.8436L261.384 41.0563L268.122 22.8436C268.423 22.1098 268.923 21.7429 269.623 21.7429H273.693C274.393 21.7429 274.894 22.0764 275.194 22.8436L282.032 41.0563L288.703 22.8436C289.003 22.1098 289.504 21.7429 290.204 21.7429H294.307C295.008 21.7429 295.508 22.0764 295.808 22.8436L305.281 47.7943ZM147.205 21.7762H143.836C143.136 21.7762 142.535 22.3433 142.535 23.0771V25.3454C140.834 22.7769 137.498 20.9423 133.562 20.9423C126.124 20.9423 119.753 26.8131 119.753 35.3857C119.753 44.0584 126.157 49.8958 133.529 49.8958C137.532 49.8958 140.767 48.0612 142.568 45.4927V47.8944C142.568 48.5949 143.202 49.1619 143.869 49.1619H147.238C147.939 49.1619 148.506 48.5949 148.506 47.8944V23.0771C148.473 22.3433 147.905 21.7762 147.205 21.7762ZM134.196 44.4253C129.293 44.4253 125.79 40.4225 125.79 35.4524C125.79 30.4156 129.259 26.5462 134.196 26.5462C139.066 26.5462 142.602 30.4156 142.602 35.4524C142.568 40.4559 139.033 44.4253 134.196 44.4253ZM187.4 45.2926C188.133 46.1932 187.5 46.8937 187.099 47.1939C184.764 48.9618 181.662 49.9291 178.293 49.9291C169.787 49.9291 164.117 43.6915 164.117 35.4858C164.117 27.2801 169.787 20.9757 178.293 20.9757C181.662 20.9757 184.731 21.943 187.099 23.7109C187.5 24.0111 188.067 24.6115 187.4 25.6122L185.798 27.8471C185.165 28.7144 184.431 28.4809 183.797 28.0806C182.296 27.18 180.528 26.4128 178.493 26.4128C173.523 26.4128 170.221 30.4156 170.221 35.4858C170.221 40.5559 173.523 44.5254 178.493 44.5254C180.562 44.5254 182.196 43.7248 183.697 42.8575C184.331 42.524 184.998 42.2238 185.698 43.1578L187.4 45.2926ZM203.277 21.009C195.272 21.009 188.901 27.2801 188.901 35.4524C188.901 43.6915 195.305 49.8958 203.277 49.8958C211.283 49.8958 217.654 43.6581 217.654 35.4524C217.687 27.3134 211.283 21.009 203.277 21.009ZM203.277 44.3919C198.374 44.3919 194.871 40.4559 194.871 35.4858C194.871 30.4489 198.341 26.5796 203.277 26.5796C208.181 26.5796 211.683 30.4489 211.683 35.4858C211.683 40.4559 208.214 44.3919 203.277 44.3919ZM159.013 8.73384C159.747 8.73384 160.281 9.36762 160.281 10.0347V47.861C160.281 48.5615 159.78 49.1619 159.013 49.1619H155.644C154.944 49.1619 154.343 48.5281 154.343 47.861V10.0681C154.343 9.36762 154.977 8.7672 155.644 8.7672L159.013 8.73384Z" fill="#3253DC" />
</svg>
