<svg xmlns="http://www.w3.org/2000/svg" width="190.693" height="49" viewBox="76 7.5 190.693 49" fill="none">
<path fill-rule="evenodd" clip-rule="evenodd" d="M137.187 45.7946L139.554 40.2935C142.111 42.2056 145.518 43.1996 148.879 43.1996C151.36 43.1996 152.931 42.2435 152.931 40.7943C152.893 36.7424 138.067 39.9141 137.953 29.7541C137.915 24.5945 142.498 20.6185 148.993 20.6185C152.855 20.6185 156.71 21.5745 159.464 23.7522L157.248 29.3671C154.729 27.7586 151.596 26.6128 148.614 26.6128C146.588 26.6128 145.252 27.5689 145.252 28.7905C145.29 32.7665 160.23 30.5888 160.382 40.2935C160.382 45.567 155.913 49.2774 149.494 49.2774C144.789 49.2698 140.472 48.162 137.187 45.7946ZM228.095 38.3055C226.911 40.3694 224.696 41.7807 222.131 41.7807C218.345 41.7807 215.295 38.7228 215.295 34.9441C215.295 31.1654 218.353 28.1076 222.131 28.1076C224.688 28.1076 226.911 29.5189 228.095 31.5828L234.628 27.9558C232.185 23.6005 227.481 20.6185 222.131 20.6185C214.217 20.6185 207.798 27.0377 207.798 34.9517C207.798 42.8657 214.217 49.285 222.131 49.285C227.518 49.285 232.185 46.3409 234.628 41.9476L228.095 38.3055ZM163.668 8.72852H171.847V48.7386H163.668V8.72852ZM237.838 8.72852V48.7386H246.017V36.7348L255.722 48.7386H266.193L253.848 34.4813L265.275 21.18H255.259L246.01 32.2201V8.72852H237.838Z" fill="black" />
<path d="M196.151 38.3813C194.967 40.3314 192.524 41.7806 189.77 41.7806C185.983 41.7806 182.933 38.7228 182.933 34.9441C182.933 31.1654 185.991 28.1075 189.77 28.1075C192.524 28.1075 194.967 29.6327 196.151 31.6206V38.3813ZM196.151 21.1875V24.4351C194.816 22.1815 191.492 20.6108 188.009 20.6108C180.824 20.6108 175.171 26.9542 175.171 34.9061C175.171 42.8581 180.824 49.2773 188.009 49.2773C191.485 49.2773 194.808 47.7142 196.151 45.4531V48.7006H204.331V21.1875H196.151Z" fill="black" />
<path fill-rule="evenodd" clip-rule="evenodd" d="M86.6298 38.3437C86.6298 41.136 84.3762 43.3895 81.5839 43.3895C78.7916 43.3895 76.5381 41.1284 76.5381 38.3437C76.5381 35.559 78.7916 33.2979 81.5839 33.2979H86.6298V38.3437ZM89.1489 38.3437C89.1489 35.5514 91.4025 33.2979 94.1947 33.2979C96.987 33.2979 99.2406 35.5514 99.2406 38.3437V50.9545C99.2406 53.7468 96.987 56.0003 94.1947 56.0003C91.4025 56.0003 89.1489 53.7468 89.1489 50.9545V38.3437Z" fill="#E01E5A" />
<path fill-rule="evenodd" clip-rule="evenodd" d="M94.1946 18.0917C91.4023 18.0917 89.1488 15.8381 89.1488 13.0458C89.1488 10.2536 91.4023 8 94.1946 8C96.9869 8 99.2404 10.2536 99.2404 13.0458V18.0917H94.1946ZM94.1946 20.6488C96.9869 20.6488 99.2404 22.9023 99.2404 25.6946C99.2404 28.4869 96.9869 30.7404 94.1946 30.7404H81.5458C78.7536 30.7404 76.5 28.4793 76.5 25.6946C76.5 22.9099 78.7536 20.6488 81.5458 20.6488H94.1946Z" fill="#36C5F0" />
<path fill-rule="evenodd" clip-rule="evenodd" d="M114.408 25.6946C114.408 22.9023 116.662 20.6488 119.454 20.6488C122.246 20.6488 124.5 22.9023 124.5 25.6946C124.5 28.4869 122.246 30.7404 119.454 30.7404H114.408V25.6946ZM111.889 25.6946C111.889 28.4869 109.635 30.7404 106.843 30.7404C104.051 30.7404 101.797 28.4869 101.797 25.6946V13.0458C101.797 10.2536 104.051 8 106.843 8C109.635 8 111.889 10.2536 111.889 13.0458V25.6946Z" fill="#2EB67D" />
<path fill-rule="evenodd" clip-rule="evenodd" d="M106.843 45.9087C109.635 45.9087 111.889 48.1622 111.889 50.9545C111.889 53.7468 109.635 56.0003 106.843 56.0003C104.051 56.0003 101.797 53.7468 101.797 50.9545V45.9087H106.843ZM106.843 43.3895C104.051 43.3895 101.797 41.136 101.797 38.3437C101.797 35.5514 104.051 33.2979 106.843 33.2979H119.492C122.284 33.2979 124.538 35.5514 124.538 38.3437C124.538 41.136 122.284 43.3895 119.492 43.3895H106.843Z" fill="#ECB22E" />
</svg>
