<svg xmlns="http://www.w3.org/2000/svg" width="270.478" height="63.116" viewBox="43.526 0.441 270.478 63.116" fill="none">
<path d="M108.683 33.0895H111.822C112.066 36.4055 114.647 38.5347 118.275 38.5347C121.553 38.5347 123.751 36.964 123.751 34.3809C123.751 31.798 121.797 30.8556 117.193 30.0876C112.136 29.2498 109.276 27.365 109.276 23.3857C109.276 19.4065 112.624 16.4395 117.542 16.4395C122.739 16.4395 126.192 19.3716 126.471 23.8743H123.332C123.018 21.0122 120.716 19.1969 117.542 19.1969C114.368 19.1969 112.31 20.663 112.31 23.2111C112.31 25.7593 114.229 26.597 118.902 27.365C123.89 28.1677 126.785 30.1923 126.785 34.1017C126.785 38.3254 123.262 41.2923 118.24 41.2923C112.519 41.2923 108.857 38.0461 108.683 33.0895Z" fill="#050505" />
<path d="M142.51 23.2832H145.37V41.0851H142.893L142.51 38.7116C141.463 40.0381 139.754 41.2947 136.929 41.2947C133.162 41.2947 130.058 39.2002 130.058 33.5456V23.2832H132.918V33.371C132.918 36.8266 134.592 38.6767 137.417 38.6767C140.556 38.6767 142.51 36.338 142.51 32.5332V23.2832Z" fill="#050505" />
<path d="M166.262 32.1817C166.262 37.6271 162.634 41.2921 157.716 41.2921C154.716 41.2921 152.693 40.0704 151.612 38.36V48.0638H148.752V23.2808H151.228L151.612 26.1431C152.798 24.5025 154.716 23.0713 157.716 23.0713C162.634 23.0713 166.262 26.3873 166.262 32.1817ZM163.332 32.1817C163.332 28.3072 160.96 25.6195 157.437 25.6195C153.914 25.6195 151.577 28.3072 151.577 32.112C151.577 35.9166 153.949 38.744 157.437 38.744C160.925 38.744 163.332 36.0562 163.332 32.1817Z" fill="#050505" />
<path d="M172.127 32.8101V32.9846C172.231 36.3705 174.359 38.744 177.742 38.744C180.254 38.744 182.207 37.4176 182.8 35.1137H185.695C184.997 38.6742 182.067 41.2921 177.952 41.2921C172.615 41.2921 169.127 37.6271 169.127 32.1817C169.127 26.7365 172.545 23.0713 177.568 23.0713C182.591 23.0713 185.869 26.2477 186.009 31.5184C186.009 31.7977 185.974 32.3912 185.939 32.8101H172.127ZM172.301 30.3666H182.939C182.66 27.295 180.568 25.5845 177.603 25.5845C174.987 25.5845 172.58 27.4694 172.301 30.3666Z" fill="#050505" />
<path d="M203.25 23.2832V26.0756H200.948C196.797 26.0756 195.576 29.252 195.576 32.0795V38.4672H200.773V41.0851H188.74V38.4672H192.716V25.9011H188.74V23.2832H195.437L195.541 26.2851C196.344 24.8889 197.948 23.2832 201.331 23.2832H203.25Z" fill="#050505" />
<path d="M219.526 38.4654V41.0834H205.888V38.4654H211.26V19.2673H205.888V16.6494H214.12V38.4654H219.526Z" fill="#050505" />
<path d="M236.353 38.4644V41.0823H222.714V38.4644H228.085V25.8983H222.714V23.2804H230.946V38.4644H236.353ZM227.352 17.9748C227.352 16.753 228.329 15.8105 229.55 15.8105C230.771 15.8105 231.713 16.753 231.713 17.9748C231.713 19.2662 230.771 20.1738 229.55 20.1738C228.329 20.1738 227.352 19.2662 227.352 17.9748Z" fill="#050505" />
<path d="M255.169 30.8203V41.0827H252.309V30.995C252.309 27.5393 250.635 25.6892 247.705 25.6892C244.565 25.6892 242.542 28.0279 242.542 31.8327V41.0827H239.683V23.2808H242.158L242.542 25.6892C243.588 24.3279 245.369 23.0713 248.193 23.0713C252.03 23.0713 255.169 25.1656 255.169 30.8203Z" fill="#050505" />
<path d="M258.888 41.0834V16.6494H261.748V32.741L271.235 23.2814H274.863L267.365 30.7514L275.212 41.0834H271.69L265.376 32.7061L261.748 36.3362V41.0834H258.888Z" fill="#050505" />
<path d="M279.12 32.8101V32.9846C279.224 36.3705 281.353 38.744 284.737 38.744C287.248 38.744 289.2 37.4176 289.793 35.1137H292.688C291.99 38.6742 289.062 41.2921 284.945 41.2921C279.608 41.2921 276.12 37.6271 276.12 32.1817C276.12 26.7365 279.539 23.0713 284.561 23.0713C289.584 23.0713 292.863 26.2477 293.003 31.5184C293.003 31.7977 292.967 32.3912 292.932 32.8101H279.12ZM279.295 30.3666H289.932C289.654 27.295 287.561 25.5845 284.597 25.5845C281.979 25.5845 279.573 27.4694 279.295 30.3666Z" fill="#050505" />
<path d="M310.644 16.6494H313.504V41.0834H311.027L310.644 38.2212C309.457 39.8616 307.539 41.2929 304.539 41.2929C299.621 41.2929 295.995 37.9768 295.995 32.1825C295.995 26.7371 299.621 23.0721 304.539 23.0721C307.539 23.0721 309.563 24.2938 310.644 26.0041V16.6494ZM310.678 32.2522C310.678 28.3428 308.307 25.6201 304.819 25.6201C301.331 25.6201 298.924 28.308 298.924 32.1825C298.924 36.057 301.295 38.7447 304.819 38.7447C308.342 38.7447 310.678 36.057 310.678 32.2522Z" fill="#050505" />
<path d="M67.7699 48.4357L44.0264 24.6883L67.7699 0.940918L91.5132 24.6883L82.3907 33.8123L67.7699 19.189L62.2714 24.6883L76.8924 39.3116L67.7699 48.4357ZM47.6506 24.6883L67.7699 44.8107L73.2681 39.3116L58.6472 24.6883L67.7699 15.5642L82.3907 30.1874L87.8889 24.6883L67.7699 4.56579L47.6506 24.6883Z" fill="#FE552E" />
<path d="M67.7698 63.0572L44.0264 39.3098L53.1489 30.1858L67.7698 44.8091L73.268 39.3098L58.6472 24.6867L67.7698 15.5625L91.5133 39.3098L67.7698 63.0572ZM47.6506 39.3098L67.7698 59.4324L87.889 39.3098L67.7698 19.1874L62.2715 24.6867L76.8923 39.3098L67.7698 48.4339L53.1489 33.8107L47.6506 39.3098Z" fill="#FE552E" />
</svg>
