<svg xmlns="http://www.w3.org/2000/svg" width="239.666" height="49" viewBox="65.834 7.5 239.666 49" fill="none">
<mask id="mask0_17398_1106" style="mask-type:luminance" maskUnits="userSpaceOnUse" x="66" y="8" width="239" height="48">
<path d="M305 8H66.3335V56H305V8Z" fill="white" />
</mask>
<g mask="url(#mask0_17398_1106)">
<path d="M100.854 24.457H81.508C81.0457 24.457 80.6709 24.8322 80.6709 25.295V26.4737C80.6709 26.9365 81.0457 27.3117 81.508 27.3117H100.854C101.317 27.3117 101.691 26.9365 101.691 26.4737V25.295C101.691 24.8322 101.317 24.457 100.854 24.457Z" fill="black" />
<path d="M77.0252 24.4568H67.1705C66.7082 24.4568 66.3335 24.832 66.3335 25.2948V26.4735C66.3335 26.9363 66.7082 27.3115 67.1705 27.3115H77.0252C77.4875 27.3115 77.8622 26.9363 77.8622 26.4735V25.2948C77.8622 24.832 77.4875 24.4568 77.0252 24.4568Z" fill="black" />
<path d="M119.249 24.4568H107.76C107.298 24.4568 106.923 24.832 106.923 25.2948V26.4735C106.923 26.9363 107.298 27.3115 107.76 27.3115H119.249C119.712 27.3115 120.086 26.9363 120.086 26.4735V25.2948C120.086 24.832 119.712 24.4568 119.249 24.4568Z" fill="black" />
<path d="M119.25 20.3645H109.647C109.184 20.3645 108.81 20.7397 108.81 21.2026V22.3811C108.81 22.844 109.184 23.2192 109.647 23.2192H119.25C119.712 23.2192 120.087 22.844 120.087 22.3811V21.2026C120.087 20.7397 119.712 20.3645 119.25 20.3645Z" fill="black" />
<path d="M129.671 20.3645H122.403C121.941 20.3645 121.566 20.7397 121.566 21.2026V22.3811C121.566 22.844 121.941 23.2192 122.403 23.2192H129.671C130.134 23.2192 130.508 22.844 130.508 22.3811V21.2026C130.508 20.7397 130.134 20.3645 129.671 20.3645Z" fill="black" />
<path d="M127.102 16.1843H118.598C118.135 16.1843 117.761 16.5596 117.761 17.0224V18.201C117.761 18.6638 118.135 19.0391 118.598 19.0391H127.102C127.564 19.0391 127.939 18.6638 127.939 18.201V17.0224C127.939 16.5596 127.564 16.1843 127.102 16.1843Z" fill="black" />
<path d="M123.142 12.0925H121.821C121.359 12.0925 120.984 12.4677 120.984 12.9306V14.1092C120.984 14.572 121.359 14.9472 121.821 14.9472H123.142C123.604 14.9472 123.979 14.572 123.979 14.1092V12.9306C123.979 12.4677 123.604 12.0925 123.142 12.0925Z" fill="black" />
<path d="M94.9703 44.8718H91.4619C90.9997 44.8718 90.625 45.247 90.625 45.71V46.9801C90.625 47.443 90.9997 47.8182 91.4619 47.8182H94.9703C95.4326 47.8182 95.8073 47.443 95.8073 46.9801V45.71C95.8073 45.247 95.4326 44.8718 94.9703 44.8718Z" fill="black" />
<path d="M102.187 44.8718H100.464C100.002 44.8718 99.627 45.247 99.627 45.71V46.9801C99.627 47.443 100.002 47.8182 100.464 47.8182H102.187C102.649 47.8182 103.024 47.443 103.024 46.9801V45.71C103.024 45.247 102.649 44.8718 102.187 44.8718Z" fill="black" />
<path d="M112.913 44.9543H105.429C104.967 44.9543 104.592 45.3295 104.592 45.7925V46.899C104.592 47.3618 104.967 47.737 105.429 47.737H112.913C113.375 47.737 113.75 47.3618 113.75 46.899V45.7925C113.75 45.3295 113.375 44.9543 112.913 44.9543Z" fill="black" />
<path d="M112.143 40.78H110.014C109.552 40.78 109.177 41.1552 109.177 41.618V42.8883C109.177 43.3511 109.552 43.7264 110.014 43.7264H112.143C112.605 43.7264 112.98 43.3511 112.98 42.8883V41.618C112.98 41.1552 112.605 40.78 112.143 40.78Z" fill="black" />
<path d="M85.6419 44.8718H84.321C83.8587 44.8718 83.4839 45.247 83.4839 45.71V46.9801C83.4839 47.443 83.8587 47.8182 84.321 47.8182H85.6419C86.1042 47.8182 86.479 47.443 86.479 46.9801V45.71C86.479 45.247 86.1042 44.8718 85.6419 44.8718Z" fill="black" />
<path d="M97.3076 49.7988C97.3076 49.3372 97.6836 48.9607 98.1446 48.9607H99.4655C99.9266 48.9607 100.303 49.3372 100.303 49.7988V51.069C100.303 51.5306 99.9266 51.9071 99.4655 51.9071H98.1446C97.6836 51.9071 97.3076 51.5306 97.3076 51.069V49.7988Z" fill="black" />
<path d="M96.3939 53.0532H95.2168C94.7546 53.0532 94.3799 53.4286 94.3799 53.8914V55.1616C94.3799 55.6244 94.7546 55.9996 95.2168 55.9996H96.3939C96.8561 55.9996 97.2309 55.6244 97.2309 55.1616V53.8914C97.2309 53.4286 96.8561 53.0532 96.3939 53.0532Z" fill="black" />
<path d="M108.572 8H106.535C106.073 8 105.698 8.37522 105.698 8.83809V10.0166C105.698 10.4795 106.073 10.8547 106.535 10.8547H108.572C109.035 10.8547 109.409 10.4795 109.409 10.0166V8.83809C109.409 8.37522 109.035 8 108.572 8Z" fill="black" />
<path d="M93.24 20.3645H85.4191C84.9568 20.3645 84.582 20.7397 84.582 21.2026V22.3811C84.582 22.844 84.9568 23.2192 85.4191 23.2192H93.24C93.7023 23.2192 94.0771 22.844 94.0771 22.3811V21.2026C94.0771 20.7397 93.7023 20.3645 93.24 20.3645Z" fill="black" />
<path d="M107.121 12.0925H103.027C102.565 12.0925 102.19 12.4677 102.19 12.9306V14.1092C102.19 14.572 102.565 14.9472 103.027 14.9472H107.121C107.583 14.9472 107.958 14.572 107.958 14.1092V12.9306C107.958 12.4677 107.583 12.0925 107.121 12.0925Z" fill="black" />
<path d="M107.122 16.1843H99.4873C99.0251 16.1843 98.6504 16.5596 98.6504 17.0224V18.201C98.6504 18.6638 99.0251 19.0391 99.4873 19.0391H107.122C107.584 19.0391 107.959 18.6638 107.959 18.201V17.0224C107.959 16.5596 107.584 16.1843 107.122 16.1843Z" fill="black" />
<path d="M132.198 24.457H128.442C127.979 24.457 127.604 24.8322 127.604 25.295V26.4737C127.604 26.9365 127.979 27.3117 128.442 27.3117H132.198C132.661 27.3117 133.035 26.9365 133.035 26.4737V25.295C133.035 24.8322 132.661 24.457 132.198 24.457Z" fill="black" />
<path d="M102.332 28.5498H77.1759C76.7136 28.5498 76.3389 28.925 76.3389 29.3879V30.5665C76.3389 31.0293 76.7136 31.4046 77.1759 31.4046H102.332C102.795 31.4046 103.169 31.0293 103.169 30.5665V29.3879C103.169 28.925 102.795 28.5498 102.332 28.5498Z" fill="black" />
<path d="M110.343 36.7341H101.534C101.072 36.7341 100.697 37.1093 100.697 37.5721V38.7508C100.697 39.2136 101.072 39.5888 101.534 39.5888H110.343C110.805 39.5888 111.18 39.2136 111.18 38.7508V37.5721C111.18 37.1093 110.805 36.7341 110.343 36.7341Z" fill="black" />
<path d="M113.92 32.6423H81.508C81.0457 32.6423 80.6709 33.0177 80.6709 33.4805V34.659C80.6709 35.1219 81.0457 35.4971 81.508 35.4971H113.92C114.382 35.4971 114.757 35.1219 114.757 34.659V33.4805C114.757 33.0177 114.382 32.6423 113.92 32.6423Z" fill="black" />
<path d="M87.2925 36.7341H76.2936C75.8313 36.7341 75.4565 37.1093 75.4565 37.5721V38.7508C75.4565 39.2136 75.8313 39.5888 76.2936 39.5888H87.2925C87.7548 39.5888 88.1296 39.2136 88.1296 38.7508V37.5721C88.1296 37.1093 87.7548 36.7341 87.2925 36.7341Z" fill="black" />
<path d="M90.3465 40.78H87.8648C87.4025 40.78 87.0278 41.1552 87.0278 41.618V42.8883C87.0278 43.3511 87.4025 43.7264 87.8648 43.7264H90.3465C90.8088 43.7264 91.1836 43.3511 91.1836 42.8883V41.618C91.1836 41.1552 90.8088 40.78 90.3465 40.78Z" fill="black" />
<path d="M105.331 40.78H102.529C102.067 40.78 101.692 41.1552 101.692 41.618V42.8883C101.692 43.3511 102.067 43.7264 102.529 43.7264H105.331C105.794 43.7264 106.168 43.3511 106.168 42.8883V41.618C106.168 41.1552 105.794 40.78 105.331 40.78Z" fill="black" />
<path d="M82.7159 40.78H80.1886C79.7263 40.78 79.3516 41.1552 79.3516 41.618V42.8883C79.3516 43.3511 79.7263 43.7264 80.1886 43.7264H82.7159C83.1783 43.7264 83.553 43.3511 83.553 42.8883V41.618C83.553 41.1552 83.1783 40.78 82.7159 40.78Z" fill="black" />
<path d="M116.921 28.5498H107.76C107.298 28.5498 106.923 28.925 106.923 29.3879V30.5665C106.923 31.0293 107.298 31.4046 107.76 31.4046H116.921C117.384 31.4046 117.758 31.0293 117.758 30.5665V29.3879C117.758 28.925 117.384 28.5498 116.921 28.5498Z" fill="black" />
<path d="M298.211 44.0932C292.963 44.0932 291.491 41.2941 291.52 38.9632C291.527 38.3804 291.9 38.0891 292.488 38.0891H293.539C294.143 38.0891 294.404 38.4099 294.463 39.0156C294.617 40.4593 295.561 41.3465 298.175 41.3465C300.787 41.3465 302.045 40.3905 302.045 38.9207C302.045 37.6243 301.309 37.1495 299.483 36.8352L296.337 36.2951C293.701 35.8433 291.956 34.357 291.956 31.6888C291.956 28.6868 294.183 26.4868 298.301 26.4868C302.421 26.4868 304.785 28.7228 304.749 31.332C304.743 31.9083 304.357 32.1996 303.775 32.1996H302.712C302.108 32.1996 301.888 31.8788 301.804 31.2895C301.649 30.2025 300.764 29.2139 298.301 29.2139C295.84 29.2139 294.895 30.2484 294.895 31.5907C294.895 32.7496 295.565 33.2603 297.239 33.5581L300.384 34.1115C303.108 34.5927 304.999 35.9251 304.999 38.7831C304.999 41.4512 303.389 44.0964 298.207 44.0964L298.211 44.0932Z" fill="black" />
<path d="M277.036 42.7503C277.036 43.3559 276.709 43.6833 276.104 43.6833H275.005C274.4 43.6833 274.073 43.3559 274.073 42.7503V21.2973C274.073 20.6916 274.4 20.3643 275.005 20.3643H276.111C276.716 20.3643 277.043 20.6916 277.043 21.2973V28.9841C278.027 27.4454 279.785 26.4829 282.041 26.4829C286.351 26.4829 289.617 29.9007 289.617 35.2861C289.617 40.6714 286.351 44.0893 282.041 44.0893C279.779 44.0893 278.017 43.1267 277.032 41.5815V42.747L277.036 42.7503ZM286.623 35.2894C286.623 31.4067 284.403 29.2558 281.76 29.2558C279.119 29.2558 276.869 31.4067 276.869 35.2894C276.869 39.1721 279.119 41.3229 281.76 41.3229C284.403 41.3229 286.623 39.1721 286.623 35.2894Z" fill="black" />
<path d="M263.935 26.4868C268.447 26.4868 270.493 28.6279 270.484 32.0916L270.471 38.482C270.471 39.7063 270.513 41.4611 270.673 42.6855C270.752 43.3205 270.484 43.684 269.843 43.684H268.852C268.277 43.684 267.949 43.4647 267.891 43.0193L267.724 41.7589C266.835 43.2224 265.096 43.9753 262.964 43.9753C259.112 43.9753 256.741 41.7 256.741 38.6031C256.741 35.8924 258.648 34.2228 261.895 33.9903L266.632 33.6564C267.492 33.5975 267.528 33.5189 267.528 32.7168V32.0097C267.528 30.1436 266.4 29.1975 263.932 29.1975C261.463 29.1975 260.452 30.124 260.351 31.4204C260.309 32.0327 260.096 32.36 259.479 32.36H258.344C257.755 32.36 257.383 32.0621 257.376 31.4793C257.353 28.7523 259.355 26.4868 263.935 26.4868ZM259.743 38.6359C259.743 40.2695 261.073 41.4415 263.347 41.4415C266.001 41.4415 267.532 39.8373 267.532 37.4343V35.8531C267.181 35.9775 266.767 36.0659 266.292 36.1084L262.143 36.5013C260.629 36.6487 259.74 37.2313 259.74 38.6359H259.743Z" fill="black" />
<path d="M242.505 43.6833C241.9 43.6833 241.573 43.3559 241.573 42.7503V21.2973C241.573 20.6916 241.9 20.3643 242.505 20.3643H243.669C244.275 20.3643 244.601 20.6916 244.601 21.2973V40.8122H255.055C255.659 40.8122 255.987 41.1395 255.987 41.7453V42.7503C255.987 43.3559 255.659 43.6833 255.055 43.6833H242.505Z" fill="black" />
<path d="M231.367 44.0932C226.506 44.0932 223.252 40.6229 223.252 35.182C223.252 29.741 226.456 26.4868 231.092 26.4868C235.73 26.4868 238.704 29.8687 238.704 34.6713V35.0281C238.704 35.6337 238.378 35.9612 237.772 35.9612H226.251C226.506 39.3069 228.424 41.3333 231.367 41.3333C233.411 41.3333 234.656 40.5314 235.16 39.1335C235.35 38.6031 235.624 38.3248 236.187 38.3248H237.256C237.88 38.3248 238.254 38.6751 238.146 39.2939C237.658 42.1355 235.01 44.0964 231.371 44.0964L231.367 44.0932ZM226.368 33.4469H235.683C235.34 30.7494 233.683 29.096 231.09 29.096C228.496 29.096 226.862 30.7133 226.366 33.4469H226.368Z" fill="black" />
<path d="M213.832 43.6845C213.293 43.6845 212.96 43.4521 212.763 42.9478L207.277 28.4254C207.104 27.9737 207.093 27.6594 207.253 27.3385C207.408 27.0341 207.712 26.8933 208.239 26.8933H209.052C209.592 26.8933 209.932 27.1258 210.121 27.6365L214.581 39.648L214.829 40.4205L215.079 39.648L219.541 27.6365C219.731 27.1258 220.071 26.8933 220.611 26.8933H221.424C221.948 26.8933 222.255 27.0308 222.409 27.3385C222.569 27.6594 222.563 27.9737 222.385 28.4254L216.9 42.9478C216.703 43.4521 216.369 43.6845 215.831 43.6845H213.836H213.832Z" fill="black" />
<path d="M202.138 21.2975C202.138 20.6919 202.464 20.3645 203.07 20.3645H204.175C204.779 20.3645 205.107 20.6919 205.107 21.2975V42.7506C205.107 43.3562 204.779 43.6835 204.175 43.6835H203.07C202.464 43.6835 202.138 43.3562 202.138 42.7506V21.2975Z" fill="black" />
<path d="M192.126 44.0932C187.264 44.0932 184.011 40.6229 184.011 35.182C184.011 29.741 187.212 26.4868 191.848 26.4868C196.484 26.4868 199.46 29.8687 199.46 34.6713V35.0281C199.46 35.6337 199.133 35.9612 198.528 35.9612H187.006C187.261 39.3069 189.183 41.3333 192.123 41.3333C194.169 41.3333 195.412 40.5314 195.915 39.1335C196.105 38.6031 196.38 38.3248 196.942 38.3248H198.011C198.636 38.3248 199.008 38.6751 198.897 39.2939C198.41 42.1355 195.762 44.0964 192.123 44.0964L192.126 44.0932ZM187.127 33.4469H196.442C196.098 30.7494 194.441 29.096 191.848 29.096C189.255 29.096 187.62 30.7133 187.123 33.4469H187.127Z" fill="black" />
<path d="M163.956 43.6831C163.41 43.6831 163.066 43.4343 162.906 42.9105L158.424 28.4011C158.276 27.9429 158.286 27.6351 158.437 27.3241C158.59 27.0262 158.888 26.8953 159.411 26.8953H160.241C160.794 26.8953 161.131 27.1441 161.291 27.6743L164.93 39.7218L164.996 40.0133L165.061 39.7087L168.801 27.6711C168.962 27.1473 169.305 26.8985 169.851 26.8985H171.538C172.084 26.8985 172.427 27.1473 172.588 27.6711L176.328 39.7087L176.4 40.0362L176.472 39.7153L180.111 27.6777C180.271 27.1473 180.605 26.8985 181.161 26.8985H181.975C182.498 26.8985 182.795 27.0294 182.949 27.3274C183.103 27.6417 183.109 27.9461 182.962 28.4045L178.479 42.9138C178.319 43.4375 177.976 43.6863 177.43 43.6863H175.56C175.014 43.6863 174.67 43.4375 174.51 42.9138L170.776 30.8762L170.681 30.4963L170.587 30.8762L166.859 42.9138C166.693 43.4375 166.349 43.6863 165.803 43.6863H163.946L163.956 43.6831Z" fill="black" />
<path d="M145.585 23.2224C144.98 23.2224 144.653 22.8951 144.653 22.2895V21.2975C144.653 20.6919 144.98 20.3645 145.585 20.3645H161.501C162.106 20.3645 162.433 20.6919 162.433 21.2975V22.2895C162.433 22.8951 162.106 23.2224 161.501 23.2224H155.06V42.7538C155.06 43.3595 154.733 43.6868 154.128 43.6868H152.964C152.359 43.6868 152.032 43.3595 152.032 42.7538V23.2224H145.585Z" fill="black" />
</g>
</svg>
