<svg width="81.66" height="20.2" viewBox="-0.5 5.9 81.66 20.2" fill="none" xmlns="http://www.w3.org/2000/svg">
<g clip-path="url(#clip0_2372_593)">
<path d="M80.5879 20.3387L78.5682 16.8569C79.2337 16.5734 79.7808 16.0687 80.117 15.4282C80.4532 14.7878 80.5579 14.0508 80.4132 13.3421C80.2686 12.6333 79.8836 11.9963 79.3234 11.5387C78.7631 11.0811 78.062 10.8312 77.3386 10.8311H72.9079C72.761 10.8311 72.6201 10.8894 72.5162 10.9933C72.4124 11.0971 72.354 11.238 72.354 11.3849V20.6157C72.354 20.7626 72.4124 20.9034 72.5162 21.0073C72.6201 21.1112 72.761 21.1695 72.9079 21.1695H73.2771C73.424 21.1695 73.5648 21.1112 73.6687 21.0073C73.7726 20.9034 73.8309 20.7626 73.8309 20.6157V17.108H77.058L79.2549 20.8926C79.3036 20.9776 79.3741 21.0482 79.4591 21.0968C79.5441 21.1455 79.6406 21.1706 79.7386 21.1695H80.1079C80.2547 21.1695 80.3956 21.1112 80.4995 21.0073C80.6033 20.9034 80.6617 20.7626 80.6617 20.6157C80.6622 20.5184 80.6367 20.4228 80.5879 20.3387ZM73.8309 12.308H77.3386C77.7793 12.308 78.2019 12.483 78.5135 12.7946C78.8251 13.1062 79.0002 13.5288 79.0002 13.9695C79.0002 14.4102 78.8251 14.8328 78.5135 15.1444C78.2019 15.456 77.7793 15.6311 77.3386 15.6311H73.8309V12.308Z" fill="#0D0D0D"/>
<path d="M69.2164 10.8311H61.4625C61.3156 10.8311 61.1748 10.8894 61.0709 10.9933C60.967 11.0971 60.9087 11.238 60.9087 11.3849V11.7541C60.9087 11.901 60.967 12.0419 61.0709 12.1458C61.1748 12.2496 61.3156 12.308 61.4625 12.308H64.601V20.6157C64.601 20.7626 64.6594 20.9034 64.7632 21.0073C64.8671 21.1112 65.008 21.1695 65.1548 21.1695H65.5241C65.671 21.1695 65.8118 21.1112 65.9157 21.0073C66.0196 20.9034 66.0779 20.7626 66.0779 20.6157V12.308H69.2164C69.3633 12.308 69.5041 12.2496 69.608 12.1458C69.7119 12.0419 69.7702 11.901 69.7702 11.7541V11.3849C69.7702 11.238 69.7119 11.0971 69.608 10.9933C69.5041 10.8894 69.3633 10.8311 69.2164 10.8311Z" fill="#0D0D0D"/>
<path d="M61.0929 19.6926H56.1083V11.3849C56.1083 11.238 56.0499 11.0971 55.9461 10.9933C55.8422 10.8894 55.7013 10.8311 55.5544 10.8311H55.1852C55.0383 10.8311 54.8974 10.8894 54.7936 10.9933C54.6897 11.0971 54.6313 11.238 54.6313 11.3849V20.6157C54.6313 20.7626 54.6897 20.9034 54.7936 21.0073C54.8974 21.1112 55.0383 21.1695 55.1852 21.1695H61.0929C61.2398 21.1695 61.3806 21.1112 61.4845 21.0073C61.5884 20.9034 61.6467 20.7626 61.6467 20.6157V20.2464C61.6467 20.0995 61.5884 19.9587 61.4845 19.8548C61.3806 19.7509 61.2398 19.6926 61.0929 19.6926Z" fill="#0D0D0D"/>
<path d="M51.6822 11.3849C51.6822 11.238 51.6239 11.0971 51.52 10.9933C51.4162 10.8894 51.2753 10.8311 51.1284 10.8311H50.7592C50.6123 10.8311 50.4714 10.8894 50.3675 10.9933C50.2637 11.0971 50.2053 11.238 50.2053 11.3849V17.108C50.2053 17.8424 49.9136 18.5468 49.3942 19.0661C48.8749 19.5855 48.1705 19.8772 47.4361 19.8772C46.7016 19.8772 45.9973 19.5855 45.478 19.0661C44.9586 18.5468 44.6669 17.8424 44.6669 17.108V11.3849C44.6669 11.238 44.6085 11.0971 44.5046 10.9933C44.4008 10.8894 44.2599 10.8311 44.113 10.8311H43.7438C43.5969 10.8311 43.456 10.8894 43.3522 10.9933C43.2483 11.0971 43.1899 11.238 43.1899 11.3849V17.108C43.1899 18.2341 43.6373 19.3142 44.4336 20.1105C45.2299 20.9068 46.3099 21.3541 47.4361 21.3541C48.5622 21.3541 49.6423 20.9068 50.4386 20.1105C51.2349 19.3142 51.6822 18.2341 51.6822 17.108V11.3849Z" fill="#0D0D0D"/>
<path d="M40.4176 10.8311H40.0484C39.938 10.8312 39.8302 10.8643 39.7387 10.9261C39.6473 10.988 39.5764 11.0757 39.5352 11.1781L36.3561 19.172L33.1586 11.1781C33.1174 11.0757 33.0465 10.988 32.955 10.9261C32.8636 10.8643 32.7557 10.8312 32.6453 10.8311H32.2761C32.1324 10.8358 31.9963 10.8963 31.8964 10.9997C31.7965 11.103 31.7406 11.2412 31.7407 11.3849C31.7413 11.4557 31.7551 11.5259 31.7813 11.5917L35.4736 20.8224C35.5144 20.9251 35.5852 21.0132 35.6768 21.0751C35.7683 21.137 35.8764 21.1699 35.9869 21.1695H36.7253C36.8358 21.1699 36.9439 21.137 37.0355 21.0751C37.127 21.0132 37.1978 20.9251 37.2386 20.8224L40.9309 11.5917C40.9571 11.5259 40.9709 11.4557 40.9715 11.3849C40.9715 11.238 40.9131 11.0971 40.8093 10.9933C40.7054 10.8894 40.5645 10.8311 40.4176 10.8311Z" fill="#0D0D0D"/>
<path d="M7.71484 6.91634C7.61529 6.75845 7.47746 6.62827 7.31415 6.5379C7.15083 6.44753 6.96733 6.39989 6.78068 6.39941H1.10561C0.907437 6.39926 0.712855 6.45228 0.54215 6.55293C0.371445 6.65359 0.230868 6.79819 0.135077 6.97167C0.0392854 7.14515 -0.0082121 7.34115 -0.00246342 7.53924C0.00328527 7.73733 0.0620696 7.93024 0.16776 8.09788L1.33084 9.94403L8.88161 8.76249L7.71484 6.91634Z" fill="#0D0D0D"/>
<path d="M8.88259 8.76204C8.78271 8.60362 8.6443 8.47312 8.48029 8.38272C8.31627 8.29232 8.13202 8.24497 7.94475 8.24512H2.26967C2.0715 8.24497 1.87692 8.29798 1.70621 8.39864C1.53551 8.49929 1.39493 8.64389 1.29914 8.81737C1.20335 8.99085 1.15585 9.18686 1.1616 9.38494C1.16735 9.58303 1.22613 9.77595 1.33182 9.94358L2.95275 12.5282L10.4998 11.3467L8.88259 8.76204Z" fill="#0D0D0D"/>
<path d="M2.95308 12.5285C2.84403 12.3512 2.78887 12.1459 2.79431 11.9378C2.79431 11.644 2.91101 11.3622 3.11875 11.1545C3.32648 10.9468 3.60823 10.8301 3.902 10.8301H9.57339C9.76066 10.8299 9.94492 10.8773 10.1089 10.9677C10.2729 11.0581 10.4114 11.1886 10.5112 11.347L15.5882 19.3999C15.6997 19.5768 15.7588 19.7816 15.7588 19.9907C15.7588 20.1998 15.6997 20.4046 15.5882 20.5815L12.7525 25.0824C12.6527 25.2411 12.5144 25.3718 12.3504 25.4625C12.1864 25.5531 12.002 25.6006 11.8146 25.6006C11.6272 25.6006 11.4429 25.5531 11.2789 25.4625C11.1148 25.3718 10.9765 25.2411 10.8768 25.0824L2.95308 12.5285Z" fill="#0D0D0D"/>
<path d="M17.2731 14.9397C17.373 15.0976 17.5112 15.2276 17.6749 15.3177C17.8385 15.4078 18.0223 15.4551 18.2091 15.4551C18.3959 15.4551 18.5797 15.4078 18.7434 15.3177C18.907 15.2276 19.0452 15.0976 19.1451 14.9397L20.1236 13.3926L21.9697 10.4388C22.082 10.2615 22.1416 10.056 22.1416 9.84618C22.1416 9.63635 22.082 9.43084 21.9697 9.25357L20.4928 6.91265C20.3939 6.75701 20.2576 6.62856 20.0964 6.53893C19.9352 6.44931 19.7542 6.40135 19.5697 6.39941H13.8947C13.6965 6.39926 13.5019 6.45228 13.3312 6.55293C13.1605 6.65359 13.0199 6.79819 12.9241 6.97167C12.8283 7.14515 12.7809 7.34115 12.7866 7.53924C12.7923 7.73733 12.8511 7.93024 12.9568 8.09788L17.2731 14.9397Z" fill="#0D0D0D"/>
</g>
<defs>
<clipPath id="clip0_2372_593">
<rect x="-0.5" y="5.9" width="81.66" height="20.2" fill="white"/>
</clipPath>
</defs>
</svg>
