<svg xmlns="http://www.w3.org/2000/svg" width="222.019" height="54.025" viewBox="77.501 5.5 222.019 54.025" fill="none">
<path d="M298.797 44.4757L293.24 34.8631C295.071 34.08 296.576 32.6867 297.501 30.9189C298.425 29.1511 298.713 27.1172 298.315 25.1612C297.917 23.2051 296.857 21.4471 295.316 20.1842C293.775 18.9213 291.846 18.2312 289.855 18.2305H277.662C277.462 18.2296 277.263 18.2686 277.078 18.3451C276.893 18.4217 276.724 18.5343 276.583 18.6764C276.441 18.8185 276.329 18.9874 276.253 19.1733C276.176 19.3591 276.137 19.5583 276.138 19.7593V45.2401C276.138 45.6456 276.299 46.0344 276.585 46.3212C276.87 46.6079 277.258 46.7689 277.662 46.7689H278.678C279.083 46.7689 279.47 46.6079 279.756 46.3212C280.042 46.0344 280.203 45.6456 280.203 45.2401V35.5574H289.093L295.139 46.0045C295.273 46.2371 295.466 46.4302 295.697 46.5644C295.929 46.6986 296.192 46.7691 296.46 46.7689H297.495C297.763 46.7691 298.026 46.6986 298.258 46.5645C298.489 46.4304 298.682 46.2374 298.816 46.0049C298.95 45.7725 299.02 45.5088 299.02 45.2403C299.02 44.9719 298.95 44.7082 298.816 44.4757H298.797ZM280.203 22.3074H289.855C291.068 22.3074 292.231 22.7906 293.089 23.6508C293.946 24.5109 294.428 25.6775 294.428 26.8939C294.428 28.1104 293.946 29.277 293.089 30.1371C292.231 30.9973 291.068 31.4805 289.855 31.4805H280.203V22.3074Z" fill="#142149" />
<path d="M267.501 18.2305H246.163C245.963 18.2296 245.764 18.2686 245.579 18.3451C245.394 18.4217 245.225 18.5343 245.084 18.6764C244.942 18.8185 244.83 18.9874 244.753 19.1733C244.677 19.3591 244.638 19.5583 244.639 19.7593V20.7786C244.638 20.9796 244.677 21.1787 244.753 21.3646C244.83 21.5505 244.942 21.7194 245.084 21.8615C245.225 22.0036 245.394 22.1162 245.579 22.1927C245.764 22.2693 245.963 22.3082 246.163 22.3074H254.8V45.2401C254.8 45.6456 254.961 46.0344 255.247 46.3212C255.532 46.6079 255.92 46.7689 256.324 46.7689H257.34C257.744 46.7673 258.131 46.6057 258.416 46.3193C258.702 46.033 258.863 45.6451 258.864 45.2401V22.3074H267.501C267.905 22.3074 268.293 22.1463 268.579 21.8596C268.865 21.5729 269.025 21.184 269.025 20.7786V19.7593C269.025 19.5586 268.986 19.3598 268.909 19.1743C268.833 18.9888 268.72 18.8202 268.579 18.6783C268.437 18.5363 268.269 18.4237 268.085 18.3469C267.9 18.27 267.701 18.2305 267.501 18.2305Z" fill="#142149" />
<path d="M245.147 42.692H231.43V19.7593C231.431 19.5583 231.392 19.3591 231.316 19.1733C231.239 18.9874 231.127 18.8185 230.986 18.6764C230.844 18.5343 230.676 18.4217 230.49 18.3451C230.305 18.2686 230.106 18.2296 229.906 18.2305H228.89C228.689 18.2296 228.491 18.2686 228.306 18.3451C228.12 18.4217 227.952 18.5343 227.81 18.6764C227.669 18.8185 227.556 18.9874 227.48 19.1733C227.404 19.3591 227.365 19.5583 227.366 19.7593V45.2401C227.366 45.6456 227.526 46.0344 227.812 46.3212C228.098 46.6079 228.486 46.7689 228.89 46.7689H245.147C245.552 46.7689 245.939 46.6079 246.225 46.3212C246.511 46.0344 246.671 45.6456 246.671 45.2401V44.2209C246.672 44.0199 246.633 43.8207 246.557 43.6348C246.481 43.4489 246.369 43.2801 246.227 43.1379C246.085 42.9958 245.917 42.8832 245.732 42.8067C245.546 42.7301 245.348 42.6912 245.147 42.692Z" fill="#142149" />
<path d="M219.237 19.7593C219.238 19.5583 219.199 19.3591 219.123 19.1733C219.047 18.9874 218.934 18.8185 218.793 18.6764C218.651 18.5343 218.483 18.4217 218.297 18.3451C218.112 18.2686 217.914 18.2296 217.713 18.2305H216.697C216.497 18.2296 216.298 18.2686 216.113 18.3451C215.928 18.4217 215.759 18.5343 215.617 18.6764C215.476 18.8185 215.364 18.9874 215.287 19.1733C215.211 19.3591 215.172 19.5583 215.173 19.7593V35.5574C215.173 37.5848 214.37 39.5291 212.941 40.9627C211.512 42.3963 209.573 43.2016 207.552 43.2016C205.531 43.2016 203.593 42.3963 202.164 40.9627C200.734 39.5291 199.932 37.5848 199.932 35.5574V19.7593C199.932 19.3539 199.771 18.965 199.485 18.6783C199.199 18.3916 198.812 18.2305 198.407 18.2305H197.391C197.191 18.2296 196.992 18.2686 196.807 18.3451C196.622 18.4217 196.453 18.5343 196.312 18.6764C196.17 18.8185 196.058 18.9874 195.982 19.1733C195.905 19.3591 195.866 19.5583 195.867 19.7593V35.5574C195.867 38.666 197.098 41.6474 199.29 43.8455C201.481 46.0437 204.453 47.2786 207.552 47.2786C210.651 47.2786 213.623 46.0437 215.815 43.8455C218.006 41.6474 219.237 38.666 219.237 35.5574V19.7593Z" fill="#142149" />
<path d="M188.246 18.2305H187.287C186.982 18.2286 186.683 18.3195 186.43 18.4912C186.178 18.6629 185.983 18.9074 185.871 19.1924L177.069 41.2587L168.267 19.1924C168.156 18.9074 167.961 18.6629 167.708 18.4912C167.455 18.3195 167.156 18.2286 166.851 18.2305H165.892C165.643 18.2304 165.398 18.2915 165.178 18.4085C164.958 18.5255 164.769 18.6948 164.63 18.9016C164.49 19.1084 164.403 19.3463 164.376 19.5947C164.349 19.8431 164.384 20.0943 164.476 20.3263L174.637 45.8071C174.749 46.0916 174.944 46.3356 175.197 46.5071C175.45 46.6787 175.748 46.77 176.053 46.769H178.085C178.39 46.77 178.689 46.6787 178.941 46.5071C179.194 46.3356 179.389 46.0916 179.501 45.8071L189.662 20.3263C189.755 20.0943 189.789 19.8431 189.762 19.5947C189.735 19.3463 189.648 19.1084 189.508 18.9016C189.369 18.6948 189.181 18.5255 188.96 18.4085C188.74 18.2915 188.495 18.2304 188.246 18.2305Z" fill="#142149" />
<path d="M99.2429 7.42693C98.9692 6.98917 98.5889 6.62849 98.1378 6.37886C97.6868 6.12923 97.1798 5.99885 96.6646 6.00001H81.0485C80.5034 6.00005 79.9683 6.14672 79.4989 6.42475C79.0295 6.70278 78.643 7.10199 78.3797 7.58079C78.1164 8.05959 77.9859 8.60045 78.0018 9.14704C78.0177 9.69362 78.1795 10.2259 78.4702 10.6885L81.6455 15.7846L102.418 12.5231L99.2429 7.42693Z" fill="#C9F4FF" />
<path d="M102.444 12.5231C102.17 12.0854 101.79 11.7247 101.339 11.4751C100.887 11.2254 100.38 11.095 99.8653 11.0962H84.2492C83.7041 11.0962 83.169 11.2429 82.6995 11.5209C82.2301 11.799 81.8436 12.1982 81.5803 12.677C81.317 13.1558 81.1865 13.6966 81.2025 14.2432C81.2184 14.7898 81.3802 15.3221 81.6709 15.7847L86.1544 22.9193L106.927 19.6577L102.444 12.5231Z" fill="#51B9FF" />
<path d="M86.154 22.9189C85.8487 22.43 85.6859 21.8651 85.6841 21.2882C85.6841 20.4772 86.0052 19.6995 86.5769 19.1261C87.1486 18.5526 87.9239 18.2305 88.7324 18.2305H104.348C104.864 18.2293 105.371 18.3597 105.822 18.6093C106.273 18.859 106.653 19.2196 106.927 19.6574L120.898 41.8894C121.205 42.3776 121.368 42.943 121.368 43.5201C121.368 44.0973 121.205 44.6627 120.898 45.1509L113.093 57.5983C112.818 58.0351 112.438 58.3951 111.987 58.6445C111.536 58.894 111.03 59.0248 110.515 59.0248C110 59.0248 109.493 58.894 109.043 58.6445C108.592 58.3951 108.211 58.0351 107.936 57.5983L86.154 22.9189Z" fill="#007BFC" />
<path d="M125.534 29.5697C125.808 30.0108 126.189 30.3746 126.642 30.6269C127.095 30.8792 127.604 31.0115 128.122 31.0115C128.64 31.0115 129.149 30.8792 129.602 30.6269C130.055 30.3746 130.436 30.0108 130.71 29.5697L133.377 25.3017L138.496 17.1542C138.803 16.666 138.966 16.1006 138.966 15.5234C138.966 14.9463 138.803 14.3809 138.496 13.8927L134.431 7.42693C134.158 6.98917 133.777 6.62849 133.326 6.37886C132.875 6.12923 132.368 5.99885 131.853 6.00001H116.237C115.692 6.00005 115.157 6.14672 114.687 6.42475C114.218 6.70278 113.831 7.10199 113.568 7.58079C113.305 8.05959 113.174 8.60045 113.19 9.14704C113.206 9.69362 113.368 10.2259 113.659 10.6885L125.534 29.5697Z" fill="#007BFC" />
</svg>
