<svg width="24" height="24" viewBox="0 0 24 24" fill="none" xmlns="http://www.w3.org/2000/svg">
<path d="M12 23C18.0751 23 23 18.0751 23 12C23 5.92487 18.0751 1 12 1C5.92487 1 1 5.92487 1 12C1 18.0751 5.92487 23 12 23Z" stroke="#2F6FF0" stroke-width="2" stroke-linecap="round" stroke-linejoin="round"/>
<path d="M10.59 10.59L7 7" stroke="#2F6FF0" stroke-width="2" stroke-linecap="round" stroke-linejoin="round"/>
<path d="M12 14C13.1046 14 14 13.1046 14 12C14 10.8954 13.1046 10 12 10C10.8954 10 10 10.8954 10 12C10 13.1046 10.8954 14 12 14Z" stroke="#2F6FF0" stroke-width="2" stroke-linecap="round" stroke-linejoin="round"/>
<path d="M12 5V6" stroke="#2F6FF0" stroke-width="2" stroke-linecap="round" stroke-linejoin="round"/>
<path d="M16.9502 7.05005L16.2432 7.75705" stroke="#2F6FF0" stroke-width="2" stroke-linecap="round" stroke-linejoin="round"/>
<path d="M19 12H18" stroke="#2F6FF0" stroke-width="2" stroke-linecap="round" stroke-linejoin="round"/>
<path d="M6 12H5" stroke="#2F6FF0" stroke-width="2" stroke-linecap="round" stroke-linejoin="round"/>
</svg>
