<svg id="Layer_1" data-name="Layer 1" xmlns="http://www.w3.org/2000/svg"
     viewBox="0 0 122.88 116.67">
    <defs>
        <style>.cls-1{fill-rule:evenodd;}</style>
    </defs>
    <title>data-encryption</title>
    <path class="cls-1"
          fill="#ffffff"
          d="M81.06,82.38q0-3.48,1.26-4.88a4.92,4.92,0,0,1,3.82-1.39,5.55,5.55,0,0,1,2,.31,3.57,3.57,0,0,1,1.29.79,3.9,3.9,0,0,1,.79,1,5.17,5.17,0,0,1,.47,1.26,12.09,12.09,0,0,1,.34,2.85,8.35,8.35,0,0,1-1.13,4.87c-.75,1-2,1.54-3.88,1.54a5.38,5.38,0,0,1-2.49-.49A4,4,0,0,1,82,86.82,5.27,5.27,0,0,1,81.31,85a12.86,12.86,0,0,1-.25-2.59ZM16.94,25.56c7.76,2.6,18.58,4.2,30.59,4.2s22.82-1.6,30.58-4.2c6.82-2.28,11-5,11-7.72s-4.22-5.45-11-7.73c-7.76-2.58-18.57-4.2-30.57-4.2s-22.83,1.62-30.6,4.2c-14.45,4.83-14.85,10.49,0,15.45ZM6,47c.53,2.52,4.63,5,11,7.16,7.76,2.6,18.58,4.2,30.59,4.2,4.18,0,8.23-.2,12.05-.56v6c-3.84.35-7.88.54-12,.54-12.62,0-24.09-1.72-32.45-4.52A37,37,0,0,1,6,55.5V73.22c.53,2.52,4.63,5,11,7.17,7.76,2.58,18.58,4.19,30.59,4.19,4.17,0,8.22-.19,12-.55V90c-3.85.35-7.89.54-12.05.54-12.61,0-24.09-1.73-32.45-4.53A37.33,37.33,0,0,1,6,81.67V99.4c.53,2.51,4.63,5,11,7.16,7.77,2.59,18.58,4.2,30.59,4.2,4.19,0,8.23-.2,12-.57v4.6a8.41,8.41,0,0,0,.07,1.33c-3.87.36-7.93.55-12.11.55-12.61,0-24.09-1.73-32.45-4.53C10.68,110.67,0,105.83,0,100.05V98.16C0,71.77,0,44.23,0,17.88,0,12.31,5.76,7.63,15.06,4.52,23.44,1.72,34.93,0,47.54,0S71.61,1.72,80,4.53s14,7,14.94,11.85a2.91,2.91,0,0,1,.17,1V39.78H89.17v-13A36.86,36.86,0,0,1,80,31.14C71.63,34,60.16,35.67,47.55,35.67S23.45,34,15.06,31.14A36.93,36.93,0,0,1,6,26.86V47Zm100,3.31a1.49,1.49,0,0,0-1-.37.86.86,0,0,0-.22,0H72.89a3.12,3.12,0,0,0-2.22.93,3.09,3.09,0,0,0-.93,2.22v60.38a3.18,3.18,0,0,0,3.15,3.16h46.79a3.18,3.18,0,0,0,3.15-3.16V68.34a1.34,1.34,0,0,0,0-.35,1.51,1.51,0,0,0-.48-1.07L106.12,50.43a.53.53,0,0,0-.12-.1Zm-3.27,3.77V65.46a5.08,5.08,0,0,0,1.25,3.36,5.91,5.91,0,0,0,3.59,1.41h11.22v42c0,.07-.11.17-.18.22s0,.1-.15.1H74.16a.25.25,0,0,1-.22-.1.37.37,0,0,1-.1-.22V54.43a.24.24,0,0,1,.1-.23.3.3,0,0,1,.22-.1Zm3.72,11V54.81L118,66.59H107.85a1.54,1.54,0,0,1-1-.42,1.48,1.48,0,0,1-.42-1Zm-4,36.5q0-3.48,1.25-4.88a4.91,4.91,0,0,1,3.83-1.39,5.74,5.74,0,0,1,2,.3,3.88,3.88,0,0,1,1.3.8,4.38,4.38,0,0,1,.79,1,5.62,5.62,0,0,1,.46,1.26,11.59,11.59,0,0,1,.34,2.85,8.27,8.27,0,0,1-1.13,4.87c-.74,1-2,1.54-3.87,1.54a5.45,5.45,0,0,1-2.5-.49,4.08,4.08,0,0,1-1.56-1.45,5.54,5.54,0,0,1-.69-1.84,12.89,12.89,0,0,1-.24-2.59Zm3.36,0a8.1,8.1,0,0,0,.42,3.18,1.29,1.29,0,0,0,1.2.86,1.25,1.25,0,0,0,.89-.36,2.34,2.34,0,0,0,.56-1.15,12,12,0,0,0,.18-2.44,8.68,8.68,0,0,0-.41-3.28,1.33,1.33,0,0,0-1.24-.84,1.26,1.26,0,0,0-1.22.86,9,9,0,0,0-.38,3.17Zm-7-6.28v12.44H95.23V99.67a10.17,10.17,0,0,1-1.61,1,11.79,11.79,0,0,1-2,.74V98.67a8.47,8.47,0,0,0,2.7-1.35,5.55,5.55,0,0,0,1.5-1.95Zm-11.4,0v12.44H83.84V99.67a10.23,10.23,0,0,1-1.62,1,12,12,0,0,1-2,.74V98.67A8.52,8.52,0,0,0,83,97.32a5.69,5.69,0,0,0,1.51-1.95Zm24.29-19.26V88.55h-3.44V80.41a10.17,10.17,0,0,1-1.61,1,12.67,12.67,0,0,1-2,.75V79.41a8.47,8.47,0,0,0,2.7-1.35,5.55,5.55,0,0,0,1.5-2Zm-19.1,6.27q0-3.48,1.25-4.88a4.94,4.94,0,0,1,3.83-1.39,5.5,5.5,0,0,1,2,.31,3.71,3.71,0,0,1,1.3.79,4.38,4.38,0,0,1,.79,1,5.62,5.62,0,0,1,.46,1.26,11.59,11.59,0,0,1,.34,2.85,8.27,8.27,0,0,1-1.13,4.87c-.74,1-2,1.54-3.87,1.54a5.45,5.45,0,0,1-2.5-.49,4.13,4.13,0,0,1-1.56-1.44A5.69,5.69,0,0,1,92.7,85a12.89,12.89,0,0,1-.24-2.59Zm3.36,0a8.1,8.1,0,0,0,.42,3.18,1.29,1.29,0,0,0,1.2.86,1.25,1.25,0,0,0,.89-.36,2.29,2.29,0,0,0,.56-1.15,12,12,0,0,0,.18-2.44,8.72,8.72,0,0,0-.41-3.28,1.33,1.33,0,0,0-1.24-.83,1.25,1.25,0,0,0-1.22.85,9,9,0,0,0-.38,3.17Zm-11.39,0a8.14,8.14,0,0,0,.41,3.18,1.31,1.31,0,0,0,1.2.86,1.29,1.29,0,0,0,.9-.36,2.29,2.29,0,0,0,.56-1.15,12.73,12.73,0,0,0,.18-2.44,8.46,8.46,0,0,0-.42-3.28A1.32,1.32,0,0,0,86,78.37a1.27,1.27,0,0,0-1.22.85,9,9,0,0,0-.37,3.17Z"/>
</svg>