<svg width="286" height="144" viewBox="0 0 286 144" fill="none" xmlns="http://www.w3.org/2000/svg">
<rect width="286" height="144" rx="8" fill="#E1E5F0"/>
<path d="M215 30.5C214.724 30.5 214.5 30.7239 214.5 31C214.5 31.2761 214.724 31.5 215 31.5V30.5ZM235 51L237.887 46H232.113L235 51ZM235.5 48C235.5 47.7239 235.276 47.5 235 47.5C234.724 47.5 234.5 47.7239 234.5 48H235.5ZM234.5 42C234.5 42.2761 234.724 42.5 235 42.5C235.276 42.5 235.5 42.2761 235.5 42H234.5ZM235.338 37.3417C235.285 37.0708 235.022 36.8946 234.751 36.9482C234.48 37.0018 234.304 37.2648 234.357 37.5357L235.338 37.3417ZM233.237 34.8332C233.391 35.0627 233.701 35.1242 233.931 34.9706C234.16 34.8169 234.222 34.5064 234.068 34.2769L233.237 34.8332ZM231.723 31.932C231.494 31.7784 231.183 31.8399 231.029 32.0693C230.876 32.2988 230.937 32.6093 231.167 32.763L231.723 31.932ZM228.464 31.6428C228.735 31.6964 228.998 31.5202 229.052 31.2493C229.105 30.9784 228.929 30.7154 228.658 30.6618L228.464 31.6428ZM225.5 30.5C225.224 30.5 225 30.7239 225 31C225 31.2761 225.224 31.5 225.5 31.5V30.5ZM222.5 31.5C222.776 31.5 223 31.2761 223 31C223 30.7239 222.776 30.5 222.5 30.5V31.5ZM219.5 30.5C219.224 30.5 219 30.7239 219 31C219 31.2761 219.224 31.5 219.5 31.5V30.5ZM216.5 31.5C216.776 31.5 217 31.2761 217 31C217 30.7239 216.776 30.5 216.5 30.5V31.5ZM235.5 42V39H234.5V42H235.5ZM235.5 39C235.5 38.433 235.444 37.8784 235.338 37.3417L234.357 37.5357C234.451 38.0089 234.5 38.4985 234.5 39H235.5ZM234.068 34.2769C233.448 33.3502 232.65 32.5524 231.723 31.932L231.167 32.763C231.985 33.3107 232.689 34.0151 233.237 34.8332L234.068 34.2769ZM228.658 30.6618C228.122 30.5556 227.567 30.5 227 30.5V31.5C227.502 31.5 227.991 31.5492 228.464 31.6428L228.658 30.6618ZM227 30.5H225.5V31.5H227V30.5ZM222.5 30.5H219.5V31.5H222.5V30.5ZM216.5 30.5H215V31.5H216.5V30.5Z" fill="#717C99"/>
<path d="M235.5 104C235.5 103.724 235.276 103.5 235 103.5C234.724 103.5 234.5 103.724 234.5 104H235.5ZM167 104L172 106.887V101.113L167 104ZM169.062 104.5C169.339 104.5 169.562 104.276 169.562 104C169.562 103.724 169.339 103.5 169.062 103.5V104.5ZM173.188 103.5C172.911 103.5 172.688 103.724 172.688 104C172.688 104.276 172.911 104.5 173.188 104.5V103.5ZM177.312 104.5C177.589 104.5 177.812 104.276 177.812 104C177.812 103.724 177.589 103.5 177.312 103.5V104.5ZM181.438 103.5C181.161 103.5 180.938 103.724 180.938 104C180.938 104.276 181.161 104.5 181.438 104.5V103.5ZM184.964 104.643C185.235 104.696 185.498 104.52 185.552 104.249C185.605 103.978 185.429 103.715 185.158 103.662L184.964 104.643ZM188.223 104.932C187.994 104.778 187.683 104.84 187.529 105.069C187.376 105.299 187.437 105.609 187.667 105.763L188.223 104.932ZM189.737 107.833C189.891 108.063 190.201 108.124 190.431 107.971C190.66 107.817 190.722 107.506 190.568 107.277L189.737 107.833ZM191.838 110.342C191.785 110.071 191.522 109.895 191.251 109.948C190.98 110.002 190.804 110.265 190.857 110.536L191.838 110.342ZM191 113C191 113.276 191.224 113.5 191.5 113.5C191.776 113.5 192 113.276 192 113H191ZM192 115C192 114.724 191.776 114.5 191.5 114.5C191.224 114.5 191 114.724 191 115H192ZM191.162 117.658C191.215 117.929 191.478 118.105 191.749 118.052C192.02 117.998 192.196 117.735 192.143 117.464L191.162 117.658ZM193.263 120.167C193.109 119.937 192.799 119.876 192.569 120.029C192.34 120.183 192.278 120.494 192.432 120.723L193.263 120.167ZM194.777 123.068C195.006 123.222 195.317 123.16 195.471 122.931C195.624 122.701 195.563 122.391 195.333 122.237L194.777 123.068ZM198.036 123.357C197.765 123.304 197.502 123.48 197.448 123.751C197.395 124.022 197.571 124.285 197.842 124.338L198.036 123.357ZM201.792 124.5C202.068 124.5 202.292 124.276 202.292 124C202.292 123.724 202.068 123.5 201.792 123.5V124.5ZM206.375 123.5C206.099 123.5 205.875 123.724 205.875 124C205.875 124.276 206.099 124.5 206.375 124.5V123.5ZM210.958 124.5C211.234 124.5 211.458 124.276 211.458 124C211.458 123.724 211.234 123.5 210.958 123.5V124.5ZM215.542 123.5C215.266 123.5 215.042 123.724 215.042 124C215.042 124.276 215.266 124.5 215.542 124.5V123.5ZM220.125 124.5C220.401 124.5 220.625 124.276 220.625 124C220.625 123.724 220.401 123.5 220.125 123.5V124.5ZM224.708 123.5C224.432 123.5 224.208 123.724 224.208 124C224.208 124.276 224.432 124.5 224.708 124.5V123.5ZM228.658 124.338C228.929 124.285 229.105 124.022 229.052 123.751C228.998 123.48 228.735 123.304 228.464 123.357L228.658 124.338ZM231.167 122.237C230.937 122.391 230.876 122.701 231.029 122.931C231.183 123.16 231.494 123.222 231.723 123.068L231.167 122.237ZM234.068 120.723C234.222 120.494 234.16 120.183 233.931 120.029C233.701 119.876 233.391 119.937 233.237 120.167L234.068 120.723ZM234.357 117.464C234.304 117.735 234.48 117.998 234.751 118.052C235.022 118.105 235.285 117.929 235.338 117.658L234.357 117.464ZM235.5 114.5C235.5 114.224 235.276 114 235 114C234.724 114 234.5 114.224 234.5 114.5H235.5ZM234.5 111.5C234.5 111.776 234.724 112 235 112C235.276 112 235.5 111.776 235.5 111.5H234.5ZM235.5 108.5C235.5 108.224 235.276 108 235 108C234.724 108 234.5 108.224 234.5 108.5H235.5ZM234.5 105.5C234.5 105.776 234.724 106 235 106C235.276 106 235.5 105.776 235.5 105.5H234.5ZM173.188 104.5H177.312V103.5H173.188V104.5ZM181.438 104.5H183.5V103.5H181.438V104.5ZM183.5 104.5C184.002 104.5 184.491 104.549 184.964 104.643L185.158 103.662C184.622 103.556 184.067 103.5 183.5 103.5V104.5ZM187.667 105.763C188.485 106.311 189.189 107.015 189.737 107.833L190.568 107.277C189.948 106.35 189.15 105.552 188.223 104.932L187.667 105.763ZM190.857 110.536C190.951 111.009 191 111.498 191 112H192C192 111.433 191.944 110.878 191.838 110.342L190.857 110.536ZM191 112V113H192V112H191ZM191 115V116H192V115H191ZM191 116C191 116.567 191.056 117.122 191.162 117.658L192.143 117.464C192.049 116.991 192 116.502 192 116H191ZM192.432 120.723C193.052 121.65 193.85 122.448 194.777 123.068L195.333 122.237C194.515 121.689 193.811 120.985 193.263 120.167L192.432 120.723ZM197.842 124.338C198.378 124.444 198.933 124.5 199.5 124.5V123.5C198.998 123.5 198.509 123.451 198.036 123.357L197.842 124.338ZM199.5 124.5H201.792V123.5H199.5V124.5ZM206.375 124.5H210.958V123.5H206.375V124.5ZM215.542 124.5H220.125V123.5H215.542V124.5ZM224.708 124.5H227V123.5H224.708V124.5ZM227 124.5C227.567 124.5 228.122 124.444 228.658 124.338L228.464 123.357C227.991 123.451 227.502 123.5 227 123.5V124.5ZM231.723 123.068C232.65 122.448 233.448 121.65 234.068 120.723L233.237 120.167C232.689 120.985 231.985 121.689 231.167 122.237L231.723 123.068ZM235.338 117.658C235.444 117.122 235.5 116.567 235.5 116H234.5C234.5 116.502 234.451 116.991 234.357 117.464L235.338 117.658ZM235.5 116V114.5H234.5V116H235.5ZM235.5 111.5V108.5H234.5V111.5H235.5ZM235.5 105.5V104H234.5V105.5H235.5Z" fill="#717C99"/>
<path d="M51.5 104C51.5 103.724 51.7239 103.5 52 103.5C52.2761 103.5 52.5 103.724 52.5 104H51.5ZM120 104L115 106.887V101.113L120 104ZM117.938 104.5C117.661 104.5 117.438 104.276 117.438 104C117.438 103.724 117.661 103.5 117.938 103.5V104.5ZM113.812 103.5C114.089 103.5 114.312 103.724 114.312 104C114.312 104.276 114.089 104.5 113.812 104.5V103.5ZM109.688 104.5C109.411 104.5 109.188 104.276 109.188 104C109.188 103.724 109.411 103.5 109.688 103.5V104.5ZM105.562 103.5C105.839 103.5 106.062 103.724 106.062 104C106.062 104.276 105.839 104.5 105.562 104.5V103.5ZM102.036 104.643C101.765 104.696 101.502 104.52 101.448 104.249C101.395 103.978 101.571 103.715 101.842 103.662L102.036 104.643ZM98.7769 104.932C99.0064 104.778 99.3169 104.84 99.4706 105.069C99.6242 105.299 99.5627 105.609 99.3332 105.763L98.7769 104.932ZM97.263 107.833C97.1093 108.063 96.7988 108.124 96.5693 107.971C96.3399 107.817 96.2784 107.506 96.432 107.277L97.263 107.833ZM95.1618 110.342C95.2154 110.071 95.4784 109.895 95.7493 109.948C96.0202 110.002 96.1964 110.265 96.1428 110.536L95.1618 110.342ZM96 113C96 113.276 95.7761 113.5 95.5 113.5C95.2239 113.5 95 113.276 95 113H96ZM95 115C95 114.724 95.2239 114.5 95.5 114.5C95.7761 114.5 96 114.724 96 115H95ZM95.8382 117.658C95.7846 117.929 95.5216 118.105 95.2507 118.052C94.9798 117.998 94.8036 117.735 94.8572 117.464L95.8382 117.658ZM93.737 120.167C93.8907 119.937 94.2012 119.876 94.4307 120.029C94.6601 120.183 94.7216 120.494 94.568 120.723L93.737 120.167ZM92.2231 123.068C91.9936 123.222 91.6831 123.16 91.5294 122.931C91.3758 122.701 91.4373 122.391 91.6668 122.237L92.2231 123.068ZM88.9643 123.357C89.2352 123.304 89.4982 123.48 89.5518 123.751C89.6054 124.022 89.4292 124.285 89.1583 124.338L88.9643 123.357ZM85.2083 124.5C84.9322 124.5 84.7083 124.276 84.7083 124C84.7083 123.724 84.9322 123.5 85.2083 123.5V124.5ZM80.625 123.5C80.9011 123.5 81.125 123.724 81.125 124C81.125 124.276 80.9011 124.5 80.625 124.5V123.5ZM76.0417 124.5C75.7655 124.5 75.5417 124.276 75.5417 124C75.5417 123.724 75.7655 123.5 76.0417 123.5V124.5ZM71.4583 123.5C71.7345 123.5 71.9583 123.724 71.9583 124C71.9583 124.276 71.7345 124.5 71.4583 124.5V123.5ZM66.875 124.5C66.5989 124.5 66.375 124.276 66.375 124C66.375 123.724 66.5989 123.5 66.875 123.5V124.5ZM62.2917 123.5C62.5678 123.5 62.7917 123.724 62.7917 124C62.7917 124.276 62.5678 124.5 62.2917 124.5V123.5ZM58.3417 124.338C58.0708 124.285 57.8946 124.022 57.9482 123.751C58.0018 123.48 58.2648 123.304 58.5357 123.357L58.3417 124.338ZM55.8332 122.237C56.0627 122.391 56.1242 122.701 55.9706 122.931C55.8169 123.16 55.5064 123.222 55.2769 123.068L55.8332 122.237ZM52.932 120.723C52.7784 120.494 52.8399 120.183 53.0693 120.029C53.2988 119.876 53.6093 119.937 53.763 120.167L52.932 120.723ZM52.6428 117.464C52.6964 117.735 52.5202 117.998 52.2493 118.052C51.9784 118.105 51.7154 117.929 51.6618 117.658L52.6428 117.464ZM51.5 114.5C51.5 114.224 51.7239 114 52 114C52.2761 114 52.5 114.224 52.5 114.5H51.5ZM52.5 111.5C52.5 111.776 52.2761 112 52 112C51.7239 112 51.5 111.776 51.5 111.5H52.5ZM51.5 108.5C51.5 108.224 51.7239 108 52 108C52.2761 108 52.5 108.224 52.5 108.5H51.5ZM52.5 105.5C52.5 105.776 52.2761 106 52 106C51.7239 106 51.5 105.776 51.5 105.5H52.5ZM113.812 104.5H109.688V103.5H113.812V104.5ZM105.562 104.5H103.5V103.5H105.562V104.5ZM103.5 104.5C102.998 104.5 102.509 104.549 102.036 104.643L101.842 103.662C102.378 103.556 102.933 103.5 103.5 103.5V104.5ZM99.3332 105.763C98.5151 106.311 97.8107 107.015 97.263 107.833L96.432 107.277C97.0524 106.35 97.8502 105.552 98.7769 104.932L99.3332 105.763ZM96.1428 110.536C96.0492 111.009 96 111.498 96 112H95C95 111.433 95.0556 110.878 95.1618 110.342L96.1428 110.536ZM96 112V113H95V112H96ZM96 115V116H95V115H96ZM96 116C96 116.567 95.9444 117.122 95.8382 117.658L94.8572 117.464C94.9508 116.991 95 116.502 95 116H96ZM94.568 120.723C93.9476 121.65 93.1498 122.448 92.2231 123.068L91.6668 122.237C92.4849 121.689 93.1893 120.985 93.737 120.167L94.568 120.723ZM89.1583 124.338C88.6216 124.444 88.067 124.5 87.5 124.5V123.5C88.0015 123.5 88.4911 123.451 88.9643 123.357L89.1583 124.338ZM87.5 124.5H85.2083V123.5H87.5V124.5ZM80.625 124.5H76.0417V123.5H80.625V124.5ZM71.4583 124.5H66.875V123.5H71.4583V124.5ZM62.2917 124.5H60V123.5H62.2917V124.5ZM60 124.5C59.433 124.5 58.8784 124.444 58.3417 124.338L58.5357 123.357C59.0089 123.451 59.4985 123.5 60 123.5V124.5ZM55.2769 123.068C54.3502 122.448 53.5524 121.65 52.932 120.723L53.763 120.167C54.3107 120.985 55.0151 121.689 55.8332 122.237L55.2769 123.068ZM51.6618 117.658C51.5556 117.122 51.5 116.567 51.5 116H52.5C52.5 116.502 52.5492 116.991 52.6428 117.464L51.6618 117.658ZM51.5 116V114.5H52.5V116H51.5ZM51.5 111.5V108.5H52.5V111.5H51.5ZM51.5 105.5V104H52.5V105.5H51.5Z" fill="#717C99"/>
<path d="M72 32.5C72.2761 32.5 72.5 32.2761 72.5 32C72.5 31.7239 72.2761 31.5 72 31.5V32.5ZM52 52L54.8868 47H49.1132L52 52ZM70.5 31.5C70.2239 31.5 70 31.7239 70 32C70 32.2761 70.2239 32.5 70.5 32.5V31.5ZM67.5 32.5C67.7761 32.5 68 32.2761 68 32C68 31.7239 67.7761 31.5 67.5 31.5V32.5ZM64.5 31.5C64.2239 31.5 64 31.7239 64 32C64 32.2761 64.2239 32.5 64.5 32.5V31.5ZM61.5 32.5C61.7761 32.5 62 32.2761 62 32C62 31.7239 61.7761 31.5 61.5 31.5V32.5ZM58.3417 31.6618C58.0708 31.7154 57.8946 31.9784 57.9482 32.2493C58.0018 32.5202 58.2648 32.6964 58.5357 32.6428L58.3417 31.6618ZM55.8332 33.763C56.0627 33.6093 56.1242 33.2988 55.9706 33.0693C55.8169 32.8399 55.5064 32.7784 55.2769 32.932L55.8332 33.763ZM52.932 35.2769C52.7784 35.5064 52.8399 35.8169 53.0693 35.9706C53.2988 36.1242 53.6093 36.0627 53.763 35.8332L52.932 35.2769ZM52.6428 38.5357C52.6964 38.2648 52.5202 38.0018 52.2493 37.9482C51.9784 37.8946 51.7154 38.0708 51.6618 38.3417L52.6428 38.5357ZM51.5 43C51.5 43.2761 51.7239 43.5 52 43.5C52.2761 43.5 52.5 43.2761 52.5 43H51.5ZM52.5 49C52.5 48.7239 52.2761 48.5 52 48.5C51.7239 48.5 51.5 48.7239 51.5 49H52.5ZM72 31.5H70.5V32.5H72V31.5ZM67.5 31.5H64.5V32.5H67.5V31.5ZM61.5 31.5H60V32.5H61.5V31.5ZM60 31.5C59.433 31.5 58.8784 31.5556 58.3417 31.6618L58.5357 32.6428C59.0089 32.5492 59.4985 32.5 60 32.5V31.5ZM55.2769 32.932C54.3502 33.5524 53.5524 34.3502 52.932 35.2769L53.763 35.8332C54.3107 35.0151 55.0151 34.3107 55.8332 33.763L55.2769 32.932ZM51.6618 38.3417C51.5556 38.8784 51.5 39.433 51.5 40H52.5C52.5 39.4985 52.5492 39.0089 52.6428 38.5357L51.6618 38.3417ZM51.5 40V43H52.5V40H51.5Z" fill="#717C99"/>
<path d="M63.625 92L61 93.5V96.5L63.625 98L66.25 96.5V93.5L63.625 92Z" fill="#038585"/>
<path d="M37.625 93L35 94.5V97.5L37.625 99L40.25 97.5V94.5L37.625 93Z" fill="#2F6FF0"/>
<path d="M66.625 56L64 57.5V60.5L66.625 62L69.25 60.5V57.5L66.625 56Z" fill="#DC244C"/>
<path d="M78.625 79L76 80.5V83.5L78.625 85L81.25 83.5V80.5L78.625 79Z" fill="#DC244C"/>
<path d="M35.625 56L33 57.5V60.5L35.625 62L38.25 60.5V57.5L35.625 56Z" fill="#038585"/>
<path d="M21.625 77L19 78.5V81.5L21.625 83L24.25 81.5V78.5L21.625 77Z" fill="#2F6FF0"/>
<path d="M50.625 63L48 64.5V67.5L50.625 69L53.25 67.5V64.5L50.625 63Z" fill="#2F6FF0"/>
<path d="M50.625 85L48 86.5V89.5L50.625 91L53.25 89.5V86.5L50.625 85Z" fill="#DC244C"/>
<path d="M38.625 75L36 76.5V79.5L38.625 81L41.25 79.5V76.5L38.625 75Z" fill="#8547FF"/>
<path d="M61.625 75L59 76.5V79.5L61.625 81L64.25 79.5V76.5L61.625 75Z" fill="#8547FF"/>
<path d="M248.625 92L246 93.5V96.5L248.625 98L251.25 96.5V93.5L248.625 92Z" fill="#038585"/>
<path d="M222.625 93L220 94.5V97.5L222.625 99L225.25 97.5V94.5L222.625 93Z" fill="#2F6FF0"/>
<path d="M251.625 56L249 57.5V60.5L251.625 62L254.25 60.5V57.5L251.625 56Z" fill="#DC244C"/>
<path d="M263.625 79L261 80.5V83.5L263.625 85L266.25 83.5V80.5L263.625 79Z" fill="#DC244C"/>
<path d="M220.625 56L218 57.5V60.5L220.625 62L223.25 60.5V57.5L220.625 56Z" fill="#038585"/>
<path d="M206.625 77L204 78.5V81.5L206.625 83L209.25 81.5V78.5L206.625 77Z" fill="#2F6FF0"/>
<path d="M235.625 63L233 64.5V67.5L235.625 69L238.25 67.5V64.5L235.625 63Z" fill="#2F6FF0"/>
<path d="M235.625 85L233 86.5V89.5L235.625 91L238.25 89.5V86.5L235.625 85Z" fill="#DC244C"/>
<path d="M223.625 75L221 76.5V79.5L223.625 81L226.25 79.5V76.5L223.625 75Z" fill="#8547FF"/>
<path d="M246.625 75L244 76.5V79.5L246.625 81L249.25 79.5V76.5L246.625 75Z" fill="#8547FF"/>
<rect x="71.5" y="21.5" width="143" height="19" rx="9.5" fill="white"/>
<rect x="71.5" y="21.5" width="143" height="19" rx="9.5" stroke="#B4BACC"/>
<rect x="81" y="30" width="88" height="2" rx="1" fill="#8F98B3"/>
<g clip-path="url(#clip0_4104_27021)">
<path d="M203.998 36L200.826 32.828" stroke="#2F6FF0" stroke-linecap="round" stroke-linejoin="round"/>
<path d="M197.998 33.9999C200.207 33.9999 201.998 32.209 201.998 29.9999C201.998 27.7907 200.207 25.9999 197.998 25.9999C195.789 25.9999 193.998 27.7907 193.998 29.9999C193.998 32.209 195.789 33.9999 197.998 33.9999Z" stroke="#2F6FF0" stroke-linecap="round" stroke-linejoin="round"/>
</g>
<path d="M161 112H131C129.895 112 129 111.105 129 110V74C129 72.895 129.895 72 131 72H161C162.105 72 163 72.895 163 74V110C163 111.105 162.105 112 161 112Z" fill="#8F98B3"/>
<path d="M155 118H125C123.895 118 123 117.105 123 116V80C123 78.895 123.895 78 125 78H155C156.105 78 157 78.895 157 80V116C157 117.105 156.105 118 155 118Z" fill="white"/>
<path d="M148 90H132C131.448 90 131 89.552 131 89C131 88.448 131.448 88 132 88H148C148.552 88 149 88.448 149 89C149 89.552 148.552 90 148 90Z" fill="#8F98B3"/>
<path d="M148 98H132C131.448 98 131 97.552 131 97C131 96.448 131.448 96 132 96H148C148.552 96 149 96.448 149 97C149 97.552 148.552 98 148 98Z" fill="#8F98B3"/>
<path d="M140 106H132C131.448 106 131 105.552 131 105C131 104.448 131.448 104 132 104H140C140.552 104 141 104.448 141 105C141 105.552 140.552 106 140 106Z" fill="#8F98B3"/>
<defs>
<clipPath id="clip0_4104_27021">
<rect width="12" height="12" fill="white" transform="translate(193 25)"/>
</clipPath>
</defs>
</svg>
