<svg width="286" height="144" viewBox="0 0 286 144" fill="none" xmlns="http://www.w3.org/2000/svg">
<rect width="286" height="144" rx="8" fill="#E1E5F0"/>
<path d="M110.098 55.7415L62.565 62.4218C60.5959 62.6986 59.2243 64.5188 59.501 66.4878L64.8453 104.514C65.122 106.483 66.9422 107.855 68.9113 107.578L116.444 100.898C118.413 100.621 119.785 98.8008 119.508 96.8318L114.164 58.8055C113.887 56.8364 112.067 55.4648 110.098 55.7415Z" fill="#B4BACC"/>
<path d="M78.1421 78.41C80.7672 78.041 82.5963 75.6138 82.2273 72.9886C81.8584 70.3635 79.4311 68.5344 76.806 68.9034C74.1809 69.2723 72.3518 71.6996 72.7208 74.3247C73.0897 76.9498 75.517 78.7789 78.1421 78.41Z" fill="#8F98B3"/>
<path d="M110.121 91.498L96.7544 73.9879C96.5033 73.6585 96.1018 73.4834 95.6902 73.5207C95.2803 73.5529 94.9148 73.8066 94.7293 74.1768L86.8515 89.8437L79.8688 84.5819C79.5817 84.3665 79.2226 84.2946 78.8629 84.3742C78.5137 84.4585 78.2211 84.6959 78.0654 85.0195L72.4385 96.7164C72.2474 97.1153 72.2894 97.5869 72.5505 97.944C72.8115 98.3012 73.2482 98.4858 73.6867 98.4241L109.336 93.4139C109.758 93.3546 110.118 93.0763 110.279 92.6816C110.441 92.2869 110.382 91.8358 110.123 91.4978L110.121 91.498Z" fill="#8F98B3"/>
<path d="M223.231 62.4216L175.698 55.7413C173.729 55.4645 171.909 56.8362 171.632 58.8052L166.288 96.8315C166.011 98.8005 167.382 100.621 169.351 100.897L216.884 107.578C218.853 107.855 220.674 106.483 220.95 104.514L226.295 66.4876C226.571 64.5185 225.2 62.6983 223.231 62.4216Z" fill="#B4BACC"/>
<path d="M186.265 75.4035C188.89 75.7724 191.317 73.9434 191.686 71.3182C192.055 68.6931 190.226 66.2658 187.601 65.8969C184.976 65.528 182.549 67.357 182.18 69.9822C181.811 72.6073 183.64 75.0345 186.265 75.4035Z" fill="#8F98B3"/>
<path d="M213.398 96.7992L205.375 76.283C205.224 75.8971 204.887 75.6182 204.481 75.5405C204.078 75.4584 203.656 75.6016 203.376 75.9064L191.485 88.7949L186.223 81.8122C186.007 81.5261 185.681 81.358 185.314 81.3354C184.955 81.3201 184.608 81.4677 184.369 81.7358L175.736 91.4287C175.442 91.7594 175.353 92.2243 175.505 92.6395C175.658 93.0548 176.027 93.3527 176.465 93.4143L212.115 98.4245C212.537 98.4838 212.959 98.3153 213.223 97.9804C213.487 97.6455 213.555 97.1958 213.399 96.7994L213.398 96.7992Z" fill="#8F98B3"/>
<path d="M169.665 46.6666H116.332C114.123 46.6666 112.332 48.4573 112.332 50.6666V93.3333C112.332 95.5426 114.123 97.3333 116.332 97.3333H169.665C171.875 97.3333 173.665 95.5426 173.665 93.3333V50.6666C173.665 48.4573 171.875 46.6666 169.665 46.6666Z" fill="#F0F3FA"/>
<path d="M130.999 66.6667C133.945 66.6667 136.333 64.2788 136.333 61.3333C136.333 58.3879 133.945 56 130.999 56C128.054 56 125.666 58.3879 125.666 61.3333C125.666 64.2788 128.054 66.6667 130.999 66.6667Z" fill="#2F6FF0"/>
<path d="M164.161 86.013L152.161 64.6797C151.936 64.2784 151.521 64.0237 151.063 64.001C150.607 63.973 150.165 64.1957 149.904 64.5744L138.813 80.5944L131.944 73.725C131.661 73.4437 131.277 73.309 130.869 73.341C130.472 73.3797 130.113 73.5957 129.892 73.9277L121.892 85.9277C121.62 86.337 121.593 86.8624 121.825 87.2957C122.057 87.729 122.509 87.9997 123.001 87.9997H163.001C163.475 87.9997 163.913 87.749 164.152 87.3397C164.391 86.9304 164.396 86.425 164.163 86.013H164.161Z" fill="#2F6FF0"/>
<path d="M164.333 61.3333C170.224 61.3333 174.999 56.5577 174.999 50.6667C174.999 44.7756 170.224 40 164.333 40C158.442 40 153.666 44.7756 153.666 50.6667C153.666 56.5577 158.442 61.3333 164.333 61.3333Z" fill="url(#paint0_linear_1849_20673)"/>
<path d="M164.333 57.3332C163.719 57.3332 163.223 56.8359 163.223 56.2226C163.223 53.7719 161.229 51.7786 158.779 51.7786C158.164 51.7786 157.668 51.2812 157.668 50.6679C157.668 50.0546 158.165 49.5572 158.779 49.5572C161.229 49.5572 163.223 47.5639 163.223 45.1132C163.223 44.4986 163.72 44.0026 164.333 44.0026C164.947 44.0026 165.444 44.4999 165.444 45.1132C165.444 47.5639 167.437 49.5572 169.888 49.5572C170.503 49.5572 170.999 50.0546 170.999 50.6679C170.999 51.2812 170.501 51.7786 169.888 51.7786C167.437 51.7786 165.444 53.7719 165.444 56.2226C165.444 56.8372 164.947 57.3332 164.333 57.3332Z" fill="#FFDADB"/>
<defs>
<linearGradient id="paint0_linear_1849_20673" x1="164.333" y1="40" x2="164.333" y2="61.3333" gradientUnits="userSpaceOnUse">
<stop stop-color="#DC244C"/>
<stop offset="1" stop-color="#BE003A"/>
</linearGradient>
</defs>
</svg>
