<svg width="286" height="144" viewBox="0 0 286 144" fill="none" xmlns="http://www.w3.org/2000/svg">
<rect width="286" height="144" rx="8" fill="#E1E5F0"/>
<g clip-path="url(#clip0_1849_20621)">
<path d="M91.6667 28H65C63.8953 28 63 28.8953 63 30V51.3333C63 52.438 63.8953 53.3333 65 53.3333H91.6667C92.7713 53.3333 93.6667 52.438 93.6667 51.3333V30C93.6667 28.8953 92.7713 28 91.6667 28Z" fill="#2F6FF0"/>
<path d="M72.3327 38.0003C73.8054 38.0003 74.9993 36.8064 74.9993 35.3337C74.9993 33.8609 73.8054 32.667 72.3327 32.667C70.8599 32.667 69.666 33.8609 69.666 35.3337C69.666 36.8064 70.8599 38.0003 72.3327 38.0003Z" fill="#F0F3FA"/>
<path d="M88.9127 47.6742L82.9127 37.0075C82.8 36.8068 82.5927 36.6795 82.3633 36.6682C82.1353 36.6542 81.9147 36.7655 81.784 36.9548L76.2387 44.9648L72.804 41.5302C72.6627 41.3895 72.4707 41.3222 72.2667 41.3382C72.068 41.3575 71.8887 41.4655 71.778 41.6315L67.778 47.6315C67.642 47.8362 67.6287 48.0988 67.7447 48.3155C67.8607 48.5322 68.0867 48.6675 68.3327 48.6675H88.3327C88.5693 48.6675 88.7887 48.5422 88.908 48.3375C89.0273 48.1328 89.03 47.8802 88.9133 47.6742H88.9127Z" fill="#F0F3FA"/>
<path d="M220.667 91H194C192.895 91 192 91.8953 192 93V114.333C192 115.438 192.895 116.333 194 116.333H220.667C221.771 116.333 222.667 115.438 222.667 114.333V93C222.667 91.8953 221.771 91 220.667 91Z" fill="#038585"/>
<path d="M201.333 101C202.805 101 203.999 99.8064 203.999 98.3337C203.999 96.8609 202.805 95.667 201.333 95.667C199.86 95.667 198.666 96.8609 198.666 98.3337C198.666 99.8064 199.86 101 201.333 101Z" fill="#F0F3FA"/>
<path d="M217.913 110.674L211.913 100.008C211.8 99.8068 211.593 99.6795 211.363 99.6682C211.135 99.6542 210.915 99.7655 210.784 99.9548L205.239 107.965L201.804 104.53C201.663 104.39 201.471 104.322 201.267 104.338C201.068 104.358 200.889 104.466 200.778 104.632L196.778 110.632C196.642 110.836 196.629 111.099 196.745 111.316C196.861 111.532 197.087 111.668 197.333 111.668H217.333C217.569 111.668 217.789 111.542 217.908 111.338C218.027 111.133 218.03 110.88 217.913 110.674H217.913Z" fill="#F0F3FA"/>
<path d="M91.6667 91H65C63.8953 91 63 91.8953 63 93V114.333C63 115.438 63.8953 116.333 65 116.333H91.6667C92.7713 116.333 93.6667 115.438 93.6667 114.333V93C93.6667 91.8953 92.7713 91 91.6667 91Z" fill="#8547FF"/>
<path d="M72.3327 101C73.8054 101 74.9993 99.8064 74.9993 98.3337C74.9993 96.8609 73.8054 95.667 72.3327 95.667C70.8599 95.667 69.666 96.8609 69.666 98.3337C69.666 99.8064 70.8599 101 72.3327 101Z" fill="#F0F3FA"/>
<path d="M88.9127 110.674L82.9127 100.008C82.8 99.8068 82.5927 99.6795 82.3633 99.6682C82.1353 99.6542 81.9147 99.7655 81.784 99.9548L76.2387 107.965L72.804 104.53C72.6627 104.39 72.4707 104.322 72.2667 104.338C72.068 104.358 71.8887 104.466 71.778 104.632L67.778 110.632C67.642 110.836 67.6287 111.099 67.7447 111.316C67.8607 111.532 68.0867 111.668 68.3327 111.668H88.3327C88.5693 111.668 88.7887 111.542 88.908 111.338C89.0273 111.133 89.03 110.88 88.9133 110.674H88.9127Z" fill="#F0F3FA"/>
<path d="M220.667 28H194C192.895 28 192 28.8953 192 30V51.3333C192 52.438 192.895 53.3333 194 53.3333H220.667C221.771 53.3333 222.667 52.438 222.667 51.3333V30C222.667 28.8953 221.771 28 220.667 28Z" fill="#DC244C"/>
<path d="M201.333 38.0003C202.805 38.0003 203.999 36.8064 203.999 35.3337C203.999 33.8609 202.805 32.667 201.333 32.667C199.86 32.667 198.666 33.8609 198.666 35.3337C198.666 36.8064 199.86 38.0003 201.333 38.0003Z" fill="#F0F3FA"/>
<path d="M217.913 47.6742L211.913 37.0075C211.8 36.8068 211.593 36.6795 211.363 36.6682C211.135 36.6542 210.915 36.7655 210.784 36.9548L205.239 44.9648L201.804 41.5302C201.663 41.3895 201.471 41.3222 201.267 41.3382C201.068 41.3575 200.889 41.4655 200.778 41.6315L196.778 47.6315C196.642 47.8362 196.629 48.0988 196.745 48.3155C196.861 48.5322 197.087 48.6675 197.333 48.6675H217.333C217.569 48.6675 217.789 48.5422 217.908 48.3375C218.027 48.1328 218.03 47.8802 217.913 47.6742H217.913Z" fill="#F0F3FA"/>
<path d="M158.653 77.4338C156.747 73.3974 158.591 68.5784 162.71 66.7108L160.128 61.2287C156.931 62.6745 154.411 65.2048 152.997 68.3372C149.739 75.4456 152.997 83.8192 160.312 86.9519L162.833 81.4698C160.988 80.6867 159.513 79.2409 158.653 77.4338ZM154.472 58.9397L150.907 54C149.001 55.3253 147.342 56.8915 145.866 58.6988L150.661 62.4339C151.768 61.1085 152.997 59.964 154.473 58.94L154.472 58.9397ZM146.542 74.0602C146.542 66.2287 142.67 58.8191 136.215 54.1806L132.526 59.0603C137.444 62.5542 140.333 68.1566 140.395 74.1205C140.395 81.9519 144.206 89.3615 150.661 94L154.288 89.1203C149.431 85.5661 146.542 80.024 146.542 74.0599L146.542 74.0602ZM132.526 89.1203L136.215 94C137.998 92.7349 139.596 91.1687 140.948 89.4819L136.153 85.747C135.108 87.0121 133.879 88.1566 132.526 89.1203ZM126.502 61.1684L124.166 66.7708C126.195 67.554 127.793 69.1202 128.592 71.1081C130.252 75.1441 128.285 79.7225 124.227 81.3492L126.563 86.9516C130.129 85.5058 132.895 82.7949 134.309 79.301C137.26 72.1323 133.756 64.0599 126.502 61.1684Z" fill="#161E33"/>
<path d="M119 73H87C82.5817 73 79 69.4183 79 65V57" stroke="#8F98B3" stroke-dasharray="4 4"/>
<path d="M119 73H87C82.5817 73 79 76.5817 79 81V91" stroke="#8F98B3" stroke-dasharray="4 4"/>
<path d="M169 71H201C205.418 71 209 67.4183 209 63V55" stroke="#8F98B3" stroke-dasharray="4 4"/>
<path d="M169 71H201C205.418 71 209 74.5817 209 79V89" stroke="#8F98B3" stroke-dasharray="4 4"/>
</g>
<defs>
<clipPath id="clip0_1849_20621">
<rect width="160" height="88" fill="white" transform="translate(63 28)"/>
</clipPath>
</defs>
</svg>
