<svg width="286" height="144" viewBox="0 0 286 144" fill="none" xmlns="http://www.w3.org/2000/svg">
<rect width="286" height="144" rx="8" fill="#E1E5F0"/>
<path d="M149.512 20.0193L145.53 17.7122L145.241 18.2098L143.539 17.2232L141.836 18.2098L141.548 17.7123L137.566 20.0193L137.854 20.5169L133.872 22.8239L133.584 22.3264L129.601 24.6335L129.89 25.131L125.908 27.4381L125.619 26.9405L121.637 29.2476L121.926 29.7451L117.944 32.0522L117.655 31.5547L113.673 33.8617L113.961 34.3593L109.979 36.6663L109.691 36.1688L105.709 38.4759L105.997 38.9734L102.015 41.2805L101.727 40.783L97.7449 43.09L98.0332 43.5876L96.3289 44.575V46.5506H95.7539V51.1648H96.3289V55.7789H95.7539V60.393H96.3289V65.0072H95.7539V69.6213H96.3289V74.2355H95.7539V78.8496H96.3289V83.4637H95.7539V88.0779H96.3289V92.692H95.7539V97.3062H96.3289V99.2818L98.0332 100.269L97.7449 100.767L101.727 103.074L102.015 102.576L105.997 104.883L105.709 105.381L109.691 107.688L109.979 107.19L113.961 109.498L113.673 109.995L117.655 112.302L117.944 111.805L121.926 114.112L121.637 114.609L125.619 116.916L125.908 116.419L129.89 118.726L129.601 119.223L133.584 121.53L133.872 121.033L137.854 123.34L137.566 123.837L141.548 126.145L141.836 125.647L143.539 126.634L145.241 125.647L145.53 126.145L149.512 123.837L149.224 123.34L153.206 121.033L153.494 121.53L157.476 119.223L157.188 118.726L161.17 116.419L161.458 116.916L165.44 114.609L165.152 114.112L169.134 111.805L169.422 112.302L173.404 109.995L173.116 109.498L177.098 107.19L177.386 107.688L181.368 105.381L181.08 104.883L185.062 102.576L185.35 103.074L189.332 100.767L189.044 100.269L190.748 99.2818V97.3062H191.323V92.692H190.748V88.0779H191.323V83.4637H190.748V78.8496H191.323V74.2355H190.748V69.6213H191.323V65.0072H190.748V60.3931H191.323V55.7789H190.748V51.1648H191.323V46.5506H190.748V44.575L189.044 43.5875L189.332 43.09L185.35 40.7829L185.062 41.2805L181.08 38.9734L181.368 38.4759L177.386 36.1688L177.098 36.6663L173.116 34.3593L173.404 33.8617L169.422 31.5547L169.134 32.0522L165.152 29.7451L165.44 29.2476L161.458 26.9405L161.17 27.4381L157.188 25.131L157.476 24.6335L153.494 22.3264L153.206 22.8239L149.224 20.5168L149.512 20.0193Z" stroke="#8F98B3" stroke-width="1.15" stroke-dasharray="4.6 4.6"/>
<line x1="143.778" y1="18.4336" x2="143.778" y2="125.482" stroke="#8F98B3" stroke-width="1.15" stroke-dasharray="4.6 4.6"/>
<line x1="97.3487" y1="45.617" x2="191.477" y2="99.141" stroke="#8F98B3" stroke-width="1.15" stroke-dasharray="4.6 4.6"/>
<line x1="191.476" y1="44.7715" x2="97.3472" y2="98.2955" stroke="#8F98B3" stroke-width="1.15" stroke-dasharray="4.6 4.6"/>
<path d="M143.409 11.05L136.949 14.7413V22.1239L143.409 25.8152L149.869 22.1239V14.7413L143.409 11.05Z" fill="#2F6FF0"/>
<path d="M191.02 36.6887L184.561 40.38V47.7627L191.02 51.454L197.48 47.7627V40.38L191.02 36.6887Z" fill="#8547FF"/>
<path d="M95.7918 36.6887L89.332 40.38V47.7627L95.7918 51.454L102.252 47.7627V40.38L95.7918 36.6887Z" fill="#038585"/>
<path d="M95.7918 90.7131L89.332 94.4044V101.787L95.7918 105.478L102.252 101.787V94.4044L95.7918 90.7131Z" fill="#008A53"/>
<path d="M143.409 118.185L136.949 121.876V129.259L143.409 132.95L149.869 129.259V121.876L143.409 118.185Z" fill="#E0700D"/>
<path d="M191.02 92.5464L184.561 96.2377V103.62L191.02 107.312L197.48 103.62V96.2377L191.02 92.5464Z" fill="#BE003A"/>
<path fill-rule="evenodd" clip-rule="evenodd" d="M163.697 60.4996L143.777 72L143.779 95L163.697 83.4996V60.4996Z" fill="url(#paint0_linear_1849_20650)"/>
<path fill-rule="evenodd" clip-rule="evenodd" d="M123.857 60.4996L143.777 72L143.776 95L123.857 83.4996V60.4996Z" fill="url(#paint1_linear_1849_20650)"/>
<path fill-rule="evenodd" clip-rule="evenodd" d="M163.694 60.5L143.778 72L123.857 60.5L143.776 49L163.694 60.5Z" fill="url(#paint2_linear_1849_20650)"/>
<g clip-path="url(#clip0_1849_20650)">
<path fill-rule="evenodd" clip-rule="evenodd" d="M152.855 66.7733L152.856 66.7727L148.328 64.159L143.802 61.5454L139.274 64.159L134.748 66.7727L134.748 66.7733V77.2271L139.275 79.8407L143.802 82.4545V82.4548L146.698 80.7837L146.699 80.7835L146.698 80.7834V77.2272L143.802 78.8998L140.814 77.1751L137.827 75.4505V68.5509L140.814 66.8263L143.802 65.1017L146.789 66.8263L149.777 68.5509V82.4546L149.777 82.4545L149.777 82.4554L152.856 80.6786V66.7735L152.855 66.7733ZM143.802 75.3449L146.698 73.6724V70.3289L143.802 68.6564L140.906 70.3289V73.6724L143.802 75.3449Z" fill="white"/>
</g>
<defs>
<linearGradient id="paint0_linear_1849_20650" x1="153.737" y1="60.4996" x2="153.737" y2="95" gradientUnits="userSpaceOnUse">
<stop stop-color="#161E33"/>
<stop offset="1" stop-color="#0E1424"/>
</linearGradient>
<linearGradient id="paint1_linear_1849_20650" x1="133.817" y1="60.4996" x2="133.817" y2="95" gradientUnits="userSpaceOnUse">
<stop stop-color="#161E33"/>
<stop offset="1" stop-color="#0E1424"/>
</linearGradient>
<linearGradient id="paint2_linear_1849_20650" x1="143.776" y1="49" x2="143.776" y2="72" gradientUnits="userSpaceOnUse">
<stop stop-color="#2F3F6D"/>
<stop offset="0.355174" stop-color="#233053"/>
<stop offset="1" stop-color="#0E1424"/>
</linearGradient>
<clipPath id="clip0_1849_20650">
<rect width="18.0341" height="20.9091" fill="white" transform="translate(134.748 61.5454)"/>
</clipPath>
</defs>
</svg>
