<svg width="286" height="144" viewBox="0 0 286 144" fill="none" xmlns="http://www.w3.org/2000/svg">
<rect width="286" height="144" rx="8" fill="#E1E5F0"/>
<g clip-path="url(#clip0_1849_20581)">
<path d="M161 41H171C175.418 41 179 37.4183 179 33V32" stroke="#8F98B3" stroke-dasharray="4 4"/>
<path d="M125 103L115 103C110.582 103 107 106.582 107 111L107 112" stroke="#8F98B3" stroke-dasharray="4 4"/>
<path d="M161 46H184" stroke="#8F98B3" stroke-dasharray="4 4"/>
<path d="M125 98L102 98" stroke="#8F98B3" stroke-dasharray="4 4"/>
<path d="M107.338 116C109.205 116 110.718 114.486 110.718 112.619C110.718 110.752 109.205 109.238 107.338 109.238C105.471 109.238 103.957 110.752 103.957 112.619C103.957 114.486 105.471 116 107.338 116Z" fill="#2F6FF0"/>
<path d="M102.379 101.489C104.246 101.489 105.759 99.9752 105.759 98.1081C105.759 96.2411 104.246 94.7275 102.379 94.7275C100.512 94.7275 98.998 96.2411 98.998 98.1081C98.998 99.9752 100.512 101.489 102.379 101.489Z" fill="#DC244C"/>
<path d="M178.656 34.7612C180.523 34.7612 182.037 33.2477 182.037 31.3806C182.037 29.5136 180.523 28 178.656 28C176.789 28 175.275 29.5136 175.275 31.3806C175.275 33.2477 176.789 34.7612 178.656 34.7612Z" fill="#2F6FF0"/>
<path d="M183.615 49.272C185.482 49.272 186.996 47.7584 186.996 45.8914C186.996 44.0243 185.482 42.5107 183.615 42.5107C181.748 42.5107 180.234 44.0243 180.234 45.8914C180.234 47.7584 181.748 49.272 183.615 49.272Z" fill="#DC244C"/>
<path d="M172.547 110H132.453C131.65 110 131 109.34 131 108.527V61.4161C131 61.0255 131.153 60.6509 131.426 60.3746L138.274 53.4313C138.546 53.155 138.916 52.9998 139.301 52.9998H172.547C173.35 52.9998 174 53.6592 174 54.4726V108.527C174 109.34 173.35 110 172.547 110Z" fill="white"/>
<path d="M131 53.0001H161V93.0001C161 94.1046 160.105 95.0001 159 95.0001H131V53.0001Z" fill="#D4D9E6"/>
<path d="M153.84 90.5758H113.403C112.593 90.5758 111.938 89.9199 111.938 89.1108V42.248C111.938 41.8594 112.092 41.4868 112.367 41.2119L119.273 34.3051C119.548 34.0303 119.921 33.876 120.31 33.876H153.84C154.649 33.876 155.305 34.5319 155.305 35.341V89.1108C155.305 89.9199 154.649 90.5758 153.84 90.5758Z" fill="white"/>
<path d="M118.236 41.6422H112.643C112.382 41.6422 112.251 41.3267 112.436 41.1421L119.201 34.3774C119.385 34.1928 119.701 34.3236 119.701 34.5847V40.1773C119.701 40.9862 119.045 41.6422 118.236 41.6422Z" fill="#B4BACC"/>
<path d="M148.128 50.8492H119.119C118.386 50.8492 117.791 50.2547 117.791 49.5213C117.791 48.7879 118.386 48.1934 119.119 48.1934H148.128C148.862 48.1934 149.456 48.7879 149.456 49.5213C149.456 50.2545 148.862 50.8492 148.128 50.8492Z" fill="#B4BACC"/>
<path d="M148.128 58.0074H119.119C118.386 58.0074 117.791 57.4129 117.791 56.6795C117.791 55.9461 118.386 55.3516 119.119 55.3516H148.128C148.862 55.3516 149.456 55.9461 149.456 56.6795C149.456 57.4129 148.862 58.0074 148.128 58.0074Z" fill="#B4BACC"/>
<path d="M138.165 65.1646H119.119C118.386 65.1646 117.791 64.5701 117.791 63.8367C117.791 63.1033 118.386 62.5088 119.119 62.5088H138.165C138.899 62.5088 139.493 63.1033 139.493 63.8367C139.493 64.5701 138.899 65.1646 138.165 65.1646Z" fill="#B4BACC"/>
<path d="M148.128 72.3228H119.119C118.386 72.3228 117.791 71.7283 117.791 70.9949C117.791 70.2615 118.386 69.667 119.119 69.667H148.128C148.862 69.667 149.456 70.2615 149.456 70.9949C149.456 71.7283 148.862 72.3228 148.128 72.3228Z" fill="#B4BACC"/>
<path d="M144.758 79.481H119.119C118.386 79.481 117.791 78.8865 117.791 78.1531C117.791 77.4197 118.386 76.8252 119.119 76.8252H144.758C145.492 76.8252 146.086 77.4197 146.086 78.1531C146.086 78.8865 145.492 79.481 144.758 79.481Z" fill="#B4BACC"/>
</g>
<defs>
<clipPath id="clip0_1849_20581">
<rect width="88" height="88" fill="white" transform="translate(99 28)"/>
</clipPath>
</defs>
</svg>
