<svg width="10" height="10" viewBox="0 0 10 10" fill="none" xmlns="http://www.w3.org/2000/svg">
<path d="M3.16667 0.916341C3.10476 0.869913 3.03115 0.841641 2.95409 0.834692C2.87702 0.827742 2.79954 0.842391 2.73033 0.876997C2.66112 0.911602 2.60291 0.964797 2.56223 1.03062C2.52155 1.09644 2.5 1.17229 2.5 1.24967V8.74968C2.5 8.82706 2.52155 8.90291 2.56223 8.96873C2.60291 9.03455 2.66112 9.08775 2.73033 9.12235C2.79954 9.15696 2.87702 9.17161 2.95409 9.16466C3.03115 9.15771 3.10476 9.12944 3.16667 9.08301L8.16667 5.33301C8.21842 5.2942 8.26042 5.24387 8.28934 5.18601C8.31827 5.12816 8.33333 5.06436 8.33333 4.99967C8.33333 4.93499 8.31827 4.87119 8.28934 4.81334C8.26042 4.75548 8.21842 4.70515 8.16667 4.66634L3.16667 0.916341Z" fill="#8F98B3"/>
</svg>
