<svg width="24" height="24" viewBox="0 0 24 24" fill="none" xmlns="http://www.w3.org/2000/svg">
<path fill-rule="evenodd" clip-rule="evenodd" d="M2 0C1.65342 0 1.33156 0.179452 1.14935 0.474269C0.967144 0.769085 0.95058 1.13723 1.10557 1.44721L5.83353 10.9031C4.68826 12.2872 4 14.0632 4 16C4 20.4183 7.58172 24 12 24C16.4183 24 20 20.4183 20 16C20 14.0632 19.3117 12.2872 18.1665 10.9031L22.8944 1.44721C23.0494 1.13723 23.0329 0.769085 22.8507 0.474269C22.6684 0.179452 22.3466 0 22 0H16C15.6212 0 15.275 0.214002 15.1056 0.552786L12 6.76393L8.89443 0.552786C8.72504 0.214002 8.37877 0 8 0H2ZM7.776 11.7388C7.75516 11.7619 7.73315 11.784 7.70999 11.8053C6.65208 12.887 6 14.3674 6 16C6 19.3137 8.68629 22 12 22C15.3137 22 18 19.3137 18 16C18 14.3674 17.3479 12.887 16.29 11.8053C16.2669 11.784 16.2448 11.7619 16.224 11.7388C15.1441 10.6683 13.6595 10.0054 12.02 10L12 10.0002L11.98 10C10.3405 10.0054 8.85589 10.6683 7.776 11.7388ZM20.382 2L16.6406 9.48273C15.7313 8.83412 14.6806 8.37105 13.5436 8.1488L16.618 2H20.382ZM7.38197 2L10.4564 8.1488C9.31942 8.37105 8.26867 8.83412 7.3594 9.48273L3.61804 2H7.38197ZM13.1758 14.764L11.9998 12.382L10.8238 14.764L8.1958 15.146L10.0978 17L9.6488 19.618L11.9998 18.382L14.3508 19.618L13.9018 17L15.8038 15.146L13.1758 14.764Z" fill="#2F6FF0"/>
</svg>
