<svg width="14" height="15" viewBox="0 0 14 15" fill="none" xmlns="http://www.w3.org/2000/svg">
<g id="Menu/Blog">
<path id="Union" fill-rule="evenodd" clip-rule="evenodd" d="M0 1.8125C0 1.57088 0.195875 1.375 0.4375 1.375H4.8125C5.05412 1.375 5.25 1.57088 5.25 1.8125V6.1875C5.25 6.42912 5.05412 6.625 4.8125 6.625H0.4375C0.195875 6.625 0 6.42912 0 6.1875V1.8125ZM0.875 2.25V5.75H4.375V2.25H0.875ZM7 2.6875C7 2.44588 7.19588 2.25 7.4375 2.25H13.5625C13.8041 2.25 14 2.44588 14 2.6875C14 2.92912 13.8041 3.125 13.5625 3.125H7.4375C7.19588 3.125 7 2.92912 7 2.6875ZM7.4375 5.75C7.19588 5.75 7 5.94588 7 6.1875C7 6.42912 7.19588 6.625 7.4375 6.625H13.5625C13.8041 6.625 14 6.42912 14 6.1875C14 5.94588 13.8041 5.75 13.5625 5.75H7.4375ZM0 9.6875C0 9.44588 0.195875 9.25 0.4375 9.25H13.5625C13.8041 9.25 14 9.44588 14 9.6875C14 9.92912 13.8041 10.125 13.5625 10.125H0.4375C0.195875 10.125 0 9.92912 0 9.6875ZM0.4375 12.75C0.195875 12.75 0 12.9459 0 13.1875C0 13.4291 0.195875 13.625 0.4375 13.625H13.5625C13.8041 13.625 14 13.4291 14 13.1875C14 12.9459 13.8041 12.75 13.5625 12.75H0.4375Z" fill="#8547FF"/>
</g>
</svg>
