<svg width="16" height="16" viewBox="0 0 16 16" fill="#E1E5F0" xmlns="http://www.w3.org/2000/svg">
<g id="Menu/Blog">
<path id="Union" fill-rule="evenodd" clip-rule="evenodd" d="M0 1.5C0 1.22386 0.223858 1 0.5 1H5.5C5.77614 1 6 1.22386 6 1.5V6.5C6 6.77614 5.77614 7 5.5 7H0.5C0.223858 7 0 6.77614 0 6.5V1.5ZM1 2V6H5V2H1ZM8 2.5C8 2.22386 8.22386 2 8.5 2H15.5C15.7761 2 16 2.22386 16 2.5C16 2.77614 15.7761 3 15.5 3H8.5C8.22386 3 8 2.77614 8 2.5ZM8.5 6C8.22386 6 8 6.22386 8 6.5C8 6.77614 8.22386 7 8.5 7H15.5C15.7761 7 16 6.77614 16 6.5C16 6.22386 15.7761 6 15.5 6H8.5ZM0 10.5C0 10.2239 0.223858 10 0.5 10H15.5C15.7761 10 16 10.2239 16 10.5C16 10.7761 15.7761 11 15.5 11H0.5C0.223858 11 0 10.7761 0 10.5ZM0.5 14C0.223858 14 0 14.2239 0 14.5C0 14.7761 0.223858 15 0.5 15H15.5C15.7761 15 16 14.7761 16 14.5C16 14.2239 15.7761 14 15.5 14H0.5Z"/>
</g>
</svg>
