<svg width="16" height="16" viewBox="0 0 16 16" fill="none" xmlns="http://www.w3.org/2000/svg">
<path d="M8.00065 4.66667C8.00065 3.95942 7.7197 3.28115 7.2196 2.78105C6.71951 2.28095 6.04123 2 5.33398 2H1.33398V12H6.00065C6.53108 12 7.03979 12.2107 7.41487 12.5858C7.78994 12.9609 8.00065 13.4696 8.00065 14M8.00065 4.66667V14M8.00065 4.66667C8.00065 3.95942 8.2816 3.28115 8.7817 2.78105C9.2818 2.28095 9.96007 2 10.6673 2H14.6673V12H10.0007C9.47022 12 8.96151 12.2107 8.58644 12.5858C8.21136 12.9609 8.00065 13.4696 8.00065 14M4.00065 5.33333H5.33398M4.00065 8H5.33398M10.6673 5.33333H12.0007M10.6673 8H12.0007" stroke="#EADDFF" stroke-width="1.33333" stroke-linecap="round" stroke-linejoin="round"/>
</svg>
