<svg width="24" height="24" viewBox="0 0 24 24" fill="none" xmlns="http://www.w3.org/2000/svg">
<path d="M15.314 12L14.7606 11.1671L13.507 12L14.7606 12.8329L15.314 12ZM8.686 12L9.23939 12.8329L10.493 12L9.23939 11.1671L8.686 12ZM4 1H3V3H4V1ZM20 3H21V1H20V3ZM4 21H3V23H4V21ZM20 23H21V21H20V23ZM19 22V17H17V22H19ZM19 17C19 14.5622 17.7517 12.419 15.8674 11.1671L14.7606 12.8329C16.1123 13.731 17 15.2618 17 17H19ZM15.8674 12.8329C17.7517 11.581 19 9.43782 19 7H17C17 8.73818 16.1123 10.269 14.7606 11.1671L15.8674 12.8329ZM19 7V2H17V7H19ZM5 2V7H7V2H5ZM5 7C5 9.43782 6.24831 11.581 8.13261 12.8329L9.23939 11.1671C7.88769 10.269 7 8.73818 7 7H5ZM8.13261 11.1671C6.24831 12.419 5 14.5622 5 17H7C7 15.2618 7.88769 13.731 9.23939 12.8329L8.13261 11.1671ZM5 17V22H7V17H5ZM4 3H20V1H4V3ZM4 23H20V21H4V23Z" fill="#8547FF"/>
</svg>
