<svg width="24" height="24" viewBox="0 0 24 24" fill="none" xmlns="http://www.w3.org/2000/svg">
<path d="M12 19.0001L8.03 21.3801C7.71894 21.567 7.36289 21.6657 7 21.6657C6.63711 21.6657 6.28106 21.567 5.97 21.3801L2.97 19.5801C2.67476 19.4027 2.43033 19.1521 2.26039 18.8525C2.09045 18.5529 2.00075 18.2145 2 17.8701V14.6301C2.00075 14.2857 2.09045 13.9473 2.26039 13.6477C2.43033 13.3481 2.67476 13.0975 2.97 12.9201L7 10.5001M12 19.0001V13.5001M12 19.0001L15.97 21.3801C16.2811 21.567 16.6371 21.6657 17 21.6657C17.3629 21.6657 17.7189 21.567 18.03 21.3801L21.03 19.5801C21.3252 19.4027 21.5697 19.1521 21.7396 18.8525C21.9096 18.5529 21.9992 18.2145 22 17.8701V14.6301C21.9992 14.2857 21.9096 13.9473 21.7396 13.6477C21.5697 13.3481 21.3252 13.0975 21.03 12.9201L17 10.5001M12 13.5001L7 10.5001M12 13.5001L7 16.5001M12 13.5001L17 10.5001M12 13.5001L17 16.5001M12 13.5001V8.00009M7 10.5001V6.13009C7.00075 5.78566 7.09045 5.44727 7.26039 5.14768C7.43033 4.84809 7.67476 4.59747 7.97 4.42009L10.97 2.62009C11.2811 2.43321 11.6371 2.33447 12 2.33447C12.3629 2.33447 12.7189 2.43321 13.03 2.62009L16.03 4.42009C16.3252 4.59747 16.5697 4.84809 16.7396 5.14768C16.9096 5.44727 16.9992 5.78566 17 6.13009V10.5001M7 16.5001L2.26 13.6501M7 16.5001V21.6701M17 16.5001L21.74 13.6501M17 16.5001V21.6701M12 8.00009L7.26 5.15009M12 8.00009L16.74 5.15009" stroke="#8547FF" stroke-width="1.5" stroke-linecap="round" stroke-linejoin="round"/>
</svg>
