<svg width="20" height="20" viewBox="0 0 20 20" fill="none" xmlns="http://www.w3.org/2000/svg">
<path d="M9.99984 10.0001H10.0082M13.3332 5.00008V3.33341C13.3332 2.89139 13.1576 2.46746 12.845 2.1549C12.5325 1.84234 12.1085 1.66675 11.6665 1.66675H8.33317C7.89114 1.66675 7.46722 1.84234 7.15466 2.1549C6.8421 2.46746 6.6665 2.89139 6.6665 3.33341V5.00008M18.3332 10.8334C15.8605 12.4659 12.9628 13.3362 9.99984 13.3362C7.03688 13.3362 4.13918 12.4659 1.6665 10.8334M3.33317 5.00008H16.6665C17.587 5.00008 18.3332 5.74627 18.3332 6.66675V15.0001C18.3332 15.9206 17.587 16.6667 16.6665 16.6667H3.33317C2.4127 16.6667 1.6665 15.9206 1.6665 15.0001V6.66675C1.6665 5.74627 2.4127 5.00008 3.33317 5.00008Z" stroke="#2F6FF0" stroke-width="1.66667" stroke-linecap="round" stroke-linejoin="round"/>
</svg>
