<svg width="16" height="16" viewBox="0 0 16 16" fill="none" xmlns="http://www.w3.org/2000/svg">
<g clip-path="url(#clip0_3871_26922)">
<path d="M16 9.33331V7.99998H13.9347C13.79 6.83465 13.3947 5.74065 12.8 4.81065L14.276 3.33265L13.3327 2.39065L11.9633 3.76198C11.7233 3.51398 11.4667 3.28798 11.1913 3.08598C11.0967 2.75665 10.9507 2.45398 10.7673 2.17598L11.8053 1.13798L10.8627 0.195312L9.82867 1.22931C9.29867 0.877979 8.672 0.666646 8 0.666646C7.328 0.666646 6.70133 0.877979 6.172 1.22931L5.138 0.195312L4.19533 1.13798L5.23333 2.17598C5.05 2.45331 4.904 2.75598 4.80933 3.08465C4.534 3.28665 4.27733 3.51398 4.03667 3.76198L2.66733 2.39065L1.724 3.33265L3.2 4.80998C2.60533 5.73998 2.21 6.83465 2.06533 7.99998H0V9.33331H2.01467C2.07333 10.776 2.50533 12.1026 3.204 13.188L1.724 14.666L2.666 15.6093L4.036 14.2413C4.93733 15.17 6.07667 15.788 7.33333 15.952V5.99998H8.66667V15.952C9.92333 15.7873 11.0627 15.17 11.964 14.2413L13.334 15.6093L14.276 14.666L12.796 13.188C13.4947 12.102 13.9267 10.7753 13.9853 9.33331H16Z" fill="#DC244C"/>
</g>
<defs>
<clipPath id="clip0_3871_26922">
<rect width="16" height="16" fill="white"/>
</clipPath>
</defs>
</svg>
