<svg width="24" height="25" viewBox="0 0 24 25" fill="none" xmlns="http://www.w3.org/2000/svg">
<g clip-path="url(#clip0_2753_1634)">
<path d="M17.2284 21.3921C16.3003 22.3484 15.1993 23.0452 14 23.4158V9.72653V8.72653H13H11H10V9.72653V23.4162C8.80102 23.0459 7.69998 22.3486 6.77159 21.3921L6.06522 20.6643L6.08367 20.6458L5.64684 19.9673C4.69753 18.4926 4.10211 16.6761 4.02117 14.6859L3.98216 13.7265H3.98153L4.09038 12.8497C4.28956 11.2453 4.83317 9.74594 5.64249 8.48024L6.07539 7.80322L6.06615 7.79397L6.77264 7.06595C7.0989 6.72975 7.44213 6.42643 7.80553 6.15981L8.08053 5.95806L8.17493 5.63031C8.28612 5.2443 8.45938 4.88208 8.6842 4.54199L9.1345 3.86082L9.12964 3.85595L9.811 3.40371C10.4559 2.9757 11.2057 2.72653 12 2.72653C12.7942 2.72653 13.5443 2.97566 14.1905 3.40403L14.8717 3.85561L14.8672 3.86016L15.3162 4.54107C15.5415 4.88273 15.7148 5.24511 15.8259 5.63179L15.9202 5.95988L16.1955 6.16181C16.5604 6.42954 16.9032 6.73097 17.2264 7.06495L17.9335 7.7956L17.9247 7.80438L18.3575 8.48124C19.1669 9.74706 19.7105 11.2454 19.9096 12.8497L20.0185 13.7265H20.0179L19.9788 14.6859C19.8979 16.675 19.3025 18.4916 18.353 19.9675L17.9165 20.646L17.9348 20.6643L17.2284 21.3921Z" stroke="#2F6FF0" stroke-width="2"/>
</g>
<defs>
<clipPath id="clip0_2753_1634">
<rect width="24" height="24" fill="white" transform="translate(0 0.726562)"/>
</clipPath>
</defs>
</svg>
