<svg width="16" height="17" viewBox="0 0 16 17" fill="none" xmlns="http://www.w3.org/2000/svg">
<g clip-path="url(#clip0_6269_1540)">
<path d="M16 9.83331V8.49998H13.9347C13.79 7.33465 13.3947 6.24065 12.8 5.31065L14.276 3.83265L13.3327 2.89065L11.9633 4.26198C11.7233 4.01398 11.4667 3.78798 11.1913 3.58598C11.0967 3.25665 10.9507 2.95398 10.7673 2.67598L11.8053 1.63798L10.8627 0.695312L9.82867 1.72931C9.29867 1.37798 8.672 1.16665 8 1.16665C7.328 1.16665 6.70133 1.37798 6.172 1.72931L5.138 0.695312L4.19533 1.63798L5.23333 2.67598C5.05 2.95331 4.904 3.25598 4.80933 3.58465C4.534 3.78665 4.27733 4.01398 4.03667 4.26198L2.66733 2.89065L1.724 3.83265L3.2 5.30998C2.60533 6.23998 2.21 7.33465 2.06533 8.49998H0V9.83331H2.01467C2.07333 11.276 2.50533 12.6026 3.204 13.688L1.724 15.166L2.666 16.1093L4.036 14.7413C4.93733 15.67 6.07667 16.288 7.33333 16.452V6.49998H8.66667V16.452C9.92333 16.2873 11.0627 15.67 11.964 14.7413L13.334 16.1093L14.276 15.166L12.796 13.688C13.4947 12.602 13.9267 11.2753 13.9853 9.83331H16Z" fill="#F0F3FA"/>
</g>
<defs>
<clipPath id="clip0_6269_1540">
<rect width="16" height="16" fill="white" transform="translate(0 0.5)"/>
</clipPath>
</defs>
</svg>
