<svg width="16" height="16" viewBox="0 0 16 16" fill="none" xmlns="http://www.w3.org/2000/svg">
<g clip-path="url(#clip0_7978_41088)">
<path d="M8.66797 4.00065H8.0013C8.0013 4.27839 8.17349 4.52703 8.43348 4.62472C8.69348 4.72241 8.98679 4.64867 9.16969 4.43965L8.66797 4.00065ZM11.0013 1.33398L11.503 0.894981L11.0013 0.321589L10.4996 0.894981L11.0013 1.33398ZM4.66797 4.00065V4.66732H6.0013V4.00065H4.66797ZM3.2153 3.33398H2.54864V4.66732H3.2153V3.33398ZM14.668 4.00065L15.3217 4.13139L15.4812 3.33398H14.668V4.00065ZM13.549 9.59545L14.2028 9.72621L14.2028 9.72619L13.549 9.59545ZM3.83776 9.52252L3.1778 9.6168L3.1778 9.6168L3.83776 9.52252ZM2.66797 1.33398L3.32794 1.2397L3.24617 0.667318H2.66797V1.33398ZM0.667969 0.667318H0.00130206V2.00065H0.667969V0.667318ZM9.16969 4.43965L11.503 1.77299L10.4996 0.894981L8.16625 3.56165L9.16969 4.43965ZM10.4996 1.77299L12.8329 4.43965L13.8364 3.56165L11.503 0.894981L10.4996 1.77299ZM6.0013 4.00065V3.00065H4.66797V4.00065H6.0013ZM6.0013 3.00065C6.0013 2.44837 6.44902 2.00065 7.0013 2.00065V0.667318C5.71264 0.667318 4.66797 1.71199 4.66797 3.00065H6.0013ZM7.0013 2.00065C7.55358 2.00065 8.0013 2.44837 8.0013 3.00065H9.33464C9.33464 1.71199 8.28996 0.667318 7.0013 0.667318V2.00065ZM8.0013 3.00065V4.00065H9.33464V3.00065H8.0013ZM4.0013 15.334C4.73767 15.334 5.33464 14.7371 5.33464 14.0007H4.0013V15.334ZM5.33464 14.0007C5.33464 13.2643 4.73767 12.6673 4.0013 12.6673V14.0007H5.33464ZM4.0013 12.6673C3.26493 12.6673 2.66797 13.2643 2.66797 14.0007H4.0013V12.6673ZM2.66797 14.0007C2.66797 14.7371 3.26493 15.334 4.0013 15.334V14.0007H2.66797ZM13.3346 15.334C14.071 15.334 14.668 14.737 14.668 14.0007H13.3346V15.334ZM14.668 14.0007C14.668 13.2643 14.071 12.6673 13.3346 12.6673V14.0007H14.668ZM13.3346 12.6673C12.5982 12.6673 12.0013 13.2643 12.0013 14.0007H13.3346V12.6673ZM12.0013 14.0007C12.0013 14.737 12.5982 15.334 13.3346 15.334V14.0007H12.0013ZM3.2153 4.66732H14.668V3.33398H3.2153V4.66732ZM14.0142 3.86991L12.8953 9.46471L14.2028 9.72619L15.3217 4.13139L14.0142 3.86991ZM12.8953 9.46469C12.833 9.77636 12.5594 10.0007 12.2416 10.0007V11.334C13.195 11.334 14.0158 10.6611 14.2028 9.72621L12.8953 9.46469ZM12.2416 10.0007H5.1577V11.334H12.2416V10.0007ZM5.1577 10.0007C4.82595 10.0007 4.54465 9.75669 4.49773 9.42824L3.1778 9.6168C3.31855 10.6021 4.16237 11.334 5.1577 11.334V10.0007ZM4.49773 9.42824L3.32794 1.2397L2.008 1.42827L3.1778 9.6168L4.49773 9.42824ZM2.66797 0.667318H0.667969V2.00065H2.66797V0.667318Z" fill="#038585"/>
</g>
<defs>
<clipPath id="clip0_7978_41088">
<rect width="16" height="16" fill="white"/>
</clipPath>
</defs>
</svg>
