<svg width="24" height="25" viewBox="0 0 24 25" fill="none" xmlns="http://www.w3.org/2000/svg">
<g clip-path="url(#clip0_2753_1487)">
<path d="M14 1.72656L14.7071 1.01946L14.4142 0.726562H14V1.72656ZM14 7.72656H13V8.72656H14V7.72656ZM20 7.72656H21V7.31235L20.7071 7.01946L20 7.72656ZM6 6.72656C5.44772 6.72656 5 7.17428 5 7.72656C5 8.27885 5.44772 8.72656 6 8.72656V6.72656ZM10 8.72656C10.5523 8.72656 11 8.27885 11 7.72656C11 7.17428 10.5523 6.72656 10 6.72656V8.72656ZM6 11.7266C5.44772 11.7266 5 12.1743 5 12.7266C5 13.2788 5.44772 13.7266 6 13.7266V11.7266ZM11 13.7266C11.5523 13.7266 12 13.2788 12 12.7266C12 12.1743 11.5523 11.7266 11 11.7266V13.7266ZM6 16.7266C5.44772 16.7266 5 17.1743 5 17.7266C5 18.2788 5.44772 18.7266 6 18.7266V16.7266ZM10 18.7266C10.5523 18.7266 11 18.2788 11 17.7266C11 17.1743 10.5523 16.7266 10 16.7266V18.7266ZM21.2929 23.4337C21.6834 23.8242 22.3166 23.8242 22.7071 23.4337C23.0976 23.0431 23.0976 22.41 22.7071 22.0195L21.2929 23.4337ZM19.8281 19.1405C19.4376 18.7499 18.8044 18.7499 18.4139 19.1405C18.0234 19.531 18.0234 20.1641 18.4139 20.5547L19.8281 19.1405ZM19 10.7266C19 11.2788 19.4477 11.7266 20 11.7266C20.5523 11.7266 21 11.2788 21 10.7266H19ZM2 1.72656V0.726562C1.44772 0.726562 1 1.17428 1 1.72656L2 1.72656ZM2 23.7266H1C1 24.2788 1.44772 24.7266 2 24.7266V23.7266ZM12 24.7266C12.5523 24.7266 13 24.2788 13 23.7266C13 23.1743 12.5523 22.7266 12 22.7266V24.7266ZM13 1.72656V7.72656H15V1.72656H13ZM14 8.72656H20V6.72656H14V8.72656ZM20.7071 7.01946L14.7071 1.01946L13.2929 2.43367L19.2929 8.43367L20.7071 7.01946ZM6 8.72656H10V6.72656H6V8.72656ZM6 13.7266H11V11.7266H6V13.7266ZM6 18.7266H10V16.7266H6V18.7266ZM22.7071 22.0195L19.8281 19.1405L18.4139 20.5547L21.2929 23.4337L22.7071 22.0195ZM19 17.7266C19 18.8311 18.1046 19.7266 17 19.7266V21.7266C19.2091 21.7266 21 19.9357 21 17.7266H19ZM17 19.7266C15.8954 19.7266 15 18.8311 15 17.7266H13C13 19.9357 14.7909 21.7266 17 21.7266V19.7266ZM15 17.7266C15 16.622 15.8954 15.7266 17 15.7266V13.7266C14.7909 13.7266 13 15.5174 13 17.7266H15ZM17 15.7266C18.1046 15.7266 19 16.622 19 17.7266H21C21 15.5174 19.2091 13.7266 17 13.7266V15.7266ZM21 10.7266V7.72656H19V10.7266H21ZM14 0.726562H2V2.72656H14V0.726562ZM1 1.72656V23.7266H3V1.72656H1ZM2 24.7266H12V22.7266H2V24.7266Z" fill="#2F6FF0"/>
</g>
<defs>
<clipPath id="clip0_2753_1487">
<rect width="24" height="24" fill="white" transform="translate(0 0.726562)"/>
</clipPath>
</defs>
</svg>
