<svg width="32" height="32" viewBox="0 0 32 32" fill="none" xmlns="http://www.w3.org/2000/svg">
<path d="M16.0003 21.3333V28M21.3337 18.6667V28M26.667 13.3333V28M29.3337 4L17.8057 15.528C17.7437 15.5901 17.6702 15.6393 17.5892 15.6729C17.5082 15.7066 17.4213 15.7239 17.3337 15.7239C17.246 15.7239 17.1591 15.7066 17.0781 15.6729C16.9972 15.6393 16.9236 15.5901 16.8617 15.528L12.4723 11.1387C12.3473 11.0137 12.1778 10.9435 12.001 10.9435C11.8242 10.9435 11.6547 11.0137 11.5297 11.1387L2.66699 20M5.33366 24V28M10.667 18.6667V28" stroke="#038585" stroke-width="2.8" stroke-linecap="round" stroke-linejoin="round"/>
</svg>
