<svg width="24" height="24" viewBox="0 0 24 24" fill="none" xmlns="http://www.w3.org/2000/svg">
<path d="M6.00014 17.0002H18.0001M17.0001 21.0002C17.2654 21.0002 17.5197 20.8948 17.7073 20.7073C17.8948 20.5197 18.0001 20.2654 18.0001 20.0002V14.6502C18.0001 14.1932 18.3161 13.8062 18.7271 13.6092C19.5781 13.2032 20.2583 12.5097 20.6478 11.651C21.0372 10.7924 21.1108 9.82375 20.8556 8.91611C20.6003 8.00847 20.0327 7.22016 19.2528 6.6903C18.473 6.16044 17.531 5.92309 16.5931 6.02015C16.2069 5.12236 15.566 4.35745 14.7497 3.81999C13.9334 3.28253 12.9775 2.99609 12.0001 2.99609C11.0228 2.99609 10.0669 3.28253 9.25057 3.81999C8.43427 4.35745 7.79338 5.12236 7.40714 6.02015C6.46973 5.92377 5.52838 6.16145 4.74908 6.69129C3.96977 7.22112 3.40255 8.00909 3.14743 8.91625C2.8923 9.82342 2.96565 10.7915 3.35455 11.6499C3.74344 12.5083 4.42291 13.2018 5.27314 13.6082C5.68414 13.8062 6.00014 14.1932 6.00014 14.6492V20.0002C6.00014 20.2654 6.1055 20.5197 6.29304 20.7073C6.48057 20.8948 6.73493 21.0002 7.00014 21.0002H17.0001Z" stroke="#2F6FF0" stroke-width="2" stroke-linecap="round" stroke-linejoin="round"/>
</svg>
