<svg width="16" height="16" viewBox="0 0 16 16" fill="none" xmlns="http://www.w3.org/2000/svg">
<g clip-path="url(#clip0_16830_5056)">
<path d="M10.6668 5.33325H6.66683C6.31321 5.33325 5.97407 5.47373 5.72402 5.72378C5.47397 5.97382 5.3335 6.31296 5.3335 6.66658C5.3335 7.02021 5.47397 7.35935 5.72402 7.60939C5.97407 7.85944 6.31321 7.99992 6.66683 7.99992H9.3335C9.68712 7.99992 10.0263 8.14039 10.2763 8.39044C10.5264 8.64049 10.6668 8.97963 10.6668 9.33325C10.6668 9.68687 10.5264 10.026 10.2763 10.2761C10.0263 10.5261 9.68712 10.6666 9.3335 10.6666H5.3335M8.00016 11.9999V3.99992M14.6668 7.99992C14.6668 11.6818 11.6821 14.6666 8.00016 14.6666C4.31826 14.6666 1.3335 11.6818 1.3335 7.99992C1.3335 4.31802 4.31826 1.33325 8.00016 1.33325C11.6821 1.33325 14.6668 4.31802 14.6668 7.99992Z" stroke="#8547FF" stroke-width="1.6" stroke-linecap="round" stroke-linejoin="round"/>
</g>
<defs>
<clipPath id="clip0_16830_5056">
<rect width="16" height="16" fill="white"/>
</clipPath>
</defs>
</svg>
