<svg width="24" height="24" viewBox="0 0 24 24" fill="none" xmlns="http://www.w3.org/2000/svg">
<path d="M20 15.9C21.7 15.5 23 13.9 23 12C23 9.8 21.2 8 19 8C18.7 4.1 15.5 1 11.5 1C7.5 1 4.2 4.2 4 8.1C2.3 8.5 1 10.1 1 12C1 13.9 2.3 15.4 4 15.9" stroke="#2F6FF0" stroke-width="2" stroke-linecap="round" stroke-linejoin="round"/>
<path d="M12 20C13.6569 20 15 18.6569 15 17C15 15.3431 13.6569 14 12 14C10.3431 14 9 15.3431 9 17C9 18.6569 10.3431 20 12 20Z" stroke="#2F6FF0" stroke-width="2" stroke-linecap="round" stroke-linejoin="round"/>
<path d="M12 14V12" stroke="#2F6FF0" stroke-width="2" stroke-linecap="round" stroke-linejoin="round"/>
<path d="M14.1211 14.879L15.5361 13.464" stroke="#2F6FF0" stroke-width="2" stroke-linecap="round" stroke-linejoin="round"/>
<path d="M15 17H17" stroke="#2F6FF0" stroke-width="2" stroke-linecap="round" stroke-linejoin="round"/>
<path d="M14.1211 19.121L15.5361 20.536" stroke="#2F6FF0" stroke-width="2" stroke-linecap="round" stroke-linejoin="round"/>
<path d="M12 20V22" stroke="#2F6FF0" stroke-width="2" stroke-linecap="round" stroke-linejoin="round"/>
<path d="M9.87887 19.121L8.46387 20.536" stroke="#2F6FF0" stroke-width="2" stroke-linecap="round" stroke-linejoin="round"/>
<path d="M9 17H7" stroke="#2F6FF0" stroke-width="2" stroke-linecap="round" stroke-linejoin="round"/>
<path d="M9.87887 14.879L8.46387 13.464" stroke="#2F6FF0" stroke-width="2" stroke-linecap="round" stroke-linejoin="round"/>
</svg>
