<svg width="24" height="24" viewBox="0 0 24 24" fill="none" xmlns="http://www.w3.org/2000/svg">
<path d="M20 15.9C21.7 15.5 23 13.9 23 12C23 9.8 21.2 8 19 8C18.7 4.1 15.5 1 11.5 1C7.5 1 4.2 4.2 4 8.1C2.3 8.5 1 10.1 1 12C1 13.9 2.3 15.4 4 15.9" stroke="#038585" stroke-width="2" stroke-linecap="round" stroke-linejoin="round"/>
<path d="M16 15.6667H8V21.6667H16V15.6667Z" stroke="#038585" stroke-width="2" stroke-linecap="round" stroke-linejoin="round"/>
<path d="M10 15.6667V13C10 11.8953 10.8953 11 12 11C13.1047 11 14 11.8953 14 13V15.6667" stroke="#038585" stroke-width="2" stroke-linecap="round" stroke-linejoin="round"/>
</svg>
