<svg width="24" height="24" viewBox="0 0 24 24" fill="none" xmlns="http://www.w3.org/2000/svg">
<g clip-path="url(#clip0_3045_4830)">
<path d="M3 23C4.10457 23 5 22.1046 5 21C5 19.8954 4.10457 19 3 19C1.89543 19 1 19.8954 1 21C1 22.1046 1.89543 23 3 23Z" stroke="#2F6FF0" stroke-width="2" stroke-linecap="round" stroke-linejoin="round"/>
<path d="M12 23C13.1046 23 14 22.1046 14 21C14 19.8954 13.1046 19 12 19C10.8954 19 10 19.8954 10 21C10 22.1046 10.8954 23 12 23Z" stroke="#2F6FF0" stroke-width="2" stroke-linecap="round" stroke-linejoin="round"/>
<path d="M21 23C22.1046 23 23 22.1046 23 21C23 19.8954 22.1046 19 21 19C19.8954 19 19 19.8954 19 21C19 22.1046 19.8954 23 21 23Z" stroke="#2F6FF0" stroke-width="2" stroke-linecap="round" stroke-linejoin="round"/>
<path d="M12 19V14" stroke="#2F6FF0" stroke-width="2" stroke-linecap="round" stroke-linejoin="round"/>
<path d="M19.586 19.586L17 17V14" stroke="#2F6FF0" stroke-width="2" stroke-linecap="round" stroke-linejoin="round"/>
<path d="M4.41406 19.586L7.00006 17V14" stroke="#2F6FF0" stroke-width="2" stroke-linecap="round" stroke-linejoin="round"/>
<path d="M18.5 4.99999C18.224 5.00209 17.9488 5.02988 17.678 5.08299C17.2783 3.89363 16.5153 2.8598 15.4965 2.12739C14.4778 1.39498 13.2547 1.00098 12 1.00098C10.7453 1.00098 9.52225 1.39498 8.50348 2.12739C7.48472 2.8598 6.72166 3.89363 6.322 5.08299C6.05117 5.02988 5.77598 5.00209 5.5 4.99999C4.30653 4.99999 3.16193 5.47409 2.31802 6.31801C1.47411 7.16192 1 8.30652 1 9.49999C1 10.6935 1.47411 11.8381 2.31802 12.682C3.16193 13.5259 4.30653 14 5.5 14H18.5C19.6935 14 20.8381 13.5259 21.682 12.682C22.5259 11.8381 23 10.6935 23 9.49999C23 8.30652 22.5259 7.16192 21.682 6.31801C20.8381 5.47409 19.6935 4.99999 18.5 4.99999Z" stroke="#2F6FF0" stroke-width="2" stroke-linecap="round" stroke-linejoin="round"/>
</g>
<defs>
<clipPath id="clip0_3045_4830">
<rect width="24" height="24" fill="white"/>
</clipPath>
</defs>
</svg>
