<svg width="24" height="24" viewBox="0 0 24 24" fill="none" xmlns="http://www.w3.org/2000/svg">
<path d="M23 5V16C23 16.5304 22.7893 17.0391 22.4142 17.4142C22.0391 17.7893 21.5304 18 21 18H19V22L13 18H12" stroke="#161E33" stroke-width="2" stroke-linecap="round" stroke-linejoin="round"/>
<path d="M17 2H3C2.46957 2 1.96086 2.21071 1.58579 2.58579C1.21071 2.96086 1 3.46957 1 4V12C1 12.5304 1.21071 13.0391 1.58579 13.4142C1.96086 13.7893 2.46957 14 3 14H5V19L12 14H17C17.5304 14 18.0391 13.7893 18.4142 13.4142C18.7893 13.0391 19 12.5304 19 12V4C19 3.46957 18.7893 2.96086 18.4142 2.58579C18.0391 2.21071 17.5304 2 17 2Z" stroke="#161E33" stroke-width="2" stroke-linecap="round" stroke-linejoin="round"/>
</svg>
