<svg width="24" height="24" viewBox="0 0 24 24" fill="none" xmlns="http://www.w3.org/2000/svg">
<path d="M10 11H3C1.895 11 1 11.895 1 13V21C1 22.105 1.895 23 3 23H17C18.105 23 19 22.105 19 21V13" stroke="#038585" stroke-width="2" stroke-miterlimit="10" stroke-linecap="square"/>
<path d="M6 7V5" stroke="#038585" stroke-width="2" stroke-miterlimit="10" stroke-linecap="square"/>
<path d="M6 5C6.55228 5 7 4.55228 7 4C7 3.44772 6.55228 3 6 3C5.44772 3 5 3.44772 5 4C5 4.55228 5.44772 5 6 5Z" fill="#038585" stroke="#038585" stroke-width="2" stroke-miterlimit="10" stroke-linecap="square"/>
<path d="M7.5 16.5C7.5 17.0523 7.05228 17.5 6.5 17.5C5.94772 17.5 5.5 17.0523 5.5 16.5C5.5 15.9477 5.94772 15.5 6.5 15.5C7.05228 15.5 7.5 15.9477 7.5 16.5Z" fill="#038585" stroke="#038585"/>
<path d="M13.5 18C14.3284 18 15 17.3284 15 16.5C15 15.6716 14.3284 15 13.5 15C12.6716 15 12 15.6716 12 16.5C12 17.3284 12.6716 18 13.5 18Z" fill="#038585"/>
<path d="M15.2144 11.8926C15.7598 11.9799 16.2726 11.6086 16.3598 11.0632C16.4471 10.5179 16.0758 10.005 15.5304 9.91777C14.9851 9.83051 14.4722 10.2019 14.385 10.7472C14.2977 11.2926 14.6691 11.8054 15.2144 11.8926Z" fill="#038585"/>
<path d="M14.5203 3.56146C15.0577 2.34269 16.2004 1.84981 17.3522 2.0955C18.4899 2.3379 19.4563 3.13985 19.1726 4.59605C18.7693 6.66623 16.6098 6.03153 16.0464 7.97057L16.0543 7.97183" stroke="#038585" stroke-width="2" stroke-linecap="round" stroke-linejoin="round"/>
</svg>
