<svg width="16" height="16" viewBox="0 0 16 16" fill="none" xmlns="http://www.w3.org/2000/svg">
<path fill-rule="evenodd" clip-rule="evenodd" d="M14.9032 4.70401C14.9031 4.43497 14.8455 4.19725 14.7292 3.99322C14.6149 3.79258 14.4437 3.62443 14.2141 3.49147C13.4019 3.02315 12.5894 2.55545 11.7769 2.08775C10.6934 1.4641 9.60996 0.840457 8.52731 0.215358C8.01654 -0.0795188 7.52131 -0.0687687 7.01433 0.230341C6.55971 0.49845 5.00737 1.39086 3.59919 2.2004L3.59916 2.20042C2.67074 2.73415 1.80498 3.23185 1.35781 3.49086C0.894334 3.75916 0.668804 4.16979 0.668693 4.7035C0.668331 5.80233 0.668331 6.90114 0.668331 7.99995C0.668331 9.09877 0.668331 10.1976 0.667969 11.2964C0.667969 11.5596 0.723168 11.7927 0.834401 11.9936C0.948753 12.2003 1.12231 12.3731 1.3572 12.5091C1.80283 12.7672 2.66418 13.2623 3.58899 13.7939L3.58952 13.7942L3.58963 13.7942C5.00037 14.6051 6.55861 15.5008 7.0141 15.7696C7.52131 16.0688 8.01654 16.0795 8.52748 15.7845C9.62486 15.1509 10.7231 14.5188 11.8214 13.8867L11.8235 13.8855C12.6207 13.4267 13.4179 12.9678 14.2147 12.5084C14.4496 12.3725 14.6232 12.1996 14.7375 11.9931C14.8486 11.7921 14.9039 11.559 14.9039 11.2958C14.9039 11.2958 14.9039 6.90171 14.9032 4.70401ZM11.9134 6.47758V7.22807H12.6639V6.47758H13.0391V7.22807H13.7896V7.60331H13.0391V8.3538H13.7896V8.72904H13.0391V9.47953H12.6639V8.72904H11.9134V9.47953H11.5381V8.72904H10.7877V8.3538H11.5381V7.60331H10.7877V7.22807H11.5381V6.47758H11.9134ZM12.6639 7.60331H11.9134V8.3538H12.6639V7.60331ZM12.4051 5.35177C11.4896 3.77157 9.78058 2.70846 7.82307 2.70846C4.90058 2.70846 2.53153 5.07758 2.53153 7.99994C2.53153 8.95869 2.78658 9.85777 3.23235 10.6333C4.14546 12.2218 5.85939 13.2915 7.82307 13.2915L7.88201 13.2912C9.81677 13.27 11.5024 12.2102 12.4078 10.6434L10.1082 9.31117C10.1118 9.30477 10.1155 9.29835 10.1191 9.29192L10.1081 9.31115L10.1082 9.31117C9.65345 10.102 8.80065 10.6349 7.82307 10.6349C6.84363 10.6349 5.98981 10.1001 5.53563 9.30719C5.31499 8.9219 5.18812 8.47582 5.18812 7.99994C5.18812 6.54475 6.36787 5.36505 7.82307 5.36505L7.85313 5.36522C8.80737 5.3759 9.63924 5.89438 10.093 6.66269L12.3961 5.33656L12.4051 5.35177Z" fill="#D4D9E6"/>
</svg>
