<svg width="16" height="16" viewBox="0 0 16 16" fill="none" xmlns="http://www.w3.org/2000/svg">
<g clip-path="url(#clip0_10232_51857)">
<path fill-rule="evenodd" clip-rule="evenodd" d="M12 0.666667C12 0.298477 11.7015 0 11.3333 0C10.9651 0 10.6667 0.298477 10.6667 0.666667V2H5.33333V0.666667C5.33333 0.298477 5.03486 0 4.66667 0C4.29848 0 4 0.298477 4 0.666667V2H0.666667C0.298477 2 0 2.29848 0 2.66667V5.33333V14.6667C0 15.0349 0.298477 15.3333 0.666667 15.3333H15.3333C15.7015 15.3333 16 15.0349 16 14.6667V5.33333V2.66667C16 2.29848 15.7015 2 15.3333 2H12V0.666667ZM14.6667 4.66667V3.33333H11.3333H4.66667H1.33333V4.66667H14.6667ZM1.33333 6H14.6667V14H1.33333V6ZM3.33333 7.33333C2.96514 7.33333 2.66667 7.63181 2.66667 8V8.66667C2.66667 9.03486 2.96514 9.33333 3.33333 9.33333H4.66667C5.03486 9.33333 5.33333 9.03486 5.33333 8.66667V8C5.33333 7.63181 5.03486 7.33333 4.66667 7.33333H3.33333ZM7.33333 7.33333C6.96514 7.33333 6.66667 7.63181 6.66667 8V8.66667C6.66667 9.03486 6.96514 9.33333 7.33333 9.33333H8.66667C9.03486 9.33333 9.33333 9.03486 9.33333 8.66667V8C9.33333 7.63181 9.03486 7.33333 8.66667 7.33333H7.33333ZM2.66667 11.3333C2.66667 10.9651 2.96514 10.6667 3.33333 10.6667H4.66667C5.03486 10.6667 5.33333 10.9651 5.33333 11.3333V12C5.33333 12.3682 5.03486 12.6667 4.66667 12.6667H3.33333C2.96514 12.6667 2.66667 12.3682 2.66667 12V11.3333ZM7.33333 10.6667C6.96514 10.6667 6.66667 10.9651 6.66667 11.3333V12C6.66667 12.3682 6.96514 12.6667 7.33333 12.6667H8.66667C9.03486 12.6667 9.33333 12.3682 9.33333 12V11.3333C9.33333 10.9651 9.03486 10.6667 8.66667 10.6667H7.33333ZM10.6667 8C10.6667 7.63181 10.9651 7.33333 11.3333 7.33333H12.6667C13.0349 7.33333 13.3333 7.63181 13.3333 8V8.66667C13.3333 9.03486 13.0349 9.33333 12.6667 9.33333H11.3333C10.9651 9.33333 10.6667 9.03486 10.6667 8.66667V8Z" fill="#2F6FF0"/>
</g>
<defs>
<clipPath id="clip0_10232_51857">
<rect width="16" height="16" fill="white"/>
</clipPath>
</defs>
</svg>
