<svg width="24" height="25" viewBox="0 0 24 25" fill="none" xmlns="http://www.w3.org/2000/svg">
<path d="M19.6512 5.73421C18.217 5.07827 16.6939 4.6002 15.1041 4.33337C14.9038 4.67803 14.6815 5.14497 14.5259 5.51187C12.8349 5.26726 11.1561 5.26726 9.48839 5.51187C9.33274 5.14497 9.09925 4.67803 8.91024 4.33337C7.30931 4.6002 5.78616 5.07827 4.36198 5.73421C1.48247 9.98121 0.704217 14.1281 1.09334 18.2195C3.0056 19.6091 4.85117 20.4541 6.66449 21.0101C7.1092 20.4097 7.50945 19.7649 7.8541 19.0866C7.19815 18.8421 6.57555 18.5419 5.97519 18.1861C6.13084 18.075 6.28649 17.9527 6.43103 17.8304C10.0554 19.487 13.9811 19.487 17.5611 17.8304C17.7167 17.9527 17.8612 18.075 18.0169 18.1861C17.4165 18.5419 16.7939 18.8421 16.1379 19.0866C16.4826 19.7649 16.8828 20.4097 17.3276 21.0101C19.1397 20.4541 20.9965 19.6091 22.8987 18.2195C23.3768 13.4834 22.1415 9.36977 19.6512 5.73421ZM8.3544 15.6957C7.26483 15.6957 6.37541 14.7063 6.37541 13.4944C6.37541 12.2826 7.2426 11.2931 8.3544 11.2931C9.45504 11.2931 10.3556 12.2826 10.3333 13.4944C10.3333 14.7063 9.45504 15.6957 8.3544 15.6957ZM15.6599 15.6957C14.5703 15.6957 13.6798 14.7063 13.6798 13.4944C13.6798 12.2826 14.5481 11.2931 15.6599 11.2931C16.7606 11.2931 17.6611 12.2826 17.6388 13.4944C17.6388 14.7063 16.7717 15.6957 15.6599 15.6957Z" stroke="#8547FF" stroke-width="2" stroke-linejoin="round"/>
</svg>
