<svg width="24" height="24" viewBox="0 0 24 24" fill="none" xmlns="http://www.w3.org/2000/svg">
<path d="M19.6512 5.40083C18.217 4.7449 16.6939 4.26683 15.1041 4C14.9038 4.34466 14.6815 4.81159 14.5259 5.17849C12.8349 4.93389 11.1561 4.93389 9.48839 5.17849C9.33274 4.81159 9.09925 4.34466 8.91024 4C7.30931 4.26683 5.78616 4.7449 4.36198 5.40083C1.48247 9.64783 0.704217 13.7948 1.09334 17.8861C3.0056 19.2758 4.85117 20.1208 6.66449 20.6767C7.1092 20.0764 7.50945 19.4315 7.8541 18.7533C7.19815 18.5088 6.57555 18.2086 5.97519 17.8527C6.13084 17.7416 6.28649 17.6194 6.43103 17.497C10.0554 19.1536 13.9811 19.1536 17.5611 17.497C17.7167 17.6194 17.8612 17.7416 18.0169 17.8527C17.4165 18.2086 16.7939 18.5088 16.1379 18.7533C16.4826 19.4315 16.8828 20.0764 17.3276 20.6767C19.1397 20.1208 20.9965 19.2758 22.8987 17.8861C23.3768 13.15 22.1415 9.03639 19.6512 5.40083ZM8.3544 15.3624C7.26483 15.3624 6.37541 14.3729 6.37541 13.161C6.37541 11.9493 7.2426 10.9597 8.3544 10.9597C9.45504 10.9597 10.3556 11.9493 10.3333 13.161C10.3333 14.3729 9.45504 15.3624 8.3544 15.3624ZM15.6599 15.3624C14.5703 15.3624 13.6798 14.3729 13.6798 13.161C13.6798 11.9493 14.5481 10.9597 15.6599 10.9597C16.7606 10.9597 17.6611 11.9493 17.6388 13.161C17.6388 14.3729 16.7717 15.3624 15.6599 15.3624Z" stroke="#2F6FF0" stroke-width="2" stroke-linejoin="round"/>
</svg>
