<svg width="24" height="24" viewBox="0 0 24 24" fill="none" xmlns="http://www.w3.org/2000/svg">
<path fill-rule="evenodd" clip-rule="evenodd" d="M3 0C3.55228 0 4 0.447715 4 1V4H9V3C9 2.44772 9.44772 2 10 2H21C21.5523 2 22 2.44772 22 3V7C22 7.55228 21.5523 8 21 8H10C9.44772 8 9 7.55228 9 7V6H4V12H9V11C9 10.4477 9.44772 10 10 10H21C21.5523 10 22 10.4477 22 11V15C22 15.5523 21.5523 16 21 16H10C9.44772 16 9 15.5523 9 15V14H4V20H9V19C9 18.4477 9.44772 18 10 18H21C21.5523 18 22 18.4477 22 19V23C22 23.5523 21.5523 24 21 24H10C9.44772 24 9 23.5523 9 23V22H3C2.44772 22 2 21.5523 2 21V13V5V1C2 0.447715 2.44772 0 3 0ZM11 13V14H20V12H11V13ZM11 22V21V20H20V22H11ZM11 5V6H20V4H11V5Z" fill="#2F6FF0"/>
</svg>
