<svg width="16" height="16" viewBox="0 0 16 16" fill="none" xmlns="http://www.w3.org/2000/svg">
<g clip-path="url(#clip0_3871_26919)">
<path fill-rule="evenodd" clip-rule="evenodd" d="M8 0.199219C3.6 0.199219 0 3.79922 0 8.19922C0 11.7326 2.26667 14.7326 5.46667 15.7992C5.86667 15.8659 6 15.5992 6 15.3992C6 15.1992 6 14.7326 6 14.0659C3.8 14.5326 3.33333 12.9992 3.33333 12.9992C3 12.0659 2.46667 11.7992 2.46667 11.7992C1.66667 11.3326 2.46667 11.3326 2.46667 11.3326C3.26667 11.3992 3.66667 12.1326 3.66667 12.1326C4.4 13.3326 5.53333 12.9992 6 12.7992C6.06667 12.2659 6.26667 11.9326 6.53333 11.7326C4.73333 11.5326 2.86667 10.8659 2.86667 7.79922C2.86667 6.93255 3.2 6.19922 3.66667 5.66589C3.66667 5.39922 3.33333 4.59922 3.8 3.53255C3.8 3.53255 4.46667 3.33255 6 4.33255C6.66667 4.13255 7.33333 4.06589 8 4.06589C8.66667 4.06589 9.33333 4.13255 10 4.33255C11.5333 3.26589 12.2 3.53255 12.2 3.53255C12.6667 4.66589 12.3333 5.46589 12.2667 5.66589C12.8 6.19922 13.0667 6.93255 13.0667 7.79922C13.0667 10.8659 11.2 11.5326 9.4 11.7326C9.66667 11.9992 9.93333 12.4659 9.93333 13.1992C9.93333 14.2659 9.93333 15.1326 9.93333 15.3992C9.93333 15.5992 10.0667 15.8659 10.4667 15.7992C13.6667 14.7326 15.9333 11.7326 15.9333 8.19922C16 3.79922 12.4 0.199219 8 0.199219Z" fill="#DC244C"/>
</g>
<defs>
<clipPath id="clip0_3871_26919">
<rect width="16" height="16" fill="white"/>
</clipPath>
</defs>
</svg>
