<svg width="16" height="17" viewBox="0 0 16 17" fill="none" xmlns="http://www.w3.org/2000/svg">
<g clip-path="url(#clip0_6269_955)">
<path fill-rule="evenodd" clip-rule="evenodd" d="M8 0.700012C3.6 0.700012 0 4.30001 0 8.70001C0 12.2333 2.26667 15.2333 5.46667 16.3C5.86667 16.3667 6 16.1 6 15.9C6 15.7 6 15.2333 6 14.5667C3.8 15.0333 3.33333 13.5 3.33333 13.5C3 12.5667 2.46667 12.3 2.46667 12.3C1.66667 11.8333 2.46667 11.8333 2.46667 11.8333C3.26667 11.9 3.66667 12.6333 3.66667 12.6333C4.4 13.8333 5.53333 13.5 6 13.3C6.06667 12.7667 6.26667 12.4333 6.53333 12.2333C4.73333 12.0333 2.86667 11.3667 2.86667 8.30001C2.86667 7.43335 3.2 6.70001 3.66667 6.16668C3.66667 5.90001 3.33333 5.10001 3.8 4.03335C3.8 4.03335 4.46667 3.83335 6 4.83335C6.66667 4.63335 7.33333 4.56668 8 4.56668C8.66667 4.56668 9.33333 4.63335 10 4.83335C11.5333 3.76668 12.2 4.03335 12.2 4.03335C12.6667 5.16668 12.3333 5.96668 12.2667 6.16668C12.8 6.70001 13.0667 7.43335 13.0667 8.30001C13.0667 11.3667 11.2 12.0333 9.4 12.2333C9.66667 12.5 9.93333 12.9667 9.93333 13.7C9.93333 14.7667 9.93333 15.6333 9.93333 15.9C9.93333 16.1 10.0667 16.3667 10.4667 16.3C13.6667 15.2333 15.9333 12.2333 15.9333 8.70001C16 4.30001 12.4 0.700012 8 0.700012Z" fill="#F0F3FA"/>
</g>
<defs>
<clipPath id="clip0_6269_955">
<rect width="16" height="16" fill="white" transform="translate(0 0.5)"/>
</clipPath>
</defs>
</svg>
