<svg width="24" height="24" viewBox="0 0 24 24" fill="none" xmlns="http://www.w3.org/2000/svg">
<g clip-path="url(#clip0_7978_41141)">
<path d="M11.168 6.15625C11.6405 5.8412 12.2462 5.82194 12.7354 6.09766L12.832 6.15625L14.4941 7.26367C14.3837 9.77454 12.7 10.5 12 10.5C11.3 10.5 9.61526 9.77457 9.50488 7.26367L11.168 6.15625Z" fill="#8547FF" stroke="#8547FF"/>
<path d="M8.00104 12C6.76304 10.623 6.05404 8.851 6.00104 7C6.00104 5 10.001 1 12.001 1C14.001 1 18.001 5 18.001 7C17.948 8.851 17.239 10.623 16.001 12M6.75403 10.185L3.50103 12.624C3.17503 12.868 2.93003 13.206 2.80103 13.592L1.39204 17.827C1.15204 18.546 1.33903 19.338 1.87503 19.874L3.00103 21M17.248 10.186L20.501 12.624C20.827 12.868 21.072 13.206 21.201 13.592L22.612 17.827C22.852 18.546 22.665 19.338 22.129 19.874L21.001 21M6.00104 15H18.001V23H6.00104V15Z" stroke="#8547FF" stroke-width="2" stroke-linecap="round" stroke-linejoin="round"/>
<path d="M12 20.5C12.8284 20.5 13.5 19.8284 13.5 19C13.5 18.1716 12.8284 17.5 12 17.5C11.1716 17.5 10.5 18.1716 10.5 19C10.5 19.8284 11.1716 20.5 12 20.5Z" fill="#8547FF"/>
</g>
<defs>
<clipPath id="clip0_7978_41141">
<rect width="24" height="24" fill="white"/>
</clipPath>
</defs>
</svg>
