<svg width="24" height="24" viewBox="0 0 24 24" fill="none" xmlns="http://www.w3.org/2000/svg">
<path d="M14 7.99999L11.828 10.172C11.0779 10.9219 10.0607 11.3431 9 11.3431C7.93934 11.3431 6.92211 10.9219 6.172 10.172L6 9.99999L10.929 5.07099C12.2552 3.74513 14.0537 3.00031 15.929 3.00031C17.8043 3.00031 19.6028 3.74513 20.929 5.07099C22.0427 6.18479 22.7528 7.63842 22.9468 9.20151C23.1408 10.7646 22.8076 12.3477 22 13.7" stroke="#2F6FF0" stroke-width="2" stroke-linecap="round" stroke-linejoin="round"/>
<path d="M15.2657 11.266L18.8787 14.879C19.4411 15.4416 19.757 16.2045 19.757 17C19.757 17.7955 19.4411 18.5584 18.8787 19.121L17.2427 20.757C16.6855 21.3143 16.024 21.7563 15.296 22.0579C14.568 22.3595 13.7877 22.5147 12.9997 22.5147C12.2117 22.5147 11.4314 22.3595 10.7033 22.0579C9.97533 21.7563 9.31385 21.3143 8.75668 20.757L3.07068 15.071C1.74483 13.7448 1 11.9463 1 10.071C1 8.19571 1.74483 6.3972 3.07068 5.071C4.37792 3.76011 6.14845 3.01619 7.99968 3" stroke="#2F6FF0" stroke-width="2" stroke-linecap="round" stroke-linejoin="round"/>
<path d="M18.391 19.609L14.5 15.719" stroke="#2F6FF0" stroke-width="2" stroke-linecap="round" stroke-linejoin="round"/>
<path d="M15.5128 21.965L11.8828 18.335" stroke="#2F6FF0" stroke-width="2" stroke-linecap="round" stroke-linejoin="round"/>
</svg>
