<svg width="24" height="24" viewBox="0 0 24 24" fill="none" xmlns="http://www.w3.org/2000/svg">
<path d="M12 5C13.5 3.5 14.74 3 16.5 3C17.9587 3 19.3576 3.57946 20.3891 4.61091C21.4205 5.64236 22 7.04131 22 8.5C22 10.79 20.49 12.54 19 14L12 21L5 14C3.5 12.55 2 10.8 2 8.5C2 7.04131 2.57946 5.64236 3.61091 4.61091C4.64236 3.57946 6.04131 3 7.5 3C9.26 3 10.5 3.5 12 5ZM12 5L9.04 7.96C8.83682 8.16171 8.67556 8.40162 8.56552 8.66593C8.45548 8.93023 8.39882 9.2137 8.39882 9.5C8.39882 9.7863 8.45548 10.0698 8.56552 10.3341C8.67556 10.5984 8.83682 10.8383 9.04 11.04C9.86 11.86 11.17 11.89 12.04 11.11L14.11 9.21C14.6289 8.73919 15.3044 8.47839 16.005 8.47839C16.7056 8.47839 17.3811 8.73919 17.9 9.21L20.86 11.87M18 15L16 13M15 18L13 16" stroke="#2F6FF0" stroke-width="2" stroke-linecap="round" stroke-linejoin="round"/>
</svg>
