<svg width="16" height="16" viewBox="0 0 16 16" fill="none" xmlns="http://www.w3.org/2000/svg">
<path d="M14 10L11.9427 7.94267C11.6926 7.69271 11.3536 7.55229 11 7.55229C10.6464 7.55229 10.3074 7.69271 10.0573 7.94267L4 14M3.33333 2H12.6667C13.403 2 14 2.59695 14 3.33333V12.6667C14 13.403 13.403 14 12.6667 14H3.33333C2.59695 14 2 13.403 2 12.6667V3.33333C2 2.59695 2.59695 2 3.33333 2ZM7.33333 6C7.33333 6.73638 6.73638 7.33333 6 7.33333C5.26362 7.33333 4.66667 6.73638 4.66667 6C4.66667 5.26362 5.26362 4.66667 6 4.66667C6.73638 4.66667 7.33333 5.26362 7.33333 6Z" stroke="#2F6FF0" stroke-width="1.6" stroke-linecap="round" stroke-linejoin="round"/>
</svg>
