<svg width="24" height="24" viewBox="0 0 24 24" fill="none" xmlns="http://www.w3.org/2000/svg">
<path d="M12 5V10" stroke="#8547FF" stroke-width="2" stroke-linecap="round" stroke-linejoin="round"/>
<path d="M12 14V19" stroke="#8547FF" stroke-width="2" stroke-linecap="round" stroke-linejoin="round"/>
<path d="M5.74219 6.52047L10.2572 3.98047" stroke="#8547FF" stroke-width="2" stroke-linecap="round" stroke-linejoin="round"/>
<path d="M18.2572 6.52047L13.7422 3.98047" stroke="#8547FF" stroke-width="2" stroke-linecap="round" stroke-linejoin="round"/>
<path d="M5.74219 17.4805L10.2572 20.0205" stroke="#8547FF" stroke-width="2" stroke-linecap="round" stroke-linejoin="round"/>
<path d="M18.2572 17.4805L13.7422 20.0205" stroke="#8547FF" stroke-width="2" stroke-linecap="round" stroke-linejoin="round"/>
<path d="M4 9.5V14.5" stroke="#8547FF" stroke-width="2" stroke-linecap="round" stroke-linejoin="round"/>
<path d="M20 9.5V14.5" stroke="#8547FF" stroke-width="2" stroke-linecap="round" stroke-linejoin="round"/>
<path d="M10.2592 11.0195L5.74219 8.47852" stroke="#8547FF" stroke-width="2" stroke-linecap="round" stroke-linejoin="round"/>
<path d="M13.7422 11.0195L18.2562 8.48047" stroke="#8547FF" stroke-width="2" stroke-linecap="round" stroke-linejoin="round"/>
<path d="M10.2592 12.9805L5.74219 15.5215" stroke="#8547FF" stroke-width="2" stroke-linecap="round" stroke-linejoin="round"/>
<path d="M13.7422 12.9805L18.2562 15.5195" stroke="#8547FF" stroke-width="2" stroke-linecap="round" stroke-linejoin="round"/>
<path d="M4 18.5C5.10457 18.5 6 17.6046 6 16.5C6 15.3954 5.10457 14.5 4 14.5C2.89543 14.5 2 15.3954 2 16.5C2 17.6046 2.89543 18.5 4 18.5Z" stroke="#8547FF" stroke-width="2" stroke-linecap="round" stroke-linejoin="round"/>
<path d="M4 9.5C5.10457 9.5 6 8.60457 6 7.5C6 6.39543 5.10457 5.5 4 5.5C2.89543 5.5 2 6.39543 2 7.5C2 8.60457 2.89543 9.5 4 9.5Z" stroke="#8547FF" stroke-width="2" stroke-linecap="round" stroke-linejoin="round"/>
<path d="M20 18.5C21.1046 18.5 22 17.6046 22 16.5C22 15.3954 21.1046 14.5 20 14.5C18.8954 14.5 18 15.3954 18 16.5C18 17.6046 18.8954 18.5 20 18.5Z" stroke="#8547FF" stroke-width="2" stroke-linecap="round" stroke-linejoin="round"/>
<path d="M20 9.5C21.1046 9.5 22 8.60457 22 7.5C22 6.39543 21.1046 5.5 20 5.5C18.8954 5.5 18 6.39543 18 7.5C18 8.60457 18.8954 9.5 20 9.5Z" stroke="#8547FF" stroke-width="2" stroke-linecap="round" stroke-linejoin="round"/>
<path d="M12 14C13.1046 14 14 13.1046 14 12C14 10.8954 13.1046 10 12 10C10.8954 10 10 10.8954 10 12C10 13.1046 10.8954 14 12 14Z" stroke="#8547FF" stroke-width="2" stroke-linecap="round" stroke-linejoin="round"/>
<path d="M12 5C13.1046 5 14 4.10457 14 3C14 1.89543 13.1046 1 12 1C10.8954 1 10 1.89543 10 3C10 4.10457 10.8954 5 12 5Z" stroke="#8547FF" stroke-width="2" stroke-linecap="round" stroke-linejoin="round"/>
<path d="M12 23C13.1046 23 14 22.1046 14 21C14 19.8954 13.1046 19 12 19C10.8954 19 10 19.8954 10 21C10 22.1046 10.8954 23 12 23Z" stroke="#8547FF" stroke-width="2" stroke-linecap="round" stroke-linejoin="round"/>
</svg>
