<svg width="16" height="16" viewBox="0 0 16 16" fill="none" xmlns="http://www.w3.org/2000/svg">
<g clip-path="url(#clip0_3824_30167)">
<path d="M7.85496 2.96468C7.11564 3.48465 6.27774 4.074 5.82876 5.04903C5.04895 6.75013 7.42446 8.60567 7.52599 8.68383C7.54958 8.70198 7.57783 8.71105 7.60599 8.71105C7.6359 8.71105 7.66583 8.70083 7.69015 8.68045C7.7373 8.64101 7.75068 8.57401 7.72237 8.51945C7.71377 8.50289 6.86108 6.84663 6.89277 5.65844C6.90399 5.24459 7.48315 4.77512 8.09627 4.27809C8.65784 3.82284 9.2944 3.30687 9.66684 2.70327C10.4845 1.37464 9.57572 0.0681989 9.56644 0.0551364C9.53034 0.0044487 9.46372 -0.0138951 9.40675 0.0110737C9.34984 0.0361988 9.31831 0.0977303 9.33131 0.158574C9.33315 0.167231 9.50987 1.03117 9.01812 1.92127C8.81556 2.28908 8.37043 2.60215 7.85496 2.96468Z" fill="#D4D9E6"/>
<path d="M10.9666 3.55055C11.0188 3.51127 11.0341 3.43961 11.0025 3.38243C10.9709 3.32524 10.9022 3.30002 10.8411 3.32321C10.7155 3.37096 7.76562 4.50806 7.76562 5.88197C7.76562 6.82906 8.17019 7.32938 8.4656 7.69476C8.58147 7.83807 8.6815 7.96182 8.71447 8.06748C8.80729 8.37195 8.58741 8.92226 8.49494 9.10864C8.46828 9.1622 8.48135 9.22714 8.52669 9.26626C8.55119 9.28742 8.58178 9.29817 8.61241 9.29817C8.63847 9.29817 8.66466 9.29042 8.68729 9.27467C8.738 9.23942 9.92688 8.39885 9.71366 7.38613C9.63423 7.00119 9.44507 6.71994 9.27816 6.47175C9.0196 6.08722 8.83285 5.80947 9.11616 5.29646C9.4481 4.69809 10.9514 3.56193 10.9666 3.55055Z" fill="#D4D9E6"/>
<path d="M3.29149 9.31994C3.24093 9.47134 3.2648 9.62153 3.36046 9.75441C3.68024 10.1984 4.81296 10.4428 6.5501 10.4428C6.55019 10.4428 6.55025 10.4428 6.55031 10.4428C6.78569 10.4428 7.03419 10.4382 7.28872 10.4291C10.0661 10.3297 11.0962 9.46441 11.1387 9.42763C11.185 9.38753 11.1974 9.32078 11.1686 9.26678C11.1398 9.21281 11.0777 9.18569 11.0184 9.20203C10.0402 9.46909 8.21373 9.56391 6.94685 9.56391C5.52925 9.56391 4.80731 9.46178 4.63056 9.38638C4.72124 9.26184 5.28062 9.03947 5.97378 8.90312C6.04003 8.89012 6.08556 8.82894 6.079 8.76175C6.07244 8.69456 6.016 8.64331 5.94847 8.64331C5.54215 8.64331 3.50449 8.67593 3.29149 9.31994Z" fill="#D4D9E6"/>
<path d="M12.5842 8.42874C12.0114 8.42874 11.4681 8.71587 11.4453 8.72802C11.3923 8.7564 11.3654 8.81715 11.38 8.87553C11.3946 8.93381 11.447 8.97477 11.5071 8.97484C11.5192 8.97484 12.729 8.98474 12.8386 9.67597C12.9356 10.2723 11.6939 11.2385 11.2072 11.5605C11.1547 11.5953 11.1343 11.6624 11.1587 11.7206C11.1795 11.77 11.2276 11.801 11.2796 11.801C11.2886 11.801 11.2978 11.8 11.3069 11.7981C11.4224 11.7734 14.1321 11.1763 13.8456 9.59859C13.6708 8.63171 13.0632 8.42874 12.5842 8.42874Z" fill="#D4D9E6"/>
<path d="M10.7244 11.3674C10.7339 11.3169 10.7128 11.2655 10.6708 11.2359L10.021 10.7808C9.98936 10.7586 9.94933 10.7517 9.91214 10.7615C9.90536 10.7632 9.22592 10.9419 8.23948 11.0514C7.84798 11.0953 7.40947 11.1185 6.97128 11.1185C5.98509 11.1185 5.34028 11.0026 5.24637 10.9176C5.23393 10.8937 5.23787 10.8829 5.24009 10.8769C5.25715 10.8294 5.34859 10.7731 5.40753 10.7507C5.47262 10.7266 5.50772 10.656 5.48747 10.5896C5.46728 10.5231 5.39881 10.484 5.33125 10.5002C4.67949 10.6575 4.3608 10.8775 4.38399 11.1539C4.42518 11.6441 5.56056 11.8957 6.52041 11.9622C6.65844 11.9717 6.80772 11.9764 6.964 11.9764C6.9641 11.9764 6.96416 11.9764 6.96425 11.9764C8.56032 11.9764 10.6065 11.4757 10.6269 11.4706C10.6769 11.4584 10.715 11.418 10.7244 11.3674Z" fill="#D4D9E6"/>
<path d="M5.82676 12.4194C5.87598 12.3874 5.89779 12.3266 5.88032 12.2705C5.86292 12.2145 5.81051 12.1777 5.75164 12.1785C5.66429 12.1808 4.89698 12.2154 4.84326 12.7039C4.82701 12.8499 4.86882 12.9834 4.9676 13.1004C5.2431 13.4269 5.98679 13.621 7.24077 13.6936C7.38911 13.7025 7.5398 13.707 7.68871 13.707C9.28293 13.707 10.3566 13.2079 10.4016 13.1866C10.4452 13.166 10.4739 13.1231 10.4765 13.075C10.4791 13.0269 10.455 12.9812 10.4139 12.9561L9.59281 12.4548C9.56431 12.4374 9.53021 12.4317 9.49771 12.4384C9.49253 12.4394 8.97118 12.5476 8.1844 12.6544C8.03552 12.6746 7.84908 12.6849 7.63033 12.6849C6.84439 12.6849 5.9702 12.5565 5.80254 12.4724C5.8001 12.4567 5.8032 12.4368 5.82676 12.4194Z" fill="#D4D9E6"/>
<path d="M6.94583 15.2141C10.5975 15.211 12.5574 14.5616 12.935 14.153C13.0687 14.0084 13.0831 13.8715 13.0718 13.7821C13.0437 13.5621 12.8433 13.4274 12.8206 13.4128C12.7658 13.3776 12.6922 13.3868 12.6494 13.4361C12.6068 13.4854 12.6058 13.5575 12.6486 13.6068C12.6716 13.6364 12.6849 13.686 12.6176 13.7534C12.4667 13.8944 10.9443 14.3223 8.40958 14.4508C8.06236 14.4689 7.69817 14.478 7.3272 14.4781C5.05772 14.4781 3.39681 14.1672 3.17878 13.9861C3.26281 13.8654 3.85031 13.6724 4.4751 13.5633C4.5455 13.551 4.59307 13.4847 4.58216 13.4141C4.57125 13.3435 4.50616 13.2949 4.435 13.3041C4.41738 13.3065 4.35757 13.3101 4.28832 13.3143C3.25744 13.3773 2.06615 13.5175 2.00399 14.0487C1.98512 14.2105 2.03321 14.3575 2.14699 14.4854C2.4254 14.7982 3.22562 15.2141 6.9457 15.2141C6.94576 15.2141 6.94576 15.2141 6.94583 15.2141Z" fill="#D4D9E6"/>
<path d="M13.651 14.2681C13.5994 14.2442 13.5384 14.2563 13.4999 14.2979C13.4945 14.3037 12.9455 14.8778 11.2948 15.2149C10.6628 15.3415 9.47652 15.4057 7.76892 15.4057C6.05814 15.4057 4.43022 15.3384 4.414 15.3377C4.346 15.3344 4.28785 15.3838 4.2786 15.4508C4.26932 15.5177 4.31244 15.5807 4.3781 15.5963C4.39504 15.6003 6.10107 16 8.43371 16C9.55249 16 10.6412 15.9092 11.6696 15.7299C13.5871 15.3937 13.7214 14.4429 13.7262 14.4026C13.7329 14.3463 13.7025 14.292 13.651 14.2681Z" fill="#D4D9E6"/>
</g>
<defs>
<clipPath id="clip0_3824_30167">
<rect width="16" height="16" fill="white"/>
</clipPath>
</defs>
</svg>
