<svg width="22" height="23" viewBox="0 0 22 23" fill="none" xmlns="http://www.w3.org/2000/svg">
<path d="M7.5 3H1V12.5L9.9138 21.4138C10.6948 22.1948 11.9612 22.1948 12.7422 21.4138L19.656 14.5" stroke="#038585" stroke-width="2" stroke-linecap="round" stroke-linejoin="round"/>
<path d="M6.5 9C6.77614 9 7 8.77614 7 8.5C7 8.22386 6.77614 8 6.5 8C6.22386 8 6 8.22386 6 8.5C6 8.77614 6.22386 9 6.5 9Z" fill="#038585" stroke="#038585" stroke-width="2" stroke-linecap="round" stroke-linejoin="round"/>
<path d="M16 11C18.7614 11 21 8.76142 21 6C21 3.23858 18.7614 1 16 1C13.2386 1 11 3.23858 11 6C11 8.76142 13.2386 11 16 11Z" stroke="#038585" stroke-width="2" stroke-linecap="round" stroke-linejoin="round"/>
<path d="M16 4V6L17.25 7.25" fill="#038585"/>
<path d="M16 4V6L17.25 7.25" stroke="#038585" stroke-width="2" stroke-linecap="round" stroke-linejoin="round"/>
</svg>
