<svg width="16" height="16" viewBox="0 0 16 16" fill="none" xmlns="http://www.w3.org/2000/svg">
<g clip-path="url(#clip0_17400_5899)">
<path d="M1.33301 7.99992H3.33301M3.33301 7.99992C3.33301 10.5772 5.42235 12.6666 7.99967 12.6666M3.33301 7.99992C3.33301 5.42259 5.42235 3.33325 7.99967 3.33325M12.6663 7.99992H14.6663M12.6663 7.99992C12.6663 10.5772 10.577 12.6666 7.99967 12.6666M12.6663 7.99992C12.6663 5.42259 10.577 3.33325 7.99967 3.33325M7.99967 1.33325V3.33325M7.99967 12.6666V14.6666M9.99967 7.99992C9.99967 9.10449 9.10424 9.99992 7.99967 9.99992C6.8951 9.99992 5.99967 9.10449 5.99967 7.99992C5.99967 6.89535 6.8951 5.99992 7.99967 5.99992C9.10424 5.99992 9.99967 6.89535 9.99967 7.99992Z" stroke="#2F6FF0" stroke-width="1.6" stroke-linecap="round" stroke-linejoin="round"/>
</g>
<defs>
<clipPath id="clip0_17400_5899">
<rect width="16" height="16" fill="white"/>
</clipPath>
</defs>
</svg>
