<svg width="24" height="24" viewBox="0 0 24 24" fill="none" xmlns="http://www.w3.org/2000/svg">
<path d="M8.5 3H2.5C1.67157 3 1 3.67157 1 4.5V19.5C1 20.3284 1.67157 21 2.5 21H8.5C9.32843 21 10 20.3284 10 19.5V4.5C10 3.67157 9.32843 3 8.5 3Z" stroke="#DC244C" stroke-width="2" stroke-linecap="round" stroke-linejoin="round"/>
<path d="M16 3H15.5C15.1022 3 14.7206 3.15804 14.4393 3.43934C14.158 3.72064 14 4.10218 14 4.5V5" stroke="#DC244C" stroke-width="2" stroke-linecap="round" stroke-linejoin="round"/>
<path d="M21 3H21.5C21.8978 3 22.2794 3.15804 22.5607 3.43934C22.842 3.72064 23 4.10218 23 4.5V5" stroke="#DC244C" stroke-width="2" stroke-linecap="round" stroke-linejoin="round"/>
<path d="M21 21H21.5C21.8978 21 22.2794 20.842 22.5607 20.5607C22.842 20.2794 23 19.8978 23 19.5V19" stroke="#DC244C" stroke-width="2" stroke-linecap="round" stroke-linejoin="round"/>
<path d="M16 21H15.5C15.1022 21 14.7206 20.842 14.4393 20.5607C14.158 20.2794 14 19.8978 14 19.5V19" stroke="#DC244C" stroke-width="2" stroke-linecap="round" stroke-linejoin="round"/>
<path d="M14 9V10" stroke="#DC244C" stroke-width="2" stroke-linecap="round" stroke-linejoin="round"/>
<path d="M23 9V10" stroke="#DC244C" stroke-width="2" stroke-linecap="round" stroke-linejoin="round"/>
<path d="M14 14V15" stroke="#DC244C" stroke-width="2" stroke-linecap="round" stroke-linejoin="round"/>
<path d="M23 14V15" stroke="#DC244C" stroke-width="2" stroke-linecap="round" stroke-linejoin="round"/>
</svg>
