<svg width="16" height="16" viewBox="0 0 16 16" fill="#E1E5F0" xmlns="http://www.w3.org/2000/svg">
<g id="Menu/Documentation">
<path id="Vector" fill-rule="evenodd" clip-rule="evenodd" d="M4.25 1C3.14908 1 2.12753 1.23681 1.36311 1.64443C0.620129 2.04063 0 2.67297 0 3.5V14.5C0 14.7761 0.223858 15 0.5 15C0.776142 15 1 14.7761 1 14.5C1 14.222 1.21937 13.8544 1.83364 13.5268C2.42647 13.2107 3.27992 13 4.25 13C5.22008 13 6.07353 13.2107 6.66636 13.5268C7.28063 13.8544 7.5 14.222 7.5 14.5C7.5 14.7761 7.72386 15 8 15C8.27614 15 8.5 14.7761 8.5 14.5C8.5 14.222 8.71937 13.8544 9.33364 13.5268C9.92647 13.2107 10.7799 13 11.75 13C12.7201 13 13.5735 13.2107 14.1664 13.5268C14.7806 13.8544 15 14.222 15 14.5C15 14.7761 15.2239 15 15.5 15C15.7761 15 16 14.7761 16 14.5V3.5C16 2.67297 15.3799 2.04063 14.6369 1.64443C13.8725 1.23681 12.8509 1 11.75 1C10.6491 1 9.62753 1.23681 8.86311 1.64443C8.53799 1.8178 8.2364 2.03638 8 2.29671C7.7636 2.03638 7.46201 1.8178 7.13689 1.64443C6.37247 1.23681 5.35092 1 4.25 1ZM1.36311 12.6444C1.23778 12.7113 1.11595 12.7848 1 12.8649V3.5C1 3.22203 1.21937 2.85437 1.83364 2.52682C2.42647 2.21069 3.27992 2 4.25 2C5.22008 2 6.07353 2.21069 6.66636 2.52682C7.28063 2.85437 7.5 3.22203 7.5 3.5L7.5 12.8649C7.38405 12.7848 7.26222 12.7113 7.13689 12.6444C6.37247 12.2368 5.35092 12 4.25 12C3.14908 12 2.12753 12.2368 1.36311 12.6444ZM8.5 12.8649C8.61595 12.7848 8.73778 12.7113 8.86311 12.6444C9.62753 12.2368 10.6491 12 11.75 12C12.8509 12 13.8725 12.2368 14.6369 12.6444C14.7622 12.7113 14.8841 12.7848 15 12.8649V3.5C15 3.22203 14.7806 2.85437 14.1664 2.52682C13.5735 2.21069 12.7201 2 11.75 2C10.7799 2 9.92647 2.21069 9.33364 2.52682C8.71937 2.85437 8.5 3.22203 8.5 3.5V12.8649Z"/>
</g>
</svg>
