<svg width="16" height="16" viewBox="0 0 16 16" fill="none" xmlns="http://www.w3.org/2000/svg">
<g id="Travel" clip-path="url(#clip0_8017_45664)">
<path id="Icon" fill-rule="evenodd" clip-rule="evenodd" d="M3.33167 3.78755C3.49601 3.69203 3.6933 3.67121 3.87395 3.73031L10.2755 5.82457L13.0017 4.26674C13.2281 4.13152 13.479 4.04238 13.74 4.00448C14.0039 3.96617 14.2727 3.981 14.5308 4.04811C14.7888 4.11521 15.0308 4.23324 15.2426 4.39524C15.4544 4.55724 15.6316 4.75995 15.7639 4.99145C15.8962 5.22294 15.9808 5.47855 16.0129 5.74325C16.0449 6.00794 16.0238 6.27637 15.9506 6.53276C15.8774 6.78914 15.7536 7.0283 15.5867 7.23617C15.4215 7.44179 15.2174 7.61269 14.9859 7.73906L7.97809 11.7435C7.92123 11.776 7.85989 11.8 7.79605 11.8146L4.14872 12.6492C3.95757 12.693 3.75687 12.6504 3.6 12.5327L0.933333 10.5327C0.75368 10.398 0.653934 10.1818 0.66797 9.95771C0.682007 9.73358 0.807939 9.53158 1.003 9.42031L2.46967 8.58364C2.62517 8.49493 2.80982 8.4725 2.98204 8.52138L4.70184 9.00954L6.12653 8.19544L1.69606 5.92595C1.47905 5.81479 1.34004 5.59403 1.33357 5.35029C1.3271 5.10656 1.4542 4.87873 1.665 4.75621L3.33167 3.78755ZM3.74335 5.09045L8.71432 6.7167L7.50894 7.40549L3.39022 5.29569L3.74335 5.09045ZM14.1952 5.33852C14.1092 5.31615 14.0196 5.31121 13.9316 5.32398C13.8436 5.33675 13.7591 5.36698 13.683 5.41289L13.6694 5.42088L5.12009 10.3062C4.96451 10.3951 4.77968 10.4176 4.60729 10.3687L2.88722 9.88047L2.54568 10.0753L4.15266 11.2805L7.40233 10.5369L14.3306 6.57788L14.3444 6.57022C14.4226 6.52796 14.4915 6.4705 14.5472 6.40121C14.6028 6.33192 14.6441 6.2522 14.6685 6.16674C14.6928 6.08127 14.6999 5.9918 14.6892 5.90357C14.6785 5.81534 14.6503 5.73013 14.6062 5.65297C14.5621 5.5758 14.503 5.50823 14.4325 5.45423C14.3619 5.40023 14.2812 5.36089 14.1952 5.33852ZM0.666667 14.666C0.298477 14.666 0 14.9645 0 15.3327C0 15.7009 0.298477 15.9994 0.666667 15.9994H15.3333C15.7015 15.9994 16 15.7009 16 15.3327C16 14.9645 15.7015 14.666 15.3333 14.666H0.666667Z" fill="#8547FF"/>
</g>
<defs>
<clipPath id="clip0_8017_45664">
<rect width="16" height="16" fill="white"/>
</clipPath>
</defs>
</svg>
