<svg width="16" height="16" viewBox="0 0 16 16" fill="none" stroke="#E1E5F0" xmlns="http://www.w3.org/2000/svg">
<g id="Group">
<path id="Vector" d="M10.084 1.84094L14.143 5.89994" stroke-linecap="round" stroke-linejoin="round"/>
<path id="Vector_2" d="M8.49188 2.72406C7.27144 2.19364 5.89884 2.12931 4.63414 2.54326C3.36944 2.95721 2.30051 3.82068 1.62988 4.97006L3.96988 7.31006" stroke-linecap="round" stroke-linejoin="round"/>
<path id="Vector_3" d="M13.2657 7.47302C13.8062 8.69691 13.8769 10.077 13.4645 11.3497C13.052 12.6225 12.1853 13.6988 11.0297 14.373L8.67969 12.023" stroke-linecap="round" stroke-linejoin="round"/>
<path id="Vector_4" d="M6.81217 13.049L2.95117 9.188C2.95117 9.188 6.24917 0.983 15.5002 0.5C14.9772 9.711 6.81217 13.049 6.81217 13.049Z" stroke-linecap="round" stroke-linejoin="round"/>
<path id="Vector_5" d="M3.59892 12.4008C3.34181 12.1441 2.99331 12 2.62995 12C2.2666 12 1.91809 12.1441 1.66098 12.4008C1.19433 12.8672 1.02967 14.3418 1.00167 14.633C0.997021 14.6793 1.0021 14.726 1.01659 14.7701C1.03108 14.8143 1.05465 14.8549 1.08579 14.8895C1.11693 14.924 1.15495 14.9516 1.19741 14.9705C1.23987 14.9895 1.28583 14.9994 1.33233 14.9995C1.34298 15.0002 1.35367 15.0002 1.36433 14.9995C1.65565 14.9715 3.1316 14.8063 3.59759 14.3405C3.85501 14.0834 3.99975 13.7346 4 13.3709C4.00025 13.0072 3.85599 12.6582 3.59892 12.4008Z" stroke-linecap="round" stroke-linejoin="round"/>
<path id="Vector_6" d="M9 8C9.55228 8 10 7.55228 10 7C10 6.44772 9.55228 6 9 6C8.44772 6 8 6.44772 8 7C8 7.55228 8.44772 8 9 8Z"/>
</g>
</svg>
