<svg width="20" height="21" viewBox="0 0 20 21" fill="none" xmlns="http://www.w3.org/2000/svg">
<path d="M12.4038 3.51709L17.4442 8.55709" stroke="#F0F3FA" stroke-width="1.66667" stroke-linecap="round" stroke-linejoin="round"/>
<path d="M10.3462 4.71716C7.91208 3.66883 4.79167 4.31508 2.5 7.23174L5.30583 10.0384" stroke="#F0F3FA" stroke-width="1.66667" stroke-linecap="round" stroke-linejoin="round"/>
<path d="M16.2646 10.6353C17.3129 13.0694 16.6667 16.1898 13.75 18.4815L10.9434 15.6757" stroke="#F0F3FA" stroke-width="1.66667" stroke-linecap="round" stroke-linejoin="round"/>
<path d="M8.74984 16.8149L4.1665 12.2316C4.1665 12.2316 7.87234 2.40411 19.1665 1.81494C18.5282 13.0599 8.74984 16.8149 8.74984 16.8149Z" stroke="#F0F3FA" stroke-width="1.66667" stroke-linecap="round" stroke-linejoin="round"/>
<path d="M11.2502 11.3983C12.1706 11.3983 12.9168 10.6521 12.9168 9.73161C12.9168 8.81113 12.1706 8.06494 11.2502 8.06494C10.3297 8.06494 9.5835 8.81113 9.5835 9.73161C9.5835 10.6521 10.3297 11.3983 11.2502 11.3983Z" stroke="#F0F3FA" stroke-width="1.66667" stroke-linecap="round" stroke-linejoin="round"/>
<path d="M1.86016 16.1747C2.25092 15.784 2.78089 15.5645 3.3335 15.5645C3.8861 15.5645 4.41608 15.784 4.80683 16.1747C5.19758 16.5655 5.4171 17.0955 5.4171 17.6481C5.4171 18.2007 5.19758 18.7306 4.80683 19.1214C3.99308 19.9347 0.833496 20.1481 0.833496 20.1481C0.833496 20.1481 1.04683 16.9885 1.86016 16.1747Z" stroke="#F0F3FA" stroke-width="1.66667" stroke-linecap="round" stroke-linejoin="round"/>
</svg>
