<svg width="24" height="24" viewBox="0 0 24 24" fill="none" xmlns="http://www.w3.org/2000/svg">
<path d="M14.8848 3.04297L20.9333 9.09097" stroke="#2F6FF0" stroke-width="2" stroke-linecap="round" stroke-linejoin="round"/>
<path d="M12.4155 4.48242C9.4945 3.22442 5.75 3.99992 3 7.49992L6.367 10.8679" stroke="#2F6FF0" stroke-width="2" stroke-linecap="round" stroke-linejoin="round"/>
<path d="M19.5173 11.5845C20.7753 14.5055 19.9998 18.25 16.4998 21L13.1318 17.633" stroke="#2F6FF0" stroke-width="2" stroke-linecap="round" stroke-linejoin="round"/>
<path d="M10.5 19L5 13.5C5 13.5 9.447 1.707 23 1C22.234 14.494 10.5 19 10.5 19Z" stroke="#2F6FF0" stroke-width="2" stroke-linecap="round" stroke-linejoin="round"/>
<path d="M13.5 12.5C14.6046 12.5 15.5 11.6046 15.5 10.5C15.5 9.39543 14.6046 8.5 13.5 8.5C12.3954 8.5 11.5 9.39543 11.5 10.5C11.5 11.6046 12.3954 12.5 13.5 12.5Z" stroke="#2F6FF0" stroke-width="2" stroke-linecap="round" stroke-linejoin="round"/>
<path d="M2.232 18.2321C2.7009 17.7632 3.33687 17.4998 4 17.4998C4.66313 17.4998 5.2991 17.7632 5.768 18.2321C6.2369 18.701 6.50033 19.337 6.50033 20.0001C6.50033 20.6632 6.2369 21.2992 5.768 21.7681C4.7915 22.7441 1 23.0001 1 23.0001C1 23.0001 1.256 19.2086 2.232 18.2321Z" stroke="#2F6FF0" stroke-width="2" stroke-linecap="round" stroke-linejoin="round"/>
</svg>
