<svg width="16" height="16" viewBox="0 0 16 16" fill="none" xmlns="http://www.w3.org/2000/svg">
<path d="M8.00033 10.0001L6.00033 8.00008M8.00033 10.0001C8.93156 9.64591 9.82492 9.19923 10.667 8.66675M8.00033 10.0001V13.3334C8.00033 13.3334 10.0203 12.9667 10.667 12.0001C11.387 10.9201 10.667 8.66675 10.667 8.66675M6.00033 8.00008C6.35509 7.0797 6.80179 6.19746 7.33366 5.36675C8.11045 4.12474 9.19207 3.10212 10.4757 2.39614C11.7592 1.69017 13.2021 1.32433 14.667 1.33342C14.667 3.14675 14.147 6.33342 10.667 8.66675M6.00033 8.00008H2.66699C2.66699 8.00008 3.03366 5.98008 4.00033 5.33342C5.08033 4.61342 7.33366 5.33342 7.33366 5.33342M3.00033 11.0001C2.00033 11.8401 1.66699 14.3334 1.66699 14.3334C1.66699 14.3334 4.16033 14.0001 5.00033 13.0001C5.47366 12.4401 5.46699 11.5801 4.94033 11.0601C4.6812 10.8128 4.33985 10.6698 3.98181 10.6588C3.62376 10.6477 3.27424 10.7692 3.00033 11.0001Z" stroke="#038585" stroke-width="1.6" stroke-linecap="round" stroke-linejoin="round"/>
</svg>
