<svg width="24" height="24" viewBox="0 0 24 24" fill="none" xmlns="http://www.w3.org/2000/svg">
<path d="M14.8848 3.043L20.9333 9.091" stroke="#161E33" stroke-width="2" stroke-linecap="round" stroke-linejoin="round"/>
<path d="M12.4155 4.48251C9.4945 3.22451 5.75 4.00001 3 7.50001L6.367 10.868" stroke="#161E33" stroke-width="2" stroke-linecap="round" stroke-linejoin="round"/>
<path d="M19.5178 11.5845C20.7758 14.5055 20.0003 18.25 16.5003 21L13.1323 17.633" stroke="#161E33" stroke-width="2" stroke-linecap="round" stroke-linejoin="round"/>
<path d="M10.5 19L5 13.5C5 13.5 9.447 1.707 23 1C22.234 14.494 10.5 19 10.5 19Z" stroke="#161E33" stroke-width="2" stroke-linecap="round" stroke-linejoin="round"/>
<path d="M13.5 12.5C14.6046 12.5 15.5 11.6046 15.5 10.5C15.5 9.39543 14.6046 8.5 13.5 8.5C12.3954 8.5 11.5 9.39543 11.5 10.5C11.5 11.6046 12.3954 12.5 13.5 12.5Z" stroke="#161E33" stroke-width="2" stroke-linecap="round" stroke-linejoin="round"/>
<path d="M2.232 18.232C2.7009 17.7631 3.33687 17.4997 4 17.4997C4.66313 17.4997 5.2991 17.7631 5.768 18.232C6.2369 18.7009 6.50033 19.3369 6.50033 20C6.50033 20.6631 6.2369 21.2991 5.768 21.768C4.7915 22.744 1 23 1 23C1 23 1.256 19.2085 2.232 18.232Z" stroke="#161E33" stroke-width="2" stroke-linecap="round" stroke-linejoin="round"/>
</svg>
