<svg width="16" height="16" viewBox="0 0 16 16" fill="none" xmlns="http://www.w3.org/2000/svg">
<path d="M7.99984 10.0001L5.99984 8.00008M7.99984 10.0001C8.93107 9.64591 9.82443 9.19923 10.6665 8.66675M7.99984 10.0001V13.3334C7.99984 13.3334 10.0198 12.9667 10.6665 12.0001C11.3865 10.9201 10.6665 8.66675 10.6665 8.66675M5.99984 8.00008C6.3546 7.0797 6.80131 6.19746 7.33317 5.36675C8.10996 4.12474 9.19159 3.10212 10.4752 2.39614C11.7588 1.69017 13.2016 1.32433 14.6665 1.33342C14.6665 3.14675 14.1465 6.33342 10.6665 8.66675M5.99984 8.00008H2.6665C2.6665 8.00008 3.03317 5.98008 3.99984 5.33342C5.07984 4.61342 7.33317 5.33342 7.33317 5.33342M2.99984 11.0001C1.99984 11.8401 1.6665 14.3334 1.6665 14.3334C1.6665 14.3334 4.15984 14.0001 4.99984 13.0001C5.47317 12.4401 5.4665 11.5801 4.93984 11.0601C4.68071 10.8128 4.33937 10.6698 3.98132 10.6588C3.62328 10.6477 3.27375 10.7692 2.99984 11.0001Z" stroke="#2F6FF0" stroke-width="1.6" stroke-linecap="round" stroke-linejoin="round"/>
</svg>
