<svg width="20" height="20" viewBox="0 0 20 20" fill="none" xmlns="http://www.w3.org/2000/svg">
<path d="M5.83366 17.5H14.167M10.0003 2.5V17.5M2.50033 5.83333H4.16699C5.83366 5.83333 8.33366 5 10.0003 4.16667C11.667 5 14.167 5.83333 15.8337 5.83333H17.5003M13.3337 13.3333L15.8337 6.66667L18.3337 13.3333C17.6087 13.875 16.7337 14.1667 15.8337 14.1667C14.9337 14.1667 14.0587 13.875 13.3337 13.3333ZM1.66699 13.3333L4.16699 6.66667L6.66699 13.3333C5.94199 13.875 5.06699 14.1667 4.16699 14.1667C3.26699 14.1667 2.39199 13.875 1.66699 13.3333Z" stroke="#2F6FF0" stroke-width="2" stroke-linecap="round" stroke-linejoin="round"/>
</svg>
