<svg width="24" height="24" viewBox="0 0 24 24" fill="none" xmlns="http://www.w3.org/2000/svg">
<path d="M4 14V18M4 14C5.10457 14 6 13.1046 6 12C6 10.8954 5.10457 10 4 10M4 14C2.89543 14 2 13.1046 2 12C2 10.8954 2.89543 10 4 10M4 18C5.10457 18 6 18.8954 6 20M4 18C2.89543 18 2 18.8954 2 20C2 21.1046 2.89543 22 4 22C5.10457 22 6 21.1046 6 20M4 10V6M4 6C5.10457 6 6 5.10457 6 4M4 6C2.89543 6 2 5.10457 2 4C2 2.89543 2.89543 2 4 2C5.10457 2 6 2.89543 6 4M6 4H10M10 4C10 2.89543 10.8954 2 12 2C13.1046 2 14 2.89543 14 4M10 4C10 5.10457 10.8954 6 12 6C13.1046 6 14 5.10457 14 4M14 4H18M18 4C18 2.89543 18.8954 2 20 2C21.1046 2 22 2.89543 22 4C22 5.10457 21.1046 6 20 6M18 4C18 5.10457 18.8954 6 20 6M20 6V10M20 10C21.1046 10 22 10.8954 22 12C22 13.1046 21.1046 14 20 14M20 10C18.8954 10 18 10.8954 18 12C18 13.1046 18.8954 14 20 14M20 14V18M20 18C21.1046 18 22 18.8954 22 20C22 21.1046 21.1046 22 20 22C18.8954 22 18 21.1046 18 20M20 18C18.8954 18 18 18.8954 18 20M14 20H18M14 20C14 21.1046 13.1046 22 12 22C10.8954 22 10 21.1046 10 20M14 20C14 18.8954 13.1046 18 12 18C10.8954 18 10 18.8954 10 20M6 20H10M15 9.00023L9.00039 14.9998M14.9996 14.9998L9 9.00023" stroke="#038585" stroke-width="2" stroke-linecap="round" stroke-linejoin="round"/>
</svg>
