<svg width="24" height="24" viewBox="0 0 24 24" fill="none" xmlns="http://www.w3.org/2000/svg">
<g id="Scale">
<path id="Vector" d="M15.5 8.50001L21 3.00001M21 3.00001L20.7282 3.27181M21 3.00001L16.5001 3.00004M21 3.00001L21.0001 7.50004M15.5 15.5L21 21M21 21L20.7884 20.7884M21 21H16.5001M21 21L21.0001 16.5M8.5 8.50001L3 3.00001M3 3.00001L3.19067 3.19068M3 3.00001L3.00003 7.5M3 3.00001L7.50003 3M8.5 15.5L3 21M3 21L3.13528 20.8647M3 21L3.00003 16.5001M3 21L7.50003 21.0001" stroke="#2F6FF0" stroke-width="2" stroke-linecap="round" stroke-linejoin="round"/>
</g>
</svg>
