<svg width="24" height="24" viewBox="0 0 24 24" fill="none" xmlns="http://www.w3.org/2000/svg">
<path d="M10 1C14.9706 1 19 5.02944 19 10C19 12.125 18.2619 14.0766 17.0303 15.6162L22.707 21.293C23.0973 21.6835 23.0975 22.3166 22.707 22.707C22.3166 23.0975 21.6835 23.0973 21.293 22.707L15.6162 17.0303C14.0766 18.2619 12.125 19 10 19C5.02944 19 1 14.9706 1 10C1 5.02944 5.02944 1 10 1ZM10 3C6.13401 3 3 6.13401 3 10C3 13.866 6.13401 17 10 17C13.866 17 17 13.866 17 10C17 6.13401 13.866 3 10 3Z" fill="#2F6FF0"/>
</svg>
