<svg width="16" height="16" viewBox="0 0 16 16" fill="none" xmlns="http://www.w3.org/2000/svg">
<path fill-rule="evenodd" clip-rule="evenodd" d="M2.33398 6.66634C2.33398 4.27311 4.27408 2.33301 6.66732 2.33301C9.06055 2.33301 11.0007 4.27311 11.0007 6.66634C11.0007 9.05958 9.06055 10.9997 6.66732 10.9997C4.27408 10.9997 2.33398 9.05958 2.33398 6.66634ZM6.66732 0.333008C3.16951 0.333008 0.333984 3.16854 0.333984 6.66634C0.333984 10.1641 3.16951 12.9997 6.66732 12.9997C10.1651 12.9997 13.0007 10.1641 13.0007 6.66634C13.0007 3.16854 10.1651 0.333008 6.66732 0.333008ZM12.7078 11.2926C12.3172 10.902 11.6841 10.902 11.2935 11.2926C10.903 11.6831 10.903 12.3163 11.2935 12.7068L13.9602 15.3734C14.3507 15.764 14.9839 15.764 15.3744 15.3734C15.7649 14.9829 15.7649 14.3498 15.3744 13.9592L12.7078 11.2926Z" fill="#D4D9E6"/>
</svg>
