<svg width="24" height="24" viewBox="0 0 24 24" fill="none" xmlns="http://www.w3.org/2000/svg">
<g clip-path="url(#clip0_3632_2192)">
<path fill-rule="evenodd" clip-rule="evenodd" d="M10 0C9.44771 0 9 0.447715 9 1V5C9 5.55228 9.44771 6 10 6H14C14.5523 6 15 5.55228 15 5V1C15 0.447715 14.5523 0 14 0H10ZM11 4V2H13V4H11ZM10 9C9.44771 9 9 9.44771 9 10V14C9 14.5523 9.44771 15 10 15H14C14.5523 15 15 14.5523 15 14V10C15 9.44771 14.5523 9 14 9H10ZM11 13V11H13V13H11ZM1 18C0.447715 18 0 18.4477 0 19V23C0 23.5523 0.447715 24 1 24H5C5.55228 24 6 23.5523 6 23V19C6 18.4477 5.55228 18 5 18H1ZM2 22V20H4V22H2ZM0 10C0 9.44771 0.447715 9 1 9H5C5.55228 9 6 9.44771 6 10V14C6 14.5523 5.55228 15 5 15H1C0.447715 15 0 14.5523 0 14V10ZM2 11V13H4V11H2ZM0 1C0 0.447715 0.447715 0 1 0H5C5.55228 0 6 0.447715 6 1V5C6 5.55228 5.55228 6 5 6H1C0.447715 6 0 5.55228 0 5V1ZM2 2V4H4V2H2ZM19 0C18.4477 0 18 0.447715 18 1V5C18 5.55228 18.4477 6 19 6H23C23.5523 6 24 5.55228 24 5V1C24 0.447715 23.5523 0 23 0H19ZM20 4V2H22V4H20ZM9 21C9 20.4477 9.44771 20 10 20H11V19C11 18.4477 11.4477 18 12 18C12.5523 18 13 18.4477 13 19V20H14C14.5523 20 15 20.4477 15 21C15 21.5523 14.5523 22 14 22H13V23C13 23.5523 12.5523 24 12 24C11.4477 24 11 23.5523 11 23V22H10C9.44771 22 9 21.5523 9 21ZM18 21C18 20.4477 18.4477 20 19 20H20V19C20 18.4477 20.4477 18 21 18C21.5523 18 22 18.4477 22 19V20H23C23.5523 20 24 20.4477 24 21C24 21.5523 23.5523 22 23 22H22V23C22 23.5523 21.5523 24 21 24C20.4477 24 20 23.5523 20 23V22H19C18.4477 22 18 21.5523 18 21ZM18 12C18 11.4477 18.4477 11 19 11H20V10C20 9.44771 20.4477 9 21 9C21.5523 9 22 9.44771 22 10V11H23C23.5523 11 24 11.4477 24 12C24 12.5523 23.5523 13 23 13H22V14C22 14.5523 21.5523 15 21 15C20.4477 15 20 14.5523 20 14V13H19C18.4477 13 18 12.5523 18 12Z" fill="#2F6FF0"/>
</g>
<defs>
<clipPath id="clip0_3632_2192">
<rect width="24" height="24" fill="white"/>
</clipPath>
</defs>
</svg>
