<svg width="16" height="16" viewBox="0 0 16 16" fill="none" xmlns="http://www.w3.org/2000/svg">
<path d="M4.00016 3.99992H4.00683M4.00016 11.9999H4.00683M2.66683 1.33325H13.3335C14.0699 1.33325 14.6668 1.93021 14.6668 2.66659V5.33325C14.6668 6.06963 14.0699 6.66658 13.3335 6.66658H2.66683C1.93045 6.66658 1.3335 6.06963 1.3335 5.33325V2.66659C1.3335 1.93021 1.93045 1.33325 2.66683 1.33325ZM2.66683 9.33325H13.3335C14.0699 9.33325 14.6668 9.93021 14.6668 10.6666V13.3333C14.6668 14.0696 14.0699 14.6666 13.3335 14.6666H2.66683C1.93045 14.6666 1.3335 14.0696 1.3335 13.3333V10.6666C1.3335 9.93021 1.93045 9.33325 2.66683 9.33325Z" stroke="#DC244C" stroke-width="1.6" stroke-linecap="round" stroke-linejoin="round"/>
</svg>
