<svg width="24" height="24" viewBox="0 0 24 24" fill="none" xmlns="http://www.w3.org/2000/svg">
<path d="M23 2H1V10H23V2Z" stroke="#2F6FF0" stroke-width="2" stroke-linecap="round" stroke-linejoin="round"/>
<path d="M23 14H1V22H23V14Z" stroke="#2F6FF0" stroke-width="2" stroke-linecap="round" stroke-linejoin="round"/>
<path d="M9 6H5" stroke="#2F6FF0" stroke-width="2" stroke-linecap="round" stroke-linejoin="round"/>
<path d="M9 18H5" stroke="#2F6FF0" stroke-width="2" stroke-linecap="round" stroke-linejoin="round"/>
<path d="M19.5 6C19.5 6.27614 19.2761 6.5 19 6.5C18.7239 6.5 18.5 6.27614 18.5 6C18.5 5.72386 18.7239 5.5 19 5.5C19.2761 5.5 19.5 5.72386 19.5 6Z" fill="#161E33" stroke="#2F6FF0"/>
<path d="M19.5 18C19.5 18.2761 19.2761 18.5 19 18.5C18.7239 18.5 18.5 18.2761 18.5 18C18.5 17.7239 18.7239 17.5 19 17.5C19.2761 17.5 19.5 17.7239 19.5 18Z" fill="#161E33" stroke="#2F6FF0"/>
</svg>
