<svg width="16" height="16" viewBox="0 0 16 16" fill="none" xmlns="http://www.w3.org/2000/svg">
<path d="M6.00033 7.99997L7.33366 9.33331L10.0003 6.66664M13.3337 8.66664C13.3337 12 11.0003 13.6666 8.22699 14.6333C8.08177 14.6825 7.92402 14.6802 7.78033 14.6266C5.00033 13.6666 2.66699 12 2.66699 8.66664V3.99997C2.66699 3.82316 2.73723 3.65359 2.86225 3.52857C2.98728 3.40355 3.15685 3.33331 3.33366 3.33331C4.66699 3.33331 6.33366 2.53331 7.49366 1.51997C7.6349 1.39931 7.81456 1.33301 8.00033 1.33301C8.18609 1.33301 8.36576 1.39931 8.50699 1.51997C9.67366 2.53997 11.3337 3.33331 12.667 3.33331C12.8438 3.33331 13.0134 3.40355 13.1384 3.52857C13.2634 3.65359 13.3337 3.82316 13.3337 3.99997V8.66664Z" stroke="#DC244C" stroke-width="1.6" stroke-linecap="round" stroke-linejoin="round"/>
</svg>
