<svg width="20" height="20" viewBox="0 0 20 20" fill="none" xmlns="http://www.w3.org/2000/svg">
<path d="M1.70801 1.70825H3.37467L5.59134 12.0583C5.67266 12.4373 5.88357 12.7761 6.18777 13.0165C6.49197 13.2568 6.87043 13.3835 7.25801 13.3749H15.408C15.7873 13.3743 16.1551 13.2443 16.4505 13.0064C16.746 12.7686 16.9515 12.437 17.033 12.0666L18.408 5.87492H4.26634M7.49967 17.4999C7.49967 17.9602 7.12658 18.3333 6.66634 18.3333C6.2061 18.3333 5.83301 17.9602 5.83301 17.4999C5.83301 17.0397 6.2061 16.6666 6.66634 16.6666C7.12658 16.6666 7.49967 17.0397 7.49967 17.4999ZM16.6663 17.4999C16.6663 17.9602 16.2932 18.3333 15.833 18.3333C15.3728 18.3333 14.9997 17.9602 14.9997 17.4999C14.9997 17.0397 15.3728 16.6666 15.833 16.6666C16.2932 16.6666 16.6663 17.0397 16.6663 17.4999Z" stroke="#2F6FF0" stroke-width="2" stroke-linecap="round" stroke-linejoin="round"/>
</svg>
