<svg width="22" height="22" viewBox="0 0 22 22" fill="none" xmlns="http://www.w3.org/2000/svg">
<g id="Icon">
<path id="Vector" d="M11 21C16.5228 21 21 16.5228 21 11C21 5.47715 16.5228 1 11 1" stroke="#8547FF" stroke-width="2" stroke-linecap="round" stroke-linejoin="round"/>
<path id="Vector_2" d="M1 10.5C1.27614 10.5 1.5 10.7238 1.5 11C1.5 11.2762 1.27614 11.5 1 11.5C0.723856 11.5 0.5 11.2762 0.5 11C0.5 10.7238 0.723856 10.5 1 10.5Z" fill="#8547FF" stroke="#8547FF"/>
<path id="Vector_3" d="M5.50017 20.5263C5.97846 20.8024 6.59005 20.6386 6.86619 20.1603C7.14234 19.682 6.97846 19.0704 6.50017 18.7943C6.02187 18.5181 5.41028 18.682 5.13414 19.1603C4.858 19.6386 5.02187 20.2502 5.50017 20.5263Z" fill="#8547FF"/>
<path id="Vector_4" d="M1.47399 5.50017C1.19785 5.97846 1.36172 6.59005 1.84001 6.86619C2.31831 7.14234 2.9299 6.97846 3.20604 6.50017C3.48218 6.02187 3.31831 5.41028 2.84001 5.13414C2.36172 4.858 1.75013 5.02187 1.47399 5.50017Z" fill="#8547FF"/>
<path id="Vector_5" d="M1.47399 16.5002C1.75013 16.9785 2.36172 17.1424 2.84001 16.8662C3.31831 16.5901 3.48218 15.9785 3.20604 15.5002C2.9299 15.0219 2.31831 14.858 1.84001 15.1342C1.36172 15.4103 1.19785 16.0219 1.47399 16.5002Z" fill="#8547FF"/>
<path id="Vector_6" d="M5.50017 1.47399C5.02188 1.75013 4.858 2.36172 5.13415 2.84001C5.41029 3.31831 6.02188 3.48218 6.50017 3.20604C6.97847 2.9299 7.14234 2.31831 6.8662 1.84001C6.59006 1.36172 5.97847 1.19785 5.50017 1.47399Z" fill="#8547FF"/>
<path id="Vector_7" d="M11 11V16" stroke="#8547FF" stroke-width="2" stroke-linecap="round" stroke-linejoin="round"/>
</g>
</svg>
