<svg width="24" height="25" viewBox="0 0 24 25" fill="none" xmlns="http://www.w3.org/2000/svg">
<g clip-path="url(#clip0_5875_33918)">
<path fill-rule="evenodd" clip-rule="evenodd" d="M3.51444 3.84818C8.19485 -0.832231 15.7797 -0.838058 20.4673 3.8307C20.4712 3.83436 20.475 3.83806 20.4788 3.84179C20.481 3.84394 20.4832 3.84609 20.4853 3.84826C20.4913 3.85422 20.4972 3.86024 20.5029 3.86631C25.1651 8.548 25.1651 16.119 20.5028 20.8006C20.4971 20.8066 20.4912 20.8126 20.4853 20.8185C20.4794 20.8244 20.4735 20.8302 20.4675 20.8359C15.7798 25.5048 8.1949 25.499 3.51444 20.8186C-1.17181 16.1323 -1.17181 8.53443 3.51444 3.84818ZM4.25673 18.6627C1.24741 14.9903 1.24741 9.67649 4.25673 6.00406L7.10894 8.85627C5.63015 10.931 5.63015 13.7357 7.10894 15.8105L4.25673 18.6627ZM8.52323 17.2246L5.671 20.0769C9.3434 23.0856 14.6567 23.0854 18.3289 20.0763L15.4769 17.2243C13.4023 18.7029 10.5979 18.703 8.52323 17.2246ZM16.891 15.81L19.7431 18.6621C22.7517 14.9899 22.7517 9.6769 19.7431 6.00471L16.891 8.85679C18.3693 10.9313 18.3693 13.7354 16.891 15.81ZM15.4769 7.4425L18.3289 4.59044C14.6567 1.58133 9.3434 1.58116 5.671 4.58991L8.52324 7.44214C10.5979 5.96375 13.4023 5.96387 15.4769 7.4425ZM9.17139 15.1618C7.60931 13.5997 7.60931 11.0671 9.17139 9.50498C10.7335 7.9429 13.2661 7.9429 14.8282 9.50498C16.3903 11.0671 16.3903 13.5997 14.8282 15.1618C13.2661 16.7239 10.7335 16.7239 9.17139 15.1618Z" fill="#2F6FF0"/>
</g>
<defs>
<clipPath id="clip0_5875_33918">
<rect width="24" height="24" fill="white" transform="translate(0 0.333374)"/>
</clipPath>
</defs>
</svg>
