<svg width="16" height="16" viewBox="0 0 16 16" fill="none" xmlns="http://www.w3.org/2000/svg">
<path d="M7.99967 14.6666C11.6816 14.6666 14.6663 11.6818 14.6663 7.99992C14.6663 4.31802 11.6816 1.33325 7.99967 1.33325C4.31778 1.33325 1.33301 4.31802 1.33301 7.99992C1.33301 11.6818 4.31778 14.6666 7.99967 14.6666Z" stroke="#2F6FF0" stroke-width="1.6" stroke-linecap="round" stroke-linejoin="round"/>
<path d="M7.99967 11.9999C10.2088 11.9999 11.9997 10.2091 11.9997 7.99992C11.9997 5.79078 10.2088 3.99992 7.99967 3.99992C5.79054 3.99992 3.99967 5.79078 3.99967 7.99992C3.99967 10.2091 5.79054 11.9999 7.99967 11.9999Z" stroke="#2F6FF0" stroke-width="1.6" stroke-linecap="round" stroke-linejoin="round"/>
<path d="M7.99967 9.33325C8.73605 9.33325 9.33301 8.7363 9.33301 7.99992C9.33301 7.26354 8.73605 6.66658 7.99967 6.66658C7.26329 6.66658 6.66634 7.26354 6.66634 7.99992C6.66634 8.7363 7.26329 9.33325 7.99967 9.33325Z" stroke="#2F6FF0" stroke-width="1.6" stroke-linecap="round" stroke-linejoin="round"/>
</svg>
