<svg width="18" height="18" viewBox="0 0 18 18" fill="none" xmlns="http://www.w3.org/2000/svg">
<g clip-path="url(#clip0_6269_1346)">
<path fill-rule="evenodd" clip-rule="evenodd" d="M6.75 0C6.41179 0 6.11542 0.226366 6.02643 0.552662L3.92715 8.25H0.75C0.335786 8.25 0 8.58579 0 9V17.25C0 17.6642 0.335786 18 0.75 18H13.8203C14.5364 17.9992 15.2286 17.7424 15.7718 17.2758C16.315 16.8093 16.6734 16.1638 16.7823 15.456L17.59 10.2061C17.6558 9.77857 17.6283 9.34187 17.5095 8.926C17.3907 8.51012 17.1834 8.12485 16.9018 7.7966C16.6202 7.46834 16.2709 7.20485 15.8779 7.02421C15.4849 6.84356 15.0575 6.75002 14.625 6.75H9.75V3C9.75 2.20435 9.43393 1.44129 8.87132 0.87868C8.30871 0.31607 7.54565 0 6.75 0ZM3.75 16.5V9.75H1.5V16.5H3.75ZM5.25 9.10044L7.2949 1.60247C7.48645 1.67716 7.66246 1.79115 7.81066 1.93934C8.09196 2.22064 8.25 2.60217 8.25 3V7.5C8.25 7.91421 8.58579 8.25 9 8.25H14.625C14.8412 8.25001 15.0549 8.29678 15.2514 8.3871C15.4479 8.47743 15.6225 8.60917 15.7633 8.7733C15.9041 8.93743 16.0078 9.13006 16.0672 9.338C16.1266 9.54592 16.1403 9.76422 16.1075 9.97795L15.2997 15.2279C15.2453 15.5818 15.0661 15.9046 14.7945 16.1379C14.5229 16.3712 14.1768 16.4996 13.8187 16.5H5.25V9.10044Z" fill="#F0F3FA"/>
</g>
<defs>
<clipPath id="clip0_6269_1346">
<rect width="18" height="18" fill="white"/>
</clipPath>
</defs>
</svg>
