<svg width="18" height="18" viewBox="0 0 18 18" fill="none" xmlns="http://www.w3.org/2000/svg">
<g clip-path="url(#clip0_6269_1350)">
<path fill-rule="evenodd" clip-rule="evenodd" d="M0.75 0C0.335786 0 0 0.335786 0 0.75V9C0 9.41421 0.335786 9.75 0.75 9.75H3.92715L6.02643 17.4473C6.11542 17.7736 6.41179 18 6.75 18C7.54565 18 8.30871 17.6839 8.87132 17.1213C9.43393 16.5587 9.75 15.7956 9.75 15V11.25H14.625C15.0575 11.25 15.4849 11.1564 15.8779 10.9758C16.2709 10.7951 16.6202 10.5317 16.9018 10.2034C17.1834 9.87514 17.3907 9.48987 17.5095 9.074C17.6283 8.65813 17.6558 8.22148 17.59 7.794L16.7823 2.544C16.6734 1.83626 16.315 1.19074 15.7718 0.724183C15.2286 0.257617 14.5364 0.000750348 13.8203 0H0.75ZM3.75 1.5H1.5V8.25H3.75V1.5ZM5.25 8.89956V1.5H13.8191C14.177 1.50046 14.5229 1.62888 14.7945 1.86209C15.0661 2.09537 15.2453 2.41812 15.2997 2.772L16.1075 8.022C16.1403 8.23572 16.1266 8.45408 16.0672 8.662C16.0078 8.86994 15.9041 9.06257 15.7633 9.2267C15.6225 9.39083 15.4479 9.52257 15.2514 9.6129C15.0549 9.70321 14.8412 9.74998 14.625 9.75H9C8.58579 9.75 8.25 10.0858 8.25 10.5V15C8.25 15.3978 8.09196 15.7794 7.81066 16.0607C7.66247 16.2089 7.48645 16.3228 7.2949 16.3975L5.25 8.89956Z" fill="#F0F3FA"/>
</g>
<defs>
<clipPath id="clip0_6269_1350">
<rect width="18" height="18" fill="white"/>
</clipPath>
</defs>
</svg>
