<svg width="24" height="24" viewBox="0 0 24 24" fill="none" xmlns="http://www.w3.org/2000/svg">
<path d="M19.6308 6.8988L19.2693 7.26032L19.5885 7.65967C20.7304 9.08805 21.4456 10.8099 21.6517 12.627C21.8578 14.444 21.5465 16.2824 20.7536 17.9302C19.9606 19.5781 18.7184 20.9685 17.1699 21.9412C15.6214 22.914 13.8296 23.4296 12.0009 23.4286H12.0006C6.62513 23.4286 2.28627 19.0791 2.28627 13.7143C2.28627 11.1379 3.30974 8.66703 5.13152 6.84525C6.9533 5.02347 9.42417 4 12.0006 4H12.0006C14.2067 3.99967 16.3465 4.75356 18.0652 6.13661L18.4648 6.45819L18.8275 6.09549L20.0741 4.84882C20.3519 5.10188 20.6191 5.37166 20.8757 5.6539L19.6308 6.8988ZM9.14341 1.71429V0.571429H14.8577V1.71429H9.14341ZM12.572 8.57143V14.2857H11.4291V8.57143H12.572ZM3.42913 13.7143C3.42913 18.4527 7.26211 22.2857 12.0006 22.2857C16.739 22.2857 20.572 18.4527 20.572 13.7143C20.572 8.97584 16.739 5.14286 12.0006 5.14286C7.26211 5.14286 3.42913 8.97584 3.42913 13.7143Z" fill="#161E33" stroke="#2F6FF0" stroke-width="1.14286"/>
</svg>
