<svg width="24" height="24" viewBox="0 0 24 24" fill="none" xmlns="http://www.w3.org/2000/svg">
<path fill-rule="evenodd" clip-rule="evenodd" d="M5 4C4.73478 4 4.48043 4.10536 4.29289 4.29289C4.10536 4.48043 4 4.73478 4 5V13C4 13.5523 3.55228 14 3 14C2.44772 14 2 13.5523 2 13V5C2 4.20435 2.31607 3.44129 2.87868 2.87868C3.44129 2.31607 4.20435 2 5 2H19C19.7957 2 20.5587 2.31607 21.1213 2.87868C21.6839 3.44129 22 4.20435 22 5V13C22 13.5523 21.5523 14 21 14C20.4477 14 20 13.5523 20 13V5C20 4.73478 19.8946 4.48043 19.7071 4.29289C19.5196 4.10536 19.2652 4 19 4H5ZM0.292893 16.2929C0.48043 16.1054 0.734784 16 1 16H23C23.5523 16 24 16.4477 24 17C24 18.3261 23.4732 19.5979 22.5355 20.5355C21.5979 21.4732 20.3261 22 19 22H5C3.67392 22 2.40215 21.4732 1.46447 20.5355C0.526784 19.5979 0 18.3261 0 17C0 16.7348 0.105357 16.4804 0.292893 16.2929ZM2.17157 18C2.31933 18.4179 2.55927 18.8019 2.87868 19.1213C3.44129 19.6839 4.20435 20 5 20H19C19.7956 20 20.5587 19.6839 21.1213 19.1213C21.4407 18.8019 21.6807 18.4179 21.8284 18H2.17157ZM15 10L10 13V7L15 10Z" fill="#2F6FF0"/>
</svg>
