<svg width="16" height="16" viewBox="0 0 16 16" fill="none" xmlns="http://www.w3.org/2000/svg">
<path fill-rule="evenodd" clip-rule="evenodd" d="M3.33333 2.66659C3.15652 2.66659 2.98695 2.73682 2.86193 2.86185C2.7369 2.98687 2.66667 3.15644 2.66667 3.33325V8.66659C2.66667 9.03478 2.36819 9.33325 2 9.33325C1.63181 9.33325 1.33333 9.03478 1.33333 8.66659V3.33325C1.33333 2.80282 1.54405 2.29411 1.91912 1.91904C2.29419 1.54397 2.8029 1.33325 3.33333 1.33325H12.6667C13.1971 1.33325 13.7058 1.54397 14.0809 1.91904C14.456 2.29411 14.6667 2.80282 14.6667 3.33325V8.66659C14.6667 9.03478 14.3682 9.33325 14 9.33325C13.6318 9.33325 13.3333 9.03478 13.3333 8.66659V3.33325C13.3333 3.15644 13.2631 2.98687 13.1381 2.86185C13.013 2.73682 12.8435 2.66659 12.6667 2.66659H3.33333ZM0.195262 10.8618C0.320286 10.7368 0.489856 10.6666 0.666667 10.6666H15.3333C15.7015 10.6666 16 10.9651 16 11.3333C16 12.2173 15.6488 13.0652 15.0237 13.6903C14.3986 14.3154 13.5507 14.6666 12.6667 14.6666H3.33333C2.44928 14.6666 1.60143 14.3154 0.976311 13.6903C0.35119 13.0652 0 12.2173 0 11.3333C0 11.1564 0.0702379 10.9869 0.195262 10.8618ZM1.44771 11.9999C1.54622 12.2785 1.70618 12.5345 1.91912 12.7475C2.29419 13.1225 2.8029 13.3333 3.33333 13.3333H12.6667C13.1971 13.3333 13.7058 13.1225 14.0809 12.7475C14.2938 12.5345 14.4538 12.2785 14.5523 11.9999H1.44771ZM10 6.66659L6.66667 8.66659V4.66659L10 6.66659Z" fill="#EADDFF"/>
</svg>
