<svg width="20" height="21" viewBox="0 0 20 21" fill="none" xmlns="http://www.w3.org/2000/svg">
<g clip-path="url(#clip0_10387_4708)">
<path d="M19.166 14.1115C19.6263 14.1115 20 14.4842 20 14.9445C20 16.0495 19.5607 17.1094 18.7793 17.8907C17.9979 18.672 16.938 19.1115 15.833 19.1115H4.16602C3.06118 19.1113 2.00097 18.672 1.21973 17.8907C0.438522 17.1094 2.19432e-05 16.0494 0 14.9445C0 14.7235 0.0879879 14.5119 0.244141 14.3556C0.400344 14.1994 0.612112 14.1115 0.833008 14.1115H19.166ZM1.8125 15.7775C1.93561 16.1253 2.13259 16.4461 2.39844 16.712C2.86713 17.1807 3.50321 17.4443 4.16602 17.4445H15.833C16.496 17.4445 17.1318 17.1807 17.6006 16.712C17.8665 16.4461 18.0634 16.1253 18.1865 15.7775H1.8125ZM15.833 2.44446C16.496 2.44446 17.1327 2.70714 17.6016 3.1759C18.0703 3.64469 18.3329 4.2815 18.333 4.94446V11.6105C18.333 12.0707 17.9602 12.4445 17.5 12.4445C17.0398 12.4445 16.667 12.0707 16.667 11.6105V4.94446C16.6669 4.72353 16.5791 4.51084 16.4229 4.35461C16.2666 4.19841 16.054 4.11047 15.833 4.11047H4.16699C3.94604 4.11047 3.73342 4.19841 3.57715 4.35461C3.42093 4.51084 3.33307 4.72353 3.33301 4.94446V11.6105C3.33301 12.0707 2.96024 12.4445 2.5 12.4445C2.03976 12.4445 1.66699 12.0707 1.66699 11.6105V4.94446C1.66706 4.2815 1.92965 3.64469 2.39844 3.1759C2.86727 2.70714 3.50401 2.44446 4.16699 2.44446H15.833ZM12.5 9.11145L8.33301 11.6115V6.61145L12.5 9.11145Z" fill="#F0F3FA"/>
</g>
<defs>
<clipPath id="clip0_10387_4708">
<rect width="20" height="20" fill="white" transform="translate(0 0.777832)"/>
</clipPath>
</defs>
</svg>
