<svg width="24" height="24" viewBox="0 0 24 24" fill="none" xmlns="http://www.w3.org/2000/svg">
<g clip-path="url(#clip0_4341_776)">
<path fill-rule="evenodd" clip-rule="evenodd" d="M4.99751 5.68242C5.24401 5.53915 5.53995 5.50792 5.81093 5.59657L15.4131 8.7379L19.5026 6.40104C19.8422 6.19822 20.2185 6.06452 20.61 6.00767C21.0058 5.9502 21.4091 5.97245 21.7961 6.07311C22.1832 6.17376 22.5462 6.3508 22.8639 6.5938C23.1815 6.83681 23.4474 7.14087 23.6458 7.48812C23.8442 7.83536 23.9712 8.21878 24.0193 8.61582C24.0674 9.01286 24.0356 9.4155 23.9258 9.80008C23.8161 10.1847 23.6305 10.5434 23.38 10.8552C23.1323 11.1636 22.826 11.42 22.4789 11.6095L11.9671 17.6163C11.8818 17.665 11.7898 17.7009 11.6941 17.7228L6.22308 18.9748C5.93636 19.0404 5.6353 18.9765 5.4 18.8L1.4 15.8C1.13052 15.5979 0.980901 15.2737 1.00196 14.9375C1.02301 14.6013 1.21191 14.2983 1.5045 14.1314L3.7045 12.8764C3.93775 12.7433 4.21473 12.7097 4.47306 12.783L7.05276 13.5153L9.18965 12.2942L2.54409 8.89002C2.21858 8.72328 2.01006 8.39214 2.00035 8.02654C1.99065 7.66094 2.1813 7.3192 2.49751 7.13542L4.99751 5.68242ZM5.61502 7.63678L13.0713 10.0761L11.2633 11.1093L5.08533 7.94464L5.61502 7.63678ZM21.2928 8.00872C21.1638 7.97517 21.0293 7.96776 20.8974 7.98691C20.7655 8.00607 20.6387 8.05141 20.5245 8.12028L20.5041 8.13226L7.68014 15.4603C7.44676 15.5936 7.16952 15.6274 6.91094 15.554L4.33082 14.8217L3.81852 15.1139L6.22899 16.9218L11.1035 15.8063L21.4959 9.86777L21.5165 9.85628C21.6338 9.79289 21.7373 9.7067 21.8207 9.60276C21.9042 9.49882 21.9661 9.37924 22.0027 9.25105C22.0393 9.12286 22.0499 8.98864 22.0338 8.8563C22.0178 8.72395 21.9755 8.59615 21.9093 8.4804C21.8432 8.36464 21.7546 8.26329 21.6487 8.18229C21.5428 8.10129 21.4218 8.04228 21.2928 8.00872ZM1 22C0.447715 22 0 22.4477 0 23C0 23.5523 0.447715 24 1 24H23C23.5523 24 24 23.5523 24 23C24 22.4477 23.5523 22 23 22H1Z" fill="#2F6FF0"/>
</g>
<defs>
<clipPath id="clip0_4341_776">
<rect width="24" height="24" fill="white"/>
</clipPath>
</defs>
</svg>
