<svg width="16" height="16" viewBox="0 0 16 16" fill="none" xmlns="http://www.w3.org/2000/svg">
<g clip-path="url(#clip0_3824_30222)">
<path d="M0 8.0005V16.0005H16.0005V0H0V8.0005ZM12.8942 7.363C13.3005 7.4645 13.6105 7.645 13.895 7.9395C14.0425 8.097 14.2607 8.384 14.2785 8.4525C14.2835 8.4725 13.5878 8.94 13.166 9.20175C13.151 9.21175 13.0898 9.146 13.021 9.04425C12.8152 8.74425 12.5995 8.615 12.2692 8.59225C11.7843 8.55925 11.4692 8.81325 11.4742 9.23725C11.4742 9.36175 11.4918 9.43525 11.5428 9.53725C11.6495 9.75825 11.8478 9.89025 12.4698 10.1597C13.6153 10.6523 14.1053 10.9773 14.4097 11.4397C14.7498 11.9552 14.8263 12.7782 14.5953 13.3902C14.3413 14.0557 13.7115 14.5078 12.8252 14.6578C12.551 14.706 11.9008 14.6985 11.6062 14.6452C10.9637 14.531 10.3542 14.2135 9.97825 13.797C9.83075 13.6345 9.544 13.2102 9.56175 13.1795C9.56925 13.1695 9.6355 13.1287 9.70925 13.0855L10.3035 12.743L10.7635 12.4762L10.86 12.6187C10.9945 12.8245 11.2893 13.1062 11.467 13.2002C11.9775 13.4695 12.6785 13.4312 13.0238 13.1215C13.1713 12.987 13.232 12.8472 13.232 12.6415C13.232 12.456 13.2095 12.3747 13.1128 12.2352C12.9882 12.0577 12.7343 11.9078 12.0127 11.5953C11.1873 11.2397 10.8317 11.0188 10.5068 10.6683C10.3188 10.465 10.141 10.14 10.0673 9.86825C10.0063 9.64225 9.991 9.07575 10.0393 8.84725C10.2093 8.04725 10.8113 7.4935 11.68 7.3285C11.962 7.27525 12.6175 7.2955 12.894 7.364L12.8942 7.363ZM9.138 8.0305L9.143 8.6855H7.0605V14.603H5.5875V8.6855H3.505V8.043L3.5225 7.383C3.53 7.373 4.7975 7.368 6.334 7.3705L9.13025 7.378L9.138 8.0305Z" fill="#D4D9E6"/>
</g>
<defs>
<clipPath id="clip0_3824_30222">
<rect width="16" height="16" fill="white"/>
</clipPath>
</defs>
</svg>
