<svg width="24" height="24" viewBox="0 0 24 24" fill="none" xmlns="http://www.w3.org/2000/svg">
<g clip-path="url(#clip0_8106_34274)">
<path d="M12 8.00022V14.0002M1.24302 18.9532L10.152 2.11122C10.33 1.77488 10.5963 1.49342 10.9222 1.29711C11.2482 1.1008 11.6215 0.99707 12.002 0.99707C12.3825 0.99707 12.7559 1.1008 13.0818 1.29711C13.4078 1.49342 13.6741 1.77488 13.852 2.11122L22.761 18.9532C22.9282 19.271 23.0103 19.6268 22.9991 19.9857C22.988 20.3447 22.8841 20.6947 22.6975 21.0015C22.5109 21.3084 22.2479 21.5616 21.9343 21.7367C21.6207 21.9117 21.2672 22.0025 20.908 22.0002H3.09202C2.73323 22.0018 2.38014 21.9105 2.06709 21.7352C1.75404 21.5599 1.49169 21.3065 1.30555 20.9998C1.11942 20.693 1.01583 20.3434 1.00488 19.9847C0.993918 19.6261 1.07596 19.2707 1.24302 18.9532Z" stroke="#2F6FF0" stroke-width="2" stroke-miterlimit="10" stroke-linecap="square"/>
<path d="M12 19C12.8284 19 13.5 18.3284 13.5 17.5C13.5 16.6716 12.8284 16 12 16C11.1716 16 10.5 16.6716 10.5 17.5C10.5 18.3284 11.1716 19 12 19Z" fill="#2F6FF0"/>
</g>
<defs>
<clipPath id="clip0_8106_34274">
<rect width="24" height="24" fill="white"/>
</clipPath>
</defs>
</svg>
