<svg width="24" height="24" viewBox="0 0 24 24" fill="none" xmlns="http://www.w3.org/2000/svg">
<g clip-path="url(#clip0_10797_27855)">
<path d="M12 23C15.9 21.1 18 16.9 18 12C18 7.1 15.9 2.9 12 1M12 23C8.1 21.1 6 16.9 6 12C6 7.1 8.1 2.9 12 1M12 23C18.0751 23 23 18.0751 23 12M12 23C5.92487 23 1 18.0751 1 12M12 23V1M12 1C5.92487 1 1 5.92487 1 12M12 1C18.0751 1 23 5.92487 23 12M1 12H23" stroke="#2F6FF0" stroke-width="2" stroke-linecap="round" stroke-linejoin="round"/>
</g>
<defs>
<clipPath id="clip0_10797_27855">
<rect width="24" height="24" fill="white"/>
</clipPath>
</defs>
</svg>
