<?xml version="1.0" encoding="utf-8"?>
<svg version="1.1" id="Layer_1" xmlns="http://www.w3.org/2000/svg"
     xmlns:xlink="http://www.w3.org/1999/xlink" x="0px" y="0px"
     viewBox="0 0 122.88 112.43" style="enable-background:new 0 0 122.88 112.43"
     xml:space="preserve"><style type="text/css">.st0{fill-rule:evenodd;clip-rule:evenodd;}</style>
    <g><path class="st0" fill="#ffffff" d="M29.96,111.88c5.94,0,10.77-4.32,10.77-9.64c0-1.9-0.62-3.67-1.69-5.17l0.29,0c-4.73-5.17-4.23-9.4,0.78-10.88 h16.57c1.87,0,3.4-1.53,3.4-3.4V68.08c1.16-10.04,5.45-7.06,10.5-3.95c12.2,7.51,20.31-10.28,10.45-16.37 c-7.74-4.78-11.09,3.44-16.76,2.59c-2.19-0.33-3.71-2.7-4.19-6.3V29.51c0-1.87-1.53-3.4-3.4-3.4l-14.51,0 c-6.87-0.87-8.17-5.49-2.85-11.3h-0.29c1.07-1.5,1.69-3.27,1.69-5.17C40.73,4.32,35.91,0,29.96,0C24.02,0,19.2,4.32,19.2,9.64 c0,1.9,0.62,3.67,1.69,5.17l-0.07,0c5.32,5.81,4.03,10.44-2.85,11.3H3.4c-1.87,0-3.4,1.53-3.4,3.4v15.16 c1.09,6.24,5.59,7.26,11.19,2.13v0.07c1.5-1.07,3.27-1.69,5.17-1.69c5.32,0,9.64,4.82,9.64,10.76c0,5.94-4.32,10.76-9.64,10.76 c-1.9,0-3.67-0.62-5.17-1.69v0.29c-5.6-5.13-10.1-4.1-11.19,2.14V82.8c0,1.87,1.53,3.4,3.4,3.4l16.63,0 c5.01,1.48,5.52,5.71,0.78,10.88h0.07c-1.06,1.5-1.69,3.27-1.69,5.17C19.2,107.57,24.02,111.89,29.96,111.88L29.96,111.88 L29.96,111.88z M92.92,112.43H92.9c-5.94,0-10.77-4.32-10.77-9.64c0-1.9,0.62-3.67,1.69-5.17h-0.07c4.73-5.17,4.23-9.4-0.78-10.88 l-16.63,0c-1.87,0-3.4-1.53-3.4-3.4V68.01c0.8-2.32,1.82-3.14,3.02-3.17c0.55-0.01,1.13,0.14,1.75,0.4c1.74,0.72,3.78,2.23,6,3.09 c8.56,3.3,15.91-5.03,15.42-13.59c-0.11-1.91-0.88-3.79-2.02-5.53c-4.37-6.68-10.84-7.31-17.08-3.5c-3.18,1.95-5.71,3.42-7.16-1.17 l0.08-14.49c0.01-1.87,1.53-3.4,3.4-3.4l14.56,0c6.87-0.87,8.17-5.49,2.85-11.3h0.07c-1.07-1.5-1.69-3.27-1.69-5.17 c0-5.32,4.82-9.64,10.77-9.64l0.02,0c5.94,0,10.77,4.32,10.77,9.64c0,1.9-0.62,3.67-1.69,5.17h0.07 c-5.32,5.81-4.03,10.44,2.85,11.3h14.56c1.87,0,3.4,1.53,3.4,3.4v15.16c-1.09,6.24-5.59,7.26-11.19,2.13v0.07 c-1.5-1.07-3.27-1.69-5.17-1.69c-5.32,0-9.64,4.82-9.64,10.76c0,5.94,4.32,10.77,9.64,10.77c1.9,0,3.67-0.62,5.17-1.69v0.29 c5.61-5.13,10.1-4.1,11.19,2.14v15.33c0,1.87-1.53,3.4-3.4,3.4l-16.63,0c-5.01,1.48-5.51,5.71-0.78,10.88H102 c1.07,1.5,1.69,3.27,1.69,5.17C103.68,108.11,98.86,112.43,92.92,112.43L92.92,112.43L92.92,112.43z"/></g></svg>