<svg width="48" height="48" viewBox="0 0 48 48" fill="none" xmlns="http://www.w3.org/2000/svg">
<path fill-rule="evenodd" clip-rule="evenodd" d="M16.8203 5.12109V16.4062L21.0273 12.1895C21.9553 11.1975 24.4276 10.7009 25.8516 11.8809C27.2553 13.0427 28.3257 14.2978 28.7578 14.6699C29.7778 15.5839 30.372 15.5359 31.418 14.6699C32.8397 13.4921 35.0652 13.5561 36.3633 14.8555L39.334 17.8945C40.57 19.2807 42.6721 23.042 41.5605 27.6914C41.3526 28.5552 41.1887 28.8701 40.8809 29.6758L42.4707 36.3516L40.9414 44H37.2305L39.2363 36.3516L37.2305 29.6758L34.1992 44H30.4902L33.5195 29.6758H25.7285L28.7578 44H25.1094L22.0176 29.6758L20.4121 36.3516L22.0176 44H18.4297L17.1758 36.3516L18.4297 29.6758C16.5536 28.5396 12.7401 24.9511 12.4941 19.6914C12.2462 14.4365 12.3901 10.971 12.4941 9.89648C11.8342 9.91848 10.5144 10.0177 9.64844 9.33789C8.22644 9.70989 6.804 9.1532 6 8.5332L7.29883 6.73437C7.58694 6.4023 8.31237 5.70461 8.90625 5.55664C9.50067 5.40658 14.9568 4.53797 17.6367 4L16.8203 5.12109ZM12.3535 6.75391L13.2187 7.65234L14.084 6.75391L13.2187 5.91992L12.3535 6.75391Z" fill="#4C19E8"/>
</svg>
