<svg width="16" height="16" viewBox="0 0 16 16" fill="none" xmlns="http://www.w3.org/2000/svg">
<g id="16px/Java" clip-path="url(#clip0_2504_7507)">
<path id="Vector" d="M7.85398 2.96468C7.11467 3.48465 6.27676 4.074 5.82779 5.04903C5.04797 6.75013 7.42348 8.60567 7.52501 8.68383C7.54861 8.70198 7.57686 8.71105 7.60501 8.71105C7.63492 8.71105 7.66486 8.70083 7.68917 8.68045C7.73633 8.64101 7.7497 8.57401 7.72139 8.51945C7.7128 8.50289 6.8601 6.84663 6.89179 5.65844C6.90301 5.24459 7.48217 4.77512 8.0953 4.27809C8.65686 3.82284 9.29343 3.30687 9.66587 2.70327C10.4835 1.37464 9.57474 0.0681989 9.56546 0.0551364C9.52936 0.0044487 9.46274 -0.0138951 9.40577 0.0110737C9.34886 0.0361988 9.31733 0.0977303 9.33033 0.158574C9.33218 0.167231 9.5089 1.03117 9.01714 1.92127C8.81458 2.28908 8.36945 2.60215 7.85398 2.96468Z" fill="#5069AD"/>
<path id="Vector_2" d="M10.9688 3.55055C11.021 3.51127 11.0363 3.43961 11.0047 3.38243C10.9731 3.32524 10.9044 3.30002 10.8433 3.32321C10.7177 3.37096 7.76782 4.50806 7.76782 5.88197C7.76782 6.82906 8.17239 7.32938 8.46779 7.69476C8.58367 7.83807 8.6837 7.96182 8.71667 8.06748C8.80948 8.37195 8.58961 8.92226 8.49714 9.10864C8.47048 9.1622 8.48354 9.22714 8.52889 9.26626C8.55339 9.28742 8.58398 9.29817 8.61461 9.29817C8.64067 9.29817 8.66686 9.29042 8.68948 9.27467C8.7402 9.23942 9.92908 8.39885 9.71586 7.38613C9.63642 7.00119 9.44727 6.71994 9.28036 6.47175C9.0218 6.08722 8.83505 5.80947 9.11836 5.29646C9.4503 4.69809 10.9536 3.56193 10.9688 3.55055Z" fill="#5069AD"/>
<path id="Vector_3" d="M3.28978 9.31992C3.23922 9.47133 3.26309 9.62152 3.35875 9.75439C3.67853 10.1984 4.81125 10.4428 6.54839 10.4428C6.54848 10.4428 6.54854 10.4428 6.5486 10.4428C6.78398 10.4428 7.03248 10.4382 7.28701 10.4291C10.0644 10.3296 11.0945 9.46439 11.137 9.42761C11.1833 9.38752 11.1957 9.32077 11.1669 9.26677C11.1381 9.2128 11.076 9.18567 11.0167 9.20202C10.0385 9.46908 8.21202 9.56389 6.94514 9.56389C5.52754 9.56389 4.8056 9.46177 4.62885 9.38636C4.71954 9.26183 5.27891 9.03945 5.97207 8.90311C6.03832 8.89011 6.08385 8.82892 6.07729 8.76173C6.07073 8.69454 6.01429 8.6433 5.94676 8.6433C5.54044 8.6433 3.50278 8.67592 3.28978 9.31992Z" fill="#5069AD"/>
<path id="Vector_4" d="M12.5835 8.42874C12.0106 8.42874 11.4674 8.71587 11.4445 8.72802C11.3916 8.7564 11.3647 8.81715 11.3792 8.87553C11.3938 8.93381 11.4462 8.97477 11.5063 8.97484C11.5185 8.97484 12.7283 8.98474 12.8378 9.67597C12.9349 10.2723 11.6932 11.2385 11.2065 11.5605C11.1539 11.5953 11.1335 11.6624 11.1579 11.7206C11.1787 11.77 11.2269 11.801 11.2788 11.801C11.2879 11.801 11.2971 11.8 11.3062 11.7981C11.4217 11.7734 14.1314 11.1763 13.8449 9.59859C13.6701 8.63171 13.0624 8.42874 12.5835 8.42874Z" fill="#5069AD"/>
<path id="Vector_5" d="M10.7252 11.3674C10.7346 11.3169 10.7136 11.2655 10.6715 11.2359L10.0218 10.7808C9.99009 10.7586 9.95006 10.7517 9.91287 10.7615C9.90609 10.7632 9.22665 10.9419 8.24021 11.0514C7.84871 11.0953 7.41021 11.1185 6.97202 11.1185C5.98582 11.1185 5.34101 11.0026 5.2471 10.9176C5.23467 10.8937 5.2386 10.8829 5.24082 10.8769C5.25788 10.8294 5.34932 10.7731 5.40826 10.7507C5.47335 10.7266 5.50845 10.656 5.4882 10.5896C5.46801 10.5231 5.39954 10.484 5.33198 10.5002C4.68023 10.6575 4.36154 10.8775 4.38472 11.1539C4.42591 11.6441 5.56129 11.8957 6.52114 11.9622C6.65917 11.9717 6.80845 11.9764 6.96474 11.9764C6.96483 11.9764 6.96489 11.9764 6.96499 11.9764C8.56105 11.9764 10.6072 11.4757 10.6276 11.4706C10.6776 11.4584 10.7157 11.418 10.7252 11.3674Z" fill="#5069AD"/>
<path id="Vector_6" d="M5.82676 12.4194C5.87598 12.3874 5.89779 12.3266 5.88032 12.2705C5.86292 12.2145 5.81051 12.1777 5.75164 12.1785C5.66429 12.1808 4.89698 12.2154 4.84326 12.7039C4.82701 12.8499 4.86882 12.9833 4.9676 13.1004C5.2431 13.4269 5.98679 13.6209 7.24077 13.6936C7.38911 13.7025 7.5398 13.707 7.68871 13.707C9.28293 13.707 10.3566 13.2078 10.4016 13.1866C10.4452 13.166 10.4739 13.1231 10.4765 13.075C10.4791 13.0269 10.455 12.9812 10.4139 12.9561L9.59281 12.4548C9.56431 12.4374 9.53021 12.4317 9.49771 12.4383C9.49253 12.4394 8.97118 12.5476 8.1844 12.6544C8.03552 12.6746 7.84908 12.6849 7.63033 12.6849C6.84439 12.6849 5.9702 12.5565 5.80254 12.4724C5.8001 12.4567 5.8032 12.4368 5.82676 12.4194Z" fill="#5069AD"/>
<path id="Vector_7" d="M6.94583 15.2141C10.5975 15.211 12.5574 14.5616 12.935 14.153C13.0687 14.0084 13.0831 13.8715 13.0718 13.7821C13.0437 13.5621 12.8433 13.4274 12.8206 13.4128C12.7658 13.3776 12.6922 13.3868 12.6494 13.4361C12.6068 13.4854 12.6058 13.5575 12.6486 13.6068C12.6716 13.6364 12.6849 13.686 12.6176 13.7534C12.4667 13.8944 10.9443 14.3223 8.40958 14.4508C8.06236 14.4689 7.69817 14.478 7.3272 14.4781C5.05772 14.4781 3.39681 14.1672 3.17878 13.9861C3.26281 13.8654 3.85031 13.6724 4.4751 13.5633C4.5455 13.551 4.59307 13.4847 4.58216 13.4141C4.57125 13.3435 4.50616 13.2949 4.435 13.3041C4.41738 13.3065 4.35757 13.3101 4.28832 13.3143C3.25744 13.3773 2.06615 13.5175 2.00399 14.0487C1.98512 14.2105 2.03321 14.3575 2.14699 14.4854C2.4254 14.7982 3.22562 15.2141 6.9457 15.2141C6.94576 15.2141 6.94576 15.2141 6.94583 15.2141Z" fill="#5069AD"/>
<path id="Vector_8" d="M13.6522 14.2681C13.6006 14.2443 13.5396 14.2563 13.5011 14.2979C13.4958 14.3037 12.9467 14.8778 11.296 15.2149C10.664 15.3415 9.47775 15.4057 7.77015 15.4057C6.05936 15.4057 4.43144 15.3384 4.41523 15.3377C4.34723 15.3344 4.28907 15.3839 4.27982 15.4508C4.27054 15.5177 4.31366 15.5807 4.37932 15.5964C4.39626 15.6004 6.10229 16 8.43493 16C9.55371 16 10.6424 15.9092 11.6708 15.7299C13.5884 15.3937 13.7226 14.4429 13.7274 14.4026C13.7341 14.3463 13.7038 14.292 13.6522 14.2681Z" fill="#5069AD"/>
</g>
<defs>
<clipPath id="clip0_2504_7507">
<rect width="16" height="16" fill="white"/>
</clipPath>
</defs>
</svg>
