<svg width="16" height="16" viewBox="0 0 16 16" fill="none" xmlns="http://www.w3.org/2000/svg">
<g id="16px/Rust" clip-path="url(#clip0_2504_7491)">
<path id="Vector" d="M7.49998 1.8845C7.49998 1.82206 7.51228 1.76022 7.53617 1.70253C7.56007 1.64484 7.59509 1.59242 7.63925 1.54827C7.6834 1.50412 7.73582 1.46909 7.79351 1.4452C7.8512 1.4213 7.91303 1.409 7.97548 1.409C8.03792 1.409 8.09975 1.4213 8.15744 1.4452C8.21513 1.46909 8.26755 1.50412 8.31171 1.54827C8.35586 1.59242 8.39088 1.64484 8.41478 1.70253C8.43868 1.76022 8.45098 1.82206 8.45098 1.8845C8.45098 2.01061 8.40088 2.13156 8.31171 2.22073C8.22253 2.3099 8.10159 2.36 7.97548 2.36C7.84937 2.36 7.72842 2.3099 7.63925 2.22073C7.55007 2.13156 7.49998 2.01061 7.49998 1.8845ZM1.82698 6.1895C1.82698 6.12706 1.83928 6.06522 1.86317 6.00753C1.88707 5.94984 1.92209 5.89742 1.96625 5.85327C2.0104 5.80912 2.06282 5.77409 2.12051 5.7502C2.1782 5.7263 2.24003 5.714 2.30248 5.714C2.36492 5.714 2.42675 5.7263 2.48444 5.7502C2.54213 5.77409 2.59455 5.80912 2.63871 5.85327C2.68286 5.89742 2.71789 5.94984 2.74178 6.00753C2.76568 6.06522 2.77798 6.12706 2.77798 6.1895C2.77798 6.31561 2.72788 6.43656 2.63871 6.52573C2.54953 6.6149 2.42859 6.665 2.30248 6.665C2.17637 6.665 2.05542 6.6149 1.96625 6.52573C1.87707 6.43656 1.82698 6.31561 1.82698 6.1895ZM13.173 6.2115C13.173 6.08539 13.2231 5.96444 13.3122 5.87527C13.4014 5.7861 13.5224 5.736 13.6485 5.736C13.7746 5.736 13.8955 5.7861 13.9847 5.87527C14.0739 5.96444 14.124 6.08539 14.124 6.2115C14.124 6.33761 14.0739 6.45856 13.9847 6.54773C13.8955 6.6369 13.7746 6.687 13.6485 6.687C13.5224 6.687 13.4014 6.6369 13.3122 6.54773C13.2231 6.45856 13.173 6.33761 13.173 6.2115ZM3.20298 6.8645C3.30804 6.81757 3.39024 6.73093 3.43157 6.62354C3.47289 6.51615 3.46998 6.39675 3.42348 6.2915L3.21248 5.8145H4.04248V9.5545H2.36798C2.16136 8.82868 2.09702 8.06975 2.17848 7.3195L3.20298 6.8645ZM6.67398 6.9565V5.854H8.64998C8.75198 5.854 9.36998 5.972 9.36998 6.434C9.36998 6.818 8.89498 6.956 8.50498 6.956L6.67398 6.9565ZM3.97598 12.892C3.97598 12.8296 3.98828 12.7677 4.01217 12.71C4.03607 12.6523 4.07109 12.5999 4.11525 12.5558C4.1594 12.5116 4.21182 12.4766 4.26951 12.4527C4.3272 12.4288 4.38903 12.4165 4.45148 12.4165C4.51392 12.4165 4.57575 12.4288 4.63344 12.4527C4.69113 12.4766 4.74355 12.5116 4.78771 12.5558C4.83186 12.5999 4.86689 12.6523 4.89078 12.71C4.91468 12.7677 4.92698 12.8296 4.92698 12.892C4.92698 13.0181 4.87688 13.1391 4.78771 13.2282C4.69853 13.3174 4.57759 13.3675 4.45148 13.3675C4.32537 13.3675 4.20442 13.3174 4.11525 13.2282C4.02607 13.1391 3.97598 13.0181 3.97598 12.892ZM11.0225 12.914C11.0225 12.7879 11.0726 12.6669 11.1617 12.5778C11.2509 12.4886 11.3719 12.4385 11.498 12.4385C11.6241 12.4385 11.745 12.4886 11.8342 12.5778C11.9234 12.6669 11.9735 12.7879 11.9735 12.914C11.9735 13.0401 11.9234 13.1611 11.8342 13.2502C11.745 13.3394 11.6241 13.3895 11.498 13.3895C11.3719 13.3895 11.2509 13.3394 11.1617 13.2502C11.0726 13.1611 11.0225 13.0401 11.0225 12.914ZM11.1695 11.8355C10.9345 11.7855 10.7045 11.9345 10.6545 12.169L10.416 13.283C9.64839 13.6307 8.8148 13.8085 7.97216 13.8045C7.12952 13.8004 6.29768 13.6145 5.53348 13.2595L5.29498 12.1455C5.24498 11.9105 5.01498 11.7615 4.77998 11.812L3.79648 12.023C3.61374 11.8348 3.44386 11.6345 3.28798 11.4235H8.07298C8.12698 11.4235 8.16298 11.4135 8.16298 11.3645V9.672C8.16298 9.622 8.12698 9.613 8.07298 9.613H6.67298V8.54H8.18648C8.32448 8.54 8.92498 8.58 9.11748 9.347L9.39998 10.597C9.48998 10.872 9.85648 11.4235 10.2465 11.4235H12.7165C12.5507 11.6452 12.3694 11.8549 12.174 12.051L11.1695 11.8355ZM13.8265 7.3665C13.8601 7.70433 13.8643 8.04445 13.839 8.383H13.239C13.179 8.383 13.154 8.423 13.154 8.4815V8.7575C13.154 9.4075 12.788 9.5475 12.467 9.584C12.162 9.619 11.822 9.456 11.781 9.269C11.601 8.255 11.301 8.039 10.831 7.664C11.4195 7.29 12.032 6.739 12.032 6.0005C12.032 5.2035 11.4855 4.7015 11.113 4.4555C10.5905 4.1105 10.012 4.042 9.85598 4.042H3.63848C4.49731 3.08238 5.64857 2.43267 6.91398 2.1935L7.64648 2.962C7.81148 3.1355 8.08648 3.142 8.25948 2.976L9.07948 2.1925C9.91475 2.3489 10.706 2.68524 11.3982 3.17818C12.0904 3.67111 12.667 4.30881 13.088 5.047L12.527 6.314C12.4805 6.41925 12.4776 6.53865 12.5189 6.64604C12.5602 6.75343 12.6424 6.84008 12.7475 6.887L13.8265 7.3665ZM15.2255 7.3865L15.2065 7.1905L15.7845 6.6515C15.902 6.5415 15.858 6.3215 15.708 6.2655L14.9695 5.9895L14.9115 5.7995L15.3715 5.1595C15.4655 5.0295 15.379 4.822 15.2215 4.796L14.4425 4.6695L14.349 4.4945L14.6765 3.776C14.7435 3.6295 14.619 3.4425 14.458 3.4485L13.668 3.476L13.543 3.3245L13.7245 2.5545C13.761 2.398 13.6025 2.2395 13.446 2.276L12.676 2.4575L12.524 2.3325L12.5515 1.5425C12.5575 1.3825 12.3705 1.2575 12.2245 1.324L11.5065 1.6515L11.3315 1.5575L11.2045 0.7785C11.1795 0.6205 10.971 0.5345 10.841 0.6285L10.201 1.0885L10.011 1.031L9.73498 0.2925C9.67898 0.1425 9.45848 0.0985 9.34898 0.2155L8.80998 0.7935L8.61398 0.7745L8.19798 0.102C8.11398 -0.034 7.88798 -0.034 7.80448 0.102L7.38848 0.7745L7.19248 0.7935L6.65248 0.2145C6.54248 0.0975 6.32248 0.141 6.26648 0.2915L5.99048 1.03L5.80048 1.0875L5.16048 0.6275C5.03048 0.5335 4.82248 0.62 4.79698 0.7775L4.66998 1.5565L4.49498 1.6505L3.77698 1.323C3.63098 1.2565 3.44348 1.3815 3.44998 1.5415L3.47748 2.3315L3.32548 2.4565L2.55548 2.275C2.39898 2.2385 2.24048 2.397 2.27698 2.5535L2.45848 3.3235L2.33348 3.475L1.54348 3.4475C1.38348 3.4425 1.25848 3.6285 1.32498 3.775L1.65248 4.4935L1.55848 4.6685L0.779477 4.795C0.621477 4.82 0.535477 5.0285 0.629477 5.1585L1.08948 5.7985L1.03148 5.9885L0.292977 6.2645C0.142977 6.3205 0.0989766 6.541 0.216477 6.6505L0.794477 7.1895L0.775477 7.3855L0.102977 7.8015C-0.0330234 7.8855 -0.0330234 8.1115 0.102977 8.195L0.775477 8.611L0.794477 8.807L0.214977 9.348C0.0979766 9.458 0.141477 9.678 0.291477 9.734L1.02998 10.01L1.08798 10.2L0.627977 10.84C0.534477 10.97 0.620477 11.178 0.777977 11.2035L1.55648 11.33L1.65048 11.505L1.32298 12.223C1.25648 12.369 1.38198 12.5565 1.54148 12.5505L2.33148 12.523L2.45648 12.675L2.27498 13.445C2.23848 13.601 2.39698 13.76 2.55348 13.723L3.32348 13.5415L3.47548 13.6665L3.44798 14.4565C3.44198 14.6165 3.62898 14.7415 3.77498 14.675L4.49298 14.3475L4.66798 14.4415L4.79498 15.22C4.81998 15.3785 5.02848 15.464 5.15848 15.371L5.79848 14.91L5.98848 14.968L6.26448 15.7065C6.32048 15.8565 6.54098 15.9005 6.65048 15.783L7.18948 15.205L7.38548 15.225L7.80148 15.8975C7.88548 16.0325 8.11048 16.0335 8.19498 15.8975L8.61098 15.225L8.80698 15.205L9.34598 15.783C9.45598 15.9005 9.67598 15.8565 9.73198 15.7065L10.008 14.968L10.198 14.91L10.838 15.371C10.968 15.4645 11.176 15.3785 11.2015 15.22L11.3285 14.4415L11.5035 14.3475L12.2215 14.675C12.3675 14.7415 12.5545 14.617 12.5485 14.4565L12.521 13.6665L12.6725 13.5415L13.4425 13.723C13.599 13.7595 13.7575 13.601 13.721 13.445L13.5395 12.675L13.6645 12.523L14.4545 12.5505C14.6145 12.557 14.7395 12.369 14.673 12.223L14.3455 11.505L14.439 11.33L15.218 11.2035C15.3765 11.1785 15.463 10.9705 15.368 10.84L14.908 10.2L14.966 10.01L15.7045 9.734C15.8545 9.6775 15.8985 9.4575 15.781 9.348L15.203 8.809L15.222 8.613L15.8945 8.197C16.0305 8.113 16.031 7.888 15.8945 7.8035L15.2255 7.3865Z" fill="#5069AD"/>
</g>
<defs>
<clipPath id="clip0_2504_7491">
<rect width="16" height="16" fill="white"/>
</clipPath>
</defs>
</svg>
