<svg width="56" height="56" viewBox="0 0 56 56" fill="none" xmlns="http://www.w3.org/2000/svg">
<rect x="0.4375" y="0.4375" width="55.125" height="55.125" rx="6.5625" fill="#F0F3FA"/>
<rect x="0.4375" y="0.4375" width="55.125" height="55.125" rx="6.5625" stroke="#D4D9E6" stroke-width="0.875"/>
<g clip-path="url(#clip0_7580_38856)">
<path d="M26.7062 20.6967L24.5 22.1667C24.5 25.6667 26.8333 26.8334 28 26.8334C29.1667 26.8334 31.5 25.6667 31.5 22.1667L29.2938 20.6967C28.5098 20.174 27.4902 20.174 26.7062 20.6967Z" fill="#DC244C"/>
<path d="M23.3345 28.0003C21.8902 26.3938 21.063 24.3265 21.0012 22.167C21.0012 19.8337 25.6679 15.167 28.0012 15.167C30.3345 15.167 35.0012 19.8337 35.0012 22.167C34.9394 24.3265 34.1122 26.3938 32.6679 28.0003M21.8797 25.8828L18.0845 28.7283C17.7042 29.013 17.4184 29.4073 17.2679 29.8577L15.624 34.7985C15.344 35.6373 15.5622 36.5613 16.1875 37.1867L17.5012 38.5003M34.1227 25.884L37.9179 28.7283C38.2982 29.013 38.584 29.4073 38.7345 29.8577L40.3807 34.7985C40.6607 35.6373 40.4425 36.5613 39.8172 37.1867L38.5012 38.5003M21.0012 31.5003H35.0012V40.8337H21.0012V31.5003Z" stroke="#DC244C" stroke-width="2.33333" stroke-linecap="round" stroke-linejoin="round"/>
<path d="M28 37.917C28.9665 37.917 29.75 37.1335 29.75 36.167C29.75 35.2005 28.9665 34.417 28 34.417C27.0335 34.417 26.25 35.2005 26.25 36.167C26.25 37.1335 27.0335 37.917 28 37.917Z" fill="#DC244C"/>
</g>
<defs>
<clipPath id="clip0_7580_38856">
<rect width="28" height="28" fill="white" transform="translate(14 14)"/>
</clipPath>
</defs>
</svg>
