<svg width="56" height="56" viewBox="0 0 56 56" fill="none" xmlns="http://www.w3.org/2000/svg">
<rect x="0.4375" y="0.4375" width="55.125" height="55.125" rx="6.5625" fill="#F0F3FA"/>
<rect x="0.4375" y="0.4375" width="55.125" height="55.125" rx="6.5625" stroke="#D4D9E6" stroke-width="0.875"/>
<g clip-path="url(#clip0_7580_38870)">
<path d="M28.8763 26.8333C28.8763 27.3166 28.4846 27.7083 28.0013 27.7083C27.5181 27.7083 27.1263 27.3166 27.1263 26.8333C27.1263 26.3501 27.5181 25.9583 28.0013 25.9583C28.4846 25.9583 28.8763 26.3501 28.8763 26.8333Z" fill="#8547FF" stroke="#8547FF" stroke-width="1.16667"/>
<path d="M23.3333 26.8333C23.3333 27.3166 22.9416 27.7083 22.4583 27.7083C21.9751 27.7083 21.5833 27.3166 21.5833 26.8333C21.5833 26.3501 21.9751 25.9583 22.4583 25.9583C22.9416 25.9583 23.3333 26.3501 23.3333 26.8333Z" fill="#8547FF" stroke="#8547FF" stroke-width="1.16667"/>
<path d="M32.082 37.9163L40.2487 29.7497M39.6654 25.083V22.1663C39.6654 20.8772 38.6212 19.833 37.332 19.833H18.6654C17.3762 19.833 16.332 20.8772 16.332 22.1663V31.4997C16.332 32.7888 17.3762 33.833 18.6654 33.833H29.1654M32.082 29.7497L40.2487 37.9163" stroke="#8547FF" stroke-width="2.33333" stroke-linecap="round" stroke-linejoin="round"/>
</g>
<defs>
<clipPath id="clip0_7580_38870">
<rect width="28" height="28" fill="white" transform="translate(14 14)"/>
</clipPath>
</defs>
</svg>
