<svg width="56" height="56" viewBox="0 0 56 56" fill="none" xmlns="http://www.w3.org/2000/svg">
<rect x="0.4375" y="0.4375" width="55.125" height="55.125" rx="6.5625" fill="#F0F3FA"/>
<rect x="0.4375" y="0.4375" width="55.125" height="55.125" rx="6.5625" stroke="#D4D9E6" stroke-width="0.875"/>
<path d="M18.6654 30.333V34.9997M18.6654 30.333C19.954 30.333 20.9987 29.2884 20.9987 27.9997C20.9987 26.711 19.954 25.6663 18.6654 25.6663M18.6654 30.333C17.3767 30.333 16.332 29.2884 16.332 27.9997C16.332 26.711 17.3767 25.6663 18.6654 25.6663M18.6654 34.9997C19.954 34.9997 20.9987 36.0443 20.9987 37.333M18.6654 34.9997C17.3767 34.9997 16.332 36.0443 16.332 37.333C16.332 38.6217 17.3767 39.6663 18.6654 39.6663C19.954 39.6663 20.9987 38.6217 20.9987 37.333M18.6654 25.6663V20.9997M18.6654 20.9997C19.954 20.9997 20.9987 19.955 20.9987 18.6663M18.6654 20.9997C17.3767 20.9997 16.332 19.955 16.332 18.6663C16.332 17.3777 17.3767 16.333 18.6654 16.333C19.954 16.333 20.9987 17.3777 20.9987 18.6663M20.9987 18.6663H25.6654M25.6654 18.6663C25.6654 17.3777 26.71 16.333 27.9987 16.333C29.2874 16.333 30.332 17.3777 30.332 18.6663M25.6654 18.6663C25.6654 19.955 26.71 20.9997 27.9987 20.9997C29.2874 20.9997 30.332 19.955 30.332 18.6663M30.332 18.6663H34.9987M34.9987 18.6663C34.9987 17.3777 36.0433 16.333 37.332 16.333C38.6207 16.333 39.6654 17.3777 39.6654 18.6663C39.6654 19.955 38.6207 20.9997 37.332 20.9997M34.9987 18.6663C34.9987 19.955 36.0433 20.9997 37.332 20.9997M37.332 20.9997V25.6663M37.332 25.6663C38.6207 25.6663 39.6654 26.711 39.6654 27.9997C39.6654 29.2884 38.6207 30.333 37.332 30.333M37.332 25.6663C36.0433 25.6663 34.9987 26.711 34.9987 27.9997C34.9987 29.2884 36.0433 30.333 37.332 30.333M37.332 30.333V34.9997M37.332 34.9997C38.6207 34.9997 39.6654 36.0443 39.6654 37.333C39.6654 38.6217 38.6207 39.6663 37.332 39.6663C36.0433 39.6663 34.9987 38.6217 34.9987 37.333M37.332 34.9997C36.0433 34.9997 34.9987 36.0443 34.9987 37.333M30.332 37.333H34.9987M30.332 37.333C30.332 38.6217 29.2874 39.6663 27.9987 39.6663C26.71 39.6663 25.6654 38.6217 25.6654 37.333M30.332 37.333C30.332 36.0443 29.2874 34.9997 27.9987 34.9997C26.71 34.9997 25.6654 36.0443 25.6654 37.333M20.9987 37.333H25.6654M31.4987 24.4999L24.4992 31.4995M31.4982 31.4995L24.4987 24.4999" stroke="#038585" stroke-width="2.33333" stroke-linecap="round" stroke-linejoin="round"/>
</svg>
