<svg width="15" height="17" viewBox="0 0 15 17" fill="none" xmlns="http://www.w3.org/2000/svg">
<g clip-path="url(#clip0_1817_22010)">
<path fill-rule="evenodd" clip-rule="evenodd" d="M14.4551 4.5005L14.4559 4.5L10.9913 2.5L7.52769 0.5L4.06313 2.5L0.599609 4.5L0.59978 4.50047V12.4999L4.0634 14.4999L7.52795 16.5V16.5002L9.74423 15.2215L9.74433 15.2213L9.74424 15.2213V12.5L7.52796 13.7799L5.24135 12.4601L2.95579 11.1404V5.86073L5.24135 4.54105L7.52796 3.22136L9.81353 4.54105L12.1001 5.86073V16.5001L12.1 16.5L12.1003 16.5007L14.4562 15.141V4.50062L14.4551 4.5005ZM7.52796 11.0596L9.74424 9.77979V7.22126L7.52796 5.94147L5.31169 7.22126V9.77979L7.52796 11.0596Z" fill="#FF516B"/>
</g>
<defs>
<clipPath id="clip0_1817_22010">
<rect width="13.8" height="16" fill="white" transform="translate(0.599609 0.5)"/>
</clipPath>
</defs>
</svg>
