<svg width="48" height="48" viewBox="0 0 48 48" fill="none" xmlns="http://www.w3.org/2000/svg">
<path d="M21.5077 8.44812V13.3247L21.3709 13.4615H8.92876V39.075H34.6335V26.4961H39.5556V40.7613C39.5556 42.1796 37.8529 43.9252 36.41 43.9963L6.96626 43.9999C5.40484 43.6654 4.20711 42.4658 4.00293 40.8561L4.00749 11.5947C4.03392 10.2274 5.80864 8.44812 7.15039 8.44812H21.5067H21.5077Z" fill="white"/>
<path d="M22.7836 32.6032C21.7545 30.0902 20.8557 27.5124 19.73 25.0376L15.0357 36.4316H11.6631L17.9188 21.5821C18.494 20.5302 20.9833 20.5694 21.5858 21.5411L27.888 36.4316H24.4699C23.8473 35.1946 23.3086 33.8857 22.7836 32.6032C22.8127 32.6542 22.779 32.595 22.7836 32.6032Z" fill="white"/>
<path d="M26.4619 3.99976V8.97116H39.0299V21.6212H44.0396V7.65311C44.0396 5.63501 42.4198 3.99976 40.4218 3.99976H26.4619Z" fill="#FE9014"/>
<path d="M17.1924 31.194L18.3619 28.3564L22.2185 31.194L24.469 36.4316L17.1924 31.194Z" fill="#FE9014"/>
</svg>
