<svg width="48" height="48" viewBox="0 0 48 48" fill="none" xmlns="http://www.w3.org/2000/svg">
<path d="M24.9969 6.09357C16.9454 7.81332 8.34669 19.5388 8.26852 29.0756C8.19035 37.4398 12.9587 42.2082 21.4011 42.13C31.5632 42.0519 42.9761 31.7334 39.6929 25.6361C38.6767 23.6819 37.5824 23.6037 35.6281 25.3234C33.2048 27.434 33.1266 25.7925 35.3154 20.9459C37.9732 14.9268 37.895 12.8944 34.8464 9.53306C31.8759 6.40625 28.7491 5.2337 24.9969 6.09357ZM33.0485 9.22038C36.488 12.269 36.6443 15.6303 33.752 21.9621C31.6414 26.6523 30.4689 27.2777 27.9674 24.7763C26.0913 22.9002 25.935 19.5388 27.5766 15.6303C29.2963 11.6437 29.0618 10.9401 26.7167 13.1289C21.0884 18.21 16.9454 27.9031 18.5088 32.0461C19.2124 33.844 19.7595 34.1567 22.6518 34.1567C26.873 34.1567 32.1886 31.5771 34.6901 28.2157C37.3478 24.7763 38.9112 24.7763 38.9112 28.1376C38.9112 34.0003 29.14 41.192 21.3229 41.192C11.8644 41.192 7.17414 34.0003 9.98827 23.8382C11.3172 19.3043 16.7109 11.8782 20.6976 9.22038C25.6223 5.93723 29.2963 5.93723 33.0485 9.22038Z" fill="#F0F3FA"/>
</svg>
