<svg width="48" height="48" viewBox="0 0 48 48" fill="none" xmlns="http://www.w3.org/2000/svg">
<path d="M37.682 33.6904C37.682 34.015 37.4174 34.2768 37.0917 34.2768C34.1551 34.2768 31.7748 31.9118 31.7748 28.994V19.498C31.7748 15.2837 28.3362 11.8681 24.0958 11.8681C19.8555 11.8681 16.6057 15.2848 16.6057 19.498V23.0157C16.5989 23.3337 16.8533 23.5966 17.1721 23.6023C17.1767 23.6023 17.1801 23.6023 17.1846 23.6023H20.5396C20.8653 23.609 21.1355 23.3516 21.1423 23.027C21.1423 23.0225 21.1423 23.0191 21.1423 23.0146V19.3553C21.1423 17.734 22.4642 16.4207 24.0958 16.4207C25.7276 16.4207 27.0494 17.734 27.0494 19.3553V41.4134C27.0426 41.7438 26.7678 42.0067 26.4354 41.9999C23.5124 41.9999 21.1423 39.645 21.1423 36.7407C21.1423 36.7328 21.1423 36.7249 21.1423 36.7171V29.6738C21.1355 29.3479 20.8675 29.0872 20.5396 29.0872H17.1846C16.8646 29.0872 16.6057 29.3445 16.6057 29.6625C16.6057 29.667 16.6057 29.6704 16.6057 29.6749V32.023C16.6057 34.9408 14.0365 37.3058 11.0999 37.3058C10.7732 37.3058 10.5098 37.043 10.5098 36.7193V19.4991C10.5098 12.0434 16.5921 6 24.0958 6C31.5996 6 37.682 12.0434 37.682 19.4991V33.6904Z" fill="#0EAF9C"/>
</svg>
