<svg width="48" height="48" viewBox="0 0 48 48" fill="none" xmlns="http://www.w3.org/2000/svg">
<path d="M4.87853 33.0184C6.46871 33.0184 7.75705 31.7301 7.75705 30.1399C7.75705 28.5497 6.46871 27.2614 4.87853 27.2614C3.28834 27.2614 2 28.5497 2 30.1399C2 31.7301 3.28834 33.0184 4.87853 33.0184Z" fill="#EB6161"/>
<path d="M13.9486 21.07C14.3241 21.07 14.6259 21.3718 14.6259 21.7472L14.5891 27.2614C14.5891 30.4049 12.0639 32.9669 8.92774 33.0184H8.83203V27.2761H8.85412L8.8762 21.762C8.8762 21.3865 9.17804 21.0847 9.5535 21.0847H13.956C13.9486 21.0847 13.9486 21.07 13.9486 21.07ZM22.7903 21.07C23.1658 21.07 23.4676 21.3718 23.4676 21.7472V29.4626C23.4676 29.838 23.1658 30.1399 22.7903 30.1399H18.3879C18.0124 30.1399 17.7106 29.838 17.7106 29.4626V21.7472C17.7106 21.3718 18.0124 21.07 18.3879 21.07H22.7903ZM29.7179 21.0479H29.8136C32.6333 21.0847 34.9302 23.3595 35.0112 26.1865V29.4479C35.0112 29.8233 34.7093 30.1252 34.3339 30.1252H27.2222C26.8468 30.1252 26.5449 29.8233 26.5449 29.4479V21.7252C26.5449 21.3497 26.8468 21.0479 27.2222 21.0479C27.2149 21.0479 29.7179 21.0479 29.7179 21.0479ZM41.3719 30.0442C39.0014 29.8969 37.102 27.9166 37.102 25.5092C37.102 23.0061 39.1339 20.9742 41.6369 20.9742C44.0443 20.9742 46.0247 22.8589 46.1719 25.2442V29.3669C46.1719 29.7423 45.8701 30.0442 45.4946 30.0442C45.4872 30.0442 41.3719 30.0442 41.3719 30.0442Z" fill="#009191"/>
<path d="M20.5817 19.9951C22.1718 19.9951 23.4602 18.7067 23.4602 17.1166C23.4602 15.5264 22.1718 14.238 20.5817 14.238C18.9915 14.238 17.7031 15.5264 17.7031 17.1166C17.7031 18.7067 18.9915 19.9951 20.5817 19.9951Z" fill="#FBCB67"/>
</svg>
