<svg width="48" height="30" viewBox="0 0 48 30" fill="none" xmlns="http://www.w3.org/2000/svg">
<g clip-path="url(#clip0_10745_1218)">
<path fill-rule="evenodd" clip-rule="evenodd" d="M47.384 10.8C47.384 13.451 45.2349 15.6 42.584 15.6C40.3474 15.6 38.4681 14.0703 37.9352 12H31.2336C30.0604 12 29.0592 12.8482 28.8663 14.0054L28.669 15.1891C28.4817 16.313 27.9132 17.2911 27.1092 18C27.9132 18.7089 28.4817 19.687 28.669 20.8109L28.8663 21.9946C29.0592 23.1518 30.0604 24 31.2336 24H33.1352C33.6681 21.9297 35.5474 20.4 37.784 20.4C40.4349 20.4 42.584 22.549 42.584 25.2C42.584 27.851 40.4349 30 37.784 30C35.5474 30 33.6681 28.4703 33.1352 26.4H31.2336C28.8872 26.4 26.8847 24.7036 26.499 22.3891L26.3016 21.2054C26.1088 20.0482 25.1075 19.2 23.9343 19.2H21.9766C21.3774 21.1681 19.5479 22.6 17.384 22.6C15.22 22.6 13.3905 21.1681 12.7914 19.2H9.9766C9.37744 21.1681 7.54792 22.6 5.38398 22.6C2.73302 22.6 0.583984 20.4509 0.583984 17.8C0.583984 15.149 2.73302 13 5.38398 13C7.69204 13 9.6196 14.629 10.0797 16.8H12.6883C13.1484 14.629 15.0759 13 17.384 13C19.692 13 21.6196 14.629 22.0797 16.8H23.9343C25.1075 16.8 26.1088 15.9518 26.3016 14.7946L26.499 13.6109C26.8847 11.2964 28.8872 9.6 31.2336 9.6H37.9352C38.4681 7.52973 40.3474 6 42.584 6C45.2349 6 47.384 8.14903 47.384 10.8ZM44.984 10.8C44.984 12.1255 43.9095 13.2 42.584 13.2C41.2585 13.2 40.184 12.1255 40.184 10.8C40.184 9.47452 41.2585 8.4 42.584 8.4C43.9095 8.4 44.984 9.47452 44.984 10.8ZM5.38398 20.2C6.70948 20.2 7.78396 19.1255 7.78396 17.8C7.78396 16.4745 6.70948 15.4 5.38398 15.4C4.0585 15.4 2.98398 16.4745 2.98398 17.8C2.98398 19.1255 4.0585 20.2 5.38398 20.2ZM17.384 20.2C18.7095 20.2 19.784 19.1255 19.784 17.8C19.784 16.4745 18.7095 15.4 17.384 15.4C16.0585 15.4 14.984 16.4745 14.984 17.8C14.984 19.1255 16.0585 20.2 17.384 20.2ZM37.784 27.6C39.1095 27.6 40.184 26.5255 40.184 25.2C40.184 23.8745 39.1095 22.8 37.784 22.8C36.4585 22.8 35.384 23.8745 35.384 25.2C35.384 26.5255 36.4585 27.6 37.784 27.6Z" fill="#EA4B71"/>
</g>
<defs>
<clipPath id="clip0_10745_1218">
<rect width="48" height="24" fill="white" transform="translate(0 6)"/>
</clipPath>
</defs>
</svg>
