<svg width="48" height="48" viewBox="0 0 48 48" fill="none" xmlns="http://www.w3.org/2000/svg">
<path d="M24.4201 34.5843L9.12988 19.2919L24.4201 3.99951L39.7093 19.2919L33.8353 25.167L24.4201 15.7497L20.879 19.2919L30.2942 28.7081L24.4201 34.5843ZM11.4639 19.2919L24.4201 32.2493L27.9602 28.7081L18.5461 19.2919L24.4201 13.4157L33.8342 22.833L37.3753 19.2919L24.4201 6.33242L11.4639 19.2919Z" fill="#FE552E"/>
<path d="M24.419 43.9995L9.12988 28.7071L15.0039 22.832L24.4201 32.2493L27.9602 28.7081L18.5461 19.2919L24.4201 13.4157L39.7093 28.7071L24.419 43.9995ZM11.4639 28.7071L24.419 41.6655L37.3753 28.7071L24.4201 15.7497L20.879 19.2919L30.2942 28.7081L24.4201 34.5843L15.005 25.166L11.4639 28.7071Z" fill="#FE552E"/>
</svg>
