<svg width="48" height="48" viewBox="0 0 48 48" fill="none" xmlns="http://www.w3.org/2000/svg">
<path d="M43.8447 26.5257C43.5658 29.2211 42.7645 31.7586 41.526 34.0287C40.2876 34.5386 38.7947 34.8906 36.8521 34.8906C32.7725 34.8906 30.5996 33.3126 28.8513 32.0501C27.3579 30.9693 26.2771 30.1921 23.8733 30.1921C21.4694 30.1921 20.3892 30.9693 18.8958 32.0501C17.148 33.3126 14.9746 34.8906 10.8955 34.8906C8.96494 34.8906 7.45953 34.5386 6.22105 34.0287C4.98257 31.7586 4.18129 29.2211 3.90234 26.5257C4.66707 26.9509 5.3106 27.4242 5.91757 27.8614C7.41096 28.9421 8.47917 29.7188 10.8955 29.7188C13.2994 29.7188 14.3796 28.9421 15.873 27.8609C17.6208 26.5989 19.7943 25.0323 23.8738 25.0323C27.9528 25.0323 30.1258 26.5989 31.8741 27.8614C33.3675 28.9421 34.4482 29.7188 36.8521 29.7188C39.2559 29.7188 40.3361 28.9421 41.83 27.8609C42.4245 27.4242 43.08 26.9629 43.8447 26.5257ZM36.6457 39.9657C34.8229 41.4731 32.7469 42.6447 30.5144 43.4263C29.9074 43.0617 29.3611 42.6611 28.8633 42.297C27.3699 41.2162 26.2892 40.4395 23.8853 40.4395C21.4815 40.4395 20.4012 41.2162 18.9079 42.297C18.398 42.6611 17.8642 43.0497 17.2452 43.4263C15.0127 42.6447 12.9367 41.4731 11.1139 39.9657C13.372 39.9297 14.4282 39.1645 15.873 38.1083C17.6208 36.8457 19.7943 35.2797 23.8733 35.2797C27.9528 35.2797 30.1258 36.8457 31.8741 38.1083C33.3189 39.1645 34.3751 39.9172 36.6457 39.9657Z" fill="#62D84E"/>
<path d="M23.874 4.40582C34.3959 4.40582 43.0257 12.5018 43.874 22.8053H37.5048C36.682 16.0054 30.8968 10.743 23.874 10.743C16.8513 10.743 11.066 16.0054 10.2432 22.8048H3.87402C4.72238 12.5018 13.3517 4.40582 23.874 4.40582Z" fill="white"/>
</svg>
