<svg width="48" height="48" viewBox="0 0 48 48" fill="none" xmlns="http://www.w3.org/2000/svg">
<path d="M12.0299 20.9175C11.7199 20.9175 11.4689 20.6665 11.4689 20.3565V19.6017C11.4689 19.2917 11.7199 19.0407 12.0299 19.0407H24.7762C25.0862 19.0407 25.3372 19.2917 25.3372 19.6017V20.3565C25.3372 20.6665 25.0862 20.9175 24.7762 20.9175H12.0299Z" fill="white"/>
<path d="M2.561 20.9175C2.251 20.9175 2 20.6665 2 20.3565V19.6017C2 19.2917 2.251 19.0407 2.561 19.0407H9.05262C9.36262 19.0407 9.61362 19.2917 9.61362 19.6017V20.3565C9.61362 20.6665 9.36262 20.9175 9.05262 20.9175H2.561Z" fill="white"/>
<path d="M29.3286 20.9175C29.0185 20.9175 28.7675 20.6665 28.7675 20.3565V19.6017C28.7675 19.2917 29.0185 19.0407 29.3286 19.0407H36.8981C37.2081 19.0407 37.4591 19.2917 37.4591 19.6017V20.3565C37.4591 20.6665 37.2081 20.9175 36.8981 20.9175H29.3286Z" fill="white"/>
<path d="M30.5798 18.2218C30.2698 18.2218 30.0188 17.9708 30.0188 17.6607V16.906C30.0188 16.596 30.2698 16.345 30.5798 16.345H36.8988C37.2088 16.345 37.4598 16.596 37.4598 16.906V17.6607C37.4598 17.9708 37.2088 18.2218 36.8988 18.2218H30.5798Z" fill="white"/>
<path d="M38.9923 18.2218C38.6823 18.2218 38.4313 17.9708 38.4313 17.6607V16.906C38.4313 16.596 38.6823 16.345 38.9923 16.345H43.7587C44.0687 16.345 44.3197 16.596 44.3197 16.906V17.6607C44.3197 17.9708 44.0687 18.2218 43.7587 18.2218H38.9923Z" fill="white"/>
<path d="M36.4899 15.4586C36.1808 15.4586 35.9289 15.2076 35.9289 14.8976V14.1429C35.9289 13.8337 36.1808 13.5819 36.4899 13.5819H42.0761C42.3861 13.5819 42.6371 13.8337 42.6371 14.1429V14.8976C42.6371 15.2076 42.3861 15.4586 42.0761 15.4586H36.4899Z" fill="white"/>
<path d="M38.6008 12.7638C38.2916 12.7638 38.0398 12.5128 38.0398 12.2028V11.448C38.0398 11.138 38.2916 10.887 38.6008 10.887H39.4638C39.773 10.887 40.0248 11.138 40.0248 11.448V12.2028C40.0248 12.5128 39.773 12.7638 39.4638 12.7638H38.6008Z" fill="white"/>
<path d="M30.9869 15.4586C30.6777 15.4586 30.4268 15.2076 30.4268 14.8976V14.1429C30.4268 13.8337 30.6777 13.5819 30.9869 13.5819H31.85C32.16 13.5819 32.411 13.8337 32.411 14.1429V14.8976C32.411 15.2076 32.16 15.4586 31.85 15.4586H30.9869Z" fill="white"/>
<path d="M18.5866 34.4193C18.2766 34.4193 18.0256 34.1683 18.0256 33.8583V33.0384C18.0256 32.7292 18.2766 32.4782 18.5866 32.4782H20.894C21.204 32.4782 21.455 32.7292 21.455 33.0384V33.8583C21.455 34.1683 21.204 34.4193 20.894 34.4193H18.5866Z" fill="white"/>
<path d="M24.5158 34.4193C24.2067 34.4193 23.9557 34.1683 23.9557 33.8583V33.0384C23.9557 32.7292 24.2067 32.4782 24.5158 32.4782H25.6378C25.9469 32.4782 26.1988 32.7292 26.1988 33.0384V33.8583C26.1988 34.1683 25.9469 34.4193 25.6378 34.4193H24.5158Z" fill="white"/>
<path d="M27.7932 34.4193C27.4832 34.4193 27.2322 34.1683 27.2322 33.8583V33.0384C27.2322 32.7292 27.4832 32.4782 27.7932 32.4782H32.7101C33.0201 32.4782 33.2711 32.7292 33.2711 33.0384V33.8583C33.2711 34.1683 33.0201 34.4193 32.7101 34.4193H27.7932Z" fill="white"/>
<path d="M30.8175 31.7213C30.5084 31.7213 30.2574 31.4703 30.2574 31.1611V30.3412C30.2574 30.0312 30.5084 29.7802 30.8175 29.7802H32.1984C32.5075 29.7802 32.7585 30.0312 32.7585 30.3412V31.1611C32.7585 31.4703 32.5075 31.7213 32.1984 31.7213H30.8175Z" fill="white"/>
<path d="M13.8594 34.4193C13.5503 34.4193 13.2993 34.1683 13.2993 33.8583V33.0384C13.2993 32.7292 13.5503 32.4782 13.8594 32.4782H14.7225C15.0325 32.4782 15.2835 32.7292 15.2835 33.0384V33.8583C15.2835 34.1683 15.0325 34.4193 14.7225 34.4193H13.8594Z" fill="white"/>
<path d="M22.424 35.7332C22.424 35.432 22.6609 35.1731 22.985 35.1731H23.8472C24.1493 35.1731 24.4082 35.41 24.4082 35.7332V36.5751C24.4082 36.8763 24.1713 37.1353 23.8472 37.1353H22.985C22.6829 37.1353 22.424 36.8983 22.424 36.5751V35.7332Z" fill="white"/>
<path d="M21.0653 39.8087C20.7553 39.8087 20.5043 39.5577 20.5043 39.2477V38.4287C20.5043 38.1187 20.7553 37.8677 21.0653 37.8677H21.8201C22.1301 37.8677 22.3811 38.1187 22.3811 38.4287V39.2477C22.3811 39.5577 22.1301 39.8087 21.8201 39.8087H21.0653Z" fill="white"/>
<path d="M28.5281 10.068C28.219 10.068 27.968 9.81705 27.968 9.50704V8.75229C27.968 8.44228 28.219 8.19128 28.5281 8.19128H29.8659C30.175 8.19128 30.4269 8.44228 30.4269 8.75229V9.50704C30.4269 9.81705 30.175 10.068 29.8659 10.068H28.5281Z" fill="white"/>
<path d="M14.5961 18.2218C14.2861 18.2218 14.0351 17.9708 14.0351 17.6607V16.906C14.0351 16.596 14.2861 16.345 14.5961 16.345H19.7297C20.0388 16.345 20.2898 16.596 20.2898 16.906V17.6607C20.2898 17.9708 20.0388 18.2218 19.7297 18.2218H14.5961Z" fill="white"/>
<path d="M26.2196 12.7638C25.9096 12.7638 25.6586 12.5128 25.6586 12.2028V11.448C25.6586 11.138 25.9096 10.887 26.2196 10.887H28.8943C29.2034 10.887 29.4553 11.138 29.4553 11.448V12.2028C29.4553 12.5128 29.2034 12.7638 28.8943 12.7638H26.2196Z" fill="white"/>
<path d="M23.872 15.4586C23.562 15.4586 23.311 15.2076 23.311 14.8976V14.1429C23.311 13.8337 23.562 13.5819 23.872 13.5819H28.8972C29.2063 13.5819 29.4582 13.8337 29.4582 14.1429V14.8976C29.4582 15.2076 29.2063 15.4586 28.8972 15.4586H23.872Z" fill="white"/>
<path d="M42.981 20.9175C42.671 20.9175 42.42 20.6665 42.42 20.3565V19.6017C42.42 19.2917 42.671 19.0407 42.981 19.0407H45.439C45.749 19.0407 46 19.2917 46 19.6017V20.3565C46 20.6665 45.749 20.9175 45.439 20.9175H42.981Z" fill="white"/>
<path d="M9.15955 23.6137C8.84954 23.6137 8.59855 23.3627 8.59855 23.0527V22.298C8.59855 21.9888 8.84954 21.7378 9.15955 21.7378H25.7448C26.0548 21.7378 26.3058 21.9888 26.3058 22.298V23.0527C26.3058 23.3627 26.0548 23.6137 25.7448 23.6137H9.15955Z" fill="white"/>
<path d="M25.2288 29.004C24.9188 29.004 24.6678 28.753 24.6678 28.443V27.6883C24.6678 27.3783 24.9188 27.1273 25.2288 27.1273H31.03C31.34 27.1273 31.591 27.3783 31.591 27.6883V28.443C31.591 28.753 31.34 29.004 31.03 29.004H25.2288Z" fill="white"/>
<path d="M12.0299 26.3083C11.7199 26.3083 11.4689 26.0573 11.4689 25.7482V24.9934C11.4689 24.6834 11.7199 24.4324 12.0299 24.4324H33.4035C33.7135 24.4324 33.9645 24.6834 33.9645 24.9934V25.7482C33.9645 26.0573 33.7135 26.3083 33.4035 26.3083H12.0299Z" fill="white"/>
<path d="M8.57768 29.004C8.26855 29.004 8.01755 28.753 8.01755 28.443V27.6883C8.01755 27.3783 8.26855 27.1273 8.57768 27.1273H15.8249C16.1349 27.1273 16.3859 27.3783 16.3859 27.6883V28.443C16.3859 28.753 16.1349 29.004 15.8249 29.004H8.57768Z" fill="white"/>
<path d="M16.2134 31.7213C15.9034 31.7213 15.6524 31.4703 15.6524 31.1611V30.3412C15.6524 30.0312 15.9034 29.7802 16.2134 29.7802H17.8313C18.1404 29.7802 18.3914 30.0312 18.3914 30.3412V31.1611C18.3914 31.4703 18.1404 31.7213 17.8313 31.7213H16.2134Z" fill="white"/>
<path d="M25.8736 31.7213C25.5644 31.7213 25.3126 31.4703 25.3126 31.1611V30.3412C25.3126 30.0312 25.5644 29.7802 25.8736 29.7802H27.7072C28.0163 29.7802 28.2682 30.0312 28.2682 30.3412V31.1611C28.2682 31.4703 28.0163 31.7213 27.7072 31.7213H25.8736Z" fill="white"/>
<path d="M11.1466 31.7213C10.8366 31.7213 10.5856 31.4703 10.5856 31.1611V30.3412C10.5856 30.0312 10.8366 29.7802 11.1466 29.7802H12.8067C13.1167 29.7802 13.3677 30.0312 13.3677 30.3412V31.1611C13.3677 31.4703 13.1167 31.7213 12.8067 31.7213H11.1466Z" fill="white"/>
<path d="M29.3286 23.6137C29.0185 23.6137 28.7675 23.3627 28.7675 23.0527V22.298C28.7675 21.9888 29.0185 21.7378 29.3286 21.7378H35.3455C35.6555 21.7378 35.9065 21.9888 35.9065 22.298V23.0527C35.9065 23.3627 35.6555 23.6137 35.3455 23.6137H29.3286Z" fill="white"/>
</svg>
