<svg width="194" height="56" viewBox="0 0 194 56" fill="none" xmlns="http://www.w3.org/2000/svg">
<path d="M23.7514 0.51451C18.0354 2.54011 14.6224 7.42371 14.6779 13.445C14.6779 16.192 15.0109 17.5794 16.1763 19.7437C17.9244 23.0735 22.0866 26.098 25.3885 26.4864L26.776 26.6529L27.2477 24.6828C28.302 20.16 31.4097 16.1088 35.3778 14.0554C37.1259 13.1398 37.9584 12.8623 40.5943 12.3073C41.5377 12.1131 41.5933 11.2807 40.7887 8.9776C39.5955 5.48137 37.1259 2.78983 33.6296 1.12496C31.6318 0.153788 31.2988 0.0982954 28.4408 0.0150517C25.9159 -0.0404427 25.111 0.042801 23.7514 0.51451Z" fill="white"/>
<path d="M39.7631 14.8046C35.046 15.859 30.8283 19.827 29.7461 24.2388C29.0524 27.0137 28.9968 26.7917 30.4397 27.0137C33.7419 27.513 37.2935 29.4555 39.6799 32.0637C41.2891 33.8119 43.2038 37.5578 43.4536 39.4169C43.731 41.4147 43.8419 41.4703 45.7011 41.0817C51.7777 39.8053 56.051 34.4224 56.051 28.0404C56.051 24.1556 55.0243 21.4641 52.4993 18.7726C49.336 15.3873 44.2305 13.778 39.7631 14.8046Z" fill="white"/>
<path d="M8.74056 15.304C3.27424 17.3573 0 22.1021 0 27.9848C0 31.8417 1.02667 34.4776 3.55171 37.197C6.16002 39.9996 9.26776 41.3037 13.4022 41.3037C18.591 41.3037 22.8642 38.8064 25.195 34.4223C25.9165 33.0903 27.0818 29.3998 26.8321 29.2056C26.8044 29.1779 25.861 28.9559 24.7234 28.7061C21.6156 28.0124 19.3125 26.7639 17.0649 24.5164C14.5121 21.9912 13.1524 19.3274 12.3478 15.415C12.209 14.7768 12.0703 14.6658 11.2934 14.6935C10.8216 14.6935 9.65624 14.971 8.74056 15.304Z" fill="white"/>
<path d="M28.8581 30.9538C28.3031 33.812 26.6106 36.9474 24.4461 39.084C21.9488 41.5257 19.5903 42.7468 15.4836 43.6347C14.5125 43.8568 14.457 44.689 15.2617 46.9922C16.76 51.3207 20.4505 54.6782 24.9456 55.7328C25.8613 55.9546 27.4152 56.0379 29.0246 55.9546C31.2445 55.8437 31.8826 55.6772 33.6862 54.817C37.2102 53.1522 39.5686 50.4884 40.7897 46.8533C41.3169 45.3274 41.3723 44.5781 41.289 41.9699C41.2058 39.084 41.1504 38.8066 40.1514 36.8088C38.4587 33.3402 35.1291 30.5378 31.7717 29.7053C28.9414 29.0116 29.2465 28.8728 28.8581 30.9538Z" fill="white"/>
<path d="M61.3618 55.9863V12.086H67.7603V18.7214L66.99 17.181C68.175 15.3642 69.7549 13.9423 71.7297 12.9154C73.7045 11.8885 75.9557 11.375 78.4837 11.375C81.5249 11.375 84.25 12.1057 86.6593 13.5671C89.1081 15.0284 91.0238 17.023 92.4062 19.5509C93.8279 22.0786 94.5389 24.9222 94.5389 28.0821C94.5389 31.2417 93.8279 34.0855 92.4062 36.6133C91.0238 39.1411 89.1279 41.1554 86.7186 42.6562C84.3092 44.1176 81.5643 44.8482 78.4837 44.8482C75.9952 44.8482 73.7242 44.3347 71.6705 43.3079C69.6561 42.281 68.0961 40.7998 66.99 38.8645L68.0566 37.6205V55.9863H61.3618ZM77.8318 38.6276C79.7277 38.6276 81.4062 38.1734 82.8676 37.2649C84.329 36.3565 85.4745 35.1124 86.3038 33.5326C87.1728 31.9131 87.6073 30.0964 87.6073 28.0821C87.6073 26.0678 87.1728 24.2706 86.3038 22.6908C85.4745 21.111 84.329 19.8667 82.8676 18.9583C81.4062 18.0499 79.7277 17.5957 77.8318 17.5957C75.9754 17.5957 74.2969 18.0499 72.7961 18.9583C71.3347 19.8667 70.1696 21.111 69.3006 22.6908C68.4711 24.2706 68.0566 26.0678 68.0566 28.0821C68.0566 30.0964 68.4711 31.9131 69.3006 33.5326C70.1696 35.1124 71.3347 36.3565 72.7961 37.2649C74.2969 38.1734 75.9754 38.6276 77.8318 38.6276Z" fill="white"/>
<path d="M108.87 44.8482C106.698 44.8482 104.782 44.4731 103.124 43.7226C101.504 42.9328 100.24 41.8662 99.3319 40.5235C98.4235 39.1411 97.9692 37.5217 97.9692 35.6654C97.9692 33.9276 98.3445 32.3673 99.0948 30.9851C99.8849 29.6027 101.089 28.4374 102.709 27.4897C104.328 26.5417 106.362 25.8702 108.811 25.4754L119.949 23.6387V28.9114L110.115 30.6296C108.337 30.9454 107.034 31.5183 106.204 32.3476C105.375 33.1376 104.96 34.1645 104.96 35.4285C104.96 36.6528 105.414 37.6599 106.323 38.4499C107.271 39.2003 108.475 39.5755 109.937 39.5755C111.754 39.5755 113.333 39.1805 114.676 38.3905C116.059 37.6007 117.125 36.5541 117.875 35.2506C118.626 33.9077 119.001 32.4265 119.001 30.8072V22.5723C119.001 20.9923 118.409 19.7088 117.224 18.7214C116.079 17.6945 114.538 17.181 112.603 17.181C110.825 17.181 109.265 17.655 107.922 18.6029C106.619 19.5114 105.651 20.6962 105.019 22.1576L99.4504 19.373C100.043 17.7932 101.01 16.4108 102.353 15.2259C103.696 14.0015 105.256 13.0536 107.034 12.3822C108.851 11.7107 110.766 11.375 112.78 11.375C115.308 11.375 117.54 11.849 119.475 12.7969C121.45 13.7448 122.97 15.0679 124.037 16.7663C125.143 18.4251 125.696 20.3604 125.696 22.5723V44.1373H119.297V38.3313L120.66 38.5092C119.91 39.8124 118.942 40.9382 117.757 41.8862C116.612 42.8339 115.288 43.5647 113.788 44.0781C112.326 44.5916 110.687 44.8482 108.87 44.8482Z" fill="white"/>
<path d="M131.746 44.1373V12.0859H138.144V18.5436L137.551 17.5956C138.263 15.5023 139.408 14.0014 140.988 13.093C142.567 12.1451 144.463 11.6711 146.675 11.6711H148.63V17.7734H145.846C143.634 17.7734 141.837 18.4645 140.454 19.8469C139.112 21.1898 138.44 23.1252 138.44 25.6529V44.1373H131.746Z" fill="white"/>
<path d="M151.434 44.1373V12.0859H158.129V44.1373H151.434ZM154.781 7.70183C152.933 7.70183 151.434 6.20318 151.434 4.35449V3.34733C151.434 1.49864 152.933 0 154.781 0C156.63 0 158.129 1.49864 158.129 3.34733V4.35449C158.129 6.20318 156.63 7.70183 154.781 7.70183Z" fill="white"/>
<path d="M178.041 44.4928C174.683 44.4928 172.077 43.5448 170.22 41.649C168.364 39.7531 167.436 37.0872 167.436 33.6509V18.1288H161.808V12.0859H162.696C164.197 12.0859 167.436 12.823 167.436 11.5062C167.436 10.1894 167.436 8.31859 167.436 6.81773V4.7395H174.131V12.0859H181.418V18.1288H174.131V33.3546C174.131 34.4607 174.308 35.4084 174.664 36.1984C175.019 36.949 175.592 37.5414 176.382 37.9759C177.172 38.3707 178.199 38.5683 179.463 38.5683C179.779 38.5683 180.134 38.5485 180.529 38.5091C180.924 38.4696 181.299 38.4301 181.655 38.3904V44.1372C181.102 44.2162 180.49 44.2952 179.818 44.3743C179.147 44.4533 178.554 44.4928 178.041 44.4928Z" fill="white"/>
<path d="M186.411 44.1373V12.0859H193.106V44.1373H186.411ZM189.759 7.70183C187.91 7.70183 186.411 6.20318 186.411 4.35449V3.34733C186.411 1.49864 187.91 0 189.759 0C191.607 0 193.106 1.49864 193.106 3.34733V4.35449C193.106 6.20318 191.607 7.70183 189.759 7.70183Z" fill="white"/>
</svg>
