<svg width="155" height="64" viewBox="0 0 155 64" fill="none" xmlns="http://www.w3.org/2000/svg">
<path d="M18.9765 10.0458C14.4096 11.6642 11.6827 15.5661 11.7271 20.3769C11.7271 22.5717 11.9931 23.6802 12.9242 25.4094C14.3209 28.0698 17.6464 30.4863 20.2845 30.7966L21.3931 30.9296L21.7699 29.3555C22.6123 25.742 25.0953 22.5052 28.2657 20.8646C29.6623 20.133 30.3275 19.9113 32.4335 19.4679C33.1872 19.3128 33.2316 18.6477 32.5888 16.8076C31.6355 14.0142 29.6623 11.8638 26.8689 10.5336C25.2727 9.75764 25.0067 9.7133 22.7232 9.64679C20.7059 9.60245 20.0628 9.66896 18.9765 10.0458Z" fill="url(#paint0_linear_13037_33413)"/>
<path d="M31.7716 21.4637C28.0027 22.3061 24.6329 25.4764 23.7682 29.0013C23.214 31.2184 23.1696 31.041 24.3225 31.2184C26.9608 31.6173 29.7984 33.1693 31.705 35.2531C32.9908 36.6499 34.5206 39.6427 34.7201 41.1282C34.9418 42.7243 35.0304 42.7687 36.5158 42.4583C41.3709 41.4385 44.785 37.1377 44.785 32.0387C44.785 28.9348 43.9648 26.7844 41.9474 24.6339C39.42 21.9293 35.3409 20.6434 31.7716 21.4637Z" fill="url(#paint1_linear_13037_33413)"/>
<path d="M6.98343 21.8619C2.61602 23.5024 0 27.2934 0 31.9934C0 35.075 0.820277 37.181 2.83771 39.3537C4.92166 41.5929 7.40465 42.6349 10.7079 42.6349C14.8537 42.6349 18.2678 40.6396 20.13 37.1368C20.7065 36.0726 21.6375 33.124 21.438 32.9689C21.4159 32.9468 20.6621 32.7693 19.7532 32.5698C17.2702 32.0156 15.4301 31.018 13.6343 29.2223C11.5947 27.2048 10.5084 25.0765 9.86549 21.9506C9.75465 21.4407 9.64378 21.352 9.02304 21.3742C8.64615 21.3742 7.71504 21.5959 6.98343 21.8619Z" fill="url(#paint2_linear_13037_33413)"/>
<path d="M23.0559 34.3668C22.6124 36.6504 21.2602 39.1555 19.5308 40.8625C17.5355 42.8134 15.6512 43.789 12.3701 44.4984C11.5942 44.6758 11.5498 45.3408 12.1927 47.1809C13.3899 50.6393 16.3384 53.3218 19.9299 54.1644C20.6615 54.3416 21.903 54.4082 23.1889 54.3416C24.9625 54.253 25.4723 54.12 26.9134 53.4327C29.7289 52.1026 31.6133 49.9743 32.5889 47.07C33.0101 45.8508 33.0543 45.2521 32.9878 43.1683C32.9213 40.8625 32.877 40.6409 32.0789 39.0447C30.7265 36.2734 28.0662 34.0344 25.3837 33.3692C23.1224 32.815 23.3662 32.7041 23.0559 34.3668Z" fill="url(#paint3_linear_13037_33413)"/>
<path d="M49.0273 54.3657V19.2907H54.1395V24.5922L53.5241 23.3615C54.4709 21.9099 55.7331 20.7738 57.3109 19.9534C58.8888 19.1329 60.6874 18.7227 62.7072 18.7227C65.137 18.7227 67.3143 19.3065 69.2393 20.474C71.1958 21.6416 72.7263 23.2352 73.8308 25.2549C74.9667 27.2745 75.5348 29.5465 75.5348 32.0711C75.5348 34.5956 74.9667 36.8677 73.8308 38.8873C72.7263 40.9069 71.2116 42.5162 69.2866 43.7154C67.3616 44.883 65.1685 45.4667 62.7072 45.4667C60.7189 45.4667 58.9045 45.0565 57.2636 44.236C55.6543 43.4156 54.4078 42.2322 53.5241 40.6859L54.3763 39.692V54.3657H49.0273ZM62.1864 40.4966C63.7011 40.4966 65.0422 40.1337 66.2098 39.4079C67.3774 38.6821 68.2927 37.6881 68.9552 36.4259C69.6495 35.132 69.9967 33.6805 69.9967 32.0711C69.9967 30.4617 69.6495 29.0258 68.9552 27.7636C68.2927 26.5014 67.3774 25.5073 66.2098 24.7815C65.0422 24.0557 63.7011 23.6928 62.1864 23.6928C60.7032 23.6928 59.3621 24.0557 58.1629 24.7815C56.9953 25.5073 56.0645 26.5014 55.3702 27.7636C54.7075 29.0258 54.3763 30.4617 54.3763 32.0711C54.3763 33.6805 54.7075 35.132 55.3702 36.4259C56.0645 37.6881 56.9953 38.6821 58.1629 39.4079C59.3621 40.1337 60.7032 40.4966 62.1864 40.4966Z" fill="#180452"/>
<path d="M86.983 45.4667C85.2475 45.4667 83.717 45.167 82.3917 44.5674C81.0977 43.9364 80.088 43.0842 79.3622 42.0114C78.6364 40.9069 78.2734 39.6131 78.2734 38.1299C78.2734 36.7415 78.5733 35.4949 79.1728 34.3905C79.804 33.286 80.7664 32.355 82.0603 31.5978C83.3541 30.8404 84.9792 30.3038 86.9357 29.9884L95.8346 28.521V32.7337L87.9772 34.1065C86.557 34.3588 85.5156 34.8165 84.853 35.4791C84.1903 36.1103 83.8589 36.9308 83.8589 37.9406C83.8589 38.9188 84.2218 39.7235 84.9477 40.3547C85.705 40.9542 86.6674 41.254 87.835 41.254C89.2867 41.254 90.5489 40.9384 91.6219 40.3072C92.7264 39.6762 93.5784 38.84 94.1779 37.7985C94.7776 36.7256 95.0772 35.5422 95.0772 34.2484V27.669C95.0772 26.4066 94.6039 25.3811 93.6573 24.5922C92.7422 23.7717 91.5113 23.3615 89.9652 23.3615C88.5451 23.3615 87.2986 23.7401 86.2257 24.4975C85.1844 25.2234 84.4113 26.17 83.9062 27.3376L79.4568 25.1128C79.9301 23.8506 80.7033 22.7461 81.7762 21.7994C82.8492 20.8212 84.0957 20.0638 85.5156 19.5274C86.9673 18.9909 88.4978 18.7227 90.1072 18.7227C92.1268 18.7227 93.9098 19.1013 95.4559 19.8587C97.0337 20.6161 98.2486 21.6732 99.1008 23.0301C99.9844 24.3555 100.426 25.9017 100.426 27.669V44.8988H95.314V40.2599L96.4027 40.402C95.803 41.4433 95.0299 42.3428 94.0833 43.1001C93.1682 43.8573 92.111 44.4412 90.9118 44.8514C89.7442 45.2617 88.4347 45.4667 86.983 45.4667Z" fill="#180452"/>
<path d="M105.262 44.8984V19.2903H110.374V24.4498L109.9 23.6925C110.469 22.02 111.384 20.8208 112.646 20.095C113.908 19.3377 115.423 18.959 117.19 18.959H118.752V23.8345H116.527C114.76 23.8345 113.324 24.3867 112.22 25.4912C111.147 26.5641 110.61 28.1104 110.61 30.13V44.8984H105.262Z" fill="#180452"/>
<path d="M120.992 44.8991V19.2911H126.341V44.8991H120.992ZM123.667 15.7883C122.19 15.7883 120.992 14.5909 120.992 13.1139V12.3092C120.992 10.8321 122.19 9.63477 123.667 9.63477C125.144 9.63477 126.341 10.8321 126.341 12.3092V13.1139C126.341 14.5909 125.144 15.7883 123.667 15.7883Z" fill="#180452"/>
<path d="M142.251 45.1835C139.569 45.1835 137.486 44.4261 136.003 42.9114C134.52 41.3967 133.778 39.2667 133.778 36.5212V24.1195H129.281V19.2914H129.991C131.19 19.2914 133.778 19.8804 133.778 18.8283C133.778 17.7762 133.778 16.2815 133.778 15.0823V13.4219H139.127V19.2914H144.949V24.1195H139.127V36.2845C139.127 37.1682 139.269 37.9254 139.553 38.5566C139.837 39.1563 140.295 39.6296 140.926 39.9767C141.557 40.2921 142.377 40.45 143.387 40.45C143.64 40.45 143.923 40.4343 144.239 40.4027C144.555 40.3712 144.855 40.3396 145.138 40.3079V44.8995C144.697 44.9625 144.208 45.0256 143.671 45.0889C143.135 45.152 142.661 45.1835 142.251 45.1835Z" fill="#180452"/>
<path d="M148.938 44.8991V19.2911H154.286V44.8991H148.938ZM151.612 15.7883C150.135 15.7883 148.938 14.5909 148.938 13.1139V12.3092C148.938 10.8321 150.135 9.63477 151.612 9.63477C153.089 9.63477 154.286 10.8321 154.286 12.3092V13.1139C154.286 14.5909 153.089 15.7883 151.612 15.7883Z" fill="#180452"/>
<defs>
<linearGradient id="paint0_linear_13037_33413" x1="22.3907" y1="9.63477" x2="22.3907" y2="54.3661" gradientUnits="userSpaceOnUse">
<stop offset="0.114583" stop-color="#4E00CC"/>
<stop offset="0.869792" stop-color="#CF41E7"/>
</linearGradient>
<linearGradient id="paint1_linear_13037_33413" x1="22.3937" y1="9.63525" x2="22.3937" y2="54.3666" gradientUnits="userSpaceOnUse">
<stop offset="0.114583" stop-color="#4E00CC"/>
<stop offset="0.869792" stop-color="#CF41E7"/>
</linearGradient>
<linearGradient id="paint2_linear_13037_33413" x1="22.3913" y1="9.6344" x2="22.3913" y2="54.3657" gradientUnits="userSpaceOnUse">
<stop offset="0.114583" stop-color="#4E00CC"/>
<stop offset="0.869792" stop-color="#CF41E7"/>
</linearGradient>
<linearGradient id="paint3_linear_13037_33413" x1="22.3907" y1="9.63568" x2="22.3907" y2="54.367" gradientUnits="userSpaceOnUse">
<stop offset="0.114583" stop-color="#4E00CC"/>
<stop offset="0.869792" stop-color="#CF41E7"/>
</linearGradient>
</defs>
</svg>
