<svg width="117" height="48" viewBox="0 0 117 48" fill="none" xmlns="http://www.w3.org/2000/svg">
<path d="M14.2324 7.53389C10.8072 8.74769 8.76206 11.6741 8.79532 15.2822C8.79532 16.9283 8.99485 17.7596 9.69319 19.0566C10.7407 21.0519 13.2348 22.8642 15.2134 23.0969L16.0448 23.1967L16.3274 22.0162C16.9592 19.306 18.8215 16.8784 21.1993 15.648C22.2467 15.0993 22.7456 14.933 24.3251 14.6005C24.8904 14.4841 24.9237 13.9853 24.4416 12.6052C23.7266 10.5102 22.2467 8.89733 20.1517 7.89969C18.9545 7.31774 18.755 7.28449 17.0424 7.23461C15.5294 7.20135 15.0471 7.25123 14.2324 7.53389Z" fill="#E1E5F0"/>
<path d="M23.8272 16.0968C21.0006 16.7286 18.4732 19.1063 17.8247 21.75C17.409 23.4128 17.3757 23.2798 18.2404 23.4128C20.2191 23.712 22.3473 24.876 23.7773 26.4389C24.7416 27.4865 25.889 29.7311 26.0386 30.8452C26.2049 32.0423 26.2713 32.0756 27.3854 31.8427C31.0267 31.0779 33.5873 27.8523 33.5873 24.028C33.5873 21.7001 32.9721 20.0873 31.4591 18.4745C29.5635 16.446 26.5042 15.4816 23.8272 16.0968Z" fill="#E1E5F0"/>
<path d="M5.23758 16.3962C1.96201 17.6266 0 20.4698 0 23.9948C0 26.306 0.615208 27.8855 2.12828 29.515C3.69125 31.1944 5.55349 31.9759 8.03094 31.9759C11.1402 31.9759 13.7008 30.4795 15.0975 27.8524C15.5299 27.0542 16.2282 24.8428 16.0785 24.7264C16.0619 24.7098 15.4966 24.5767 14.8149 24.4271C12.9527 24.0114 11.5725 23.2633 10.2257 21.9165C8.69604 20.4033 7.8813 18.8071 7.39912 16.4627C7.31598 16.0803 7.23284 16.0138 6.76728 16.0304C6.48462 16.0304 5.78628 16.1966 5.23758 16.3962Z" fill="#E1E5F0"/>
<path d="M17.2929 25.7739C16.9603 27.4866 15.9461 29.3654 14.6491 30.6457C13.1526 32.1088 11.7394 32.8405 9.27855 33.3726C8.6966 33.5056 8.66334 34.0044 9.14553 35.3844C10.0434 37.9782 12.2548 39.9901 14.9484 40.6221C15.4971 40.755 16.4283 40.8049 17.3927 40.755C18.7229 40.6885 19.1052 40.5888 20.186 40.0733C22.2977 39.0757 23.7109 37.4795 24.4426 35.3013C24.7585 34.3869 24.7917 33.9379 24.7418 32.375C24.6919 30.6457 24.6588 30.4794 24.0601 29.2823C23.0458 27.2038 21.0507 25.5246 19.0388 25.0257C17.3428 24.61 17.5256 24.5268 17.2929 25.7739Z" fill="#E1E5F0"/>
<path d="M36.7695 40.7741V14.4678H40.6037V18.4439L40.1421 17.5209C40.8522 16.4322 41.7989 15.5801 42.9822 14.9648C44.1656 14.3494 45.5146 14.0417 47.0294 14.0417C48.8518 14.0417 50.4848 14.4796 51.9285 15.3553C53.3959 16.231 54.5438 17.4262 55.3721 18.9409C56.2241 20.4556 56.6501 22.1596 56.6501 24.0531C56.6501 25.9464 56.2241 27.6505 55.3721 29.1652C54.5438 30.6799 53.4077 31.8869 51.964 32.7863C50.5202 33.662 48.8754 34.0998 47.0294 34.0998C45.5382 34.0998 44.1774 33.7921 42.9467 33.1768C41.7397 32.5614 40.8049 31.6739 40.1421 30.5142L40.7812 29.7687V40.7741H36.7695ZM46.6388 30.3722C47.7749 30.3722 48.7807 30.1 49.6564 29.5557C50.5321 29.0113 51.2185 28.2658 51.7154 27.3192C52.2362 26.3487 52.4965 25.2601 52.4965 24.0531C52.4965 22.846 52.2362 21.7691 51.7154 20.8225C51.2185 19.8758 50.5321 19.1302 49.6564 18.5859C48.7807 18.0415 47.7749 17.7694 46.6388 17.7694C45.5264 17.7694 44.5206 18.0415 43.6212 18.5859C42.7455 19.1302 42.0474 19.8758 41.5267 20.8225C41.0296 21.7691 40.7812 22.846 40.7812 24.0531C40.7812 25.2601 41.0296 26.3487 41.5267 27.3192C42.0474 28.2658 42.7455 29.0113 43.6212 29.5557C44.5206 30.1 45.5264 30.3722 46.6388 30.3722Z" fill="#E1E5F0"/>
<path d="M65.2383 34.0998C63.9366 34.0998 62.7887 33.875 61.7947 33.4253C60.8243 32.952 60.067 32.3129 59.5226 31.5083C58.9782 30.6799 58.7061 29.7096 58.7061 28.5972C58.7061 27.5559 58.9309 26.6209 59.3805 25.7926C59.8539 24.9643 60.5757 24.266 61.5462 23.6981C62.5165 23.1301 63.7354 22.7276 65.2028 22.4911L71.8769 21.3905V24.55L65.9838 25.5796C64.9188 25.7689 64.1377 26.1121 63.6408 26.6091C63.1437 27.0825 62.8952 27.6978 62.8952 28.4552C62.8952 29.1889 63.1674 29.7924 63.7117 30.2658C64.2798 30.7154 65.0016 30.9403 65.8773 30.9403C66.966 30.9403 67.9127 30.7036 68.7174 30.2302C69.5458 29.7569 70.1848 29.1297 70.6344 28.3486C71.0841 27.5439 71.3089 26.6564 71.3089 25.6861V20.7515C71.3089 19.8047 70.9539 19.0356 70.2439 18.4439C69.5576 17.8285 68.6345 17.5209 67.4749 17.5209C66.4098 17.5209 65.475 17.8049 64.6702 18.3729C63.8893 18.9173 63.3094 19.6273 62.9307 20.503L59.5936 18.8344C59.9486 17.8877 60.5284 17.0593 61.3332 16.3493C62.1379 15.6156 63.0727 15.0476 64.1377 14.6453C65.2264 14.2429 66.3743 14.0417 67.5813 14.0417C69.096 14.0417 70.4333 14.3258 71.5929 14.8938C72.7763 15.4618 73.6875 16.2547 74.3266 17.2723C74.9892 18.2664 75.3206 19.426 75.3206 20.7515V33.6738H71.4864V30.1947L72.303 30.3013C71.8533 31.0822 71.2734 31.7568 70.5634 32.3249C69.8771 32.8927 69.0842 33.3307 68.1849 33.6383C67.3092 33.946 66.327 34.0998 65.2383 34.0998Z" fill="#E1E5F0"/>
<path d="M78.9453 33.6738V14.4678H82.7793V18.3374L82.4243 17.7694C82.8504 16.515 83.5367 15.6156 84.4834 15.0713C85.4301 14.5033 86.5661 14.2192 87.8916 14.2192H89.0631V17.8758H87.3945C86.0691 17.8758 84.9923 18.29 84.1639 19.1184C83.3592 19.9231 82.9569 21.0828 82.9569 22.5975V33.6738H78.9453Z" fill="#E1E5F0"/>
<path d="M90.7432 33.6739V14.4678H94.7548V33.6739H90.7432ZM92.749 11.8407C91.6412 11.8407 90.7432 10.9427 90.7432 9.83491V9.2314C90.7432 8.12361 91.6412 7.22559 92.749 7.22559C93.8568 7.22559 94.7548 8.12361 94.7548 9.2314V9.83491C94.7548 10.9427 93.8568 11.8407 92.749 11.8407Z" fill="#E1E5F0"/>
<path d="M106.687 33.8869C104.675 33.8869 103.113 33.3189 102.001 32.1828C100.888 31.0468 100.332 29.4493 100.332 27.3902V18.0889H96.9595V14.4678H97.492C98.3914 14.4678 100.332 14.9096 100.332 14.1205C100.332 13.3314 100.332 12.2104 100.332 11.311V10.0657H104.344V14.4678H108.71V18.0889H104.344V27.2126C104.344 27.8754 104.45 28.4433 104.663 28.9167C104.876 29.3665 105.219 29.7214 105.693 29.9818C106.166 30.2184 106.781 30.3368 107.539 30.3368C107.728 30.3368 107.941 30.325 108.178 30.3013C108.415 30.2776 108.639 30.254 108.852 30.2302V33.6739C108.521 33.7212 108.154 33.7685 107.752 33.8159C107.349 33.8632 106.994 33.8869 106.687 33.8869Z" fill="#E1E5F0"/>
<path d="M111.702 33.6739V14.4678H115.714V33.6739H111.702ZM113.708 11.8407C112.6 11.8407 111.702 10.9427 111.702 9.83491V9.2314C111.702 8.12361 112.6 7.22559 113.708 7.22559C114.816 7.22559 115.714 8.12361 115.714 9.2314V9.83491C115.714 10.9427 114.816 11.8407 113.708 11.8407Z" fill="#E1E5F0"/>
</svg>
