<svg preserveAspectRatio="none" width="100%" height="100%" overflow="visible" style="display: block;" viewBox="0 0 18 18.0002" fill="none" xmlns="http://www.w3.org/2000/svg">
<path id="Vector" d="M8.79167 11.7085L6.29167 9.20854M8.79167 11.7085C9.95571 11.2658 11.0724 10.7075 12.125 10.0419M8.79167 11.7085V15.8752C8.79167 15.8752 11.3167 15.4169 12.125 14.2085C13.025 12.8585 12.125 10.0419 12.125 10.0419M6.29167 9.20854C6.73513 8.05806 7.29351 6.95526 7.95834 5.91687C8.92933 4.36436 10.2814 3.08608 11.8858 2.20362C13.4903 1.32115 15.2939 0.863849 17.125 0.875206C17.125 3.14187 16.475 7.12521 12.125 10.0419M6.29167 9.20854H2.12501C2.12501 9.20854 2.58334 6.68354 3.79167 5.87521C5.14167 4.97521 7.95834 5.87521 7.95834 5.87521M2.54167 12.9585C1.29167 14.0085 0.875008 17.1252 0.875008 17.1252C0.875008 17.1252 3.99167 16.7085 5.04167 15.4585C5.63334 14.7585 5.62501 13.6835 4.96667 13.0335C4.64276 12.7244 4.21609 12.5457 3.76853 12.5319C3.32097 12.5181 2.88407 12.67 2.54167 12.9585Z" stroke="var(--stroke-0, #DC244C)" stroke-width="1.75" stroke-linecap="round" stroke-linejoin="round"/>
</svg>
