<svg preserveAspectRatio="none" width="100%" height="100%" overflow="visible" style="display: block;" viewBox="0 0 30.1 30.1004" fill="none" xmlns="http://www.w3.org/2000/svg">
<path id="Vector" d="M14.7 19.6003L10.5 15.4003M14.7 19.6003C16.6556 18.8566 18.5317 17.9186 20.3 16.8003M14.7 19.6003V26.6003C14.7 26.6003 18.942 25.8303 20.3 23.8003C21.812 21.5323 20.3 16.8003 20.3 16.8003M10.5 15.4003C11.245 13.4675 12.1831 11.6148 13.3 9.87035C14.9313 7.26213 17.2027 5.11462 19.8982 3.63207C22.5937 2.14953 25.6237 1.38127 28.7 1.40035C28.7 5.20835 27.608 11.9003 20.3 16.8003M10.5 15.4003H3.50001C3.50001 15.4003 4.27001 11.1583 6.30001 9.80035C8.56801 8.28835 13.3 9.80035 13.3 9.80035M4.20001 21.7003C2.10001 23.4643 1.40001 28.7003 1.40001 28.7003C1.40001 28.7003 6.63601 28.0003 8.40001 25.9003C9.39401 24.7243 9.38001 22.9183 8.27401 21.8263C7.72984 21.307 7.01302 21.0068 6.26113 20.9836C5.50923 20.9603 4.77524 21.2156 4.20001 21.7003Z" stroke="var(--stroke-0, #8547FF)" stroke-width="2.8" stroke-linecap="round" stroke-linejoin="round"/>
</svg>
