<?xml version="1.0" encoding="UTF-8"?>
<svg width="512" height="512" version="1.1" xmlns="http://www.w3.org/2000/svg">
 <g fill="#ffffff">
  <path d="m378 154h-1c0-10.788 3.124-27.387-2.367-36.999-6.815-11.929-20.325-6.857-28.239-16.106-4.481-5.2374-3.394-12.494-3.394-18.895v-41c0-6.2595-1.04-13.526 2.854-18.906 6.788-9.378 23.08-6.0941 33.146-6.0941h79c9.171 0 24.084-2.8263 31.957 2.7029 11.327 7.9555 1.125 24.454 9.477 31.555 4.923 4.1858 11.795 0.5833 12.457-5.2615 1.657-14.617 0.109-30.28 0.109-44.996h-122c-15.591 0-37.566-4.1213-50.996 5.2207-20.418 14.202-12.004 56.043-12.004 77.779 0 9.692-0.588 18.513 4.966 26.999 3.526 5.388 8.904 9.127 15.034 10.957 4.632 1.383 11.248 0.71 13.397 6.099 5.26 13.195-8.473 43.93 8.607 50.936 9.587 3.932 15.79-3.668 20.196-10.991 7.475-12.424 15.305-33.652 26.893-42.486 5.794-4.416 16.048-2.514 22.907-2.514 26.3 0 72.985 8.786 73-30 2e-3 -4.7845 1.172-11.443-0.603-15.956-2.242-5.7001-10.35-6.2987-13.369-0.9352-6.073 10.787 3.641 26.643-14.028 31.043-16.409 4.087-37.118 0.848-54 0.848-7.052 0-15.505-1.286-21.996 2-12.525 6.34-24.574 32.4-30.004 45z"/>
  <path d="m226.7 27.623c-7.9147-0.019266-15.771 0.37695-22.697 0.37695-40.566 0-83.199-3.2574-104.89 39-10.712 20.869-4.6959 41.174-8.2578 62.961-1.0971 6.71-9.9776 10.785-12.062 18.039-4.3599 15.169-4.3368 47.61 10.211 56.867 6.8088 4.332 15.297 3.1328 23 3.1328 0.332 16.104 7.9036 32.791 18.145 44.998 11.045 13.165 28.122 21.6 19.846 42.002-4.644 11.447-20.055 8-29.99 8h-46c-11.3 0-21.609-0.68959-30.91 6.9004-17.835 14.552-4.8428 32.377-10.113 50.1-1.5646 5.261-6.4277 10.183-9.1152 15-5.3279 9.549-9.6038 19.558-12.836 30-6.424 20.753-3.4962 40.819-5.0801 62-0.41636 5.568-4.6431 9.568-5.6152 15-1.7026 9.514-0.33008 20.342-0.33008 30h291 72c10.932 0 23.136 1.8589 31.814-6.3281 13.588-12.818 2.3741-23.85 1.2441-37.672-1.202-14.694 0.64166-29.309-1.4863-44-3.319-22.911-13.126-41.331-24.58-61-8.306-14.264 4.2097-32.761-6.7812-47.996-14.876-20.62-57.911-12.004-80.211-12.004-8.611 0-24.688 3.3424-29.994-5.0195-3.535-5.571-5.6203-21.058-1.4023-26.656 3.878-5.147 10.795-8.6811 15.381-13.328 4.124-4.178 7.0168-9.8057 11.34-13.678 4.661-4.175 12.93-1.9481 18.676-2.4121 9.733-0.786 18.718-7.3423 23.176-15.906 4.379-8.413 3.8242-17.819 3.8242-27 0-16.281 3.1356-36.338-1.7754-52-2.202-7.025-10.201-10.382-11.906-17.016-6.099-23.732 9.8926-53.263-20.318-66.105-4.382-1.8627-9.286-2.5063-14-2.8789-1.287-29.515-25.559-33.319-49.303-33.377zm224 8.4473c-9.3655 0.20111-18.845 0.92969-27.699 0.92969-6.09 0-15.219-1.6858-20.893 0.74219-7.039 3.0124-4.6625 12.996 1.8984 14.824 15.376 4.2848 37.01 0.43359 52.994 0.43359 5.546 0 13.999 1.5341 18.721-2.0098 5.578-4.186 2.8054-12.812-3.7246-13.842-3.884-0.61268-7.9042-0.92788-11.996-1.0566-3.0689-0.096571-6.1789-0.088521-9.3008-0.021485zm-77.586 0.54883c-3.0412-0.09445-6.1356 0.3288-8.0586 1.123-5.36 2.2138-5.9752 9.1307-1.8262 12.824 3.632 3.2322 11.372 3.3155 15.727 1.541 5.405-2.2026 6.7225-9.8957 1.8965-13.504-1.709-1.2775-4.697-1.8899-7.7383-1.9844zm-193.93 6.4062c11.97 0.030433 23.968 0.97461 34.82 0.97461 10.26 0 24.228-2.4528 34 0.85352 13.553 4.5857 8.6103 18.328 16.529 26.818 7.217 7.7366 19.188 3.5665 25.832 12.371 8.002 10.605 3.6387 33.247 3.6387 45.957 0 4.73 1.2568 11.741-1.7422 15.775-3.705 4.984-13.51 6.8946-19.258 8.2246 0-18.173 4.1052-40.74-10.174-54.816-17.437-17.191-36.584-5.1105-56.826-4.2227-14.89 0.6531-28.527-6.092-43-5.7012-36.779 0.9931-35 38.116-35 64.74-5.579-1.815-15.561-3.2286-19.143-8.2246-4.038-5.632-1.8574-17.176-1.8574-23.775 0-23.14-0.08936-45.712 18.016-62.91 14.346-13.628 34.215-16.115 54.164-16.064zm-14.285 62.125c9.1974 0.27616 19.094 4.8187 28.105 5.6797 17.036 1.628 45.129-12.983 58.672-0.30078 15.917 14.907-9.2608 57.78 23.328 59.471 0 15.682 0.962 31.685-3 47-12.85-4.669-32.291-9.8345-44.984-1.1465-12.153 8.319-11.821 25.986-0.01171 34.346 5.835 4.131 12.185 3.8008 18.996 3.8008v1c-13.535 7.506-26.231 13.836-42 14.91-30.643 2.089-60.469-18.213-72.123-45.91-7.067-16.795-4.877-36.232-4.877-54 35.805-3.15-1.5709-60.302 34-64.684 1.2808-0.15788 2.5806-0.20547 3.8945-0.16602zm-70.895 48.85 15.973 11.699 1.0273 27.301c-22.918-0.063-17-21.862-17-39zm213 0c2.953 7.038 3.4687 30.089-2.2793 35.697-3.604 3.517-9.0547 3.2897-13.721 3.3027l1.0273-27.352 14.973-11.648zm1 53c-0.299 14.398-8.768 19-22 19l4-18 18-1zm-60.553 20.273c4.0289-0.00263 8.0819 0.43265 10.443 1.1602 3.615 1.113 5.336 6.0067 1.791 8.3867-3.986 2.677-18.225 2.3865-22.533 0.4375-3.736-1.691-3.736-6.8246 0-8.5156 2.266-1.025 6.27-1.4661 10.299-1.4688zm-80.447 51.727c24.348 9.379 42.537 4.613 67 1l2 23h-71l2-24zm-102.81 39.84c3.3315-0.15625 6.7705 0.16016 9.8145 0.16016h43 165 47c6.842 0 14.508-1.1321 19.775 4.2148 8.398 8.524 4.0764 31.915 2.6484 42.785-4.17 31.76-4.7628 65.964-5.4238 98h-116c1.119-12.74 10.365-20.632 16.547-31 6.459-10.833 8.9563-23.482 7.1523-36-1.905-13.221-10.054-26.333-20.699-34.238-6.595-4.898-14.388-8.0782-20.58-0.65625-7.678 9.203-3.4199 31.52-3.4199 42.895-3.969 0-12.138 1.5536-15.396-1.0273-2.819-2.233-1.6035-8.8217-1.6035-11.973 0-10.281 3.9051-28.868-8.0039-33.768-10.187-4.191-22.17 9.4646-27.223 16.768-11.013 15.916-12.844 36.646-4.166 54 6.266 12.529 15.449 21.108 19.393 35h-117c0-7.062 1.3484-17.541-2.0273-23.98-3.4177-6.518-11.643-5.7446-14.23 0.98633-2.3261 6.051 0.25781 16.403 0.25781 22.994h-18c0-26.358 2.943-49.487 13-74h1c0.8003 6.332-0.75123 16.465 3.0098 21.785 4.8818 6.906 13.068 2.4758 13.881-4.7852 2.2193-19.825-2.7931-41.056-2.8906-61-0.0446-9.132-2.7524-18.152 6.0156-24.486 2.6145-1.889 5.8384-2.5176 9.1699-2.6738zm160.81 58.16c12.959 9.544 16.696 29.631 10.1 44-3.563 7.76-10.018 13.627-14.227 21-2.859 5.008-4.2219 17.742-8.4629 20.973-4.72 3.597-18.595 1.0273-24.41 1.0273-3.676-27.276-46.671-61.046-12-86 0 9.905-2.8775 25.319 2.7285 33.998 8.238 12.756 36.026 13.684 43.904-0.00196 5.278-9.17 2.3672-24.706 2.3672-34.996zm141 12c15.777 19.113 14 51.889 14 75h-18l4-75zm-332.66 90.334c4.4823 0.16038 9.0245 0.66602 12.656 0.66602h58 200c22.999 0 46.001-0.11805 69 0.00195 6.818 0.035 18.157 5.2938 10.348 13.426-4.746 4.943-17.079 2.5723-23.348 2.5723h-65-214c-18.416 0-39.904 3.0915-58-0.22852-7.6118-1.397-9.5743-11.924-1.9551-15.029 3.3949-1.3835 7.8165-1.5686 12.299-1.4082z"/>
  <path d="m365.1 72.742c-6.598 2.8002-5.845 12.855 0.938 14.824 7.63 2.2149 18.035 0.4337 25.957 0.4337h56c7.181 0 21.811 2.7629 27.772-1.7423 5.7-4.3083 2.745-12.824-3.776-14.029-23.643-4.3694-51.919-0.2284-75.996-0.2284-8.733 0-22.808-2.6896-30.895 0.7423z"/>
 </g>
</svg>
