<svg xmlns="http://www.w3.org/2000/svg" fill="none" overflow="visible" preserveAspectRatio="none" style="display:block" viewBox="0 0 14 14"><path fill="var(--fill-0, #d4d9e6)" d="M7 0a7 7 0 0 0-7 7 7.195 7.195 0 0 0 5.478 7v-1.826H4.87c-1.595 0-2.155-2.435-3.044-2.435 1.698 0 2.027 1.217 3.044 1.217a.542.542 0 0 0 .608-.608v-.213c-1.771-.5-3.043-1.826-3.043-3.44a3.2 3.2 0 0 1 .955-2.227 1.92 1.92 0 0 1 .262-2.033 3.2 3.2 0 0 1 1.449.913 5.56 5.56 0 0 1 3.798 0c.391-.43.892-.746 1.449-.913a1.92 1.92 0 0 1 .262 2.033c.598.588.941 1.388.955 2.228 0 1.667-1.394 3.043-3.299 3.506.196.426.284.895.256 1.363V14A7.195 7.195 0 0 0 14 7a7 7 0 0 0-7-7"/></svg>