<svg xmlns="http://www.w3.org/2000/svg" fill="none" overflow="visible" preserveAspectRatio="none" style="display:block" viewBox="0 0 16 16"><path fill="var(--fill-0, #d4d9e6)" d="m8.667 8.444.088.004a.89.89 0 0 1 .802.885 1.777 1.777 0 0 0 1.777 1.777h1.136q.04.106.097.203c.697 1.143-.611 2.452-1.755 1.755a1.28 1.28 0 0 0-1.634.26 1.3 1.3 0 0 0-.27.53c-.316 1.3-2.167 1.3-2.482 0a1.278 1.278 0 0 0-1.907-.79c-1.142.696-2.451-.612-1.754-1.755a1.3 1.3 0 0 0 .167-.459c.07.152.224.256.402.256H6a.445.445 0 0 0 0-.888h-.223V8.444zM2.941 5.538c.075.142.222.24.393.24H4.89v4.444H3.334a.44.44 0 0 0-.398.247 1.28 1.28 0 0 0-.962-1.062c-1.299-.315-1.299-2.166 0-2.481a1.28 1.28 0 0 0 .974-1.34zm3.485-3.063c.315-1.3 2.166-1.3 2.481 0a1.28 1.28 0 0 0 .752.88 1.28 1.28 0 0 0 1.154-.09c1.143-.696 2.452.612 1.755 1.755a1.277 1.277 0 0 0 .79 1.906c1.3.315 1.3 2.166 0 2.481a1.28 1.28 0 0 0-.88.752l-.021.063h-1.123a.89.89 0 0 1-.889-.889c0-.385-.127-.756-.354-1.062.183-.086.354-.201.5-.347a1.78 1.78 0 0 0-1.257-3.035h-6a.443.443 0 0 0-.442.414 1.3 1.3 0 0 0-.127-.284c-.697-1.142.612-2.451 1.755-1.754a1.276 1.276 0 0 0 1.906-.79m2.908 3.302a.89.89 0 0 1 .889.889.89.89 0 0 1-.89.89H5.779V5.777z"/></svg>