<svg preserveAspectRatio="none" width="100%" height="100%" overflow="visible" style="display: block;" viewBox="0 0 16 16" fill="none" xmlns="http://www.w3.org/2000/svg">
<g id="Users-Icon">
<g id="Vector">
<path d="M5.54545 8.00005C6.59981 8.00005 7.45453 7.14532 7.45453 6.09096C7.45453 5.03661 6.59981 4.18188 5.54545 4.18188C4.49109 4.18188 3.63636 5.03661 3.63636 6.09096C3.63636 7.14532 4.49109 8.00005 5.54545 8.00005Z" fill="#D4D9E6"/>
<path d="M10.1818 6.36368C11.3868 6.36368 12.3636 5.38685 12.3636 4.18187C12.3636 2.97689 11.3868 2.00006 10.1818 2.00006C8.97683 2.00006 8 2.97689 8 4.18187C8 5.38685 8.97683 6.36368 10.1818 6.36368Z" fill="#D4D9E6"/>
<path d="M10.1819 7.45461C9.17937 7.45461 8.26901 7.8457 7.58665 8.48006C9.12101 9.2366 10.1819 10.813 10.1819 12.6364V14H14.0001V11.2728C14.0001 9.16733 12.2874 7.45461 10.1819 7.45461Z" fill="#D4D9E6"/>
<path d="M5.54544 9.09097C3.59054 9.09097 2 10.6815 2 12.6364V14H9.09088V12.6364C9.09088 10.6815 7.50034 9.09097 5.54544 9.09097Z" fill="#D4D9E6"/>
</g>
</g>
</svg>
