<svg width="64" height="64" viewBox="0 0 64 64" fill="none" xmlns="http://www.w3.org/2000/svg">
<rect width="64" height="64" rx="8" fill="#E1E5F0"/>
<path d="M22.4008 30.5946C22.4008 31.1361 22.4593 31.5751 22.5617 31.8971C22.6788 32.219 22.8251 32.5702 23.03 32.9507C23.1032 33.0678 23.1325 33.1849 23.1325 33.2873C23.1325 33.4336 23.0447 33.58 22.8544 33.7263L21.9325 34.341C21.8008 34.4288 21.669 34.4727 21.552 34.4727C21.4056 34.4727 21.2593 34.3995 21.113 34.2678C20.9081 34.0483 20.7325 33.8141 20.5861 33.58C20.4398 33.3312 20.2934 33.0532 20.1325 32.7166C18.991 34.0629 17.5569 34.7361 15.8301 34.7361C14.6008 34.7361 13.6203 34.3849 12.9032 33.6824C12.1862 32.98 11.8203 32.0434 11.8203 30.8727C11.8203 29.6288 12.2593 28.619 13.152 27.8581C14.0447 27.0971 15.2301 26.7166 16.7374 26.7166C17.2349 26.7166 17.7471 26.7605 18.2886 26.8337C18.83 26.9068 19.3861 27.0239 19.9715 27.1556V26.0873C19.9715 24.9751 19.7373 24.1995 19.2837 23.7459C18.8154 23.2922 18.0252 23.0727 16.8983 23.0727C16.3861 23.0727 15.8593 23.1312 15.3179 23.263C14.7764 23.3947 14.2496 23.5556 13.7374 23.7605C13.5032 23.863 13.3276 23.9215 13.2252 23.9508C13.1227 23.98 13.0496 23.9947 12.991 23.9947C12.7862 23.9947 12.6837 23.8483 12.6837 23.541V22.8239C12.6837 22.5898 12.713 22.4142 12.7862 22.3117C12.8593 22.2093 12.991 22.1069 13.1959 22.0044C13.7081 21.741 14.3227 21.5215 15.0398 21.3459C15.7569 21.1556 16.5179 21.0678 17.3227 21.0678C19.0642 21.0678 20.3373 21.463 21.1569 22.2532C21.9617 23.0434 22.3715 24.2434 22.3715 25.8532V30.5946H22.4008ZM16.4593 32.819C16.9422 32.819 17.4398 32.7312 17.9666 32.5556C18.4935 32.38 18.9617 32.058 19.3569 31.619C19.591 31.341 19.7666 31.0336 19.8544 30.6824C19.9422 30.3312 20.0008 29.9068 20.0008 29.4093V28.7946C19.5764 28.6922 19.1227 28.6044 18.6544 28.5459C18.1861 28.4873 17.7325 28.4581 17.2788 28.4581C16.2983 28.4581 15.5813 28.6483 15.0983 29.0434C14.6154 29.4385 14.3813 29.9946 14.3813 30.7263C14.3813 31.4141 14.5569 31.9263 14.9227 32.2775C15.274 32.6434 15.7861 32.819 16.4593 32.819ZM28.2105 34.3995C27.9471 34.3995 27.7715 34.3556 27.6544 34.2531C27.5373 34.1653 27.4349 33.9605 27.3471 33.6824L23.9081 22.3703C23.8203 22.0776 23.7764 21.8874 23.7764 21.7849C23.7764 21.5508 23.8934 21.4191 24.1276 21.4191H25.5617C25.8398 21.4191 26.03 21.463 26.1324 21.5654C26.2495 21.6532 26.3373 21.8581 26.4251 22.1361L28.8836 31.8239L31.1666 22.1361C31.2397 21.8434 31.3275 21.6532 31.4446 21.5654C31.5617 21.4776 31.7666 21.4191 32.03 21.4191H33.2007C33.4787 21.4191 33.669 21.463 33.7861 21.5654C33.9031 21.6532 34.0056 21.8581 34.0641 22.1361L36.3763 31.941L38.908 22.1361C38.9958 21.8434 39.0982 21.6532 39.2007 21.5654C39.3177 21.4776 39.508 21.4191 39.7714 21.4191H41.1324C41.3665 21.4191 41.4982 21.5361 41.4982 21.7849C41.4982 21.8581 41.4836 21.9313 41.469 22.0191C41.4543 22.1069 41.4251 22.2239 41.3665 22.3849L37.8397 33.6971C37.7519 33.9897 37.6495 34.18 37.5324 34.2678C37.4153 34.3556 37.2251 34.4141 36.9763 34.4141H35.7178C35.4397 34.4141 35.2495 34.3702 35.1324 34.2678C35.0153 34.1653 34.9129 33.9751 34.8544 33.6824L32.5861 24.2434L30.3324 33.6678C30.2593 33.9605 30.1714 34.1507 30.0544 34.2531C29.9373 34.3556 29.7324 34.3995 29.469 34.3995H28.2105ZM47.0153 34.7946C46.2543 34.7946 45.4933 34.7068 44.7616 34.5312C44.0299 34.3556 43.4592 34.1653 43.0787 33.9458C42.8446 33.8141 42.6836 33.6678 42.625 33.5361C42.5665 33.4044 42.5372 33.258 42.5372 33.1263V32.38C42.5372 32.0727 42.6543 31.9263 42.8738 31.9263C42.9616 31.9263 43.0494 31.941 43.1372 31.9702C43.225 31.9995 43.3568 32.058 43.5031 32.1166C44.0007 32.3361 44.5421 32.5117 45.1128 32.6288C45.6982 32.7458 46.2689 32.8044 46.8543 32.8044C47.7762 32.8044 48.4933 32.6434 48.9909 32.3214C49.4884 31.9995 49.7518 31.5312 49.7518 30.9312C49.7518 30.5215 49.6201 30.1849 49.3567 29.9068C49.0933 29.6288 48.5958 29.38 47.8787 29.1459L45.7567 28.4873C44.6885 28.1507 43.8982 27.6532 43.4153 26.9946C42.9324 26.3507 42.6836 25.6337 42.6836 24.8727C42.6836 24.2581 42.8153 23.7166 43.0787 23.2483C43.3421 22.78 43.6933 22.3703 44.1324 22.0483C44.5714 21.7117 45.0689 21.463 45.6543 21.2874C46.2397 21.1117 46.8543 21.0386 47.4982 21.0386C47.8201 21.0386 48.1567 21.0532 48.4787 21.0971C48.8153 21.141 49.1226 21.1995 49.4299 21.2581C49.7226 21.3313 50.0006 21.4044 50.264 21.4922C50.5274 21.58 50.7323 21.6678 50.8787 21.7556C51.0835 21.8727 51.2299 21.9898 51.3177 22.1215C51.4055 22.2386 51.4494 22.3995 51.4494 22.6044V23.2922C51.4494 23.5995 51.3323 23.7605 51.1128 23.7605C50.9957 23.7605 50.8055 23.702 50.5567 23.5849C49.7226 23.2044 48.786 23.0142 47.747 23.0142C46.9128 23.0142 46.2543 23.1459 45.8006 23.4239C45.347 23.702 45.1128 24.1264 45.1128 24.7264C45.1128 25.1361 45.2592 25.4873 45.5519 25.7654C45.8445 26.0434 46.386 26.3215 47.1616 26.5703L49.2396 27.2288C50.2933 27.5654 51.0543 28.0337 51.5079 28.6337C51.9616 29.2337 52.1811 29.9215 52.1811 30.6824C52.1811 31.3117 52.0494 31.8824 51.8006 32.38C51.5372 32.8775 51.186 33.3166 50.7323 33.6678C50.2787 34.0336 49.7372 34.297 49.1079 34.4873C48.4494 34.6922 47.7616 34.7946 47.0153 34.7946Z" fill="#252F3E"/>
<path fill-rule="evenodd" clip-rule="evenodd" d="M49.7821 41.9072C44.9675 45.4633 37.9724 47.3511 31.9578 47.3511C23.5285 47.3511 15.9334 44.234 10.1969 39.0535C9.74323 38.6438 10.153 38.0877 10.6944 38.4096C16.8993 42.0096 24.5529 44.1901 32.4699 44.1901C37.8114 44.1901 43.6797 43.0779 49.0796 40.795C49.8845 40.4291 50.5723 41.3218 49.7821 41.9072Z" fill="#FF9900"/>
<path fill-rule="evenodd" clip-rule="evenodd" d="M51.7851 39.624C51.1705 38.8338 47.7168 39.2435 46.151 39.4338C45.6827 39.4923 45.6095 39.0825 46.0339 38.7752C48.7851 36.8435 53.307 37.3996 53.8339 38.0435C54.3607 38.702 53.6875 43.224 51.1119 45.3898C50.7168 45.7264 50.3363 45.5508 50.5119 45.1118C51.0973 43.663 52.3997 40.3996 51.7851 39.624Z" fill="#FF9900"/>
</svg>
