<svg width="64" height="64" viewBox="0 0 64 64" fill="none" xmlns="http://www.w3.org/2000/svg">
<rect width="64" height="64" rx="8" fill="#E1E5F0"/>
<path d="M37.9213 23.3605H39.2633L43.088 19.5359L43.2759 17.9121C41.0849 15.9783 38.437 14.6349 35.5824 14.0089C32.7278 13.3829 29.7608 13.4949 26.9615 14.3344C24.1623 15.1739 21.6233 16.7131 19.5843 18.8067C17.5454 20.9003 16.0738 23.479 15.3086 26.2994C15.7347 26.1248 16.2067 26.0965 16.6506 26.2189L24.3 24.9575C24.3 24.9575 24.6892 24.3133 24.8905 24.3536C26.5295 22.5536 28.7946 21.4481 31.2221 21.2635C33.6495 21.0789 36.0558 21.8291 37.9482 23.3605H37.9213Z" fill="#EA4335"/>
<path d="M48.5356 26.2992C47.6564 23.0619 45.8514 20.1515 43.342 17.9253L37.974 23.2932C39.0927 24.2073 39.9893 25.3635 40.5961 26.6746C41.2028 27.9857 41.5039 29.4175 41.4766 30.8619V31.8147C42.104 31.8147 42.7253 31.9383 43.3049 32.1784C43.8845 32.4184 44.4112 32.7703 44.8548 33.214C45.2985 33.6576 45.6504 34.1843 45.8905 34.7639C46.1306 35.3435 46.2541 35.9647 46.2541 36.5921C46.2541 37.2195 46.1306 37.8407 45.8905 38.4204C45.6504 39 45.2985 39.5266 44.8548 39.9703C44.4112 40.4139 43.8845 40.7658 43.3049 41.0059C42.7253 41.246 42.104 41.3695 41.4766 41.3695H31.9216L30.9688 42.3358V48.066L31.9216 49.0188H41.4766C44.1448 49.0395 46.7489 48.201 48.9035 46.6271C51.0582 45.0532 52.649 42.8276 53.4407 40.2795C54.2324 37.7314 54.1829 34.9962 53.2995 32.4784C52.4161 29.9606 50.7458 27.7941 48.5356 26.2992Z" fill="#4285F4"/>
<path d="M22.3534 48.9654H31.9084V41.3162H22.3534C21.6726 41.316 20.9998 41.1695 20.3806 40.8867L19.0386 41.3027L15.1871 45.1274L14.8516 46.4693C17.0114 48.1002 19.6469 48.9771 22.3534 48.9654Z" fill="#34A853"/>
<path d="M22.3527 24.1524C19.7637 24.1679 17.2443 24.9916 15.1461 26.5084C13.048 28.0252 11.4761 30.1595 10.6498 32.613C9.82358 35.0666 9.7843 37.717 10.5375 40.1939C11.2907 42.6709 12.7987 44.8508 14.8509 46.4292L20.3934 40.8868C19.689 40.5686 19.0724 40.0843 18.5964 39.4754C18.1205 38.8665 17.7993 38.1512 17.6605 37.3909C17.5218 36.6306 17.5695 35.848 17.7997 35.1102C18.0299 34.3724 18.4357 33.7015 18.9822 33.155C19.5287 32.6085 20.1996 32.2027 20.9374 31.9725C21.6752 31.7423 22.4579 31.6946 23.2182 31.8333C23.9785 31.9721 24.6938 32.2932 25.3027 32.7692C25.9117 33.2452 26.396 33.8618 26.7142 34.5661L32.2567 29.0238C31.0934 27.503 29.594 26.2719 27.8759 25.4269C26.1578 24.5818 24.2674 24.1456 22.3527 24.1524Z" fill="#FBBC05"/>
</svg>
