<svg width="64" height="64" viewBox="0 0 64 64" fill="none" xmlns="http://www.w3.org/2000/svg">
<rect width="64" height="64" rx="8" fill="#E1E5F0"/>
<path d="M52.0248 29.2478L45.3779 25.572L39.7676 28.9959L39.6983 32.4964L36.9716 30.7005L33.2631 32.96L33.1025 29.1346L29.2771 26.5795L32.9272 24.6923C32.898 24.6923 32.9272 25.0573 32.387 12.1576L23.7544 8L12.001 11.6502L14.6254 24.2908L18.5712 27.346L15.5708 28.7696L17.5309 38.2966L20.2868 40.8846L18.3157 42.0855L19.8451 49.4516L26.0285 56C26.0577 55.9635 26.6782 55.4853 33.9821 49.6779L33.7704 44.6735L36.9023 47.3308C36.9461 47.287 37.5739 46.8234 43.3119 42.2607L43.5346 38.5594L45.8999 40.202C45.9473 40.1582 46.4766 39.7567 51.105 36.0663L52.0248 29.2478Z" fill="#231F20"/>
<path d="M46.5094 33.1861L52.0248 29.2475L45.3778 25.5718L39.7676 28.9957L46.5094 33.1861Z" fill="black"/>
<path d="M45.8999 40.1949L46.5094 33.1865L39.7676 28.9961L39.6289 35.8402L45.8999 40.1949Z" fill="#004B16"/>
<path d="M36.902 47.3237V40.0635L30.0908 34.8984L30.6274 42.0309L36.902 47.3237Z" fill="#004B16"/>
<path d="M36.902 40.0634L43.7424 35.1612L36.9713 30.7007L30.0908 34.8984L36.902 40.0634Z" fill="black"/>
<path d="M26.0272 55.9926L24.9395 48.5755L18.3145 42.0781L19.8439 49.4442L26.0272 55.9926Z" fill="#004B16"/>
<path d="M24.9395 48.5757L33.667 42.3485L26.9032 36.8403L18.3145 42.0784L24.9395 48.5757Z" fill="black"/>
<path d="M24.3744 44.7211L22.9363 34.9094L15.5557 28.7734L17.5304 38.2895L24.3744 44.7211Z" fill="#004B16"/>
<path d="M22.9363 34.9094L33.1019 29.1348L25.5096 24.0464L15.5557 28.7734L22.9363 34.9094Z" fill="black"/>
<path d="M22.2469 30.2223L20.2759 16.786L12.001 11.6538L14.6254 24.2908L22.2469 30.2223Z" fill="#004B16"/>
<path d="M20.2759 16.786L32.3724 12.1503L23.7544 8L12.001 11.6538L20.2759 16.786Z" fill="black"/>
<path d="M51.1047 36.0589C45.9872 40.1216 45.8741 40.1946 45.8996 40.1946C46.5348 32.8577 46.48 33.1862 46.5092 33.1862C52.3494 29.0068 51.9844 29.2477 52.0246 29.2477L51.1047 36.0589Z" fill="#1CB35C"/>
<path d="M43.311 42.2533C36.978 47.2905 36.8758 47.3234 36.9014 47.3234C36.8393 39.7237 36.8758 40.0632 36.9014 40.0632C44.2016 34.8434 43.7162 35.161 43.7417 35.161L43.311 42.2533Z" fill="#1CB35C"/>
<path d="M33.9814 49.6707C26.0752 55.9563 26.0022 55.9928 26.0277 55.9928C24.9071 48.3493 24.9327 48.5757 24.9327 48.5757C34.2296 41.9469 33.6419 42.3484 33.6675 42.3484L33.9814 49.6707Z" fill="#1CB35C"/>
<path d="M32.3726 12.1504C32.9274 25.0611 32.8836 24.6851 32.9128 24.6851C22.4515 30.1203 22.2215 30.2225 22.2471 30.2225C20.2322 16.4868 20.2504 16.7861 20.276 16.7861L32.3726 12.1504Z" fill="#1CB35C"/>
<path d="M33.1023 29.1348C33.5221 38.9209 33.4673 38.5815 33.5075 38.5815C24.4515 44.6663 24.3493 44.7211 24.3821 44.7211C22.9221 34.6539 22.9221 34.9094 22.944 34.9094L33.1023 29.1348Z" fill="#1CB35C"/>
</svg>
