<svg width="64" height="64" viewBox="0 0 64 64" fill="none" xmlns="http://www.w3.org/2000/svg">
<rect width="64" height="64" rx="8" fill="#E1E5F0"/>
<path d="M22.0319 29.8235L14.3691 32.6117C14.4675 33.8402 14.6789 35.0537 14.9767 36.2427L22.2549 33.5921C22.0216 32.3636 21.9383 31.0946 22.0335 29.8232" fill="#DA2430"/>
<path d="M55.8965 21.3505C55.362 20.2481 54.7439 19.1827 54.0278 18.1787L46.3672 20.9669C47.2588 21.8788 48.0064 22.9037 48.6185 23.9999L55.8967 21.35L55.8965 21.3505Z" fill="#DA2430"/>
<path d="M42.3031 21.3052C41.3392 20.4688 40.2507 19.747 39.039 19.1818H39.0385C31.9246 15.8653 23.4369 18.9508 20.1204 26.0672C19.9335 26.4687 19.7679 26.8746 19.6228 27.2836C19.2088 28.4879 18.967 29.7192 18.8745 30.9485L18.8475 30.9585C18.8468 30.9675 18.8461 30.9765 18.8454 30.9855L14.2338 32.6636L11.2663 33.7603C11.2659 33.7548 11.2655 33.7493 11.265 33.7438L11.1837 33.7735C10.8956 30.1293 11.5098 26.365 13.1624 22.8214C13.3787 22.3573 13.6094 21.9043 13.8536 21.4627C19.3013 11.316 31.6968 7.07477 42.1509 12.026C44.3146 13.0513 46.2332 14.3954 47.8801 15.9772C48.9882 17.0022 49.9771 18.1312 50.8391 19.3411L43.1781 22.1297C43.1386 22.0894 43.099 22.0493 43.0591 22.0095L43.0378 22.0173C42.8019 21.7722 42.557 21.5346 42.3031 21.3052Z" fill="#DA2430"/>
<path d="M11.6113 46.1366L11.5992 46.141C10.0052 43.8966 8.84503 41.375 8.17578 38.7211L15.4554 36.0698L15.4559 36.0703C15.4574 36.0781 15.4589 36.086 15.4604 36.0938L15.5077 36.0763L15.5088 36.0792C15.8827 38.0594 16.661 39.9483 17.7959 41.6093C18.2286 42.2268 18.712 42.8121 19.2438 43.358L19.2149 43.3686C19.2332 43.3879 19.2516 43.4071 19.27 43.4264L11.6786 46.2334C11.6561 46.2012 11.6336 46.1689 11.6113 46.1366Z" fill="#E82429"/>
<path d="M40.524 44.1775C36.5769 46.6183 31.5141 47.0898 27.0027 44.986C25.4069 44.2418 24.0165 43.2352 22.8556 42.0433L15.2109 44.8265C15.2304 44.8539 15.2499 44.8812 15.2695 44.9085L15.2657 44.9099C17.3676 47.913 20.2349 50.4231 23.7532 52.0908C31.3412 55.6839 39.9508 54.4348 46.1847 49.6C48.9762 47.5091 51.3065 44.7221 52.8808 41.3464C54.5343 37.8035 55.1449 34.0406 54.8523 30.3994L54.6394 30.4768C54.6365 30.4378 54.6336 30.3988 54.6305 30.3599L47.0387 33.1643L47.0391 33.1651C46.9182 34.8382 46.5023 36.5169 45.7628 38.1262C44.5789 40.7049 42.7321 42.7591 40.524 44.1775Z" fill="#DA2430"/>
<path d="M48.9784 23.8681L49.0922 23.8267V23.8264C50.2898 26.2906 51.0207 28.969 51.2397 31.7118L43.5948 34.4931C43.5963 34.4741 43.5976 34.4551 43.599 34.4362L43.4544 34.4896C43.6625 31.6606 43.0279 28.847 41.6855 26.4041L48.9133 23.7322L48.9136 23.7314C48.9354 23.7769 48.9569 23.8225 48.9784 23.8681Z" fill="#E82429"/>
<path d="M22.0425 29.779L14.4336 32.5908C14.5311 33.8302 14.7411 35.0539 15.0372 36.2531L22.2646 33.5797C22.0308 32.3381 21.9469 31.06 22.0455 29.7783" fill="#C22035"/>
<path d="M55.668 21.2346C55.1374 20.1231 54.5232 19.0487 53.8122 18.0361L46.2051 20.8479C47.0902 21.7678 47.8326 22.8012 48.4403 23.9069L55.6669 21.2339L55.668 21.2346Z" fill="#C22035"/>
<path d="M14.4327 32.5909L22.0231 29.8105L21.992 31.3355L14.669 34.1009L14.4316 32.5891L14.4327 32.5909Z" fill="#AC223B"/>
<path d="M46.2051 20.8245L53.9137 18.1792L54.7149 19.3883L47.225 22.0361L46.2062 20.8237L46.2051 20.8245Z" fill="#AC223B"/>
<path d="M15.2676 44.8816L22.867 42.1162L25.1654 44.2846L17.196 47.2764L15.2679 44.8809L15.2676 44.8816Z" fill="#B92135"/>
<path d="M54.7578 30.3804L47.0393 33.1637L46.4707 36.2533L54.7004 33.3203L54.7588 30.3807L54.7578 30.3804Z" fill="#B92135"/>
</svg>
