<svg width="64" height="64" viewBox="0 0 64 64" fill="none" xmlns="http://www.w3.org/2000/svg">
<rect width="64" height="64" rx="8" fill="#E1E5F0"/>
<g clip-path="url(#clip0_3269_1189)">
<path fill-rule="evenodd" clip-rule="evenodd" d="M18.0268 45.529C3.71618 40.0856 5.03227 19.7756 20.0056 16.4053C21.2306 16.131 22.9687 15.9959 25.2197 16.0001C29.5271 16.0106 33.8346 16.0116 38.142 16.0032C40.9124 15.997 42.9415 16.1425 44.2293 16.4398C59.8183 20.0269 59.9439 42.1838 44.4806 46.0316C43.3142 46.3206 41.6275 46.4671 39.4204 46.4713C33.8126 46.4776 28.2037 46.4776 22.5938 46.4713C21.2013 46.4713 19.6789 46.1572 18.0268 45.529ZM13.9026 32.0791C14.3234 36.7907 18.4602 41.0436 23.3005 41.0531C28.5817 41.0614 33.8628 41.0604 39.1439 41.0499C41.0893 41.0457 42.5373 40.8939 43.488 40.5945C52.6661 37.7047 52.4839 24.6663 43.2556 21.9021C42.353 21.632 41.1249 21.498 39.5711 21.5001C34.6585 21.5043 29.746 21.5064 24.8334 21.5064C23.0178 21.5064 21.6452 21.6498 20.7155 21.9367C16.4311 23.2685 13.5099 27.6785 13.9026 32.0791Z" fill="#E7202C"/>
</g>
<defs>
<clipPath id="clip0_3269_1189">
<rect width="48" height="48" fill="white" transform="translate(8 8)"/>
</clipPath>
</defs>
</svg>
