<svg width="64" height="64" viewBox="0 0 64 64" fill="none" xmlns="http://www.w3.org/2000/svg">
<rect width="64" height="64" rx="8" fill="#E1E5F0"/>
<g clip-path="url(#clip0_3269_12280)">
<path d="M55.9742 26.3233L55.4493 23.1951C55.2813 22.1874 54.8825 21.3687 54.5885 21.3687C54.2736 21.3687 54.0217 22.2084 54.0217 23.2161V24.0349C54.0217 25.0426 53.1819 25.8824 52.1742 25.8824H51.3555C51.2925 25.8824 51.2295 25.8824 51.1875 25.8824V28.1287C51.2505 28.1287 51.3135 28.1287 51.3555 28.1287H54.4416C55.4493 28.1287 56.1421 27.31 55.9742 26.3233Z" fill="#2453FF"/>
<path d="M48.6055 23.678H43.6299C43.5879 23.678 43.5459 23.678 43.5039 23.678H38.3813C38.3184 23.678 38.2554 23.678 38.2134 23.699V23.2161C38.2134 22.2084 37.9615 21.3687 37.6465 21.3687C37.3316 21.3687 36.9537 22.1874 36.7858 23.1951L36.2609 26.3233C36.093 27.331 36.7858 28.1497 37.8145 28.1497H40.8796C41.1946 28.1497 41.4885 28.1078 41.7614 28.0238C41.6564 28.5486 41.2155 28.9475 40.6487 28.9475H36.3449C35.6521 28.9475 35.1273 28.3177 35.2322 27.6249L35.6731 25.0006C35.7781 24.3078 35.2532 23.678 34.5604 23.678H13.1045C12.6426 23.678 12.2647 23.9509 12.0758 24.3498L8.04489 30.5011C7.98191 30.606 7.98191 30.732 8.06589 30.837L8.84267 31.7607C8.94764 31.8867 9.11559 31.8867 9.24156 31.8027L11.9918 29.6403V42.7826C11.9918 43.4124 12.4956 43.9163 13.1255 43.9163H19.2137C19.8436 43.9163 20.3474 43.4124 20.3474 42.7826V38.2059C20.3474 37.5761 20.8513 37.0722 21.4811 37.0722H36.6808C37.3106 37.0722 37.8145 37.5761 37.8145 38.2059V42.7826C37.8145 43.4124 38.3184 43.9163 38.9482 43.9163H45.0365C45.6663 43.9163 46.1701 43.4124 46.1701 42.7826V37.87H42.9371C41.9293 37.87 41.0896 37.0302 41.0896 36.0225V32.8524C41.0896 32.2436 41.3835 31.7187 41.8244 31.3828V35.1618C41.8244 36.1695 42.6641 37.0092 43.6718 37.0092H48.6474C49.6552 37.0092 50.4949 36.1695 50.4949 35.1618V25.5465C50.4529 24.4968 49.6342 23.678 48.6055 23.678Z" fill="#2453FF"/>
</g>
<defs>
<clipPath id="clip0_3269_12280">
<rect width="48" height="48" fill="white" transform="translate(8 8)"/>
</clipPath>
</defs>
</svg>
