<svg width="16" height="16" viewBox="0 0 16 16" fill="none" xmlns="http://www.w3.org/2000/svg">
<path d="M7.9987 7.33398V10.0007M9.33203 8.66732H6.66536M10.6654 4.00065V2.66732C10.6654 2.3137 10.5249 1.97456 10.2748 1.72451C10.0248 1.47446 9.68565 1.33398 9.33203 1.33398H6.66536C6.31174 1.33398 5.9726 1.47446 5.72256 1.72451C5.47251 1.97456 5.33203 2.3137 5.33203 2.66732V4.00065M11.9987 4.00065V13.334M3.9987 4.00065V13.334M2.66536 4.00065H13.332C14.0684 4.00065 14.6654 4.5976 14.6654 5.33398V12.0007C14.6654 12.737 14.0684 13.334 13.332 13.334H2.66536C1.92898 13.334 1.33203 12.737 1.33203 12.0007V5.33398C1.33203 4.5976 1.92898 4.00065 2.66536 4.00065Z" stroke="#8547FF" stroke-width="1.33333" stroke-linecap="round" stroke-linejoin="round"/>
</svg>
