<svg preserveAspectRatio="none" width="100%" height="100%" overflow="visible" style="display: block;" viewBox="0 0 100 37.1932" fill="none" xmlns="http://www.w3.org/2000/svg">
<path id="Vector" fill-rule="evenodd" clip-rule="evenodd" d="M77.1386 9.14125V16.9683H74.345V4.85164H77.1386V6.38069H77.2791C77.8246 5.38887 78.7999 4.61195 80.5521 4.61195C83.0151 4.61195 84.2962 6.1658 84.2962 8.66187V16.9766H81.5026V8.6784C81.5026 7.24853 80.9323 6.3063 79.4859 6.3063C78.0395 6.3063 77.1386 7.34771 77.1386 9.14125ZM64.0714 10.91C64.0714 14.1086 65.088 15.8773 66.9146 15.8773C68.733 15.8773 69.7578 14.1334 69.7578 10.91C69.7578 7.68658 68.7412 5.94264 66.9146 5.94264C65.088 5.94264 64.0714 7.71138 64.0714 10.91ZM72.692 10.91C72.692 14.3731 70.6339 17.2163 66.9146 17.2163C63.1953 17.2163 61.1373 14.3814 61.1373 10.91C61.1373 7.44689 63.1953 4.60369 66.9146 4.60369C70.6339 4.60369 72.692 7.44689 72.692 10.91ZM59.9719 13.2656C59.9719 15.6872 58.2445 17.2163 55.0459 17.2163C52.1779 17.2163 50.2851 15.9352 50.1446 13.8441L52.6572 13.1168C52.9135 15.1252 53.7482 15.9269 55.3517 15.9269C56.8477 15.9269 57.699 15.2244 57.699 13.9846C57.699 12.968 57.1287 12.5052 55.8807 12.1911L53.5086 11.5877C51.9878 11.1993 50.6405 10.1083 50.6405 8.09984C50.6405 5.72775 52.5333 4.61195 55.1616 4.61195C57.7899 4.61195 59.4264 5.80213 59.7074 7.49649L57.3353 8.22382C57.2196 6.69477 56.3435 5.89305 54.9219 5.89305C53.7152 5.89305 52.9135 6.47987 52.9135 7.4469C52.9135 8.22382 53.4094 8.75279 54.55 9.05033L56.8229 9.62889C58.4346 10.0422 59.9719 10.9844 59.9719 13.2656ZM41.6646 9.14125V16.9683H38.871V4.85164H41.6646V6.38069H41.8051C42.3506 5.38887 43.3259 4.61195 45.0698 4.61195C47.5329 4.61195 48.814 6.1658 48.814 8.66187V16.9766H46.0286V8.6784C46.0286 7.24853 45.4583 6.3063 44.0119 6.3063C42.5655 6.3063 41.6646 7.34771 41.6646 9.14125ZM29.4735 9.14125V16.9683H26.6799V0H29.4735V6.37243H29.614C30.1595 5.38061 31.1348 4.60369 32.8787 4.60369C35.3418 4.60369 36.6229 6.15753 36.6229 8.65361V16.9683H33.8292V8.6784C33.8292 7.24853 33.2589 6.3063 31.8208 6.3063C30.3744 6.3063 29.4735 7.34771 29.4735 9.14125ZM16.398 10.91C16.398 14.1086 17.4147 15.8773 19.2413 15.8773C21.0596 15.8773 22.0845 14.1334 22.0845 10.91C22.0845 7.68658 21.0679 5.94264 19.2413 5.94264C17.4229 5.93437 16.398 7.70311 16.398 10.91ZM25.0186 10.91C25.0186 14.3731 22.9606 17.2163 19.2413 17.2163C15.5219 17.2163 13.4639 14.3814 13.4639 10.91C13.4639 7.44689 15.5219 4.60369 19.2413 4.60369C22.9606 4.61195 25.0186 7.44689 25.0186 10.91ZM11.8026 11.7613C11.8026 14.9351 10.2653 17.3568 6.30631 17.3568C2.3473 17.3568 0.809984 14.9351 0.809984 11.7613V10.7199L3.74411 9.96776V12.2985C3.74411 14.5053 4.50451 15.7864 6.29804 15.7864C8.09984 15.7864 8.85197 14.5715 8.85197 12.5382V0H11.7861V11.7613H11.8026ZM92.8341 36.8047V29.1512C92.8341 27.399 93.735 26.3741 95.1814 26.3741C96.6278 26.3741 97.1981 27.2998 97.1981 28.6966V36.8047H100V28.6718C100 26.2336 98.7189 24.7128 96.2559 24.7128C94.5037 24.7128 93.5284 25.4732 92.9829 26.4402H92.8424V24.9442H90.0405V36.7964H92.8341V36.8047ZM79.7504 30.8786C79.7504 34.0111 80.767 35.7385 82.5936 35.7385C84.4202 35.7385 85.4368 34.0276 85.4368 30.8786C85.4368 27.7213 84.4202 26.0187 82.5936 26.0187C80.767 26.0187 79.7504 27.7461 79.7504 30.8786ZM88.3792 30.8868C88.3792 34.2756 86.3129 37.0526 82.5936 37.0526C78.8743 37.0526 76.808 34.2756 76.808 30.8868C76.808 27.4981 78.8743 24.7211 82.5936 24.7211C86.3129 24.7211 88.3792 27.4981 88.3792 30.8868ZM75.6509 33.1846C75.6509 35.5567 73.9152 37.0526 70.7166 37.0526C67.8486 37.0526 65.9559 35.7963 65.8071 33.7549L68.3197 33.0441C68.5759 35.0112 69.4107 35.7963 71.0224 35.7963C72.5184 35.7963 73.3697 35.1103 73.3697 33.8954C73.3697 32.8953 72.7994 32.449 71.5431 32.1431L69.171 31.5481C67.6502 31.1679 66.303 30.1017 66.303 28.1346C66.303 25.812 68.1957 24.7211 70.8323 24.7211C73.4689 24.7211 75.0971 25.8864 75.3864 27.5395L73.0143 28.2503C72.8986 26.7543 72.0225 25.9774 70.6009 25.9774C69.3942 25.9774 68.5842 26.5476 68.5842 27.4981C68.5842 28.2585 69.0801 28.7792 70.2207 29.0603L72.4936 29.6305C74.1053 30.0273 75.6509 30.953 75.6509 33.1846ZM57.3188 29.1512V36.813H54.5169V24.9525H57.3188V26.4485H57.4593C58.0048 25.4732 58.9801 24.7211 60.7323 24.7211C63.1953 24.7211 64.4764 26.2418 64.4764 28.6801V36.813H61.6745V28.7049C61.6745 27.308 61.1042 26.3823 59.6578 26.3823C58.2197 26.3741 57.3188 27.3907 57.3188 29.1512ZM45.1112 29.1512V36.813H42.3093V20.2083H45.1112V26.4485H45.2517C45.7972 25.4732 46.7725 24.7211 48.5247 24.7211C50.9877 24.7211 52.2688 26.2418 52.2688 28.6801V36.813H49.4669V28.7049C49.4669 27.308 48.8966 26.3823 47.4502 26.3823C46.0121 26.3741 45.1112 27.3907 45.1112 29.1512ZM32.0274 30.8786C32.0274 34.0111 33.044 35.7385 34.8706 35.7385C36.6972 35.7385 37.7139 34.0276 37.7139 30.8786C37.7139 27.7296 36.6972 26.0187 34.8706 26.0187C33.044 26.0187 32.0274 27.7461 32.0274 30.8786ZM40.6562 30.8786C40.6562 34.2673 38.59 37.0444 34.8706 37.0444C31.1513 37.0444 29.0851 34.2673 29.0851 30.8786C29.0851 27.4899 31.1513 24.7128 34.8706 24.7128C38.59 24.721 40.6562 27.4899 40.6562 30.8786ZM27.4238 31.7134C27.4238 34.8211 25.8864 37.1932 21.9192 37.1932C17.9602 37.1932 16.4146 34.8211 16.4146 31.7134V30.6967L19.357 29.9612V32.2341C19.357 34.3913 20.1174 35.6476 21.9192 35.6476C23.721 35.6476 24.4814 34.4657 24.4814 32.4738V20.2165H27.4238V31.7134ZM2.60352 31.6472C2.60352 33.6143 4.00033 35.4657 6.28151 35.4657C7.29812 35.4657 8.41392 35.0855 9.414 34.4905L4.05819 28.6387C3.14902 29.2751 2.60352 30.4157 2.60352 31.6472ZM12.2489 30.0107C12.2489 28.0932 11.067 26.9774 9.14125 26.9774C8.47177 26.9774 7.67006 27.0931 6.84354 27.4238L11.4886 32.5481C12.0093 31.7382 12.2489 30.8621 12.2489 30.0107ZM8.50483 23.3656C8.50483 21.8944 7.67832 21.0927 6.27324 21.0927C4.90123 21.0927 4.02513 21.8778 4.02513 23.2499C4.02513 23.9855 4.28135 24.5971 5.19051 25.5972L6.20712 26.7377C7.84362 26.0021 8.50483 24.7211 8.50483 23.3656ZM14.2408 28.7296C14.2408 30.176 13.5052 31.8373 12.2242 33.3499L15.2575 36.689V36.8047H11.5381L10.1165 35.2674C8.35606 36.4989 6.41375 37.1849 4.76072 37.1849C1.86792 37.1849 0 35.1434 0 32.7052C0 30.8538 1.0662 29.052 3.38871 27.9362L3.36391 27.8866C1.9919 26.3906 1.46293 25.1591 1.46293 23.9276C1.46293 21.6547 3.07463 19.8281 6.34763 19.8281C9.19084 19.8281 10.8025 21.2497 10.8025 23.0515C10.8025 24.3078 10.0422 25.2087 8.24035 26.184L8.28994 26.2749C9.02554 25.9939 10.1413 25.7046 11.1332 25.7046C13.0259 25.7211 14.2408 26.9278 14.2408 28.7296Z" fill="var(--fill-0, #111824)"/>
</svg>
