<svg width="120" height="64" viewBox="0 0 120 64" fill="none" xmlns="http://www.w3.org/2000/svg">
<path fill-rule="evenodd" clip-rule="evenodd" d="M87.1386 22.1412V29.9683H84.345V17.8516H87.1386V19.3807H87.2791C87.8246 18.3889 88.7999 17.6119 90.5521 17.6119C93.0151 17.6119 94.2962 19.1658 94.2962 21.6619V29.9766H91.5026V21.6784C91.5026 20.2485 90.9323 19.3063 89.4859 19.3063C88.0395 19.3063 87.1386 20.3477 87.1386 22.1412ZM74.0714 23.91C74.0714 27.1086 75.088 28.8773 76.9146 28.8773C78.733 28.8773 79.7578 27.1334 79.7578 23.91C79.7578 20.6866 78.7412 18.9426 76.9146 18.9426C75.088 18.9426 74.0714 20.7114 74.0714 23.91ZM82.692 23.91C82.692 27.3731 80.6339 30.2163 76.9146 30.2163C73.1953 30.2163 71.1373 27.3814 71.1373 23.91C71.1373 20.4469 73.1953 17.6037 76.9146 17.6037C80.6339 17.6037 82.692 20.4469 82.692 23.91ZM69.9719 26.2656C69.9719 28.6872 68.2445 30.2163 65.0459 30.2163C62.1779 30.2163 60.2851 28.9352 60.1446 26.8441L62.6572 26.1168C62.9135 28.1252 63.7482 28.9269 65.3517 28.9269C66.8477 28.9269 67.699 28.2244 67.699 26.9846C67.699 25.968 67.1287 25.5052 65.8807 25.1911L63.5086 24.5877C61.9878 24.1993 60.6405 23.1083 60.6405 21.0998C60.6405 18.7277 62.5333 17.6119 65.1616 17.6119C67.7899 17.6119 69.4264 18.8021 69.7074 20.4965L67.3353 21.2238C67.2196 19.6948 66.3435 18.893 64.9219 18.893C63.7152 18.893 62.9135 19.4799 62.9135 20.4469C62.9135 21.2238 63.4094 21.7528 64.55 22.0503L66.8229 22.6289C68.4346 23.0422 69.9719 23.9844 69.9719 26.2656ZM51.6646 22.1412V29.9683H48.871V17.8516H51.6646V19.3807H51.8051C52.3506 18.3889 53.3259 17.6119 55.0698 17.6119C57.5329 17.6119 58.8139 19.1658 58.8139 21.6619V29.9766H56.0286V21.6784C56.0286 20.2485 55.4583 19.3063 54.0119 19.3063C52.5655 19.3063 51.6646 20.3477 51.6646 22.1412ZM39.4735 22.1412V29.9683H36.6799V13H39.4735V19.3724H39.614C40.1595 18.3806 41.1348 17.6037 42.8787 17.6037C45.3418 17.6037 46.6229 19.1575 46.6229 21.6536V29.9683H43.8292V21.6784C43.8292 20.2485 43.2589 19.3063 41.8208 19.3063C40.3744 19.3063 39.4735 20.3477 39.4735 22.1412ZM26.398 23.91C26.398 27.1086 27.4147 28.8773 29.2413 28.8773C31.0596 28.8773 32.0845 27.1334 32.0845 23.91C32.0845 20.6866 31.0679 18.9426 29.2413 18.9426C27.4229 18.9344 26.398 20.7031 26.398 23.91ZM35.0186 23.91C35.0186 27.3731 32.9606 30.2163 29.2413 30.2163C25.5219 30.2163 23.4639 27.3814 23.4639 23.91C23.4639 20.4469 25.5219 17.6037 29.2413 17.6037C32.9606 17.612 35.0186 20.4469 35.0186 23.91ZM21.8026 24.7613C21.8026 27.9351 20.2653 30.3568 16.3063 30.3568C12.3473 30.3568 10.81 27.9351 10.81 24.7613V23.7199L13.7441 22.9678V25.2985C13.7441 27.5053 14.5045 28.7864 16.298 28.7864C18.0998 28.7864 18.852 27.5715 18.852 25.5382V13H21.7861V24.7613H21.8026ZM102.834 49.8047V42.1512C102.834 40.399 103.735 39.3741 105.181 39.3741C106.628 39.3741 107.198 40.2998 107.198 41.6966V49.8047H110V41.6718C110 39.2336 108.719 37.7128 106.256 37.7128C104.504 37.7128 103.528 38.4732 102.983 39.4402H102.842V37.9442H100.04V49.7964H102.834V49.8047ZM89.7504 43.8786C89.7504 47.0111 90.767 48.7385 92.5936 48.7385C94.4202 48.7385 95.4368 47.0276 95.4368 43.8786C95.4368 40.7213 94.4202 39.0187 92.5936 39.0187C90.767 39.0187 89.7504 40.7461 89.7504 43.8786ZM98.3792 43.8869C98.3792 47.2756 96.3129 50.0526 92.5936 50.0526C88.8743 50.0526 86.808 47.2756 86.808 43.8869C86.808 40.4981 88.8743 37.7211 92.5936 37.7211C96.3129 37.7211 98.3792 40.4981 98.3792 43.8869ZM85.6509 46.1846C85.6509 48.5567 83.9152 50.0526 80.7166 50.0526C77.8486 50.0526 75.9559 48.7963 75.8071 46.7549L78.3197 46.0441C78.5759 48.0112 79.4107 48.7963 81.0224 48.7963C82.5184 48.7963 83.3697 48.1103 83.3697 46.8954C83.3697 45.8953 82.7994 45.449 81.5431 45.1432L79.171 44.5481C77.6502 44.1679 76.303 43.1017 76.303 41.1346C76.303 38.812 78.1957 37.7211 80.8323 37.7211C83.4689 37.7211 85.0971 38.8864 85.3864 40.5395L83.0143 41.2503C82.8986 39.7543 82.0225 38.9774 80.6009 38.9774C79.3942 38.9774 78.5842 39.5476 78.5842 40.4981C78.5842 41.2585 79.0801 41.7792 80.2207 42.0603L82.4936 42.6305C84.1053 43.0273 85.6509 43.953 85.6509 46.1846ZM67.3188 42.1512V49.813H64.5169V37.9525H67.3188V39.4485H67.4593C68.0048 38.4732 68.9801 37.7211 70.7323 37.7211C73.1953 37.7211 74.4764 39.2418 74.4764 41.6801V49.813H71.6745V41.7049C71.6745 40.308 71.1042 39.3823 69.6578 39.3823C68.2197 39.3741 67.3188 40.3907 67.3188 42.1512ZM55.1112 42.1512V49.813H52.3093V33.2083H55.1112V39.4485H55.2517C55.7972 38.4732 56.7725 37.7211 58.5247 37.7211C60.9877 37.7211 62.2688 39.2418 62.2688 41.6801V49.813H59.4669V41.7049C59.4669 40.308 58.8966 39.3823 57.4502 39.3823C56.0121 39.3741 55.1112 40.3907 55.1112 42.1512ZM42.0274 43.8786C42.0274 47.0111 43.044 48.7385 44.8706 48.7385C46.6972 48.7385 47.7139 47.0276 47.7139 43.8786C47.7139 40.7296 46.6972 39.0187 44.8706 39.0187C43.044 39.0187 42.0274 40.7461 42.0274 43.8786ZM50.6562 43.8786C50.6562 47.2673 48.59 50.0444 44.8706 50.0444C41.1513 50.0444 39.0851 47.2673 39.0851 43.8786C39.0851 40.4899 41.1513 37.7128 44.8706 37.7128C48.59 37.7211 50.6562 40.4899 50.6562 43.8786ZM37.4238 44.7134C37.4238 47.8211 35.8864 50.1932 31.9192 50.1932C27.9602 50.1932 26.4146 47.8211 26.4146 44.7134V43.6967L29.357 42.9612V45.2341C29.357 47.3913 30.1174 48.6476 31.9192 48.6476C33.721 48.6476 34.4814 47.4657 34.4814 45.4738V33.2165H37.4238V44.7134ZM12.6035 44.6472C12.6035 46.6143 14.0003 48.4657 16.2815 48.4657C17.2981 48.4657 18.4139 48.0855 19.414 47.4905L14.0582 41.6387C13.149 42.2751 12.6035 43.4157 12.6035 44.6472ZM22.2489 43.0107C22.2489 41.0932 21.067 39.9774 19.1413 39.9774C18.4718 39.9774 17.6701 40.0931 16.8435 40.4238L21.4886 45.5481C22.0093 44.7382 22.2489 43.8621 22.2489 43.0107ZM18.5048 36.3656C18.5048 34.8944 17.6783 34.0927 16.2732 34.0927C14.9012 34.0927 14.0251 34.8778 14.0251 36.2499C14.0251 36.9855 14.2813 37.5971 15.1905 38.5972L16.2071 39.7377C17.8436 39.0021 18.5048 37.7211 18.5048 36.3656ZM24.2408 41.7296C24.2408 43.176 23.5052 44.8373 22.2241 46.3499L25.2575 49.689V49.8047H21.5381L20.1165 48.2674C18.3561 49.4989 16.4138 50.1849 14.7607 50.1849C11.8679 50.1849 10 48.1434 10 45.7052C10 43.8538 11.0662 42.052 13.3887 40.9362L13.3639 40.8866C11.9919 39.3906 11.4629 38.1591 11.4629 36.9276C11.4629 34.6547 13.0746 32.8281 16.3476 32.8281C19.1908 32.8281 20.8025 34.2497 20.8025 36.0515C20.8025 37.3078 20.0422 38.2087 18.2403 39.184L18.2899 39.2749C19.0255 38.9939 20.1413 38.7046 21.1332 38.7046C23.0259 38.7211 24.2408 39.9278 24.2408 41.7296Z" fill="#111824"/>
</svg>
