<svg width="120" height="64" viewBox="0 0 120 64" fill="none" xmlns="http://www.w3.org/2000/svg">
<path fill-rule="evenodd" clip-rule="evenodd" d="M2.32788 34.4392V29.4951H5.20369C5.59703 29.4951 5.92981 29.5524 6.20723 29.6618C6.48986 29.7712 6.69565 29.921 6.84087 30.1112C6.97958 30.3013 7.04797 30.5084 7.04797 30.7396C7.04797 31.2235 6.76077 31.5693 6.17792 31.7763C6.51721 31.8805 6.79985 32.0127 7.02517 32.1801C7.24919 32.3416 7.35989 32.6125 7.35989 32.9805C7.35989 33.2455 7.27328 33.4936 7.10071 33.7124C6.93269 33.9371 6.68002 34.1097 6.34008 34.2425C6.00535 34.3747 5.60224 34.4386 5.14183 34.4386L2.32788 34.4392ZM3.21094 30.0649V31.5862H4.80058C5.25058 31.5862 5.59052 31.5289 5.8204 31.4077C6.05093 31.286 6.1662 31.0789 6.1662 30.7852C6.1662 30.5488 6.062 30.3703 5.8497 30.2492C5.6361 30.1281 5.2903 30.0649 4.81165 30.0649H3.21094ZM3.21094 32.1339V33.8681H5.09494C5.54363 33.8681 5.89138 33.7873 6.12648 33.6258C6.23765 33.5555 6.32852 33.4573 6.39008 33.341C6.45165 33.2247 6.48178 33.0944 6.47749 32.9629C6.47749 32.41 5.97149 32.1332 4.95102 32.1332L3.21094 32.1339Z" fill="#161E33"/>
<path fill-rule="evenodd" clip-rule="evenodd" d="M12.8217 32.998H10.2005L9.52131 34.4386H8.6109L11.066 29.4945H12.0683L14.4303 34.4386H13.4684L12.8217 32.998ZM10.4708 32.4106H12.4994L11.5362 30.2323H11.5199L10.4708 32.4106Z" fill="#161E33"/>
<path d="M18.0198 32.4452V34.4392H17.138V32.4452L14.6719 29.4951H15.6975L17.5757 31.8695L19.4479 29.4951H20.486L18.0198 32.4452Z" fill="#161E33"/>
<path d="M26.3633 33.8453V34.4392H21.5468V29.4951H26.3001V30.0884H22.4279V31.5979H25.9999V32.1918H22.4279V33.8453H26.3633Z" fill="#161E33"/>
<path fill-rule="evenodd" clip-rule="evenodd" d="M28.737 32.3195V34.4392H27.8553V29.4951H30.875C31.4969 29.4951 32.0107 29.5928 32.4138 29.8005C32.8169 30.0024 33.0195 30.3423 33.0195 30.8269C33.0195 31.1492 32.9381 31.3967 32.7701 31.5699C32.6033 31.7425 32.3845 31.8871 32.1084 32.0075C32.3565 32.0883 32.546 32.1808 32.673 32.3012C32.8052 32.4165 32.8801 32.6294 32.8918 32.9355L32.9491 33.8342C32.9491 33.9788 32.9719 34.0823 33.0188 34.1455C33.0585 34.2087 33.1445 34.2725 33.2767 34.3305V34.4399H32.1944C32.1473 34.3176 32.116 34.1898 32.1012 34.0595C32.0779 33.9009 32.0627 33.7411 32.0557 33.5809C32.0452 33.4546 32.0394 33.328 32.0381 33.2012C32.0381 32.9362 31.9645 32.7232 31.8075 32.5617C31.6578 32.4002 31.3406 32.3195 30.8737 32.3195H28.737ZM28.737 30.0649V31.7418H30.7838C31.1759 31.7418 31.4976 31.6845 31.747 31.5693C31.9886 31.4481 32.1097 31.2235 32.1097 30.8952C32.1097 30.3417 31.7229 30.0656 30.9395 30.0656L28.737 30.0649Z" fill="#161E33"/>
<path fill-rule="evenodd" clip-rule="evenodd" d="M15.1557 22.1942V17.2495H18.0315C18.4236 17.2495 18.7576 17.3074 19.0403 17.4168C19.3164 17.5262 19.5248 17.676 19.6687 17.8662C19.8061 18.0563 19.881 18.2634 19.881 18.4946C19.881 18.9785 19.5873 19.3243 19.0058 19.5314C19.3503 19.6349 19.6277 19.7678 19.8517 19.9351C20.077 20.096 20.1864 20.3675 20.1864 20.7355C20.1864 21.0064 20.0998 21.2486 19.9331 21.4674C19.7599 21.6921 19.5072 21.8653 19.1673 21.9975C18.8325 22.1304 18.4294 22.1936 17.9677 22.1936L15.1557 22.1942ZM16.0368 17.8206V19.3412H17.633C18.0771 19.3412 18.4177 19.2839 18.6482 19.1628C18.8788 19.0416 18.9992 18.8345 18.9992 18.5461C18.9992 18.3038 18.8898 18.1254 18.6762 18.0042C18.4639 17.8831 18.1181 17.8199 17.6395 17.8199L16.0368 17.8206ZM16.0368 19.8889V21.6231H17.9221C18.3708 21.6231 18.7173 21.543 18.9537 21.3815C19.0648 21.3111 19.1557 21.2129 19.2173 21.0967C19.2788 20.9804 19.309 20.85 19.3047 20.7185C19.3047 20.1657 18.7974 19.8889 17.7782 19.8889H16.0368Z" fill="#161E33"/>
<path fill-rule="evenodd" clip-rule="evenodd" d="M18.8605 27.0113H16.2452L15.5582 28.446H14.6491L17.1042 23.5019H18.1064L20.4684 28.446H19.5066L18.8605 27.0113ZM16.5148 26.4174H18.5434L17.5757 24.2391H17.5639L16.5148 26.4174Z" fill="#161E33"/>
<path d="M20.0536 40.155V40.7483H15.2365V35.8042H19.9898V36.3922H16.1182V37.9076H19.6908V38.5015H16.1182V40.155H20.0536Z" fill="#161E33"/>
<path fill-rule="evenodd" clip-rule="evenodd" d="M15.9619 45.0353V47.1622H15.0815V42.2181H18.0999C18.7231 42.2181 19.2356 42.3158 19.6388 42.517C20.0419 42.7247 20.2444 43.0647 20.2444 43.5427C20.2444 43.8716 20.163 44.119 19.9963 44.2916C19.8348 44.4655 19.6094 44.6087 19.3333 44.7299C19.5814 44.8048 19.7709 44.9031 19.9031 45.0236C20.0301 45.1395 20.1057 45.3518 20.1167 45.6579L20.1754 46.5572C20.1754 46.7011 20.1982 46.8047 20.2437 46.8685C20.2835 46.9317 20.3694 46.9896 20.5016 47.0463V47.1622H19.4193C19.3722 47.0397 19.3409 46.9117 19.3262 46.7812C19.3028 46.6228 19.2876 46.4632 19.2806 46.3032C19.2705 46.1767 19.265 46.0498 19.2643 45.9229C19.2643 45.6585 19.1894 45.4449 19.0331 45.2841C18.8833 45.1226 18.5727 45.0359 18.0993 45.0359L15.9619 45.0353ZM15.9619 42.7886V44.4655H18.0087C18.4053 44.4655 18.7238 44.4075 18.9719 44.2864C19.2135 44.1711 19.3346 43.9471 19.3346 43.6124C19.3346 43.0647 18.9491 42.7886 18.1644 42.7886H15.9619Z" fill="#161E33"/>
<path fill-rule="evenodd" clip-rule="evenodd" d="M0 32.1052C0 22.4084 7.87323 14.5352 17.5694 14.5352C27.2735 14.5352 35.1401 22.4079 35.1401 32.1052C35.1401 41.8026 27.2735 49.6746 17.5694 49.6746C7.87325 49.6746 0 41.802 0 32.1052ZM17.5694 15.5967C8.4595 15.5967 1.0615 22.9946 1.0615 32.1052C1.0615 41.2158 8.45948 48.6131 17.5694 48.6131C26.6871 48.6131 34.0786 41.2165 34.0786 32.1052C34.0786 22.9939 26.687 15.5967 17.5694 15.5967Z" fill="#161E33"/>
<path fill-rule="evenodd" clip-rule="evenodd" d="M50.2987 41.7974H40.0706V18.029H50.5345C54.966 18.029 57.2532 20.7772 57.2532 24.0216C57.2532 25.5773 56.6885 27.7609 54.0726 28.9826L54.1065 28.9964C55.6679 29.6321 58.3772 30.7352 58.3772 34.7791C58.3772 38.5882 55.5652 41.7974 50.2987 41.7974ZM49.1115 20.7765H43.2798V28.0891H49.077C52.1541 28.0891 54.0439 27.1611 54.0439 24.2508C54.0439 22.0327 52.6842 20.7765 49.1115 20.7765ZM49.6071 30.7051H43.2798V39.0486H50.1372C53.4793 39.0486 55.1679 37.36 55.1679 34.7095C55.1679 31.3674 52.2231 30.7051 49.6071 30.7051Z" fill="#161E33"/>
<path fill-rule="evenodd" clip-rule="evenodd" d="M67.7008 26.4005C64.3932 26.4005 63.9263 28.4232 63.7302 29.7484H61.0517C61.1839 25.6053 63.9269 23.9857 68.2022 23.9857C69.5906 23.9857 74.6213 24.3836 74.6213 28.8204V38.7842C74.6213 39.5103 74.9847 39.8105 75.5838 39.8105C75.8489 39.8105 76.2123 39.746 76.5405 39.6777V41.798C76.4215 41.8299 76.3066 41.8654 76.1915 41.9009C75.8264 42.0136 75.4594 42.1269 74.9554 42.1269C72.3681 42.1269 71.9702 40.8062 71.8725 39.4816C70.7491 40.7033 68.9915 42.293 65.6149 42.293C62.4395 42.293 60.1869 40.2761 60.1869 37.2916C60.1869 35.8393 60.6193 32.4627 65.4534 31.8636L70.2536 31.2697C70.9452 31.2007 71.7748 30.9356 71.7748 29.2183C71.7748 27.3969 70.4496 26.4005 67.7008 26.4005ZM66.3469 39.8776C69.0605 39.8776 71.711 38.1212 71.711 35.8042V32.9577C71.2447 33.321 70.5186 33.5861 66.9056 34.053C65.4879 34.2484 63.2008 34.6802 63.2008 36.8644C63.2008 38.749 64.1626 39.8776 66.3469 39.8776Z" fill="#161E33"/>
<path d="M83.8127 37.2564H83.8818L88.5999 24.4807H91.8671C91.6013 25.1432 91.3362 25.8057 91.071 26.4682C89.2835 30.9341 87.496 35.4 85.5287 39.8659C82.7343 46.2218 82.4289 46.5793 78.6199 46.5793C78.2609 46.5793 77.9715 46.5018 77.6182 46.407C77.5408 46.3863 77.4603 46.3647 77.3754 46.3429V43.9406C77.744 44.0617 78.3489 44.2115 79.1617 44.2115C80.7099 44.2115 80.8786 43.8255 82.292 40.5916L82.2967 40.5809L75.7564 24.4813H79.1278L83.8127 37.2564Z" fill="#161E33"/>
<path fill-rule="evenodd" clip-rule="evenodd" d="M100.748 39.7747C103.496 39.7747 105.116 37.6602 105.213 36.3694H108.13C108.033 37.1932 107.237 39.6484 105.053 41.0999C104.258 41.63 103.129 42.293 100.351 42.293C95.482 42.293 92.601 38.6168 92.601 33.6213C92.601 28.2571 95.1877 23.9864 100.91 23.9864C105.911 23.9864 108.359 27.9569 108.359 34.0823H95.7119C95.7119 37.6953 97.3999 39.7747 100.748 39.7747ZM100.511 26.6024C97.8316 26.6024 95.7113 29.0855 95.7113 31.7653H105.345C105.179 29.0855 104.054 26.6024 100.511 26.6024Z" fill="#161E33"/>
<path d="M118.905 27.0979C116.19 27.0979 114.473 29.2183 114.473 31.7308L114.474 41.798H111.558V24.4826H114.307V27.3636H114.375C115.528 25.3409 117.055 23.9864 119.239 23.9864C119.603 23.9864 119.769 24.0216 120 24.0847V27.0979H118.905Z" fill="#161E33"/>
</svg>
