<svg preserveAspectRatio="none" width="100%" height="100%" overflow="visible" style="display: block;" viewBox="0 0 120 35.1395" fill="none" xmlns="http://www.w3.org/2000/svg">
<g id="Vector">
<path fill-rule="evenodd" clip-rule="evenodd" d="M2.32788 19.9041V14.9599H5.20369C5.59703 14.9599 5.92981 15.0173 6.20723 15.1267C6.48987 15.2361 6.69565 15.3858 6.84087 15.576C6.97958 15.7662 7.04797 15.9733 7.04797 16.2044C7.04797 16.6883 6.76077 17.0341 6.17792 17.2412C6.51721 17.3454 6.79985 17.4776 7.02517 17.6449C7.24919 17.8065 7.35989 18.0774 7.35989 18.4453C7.35989 18.7104 7.27328 18.9585 7.10071 19.1773C6.93269 19.402 6.68002 19.5745 6.34008 19.7074C6.00535 19.8396 5.60224 19.9034 5.14183 19.9034L2.32788 19.9041ZM3.21094 15.5298V17.051H4.80058C5.25058 17.051 5.59052 16.9937 5.8204 16.8726C6.05093 16.7508 6.1662 16.5437 6.1662 16.25C6.1662 16.0136 6.062 15.8352 5.8497 15.7141C5.6361 15.5929 5.2903 15.5298 4.81165 15.5298H3.21094ZM3.21094 17.5987V19.3329H5.09494C5.54363 19.3329 5.89138 19.2522 6.12648 19.0907C6.23765 19.0203 6.32852 18.9221 6.39008 18.8058C6.45165 18.6896 6.48178 18.5592 6.47749 18.4277C6.47749 17.8748 5.97149 17.5981 4.95102 17.5981L3.21094 17.5987Z" fill="var(--fill-0, #161E33)"/>
<path fill-rule="evenodd" clip-rule="evenodd" d="M12.8217 18.4629H10.2005L9.52131 19.9034H8.6109L11.066 14.9593H12.0683L14.4303 19.9034H13.4684L12.8217 18.4629ZM10.4708 17.8755H12.4994L11.5362 15.6971H11.5199L10.4708 17.8755Z" fill="var(--fill-0, #161E33)"/>
<path d="M18.0198 17.91V19.9041H17.138V17.91L14.6719 14.9599H15.6975L17.5757 17.3343L19.4479 14.9599H20.486L18.0198 17.91Z" fill="var(--fill-0, #161E33)"/>
<path d="M26.3633 19.3101V19.9041H21.5468V14.9599H26.3001V15.5532H22.4279V17.0628H25.9999V17.6567H22.4279V19.3101H26.3633Z" fill="var(--fill-0, #161E33)"/>
<path fill-rule="evenodd" clip-rule="evenodd" d="M28.737 17.7843V19.9041H27.8553V14.9599H30.875C31.4969 14.9599 32.0107 15.0576 32.4138 15.2654C32.8169 15.4673 33.0195 15.8072 33.0195 16.2917C33.0195 16.6141 32.9381 16.8615 32.7701 17.0347C32.6033 17.2073 32.3845 17.3519 32.1084 17.4724C32.3565 17.5531 32.546 17.6456 32.673 17.7661C32.8052 17.8813 32.8801 18.0943 32.8918 18.4004L32.9491 19.2991C32.9491 19.4436 32.9719 19.5472 33.0188 19.6103C33.0585 19.6735 33.1445 19.7373 33.2767 19.7953V19.9047H32.1944C32.1473 19.7824 32.116 19.6546 32.1012 19.5244C32.0779 19.3657 32.0627 19.206 32.0557 19.0457C32.0452 18.9194 32.0394 18.7928 32.0381 18.6661C32.0381 18.401 31.9645 18.1881 31.8075 18.0266C31.6578 17.8651 31.3406 17.7843 30.8737 17.7843H28.737ZM28.737 15.5298V17.2067H30.7838C31.1759 17.2067 31.4976 17.1494 31.747 17.0341C31.9886 16.913 32.1097 16.6883 32.1097 16.3601C32.1097 15.8065 31.7229 15.5304 30.9395 15.5304L28.737 15.5298Z" fill="var(--fill-0, #161E33)"/>
<path fill-rule="evenodd" clip-rule="evenodd" d="M15.1557 7.65906V2.71431H18.0315C18.4236 2.71431 18.7576 2.77227 19.0403 2.88167C19.3164 2.99108 19.5248 3.14086 19.6687 3.33102C19.8061 3.52118 19.881 3.72827 19.881 3.95945C19.881 4.44331 19.5873 4.78911 19.0058 4.9962C19.3503 5.09975 19.6277 5.2326 19.8517 5.39996C20.077 5.56081 20.1864 5.83238 20.1864 6.20032C20.1864 6.47123 20.0998 6.71348 19.9331 6.93229C19.7599 7.15697 19.5072 7.33019 19.1673 7.46239C18.8325 7.59524 18.4294 7.65841 17.9677 7.65841L15.1557 7.65906ZM16.0368 3.28544V4.80604H17.633C18.0771 4.80604 18.4177 4.74874 18.6482 4.62761C18.8788 4.50648 18.9992 4.29939 18.9992 4.0109C18.9992 3.76864 18.8898 3.59021 18.6762 3.46908C18.4639 3.34795 18.1181 3.28478 17.6395 3.28478L16.0368 3.28544ZM16.0368 5.35373V7.08794H17.9221C18.3708 7.08794 18.7173 7.00784 18.9537 6.84633C19.0648 6.77597 19.1557 6.67779 19.2173 6.56151C19.2788 6.44523 19.309 6.31489 19.3047 6.18339C19.3047 5.6305 18.7974 5.35373 17.7782 5.35373H16.0368Z" fill="var(--fill-0, #161E33)"/>
<path fill-rule="evenodd" clip-rule="evenodd" d="M18.8605 12.4762H16.2452L15.5582 13.9108H14.6491L17.1042 8.96672H18.1064L20.4684 13.9108H19.5066L18.8605 12.4762ZM16.5148 11.8823H18.5434L17.5757 9.70391H17.5639L16.5148 11.8823Z" fill="var(--fill-0, #161E33)"/>
<path d="M20.0536 25.6199V26.2131H15.2365V21.269H19.9898V21.8571H16.1182V23.3725H19.6908V23.9664H16.1182V25.6199H20.0536Z" fill="var(--fill-0, #161E33)"/>
<path fill-rule="evenodd" clip-rule="evenodd" d="M15.9619 30.5001V32.627H15.0815V27.6829H18.0999C18.7231 27.6829 19.2356 27.7806 19.6388 27.9818C20.0419 28.1896 20.2444 28.5295 20.2444 29.0075C20.2444 29.3364 20.163 29.5839 19.9963 29.7564C19.8348 29.9303 19.6094 30.0736 19.3333 30.1947C19.5814 30.2696 19.7709 30.3679 19.9031 30.4884C20.0301 30.6043 20.1057 30.8166 20.1167 31.1227L20.1754 32.022C20.1754 32.166 20.1982 32.2695 20.2437 32.3333C20.2835 32.3965 20.3694 32.4545 20.5016 32.5111V32.627H19.4193C19.3722 32.5045 19.3409 32.3765 19.3262 32.2461C19.3028 32.0876 19.2876 31.9281 19.2806 31.7681C19.2705 31.6415 19.265 31.5147 19.2643 31.3878C19.2643 31.1234 19.1894 30.9098 19.0331 30.7489C18.8833 30.5874 18.5727 30.5008 18.0992 30.5008L15.9619 30.5001ZM15.9619 28.2534V29.9303H18.0087C18.4053 29.9303 18.7238 29.8724 18.9719 29.7512C19.2135 29.636 19.3346 29.4119 19.3346 29.0772C19.3346 28.5295 18.9491 28.2534 18.1644 28.2534H15.9619Z" fill="var(--fill-0, #161E33)"/>
<path fill-rule="evenodd" clip-rule="evenodd" d="M0 17.5701C0 7.87325 7.87323 0 17.5694 0C27.2735 0 35.1401 7.8727 35.1401 17.5701C35.1401 27.2674 27.2735 35.1395 17.5694 35.1395C7.87325 35.1395 0 27.2669 0 17.5701ZM17.5694 1.0615C8.4595 1.0615 1.0615 8.45948 1.0615 17.5701C1.0615 26.6806 8.45948 34.078 17.5694 34.078C26.6871 34.078 34.0786 26.6814 34.0786 17.5701C34.0786 8.45873 26.687 1.0615 17.5694 1.0615Z" fill="var(--fill-0, #161E33)"/>
<path fill-rule="evenodd" clip-rule="evenodd" d="M50.2987 27.2622H40.0706V3.49382H50.5345C54.966 3.49382 57.2531 6.242 57.2531 9.4864C57.2531 11.0422 56.6885 13.2257 54.0726 14.4474L54.1065 14.4612C55.6679 15.097 58.3772 16.2 58.3772 20.244C58.3772 24.053 55.5652 27.2622 50.2987 27.2622ZM49.1115 6.24134H43.2798V13.554H49.077C52.1541 13.554 54.0439 12.626 54.0439 9.71563C54.0439 7.49756 52.6842 6.24134 49.1115 6.24134ZM49.6071 16.1699H43.2798V24.5134H50.1372C53.4793 24.5134 55.1679 22.8248 55.1679 20.1743C55.1679 16.8322 52.2231 16.1699 49.6071 16.1699Z" fill="var(--fill-0, #161E33)"/>
<path fill-rule="evenodd" clip-rule="evenodd" d="M67.7008 11.8653C64.3932 11.8653 63.9263 13.888 63.7302 15.2133H61.0517C61.1839 11.0702 63.9269 9.45058 68.2022 9.45058C69.5906 9.45058 74.6213 9.84848 74.6213 14.2853V24.249C74.6213 24.9751 74.9847 25.2754 75.5838 25.2754C75.8489 25.2754 76.2123 25.2109 76.5405 25.1425V27.2629C76.4215 27.2947 76.3066 27.3302 76.1915 27.3658C75.8264 27.4785 75.4594 27.5918 74.9554 27.5918C72.3681 27.5918 71.9702 26.2711 71.8725 24.9465C70.7491 26.1682 68.9915 27.7578 65.6149 27.7578C62.4395 27.7578 60.1869 25.741 60.1869 22.7564C60.1869 21.3042 60.6193 17.9276 65.4534 17.3285L70.2536 16.7345C70.9452 16.6655 71.7748 16.4005 71.7748 14.6832C71.7748 12.8617 70.4496 11.8653 67.7008 11.8653ZM66.3469 25.3424C69.0605 25.3424 71.711 23.5861 71.711 21.269V18.4225C71.2447 18.7859 70.5186 19.0509 66.9056 19.5179C65.4879 19.7132 63.2008 20.145 63.2008 22.3292C63.2008 24.2139 64.1626 25.3424 66.3469 25.3424Z" fill="var(--fill-0, #161E33)"/>
<path d="M83.8127 22.7212H83.8817L88.5999 9.94551H91.8671C91.6013 10.608 91.3361 11.2705 91.071 11.933C89.2835 16.3989 87.496 20.8648 85.5287 25.3307C82.7343 31.6867 82.4289 32.0442 78.6199 32.0442C78.2609 32.0442 77.9715 31.9666 77.6182 31.8719C77.5408 31.8511 77.4603 31.8296 77.3754 31.8078V29.4054C77.744 29.5265 78.3489 29.6763 79.1617 29.6763C80.7099 29.6763 80.8786 29.2904 82.292 26.0564L82.2967 26.0458L75.7564 9.94616H79.1278L83.8127 22.7212Z" fill="var(--fill-0, #161E33)"/>
<path fill-rule="evenodd" clip-rule="evenodd" d="M100.748 25.2395C103.496 25.2395 105.116 23.125 105.213 21.8343H108.13C108.033 22.6581 107.237 25.1132 105.053 26.5648C104.258 27.0949 103.129 27.7578 100.351 27.7578C95.482 27.7578 92.601 24.0817 92.601 19.0861C92.601 13.722 95.1877 9.45123 100.91 9.45123C105.911 9.45123 108.359 13.4218 108.359 19.5472H95.7119C95.7119 23.1602 97.3999 25.2395 100.748 25.2395ZM100.511 12.0672C97.8316 12.0672 95.7113 14.5503 95.7113 17.2301H105.345C105.179 14.5503 104.054 12.0672 100.511 12.0672Z" fill="var(--fill-0, #161E33)"/>
<path d="M118.905 12.5628C116.19 12.5628 114.473 14.6832 114.473 17.1956L114.474 27.2629H111.558V9.94747H114.307V12.8285H114.375C115.528 10.8058 117.055 9.45123 119.239 9.45123C119.603 9.45123 119.769 9.4864 120 9.54957V12.5628H118.905Z" fill="var(--fill-0, #161E33)"/>
</g>
</svg>
