<svg preserveAspectRatio="none" width="100%" height="100%" overflow="visible" style="display: block;" viewBox="0 0 119.596 32" fill="none" xmlns="http://www.w3.org/2000/svg">
<g id="Vector">
<path d="M56.7366 7.99987H62.1445V23.9988H58.1371V13.24L53.0105 23.9988L47.615 13.2265V23.9988H43.8758V7.99987H49.2208L53.0743 16.2808L56.7366 7.99987Z" fill="var(--fill-0, #161E33)"/>
<path d="M64.1373 7.99987V23.9988H74.2079V21.2865H68.0413V17.2162H73.9529V14.4782H68.0413V10.8076H74.2079V7.99987H64.1373Z" fill="var(--fill-0, #161E33)"/>
<path d="M89.2273 16.0022C89.2273 21.9576 96.0078 26.7232 103.152 23.5357V20.108C97.6547 23.6383 92.8693 20.1 92.9478 16.1389C93.0014 13.5064 94.9313 11.0028 98.6643 10.8076C100.5 10.7121 101.744 11.1304 103.152 12.3665V8.80208C97.9897 5.99784 89.2273 9.08422 89.2273 16.0022Z" fill="var(--fill-0, #161E33)"/>
<path d="M104.801 23.9988H108.513V8.15371H104.801V23.9988Z" fill="var(--fill-0, #161E33)"/>
<path d="M113.171 15.4193L118.78 8.18862H114.444L108.887 15.4058L115.339 23.9987H119.596L113.171 15.4193Z" fill="var(--fill-0, #161E33)"/>
<path d="M75.9433 7.99968V23.9987H79.8609V15.4033L86.3368 23.9987H90.5129L85.3861 17.2808C87.7621 16.4571 88.533 14.6309 88.533 12.8056C88.533 10.9817 86.8628 7.99968 82.8165 7.99968H75.9433ZM79.8609 10.662H81.571C84.4621 10.662 84.6165 12.3946 84.6165 13.0415C84.6165 14.2776 83.4724 15.3302 81.9956 15.3302H79.8609V10.662Z" fill="var(--fill-0, #161E33)"/>
<path d="M8.72669 8.00016C8.72669 3.5815 12.6346 0 17.4542 0C22.2753 0 26.1816 3.5815 26.1816 8.00016H8.72669ZM8.72669 23.9998C8.72669 19.5819 12.6346 15.9996 17.4542 15.9996C12.6346 15.9996 8.72669 12.4188 8.72669 8.00016C3.90712 8.00016 0 11.5817 0 15.9996C0 20.419 3.90712 23.9998 8.72669 23.9998ZM8.72669 23.9998C8.72669 28.4192 12.6346 32 17.4542 32C22.2753 32 26.1816 28.4192 26.1816 23.9998H8.72669ZM17.4542 15.9996C22.2753 15.9996 26.1816 19.5819 26.1816 23.9998C31.002 23.9998 34.9099 20.419 34.9099 15.9996C34.9099 11.5817 31.002 8.00016 26.1816 8.00016C26.1816 12.4188 22.2753 15.9996 17.4542 15.9996Z" fill="var(--fill-0, #161E33)"/>
</g>
</svg>
