<svg width="120" height="64" viewBox="0 0 120 64" fill="none" xmlns="http://www.w3.org/2000/svg">
<path d="M56.9397 24.6288H62.3476V40.6277H58.3402V29.8689L53.2137 40.6277L47.8182 29.8554V40.6277H44.0789V24.6288H49.4239L53.2774 32.9097L56.9397 24.6288Z" fill="#161E33"/>
<path d="M64.3405 24.6288V40.6277H74.411V37.9154H68.2445V33.8451H74.1561V31.1071H68.2445V27.4366H74.411V24.6288H64.3405Z" fill="#161E33"/>
<path d="M89.4304 32.6311C89.4304 38.5865 96.2109 43.3521 103.355 40.1646V36.7369C97.8578 40.2672 93.0725 36.7289 93.151 32.7678C93.2045 30.1353 95.1344 27.6317 98.8675 27.4365C100.703 27.341 101.947 27.7593 103.355 28.9954V25.431C98.1928 22.6267 89.4304 25.7131 89.4304 32.6311Z" fill="#161E33"/>
<path d="M105.004 40.6277H108.716V24.7826H105.004V40.6277Z" fill="#161E33"/>
<path d="M113.374 32.0482L118.983 24.8175H114.648L109.09 32.0347L115.542 40.6277H119.799L113.374 32.0482Z" fill="#161E33"/>
<path d="M76.1464 24.6286V40.6276H80.0641V32.0322L86.5399 40.6276H90.716L85.5893 33.9097C87.9652 33.086 88.7361 31.2598 88.7361 29.4345C88.7361 27.6106 87.0659 24.6286 83.0196 24.6286H76.1464ZM80.0641 27.2909H81.7741C84.6653 27.2909 84.8196 29.0235 84.8196 29.6704C84.8196 30.9065 83.6755 31.9591 82.1988 31.9591H80.0641V27.2909Z" fill="#161E33"/>
<path d="M8.92982 24.6291C8.92982 20.2104 12.8377 16.6289 17.6573 16.6289C22.4784 16.6289 26.3847 20.2104 26.3847 24.6291H8.92982ZM8.92982 40.6287C8.92982 36.2108 12.8377 32.6286 17.6573 32.6286C12.8377 32.6286 8.92982 29.0477 8.92982 24.6291C4.11024 24.6291 0.203125 28.2106 0.203125 32.6286C0.203125 37.0479 4.11024 40.6287 8.92982 40.6287ZM8.92982 40.6287C8.92982 45.0481 12.8377 48.6289 17.6573 48.6289C22.4784 48.6289 26.3847 45.0481 26.3847 40.6287H8.92982ZM17.6573 32.6286C22.4784 32.6286 26.3847 36.2108 26.3847 40.6287C31.2051 40.6287 35.113 37.0479 35.113 32.6286C35.113 28.2106 31.2051 24.6291 26.3847 24.6291C26.3847 29.0477 22.4784 32.6286 17.6573 32.6286Z" fill="#161E33"/>
</svg>
