<svg preserveAspectRatio="none" width="100%" height="100%" overflow="visible" style="display: block;" viewBox="0 0 41.3607 37.6167" fill="none" xmlns="http://www.w3.org/2000/svg">
<path id="Vector" d="M20.6991 13.2107V20.6914M20.6991 28.1721H20.7178M38.8959 30.0423L23.9345 3.85985C23.6083 3.28422 23.1352 2.80542 22.5635 2.47231C21.9918 2.13919 21.342 1.96368 20.6804 1.96368C20.0187 1.96368 19.3689 2.13919 18.7973 2.47231C18.2256 2.80542 17.7525 3.28422 17.4263 3.85985L2.46488 30.0423C2.13514 30.6134 1.96223 31.2615 1.96369 31.9209C1.96515 32.5803 2.14093 33.2277 2.4732 33.7973C2.80547 34.3669 3.28243 34.8385 3.85572 35.1644C4.42902 35.4903 5.07828 35.6588 5.73769 35.6528H35.6605C36.3167 35.6522 36.9613 35.4788 37.5293 35.1503C38.0974 34.8217 38.569 34.3495 38.8969 33.781C39.2247 33.2125 39.3972 32.5678 39.397 31.9115C39.3968 31.2553 39.224 30.6106 38.8959 30.0423Z" stroke="var(--stroke-0, #DC244C)" stroke-width="3.92737" stroke-linecap="round" stroke-linejoin="round"/>
</svg>
