<svg preserveAspectRatio="none" width="100%" height="100%" overflow="visible" style="display: block;" viewBox="0 0 22 22" fill="none" xmlns="http://www.w3.org/2000/svg">
<path id="Vector" d="M12.67 7H17C17.5304 7 18.0391 7.21071 18.4142 7.58579C18.7893 7.96086 19 8.46957 19 9V13.33M1 13H3M19 13H21M21 21L1 1M7 7H5C4.46957 7 3.96086 7.21071 3.58579 7.58579C3.21071 7.96086 3 8.46957 3 9V17C3 17.5304 3.21071 18.0391 3.58579 18.4142C3.96086 18.7893 4.46957 19 5 19H17C17.5304 18.9999 18.039 18.7891 18.414 18.414M8 12V14M8.67 3H11V5.33" stroke="var(--stroke-0, #DC244C)" stroke-width="2" stroke-linecap="round" stroke-linejoin="round"/>
</svg>
