<svg preserveAspectRatio="none" width="100%" height="100%" overflow="visible" style="display: block;" viewBox="0 0 22 22" fill="none" xmlns="http://www.w3.org/2000/svg">
<path id="Vector" d="M4 15V12C4 11.7348 4.10536 11.4804 4.29289 11.2929C4.48043 11.1054 4.73478 11 5 11H17C17.2652 11 17.5196 11.1054 17.7071 11.2929C17.8946 11.4804 18 11.7348 18 12V15M11 11V7M16 15H20C20.5523 15 21 15.4477 21 16V20C21 20.5523 20.5523 21 20 21H16C15.4477 21 15 20.5523 15 20V16C15 15.4477 15.4477 15 16 15ZM2 15H6C6.55228 15 7 15.4477 7 16V20C7 20.5523 6.55228 21 6 21H2C1.44772 21 1 20.5523 1 20V16C1 15.4477 1.44772 15 2 15ZM9 1H13C13.5523 1 14 1.44772 14 2V6C14 6.55228 13.5523 7 13 7H9C8.44772 7 8 6.55228 8 6V2C8 1.44772 8.44772 1 9 1Z" stroke="var(--stroke-0, #DC244C)" stroke-width="2" stroke-linecap="round" stroke-linejoin="round"/>
</svg>
