<svg preserveAspectRatio="none" width="100%" height="100%" overflow="visible" style="display: block;" viewBox="0 0 21.1564 25.8318" fill="none" xmlns="http://www.w3.org/2000/svg">
<path id="Vector" d="M12.9159 1.2273V5.90274C12.9159 6.52274 13.1622 7.11735 13.6006 7.55576C14.039 7.99417 14.6336 8.24046 15.2536 8.24046H19.9291M8.24046 9.40932H5.90274M15.2536 14.0848H5.90274M15.2536 18.7602H5.90274M14.0848 1.2273H3.56502C2.94502 1.2273 2.35041 1.4736 1.912 1.912C1.4736 2.35041 1.2273 2.94502 1.2273 3.56502V22.2668C1.2273 22.8868 1.4736 23.4814 1.912 23.9198C2.35041 24.3582 2.94502 24.6045 3.56502 24.6045H17.5913C18.2113 24.6045 18.8059 24.3582 19.2444 23.9198C19.6828 23.4814 19.9291 22.8868 19.9291 22.2668V7.0716L14.0848 1.2273Z" stroke="var(--stroke-0, #8547FF)" stroke-width="2.45461" stroke-linecap="round" stroke-linejoin="round"/>
</svg>
