<svg preserveAspectRatio="none" width="100%" height="100%" overflow="visible" style="display: block;" viewBox="0 0 20 20" fill="none" xmlns="http://www.w3.org/2000/svg">
<path id="Vector" d="M19 13L15.914 9.914C15.5389 9.53906 15.0303 9.32843 14.5 9.32843C13.9697 9.32843 13.4611 9.53906 13.086 9.914L4 19M3 1H17C18.1046 1 19 1.89543 19 3V17C19 18.1046 18.1046 19 17 19H3C1.89543 19 1 18.1046 1 17V3C1 1.89543 1.89543 1 3 1ZM9 7C9 8.10457 8.10457 9 7 9C5.89543 9 5 8.10457 5 7C5 5.89543 5.89543 5 7 5C8.10457 5 9 5.89543 9 7Z" stroke="var(--stroke-0, #DC244C)" stroke-width="2" stroke-linecap="round" stroke-linejoin="round"/>
</svg>
