<svg preserveAspectRatio="none" width="100%" height="100%" overflow="visible" style="display: block;" viewBox="0 0 18.7953 18.7953" fill="none" xmlns="http://www.w3.org/2000/svg">
<path id="Vector" d="M17.8134 12.2029L14.9277 9.31721C14.577 8.96661 14.1014 8.76965 13.6055 8.76965C13.1096 8.76965 12.634 8.96661 12.2833 9.31721L3.7871 17.8134M2.85202 0.981842H15.9432C16.9761 0.981842 17.8134 1.81915 17.8134 2.85202V15.9432C17.8134 16.9761 16.9761 17.8134 15.9432 17.8134H2.85202C1.81915 17.8134 0.981842 16.9761 0.981842 15.9432V2.85202C0.981842 1.81915 1.81915 0.981842 2.85202 0.981842ZM8.46254 6.59237C8.46254 7.62524 7.62524 8.46254 6.59237 8.46254C5.5595 8.46254 4.72219 7.62524 4.72219 6.59237C4.72219 5.5595 5.5595 4.72219 6.59237 4.72219C7.62524 4.72219 8.46254 5.5595 8.46254 6.59237Z" stroke="var(--stroke-0, #2F6FF0)" stroke-width="1.96368" stroke-linecap="round" stroke-linejoin="round"/>
</svg>
