<svg preserveAspectRatio="none" width="100%" height="100%" overflow="visible" style="display: block;" viewBox="0 0 20.6623 18.0073" fill="none" xmlns="http://www.w3.org/2000/svg">
<path id="Vector" d="M7.34066 17.0252V13.1913L9.11732 13.3784C9.63456 13.3496 10.124 13.1352 10.4958 12.7744C10.8676 12.4136 11.0966 11.9308 11.1409 11.4147V6.08467C11.1471 4.73753 10.6179 3.4431 9.66966 2.48615C8.72148 1.52919 7.43197 0.988096 6.08483 0.981896C4.73769 0.975696 3.44327 1.5049 2.48631 2.45309C1.52936 3.40127 0.98826 4.69078 0.98206 6.03792C0.98206 8.65616 1.59548 8.89367 1.91715 10.2926C2.13454 11.1374 2.14385 12.0223 1.94427 12.8715L0.98206 17.0252M17.6266 14.968C18.9412 13.6533 19.6799 11.8704 19.6804 10.0112C19.681 8.15204 18.9432 6.36872 17.6294 5.05327M15.0084 12.3498C15.3143 12.0439 15.5566 11.6804 15.7211 11.2803C15.8857 10.8802 15.9693 10.4515 15.9672 10.0189C15.965 9.58624 15.8771 9.15835 15.7085 8.75994C15.5399 8.36152 15.294 8.00048 14.985 7.6977" stroke="var(--stroke-0, #038585)" stroke-width="1.96368" stroke-linecap="round" stroke-linejoin="round"/>
</svg>
