<svg width="24" height="24" viewBox="0 0 24 24" fill="none" xmlns="http://www.w3.org/2000/svg">
<path d="M13.67 8H18C18.5304 8 19.0391 8.21071 19.4142 8.58579C19.7893 8.96086 20 9.46957 20 10V14.33M2 14H4M20 14H22M22 22L2 2M8 8H6C5.46957 8 4.96086 8.21071 4.58579 8.58579C4.21071 8.96086 4 9.46957 4 10V18C4 18.5304 4.21071 19.0391 4.58579 19.4142C4.96086 19.7893 5.46957 20 6 20H18C18.5304 19.9999 19.039 19.7891 19.414 19.414M9 13V15M9.67 4H12V6.33" stroke="#DC244C" stroke-width="2" stroke-linecap="round" stroke-linejoin="round"/>
</svg>
