<svg preserveAspectRatio="none" width="100%" height="100%" overflow="visible" style="display: block;" viewBox="0 0 137.516 151.689" fill="none" xmlns="http://www.w3.org/2000/svg">
<g id="Vectors">
<path id="Hexagon" d="M35.5102 69.0625L34.4414 69.6791V70.9123L35.5102 71.529L36.579 70.9123V69.6791L35.5102 69.0625Z" fill="var(--fill-0, #8547FF)"/>
<path id="Hexagon_2" d="M106.762 113.461L105.693 114.078V115.311L106.762 115.927L107.831 115.311V114.078L106.762 113.461Z" fill="var(--fill-0, #8547FF)"/>
<path id="Hexagon_3" d="M37.8832 128.258L36.8145 128.874V130.108L37.8832 130.724L38.952 130.108V128.874L37.8832 128.258Z" fill="var(--fill-0, #8547FF)"/>
<path id="Hexagon_4" d="M20.0707 107.289L19.002 107.906V109.139L20.0707 109.756L21.1395 109.139V107.906L20.0707 107.289Z" fill="var(--fill-0, #8547FF)"/>
<path id="Hexagon_5" d="M67.5707 133.188L66.502 133.804V135.037L67.5707 135.654L68.6395 135.037V133.804L67.5707 133.188Z" fill="var(--fill-0, #8547FF)"/>
<path id="Hexagon_6" d="M1.06877 59.1953L2.58751e-06 59.8119V61.0452L1.06877 61.6618L2.13755 61.0452V59.8119L1.06877 59.1953Z" fill="var(--fill-0, #8547FF)"/>
<path id="Hexagon_7" d="M26.0063 22.1953L24.9375 22.8119V24.0452L26.0063 24.6618L27.075 24.0452V22.8119L26.0063 22.1953Z" fill="var(--fill-0, #8547FF)"/>
<path id="Hexagon_8" d="M91.3227 12.332L90.2539 12.9486V14.1819L91.3227 14.7985L92.3914 14.1819V12.9486L91.3227 12.332Z" fill="var(--fill-0, #8547FF)"/>
<path id="Hexagon_9" d="M119.823 36.9961L118.754 37.6127V38.8459L119.823 39.4625L120.891 38.8459V37.6127L119.823 36.9961Z" fill="var(--fill-0, #8547FF)"/>
<path id="Hexagon_10" d="M124.575 81.3945L123.506 82.0111V83.2444L124.575 83.861L125.643 83.2444V82.0111L124.575 81.3945Z" fill="var(--fill-0, #8547FF)"/>
<path id="Hexagon_11" d="M97.2621 32.0625L96.1934 32.6791V33.9123L97.2621 34.5289L98.3309 33.9123V32.6791L97.2621 32.0625Z" fill="var(--fill-0, #8547FF)"/>
<path id="Hexagon_12" d="M99.6371 64.1289L98.5684 64.7455V65.9787L99.6371 66.5954L100.706 65.9787V64.7455L99.6371 64.1289Z" fill="var(--fill-0, #8547FF)"/>
<path id="Hexagon_13" d="M50.9477 24.6641L49.8789 25.2807V26.5139L50.9477 27.1305L52.0164 26.5139V25.2807L50.9477 24.6641Z" fill="var(--fill-0, #8547FF)"/>
<path id="Hexagon_14" d="M119.823 125.789L118.754 126.406V127.639L119.823 128.256L120.891 127.639V126.406L119.823 125.789Z" fill="var(--fill-0, #2F6FF0)"/>
<path id="Hexagon_15" d="M94.8891 93.7266L93.8203 94.3432V95.5764L94.8891 96.193L95.9579 95.5764V94.3432L94.8891 93.7266Z" fill="var(--fill-0, #2F6FF0)"/>
<path id="Hexagon_16" d="M36.6938 110.992L35.625 111.609V112.842L36.6938 113.459L37.7625 112.842V111.609L36.6938 110.992Z" fill="var(--fill-0, #2F6FF0)"/>
<path id="Hexagon_17" d="M3.44378 93.7266L2.375 94.3432V95.5764L3.44378 96.193L4.51255 95.5764V94.3432L3.44378 93.7266Z" fill="var(--fill-0, #2F6FF0)"/>
<path id="Hexagon_18" d="M12.9418 44.3984L11.873 45.0151V46.2483L12.9418 46.8649L14.0106 46.2483V45.0151L12.9418 44.3984Z" fill="var(--fill-0, #2F6FF0)"/>
<path id="Hexagon_19" d="M68.7621 0L67.6934 0.616612V1.84984L68.7621 2.46645L69.8309 1.84984V0.616612L68.7621 0Z" fill="var(--fill-0, #2F6FF0)"/>
<path id="Hexagon_20" d="M130.512 59.1953L129.443 59.8119V61.0451L130.512 61.6618L131.581 61.0451V59.8119L130.512 59.1953Z" fill="var(--fill-0, #2F6FF0)"/>
<path id="Hexagon_21" d="M122.198 98.6602L121.129 99.2768V100.51L122.198 101.127L123.266 100.51V99.2768L122.198 98.6602Z" fill="var(--fill-0, #2F6FF0)"/>
<path id="Hexagon_22" d="M90.1332 134.422L89.0645 135.038V136.272L90.1332 136.888L91.202 136.272V135.038L90.1332 134.422Z" fill="var(--fill-0, #2F6FF0)"/>
<path id="Hexagon_23" d="M20.0707 59.1953L19.002 59.8119V61.0452L20.0707 61.6618L21.1395 61.0452V59.8119L20.0707 59.1953Z" fill="var(--fill-0, #2F6FF0)"/>
<path id="Hexagon_24" d="M87.7563 45.6289L86.6875 46.2455V47.4787L87.7563 48.0954L88.825 47.4787V46.2455L87.7563 45.6289Z" fill="var(--fill-0, #2F6FF0)"/>
<path id="Hexagon_25" d="M109.135 50.5625L108.066 51.1791V52.4123L109.135 53.0289L110.204 52.4123V51.1791L109.135 50.5625Z" fill="var(--fill-0, #DC244C)"/>
<path id="Hexagon_26" d="M39.0688 92.4922L38 93.1088V94.342L39.0688 94.9586L40.1375 94.342V93.1088L39.0688 92.4922Z" fill="var(--fill-0, #DC244C)"/>
<path id="Hexagon_27" d="M75.8832 19.7305L74.8145 20.3471V21.5803L75.8832 22.1969L76.952 21.5803V20.3471L75.8832 19.7305Z" fill="var(--fill-0, #DC244C)"/>
<path id="Hexagon_28" d="M46.1977 6.16797L45.1289 6.78458V8.01781L46.1977 8.63442L47.2664 8.01781V6.78458L46.1977 6.16797Z" fill="var(--fill-0, #DC244C)"/>
<path id="Hexagon_29" d="M1.06877 40.6953L1.77885e-06 41.3119V42.5452L1.06877 43.1618L2.13755 42.5452V41.3119L1.06877 40.6953Z" fill="var(--fill-0, #DC244C)"/>
<path id="Hexagon_30" d="M3.44378 113.461L2.37501 114.078V115.311L3.44378 115.927L4.51255 115.311V114.078L3.44378 113.461Z" fill="var(--fill-0, #DC244C)"/>
<path id="Hexagon_31" d="M52.1332 143.051L51.0645 143.667V144.901L52.1332 145.517L53.202 144.901V143.667L52.1332 143.051Z" fill="var(--fill-0, #DC244C)"/>
<path id="Hexagon_32" d="M105.569 133.188L104.5 133.804V135.037L105.569 135.654L106.638 135.037V133.804L105.569 133.188Z" fill="var(--fill-0, #DC244C)"/>
<path id="Hexagon_33" d="M136.448 82.625L135.379 83.2416V84.4748L136.448 85.0914L137.516 84.4748V83.2416L136.448 82.625Z" fill="var(--fill-0, #DC244C)"/>
<path id="Hexagon_34" d="M21.2563 87.5586L20.1875 88.1752V89.4084L21.2563 90.025L22.325 89.4084V88.1752L21.2563 87.5586Z" fill="var(--fill-0, #038585)"/>
<path id="Hexagon_35" d="M113.883 67.8281L112.814 68.4447V69.678L113.883 70.2946L114.952 69.678V68.4447L113.883 67.8281Z" fill="var(--fill-0, #038585)"/>
<path id="Hexagon_36" d="M131.696 41.9297L130.627 42.5463V43.7795L131.696 44.3961L132.764 43.7795V42.5463L131.696 41.9297Z" fill="var(--fill-0, #038585)"/>
<path id="Hexagon_37" d="M4.63518 77.6914L3.56641 78.308V79.5412L4.63518 80.1579L5.70395 79.5412V78.308L4.63518 77.6914Z" fill="var(--fill-0, #038585)"/>
<path id="Hexagon_38" d="M115.075 22.1953L114.006 22.8119V24.0451L115.075 24.6618L116.143 24.0451V22.8119L115.075 22.1953Z" fill="var(--fill-0, #038585)"/>
<path id="Hexagon_39" d="M129.323 110.992L128.254 111.609V112.842L129.323 113.459L130.391 112.842V111.609L129.323 110.992Z" fill="var(--fill-0, #038585)"/>
<path id="Hexagon_40" d="M78.2602 122.086L77.1914 122.703V123.936L78.2602 124.552L79.329 123.936V122.703L78.2602 122.086Z" fill="var(--fill-0, #038585)"/>
<path id="Hexagon_41" d="M75.8832 149.223L74.8145 149.839V151.072L75.8832 151.689L76.952 151.072V149.839L75.8832 149.223Z" fill="var(--fill-0, #038585)"/>
<path id="Hexagon_42" d="M20.0707 129.492L19.002 130.109V131.342L20.0707 131.959L21.1395 131.342V130.109L20.0707 129.492Z" fill="var(--fill-0, #038585)"/>
<path id="Hexagon_43" d="M109.135 87.5586L108.066 88.1752V89.4084L109.135 90.025L110.204 89.4084V88.1752L109.135 87.5586Z" fill="var(--fill-0, #038585)"/>
<path id="Hexagon_44" d="M31.9438 36.9961L30.875 37.6127V38.8459L31.9438 39.4625L33.0125 38.8459V37.6127L31.9438 36.9961Z" fill="var(--fill-0, #038585)"/>
<path id="Hexagon_45" d="M55.6977 122.086L54.6289 122.703V123.936L55.6977 124.552L56.7665 123.936V122.703L55.6977 122.086Z" fill="var(--fill-0, #038585)"/>
</g>
</svg>
