<svg preserveAspectRatio="none" width="100%" height="100%" overflow="visible" style="display: block;" viewBox="0 0 277.859 152.24" fill="none" xmlns="http://www.w3.org/2000/svg">
<g id="Lines">
<path id="Connector-Line" d="M218.066 151.74L213.635 151.74C205.865 151.74 199.566 145.441 199.566 137.671L199.566 89.603C199.566 81.833 193.268 75.5342 185.498 75.5342L138.929 75.5342" stroke="var(--stroke-0, #B4BACC)"/>
<path id="Connector-Line_2" d="M218.066 0.5L213.635 0.5C205.865 0.5 199.566 6.79882 199.566 14.5688L199.566 61.4648C199.566 69.2348 193.268 75.5337 185.498 75.5337L138.929 75.5336" stroke="var(--stroke-0, #B4BACC)"/>
<path id="Connector-Line_3" d="M59.7887 151.74L64.2194 151.74C71.9894 151.74 78.2882 145.441 78.2882 137.671L78.2882 89.603C78.2882 81.833 84.5871 75.5342 92.357 75.5342L138.926 75.5342" stroke="var(--stroke-0, #B4BACC)"/>
<path id="Connector-Line_4" d="M59.7887 0.5L64.2194 0.5C71.9894 0.5 78.2882 6.79882 78.2882 14.5688L78.2882 61.4648C78.2882 69.2348 84.5871 75.5336 92.357 75.5336L138.926 75.5336" stroke="var(--stroke-0, #B4BACC)"/>
<path id="Connector-Line_5" d="M277.859 75.5332L-6.95031e-07 75.5332" stroke="var(--stroke-0, #B4BACC)"/>
</g>
</svg>
