<svg preserveAspectRatio="none" width="100%" height="100%" overflow="visible" style="display: block;" viewBox="0 0 64 80" fill="none" xmlns="http://www.w3.org/2000/svg">
<g id="Database">
<g id="Vector" filter="url(#filter0_i_13545_41840)">
<path d="M32 48.6956C22.0632 48.6956 6.73684 46.7826 0 40.3478V67.8261C0 75.6522 16.5053 80 32 80C47.4947 80 64 75.6522 64 67.8261V40.3478C57.2632 46.7826 41.9368 48.6956 32 48.6956Z" fill="var(--fill-0, #FFDADB)"/>
</g>
<g id="Vector_2" filter="url(#filter1_i_13545_41840)">
<path d="M32 20.8696C22.0632 20.8696 6.73684 18.9565 0 12.5216V40C0 47.8261 16.5053 52.1739 32 52.1739C47.4947 52.1739 64 47.8261 64 40V12.5216C57.2632 18.9565 41.9368 20.8696 32 20.8696Z" fill="var(--fill-0, #FFDADB)"/>
</g>
<g id="Vector_3" filter="url(#filter2_i_13545_41840)">
<path d="M32 0C16.5053 0 0 4.34783 0 12.1739C0 20 16.5053 24.3478 32 24.3478C47.4947 24.3478 64 20 64 12.1739C64 4.34783 47.4947 0 32 0Z" fill="var(--fill-0, #FFDADB)"/>
</g>
</g>
<defs>
<filter id="filter0_i_13545_41840" x="0" y="40.3478" width="64" height="39.6522" filterUnits="userSpaceOnUse" color-interpolation-filters="sRGB">
<feFlood flood-opacity="0" result="BackgroundImageFix"/>
<feBlend mode="normal" in="SourceGraphic" in2="BackgroundImageFix" result="shape"/>
<feColorMatrix in="SourceAlpha" type="matrix" values="0 0 0 0 0 0 0 0 0 0 0 0 0 0 0 0 0 0 127 0" result="hardAlpha"/>
<feOffset/>
<feGaussianBlur stdDeviation="8"/>
<feComposite in2="hardAlpha" operator="arithmetic" k2="-1" k3="1"/>
<feColorMatrix type="matrix" values="0 0 0 0 1 0 0 0 0 0.529412 0 0 0 0 0.572549 0 0 0 1 0"/>
<feBlend mode="normal" in2="shape" result="effect1_innerShadow_13545_41840"/>
</filter>
<filter id="filter1_i_13545_41840" x="0" y="12.5216" width="64" height="39.6523" filterUnits="userSpaceOnUse" color-interpolation-filters="sRGB">
<feFlood flood-opacity="0" result="BackgroundImageFix"/>
<feBlend mode="normal" in="SourceGraphic" in2="BackgroundImageFix" result="shape"/>
<feColorMatrix in="SourceAlpha" type="matrix" values="0 0 0 0 0 0 0 0 0 0 0 0 0 0 0 0 0 0 127 0" result="hardAlpha"/>
<feOffset/>
<feGaussianBlur stdDeviation="8"/>
<feComposite in2="hardAlpha" operator="arithmetic" k2="-1" k3="1"/>
<feColorMatrix type="matrix" values="0 0 0 0 1 0 0 0 0 0.529412 0 0 0 0 0.572549 0 0 0 1 0"/>
<feBlend mode="normal" in2="shape" result="effect1_innerShadow_13545_41840"/>
</filter>
<filter id="filter2_i_13545_41840" x="0" y="0" width="64" height="24.3478" filterUnits="userSpaceOnUse" color-interpolation-filters="sRGB">
<feFlood flood-opacity="0" result="BackgroundImageFix"/>
<feBlend mode="normal" in="SourceGraphic" in2="BackgroundImageFix" result="shape"/>
<feColorMatrix in="SourceAlpha" type="matrix" values="0 0 0 0 0 0 0 0 0 0 0 0 0 0 0 0 0 0 127 0" result="hardAlpha"/>
<feOffset/>
<feGaussianBlur stdDeviation="8"/>
<feComposite in2="hardAlpha" operator="arithmetic" k2="-1" k3="1"/>
<feColorMatrix type="matrix" values="0 0 0 0 1 0 0 0 0 0.529412 0 0 0 0 0.572549 0 0 0 1 0"/>
<feBlend mode="normal" in2="shape" result="effect1_innerShadow_13545_41840"/>
</filter>
</defs>
</svg>
