<svg preserveAspectRatio="none" width="100%" height="100%" overflow="visible" style="display: block;" viewBox="0 0 21.5 21.5003" fill="none" xmlns="http://www.w3.org/2000/svg">
<path id="Vector" d="M10.5 14.0002L7.50001 11.0002M10.5 14.0002C11.8969 13.469 13.2369 12.799 14.5 12.0002M10.5 14.0002V19.0002C10.5 19.0002 13.53 18.4502 14.5 17.0002C15.58 15.3802 14.5 12.0002 14.5 12.0002M7.50001 11.0002C8.03215 9.61968 8.70221 8.29631 9.50001 7.05025C10.6652 5.18723 12.2876 3.6533 14.213 2.59434C16.1384 1.53538 18.3027 0.986619 20.5 1.00025C20.5 3.72025 19.72 8.50025 14.5 12.0002M7.50001 11.0002H2.50001C2.50001 11.0002 3.05001 7.97025 4.50001 7.00025C6.12001 5.92025 9.50001 7.00025 9.50001 7.00025M3.00001 15.5002C1.50001 16.7602 1.00001 20.5002 1.00001 20.5002C1.00001 20.5002 4.74001 20.0002 6.00001 18.5002C6.71001 17.6602 6.70001 16.3702 5.91001 15.5902C5.52132 15.2193 5.0093 15.0049 4.47224 14.9883C3.93517 14.9717 3.41089 15.154 3.00001 15.5002Z" stroke="var(--stroke-0, #DC244C)" stroke-width="2" stroke-linecap="round" stroke-linejoin="round"/>
</svg>
