<svg preserveAspectRatio="none" width="100%" height="100%" overflow="visible" style="display: block;" viewBox="0 0 21.113 21.076" fill="none" xmlns="http://www.w3.org/2000/svg">
<path id="Vector" d="M9 14L4 19M9 19H3C2.46957 19 1.96086 18.7893 1.58579 18.4142C1.21071 18.0391 1 17.5304 1 17V3C1 2.46957 1.21071 1.96086 1.58579 1.58579C1.96086 1.21071 2.46957 1 3 1H17C17.5304 1 18.0391 1.21071 18.4142 1.58579C18.7893 1.96086 19 2.46957 19 3V9.5M13.765 20C13.6893 20.0473 13.6023 20.0735 13.5131 20.0758C13.4239 20.0782 13.3357 20.0566 13.2576 20.0133C13.1796 19.9701 13.1145 19.9067 13.0692 19.8298C13.0239 19.7529 13 19.6653 13 19.576V11.38C13 11.2907 13.0239 11.2031 13.0692 11.1262C13.1145 11.0493 13.1796 10.9859 13.2576 10.9427C13.3357 10.8994 13.4239 10.8778 13.5131 10.8802C13.6023 10.8825 13.6893 10.9087 13.765 10.956L19.643 14.63C19.7868 14.7199 19.9054 14.8449 19.9876 14.9932C20.0699 15.1416 20.113 15.3084 20.113 15.478C20.113 15.6476 20.0699 15.8144 19.9876 15.9628C19.9054 16.1111 19.7868 16.2361 19.643 16.326L13.765 20ZM9 7C9 8.10457 8.10457 9 7 9C5.89543 9 5 8.10457 5 7C5 5.89543 5.89543 5 7 5C8.10457 5 9 5.89543 9 7Z" stroke="var(--stroke-0, #2F6FF0)" stroke-width="2" stroke-linecap="round" stroke-linejoin="round"/>
</svg>
