<?xml version="1.0" encoding="utf-8"?>
<!-- Uploaded to: SVG Repo, www.svgrepo.com, Generator: SVG Repo Mixer Tools -->
<svg width="800px" height="800px" viewBox="0 0 1024 1024" class="icon" version="1.1"
     xmlns="http://www.w3.org/2000/svg">
    <path d="M697.051429 674.157714c-29.622857 0-59.245714 11.922286-83.017143 23.917715L412.013714 542.866286c5.924571-17.92 11.849143-35.84 11.849143-59.757715 0-23.917714-5.851429-41.837714-11.849143-59.757714l194.413715-149.430857c17.773714 17.92 47.469714 29.842286 77.165714 29.842286a147.456 147.456 0 0 0 148.406857-149.430857A147.456 147.456 0 0 0 683.52 4.900571 147.456 147.456 0 0 0 535.259429 154.331429c0 29.915429 11.849143 59.830857 23.698285 83.675428L382.317714 369.517714c-29.696-35.84-65.316571-59.757714-106.788571-65.755428v-65.755429c53.394286-11.922286 89.014857-59.757714 89.014857-113.517714 0-65.828571-53.394286-119.588571-118.710857-119.588572S127.122286 58.733714 127.122286 124.489143c0 53.76 35.547429 101.595429 89.014857 113.517714v65.828572C127.122286 321.682286 61.805714 393.362286 61.805714 483.035429s65.316571 161.426286 148.406857 173.348571v65.755429c-53.394286 11.922286-89.088 59.757714-89.088 113.590857 0 65.755429 53.394286 119.515429 118.710858 119.515428s118.784-53.76 118.784-119.515428c0-53.833143-35.620571-101.668571-89.088-113.590857v-65.755429c41.545143-5.997714 83.090286-29.915429 106.861714-65.755429l196.022857 149.211429c-11.849143 23.917714-23.698286 53.76-23.698286 83.675429 0 83.675429 65.316571 149.430857 148.406857 149.430857a147.456 147.456 0 0 0 148.406858-149.430857 147.456 147.456 0 0 0-148.48-149.430858zM683.666286 64.658286c47.469714 0 89.014857 41.910857 89.014857 89.673143 0 47.835429-41.545143 89.673143-89.014857 89.673142-47.542857 0-89.088-41.837714-89.088-89.673142 0-47.762286 41.545143-89.673143 89.088-89.673143z m-441.782857 300.032c62.244571 0 116.736 54.857143 116.736 117.467428 0 62.683429-54.491429 117.467429-116.662858 117.467429s-116.662857-54.857143-116.662857-117.467429c0-62.610286 54.418286-117.467429 116.662857-117.467428z m-61.293715-240.201143c0-35.84 23.771429-59.830857 59.318857-59.830857 35.620571 0 59.392 23.917714 59.392 59.830857 0 35.84-23.771429 59.757714-59.392 59.757714-35.547429 0-59.318857-23.917714-59.318857-59.757714z m118.710857 717.238857c0 35.84-23.771429 59.830857-59.392 59.830857-35.547429 0-59.318857-23.917714-59.318857-59.830857 0-35.84 23.771429-59.757714 59.318857-59.757714 35.620571 0 59.392 23.917714 59.392 59.757714z m397.897143 71.533714c-47.542857 0-89.014857-41.837714-89.014857-89.673143s41.545143-89.673143 89.014857-89.673142c47.542857 0 89.014857 41.837714 89.014857 89.673142s-41.545143 89.673143-89.014857 89.673143z"
          fill="#ffffff"/>
</svg>