<svg width="48" height="64" viewBox="0 0 48 64" fill="none" xmlns="http://www.w3.org/2000/svg">
<path fill-rule="evenodd" clip-rule="evenodd" d="M24 9.5C36.4071 9.5 46.5 19.5929 46.5 32C46.5 44.4071 36.4071 54.5 24 54.5C11.5929 54.5 1.5 44.4071 1.5 32C1.5 19.5929 11.5929 9.5 24 9.5ZM24 8C10.7443 8 0 18.7443 0 32C0 45.2557 10.7443 56 24 56C37.2557 56 48 45.2557 48 32C48 18.7443 37.2557 8 24 8ZM12.7673 35.4886C12.7673 35.7253 12.5754 35.9171 12.3387 35.9171C12.102 35.9171 11.9102 35.7253 11.9102 35.4886C11.9102 35.2519 12.102 35.06 12.3387 35.06C12.5754 35.06 12.7673 35.2519 12.7673 35.4886ZM11.9909 36.8215C11.9909 37.0581 11.7991 37.25 11.5624 37.25C11.3257 37.25 11.1338 37.0581 11.1338 36.8215C11.1338 36.5848 11.3257 36.3929 11.5624 36.3929C11.7991 36.3929 11.9909 36.5848 11.9909 36.8215ZM11.2303 38.8057C11.467 38.8057 11.6589 38.6138 11.6589 38.3771C11.6589 38.1404 11.467 37.9485 11.2303 37.9485C10.9936 37.9485 10.8018 38.1404 10.8018 38.3771C10.8018 38.6138 10.9936 38.8057 11.2303 38.8057ZM11.6589 39.815C11.6589 40.0517 11.467 40.2436 11.2303 40.2436C10.9936 40.2436 10.8018 40.0517 10.8018 39.815C10.8018 39.5783 10.9936 39.3864 11.2303 39.3864C11.467 39.3864 11.6589 39.5783 11.6589 39.815ZM11.4686 41.6707C11.7053 41.6707 11.8972 41.4789 11.8972 41.2422C11.8972 41.0055 11.7053 40.8136 11.4686 40.8136C11.2319 40.8136 11.04 41.0055 11.04 41.2422C11.04 41.4789 11.2319 41.6707 11.4686 41.6707ZM12.5456 42.5879C12.5456 42.8246 12.3537 43.0164 12.117 43.0164C11.8804 43.0164 11.6885 42.8246 11.6885 42.5879C11.6885 42.3512 11.8804 42.1593 12.117 42.1593C12.3537 42.1593 12.5456 42.3512 12.5456 42.5879ZM13.0047 44.2379C13.2414 44.2379 13.4333 44.046 13.4333 43.8093C13.4333 43.5726 13.2414 43.3807 13.0047 43.3807C12.7681 43.3807 12.5762 43.5726 12.5762 43.8093C12.5762 44.046 12.7681 44.2379 13.0047 44.2379ZM14.7634 44.585C14.7634 44.8217 14.5715 45.0136 14.3348 45.0136C14.0981 45.0136 13.9062 44.8217 13.9062 44.585C13.9062 44.3483 14.0981 44.1564 14.3348 44.1564C14.5715 44.1564 14.7634 44.3483 14.7634 44.585ZM15.7928 45.4422C16.0295 45.4422 16.2214 45.2503 16.2214 45.0136C16.2214 44.7769 16.0295 44.585 15.7928 44.585C15.5561 44.585 15.3643 44.7769 15.3643 45.0136C15.3643 45.2503 15.5561 45.4422 15.7928 45.4422ZM17.8689 45.14C17.8689 45.3767 17.677 45.5686 17.4403 45.5686C17.2036 45.5686 17.0117 45.3767 17.0117 45.14C17.0117 44.9033 17.2036 44.7114 17.4403 44.7114C17.677 44.7114 17.8689 44.9033 17.8689 45.14ZM20.9735 44.9022C21.2102 44.9022 21.4021 44.7103 21.4021 44.4736C21.4021 44.2369 21.2102 44.045 20.9735 44.045C20.7368 44.045 20.5449 44.2369 20.5449 44.4736C20.5449 44.7103 20.7368 44.9022 20.9735 44.9022ZM22.7497 43.9186C22.7497 44.1553 22.5578 44.3471 22.3211 44.3471C22.0845 44.3471 21.8926 44.1553 21.8926 43.9186C21.8926 43.6819 22.0845 43.49 22.3211 43.49C22.5578 43.49 22.7497 43.6819 22.7497 43.9186ZM23.4315 43.46C23.6682 43.46 23.8601 43.2681 23.8601 43.0314C23.8601 42.7947 23.6682 42.6028 23.4315 42.6028C23.1948 42.6028 23.0029 42.7947 23.0029 43.0314C23.0029 43.2681 23.1948 43.46 23.4315 43.46ZM23.1941 41.7007C23.1941 41.9374 23.0022 42.1293 22.7655 42.1293C22.5288 42.1293 22.3369 41.9374 22.3369 41.7007C22.3369 41.464 22.5288 41.2722 22.7655 41.2722C23.0022 41.2722 23.1941 41.464 23.1941 41.7007ZM21.1024 41.465C21.3391 41.465 21.531 41.2731 21.531 41.0364C21.531 40.7997 21.3391 40.6078 21.1024 40.6078C20.8657 40.6078 20.6738 40.7997 20.6738 41.0364C20.6738 41.2731 20.8657 41.465 21.1024 41.465ZM20.5329 39.815C20.5329 40.0517 20.341 40.2436 20.1044 40.2436C19.8677 40.2436 19.6758 40.0517 19.6758 39.815C19.6758 39.5784 19.8677 39.3865 20.1044 39.3865C20.341 39.3865 20.5329 39.5784 20.5329 39.815ZM19.8807 38.8057C20.1174 38.8057 20.3093 38.6138 20.3093 38.3771C20.3093 38.1404 20.1174 37.9485 19.8807 37.9485C19.644 37.9485 19.4521 38.1404 19.4521 38.3771C19.4521 38.6138 19.644 38.8057 19.8807 38.8057ZM20.3093 36.8214C20.3093 37.0581 20.1174 37.25 19.8807 37.25C19.644 37.25 19.4521 37.0581 19.4521 36.8214C19.4521 36.5847 19.644 36.3928 19.8807 36.3928C20.1174 36.3928 20.3093 36.5847 20.3093 36.8214ZM20.1044 35.9171C20.341 35.9171 20.5329 35.7253 20.5329 35.4886C20.5329 35.2519 20.341 35.06 20.1044 35.06C19.8677 35.06 19.6758 35.2519 19.6758 35.4886C19.6758 35.7253 19.8677 35.9171 20.1044 35.9171ZM25.8552 35.4886C25.8552 35.7253 25.6633 35.9171 25.4266 35.9171C25.1899 35.9171 24.998 35.7253 24.998 35.4886C24.998 35.2519 25.1899 35.06 25.4266 35.06C25.6633 35.06 25.8552 35.2519 25.8552 35.4886ZM34.1913 35.9171C34.428 35.9171 34.6198 35.7253 34.6198 35.4886C34.6198 35.2519 34.428 35.06 34.1913 35.06C33.9546 35.06 33.7627 35.2519 33.7627 35.4886C33.7627 35.7253 33.9546 35.9171 34.1913 35.9171ZM25.8552 36.8215C25.8552 37.0581 25.6633 37.25 25.4266 37.25C25.1899 37.25 24.998 37.0581 24.998 36.8215C24.998 36.5848 25.1899 36.3929 25.4266 36.3929C25.6633 36.3929 25.8552 36.5848 25.8552 36.8215ZM34.1913 37.25C34.428 37.25 34.6198 37.0581 34.6198 36.8215C34.6198 36.5848 34.428 36.3929 34.1913 36.3929C33.9546 36.3929 33.7627 36.5848 33.7627 36.8215C33.7627 37.0581 33.9546 37.25 34.1913 37.25ZM25.8552 38.3772C25.8552 38.6139 25.6633 38.8058 25.4266 38.8058C25.1899 38.8058 24.998 38.6139 24.998 38.3772C24.998 38.1405 25.1899 37.9486 25.4266 37.9486C25.6633 37.9486 25.8552 38.1405 25.8552 38.3772ZM34.1913 38.8057C34.428 38.8057 34.6198 38.6138 34.6198 38.3771C34.6198 38.1404 34.428 37.9485 34.1913 37.9485C33.9546 37.9485 33.7627 38.1404 33.7627 38.3771C33.7627 38.6138 33.9546 38.8057 34.1913 38.8057ZM25.8552 39.815C25.8552 40.0517 25.6633 40.2436 25.4266 40.2436C25.1899 40.2436 24.998 40.0517 24.998 39.815C24.998 39.5783 25.1899 39.3864 25.4266 39.3864C25.6633 39.3864 25.8552 39.5783 25.8552 39.815ZM34.1913 40.2436C34.428 40.2436 34.6198 40.0517 34.6198 39.815C34.6198 39.5783 34.428 39.3864 34.1913 39.3864C33.9546 39.3864 33.7627 39.5783 33.7627 39.815C33.7627 40.0517 33.9546 40.2436 34.1913 40.2436ZM25.9665 41.2422C25.9665 41.4789 25.7746 41.6707 25.5379 41.6707C25.3013 41.6707 25.1094 41.4789 25.1094 41.2422C25.1094 41.0055 25.3013 40.8136 25.5379 40.8136C25.7746 40.8136 25.9665 41.0055 25.9665 41.2422ZM34.1913 41.6707C34.428 41.6707 34.6198 41.4788 34.6198 41.2421C34.6198 41.0054 34.428 40.8135 34.1913 40.8135C33.9546 40.8135 33.7627 41.0054 33.7627 41.2421C33.7627 41.4788 33.9546 41.6707 34.1913 41.6707ZM34.6198 43.0314C34.6198 43.2681 34.428 43.46 34.1913 43.46C33.9546 43.46 33.7627 43.2681 33.7627 43.0314C33.7627 42.7947 33.9546 42.6028 34.1913 42.6028C34.428 42.6028 34.6198 42.7947 34.6198 43.0314ZM35.7421 43.6828C35.9787 43.6828 36.1706 43.491 36.1706 43.2543C36.1706 43.0176 35.9787 42.8257 35.7421 42.8257C35.5054 42.8257 35.3135 43.0176 35.3135 43.2543C35.3135 43.491 35.5054 43.6828 35.7421 43.6828ZM37.613 43.5864C37.613 43.8231 37.4211 44.015 37.1844 44.015C36.9477 44.015 36.7559 43.8231 36.7559 43.5864C36.7559 43.3497 36.9477 43.1578 37.1844 43.1578C37.4211 43.1578 37.613 43.3497 37.613 43.5864ZM35.7421 44.6814C35.9787 44.6814 36.1706 44.4895 36.1706 44.2529C36.1706 44.0162 35.9787 43.8243 35.7421 43.8243C35.5054 43.8243 35.3135 44.0162 35.3135 44.2529C35.3135 44.4895 35.5054 44.6814 35.7421 44.6814ZM34.6198 44.8207C34.6198 45.0574 34.428 45.2493 34.1913 45.2493C33.9546 45.2493 33.7627 45.0574 33.7627 44.8207C33.7627 44.584 33.9546 44.3922 34.1913 44.3922C34.428 44.3922 34.6198 44.584 34.6198 44.8207ZM32.5262 45.4422C32.7629 45.4422 32.9548 45.2503 32.9548 45.0136C32.9548 44.7769 32.7629 44.585 32.5262 44.585C32.2895 44.585 32.0977 44.7769 32.0977 45.0136C32.0977 45.2503 32.2895 45.4422 32.5262 45.4422ZM31.1804 45.14C31.1804 45.3767 30.9885 45.5686 30.7518 45.5686C30.5151 45.5686 30.3232 45.3767 30.3232 45.14C30.3232 44.9033 30.5151 44.7114 30.7518 44.7114C30.9885 44.7114 31.1804 44.9033 31.1804 45.14ZM29.0887 45.4614C29.3254 45.4614 29.5173 45.2695 29.5173 45.0328C29.5173 44.7961 29.3254 44.6042 29.0887 44.6042C28.852 44.6042 28.6602 44.7961 28.6602 45.0328C28.6602 45.2695 28.852 45.4614 29.0887 45.4614ZM28.0759 44.585C28.0759 44.8217 27.884 45.0136 27.6473 45.0136C27.4106 45.0136 27.2188 44.8217 27.2188 44.585C27.2188 44.3483 27.4106 44.1564 27.6473 44.1564C27.884 44.1564 28.0759 44.3483 28.0759 44.585ZM26.537 44.2378C26.7737 44.2378 26.9655 44.0459 26.9655 43.8092C26.9655 43.5726 26.7737 43.3807 26.537 43.3807C26.3003 43.3807 26.1084 43.5726 26.1084 43.8092C26.1084 44.0459 26.3003 44.2378 26.537 44.2378ZM26.2839 42.5729C26.2839 42.8096 26.092 43.0014 25.8553 43.0014C25.6186 43.0014 25.4268 42.8096 25.4268 42.5729C25.4268 42.3362 25.6186 42.1443 25.8553 42.1443C26.092 42.1443 26.2839 42.3362 26.2839 42.5729ZM24.3192 42.1293C24.5559 42.1293 24.7478 41.9374 24.7478 41.7007C24.7478 41.464 24.5559 41.2722 24.3192 41.2722C24.0825 41.2722 23.8906 41.464 23.8906 41.7007C23.8906 41.9374 24.0825 42.1293 24.3192 42.1293ZM19.6452 45.0285C19.6452 45.2652 19.4534 45.4571 19.2167 45.4571C18.98 45.4571 18.7881 45.2652 18.7881 45.0285C18.7881 44.7919 18.98 44.6 19.2167 44.6C19.4534 44.6 19.6452 44.7919 19.6452 45.0285ZM36.4916 33.2625C38.2599 33.26 40.676 33.2566 41.9408 33.2643V33.2664C42.2686 33.2686 42.6351 33.4293 42.6351 34.0121C42.6351 34.1943 42.6351 34.7579 41.8829 34.7579H6.2065C5.74364 34.7579 5.55078 34.3357 5.55078 34.0121C5.55078 33.5214 5.83792 33.2664 6.33935 33.2664C7.63822 33.2664 8.96623 33.2718 10.2895 33.2772C11.6035 33.2825 12.9128 33.2879 14.1844 33.2879C15.3565 32.6321 16.6229 31.9743 17.8444 31.5221C18.4992 31.2463 19.205 31.0227 19.9194 30.7964C21.6361 30.2524 23.4027 29.6926 24.6329 28.355C25.4103 26.8283 25.1961 24.1375 25.0295 22.0445C24.9927 21.5817 24.9582 21.1482 24.9372 20.7629C24.3029 17.5657 20.8722 17.0343 18.4379 18.575C22.6829 20.45 23.3901 26.2979 18.2836 27.8536C14.7736 28.8007 11.7372 26.1521 12.4036 22.5286C13.1451 15.5514 30.3029 14.78 33.5044 20.0407C34.9256 22.614 34.8378 25.632 34.7509 28.6196C34.705 30.1997 34.6593 31.7714 34.8372 33.2643C35.2233 33.2643 35.8092 33.2635 36.4916 33.2625ZM22.8633 31.6515C21.2852 33.1941 21.0226 33.4507 25.0701 33.1979C25.1324 32.4158 25.121 31.6158 25.1097 30.8168C25.1031 30.3525 25.0965 29.8885 25.1044 29.4286C25.0367 29.0963 24.7865 29.4729 24.5507 29.8279C24.4505 29.9789 24.3528 30.1259 24.2729 30.2129C23.7508 30.784 23.2646 31.2593 22.8633 31.6515Z" fill="#D4D9E6"/>
</svg>
