<svg width="48" height="48" viewBox="0 0 48 48" fill="none" xmlns="http://www.w3.org/2000/svg">
<path d="M38 46.0001V35.7251C40.4862 33.6998 42.4193 31.0782 43.6194 28.1046C44.8194 25.1309 45.2473 21.9019 44.8632 18.7183C44.4791 15.5347 43.2955 12.5001 41.4226 9.8972C39.5498 7.29428 37.0486 5.20772 34.1521 3.83187C31.2556 2.45603 28.0579 1.83566 24.8571 2.02855C21.6562 2.22145 18.5562 3.22133 15.8459 4.93507C13.1356 6.6488 10.9031 9.02063 9.35633 11.8296C7.80962 14.6386 6.999 17.7934 7 21.0001V23.0001L3 32.0001L7 34.0001V42.0001C7 43.0609 7.42143 44.0783 8.17157 44.8285C8.92172 45.5786 9.93913 46.0001 11 46.0001H19C20.3132 46.0001 21.6136 45.7414 22.8268 45.2389C24.0401 44.7363 25.1425 43.9997 26.0711 43.0711C26.9997 42.1425 27.7362 41.0402 28.2388 39.8269C28.7413 38.6136 29 37.3133 29 36.0001V25.0001" stroke="url(#paint0_linear_8106_34599)" stroke-width="2" stroke-linecap="round" stroke-linejoin="round"/>
<path d="M36.0709 28.0717C37.9462 26.1963 38.9997 23.6528 38.9997 21.0007C38.9997 18.3486 37.9462 15.805 36.0709 13.9297M21.9289 13.9297C20.0535 15.805 19 18.3486 19 21.0007C19 23.6528 20.0535 26.1963 21.9289 28.0717M32.9999 21.0007C32.9999 23.2098 31.209 25.0007 28.9999 25.0007C26.7907 25.0007 24.9999 23.2098 24.9999 21.0007C24.9999 18.7915 26.7907 17.0007 28.9999 17.0007C31.209 17.0007 32.9999 18.7915 32.9999 21.0007Z" stroke="#DC244C" stroke-width="2" stroke-miterlimit="10" stroke-linecap="square"/>
<defs>
<linearGradient id="paint0_linear_8106_34599" x1="24" y1="-54.2357" x2="24" y2="46.0001" gradientUnits="userSpaceOnUse">
<stop stop-color="white"/>
<stop offset="1" stop-color="#28324D"/>
</linearGradient>
</defs>
</svg>
