<?xml version="1.0" encoding="UTF-8" standalone="no"?>
<svg
   xmlns:dc="http://purl.org/dc/elements/1.1/"
   xmlns:cc="http://creativecommons.org/ns#"
   xmlns:rdf="http://www.w3.org/1999/02/22-rdf-syntax-ns#"
   xmlns:svg="http://www.w3.org/2000/svg"
   xmlns="http://www.w3.org/2000/svg"
   xmlns:sodipodi="http://sodipodi.sourceforge.net/DTD/sodipodi-0.dtd"
   xmlns:inkscape="http://www.inkscape.org/namespaces/inkscape"
   id="Capa_1"
   enable-background="new 0 0 511.996 511.996"
   height="512"
   viewBox="0 0 511.996 511.996"
   width="512"
   version="1.1"
   sodipodi:docname="tutorial.svg"
   inkscape:version="1.0.2 (e86c870879, 2021-01-15)">
  <metadata
     id="metadata13">
    <rdf:RDF>
      <cc:Work
         rdf:about="">
        <dc:format>image/svg+xml</dc:format>
        <dc:type
           rdf:resource="http://purl.org/dc/dcmitype/StillImage" />
        <dc:title></dc:title>
      </cc:Work>
    </rdf:RDF>
  </metadata>
  <defs
     id="defs11" />
  <sodipodi:namedview
     pagecolor="#ffffff"
     bordercolor="#666666"
     borderopacity="1"
     objecttolerance="10"
     gridtolerance="10"
     guidetolerance="10"
     inkscape:pageopacity="0"
     inkscape:pageshadow="2"
     inkscape:window-width="960"
     inkscape:window-height="1053"
     id="namedview9"
     showgrid="false"
     inkscape:pagecheckerboard="true"
     inkscape:zoom="0.32714646"
     inkscape:cx="403.54456"
     inkscape:cy="376.81187"
     inkscape:window-x="960"
     inkscape:window-y="27"
     inkscape:window-maximized="0"
     inkscape:current-layer="Capa_1" />
  <g
     id="g6"
     style="fill:#ffffff">
    <path
       d="m216.782 341.482c-6.013 0-10.905 4.892-10.905 10.904v20.823c0 6.013 4.892 10.905 10.905 10.905h80.604c6.013 0 10.905-4.893 10.905-10.905v-20.823c0-6.013-4.892-10.904-10.905-10.904h-16.486v-24.305c0-4.143-3.358-7.5-7.5-7.5s-7.5 3.357-7.5 7.5v28.399c0 6.013 4.892 10.905 10.905 10.905h16.486v12.633h-72.414v-12.633h16.486c6.013 0 10.905-4.893 10.905-10.905v-46.729c0-6.014-4.892-10.905-10.905-10.905h-16.486v-12.632h45.023v6.867c0 4.143 3.358 7.5 7.5 7.5s7.5-3.357 7.5-7.5v-10.963c0-6.013-4.892-10.904-10.905-10.904h-53.214c-6.013 0-10.905 4.892-10.905 10.904v20.823c0 6.013 4.892 10.904 10.905 10.904h16.486v38.54h-16.485z"
       id="path2"
       style="fill:#ffffff" />
    <path
       d="m472.894 62.793-214.291-62.424c-1.704-.494-3.506-.492-5.226.004l-214.273 62.419c-4.038 1.174-6.751 4.789-6.752 8.994-.001 4.206 2.711 7.823 6.75 9l64.089 18.668v51.122h-30.84c-10.649 0-19.313 8.664-19.313 19.313v243.625c0 10.649 8.664 19.313 19.313 19.313h39.255v65.527c0 5.533 3.303 10.477 8.416 12.595 5.202 2.153 11.012.889 14.856-2.955l75.167-75.167h229.6c10.649 0 19.313-8.664 19.313-19.313v-118.112c0-4.143-3.358-7.5-7.5-7.5s-7.5 3.357-7.5 7.5v118.113c0 2.379-1.935 4.313-4.313 4.313h-230.166c-3.641 0-7.063 1.418-9.64 3.992l-73.233 73.233v-63.593c0-7.518-6.116-13.633-13.633-13.633h-40.622c-2.378 0-4.313-1.935-4.313-4.313v-243.624c0-2.379 1.935-4.313 4.313-4.313h30.839v18.329c0 7.661 6.232 13.894 13.894 13.894h100.394c8.381 0 16.262 3.264 22.188 9.19l1.36 1.36c-4.788 4.363-7.798 10.646-7.798 17.619 0 13.144 10.693 23.836 23.837 23.836s23.836-10.692 23.836-23.836c0-7.516-3.496-14.23-8.948-18.602l.376-.376c5.927-5.928 13.808-9.191 22.189-9.191h100.394c7.661 0 13.894-6.232 13.894-13.894v-18.329h30.839c2.378 0 4.313 1.935 4.313 4.313v4.469c-8.023 3.038-13.743 10.801-13.743 19.875v25.108c0 4.873 3.965 8.838 8.838 8.838h4.904v32.222c0 4.143 3.358 7.5 7.5 7.5s7.5-3.357 7.5-7.5v-32.222h4.904c4.874 0 8.838-3.965 8.838-8.838v-25.108c0-9.074-5.719-16.837-13.743-19.875v-89.514l13.937-4.06c4.038-1.176 6.75-4.793 6.749-8.999.001-4.205-2.713-7.82-6.748-8.993zm-215.829 172.011c-4.873 0-8.837-3.964-8.837-8.836 0-4.873 3.964-8.837 8.837-8.837s8.836 3.964 8.836 8.837c0 4.872-3.964 8.836-8.836 8.836zm-1.067-106.46-89.792-26.157c-3.978-1.153-8.14 1.127-9.298 5.104-1.159 3.977 1.126 8.14 5.103 9.299l91.364 26.613c1.687.493 3.502.509 5.245.002l135.187-39.38v78.975h-99.287c-12.388 0-24.035 4.824-32.796 13.585l-5.686 5.764-5.764-5.765c-8.761-8.76-20.408-13.584-32.795-13.584h-99.289v-78.975l3.525 1.027c3.979 1.154 8.141-1.126 9.298-5.104 1.158-3.977-1.126-8.14-5.103-9.299-12.117-3.53-50.753-14.783-64.06-18.659l194.147-56.556 168.4 49.056h-168.4c-4.142 0-7.5 3.357-7.5 7.5s3.358 7.5 7.5 7.5h168.4c-37.291 10.862-108.438 31.587-168.399 49.054zm183.646 22.232h-30.839v-51.121l35.152-10.24v61.847c-1.387-.318-2.83-.486-4.313-.486zm18.056 62.604h-12.485v-18.946c0-3.442 2.8-6.242 6.243-6.242s6.243 2.8 6.243 6.242v18.946z"
       id="path4"
       style="fill:#ffffff" />
  </g>
</svg>
