<?xml version="1.0" encoding="UTF-8" standalone="no"?>
<svg
   version="1.0"
   width="512.000000pt"
   height="512.000000pt"
   viewBox="0 0 512.000000 512.000000"
   preserveAspectRatio="xMidYMid meet"
   id="svg24"
   sodipodi:docname="defect.svg"
   inkscape:version="1.1.1 (3bf5ae0d25, 2021-09-20)"
   xmlns:inkscape="http://www.inkscape.org/namespaces/inkscape"
   xmlns:sodipodi="http://sodipodi.sourceforge.net/DTD/sodipodi-0.dtd"
   xmlns="http://www.w3.org/2000/svg"
   xmlns:svg="http://www.w3.org/2000/svg">
  <defs
     id="defs28" />
  <sodipodi:namedview
     id="namedview26"
     pagecolor="#ffffff"
     bordercolor="#666666"
     borderopacity="1.0"
     inkscape:pageshadow="2"
     inkscape:pageopacity="0.0"
     inkscape:pagecheckerboard="true"
     inkscape:document-units="pt"
     showgrid="false"
     inkscape:zoom="1.2670898"
     inkscape:cx="340.93873"
     inkscape:cy="341.33333"
     inkscape:window-width="1920"
     inkscape:window-height="1048"
     inkscape:window-x="0"
     inkscape:window-y="32"
     inkscape:window-maximized="1"
     inkscape:current-layer="svg24" />
  <metadata
     id="metadata2">
Created by potrace 1.16, written by Peter Selinger 2001-2019
</metadata>
  <g
     transform="translate(0.000000,512.000000) scale(0.100000,-0.100000)"
     fill="#000000"
     stroke="none"
     id="g22"
     style="fill:#ffffff">
    <path
       d="M1038 4946 c-26 -7 -63 -25 -82 -40 -27 -20 -150 -218 -493 -789 l-457 -762 -4 -68 c-7 -112 40 -196 133 -238 38 -18 91 -19 970 -19 885 0 932 1 970 19 49 23 99 74 119 123 20 47 20 138 1 185 -8 19 -15 37 -15 39 0 2 65 4 145 4 l145 0 0 -479 c0 -330 4 -489 11 -512 23 -69 92 -119 163 -119 19 0 122 32 228 72 106 39 197 71 203 71 5 0 97 -32 203 -71 106 -40 205 -72 220 -72 48 0 97 19 125 47 57 61 57 60 57 583 l0 480 606 0 606 0 33 -33 c26 -26 34 -44 40 -88 3 -29 5 -687 3 -1461 -3 -1405 -3 -1407 -24 -1435 -11 -15 -36 -36 -55 -45 -32 -17 -139 -18 -1814 -18 -1675 0 -1782 1 -1814 18 -65 33 -76 59 -79 197 l-4 123 239 199 c131 109 244 202 251 207 8 5 44 -20 100 -68 98 -84 141 -106 203 -106 89 0 139 31 330 207 l27 25 76 -57 c95 -70 131 -85 198 -85 98 1 116 15 344 281 115 134 221 259 237 277 32 39 37 113 11 150 -19 28 -65 52 -100 52 -15 0 -117 -46 -226 -102 l-199 -103 -82 87 c-97 102 -129 121 -212 121 -75 0 -89 -7 -267 -135 l-140 -101 -27 34 c-56 73 -127 153 -151 171 -39 28 -127 43 -176 29 -23 -6 -124 -61 -225 -122 -101 -61 -190 -114 -196 -116 -10 -4 -13 128 -13 641 0 633 0 646 -20 666 -28 28 -90 27 -116 -1 -18 -20 -19 -47 -19 -753 l0 -731 56 -110 56 -110 -59 -200 -58 -200 4 -160 c2 -95 9 -176 17 -199 18 -52 89 -129 146 -157 l48 -24 1840 0 c1741 0 1842 1 1878 18 57 27 118 86 143 142 l24 50 0 1490 c0 1477 -1 1490 -21 1535 -25 55 -71 105 -124 133 l-40 22 -1429 5 -1429 5 -383 640 c-211 352 -394 654 -408 671 -49 62 -161 94 -248 70z m98 -158 c36 -17 914 -1481 914 -1525 0 -19 -9 -38 -26 -54 l-26 -24 -893 0 -893 0 -27 25 c-21 20 -26 32 -23 60 5 47 877 1502 910 1518 30 14 32 14 64 0z m2384 -1857 c0 -259 -4 -472 -8 -475 -4 -2 -99 29 -210 70 -111 41 -213 74 -227 74 -14 0 -116 -34 -227 -75 -111 -41 -205 -72 -210 -69 -4 3 -8 216 -8 475 l0 469 445 0 445 0 0 -469z m-1821 -1358 c12 -10 63 -70 114 -133 129 -160 115 -161 356 11 120 85 193 132 210 132 16 0 37 -14 60 -39 114 -128 172 -184 195 -190 20 -5 55 9 157 61 l131 67 -147 -171 c-118 -137 -152 -171 -172 -171 -16 0 -66 30 -133 79 -59 43 -116 82 -127 85 -34 11 -63 -8 -206 -133 -82 -72 -146 -121 -158 -121 -12 0 -74 45 -146 105 -93 78 -131 105 -152 105 -33 0 -59 -19 -261 -188 -85 -71 -156 -129 -158 -127 -2 2 6 34 17 73 30 99 27 124 -24 218 l-45 83 73 44 c227 141 373 227 383 227 7 0 21 -8 33 -17z"
       id="path4"
       style="fill:#ffffff" />
    <path
       d="M1049 4371 l-24 -19 -3 -279 c-4 -301 -1 -334 29 -364 25 -25 79 -25 107 1 22 21 22 25 22 330 0 297 -1 311 -20 330 -26 26 -80 26 -111 1z"
       id="path6"
       style="fill:#ffffff" />
    <path
       d="M1045 3515 c-32 -31 -32 -75 -1 -111 53 -63 155 -16 142 65 -11 70 -92 96 -141 46z"
       id="path8"
       style="fill:#ffffff" />
    <path
       d="M1895 4835 c-23 -22 -25 -31 -25 -125 0 -94 2 -103 25 -125 32 -33 83 -34 113 -2 20 21 22 34 22 129 0 103 -1 107 -26 127 -36 28 -79 27 -109 -4z"
       id="path10"
       style="fill:#ffffff" />
    <path
       d="M2415 4650 c-11 -4 -49 -37 -83 -73 -55 -56 -64 -70 -64 -101 0 -51 25 -76 76 -76 38 0 47 6 110 69 58 58 68 74 69 105 2 57 -57 99 -108 76z"
       id="path12"
       style="fill:#ffffff" />
    <path
       d="M2452 4137 c-30 -32 -29 -81 3 -113 25 -25 30 -26 131 -22 97 3 107 5 125 27 25 30 24 72 -2 105 -20 25 -24 26 -128 26 -99 0 -109 -2 -129 -23z"
       id="path14"
       style="fill:#ffffff" />
    <path
       d="M3691 1364 c-12 -15 -21 -37 -21 -49 0 -12 9 -34 21 -49 l20 -26 215 0 c201 0 215 1 234 20 26 26 27 90 2 113 -16 15 -48 17 -235 17 l-216 0 -20 -26z"
       id="path16"
       style="fill:#ffffff" />
    <path
       d="M4400 1370 c-12 -12 -20 -33 -20 -55 0 -64 23 -75 155 -75 105 0 116 2 135 22 11 12 20 35 20 53 0 18 -9 41 -20 53 -19 20 -30 22 -135 22 -102 0 -117 -2 -135 -20z"
       id="path18"
       style="fill:#ffffff" />
    <path
       d="M3832 1011 c-100 -35 -155 -113 -156 -221 -2 -121 73 -216 189 -240 36 -7 154 -10 347 -8 256 3 298 5 333 21 112 51 169 178 133 298 -15 51 -69 114 -122 142 -40 21 -52 22 -356 24 -286 3 -320 1 -368 -16z m674 -174 c30 -36 30 -68 0 -104 l-24 -28 -286 -3 c-315 -3 -332 0 -355 57 -10 24 -10 35 1 57 25 52 38 54 351 52 l289 -3 24 -28z"
       id="path20"
       style="fill:#ffffff" />
  </g>
</svg>
