<svg width="53" height="40" viewBox="0 0 53 40" fill="none" xmlns="http://www.w3.org/2000/svg">
<g clip-path="url(#clip0_15940_29118)">
<path d="M29.4558 14.2926L29.3726 14.21C29.4034 14.1291 29.4242 14.04 29.4558 13.9624H29.539C29.5174 14.1093 29.4708 14.2067 29.4558 14.2926Z" fill="#111824"/>
<path d="M29.4558 14.2926C28.9899 16.9622 28.4642 19.622 28.0416 22.2999H34.9465L31.6795 12.0035L27.9584 10H33.9482L39.7891 27.7713L42.9329 29.4809H34.1978L36.8666 28.1056C36.9348 27.8852 35.6312 23.9294 35.4889 23.7007C35.3666 23.5043 35.3641 23.4201 35.0763 23.4498L27.7479 23.5348L26.9567 27.8522L30.0382 29.4809H21.719L24.3986 27.971C26.099 23.4011 27.6464 18.7684 29.3726 14.21C29.4367 14.1184 29.4641 14.1456 29.4558 14.2926Z" fill="#111824"/>
<path d="M52.4168 10L49.5051 11.7748L49.4984 27.7077L52.5 29.4809H43.7648L46.7664 27.7093L46.7622 11.7079L43.848 10H52.4168Z" fill="#111824"/>
<path d="M6.82846 10.0825C7.06555 10.0338 7.1762 10.0611 7.16122 10.1651C3.46085 12.8925 5.48574 16.1838 7.90746 18.7932C10.3067 21.3778 14.2667 25.4954 16.9338 27.6672C17.9013 28.4548 19.0094 28.9137 20.0551 29.5642H15.438C12.6136 26.0162 4.7603 20.7537 3.29446 16.6848C2.31696 13.9698 3.61891 10.2551 6.82846 10.0825Z" fill="#111824"/>
<path d="M3.91675 20.1536V20.2361C-1.27859 25.5391 5.33517 31.4274 10.3225 26.0971V26.1797C9.91489 27.8761 8.03059 29.5188 6.33098 29.8548C-0.748656 31.2557 -2.36591 22.1067 3.91675 20.1536Z" fill="#111824"/>
<path d="M9.82338 16.7691C11.3907 14.7367 10.8891 11.2325 8.49314 10.0817C12.1028 9.67805 14.5345 13.9467 12.1112 16.7691H9.82338Z" fill="#111824"/>
<path d="M13.4838 21.6395C13.6169 20.6002 13.2992 19.9579 12.4855 19.3281H15.6468C15.0071 20.1965 14.2841 21.0005 13.567 21.8046C13.4547 21.8954 13.4273 21.8401 13.4838 21.6395Z" fill="#111824"/>
</g>
<defs>
<clipPath id="clip0_15940_29118">
<rect width="52.5" height="40" fill="white"/>
</clipPath>
</defs>
</svg>
