<svg width="178" height="64" viewBox="0 0 178 64" fill="none" xmlns="http://www.w3.org/2000/svg">
<path fill-rule="evenodd" clip-rule="evenodd" d="M21.921 7.79521C22.2614 7.60708 22.6746 7.60708 23.015 7.79521L43.3511 19.0316C43.712 19.2309 43.936 19.6108 43.936 20.0232V25.8044C43.936 26.215 43.7143 26.5932 43.3563 26.7934L41.3757 27.901C40.6211 28.323 39.6918 27.7772 39.6918 26.9123V22.3684C39.6918 21.9559 39.4678 21.576 39.1069 21.3767L23.015 12.4855C22.6746 12.2973 22.2614 12.2973 21.921 12.4855L5.82917 21.3767C5.46836 21.576 5.24434 21.9559 5.24434 22.3684V26.9123C5.24434 27.7772 4.31478 28.323 3.56031 27.901L1.57974 26.7934C1.22178 26.5932 1 26.215 1 25.8044V20.0232C1 19.6108 1.22401 19.2309 1.58481 19.0316L21.921 7.79521ZM5.82917 42.5139C5.46836 42.3147 5.24434 41.9347 5.24434 41.5224V36.3099C5.24434 35.8993 5.02255 35.5211 4.6646 35.321L2.68404 34.2133C1.92955 33.7915 1 34.3372 1 35.2023V43.8692C1 44.2807 1.22295 44.6599 1.5824 44.8597L21.7839 56.086C22.1239 56.2748 22.5368 56.2761 22.8776 56.089L43.3482 44.8585C43.7106 44.6596 43.936 44.2788 43.936 43.8652V35.2023C43.936 34.3372 43.0065 33.7915 42.2521 34.2133L40.2713 35.321C39.9135 35.5211 39.6918 35.8993 39.6918 36.3099V41.5224C39.6918 41.9347 39.4678 42.3147 39.1069 42.5139L35.4181 44.5521C34.6635 44.969 33.7392 44.4227 33.7392 43.5605V26.784C33.7392 26.1582 33.2323 25.6511 32.6073 25.6511H22.33H12.0528C11.4277 25.6511 10.9209 26.1582 10.9209 26.784V43.408C10.9209 44.2704 9.99636 44.8165 9.24198 44.3996L5.82917 42.5139Z" fill="#0866FF"/>
<path d="M72.7875 20.1923C73.2212 20.1923 73.6074 20.4666 73.7506 20.876L82.3447 45.4817C82.3564 45.515 82.3623 45.55 82.3623 45.5853C82.3623 45.7587 82.2216 45.8992 82.0483 45.8992H76.7253C76.2776 45.8992 75.8822 45.6075 75.7505 45.1797L74.6883 41.7345C74.5564 41.3067 74.1612 41.0148 73.7135 41.0148H65.6712C65.2236 41.0148 64.8283 41.3067 64.6964 41.7345L63.6345 45.1797C63.5026 45.6075 63.1071 45.8992 62.6595 45.8992H57.6304C57.4571 45.8992 57.3164 45.7585 57.3164 45.5851C57.3164 45.55 57.3223 45.515 57.3338 45.4819L65.892 20.8773C66.0346 20.4672 66.4212 20.1923 66.8553 20.1923H72.7875ZM66.9113 34.6226C66.706 35.2796 67.1967 35.947 67.885 35.947H71.4998C72.1881 35.947 72.6789 35.2796 72.4736 34.6226L69.7877 26.0281C69.7748 25.9865 69.7361 25.958 69.6924 25.958C69.6488 25.958 69.61 25.9865 69.597 26.0281L66.9113 34.6226Z" fill="#0F172A"/>
<path d="M86.3262 45.8991C85.7627 45.8991 85.306 45.4425 85.306 44.879V19.7434C85.306 19.18 85.7627 18.7233 86.3262 18.7233H89.9415C90.5048 18.7233 90.9616 19.18 90.9616 19.7434V44.879C90.9616 45.4425 90.5048 45.8991 89.9415 45.8991H86.3262Z" fill="#0F172A"/>
<path d="M96.0268 45.8991C95.4633 45.8991 95.0067 45.4425 95.0067 44.879V19.7434C95.0067 19.18 95.4633 18.7233 96.0268 18.7233H99.642C100.205 18.7233 100.662 19.18 100.662 19.7434V28.4282C100.662 28.4836 100.707 28.5287 100.762 28.5287C100.792 28.5287 100.82 28.5155 100.839 28.4931C102.062 27.0722 103.802 26.362 106.061 26.362C108.215 26.362 109.941 26.9862 111.239 28.2349C112.536 29.4834 113.185 31.1605 113.185 33.266V44.879C113.185 45.4425 112.728 45.8991 112.165 45.8991H108.55C107.986 45.8991 107.53 45.4425 107.53 44.879V35.0287C107.53 32.6785 106.452 31.5034 104.298 31.5034C103.27 31.5034 102.4 31.8461 101.69 32.5315C101.005 33.2171 100.662 34.1229 100.662 35.2491V44.879C100.662 45.4425 100.205 45.8991 99.642 45.8991H96.0268Z" fill="#0F172A"/>
<path d="M125.816 46.2295C122.878 46.2295 120.552 45.299 118.838 43.4383C117.149 41.5531 116.304 39.1784 116.304 36.3138C116.304 33.4495 117.124 31.0746 118.765 29.1894C120.405 27.3042 122.719 26.3617 125.706 26.3617C128.545 26.3617 130.786 27.2553 132.426 29.0424C134.066 30.8053 134.886 33.0332 134.886 35.7263V36.7995C134.886 37.3628 134.43 37.8196 133.866 37.8196H123.111C122.54 37.8196 122.065 38.2938 122.18 38.8539C122.323 39.5548 122.605 40.1402 123.025 40.6106C123.637 41.296 124.567 41.6389 125.816 41.6389C127.256 41.6389 128.263 41.214 128.837 40.3644C129.077 40.0095 129.442 39.7293 129.871 39.7293H133.449C134.071 39.7293 134.555 40.2859 134.364 40.8784C133.933 42.2183 133.103 43.3777 131.875 44.3565C130.333 45.605 128.313 46.2295 125.816 46.2295ZM122.286 33.2029C122.112 33.7597 122.596 34.2574 123.179 34.2574H128.048C128.632 34.2574 129.115 33.7597 128.941 33.2029C128.783 32.6979 128.525 32.2659 128.166 31.907C127.603 31.295 126.783 30.9889 125.706 30.9889C124.555 30.9889 123.673 31.295 123.061 31.907C122.702 32.2659 122.444 32.6979 122.286 33.2029Z" fill="#0F172A"/>
<path d="M139.384 45.8988C138.82 45.8988 138.363 45.4422 138.363 44.8787V27.7123C138.363 27.1488 138.82 26.6922 139.384 26.6922H142.627C143.099 26.6922 143.509 27.0156 143.619 27.4741L143.85 28.4384C143.863 28.4912 143.91 28.5284 143.965 28.5284C143.999 28.5284 144.032 28.5129 144.054 28.487C145.277 27.07 147.015 26.3617 149.271 26.3617C151.425 26.3617 153.151 26.9859 154.449 28.2346C155.746 29.4832 156.395 31.1602 156.395 33.2658V44.8787C156.395 45.4422 155.938 45.8988 155.375 45.8988H151.76C151.196 45.8988 150.739 45.4422 150.739 44.8787V35.0284C150.739 32.6782 149.662 31.5031 147.508 31.5031C146.479 31.5031 145.635 31.8458 144.974 32.5312C144.337 33.1924 144.019 34.0982 144.019 35.2488V44.8787C144.019 45.4422 143.562 45.8988 142.999 45.8988H139.384Z" fill="#0F172A"/>
<path d="M166.24 46.2295C164.134 46.2295 162.482 45.6664 161.282 44.54C160.107 43.4138 159.519 41.9694 159.519 40.2065C159.519 38.3705 160.156 36.9259 161.429 35.8733C162.726 34.8205 164.661 34.2941 167.231 34.2941C168.248 34.2941 169.162 34.3646 169.972 34.5059C170.658 34.6253 171.344 34.1259 171.344 33.4296V33.2658C171.344 32.5557 171.099 31.9926 170.61 31.5765C170.145 31.1357 169.41 30.9154 168.406 30.9154C167.549 30.9154 166.864 31.1235 166.35 31.5398C166.151 31.699 165.992 31.8764 165.874 32.0719C165.583 32.5542 165.159 33.0454 164.595 33.0454H161.347C160.784 33.0454 160.318 32.5863 160.396 32.0283C160.603 30.5461 161.278 29.2937 162.42 28.2713C163.84 26.9982 165.897 26.3617 168.59 26.3617C171.161 26.3617 173.205 27.0104 174.723 28.308C176.241 29.581 177 31.2338 177 33.2658V44.8787C177 45.4422 176.543 45.8988 175.98 45.8988H172.741C172.267 45.8988 171.856 45.5725 171.748 45.1113L171.549 44.2638C171.537 44.2105 171.489 44.1728 171.435 44.1728C171.4 44.1728 171.368 44.1876 171.346 44.213C170.148 45.5573 168.446 46.2295 166.24 46.2295ZM167.672 41.8224C168.798 41.8224 169.692 41.5409 170.353 40.9778C171.014 40.4147 171.344 39.717 171.344 38.8846C171.344 38.7736 171.277 38.6732 171.173 38.6341C170.189 38.2625 169.095 38.0767 167.892 38.0767C167.011 38.0767 166.325 38.248 165.836 38.5909C165.346 38.9336 165.101 39.3741 165.101 39.9128C165.101 40.4759 165.322 40.9411 165.762 41.3085C166.203 41.6512 166.84 41.8224 167.672 41.8224Z" fill="#0F172A"/>
</svg>
