<svg width="70" height="64" viewBox="0 0 70 64" fill="none" xmlns="http://www.w3.org/2000/svg">
<path d="M6.52494 16.2358C5.11714 16.6608 3.94841 17.5905 3.41716 18.7327C2.93904 19.6624 2.85936 20.353 2.85936 23.0092V26.1435L4.71871 28.2154C5.75464 29.331 6.57807 30.3404 6.57807 30.4201C6.57807 30.4998 6.2062 30.5794 5.72808 30.5794C4.5859 30.5794 2.80623 31.4826 2.16874 32.3591C1.15937 33.7403 1 34.7497 1 39.584C1 44.6574 1.23906 45.6933 2.6203 46.9683C4.00153 48.2167 4.87808 48.3761 10.7218 48.3761C17.0436 48.3761 17.867 48.2168 19.2217 46.7027L20.1779 45.6668L22.9404 48.3761H27.8544L24.2685 44.4184L20.656 40.4606V34.2981H26.4997V30.5794H23.7107C20.8154 30.5794 19.4873 30.8982 18.4514 31.8544C17.7076 32.5185 16.9373 34.1653 16.9373 35.095C16.9373 35.5731 16.8311 35.8919 16.6983 35.8388C16.5655 35.7856 14.2545 33.3153 11.5186 30.3138L6.57807 24.8686L6.65775 22.3451L6.71088 19.8217H16.8045L16.9639 26.0639H20.656V23.0092C20.656 21.017 20.5232 19.6358 20.2842 19.078C19.8326 17.9358 18.2654 16.6077 17.017 16.2624C15.8483 15.9171 7.58743 15.9171 6.52494 16.2358ZM13.4842 38.0434L16.8045 41.7621V44.5246H4.85152L4.77184 39.3981L4.71871 34.2981H10.164L13.4842 38.0434Z" fill="black"/>
<path d="M41.0293 17.3514C40.6574 18.467 30.2716 47.3932 30.006 48.0573C29.9263 48.3229 30.4044 48.376 32.2372 48.3229L34.5747 48.2432L36.009 44.1792L37.4699 40.1417L45.4386 40.1949L53.3807 40.2746L54.7885 44.2589L56.1697 48.2432L58.4807 48.3229C59.7291 48.3495 60.765 48.3229 60.765 48.2698C60.765 48.137 49.9542 17.9623 49.4761 16.6873C49.3167 16.2889 48.8651 16.2357 45.3589 16.2357H41.4277L41.0293 17.3514ZM48.9979 27.7903C50.4854 32.0137 51.787 35.7059 51.8667 35.9449C52.026 36.3965 51.601 36.423 45.5183 36.423C41.3746 36.423 38.984 36.3168 38.984 36.1574C38.984 36.0246 40.259 32.3059 41.8261 27.9231L44.6417 19.9279L45.4652 20.0076C46.262 20.0873 46.262 20.0873 48.9979 27.7903Z" fill="black"/>
<path d="M64.4844 48.3761H69V16.2358H64.4844V48.3761Z" fill="black"/>
</svg>
