<svg width="160" height="64" viewBox="0 0 160 64" fill="none" xmlns="http://www.w3.org/2000/svg">
<g clip-path="url(#clip0_17151_33560)">
<g clip-path="url(#clip1_17151_33560)">
<path d="M40.7532 47.858C44.2994 47.6948 45.0311 43.1429 47.7799 44.6027C48.5726 45.0224 49.0792 46.7433 48.3475 47.5595C46.959 49.1079 45.5893 50.4044 43.9898 51.4538C41.2645 53.24 38.0513 52.5265 36.0906 49.9754C33.8062 47.0045 32.4693 43.516 31.2638 39.7103C29.0685 43.4833 26.24 46.7853 22.4874 49.1499C16.5583 52.8809 9.24546 51.5797 5.10354 45.652C-1.50572 36.1938 0.0563004 22.5941 8.43865 14.8149C13.7955 10.0624 20.5501 10.6314 25.194 15.7196C28.7073 19.5673 30.4992 24.1052 32.4693 29.0348L38.9988 13.8215C39.3084 13.1032 39.6368 12.1285 40.9971 12.1285C43.0798 12.1285 43.38 13.5556 43.1032 14.2879C40.467 21.2929 37.5166 28.0414 34.1205 34.8599C34.9226 37.7095 36.7801 48.0399 40.7532 47.858ZM29.5376 34.5335C28.0366 28.4472 23.1066 16.1627 15.4138 15.9155C6.7453 15.6404 2.32662 31.2175 7.0455 41.6178C8.19474 44.1503 10.5307 46.0251 12.5196 46.6734C19.5557 48.9587 26.8076 40.5218 29.5376 34.5335Z" fill="url(#paint0_linear_17151_33560)"/>
<path d="M147.671 46.6065C146.409 46.6065 145.273 46.3818 144.262 45.9324C143.259 45.4744 142.464 44.8002 141.876 43.91C141.297 43.0198 141.008 41.9222 141.008 40.6172C141.008 39.4937 141.215 38.5646 141.63 37.8299C142.045 37.0953 142.611 36.5076 143.328 36.0668C144.046 35.6261 144.854 35.2933 145.753 35.0686C146.66 34.8353 147.598 34.6667 148.566 34.563C149.733 34.442 150.679 34.334 151.405 34.2389C152.131 34.1352 152.658 33.9796 152.987 33.7722C153.324 33.5562 153.492 33.2234 153.492 32.774V32.6962C153.492 31.7196 153.203 30.9634 152.624 30.4275C152.044 29.8917 151.21 29.6238 150.121 29.6238C148.972 29.6238 148.06 29.8744 147.386 30.3757C146.721 30.8769 146.271 31.469 146.038 32.1517L141.656 31.5295C142.002 30.3195 142.572 29.3083 143.367 28.4959C144.162 27.6748 145.135 27.0612 146.284 26.655C147.434 26.2402 148.704 26.0327 150.096 26.0327C151.055 26.0327 152.01 26.1451 152.961 26.3698C153.911 26.5945 154.78 26.9661 155.566 27.4847C156.353 27.9946 156.984 28.6904 157.459 29.5719C157.943 30.4535 158.185 31.5554 158.185 32.8777V46.2047H153.674V43.4693H153.518C153.233 44.0224 152.831 44.541 152.312 45.0249C151.802 45.5003 151.159 45.8849 150.381 46.1787C149.612 46.4639 148.708 46.6065 147.671 46.6065ZM148.89 43.1581C149.832 43.1581 150.649 42.9723 151.34 42.6007C152.031 42.2204 152.563 41.7191 152.935 41.0969C153.315 40.4746 153.505 39.7961 153.505 39.0615V36.715C153.358 36.836 153.108 36.9484 152.753 37.0521C152.407 37.1558 152.019 37.2466 151.586 37.3243C151.154 37.4021 150.726 37.4713 150.303 37.5318C149.879 37.5923 149.512 37.6441 149.201 37.6873C148.501 37.7824 147.874 37.938 147.321 38.154C146.768 38.3701 146.332 38.6726 146.012 39.0615C145.692 39.4418 145.532 39.9344 145.532 40.5394C145.532 41.4037 145.848 42.0562 146.479 42.497C147.11 42.9377 147.913 43.1581 148.89 43.1581Z" fill="black"/>
<path d="M109.179 46.2047V26.292H113.664V29.6756H113.898C114.312 28.5348 115 27.6446 115.959 27.005C116.918 26.3568 118.063 26.0327 119.394 26.0327C120.743 26.0327 121.879 26.3612 122.804 27.018C123.737 27.6662 124.394 28.5521 124.774 29.6756H124.982C125.423 28.5694 126.166 27.6878 127.212 27.031C128.266 26.3655 129.515 26.0327 130.958 26.0327C132.79 26.0327 134.286 26.6118 135.444 27.7699C136.602 28.928 137.181 30.6177 137.181 32.8388V46.2047H132.475V33.5648C132.475 32.3289 132.147 31.4258 131.49 30.8553C130.833 30.2763 130.029 29.9868 129.078 29.9868C127.946 29.9868 127.06 30.3411 126.421 31.0498C125.79 31.7498 125.474 32.6616 125.474 33.7852V46.2047H120.872V33.3703C120.872 32.3419 120.561 31.5208 119.939 30.9072C119.325 30.2936 118.521 29.9868 117.527 29.9868C116.853 29.9868 116.24 30.1596 115.687 30.5053C115.133 30.8424 114.693 31.322 114.364 31.9443C114.036 32.5579 113.872 33.2753 113.872 34.0963V46.2047H109.179Z" fill="black"/>
<path d="M99.6589 46.2045V26.2919H104.352V46.2045H99.6589ZM102.018 23.4657C101.275 23.4657 100.636 23.2194 100.1 22.7268C99.5638 22.2255 99.2959 21.6249 99.2959 20.9248C99.2959 20.2161 99.5638 19.6155 100.1 19.1228C100.636 18.6215 101.275 18.3709 102.018 18.3709C102.77 18.3709 103.41 18.6215 103.937 19.1228C104.473 19.6155 104.741 20.2161 104.741 20.9248C104.741 21.6249 104.473 22.2255 103.937 22.7268C103.41 23.2194 102.77 23.4657 102.018 23.4657Z" fill="black"/>
<path d="M82.106 34.5371V46.2047H77.4131V26.292H81.8986V29.6756H82.132C82.59 28.5607 83.3203 27.6748 84.3229 27.018C85.3341 26.3612 86.5829 26.0327 88.0695 26.0327C89.4436 26.0327 90.6406 26.3266 91.6605 26.9143C92.6889 27.502 93.4841 28.3533 94.0458 29.4682C94.6163 30.5831 94.8971 31.9357 94.8885 33.5259V46.2047H90.1955V34.2519C90.1955 32.9209 89.8498 31.8795 89.1584 31.1276C88.4757 30.3757 87.5293 29.9997 86.3193 29.9997C85.4983 29.9997 84.768 30.1812 84.1284 30.5442C83.4975 30.8985 83.0005 31.4128 82.6376 32.0869C82.2832 32.761 82.106 33.5778 82.106 34.5371Z" fill="black"/>
<path d="M62.1801 46.6065C60.9183 46.6065 59.7817 46.3818 58.7706 45.9324C57.768 45.4744 56.9729 44.8002 56.3852 43.91C55.8061 43.0198 55.5166 41.9222 55.5166 40.6172C55.5166 39.4937 55.724 38.5646 56.1389 37.8299C56.5537 37.0953 57.1198 36.5076 57.8371 36.0668C58.5545 35.6261 59.3626 35.2933 60.2614 35.0686C61.1689 34.8353 62.1066 34.6667 63.0746 34.563C64.2413 34.442 65.1877 34.334 65.9137 34.2389C66.6397 34.1352 67.1669 33.9796 67.4953 33.7722C67.8324 33.5562 68.0009 33.2234 68.0009 32.774V32.6962C68.0009 31.7196 67.7114 30.9634 67.1323 30.4275C66.5532 29.8917 65.7192 29.6238 64.6303 29.6238C63.4808 29.6238 62.569 29.8744 61.8949 30.3757C61.2294 30.8769 60.78 31.469 60.5466 32.1517L56.1648 31.5295C56.5105 30.3195 57.0809 29.3083 57.876 28.4959C58.6712 27.6748 59.6435 27.0612 60.7929 26.655C61.9424 26.2402 63.2129 26.0327 64.6043 26.0327C65.5637 26.0327 66.5187 26.1451 67.4694 26.3698C68.4201 26.5945 69.2886 26.9661 70.0751 27.4847C70.8616 27.9946 71.4925 28.6904 71.9679 29.5719C72.4519 30.4535 72.6938 31.5554 72.6938 32.8777V46.2047H68.1824V43.4693H68.0268C67.7416 44.0224 67.3397 44.541 66.8212 45.0249C66.3113 45.5003 65.6674 45.8849 64.8895 46.1787C64.1203 46.4639 63.2172 46.6065 62.1801 46.6065ZM63.3987 43.1581C64.3407 43.1581 65.1575 42.9723 65.8489 42.6007C66.5403 42.2204 67.0718 41.7191 67.4434 41.0969C67.8237 40.4746 68.0139 39.7961 68.0139 39.0615V36.715C67.8669 36.836 67.6163 36.9484 67.2619 37.0521C66.9162 37.1558 66.5273 37.2466 66.0952 37.3243C65.6631 37.4021 65.2352 37.4713 64.8118 37.5318C64.3883 37.5923 64.021 37.6441 63.7098 37.6873C63.0098 37.7824 62.3832 37.938 61.83 38.154C61.2769 38.3701 60.8405 38.6726 60.5207 39.0615C60.2009 39.4418 60.041 39.9344 60.041 40.5394C60.041 41.4037 60.3565 42.0562 60.9874 42.497C61.6183 42.9377 62.4221 43.1581 63.3987 43.1581Z" fill="black"/>
</g>
</g>
<defs>
<linearGradient id="paint0_linear_17151_33560" x1="0.998924" y1="31.9987" x2="48.7318" y2="31.9987" gradientUnits="userSpaceOnUse">
<stop stop-color="#BD16D0"/>
<stop offset="0.586112" stop-color="#6A28E3"/>
<stop offset="0.985577" stop-color="#1736E3"/>
</linearGradient>
<clipPath id="clip0_17151_33560">
<rect width="160" height="64" fill="white"/>
</clipPath>
<clipPath id="clip1_17151_33560">
<rect width="160" height="40.8873" fill="white" transform="translate(1 11.5564)"/>
</clipPath>
</defs>
</svg>
