<svg width="146" height="64" viewBox="0 0 146 64" fill="none" xmlns="http://www.w3.org/2000/svg">
<g clip-path="url(#clip0_14020_10367)">
<g clip-path="url(#clip1_14020_10367)">
<path d="M16.7144 20.6599L12.4627 32.8766H21.0737L16.7144 20.6599ZM12.6242 45.2548V47.5151H1.75293V45.2548H5.19729L15.7995 16.193H19.9435L30.8686 45.2548H34.2053V47.5151H21.6118V45.2548H25.5406L21.8809 35.0831H11.6555L8.10347 45.2548H12.6242ZM47.2218 45.5777V47.5151H35.0588V45.5777H38.234V26.5261H35.0588V24.5886H42.97V28.5711C45.0689 26.5261 47.4909 24.0504 49.3744 24.0504C51.1505 24.0504 52.7112 25.1806 53.5723 26.2031L51.0429 30.1319C49.4283 29.0017 48.1366 27.9791 46.6835 27.9791C45.984 27.9791 44.5846 28.3021 42.97 29.7551V45.5777H47.2218ZM66.3373 32.2308C66.3373 29.4322 64.9379 27.1719 61.5474 27.1719C59.0718 27.1719 57.0805 29.0017 55.8965 31.7464L53.9052 30.9391C55.4121 26.9566 58.695 24.0504 63.1619 24.0504C67.8979 24.0504 71.0733 27.0104 71.0733 32.0155V43.425C71.0733 44.7704 71.719 45.3086 72.6339 45.3086C73.495 45.3086 74.2485 44.8781 74.8405 44.3399L75.863 45.6853C74.7868 46.8693 73.2259 48.0533 71.4499 48.0533C69.0819 48.0533 67.1445 46.8693 66.391 44.1784C64.8303 46.1159 62.1932 47.9995 59.3408 47.9995C56.2732 47.9995 53.5285 46.0082 53.5285 42.5101C53.5285 39.1733 56.327 37.505 59.7176 36.2671L66.3373 33.8991V32.2308ZM66.3373 35.7828L61.8165 37.505C59.6099 38.3661 58.2107 39.4962 58.2107 41.5951C58.2107 43.9631 59.5023 45.201 61.3321 45.201C63.2696 45.201 65.0456 44.0708 66.3373 42.6715V35.7828ZM87.2806 26.0417C83.89 26.0417 80.6071 29.1093 80.6071 34.545C80.6071 40.8955 84.6435 45.0933 89.1642 45.0933C90.994 45.0933 92.8776 44.5013 94.6536 42.5101L95.73 43.5864C93.5235 46.6002 90.4558 48.0533 87.2267 48.0533C81.3067 48.0533 76.0864 43.5864 76.0864 36.6977C76.0864 29.7551 81.0915 24.0504 87.4958 24.0504C90.0791 24.0504 91.8551 25.1268 92.77 26.0417L93.3082 24.2657H94.8689V32.3384H93.0929C92.2856 28.0868 90.3482 26.0417 87.2806 26.0417ZM107.84 48.0533C102.297 48.0533 96.861 43.425 96.861 36.0519C96.861 28.6788 102.297 24.0504 107.84 24.0504C113.383 24.0504 118.819 28.6788 118.819 36.0519C118.819 43.425 113.383 48.0533 107.84 48.0533ZM107.84 26.0955C104.342 26.0955 101.812 29.5937 101.812 36.0519C101.812 42.5101 104.342 46.0082 107.84 46.0082C111.338 46.0082 113.867 42.5101 113.867 36.0519C113.867 29.5937 111.338 26.0955 107.84 26.0955ZM132.948 45.5777V47.5151H120.785V45.5777H123.961V26.5261H120.785V24.5886H128.697V28.5711C130.795 26.5261 133.217 24.0504 135.101 24.0504C136.877 24.0504 138.438 25.1806 139.299 26.2031L136.769 30.1319C135.155 29.0017 133.863 27.9791 132.41 27.9791C131.71 27.9791 130.311 28.3021 128.697 29.7551V45.5777H132.948Z" fill="#3C3430"/>
<path d="M138.022 44.5553C138.022 42.6178 139.583 41.0571 141.521 41.0571C143.458 41.0571 145.019 42.6178 145.019 44.5553C145.019 46.4927 143.458 48.0535 141.521 48.0535C139.583 48.0535 138.022 46.4927 138.022 44.5553Z" fill="#E35336"/>
</g>
</g>
<defs>
<clipPath id="clip0_14020_10367">
<rect width="146" height="64" fill="white"/>
</clipPath>
<clipPath id="clip1_14020_10367">
<rect width="148" height="33.6364" fill="white" transform="translate(1 15)"/>
</clipPath>
</defs>
</svg>
