<svg width="43" height="40" viewBox="0 0 43 40" fill="none" xmlns="http://www.w3.org/2000/svg">
<g clip-path="url(#clip0_15940_29154)">
<path d="M12.0453 19.0795C12.0453 19.5939 12.1015 20.0111 12.1997 20.317C12.3119 20.6229 12.4522 20.9566 12.6487 21.3181C12.7189 21.4293 12.7469 21.5405 12.7469 21.6379C12.7469 21.7769 12.6627 21.9159 12.4803 22.055L11.5963 22.639C11.47 22.7224 11.3437 22.7641 11.2315 22.7641C11.0912 22.7641 10.9509 22.6946 10.8105 22.5694C10.6141 22.3609 10.4457 22.1384 10.3054 21.9159C10.1651 21.6796 10.0248 21.4154 9.87041 21.0956C8.77594 22.3748 7.40083 23.0144 5.74508 23.0144C4.56642 23.0144 3.62629 22.6807 2.93874 22.0133C2.25118 21.3459 1.90039 20.456 1.90039 19.3437C1.90039 18.1618 2.32134 17.2024 3.17728 16.4794C4.03321 15.7564 5.16978 15.3949 6.61505 15.3949C7.09213 15.3949 7.58324 15.4366 8.10241 15.5061C8.62159 15.5756 9.15479 15.6868 9.71606 15.812V14.797C9.71606 13.7402 9.49155 13.0033 9.05657 12.5723C8.60756 12.1413 7.84984 11.9327 6.7694 11.9327C6.27829 11.9327 5.77315 11.9883 5.25397 12.1134C4.7348 12.2386 4.22966 12.3915 3.73855 12.5862C3.51404 12.6835 3.34566 12.7391 3.24744 12.7669C3.14921 12.7948 3.07906 12.8087 3.02293 12.8087C2.82648 12.8087 2.72826 12.6696 2.72826 12.3776V11.6963C2.72826 11.4739 2.75633 11.307 2.82648 11.2097C2.89664 11.1123 3.02293 11.015 3.21937 10.9177C3.71048 10.6674 4.29982 10.4588 4.98737 10.292C5.67492 10.1112 6.40457 10.0278 7.17632 10.0278C8.84609 10.0278 10.0669 10.4032 10.8526 11.1541C11.6244 11.9049 12.0173 13.045 12.0173 14.5745V19.0795H12.0453ZM6.34845 21.1929C6.81149 21.1929 7.28857 21.1095 7.79372 20.9427C8.29886 20.7758 8.74787 20.4699 9.12673 20.0528C9.35124 19.7886 9.51962 19.4966 9.60381 19.1629C9.688 18.8292 9.74413 18.426 9.74413 17.9532V17.3693C9.33721 17.2719 8.90222 17.1885 8.45321 17.1329C8.00419 17.0773 7.56921 17.0495 7.13422 17.0495C6.1941 17.0495 5.50654 17.2302 5.0435 17.6056C4.58045 17.981 4.35594 18.5094 4.35594 19.2046C4.35594 19.8581 4.52432 20.3448 4.87512 20.6785C5.21188 21.0261 5.70299 21.1929 6.34845 21.1929ZM17.6159 22.6946C17.3634 22.6946 17.195 22.6529 17.0827 22.5555C16.9705 22.4721 16.8722 22.2775 16.7881 22.0133L13.4906 11.2653C13.4064 10.9872 13.3643 10.8064 13.3643 10.7091C13.3643 10.4866 13.4766 10.3615 13.7011 10.3615H15.0762C15.3428 10.3615 15.5252 10.4032 15.6234 10.5006C15.7357 10.584 15.8199 10.7786 15.9041 11.0428L18.2614 20.2474L20.4503 11.0428C20.5205 10.7647 20.6047 10.584 20.7169 10.5006C20.8292 10.4171 21.0256 10.3615 21.2782 10.3615H22.4007C22.6673 10.3615 22.8498 10.4032 22.962 10.5006C23.0743 10.584 23.1725 10.7786 23.2286 11.0428L25.4456 20.3587L27.8731 11.0428C27.9573 10.7647 28.0555 10.584 28.1537 10.5006C28.266 10.4171 28.4484 10.3615 28.701 10.3615H30.0059C30.2304 10.3615 30.3567 10.4727 30.3567 10.7091C30.3567 10.7786 30.3427 10.8482 30.3287 10.9316C30.3146 11.015 30.2866 11.1262 30.2304 11.2792L26.8488 22.0272C26.7646 22.3053 26.6664 22.486 26.5541 22.5694C26.4419 22.6529 26.2595 22.7085 26.0209 22.7085H24.8142C24.5476 22.7085 24.3652 22.6668 24.2529 22.5694C24.1407 22.4721 24.0425 22.2914 23.9863 22.0133L21.8114 13.045L19.6505 21.9994C19.5804 22.2775 19.4962 22.4582 19.3839 22.5555C19.2717 22.6529 19.0752 22.6946 18.8227 22.6946H17.6159ZM35.6467 23.07C34.917 23.07 34.1874 22.9866 33.4858 22.8197C32.7842 22.6529 32.237 22.4721 31.8722 22.2636C31.6476 22.1384 31.4933 21.9994 31.4372 21.8742C31.381 21.7491 31.353 21.6101 31.353 21.4849V20.7758C31.353 20.4838 31.4652 20.3448 31.6757 20.3448C31.7599 20.3448 31.8441 20.3587 31.9283 20.3865C32.0125 20.4143 32.1388 20.4699 32.2791 20.5255C32.7562 20.7341 33.2753 20.9009 33.8226 21.0122C34.3838 21.1234 34.9311 21.179 35.4923 21.179C36.3763 21.179 37.0639 21.0261 37.541 20.7202C38.0181 20.4143 38.2706 19.9694 38.2706 19.3993C38.2706 19.01 38.1443 18.6902 37.8918 18.426C37.6392 18.1618 37.1621 17.9254 36.4746 17.703L34.44 17.0773C33.4156 16.7575 32.6579 16.2847 32.1949 15.659C31.7318 15.0472 31.4933 14.3659 31.4933 13.6429C31.4933 13.0589 31.6196 12.5445 31.8722 12.0995C32.1247 11.6546 32.4615 11.2653 32.8824 10.9594C33.3034 10.6396 33.7805 10.4032 34.3417 10.2364C34.903 10.0695 35.4923 10 36.1097 10C36.4184 10 36.7412 10.0139 37.0499 10.0556C37.3726 10.0973 37.6673 10.1529 37.9619 10.2086C38.2426 10.2781 38.5092 10.3476 38.7617 10.431C39.0143 10.5145 39.2107 10.5979 39.3511 10.6813C39.5475 10.7925 39.6878 10.9038 39.772 11.0289C39.8562 11.1401 39.8983 11.2931 39.8983 11.4878V12.1413C39.8983 12.4332 39.7861 12.5862 39.5756 12.5862C39.4633 12.5862 39.2809 12.5306 39.0424 12.4193C38.2426 12.0578 37.3445 11.8771 36.3483 11.8771C35.5485 11.8771 34.917 12.0022 34.4821 12.2664C34.0471 12.5306 33.8226 12.9338 33.8226 13.5039C33.8226 13.8932 33.9629 14.2269 34.2435 14.4911C34.5242 14.7553 35.0433 15.0194 35.787 15.2558L37.7795 15.8815C38.7898 16.2013 39.5194 16.6462 39.9544 17.2163C40.3894 17.7864 40.5999 18.4399 40.5999 19.1629C40.5999 19.7608 40.4736 20.3031 40.2351 20.7758C39.9825 21.2485 39.6457 21.6657 39.2107 21.9994C38.7758 22.347 38.2566 22.5973 37.6532 22.778C37.0218 22.9727 36.3623 23.07 35.6467 23.07Z" fill="#111824"/>
<path fill-rule="evenodd" clip-rule="evenodd" d="M38.299 29.8278C33.6825 33.2066 26.9754 35.0002 21.2083 35.0002C13.1261 35.0002 5.84359 32.0386 0.343155 27.1165C-0.0918285 26.7272 0.30106 26.1988 0.820234 26.5047C6.76969 29.9252 14.1083 31.9969 21.6994 31.9969C26.821 31.9969 32.4478 30.9402 37.6255 28.7711C38.3972 28.4235 39.0567 29.2717 38.299 29.8278Z" fill="#FF9900"/>
<path fill-rule="evenodd" clip-rule="evenodd" d="M40.2195 27.6588C39.6302 26.9079 36.3187 27.2972 34.8173 27.478C34.3683 27.5336 34.2981 27.1443 34.705 26.8523C37.343 25.0169 41.6788 25.5453 42.1839 26.1571C42.6891 26.7828 42.0436 31.0792 39.574 33.137C39.1952 33.4568 38.8304 33.29 38.9987 32.8728C39.56 31.4963 40.8088 28.3957 40.2195 27.6588Z" fill="#FF9900"/>
</g>
<defs>
<clipPath id="clip0_15940_29154">
<rect width="42.5" height="40" fill="white"/>
</clipPath>
</defs>
</svg>
