<svg width="78" height="64" viewBox="0 0 78 64" fill="none" xmlns="http://www.w3.org/2000/svg">
<path fill-rule="evenodd" clip-rule="evenodd" d="M47.7129 24.2919C47.7129 11.4285 37.2561 1 24.3565 1C11.4569 1 1.00004 11.4285 1.00004 24.2919V47.5843H24.3565C37.2561 47.5843 47.7129 37.1558 47.7129 24.2919ZM34.3622 20.6843C35.9558 20.6843 37.2476 21.9726 37.2476 23.5618C37.2476 25.1507 35.9558 26.439 34.3622 26.439C32.7687 26.439 31.4769 25.1507 31.4769 23.5618C31.4769 21.9726 32.7687 20.6843 34.3622 20.6843ZM34.3622 28.3887C35.9558 28.3887 37.2476 29.677 37.2476 31.2659C37.2476 32.8551 35.9558 34.1434 34.3622 34.1434C32.7687 34.1434 31.4769 32.8551 31.4769 31.2659C31.4769 29.677 32.7687 28.3887 34.3622 28.3887ZM12.1463 27.3931V14.7205H17.2299V27.3931C17.2299 29.353 18.8229 30.9419 20.7878 30.9419C22.753 30.9419 24.3459 29.353 24.3459 27.3931C24.3459 25.4335 22.753 23.8449 20.7878 23.8449H19.2632V18.7761H20.7878C25.5606 18.7761 29.4287 22.6337 29.4287 27.3931C29.4287 32.1528 25.5606 36.0107 20.7878 36.0107C16.0156 36.0107 12.1463 32.1528 12.1463 27.3931Z" fill="#002855"/>
<path fill-rule="evenodd" clip-rule="evenodd" d="M47.7134 60.69L46.1268 56.1097H44.2683L46.7552 62.6549H48.6795L51.1664 56.1097H49.3078L47.7134 60.69Z" fill="#002855"/>
<path fill-rule="evenodd" clip-rule="evenodd" d="M54.6231 55.9267C53.6544 55.9267 52.8367 56.2603 52.1689 56.9278C51.5014 57.5956 51.1675 58.4136 51.1675 59.3823C51.1675 60.351 51.5014 61.169 52.1689 61.8362C52.8367 62.5043 53.6544 62.8382 54.6231 62.8382C55.5918 62.8382 56.4118 62.5043 57.084 61.8362C57.7559 61.169 58.0922 60.351 58.0922 59.3823C58.0922 58.4136 57.7559 57.5956 57.084 56.9278C56.4118 56.2603 55.5918 55.9267 54.6231 55.9267ZM55.893 60.6782C55.5527 61.0185 55.1291 61.1886 54.6231 61.1886C54.1169 61.1886 53.6959 61.0185 53.3602 60.6782C53.024 60.3379 52.856 59.9058 52.856 59.3823C52.856 58.8585 53.024 58.427 53.3602 58.0864C53.6959 57.7461 54.1169 57.5758 54.6231 57.5758C55.1291 57.5758 55.5527 57.7461 55.893 58.0864C56.2333 58.427 56.4034 58.8585 56.4034 59.3823C56.4034 59.9058 56.2333 60.3379 55.893 60.6782Z" fill="#002855"/>
<path fill-rule="evenodd" clip-rule="evenodd" d="M58.9911 62.6547H60.6796V56.1098H58.9911V62.6547Z" fill="#002855"/>
<path fill-rule="evenodd" clip-rule="evenodd" d="M66.0937 60.9334C65.8273 61.0862 65.5244 61.1625 65.184 61.1625C64.6778 61.1625 64.2591 60.9948 63.9276 60.6585C63.5957 60.3226 63.4301 59.897 63.4301 59.3819C63.4301 58.8584 63.5957 58.429 63.9276 58.0928C64.2591 57.7568 64.6778 57.5891 65.184 57.5891C65.5156 57.5891 65.8144 57.6677 66.0806 57.8243C66.3467 57.9818 66.5453 58.1956 66.6762 58.4661L68.1293 57.6154C67.8585 57.1001 67.4615 56.6902 66.938 56.385C66.4145 56.0794 65.834 55.9266 65.1972 55.9266C64.2109 55.9266 63.3883 56.2585 62.7295 56.9213C62.0708 57.5847 61.7416 58.405 61.7416 59.3819C61.7416 60.3594 62.0708 61.1803 62.7295 61.8428C63.3883 62.5066 64.2109 62.8381 65.1972 62.8381C65.834 62.8381 66.4145 62.683 66.938 62.3736C67.4615 62.0637 67.8675 61.6515 68.1553 61.1359L66.6894 60.2986C66.5582 60.5694 66.3598 60.7809 66.0937 60.9334Z" fill="#002855"/>
<path fill-rule="evenodd" clip-rule="evenodd" d="M72.2012 55.9267C71.189 55.9267 70.3599 56.2562 69.7143 56.915C69.0684 57.574 68.7456 58.3964 68.7456 59.3823C68.7456 60.377 69.0728 61.202 69.7275 61.8564C70.3819 62.5107 71.2501 62.8382 72.3321 62.8382C73.5889 62.8382 74.54 62.3711 75.1856 61.4375L73.8243 60.6522C73.4925 61.0886 73.004 61.3066 72.3584 61.3066C71.3546 61.3066 70.7397 60.8967 70.5127 60.0761H75.4474C75.4909 59.8319 75.5128 59.6008 75.5128 59.3823C75.5128 58.4048 75.2008 57.5845 74.5771 56.9214C73.9529 56.2586 73.1612 55.9267 72.2012 55.9267ZM70.4867 58.7671C70.5822 58.3482 70.7789 58.0233 71.0757 57.792C71.3722 57.5609 71.7473 57.4449 72.2012 57.4449C72.5851 57.4449 72.9278 57.5544 73.2287 57.7721C73.5301 57.9906 73.7282 58.3222 73.8243 58.7671H70.4867Z" fill="#002855"/>
<path fill-rule="evenodd" clip-rule="evenodd" d="M4.80909 55.9075C3.89297 55.9075 3.18601 56.2263 2.68852 56.8631V53.4726H1V62.6356H2.68852V61.8632C3.18601 62.5006 3.89297 62.8191 4.80909 62.8191C5.69045 62.8191 6.44298 62.4854 7.06697 61.8173C7.69096 61.1498 8.00296 60.3321 8.00296 59.3632C8.00296 58.3944 7.69096 57.5765 7.06697 56.9087C6.44298 56.2412 5.69045 55.9075 4.80909 55.9075ZM5.79737 60.6918C5.45236 61.0368 5.01855 61.2088 4.49476 61.2088C3.97126 61.2088 3.5392 61.0368 3.19916 60.6918C2.85883 60.347 2.68852 59.9042 2.68852 59.3632C2.68852 58.8224 2.85883 58.3796 3.19916 58.0345C3.5392 57.6898 3.97126 57.5178 4.49476 57.5178C5.01855 57.5178 5.45236 57.6898 5.79737 58.0345C6.14208 58.3796 6.31444 58.8224 6.31444 59.3632C6.31444 59.9042 6.14208 60.347 5.79737 60.6918Z" fill="#002855"/>
<path fill-rule="evenodd" clip-rule="evenodd" d="M14.3791 56.8633C13.8728 56.2264 13.1617 55.9077 12.2453 55.9077C11.3727 55.9077 10.6243 56.2413 10.0003 56.9088C9.37661 57.5767 9.06462 58.3946 9.06462 59.3633C9.06462 60.3317 9.37661 61.15 10.0003 61.8175C10.6243 62.4853 11.3727 62.8189 12.2453 62.8189C13.1617 62.8189 13.8728 62.5005 14.3791 61.8634V62.6358H16.0676V56.0909H14.3791V56.8633ZM13.862 60.6916C13.5173 61.0366 13.0832 61.209 12.5597 61.209C12.0362 61.209 11.6041 61.0366 11.2638 60.6916C10.9232 60.3472 10.7531 59.9043 10.7531 59.3633C10.7531 58.8223 10.9232 58.3791 11.2638 58.0347C11.6041 57.69 12.0362 57.5176 12.5597 57.5176C13.0832 57.5176 13.5173 57.69 13.862 58.0347C14.2064 58.3791 14.3791 58.8223 14.3791 59.3633C14.3791 59.9043 14.2064 60.3472 13.862 60.6916Z" fill="#002855"/>
<path fill-rule="evenodd" clip-rule="evenodd" d="M22.3252 57.2129V56.0908H17.4215V57.6745H20.0521L17.2929 61.5116V62.6357H22.4537V61.0518H19.5479L22.3252 57.2129Z" fill="#002855"/>
<path fill-rule="evenodd" clip-rule="evenodd" d="M28.5163 56.8633C28.01 56.2264 27.299 55.9077 26.3826 55.9077C25.51 55.9077 24.7615 56.2413 24.1378 56.9088C23.5139 57.5767 23.2019 58.3946 23.2019 59.3633C23.2019 60.3317 23.5139 61.15 24.1378 61.8175C24.7615 62.4853 25.51 62.8189 26.3826 62.8189C27.299 62.8189 28.01 62.5005 28.5163 61.8634V62.6358H30.2048V56.0909H28.5163V56.8633ZM27.9992 60.6916C27.6545 61.0366 27.2204 61.209 26.6969 61.209C26.1734 61.209 25.7413 61.0366 25.401 60.6916C25.0604 60.3472 24.8904 59.9043 24.8904 59.3633C24.8904 58.8223 25.0604 58.3791 25.401 58.0347C25.7413 57.69 26.1734 57.5176 26.6969 57.5176C27.2204 57.5176 27.6545 57.69 27.9992 58.0347C28.3436 58.3791 28.5163 58.8223 28.5163 59.3633C28.5163 59.9043 28.3436 60.3472 27.9992 60.6916Z" fill="#002855"/>
<path fill-rule="evenodd" clip-rule="evenodd" d="M36.6223 56.8633C36.116 56.2264 35.405 55.9077 34.4886 55.9077C33.616 55.9077 32.8675 56.2413 32.2435 56.9088C31.6198 57.5767 31.3078 58.3946 31.3078 59.3633C31.3078 60.3317 31.6198 61.15 32.2435 61.8175C32.8675 62.4853 33.616 62.8189 34.4886 62.8189C35.405 62.8189 36.116 62.5005 36.6223 61.8634V62.6358H38.3108V56.0909H36.6223V56.8633ZM36.1052 60.6916C35.7605 61.0366 35.3264 61.209 34.8029 61.209C34.2794 61.209 33.8473 61.0366 33.507 60.6916C33.1664 60.3472 32.9964 59.9043 32.9964 59.3633C32.9964 58.8223 33.1664 58.3791 33.507 58.0347C33.8473 57.69 34.2794 57.5176 34.8029 57.5176C35.3264 57.5176 35.7605 57.69 36.1052 58.0347C36.4496 58.3791 36.6223 58.8223 36.6223 59.3633C36.6223 59.9043 36.4496 60.3472 36.1052 60.6916Z" fill="#002855"/>
<path fill-rule="evenodd" clip-rule="evenodd" d="M41.3466 57.2164V56.0908H39.6581V62.6357H41.3466V59.5073C41.3466 58.8789 41.5493 58.4296 41.9554 58.1591C42.3612 57.8883 42.8213 57.784 43.3363 57.8448V55.96C42.8911 55.96 42.4874 56.0645 42.1254 56.274C41.7635 56.4835 41.5038 56.7978 41.3466 57.2164Z" fill="#002855"/>
<path fill-rule="evenodd" clip-rule="evenodd" d="M75.3521 55.9349C75.3521 55.4722 75.7132 55.1135 76.1762 55.1135C76.6366 55.1135 77 55.4722 77 55.9349C77 56.398 76.6366 56.759 76.1762 56.759C75.7132 56.759 75.3521 56.398 75.3521 55.9349ZM76.8449 55.9349C76.8449 55.5508 76.551 55.2639 76.1762 55.2639C75.7988 55.2639 75.5119 55.5508 75.5119 55.9349C75.5119 56.3261 75.7988 56.6086 76.1762 56.6086C76.5536 56.6086 76.8449 56.3261 76.8449 55.9349ZM76.0605 56.0877V56.428H75.8429V55.4699L76.2407 55.4722C76.426 55.4722 76.5624 55.5855 76.5624 55.7661C76.5624 55.8955 76.4908 55.9951 76.3845 56.0483L76.6065 56.428H76.3357L76.1601 56.0877H76.0605ZM76.1622 55.9119C76.2595 55.9119 76.3336 55.8888 76.3336 55.7708C76.3336 55.6872 76.2662 55.6481 76.1692 55.6481H76.0605V55.9119H76.1622Z" fill="#002855"/>
</svg>
