<svg width="124" height="40" viewBox="0 0 124 40" fill="none" xmlns="http://www.w3.org/2000/svg">
<path d="M115.344 14.21C115.347 13.0945 115.791 12.0255 116.579 11.2367C117.367 10.4479 118.435 10.0033 119.549 10C120.664 10.0015 121.732 10.4455 122.521 11.2347C123.309 12.0239 123.752 13.0939 123.754 14.21C123.751 15.3258 123.307 16.3951 122.519 17.1842C121.731 17.9734 120.663 18.4181 119.549 18.4214C118.435 18.416 117.368 17.9705 116.581 17.1819C115.793 16.3932 115.349 15.3252 115.344 14.21ZM122.947 14.21C122.949 13.3042 122.593 12.4343 121.956 11.7905C121.32 11.1466 120.455 10.7811 119.55 10.7738C118.645 10.7811 117.78 11.1466 117.144 11.7905C116.508 12.4343 116.152 13.3042 116.154 14.21C116.152 15.1159 116.508 15.9857 117.144 16.6296C117.78 17.2735 118.645 17.639 119.55 17.6462C120.455 17.639 121.32 17.2735 121.956 16.6296C122.593 15.9857 122.949 15.1159 122.947 14.21ZM117.685 14.1454C117.685 12.7421 118.462 12.0081 119.593 12.0081C120.672 12.0081 121.265 12.5373 121.318 13.4554H120.495C120.472 13.2516 120.369 13.0651 120.209 12.9365C120.05 12.8078 119.846 12.7474 119.642 12.7682H119.556C118.854 12.7682 118.532 13.395 118.532 14.1509C118.532 14.9069 118.856 15.5323 119.556 15.5323H119.642C119.743 15.5435 119.846 15.5346 119.943 15.5061C120.041 15.4776 120.132 15.4301 120.211 15.3662C120.29 15.3023 120.356 15.2234 120.405 15.134C120.454 15.0445 120.484 14.9463 120.495 14.845H121.318C121.265 15.7632 120.672 16.291 119.593 16.291C118.46 16.2841 117.678 15.5501 117.678 14.1454H117.685Z" fill="#111824"/>
<path d="M9.03038 27.5713H9.30495C11.7308 27.5713 14.1305 26.1969 14.2925 23.7929H16.9888C16.8007 27.6249 13.2148 30 9.17041 30C3.64333 30 0.00390625 25.8161 0.00390625 20.2839C0.00390625 14.7516 3.64333 10.5677 9.17041 10.5677C13.2134 10.5677 16.7993 12.9428 16.9888 16.7762H14.2925C14.1305 14.3736 11.7308 12.9978 9.30495 12.9978H9.03038C5.12189 12.9978 2.6947 16.2361 2.6947 20.2825C2.6947 24.329 5.12189 27.5713 9.03038 27.5713Z" fill="#111824"/>
<path d="M36.7716 20.2839C36.7716 26.3563 32.7286 30 27.6051 30C22.4816 30 18.4427 26.3577 18.4427 20.2839C18.4427 14.21 22.4844 10.5649 27.6065 10.5649C32.7286 10.5649 36.7716 14.2114 36.7716 20.2839ZM27.741 27.5686C31.2459 27.5686 34.0767 24.8691 34.0767 20.2839C34.0767 15.6986 31.2459 12.9991 27.741 12.9991H27.4665C23.9616 12.9991 21.1308 15.6986 21.1308 20.2839C21.1308 24.8691 23.9616 27.5686 27.4665 27.5686H27.741Z" fill="#111824"/>
<path d="M46.0731 12.9964H45.7985C43.4537 12.9964 41.89 14.265 41.89 15.9377C41.89 17.3947 42.8881 18.2592 44.4778 18.5822L47.4981 19.176C50.76 19.8234 52.6477 21.5511 52.6477 24.6286C52.6477 27.9479 49.8443 30 45.6654 30C41.2173 30 38.3893 27.8407 38.252 23.6568H40.9482C40.9482 26.2202 42.943 27.5699 45.7738 27.5699H46.0484C48.5827 27.5699 49.9569 26.3013 49.9569 24.7358C49.9569 23.1977 48.9863 22.3071 46.9915 21.9016L43.9713 21.2803C40.951 20.6591 39.1993 18.9588 39.1993 15.9639C39.1993 12.995 41.8681 10.5663 45.9386 10.5663C50.1175 10.5663 52.7863 12.8603 52.9209 16.504H50.2246C50.1869 15.999 50.0489 15.5066 49.8188 15.0556C49.5887 14.6046 49.2711 14.2041 48.8845 13.8775C48.4979 13.5508 48.0502 13.3047 47.5674 13.1534C47.0847 13.0021 46.5767 12.9487 46.0731 12.9964Z" fill="#111824"/>
<path d="M58.7445 13.2122V29.7306H56.0538V10.8344H60.5293L66.1579 27.1906L71.685 10.8344H76.133V29.7279H73.4368V13.1284L67.8836 29.7279H64.4281L58.7445 13.2122Z" fill="#111824"/>
<path d="M97.4021 20.2839C97.4021 26.3563 93.3577 30 88.2356 30C83.1135 30 79.0691 26.3563 79.0691 20.2839C79.0691 14.2114 83.1148 10.5649 88.2369 10.5649C93.359 10.5649 97.4021 14.2114 97.4021 20.2839ZM88.3715 27.5686C91.8764 27.5686 94.7072 24.8691 94.7072 20.2839C94.7072 15.6986 91.8764 12.9991 88.3715 12.9991H88.0969C84.592 12.9991 81.7613 15.6986 81.7613 20.2839C81.7613 24.8691 84.592 27.5686 88.0969 27.5686H88.3715Z" fill="#111824"/>
<path d="M106.704 12.9964H106.429C104.084 12.9964 102.521 14.265 102.521 15.9377C102.521 17.3947 103.519 18.2592 105.108 18.5822L108.129 19.176C111.391 19.8234 113.278 21.5511 113.278 24.6286C113.278 27.9479 110.475 30 106.296 30C101.848 30 99.0199 27.8407 98.8826 23.6568H101.579C101.579 26.2202 103.574 27.5699 106.404 27.5699H106.679C109.213 27.5699 110.587 26.3013 110.587 24.7358C110.587 23.1977 109.617 22.3071 107.622 21.9016L104.602 21.2803C101.582 20.6591 99.8298 18.9588 99.8298 15.9639C99.8298 12.995 102.499 10.5663 106.569 10.5663C110.748 10.5663 113.417 12.8603 113.551 16.504H110.855C110.817 15.999 110.679 15.5066 110.449 15.0556C110.219 14.6046 109.902 14.2041 109.515 13.8775C109.129 13.5508 108.681 13.3047 108.198 13.1534C107.715 13.0021 107.207 12.9487 106.704 12.9964Z" fill="#111824"/>
</svg>
