<svg width="186" height="64" viewBox="0 0 186 64" fill="none" xmlns="http://www.w3.org/2000/svg">
<path d="M172.495 23.2598C172.5 21.6011 173.16 20.0117 174.332 18.8388C175.503 17.6659 177.091 17.0049 178.748 17C180.405 17.0022 181.994 17.6624 183.166 18.8358C184.338 20.0093 184.998 21.6002 185 23.2598C184.996 24.9188 184.336 26.5087 183.164 27.682C181.993 28.8554 180.405 29.5167 178.748 29.5215C177.091 29.5135 175.506 28.8511 174.335 27.6785C173.164 26.5058 172.503 24.9178 172.495 23.2598ZM183.8 23.2598C183.803 21.9129 183.274 20.6195 182.327 19.6622C181.381 18.7048 180.095 18.1614 178.75 18.1506C177.404 18.1614 176.118 18.7048 175.172 19.6622C174.226 20.6195 173.696 21.9129 173.7 23.2598C173.696 24.6066 174.226 25.9 175.172 26.8573C176.118 27.8147 177.404 28.3581 178.75 28.3689C180.095 28.3581 181.381 27.8147 182.327 26.8573C183.274 25.9 183.803 24.6066 183.8 23.2598ZM175.976 23.1637C175.976 21.0771 177.131 19.9858 178.813 19.9858C180.417 19.9858 181.299 20.7726 181.379 22.1378H180.154C180.12 21.8347 179.967 21.5574 179.73 21.3661C179.493 21.1748 179.19 21.085 178.886 21.116H178.758C177.715 21.116 177.235 22.0479 177.235 23.1719C177.235 24.2959 177.717 25.2258 178.758 25.2258H178.886C179.037 25.2425 179.189 25.2293 179.334 25.1869C179.479 25.1445 179.615 25.0738 179.733 24.9789C179.85 24.8839 179.948 24.7665 180.021 24.6335C180.093 24.5005 180.138 24.3545 180.154 24.2039H181.379C181.299 25.5691 180.417 26.3539 178.813 26.3539C177.129 26.3437 175.965 25.2523 175.965 23.1637H175.976Z" fill="black"/>
<path d="M14.4212 43.1263H14.8294C18.4363 43.1263 22.0044 41.0826 22.2453 37.5082H26.2543C25.9746 43.206 20.6429 46.7374 14.6294 46.7374C6.41134 46.7374 1 40.5165 1 32.2908C1 24.065 6.41134 17.8441 14.6294 17.8441C20.6409 17.8441 25.9726 21.3756 26.2543 27.0753H22.2453C22.0044 23.503 18.4363 21.4573 14.8294 21.4573H14.4212C8.60977 21.4573 5.00085 26.2722 5.00085 32.2887C5.00085 38.3053 8.60977 43.1263 14.4212 43.1263Z" fill="black"/>
<path d="M55.6688 32.2907C55.6688 41.3197 49.6573 46.7374 42.0394 46.7374C34.4214 46.7374 28.4161 41.3217 28.4161 32.2907C28.4161 23.2598 34.4255 17.84 42.0414 17.84C49.6573 17.84 55.6688 23.2618 55.6688 32.2907ZM42.2415 43.1222C47.4528 43.1222 51.6618 39.1084 51.6618 32.2907C51.6618 25.4731 47.4528 21.4593 42.2415 21.4593H41.8332C36.6219 21.4593 32.4129 25.4731 32.4129 32.2907C32.4129 39.1084 36.6219 43.1222 41.8332 43.1222H42.2415Z" fill="black"/>
<path d="M69.4988 21.4552H69.0906C65.6041 21.4552 63.2792 23.3415 63.2792 25.8287C63.2792 27.9949 64.7631 29.2804 67.1269 29.7607L71.6177 30.6435C76.4677 31.6061 79.2744 34.175 79.2744 38.7507C79.2744 43.6862 75.1061 46.7374 68.8926 46.7374C62.279 46.7374 58.074 43.5268 57.8699 37.3059H61.8789C61.8789 41.1173 64.8448 43.1242 69.0538 43.1242H69.4621C73.2302 43.1242 75.2735 41.2379 75.2735 38.9102C75.2735 36.6233 73.8304 35.299 70.8644 34.6961L66.3737 33.7724C61.883 32.8487 59.2784 30.3206 59.2784 25.8675C59.2784 21.4532 63.2465 17.842 69.2988 17.842C75.5124 17.842 79.4805 21.2529 79.6806 26.6706H75.6716C75.6155 25.9197 75.4103 25.1876 75.0682 24.517C74.7261 23.8465 74.2538 23.2509 73.679 22.7653C73.1043 22.2796 72.4385 21.9136 71.7207 21.6887C71.003 21.4637 70.2476 21.3844 69.4988 21.4552Z" fill="black"/>
<path d="M88.3396 21.7761V46.3369H84.3388V18.2406H90.9932L99.3624 42.5602L107.58 18.2406H114.194V46.3328H110.185V21.6515L101.928 46.3328H96.7904L88.3396 21.7761Z" fill="black"/>
<path d="M145.818 32.2907C145.818 41.3197 139.805 46.7374 132.189 46.7374C124.573 46.7374 118.56 41.3197 118.56 32.2907C118.56 23.2618 124.575 17.84 132.191 17.84C139.807 17.84 145.818 23.2618 145.818 32.2907ZM132.391 43.1222C137.602 43.1222 141.811 39.1084 141.811 32.2907C141.811 25.4731 137.602 21.4593 132.391 21.4593H131.983C126.771 21.4593 122.562 25.4731 122.562 32.2907C122.562 39.1084 126.771 43.1222 131.983 43.1222H132.391Z" fill="black"/>
<path d="M159.649 21.4552H159.24C155.754 21.4552 153.429 23.3415 153.429 25.8287C153.429 27.9949 154.913 29.2804 157.277 29.7607L161.768 30.6435C166.617 31.6061 169.424 34.175 169.424 38.7507C169.424 43.6862 165.256 46.7374 159.042 46.7374C152.429 46.7374 148.224 43.5268 148.02 37.3059H152.029C152.029 41.1173 154.995 43.1242 159.204 43.1242H159.612C163.38 43.1242 165.423 41.2379 165.423 38.9102C165.423 36.6233 163.98 35.299 161.014 34.6961L156.523 33.7724C152.033 32.8487 149.428 30.3206 149.428 25.8675C149.428 21.4532 153.396 17.842 159.449 17.842C165.662 17.842 169.63 21.2529 169.83 26.6706H165.821C165.765 25.9197 165.56 25.1876 165.218 24.517C164.876 23.8465 164.404 23.2509 163.829 22.7653C163.254 22.2796 162.588 21.9136 161.871 21.6887C161.153 21.4637 160.397 21.3844 159.649 21.4552Z" fill="black"/>
</svg>
