<svg width="182" height="64" viewBox="0 0 182 64" fill="none" xmlns="http://www.w3.org/2000/svg">
<path d="M38.074 45.1776H34.7692L41.0332 18.4518H44.3044L38.0776 45.1776H38.074ZM53.446 45.1776H42.4096L48.718 18.4518H52.0228L46.4128 42.1866H54.1372L53.446 45.1776ZM62.1016 34.8432L59.7172 45.1776H56.3716L58.7938 34.7652L56.9494 18.4518H60.2956L61.2568 31.4742L68.4448 18.4518H72.1738L62.1016 34.8432ZM136.114 21.4428H131.27L126.035 45.1776H122.69L127.924 21.4428H122.618L123.35 18.4518H136.846L136.114 21.4428ZM136.005 45.1776H133.043L138.968 18.4518H142.235L136.351 45.1776H136.005ZM157.603 25.9704L154.681 39.084C154.284 40.9398 153.73 42.267 153.012 43.2138C151.917 44.6922 150.124 45.4134 147.699 45.4134C143.699 45.4134 141.407 43.6686 141.363 40.677C141.349 39.8046 141.455 39.0096 141.777 37.5714L144.698 24.4578C145.67 20.0214 147.948 18.0102 151.91 18.0102C155.871 18.0102 157.935 19.8294 157.979 22.8612C157.993 23.7336 157.887 24.6432 157.599 25.9668H157.603V25.9704ZM151.76 20.8164C150.606 20.8164 149.727 21.1938 149.125 21.9516C148.632 22.5576 148.379 23.3532 148.013 24.906L145.092 38.094C144.911 38.8884 144.807 39.6462 144.815 40.2156C144.839 41.8092 145.889 42.678 147.695 42.678C149.618 42.678 150.641 41.58 151.253 38.8512L154.212 25.815C154.5 24.525 154.609 23.919 154.599 23.313C154.575 21.6822 153.563 20.8098 151.752 20.8098H151.756L151.76 20.8164ZM74.7358 18.4788H80.2744L81.7966 33.8028C82.0708 36.7566 82.2244 39.1416 82.423 42.3684H82.5016C83.788 39.1824 84.883 36.7632 86.323 33.8022L93.8836 18.4788H99.5014L96.5008 45.1674H92.8336L94.7458 29.2314C95.098 26.3514 95.488 23.892 95.9572 20.9382L95.878 20.8974C94.5508 23.7774 93.3808 26.3106 91.9408 29.2314L84.2188 45.1674H79.498L78.0166 29.2314C77.743 26.3514 77.548 23.7774 77.353 20.9382H77.2774C76.6174 23.7774 75.991 26.3142 75.1702 29.2314L70.8802 45.1674H67.1746L74.7358 18.48V18.4788ZM121.407 31.8078C119.426 42.0582 115.116 45.6522 108.318 45.6522C102.957 45.6522 100.004 43.3584 100.004 37.4664C100.004 35.7048 100.196 33.9834 100.627 31.8444C102.687 21.5976 106.922 18 113.757 18C119.078 18 122.071 20.2938 122.071 26.1858C122.071 27.9474 121.838 29.6688 121.41 31.8078H121.407ZM113.327 20.8332C108.899 20.8332 105.909 23.703 104.277 31.9218C103.85 33.8322 103.617 35.7078 103.617 37.2408C103.617 41.2158 105.324 42.8226 108.704 42.8226C113.172 42.8226 116.121 39.9528 117.794 31.7334C118.184 29.8236 118.455 27.9474 118.455 26.4144C118.455 22.4736 116.748 20.8332 113.327 20.8332ZM12.7378 18.4452C12.1048 18.4452 6.5662 18.5364 6.5662 18.5364L1 45.2214H3.6238V45.2184C5.119 45.2046 5.6734 45.2352 7.1338 45.2352C13.9594 45.2352 18.28 42.1728 20.2678 31.956H20.2714C20.6992 29.8242 20.935 28.11 20.935 26.3544C20.935 20.4798 18.082 18.4452 12.7378 18.4452ZM16.936 31.9464C15.256 40.1382 12.5668 42.0114 8.0818 42.0348C6.5146 42.0414 6.1588 42.0282 4.972 42.0108L9.2314 21.42V21.4272C10.5658 21.3966 10.8802 21.3834 12.1054 21.3966C15.5398 21.4266 17.5996 22.7238 17.5996 26.6514C17.5996 28.1772 17.3296 30.0474 16.9396 31.95L16.936 31.947V31.9464ZM177.651 18.4452L172.362 42.3852L168.434 18.4452H162.906L156.894 45.1878H160.371L165.656 20.8368L169.553 45.1878H175.023L181 18.4452H177.651ZM29.659 18.4536L18.664 45.18H22.198L24.1996 40.1844L25.4686 37.0818L25.9168 35.8824H29.6254L29.5054 37.0818L29.2354 40.1874L28.852 45.183H32.1982L34.27 18.4536H29.656H29.659ZM27.0898 32.7396L31.3492 20.88L29.9464 32.7402L27.0898 32.7396Z" fill="#0D0D0D"/>
</svg>
