<svg width="246" height="64" viewBox="0 0 246 64" fill="none" xmlns="http://www.w3.org/2000/svg">
<g clip-path="url(#clip0_17368_4788)">
<path d="M37.3729 38.3195C36.6834 48.2879 28.5754 56.1281 18.7104 56.1281C8.39453 56.1281 0 47.555 0 36.9417C0 26.3284 8.39453 17.7554 18.7104 17.7554C19.5021 17.7554 20.1438 18.3872 20.1438 19.1666V21.2578C20.1438 22.0371 19.5021 22.6689 18.7104 22.6689C11.0772 22.6689 4.89945 29.0885 4.89945 36.9417C4.89945 44.795 11.0772 51.2145 18.7104 51.2145C26.3436 51.2145 32.5213 44.795 32.5213 36.9417V34.2199C32.5213 33.4405 33.1631 32.8087 33.9548 32.8087H44.2694C45.061 32.8087 45.7028 33.4405 45.7028 34.2199V36.7391C45.7028 37.5048 45.0825 38.1308 44.305 38.1498L37.3729 38.3195ZM24.8866 8C24.095 8 23.4532 8.63183 23.4532 9.41117V36.6425C23.4532 39.3178 21.3356 41.5155 18.7032 41.5155C16.0708 41.5155 13.9533 39.3178 13.9533 36.6425C13.9533 33.9672 16.0708 31.7695 18.7032 31.7695C19.4949 31.7695 20.1366 31.1377 20.1366 30.3583V28.2636C20.1366 27.4843 19.4949 26.8524 18.7032 26.8524C13.3798 26.8524 9.0253 31.2323 9.0253 36.6425C9.0253 42.0527 13.3798 46.4325 18.7032 46.4325C24.0279 46.4325 28.3812 42.0527 28.3812 36.6425V9.41117C28.3812 8.63183 27.7395 8 26.9478 8H24.8866Z" fill="url(#paint0_linear_17368_4788)"/>
<path d="M144.854 53.1408C147.449 53.1408 149.447 52.3662 150.848 50.8168C152.249 49.2674 152.95 47.0351 152.95 44.12V28.7294C152.95 28.2933 152.795 27.9203 152.485 27.6104C152.175 27.3005 151.802 27.1456 151.365 27.1456C150.929 27.1456 150.561 27.3005 150.263 27.6104C149.964 27.9203 149.815 28.2933 149.815 28.7294V29.5902C148.184 27.8457 146.249 26.9734 144.01 26.9734C141.771 26.9734 139.87 27.7079 138.308 29.177C136.494 30.8526 135.587 33.1021 135.587 35.9254C135.587 38.7488 136.494 40.9982 138.308 42.6739C139.87 44.1429 141.742 44.8775 143.924 44.8775C146.221 44.8775 148.184 44.0052 149.815 42.2607V44.5676C149.815 48.3091 148.058 50.1798 144.544 50.1798C142.5 50.1798 140.605 49.7437 138.86 48.8714C138.63 48.7796 138.372 48.7337 138.085 48.7337C137.797 48.7337 137.522 48.8829 137.258 49.1813C136.994 49.4797 136.862 49.8527 136.862 50.3003C136.862 50.7479 137.068 51.098 137.482 51.3504C139.641 52.544 142.098 53.1408 144.854 53.1408ZM144.854 42.0197C143.844 42.0197 142.982 41.8934 142.27 41.641C139.905 40.7917 138.722 38.8865 138.722 35.9254C138.722 33.9055 139.285 32.3676 140.41 31.3117C140.938 30.8297 141.558 30.4624 142.27 30.2099C142.982 29.9574 143.844 29.8312 144.854 29.8312C145.865 29.8312 146.783 30.0894 147.61 30.6059C148.437 31.1223 149.172 31.7134 149.815 32.3791V39.4718C148.184 41.1704 146.531 42.0197 144.854 42.0197ZM159.943 45.0496C160.38 45.0496 160.753 44.9004 161.063 44.602C161.373 44.3036 161.528 43.9363 161.528 43.5002V33.0332C162.125 32.138 162.877 31.4093 163.785 30.8469C164.692 30.2845 165.72 30.0033 166.868 30.0033H167.04C167.499 30.0033 167.878 29.8714 168.177 29.6074C168.476 29.3434 168.625 28.9876 168.625 28.54C168.625 28.0924 168.481 27.7194 168.194 27.421C167.907 27.1226 167.545 26.9734 167.109 26.9734H166.937C164.939 26.9734 163.136 28.0523 161.528 30.2099V28.7294C161.528 28.2933 161.373 27.9203 161.063 27.6104C160.753 27.3005 160.38 27.1456 159.943 27.1456C159.507 27.1456 159.139 27.3005 158.841 27.6104C158.542 27.9203 158.393 28.2933 158.393 28.7294V43.5002C158.393 43.9363 158.542 44.3036 158.841 44.602C159.139 44.9004 159.507 45.0496 159.943 45.0496ZM175.928 45.2218C177.536 45.2218 178.862 44.9463 179.907 44.3954C180.952 43.8445 181.785 43.2477 182.405 42.605V43.5002C182.405 43.9363 182.554 44.3036 182.853 44.602C183.151 44.9004 183.519 45.0496 183.955 45.0496C184.392 45.0496 184.765 44.9004 185.075 44.602C185.385 44.3036 185.54 43.9363 185.54 43.5002V33.7563C185.54 31.897 184.966 30.3476 183.817 29.1081C182.531 27.685 180.717 26.9734 178.374 26.9734C176.307 26.9734 174.309 27.3866 172.38 28.2129C171.783 28.4654 171.484 28.8442 171.484 29.3492C171.484 29.8541 171.611 30.2271 171.863 30.4682C172.116 30.7092 172.357 30.8297 172.587 30.8297C172.816 30.8297 173.023 30.8067 173.207 30.7608C174.929 30.2099 176.457 29.9345 177.789 29.9345C179.35 29.9345 180.51 30.2616 181.268 30.9158C182.026 31.5699 182.405 32.666 182.405 34.2039V34.4793H178.236C175.641 34.4793 173.643 35.0073 172.242 36.0632C170.956 37.0272 170.313 38.3585 170.313 40.0571C170.313 41.618 170.864 42.8805 171.967 43.8445C173.023 44.7627 174.344 45.2218 175.928 45.2218ZM177.1 42.4673C174.665 42.4673 173.448 41.5491 173.448 39.7128C173.448 38.7258 173.907 38.0257 174.826 37.6125C175.745 37.1994 177.019 36.9928 178.65 36.9928H182.405V39.885C181.808 40.5506 181.044 41.1474 180.114 41.6754C179.184 42.2033 178.179 42.4673 177.1 42.4673ZM192.413 52.9687C192.861 52.9687 193.234 52.8195 193.532 52.5211C193.831 52.2227 193.98 51.844 193.98 51.3849V42.605C195.68 44.3495 197.638 45.2218 199.854 45.2218C202.07 45.2218 203.982 44.4413 205.59 42.8805C207.336 41.1589 208.208 38.898 208.208 36.0976C208.208 33.3431 207.336 31.0936 205.59 29.3492C204.005 27.7653 202.099 26.9734 199.871 26.9734C197.644 26.9734 195.68 27.8457 193.98 29.5902V28.695C193.98 28.2588 193.831 27.8916 193.532 27.5932C193.234 27.2948 192.861 27.1456 192.413 27.1456C191.965 27.1456 191.592 27.2948 191.293 27.5932C190.995 27.8916 190.845 28.2588 190.845 28.695V51.3849C190.845 51.844 190.995 52.2227 191.293 52.5211C191.592 52.8195 191.965 52.9687 192.413 52.9687ZM199.423 42.2951C197.356 42.2951 195.542 41.4344 193.98 39.7128V32.4824C195.542 30.7608 197.356 29.9 199.423 29.9C201.123 29.9 202.478 30.4165 203.489 31.4494C204.545 32.5742 205.073 34.1236 205.073 36.0976C205.073 37.1076 204.936 38.0028 204.66 38.7832C203.787 41.1245 202.042 42.2951 199.423 42.2951ZM226.708 45.0496C227.145 45.0496 227.518 44.9004 227.828 44.602C228.138 44.3036 228.293 43.9363 228.293 43.5002V33.7219C228.293 31.8167 227.753 30.2329 226.674 28.9704C226.145 28.3507 225.502 27.8629 224.744 27.5071C223.987 27.1513 223.016 26.9734 221.833 26.9734C220.651 26.9734 219.405 27.3522 218.096 28.1096C217.43 28.4999 216.637 29.177 215.718 30.1411V21.1546C215.718 20.6955 215.563 20.3168 215.253 20.0184C214.943 19.72 214.57 19.5708 214.134 19.5708C213.697 19.5708 213.33 19.72 213.031 20.0184C212.733 20.3168 212.583 20.6955 212.583 21.1546V43.5002C212.583 43.9363 212.733 44.3036 213.031 44.602C213.33 44.9004 213.697 45.0496 214.134 45.0496C214.57 45.0496 214.943 44.9004 215.253 44.602C215.563 44.3036 215.718 43.9363 215.718 43.5002V33.171C217.464 30.9674 219.347 29.8656 221.368 29.8656C222.723 29.8656 223.694 30.2386 224.279 30.9846C224.865 31.7306 225.158 32.7578 225.158 34.0662V43.5002C225.158 43.9363 225.307 44.3036 225.606 44.602C225.904 44.9004 226.272 45.0496 226.708 45.0496ZM239.351 45.2218C241.487 45.2218 243.152 44.7168 244.347 43.7068C245.449 42.7886 246 41.595 246 40.126C246 38.1979 245.105 36.7747 243.313 35.8566C242.555 35.4893 241.723 35.2024 240.816 34.9958C239.908 34.7892 239.076 34.5826 238.318 34.376C237.56 34.1695 236.923 33.9112 236.406 33.6014C235.889 33.2915 235.631 32.8152 235.631 32.1725C235.631 31.5298 235.97 30.9789 236.647 30.5198C237.325 30.0607 238.318 29.8312 239.627 29.8312C240.936 29.8312 242.142 30.0033 243.244 30.3476C243.612 30.4624 243.922 30.5198 244.175 30.5198C244.427 30.5198 244.686 30.3821 244.95 30.1066C245.214 29.8312 245.346 29.5385 245.346 29.2286C245.346 28.9188 245.26 28.6376 245.087 28.3851C244.915 28.1326 244.668 27.949 244.347 27.8342C242.739 27.2603 241.074 26.9734 239.351 26.9734C237.193 26.9734 235.504 27.4899 234.287 28.5228C233.736 29.0048 233.323 29.5787 233.047 30.2444C232.771 30.91 232.634 31.7019 232.634 32.6201C232.634 33.5382 232.886 34.3129 233.392 34.9442C233.897 35.5754 234.534 36.0861 235.304 36.4763C236.073 36.8665 236.905 37.1707 237.801 37.3887C238.697 37.6068 239.529 37.8191 240.299 38.0257C241.068 38.2323 241.706 38.4676 242.211 38.7315C242.716 38.9955 242.969 39.38 242.969 39.885C242.969 41.5147 241.694 42.3296 239.145 42.3296C237.56 42.3296 236.102 42.0312 234.77 41.4344C234.356 41.2507 234 41.1589 233.702 41.1589C233.403 41.1589 233.127 41.3024 232.875 41.5893C232.622 41.8762 232.496 42.2263 232.496 42.6394C232.496 43.0526 232.691 43.3969 233.081 43.6724C234.942 44.7053 237.032 45.2218 239.351 45.2218Z" fill="black"/>
<path d="M69.3858 44.5955C71.6136 44.5955 73.5773 43.7233 75.2768 41.9788V42.874C75.2768 43.3101 75.4261 43.6774 75.7247 43.9758C76.0233 44.2742 76.3965 44.4234 76.8443 44.4234C77.2922 44.4234 77.6654 44.2742 77.964 43.9758C78.2625 43.6774 78.4118 43.3101 78.4118 42.874V20.5284C78.4118 20.0693 78.2625 19.6906 77.964 19.3922C77.6654 19.0938 77.2922 18.9446 76.8443 18.9446C76.3965 18.9446 76.0233 19.0938 75.7247 19.3922C75.4261 19.6906 75.2768 20.0693 75.2768 20.5284V28.9639C73.5773 27.2195 71.6136 26.3472 69.3858 26.3472C67.158 26.3472 65.2518 27.1391 63.6671 28.7229C61.9216 30.4674 61.0488 32.7169 61.0488 35.4714C61.0488 38.2717 61.9216 40.5327 63.6671 42.2542C65.2747 43.8151 67.181 44.5955 69.3858 44.5955ZM69.8337 41.6689C68.1341 41.6689 66.7906 41.1525 65.803 40.1195C64.7235 38.9948 64.1838 37.4454 64.1838 35.4714C64.1838 34.4614 64.3331 33.5662 64.6317 32.7858C65.4814 30.4445 67.2154 29.2738 69.8337 29.2738C71.9007 29.2738 73.7151 30.1346 75.2768 31.8561V39.0866C73.7151 40.8082 71.9007 41.6689 69.8337 41.6689ZM88.0579 44.5955C89.6656 44.5955 90.9919 44.3201 92.0369 43.7692C93.0819 43.2183 93.9145 42.6215 94.5346 41.9788V42.874C94.5346 43.3101 94.6839 43.6774 94.9824 43.9758C95.281 44.2742 95.6485 44.4234 96.0849 44.4234C96.5212 44.4234 96.8944 44.2742 97.2045 43.9758C97.5145 43.6774 97.6696 43.3101 97.6696 42.874V33.1301C97.6696 31.2708 97.0954 29.7214 95.9471 28.4819C94.6609 27.0588 92.8465 26.3472 90.5039 26.3472C88.4369 26.3472 86.4387 26.7604 84.5095 27.5867C83.9124 27.8392 83.6138 28.2179 83.6138 28.7229C83.6138 29.2279 83.7401 29.6009 83.9928 29.8419C84.2454 30.083 84.4866 30.2035 84.7162 30.2035C84.9459 30.2035 85.1526 30.1805 85.3363 30.1346C87.0589 29.5837 88.5862 29.3083 89.9182 29.3083C91.48 29.3083 92.6398 29.6354 93.3977 30.2895C94.1556 30.9437 94.5346 32.0398 94.5346 33.5777V33.8531H90.3661C87.7708 33.8531 85.7727 34.3811 84.3717 35.4369C83.0856 36.401 82.4425 37.7323 82.4425 39.4309C82.4425 40.9918 82.9937 42.2542 84.0961 43.2183C85.1526 44.1365 86.4732 44.5955 88.0579 44.5955ZM89.2292 41.8411C86.7947 41.8411 85.5775 40.9229 85.5775 39.0866C85.5775 38.0996 86.0368 37.3995 86.9555 36.9863C87.8742 36.5732 89.1488 36.3666 90.7795 36.3666H94.5346V39.2588C93.9374 39.9244 93.1738 40.5212 92.2436 41.0492C91.3135 41.5771 90.3087 41.8411 89.2292 41.8411ZM109.4 44.5955C110.1 44.5955 110.944 44.366 111.932 43.9069C112.391 43.7003 112.621 43.3675 112.621 42.9084C112.621 42.4494 112.495 42.105 112.242 41.8755C111.989 41.646 111.708 41.5312 111.398 41.5312C111.088 41.5312 110.801 41.5828 110.537 41.6861C110.273 41.7894 109.831 41.8411 109.21 41.8411C108.613 41.8411 108.165 41.7493 107.867 41.5656C107.339 41.2443 107.075 40.6475 107.075 39.7752V29.3771H110.967C111.358 29.3771 111.679 29.2509 111.932 28.9984C112.185 28.7459 112.311 28.4245 112.311 28.0343C112.311 27.6441 112.185 27.3227 111.932 27.0703C111.679 26.8178 111.358 26.6915 110.967 26.6915H107.075V23.937C107.075 23.7534 107.011 23.5927 106.885 23.455C106.759 23.3173 106.604 23.2484 106.42 23.2484C106.236 23.2484 106.041 23.3517 105.834 23.5583L101.149 28.1376C100.942 28.3212 100.839 28.5163 100.839 28.7229C100.839 29.1591 101.057 29.3771 101.494 29.3771H103.94V40.0507C103.94 41.887 104.571 43.1724 105.834 43.9069C106.363 44.2283 106.914 44.4234 107.488 44.4922C108.062 44.5611 108.699 44.5955 109.4 44.5955ZM120.235 44.5955C121.842 44.5955 123.169 44.3201 124.214 43.7692C125.259 43.2183 126.091 42.6215 126.711 41.9788V42.874C126.711 43.3101 126.861 43.6774 127.159 43.9758C127.458 44.2742 127.825 44.4234 128.261 44.4234C128.698 44.4234 129.071 44.2742 129.381 43.9758C129.691 43.6774 129.846 43.3101 129.846 42.874V33.1301C129.846 31.2708 129.272 29.7214 128.124 28.4819C126.838 27.0588 125.023 26.3472 122.681 26.3472C120.614 26.3472 118.615 26.7604 116.686 27.5867C116.089 27.8392 115.79 28.2179 115.79 28.7229C115.79 29.2279 115.917 29.6009 116.169 29.8419C116.422 30.083 116.663 30.2035 116.893 30.2035C117.123 30.2035 117.329 30.1805 117.513 30.1346C119.235 29.5837 120.763 29.3083 122.095 29.3083C123.657 29.3083 124.816 29.6354 125.574 30.2895C126.332 30.9437 126.711 32.0398 126.711 33.5777V33.8531H122.543C119.947 33.8531 117.949 34.3811 116.548 35.4369C115.262 36.401 114.619 37.7323 114.619 39.4309C114.619 40.9918 115.17 42.2542 116.273 43.2183C117.329 44.1365 118.65 44.5955 120.235 44.5955ZM121.406 41.8411C118.971 41.8411 117.754 40.9229 117.754 39.0866C117.754 38.0996 118.213 37.3995 119.132 36.9863C120.051 36.5732 121.325 36.3666 122.956 36.3666H126.711V39.2588C126.114 39.9244 125.35 40.5212 124.42 41.0492C123.49 41.5771 122.485 41.8411 121.406 41.8411Z" fill="url(#paint1_linear_17368_4788)"/>
</g>
<defs>
<linearGradient id="paint0_linear_17368_4788" x1="22.8514" y1="8" x2="22.8514" y2="56.1281" gradientUnits="userSpaceOnUse">
<stop stop-color="#A794ED"/>
<stop offset="1" stop-color="#6E5BD7"/>
</linearGradient>
<linearGradient id="paint1_linear_17368_4788" x1="95.4475" y1="18.9446" x2="95.4475" y2="44.5955" gradientUnits="userSpaceOnUse">
<stop stop-color="#A794ED"/>
<stop offset="1" stop-color="#6E5BD7"/>
</linearGradient>
<clipPath id="clip0_17368_4788">
<rect width="246" height="64" fill="white"/>
</clipPath>
</defs>
</svg>
