<svg viewBox="-0.71 8.36 176.21 23.08" fill="none" xmlns="http://www.w3.org/2000/svg">
<path d="M36.5272 19.4268C36.5272 23.4197 33.7916 25.8639 29.6128 25.8639H25.3613V12.8984H29.6128C33.7916 12.8984 36.5272 15.4231 36.5272 19.4268ZM29.6128 24.1274C32.6869 24.1274 34.3333 22.3748 34.3333 19.4268C34.3333 16.4795 32.6862 14.6324 29.6128 14.6324H27.4909V24.1274H29.6128Z" fill="#F65B66"/>
<path d="M43.0871 26.0287C40.1263 26.0287 37.9355 23.9415 37.9355 20.7143C37.9355 17.4871 40.0323 15.4219 43.0865 15.4219C46.0274 15.4219 48.1074 17.4543 48.1074 20.4763C48.1119 20.8205 48.09 21.1647 48.0412 21.5057H40.1546C40.3045 23.2029 41.5205 24.2285 43.0948 24.2285C44.406 24.2285 45.1363 23.5928 45.5307 22.7912H47.8353C47.2466 24.5939 45.6169 26.0287 43.0871 26.0287ZM40.1655 19.7988H45.8775C45.8414 18.2148 44.5862 17.206 42.9925 17.206C41.5514 17.206 40.3907 18.1871 40.1655 19.7988Z" fill="#F65B66"/>
<path d="M54.6477 26.0287C51.6875 26.0287 49.4961 23.9415 49.4961 20.7143C49.4961 17.4871 51.5955 15.4219 54.6477 15.4219C57.5879 15.4219 59.668 17.4543 59.668 20.4763C59.6713 20.8209 59.6463 21.1652 59.5933 21.5057H51.7068C51.8567 23.2029 53.0759 24.2285 54.647 24.2285C55.9608 24.2285 56.691 23.5928 57.0829 22.7912H59.3875C58.8071 24.5939 57.1774 26.0287 54.6477 26.0287ZM51.7261 19.7988H57.438C57.402 18.2148 56.1467 17.206 54.5557 17.206C53.1119 17.206 51.9512 18.1871 51.7261 19.7988Z" fill="#F65B66"/>
<path d="M67.5013 15.4231C70.217 15.4231 72.353 17.5109 72.353 20.6769C72.353 23.8424 70.217 26.0299 67.5013 26.0299C66.8142 26.0353 66.1344 25.8895 65.51 25.6027C64.8864 25.3163 64.3336 24.8958 63.8912 24.3712V30.7504H61.7559V15.5859H63.8919V17.0959C64.3254 16.5594 64.8762 16.1296 65.502 15.8396C66.1278 15.5496 66.8117 15.4071 67.5013 15.4231ZM67.0322 17.2702C65.4412 17.2702 63.9054 18.5203 63.9054 20.7213C63.9054 22.9217 65.4412 24.1892 67.0322 24.1892C68.6233 24.1892 70.181 22.8895 70.181 20.6763C70.181 18.465 68.6426 17.2644 67.0322 17.2644V17.2702Z" fill="#F65B66"/>
<path d="M76.61 12.8984V24.1473H81.0114V25.8639H74.4746V12.8984H76.61Z" fill="#F65B66"/>
<path d="M87.2316 26.0287C84.2708 26.0287 82.0801 23.9415 82.0801 20.7143C82.0801 17.4871 84.1794 15.4219 87.2316 15.4219C90.1719 15.4219 92.2519 17.4543 92.2519 20.4763C92.2558 20.8262 92.2308 21.1759 92.1773 21.5218H84.2907C84.4406 23.2197 85.6599 24.2452 87.2316 24.2452C88.5448 24.2452 89.275 23.6096 89.6668 22.8073H91.9714C91.3911 24.5939 89.7614 26.0287 87.2316 26.0287ZM84.31 19.7988H90.022C89.986 18.2148 88.7307 17.206 87.1396 17.206C85.6959 17.206 84.5352 18.1871 84.31 19.7988Z" fill="#F65B66"/>
<path d="M98.5117 15.4218C99.1966 15.4016 99.8768 15.5411 100.499 15.8291C101.119 16.1169 101.665 16.5456 102.091 17.0811V15.5853H104.246V25.8627H102.091V24.3314C101.663 24.8761 101.114 25.3132 100.487 25.6079C99.8602 25.9026 99.1732 26.0467 98.4809 26.0286C95.8012 26.0286 93.6465 23.8476 93.6465 20.6757C93.6465 17.5038 95.8037 15.4218 98.5117 15.4218ZM98.9615 17.2684C97.3704 17.2684 95.8346 18.4605 95.8346 20.6809C95.8346 22.9012 97.3704 24.1873 98.9615 24.1873C100.553 24.1873 102.091 22.9404 102.091 20.7195C102.091 18.4998 100.572 17.2632 98.9615 17.2632V17.2684Z" fill="#F65B66"/>
<path d="M109.194 25.8633H107.059V15.5853H109.194V17.0812C109.791 16.055 110.824 15.4219 112.285 15.4219V17.6338H111.73C110.155 17.6338 109.183 18.2862 109.183 20.4679L109.194 25.8633Z" fill="#F65B66"/>
<path d="M121.577 20.1231C121.577 18.238 120.546 17.2697 118.991 17.2697C117.436 17.2697 116.389 18.2373 116.389 20.1231V25.8633H114.254V15.5866H116.389V16.7614C116.772 16.3276 117.246 15.983 117.777 15.7518C118.307 15.5206 118.882 15.4084 119.461 15.4232C121.877 15.4232 123.696 16.9332 123.696 19.8059V25.864H121.577V20.1231Z" fill="#F65B66"/>
<path d="M126.135 12.8613C126.137 12.5943 126.218 12.3339 126.368 12.1128C126.518 11.8918 126.73 11.72 126.977 11.619C127.225 11.5176 127.497 11.4915 127.759 11.5439C128.022 11.5963 128.263 11.7249 128.453 11.9136C128.642 12.1025 128.77 12.3431 128.823 12.605C128.875 12.867 128.849 13.1385 128.747 13.3854C128.645 13.6323 128.472 13.8435 128.25 13.9924C128.029 14.1413 127.768 14.2213 127.501 14.2221C127.321 14.2241 127.142 14.1903 126.976 14.1227C126.809 14.0551 126.658 13.9551 126.53 13.8284C126.403 13.7019 126.302 13.5511 126.234 13.385C126.166 13.2189 126.133 13.0408 126.135 12.8613ZM126.412 15.5854H128.548V25.8628H126.412V15.5861V15.5854Z" fill="#F65B66"/>
<path d="M138.687 20.1232C138.687 18.2381 137.656 17.2698 136.101 17.2698C134.546 17.2698 133.497 18.2374 133.497 20.1232V25.8634H131.35V15.5867H133.485V16.7615C133.871 16.3269 134.347 15.982 134.88 15.7508C135.413 15.5196 135.99 15.4078 136.571 15.4233C138.987 15.4233 140.791 16.9275 140.791 19.8002V25.8641H138.675L138.687 20.1232Z" fill="#F65B66"/>
<path d="M147.68 15.4225C149.365 15.4225 150.621 16.2049 151.256 17.0818V15.5859H153.411V26.0287C153.411 28.8274 151.595 30.937 148.374 30.937C145.619 30.937 143.578 29.5737 143.314 27.2981H145.43C145.75 28.3629 146.893 29.0899 148.374 29.0899C150.02 29.0899 151.256 28.0804 151.256 26.0287V24.3147C150.834 24.8581 150.291 25.2959 149.67 25.5934C149.049 25.891 148.368 26.0402 147.68 26.0293C144.963 26.0293 142.809 23.847 142.809 20.6757C142.809 17.5039 144.956 15.4219 147.68 15.4219V15.4225ZM148.129 17.269C146.535 17.269 145 18.4612 145 20.6815C145 22.9025 146.535 24.188 148.129 24.188C149.723 24.188 151.256 22.9411 151.256 20.7201C151.256 18.5005 149.74 17.2639 148.129 17.2639V17.269Z" fill="#F65B66"/>
<path d="M156.151 25.9939C155.88 25.9975 155.614 25.9208 155.386 25.7734C155.159 25.6261 154.98 25.4147 154.872 25.1659C154.792 24.9797 154.755 24.778 154.763 24.5756C154.771 24.3731 154.824 24.1749 154.918 23.9956C155.013 23.8163 155.146 23.6603 155.308 23.5391C155.47 23.4179 155.658 23.3344 155.857 23.2949C156.122 23.2411 156.398 23.2671 156.65 23.3697C156.901 23.4723 157.116 23.6468 157.268 23.8714C157.419 24.0959 157.5 24.3604 157.5 24.6306C157.503 24.8991 157.426 25.1623 157.278 25.3865C157.13 25.6107 156.919 25.7857 156.671 25.889C156.506 25.9579 156.329 25.9936 156.151 25.9939Z" fill="#F65B66"/>
<path d="M167.655 23.2147H162.201L161.265 25.8635H159.043L163.708 12.8672H166.183L170.845 25.8635H168.598L167.655 23.2147ZM164.95 15.4529L162.8 21.4782H167.054L164.95 15.4529Z" fill="#F65B66"/>
<path d="M172.865 12.8984H175.001V25.8639H172.865V12.8984Z" fill="#F65B66"/>
<path fill-rule="evenodd" clip-rule="evenodd" d="M10.7076 30.3875C8.58957 30.3875 6.51916 29.7621 4.75887 28.5905C2.99955 27.4209 1.62695 25.7554 0.814935 23.8051C0.00472907 21.8579 -0.207376 19.7135 0.205652 17.6453C0.619783 15.5753 1.63985 13.6752 3.13626 12.1862C4.63567 10.6936 6.54313 9.67801 8.61852 9.26719C10.6956 8.85599 12.8478 9.06727 14.8053 9.87454C16.7601 10.6798 18.4325 12.0461 19.6113 13.8011C20.7872 15.5529 21.4152 17.6149 21.4154 19.7247C21.4154 22.553 20.2875 25.2642 18.2795 27.2645C16.2677 29.2657 13.5452 30.3885 10.7076 30.3875ZM10.788 26.1232C15.2312 26.1232 18.8412 22.4572 18.8412 17.9329C18.8412 13.4099 15.2318 9.74587 10.788 9.74587C6.34481 9.74587 2.73479 13.4119 2.73479 17.9329C2.73479 22.454 6.34481 26.1232 10.788 26.1232ZM10.7076 24.2458C6.66135 24.2458 3.38203 21.0771 3.38203 17.1673C3.38203 13.2574 6.66521 10.0856 10.7076 10.0856C14.7506 10.0856 18.0331 13.2574 18.0331 17.1673C18.0331 21.0771 14.7538 24.2458 10.7076 24.2458ZM10.5519 21.3454C13.6208 21.3454 16.1062 18.9784 16.1062 16.0581C16.1062 13.1384 13.6067 10.7688 10.5519 10.7688C7.49775 10.7688 4.99821 13.1358 4.99821 16.0581C4.99821 18.981 7.49775 21.3454 10.5519 21.3454ZM10.6329 20.3224C8.23056 20.3224 6.28368 18.2591 6.28368 15.7158C6.28368 13.1719 8.22541 11.1092 10.6265 11.1092C13.0289 11.1092 14.9758 13.1719 14.9758 15.7158C14.9758 18.2597 13.0321 20.3224 10.6265 20.3224H10.6329ZM10.5519 16.282C11.0209 16.282 11.4784 16.1443 11.8682 15.885C12.2575 15.6262 12.5611 15.2576 12.7407 14.826C12.9201 14.395 12.9671 13.9204 12.8757 13.4626C12.7842 13.0048 12.5585 12.5847 12.2272 12.2557C11.8955 11.9253 11.4733 11.7005 11.0139 11.6096C10.5546 11.5187 10.0786 11.5657 9.646 11.7449C9.21346 11.9229 8.84338 12.2252 8.58249 12.6134C8.3224 13.001 8.18354 13.4572 8.18359 13.924C8.18488 14.5487 8.43451 15.1477 8.87845 15.5904C9.32319 16.0327 9.92462 16.2815 10.5519 16.2826V16.282Z" fill="#F65B66"/>
<path fill-rule="evenodd" clip-rule="evenodd" d="M10.7076 30.3875C8.58957 30.3875 6.51916 29.7621 4.75887 28.5905C2.99955 27.4209 1.62695 25.7554 0.814935 23.8051C0.00472907 21.8579 -0.207376 19.7135 0.205652 17.6453C0.619783 15.5753 1.63985 13.6752 3.13626 12.1862C4.63567 10.6936 6.54313 9.67801 8.61852 9.26719C10.6956 8.85599 12.8478 9.06727 14.8053 9.87454C16.7601 10.6798 18.4325 12.0461 19.6113 13.8011C20.7872 15.5529 21.4152 17.6149 21.4154 19.7247C21.4154 22.553 20.2875 25.2642 18.2795 27.2645C16.2677 29.2657 13.5452 30.3885 10.7076 30.3875ZM10.788 26.1232C15.2312 26.1232 18.8412 22.4572 18.8412 17.9329C18.8412 13.4099 15.2318 9.74587 10.788 9.74587C6.34481 9.74587 2.73479 13.4119 2.73479 17.9329C2.73479 22.454 6.34481 26.1232 10.788 26.1232ZM10.7076 24.2458C6.66135 24.2458 3.38203 21.0771 3.38203 17.1673C3.38203 13.2574 6.66521 10.0856 10.7076 10.0856C14.7506 10.0856 18.0331 13.2574 18.0331 17.1673C18.0331 21.0771 14.7538 24.2458 10.7076 24.2458ZM10.5519 21.3454C13.6208 21.3454 16.1062 18.9784 16.1062 16.0581C16.1062 13.1384 13.6067 10.7688 10.5519 10.7688C7.49775 10.7688 4.99821 13.1358 4.99821 16.0581C4.99821 18.981 7.49775 21.3454 10.5519 21.3454Z" fill="#F65B66"/>
<path fill-rule="evenodd" clip-rule="evenodd" d="M10.7076 30.3875C8.58957 30.3875 6.51916 29.7621 4.75887 28.5905C2.99955 27.4209 1.62695 25.7554 0.814935 23.8051C0.00472907 21.8579 -0.207376 19.7135 0.205652 17.6453C0.619783 15.5753 1.63985 13.6752 3.13626 12.1862C4.63567 10.6936 6.54313 9.67801 8.61852 9.26719C10.6956 8.85599 12.8478 9.06727 14.8053 9.87454C16.7601 10.6798 18.4325 12.0461 19.6113 13.8011C20.7872 15.5529 21.4152 17.6149 21.4154 19.7247C21.4154 22.553 20.2875 25.2642 18.2795 27.2645C16.2677 29.2657 13.5452 30.3885 10.7076 30.3875ZM10.788 26.1232C15.2312 26.1232 18.8412 22.4572 18.8412 17.9329C18.8412 13.4099 15.2318 9.74587 10.788 9.74587C6.34481 9.74587 2.73479 13.4119 2.73479 17.9329C2.73479 22.454 6.34481 26.1232 10.788 26.1232Z" fill="#F65B66"/>
</svg>
