<svg width="210" height="40" viewBox="0 0 210 40" fill="none" xmlns="http://www.w3.org/2000/svg">
<g clip-path="url(#clip0_15940_29070)">
<path d="M29.0088 20.0006C29.0088 11.99 22.5151 5.49609 14.5045 5.49609C6.49386 5.49609 0 11.99 0 20.0006C0 28.0111 6.49386 34.505 14.5045 34.505C22.5151 34.505 29.0088 28.0111 29.0088 20.0006Z" fill="#111824"/>
<path d="M14.5696 8.46875C8.16478 8.46875 2.97266 13.6609 2.97266 20.0658C2.97266 26.4705 8.16481 31.6626 14.5696 31.6626C20.9744 31.6626 26.1665 26.4705 26.1665 20.0658C26.1665 13.6609 20.9744 8.46875 14.5696 8.46875Z" fill="#191240"/>
<path fill-rule="evenodd" clip-rule="evenodd" d="M14.5059 14.1616C14.5059 13.6855 14.8937 13.2938 15.3661 13.3537C18.6982 13.7763 21.2746 16.6215 21.2746 20.0683C21.2746 23.5151 18.6982 26.3603 15.3661 26.7829C14.8937 26.8428 14.5059 26.4511 14.5059 25.975V14.1616Z" fill="#F8F9FA"/>
<path d="M205.446 27.4953V15.0241H209.862V12.5059H198.205V15.0241H202.622V27.4953H205.446Z" fill="#111824"/>
<path d="M194.571 27.4953V12.5059H191.746V27.4953H194.571Z" fill="#111824"/>
<path d="M180.513 27.835C183.934 27.835 186.46 25.7366 186.46 22.2789V12.5059H183.635V22.2789C183.635 24.1376 182.283 25.2769 180.513 25.2769C178.742 25.2769 177.389 24.1376 177.389 22.2789V12.5059H174.564V22.2789C174.564 25.7366 177.072 27.835 180.513 27.835Z" fill="#111824"/>
<path d="M161.403 27.4953H158.578V12.5059H165.143C168.046 12.5059 170.393 14.6843 170.393 17.6222C170.393 19.7607 169.14 21.4995 167.331 22.2789L169.976 27.4953H166.833L164.466 22.7387H161.403V27.4953ZM165.143 20.2204C166.436 20.2204 167.45 19.0413 167.45 17.6222C167.45 16.2033 166.436 15.0241 165.143 15.0241H161.403V20.2204H165.143Z" fill="#111824"/>
<path d="M146.907 27.4953V21.2397H153.333V18.7215H146.907V15.0241H154.684V12.5059H144.082V27.4953H146.907Z" fill="#111824"/>
<path d="M138.736 28.2137V12.5047H135.911L135.931 21.0987H135.851L127.02 11.7852V27.4942H129.844L129.824 18.9002H129.903L138.736 28.2137Z" fill="#111824"/>
<path d="M115.079 27.8351C110.583 27.8351 106.963 24.4374 106.963 20.0005C106.963 15.5637 110.583 12.166 115.079 12.166C119.554 12.166 123.194 15.5637 123.194 20.0005C123.194 24.4374 119.554 27.8351 115.079 27.8351ZM115.079 25.2768C117.983 25.2768 120.251 22.9385 120.251 20.0005C120.251 17.0826 117.983 14.7242 115.079 14.7242C112.194 14.7242 109.907 17.0826 109.907 20.0005C109.907 22.9385 112.194 25.2768 115.079 25.2768Z" fill="#111824"/>
<path d="M97.3171 27.8351C99.6643 27.8351 101.773 26.8358 103.205 25.137V18.7214H97.1978V21.2397H100.42V24.1377C99.5449 24.8172 98.4907 25.2768 97.3171 25.2768C94.4527 25.2768 92.1452 22.8985 92.1452 20.0005C92.1452 17.1026 94.4527 14.7242 97.3171 14.7242C98.7095 14.7242 99.9627 15.3838 100.898 16.3031L102.827 14.4245C101.415 13.0054 99.4654 12.166 97.3171 12.166C92.8414 12.166 89.2012 15.5637 89.2012 20.0005C89.2012 24.4374 92.8414 27.8351 97.3171 27.8351Z" fill="#111824"/>
<path d="M76.2228 27.4942H72.9805L79.888 12.508L80.2211 11.7852L87.4419 27.4942H84.1994L83.2845 25.3756H77.1379L76.2228 27.4942ZM82.1904 22.8574L80.2609 18.3606H80.1813L78.2319 22.8574H82.1904Z" fill="#111824"/>
<path d="M61.1606 27.4953H58.3359V12.5059H64.9003C67.8044 12.5059 70.1517 14.6843 70.1517 17.6222C70.1517 19.7607 68.8985 21.4995 67.0884 22.2789L69.7339 27.4953H66.5911L64.2239 22.7387H61.1606V27.4953ZM64.9003 20.2204C66.1932 20.2204 67.2077 19.0413 67.2077 17.6222C67.2077 16.2033 66.1932 15.0241 64.9003 15.0241H61.1606V20.2204H64.9003Z" fill="#111824"/>
<path d="M47.141 27.4953H41.9492V12.5059H47.141C51.4575 12.5059 54.7993 15.6636 54.7993 20.0006C54.7993 24.3375 51.4575 27.4953 47.141 27.4953ZM47.141 24.977C49.7467 24.977 51.8553 22.7387 51.8553 20.0006C51.8553 17.2824 49.7467 15.0241 47.141 15.0241H44.7738V24.977H47.141Z" fill="#111824"/>
</g>
<defs>
<clipPath id="clip0_15940_29070">
<rect width="210" height="40" fill="white"/>
</clipPath>
</defs>
</svg>
