<svg width="302" height="64" viewBox="0 0 302 64" fill="none" xmlns="http://www.w3.org/2000/svg">
<path d="M42.4685 32.0004C42.4685 20.5492 33.1856 11.2661 21.7343 11.2661C10.2831 11.2661 1 20.5492 1 32.0004C1 43.4515 10.2831 52.7346 21.7343 52.7346C33.1856 52.7346 42.4685 43.4515 42.4685 32.0004Z" fill="url(#paint0_linear_15435_4440)"/>
<path d="M21.8289 15.5173C12.6732 15.5173 5.25098 22.9395 5.25098 32.0955C5.25098 41.2511 12.6732 48.6733 21.8289 48.6733C30.9847 48.6733 38.4069 41.2511 38.4069 32.0955C38.4069 22.9395 30.9847 15.5173 21.8289 15.5173Z" fill="#191240"/>
<path fill-rule="evenodd" clip-rule="evenodd" d="M21.7354 23.6527C21.7354 22.9721 22.2898 22.4122 22.9651 22.4978C27.7284 23.1019 31.4113 27.1691 31.4113 32.0964C31.4113 37.0237 27.7284 41.0909 22.9651 41.695C22.2898 41.7806 21.7354 41.2207 21.7354 40.5401V23.6527Z" fill="#F8F9FA"/>
<path d="M294.688 42.7135V24.8858H301V21.286H284.337V24.8858H290.65V42.7135H294.688Z" fill="black"/>
<path d="M279.142 42.7135V21.286H275.104V42.7135H279.142Z" fill="black"/>
<path d="M259.043 43.1992C263.934 43.1992 267.545 40.1995 267.545 35.2567V21.286H263.507V35.2567C263.507 37.9137 261.574 39.5424 259.043 39.5424C256.512 39.5424 254.578 37.9137 254.578 35.2567V21.286H250.54V35.2567C250.54 40.1995 254.124 43.1992 259.043 43.1992Z" fill="black"/>
<path d="M231.727 42.7135H227.689V21.286H237.074C241.224 21.286 244.579 24.4001 244.579 28.5999C244.579 31.6569 242.788 34.1425 240.202 35.2567L243.982 42.7135H239.49L236.107 35.9139H231.727V42.7135ZM237.074 32.3141C238.922 32.3141 240.372 30.6284 240.372 28.5999C240.372 26.5715 238.922 24.8858 237.074 24.8858H231.727V32.3141H237.074Z" fill="black"/>
<path d="M211.004 42.7135V33.7712H220.19V30.1713H211.004V24.8858H222.122V21.286H206.966V42.7135H211.004Z" fill="black"/>
<path d="M199.323 43.7428V21.2865H195.285L195.314 33.5717H195.2L182.575 20.2579V42.7142H186.612L186.584 30.4289H186.697L199.323 43.7428Z" fill="black"/>
<path d="M165.505 43.1998C159.079 43.1998 153.903 38.3428 153.903 32.0001C153.903 25.6576 159.079 20.8007 165.505 20.8007C171.903 20.8007 177.106 25.6576 177.106 32.0001C177.106 38.3428 171.903 43.1998 165.505 43.1998ZM165.505 39.5427C169.656 39.5427 172.899 36.2 172.899 32.0001C172.899 27.829 169.656 24.4577 165.505 24.4577C161.382 24.4577 158.112 27.829 158.112 32.0001C158.112 36.2 161.382 39.5427 165.505 39.5427Z" fill="black"/>
<path d="M140.115 43.1998C143.471 43.1998 146.485 41.7713 148.532 39.3428V30.1717H139.945V33.7716H144.551V37.9143C143.3 38.8857 141.793 39.5427 140.115 39.5427C136.021 39.5427 132.722 36.1429 132.722 32.0001C132.722 27.8576 136.021 24.4577 140.115 24.4577C142.106 24.4577 143.897 25.4005 145.234 26.7146L147.992 24.0292C145.973 22.0006 143.186 20.8007 140.115 20.8007C133.717 20.8007 128.513 25.6576 128.513 32.0001C128.513 38.3428 133.717 43.1998 140.115 43.1998Z" fill="black"/>
<path d="M109.96 42.7142H105.325L115.675 20.2579L125.998 42.7142H121.363L120.055 39.6856H111.268L109.96 42.7142ZM118.491 36.0858L115.733 29.6575H115.619L112.832 36.0858H118.491Z" fill="black"/>
<path d="M88.4287 42.7135H84.3908V21.286H93.7746C97.9261 21.286 101.282 24.4001 101.282 28.5999C101.282 31.6568 99.4901 34.1425 96.9025 35.2567L100.684 42.7135H96.1916L92.8077 35.9139H88.4287V42.7135ZM93.7746 32.3141C95.6229 32.3141 97.0731 30.6284 97.0731 28.5999C97.0731 26.5715 95.6229 24.8858 93.7746 24.8858H88.4287V32.3141H93.7746Z" fill="black"/>
<path d="M68.3885 42.7135H60.9668V21.286H68.3885C74.5589 21.286 79.3362 25.8001 79.3362 31.9998C79.3362 38.1995 74.5589 42.7135 68.3885 42.7135ZM68.3885 39.1137C72.1135 39.1137 75.1277 35.9139 75.1277 31.9998C75.1277 28.1142 72.1135 24.8858 68.3885 24.8858H65.0046V39.1137H68.3885Z" fill="black"/>
<defs>
<linearGradient id="paint0_linear_15435_4440" x1="25.6219" y1="13.2099" x2="13.9589" y2="49.4948" gradientUnits="userSpaceOnUse">
<stop stop-color="#700090"/>
<stop offset="0.495" stop-color="#7A27AB"/>
<stop offset="1" stop-color="#6161F0"/>
</linearGradient>
</defs>
</svg>
