<svg width="114" height="64" viewBox="0 0 114 64" fill="none" xmlns="http://www.w3.org/2000/svg">
<path d="M99 18H85V46H99V18Z" fill="#FFAA0D"/>
<path d="M15 46C22.7315 46 29 39.7315 29 32C29 24.2685 22.7315 18 15 18C7.2685 18 1 24.2685 1 32C1 39.7315 7.2685 46 15 46Z" fill="#E2F78C"/>
<path d="M43 46C50.7315 46 57 39.7315 57 32C57 24.2685 50.7315 18 43 18C35.2685 18 29 24.2685 29 32C29 39.7315 35.2685 46 43 46Z" fill="#FFC3DF"/>
<path d="M15 18H1V46H15V18Z" fill="#418B5C"/>
<path d="M57 18H29V32H57V18Z" fill="#E14322"/>
<path fill-rule="evenodd" clip-rule="evenodd" d="M71 32C69.1435 32 67.363 31.2625 66.0503 29.9497C64.7375 28.637 64 26.8565 64 25C64 23.1435 64.7375 21.363 66.0503 20.0503C67.363 18.7375 69.1435 18 71 18H113V32H71Z" fill="#3B82F6"/>
<path fill-rule="evenodd" clip-rule="evenodd" d="M57 46V32H71C72.8565 32 74.637 32.7375 75.9497 34.0503C77.2625 35.363 78 37.1435 78 39C78 40.8565 77.2625 42.637 75.9497 43.9497C74.637 45.2625 72.8565 46 71 46H57Z" fill="#9FDBFF"/>
</svg>
