<svg width="263" height="64" viewBox="0 0 263 64" fill="none" xmlns="http://www.w3.org/2000/svg">
<path d="M21.0903 15.0589C20.8577 17.451 18.1243 20.9753 14.9141 21.1537C11.6069 21.27 8.09807 18.0365 4.64356 18.1606C2.79805 18.2265 0.646245 19.0058 0.557071 21.3049C0.533809 23.1465 2.06139 23.9917 4.37604 23.9607C6.34174 23.8367 6.77985 23.5846 8.33458 22.627C7.55915 23.9607 6.02769 24.8021 4.36053 24.9533C1.59614 24.8951 0.250779 23.1155 0.0103971 21.0955C-0.171828 18.7615 2.03813 14.3687 6.88841 14.3726C11.2192 14.3687 14.7008 17.0711 17.155 17.1292C18.8803 17.1021 19.9427 16.1561 21.0903 15.0589Z" fill="black"/>
<path d="M16.3365 25.089C17.3678 25.1006 18.3332 26.0234 18.3332 27.2796C18.3332 28.4117 17.329 29.3073 16.3287 29.3034C15.2741 29.2995 13.6807 28.1441 14.8128 26.3917C14.8128 26.3917 13.1534 27.14 13.6225 29.0436C15.185 30.2339 17.3949 32.0911 16.9607 35.2044C16.4722 38.6977 11.3079 39.5429 10.4704 42.6174C9.56315 40.4307 8.18289 39.4033 6.40329 39.4227C3.37526 39.4537 1.58403 41.8885 1.6577 43.672C1.78177 46.4829 3.59238 47.6693 7.49664 47.5724C11.1838 47.3863 13.4015 45.7928 14.9097 43.3192C14.4289 45.0755 12.4943 49.1698 7.24851 49.2318C2.31293 49.1698 0.719436 45.5447 0.661279 42.9199C0.723313 38.0463 4.59268 36.1078 7.21749 36.0767C10.0439 36.0418 11.2458 37.329 12.9014 39.0466C12.9014 39.0466 13.8086 37.0693 12.7579 35.2703C10.8465 31.998 7.69438 32.6649 6.96548 28.6133C6.36065 25.2363 10.9628 21.681 12.3392 21.27C11.2807 22.375 9.56315 23.5963 10.6526 26.3645C11.1256 27.5781 13.0642 28.5551 13.0642 28.5551C13.0332 27.5161 13.9327 25.0541 16.3365 25.089Z" fill="black"/>
<path d="M20.1089 27.0081L22.6251 23.4489C22.6251 23.4489 24.618 23.7281 25.6764 26.2133L27.7274 23.5303C27.7274 23.5303 29.2705 25.9729 31.3835 23.6777C31.3835 23.6777 30.391 27.5897 27.8476 27.7021C26.9365 27.7409 25.909 26.9849 25.909 26.9849L25.9052 37.7555C25.9052 37.7555 25.7268 39.0078 27.4715 39.3994C27.4715 39.3994 25.7307 41.1984 24.5482 42.9547C23.0632 41.1364 21.2875 39.6941 21.2875 39.6941C21.2875 39.6941 22.1056 39.3994 22.1133 38.2014L22.1211 27.6983C22.1211 27.6983 21.9389 26.0621 20.1089 27.0081Z" fill="black"/>
<path fill-rule="evenodd" clip-rule="evenodd" d="M38.2726 23.5614C38.2726 23.5614 35.4772 25.9032 33.0269 26.7601C31.1194 27.4269 31.1698 29.2414 31.1698 29.2414L31.1775 39.0583C31.1775 39.0583 30.7239 40.9387 34.6398 43.0672C34.6398 43.0672 35.7641 41.055 37.3693 39.4189C37.3693 39.4189 37.629 41.9041 40.2345 42.8734C40.2345 42.8734 40.9828 40.8301 42.615 39.6166C41.8784 39.287 40.8742 38.8916 40.8703 37.3291L40.8432 27.7293C40.8432 27.7293 40.7618 27.361 41.4907 26.574L38.2726 23.5614ZM35.7215 26.1242C34.9034 26.5158 34.663 27.2757 34.6902 28.0318V37.4221C34.663 38.2674 35.1748 39.2677 36.0549 39.2677C37.2646 39.2677 37.2724 37.9068 37.2724 37.9068L37.2646 28.1519C37.2646 28.1519 37.3576 27.2137 35.7215 26.1242Z" fill="black"/>
<path d="M46.9543 23.6738C45.7369 25.434 44.0814 27.3881 44.0814 27.3881C44.0814 27.3881 45.8377 27.6207 45.7679 28.9001L45.7912 38.1083C45.7796 39.5196 44.8995 39.5894 44.8995 39.5894C44.8995 39.5894 46.5938 40.9735 47.7143 43.009C47.7143 43.009 48.9433 40.8533 50.277 39.5467C50.277 39.5467 49.3775 39.5894 49.3775 38.0114L49.3504 28.9273C49.3737 28.3845 50.0754 27.5044 50.6841 27.5044C51.9287 27.5044 52.1652 28.5047 52.1381 29.2956V38.7093C52.1109 39.9848 52.1148 41.2682 54.6039 42.9663C54.6039 42.9663 55.8911 40.9037 57.5001 39.5351C57.5001 39.5351 55.7825 39.7096 55.7825 37.7671L55.7632 28.2643C55.7632 28.2643 55.7632 27.0042 56.2168 26.6979C56.2168 26.6979 54.4178 25.3487 53.0298 23.604L49.4435 27.5935C48.8076 24.1507 46.9543 23.6738 46.9543 23.6738Z" fill="black"/>
<path fill-rule="evenodd" clip-rule="evenodd" d="M66.8515 16.8617C66.4987 16.4313 66.0257 17.0827 66.0257 17.0827L64.184 19.3392L64.1685 18.1179C64.1298 17.1253 64.5562 16.1134 65.541 15.338C65.541 15.338 62.7224 15.086 61.819 18.556C61.819 18.556 60.7489 17.893 60.0549 17.9589C60.272 18.397 60.2798 19.0562 60.2798 19.0562V24.2205L59.3376 24.2127V25.876L60.3224 25.8683L60.303 38.0967C60.3108 39.2211 59.4617 39.539 59.4617 39.539C59.4617 39.539 61.2529 40.7913 62.4393 43.292C62.4393 43.292 63.4706 40.9696 66.0334 39.6902C66.0334 39.6902 64.1918 39.3141 64.1608 37.8757L64.1685 25.8721L65.7969 25.876V24.2127L64.1918 24.2166L64.1879 23.9374L66.4483 21.9562C68.8288 19.6106 67.5339 17.2688 66.8515 16.8617ZM64.1569 19.8587V23.5265C64.1569 23.5265 66.6499 21.6693 64.1569 19.8587Z" fill="black"/>
<path d="M75.5511 14.6131C75.5511 14.6131 73.946 19.3974 69.3089 19.6145L69.3244 23.9375H68.204V25.7249L69.2896 25.7288L69.3089 49.9375H70.0844V45.3121C70.0844 45.3121 70.0107 43.2999 71.2514 43.0828L72.3137 42.9238C72.3137 42.9238 73.2209 42.9354 73.1977 41.9351L73.1783 25.7482L75.0665 25.7365V23.9453L73.2481 23.9375L73.2442 18.4941C73.2442 18.4941 77.8541 22.3983 79.5058 14.993C79.5058 14.993 77.6447 18.0055 75.5511 14.6131Z" fill="black"/>
<path d="M79.6149 23.5691C78.2541 25.6317 76.7342 26.6669 76.7342 26.6669C76.7342 26.6669 77.9749 26.9112 78.002 28.2876L78.0641 38.6278C78.068 39.7173 77.3662 39.9422 77.3662 39.9422C78.7348 41.0549 80.4059 43.1602 80.4059 43.1602C80.4059 43.1602 83.2284 39.7794 84.6242 38.8992C84.124 41.3302 87.1869 43.0633 87.1869 43.0633L89.645 39.6553C89.645 39.6553 88.3346 39.3219 88.2764 37.899L88.2493 28.0898C88.2764 26.9693 88.9782 26.4227 88.9782 26.4227C87.0939 25.2402 86.4929 23.3869 86.4929 23.3869C85.4887 25.5154 83.6975 26.6979 83.6975 26.6979C83.6975 26.6979 84.5234 27.2446 84.5234 28.0317L84.5427 37.4802C84.5505 38.2091 84.0697 39.2404 83.0345 39.2404C82.1854 39.2404 81.7628 38.2091 81.7008 37.7555L81.6427 27.3416C81.6427 25.0036 79.6149 23.5691 79.6149 23.5691Z" fill="black"/>
<path d="M91.5136 27.1593L94.057 23.5885C94.057 23.5885 95.697 24.1972 96.5306 26.4498L98.0853 23.5536C98.0853 23.5536 99.1632 25.6201 100.737 23.732C100.737 23.732 100.916 28.338 98.4071 28.3612C97.3913 28.369 96.6585 27.4307 96.6585 27.4307L96.6547 37.7555C96.6547 37.7555 96.4065 39.7716 98.7212 39.6437C98.7212 39.6437 96.612 41.1635 95.6117 43.1021C94.1268 41.2837 92.0797 39.8879 92.0797 39.8879C92.0797 39.8879 93.0528 39.6282 93.1032 38.5038L93.0683 28.8847C93.0683 28.8847 93.1846 27.4269 91.5136 27.1593Z" fill="black"/>
<path d="M102.878 24.1352L102.114 24.1274L102.11 26.0156L102.905 26.0079L102.948 38.7093C102.986 39.5584 102.343 39.9849 102.343 39.9849C102.343 39.9849 103.812 41.1247 105.181 42.8539C106.607 40.834 108.627 39.7445 108.627 39.7445C108.627 39.7445 106.608 39.5274 106.608 38.3138L106.58 25.9846L108.562 25.9962L108.554 24.1274L106.608 24.1352L106.588 18.5056L102.893 19.851L102.878 24.1352Z" fill="black"/>
<path fill-rule="evenodd" clip-rule="evenodd" d="M117.425 23.4878C116.052 24.8874 114.994 24.965 114.102 25.4341C112.571 26.2444 110.442 26.7988 110.462 29.6602L110.473 38.1394C110.504 41.7451 113.493 41.9933 115.296 42.9742C116.506 40.6828 119.119 38.8024 119.119 38.8024L118.72 38.5581C118.72 38.5581 117.778 39.5778 116.533 39.5274C114.226 39.4382 114.203 37.0306 114.203 37.0306V33.3395C114.203 33.3395 117.239 32.0446 118.844 30.3425C119.534 29.6059 119.782 29.1135 119.813 28.0822C119.867 26.3064 118.417 25.1007 117.425 23.4878ZM114.637 25.9187C114.637 25.9187 114.172 26.1824 114.203 28.2721L114.199 33.01C114.199 33.01 119.104 31.052 114.637 25.9187Z" fill="black"/>
<path d="M120.545 26.6243C121.735 25.686 123.298 23.3365 123.298 23.3365C123.298 23.3365 124.701 23.8405 125.733 26.2793C126.578 25.182 127.427 23.3094 127.427 23.3094C127.427 23.3094 128.986 26.0272 130.773 23.3055C130.773 23.3055 130.393 27.9038 127.764 28.1519C126.752 28.2488 125.83 26.9345 125.83 26.9345V37.4686C125.83 39.1901 127.927 39.4692 127.927 39.4692C127.927 39.4692 125.768 40.6595 124.701 42.8501C123.217 41.0317 121.511 39.6282 121.511 39.6282C121.511 39.6282 122.146 39.5041 122.193 38.3797L122.205 28.3302C122.205 26.4537 120.545 26.6243 120.545 26.6243Z" fill="black"/>
<path fill-rule="evenodd" clip-rule="evenodd" d="M142.432 20.4908C142.432 20.4908 141.253 21.2972 140.315 21.2972C139.419 21.2972 138.71 20.5179 138.713 19.7231C138.717 18.56 139.966 17.9745 141.129 17.9745C143.494 17.9745 143.975 21.2546 143.975 21.2546L138.434 37.1779C135.619 37.2089 133.254 39.9655 133.285 43.296C133.316 46.7466 136.162 49.2047 139.888 49.1815C145.619 49.1466 147.313 43.7225 147.313 43.7225C146.192 44.9011 145.118 47.5259 139.768 47.5027C137.089 47.491 134.169 46.3861 134.107 44.0559C134.072 42.7532 135.476 41.4195 137.163 41.4195C139.163 41.4195 140.373 42.8114 140.373 42.8114L144.475 38.4263L144.157 38.0774L143.16 39.0661C141.676 37.4532 139.31 37.1973 139.31 37.1973L141.013 32.2113L146.51 32.2191L148.395 40.2059C148.976 42.2996 150.097 41.7568 151.989 43.168L154.075 38.9304C154.075 38.9304 152.458 39.3607 151.946 37.5113L147.53 18.7034C147.53 18.7034 146.642 14.0664 142.129 14.0625C139.535 14.0625 137.197 15.8227 137.197 18.5212C137.197 20.2581 138.616 21.7935 140.342 21.7935C141.707 21.7935 142.432 20.4908 142.432 20.4908ZM144.308 22.6503L141.497 30.8776L146.196 30.8892L144.308 22.6503Z" fill="black"/>
<path d="M155.734 38.0889C155.773 38.9419 154.547 39.3296 154.547 39.3296C154.547 39.3296 156.277 40.9348 157.765 43.0943C158.967 40.6711 160.972 39.632 160.972 39.632C160.972 39.632 159.498 39.5274 159.498 38.3138V16.0359L155.734 17.8271V38.0889Z" fill="black"/>
<path d="M163.885 37.9842C163.881 38.9652 163.074 39.4576 163.074 39.4576C163.074 39.4576 164.757 41.148 165.986 43.1253C167.242 40.5703 169.262 39.6165 169.262 39.6165C169.262 39.6165 167.638 39.5273 167.638 38.3138V15.7024L163.885 17.8348V37.9842Z" fill="black"/>
<path fill-rule="evenodd" clip-rule="evenodd" d="M179.059 23.2667C174.775 26.3567 171.824 25.5774 171.789 28.5202L171.824 38.9845C171.816 40.9037 173.359 41.935 175.023 43.0284L178.039 39.4498L178.047 41.431C178.024 43.7534 179.749 43.6293 179.722 45.8703C179.702 47.5374 178.38 48.3323 177.054 48.3245C174.701 48.3129 174.108 46.9791 174.108 46.9791C174.108 46.9791 174.147 47.173 174.744 47.1614C175.903 47.1381 176.632 46.479 176.628 45.3663C176.62 44.3 175.783 43.5711 174.74 43.5905C173.639 43.6099 172.832 44.4474 172.836 45.3818C172.844 46.8706 173.724 48.8402 177.318 48.8246C180.901 48.813 183.351 46.1145 183.351 43.9976C183.351 42.346 181.808 41.9583 181.808 40.043L181.715 27.2485C181.707 26.4847 182.351 25.8643 182.351 25.8643C180.396 24.7632 179.059 23.2667 179.059 23.2667ZM178 27.5276L176.124 25.624C176.124 25.624 175.511 25.9845 175.507 27.5354L175.527 37.8446C175.581 38.9419 175.961 39.4188 176.872 39.3916C177.717 39.3645 178.02 38.907 178.02 37.7632L178 27.5276Z" fill="black"/>
<path fill-rule="evenodd" clip-rule="evenodd" d="M192.916 23.2551C191.92 24.0421 189.923 25.1394 188.973 25.4689C185.581 26.6553 185.538 27.1206 185.538 29.6601L185.542 38.2944C185.542 42.1638 188.55 41.59 190.485 42.9858C190.915 41.0549 193.606 38.7946 193.606 38.7946L193.455 38.624C193.455 38.624 192.734 39.2405 191.489 39.1901C189.182 39.1009 189.213 37.0305 189.213 37.0305V33.6807C189.213 33.6807 191.881 32.1725 193.715 30.4433C194.448 29.7531 194.653 29.1134 194.684 28.0821C194.738 26.3064 193.734 25.8838 192.916 23.2551ZM189.714 25.7015C189.714 25.7015 189.182 26.1823 189.213 28.2721L189.21 33.2852C189.21 33.2852 193.792 31.7033 189.714 25.7015Z" fill="black"/>
<path d="M198.971 23.2357L195.978 26.7988C195.978 26.7988 197.723 26.919 197.723 28.1364L197.77 38.1277C197.75 39.4382 197.188 39.7406 197.188 39.7406C197.188 39.7406 198.665 41.0433 199.824 43.0245C200.67 41.1054 202.399 39.5274 202.399 39.5274C202.399 39.5274 201.623 38.8489 201.589 37.8835L201.558 28.8071C201.716 27.9697 202.255 27.5471 202.775 27.5277C203.43 27.5083 203.961 28.0317 203.996 28.6869L204.058 38.0773C204.058 38.9729 203.504 39.4072 203.504 39.4072C203.504 39.4072 204.888 41.1403 205.842 43.1098C206.889 40.7913 208.602 39.5157 208.602 39.5157C208.602 39.5157 207.679 38.7946 207.679 37.55L207.652 28.4737C207.8 27.6673 208.191 27.3338 208.808 27.2253C209.44 27.1128 209.994 27.5975 210.114 28.2294L210.192 39.2405C210.192 41.055 211.708 41.9351 213.286 42.8888C214.007 40.8456 215.821 39.2443 215.821 39.2443C215.821 39.2443 213.767 39.4615 213.767 37.5733L213.716 27.2563C213.739 26.4033 214.441 25.9148 214.441 25.9148C212.522 25.0618 210.994 23.2628 210.994 23.2628L207.586 27.4152C207.742 25.2441 205.214 23.3249 205.214 23.3249L201.526 27.8068C201.255 23.9685 198.971 23.2357 198.971 23.2357Z" fill="black"/>
<path fill-rule="evenodd" clip-rule="evenodd" d="M224.759 23.2125C219.521 27.2447 217.974 26.6089 217.974 28.625L217.978 39.2987C217.978 41.6598 219.983 41.6056 221.913 43.0013C222.825 41.2682 224.554 39.8182 226.062 38.7598L225.876 38.5581C225.876 38.5581 225.019 39.2483 223.771 39.225C221.219 39.1785 221.495 37.0306 221.495 37.0306L221.499 33.6109C221.499 33.6109 223.491 32.5447 225.399 30.8814C226.159 30.2185 226.713 29.1561 226.76 28.1209C226.853 26.2134 225.698 25.7559 224.759 23.2125ZM221.611 25.88C221.611 25.88 221.468 26.1824 221.495 28.2721L221.491 33.1496C222.038 32.8161 225.791 30.8776 221.611 25.88Z" fill="black"/>
<path fill-rule="evenodd" clip-rule="evenodd" d="M259.141 23.0845C255.997 26.2948 252.027 26.0621 251.961 29.2414L251.98 39.2986C252.058 41.1868 253.732 41.5512 255.667 42.947C257.222 40.6595 259.126 39.5661 260.63 38.5077L260.444 38.3061C260.444 38.3061 258.932 39.4886 257.683 39.4653C255.132 39.4188 255.497 37.0305 255.497 37.0305V33.3395C255.497 33.3395 257.121 32.5486 259.401 30.9163C260.219 30.327 260.944 29.4779 260.994 28.4466C261.083 26.539 260.103 26.2948 259.141 23.0845ZM255.9 25.7287C255.9 25.7287 255.466 26.1823 255.497 28.2721L255.493 32.975C257.683 32.0213 258.812 28.3768 255.9 25.7287Z" fill="black"/>
<path d="M238.887 23.3481L236.402 26.6592C236.402 26.6592 238.259 26.9229 238.189 28.2139L238.224 38.3061C238.259 38.7713 237.561 39.4343 237.561 39.4343C237.561 39.4343 239.154 41.1247 239.779 42.8811C240.973 41.0239 242.694 39.4343 242.694 39.4343C242.694 39.4343 241.768 38.938 241.768 37.9765V28.842C242.031 28.0472 242.528 27.5199 243.156 27.485C243.753 27.454 244.447 28.0162 244.381 28.6443L244.412 38.6046C244.412 41.7179 247.161 42.8113 247.161 42.8113L249.514 39.3994C249.514 39.3994 247.986 39.3994 247.955 38.2402L247.921 27.613C248.021 26.6592 248.553 26.1629 248.553 26.1629C246.734 25.434 245.474 23.7436 245.474 23.7436L241.868 27.7177C241.702 24.1081 238.887 23.3481 238.887 23.3481Z" fill="black"/>
<path d="M231.342 23.383C230.349 24.8718 228.232 26.4304 228.232 26.4304C228.232 26.4304 229.686 26.6359 229.686 27.8572V38.1742C229.717 39.035 228.857 39.5661 228.857 39.5661C228.857 39.5661 230.349 41.1557 231.307 42.8811C232.466 41.0898 234.06 39.5312 234.06 39.5312C234.06 39.5312 233.226 39.0039 233.261 38.1432L233.23 27.7836C233.261 26.822 234.025 26.3296 234.025 26.3296C232.602 25.1704 231.342 23.383 231.342 23.383Z" fill="black"/>
<path d="M229.36 17.7225C229.36 16.5904 230.279 15.6715 231.411 15.6715C232.543 15.6715 233.462 16.5904 233.462 17.7225C233.462 18.8546 232.543 19.7735 231.411 19.7735C230.279 19.7735 229.36 18.8546 229.36 17.7225Z" fill="black"/>
</svg>
