<svg width="90" height="40" viewBox="0 0 90 40" fill="none" xmlns="http://www.w3.org/2000/svg">
<g clip-path="url(#clip0_15940_29135)">
<path d="M74.1371 24.9915C73.4195 24.8944 72.4794 24.1944 72.1092 23.5713C70.7187 21.2291 72.6309 18.4319 75.2721 18.8844C73.8797 16.7564 75.2929 13.9952 77.8352 13.9555C77.2377 11.4412 79.4948 9.29036 81.9544 10.2214C83.3837 10.7625 84.2507 12.4856 83.7663 13.9555C86.2844 13.954 87.8056 16.7836 86.3287 18.8844C89.0936 18.3565 91.1039 21.5859 89.329 23.8494C89.0105 24.2555 87.9685 24.9915 87.4637 24.9915H86.2555C88.5646 28.2338 84.3118 31.8079 81.5319 28.9651L80.7645 27.6405C80.312 29.6718 77.9205 30.6374 76.1566 29.5099C74.59 28.509 74.2883 26.4821 75.3453 24.9912C74.9642 24.9548 74.5065 25.0412 74.1371 24.9912V24.9915Z" fill="#111824"/>
<path d="M10.6568 10.5071L9.08511 13.2425C8.6529 13.0812 8.21626 12.9321 7.77569 12.7955C7.4017 12.6831 7.02221 12.5902 6.63871 12.517C6.21054 12.4379 5.77777 12.3864 5.34306 12.363C4.7559 12.3306 4.16827 12.3073 3.5804 12.2932V18.8805H9.98859L8.53129 21.5599C8.16648 21.4011 7.79191 21.2661 7.40987 21.1556C7.05062 21.0529 6.6863 20.9689 6.31839 20.9042C5.92791 20.837 5.53421 20.7905 5.13889 20.7646C4.66847 20.735 4.19722 20.721 3.72589 20.7225H3.5804V24.8818C3.5808 25.6819 3.6249 26.4076 3.71272 27.0589C3.80938 27.749 3.96013 28.4302 4.16356 29.0964H0C0.445853 27.4401 0.668581 25.7096 0.668181 23.9048V15.1675C0.668581 14.647 0.658801 14.1864 0.638844 13.7857C0.622365 13.4078 0.589002 13.0308 0.538856 12.656C0.490109 12.3035 0.421949 11.9541 0.334689 11.6092C0.238389 11.2375 0.12673 10.8701 0 10.5077L10.6568 10.5071ZM15.8418 10.5071C15.6865 10.9162 15.5608 11.2976 15.4646 11.6513C15.3661 12.0094 15.2883 12.373 15.2317 12.7402C15.1706 13.1377 15.1316 13.5384 15.1149 13.9403C15.0939 14.4331 15.0844 14.9263 15.0862 15.4196V23.9608C15.0862 24.519 15.0958 25.0073 15.1149 25.4256C15.1329 25.8443 15.1736 26.2402 15.2317 26.6119C15.2891 26.9841 15.367 27.3657 15.4652 27.7567C15.561 28.1478 15.6865 28.5943 15.8418 29.0964H11.4447C11.5816 28.6685 11.6982 28.2637 11.7944 27.8819C11.8925 27.4956 11.9704 27.1044 12.0279 26.71C12.0853 26.3097 12.1241 25.8726 12.144 25.3986C12.164 24.9233 12.174 24.3789 12.174 23.7653V14.9173C12.174 13.9122 12.1201 13.0889 12.0123 12.4472C11.8981 11.7772 11.6974 11.125 11.4154 10.5071H15.8418ZM27.8714 10.5071L26.4141 13.3821C25.4434 12.973 24.6183 12.6798 23.939 12.5025C23.2638 12.3264 22.5691 12.2374 21.8716 12.2379C21.7754 12.2379 21.6588 12.2425 21.5219 12.2517C21.3862 12.2609 21.2307 12.2655 21.0555 12.2655V18.7409H27.1428L25.4837 21.3927L24.1138 21.0161C23.7783 20.9212 23.4387 20.8419 23.096 20.7784C22.787 20.7229 22.4758 20.681 22.1631 20.6527L21.0555 20.5553V27.3374H22.9211C23.4977 27.3393 24.0729 27.2831 24.6383 27.1696C24.98 27.1031 25.3201 27.0288 25.6585 26.947C25.9687 26.8909 26.2453 26.8347 26.4884 26.7786C26.7299 26.7232 26.9773 26.6583 27.2308 26.5837C27.4839 26.5095 27.7505 26.4303 28.0307 26.346C28.3129 26.263 28.6478 26.1561 29.0354 26.0254L27.6092 29.0958H17.4458C17.6972 28.2212 17.8786 27.4301 17.984 26.7232C18.0918 26.0166 18.1457 25.2165 18.1457 24.3229V15.2241L18.1139 14.5822L17.9996 12.9357C17.9627 12.5843 17.9088 12.235 17.8379 11.8889C17.7705 11.5633 17.63 11.1027 17.4164 10.5071H27.8714ZM33.8982 10.5071C33.7559 10.8406 33.6294 11.1806 33.5192 11.5262C33.4191 11.8458 33.3413 12.1721 33.2863 12.5025C33.2245 12.8772 33.1803 13.2546 33.154 13.6335C33.1253 14.0426 33.1111 14.517 33.1115 15.0568L33.0534 27.2267C33.4989 27.189 33.892 27.1517 34.2329 27.1149C34.5492 27.0804 34.8646 27.0383 35.1789 26.9885C35.4691 26.9424 35.7507 26.8961 36.0237 26.8496C36.3351 26.7953 36.6453 26.7348 36.9541 26.6679C37.266 26.6021 37.5769 26.5323 37.887 26.4585C38.1584 26.3932 38.4252 26.319 38.6875 26.2359C38.9493 26.1517 39.2213 26.0631 39.5035 25.9701C39.7845 25.8774 40.1194 25.7565 40.5082 25.6073L38.9072 29.0964H29.412C29.5481 28.7431 29.6698 28.3894 29.7772 28.0353C29.883 27.6823 29.9652 27.3009 30.0239 26.8911C30.0821 26.482 30.1256 26.0354 30.1544 25.5514C30.1831 25.0673 30.1979 24.509 30.1987 23.8766V14.9173C30.1987 14.3959 30.1891 13.9353 30.1699 13.5355C30.1536 13.1658 30.1146 12.7976 30.0532 12.4328C29.9972 12.1084 29.9246 11.7871 29.8359 11.4702C29.7419 11.1431 29.6295 10.8215 29.4994 10.5071H33.8982ZM40.8273 10.5631C41.2939 10.5258 41.6625 10.4977 41.9332 10.4788C42.2066 10.4608 42.5271 10.4516 42.8947 10.4512C43.982 10.4512 44.9625 10.4931 45.8363 10.5769C46.71 10.6603 47.5113 10.7953 48.2402 10.9818C48.9666 11.1679 49.6362 11.4145 50.2489 11.7217C50.8588 12.0285 51.4462 12.3959 52.011 12.8238C53.1749 13.7173 54.0628 14.7641 54.6747 15.964C55.2866 17.1644 55.5924 18.49 55.592 19.941C55.5928 21.2621 55.3401 22.4855 54.834 23.6113C54.3459 24.7163 53.6314 25.7055 52.7372 26.5145C51.8451 27.3238 50.7824 27.9565 49.549 28.4125C47.6989 29.0964 46.9733 29.0964 45.516 29.0964H40.8567C40.9916 28.6874 41.1081 28.2825 41.2063 27.8819C41.3029 27.4816 41.3807 27.0677 41.4398 26.6402C41.4977 26.2123 41.541 25.7378 41.5697 25.2169C41.5985 24.6959 41.6127 24.1004 41.6123 23.4302V15.5592C41.6123 14.6472 41.5494 13.819 41.4237 13.0746C41.2889 12.2964 41.0894 11.531 40.8273 10.7863V10.5631ZM44.6706 27.3098C45.8159 27.1985 46.8565 26.938 47.7869 26.5283C48.7198 26.1192 49.5113 25.5842 50.1615 24.9233C50.8099 24.2644 51.3199 23.4813 51.6613 22.6205C52.011 21.7462 52.1858 20.7786 52.1858 19.7179C52.1858 18.3407 51.8653 17.108 51.2242 16.02C50.5824 14.9311 49.6504 14.0332 48.4282 13.3261C48.1368 13.1589 47.8604 13.0193 47.5989 12.9074C47.3324 12.7946 47.0597 12.6968 46.7823 12.6144C46.4803 12.5259 46.1744 12.4514 45.8656 12.3913C45.4697 12.3158 45.071 12.2552 44.6706 12.2096C44.639 12.4977 44.6099 12.7861 44.5831 13.0746C44.5648 13.298 44.5454 13.4982 44.5251 13.675C44.5065 13.8513 44.4965 14.0284 44.4951 14.2056V25.2445C44.4951 25.4491 44.5071 25.6494 44.5251 25.8443C44.545 26.0396 44.5644 26.249 44.5831 26.4724C44.6031 26.6962 44.6322 26.9753 44.6706 27.3098Z" fill="black"/>
<path d="M53.0271 10.5354L57.4553 10.5071C57.4549 10.6002 57.4497 10.684 57.4397 10.7586C57.4327 10.8141 57.4283 10.8699 57.4265 10.9258C57.4265 11.2422 57.4938 11.5679 57.6283 11.9028C57.7648 12.2376 57.9979 12.6842 58.3276 13.2425L61.065 17.8476L63.6862 13.3538L63.9485 12.9633C64.1816 12.5912 64.3662 12.219 64.5023 11.8468C64.638 11.4742 64.7061 11.1578 64.7065 10.8975V10.7303C64.7065 10.6743 64.6951 10.6004 64.6771 10.5071L68.6078 10.5348C68.3363 10.8516 68.0941 11.1727 67.8809 11.4979C67.638 11.8687 67.4048 12.2458 67.1816 12.6289L62.4936 20.4716V26.9193C62.494 27.7375 62.668 28.4632 63.0156 29.0964H59.0856C59.1814 28.8546 59.2652 28.6266 59.3323 28.4124C59.4017 28.1983 59.4532 27.9751 59.4939 27.7429C59.5348 27.4841 59.5588 27.2228 59.5658 26.9608C59.5761 26.6725 59.5811 26.333 59.5807 25.9424V20.6665L55.24 13.2425C55.0458 12.914 54.847 12.5883 54.6436 12.2655C54.4778 12.005 54.3143 11.777 54.1485 11.5815C53.9892 11.3906 53.8193 11.2088 53.6396 11.0371C53.4473 10.8556 53.2427 10.688 53.0271 10.5354Z" fill="black"/>
<path fill-rule="evenodd" clip-rule="evenodd" d="M70.2536 26.9178C70.2536 28.1209 69.234 29.0979 67.9791 29.0979C66.7241 29.0979 65.7051 28.1209 65.7051 26.9178C65.7051 25.7146 66.7241 24.7383 67.9791 24.7383C69.234 24.7383 70.2536 25.7152 70.2536 26.9178ZM69.8585 26.9178C69.8585 25.924 69.0167 25.1167 67.9791 25.1167C66.9415 25.1167 66.1002 25.924 66.1002 26.9178C66.1002 27.9116 66.9421 28.7189 67.9791 28.7189C69.0167 28.7189 69.8585 27.9122 69.8585 26.9178Z" fill="black"/>
<path d="M68.9528 27.8701C68.9951 27.9166 69.033 27.9419 69.0665 27.9459V27.9489H68.5354L67.8206 27.1272H67.6056V27.8575C67.6056 27.8924 67.6092 27.9152 67.6164 27.9261C67.6236 27.9369 67.6346 27.9435 67.6493 27.9459V27.9489H67.1781V27.9459C67.1848 27.9455 67.1913 27.9435 67.197 27.94C67.2027 27.9365 67.2075 27.9318 67.2111 27.9261C67.219 27.9152 67.2228 27.8924 67.2224 27.8575V25.9782C67.2224 25.9441 67.2186 25.9212 67.2111 25.9096C67.2075 25.904 67.2026 25.8993 67.1969 25.896C67.1912 25.8926 67.1847 25.8907 67.1781 25.8903V25.8873H67.89C68.1159 25.8873 68.2973 25.9336 68.4343 26.0263C68.5712 26.1197 68.6396 26.2581 68.6396 26.4414C68.6443 26.578 68.6006 26.7119 68.5163 26.8192C68.4345 26.9214 68.3237 26.9928 68.184 27.0333L68.9528 27.8701ZM67.6056 26.8757H67.8583C67.9109 26.8781 67.9635 26.87 68.013 26.8517C68.0624 26.8334 68.1078 26.8054 68.1463 26.7692C68.1809 26.7355 68.2083 26.6949 68.2267 26.6501C68.2451 26.6053 68.2542 26.5572 68.2534 26.5087C68.2547 26.4636 68.246 26.4187 68.228 26.3773C68.21 26.3359 68.1831 26.2991 68.1493 26.2693C68.0794 26.2064 67.9834 26.1749 67.8613 26.1749H67.6056V26.8757Z" fill="black"/>
</g>
<defs>
<clipPath id="clip0_15940_29135">
<rect width="90" height="40" fill="white"/>
</clipPath>
</defs>
</svg>
