<svg width="144" height="64" viewBox="0 0 144 64" fill="none" xmlns="http://www.w3.org/2000/svg">
<path d="M124.537 22.3284C123.581 18.3057 127.193 14.8642 131.128 16.3538C133.415 17.2195 134.801 19.9765 134.026 22.3284C138.055 22.326 140.49 26.8538 138.127 30.2151C142.551 29.3707 145.767 34.538 142.927 38.1594C142.417 38.8093 140.75 39.9866 139.942 39.9866H138.01C141.704 45.1742 134.9 50.8923 130.452 46.344L129.224 44.2249C128.5 47.4747 124.674 49.0198 121.852 47.2161C119.345 45.6146 118.863 42.3711 120.554 39.9856C119.944 39.9273 119.211 40.0656 118.62 39.9856C117.472 39.8301 115.968 38.711 115.376 37.7141C113.151 33.9667 116.211 29.4912 120.437 30.2151C118.209 26.8102 120.469 22.392 124.537 22.3284Z" fill="black"/>
<path d="M14.5361 21.1897C13.8446 20.9316 13.1463 20.6924 12.4414 20.4739C11.8431 20.2941 11.2356 20.1457 10.6221 20.0286C9.93701 19.902 9.24438 19.82 8.54883 19.7825C7.60939 19.7306 6.6691 19.6927 5.72852 19.6702V30.2102H15.9814L13.6504 34.4973C13.0667 34.2433 12.4667 34.0276 11.8555 33.8508C11.2808 33.6864 10.698 33.5521 10.1094 33.4485C9.48475 33.3411 8.85502 33.2662 8.22266 33.2249C7.46999 33.1776 6.71507 33.1551 5.96094 33.1575H5.72852V39.8128C5.72917 41.0928 5.79994 42.2542 5.94043 43.2962C6.09509 44.4001 6.33665 45.4901 6.66211 46.5559H0C0.713364 43.9058 1.06997 41.1368 1.06934 38.2493V24.2698C1.06997 23.437 1.05439 22.6998 1.02246 22.0588C0.996098 21.4543 0.942523 20.851 0.862305 20.2512C0.784314 19.6874 0.674762 19.1282 0.535156 18.5764C0.381076 17.9818 0.202767 17.3935 0 16.8137L17.0508 16.8128L14.5361 21.1897Z" fill="black"/>
<path d="M25.3467 16.8128C25.0982 17.4673 24.8971 18.0778 24.7432 18.6438C24.5856 19.2167 24.4617 19.7986 24.3711 20.386C24.2734 21.022 24.2103 21.6629 24.1836 22.3059C24.15 23.0944 24.1348 23.8839 24.1377 24.6731V38.3391C24.1377 39.2322 24.1529 40.0137 24.1836 40.6829C24.2123 41.3526 24.2782 41.9857 24.3711 42.5803C24.4631 43.1758 24.587 43.7867 24.7441 44.4124C24.8974 45.038 25.0982 45.7525 25.3467 46.5559H18.3115C18.5306 45.8713 18.7172 45.2234 18.8711 44.6126C19.0281 43.9946 19.1522 43.3686 19.2441 42.7376C19.3361 42.0972 19.3987 41.3974 19.4307 40.6389C19.4626 39.8786 19.4785 39.0073 19.4785 38.0256V23.8694C19.4785 22.2614 19.3921 20.9439 19.2197 19.9172C19.037 18.8452 18.7159 17.8014 18.2646 16.8128H25.3467Z" fill="black"/>
<path d="M54.2373 16.8128C54.0095 17.3463 53.8071 17.8907 53.6309 18.4436C53.4708 18.9548 53.3458 19.4765 53.2578 20.0051C53.1589 20.6045 53.089 21.2087 53.0469 21.8147C53.0009 22.4691 52.9779 23.2285 52.9785 24.092L52.8857 43.5647C53.5983 43.5044 54.2272 43.444 54.7725 43.385C55.2785 43.3299 55.7833 43.2625 56.2861 43.1829C56.7503 43.1091 57.201 43.0356 57.6377 42.9612C58.1358 42.8744 58.6327 42.7772 59.127 42.6702C59.6257 42.5649 60.1232 42.4532 60.6191 42.3352C61.0534 42.2306 61.4808 42.1116 61.9004 41.9788C62.3192 41.8441 62.7547 41.7028 63.2061 41.554C63.6556 41.4057 64.1916 41.2116 64.8135 40.9729L62.252 46.5559H47.0596C47.2773 45.9906 47.4718 45.4243 47.6436 44.8577C47.8127 44.2932 47.9442 43.6832 48.0381 43.0276C48.1313 42.3732 48.2011 41.6584 48.2471 40.884C48.293 40.1096 48.3171 39.2161 48.3184 38.2044V23.8694C48.3184 23.0353 48.3021 22.2982 48.2715 21.6585C48.2453 21.0671 48.1832 20.4775 48.085 19.8938C47.9953 19.3749 47.8793 18.8607 47.7373 18.3538C47.5869 17.8304 47.4075 17.3158 47.1992 16.8128H54.2373Z" fill="black"/>
<path fill-rule="evenodd" clip-rule="evenodd" d="M68.6318 16.7229C70.3713 16.7229 71.94 16.79 73.3379 16.9241C74.7359 17.0576 76.0184 17.2741 77.1846 17.5725C78.3468 17.8702 79.4182 18.2646 80.3984 18.7561C81.3743 19.247 82.3141 19.8351 83.2178 20.5198C85.0799 21.9494 86.5005 23.6244 87.4795 25.5442C88.4585 27.4647 88.9479 29.5859 88.9473 31.9075C88.9485 34.0211 88.5441 35.9784 87.7344 37.7795C86.9534 39.5476 85.8106 41.1307 84.3799 42.4251C82.9525 43.72 81.2517 44.7316 79.2783 45.4612C76.3182 46.5556 75.1569 46.5559 72.8252 46.5559H65.3711C65.5869 45.9015 65.7726 45.2535 65.9297 44.6126C66.0842 43.9723 66.2092 43.3101 66.3037 42.6262C66.3963 41.9417 66.4657 41.1823 66.5117 40.3489C66.5577 39.5153 66.5807 38.5618 66.5801 37.4895V24.8958C66.5801 23.4368 66.4794 22.1119 66.2783 20.9212C66.0626 19.676 65.7435 18.4506 65.3242 17.259V16.9026C66.0704 16.843 66.6599 16.798 67.0928 16.7678C67.5302 16.739 68.0436 16.7236 68.6318 16.7229ZM71.333 20.9212C71.3036 21.2783 71.2728 21.5983 71.2402 21.8811C71.2104 22.1631 71.1945 22.4471 71.1924 22.7307V40.3928C71.1924 40.7201 71.2115 41.0409 71.2402 41.3528C71.2722 41.6652 71.303 42.0004 71.333 42.3577C71.3649 42.7157 71.4114 43.1625 71.4727 43.6975C73.3052 43.5195 74.9703 43.102 76.459 42.4465C77.9515 41.792 79.2184 40.9366 80.2588 39.8792C81.2961 38.8249 82.112 37.5717 82.6582 36.1946C83.2177 34.7957 83.4971 33.2473 83.4971 31.5501C83.4971 29.3465 82.9846 27.3739 81.959 25.6331C80.9321 23.8911 79.4407 22.4547 77.4854 21.3235C77.0191 21.0559 76.5765 20.8326 76.1582 20.6536C75.7317 20.4731 75.2954 20.3166 74.8516 20.1848C74.3684 20.0431 73.8789 19.9236 73.3848 19.8274C72.7513 19.7066 72.1133 19.6093 71.4727 19.5364C71.4222 19.9974 71.3758 20.4594 71.333 20.9212Z" fill="black"/>
<path d="M109.772 16.8567C109.338 17.3635 108.95 17.8774 108.609 18.3977C108.221 18.9909 107.847 19.5944 107.49 20.2073L99.9893 32.7561V43.0725C99.9899 44.3815 100.269 45.5427 100.825 46.5559H94.5371C94.6904 46.169 94.8243 45.8038 94.9316 45.4612C95.0427 45.1186 95.1253 44.7614 95.1904 44.3899C95.2558 43.9759 95.2945 43.558 95.3057 43.1389C95.3223 42.6776 95.3297 42.134 95.3291 41.509V33.0676L88.3838 21.1897C88.0731 20.6641 87.7551 20.1427 87.4297 19.6262C87.1644 19.2095 86.903 18.8443 86.6377 18.5315C86.3829 18.226 86.1107 17.9351 85.8232 17.6604C85.5158 17.3702 85.1886 17.1018 84.8438 16.8577L91.9287 16.8128C91.9281 16.9616 91.9193 17.0958 91.9033 17.2151C91.8922 17.3039 91.8857 17.3932 91.8828 17.4827C91.8828 17.989 91.9899 18.5103 92.2051 19.0462C92.4235 19.5819 92.7967 20.2965 93.3242 21.1897L97.7041 28.5579L101.898 21.3674L102.317 20.7424C102.69 20.147 102.986 19.5517 103.204 18.9563C103.421 18.3604 103.53 17.8541 103.53 17.4378V17.1702C103.53 17.0807 103.512 16.9619 103.483 16.8128L109.772 16.8567Z" fill="black"/>
<path fill-rule="evenodd" clip-rule="evenodd" d="M108.623 41.4192C108.984 41.4192 109.274 41.4937 109.493 41.6419C109.712 41.7914 109.822 42.0127 109.822 42.3059C109.83 42.5244 109.76 42.7388 109.625 42.9104C109.494 43.0739 109.316 43.1874 109.093 43.2522L110.323 44.5911C110.391 44.6654 110.451 44.7066 110.505 44.7131V44.718H109.655L108.512 43.4026H108.168V44.5715C108.168 44.6272 108.174 44.6636 108.186 44.6809C108.197 44.6981 108.214 44.7093 108.237 44.7131V44.718H107.483V44.7131C107.494 44.7125 107.505 44.7088 107.514 44.7034C107.523 44.6979 107.531 44.69 107.536 44.6809C107.549 44.6636 107.555 44.6272 107.555 44.5715V41.5647C107.555 41.5102 107.548 41.473 107.536 41.4544C107.53 41.4456 107.523 41.4381 107.514 41.4329C107.505 41.4276 107.494 41.4247 107.483 41.4241V41.4192H108.623ZM108.168 43.0003H108.572C108.656 43.0041 108.74 42.9913 108.819 42.9622C108.898 42.9329 108.972 42.8882 109.033 42.8303C109.088 42.7764 109.132 42.7114 109.161 42.6399C109.191 42.5682 109.205 42.4909 109.204 42.4133C109.206 42.3413 109.193 42.2695 109.164 42.2034C109.135 42.1373 109.092 42.0781 109.038 42.0305C108.926 41.9298 108.772 41.8792 108.577 41.8792H108.168V43.0003Z" fill="black"/>
<path fill-rule="evenodd" clip-rule="evenodd" d="M108.766 39.5803C110.773 39.5805 112.404 41.1437 112.404 43.0676C112.404 44.9926 110.773 46.5558 108.766 46.5559C106.758 46.5559 105.127 44.9927 105.127 43.0676C105.127 41.1427 106.758 39.5803 108.766 39.5803ZM108.766 40.1858C107.106 40.1858 105.759 41.4776 105.759 43.0676C105.759 44.6577 107.106 45.9495 108.766 45.9495C110.426 45.9493 111.772 44.6586 111.772 43.0676C111.772 41.4777 110.426 40.186 108.766 40.1858Z" fill="black"/>
<path d="M42.2627 21.4124C40.7097 20.7579 39.3896 20.2888 38.3027 20.0051C37.2225 19.7232 36.1102 19.5816 34.9941 19.5823C34.8404 19.5823 34.6542 19.589 34.4355 19.6038C34.2184 19.6185 33.9688 19.6262 33.6885 19.6262V29.9866H43.4287L40.7734 34.2297L38.582 33.6272C38.0453 33.4755 37.5015 33.3489 36.9531 33.2473C36.4589 33.1585 35.961 33.0913 35.4609 33.0462L33.6885 32.8899V43.7415H36.6738C37.5961 43.7445 38.5164 43.6544 39.4209 43.4729C39.9676 43.3664 40.5123 43.2474 41.0537 43.1165C41.5499 43.0266 41.9929 42.9368 42.3818 42.8469C42.7681 42.7584 43.164 42.6547 43.5693 42.5354C43.9741 42.4167 44.4005 42.2902 44.8486 42.1555C45.3002 42.0227 45.8369 41.851 46.457 41.6419L44.1748 46.5549H27.9131C28.3154 45.1556 28.6058 43.8899 28.7744 42.759C28.9468 41.6284 29.0332 40.3479 29.0332 38.9182V24.3596L28.9824 23.3333L28.7998 20.6985C28.7408 20.1363 28.6544 19.5774 28.541 19.0237C28.4331 18.5026 28.2079 17.7656 27.8662 16.8128H44.5947L42.2627 21.4124Z" fill="black"/>
</svg>
