<svg width="99" height="40" viewBox="0 0 99 40" fill="none" xmlns="http://www.w3.org/2000/svg">
<g clip-path="url(#clip0_15940_29172)">
<path d="M16.3454 9.95192L16.5912 8.16731C16.6527 7.85962 16.5298 7.61346 16.3454 7.36731C16.1611 7.18269 15.9153 7.05962 15.608 7.05962H4.97717C4.48557 7.05962 4.11687 7.42885 4.05542 7.85962L1.10583 26.1365C1.04438 26.4442 1.16728 26.6904 1.35163 26.9365C1.53598 27.1212 1.78178 27.3058 2.08903 27.3058H4.54702C5.03862 27.3058 5.40732 26.9365 5.46877 26.5058L6.57487 19.4288H12.7199C13.2115 19.4288 13.5802 19.0596 13.6416 18.6288L13.8874 17.0904C13.9489 16.7827 13.826 16.5365 13.6416 16.2904C13.4573 16.0442 13.2115 15.9212 12.9042 15.9212H7.12792L7.86532 10.8135H15.3008C15.9153 10.7519 16.284 10.4442 16.3454 9.95192ZM72.695 16.0442H72.6335C71.9576 15.8596 71.2202 15.7365 70.3599 15.7365C69.008 15.7365 67.9019 16.2904 67.2259 17.3981C66.55 18.5058 66.1813 19.7365 66.1813 21.0288C66.1813 21.8904 66.3042 22.5673 66.6114 23.1212C66.9187 23.675 67.3488 23.9827 67.9019 23.9827C68.5164 23.9827 69.1923 23.6135 69.9912 22.8135C70.7286 22.075 71.466 21.1519 72.0805 20.1673L72.695 16.0442ZM77.1808 13.9519L75.2144 26.5058C75.153 26.9981 74.7228 27.3058 74.2927 27.3058H72.8179C72.5721 27.3058 72.3263 27.1827 72.1419 26.9981C71.9576 26.8135 71.8347 26.5673 71.8961 26.3212L71.9576 24.7827L71.7732 24.9673C71.7732 24.9673 71.2202 25.5827 70.5442 26.075C69.561 26.8135 68.5164 27.2442 68.3935 27.3058C67.779 27.5519 67.1645 27.6135 66.4885 27.6135C65.0137 27.6135 63.9076 27.0596 63.1088 26.0135C62.3099 24.9673 61.9412 23.4904 61.9412 21.7673C61.9412 20.8442 62.0027 19.9827 62.187 19.1212C62.3714 18.2596 62.6786 17.3981 63.1088 16.5981C63.5389 15.7365 64.092 14.9981 64.7679 14.3827C65.4439 13.7673 66.3042 13.2135 67.3488 12.8442C68.3935 12.475 69.6225 12.2288 70.9129 12.2288C72.5106 12.2288 74.3541 12.4135 76.4434 12.8442C76.935 12.9673 77.2423 13.4596 77.1808 13.9519ZM87.6887 12.4135C86.7055 12.6596 85.7223 13.275 85.1078 13.7058C84.3704 14.2596 83.3258 15.3673 83.3258 15.3673L83.1415 15.5519L83.2029 13.5827C83.2029 13.3365 83.1414 13.0904 82.9571 12.8442C82.7728 12.6596 82.5269 12.5365 82.2811 12.5365H80.8064C80.3148 12.5365 79.9461 12.8442 79.8846 13.3365L77.8568 26.1365C77.7953 26.4442 77.9182 26.6904 78.1026 26.9365C78.2869 27.1212 78.5327 27.2442 78.84 27.2442H81.1136C81.6052 27.2442 81.9739 26.875 82.0354 26.4442L83.08 19.6135C83.6945 18.7519 84.4933 18.0135 85.4151 17.3981C86.1525 16.9673 86.8284 16.6596 87.5658 16.5365C87.9345 16.475 88.3032 16.1673 88.3647 15.7365L88.7948 13.3981C88.8563 13.0904 88.7334 12.7827 88.4876 12.5365C88.3032 12.4135 87.996 12.3519 87.6887 12.4135ZM41.97 18.8135C41.97 17.9519 41.8471 17.275 41.5399 16.7212C41.2326 16.1673 40.8025 15.8596 40.2494 15.8596C39.6349 15.8596 38.959 16.2288 38.1601 17.0288C37.3613 17.7673 36.6853 18.6904 36.0708 19.675L35.3949 23.7981H35.4563C36.1323 23.9827 36.8697 24.1058 37.73 24.1058C39.1433 24.1058 40.188 23.5519 40.8639 22.4442C41.6013 21.3981 41.97 20.1673 41.97 18.8135ZM45.0425 13.8904C45.8414 14.9365 46.2101 16.4135 46.2101 18.075C46.2101 19.1827 46.0257 20.3519 45.7185 21.3981C45.4112 22.4442 44.9196 23.4904 44.2437 24.475C43.5677 25.4596 42.646 26.1981 41.4784 26.8135C40.2494 27.4288 38.8361 27.675 37.2384 27.675C36.6239 27.675 35.825 27.6135 34.8418 27.4904H34.7189L34.5346 29.2135V29.275L34.043 32.3519C33.9815 32.8442 33.5514 33.1519 33.1212 33.1519H30.8476C30.5403 33.1519 30.2945 33.0288 30.1102 32.8442C29.9258 32.6596 29.8644 32.3519 29.8644 32.0442L32.814 13.4596C32.8754 12.9673 33.3056 12.6596 33.7357 12.6596H35.2105C35.4563 12.6596 35.7021 12.7827 35.8865 12.9673C36.0708 13.1519 36.1937 13.3981 36.1323 13.6442L36.2552 15.1212L36.4395 14.875C36.4395 14.875 37.8529 13.1519 40.0036 12.475C40.6181 12.2904 41.1712 12.1673 41.7242 12.1673C43.1376 12.2904 44.2437 12.7827 45.0425 13.8904ZM97.7665 12.5365H95.9845L96.3532 10.0135C96.4146 9.70577 96.2917 9.45962 96.1074 9.21346C95.923 9.02885 95.6772 8.90577 95.37 8.90577H93.5879C93.1578 8.90577 92.7891 9.21346 92.6662 9.58269L91.8059 12.5365H90.8227C90.3311 12.5365 89.9624 12.8442 89.9009 13.3365L89.6551 14.6904C89.5937 14.9981 89.6551 15.2442 89.9009 15.4904C90.0853 15.675 90.3311 15.7981 90.6383 15.7981H91.2528L90.2082 22.6288C90.1467 23.0596 90.0853 23.4904 90.0853 23.9827C90.0853 25.2135 90.3925 26.075 91.0685 26.6904C91.7444 27.3058 92.7276 27.6135 94.0181 27.6135C94.8169 27.6135 95.923 27.3058 96.0459 27.2442C96.1688 27.1827 96.3532 27.1212 96.3532 27.1212C96.4146 27.1212 96.4146 27.0596 96.4761 27.0596C96.7833 26.9365 96.9062 26.6288 96.9677 26.3212L97.152 24.9058C97.152 24.5981 97.0906 24.2904 96.8448 24.1058C96.7833 24.0442 96.7219 23.9827 96.6604 23.9212C96.599 23.9212 96.5375 23.8596 96.5375 23.8596C96.4761 23.8596 96.4146 23.8596 96.0459 23.8596C95.9845 23.8596 95.8616 23.8596 95.8001 23.8596C95.6158 23.8596 95.5543 23.8596 95.4929 23.8596C95.37 23.8596 95.0013 23.7365 94.8784 23.6135C94.8169 23.5519 94.5711 23.3058 94.5711 22.5058C94.5711 22.4442 94.5711 22.3212 94.5711 22.1365L95.5543 15.8596H97.5822C98.0123 15.8596 98.4425 15.5519 98.5039 15.0596L98.7497 13.7058C98.8112 13.3981 98.7497 13.1519 98.5654 12.9058C98.3196 12.7212 98.0738 12.5365 97.7665 12.5365ZM61.5725 12.9673C61.3882 12.7212 61.0809 12.5981 60.7737 12.5981H58.3771C57.947 12.5981 57.5783 12.9058 57.4554 13.275C57.271 13.9519 56.9023 14.7519 56.2878 15.675C55.489 16.9058 54.8745 17.7058 54.3214 18.075L54.26 18.1365C54.0756 18.2596 53.7684 18.3827 52.7237 18.5673H52.6008L54.26 8.22885C54.3214 7.92115 54.1985 7.675 54.0142 7.42885C53.8298 7.24423 53.584 7.05962 53.2768 7.05962H51.0032C50.5116 7.05962 50.1429 7.42885 50.0814 7.85962L47.1933 26.1365C47.1318 26.4442 47.2547 26.6904 47.3776 26.9365C47.562 27.1212 47.8078 27.3058 48.115 27.3058H50.3887C50.8803 27.3058 51.2489 26.9365 51.3104 26.5058L52.0478 21.7058H53.4611L55.4275 26.6904C55.5504 27.0596 55.9191 27.3058 56.2878 27.3058H58.7458C59.2989 27.3058 59.729 26.875 59.729 26.3212C59.729 26.1981 59.729 26.075 59.6676 25.9519L57.3939 20.1673L57.4554 20.1058C58.3771 19.2442 59.3603 18.075 60.2821 16.5981C60.8966 15.6135 61.3267 14.6904 61.5725 13.8288C61.7569 13.5212 61.6954 13.2135 61.5725 12.9673ZM28.5739 11.3058C29.4957 11.3058 30.2331 11.0596 30.6632 10.5673C31.1548 10.075 31.3392 9.45962 31.3392 8.65962C31.3392 8.04423 31.1548 7.61346 30.8476 7.30577C30.4789 6.99808 29.9873 6.875 29.3113 6.875C28.3896 6.875 27.6522 7.12115 27.222 7.61346C26.7304 8.10577 26.4846 8.72115 26.4846 9.52115C26.4846 10.1365 26.669 10.5673 26.9762 10.875C27.3449 11.1827 27.8365 11.3058 28.5739 11.3058ZM29.3113 12.5365H27.0377C26.5461 12.5365 26.1774 12.8442 26.1159 13.3365L24.0881 26.1365C24.0266 26.4442 24.1495 26.6904 24.3339 26.9365C24.5182 27.1212 24.764 27.2442 25.0713 27.2442H27.3449C27.8365 27.2442 28.2052 26.875 28.2667 26.4442L30.2945 13.6442C30.356 13.3365 30.2331 13.0904 30.0487 12.8442C29.8644 12.7212 29.6186 12.5365 29.3113 12.5365ZM22.7976 7.42885C22.982 7.61346 23.0434 7.92115 23.0434 8.22885L20.8312 22.4442C20.8312 22.6904 20.8312 22.8135 20.8312 22.9365C20.8312 23.4288 20.9541 23.7365 21.077 23.9212C21.2614 24.1058 21.6301 24.1673 21.6915 24.1673C21.8759 24.1673 22.0602 24.2904 22.2446 24.475C22.4289 24.6596 22.5518 24.9673 22.4904 25.2135L22.3675 26.5058C22.3675 26.7519 22.2446 26.9981 22.0602 27.1212C21.8759 27.2442 21.6915 27.3058 21.4457 27.4288C21.1999 27.5519 20.524 27.7365 20.0324 27.7365C18.8648 27.7365 17.8817 27.4288 17.2672 26.9365C16.6527 26.3827 16.3454 25.5827 16.3454 24.5981C16.3454 24.2904 16.3454 24.0442 16.4069 23.675C16.4069 23.5519 18.8034 8.22885 18.8649 8.04423C18.9263 7.55192 19.3565 7.24423 19.7866 7.24423H22.0602C22.3675 7.05962 22.6133 7.18269 22.7976 7.42885Z" fill="#111824"/>
</g>
<defs>
<clipPath id="clip0_15940_29172">
<rect width="98.75" height="40" fill="white"/>
</clipPath>
</defs>
</svg>
