<svg width="160" height="64" viewBox="0 0 160 64" fill="none" xmlns="http://www.w3.org/2000/svg">
<path d="M25.6755 14.9769L26.0731 12.0903C26.1725 11.5926 25.9737 11.1944 25.6755 10.7963C25.3774 10.4977 24.9798 10.2986 24.4828 10.2986H7.28767C6.49252 10.2986 5.89616 10.8958 5.79676 11.5926L1.02586 41.1551C0.926461 41.6528 1.12525 42.0509 1.42343 42.4491C1.72161 42.7477 2.11919 43.0463 2.61616 43.0463H6.59191C7.38706 43.0463 7.98343 42.4491 8.08282 41.7523L9.87191 30.3056H19.8113C20.6064 30.3056 21.2028 29.7083 21.3022 29.0116L21.6998 26.5232C21.7992 26.0255 21.6004 25.6273 21.3022 25.2292C21.004 24.831 20.6064 24.632 20.1095 24.632H10.7665L11.9592 16.3704H23.9858C24.9798 16.2708 25.5761 15.7732 25.6755 14.9769ZM116.82 24.831H116.72C115.627 24.5324 114.434 24.3333 113.043 24.3333C110.856 24.3333 109.067 25.2292 107.974 27.0208C106.88 28.8125 106.284 30.8033 106.284 32.8935C106.284 34.2871 106.483 35.382 106.98 36.2778C107.477 37.1736 108.172 37.6713 109.067 37.6713C110.061 37.6713 111.154 37.0741 112.446 35.7801C113.639 34.5857 114.832 33.0926 115.826 31.5L116.82 24.831ZM124.075 21.4468L120.895 41.7523C120.795 42.5486 120.1 43.0463 119.404 43.0463H117.019C116.621 43.0463 116.223 42.8472 115.925 42.5486C115.627 42.25 115.428 41.8519 115.528 41.4537L115.627 38.9653L115.329 39.2639C115.329 39.2639 114.434 40.2593 113.341 41.0556C111.751 42.25 110.061 42.9468 109.862 43.0463C108.868 43.4445 107.874 43.544 106.781 43.544C104.395 43.544 102.606 42.6482 101.314 40.956C100.022 39.2639 99.4258 36.875 99.4258 34.088C99.4258 32.5949 99.5252 31.2014 99.8234 29.8079C100.122 28.4144 100.619 27.0208 101.314 25.7269C102.01 24.3333 102.905 23.1389 103.998 22.1435C105.091 21.1482 106.483 20.2523 108.172 19.6551C109.862 19.0579 111.85 18.6597 113.937 18.6597C116.522 18.6597 119.503 18.9583 122.883 19.6551C123.678 19.8542 124.175 20.6505 124.075 21.4468ZM141.072 18.9583C139.482 19.3565 137.891 20.3519 136.897 21.0486C135.705 21.9445 134.015 23.7361 134.015 23.7361L133.717 24.0347L133.816 20.8495C133.816 20.4514 133.717 20.0532 133.419 19.6551C133.12 19.3565 132.723 19.1574 132.325 19.1574H129.94C129.145 19.1574 128.548 19.6551 128.449 20.4514L125.169 41.1551C125.069 41.6528 125.268 42.0509 125.566 42.4491C125.865 42.7477 126.262 42.9468 126.759 42.9468H130.437C131.232 42.9468 131.828 42.3496 131.928 41.6528L133.617 30.6042C134.611 29.2107 135.903 28.0162 137.394 27.0208C138.587 26.3241 139.68 25.8264 140.873 25.6273C141.469 25.5278 142.066 25.0301 142.165 24.3333L142.861 20.5509C142.96 20.0532 142.762 19.5556 142.364 19.1574C142.066 18.9583 141.569 18.8588 141.072 18.9583ZM67.1228 29.3102C67.1228 27.9167 66.924 26.8218 66.427 25.9259C65.9301 25.0301 65.2343 24.5324 64.3398 24.5324C63.3458 24.5324 62.2525 25.1296 60.9604 26.4236C59.6682 27.6181 58.5749 29.1111 57.581 30.7037L56.4876 37.3727H56.587C57.6804 37.6713 58.8731 37.8704 60.2646 37.8704C62.5507 37.8704 64.2404 36.9746 65.3337 35.1829C66.5264 33.4908 67.1228 31.5 67.1228 29.3102ZM72.0925 21.3472C73.3846 23.0394 73.981 25.4283 73.981 28.1158C73.981 29.9074 73.6828 31.7986 73.1858 33.4908C72.6888 35.1829 71.8937 36.875 70.8004 38.4676C69.707 40.0602 68.2161 41.2547 66.3276 42.25C64.3398 43.2454 62.0537 43.6435 59.4695 43.6435C58.4755 43.6435 57.1834 43.544 55.5931 43.3449H55.3943L55.0961 46.132V46.2315L54.301 51.2084C54.2016 52.0047 53.5058 52.5023 52.8101 52.5023H49.1325C48.6355 52.5023 48.2379 52.3033 47.9398 52.0047C47.6416 51.7061 47.5422 51.2084 47.5422 50.7107L52.3131 20.6505C52.4125 19.8542 53.1082 19.3565 53.804 19.3565H56.1895C56.587 19.3565 56.9846 19.5556 57.2828 19.8542C57.581 20.1528 57.7798 20.5509 57.6804 20.9491L57.8792 23.338L58.1773 22.9398C58.1773 22.9398 60.4634 20.1528 63.9422 19.0579C64.9361 18.7593 65.8307 18.5602 66.7252 18.5602C69.0113 18.7593 70.8004 19.5556 72.0925 21.3472ZM157.372 19.1574H154.49L155.086 15.0764C155.186 14.5787 154.987 14.1806 154.689 13.7824C154.391 13.4838 153.993 13.2847 153.496 13.2847H150.614C149.918 13.2847 149.322 13.7824 149.123 14.3796L147.731 19.1574H146.141C145.346 19.1574 144.749 19.6551 144.65 20.4514L144.252 22.6412C144.153 23.1389 144.252 23.537 144.65 23.9352C144.948 24.2338 145.346 24.4329 145.843 24.4329H146.837L145.147 35.4815C145.048 36.1783 144.948 36.875 144.948 37.6713C144.948 39.6621 145.445 41.0556 146.538 42.051C147.632 43.0463 149.222 43.544 151.309 43.544C152.602 43.544 154.391 43.0463 154.589 42.9468C154.788 42.8472 155.086 42.7477 155.086 42.7477C155.186 42.7477 155.186 42.6482 155.285 42.6482C155.782 42.4491 155.981 41.9514 156.08 41.4537L156.378 39.1644C156.378 38.6667 156.279 38.169 155.882 37.8704C155.782 37.7709 155.683 37.6713 155.583 37.5718C155.484 37.5718 155.385 37.4722 155.385 37.4722C155.285 37.4722 155.186 37.4722 154.589 37.4722C154.49 37.4722 154.291 37.4722 154.192 37.4722C153.894 37.4722 153.794 37.4722 153.695 37.4722C153.496 37.4722 152.9 37.2732 152.701 37.0741C152.602 36.9746 152.204 36.5764 152.204 35.2824C152.204 35.1829 152.204 34.9838 152.204 34.6852L153.794 24.5324H157.074C157.77 24.5324 158.466 24.0347 158.565 23.2384L158.963 21.0486C159.062 20.5509 158.963 20.1528 158.665 19.7546C158.267 19.456 157.869 19.1574 157.372 19.1574ZM98.8294 19.8542C98.5312 19.456 98.0343 19.257 97.5373 19.257H93.6609C92.9652 19.257 92.3688 19.7546 92.17 20.3519C91.8719 21.4468 91.2755 22.7408 90.2816 24.2338C88.9894 26.2246 87.9955 27.5185 87.101 28.1158L87.0016 28.2153C86.7034 28.4144 86.2064 28.6134 84.5167 28.9121H84.3179L87.0016 12.1898C87.101 11.6921 86.9022 11.294 86.604 10.8958C86.3058 10.5972 85.9082 10.2986 85.4113 10.2986H81.7337C80.9385 10.2986 80.3422 10.8958 80.2428 11.5926L75.5713 41.1551C75.4719 41.6528 75.6707 42.0509 75.8694 42.4491C76.1676 42.7477 76.5652 43.0463 77.0622 43.0463H80.7397C81.5349 43.0463 82.1313 42.4491 82.2307 41.7523L83.4234 33.9884H85.7094L88.89 42.051C89.0888 42.6482 89.6852 43.0463 90.2816 43.0463H94.2573C95.1519 43.0463 95.8476 42.3496 95.8476 41.4537C95.8476 41.2547 95.8476 41.0556 95.7482 40.8565L92.0706 31.5L92.17 31.4005C93.6609 30.007 95.2512 28.1158 96.7422 25.7269C97.7361 24.1343 98.4318 22.6412 98.8294 21.2477C99.1276 20.75 99.0282 20.2523 98.8294 19.8542ZM45.4549 17.1667C46.9458 17.1667 48.1386 16.7685 48.8343 15.9722C49.6295 15.1759 49.9276 14.1806 49.9276 12.8866C49.9276 11.8912 49.6295 11.1944 49.1325 10.6968C48.5361 10.1991 47.741 10 46.6476 10C45.1567 10 43.964 10.3981 43.2682 11.1944C42.4731 11.9907 42.0755 12.9861 42.0755 14.2801C42.0755 15.2755 42.3737 15.9722 42.8707 16.4699C43.467 16.9676 44.2622 17.1667 45.4549 17.1667ZM46.6476 19.1574H42.9701C42.1749 19.1574 41.5786 19.6551 41.4792 20.4514L38.1992 41.1551C38.0998 41.6528 38.2986 42.0509 38.5967 42.4491C38.8949 42.7477 39.2925 42.9468 39.7895 42.9468H43.467C44.2622 42.9468 44.8586 42.3496 44.9579 41.6528L48.2379 20.9491C48.3373 20.4514 48.1386 20.0532 47.8404 19.6551C47.5422 19.456 47.1446 19.1574 46.6476 19.1574ZM36.1119 10.8958C36.4101 11.1944 36.5095 11.6921 36.5095 12.1898L32.9313 35.1829C32.9313 35.581 32.9313 35.7801 32.9313 35.9792C32.9313 36.7755 33.1301 37.2732 33.3289 37.5718C33.627 37.8704 34.2234 37.9699 34.3228 37.9699C34.621 37.9699 34.9192 38.169 35.2174 38.4676C35.5155 38.7662 35.7143 39.2639 35.6149 39.6621L35.4161 41.7523C35.4161 42.1505 35.2174 42.5486 34.9192 42.7477C34.621 42.9468 34.3228 43.0463 33.9252 43.2454C33.5277 43.4445 32.4343 43.7431 31.6392 43.7431C29.7507 43.7431 28.1604 43.2454 27.1664 42.4491C26.1725 41.5533 25.6755 40.2593 25.6755 38.6667C25.6755 38.169 25.6755 37.7709 25.7749 37.1736C25.7749 36.9746 29.6513 12.1898 29.7507 11.8912C29.8501 11.0949 30.5458 10.5972 31.2416 10.5972H34.9192C35.4161 10.2986 35.8137 10.4977 36.1119 10.8958Z" fill="#107BD4"/>
</svg>
