<svg width="180" height="64" viewBox="0 0 180 64" fill="none" xmlns="http://www.w3.org/2000/svg">
<path d="M20.7182 12C23.1382 12 25.2781 13.1836 26.5765 14.9963C27.2721 14.7743 28.0142 14.6544 28.7846 14.6544C32.561 14.6544 35.6554 17.5363 35.9344 21.1938C38.8077 22.1166 40.8845 24.782 40.8845 27.9263C40.8845 29.5462 40.3332 31.0388 39.4059 32.2317C40.0599 33.2992 40.4363 34.5509 40.4363 35.8895C40.4363 38.8638 38.5779 41.4093 35.945 42.457C35.7481 46.1924 32.6176 49.1614 28.7846 49.1614C28.0142 49.1614 27.2721 49.0414 26.5765 48.8193C25.2781 50.6321 23.1382 51.8158 20.7182 51.8158C18.2981 51.8158 16.1581 50.6321 14.8597 48.8193C14.1641 49.0414 13.4221 49.1614 12.6517 49.1614C8.81873 49.1614 5.68816 46.1924 5.49122 42.457C2.85833 41.4093 1 38.8637 1 35.8895C1 34.4131 1.45789 33.0423 2.24109 31.9079C1.45789 30.7735 1 29.4027 1 27.9263C1 24.952 2.85831 22.4064 5.49122 21.3587C5.68821 17.6233 8.81876 14.6544 12.6517 14.6544C13.4221 14.6544 14.1642 14.7743 14.8597 14.9963C16.1581 13.1836 18.2981 12 20.7182 12ZM16.7629 46.6932C17.8213 47.675 19.2459 48.2766 20.8128 48.2766C22.3382 48.2766 23.7285 47.7064 24.7775 46.7705L22.1354 39.1107C21.7471 39.1743 21.3485 39.2075 20.9422 39.2075C20.4135 39.2075 19.8978 39.1512 19.4009 39.0448L16.7629 46.6932ZM8.38421 41.5233C8.97394 44.1346 11.3349 46.0867 14.1578 46.0868C14.4016 46.0868 14.6419 46.072 14.8779 46.0437L17.5266 38.3637C16.7473 37.952 16.0515 37.4039 15.4712 36.7512L8.38421 41.5233ZM26.329 36.8439C25.687 37.5417 24.9108 38.1144 24.0412 38.5212L26.6307 46.0285C26.9041 46.0668 27.1835 46.0868 27.4676 46.0868C30.2984 46.0868 32.6646 44.1237 33.246 41.5014L26.329 36.8439ZM4.99375 32.9033C4.70485 33.5915 4.54529 34.346 4.54529 35.1373C4.5453 37.1439 5.5706 38.9139 7.13208 39.9651L14.3628 35.0962C14.0321 34.4174 13.8037 33.6798 13.6976 32.9033H4.99375ZM28.1869 32.9033C28.075 33.7227 27.8268 34.4987 27.466 35.2081L34.5121 39.9526C36.0631 38.8999 37.0801 37.1359 37.0802 35.1373C37.0802 34.346 36.9207 33.5915 36.6318 32.9033H28.1869ZM27.3881 28.4587C27.7912 29.2079 28.0671 30.0354 28.1869 30.9125H36.9537C37.2728 30.1949 37.4499 29.4018 37.45 28.5679C37.45 26.4604 36.3191 24.6136 34.6237 23.5867L27.3881 28.4587ZM7.19971 23.6949C5.6002 24.7402 4.54529 26.5325 4.54529 28.5679C4.5453 29.4018 4.72239 30.1949 5.04146 30.9125H13.6976C13.8115 30.0782 14.0666 29.2888 14.4382 28.569L7.19971 23.6949ZM14.1578 17.6184C11.3633 17.6185 9.02127 19.5315 8.40238 22.1033L15.5849 26.9397C16.1581 26.324 16.8365 25.8074 17.5915 25.4182L14.9177 17.6665C14.6689 17.635 14.4153 17.6184 14.1578 17.6184ZM27.4676 17.6184C27.1696 17.6184 26.8768 17.6404 26.5906 17.6824L23.9753 25.264C24.8196 25.6488 25.5778 26.1892 26.213 26.8485L33.2281 22.125C32.6172 19.5423 30.27 17.6184 27.4676 17.6184ZM20.8128 15.4286C19.2602 15.4286 17.8472 16.0191 16.7918 16.9851L19.4721 24.7559C19.947 24.6591 20.4387 24.6083 20.9422 24.6083C21.3233 24.6083 21.6976 24.6375 22.0629 24.6936L24.7483 16.9087C23.7027 15.9882 22.324 15.4286 20.8128 15.4286Z" fill="#338059"/>
<path d="M61.954 24.782C62.2116 24.782 62.4885 24.782 62.6249 24.782C62.6249 24.782 62.6249 23.2811 62.6249 22.4234H67.5855C67.5855 26.0461 67.6705 35.2056 67.6708 39.1334L67.6697 43.5256C67.6697 44.6265 67.7218 45.7667 67.5307 46.8554C67.3866 47.6373 67.0055 48.3563 66.4388 48.9151C65.7669 49.5821 65.1121 49.9107 64.1715 50.0877C63.1317 50.2834 60.7902 50.1557 59.6385 50.1548L49.9165 50.1568C49.9165 49.2167 49.9165 46.6176 49.9165 45.7464C52.9912 45.7464 59.3099 45.7464 61.6348 45.7464C62.1243 45.7464 62.5185 45.3514 62.5185 44.8628C62.5185 43.3011 62.5185 40.1499 62.5185 39.4321C62.3894 39.4292 61.9834 39.4005 61.8876 39.4673C61.738 39.5722 61.5436 39.9035 61.4211 40.0558C60.7974 40.8311 60.0944 41.3603 59.1643 41.728C57.0095 42.5802 54.2749 42.4538 52.1593 41.5334C50.1095 40.6415 48.4134 38.8536 47.596 36.7763C46.5644 34.1544 46.6471 31.1506 47.2321 28.432C47.978 24.9675 51.081 22.51 54.4762 21.9903C57.4475 21.5581 60.0293 22.4268 61.954 24.782ZM59.3654 37.5257C61.0783 36.9331 62.2103 35.469 62.5734 33.7515C62.8819 32.289 62.7456 30.3912 62.1064 29.0434C61.6028 27.9821 60.3969 26.9404 59.2845 26.5498C57.9293 26.0739 56.3391 26.1929 54.9981 26.6567C53.2324 27.2665 51.9208 29.3799 51.8331 31.1608C51.7454 32.9489 51.9359 34.8444 53.2039 36.217C54.7638 37.9055 57.2578 38.2552 59.3654 37.5257Z" fill="#338059"/>
<path d="M126.173 14.3226C127.815 14.3226 129.517 14.3226 131.203 14.3226C131.203 17.4194 131.19 36.9955 131.19 42.1936L126.248 42.1825C126.248 41.5189 126.248 39.7772 126.248 39.7772H125.528C124.919 40.8759 123.701 41.8004 122.841 42.1721C120.118 43.3494 116.177 42.656 113.862 40.8759C112.711 39.9905 111.75 38.5497 111.196 37.2121C110.287 35.0124 110.184 32.2047 110.545 29.7796C110.77 27.5258 112.2 25.1635 113.933 23.7625C115.887 22.1828 118.301 21.703 120.748 21.9656C122.394 22.1423 123.883 22.7636 125.001 24C125.166 24.1833 125.335 24.5244 125.492 24.7189C125.639 24.7189 126.005 24.722 126.197 24.7189C126.197 24.6083 126.192 24.4919 126.197 24.3681C126.197 21.0195 126.173 17.671 126.173 14.3226ZM121.692 38.3187C122.776 38.3124 124.067 37.5913 124.806 36.8429C126.017 35.6172 126.307 33.4227 126.307 32.2047C126.307 30.7466 125.967 28.9851 124.74 27.7822C123.58 26.646 122.674 26.2684 120.639 26.2684C118.604 26.2684 117.268 27.3819 116.464 28.3782C115.447 29.6395 115.313 31.8788 115.487 33.4227C115.651 34.8775 116.169 36.2774 117.35 37.2106C118.672 38.2554 120.071 38.3858 121.692 38.3187Z" fill="#338059"/>
<path d="M81.562 21.8671C85.2324 22.0048 88.8104 23.3687 89.6707 27.3575C89.9438 28.6224 89.8651 29.9558 89.8657 31.2424L89.8646 35.7313C89.864 36.3642 89.7277 37.3318 90.2108 37.8264C90.5398 38.1633 92.1291 37.9957 92.6238 37.9909C92.6238 38.6274 92.6238 41.4748 92.6238 42.1937C91.2699 42.192 89.0032 42.3816 87.774 41.9716C87.1546 41.7651 86.1825 41.1667 85.998 40.5019C85.9171 40.2091 85.9265 39.8272 85.788 39.5638C85.7341 39.4602 85.2368 39.5472 85.1266 39.5601C84.8253 39.9248 84.6951 40.4043 84.4198 40.7858C83.6725 41.8207 82.2284 42.434 81.0091 42.6377C77.9967 43.1527 73.8777 42.2468 72.4738 39.2109C71.7908 37.7362 71.7482 35.703 72.2933 34.1934C73.0765 32.0235 75.0425 31.0121 77.1353 30.4551C79.5598 29.8097 82.4222 30.2469 84.899 30.2489C85.09 29.0876 84.8387 27.5683 84.2165 26.9432C83.4548 26.1774 82.3774 25.9328 81.326 25.9333C78.5822 25.9344 77.9441 27.1521 77.2971 28.9968C77.1691 28.8867 73.2909 27.6498 72.8001 27.45C73.0693 26.5438 73.3936 25.8332 73.7806 25.275C74.6354 24.0456 76.1083 22.9919 77.5209 22.491C78.7838 22.0426 80.231 21.8173 81.562 21.8671ZM82.4438 38.2951C83.4454 37.8912 84.2503 37.1143 84.6885 36.1286C84.9375 35.5573 85.1266 34.6729 84.8979 34.0053L81.121 34.0033C79.8677 34.0034 78.2019 33.9289 77.312 35.0335C76.9858 35.4387 76.9193 36.1509 76.9808 36.6567C77.1096 37.7093 78.0157 38.3348 78.9866 38.5589C80.1632 38.8304 81.3132 38.6424 82.4438 38.2951Z" fill="#338059"/>
<path d="M150.935 23.2723C153.104 24.6148 154.477 26.7658 155.054 29.2211C155.386 30.6327 155.386 33.0692 155.386 33.7881C153.966 33.7878 141.047 33.7881 141.047 33.7881C141.047 36.5024 143.136 38.043 145.125 38.304C146.148 38.4382 147.189 38.3968 148.171 38.0601C149.517 37.5969 150.788 35.5275 150.788 35.3365C151.863 35.895 153.516 36.9402 154.655 37.5962C154.546 38.3029 152.72 40.2895 152.063 40.8082C149.842 42.5626 147.058 42.9895 144.302 42.668C141.782 42.3741 139.514 41.2243 137.932 39.2218C135.999 36.7746 135.589 33.4941 135.945 30.4766C136.434 26.3282 138.712 23.1052 142.866 22.1752C145.638 21.5546 148.397 21.7017 150.935 23.2723ZM150.192 30.0035C150.289 28.424 148.191 26.7592 147.243 26.4885C146.079 26.1014 144.797 26.0969 143.753 26.4885C142.48 26.9664 141.941 27.573 141.371 28.7558C141.258 28.9896 141.047 29.599 141.047 30.0035C143.783 30.0035 147.243 30.0035 150.192 30.0035Z" fill="#338059"/>
<path d="M169.579 22.2032C171.168 22.0852 172.797 22.0919 174.308 22.6653C176.435 23.4711 178.047 25.5298 178.635 27.6689C178.9 28.6297 178.953 29.6091 179 30.6C179 33.0139 179 41.7512 179 42.1747L173.852 42.1936C173.852 38.765 173.852 32.9586 173.852 30.8572C173.852 28.4776 173.126 27.6407 172.226 26.9862C171.436 26.412 168.293 26.3421 167.074 26.9862C166.132 27.4839 164.857 29.2535 164.858 30.8572C164.859 31.5208 164.857 38.3836 164.857 42.1936H159.759C159.759 36.8849 159.792 25.2719 159.792 22.4234H164.696V25.0378C164.95 25.0525 165.19 25.042 165.444 25.0406C165.444 25.0406 166.686 22.5622 169.579 22.2032Z" fill="#338059"/>
<path d="M101.169 24.7022H101.909C101.909 24.7022 102.407 23.5442 103.149 23.0599C104.589 22.1198 108.123 22.424 108.123 22.424C108.123 22.6728 108.126 26.3226 108.126 26.8203C105.032 26.8203 104.146 26.9591 103.869 27.0415C101.909 27.6248 101.285 29.1429 101.285 31.9067C101.311 35.3449 101.285 38.7839 101.285 42.2222H96.2369C96.2369 37.6877 96.2369 27.055 96.2369 22.424C96.8152 22.4239 101.143 22.424 101.17 22.4514C101.17 22.9493 101.169 24.7022 101.169 24.7022Z" fill="#338059"/>
</svg>
