<svg width="225" height="64" viewBox="0 0 225 64" fill="none" xmlns="http://www.w3.org/2000/svg">
<path opacity="0.6" d="M29.2508 53.1408H10.2458C9.43447 53.1408 8.95462 52.4835 9.17273 51.6867L15.4602 28.206C15.5829 27.802 15.8271 27.4456 16.1596 27.1854C16.4922 26.9252 16.8969 26.7738 17.3185 26.752H36.3235C37.1349 26.752 37.6147 27.4092 37.3966 28.206L31.1179 51.6751C30.9967 52.0826 30.752 52.4425 30.4176 52.7051C30.0832 52.9676 29.6755 53.1199 29.2508 53.1408Z" fill="#91FF27"/>
<path opacity="0.6" d="M24.6922 47.2807H5.68725C4.87587 47.2807 4.39602 46.6235 4.61414 45.8266L10.9016 22.3373C11.0243 21.9332 11.2685 21.5768 11.601 21.3166C11.9336 21.0564 12.3383 20.905 12.76 20.8832H31.7649C32.5763 20.8832 33.0561 21.5404 32.838 22.3373L26.5505 45.8034C26.4319 46.2118 26.1894 46.5732 25.8566 46.8379C25.5237 47.1025 25.1168 47.2573 24.6922 47.2807Z" fill="#79EA0C"/>
<path opacity="0.6" d="M20.1307 41.4005H1.12573C0.314348 41.4005 -0.165502 40.7432 0.052612 39.9464L6.3401 16.4541C6.46291 16.0496 6.70758 15.6929 7.0407 15.4326C7.37382 15.1724 7.77914 15.0213 8.20133 15H27.2034C28.0148 15 28.5004 15.6572 28.2794 16.4541L21.989 39.9347C21.8684 40.341 21.625 40.6999 21.2923 40.9623C20.9596 41.2247 20.5538 41.3778 20.1307 41.4005Z" fill="#00C420"/>
<path d="M66.2741 43.8448C65.3532 44.946 64.0523 45.801 62.3713 46.4098C60.5727 47.0381 58.6781 47.3471 56.7731 47.3229C54.8022 47.3661 52.8555 46.8822 51.1341 45.9212C49.5034 44.9722 48.1969 43.5532 47.3855 41.8498C46.5053 40.0661 46.0535 37.9702 46.0303 35.5623V33.8755C46.0303 31.3997 46.4481 29.2554 47.2837 27.4426C48.0383 25.7223 49.2979 24.2719 50.8957 23.2839C52.5657 22.2931 54.4798 21.7894 56.4212 21.8298C59.3643 21.8298 61.6647 22.5317 63.3223 23.9354C64.98 25.339 65.9629 27.3806 66.2712 30.06H61.2982C61.0714 28.6408 60.5683 27.6016 59.7889 26.9424C59.0095 26.2832 57.9432 25.9536 56.5899 25.9536C54.845 25.9536 53.5217 26.607 52.6202 27.9137C51.7187 29.2205 51.2582 31.1593 51.2388 33.7301V35.3151C51.2388 37.9169 51.7332 39.8819 52.722 41.21C53.7108 42.538 55.1581 43.2069 57.0639 43.2166C58.9833 43.2166 60.3521 42.8075 61.1703 41.9893V37.7114H56.5172V33.9453H66.2799L66.2741 43.8448ZM75.2895 46.9798H70.3456V20.8062H75.2895V46.9798ZM90.0281 46.9798C89.777 46.4588 89.6101 45.9012 89.5338 45.3279C88.9522 45.9817 88.2338 46.4994 87.4296 46.8442C86.6254 47.189 85.7552 47.3524 84.8807 47.3229C83.0737 47.3229 81.577 46.8004 80.3904 45.7554C79.8184 45.2706 79.3619 44.6642 79.054 43.9804C78.7461 43.2967 78.5946 42.5529 78.6106 41.8032C78.6106 39.8489 79.3348 38.3493 80.783 37.3043C82.2313 36.2593 84.3242 35.7309 87.0618 35.7193H89.3447V34.6607C89.3796 33.9249 89.146 33.2015 88.6875 32.625C88.2493 32.1132 87.5591 31.8572 86.6169 31.8572C85.916 31.8161 85.2237 32.0277 84.6655 32.4534C84.4311 32.6548 84.2457 32.9069 84.1233 33.1906C84.0009 33.4742 83.9446 33.7821 83.9588 34.0907H79.0207C79.0207 33.021 79.3676 31.9801 80.0095 31.1244C80.7281 30.1698 81.6947 29.4305 82.8042 28.9869C84.0893 28.4535 85.47 28.1892 86.8611 28.2104C89.1334 28.2104 90.9365 28.7814 92.2704 29.9233C93.6042 31.0652 94.2712 32.6696 94.2712 34.7363V42.7222C94.2828 44.4671 94.5271 45.7903 95.004 46.6919V46.9827L90.0281 46.9798ZM85.9567 43.5539C86.6563 43.5602 87.3467 43.3934 87.9663 43.0683C88.5469 42.7833 89.0275 42.3291 89.3447 41.7654V38.5984H87.5038C85.0377 38.5984 83.7252 39.4505 83.5662 41.1547L83.5487 41.4455C83.5411 41.7299 83.5951 42.0126 83.7071 42.2741C83.819 42.5356 83.9862 42.7699 84.1972 42.9607C84.6862 43.3766 85.3156 43.5899 85.9567 43.5569V43.5539ZM108.041 41.8876C108.04 41.5905 107.955 41.2997 107.797 41.0483C107.639 40.7969 107.413 40.595 107.146 40.4655C106.549 40.1184 105.592 39.8092 104.275 39.5377C99.8898 38.6168 97.697 36.7536 97.697 33.9482C97.697 32.3119 98.3756 30.946 99.7327 29.8506C101.09 28.7552 102.862 28.2055 105.049 28.2017C107.389 28.2017 109.261 28.7523 110.665 29.8535C111.333 30.3492 111.873 30.9978 112.24 31.7452C112.606 32.4925 112.788 33.3168 112.77 34.1489H107.852C107.863 33.8271 107.808 33.5066 107.691 33.2067C107.574 32.9068 107.397 32.6337 107.172 32.404C106.726 31.9425 106.018 31.7118 105.049 31.7118C104.361 31.668 103.68 31.8666 103.124 32.2731C102.905 32.4416 102.728 32.659 102.608 32.908C102.488 33.1569 102.427 33.4305 102.432 33.7068C102.432 33.976 102.505 34.2401 102.641 34.4721C102.778 34.7041 102.973 34.8957 103.208 35.0272C103.726 35.3626 104.598 35.6534 105.825 35.8996C106.878 36.0969 107.914 36.373 108.926 36.7255C111.527 37.6794 112.828 39.3322 112.828 41.684C112.828 43.3649 112.107 44.7221 110.665 45.7554C109.222 46.7888 107.359 47.3084 105.075 47.3142C103.661 47.3455 102.257 47.0686 100.96 46.5028C99.8349 46.012 98.8612 45.23 98.1391 44.2374C97.4763 43.3361 97.1178 42.2472 97.1154 41.1285H101.783C101.783 41.5149 101.871 41.8963 102.039 42.2442C102.207 42.5921 102.452 42.8977 102.754 43.1381C103.46 43.6354 104.312 43.8812 105.174 43.836C106.116 43.836 106.829 43.6567 107.311 43.298C107.541 43.142 107.727 42.9314 107.855 42.6852C107.982 42.4389 108.046 42.1648 108.041 41.8876ZM125.988 41.8876C125.987 41.5905 125.902 41.2997 125.744 41.0483C125.585 40.7969 125.359 40.595 125.092 40.4655C124.493 40.1184 123.531 39.8043 122.207 39.5232C117.822 38.6023 115.629 36.7391 115.629 33.9337C115.629 32.2973 116.307 30.9315 117.665 29.8361C119.022 28.7406 120.797 28.1929 122.989 28.1929C125.33 28.1929 127.201 28.7435 128.605 29.8448C129.274 30.3404 129.814 30.9891 130.18 31.7365C130.547 32.4838 130.728 33.3081 130.711 34.1402H125.796C125.806 33.8184 125.751 33.4979 125.634 33.198C125.517 32.8981 125.341 32.625 125.115 32.3953C124.662 31.9358 123.952 31.706 122.987 31.706C122.299 31.6622 121.618 31.8608 121.061 32.2673C120.843 32.4373 120.668 32.6561 120.549 32.906C120.43 33.156 120.372 33.4302 120.378 33.7068C120.379 33.976 120.451 34.2401 120.587 34.4721C120.724 34.7041 120.92 34.8957 121.154 35.0272C121.672 35.3626 122.545 35.6534 123.772 35.8996C124.82 36.0965 125.853 36.3716 126.86 36.7226C129.462 37.6765 130.763 39.3293 130.763 41.6811C130.763 43.362 130.042 44.7192 128.599 45.7525C127.157 46.7859 125.294 47.3055 123.01 47.3113C121.599 47.3421 120.198 47.0663 118.903 46.5028C117.778 46.012 116.805 45.23 116.083 44.2374C115.42 43.3361 115.061 42.2472 115.059 41.1285H119.726C119.727 41.5149 119.815 41.8963 119.983 42.2442C120.151 42.5921 120.395 42.8977 120.698 43.1381C121.403 43.6354 122.255 43.8812 123.117 43.836C124.06 43.836 124.772 43.6567 125.255 43.298C125.485 43.1424 125.672 42.9319 125.8 42.6856C125.928 42.4393 125.993 42.165 125.988 41.8876ZM134.264 46.9798V22.1701H141.898C143.946 22.136 145.966 22.6448 147.753 23.6445C149.471 24.6245 150.871 26.0796 151.783 27.8352C152.774 29.7415 153.273 31.8644 153.237 34.0122V35.1609C153.277 37.2971 152.789 39.41 151.815 41.3117C150.909 43.0613 149.513 44.51 147.799 45.4821C146.016 46.4857 144 47.0032 141.954 46.9827L134.264 46.9798ZM139.365 26.3113V42.888H141.837C143.836 42.888 145.364 42.2346 146.421 40.9279C147.477 39.6211 148.017 37.7521 148.041 35.3209V33.9977C148.041 31.4772 147.518 29.5656 146.473 28.2627C145.428 26.9599 143.9 26.3094 141.89 26.3113H139.365ZM155.855 37.5922C155.824 35.902 156.185 34.2276 156.911 32.7006C157.572 31.3152 158.631 30.158 159.952 29.3766C161.355 28.5767 162.948 28.1745 164.562 28.2133C167.049 28.2133 169.08 28.9743 170.655 30.4962C172.229 32.0182 173.106 34.0859 173.286 36.6994L173.321 37.9615C173.321 40.7902 172.532 43.0596 170.954 44.7696C169.376 46.4796 167.257 47.3346 164.597 47.3346C161.939 47.3346 159.818 46.4825 158.234 44.7783C156.65 43.0741 155.857 40.7524 155.855 37.8132V37.5922ZM160.778 37.9412C160.778 39.6861 161.108 41.0258 161.767 41.9603C162.098 42.3916 162.522 42.7413 163.009 42.9826C163.496 43.2239 164.032 43.3502 164.575 43.3519C165.118 43.3536 165.655 43.2305 166.143 42.9923C166.631 42.7541 167.059 42.407 167.392 41.9777C168.062 41.0626 168.398 39.5978 168.398 37.5834C168.398 35.8657 168.062 34.5347 167.392 33.5905C167.078 33.1342 166.654 32.7649 166.16 32.5172C165.665 32.2694 165.115 32.1514 164.562 32.1742C164.013 32.15 163.468 32.2667 162.977 32.5131C162.486 32.7595 162.067 33.1274 161.758 33.5818C161.105 34.5202 160.778 35.9733 160.778 37.9412ZM181.552 46.9798H176.608V20.8062H181.552V46.9798ZM190.805 46.9798H185.861V20.8062H190.805V46.9798ZM205.544 46.9798C205.293 46.4588 205.126 45.9012 205.05 45.3279C204.468 45.9817 203.75 46.4994 202.945 46.8442C202.141 47.189 201.271 47.3524 200.397 47.3229C198.59 47.3229 197.093 46.8004 195.906 45.7554C195.334 45.2704 194.878 44.664 194.57 43.9803C194.262 43.2966 194.111 42.5529 194.126 41.8032C194.126 39.8489 194.851 38.3493 196.299 37.3043C197.747 36.2593 199.84 35.7309 202.578 35.7193H204.843V34.6607C204.878 33.9249 204.644 33.2015 204.186 32.625C203.748 32.1132 203.058 31.8572 202.115 31.8572C201.414 31.8161 200.722 32.0277 200.164 32.4534C199.93 32.6548 199.744 32.9069 199.622 33.1906C199.499 33.4742 199.443 33.7821 199.457 34.0907H194.537C194.537 33.021 194.883 31.9801 195.525 31.1244C196.244 30.1698 197.211 29.4305 198.32 28.9869C199.605 28.4535 200.986 28.1892 202.377 28.2104C204.649 28.2104 206.452 28.7814 207.786 29.9233C209.12 31.0652 209.787 32.6696 209.787 34.7363V42.7222C209.799 44.4671 210.043 45.7903 210.52 46.6919V46.9827L205.544 46.9798ZM201.473 43.5539C202.172 43.5603 202.863 43.3935 203.482 43.0683C204.057 42.7809 204.533 42.3269 204.846 41.7654V38.5984H203.005C200.541 38.5984 199.228 39.4505 199.067 41.1547L199.05 41.4455C199.042 41.7299 199.096 42.0126 199.208 42.2741C199.32 42.5356 199.488 42.7699 199.699 42.9607C200.191 43.3802 200.827 43.5937 201.473 43.5569V43.5539ZM223.93 33.163C223.343 33.0783 222.751 33.0327 222.158 33.0263C220.295 33.0263 219.074 33.6564 218.494 34.9166V46.9798H213.571V28.5448H218.224L218.36 30.7434C219.349 29.0508 220.718 28.2046 222.467 28.2046C222.986 28.2008 223.502 28.2753 223.999 28.4256L223.93 33.163Z" fill="black"/>
</svg>
