<svg width="213" height="64" viewBox="0 0 213 64" fill="none" xmlns="http://www.w3.org/2000/svg">
<path d="M40.2331 37.8251C40.1029 32.1371 37.0331 27.6217 32.3451 25.8571V15.9577C31.1668 15.1855 29.9065 14.5462 28.5874 14.0514V35.3508C28.5874 39.5703 26.6743 41.4537 23.5989 41.4537C20.6046 41.4537 18.0994 39.1417 18.0994 35.2731C18.0994 30.9554 21.3909 28.3188 25.6983 28.3188C26.1009 28.3093 26.5036 28.3353 26.9017 28.3965V24.6285C26.5046 24.5576 26.1016 24.5251 25.6983 24.5314C19.304 24.5314 14.2949 28.5394 14.2949 35.2823C14.2949 41.7657 18.816 45.2251 23.8537 45.2251C26.2423 45.2251 28.3063 44.3954 29.7314 42.968C31.1566 41.5405 32.36 39.48 32.36 35.8594V29.9588C34.9623 31.288 36.5314 34.5074 36.5383 38.1931C36.5246 45.1325 30.2274 50.9977 22.8434 50.9977C22.672 50.9977 22.5406 50.9977 22.368 50.9897C17.3029 50.984 12.8503 49.1131 9.24343 45.4217C6.63699 42.7471 4.86925 39.369 4.15771 35.7028C3.44011 32.021 3.80819 28.2101 5.21714 24.7337C6.60879 21.2814 8.98813 18.3165 12.0571 16.2103C15.0972 14.1278 18.6956 13.0124 22.3806 13.0103V9.14282C19.4423 9.14282 16.5314 9.73368 13.8194 10.88C11.0961 12.0347 8.62842 13.7173 6.55886 15.8308C2.36114 20.1131 0 25.928 0 31.9885C0 38.0491 2.35429 43.8651 6.544 48.1543C10.736 52.4457 16.4274 54.8571 22.36 54.8571H22.8354C24.6594 54.8571 26.4754 54.5691 28.224 54.0125C28.2309 54.0125 28.2377 54.0057 28.2446 54.0057C30.7753 53.1993 33.0922 51.8342 35.024 50.0114C38.3749 46.848 40.2206 42.664 40.2343 38.2125C40.24 38.1977 40.2331 37.8331 40.2331 37.8251ZM46.2206 31.5851C46.2206 25.208 50.8183 20.0743 57.2743 19.576C57.6091 19.544 57.944 19.544 58.3097 19.544C58.6446 19.544 59.0091 19.544 59.3154 19.576C63.7909 19.9177 66.744 22.4377 67.8709 23.9623L64.888 26.4194C63.5474 24.616 61.4469 23.2468 58.3097 23.216C53.6811 23.216 50.4537 26.8251 50.4537 31.5543C50.4537 36.3143 53.6811 39.9851 58.3097 39.9851C60.808 39.9543 62.7554 39.2377 64.096 38.2125V34.1668H58.1577V30.6205H68.0846V40.0468C66.2263 41.8205 62.968 43.656 58.3097 43.656C51.2754 43.6251 46.2206 38.2743 46.2206 31.5851ZM133.119 43.1851V20.0685H141.006C143.808 20.0685 146.245 20.4423 148.437 21.8411C151.634 23.8948 153.613 27.504 153.613 31.6114C153.613 35.7485 151.633 39.3588 148.437 41.4114C146.245 42.8114 143.808 43.1851 141.006 43.1851H133.119ZM137.291 39.5131H140.854C142.803 39.5131 144.447 39.3577 146.062 38.2994C148.102 36.9303 149.351 34.4091 149.351 31.5794C149.351 28.8103 148.102 26.2903 146.062 24.9211C144.447 23.8628 142.803 23.6765 140.824 23.6765H137.291V39.5131ZM70.4297 34.6023C70.4297 29.6251 74.2971 25.5794 79.5646 25.5794C84.8937 25.5794 88.7303 29.6251 88.7303 34.6034C88.7303 39.5817 84.8937 43.656 79.5646 43.656C74.2663 43.6571 70.4297 39.6125 70.4297 34.6023ZM155.592 34.6594C155.592 29.6811 158.911 25.6365 163.997 25.6365C166.737 25.6365 168.625 26.8183 169.661 28.1257H169.691L169.874 26.1337H173.681L173.712 43.2148H169.966L169.783 41.0674L169.722 41.0365C168.749 42.4674 166.769 43.7108 164.058 43.7108C158.881 43.7131 155.592 39.6377 155.592 34.6594ZM84.6491 34.6651C84.6491 31.5851 82.6697 29.1268 79.5634 29.1268C76.52 29.1268 74.4789 31.5851 74.4789 34.6651C74.4789 37.6525 76.52 40.08 79.5646 40.08C82.6709 40.08 84.6491 37.6525 84.6491 34.6651ZM169.753 34.6594C169.753 31.6103 167.803 29.184 164.697 29.184C161.713 29.184 159.642 31.6103 159.642 34.6583C159.642 37.7085 161.713 40.1348 164.697 40.1348C167.805 40.1348 169.753 37.7085 169.753 34.6594ZM179.984 41.0068C179.131 39.856 178.888 38.4868 178.888 36.6823V29.5885H175.782V26.1348H178.888V19.7577C179.01 19.7885 179.102 19.8183 179.223 19.8811C179.831 20.1303 180.471 20.3794 181.049 20.6903C181.689 21.0331 182.298 21.3748 182.907 21.7485V26.1348H188.054V29.5885H182.907V36.4343C182.907 37.5543 183.059 38.4251 183.515 38.9851C183.942 39.576 184.642 39.9188 185.526 39.9188C186.53 39.9188 187.322 39.576 187.778 39.2343L189.271 42.16C188.539 42.7508 186.926 43.4971 184.977 43.4971C182.938 43.4948 181.05 42.7497 179.984 41.0057M90.7109 34.6023C90.7109 29.624 94.5474 25.5794 99.8457 25.5794C105.144 25.5794 109.011 29.624 109.011 34.6023C109.011 39.5805 105.145 43.6548 99.8457 43.6548C94.5166 43.656 90.7109 39.6114 90.7109 34.6011M104.931 34.664C104.931 31.5828 102.922 29.1245 99.8457 29.1245C96.7714 29.1245 94.7611 31.5828 94.7611 34.6628C94.7611 37.6503 96.7703 40.0777 99.8469 40.0777C102.921 40.0777 104.931 37.6514 104.931 34.664ZM189.881 34.656C189.881 29.6777 193.2 25.6331 198.286 25.6331C201.026 25.6331 202.914 26.8148 203.95 28.1223H203.981L204.163 26.1303H207.97L208 43.2148H204.254L204.071 41.0674L204.01 41.0365C203.037 42.4674 201.057 43.7108 198.346 43.7108C193.169 43.7131 189.88 39.6377 189.88 34.6594M204.04 34.6594C204.04 31.6103 202.091 29.184 198.985 29.184C196.001 29.184 193.93 31.6103 193.93 34.6583C193.93 37.7085 196.001 40.1348 198.985 40.1348C202.091 40.1348 204.04 37.7085 204.04 34.6594ZM116.471 43.1588C113.031 41.9451 110.96 38.5531 110.96 34.6034C110.96 29.6251 114.279 25.5805 119.365 25.5805C122.105 25.5805 123.993 26.7623 125.029 28.0685H125.059V18.0457L125.638 18.2628C126.307 18.5428 126.947 18.8228 127.557 19.1657C128.073 19.4457 128.591 19.7257 129.079 20.0674V43.1588H125.333L125.15 41.0125L125.089 40.9805C124.481 41.8514 123.506 42.6605 122.226 43.1588C121.33 43.493 120.381 43.6614 119.425 43.656C118.419 43.6581 117.421 43.49 116.471 43.1588ZM125.119 34.6034C125.119 31.5543 123.17 29.1268 120.064 29.1268C117.08 29.1268 115.009 31.5543 115.009 34.6023C115.009 37.6503 117.08 40.0788 120.064 40.0788C123.17 40.0788 125.119 37.6525 125.119 34.6034Z" fill="black"/>
</svg>
