<svg width="153" height="64" viewBox="0 0 153 64" fill="none" xmlns="http://www.w3.org/2000/svg">
<path d="M16.5702 17.4005V29.6332H5.33191V17.4005H0V46.6018H5.33335V34.766H16.5687V46.6018H21.9035V17.4005H16.5702ZM38.9746 37.1634C38.9746 38.3339 38.5096 39.4564 37.682 40.284C36.8544 41.1117 35.7318 41.5766 34.5614 41.5766C33.391 41.5766 32.2684 41.1117 31.4408 40.284C30.6132 39.4564 30.1482 38.3339 30.1482 37.1634V24.655H25.0891V37.1634C25.0891 39.6732 26.0861 42.0801 27.8607 43.8547C29.6354 45.6294 32.0423 46.6263 34.552 46.6263C37.0617 46.6263 39.4687 45.6294 41.2433 43.8547C43.0179 42.0801 44.0149 39.6732 44.0149 37.1634V24.655H38.9746V37.1634ZM76.461 25.9439C76.461 23.379 78.157 22.5664 80.0147 22.5664C81.5129 22.5664 83.4904 23.7067 84.7851 25.0894L88.0977 21.1836C86.4436 18.9463 83.0891 17.4005 80.3423 17.4005C74.8531 17.4005 70.8837 20.6149 70.8837 25.9439C70.8837 35.8312 82.9679 32.6932 82.9679 38.2272C82.9679 39.9333 81.3108 41.4402 79.4142 41.4402C76.4221 41.4402 75.4521 39.9781 74.078 38.4307L70.4002 42.2543C72.7529 45.1411 75.6542 46.6076 79.1284 46.6076C84.3434 46.6076 88.5379 43.3542 88.5379 38.2676C88.5379 27.2921 76.4524 30.7028 76.4524 25.9439M151.22 41.9368C148.231 41.9368 147.381 40.6435 147.381 38.6631V29.8945H152.029V25.4517H147.381V19.5901L142.251 21.8923V39.7529C142.251 44.3212 145.403 46.6235 149.725 46.6235C150.403 46.635 151.082 46.5802 151.749 46.4618L153 41.8545C152.436 41.8935 151.788 41.9324 151.22 41.9324M58.2324 24.8008C55.7266 24.8008 53.9772 25.5282 52.2856 27.1867V17.5751H47.2193V35.3909C47.2193 42.0594 52.0402 46.6292 57.4587 46.6292C63.469 46.6292 68.7562 41.9786 68.7562 35.7172C68.7562 29.5336 63.8905 24.8051 58.2324 24.8051M58.2006 41.5297C57.4455 41.5297 56.6979 41.381 56.0003 41.092C55.3027 40.8031 54.6688 40.3796 54.1349 39.8456C53.601 39.3117 53.1775 38.6779 52.8885 37.9803C52.5996 37.2827 52.4509 36.535 52.4509 35.7799C52.4509 35.0249 52.5996 34.2772 52.8885 33.5796C53.1775 32.882 53.601 32.2482 54.1349 31.7142C54.6688 31.1803 55.3027 30.7568 56.0003 30.4678C56.6979 30.1789 57.4455 30.0302 58.2006 30.0302C59.7256 30.0302 61.188 30.636 62.2663 31.7142C63.3446 32.7925 63.9504 34.255 63.9504 35.7799C63.9504 37.3049 63.3446 38.7674 62.2663 39.8456C61.188 40.9239 59.7256 41.5297 58.2006 41.5297ZM113.255 35.4516C113.255 29.1786 107.979 24.5395 101.957 24.5395C96.5401 24.5395 91.7177 29.1078 91.7177 35.7778V53.6037H96.784V43.9792C98.4728 45.6347 100.225 46.3651 102.728 46.3651C108.386 46.3651 113.255 41.6365 113.255 35.4516ZM108.457 35.3881C108.457 36.913 107.851 38.3755 106.773 39.4538C105.694 40.5321 104.232 41.1378 102.707 41.1378C101.182 41.1378 99.7196 40.5321 98.6413 39.4538C97.563 38.3755 96.9572 36.913 96.9572 35.3881C96.9572 33.8631 97.563 32.4007 98.6413 31.3224C99.7196 30.2441 101.182 29.6383 102.707 29.6383C104.232 29.6383 105.694 30.2441 106.773 31.3224C107.851 32.4007 108.457 33.8631 108.457 35.3881Z" fill="#FE4802"/>
<path d="M129.627 24.2941V19.2033C130.3 18.8889 130.869 18.3898 131.269 17.7643C131.67 17.1388 131.884 16.4124 131.887 15.6698V15.5529C131.887 13.3878 130.132 11.6327 127.967 11.6327H127.85C126.81 11.6327 125.813 12.0457 125.078 12.7809C124.343 13.5161 123.93 14.5132 123.93 15.5529V15.6698C123.933 16.4124 124.148 17.1388 124.548 17.7643C124.948 18.3898 125.517 18.8889 126.19 19.2033V24.2941C124.257 24.5902 122.436 25.3919 120.912 26.618L106.95 15.7435C107.049 15.3841 107.101 15.0145 107.107 14.6436C107.109 13.7699 106.851 12.9153 106.367 12.188C105.883 11.4606 105.194 10.8932 104.388 10.5574C103.581 10.2216 102.693 10.1326 101.836 10.3015C100.979 10.4705 100.191 10.8899 99.5723 11.5067C98.9535 12.1235 98.5315 12.9099 98.3597 13.7665C98.1879 14.6232 98.2741 15.5115 98.6072 16.3192C98.9404 17.1268 99.5056 17.8175 100.231 18.3039C100.957 18.7903 101.811 19.0506 102.685 19.0517C103.449 19.0481 104.199 18.8441 104.86 18.4599L118.608 29.1584C117.373 31.0242 116.729 33.2188 116.759 35.4562C116.789 37.6936 117.493 39.8699 118.778 41.7015L114.597 45.8845C114.259 45.7764 113.907 45.719 113.552 45.7141C112.835 45.7147 112.134 45.9279 111.538 46.3266C110.942 46.7254 110.477 47.292 110.203 47.9546C109.929 48.6173 109.857 49.3464 109.997 50.0497C110.137 50.7531 110.483 51.3991 110.99 51.9062C111.497 52.4134 112.143 52.7588 112.846 52.8988C113.55 53.0389 114.279 52.9673 114.941 52.6931C115.604 52.4189 116.171 51.9544 116.569 51.3584C116.968 50.7623 117.181 50.0614 117.182 49.3443C117.177 48.9894 117.12 48.6372 117.012 48.2993L121.148 44.161C122.497 45.1996 124.066 45.9156 125.735 46.2541C127.403 46.5927 129.127 46.5449 130.774 46.1144C132.421 45.6838 133.948 44.882 135.237 43.7703C136.526 42.6586 137.544 41.2665 138.212 39.7007C138.881 38.1349 139.182 36.4369 139.092 34.7369C139.003 33.0368 138.526 31.3797 137.697 29.8926C136.868 28.4055 135.71 27.1278 134.311 26.1574C132.912 25.187 131.31 24.5496 129.627 24.2941ZM127.912 41.0375C127.148 41.0586 126.387 40.9262 125.674 40.6481C124.962 40.3701 124.312 39.952 123.764 39.4187C123.216 38.8854 122.78 38.2476 122.483 37.5431C122.185 36.8385 122.032 36.0814 122.032 35.3166C122.032 34.5518 122.185 33.7948 122.483 33.0902C122.78 32.3856 123.216 31.7479 123.764 31.2145C124.312 30.6812 124.962 30.2632 125.674 29.9852C126.387 29.7071 127.148 29.5747 127.912 29.5957C129.394 29.6476 130.798 30.2725 131.828 31.3389C132.858 32.4052 133.434 33.8297 133.435 35.3124C133.436 36.7951 132.861 38.2202 131.832 39.2876C130.803 40.3549 129.4 40.9813 127.918 41.0346" fill="#FE4802"/>
</svg>
