<svg width="168" height="64" viewBox="0 0 168 64" fill="none" xmlns="http://www.w3.org/2000/svg">
<path fill-rule="evenodd" clip-rule="evenodd" d="M8.14203 17H1V27.7131C1 29.2908 2.27898 30.5699 3.85681 30.5699H8.14203H14.8182C16.9249 30.5699 18.9241 29.6397 20.2812 28.0283L29.5681 17H19.5693L8.14203 30.5699V17ZM20.2835 46.9965H30.2823L20.2852 34.0591C18.9329 32.3089 16.8457 31.2841 14.6339 31.2841H8.14203H3.85681C2.27898 31.2841 1 32.5631 1 34.1409V46.9965H8.14203V31.2841L20.2835 46.9965Z" fill="black"/>
<path fill-rule="evenodd" clip-rule="evenodd" d="M55.2798 46.9966H62.4218L46.7195 17L30.9969 46.9966H33.1395L38.141 38.4261H51.1049L55.2798 46.9966ZM50.2804 36.9977L44.5667 25.5705L38.9657 36.9977H50.2804Z" fill="black"/>
<path d="M63.8496 46.9966H70.9916V17H63.8496V46.9966Z" fill="black"/>
<path fill-rule="evenodd" clip-rule="evenodd" d="M76.706 17.0167V32.7291H78.1344C81.2899 32.7291 83.8481 30.171 83.8481 27.0155V18.4451C85.9907 18.4451 90.9901 17.7309 94.1601 20.1409C95.6926 21.7012 96.0666 24.1369 95.9667 26.2302C95.8889 27.8598 95.317 29.4183 94.0924 30.5321C92.2426 32.2142 88.8475 32.7125 88.1333 32.7125C87.4191 32.7125 87.2091 33.7209 87.4191 34.1409C88.1333 35.5693 95.7788 45.643 96.7037 47.0132H105.988L95.8453 34.9683C95.3475 34.3772 94.7057 33.9389 93.993 33.6875C96.9786 33.3192 100.085 32.2168 101.9 29.6885C102.986 28.1764 103.554 26.1677 103.244 24.3146C102.91 22.3156 101.621 20.7378 100.004 19.5877C96.2296 16.9031 89.5814 16.959 84.5623 17.0167C80.9912 17.0167 79.5628 17.0167 76.706 17.0167ZM83.8481 47.0132H76.706V34.1575H78.1344C81.2899 34.1575 83.8481 36.7157 83.8481 39.8712V47.0132Z" fill="black"/>
<path d="M120.736 17C124.873 17 128.329 18.41 131.106 21.2298C133.882 24.0497 135.27 27.6456 135.27 32.0177C135.27 36.3639 133.882 39.9469 131.106 42.7668C128.329 45.5866 124.942 46.9966 120.944 46.9966C116.947 46.9966 113.573 45.5737 110.825 42.728C108.076 39.8822 106.702 36.2733 106.702 31.9013C106.702 27.6327 108.076 24.0885 110.825 21.2686C113.601 18.4229 116.905 17 120.736 17ZM121.069 18.5134C119.404 18.5134 117.904 18.9274 116.572 19.7552C115.267 20.5831 114.226 21.7731 113.448 23.3253C112.949 24.2825 112.574 25.4984 112.324 26.973C112.074 28.4476 111.949 30.0774 111.949 31.8625C111.949 40.9429 114.948 45.4832 120.944 45.4832C123.859 45.4832 126.094 44.3578 127.649 42.1071C129.232 39.8564 130.023 36.545 130.023 32.1729C130.023 23.0666 127.038 18.5134 121.069 18.5134Z" fill="black"/>
<path fill-rule="evenodd" clip-rule="evenodd" d="M148.116 17.2572C152.86 16.8568 157.4 16.5433 161.685 19.4002C163.563 21.197 163.869 22.5388 164.143 24.057C163.06 24.057 162.813 24.057 162.032 24.057C162.027 23.6385 161.999 23.2919 161.922 22.9544C161.638 21.6962 160.749 20.6404 159.75 19.825C158.37 18.6995 156.005 17.8438 149.497 18.7276L148.116 17.2572ZM158.114 46.5395C153.829 47.2537 146.698 47.9679 141.168 44.716C139.708 44.0303 138.698 42.0811 138.128 40.4831C139.389 40.4831 140.271 40.4831 141.688 40.4831C141.702 42.6841 143.842 45.1111 147.511 45.6176C150.984 45.8253 155.553 46.2127 157.81 44.716C157.962 45.3244 158.377 46.0008 158.114 46.5395ZM159.969 43.5255C159.399 44.2129 158.641 44.4672 157.81 44.716C157.962 45.3244 158.377 46.0008 158.114 46.5395C161.411 45.9902 164.732 44.0184 165.971 41.5401C166.685 40.1117 167.399 37.9691 166.74 35.8969C165.289 31.8618 159.191 30.1781 153.956 28.7326C151.693 28.1079 149.592 27.5276 148.096 26.8213C146.872 26.2425 145.437 25.4135 144.959 24.057C144.693 23.3013 144.775 22.3767 145.122 21.662C145.933 19.9892 147.863 19.2954 149.497 18.7276L148.116 17.2572C145.416 17.7203 142.677 19.135 140.951 21.197C139.78 22.5953 138.679 24.6424 138.848 26.5248C138.992 28.1192 139.974 29.3893 141.168 30.3826C143.006 31.9101 146.678 33.1277 150.378 34.3543C155.588 36.0822 160.853 37.8279 161.12 40.4831C161.221 41.4906 160.599 42.766 159.969 43.5255Z" fill="black"/>
<path d="M19.5693 17H29.5681L20.2812 28.0283C18.9241 29.6397 16.9249 30.5699 14.8182 30.5699H8.14203L19.5693 17Z" fill="#23CB00"/>
</svg>
