<svg width="82" height="40" viewBox="0 0 82 40" fill="none" xmlns="http://www.w3.org/2000/svg">
<path d="M2.85253 32.0645H0V8.10489L2.85253 7.5V32.0645ZM10.4896 14.674L12.7244 16.289L7.23126 23.1666L13.5965 30.7942L11.392 32.5L3.88211 23.3239L10.4896 14.674ZM16.122 27.5157C15.9766 22.0717 21.9421 22.0717 26.1512 22.2411C26.7993 16.3858 22.0451 16.5249 18.0782 18.3093L17.2424 16.2951C31.7291 10.3369 28.5738 22.8762 28.8827 32.0705H26.769L26.4298 30.2135C23.0565 33.3408 15.9342 33.3166 16.122 27.5157ZM21.4818 30.0563C23.2144 29.9748 24.8649 29.2948 26.1512 28.1327V24.1646C24.4676 24.1949 20.9913 23.9287 19.889 24.9389C18.0842 26.306 18.6111 30.395 21.4818 30.0502V30.0563ZM36.8164 32.0645H33.9579V8.10489L36.8104 7.5L36.8164 32.0645ZM44.4535 14.674L46.6883 16.289L41.2255 23.1666L47.5846 30.7942L45.3862 32.5L37.8703 23.3239L44.4535 14.674ZM50.0859 27.5157C49.9405 22.0717 55.9 22.0717 60.1091 22.2411C60.7571 16.3858 56.009 16.5249 52.0421 18.3093L51.2063 16.2951C55.8697 13.5852 63.319 14.2082 62.8405 21.2188V32.0705H60.7269L60.3816 30.2135C57.0385 33.3408 49.8921 33.3166 50.0859 27.5157ZM55.4457 30.0563C57.1768 29.9759 58.8257 29.2957 60.1091 28.1327V24.1646C58.4315 24.1949 54.9552 23.9287 53.8529 24.9389C52.0421 26.306 52.575 30.395 55.4457 30.0502V30.0563ZM74.3294 14.8131C84.4737 14.2082 84.5525 33.0565 74.3294 32.4214C64.1184 33.0565 64.1971 14.2445 74.3294 14.8131ZM74.3294 17.1056C68.0429 16.8153 67.9823 30.4434 74.3294 30.1228C80.7249 30.4857 80.6643 16.8153 74.3294 17.1238V17.1056Z" fill="black"/>
</svg>
