<svg width="134" height="64" viewBox="0 0 134 64" fill="none" xmlns="http://www.w3.org/2000/svg">
<path d="M5.59372 51.5586H1V12.9741L5.59372 12V51.5586ZM17.8924 23.553L21.4913 26.1538L12.6452 37.2295L22.8958 49.513L19.3456 52.26L7.25175 37.4827L17.8924 23.553ZM26.9628 44.2333C26.7287 35.4663 36.3356 35.4663 43.114 35.7391C44.1576 26.3097 36.5014 26.5337 30.1131 29.4074L28.7671 26.1636C52.0966 16.5686 47.0152 36.7619 47.5126 51.5684H44.1088L43.5626 48.5779C38.1301 53.614 26.6605 53.5751 26.9628 44.2333ZM35.5943 48.3246C38.3845 48.1934 41.0424 47.0984 43.114 45.2269V38.8368C40.4026 38.8855 34.8043 38.4569 33.0292 40.0836C30.1228 42.2851 30.9713 48.8701 35.5943 48.3149V48.3246ZM60.2892 51.5586H55.6857V12.9741L60.2795 12L60.2892 51.5586ZM72.5879 23.553L76.1868 26.1538L67.3895 37.2295L77.6303 49.513L74.0899 52.26L61.9863 37.4827L72.5879 23.553ZM81.6583 44.2333C81.4242 35.4663 91.0213 35.4663 97.7997 35.7391C98.8433 26.3097 91.1969 26.5337 84.8086 29.4074L83.4626 26.1636C90.9725 21.7996 102.969 22.8029 102.198 34.0928V51.5684H98.7945L98.2386 48.5779C92.8549 53.614 81.3462 53.5751 81.6583 44.2333ZM90.2898 48.3246C93.0775 48.1951 95.733 47.0998 97.7997 45.2269V38.8368C95.0981 38.8855 89.4998 38.4569 87.7247 40.0836C84.8086 42.2851 85.6668 48.8701 90.2898 48.3149V48.3246ZM120.7 23.777C137.037 22.8029 137.163 53.1562 120.7 52.1334C104.256 53.1562 104.383 22.8613 120.7 23.777ZM120.7 27.4689C110.576 27.0013 110.479 48.948 120.7 48.4317C130.999 49.0162 130.902 27.0013 120.7 27.4981V27.4689Z" fill="#FFCB05"/>
</svg>
