<svg width="175" height="64" viewBox="0 0 175 64" fill="none" xmlns="http://www.w3.org/2000/svg">
<g clip-path="url(#clip0_17154_33863)">
<path d="M65.2324 48.3752V17.1904H70.3814V30.5554L83.7878 17.1904H90.151L77.5703 29.6198L90.4426 48.3752H84.1764L73.8788 33.2284L70.3814 36.7032V48.3752H65.2324Z" fill="#141D16"/>
<path d="M102.844 48.9102C100.48 48.9102 98.375 48.435 96.5291 47.4845C94.7157 46.5045 93.291 45.153 92.2547 43.4305C91.2184 41.7079 90.7002 39.7032 90.7002 37.4164C90.7002 35.0997 91.2022 33.0653 92.206 31.3129C93.2423 29.5607 94.6672 28.1945 96.4807 27.2144C98.3265 26.2343 100.464 25.7443 102.892 25.7443C105.256 25.7443 107.313 26.2343 109.061 27.2144C110.81 28.1648 112.17 29.4419 113.141 31.0457C114.113 32.6495 114.599 34.4166 114.599 36.3471C114.599 36.6442 114.583 36.9709 114.55 37.3272C114.55 37.654 114.534 38.0251 114.502 38.4409H95.752C95.914 40.5793 96.6748 42.2128 98.0349 43.3414C99.4274 44.4403 101.03 44.9897 102.844 44.9897C104.301 44.9897 105.515 44.6928 106.487 44.0987C107.491 43.4751 108.236 42.6435 108.721 41.6039H113.87C113.223 43.683 111.927 45.4205 109.984 46.8163C108.074 48.2121 105.693 48.9102 102.844 48.9102ZM102.844 29.62C101.128 29.62 99.6055 30.0952 98.2778 31.0457C96.9501 31.9664 96.1406 33.3622 95.8492 35.2334H109.45C109.353 33.5108 108.689 32.1447 107.458 31.1349C106.228 30.125 104.69 29.62 102.844 29.62Z" fill="#141D16"/>
<path d="M118.474 48.3761V26.2794H123.088L123.525 31.0017C124.367 29.5464 125.533 28.403 127.023 27.5714C128.545 26.7101 130.374 26.2794 132.511 26.2794V31.2244H131.103C129.678 31.2244 128.399 31.4473 127.265 31.8928C126.165 32.3084 125.274 33.0361 124.594 34.0756C123.946 35.0854 123.622 35.9617 123.622 37.7734V48.3761H118.474Z" fill="#141D16"/>
<path d="M135.592 48.3755V26.2789H140.158L140.546 30.1547C141.291 28.7885 142.376 27.7193 143.801 26.9471C145.258 26.1452 146.926 25.7443 148.804 25.7443C151.719 25.7443 154.001 26.5759 155.653 28.239C157.337 29.9022 158.179 32.3822 158.179 35.6789V48.3755H153.079V36.169C153.079 31.8922 151.168 29.7537 147.347 29.7537C145.436 29.7537 143.849 30.3773 142.586 31.6247C141.356 32.8721 140.741 34.6542 140.741 36.9709V48.3755H135.592Z" fill="#141D16"/>
<path d="M166.152 22.9274L164.894 20.4157L163.623 22.9274H166.152ZM165.649 18.7021L169.197 25.801H167.617L166.828 24.2471H162.959L162.17 25.801H160.579L164.127 18.7021H165.649Z" fill="#75EA8E"/>
<path d="M172 18.7021V25.801H170.547V18.7021H172Z" fill="#75EA8E"/>
<path d="M8.74644 27.1006H0V54.0455C0 54.5951 0.445494 55.0406 0.995038 55.0406H44.9238C45.4734 55.0406 45.9189 54.5951 45.9189 54.0455V36.8188H37.1724V45.299C37.1724 45.8486 36.7269 46.2941 36.1773 46.2941H9.74148C9.19195 46.2941 8.74644 45.8486 8.74644 45.299V27.1006Z" fill="url(#paint0_linear_17154_33863)"/>
<path d="M40.5738 36.8193H49.3201V9.87431C49.3201 9.32477 48.8748 8.87927 48.3252 8.87927H4.3964C3.84686 8.87927 3.40137 9.32477 3.40137 9.87431V27.101H12.1478V18.6208C12.1478 18.0712 12.5933 17.6257 13.1429 17.6257H39.5787C40.1283 17.6257 40.5738 18.0712 40.5738 18.6208V36.8193Z" fill="url(#paint1_linear_17154_33863)"/>
</g>
<defs>
<linearGradient id="paint0_linear_17154_33863" x1="9.44578" y1="40.9943" x2="36.0829" y2="40.9943" gradientUnits="userSpaceOnUse">
<stop stop-color="#5DE079"/>
<stop offset="1" stop-color="#75EA8E"/>
</linearGradient>
<linearGradient id="paint1_linear_17154_33863" x1="40.2391" y1="22.8591" x2="12.6573" y2="22.8591" gradientUnits="userSpaceOnUse">
<stop stop-color="#5DE079"/>
<stop offset="1" stop-color="#75EA8E"/>
</linearGradient>
<clipPath id="clip0_17154_33863">
<rect width="172" height="46.3379" fill="white" transform="translate(0 8.87952)"/>
</clipPath>
</defs>
</svg>
