<svg width="154" height="64" viewBox="0 0 154 64" fill="none" xmlns="http://www.w3.org/2000/svg">
<path d="M12.2499 41.4289H15.1044C17.0773 41.4289 18.6305 41.261 19.7219 40.8832C20.8553 40.5054 21.7788 39.9177 22.4504 39.0781C23.1221 38.2386 24.5493 35.5101 24.7592 33.705H28.3273C28.5371 35.636 29.9224 38.2386 30.594 39.1201C31.2657 39.9177 32.1892 40.5054 33.3645 40.8832C34.5399 41.261 36.0931 41.4289 38.024 41.4289H43.7329C46.0417 41.4289 48.0566 41.8906 49.7357 42.8141C50.953 40.3375 51.7506 37.6509 52.0864 34.7964C51.8346 32.4877 51.1629 30.5987 50.0295 29.1295C48.5603 27.2405 46.4615 26.275 43.7329 26.275H37.1425C34.372 26.275 32.1052 25.6874 30.3841 24.554C28.6631 23.4206 27.4038 21.5736 26.6482 19.0549H26.5642C26.1444 21.2378 25.011 22.9588 23.206 24.3021C21.401 25.6034 19.0083 26.275 16.0699 26.275H9.35349C6.58299 26.275 4.5261 27.2405 3.05689 29.1295C1.9235 30.5987 1.25186 32.4877 1 34.7964C1.33582 37.6509 2.17537 40.3375 3.35073 42.8141C5.02983 41.8906 7.04474 41.3869 9.31152 41.3869L12.2499 41.4289Z" fill="#7C39ED"/>
<path d="M9.35366 21.7415H15.1046C17.0775 21.7415 18.6306 21.5736 19.7221 21.1958C20.8554 20.86 21.7789 20.2303 22.4506 19.3908C23.1222 18.5512 24.5495 15.8227 24.7593 14.0177H28.3274C28.5373 15.9486 29.9226 18.5512 30.5942 19.4328C31.2658 20.2303 32.1893 20.818 33.3647 21.1958C34.5401 21.5736 36.0932 21.7415 38.0242 21.7415H43.7331C46.7135 21.7415 49.1902 22.4971 51.1211 24.0503C47.9728 13.5979 38.1501 6 26.6063 6C15.0626 6 5.23988 13.5979 2.00762 24.0922C3.93858 22.5391 6.41524 21.7415 9.35366 21.7415Z" fill="#7C39ED"/>
<path d="M43.817 45.9624H37.1426C34.3721 45.9624 32.1053 45.3748 30.3842 44.2414C28.6632 43.108 27.4458 41.261 26.6482 38.7423H26.5643C26.1445 40.9252 25.0111 42.6882 23.2061 43.9895C21.4011 45.2908 19.0084 45.9624 16.07 45.9624H9.35357C7.96832 45.9624 6.75098 46.2143 5.70155 46.718C10.361 53.1825 18.0009 57.3803 26.6063 57.3803C35.2116 57.3803 42.8095 53.1825 47.511 46.718C46.4616 46.2143 45.2022 45.9624 43.817 45.9624Z" fill="#7C39ED"/>
<path d="M150.066 40.6534V29.1023H152.723V40.6534H150.066ZM149.812 27.4159V24.6898H153V27.4159H149.812Z" fill="black"/>
<path d="M140.806 41.0231C138.519 41.0231 136.855 39.5445 136.855 37.4653C136.855 35.3399 138.588 34.0693 141.869 33.7228C144.086 33.4455 144.618 33.1683 144.572 32.2904C144.525 31.4819 143.763 31.0429 142.516 31.0429C140.875 31.0429 139.813 31.8053 139.813 32.9373L137.179 32.7063C137.179 30.3729 139.351 28.7327 142.377 28.7327C145.403 28.7327 147.275 30.396 147.275 33.0759V40.6534H144.618V38.5742C143.971 40.099 142.608 41.0231 140.806 41.0231ZM141.476 38.7129C143.393 38.7129 144.618 37.0495 144.618 34.5776V34.4851C144.156 35.0627 143.232 35.4323 142.03 35.5478C140.39 35.7327 139.582 36.3102 139.582 37.2343C139.582 38.1584 140.367 38.7129 141.476 38.7129Z" fill="black"/>
<path d="M131.403 40.6534V37.4191H134.799V40.6534H131.403Z" fill="black"/>
<path d="M124.021 41.0231C120.463 41.0231 118.038 38.5511 118.038 34.8548C118.038 31.2739 120.371 28.7327 123.651 28.7327C126.955 28.7327 129.219 31.2508 129.219 34.9241V35.6403H120.787C120.787 37.4653 122.034 38.7129 123.882 38.7129C125.176 38.7129 126.17 38.0891 126.516 37.0495L129.196 37.2805C128.826 39.5445 126.77 41.0231 124.021 41.0231ZM126.493 33.6073C126.493 32.0825 125.315 31.0429 123.628 31.0429C121.942 31.0429 120.787 32.0825 120.787 33.6073H126.493Z" fill="black"/>
<path d="M113.072 33.6073C113.072 31.9439 112.356 31.0429 111.085 31.0429C109.445 31.0429 108.382 32.5908 108.382 35.0396V40.6534H105.725V33.6073C105.725 31.9439 105.009 31.0429 103.738 31.0429C102.098 31.0429 101.035 32.5908 101.035 35.0396V40.6534H98.3787V29.1023H101.035V31.066C101.705 29.6337 103.022 28.7327 104.663 28.7327C106.349 28.7327 107.55 29.6799 108.082 31.3432C108.775 29.7492 110.23 28.7327 112.009 28.7327C114.342 28.7327 115.728 30.4885 115.728 33.5149V40.6534H113.072V33.6073Z" fill="black"/>
<path d="M82.159 40.6534L79.3405 29.1023H82.0203L84.0071 37.5115L86.7332 29.1023H88.8124L91.5385 37.5115L93.5253 29.1023H96.2051L93.3866 40.6534H90.2678L87.7728 32.7987L85.2778 40.6534H82.159Z" fill="black"/>
<path d="M70.9352 41.0231C68.6481 41.0231 66.9848 39.5445 66.9848 37.4653C66.9848 35.3399 68.7174 34.0693 71.9979 33.7228C74.2158 33.4455 74.7471 33.1683 74.7009 32.2904C74.6547 31.4819 73.8923 31.0429 72.6448 31.0429C71.0046 31.0429 69.9418 31.8053 69.9418 32.9373L67.3082 32.7063C67.3082 30.3729 69.4798 28.7327 72.5062 28.7327C75.5326 28.7327 77.4039 30.396 77.4039 33.0759V40.6534H74.7471V38.5742C74.1003 40.099 72.7372 41.0231 70.9352 41.0231ZM71.6052 38.7129C73.5227 38.7129 74.7471 37.0495 74.7471 34.5776V34.4851C74.2851 35.0627 73.361 35.4323 72.1597 35.5478C70.5194 35.7327 69.7108 36.3102 69.7108 37.2343C69.7108 38.1584 70.4963 38.7129 71.6052 38.7129Z" fill="black"/>
<path d="M61.7207 40.6534V24.2509H64.3775V40.6534H61.7207Z" fill="black"/>
</svg>
