<svg width="176" height="64" viewBox="0 0 176 64" fill="none" xmlns="http://www.w3.org/2000/svg">
<path d="M1 13.144C1 10.3013 3.30134 8 6.144 8H16.4293C19.2693 8 21.5707 10.3013 21.5707 13.144V50.8559C21.5707 53.6986 19.2693 56 16.4293 56H6.144C3.30134 56 1 53.6986 1 50.8559V13.144ZM36.9999 8C43.6266 8 48.9998 13.3733 48.9998 20C48.9998 26.6266 43.6266 31.9999 36.9999 31.9999C30.3734 31.9999 25.0001 26.6266 25.0001 20C25.0001 13.3733 30.3734 8 36.9999 8ZM48.7975 34.7787C48.7975 32.488 46.0269 31.3414 44.4082 32.96L25.7575 51.6105C24.1389 53.2293 25.2855 56 27.5762 56H43.6535C46.4961 56 48.7975 53.6986 48.7975 50.8559V34.7787Z" fill="url(#paint0_radial_17154_33874)"/>
<path d="M76.893 17.7859H71.7412V47.1057H76.893V17.7859Z" fill="black"/>
<path d="M90.4361 27.126C84.3627 27.126 80.3837 31.3146 80.3837 37.4716C80.3837 43.629 84.4883 47.7336 90.8132 47.7336C94.8761 47.7336 97.4729 45.8488 99.1901 44.257L96.5931 40.5293C95.5042 41.6184 93.5776 43.1679 90.8132 43.1679C87.8392 43.1679 85.6612 41.4509 85.3679 38.477H99.8185V37.4716C99.8185 30.8539 96.3 27.126 90.4361 27.126ZM90.1848 31.2728C92.698 31.2728 94.4572 32.6969 94.6246 35.1679H85.4937C85.9126 32.4874 87.7136 31.2728 90.1848 31.2728Z" fill="black"/>
<path d="M113.227 32.0688V27.7546H109.248V20.0059H104.096V27.7546H100.536V32.0688H104.096V41.4092C104.096 45.3045 106.274 47.1475 109.918 47.1475H112.18V42.3726H111.3C109.793 42.3726 109.248 41.7443 109.248 40.1945V32.0688H113.227Z" fill="black"/>
<path d="M127.298 32.0688V27.7546H123.319V20.0059H118.167V27.7546H114.607V32.0688H118.167V41.4092C118.167 45.3045 120.345 47.1475 123.989 47.1475H126.251V42.3726H125.372C123.864 42.3726 123.319 41.7443 123.319 40.1945V32.0688H127.298Z" fill="black"/>
<path d="M142.083 27.1683H141.874C138.69 27.1683 136.47 28.8437 135.465 31.8596H135.381V27.7548H130.313V47.1059H135.423V39.1893C135.423 34.4564 137.392 32.6972 141.496 32.6972H142.083V27.1683Z" fill="black"/>
<path d="M150.365 18.0371H144.501V23.6916H150.365V18.0371ZM144.836 47.1055H149.988V27.7544H144.836V47.1055Z" fill="black"/>
<path d="M162.776 47.7336C165.918 47.7336 168.012 46.3933 169.227 44.3828H169.31V47.1054H174.42V27.7544H169.31V30.4768H169.227C168.012 28.4663 165.918 27.126 162.776 27.126C157.709 27.126 153.478 30.8121 153.478 37.4298C153.478 44.0478 157.709 47.7336 162.776 47.7336ZM164.075 42.8748C160.976 42.8748 158.839 40.6967 158.839 37.4298C158.839 34.1629 160.976 31.9848 164.075 31.9848C167.174 31.9848 169.31 34.1629 169.31 37.4298C169.31 40.6967 167.174 42.8748 164.075 42.8748Z" fill="black"/>
<defs>
<radialGradient id="paint0_radial_17154_33874" cx="0" cy="0" r="1" gradientUnits="userSpaceOnUse" gradientTransform="translate(36.7334 8) rotate(118.072) scale(54.3999 60.4912)">
<stop stop-color="#FFCE48"/>
<stop offset="1" stop-color="#A56BF8"/>
</radialGradient>
</defs>
</svg>
