<svg width="130" height="64" viewBox="0 0 130 64" fill="none" xmlns="http://www.w3.org/2000/svg">
<path fill-rule="evenodd" clip-rule="evenodd" d="M36.3885 6C44.0942 6 50.4091 12.0586 50.9726 19.7386V43.1131C50.452 50.4178 44.7007 56.2544 37.5155 56.7835H14.5179C6.95707 56.2117 1 49.7941 1 41.9687V20.8916C1 12.6737 7.56232 6.00005 15.6436 6H36.3885ZM32.5822 15.2429C32.0532 15.243 31.5495 15.464 31.1911 15.848L25.9776 21.4805L23.3579 24.3049L11.0687 37.5835L25.9863 46.0404L28.2726 47.3459C28.554 47.5079 28.8783 47.5938 29.2024 47.5939C31.1651 47.5939 31.8487 44.939 30.1336 43.9661V43.9413L29.9029 43.8049L17.1959 36.6102L25.9863 27.1292L28.5974 24.3049L33.9733 18.5025C35.1254 17.2651 34.2548 15.2429 32.5822 15.2429ZM20.8906 44.4782C19.423 45.3059 20.0031 47.5749 21.6754 47.5753H22.8272C23.1003 47.5753 23.3743 47.5072 23.6133 47.3707C24.1247 47.0805 24.1247 46.3305 23.6133 46.0317L23.622 46.023L20.8906 44.4782ZM30.7671 26.6345C30.015 25.8244 28.7418 25.827 27.9936 26.6432C27.3025 27.3856 27.3024 28.5553 27.9936 29.2977L34.7606 36.6015L30.136 39.2213C28.8304 39.9552 28.8304 41.8673 30.136 42.6097C30.7162 42.9424 31.4156 42.9424 31.9958 42.6097L40.8879 37.5661L30.7671 26.6345ZM19.3669 15.2243C17.6946 15.2245 16.833 17.2465 17.9758 18.4839L21.1758 21.9405H21.1845C21.9354 22.7597 23.207 22.7596 23.958 21.9405C24.6492 21.1981 24.6492 20.0285 23.958 19.286L20.758 15.8306C20.3995 15.4466 19.8959 15.2243 19.3669 15.2243Z" fill="black"/>
<path d="M128.258 18.4664C128.488 18.603 128.676 18.7907 128.804 19.0211C128.94 19.2601 129 19.5246 129 19.8062C129 20.0878 128.932 20.3609 128.795 20.5998C128.659 20.8473 128.471 21.0265 128.241 21.1631C128.01 21.2996 127.746 21.3679 127.455 21.3679C127.165 21.3679 126.909 21.2996 126.679 21.1631C126.448 21.0265 126.261 20.8303 126.133 20.5998C125.996 20.3609 125.928 20.0964 125.928 19.8147C125.928 19.5331 125.996 19.2601 126.133 19.0297C126.269 18.7907 126.448 18.603 126.687 18.4664C126.926 18.3299 127.182 18.2616 127.472 18.2616C127.763 18.2616 128.019 18.3299 128.258 18.4579V18.4664ZM128.164 21.0351C128.377 20.9071 128.539 20.7449 128.659 20.523C128.778 20.3097 128.838 20.0708 128.838 19.8147C128.838 19.5587 128.778 19.3198 128.659 19.1065C128.539 18.9016 128.377 18.731 128.164 18.603C127.959 18.4835 127.72 18.4152 127.464 18.4152C127.208 18.4152 126.969 18.4835 126.756 18.603C126.542 18.7224 126.38 18.8931 126.261 19.115C126.141 19.3283 126.081 19.5673 126.081 19.8233C126.081 20.0793 126.141 20.3182 126.261 20.5316C126.38 20.7449 126.542 20.9071 126.756 21.0436C126.969 21.1631 127.199 21.2313 127.455 21.2313C127.711 21.2313 127.942 21.1631 128.155 21.0436L128.164 21.0351ZM128.138 19.8745C128.07 19.9684 127.976 20.0366 127.848 20.0793L128.258 20.7193H128.027L127.643 20.122H127.097V20.7193H126.875V18.9272H127.549C127.763 18.9272 127.933 18.9784 128.053 19.0809C128.181 19.1918 128.241 19.3283 128.241 19.5161C128.241 19.6526 128.206 19.7635 128.138 19.8574V19.8745ZM127.891 19.8318C127.976 19.7635 128.019 19.6611 128.019 19.5331C128.019 19.4051 127.976 19.3113 127.891 19.243C127.805 19.1747 127.686 19.1406 127.532 19.1406H127.088V19.9428H127.532C127.686 19.9428 127.805 19.9086 127.891 19.8318Z" fill="black"/>
<path d="M71.8717 42.789C71.8546 43.6168 71.206 44.1544 70.566 44.2568C70.2417 44.3251 69.9089 44.3677 69.5761 44.3677C67.3232 44.3677 65.2837 42.7037 64.7375 40.3996C64.6351 39.9729 64.6095 39.5121 64.5925 39.0683C64.5925 38.9062 64.5754 38.7355 64.5669 38.5819C64.5242 38.0358 64.4815 37.4555 64.4474 36.8069C64.3877 35.6805 64.3535 34.5199 64.345 33.2313C64.3279 30.9699 64.3621 28.6829 64.4047 26.4556C64.4047 25.935 64.4218 25.4145 64.4303 24.8939C64.4559 23.1701 64.4474 21.4122 64.4303 19.7225C64.4303 19.1764 64.4303 18.6302 64.4133 18.1011V17.9049C64.473 16.9918 65.2069 16.2835 66.1029 16.2835C66.4016 16.2835 66.6832 16.3603 66.9307 16.5053H67.2038V16.7016C67.5792 17.0259 67.7926 17.4952 67.7926 18.0073V18.2547C67.8096 24.6977 67.8096 31.0979 67.7926 37.2848C67.7499 38.8891 67.9462 39.8022 68.4667 40.3398C68.8764 40.7665 69.5164 40.9799 70.4295 40.9799H70.6684C71.7437 41.2359 71.8631 42.0295 71.8461 42.7805H71.8631L71.8717 42.789ZM89.2121 24.4587C88.5976 24.4587 88.1283 24.7574 87.9149 25.2779C86.7458 27.821 85.5938 30.4152 84.4844 32.9326C83.614 34.9124 82.7094 36.952 81.7963 38.9488C80.8917 37.2251 80.081 35.4159 79.2874 33.6495C78.6474 32.2329 77.9903 30.7651 77.2905 29.357C77.0687 28.8877 76.8553 28.4183 76.642 27.9575C76.2409 27.0871 75.8228 26.1825 75.4046 25.3035C75.1401 24.7489 74.6536 24.4331 74.0648 24.4331C73.9966 24.4331 73.9197 24.4331 73.86 24.4502C73.237 24.5184 72.708 24.9025 72.452 25.4913C72.213 26.046 72.2728 26.6689 72.6141 27.1553C73.0237 28.0343 73.4419 28.9133 73.86 29.7752C74.1245 30.3299 74.3976 30.8845 74.6622 31.4392C75.1145 32.395 75.5667 33.3422 76.0105 34.298C76.4713 35.2708 76.9236 36.2351 77.3844 37.208C77.7684 38.0272 78.1695 38.8464 78.562 39.6657C79.0485 40.6726 79.5264 41.6796 80.0042 42.6866C80.0213 42.7207 80.0213 42.8061 80.0213 42.8317C79.4069 44.2568 78.7669 45.699 78.1439 47.0814C77.6575 48.1737 77.154 49.3172 76.6676 50.4266C76.4542 50.8874 76.4884 51.3653 76.77 51.7835C77.1113 52.2955 77.6063 52.5771 78.1268 52.5771C78.6474 52.5771 79.185 52.2699 79.5349 51.7323C80.209 50.6997 80.6869 49.5306 81.1307 48.3956C81.4464 47.6105 81.7707 46.7913 82.1633 46.0488L82.1803 46.0233C83.3153 43.429 84.51 40.8092 85.6791 38.2747C87.4712 34.3577 89.3145 30.3128 90.9785 26.2849V26.2593L90.9956 26.2337C91.098 25.8838 91.0126 25.5169 90.7822 25.2011C90.4409 24.7489 89.8094 24.4416 89.2035 24.4416L89.2121 24.4587ZM124.652 25.423C123.816 24.6464 122.69 24.2368 121.392 24.2368C119.413 24.2368 117.228 25.1926 115.829 26.6092C115.811 25.9692 115.709 25.3206 115.308 24.9025C115.035 24.6123 114.668 24.4758 114.207 24.4758H114.105C113.047 24.4758 112.432 25.0817 112.432 26.1398C112.407 31.5758 112.415 37.0629 112.432 42.6866C112.449 43.8472 113.303 44.3763 114.096 44.3763C114.6 44.3763 115.06 44.18 115.385 43.8301C115.683 43.4973 115.837 43.0535 115.811 42.5671C115.837 41.0908 115.829 39.5889 115.811 38.1467C115.794 35.9706 115.777 33.7177 115.897 31.5075C116.213 28.6061 119.088 27.582 121.674 27.582C122.16 27.582 122.655 27.6162 123.125 27.693H123.15C123.21 27.693 123.253 27.693 123.304 27.693C123.953 27.693 124.43 27.3772 124.738 26.7628L124.78 26.686V25.551L124.661 25.4401V25.423H124.652ZM107.124 41.1505C105.554 41.1505 103.984 41.1505 102.414 41.1505H97.5068C99.0172 39.0598 100.63 36.9946 102.192 34.9892C103.258 33.6239 104.359 32.2158 105.417 30.8077C106.305 29.6472 107.192 28.4866 108.071 27.326C108.532 26.7201 108.626 25.9692 108.336 25.2865C108.106 24.7318 107.585 24.4502 106.783 24.4502H100.34C97.959 24.4502 96.0134 24.4502 94.2384 24.4672C93.3594 24.4672 92.8047 24.6977 92.5572 25.8241C92.4719 26.2252 92.5743 26.686 92.8218 27.0615C93.0437 27.3858 93.3338 27.5991 93.6496 27.6588H93.6922C94.8869 27.7271 96.2096 27.7698 97.831 27.7698C98.6673 27.7698 99.5292 27.7698 100.357 27.7527C101.185 27.7527 102.038 27.7356 102.874 27.7356H103.762C102.55 29.357 101.287 30.9528 100.067 32.5059C98.9148 33.9652 97.7372 35.4757 96.5937 36.9861C96.2523 37.4299 95.9024 37.8821 95.5526 38.3259C94.7589 39.3499 93.9397 40.3996 93.1461 41.4577C92.6255 42.149 92.5316 42.8743 92.8815 43.5656C93.2826 44.3677 94.0592 44.3677 94.5797 44.3677H107.124C108.02 44.3677 108.643 43.685 108.643 42.7463C108.643 41.8076 108.063 41.1591 107.133 41.1591H107.116L107.124 41.1505Z" fill="black"/>
</svg>
