<svg width="203" height="64" viewBox="0 0 203 64" fill="none" xmlns="http://www.w3.org/2000/svg">
<path d="M95.9966 15.5046C95.9982 15.0596 96.4825 14.7847 96.8655 15.0113L101.4 17.6955C101.792 17.9275 101.772 18.5013 101.364 18.7054L96.8125 20.987C96.4289 21.1793 95.9774 20.8994 95.9789 20.4704L95.9966 15.5046Z" fill="#FC5185"/>
<path d="M24.9811 18.8461C25.5292 18.8863 26.0329 18.8907 26.5929 18.9616C31.9067 19.6346 36.1911 23.304 37.7187 28.4302C38.0801 29.643 38.1337 30.7456 38.2356 32.0108C37.6243 31.9612 36.5936 31.9844 35.9566 31.9837L31.9478 31.9812L27.6877 31.9809C26.8689 31.9813 25.7722 31.9605 24.9711 32.0239L24.9677 22.6621C24.9694 21.8638 24.9656 21.0656 24.9563 20.2673C24.9528 19.8926 24.9249 19.1919 24.9811 18.8461Z" fill="#FD5184"/>
<path d="M39.942 23.376C40.2419 23.4114 40.4815 23.5541 40.7637 23.6458C42.817 24.3131 44.7055 25.4339 46.5809 26.4836C47.2662 26.8672 48.4761 27.9885 49.1669 28.1403C49.2573 28.4318 49.1862 32.0018 49.1862 32.5886L49.1998 45.8246C49.1829 49.1309 48.2619 51.3933 45.871 53.7084C45.0394 54.5137 42.7565 55.7007 41.7105 55.8947C40.948 56.0364 38.4407 55.971 37.5641 55.971L28.7739 55.9639C28.8264 55.6056 28.8547 55.162 28.8178 54.81C28.6896 53.5856 27.8513 53.757 27.5 53.4713C27.3447 53.2206 27.3991 49.5381 27.3818 48.9221C27.8373 48.8636 28.4145 48.8541 28.8489 48.7503C32.8123 47.8035 36.6557 45.2605 39.0005 41.9117C39.3072 41.4349 39.7833 40.9343 40.0292 40.427C41.3182 37.7668 42.0916 35.492 42.1644 32.5331C42.2542 28.8857 41.5067 26.6164 39.942 23.376Z" fill="#3EC1C5"/>
<path d="M18.3002 8.02822C19.6166 7.9693 21.3501 8.02092 22.6929 8.02094L31.2882 8.01984L36.8608 8.01989C40.5565 8.02033 43.1098 7.88112 46.1088 10.6511C50.4504 14.6611 48.9281 20.3342 49.1965 25.5472C49.2403 26.3889 49.1221 27.3231 49.1673 28.14C48.4766 27.9882 47.2666 26.8669 46.5813 26.4833C44.7059 25.4336 42.8174 24.3128 40.7641 23.6455C40.482 23.5537 40.2423 23.4111 39.9425 23.3757C39.402 22.6182 38.8289 21.7324 38.2306 21.0359C35.8267 18.2376 33.071 16.4896 29.5754 15.502C25.2045 14.2937 20.5325 14.8716 16.5877 17.1084C16.4738 15.2184 17.0561 11.9828 17.5286 10.1266C17.6693 9.57381 18.0783 8.57318 18.3002 8.02822Z" fill="#FD5184"/>
<path d="M1 16.7568C1.09656 16.4849 1.23575 15.6418 1.34819 15.2623C1.88896 13.4376 2.45885 12.2793 3.81055 10.8931C4.34655 10.3435 4.63884 10.18 5.21691 9.75034C7.72759 7.88419 10.1476 8.03139 13.0852 8.03498C14.8233 8.04468 16.5614 8.04246 18.2994 8.02832C18.0776 8.57328 17.6686 9.57391 17.5279 10.1267C17.0554 11.9829 16.4731 15.2185 16.587 17.1085C15.767 17.6167 14.9537 18.172 14.1861 18.7574C13.7281 19.1066 13.3472 19.6036 12.9194 19.9691C11.9296 20.8151 11.2996 21.8472 10.6374 22.9496C10.4096 23.3261 10.0987 23.7132 9.87632 24.0996C9.22752 25.4438 8.63263 26.9192 8.30713 28.3759C8.09246 29.3364 7.89329 30.7388 7.90737 31.6971C7.88138 31.4724 7.87672 31.3158 7.87318 31.0896C7.40689 31.1344 4.68731 34.8509 4.2969 35.5182C3.73326 36.4818 2.93086 37.7119 2.40244 38.7214C1.91411 39.6542 1.49762 40.7118 1 41.6583V16.7568Z" fill="#36506B"/>
<path d="M1 41.6584C1.49762 40.712 1.91411 39.6544 2.40244 38.7215C2.93086 37.712 3.73326 36.4819 4.2969 35.5184C4.68731 34.851 7.40689 31.1345 7.87318 31.0897C7.87672 31.3159 7.88138 31.4726 7.90737 31.6973C7.92437 32.4126 7.93251 33.34 8.02047 34.0454C8.55056 38.0721 10.4563 41.7918 13.4147 44.5744C15.6125 46.6653 19.0828 48.4912 22.0853 48.8442C22.5092 48.8808 22.9398 48.9524 22.861 49.4975C22.813 49.8302 22.9074 53.2674 22.828 53.3353C21.8181 54.1978 21.3077 53.2945 21.2429 56.0001C20.1996 55.9412 18.924 55.9723 17.8649 55.9718L12.1716 55.9714C11.028 55.9732 9.35602 56.0787 8.29894 55.8461C7.24054 55.613 5.33352 54.611 4.52638 53.9287C2.84582 52.508 1.7657 50.8315 1.29089 48.681C1.20762 48.3038 1.11625 47.6821 1 47.3419V41.6584Z" fill="#3EC1C5"/>
<path d="M108.803 23.2903L112.261 29.8763L115.806 23.2903H121.165L115.708 32.7094L121.313 42.1286H115.978L112.261 35.6161L108.607 42.1286H103.21L108.803 32.7094L103.406 23.2903H108.803Z" fill="#36506B"/>
<path d="M95.0268 42.1286V23.2903H100.252V42.1286H95.0268Z" fill="#36506B"/>
<path d="M63.5254 42.1286V23.2903H68.5048V26.614H68.7255C69.118 25.5102 69.7721 24.6394 70.6879 24.0017C71.6036 23.3639 72.6992 23.045 73.9748 23.045C75.2666 23.045 76.3663 23.368 77.2739 24.0139C78.1815 24.6517 78.7865 25.5184 79.0891 26.614H79.2853C79.6696 25.5347 80.3646 24.6721 81.3703 24.0262C82.3841 23.3721 83.582 23.045 84.9638 23.045C86.7217 23.045 88.1484 23.6051 89.2441 24.7253C90.3479 25.8372 90.8998 27.4153 90.8998 29.4594V42.1286H85.6874V30.4896C85.6874 29.443 85.4094 28.6581 84.8534 28.1348C84.2974 27.6115 83.6024 27.3499 82.7684 27.3499C81.82 27.3499 81.08 27.6524 80.5485 28.2574C80.0171 28.8543 79.7513 29.6433 79.7513 30.6245V42.1286H74.6861V30.3792C74.6861 29.4553 74.4204 28.7194 73.8889 28.1716C73.3656 27.6238 72.6747 27.3499 71.8162 27.3499C71.2357 27.3499 70.7124 27.497 70.2463 27.7914C69.7885 28.0776 69.4246 28.4823 69.1548 29.0056C68.885 29.5207 68.7501 30.1257 68.7501 30.8207V42.1286H63.5254Z" fill="#36506B"/>
<path d="M125.101 49.1932V23.2905H127.898V26.2831H128.241C128.454 25.956 128.748 25.539 129.124 25.0321C129.508 24.517 130.056 24.0591 130.768 23.6585C131.487 23.2497 132.46 23.0453 133.686 23.0453C135.273 23.0453 136.671 23.4418 137.881 24.2349C139.091 25.028 140.035 26.1523 140.714 27.6077C141.393 29.063 141.732 30.7801 141.732 32.7588C141.732 34.7538 141.393 36.4831 140.714 37.9466C140.035 39.402 139.095 40.5304 137.893 41.3316C136.691 42.1248 135.305 42.5213 133.736 42.5213C132.525 42.5213 131.557 42.321 130.829 41.9203C130.101 41.5115 129.541 41.0496 129.149 40.5345C128.756 40.0112 128.454 39.5778 128.241 39.2344H127.996V49.1932H125.101ZM127.947 32.7097C127.947 34.1324 128.155 35.3874 128.572 36.4749C128.989 37.5542 129.598 38.4004 130.4 39.0137C131.201 39.6187 132.182 39.9212 133.343 39.9212C134.553 39.9212 135.563 39.6024 136.372 38.9646C137.19 38.3187 137.803 37.452 138.212 36.3645C138.629 35.2689 138.838 34.0506 138.838 32.7097C138.838 31.3851 138.633 30.1914 138.224 29.1285C137.824 28.0574 137.215 27.2111 136.397 26.5897C135.587 25.9601 134.57 25.6453 133.343 25.6453C132.166 25.6453 131.176 25.9438 130.375 26.5406C129.574 27.1293 128.969 27.9552 128.56 29.0181C128.151 30.0728 127.947 31.3034 127.947 32.7097Z" fill="#36506B"/>
<path d="M189.245 31.6795V17.0111H186.35V42.1288H189.245V35.0789L191.272 33.2007L198.32 42.1288H202L193.452 31.3388L201.411 23.2905H197.83L189.588 31.6795H189.245Z" fill="#36506B"/>
<path d="M174.147 42.5213C172.332 42.5213 170.766 42.1207 169.45 41.3194C168.142 40.5099 167.132 39.3816 166.42 37.9344C165.717 36.479 165.366 34.7865 165.366 32.8569C165.366 30.9272 165.717 29.2266 166.42 27.7548C167.132 26.2749 168.121 25.122 169.388 24.2962C170.664 23.4623 172.152 23.0453 173.853 23.0453C174.834 23.0453 175.803 23.2088 176.759 23.5358C177.716 23.8629 178.587 24.3944 179.372 25.1302C180.157 25.8579 180.782 26.8227 181.248 28.0246C181.714 29.2266 181.947 30.7065 181.947 32.4644V33.6909H168.26C168.26 35.1135 168.505 35.9271 168.996 36.9164C169.495 37.8976 170.186 38.6457 171.069 39.1608C171.952 39.6678 172.978 39.9212 174.147 39.9212C174.907 39.9212 175.594 39.8149 176.207 39.6023C176.829 39.3816 177.364 39.0545 177.814 38.6212C178.264 38.1797 178.611 37.6319 178.857 36.9777L181.653 37.7627C181.359 38.7111 180.864 39.5451 180.169 40.2646C179.474 40.976 178.615 41.532 177.593 41.9326C176.571 42.3251 175.423 42.5213 174.147 42.5213ZM168.935 28.7115C168.485 29.619 168.26 30.1505 168.26 31.1889H179.004C179.004 30.126 178.791 29.1775 178.366 28.3435C177.949 27.5095 177.352 26.8513 176.575 26.3689C175.807 25.8865 174.899 25.6453 173.853 25.6453C172.7 25.6453 171.702 25.9315 170.86 26.5038C170.026 27.068 169.384 27.8039 168.935 28.7115Z" fill="#36506B"/>
<path d="M149.348 41.3194C150.665 42.1207 152.23 42.5213 154.046 42.5213C155.321 42.5213 156.47 42.3251 157.492 41.9326C158.514 41.532 159.372 40.976 160.067 40.2646C160.762 39.5451 161.257 38.7111 161.551 37.7627L158.755 36.9777C158.51 37.6319 158.162 38.1797 157.713 38.6212C157.263 39.0545 156.727 39.3816 156.106 39.6023C155.493 39.8149 154.806 39.9212 154.046 39.9212C152.876 39.9212 151.85 39.6678 150.967 39.1608C150.084 38.6457 149.393 37.8976 148.894 36.9164C148.45 36.0194 148.206 34.9442 148.165 33.6909H161.846V32.4644C161.846 30.7065 161.613 29.2266 161.147 28.0246C160.681 26.8227 160.055 25.8579 159.27 25.1302C158.485 24.3944 157.614 23.8629 156.658 23.5358C155.701 23.2088 154.732 23.0453 153.751 23.0453C152.05 23.0453 150.562 23.4623 149.287 24.2962C148.02 25.122 147.03 26.2749 146.319 27.7548C145.616 29.2266 145.264 30.9272 145.264 32.8569C145.264 34.7865 145.616 36.479 146.319 37.9344C147.03 39.3816 148.04 40.5099 149.348 41.3194ZM148.172 31.1889C148.227 30.315 148.448 29.4892 148.833 28.7115C149.283 27.8039 149.925 27.068 150.759 26.5038C151.601 25.9315 152.598 25.6453 153.751 25.6453C154.798 25.6453 155.705 25.8865 156.474 26.3689C157.251 26.8513 157.848 27.5095 158.264 28.3435C158.69 29.1775 158.902 30.126 158.902 31.1889H148.172Z" fill="#36506B"/>
</svg>
