<svg width="168" height="64" viewBox="0 0 168 64" fill="none" xmlns="http://www.w3.org/2000/svg">
<path d="M22.502 43.4474C22.0146 42.7989 21.7155 42.2493 21.1395 41.4908C20.2312 41.5568 19.3673 41.5458 18.4479 41.5128L13.6849 41.3699C11.0819 41.293 9.12131 41.3699 6.91705 40.0509C5.61 39.2704 4.75709 38.1602 4.17003 36.7862C3.68265 35.643 3.33928 34.5658 3.20636 33.3127C2.91836 30.5647 2.8519 27.8497 3.53866 25.1676C4.02603 23.233 5.14478 21.5182 6.95028 20.6059C7.78103 20.1772 8.68932 19.8145 9.61976 19.6166C13.0092 18.9241 18.038 18.7702 21.5494 18.8692C26.8551 19.0231 30.9202 18.8252 33.2574 24.2553C33.5139 25.2292 33.4568 25.1127 33.5565 25.5084C33.8334 26.6186 33.9331 27.6628 33.911 28.817C33.8777 30.8945 33.8888 32.895 33.3903 34.9286C32.7257 37.6986 30.5547 39.776 27.7966 40.6224L27.7191 42.7879C27.6637 44.2058 27.4311 45.5249 27.3535 46.9649C27.2714 48.4899 26.556 48.0201 26.0576 47.5035C24.8724 46.1075 23.5985 44.8983 22.513 43.4364L22.502 43.4474ZM15.3464 36.9951C15.9999 37.2039 16.2156 36.7194 16.3563 35.8787C16.5003 34.5816 16.7753 33.2248 17.739 32.2685C18.5919 31.4221 21.0841 31.0923 20.8294 30.2789C20.3198 28.6631 17.9162 29.8063 16.9193 27.1132C16.6202 26.2888 16.4873 25.5633 16.6092 24.651C16.731 23.7386 16.5427 23.3429 16.0553 23.1011C15.5679 22.8593 14.8369 23.4748 14.7593 24.0684L14.4935 26.1459C14.4049 26.8604 14.1058 27.6738 13.6074 28.2014C12.6215 29.2457 10.2954 29.3226 10.3619 30.4108C10.3792 30.6941 10.517 30.8505 10.6499 30.9384C12.7766 32.4663 14.2941 31.1253 14.6597 34.6318C14.9499 36.7194 14.6929 36.7862 15.3464 36.9951ZM23.2552 37.7755C23.4324 37.2149 23.5432 36.7972 23.6539 36.3026C23.9973 34.8516 25.0607 35.2473 25.6367 34.6977C26.2126 34.1481 24.4404 33.8843 24.0305 33.3787C23.0779 32.1586 23.5764 30.8835 23.1555 30.5867C22.7346 30.2899 22.7789 30.5647 22.7567 30.6636C22.3801 32.0816 22.5906 33.0269 21.5383 33.5985L20.342 34.247C20.2534 34.302 20.1205 34.4889 20.1205 34.5878C20.1205 34.6867 20.2755 34.8406 20.3752 34.8846L21.793 35.3682C22.1143 35.4782 22.4355 36.0497 22.4355 36.3795L22.6016 37.5337C22.6238 38.1712 23.1666 38.0173 23.233 37.7975L23.2552 37.7755Z" fill="#E83608"/>
<path d="M150.871 16.0333C151.248 16.0333 151.458 16.0333 151.657 16.3109L154.391 23.95L156.992 31.5337L159.736 39.3949H154.358C154.358 39.3838 152.576 34.0763 152.576 34.0763L144.485 34.0319C144.297 34.1541 144.165 34.2873 144.032 34.465L142.338 39.3727H131.725L126.977 32.4219L125.649 33.9098L125.627 35.5975L125.604 39.3838H120.668L120.635 32.3775L120.746 16.0444L125.483 16.0111L125.627 24.5607L125.704 28.6357L127.42 26.6815L131.26 22.1513C131.337 22.0514 131.625 21.8737 131.747 21.8737L136.993 21.8515C136.805 22.3178 136.473 22.6065 136.13 22.9174L133.285 26.2817L130.618 29.4573L136.03 37.3185L136.982 38.7176L137.059 38.8397C137.081 38.873 137.225 38.8064 137.303 38.6065L143.025 22.2068L145.194 16.0111H150.86L150.871 16.0333ZM151.325 30.1568L149.92 25.8265L148.47 21.3407C147.994 22.3734 147.695 23.3282 147.352 24.3831L145.437 30.2124L151.336 30.1568H151.325Z" fill="#E83608"/>
<path d="M87.367 34.0652L85.4634 39.4171L80.2175 39.3616L81.2246 36.5857L82.0989 33.9209L87.0682 19.653L88.3963 16L94.7047 16.0222L96.2209 20.186L100.194 31.7002L102.861 39.3616L97.5048 39.3838L95.7008 34.1208L87.3449 34.0541L87.367 34.0652ZM89.99 30.2235C91.4841 30.1901 92.8786 30.1346 94.4834 30.2457L92.5466 24.2609C92.2145 23.2505 91.9268 22.3289 91.473 21.3629L91.0967 22.551L88.9718 28.9355L88.5512 30.2457L89.9789 30.2124L89.99 30.2235Z" fill="#E83608"/>
<path d="M47.8117 37.8515L50.1469 37.6627L50.1801 28.9577C50.1801 27.7474 49.671 25.8598 48.1437 25.6933C46.6164 25.5267 44.7571 26.0708 43.3737 27.1256C43.0306 27.381 42.8314 27.6252 42.8314 28.0805L42.931 37.5961L45.1666 37.8293L45.1223 39.3171L41.8796 39.3393H37.3309L37.4305 37.9181L39.9096 37.6405V28.6246L39.8542 26.4483L37.1317 26.415L37.1981 25.0159L41.4369 23.3949C41.5586 23.3504 41.9017 23.3949 42.0013 23.4504C42.1009 23.5059 42.2227 23.7724 42.2559 23.9611L42.7207 26.7592C44.2591 24.6939 46.3176 23.0951 48.8742 23.2061C50.8995 23.2949 52.5264 24.6051 52.958 26.7037C54.4853 24.6273 56.7874 22.9729 59.3771 23.2283C62.4649 23.4615 63.4389 26.093 63.4499 28.8355L63.5053 37.5961L65.8073 37.8515L65.7409 39.3504H62.5756L57.9605 39.3171L58.049 37.8737L60.4507 37.6627L60.4728 31.1561C60.4728 29.9681 60.5281 28.78 60.34 27.6586C60.1519 26.5371 59.1004 25.6044 57.8277 25.6377C56.1012 25.6933 54.4853 26.3373 53.1351 27.4698V37.5739C53.1462 37.5739 55.6031 37.8182 55.6031 37.8182V39.2616C55.6142 39.2616 47.8006 39.3393 47.8006 39.3393C47.7453 38.8286 47.7785 38.4066 47.8449 37.8293L47.8117 37.8515Z" fill="#E83608"/>
<path d="M117.525 37.4073C115.289 39.7391 111.825 39.9944 108.759 39.5392C105.904 39.1173 103.547 37.263 103.027 34.3428L107.885 34.0208C108.394 36.3192 111.073 36.5302 112.766 35.9417C113.585 35.653 114.171 34.8314 113.806 33.9986C113.441 33.1658 112.777 32.9549 112.058 32.8105L108.217 32.0222C106.712 31.7113 105.395 30.9896 104.388 29.8348C103.891 29.1747 103.834 28.8466 103.713 28.2804C103.215 25.8709 104.355 23.5725 106.623 22.5732C109.269 21.3962 112.312 21.2852 115.013 22.3733C117.082 23.2061 118.145 24.694 118.62 26.8147L114.171 27.1256C113.939 26.7814 113.795 26.3706 113.529 26.093C112.356 24.8938 110.408 24.7384 109.058 25.6933C108.247 26.3438 108.388 26.7272 108.388 27.0515C108.388 27.4761 108.726 27.8584 109.125 28.0361C110.884 28.8244 113.308 28.7134 116.175 29.9459C117.536 30.5343 118.665 31.678 118.941 33.177C119.218 34.6759 118.621 36.2637 117.525 37.3962V37.4073Z" fill="#E83608"/>
<path d="M80.8918 25.5711L79.785 28.2692L74.7936 40.7384C74.1407 42.3706 73.3217 43.8362 72.2039 45.1575C71.3517 46.179 70.1232 46.8341 68.8504 47.1339C66.969 47.5892 64.6006 46.4566 64.6116 45.3019C64.6116 44.6245 65.4859 43.7807 66.5373 43.7474C67.5887 43.7141 67.8876 43.814 68.3856 44.2803L69.7248 45.535C71.075 44.7356 72.7904 42.1485 73.0229 40.7051L67.4006 26.5482C67.2014 26.0486 66.969 25.5711 66.7366 25.127L64.8883 25.0715L64.9658 23.6502H67.1239C69.1382 23.6724 71.0418 23.6058 73.1003 23.6946L73.045 25.0604L70.1675 25.3713L73.7754 35.2311L74.683 37.7515C75.1035 36.5968 75.4134 35.6419 75.7676 34.5649L77.5384 29.1464L78.8664 25.2713L76.0332 25.0826L76.0553 23.7057L82.9392 23.6169L82.895 25.0604L81.4451 25.1714C81.2459 25.1825 80.9692 25.3824 80.9028 25.56L80.8918 25.5711Z" fill="#E83608"/>
<path d="M165.989 36.408L165.978 39.3615L161.186 39.3838L161.252 17.61L161.197 16.0777L166 16.0666L165.989 20.5635V36.408Z" fill="#E83608"/>
</svg>
