<svg width="154" height="64" viewBox="0 0 154 64" fill="none" xmlns="http://www.w3.org/2000/svg">
<path fill-rule="evenodd" clip-rule="evenodd" d="M119.494 13.3254L113.871 10.0812C113.684 9.97292 113.453 9.97292 113.266 10.0813L107.646 13.3254C107.458 13.4338 107.343 13.634 107.343 13.8507V19.6139C107.343 19.8437 107.472 20.0536 107.678 20.1564L110.195 21.4155C110.281 21.4584 110.374 21.4795 110.467 21.4795C110.578 21.4795 110.688 21.4492 110.786 21.389C110.965 21.2785 111.073 21.0833 111.073 20.8731V16.0052C111.073 15.7886 111.189 15.5884 111.376 15.4801L113.266 14.3894C113.453 14.2812 113.684 14.2811 113.872 14.3894L115.762 15.4801C115.95 15.5884 116.065 15.7887 116.065 16.0054V20.8731C116.065 21.0832 116.174 21.2785 116.353 21.389C116.532 21.4995 116.755 21.5094 116.943 21.4156L119.461 20.1565C119.667 20.0537 119.796 19.8437 119.796 19.6139V13.8507C119.796 13.6339 119.681 13.4337 119.494 13.3254Z" fill="#E31B5D"/>
<path fill-rule="evenodd" clip-rule="evenodd" d="M65.4995 15.5552H64.9798C64.4841 15.5552 64.0247 15.779 63.7194 16.1689L52.5388 30.4355L41.3631 16.1692C41.0577 15.779 40.5981 15.5552 40.1027 15.5552H39.5302C38.9145 15.5552 38.3635 15.8987 38.0924 16.4517C37.8214 17.0048 37.8872 17.6506 38.2646 18.1375L50.4055 33.8016V47.3615C50.4055 48.0482 50.9642 48.607 51.6509 48.607H52.8929C53.5795 48.607 54.1383 48.0482 54.1383 47.3615V33.9205L66.7498 18.1569C67.1378 17.672 67.2118 17.0228 66.9426 16.4628C66.6737 15.903 66.1207 15.5552 65.4995 15.5552Z" fill="#E31B5D"/>
<path fill-rule="evenodd" clip-rule="evenodd" d="M14.7383 15.6117C4.59797 15.6117 1 24.6019 1 32.3004V47.2412C1 48.1243 1.71827 48.8425 2.60124 48.8425H3.02955C3.91253 48.8425 4.63081 48.1243 4.63081 47.2412V32.3004C4.63081 25.988 7.28613 19.2426 14.7383 19.2426C22.1435 19.2426 24.7821 25.988 24.7821 32.3004V47.2412C24.7821 48.1243 25.5003 48.8425 26.3833 48.8425H26.8124C27.6953 48.8425 28.4135 48.1243 28.4135 47.2412V32.3004C28.4135 28.0205 27.3398 24.0541 25.3901 21.1318C22.9808 17.5206 19.2973 15.6117 14.7383 15.6117Z" fill="#E31B5D"/>
<path fill-rule="evenodd" clip-rule="evenodd" d="M142.012 29.8507C137.051 28.7283 134.876 27.941 134.876 25.1162C134.876 21.5132 138.035 19.8722 140.971 19.8722C143.852 19.8722 146.003 20.7561 147.738 22.6538C148.173 23.1299 148.912 23.191 149.42 22.7929L150.218 22.169C150.488 21.9573 150.659 21.639 150.689 21.2962C150.719 20.952 150.604 20.607 150.374 20.3497C147.934 17.6361 144.946 16.3722 140.971 16.3722C136.203 16.3722 131.376 19.3756 131.376 25.1162C131.376 31.0337 136.844 32.2705 141.238 33.264C146.854 34.5348 149.5 35.5676 149.5 39.5305C149.5 43.736 146.774 45.8681 141.397 45.8681C137.26 45.8681 134.724 44.508 132.916 41.3201C132.741 41.0136 132.445 40.794 132.102 40.7172C131.762 40.6421 131.402 40.713 131.116 40.9139L130.291 41.4952C129.76 41.8699 129.606 42.5787 129.933 43.1438C132.357 47.3322 136.107 49.3683 141.397 49.3683C148.771 49.3683 153 45.7824 153 39.5305C153 32.3372 146.65 30.9 142.012 29.8507Z" fill="#E31B5D"/>
<path fill-rule="evenodd" clip-rule="evenodd" d="M114.145 23.3984H113.003C112.317 23.3984 111.758 23.9572 111.758 24.6439V47.5959C111.758 48.2825 112.317 48.8414 113.003 48.8414H114.145C114.832 48.8414 115.39 48.2825 115.39 47.5959V24.6439C115.39 23.9572 114.832 23.3984 114.145 23.3984Z" fill="#E31B5D"/>
<path fill-rule="evenodd" clip-rule="evenodd" d="M89.8875 15.6117C85.3071 15.6117 81.6062 17.5203 79.1856 21.1309C77.2265 24.0531 76.1476 28.0199 76.1476 32.3004V47.2412C76.1476 48.1243 76.866 48.8425 77.749 48.8425H78.1781C79.0612 48.8425 79.7795 48.1243 79.7795 47.2412V32.3004C79.7795 25.988 82.4347 19.2426 89.8875 19.2426C92.7159 19.2426 95.01 20.2028 96.7047 22.0965C97.1396 22.5818 97.882 22.6468 98.3947 22.2452L99.2946 21.5415C99.5645 21.3306 99.737 21.0137 99.768 20.6722C99.7989 20.3296 99.6864 19.9855 99.4577 19.7283C97.0693 17.0351 93.7601 15.6117 89.8875 15.6117Z" fill="#E31B5D"/>
</svg>
