<svg width="134" height="40" viewBox="0 0 134 40" fill="none" xmlns="http://www.w3.org/2000/svg">
<g clip-path="url(#clip0_15940_29052)">
<path fill-rule="evenodd" clip-rule="evenodd" d="M0 19.9518C0 17.8877 1.66157 16.2141 3.71021 16.2141C5.75969 16.2141 7.42136 17.8877 7.42136 19.9518C7.42136 22.0168 5.75969 23.6905 3.71021 23.6905C1.66157 23.6905 0 22.0177 0 19.9518ZM26.0637 23.6905C24.0142 23.6905 22.3535 22.0168 22.3535 19.9518C22.3535 17.8877 24.0142 16.2141 26.0637 16.2141C28.1124 16.2141 29.7748 17.8877 29.7748 19.9518C29.7748 22.0168 28.1124 23.6905 26.0637 23.6905ZM26.0637 5C17.8675 5 11.2219 11.6946 11.2219 19.9518C11.2219 28.2109 17.8666 34.9047 26.0637 34.9047C34.2617 34.9047 40.9064 28.2109 40.9064 19.9518C40.9064 11.6954 34.2617 5 26.0637 5Z" fill="#111824"/>
<path fill-rule="evenodd" clip-rule="evenodd" d="M132.145 18.7958C132.38 18.7958 132.518 18.6898 132.518 18.498C132.518 18.3234 132.423 18.209 132.162 18.209H131.919V18.7956L132.145 18.7958ZM131.563 17.9125H132.222C132.587 17.9125 132.9 18.0614 132.9 18.4801C132.901 18.5833 132.871 18.6842 132.813 18.7701C132.756 18.8559 132.675 18.9227 132.579 18.9617L132.978 19.6885H132.579L132.274 19.0761H131.919V19.6885H131.563L131.563 17.9125ZM133.48 18.8216C133.48 18.0002 132.917 17.4136 132.189 17.4136C131.458 17.4136 130.903 18.0002 130.903 18.8216C130.903 19.6532 131.458 20.2208 132.189 20.2208C132.917 20.2208 133.48 19.6532 133.48 18.8216ZM130.555 18.8216C130.555 17.7981 131.293 17.0989 132.189 17.0989C133.091 17.0989 133.829 17.7981 133.829 18.8216C133.829 19.845 133.091 20.5451 132.189 20.5451C131.293 20.5451 130.555 19.845 130.555 18.8216ZM119.663 25.8163C119.77 25.8152 119.873 25.7721 119.949 25.6962C120.025 25.6203 120.068 25.5177 120.069 25.4104V23.9096C120.068 23.8026 120.026 23.7001 119.95 23.6242C119.875 23.5483 119.773 23.5049 119.666 23.5036H119.601C119.418 23.5036 119.237 23.3213 119.237 23.1372V14.2444C119.237 14.0416 119.035 13.8384 118.834 13.8384H117.35C117.149 13.8384 116.948 14.0413 116.948 14.2444V24.0962L116.954 24.3523C116.954 25.086 117.683 25.8187 118.41 25.8187L119.663 25.8163ZM54.3639 16.1872C56.3824 16.1872 58.0862 17.9098 58.0862 19.9524C58.0869 20.9409 57.6953 21.8893 56.9974 22.5893C56.2995 23.2893 55.3524 23.6836 54.3639 23.6859C52.3213 23.6859 50.6606 22.0131 50.6606 19.9524C50.6606 17.8763 52.3213 16.1872 54.3639 16.1872ZM54.3639 13.8161C51.0244 13.8161 48.3066 16.5681 48.3066 19.9524C48.3066 23.3754 50.9659 26.058 54.3639 26.058C57.7714 26.058 60.4402 23.3755 60.4402 19.9517C60.4402 16.5691 57.7138 13.8161 54.3639 13.8161ZM102.7 23.3849C102.591 23.699 101.931 24.2889 101.181 24.2889C100.393 24.2889 99.9533 23.809 99.9533 23.0891C99.9533 22.3323 100.484 21.8713 101.455 21.8713C102.133 21.8713 102.7 22.1294 102.7 22.1294V23.3849ZM101.711 17.092C100.338 17.092 99.0004 17.442 98.8172 17.516C98.6338 17.5709 98.4688 17.7188 98.5418 18.0328L98.7258 18.9927C98.7619 19.2508 98.927 19.4536 99.2014 19.3616C99.6968 19.2137 100.814 19.0476 101.584 19.0476C102.481 19.0476 102.792 19.5645 102.755 20.6534C102.755 20.6534 101.986 20.4134 101.125 20.4134C98.9821 20.4134 97.754 21.5762 97.754 23.089C97.754 24.9166 98.9271 26.0046 100.612 26.0046C101.104 26.0122 101.592 25.9214 102.048 25.7377C102.504 25.5539 102.919 25.281 103.269 24.9347V25.3931C103.269 25.6152 103.452 25.7991 103.672 25.7991H103.821C103.838 25.8018 103.855 25.8029 103.872 25.8023H104.496C104.603 25.801 104.705 25.7577 104.781 25.6818C104.856 25.6059 104.899 25.5033 104.899 25.3963V20.8011C104.899 18.4755 104.349 17.092 101.711 17.092ZM86.3336 17.092C84.7115 17.092 83.9246 17.9683 83.6098 18.3218V17.682C83.6091 17.575 83.5665 17.4725 83.4911 17.3966C83.4156 17.3207 83.3135 17.2774 83.2064 17.276H82.2483C82.1413 17.2772 82.039 17.3204 81.9635 17.3964C81.888 17.4723 81.8454 17.5749 81.845 17.682V25.3966C81.8488 25.5026 81.8924 25.6033 81.9672 25.6785C82.042 25.7538 82.1423 25.7981 82.2483 25.8025H83.6038C84.0072 25.8025 84.1353 25.7096 84.1353 25.3966V20.5244C84.3365 19.9336 84.868 19.1957 85.9672 19.1957C86.9923 19.1957 87.4319 19.8786 87.4319 20.9854V25.3966C87.4319 25.6176 87.6159 25.8025 87.8361 25.8025H89.3188C89.4248 25.7981 89.5252 25.7538 89.6 25.6785C89.6747 25.6033 89.7184 25.5026 89.7222 25.3966V20.9854C89.7222 18.9187 89.0255 17.092 86.3336 17.092ZM66.1638 23.9019C65.1008 23.9019 64.405 23.4219 64.405 23.4219V20.3756C64.5883 19.8957 65.1747 19.1948 66.2738 19.1948C67.5923 19.1948 68.27 20.3576 68.27 21.5565C68.27 22.7563 67.5571 23.9019 66.1638 23.9019ZM66.5852 17.092C64.8444 17.092 63.8795 18.2874 63.8219 18.3623V17.6829C63.8214 17.5757 63.7789 17.473 63.7034 17.3969C63.628 17.3208 63.5257 17.2774 63.4185 17.276H62.5181C62.4112 17.2776 62.3092 17.321 62.2339 17.3969C62.1587 17.4728 62.1162 17.5751 62.1155 17.682V28.8651C62.1191 28.9711 62.1626 29.0719 62.2372 29.1473C62.3118 29.2227 62.4121 29.2672 62.5181 29.2719H64.0025C64.2037 29.2719 64.405 29.0681 64.405 28.8651V25.6546C64.7894 25.8025 65.5961 26.0055 66.4381 26.0055C68.9666 26.0055 70.6335 24.0489 70.6335 21.5573C70.6335 18.9737 68.8927 17.092 66.5852 17.092ZM126.995 20.4685C126.959 19.6377 126.299 18.9918 125.365 18.9918C124.339 18.9918 123.679 19.6196 123.57 20.4685H126.995ZM125.421 17.0911C127.618 17.0911 129.303 18.7338 129.303 21.0405C129.303 21.1695 129.284 21.4644 129.267 21.5943C129.257 21.6962 129.211 21.7912 129.137 21.8621C129.063 21.9331 128.966 21.9753 128.864 21.9814H123.442C123.462 23.0332 124.321 23.956 125.549 23.956C126.391 23.956 126.977 23.642 127.362 23.3282C127.563 23.1621 127.784 23.1442 127.912 23.3282L128.626 24.288C128.772 24.4541 128.791 24.6578 128.589 24.8419C127.715 25.5997 126.595 26.013 125.438 26.0046C122.911 26.0046 121.152 23.975 121.152 21.5384C121.152 19.1398 122.911 17.0911 125.421 17.0911ZM111.084 23.9019C109.985 23.9019 109.398 23.2 109.215 22.7201V19.6756C109.215 19.6756 109.912 19.1957 110.974 19.1957C112.366 19.1957 113.081 20.3396 113.081 21.5393C113.081 22.7391 112.402 23.9019 111.084 23.9019ZM111.285 17.092C110.442 17.092 109.6 17.2948 109.215 17.461V14.2126C109.211 14.1066 109.168 14.0059 109.093 13.9306C109.018 13.8554 108.918 13.8111 108.812 13.8066H107.328C107.127 13.8066 106.926 14.0095 106.926 14.2126V25.3966C106.929 25.5025 106.973 25.603 107.047 25.6782C107.122 25.7535 107.222 25.7979 107.328 25.8025H107.97C107.983 25.8025 107.992 25.8025 108.006 25.7993H108.178C108.285 25.7984 108.388 25.7553 108.463 25.6793C108.539 25.6034 108.582 25.5006 108.583 25.3933V24.7629L108.593 24.7304C108.593 24.7304 109.564 26.0032 111.414 26.0032C113.723 26.0032 115.389 23.9736 115.389 21.538C115.389 19.0464 113.795 17.092 111.285 17.092ZM98.3242 13.8066H89.7083C89.6624 13.8069 89.6171 13.8161 89.5749 13.8338C89.5326 13.8516 89.4942 13.8775 89.462 13.9101C89.4297 13.9427 89.4041 13.9813 89.3868 14.0238C89.3694 14.0662 89.3607 14.1117 89.3609 14.1575V15.6712C89.3609 15.8552 89.5071 16.0213 89.7083 16.0213H92.8165V25.4517C92.8191 25.5435 92.8565 25.6308 92.9213 25.696C92.986 25.7612 93.0731 25.7993 93.1649 25.8025H94.8677C94.9597 25.7995 95.047 25.7615 95.1119 25.6963C95.1768 25.6311 95.2143 25.5436 95.2169 25.4517V16.0213H98.3242C98.3702 16.0212 98.4156 16.0119 98.458 15.9942C98.5003 15.9765 98.5389 15.9506 98.5713 15.918C98.6036 15.8854 98.6292 15.8468 98.6465 15.8043C98.6639 15.7618 98.6728 15.7162 98.6725 15.6703V14.1575C98.6728 14.1116 98.6639 14.0661 98.6465 14.0236C98.6292 13.9811 98.6036 13.9424 98.5713 13.9098C98.5389 13.8772 98.5003 13.8513 98.458 13.8336C98.4156 13.8159 98.3702 13.8068 98.3242 13.8066ZM77.8139 20.4685C77.7768 19.6377 77.1172 18.9918 76.1832 18.9918C75.1581 18.9918 74.4975 19.6196 74.3883 20.4685H77.8139ZM76.2383 17.0911C78.4366 17.0911 80.1214 18.7338 80.1214 21.0405C80.1214 21.1695 80.1052 21.4644 80.0853 21.5943C80.0749 21.6962 80.0286 21.791 79.9547 21.8619C79.8809 21.9328 79.7841 21.9752 79.6819 21.9814H74.2602C74.2797 23.0332 75.1392 23.956 76.3673 23.956C77.2101 23.956 77.795 23.642 78.1803 23.3282C78.3815 23.1621 78.6017 23.1442 78.7299 23.3282L79.4437 24.288C79.5906 24.4541 79.6089 24.6578 79.4077 24.8419C78.5336 25.5997 77.4133 26.013 76.2564 26.0046C73.7288 26.0046 71.9708 23.975 71.9708 21.5384C71.9708 19.1398 73.7287 17.0911 76.2383 17.0911Z" fill="black"/>
</g>
<defs>
<clipPath id="clip0_15940_29052">
<rect width="133.75" height="40" fill="white"/>
</clipPath>
</defs>
</svg>
