<svg width="240" height="64" viewBox="0 0 240 64" fill="none" xmlns="http://www.w3.org/2000/svg">
<path fill-rule="evenodd" clip-rule="evenodd" d="M0 31.9229C0 28.2366 2.96736 25.2477 6.62598 25.2477C10.2861 25.2477 13.2536 28.2366 13.2536 31.9229C13.2536 35.6106 10.2861 38.5996 6.62598 38.5996C2.96736 38.5996 0 35.6122 0 31.9229ZM46.5466 38.5996C42.8865 38.5996 39.9205 35.6106 39.9205 31.9229C39.9205 28.2366 42.8865 25.2477 46.5466 25.2477C50.2052 25.2477 53.1741 28.2366 53.1741 31.9229C53.1741 35.6106 50.2052 38.5996 46.5466 38.5996ZM46.5466 5.2207C31.9091 5.2207 20.0409 17.1764 20.0409 31.9229C20.0409 46.6725 31.9076 58.6268 46.5466 58.6268C61.1872 58.6268 73.0538 46.6725 73.0538 31.9229C73.0538 17.1779 61.1872 5.2207 46.5466 5.2207Z" fill="#DA3743"/>
<path fill-rule="evenodd" clip-rule="evenodd" d="M235.992 29.8573C236.411 29.8573 236.659 29.6679 236.659 29.3254C236.659 29.0137 236.49 28.8094 236.023 28.8094H235.588V29.8569L235.992 29.8573ZM234.952 28.2798H236.13C236.782 28.2798 237.341 28.5457 237.341 29.2935C237.342 29.4778 237.288 29.6581 237.186 29.8114C237.084 29.9647 236.938 30.084 236.768 30.1536L237.48 31.4515H236.768L236.223 30.3579H235.588V31.4515H234.953L234.952 28.2798ZM238.378 29.9033C238.378 28.4365 237.372 27.3889 236.071 27.3889C234.767 27.3889 233.774 28.4365 233.774 29.9033C233.774 31.3886 234.767 32.4021 236.071 32.4021C237.372 32.4021 238.378 31.3886 238.378 29.9033ZM233.154 29.9033C233.154 28.0756 234.472 26.8268 236.071 26.8268C237.682 26.8268 239 28.0756 239 29.9033C239 31.7311 237.682 32.9813 236.071 32.9813C234.472 32.9813 233.154 31.7311 233.154 29.9033ZM213.701 42.3951C213.893 42.3931 214.076 42.3161 214.212 42.1806C214.347 42.045 214.424 41.8618 214.426 41.6702V38.9899C214.425 38.7988 214.349 38.6158 214.214 38.4803C214.079 38.3447 213.897 38.2673 213.706 38.2648H213.59C213.265 38.2648 212.941 37.9392 212.941 37.6106V21.7291C212.941 21.3668 212.579 21.004 212.22 21.004H209.571C209.211 21.004 208.852 21.3664 208.852 21.7291V39.3232L208.864 39.7806C208.864 41.0908 210.164 42.3993 211.464 42.3993L213.701 42.3951ZM97.0851 25.1987C100.69 25.1987 103.733 28.275 103.733 31.9229C103.734 33.6882 103.035 35.3819 101.788 36.632C100.542 37.8821 98.8504 38.5864 97.0851 38.5904C93.4373 38.5904 90.4715 35.603 90.4715 31.9229C90.4715 28.2152 93.4373 25.1987 97.0851 25.1987ZM97.0851 20.9641C91.1211 20.9641 86.2676 25.879 86.2676 31.9229C86.2676 38.0359 91.0166 42.8267 97.0851 42.8267C103.171 42.8267 107.937 38.036 107.937 31.9215C107.937 25.8806 103.068 20.9641 97.0851 20.9641ZM183.408 38.0529C183.213 38.6137 182.035 39.6672 180.694 39.6672C179.287 39.6672 178.502 38.8102 178.502 37.5247C178.502 36.173 179.45 35.3497 181.184 35.3497C182.394 35.3497 183.408 35.8107 183.408 35.8107V38.0529ZM181.642 26.8146C179.189 26.8146 176.8 27.4396 176.473 27.5717C176.146 27.6698 175.851 27.9339 175.981 28.4947L176.31 30.2089C176.374 30.6698 176.669 31.0321 177.159 30.8678C178.044 30.6036 180.039 30.3071 181.414 30.3071C183.016 30.3071 183.572 31.2302 183.506 33.1747C183.506 33.1747 182.133 32.7462 180.595 32.7462C176.768 32.7462 174.574 34.8227 174.574 37.5245C174.574 40.7883 176.669 42.7313 179.678 42.7313C180.557 42.7448 181.429 42.5827 182.243 42.2546C183.058 41.9265 183.799 41.439 184.423 40.8207V41.6393C184.423 42.0358 184.75 42.3643 185.143 42.3643H185.409C185.44 42.3691 185.47 42.3711 185.501 42.3701H186.615C186.806 42.3677 186.989 42.2904 187.123 42.1549C187.258 42.0193 187.334 41.8361 187.335 41.645V33.4385C187.335 29.2854 186.352 26.8146 181.642 26.8146ZM154.179 26.8146C151.282 26.8146 149.877 28.3795 149.315 29.0108V27.8681C149.313 27.677 149.237 27.494 149.103 27.3584C148.968 27.2229 148.785 27.1456 148.594 27.1432H146.883C146.692 27.1452 146.509 27.2224 146.375 27.3581C146.24 27.4937 146.164 27.6769 146.163 27.8681V41.6455C146.17 41.8349 146.248 42.0146 146.381 42.149C146.515 42.2834 146.694 42.3625 146.883 42.3705H149.304C150.024 42.3705 150.253 42.2045 150.253 41.6455V32.9444C150.613 31.8892 151.562 30.5714 153.525 30.5714C155.355 30.5714 156.14 31.791 156.14 33.7677V41.6455C156.14 42.0403 156.469 42.3705 156.862 42.3705H159.51C159.7 42.3625 159.879 42.2834 160.012 42.149C160.146 42.0146 160.224 41.8349 160.231 41.6455V33.7677C160.231 30.0768 158.987 26.8146 154.179 26.8146ZM118.158 38.9761C116.26 38.9761 115.017 38.119 115.017 38.119V32.6787C115.345 31.8217 116.392 30.5698 118.355 30.5698C120.709 30.5698 121.92 32.6465 121.92 34.7876C121.92 36.9302 120.646 38.9761 118.158 38.9761ZM118.911 26.8146C115.802 26.8146 114.079 28.9494 113.976 29.0831V27.8697C113.975 27.6784 113.899 27.4949 113.764 27.359C113.63 27.2231 113.447 27.1456 113.256 27.1432H111.647C111.457 27.146 111.274 27.2235 111.14 27.359C111.006 27.4945 110.93 27.6773 110.929 27.8681V47.8399C110.935 48.0292 111.013 48.2092 111.146 48.3439C111.279 48.4785 111.458 48.558 111.647 48.5664H114.298C114.658 48.5664 115.017 48.2023 115.017 47.8399V42.1063C115.704 42.3705 117.144 42.7329 118.648 42.7329C123.164 42.7329 126.141 39.2386 126.141 34.789C126.141 30.175 123.032 26.8146 118.911 26.8146ZM226.795 32.8445C226.731 31.3608 225.552 30.2073 223.884 30.2073C222.052 30.2073 220.874 31.3285 220.679 32.8445H226.795ZM223.984 26.813C227.909 26.813 230.918 29.7466 230.918 33.866C230.918 34.0965 230.883 34.6232 230.853 34.8551C230.835 35.0371 230.752 35.2067 230.62 35.3334C230.488 35.4601 230.315 35.5356 230.133 35.5463H220.45C220.485 37.4248 222.02 39.0728 224.213 39.0728C225.717 39.0728 226.763 38.5121 227.451 37.9516C227.81 37.655 228.204 37.623 228.432 37.9516L229.707 39.6656C229.969 39.9623 230.002 40.3262 229.643 40.6549C228.082 42.0082 226.081 42.7464 224.015 42.7313C219.501 42.7313 216.36 39.1067 216.36 34.7553C216.36 30.4716 219.503 26.813 223.984 26.813ZM198.38 38.9761C196.417 38.9761 195.37 37.7227 195.043 36.8656V31.4285C195.043 31.4285 196.287 30.5714 198.184 30.5714C200.67 30.5714 201.947 32.6143 201.947 34.7569C201.947 36.8995 200.735 38.9761 198.38 38.9761ZM198.74 26.8146C197.234 26.8146 195.729 27.1768 195.043 27.4734V21.6722C195.036 21.4829 194.958 21.3031 194.824 21.1687C194.691 21.0343 194.511 20.9553 194.322 20.9473H191.673C191.313 20.9473 190.954 21.3095 190.954 21.6722V41.6455C190.961 41.8346 191.038 42.0141 191.171 42.1485C191.305 42.2828 191.484 42.3621 191.673 42.3705H192.819C192.842 42.3705 192.859 42.3704 192.883 42.3646H193.19C193.382 42.363 193.565 42.2861 193.7 42.1504C193.836 42.0148 193.912 41.8313 193.913 41.6397V40.5139L193.931 40.4557C193.931 40.4557 195.667 42.7289 198.969 42.7289C203.093 42.7289 206.069 39.1042 206.069 34.7544C206.069 30.3048 203.221 26.8146 198.74 26.8146ZM175.593 20.9473H160.206C160.124 20.9477 160.043 20.9641 159.968 20.9958C159.892 21.0275 159.824 21.0739 159.766 21.132C159.708 21.1902 159.663 21.2593 159.632 21.3351C159.601 21.4109 159.585 21.492 159.585 21.5739V24.2771C159.585 24.6057 159.847 24.9023 160.206 24.9023H165.757V41.7439C165.761 41.9078 165.828 42.0638 165.944 42.1802C166.059 42.2966 166.215 42.3647 166.379 42.3705H169.42C169.584 42.3651 169.74 42.2972 169.856 42.1807C169.972 42.0643 170.039 41.9081 170.044 41.7439V24.9023H175.593C175.675 24.9021 175.756 24.8856 175.832 24.854C175.907 24.8223 175.976 24.7761 176.034 24.7179C176.092 24.6597 176.137 24.5908 176.169 24.5149C176.2 24.439 176.215 24.3576 176.215 24.2755V21.5739C176.215 21.4919 176.2 21.4106 176.169 21.3347C176.137 21.2588 176.092 21.1897 176.034 21.1315C175.976 21.0733 175.907 21.0271 175.832 20.9955C175.756 20.9638 175.675 20.9475 175.593 20.9473ZM138.964 32.8445C138.898 31.3608 137.72 30.2073 136.052 30.2073C134.221 30.2073 133.041 31.3285 132.846 32.8445H138.964ZM136.15 26.813C140.076 26.813 143.085 29.7466 143.085 33.866C143.085 34.0965 143.056 34.6232 143.02 34.8551C143.002 35.037 142.919 35.2064 142.787 35.333C142.655 35.4596 142.483 35.5353 142.3 35.5463H132.617C132.652 37.4248 134.187 39.0728 136.38 39.0728C137.886 39.0728 138.93 38.5121 139.618 37.9516C139.978 37.655 140.371 37.623 140.6 37.9516L141.875 39.6656C142.137 39.9623 142.17 40.3262 141.81 40.6549C140.249 42.0082 138.248 42.7464 136.182 42.7313C131.668 42.7313 128.529 39.1067 128.529 34.7553C128.529 30.4716 131.668 26.813 136.15 26.813Z" fill="black"/>
</svg>
