<svg width="154" height="64" viewBox="0 0 154 64" fill="none" xmlns="http://www.w3.org/2000/svg">
<path d="M19.6953 10.405C15.196 11.9994 12.5096 15.8435 12.5533 20.583C12.5533 22.7453 12.8154 23.8374 13.7327 25.541C15.1087 28.162 18.3849 30.5426 20.9839 30.8483L22.0761 30.9794L22.4473 29.4286C23.2773 25.8686 25.7234 22.6798 28.8469 21.0635C30.2228 20.3427 30.8781 20.1243 32.9529 19.6875C33.6955 19.5346 33.7393 18.8794 33.1059 17.0666C32.1667 14.3146 30.2228 12.196 27.4708 10.8855C25.8982 10.1211 25.6361 10.0774 23.3865 10.0118C21.399 9.96817 20.7655 10.0337 19.6953 10.405Z" fill="url(#paint0_linear_16479_1520)"/>
<path d="M32.2988 21.6532C28.5857 22.4831 25.2659 25.6064 24.414 29.0791C23.868 31.2634 23.8243 31.0886 24.96 31.2634C27.5592 31.6564 30.3549 33.1853 32.2332 35.2384C33.4999 36.6145 35.0071 39.5629 35.2037 41.0264C35.422 42.5989 35.5094 42.6426 36.9728 42.3368C41.7559 41.3321 45.1195 37.095 45.1195 32.0715C45.1195 29.0136 44.3114 26.8951 42.3239 24.7765C39.8339 22.1118 35.8152 20.8451 32.2988 21.6532Z" fill="url(#paint1_linear_16479_1520)"/>
<path d="M7.87999 22.0464C3.57727 23.6626 1 27.3974 1 32.0279C1 35.0638 1.80813 37.1386 3.79567 39.2791C5.84876 41.4851 8.29497 42.5117 11.5493 42.5117C15.6336 42.5117 18.9972 40.546 20.8318 37.095C21.3998 36.0466 22.317 33.1417 22.1204 32.9888C22.0986 32.9671 21.356 32.7923 20.4606 32.5957C18.0144 32.0496 16.2015 31.0669 14.4324 29.2978C12.423 27.3101 11.3527 25.2134 10.7194 22.1338C10.6101 21.6314 10.5009 21.544 9.88938 21.5659C9.51808 21.5659 8.60076 21.7843 7.87999 22.0464Z" fill="url(#paint2_linear_16479_1520)"/>
<path d="M23.7155 34.3649C23.2786 36.6146 21.9464 39.0826 20.2426 40.7644C18.2769 42.6864 16.4205 43.6475 13.188 44.3464C12.4236 44.5212 12.3799 45.1763 13.0133 46.9892C14.1927 50.3963 17.0976 53.0391 20.6358 53.8692C21.3566 54.0438 22.5797 54.1094 23.8466 54.0438C25.5939 53.9565 26.0962 53.8255 27.5159 53.1484C30.2897 51.838 32.1461 49.7412 33.1073 46.8799C33.5222 45.6788 33.5658 45.089 33.5003 43.036C33.4347 40.7644 33.3912 40.546 32.6048 38.9735C31.2725 36.2433 28.6516 34.0374 26.0089 33.3821C23.781 32.8361 24.0212 32.7268 23.7155 34.3649Z" fill="url(#paint3_linear_16479_1520)"/>
<path d="M49.2998 54.0687V19.5132H54.3362V24.7362L53.7299 23.5237C54.6627 22.0936 55.9062 20.9744 57.4607 20.1661C59.0152 19.3578 60.7871 18.9536 62.777 18.9536C65.1708 18.9536 67.3159 19.5288 69.2123 20.6791C71.1399 21.8294 72.6477 23.3994 73.7359 25.3891C74.8549 27.3788 75.4146 29.6171 75.4146 32.1043C75.4146 34.5914 74.8549 36.8298 73.7359 38.8195C72.6477 40.8092 71.1554 42.3947 69.259 43.5761C67.3625 44.7264 65.2019 45.3015 62.777 45.3015C60.8182 45.3015 59.0307 44.8973 57.4141 44.089C55.8286 43.2807 54.6006 42.1149 53.7299 40.5915L54.5695 39.6123V54.0687H49.2998ZM62.2639 40.4051C63.7562 40.4051 65.0774 40.0475 66.2277 39.3324C67.378 38.6174 68.2797 37.6381 68.9325 36.3946C69.6165 35.1198 69.9585 33.6899 69.9585 32.1043C69.9585 30.5188 69.6165 29.1042 68.9325 27.8606C68.2797 26.6171 67.378 25.6377 66.2277 24.9227C65.0774 24.2077 63.7562 23.8501 62.2639 23.8501C60.8027 23.8501 59.4815 24.2077 58.3001 24.9227C57.1498 25.6377 56.2327 26.6171 55.5487 27.8606C54.8958 29.1042 54.5695 30.5188 54.5695 32.1043C54.5695 33.6899 54.8958 35.1198 55.5487 36.3946C56.2327 37.6381 57.1498 38.6174 58.3001 39.3324C59.4815 40.0475 60.8027 40.4051 62.2639 40.4051Z" fill="#180452"/>
<path d="M86.6958 45.3015C84.986 45.3015 83.4781 45.0063 82.1725 44.4155C80.8977 43.7938 79.9029 42.9543 79.1879 41.8974C78.4728 40.8092 78.1152 39.5346 78.1152 38.0734C78.1152 36.7055 78.4106 35.4774 79.0012 34.3894C79.6231 33.3012 80.5712 32.384 81.846 31.638C83.1206 30.8919 84.7217 30.3632 86.6492 30.0525L95.4162 28.6068V32.7571L87.6752 34.1095C86.2761 34.3581 85.2501 34.8091 84.5974 35.4618C83.9444 36.0837 83.618 36.892 83.618 37.8869C83.618 38.8506 83.9755 39.6434 84.6906 40.2652C85.4368 40.8558 86.3849 41.1512 87.5352 41.1512C88.9654 41.1512 90.2089 40.8403 91.266 40.2184C92.3541 39.5968 93.1935 38.7729 93.7841 37.7469C94.3749 36.6898 94.6701 35.524 94.6701 34.2494V27.7674C94.6701 26.5237 94.2038 25.5134 93.2712 24.7362C92.3697 23.9279 91.157 23.5237 89.6338 23.5237C88.2347 23.5237 87.0067 23.8968 85.9497 24.6429C84.9238 25.358 84.1621 26.2906 83.6646 27.441L79.2811 25.2491C79.7474 24.0056 80.5091 22.9175 81.5661 21.9848C82.6232 21.021 83.8512 20.2749 85.2501 19.7464C86.6803 19.2179 88.1881 18.9536 89.7737 18.9536C91.7633 18.9536 93.52 19.3267 95.0432 20.0728C96.5976 20.819 97.7945 21.8604 98.6341 23.1973C99.5045 24.503 99.9398 26.0263 99.9398 27.7674V44.742H94.9033V40.1718L95.9759 40.3118C95.3852 41.3377 94.6235 42.2238 93.6909 42.97C92.7893 43.716 91.7478 44.2912 90.5664 44.6954C89.4161 45.0995 88.126 45.3015 86.6958 45.3015Z" fill="#180452"/>
<path d="M104.701 44.7419V19.5132H109.737V24.5963L109.271 23.8501C109.831 22.2024 110.732 21.021 111.976 20.306C113.219 19.5598 114.712 19.1868 116.453 19.1868H117.992V23.99H115.8C114.059 23.99 112.644 24.5341 111.556 25.6222C110.499 26.6792 109.971 28.2026 109.971 30.1923V44.7419H104.701Z" fill="#180452"/>
<path d="M120.199 44.742V19.5132H125.469V44.742H120.199ZM122.834 16.0624C121.379 16.0624 120.199 14.8827 120.199 13.4276V12.6348C120.199 11.1796 121.379 10 122.834 10C124.289 10 125.469 11.1796 125.469 12.6348V13.4276C125.469 14.8827 124.289 16.0624 122.834 16.0624Z" fill="#180452"/>
<path d="M141.142 45.0219C138.499 45.0219 136.447 44.2757 134.986 42.7834C133.525 41.2911 132.795 39.1926 132.795 36.4879V24.2699H128.364V19.5133H129.064C130.245 19.5133 132.795 20.0935 132.795 19.057C132.795 18.0205 132.795 16.5479 132.795 15.3666V13.7307H138.064V19.5133H143.8V24.2699H138.064V36.2547C138.064 37.1253 138.204 37.8713 138.484 38.4931C138.764 39.0839 139.214 39.5502 139.836 39.8922C140.458 40.2029 141.266 40.3585 142.261 40.3585C142.51 40.3585 142.79 40.343 143.101 40.3119C143.411 40.2808 143.707 40.2497 143.987 40.2185V44.742C143.551 44.8042 143.069 44.8663 142.541 44.9286C142.012 44.9908 141.546 45.0219 141.142 45.0219Z" fill="#180452"/>
<path d="M147.73 44.742V19.5132H153V44.742H147.73ZM150.365 16.0624C148.91 16.0624 147.73 14.8827 147.73 13.4276V12.6348C147.73 11.1796 148.91 10 150.365 10C151.82 10 153 11.1796 153 12.6348V13.4276C153 14.8827 151.82 16.0624 150.365 16.0624Z" fill="#180452"/>
<defs>
<linearGradient id="paint0_linear_16479_1520" x1="23.0589" y1="10" x2="23.0589" y2="54.0687" gradientUnits="userSpaceOnUse">
<stop offset="0.114583" stop-color="#4E00CC"/>
<stop offset="0.869792" stop-color="#CF41E7"/>
</linearGradient>
<linearGradient id="paint1_linear_16479_1520" x1="23.0599" y1="9.99995" x2="23.0599" y2="54.0687" gradientUnits="userSpaceOnUse">
<stop offset="0.114583" stop-color="#4E00CC"/>
<stop offset="0.869792" stop-color="#CF41E7"/>
</linearGradient>
<linearGradient id="paint2_linear_16479_1520" x1="23.0596" y1="10" x2="23.0596" y2="54.0687" gradientUnits="userSpaceOnUse">
<stop offset="0.114583" stop-color="#4E00CC"/>
<stop offset="0.869792" stop-color="#CF41E7"/>
</linearGradient>
<linearGradient id="paint3_linear_16479_1520" x1="23.0602" y1="10.0001" x2="23.0602" y2="54.0688" gradientUnits="userSpaceOnUse">
<stop offset="0.114583" stop-color="#4E00CC"/>
<stop offset="0.869792" stop-color="#CF41E7"/>
</linearGradient>
</defs>
</svg>
