<svg width="190" height="64" viewBox="0 0 190 64" fill="none" xmlns="http://www.w3.org/2000/svg">
<path d="M29.2298 31.7103C29.2298 24.7962 23.6244 19.1908 16.7103 19.1908C9.79619 19.1908 4.19076 24.7962 4.19076 31.7103C4.19076 38.6244 9.79619 44.2298 16.7103 44.2298C23.6244 44.2298 29.2298 38.6244 29.2298 31.7103ZM32.4206 31.7103C32.4206 40.3866 25.3866 47.4206 16.7103 47.4206C8.03297 47.4206 1 40.3866 1 31.7103C1 23.033 8.0335 16 16.7103 16C25.3866 16 32.4206 23.0335 32.4206 31.7103Z" fill="#F06443"/>
<path d="M12.3334 25.3586C13.8678 22.7015 17.2628 21.7856 19.9262 23.31C23.0546 25.101 23.3987 29.48 20.5892 31.738L16.8009 34.7827C15.8441 35.552 15.9572 37.0418 17.0187 37.6577C17.2307 37.7806 17.4662 37.8577 17.7099 37.8838C17.9536 37.9099 18.2001 37.8845 18.4333 37.8093C18.6665 37.734 18.8814 37.6106 19.0639 37.447C19.2463 37.2834 19.3924 37.0833 19.4926 36.8596L20.3142 35.0236C20.8462 33.8343 21.711 32.8243 22.8042 32.1156C23.8974 31.4069 25.1724 31.0297 26.4753 31.0295H31.0768V34.2203H26.4753C25.7885 34.2206 25.1164 34.4194 24.5401 34.7929C23.9637 35.1665 23.5077 35.6987 23.2269 36.3254L22.4053 38.1625C21.2071 40.8401 17.9535 41.89 15.4163 40.4169C12.4177 38.6757 12.0993 34.468 14.802 32.2952L18.5903 29.2506C19.6476 28.4007 19.5177 26.7526 18.3405 26.0787C17.794 25.7658 17.1458 25.6823 16.5378 25.8464C15.9298 26.0106 15.4117 26.4089 15.0968 26.9543L6.57977 41.701L3.81738 40.1048L12.3334 25.3586Z" fill="#F06443"/>
<path d="M83.2686 25.2656H88.1855V28.9177H83.2686V38.5765C83.2686 40.5393 84.3608 41.561 85.9595 41.561C86.6499 41.561 87.4763 41.4576 88.1855 41.1578V45.0266C87.3063 45.259 86.4003 45.3742 85.4909 45.3693C81.7871 45.3693 79.0181 43.3272 79.0181 38.8121V28.9177H75.5864V25.2656H79.0181V19.3761H83.2686V25.2656ZM66.8876 24.9519C71.8789 24.9519 75.3105 27.7789 75.3105 32.7261V45.0543H71.1381V42.0321C70.0068 44.0339 67.5893 45.3693 64.9765 45.3693C61.0775 45.3693 58.3865 42.8951 58.3865 39.5188C58.3865 35.6311 61.3886 33.5512 67.4331 32.9226L71.1381 32.5295V32.2549C71.1381 29.821 69.4613 28.3282 66.8876 28.3282C64.7863 28.3282 63.2329 29.4317 62.7101 31.3126H58.7506C59.407 27.4702 62.7429 24.9519 66.8876 24.9519ZM67.394 36.1426C64.1967 36.4953 62.559 37.6733 62.559 39.4004C62.559 40.9714 63.8452 42.0712 65.8344 42.0712C69.1489 42.0712 71.0991 39.7544 71.1381 36.5344V35.7105L67.394 36.1426ZM145.02 24.9519C150.909 24.9519 155.16 29.2314 155.16 35.16C155.16 41.0885 150.909 45.3693 145.02 45.3693C139.092 45.3693 134.881 41.0885 134.881 35.16C134.881 29.2314 139.092 24.9519 145.02 24.9519ZM145.021 28.6822C141.511 28.6822 139.17 31.3516 139.17 35.16C139.17 38.9683 141.511 41.6391 145.021 41.6391C148.492 41.6391 150.87 38.9683 150.87 35.16C150.87 31.3516 148.49 28.6822 145.021 28.6822ZM49.4685 17.5708C54.8881 17.5708 58.3979 20.7908 58.3979 25.7771C58.3979 30.7633 54.8881 33.9833 49.4685 33.9833H43.3069V45.0556H38.7049V17.5708H49.4685ZM43.3069 29.9772H49.1561C52.041 29.9772 53.7568 28.4075 53.7568 25.7771C53.7568 23.1466 52.0423 21.5757 49.1561 21.5757H43.3069V29.9772ZM125.151 38.4064L132.839 25.2669H137.336L125.595 45.0556H121.362L121.376 33.0473L114.235 45.0556H109.956V25.2669H113.758V38.4064L121.525 25.258H125.151V38.4064ZM94.1217 28.6822C95.486 26.2079 97.7876 24.9519 100.555 24.9519C105.001 24.9519 107.926 27.7398 107.926 32.0584V45.0543H103.676V33.0398C103.676 30.4093 102.038 28.7993 99.3863 28.7993C96.1109 28.7993 94.1217 31.6666 94.1217 36.4953V45.0543H89.8711V17.5771H94.1217V28.6822ZM174.767 32.7261L182.877 25.2656H188.376L180.226 33.0801L189 45.0543H183.813L177.224 35.9461L174.767 38.2628V45.0543H170.477V17.5771H174.767V32.7261ZM167.004 24.9519C167.613 24.9519 168.299 25.0313 168.85 25.19V29.3839C168.161 29.0991 167.272 28.9568 166.42 28.9568C163.533 28.9568 160.999 31.5482 160.999 37.6733V45.0543H156.748V25.2656H160.999V29.0349C162.052 26.6791 164.626 24.9519 167.004 24.9519Z" fill="#F06443"/>
</svg>
