<svg width="188" height="64" viewBox="0 0 188 64" fill="none" xmlns="http://www.w3.org/2000/svg">
<path d="M63.1822 18.239C63.8465 18.1791 64.6422 18.203 65.2993 18.2681C72.6114 18.9936 75.5032 25.7939 74.8131 32.415C74.1282 38.9851 69.4412 43.5956 62.6831 43.0156C60.1419 42.7974 58.1269 41.7729 56.5231 39.8142L56.527 45.7792C56.5334 47.7956 56.5289 49.8121 56.5134 51.8285C54.9046 51.725 52.6026 51.7997 50.9199 51.7699L50.9208 18.7056L56.3633 18.7023C56.354 19.7812 56.3508 20.86 56.3534 21.9389C56.5365 21.6704 56.7335 21.4117 56.9436 21.1637C58.5929 19.2048 60.7025 18.4496 63.1822 18.239ZM64.0896 37.9946C65.3508 37.656 66.3247 37.2848 67.2386 36.3203C71.107 32.238 69.5345 22.8661 62.7625 23.2052C62.4279 23.2219 62.1074 23.2215 61.7736 23.2524C53.5172 24.79 55.3011 39.6456 64.0167 38.0086C64.041 38.004 64.0653 37.9994 64.0896 37.9946Z" fill="#232323"/>
<path d="M155.872 18.1137C162.781 17.4916 168.885 22.5904 169.498 29.4963C170.11 36.4021 164.999 42.4941 158.087 43.096C151.19 43.6965 145.109 38.6017 144.498 31.7101C143.887 24.8187 148.976 18.7346 155.872 18.1137ZM158.097 38.1127C159.251 37.8337 160.205 37.5226 161.109 36.7282C166 32.4292 163.598 21.9308 156.033 23.1639C147.628 24.2007 148.602 39.3273 157.991 38.1264L158.097 38.1127Z" fill="#232323"/>
<path d="M87.7515 18.0422C90.9964 17.6434 95.0009 18.9467 97.1739 21.4363C99.8577 24.5095 100.295 28.1917 100.076 32.0973L82.607 32.0869C83.0091 36.411 86.2272 38.9863 90.6356 38.2442C92.6315 37.9085 93.6174 36.8708 94.7281 35.2566C95.3473 35.4926 95.9626 35.7399 96.5721 35.9985C97.4593 36.3498 98.4616 36.7755 99.3682 37.0349C97.7253 40.5095 94.5849 42.6587 90.7951 43.1207C83.9169 43.9787 77.9257 39.4546 77.1204 32.5078C76.2721 25.1899 80.1992 18.9299 87.7515 18.0422ZM82.7602 28.0512C84.9656 28.0183 87.1713 28.0116 89.3768 28.0312C91.0237 28.0302 92.8724 27.9878 94.5026 28.0449C94.2182 24.3772 91.6688 22.4978 88.1247 22.6903C85.0849 23.0476 83.1253 25.0103 82.7602 28.0512Z" fill="#232323"/>
<path d="M115.527 18.1407C115.857 18.1014 116.189 18.0817 116.522 18.0821C118.834 18.067 120.873 18.622 122.55 20.2704C125.683 23.3481 125.128 28.163 125.127 32.1782L125.135 42.4929L119.529 42.4877L119.534 32.8991C119.535 30.8237 119.806 26.8573 118.737 25.1417C118.138 24.1945 117.185 23.5252 116.091 23.282C114.553 22.9353 113.109 23.1351 111.779 23.9799C109.053 26.0798 109.638 29.8437 109.638 32.9368L109.642 42.4972L104.036 42.4913C103.958 34.7634 103.915 26.4082 104.05 18.6962L109.495 18.6972C109.482 19.7547 109.493 20.8124 109.528 21.8695C110.976 19.6276 112.852 18.3937 115.527 18.1407Z" fill="#232323"/>
<path d="M132.504 11.426C134.144 11.3758 135.969 11.4132 137.624 11.4113C137.574 13.805 137.605 16.302 137.604 18.7038L142.542 18.6989C142.482 19.8197 142.475 22.6304 142.541 23.7285L137.606 23.7326L137.594 31.3179C137.592 35.6938 136.887 38.5623 142.571 37.595C142.576 38.5487 142.646 41.493 142.522 42.335C139.79 43.1947 135.806 42.9294 133.745 40.692C133.038 39.9175 132.539 38.9768 132.293 37.9575C131.891 36.2733 132.03 32.6363 132.032 30.7804C132.033 28.5623 131.974 25.9412 132.065 23.7418C130.669 23.6868 129.06 23.7209 127.658 23.7212C127.604 22.1436 127.653 20.3115 127.656 18.7146H127.922C133.262 18.7049 132.549 15.4894 132.504 11.426Z" fill="#232323"/>
<path d="M28.191 11.3447L35.3495 11.3297C30.7554 15.024 27.6582 17.4324 25.4837 23.4032C24.91 24.9786 24.566 26.8538 23.9827 28.3953C26.4097 26.5432 28.9274 24.4624 31.3573 22.5667C34.6368 20.0081 38.0554 17.4582 41.2801 14.8503C41.3453 16.4583 41.4964 18.7 41.2783 20.245C41.2143 20.6977 37.8925 23.1574 37.3528 23.579L30.7728 28.6928C26.573 31.9471 22.2305 35.4781 17.977 38.6202C19.3373 38.5114 20.7368 38.5285 22.1091 38.4415C25.8244 38.2057 28.6035 37.2548 31.8259 35.4783C33.4443 34.5945 35.5261 32.8805 37.0381 31.6996C38.3362 30.6858 40.0705 29.4065 41.276 28.3393C41.3792 30.4932 41.3791 32.0512 41.1095 34.1893C37.7241 36.5966 35.9442 38.5846 31.8877 40.4691C28.7768 41.9008 25.4214 42.7275 22.0009 42.9051C19.4407 43.0378 17.7561 42.9563 15.1609 43.5178C11.8622 44.2314 10.5865 45.1337 7.78002 46.6172C6.76173 45.7485 5.48444 44.3773 4.71857 43.2598C8.07269 40.2902 12.7028 37.5988 15.5148 34.081C16.6958 32.411 18.0365 30.6623 18.8545 28.7798C21.129 23.5454 23.3232 14.9441 28.191 11.3447Z" fill="#2863EC"/>
<path d="M19.8785 11.378C20.4329 11.3262 21.3718 11.3376 21.9551 11.3267C20.8142 13.5535 19.5699 15.2329 18.6239 17.6877C16.5024 23.1934 15.2443 28.4473 10.9424 32.7957C9.20016 34.5568 7.52581 35.9157 5.53829 37.4371C4.88387 37.9381 3.7019 38.8036 3.13474 39.3574C2.87426 39.5053 2.97425 39.488 2.6925 39.4881C2.0298 38.935 1.49417 36.0511 1.34075 35.1385C2.26722 34.1663 3.9571 33.0488 5.06818 32.0915C8.62285 28.9994 11.3254 25.0486 12.918 20.6162C13.6955 18.3971 14.9067 13.8859 16.2313 11.9839C17.257 11.6424 18.7986 11.4839 19.8785 11.378Z" fill="#2863EC"/>
<path d="M37.8446 42.4517L37.9106 42.5176C37.916 42.5639 37.9192 42.6611 37.8932 42.7017C32.936 50.4283 22.3349 53.8161 13.8695 50.3166L12.1569 49.5996C17.2475 46.9956 21.2501 47.1359 26.6822 46.8326C30.1853 46.637 35.0803 44.6258 37.8446 42.4517Z" fill="#2863EC"/>
<path d="M10.9324 14.1314C11.0211 14.1562 11.0167 14.187 11.0869 14.2814C9.84491 20.2302 6.40972 26.5422 1.27764 30.0229L1.08168 29.9793C0.842498 29.5511 1.19685 28.4675 1.2769 27.9847C2.28671 21.8943 5.69503 17.3396 10.9324 14.1314Z" fill="#2863EC"/>
<path d="M177.87 26.3068C178.674 26.2937 179.479 26.2982 180.284 26.3206C181.399 29.2445 182.77 32.6403 183.707 35.6131C183 35.6075 182.293 35.6068 181.586 35.611C181.423 35.2461 180.935 34.0082 180.763 33.7852L180.419 33.7476C179.345 33.7525 178.272 33.7397 177.199 33.7091C177.085 34.2427 176.815 35.0504 176.649 35.5941L174.404 35.6088C175.289 32.9002 176.826 29.0795 177.87 26.3068ZM177.899 31.8987L178.92 31.8626C179.341 31.8536 179.822 31.8557 180.238 31.8334C179.889 31.1203 179.332 28.9998 179.042 28.6952C178.685 29.7154 178.297 30.9112 177.899 31.8987Z" fill="#2863EC"/>
<path d="M184.861 26.312L186.968 26.2913C187.025 29.3153 186.993 32.6077 186.966 35.633C186.303 35.591 185.528 35.6113 184.854 35.6143L184.861 26.312Z" fill="#2863EC"/>
</svg>
