<?xml version="1.0" encoding="UTF-8" standalone="no"?>
<svg
   viewBox="0 0 232 64"
   fill="none"
   version="1.1"
   id="svg8"
   width="232"
   height="64"
   xmlns="http://www.w3.org/2000/svg"
   xmlns:svg="http://www.w3.org/2000/svg">
  <defs
     id="defs8" />
  <path
     d="m 84.0186,12.9995 c -2.4351,-1.36566 -5.1512,-2.04965 -8.1461,-2.04965 -2.9949,0 -5.84,0.66312 -8.2958,1.98936 -2.4558,1.32629 -4.3817,3.19509 -5.7801,5.60639 -1.3984,2.4114 -2.0964,5.1635 -2.0964,8.2589 V 51.5208 H 66.229 V 39.3041 c 0.7971,0.6492 1.6633,1.2173 2.6056,1.6972 2.177,1.106 4.6028,1.6578 7.2775,1.6578 2.9557,0 5.6304,-0.684 8.0263,-2.0496 2.3959,-1.3657 4.2711,-3.2646 5.6303,-5.6968 1.3569,-2.4323 2.0365,-5.1334 2.0365,-8.1082 0,-2.9748 -0.6888,-5.727 -2.0664,-8.1383 -1.3777,-2.4114 -3.2852,-4.2987 -5.7202,-5.6667 z m -1.4975,20.6773 c -1.7577,1.8086 -3.9739,2.7128 -6.6486,2.7128 -2.6746,0 -5.0222,-0.9042 -6.7984,-2.7128 -1.7761,-1.8085 -2.6654,-4.0993 -2.6654,-6.8723 0,-2.7731 0.887,-5.0639 2.6654,-6.8724 1.7762,-1.8085 4.0431,-2.7127 6.7984,-2.7127 2.7553,0 4.8909,0.9042 6.6486,2.7127 1.7555,1.8085 2.6355,4.0993 2.6355,6.8724 0,2.773 -0.8777,5.0638 -2.6355,6.8723 z"
     fill="currentColor"
     id="path1" />
  <path
     d="m 102.167,21.3789 h -6.5882 v 30.1419 h 6.5882 z"
     fill="currentColor"
     id="path2" />
  <path
     d="m 98.8731,10.04559 c -1.2786,0 -2.336,0.40112 -3.1745,1.20568 -0.8386,0.80456 -1.2579,1.82938 -1.2579,3.07443 0,1.2451 0.4193,2.27 1.2579,3.0745 0.8385,0.8046 1.8959,1.2057 3.1745,1.2057 1.2789,0 2.3359,-0.4011 3.1749,-1.2057 0.838,-0.8022 1.258,-1.827 1.258,-3.0745 0,-1.24737 -0.42,-2.26987 -1.258,-3.07443 -0.839,-0.80456 -1.896,-1.20568 -3.1749,-1.20568 z"
     fill="currentColor"
     id="path3" />
  <path
     d="m 129.63,22.6148 c -2.255,-1.3866 -4.86,-2.0798 -7.816,-2.0798 -2.956,0 -5.711,0.6724 -8.026,2.0195 -2.316,1.3471 -4.124,3.2159 -5.421,5.6064 -1.297,2.3905 -1.947,5.1357 -1.947,8.2287 0,3.093 0.668,5.9171 2.007,8.3493 1.336,2.4322 3.204,4.3103 5.6,5.6366 2.396,1.3262 5.091,1.9893 8.086,1.9893 3.435,0 6.389,-0.8741 8.865,-2.6223 2.477,-1.7483 4.292,-4.1295 5.451,-7.1437 h -6.828 c -1.638,2.6525 -4.193,3.9788 -7.667,3.9788 -2.716,0 -4.912,-0.9043 -6.589,-2.7128 -1.154,-1.2451 -1.91,-2.8125 -2.272,-4.7021 h 23.476 c 0.119,-0.844 0.179,-1.7691 0.179,-2.7731 0,-2.9748 -0.619,-5.6667 -1.857,-8.078 -1.239,-2.4114 -2.985,-4.3103 -5.241,-5.6968 z m -14.315,6.4805 c 1.656,-1.8085 3.824,-2.7128 6.499,-2.7128 2.675,0 4.693,0.9043 6.289,2.7128 1.122,1.2706 1.818,2.8171 2.092,4.6418 h -17.128 c 0.354,-1.8456 1.103,-3.3921 2.248,-4.6418 z"
     fill="currentColor"
     id="path4" />
  <path
     d="m 161.196,22.1905 c -2.057,-1.1037 -4.363,-1.6578 -6.918,-1.6578 -2.555,0 -4.911,0.5425 -6.948,1.6276 -2.036,1.0851 -3.633,2.6432 -4.792,4.672 -1.158,2.0288 -1.737,4.3706 -1.737,7.0231 l -0.06,17.6631 h 6.649 l 0.06,-17.5426 c 0,-2.089 0.62,-3.7978 1.857,-5.1241 1.237,-1.3262 2.896,-1.9893 4.971,-1.9893 2.076,0 3.642,0.6538 4.942,1.9592 1.297,1.3054 1.946,3.0234 1.946,5.1542 v 17.5426 h 6.649 V 33.8554 c 0,-2.6525 -0.59,-4.9827 -1.767,-6.9929 -1.179,-2.0103 -2.794,-3.5661 -4.852,-4.672 z"
     fill="currentColor"
     id="path5" />
  <path
     d="m 187.521,33.7371 -5.091,-0.6028 c -1.557,-0.16 -2.665,-0.5217 -3.324,-1.0851 -0.659,-0.5634 -0.989,-1.3471 -0.989,-2.3511 0,-1.1245 0.489,-1.9894 1.468,-2.5922 0.979,-0.6028 2.405,-0.9042 4.283,-0.9042 3.713,0 5.669,1.3471 5.87,4.039 h 6.349 c -0.039,-2.9748 -1.18,-5.3352 -3.414,-7.0834 -2.237,-1.7482 -5.131,-2.6223 -8.686,-2.6223 -3.794,0 -6.789,0.8439 -8.984,2.5319 -2.196,1.6879 -3.295,3.9787 -3.295,6.8723 0,2.5737 0.788,4.6419 2.366,6.2093 1.576,1.5674 3.822,2.5319 6.739,2.8936 l 5.57,0.6631 c 1.438,0.16 2.435,0.4916 2.995,0.9947 0.56,0.5031 0.839,1.215 0.839,2.1401 0,1.2057 -0.5,2.1516 -1.498,2.8333 -0.997,0.684 -2.455,1.0248 -4.372,1.0248 -2.157,0 -3.753,-0.3315 -4.792,-0.9946 -1.039,-0.6632 -1.597,-1.6787 -1.677,-3.0444 h -6.349 c 0.039,3.0536 1.188,5.4348 3.444,7.1437 2.255,1.7088 5.361,2.562 9.314,2.562 3.953,0 6.847,-0.8834 9.044,-2.6525 2.196,-1.7691 3.295,-4.0784 3.295,-6.9326 0,-5.305 -3.034,-8.3192 -9.105,-9.0426 z"
     fill="currentColor"
     id="path6" />
  <path
     d="m 229.178,28.3417 c -1.378,-2.4322 -3.285,-4.3404 -5.72,-5.7269 -2.436,-1.3866 -5.131,-2.0798 -8.087,-2.0798 -2.955,0 -5.651,0.6932 -8.086,2.0798 -2.435,1.3865 -4.342,3.2947 -5.72,5.7269 -1.378,2.4322 -2.066,5.1357 -2.066,8.1082 0,2.9724 0.688,5.6064 2.066,8.0177 1.378,2.4114 3.285,4.3196 5.72,5.727 2.435,1.4074 5.131,2.1285 8.086,2.1702 2.956,-0.0394 5.651,-0.7628 8.087,-2.1702 2.435,-1.4074 4.342,-3.3156 5.72,-5.727 1.377,-2.4113 2.066,-5.0847 2.066,-8.0177 0,-2.933 -0.689,-5.676 -2.066,-8.1082 z m -7.218,15.071 c -1.719,1.8294 -3.914,2.7429 -6.589,2.7429 -2.674,0 -4.872,-0.9135 -6.588,-2.7429 -1.717,-1.8294 -2.576,-4.1503 -2.576,-6.9628 0,-2.8125 0.859,-5.1937 2.576,-7.0231 1.716,-1.8293 3.914,-2.7429 6.588,-2.7429 2.675,0 4.87,0.9136 6.589,2.7429 1.716,1.8294 2.576,4.1689 2.576,7.0231 0,2.8542 -0.86,5.1334 -2.576,6.9628 z"
     fill="currentColor"
     id="path7" />
  <path
     d="m 48.365,21.0578 v 6.3109 L 36.8206,34.0126 V 24.1404 L 13.0056,10.44565 21.4614,5.57778 c 1.9028,-1.096138 4.2558,-1.096138 6.1655,0 L 45.2764,15.7367 h 0.007 c 1.9028,1.0961 3.0793,3.1289 3.0793,5.3211 z M 9.32536,12.58473 3.84209,15.7436 C 1.93234,16.8421 0.755859,18.8748 0.755859,21.0671 V 41.378 c 0,2.1992 1.176481,4.225 3.086231,5.3211 L 12.2979,51.567 V 24.1659 L 20.8674,19.2309 9.32304,12.58704 Z M 15.9619,40.3859 v 13.2878 l 5.4833,3.1589 c 1.9121,1.0961 4.2557,1.0961 6.1655,0 L 45.2602,46.6737 c 1.9121,-1.0962 3.0862,-3.1289 3.0862,-5.3211 V 31.6168 L 24.5337,45.3185 15.9596,40.3859 Z"
     fill="currentColor"
     id="path8" />
</svg>
