<svg width="150" height="64" viewBox="0 0 150 64" fill="none" xmlns="http://www.w3.org/2000/svg">
<path d="M78.9121 45.0778C79.0578 45.0676 79.2035 45.0596 79.3493 45.0538C79.8684 45.0347 80.2626 45.1681 80.6434 45.5342C81.0616 45.9359 81.3312 46.5396 81.3409 47.1199C81.3506 47.6936 81.1138 48.3319 80.7086 48.7406C80.2344 49.2192 79.8186 49.2029 79.1881 49.2051C78.8795 49.2058 78.5172 49.1848 78.2195 49.102C77.2334 48.8285 77.2183 47.7705 76.7972 47.0261L76.7705 46.9798C76.9778 46.7915 77.1264 46.3479 77.2898 46.0975C77.7202 45.4377 78.1633 45.2404 78.9121 45.0778Z" fill="#111824"/>
<path d="M85.6583 25.1996C85.949 25.1842 86.2432 25.19 86.5344 25.1871C86.5498 25.216 86.5646 25.2443 86.5773 25.2745C86.7381 25.6547 86.7093 31.4549 86.5877 31.7415C87.6655 31.8293 88.7694 31.795 89.8521 31.8412C89.904 31.9452 89.9492 32.054 89.9663 32.1698C90.0373 32.6446 90.0679 33.5646 89.7805 33.9639C88.7205 33.9144 87.66 33.8922 86.5989 33.8974C86.6154 33.9236 86.6335 33.9537 86.6432 33.983C86.7297 34.248 86.6877 45.3328 86.6516 46.5611C86.6487 46.6604 86.6179 46.7494 86.5784 46.8394C87.3623 46.9185 88.1655 46.9035 88.9535 46.93C89.1841 47.1978 89.3131 47.7715 89.3338 48.1212C89.3499 48.393 89.2464 48.6478 89.0665 48.8491C88.7553 49.1969 88.2842 49.155 87.8571 49.1715C87.083 49.2475 86.0721 49.2378 85.3303 48.9753C84.9073 48.8258 84.5119 48.565 84.3148 48.1494C84.1252 47.7495 84.0422 47.3024 84.0034 46.8643C83.9025 45.7255 83.9701 44.5263 83.9721 43.3808L83.997 36.7039C83.9997 35.9385 84.1609 34.6279 83.834 33.9408C82.9542 33.841 82.0292 33.9311 81.1383 33.8883C81.1973 33.741 81.087 32.1007 81.0137 31.8991C81.9548 31.8357 82.8989 31.837 83.8395 31.7701C83.879 31.7152 83.9116 31.6562 83.9296 31.5906C84.0959 30.9929 84.0629 25.7862 83.858 25.4081C84.456 25.2943 85.0524 25.2466 85.6583 25.1996Z" fill="#111824"/>
<path d="M121.172 31.1987C123.444 31.2038 125.545 31.7022 127.393 33.1051C127.947 33.5262 129.185 34.4472 129.264 35.1531C129.287 35.3519 129.215 35.5281 129.092 35.6808C128.794 36.0499 127.999 36.5307 127.528 36.5793C127.173 36.5203 126.379 35.5024 126.03 35.2213C124.456 33.9559 122.287 33.6471 120.332 33.8645C118.574 34.0598 117.156 34.8956 116.061 36.2778C114.938 37.6951 114.674 39.4103 114.885 41.1687C115.101 42.9656 115.869 44.391 117.304 45.5073C118.788 46.6625 120.608 47.0706 122.459 46.8325C124.726 46.541 125.371 45.1179 127.186 44.1826C127.43 44.0571 127.675 44.0408 127.934 44.1337C128.307 44.2676 129.168 44.9358 129.345 45.3016C129.266 45.5538 129.095 45.7782 128.926 45.9776C127.179 48.0357 125.012 48.9404 122.362 49.1485C119.706 49.3571 117.239 48.8602 115.169 47.0801C113.376 45.5384 112.364 43.3935 112.193 41.0495C112.01 38.537 112.745 36.2228 114.405 34.3146C116.134 32.3276 118.588 31.3764 121.172 31.1987Z" fill="#111824"/>
<path d="M133.017 25.4202C133.86 25.2279 134.601 25.1262 135.462 25.2559C135.487 25.29 135.487 25.2887 135.512 25.3302C135.599 25.4758 135.609 25.6678 135.613 25.8334C135.647 27.3386 135.571 28.8586 135.575 30.3664C135.578 31.1925 135.756 33.7032 135.6 34.2994C136.125 34.0406 136.486 33.3836 136.914 32.9841C137.377 32.5525 138.047 32.1748 138.613 31.9017C140.242 31.1161 142.01 30.9727 143.725 31.5733C145.009 32.0228 146.402 33.063 146.992 34.3179C147.693 35.808 147.886 37.1718 147.992 38.8718C148.049 39.8005 147.765 48.6711 148.001 48.6552C147.826 48.667 145.887 48.6552 145.431 48.6552C145.431 48.6552 145.431 39.2556 145.35 38.2765C145.296 37.621 145.207 36.9597 144.98 36.339C144.63 35.379 144.032 34.4395 143.076 33.9981C141.972 33.488 140.424 33.646 139.314 34.0589C137.846 34.6053 136.656 35.9783 136.149 37.4411C135.479 39.3735 135.566 44.2724 135.589 46.4777C135.595 47.0913 135.589 47.9505 135.492 48.6504C135.315 48.6504 133.13 48.6552 133.132 48.6504C133.132 48.6504 133.204 27.8321 133.115 25.8815C133.108 25.7147 133.08 25.5753 133.017 25.4202Z" fill="#111824"/>
<path fill-rule="evenodd" clip-rule="evenodd" d="M106.337 33.2228C104.407 31.6204 101.886 31.0524 99.427 31.2722C96.887 31.7851 94.7588 33.0147 93.307 35.1977C91.9508 37.2367 91.6224 39.9124 92.1094 42.2872C92.5723 44.544 93.8783 46.6796 95.8195 47.9499C97.8985 49.3104 100.914 49.4548 103.306 48.9492C105.495 48.4864 107.062 46.9884 108.247 45.1556C108.27 45.1204 108.295 45.0821 108.323 45.0414C108.476 44.8151 108.679 44.5152 108.656 44.2744C108.618 43.9526 108.344 43.6692 108.097 43.4785C107.78 43.2333 107.321 43.0204 106.913 43.0853C106.577 43.1391 106.369 43.4417 106.187 43.7075C106.171 43.7304 106.155 43.753 106.14 43.7751C105.34 44.9251 104.441 45.8448 103.125 46.4279C101.708 47.056 99.7752 47.0571 98.3397 46.4924C96.807 45.8894 95.8261 44.8913 95.1766 43.3855C95.0559 43.1057 94.9224 42.5196 94.7955 41.9624C94.6635 41.3829 94.5387 40.8347 94.4428 40.6951C97.3129 40.6525 100.183 40.6356 103.054 40.6444C103.684 40.6477 104.316 40.6587 104.949 40.6697C106.158 40.6906 107.369 40.7117 108.571 40.679C108.603 40.6781 108.636 40.6775 108.669 40.6769C108.91 40.6721 109.173 40.6669 109.389 40.5665C109.536 40.3916 109.539 40.2165 109.522 39.9965C109.493 39.615 109.389 39.2208 109.29 38.841C109.264 38.7419 109.238 38.6438 109.214 38.5471C108.719 36.5586 107.956 34.5663 106.337 33.2228ZM104.407 34.9793C103.015 33.9759 101.364 33.6821 99.6841 33.8748C97.9022 34.1626 97.1267 34.534 96.0268 36.0602C95.7293 36.4732 94.9006 37.6563 95.0085 38.173C95.0338 38.2939 95.057 38.313 95.1419 38.3829C95.1457 38.3861 95.1497 38.3894 95.1538 38.3928C95.7475 38.4418 96.3551 38.428 96.9575 38.4143C97.1828 38.4091 97.4075 38.404 97.6304 38.4022L101.589 38.3969L104.575 38.4002C104.738 38.4013 104.903 38.4073 105.07 38.4134C105.504 38.4291 105.948 38.4452 106.363 38.3767C106.451 38.2588 106.439 38.1833 106.42 38.049C106.418 38.0386 106.416 38.0278 106.415 38.0166C106.252 36.8694 105.326 35.6424 104.407 34.9793Z" fill="#111824"/>
<path fill-rule="evenodd" clip-rule="evenodd" d="M0.00651218 29.6517C0.00433416 29.6565 0.00215854 29.6613 0 29.6661V33.5205C0.237049 34.0319 0.327242 34.6618 0.415489 35.278C0.467823 35.6435 0.519473 36.0042 0.600664 36.3325C1.33152 39.2881 3.00107 42.1682 5.18929 44.2807C5.29353 44.3825 5.39901 44.4829 5.50575 44.5822C5.6125 44.6813 5.72046 44.7791 5.82966 44.8756C5.93885 44.972 6.04924 45.0671 6.16081 45.1608C6.27238 45.2544 6.38511 45.3467 6.49898 45.4374C6.61288 45.5283 6.72789 45.6177 6.84401 45.7056C6.96013 45.7936 7.07734 45.8801 7.19564 45.9653C7.31392 46.0503 7.43326 46.1338 7.55364 46.2157C7.67404 46.2978 7.79543 46.3783 7.91782 46.4573C8.04023 46.5363 8.1636 46.6138 8.28793 46.6897C8.41228 46.7656 8.53755 46.8399 8.66375 46.9128C8.78996 46.9856 8.91706 47.0567 9.04505 47.1262C9.17304 47.1958 9.30187 47.2638 9.43157 47.3301C9.56124 47.3965 9.69174 47.4612 9.82306 47.5244C9.95437 47.5874 10.0864 47.6488 10.2193 47.7087C10.3521 47.7685 10.4857 47.8265 10.62 47.8829C10.7543 47.9393 10.8893 47.9941 11.025 48.0472C11.1607 48.1002 11.297 48.1515 11.4339 48.2012C11.5709 48.2508 11.7085 48.2986 11.8466 48.3448C11.9848 48.391 12.1235 48.4355 12.2628 48.4782C12.4021 48.5208 12.5418 48.5617 12.6821 48.6009C12.8224 48.6401 12.9632 48.6775 13.1045 48.7132C13.2457 48.7489 13.3874 48.7828 13.5294 48.815C13.6715 48.8471 13.814 48.8774 13.9568 48.9059C14.0997 48.9346 14.2429 48.9613 14.3864 48.9863C14.5299 49.0113 14.6737 49.0344 14.8178 49.0557C14.9619 49.0771 15.1063 49.0966 15.2508 49.1143C15.3954 49.132 15.5402 49.148 15.6852 49.1621C15.8302 49.1762 15.9753 49.1885 16.1206 49.1991C16.2659 49.2095 16.4113 49.2181 16.5568 49.225C16.7023 49.2318 16.8479 49.2368 16.9935 49.24C17.1392 49.2431 17.2848 49.2444 17.4305 49.244C17.5762 49.2435 17.7218 49.2413 17.8674 49.2372C21.6491 49.164 25.8734 47.9611 28.5548 45.174C29.3949 45.6017 30.1448 46.1978 30.8954 46.7945C31.9189 47.608 32.9436 48.4226 34.1999 48.8125C35.7821 49.3035 38.3602 49.3092 39.8327 48.5251C40.6813 48.0734 41.47 47.4112 42.0809 46.6707C43.2449 45.2597 45.4917 40.8095 46.0284 39.0655C46.7952 38.9544 47.6005 38.9722 48.3938 38.9897C48.7178 38.9969 49.0397 39.004 49.3562 39.0023C51.7918 38.9842 54.2274 38.9831 56.6631 38.9989C56.9307 38.9998 57.2065 39.0068 57.4862 39.0139C58.3192 39.0351 59.1859 39.0572 59.9693 38.919C60.0103 38.7941 60.0129 38.6803 59.9891 38.5525C59.8898 38.0158 57.8409 33.7372 57.4885 33.1353C57.3987 32.9818 57.2996 32.8618 57.1518 32.7598C56.6802 32.6642 56.0851 32.6885 55.5359 32.7109C55.3126 32.7201 55.0969 32.7289 54.9001 32.7292C54.5124 32.7298 54.1242 32.7324 53.7356 32.7349C52.2878 32.7444 50.8355 32.754 49.3935 32.6631C49.5758 32.1687 49.8259 31.6828 50.0737 31.2015C50.1983 30.9595 50.3223 30.7186 50.4367 30.4784C51.2475 28.7473 52.0835 27.0285 52.9446 25.3218C53.1123 24.9876 53.2725 24.6374 53.4341 24.2841C53.777 23.5343 54.1264 22.7703 54.5686 22.1147C55.2175 23.0708 55.7322 24.1786 56.2344 25.2597C56.4153 25.6492 56.5946 26.0353 56.778 26.4095L60.2056 33.3813C61.4328 35.9308 62.7084 38.4555 63.984 40.9801C65.1499 43.2877 66.3158 45.5951 67.4444 47.921C67.4768 47.9877 67.52 48.0682 67.5675 48.1568C67.7422 48.4822 67.9761 48.918 67.9529 49.1898C68.8251 49.342 73.5562 49.3574 74.4279 49.2268C74.4474 49.2239 74.4657 49.2213 74.483 49.2189C74.6236 49.1994 74.6981 49.1891 74.7942 49.0596C74.799 48.9993 74.7981 48.9405 74.7852 48.881C74.7209 48.5861 74.4405 48.1253 74.1943 47.7207C74.0751 47.5248 73.9638 47.342 73.889 47.1975C73.3174 46.0714 72.7561 44.9401 72.2051 43.8037C69.1358 37.4154 66.0002 31.0599 62.7983 24.737L60.3979 19.9324C60.2776 19.6902 60.1589 19.446 60.04 19.2014C59.6821 18.4649 59.3223 17.7245 58.91 17.0225C58.4772 16.2859 58.016 15.7288 57.2824 15.2843C57.2097 15.2402 57.1359 15.1979 57.0611 15.1575C56.9863 15.1171 56.9106 15.0786 56.8338 15.042C56.7571 15.0054 56.6795 14.9707 56.601 14.938C56.5226 14.9053 56.4434 14.8746 56.3633 14.8458C56.2833 14.817 56.2026 14.7903 56.1213 14.7656C56.04 14.7408 55.958 14.7182 55.8755 14.6975C55.7931 14.6769 55.7103 14.6583 55.6269 14.6419C55.5435 14.6254 55.4597 14.611 55.3756 14.5987C55.2914 14.5864 55.207 14.5763 55.1223 14.5682C55.0377 14.5601 54.9529 14.5542 54.8679 14.5504C54.7831 14.5465 54.6981 14.5448 54.6131 14.5453C54.5281 14.5457 54.4432 14.5482 54.3583 14.5529C54.2734 14.5576 54.1887 14.5644 54.1041 14.5733C54.0196 14.5822 53.9353 14.5933 53.8513 14.6064C53.7673 14.6195 53.6837 14.6347 53.6005 14.652C53.5172 14.6694 53.4345 14.6888 53.3522 14.7102C52.3414 14.9657 51.3547 15.4766 50.6748 16.2817C49.8254 17.2875 48.888 19.2856 48.1291 20.9032C47.8963 21.3994 47.6803 21.8599 47.4888 22.2448L40.3721 36.529C39.6622 37.9977 38.9622 39.4711 38.2723 40.9494C38.1822 41.139 38.0944 41.3367 38.0057 41.5364C37.7982 42.0038 37.5855 42.4827 37.3262 42.8969C37.2244 43.0595 37.1614 43.0916 36.9786 43.1355C35.955 42.9399 33.6403 41.0943 32.7996 40.3543C32.9256 40.0427 33.0761 39.7399 33.2268 39.4366C33.3658 39.1569 33.505 38.8769 33.6253 38.5893C35.3517 34.4623 35.4484 29.2091 33.7422 25.0642C31.8843 20.5503 28.418 17.1905 23.9295 15.3272C19.7489 13.5917 14.9417 13.7209 10.7815 15.4477C7.41392 16.8454 5.03035 18.7807 3.0022 21.822C2.19908 23.0264 1.51496 24.2898 1.04335 25.6613C1.02822 25.7053 1.01302 25.7494 0.997777 25.7936C0.799079 26.3701 0.593613 26.9663 0.462154 27.5582C0.412957 27.7798 0.376577 28.0196 0.339593 28.2633C0.268262 28.7334 0.194689 29.2183 0.0225982 29.6157C0.0173724 29.6278 0.0119349 29.6398 0.00651218 29.6517ZM22.0498 21.232C20.2945 20.4496 18.0987 20.1116 16.1832 20.3476C13.1546 20.7655 10.5732 22.0685 8.70058 24.5375C6.75209 27.1066 5.84112 30.0909 6.28933 33.3154C6.70388 36.298 8.20734 38.9187 10.6162 40.7385C13.0821 42.6015 16.0058 43.3849 19.0774 42.9499C20.5464 42.7418 22.3951 42.2029 23.5697 41.2684C23.3032 40.9904 23.0422 40.7482 22.7283 40.5242C22.4655 40.3402 22.1893 40.1554 21.9079 39.9671C20.8441 39.2553 19.7071 38.4945 18.9454 37.5455C19.842 36.4402 20.7081 35.3115 21.5438 34.1595C21.677 33.9788 21.8057 33.7911 21.9347 33.6029C22.1526 33.285 22.3714 32.9658 22.6145 32.6769C22.7842 32.8112 23.0247 33.0056 23.3103 33.2365C24.613 34.2899 26.854 36.1019 27.6 36.4209C27.7879 36.352 27.8634 36.2743 27.9508 36.0897C28.0791 35.8184 28.1653 35.505 28.2477 35.2055C28.2688 35.1286 28.2897 35.0527 28.3109 34.9786C28.3547 34.8266 28.3954 34.6739 28.4329 34.5203C28.4705 34.3667 28.505 34.2124 28.5365 34.0573C28.568 33.9024 28.5964 33.747 28.6215 33.5909C28.6467 33.4347 28.6689 33.2781 28.688 33.1211C28.7069 32.9642 28.7228 32.8069 28.7356 32.6494C28.7482 32.4917 28.7577 32.3338 28.7642 32.1759C28.7706 32.0179 28.774 31.8598 28.7741 31.7017C28.7741 31.5435 28.771 31.3855 28.7648 31.2275C28.7587 31.0694 28.7494 30.9115 28.7369 30.754C28.7244 30.5963 28.7088 30.439 28.69 30.282C28.6712 30.1249 28.6492 29.9683 28.6241 29.8123C28.5992 29.656 28.571 29.5005 28.5398 29.3456C28.5085 29.1905 28.4742 29.0361 28.4369 28.8824C28.3995 28.7288 28.359 28.5761 28.3156 28.4241C28.2721 28.272 28.2256 28.1208 28.1759 27.9706C28.1265 27.8206 28.074 27.6715 28.0185 27.5233C27.9508 27.3508 27.879 27.18 27.8031 27.0111C27.7273 26.8421 27.6474 26.675 27.5634 26.5098C27.4796 26.3446 27.3917 26.1816 27.2998 26.0206C27.2081 25.8597 27.1125 25.7011 27.0131 25.5447C26.9137 25.3884 26.8106 25.2346 26.7039 25.0832C26.597 24.9318 26.4866 24.7831 26.3726 24.6371C26.2585 24.4911 26.1411 24.3478 26.0202 24.2075C25.8994 24.0671 25.7752 23.9297 25.6476 23.7953C25.5202 23.6609 25.3895 23.5296 25.2556 23.4015C25.1218 23.2735 24.985 23.1487 24.8453 23.0271C24.7053 22.9056 24.5626 22.7876 24.4171 22.6729C24.2716 22.5583 24.1234 22.4472 23.9725 22.3398C23.8217 22.2323 23.6683 22.1285 23.5124 22.0284C23.3566 21.9283 23.1984 21.832 23.0378 21.7395C22.8773 21.647 22.7147 21.5585 22.5499 21.4738C22.3852 21.3892 22.2185 21.3086 22.0498 21.232Z" fill="#111824"/>
</svg>
