<svg width="207" height="64" viewBox="0 0 207 64" fill="none" xmlns="http://www.w3.org/2000/svg">
<path d="M49.2222 35.2883L47.3633 46.9917L58.4295 51.2371V40.603L49.2222 35.2883Z" fill="#A299FF"/>
<path d="M1.00159 45.9182V18.0754L10.2105 20.9957V40.6004L25.1138 49.2039L26.2259 53.4477L25.1138 59.838L1.00159 45.9182Z" fill="#7366FF"/>
<path d="M25.1157 14.793L10.2124 23.395L1.00195 18.0771L25.1094 4.15894L49.2215 18.0771L44.1341 22.1303L40.0174 23.3966L25.1141 14.793H25.1157Z" fill="#7366FF"/>
<path d="M58.4322 51.2328L49.2217 56.5538L40.0176 51.2328V40.6035L58.4322 51.2328Z" fill="#5219FF"/>
<path d="M25.1157 21.3894L25.1094 32.0219L34.323 37.3365L34.3214 26.7041L25.1157 21.3894Z" fill="#A299FF"/>
<path d="M25.11 32.0258L15.9043 37.3388L25.1116 42.6567L34.3237 37.3388L25.11 32.0242V32.0258Z" fill="#5219FF"/>
<path d="M25.1164 21.3894L15.9043 26.7088V37.3381L25.11 32.0219L25.1164 21.3894Z" fill="#7366FF"/>
<path d="M49.2217 18.0754V35.2889L40.0176 40.602V23.3949L49.2217 18.077V18.0754Z" fill="url(#paint0_linear_17168_1301)"/>
<path d="M49.2248 35.2827L25.1143 49.2041V59.8398L49.2233 45.9168L49.2248 35.2827Z" fill="url(#paint1_linear_17168_1301)"/>
<path d="M106.47 44.1547C104.895 42.5967 103.821 40.6046 103.384 38.4329C102.947 36.2612 103.168 34.0086 104.018 31.963C104.868 29.9174 106.309 28.1718 108.156 26.9493C110.004 25.7268 112.174 25.0828 114.389 25.0998C115.857 25.0844 117.315 25.3615 118.675 25.9152C120.035 26.4688 121.272 27.2878 122.313 28.3244C123.353 29.361 124.177 30.5945 124.736 31.9528C125.295 33.3111 125.578 34.7672 125.568 36.2359C125.55 38.4408 124.884 40.5917 123.652 42.4204C122.421 44.2491 120.678 45.6746 118.641 46.519C116.604 47.3634 114.364 47.5893 112.199 47.1686C110.035 46.7478 108.042 45.7006 106.47 44.1547ZM114.389 42.9265C115.261 42.9466 116.128 42.7878 116.936 42.4598C117.744 42.1319 118.477 41.6419 119.088 41.0199C120.312 39.7274 120.994 38.0151 120.994 36.2351C120.994 34.4552 120.312 32.7429 119.088 31.4504C117.829 30.2285 116.143 29.5452 114.389 29.5452C112.634 29.5452 110.948 30.2285 109.689 31.4504C108.465 32.7429 107.783 34.4552 107.783 36.2351C107.783 38.0151 108.465 39.7274 109.689 41.0199C110.301 41.6417 111.033 42.1317 111.841 42.4596C112.65 42.7875 113.517 42.9464 114.389 42.9265ZM142.457 25.6448H147.454L139.197 46.816H133.906L125.647 25.6448H130.644L136.572 41.7349L142.457 25.6448ZM152.34 38.1807C153.018 41.3981 155.601 43.176 159.116 43.176C161.529 43.176 163.35 42.2862 164.577 40.5512L168.346 42.7533C166.271 45.8436 163.18 47.3689 159.073 47.3689C155.643 47.3689 152.848 46.3107 150.732 44.2357C149.684 43.189 148.862 41.939 148.316 40.5627C147.77 39.1864 147.511 37.7128 147.556 36.2328C147.517 34.7698 147.775 33.3142 148.313 31.9534C148.852 30.5926 149.66 29.3547 150.689 28.314C152.764 26.1532 155.474 25.0966 158.735 25.0966C160.165 25.0584 161.587 25.3299 162.902 25.8927C164.218 26.4554 165.396 27.2961 166.356 28.3569C168.345 30.5076 169.423 33.3455 169.362 36.2741C169.354 36.9128 169.299 37.5499 169.192 38.1807H152.34ZM164.747 34.4533C164.111 31.023 161.698 29.2451 158.693 29.2451C155.304 29.2451 152.934 31.2359 152.298 34.4533H164.747ZM176.944 29.2022C178.087 26.5758 180.289 25.6448 183.465 25.6448V30.1491C181.834 30.0765 180.226 30.5476 178.892 31.4885C177.58 32.4195 176.944 33.9861 176.944 36.1454V46.816H172.37V25.6448H176.944V29.2022ZM201.13 25.6448H205.999L197.869 47.4944C195.837 52.9553 192.407 55.5816 187.537 55.2845V51.0089C190.418 51.1773 192.026 49.7808 193.17 46.8589L193.381 46.4347L184.404 25.6448H189.401L195.71 41.0152L201.13 25.6448ZM101.707 43.1744L97.574 40.7879C99.3934 38.2211 100.351 35.1429 100.308 31.9969C100.305 28.957 99.4013 25.9861 97.7113 23.4592C96.0213 20.9323 93.6208 18.9625 90.8126 17.7983C88.0044 16.6341 84.9144 16.3276 81.9322 16.9176C78.9501 17.5076 76.2094 18.9676 74.0561 21.1134C72.5984 22.5203 71.4472 24.2133 70.6748 26.0862C69.9024 27.9591 69.5254 29.9714 69.5676 31.9969C69.552 34.0198 69.9389 36.0255 70.7058 37.8974C71.4726 39.7693 72.6042 41.4699 74.0346 42.9003C75.465 44.3307 77.1657 45.4623 79.0376 46.2292C80.9095 46.9961 82.9152 47.383 84.938 47.3673C87.7232 47.3682 90.4576 46.6226 92.8568 45.2081C93.3748 44.911 93.8673 44.5726 94.3312 44.196L101.707 48.4525V43.1744ZM84.938 42.6246C83.5539 42.6512 82.1789 42.3946 80.8975 41.8706C79.6161 41.3466 78.4553 40.5661 77.4864 39.5773C75.5303 37.5388 74.438 34.8229 74.438 31.9977C74.438 29.1725 75.5303 26.4567 77.4864 24.4182C79.4749 22.465 82.1508 21.3707 84.938 21.3707C87.7253 21.3707 90.4012 22.465 92.3897 24.4182C93.3876 25.407 94.173 26.5893 94.6975 27.8925C95.2221 29.1958 95.4749 30.5925 95.4402 31.9969C95.4678 34.2884 94.752 36.5272 93.4002 38.3777L84.938 33.492V38.7749L89.6696 41.5061C89.4932 41.5998 89.3836 41.6507 89.3836 41.6507C87.9893 42.2922 86.4728 42.6245 84.938 42.6246Z" fill="#151B2B"/>
<defs>
<linearGradient id="paint0_linear_17168_1301" x1="44.6204" y1="18.0754" x2="44.6204" y2="40.6004" gradientUnits="userSpaceOnUse">
<stop offset="0.25" stop-color="#7366FF"/>
<stop offset="1" stop-color="#5219FF"/>
</linearGradient>
<linearGradient id="paint1_linear_17168_1301" x1="25.1143" y1="47.5612" x2="49.2248" y2="47.5612" gradientUnits="userSpaceOnUse">
<stop stop-color="#7366FF"/>
<stop offset="1" stop-color="#A299FF"/>
</linearGradient>
</defs>
</svg>
