<svg width="178" height="64" viewBox="0 0 178 64" fill="none" xmlns="http://www.w3.org/2000/svg">
<path d="M96.2282 17.4156C104.332 16.5045 111.641 22.3303 112.563 30.4338C113.484 38.5373 107.668 45.8553 99.566 46.7864C91.4505 47.7191 84.1181 41.8899 83.1955 33.7723C82.2729 25.6547 88.1107 18.3283 96.2282 17.4156ZM99.2451 42.5977C105.056 41.8431 109.148 36.5099 108.372 30.7011C107.596 24.8925 102.249 20.8196 96.4444 21.616C90.6688 22.4084 86.6215 27.7233 87.3927 33.5025C88.1645 39.2817 93.4647 43.3485 99.2451 42.5977Z" fill="url(#paint0_linear_17168_1693)"/>
<path d="M172.53 29.9419C171.598 26.793 170.181 24.4411 167.198 22.8199C164.717 21.4815 161.811 21.1715 159.104 21.9567C156.365 22.7713 154.066 24.6489 152.721 27.1703C151.421 29.5744 151.269 32.8957 152.008 35.3052C154.352 42.9507 164.498 45.2713 169.839 39.2913C170.261 38.8188 170.872 38.2095 171.433 37.9019C172.613 37.5142 173.727 38.177 174.101 39.3336C174.553 40.7331 173.452 41.612 172.585 42.5148C168.158 47.1257 160.715 48.1807 155.125 45.113C151.562 43.1957 148.933 39.9098 147.845 36.0125C147.383 34.4145 147.291 32.7296 147.387 31.0744C148.007 20.3651 159.84 13.9634 169.261 19.1917C172.715 21.1204 175.272 24.3304 176.378 28.1283C176.662 29.1178 176.875 30.4255 176.983 31.4578C177.103 32.603 176.616 33.4057 175.658 34.013C175.601 34.0365 175.544 34.0578 175.484 34.0765C175.036 34.2186 171.433 34.1961 170.693 34.1961C167.629 34.1961 159.865 34.3123 155.938 33.9663C154.693 33.8566 153.214 33.3761 153.214 32.1272C153.214 29.1813 156.988 29.9735 159.492 29.9752L168.056 29.9831C169.158 29.984 171.503 30.0439 172.53 29.9419Z" fill="url(#paint1_linear_17168_1693)"/>
<path d="M39.3854 17.4063C39.4511 17.3978 39.517 17.3905 39.5829 17.3843C42.236 17.1234 46.716 18.0312 48.7504 19.7253C49.1961 20.0935 49.4736 20.6266 49.5197 21.2028C49.5631 21.7242 49.4012 22.3799 49.0352 22.7799C47.4784 24.4816 45.4975 22.3494 43.5202 21.9108C41.933 21.5587 41.428 21.4348 39.7354 21.5822C36.9502 21.8385 34.3778 23.1814 32.575 25.3201C30.7944 27.4818 29.9348 30.2567 30.1815 33.0466C30.4242 35.8511 31.7741 38.4432 33.9326 40.2498C36.1094 42.0405 38.9108 42.8883 41.7151 42.6049C44.0284 42.3933 45.844 41.6632 47.5502 40.1497C51.5293 36.6203 51.3874 33.3669 51.3825 28.6308L51.3508 22.0992C51.338 20.3528 50.7558 18.4623 52.1962 17.6306C54.0996 16.8595 55.4908 18.2141 55.4894 20.1765C55.4858 25.6168 55.4721 31.0587 55.479 36.4989L55.4922 41.9951C55.4947 43.0326 55.5422 44.1194 55.4362 45.1399C55.2463 46.7713 53.0563 47.4145 51.9543 46.2516C51.1358 45.3879 51.3615 43.2916 51.3727 42.1503C51.2626 42.3012 51.1492 42.4498 51.0324 42.5957C49.3283 44.7139 45.2708 46.4708 42.5404 46.7385C38.4549 47.1898 34.5906 46.1102 31.3702 43.5509C25.1559 38.6124 24.0846 29.0395 29.1598 22.844C31.7077 19.7412 35.3886 17.7839 39.3854 17.4063Z" fill="url(#paint2_linear_17168_1693)"/>
<path d="M22.057 20.2287C22.8007 21.0719 22.7439 22.1941 21.8627 22.9118C20.5441 23.9858 19.1711 22.8678 17.8899 22.3529C15.4573 21.22 13.2993 20.7547 10.6006 21.1393C6.99309 21.6535 5.0003 25.985 8.8228 28.0157C13.0499 30.2612 18.6487 30.3013 21.9345 34.1457C24.3356 37.2284 23.3817 42.2727 20.3609 44.6064C17.6617 46.6917 14.4954 47.199 11.1848 46.8173C9.69696 46.7302 6.9972 45.9324 5.56289 45.335C4.39496 44.8484 2.35277 43.8207 1.51324 42.7979C0.866121 42.0097 0.792712 41.1707 1.51321 40.5012C3.0092 38.9986 4.12203 40.1037 5.94353 41.2316C9.60296 43.4974 19.5372 45.0158 18.977 38.0507C18.7262 34.9313 11.7742 33.8019 9.48703 32.9673C8.10213 32.4619 6.4573 31.8697 5.22011 30.9457C1.93369 28.7899 1.82041 23.8633 3.921 20.8368C7.1962 16.118 18.0887 15.7295 22.057 20.2287Z" fill="url(#paint3_linear_17168_1693)"/>
<path d="M61.4225 17.3985C63.5234 17.0979 64.2923 18.8779 65.4304 20.3862L68.3185 24.1741L71.8003 28.7287C72.8011 30.0397 74.6227 31.64 73.4369 33.2426C71.0945 36.4082 68.6888 39.525 66.3099 42.6639C65.3354 43.9496 64.2862 45.4435 63.1282 46.5552C61.7131 47.2664 60.7656 46.6794 60.0002 45.4895C59.9702 45.0594 59.9917 44.5327 59.9979 44.0946C61.3184 42.0452 62.964 40.155 64.4166 38.1928C65.9435 36.1299 67.59 34.1272 69.0786 32.0385C67.976 30.7657 60.3297 20.9818 60.0437 20.0176C59.8791 19.4626 59.9594 18.8509 60.2405 18.3486C60.5035 17.8786 60.905 17.5439 61.4225 17.3985Z" fill="url(#paint4_linear_17168_1693)"/>
<path d="M129.098 17.4037C129.829 17.2368 132.033 17.4022 132.796 17.5393C138.354 18.5375 142.928 22.9375 144.037 28.4902C144.385 30.2388 144.263 32.1248 144.295 33.9001C144.221 37.6134 144.425 41.4216 144.201 45.1178C144.13 46.2894 142.545 47.1847 141.498 46.6662C140.757 46.2997 140.677 46.1861 140.239 45.5386C140.152 44.7195 140.17 44.0395 140.181 43.2219L140.194 35.5272C140.199 32.9424 140.374 30.1177 139.41 27.6789C138.444 25.2873 136.585 23.365 134.228 22.3177C131.037 20.9332 128.361 21.4756 125.437 22.836C123.355 23.8042 121.017 21.439 122.899 19.557C124.721 18.2702 126.905 17.6439 129.098 17.4037Z" fill="url(#paint5_linear_17168_1693)"/>
<path d="M118.412 17.3729C120.342 17.4037 120.635 18.6784 120.626 20.2635C120.585 28.2774 120.652 36.2927 120.611 44.306C120.605 45.6576 120.282 46.3611 118.973 46.8647C117.171 46.9819 116.51 45.9516 116.478 44.3166C116.395 40.0276 116.462 35.7407 116.45 31.4513L116.433 23.5967C116.433 20.6659 115.821 17.4355 118.412 17.3729Z" fill="url(#paint6_linear_17168_1693)"/>
<path d="M82.5604 17.693C83.7505 18.5625 83.7407 19.7873 82.8367 20.9574C80.8353 23.548 78.9506 26.3374 76.7384 28.7403C76.6026 28.8879 76.2373 29.1108 75.7011 29.0747C73.6125 28.9342 73.0102 26.804 74.1621 25.3608C76.1976 22.8108 78.0738 20.0429 80.284 17.66C80.7958 17.1081 81.747 17.16 82.5604 17.693Z" fill="url(#paint7_linear_17168_1693)"/>
<defs>
<linearGradient id="paint0_linear_17168_1693" x1="112.507" y1="13.9354" x2="92.1119" y2="50.192" gradientUnits="userSpaceOnUse">
<stop stop-color="#8B87FE"/>
<stop offset="1" stop-color="#6160FA"/>
</linearGradient>
<linearGradient id="paint1_linear_17168_1693" x1="176.848" y1="13.954" x2="156.53" y2="50.2354" gradientUnits="userSpaceOnUse">
<stop stop-color="#8B87FE"/>
<stop offset="1" stop-color="#6160FA"/>
</linearGradient>
<linearGradient id="paint2_linear_17168_1693" x1="55.3528" y1="13.9604" x2="35.0208" y2="50.1815" gradientUnits="userSpaceOnUse">
<stop stop-color="#8B87FE"/>
<stop offset="1" stop-color="#6160FA"/>
</linearGradient>
<linearGradient id="paint3_linear_17168_1693" x1="23.1748" y1="13.6379" x2="-0.0110447" y2="44.387" gradientUnits="userSpaceOnUse">
<stop stop-color="#8B87FE"/>
<stop offset="1" stop-color="#6160FA"/>
</linearGradient>
<linearGradient id="paint4_linear_17168_1693" x1="66.8917" y1="17.365" x2="66.8917" y2="46.8636" gradientUnits="userSpaceOnUse">
<stop stop-color="#D263D7"/>
<stop offset="0.560381" stop-color="#F04653"/>
</linearGradient>
<linearGradient id="paint5_linear_17168_1693" x1="144.166" y1="13.9497" x2="123.192" y2="49.1418" gradientUnits="userSpaceOnUse">
<stop stop-color="#8B87FE"/>
<stop offset="1" stop-color="#6160FA"/>
</linearGradient>
<linearGradient id="paint6_linear_17168_1693" x1="144.166" y1="13.9497" x2="123.192" y2="49.1418" gradientUnits="userSpaceOnUse">
<stop stop-color="#8B87FE"/>
<stop offset="1" stop-color="#6160FA"/>
</linearGradient>
<linearGradient id="paint7_linear_17168_1693" x1="83.3498" y1="16.0581" x2="74.6345" y2="29.0811" gradientUnits="userSpaceOnUse">
<stop stop-color="#8B87FE"/>
<stop offset="1" stop-color="#6160FA"/>
</linearGradient>
</defs>
</svg>
