<?xml version="1.0" encoding="UTF-8" standalone="no"?>
<svg
   id="Layer_1"
   data-name="Layer 1"
   viewBox="0 0 213 64.000029"
   version="1.1"
   width="213"
   height="64.000031"
   xmlns="http://www.w3.org/2000/svg"
   xmlns:svg="http://www.w3.org/2000/svg">
  <defs
     id="defs1">
    <style
       id="style1">.cls-1{fill:#141414;}</style>
  </defs>
  <path
     class="cls-1"
     d="m 12.209668,30.372274 a 9.9293987,9.9293987 0 0 1 4.957773,-8.599318 L 34.887952,11.513347 21.931242,4.1609727 5.1343934,13.977222 a 9.9432537,9.9432537 0 0 0 -4.9208248,8.57854 v 8.640888 l 12.0076454,6.793554 z"
     id="path1"
     style="stroke-width:0.230915" />
  <path
     class="cls-1"
     d="m 22.894163,32.032567 a 9.9409445,9.9409445 0 0 1 -4.96008,8.601625 l -17.7205144,10.2573 12.9567104,7.359302 16.796846,-9.825483 a 9.9293987,9.9293987 0 0 0 4.920827,-8.585469 V 31.205887 L 22.894163,24.412328 Z"
     id="path2"
     style="stroke-width:0.230915" />
  <path
     class="cls-1"
     d="m 56.342373,21.548965 h 3.971764 c 2.18217,0 3.974069,1.734182 3.974069,3.847066 h 4.050275 c 0,-4.228076 -3.581509,-7.698748 -8.024344,-7.698748 h -3.971764 c -4.36431,0 -7.948132,3.463743 -7.948132,7.698748 0,4.29966 3.586132,7.770329 7.948132,7.770329 h 3.971764 c 2.18217,0 3.974069,1.73649 3.974069,3.849377 0,2.112885 -1.791899,3.847062 -3.974069,3.847062 h -3.971764 c -2.179843,0 -3.97175,-1.736485 -3.97175,-3.847062 h -3.974072 c 0,4.225765 3.586131,7.696438 7.948141,7.696438 h 3.97407 c 4.440517,0 8.019719,-3.463745 8.019719,-7.694129 0,-4.230384 -3.581509,-7.698748 -8.024344,-7.698748 h -3.971764 a 3.9417402,3.9417402 0 0 1 -3.97175,-3.925577 c 0,-2.110574 1.791907,-3.844756 3.97175,-3.844756 z"
     id="path3"
     style="stroke-width:0.230915" />
  <polygon
     class="cls-1"
     points="439.39,234.1 456.94,234.1 456.94,117.11 439.39,117.11 439.39,167.44 387.77,167.44 387.77,117.11 370.57,117.11 370.57,234.1 387.77,234.1 387.77,184.1 439.39,184.1 "
     id="polygon3"
     transform="matrix(0.23091624,0,0,0.23091624,-13.292723,-9.345319)" />
  <path
     class="cls-1"
     d="m 104.06354,17.699592 -7.440123,14.489992 v 12.5249 h 3.971753 v -7.696438 h 11.92451 v 7.696438 h 4.04797 v -12.5249 l -7.51863,-14.489992 z m -3.46375,15.471386 6.00382,-11.619702 5.92301,11.619702 z"
     id="path4"
     style="stroke-width:0.230915" />
  <polygon
     class="cls-1"
     points="598.82,234.1 598.82,197.83 617.03,180.19 655.84,234.1 667.82,234.1 667.82,222.5 628.52,169.07 667.82,130.51 667.82,117.11 657.87,117.11 598.82,174.96 598.82,117.11 581.44,117.11 581.44,234.1 "
     id="polygon4"
     transform="matrix(0.23091624,0,0,0.23091624,-13.292723,-9.345319)" />
  <path
     class="cls-1"
     d="m 161.20838,37.015737 c 0,2.110577 -1.79192,3.847062 -3.97407,3.847062 h -3.97176 c -2.17984,0 -3.97177,-1.736485 -3.97177,-3.847062 V 17.697283 h -3.97405 v 19.318454 c 0,4.225765 3.58612,7.696438 7.94814,7.696438 h 3.97404 c 4.44054,0 8.02206,-3.463745 8.01973,-7.696438 V 17.697283 h -4.05026 z"
     id="path5"
     style="stroke-width:0.230915" />
  <path
     class="cls-1"
     d="m 181.58442,17.697283 h -11.9222 v 27.017201 h 11.9222 c 4.44052,0 8.02666,-3.463744 8.02435,-7.694128 V 25.396031 c 0,-4.228076 -3.58383,-7.698748 -8.02435,-7.698748 z m 3.97408,19.320763 c 0,2.110576 -1.79191,3.847061 -3.97176,3.847061 H 173.6386 V 21.548965 h 7.94814 c 2.17985,0 3.97176,1.734182 3.97176,3.847066 z"
     id="path6"
     style="stroke-width:0.230915" />
  <path
     class="cls-1"
     d="m 204.95777,17.697283 h -3.96021 c -4.36431,0 -7.94814,3.463743 -7.94814,7.698748 v 11.619706 c 0,4.225765 3.58613,7.696438 7.94814,7.696438 h 3.97175 c 4.44283,0 8.02434,-3.463745 8.02434,-7.694129 V 25.396031 c -0.012,-4.228076 -3.59305,-7.698748 -8.03588,-7.698748 z m 3.97406,19.320763 c 0,2.110576 -1.79189,3.847061 -3.97406,3.847061 h -3.96021 c -2.17985,0 -3.97176,-1.736485 -3.97176,-3.847061 V 25.396031 c 0,-2.112884 1.79191,-3.847066 3.97176,-3.847066 h 3.97175 c 2.18217,0 3.97409,1.734182 3.97409,3.847066 z"
     id="path7"
     style="stroke-width:0.230915" />
  <path
     class="cls-1"
     d="m 56.342373,21.548965 h 3.971764 c 2.18217,0 3.974069,1.734182 3.974069,3.847066 h 4.050275 c 0,-4.228076 -3.581509,-7.698748 -8.024344,-7.698748 h -3.971764 c -4.36431,0 -7.948132,3.463743 -7.948132,7.698748 0,4.29966 3.586132,7.770329 7.948132,7.770329 h 3.971764 c 2.18217,0 3.974069,1.73649 3.974069,3.849377 0,2.112885 -1.791899,3.847062 -3.974069,3.847062 h -3.971764 c -2.179843,0 -3.97175,-1.736485 -3.97175,-3.847062 h -3.974072 c 0,4.225765 3.586131,7.696438 7.948141,7.696438 h 3.97407 c 4.440517,0 8.019719,-3.463745 8.019719,-7.694129 0,-4.230384 -3.581509,-7.698748 -8.024344,-7.698748 h -3.971764 a 3.9417402,3.9417402 0 0 1 -3.97175,-3.925577 c 0,-2.110574 1.791907,-3.844756 3.97175,-3.844756 z"
     id="path8"
     style="stroke-width:0.230915" />
</svg>
