<svg width="282" height="64" viewBox="0 0 282 64" fill="none" xmlns="http://www.w3.org/2000/svg">
<path d="M35.0174 50.0215C16.2576 50.0215 1 34.7212 1 15.908H7.99632C7.99632 30.8435 20.1147 42.996 35.0084 42.996C49.902 42.996 62.02 30.8435 62.02 15.9084H69.0164C69.0164 34.7212 53.7592 50.0215 34.999 50.0215H35.0174ZM100.595 15.9175V22.9425H71.8913C72.3712 20.6471 72.612 18.3081 72.6101 15.963" fill="#1263F9"/>
<path d="M29.6582 13.9736H22.6619V23.9187H29.6582V13.9736ZM41.713 13.9736H34.7167V23.9187H41.713V13.9736Z" fill="#1263F9"/>
<path d="M270.669 46.4138C268.4 46.4138 266.451 46.0267 264.822 45.2525C263.221 44.4783 261.766 43.317 260.458 41.7686L264.062 38.1646C264.889 39.2591 265.85 40.1134 266.945 40.7274C268.039 41.3147 269.374 41.6084 270.949 41.6084C272.364 41.6084 273.485 41.3281 274.313 40.7675C275.167 40.2068 275.594 39.4326 275.594 38.4449C275.594 37.5906 275.354 36.8965 274.874 36.3626C274.393 35.8286 273.752 35.3748 272.952 35.001C272.177 34.6273 271.31 34.2936 270.349 33.9999C269.414 33.6796 268.467 33.3192 267.505 32.9187C266.571 32.5183 265.703 32.0244 264.903 31.4371C264.128 30.823 263.501 30.0488 263.02 29.1145C262.54 28.1534 262.3 26.9521 262.3 25.5105C262.3 23.8019 262.713 22.3469 263.541 21.1456C264.369 19.9443 265.503 19.0232 266.945 18.3825C268.386 17.7418 270.015 17.4214 271.83 17.4214C273.752 17.4214 275.488 17.7818 277.036 18.5026C278.584 19.2235 279.853 20.1578 280.84 21.3058L277.236 24.9098C276.409 24.0021 275.554 23.3347 274.673 22.9076C273.819 22.4804 272.845 22.2668 271.75 22.2668C270.495 22.2668 269.508 22.5071 268.787 22.9876C268.066 23.4682 267.706 24.1623 267.706 25.07C267.706 25.8442 267.946 26.4715 268.426 26.9521C268.907 27.4326 269.534 27.8464 270.309 28.1934C271.109 28.5405 271.977 28.8742 272.911 29.1946C273.873 29.5149 274.82 29.8753 275.755 30.2758C276.716 30.6762 277.583 31.1968 278.358 31.8375C279.158 32.4782 279.799 33.3058 280.28 34.3203C280.76 35.308 281.001 36.5361 281.001 38.0044C281.001 40.6206 280.079 42.6763 278.237 44.1713C276.395 45.6663 273.873 46.4138 270.669 46.4138Z" fill="black"/>
<path d="M246.353 46.4537C244.298 46.4537 242.376 46.08 240.587 45.3325C238.825 44.585 237.276 43.5572 235.942 42.2491C234.634 40.9142 233.606 39.3658 232.858 37.6039C232.111 35.8152 231.737 33.9064 231.737 31.8775C231.737 29.8486 232.097 27.9665 232.818 26.2312C233.566 24.4692 234.593 22.9342 235.902 21.6261C237.236 20.2913 238.785 19.2634 240.547 18.5426C242.309 17.7951 244.218 17.4214 246.273 17.4214C248.355 17.4214 250.278 17.7951 252.04 18.5426C253.802 19.2634 255.337 20.2913 256.645 21.6261C257.98 22.9342 259.021 24.4692 259.768 26.2312C260.516 27.9932 260.889 29.8886 260.889 31.9175C260.889 33.9465 260.516 35.8419 259.768 37.6039C259.021 39.3658 257.98 40.9142 256.645 42.2491C255.337 43.5572 253.802 44.585 252.04 45.3325C250.304 46.08 248.409 46.4537 246.353 46.4537ZM246.273 41.3681C248.089 41.3681 249.664 40.9676 250.998 40.1667C252.333 39.3658 253.374 38.2579 254.122 36.843C254.896 35.4281 255.283 33.7729 255.283 31.8775C255.283 30.4893 255.07 29.2212 254.643 28.0733C254.215 26.9253 253.601 25.9375 252.8 25.11C252 24.2557 251.052 23.6016 249.957 23.1478C248.863 22.6939 247.635 22.467 246.273 22.467C244.511 22.467 242.949 22.8675 241.588 23.6683C240.253 24.4425 239.199 25.5371 238.424 26.952C237.677 28.3669 237.303 30.0087 237.303 31.8775C237.303 33.2924 237.517 34.5872 237.944 35.7618C238.398 36.9365 239.012 37.9376 239.786 38.7652C240.587 39.5928 241.535 40.2335 242.629 40.6873C243.75 41.1412 244.965 41.3681 246.273 41.3681Z" fill="black"/>
<path d="M225.149 46.0131V34.9207C225.149 33.7728 224.788 32.8384 224.067 32.1176C223.347 31.3968 222.412 31.0364 221.264 31.0364C220.517 31.0364 219.849 31.1966 219.262 31.5169C218.675 31.8373 218.208 32.2911 217.86 32.8785C217.54 33.4658 217.38 34.1465 217.38 34.9207L215.338 33.8796C215.338 32.3579 215.658 31.0364 216.299 29.9152C216.966 28.7672 217.874 27.8729 219.022 27.2322C220.196 26.5914 221.518 26.2711 222.986 26.2711C224.401 26.2711 225.669 26.6315 226.79 27.3523C227.912 28.0464 228.793 28.9674 229.433 30.1154C230.074 31.2366 230.394 32.4513 230.394 33.7594V46.0131H225.149ZM212.134 46.0131V26.6715H217.38V46.0131H212.134Z" fill="black"/>
<path d="M200.427 46.4138C198.478 46.4138 196.716 45.9733 195.141 45.0923C193.593 44.1846 192.352 42.9699 191.417 41.4482C190.51 39.8998 190.056 38.1779 190.056 36.2825C190.056 34.387 190.51 32.6918 191.417 31.1968C192.325 29.6751 193.566 28.4738 195.141 27.5928C196.716 26.6851 198.465 26.2313 200.387 26.2313C202.363 26.2313 204.125 26.6851 205.673 27.5928C207.248 28.4738 208.49 29.6751 209.397 31.1968C210.305 32.6918 210.759 34.387 210.759 36.2825C210.759 38.1779 210.305 39.8998 209.397 41.4482C208.49 42.9699 207.248 44.1846 205.673 45.0923C204.125 45.9733 202.376 46.4138 200.427 46.4138ZM200.387 41.5283C201.375 41.5283 202.243 41.3147 202.99 40.8876C203.764 40.4338 204.352 39.8197 204.752 39.0455C205.179 38.2446 205.393 37.337 205.393 36.3225C205.393 35.308 205.179 34.4137 204.752 33.6395C204.325 32.8653 203.738 32.2647 202.99 31.8375C202.243 31.3837 201.375 31.1568 200.387 31.1568C199.426 31.1568 198.572 31.3837 197.824 31.8375C197.077 32.2647 196.49 32.8653 196.062 33.6395C195.635 34.4137 195.422 35.308 195.422 36.3225C195.422 37.337 195.635 38.2446 196.062 39.0455C196.49 39.8197 197.077 40.4338 197.824 40.8876C198.572 41.3147 199.426 41.5283 200.387 41.5283Z" fill="black"/>
<path d="M179.631 46.4138C177.682 46.4138 175.92 45.9733 174.345 45.0923C172.796 44.1846 171.555 42.9699 170.621 41.4482C169.713 39.8998 169.259 38.1779 169.259 36.2825C169.259 34.387 169.713 32.6918 170.621 31.1968C171.528 29.6751 172.77 28.4738 174.345 27.5928C175.92 26.6851 177.668 26.2313 179.591 26.2313C181.566 26.2313 183.328 26.6851 184.877 27.5928C186.452 28.4738 187.693 29.6751 188.601 31.1968C189.508 32.6918 189.962 34.387 189.962 36.2825C189.962 38.1779 189.508 39.8998 188.601 41.4482C187.693 42.9699 186.452 44.1846 184.877 45.0923C183.328 45.9733 181.58 46.4138 179.631 46.4138ZM179.591 41.5283C180.578 41.5283 181.446 41.3147 182.194 40.8876C182.968 40.4338 183.555 39.8197 183.956 39.0455C184.383 38.2446 184.596 37.337 184.596 36.3225C184.596 35.308 184.383 34.4137 183.956 33.6395C183.528 32.8653 182.941 32.2647 182.194 31.8375C181.446 31.3837 180.578 31.1568 179.591 31.1568C178.63 31.1568 177.775 31.3837 177.028 31.8375C176.28 32.2647 175.693 32.8653 175.266 33.6395C174.839 34.4137 174.625 35.308 174.625 36.3225C174.625 37.337 174.839 38.2446 175.266 39.0455C175.693 39.8197 176.28 40.4338 177.028 40.8876C177.775 41.3147 178.63 41.5283 179.591 41.5283Z" fill="black"/>
<path d="M159.733 46.4135C158.345 46.4135 157.09 46.1332 155.969 45.5726C154.848 44.9853 153.953 44.1977 153.286 43.21C152.619 42.2222 152.258 41.0876 152.205 39.8062V32.9585C152.258 31.6771 152.619 30.5425 153.286 29.5548C153.98 28.5403 154.874 27.7394 155.969 27.1521C157.09 26.5648 158.345 26.2711 159.733 26.2711C161.522 26.2711 163.124 26.7116 164.539 27.5926C165.953 28.4735 167.061 29.6749 167.862 31.1966C168.69 32.7183 169.104 34.4402 169.104 36.3623C169.104 38.2578 168.69 39.9664 167.862 41.488C167.061 43.0097 165.953 44.2111 164.539 45.0921C163.124 45.973 161.522 46.4135 159.733 46.4135ZM149.001 54.1021V26.6715H154.247V31.7572L153.366 36.4424L154.207 41.1276V54.1021H149.001ZM158.812 41.5681C159.773 41.5681 160.628 41.3546 161.375 40.9274C162.123 40.4736 162.696 39.8596 163.097 39.0854C163.524 38.2845 163.738 37.3635 163.738 36.3223C163.738 35.3078 163.524 34.4135 163.097 33.6393C162.696 32.8384 162.123 32.2244 161.375 31.7972C160.628 31.3434 159.773 31.1165 158.812 31.1165C157.878 31.1165 157.037 31.3434 156.289 31.7972C155.542 32.2244 154.955 32.8384 154.527 33.6393C154.127 34.4135 153.927 35.3078 153.927 36.3223C153.927 37.3635 154.127 38.2845 154.527 39.0854C154.955 39.8596 155.529 40.4736 156.249 40.9274C156.997 41.3546 157.851 41.5681 158.812 41.5681Z" fill="black"/>
<path d="M136.934 46.4138C134.665 46.4138 132.716 46.0267 131.088 45.2525C129.486 44.4783 128.031 43.317 126.723 41.7686L130.327 38.1646C131.154 39.2591 132.115 40.1134 133.21 40.7274C134.304 41.3147 135.639 41.6084 137.214 41.6084C138.629 41.6084 139.751 41.3281 140.578 40.7675C141.432 40.2068 141.86 39.4326 141.86 38.4449C141.86 37.5906 141.619 36.8965 141.139 36.3626C140.658 35.8286 140.017 35.3748 139.217 35.001C138.442 34.6273 137.575 34.2936 136.614 33.9999C135.679 33.6796 134.732 33.3192 133.771 32.9187C132.836 32.5183 131.969 32.0244 131.168 31.4371C130.393 30.823 129.766 30.0488 129.286 29.1145C128.805 28.1534 128.565 26.9521 128.565 25.5105C128.565 23.8019 128.979 22.3469 129.806 21.1456C130.634 19.9443 131.768 19.0232 133.21 18.3825C134.651 17.7418 136.28 17.4214 138.095 17.4214C140.017 17.4214 141.753 17.7818 143.301 18.5026C144.85 19.2235 146.118 20.1578 147.105 21.3058L143.501 24.9098C142.674 24.0021 141.819 23.3347 140.938 22.9076C140.084 22.4804 139.11 22.2668 138.015 22.2668C136.761 22.2668 135.773 22.5071 135.052 22.9876C134.331 23.4682 133.971 24.1623 133.971 25.07C133.971 25.8442 134.211 26.4715 134.692 26.9521C135.172 27.4326 135.799 27.8464 136.574 28.1934C137.375 28.5405 138.242 28.8742 139.177 29.1946C140.138 29.5149 141.085 29.8753 142.02 30.2758C142.981 30.6762 143.848 31.1968 144.623 31.8375C145.423 32.4782 146.064 33.3058 146.545 34.3203C147.025 35.308 147.266 36.5361 147.266 38.0044C147.266 40.6206 146.345 42.6763 144.502 44.1713C142.66 45.6663 140.138 46.4138 136.934 46.4138Z" fill="black"/>
</svg>
