<svg width="213" height="64" viewBox="0 0 213 64" fill="none" xmlns="http://www.w3.org/2000/svg">
<path d="M68.1216 38.5235C69.4324 39.3866 71.7917 40.4211 74.2394 40.4211C76.3364 40.4211 77.8221 39.4731 77.8221 37.6621C77.8221 33.6089 66.8982 34.9022 66.8982 27.916C66.8982 23.9485 70.3935 21.8787 74.5883 21.8787C77.5598 21.8787 79.133 22.8275 81.1434 24.1217L79.4819 26.6227C77.4724 25.7596 76.4239 25.1562 74.4134 25.1562C72.4039 25.1562 70.8307 26.0184 70.8307 27.8295C70.8307 31.9692 81.7547 30.5028 81.7547 37.5746C81.7547 41.1102 78.6957 43.6977 74.152 43.6977C70.6558 43.6977 68.0341 42.2321 66.4609 41.0245L68.1216 38.5235ZM86.9106 54.6514V22.3972H90.6682V24.8117C90.6682 25.415 90.5808 25.9327 90.5808 25.9327H90.6682C90.6682 25.9327 92.5037 21.9661 97.7471 21.9661C103.428 21.9661 107.011 26.4504 107.011 32.9189C107.011 39.5588 102.99 43.8709 97.3973 43.8709C92.5912 43.8709 90.8431 40.1631 90.8431 40.1631H90.7557C90.7557 40.1631 90.8431 40.9388 90.8431 41.9733V54.8237H86.9106V54.6514ZM96.7861 40.3354C100.106 40.3354 102.903 37.6621 102.903 32.9189C102.903 28.348 100.456 25.4159 96.9609 25.4159C93.8146 25.4159 90.8431 27.5715 90.8431 32.9189C90.8431 36.6267 92.9401 40.3354 96.7861 40.3354ZM123.354 26.1059C119.247 26.1059 115.576 30.5902 115.576 34.6434V43.3532H111.556V22.3981H115.489V26.1059C115.489 26.969 115.402 27.659 115.402 27.659H115.489C116.45 24.8991 120.208 22.1393 123.442 22.1393V26.1068L123.354 26.1059ZM127.549 43.4398V22.3981H131.57V43.3549H127.549V43.4406V43.4398ZM152.457 43.4398V30.849C152.457 27.9169 151.845 25.5882 148.524 25.5882C144.416 25.5882 141.446 28.9514 141.446 33.2635V43.3541H137.425V22.3972H141.358V25.5882C141.358 26.1916 141.271 26.795 141.271 26.795H141.358C142.232 24.9848 144.766 21.8804 149.398 21.8804C154.379 21.8804 156.652 24.5537 156.652 29.9002V43.3541H152.457V43.4398ZM176.403 43.4398L170.023 33.5223H166.877V43.4398H162.856V11.0999H166.877V29.9868H169.935L175.878 22.3972H180.16L173.344 31.539V31.6247L180.947 43.3541L176.403 43.4398ZM192.221 43.4398C188.9 43.4398 185.142 42.8364 185.142 37.6621V11.0999H189.162V37.0578C189.162 39.6454 191.347 39.732 192.221 39.732V43.4398ZM208.913 25.9327C204.806 25.9327 201.135 30.4179 201.135 34.4711V43.1809H197.115V22.225H201.047V25.9327C201.047 26.7958 200.96 27.4858 200.96 27.4858H201.047C202.009 24.726 205.767 21.9661 209.001 21.9661V25.9327H208.913ZM129.56 17.9995C130.959 17.9995 132.094 16.8801 132.094 15.4985C132.094 14.1168 130.96 12.9975 129.56 12.9975C128.161 12.9975 127.025 14.1168 127.025 15.4985C127.025 16.8801 128.16 17.9995 129.56 17.9995Z" fill="#2E3841"/>
<g clip-path="url(#clip0_14020_10404)">
<path d="M4.02629 17.2068C4.20119 14.5615 6.38213 12.2695 9.26266 12.4461C10.0479 12.5336 11.0081 12.5336 12.4921 13.68C18.9492 19.4104 22.7899 29.4626 21.6549 38.1898C21.5674 38.6306 21.1311 38.6306 20.9562 38.1898C19.1241 31.9303 13.1016 24.7893 7.7778 22.5848C5.24706 21.615 3.8514 19.7637 4.02629 17.2068Z" fill="#FAA21B"/>
<path d="M20.6962 47.9763C19.0382 42.5108 10.8356 33.4294 4.81216 33.4294C4.15951 33.4186 3.51168 33.5429 2.90942 33.7947C2.30716 34.0464 1.76352 34.42 1.31267 34.892C0.861829 35.3641 0.513545 35.9243 0.289729 36.5375C0.0659131 37.1506 -0.0285921 37.8035 0.0121582 38.455C0.187054 41.4527 2.71779 42.9515 4.98706 42.9515C10.136 42.9515 16.3325 45.1552 20.1732 48.3296C20.4347 48.5053 20.7836 48.3296 20.6962 47.9763Z" fill="#70BF54"/>
<path d="M28.1144 54.5006C28.027 54.9413 27.5897 54.9413 27.4157 54.5006C20.6079 33.0759 32.827 9.53582 41.9032 9.36005C46.704 9.27086 50.0201 12.7985 50.0201 16.7651C50.0201 19.4979 49.1473 21.7024 46.0062 23.4654C38.0633 27.9619 29.1612 39.5995 28.1144 54.4997V54.5006Z" fill="#00BAE9"/>
<path d="M35.7944 48.2412C35.532 48.417 35.1831 48.2412 35.2706 47.8879C36.9286 42.4224 45.1329 33.341 51.1546 33.341C51.8073 33.3301 52.4552 33.4543 53.0576 33.706C53.6599 33.9577 54.2037 34.3313 54.6546 34.8034C55.1056 35.2754 55.4539 35.8357 55.6778 36.4489C55.9017 37.0621 55.9962 37.7151 55.9554 38.3666C55.7805 41.3643 53.2489 42.8632 50.9797 42.8632C45.9182 42.8632 39.7216 45.2435 35.7944 48.2412Z" fill="#128ACB"/>
</g>
<defs>
<clipPath id="clip0_14020_10404">
<rect width="55.9665" height="45.4728" fill="white" transform="translate(0 9.3584)"/>
</clipPath>
</defs>
</svg>
