<svg width="162" height="64" viewBox="0 0 162 64" fill="none" xmlns="http://www.w3.org/2000/svg">
<path d="M95.1037 33.0351L100.366 16.8673H120.158V34.0807C120.158 36.1775 121.373 37.7066 123.369 37.7068C125.365 37.7068 126.581 36.1777 126.581 34.0807V16.8673H136.823V34.6928C136.822 42.5562 131.31 47.4929 123.369 47.4929C115.428 47.4928 109.917 42.5561 109.917 34.6928V20.7624L100.844 46.6242H89.231L78.9235 16.8673H90.7104L95.1037 33.0351ZM149.208 16C154.063 16 157.879 17.9225 160.567 21.2422L153.673 27.6622C152.069 25.7842 150.855 24.8236 149.121 24.8236C147.951 24.8236 147.128 25.2163 147.127 25.9584C147.127 26.7446 148.081 26.9201 148.905 27.0948C155.798 28.4926 161 30.6329 161 37.4468C161 43.5182 155.971 47.4928 148.602 47.4929C143.096 47.4929 138.761 45.309 136.203 41.3343L142.835 35.1757C144.222 37.1412 146.651 38.6694 149.295 38.6694C150.422 38.6694 151.289 38.4078 151.29 37.6222C151.29 36.836 150.336 36.5729 149.512 36.3981C142.272 34.9131 137.59 32.3799 137.59 26.2214C137.59 19.8881 143.009 16.0003 149.208 16ZM32.2993 33.99L28.6241 35.4417L30.3832 38.1173L28.6241 39.4921L30.3832 40.5624L28.6241 42.5492L29.3882 46.6749H1V16.7966H26.3682L32.2993 33.99ZM61.5994 26.4813H54.2444V46.6242H44.0321V26.4813H36.6771V16.8673H61.5994V26.4813ZM87.6349 46.6242H75.9788L75.0253 42.6491H67.3136L66.1865 46.6242H55.3976L65.7528 16.8673H77.3227L87.6349 46.6242ZM2.5808 45.0941H14.9935L14.5029 42.2662L16.2606 40.2795L14.5029 39.2092L16.2606 37.8343L14.5029 35.4417L18.5348 34.2914L13.0082 18.3773H2.5808V45.0941ZM69.6095 34.4329H73.0324L71.4732 27.9221L69.6095 34.4329ZM23.0942 25.6386C22.025 25.6387 21.1585 26.5069 21.1583 27.5761C21.1585 28.6453 22.025 29.512 23.0942 29.5121C24.1635 29.5121 25.0315 28.6454 25.0318 27.5761C25.0316 26.5068 24.1637 25.6386 23.0942 25.6386ZM11.3582 29.2922H7.81835V25.7539H11.3582V29.2922Z" fill="#140206"/>
</svg>
