<svg width="190" height="64" viewBox="0 0 190 64" fill="none" xmlns="http://www.w3.org/2000/svg">
<path fill-rule="evenodd" clip-rule="evenodd" d="M70.7617 43.5835C70.7617 49.0979 71.7102 49.9865 77.6374 50.0464V52.3583H57.483V50.0464C63.4122 49.9865 64.3587 49.0979 64.3587 43.5835V13.293C57.542 13.4119 53.5699 17.9167 52.9771 26.1558L50.7842 25.802L51.2 11.3379H83.9214L84.3362 25.802L82.1422 26.1558C81.5505 17.9177 77.5194 13.4119 70.7617 13.293V43.5835Z" fill="#E60667"/>
<path fill-rule="evenodd" clip-rule="evenodd" d="M101.641 14.4703C101.641 13.153 101.563 12.6722 101.26 12.3674C101.031 12.1385 100.501 11.9885 99.919 11.9885H99.5892V11.1769H105.59C108.376 11.1769 110.326 11.9885 111.821 13.7857C113.112 15.3309 113.797 17.306 113.797 19.5849C113.797 22.1947 112.935 24.4476 111.34 25.9938C109.922 27.4112 108.048 28.0689 105.59 28.0689H99.5892V27.2592H99.919C100.501 27.2592 101.031 27.1063 101.26 26.8794C101.563 26.5736 101.641 26.0938 101.641 24.7764V14.4703ZM103.971 24.8784C103.971 26.8035 104.276 27.1593 106.046 27.1593C109.694 27.1593 111.089 25.0823 111.089 19.5849C111.089 14.2415 109.644 12.0635 106.099 12.0635C105.161 12.0635 104.58 12.2404 104.276 12.5693C104.022 12.8731 103.971 13.177 103.971 14.2415V24.8784ZM117.821 22.1677C117.844 25.8659 118.708 27.4382 120.707 27.4382C122.075 27.4382 122.962 26.7025 123.847 24.8284L124.608 25.2332C123.521 27.4382 122.201 28.4257 120.303 28.4257C117.366 28.4257 115.466 25.9938 115.466 22.1677C115.466 18.6234 117.391 16.0656 120.047 16.0656C122.81 16.0656 124.633 18.4195 124.76 22.1677H117.821ZM122.403 21.2821C122.428 18.5734 121.593 16.9522 120.175 16.9522C118.758 16.9522 117.871 18.6244 117.844 21.2821H122.403ZM134.406 25.4621C133.547 27.4392 132.382 28.3237 130.735 28.3237C129.621 28.3237 128.759 27.8939 128.277 27.0823C127.796 26.2727 127.645 25.4871 127.645 23.587V19.2321C127.645 17.5599 127.416 17.206 126.352 17.206H126.076V16.4204L129.773 16.2435V24.2457C129.773 25.3362 129.849 25.8409 130.078 26.3237C130.279 26.8304 130.786 27.1603 131.343 27.1603C132.202 27.1603 133.014 26.6026 133.547 25.588C134.027 24.7285 134.205 23.8169 134.205 22.3726V19.2321C134.205 17.5599 133.976 17.206 132.914 17.206H132.531V16.4204L136.333 16.2435V25.2342C136.333 26.9044 136.56 27.2862 137.625 27.2862H137.902V28.0709L134.406 28.2488V25.4621ZM142.509 24.2967C142.509 25.3362 142.56 25.7909 142.689 26.2737C142.865 26.8814 143.346 27.2612 143.926 27.2612C144.889 27.2612 145.472 26.2237 145.472 24.4226V24.0698H146.308V24.5495C146.308 27.0314 145.292 28.3227 143.293 28.3227C142.331 28.3227 141.546 28.0179 141.091 27.4611C140.535 26.8035 140.383 26.0688 140.383 24.2957V17.281H138.558V16.5713C140.762 16.0396 141.495 15.0261 141.8 12.0375H142.509V16.4184H145.929V17.28H142.509V24.2967ZM154.591 20.0937H153.829C153.399 17.9407 152.437 16.9022 150.866 16.9022C149.776 16.9022 148.969 17.6618 148.969 18.6743C148.969 19.6359 149.474 20.0937 151.072 20.6004C152.69 21.1312 153.375 21.435 153.933 21.8668C154.843 22.5755 155.275 23.4621 155.275 24.6005C155.275 26.7785 153.705 28.3237 151.473 28.3237C150.462 28.3237 149.878 28.1198 148.639 27.3862C148.556 27.3308 148.461 27.2961 148.362 27.2852C148.182 27.2852 148.032 27.4611 147.93 27.791L147.854 28.0699H147.145V23.7909H147.854C148.182 24.9793 148.436 25.615 148.84 26.1448C149.474 27.0064 150.435 27.5121 151.473 27.5121C152.639 27.5121 153.501 26.6265 153.501 25.4621C153.501 24.7285 153.121 24.0698 152.463 23.663C151.904 23.3091 151.879 23.3091 150.235 22.7514C148.207 22.0927 147.269 21.0052 147.269 19.357C147.269 17.4829 148.662 16.1665 150.69 16.1665C151.5 16.1665 152.359 16.4194 153.07 16.8502C153.222 16.9262 153.347 16.9782 153.45 16.9782C153.602 16.9782 153.753 16.7742 153.829 16.4204H154.591V20.0937ZM165.705 25.1073C164.793 27.3862 163.503 28.4257 161.553 28.4257C158.64 28.4257 156.639 25.8939 156.639 22.1957C156.639 18.5984 158.767 16.0666 161.804 16.0666C163.907 16.0666 165.553 17.5099 165.553 19.335C165.553 20.2706 164.944 20.9303 164.11 20.9303C163.377 20.9303 162.82 20.3455 162.82 19.5609C162.82 18.8533 163.326 18.2695 164.008 18.2695C164.11 18.2695 164.16 18.2695 164.262 18.3445C163.883 17.4579 163.048 16.9512 162.033 16.9512C160.083 16.9512 159.096 18.6983 159.096 22.1947C159.096 25.765 160.034 27.4611 161.957 27.4611C163.225 27.4611 164.186 26.6026 164.895 24.7774L165.705 25.1073ZM174.796 20.5225C174.796 19.0552 174.722 18.4704 174.417 18.0157C174.139 17.5099 173.684 17.256 173.15 17.256C172.314 17.256 171.53 17.8138 171.049 18.7763C170.592 19.7138 170.414 20.7004 170.414 22.4465V25.2332C170.414 26.9314 170.643 27.2852 171.707 27.2852H172.111V28.0699H166.59V27.2852H166.996C168.059 27.2852 168.286 26.9044 168.286 25.2332V13.9886C168.286 12.3174 168.059 11.9635 166.996 11.9635H166.717V11.1769L170.414 11V18.5204C171.225 16.8752 172.213 16.1665 173.683 16.1665C174.746 16.1665 175.608 16.5464 176.116 17.255C176.746 18.1406 176.924 18.9522 176.924 21.1552V25.2332C176.924 26.9314 177.153 27.2852 178.217 27.2852H178.494V28.0699H174.796V20.5225ZM182.059 22.1677C182.086 25.8659 182.945 27.4382 184.948 27.4382C186.315 27.4382 187.201 26.7025 188.09 24.8284L188.848 25.2332C187.76 27.4382 186.443 28.4257 184.543 28.4257C181.605 28.4257 179.705 25.9938 179.705 22.1677C179.705 18.6234 181.63 16.0656 184.291 16.0656C187.051 16.0656 188.875 18.4195 189 22.1677H182.059ZM186.644 21.2821C186.667 18.5734 185.833 16.9522 184.415 16.9522C182.996 16.9522 182.109 18.6244 182.086 21.2821H186.644ZM106.858 48.8839C106.858 50.2253 106.934 50.6831 107.239 50.9849C107.49 51.2138 107.998 51.3647 108.578 51.3647H109.164V52.1754H102.226V51.3647H102.806C103.389 51.3647 103.893 51.2138 104.151 50.9849C104.452 50.6831 104.53 50.2253 104.53 48.8839V36.094H103.997C102.504 36.094 101.287 36.9036 100.706 38.297C100.376 39.0566 100.224 39.8173 100.097 41.1846L99.3633 41.1336L99.4902 35.2824H111.976L112.076 41.1336L111.319 41.1846C110.837 37.4864 109.696 36.094 107.241 36.094H106.86V48.8839H106.858ZM115.616 46.2762C115.639 49.9724 116.502 51.5427 118.501 51.5427C119.869 51.5427 120.756 50.809 121.643 48.9359L122.402 49.3387C121.313 51.5427 119.995 52.5302 118.097 52.5302C115.16 52.5302 113.258 50.0974 113.258 46.2762C113.258 42.7289 115.183 40.1731 117.841 40.1731C120.602 40.1731 122.425 42.527 122.554 46.2762H115.616ZM120.199 45.3886C120.222 42.6789 119.386 41.0567 117.968 41.0567C116.551 41.0567 115.664 42.7289 115.64 45.3886H120.199ZM127.616 49.3377C127.616 51.0349 127.845 51.3907 128.908 51.3907H129.314V52.1744H123.792V51.3907H124.197C125.259 51.3907 125.488 51.0359 125.488 49.3377V38.0951C125.488 36.4239 125.259 36.07 124.197 36.07H123.921V35.2834L127.616 35.1055V49.3377ZM132.857 46.2762C132.882 49.9724 133.744 51.5427 135.743 51.5427C137.111 51.5427 138 50.809 138.886 48.9359L139.646 49.3387C138.557 51.5427 137.239 52.5302 135.339 52.5302C132.402 52.5302 130.503 50.0974 130.503 46.2762C130.503 42.7289 132.429 40.1731 135.085 40.1731C137.846 40.1731 139.671 42.527 139.796 46.2762H132.857ZM137.441 45.3886C137.466 42.6789 136.63 41.0567 135.212 41.0567C133.795 41.0567 132.906 42.7289 132.883 45.3886H137.441ZM149.519 52.1744L145.873 46.2992L144.86 47.1867V49.3377C144.86 51.0349 145.086 51.3907 146.15 51.3907H146.632V52.1744H141.034V51.3907H141.44C142.504 51.3907 142.731 51.0119 142.731 49.3377V38.0951C142.731 36.4239 142.504 36.07 141.44 36.07H141.161V35.2834L144.859 35.1055V45.9703L148.279 43.0337C148.734 42.6289 149.013 42.1971 149.013 41.8683C149.013 41.4885 148.683 41.3105 147.921 41.3105H147.542V40.5259H152.532V41.3105H152.278C151.544 41.3105 151.215 41.4885 150.175 42.425L147.391 44.9068L150.452 49.7955C151.214 51.0119 151.695 51.3907 152.506 51.3907H152.707V52.1744H149.519ZM164.053 46.3501C164.053 50.0474 162.001 52.5302 158.911 52.5302C155.848 52.5302 153.796 50.0484 153.796 46.3771C153.796 42.6029 155.848 40.1731 158.987 40.1731C162.001 40.1721 164.053 42.6789 164.053 46.3501ZM156.834 42.5C156.43 43.4115 156.252 44.603 156.252 46.2992C156.252 49.9464 157.113 51.7196 158.911 51.7196C160.709 51.7196 161.596 49.9474 161.596 46.3501C161.596 44.604 161.418 43.3875 161.014 42.5C160.582 41.5384 159.797 40.9797 158.888 40.9797C158.05 40.9807 157.238 41.5894 156.834 42.5ZM179.067 45.0598C179.067 43.4385 178.965 42.6019 178.739 42.1461C178.461 41.6404 178.006 41.3625 177.447 41.3625C176.738 41.3625 176.104 41.8173 175.675 42.6289C175.243 43.4395 175.142 44.0712 175.142 46.1742V49.3387C175.142 51.0359 175.371 51.3917 176.433 51.3917H176.789V52.1754H173.014V45.4406C173.014 43.2886 172.963 42.7808 172.66 42.1981C172.383 41.6654 171.927 41.3635 171.343 41.3635C170.632 41.3635 170.002 41.8183 169.596 42.6299C169.19 43.4645 169.09 44.1982 169.09 46.1752V49.3397C169.09 51.0639 169.293 51.3927 170.38 51.3927H170.735V52.1764H165.265V51.3927H165.669C166.707 51.3927 166.961 50.9869 166.961 49.3397V43.3396C166.961 41.7183 166.707 41.3125 165.669 41.3125H165.392V40.5279L168.935 40.35V42.427C169.417 41.1356 170.608 40.275 171.901 40.275C173.32 40.275 174.23 40.9827 174.864 42.5809C175.596 41.0097 176.611 40.275 178.006 40.275C179.093 40.275 180.056 40.7798 180.562 41.6164C181.043 42.352 181.196 43.1886 181.196 44.7839V49.3407C181.196 51.0149 181.425 51.3937 182.489 51.3937H182.763V52.1774H179.068V45.0598H179.067Z" fill="#9A9A9A"/>
<path fill-rule="evenodd" clip-rule="evenodd" d="M2 30.011H10.299V38.311H2V30.011ZM26.8921 30.011H35.1912V38.311H26.8921V30.011ZM51.7842 30.011H60.0823V38.311H51.7842V30.011Z" fill="#9A9A9A"/>
<path d="M85.2717 30.011H76.9727V38.311H85.2717V30.011Z" fill="#9A9A9A"/>
</svg>
