<svg width="202" height="64" viewBox="0 0 202 64" fill="none" xmlns="http://www.w3.org/2000/svg">
<path d="M199.924 39.4214C199.782 39.4213 199.642 39.4491 199.512 39.5032C199.381 39.5573 199.262 39.6365 199.162 39.7365C199.062 39.8364 198.983 39.9551 198.929 40.0857C198.875 40.2163 198.847 40.3563 198.847 40.4977C198.847 40.6391 198.874 40.7791 198.928 40.9097C198.983 41.0404 199.062 41.1591 199.162 41.2591C199.262 41.3591 199.38 41.4385 199.511 41.4926C199.642 41.5468 199.782 41.5746 199.923 41.5747C200.209 41.5748 200.482 41.4614 200.684 41.2596C200.886 41.0578 201 40.7839 201 40.4984C201 40.2129 200.887 39.939 200.685 39.737C200.483 39.535 200.209 39.4215 199.924 39.4214ZM199.924 41.4062C199.683 41.4062 199.452 41.3105 199.282 41.1402C199.111 40.9699 199.016 40.7389 199.016 40.498C199.016 40.2572 199.111 40.0262 199.282 39.8559C199.452 39.6856 199.683 39.5899 199.924 39.5899C200.165 39.5899 200.396 39.6856 200.566 39.8559C200.736 40.0262 200.832 40.2572 200.832 40.498C200.832 40.7389 200.736 40.9699 200.566 41.1402C200.396 41.3105 200.165 41.4062 199.924 41.4062ZM200.274 40.3149C200.274 40.1189 200.134 40.0026 199.929 40.0026H199.584V40.9835H199.754V40.6276H199.938L200.115 40.9835H200.297L200.105 40.5909C200.158 40.5673 200.202 40.5283 200.232 40.479C200.262 40.4298 200.277 40.3725 200.274 40.3149ZM199.922 40.4777H199.755V40.1528H199.922C200.035 40.1528 200.104 40.21 200.104 40.3149C200.104 40.4199 200.035 40.4791 199.922 40.4791V40.4777ZM73.1428 25.895H75.0108V29.593H72.8247C71.1412 29.593 70.0606 30.419 70.0606 32.1033V41.3994H66.0642V25.8957H70.0606V28.5006C70.4104 26.6579 71.6813 25.895 73.1428 25.895ZM81.1695 22.2088C81.1694 22.5259 81.1068 22.8399 80.9854 23.1329C80.8639 23.4258 80.686 23.692 80.4616 23.9161C80.2373 24.1403 79.971 24.318 79.678 24.4393C79.385 24.5605 79.0709 24.6229 78.7538 24.6227C78.1137 24.6225 77.4998 24.3681 77.0472 23.9155C76.5947 23.4628 76.3403 22.8489 76.3402 22.2088C76.3402 20.8423 77.3883 19.7621 78.7549 19.7621C80.121 19.7621 81.1695 20.8423 81.1695 22.2088ZM76.7618 25.8946H80.7461V41.3987H76.7604L76.7618 25.8946ZM91.7237 25.633C90.025 25.6247 88.3712 26.1776 87.019 27.2058V25.8946H83.034V45.9499H87.019V40.0882C88.3711 41.1165 90.025 41.6696 91.7237 41.6614C96.1499 41.6614 99.7354 38.0734 99.7354 33.6472C99.7354 29.2217 96.1499 25.6337 91.7237 25.6337M91.3727 38.001C88.9681 38.001 87.019 36.0518 87.019 33.6476C87.019 31.2433 88.9681 29.2938 91.3727 29.2938C93.7774 29.2938 95.7261 31.2429 95.7261 33.6476C95.7261 36.0522 93.777 38.0006 91.3727 38.001ZM172.807 36.502C172.807 39.4914 170.243 41.6614 166.709 41.6614C163.176 41.6614 160.482 39.4399 160.482 36.2592V36.1728H164.382V36.2592C164.382 37.5865 165.33 38.4786 166.742 38.4786C168.154 38.4786 169.004 37.8182 169.004 36.8358C169.004 35.9051 168.375 35.3846 166.683 34.9166L164.456 34.309C162.115 33.6754 160.773 32.1504 160.773 30.1249C160.773 27.5225 163.228 25.6337 166.613 25.6337C169.997 25.6337 172.323 27.5235 172.323 30.3376V30.4258H168.649V30.3376C168.649 29.3823 167.754 28.6341 166.613 28.6341C165.413 28.6341 164.576 29.1846 164.576 29.9732C164.576 30.7621 165.172 31.2511 166.702 31.6492L169.028 32.2871C172.152 33.1207 172.807 35.0394 172.807 36.502ZM113.882 27.2062C112.529 26.1774 110.874 25.6244 109.175 25.633C104.749 25.633 101.161 29.2213 101.161 33.6472C101.161 38.0731 104.75 41.6611 109.175 41.6611C110.874 41.6692 112.528 41.1162 113.88 40.0879V41.3991H117.865V25.8954H113.88L113.882 27.2062ZM113.882 33.6476C113.882 36.0518 111.932 38.001 109.528 38.0006C107.123 38.0006 105.174 36.0511 105.175 33.6468C105.175 31.2422 107.124 29.2935 109.528 29.2935C111.932 29.2945 113.881 31.2436 113.881 33.6476H113.882ZM132.263 27.2062C130.911 26.1779 129.257 25.6249 127.559 25.633C123.133 25.633 119.544 29.2213 119.544 33.6472C119.544 38.0731 123.133 41.6611 127.559 41.6611C129.257 41.6691 130.911 41.1161 132.263 40.0879V41.3991H136.249V20.3764H132.263V27.2062ZM127.91 38.0006C125.506 38.0006 123.556 36.0518 123.556 33.6476C123.556 31.2433 125.505 29.2942 127.909 29.2935C130.313 29.2935 132.262 31.2426 132.263 33.6468C132.263 36.0511 130.314 38.0006 127.91 38.0006ZM154.76 25.8968H158.746V41.3991H154.76V25.8968ZM159.167 22.2102C159.167 22.5273 159.105 22.8413 158.984 23.1343C158.862 23.4272 158.684 23.6934 158.46 23.9176C158.236 24.1418 157.97 24.3197 157.677 24.4411C157.384 24.5624 157.07 24.6249 156.753 24.6249C156.436 24.6249 156.122 24.5624 155.829 24.4411C155.536 24.3197 155.27 24.1418 155.045 23.9176C154.821 23.6934 154.643 23.4272 154.522 23.1343C154.401 22.8413 154.338 22.5273 154.338 22.2102C154.338 20.8437 155.387 19.7635 156.753 19.7635C158.119 19.7635 159.165 20.8419 159.165 22.2084L159.167 22.2102ZM182.027 25.6348C177.602 25.6348 174.014 29.2228 174.014 33.649C174.014 38.0752 177.602 41.6629 182.027 41.6629C186.453 41.6629 190.039 38.0748 190.039 33.6486C190.039 29.2231 186.451 25.6333 182.025 25.6333L182.027 25.6348ZM182.027 38.0024C179.623 38.0024 177.674 36.0533 177.674 33.649C177.674 31.2447 179.623 29.2952 182.027 29.2952C184.432 29.2952 186.381 31.2444 186.381 33.649C186.38 36.0529 184.431 38.0017 182.027 38.0006H182.025L182.027 38.0024ZM68.0197 23.933H62.3594V41.3991H58.3873V23.933H52.7266V20.3764H68.0183L68.0197 23.933ZM148.903 25.895H153.09L147.74 41.3991H142.946L137.624 25.8954H141.811L145.358 37.1535L148.903 25.895ZM198.963 25.895H200.832V29.593H198.646C196.962 29.593 195.881 30.419 195.881 32.1033V41.3994H191.885V25.8957H195.881V28.5006C196.231 26.6579 197.502 25.895 198.963 25.895ZM16.8885 33.4416C16.8885 35.7391 15.0258 37.6018 12.7286 37.6018C10.4315 37.6018 8.56872 35.7391 8.56872 33.4416C8.56872 31.1444 10.4315 29.2813 12.7286 29.2813C15.0258 29.2813 16.8885 31.1444 16.8885 33.4416ZM36.1755 29.2813C33.8784 29.2813 32.0156 31.1444 32.0156 33.4416C32.0156 35.7391 33.8784 37.6018 36.1755 37.6018C38.4727 37.6018 40.3354 35.7391 40.3354 33.4416C40.3347 31.1455 38.4738 29.2838 36.1777 29.2828L36.1755 29.2813ZM47.9042 33.4416C47.9042 39.9158 42.6512 45.1649 36.1755 45.1649C33.2216 45.17 30.3757 44.0551 28.2113 42.0448L24.4573 46.1287L20.7018 42.0402C18.5375 44.0526 15.6904 45.1691 12.7351 45.1645C6.26405 45.1645 1.01285 39.9158 1.01285 33.4412C1.01056 31.8103 1.34953 30.1969 2.00798 28.7048C2.66643 27.2127 3.62978 25.8749 4.83612 24.7773L1 20.6035H9.52329C18.5417 14.4655 30.3949 14.4655 39.4134 20.6035H47.9145L44.0788 24.7773C45.2855 25.8747 46.2493 27.2125 46.9081 28.7047C47.567 30.1969 47.9062 31.8104 47.9042 33.4416ZM20.6647 33.4416C20.6647 29.0603 17.1127 25.5077 12.7315 25.5077C8.35025 25.5077 4.79828 29.0603 4.79828 33.4416C4.79828 37.8228 8.35025 41.3755 12.7315 41.3755C17.1127 41.3755 20.6643 37.8242 20.6647 33.443V33.4416ZM33.2601 21.5969C30.4703 20.4347 27.478 19.8363 24.4558 19.8363C21.4336 19.8363 18.4414 20.4347 15.6516 21.5969C20.66 23.5139 24.4573 27.9919 24.4573 33.2131C24.4573 27.9923 28.2534 23.5139 33.2601 21.5969ZM44.1109 33.4412C44.1109 29.0596 40.5589 25.5073 36.1777 25.5073C31.7964 25.5073 28.2445 29.0593 28.2445 33.4412C28.2445 37.8225 31.7964 41.3751 36.1777 41.3751C40.5589 41.3751 44.1109 37.8225 44.1109 33.4412Z" fill="#002B11"/>
</svg>
