<svg width="234" height="64" viewBox="0 0 234 64" fill="none" xmlns="http://www.w3.org/2000/svg">
<path d="M205.802 26.0961C207.421 26.0962 208.823 26.4922 210.009 27.2859C211.204 28.0689 212.129 29.1435 212.785 30.5083C213.441 31.8627 213.77 33.408 213.77 35.1433C213.77 36.8574 213.448 38.3978 212.803 39.7628C212.157 41.1276 211.247 42.2071 210.073 43.0007C208.898 43.7943 207.522 44.1923 205.945 44.1924C204.273 44.1924 202.871 43.7944 201.738 43.0007C201.667 42.9508 201.6 42.8959 201.531 42.8438V51.3348H197.675V26.5728H201.056V27.8013C201.258 27.6187 201.467 27.4446 201.69 27.2859C202.801 26.4922 204.172 26.0961 205.802 26.0961ZM96.6565 34.8255C96.6565 35.3545 96.6929 35.9533 96.7669 36.6198C96.841 37.2759 97.012 37.9108 97.2766 38.5246C97.5516 39.1277 97.9529 39.6251 98.4818 40.0166C99.0214 40.4081 99.7462 40.6036 100.656 40.6038C101.143 40.6038 101.625 40.5242 102.101 40.3654C102.577 40.2068 103.005 39.9379 103.386 39.5574C103.778 39.1659 104.091 38.6303 104.324 37.953C104.557 37.2758 104.673 36.4184 104.673 35.3816V26.5728H108.513V43.7157H105.134V41.8032C104.698 42.3236 104.187 42.7775 103.593 43.1596C102.493 43.858 101.138 44.2079 99.5301 44.2079C98.2603 44.2079 97.2126 43.9956 96.3872 43.5723C95.5619 43.1491 94.9052 42.6103 94.4184 41.9544C93.9316 41.2982 93.572 40.5985 93.3391 39.8578C93.1064 39.1172 92.952 38.419 92.878 37.7631C92.8145 37.0964 92.783 36.5559 92.783 36.1432V26.5728H96.6565V34.8255ZM119.324 26.0961C120.657 26.0962 121.838 26.3016 122.864 26.7143C123.901 27.127 124.737 27.7157 125.371 28.4776C126.006 29.2394 126.397 30.1332 126.546 31.1594L122.641 31.8589C122.546 31.1289 122.212 30.5518 121.641 30.1285C121.081 29.7053 120.329 29.4665 119.388 29.4135C118.488 29.3606 117.762 29.4982 117.212 29.8262C116.662 30.1436 116.386 30.5933 116.386 31.1749C116.386 31.5025 116.498 31.7832 116.72 32.0158C116.942 32.2486 117.386 32.4826 118.053 32.7154C118.73 32.9482 119.736 33.2332 121.07 33.5718C122.435 33.921 123.526 34.324 124.341 34.779C125.165 35.2233 125.758 35.7575 126.117 36.3815C126.488 37.0059 126.674 37.7636 126.674 38.6525C126.673 40.3772 126.043 41.7318 124.784 42.7159C123.536 43.7 121.805 44.1924 119.593 44.1924C117.477 44.1924 115.758 43.7148 114.435 42.7624C113.112 41.81 112.308 40.4722 112.023 38.7474L115.927 38.1448C116.128 38.991 116.573 39.6579 117.26 40.1445C117.948 40.6311 118.815 40.8749 119.863 40.875C120.783 40.875 121.493 40.6942 121.99 40.3344C122.498 39.9641 122.752 39.4617 122.752 38.8269C122.752 38.4357 122.657 38.1237 122.467 37.891C122.287 37.6476 121.884 37.4137 121.26 37.1915C120.635 36.9693 119.678 36.6889 118.388 36.3505C116.949 35.9695 115.805 35.5617 114.958 35.1278C114.112 34.6834 113.503 34.1595 113.133 33.5563C112.763 32.9533 112.577 32.2235 112.577 31.3667C112.577 30.2982 112.857 29.3661 113.418 28.5725C113.979 27.7788 114.763 27.1705 115.768 26.7472C116.773 26.3134 117.959 26.0961 119.324 26.0961ZM153.313 20.3818C156.128 20.3818 158.356 21.0383 159.996 22.3505C161.647 23.6521 162.763 25.4825 163.345 27.842L159.44 28.4601C159.006 27.106 158.297 26.0263 157.313 25.2222C156.329 24.4079 155.075 24.0015 153.552 24.0015C152.017 23.9803 150.742 24.3135 149.726 25.0013C148.711 25.6892 147.943 26.6572 147.424 27.906C146.917 29.1546 146.663 30.6152 146.663 32.2871C146.663 33.9589 146.917 35.4148 147.424 36.6528C147.932 37.8799 148.695 38.8368 149.711 39.5245C150.737 40.2122 152.017 40.5671 153.552 40.5883C154.705 40.5988 155.716 40.3934 156.584 39.9701C157.452 39.5363 158.16 38.8845 158.71 38.0169C159.26 37.1386 159.631 36.0428 159.822 34.7306H155.79V31.731H163.885C163.906 31.9003 163.923 32.149 163.934 32.477C163.944 32.8045 163.949 33.0003 163.949 33.0641C163.949 35.223 163.52 37.1443 162.663 38.8269C161.816 40.4986 160.599 41.81 159.012 42.7624C157.425 43.7148 155.525 44.1924 153.313 44.1924C151.832 44.1924 150.441 43.9318 149.139 43.4134C147.848 42.8843 146.709 42.1119 145.725 41.0959C144.752 40.0801 143.991 38.8365 143.441 37.3659C142.89 35.8845 142.615 34.1917 142.615 32.2871C142.615 29.7897 143.081 27.6561 144.012 25.8888C144.943 24.1114 146.218 22.7516 147.837 21.8099C149.456 20.8576 151.282 20.3819 153.313 20.3818ZM186.32 26.0961C187.844 26.0962 189.182 26.3449 190.335 26.8422C191.499 27.3394 192.361 28.1538 192.922 29.2856C193.229 29.8888 193.415 30.5089 193.478 31.1439C193.542 31.7682 193.573 32.4513 193.573 33.192V43.7157H190.225V41.406C189.583 42.2428 188.864 42.8859 188.066 43.334C187.039 43.9055 185.753 44.1924 184.208 44.1924C182.97 44.1924 181.922 43.9585 181.065 43.4929C180.208 43.0167 179.556 42.3867 179.112 41.6036C178.678 40.8208 178.463 39.9582 178.463 39.0168C178.463 38.1915 178.6 37.4503 178.875 36.7942C179.151 36.128 179.574 35.5573 180.145 35.0813C180.716 34.5945 181.457 34.1965 182.367 33.8896C183.055 33.6674 183.859 33.4668 184.78 33.287C185.711 33.1071 186.716 32.9429 187.795 32.7948C188.453 32.699 189.129 32.5961 189.822 32.4925C189.753 31.5943 189.499 30.9108 189.05 30.4444C188.511 29.8837 187.6 29.6035 186.32 29.6034C185.548 29.6034 184.8 29.7842 184.08 30.144C183.361 30.5038 182.858 31.1226 182.573 32.0003L179.081 30.9055C179.504 29.4559 180.308 28.2921 181.493 27.4138C182.689 26.5354 184.299 26.0961 186.32 26.0961ZM135.167 26.5728H140.199V29.5724H135.167V36.4939C135.167 37.1815 135.171 37.7853 135.182 38.3037C135.203 38.8218 135.314 39.2451 135.515 39.5729C135.896 40.2077 136.505 40.5626 137.341 40.6367C138.177 40.7108 139.13 40.6676 140.199 40.5088V43.7157C139.066 43.9274 137.954 44.0168 136.864 43.9851C135.785 43.9639 134.816 43.7683 133.959 43.3979C133.102 43.017 132.452 42.4184 132.008 41.6036C131.617 40.8629 131.409 40.107 131.388 39.3346C131.367 38.562 131.357 37.6884 131.357 36.7148V29.5724H128.245V26.5728H131.357V21.8099H135.167V26.5728ZM79.4632 24.4452H72.067V43.7157H68.24V24.4452H60.8438V20.8585H79.4632V24.4452ZM88.5007 26.5089C89.0402 26.4666 89.5643 26.4882 90.0722 26.5728V30.144C89.5642 29.9959 88.9755 29.9477 88.3088 30.0006C87.6531 30.0536 87.0609 30.2394 86.532 30.5567C86.0029 30.8425 85.5684 31.2071 85.2298 31.6516C84.9018 32.096 84.658 32.6051 84.4993 33.1765C84.3408 33.7371 84.2629 34.3462 84.2629 35.0019V43.7157H80.4204V26.5728H83.8017V29.3147C83.9311 29.0834 84.0726 28.8618 84.23 28.652C84.5898 28.1758 85.0192 27.7846 85.5166 27.4777C85.9399 27.192 86.4058 26.9699 86.9137 26.8112C87.4321 26.6419 87.9611 26.5406 88.5007 26.5089ZM175.217 26.5089C175.757 26.4666 176.281 26.4882 176.789 26.5728V30.144C176.281 29.9959 175.692 29.9477 175.025 30.0006C174.369 30.0536 173.777 30.2394 173.248 30.5567C172.719 30.8425 172.285 31.2071 171.946 31.6516C171.618 32.096 171.374 32.6051 171.216 33.1765C171.057 33.7371 170.979 34.3462 170.979 35.0019V43.7157H167.137V26.5728H170.518V29.3147C170.648 29.0834 170.789 28.8618 170.946 28.652C171.306 28.1758 171.736 27.7846 172.233 27.4777C172.656 27.192 173.122 26.9699 173.63 26.8112C174.148 26.6419 174.678 26.5406 175.217 26.5089ZM220.651 28.4776C221.088 27.9635 221.601 27.5187 222.191 27.1444C223.292 26.4355 224.646 26.0806 226.254 26.0806C227.524 26.0807 228.572 26.291 229.397 26.7143C230.223 27.1376 230.879 27.6781 231.366 28.3342C231.853 28.9901 232.213 29.6884 232.445 30.4289C232.678 31.1696 232.826 31.8743 232.889 32.541C232.963 33.1967 233 33.7309 233 34.1434V43.7157H229.126V35.4611C229.126 34.9215 229.09 34.3228 229.016 33.6668C228.942 33.0113 228.767 32.3821 228.492 31.7794C228.228 31.1657 227.825 30.6615 227.285 30.27C226.756 29.8787 226.036 29.6828 225.127 29.6828C224.64 29.6829 224.159 29.7626 223.683 29.9212C223.207 30.0799 222.772 30.3552 222.381 30.7466C222 31.1275 221.693 31.6567 221.46 32.3336C221.228 33.0001 221.112 33.8577 221.112 34.905V43.7157H217.238V20.8585H220.651V28.4776ZM187.987 35.9223C187.161 36.0598 186.452 36.1925 185.859 36.3195C185.266 36.4359 184.742 36.5667 184.287 36.7148C183.843 36.8735 183.467 37.0593 183.16 37.2709C182.853 37.4825 182.616 37.7264 182.447 38.0014C182.288 38.2766 182.208 38.5999 182.208 38.9703C182.208 39.3932 182.315 39.7682 182.526 40.0961C182.738 40.4136 183.044 40.6671 183.447 40.8576C183.859 41.048 184.367 41.1443 184.97 41.1444C185.837 41.1444 186.578 40.9901 187.192 40.6832C187.806 40.3764 188.293 40.0018 188.653 39.5574C189.023 39.1132 189.272 38.695 189.399 38.3037C189.6 37.8169 189.711 37.2597 189.732 36.6353C189.751 36.2594 189.762 35.9261 189.769 35.6355C189.108 35.7406 188.514 35.8344 187.987 35.9223ZM205.23 29.5239C204.257 29.524 203.463 29.7628 202.849 30.239C202.235 30.7046 201.781 31.3612 201.485 32.2077C201.199 33.0435 201.056 34.0219 201.056 35.1433C201.056 36.2545 201.199 37.2343 201.485 38.0809C201.781 38.9271 202.24 39.589 202.864 40.0651C203.499 40.5307 204.332 40.7627 205.358 40.7627C206.352 40.7625 207.172 40.5138 207.817 40.0166C208.463 39.5193 208.94 38.848 209.247 38.0014C209.565 37.1442 209.722 36.191 209.722 35.1433C209.722 34.1065 209.565 33.1646 209.247 32.3181C208.93 31.4612 208.437 30.7847 207.771 30.2874C207.104 29.7794 206.257 29.5239 205.23 29.5239Z" fill="#4285F4"/>
<g clip-path="url(#clip0_17171_1752)">
<path d="M48.2883 31.8115C48.2883 32.1959 48.2789 32.5797 48.2595 32.9633C48.2222 33.7308 48.1468 34.496 48.0338 35.256C47.9775 35.636 47.912 36.0146 47.8374 36.3915C47.6867 37.1451 47.4998 37.8911 47.2773 38.6267C47.1657 38.9942 47.0451 39.3589 46.9157 39.7205C46.6568 40.4441 46.3624 41.1544 46.0337 41.8491C45.87 42.1966 45.6973 42.5398 45.5159 42.8784C45.335 43.2173 45.1456 43.5516 44.9478 43.8809C44.5531 44.5402 44.126 45.1796 43.668 45.7967C43.4393 46.1052 43.2029 46.4081 42.9592 46.7049C42.7154 47.0018 42.4645 47.2927 42.2066 47.5775C41.9486 47.8622 41.6834 48.1404 41.4114 48.4118C41.14 48.6838 40.8618 48.949 40.5771 49.207C40.2924 49.4649 40.0015 49.7158 39.7047 49.9596C39.1107 50.4473 38.493 50.9054 37.8538 51.3322C37.5345 51.5455 37.21 51.7509 36.8806 51.9482C36.5512 52.1459 36.2169 52.3353 35.878 52.5162C35.5394 52.6976 35.1962 52.8703 34.8487 53.0341C34.5014 53.1986 34.1501 53.3544 33.7951 53.5014C33.4403 53.6485 33.0818 53.7868 32.7201 53.916C32.3585 54.0454 31.9938 54.166 31.6264 54.2777C30.8907 54.5002 30.1448 54.6871 29.3911 54.8377C28.6374 54.987 27.8769 55.0998 27.1123 55.1755C26.7298 55.2132 26.3469 55.2416 25.963 55.2598C25.5795 55.2793 25.1955 55.2887 24.8111 55.2887C24.4266 55.2887 24.0427 55.2793 23.6593 55.2598C22.8916 55.2226 22.1262 55.1473 21.366 55.0342C20.9861 54.9779 20.6077 54.9124 20.2309 54.8377C19.4773 54.6871 18.7313 54.5002 17.9957 54.2777C17.6281 54.166 17.2633 54.0454 16.9015 53.916C16.1779 53.6573 15.4675 53.363 14.7729 53.0341C14.4255 52.8702 14.0822 52.6976 13.7436 52.5162C13.0661 52.1539 12.4067 51.7588 11.7677 51.3322C11.4483 51.1186 11.1341 50.8973 10.8255 50.6684C10.517 50.4395 10.2142 50.2032 9.91722 49.9596C9.62046 49.7156 9.32953 49.4647 9.04468 49.207C8.75996 48.949 8.48176 48.6838 8.21036 48.4118C7.93847 48.1404 7.67344 47.8622 7.41553 47.5775C6.64082 46.7234 5.93037 45.8131 5.28997 44.8542C5.07682 44.5348 4.87142 44.2103 4.67395 43.8809C4.08105 42.8921 3.56194 41.8608 3.12086 40.7955C2.97408 40.4405 2.83575 40.0821 2.70599 39.7205C2.5768 39.3589 2.45642 38.9942 2.34495 38.6267C2.23322 38.259 2.13084 37.8885 2.03789 37.5156C1.94437 37.143 1.86002 36.7682 1.78493 36.3915C1.7101 36.0146 1.64443 35.6361 1.58797 35.256C1.41812 34.1157 1.33322 32.9644 1.33399 31.8115C1.33399 31.4269 1.34288 31.043 1.36218 30.6597C1.3994 29.892 1.47472 29.1266 1.58784 28.3663C1.70071 27.6063 1.85087 26.8522 2.03777 26.1068C2.13075 25.7341 2.23318 25.3637 2.34495 24.9962C2.45646 24.6285 2.57688 24.2637 2.70611 23.9019C2.83588 23.5404 2.97412 23.182 3.12073 22.8269C3.26776 22.4719 3.42358 22.1206 3.58806 21.7733C3.75193 21.4258 3.92461 21.0826 4.10592 20.7439C4.28713 20.4052 4.47652 20.071 4.67395 19.7415C4.87153 19.4122 5.07693 19.0877 5.28997 18.7682C5.50354 18.4487 5.72486 18.1344 5.95375 17.8257C6.18264 17.5173 6.419 17.2144 6.66261 16.9175C6.90654 16.6206 7.15763 16.3296 7.41565 16.0449C7.67349 15.7602 7.93843 15.482 8.21023 15.2106C8.48164 14.9387 8.75983 14.6737 9.04455 14.4158C9.32932 14.1577 9.62029 13.9066 9.91722 13.6627C10.2142 13.4192 10.517 13.1828 10.8255 12.954C11.1342 12.7251 11.4485 12.5038 11.768 12.2902C12.0875 12.0772 12.412 11.8718 12.7412 11.6742C13.0707 11.4768 13.405 11.2874 13.7437 11.1062C14.083 10.9246 14.4259 10.7519 14.7731 10.5883C15.1202 10.4241 15.4715 10.2678 15.8267 10.121C16.1817 9.97436 16.5401 9.83612 16.9017 9.70635C17.6254 9.44785 18.3612 9.22467 19.1066 9.03762C19.4793 8.94451 19.8543 8.86033 20.2311 8.78517C20.9848 8.6355 21.7453 8.5226 22.51 8.44687C22.8923 8.40905 23.2756 8.38089 23.6593 8.36242C24.0428 8.34312 24.4267 8.33423 24.8111 8.33423C25.1956 8.33423 25.5796 8.34312 25.963 8.36242C26.7305 8.39975 27.4957 8.47506 28.2558 8.58808C28.6358 8.64472 29.0142 8.71025 29.3912 8.78517C29.7679 8.86025 30.1427 8.94443 30.5153 9.03762C31.2607 9.22465 31.9966 9.44782 32.7203 9.70635C33.0818 9.83603 33.4402 9.97428 33.7952 10.121C34.1503 10.268 34.5016 10.4238 34.8489 10.5883C35.5435 10.9167 36.2216 11.279 36.8807 11.6741C37.21 11.8716 37.5345 12.077 37.8539 12.2902C38.813 12.9304 39.7233 13.6409 40.5772 14.4158C40.862 14.6736 41.1402 14.9386 41.4116 15.2105C41.6836 15.4819 41.9487 15.7601 42.2068 16.0448C42.4645 16.3297 42.7154 16.6207 42.9593 16.9175C43.2029 17.2144 43.4392 17.5173 43.668 17.8257C43.8969 18.1344 44.1183 18.4487 44.3318 18.7682C44.7584 19.4071 45.1535 20.0665 45.5159 20.7439C45.6972 21.0826 45.8699 21.4258 46.0337 21.7733C46.3626 22.4679 46.657 23.1783 46.9157 23.9019C47.0451 24.2637 47.1657 24.6285 47.2773 24.9962C47.4999 25.7318 47.6868 26.4777 47.8374 27.2313C47.912 27.608 47.9776 27.9865 48.0338 28.3663C48.1469 29.1266 48.2223 29.892 48.2595 30.6597C48.2789 31.043 48.2883 31.4269 48.2883 31.8115Z" fill="#4285F4"/>
<path fill-rule="evenodd" clip-rule="evenodd" d="M36.3653 25.3129C35.6436 25.2777 35.009 25.0311 34.4808 24.6081L29.056 29.5397C30.4474 31.4243 30.3596 34.0132 28.8447 35.7921L34.0581 41.2163C35.7141 40.1772 37.9155 41.3751 37.9155 43.3652C37.9155 44.7567 36.77 45.8837 35.3787 45.8837C34.0402 45.8837 32.9485 44.8449 32.8602 43.5235L27.3123 42.7139C26.4671 44.5984 23.6311 43.9813 23.6311 41.9207C23.6311 40.8647 24.4947 40.001 25.5508 40.001C26.5376 40.001 27.3476 40.7237 27.4711 41.6742L33.019 42.4843C33.0893 42.2908 33.1772 42.1148 33.3006 41.956L28.0877 36.5317C26.2032 37.9936 23.5607 37.9405 21.7293 36.426L15.0192 42.9779C16.0763 44.6337 14.8782 46.8525 12.8881 46.8525C11.4966 46.8525 10.3696 45.7077 10.3696 44.3163C10.3696 43.1713 11.1445 42.1851 12.219 41.8856L11.9897 38.2752C10.7744 38.0813 9.84082 37.0426 9.84082 35.7742C9.84082 34.154 11.338 32.9565 12.9234 33.3088L14.5613 29.6807C11.9015 27.9018 13.1699 23.7274 16.3753 23.7274C18.1542 23.7274 19.6156 25.1893 19.6156 26.986C19.6156 29.1345 17.5728 30.6663 15.5122 30.1206L13.8743 33.7487C15.5648 34.9993 15.0544 37.6413 13.0463 38.2048L13.2576 41.8329C13.6451 41.8856 13.9799 42.0264 14.2974 42.2204L21.0075 35.6685C18.3834 32.3752 20.7431 27.4613 24.97 27.4613C26.2737 27.4613 27.4533 27.9544 28.3516 28.7645L33.7765 23.8332C33.4237 23.2875 33.2303 22.6179 33.2655 21.9134L25.9035 20.3461C24.7939 22.8115 21.0779 22.0193 21.0779 19.3073C21.0779 17.9155 22.2049 16.7883 23.596 16.7883C24.9878 16.7883 26.1149 17.9154 26.1149 19.3073L33.4768 20.8917C33.9525 19.6768 35.1321 18.8137 36.5062 18.8137C38.3024 18.8137 39.747 20.2756 39.747 22.0719C39.747 23.5515 38.7603 24.8016 37.4041 25.1895L38.1621 31.7235C39.0773 31.8644 39.7822 32.6566 39.7822 33.608C39.7822 34.6819 38.9191 35.5456 37.8624 35.5456C35.7665 35.5456 35.2026 32.6392 37.1223 31.847L36.3653 25.3129ZM24.97 28.5179C22.7685 28.5179 20.9545 30.3146 20.9545 32.5334C20.9545 34.7528 22.7685 36.5489 24.9699 36.5489C27.1893 36.5489 28.9855 34.7528 28.9855 32.5335C28.9855 30.3146 27.1893 28.5179 24.97 28.5179ZM23.596 17.8448C23.4039 17.8444 23.2136 17.8819 23.036 17.9553C22.8585 18.0287 22.6972 18.1364 22.5614 18.2723C22.4256 18.4082 22.318 18.5696 22.2447 18.7472C22.1715 18.9247 22.134 19.1151 22.1346 19.3072C22.1346 20.1167 22.7864 20.786 23.596 20.786C24.4064 20.786 25.0757 20.1167 25.0757 19.3072C25.0757 18.4966 24.4064 17.8448 23.596 17.8448ZM37.7746 32.7447C36.6471 32.9035 36.8053 34.4883 37.8624 34.4883C39.0599 34.4883 38.9716 32.6213 37.7746 32.7447ZM12.448 37.2361C14.3679 37.0951 14.2269 34.295 12.3777 34.295C11.5671 34.295 10.8979 34.9641 10.8979 35.7742C10.8979 36.6194 11.6197 37.2892 12.448 37.2361ZM33.9352 43.136C33.8117 44.0697 34.4982 44.8451 35.3787 44.8451C36.1893 44.8451 36.8584 44.1753 36.8584 43.3652C36.8584 41.5512 34.1812 41.3751 33.9351 43.1362L33.9352 43.136ZM25.5508 41.0581C24.4064 41.0581 24.4064 42.8017 25.5508 42.8017C26.7136 42.8017 26.6963 41.0581 25.5508 41.0581ZM16.3753 24.7841C15.16 24.7841 14.1738 25.7708 14.1738 26.9861C14.1738 28.2009 15.16 29.1876 16.3753 29.1876C17.5728 29.1876 18.5596 28.2009 18.5596 26.9861C18.5596 25.7708 17.5728 24.7841 16.3753 24.7841ZM12.8882 42.8547C12.0959 42.8547 11.4263 43.5062 11.4263 44.3163C11.4263 45.1267 12.0775 45.7954 12.8881 45.7954C13.6983 45.7954 14.3679 45.1267 14.3679 44.3163C14.3679 43.5061 13.6981 42.8549 12.8881 42.8549L12.8882 42.8547ZM36.5061 19.8704C35.2908 19.8704 34.3046 20.8564 34.3046 22.0719C34.3046 23.2877 35.2907 24.2734 36.5061 24.2734C37.7214 24.2734 38.7076 23.2877 38.7076 22.0719C38.7076 20.8566 37.7214 19.8704 36.5061 19.8704Z" fill="#E0E0E0"/>
<path d="M21.0938 32.5101L22.4734 32.0964C22.7229 32.0214 22.9621 31.9157 23.1857 31.7818C23.4099 31.6485 23.6165 31.4877 23.8008 31.3031C24.1703 30.933 24.4425 30.4772 24.593 29.9763L25.0062 28.5972L25.4199 29.9768C25.5701 30.4781 25.8427 30.9342 26.2131 31.3038C26.397 31.4883 26.6034 31.649 26.8272 31.7823C27.0508 31.9164 27.2902 32.0219 27.54 32.0964L28.9191 32.5101L27.54 32.9238C27.2903 32.9984 27.0508 33.1038 26.8272 33.2378C26.6033 33.3709 26.397 33.5316 26.2131 33.716C26.0286 33.9002 25.8678 34.1067 25.7343 34.3306C25.6007 34.5543 25.4953 34.7935 25.4204 35.043L25.0062 36.4224L24.5924 35.0434C24.3654 34.287 23.8636 33.6429 23.1857 33.2378C22.962 33.1042 22.7227 32.9988 22.4732 32.9238L21.0938 32.5101Z" fill="#2ECC71"/>
</g>
<defs>
<clipPath id="clip0_17171_1752">
<rect width="47.6211" height="47.6211" fill="white" transform="translate(1 8)"/>
</clipPath>
</defs>
</svg>
