<svg width="147" height="40" viewBox="0 0 147 40" fill="none" xmlns="http://www.w3.org/2000/svg">
<path d="M129.571 16.4006C130.595 16.4006 131.483 16.6502 132.233 17.1501C132.989 17.6434 133.574 18.3204 133.989 19.1802C134.404 20.0334 134.612 21.0069 134.612 22.1001C134.612 23.1799 134.409 24.1503 134 25.0103C133.592 25.87 133.016 26.5501 132.273 27.05C131.53 27.55 130.659 27.8007 129.662 27.8008C128.604 27.8008 127.717 27.55 127 27.05C126.955 27.0186 126.913 26.984 126.869 26.9512V32.3003H124.43V16.7009H126.569V17.4749C126.696 17.3598 126.829 17.2501 126.97 17.1501C127.673 16.6501 128.54 16.4006 129.571 16.4006ZM60.5188 21.8999C60.5188 22.2332 60.5418 22.6104 60.5887 23.0303C60.6355 23.4436 60.7437 23.8436 60.9111 24.2302C61.0851 24.6101 61.339 24.9235 61.6736 25.1702C62.0149 25.4168 62.4735 25.54 63.0491 25.54C63.3571 25.54 63.6623 25.4899 63.9636 25.3899C64.2646 25.2899 64.5356 25.1205 64.7764 24.8809C65.0241 24.6342 65.2224 24.2968 65.3697 23.8701C65.5169 23.4435 65.5904 22.9034 65.5904 22.2502V16.7009H68.0202V27.5005H65.8822V26.2957C65.6061 26.6235 65.2827 26.9094 64.9076 27.1501C64.2113 27.5901 63.3544 27.8105 62.3368 27.8105C61.5334 27.8105 60.8706 27.6768 60.3484 27.4102C59.8263 27.1435 59.4108 26.8041 59.1028 26.3909C58.7949 25.9775 58.5673 25.5367 58.42 25.0701C58.2728 24.6035 58.1751 24.1637 58.1282 23.7505C58.0881 23.3305 58.0682 22.99 58.0682 22.73V16.7009H60.5188V21.8999ZM74.8596 16.4006C75.7031 16.4007 76.45 16.5301 77.0993 16.79C77.7554 17.05 78.284 17.4209 78.6857 17.9009C79.0872 18.3808 79.3349 18.9438 79.4286 19.5903L76.9584 20.031C76.8981 19.5711 76.6871 19.2076 76.3258 18.9409C75.971 18.6743 75.4957 18.5239 74.9 18.4905C74.331 18.4571 73.8715 18.5438 73.5233 18.7505C73.1755 18.9504 73.0012 19.2337 73.0011 19.6001C73.0011 19.8065 73.0717 19.9833 73.2119 20.1299C73.3525 20.2765 73.6339 20.4239 74.0554 20.5706C74.4839 20.7172 75.1206 20.8968 75.9641 21.1101C76.8278 21.3301 77.518 21.5839 78.0335 21.8706C78.5553 22.1505 78.9301 22.487 79.1577 22.8801C79.392 23.2735 79.5095 23.7508 79.5095 24.3108C79.5094 25.3973 79.1109 26.2507 78.3142 26.8706C77.5242 27.4906 76.4293 27.8008 75.03 27.8008C73.691 27.8008 72.6035 27.4999 71.7666 26.8999C70.9298 26.2999 70.4211 25.4571 70.2403 24.3706L72.7105 23.991C72.8378 24.524 73.1189 24.9442 73.554 25.2507C73.989 25.5572 74.5379 25.7109 75.2004 25.7109C75.7829 25.7109 76.2318 25.597 76.5465 25.3704C76.8678 25.1371 77.0282 24.8206 77.0282 24.4207C77.0282 24.1742 76.9683 23.9777 76.848 23.8311C76.7342 23.6777 76.4793 23.5304 76.0843 23.3904C75.6894 23.2504 75.0838 23.0738 74.2675 22.8606C73.3569 22.6206 72.6332 22.3637 72.0976 22.0903C71.562 21.8103 71.1771 21.4803 70.9428 21.1003C70.7085 20.7205 70.591 20.2607 70.5909 19.7209C70.5909 19.0478 70.7683 18.4606 71.123 17.9607C71.4778 17.4607 71.974 17.0775 72.61 16.8108C73.246 16.5375 73.9959 16.4006 74.8596 16.4006ZM96.3634 12.8008C98.1444 12.8008 99.5539 13.2143 100.592 14.041C101.636 14.861 102.342 16.014 102.71 17.5005L100.24 17.8899C99.9653 17.0368 99.5162 16.3566 98.8937 15.8501C98.2712 15.3371 97.478 15.0811 96.5142 15.0811C95.5435 15.0677 94.737 15.2776 94.0943 15.7109C93.4515 16.1443 92.9659 16.7541 92.6379 17.5408C92.3166 18.3274 92.1561 19.2475 92.1561 20.3008C92.1561 21.354 92.3165 22.2711 92.6379 23.051C92.9592 23.8241 93.4419 24.4269 94.0845 24.8601C94.7338 25.2933 95.5436 25.5169 96.5142 25.5303C97.244 25.5369 97.8838 25.4075 98.4328 25.1409C98.9817 24.8676 99.4295 24.4569 99.7776 23.9104C100.126 23.3571 100.361 22.6668 100.481 21.8401H97.9302V19.9504H103.052C103.065 20.0571 103.076 20.2138 103.083 20.4204C103.089 20.6267 103.093 20.7501 103.093 20.7903C103.093 22.1503 102.821 23.3607 102.279 24.4207C101.743 25.4738 100.973 26.3 99.9689 26.8999C98.9646 27.4999 97.7627 27.8008 96.3634 27.8008C95.4263 27.8008 94.5462 27.6366 93.7228 27.3101C92.906 26.9767 92.1854 26.4901 91.5627 25.8501C90.947 25.2102 90.4655 24.4267 90.1174 23.5002C89.7693 22.567 89.5952 21.5006 89.5951 20.3008C89.5951 18.7274 89.8899 17.3834 90.479 16.27C91.0682 15.1503 91.8748 14.2937 92.899 13.7004C93.9233 13.1005 95.0781 12.8008 96.3634 12.8008ZM117.246 16.4006C118.21 16.4007 119.056 16.5574 119.786 16.8706C120.522 17.1838 121.068 17.6969 121.422 18.4099C121.617 18.7899 121.734 19.1806 121.774 19.5806C121.814 19.9739 121.834 20.4042 121.834 20.8708V27.5005H119.716V26.0454C119.31 26.5726 118.855 26.9777 118.35 27.26C117.701 27.62 116.887 27.8008 115.91 27.8008C115.126 27.8008 114.463 27.6534 113.921 27.3601C113.379 27.0601 112.967 26.6632 112.685 26.1699C112.411 25.6768 112.275 25.1334 112.275 24.5403C112.275 24.0204 112.362 23.5534 112.536 23.1401C112.71 22.7204 112.977 22.3609 113.339 22.061C113.7 21.7544 114.169 21.5036 114.745 21.3103C115.18 21.1703 115.689 21.044 116.271 20.9307C116.86 20.8174 117.496 20.7139 118.179 20.6206C118.595 20.5602 119.023 20.4954 119.461 20.4302C119.418 19.8643 119.257 19.4337 118.973 19.1399C118.632 18.7867 118.056 18.6102 117.246 18.6101C116.757 18.6101 116.284 18.724 115.829 18.9507C115.374 19.1774 115.056 19.5671 114.875 20.1201L112.666 19.4304C112.934 18.5172 113.442 17.784 114.192 17.2307C114.949 16.6774 115.967 16.4006 117.246 16.4006ZM84.8827 16.7009H88.0664V18.5906H84.8827V22.9509C84.8827 23.3841 84.8858 23.7645 84.8925 24.0911C84.906 24.4175 84.9762 24.6841 85.1034 24.8906C85.3444 25.2905 85.7293 25.5141 86.2582 25.5608C86.7871 25.6075 87.3902 25.5802 88.0664 25.4802V27.5005C87.35 27.6338 86.6462 27.6902 85.9566 27.6702C85.2738 27.6568 84.6612 27.5336 84.119 27.3003C83.5767 27.0603 83.1656 26.6832 82.8845 26.1699C82.6368 25.7033 82.5055 25.2271 82.4922 24.7405C82.4788 24.2538 82.4725 23.7034 82.4725 23.0901V18.5906H80.5037V16.7009H82.4725V13.7004H84.8827V16.7009ZM49.6412 15.3606H44.9619V27.5005H42.5407V15.3606H37.8613V13.1011H49.6412V15.3606ZM55.3589 16.6606C55.7002 16.634 56.0318 16.6476 56.3531 16.7009V18.9507C56.0317 18.8573 55.6593 18.827 55.2375 18.8604C54.8226 18.8937 54.448 19.0108 54.1133 19.2107C53.7786 19.3907 53.5038 19.6204 53.2895 19.9004C53.082 20.1804 52.9278 20.5011 52.8274 20.8611C52.7271 21.2142 52.6778 21.5979 52.6778 22.011V27.5005H50.2468V16.7009H52.386V18.4282C52.4679 18.2825 52.5574 18.1429 52.657 18.0107C52.8846 17.7107 53.1563 17.4643 53.471 17.271C53.7388 17.091 54.0335 16.9511 54.3549 16.8511C54.6828 16.7445 55.0175 16.6806 55.3589 16.6606ZM110.221 16.6606C110.563 16.634 110.894 16.6476 111.215 16.7009V18.9507C110.894 18.8573 110.522 18.827 110.1 18.8604C109.685 18.8937 109.31 19.0108 108.976 19.2107C108.641 19.3907 108.366 19.6204 108.152 19.9004C107.944 20.1804 107.79 20.5011 107.69 20.8611C107.589 21.2142 107.54 21.5979 107.54 22.011V27.5005H105.109V16.7009H107.248V18.4282C107.33 18.2825 107.42 18.1429 107.519 18.0107C107.747 17.7107 108.019 17.4643 108.333 17.271C108.601 17.091 108.896 16.9511 109.217 16.8511C109.545 16.7445 109.88 16.6806 110.221 16.6606ZM138.965 17.9009C139.242 17.577 139.567 17.2968 139.94 17.061C140.636 16.6144 141.493 16.3909 142.511 16.3909C143.314 16.3909 143.977 16.5234 144.499 16.79C145.021 17.0567 145.437 17.3972 145.745 17.8105C146.053 18.2237 146.28 18.6636 146.428 19.1301C146.575 19.5968 146.668 20.0407 146.708 20.4607C146.755 20.8738 146.778 21.2103 146.778 21.4702V27.5005H144.328V22.3003C144.328 21.9603 144.305 21.5832 144.258 21.1699C144.211 20.757 144.101 20.3606 143.927 19.981C143.759 19.5943 143.504 19.2767 143.163 19.03C142.828 18.7835 142.373 18.6602 141.797 18.6602C141.489 18.6602 141.185 18.7104 140.884 18.8103C140.583 18.9103 140.308 19.0837 140.06 19.3303C139.819 19.5702 139.625 19.9036 139.478 20.3301C139.331 20.75 139.257 21.2902 139.257 21.95V27.5005H136.807V13.1011H138.965V17.9009ZM118.3 22.5908C117.778 22.6775 117.329 22.7611 116.954 22.8411C116.579 22.9144 116.248 22.9968 115.96 23.0901C115.679 23.1901 115.44 23.3071 115.246 23.4404C115.052 23.5737 114.902 23.7274 114.795 23.9006C114.695 24.074 114.644 24.2777 114.644 24.511C114.644 24.7774 114.712 25.0137 114.845 25.2202C114.979 25.4202 115.173 25.58 115.428 25.6999C115.689 25.8199 116.01 25.8806 116.391 25.8806C116.94 25.8806 117.409 25.7834 117.797 25.5901C118.186 25.3968 118.494 25.1608 118.722 24.8809C118.956 24.601 119.113 24.3376 119.194 24.0911C119.321 23.7844 119.391 23.4334 119.405 23.04C119.416 22.8032 119.423 22.5932 119.428 22.4102C119.01 22.4764 118.634 22.5355 118.3 22.5908ZM129.21 18.5601C128.594 18.5601 128.091 18.7105 127.703 19.0105C127.315 19.3038 127.027 19.7175 126.84 20.2507C126.659 20.7773 126.569 21.3936 126.569 22.1001C126.569 22.8001 126.659 23.4173 126.84 23.9507C127.027 24.4838 127.318 24.9007 127.713 25.2007C128.114 25.494 128.641 25.6401 129.29 25.6401C129.919 25.64 130.438 25.4834 130.846 25.1702C131.255 24.8568 131.557 24.434 131.751 23.9006C131.952 23.3606 132.051 22.7601 132.051 22.1001C132.051 21.4469 131.952 20.8535 131.751 20.3203C131.55 19.7805 131.238 19.3543 130.817 19.041C130.395 18.721 129.859 18.5601 129.21 18.5601Z" fill="black"/>
<g clip-path="url(#clip0_15940_29228)">
<path d="M29.9173 20.0009C29.9173 20.2431 29.9113 20.4849 29.899 20.7265C29.8754 21.2101 29.8278 21.6921 29.7563 22.1709C29.7206 22.4103 29.6792 22.6488 29.632 22.8862C29.5367 23.361 29.4184 23.8309 29.2777 24.2944C29.207 24.5259 29.1307 24.7556 29.0488 24.9834C28.885 25.4392 28.6988 25.8868 28.4909 26.3244C28.3873 26.5433 28.278 26.7595 28.1632 26.9728C28.0488 27.1863 27.929 27.3969 27.8039 27.6044C27.5541 28.0197 27.2839 28.4225 26.9942 28.8113C26.8495 29.0056 26.6999 29.1964 26.5457 29.3834C26.3915 29.5704 26.2327 29.7537 26.0696 29.9331C25.9064 30.1125 25.7386 30.2877 25.5665 30.4587C25.3948 30.6301 25.2188 30.7971 25.0387 30.9597C24.8585 31.1221 24.6745 31.2802 24.4867 31.4337C24.1109 31.741 23.7201 32.0296 23.3157 32.2985C23.1137 32.4328 22.9084 32.5622 22.7 32.6865C22.4916 32.8111 22.2801 32.9304 22.0657 33.0444C21.8515 33.1587 21.6344 33.2674 21.4145 33.3706C21.1948 33.4742 20.9725 33.5724 20.7479 33.665C20.5234 33.7577 20.2967 33.8448 20.0678 33.9262C19.8391 34.0077 19.6083 34.0837 19.3759 34.1541C18.9104 34.2942 18.4385 34.412 17.9617 34.5069C17.4848 34.6009 17.0037 34.6719 16.5199 34.7197C16.2779 34.7434 16.0357 34.7613 15.7928 34.7728C15.5502 34.785 15.3073 34.7909 15.0641 34.7909C14.8208 34.7909 14.5779 34.785 14.3354 34.7728C13.8497 34.7493 13.3654 34.7019 12.8845 34.6306C12.6441 34.5951 12.4047 34.5539 12.1664 34.5069C11.6896 34.412 11.2176 34.2942 10.7522 34.1541C10.5196 34.0837 10.2888 34.0077 10.06 33.9262C9.60215 33.7632 9.15271 33.5778 8.71328 33.3706C8.49346 33.2674 8.2763 33.1586 8.06203 33.0444C7.63342 32.8161 7.21624 32.5672 6.81199 32.2985C6.60989 32.1639 6.41112 32.0245 6.21585 31.8803C6.02071 31.7361 5.82912 31.5872 5.64125 31.4337C5.4535 31.2801 5.26943 31.122 5.08922 30.9597C4.90909 30.7971 4.73308 30.6301 4.56137 30.4587C4.38936 30.2877 4.22169 30.1125 4.05851 29.9331C3.56838 29.395 3.1189 28.8216 2.71375 28.2175C2.57889 28.0163 2.44894 27.8118 2.32401 27.6044C1.94891 26.9814 1.62049 26.3317 1.34143 25.6606C1.24857 25.437 1.16105 25.2112 1.07895 24.9834C0.997221 24.7556 0.921061 24.5259 0.850542 24.2944C0.779855 24.0627 0.715078 23.8293 0.656276 23.5944C0.597108 23.3597 0.543745 23.1235 0.496235 22.8862C0.448894 22.6488 0.407345 22.4103 0.371624 22.1709C0.264165 21.4526 0.210456 20.7272 0.210941 20.0009C0.210941 19.7587 0.216565 19.5169 0.228777 19.2753C0.252325 18.7917 0.299973 18.3095 0.371544 17.8306C0.442952 17.3518 0.53795 16.8767 0.656195 16.4072C0.715025 16.1724 0.779828 15.939 0.850542 15.7075C0.921087 15.4759 0.997274 15.246 1.07903 15.0181C1.16113 14.7904 1.2486 14.5646 1.34135 14.3409C1.43437 14.1173 1.53295 13.896 1.63701 13.6772C1.74069 13.4583 1.84993 13.2421 1.96464 13.0287C2.07928 12.8153 2.19911 12.6048 2.32401 12.3972C2.44902 12.1897 2.57897 11.9853 2.71375 11.7841C2.84887 11.5828 2.98889 11.3848 3.1337 11.1903C3.27851 10.996 3.42804 10.8052 3.58217 10.6181C3.73649 10.4311 3.89535 10.2478 4.05859 10.0685C4.22171 9.88909 4.38933 9.71384 4.56129 9.54286C4.733 9.37158 4.90901 9.20462 5.08914 9.04214C5.2693 8.87959 5.45339 8.72141 5.64125 8.56774C5.82912 8.4143 6.02071 8.26543 6.21585 8.12126C6.41118 7.97707 6.61 7.83764 6.81215 7.7031C7.01427 7.56889 7.21958 7.43949 7.42789 7.31502C7.63636 7.19065 7.84783 7.07133 8.06211 6.95718C8.27678 6.84278 8.49371 6.73398 8.71336 6.63094C8.93302 6.5275 9.15524 6.42902 9.37996 6.33654C9.60457 6.24418 9.83133 6.15709 10.0601 6.07534C10.5179 5.91249 10.9835 5.77189 11.455 5.65406C11.6909 5.5954 11.9281 5.54237 12.1665 5.49502C12.6433 5.40073 13.1245 5.32961 13.6083 5.2819C13.8501 5.25807 14.0926 5.24033 14.3354 5.2287C14.578 5.21654 14.8209 5.21094 15.0641 5.21094C15.3073 5.21094 15.5503 5.21654 15.7928 5.2287C16.2784 5.25221 16.7625 5.29966 17.2434 5.37086C17.4838 5.40654 17.7232 5.44782 17.9618 5.49502C18.2001 5.54232 18.4372 5.59535 18.6729 5.65406C19.1445 5.77188 19.6101 5.91247 20.0679 6.07534C20.2967 6.15703 20.5234 6.24412 20.748 6.33654C20.9726 6.42916 21.1949 6.52732 21.4146 6.63094C21.8541 6.83781 22.2831 7.06609 22.7001 7.31494C22.9084 7.43936 23.1137 7.56879 23.3158 7.7031C23.9226 8.10643 24.4985 8.554 25.0387 9.04214C25.2189 9.20459 25.3949 9.37152 25.5666 9.54278C25.7387 9.71376 25.9064 9.88901 26.0697 10.0684C26.2327 10.2479 26.3915 10.4312 26.5458 10.6181C26.6999 10.8052 26.8494 10.996 26.9942 11.1903C27.139 11.3848 27.279 11.5828 27.4141 11.7841C27.684 12.1866 27.934 12.6019 28.1632 13.0287C28.278 13.2421 28.3872 13.4583 28.4909 13.6772C28.6989 14.1147 28.8852 14.5623 29.0488 15.0181C29.1307 15.246 29.207 15.4759 29.2777 15.7075C29.4184 16.1709 29.5367 16.6408 29.632 17.1156C29.6792 17.3529 29.7207 17.5913 29.7563 17.8306C29.8278 18.3095 29.8755 18.7917 29.899 19.2753C29.9113 19.5169 29.9173 19.7587 29.9173 20.0009Z" fill="#4285F4"/>
<path fill-rule="evenodd" clip-rule="evenodd" d="M22.3748 15.9073C21.9183 15.8852 21.5168 15.7298 21.1826 15.4633L17.7505 18.5701C18.6308 19.7573 18.5752 21.3883 17.6168 22.5089L20.9152 25.9261C21.9628 25.2714 23.3556 26.0261 23.3556 27.2798C23.3556 28.1564 22.6309 28.8664 21.7507 28.8664C20.9039 28.8664 20.2132 28.212 20.1573 27.3795L16.6473 26.8695C16.1126 28.0567 14.3184 27.6679 14.3184 26.3698C14.3184 25.7045 14.8647 25.1605 15.5329 25.1605C16.1572 25.1605 16.6697 25.6157 16.7478 26.2145L20.2577 26.7249C20.3023 26.6029 20.3579 26.4921 20.4359 26.3921L17.1379 22.9749C15.9456 23.8958 14.2738 23.8624 13.1152 22.9083L8.86993 27.0358C9.5387 28.0789 8.78075 29.4767 7.52163 29.4767C6.64133 29.4767 5.92829 28.7555 5.92829 27.8789C5.92829 27.1577 6.41854 26.5364 7.09831 26.3477L6.9533 24.0733C6.18442 23.9511 5.59375 23.2967 5.59375 22.4977C5.59375 21.477 6.54098 20.7226 7.54397 20.9445L8.58022 18.6589C6.89746 17.5383 7.69991 14.9085 9.7279 14.9085C10.8533 14.9085 11.7779 15.8295 11.7779 16.9613C11.7779 18.3149 10.4855 19.2798 9.18182 18.9361L8.14557 21.2217C9.21508 22.0095 8.89219 23.6739 7.62174 24.0289L7.75543 26.3145C8.00055 26.3477 8.21241 26.4364 8.41327 26.5586L12.6585 22.4311C10.9983 20.3564 12.4913 17.2608 15.1654 17.2608C15.9902 17.2608 16.7365 17.5714 17.3049 18.0817L20.737 14.9752C20.5138 14.6314 20.3914 14.2096 20.4137 13.7657L15.756 12.7784C15.054 14.3315 12.703 13.8325 12.703 12.124C12.703 11.2472 13.4161 10.5371 14.2961 10.5371C15.1767 10.5371 15.8898 11.2471 15.8898 12.124L20.5474 13.1221C20.8483 12.3568 21.5946 11.813 22.464 11.813C23.6004 11.813 24.5143 12.734 24.5143 13.8656C24.5143 14.7977 23.8901 15.5853 23.032 15.8296L23.5116 19.9458C24.0906 20.0346 24.5366 20.5337 24.5366 21.133C24.5366 21.8096 23.9905 22.3537 23.322 22.3537C21.996 22.3537 21.6392 20.5227 22.8538 20.0237L22.3748 15.9073ZM15.1654 17.9264C13.7726 17.9264 12.6249 19.0583 12.6249 20.4561C12.6249 21.8542 13.7726 22.9857 15.1654 22.9857C16.5695 22.9857 17.7059 21.8542 17.7059 20.4561C17.7059 19.0583 16.5695 17.9264 15.1654 17.9264ZM14.2961 11.2026C14.1746 11.2024 14.0542 11.2261 13.9419 11.2723C13.8296 11.3185 13.7275 11.3864 13.6416 11.472C13.5557 11.5576 13.4876 11.6592 13.4413 11.7711C13.3949 11.883 13.3712 12.0029 13.3716 12.1239C13.3716 12.6339 13.784 13.0555 14.2961 13.0555C14.8089 13.0555 15.2323 12.6339 15.2323 12.1239C15.2323 11.6133 14.8089 11.2026 14.2961 11.2026ZM23.2665 20.5892C22.5531 20.6892 22.6532 21.6876 23.322 21.6876C24.0796 21.6876 24.0238 20.5114 23.2665 20.5892ZM7.24325 23.4186C8.45786 23.3298 8.36868 21.5658 7.19874 21.5658C6.68592 21.5658 6.26252 21.9873 6.26252 22.4977C6.26252 23.0301 6.71918 23.4521 7.24325 23.4186ZM20.8374 27.1354C20.7592 27.7236 21.1936 28.2121 21.7507 28.2121C22.2635 28.2121 22.6868 27.7901 22.6868 27.2798C22.6868 26.137 20.993 26.0261 20.8373 27.1355L20.8374 27.1354ZM15.5329 25.8264C14.8089 25.8264 14.8089 26.9248 15.5329 26.9248C16.2685 26.9248 16.2576 25.8264 15.5329 25.8264ZM9.7279 15.5742C8.95903 15.5742 8.3351 16.1958 8.3351 16.9614C8.3351 17.7267 8.95903 18.3483 9.7279 18.3483C10.4855 18.3483 11.1098 17.7267 11.1098 16.9614C11.1098 16.1958 10.4855 15.5742 9.7279 15.5742ZM7.52171 26.9582C7.02046 26.9582 6.59682 27.3686 6.59682 27.8789C6.59682 28.3895 7.00881 28.8108 7.52163 28.8108C8.03421 28.8108 8.45786 28.3895 8.45786 27.8789C8.45786 27.3685 8.03413 26.9583 7.52163 26.9583L7.52171 26.9582ZM22.4639 12.4787C21.6951 12.4787 21.0711 13.0999 21.0711 13.8656C21.0711 14.6315 21.695 15.2525 22.4639 15.2525C23.2328 15.2525 23.8567 14.6315 23.8567 13.8656C23.8567 13.1 23.2328 12.4787 22.4639 12.4787Z" fill="#E0E0E0"/>
<path d="M12.7129 20.4416L13.5857 20.181C13.7436 20.1337 13.895 20.0672 14.0364 19.9828C14.1782 19.8988 14.309 19.7975 14.4255 19.6812C14.6593 19.4481 14.8315 19.1609 14.9267 18.8454L15.1881 17.9766L15.4499 18.8457C15.5449 19.1615 15.7174 19.4488 15.9517 19.6817C16.0681 19.7979 16.1986 19.8992 16.3402 19.9831C16.4817 20.0676 16.6332 20.134 16.7912 20.181L17.6637 20.4416L16.7912 20.7022C16.6332 20.7492 16.4817 20.8156 16.3402 20.9C16.1986 20.9839 16.0681 21.0851 15.9517 21.2013C15.835 21.3173 15.7332 21.4474 15.6488 21.5885C15.5643 21.7294 15.4976 21.8801 15.4502 22.0373L15.1881 22.9062L14.9264 22.0375C14.7828 21.561 14.4653 21.1552 14.0364 20.9C13.8949 20.8159 13.7435 20.7495 13.5856 20.7022L12.7129 20.4416Z" fill="#2ECC71"/>
</g>
<defs>
<clipPath id="clip0_15940_29228">
<rect width="30.1282" height="30" fill="white" transform="translate(0 5)"/>
</clipPath>
</defs>
</svg>
