<svg width="158" height="64" viewBox="0 0 158 64" fill="none" xmlns="http://www.w3.org/2000/svg">
<g clip-path="url(#clip0_17171_1760)">
<path d="M18.3741 47.015L1 16.79H35.6398L18.3741 47.015Z" fill="#E1523E"/>
<path d="M18.3741 47.015L6.58691 16.79H35.6398L18.3741 47.015Z" fill="#1B365D"/>
<path d="M43.9972 16.79L39.458 46.6962V47.015H52.9401L52.9871 46.6962V16.79H43.9972Z" fill="#1B365D"/>
<path d="M39.458 16.79V46.6962L43.9972 16.79H39.458Z" fill="#84BD00"/>
<path d="M85.9109 22.3191L82.1016 25.1565C82.7562 26.058 83.2829 27.0161 83.6932 28.0039L87.9925 26.3507C87.4974 24.8473 86.7913 23.4768 85.8976 22.2959L85.9109 22.3191Z" fill="#41B6E6"/>
<path d="M85.9085 22.3176C83.782 19.4567 80.7702 17.6456 77.5358 16.9802C75.2116 16.5877 72.7512 16.7907 70.3674 17.7021C63.1492 20.4614 59.3664 28.6227 61.8501 35.9939L61.8451 35.9974C62.2554 36.9835 62.7836 37.9416 63.4382 38.843L59.6289 41.6805C60.3284 42.6235 61.1275 43.4519 61.998 44.1636C65.6378 46.9777 70.5799 47.8776 75.2299 46.0996C81.9513 43.5299 85.6924 36.27 84.1658 29.3311C83.7272 27.871 83.0443 26.4572 82.0991 25.1548L85.9085 22.3176Z" fill="#1B365D"/>
<path d="M59.6295 41.6804L63.4386 38.843C62.7842 37.9415 62.2575 36.9835 61.8472 35.9956L57.5479 37.6488C58.043 39.1523 58.7489 40.5227 59.6427 41.7036L59.6295 41.6804Z" fill="#41B6E6"/>
<path d="M122.538 32.7432L122.704 16.79H98.9019L96.752 32.5564C95.637 40.3722 100.961 46.7678 108.689 47.0037C116.341 46.7416 122.488 40.4788 122.538 32.7432Z" fill="#1B365D"/>
<path d="M96.7544 32.5556L98.9024 16.791H93.8421V32.5556C93.7897 40.4903 100.173 46.9628 108.096 47.0152C108.295 47.0152 108.494 47.0117 108.69 47.0029C100.961 46.7672 95.6377 40.3716 96.7544 32.5556Z" fill="#F1BE48"/>
<path d="M139.734 16.79L122.36 47.015H157L139.734 16.79Z" fill="#2CCCD3"/>
<path d="M139.733 16.79L127.946 47.015H156.999L139.733 16.79Z" fill="#1B365D"/>
</g>
<defs>
<clipPath id="clip0_17171_1760">
<rect width="156" height="30.42" fill="white" transform="translate(1 16.79)"/>
</clipPath>
</defs>
</svg>
