<svg width="202" height="64" viewBox="0 0 202 64" fill="none" xmlns="http://www.w3.org/2000/svg">
<path d="M101.55 30.6468C101.121 31.4818 100.913 32.3936 100.913 33.3768C100.913 34.36 101.127 35.272 101.55 36.1068C101.972 36.9418 102.566 37.5954 103.329 38.0788C104.087 38.5622 104.955 38.804 105.917 38.804C106.878 38.804 107.696 38.6062 108.383 38.2052C109.064 37.8042 109.57 37.2658 109.899 36.5848H114.128C113.755 37.6394 113.211 38.6118 112.508 39.4906C111.8 40.3694 110.883 41.078 109.756 41.6218C108.625 42.1656 107.312 42.4348 105.806 42.4348C104.164 42.4348 102.66 42.0338 101.297 41.2208C99.9294 40.4078 98.8633 39.3148 98.089 37.925C97.3092 36.5408 96.9248 35.0248 96.9248 33.3768C96.9248 31.729 97.3147 30.2184 98.089 28.8286C98.8633 27.4444 99.9349 26.3458 101.297 25.5328C102.66 24.7254 104.159 24.3188 105.806 24.3188C107.312 24.3188 108.625 24.588 109.756 25.1318C110.887 25.6702 111.806 26.3842 112.508 27.2632C113.211 28.142 113.75 29.1142 114.128 30.169H109.899C109.57 29.4878 109.064 28.9494 108.383 28.5484C107.702 28.1476 106.878 27.9498 105.917 27.9498C104.955 27.9498 104.093 28.197 103.329 28.6748C102.566 29.1582 101.972 29.8118 101.55 30.6468ZM118.765 30.9712C119.067 30.0208 119.622 29.2298 120.424 28.6092C121.22 27.9884 122.303 27.6754 123.665 27.6754C124.517 27.6754 125.28 27.8402 125.977 28.1696C126.67 28.4992 127.236 28.9496 127.686 29.5264C128.13 30.0978 128.439 30.7514 128.597 31.482H118.617C118.661 31.3116 118.71 31.1414 118.765 30.9712ZM131.839 37.5298C131.953 37.2442 132.063 36.9584 132.157 36.6674H128.284C128.163 36.8982 128.02 37.1124 127.861 37.321C127.411 37.8978 126.845 38.3482 126.153 38.6778C125.461 39.0074 124.763 39.0952 123.917 39.0952C122.956 39.0952 122.05 38.87 121.204 38.425C120.352 37.9746 119.677 37.376 119.155 36.607C118.71 35.9532 118.447 35.2282 118.37 34.4428H132.514C132.607 32.5642 132.322 30.8502 131.668 29.3122H131.662C131.004 27.7742 129.993 26.5602 128.63 25.6648C127.268 24.7696 125.637 24.3246 123.736 24.3246C122.022 24.3246 120.462 24.731 119.067 25.5386C117.672 26.3516 116.573 27.4446 115.772 28.8178C114.97 30.1966 114.574 31.7072 114.574 33.3496C114.574 33.7232 114.595 34.0856 114.639 34.4428C114.772 35.6952 115.145 36.8596 115.755 37.9472C116.54 39.348 117.645 40.4574 119.067 41.2816C120.49 42.1 122.105 42.5174 123.912 42.5174C125.813 42.5174 127.444 42.0724 128.806 41.1772C130.169 40.2818 131.18 39.0678 131.839 37.5298ZM84.5042 36.1288C84.0208 36.9748 83.3782 37.645 82.5652 38.1392H82.5762C81.7632 38.6336 80.868 38.8754 79.879 38.8754C78.8904 38.8754 77.995 38.6336 77.182 38.1392C76.369 37.645 75.7262 36.9748 75.243 36.1288C74.7596 35.2828 74.518 34.426 74.518 33.4152C74.518 32.4046 74.7542 31.4872 75.221 30.6524C75.688 29.8174 76.3362 29.1636 77.16 28.6804C77.984 28.197 78.885 27.9552 79.8736 27.9552C80.8624 27.9552 81.7686 28.2024 82.5872 28.6804C83.411 29.1636 84.0592 29.8174 84.5261 30.6524C84.993 31.4872 85.2292 32.4486 85.2292 33.4152C85.2292 34.382 84.9876 35.2828 84.5042 36.1288ZM84.6086 25.5438C83.1858 24.7254 81.6094 24.3134 79.8682 24.3134C78.1268 24.3134 76.5504 24.7254 75.1276 25.5438C73.705 26.3732 72.5954 27.4828 71.7824 28.878C70.9748 30.2788 70.5686 31.7838 70.5686 33.4098C70.5686 35.0356 70.9638 36.5462 71.7495 37.9414C72.535 39.3422 73.6392 40.4574 75.0616 41.2758H75.0562C76.479 42.0942 78.0884 42.5062 79.8682 42.5062C81.6478 42.5062 83.2518 42.0888 84.6746 41.2538C86.0972 40.419 87.2012 39.3092 87.9868 37.9196C88.7724 36.5352 89.1678 35.0356 89.1678 33.4098C89.1678 31.7838 88.7668 30.2732 87.954 28.878C87.1466 27.4774 86.0312 26.3622 84.6086 25.5438ZM91.0856 24.6376H94.9578V42.1878H91.0856V24.6376ZM144.131 16.8154H145.301V20.1278H144.395C143.527 20.1278 142.835 20.3694 142.324 20.8528C141.813 21.3362 141.467 22.0778 141.296 23.0884L141.026 24.6376H145.301V27.983H140.439L137.951 42.1876H137.944L137.667 43.7696C137.332 45.6482 136.58 47.0598 135.409 47.9938H135.415C134.239 48.9332 132.806 49.4054 131.114 49.4054C129.845 49.4054 128.966 49.3944 128.472 49.3724L129.054 46.0604H130.85C131.718 46.0604 132.41 45.8184 132.921 45.3352C133.432 44.8518 133.778 44.1102 133.949 43.0994L136.596 27.983H133.728V24.6376H137.182L137.578 22.4184C137.907 20.5398 138.66 19.128 139.836 18.1942L139.829 18.1888C141 17.2494 142.439 16.8154 144.131 16.8154ZM74.0958 16.8154L63.5934 42.1876H59.3638L48.861 16.8154H53.2664L61.5664 37.3762L69.8662 16.8154H74.0958ZM201 24.6376L194.518 42.1878H190.646L186.4 29.7692L182.153 42.1878H178.281L171.799 24.6376H175.831L180.308 37.398L184.609 24.6376H188.383L192.65 37.398L197.161 24.6376H201ZM147.877 16.8154H151.75V42.1876H147.877V16.8154ZM167.741 36.1288C167.258 36.9748 166.616 37.645 165.802 38.1392H165.813C165 38.6336 164.105 38.8754 163.116 38.8754C162.128 38.8754 161.232 38.6336 160.419 38.1392C159.606 37.645 158.963 36.9748 158.48 36.1288C157.996 35.2828 157.755 34.426 157.755 33.4152C157.755 32.4046 157.991 31.4872 158.458 30.6524C158.925 29.8174 159.578 29.1636 160.397 28.6804C161.221 28.197 162.122 27.9552 163.111 27.9552C164.099 27.9552 165.006 28.2024 165.824 28.6804C166.648 29.1636 167.296 29.8174 167.763 30.6524C168.23 31.4872 168.466 32.4486 168.466 33.4152C168.466 34.382 168.225 35.2828 167.741 36.1288ZM167.845 25.5438C166.423 24.7254 164.846 24.3134 163.106 24.3134C161.364 24.3134 159.787 24.7254 158.364 25.5438C156.947 26.3732 155.832 27.4828 155.019 28.878C154.212 30.2788 153.806 31.7838 153.806 33.4098C153.806 35.0356 154.201 36.5462 154.986 37.9414C155.772 39.3422 156.876 40.4574 158.298 41.2758H158.294C159.716 42.0942 161.32 42.5062 163.106 42.5062C164.89 42.5062 166.494 42.0888 167.917 41.2538C169.339 40.419 170.444 39.3092 171.229 37.9196C172.015 36.5352 172.41 35.0356 172.41 33.4098C172.41 31.7838 172.004 30.2732 171.191 28.878C170.383 27.4774 169.268 26.3622 167.845 25.5438ZM91.0856 16.8154H94.9578V20.688H91.0856V16.8154ZM37.3842 34.9466C37.6746 33.2246 37.8164 31.3744 37.8164 29.5308C37.8164 27.6874 37.6746 25.837 37.3842 24.115C40.1732 24.527 42.3206 26.796 42.3206 29.5308C42.3206 32.2658 40.1732 34.5348 37.3842 34.9466ZM34.7304 34.6562C32.9274 34.2106 25.5466 29.8684 25.209 29.6794V29.3822C25.5466 29.1932 32.9274 24.8512 34.7304 24.4054C34.9802 25.8776 35.1424 27.586 35.1424 29.5308C35.1424 31.4756 34.9802 33.1842 34.7304 34.6562ZM32.2116 40.7C32.0226 40.8284 31.793 40.8014 31.5836 40.6932C30.4694 40.0922 26.411 33.7514 26.411 33.5352L26.6068 33.326C27.8224 34.17 30.9084 36.2702 34.116 37.256C33.5284 39.1266 32.8058 40.3016 32.2116 40.7ZM31.5836 18.3684C31.793 18.2604 32.0226 18.2334 32.2116 18.3616C32.8058 18.76 33.5284 19.935 34.116 21.8056C30.9084 22.7916 27.8224 24.8916 26.6068 25.7358L26.411 25.5264C26.411 25.3104 30.4694 18.9694 31.5836 18.3684ZM20.7926 29.6794C20.455 29.8684 13.0742 34.2106 11.2712 34.6562C11.0212 33.1842 10.8592 31.4756 10.8592 29.5308C10.8592 27.586 11.0212 25.8776 11.2712 24.4054C13.0742 24.8512 20.455 29.1932 20.7926 29.3822V29.6794ZM14.418 40.6932C14.2086 40.8014 13.979 40.8284 13.79 40.7C13.1956 40.3016 12.4732 39.1266 11.8856 37.256C15.0932 36.2702 18.1792 34.17 19.3948 33.326L19.5906 33.5352C19.5906 33.7514 15.5322 40.0922 14.418 40.6932ZM13.79 18.3616C13.979 18.2334 14.2086 18.2604 14.418 18.3684C15.5322 18.9694 19.5906 25.3104 19.5906 25.5264L19.3948 25.7358C18.1792 24.8916 15.0932 22.7916 11.8856 21.8056C12.4732 19.935 13.1956 18.76 13.79 18.3616ZM8.6172 34.9466C5.8284 34.5348 3.681 32.2658 3.681 29.5308C3.681 26.796 5.8284 24.527 8.6172 24.115C8.3268 25.837 8.185 27.6874 8.185 29.5308C8.185 31.3744 8.3268 33.2246 8.6172 34.9466ZM36.7766 21.3802C35.7838 17.9632 34.116 15.5254 31.793 15.5254C28.6934 15.5254 24.4458 24.2298 24.4458 24.2298L24.169 24.169L24.2434 23.19C24.2558 23.0024 24.2682 22.6178 24.2808 22.1332C24.3414 19.79 24.3154 17.4456 24.2098 15.1042L24.118 13.0644C24.1162 13.0284 24.0866 13 24.0504 13H21.951C21.915 13 21.8852 13.0284 21.8836 13.0644L21.7918 15.1042C21.6862 17.4456 21.6602 19.79 21.7208 22.1332C21.7332 22.6178 21.7458 23.0024 21.7582 23.19L21.8326 24.169L21.5556 24.2298C21.5556 24.2298 17.3082 15.5254 14.2086 15.5254C11.8856 15.5254 10.2176 17.9632 9.225 21.3802C4.6668 21.5288 1 25.1212 1 29.5308C1 33.9404 4.6668 37.533 9.225 37.6816C10.2176 41.0984 11.8856 43.5362 14.2086 43.5362C17.3082 43.5362 21.5556 34.8318 21.5556 34.8318L21.8326 34.8926L21.7582 35.8718C21.7458 36.0594 21.7332 36.4438 21.7208 36.9286C21.6602 39.2716 21.6862 41.6162 21.7918 43.9576L21.8836 45.9972C21.8852 46.0334 21.915 46.0618 21.951 46.0618H24.0504C24.0866 46.0618 24.1162 46.0334 24.118 45.9972L24.2098 43.9576C24.3154 41.6162 24.3414 39.2716 24.2808 36.9286C24.2682 36.4438 24.2558 36.0594 24.2434 35.8718L24.169 34.8926L24.4458 34.8318C24.4458 34.8318 28.6934 43.5362 31.793 43.5362C34.116 43.5362 35.7838 41.0984 36.7766 37.6816C41.3348 37.533 45.0014 33.9404 45.0014 29.5308C45.0014 25.1212 41.3348 21.5288 36.7766 21.3802Z" fill="black"/>
</svg>
