<svg width="88" height="40" viewBox="0 0 88 40" fill="none" xmlns="http://www.w3.org/2000/svg">
<mask id="mask0_15940_29208" style="mask-type:luminance" maskUnits="userSpaceOnUse" x="0" y="10" width="87" height="20">
<path d="M0.527344 10.6172H86.8431V29.5646H0.527344V10.6172Z" fill="white"/>
</mask>
<g mask="url(#mask0_15940_29208)">
<path d="M29.0537 10.6172C26.7295 10.6172 24.7926 11.4793 23.2463 13.2003C21.7 14.9214 20.9284 17.0751 20.9284 19.653C20.9284 22.2793 21.7 24.4709 23.2463 26.2277C24.8042 27.9488 26.7768 28.8109 29.16 28.8109C31.0231 28.8109 32.7631 28.0635 34.381 26.5793V28.8382H38.4484V11.2298H34.3821V13.0172C32.8084 11.4182 31.0316 10.6172 29.0537 10.6172ZM26.4094 15.8109C27.3168 14.7888 28.4442 14.2782 29.7926 14.2782C31.2252 14.2782 32.3852 14.7835 33.28 15.794C34.1768 16.8288 34.6252 18.1435 34.6252 19.7414C34.6252 21.3393 34.18 22.654 33.2831 23.6888C32.3884 24.6867 31.2158 25.1867 29.76 25.1867C28.3989 25.1867 27.2716 24.6688 26.3768 23.6361C25.5052 22.614 25.0663 21.2867 25.0663 19.654C25.0663 18.1256 25.5147 16.8456 26.4094 15.8109ZM65.4442 10.6172C62.9337 10.6172 60.9147 11.4488 59.3916 13.1119C57.88 14.7982 57.1263 17.0046 57.1263 19.7235C57.1263 22.4656 57.9021 24.6709 59.461 26.3351C61.0189 27.9888 63.0863 28.813 65.6547 28.813C66.5494 28.813 67.381 28.7182 68.1484 28.5288C68.9035 28.3455 69.626 28.0473 70.2905 27.6446C70.9359 27.2379 71.5269 26.7508 72.0495 26.1951L72.0768 26.1667L69.4916 23.1646L69.4589 23.2067C69.0105 23.7856 68.5958 24.2119 68.2168 24.493C67.5789 24.9561 66.7726 25.1898 65.7958 25.1898C64.5379 25.1898 63.5105 24.7824 62.7084 23.9709C61.9168 23.1561 61.4631 22.0614 61.3505 20.6835H73.6379L73.6558 19.7088C73.6558 16.874 72.9263 14.6498 71.461 13.0446C69.9873 11.4235 67.98 10.6172 65.4442 10.6172ZM64.1916 14.5014C64.622 14.3488 65.0759 14.2725 65.5326 14.2761C66.5821 14.2761 67.4316 14.5372 68.0884 15.0572C68.7347 15.5698 69.1958 16.334 69.4716 17.354H61.6263C61.7537 16.8867 61.9337 16.4698 62.1695 16.1025C62.4126 15.7203 62.7031 15.394 63.0421 15.1277C63.3895 14.8509 63.7737 14.6425 64.1916 14.5014ZM86.8431 11.6361C85.7063 10.9561 84.6116 10.6172 83.561 10.6172C82.7684 10.6172 82.08 10.7646 81.4979 11.0614C80.9473 11.3351 80.3231 11.8361 79.6242 12.5593V11.2435H75.5747V28.8403H79.6242V19.3898C79.6242 17.7614 79.8947 16.5498 80.4263 15.7456C80.9568 14.9446 81.7516 14.5425 82.8189 14.5425C83.5231 14.5425 84.2505 14.8088 84.9937 15.3435L85.0358 15.374M44.3589 11.2298L39.861 11.2425L48.7021 29.5646L50.9547 24.8982L44.3589 11.2298ZM50.9568 24.8951L48.7042 20.2288H53.2095L57.5358 11.2625L53.0642 11.2425L48.7063 20.2288M6.4484 11.2425H0.527344L8.3105 20.1056L0.742081 28.8403H6.58103L11.2842 23.4909L15.9579 28.8403H21.9179L6.4484 11.2425ZM17.1726 16.7961L22.0568 11.2425H16.2179L11.3337 16.7961H17.1726Z" fill="#002345"/>
</g>
</svg>
