<svg width="138" height="64" viewBox="0 0 138 64" fill="none" xmlns="http://www.w3.org/2000/svg">
<mask id="mask0_17171_1786" style="mask-type:luminance" maskUnits="userSpaceOnUse" x="1" y="17" width="136" height="30">
<path d="M1 17H137V46.8537H1V17Z" fill="white"/>
</mask>
<g mask="url(#mask0_17171_1786)">
<path d="M45.9463 17C42.2843 17 39.2326 18.3583 36.7962 21.07C34.3598 23.7818 33.1441 27.1751 33.1441 31.2369C33.1441 35.3749 34.3598 38.828 36.7962 41.5961C39.2508 44.3078 42.3589 45.6661 46.1139 45.6661C49.0495 45.6661 51.791 44.4886 54.3402 42.15V45.7093H60.7488V17.9653H54.3419V20.7815C51.8623 18.2621 49.0627 17 45.9463 17ZM41.7801 25.1832C43.2098 23.5728 44.986 22.7684 47.1106 22.7684C49.3679 22.7684 51.1956 23.5645 52.6054 25.1567C54.0184 26.787 54.725 28.8585 54.725 31.3762C54.725 33.8939 54.0234 35.9654 52.6103 37.5957C51.2006 39.168 49.353 39.9558 47.0592 39.9558C44.9147 39.9558 43.1384 39.1398 41.7287 37.5128C40.3554 35.9023 39.6638 33.8109 39.6638 31.2385C39.6638 28.8303 40.3703 26.8136 41.7801 25.1832ZM103.284 17C99.328 17 96.1469 18.3102 93.747 20.9307C91.3654 23.5877 90.1779 27.064 90.1779 31.348C90.1779 35.6685 91.4002 39.1431 93.8565 41.7653C96.3111 44.3708 99.5685 45.6695 103.615 45.6695C105.025 45.6695 106.335 45.5202 107.544 45.2217C108.734 44.9329 109.872 44.463 110.92 43.8285C111.936 43.1878 112.868 42.4203 113.691 41.5447L113.734 41.4999L109.661 36.7698L109.609 36.8361C108.903 37.7483 108.249 38.42 107.652 38.8628C106.647 39.5926 105.377 39.9608 103.838 39.9608C101.856 39.9608 100.237 39.3189 98.9731 38.0402C97.7259 36.7565 97.011 35.0316 96.8336 32.8606H116.194L116.222 31.3248C116.222 26.8583 115.072 23.3539 112.764 20.8246C110.442 18.2704 107.279 17 103.284 17ZM101.31 23.12C101.988 22.8795 102.703 22.7594 103.423 22.7651C105.076 22.7651 106.415 23.1764 107.45 23.9957C108.468 24.8034 109.195 26.0075 109.629 27.6146H97.2681C97.4688 26.8782 97.7524 26.2215 98.1239 25.6426C98.507 25.0406 98.9648 24.5264 99.4988 24.1068C100.046 23.6706 100.652 23.3422 101.31 23.12ZM137 18.6055C135.209 17.534 133.484 17 131.829 17C130.58 17 129.495 17.2322 128.578 17.6999C127.711 18.1311 126.727 18.9206 125.626 20.06V17.9868H119.245V45.7126H125.626V30.8222C125.626 28.2565 126.052 26.3475 126.89 25.0804C127.725 23.8182 128.978 23.1847 130.659 23.1847C131.769 23.1847 132.915 23.6043 134.086 24.4468L134.152 24.4949M70.0615 17.9653L62.9745 17.9852L76.9046 46.8537L80.4538 39.5014L70.0615 17.9653ZM80.4572 39.4964L76.9079 32.1441H84.0064L90.823 18.0167L83.7776 17.9852L76.9112 32.1441M10.3293 17.9852H1L13.2632 31.95L1.33834 45.7126H10.5382L17.9486 37.2839L25.3125 45.7126H34.7031L10.3293 17.9852ZM27.2264 26.7356L34.922 17.9852H25.7221L18.0265 26.7356H27.2264Z" fill="#002345"/>
</g>
</svg>
