<svg preserveAspectRatio="none" width="100%" height="100%" overflow="visible" style="display: block;" viewBox="0 0 61.5177 28" fill="none" xmlns="http://www.w3.org/2000/svg">
<g id="AVP">
<g id="AVP_2">
<path d="M28.404 28H23.9824L11.9427 0.00241462H16.3643L28.404 28Z" fill="#161E33"/>
<path d="M35.2275 0.00241462H39.6188L31.2183 16.8459H27.0696L35.2275 0.00241462Z" fill="#161E33"/>
<path d="M50.9731 0.00257603C56.5835 -0.130861 61.6481 4.93976 61.5147 10.5441C61.6481 16.2031 56.5775 20.6732 50.9731 20.5459H47.0913L48.5045 16.846H50.87C54.5699 16.846 57.4327 14.3289 57.4327 10.5441C57.4327 6.75936 54.7033 3.65391 50.7244 3.65391H44.835V27.9941H40.7227V0.00257603H50.9731Z" fill="#161E33"/>
<path d="M15.1451 20.4001H8.13968L4.37311 28H0L5.52552 16.8458H16.5098L15.1451 20.4001Z" fill="#161E33"/>
</g>
</g>
</svg>
