<svg width="320" height="80" viewBox="0 0 320 80" fill="none" xmlns="http://www.w3.org/2000/svg">
<rect x="0.5" y="0.5" width="319" height="79" rx="7.5" fill="#F0F3FA"/>
<rect x="0.5" y="0.5" width="319" height="79" rx="7.5" stroke="#D4D9E6"/>
<path d="M157.646 54H153.225L141.185 26.0024H145.607L157.646 54Z" fill="#161E33"/>
<path d="M164.47 26.0024H168.861L160.46 42.8458H156.312L164.47 26.0024Z" fill="#161E33"/>
<path d="M180.215 26.0026C185.826 25.8691 190.89 30.9398 190.757 36.5441C190.89 42.2031 185.82 46.6732 180.215 46.5459H176.333L177.747 42.846H180.112C183.812 42.846 186.675 40.3289 186.675 36.5441C186.675 32.7594 183.945 29.6539 179.967 29.6539H174.077V53.9941H169.965V26.0026H180.215Z" fill="#161E33"/>
<path d="M144.387 46.4001H137.382L133.615 54H129.242L134.768 42.8458H145.752L144.387 46.4001Z" fill="#161E33"/>
</svg>
