<svg preserveAspectRatio="none" width="100%" height="100%" overflow="visible" style="display: block;" viewBox="0 0 111.211 44" fill="none" xmlns="http://www.w3.org/2000/svg">
<g id="Bosch-Ventures">
<g id="Bosch-Ventures_2">
<path d="M0.828696 0.563734H4.85537C7.15057 0.563734 8.30104 1.50137 8.30104 3.3709C8.30104 3.90587 8.186 4.3488 7.96165 4.68819C7.73731 5.03334 7.36916 5.32671 6.8572 5.57981C7.61076 5.81566 8.15148 6.16656 8.47362 6.62675C8.75548 7.02366 8.89354 7.52987 8.89354 8.15113C8.89354 9.1693 8.53114 9.94012 7.80634 10.4808C7.17358 10.9525 6.32222 11.1826 5.25228 11.1826H0.828696V0.563734ZM5.22352 5.20016C6.47179 5.20016 7.09304 4.5789 7.09304 3.34213C7.09304 2.69787 6.89746 2.23768 6.50055 1.95581C6.14965 1.70846 5.62618 1.58766 4.94165 1.58766H2.05971V5.20016H5.22352ZM5.44786 10.1587C6.21868 10.1587 6.79392 9.96313 7.17933 9.57197C7.51872 9.23258 7.68554 8.76663 7.68554 8.16263C7.68554 6.86835 6.89171 6.21833 5.30405 6.21833H2.05395V10.1587H5.44786Z" fill="#161E33"/>
<path d="M14.226 3.28461C15.3592 3.28461 16.2681 3.71029 16.9584 4.56739C17.5624 5.30945 17.8673 6.21258 17.8673 7.28827C17.8673 8.54804 17.4761 9.55471 16.6995 10.3198C16.0207 10.9813 15.1866 11.3149 14.1857 11.3149C13.0525 11.3149 12.1379 10.8893 11.4361 10.0322C10.8321 9.2901 10.5272 8.38123 10.5272 7.30553C10.5272 6.04576 10.9184 5.03909 11.695 4.27977C12.3795 3.61825 13.2251 3.28461 14.226 3.28461ZM14.226 4.30854C13.4207 4.30854 12.8052 4.61341 12.368 5.21741C11.9883 5.74663 11.8042 6.44842 11.8042 7.32854C11.8042 8.30069 12.0458 9.05425 12.529 9.58923C12.9547 10.0609 13.507 10.291 14.18 10.291C14.9681 10.291 15.5778 9.98614 16.015 9.37639C16.3947 8.84717 16.5902 8.15113 16.5902 7.29978C16.5902 6.33338 16.3486 5.57406 15.8597 5.02183C15.434 4.55014 14.8933 4.30854 14.226 4.30854Z" fill="#161E33"/>
<path d="M22.5957 11.3149C21.2497 11.3149 20.1797 10.8145 19.3801 9.81932L20.2718 9.08877C20.6169 9.54896 20.9563 9.86534 21.2784 10.0379C21.6006 10.2105 22.0205 10.2968 22.5382 10.2968C23.148 10.2968 23.6024 10.176 23.9073 9.94012C24.1719 9.73879 24.3042 9.45692 24.3042 9.10602C24.3042 8.72062 24.1546 8.433 23.8612 8.24892C23.7232 8.14538 23.5736 8.0706 23.4183 8.01882C23.263 7.96705 22.8891 7.86926 22.3024 7.72545C21.3762 7.50111 20.7319 7.19623 20.358 6.80507C20.0302 6.45418 19.8633 5.99974 19.8633 5.44176C19.8633 4.72846 20.1337 4.17623 20.6687 3.79082C21.1404 3.45718 21.7559 3.29036 22.5152 3.29036C23.1077 3.29036 23.6081 3.37665 24.0108 3.54922C24.4135 3.72179 24.8046 4.00941 25.19 4.41783L24.3847 5.23467C24.0683 4.88953 23.775 4.65368 23.4988 4.51562C23.2227 4.38332 22.8891 4.31429 22.4979 4.31429C22.009 4.31429 21.6408 4.41783 21.3877 4.62492C21.1921 4.80324 21.0828 5.05059 21.0828 5.36122C21.0828 5.70061 21.2094 5.95947 21.4683 6.13779C21.6983 6.29311 22.1643 6.45418 22.8661 6.62099C23.4586 6.75905 23.89 6.89136 24.1661 7.00641C24.4422 7.12145 24.6896 7.28252 24.9139 7.48385C25.3224 7.85776 25.5237 8.36397 25.5237 8.99673C25.5237 9.75029 25.2246 10.337 24.6263 10.757C24.0971 11.1309 23.4241 11.3149 22.5957 11.3149Z" fill="#161E33"/>
<path d="M30.9309 11.3149C29.769 11.3149 28.8486 10.895 28.1698 10.0552C27.5773 9.32462 27.2782 8.40999 27.2782 7.30553C27.2782 6.017 27.6521 5.00457 28.3941 4.25676C29.0441 3.60674 29.8667 3.28461 30.8619 3.28461C32.0987 3.28461 33.0766 3.80233 33.7841 4.832L32.7602 5.47052C32.4668 5.03334 32.1792 4.72846 31.9088 4.56164C31.6327 4.39482 31.2933 4.31429 30.8734 4.31429C30.0911 4.31429 29.4928 4.61916 29.0902 5.22316C28.7335 5.74663 28.5552 6.45418 28.5552 7.3458C28.5552 8.35822 28.791 9.11753 29.257 9.62374C29.6654 10.0724 30.2349 10.2968 30.9597 10.2968C31.8513 10.2968 32.5358 9.91136 33.0133 9.13479L33.9797 9.68702C33.5943 10.3083 33.1226 10.7455 32.5704 11.0043C32.1159 11.2114 31.5694 11.3149 30.9309 11.3149Z" fill="#161E33"/>
<path d="M36.0563 0H37.2873V4.60766C37.7648 3.72754 38.5528 3.29036 39.6515 3.29036C40.5374 3.29036 41.1989 3.58949 41.6361 4.18774C42.0215 4.7112 42.2171 5.436 42.2171 6.36789V11.1826H40.9861V6.2816C40.9861 5.56831 40.8365 5.0621 40.5374 4.75722C40.2728 4.48686 39.8701 4.3488 39.3409 4.3488C38.6736 4.3488 38.1502 4.56164 37.7763 4.98732C37.4541 5.36122 37.2931 5.83867 37.2931 6.43117V11.1826H36.0621V0H36.0563Z" fill="#161E33"/>
<path d="M48.6138 0.563734H49.8908L52.8935 9.3994L55.925 0.563734H57.1273L53.3365 11.1826H52.3586L48.6138 0.563734Z" fill="#161E33"/>
<path d="M61.9938 11.3149C60.7053 11.3149 59.7101 10.9008 59.0198 10.0667C58.4388 9.35913 58.1512 8.4445 58.1512 7.31703C58.1512 6.04 58.5194 5.02758 59.2614 4.26827C59.9057 3.6125 60.711 3.28461 61.6832 3.28461C62.7876 3.28461 63.639 3.67577 64.2372 4.45234C64.755 5.13113 65.0138 6.0285 65.0138 7.14446V7.54138H59.4283C59.4398 8.0821 59.5145 8.52503 59.6411 8.87018C59.7676 9.21532 59.969 9.51445 60.2451 9.76755C60.6305 10.1127 61.2057 10.291 61.9651 10.291C62.4368 10.291 62.8337 10.2105 63.1558 10.0437C63.4722 9.87685 63.7713 9.60648 64.0474 9.22683L64.9563 9.95163C64.3178 10.8605 63.3284 11.3149 61.9938 11.3149ZM59.4685 6.55197H63.7483C63.662 5.70637 63.4377 5.11387 63.081 4.76873C62.7646 4.46385 62.2987 4.31429 61.6947 4.31429C60.4924 4.30854 59.7504 5.05635 59.4685 6.55197Z" fill="#161E33"/>
<path d="M67.3665 3.41692H68.5976V4.60766C69.075 3.72754 69.8631 3.29036 70.9618 3.29036C71.8477 3.29036 72.5092 3.58949 72.9464 4.18774C73.3318 4.7112 73.5273 5.436 73.5273 6.36789V11.1826H72.2963V6.2816C72.2963 5.56831 72.1468 5.0621 71.8476 4.75722C71.583 4.48686 71.1804 4.3488 70.6512 4.3488C69.9839 4.3488 69.4604 4.56164 69.0865 4.98732C68.7644 5.36122 68.6033 5.83867 68.6033 6.43117V11.1826H67.3723V3.41692H67.3665Z" fill="#161E33"/>
<path d="M75.5522 3.41692H76.7429V1.40358L77.9739 1.10446V3.41692H79.9298V4.44084H77.9739V9.18656C77.9739 9.92862 78.2731 10.2968 78.8656 10.2968C79.2395 10.2968 79.5904 10.176 79.9182 9.92862L80.3957 10.7742C79.9182 11.1366 79.3775 11.3207 78.785 11.3207C78.112 11.3207 77.5943 11.1251 77.2261 10.7397C76.904 10.4061 76.7429 9.96888 76.7429 9.42241V4.44659H75.5522V3.41692Z" fill="#161E33"/>
<path d="M87.0282 9.99189C86.5508 10.872 85.7627 11.3092 84.664 11.3092C83.7954 11.3092 83.1453 11.0101 82.7139 10.4118C82.34 9.88835 82.1559 9.1578 82.1559 8.22016V3.41116H83.3869V8.3122C83.3869 9.02549 83.5308 9.5317 83.8241 9.83658C84.083 10.1069 84.4626 10.245 84.9804 10.245C85.6476 10.245 86.1711 10.0322 86.545 9.60648C86.8671 9.23258 87.0282 8.75513 87.0282 8.16263V3.41116H88.2592V11.1769H87.0282V9.99189Z" fill="#161E33"/>
<path d="M91.3137 3.41692H92.5447V4.66518C93.0452 3.7448 93.7355 3.28461 94.6271 3.28461C95.0815 3.28461 95.5015 3.38815 95.8869 3.59524L95.3807 4.63067C95.0815 4.47536 94.7767 4.40057 94.4718 4.40057C93.8275 4.40057 93.3328 4.65943 92.9934 5.17139C92.6943 5.60857 92.5447 6.19532 92.5447 6.92012V11.1826H91.3137V3.41692Z" fill="#161E33"/>
<path d="M100.604 11.3149C99.3153 11.3149 98.3201 10.9008 97.6298 10.0667C97.0489 9.35913 96.7612 8.4445 96.7612 7.31703C96.7612 6.04 97.1294 5.02758 97.8714 4.26827C98.5157 3.6125 99.321 3.28461 100.293 3.28461C101.398 3.28461 102.249 3.67577 102.847 4.45234C103.365 5.13113 103.624 6.0285 103.624 7.14446V7.54138H98.0383C98.0498 8.0821 98.1245 8.52503 98.2511 8.87018C98.3776 9.21532 98.579 9.51445 98.8551 9.76755C99.2405 10.1127 99.8157 10.291 100.575 10.291C101.047 10.291 101.444 10.2105 101.766 10.0437C102.082 9.87685 102.381 9.60648 102.657 9.22683L103.566 9.95163C102.928 10.8605 101.944 11.3149 100.604 11.3149ZM98.0785 6.55197H102.358C102.272 5.70637 102.048 5.11387 101.691 4.76873C101.375 4.46385 100.909 4.31429 100.305 4.31429C99.1024 4.30854 98.3604 5.05635 98.0785 6.55197Z" fill="#161E33"/>
<path d="M108.306 11.3149C106.96 11.3149 105.89 10.8145 105.091 9.81932L105.982 9.08877C106.327 9.54896 106.667 9.86534 106.989 10.0379C107.311 10.2105 107.731 10.2968 108.249 10.2968C108.859 10.2968 109.313 10.176 109.618 9.94012C109.882 9.73879 110.015 9.45692 110.015 9.10602C110.015 8.72062 109.865 8.433 109.572 8.24892C109.434 8.14538 109.284 8.0706 109.129 8.01882C108.974 7.96705 108.6 7.86926 108.013 7.72545C107.087 7.50111 106.443 7.19623 106.069 6.80507C105.741 6.45418 105.574 5.99974 105.574 5.44176C105.574 4.72846 105.844 4.17623 106.379 3.79082C106.851 3.45718 107.466 3.29036 108.226 3.29036C108.818 3.29036 109.319 3.37665 109.721 3.54922C110.124 3.72179 110.515 4.00941 110.901 4.41783L110.095 5.23467C109.779 4.88953 109.486 4.65368 109.209 4.51562C108.933 4.38332 108.6 4.31429 108.208 4.31429C107.72 4.31429 107.351 4.41783 107.098 4.62492C106.88 4.80899 106.77 5.05635 106.77 5.36697C106.77 5.70637 106.897 5.96522 107.156 6.14355C107.386 6.29886 107.852 6.45993 108.554 6.62675C109.146 6.76481 109.578 6.89711 109.854 7.01216C110.13 7.1272 110.377 7.28827 110.601 7.48961C111.01 7.86351 111.211 8.36972 111.211 9.00248C111.211 9.75604 110.912 10.3428 110.314 10.7627C109.808 11.1309 109.129 11.3149 108.306 11.3149Z" fill="#161E33"/>
<path fill-rule="evenodd" clip-rule="evenodd" d="M47.4805 31.2987C47.4805 31.2987 49.7355 30.5279 49.7355 27.9681C49.7355 24.9711 47.6071 23.4812 44.6849 23.4812H37.017V39.7892H45.3464C47.912 39.7892 50.42 37.9945 50.42 35.2506C50.4258 31.989 47.4805 31.3217 47.4805 31.2987ZM43.9946 26.8579C44.915 26.8579 45.5305 27.4734 45.5305 28.3938C45.5305 29.1128 44.9668 29.8836 43.9141 29.8836H41.0149V26.8579H43.9946ZM44.0176 36.3723H41.0206V33.1683H43.9428C45.4039 33.1683 46.0942 33.8068 46.0942 34.7559C46.0942 35.9352 45.2256 36.3723 44.0176 36.3723Z" fill="#161E33"/>
<path fill-rule="evenodd" clip-rule="evenodd" d="M59.2499 23.0671C54.533 23.0671 51.7661 26.8349 51.7661 31.6036C51.7661 36.3953 54.533 40.1401 59.2499 40.1401C63.9956 40.1401 66.7338 36.3953 66.7338 31.6036C66.7338 26.8349 63.9899 23.0671 59.2499 23.0671ZM59.2499 36.2458C56.9432 36.2458 55.787 34.1692 55.787 31.6036C55.787 29.038 56.9432 26.9902 59.2499 26.9902C61.5566 26.9902 62.7359 29.0668 62.7359 31.6036C62.7359 34.1922 61.5566 36.2458 59.2499 36.2458Z" fill="#161E33"/>
<path fill-rule="evenodd" clip-rule="evenodd" d="M75.4256 29.8836L74.8619 29.7571C73.4756 29.4752 72.3769 29.1186 72.3769 28.1177C72.3769 27.042 73.4296 26.6048 74.3499 26.6048C75.7075 26.6048 76.9155 27.2721 77.6806 28.1177L80.2174 25.6039C79.0611 24.2981 77.1916 23.0383 74.2694 23.0383C70.8352 23.0383 68.2179 24.9596 68.2179 28.1637C68.2179 31.0859 70.3175 32.524 72.8831 33.059L73.4468 33.1855C75.5752 33.6227 76.369 33.9563 76.369 34.9803C76.369 35.9524 75.4947 36.5967 74.1659 36.5967C72.5782 36.5967 71.1401 35.9064 70.0357 34.4971L67.4471 37.0626C68.8852 38.7826 70.7029 40.1114 74.2176 40.1114C77.2664 40.1114 80.5222 38.3684 80.5222 34.8019C80.5798 31.0916 77.7553 30.3726 75.4256 29.8836Z" fill="#161E33"/>
<path fill-rule="evenodd" clip-rule="evenodd" d="M89.657 36.2458C87.8623 36.2458 85.9928 34.7559 85.9928 31.5001C85.9928 28.6009 87.7357 26.9902 89.5592 26.9902C90.9973 26.9902 91.8429 27.6575 92.5102 28.8079L95.7891 26.6278C94.1496 24.1428 92.1996 23.0901 89.5075 23.0901C84.5834 23.0901 81.9201 26.9097 81.9201 31.5231C81.9201 36.3666 84.8711 40.1632 89.4557 40.1632C92.6886 40.1632 94.2244 39.0357 95.8926 36.6254L92.585 34.3935C91.912 35.475 91.1929 36.2458 89.657 36.2458Z" fill="#161E33"/>
<path fill-rule="evenodd" clip-rule="evenodd" d="M106.73 23.4755V29.4752H101.783V23.4755H97.4975V39.7835H101.783V33.3466H106.73V39.7835H111.01V23.4755H106.73Z" fill="#161E33"/>
<path d="M12.3392 19.3223C5.52839 19.3223 0.000351906 24.8503 0.000351906 31.6611C0.000351906 38.472 5.52839 44 12.3392 44C19.15 44 24.6781 38.4777 24.6781 31.6669C24.6781 24.8561 19.15 19.3223 12.3392 19.3223ZM12.3392 42.8553C6.16691 42.8553 1.15083 37.8392 1.15083 31.6669C1.15083 25.4946 6.16691 20.4785 12.3392 20.4785C18.5115 20.4785 23.5276 25.4946 23.5276 31.6669C23.5276 37.8392 18.5115 42.8553 12.3392 42.8553Z" fill="#161E33"/>
<path d="M17.4358 23.9587H16.5902V28.1809H8.11697V23.9587H7.24836C4.76333 25.6211 3.10089 28.4398 3.10089 31.6669C3.10089 34.894 4.76333 37.7069 7.24836 39.3751H8.11697V35.1528H16.5902V39.3751H17.4358C19.9439 37.7126 21.5833 34.894 21.5833 31.6669C21.5833 28.4398 19.9439 25.6211 17.4358 23.9587ZM6.93773 37.7069C5.22352 36.194 4.2226 34.0196 4.2226 31.6669C4.2226 29.3142 5.22352 27.134 6.93773 25.6269V37.7069ZM16.5902 33.9678H8.11697V29.3314H16.5902V33.9678ZM17.7407 37.6839V25.6211C19.4319 27.134 20.4271 29.3084 20.4271 31.6381C20.4328 33.9966 19.4319 36.171 17.7407 37.6839Z" fill="#161E33"/>
</g>
</g>
</svg>
