<svg width="320" height="80" viewBox="0 0 320 80" fill="none" xmlns="http://www.w3.org/2000/svg">
<rect x="0.5" y="0.5" width="319" height="79" rx="7.5" fill="#F0F3FA"/>
<rect x="0.5" y="0.5" width="319" height="79" rx="7.5" stroke="#D4D9E6"/>
<path d="M105.223 18.5637H109.25C111.545 18.5637 112.695 19.5014 112.695 21.3709C112.695 21.9059 112.58 22.3488 112.356 22.6882C112.131 23.0333 111.763 23.3267 111.251 23.5798C112.005 23.8157 112.546 24.1666 112.868 24.6267C113.15 25.0237 113.288 25.5299 113.288 26.1511C113.288 27.1693 112.925 27.9401 112.201 28.4808C111.568 28.9525 110.716 29.1826 109.646 29.1826H105.223V18.5637ZM109.618 23.2002C110.866 23.2002 111.487 22.5789 111.487 21.3421C111.487 20.6979 111.292 20.2377 110.895 19.9558C110.544 19.7085 110.02 19.5877 109.336 19.5877H106.454V23.2002H109.618ZM109.842 28.1587C110.613 28.1587 111.188 27.9631 111.574 27.572C111.913 27.2326 112.08 26.7666 112.08 26.1626C112.08 24.8683 111.286 24.2183 109.698 24.2183H106.448V28.1587H109.842Z" fill="#161E33"/>
<path d="M118.62 21.2846C119.753 21.2846 120.662 21.7103 121.353 22.5674C121.957 23.3095 122.261 24.2126 122.261 25.2883C122.261 26.548 121.87 27.5547 121.094 28.3198C120.415 28.9813 119.581 29.3149 118.58 29.3149C117.447 29.3149 116.532 28.8893 115.83 28.0322C115.226 27.2901 114.921 26.3812 114.921 25.3055C114.921 24.0458 115.313 23.0391 116.089 22.2798C116.774 21.6182 117.619 21.2846 118.62 21.2846ZM118.62 22.3085C117.815 22.3085 117.199 22.6134 116.762 23.2174C116.383 23.7466 116.198 24.4484 116.198 25.3285C116.198 26.3007 116.44 27.0543 116.923 27.5892C117.349 28.0609 117.901 28.291 118.574 28.291C119.362 28.291 119.972 27.9861 120.409 27.3764C120.789 26.8472 120.984 26.1511 120.984 25.2998C120.984 24.3334 120.743 23.5741 120.254 23.0218C119.828 22.5501 119.287 22.3085 118.62 22.3085Z" fill="#161E33"/>
<path d="M126.99 29.3149C125.644 29.3149 124.574 28.8145 123.774 27.8193L124.666 27.0888C125.011 27.549 125.35 27.8653 125.673 28.0379C125.995 28.2105 126.415 28.2968 126.932 28.2968C127.542 28.2968 127.997 28.176 128.301 27.9401C128.566 27.7388 128.698 27.4569 128.698 27.106C128.698 26.7206 128.549 26.433 128.255 26.2489C128.117 26.1454 127.968 26.0706 127.812 26.0188C127.657 25.9671 127.283 25.8693 126.697 25.7255C125.77 25.5011 125.126 25.1962 124.752 24.8051C124.424 24.4542 124.258 23.9997 124.258 23.4418C124.258 22.7285 124.528 22.1762 125.063 21.7908C125.535 21.4572 126.15 21.2904 126.909 21.2904C127.502 21.2904 128.002 21.3766 128.405 21.5492C128.808 21.7218 129.199 22.0094 129.584 22.4178L128.779 23.2347C128.463 22.8895 128.169 22.6537 127.893 22.5156C127.617 22.3833 127.283 22.3143 126.892 22.3143C126.403 22.3143 126.035 22.4178 125.782 22.6249C125.586 22.8032 125.477 23.0506 125.477 23.3612C125.477 23.7006 125.604 23.9595 125.862 24.1378C126.093 24.2931 126.558 24.4542 127.26 24.621C127.853 24.7591 128.284 24.8914 128.56 25.0064C128.836 25.1215 129.084 25.2825 129.308 25.4839C129.717 25.8578 129.918 26.364 129.918 26.9967C129.918 27.7503 129.619 28.337 129.02 28.757C128.491 29.1309 127.818 29.3149 126.99 29.3149Z" fill="#161E33"/>
<path d="M135.325 29.3149C134.163 29.3149 133.243 28.895 132.564 28.0552C131.971 27.3246 131.672 26.41 131.672 25.3055C131.672 24.017 132.046 23.0046 132.788 22.2568C133.438 21.6067 134.261 21.2846 135.256 21.2846C136.493 21.2846 137.471 21.8023 138.178 22.832L137.154 23.4705C136.861 23.0333 136.573 22.7285 136.303 22.5616C136.027 22.3948 135.688 22.3143 135.268 22.3143C134.485 22.3143 133.887 22.6192 133.484 23.2232C133.128 23.7466 132.949 24.4542 132.949 25.3458C132.949 26.3582 133.185 27.1175 133.651 27.6237C134.06 28.0724 134.629 28.2968 135.354 28.2968C136.245 28.2968 136.93 27.9114 137.407 27.1348L138.374 27.687C137.988 28.3083 137.517 28.7455 136.965 29.0043C136.51 29.2114 135.964 29.3149 135.325 29.3149Z" fill="#161E33"/>
<path d="M140.45 18H141.681V22.6077C142.159 21.7275 142.947 21.2904 144.046 21.2904C144.932 21.2904 145.593 21.5895 146.03 22.1877C146.416 22.7112 146.611 23.436 146.611 24.3679V29.1826H145.38V24.2816C145.38 23.5683 145.231 23.0621 144.932 22.7572C144.667 22.4869 144.264 22.3488 143.735 22.3488C143.068 22.3488 142.544 22.5616 142.17 22.9873C141.848 23.3612 141.687 23.8387 141.687 24.4312V29.1826H140.456V18H140.45Z" fill="#161E33"/>
<path d="M153.008 18.5637H154.285L157.288 27.3994L160.319 18.5637H161.521L157.731 29.1826H156.753L153.008 18.5637Z" fill="#161E33"/>
<path d="M166.388 29.3149C165.099 29.3149 164.104 28.9008 163.414 28.0667C162.833 27.3591 162.545 26.4445 162.545 25.317C162.545 24.04 162.914 23.0276 163.656 22.2683C164.3 21.6125 165.105 21.2846 166.077 21.2846C167.182 21.2846 168.033 21.6758 168.631 22.4523C169.149 23.1311 169.408 24.0285 169.408 25.1445V25.5414H163.822C163.834 26.0821 163.909 26.525 164.035 26.8702C164.162 27.2153 164.363 27.5144 164.639 27.7676C165.025 28.1127 165.6 28.291 166.359 28.291C166.831 28.291 167.228 28.2105 167.55 28.0437C167.866 27.8768 168.165 27.6065 168.442 27.2268L169.35 27.9516C168.712 28.8605 167.723 29.3149 166.388 29.3149ZM163.863 24.552H168.142C168.056 23.7064 167.832 23.1139 167.475 22.7687C167.159 22.4639 166.693 22.3143 166.089 22.3143C164.887 22.3085 164.145 23.0563 163.863 24.552Z" fill="#161E33"/>
<path d="M171.761 21.4169H172.992V22.6077C173.469 21.7275 174.257 21.2904 175.356 21.2904C176.242 21.2904 176.903 21.5895 177.341 22.1877C177.726 22.7112 177.922 23.436 177.922 24.3679V29.1826H176.691V24.2816C176.691 23.5683 176.541 23.0621 176.242 22.7572C175.977 22.4869 175.575 22.3488 175.045 22.3488C174.378 22.3488 173.855 22.5616 173.481 22.9873C173.159 23.3612 172.997 23.8387 172.997 24.4312V29.1826H171.766V21.4169H171.761Z" fill="#161E33"/>
<path d="M179.946 21.4169H181.137V19.4036L182.368 19.1045V21.4169H184.324V22.4408H182.368V27.1866C182.368 27.9286 182.667 28.2968 183.26 28.2968C183.634 28.2968 183.985 28.176 184.312 27.9286L184.79 28.7742C184.312 29.1366 183.772 29.3207 183.179 29.3207C182.506 29.3207 181.988 29.1251 181.62 28.7397C181.298 28.4061 181.137 27.9689 181.137 27.4224V22.4466H179.946V21.4169Z" fill="#161E33"/>
<path d="M191.422 27.9919C190.945 28.872 190.157 29.3092 189.058 29.3092C188.19 29.3092 187.54 29.0101 187.108 28.4118C186.734 27.8883 186.55 27.1578 186.55 26.2202V21.4112H187.781V26.3122C187.781 27.0255 187.925 27.5317 188.218 27.8366C188.477 28.1069 188.857 28.245 189.375 28.245C190.042 28.245 190.565 28.0322 190.939 27.6065C191.261 27.2326 191.422 26.7551 191.422 26.1626V21.4112H192.653V29.1769H191.422V27.9919Z" fill="#161E33"/>
<path d="M195.708 21.4169H196.939V22.6652C197.439 21.7448 198.13 21.2846 199.021 21.2846C199.476 21.2846 199.896 21.3882 200.281 21.5952L199.775 22.6307C199.476 22.4754 199.171 22.4006 198.866 22.4006C198.222 22.4006 197.727 22.6594 197.388 23.1714C197.088 23.6086 196.939 24.1953 196.939 24.9201V29.1826H195.708V21.4169Z" fill="#161E33"/>
<path d="M204.998 29.3149C203.709 29.3149 202.714 28.9008 202.024 28.0667C201.443 27.3591 201.155 26.4445 201.155 25.317C201.155 24.04 201.524 23.0276 202.266 22.2683C202.91 21.6125 203.715 21.2846 204.687 21.2846C205.792 21.2846 206.643 21.6758 207.241 22.4523C207.759 23.1311 208.018 24.0285 208.018 25.1445V25.5414H202.432C202.444 26.0821 202.519 26.525 202.645 26.8702C202.772 27.2153 202.973 27.5144 203.249 27.7676C203.635 28.1127 204.21 28.291 204.969 28.291C205.441 28.291 205.838 28.2105 206.16 28.0437C206.476 27.8768 206.775 27.6065 207.052 27.2268L207.96 27.9516C207.322 28.8605 206.338 29.3149 204.998 29.3149ZM202.473 24.552H206.752C206.666 23.7064 206.442 23.1139 206.085 22.7687C205.769 22.4639 205.303 22.3143 204.699 22.3143C203.497 22.3085 202.755 23.0563 202.473 24.552Z" fill="#161E33"/>
<path d="M212.7 29.3149C211.354 29.3149 210.284 28.8145 209.485 27.8193L210.376 27.0888C210.722 27.549 211.061 27.8653 211.383 28.0379C211.705 28.2105 212.125 28.2968 212.643 28.2968C213.253 28.2968 213.707 28.176 214.012 27.9401C214.277 27.7388 214.409 27.4569 214.409 27.106C214.409 26.7206 214.259 26.433 213.966 26.2489C213.828 26.1454 213.678 26.0706 213.523 26.0188C213.368 25.9671 212.994 25.8693 212.407 25.7255C211.481 25.5011 210.837 25.1962 210.463 24.8051C210.135 24.4542 209.968 23.9997 209.968 23.4418C209.968 22.7285 210.238 22.1762 210.773 21.7908C211.245 21.4572 211.861 21.2904 212.62 21.2904C213.212 21.2904 213.713 21.3766 214.116 21.5492C214.518 21.7218 214.909 22.0094 215.295 22.4178L214.489 23.2347C214.173 22.8895 213.88 22.6537 213.604 22.5156C213.327 22.3833 212.994 22.3143 212.603 22.3143C212.114 22.3143 211.746 22.4178 211.492 22.6249C211.274 22.809 211.165 23.0563 211.165 23.367C211.165 23.7064 211.291 23.9652 211.55 24.1435C211.78 24.2989 212.246 24.4599 212.948 24.6267C213.54 24.7648 213.972 24.8971 214.248 25.0122C214.524 25.1272 214.771 25.2883 214.996 25.4896C215.404 25.8635 215.605 26.3697 215.605 27.0025C215.605 27.756 215.306 28.3428 214.708 28.7627C214.202 29.1309 213.523 29.3149 212.7 29.3149Z" fill="#161E33"/>
<path fill-rule="evenodd" clip-rule="evenodd" d="M151.875 49.2987C151.875 49.2987 154.13 48.5279 154.13 45.9681C154.13 42.9711 152.001 41.4812 149.079 41.4812H141.411V57.7892H149.741C152.306 57.7892 154.814 55.9945 154.814 53.2506C154.82 49.989 151.875 49.3217 151.875 49.2987ZM148.389 44.8579C149.309 44.8579 149.925 45.4734 149.925 46.3938C149.925 47.1128 149.361 47.8836 148.308 47.8836H145.409V44.8579H148.389ZM148.412 54.3723H145.415V51.1683H148.337C149.798 51.1683 150.488 51.8068 150.488 52.7559C150.488 53.9352 149.62 54.3723 148.412 54.3723Z" fill="#161E33"/>
<path fill-rule="evenodd" clip-rule="evenodd" d="M163.644 41.0671C158.927 41.0671 156.16 44.8349 156.16 49.6036C156.16 54.3953 158.927 58.1401 163.644 58.1401C168.39 58.1401 171.128 54.3953 171.128 49.6036C171.128 44.8349 168.384 41.0671 163.644 41.0671ZM163.644 54.2458C161.337 54.2458 160.181 52.1692 160.181 49.6036C160.181 47.038 161.337 44.9902 163.644 44.9902C165.951 44.9902 167.13 47.0668 167.13 49.6036C167.13 52.1922 165.951 54.2458 163.644 54.2458Z" fill="#161E33"/>
<path fill-rule="evenodd" clip-rule="evenodd" d="M179.82 47.8836L179.256 47.7571C177.87 47.4752 176.771 47.1186 176.771 46.1177C176.771 45.042 177.824 44.6048 178.744 44.6048C180.102 44.6048 181.31 45.2721 182.075 46.1177L184.612 43.6039C183.455 42.2981 181.586 41.0383 178.664 41.0383C175.229 41.0383 172.612 42.9596 172.612 46.1637C172.612 49.0859 174.712 50.524 177.277 51.059L177.841 51.1855C179.969 51.6227 180.763 51.9563 180.763 52.9803C180.763 53.9524 179.889 54.5967 178.56 54.5967C176.972 54.5967 175.534 53.9064 174.43 52.4971L171.841 55.0626C173.279 56.7826 175.097 58.1114 178.612 58.1114C181.661 58.1114 184.916 56.3684 184.916 52.8019C184.974 49.0916 182.15 48.3726 179.82 47.8836Z" fill="#161E33"/>
<path fill-rule="evenodd" clip-rule="evenodd" d="M194.051 54.2458C192.256 54.2458 190.387 52.7559 190.387 49.5001C190.387 46.6009 192.13 44.9902 193.953 44.9902C195.392 44.9902 196.237 45.6575 196.904 46.8079L200.183 44.6278C198.544 42.1428 196.594 41.0901 193.902 41.0901C188.978 41.0901 186.314 44.9097 186.314 49.5231C186.314 54.3666 189.265 58.1632 193.85 58.1632C197.083 58.1632 198.619 57.0357 200.287 54.6254L196.979 52.3935C196.306 53.475 195.587 54.2458 194.051 54.2458Z" fill="#161E33"/>
<path fill-rule="evenodd" clip-rule="evenodd" d="M211.124 41.4755V47.4752H206.177V41.4755H201.892V57.7835H206.177V51.3466H211.124V57.7835H215.404V41.4755H211.124Z" fill="#161E33"/>
<path d="M116.733 37.3223C109.923 37.3223 104.395 42.8503 104.395 49.6611C104.395 56.472 109.923 62 116.733 62C123.544 62 129.072 56.4777 129.072 49.6669C129.072 42.8561 123.544 37.3223 116.733 37.3223ZM116.733 60.8553C110.561 60.8553 105.545 55.8392 105.545 49.6669C105.545 43.4946 110.561 38.4785 116.733 38.4785C122.906 38.4785 127.922 43.4946 127.922 49.6669C127.922 55.8392 122.906 60.8553 116.733 60.8553Z" fill="#161E33"/>
<path d="M121.83 41.9587H120.984V46.1809H112.511V41.9587H111.643C109.158 43.6211 107.495 46.4398 107.495 49.6669C107.495 52.894 109.158 55.7069 111.643 57.3751H112.511V53.1528H120.984V57.3751H121.83C124.338 55.7126 125.977 52.894 125.977 49.6669C125.977 46.4398 124.338 43.6211 121.83 41.9587ZM111.332 55.7069C109.618 54.194 108.617 52.0196 108.617 49.6669C108.617 47.3142 109.618 45.134 111.332 43.6269V55.7069ZM120.984 51.9678H112.511V47.3314H120.984V51.9678ZM122.135 55.6839V43.6211C123.826 45.134 124.821 47.3084 124.821 49.6381C124.827 51.9966 123.826 54.171 122.135 55.6839Z" fill="#161E33"/>
</svg>
