<svg xmlns="http://www.w3.org/2000/svg" width="112" height="44" viewBox="0 0 112 44" fill="none">
    <path d="M0.828344 0.563734H4.85501C7.15022 0.563734 8.30069 1.50137 8.30069 3.3709C8.30069 3.90587 8.18564 4.3488 7.9613 4.68819C7.73696 5.03334 7.36881 5.32671 6.85684 5.57981C7.61041 5.81566 8.15113 6.16656 8.47326 6.62675C8.75513 7.02366 8.89319 7.52987 8.89319 8.15113C8.89319 9.1693 8.53079 9.94012 7.80599 10.4808C7.17322 10.9525 6.32187 11.1826 5.25193 11.1826H0.828344V0.563734ZM5.22317 5.20016C6.47143 5.20016 7.09269 4.5789 7.09269 3.34213C7.09269 2.69787 6.89711 2.23768 6.5002 1.95581C6.1493 1.70846 5.62583 1.58766 4.9413 1.58766H2.05935V5.20016H5.22317ZM5.44751 10.1587C6.21833 10.1587 6.79357 9.96313 7.17898 9.57197C7.51837 9.23258 7.68519 8.76663 7.68519 8.16263C7.68519 6.86835 6.89136 6.21833 5.3037 6.21833H2.0536V10.1587H5.44751Z" fill="#161E33"/>
    <path d="M14.2257 3.28461C15.3589 3.28461 16.2677 3.71029 16.958 4.56739C17.562 5.30945 17.8669 6.21257 17.8669 7.28827C17.8669 8.54804 17.4757 9.55471 16.6992 10.3198C16.0204 10.9813 15.1863 11.3149 14.1854 11.3149C13.0522 11.3149 12.1375 10.8893 11.4357 10.0322C10.8317 9.2901 10.5269 8.38123 10.5269 7.30553C10.5269 6.04576 10.918 5.03909 11.6946 4.27977C12.3791 3.61825 13.2247 3.28461 14.2257 3.28461ZM14.2257 4.30854C13.4203 4.30854 12.8048 4.61341 12.3676 5.21741C11.988 5.74663 11.8039 6.44842 11.8039 7.32854C11.8039 8.30069 12.0455 9.05425 12.5287 9.58922C12.9544 10.0609 13.5066 10.291 14.1796 10.291C14.9677 10.291 15.5775 9.98614 16.0146 9.37639C16.3943 8.84717 16.5899 8.15113 16.5899 7.29978C16.5899 6.33338 16.3483 5.57406 15.8593 5.02183C15.4337 4.55014 14.8929 4.30854 14.2257 4.30854Z" fill="#161E33"/>
    <path d="M22.5954 11.3149C21.2493 11.3149 20.1794 10.8145 19.3798 9.81932L20.2714 9.08877C20.6165 9.54896 20.9559 9.86534 21.2781 10.0379C21.6002 10.2105 22.0201 10.2968 22.5378 10.2968C23.1476 10.2968 23.602 10.176 23.9069 9.94012C24.1715 9.73879 24.3038 9.45692 24.3038 9.10602C24.3038 8.72062 24.1543 8.433 23.8609 8.24892C23.7228 8.14538 23.5733 8.0706 23.418 8.01882C23.2626 7.96705 22.8887 7.86926 22.302 7.72545C21.3759 7.50111 20.7316 7.19623 20.3577 6.80507C20.0298 6.45418 19.863 5.99974 19.863 5.44176C19.863 4.72846 20.1334 4.17623 20.6683 3.79082C21.14 3.45718 21.7555 3.29036 22.5148 3.29036C23.1073 3.29036 23.6078 3.37665 24.0105 3.54922C24.4131 3.72179 24.8043 4.00941 25.1897 4.41783L24.3844 5.23467C24.068 4.88953 23.7746 4.65368 23.4985 4.51562C23.2224 4.38332 22.8887 4.31429 22.4976 4.31429C22.0086 4.31429 21.6405 4.41783 21.3874 4.62492C21.1918 4.80324 21.0825 5.05059 21.0825 5.36122C21.0825 5.70061 21.209 5.95947 21.4679 6.13779C21.698 6.29311 22.1639 6.45418 22.8657 6.621C23.4582 6.75905 23.8897 6.89136 24.1658 7.00641C24.4419 7.12145 24.6892 7.28252 24.9136 7.48385C25.322 7.85776 25.5233 8.36397 25.5233 8.99673C25.5233 9.75029 25.2242 10.337 24.626 10.757C24.0967 11.1309 23.4237 11.3149 22.5954 11.3149Z" fill="#161E33"/>
    <path d="M30.9306 11.3149C29.7686 11.3149 28.8482 10.895 28.1694 10.0552C27.5769 9.32462 27.2778 8.40999 27.2778 7.30553C27.2778 6.017 27.6517 5.00457 28.3938 4.25676C29.0438 3.60674 29.8664 3.28461 30.8616 3.28461C32.0983 3.28461 33.0762 3.80233 33.7838 4.832L32.7598 5.47052C32.4665 5.03334 32.1788 4.72846 31.9085 4.56164C31.6324 4.39482 31.293 4.31429 30.8731 4.31429C30.0907 4.31429 29.4925 4.61916 29.0898 5.22317C28.7332 5.74663 28.5548 6.45418 28.5548 7.3458C28.5548 8.35822 28.7907 9.11753 29.2566 9.62374C29.6651 10.0724 30.2345 10.2968 30.9593 10.2968C31.851 10.2968 32.5355 9.91136 33.0129 9.13479L33.9793 9.68702C33.5939 10.3083 33.1222 10.7455 32.57 11.0043C32.1156 11.2114 31.5691 11.3149 30.9306 11.3149Z" fill="#161E33"/>
    <path d="M36.056 0H37.287V4.60766C37.7644 3.72754 38.5525 3.29036 39.6512 3.29036C40.5371 3.29036 41.1986 3.58949 41.6358 4.18774C42.0212 4.7112 42.2168 5.436 42.2168 6.36789V11.1826H40.9857V6.2816C40.9857 5.56831 40.8362 5.0621 40.5371 4.75722C40.2725 4.48686 39.8698 4.3488 39.3406 4.3488C38.6733 4.3488 38.1498 4.56164 37.7759 4.98732C37.4538 5.36122 37.2927 5.83867 37.2927 6.43117V11.1826H36.0617V0H36.056Z" fill="#161E33"/>
    <path d="M48.6134 0.563734H49.8904L52.8932 9.3994L55.9247 0.563734H57.1269L53.3361 11.1826H52.3582L48.6134 0.563734Z" fill="#161E33"/>
    <path d="M61.9935 11.3149C60.7049 11.3149 59.7098 10.9008 59.0195 10.0667C58.4385 9.35913 58.1509 8.4445 58.1509 7.31703C58.1509 6.04 58.519 5.02758 59.2611 4.26827C59.9053 3.6125 60.7107 3.28461 61.6828 3.28461C62.7873 3.28461 63.6386 3.67577 64.2369 4.45234C64.7546 5.13113 65.0135 6.0285 65.0135 7.14446V7.54138H59.4279C59.4394 8.0821 59.5142 8.52503 59.6407 8.87018C59.7673 9.21532 59.9686 9.51445 60.2447 9.76755C60.6301 10.1127 61.2054 10.291 61.9647 10.291C62.4364 10.291 62.8333 10.2105 63.1554 10.0437C63.4718 9.87685 63.771 9.60648 64.0471 9.22683L64.9559 9.95163C64.3174 10.8605 63.328 11.3149 61.9935 11.3149ZM59.4682 6.55197H63.7479C63.6617 5.70637 63.4373 5.11387 63.0807 4.76873C62.7643 4.46385 62.2983 4.31429 61.6943 4.31429C60.4921 4.30854 59.75 5.05635 59.4682 6.55197Z" fill="#161E33"/>
    <path d="M67.3662 3.41692H68.5972V4.60766C69.0747 3.72754 69.8627 3.29036 70.9614 3.29036C71.8473 3.29036 72.5088 3.58949 72.946 4.18774C73.3314 4.7112 73.527 5.436 73.527 6.36789V11.1826H72.296V6.2816C72.296 5.56831 72.1464 5.0621 71.8473 4.75722C71.5827 4.48686 71.18 4.3488 70.6508 4.3488C69.9835 4.3488 69.4601 4.56164 69.0862 4.98732C68.764 5.36122 68.603 5.83867 68.603 6.43117V11.1826H67.3719V3.41692H67.3662Z" fill="#161E33"/>
    <path d="M75.5518 3.41692H76.7426V1.40358L77.9736 1.10446V3.41692H79.9294V4.44084H77.9736V9.18656C77.9736 9.92862 78.2727 10.2968 78.8652 10.2968C79.2391 10.2968 79.59 10.176 79.9179 9.92862L80.3953 10.7742C79.9179 11.1366 79.3772 11.3207 78.7847 11.3207C78.1116 11.3207 77.5939 11.1251 77.2258 10.7397C76.9036 10.4061 76.7426 9.96888 76.7426 9.42241V4.44659H75.5518V3.41692Z" fill="#161E33"/>
    <path d="M87.0278 9.99189C86.5504 10.872 85.7623 11.3092 84.6636 11.3092C83.795 11.3092 83.145 11.0101 82.7136 10.4118C82.3397 9.88835 82.1556 9.1578 82.1556 8.22016V3.41116H83.3866V8.3122C83.3866 9.02549 83.5304 9.5317 83.8238 9.83658C84.0826 10.1069 84.4623 10.245 84.98 10.245C85.6473 10.245 86.1707 10.0322 86.5446 9.60648C86.8668 9.23258 87.0278 8.75513 87.0278 8.16263V3.41116H88.2589V11.1769H87.0278V9.99189Z" fill="#161E33"/>
    <path d="M91.3134 3.41692H92.5444V4.66518C93.0448 3.7448 93.7351 3.28461 94.6267 3.28461C95.0812 3.28461 95.5011 3.38815 95.8865 3.59524L95.3803 4.63067C95.0812 4.47536 94.7763 4.40057 94.4714 4.40057C93.8272 4.40057 93.3325 4.65943 92.9931 5.17139C92.6939 5.60857 92.5444 6.19532 92.5444 6.92012V11.1826H91.3134V3.41692Z" fill="#161E33"/>
    <path d="M100.603 11.3149C99.3149 11.3149 98.3198 10.9008 97.6295 10.0667C97.0485 9.35913 96.7609 8.4445 96.7609 7.31703C96.7609 6.04 97.129 5.02758 97.8711 4.26827C98.5154 3.6125 99.3207 3.28461 100.293 3.28461C101.397 3.28461 102.249 3.67577 102.847 4.45234C103.365 5.13113 103.623 6.0285 103.623 7.14446V7.54138H98.0379C98.0494 8.0821 98.1242 8.52503 98.2507 8.87018C98.3773 9.21532 98.5786 9.51445 98.8547 9.76755C99.2402 10.1127 99.8154 10.291 100.575 10.291C101.046 10.291 101.443 10.2105 101.765 10.0437C102.082 9.87685 102.381 9.60648 102.657 9.22683L103.566 9.95163C102.927 10.8605 101.944 11.3149 100.603 11.3149ZM98.0782 6.55197H102.358C102.272 5.70637 102.047 5.11387 101.691 4.76873C101.374 4.46385 100.908 4.31429 100.304 4.31429C99.1021 4.30854 98.36 5.05635 98.0782 6.55197Z" fill="#161E33"/>
    <path d="M108.306 11.3149C106.96 11.3149 105.89 10.8145 105.09 9.81932L105.982 9.08877C106.327 9.54896 106.666 9.86534 106.989 10.0379C107.311 10.2105 107.731 10.2968 108.248 10.2968C108.858 10.2968 109.313 10.176 109.617 9.94012C109.882 9.73879 110.014 9.45692 110.014 9.10602C110.014 8.72062 109.865 8.433 109.571 8.24892C109.433 8.14538 109.284 8.0706 109.129 8.01882C108.973 7.96705 108.599 7.86926 108.013 7.72545C107.086 7.50111 106.442 7.19623 106.068 6.80507C105.74 6.45418 105.574 5.99974 105.574 5.44176C105.574 4.72846 105.844 4.17623 106.379 3.79082C106.851 3.45718 107.466 3.29036 108.225 3.29036C108.818 3.29036 109.318 3.37665 109.721 3.54922C110.124 3.72179 110.515 4.00941 110.9 4.41783L110.095 5.23467C109.779 4.88953 109.485 4.65368 109.209 4.51562C108.933 4.38332 108.599 4.31429 108.208 4.31429C107.719 4.31429 107.351 4.41783 107.098 4.62492C106.879 4.80899 106.77 5.05635 106.77 5.36697C106.77 5.70637 106.897 5.96522 107.155 6.14355C107.386 6.29886 107.851 6.45993 108.553 6.62675C109.146 6.76481 109.577 6.89711 109.853 7.01216C110.129 7.1272 110.377 7.28827 110.601 7.48961C111.01 7.86351 111.211 8.36972 111.211 9.00248C111.211 9.75604 110.912 10.3428 110.314 10.7627C109.807 11.1309 109.129 11.3149 108.306 11.3149Z" fill="#161E33"/>
    <path fill-rule="evenodd" clip-rule="evenodd" d="M47.4802 31.2987C47.4802 31.2987 49.7351 30.5279 49.7351 27.9681C49.7351 24.9711 47.6067 23.4812 44.6845 23.4812H37.0166V39.7892H45.3461C47.9116 39.7892 50.4197 37.9945 50.4197 35.2506C50.4254 31.989 47.4802 31.3217 47.4802 31.2987ZM43.9942 26.8579C44.9146 26.8579 45.5301 27.4734 45.5301 28.3938C45.5301 29.1128 44.9664 29.8836 43.9137 29.8836H41.0145V26.8579H43.9942ZM44.0173 36.3723H41.0203V33.1683H43.9425C45.4036 33.1683 46.0939 33.8068 46.0939 34.7559C46.0939 35.9352 45.2253 36.3723 44.0173 36.3723Z" fill="#161E33"/>
    <path fill-rule="evenodd" clip-rule="evenodd" d="M59.2496 23.0671C54.5326 23.0671 51.7657 26.8349 51.7657 31.6036C51.7657 36.3953 54.5326 40.1401 59.2496 40.1401C63.9953 40.1401 66.7334 36.3953 66.7334 31.6036C66.7334 26.8349 63.9895 23.0671 59.2496 23.0671ZM59.2496 36.2458C56.9429 36.2458 55.7866 34.1692 55.7866 31.6036C55.7866 29.038 56.9429 26.9902 59.2496 26.9902C61.5563 26.9902 62.7355 29.0668 62.7355 31.6036C62.7355 34.1922 61.5563 36.2458 59.2496 36.2458Z" fill="#161E33"/>
    <path fill-rule="evenodd" clip-rule="evenodd" d="M75.4253 29.8836L74.8616 29.7571C73.4752 29.4752 72.3765 29.1186 72.3765 28.1177C72.3765 27.042 73.4292 26.6048 74.3496 26.6048C75.7072 26.6048 76.9152 27.2721 77.6802 28.1177L80.217 25.6039C79.0608 24.2981 77.1913 23.0383 74.2691 23.0383C70.8349 23.0383 68.2175 24.9596 68.2175 28.1637C68.2175 31.0859 70.3172 32.524 72.8827 33.059L73.4465 33.1855C75.5748 33.6227 76.3687 33.9563 76.3687 34.9803C76.3687 35.9524 75.4943 36.5967 74.1655 36.5967C72.5779 36.5967 71.1398 35.9064 70.0353 34.4971L67.4467 37.0626C68.8848 38.7826 70.7026 40.1114 74.2173 40.1114C77.266 40.1114 80.5219 38.3684 80.5219 34.8019C80.5794 31.0916 77.755 30.3726 75.4253 29.8836Z" fill="#161E33"/>
    <path fill-rule="evenodd" clip-rule="evenodd" d="M89.6567 36.2458C87.8619 36.2458 85.9924 34.7559 85.9924 31.5001C85.9924 28.6009 87.7354 26.9902 89.5589 26.9902C90.997 26.9902 91.8426 27.6575 92.5099 28.8079L95.7887 26.6278C94.1493 24.1428 92.1992 23.0901 89.5071 23.0901C84.5831 23.0901 81.9197 26.9097 81.9197 31.5231C81.9197 36.3666 84.8707 40.1632 89.4554 40.1632C92.6882 40.1632 94.2241 39.0357 95.8923 36.6254L92.5847 34.3935C91.9116 35.475 91.1926 36.2458 89.6567 36.2458Z" fill="#161E33"/>
    <path fill-rule="evenodd" clip-rule="evenodd" d="M106.73 23.4755V29.4752H101.783V23.4755H97.4972V39.7835H101.783V33.3466H106.73V39.7835H111.01V23.4755H106.73Z" fill="#161E33"/>
    <path d="M12.3389 19.3223C5.52804 19.3223 0 24.8503 0 31.6611C0 38.472 5.52804 44 12.3389 44C19.1497 44 24.6777 38.4777 24.6777 31.6669C24.6777 24.8561 19.1497 19.3223 12.3389 19.3223ZM12.3389 42.8553C6.16656 42.8553 1.15048 37.8392 1.15048 31.6669C1.15048 25.4946 6.16656 20.4785 12.3389 20.4785C18.5112 20.4785 23.5273 25.4946 23.5273 31.6669C23.5273 37.8392 18.5112 42.8553 12.3389 42.8553Z" fill="#161E33"/>
    <path d="M17.4355 23.9587H16.5899V28.1809H8.11662V23.9587H7.24801C4.76298 25.6211 3.10054 28.4398 3.10054 31.6669C3.10054 34.894 4.76298 37.7069 7.24801 39.3751H8.11662V35.1528H16.5899V39.3751H17.4355C19.9435 37.7126 21.583 34.894 21.583 31.6669C21.583 28.4398 19.9435 25.6211 17.4355 23.9587ZM6.93738 37.7069C5.22317 36.194 4.22225 34.0196 4.22225 31.6669C4.22225 29.3142 5.22317 27.134 6.93738 25.6269V37.7069ZM16.5899 33.9678H8.11662V29.3314H16.5899V33.9678ZM17.7404 37.6839V25.6211C19.4316 27.134 20.4267 29.3084 20.4267 31.6381C20.4325 33.9966 19.4316 36.171 17.7404 37.6839Z" fill="#161E33"/>
</svg>