<svg width="213" height="33" viewBox="0 0 213 33" fill="none" xmlns="http://www.w3.org/2000/svg">
<g clip-path="url(#clip0_1817_22220)">
<mask id="mask0_1817_22220" style="mask-type:luminance" maskUnits="userSpaceOnUse" x="0" y="0" width="212" height="33">
<path d="M0.123047 0.236328H211.552V32.2363H0.123047V0.236328Z" fill="white"/>
</mask>
<g mask="url(#mask0_1817_22220)">
<path d="M16.2638 16.2363C16.2638 10.3163 19.5102 5.14835 24.3342 2.38195C21.8786 0.972025 19.0955 0.23212 16.2638 0.236346C7.35025 0.236346 0.123047 7.40115 0.123047 16.2363C0.123047 25.0715 7.35025 32.2363 16.2638 32.2363C19.0955 32.2406 21.8786 31.5007 24.3342 30.0907C19.5102 27.3227 16.2638 22.1547 16.2638 16.2363Z" fill="#3D4866"/>
<path d="M32.4107 16.2363C32.4107 10.3163 35.6587 5.14834 40.4811 2.38194C38.0252 0.972442 35.2423 0.232568 32.4107 0.236344C29.5796 0.232399 26.7971 0.972294 24.3419 2.38194C19.5179 5.14994 16.2715 10.3179 16.2715 16.2363C16.2715 22.1563 19.5179 27.3243 24.3419 30.0907C26.7971 31.5004 29.5796 32.2403 32.4107 32.2363C35.3531 32.2363 38.1067 31.4523 40.4811 30.0907C35.6587 27.3227 32.4107 22.1547 32.4107 16.2363Z" fill="#28324D"/>
<path d="M48.5451 0.236346C45.7134 0.23212 42.9304 0.972025 40.4747 2.38195C35.6523 5.14995 32.4043 10.3131 32.4043 16.2363C32.4043 22.1563 35.6523 27.3243 40.4747 30.0907C42.9304 31.5006 45.7135 32.2405 48.5451 32.2363C57.4571 32.2363 64.6859 25.0715 64.6859 16.2363C64.6827 7.40115 57.4587 0.236346 48.5451 0.236346Z" fill="#161E33"/>
<path d="M74.262 7.20508H71.502V25.2691H74.262V7.20508ZM79.8988 23.0243H83.8572C84.9676 23.0243 85.83 22.7651 86.446 22.2499C87.0636 21.7363 87.3724 21.0115 87.3724 20.0835C87.3724 19.1539 87.0508 18.4179 86.4092 17.8771C85.7676 17.3347 84.8988 17.0643 83.8044 17.0643H79.9004L79.8988 23.0243ZM79.8988 14.9443H83.6748C84.7308 14.9443 85.5404 14.6995 86.0972 14.2083C86.6508 13.7203 86.9308 13.0435 86.9308 12.1827C86.9308 11.3411 86.6588 10.6691 86.11 10.1715C85.5628 9.67228 84.734 9.42268 83.6252 9.42268H79.902V14.9459L79.8988 14.9443ZM77.1404 25.2691V7.20508H84.0108C85.902 7.20508 87.334 7.64508 88.3052 8.52028C89.278 9.39708 89.7628 10.4979 89.7628 11.8243C89.7628 12.9763 89.4508 13.8915 88.8252 14.5715C88.2176 15.2393 87.4314 15.7191 86.5596 15.9539C87.2556 16.0899 87.8748 16.3651 88.422 16.7795C88.9714 17.195 89.4161 17.7331 89.7209 18.3509C90.0256 18.9687 90.1818 19.6491 90.1772 20.3379C90.1772 21.2675 89.9484 22.1075 89.4892 22.8547C89.03 23.6035 88.3564 24.1939 87.4732 24.6243C86.5884 25.0547 85.502 25.2691 84.2188 25.2691H77.1404ZM94.87 23.0243H98.8268C99.9372 23.0243 100.8 22.7651 101.417 22.2499C102.033 21.7363 102.342 21.0115 102.342 20.0835C102.342 19.1539 102.022 18.4179 101.379 17.8771C100.737 17.3347 99.8684 17.0643 98.774 17.0643H94.87V23.0243ZM94.87 14.9443H98.646C99.702 14.9443 100.51 14.6995 101.067 14.2083C101.62 13.7203 101.9 13.0435 101.9 12.1827C101.9 11.3411 101.628 10.6691 101.08 10.1715C100.532 9.67228 99.7036 9.42268 98.5948 9.42268H94.8716V14.9459H94.8684L94.87 14.9443ZM92.11 25.2691V7.20508H98.982C100.872 7.20508 102.304 7.64508 103.276 8.52028C104.248 9.39708 104.732 10.4979 104.732 11.8243C104.732 12.9763 104.42 13.8915 103.795 14.5715C103.187 15.2393 102.401 15.7191 101.529 15.9539C102.225 16.0899 102.844 16.3651 103.392 16.7795C103.941 17.195 104.386 17.7331 104.69 18.3509C104.995 18.9687 105.151 19.6491 105.147 20.3379C105.147 21.2675 104.918 22.1075 104.459 22.8547C104 23.6035 103.326 24.1939 102.443 24.6243C101.558 25.0547 100.473 25.2691 99.1884 25.2691H92.11ZM118.35 25.2691L111.608 7.20508H114.548L120.017 22.4307L125.507 7.20508H128.424L121.681 25.2691H118.35ZM133.267 14.4035C132.345 14.4035 131.529 14.6755 130.819 15.2179C130.107 15.7603 129.673 16.5715 129.516 17.6563H136.806C136.755 16.6579 136.396 15.8659 135.739 15.2835C135.078 14.6963 134.254 14.4035 133.267 14.4035ZM133.267 25.5779C131.998 25.5779 130.875 25.2979 129.894 24.7395C128.923 24.1916 128.124 23.3823 127.59 22.4035C127.033 21.4051 126.758 20.2451 126.758 18.9203C126.758 17.5779 127.03 16.4003 127.577 15.3827C128.102 14.3915 128.896 13.5689 129.868 13.0099C130.851 12.4419 131.988 12.1571 133.292 12.1571C134.56 12.1571 135.66 12.4387 136.598 12.9971C137.514 13.5326 138.269 14.304 138.785 15.2307C139.307 16.1587 139.564 17.1827 139.564 18.3027C139.564 18.4739 139.563 18.6579 139.553 18.8579C139.542 19.0767 139.53 19.2953 139.515 19.5139H129.467C129.55 20.7539 129.963 21.6963 130.702 22.3411C131.438 22.9875 132.294 23.3075 133.267 23.3075C134.046 23.3075 134.7 23.1315 135.233 22.7779C135.761 22.4259 136.158 21.9475 136.419 21.3459H139.179C138.832 22.5507 138.139 23.5571 137.108 24.3651C136.073 25.1731 134.792 25.5779 133.267 25.5779ZM141.179 25.2691V12.4691H143.627L143.835 14.7155C144.235 13.9235 144.82 13.2995 145.595 12.8435C146.364 12.3891 147.254 12.1603 148.262 12.1603C149.822 12.1603 151.052 12.6403 151.945 13.6051C152.84 14.5683 153.286 16.0035 153.286 17.9155V25.2691H150.552V18.1987C150.552 15.7219 149.528 14.4851 147.481 14.4851C146.457 14.4851 145.612 14.8467 144.942 15.5667C144.275 16.2899 143.939 17.3219 143.939 18.6643V25.2691H141.179ZM160.444 25.2691C159.176 25.2691 158.169 24.9651 157.424 24.3523C156.678 23.7411 156.304 22.6531 156.304 21.0883V14.7651H154.091V12.4691H156.302L156.641 9.21628H159.064V12.4691H162.707V14.7651H159.064V21.0867C159.064 21.7907 159.216 22.2787 159.52 22.5475C159.824 22.8147 160.348 22.9475 161.097 22.9475H162.582V25.2691H160.444ZM169.417 25.5779C167.856 25.5779 166.627 25.0979 165.732 24.1347C164.84 23.1715 164.392 21.7347 164.392 19.8243V12.4691H167.152V19.5411C167.152 22.0163 168.174 23.2547 170.222 23.2547C171.244 23.2547 172.088 22.8931 172.748 22.1731C173.409 21.4483 173.737 20.4163 173.737 19.0755V12.4691H176.496V25.2691H174.048L173.841 23.0243C173.451 23.8073 172.839 24.4583 172.081 24.8963C171.315 25.3507 170.424 25.5779 169.417 25.5779ZM179.009 25.2691V12.4691H181.483L181.716 14.8963C182.15 14.0697 182.803 13.3779 183.603 12.8963C184.409 12.4067 185.387 12.1603 186.532 12.1603V15.0243H185.777C185.012 15.0243 184.334 15.1491 183.732 15.3987C183.13 15.6522 182.627 16.0962 182.3 16.6627C181.945 17.2547 181.766 18.0771 181.766 19.1267V25.2659H179.009V25.2691ZM193.486 14.4035C192.564 14.4035 191.748 14.6755 191.038 15.2179C190.328 15.7603 189.892 16.5715 189.736 17.6563H197.025C196.972 16.6579 196.617 15.8659 195.96 15.2835C195.299 14.6963 194.473 14.4035 193.486 14.4035ZM193.486 25.5779C192.217 25.5779 191.094 25.2979 190.113 24.7395C189.142 24.1917 188.344 23.3823 187.811 22.4035C187.252 21.4051 186.976 20.2451 186.976 18.9203C186.976 17.5779 187.251 16.4003 187.798 15.3827C188.322 14.3918 189.116 13.5692 190.088 13.0099C191.07 12.4419 192.209 12.1571 193.512 12.1571C194.779 12.1571 195.88 12.4387 196.817 12.9971C197.732 13.5334 198.487 14.3046 199.004 15.2307C199.526 16.1587 199.785 17.1827 199.785 18.3027C199.785 18.4739 199.782 18.6579 199.772 18.8579C199.763 19.0563 199.75 19.2739 199.734 19.5139H189.686C189.774 20.7539 190.182 21.6963 190.921 22.3411C191.657 22.9875 192.513 23.3075 193.486 23.3075C194.267 23.3075 194.921 23.1315 195.452 22.7779C195.98 22.4259 196.377 21.9475 196.638 21.3459H199.398C199.052 22.5507 198.36 23.5571 197.328 24.3651C196.292 25.1731 195.012 25.5779 193.486 25.5779ZM206.398 25.5779C204.764 25.5779 203.422 25.1827 202.361 24.3907C201.852 24.0245 201.427 23.5548 201.113 23.0123C200.799 22.4698 200.603 21.867 200.539 21.2435H203.324C203.462 21.8291 203.793 22.3315 204.315 22.7523C204.835 23.1731 205.52 23.3859 206.372 23.3859C207.206 23.3859 207.814 23.2147 208.195 22.8707C208.576 22.5283 208.768 22.1315 208.768 21.6835C208.768 21.0275 208.502 20.5843 207.974 20.3555C207.446 20.1203 206.713 19.9107 205.776 19.7219C205.038 19.5643 204.311 19.3569 203.601 19.1011C202.929 18.8719 202.315 18.4971 201.804 18.0035C201.326 17.5283 201.088 16.8899 201.088 16.0819C201.088 14.9651 201.521 14.0291 202.39 13.2819C203.257 12.5315 204.473 12.1571 206.033 12.1571C207.473 12.1571 208.641 12.5011 209.534 13.1907C210.428 13.8787 210.953 14.8499 211.112 16.1059H208.456C208.422 15.8498 208.336 15.6034 208.204 15.3814C208.072 15.1594 207.896 14.9666 207.688 14.8147C207.264 14.5059 206.694 14.3507 205.982 14.3507C205.288 14.3507 204.75 14.4915 204.369 14.7747C204.191 14.8964 204.045 15.0602 203.945 15.2517C203.845 15.4431 203.794 15.6563 203.796 15.8723C203.796 16.3203 204.06 16.6739 204.588 16.9283C205.118 17.1891 205.816 17.4195 206.684 17.6259C207.553 17.8147 208.355 18.0339 209.091 18.2819C209.827 18.5331 210.422 18.8979 210.875 19.3811C211.324 19.8611 211.552 20.5699 211.552 21.4963C211.568 22.6643 211.115 23.6387 210.185 24.4115C209.254 25.1923 207.993 25.5779 206.398 25.5779Z" fill="#161E33"/>
</g>
</g>
<defs>
<clipPath id="clip0_1817_22220">
<rect width="212.8" height="32" fill="white" transform="translate(0.0996094 0.236328)"/>
</clipPath>
</defs>
</svg>
