<svg width="309" height="41" viewBox="0 0 309 41" fill="none" xmlns="http://www.w3.org/2000/svg">
<g clip-path="url(#clip0_1817_22199)">
<path d="M27.6423 10.4589C26.3796 11.654 25.1439 12.7984 23.9454 13.9783C23.5955 14.3231 23.2963 14.3975 22.8399 14.2285C21.7327 13.8194 20.617 13.4272 19.4827 13.106C19.17 13.0165 18.695 13.0773 18.4414 13.2666C16.2287 14.9148 14.0447 16.6001 11.8708 18.299C11.6393 18.4798 11.3925 18.8213 11.3891 19.0901C11.3519 21.4262 11.3671 23.7623 11.3671 26.2405C11.7018 26.2405 11.9976 26.2405 12.2918 26.2405C14.0937 26.2405 15.8974 26.2405 17.6994 26.2405C18.8274 26.2405 19.8101 25.7418 20.6474 24.7445C18.8235 23.5882 17.0131 22.4404 15.1418 21.2555C15.4444 20.7196 15.7182 20.2362 16.0529 19.6462C18.5124 21.2115 20.9415 22.7582 23.4569 24.3574C22.3699 25.5491 21.3422 26.6986 20.2789 27.8142C20.1386 27.9613 19.8157 27.9765 19.5774 27.9799C18.5074 27.9968 17.4323 28.0441 16.369 27.9698C15.5238 27.9089 15.0826 28.1726 14.7242 28.9789C13.4886 31.7529 12.1548 34.4812 10.8583 37.2281C10.7383 37.48 10.6098 37.7284 10.4847 37.9786C4.28263 34.6046 -1.10806 25.7756 1.26526 15.9476C3.70282 5.85422 12.853 -0.483103 22.681 0.302934C33.0803 1.13461 41.0472 9.30264 41.5915 19.4467C42.1662 30.1419 34.7572 38.2136 26.8174 40.237C26.5435 38.6058 26.2714 36.9796 25.9992 35.3551C25.5699 32.8026 25.1185 30.2552 24.7331 27.6959C24.6638 27.2378 24.7534 26.6817 24.9596 26.2658C26.836 22.4878 28.7394 18.7233 30.6749 14.9756C30.9606 14.4229 30.8896 14.1017 30.4889 13.6723C29.5305 12.6463 28.6227 11.5712 27.644 10.4589H27.6423ZM27.7454 7.85734C29.3986 9.73538 30.9572 11.5492 32.5681 13.314C33.0178 13.8076 33.0702 14.1642 32.7608 14.766C30.751 18.6658 28.7766 22.5841 26.8309 26.516C26.6145 26.9538 26.5182 27.537 26.5875 28.0205C26.9137 30.2755 27.3161 32.5186 27.693 34.7669C27.8621 35.7777 28.0362 36.7886 28.2103 37.8197C34.0844 35.6526 40.6618 28.7778 39.7304 18.7418C38.9308 10.1377 31.777 2.91292 23.325 2.10828C14.136 1.23096 5.94599 6.55404 3.3191 15.1599C0.805472 23.3905 4.36208 31.5179 9.74263 35.2757C10.8769 32.8753 12.0061 30.4885 13.208 27.9444H9.58542C9.58542 24.594 9.57528 21.3315 9.6074 18.0674C9.60909 17.824 9.86941 17.5231 10.0892 17.349C12.6958 15.2884 15.3074 13.2345 17.9495 11.2196C18.22 11.0133 18.7288 10.9508 19.0737 11.0387C20.2164 11.3277 21.3439 11.6878 22.4578 12.0783C22.9244 12.2422 23.2202 12.1594 23.5667 11.8213C24.9174 10.5079 26.2967 9.22488 27.7454 7.85565V7.85734Z" fill="#161E33"/>
</g>
<path d="M60.7624 22.7244C62.8055 25.4703 66.0481 26.3185 68.6909 26.3185C71.6852 26.3185 73.8032 25.4188 73.8032 23.9755C73.8032 22.2793 72.3318 22.1293 67.2945 21.5811C62.9085 21.0844 59.5394 20.2597 59.5394 16.7218C59.5394 13.3527 62.857 11.0098 67.9458 11.0098C71.9335 11.0098 75.5229 12.4155 77.1442 14.5757L74.7029 16.9186C73.3299 15.1474 70.7855 14.1071 67.7443 14.1071C64.5533 14.1071 63.1053 15.1286 63.1053 16.3282C63.1053 17.6262 64.3049 17.9214 68.8408 18.4462C73.9297 19.0413 77.505 19.7114 77.505 23.5772C77.505 27.4431 73.6064 29.4627 68.5409 29.4627C64.2768 29.4627 60.0408 27.8179 58.293 25.297L60.7624 22.7244Z" fill="#161E33"/>
<path d="M85.0284 29.1906H81.3594V11.2812H92.5586C96.6493 11.2812 99.339 13.2306 99.339 16.9465C99.339 20.6623 96.6493 22.607 92.5586 22.607H85.0284V29.1906ZM92.3571 19.4862C94.4798 19.4862 95.7262 18.549 95.7262 16.9465C95.7262 15.3439 94.4798 14.402 92.3571 14.402H85.0284V19.4862H92.3571Z" fill="#161E33"/>
<path d="M111.987 11.2812L121.016 29.1906H117.052L114.99 25.0249H104.855L102.76 29.1906H98.8477L107.873 11.2812H111.987ZM106.401 21.9088H113.43L109.939 14.88L106.401 21.9088Z" fill="#161E33"/>
<path d="M127.353 29.1906H123.684V11.2812H134.93C138.992 11.2812 141.738 13.2306 141.738 16.9043C141.738 19.6502 140.14 21.4683 137.596 22.1665L142.16 29.1953H137.943L133.725 22.5367H127.353V29.1906ZM134.733 19.444C136.879 19.444 138.102 18.5068 138.102 16.9277C138.102 15.3486 136.879 14.3833 134.733 14.3833H127.353V19.444H134.733Z" fill="#161E33"/>
<path d="M149.348 19.8611L159.399 11.2812H164.554L155.411 18.863L165.13 29.1906H160.299L152.717 21.1075L149.348 23.919V29.1906H145.684V11.2812H149.348V19.8611Z" fill="#161E33"/>
<path d="M185.115 11.0098C189.801 11.0098 193.245 13.1278 194.613 16.6328L191.446 18.226C190.424 15.7097 188.283 14.2102 185.138 14.2102C181.221 14.2102 178.278 16.6047 178.278 20.2222C178.278 23.8397 181.221 26.2341 185.138 26.2341C188.283 26.2341 190.424 24.7346 191.446 22.2183L194.613 23.8115C193.245 27.3306 189.801 29.4346 185.115 29.4346C179.052 29.4346 174.539 25.5219 174.539 20.2081C174.539 14.8943 179.052 11.0098 185.115 11.0098Z" fill="#161E33"/>
<path d="M208.928 11.2812L217.958 29.1906H213.994L211.922 25.0249H201.796L199.702 29.1906H195.789L204.814 11.2812H208.928ZM203.343 21.9088H210.371L206.88 14.88L203.343 21.9088Z" fill="#161E33"/>
<path d="M224.297 29.1906H220.633V11.2812H231.827C235.918 11.2812 238.612 13.2306 238.612 16.9465C238.612 20.6623 235.918 22.607 231.827 22.607H224.297V29.1906ZM231.631 19.4862C233.749 19.4862 234.995 18.549 234.995 16.9465C234.995 15.3439 233.749 14.402 231.631 14.402H224.297V19.4862H231.631Z" fill="#161E33"/>
<path d="M245.516 29.1906H241.852V11.2812H245.516V29.1906Z" fill="#161E33"/>
<path d="M260.359 14.4489V29.1906H256.667V14.4489H248.762V11.2812H268.264V14.4489H260.359Z" fill="#161E33"/>
<path d="M280.334 11.2812L289.364 29.1906H285.4L283.329 25.0249H273.203L271.108 29.1906H267.195L276.22 11.2812H280.334ZM274.749 21.9088H281.778L278.287 14.88L274.749 21.9088Z" fill="#161E33"/>
<path d="M292.035 11.2812H295.7V26.0042H308.295V29.1906H292.035V11.2812Z" fill="#161E33"/>
<defs>
<clipPath id="clip0_1817_22199">
<rect width="40.928" height="40" fill="white" transform="translate(0.701172 0.236328)"/>
</clipPath>
</defs>
</svg>
