<svg width="171" height="39" viewBox="0 0 171 39" fill="none" xmlns="http://www.w3.org/2000/svg">
<path d="M41.1255 14.1916V1.97636H44.8432V21.6602H42.5196V21.6933L32.1964 8.41591V21.6933H28.4788V2.00956H31.4994L41.1255 14.1916ZM66.8505 2.04275H70.5018V13.2954C70.5018 16.1168 69.7384 18.2744 68.1451 19.8345C66.6182 21.3282 64.527 22.0917 61.9379 22.0917C59.4484 22.0917 57.3572 21.3282 55.6975 19.8345C54.0378 18.3408 53.208 16.1168 53.208 13.2954V2.04275H56.8593V13.2954C56.8593 15.0546 57.324 16.3824 58.2534 17.3118C59.1828 18.2412 60.411 18.7059 61.9711 18.7059C63.4648 18.7059 64.6929 18.2412 65.5228 17.2786C66.3526 16.316 66.7841 15.0214 66.7841 13.2954V2.04275H66.8505ZM94.3016 5.22933L91.3806 6.72304C91.0154 6.12556 90.418 5.62765 89.5549 5.19614C88.7251 4.76462 87.7625 4.53227 86.7335 4.53227C85.4057 4.53227 84.3767 4.79782 83.6797 5.26253C82.9826 5.72724 82.6507 6.35791 82.6507 7.12137C82.6507 7.68566 82.883 8.11717 83.3145 8.44911C83.746 8.78104 84.2771 9.04659 84.8082 9.17937C85.4057 9.31214 86.136 9.47811 87.0322 9.57769C87.9616 9.67727 88.7583 9.84324 89.4553 9.97601C90.1524 10.1088 90.8495 10.3411 91.5797 10.6731C92.31 10.9718 92.9075 11.3369 93.3722 11.7685C93.8369 12.1668 94.202 12.7643 94.5008 13.4613C94.7995 14.1584 94.9323 14.955 94.9323 15.8845C94.9323 17.2786 94.534 18.4736 93.7705 19.4362C93.007 20.3988 91.9781 21.0959 90.7499 21.5274C89.5549 21.9257 88.194 22.1581 86.6671 22.1581C82.2855 22.1581 79.3977 20.5316 78.1031 17.3118L81.1901 15.6853C81.5885 16.7143 82.3187 17.4778 83.3145 18.042C84.3103 18.54 85.4389 18.8055 86.7335 18.8055C88.028 18.8055 89.1234 18.54 89.9532 18.0752C90.7831 17.6105 91.2478 16.8803 91.2478 15.8513C91.2478 14.2248 89.7541 13.2954 86.7003 12.9634C85.5717 12.8307 84.5759 12.6647 83.7792 12.4655C82.9826 12.2664 82.1528 11.9012 81.3561 11.5029C80.5927 11.0714 79.962 10.4739 79.5637 9.74366C79.1653 9.0134 78.9662 8.08398 78.9662 7.02178C78.9662 5.72724 79.3645 4.66504 80.1279 3.76881C80.8914 2.83939 81.854 2.24191 82.9494 1.87678C84.0448 1.51165 85.2729 1.31249 86.5343 1.2793C90.4511 1.34568 93.0071 2.60704 94.3016 5.22933ZM116.409 2.04275H120.06V13.2954C120.06 16.1168 119.296 18.2744 117.703 19.8345C116.176 21.3282 114.085 22.0917 111.496 22.0917C109.006 22.0917 106.915 21.3282 105.255 19.8345C103.596 18.3408 102.766 16.1168 102.766 13.2954V2.04275H106.417V13.2954C106.417 15.0546 106.882 16.3824 107.811 17.3118C108.741 18.2412 109.969 18.7059 111.529 18.7059C113.023 18.7059 114.251 18.2412 115.081 17.2786C115.911 16.316 116.342 15.0214 116.342 13.2954V2.04275H116.409ZM130.715 21.627H126.699L135.528 1.97636H139.544L148.374 21.627H144.358L137.586 6.12556L130.715 21.627ZM154.847 2.00956H158.564V18.2412H168.655V21.6602H154.847V2.00956ZM15.832 2.04275H19.4833V13.2954C19.4833 16.1168 18.7199 18.2744 17.1266 19.8345C15.5997 21.3282 13.5085 22.0917 10.9194 22.0917C8.42984 22.0917 6.33865 21.3282 4.67897 19.8345C3.01929 18.3408 2.18945 16.1168 2.18945 13.2954V2.04275H5.84075V13.2954C5.84075 15.0546 6.30546 16.3824 7.23488 17.3118C8.1643 18.2744 9.39246 18.7059 10.9526 18.7059C12.4463 18.7059 13.6744 18.2412 14.5043 17.2786C15.3341 16.316 15.7656 15.0214 15.7656 13.2954V2.04275H15.832Z" fill="#161E33"/>
<path d="M141.306 29.2602L139.945 29.9573C139.746 29.6585 139.513 29.4594 139.115 29.227C138.717 29.0278 138.285 28.9283 137.787 28.9283C137.156 28.9283 136.692 29.0278 136.36 29.2602C136.028 29.4926 135.895 29.7581 135.895 30.1232C135.895 30.3888 135.995 30.5879 136.194 30.7539C136.393 30.8867 136.625 31.0527 136.891 31.0858C137.156 31.1522 137.522 31.2186 137.92 31.285C138.351 31.3182 138.717 31.3846 139.048 31.4842C139.38 31.5506 139.712 31.6833 140.044 31.8161C140.376 31.9489 140.675 32.148 140.874 32.314C141.106 32.5132 141.272 32.7455 141.372 33.0775C141.505 33.4094 141.604 33.7745 141.604 34.206C141.604 34.8699 141.405 35.401 141.04 35.8657C140.675 36.3304 140.21 36.6292 139.646 36.8283C139.082 37.0275 138.451 37.1271 137.754 37.1271C135.696 37.1271 134.368 36.3968 133.771 34.9031L135.198 34.1728C135.397 34.6376 135.696 35.0027 136.194 35.2682C136.659 35.5338 137.19 35.6334 137.754 35.6334C138.318 35.6334 138.849 35.5338 139.248 35.3014C139.646 35.0691 139.845 34.7039 139.845 34.2724C139.845 33.5422 139.148 33.0775 137.721 32.9115C137.156 32.8451 136.725 32.7787 136.36 32.6459C135.995 32.5464 135.596 32.3804 135.231 32.2144C134.866 32.0485 134.567 31.7497 134.401 31.4178C134.202 31.0527 134.103 30.6543 134.103 30.1564C134.103 29.5589 134.302 29.061 134.667 28.6627C135.032 28.2644 135.464 27.9656 135.995 27.7997C136.526 27.6337 137.057 27.5341 137.688 27.5341C139.513 27.4346 140.741 28.032 141.306 29.2602ZM126.9 35.2018V36.8947H120.062V27.7333H126.9V29.4262H121.755V31.5174H126.7V33.1438H121.755V35.2018H126.9ZM109.573 29.3266H106.95V32.2476H109.573C110.07 32.2476 110.502 32.1148 110.734 31.8161C111 31.5174 111.133 31.1854 111.133 30.7871C111.133 30.3888 111 30.0568 110.734 29.7581C110.502 29.4926 110.104 29.3266 109.573 29.3266ZM113.357 36.7619V36.8615H111.299L108.61 33.7745H106.95V36.8615H105.257V27.7001H107.448H109.606C110.635 27.7001 111.431 27.9988 112.029 28.5631C112.626 29.1606 112.892 29.8909 112.892 30.6875C112.892 31.3846 112.693 32.0153 112.328 32.5132C111.963 33.0111 111.365 33.3762 110.568 33.5422L113.357 36.7619ZM95.7973 27.7665H97.5233V33.0111C97.5233 34.3388 97.1582 35.3678 96.4279 36.0649C95.6977 36.7619 94.7351 37.1271 93.5401 37.1271C92.3783 37.1271 91.4157 36.7619 90.6523 36.0649C89.8888 35.3678 89.4905 34.3388 89.4905 33.0111V27.7665H91.2165V33.0111C91.2165 33.8077 91.4489 34.4384 91.8472 34.8699C92.2787 35.3014 92.843 35.5338 93.5733 35.5338C94.2704 35.5338 94.8346 35.3014 95.233 34.8699C95.6313 34.4384 95.8305 33.8077 95.8305 33.0111V27.7665H95.7973ZM77.7732 36.8947V29.2934H74.8853V27.7333H82.4203V29.2934H79.5324V36.8947H77.7732ZM66.0558 33.4094V27.7333H67.7819V36.8947H66.7197L61.9066 30.6875V36.8947H60.1806V27.7333H61.5747L66.0558 33.4094ZM52.6788 35.2018V36.8947H45.8409V27.7333H52.6788V29.4262H47.5338V31.5174H52.4797V33.1438H47.5338V35.2018H52.6788ZM38.7375 27.7333L34.9203 36.9279H33.1278L29.3105 27.7333H31.269L34.024 34.8367L36.8123 27.7333H38.7375Z" fill="#161E33"/>
</svg>
