<svg width="35" height="32" viewBox="0 0 35 32" fill="none" xmlns="http://www.w3.org/2000/svg">
<g clip-path="url(#clip0_17580_11093)">
<path d="M2.91579 7.91638C2.21189 8.12888 1.62752 8.59372 1.3619 9.16481C1.12284 9.62964 1.083 9.97495 1.083 11.3031V12.8702L2.01268 13.9062C2.53064 14.464 2.94235 14.9687 2.94235 15.0085C2.94235 15.0483 2.75642 15.0882 2.51736 15.0882C1.94627 15.0882 1.05644 15.5397 0.737689 15.978C0.233007 16.6686 0.15332 17.1733 0.15332 19.5905C0.15332 22.1272 0.27285 22.6451 0.963468 23.2826C1.65409 23.9068 2.09236 23.9865 5.01421 23.9865C8.17511 23.9865 8.58682 23.9068 9.26416 23.1498L9.74228 22.6319L11.1235 23.9865H13.5805L11.7876 22.0076L9.98134 20.0288V16.9475H12.9032V15.0882H11.5087C10.061 15.0882 9.39697 15.2476 8.87901 15.7257C8.50714 16.0577 8.12199 16.8811 8.12199 17.346C8.12199 17.585 8.06886 17.7444 8.00246 17.7178C7.93605 17.6913 6.78059 16.4561 5.41264 14.9554L2.94235 12.2327L2.9822 10.971L3.00876 9.70933H8.05558L8.13527 12.8304H9.98134V11.3031C9.98134 10.307 9.91494 9.61636 9.79541 9.33746C9.56963 8.76637 8.78604 8.10232 8.16183 7.92966C7.57746 7.75701 3.44704 7.75701 2.91579 7.91638ZM6.39544 18.8202L8.05558 20.6795V22.0608H2.07908L2.03924 19.4975L2.01268 16.9475H4.7353L6.39544 18.8202Z" fill="#B4BACC"/>
<path d="M20.168 8.47414C19.982 9.03195 14.7891 23.4951 14.6563 23.8271C14.6165 23.9599 14.8555 23.9865 15.7719 23.9599L16.9406 23.9201L17.6578 21.8881L18.3883 19.8693L22.3726 19.8959L26.3437 19.9357L27.0476 21.9279L27.7382 23.9201L28.8936 23.9599C29.5179 23.9732 30.0358 23.9599 30.0358 23.9334C30.0358 23.8669 24.6304 8.77961 24.3914 8.14211C24.3117 7.9429 24.0859 7.91634 22.3328 7.91634H20.3672L20.168 8.47414ZM24.1523 13.6936C24.896 15.8053 25.5468 17.6514 25.5866 17.7709C25.6663 17.9967 25.4538 18.01 22.4125 18.01C20.3406 18.01 19.1453 17.9569 19.1453 17.8772C19.1453 17.8108 19.7828 15.9514 20.5664 13.76L21.9742 9.76241L22.3859 9.80225C22.7843 9.8421 22.7843 9.8421 24.1523 13.6936Z" fill="#B4BACC"/>
<path d="M31.8955 23.9865H34.1533V7.91638H31.8955V23.9865Z" fill="#B4BACC"/>
</g>
<defs>
<clipPath id="clip0_17580_11093">
<rect width="35" height="32" fill="white"/>
</clipPath>
</defs>
</svg>
