<svg width="117" height="32" viewBox="0 0 117 32" fill="none" xmlns="http://www.w3.org/2000/svg">
<g clip-path="url(#clip0_17580_11108)">
<path d="M23.6569 18.4035C22.3497 15.5781 23.6148 12.2047 26.4402 10.8974L24.6691 7.06C22.4762 8.07206 20.7474 9.84321 19.7774 12.0359C17.5425 17.0118 19.7774 22.8733 24.7955 25.0662L26.5244 21.2287C25.2593 20.6805 24.2473 19.6685 23.6569 18.4035ZM20.7895 5.45764L18.3438 1.99988C17.0365 2.9276 15.898 4.02393 14.886 5.28901L18.1751 7.90359C18.9342 6.97586 19.7775 6.17466 20.7897 5.45784L20.7895 5.45764ZM15.3497 16.042C15.3497 10.56 12.6931 5.37322 8.26533 2.12631L5.73517 5.54206C9.10872 7.9878 11.0906 11.9095 11.1328 16.0842C11.1328 21.5662 13.7473 26.753 18.1749 29.9999L20.6629 26.5841C17.3315 24.0962 15.3495 20.2167 15.3495 16.0418L15.3497 16.042ZM5.73517 26.5841L8.26533 29.9999C9.48825 29.1143 10.5846 28.0179 11.5123 26.8372L8.22313 24.2228C7.50625 25.1084 6.66288 25.9095 5.73517 26.5841ZM1.60266 7.01779L0.000244141 10.9395C1.39183 11.4877 2.4882 12.584 3.03632 13.9755C4.17489 16.8008 2.82547 20.0057 0.042252 21.1443L1.64467 25.066C4.09041 24.0539 5.98803 22.1563 6.95804 19.7106C8.98209 14.6925 6.57852 9.04183 1.60266 7.01779Z" fill="#B4BACC"/>
<path d="M96.4353 17.3675H93.5594V15.4699H96.3551C96.6124 15.4952 96.8696 15.4361 97.0931 15.3054C97.3503 14.8584 97.3503 14.3102 97.0931 13.8632C96.8696 13.7325 96.6124 13.6777 96.3551 13.703H93.5594V11.7927H96.4353C96.9793 11.7801 97.5191 11.8939 98.0124 12.1216C98.4426 12.3367 98.801 12.6698 99.0456 13.0831C99.5348 14.0319 99.5348 15.1536 99.0456 16.1024C98.801 16.5115 98.4426 16.8404 98.0124 17.047C97.5149 17.2663 96.9793 17.3675 96.4353 17.3422V17.3675ZM94.972 19.3789H92.8383V11.7885H94.972V19.3789ZM61.4486 17.3675H58.5727V15.4699H61.3685C61.6257 15.4952 61.8829 15.4361 62.1064 15.3054C62.3637 14.8584 62.3637 14.3102 62.1064 13.8632C61.8829 13.7325 61.6257 13.6777 61.3685 13.703H58.5727V11.7927H61.4486C61.9926 11.7801 62.5324 11.8939 63.0258 12.1216C63.4559 12.3367 63.8143 12.6698 64.0589 13.0831C64.5481 14.0319 64.5481 15.1536 64.0589 16.1024C63.8143 16.5115 63.4559 16.8404 63.0258 17.047C62.5282 17.2663 61.9926 17.3675 61.4486 17.3422V17.3675ZM59.8673 19.3789H57.7421V11.7885H59.8673V19.3789ZM110.963 19.3789H108.766L111.406 11.7885H114.497L117.137 19.3789H114.775L113.574 15.6174L112.975 13.6355H112.815L112.186 15.6174L110.963 19.3789ZM115.619 17.9157H110.339V16.0602H115.619V17.9157ZM102.841 19.3789H100.708V11.7885H102.841V19.3789ZM106.801 16.524H101.281V14.6096H106.801V16.524ZM107.83 19.3789H105.705V11.7885H107.83V19.3789ZM87.8208 19.3789H85.7293V11.7885H87.8545L87.8208 19.3789ZM91.6328 19.3789H86.2857V17.4645H91.6328V19.3789ZM78.5815 19.3789H76.3846L79.0244 11.7885H82.1196L84.7595 19.3789H82.4274L81.2256 15.6174L80.6268 13.6355H80.4497L79.8214 15.6174L78.5815 19.3789ZM83.2369 17.9157H77.9532V16.0602H83.2329V17.9157H83.2369ZM67.7229 19.3789H65.5892V11.7885H67.7229V19.3789ZM71.6825 16.524H66.1625V14.6096H71.6825V16.524ZM72.7199 19.3789H70.5482V11.7885H72.6819L72.7199 19.3789ZM52.229 19.3789H50.0825V11.7885H52.2078L52.229 19.3789ZM56.2308 13.703H50.6814V11.7886H56.2308V13.703ZM56.0664 16.5242H50.6813V14.6224H56.0664V16.5242ZM56.2308 19.3791H50.6814V17.4647H56.2308V19.3791ZM45.0729 19.3791H42.9392V11.7887H45.0729V19.3791ZM48.8766 19.3791H43.5295V17.4647H48.8766V19.3791ZM35.8253 19.3791H33.6284L36.2682 11.7887H39.3592L41.9991 19.3791H39.6545L38.4527 15.6176L37.8539 13.6357H37.6937L37.0738 15.6176L35.8253 19.3791ZM40.447 17.9159H35.1674V16.0604H40.447V17.9159Z" fill="#B4BACC"/>
</g>
<defs>
<clipPath id="clip0_17580_11108">
<rect width="117" height="32" fill="white"/>
</clipPath>
</defs>
</svg>
