<svg width="75" height="32" viewBox="0 0 75 32" fill="none" xmlns="http://www.w3.org/2000/svg">
<g clip-path="url(#clip0_17580_11101)">
<path d="M74.6714 20.3875C74.5589 20.3875 74.4464 20.4625 74.3714 20.65C73.6214 22.825 72.5714 24.1375 71.7089 24.1375C71.2214 24.1375 71.0339 23.575 71.0339 22.75C71.0339 20.6125 72.3089 16.075 72.9464 13.975C73.0214 13.7125 73.0589 13.4875 73.0589 13.3C73.0589 12.7 72.7214 12.4 71.8964 12.4C71.0339 12.4 70.0589 12.7375 69.1589 14.35C68.8589 12.925 67.8839 12.325 66.5339 12.325C64.9964 12.325 63.4964 13.3375 62.2589 14.95C61.0214 16.5625 59.5589 17.0875 58.4714 16.825C59.2589 14.9125 59.5589 13.45 59.5589 12.4C59.5589 10.7125 58.7339 9.7 57.3839 9.7C55.3589 9.7 54.1964 11.65 54.1964 13.675C54.1964 15.25 54.9089 16.8625 56.4839 17.65C55.1714 20.6125 53.2589 23.3125 52.5089 23.3125C51.5714 23.3125 51.2714 18.7 51.3464 15.4C51.3839 13.525 51.5339 13.4125 51.5339 12.85C51.5339 12.5125 51.3089 12.2875 50.4464 12.2875C48.4589 12.2875 47.8214 13.975 47.7464 15.925C47.7089 16.675 47.5964 17.3875 47.4089 18.1C46.5839 21.0625 44.8589 23.35 43.7339 23.35C43.2089 23.35 43.0589 22.825 43.0589 22.15C43.0589 20.0125 44.2589 17.3125 44.2589 15.025C44.2589 13.3375 43.5089 12.2875 42.1214 12.2875C40.4714 12.2875 38.3339 14.2375 36.2714 17.875C36.9464 15.1 37.2089 12.4 35.2214 12.4C34.7714 12.4 34.3589 12.5125 33.9839 12.7375C33.7214 12.85 33.5714 13.1125 33.5714 13.4125C33.7589 16.375 31.1714 23.9875 28.7339 23.9875C28.2839 23.9875 28.0589 23.5 28.0589 22.7125C28.0589 20.575 29.3339 16.0375 29.9714 13.9375C30.0464 13.675 30.0839 13.45 30.0839 13.225C30.0839 12.6625 29.7464 12.3625 28.9214 12.3625C28.0589 12.3625 27.0839 12.7 26.1839 14.3125C25.8464 12.8875 24.9089 12.2875 23.5589 12.2875C21.3464 12.2875 18.9089 14.6125 17.8214 17.65C16.3589 21.7 13.4714 25.6375 9.53394 25.6375C5.97144 25.6375 4.09644 22.675 4.09644 17.9875C4.09644 11.2 9.08393 5.6875 12.7589 5.6875C14.5214 5.6875 15.3464 6.8125 15.3464 8.5375C15.3464 10.6375 14.1839 11.575 14.1839 12.4C14.1839 12.625 14.3714 12.8875 14.7839 12.8875C16.3964 12.8875 18.2714 11.0125 18.2714 8.425C18.2714 5.8375 16.2464 4 12.5714 4C6.45894 4 0.346436 10.1125 0.346436 17.9875C0.346436 24.25 3.42144 28 8.74644 28C12.3839 28 15.5714 25.1875 17.2589 21.8875C17.4464 24.625 18.6839 26.05 20.5964 26.05C22.2839 26.05 23.6339 25.0375 24.6839 23.275C25.0964 25.1125 26.1464 26.0125 27.5339 26.0125C29.1089 26.0125 30.4589 25 31.6964 23.1625C31.6964 24.625 31.9964 26.0125 33.2714 26.0125C33.8714 26.0125 34.5839 25.8625 34.6964 25.3375C36.0464 19.825 39.3464 15.2875 40.3589 15.2875C40.6589 15.2875 40.7339 15.5875 40.7339 15.925C40.7339 17.425 39.6839 20.5 39.6839 22.45C39.6839 24.5875 40.5839 25.975 42.4589 25.975C44.5214 25.975 46.6214 23.4625 48.0089 19.75C48.4589 23.2 49.3964 25.975 50.8589 25.975C52.6589 25.975 55.9214 22.15 57.8714 18.1C58.6214 18.2125 59.7839 18.175 60.9089 17.3875C60.4214 18.5875 60.1589 19.9 60.1589 21.175C60.1589 24.925 61.9589 25.975 63.4964 25.975C65.1839 25.975 66.5339 24.9625 67.5839 23.2C67.9214 24.775 68.8214 25.9375 70.4339 25.9375C72.9464 25.9375 75.1589 23.35 75.1589 21.2125C75.1964 20.7625 74.9339 20.3875 74.6714 20.3875ZM22.1714 23.95C21.1589 23.95 20.7464 22.9375 20.7464 21.4C20.7464 18.7375 22.5839 14.275 24.4964 14.275C25.3214 14.275 25.6589 15.25 25.6589 16.4875C25.6589 19.1875 23.9339 23.95 22.1714 23.95ZM57.1589 16C56.5589 15.2875 56.3339 14.275 56.3339 13.4125C56.3339 12.325 56.7464 11.425 57.1964 11.425C57.6464 11.425 57.8339 11.875 57.8339 12.55C57.7964 13.6 57.4214 15.2125 57.1589 16ZM65.0714 23.95C64.0589 23.95 63.6464 22.75 63.6464 21.4C63.6464 18.8125 65.4839 14.275 67.3964 14.275C68.2214 14.275 68.5214 15.25 68.5214 16.4875C68.5589 19.1875 66.8714 23.95 65.0714 23.95Z" fill="#B4BACC"/>
</g>
<defs>
<clipPath id="clip0_17580_11101">
<rect width="75" height="32" fill="white"/>
</clipPath>
</defs>
</svg>
