<svg width="93" height="32" viewBox="0 0 93 32" fill="none" xmlns="http://www.w3.org/2000/svg">
<path d="M86.2476 11.5642C86.25 10.7349 86.5802 9.94018 87.166 9.35374C87.7517 8.7673 88.5454 8.43675 89.3738 8.43433C90.2026 8.43541 90.9971 8.76551 91.5831 9.35224C92.1692 9.93897 92.4989 10.7344 92.5 11.5642C92.4978 12.3937 92.1678 13.1887 91.582 13.7753C90.9963 14.362 90.2023 14.6927 89.3738 14.6951C88.5457 14.6911 87.7528 14.3599 87.1673 13.7736C86.5819 13.1873 86.2514 12.3932 86.2476 11.5642ZM91.8999 11.5642C91.9015 10.8908 91.6368 10.2441 91.1637 9.76541C90.6905 9.28674 90.0474 9.01502 89.3748 9.00962C88.7022 9.01502 88.0591 9.28674 87.5859 9.76541C87.1128 10.2441 86.8482 10.8908 86.8498 11.5642C86.8482 12.2376 87.1128 12.8843 87.5859 13.363C88.0591 13.8417 88.7022 14.1134 89.3748 14.1188C90.0474 14.1134 90.6905 13.8417 91.1637 13.363C91.6368 12.8843 91.9015 12.2376 91.8999 11.5642ZM87.9878 11.5162C87.9878 10.4729 88.5655 9.92722 89.4065 9.92722C90.2087 9.92722 90.6496 10.3206 90.6894 11.0032H90.077C90.0598 10.8517 89.9836 10.713 89.865 10.6174C89.7463 10.5218 89.5948 10.4768 89.4432 10.4923H89.3789C88.8573 10.4923 88.6175 10.9583 88.6175 11.5203C88.6175 12.0823 88.8584 12.5472 89.3789 12.5472H89.4432C89.5184 12.5556 89.5944 12.549 89.6671 12.5278C89.7397 12.5066 89.8074 12.4712 89.8663 12.4238C89.9252 12.3763 89.9741 12.3176 90.0103 12.2511C90.0465 12.1846 90.0691 12.1116 90.077 12.0363H90.6894C90.6496 12.7189 90.2087 13.1113 89.4065 13.1113C88.5645 13.1062 87.9827 12.5605 87.9827 11.5162H87.9878Z" fill="#B4BACC"/>
<path d="M7.21059 21.4975H7.41472C9.21815 21.4975 11.0022 20.4756 11.1226 18.6884H13.1271C12.9873 21.5373 10.3214 23.303 7.31469 23.303C3.20567 23.303 0.5 20.1926 0.5 16.0797C0.5 11.9668 3.20567 8.85638 7.31469 8.85638C10.3204 8.85638 12.9863 10.6221 13.1271 13.472H11.1226C11.0022 11.6858 9.21815 10.663 7.41472 10.663H7.21059C4.30488 10.663 2.50043 13.0704 2.50043 16.0787C2.50043 19.087 4.30488 21.4975 7.21059 21.4975Z" fill="#B4BACC"/>
<path d="M27.8344 16.0797C27.8344 20.5942 24.8286 23.303 21.0197 23.303C17.2107 23.303 14.2081 20.5952 14.2081 16.0797C14.2081 11.5642 17.2128 8.85432 21.0207 8.85432C24.8286 8.85432 27.8344 11.5652 27.8344 16.0797ZM21.1207 21.4954C23.7264 21.4954 25.8309 19.4885 25.8309 16.0797C25.8309 12.6709 23.7264 10.664 21.1207 10.664H20.9166C18.311 10.664 16.2064 12.6709 16.2064 16.0797C16.2064 19.4885 18.311 21.4954 20.9166 21.4954H21.1207Z" fill="#B4BACC"/>
<path d="M34.7494 10.6619H34.5453C32.8021 10.6619 31.6396 11.6051 31.6396 12.8487C31.6396 13.9318 32.3816 14.5745 33.5635 14.8147L35.8088 15.2561C38.2338 15.7374 39.6372 17.0218 39.6372 19.3097C39.6372 21.7774 37.5531 23.303 34.4463 23.303C31.1395 23.303 29.037 21.6977 28.9349 18.5873H30.9394C30.9394 20.493 32.4224 21.4964 34.5269 21.4964H34.7311C36.6151 21.4964 37.6368 20.5533 37.6368 19.3894C37.6368 18.246 36.9152 17.5838 35.4322 17.2824L33.1869 16.8205C30.9415 16.3587 29.6392 15.0946 29.6392 12.8681C29.6392 10.6609 31.6233 8.85534 34.6494 8.85534C37.7562 8.85534 39.7403 10.5608 39.8403 13.2696H37.8358C37.8077 12.8942 37.7052 12.5281 37.5341 12.1928C37.363 11.8576 37.1269 11.5598 36.8395 11.317C36.5521 11.0741 36.2192 10.8911 35.8604 10.7787C35.5015 10.6662 35.1238 10.6265 34.7494 10.6619Z" fill="#B4BACC"/>
<path d="M44.1698 10.8224V23.1028H42.1694V9.05461H45.4966L49.6812 21.2144L53.7902 9.05461H57.097V23.1007H55.0925V10.7601L50.9641 23.1007H48.3952L44.1698 10.8224Z" fill="#B4BACC"/>
<path d="M72.9091 16.0797C72.9091 20.5942 69.9024 23.303 66.0944 23.303C62.2865 23.303 59.2797 20.5942 59.2797 16.0797C59.2797 11.5652 62.2875 8.85432 66.0955 8.85432C69.9034 8.85432 72.9091 11.5652 72.9091 16.0797ZM66.1955 21.4954C68.8011 21.4954 70.9057 19.4885 70.9057 16.0797C70.9057 12.6709 68.8011 10.664 66.1955 10.664H65.9914C63.3857 10.664 61.2812 12.6709 61.2812 16.0797C61.2812 19.4885 63.3857 21.4954 65.9914 21.4954H66.1955Z" fill="#B4BACC"/>
<path d="M79.8243 10.6619H79.6202C77.877 10.6619 76.7145 11.6051 76.7145 12.8487C76.7145 13.9318 77.4565 14.5745 78.6384 14.8147L80.8837 15.2561C83.3087 15.7374 84.7121 17.0218 84.7121 19.3097C84.7121 21.7774 82.628 23.303 79.5212 23.303C76.2144 23.303 74.1119 21.6977 74.0098 18.5873H76.0144C76.0144 20.493 77.4973 21.4964 79.6018 21.4964H79.8059C81.69 21.4964 82.7116 20.5533 82.7116 19.3894C82.7116 18.246 81.9901 17.5838 80.5071 17.2824L78.2617 16.8205C76.0164 16.3587 74.714 15.0946 74.714 12.8681C74.714 10.6609 76.6981 8.85534 79.7243 8.85534C82.831 8.85534 84.8151 10.5608 84.9152 13.2696H82.9107C82.8826 12.8942 82.78 12.5281 82.609 12.1928C82.4379 11.8576 82.2018 11.5598 81.9144 11.317C81.627 11.0741 81.2941 10.8911 80.9353 10.7787C80.5764 10.6662 80.1987 10.6265 79.8243 10.6619Z" fill="#B4BACC"/>
</svg>
