<svg width="91" height="32" viewBox="0 0 91 32" fill="none" xmlns="http://www.w3.org/2000/svg">
<g clip-path="url(#clip0_17580_11099)">
<path d="M19.537 22.5888H17.8846L21.0166 9.2259H22.6522L19.5388 22.5888H19.537ZM27.223 22.5888H21.7048L24.859 9.2259H26.5114L23.7064 21.0933H27.5686L27.223 22.5888ZM31.5508 17.4216L30.3586 22.5888H28.6858L29.8969 17.3826L28.9747 9.2259H30.6478L31.1284 15.7371L34.7224 9.2259H36.5869L31.5508 17.4216ZM68.557 10.7214H66.1348L63.5176 22.5888H61.8448L64.462 10.7214H61.8088L62.1748 9.2259H68.923L68.557 10.7214ZM68.5027 22.5888H67.0213L69.9841 9.2259H71.6176L68.6755 22.5888H68.5027ZM79.3015 12.9852L77.8405 19.542C77.6422 20.4699 77.365 21.1335 77.0059 21.6069C76.4584 22.3461 75.562 22.7067 74.3494 22.7067C72.3496 22.7067 71.2036 21.8343 71.1814 20.3385C71.1745 19.9023 71.2276 19.5048 71.3884 18.7857L72.8491 12.2289C73.3348 10.0107 74.4742 9.0051 76.4551 9.0051C78.4357 9.0051 79.4674 9.9147 79.4896 11.4306C79.4965 11.8668 79.4434 12.3216 79.2997 12.9834H79.3015V12.9852ZM76.3798 10.4082C75.8032 10.4082 75.3637 10.5969 75.0625 10.9758C74.8162 11.2788 74.6896 11.6766 74.5066 12.453L73.0459 19.047C72.9553 19.4442 72.9037 19.8231 72.9073 20.1078C72.9193 20.9046 73.4443 21.339 74.3476 21.339C75.3088 21.339 75.8203 20.79 76.1266 19.4256L77.6062 12.9075C77.7499 12.2625 77.8045 11.9595 77.7994 11.6565C77.7874 10.8411 77.2813 10.4049 76.3762 10.4049H76.378L76.3798 10.4082ZM37.8679 9.2394H40.6372L41.3983 16.9014C41.5354 18.3783 41.6122 19.5708 41.7115 21.1842H41.7508C42.394 19.5912 42.9415 18.3816 43.6615 16.9011L47.4418 9.2394H50.2507L48.7504 22.5837H46.9168L47.8729 14.6157C48.049 13.1757 48.244 11.946 48.4786 10.4691L48.439 10.4487C47.7754 11.8887 47.1904 13.1553 46.4704 14.6157L42.6094 22.5837H40.249L39.5083 14.6157C39.3715 13.1757 39.274 11.8887 39.1765 10.4691H39.1387C38.8087 11.8887 38.4955 13.1571 38.0851 14.6157L35.9401 22.5837H34.0873L37.8679 9.24V9.2394ZM61.2037 15.9039C60.2131 21.0291 58.0579 22.8261 54.6589 22.8261C51.9784 22.8261 50.5021 21.6792 50.5021 18.7332C50.5021 17.8524 50.5981 16.9917 50.8135 15.9222C51.8434 10.7988 53.9611 9 57.3787 9C60.0388 9 61.5355 10.1469 61.5355 13.0929C61.5355 13.9737 61.4191 14.8344 61.2052 15.9039H61.2037ZM57.1633 10.4166C54.9496 10.4166 53.4547 11.8515 52.6387 15.9609C52.4248 16.9161 52.3087 17.8539 52.3087 18.6204C52.3087 20.6079 53.1622 21.4113 54.8521 21.4113C57.0862 21.4113 58.5607 19.9764 59.3971 15.8667C59.5921 14.9118 59.7274 13.9737 59.7274 13.2072C59.7274 11.2368 58.8739 10.4166 57.1633 10.4166ZM6.8689 9.2226C6.5524 9.2226 3.7831 9.2682 3.7831 9.2682L1 22.6107H2.3119V22.6092C3.0595 22.6023 3.3367 22.6176 4.0669 22.6176C7.4797 22.6176 9.64 21.0864 10.6339 15.978H10.6357C10.8496 14.9121 10.9675 14.055 10.9675 13.1772C10.9675 10.2399 9.541 9.2226 6.8689 9.2226ZM8.968 15.9732C8.128 20.0691 6.7834 21.0057 4.5409 21.0174C3.7573 21.0207 3.5794 21.0141 2.986 21.0054L5.1157 10.71V10.7136C5.7829 10.6983 5.9401 10.6917 6.5527 10.6983C8.2699 10.7133 9.2998 11.3619 9.2998 13.3257C9.2998 14.0886 9.1648 15.0237 8.9698 15.975L8.968 15.9735V15.9732ZM89.3254 9.2226L86.6809 21.1926L84.7171 9.2226H81.9529L78.9472 22.5939H80.6854L83.3281 10.4184L85.2763 22.5939H88.0117L91 9.2226H89.3254ZM15.3295 9.2268L9.832 22.59H11.599L12.5998 20.0922L13.2343 18.5409L13.4584 17.9412H15.3127L15.2527 18.5409L15.1177 20.0937L14.926 22.5915H16.5991L17.635 9.2268H15.328H15.3295ZM14.0449 16.3698L16.1746 10.44L15.4732 16.3701L14.0449 16.3698Z" fill="#B4BACC"/>
</g>
<defs>
<clipPath id="clip0_17580_11099">
<rect width="91" height="32" fill="white"/>
</clipPath>
</defs>
</svg>
