<svg width="109" height="32" viewBox="0 0 109 32" fill="none" xmlns="http://www.w3.org/2000/svg">
<g clip-path="url(#clip0_17580_8787)">
<path fill-rule="evenodd" clip-rule="evenodd" d="M17.2603 5.64795C19.1404 5.96604 20.9708 6.52899 22.7046 7.32275C25.6913 11.6897 27.1753 16.6151 26.6275 22.2979C24.6094 23.79 22.3488 24.9234 19.9458 25.6479C19.4048 24.922 18.9266 24.1512 18.5161 23.3442C19.2982 23.052 20.053 22.6915 20.772 22.2671C20.5853 22.1405 20.4007 21.9993 20.2202 21.8521C18.132 22.8341 15.8525 23.3433 13.5449 23.3433C11.2374 23.3432 8.95826 22.834 6.87012 21.8521C6.69164 21.989 6.50674 22.1301 6.31788 22.2671C7.03553 22.6909 7.78909 23.0507 8.56983 23.3423C8.15879 24.1497 7.68023 24.9209 7.13966 25.6479C4.73881 24.9205 2.48056 23.7866 0.462897 22.2959C-0.00408083 17.3956 0.929683 12.4246 4.37501 7.32715C6.11051 6.53326 7.94243 5.96873 9.82374 5.64795C10.0809 6.10787 10.3136 6.58104 10.521 7.06543C12.5237 6.76366 14.5603 6.76365 16.563 7.06543C16.7703 6.58099 17.003 6.10782 17.2603 5.64795ZM9.15723 14.0039C7.82268 14.0039 6.78516 15.1956 6.78516 16.6484C6.78518 18.1013 7.86027 19.2822 9.16163 19.2822C10.4878 19.2821 11.5128 18.1012 11.5357 16.6484C11.5585 15.1955 10.4918 14.0039 9.15723 14.0039ZM17.9287 14.0039C16.5921 14.0039 15.5542 15.1955 15.5542 16.6484C15.5542 18.1013 16.6253 19.2822 17.9287 19.2822C19.2549 19.2822 20.2779 18.1013 20.3008 16.6484C20.3236 15.1956 19.2653 14.004 17.9287 14.0039Z" fill="#B4BACC"/>
<path d="M69.6284 11.1294C71.0813 11.1294 72.2872 11.4347 73.2461 12.0449V14.7075C72.8813 14.4623 72.4827 14.2716 72.063 14.1411C71.5932 13.9928 71.103 13.9194 70.6104 13.9233C69.7096 13.9233 69.0043 14.0877 68.4951 14.417C68.2663 14.5447 68.0755 14.731 67.9419 14.9565C67.8083 15.1821 67.7365 15.439 67.7344 15.7012C67.7323 15.9632 67.7998 16.2211 67.9297 16.4487C68.0597 16.6764 68.2478 16.8657 68.4746 16.9971C68.9686 17.3304 69.6852 17.4971 70.6245 17.4971C71.1094 17.4982 71.592 17.4283 72.0567 17.2896C72.4805 17.168 72.8879 16.9946 73.2691 16.7729V19.3467C72.146 20.0015 70.8637 20.3334 69.564 20.3057C68.5223 20.3341 67.488 20.1235 66.5401 19.6909C65.7633 19.334 65.1083 18.7569 64.6572 18.0308C64.2365 17.3187 64.021 16.5037 64.0347 15.6768C64.0222 14.8504 64.2493 14.038 64.6885 13.3379C65.1567 12.6232 65.8233 12.0604 66.6065 11.7188C67.5586 11.3039 68.5902 11.1028 69.6284 11.1294Z" fill="#B4BACC"/>
<path fill-rule="evenodd" clip-rule="evenodd" d="M105.928 20.0107H102.368V18.1011C102.1 18.7809 101.617 19.3551 100.994 19.7368C100.306 20.1288 99.5235 20.324 98.732 20.3013C97.987 20.3186 97.2535 20.1141 96.625 19.7139C96.0164 19.3185 95.5315 18.7594 95.2261 18.1011C94.8929 17.3744 94.7272 16.5821 94.7407 15.7827C94.7173 14.954 94.8938 14.1318 95.2554 13.3857C95.5878 12.7023 96.1067 12.1265 96.752 11.7251C97.4153 11.3233 98.1787 11.1167 98.9541 11.1294C100.648 11.1295 101.786 11.8657 102.368 13.3379V9.5498H105.928V20.0107ZM100.404 13.8525C99.8787 13.8525 99.3696 14.0337 98.9624 14.3652C98.7835 14.5388 98.6429 14.7481 98.5503 14.9795C98.4577 15.2108 98.4151 15.459 98.4248 15.708C98.4157 15.9593 98.4591 16.2099 98.5528 16.4434C98.6464 16.6768 98.788 16.8881 98.9683 17.0635C99.159 17.2407 99.3834 17.3783 99.628 17.4678C99.8723 17.5572 100.132 17.5968 100.392 17.5845C100.657 17.5991 100.922 17.5606 101.171 17.4712C101.421 17.3817 101.65 17.243 101.845 17.0635C102.027 16.885 102.169 16.6706 102.263 16.4341C102.357 16.1975 102.401 15.9438 102.391 15.6895C102.399 15.4427 102.354 15.197 102.26 14.9688C102.166 14.7406 102.025 14.5348 101.845 14.3652C101.438 14.0337 100.929 13.8526 100.404 13.8525Z" fill="#B4BACC"/>
<path d="M58.7197 11.1338C59.4735 11.1267 60.2252 11.2143 60.957 11.395C61.5482 11.5351 62.1161 11.7603 62.6426 12.0635V14.3467C62.1489 14.0602 61.6179 13.843 61.065 13.7012C60.466 13.5406 59.8486 13.4597 59.2285 13.4604C58.3181 13.4604 57.8628 13.6153 57.8628 13.9253C57.8613 13.9943 57.8801 14.0623 57.917 14.1206C57.9539 14.1789 58.0074 14.2248 58.0703 14.2529C58.319 14.3586 58.5795 14.4339 58.8462 14.4771L60.2993 14.7388C61.243 14.9048 61.9466 15.1953 62.4102 15.6104C62.8737 16.0255 63.1061 16.6333 63.1074 17.4331C63.1148 17.8536 63.0119 18.2688 62.8091 18.6372C62.6063 19.0056 62.3108 19.3145 61.9517 19.5332C61.1865 20.0465 60.0939 20.3026 58.6743 20.3013C57.858 20.3025 57.0444 20.1999 56.2539 19.9961C55.5064 19.8088 54.7914 19.51 54.1328 19.1099V16.6982C54.7078 17.1164 55.3554 17.4248 56.0425 17.6074C56.7941 17.8367 57.5751 17.9559 58.3609 17.9619C58.632 17.9764 58.9032 17.9298 59.1538 17.8252C59.3322 17.7339 59.4214 17.6174 59.4214 17.4971C59.4233 17.4299 59.4112 17.3627 59.3862 17.3003C59.3613 17.2379 59.3236 17.1811 59.2759 17.1338C59.1102 17.0064 58.9156 16.9219 58.7095 16.8872L56.9658 16.4946C55.9669 16.2622 55.2576 15.9407 54.8384 15.5298C54.628 15.3175 54.4641 15.0637 54.3569 14.7847C54.2498 14.5056 54.2016 14.2072 54.2158 13.9087C54.2088 13.3675 54.4061 12.8433 54.7681 12.4409C55.1972 11.9871 55.7383 11.6543 56.3369 11.4761C57.1074 11.2339 57.9122 11.1184 58.7197 11.1338Z" fill="#B4BACC"/>
<path fill-rule="evenodd" clip-rule="evenodd" d="M76.8555 11.7207C78.7655 10.9458 80.9025 10.9458 82.8125 11.7207C83.587 12.06 84.2477 12.6147 84.7158 13.3188C85.1574 14.018 85.3847 14.8314 85.3696 15.6582C85.3799 16.4935 85.1532 17.3147 84.7158 18.0264C84.2528 18.7524 83.5895 19.3293 82.8062 19.687C81.8674 20.0896 80.8564 20.2969 79.835 20.2969C78.8135 20.2969 77.8026 20.0896 76.8638 19.687V19.6909C76.0784 19.3323 75.412 18.7562 74.9439 18.0308C74.5027 17.3204 74.274 16.4983 74.2842 15.6621C74.2701 14.8359 74.4993 14.0237 74.9439 13.3271C75.4145 12.6201 76.078 12.0626 76.8555 11.7207ZM79.8257 13.8066C79.5615 13.7928 79.2971 13.8313 79.0479 13.9199C78.7985 14.0086 78.5692 14.1461 78.3731 14.3237C78.1938 14.5057 78.054 14.7228 77.9629 14.9614C77.8718 15.2 77.8313 15.4549 77.8438 15.71C77.8321 15.9674 77.8729 16.2247 77.9639 16.4658C78.0549 16.707 78.1942 16.9276 78.3731 17.1133C78.5672 17.2944 78.7959 17.4345 79.0454 17.5254C79.295 17.6163 79.5604 17.6564 79.8257 17.6426C80.0912 17.658 80.3571 17.6188 80.6069 17.5278C80.8568 17.4368 81.0855 17.2958 81.2788 17.1133C81.4583 16.928 81.5981 16.7076 81.6895 16.4663C81.7808 16.2251 81.8218 15.9676 81.8101 15.71C81.8226 15.4547 81.7819 15.1996 81.6904 14.9609C81.599 14.7223 81.4587 14.5052 81.2788 14.3237C81.0836 14.1447 80.8541 14.0067 80.6045 13.918C80.355 13.8292 80.0901 13.7911 79.8257 13.8066Z" fill="#B4BACC"/>
<path d="M52.5454 20.0566H48.9942V13.5142C49.5563 13.7504 50.1602 13.8726 50.77 13.8726C51.3798 13.8726 51.9833 13.7504 52.5454 13.5142V20.0566Z" fill="#B4BACC"/>
<path fill-rule="evenodd" clip-rule="evenodd" d="M41.4776 9.84082C42.8433 9.84082 43.9988 10.0538 44.9439 10.48C45.8139 10.8458 46.5529 11.4667 47.063 12.2607C47.5406 13.0452 47.7852 13.9494 47.7686 14.8677C47.779 15.7901 47.5245 16.6962 47.0357 17.4785C46.4903 18.305 45.7107 18.9499 44.7964 19.3301C43.7946 19.7867 42.5527 20.0141 41.0708 20.0127H35.811V9.84082H41.4776ZM39.4434 17.4248H41.0127C41.9328 17.4248 42.6398 17.1947 43.1338 16.7354C43.3842 16.4925 43.5798 16.1991 43.7075 15.8745C43.8353 15.5498 43.8927 15.2015 43.875 14.853C43.8904 14.5296 43.8396 14.2061 43.7261 13.9028C43.6126 13.5997 43.4387 13.3227 43.2149 13.0889C42.7721 12.6488 42.1056 12.4281 41.2158 12.4268H39.4434V17.4248Z" fill="#B4BACC"/>
<path d="M92.7793 11.3184C93.2443 11.3057 93.7033 11.4267 94.1016 11.667V14.8096C93.6678 14.5507 93.1677 14.4244 92.6631 14.4463C91.8891 14.4463 91.2915 14.6829 90.8765 15.1519C90.4614 15.6209 90.2534 16.3495 90.2534 17.3374V20.0107H86.6939V11.5112H90.1812V14.2095C90.3749 13.2216 90.6875 12.493 91.1192 12.0239C91.3285 11.7933 91.5855 11.6111 91.8721 11.4893C92.1587 11.3675 92.4681 11.309 92.7793 11.3184Z" fill="#B4BACC"/>
<path d="M50.77 9.22852C51.75 9.22858 52.5444 9.94197 52.5444 10.8223C52.5444 11.7026 51.7501 12.4164 50.77 12.4165C49.7899 12.4165 48.9951 11.7026 48.9951 10.8223C48.9952 9.94193 49.79 9.22852 50.77 9.22852Z" fill="#B4BACC"/>
</g>
<defs>
<clipPath id="clip0_17580_8787">
<rect width="109" height="32" fill="white"/>
</clipPath>
</defs>
</svg>
