<svg width="82" height="32" viewBox="0 0 82 32" fill="none" xmlns="http://www.w3.org/2000/svg">
<g clip-path="url(#clip0_17580_8477)">
<path d="M75.9265 13.2909C75.1739 13.2911 74.4433 13.5458 73.8538 14.0137L73.3835 14.4024C73.3122 14.4577 73.2245 14.4879 73.1342 14.4879C73.0439 14.4879 72.9562 14.4577 72.8848 14.4024L72.4133 14.0137C71.8237 13.5458 71.0932 13.2911 70.3405 13.2909H70.2537C69.1202 13.2909 68.1253 13.9101 67.5722 14.975C67.5612 14.9967 67.5431 15.0142 67.5211 15.0246C67.499 15.0349 67.4741 15.0375 67.4504 15.032C67.4265 15.0264 67.4054 15.013 67.3902 14.994C67.3749 14.975 67.3664 14.9514 67.3662 14.927V13.7339C67.3662 13.6387 67.3284 13.5474 67.2611 13.4801C67.1938 13.4128 67.1026 13.3751 67.0074 13.3751H64.5162C64.4206 13.3755 64.329 13.4137 64.2615 13.4813C64.194 13.5492 64.1561 13.6409 64.1561 13.7365V23.569C64.1561 23.6655 64.1944 23.7581 64.2627 23.8264C64.331 23.8946 64.4236 23.933 64.5201 23.933H67.0022C67.0987 23.933 67.1913 23.8946 67.2596 23.8264C67.3279 23.7581 67.3662 23.6655 67.3662 23.569V17.7032C67.3661 17.5419 67.3977 17.382 67.4593 17.2329C67.521 17.084 67.6114 16.9484 67.7255 16.8344C67.8395 16.7204 67.975 16.6298 68.1242 16.5682C68.2731 16.5066 68.433 16.475 68.5943 16.4751H69.2226C69.384 16.475 69.5438 16.5066 69.6929 16.5682C69.8421 16.6299 69.9777 16.7203 70.0918 16.8343C70.2059 16.9483 70.2965 17.0838 70.3584 17.2329C70.4202 17.3819 70.4519 17.5418 70.4519 17.7032L70.4597 23.5703C70.4597 23.6181 70.4692 23.6652 70.4874 23.7094C70.5057 23.7534 70.5327 23.7935 70.5665 23.8271C70.6003 23.861 70.6404 23.8876 70.6846 23.9058C70.7287 23.9239 70.7761 23.9331 70.8237 23.933H73.3058C73.4023 23.933 73.495 23.8946 73.5632 23.8264C73.6315 23.7581 73.6698 23.6655 73.6698 23.569V17.7032C73.6698 17.3775 73.7993 17.0652 74.0296 16.8348C74.2599 16.6045 74.5723 16.4751 74.8979 16.4751H75.5275C75.6888 16.475 75.8487 16.5066 75.9976 16.5682C76.1467 16.6299 76.2822 16.7203 76.3962 16.8344C76.5104 16.9484 76.6008 17.084 76.6625 17.2331C76.7241 17.382 76.7557 17.5419 76.7556 17.7032L76.7647 23.5703C76.7647 23.6665 76.8029 23.7588 76.8709 23.8268C76.9389 23.8948 77.0311 23.933 77.1274 23.933H79.6108C79.6586 23.933 79.7059 23.9235 79.7499 23.9053C79.7939 23.887 79.834 23.8601 79.8678 23.8262C79.9015 23.7924 79.9282 23.7523 79.9463 23.7082C79.9644 23.6641 79.9736 23.6168 79.9735 23.569V17.3987C79.9804 16.8624 79.8809 16.3303 79.6806 15.8328C79.4804 15.3354 79.1835 14.8823 78.8072 14.5003C78.4309 14.1183 77.9824 13.8148 77.4879 13.6071C76.9936 13.3996 76.4628 13.292 75.9265 13.2909ZM46.6274 9.55869L44.3215 7.25279C44.2721 7.20292 44.2089 7.16885 44.1401 7.15499C44.0713 7.141 43.9999 7.14799 43.935 7.17481C43.8701 7.20162 43.8148 7.24709 43.7758 7.30552C43.737 7.36381 43.7162 7.4326 43.7165 7.50282V13.7831C43.7164 13.8207 43.7061 13.8578 43.6866 13.8899C43.6671 13.9223 43.6393 13.9484 43.606 13.9661C43.5727 13.9837 43.5352 13.9918 43.4977 13.9898C43.4601 13.9876 43.4237 13.9754 43.3926 13.9541C42.8202 13.5655 42.1412 13.3642 41.4494 13.3777H39.9998C39.4621 13.3775 38.9297 13.4833 38.4329 13.6888C37.9361 13.8946 37.4846 14.196 37.1044 14.5762C36.7242 14.9563 36.4225 15.4076 36.2166 15.9044C36.0109 16.4011 35.9049 16.9336 35.9049 17.4713V19.8523C35.9049 20.3901 36.0109 20.9226 36.2166 21.4194C36.4225 21.9162 36.724 22.3676 37.1043 22.7479C37.4846 23.1281 37.9359 23.4297 38.4327 23.6356C38.9295 23.8413 39.4621 23.9472 39.9998 23.9472H40.8056C41.9391 23.9472 42.934 23.328 43.4872 22.2632C43.4982 22.2414 43.5162 22.2239 43.5382 22.2135C43.5604 22.2033 43.5853 22.2006 43.609 22.2062C43.6328 22.2117 43.6539 22.2251 43.6692 22.2441C43.6845 22.2632 43.6929 22.2867 43.6932 22.3111V23.5858C43.6932 23.633 43.7025 23.6796 43.7205 23.7231C43.7385 23.7667 43.7649 23.8062 43.7982 23.8396C43.8317 23.8729 43.8712 23.8993 43.9147 23.9173C43.9582 23.9353 44.0048 23.9446 44.052 23.9446H46.5432C46.6385 23.9443 46.73 23.9063 46.7974 23.8388C46.8649 23.7713 46.9029 23.6799 46.9033 23.5845V10.2233C46.9029 9.97401 46.8037 9.73487 46.6274 9.55869ZM39.1021 17.6578C39.1025 17.3323 39.2319 17.0201 39.4622 16.7899C39.6924 16.5596 40.0046 16.4301 40.3302 16.4298H42.3938C42.7195 16.4298 43.032 16.5592 43.2622 16.7895C43.4925 17.0198 43.6219 17.3322 43.6219 17.6578V19.6632C43.622 19.8246 43.5904 19.9845 43.5288 20.1336C43.4671 20.2827 43.3767 20.4182 43.2627 20.5324C43.1486 20.6466 43.0132 20.7371 42.8641 20.7989C42.715 20.8607 42.5552 20.8926 42.3938 20.8926H40.3302C40.0046 20.8922 39.6924 20.7628 39.4622 20.5324C39.2319 20.3022 39.1025 19.99 39.1021 19.6645V17.6578ZM21.0319 13.3829H18.542C18.4468 13.3829 18.3556 13.4207 18.2883 13.4879C18.221 13.5553 18.1832 13.6465 18.1832 13.7417V15.0151C18.1829 15.0395 18.1745 15.0631 18.1592 15.0821C18.1441 15.1011 18.1228 15.1145 18.099 15.1201C18.0753 15.1256 18.0504 15.1229 18.0283 15.1127C18.0062 15.1023 17.9882 15.0848 17.9772 15.0631C17.4241 14.0008 16.4227 13.379 15.2956 13.379H14.4886C13.4029 13.379 12.3617 13.8104 11.594 14.5779C10.8262 15.3457 10.395 16.3869 10.395 17.4726V19.8536C10.3948 20.3914 10.5005 20.9238 10.7063 21.4206C10.9118 21.9174 11.2134 22.3689 11.5935 22.7491C11.9736 23.1293 12.4249 23.431 12.9217 23.6368C13.4184 23.8426 13.9508 23.9485 14.4886 23.9485H15.2956C16.4279 23.9485 17.4241 23.3293 17.9772 22.2644C17.9882 22.2427 18.0062 22.2252 18.0283 22.2148C18.0504 22.2046 18.0753 22.2019 18.099 22.2075C18.1228 22.213 18.1441 22.2264 18.1592 22.2454C18.1745 22.2645 18.1829 22.288 18.1832 22.3124V23.5871C18.1832 23.6823 18.221 23.7735 18.2883 23.8409C18.3556 23.9081 18.4468 23.9459 18.542 23.9459H21.0319C21.1274 23.9459 21.2189 23.908 21.2866 23.8405C21.3541 23.7729 21.392 23.6813 21.392 23.5858V13.7404C21.3919 13.6932 21.3824 13.6466 21.3642 13.6031C21.346 13.5597 21.3195 13.5202 21.2861 13.487C21.2526 13.4538 21.2129 13.4275 21.1693 13.4097C21.1257 13.3918 21.079 13.3827 21.0319 13.3829ZM18.1119 19.6697C18.1119 19.8311 18.0802 19.9909 18.0184 20.1402C17.9566 20.2893 17.8661 20.4248 17.7519 20.5389C17.6377 20.6532 17.5022 20.7437 17.3531 20.8055C17.2038 20.8673 17.044 20.899 16.8826 20.899H14.8202C14.4941 20.899 14.1814 20.7695 13.951 20.5389C13.7204 20.3085 13.5908 19.9957 13.5908 19.6697V17.6578C13.5912 17.332 13.7209 17.0197 13.9514 16.7894C14.1819 16.559 14.4944 16.4298 14.8202 16.4298H16.8826C17.2084 16.4298 17.521 16.5592 17.7514 16.7894C17.9819 17.0197 18.1116 17.332 18.1119 17.6578V19.6697ZM30.0171 13.3829H29.7865C28.6543 13.3829 27.6581 14.0008 27.1049 15.0669C27.0939 15.0887 27.0759 15.1062 27.0539 15.1166C27.0318 15.1269 27.0069 15.1295 26.9832 15.1239C26.9593 15.1184 26.9381 15.105 26.9229 15.086C26.9077 15.0669 26.8992 15.0434 26.899 15.019V13.7365C26.8975 13.6422 26.8592 13.5523 26.7921 13.4861C26.7249 13.42 26.6344 13.3829 26.5401 13.3829H24.0503C24.003 13.3827 23.956 13.3919 23.9123 13.4099C23.8685 13.4281 23.8288 13.4545 23.7952 13.4879C23.7618 13.5215 23.7352 13.5612 23.7172 13.605C23.6992 13.6487 23.69 13.6957 23.6901 13.743V23.5767C23.6901 23.673 23.7284 23.7652 23.7964 23.8332C23.8644 23.9012 23.9566 23.9395 24.0529 23.9395H26.5362C26.5839 23.9395 26.6311 23.9301 26.675 23.9119C26.719 23.8936 26.7591 23.8669 26.7927 23.8332C26.8264 23.7996 26.8531 23.7595 26.8714 23.7156C26.8896 23.6716 26.899 23.6244 26.899 23.5767L26.908 17.7874C26.908 17.4617 27.0375 17.1494 27.2678 16.919C27.498 16.6887 27.8104 16.5593 28.1361 16.5593H29.6648C29.9903 16.5597 30.3025 16.6891 30.5327 16.9194C30.763 17.1496 30.8924 17.4618 30.8928 17.7874L30.9006 23.5703C30.901 23.6666 30.9395 23.7589 31.0077 23.8269C31.0759 23.8948 31.1683 23.933 31.2646 23.933H33.7467C33.7945 23.9331 33.8418 23.9239 33.886 23.9058C33.93 23.8876 33.9702 23.861 34.004 23.8271C34.0378 23.7935 34.0647 23.7534 34.083 23.7094C34.1013 23.6652 34.1107 23.6181 34.1107 23.5703V17.4713C34.1093 16.3865 33.6774 15.3466 32.9099 14.58C32.1423 13.8135 31.1019 13.3829 30.0171 13.3829ZM2.09372 11.2246C1.53603 11.225 1.00114 11.4468 0.606938 11.8413C0.212733 12.2357 -0.00878906 12.7708 -0.00878906 13.3284V22.8047C-0.00878906 23.1403 0.124513 23.4624 0.361709 23.6998L2.55231 25.8891C2.60543 25.9421 2.67292 25.9782 2.74663 25.9927C2.82008 26.0074 2.89638 25.9999 2.96556 25.9712C3.035 25.9425 3.0942 25.8939 3.13591 25.8316C3.17763 25.7693 3.19991 25.696 3.20004 25.621V20.7669C3.20004 20.6731 3.23735 20.5832 3.30367 20.5169C3.37 20.4506 3.4599 20.4133 3.55369 20.4133H7.24572C7.34586 20.4133 7.44341 20.3814 7.52424 20.3222C7.60508 20.2631 7.66493 20.1797 7.69524 20.0842L8.3909 17.8819C8.40981 17.8224 8.41448 17.7593 8.40437 17.6976C8.3944 17.6359 8.36991 17.5774 8.33312 17.527C8.2962 17.4765 8.24801 17.4354 8.19231 17.407C8.1366 17.3787 8.07507 17.3639 8.01263 17.3638H3.55369C3.50719 17.3639 3.46107 17.355 3.41819 17.3372C3.37518 17.3195 3.33606 17.2934 3.30328 17.2605C3.27038 17.2277 3.24434 17.1886 3.22659 17.1456C3.20885 17.1026 3.19991 17.0566 3.20004 17.0101V14.6071C3.20004 14.5607 3.20911 14.5147 3.22698 14.4719C3.24473 14.4292 3.2709 14.3902 3.30367 14.3574C3.33658 14.3246 3.37557 14.2987 3.41845 14.2811C3.46133 14.2635 3.50732 14.2546 3.55369 14.2547H9.21999C9.31974 14.2547 9.41702 14.223 9.4976 14.164C9.57818 14.1051 9.63803 14.022 9.66821 13.9269L10.369 11.7428C10.388 11.6832 10.3926 11.6201 10.3825 11.5585C10.3725 11.4968 10.3481 11.4383 10.3113 11.3879C10.2744 11.3373 10.2262 11.2963 10.1705 11.2679C10.1148 11.2395 10.0532 11.2248 9.99078 11.2246H2.09372Z" fill="#B4BACC"/>
<path d="M62.3223 15.0742C62.6589 15.4122 62.9908 15.9296 62.9922 16.3838L63 19.5371C63 19.9687 62.7678 20.523 62.459 20.832L58.6846 24.6016C58.414 24.8721 57.8655 25.1232 57.4932 25.1221L54.4121 25.1133C54.0807 25.1132 53.5067 24.8094 53.2598 24.5625L49.5518 20.8545C49.1968 20.4993 49 19.949 49 19.4131L49.0039 11.3652C49.0039 11.2703 49.1621 10.9925 49.2559 10.9893C49.3495 10.9866 49.5554 11.0561 49.627 11.126L52.4199 13.877L52.4404 6.19824C52.4407 6.05421 52.634 5.75616 52.7158 5.68359H52.9795L62.3223 15.0742ZM54.25 15.8613C54.0305 15.8387 53.7101 15.9342 53.6055 16.0527C52.5228 17.2713 52.2055 16.9637 52.5264 18.9521L55.624 22.0576C55.7103 22.1444 55.8324 22.1786 55.9619 22.1758C56.1772 22.1713 56.4145 22.0644 56.5449 21.9307L59.5498 18.8428V17.2129H59.5508L58.3418 16.0039C58.3124 15.9747 58.2794 15.9498 58.2441 15.9297C57.9979 15.7886 57.6263 15.8645 57.4355 16.0576L56.0205 17.4883L54.4268 15.9287C54.3876 15.8906 54.3245 15.8689 54.25 15.8613Z" fill="#B4BACC"/>
</g>
<defs>
<clipPath id="clip0_17580_8477">
<rect width="82" height="21" fill="white" transform="translate(0 5.5)"/>
</clipPath>
</defs>
</svg>
