<svg width="82" height="32" viewBox="0 0 82 32" fill="none" xmlns="http://www.w3.org/2000/svg">
<path d="M17.6646 16.25C17.6646 11.1546 20.9046 7.25 26.2215 7.25C30.7353 7.25 33.5876 9.60385 34.1415 13.4254H29.2676C29.0184 12.3177 27.9661 11.4038 26.4153 11.4038C24.0061 11.4038 22.7599 13.4531 22.7599 16.25C22.7599 19.0469 24.1722 21.1792 26.6092 21.1792C28.4369 21.1792 29.3507 20.1823 29.6553 19.0469H26.4153V15.4746H34.4738V24.8346H31.123L30.7353 23.0069H30.6799C29.5999 24.5854 27.8553 25.25 25.7507 25.25C23.4246 25.25 21.4584 24.4469 20.0461 22.9515C18.4676 21.2623 17.6646 18.9362 17.6646 16.25ZM35.1938 7.55462H40.2338V20.4869H46.3538V24.8069H35.1938V7.55462ZM58.8707 23.0069H58.8153C57.7353 24.5854 55.963 25.25 53.8584 25.25C51.5322 25.25 49.5661 24.4469 48.1538 22.9515C46.5753 21.2623 45.7722 18.9362 45.7722 16.2777C45.7722 11.1823 49.0122 7.27769 54.3292 7.27769C58.843 7.27769 61.6953 9.63154 62.2492 13.4531H57.3753C57.1261 12.3454 56.0738 11.4315 54.523 11.4315C52.1138 11.4315 50.8676 13.4531 50.8676 16.2777C50.8676 19.1023 52.2799 21.2069 54.7169 21.2069C56.5446 21.2069 57.4307 20.21 57.763 19.0746H54.523V15.4746H62.5815V24.8346H59.2307L58.8707 23.0069Z" fill="#B4BACC"/>
</svg>
