<svg width="77" height="32" viewBox="0 0 77 32" fill="none" xmlns="http://www.w3.org/2000/svg">
<g clip-path="url(#clip0_17580_11079)">
<path d="M7.53509 8.70017V14.8166H1.91595V8.70017H-0.75V23.3008H1.91667V17.3829H7.53437V23.3008H10.2018V8.70017H7.53509ZM18.7373 18.5817C18.7373 19.1669 18.5048 19.7281 18.091 20.142C17.6772 20.5558 17.1159 20.7883 16.5307 20.7883C15.9455 20.7883 15.3842 20.5558 14.9704 20.142C14.5566 19.7281 14.3241 19.1669 14.3241 18.5817V12.3274H11.7946V18.5817C11.7946 19.8365 12.293 21.04 13.1804 21.9273C14.0677 22.8146 15.2712 23.3131 16.526 23.3131C17.7809 23.3131 18.9843 22.8146 19.8717 21.9273C20.759 21.04 21.2575 19.8365 21.2575 18.5817V12.3274H18.7373V18.5817ZM37.4805 12.9719C37.4805 11.6894 38.3285 11.2831 39.2573 11.2831C40.0065 11.2831 40.9952 11.8533 41.6425 12.5447L43.2988 10.5917C42.4718 9.47311 40.7946 8.70017 39.4212 8.70017C36.6765 8.70017 34.6919 10.3074 34.6919 12.9719C34.6919 17.9155 40.7339 16.3466 40.7339 19.1136C40.7339 19.9666 39.9054 20.72 38.9571 20.72C37.461 20.72 36.976 19.989 36.289 19.2153L34.4501 21.1271C35.6265 22.5705 37.0771 23.3037 38.8142 23.3037C41.4217 23.3037 43.519 21.677 43.519 19.1338C43.519 13.646 37.4762 15.3513 37.4762 12.9719M74.8601 20.9683C73.3655 20.9683 72.9404 20.3217 72.9404 19.3315V14.9472H75.2643V12.7258H72.9404V9.79498L70.3755 10.9461V19.8764C70.3755 22.1606 71.9517 23.3117 74.1125 23.3117C74.4517 23.3174 74.7909 23.29 75.1243 23.2308L75.75 20.9272C75.4678 20.9467 75.1438 20.9661 74.8601 20.9661M28.3662 12.4003C27.1133 12.4003 26.2386 12.7641 25.3928 13.5933V8.78749H22.8596V17.6954C22.8596 21.0297 25.2701 23.3146 27.9794 23.3146C30.9845 23.3146 33.6281 20.9892 33.6281 17.8585C33.6281 14.7668 31.1952 12.4025 28.3662 12.4025M28.3503 20.7648C27.9728 20.7648 27.5989 20.6904 27.2501 20.546C26.9013 20.4015 26.5844 20.1897 26.3175 19.9228C26.0505 19.6558 25.8387 19.3389 25.6943 18.9901C25.5498 18.6413 25.4754 18.2674 25.4754 17.8899C25.4754 17.5124 25.5498 17.1385 25.6943 16.7897C25.8387 16.4409 26.0505 16.124 26.3175 15.8571C26.5844 15.5901 26.9013 15.3783 27.2501 15.2339C27.5989 15.0894 27.9728 15.015 28.3503 15.015C29.1128 15.015 29.844 15.3179 30.3832 15.8571C30.9223 16.3962 31.2252 17.1274 31.2252 17.8899C31.2252 18.6524 30.9223 19.3836 30.3832 19.9228C29.844 20.4619 29.1128 20.7648 28.3503 20.7648ZM55.8773 17.7257C55.8773 14.5892 53.2395 12.2697 50.2286 12.2697C47.5201 12.2697 45.1089 14.5539 45.1089 17.8888V26.8018H47.642V21.9895C48.4864 22.8173 49.3625 23.1825 50.614 23.1825C53.443 23.1825 55.8773 20.8182 55.8773 17.7257ZM53.4784 17.694C53.4784 18.4564 53.1755 19.1877 52.6364 19.7268C52.0972 20.266 51.366 20.5689 50.6035 20.5689C49.841 20.5689 49.1098 20.266 48.5707 19.7268C48.0315 19.1877 47.7286 18.4564 47.7286 17.694C47.7286 16.9315 48.0315 16.2003 48.5707 15.6611C49.1098 15.122 49.841 14.8191 50.6035 14.8191C51.366 14.8191 52.0972 15.122 52.6364 15.6611C53.1755 16.2003 53.4784 16.9315 53.4784 17.694Z" fill="#B4BACC"/>
<path d="M64.0635 12.147V9.60158C64.3998 9.44437 64.6847 9.19486 64.8847 8.88209C65.0848 8.56932 65.1919 8.20615 65.1937 7.83486V7.7764C65.1937 6.69386 64.3161 5.81627 63.2335 5.81627H63.1751C62.6552 5.81627 62.1566 6.02279 61.789 6.39038C61.4214 6.75798 61.2149 7.25655 61.2149 7.7764V7.83486C61.2166 8.20615 61.3238 8.56932 61.5239 8.88209C61.7239 9.19486 62.0087 9.44437 62.3451 9.60158V12.147C61.3784 12.295 60.4679 12.6959 59.7059 13.3089L52.7249 7.87167C52.7747 7.69197 52.8007 7.50721 52.8035 7.32173C52.8044 6.88489 52.6757 6.45761 52.4337 6.09394C52.1917 5.73026 51.8472 5.44653 51.4439 5.27864C51.0406 5.11074 50.5966 5.06622 50.168 5.15071C49.7394 5.2352 49.3455 5.4449 49.0361 5.75328C48.7267 6.06167 48.5157 6.45489 48.4299 6.88321C48.344 7.31152 48.387 7.75569 48.5536 8.15952C48.7202 8.56335 49.0028 8.90871 49.3657 9.15191C49.7286 9.39511 50.1554 9.52523 50.5923 9.5258C50.9744 9.524 51.3495 9.42197 51.6799 9.2299L58.554 14.5791C57.9365 15.512 57.6143 16.6094 57.6295 17.728C57.6447 18.8467 57.9966 19.9349 58.6392 20.8507L56.5484 22.9422C56.3794 22.8881 56.2033 22.8594 56.0259 22.857C55.6673 22.8573 55.3169 22.9639 55.0189 23.1633C54.7208 23.3627 54.4886 23.6459 54.3515 23.9773C54.2144 24.3086 54.1786 24.6731 54.2487 25.0248C54.3187 25.3765 54.4914 25.6995 54.7449 25.9531C54.9985 26.2066 55.3215 26.3793 55.6732 26.4493C56.0249 26.5194 56.3894 26.4836 56.7207 26.3465C57.0521 26.2094 57.3354 25.9772 57.5347 25.6791C57.7341 25.3811 57.8407 25.0307 57.841 24.6721C57.8387 24.4947 57.81 24.3186 57.7558 24.1496L59.8242 22.0805C60.4987 22.5997 61.2831 22.9577 62.1173 23.127C62.9515 23.2963 63.8134 23.2724 64.637 23.0571C65.4605 22.8419 66.2239 22.4409 66.8685 21.8851C67.5132 21.3292 68.0221 20.6332 68.3562 19.8503C68.6903 19.0674 68.8408 18.2184 68.7961 17.3684C68.7514 16.5183 68.5128 15.6898 68.0984 14.9462C67.6841 14.2027 67.105 13.5638 66.4056 13.0786C65.7062 12.5934 64.9051 12.2747 64.0635 12.147ZM63.2061 20.5187C62.8238 20.5292 62.4433 20.463 62.0871 20.324C61.7309 20.185 61.4061 19.976 61.132 19.7093C60.8579 19.4426 60.64 19.1238 60.4913 18.7715C60.3425 18.4192 60.2659 18.0407 60.2659 17.6583C60.2659 17.2759 60.3425 16.8973 60.4913 16.545C60.64 16.1928 60.8579 15.8739 61.132 15.6072C61.4061 15.3406 61.7309 15.1315 62.0871 14.9925C62.4433 14.8535 62.8238 14.7873 63.2061 14.7978C63.947 14.8238 64.6489 15.1362 65.164 15.6694C65.679 16.2025 65.9671 16.9148 65.9675 17.6561C65.9679 18.3975 65.6805 19.11 65.166 19.6437C64.6514 20.1774 63.9498 20.4906 63.209 20.5173" fill="#B4BACC"/>
</g>
<defs>
<clipPath id="clip0_17580_11079">
<rect width="76.5" height="32" fill="white"/>
</clipPath>
</defs>
</svg>
