<svg width="65" height="32" viewBox="0 0 65 32" fill="none" xmlns="http://www.w3.org/2000/svg">
<g clip-path="url(#clip0_17580_11089)">
<path fill-rule="evenodd" clip-rule="evenodd" d="M18.6943 3C22.5471 3 25.7046 6.02929 25.9863 9.86929V21.5566C25.726 25.2089 22.8504 28.1272 19.2578 28.3917H7.75894C3.97853 28.1059 1 24.8971 1 20.9844V10.4458C1 6.33687 4.28116 3.00003 8.32182 3H18.6943ZM16.7911 7.62147C16.5266 7.62148 16.2748 7.73201 16.0956 7.92399L13.4888 10.7403L12.1789 12.1524L6.03434 18.7917L13.4932 23.0202L14.6363 23.6729C14.777 23.754 14.9392 23.7969 15.1012 23.7969C16.0826 23.7969 16.4243 22.4695 15.5668 21.9831V21.9707L15.4515 21.9025L9.09796 18.3051L13.4932 13.5646L14.7987 12.1524L17.4867 9.25123C18.0627 8.63254 17.6274 7.62147 16.7911 7.62147ZM10.9453 22.2391C10.2115 22.653 10.5016 23.7875 11.3377 23.7876H11.9136C12.0502 23.7876 12.1872 23.7536 12.3066 23.6853C12.5624 23.5402 12.5624 23.1652 12.3066 23.0158L12.311 23.0115L10.9453 22.2391ZM15.8836 13.3173C15.5075 12.9122 14.8709 12.9135 14.4968 13.3216C14.1512 13.6928 14.1512 14.2776 14.4968 14.6488L17.8803 18.3008L15.568 19.6106C14.9152 19.9776 14.9152 20.9337 15.568 21.3049C15.8581 21.4712 16.2078 21.4712 16.4979 21.3049L20.9439 18.7831L15.8836 13.3173ZM10.1834 7.61217C9.34732 7.61227 8.9165 8.62325 9.48789 9.24193L11.0879 10.9703H11.0922C11.4677 11.3799 12.1035 11.3798 12.479 10.9703C12.8246 10.599 12.8246 10.0142 12.479 9.64302L10.879 7.91531C10.6998 7.7233 10.448 7.61217 10.1834 7.61217Z" fill="#B4BACC"/>
<path d="M64.6288 9.23321C64.744 9.30148 64.8379 9.39535 64.9019 9.51056C64.9701 9.63003 65 9.7623 65 9.90311C65 10.0439 64.9659 10.1805 64.8976 10.2999C64.8293 10.4237 64.7355 10.5133 64.6203 10.5815C64.5051 10.6498 64.3728 10.6839 64.2277 10.6839C64.0826 10.6839 63.9546 10.6498 63.8394 10.5815C63.7242 10.5133 63.6304 10.4151 63.5663 10.2999C63.4981 10.1805 63.4639 10.0482 63.4639 9.90737C63.4639 9.76657 63.4981 9.63003 63.5663 9.51483C63.6346 9.39535 63.7242 9.30148 63.8437 9.23321C63.9632 9.16495 64.0912 9.13081 64.2362 9.13081C64.3813 9.13081 64.5093 9.16495 64.6288 9.22895V9.23321ZM64.5819 10.5175C64.6885 10.4535 64.7696 10.3725 64.8293 10.2615C64.8891 10.1548 64.9189 10.0354 64.9189 9.90737C64.9189 9.77937 64.8891 9.6599 64.8293 9.55323C64.7696 9.45082 64.6885 9.36549 64.5819 9.30148C64.4794 9.24175 64.36 9.20761 64.232 9.20761C64.104 9.20761 63.9845 9.24175 63.8778 9.30148C63.7712 9.36122 63.6901 9.44656 63.6303 9.55749C63.5706 9.66416 63.5407 9.78364 63.5407 9.91164C63.5407 10.0396 63.5706 10.1591 63.6303 10.2658C63.6901 10.3725 63.7712 10.4535 63.8778 10.5218C63.9845 10.5815 64.0997 10.6157 64.2277 10.6157C64.3557 10.6157 64.4709 10.5815 64.5776 10.5218L64.5819 10.5175ZM64.5691 9.93724C64.5349 9.98418 64.488 10.0183 64.424 10.0396L64.6288 10.3597H64.5136L64.3216 10.061H64.0485V10.3597H63.9376V9.46362H64.2746C64.3813 9.46362 64.4666 9.48922 64.5264 9.54043C64.5904 9.59589 64.6203 9.66416 64.6203 9.75803C64.6203 9.8263 64.6032 9.88177 64.5691 9.92871V9.93724ZM64.4453 9.91591C64.488 9.88177 64.5093 9.83057 64.5093 9.76657C64.5093 9.70257 64.488 9.65563 64.4453 9.6215C64.4026 9.58736 64.3429 9.57029 64.2661 9.57029H64.0442V9.97138H64.2661C64.3429 9.97138 64.4026 9.95431 64.4453 9.91591Z" fill="#B4BACC"/>
<path d="M36.4358 21.3945C36.4273 21.8084 36.103 22.0772 35.783 22.1284C35.6209 22.1625 35.4545 22.1839 35.2881 22.1839C34.1616 22.1839 33.1418 21.3518 32.8688 20.1998C32.8176 19.9864 32.8048 19.756 32.7962 19.5342C32.7962 19.4531 32.7877 19.3678 32.7834 19.291C32.7621 19.0179 32.7408 18.7277 32.7237 18.4035C32.6938 17.8402 32.6768 17.2599 32.6725 16.6157C32.664 15.4849 32.681 14.3414 32.7024 13.2278C32.7024 12.9675 32.7109 12.7072 32.7152 12.447C32.728 11.5851 32.7237 10.7061 32.7152 9.86127C32.7152 9.58819 32.7152 9.31511 32.7066 9.05057V8.95243C32.7365 8.49588 33.1034 8.14174 33.5515 8.14174C33.7008 8.14174 33.8416 8.18014 33.9653 8.25267H34.1019V8.35081C34.2896 8.51295 34.3963 8.74762 34.3963 9.00363V9.12737C34.4048 12.3488 34.4048 15.5489 34.3963 18.6424C34.375 19.4446 34.4731 19.9011 34.7334 20.1699C34.9382 20.3833 35.2582 20.4899 35.7147 20.4899H35.8342C36.3718 20.6179 36.4316 21.0147 36.423 21.3902H36.4316L36.4358 21.3945ZM45.106 12.2294C44.7988 12.2294 44.5641 12.3787 44.4575 12.639C43.8729 13.9105 43.2969 15.2076 42.7422 16.4663C42.307 17.4562 41.8547 18.476 41.3982 19.4744C40.9459 18.6125 40.5405 17.708 40.1437 16.8247C39.8237 16.1164 39.4952 15.3825 39.1453 14.6785C39.0343 14.4438 38.9277 14.2092 38.821 13.9788C38.6204 13.5435 38.4114 13.0913 38.2023 12.6518C38.07 12.3744 37.8268 12.2166 37.5324 12.2166C37.4983 12.2166 37.4599 12.2166 37.43 12.2251C37.1185 12.2592 36.854 12.4512 36.726 12.7456C36.6065 13.023 36.6364 13.3345 36.807 13.5777C37.0119 14.0172 37.2209 14.4566 37.43 14.8876C37.5623 15.1649 37.6988 15.4423 37.8311 15.7196C38.0572 16.1975 38.2834 16.6711 38.5052 17.149C38.7357 17.6354 38.9618 18.1176 39.1922 18.604C39.3842 19.0136 39.5848 19.4232 39.781 19.8328C40.0242 20.3363 40.2632 20.8398 40.5021 21.3433C40.5107 21.3604 40.5107 21.403 40.5107 21.4158C40.2034 22.1284 39.8834 22.8495 39.572 23.5407C39.3287 24.0869 39.077 24.6586 38.8338 25.2133C38.7271 25.4437 38.7442 25.6827 38.885 25.8917C39.0557 26.1477 39.3031 26.2885 39.5634 26.2885C39.8237 26.2885 40.0925 26.1349 40.2674 25.8661C40.6045 25.3498 40.8435 24.7653 41.0653 24.1978C41.2232 23.8053 41.3854 23.3956 41.5816 23.0244L41.5902 23.0116C42.1576 21.7145 42.755 20.4046 43.3396 19.1373C44.2356 17.1789 45.1572 15.1564 45.9893 13.1425V13.1297L45.9978 13.1169C46.049 12.9419 46.0063 12.7584 45.8911 12.6006C45.7204 12.3744 45.4047 12.2208 45.1018 12.2208L45.106 12.2294ZM62.8261 12.7115C62.408 12.3232 61.8448 12.1184 61.1962 12.1184C60.2063 12.1184 59.114 12.5963 58.4143 13.3046C58.4057 12.9846 58.3545 12.6603 58.154 12.4512C58.0174 12.3062 57.834 12.2379 57.6036 12.2379H57.5523C57.0233 12.2379 56.7161 12.5408 56.7161 13.0699C56.7033 15.7879 56.7075 18.5315 56.7161 21.3433C56.7246 21.9236 57.1513 22.1881 57.5481 22.1881C57.7998 22.1881 58.0302 22.09 58.1924 21.915C58.3417 21.7486 58.4185 21.5268 58.4057 21.2836C58.4185 20.5454 58.4143 19.7944 58.4057 19.0733C58.3972 17.9853 58.3887 16.8589 58.4484 15.7538C58.6063 14.303 60.0442 13.791 61.337 13.791C61.5802 13.791 61.8277 13.8081 62.0624 13.8465H62.0752C62.1051 13.8465 62.1264 13.8465 62.152 13.8465C62.4763 13.8465 62.7152 13.6886 62.8688 13.3814L62.8902 13.343V12.7755L62.8304 12.72V12.7115H62.8261ZM54.0621 20.5753C53.277 20.5753 52.4919 20.5753 51.7068 20.5753H49.2534C50.0086 19.5299 50.815 18.4973 51.5959 17.4946C52.1292 16.8119 52.6796 16.1079 53.2087 15.4039C53.6525 14.8236 54.0962 14.2433 54.5357 13.663C54.7661 13.3601 54.8131 12.9846 54.668 12.6432C54.5528 12.3659 54.2925 12.2251 53.8914 12.2251H50.67C49.4795 12.2251 48.5067 12.2251 47.6192 12.2336C47.1797 12.2336 46.9024 12.3488 46.7786 12.912C46.736 13.1126 46.7872 13.343 46.9109 13.5307C47.0218 13.6929 47.1669 13.7995 47.3248 13.8294H47.3461C47.9435 13.8635 48.6048 13.8849 49.4155 13.8849C49.8337 13.8849 50.2646 13.8849 50.6785 13.8763C51.0924 13.8763 51.5191 13.8678 51.9372 13.8678H52.381C51.7751 14.6785 51.1436 15.4764 50.5334 16.253C49.9574 16.9826 49.3686 17.7378 48.7968 18.4931C48.6262 18.7149 48.4512 18.9411 48.2763 19.1629C47.8795 19.675 47.4698 20.1998 47.073 20.7289C46.8128 21.0745 46.7658 21.4372 46.9408 21.7828C47.1413 22.1839 47.5296 22.1839 47.7899 22.1839H54.0621C54.5101 22.1839 54.8216 21.8425 54.8216 21.3732C54.8216 20.9038 54.5314 20.5795 54.0664 20.5795H54.0578L54.0621 20.5753Z" fill="#B4BACC"/>
</g>
<defs>
<clipPath id="clip0_17580_11089">
<rect width="65" height="32" fill="white"/>
</clipPath>
</defs>
</svg>
