<svg width="120" height="32" viewBox="0 0 120 32" fill="none" xmlns="http://www.w3.org/2000/svg">
<path fill-rule="evenodd" clip-rule="evenodd" d="M0 15.9614C0 14.1183 1.48368 12.6239 3.31299 12.6239C5.14305 12.6239 6.62682 14.1183 6.62682 15.9614C6.62682 17.8053 5.14305 19.2998 3.31299 19.2998C1.48368 19.2998 0 17.8061 0 15.9614ZM23.2733 19.2998C21.4432 19.2998 19.9603 17.8053 19.9603 15.9614C19.9603 14.1183 21.4432 12.6239 23.2733 12.6239C25.1026 12.6239 26.5871 14.1183 26.5871 15.9614C26.5871 17.8053 25.1026 19.2998 23.2733 19.2998ZM23.2733 2.61035C15.9546 2.61035 10.0205 8.58818 10.0205 15.9614C10.0205 23.3362 15.9538 29.3134 23.2733 29.3134C30.5936 29.3134 36.5269 23.3362 36.5269 15.9614C36.5269 8.58893 30.5936 2.61035 23.2733 2.61035Z" fill="#B4BACC"/>
<path fill-rule="evenodd" clip-rule="evenodd" d="M117.996 14.9286C118.206 14.9286 118.329 14.834 118.329 14.6627C118.329 14.5068 118.245 14.4047 118.011 14.4047H117.794V14.9285L117.996 14.9286ZM117.476 14.1399H118.065C118.391 14.1399 118.67 14.2729 118.67 14.6468C118.671 14.7389 118.644 14.829 118.593 14.9057C118.542 14.9823 118.469 15.042 118.384 15.0768L118.74 15.7258H118.384L118.111 15.179H117.794V15.7258H117.476L117.476 14.1399ZM119.189 14.9517C119.189 14.2183 118.686 13.6945 118.035 13.6945C117.383 13.6945 116.887 14.2183 116.887 14.9517C116.887 15.6943 117.383 16.2011 118.035 16.2011C118.686 16.2011 119.189 15.6943 119.189 14.9517ZM116.577 14.9517C116.577 14.0378 117.236 13.4134 118.035 13.4134C118.841 13.4134 119.5 14.0378 119.5 14.9517C119.5 15.8656 118.841 16.4906 118.035 16.4906C117.236 16.4906 116.577 15.8656 116.577 14.9517ZM106.851 21.1975C106.946 21.1965 107.038 21.158 107.106 21.0903C107.174 21.0225 107.212 20.9309 107.213 20.8351V19.495C107.212 19.3994 107.174 19.3079 107.107 19.2401C107.04 19.1723 106.948 19.1336 106.853 19.1324H106.795C106.632 19.1324 106.47 18.9696 106.47 18.8053V10.8645C106.47 10.6834 106.29 10.502 106.11 10.502H104.785C104.606 10.502 104.426 10.6832 104.426 10.8645V19.6616L104.432 19.8903C104.432 20.5454 105.082 21.1997 105.732 21.1997L106.851 21.1975ZM48.5426 12.5994C50.345 12.5994 51.8664 14.1375 51.8664 15.9615C51.867 16.8441 51.5173 17.6909 50.8941 18.316C50.2709 18.941 49.4252 19.2932 48.5426 19.2952C46.7186 19.2952 45.2357 17.8015 45.2357 15.9615C45.2357 14.1076 46.7186 12.5994 48.5426 12.5994ZM48.5426 10.482C45.5606 10.482 43.1338 12.9395 43.1338 15.9615C43.1338 19.018 45.5083 21.4133 48.5426 21.4133C51.5853 21.4133 53.9683 19.018 53.9683 15.9608C53.9683 12.9403 51.5338 10.482 48.5426 10.482ZM91.7039 19.0265C91.6064 19.3069 91.0174 19.8336 90.347 19.8336C89.6435 19.8336 89.2511 19.4051 89.2511 18.7623C89.2511 18.0865 89.7249 17.6748 90.5919 17.6748C91.1971 17.6748 91.7039 17.9053 91.7039 17.9053V19.0265ZM90.8208 13.4073C89.5944 13.4073 88.4002 13.7198 88.2366 13.7859C88.0729 13.8349 87.9255 13.967 87.9907 14.2474L88.155 15.1045C88.1872 15.3349 88.3347 15.5161 88.5797 15.4339C89.022 15.3018 90.0196 15.1535 90.707 15.1535C91.508 15.1535 91.786 15.6151 91.7529 16.5874C91.7529 16.5874 91.0664 16.3731 90.2977 16.3731C88.3839 16.3731 87.2872 17.4114 87.2872 18.7622C87.2872 20.3941 88.3347 21.3657 89.8392 21.3657C90.2783 21.3724 90.7143 21.2914 91.1216 21.1273C91.529 20.9632 91.8995 20.7195 92.2114 20.4103V20.8197C92.2114 21.0179 92.3751 21.1821 92.5716 21.1821H92.7045C92.7198 21.1846 92.7352 21.1856 92.7507 21.1851H93.3074C93.403 21.1839 93.4943 21.1452 93.5616 21.0774C93.629 21.0096 93.667 20.9181 93.6676 20.8225V16.7193C93.6676 14.6427 93.1762 13.4073 90.8208 13.4073ZM77.0895 13.4073C75.6411 13.4073 74.9384 14.1898 74.6573 14.5054V13.9341C74.6567 13.8385 74.6187 13.747 74.5513 13.6792C74.484 13.6114 74.3927 13.5728 74.2972 13.5716H73.4416C73.346 13.5726 73.2547 13.6112 73.1873 13.679C73.1199 13.7469 73.0819 13.8384 73.0815 13.9341V20.8228C73.0849 20.9174 73.1238 21.0073 73.1906 21.0745C73.2574 21.1417 73.347 21.1812 73.4416 21.1852H74.652C75.0122 21.1852 75.1266 21.1023 75.1266 20.8228V16.4722C75.3063 15.9446 75.7809 15.2857 76.7623 15.2857C77.6777 15.2857 78.0702 15.8955 78.0702 16.8838V20.8228C78.0702 21.0201 78.2345 21.1852 78.4312 21.1852H79.7552C79.8498 21.1812 79.9394 21.1417 80.0062 21.0745C80.073 21.0073 80.1119 20.9174 80.1153 20.8228V16.8838C80.1153 15.0384 79.4933 13.4073 77.0895 13.4073ZM59.0791 19.4881C58.1299 19.4881 57.5086 19.0595 57.5086 19.0595V16.3393C57.6723 15.9108 58.1959 15.2849 59.1774 15.2849C60.3547 15.2849 60.9599 16.3232 60.9599 17.3938C60.9599 18.4651 60.3232 19.4881 59.0791 19.4881ZM59.4554 13.4073C57.901 13.4073 57.0394 14.4747 56.988 14.5415V13.9349C56.9876 13.8392 56.9496 13.7474 56.8822 13.6795C56.8148 13.6115 56.7235 13.5728 56.6278 13.5716H55.8237C55.7283 13.573 55.6372 13.6117 55.57 13.6795C55.5028 13.7472 55.4649 13.8386 55.4643 13.9341V23.9199C55.4675 24.0146 55.5063 24.1046 55.5729 24.1719C55.6395 24.2393 55.7291 24.279 55.8237 24.2832H57.1492C57.3289 24.2832 57.5086 24.1012 57.5086 23.9199V21.0532C57.8519 21.1852 58.5722 21.3665 59.3241 21.3665C61.5819 21.3665 63.0703 19.6193 63.0703 17.3945C63.0703 15.0875 61.5159 13.4073 59.4554 13.4073ZM113.397 16.4222C113.365 15.6804 112.776 15.1037 111.942 15.1037C111.026 15.1037 110.437 15.6643 110.339 16.4222H113.397ZM111.992 13.4065C113.954 13.4065 115.459 14.8733 115.459 16.933C115.459 17.0482 115.441 17.3116 115.427 17.4275C115.417 17.5185 115.376 17.6034 115.31 17.6667C115.244 17.73 115.158 17.7678 115.066 17.7732H110.225C110.243 18.7124 111.01 19.5364 112.107 19.5364C112.858 19.5364 113.381 19.256 113.725 18.9758C113.905 18.8275 114.102 18.8115 114.216 18.9758L114.854 19.8328C114.984 19.9811 115.001 20.1631 114.821 20.3274C114.041 21.0041 113.041 21.3732 112.008 21.3657C109.751 21.3657 108.18 19.5533 108.18 17.3777C108.18 15.2358 109.751 13.4065 111.992 13.4065ZM99.1901 19.4881C98.2087 19.4881 97.6849 18.8614 97.5213 18.4328V15.7142C97.5213 15.7142 98.1434 15.2857 99.0918 15.2857C100.335 15.2857 100.973 16.3071 100.973 17.3785C100.973 18.4498 100.367 19.4881 99.1901 19.4881ZM99.3698 13.4073C98.6171 13.4073 97.8646 13.5884 97.5213 13.7367V10.8361C97.5179 10.7414 97.4789 10.6515 97.4122 10.5844C97.3454 10.5172 97.2557 10.4776 97.161 10.4736H95.8363C95.6567 10.4736 95.4769 10.6547 95.4769 10.8361V20.8228C95.4803 20.9173 95.5191 21.0071 95.5857 21.0742C95.6524 21.1414 95.7418 21.1811 95.8363 21.1852H96.4093C96.4209 21.1852 96.4296 21.1852 96.4415 21.1823H96.595C96.6908 21.1815 96.7824 21.143 96.8501 21.0752C96.9178 21.0074 96.9561 20.9157 96.9567 20.8198V20.2569L96.9655 20.2279C96.9655 20.2279 97.8333 21.3644 99.4844 21.3644C101.546 21.3644 103.035 19.5521 103.035 17.3772C103.035 15.1524 101.611 13.4073 99.3698 13.4073ZM87.7965 10.4736H80.1029C80.062 10.4738 80.0215 10.482 79.9838 10.4979C79.946 10.5138 79.9118 10.5369 79.883 10.566C79.8542 10.5951 79.8313 10.6296 79.8158 10.6675C79.8004 10.7054 79.7925 10.746 79.7927 10.7869V12.1386C79.7927 12.3028 79.9233 12.4512 80.1029 12.4512H82.8784V20.8719C82.8807 20.9539 82.9141 21.0319 82.9719 21.0901C83.0297 21.1483 83.1075 21.1823 83.1895 21.1852H84.71C84.7921 21.1825 84.8701 21.1486 84.928 21.0904C84.9859 21.0321 85.0195 20.954 85.0218 20.8719V12.4512H87.7965C87.8375 12.4511 87.878 12.4428 87.9159 12.427C87.9537 12.4112 87.9881 12.3881 88.017 12.3589C88.0459 12.3298 88.0687 12.2954 88.0843 12.2574C88.0998 12.2195 88.1077 12.1788 88.1075 12.1378V10.7869C88.1077 10.7459 88.0998 10.7053 88.0843 10.6674C88.0687 10.6294 88.0459 10.5949 88.017 10.5658C87.9881 10.5366 87.9537 10.5135 87.9159 10.4977C87.878 10.4819 87.8375 10.4737 87.7965 10.4736ZM69.4819 16.4222C69.4489 15.6804 68.8599 15.1037 68.0259 15.1037C67.1105 15.1037 66.5207 15.6643 66.4231 16.4222H69.4819ZM68.075 13.4065C70.038 13.4065 71.5424 14.8733 71.5424 16.933C71.5424 17.0482 71.5279 17.3116 71.5102 17.4275C71.5009 17.5185 71.4596 17.6032 71.3936 17.6665C71.3276 17.7298 71.2413 17.7676 71.15 17.7732H66.3087C66.3261 18.7124 67.0936 19.5364 68.1902 19.5364C68.9428 19.5364 69.4651 19.256 69.8092 18.9758C69.9888 18.8275 70.1855 18.8115 70.2999 18.9758L70.9373 19.8328C71.0685 19.9811 71.0848 20.1631 70.9051 20.3274C70.1246 21.0041 69.1242 21.3732 68.0912 21.3657C65.8342 21.3657 64.2645 19.5533 64.2645 17.3777C64.2645 15.2358 65.8341 13.4065 68.075 13.4065Z" fill="#B4BACC"/>
</svg>
