<svg width="60" height="32" viewBox="0 0 60 32" fill="none" xmlns="http://www.w3.org/2000/svg">
<g clip-path="url(#clip0_17580_11105)">
<path fill-rule="evenodd" clip-rule="evenodd" d="M13.312 32H45.888L59.072 16L45.888 0H13.312L0 16L13.312 32ZM45.12 30.336H13.952L2.112 15.936L14.016 1.664H45.12L57.024 16.128L45.12 30.272V30.336ZM13.952 15.68V21.312H12.16V8.832H15.68C16.64 8.832 17.344 9.088 17.984 9.664C18.496 10.304 18.816 11.072 18.816 12.096C18.816 12.736 18.688 13.376 18.304 13.888C18.048 14.4 17.664 14.72 17.152 14.976C17.408 15.04 17.664 15.296 17.92 15.552L18.24 16.768L18.752 21.312H16.96L16.576 16.96C16.512 16.576 16.384 16.256 16.192 16.064C16 15.872 15.808 15.744 15.36 15.744H14.08V15.68H13.952ZM13.952 10.432V14.016H15.616C16 14.016 16.448 13.952 16.576 13.632C16.896 13.312 16.96 12.8 16.96 12.224C16.96 11.584 16.768 11.136 16.576 10.816C16.384 10.56 16 10.432 15.616 10.432H13.952ZM24.64 21.056C24.256 21.312 23.68 21.44 22.976 21.44C22.272 21.44 21.824 21.248 21.312 20.928C20.8 20.672 20.416 20.16 20.16 19.648C19.84 19.136 19.776 18.432 19.776 17.664V16C19.776 15.168 19.84 14.528 20.16 13.952C20.672 12.864 21.76 12.224 22.976 12.224C23.616 12.224 24.128 12.416 24.64 12.736C25.152 13.056 25.536 13.504 25.792 14.016C26.112 14.592 26.176 15.232 26.176 16V17.728C26.176 18.56 26.112 19.2 25.792 19.712C25.536 20.352 25.088 20.864 24.64 21.056ZM21.824 19.392C22.144 19.712 22.464 19.904 22.976 19.904C23.488 19.904 23.808 19.712 24.128 19.392C24.384 19.008 24.512 18.496 24.512 17.728V15.936C24.576 15.36 24.384 14.848 24.128 14.4C23.808 14.08 23.488 13.888 22.976 13.888C22.464 13.888 22.144 14.08 21.824 14.4C21.504 14.848 21.376 15.424 21.44 15.936V17.792C21.44 18.432 21.568 18.944 21.824 19.392ZM32.896 20.736C32.384 21.248 31.68 21.568 30.848 21.568C29.888 21.568 29.056 21.184 28.48 20.48C27.904 19.712 27.584 18.688 27.648 17.664V16C27.584 14.976 27.84 14.016 28.48 13.184C29.12 12.48 29.888 12.096 30.912 12.096C31.744 12.096 32.448 12.352 32.96 12.928C33.472 13.312 33.792 14.08 33.92 14.976L32.256 15.36C32.064 14.208 31.616 13.696 30.784 13.696C30.272 13.696 29.952 13.888 29.632 14.208C29.376 14.592 29.248 15.104 29.248 15.744V17.6C29.248 18.24 29.44 18.752 29.632 19.136C29.952 19.456 30.272 19.648 30.784 19.648C31.168 19.648 31.552 19.584 31.744 19.264C32 19.008 32.128 18.624 32.256 18.048L33.92 18.432C33.792 19.52 33.472 20.288 32.896 20.736ZM36.928 15.424V21.312H35.264V8.832H36.928V13.12C37.12 12.864 37.312 12.736 37.76 12.48C38.144 12.288 38.528 12.224 38.912 12.224C39.744 12.224 40.32 12.48 40.704 13.056C41.088 13.44 41.344 14.208 41.344 15.104V21.312H39.68V15.424C39.68 14.912 39.488 14.528 39.296 14.208C39.04 13.952 38.72 13.824 38.336 13.824C37.952 13.824 37.504 14.016 37.376 14.208C37.056 14.592 36.864 15.104 36.992 15.616V15.424H36.928ZM48.064 13.184C48.576 13.824 48.896 14.848 48.896 15.872V17.152H44.288V17.92C44.288 18.56 44.48 19.072 44.672 19.456C44.992 19.776 45.312 19.968 45.76 19.968C46.144 19.968 46.464 19.904 46.72 19.584C46.976 19.328 47.104 19.008 47.232 18.496L48.704 18.816C48.64 19.648 48.32 20.288 47.808 20.8C47.232 21.312 46.592 21.568 45.76 21.568C44.8 21.568 44.096 21.248 43.456 20.48C42.88 19.84 42.624 18.816 42.624 17.664V16C42.624 15.168 42.688 14.592 43.008 13.952C43.264 13.44 43.648 12.992 44.096 12.672C44.608 12.416 45.184 12.288 45.76 12.288C46.72 12.288 47.424 12.608 48.064 13.248V13.184ZM46.912 14.272C46.592 13.888 46.272 13.696 45.76 13.696C45.376 13.696 44.928 13.888 44.8 14.272C44.48 14.592 44.416 15.104 44.416 15.744V16H47.296V15.68C47.296 15.168 47.168 14.72 46.912 14.272Z" fill="#B4BACC"/>
</g>
<defs>
<clipPath id="clip0_17580_11105">
<rect width="59.072" height="32" fill="white"/>
</clipPath>
</defs>
</svg>
