<svg width="110" height="32" viewBox="0 0 110 32" fill="none" xmlns="http://www.w3.org/2000/svg">
<g clip-path="url(#clip0_17580_8379)">
<path fill-rule="evenodd" clip-rule="evenodd" d="M26.9849 12.855C25.8099 12.855 24.8149 13.27 24.0099 13.925V12.965H21.2949V23.54H24.1199V16.78C24.5099 16.235 25.4899 15.47 26.6849 15.47C27.1099 15.47 27.4999 15.5 27.8199 15.64V12.925C27.5499 12.88 27.2749 12.85 26.9899 12.85" fill="#B4BACC"/>
<path fill-rule="evenodd" clip-rule="evenodd" d="M2.37 20.315C3.085 20.97 4.195 21.36 5.26 21.36C6.02 21.36 6.605 20.99 6.605 20.465C6.605 18.875 1.5 19.44 1.5 16.04C1.5 14.01 3.455 12.75 5.54 12.75C6.91 12.75 8.405 13.275 9.1 13.82L7.775 15.87C7.23 15.48 6.515 15.15 5.755 15.15C4.995 15.15 4.32 15.455 4.32 16C4.32 17.375 9.425 16.83 9.425 20.49C9.425 22.52 7.45 23.76 5.235 23.76C3.78 23.76 2.235 23.26 1 22.345L2.37 20.315Z" fill="#B4BACC"/>
<path fill-rule="evenodd" clip-rule="evenodd" d="M20.0902 18.155C20.0902 15.21 18.0252 12.75 15.1152 12.75C11.9852 12.75 9.99023 15.325 9.99023 18.265C9.99023 21.58 12.3602 23.76 15.5052 23.76C17.1352 23.76 18.8052 23.085 19.8302 21.865L18.2252 20.25C17.7252 20.795 16.7702 21.47 15.5752 21.47C14.0752 21.47 12.8802 20.445 12.7302 18.965H20.0302C20.0752 18.725 20.0952 18.44 20.0952 18.16L20.0902 18.155ZM12.8602 16.89C12.9902 15.93 13.9452 15.035 15.1202 15.035C16.2952 15.035 17.1202 15.95 17.2052 16.89H12.8602Z" fill="#B4BACC"/>
<path fill-rule="evenodd" clip-rule="evenodd" d="M34.5451 19.42L37.4351 12.965H40.3701L35.5251 23.54H33.5701L28.7251 12.965H31.6551L34.5451 19.42Z" fill="#B4BACC"/>
<path fill-rule="evenodd" clip-rule="evenodd" d="M42.74 8C43.76 8 44.585 8.785 44.585 9.81C44.585 10.835 43.76 11.62 42.74 11.62C41.72 11.62 40.895 10.835 40.895 9.81C40.895 8.785 41.72 8 42.74 8Z" fill="#B4BACC"/>
<path d="M44.1502 12.965H41.3252V23.54H44.1502V12.965Z" fill="#B4BACC"/>
<path fill-rule="evenodd" clip-rule="evenodd" d="M55.825 21.38C54.585 23.035 53.025 23.755 51.045 23.755C47.785 23.755 45.395 21.315 45.395 18.26C45.395 15.205 47.85 12.745 51.065 12.745C52.89 12.745 54.52 13.595 55.495 14.86L53.495 16.625C52.93 15.885 52.085 15.36 51.06 15.36C49.43 15.36 48.215 16.645 48.215 18.26C48.215 19.875 49.41 21.14 51.125 21.14C52.275 21.14 53.19 20.44 53.645 19.745L55.815 21.38H55.825Z" fill="#B4BACC"/>
<path fill-rule="evenodd" clip-rule="evenodd" d="M66.0802 21.86C65.0602 23.08 63.3852 23.755 61.7552 23.755C58.6052 23.755 56.2402 21.575 56.2402 18.26C56.2402 15.315 58.2402 12.745 61.3652 12.745C64.2752 12.745 66.3402 15.21 66.3402 18.15C66.3402 18.435 66.3202 18.715 66.2752 18.955H58.9752C59.1252 20.435 60.3202 21.46 61.8202 21.46C63.0152 21.46 63.9702 20.785 64.4702 20.24L66.0752 21.855L66.0802 21.86ZM63.4552 16.89C63.3702 15.95 62.5202 15.035 61.3702 15.035C60.2202 15.035 59.2402 15.93 59.1102 16.89H63.4552Z" fill="#B4BACC"/>
<path fill-rule="evenodd" clip-rule="evenodd" d="M67.465 23.54V12.965H70.18V13.815C70.985 13.16 71.985 12.745 73.155 12.745C74.61 12.745 75.935 13.4 76.805 14.445C77.5 15.275 77.89 16.34 77.89 18.15V23.535H75.065V17.93C75.065 16.885 74.825 16.34 74.435 15.945C74.065 15.575 73.5 15.355 72.85 15.355C71.655 15.355 70.68 16.12 70.285 16.665V23.535H67.46L67.465 23.54Z" fill="#B4BACC"/>
<path fill-rule="evenodd" clip-rule="evenodd" d="M85.1601 12.75C81.7851 12.73 78.9951 15.49 78.9651 18.88C78.9501 20.675 79.6951 22.29 80.9001 23.43C81.3351 23.845 82.0151 23.885 82.4901 23.515C83.1901 22.97 84.0901 22.64 85.1251 22.64C86.1601 22.64 87.0601 22.965 87.7601 23.515C88.2401 23.89 88.9151 23.84 89.3551 23.42C90.5401 22.295 91.2801 20.7 91.2801 18.93C91.2801 15.53 88.5401 12.77 85.1601 12.75ZM85.1251 22.02C83.2951 22.02 82.0451 20.645 82.0451 18.94C82.0451 17.235 83.2951 15.84 85.1251 15.84C86.9551 15.84 88.2051 17.24 88.2051 18.94C88.2051 20.64 86.9551 22.02 85.1251 22.02Z" fill="#B4BACC"/>
<path fill-rule="evenodd" clip-rule="evenodd" d="M96.8702 23.54H94.7702L90.5752 12.965H93.3952L95.6952 19.01L97.9502 12.965H100.305L102.54 19.01L104.86 12.965H107.675L103.485 23.54H101.38L99.1252 17.52L96.8702 23.54Z" fill="#B4BACC"/>
<path d="M107.71 22.3501H107.47V22.7951H107.27V21.5651H107.76C107.98 21.5651 108.155 21.7401 108.155 21.9601C108.155 22.1201 108.055 22.2601 107.91 22.3151L108.19 22.7901H107.97L107.71 22.3451V22.3501ZM107.47 22.1651H107.76C107.865 22.1651 107.955 22.0751 107.955 21.9601C107.955 21.8451 107.87 21.7551 107.76 21.7551H107.47V22.1651Z" fill="#B4BACC"/>
<path d="M107.685 21.065C108.31 21.065 108.82 21.575 108.82 22.2C108.82 22.825 108.31 23.335 107.685 23.335C107.06 23.335 106.55 22.825 106.55 22.2C106.55 21.575 107.06 21.065 107.685 21.065ZM107.685 20.885C106.96 20.885 106.37 21.475 106.37 22.2C106.37 22.925 106.96 23.515 107.685 23.515C108.41 23.515 109 22.925 109 22.2C109 21.475 108.41 20.885 107.685 20.885Z" fill="#B4BACC"/>
</g>
<defs>
<clipPath id="clip0_17580_8379">
<rect width="108" height="15.765" fill="white" transform="translate(1 8)"/>
</clipPath>
</defs>
</svg>
