<svg width="95" height="32" viewBox="0 0 95 32" fill="none" xmlns="http://www.w3.org/2000/svg">
<g clip-path="url(#clip0_17580_8325)">
<path fill-rule="evenodd" clip-rule="evenodd" d="M1.75 15.0055H5.89952V19.1555H1.75V15.0055ZM14.1961 15.0055H18.3456V19.1555H14.1961V15.0055ZM26.6421 15.0055H30.7911V19.1555H26.6421V15.0055Z" fill="#B4BACC"/>
<path fill-rule="evenodd" clip-rule="evenodd" d="M36.6309 21.6743C36.6309 24.4315 37.1051 24.8758 40.0687 24.9058V26.0617H29.9915V24.9058C32.9561 24.8758 33.4294 24.4315 33.4294 21.6743V6.52902C30.021 6.58849 28.035 8.84091 27.7386 12.9604L26.6421 12.7835L26.85 5.55148H43.2107L43.4181 12.7835L42.3212 12.9604C42.0253 8.84141 40.0098 6.58849 36.6309 6.52902V21.6743Z" fill="#B4BACC"/>
<path fill-rule="evenodd" clip-rule="evenodd" d="M39.2362 15.0055H43.3857V19.1555H39.2362V15.0055ZM51.5708 7.23517C51.5708 6.57649 51.5319 6.3361 51.3804 6.18368C51.266 6.06923 51.0006 5.99427 50.7098 5.99427H50.5448V5.58846H53.5454C54.9382 5.58846 55.9133 5.99427 56.6609 6.89284C57.3061 7.66547 57.6489 8.653 57.6489 9.79245C57.6489 11.0973 57.2176 12.2238 56.42 12.9969C55.7114 13.7056 54.7743 14.0344 53.5454 14.0344H50.5448V13.6296H50.7098C51.0006 13.6296 51.266 13.5532 51.3804 13.4397C51.5319 13.2868 51.5708 13.0469 51.5708 12.3882V7.23517ZM52.7358 12.4392C52.7358 13.4017 52.8882 13.5796 53.7733 13.5796C55.5974 13.5796 56.2946 12.5411 56.2946 9.79245C56.2946 7.12073 55.5724 6.03175 53.7998 6.03175C53.3305 6.03175 53.0401 6.1202 52.8882 6.28463C52.7613 6.43655 52.7358 6.58848 52.7358 7.12073V12.4392ZM59.661 11.0838C59.6725 12.933 60.1043 13.7191 61.1038 13.7191C61.788 13.7191 62.2312 13.3513 62.6735 12.4142L63.0544 12.6166C62.5106 13.7191 61.8509 14.2128 60.9019 14.2128C59.4331 14.2128 58.483 12.9969 58.483 11.0838C58.483 9.31168 59.4456 8.03279 60.774 8.03279C62.1553 8.03279 63.0669 9.20973 63.1303 11.0838H59.661ZM61.9519 10.641C61.9644 9.28669 61.5466 8.47608 60.8379 8.47608C60.1293 8.47608 59.686 9.31218 59.6725 10.641H61.9519ZM67.953 12.7311C67.5237 13.7196 66.941 14.1619 66.1179 14.1619C65.5607 14.1619 65.1299 13.947 64.889 13.5412C64.6481 13.1364 64.5726 12.7435 64.5726 11.7935V9.61604C64.5726 8.77993 64.4582 8.60302 63.9264 8.60302H63.788V8.21021L65.6366 8.12175V12.1228C65.6366 12.6681 65.6746 12.9205 65.7891 13.1618C65.8895 13.4152 66.1434 13.5801 66.4218 13.5801C66.851 13.5801 67.2574 13.3013 67.5237 12.794C67.7636 12.3642 67.8526 11.9084 67.8526 11.1863V9.61604C67.8526 8.77993 67.7381 8.60302 67.2074 8.60302H67.016V8.21021L68.9166 8.12175V12.6171C68.9166 13.4522 69.03 13.6431 69.5628 13.6431H69.7012V14.0354L67.953 14.1244V12.7311ZM72.0046 12.1483C72.0046 12.6681 72.0301 12.8955 72.0945 13.1369C72.1825 13.4407 72.4234 13.6306 72.7133 13.6306C73.1945 13.6306 73.4864 13.1119 73.4864 12.2113V12.0349H73.9042V12.2748C73.9042 13.5157 73.3964 14.1614 72.3969 14.1614C71.9156 14.1614 71.5233 14.0089 71.2959 13.7306C71.0176 13.4017 70.9416 13.0344 70.9416 12.1478V8.6405H70.029V8.28567C71.131 8.0198 71.4978 7.51304 71.6503 6.01875H72.0046V8.20921H73.7148V8.64H72.0046V12.1483ZM78.0457 10.0468H77.6649C77.45 8.97034 76.9687 8.4511 76.1831 8.4511C75.6384 8.4511 75.2346 8.83091 75.2346 9.33717C75.2346 9.81794 75.4874 10.0468 76.286 10.3002C77.0952 10.5656 77.438 10.7175 77.7169 10.9334C78.1716 11.2877 78.3876 11.731 78.3876 12.3003C78.3876 13.3892 77.6029 14.1619 76.487 14.1619C75.9812 14.1619 75.6893 14.0599 75.0696 13.6931C75.0282 13.6654 74.9807 13.6481 74.9312 13.6426C74.8412 13.6426 74.7663 13.7306 74.7153 13.8955L74.6773 14.0349H74.323V11.8955H74.6773C74.8412 12.4897 74.9682 12.8075 75.1701 13.0724C75.4874 13.5032 75.9677 13.7561 76.487 13.7561C77.0697 13.7561 77.501 13.3133 77.501 12.7311C77.501 12.3642 77.3106 12.0349 76.9817 11.8315C76.7024 11.6546 76.6899 11.6546 75.8677 11.3757C74.8537 11.0464 74.385 10.5026 74.385 9.67851C74.385 8.74145 75.0811 8.08327 76.0951 8.08327C76.5005 8.08327 76.9297 8.20971 77.2851 8.42511C77.361 8.46309 77.4235 8.48908 77.4755 8.48908C77.5514 8.48908 77.6269 8.38712 77.6649 8.21021H78.0457V10.0468ZM83.6026 12.5536C83.1468 13.6931 82.5016 14.2128 81.5266 14.2128C80.0702 14.2128 79.0697 12.9469 79.0697 11.0978C79.0697 9.29919 80.1337 8.03329 81.6525 8.03329C82.704 8.03329 83.5266 8.75495 83.5266 9.66751C83.5266 10.1353 83.2222 10.4651 82.8054 10.4651C82.4386 10.4651 82.1602 10.1728 82.1602 9.78046C82.1602 9.42663 82.4131 9.13477 82.7545 9.13477C82.8054 9.13477 82.8304 9.13477 82.8814 9.17225C82.692 8.72896 82.2742 8.47558 81.7669 8.47558C80.7919 8.47558 80.2981 9.34917 80.2981 11.0973C80.2981 12.8825 80.7674 13.7306 81.729 13.7306C82.3626 13.7306 82.8434 13.3013 83.1978 12.3887L83.6026 12.5536ZM88.1484 10.2612C88.1484 9.52758 88.1114 9.23522 87.959 9.00783C87.8196 8.75495 87.5922 8.62801 87.3253 8.62801C86.9075 8.62801 86.5152 8.90688 86.2748 9.38815C86.0464 9.85692 85.9574 10.3502 85.9574 11.2233V12.6166C85.9574 13.4657 86.0719 13.6426 86.6036 13.6426H86.8055V14.0349H84.0453V13.6426H84.2482C84.78 13.6426 84.8934 13.4522 84.8934 12.6166V6.99429C84.8934 6.15869 84.78 5.98177 84.2482 5.98177H84.1088V5.58846L85.9574 5.5V9.26021C86.3627 8.4376 86.8565 8.08327 87.5917 8.08327C88.1234 8.08327 88.5542 8.27318 88.8081 8.62751C89.1234 9.0703 89.2124 9.4761 89.2124 10.5776V12.6166C89.2124 13.4657 89.3268 13.6426 89.8586 13.6426H89.997V14.0349H88.1484V10.2612ZM91.7797 11.0838C91.7932 12.933 92.2229 13.7191 93.2245 13.7191C93.9076 13.7191 94.3509 13.3513 94.7952 12.4142L95.174 12.6166C94.6303 13.7191 93.9716 14.2128 93.0216 14.2128C91.5528 14.2128 90.6027 12.9969 90.6027 11.0838C90.6027 9.31168 91.5653 8.03279 92.8956 8.03279C94.276 8.03279 95.1875 9.20973 95.25 11.0838H91.7797ZM94.0721 10.641C94.0836 9.28669 93.6668 8.47608 92.9576 8.47608C92.2484 8.47608 91.8046 9.31218 91.7932 10.641H94.0721ZM54.1791 24.442C54.1791 25.1126 54.2171 25.3415 54.3695 25.4925C54.4954 25.6069 54.7493 25.6824 55.0392 25.6824H55.332V26.0877H51.8632V25.6824H52.1531C52.4449 25.6824 52.6968 25.6069 52.8257 25.4925C52.9762 25.3415 53.0151 25.1126 53.0151 24.442V18.047H52.7488C52.0021 18.047 51.3939 18.4518 51.1031 19.1485C50.9381 19.5283 50.8622 19.9086 50.7987 20.5923L50.4319 20.5668L50.4954 17.6412H56.7384L56.7883 20.5668L56.4095 20.5923C56.1686 18.7432 55.5984 18.047 54.3705 18.047H54.1801V24.442H54.1791ZM58.558 23.1381C58.5695 24.9862 59.0013 25.7713 60.0008 25.7713C60.685 25.7713 61.1283 25.4045 61.5716 24.468L61.9514 24.6694C61.4066 25.7713 60.748 26.2651 59.7989 26.2651C58.3301 26.2651 57.3791 25.0487 57.3791 23.1381C57.3791 21.3644 58.3416 20.0865 59.671 20.0865C61.0513 20.0865 61.9629 21.2635 62.0274 23.1381H58.558ZM60.8499 22.6943C60.8614 21.3394 60.4431 20.5283 59.7344 20.5283C59.0258 20.5283 58.5825 21.3644 58.57 22.6943H60.8499ZM64.5581 24.6689C64.5581 25.5175 64.6726 25.6954 65.2043 25.6954H65.4072V26.0872H62.6461V25.6954H62.849C63.3797 25.6954 63.4942 25.518 63.4942 24.6689V19.0475C63.4942 18.2119 63.3797 18.035 62.849 18.035H62.7105V17.6417L64.5581 17.5528V24.6689ZM67.1789 23.1381C67.1914 24.9862 67.6222 25.7713 68.6217 25.7713C69.3059 25.7713 69.7502 25.4045 70.1935 24.468L70.5733 24.6694C70.0285 25.7713 69.3698 26.2651 68.4198 26.2651C66.951 26.2651 66.002 25.0487 66.002 23.1381C66.002 21.3644 66.9645 20.0865 68.2929 20.0865C69.6732 20.0865 70.5858 21.2635 70.6482 23.1381H67.1789ZM69.4708 22.6943C69.4833 21.3394 69.0655 20.5283 68.3563 20.5283C67.6477 20.5283 67.2034 21.3644 67.1919 22.6943H69.4708ZM75.5099 26.0872L73.6868 23.1496L73.18 23.5934V24.6689C73.18 25.5175 73.2935 25.6954 73.8252 25.6954H74.0661V26.0872H71.2674V25.6954H71.4703C72.0021 25.6954 72.1155 25.506 72.1155 24.6689V19.0475C72.1155 18.2119 72.0021 18.035 71.4703 18.035H71.3309V17.6417L73.1795 17.5528V22.9852L74.8897 21.5169C75.1171 21.3145 75.2565 21.0986 75.2565 20.9341C75.2565 20.7442 75.0916 20.6553 74.7108 20.6553H74.5214V20.263H77.0162V20.6553H76.8893C76.5224 20.6553 76.3575 20.7442 75.8378 21.2125L74.4459 22.4534L75.9762 24.8977C76.357 25.506 76.5979 25.6954 77.0032 25.6954H77.1037V26.0872H75.5099ZM82.7769 23.1751C82.7769 25.0237 81.7509 26.2651 80.2057 26.2651C78.6744 26.2651 77.6484 25.0242 77.6484 23.1886C77.6484 21.3015 78.6744 20.0865 80.2437 20.0865C81.7509 20.086 82.7769 21.3394 82.7769 23.1751ZM79.1672 21.25C78.9653 21.7058 78.8763 22.3015 78.8763 23.1496C78.8763 24.9732 79.3066 25.8598 80.2057 25.8598C81.1048 25.8598 81.548 24.9737 81.548 23.1751C81.548 22.302 81.4591 21.6938 81.2572 21.25C81.0413 20.7692 80.649 20.4898 80.1942 20.4898C79.7754 20.4903 79.3691 20.7947 79.1672 21.25ZM90.2839 22.5299C90.2839 21.7193 90.2329 21.301 90.12 21.0731C89.9805 20.8202 89.7531 20.6813 89.4738 20.6813C89.1194 20.6813 88.8021 20.9087 88.5877 21.3145C88.3718 21.7198 88.3213 22.0356 88.3213 23.0871V24.6694C88.3213 25.518 88.4358 25.6959 88.9665 25.6959H89.1449V26.0877H87.2573V22.7203C87.2573 21.6443 87.2318 21.3904 87.0804 21.0991C86.942 20.8327 86.7136 20.6818 86.4217 20.6818C86.0664 20.6818 85.751 20.9092 85.5481 21.315C85.3452 21.7323 85.2952 22.0991 85.2952 23.0876V24.6699C85.2952 25.5319 85.3967 25.6964 85.9404 25.6964H86.1179V26.0882H83.3827V25.6964H83.5846C84.1038 25.6964 84.2308 25.4935 84.2308 24.6699V21.6698C84.2308 20.8592 84.1038 20.6563 83.5846 20.6563H83.4461V20.264L85.2178 20.175V21.2135C85.4587 20.5678 86.0544 20.1375 86.7006 20.1375C87.4102 20.1375 87.865 20.4913 88.1824 21.2905C88.5482 20.5048 89.056 20.1375 89.7531 20.1375C90.2969 20.1375 90.7781 20.3899 91.031 20.8082C91.2719 21.176 91.3484 21.5943 91.3484 22.3919V24.6704C91.3484 25.5075 91.4628 25.6969 91.9946 25.6969H92.132V26.0887H90.2844V22.5299H90.2839Z" fill="#B4BACC"/>
</g>
<defs>
<clipPath id="clip0_17580_8325">
<rect width="95" height="32" fill="white"/>
</clipPath>
</defs>
</svg>
