<svg width="101" height="32" viewBox="0 0 101 32" fill="none" xmlns="http://www.w3.org/2000/svg">
<path d="M99.9618 19.2429C99.8912 19.2429 99.8211 19.2568 99.7558 19.2838C99.6905 19.3109 99.6312 19.3505 99.5811 19.4005C99.5311 19.4504 99.4915 19.5098 99.4644 19.5751C99.4373 19.6404 99.4234 19.7104 99.4233 19.7811C99.4233 19.8518 99.4372 19.9218 99.4643 19.9871C99.4913 20.0524 99.5309 20.1118 99.5809 20.1618C99.6309 20.2118 99.6902 20.2515 99.7555 20.2785C99.8208 20.3056 99.8908 20.3196 99.9615 20.3196C100.104 20.3196 100.241 20.263 100.342 20.162C100.443 20.0611 100.5 19.9242 100.5 19.7814C100.5 19.6387 100.443 19.5017 100.342 19.4007C100.242 19.2997 100.105 19.243 99.9618 19.2429ZM99.9618 20.2353C99.8414 20.2353 99.7259 20.1875 99.6408 20.1023C99.5556 20.0172 99.5078 19.9017 99.5078 19.7812C99.5078 19.6608 99.5556 19.5453 99.6408 19.4602C99.7259 19.375 99.8414 19.3272 99.9618 19.3272C100.082 19.3272 100.198 19.375 100.283 19.4602C100.368 19.5453 100.416 19.6608 100.416 19.7812C100.416 19.9017 100.368 20.0172 100.283 20.1023C100.198 20.1875 100.082 20.2353 99.9618 20.2353ZM100.137 19.6897C100.137 19.5917 100.067 19.5335 99.9644 19.5335H99.7921V20.024H99.8769V19.846H99.9688L100.058 20.024H100.149L100.053 19.8277C100.079 19.8159 100.101 19.7964 100.116 19.7717C100.131 19.7471 100.138 19.7185 100.137 19.6897ZM99.961 19.7711H99.8776V19.6086H99.961C100.018 19.6086 100.052 19.6372 100.052 19.6897C100.052 19.7422 100.018 19.7718 99.961 19.7718V19.7711ZM36.5714 12.4797H37.5054V14.3287H36.4123C35.5706 14.3287 35.0303 14.7417 35.0303 15.5839V20.2319H33.0321V12.4801H35.0303V13.7825C35.2052 12.8612 35.8406 12.4797 36.5714 12.4797ZM40.5847 10.6366C40.5847 10.7952 40.5534 10.9522 40.4927 11.0987C40.432 11.2451 40.343 11.3782 40.2308 11.4903C40.1187 11.6024 39.9855 11.6913 39.839 11.7519C39.6925 11.8125 39.5355 11.8437 39.3769 11.8436C39.0568 11.8435 38.7499 11.7163 38.5236 11.49C38.2973 11.2636 38.1702 10.9567 38.1701 10.6366C38.1701 9.95337 38.6942 9.41325 39.3774 9.41325C40.0605 9.41325 40.5847 9.95337 40.5847 10.6366ZM38.3809 12.4795H40.3731V20.2316H38.3802L38.3809 12.4795ZM45.8618 12.3487C45.0125 12.3446 44.1856 12.621 43.5095 13.1351V12.4795H41.517V22.5072H43.5095V19.5763C44.1856 20.0905 45.0125 20.367 45.8618 20.3629C48.0749 20.3629 49.8677 18.5689 49.8677 16.3558C49.8677 14.1431 48.0749 12.3491 45.8618 12.3491M45.6864 18.5327C44.4841 18.5327 43.5095 17.5581 43.5095 16.356C43.5095 15.1539 44.4841 14.1791 45.6864 14.1791C46.8887 14.1791 47.8631 15.1537 47.8631 16.356C47.8631 17.5583 46.8885 18.5325 45.6864 18.5327ZM86.4037 17.7832C86.4037 19.2779 85.1214 20.3629 83.3547 20.3629C81.588 20.3629 80.2411 19.2522 80.2411 17.6618V17.6187H82.1911V17.6618C82.1911 18.3255 82.6648 18.7715 83.371 18.7715C84.0769 18.7715 84.5022 18.4413 84.5022 17.9501C84.5022 17.4848 84.1875 17.2245 83.3417 16.9905L82.2279 16.6868C81.0575 16.3699 80.3866 15.6074 80.3866 14.5947C80.3866 13.2935 81.6141 12.3491 83.3063 12.3491C84.9984 12.3491 86.1617 13.294 86.1617 14.701V14.7451H84.3246V14.701C84.3246 14.2234 83.8772 13.8493 83.3063 13.8493C82.7066 13.8493 82.288 14.1245 82.288 14.5188C82.288 14.9133 82.5861 15.1578 83.3511 15.3568L84.5142 15.6758C86.076 16.0926 86.4037 17.0519 86.4037 17.7832ZM56.9409 13.1353C56.2646 12.6209 55.4372 12.3444 54.5875 12.3487C52.3744 12.3487 50.5806 14.1429 50.5806 16.3558C50.5806 18.5688 52.375 20.3628 54.5875 20.3628C55.4369 20.3668 56.2638 20.0903 56.9399 19.5762V20.2318H58.9325V12.4799H56.9399L56.9409 13.1353ZM56.9409 16.356C56.9409 17.5581 55.9662 18.5327 54.7641 18.5325C53.5617 18.5325 52.5872 17.5578 52.5874 16.3557C52.5874 15.1533 53.5619 14.179 54.7642 14.179C55.9662 14.1795 56.9404 15.1541 56.9404 16.356H56.9409ZM66.1314 13.1353C65.4554 12.6212 64.6286 12.3447 63.7793 12.3487C61.5663 12.3487 59.7722 14.1429 59.7722 16.3558C59.7722 18.5688 61.5663 20.3628 63.7793 20.3628C64.6286 20.3668 65.4554 20.0903 66.1314 19.5762V20.2318H68.1243V9.72043H66.1314V13.1353ZM63.9549 18.5325C62.7528 18.5325 61.7782 17.5581 61.778 16.356C61.7779 15.1539 62.7524 14.1793 63.9545 14.179C65.1567 14.179 66.1312 15.1535 66.1314 16.3557C66.1316 17.5578 65.1572 18.5325 63.9549 18.5325ZM77.3799 12.4806H79.3728V20.2318H77.3799V12.4806ZM79.5837 10.6373C79.5837 10.7959 79.5525 10.9529 79.4918 11.0994C79.4312 11.2458 79.3422 11.3789 79.2301 11.491C79.118 11.6031 78.9849 11.6921 78.8384 11.7528C78.692 11.8134 78.535 11.8447 78.3764 11.8447C78.2179 11.8447 78.0609 11.8134 77.9144 11.7528C77.7679 11.6921 77.6348 11.6031 77.5227 11.491C77.4106 11.3789 77.3217 11.2458 77.261 11.0994C77.2003 10.9529 77.1691 10.7959 77.1691 10.6373C77.1691 9.95408 77.6933 9.41397 78.3764 9.41397C79.0595 9.41397 79.5827 9.95319 79.5827 10.6364L79.5837 10.6373ZM91.0137 12.3496C88.8008 12.3496 87.0068 14.1436 87.0068 16.3567C87.0068 18.5698 88.8008 20.3637 91.0137 20.3637C93.2267 20.3637 95.0196 18.5697 95.0196 16.3565C95.0196 14.1438 93.2253 12.3489 91.0127 12.3489L91.0137 12.3496ZM91.0137 18.5334C89.8116 18.5334 88.8371 17.5589 88.8371 16.3567C88.8371 15.1546 89.8116 14.1798 91.0137 14.1798C92.2159 14.1798 93.1906 15.1544 93.1906 16.3567C93.1901 17.5587 92.2154 18.5331 91.0134 18.5325H91.0127L91.0137 18.5334ZM34.0099 11.4987H31.1797V20.2318H29.1936V11.4987H26.3633V9.72043H34.0091L34.0099 11.4987ZM74.4516 12.4797H76.5451L73.8701 20.2318H71.4728L68.8122 12.4799H70.9057L72.6788 18.109L74.4516 12.4797ZM99.4817 12.4797H100.416V14.3287H99.3229C98.4809 14.3287 97.9406 14.7417 97.9406 15.5839V20.2319H95.9426V12.4801H97.9406V13.7825C98.1154 12.8612 98.751 12.4797 99.4817 12.4797ZM8.44427 16.253C8.44427 17.4018 7.5129 18.3332 6.36431 18.3332C5.21573 18.3332 4.28436 17.4018 4.28436 16.253C4.28436 15.1044 5.21573 14.1729 6.36431 14.1729C7.5129 14.1729 8.44427 15.1044 8.44427 16.253ZM18.0878 14.1729C16.9392 14.1729 16.0078 15.1044 16.0078 16.253C16.0078 17.4018 16.9392 18.3332 18.0878 18.3332C19.2364 18.3332 20.1677 17.4018 20.1677 16.253C20.1674 15.105 19.2369 14.1741 18.0888 14.1736L18.0878 14.1729ZM23.9521 16.253C23.9521 19.4901 21.3256 22.1147 18.0878 22.1147C16.6108 22.1172 15.1878 21.5598 14.1056 20.5546L12.2286 22.5966L10.3509 20.5523C9.26873 21.5585 7.84519 22.1168 6.36753 22.1145C3.13203 22.1145 0.506426 19.4901 0.506426 16.2528C0.50528 15.4374 0.674766 14.6307 1.00399 13.8846C1.33321 13.1386 1.81489 12.4697 2.41806 11.9209L0.5 9.83395H4.76165C9.27086 6.76498 15.1975 6.76498 19.7067 9.83395H23.9573L22.0394 11.9209C22.6428 12.4696 23.1247 13.1385 23.4541 13.8846C23.7835 14.6307 23.9531 15.4374 23.9521 16.253ZM10.3323 16.253C10.3323 14.0624 8.55636 12.2861 6.36574 12.2861C4.17513 12.2861 2.39914 14.0624 2.39914 16.253C2.39914 18.4436 4.17513 20.22 6.36574 20.22C8.55636 20.22 10.3322 18.4444 10.3323 16.2537V16.253ZM16.63 10.3307C15.2352 9.74956 13.739 9.45036 12.2279 9.45036C10.7168 9.45036 9.22068 9.74956 7.8258 10.3307C10.33 11.2892 12.2286 13.5282 12.2286 16.1388C12.2286 13.5284 14.1267 11.2892 16.63 10.3307ZM22.0554 16.2528C22.0554 14.062 20.2795 12.2859 18.0888 12.2859C15.8982 12.2859 14.1222 14.0619 14.1222 16.2528C14.1222 18.4435 15.8982 20.2198 18.0888 20.2198C20.2795 20.2198 22.0554 18.4435 22.0554 16.2528Z" fill="#B4BACC"/>
</svg>
