<svg width="98" height="32" viewBox="0 0 98 32" fill="none" xmlns="http://www.w3.org/2000/svg">
<path fill-rule="evenodd" clip-rule="evenodd" d="M57.5184 10.5084C57.5167 10.3481 57.5471 10.1891 57.6079 10.0408C57.6686 9.89241 57.7584 9.7577 57.872 9.64457C57.9855 9.53144 58.1206 9.44218 58.2692 9.38203C58.4178 9.32189 58.5769 9.29208 58.7372 9.29436H59.5952V7.50941C59.5682 7.32155 59.5819 7.13007 59.6356 6.94801C59.6892 6.76594 59.7814 6.59756 59.9059 6.45433C60.0304 6.3111 60.1843 6.19638 60.3572 6.11798C60.53 6.03958 60.7177 5.99935 60.9075 6.00001C61.1932 6.00033 61.4712 6.09283 61.7001 6.26376C61.9291 6.43468 62.0967 6.67492 62.1782 6.94876C62.2328 7.13018 62.2464 7.32184 62.2191 7.50941V9.29436H65.0088C65.2501 9.29167 65.4867 9.3614 65.6881 9.49453C65.8894 9.62766 66.0462 9.81808 66.1382 10.0412C66.2139 10.2264 66.2428 10.4273 66.2225 10.6262C66.2022 10.8252 66.1332 11.0161 66.0216 11.1821C65.9101 11.3481 65.7594 11.4841 65.5829 11.5781C65.4064 11.6721 65.2094 11.7212 65.0094 11.7211H62.2198V16.0202C62.2198 18.1161 63.3889 19.1877 65.0094 19.1877C65.3347 19.1882 65.6465 19.3175 65.8767 19.5473C66.1069 19.7771 66.2368 20.0887 66.2378 20.414C66.238 20.5754 66.2063 20.7352 66.1446 20.8843C66.0829 21.0333 65.9923 21.1688 65.8781 21.2828C65.7639 21.3968 65.6284 21.4871 65.4792 21.5486C65.33 21.6101 65.1701 21.6415 65.0088 21.641C61.9313 21.641 59.5952 19.4748 59.5952 16.0202V11.7218H58.7372C58.4152 11.7206 58.1066 11.5924 57.8784 11.3651C57.6502 11.1379 57.5209 10.8305 57.5184 10.5084ZM46.78 24.8631V20.1944C47.8719 21.1541 49.2782 21.6793 50.7319 21.6704C54.1606 21.6704 56.7565 18.8841 56.7565 15.3572C56.7565 11.8309 54.1606 9.04473 50.7319 9.04473C49.2734 9.03152 47.863 9.56629 46.78 10.5432V10.3788C46.7463 10.1436 46.6499 9.92181 46.501 9.7367C46.352 9.55159 46.1559 9.41002 45.9333 9.32684C45.7107 9.24367 45.4698 9.22197 45.236 9.26402C45.0021 9.30607 44.7839 9.41032 44.6042 9.56582C44.3633 9.77458 44.2059 10.0633 44.1609 10.3788V24.8638C44.1945 25.0991 44.2908 25.3211 44.4399 25.5063C44.5889 25.6915 44.7851 25.8332 45.0078 25.9163C45.2305 25.9995 45.4715 26.0212 45.7054 25.979C45.9394 25.9369 46.1577 25.8325 46.3373 25.6768C46.5782 25.468 46.7356 25.1793 46.7807 24.8638L46.78 24.8631ZM50.4474 11.4729C52.4936 11.4729 54.1149 13.1405 54.1149 15.3572C54.1149 17.5739 52.4943 19.2415 50.4474 19.2415C48.4006 19.2415 46.78 17.5739 46.78 15.3572V15.1887C46.853 13.0709 48.4006 11.4729 50.4474 11.4729ZM30.5285 15.3374C30.538 14.1365 30.8875 12.9628 31.5366 11.9524C32.185 10.9429 33.1068 10.1385 34.1946 9.63267C35.2816 9.12732 36.49 8.94189 37.6785 9.09806C38.867 9.25423 39.9865 9.74556 40.9061 10.5146C41.0487 10.6383 41.1643 10.7899 41.2459 10.9602C41.3274 11.1304 41.3731 11.3156 41.3801 11.5042C41.3819 11.8597 41.2449 12.2018 40.9982 12.4578L37.3525 16.8093C37.2467 16.9468 37.1098 17.0573 36.9531 17.1317C36.7964 17.2062 36.6243 17.2425 36.4509 17.2376C36.2096 17.2507 35.9701 17.1885 35.7657 17.0596C35.5613 16.9307 35.402 16.7415 35.3098 16.5181C35.2485 16.3698 35.2183 16.2106 35.2211 16.0502C35.2132 15.9071 35.2342 15.7639 35.2827 15.629C35.3312 15.4942 35.4063 15.3704 35.5035 15.2651L38.3729 11.8937C37.9032 11.605 37.3609 11.4561 36.8096 11.4647C34.773 11.4647 33.1606 13.1767 33.1606 15.3374C33.1606 17.4982 34.7498 19.2102 36.8096 19.2102C37.2795 19.215 37.7454 19.1223 38.1775 18.9377C38.6097 18.7531 38.9989 18.4808 39.3203 18.138L39.4656 18.0179C39.7725 17.7608 40.0276 17.5473 40.4587 17.5473C40.6266 17.5399 40.7942 17.5673 40.9511 17.6276C41.108 17.6879 41.2508 17.7799 41.3706 17.8979C41.4908 18.0158 41.5855 18.1572 41.6488 18.3132C41.7122 18.4693 41.7428 18.6367 41.7389 18.805C41.7145 19.1254 41.5795 19.4272 41.3569 19.659C40.7884 20.2996 40.087 20.8086 39.3017 21.1504C38.5163 21.4923 37.6659 21.6588 36.8096 21.6383C35.9804 21.6513 35.1571 21.4972 34.3889 21.185C33.6206 20.8728 32.9231 20.409 32.338 19.8213C31.7516 19.2331 31.2893 18.5331 30.9785 17.7629C30.6677 16.9927 30.5146 16.1679 30.5285 15.3374ZM25.4479 11.6877H20.1851C19.8636 11.6857 19.5559 11.5567 19.3291 11.329C19.1014 11.1003 18.973 10.7911 18.9719 10.4684C18.9707 10.1458 19.0969 9.83564 19.3229 9.60538C19.4359 9.49213 19.5704 9.4026 19.7184 9.34204C19.8665 9.28149 20.0251 9.25113 20.1851 9.25276H28.0677C28.3089 9.24981 28.5454 9.31979 28.7463 9.45354C28.9471 9.5873 29.1028 9.77858 29.1931 10.0023C29.2538 10.1503 29.2838 10.3093 29.2817 10.4702C29.2697 10.7948 29.1338 11.1024 28.9018 11.3296L22.4938 18.9974H28.0677C28.309 18.9945 28.5456 19.0646 28.7464 19.1984C28.9472 19.3323 29.1029 19.5237 29.1931 19.7476C29.2835 19.9707 29.3062 20.2155 29.2584 20.4514C29.2106 20.6873 29.0944 20.9039 28.9243 21.0742C28.6972 21.302 28.3893 21.4307 28.0677 21.4323H19.9075C19.7465 21.4306 19.5875 21.3972 19.4394 21.334C19.2914 21.2708 19.1573 21.179 19.0447 21.064C18.8169 20.8314 18.6907 20.5177 18.6934 20.1917C18.7016 19.8697 18.8298 19.5628 19.0508 19.3295L25.4485 11.687L25.4479 11.6877ZM68.5459 11.8439C67.8539 12.8796 67.4846 14.0973 67.4846 15.3429C67.4698 16.1739 67.6225 16.9994 67.9336 17.7701C68.2448 18.5407 68.7081 19.2408 69.2958 19.8285C69.8835 20.4162 70.5836 20.8795 71.3543 21.1907C72.1249 21.5019 72.9504 21.6546 73.7814 21.6397C74.8695 21.6398 75.939 21.3581 76.8857 20.8219C77.8325 20.2857 78.6241 19.5134 79.1836 18.5802C79.743 17.6471 80.0511 16.5848 80.0779 15.4971C80.1047 14.4094 79.8492 13.3334 79.3363 12.3738C78.8235 11.4142 78.0707 10.6039 77.1515 10.0218C76.2323 9.43968 75.1779 9.10567 74.0912 9.05231C73.0045 8.99894 71.9225 9.22804 70.9507 9.71728C69.9788 10.2065 69.1503 10.9392 68.5459 11.8439ZM73.7814 11.4674C75.8706 11.4674 77.4421 13.2039 77.4421 15.3422C77.4421 17.458 75.874 19.217 73.7814 19.217C71.6889 19.217 70.1215 17.4811 70.1215 15.3429C70.1215 13.2039 71.6923 11.4674 73.7814 11.4674Z" fill="#B4BACC"/>
</svg>
