<svg width="98" height="32" viewBox="0 0 98 32" fill="none" xmlns="http://www.w3.org/2000/svg">
<path d="M32.7676 16.1771C33.2869 19.3758 30.5322 21.1786 27.7427 21.3864C25.9671 25.068 19.7121 27.5542 14.2825 24.8763C11.9616 25.2305 10.6894 24.6452 9.70731 23.5287C11.6918 20.9532 17.6987 16.3176 25.0373 18.71C28.9539 19.9875 29.9694 16.9863 28.9873 15.861C25.2912 11.6263 16.9473 15.4381 16.6456 15.7556C19.924 10.6971 31.6491 9.27768 32.7676 16.1771ZM21.5297 10.3634C21.5501 10.3561 18.865 9.4006 15.1094 11.0366C14.9582 10.98 14.8101 10.9155 14.6655 10.8434C18.2775 8.42313 21.4441 7.3959 24.151 7.79537C22.5118 5.89164 14.635 4.49273 10.1222 9.0538C4.54319 7.9461 0.641068 12.7149 0.86301 17.0697C1.08495 21.4245 5.79506 24.1359 8.47867 23.4014C8.54317 23.3925 8.60855 23.3925 8.67305 23.4014C9.2678 20.523 11.6962 13.827 21.5297 10.3634ZM43.9967 14.3407L44.4971 12.1223H36.0952L35.9053 12.9813C35.6862 13.7407 36.281 14.2792 36.9206 14.2616H40.8126L33.9136 20.4075L33.4479 22.4692H42.3473L42.8594 20.2113H37.2311L43.9967 14.3407ZM49.6018 16.1288C49.2072 16.0278 46.998 15.6898 47.1358 14.923C47.291 14.0582 48.3383 13.9763 48.8475 13.9924C49.8962 14.0231 50.2271 14.4884 50.2822 14.6524C50.4272 15.0913 50.7622 15.3123 51.2526 15.3123H52.9092C53.0905 14.2777 53.1398 11.8911 49.2913 11.8911C48.0555 11.8911 46.409 12.2043 45.3196 13.47C44.7394 14.149 43.7313 15.8347 44.7597 17.1019C45.2979 17.7414 46.7006 18.2418 48.2064 18.5388C49.1797 18.732 49.6946 19.1241 49.5873 19.588C49.522 19.8997 49.1347 20.6021 47.7015 20.6006C47.0604 20.6006 45.6707 20.4982 45.9361 19.0452H43.3163C43.0089 20.3621 42.8956 22.6609 46.8907 22.6609C48.4312 22.6609 51.5674 22.4634 52.3841 19.1592C52.973 16.7858 50.3198 16.3161 49.6018 16.1332V16.1288ZM58.8624 19.787C58.6365 19.9976 58.3715 20.161 58.0828 20.2681C57.794 20.375 57.4871 20.4234 57.1798 20.4104C55.2011 20.4294 55.4245 18.454 55.6944 17.2614C55.9641 16.0688 56.601 14.1475 58.4824 14.1519C59.8155 14.1519 59.9693 15.0226 60.0374 15.2786H62.7341C62.6384 12.4077 60.4567 11.8589 58.9147 11.897C54.6877 12.0023 53.4647 15.5669 53.0861 17.2234C51.9823 22.0624 55.0502 22.6668 56.5183 22.6668C57.7223 22.6668 60.358 22.3741 61.9059 19.2836H59.9809C59.4253 19.2632 59.1685 19.5119 58.8624 19.7856V19.787ZM69.874 20.7791C69.0963 21.7046 68.0156 22.3183 66.8277 22.5088C64.485 22.8994 61.2647 22.8014 62.0756 19.3992C62.3352 18.3135 62.737 17.6023 63.545 17.0668C64.8984 16.1698 66.6957 16.0425 67.2788 15.9781C67.4776 15.9561 68.9514 15.8449 69.2038 14.9655C69.4504 14.1095 68.0985 14.0392 67.7198 14.0348C66.5593 14.0217 66.1663 14.4884 65.9791 14.7664H63.397C64.44 11.9979 67.3137 11.8897 68.097 11.8897C68.9673 11.8897 72.4575 11.8897 71.7917 14.8075C70.7733 19.2646 70.7298 19.7094 69.874 20.7791ZM68.7135 17.2672C68.2986 17.497 67.2628 17.7223 67.0975 17.7706C66.5666 17.9287 65.5512 17.9989 65.058 18.4642C64.6358 18.8666 63.8902 20.5289 65.6614 20.564C66.7581 20.5845 68.1275 19.9626 68.5162 18.1569C68.5974 17.7487 68.7193 17.2672 68.7193 17.2672H68.7135ZM75.3573 9.0977H73.9647L70.9387 22.4706H73.6354L76.3698 10.381C76.4887 10.0006 76.4119 9.13428 75.3573 9.0977ZM82.3477 19.2821H84.2756C83.6692 20.5172 82.0997 22.6668 78.8851 22.6653C74.7829 22.6653 75.0352 18.9734 75.4544 17.2219C76.615 12.355 79.8454 11.8955 81.2844 11.8955C83.2021 11.8955 86.2063 12.6974 84.6803 17.9989H78.0075C77.845 18.7013 77.7058 20.4294 79.5452 20.4089C80.5127 20.3986 80.8754 20.046 80.9624 20.0007C81.2177 19.8718 81.4498 19.2983 82.3477 19.2821ZM78.4093 16.2502H82.339C82.6756 14.348 81.5078 14.1504 80.8492 14.1504C80.2849 14.1504 78.9417 14.3568 78.4093 16.2502ZM88.1287 13.2564C86.3223 14.4987 85.7247 16.4975 85.5173 17.456C85.352 18.2111 84.3815 22.4706 84.3815 22.4706H87.0806C87.0806 22.4706 88.1038 17.7882 88.2832 17.1458C88.4969 16.3951 89.1913 14.3655 91.8815 14.4489L92.5047 12.1267C90.3287 12.0565 88.8926 12.731 88.127 13.2564H88.1287ZM92.8368 10.1103L92.9055 9.78544H94.3562L94.2858 10.1103H93.7656L93.4755 11.5414H93.0832L93.381 10.1103H92.8368ZM95.2248 9.78544L95.3579 11.057L96.0283 9.78544H96.5622L96.1939 11.5414H95.8394L96.1587 10.144L95.4222 11.5414H95.1321L94.9639 10.144L94.7038 11.5414H94.3424L94.7081 9.78544H95.2248Z" fill="#B4BACC"/>
</svg>
