<svg width="112" height="40" viewBox="0 0 112 40" fill="none" xmlns="http://www.w3.org/2000/svg">
<path fill-rule="evenodd" clip-rule="evenodd" d="M13.7006 4.87212C13.9134 4.75454 14.1716 4.75454 14.3844 4.87212L27.0944 11.8948C27.32 12.0194 27.46 12.2569 27.46 12.5146V16.1279C27.46 16.3845 27.3214 16.6209 27.0977 16.746L25.8598 17.4382C25.3882 17.702 24.8074 17.3608 24.8074 16.8203V13.9804C24.8074 13.7226 24.6674 13.4851 24.4418 13.3606L14.3844 7.80354C14.1716 7.68595 13.9134 7.68595 13.7006 7.80354L3.64323 13.3606C3.41772 13.4851 3.27771 13.7226 3.27771 13.9804V16.8203C3.27771 17.3608 2.69674 17.702 2.22519 17.4382L0.987339 16.746C0.763613 16.6209 0.625 16.3845 0.625 16.1279V12.5146C0.625 12.2569 0.765008 12.0194 0.990509 11.8948L13.7006 4.87212ZM3.64323 26.5713C3.41772 26.4468 3.27771 26.2093 3.27771 25.9516V22.6938C3.27771 22.4372 3.13909 22.2008 2.91538 22.0757L1.67752 21.3834C1.20597 21.1198 0.625 21.4609 0.625 22.0015V27.4184C0.625 27.6756 0.764343 27.9126 0.989 28.0374L13.6149 35.0538C13.8275 35.1719 14.0855 35.1727 14.2985 35.0557L27.0926 28.0367C27.3191 27.9123 27.46 27.6744 27.46 27.4159V22.0015C27.46 21.4609 26.8791 21.1198 26.4075 21.3834L25.1696 22.0757C24.9459 22.2008 24.8074 22.4372 24.8074 22.6938V25.9516C24.8074 26.2093 24.6674 26.4468 24.4418 26.5713L22.1363 27.8452C21.6647 28.1057 21.087 27.7643 21.087 27.2254V16.7401C21.087 16.349 20.7702 16.0321 20.3795 16.0321H13.9562H7.53301C7.14231 16.0321 6.82559 16.349 6.82559 16.7401V27.1301C6.82559 27.6691 6.24773 28.0104 5.77624 27.7499L3.64323 26.5713Z" fill="#B4BACC"/>
<path d="M45.4917 12.6203C45.7627 12.6203 46.0042 12.7917 46.0936 13.0476L51.465 28.4262C51.4722 28.447 51.476 28.4688 51.476 28.4909C51.476 28.5993 51.388 28.6871 51.2797 28.6871H47.9528C47.673 28.6871 47.4259 28.5048 47.3436 28.2374L46.6797 26.0841C46.5973 25.8168 46.3502 25.6344 46.0705 25.6344H41.044C40.7642 25.6344 40.5172 25.8168 40.4348 26.0841L39.771 28.2374C39.6886 28.5048 39.4415 28.6871 39.1617 28.6871H36.0185C35.9102 28.6871 35.8223 28.5992 35.8223 28.4908C35.8223 28.4688 35.826 28.447 35.8331 28.4263L41.182 13.0484C41.2711 12.7921 41.5128 12.6203 41.7841 12.6203H45.4917ZM41.8191 21.6392C41.6908 22.0498 41.9974 22.467 42.4276 22.467H44.6869C45.117 22.467 45.4238 22.0498 45.2955 21.6392L43.6169 16.2677C43.6087 16.2416 43.5846 16.2238 43.5572 16.2238C43.53 16.2238 43.5058 16.2416 43.4976 16.2677L41.8191 21.6392Z" fill="#B4BACC"/>
<path d="M53.9534 28.687C53.6012 28.687 53.3158 28.4016 53.3158 28.0495V12.3397C53.3158 11.9876 53.6012 11.7021 53.9534 11.7021H56.213C56.565 11.7021 56.8505 11.9876 56.8505 12.3397V28.0495C56.8505 28.4016 56.565 28.687 56.213 28.687H53.9534Z" fill="#B4BACC"/>
<path d="M60.0163 28.687C59.6641 28.687 59.3787 28.4016 59.3787 28.0495V12.3397C59.3787 11.9876 59.6641 11.7021 60.0163 11.7021H62.2758C62.6279 11.7021 62.9133 11.9876 62.9133 12.3397V17.7677C62.9133 17.8024 62.9414 17.8305 62.976 17.8305C62.9946 17.8305 63.0121 17.8223 63.0241 17.8083C63.7882 16.9203 64.8761 16.4763 66.2874 16.4763C67.6339 16.4763 68.7127 16.8665 69.5237 17.6469C70.3347 18.4273 70.7402 19.4754 70.7402 20.7914V28.0495C70.7402 28.4016 70.4548 28.687 70.1026 28.687H67.8431C67.4909 28.687 67.2055 28.4016 67.2055 28.0495V21.8931C67.2055 20.4242 66.5323 19.6897 65.1857 19.6897C64.543 19.6897 63.9998 19.9039 63.556 20.3323C63.1276 20.7608 62.9133 21.3269 62.9133 22.0308V28.0495C62.9133 28.4016 62.6279 28.687 62.2758 28.687H60.0163Z" fill="#B4BACC"/>
<path d="M78.6343 28.8935C76.798 28.8935 75.3444 28.312 74.2733 27.149C73.2174 25.9708 72.6895 24.4866 72.6895 22.6963C72.6895 20.906 73.2021 19.4217 74.2274 18.2435C75.2526 17.0652 76.6986 16.4762 78.5655 16.4762C80.3404 16.4762 81.7405 17.0346 82.7657 18.1516C83.7909 19.2534 84.3035 20.6458 84.3035 22.329V22.9998C84.3035 23.3519 84.0181 23.6374 83.666 23.6374H76.9441C76.5868 23.6374 76.2902 23.9338 76.3619 24.2838C76.4514 24.7218 76.6274 25.0877 76.8899 25.3817C77.2724 25.8101 77.854 26.0244 78.6343 26.0244C79.5343 26.0244 80.1637 25.7589 80.5225 25.2279C80.6724 25.006 80.901 24.8309 81.1689 24.8309H83.4051C83.7939 24.8309 84.0961 25.1788 83.977 25.5491C83.7077 26.3865 83.1892 27.1112 82.4214 27.7229C81.4575 28.5033 80.195 28.8935 78.6343 28.8935ZM76.4283 20.7519C76.3195 21.0999 76.6217 21.411 76.9863 21.411H80.0298C80.3944 21.411 80.6967 21.0999 80.5878 20.7519C80.4891 20.4363 80.3275 20.1663 80.1033 19.942C79.7514 19.5595 79.2387 19.3682 78.5655 19.3682C77.8463 19.3682 77.2954 19.5595 76.9128 19.942C76.6885 20.1663 76.527 20.4363 76.4283 20.7519Z" fill="#B4BACC"/>
<path d="M87.1142 28.6869C86.7621 28.6869 86.4767 28.4015 86.4767 28.0493V17.3203C86.4767 16.9681 86.7621 16.6827 87.1142 16.6827H89.1415C89.4362 16.6827 89.6926 16.8848 89.7614 17.1714L89.906 17.7741C89.9139 17.8071 89.9434 17.8304 89.9774 17.8304C89.9989 17.8304 90.0194 17.8207 90.0335 17.8045C90.7975 16.9189 91.8842 16.4762 93.2936 16.4762C94.6402 16.4762 95.7189 16.8663 96.5299 17.6468C97.3409 18.4271 97.7464 19.4752 97.7464 20.7912V28.0493C97.7464 28.4015 97.4609 28.6869 97.1088 28.6869H94.8492C94.4972 28.6869 94.2117 28.4015 94.2117 28.0493V21.8929C94.2117 20.424 93.5384 19.6895 92.1918 19.6895C91.5491 19.6895 91.0212 19.9037 90.6081 20.3321C90.2103 20.7453 90.0113 21.3115 90.0113 22.0306V28.0493C90.0113 28.4015 89.7259 28.6869 89.3737 28.6869H87.1142Z" fill="#B4BACC"/>
<path d="M103.899 28.8935C102.583 28.8935 101.551 28.5416 100.801 27.8376C100.066 27.1338 99.699 26.231 99.699 25.1292C99.699 23.9817 100.097 23.0788 100.893 22.4209C101.704 21.7629 102.912 21.4339 104.519 21.4339C105.155 21.4339 105.726 21.478 106.232 21.5663C106.66 21.6409 107.09 21.3288 107.09 20.8936V20.7912C107.09 20.3474 106.937 19.9955 106.631 19.7354C106.34 19.4599 105.881 19.3222 105.253 19.3222C104.718 19.3222 104.29 19.4523 103.968 19.7125C103.844 19.812 103.745 19.9229 103.671 20.0451C103.489 20.3465 103.224 20.6535 102.872 20.6535H100.842C100.489 20.6535 100.198 20.3665 100.247 20.0178C100.376 19.0914 100.798 18.3087 101.512 17.6697C102.4 16.874 103.685 16.4762 105.368 16.4762C106.975 16.4762 108.253 16.8816 109.201 17.6926C110.15 18.4882 110.624 19.5212 110.624 20.7912V28.0493C110.624 28.4015 110.339 28.6869 109.987 28.6869H107.963C107.666 28.6869 107.409 28.4829 107.342 28.1947L107.218 27.665C107.21 27.6317 107.18 27.6081 107.146 27.6081C107.125 27.6081 107.105 27.6173 107.091 27.6332C106.342 28.4734 105.278 28.8935 103.899 28.8935ZM104.794 26.1391C105.498 26.1391 106.057 25.9632 106.47 25.6112C106.883 25.2593 107.09 24.8233 107.09 24.303C107.09 24.2336 107.048 24.1709 106.983 24.1464C106.368 23.9142 105.684 23.798 104.932 23.798C104.381 23.798 103.953 23.9051 103.647 24.1194C103.341 24.3336 103.188 24.6089 103.188 24.9456C103.188 25.2975 103.325 25.5883 103.601 25.8179C103.876 26.0321 104.274 26.1391 104.794 26.1391Z" fill="#B4BACC"/>
</svg>
