<svg width="194" height="70" viewBox="0 0 194 70" fill="none" xmlns="http://www.w3.org/2000/svg">
<path fill-rule="evenodd" clip-rule="evenodd" d="M23.8913 8.58811C24.2624 8.38307 24.7127 8.38306 25.0838 8.58811L47.2478 20.8345C47.6411 21.0517 47.8852 21.4658 47.8852 21.9153V28.2161C47.8852 28.6636 47.6436 29.0759 47.2534 29.294L45.0948 30.5012C44.2724 30.9611 43.2595 30.3662 43.2595 29.4235V24.4713C43.2595 24.0217 43.0154 23.6077 42.6221 23.3904L25.0838 13.7C24.7127 13.4949 24.2624 13.4949 23.8913 13.7L6.35309 23.3904C5.95985 23.6077 5.7157 24.0217 5.7157 24.4713V29.4235C5.7157 30.3662 4.70259 30.9611 3.88029 30.5012L1.7217 29.294C1.33156 29.0759 1.08984 28.6636 1.08984 28.2161V21.9153C1.08984 21.4658 1.33399 21.0517 1.72723 20.8345L23.8913 8.58811ZM6.35309 46.4275C5.95985 46.2105 5.7157 45.7963 5.7157 45.347V39.6659C5.7157 39.2185 5.47397 38.8062 5.08385 38.5881L2.92526 37.3809C2.10295 36.9211 1.08984 37.5159 1.08984 38.4587V47.9047C1.08984 48.3532 1.33283 48.7665 1.72459 48.9842L23.742 61.2196C24.1126 61.4254 24.5625 61.4269 24.934 61.2229L47.2447 48.983C47.6396 48.7661 47.8852 48.3511 47.8852 47.9003V38.4587C47.8852 37.5159 46.8722 36.9211 46.05 37.3809L43.8912 38.5881C43.5012 38.8062 43.2595 39.2185 43.2595 39.6659V45.347C43.2595 45.7963 43.0154 46.2105 42.6221 46.4275L38.6017 48.649C37.7793 49.1034 36.7719 48.508 36.7719 47.5683V29.2838C36.7719 28.6017 36.2194 28.049 35.5382 28.049H24.3371H13.1362C12.4549 28.049 11.9025 28.6017 11.9025 29.2838V47.402C11.9025 48.342 10.8949 48.9371 10.0727 48.4828L6.35309 46.4275Z" fill="white"/>
<path d="M79.3305 22.3858C79.8031 22.3858 80.2241 22.6847 80.3802 23.131L89.7468 49.9484C89.7595 49.9846 89.766 50.0227 89.766 50.0613C89.766 50.2502 89.6126 50.4033 89.4237 50.4033H83.6222C83.1344 50.4033 82.7033 50.0854 82.5598 49.6192L81.4022 45.8643C81.2584 45.3981 80.8276 45.08 80.3398 45.08H71.5746C71.0867 45.08 70.6559 45.3981 70.5121 45.8643L69.3547 49.6192C69.211 50.0854 68.78 50.4033 68.2921 50.4033H62.811C62.6221 50.4033 62.4688 50.25 62.4688 50.0611C62.4688 50.0227 62.4752 49.9846 62.4877 49.9486L71.8152 23.1323C71.9706 22.6853 72.392 22.3858 72.8651 22.3858H79.3305ZM72.9261 38.1132C72.7024 38.8292 73.2371 39.5566 73.9873 39.5566H77.927C78.6772 39.5566 79.2121 38.8292 78.9884 38.1132L76.0611 28.7461C76.0469 28.7007 76.0049 28.6697 75.9572 28.6697C75.9097 28.6697 75.8674 28.7007 75.8532 28.7461L72.9261 38.1132Z" fill="white"/>
<path d="M94.0861 50.4033C93.472 50.4033 92.9743 49.9056 92.9743 49.2915V21.8965C92.9743 21.2824 93.472 20.7847 94.0861 20.7847H98.0265C98.6404 20.7847 99.1383 21.2824 99.1383 21.8965V49.2915C99.1383 49.9056 98.6404 50.4033 98.0265 50.4033H94.0861Z" fill="white"/>
<path d="M104.659 50.4033C104.045 50.4033 103.547 49.9056 103.547 49.2915V21.8965C103.547 21.2824 104.045 20.7847 104.659 20.7847H108.599C109.213 20.7847 109.711 21.2824 109.711 21.8965V31.3619C109.711 31.4223 109.76 31.4715 109.82 31.4715C109.852 31.4715 109.883 31.4571 109.904 31.4327C111.236 29.8841 113.133 29.11 115.594 29.11C117.943 29.11 119.824 29.7904 121.238 31.1513C122.652 32.512 123.359 34.3398 123.359 36.6347V49.2915C123.359 49.9056 122.862 50.4033 122.247 50.4033H118.307C117.693 50.4033 117.196 49.9056 117.196 49.2915V38.5558C117.196 35.9943 116.021 34.7135 113.673 34.7135C112.553 34.7135 111.605 35.0871 110.831 35.8341C110.084 36.5813 109.711 37.5686 109.711 38.796V49.2915C109.711 49.9056 109.213 50.4033 108.599 50.4033H104.659Z" fill="white"/>
<path d="M137.125 50.7634C133.923 50.7634 131.388 49.7493 129.521 47.7213C127.679 45.6666 126.759 43.0785 126.759 39.9564C126.759 36.8346 127.653 34.2462 129.44 32.1916C131.228 30.1369 133.75 29.1097 137.005 29.1097C140.1 29.1097 142.542 30.0836 144.33 32.0314C146.117 33.9527 147.011 36.3808 147.011 39.316V40.4858C147.011 41.0997 146.514 41.5976 145.9 41.5976H134.178C133.555 41.5976 133.038 42.1144 133.163 42.7248C133.319 43.4887 133.626 44.1267 134.083 44.6394C134.75 45.3864 135.764 45.7602 137.125 45.7602C138.695 45.7602 139.792 45.2971 140.418 44.3711C140.679 43.9843 141.078 43.6789 141.545 43.6789H145.445C146.123 43.6789 146.65 44.2855 146.442 44.9313C145.972 46.3916 145.068 47.6552 143.729 48.722C142.048 50.0828 139.847 50.7634 137.125 50.7634ZM133.278 36.5658C133.089 37.1727 133.616 37.7151 134.251 37.7151H139.559C140.195 37.7151 140.722 37.1727 140.532 36.5658C140.36 36.0155 140.078 35.5447 139.687 35.1534C139.073 34.4864 138.179 34.1529 137.005 34.1529C135.751 34.1529 134.79 34.4864 134.123 35.1534C133.732 35.5447 133.45 36.0155 133.278 36.5658Z" fill="white"/>
<path d="M151.913 50.403C151.299 50.403 150.801 49.9053 150.801 49.2912V30.5817C150.801 29.9676 151.299 29.4699 151.913 29.4699H155.448C155.962 29.4699 156.409 29.8224 156.529 30.3221L156.781 31.3731C156.795 31.4306 156.846 31.4712 156.905 31.4712C156.943 31.4712 156.979 31.4543 157.003 31.426C158.336 29.8817 160.231 29.1097 162.688 29.1097C165.037 29.1097 166.918 29.7901 168.332 31.151C169.746 32.5117 170.453 34.3395 170.453 36.6344V49.2912C170.453 49.9053 169.955 50.403 169.341 50.403H165.401C164.787 50.403 164.289 49.9053 164.289 49.2912V38.5555C164.289 35.994 163.115 34.7133 160.767 34.7133C159.646 34.7133 158.726 35.0868 158.005 35.8338C157.312 36.5544 156.965 37.5416 156.965 38.7957V49.2912C156.965 49.9053 156.467 50.403 155.853 50.403H151.913Z" fill="white"/>
<path d="M181.183 50.7634C178.888 50.7634 177.087 50.1497 175.779 48.922C174.499 47.6946 173.858 46.1204 173.858 44.199C173.858 42.1979 174.552 40.6235 175.94 39.4762C177.354 38.3288 179.462 37.7551 182.264 37.7551C183.372 37.7551 184.368 37.832 185.25 37.9859C185.998 38.1161 186.746 37.5718 186.746 36.8129V36.6344C186.746 35.8605 186.479 35.2468 185.946 34.7932C185.439 34.3129 184.638 34.0727 183.544 34.0727C182.61 34.0727 181.863 34.2995 181.303 34.7533C181.086 34.9268 180.913 35.1201 180.784 35.3332C180.467 35.8588 180.005 36.3942 179.391 36.3942H175.851C175.237 36.3942 174.729 35.8938 174.814 35.2857C175.039 33.6702 175.775 32.3053 177.02 31.191C178.568 29.8034 180.809 29.1097 183.744 29.1097C186.546 29.1097 188.774 29.8167 190.429 31.231C192.083 32.6184 192.91 34.4197 192.91 36.6344V49.2912C192.91 49.9053 192.413 50.403 191.798 50.403H188.269C187.752 50.403 187.304 50.0474 187.186 49.5447L186.97 48.621C186.956 48.5629 186.904 48.5219 186.845 48.5219C186.808 48.5219 186.772 48.5379 186.748 48.5656C185.442 50.0307 183.587 50.7634 181.183 50.7634ZM182.744 45.9602C183.971 45.9602 184.945 45.6533 185.666 45.0396C186.386 44.4259 186.746 43.6655 186.746 42.7583C186.746 42.6373 186.673 42.5279 186.56 42.4852C185.487 42.0802 184.295 41.8777 182.984 41.8777C182.023 41.8777 181.276 42.0644 180.743 42.4381C180.209 42.8116 179.942 43.2918 179.942 43.8789C179.942 44.4926 180.182 44.9996 180.663 45.4C181.143 45.7735 181.837 45.9602 182.744 45.9602Z" fill="white"/>
</svg>
