<svg width="62" height="56" viewBox="0 0 62 56" fill="none" xmlns="http://www.w3.org/2000/svg">
<g clip-path="url(#clip0_17400_6078)">
<path fill-rule="evenodd" clip-rule="evenodd" d="M37.8098 20.2015C37.8098 9.98727 29.5254 1.75 19.3112 1.75C9.09701 1.75 0.812672 9.98727 0.812672 20.2015V38.653H19.3112C29.5254 38.6059 37.8098 30.3686 37.8098 20.2015ZM27.219 17.3302C28.4899 17.3302 29.5254 18.3658 29.5254 19.5896C29.5254 20.8605 28.4899 21.8489 27.219 21.8489C25.9481 21.8489 24.9126 20.8134 24.9126 19.5896C24.9596 18.3658 25.9481 17.3302 27.219 17.3302ZM27.219 23.4493C28.4899 23.4493 29.5254 24.4849 29.5254 25.7087C29.5254 26.9796 28.4899 27.9681 27.219 27.9681C25.9481 27.9681 24.9126 26.9325 24.9126 25.7087C24.9596 24.4378 25.9481 23.4493 27.219 23.4493ZM9.61478 22.6491V12.6232H13.6157V22.6491C13.6157 24.2024 14.8866 25.4733 16.44 25.4733C17.9933 25.4733 19.2642 24.2024 19.2642 22.6491C19.2642 21.0958 17.9933 19.8249 16.44 19.8249H15.2161V15.824H16.44C20.2056 15.824 23.2651 18.8835 23.2651 22.6491C23.2651 26.4147 20.2056 29.4743 16.44 29.4743C12.7214 29.4743 9.61478 26.4147 9.61478 22.6491Z" fill="#B4BACC"/>
<path fill-rule="evenodd" clip-rule="evenodd" d="M37.8095 49.0084L36.5386 45.384H35.0795L37.0564 50.5617H38.5626L40.5396 45.384H39.0333L37.8095 49.0084Z" fill="#B4BACC"/>
<path fill-rule="evenodd" clip-rule="evenodd" d="M43.2699 45.2296C42.5168 45.2296 41.8578 45.512 41.3401 46.0298C40.8223 46.5476 40.5399 47.2065 40.5399 47.9597C40.5399 48.7128 40.8223 49.3718 41.3401 49.8895C41.8578 50.4073 42.5168 50.6897 43.2699 50.6897C44.0231 50.6897 44.682 50.4073 45.1998 49.8895C45.7176 49.3718 46 48.7128 46 47.9597C46 47.2065 45.7176 46.5476 45.1998 46.0298C44.682 45.512 44.0231 45.2296 43.2699 45.2296ZM44.2584 48.9952C43.976 49.2776 43.6465 49.4188 43.2699 49.4188C42.8463 49.4188 42.5168 49.2776 42.2815 48.9952C41.999 48.7128 41.9049 48.3833 41.9049 47.9597C41.9049 47.536 42.0461 47.2065 42.2815 46.9241C42.5639 46.6417 42.8934 46.5005 43.2699 46.5005C43.6936 46.5005 44.0231 46.6417 44.2584 46.9241C44.5408 47.2065 44.682 47.536 44.682 47.9597C44.682 48.3833 44.5408 48.7128 44.2584 48.9952Z" fill="#B4BACC"/>
<path fill-rule="evenodd" clip-rule="evenodd" d="M46.7059 50.5617H48.0709V45.384H46.7059V50.5617Z" fill="#B4BACC"/>
<path fill-rule="evenodd" clip-rule="evenodd" d="M52.3541 49.1967C52.1658 49.3379 51.8834 49.385 51.648 49.385C51.2244 49.385 50.8949 49.2437 50.6596 49.0084C50.3772 48.726 50.283 48.3965 50.283 48.0199C50.283 47.5963 50.4242 47.2668 50.6596 46.9844C50.942 46.702 51.2715 46.6078 51.648 46.6078C51.9305 46.6078 52.1658 46.6549 52.3541 46.7961C52.5424 46.9373 52.7307 47.0785 52.8248 47.3139L53.9545 46.6549C53.7191 46.2313 53.4367 45.9018 53.0131 45.6664C52.5895 45.4311 52.1187 45.2899 51.648 45.2899C50.8479 45.2899 50.2359 45.5723 49.6711 46.09C49.1533 46.6078 48.8709 47.2668 48.8709 48.0199C48.8709 48.773 49.1533 49.432 49.6711 49.9498C50.1889 50.4676 50.8479 50.75 51.648 50.75C52.1658 50.75 52.5895 50.6088 53.0131 50.3734C53.4367 50.1381 53.7662 49.8086 53.9545 49.385L52.7777 48.726C52.7307 48.9143 52.5424 49.0555 52.3541 49.1967Z" fill="#B4BACC"/>
<path fill-rule="evenodd" clip-rule="evenodd" d="M57.1556 45.2428C56.3554 45.2428 55.6964 45.5252 55.1787 46.043C54.6609 46.5608 54.4255 47.2197 54.4255 47.9729C54.4255 48.7731 54.708 49.432 55.2257 49.9498C55.7435 50.4676 56.4496 50.75 57.2968 50.75C58.2853 50.75 59.0384 50.3734 59.5562 49.6203L58.4736 49.0084C58.1912 49.3379 57.8146 49.5262 57.2968 49.5262C56.4966 49.5262 56.0259 49.1967 55.8377 48.5377H59.7445C59.7915 48.3494 59.7915 48.1611 59.7915 47.9729C59.7915 47.2197 59.5562 46.5608 59.0384 46.043C58.5677 45.4781 57.9558 45.2428 57.1556 45.2428ZM55.8377 47.5022C55.9318 47.1727 56.073 46.8903 56.3084 46.749C56.5437 46.5608 56.8261 46.4666 57.2027 46.4666C57.4851 46.4666 57.7675 46.5608 58.0029 46.749C58.2382 46.9373 58.3794 47.1727 58.4736 47.5492H55.8377V47.5022Z" fill="#B4BACC"/>
<path fill-rule="evenodd" clip-rule="evenodd" d="M3.82499 45.1957C3.11894 45.1957 2.55409 45.431 2.13046 45.9488V43.2658H0.8125V50.5146H2.13046V49.9027C2.50702 50.4205 3.07187 50.6558 3.82499 50.6558C4.53104 50.6558 5.09588 50.3734 5.61365 49.8556C6.08435 49.3379 6.36677 48.6789 6.36677 47.9258C6.36677 47.1726 6.13142 46.5137 5.61365 45.9959C5.14295 45.4781 4.53104 45.1957 3.82499 45.1957ZM4.62518 49.0084C4.34276 49.2908 4.01327 49.432 3.58964 49.432C3.16601 49.432 2.83652 49.2908 2.55409 49.0084C2.27167 48.726 2.13046 48.3965 2.13046 47.9728C2.13046 47.5492 2.27167 47.1726 2.55409 46.9373C2.83652 46.6549 3.16601 46.5137 3.58964 46.5137C4.01327 46.5137 4.34276 46.6549 4.62518 46.9373C4.9076 47.2197 5.04881 47.5492 5.04881 47.9728C5.00174 48.3965 4.86053 48.726 4.62518 49.0084Z" fill="#B4BACC"/>
<path fill-rule="evenodd" clip-rule="evenodd" d="M11.4033 45.9959C10.9796 45.4781 10.4619 45.2428 9.70875 45.2428C9.0027 45.2428 8.43786 45.5252 7.92009 46.043C7.44939 46.5608 7.16697 47.2197 7.16697 47.9729C7.16697 48.726 7.40232 49.385 7.92009 49.9027C8.39079 50.4205 9.0027 50.7029 9.70875 50.7029C10.4148 50.7029 10.9796 50.4676 11.4033 49.9498V50.5617H12.7212V45.384H11.4033V45.9959ZM10.9796 49.0084C10.6972 49.2908 10.3677 49.432 9.9441 49.432C9.52047 49.432 9.19098 49.2908 8.90856 49.0084C8.62614 48.726 8.48493 48.3965 8.48493 47.9729C8.48493 47.5492 8.62614 47.1727 8.90856 46.9373C9.19098 46.6549 9.52047 46.5137 9.9441 46.5137C10.3677 46.5137 10.6972 46.6549 10.9796 46.9373C11.2621 47.2197 11.4033 47.5492 11.4033 47.9729C11.4033 48.3965 11.2621 48.726 10.9796 49.0084Z" fill="#B4BACC"/>
<path fill-rule="evenodd" clip-rule="evenodd" d="M17.7109 46.2312V45.384H13.804V46.6078H15.8751L13.7099 49.6674V50.5617H17.805V49.2908H15.4986L17.7109 46.2312Z" fill="#B4BACC"/>
<path fill-rule="evenodd" clip-rule="evenodd" d="M22.6059 45.9959C22.1822 45.4781 21.6645 45.2428 20.9114 45.2428C20.2053 45.2428 19.6405 45.5252 19.1227 46.043C18.652 46.5608 18.3696 47.2197 18.3696 47.9729C18.3696 48.726 18.6049 49.385 19.1227 49.9027C19.5934 50.4205 20.2053 50.7029 20.9114 50.7029C21.6174 50.7029 22.1822 50.4676 22.6059 49.9498V50.5617H23.9238V45.384H22.6059V45.9959ZM22.1822 49.0084C21.8998 49.2908 21.5703 49.432 21.1467 49.432C20.7231 49.432 20.3936 49.2908 20.1112 49.0084C19.8287 48.726 19.6875 48.3965 19.6875 47.9729C19.6875 47.5492 19.8287 47.1727 20.1112 46.9373C20.3936 46.6549 20.7231 46.5137 21.1467 46.5137C21.5703 46.5137 21.8998 46.6549 22.1822 46.9373C22.4647 47.2197 22.6059 47.5492 22.6059 47.9729C22.6059 48.3965 22.4647 48.726 22.1822 49.0084Z" fill="#B4BACC"/>
<path fill-rule="evenodd" clip-rule="evenodd" d="M29.0077 45.9959C28.5841 45.4781 28.0663 45.2428 27.3132 45.2428C26.6071 45.2428 26.0423 45.5252 25.5245 46.043C25.0538 46.5608 24.7714 47.2197 24.7714 47.9729C24.7714 48.726 25.0067 49.385 25.5245 49.9027C25.9952 50.4205 26.6071 50.7029 27.3132 50.7029C28.0192 50.7029 28.5841 50.4676 29.0077 49.9498V50.5617H30.3256V45.384H29.0077V45.9959ZM28.5841 49.0084C28.3016 49.2908 27.9721 49.432 27.5485 49.432C27.1249 49.432 26.7954 49.2908 26.513 49.0084C26.2305 48.726 26.0893 48.3965 26.0893 47.9729C26.0893 47.5492 26.2305 47.1727 26.513 46.9373C26.7954 46.6549 27.1249 46.5137 27.5485 46.5137C27.9721 46.5137 28.3016 46.6549 28.5841 46.9373C28.8665 47.2197 29.0077 47.5492 29.0077 47.9729C29.0077 48.3965 28.8665 48.726 28.5841 49.0084Z" fill="#B4BACC"/>
<path fill-rule="evenodd" clip-rule="evenodd" d="M32.7731 46.2313V45.3369H31.4081V50.5147H32.726V48.0199C32.726 47.5022 32.8673 47.1727 33.1967 46.9373C33.5262 46.702 33.9028 46.6549 34.2794 46.702V45.1957C33.9499 45.1957 33.6204 45.2899 33.338 45.4311C33.1026 45.6664 32.8672 45.9018 32.7731 46.2313Z" fill="#B4BACC"/>
<path fill-rule="evenodd" clip-rule="evenodd" d="M59.6501 45.2428C59.6501 44.8662 59.9326 44.5838 60.3091 44.5838C60.6857 44.5838 60.9681 44.8662 60.9681 45.2428C60.9681 45.6194 60.6857 45.9018 60.3091 45.9018C59.9796 45.9018 59.6501 45.6194 59.6501 45.2428ZM60.874 45.2428C60.874 44.9604 60.6386 44.725 60.3562 44.725C60.0738 44.725 59.8384 44.9604 59.8384 45.2428C59.8384 45.5723 60.0738 45.7606 60.3562 45.7606C60.6386 45.7606 60.874 45.5252 60.874 45.2428ZM60.215 45.3369V45.6193H60.0267V44.8662H60.3562C60.4974 44.8662 60.5915 44.9604 60.5915 45.1016C60.5915 45.1957 60.5445 45.2899 60.4503 45.3369L60.6386 45.6193H60.4033L60.2621 45.3369H60.215ZM60.3091 45.2428C60.4033 45.2428 60.4503 45.2428 60.4503 45.1486C60.4503 45.1016 60.4033 45.0545 60.3091 45.0545H60.215V45.2428H60.3091Z" fill="#B4BACC"/>
</g>
<defs>
<clipPath id="clip0_17400_6078">
<rect width="61.25" height="56" fill="white"/>
</clipPath>
</defs>
</svg>
