<svg width="228" height="64" viewBox="0 0 228 64" fill="none" xmlns="http://www.w3.org/2000/svg">
<path fill-rule="evenodd" clip-rule="evenodd" d="M30.8754 21.0744H9.82771C4.40016 21.0744 0 25.1832 0 30.5539C0 35.9245 4.39311 40.2784 9.82083 40.2784H34.729C32.8127 39.011 31.2339 37.2957 30.1293 35.2811H9.82083C7.18698 35.2811 5.05049 33.1693 5.05049 30.5539C5.05049 27.9431 7.18938 25.8268 9.82787 25.8268C9.82787 25.8268 14.907 25.6916 24.2967 25.6916C25.1728 25.6916 27.478 25.7076 28.6731 25.7162C28.846 24.8629 29.0979 24.0274 29.4255 23.2206C29.8126 22.2672 30.3005 21.9081 30.8754 21.0744Z" fill="white"/>
<path d="M14.059 30.554C14.059 31.822 13.0199 32.85 11.7385 32.85C10.4571 32.85 9.41797 31.822 9.41797 30.554C9.41797 29.2859 10.4569 28.2578 11.7385 28.2578C13.0199 28.2578 14.059 29.2859 14.059 30.554ZM20.7474 30.554C20.7474 31.822 19.7084 32.85 18.4268 32.85C17.1452 32.85 16.1063 31.822 16.1063 30.554C16.1063 29.2859 17.1452 28.2578 18.4268 28.2578C19.7084 28.2578 20.7474 29.2859 20.7474 30.554ZM27.4357 30.554C27.4357 31.822 26.3968 32.85 25.1152 32.85C23.8337 32.85 22.7948 31.822 22.7948 30.554C22.7948 29.2859 23.8337 28.2578 25.1152 28.2578C26.3966 28.2578 27.4357 29.2859 27.4357 30.554Z" fill="white"/>
<path fill-rule="evenodd" clip-rule="evenodd" d="M44.5008 17.2551C47.559 17.8994 50.2391 19.725 51.9582 22.335C53.6768 24.9435 54.2908 28.1271 53.6654 31.1876C53.1717 33.599 51.9343 35.7949 50.1273 37.4662L52.0533 40.4257C52.4419 40.38 52.8355 40.4439 53.1897 40.61C53.5439 40.7761 53.8447 41.0379 54.0582 41.3658L58.9915 48.9351C59.8818 50.3013 59.4939 52.1312 58.1264 53.016L57.5784 53.3706C56.2196 54.2499 54.4061 53.8634 53.5214 52.5058L48.5838 44.9303C48.3699 44.6023 48.2517 44.2212 48.2425 43.8297C48.2333 43.4382 48.3335 43.052 48.5318 42.7143L46.5853 39.7233C44.3575 40.6344 41.9049 40.8448 39.5545 40.3263C36.5024 39.6539 33.8393 37.8036 32.1443 35.178C30.4498 32.5538 29.8653 29.3646 30.5192 26.3101C30.8433 24.7988 31.4619 23.3661 32.3398 22.0939C33.2176 20.8216 34.3374 19.7348 35.6353 18.8953C38.2581 17.1997 41.445 16.6101 44.5008 17.2551ZM46.0133 35.3705C46.1035 35.2845 46.2014 35.2067 46.3056 35.1381C47.1352 34.5908 47.849 33.8855 48.406 33.0623C48.963 32.2392 49.3524 31.3144 49.552 30.3407C49.9538 28.3726 49.5585 26.3255 48.4528 24.6485C47.3428 22.964 45.6125 21.7859 43.6384 21.3704C41.666 20.9538 39.6088 21.3339 37.9155 22.4279C37.0808 22.9675 36.3606 23.6663 35.7959 24.4842C35.2313 25.3022 34.8332 26.2233 34.6246 27.1951C34.2046 29.1593 34.5808 31.2099 35.6709 32.897C36.7653 34.5916 38.4845 35.7856 40.4547 36.2193C42.2046 36.6057 44.0346 36.3647 45.6248 35.5384C45.7501 35.4733 45.88 35.4172 46.0133 35.3705Z" stroke="white" stroke-width="1.44162"/>
<path d="M215.403 24.0802C215.403 24.7279 215.384 25.3661 215.346 25.9948C215.307 26.6043 215.269 27.052 215.23 27.3377H215.432C215.757 26.8043 216.131 26.3758 216.552 26.052C216.973 25.709 217.452 25.4518 217.989 25.2804C218.525 25.109 219.091 25.0231 219.683 25.0231C220.757 25.0231 221.686 25.2232 222.47 25.6232C223.275 26.0233 223.898 26.6424 224.338 27.4806C224.779 28.2998 225 29.3762 225 30.7097V40.8254H220.949V31.5098C220.949 30.3477 220.757 29.481 220.374 28.9094C219.991 28.3379 219.387 28.0522 218.564 28.0522C217.779 28.0522 217.146 28.2617 216.667 28.6809C216.207 29.0808 215.882 29.6714 215.69 30.4525C215.499 31.2337 215.403 32.1957 215.403 33.3386V40.8254H211.381V19.1082H215.403V24.0802ZM153.399 35.2247C153.399 36.4248 153.122 37.4725 152.566 38.3679C152.03 39.2443 151.225 39.9206 150.153 40.3968C149.099 40.873 147.778 41.1112 146.188 41.1112C145.422 41.1112 144.713 41.0636 144.062 40.9683C143.411 40.8921 142.798 40.7682 142.223 40.5968C141.669 40.4258 141.13 40.2058 140.614 39.9396V36.3676C141.495 36.7486 142.443 37.1011 143.459 37.425C144.474 37.7488 145.451 37.9108 146.389 37.9108C147.079 37.9108 147.644 37.806 148.084 37.5963C148.525 37.3868 148.841 37.1011 149.032 36.7392C149.243 36.3582 149.348 35.92 149.348 35.4246C149.348 34.8722 149.205 34.4055 148.917 34.0245C148.649 33.6243 148.228 33.2624 147.653 32.9386C147.098 32.5956 146.379 32.2432 145.498 31.8814C144.879 31.6209 144.274 31.3251 143.688 30.9955C143.114 30.6527 142.606 30.2526 142.166 29.7952C141.744 29.319 141.409 28.757 141.16 28.1093C140.911 27.4426 140.787 26.6615 140.787 25.7661C140.787 24.585 141.064 23.5753 141.62 22.737C142.194 21.8989 142.98 21.2607 143.976 20.8226C144.991 20.3653 146.169 20.1367 147.51 20.1367C148.621 20.1367 149.645 20.2605 150.584 20.5083C151.522 20.7368 152.413 21.0606 153.256 21.4798L151.963 24.5375C151.178 24.1755 150.402 23.8897 149.636 23.6802C148.897 23.4717 148.133 23.3659 147.366 23.3658C146.811 23.3658 146.341 23.461 145.958 23.6515C145.575 23.842 145.288 24.1087 145.096 24.4516C144.905 24.7945 144.809 25.2041 144.809 25.6804C144.809 26.2138 144.943 26.6615 145.211 27.0235C145.479 27.3855 145.891 27.7379 146.447 28.0807C147.021 28.4045 147.759 28.7856 148.659 29.2237C149.674 29.6811 150.536 30.1669 151.244 30.6812C151.953 31.1955 152.49 31.8146 152.853 32.5385C153.217 33.2625 153.399 34.1579 153.399 35.2247Z" fill="white"/>
<path fill-rule="evenodd" clip-rule="evenodd" d="M162.145 25.0231C163.505 25.0231 164.674 25.2995 165.651 25.8519C166.627 26.4044 167.385 27.2045 167.921 28.2522C168.456 29.3 168.725 30.5668 168.725 32.0528V33.9673H159.244C159.282 35.3199 159.618 36.3677 160.25 37.1107C160.9 37.8536 161.81 38.2251 162.978 38.2251C163.936 38.2251 164.788 38.1297 165.536 37.9393C166.302 37.7298 167.087 37.4346 167.892 37.0535V40.0253C167.183 40.4064 166.427 40.6825 165.623 40.8541C164.817 41.0255 163.832 41.1112 162.662 41.1112C161.206 41.1112 159.914 40.8254 158.784 40.2539C157.654 39.6634 156.763 38.7775 156.112 37.5963C155.48 36.4153 155.164 34.9389 155.164 33.1672C155.164 31.3956 155.451 29.9097 156.026 28.7094C156.62 27.4902 157.443 26.5758 158.497 25.9661C159.55 25.3376 160.766 25.0231 162.145 25.0231ZM162.203 27.7664C161.379 27.7664 160.71 28.0712 160.192 28.6809C159.694 29.2714 159.406 30.1668 159.33 31.3671H164.961C164.961 30.6621 164.855 30.0429 164.645 29.5095C164.434 28.9761 164.128 28.557 163.726 28.2521C163.324 27.9284 162.816 27.7665 162.203 27.7664ZM182.073 26.3376C181.077 25.4422 179.632 24.9946 177.735 24.9946C176.624 24.9946 175.571 25.1279 174.575 25.3946C173.598 25.6422 172.717 25.9661 171.932 26.3663L173.167 28.9951C173.836 28.679 174.527 28.4116 175.235 28.195C175.945 27.9665 176.633 27.8522 177.305 27.8522C178.013 27.8522 178.568 28.0618 178.97 28.4808C179.392 28.8809 179.603 29.5476 179.603 30.4811V31.2526L177.074 31.3384C174.891 31.4145 173.244 31.8526 172.132 32.6529C171.022 33.453 170.466 34.6626 170.466 36.2819C170.466 37.3678 170.668 38.2726 171.07 38.9966C171.472 39.7207 172.009 40.2539 172.679 40.5968C173.369 40.9398 174.144 41.1112 175.006 41.1112C175.829 41.1112 176.529 41.0255 177.103 40.8541C177.678 40.7016 178.176 40.4444 178.597 40.0825C179.038 39.7015 179.469 39.2347 179.89 38.6822H180.034L180.809 40.8254H183.596V30.4239C183.596 28.576 183.089 27.2138 182.073 26.3376ZM175.321 34.3961C175.839 33.9008 176.749 33.6341 178.051 33.596L179.603 33.5388V34.8247C179.603 35.9678 179.305 36.8345 178.713 37.4251C178.118 37.9966 177.391 38.2824 176.529 38.2824C175.935 38.2824 175.456 38.13 175.092 37.8252C174.746 37.5204 174.575 37.0155 174.575 36.3107C174.575 35.5106 174.823 34.8723 175.321 34.3961Z" fill="white"/>
<path d="M195.158 25.023C195.427 25.023 195.704 25.0326 195.991 25.0516C196.279 25.0705 196.508 25.0992 196.681 25.1373L196.337 28.6805C196.164 28.6426 195.944 28.614 195.675 28.595C195.427 28.5569 195.148 28.5378 194.842 28.5378C194.383 28.5378 193.923 28.6235 193.463 28.7949C193.023 28.9663 192.621 29.2235 192.257 29.5665C191.893 29.9093 191.595 30.3475 191.366 30.8809C191.155 31.4143 191.049 32.062 191.049 32.8241V40.8252H187.027V25.3087H190.103L190.676 27.9663H190.878C191.165 27.4329 191.519 26.9471 191.94 26.509C192.355 26.0567 192.852 25.688 193.405 25.4229C193.952 25.1585 194.551 25.0218 195.158 25.023ZM200.54 40.2824C201.594 40.8349 202.838 41.111 204.275 41.111C205.252 41.111 206.085 41.0253 206.774 40.8539C207.457 40.6852 208.108 40.4052 208.699 40.0251V36.7961C208.122 37.1595 207.505 37.4567 206.861 37.682C206.21 37.8915 205.51 37.9963 204.764 37.9963C204.054 37.9963 203.442 37.8153 202.925 37.4533C202.427 37.0914 202.044 36.5484 201.775 35.8246C201.507 35.1007 201.373 34.1957 201.373 33.1098C201.373 32.0049 201.498 31.081 201.746 30.3381C202.015 29.5952 202.398 29.0427 202.896 28.6807C203.414 28.2996 204.054 28.1092 204.821 28.1092C205.337 28.1092 205.845 28.1854 206.343 28.3377C206.861 28.4901 207.388 28.6806 207.924 28.9093L209.102 26.0231C208.584 25.7374 207.934 25.4993 207.147 25.3087C206.362 25.1181 205.52 25.0229 204.62 25.023C203.183 25.023 201.909 25.3087 200.799 25.8802C199.707 26.4329 198.845 27.3091 198.212 28.5093C197.581 29.7094 197.264 31.2525 197.264 33.1385C197.264 34.9863 197.543 36.5009 198.099 37.682C198.672 38.844 199.486 39.7108 200.54 40.2824ZM65.7363 40.1392C66.8089 40.7869 68.14 41.1107 69.7298 41.1107C70.9365 41.1107 71.9899 40.9964 72.8901 40.7677C73.8095 40.5202 74.5852 40.2821 75.2172 40.0533V36.5672C74.4465 36.867 73.6601 37.1246 72.8613 37.3388C72.0952 37.5293 71.3291 37.6245 70.563 37.6245C69.2414 37.6245 68.255 37.2339 67.6037 36.4528C66.9716 35.6718 66.6556 34.5097 66.6556 32.9666C66.6556 32.1476 66.7322 31.2998 66.8854 30.4234C67.0566 29.5515 67.3165 28.6993 67.6612 27.8803C68.0059 27.0611 68.4368 26.3276 68.954 25.6799C69.4712 25.0321 70.0841 24.5178 70.7927 24.1368C71.5016 23.7558 72.3156 23.5653 73.2348 23.5653C74.0585 23.5653 74.8055 23.6891 75.4758 23.9368C76.1661 24.1848 76.8301 24.5007 77.4582 24.8798L79.0672 21.5365C78.2052 21.0601 77.3241 20.7077 76.4239 20.4793C75.5429 20.2315 74.4799 20.1077 73.2348 20.1077C71.76 20.1077 70.4289 20.3649 69.2414 20.8793C68.073 21.3935 67.0675 22.0983 66.2247 22.9936C65.3819 23.8701 64.6732 24.8704 64.0986 25.9943C63.5426 27.12 63.1276 28.3101 62.8633 29.5375C62.5951 30.7759 62.4609 31.9951 62.4609 33.1952C62.4609 34.8145 62.7387 36.2148 63.2942 37.3959C63.8497 38.577 64.6637 39.4914 65.7363 40.1392Z" fill="white"/>
<path fill-rule="evenodd" clip-rule="evenodd" d="M84.0574 41.1111C82.9083 41.1111 81.8932 40.8729 81.0121 40.3966C80.1501 39.9013 79.4701 39.2155 78.9722 38.3393C78.4933 37.4439 78.2539 36.377 78.2539 35.1387C78.2539 34.0719 78.3593 33.0337 78.5699 32.024C78.7997 31.0144 79.1254 30.0905 79.5469 29.2522C79.9874 28.395 80.5332 27.652 81.1844 27.0233C81.8357 26.3757 82.5923 25.8708 83.4542 25.5088C84.3352 25.1468 85.3215 24.9658 86.4133 24.9658C87.6008 24.9658 88.6159 25.2135 89.4587 25.7089C90.3206 26.1852 90.991 26.8805 91.4699 27.7948C91.9487 28.7093 92.1882 29.8047 92.1882 31.081C92.1882 32.1097 92.0828 33.1194 91.8721 34.11C91.6614 35.1006 91.3358 36.0245 90.8954 36.8818C90.474 37.7201 89.9376 38.4536 89.2863 39.0822C88.6543 39.711 87.8977 40.2062 87.0167 40.568C86.1356 40.93 85.1492 41.1111 84.0574 41.1111ZM84.4023 37.8248C84.862 37.8248 85.2738 37.7105 85.6376 37.482C86.0207 37.2343 86.3655 36.9009 86.6719 36.4818C86.9784 36.0436 87.2369 35.5387 87.4476 34.9673C87.6583 34.3958 87.8211 33.7767 87.936 33.1099C88.0521 32.4303 88.1097 31.742 88.1084 31.0525C88.1084 30.5191 88.0414 30.0428 87.9073 29.6237C87.7733 29.2046 87.5626 28.8712 87.2753 28.6235C86.9879 28.3759 86.5952 28.252 86.0973 28.2519C85.5994 28.2518 85.1492 28.3947 84.747 28.6807C84.3447 28.9667 83.9904 29.3477 83.684 29.8238C83.3968 30.3 83.1477 30.8429 82.9369 31.4525C82.7413 32.0604 82.5877 32.681 82.4772 33.3099C82.3815 33.9386 82.3337 34.5482 82.3337 35.1387C82.3337 36.0151 82.5061 36.6819 82.8508 37.1391C83.1955 37.5962 83.7126 37.8248 84.4023 37.8248Z" fill="white"/>
<path d="M96.363 25.2516L93.0303 40.8253H97.0812L98.4604 34.3673C98.7285 33.1862 99.0541 32.1384 99.4372 31.2239C99.8394 30.2904 100.29 29.5665 100.787 29.0522C101.305 28.5188 101.86 28.2521 102.454 28.2521C102.952 28.2521 103.325 28.395 103.574 28.6807C103.823 28.9474 103.948 29.3665 103.948 29.9381C103.948 30.1857 103.929 30.4523 103.89 30.7381C103.852 31.0048 103.795 31.3097 103.718 31.6526L101.764 40.8253H105.844L107.711 31.8811C107.807 31.4239 107.884 30.9762 107.941 30.538C107.999 30.0999 108.027 29.6998 108.027 29.3379C108.027 28.4425 107.884 27.671 107.597 27.0233C107.309 26.3757 106.869 25.8708 106.275 25.5088C105.7 25.1468 104.973 24.9658 104.092 24.9658C103.383 24.9658 102.732 25.0992 102.138 25.366C101.563 25.6327 101.037 26.0042 100.558 26.4803C100.098 26.9566 99.6766 27.5091 99.2935 28.1377H99.2073L99.4658 25.2516H96.363ZM111.788 40.8253L110.007 25.2516H113.972L114.546 33.4528C114.565 33.7196 114.575 34.0625 114.575 34.4815C114.594 34.8816 114.604 35.3008 114.604 35.7389C114.623 36.1581 114.623 36.539 114.604 36.8818H114.747C114.862 36.539 114.996 36.1581 115.149 35.7389C115.296 35.3365 115.45 34.9363 115.609 34.5387C115.782 34.1387 115.935 33.8148 116.069 33.567L120.177 25.2516H124.487L116.155 40.8253H111.788Z" fill="white"/>
<path fill-rule="evenodd" clip-rule="evenodd" d="M125.983 40.3966C126.864 40.8729 127.879 41.1111 129.028 41.1111C130.12 41.1111 131.106 40.93 131.987 40.568C132.868 40.2062 133.625 39.711 134.257 39.0822C134.908 38.4534 135.444 37.72 135.866 36.8818C136.306 36.0245 136.632 35.1006 136.843 34.11C137.054 33.1143 137.16 32.099 137.159 31.081C137.159 29.8047 136.919 28.7093 136.44 27.7948C135.962 26.8804 135.291 26.1851 134.429 25.7089C133.587 25.2134 132.571 24.9657 131.384 24.9658C130.292 24.9658 129.306 25.1468 128.425 25.5088C127.563 25.8708 126.806 26.3757 126.155 27.0233C125.504 27.652 124.958 28.395 124.517 29.2522C124.096 30.0904 123.77 31.0143 123.541 32.024C123.33 33.0337 123.225 34.0719 123.225 35.1387C123.225 36.377 123.464 37.4439 123.943 38.3393C124.441 39.2156 125.121 39.9014 125.983 40.3966ZM130.608 37.482C130.244 37.7105 129.833 37.8248 129.373 37.8248C128.683 37.8248 128.166 37.5962 127.821 37.1391C127.477 36.6819 127.304 36.0151 127.304 35.1387C127.304 34.5482 127.352 33.9386 127.448 33.3099C127.558 32.6809 127.712 32.0603 127.908 31.4525C128.118 30.8428 128.367 30.2999 128.655 29.8238C128.961 29.3475 129.315 28.9665 129.718 28.6807C130.12 28.395 130.57 28.2521 131.068 28.2521C131.566 28.2521 131.959 28.3759 132.246 28.6235C132.533 28.8712 132.744 29.2046 132.878 29.6237C133.012 30.0428 133.079 30.5191 133.079 31.0525C133.079 31.7573 133.022 32.4431 132.907 33.1099C132.792 33.7767 132.629 34.3958 132.418 34.9673C132.208 35.5387 131.949 36.0436 131.643 36.4818C131.336 36.901 130.991 37.2344 130.608 37.482Z" fill="white"/>
</svg>
