<svg width="143" height="40" viewBox="0 0 143 40" fill="none" xmlns="http://www.w3.org/2000/svg">
<g clip-path="url(#clip0_17400_6067)">
<path fill-rule="evenodd" clip-rule="evenodd" d="M19.2971 13.1715H6.14232C2.7501 13.1715 0 15.7395 0 19.0962C0 22.4528 2.74569 25.174 6.13802 25.174H21.7057C20.5079 24.3819 19.5212 23.3098 18.8308 22.0507H6.13802C4.49186 22.0507 3.15656 20.7308 3.15656 19.0962C3.15656 17.4644 4.49336 16.1417 6.14242 16.1417C6.14242 16.1417 9.3169 16.0572 15.1854 16.0572C15.733 16.0572 17.1738 16.0672 17.9207 16.0727C18.0288 15.5393 18.1862 15.0171 18.3909 14.5129C18.6329 13.917 18.9378 13.6926 19.2971 13.1715Z" fill="#B4BACC"/>
<path d="M8.78739 19.0962C8.78739 19.8887 8.13795 20.5313 7.33705 20.5313C6.53615 20.5313 5.88672 19.8887 5.88672 19.0962C5.88672 18.3037 6.53605 17.6611 7.33705 17.6611C8.13795 17.6611 8.78739 18.3037 8.78739 19.0962ZM12.9676 19.0962C12.9676 19.8887 12.3183 20.5313 11.5173 20.5313C10.7163 20.5313 10.0669 19.8887 10.0669 19.0962C10.0669 18.3037 10.7163 17.6611 11.5173 17.6611C12.3183 17.6611 12.9676 18.3037 12.9676 19.0962ZM17.1478 19.0962C17.1478 19.8887 16.4985 20.5313 15.6975 20.5313C14.8966 20.5313 14.2472 19.8887 14.2472 19.0962C14.2472 18.3037 14.8966 17.6611 15.6975 17.6611C16.4984 17.6611 17.1478 18.3037 17.1478 19.0962Z" fill="#B4BACC"/>
<path fill-rule="evenodd" clip-rule="evenodd" d="M27.813 10.7844C29.7244 11.1871 31.3994 12.3282 32.4739 13.9594C33.548 15.5897 33.9317 17.5794 33.5409 19.4922C33.2323 20.9994 32.459 22.3718 31.3296 23.4164L32.5333 25.266C32.7762 25.2375 33.0222 25.2774 33.2436 25.3812C33.465 25.4851 33.653 25.6487 33.7863 25.8536L36.8697 30.5844C37.4261 31.4383 37.1837 32.582 36.329 33.135L35.9865 33.3567C35.1373 33.9062 34.0038 33.6646 33.4509 32.8161L30.3649 28.0814C30.2312 27.8764 30.1573 27.6382 30.1515 27.3936C30.1458 27.1489 30.2084 26.9075 30.3324 26.6964L29.1158 24.827C27.7234 25.3965 26.1905 25.528 24.7215 25.204C22.814 24.7837 21.1496 23.6273 20.0902 21.9862C19.0311 20.3461 18.6658 18.3529 19.0745 16.4438C19.2771 15.4992 19.6637 14.6038 20.2124 13.8087C20.761 13.0135 21.4609 12.3342 22.2721 11.8096C23.9113 10.7498 25.9031 10.3813 27.813 10.7844ZM28.7583 22.1066C28.8147 22.0528 28.8759 22.0042 28.941 21.9613C29.4595 21.6193 29.9056 21.1784 30.2537 20.664C30.6019 20.1495 30.8453 19.5715 30.97 18.9629C31.2211 17.7329 30.9741 16.4534 30.283 15.4053C29.5892 14.3525 28.5078 13.6162 27.274 13.3565C26.0412 13.0961 24.7555 13.3337 23.6972 14.0175C23.1755 14.3547 22.7254 14.7914 22.3724 15.3026C22.0195 15.8138 21.7708 16.3896 21.6404 16.9969C21.3779 18.2246 21.613 19.5062 22.2943 20.5606C22.9783 21.6198 24.0528 22.366 25.2842 22.6371C26.3779 22.8785 27.5216 22.7279 28.5155 22.2115C28.5938 22.1708 28.675 22.1358 28.7583 22.1066Z" stroke="#B4BACC" stroke-width="0.901015"/>
<path d="M134.627 15.0501C134.627 15.455 134.615 15.8539 134.591 16.2468C134.567 16.6277 134.543 16.9075 134.519 17.0861H134.645C134.848 16.7527 135.081 16.4849 135.345 16.2825C135.608 16.0681 135.907 15.9074 136.243 15.8003C136.578 15.6932 136.932 15.6395 137.302 15.6395C137.973 15.6395 138.553 15.7645 139.044 16.0145C139.546 16.2646 139.936 16.6515 140.211 17.1754C140.487 17.6874 140.625 18.3602 140.625 19.1936V25.5159H138.093V19.6937C138.093 18.9673 137.973 18.4256 137.733 18.0684C137.494 17.7112 137.117 17.5326 136.602 17.5326C136.112 17.5326 135.716 17.6636 135.417 17.9256C135.13 18.1755 134.926 18.5447 134.806 19.0328C134.687 19.5211 134.627 20.1223 134.627 20.8366V25.5159H132.113V11.9426H134.627V15.0501ZM95.8744 22.0155C95.8744 22.7655 95.7008 23.4204 95.3537 23.98C95.0185 24.5277 94.5158 24.9504 93.8454 25.248C93.1869 25.5457 92.3609 25.6945 91.3674 25.6945C90.8885 25.6945 90.4456 25.6648 90.0386 25.6052C89.6316 25.5576 89.2485 25.4802 88.8894 25.3731C88.5427 25.2661 88.2062 25.1287 87.8838 24.9623V22.7298C88.4345 22.9679 89.027 23.1882 89.6615 23.3906C90.2959 23.5931 90.9065 23.6943 91.4931 23.6943C91.924 23.6943 92.2772 23.6288 92.5526 23.4977C92.8279 23.3668 93.0254 23.1882 93.145 22.962C93.2768 22.7239 93.3426 22.45 93.3425 22.1404C93.3425 21.7952 93.2528 21.5035 93.0732 21.2653C92.9056 21.0152 92.6423 20.789 92.2831 20.5867C91.936 20.3723 91.487 20.152 90.9364 19.9259C90.5491 19.7631 90.1714 19.5782 89.8052 19.3722C89.4461 19.158 89.1289 18.9079 88.8535 18.6221C88.5901 18.3244 88.3806 17.9732 88.225 17.5684C88.0694 17.1516 87.9916 16.6634 87.9916 16.1038C87.9916 15.3657 88.1652 14.7346 88.5123 14.2107C88.8714 13.6868 89.3622 13.288 89.9848 13.0141C90.6192 12.7283 91.3554 12.5855 92.1933 12.5855C92.8877 12.5855 93.5282 12.6629 94.1147 12.8177C94.7012 12.9605 95.2579 13.1629 95.7847 13.4249L94.9766 15.336C94.4858 15.1097 94.001 14.9311 93.5221 14.8001C93.0606 14.6699 92.5833 14.6037 92.1036 14.6036C91.7565 14.6036 91.4632 14.6632 91.2238 14.7822C90.9843 14.9013 90.8048 15.068 90.685 15.2823C90.5653 15.4966 90.5054 15.7526 90.5054 16.0503C90.5054 16.3836 90.5892 16.6634 90.7568 16.8897C90.9244 17.116 91.1818 17.3362 91.529 17.5504C91.8881 17.7529 92.349 17.991 92.9117 18.2648C93.5461 18.5507 94.0848 18.8543 94.5277 19.1758C94.9706 19.4972 95.3059 19.8841 95.5333 20.3366C95.7607 20.7891 95.8744 21.3487 95.8744 22.0155Z" fill="#B4BACC"/>
<path fill-rule="evenodd" clip-rule="evenodd" d="M101.341 15.6394C102.191 15.6394 102.921 15.8121 103.532 16.1574C104.142 16.5027 104.615 17.0027 104.951 17.6576C105.285 18.3124 105.453 19.1042 105.453 20.033V21.2295H99.5274C99.5513 22.0749 99.7609 22.7297 100.156 23.1941C100.563 23.6584 101.131 23.8906 101.861 23.8906C102.46 23.8906 102.993 23.831 103.46 23.712C103.939 23.5811 104.429 23.3965 104.933 23.1584V25.0158C104.489 25.2539 104.017 25.4265 103.514 25.5338C103.011 25.6409 102.395 25.6944 101.664 25.6944C100.754 25.6944 99.9464 25.5158 99.2401 25.1586C98.5338 24.7895 97.9772 24.2359 97.5701 23.4977C97.1751 22.7595 96.9775 21.8368 96.9775 20.7294C96.9775 19.6222 97.1571 18.6935 97.5163 17.9433C97.8873 17.1813 98.4021 16.6098 99.0605 16.2288C99.7189 15.8359 100.479 15.6394 101.341 15.6394ZM101.377 17.3539C100.862 17.3539 100.444 17.5444 100.12 17.9255C99.8087 18.2946 99.6291 18.8542 99.5813 19.6044H103.101C103.101 19.1638 103.035 18.7767 102.903 18.4434C102.771 18.11 102.58 17.8481 102.329 17.6575C102.077 17.4552 101.76 17.354 101.377 17.3539ZM113.796 16.4609C113.173 15.9013 112.27 15.6216 111.085 15.6216C110.39 15.6216 109.732 15.7049 109.109 15.8716C108.499 16.0263 107.948 16.2288 107.458 16.4788L108.229 18.1219C108.648 17.9243 109.08 17.7572 109.522 17.6218C109.965 17.479 110.396 17.4076 110.815 17.4076C111.258 17.4076 111.605 17.5385 111.857 17.8004C112.12 18.0505 112.252 18.4672 112.252 19.0506V19.5328L110.671 19.5864C109.307 19.634 108.277 19.9078 107.583 20.408C106.889 20.908 106.542 21.6641 106.542 22.6761C106.542 23.3548 106.668 23.9203 106.919 24.3728C107.17 24.8254 107.506 25.1586 107.924 25.373C108.356 25.5873 108.84 25.6944 109.379 25.6944C109.893 25.6944 110.331 25.6409 110.689 25.5338C111.049 25.4384 111.36 25.2777 111.623 25.0515C111.899 24.8134 112.168 24.5216 112.431 24.1763H112.521L113.006 25.5158H114.748V19.0149C114.748 17.8599 114.43 17.0085 113.796 16.4609ZM109.576 21.4975C109.899 21.188 110.468 21.0213 111.282 20.9974L112.252 20.9617V21.7654C112.252 22.4798 112.066 23.0215 111.695 23.3906C111.324 23.7478 110.869 23.9264 110.331 23.9264C109.959 23.9264 109.66 23.8312 109.433 23.6407C109.217 23.4502 109.109 23.1346 109.109 22.6942C109.109 22.1941 109.265 21.7951 109.576 21.4975Z" fill="#B4BACC"/>
<path d="M121.974 15.6394C122.142 15.6394 122.315 15.6455 122.494 15.6574C122.674 15.6692 122.818 15.6871 122.926 15.7109L122.71 17.9254C122.602 17.9017 122.465 17.8839 122.297 17.872C122.142 17.8481 121.968 17.8362 121.776 17.8362C121.489 17.8362 121.202 17.8898 120.914 17.9969C120.639 18.104 120.388 18.2648 120.161 18.4791C119.933 18.6934 119.747 18.9673 119.604 19.3007C119.472 19.634 119.406 20.0389 119.406 20.5151V25.5159H116.892V15.818H118.814L119.172 17.479H119.299C119.478 17.1456 119.699 16.842 119.962 16.5682C120.222 16.2855 120.533 16.0551 120.878 15.8894C121.22 15.7242 121.594 15.6387 121.974 15.6394ZM125.337 25.1766C125.996 25.5219 126.774 25.6945 127.672 25.6945C128.283 25.6945 128.803 25.6409 129.234 25.5338C129.661 25.4284 130.067 25.2534 130.437 25.0158V22.9976C130.076 23.2248 129.691 23.4106 129.288 23.5514C128.881 23.6823 128.444 23.7478 127.977 23.7478C127.534 23.7478 127.151 23.6347 126.828 23.4084C126.517 23.1822 126.277 22.8429 126.109 22.3904C125.942 21.938 125.858 21.3724 125.858 20.6937C125.858 20.0032 125.936 19.4257 126.091 18.9614C126.259 18.4971 126.499 18.1518 126.81 17.9255C127.133 17.6874 127.534 17.5683 128.013 17.5683C128.336 17.5683 128.653 17.616 128.964 17.7112C129.288 17.8064 129.617 17.9255 129.953 18.0684L130.688 16.2645C130.365 16.0859 129.959 15.9372 129.467 15.818C128.977 15.6989 128.45 15.6394 127.887 15.6394C126.989 15.6394 126.193 15.818 125.5 16.1752C124.817 16.5206 124.278 17.0683 123.883 17.8184C123.488 18.5684 123.29 19.5329 123.29 20.7117C123.29 21.8666 123.464 22.8131 123.812 23.5514C124.17 24.2776 124.679 24.8193 125.337 25.1766ZM41.0852 25.0871C41.7555 25.4919 42.5875 25.6943 43.5811 25.6943C44.3353 25.6943 44.9937 25.6228 45.5563 25.4799C46.1309 25.3252 46.6157 25.1764 47.0108 25.0334V22.8546C46.5291 23.042 46.0375 23.203 45.5383 23.3368C45.0595 23.4559 44.5807 23.5154 44.1019 23.5154C43.2759 23.5154 42.6594 23.2713 42.2523 22.7831C41.8573 22.2949 41.6597 21.5687 41.6597 20.6042C41.6597 20.0923 41.7076 19.5625 41.8034 19.0147C41.9104 18.4698 42.0728 17.9372 42.2882 17.4253C42.5037 16.9133 42.773 16.4549 43.0963 16.05C43.4195 15.6452 43.8026 15.3237 44.2455 15.0856C44.6885 14.8475 45.1973 14.7284 45.7718 14.7284C46.2866 14.7284 46.7534 14.8058 47.1724 14.9606C47.6038 15.1156 48.0188 15.313 48.4113 15.5499L49.417 13.4604C48.8782 13.1627 48.3276 12.9424 47.7649 12.7996C47.2143 12.6448 46.5499 12.5674 45.7718 12.5674C44.85 12.5674 44.018 12.7281 43.2759 13.0496C42.5456 13.3711 41.9172 13.8116 41.3904 14.3711C40.8637 14.9189 40.4208 15.5441 40.0616 16.2465C39.7141 16.9501 39.4548 17.6939 39.2896 18.461C39.1219 19.235 39.0381 19.9971 39.0381 20.7471C39.0381 21.7592 39.2117 22.6343 39.5589 23.3726C39.9061 24.1107 40.4148 24.6822 41.0852 25.0871Z" fill="#B4BACC"/>
<path fill-rule="evenodd" clip-rule="evenodd" d="M52.5354 25.6943C51.8172 25.6943 51.1827 25.5455 50.632 25.2478C50.0933 24.9382 49.6683 24.5096 49.3571 23.9619C49.0578 23.4023 48.9082 22.7355 48.9082 21.9616C48.9082 21.2948 48.974 20.6459 49.1057 20.0149C49.2494 19.3839 49.4529 18.8065 49.7163 18.2825C49.9916 17.7467 50.3328 17.2824 50.7398 16.8895C51.1468 16.4847 51.6197 16.1692 52.1584 15.9429C52.709 15.7166 53.3255 15.6035 54.0078 15.6035C54.75 15.6035 55.3845 15.7583 55.9112 16.0679C56.4499 16.3656 56.8689 16.8002 57.1682 17.3716C57.4675 17.9432 57.6171 18.6278 57.6171 19.4255C57.6171 20.0684 57.5513 20.6995 57.4196 21.3187C57.2879 21.9378 57.0844 22.5152 56.8091 23.051C56.5457 23.5749 56.2105 24.0333 55.8035 24.4263C55.4084 24.8192 54.9356 25.1288 54.385 25.3549C53.8343 25.5812 53.2178 25.6943 52.5354 25.6943ZM52.7509 23.6404C53.0383 23.6404 53.2956 23.569 53.523 23.4261C53.7625 23.2713 53.9779 23.0629 54.1694 22.801C54.361 22.5271 54.5226 22.2116 54.6543 21.8545C54.786 21.4973 54.8877 21.1103 54.9595 20.6936C55.0321 20.2688 55.0681 19.8386 55.0672 19.4077C55.0672 19.0743 55.0254 18.7767 54.9416 18.5147C54.8578 18.2527 54.7262 18.0444 54.5466 17.8896C54.367 17.7348 54.1215 17.6574 53.8103 17.6573C53.4991 17.6573 53.2178 17.7466 52.9664 17.9253C52.715 18.1041 52.4935 18.3422 52.302 18.6397C52.1225 18.9374 51.9668 19.2767 51.8351 19.6577C51.7128 20.0376 51.6168 20.4255 51.5478 20.8186C51.488 21.2115 51.4581 21.5925 51.4581 21.9616C51.4581 22.5093 51.5658 22.9261 51.7812 23.2118C51.9967 23.4975 52.3199 23.6404 52.7509 23.6404Z" fill="#B4BACC"/>
<path d="M60.2265 15.7821L58.1436 25.5157H60.6754L61.5374 21.4794C61.705 20.7413 61.9085 20.0864 62.1479 19.5148C62.3993 18.9314 62.6806 18.4789 62.9918 18.1575C63.315 17.8241 63.6622 17.6574 64.0333 17.6574C64.3446 17.6574 64.578 17.7467 64.7336 17.9253C64.8892 18.092 64.967 18.3539 64.967 18.7112C64.967 18.8659 64.9551 19.0326 64.9311 19.2112C64.9071 19.3779 64.8712 19.5684 64.8234 19.7827L63.6023 25.5157H66.1522L67.3193 19.9256C67.3792 19.6398 67.427 19.36 67.463 19.0861C67.4989 18.8123 67.5168 18.5623 67.5168 18.3361C67.5168 17.7765 67.427 17.2943 67.2475 16.8895C67.068 16.4847 66.7926 16.1692 66.4215 15.9429C66.0624 15.7166 65.6075 15.6035 65.0568 15.6035C64.6139 15.6035 64.2069 15.6869 63.8358 15.8536C63.4767 16.0203 63.1475 16.2525 62.8482 16.5501C62.5609 16.8478 62.2975 17.193 62.0581 17.5859H62.0042L62.1658 15.7821H60.2265ZM69.8672 25.5157L68.7539 15.7821H71.2319L71.591 20.9079C71.603 21.0746 71.6089 21.2889 71.6089 21.5508C71.6209 21.8009 71.6269 22.0629 71.6269 22.3367C71.6389 22.5987 71.6389 22.8368 71.6269 23.051H71.7166C71.7885 22.8368 71.8723 22.5987 71.968 22.3367C72.0599 22.0852 72.1557 21.8351 72.2554 21.5866C72.3631 21.3365 72.4588 21.1341 72.5427 20.9793L75.1105 15.7821H77.8039L72.5965 25.5157H69.8672Z" fill="#B4BACC"/>
<path fill-rule="evenodd" clip-rule="evenodd" d="M78.7394 25.2478C79.2901 25.5455 79.9245 25.6943 80.6428 25.6943C81.3252 25.6943 81.9417 25.5812 82.4923 25.3549C83.043 25.1288 83.5158 24.8192 83.9109 24.4263C84.3178 24.0333 84.653 23.5749 84.9164 23.051C85.1917 22.5152 85.3952 21.9378 85.5269 21.3187C85.659 20.6963 85.7252 20.0617 85.7244 19.4255C85.7244 18.6278 85.5748 17.9432 85.2755 17.3716C84.9763 16.8001 84.5574 16.3655 84.0186 16.0679C83.4919 15.7583 82.8574 15.6034 82.1152 15.6035C81.4329 15.6035 80.8164 15.7166 80.2657 15.9429C79.7269 16.1692 79.2541 16.4847 78.8472 16.8895C78.4401 17.2824 78.0989 17.7467 77.8236 18.2825C77.5603 18.8064 77.3568 19.3838 77.2131 20.0149C77.0814 20.6459 77.0156 21.2948 77.0156 21.9616C77.0156 22.7355 77.1653 23.4023 77.4645 23.9619C77.7758 24.5096 78.2008 24.9382 78.7394 25.2478ZM81.6304 23.4261C81.403 23.569 81.1456 23.6404 80.8583 23.6404C80.4273 23.6404 80.1041 23.4975 79.8887 23.2118C79.6731 22.9261 79.5653 22.5093 79.5654 21.9616C79.5654 21.5925 79.5953 21.2115 79.6552 20.8186C79.7241 20.4255 79.8201 20.0376 79.9425 19.6577C80.0741 19.2767 80.2297 18.9373 80.4093 18.6397C80.6009 18.3421 80.8223 18.1039 81.0737 17.9253C81.3252 17.7467 81.6065 17.6574 81.9176 17.6574C82.2289 17.6574 82.4743 17.7348 82.6539 17.8896C82.8334 18.0444 82.9651 18.2527 83.0489 18.5147C83.1328 18.7767 83.1747 19.0743 83.1747 19.4077C83.1747 19.8482 83.1388 20.2768 83.0669 20.6936C82.9951 21.1103 82.8933 21.4973 82.7616 21.8545C82.63 22.2116 82.4684 22.5271 82.2769 22.801C82.0853 23.063 81.8698 23.2714 81.6304 23.4261Z" fill="#B4BACC"/>
</g>
<defs>
<clipPath id="clip0_17400_6067">
<rect width="142.5" height="40" fill="white"/>
</clipPath>
</defs>
</svg>
