<svg width="195" height="104" viewBox="0 0 195 104" fill="none" xmlns="http://www.w3.org/2000/svg">
<g clip-path="url(#clip0_16303_9525)">
<path fill-rule="evenodd" clip-rule="evenodd" d="M195.414 33.9611L195.412 33.9656C195.448 34.0832 195.419 34.1476 195.324 34.1698C193.426 34.1777 191.525 34.1708 189.624 34.1638L189.623 34.1638C188.323 34.159 187.022 34.1543 185.723 34.1543C185.076 34.1543 184.429 34.155 183.782 34.1558H183.782H183.782C182.489 34.1572 181.198 34.1587 179.909 34.1543C175.805 34.1587 171.704 34.1572 167.605 34.1558L167.601 34.1558C165.552 34.155 163.503 34.1543 161.454 34.1543C161.419 34.1543 161.385 34.1549 161.352 34.1555C161.229 34.1578 161.109 34.1599 160.989 34.1321L160.939 34.1543C158.675 34.1587 156.416 34.1572 154.156 34.1558H154.155C153.025 34.155 151.894 34.1543 150.763 34.1543C149.401 34.1768 148.043 34.1748 146.685 34.1729H146.685C145.764 34.1715 144.844 34.1702 143.923 34.1765C143.886 34.165 143.857 34.1591 143.835 34.1546C143.806 34.1486 143.788 34.1448 143.777 34.134C143.757 34.1156 143.757 34.0768 143.757 33.9725V33.9722C143.757 33.7586 143.913 33.5787 144.086 33.4727C144.634 33.12 145.171 32.75 145.709 32.3797C146.121 32.0958 146.529 31.8064 146.951 31.5073L146.951 31.5072L146.952 31.5064C147.139 31.3736 147.329 31.2388 147.524 31.1017C147.954 30.7981 148.394 30.5059 148.833 30.2139L148.833 30.2138L148.836 30.2121L148.837 30.2117C149.071 30.056 149.305 29.9003 149.538 29.743C149.718 29.6259 149.899 29.5043 150.051 29.3521C150.024 29.297 149.998 29.2396 149.972 29.1817C149.852 28.9157 149.728 28.6395 149.441 28.5265C149.132 28.4015 148.815 28.3014 148.499 28.2014C148.42 28.1765 148.33 28.1551 148.238 28.1329C147.888 28.0494 147.494 27.9551 147.456 27.6207L147.466 27.6049C147.527 27.5135 147.593 27.4152 147.71 27.3942C148.175 27.2155 148.642 27.0401 149.109 26.8647C149.576 26.6894 150.043 26.514 150.509 26.3353C150.569 26.3211 150.628 26.3011 150.687 26.2812C150.785 26.248 150.882 26.2151 150.982 26.2109H188.13C188.422 26.2553 188.718 26.3286 188.988 26.4596C189.325 26.5843 189.662 26.7117 190 26.8394L190.001 26.8397C190.529 27.0391 191.058 27.239 191.59 27.4297C191.815 27.5919 191.548 27.9022 191.286 27.9934C191.099 28.0585 190.911 28.1199 190.722 28.1812C190.392 28.2889 190.061 28.3966 189.737 28.5242C189.121 28.7673 189.121 29.0646 189.121 29.3412C189.283 29.504 189.469 29.6264 189.657 29.7485C190.325 30.1845 190.991 30.6387 191.658 31.0995C192.167 31.4519 192.639 31.7884 193.1 32.1173C193.55 32.4383 193.99 32.752 194.444 33.066C194.546 33.1366 194.661 33.195 194.775 33.2529C195.087 33.4116 195.392 33.5669 195.414 33.9611ZM158.544 31.4924C159.336 31.6834 160.2 31.0107 160.194 30.187H160.196C160.262 29.3479 159.369 28.633 158.569 28.8217C158.153 28.9172 157.762 29.1947 157.616 29.6032C157.413 30.025 157.47 30.5445 157.724 30.9308C157.919 31.2149 158.224 31.3837 158.544 31.4924ZM179.332 31.064C179.752 31.508 180.45 31.6545 181.003 31.3481C181.629 31.0196 181.876 30.1737 181.556 29.5455C181.396 29.1814 181.034 28.9394 180.662 28.8306C180.167 28.6996 179.637 28.9105 179.303 29.2835C178.874 29.7719 178.903 30.5756 179.332 31.064ZM35.7739 40.4903C36.8284 40.3305 38.0399 40.2306 38.933 40.8899C39.4901 41.3095 39.6891 42.0665 39.6493 42.7459C39.6891 43.8626 39.1718 45.0614 38.1792 45.6386C37.3037 46.1181 36.2514 46.1581 35.2787 46.0582C34.6222 45.9783 33.9678 45.6186 33.6296 45.0214C32.8735 43.2853 33.8086 40.83 35.7761 40.4903H35.7739ZM4.2572 41.7491C4.31689 41.1497 4.85409 40.6124 5.46866 40.6324C6.99792 40.6324 8.52472 40.6346 10.0499 40.6368H10.0509H10.0518H10.0528H10.0538H10.0547H10.0557H10.0567H10.0577H10.0586H10.0591C13.1102 40.6413 16.1548 40.6457 19.1993 40.6324C19.6967 40.5924 20.2317 40.8122 20.4704 41.2518C20.7117 41.6793 20.6291 42.1361 20.5474 42.5877C20.5145 42.7693 20.4819 42.9501 20.4704 43.1277C20.448 43.2629 20.4301 43.4055 20.4119 43.5508C20.3176 44.3053 20.2138 45.1352 19.3983 45.4033C17.4349 45.462 15.4715 45.4517 13.5077 45.4413H13.5076H13.5076H13.5076H13.5075H13.5075H13.5074H13.5074H13.5074H13.5072H13.507H13.5069H13.5068H13.5066H13.5065H13.5064H13.5063H13.5061H13.506C12.1315 45.434 10.7567 45.4268 9.38159 45.4432C9.23637 46.4084 9.09529 47.3694 8.95457 48.3279L8.95448 48.3285L8.95448 48.3285L8.95448 48.3286L8.95447 48.3286L8.95447 48.3286L8.95447 48.3286L8.95446 48.3286C8.78675 49.471 8.61955 50.6099 8.44647 51.7482C8.44647 51.7881 8.45144 51.8531 8.45642 51.918C8.46139 51.9829 8.46637 52.0479 8.46637 52.0878C9.68885 52.0779 10.9108 52.0779 12.1327 52.0779H12.1334C13.3552 52.0779 14.5769 52.0779 15.7992 52.0679C16.4757 52.0279 17.1898 52.6073 17.1301 53.3244C17.0931 53.7823 17.018 54.2317 16.9425 54.6831V54.6831V54.6831V54.6831V54.6831V54.6831V54.6832V54.6832V54.6832V54.6832C16.8961 54.9606 16.8496 55.2387 16.8117 55.52C16.7322 56.0196 16.3342 56.4769 15.8169 56.5768C14.6499 56.6025 13.4759 56.5951 12.3011 56.5878H12.3011H12.301H12.301H12.301H12.3009H12.3009H12.3009H12.3008H12.3008C10.7341 56.578 9.16597 56.5682 7.61082 56.6367C7.36447 58.3323 7.09291 60.0285 6.82136 61.7246L6.82136 61.7247C6.61042 63.0422 6.3995 64.3597 6.2004 65.6768C6.14071 66.2762 5.6632 66.7935 5.06852 66.8134C3.93665 66.8334 2.80256 66.8334 1.67068 66.8134C0.93452 66.8334 0.339842 66.0142 0.538805 65.3171C1.65642 58.076 2.80591 50.8538 3.95792 43.6157L4.25499 41.7491H4.2572ZM26.4322 40.6308H26.4321C25.7684 40.625 25.1022 40.6192 24.445 40.6701H24.4428C23.9277 40.75 23.5298 41.2074 23.4701 41.7069C22.3979 48.5135 21.3434 55.298 20.2911 62.0825C20.112 63.359 20.1717 64.7954 21.045 65.8144C22.2564 67.2108 24.3035 67.4506 25.9925 67.1309C26.0581 67.1123 26.1263 67.0937 26.1962 67.0747C26.9522 66.8687 27.9054 66.609 27.96 65.6945C27.9765 65.4855 28.0049 65.2752 28.0335 65.0646C28.1085 64.5103 28.1838 63.9547 28.0396 63.419C27.8788 62.9557 27.4594 62.8228 27.0454 62.6917C26.64 62.5632 26.2396 62.4364 26.092 62.0026C25.8747 61.2641 25.9944 60.4975 26.109 59.7631L26.109 59.7631L26.109 59.763L26.109 59.763L26.109 59.763L26.109 59.7629L26.109 59.7629C26.1308 59.6231 26.1525 59.4844 26.1716 59.3474C26.5894 56.6733 27.0116 53.9993 27.4339 51.3252C27.8561 48.6512 28.2784 45.9771 28.6962 43.3031C28.7179 43.1139 28.7502 42.9251 28.7825 42.7363C28.8388 42.4066 28.8951 42.0772 28.8951 41.7468C28.8355 41.0897 28.201 40.5902 27.5643 40.6301C27.1892 40.6374 26.8112 40.6341 26.4324 40.6308H26.4324H26.4323H26.4323H26.4323H26.4322H26.4322H26.4322H26.4322ZM63.8929 41.7491C63.9526 41.1496 64.4898 40.6324 65.0844 40.6324H68.1043C68.8581 40.6124 69.4749 41.4316 69.2958 42.1487C68.9482 44.3605 68.5962 46.5718 68.2442 48.7832L68.2424 48.7944C67.8898 51.0094 67.5372 53.2245 67.189 55.4401C68.2413 55.2803 69.4351 55.0805 70.1691 54.2235C71.4004 52.8271 72.4151 51.2109 73.169 49.5148C73.2156 49.396 73.2583 49.2675 73.3021 49.1359L73.3021 49.1359L73.3021 49.1357C73.5011 48.5376 73.7208 47.877 74.4202 47.7787C75.5521 47.7388 76.7061 47.7587 77.838 47.7787C78.6139 47.7587 79.1887 48.6357 78.93 49.355C78.6316 50.4139 78.1342 51.3907 77.6191 52.3276C76.4673 54.2035 75.194 56.0595 73.5249 57.5358C73.9958 58.9531 74.5472 60.3458 75.0969 61.7343L75.097 61.7344L75.097 61.7346L75.0971 61.7346L75.0971 61.7347L75.0972 61.7348L75.0972 61.7349L75.0972 61.735C75.4068 62.517 75.7159 63.2976 76.0097 64.0806C76.061 64.235 76.1279 64.395 76.196 64.5578C76.4449 65.153 76.7101 65.787 76.2883 66.3361C75.8505 66.9301 75.1434 66.8923 74.4639 66.8561C74.1859 66.8412 73.9125 66.8266 73.6642 66.8556C73.4207 66.8284 73.1475 66.8427 72.8688 66.8574C72.1251 66.8964 71.3422 66.9375 70.9804 66.1963C70.5368 65.1643 70.1296 64.1194 69.7221 63.0737L69.7219 63.0734L69.7218 63.0732C69.2703 61.9145 68.8184 60.7551 68.3165 59.6116C67.7594 59.6316 67.1846 59.6516 66.6275 59.5916L66.4683 59.9113C66.1699 61.9071 65.8516 63.903 65.5332 65.8988C65.4138 66.3783 65.0358 66.7957 64.5207 66.8356C63.7318 66.8656 62.9304 66.8619 62.1269 66.8581H62.1267C61.8585 66.8569 61.5901 66.8556 61.3218 66.8556C60.8642 66.8556 60.4486 66.5559 60.2497 66.1563C60.0816 65.8188 60.1407 65.4401 60.199 65.0657C60.2098 64.9969 60.2205 64.9281 60.2298 64.8598C61.4611 57.1562 62.6748 49.4526 63.8862 41.7513L63.8929 41.7491ZM120.349 43.0034C119.794 42.9834 119.256 43.363 119.117 43.9225V43.918C118.847 44.7771 118.595 45.6444 118.341 46.5143L118.34 46.5179C118.223 46.9215 118.105 47.3257 117.985 47.7299C117.746 47.7608 117.502 47.7558 117.258 47.7508C116.873 47.7429 116.491 47.7351 116.137 47.8697C115.544 48.1677 115.456 48.8071 115.375 49.3926L115.375 49.3929C115.358 49.5139 115.342 49.6327 115.321 49.7457C115.308 49.8516 115.29 49.9609 115.271 50.0719C115.181 50.6101 115.085 51.1875 115.481 51.6016C115.862 52.0572 116.456 52.0308 116.98 52.0075L116.981 52.0074C117.031 52.0052 117.081 52.003 117.13 52.0012C116.93 53.8163 116.638 55.6196 116.346 57.4209L116.346 57.4216C116.115 58.8477 115.884 60.2724 115.699 61.7006C115.54 63.3768 115.779 65.3526 117.269 66.3694C118.878 67.4284 120.965 67.4284 122.774 66.9488C122.842 66.9303 122.913 66.9122 122.985 66.8937C123.602 66.7355 124.308 66.5542 124.522 65.8921C124.624 65.47 124.669 65.0407 124.714 64.6082C124.74 64.365 124.765 64.1208 124.801 63.8763C124.9 63.2791 124.525 62.6197 123.928 62.4399C123.729 62.419 123.519 62.42 123.307 62.421C122.71 62.4239 122.098 62.4269 121.701 61.9404C121.343 61.4009 121.383 60.7038 121.443 60.0844C121.592 59.1234 121.744 58.1624 121.896 57.2015C122.168 55.4876 122.439 53.7739 122.694 52.0612C123.212 52.0057 123.73 52.0118 124.252 52.018H124.252C124.67 52.0229 125.09 52.0279 125.515 52.0012C126.01 51.9235 126.448 51.5039 126.547 50.9845C126.597 50.6748 126.657 50.3706 126.716 50.0665C126.776 49.7623 126.836 49.4582 126.886 49.1485C127.005 48.4714 126.43 47.7521 125.734 47.7521C125.216 47.7387 124.69 47.7432 124.167 47.7476C123.906 47.7499 123.646 47.7521 123.388 47.7521C123.432 47.1205 123.538 46.4882 123.644 45.856L123.644 45.8559C123.728 45.3504 123.813 44.8449 123.866 44.3398C123.945 43.7027 123.43 43.0433 122.774 43.0234C122.307 43.0005 121.841 43.0038 121.379 43.0071H121.379C121.033 43.0095 120.689 43.0119 120.349 43.0034ZM107.889 50.3895C109.14 49.1329 110.652 48.0939 112.381 47.5767C113.137 47.237 114.11 47.8764 114.09 48.7133C114.005 49.3801 113.876 50.0402 113.748 50.6973L113.748 50.6975L113.748 50.6977L113.748 50.6978L113.748 50.6979L113.748 50.6981C113.665 51.1216 113.583 51.5438 113.513 51.9657C113.433 52.5052 112.975 52.9647 112.438 53.0225C110.491 53.3621 108.802 54.5388 107.451 55.9352C107.374 56.0308 107.288 56.1254 107.202 56.2213C106.909 56.5462 106.602 56.8859 106.558 57.3316C106.176 59.8819 105.778 62.434 105.38 64.9846L105.267 65.7123C105.207 66.3117 104.69 66.8889 104.075 66.8489H101.055C100.359 66.8889 99.7444 66.1896 99.824 65.4925C99.9772 64.5224 100.131 63.553 100.284 62.5839L100.285 62.579C101.004 58.0276 101.723 53.4849 102.426 48.9287C102.466 48.3692 102.864 47.832 103.438 47.772C103.99 47.7421 104.54 47.7458 105.098 47.7495H105.099H105.099H105.1H105.1H105.1C105.287 47.7508 105.475 47.7521 105.665 47.7521C106.262 47.7521 106.816 48.2915 106.816 48.9087C106.816 49.3953 106.791 49.889 106.765 50.3859C106.745 50.764 106.726 51.144 106.717 51.5239C107.014 51.3375 107.242 51.0814 107.467 50.8284C107.603 50.6748 107.739 50.5223 107.889 50.3873V50.3895ZM35.647 47.7543C34.9641 47.7356 34.2771 47.7167 33.6065 47.8542V47.8564C33.0096 48.0962 32.8504 48.7733 32.8106 49.3527C32.3828 52.0168 31.9655 54.676 31.5483 57.3351L31.5482 57.3356C31.131 59.9944 30.7137 62.6533 30.286 65.3171C30.1091 65.9764 30.6043 66.7535 31.2808 66.8334C32.1002 66.8634 32.9096 66.8596 33.7156 66.8559H33.7158H33.7169H33.7181H33.7192C33.9863 66.8546 34.2529 66.8534 34.5195 66.8534C35.134 66.8733 35.6116 66.2961 35.6712 65.7167C36.4671 60.5862 37.2806 55.4578 38.0964 50.3295C38.1138 50.1722 38.1397 50.015 38.1656 49.8573V49.8573V49.8573V49.8573V49.8572C38.2286 49.4746 38.292 49.0896 38.2357 48.6934C38.1362 48.074 37.4818 47.6744 36.865 47.7543C36.4634 47.7767 36.056 47.7655 35.647 47.7543ZM97.9135 48.1139C94.9534 47.5545 91.9314 47.1549 88.9314 47.4546C86.2477 47.7943 83.5462 49.0108 81.897 51.2265C79.6111 54.1392 78.8374 58.0509 79.3525 61.6829C79.631 63.419 80.3849 65.175 81.7975 66.2518C83.1085 67.2685 84.877 67.4084 86.4665 67.1487C88.6927 66.7091 90.5806 65.2727 92.1303 63.6765C92.1739 64.0483 92.1459 64.4194 92.1182 64.7873C92.0953 65.0917 92.0725 65.3938 92.0905 65.6923C92.1303 66.3095 92.6874 66.8889 93.302 66.849H95.3292C95.9261 66.849 96.4213 66.2895 96.4611 65.7123L96.5908 64.8922C97.4029 59.7594 98.2122 54.6438 99.0056 49.5281C99.125 48.8488 98.5878 48.1916 97.9135 48.1117V48.1139ZM92.3293 57.5136C91.5334 59.01 90.4214 60.3686 89.1702 61.5253C88.4539 62.1247 87.5409 62.7419 86.5682 62.5421C85.6132 62.3423 85.1578 61.3454 84.9389 60.4863C84.4415 58.2507 84.8991 55.8153 86.1504 53.8816C86.7075 52.9825 87.6006 52.3054 88.6352 52.0257C90.0854 51.666 91.6152 51.8458 93.0279 52.2455L93.1074 52.3254C92.9899 53.4646 92.8039 54.5952 92.6174 55.7286L92.6173 55.7289L92.6173 55.7291L92.6173 55.7292L92.6173 55.7294C92.5196 56.3229 92.4218 56.9171 92.3337 57.5136H92.3293ZM56.9555 48.9309C58.346 50.4272 58.8832 52.523 58.9031 54.5188V54.5166C59.0225 58.0309 57.9105 61.6429 55.5251 64.2559C52.6026 67.2308 48.053 67.7503 44.1378 66.991C43.9389 68.7671 43.72 70.5231 43.4017 72.2792C43.3785 72.4021 43.3598 72.5326 43.3407 72.666C43.2449 73.335 43.139 74.0751 42.4091 74.275C41.6618 74.3844 40.8948 74.3721 40.1287 74.3599H40.1284H40.1282C39.7749 74.3543 39.4218 74.3486 39.0709 74.3549C38.3171 74.3749 37.6804 73.6179 37.8595 72.8786C38.4851 68.8869 39.1162 64.8959 39.7474 60.9048L39.7475 60.9041L39.7476 60.9035C40.3787 56.9128 41.0098 52.9221 41.6353 48.9309C41.6751 48.3137 42.1902 47.7543 42.8269 47.7543H44.8541C45.4488 47.7543 46.0258 48.2915 46.0059 48.9109C46.0173 49.3007 46.0025 49.6831 45.9878 50.0628C45.9769 50.345 45.9661 50.6257 45.9661 50.9068C46.2072 50.7689 46.3955 50.5631 46.5849 50.3561C46.722 50.2062 46.8597 50.0558 47.0184 49.9299C48.7073 48.4136 50.8738 47.2748 53.1796 47.3547C54.5701 47.3347 56.0026 47.8742 56.9555 48.9309ZM51.2917 61.563C52.5628 60.2265 53.2194 58.3706 53.3388 56.5346L53.341 56.5368C53.4206 55.2003 53.341 53.7218 52.4655 52.6251C51.9482 51.9657 50.9755 51.8858 50.2593 52.2255C48.3315 53.2423 46.9786 55.0982 45.8666 56.9342C45.6273 57.9663 45.4743 59.0129 45.3211 60.0609L45.3211 60.0611C45.2196 60.7556 45.118 61.4506 44.9912 62.1424C45.0111 62.2024 45.0708 62.3223 45.1105 62.3822C47.1378 62.9194 49.6425 63.1392 51.2917 61.563ZM195.415 34.8225C195.443 34.8957 195.466 34.969 195.488 35.0423L195.485 35.0378C195.493 41.2075 195.492 47.3777 195.491 53.5479C195.49 60.8079 195.489 68.0679 195.501 75.3273C195.535 76.3749 194.894 77.181 194.494 77.4075C194.094 77.6339 193.096 77.685 192.638 77.6695C189.793 77.665 186.948 77.6665 184.105 77.668C182.685 77.6687 181.264 77.6695 179.845 77.6695C179.602 77.6638 179.36 77.6657 179.118 77.6676C178.786 77.6702 178.455 77.6728 178.123 77.6561C178.123 77.5895 178.132 77.4652 178.138 77.4075C178.288 76.5724 178.437 75.7373 178.585 74.9028C178.753 73.9582 178.921 73.0145 179.091 72.0727C179.16 71.7128 179.222 71.3511 179.284 70.9899C179.379 70.4376 179.474 69.8865 179.593 69.3443C180.406 69.3531 181.221 69.3502 182.035 69.3472C182.442 69.3457 182.849 69.3443 183.256 69.3443C183.311 69.3443 183.366 69.3449 183.421 69.3455C183.738 69.3492 184.057 69.3528 184.355 69.2355C184.686 69.1289 184.976 68.9336 185.219 68.6916C185.469 68.4429 185.672 68.1432 185.823 67.828C186.178 67.0976 186.366 66.3095 186.484 65.5147C186.579 64.8087 186.643 64.0494 186.353 63.3768C186.128 62.8506 185.562 62.5443 185.009 62.5443C184.215 62.5366 183.422 62.5377 182.63 62.5388C182.036 62.5396 181.443 62.5404 180.851 62.5376C180.951 61.925 181.063 61.3146 181.176 60.7054C181.284 60.1159 181.393 59.5274 181.49 58.9389C181.744 57.5958 182.201 56.2548 183.066 55.1737C183.386 54.7674 183.775 54.4211 184.204 54.1347C184.759 53.7639 185.383 53.4953 186.033 53.3555C186.722 53.1872 187.428 53.1846 188.134 53.1819C188.863 53.1791 189.593 53.1763 190.306 52.9914C190.527 52.927 190.755 52.8404 190.947 52.7116C191.088 52.6162 191.214 52.4963 191.301 52.3409C191.478 52.0362 191.461 51.6737 191.446 51.3285C191.442 51.2512 191.439 51.1747 191.438 51.0999C191.279 50.0853 191.088 49.0774 190.755 48.1073C190.602 47.6988 190.396 47.2903 190.056 47.0128C189.643 46.6553 189.105 46.5088 188.581 46.3845C187.781 46.2824 186.968 46.2602 186.161 46.3334C183.676 46.4511 181.173 47.0638 179.016 48.3337C176.706 49.6902 174.807 51.7348 173.608 54.1436C172.846 55.6399 172.351 57.2605 172.039 58.9034C171.951 59.3671 171.864 59.8305 171.778 60.2938C171.643 61.0127 171.508 61.7314 171.371 62.451C171.36 62.5443 171.271 62.5438 171.191 62.5434C171.164 62.5433 171.138 62.5431 171.117 62.5465L171.111 62.5465C168.374 62.5398 165.641 62.5332 162.904 62.5465C161.586 62.6752 160.266 62.8204 158.946 62.9655C158.103 63.0582 157.261 63.1509 156.42 63.2391L156.363 63.2613C156.327 63.2658 156.29 63.268 156.254 63.2724C156.122 63.2864 155.989 63.2998 155.855 63.3132C155.436 63.3554 155.016 63.3977 154.599 63.4567C154.508 63.4678 154.42 63.4789 154.329 63.4944C155.955 63.7636 157.585 64.0042 159.216 64.2449C160.194 64.3893 161.172 64.5337 162.15 64.6844C162.257 64.9109 162.326 65.1643 162.394 65.4177C162.432 65.5566 162.469 65.6955 162.513 65.8299C162.36 65.8342 162.208 65.8509 162.055 65.8677C161.968 65.8774 161.88 65.887 161.792 65.8943C161.759 65.8987 161.726 65.9032 161.693 65.9032C161.626 65.9076 161.562 65.9143 161.496 65.9187C160.813 65.97 160.131 66.0259 159.449 66.0819C158.978 66.1205 158.508 66.1591 158.036 66.1962C158.001 66.2002 157.965 66.1998 157.928 66.1995C157.841 66.1986 157.752 66.1978 157.68 66.254C159.141 66.4564 160.603 66.6665 162.069 66.8772L162.398 66.9244C162.428 66.9295 162.461 66.9315 162.496 66.9337C162.613 66.9409 162.743 66.9489 162.783 67.0776C162.799 67.1571 162.816 67.2366 162.832 67.316C162.871 67.5072 162.91 67.6981 162.957 67.8879C162.624 67.9233 162.287 67.9364 161.95 67.9495C161.59 67.9636 161.229 67.9776 160.873 68.0189C160.526 68.016 160.179 68.041 159.834 68.0661C159.655 68.079 159.477 68.092 159.299 68.101H159.292C159.184 68.1077 159.075 68.1099 158.967 68.1099C158.933 68.1099 158.899 68.111 158.865 68.1121C158.832 68.1132 158.798 68.1144 158.764 68.1144C158.748 68.1166 158.733 68.1177 158.718 68.1188C158.703 68.1199 158.688 68.121 158.673 68.1232C158.401 68.1536 158.129 68.1628 157.857 68.1719C157.552 68.182 157.248 68.1922 156.946 68.232C156.593 68.2352 156.242 68.2591 155.891 68.2829C155.514 68.3085 155.138 68.3341 154.758 68.3341C154.444 68.3789 154.127 68.3881 153.81 68.3974C153.499 68.4064 153.187 68.4155 152.876 68.4585C152.524 68.4585 152.173 68.4823 151.822 68.5062C151.471 68.5301 151.12 68.5539 150.768 68.5539C150.419 68.6031 150.069 68.6116 149.719 68.6202C149.389 68.6282 149.06 68.6362 148.731 68.6782C148.624 68.6806 148.518 68.6849 148.411 68.6891C148.216 68.697 148.021 68.7048 147.823 68.7005C147.823 68.7093 147.816 68.7382 147.81 68.7449C148.176 68.7537 148.542 68.7718 148.908 68.7899C149.458 68.8171 150.008 68.8443 150.557 68.8403C150.99 68.888 151.426 68.8953 151.862 68.9025C152.298 68.9097 152.734 68.9169 153.166 68.9646C153.354 68.9725 153.542 68.974 153.731 68.9754C154.075 68.9781 154.419 68.9808 154.758 69.0224C155.064 69.0367 155.37 69.0414 155.676 69.0461C156.176 69.0539 156.675 69.0616 157.172 69.1112C157.682 69.1112 158.189 69.135 158.697 69.1589C159.204 69.1828 159.71 69.2066 160.218 69.2066C160.735 69.2568 161.254 69.2641 161.772 69.2714C162.078 69.2757 162.385 69.28 162.69 69.2932C163.026 69.3337 163.37 69.3381 163.711 69.3425C163.856 69.3444 164.001 69.3463 164.144 69.3509C165.133 69.3543 166.123 69.3543 167.113 69.3543C168.104 69.3543 169.094 69.3543 170.082 69.3576C170.075 69.412 170.067 69.4669 170.06 69.5219C170.053 69.5768 170.046 69.6318 170.038 69.6862C169.675 71.6021 169.336 73.523 168.997 75.4414C168.882 76.0949 168.766 76.7482 168.65 77.4008C168.647 77.4192 168.644 77.4451 168.64 77.4714C168.636 77.5056 168.631 77.5406 168.628 77.5607C168.624 77.5752 168.62 77.5952 168.617 77.6153C168.613 77.6352 168.609 77.6551 168.606 77.6695C168.461 77.728 168.31 77.7246 168.16 77.7212C168.105 77.72 168.05 77.7187 167.995 77.7205H146.627C146.357 77.7494 146.112 77.7505 145.827 77.6473L145.817 77.6438C145.426 77.5026 145.022 77.3566 144.715 77.07C144.191 76.5816 143.797 75.9312 143.689 75.2163C143.695 61.8072 143.695 48.407 143.695 34.9979C143.702 34.9313 143.731 34.8802 143.775 34.8291C152.38 34.8258 160.985 34.8258 169.591 34.8258C178.197 34.8258 186.805 34.8258 195.415 34.8225ZM181.268 39.4402C181.319 39.418 181.348 39.3736 181.348 39.3225L181.352 39.3203C181.355 39.1962 181.375 39.0752 181.395 38.9548C181.422 38.7909 181.449 38.6278 181.432 38.4589C181.496 38.1015 181.503 37.7352 181.49 37.3711C181.43 37.2623 181.423 37.1313 181.423 37.007L181.366 37.0137C181.28 36.694 181.01 36.3876 180.661 36.3721C180.4 36.3499 180.072 36.3565 179.92 36.6052C179.705 36.8965 179.724 37.247 179.743 37.589C179.749 37.7109 179.756 37.8317 179.752 37.9483C179.752 37.9627 179.754 37.9827 179.755 38.0027C179.757 38.0227 179.759 38.0427 179.759 38.0571C179.759 38.3568 179.721 38.6476 179.67 38.9407C179.626 39.0273 179.604 39.1227 179.604 39.2248C179.48 39.9108 179.232 40.5902 178.899 41.2096C178.835 41.2961 178.784 41.3916 178.762 41.4937C178.543 41.8734 178.282 42.2241 178.012 42.5749C177.968 42.6126 177.93 42.6548 177.895 42.6992C177.715 42.9223 177.519 43.1128 177.319 43.3078L177.291 43.3341C177.262 43.3506 177.238 43.37 177.215 43.389C177.197 43.4033 177.18 43.4172 177.161 43.4296C176.916 43.6716 176.639 43.898 176.341 44.0801C176.32 44.0926 176.299 44.1073 176.277 44.123C176.26 44.1349 176.243 44.1475 176.224 44.16C174.364 45.3944 172.103 45.905 169.901 45.9272C168.033 45.9871 166.152 45.5853 164.465 44.775C164.436 44.7616 164.363 44.7328 164.335 44.7172C164.262 44.6781 164.189 44.6403 164.117 44.6025C163.904 44.4923 163.693 44.3826 163.499 44.2421C163.476 44.2309 163.454 44.2183 163.431 44.2053C163.395 44.1852 163.358 44.1643 163.318 44.1467C163.05 43.9868 162.794 43.8115 162.555 43.6072C162.501 43.5576 162.443 43.5151 162.385 43.4722C162.357 43.4517 162.329 43.4311 162.301 43.4096C162.038 43.1987 161.77 42.9723 161.545 42.717C161.487 42.6526 161.428 42.5927 161.37 42.535L161.37 42.5349C160.579 41.7113 159.96 40.7034 159.632 39.6089C159.377 38.8956 159.359 38.13 159.341 37.3746C159.338 37.2084 159.334 37.0428 159.327 36.8782C159.064 36.4764 158.512 36.25 158.076 36.4986C157.97 36.5754 157.918 36.6896 157.866 36.8049C157.829 36.8863 157.792 36.9683 157.736 37.0381C157.51 39.4468 158.534 41.8489 160.17 43.585C160.17 43.645 160.198 43.6805 160.249 43.7027C160.352 43.7988 160.454 43.8958 160.556 43.9927C160.742 44.1686 160.927 44.344 161.114 44.513C161.164 44.5641 161.222 44.6151 161.288 44.6595C161.507 44.8394 161.737 45.008 161.967 45.1766C162.044 45.2328 162.121 45.2889 162.197 45.3455C162.254 45.3899 162.312 45.4277 162.378 45.4632C162.49 45.5285 162.601 45.5974 162.711 45.6661C162.994 45.8426 163.276 46.0186 163.585 46.1336C163.614 46.1558 163.665 46.1914 163.693 46.2069C165.075 46.8707 166.565 47.3236 168.091 47.4701C168.259 47.4701 168.424 47.4856 168.592 47.5212C169.271 47.5605 169.947 47.5458 170.625 47.531L170.772 47.5278C173.018 47.3302 175.337 46.7819 177.212 45.4543L177.234 45.4832C177.294 45.4321 177.344 45.3899 177.402 45.3455C177.7 45.128 177.992 44.8948 178.282 44.6529C178.348 44.6018 178.419 44.5441 178.485 44.4775C178.58 44.3744 178.679 44.2736 178.779 44.1723C179.016 43.9314 179.255 43.6881 179.445 43.4052L179.489 43.4274C179.499 43.4104 179.511 43.3862 179.524 43.3615C179.54 43.3314 179.556 43.3004 179.568 43.2809C179.814 42.9456 180.039 42.5949 180.258 42.2441C180.265 42.233 180.278 42.2186 180.29 42.2041C180.303 42.1897 180.316 42.1753 180.322 42.1642L180.294 42.1353C180.303 42.1226 180.319 42.104 180.334 42.0845C180.355 42.0598 180.376 42.0338 180.389 42.0177C180.789 41.1985 181.145 40.346 181.268 39.4402Z" fill="white"/>
</g>
<defs>
<clipPath id="clip0_16303_9525">
<rect width="195" height="104" fill="white"/>
</clipPath>
</defs>
</svg>
