<svg width="106" height="40" viewBox="0 0 106 40" fill="none" xmlns="http://www.w3.org/2000/svg">
<g clip-path="url(#clip0_17400_6058)">
<path d="M31.6895 15.2158C32.746 15.2158 33.6979 15.3893 34.542 15.7334C35.383 16.0777 36.1074 16.5781 36.7061 17.2275C37.3077 17.8802 37.7657 18.6678 38.0801 19.5928C38.3944 20.5207 38.5537 21.5623 38.5537 22.7207C38.5537 23.0859 38.4273 23.364 38.1729 23.5586C37.9185 23.7501 37.5597 23.8466 37.0869 23.8467H27.8662C27.995 25.029 28.3667 25.954 28.9863 26.6064C29.7705 27.4325 30.9228 27.8427 32.4492 27.8428C32.976 27.8428 33.5721 27.7771 34.2334 27.6455C34.8948 27.5138 35.5208 27.2861 36.1104 26.96C36.5384 26.7145 36.913 26.6098 37.2393 26.6396C37.5655 26.6696 37.823 26.7858 38.0176 26.9893C38.2091 27.1929 38.3263 27.4449 38.3682 27.7383C38.41 28.0344 38.3527 28.3335 38.2002 28.6387C38.0475 28.944 37.7871 29.2081 37.4219 29.4326C36.7095 29.8786 35.8917 30.2103 34.9668 30.4229C34.042 30.6353 33.1828 30.7432 32.3896 30.7432C30.7015 30.7431 29.2496 30.4293 28.0283 29.7979C26.807 29.1662 25.8667 28.2708 25.2051 27.1123C24.5435 25.9508 24.2149 24.5797 24.2148 22.9932C24.2148 21.4485 24.5351 20.095 25.1758 18.9365C25.8193 17.7782 26.7026 16.8685 27.8311 16.207C28.9595 15.5455 30.2467 15.2158 31.6895 15.2158ZM48.2979 15.2158C49.3544 15.2158 50.3063 15.3892 51.1504 15.7334C51.9915 16.0777 52.7158 16.5781 53.3145 17.2275C53.9161 17.8802 54.3741 18.6678 54.6885 19.5928C55.0028 20.5207 55.1621 21.5623 55.1621 22.7207C55.1621 23.0859 55.0357 23.364 54.7812 23.5586C54.5269 23.7501 54.1651 23.8466 53.6953 23.8467H44.4746C44.6034 25.029 44.9721 25.954 45.5947 26.6064C46.379 27.4325 47.5313 27.8427 49.0576 27.8428C49.5844 27.8428 50.1804 27.7771 50.8418 27.6455C51.5032 27.5138 52.1292 27.2861 52.7188 26.96C53.1468 26.7145 53.5214 26.6097 53.8477 26.6396C54.1739 26.6696 54.4314 26.7858 54.626 26.9893C54.8176 27.1929 54.9346 27.4449 54.9766 27.7383C55.0183 28.0344 54.9611 28.3335 54.8086 28.6387C54.656 28.944 54.3955 29.2081 54.0303 29.4326C53.3178 29.8786 52.5001 30.2103 51.5752 30.4229C50.6503 30.6353 49.7913 30.7432 48.998 30.7432C47.3099 30.7431 45.858 30.4294 44.6367 29.7979C43.4154 29.1662 42.4751 28.2708 41.8135 27.1123C41.1519 25.9508 40.8232 24.5797 40.8232 22.9932C40.8232 21.4485 41.1436 20.095 41.7842 18.9365C42.4278 17.7783 43.3111 16.8684 44.4395 16.207C45.568 15.5455 46.855 15.2158 48.2979 15.2158ZM74.7783 8.75C75.389 8.75006 75.8621 8.91205 76.1973 9.23828C76.5323 9.56457 76.6992 10.0404 76.6992 10.6719V17.748C77.1214 17.0686 77.6763 16.5214 78.3613 16.1143C79.3073 15.5546 80.3789 15.2764 81.5791 15.2764C82.7767 15.2764 83.7643 15.5002 84.5371 15.9463C85.3118 16.3952 85.8899 17.0717 86.2793 17.9785C86.6653 18.8825 86.8593 20.0263 86.8594 21.4092V28.792C86.8593 29.4233 86.6983 29.9051 86.3721 30.2402C86.0462 30.5755 85.5786 30.7432 84.9678 30.7432C84.357 30.7431 83.884 30.5755 83.5488 30.2402C83.2138 29.905 83.046 29.4234 83.0459 28.792V21.5918C83.0459 20.4335 82.8275 19.5893 82.3906 19.0596C81.9531 18.5298 81.2763 18.2666 80.3604 18.2666C79.2412 18.2667 78.3521 18.6199 77.6904 19.3203C77.0288 20.0208 76.6992 20.952 76.6992 22.1104V28.792C76.6991 30.0938 76.0592 30.7431 74.7783 30.7432C74.1675 30.7432 73.7005 30.5754 73.374 30.2402C73.0483 29.905 72.8858 29.4235 72.8857 28.792V10.6719C72.8857 10.0402 73.0482 9.56457 73.374 9.23828C73.7005 8.91201 74.1675 8.75 74.7783 8.75ZM97.248 15.2158C98.7929 15.2158 100.137 15.5305 101.274 16.1621C102.414 16.7907 103.298 17.6853 103.93 18.8467C104.561 20.008 104.875 21.3794 104.875 22.9658C104.875 24.1662 104.699 25.2443 104.343 26.1992C103.986 27.1542 103.471 27.9718 102.801 28.6543C102.13 29.3365 101.325 29.8548 100.392 30.2109C99.4543 30.5641 98.4068 30.7432 97.248 30.7432C95.7033 30.7432 94.3597 30.4293 93.2217 29.7979C92.0817 29.1662 91.1947 28.268 90.5664 27.0977C89.9348 25.9272 89.6201 24.5495 89.6201 22.9629C89.6201 21.7626 89.7974 20.691 90.1533 19.7451C90.5099 18.7993 91.0243 17.9881 91.6953 17.3057C92.3657 16.6232 93.1706 16.1052 94.1045 15.749C95.0419 15.3958 96.0899 15.2158 97.248 15.2158ZM15.2188 15.1865C16.8892 15.1865 18.3986 15.8624 19.4912 16.958C20.5868 18.0536 21.2627 19.5661 21.2627 21.2334V29.0312C21.2626 29.9472 20.4727 30.7402 19.5537 30.7402C18.6109 30.7402 17.8448 29.9741 17.8447 29.0312V21.2061C17.8537 19.7572 16.6467 18.5864 15.2188 18.6104C13.791 18.5866 12.5878 19.7603 12.5938 21.2061V29.0312C12.5877 29.959 11.8067 30.74 10.8789 30.7402C9.95104 30.7402 9.16906 29.9592 9.16895 29.0312V21.2061C9.17791 19.7572 7.97186 18.5864 6.54395 18.6104C5.11604 18.5864 3.91296 19.7602 3.91895 21.2061V29.0312C3.91883 29.9741 3.15188 30.7402 2.20898 30.7402C1.29018 30.7401 0.500117 29.9471 0.5 29.0312V21.2334C0.5 19.563 1.17683 18.0507 2.27246 16.958C3.36807 15.8626 4.87668 15.1865 6.54395 15.1865C8.24425 15.1865 9.78323 15.89 10.8818 17.0215C11.9774 15.89 13.5156 15.1866 15.2188 15.1865ZM64.1699 15.2041C65.0646 15.2041 65.9025 15.2997 66.6865 15.4941C67.4674 15.6887 68.2284 15.9885 68.959 16.3955C69.2641 16.5571 69.4739 16.7727 69.585 17.0361C69.6954 17.2995 69.7197 17.5693 69.6602 17.8447C69.5999 18.12 69.4775 18.3656 69.2949 18.5781C69.1123 18.7936 68.8841 18.9247 68.6084 18.9756C68.3335 19.0264 68.0215 18.9702 67.6777 18.8086C67.0489 18.4853 66.444 18.2511 65.8633 18.1074C65.2857 17.9669 64.7318 17.8955 64.2021 17.8955C63.2055 17.8955 62.4692 18.0689 61.9902 18.4131C61.5143 18.7603 61.2745 19.2185 61.2744 19.7871C61.2744 20.2151 61.4187 20.5711 61.7031 20.8555C61.9874 21.1428 62.4241 21.3347 63.0137 21.4365L66.0645 22.0176C67.3845 22.2631 68.3871 22.709 69.0635 23.3496C69.7432 23.9992 70.0849 24.8732 70.085 25.9717C70.085 27.4565 69.5036 28.6207 68.3447 29.4648C67.1865 30.309 65.6388 30.7314 63.708 30.7314C62.834 30.7314 61.9093 30.6386 60.9336 30.4561C59.9578 30.2735 59.0838 29.9588 58.3115 29.5098C57.9883 29.3093 57.7577 29.0703 57.626 28.7949C57.4943 28.5196 57.4428 28.2471 57.4727 27.9717C57.5026 27.6963 57.6047 27.4565 57.7783 27.2529C57.9489 27.0524 58.1739 26.9182 58.4492 26.8584C58.7245 26.7986 59.0235 26.8492 59.3496 27.0107C60.1608 27.3969 60.9243 27.6666 61.6367 27.8193C62.3491 27.9719 63.0497 28.0469 63.7412 28.0469C64.7201 28.0469 65.4449 27.8782 65.9238 27.543C66.3994 27.2078 66.6385 26.7653 66.6387 26.2178C66.6387 25.7508 66.4803 25.3882 66.166 25.1338C65.8487 24.8823 65.3757 24.6941 64.7471 24.5713L61.6963 23.9902C60.4365 23.7449 59.4759 23.2838 58.8145 22.6016C58.1529 21.9221 57.8232 21.0415 57.8232 19.9639C57.8232 18.988 58.093 18.1441 58.6318 17.4316C59.1707 16.7222 59.9191 16.1713 60.874 15.7852C61.8319 15.399 62.9307 15.2041 64.1699 15.2041ZM97.251 18.1104C96.4997 18.1104 95.8382 18.2874 95.2695 18.6436C94.7009 18.9997 94.2571 19.5385 93.9434 20.2598C93.6289 20.9812 93.4707 21.8824 93.4707 22.96C93.4707 24.5675 93.814 25.7832 94.5059 26.6064C95.1969 27.4326 96.113 27.8427 97.251 27.8428C98.0023 27.8428 98.6637 27.6601 99.2324 27.2949C99.8011 26.9297 100.245 26.3845 100.559 25.6631C100.873 24.9417 101.031 24.0405 101.031 22.96C101.031 21.3319 100.688 20.1167 99.9961 19.3145C99.3049 18.5122 98.3884 18.1104 97.251 18.1104ZM31.8447 17.8086C30.9888 17.8086 30.2617 18.0062 29.6631 18.4043C29.0645 18.7994 28.6064 19.3588 28.2891 20.0801C28.0885 20.5441 27.9566 21.0746 27.8848 21.6523H35.3652C35.3263 20.919 35.1982 20.2836 34.9707 19.7598C34.6983 19.1314 34.2999 18.6468 33.7822 18.3115C33.2644 17.9763 32.617 17.8086 31.8447 17.8086ZM48.4531 17.8086C47.5972 17.8086 46.8701 18.0062 46.2715 18.4043C45.6699 18.7994 45.2117 19.3588 44.8975 20.0801C44.6969 20.5441 44.565 21.0746 44.4932 21.6523H51.9736C51.9348 20.919 51.8057 20.2836 51.5781 19.7598C51.3058 19.1315 50.9081 18.6467 50.3906 18.3115C49.8728 17.9763 49.2255 17.8086 48.4531 17.8086Z" fill="#B4BACC"/>
</g>
<defs>
<clipPath id="clip0_17400_6058">
<rect width="105.625" height="40" fill="white"/>
</clipPath>
</defs>
</svg>
