<svg width="24" height="24" viewBox="0 0 24 24" fill="none" xmlns="http://www.w3.org/2000/svg">
<path d="M17.5981 17.1962C19.033 18.0246 19.5246 19.8594 18.6962 21.2943C17.8677 22.7291 16.033 23.2208 14.5981 22.3923C13.1632 21.5639 12.6716 19.7291 13.5 18.2943C14.3284 16.8594 16.1632 16.3678 17.5981 17.1962ZM17.5981 17.1962L20.5981 12M20.0981 12.866L21.8301 13.866M13.3712 13.3573C12.6219 13.1251 11.8256 13 11 13C6.582 13 3 16.582 3 21C5.16655 21.5415 7.33326 21.8631 9.5 21.9646M11 10C13.2091 10 15 8.20914 15 6C15 3.79086 13.2091 2 11 2C8.79086 2 7 3.79086 7 6C7 8.20914 8.79086 10 11 10Z" stroke="#161E33" stroke-width="2" stroke-linecap="round" stroke-linejoin="round"/>
</svg>
