<svg width="24" height="24" viewBox="0 0 24 24" fill="none" xmlns="http://www.w3.org/2000/svg">
<path d="M11.2 19.6C11.2972 19.7181 11.4193 19.8133 11.5577 19.8786C11.696 19.9439 11.847 19.9777 12 19.9777C12.153 19.9777 12.304 19.9439 12.4423 19.8786C12.5807 19.8133 12.7028 19.7181 12.8 19.6L21.8 7.6C21.9114 7.45143 21.9793 7.27477 21.996 7.08981C22.0126 6.90484 21.9775 6.71889 21.8944 6.55279C21.8114 6.38668 21.6837 6.24698 21.5257 6.14935C21.3678 6.05171 21.1857 6 21 6H3C2.81429 6 2.63225 6.05171 2.47427 6.14935C2.31629 6.24698 2.18863 6.38668 2.10557 6.55279C2.02252 6.71889 1.98736 6.90484 2.00404 7.08981C2.02072 7.27477 2.08857 7.45143 2.2 7.6L11.2 19.6Z" fill="#161E33"/>
</svg>
