<svg width="24" height="24" viewBox="0 0 24 24" fill="none" xmlns="http://www.w3.org/2000/svg">
<path d="M17.447 2.10503C17.2802 2.02348 17.0942 1.98966 16.9094 2.0073C16.7246 2.02495 16.5483 2.09339 16.4 2.20503L4.4 11.205C4.2758 11.2982 4.175 11.419 4.10557 11.5578C4.03614 11.6967 4 11.8498 4 12.005C4 12.1603 4.03614 12.3134 4.10557 12.4522C4.175 12.5911 4.2758 12.7119 4.4 12.805L16.4 21.805C16.5489 21.9167 16.726 21.9846 16.9114 22.0011C17.0968 22.0176 17.2832 21.982 17.4495 21.8983C17.6157 21.8147 17.7554 21.6863 17.8526 21.5276C17.9499 21.3689 18.0009 21.1862 18 21V3.00003C18.0001 2.8142 17.9484 2.63202 17.8507 2.47393C17.753 2.31584 17.6132 2.1881 17.447 2.10503Z" fill="#161E33"/>
</svg>
