<svg width="24" height="24" viewBox="0 0 24 24" fill="none" xmlns="http://www.w3.org/2000/svg">
<path d="M12.8 4.40003C12.7028 4.28191 12.5807 4.18678 12.4423 4.12146C12.304 4.05615 12.153 4.02228 12 4.02228C11.847 4.02228 11.696 4.05615 11.5577 4.12146C11.4193 4.18678 11.2972 4.28191 11.2 4.40003L2.2 16.4C2.08857 16.5486 2.02072 16.7253 2.00404 16.9102C1.98736 17.0952 2.02252 17.2811 2.10557 17.4472C2.18863 17.6133 2.31629 17.753 2.47427 17.8507C2.63225 17.9483 2.81429 18 3 18H21C21.1857 18 21.3678 17.9483 21.5257 17.8507C21.6837 17.753 21.8114 17.6133 21.8944 17.4472C21.9775 17.2811 22.0126 17.0952 21.996 16.9102C21.9793 16.7253 21.9114 16.5486 21.8 16.4L12.8 4.40003Z" fill="#161E33"/>
</svg>
