<svg width="24" height="24" viewBox="0 0 24 24" fill="none" xmlns="http://www.w3.org/2000/svg">
<path d="M12 4V1" stroke="#161E33" stroke-width="2" stroke-linecap="round" stroke-linejoin="round"/>
<path d="M2 16C2 7.083 7.029 4 12 4C16.971 4 22 7.083 22 16C22 20.971 16.971 23 12 23C7.029 23 2 20.971 2 16Z" stroke="#161E33" stroke-width="2" stroke-linecap="round" stroke-linejoin="round"/>
<path d="M12.0001 8C8.19609 8 6.18909 10.463 6.01709 15.312C6.07809 15.907 6.34909 16.426 7.19609 16.935C8.32209 17.612 10.0731 18 12.0001 18C13.9271 18 15.6781 17.612 16.8041 16.935C17.6511 16.426 17.9211 15.907 17.9831 15.312C17.8111 10.463 15.8041 8 12.0001 8Z" stroke="#161E33" stroke-width="2" stroke-linecap="round" stroke-linejoin="round"/>
</svg>
