<svg width="24" height="24" viewBox="0 0 24 24" fill="none" xmlns="http://www.w3.org/2000/svg">
<path d="M11.999 16.5L12 17.5M12 17.5V9.50001M12 17.5L15 14.5M12 17.5L9 14.5M3 9H21M21 19V9.32456C21 9.10959 20.9653 8.89603 20.8974 8.6921L19.4558 4.36754C19.1836 3.55086 18.4193 3 17.5585 3H6.44152C5.58066 3 4.81638 3.55086 4.54415 4.36754L3.10263 8.6921C3.03466 8.89603 3 9.10959 3 9.32456V19C3 20.1046 3.89543 21 5 21H19C20.1046 21 21 20.1046 21 19Z" stroke="#161E33" stroke-width="2" stroke-linecap="round" stroke-linejoin="round"/>
</svg>
