<svg width="24" height="24" viewBox="0 0 24 24" fill="none" xmlns="http://www.w3.org/2000/svg">
<g clip-path="url(#clip0_3825_30277)">
<path d="M24 14V12H20.902C20.685 10.252 20.092 8.61097 19.2 7.21597L21.414 4.99897L19.999 3.58597L17.945 5.64297C17.585 5.27097 17.2 4.93197 16.787 4.62897C16.645 4.13497 16.426 3.68097 16.151 3.26397L17.708 1.70697L16.294 0.292969L14.743 1.84397C13.948 1.31697 13.008 0.999969 12 0.999969C10.992 0.999969 10.052 1.31697 9.258 1.84397L7.707 0.292969L6.293 1.70697L7.85 3.26397C7.575 3.67997 7.356 4.13397 7.214 4.62697C6.801 4.92997 6.416 5.27097 6.055 5.64297L4.001 3.58597L2.586 4.99897L4.8 7.21497C3.908 8.60997 3.315 10.252 3.098 12H0V14H3.022C3.11 16.164 3.758 18.154 4.806 19.782L2.586 21.999L3.999 23.414L6.054 21.362C7.406 22.755 9.115 23.682 11 23.928V8.99997H13V23.928C14.885 23.681 16.594 22.755 17.946 21.362L20.001 23.414L21.414 21.999L19.194 19.782C20.242 18.153 20.89 16.163 20.978 14H24Z" fill="#161E33"/>
</g>
<defs>
<clipPath id="clip0_3825_30277">
<rect width="24" height="24" fill="white"/>
</clipPath>
</defs>
</svg>
