<svg width="24" height="24" viewBox="0 0 24 24" fill="none" xmlns="http://www.w3.org/2000/svg">
<path d="M14 1L14.7071 0.292893L14.4142 0H14V1ZM14 7H13V8H14V7ZM20 7H21V6.58579L20.7071 6.29289L20 7ZM6 6C5.44772 6 5 6.44772 5 7C5 7.55228 5.44772 8 6 8V6ZM10 8C10.5523 8 11 7.55228 11 7C11 6.44772 10.5523 6 10 6V8ZM6 11C5.44772 11 5 11.4477 5 12C5 12.5523 5.44772 13 6 13V11ZM11 13C11.5523 13 12 12.5523 12 12C12 11.4477 11.5523 11 11 11V13ZM6 16C5.44772 16 5 16.4477 5 17C5 17.5523 5.44772 18 6 18V16ZM10 18C10.5523 18 11 17.5523 11 17C11 16.4477 10.5523 16 10 16V18ZM21.2929 22.7071C21.6834 23.0976 22.3166 23.0976 22.7071 22.7071C23.0976 22.3166 23.0976 21.6834 22.7071 21.2929L21.2929 22.7071ZM19.8281 18.4139C19.4376 18.0234 18.8044 18.0234 18.4139 18.4139C18.0234 18.8044 18.0234 19.4376 18.4139 19.8281L19.8281 18.4139ZM19 10C19 10.5523 19.4477 11 20 11C20.5523 11 21 10.5523 21 10H19ZM2 1V0C1.44772 0 1 0.447715 1 1L2 1ZM2 23H1C1 23.5523 1.44772 24 2 24V23ZM12 24C12.5523 24 13 23.5523 13 23C13 22.4477 12.5523 22 12 22V24ZM13 1V7H15V1H13ZM14 8H20V6H14V8ZM20.7071 6.29289L14.7071 0.292893L13.2929 1.70711L19.2929 7.70711L20.7071 6.29289ZM6 8H10V6H6V8ZM6 13H11V11H6V13ZM6 18H10V16H6V18ZM22.7071 21.2929L19.8281 18.4139L18.4139 19.8281L21.2929 22.7071L22.7071 21.2929ZM19 17C19 18.1046 18.1046 19 17 19V21C19.2091 21 21 19.2091 21 17H19ZM17 19C15.8954 19 15 18.1046 15 17H13C13 19.2091 14.7909 21 17 21V19ZM15 17C15 15.8954 15.8954 15 17 15V13C14.7909 13 13 14.7909 13 17H15ZM17 15C18.1046 15 19 15.8954 19 17H21C21 14.7909 19.2091 13 17 13V15ZM21 10V7H19V10H21ZM14 0H2V2H14V0ZM1 1V23H3V1H1ZM2 24H12V22H2V24Z" fill="#161E33"/>
</svg>
