<svg width="24" height="24" viewBox="0 0 24 24" fill="none" xmlns="http://www.w3.org/2000/svg">
<g clip-path="url(#clip0_7807_39667)">
<path d="M14 2V8V10L17 8H22C22.552 8 23 7.552 23 7V2C23 1.448 22.552 1 22 1H15C14.448 1 14 1.448 14 2Z" stroke="#161E33" stroke-width="2" stroke-miterlimit="10"/>
<path d="M10 11H3C1.895 11 1 11.895 1 13V21C1 22.105 1.895 23 3 23H17C18.105 23 19 22.105 19 21V13" stroke="#161E33" stroke-width="2" stroke-miterlimit="10" stroke-linecap="square"/>
<path d="M6 7V5" stroke="#161E33" stroke-width="2" stroke-miterlimit="10" stroke-linecap="square"/>
<path d="M6 5C6.55228 5 7 4.55228 7 4C7 3.44772 6.55228 3 6 3C5.44772 3 5 3.44772 5 4C5 4.55228 5.44772 5 6 5Z" fill="#161E33" stroke="#161E33" stroke-width="2" stroke-miterlimit="10" stroke-linecap="square"/>
<path d="M6.5 17C7.32843 17 8 16.3284 8 15.5C8 14.6716 7.32843 14 6.5 14C5.67157 14 5 14.6716 5 15.5C5 16.3284 5.67157 17 6.5 17Z" fill="#161E33"/>
<path d="M13.5 17C14.3284 17 15 16.3284 15 15.5C15 14.6716 14.3284 14 13.5 14C12.6716 14 12 14.6716 12 15.5C12 16.3284 12.6716 17 13.5 17Z" fill="#161E33"/>
</g>
<defs>
<clipPath id="clip0_7807_39667">
<rect width="24" height="24" fill="white"/>
</clipPath>
</defs>
</svg>
