<svg width="48" height="48" viewBox="0 0 48 48" fill="none" xmlns="http://www.w3.org/2000/svg">
<path fill-rule="evenodd" clip-rule="evenodd" d="M24 1.24854C21.0539 1.24854 18.1858 2.19477 15.818 3.94783C13.6584 5.5468 12.0193 7.73988 11.0955 10.2513C8.69815 10.2913 6.40753 11.261 4.70926 12.9592C2.97455 14.6939 2 17.0467 2 19.5C2 21.9532 2.97455 24.306 4.70926 26.0407C6.44397 27.7754 8.79675 28.75 11.25 28.75H36.75C39.2033 28.75 41.556 27.7754 43.2907 26.0407C45.0255 24.306 46 21.9532 46 19.5C46 17.0467 45.0255 14.6939 43.2907 12.9592C41.5925 11.261 39.3018 10.2913 36.9045 10.2513C35.9807 7.73989 34.3416 5.5468 32.182 3.94783C29.8142 2.19477 26.9461 1.24854 24 1.24854ZM17.0082 5.5552C19.0315 4.05713 21.4825 3.24854 24 3.24854C26.5175 3.24854 28.9685 4.05713 30.9918 5.5552C33.0152 7.05327 34.5038 9.16159 35.2385 11.5695C35.374 12.0135 35.797 12.3058 36.2602 12.2756L36.3838 12.2673C36.528 12.2574 36.6356 12.25 36.75 12.25C38.6728 12.25 40.5169 13.0138 41.8765 14.3734C43.2362 15.7331 44 17.5771 44 19.5C44 21.4228 43.2362 23.2669 41.8765 24.6265C40.5169 25.9861 38.6728 26.75 36.75 26.75H11.25C9.32718 26.75 7.48311 25.9861 6.12348 24.6265C4.76384 23.2669 4 21.4228 4 19.5C4 17.5771 4.76384 15.7331 6.12348 14.3734C7.48311 13.0138 9.32718 12.25 11.25 12.25C11.3678 12.25 11.4827 12.2579 11.6319 12.2682L11.6319 12.2682L11.7385 12.2755C12.2021 12.3064 12.6259 12.0139 12.7615 11.5695C13.4962 9.16159 14.9848 7.05327 17.0082 5.5552ZM12 30.5C12.5523 30.5 13 30.9477 13 31.5V36.75C13 37.0152 12.8947 37.2695 12.7071 37.4571L8.82812 41.3361C8.43759 41.7266 7.80443 41.7266 7.41391 41.3361C7.02338 40.9455 7.02338 40.3124 7.41391 39.9219L11 36.3357V31.5C11 30.9477 11.4477 30.5 12 30.5ZM25 31.5C25 30.9477 24.5523 30.5 24 30.5C23.4477 30.5 23 30.9477 23 31.5V39.75C23 40.3022 23.4477 40.75 24 40.75C24.5523 40.75 25 40.3022 25 39.75V31.5ZM37 31.5C37 30.9477 36.5523 30.5 36 30.5C35.4477 30.5 35 30.9477 35 31.5V36.75C35 37.0152 35.1054 37.2695 35.2929 37.4571L39.1719 41.3361C39.5624 41.7266 40.1956 41.7266 40.5861 41.3361C40.9766 40.9455 40.9766 40.3124 40.5861 39.9219L37 36.3357V31.5Z" fill="url(#paint0_linear_685_459)"/>
<path d="M6 45.75C7.65685 45.75 9 44.4069 9 42.75C9 41.0931 7.65685 39.75 6 39.75C4.34315 39.75 3 41.0931 3 42.75C3 44.4069 4.34315 45.75 6 45.75Z" stroke="#DC244C" stroke-width="2" stroke-linecap="round" stroke-linejoin="round"/>
<path d="M24 45.75C25.6569 45.75 27 44.4069 27 42.75C27 41.0931 25.6569 39.75 24 39.75C22.3431 39.75 21 41.0931 21 42.75C21 44.4069 22.3431 45.75 24 45.75Z" stroke="#DC244C" stroke-width="2" stroke-linecap="round" stroke-linejoin="round"/>
<path d="M42 45.75C43.6569 45.75 45 44.4069 45 42.75C45 41.0931 43.6569 39.75 42 39.75C40.3431 39.75 39 41.0931 39 42.75C39 44.4069 40.3431 45.75 42 45.75Z" stroke="#DC244C" stroke-width="2" stroke-linecap="round" stroke-linejoin="round"/>
<defs>
<linearGradient id="paint0_linear_685_459" x1="24" y1="-6.16671" x2="24" y2="41.629" gradientUnits="userSpaceOnUse">
<stop stop-color="white"/>
<stop offset="0.416128" stop-color="#28324D"/>
</linearGradient>
</defs>
</svg>
