<svg width="24" height="24" viewBox="0 0 24 24" fill="none" xmlns="http://www.w3.org/2000/svg">
<path fill-rule="evenodd" clip-rule="evenodd" d="M18.9573 7.00413C18.9713 7.00209 18.9853 7.00003 19 7.00003C20.0609 7.00003 21.0783 7.42145 21.8284 8.1716C22.5786 8.92174 23 9.93916 23 11C23 12.0609 22.5786 13.0783 21.8284 13.8285C21.0783 14.5786 20.0609 15 19 15L13 15V18.1707C13.8524 18.472 14.528 19.1476 14.8293 20H18C18 18.8955 18.8954 18 20 18H22C23.1046 18 24 18.8955 24 20V22C24 23.1046 23.1046 24 22 24H20C18.8954 24 18 23.1046 18 22H14.8293C14.4175 23.1652 13.3062 24 12 24C10.6938 24 9.58254 23.1652 9.17071 22H6C6 23.1046 5.10457 24 4 24H2C0.89543 24 0 23.1046 0 22V20C0 18.8955 0.895431 18 2 18H4C5.10457 18 6 18.8955 6 20H9.17071C9.47199 19.1476 10.1476 18.472 11 18.1707V15L5 15C3.93913 15 2.92172 14.5786 2.17157 13.8285C1.42143 13.0783 1 12.0609 1 11C1 9.93916 1.42143 8.92174 2.17157 8.1716C2.92172 7.42145 3.93913 7.00003 5 7.00003C5.01465 7.00003 5.02871 7.00209 5.04267 7.00413C5.05443 7.00586 5.06611 7.00757 5.078 7.00803C5.31561 5.34147 6.14651 3.81658 7.4181 2.71343C8.68969 1.61028 10.3166 1.00293 12 1.00293C13.6834 1.00293 15.3103 1.61028 16.5819 2.71343C17.8535 3.81658 18.6844 5.34147 18.922 7.00803C18.9339 7.00757 18.9456 7.00586 18.9573 7.00413Z" fill="#161E33"/>
</svg>
