<svg width="24" height="24" viewBox="0 0 24 24" fill="none" xmlns="http://www.w3.org/2000/svg">
<path d="M7.07586 7.37485C6.71586 6.94334 6.05951 6.87334 5.60924 7.21885L0.391306 11.2189C0.144001 11.4084 0 11.6959 0 11.9999C0 12.3039 0.144001 12.5909 0.391306 12.7809L5.60872 16.781C5.80124 16.9285 6.03133 17 6.25985 17C6.56612 17 6.86925 16.8715 7.07534 16.625C7.43534 16.1935 7.36229 15.5644 6.91255 15.2194L2.71358 12.0004L6.91255 8.78137C7.36229 8.43636 7.43534 7.80735 7.07534 7.37585L7.07586 7.37485Z" fill="#161E33"/>
<path d="M18.3913 7.21885C17.941 6.87334 17.2847 6.94334 16.9247 7.37485C16.5647 7.80635 16.6377 8.43536 17.0874 8.78037L21.2864 11.9994L17.0874 15.2184C16.6377 15.5634 16.5647 16.1925 16.9247 16.624C17.1308 16.871 17.4339 16.999 17.7401 16.999C17.9687 16.999 18.1988 16.9275 18.3913 16.78L23.6087 12.7799C23.856 12.5904 24 12.3029 24 11.9989C24 11.6949 23.856 11.4079 23.6087 11.2179L18.3913 7.21885Z" fill="#161E33"/>
<path d="M14.888 2.03626C14.3339 1.88976 13.7574 2.20026 13.6035 2.73227L8.38606 20.7325C8.23215 21.2645 8.55719 21.816 9.11233 21.9635C9.20572 21.988 9.29963 22 9.39198 22C9.84903 22 10.2685 21.71 10.3969 21.2675L15.6143 3.26727C15.7682 2.73527 15.4431 2.18376 14.888 2.03626Z" fill="#161E33"/>
</svg>
