<svg width="24" height="24" viewBox="0 0 24 24" fill="none" xmlns="http://www.w3.org/2000/svg">
<path d="M10 11H3C1.895 11 1 11.895 1 13V21C1 22.105 1.895 23 3 23H17C18.105 23 19 22.105 19 21V13" stroke="#161E33" stroke-width="2" stroke-miterlimit="10" stroke-linecap="square"/>
<path d="M6 7V5" stroke="#161E33" stroke-width="2" stroke-miterlimit="10" stroke-linecap="square"/>
<path d="M6 5C6.55228 5 7 4.55228 7 4C7 3.44772 6.55228 3 6 3C5.44772 3 5 3.44772 5 4C5 4.55228 5.44772 5 6 5Z" fill="#161E33" stroke="#161E33" stroke-width="2" stroke-miterlimit="10" stroke-linecap="square"/>
<path d="M6.5 18C7.32843 18 8 17.3284 8 16.5C8 15.6716 7.32843 15 6.5 15C5.67157 15 5 15.6716 5 16.5C5 17.3284 5.67157 18 6.5 18Z" fill="#161E33"/>
<path d="M13.5 18C14.3284 18 15 17.3284 15 16.5C15 15.6716 14.3284 15 13.5 15C12.6716 15 12 15.6716 12 16.5C12 17.3284 12.6716 18 13.5 18Z" fill="#161E33"/>
<path d="M15.2134 11.8934C15.7588 11.9806 16.2716 11.6093 16.3589 11.0639C16.4461 10.5186 16.0748 10.0058 15.5294 9.9185C14.9841 9.83124 14.4713 10.2026 14.384 10.7479C14.2967 11.2933 14.6681 11.8061 15.2134 11.8934Z" fill="#161E33"/>
<path d="M14.5213 3.56183C15.0587 2.34306 16.2014 1.85018 17.3532 2.09587C18.4908 2.33827 19.4573 3.14022 19.1735 4.59642C18.7702 6.66659 16.6108 6.0319 16.0474 7.97093L16.0553 7.9722" stroke="#161E33" stroke-width="2" stroke-linecap="round" stroke-linejoin="round"/>
</svg>
