<svg width="24" height="24" viewBox="0 0 24 24" fill="none" xmlns="http://www.w3.org/2000/svg">
<path d="M12 12.25C12.6904 12.25 13.25 11.6904 13.25 11C13.25 10.3096 12.6904 9.75 12 9.75C11.3096 9.75 10.75 10.3096 10.75 11C10.75 11.6904 11.3096 12.25 12 12.25Z" fill="#161E33"/>
<path d="M7.25 12.25C7.94036 12.25 8.5 11.6904 8.5 11C8.5 10.3096 7.94036 9.75 7.25 9.75C6.55964 9.75 6 10.3096 6 11C6 11.6904 6.55964 12.25 7.25 12.25Z" fill="#161E33"/>
<path d="M15.5 20.5L22.5 13.5M22 9.5V7C22 5.895 21.105 5 20 5H4C2.895 5 2 5.895 2 7V15C2 16.105 2.895 17 4 17H13M15.5 13.5L22.5 20.5" stroke="#161E33" stroke-width="2" stroke-linecap="round" stroke-linejoin="round"/>
</svg>
