<svg width="24" height="24" viewBox="0 0 24 24" fill="none" xmlns="http://www.w3.org/2000/svg">
<path fill-rule="evenodd" clip-rule="evenodd" d="M22.3528 7.05601C22.3527 6.65246 22.2664 6.29587 22.0918 5.98982C21.9204 5.68888 21.6636 5.43664 21.3192 5.23721C20.1009 4.53473 18.8821 3.83317 17.6633 3.13162C16.0382 2.19615 14.413 1.26069 12.789 0.323036C12.0229 -0.119278 11.28 -0.103153 10.5195 0.345511C9.83762 0.747675 7.5091 2.08629 5.39682 3.3006L5.39678 3.30063C4.00415 4.10122 2.70552 4.84778 2.03477 5.23629C1.33955 5.63875 1.00125 6.25468 1.00109 7.05526C1.00054 8.70349 1.00054 10.3517 1.00054 11.9999C1.00054 13.6482 1.00054 15.2964 1 16.9447C1 17.3394 1.0828 17.689 1.24965 17.9905C1.42118 18.3005 1.68152 18.5597 2.03385 18.7636C2.70229 19.1508 3.99431 19.8934 5.38154 20.6908L5.38233 20.6913L5.38249 20.6914C7.4986 21.9077 9.83595 23.2512 10.5192 23.6543C11.28 24.1032 12.0229 24.1193 12.7893 23.6768C14.4353 22.7264 16.0827 21.7782 17.7301 20.8301L17.7334 20.8282C18.9291 20.14 20.1248 19.4518 21.3201 18.7626C21.6725 18.5588 21.9328 18.2994 22.1043 17.9896C22.271 17.6882 22.3539 17.3385 22.3539 16.9438C22.3539 16.9438 22.3539 10.3526 22.3528 7.05601ZM17.8681 9.71638V10.8421H18.9938V9.71638H19.5567V10.8421H20.6824V11.405H19.5567V12.5307H20.6824V13.0936H19.5567V14.2193H18.9938V13.0936H17.8681V14.2193H17.3053V13.0936H16.1795V12.5307H17.3053V11.405H16.1795V10.8421H17.3053V9.71638H17.8681ZM18.9938 11.405H17.8681V12.5307H18.9938V11.405ZM18.6056 8.02766C17.2325 5.65736 14.6689 4.0627 11.7327 4.0627C7.34892 4.0627 3.79534 7.61637 3.79534 11.9999C3.79534 13.438 4.17792 14.7866 4.84657 15.9499C6.21623 18.3327 8.78713 19.9372 11.7327 19.9372L11.8211 19.9367C14.7232 19.9051 17.2517 18.3153 18.6097 15.9651L15.1603 13.9667C15.1658 13.9572 15.1713 13.9475 15.1767 13.9379L15.1602 13.9667L15.1603 13.9667C14.4782 15.1529 13.199 15.9523 11.7327 15.9523C10.2635 15.9523 8.98276 15.1501 8.30149 13.9608C7.97053 13.3829 7.78022 12.7137 7.78022 11.9999C7.78022 9.81712 9.54986 8.04758 11.7327 8.04758L11.7777 8.04783C13.2091 8.06385 14.4569 8.84157 15.1376 9.99403L18.5922 8.00484L18.6056 8.02766Z" fill="#161E33"/>
</svg>
