<svg width="24" height="24" viewBox="0 0 24 24" fill="none" xmlns="http://www.w3.org/2000/svg">
<path fill-rule="evenodd" clip-rule="evenodd" d="M18 1C18 0.447715 17.5523 0 17 0C16.4477 0 16 0.447715 16 1V3H8V1C8 0.447715 7.55228 0 7 0C6.44772 0 6 0.447715 6 1V3H1C0.447715 3 0 3.44772 0 4V8V22C0 22.5523 0.447715 23 1 23H23C23.5523 23 24 22.5523 24 22V8V4C24 3.44772 23.5523 3 23 3H18V1ZM22 7V5H17H7H2V7H22ZM2 9H22V21H2V9ZM5 11C4.44772 11 4 11.4477 4 12V13C4 13.5523 4.44772 14 5 14H7C7.55228 14 8 13.5523 8 13V12C8 11.4477 7.55228 11 7 11H5ZM11 11C10.4477 11 10 11.4477 10 12V13C10 13.5523 10.4477 14 11 14H13C13.5523 14 14 13.5523 14 13V12C14 11.4477 13.5523 11 13 11H11ZM4 17C4 16.4477 4.44772 16 5 16H7C7.55228 16 8 16.4477 8 17V18C8 18.5523 7.55228 19 7 19H5C4.44772 19 4 18.5523 4 18V17ZM11 16C10.4477 16 10 16.4477 10 17V18C10 18.5523 10.4477 19 11 19H13C13.5523 19 14 18.5523 14 18V17C14 16.4477 13.5523 16 13 16H11ZM16 12C16 11.4477 16.4477 11 17 11H19C19.5523 11 20 11.4477 20 12V13C20 13.5523 19.5523 14 19 14H17C16.4477 14 16 13.5523 16 13V12Z" fill="#161E33"/>
</svg>
