<svg width="24" height="24" viewBox="0 0 24 24" fill="none" xmlns="http://www.w3.org/2000/svg">
<path fill-rule="evenodd" clip-rule="evenodd" d="M18.6 4.3H19.7C20.5752 4.3 21.4146 4.64768 22.0334 5.26655C22.6523 5.88542 23 6.72479 23 7.6V8.7H1V7.6C1 6.72479 1.34768 5.88542 1.96655 5.26655C2.58542 4.64768 3.42479 4.3 4.3 4.3H5.4V2.1C5.4 1.80826 5.51589 1.52847 5.72218 1.32218C5.92847 1.11589 6.20826 1 6.5 1C6.79174 1 7.07153 1.11589 7.27782 1.32218C7.48411 1.52847 7.6 1.80826 7.6 2.1V4.3H16.4V2.1C16.4 1.80826 16.5159 1.52847 16.7222 1.32218C16.9285 1.11589 17.2083 1 17.5 1C17.7917 1 18.0715 1.11589 18.2778 1.32218C18.4841 1.52847 18.6 1.80826 18.6 2.1V4.3ZM1.96655 22.0335C1.34768 21.4146 1 20.5752 1 19.7V10.9H23V19.7C23 20.5752 22.6523 21.4146 22.0335 22.0335C21.4146 22.6523 20.5752 23 19.7 23H4.3C3.42479 23 2.58542 22.6523 1.96655 22.0335Z" fill="#161E33"/>
</svg>
