<svg width="24" height="24" viewBox="0 0 24 24" fill="none" xmlns="http://www.w3.org/2000/svg">
<g clip-path="url(#clip0_1391_8493)">
<path fill-rule="evenodd" clip-rule="evenodd" d="M12 24C18.6274 24 24 18.6274 24 12C24 5.37258 18.6274 0 12 0C5.37258 0 0 5.37258 0 12C0 18.6274 5.37258 24 12 24ZM14.5397 5C15.8404 5.21831 17.0866 5.60946 18.2601 6.14614C20.2976 9.12068 21.3083 12.4864 20.9171 16.3613C19.3607 17.4984 17.8416 18.1897 16.3589 18.6446C15.9951 18.1534 15.6676 17.6258 15.3856 17.0709C15.9223 16.8708 16.4317 16.6252 16.9229 16.3341C16.8343 16.2708 16.7502 16.2032 16.6643 16.1342C16.6267 16.104 16.5887 16.0735 16.55 16.043C13.6209 17.3984 10.409 17.3984 7.44357 16.043C7.32531 16.1431 7.19796 16.2431 7.07061 16.3341C7.56182 16.6252 8.07121 16.8708 8.6079 17.0709C8.32591 17.6258 7.99843 18.1534 7.63458 18.6446C6.15096 18.1897 4.64094 17.4984 3.07637 16.3613C2.758 13.0139 3.39475 9.62095 5.75071 6.14614C6.91595 5.60946 8.16216 5.21831 9.47202 5C9.62666 5.28199 9.81769 5.66403 9.94505 5.96422C11.3095 5.76409 12.6831 5.76409 14.0666 5.96422C14.194 5.66403 14.3759 5.28199 14.5397 5ZM7.39806 12.4954C7.39806 13.4869 8.12577 14.2965 9.01723 14.2965C9.91776 14.2965 10.6363 13.4869 10.6363 12.4954C10.6545 11.504 9.91776 10.6943 9.01723 10.6943C8.10758 10.6943 7.39806 11.504 7.39806 12.4954ZM13.3744 12.4954C13.3744 13.4869 14.103 14.2965 14.9945 14.2965C15.9041 14.2965 16.6136 13.4869 16.6136 12.4954C16.6318 11.504 15.895 10.6943 14.9945 10.6943C14.0848 10.6943 13.3744 11.504 13.3744 12.4954Z" fill="#161E33"/>
</g>
<defs>
<clipPath id="clip0_1391_8493">
<rect width="24" height="24" fill="white"/>
</clipPath>
</defs>
</svg>
