<svg width="24" height="24" viewBox="0 0 24 24" fill="none" xmlns="http://www.w3.org/2000/svg">
<g clip-path="url(#clip0_11580_60697)">
<path d="M13 6.00008V5.00008H11V6.00008H12H13ZM12 12.0001H11V13.0001H12V12.0001ZM18 13.0001H19V11.0001H18V12.0001V13.0001ZM1.97381 22.9949L2.09859 23.987L4.08296 23.7375L3.95819 22.7453L2.966 22.8701L1.97381 22.9949ZM2.237 17.0731L2.50541 16.1098L1.05724 15.7063L1.24481 17.1978L2.237 17.0731ZM7.66059 19.6224L8.62389 19.8908L9.16072 17.9642L8.19741 17.6958L7.929 18.6591L7.66059 19.6224ZM12 6.00008H11V12.0001H12H13V6.00008H12ZM12 12.0001V13.0001H18V12.0001V11.0001H12V12.0001ZM2.966 22.8701L3.95819 22.7453L3.22919 16.9483L2.237 17.0731L1.24481 17.1978L1.97381 22.9949L2.966 22.8701ZM2.237 17.0731L1.96859 18.0364L7.66059 19.6224L7.929 18.6591L8.19741 17.6958L2.50541 16.1098L2.237 17.0731ZM2.237 17.0731L1.34945 17.5338C2.7013 20.138 4.96046 22.1567 7.6998 23.2082L8.05815 22.2746L8.4165 21.341C6.13372 20.4648 4.25109 18.7826 3.12455 16.6124L2.237 17.0731ZM8.05815 22.2746L7.6998 23.2082C10.4391 24.2597 13.4688 24.271 16.2159 23.2402L15.8646 22.3039L15.5133 21.3677C13.224 22.2267 10.6993 22.2173 8.4165 21.341L8.05815 22.2746ZM15.8646 22.3039L16.2159 23.2402C18.9631 22.2093 21.2374 20.2076 22.6087 17.6136L21.7247 17.1463L20.8406 16.6789C19.6978 18.8406 17.8026 20.5086 15.5133 21.3677L15.8646 22.3039ZM21.7247 17.1463L22.6087 17.6136C23.9801 15.0196 24.3535 12.013 23.6584 9.16237L22.6869 9.39927L21.7153 9.63616C22.2946 12.0117 21.9834 14.5172 20.8406 16.6789L21.7247 17.1463ZM22.6869 9.39927L23.6584 9.16237C22.9633 6.31169 21.2478 3.81447 18.8363 2.14287L18.2666 2.96473L17.6969 3.78659C19.7065 5.17959 21.1361 7.2606 21.7153 9.63616L22.6869 9.39927ZM18.2666 2.96473L18.8363 2.14287C16.4248 0.471275 13.4845 -0.258856 10.5711 0.0905266L10.6902 1.08341L10.8093 2.0763C13.237 1.78515 15.6874 2.39359 17.6969 3.78659L18.2666 2.96473ZM10.6902 1.08341L10.5711 0.0905266C7.6578 0.439909 4.97344 1.84459 3.02558 4.03899L3.77345 4.70284L4.52132 5.36668C6.14453 3.53802 8.3815 2.36745 10.8093 2.0763L10.6902 1.08341ZM3.77345 4.70284L3.02558 4.03899C1.07772 6.23339 0.0013541 9.06541 1.19209e-07 11.9996L1 12.0001L2 12.0005C2.00113 9.55537 2.8981 7.19535 4.52132 5.36668L3.77345 4.70284Z" fill="#161E33"/>
</g>
<defs>
<clipPath id="clip0_11580_60697">
<rect width="24" height="24" fill="white"/>
</clipPath>
</defs>
</svg>
