<svg width="24" height="24" viewBox="0 0 24 24" fill="none" xmlns="http://www.w3.org/2000/svg">
<path d="M13 6H12C12 6.41661 12.2583 6.78957 12.6483 6.9361C13.0383 7.08264 13.4782 6.97203 13.7526 6.6585L13 6ZM16.5 2L17.2526 1.3415L16.5 0.481408L15.7474 1.3415L16.5 2ZM7 6V7H9V6H7ZM4.821 5H3.821V7H4.821V5ZM22 6L22.9806 6.19611L23.2198 5H22V6ZM20.3216 14.3922L21.3022 14.5883L21.3022 14.5883L20.3216 14.3922ZM5.75469 14.2828L4.76474 14.4242L4.76474 14.4242L5.75469 14.2828ZM4 2L4.98995 1.85858L4.8673 1H4V2ZM1 1H0V3H1V1ZM13.7526 6.6585L17.2526 2.6585L15.7474 1.3415L12.2474 5.3415L13.7526 6.6585ZM15.7474 2.6585L19.2474 6.6585L20.7526 5.3415L17.2526 1.3415L15.7474 2.6585ZM9 6V4.5H7V6H9ZM9 4.5C9 3.67157 9.67157 3 10.5 3V1C8.56701 1 7 2.56701 7 4.5H9ZM10.5 3C11.3284 3 12 3.67158 12 4.5H14C14 2.567 12.433 1 10.5 1V3ZM12 4.5V6H14V4.5H12ZM6 23C7.10455 23 8 22.1046 8 21H6V23ZM8 21C8 19.8954 7.10455 19 6 19V21H8ZM6 19C4.89545 19 4 19.8954 4 21H6V19ZM4 21C4 22.1046 4.89545 23 6 23V21H4ZM20 23C21.1046 23 22 22.1046 22 21H20V23ZM22 21C22 19.8954 21.1046 19 20 19V21H22ZM20 19C18.8954 19 18 19.8954 18 21H20V19ZM18 21C18 22.1046 18.8954 23 20 23V21H18ZM4.821 7H22V5H4.821V7ZM21.0194 5.80389L19.341 14.1961L21.3022 14.5883L22.9806 6.19611L21.0194 5.80389ZM19.341 14.1961C19.2475 14.6636 18.8371 15 18.3604 15V17C19.7905 17 21.0217 15.9906 21.3022 14.5883L19.341 14.1961ZM18.3604 15H7.73459V17H18.3604V15ZM7.73459 15C7.23697 15 6.81502 14.6341 6.74464 14.1414L4.76474 14.4242C4.97588 15.9021 6.24161 17 7.73459 17V15ZM6.74464 14.1414L4.98995 1.85858L3.01005 2.14142L4.76474 14.4242L6.74464 14.1414ZM4 1H1V3H4V1Z" fill="#161E33"/>
</svg>
