<svg width="24" height="24" viewBox="0 0 24 24" fill="none" xmlns="http://www.w3.org/2000/svg">
<g clip-path="url(#clip0_10455_70814)">
<path d="M16 8H8V16H16V8Z" fill="#161E33"/>
<path d="M24 9V7H21V5C21 4.46957 20.7893 3.96086 20.4142 3.58579C20.0391 3.21071 19.5304 3 19 3H17V0H15V3H13V0H11V3H9V0H7V3H5C4.46957 3 3.96086 3.21071 3.58579 3.58579C3.21071 3.96086 3 4.46957 3 5V7H0V9H3V11H0V13H3V15H0V17H3V19C3 19.5304 3.21071 20.0391 3.58579 20.4142C3.96086 20.7893 4.46957 21 5 21H7V24H9V21H11V24H13V21H15V24H17V21H19C19.5304 21 20.0391 20.7893 20.4142 20.4142C20.7893 20.0391 21 19.5304 21 19V17H24V15H21V13H24V11H21V9H24ZM18 18H6V6H18V18Z" fill="#161E33"/>
</g>
<defs>
<clipPath id="clip0_10455_70814">
<rect width="24" height="24" fill="white"/>
</clipPath>
</defs>
</svg>
