<svg width="48" height="48" viewBox="0 0 48 48" fill="none" xmlns="http://www.w3.org/2000/svg">
<path d="M38 24.6667L38 18.8643L42 15.9909L42 11.3334" stroke="url(#paint0_linear_685_461)" stroke-width="2" stroke-linecap="round" stroke-linejoin="round"/>
<path d="M41.9998 6.66683C43.2885 6.66683 44.3332 7.7115 44.3332 9.00016C44.3332 10.2888 43.2885 11.3335 41.9998 11.3335C40.7112 11.3335 39.6665 10.2888 39.6665 9.00016C39.6665 7.7115 40.7112 6.66683 41.9998 6.66683Z" stroke="url(#paint1_linear_685_461)" stroke-width="2" stroke-linecap="round" stroke-linejoin="round"/>
<path d="M8.33317 12.3334L14.1665 12.3334L14.1665 21.1667" stroke="url(#paint2_linear_685_461)" stroke-width="2" stroke-linecap="round" stroke-linejoin="round"/>
<path d="M6.00016 10.0001C4.7115 10.0001 3.66683 11.0448 3.66683 12.3334C3.66683 13.6221 4.7115 14.6667 6.00016 14.6667C7.28883 14.6667 8.3335 13.6221 8.3335 12.3334C8.3335 11.0448 7.28883 10.0001 6.00016 10.0001Z" stroke="url(#paint3_linear_685_461)" stroke-width="2" stroke-linecap="round" stroke-linejoin="round"/>
<path d="M36.75 25.6682C36.5625 25.6682 36.3787 25.6839 36.195 25.6959C35.3978 23.083 33.7824 20.7953 31.5869 19.1697C29.3914 17.5442 26.7318 16.6667 24 16.6667C21.2682 16.6667 18.6086 17.5442 16.4131 19.1697C14.2176 20.7953 12.6022 23.083 11.805 25.6959C11.625 25.6839 11.4375 25.6682 11.25 25.6682C9.06196 25.6682 6.96354 26.5374 5.41637 28.0845C3.86919 29.6317 3 31.7301 3 33.9182C3 36.1062 3.86919 38.2046 5.41637 39.7518C6.96354 41.299 9.06196 42.1682 11.25 42.1682H36.75C38.938 42.1682 41.0365 41.299 42.5836 39.7518C44.1308 38.2046 45 36.1062 45 33.9182C45 31.7301 44.1308 29.6317 42.5836 28.0845C41.0365 26.5374 38.938 25.6682 36.75 25.6682Z" stroke="url(#paint4_linear_685_461)" stroke-width="2" stroke-linecap="round" stroke-linejoin="round"/>
<path d="M24.6665 9.00008L24.6665 16.6667" stroke="url(#paint5_linear_685_461)" stroke-width="2" stroke-linecap="round" stroke-linejoin="round"/>
<path d="M24.6668 3.66683C25.9555 3.66683 27.0002 4.7115 27.0002 6.00016C27.0002 7.28883 25.9555 8.3335 24.6668 8.3335C23.3782 8.3335 22.3335 7.28883 22.3335 6.00016C22.3335 4.7115 23.3782 3.66683 24.6668 3.66683Z" stroke="url(#paint6_linear_685_461)" stroke-width="2" stroke-linecap="round" stroke-linejoin="round"/>
<path d="M30.3359 36.1714V30.2527H34.4629V31.4145H31.7665V32.6283H34.2519V33.7929H31.7665V35.0096H34.4629V36.1714H30.3359Z" fill="#DC244C"/>
<path d="M27.981 32.1862C27.9482 32.0648 27.9 31.9579 27.8365 31.8654C27.7729 31.771 27.6948 31.6911 27.6024 31.6256C27.5099 31.56 27.4039 31.5109 27.2845 31.4782C27.165 31.4435 27.034 31.4261 26.8914 31.4261C26.6043 31.4261 26.3558 31.4955 26.1458 31.6342C25.9377 31.7729 25.7768 31.9752 25.6632 32.2411C25.5495 32.5051 25.4927 32.8259 25.4927 33.2035C25.4927 33.5831 25.5476 33.9067 25.6574 34.1745C25.7672 34.4423 25.9262 34.6466 26.1342 34.7872C26.3423 34.9279 26.5947 34.9982 26.8914 34.9982C27.1535 34.9982 27.375 34.9558 27.5561 34.871C27.7392 34.7843 27.8779 34.662 27.9723 34.504C28.0667 34.346 28.1139 34.1601 28.1139 33.9462L28.3798 33.978H26.9406V32.9347H29.4924V33.7179C29.4924 34.2478 29.3797 34.7015 29.1543 35.0791C28.9308 35.4567 28.6225 35.7467 28.2295 35.949C27.8384 36.1513 27.3885 36.2525 26.8799 36.2525C26.3153 36.2525 25.8192 36.1301 25.3915 35.8854C24.9638 35.6407 24.6305 35.292 24.3916 34.8392C24.1527 34.3845 24.0332 33.8451 24.0332 33.2208C24.0332 32.7353 24.1055 32.3047 24.25 31.929C24.3945 31.5514 24.5958 31.2315 24.854 30.9695C25.1141 30.7075 25.4146 30.509 25.7557 30.3742C26.0986 30.2393 26.4676 30.1719 26.8625 30.1719C27.2055 30.1719 27.5243 30.221 27.8191 30.3193C28.1158 30.4175 28.3779 30.5562 28.6052 30.7354C28.8345 30.9146 29.0204 31.1275 29.163 31.3741C29.3055 31.6207 29.3942 31.8914 29.4289 32.1862H27.981Z" fill="#DC244C"/>
<path d="M20.3401 36.1714H18.1523V30.2527H20.3372C20.9402 30.2527 21.4595 30.3712 21.8949 30.6082C22.3323 30.8432 22.6694 31.1823 22.9064 31.6254C23.1434 32.0666 23.2619 32.5946 23.2619 33.2092C23.2619 33.8257 23.1434 34.3555 22.9064 34.7987C22.6714 35.2418 22.3352 35.5819 21.8978 35.8188C21.4604 36.0539 20.9412 36.1714 20.3401 36.1714ZM19.5829 34.9518H20.2852C20.6166 34.9518 20.8969 34.896 21.1262 34.7842C21.3574 34.6705 21.5317 34.4866 21.6493 34.2322C21.7687 33.976 21.8284 33.635 21.8284 33.2092C21.8284 32.7834 21.7687 32.4443 21.6493 32.1919C21.5298 31.9376 21.3535 31.7545 21.1204 31.6428C20.8892 31.5291 20.604 31.4723 20.2649 31.4723H19.5829V34.9518Z" fill="#DC244C"/>
<path d="M13.1294 36.1714V30.2527H17.2563V31.4145H14.5599V32.6283H17.0454V33.7929H14.5599V35.0096H17.2563V36.1714H13.1294Z" fill="#DC244C"/>
<defs>
<linearGradient id="paint0_linear_685_461" x1="43.156" y1="9.35811" x2="40.4223" y2="25.0877" gradientUnits="userSpaceOnUse">
<stop stop-color="white"/>
<stop offset="1" stop-color="#28324D"/>
</linearGradient>
<linearGradient id="paint1_linear_685_461" x1="41.9998" y1="17.2965" x2="41.9998" y2="6.66683" gradientUnits="userSpaceOnUse">
<stop stop-color="white"/>
<stop offset="1" stop-color="#28324D"/>
</linearGradient>
<linearGradient id="paint2_linear_685_461" x1="3.6665" y1="1.50008" x2="14.3332" y2="22.8334" gradientUnits="userSpaceOnUse">
<stop stop-color="white"/>
<stop offset="1" stop-color="#28324D"/>
</linearGradient>
<linearGradient id="paint3_linear_685_461" x1="6.00016" y1="20.6297" x2="6.00016" y2="10.0001" gradientUnits="userSpaceOnUse">
<stop stop-color="white"/>
<stop offset="1" stop-color="#28324D"/>
</linearGradient>
<linearGradient id="paint4_linear_685_461" x1="24" y1="-15.9184" x2="24" y2="42.1682" gradientUnits="userSpaceOnUse">
<stop stop-color="white"/>
<stop offset="1" stop-color="#28324D"/>
</linearGradient>
<linearGradient id="paint5_linear_685_461" x1="24.1665" y1="26.463" x2="24.1665" y2="9.00008" gradientUnits="userSpaceOnUse">
<stop stop-color="white"/>
<stop offset="1" stop-color="#28324D"/>
</linearGradient>
<linearGradient id="paint6_linear_685_461" x1="24.6668" y1="14.2965" x2="24.6668" y2="3.66683" gradientUnits="userSpaceOnUse">
<stop stop-color="white"/>
<stop offset="1" stop-color="#28324D"/>
</linearGradient>
</defs>
</svg>
