<svg width="24" height="24" viewBox="0 0 24 24" fill="none" xmlns="http://www.w3.org/2000/svg">
<g clip-path="url(#clip0_5218_32586)">
<path d="M12.376 0.170989C12.3279 0.119388 12.2697 0.0782379 12.205 0.050102C12.1403 0.0219661 12.0705 0.00744629 12 0.00744629C11.9294 0.00744629 11.8597 0.0219661 11.795 0.050102C11.7303 0.0782379 11.6721 0.119388 11.624 0.170989L8.12398 4.17099C8.06082 4.24327 8.0198 4.3322 8.00582 4.42716C7.99184 4.52212 8.00549 4.6191 8.04514 4.70652C8.08478 4.79393 8.14876 4.86809 8.22941 4.92013C8.31006 4.97217 8.40399 4.99989 8.49998 4.99999H11V11H4.99991V8.49998C4.99988 8.40402 4.97224 8.31009 4.92029 8.22941C4.86833 8.14873 4.79426 8.08471 4.70691 8.04498C4.61942 8.00525 4.52234 7.99158 4.42728 8.00559C4.33222 8.0196 4.24321 8.0607 4.17091 8.12398L0.170907 11.624C0.11737 11.6709 0.0744712 11.7287 0.0450814 11.7936C0.0156917 11.8584 0.000488281 11.9288 0.000488281 12C0.000488281 12.0712 0.0156917 12.1415 0.0450814 12.2064C0.0744712 12.2712 0.11737 12.3291 0.170907 12.376L4.17091 15.876C4.26195 15.9558 4.37884 15.9998 4.49991 16C4.63251 16 4.75969 15.9473 4.85346 15.8535C4.94723 15.7598 4.99991 15.6326 4.99991 15.5V13H11V19H8.49998C8.40399 19.0001 8.31006 19.0278 8.22941 19.0799C8.14876 19.1319 8.08478 19.2061 8.04514 19.2935C8.00549 19.3809 7.99184 19.4779 8.00582 19.5728C8.0198 19.6678 8.06082 19.7567 8.12398 19.829L11.624 23.829C11.6709 23.8825 11.7287 23.9254 11.7936 23.9548C11.8584 23.9842 11.9288 23.9994 12 23.9994C12.0712 23.9994 12.1415 23.9842 12.2064 23.9548C12.2712 23.9254 12.3291 23.8825 12.376 23.829L15.876 19.829C15.9391 19.7567 15.9802 19.6678 15.9941 19.5728C16.0081 19.4779 15.9945 19.3809 15.9548 19.2935C15.9152 19.2061 15.8512 19.1319 15.7705 19.0799C15.6899 19.0278 15.596 19.0001 15.5 19H13V13H19V15.5C19.0001 15.596 19.0278 15.6899 19.0799 15.7705C19.1319 15.8512 19.2061 15.9152 19.2935 15.9548C19.3809 15.9945 19.4779 16.0081 19.5728 15.9941C19.6678 15.9802 19.7567 15.9391 19.829 15.876L23.829 12.376C23.8825 12.3291 23.9254 12.2712 23.9548 12.2064C23.9842 12.1415 23.9994 12.0712 23.9994 12C23.9994 11.9288 23.9842 11.8584 23.9548 11.7936C23.9254 11.7287 23.8825 11.6709 23.829 11.624L19.829 8.12398C19.7567 8.06082 19.6678 8.0198 19.5728 8.00582C19.4779 7.99184 19.3809 8.00549 19.2935 8.04514C19.2061 8.08478 19.1319 8.14876 19.0799 8.22941C19.0278 8.31006 19.0001 8.40399 19 8.49998V11H13V4.99999H15.5C15.596 4.99989 15.6899 4.97217 15.7705 4.92013C15.8512 4.86809 15.9152 4.79393 15.9548 4.70652C15.9945 4.6191 16.0081 4.52212 15.9941 4.42716C15.9802 4.3322 15.9391 4.24327 15.876 4.17099L12.376 0.170989Z" fill="#161E33"/>
</g>
<defs>
<clipPath id="clip0_5218_32586">
<rect width="24" height="24" fill="white"/>
</clipPath>
</defs>
</svg>
