<svg width="24" height="24" viewBox="0 0 24 24" fill="none" xmlns="http://www.w3.org/2000/svg">
<g clip-path="url(#clip0_3825_30450)">
<path d="M17.3333 24H3.99998C2.93147 24 1.927 23.5839 1.17153 22.8284C0.416066 22.0729 0 21.0683 0 20V6.66666C0 5.5982 0.416113 4.59373 1.17158 3.83826C1.92705 3.0828 2.93152 2.66668 4.00002 2.66668H9.33334C10.0698 2.66668 10.6667 3.2636 10.6667 4.00002C10.6667 4.73644 10.0698 5.33336 9.33334 5.33336H3.99998C3.64381 5.33336 3.30902 5.47207 3.05722 5.72386C2.80543 5.97565 2.66668 6.31049 2.66668 6.66666V20C2.66668 20.3561 2.80539 20.6909 3.05722 20.9428C3.30902 21.1946 3.64381 21.3333 3.99998 21.3333H17.3332C17.6894 21.3333 18.0242 21.1946 18.276 20.9427C18.5278 20.6909 18.6665 20.3561 18.6665 19.9999V14.6667C18.6665 13.9302 19.2635 13.3334 19.9999 13.3334C20.7363 13.3334 21.3333 13.9303 21.3333 14.6667V20C21.3333 21.0684 20.9172 22.0729 20.1617 22.8284C19.4062 23.5839 18.4017 24 17.3333 24ZM9.33334 16C8.99208 16 8.65086 15.8698 8.39054 15.6095C7.86986 15.0888 7.86986 14.2445 8.39054 13.7238L19.4476 2.66668H14.6667C13.9302 2.66668 13.3334 2.06976 13.3334 1.33334C13.3334 0.596923 13.9302 0 14.6667 0H22.6667C22.8511 0 23.0267 0.0374474 23.1864 0.105123C23.3355 0.168187 23.4755 0.25957 23.598 0.379318L23.5981 0.379411C23.599 0.380296 23.5999 0.381134 23.6007 0.382019C23.601 0.382252 23.6013 0.382532 23.6015 0.382764C23.6022 0.383417 23.6029 0.384115 23.6036 0.384814C23.6041 0.38528 23.6045 0.385699 23.6049 0.386165C23.6054 0.386677 23.606 0.387236 23.6064 0.387655C23.6074 0.388586 23.6084 0.389565 23.6093 0.390543C23.6102 0.391474 23.6113 0.392499 23.6122 0.39343C23.6127 0.393896 23.6133 0.394502 23.6136 0.394921C23.6142 0.395387 23.6145 0.395806 23.615 0.396272C23.6157 0.39697 23.6164 0.397622 23.617 0.398368C23.6173 0.398554 23.6176 0.39888 23.6178 0.399113C23.6187 0.399998 23.6196 0.400883 23.6204 0.401768L23.6205 0.401861C23.7402 0.52445 23.8316 0.664458 23.8946 0.813502C23.9623 0.973259 23.9998 1.14885 23.9998 1.33329V9.33329C23.9998 10.0697 23.4028 10.6666 22.6664 10.6666C21.93 10.6666 21.3331 10.0697 21.3331 9.33329V4.55233L10.2759 15.6095C10.0158 15.8699 9.67456 16 9.33334 16Z" fill="#161E33"/>
</g>
<defs>
<clipPath id="clip0_3825_30450">
<rect width="24" height="24" fill="white"/>
</clipPath>
</defs>
</svg>
