<svg width="24" height="24" viewBox="0 0 24 24" fill="none" xmlns="http://www.w3.org/2000/svg">
<path d="M22.5326 9.99983H12.0321V14.4997H17.9831C17.0326 17.5 14.6831 18.5001 11.9845 18.5001C10.939 18.5013 9.90865 18.2504 8.98084 17.7686C8.05302 17.2867 7.25511 16.5882 6.65482 15.7323C6.05452 14.8763 5.66955 13.8882 5.53256 12.8517C5.39557 11.8153 5.5106 10.7611 5.86791 9.77853C6.22521 8.79601 6.81423 7.91416 7.58501 7.20782C8.35578 6.50148 9.28556 5.99147 10.2955 5.72108C11.3054 5.45069 12.3656 5.42788 13.3862 5.6546C14.4068 5.88132 15.3576 6.35087 16.1581 7.02342L19.4278 3.90675C18.1108 2.69448 16.5179 1.82191 14.7873 1.36477C13.0567 0.907633 11.2406 0.879736 9.49676 1.2835C7.75291 1.68727 6.13394 2.5105 4.78034 3.68175C3.42675 4.853 2.37943 6.33688 1.72928 8.00462C1.07913 9.67235 0.845784 11.4736 1.0495 13.2519C1.25322 15.0303 1.88784 16.732 2.8983 18.2095C3.90875 19.6871 5.2645 20.8957 6.8479 21.7305C8.4313 22.5653 10.1945 23.001 11.9845 23C18.0501 23 23.5345 18.9997 22.5326 9.99983Z" fill="#161E33"/>
</svg>
