<svg width="24" height="24" viewBox="0 0 24 24" fill="none" xmlns="http://www.w3.org/2000/svg">
<g clip-path="url(#clip0_7586_39645)">
<path d="M10.891 5.74005L9 7.00005C9 10.0001 11 11.0001 12 11.0001C13 11.0001 15 10.0001 15 7.00005L13.109 5.74005C12.437 5.29205 11.563 5.29205 10.891 5.74005Z" fill="#161E33"/>
<path d="M8.00006 12C6.76206 10.623 6.05306 8.851 6.00006 7C6.00006 5 10.0001 1 12.0001 1C14.0001 1 18.0001 5 18.0001 7C17.9471 8.851 17.2381 10.623 16.0001 12M6.75306 10.185L3.50006 12.624C3.17406 12.868 2.92906 13.206 2.80006 13.592L1.39106 17.827C1.15106 18.546 1.33806 19.338 1.87406 19.874L3.00006 21M17.2471 10.186L20.5001 12.624C20.8261 12.868 21.0711 13.206 21.2001 13.592L22.6111 17.827C22.8511 18.546 22.6641 19.338 22.1281 19.874L21.0001 21M6.00006 15H18.0001V23H6.00006V15Z" stroke="#161E33" stroke-width="2" stroke-linecap="round" stroke-linejoin="round"/>
<path d="M12 20.5C12.8284 20.5 13.5 19.8284 13.5 19C13.5 18.1716 12.8284 17.5 12 17.5C11.1716 17.5 10.5 18.1716 10.5 19C10.5 19.8284 11.1716 20.5 12 20.5Z" fill="#161E33"/>
</g>
<defs>
<clipPath id="clip0_7586_39645">
<rect width="24" height="24" fill="white"/>
</clipPath>
</defs>
</svg>
