<svg width="24" height="24" viewBox="0 0 24 24" fill="none" xmlns="http://www.w3.org/2000/svg">
<path d="M14 8.00005L11.828 10.172C11.0779 10.9219 10.0607 11.3432 9 11.3432C7.93934 11.3432 6.92211 10.9219 6.172 10.172L6 10L10.929 5.07105C12.2552 3.74519 14.0537 3.00037 15.929 3.00037C17.8043 3.00037 19.6028 3.74519 20.929 5.07105C22.0427 6.18485 22.7528 7.63848 22.9468 9.20157C23.1408 10.7647 22.8076 12.3478 22 13.7" stroke="#161E33" stroke-width="2" stroke-linecap="round" stroke-linejoin="round"/>
<path d="M15.2662 11.266L18.8792 14.879C19.4416 15.4416 19.7575 16.2045 19.7575 17C19.7575 17.7955 19.4416 18.5584 18.8792 19.121L17.2432 20.757C16.686 21.3143 16.0245 21.7563 15.2965 22.0579C14.5685 22.3595 13.7882 22.5147 13.0002 22.5147C12.2122 22.5147 11.4319 22.3595 10.7038 22.0579C9.97581 21.7563 9.31433 21.3143 8.75717 20.757L3.07117 15.071C1.74532 13.7448 1.00049 11.9463 1.00049 10.071C1.00049 8.19571 1.74532 6.3972 3.07117 5.071C4.37841 3.76011 6.14894 3.01619 8.00017 3" stroke="#161E33" stroke-width="2" stroke-linecap="round" stroke-linejoin="round"/>
<path d="M18.391 19.609L14.5 15.719" stroke="#161E33" stroke-width="2" stroke-linecap="round" stroke-linejoin="round"/>
<path d="M15.5133 21.965L11.8833 18.335" stroke="#161E33" stroke-width="2" stroke-linecap="round" stroke-linejoin="round"/>
</svg>
