<svg width="24" height="24" viewBox="0 0 24 24" fill="none" xmlns="http://www.w3.org/2000/svg">
<path d="M6.07 17.93C2.844 15.56 1.125 12 1.125 12C1.125 12 4.989 4 12 4C14.334 4 16.32 4.887 17.93 6.07" stroke="#161E33" stroke-width="2" stroke-linecap="round" stroke-linejoin="round"/>
<path d="M20.8039 8.85303C22.1659 10.531 22.8749 12 22.8749 12C22.8749 12 19.0099 20 11.9999 20C11.2659 20 10.5659 19.912 9.90186 19.755" stroke="#161E33" stroke-width="2" stroke-linecap="round" stroke-linejoin="round"/>
<path d="M12 15C13.6569 15 15 13.6569 15 12C15 10.3431 13.6569 9 12 9C10.3431 9 9 10.3431 9 12C9 13.6569 10.3431 15 12 15Z" fill="#161E33" stroke="#161E33" stroke-width="2" stroke-linecap="round" stroke-linejoin="round"/>
<path d="M22 2L2 22" stroke="#161E33" stroke-width="2" stroke-linecap="round" stroke-linejoin="round"/>
</svg>
