<svg width="24" height="24" viewBox="0 0 24 24" fill="none" xmlns="http://www.w3.org/2000/svg">
<g clip-path="url(#clip0_5255_34080)">
<path d="M24 12C24 12.1745 23.9891 12.3382 23.9673 12.5127C23.7273 14.6945 21.72 16.2545 19.5273 16.2545H17.3891L17.9127 15.7309C18.1418 15.5018 18.3055 15.2291 18.3818 15.0109C18.4145 14.9455 18.4582 14.8255 18.4909 14.6618C18.5564 14.3455 18.5564 14.0182 18.4909 13.7127C18.4582 13.5491 18.4145 13.44 18.4036 13.4073C18.3055 13.1345 18.1418 12.8727 17.9127 12.6327L15.7309 10.4509C15.3164 10.0473 14.7709 9.81818 14.1818 9.81818C13.5927 9.81818 13.0473 10.0473 12.6327 10.4509C12.2509 10.8436 12.0218 11.3673 12 11.9236C12 11.9673 11.9673 12 11.9236 12H7.77818C6.76364 12 5.79273 12.6218 5.53091 13.6036C5.24727 14.6618 5.77091 15.6655 6.62182 16.1127C6.69818 16.1455 6.66545 16.2545 6.58909 16.2545H4.44C3.10909 16.2545 1.76727 15.7418 0.938182 14.7055C0.349091 13.9636 0 13.0364 0 12C0 9.94909 1.39636 8.21455 3.21818 7.75636C3.25091 7.74545 3.27273 7.72364 3.27273 7.69091C3.52364 3.45818 7.11273 0 11.4545 0C15.7964 0 19.2764 3.34909 19.6364 7.57091C19.6364 7.60364 19.6691 7.63636 19.7018 7.63636C22.0691 7.66909 24 9.62182 24 12Z" fill="#161E33"/>
<path d="M17.4545 14.1818C17.4545 15.1418 14.9563 17.1382 14.9563 17.1382C14.7381 17.3455 14.4654 17.4546 14.1818 17.4546C13.8981 17.4546 13.6254 17.3455 13.4072 17.1382C13.1672 16.8982 13.0581 16.5709 13.1018 16.2546C13.1236 16.0146 13.2218 15.7746 13.4072 15.5891L13.7236 15.2727H7.63632C7.03632 15.2727 6.54541 14.7818 6.54541 14.1818C6.54541 13.5818 7.03632 13.0909 7.63632 13.0909H13.7236L13.4072 12.7746C12.9818 12.3491 12.9818 11.6509 13.4072 11.2255C13.8327 10.8 14.5309 10.8 14.9563 11.2255C14.9563 11.2255 17.4545 13.2327 17.4545 14.1818Z" fill="#161E33"/>
<path d="M17.4542 20.7272C17.4542 21.3272 16.9633 21.8181 16.3633 21.8181H10.276L10.5924 22.1345C11.0179 22.56 11.0179 23.2581 10.5924 23.6836C10.3742 23.8909 10.1015 24 9.81785 24C9.53422 24 9.26149 23.8909 9.04331 23.6836L6.86149 21.5018C6.76331 21.4036 6.67603 21.2836 6.6324 21.1527C6.61058 21.0981 6.58876 21.0545 6.58876 21C6.53422 20.8254 6.53422 20.6291 6.58876 20.4545C6.58876 20.4 6.61058 20.3563 6.6324 20.3018C6.67603 20.1709 6.76331 20.0509 6.86149 19.9527L9.04331 17.7709C9.46876 17.3454 10.1669 17.3454 10.5924 17.7709C11.0179 18.1963 11.0179 18.8945 10.5924 19.32L10.276 19.6363H16.3633C16.9633 19.6363 17.4542 20.1272 17.4542 20.7272Z" fill="#161E33"/>
</g>
<defs>
<clipPath id="clip0_5255_34080">
<rect width="24" height="24" fill="white"/>
</clipPath>
</defs>
</svg>
