<svg width="24" height="23" viewBox="0 0 24 23" fill="none" xmlns="http://www.w3.org/2000/svg">
<path d="M11.9961 7.99998V14M1.23911 18.953L10.1481 2.11098C10.3261 1.77464 10.5924 1.49318 10.9183 1.29687C11.2443 1.10056 11.6176 0.996826 11.9981 0.996826C12.3786 0.996826 12.7519 1.10056 13.0779 1.29687C13.4039 1.49318 13.6702 1.77464 13.8481 2.11098L22.7571 18.953C22.9243 19.2708 23.0064 19.6265 22.9952 19.9855C22.9841 20.3445 22.8802 20.6944 22.6936 21.0013C22.507 21.3081 22.244 21.5614 21.9304 21.7364C21.6168 21.9114 21.2632 22.0022 20.9041 22H3.08811C2.72932 22.0015 2.37623 21.9102 2.06318 21.7349C1.75013 21.5596 1.48778 21.3063 1.30165 20.9995C1.11551 20.6928 1.01193 20.3431 1.00097 19.9845C0.990012 19.6259 1.07205 19.2705 1.23911 18.953Z" stroke="#161E33" stroke-width="2" stroke-miterlimit="10" stroke-linecap="square"/>
<path d="M11.9961 19C12.8245 19 13.4961 18.3284 13.4961 17.5C13.4961 16.6716 12.8245 16 11.9961 16C11.1677 16 10.4961 16.6716 10.4961 17.5C10.4961 18.3284 11.1677 19 11.9961 19Z" fill="#161E33"/>
</svg>
