<svg width="24" height="24" viewBox="0 0 24 24" fill="none" xmlns="http://www.w3.org/2000/svg">
<g clip-path="url(#clip0_3824_30219)">
<path d="M11.781 4.44702C10.672 5.22697 9.41514 6.11099 8.74168 7.57355C7.57196 10.1252 11.1352 12.9085 11.2875 13.0257C11.3229 13.053 11.3653 13.0666 11.4075 13.0666C11.4524 13.0666 11.4973 13.0512 11.5338 13.0207C11.6045 12.9615 11.6246 12.861 11.5821 12.7792C11.5692 12.7543 10.2902 10.2699 10.3377 8.48766C10.3545 7.86689 11.2233 7.16268 12.1429 6.41713C12.9853 5.73426 13.9401 4.9603 14.4988 4.05491C15.7252 2.06196 14.3621 0.102298 14.3482 0.0827046C14.294 0.00667304 14.1941 -0.0208427 14.1087 0.0166106C14.0233 0.0542982 13.976 0.146595 13.9955 0.237861C13.9983 0.250846 14.2633 1.54676 13.5257 2.8819C13.2219 3.43362 12.5542 3.90322 11.781 4.44702Z" fill="#161E33"/>
<path d="M16.4528 5.3258C16.5311 5.26688 16.554 5.15939 16.5067 5.07361C16.4594 4.98783 16.3562 4.95 16.2646 4.98478C16.0762 5.05641 11.6514 6.76205 11.6514 8.82292C11.6514 10.2436 12.2582 10.994 12.7013 11.5421C12.8751 11.7571 13.0252 11.9427 13.0746 12.1012C13.2139 12.5579 12.884 13.3834 12.7453 13.6629C12.7054 13.7433 12.7249 13.8407 12.793 13.8994C12.8297 13.9311 12.8756 13.9472 12.9215 13.9472C12.9606 13.9472 12.9999 13.9356 13.0339 13.912C13.1099 13.8591 14.8933 12.5982 14.5734 11.0792C14.4543 10.5018 14.1705 10.0799 13.9202 9.7076C13.5323 9.1308 13.2522 8.71417 13.6772 7.94467C14.1751 7.0471 16.43 5.34286 16.4528 5.3258Z" fill="#161E33"/>
<path d="M4.93528 13.9799C4.85944 14.207 4.89525 14.4323 5.03873 14.6316C5.51841 15.2976 7.21749 15.6642 9.82319 15.6642C9.82333 15.6642 9.82342 15.6642 9.82352 15.6642C10.1766 15.6642 10.5493 15.6573 10.9311 15.6436C15.0972 15.4945 16.6424 14.1966 16.7061 14.1414C16.7756 14.0813 16.7941 13.9812 16.751 13.9002C16.7077 13.8192 16.6146 13.7785 16.5256 13.803C15.0583 14.2036 12.3186 14.3459 10.4183 14.3459C8.29192 14.3459 7.20901 14.1927 6.94388 14.0796C7.07991 13.8928 7.91898 13.5592 8.95872 13.3547C9.05809 13.3352 9.12639 13.2434 9.11655 13.1426C9.1067 13.0418 9.02205 12.965 8.92075 12.965C8.31128 12.965 5.25478 13.0139 4.93528 13.9799Z" fill="#161E33"/>
<path d="M18.8749 12.6431C18.0156 12.6431 17.2008 13.0738 17.1664 13.092C17.087 13.1346 17.0467 13.2257 17.0685 13.3132C17.0904 13.4007 17.169 13.4621 17.2591 13.4622C17.2774 13.4622 19.092 13.4771 19.2564 14.5139C19.402 15.4084 17.5394 16.8577 16.8094 17.3407C16.7306 17.3928 16.6999 17.4936 16.7366 17.5808C16.7677 17.655 16.84 17.7014 16.9179 17.7014C16.9315 17.7014 16.9452 17.7 16.9589 17.6971C17.1322 17.66 21.1967 16.7643 20.767 14.3978C20.5048 12.9475 19.5933 12.6431 18.8749 12.6431Z" fill="#161E33"/>
<path d="M16.0881 17.0511C16.1023 16.9753 16.0707 16.8982 16.0076 16.8539L15.033 16.1713C14.9855 16.138 14.9255 16.1275 14.8697 16.1423C14.8595 16.1449 13.8403 16.4128 12.3607 16.5771C11.7734 16.643 11.1157 16.6777 10.4584 16.6777C8.9791 16.6777 8.01188 16.5039 7.87102 16.3764C7.85237 16.3406 7.85827 16.3243 7.8616 16.3153C7.88719 16.2441 8.02435 16.1596 8.11276 16.1261C8.2104 16.09 8.26304 15.9839 8.23266 15.8844C8.20238 15.7847 8.09968 15.726 7.99833 15.7504C7.02071 15.9863 6.54267 16.3162 6.57745 16.7309C6.63923 17.4662 8.3423 17.8436 9.78208 17.9433C9.98912 17.9575 10.213 17.9647 10.4475 17.9647C10.4476 17.9647 10.4477 17.9647 10.4478 17.9647C12.8419 17.9647 15.9111 17.2135 15.9418 17.2058C16.0168 17.1876 16.0739 17.127 16.0881 17.0511Z" fill="#161E33"/>
<path d="M8.74014 18.6291C8.81397 18.5811 8.84669 18.4899 8.82049 18.4058C8.79438 18.3218 8.71577 18.2665 8.62745 18.2677C8.49644 18.2712 7.34547 18.3231 7.26489 19.0559C7.24051 19.2749 7.30323 19.475 7.4514 19.6506C7.86465 20.1403 8.98019 20.4314 10.8612 20.5405C11.0837 20.5538 11.3097 20.5605 11.5331 20.5605C13.9244 20.5605 15.5349 19.8118 15.6024 19.7799C15.6678 19.749 15.7109 19.6847 15.7147 19.6125C15.7186 19.5403 15.6825 19.4718 15.6209 19.4341L14.3892 18.6822C14.3465 18.6562 14.2953 18.6475 14.2466 18.6575C14.2388 18.6592 13.4568 18.8214 12.2766 18.9816C12.0533 19.012 11.7736 19.0274 11.4455 19.0274C10.2666 19.0274 8.9553 18.8348 8.70381 18.7086C8.70016 18.6851 8.7048 18.6552 8.74014 18.6291Z" fill="#161E33"/>
<path d="M10.4187 22.8212C15.8963 22.8166 18.8362 21.8425 19.4025 21.2295C19.603 21.0126 19.6246 20.8073 19.6076 20.6732C19.5655 20.3432 19.2649 20.1412 19.2308 20.1192C19.1486 20.0664 19.0383 20.0802 18.9742 20.1542C18.9102 20.2281 18.9087 20.3362 18.9729 20.4101C19.0074 20.4546 19.0274 20.529 18.9264 20.6301C18.7 20.8415 16.4165 21.4834 12.6144 21.6762C12.0935 21.7033 11.5473 21.7171 10.9908 21.7172C7.58659 21.7172 5.09522 21.2508 4.76817 20.9792C4.89422 20.798 5.77547 20.5087 6.71265 20.345C6.81825 20.3266 6.8896 20.227 6.87324 20.1211C6.85688 20.0152 6.75924 19.9423 6.6525 19.9561C6.62607 19.9598 6.53635 19.9651 6.43247 19.9715C4.88615 20.0659 3.09922 20.2763 3.00599 21.073C2.97768 21.3158 3.04982 21.5362 3.22049 21.728C3.6381 22.1973 4.83843 22.8211 10.4186 22.8211C10.4186 22.8212 10.4186 22.8212 10.4187 22.8212Z" fill="#161E33"/>
<path d="M20.4785 21.4022C20.401 21.3664 20.3095 21.3845 20.2518 21.4469C20.2438 21.4555 19.4202 22.3167 16.9441 22.8224C15.9961 23.0123 14.2167 23.1086 11.6553 23.1086C9.08916 23.1086 6.64729 23.0077 6.62296 23.0066C6.52096 23.0017 6.43373 23.0758 6.41985 23.1762C6.40593 23.2766 6.47062 23.3711 6.5691 23.3946C6.59451 23.4006 9.15356 24.0001 12.6525 24.0001C14.3307 24.0001 15.9637 23.8639 17.5063 23.5949C20.3827 23.0906 20.584 21.6644 20.5912 21.604C20.6012 21.5194 20.5558 21.4381 20.4785 21.4022Z" fill="#161E33"/>
</g>
<defs>
<clipPath id="clip0_3824_30219">
<rect width="24" height="24" fill="white"/>
</clipPath>
</defs>
</svg>
