<svg width="24" height="24" viewBox="0 0 24 24" fill="none" xmlns="http://www.w3.org/2000/svg">
<path d="M17.4545 2L9.96909 9.48545C9.45545 9.35091 8.91909 9.27273 8.36364 9.27273C4.84909 9.27273 2 12.1218 2 15.6364C2 19.1509 4.84909 22 8.36364 22C11.8782 22 14.7273 19.1509 14.7273 15.6364C14.7273 14.8264 14.57 14.0545 14.2945 13.3418L16.5455 11.0909V8.36364H19.2727L22 5.63636V2H17.4545Z" stroke="#161E33" stroke-width="1.81818" stroke-linecap="round" stroke-linejoin="round"/>
<path d="M8.36364 17.4545C9.36779 17.4545 10.1818 16.6405 10.1818 15.6364C10.1818 14.6322 9.36779 13.8182 8.36364 13.8182C7.35948 13.8182 6.54545 14.6322 6.54545 15.6364C6.54545 16.6405 7.35948 17.4545 8.36364 17.4545Z" stroke="#161E33" stroke-width="1.81818" stroke-linecap="round" stroke-linejoin="round"/>
</svg>
