<svg width="24" height="24" viewBox="0 0 24 24" fill="none" xmlns="http://www.w3.org/2000/svg">
<g clip-path="url(#clip0_9789_1858)">
<path d="M13.0001 13.74C12.6961 13.9156 12.3512 14.008 12.0001 14.008C11.649 14.008 11.3042 13.9156 11.0001 13.74L2.50011 8.87001C2.34621 8.7828 2.21821 8.65632 2.12915 8.50348C2.04009 8.35064 1.99316 8.17691 1.99316 8.00001C1.99316 7.82312 2.04009 7.64939 2.12915 7.49655C2.21821 7.34371 2.34621 7.21723 2.50011 7.13001L11.0001 2.26001C11.3042 2.08448 11.649 1.99207 12.0001 1.99207C12.3512 1.99207 12.6961 2.08448 13.0001 2.26001L21.5001 7.13001C21.654 7.21723 21.782 7.34371 21.8711 7.49655C21.9601 7.64939 22.0071 7.82312 22.0071 8.00001C22.0071 8.17691 21.9601 8.35064 21.8711 8.50348C21.782 8.65632 21.654 8.7828 21.5001 8.87001L13.0001 13.74Z" stroke="#161E33" stroke-width="2" stroke-linecap="round" stroke-linejoin="round"/>
<path d="M20.0001 14.285L21.5001 15.13C21.654 15.2173 21.782 15.3437 21.8711 15.4966C21.9601 15.6494 22.0071 15.8231 22.0071 16C22.0071 16.1769 21.9601 16.3507 21.8711 16.5035C21.782 16.6563 21.654 16.7828 21.5001 16.87L13.0001 21.74C12.6961 21.9156 12.3512 22.008 12.0001 22.008C11.649 22.008 11.3042 21.9156 11.0001 21.74L2.50011 16.87C2.34621 16.7828 2.21821 16.6563 2.12915 16.5035C2.04009 16.3507 1.99316 16.1769 1.99316 16C1.99316 15.8231 2.04009 15.6494 2.12915 15.4966C2.21821 15.3437 2.34621 15.2173 2.50011 15.13L4.00011 14.285" stroke="#161E33" stroke-width="2" stroke-linecap="round" stroke-linejoin="round"/>
</g>
<defs>
<clipPath id="clip0_9789_1858">
<rect width="24" height="24" fill="white"/>
</clipPath>
</defs>
</svg>
