<svg width="24" height="24" viewBox="0 0 24 24" fill="none" xmlns="http://www.w3.org/2000/svg">
<g clip-path="url(#clip0_698_3208)">
<path d="M21.8968 9.55805C21.7288 9.21605 21.3808 9.00005 20.9998 9.00005H13.1168L13.9928 1.11005C14.0428 0.664051 13.7888 0.240051 13.3728 0.0720511C12.9558 -0.0979489 12.4788 0.0340512 12.2058 0.389051L2.20581 13.3891C1.97381 13.6911 1.93281 14.0991 2.10181 14.4411C2.27081 14.7841 2.61881 15.0001 2.99981 15.0001H10.8828L10.0068 22.8901C9.95681 23.3361 10.2108 23.7601 10.6268 23.9281C10.7478 23.9771 10.8748 24.0001 10.9998 24.0001C11.3038 24.0001 11.5998 23.8611 11.7928 23.6101L21.7928 10.6101C22.0248 10.3081 22.0648 9.90005 21.8968 9.55805Z" fill="#161E33"/>
</g>
<defs>
<clipPath id="clip0_698_3208">
<rect width="24" height="24" fill="white"/>
</clipPath>
</defs>
</svg>
