<svg width="24" height="24" viewBox="0 0 24 24" fill="none" xmlns="http://www.w3.org/2000/svg">
<path fill-rule="evenodd" clip-rule="evenodd" d="M2.7793 9.05021C2.7793 3.38492 7.46745 0 11.9997 0C16.5319 0 21.2201 3.38492 21.2201 9.05106C21.2201 14.3885 12.9595 23.3537 12.6074 23.7331C12.449 23.9039 12.2294 24 11.9997 24C11.77 24 11.5504 23.9039 11.392 23.7322C11.0399 23.3537 2.7793 14.3876 2.7793 9.05021ZM8.64682 9.44071C8.64682 11.334 10.1506 12.8737 11.9997 12.8737C13.8488 12.8737 15.3526 11.334 15.3526 9.44071C15.3526 7.54742 13.8488 6.00772 11.9997 6.00772C10.1506 6.00772 8.64682 7.54742 8.64682 9.44071Z" fill="#161E33"/>
</svg>
