<svg width="24" height="24" viewBox="0 0 24 24" fill="none" xmlns="http://www.w3.org/2000/svg">
<path fill-rule="evenodd" clip-rule="evenodd" d="M5 9C5 4.54797 8.55148 2 12 2C15.4485 2 19 4.54797 19 9C19 9.98482 18.5872 11.238 17.862 12.6386C17.148 14.0175 16.1845 15.4391 15.2032 16.7333C14.2245 18.024 13.2433 19.1679 12.5057 19.99C12.3201 20.1969 12.1502 20.383 12 20.5457C11.8498 20.383 11.6799 20.1969 11.4943 19.99C10.7567 19.1679 9.77554 18.024 8.79682 16.7333C7.81545 15.4391 6.852 14.0175 6.13802 12.6386C5.41279 11.238 5 9.98482 5 9ZM11.2882 22.7024C11.2884 22.7026 11.2885 22.7027 12 22L11.2885 22.7027L12 23.4231L12.7115 22.7027L12 22C12.7115 22.7027 12.7116 22.7026 12.7118 22.7024L12.7123 22.7019L12.7138 22.7004L12.719 22.6951L12.7378 22.6759C12.7541 22.6592 12.7778 22.6349 12.8083 22.6034C12.8693 22.5404 12.9579 22.4483 13.0699 22.3299C13.294 22.0932 13.6126 21.751 13.9943 21.3256C14.7567 20.4759 15.7755 19.2885 16.7968 17.9417C17.8155 16.5984 18.852 15.0762 19.638 13.5583C20.4128 12.062 21 10.4652 21 9C21 3.25203 16.3515 0 12 0C7.64852 0 3 3.25203 3 9C3 10.4652 3.58721 12.062 4.36198 13.5583C5.148 15.0762 6.18455 16.5984 7.20318 17.9417C8.22446 19.2885 9.2433 20.4759 10.0057 21.3256C10.3874 21.751 10.706 22.0932 10.9301 22.3299C11.0421 22.4483 11.1307 22.5404 11.1917 22.6034C11.2222 22.6349 11.2459 22.6592 11.2622 22.6759L11.281 22.6951L11.2862 22.7004L11.2877 22.7019L11.2882 22.7024ZM10 9C10 7.89543 10.8954 7 12 7C13.1046 7 14 7.89543 14 9C14 10.1046 13.1046 11 12 11C10.8954 11 10 10.1046 10 9ZM12 5C9.79086 5 8 6.79086 8 9C8 11.2091 9.79086 13 12 13C14.2091 13 16 11.2091 16 9C16 6.79086 14.2091 5 12 5Z" fill="#161E33"/>
</svg>
