<svg width="24" height="24" viewBox="0 0 24 24" fill="none" xmlns="http://www.w3.org/2000/svg">
<path d="M10 12V9C10.0016 8.47005 10.2128 7.96227 10.5875 7.58753C10.9623 7.2128 11.4701 7.00158 12 7C12.5299 7.00158 13.0377 7.2128 13.4125 7.58753C13.7872 7.96227 13.9984 8.47005 14 9V12M8 12H16V17H8V12ZM21 14C21 16.3869 20.0518 18.6761 18.364 20.364C16.6761 22.0518 14.3869 23 12 23C9.61305 23 7.32387 22.0518 5.63604 20.364C3.94821 18.6761 3 16.3869 3 14V4L12 2L21 4V14Z" stroke="#161E33" stroke-width="2" stroke-linecap="round" stroke-linejoin="round"/>
</svg>
