<svg width="24" height="24" viewBox="0 0 24 24" fill="none" xmlns="http://www.w3.org/2000/svg">
<g clip-path="url(#clip0_3824_30216)">
<path fill-rule="evenodd" clip-rule="evenodd" d="M6.19537 3.21143C6.19537 1.55909 6.63912 0.660204 9.08916 0.232169C10.7525 -0.058929 12.8852 -0.0953162 14.8746 0.232169C16.4459 0.491125 17.7684 1.65976 17.7684 3.21143V8.66285C17.7684 10.2617 16.4844 11.5714 14.8746 11.5714H9.08916C7.12563 11.5714 5.47077 13.243 5.47077 15.1329V17.7484H3.4815C1.79882 17.7484 0.819125 16.5369 0.407567 14.8418C-0.147575 12.5644 -0.124009 11.2075 0.407567 9.02648C0.868443 7.12379 2.34109 6.11987 4.02388 6.11987H11.9829V5.39212H6.19525V3.21132L6.19537 3.21143ZM17.7686 20.6568C17.7686 22.3092 16.3324 23.1461 14.8748 23.5634C12.6819 24.1927 10.922 24.0964 9.0893 23.5634C7.55871 23.1183 6.19551 22.2086 6.19551 20.6568V15.2054C6.19551 13.6365 7.50526 12.2968 9.0893 12.2968H14.8748C16.8019 12.2968 18.4932 10.6339 18.4932 8.66261V6.11987H20.6625C22.3473 6.11987 23.1406 7.36977 23.5563 9.02648C24.135 11.3274 24.1607 13.0481 23.5563 14.8418C22.9711 16.584 22.3451 17.7484 20.6625 17.7484H11.9831V18.4761H17.7686V20.6568ZM8.72701 1.75924C8.12667 1.75924 7.64223 2.24731 7.64223 2.85085C7.64223 3.45234 8.12692 3.94029 8.72701 3.94029C9.32515 3.94029 9.81178 3.45246 9.81178 2.85085C9.81178 2.24719 9.32503 1.75924 8.72701 1.75924ZM15.2369 19.9305C14.6387 19.9305 14.1521 20.4184 14.1521 21.02C14.1521 21.6236 14.6388 22.1116 15.2369 22.1116C15.8372 22.1116 16.3216 21.6235 16.3216 21.02C16.3216 20.4185 15.8369 19.9305 15.2369 19.9305Z" fill="#161E33"/>
</g>
<defs>
<clipPath id="clip0_3824_30216">
<rect width="24" height="24" fill="white"/>
</clipPath>
</defs>
</svg>
