<svg width="24" height="24" viewBox="0 0 24 24" fill="none" xmlns="http://www.w3.org/2000/svg">
<g clip-path="url(#clip0_1110_10362)">
<path d="M23.5802 0.423988C23.4811 0.324248 23.3621 0.246513 23.231 0.195855C23.0999 0.145196 22.9595 0.122752 22.8192 0.129988C8.79116 0.861988 3.60916 13.358 3.55916 13.484C3.48599 13.6658 3.46783 13.865 3.50694 14.057C3.54605 14.249 3.64071 14.4253 3.77916 14.564L9.43616 20.221C9.57547 20.3601 9.75275 20.455 9.94576 20.4938C10.1388 20.5325 10.3389 20.5135 10.5212 20.439C10.6462 20.388 23.0752 15.148 23.8692 1.18599C23.8772 1.0458 23.8556 0.9055 23.8058 0.774212C23.756 0.642923 23.6791 0.523592 23.5802 0.423988ZM15.4142 11.414C15.1345 11.6938 14.7781 11.8843 14.3901 11.9615C14.0022 12.0387 13.6 11.9992 13.2345 11.8478C12.869 11.6964 12.5566 11.4401 12.3368 11.1112C12.117 10.7823 11.9997 10.3956 11.9997 9.99999C11.9997 9.6044 12.117 9.2177 12.3368 8.88878C12.5566 8.55987 12.869 8.30353 13.2345 8.15217C13.6 8.00081 14.0022 7.96124 14.3901 8.03846C14.7781 8.11568 15.1345 8.30622 15.4142 8.58599C15.7891 8.96104 15.9997 9.46966 15.9997 9.99999C15.9997 10.5303 15.7891 11.0389 15.4142 11.414Z" fill="#161E33"/>
<path d="M1.113 18.844C1.37676 18.5784 1.69035 18.3675 2.03579 18.2234C2.38123 18.0793 2.75171 18.0048 3.12601 18.0042C3.5003 18.0035 3.87104 18.0768 4.21697 18.2197C4.56289 18.3627 4.8772 18.5725 5.14187 18.8371C5.40653 19.1018 5.61635 19.4161 5.7593 19.762C5.90224 20.108 5.97549 20.4787 5.97485 20.853C5.97421 21.2273 5.8997 21.5978 5.75558 21.9432C5.61146 22.2887 5.40057 22.6022 5.135 22.866C4.024 23.977 0 24 0 24C0 24 0 19.954 1.113 18.844Z" fill="#161E33"/>
<path d="M10.3568 2.34096C8.94738 2.09565 7.49958 2.1933 6.13584 2.62566C4.77209 3.05802 3.53249 3.81238 2.52184 4.82496C1.98704 5.36472 1.52208 5.96944 1.13784 6.62496C1.02533 6.81601 0.979495 7.03904 1.00755 7.25897C1.03561 7.47891 1.13596 7.68328 1.29284 7.83996L3.28184 9.82996C5.13006 6.89678 7.53338 4.35282 10.3568 2.34096Z" fill="#161E33"/>
<path d="M21.6589 13.6429C21.9042 15.0524 21.8066 16.5002 21.3742 17.8639C20.9419 19.2277 20.1875 20.4673 19.1749 21.4779C18.6352 22.0127 18.0304 22.4777 17.3749 22.8619C17.1839 22.9745 16.9608 23.0203 16.7409 22.9922C16.521 22.9642 16.3166 22.8638 16.1599 22.7069L14.1699 20.7179C17.1031 18.8697 19.6471 16.4664 21.6589 13.6429Z" fill="#161E33"/>
</g>
<defs>
<clipPath id="clip0_1110_10362">
<rect width="24" height="24" fill="white"/>
</clipPath>
</defs>
</svg>
