<svg width="48" height="48" viewBox="0 0 48 48" fill="none" xmlns="http://www.w3.org/2000/svg">
<path fill-rule="evenodd" clip-rule="evenodd" d="M46.9984 2.05668C47.0145 1.77301 46.9092 1.49588 46.7087 1.29452C46.5083 1.09315 46.2317 0.986558 45.9479 1.00136C37.0707 1.46444 30.0935 4.25608 24.7137 7.83694C18.4933 5.42823 10.8057 7.26505 5.21369 14.3822C4.90098 14.7802 4.93495 15.3491 5.2928 15.707L11.4716 21.8876C11.2831 22.2041 11.1066 22.5094 10.9418 22.802C10.298 23.9455 9.83217 24.8976 9.52567 25.568C9.37238 25.9032 9.25884 26.1683 9.18275 26.3518C9.14469 26.4436 9.11599 26.515 9.09635 26.5647L9.07365 26.6228L9.06733 26.6392L9.06541 26.6443L9.06477 26.646C9.06453 26.6466 9.06432 26.6472 10 27L9.06432 26.6472C8.92573 27.0147 9.01515 27.4294 9.2929 27.7071L20.2929 38.7071C20.5722 38.9864 20.9898 39.0751 21.3585 38.9335L21 38C21.3585 38.9335 21.359 38.9333 21.3597 38.9331L21.3614 38.9324L21.3664 38.9305L21.3827 38.9241L21.4405 38.9011C21.4899 38.8812 21.561 38.8522 21.6523 38.8137C21.8349 38.7367 22.0986 38.622 22.4323 38.4672C23.0994 38.1576 24.0471 37.6876 25.1857 37.0392C25.4758 36.8739 25.7785 36.697 26.0923 36.5082L32.2932 42.7072C32.6511 43.0651 33.22 43.099 33.618 42.7863C40.7668 37.1694 42.5882 29.4384 40.1309 23.2035C43.7022 17.8303 46.4977 10.8779 46.9984 2.05668ZM38.6994 25.2233C37.0693 27.3836 35.3298 29.2523 33.606 30.8533C31.5913 32.7243 29.5977 34.2303 27.8238 35.4111L33.0676 40.6534C38.5284 36.0064 40.0518 30.1286 38.6994 25.2233ZM13.5743 22.2786C13.5812 22.2679 13.5878 22.2572 13.5942 22.2464C14.7933 20.3155 16.4295 18.0251 18.5697 15.7089C20.435 13.6903 22.6823 11.6522 25.3582 9.81488C25.3843 9.7987 25.4098 9.78128 25.4344 9.76268C26.7141 8.88849 28.0914 8.0604 29.5712 7.30229L40.6485 18.3787C38.2791 22.9865 35.2389 26.6073 32.245 29.3878C29.2837 32.1379 26.3683 34.0641 24.196 35.3012C23.1105 35.9194 22.2127 36.3642 21.5905 36.6529C21.4577 36.7146 21.3375 36.769 21.2308 36.8166L11.1804 26.7662C11.2279 26.6576 11.2826 26.5351 11.3446 26.3996C11.6303 25.7746 12.0711 24.8729 12.6846 23.7832C12.9489 23.3138 13.245 22.8099 13.5743 22.2786ZM41.5655 16.4673C43.2718 12.6445 44.5064 8.20268 44.9238 3.07129C39.7698 3.46669 35.3149 4.68846 31.4854 6.38806L41.5655 16.4673ZM22.6874 9.27655C20.543 10.8999 18.6889 12.6328 17.1008 14.3516C15.2354 16.3704 13.7363 18.3697 12.5621 20.1496L7.34658 14.9326C11.9655 9.50489 17.8002 7.96701 22.6874 9.27655Z" fill="url(#paint0_linear_630_839)"/>
<path d="M27 25C29.2091 25 31 23.2091 31 21C31 18.7909 29.2091 17 27 17C24.7909 17 23 18.7909 23 21C23 23.2091 24.7909 25 27 25Z" stroke="#DC244C" stroke-width="2" stroke-linecap="round" stroke-linejoin="round"/>
<path d="M4.464 36.4639C5.40181 35.5261 6.67374 34.9993 8 34.9993C9.32626 34.9993 10.5982 35.5261 11.536 36.4639C12.4738 37.4017 13.0007 38.6737 13.0007 39.9999C13.0007 41.3262 12.4738 42.5981 11.536 43.5359C9.583 45.4879 2 45.9999 2 45.9999C2 45.9999 2.512 38.4169 4.464 36.4639Z" stroke="#DC244C" stroke-width="2" stroke-linecap="round" stroke-linejoin="round"/>
<defs>
<linearGradient id="paint0_linear_630_839" x1="26" y1="1" x2="26" y2="43" gradientUnits="userSpaceOnUse">
<stop stop-color="#717C99"/>
<stop offset="1" stop-color="#161E33"/>
</linearGradient>
</defs>
</svg>
