<svg width="24" height="24" viewBox="0 0 24 24" fill="none" xmlns="http://www.w3.org/2000/svg">
<g clip-path="url(#clip0_3824_30218)">
<path d="M11.25 2.82675C11.25 2.73308 11.2684 2.64034 11.3043 2.5538C11.3401 2.46727 11.3926 2.38864 11.4589 2.32241C11.5251 2.25617 11.6037 2.20364 11.6903 2.16779C11.7768 2.13195 11.8695 2.1135 11.9632 2.1135C12.0569 2.1135 12.1496 2.13195 12.2362 2.16779C12.3227 2.20364 12.4013 2.25617 12.4676 2.32241C12.5338 2.38864 12.5863 2.46727 12.6222 2.5538C12.658 2.64034 12.6765 2.73308 12.6765 2.82675C12.6765 3.01592 12.6013 3.19733 12.4676 3.33109C12.3338 3.46485 12.1524 3.54 11.9632 3.54C11.774 3.54 11.5926 3.46485 11.4589 3.33109C11.3251 3.19733 11.25 3.01592 11.25 2.82675ZM2.74046 9.28425C2.74046 9.19058 2.75891 9.09784 2.79476 9.0113C2.8306 8.92477 2.88314 8.84614 2.94937 8.77991C3.0156 8.71367 3.09423 8.66114 3.18077 8.62529C3.2673 8.58945 3.36005 8.571 3.45371 8.571C3.54738 8.571 3.64013 8.58945 3.72666 8.62529C3.8132 8.66114 3.89183 8.71367 3.95806 8.77991C4.02429 8.84614 4.07683 8.92477 4.11267 9.0113C4.14852 9.09784 4.16697 9.19058 4.16697 9.28425C4.16697 9.47342 4.09182 9.65483 3.95806 9.78859C3.8243 9.92235 3.64288 9.9975 3.45371 9.9975C3.26455 9.9975 3.08313 9.92235 2.94937 9.78859C2.81561 9.65483 2.74046 9.47342 2.74046 9.28425ZM19.7595 9.31725C19.7595 9.12808 19.8346 8.94667 19.9684 8.81291C20.1021 8.67914 20.2835 8.604 20.4727 8.604C20.6619 8.604 20.8433 8.67914 20.9771 8.81291C21.1108 8.94667 21.186 9.12808 21.186 9.31725C21.186 9.50642 21.1108 9.68783 20.9771 9.82159C20.8433 9.95535 20.6619 10.0305 20.4727 10.0305C20.2835 10.0305 20.1021 9.95535 19.9684 9.82159C19.8346 9.68783 19.7595 9.50642 19.7595 9.31725ZM4.80446 10.2967C4.96207 10.2264 5.08536 10.0964 5.14735 9.93531C5.20934 9.77422 5.20498 9.59513 5.13521 9.43725L4.81871 8.72175H6.06371V14.3318H3.55196C3.24205 13.243 3.14552 12.1046 3.26771 10.9792L4.80446 10.2967ZM10.011 10.4347V8.781H12.975C13.128 8.781 14.055 8.958 14.055 9.651C14.055 10.227 13.3425 10.434 12.7575 10.434L10.011 10.4347ZM5.96396 19.338C5.96396 19.2443 5.98241 19.1516 6.01826 19.0651C6.0541 18.9785 6.10664 18.8999 6.17287 18.8337C6.2391 18.7674 6.31773 18.7149 6.40427 18.679C6.4908 18.6432 6.58355 18.6248 6.67721 18.6248C6.77088 18.6248 6.86363 18.6432 6.95016 18.679C7.0367 18.7149 7.11533 18.7674 7.18156 18.8337C7.24779 18.8999 7.30033 18.9785 7.33617 19.0651C7.37202 19.1516 7.39046 19.2443 7.39046 19.338C7.39046 19.5272 7.31532 19.7086 7.18156 19.8423C7.0478 19.9761 6.86638 20.0513 6.67721 20.0513C6.48805 20.0513 6.30663 19.9761 6.17287 19.8423C6.03911 19.7086 5.96396 19.5272 5.96396 19.338ZM16.5337 19.371C16.5337 19.1818 16.6089 19.0004 16.7426 18.8667C16.8764 18.7329 17.0578 18.6578 17.247 18.6578C17.4361 18.6578 17.6175 18.7329 17.7513 18.8667C17.8851 19.0004 17.9602 19.1818 17.9602 19.371C17.9602 19.5602 17.8851 19.7416 17.7513 19.8753C17.6175 20.0091 17.4361 20.0843 17.247 20.0843C17.0578 20.0843 16.8764 20.0091 16.7426 19.8753C16.6089 19.7416 16.5337 19.5602 16.5337 19.371ZM16.7542 17.7533C16.4017 17.6783 16.0567 17.9018 15.9817 18.2535L15.624 19.9245C14.4726 20.446 13.2222 20.7128 11.9582 20.7067C10.6943 20.7006 9.44652 20.4218 8.30021 19.8893L7.94246 18.2183C7.86746 17.8657 7.52246 17.6423 7.16996 17.718L5.69471 18.0345C5.42061 17.7522 5.16578 17.4517 4.93196 17.1353H12.1095C12.1905 17.1353 12.2445 17.1203 12.2445 17.0467V14.508C12.2445 14.433 12.1905 14.4195 12.1095 14.4195H10.0095V12.81H12.2797C12.4867 12.81 13.3875 12.87 13.6762 14.0205L14.1 15.8955C14.235 16.308 14.7847 17.1353 15.3697 17.1353H19.0747C18.8261 17.4678 18.5541 17.7824 18.261 18.0765L16.7542 17.7533ZM20.7397 11.0497C20.7902 11.5565 20.7964 12.0667 20.7585 12.5745H19.8585C19.7685 12.5745 19.731 12.6345 19.731 12.7223V13.1363C19.731 14.1113 19.182 14.3213 18.7005 14.376C18.243 14.4285 17.733 14.184 17.6715 13.9035C17.4015 12.3825 16.9515 12.0585 16.2465 11.496C17.1292 10.935 18.048 10.1085 18.048 9.00075C18.048 7.80525 17.2282 7.05225 16.6695 6.68325C15.8857 6.16575 15.018 6.063 14.784 6.063H5.45771C6.74596 4.62356 8.47285 3.64901 10.371 3.29025L11.4697 4.443C11.7172 4.70325 12.1297 4.713 12.3892 4.464L13.6192 3.28875C14.8721 3.52335 16.0589 4.02787 17.0973 4.76726C18.1356 5.50666 19.0005 6.46322 19.632 7.5705L18.7905 9.471C18.7207 9.62888 18.7163 9.80797 18.7783 9.96906C18.8403 10.1301 18.9636 10.2601 19.1212 10.3305L20.7397 11.0497ZM22.8382 11.0798L22.8097 10.7857L23.6767 9.97725C23.853 9.81225 23.787 9.48225 23.562 9.39825L22.4542 8.98425L22.3672 8.69925L23.0572 7.73925C23.1982 7.54425 23.0685 7.233 22.8322 7.194L21.6637 7.00425L21.5235 6.74175L22.0147 5.664C22.1152 5.44425 21.9285 5.16375 21.687 5.17275L20.502 5.214L20.3145 4.98675L20.5867 3.83175C20.6415 3.597 20.4037 3.35925 20.169 3.414L19.014 3.68625L18.786 3.49875L18.8272 2.31375C18.8362 2.07375 18.5557 1.88625 18.3367 1.986L17.2597 2.47725L16.9972 2.33625L16.8067 1.16775C16.7692 0.93075 16.4565 0.80175 16.2615 0.94275L15.3015 1.63275L15.0165 1.5465L14.6025 0.43875C14.5185 0.21375 14.1877 0.14775 14.0235 0.32325L13.215 1.19025L12.921 1.16175L12.297 0.153C12.171 -0.051 11.832 -0.051 11.7067 0.153L11.0827 1.16175L10.7887 1.19025L9.97871 0.32175C9.81371 0.14625 9.48371 0.2115 9.39971 0.43725L8.98571 1.545L8.70071 1.63125L7.74071 0.94125C7.54571 0.80025 7.23371 0.93 7.19546 1.16625L7.00496 2.33475L6.74246 2.47575L5.66546 1.9845C5.44646 1.88475 5.16521 2.07225 5.17496 2.31225L5.21621 3.49725L4.98821 3.68475L3.83321 3.4125C3.59846 3.35775 3.36071 3.5955 3.41546 3.83025L3.68771 4.98525L3.50021 5.2125L2.31521 5.17125C2.07521 5.16375 1.88771 5.44275 1.98746 5.6625L2.47871 6.74025L2.33771 7.00275L1.16921 7.1925C0.932215 7.23 0.803215 7.54275 0.944215 7.73775L1.63421 8.69775L1.54721 8.98275L0.439465 9.39675C0.214465 9.48075 0.148465 9.8115 0.324715 9.97575L1.19171 10.7843L1.16321 11.0782L0.154465 11.7022C-0.0495352 11.8282 -0.0495352 12.1673 0.154465 12.2925L1.16321 12.9165L1.19171 13.2105L0.322465 14.022C0.146965 14.187 0.212215 14.517 0.437215 14.601L1.54496 15.015L1.63196 15.3L0.941965 16.26C0.801715 16.455 0.930715 16.767 1.16696 16.8053L2.33471 16.995L2.47571 17.2575L1.98446 18.3345C1.88471 18.5535 2.07296 18.8347 2.31221 18.8258L3.49721 18.7845L3.68471 19.0125L3.41246 20.1675C3.35771 20.4015 3.59546 20.64 3.83021 20.5845L4.98521 20.3123L5.21321 20.4998L5.17196 21.6847C5.16296 21.9247 5.44346 22.1122 5.66246 22.0125L6.73946 21.5212L7.00196 21.6623L7.19246 22.83C7.22996 23.0678 7.54271 23.196 7.73771 23.0565L8.69771 22.365L8.98271 22.452L9.39671 23.5597C9.48071 23.7847 9.81146 23.8507 9.97571 23.6745L10.7842 22.8075L11.0782 22.8375L11.7022 23.8463C11.8282 24.0487 12.1657 24.0503 12.2925 23.8463L12.9165 22.8375L13.2105 22.8075L14.019 23.6745C14.184 23.8507 14.514 23.7847 14.598 23.5597L15.012 22.452L15.297 22.365L16.257 23.0565C16.452 23.1968 16.764 23.0678 16.8022 22.83L16.9927 21.6623L17.2552 21.5212L18.3322 22.0125C18.5512 22.1122 18.8317 21.9255 18.8227 21.6847L18.7815 20.4998L19.0087 20.3123L20.1637 20.5845C20.3985 20.6393 20.6362 20.4015 20.5815 20.1675L20.3092 19.0125L20.4967 18.7845L21.6817 18.8258C21.9217 18.8355 22.1092 18.5535 22.0095 18.3345L21.5182 17.2575L21.6585 16.995L22.827 16.8053C23.0647 16.7678 23.1945 16.4557 23.052 16.26L22.362 15.3L22.449 15.015L23.5567 14.601C23.7817 14.5163 23.8477 14.1863 23.6715 14.022L22.8045 13.2135L22.833 12.9195L23.8417 12.2955C24.0457 12.1695 24.0465 11.832 23.8417 11.7052L22.8382 11.0798Z" fill="#161E33"/>
</g>
<defs>
<clipPath id="clip0_3824_30218">
<rect width="24" height="24" fill="white"/>
</clipPath>
</defs>
</svg>
