<svg width="48" height="48" viewBox="0 0 48 48" fill="none" xmlns="http://www.w3.org/2000/svg">
<path d="M39 39C43.2 38.625 46.5 35.025 46.5 30.75C46.5 26.4 43.2 22.875 38.925 22.5C38.175 14.925 31.8 9 24 9C17.25 9 11.55 13.5 9.675 19.65C5.025 20.4 1.5 24.375 1.5 29.25C1.5 34.35 5.475 38.625 10.5 39H39Z" stroke="url(#paint0_linear_685_460)" stroke-width="2" stroke-linecap="round" stroke-linejoin="round"/>
<path d="M34.3026 26.1343C33.9578 26.1343 33.6964 25.8268 33.4378 25.5988C33.425 25.5875 33.4117 25.5765 33.3979 25.5658C33.225 25.4284 32.9779 25.3597 32.6565 25.3597C32.4437 25.3597 32.2664 25.3874 32.1246 25.4428C31.9827 25.4982 31.8764 25.5747 31.8054 25.6722C31.7345 25.7675 31.6979 25.8772 31.6957 26.0013C31.6913 26.1033 31.7112 26.1931 31.7556 26.2706C31.8021 26.3482 31.8686 26.4169 31.955 26.4768C32.0437 26.5344 32.1501 26.5854 32.2742 26.6297C32.3983 26.674 32.5379 26.7128 32.6931 26.746L33.2782 26.879C33.6151 26.9522 33.9121 27.0497 34.1692 27.1716C34.4285 27.2935 34.6457 27.4386 34.8208 27.6071C34.9981 27.7755 35.1321 27.9695 35.223 28.1889C35.3139 28.4083 35.3604 28.6543 35.3626 28.9269C35.3604 29.3569 35.2518 29.7259 35.0368 30.034C34.8219 30.342 34.5127 30.5781 34.1093 30.7421C33.7082 30.9061 33.2239 30.9881 32.6565 30.9881C32.0869 30.9881 31.5904 30.9028 31.1671 30.7321C30.7438 30.5615 30.4147 30.3021 30.1798 29.9542C30.0517 29.7645 29.9576 29.5475 29.8973 29.3032C29.8084 28.9426 30.121 28.6344 30.4924 28.6344H30.8094C31.1374 28.6344 31.3791 28.9157 31.5694 29.1829C31.6736 29.3292 31.8165 29.44 31.9983 29.5153C32.1822 29.5907 32.395 29.6284 32.6366 29.6284C32.8582 29.6284 33.0466 29.5985 33.2017 29.5386C33.3591 29.4788 33.4799 29.3957 33.5641 29.2893C33.6483 29.1829 33.6915 29.061 33.6938 28.9236C33.6915 28.795 33.6516 28.6853 33.5741 28.5945C33.4965 28.5014 33.3768 28.4216 33.215 28.3551C33.0554 28.2864 32.8515 28.2232 32.6033 28.1656L31.8919 27.9994C31.3023 27.8642 30.838 27.6459 30.4989 27.3444C30.1598 27.0408 29.9914 26.6308 29.9936 26.1144C29.9914 25.6933 30.1044 25.3243 30.3327 25.0073C30.561 24.6904 30.8768 24.4433 31.2802 24.266C31.6835 24.0887 32.1434 24 32.6598 24C33.1873 24 33.645 24.0898 34.0328 24.2693C34.4229 24.4466 34.7255 24.6959 34.9404 25.0173C35.0352 25.1589 35.1095 25.3104 35.1633 25.4718C35.2807 25.8237 34.9668 26.1343 34.5959 26.1343H34.3026Z" fill="#DC244C"/>
<path d="M25.9679 30.9881C25.6421 30.9881 25.3529 30.9338 25.1002 30.8252C24.8498 30.7144 24.6514 30.5482 24.5052 30.3265C24.3611 30.1027 24.2891 29.8223 24.2891 29.4854C24.2891 29.2018 24.3389 28.9624 24.4387 28.7674C24.5384 28.5723 24.6758 28.4138 24.8509 28.2919C25.026 28.1701 25.2277 28.0781 25.456 28.016C25.6842 27.9517 25.928 27.9085 26.1874 27.8864C26.4777 27.8598 26.7115 27.8321 26.8888 27.8032C27.0661 27.7722 27.1947 27.729 27.2745 27.6736C27.3565 27.616 27.3975 27.5351 27.3975 27.4309V27.4143C27.3975 27.2436 27.3387 27.1118 27.2213 27.0187C27.1038 26.9256 26.9453 26.879 26.7459 26.879C26.5309 26.879 26.358 26.9256 26.2272 27.0187C26.0054 27.1766 25.7799 27.3973 25.5078 27.3876L25.2198 27.3774C24.8238 27.3634 24.5183 26.9948 24.7266 26.6578C24.7557 26.6107 24.7872 26.5648 24.821 26.52C25.0072 26.274 25.262 26.0812 25.5856 25.9415C25.9114 25.7997 26.3026 25.7288 26.7592 25.7288C27.085 25.7288 27.3853 25.7675 27.6601 25.8451C27.9349 25.9205 28.1743 26.0313 28.3782 26.1776C28.5821 26.3216 28.7395 26.4989 28.8503 26.7095C28.9633 26.92 29.0198 27.1605 29.0198 27.4309V30.235C29.0198 30.6032 28.7213 30.9017 28.3532 30.9017H27.8463C27.6498 30.9017 27.4906 30.7424 27.4906 30.546V30.2151C27.4906 30.2014 27.4794 30.1902 27.4657 30.1902C27.4564 30.1902 27.448 30.1954 27.4436 30.2035C27.3538 30.3706 27.2398 30.5125 27.1016 30.6291C26.962 30.7488 26.7968 30.8385 26.6062 30.8984C26.4179 30.9582 26.2051 30.9881 25.9679 30.9881ZM26.4699 29.9243C26.645 29.9243 26.8024 29.8888 26.942 29.8179C27.0839 29.747 27.1969 29.6495 27.2811 29.5253C27.3653 29.399 27.4074 29.2527 27.4074 29.0865V28.7835C27.4074 28.7006 27.3173 28.6438 27.2379 28.6676C27.1736 28.6876 27.1027 28.7064 27.0251 28.7241C26.9476 28.7419 26.8678 28.7574 26.7858 28.7707C26.7038 28.784 26.6251 28.7962 26.5497 28.8072C26.3968 28.8316 26.266 28.8693 26.1574 28.9203C26.051 28.9713 25.969 29.0377 25.9114 29.1197C25.856 29.1995 25.8283 29.2948 25.8283 29.4057C25.8283 29.5741 25.8881 29.7026 26.0078 29.7913C26.1297 29.88 26.2838 29.9243 26.4699 29.9243Z" fill="#DC244C"/>
<path d="M20.4826 30.9881C20.1568 30.9881 19.8676 30.9338 19.6149 30.8252C19.3644 30.7144 19.1661 30.5482 19.0198 30.3265C18.8757 30.1027 18.8037 29.8223 18.8037 29.4854C18.8037 29.2018 18.8536 28.9624 18.9533 28.7674C19.053 28.5723 19.1905 28.4138 19.3656 28.2919C19.5406 28.1701 19.7423 28.0781 19.9706 28.016C20.1989 27.9517 20.4427 27.9085 20.702 27.8864C20.9923 27.8598 21.2262 27.8321 21.4035 27.8032C21.5808 27.7722 21.7093 27.729 21.7891 27.6736C21.8711 27.616 21.9121 27.5351 21.9121 27.4309V27.4143C21.9121 27.2436 21.8534 27.1118 21.7359 27.0187C21.6185 26.9256 21.46 26.879 21.2605 26.879C21.0455 26.879 20.8727 26.9256 20.7419 27.0187C20.5201 27.1766 20.2945 27.3973 20.0224 27.3876L19.7344 27.3774C19.3385 27.3634 19.0329 26.9948 19.2413 26.6578C19.2704 26.6107 19.3018 26.5648 19.3356 26.52C19.5218 26.274 19.7767 26.0812 20.1003 25.9415C20.4261 25.7997 20.8172 25.7288 21.2738 25.7288C21.5996 25.7288 21.8999 25.7675 22.1748 25.8451C22.4496 25.9205 22.6889 26.0313 22.8928 26.1776C23.0967 26.3216 23.2541 26.4989 23.3649 26.7095C23.478 26.92 23.5345 27.1605 23.5345 27.4309V30.235C23.5345 30.6032 23.236 30.9017 22.8678 30.9017H22.3609C22.1645 30.9017 22.0052 30.7424 22.0052 30.546V30.2151C22.0052 30.2014 21.9941 30.1902 21.9803 30.1902C21.9711 30.1902 21.9626 30.1954 21.9583 30.2035C21.8684 30.3706 21.7544 30.5125 21.6162 30.6291C21.4766 30.7488 21.3115 30.8385 21.1209 30.8984C20.9325 30.9582 20.7197 30.9881 20.4826 30.9881ZM20.9846 29.9243C21.1597 29.9243 21.317 29.8888 21.4567 29.8179C21.5985 29.747 21.7115 29.6495 21.7958 29.5253C21.88 29.399 21.9221 29.2527 21.9221 29.0865V28.7835C21.9221 28.7006 21.832 28.6438 21.7525 28.6676C21.6883 28.6876 21.6173 28.7064 21.5398 28.7241C21.4622 28.7419 21.3824 28.7574 21.3004 28.7707C21.2184 28.784 21.1397 28.7962 21.0644 28.8072C20.9114 28.8316 20.7807 28.8693 20.6721 28.9203C20.5657 28.9713 20.4837 29.0377 20.4261 29.1197C20.3707 29.1995 20.343 29.2948 20.343 29.4057C20.343 29.5741 20.4028 29.7026 20.5225 29.7913C20.6444 29.88 20.7984 29.9243 20.9846 29.9243Z" fill="#DC244C"/>
<path d="M17.1517 26.1343C16.8069 26.1343 16.5456 25.8268 16.2869 25.5988C16.2741 25.5875 16.2608 25.5765 16.247 25.5658C16.0741 25.4284 15.827 25.3597 15.5056 25.3597C15.2929 25.3597 15.1156 25.3874 14.9737 25.4428C14.8319 25.4982 14.7255 25.5747 14.6546 25.6722C14.5836 25.7675 14.5471 25.8772 14.5448 26.0013C14.5404 26.1033 14.5604 26.1931 14.6047 26.2706C14.6512 26.3482 14.7177 26.4169 14.8042 26.4768C14.8928 26.5344 14.9992 26.5854 15.1233 26.6297C15.2474 26.674 15.3871 26.7128 15.5422 26.746L16.1273 26.879C16.4642 26.9522 16.7612 27.0497 17.0183 27.1716C17.2776 27.2935 17.4948 27.4386 17.6699 27.6071C17.8472 27.7755 17.9813 27.9695 18.0721 28.1889C18.163 28.4083 18.2096 28.6543 18.2118 28.9269C18.2096 29.3569 18.101 29.7259 17.886 30.034C17.671 30.342 17.3618 30.5781 16.9584 30.7421C16.5573 30.9061 16.073 30.9881 15.5056 30.9881C14.936 30.9881 14.4396 30.9028 14.0163 30.7321C13.5929 30.5615 13.2638 30.3021 13.0289 29.9542C12.9008 29.7645 12.8067 29.5475 12.7465 29.3032C12.6575 28.9426 12.9701 28.6344 13.3416 28.6344H13.6585C13.9865 28.6344 14.2283 28.9157 14.4185 29.1829C14.5227 29.3292 14.6656 29.44 14.8474 29.5153C15.0313 29.5907 15.2441 29.6284 15.4857 29.6284C15.7073 29.6284 15.8957 29.5985 16.0508 29.5386C16.2082 29.4788 16.329 29.3957 16.4132 29.2893C16.4974 29.1829 16.5407 29.061 16.5429 28.9236C16.5407 28.795 16.5008 28.6853 16.4232 28.5945C16.3456 28.5014 16.2259 28.4216 16.0641 28.3551C15.9046 28.2864 15.7007 28.2232 15.4524 28.1656L14.741 27.9994C14.1514 27.8642 13.6871 27.6459 13.348 27.3444C13.0089 27.0408 12.8405 26.6308 12.8427 26.1144C12.8405 25.6933 12.9535 25.3243 13.1818 25.0073C13.4101 24.6904 13.7259 24.4433 14.1293 24.266C14.5327 24.0887 14.9925 24 15.509 24C16.0364 24 16.4941 24.0898 16.882 24.2693C17.272 24.4466 17.5746 24.6959 17.7896 25.0173C17.8843 25.1589 17.9586 25.3104 18.0124 25.4718C18.1298 25.8237 17.8159 26.1343 17.445 26.1343H17.1517Z" fill="#DC244C"/>
<defs>
<linearGradient id="paint0_linear_685_460" x1="24" y1="-29.3333" x2="24" y2="39" gradientUnits="userSpaceOnUse">
<stop stop-color="white"/>
<stop offset="1" stop-color="#28324D"/>
</linearGradient>
</defs>
</svg>
