<svg width="24" height="24" viewBox="0 0 24 24" fill="none" xmlns="http://www.w3.org/2000/svg">
<path fill-rule="evenodd" clip-rule="evenodd" d="M3 10C3 6.13401 6.13401 3 10 3C13.866 3 17 6.13401 17 10C17 11.9164 16.2299 13.6529 14.9823 14.917C14.971 14.9273 14.9598 14.938 14.9489 14.9489C14.938 14.9598 14.9273 14.971 14.917 14.9823C13.6529 16.2299 11.9164 17 10 17C6.13401 17 3 13.866 3 10ZM15.6177 17.0319C14.078 18.2635 12.125 19 10 19C5.02944 19 1 14.9706 1 10C1 5.02944 5.02944 1 10 1C14.9706 1 19 5.02944 19 10C19 12.125 18.2635 14.078 17.0319 15.6177L22.7071 21.2929C23.0976 21.6834 23.0976 22.3166 22.7071 22.7071C22.3166 23.0976 21.6834 23.0976 21.2929 22.7071L15.6177 17.0319Z" fill="#161E33"/>
</svg>
