<svg width="24" height="24" viewBox="0 0 24 24" fill="none" xmlns="http://www.w3.org/2000/svg">
<g clip-path="url(#clip0_1484_9125)">
<path d="M17.567 10.9C17.7367 10.9817 17.9261 11.0137 18.1133 10.9925C18.3005 10.9713 18.4779 10.8976 18.625 10.78L23.625 6.77997C23.7422 6.68629 23.8367 6.56745 23.9017 6.43226C23.9667 6.29706 24.0005 6.14898 24.0005 5.99897C24.0005 5.84897 23.9667 5.70088 23.9017 5.56569C23.8367 5.4305 23.7422 5.31166 23.625 5.21797L18.625 1.21797C18.4778 1.10015 18.3004 1.02632 18.1131 1.00501C17.9258 0.983695 17.7362 1.01576 17.5664 1.09751C17.3965 1.17925 17.2532 1.30735 17.153 1.46703C17.0528 1.62671 16.9997 1.81146 17 1.99997V4.99997H12.937C12.498 5.0006 12.0646 5.09755 11.6671 5.28399C11.2697 5.47043 10.9181 5.7418 10.637 6.07897L6.531 11H1C0.734784 11 0.48043 11.1053 0.292893 11.2929C0.105357 11.4804 0 11.7348 0 12C0 12.2652 0.105357 12.5195 0.292893 12.7071C0.48043 12.8946 0.734784 13 1 13H6.531L10.631 17.921C10.9127 18.2589 11.2654 18.5308 11.6639 18.7172C12.0624 18.9037 12.497 19.0002 12.937 19H17V22C16.9999 22.1884 17.0531 22.373 17.1534 22.5326C17.2537 22.6921 17.397 22.82 17.5668 22.9017C17.7367 22.9833 17.9261 23.0153 18.1133 22.9939C18.3005 22.9726 18.4779 22.8987 18.625 22.781L23.625 18.781C23.7422 18.6873 23.8367 18.5684 23.9017 18.4333C23.9667 18.2981 24.0005 18.15 24.0005 18C24.0005 17.85 23.9667 17.7019 23.9017 17.5667C23.8367 17.4315 23.7422 17.3127 23.625 17.219L18.625 13.219C18.4779 13.1012 18.3005 13.0274 18.1133 13.006C17.9261 12.9847 17.7367 13.0167 17.5668 13.0983C17.397 13.1799 17.2537 13.3079 17.1534 13.4674C17.0531 13.6269 16.9999 13.8115 17 14V17H12.937C12.7903 17.0001 12.6453 16.9679 12.5124 16.9056C12.3795 16.8434 12.2619 16.7527 12.168 16.64L8.3 12L12.166 7.35997C12.2601 7.24696 12.378 7.1561 12.5113 7.09388C12.6446 7.03165 12.7899 6.99959 12.937 6.99997H17V9.99997C17.0003 10.1881 17.0536 10.3724 17.1539 10.5316C17.2542 10.6908 17.3974 10.8185 17.567 10.9Z" fill="#161E33"/>
</g>
<defs>
<clipPath id="clip0_1484_9125">
<rect width="24" height="24" fill="white"/>
</clipPath>
</defs>
</svg>
