<svg width="24" height="24" viewBox="0 0 24 24" fill="none" xmlns="http://www.w3.org/2000/svg">
<g clip-path="url(#clip0_5389_2003)">
<path fill-rule="evenodd" clip-rule="evenodd" d="M4 0C3.44772 0 3 0.447715 3 1V3H1C0.447715 3 0 3.44772 0 4C0 4.55228 0.447715 5 1 5H3V7C3 7.55228 3.44772 8 4 8H8C8.55228 8 9 7.55228 9 7V1C9 0.447715 8.55228 0 8 0H4ZM5 6H7V2H5V4V6ZM11 4C11 3.44772 11.4477 3 12 3H23C23.5523 3 24 3.44772 24 4C24 4.55228 23.5523 5 23 5H12C11.4477 5 11 4.55228 11 4ZM21 12C21 11.4477 21.4477 11 22 11H23C23.5523 11 24 11.4477 24 12C24 12.5523 23.5523 13 23 13H22C21.4477 13 21 12.5523 21 12ZM1 11C0.447715 11 0 11.4477 0 12C0 12.5523 0.447715 13 1 13H13V15C13 15.5523 13.4477 16 14 16H18C18.5523 16 19 15.5523 19 15V9C19 8.44771 18.5523 8 18 8H14C13.4477 8 13 8.44771 13 9V11H1ZM17 14H15V12V10H17V14ZM12 19C11.4477 19 11 19.4477 11 20C11 20.5523 11.4477 21 12 21H23C23.5523 21 24 20.5523 24 20C24 19.4477 23.5523 19 23 19H12ZM0 20C0 19.4477 0.447715 19 1 19H3V17C3 16.4477 3.44772 16 4 16H8C8.55228 16 9 16.4477 9 17V23C9 23.5523 8.55228 24 8 24H4C3.44772 24 3 23.5523 3 23V21H1C0.447715 21 0 20.5523 0 20ZM5 20V18H7V22H5V20Z" fill="#161E33"/>
</g>
<defs>
<clipPath id="clip0_5389_2003">
<rect width="24" height="24" fill="white"/>
</clipPath>
</defs>
</svg>
