<svg width="24" height="24" viewBox="0 0 24 24" fill="none" xmlns="http://www.w3.org/2000/svg">
<path d="M12 22C17.5228 22 22 17.5228 22 12C22 6.47715 17.5228 2 12 2" stroke="#161E33" stroke-width="2" stroke-linecap="round" stroke-linejoin="round"/>
<path d="M1 12C1 12.5523 1.44772 13 2 13C2.55228 13 3 12.5523 3 12C3 11.4477 2.55228 11 2 11C1.44772 11 1 11.4477 1 12Z" fill="#161E33"/>
<path d="M6.50017 21.5263C6.97846 21.8024 7.59005 21.6386 7.86619 21.1603C8.14234 20.682 7.97846 20.0704 7.50017 19.7943C7.02187 19.5181 6.41028 19.682 6.13414 20.1603C5.858 20.6386 6.02187 21.2502 6.50017 21.5263Z" fill="#161E33"/>
<path d="M2.4735 6.50005C2.19736 6.97834 2.36123 7.58993 2.83952 7.86607C3.31782 8.14222 3.92941 7.97834 4.20555 7.50005C4.48169 7.02175 4.31782 6.41016 3.83952 6.13402C3.36123 5.85788 2.74964 6.02175 2.4735 6.50005Z" fill="#161E33"/>
<path d="M2.4735 17.5001C2.74964 17.9784 3.36123 18.1423 3.83952 17.8661C4.31782 17.59 4.48169 16.9784 4.20555 16.5001C3.92941 16.0218 3.31782 15.8579 2.83952 16.1341C2.36123 16.4102 2.19736 17.0218 2.4735 17.5001Z" fill="#161E33"/>
<path d="M6.50017 2.47374C6.02188 2.74988 5.858 3.36147 6.13415 3.83976C6.41029 4.31806 7.02188 4.48193 7.50017 4.20579C7.97847 3.92965 8.14234 3.31806 7.8662 2.83976C7.59006 2.36147 6.97847 2.1976 6.50017 2.47374Z" fill="#161E33"/>
<path d="M12 12V17" stroke="#161E33" stroke-width="2" stroke-linecap="round" stroke-linejoin="round"/>
</svg>
