<svg width="24" height="24" viewBox="0 0 24 24" fill="none" xmlns="http://www.w3.org/2000/svg">
<path d="M20 8C19.8011 8 19.6103 7.92098 19.4697 7.78033C19.329 7.63968 19.25 7.44891 19.25 7.25C19.25 6.85218 19.092 6.47064 18.8107 6.18934C18.5294 5.90804 18.1478 5.75 17.75 5.75C17.5511 5.75 17.3603 5.67098 17.2197 5.53033C17.079 5.38968 17 5.19891 17 5C17 4.80109 17.079 4.61032 17.2197 4.46967C17.3603 4.32902 17.5511 4.25 17.75 4.25C18.1478 4.25 18.5294 4.09196 18.8107 3.81066C19.092 3.52936 19.25 3.14782 19.25 2.75C19.25 2.55109 19.329 2.36032 19.4697 2.21967C19.6103 2.07902 19.8011 2 20 2C20.1989 2 20.3897 2.07902 20.5303 2.21967C20.671 2.36032 20.75 2.55109 20.75 2.75C20.75 3.14782 20.908 3.52936 21.1893 3.81066C21.4706 4.09196 21.8522 4.25 22.25 4.25C22.4489 4.25 22.6397 4.32902 22.7803 4.46967C22.921 4.61032 23 4.80109 23 5C23 5.19891 22.921 5.38968 22.7803 5.53033C22.6397 5.67098 22.4489 5.75 22.25 5.75C21.8522 5.75 21.4706 5.90804 21.1893 6.18934C20.908 6.47064 20.75 6.85218 20.75 7.25C20.75 7.44891 20.671 7.63968 20.5303 7.78033C20.3897 7.92098 20.1989 8 20 8Z" fill="#161E33"/>
<path d="M4 24C3.80109 24 3.61032 23.921 3.46967 23.7803C3.32902 23.6397 3.25 23.4489 3.25 23.25C3.25 22.8522 3.09196 22.4706 2.81066 22.1893C2.52936 21.908 2.14782 21.75 1.75 21.75C1.55109 21.75 1.36032 21.671 1.21967 21.5303C1.07902 21.3897 1 21.1989 1 21C1 20.8011 1.07902 20.6103 1.21967 20.4697C1.36032 20.329 1.55109 20.25 1.75 20.25C2.14782 20.25 2.52936 20.092 2.81066 19.8107C3.09196 19.5294 3.25 19.1478 3.25 18.75C3.25 18.5511 3.32902 18.3603 3.46967 18.2197C3.61032 18.079 3.80109 18 4 18C4.19891 18 4.38968 18.079 4.53033 18.2197C4.67098 18.3603 4.75 18.5511 4.75 18.75C4.75 19.1478 4.90804 19.5294 5.18934 19.8107C5.47064 20.092 5.85218 20.25 6.25 20.25C6.44891 20.25 6.63968 20.329 6.78033 20.4697C6.92098 20.6103 7 20.8011 7 21C7 21.1989 6.92098 21.3897 6.78033 21.5303C6.63968 21.671 6.44891 21.75 6.25 21.75C5.85218 21.75 5.47064 21.908 5.18934 22.1893C4.90804 22.4706 4.75 22.8522 4.75 23.25C4.75 23.4489 4.67098 23.6397 4.53033 23.7803C4.38968 23.921 4.19891 24 4 24Z" fill="#161E33"/>
<path d="M17 24C16.7348 24 16.4804 23.8946 16.2929 23.7071C16.1054 23.5196 16 23.2652 16 23C16 21.9391 15.5786 20.9217 14.8284 20.1716C14.0783 19.4214 13.0609 19 12 19C11.7348 19 11.4804 18.8946 11.2929 18.7071C11.1054 18.5196 11 18.2652 11 18C11 17.7348 11.1054 17.4804 11.2929 17.2929C11.4804 17.1054 11.7348 17 12 17C13.0609 17 14.0783 16.5786 14.8284 15.8284C15.5786 15.0783 16 14.0609 16 13C16 12.7348 16.1054 12.4804 16.2929 12.2929C16.4804 12.1054 16.7348 12 17 12C17.2652 12 17.5196 12.1054 17.7071 12.2929C17.8946 12.4804 18 12.7348 18 13C18 14.0609 18.4214 15.0783 19.1716 15.8284C19.9217 16.5786 20.9391 17 22 17C22.2652 17 22.5196 17.1054 22.7071 17.2929C22.8946 17.4804 23 17.7348 23 18C23 18.2652 22.8946 18.5196 22.7071 18.7071C22.5196 18.8946 22.2652 19 22 19C20.9391 19 19.9217 19.4214 19.1716 20.1716C18.4214 20.9217 18 21.9391 18 23C18 23.2652 17.8946 23.5196 17.7071 23.7071C17.5196 23.8946 17.2652 24 17 24Z" fill="#161E33"/>
<path d="M7 14C6.73478 14 6.48043 13.8946 6.29289 13.7071C6.10536 13.5196 6 13.2652 6 13C6 11.9391 5.57857 10.9217 4.82843 10.1716C4.07828 9.42143 3.06087 9 2 9C1.73478 9 1.48043 8.89464 1.29289 8.70711C1.10536 8.51957 1 8.26522 1 8C1 7.73478 1.10536 7.48043 1.29289 7.29289C1.48043 7.10536 1.73478 7 2 7C3.06087 7 4.07828 6.57857 4.82843 5.82843C5.57857 5.07828 6 4.06087 6 3C6 2.73478 6.10536 2.48043 6.29289 2.29289C6.48043 2.10536 6.73478 2 7 2C7.26522 2 7.51957 2.10536 7.70711 2.29289C7.89464 2.48043 8 2.73478 8 3C8 4.06087 8.42143 5.07828 9.17157 5.82843C9.92172 6.57857 10.9391 7 12 7C12.2652 7 12.5196 7.10536 12.7071 7.29289C12.8946 7.48043 13 7.73478 13 8C13 8.26522 12.8946 8.51957 12.7071 8.70711C12.5196 8.89464 12.2652 9 12 9C10.9391 9 9.92172 9.42143 9.17157 10.1716C8.42143 10.9217 8 11.9391 8 13C8 13.2652 7.89464 13.5196 7.70711 13.7071C7.51957 13.8946 7.26522 14 7 14Z" fill="#161E33"/>
</svg>
