<svg width="24" height="24" viewBox="0 0 24 24" fill="none" xmlns="http://www.w3.org/2000/svg">
<g clip-path="url(#clip0_5875_33917)">
<path fill-rule="evenodd" clip-rule="evenodd" d="M3.5142 3.51481C8.19461 -1.16561 15.7794 -1.17143 20.4671 3.49733C20.4709 3.50099 20.4748 3.50469 20.4786 3.50842C20.4807 3.51056 20.4829 3.51272 20.4851 3.51488C20.491 3.52084 20.4969 3.52686 20.5027 3.53293C25.1649 8.21462 25.1648 15.7856 20.5026 20.4672C20.4968 20.4732 20.491 20.4792 20.4851 20.4851C20.4792 20.491 20.4732 20.4968 20.4672 20.5026C15.7796 25.1714 8.19465 25.1657 3.5142 20.4852C-1.17205 15.799 -1.17205 8.20105 3.5142 3.51481ZM4.25648 18.3293C1.24716 14.6569 1.24716 9.34312 4.25648 5.67068L7.1087 8.5229C5.62991 10.5977 5.62991 13.4023 7.1087 15.4771L4.25648 18.3293ZM8.52299 16.8912L5.67076 19.7435C9.34316 22.7522 14.6565 22.7521 18.3287 19.7429L15.4766 16.8909C13.402 18.3695 10.5977 18.3696 8.52299 16.8912ZM16.8908 15.4766L19.7428 18.3287C22.7515 14.6565 22.7515 9.34353 19.7428 5.67133L16.8908 8.52341C18.3691 10.598 18.3691 13.4021 16.8908 15.4766ZM15.4766 7.10913L18.3287 4.25707C14.6565 1.24796 9.34316 1.24778 5.67076 4.25653L8.52299 7.10876C10.5977 5.63038 13.402 5.6305 15.4766 7.10913ZM9.17115 14.8284C7.60907 13.2663 7.60907 10.7337 9.17115 9.17161C10.7332 7.60952 13.2659 7.60952 14.8279 9.17161C16.39 10.7337 16.39 13.2663 14.8279 14.8284C13.2659 16.3905 10.7332 16.3905 9.17115 14.8284Z" fill="#161E33"/>
</g>
<defs>
<clipPath id="clip0_5875_33917">
<rect width="24" height="24" fill="white"/>
</clipPath>
</defs>
</svg>
