<svg width="48" height="48" viewBox="0 0 48 48" fill="none" xmlns="http://www.w3.org/2000/svg">
<path d="M38 46V42L45.123 33.1C45.6908 32.3905 46.0001 31.5088 46 30.6V19C46 18.2044 45.6839 17.4413 45.1213 16.8787C44.5587 16.3161 43.7956 16 43 16C42.2044 16 41.4413 16.3161 40.8787 16.8787C40.3161 17.4413 40 18.2044 40 19V26" stroke="url(#paint0_linear_630_1106)" stroke-width="2" stroke-linecap="round" stroke-linejoin="round"/>
<path d="M28 46V35.657C28 35.1316 28.1035 34.6113 28.3046 34.1259C28.5057 33.6405 28.8004 33.1995 29.172 32.828L36 26C36.2626 25.7373 36.5744 25.5289 36.9176 25.3867C37.2607 25.2446 37.6285 25.1714 38 25.1714C38.3715 25.1714 38.7393 25.2446 39.0824 25.3867C39.4256 25.5289 39.7374 25.7373 40 26C40.2627 26.2626 40.4711 26.5744 40.6133 26.9176C40.7554 27.2607 40.8286 27.6285 40.8286 28C40.8286 28.3714 40.7554 28.7393 40.6133 29.0824C40.4711 29.4256 40.2627 29.7374 40 30L34 36" stroke="url(#paint1_linear_630_1106)" stroke-width="2" stroke-linecap="round" stroke-linejoin="round"/>
<path d="M10 46V42L2.877 33.1C2.30917 32.3905 1.99986 31.5088 2 30.6V19C2 18.2044 2.31607 17.4413 2.87868 16.8787C3.44129 16.3161 4.20435 16 5 16C5.79565 16 6.55871 16.3161 7.12132 16.8787C7.68393 17.4413 8 18.2044 8 19V26" stroke="url(#paint2_linear_630_1106)" stroke-width="2" stroke-linecap="round" stroke-linejoin="round"/>
<path d="M20 46V35.657C20 35.1316 19.8965 34.6113 19.6954 34.1259C19.4943 33.6405 19.1996 33.1995 18.828 32.828L12 26C11.7374 25.7373 11.4256 25.5289 11.0824 25.3867C10.7393 25.2446 10.3714 25.1714 9.99999 25.1714C9.62854 25.1714 9.26073 25.2446 8.91756 25.3867C8.5744 25.5289 8.26261 25.7373 7.99999 26C7.7373 26.2626 7.52891 26.5744 7.38674 26.9176C7.24456 27.2607 7.17139 27.6285 7.17139 28C7.17139 28.3714 7.24456 28.7393 7.38674 29.0824C7.52891 29.4256 7.7373 29.7374 7.99999 30L14 36" stroke="url(#paint3_linear_630_1106)" stroke-width="2" stroke-linecap="round" stroke-linejoin="round"/>
<path d="M13 13H35" stroke="#DC244C" stroke-width="2" stroke-miterlimit="10"/>
<path d="M24 24C30.0751 24 35 19.0751 35 13C35 6.92487 30.0751 2 24 2C17.9249 2 13 6.92487 13 13C13 19.0751 17.9249 24 24 24Z" stroke="#DC244C" stroke-width="2" stroke-miterlimit="10" stroke-linecap="square"/>
<path d="M24.0001 24C26.6036 24 28.7141 19.0751 28.7141 13C28.7141 6.92487 26.6036 2 24.0001 2C21.3967 2 19.2861 6.92487 19.2861 13C19.2861 19.0751 21.3967 24 24.0001 24Z" stroke="#DC244C" stroke-width="2" stroke-miterlimit="10" stroke-linecap="square"/>
<defs>
<linearGradient id="paint0_linear_630_1106" x1="42" y1="16" x2="42" y2="46" gradientUnits="userSpaceOnUse">
<stop stop-color="#717C99"/>
<stop offset="1" stop-color="#161E33"/>
</linearGradient>
<linearGradient id="paint1_linear_630_1106" x1="34.4143" y1="25.1714" x2="34.4143" y2="46" gradientUnits="userSpaceOnUse">
<stop stop-color="#717C99"/>
<stop offset="1" stop-color="#161E33"/>
</linearGradient>
<linearGradient id="paint2_linear_630_1106" x1="6" y1="16" x2="6" y2="46" gradientUnits="userSpaceOnUse">
<stop stop-color="#717C99"/>
<stop offset="1" stop-color="#161E33"/>
</linearGradient>
<linearGradient id="paint3_linear_630_1106" x1="13.5857" y1="25.1714" x2="13.5857" y2="46" gradientUnits="userSpaceOnUse">
<stop stop-color="#717C99"/>
<stop offset="1" stop-color="#161E33"/>
</linearGradient>
</defs>
</svg>
