<svg width="24" height="24" viewBox="0 0 24 24" fill="none" xmlns="http://www.w3.org/2000/svg">
<path fill-rule="evenodd" clip-rule="evenodd" d="M3 5.5C3 3.567 4.567 2 6.5 2C8.433 2 10 3.567 10 5.5C10 7.433 8.433 9 6.5 9C4.567 9 3 7.433 3 5.5ZM6.5 11C3.46243 11 1 8.53757 1 5.5C1 2.46243 3.46243 0 6.5 0H17.5C20.5523 0 23 2.44772 23 5.5C23 8.55228 20.5523 11 17.5 11H6.5ZM10.7428 2H17.5C19.4477 2 21 3.55228 21 5.5C21 7.44772 19.4477 9 17.5 9H10.7428C11.5282 8.04906 12 6.82963 12 5.5C12 4.17037 11.5282 2.95094 10.7428 2ZM6.5 15C4.55228 15 3 16.5523 3 18.5C3 20.4477 4.55228 22 6.5 22H13.2572C12.4718 21.0491 12 19.8296 12 18.5C12 17.1704 12.4718 15.9509 13.2572 15H6.5ZM17.5 15C15.567 15 14 16.567 14 18.5C14 20.433 15.567 22 17.5 22C19.433 22 21 20.433 21 18.5C21 16.567 19.433 15 17.5 15ZM17.5 24C20.5376 24 23 21.5376 23 18.5C23 15.4624 20.5376 13 17.5 13H6.5C3.44772 13 1 15.4477 1 18.5C1 21.5523 3.44772 24 6.5 24H17.5Z" fill="#161E33"/>
</svg>
