<svg width="24" height="24" viewBox="0 0 24 24" fill="none" xmlns="http://www.w3.org/2000/svg">
<path d="M15.4289 0H8.57174V2.28571H15.4289V0ZM10.8575 14.8571H13.1432V8H10.8575V14.8571ZM20.0346 7.30286L21.6575 5.68C21.166 5.09714 20.6289 4.54857 20.046 4.06857L18.4232 5.69143C16.603 4.22666 14.3367 3.42822 12.0003 3.42857C9.27237 3.42857 6.65616 4.51224 4.72721 6.44119C2.79827 8.37013 1.7146 10.9863 1.7146 13.7143C1.7146 19.3943 6.30888 24 12.0003 24C13.9367 24.001 15.8339 23.4551 17.4736 22.4251C19.1133 21.3951 20.4286 19.9228 21.2682 18.178C22.1078 16.4331 22.4375 14.4866 22.2192 12.5626C22.001 10.6386 21.2437 8.81533 20.0346 7.30286ZM12.0003 21.7143C7.57746 21.7143 4.00031 18.1371 4.00031 13.7143C4.00031 9.29143 7.57746 5.71429 12.0003 5.71429C16.4232 5.71429 20.0003 9.29143 20.0003 13.7143C20.0003 18.1371 16.4232 21.7143 12.0003 21.7143Z" fill="#161E33"/>
</svg>
