<svg width="48" height="48" viewBox="0 0 48 48" fill="none" xmlns="http://www.w3.org/2000/svg">
<path d="M12.536 42.39C13.798 41.457 14.766 39.086 14.766 39.086C14.766 39.086 15.856 38.329 16.197 37.363C16.538 36.397 16.216 35.085 16.216 35.085C16.216 35.085 17.182 32.249 16.727 31.454C16.272 30.659 14.341 30.147 14.341 30.147C14.341 30.147 13.546 28.67 11.898 28.386C10.818 28.272 9.739 27.534 9.739 26C9.739 24.466 11.273 21.966 11.273 21.966C11.273 21.966 12.864 21.188 13.091 20.62C13.318 20.052 13.396 18.728 13.396 18.728C13.396 18.728 14.909 16.058 14.057 14.523C13.785 14.034 12.523 13.671 12.523 13.671L10.753 11.016M39.784 38.284C37.854 37.359 34.478 36.586 34.478 36.586C34.478 36.586 32.011 33.84 30.392 34.067C28.773 34.294 27.125 36.112 27.125 36.112C27.125 36.112 27.239 39.464 26.727 39.635C26.216 39.805 24.852 38.896 24 39.578C23.148 40.26 23.639 42.182 23.639 42.182C23.639 42.182 21.784 42.76 21.557 43.385C21.33 44.01 22.232 45.402 22.404 45.936M26.307 6.137C25.548 6.05 24.782 6 24 6C12.954 6 4 14.954 4 26C4 37.046 12.954 46 24 46C35.046 46 44 37.046 44 26C44 24.646 43.865 23.323 43.609 22.045" stroke="url(#paint0_linear_8032_39258)" stroke-width="2" stroke-linecap="round" stroke-linejoin="round"/>
<path d="M34 14C35.6569 14 37 12.6569 37 11C37 9.34315 35.6569 8 34 8C32.3431 8 31 9.34315 31 11C31 12.6569 32.3431 14 34 14Z" stroke="#DC244C" stroke-width="2" stroke-miterlimit="10" stroke-linecap="square" stroke-linejoin="round"/>
<path d="M43 10.8C43 17 34 25 34 25C34 25 25 17 25 10.8C25 5.231 29.651 2 34 2C38.349 2 43 5.231 43 10.8Z" stroke="#DC244C" stroke-width="2" stroke-miterlimit="10" stroke-linecap="square" stroke-linejoin="round"/>
<defs>
<linearGradient id="paint0_linear_8032_39258" x1="24" y1="-45.1111" x2="24" y2="46" gradientUnits="userSpaceOnUse">
<stop stop-color="white"/>
<stop offset="0.74254" stop-color="#28324D"/>
</linearGradient>
</defs>
</svg>
