<svg width="24" height="24" viewBox="0 0 24 24" fill="none" xmlns="http://www.w3.org/2000/svg">
<g clip-path="url(#clip0_3824_30217)">
<path d="M0 12.0007V24.0007H24.0007V0H0V12.0007ZM19.3414 11.0445C19.9508 11.1968 20.4158 11.4675 20.8425 11.9093C21.0638 12.1455 21.3911 12.576 21.4177 12.6787C21.4252 12.7087 20.3816 13.41 19.749 13.8026C19.7265 13.8176 19.6346 13.719 19.5315 13.5664C19.2229 13.1164 18.8993 12.9225 18.4039 12.8884C17.6764 12.8389 17.2039 13.2199 17.2114 13.8559C17.2114 14.0426 17.2376 14.1529 17.3141 14.3059C17.4743 14.6374 17.7716 14.8354 18.7046 15.2396C20.4229 15.9784 21.1579 16.4659 21.6146 17.1596C22.1246 17.9329 22.2394 19.1674 21.8929 20.0854C21.5119 21.0836 20.5672 21.7616 19.2379 21.9866C18.8265 22.059 17.8511 22.0477 17.4094 21.9679C16.4456 21.7965 15.5314 21.3202 14.9674 20.6955C14.7461 20.4517 14.316 19.8154 14.3426 19.7692C14.3539 19.7542 14.4533 19.6931 14.5639 19.6283L15.4552 19.1145L16.1453 18.7144L16.29 18.9281C16.4917 19.2367 16.9339 19.6594 17.2005 19.8004C17.9662 20.2043 19.0177 20.1469 19.5356 19.6823C19.7569 19.4805 19.848 19.2709 19.848 18.9622C19.848 18.684 19.8143 18.5621 19.6691 18.3529C19.4824 18.0866 19.1014 17.8616 18.0191 17.3929C16.7809 16.8596 16.2476 16.5281 15.7601 16.0024C15.4781 15.6975 15.2115 15.21 15.1009 14.8024C15.0094 14.4634 14.9865 13.6136 15.0589 13.2709C15.3139 12.0709 16.2169 11.2403 17.52 10.9928C17.943 10.9129 18.9263 10.9433 19.341 11.046L19.3414 11.0445ZM13.707 12.0457L13.7145 13.0282H10.5907V21.9045H8.38125V13.0282H5.2575V12.0645L5.28375 11.0745C5.295 11.0595 7.19625 11.052 9.501 11.0557L13.6954 11.067L13.707 12.0457Z" fill="#161E33"/>
</g>
<defs>
<clipPath id="clip0_3824_30217">
<rect width="24" height="24" fill="white"/>
</clipPath>
</defs>
</svg>
