<svg width="24" height="24" viewBox="0 0 24 24" fill="none" xmlns="http://www.w3.org/2000/svg">
<path d="M20.246 2.46423L17.0641 5.62553M14.7914 5.17392L15.246 2.91585M17.5187 7.8836L19.7914 7.43199M13.4588 18.2256L14.3338 13.2998H20.4701C20.8921 13.2998 21.2967 13.1333 21.5951 12.8369C21.8934 12.5404 22.061 12.1384 22.061 11.7192C22.061 11.2999 21.8934 10.8979 21.5951 10.6015C21.2967 10.305 20.8921 10.1385 20.4701 10.1385L9.85285 10.1417C9.669 10.1424 9.48924 10.0877 9.33731 9.98484C9.18537 9.88197 9.06841 9.73574 9.00184 9.56546C8.93528 9.39518 8.92224 9.20885 8.96446 9.03106C9.00668 8.85327 9.10216 8.69237 9.23831 8.56961L11.8747 6.16702C12.1835 5.88571 12.385 5.50707 12.4453 5.09512C12.5055 4.68317 12.4206 4.26321 12.2051 3.90624C12.0428 3.63761 11.7833 3.44075 11.4797 3.35596C11.1761 3.27117 10.8514 3.30485 10.5719 3.45011L2.06104 7.88044V18.7192L10.2169 20.4073C10.5745 20.4813 10.9433 20.4832 11.3015 20.4129C11.6598 20.3426 12.0002 20.2015 12.3025 19.998C12.6049 19.7945 12.863 19.5328 13.0616 19.2283C13.2602 18.9239 13.3953 18.5829 13.4588 18.2256Z" stroke="#161E33" stroke-width="1.80646" stroke-linecap="round" stroke-linejoin="round"/>
</svg>
