<svg width="24" height="24" viewBox="0 0 24 24" fill="none" xmlns="http://www.w3.org/2000/svg">
<path d="M2 4L7 6.5L12 4" stroke="#161E33" stroke-width="2" stroke-linecap="round" stroke-linejoin="round"/>
<path d="M12 4L7 1.5L2 4V10.5L7 13L12 10.5V4Z" stroke="#161E33" stroke-width="2" stroke-linecap="round" stroke-linejoin="round"/>
<path d="M7 6.5V13" stroke="#161E33" stroke-width="2" stroke-linecap="round" stroke-linejoin="round"/>
<path d="M12 4L17 6.5L22 4" stroke="#161E33" stroke-width="2" stroke-linecap="round" stroke-linejoin="round"/>
<path d="M22 4L17 1.5L12 4V10.5L17 13L22 10.5V4Z" stroke="#161E33" stroke-width="2" stroke-linecap="round" stroke-linejoin="round"/>
<path d="M17 6.5V13" stroke="#161E33" stroke-width="2" stroke-linecap="round" stroke-linejoin="round"/>
<path d="M7 13L12 15.5L17 13" stroke="#161E33" stroke-width="2" stroke-linecap="round" stroke-linejoin="round"/>
<path d="M12 15.5V22" stroke="#161E33" stroke-width="2" stroke-linecap="round" stroke-linejoin="round"/>
<path d="M17 13L12 10.5L7 13V19.5L12 22L17 19.5V13Z" stroke="#161E33" stroke-width="2" stroke-linecap="round" stroke-linejoin="round"/>
</svg>
