<svg width="24" height="24" viewBox="0 0 24 24" fill="none" xmlns="http://www.w3.org/2000/svg">
<path d="M9.36009 1.31885C4.87326 2.42411 1.47002 6.28268 1.04492 11H5.61837C5.82017 7.54946 7.06741 4.1491 9.36009 1.31885Z" fill="#161E33"/>
<path d="M12.0001 22.6245C9.31427 19.952 7.855 16.5093 7.62227 13H16.3779C16.1452 16.5093 14.6859 19.952 12.0001 22.6245Z" fill="#161E33"/>
<path d="M5.61837 13H1.04493C1.47003 17.7173 4.87326 21.5759 9.36009 22.6812C7.06741 19.8509 5.82017 16.4505 5.61837 13Z" fill="#161E33"/>
<path d="M18.3818 13C18.18 16.4505 16.9328 19.8509 14.6401 22.6812C19.1269 21.5759 22.5302 17.7173 22.9553 13H18.3818Z" fill="#161E33"/>
<path d="M7.62227 11C7.855 7.49066 9.31427 4.04804 12.0001 1.37555C14.6859 4.04804 16.1452 7.49066 16.3779 11H7.62227Z" fill="#161E33"/>
<path d="M14.6401 1.31885C16.9328 4.1491 18.18 7.54946 18.3818 11H22.9553C22.5302 6.28268 19.1269 2.42411 14.6401 1.31885Z" fill="#161E33"/>
</svg>
