<svg width="48" height="48" viewBox="0 0 48 48" fill="none" xmlns="http://www.w3.org/2000/svg">
<path d="M38 45.9981V35.7231C40.4862 33.6978 42.4193 31.0763 43.6194 28.1026C44.8194 25.1289 45.2473 21.8999 44.8632 18.7163C44.4791 15.5328 43.2955 12.4982 41.4226 9.89525C39.5498 7.29233 37.0486 5.20577 34.1521 3.82992C31.2556 2.45407 28.0579 1.8337 24.8571 2.0266C21.6562 2.21949 18.5562 3.21938 15.8459 4.93311C13.1356 6.64685 10.9031 9.01868 9.35633 11.8277C7.80962 14.6367 6.999 17.7914 7 20.9981V22.9981L3 31.9981L7 33.9981V41.9981C7 43.059 7.42143 44.0764 8.17157 44.8265C8.92172 45.5767 9.93913 45.9981 11 45.9981H19C20.3132 45.9981 21.6136 45.7395 22.8268 45.2369C24.0401 44.7344 25.1425 43.9978 26.0711 43.0692C26.9997 42.1406 27.7362 41.0382 28.2388 39.8249C28.7413 38.6117 29 37.3113 29 35.9981V24.9981" stroke="url(#paint0_linear_10035_44718)" stroke-width="2" stroke-linecap="round" stroke-linejoin="round"/>
<path d="M36.0709 28.0678C37.9462 26.1924 38.9997 23.6489 38.9997 20.9968C38.9997 18.3446 37.9462 15.8011 36.0709 13.9258M21.9289 13.9258C20.0535 15.8011 19 18.3446 19 20.9968C19 23.6489 20.0535 26.1924 21.9289 28.0678M32.9999 20.9968C32.9999 23.2059 31.209 24.9968 28.9999 24.9968C26.7907 24.9968 24.9999 23.2059 24.9999 20.9968C24.9999 18.7876 26.7907 16.9968 28.9999 16.9968C31.209 16.9968 32.9999 18.7876 32.9999 20.9968Z" stroke="#DC244C" stroke-width="2" stroke-miterlimit="10" stroke-linecap="square"/>
<defs>
<linearGradient id="paint0_linear_10035_44718" x1="24" y1="-54.2376" x2="24" y2="45.9981" gradientUnits="userSpaceOnUse">
<stop stop-color="white"/>
<stop offset="1" stop-color="#28324D"/>
</linearGradient>
</defs>
</svg>
