<svg width="48" height="48" viewBox="0 0 48 48" fill="none" xmlns="http://www.w3.org/2000/svg">
<path d="M12 30.501C12.5521 30.501 12.9998 30.9489 13 31.501V36.751C13 37.0161 12.8944 37.2705 12.707 37.458L8.82812 41.3369C8.4376 41.7274 7.80459 41.7274 7.41406 41.3369C7.02377 40.9464 7.02362 40.3133 7.41406 39.9229L11 36.3369V31.501C11.0002 30.9489 11.4479 30.501 12 30.501ZM36 30.501C36.5521 30.501 36.9998 30.9489 37 31.501V36.3369L40.5859 39.9229C40.9764 40.3133 40.9762 40.9464 40.5859 41.3369C40.1954 41.7274 39.5624 41.7274 39.1719 41.3369L35.293 37.458C35.1056 37.2705 35 37.0161 35 36.751V31.501C35.0002 30.9489 35.4479 30.501 36 30.501ZM24 30.501C24.5521 30.501 24.9998 30.9489 25 31.501V39.751C25 40.3033 24.5523 40.751 24 40.751C23.4477 40.751 23 40.3033 23 39.751V31.501C23.0002 30.9489 23.4479 30.501 24 30.501ZM24 1.25C26.946 1.25 29.814 2.19627 32.1816 3.94922C34.3414 5.54827 35.9785 7.74239 36.9023 10.2539C39.3005 10.2934 41.5922 11.2622 43.291 12.9609C45.0255 14.6955 45.9999 17.048 46 19.501C46 21.9541 45.0256 24.3073 43.291 26.042C41.5563 27.7767 39.2033 28.751 36.75 28.751H11.25C8.79675 28.751 6.4437 27.7767 4.70898 26.042C2.97442 24.3073 2 21.9541 2 19.501C2.00012 17.048 2.97454 14.6955 4.70898 12.9609C6.40752 11.2624 8.69891 10.2936 11.0967 10.2539C12.0205 7.74226 13.6586 5.54833 15.8184 3.94922C18.186 2.19627 21.054 1.25 24 1.25ZM24 3.25C21.4825 3.25 19.0311 4.05857 17.0078 5.55664C14.9846 7.0547 13.4964 9.16341 12.7617 11.5713C12.6261 12.0156 12.2018 12.3082 11.7383 12.2773C11.5342 12.2637 11.3944 12.251 11.25 12.251C9.32718 12.251 7.48269 13.0154 6.12305 14.375C4.76368 15.7345 4.00012 17.5784 4 19.501C4 21.4237 4.76355 23.2683 6.12305 24.6279C7.48269 25.9876 9.32718 26.751 11.25 26.751H36.75C38.6728 26.751 40.5173 25.9876 41.877 24.6279C43.2365 23.2683 44 21.4237 44 19.501C43.9999 17.5784 43.2363 15.7345 41.877 14.375C40.5173 13.0154 38.6728 12.251 36.75 12.251C36.6052 12.251 36.4707 12.2636 36.2598 12.2773C35.7969 12.3074 35.3737 12.015 35.2383 11.5713C34.5036 9.16341 33.0154 7.0547 30.9922 5.55664C28.9689 4.05857 26.5175 3.25 24 3.25Z" fill="url(#paint0_linear_10035_44742)"/>
<path d="M6 45.75C7.65685 45.75 9 44.4069 9 42.75C9 41.0931 7.65685 39.75 6 39.75C4.34315 39.75 3 41.0931 3 42.75C3 44.4069 4.34315 45.75 6 45.75Z" stroke="#DC244C" stroke-width="2" stroke-linecap="round" stroke-linejoin="round"/>
<path d="M24 45.75C25.6569 45.75 27 44.4069 27 42.75C27 41.0931 25.6569 39.75 24 39.75C22.3431 39.75 21 41.0931 21 42.75C21 44.4069 22.3431 45.75 24 45.75Z" stroke="#DC244C" stroke-width="2" stroke-linecap="round" stroke-linejoin="round"/>
<path d="M42 45.75C43.6569 45.75 45 44.4069 45 42.75C45 41.0931 43.6569 39.75 42 39.75C40.3431 39.75 39 41.0931 39 42.75C39 44.4069 40.3431 45.75 42 45.75Z" stroke="#DC244C" stroke-width="2" stroke-linecap="round" stroke-linejoin="round"/>
<defs>
<linearGradient id="paint0_linear_10035_44742" x1="24" y1="-6.16513" x2="24" y2="41.6298" gradientUnits="userSpaceOnUse">
<stop stop-color="white"/>
<stop offset="0.416128" stop-color="#28324D"/>
</linearGradient>
</defs>
</svg>
