<svg width="540" height="360" viewBox="0 0 540 360" fill="none" xmlns="http://www.w3.org/2000/svg">
<rect x="16" y="16" width="480" height="320" rx="8" fill="url(#paint0_linear_1799_14013)"/>
<mask id="path-2-inside-1_1799_14013" fill="white">
<path d="M16 16H496V40H16V16Z"/>
</mask>
<path d="M496 39H16V41H496V39Z" fill="#28324D" mask="url(#path-2-inside-1_1799_14013)"/>
<circle cx="31" cy="28" r="3" fill="#DC244C"/>
<circle cx="41" cy="28" r="3" fill="#3D4866"/>
<circle cx="51" cy="28" r="3" fill="#038585"/>
<circle cx="483" cy="25" r="1" fill="#3D4866"/>
<circle cx="483" cy="28" r="1" fill="#3D4866"/>
<circle cx="483" cy="31" r="1" fill="#3D4866"/>
<rect x="48.5" y="56.5" width="415" height="31" rx="15.5" stroke="#28324D"/>
<g clip-path="url(#clip0_1799_14013)">
<path d="M78.6659 78.6668L74.4365 74.4375" stroke="#E1E5F0" stroke-linecap="round" stroke-linejoin="round"/>
<path d="M70.6663 76.0002C73.6119 76.0002 75.9997 73.6123 75.9997 70.6668C75.9997 67.7213 73.6119 65.3335 70.6663 65.3335C67.7208 65.3335 65.333 67.7213 65.333 70.6668C65.333 73.6123 67.7208 76.0002 70.6663 76.0002Z" stroke="#E1E5F0" stroke-linecap="round" stroke-linejoin="round"/>
</g>
<path d="M95.592 73.316H92.184V77H91.008V68.324H96.24V69.404H92.184V72.248H95.592V73.316ZM100.469 71.084V72.116H99.965C98.897 72.116 98.237 72.764 98.237 73.892V77H97.109V71.144H98.165L98.237 72.032C98.477 71.42 99.065 71.012 99.869 71.012C100.073 71.012 100.241 71.036 100.469 71.084ZM105.583 71.132H106.699V77H105.691L105.571 76.112C105.235 76.724 104.455 77.144 103.591 77.144C102.223 77.144 101.455 76.22 101.455 74.78V71.132H102.583V74.408C102.583 75.668 103.123 76.148 103.987 76.148C105.019 76.148 105.583 75.488 105.583 74.228V71.132ZM108.888 69.74C108.48 69.74 108.144 69.404 108.144 68.996C108.144 68.576 108.48 68.252 108.888 68.252C109.296 68.252 109.632 68.576 109.632 68.996C109.632 69.404 109.296 69.74 108.888 69.74ZM108.336 77V71.132H109.464V77H108.336ZM112.757 77H111.629V72.08H110.477V71.132H111.629V69.296H112.757V71.132H113.909V72.08H112.757V77ZM114.441 75.296H115.521C115.521 75.896 115.977 76.256 116.721 76.256C117.513 76.256 117.969 75.932 117.969 75.392C117.969 74.996 117.777 74.756 117.165 74.6L116.133 74.36C115.089 74.108 114.597 73.592 114.597 72.728C114.597 71.648 115.509 70.964 116.805 70.964C118.089 70.964 118.929 71.684 118.953 72.8H117.873C117.849 72.212 117.453 71.84 116.769 71.84C116.061 71.84 115.665 72.152 115.665 72.692C115.665 73.088 115.953 73.352 116.529 73.496L117.561 73.748C118.557 73.988 119.049 74.444 119.049 75.32C119.049 76.436 118.089 77.144 116.697 77.144C115.317 77.144 114.441 76.412 114.441 75.296ZM125.298 77.144C124.038 77.144 123.294 76.436 123.294 75.368C123.294 74.288 124.098 73.616 125.478 73.508L127.326 73.364V73.196C127.326 72.212 126.738 71.864 125.946 71.864C124.998 71.864 124.458 72.284 124.458 72.992H123.474C123.474 71.768 124.482 70.964 125.994 70.964C127.446 70.964 128.43 71.732 128.43 73.316V77H127.47L127.35 76.052C127.05 76.724 126.246 77.144 125.298 77.144ZM125.622 76.268C126.69 76.268 127.338 75.572 127.338 74.468V74.156L125.838 74.276C124.842 74.372 124.434 74.756 124.434 75.332C124.434 75.956 124.89 76.268 125.622 76.268ZM131.12 77H129.992V71.132H131.012L131.132 72.032C131.504 71.36 132.248 70.964 133.076 70.964C134.624 70.964 135.332 71.912 135.332 73.412V77H134.204V73.664C134.204 72.476 133.652 71.996 132.788 71.996C131.732 71.996 131.12 72.752 131.12 73.892V77ZM139.246 77.144C137.542 77.144 136.51 75.872 136.51 74.084C136.51 72.284 137.554 70.964 139.294 70.964C140.194 70.964 140.95 71.36 141.346 72.08V68.168H142.462V77H141.454L141.358 75.932C140.974 76.736 140.182 77.144 139.246 77.144ZM139.474 76.124C140.626 76.124 141.334 75.272 141.334 74.048C141.334 72.848 140.626 71.984 139.474 71.984C138.322 71.984 137.65 72.848 137.65 74.048C137.65 75.26 138.322 76.124 139.474 76.124ZM149.015 77L146.651 71.132H147.851L149.135 74.408C149.339 74.96 149.507 75.452 149.603 75.812C149.699 75.428 149.891 74.924 150.095 74.408L151.403 71.132H152.579L150.131 77H149.015ZM155.739 77.144C154.011 77.144 152.823 75.896 152.823 74.072C152.823 72.236 153.987 70.964 155.691 70.964C157.359 70.964 158.451 72.116 158.451 73.856V74.276L153.915 74.288C153.999 75.524 154.647 76.208 155.763 76.208C156.639 76.208 157.215 75.848 157.407 75.176H158.463C158.175 76.436 157.191 77.144 155.739 77.144ZM155.691 71.912C154.707 71.912 154.083 72.5 153.939 73.532H157.323C157.323 72.56 156.687 71.912 155.691 71.912ZM159.339 73.916C159.339 72.26 160.407 70.964 162.111 70.964C163.059 70.964 163.791 71.396 164.163 72.128L164.247 71.132H165.255V76.76C165.255 78.608 164.115 79.784 162.315 79.784C160.719 79.784 159.627 78.884 159.411 77.396H160.539C160.683 78.26 161.331 78.764 162.315 78.764C163.419 78.764 164.139 78.044 164.139 76.928V75.752C163.755 76.436 162.987 76.844 162.063 76.844C160.395 76.844 159.339 75.56 159.339 73.916ZM160.467 73.892C160.467 74.996 161.151 75.86 162.255 75.86C163.395 75.86 164.091 75.044 164.091 73.892C164.091 72.764 163.419 71.948 162.267 71.948C161.139 71.948 160.467 72.812 160.467 73.892ZM169.414 77.144C167.686 77.144 166.498 75.896 166.498 74.072C166.498 72.236 167.662 70.964 169.366 70.964C171.034 70.964 172.126 72.116 172.126 73.856V74.276L167.59 74.288C167.674 75.524 168.322 76.208 169.438 76.208C170.314 76.208 170.89 75.848 171.082 75.176H172.138C171.85 76.436 170.866 77.144 169.414 77.144ZM169.366 71.912C168.382 71.912 167.758 72.5 167.614 73.532H170.998C170.998 72.56 170.362 71.912 169.366 71.912ZM174.984 77H173.856V72.08H172.704V71.132H173.856V69.296H174.984V71.132H176.136V72.08H174.984V77ZM178.794 77.144C177.534 77.144 176.79 76.436 176.79 75.368C176.79 74.288 177.594 73.616 178.974 73.508L180.822 73.364V73.196C180.822 72.212 180.234 71.864 179.442 71.864C178.494 71.864 177.954 72.284 177.954 72.992H176.97C176.97 71.768 177.978 70.964 179.49 70.964C180.942 70.964 181.926 71.732 181.926 73.316V77H180.966L180.846 76.052C180.546 76.724 179.742 77.144 178.794 77.144ZM179.118 76.268C180.186 76.268 180.834 75.572 180.834 74.468V74.156L179.334 74.276C178.338 74.372 177.93 74.756 177.93 75.332C177.93 75.956 178.386 76.268 179.118 76.268ZM184.508 77H183.488V68.168H184.616V72.14C185 71.372 185.792 70.964 186.752 70.964C188.432 70.964 189.44 72.284 189.44 74.096C189.44 75.872 188.384 77.144 186.68 77.144C185.756 77.144 184.976 76.736 184.592 75.932L184.508 77ZM184.628 74.048C184.628 75.272 185.324 76.124 186.476 76.124C187.628 76.124 188.312 75.26 188.312 74.048C188.312 72.848 187.628 71.984 186.476 71.984C185.324 71.984 184.628 72.848 184.628 74.048ZM191.835 77H190.707V68.168H191.835V77ZM196.028 77.144C194.3 77.144 193.112 75.896 193.112 74.072C193.112 72.236 194.276 70.964 195.98 70.964C197.648 70.964 198.74 72.116 198.74 73.856V74.276L194.204 74.288C194.288 75.524 194.936 76.208 196.052 76.208C196.928 76.208 197.504 75.848 197.696 75.176H198.752C198.464 76.436 197.48 77.144 196.028 77.144ZM195.98 71.912C194.996 71.912 194.372 72.5 194.228 73.532H197.612C197.612 72.56 196.976 71.912 195.98 71.912ZM199.52 75.296H200.6C200.6 75.896 201.056 76.256 201.8 76.256C202.592 76.256 203.048 75.932 203.048 75.392C203.048 74.996 202.856 74.756 202.244 74.6L201.212 74.36C200.168 74.108 199.676 73.592 199.676 72.728C199.676 71.648 200.588 70.964 201.884 70.964C203.168 70.964 204.008 71.684 204.032 72.8H202.952C202.928 72.212 202.532 71.84 201.848 71.84C201.14 71.84 200.744 72.152 200.744 72.692C200.744 73.088 201.032 73.352 201.608 73.496L202.64 73.748C203.636 73.988 204.128 74.444 204.128 75.32C204.128 76.436 203.168 77.144 201.776 77.144C200.396 77.144 199.52 76.412 199.52 75.296Z" fill="#F0F3FA"/>
<path d="M389 72C389 65.3726 394.373 60 401 60H447C453.627 60 459 65.3726 459 72C459 78.6274 453.627 84 447 84H401C394.373 84 389 78.6274 389 72Z" fill="url(#paint1_linear_1799_14013)"/>
<path d="M405.504 70.664C405.504 69.176 406.704 68.168 408.492 68.168C410.148 68.168 411.216 69.092 411.312 70.592H410.124C410.064 69.728 409.452 69.224 408.48 69.224C407.388 69.224 406.68 69.776 406.68 70.628C406.68 71.324 407.076 71.744 407.892 71.936L409.32 72.272C410.736 72.596 411.456 73.364 411.456 74.588C411.456 76.148 410.244 77.144 408.396 77.144C406.632 77.144 405.456 76.22 405.384 74.732H406.584C406.608 75.56 407.304 76.088 408.396 76.088C409.548 76.088 410.28 75.548 410.28 74.684C410.28 74 409.908 73.568 409.08 73.376L407.652 73.052C406.236 72.728 405.504 71.912 405.504 70.664ZM415.274 77.144C413.546 77.144 412.358 75.896 412.358 74.072C412.358 72.236 413.522 70.964 415.226 70.964C416.894 70.964 417.986 72.116 417.986 73.856V74.276L413.45 74.288C413.534 75.524 414.182 76.208 415.298 76.208C416.174 76.208 416.75 75.848 416.942 75.176H417.998C417.71 76.436 416.726 77.144 415.274 77.144ZM415.226 71.912C414.242 71.912 413.618 72.5 413.474 73.532H416.858C416.858 72.56 416.222 71.912 415.226 71.912ZM420.903 77.144C419.643 77.144 418.899 76.436 418.899 75.368C418.899 74.288 419.703 73.616 421.083 73.508L422.931 73.364V73.196C422.931 72.212 422.343 71.864 421.551 71.864C420.603 71.864 420.063 72.284 420.063 72.992H419.079C419.079 71.768 420.087 70.964 421.599 70.964C423.051 70.964 424.035 71.732 424.035 73.316V77H423.075L422.955 76.052C422.655 76.724 421.851 77.144 420.903 77.144ZM421.227 76.268C422.295 76.268 422.943 75.572 422.943 74.468V74.156L421.443 74.276C420.447 74.372 420.039 74.756 420.039 75.332C420.039 75.956 420.495 76.268 421.227 76.268ZM428.957 71.084V72.116H428.453C427.385 72.116 426.725 72.764 426.725 73.892V77H425.597V71.144H426.653L426.725 72.032C426.965 71.42 427.553 71.012 428.357 71.012C428.561 71.012 428.729 71.036 428.957 71.084ZM429.42 74.072C429.42 72.236 430.584 70.964 432.3 70.964C433.776 70.964 434.808 71.804 435.012 73.112H433.884C433.692 72.368 433.092 71.972 432.336 71.972C431.268 71.972 430.536 72.788 430.536 74.06C430.536 75.32 431.22 76.136 432.288 76.136C433.092 76.136 433.692 75.716 433.896 75.02H435.024C434.796 76.292 433.704 77.144 432.288 77.144C430.56 77.144 429.42 75.92 429.42 74.072ZM437.342 76.988H436.214V68.168H437.342V72.032C437.714 71.396 438.422 70.964 439.334 70.964C440.834 70.964 441.554 71.912 441.554 73.412V77H440.426V73.664C440.426 72.476 439.862 71.996 439.022 71.996C437.93 71.996 437.342 72.788 437.342 73.796V76.988Z" fill="#E1E5F0"/>
<rect x="48.5" y="112.5" width="67" height="67" rx="3.5" fill="#161E33"/>
<rect x="48.5" y="112.5" width="67" height="67" rx="3.5" stroke="#8F98B3"/>
<path d="M91.41 136.541C91.3173 136.541 91.2233 136.522 91.1333 136.481C90.7987 136.328 90.6507 135.933 90.8033 135.597C91.8913 133.211 93.864 132 96.666 132C97.034 132 97.3327 132.298 97.3327 132.667C97.3327 133.035 97.034 133.333 96.666 133.333C94.4013 133.333 92.8806 134.255 92.016 136.151C91.9046 136.396 91.662 136.541 91.4093 136.541H91.41Z" fill="#038585"/>
<path d="M70.3396 161.332C69.3949 161.332 68.4542 160.97 67.7422 160.258C66.4282 158.944 66.3036 156.853 67.4509 155.392L82.4269 136.332C83.5889 134.853 85.3316 133.941 87.2083 133.829C89.0896 133.716 90.9249 134.415 92.2549 135.745C93.5849 137.074 94.2829 138.913 94.1709 140.79C94.0589 142.667 93.1463 144.411 91.6676 145.573L72.6076 160.548C71.9389 161.073 71.1376 161.332 70.3396 161.332Z" fill="#E0700D"/>
<path d="M72.6659 155.334C72.4952 155.334 72.3245 155.268 72.1945 155.138L70.0685 153.012C69.8079 152.752 69.8079 152.33 70.0685 152.07C70.3292 151.809 70.7505 151.809 71.0112 152.07L73.1372 154.196C73.3979 154.456 73.3979 154.878 73.1372 155.138C73.0072 155.268 72.8366 155.334 72.6659 155.334Z" fill="#733501"/>
<path d="M83.3331 143.333C83.1625 143.333 82.9918 143.268 82.8618 143.138L79.9611 140.421C79.7005 140.161 79.7005 139.739 79.9611 139.479C80.2218 139.218 80.6431 139.218 80.9038 139.479L83.8045 142.195C84.0651 142.456 84.0651 142.877 83.8045 143.138C83.6745 143.268 83.5038 143.333 83.3331 143.333Z" fill="#733501"/>
<path d="M81.7142 153.212C81.5435 153.212 81.3728 153.146 81.2428 153.016L78.8615 150.666C78.6008 150.406 78.6008 149.984 78.8615 149.724C79.1222 149.463 79.5435 149.463 79.8042 149.724L82.1855 152.074C82.4462 152.334 82.4462 152.756 82.1855 153.016C82.0555 153.146 81.8849 153.212 81.7142 153.212Z" fill="#733501"/>
<rect x="100" y="116" width="12" height="12" rx="2" fill="#008A53"/>
<path d="M105.447 124.5C105.327 124.5 105.211 124.452 105.126 124.367L103.762 123.003C103.68 122.918 103.634 122.803 103.635 122.684C103.636 122.564 103.684 122.45 103.768 122.366C103.852 122.282 103.966 122.234 104.085 122.233C104.205 122.232 104.319 122.278 104.405 122.361L105.405 123.361L108.27 119.676C108.344 119.58 108.453 119.519 108.572 119.504C108.692 119.489 108.813 119.522 108.908 119.596C109.003 119.67 109.065 119.779 109.08 119.898C109.095 120.018 109.062 120.139 108.988 120.234L105.806 124.325C105.767 124.376 105.717 124.418 105.66 124.448C105.603 124.478 105.54 124.496 105.475 124.5H105.447Z" fill="#E1E5F0"/>
<path d="M51.79 197.11C49.79 197.11 48.43 195.62 48.43 193.42C48.43 191.22 49.81 189.72 51.83 189.72C53.37 189.72 54.58 190.65 54.87 192.07H54.1C53.8 191.04 52.92 190.41 51.8 190.41C50.23 190.41 49.18 191.61 49.18 193.42C49.18 195.22 50.23 196.42 51.8 196.42C52.93 196.42 53.83 195.81 54.14 194.85H54.91C54.58 196.2 53.33 197.11 51.79 197.11ZM57.2975 197.12C56.2675 197.12 55.6575 196.54 55.6575 195.69C55.6575 194.8 56.3375 194.24 57.4675 194.15L59.0675 194.02V193.86C59.0675 192.91 58.4975 192.61 57.7875 192.61C56.9475 192.61 56.4475 192.99 56.4475 193.64H55.8175C55.8175 192.66 56.6175 192.03 57.8075 192.03C58.9275 192.03 59.7475 192.59 59.7475 193.87V197H59.1675L59.0775 196.15C58.7775 196.76 58.1175 197.12 57.2975 197.12ZM57.4575 196.56C58.4775 196.56 59.0675 195.85 59.0675 194.8V194.54L57.6375 194.65C56.7275 194.73 56.3575 195.13 56.3575 195.67C56.3575 196.26 56.7975 196.56 57.4575 196.56ZM63.6621 192.1V192.72H63.2821C62.3921 192.72 61.8221 193.32 61.8221 194.24V197H61.1321V192.16H61.7821L61.8321 192.91C62.0221 192.39 62.5321 192.05 63.2121 192.05C63.3621 192.05 63.4921 192.06 63.6621 192.1ZM67.1094 192.1V192.72H66.7294C65.8394 192.72 65.2694 193.32 65.2694 194.24V197H64.5794V192.16H65.2294L65.2794 192.91C65.4694 192.39 65.9794 192.05 66.6594 192.05C66.8094 192.05 66.9394 192.06 67.1094 192.1ZM67.5011 194.58C67.5011 193.1 68.5411 192.03 69.9611 192.03C71.3811 192.03 72.4211 193.1 72.4211 194.58C72.4211 196.05 71.3811 197.12 69.9611 197.12C68.5411 197.12 67.5011 196.05 67.5011 194.58ZM68.2011 194.57C68.2011 195.71 68.9211 196.5 69.9611 196.5C70.9911 196.5 71.7211 195.71 71.7211 194.57C71.7211 193.45 70.9911 192.65 69.9611 192.65C68.9211 192.65 68.2011 193.45 68.2011 194.57ZM74.5859 197H73.9059V192.74H72.9359V192.16H73.9059V190.63H74.5859V192.16H75.5559V192.74H74.5859V197Z" fill="#576280"/>
<rect x="132.5" y="112.5" width="67" height="67" rx="3.5" stroke="#28324D"/>
<path d="M166 154.667C165.83 154.667 165.666 154.602 165.542 154.485C165.418 154.369 165.344 154.209 165.334 154.039L164.038 132H159.334C159.157 132 158.987 131.93 158.862 131.805C158.737 131.68 158.667 131.51 158.667 131.333C158.667 131.156 158.737 130.987 158.862 130.862C158.987 130.737 159.157 130.667 159.334 130.667H164.667C164.837 130.666 165.001 130.731 165.125 130.848C165.249 130.964 165.324 131.124 165.334 131.294L166.667 153.961C166.672 154.048 166.66 154.136 166.632 154.219C166.603 154.302 166.558 154.378 166.5 154.444C166.442 154.509 166.371 154.563 166.292 154.601C166.213 154.639 166.127 154.661 166.04 154.667H166Z" fill="#2F6FF0"/>
<path d="M174.667 146H157.334C157.157 146 156.987 145.93 156.862 145.805C156.737 145.68 156.667 145.51 156.667 145.333C156.667 142.858 157.65 140.484 159.401 138.734C161.151 136.983 163.525 136 166 136C168.476 136 170.85 136.983 172.6 138.734C174.35 140.484 175.334 142.858 175.334 145.333C175.334 145.51 175.263 145.68 175.138 145.805C175.013 145.93 174.844 146 174.667 146Z" fill="#89A9FF"/>
<path d="M156.677 145.333C156.673 145.352 156.671 145.372 156.67 145.391L157.897 159.506C157.941 160.005 158.169 160.469 158.538 160.807C158.907 161.145 159.389 161.333 159.89 161.333H172.111C172.612 161.333 173.094 161.145 173.463 160.807C173.832 160.469 174.061 160.005 174.104 159.506L175.334 145.391C175.333 145.372 175.33 145.352 175.327 145.333H156.677Z" fill="#004F4F"/>
<path d="M176.667 146H155.334C155.157 146 154.987 145.93 154.862 145.805C154.737 145.68 154.667 145.51 154.667 145.333C154.667 145.156 154.737 144.987 154.862 144.862C154.987 144.737 155.157 144.667 155.334 144.667H176.667C176.844 144.667 177.013 144.737 177.138 144.862C177.263 144.987 177.334 145.156 177.334 145.333C177.334 145.51 177.263 145.68 177.138 145.805C177.013 145.93 176.844 146 176.667 146Z" fill="#2F6FF0"/>
<path d="M132.44 191.7C132.44 190.5 133.4 189.71 134.84 189.71C136.13 189.71 136.98 190.43 137.09 191.63H136.36C136.28 190.82 135.73 190.36 134.83 190.36C133.82 190.36 133.16 190.88 133.16 191.69C133.16 192.32 133.53 192.72 134.28 192.91L135.51 193.21C136.63 193.48 137.21 194.12 137.21 195.09C137.21 196.33 136.25 197.12 134.77 197.12C133.38 197.12 132.44 196.39 132.35 195.22H133.09C133.13 195.97 133.79 196.46 134.77 196.46C135.82 196.46 136.49 195.95 136.49 195.13C136.49 194.49 136.13 194.07 135.36 193.89L134.15 193.59C133.03 193.32 132.44 192.68 132.44 191.7ZM139.045 197H138.355V192.16H138.955L139.035 192.85C139.275 192.34 139.815 192.03 140.495 192.03C141.255 192.03 141.825 192.43 142.055 193.06C142.275 192.43 142.865 192.03 143.645 192.03C144.695 192.03 145.385 192.71 145.385 193.83V197H144.715V193.97C144.715 193.14 144.255 192.65 143.515 192.65C142.705 192.65 142.225 193.26 142.225 194.01V197H141.545V193.96C141.545 193.14 141.075 192.66 140.345 192.66C139.535 192.66 139.045 193.26 139.045 194V197ZM146.433 194.58C146.433 193.1 147.473 192.03 148.893 192.03C150.313 192.03 151.353 193.1 151.353 194.58C151.353 196.05 150.313 197.12 148.893 197.12C147.473 197.12 146.433 196.05 146.433 194.58ZM147.133 194.57C147.133 195.71 147.853 196.5 148.893 196.5C149.923 196.5 150.653 195.71 150.653 194.57C150.653 193.45 149.923 192.65 148.893 192.65C147.853 192.65 147.133 193.45 147.133 194.57ZM152.116 194.58C152.116 193.1 153.156 192.03 154.576 192.03C155.996 192.03 157.036 193.1 157.036 194.58C157.036 196.05 155.996 197.12 154.576 197.12C153.156 197.12 152.116 196.05 152.116 194.58ZM152.816 194.57C152.816 195.71 153.536 196.5 154.576 196.5C155.606 196.5 156.336 195.71 156.336 194.57C156.336 193.45 155.606 192.65 154.576 192.65C153.536 192.65 152.816 193.45 152.816 194.57ZM159.201 197H158.521V192.74H157.551V192.16H158.521V190.63H159.201V192.16H160.171V192.74H159.201V197ZM161.76 196.99H161.07V189.71H161.76V193C162.07 192.42 162.66 192.03 163.47 192.03C164.74 192.03 165.31 192.82 165.31 194.04V197H164.62V194.19C164.62 193.06 164.09 192.66 163.34 192.66C162.3 192.66 161.76 193.43 161.76 194.36V196.99ZM167.025 190.83C166.745 190.83 166.515 190.6 166.515 190.32C166.515 190.04 166.745 189.8 167.025 189.8C167.305 189.8 167.545 190.04 167.545 190.32C167.545 190.6 167.305 190.83 167.025 190.83ZM166.685 197V192.16H167.375V197H166.685ZM170.844 197.12C169.424 197.12 168.474 196.1 168.474 194.58C168.474 193.07 169.414 192.03 170.794 192.03C172.104 192.03 172.994 192.96 172.994 194.33V194.67H169.144C169.194 195.85 169.814 196.53 170.854 196.53C171.644 196.53 172.154 196.19 172.334 195.55H172.994C172.734 196.57 171.984 197.12 170.844 197.12ZM170.794 192.62C169.884 192.62 169.284 193.22 169.164 194.17H172.304C172.304 193.24 171.704 192.62 170.794 192.62Z" fill="#576280"/>
<rect x="216.5" y="112.5" width="67" height="67" rx="3.5" fill="#161E33"/>
<rect x="216.5" y="112.5" width="67" height="67" rx="3.5" stroke="#8F98B3"/>
<path d="M250 139.333C249.824 139.333 249.654 139.263 249.529 139.138C249.404 139.013 249.334 138.843 249.334 138.666C249.334 136.372 247.734 133.415 245.142 132.638C244.973 132.588 244.831 132.472 244.747 132.316C244.663 132.16 244.644 131.978 244.695 131.808C244.746 131.639 244.862 131.497 245.017 131.413C245.173 131.329 245.356 131.31 245.525 131.361C248.701 132.314 250.667 135.895 250.667 138.666C250.667 138.843 250.597 139.013 250.472 139.138C250.347 139.263 250.177 139.333 250 139.333Z" fill="#733501"/>
<path d="M253.415 160.667C252.694 160.653 251.975 160.584 251.264 160.46C250.846 160.384 250.423 160.338 249.998 160.322C249.573 160.338 249.149 160.384 248.731 160.46C246.384 160.816 242.84 161.352 239.438 155.914C235.283 149.267 236.154 141.6 239.539 138.874C242.096 136.818 244.864 137.279 247.309 137.684C248.196 137.858 249.096 137.961 250 137.992C250.904 137.961 251.804 137.858 252.692 137.684C255.137 137.278 257.905 136.817 260.462 138.874C263.846 141.597 264.718 149.265 260.558 155.916C258.08 159.878 255.526 160.667 253.415 160.667Z" fill="#008A53"/>
<path d="M256.667 130V131.333C256.667 132.571 256.175 133.758 255.3 134.633C254.425 135.508 253.238 136 252 136V134.667C252 133.429 252.492 132.242 253.367 131.367C254.242 130.492 255.429 130 256.667 130Z" fill="#008A53"/>
<rect x="268" y="116" width="12" height="12" rx="2" fill="#008A53"/>
<path d="M273.447 124.5C273.327 124.5 273.211 124.452 273.126 124.367L271.762 123.003C271.68 122.918 271.634 122.803 271.635 122.684C271.636 122.564 271.684 122.45 271.768 122.366C271.852 122.282 271.966 122.234 272.085 122.233C272.205 122.232 272.319 122.278 272.405 122.361L273.405 123.361L276.27 119.676C276.344 119.58 276.453 119.519 276.572 119.504C276.692 119.489 276.813 119.522 276.908 119.596C277.003 119.67 277.065 119.779 277.08 119.898C277.095 120.018 277.062 120.139 276.988 120.234L273.806 124.325C273.767 124.376 273.717 124.418 273.66 124.448C273.603 124.478 273.54 124.496 273.475 124.5H273.447Z" fill="#E1E5F0"/>
<path d="M216.87 197H216.14L218.77 189.84H219.66L222.32 197H221.57L220.87 195.1H217.57L216.87 197ZM219.12 190.85L217.79 194.47H220.64L219.3 190.85C219.27 190.75 219.22 190.63 219.21 190.56C219.2 190.62 219.16 190.75 219.12 190.85ZM223.165 199.11V192.16H223.765L223.835 193.14C224.175 192.39 224.855 192.03 225.665 192.03C227.065 192.03 227.905 193.1 227.905 194.56C227.905 196.02 227.095 197.12 225.665 197.12C224.845 197.12 224.195 196.77 223.855 196.07V199.11H223.165ZM223.865 194.58C223.865 195.69 224.485 196.5 225.545 196.5C226.595 196.5 227.205 195.69 227.205 194.58C227.205 193.46 226.595 192.66 225.545 192.66C224.485 192.66 223.865 193.46 223.865 194.58ZM229.005 199.11V192.16H229.605L229.675 193.14C230.015 192.39 230.695 192.03 231.505 192.03C232.905 192.03 233.745 193.1 233.745 194.56C233.745 196.02 232.935 197.12 231.505 197.12C230.685 197.12 230.035 196.77 229.695 196.07V199.11H229.005ZM229.705 194.58C229.705 195.69 230.325 196.5 231.385 196.5C232.435 196.5 233.045 195.69 233.045 194.58C233.045 193.46 232.435 192.66 231.385 192.66C230.325 192.66 229.705 193.46 229.705 194.58ZM235.565 197H234.875V189.71H235.565V197ZM239.063 197.12C237.643 197.12 236.693 196.1 236.693 194.58C236.693 193.07 237.632 192.03 239.013 192.03C240.323 192.03 241.213 192.96 241.213 194.33V194.67H237.363C237.413 195.85 238.033 196.53 239.073 196.53C239.863 196.53 240.373 196.19 240.553 195.55H241.213C240.953 196.57 240.203 197.12 239.063 197.12ZM239.013 192.62C238.103 192.62 237.503 193.22 237.383 194.17H240.523C240.523 193.24 239.923 192.62 239.013 192.62Z" fill="#576280"/>
<rect x="300.5" y="112.5" width="67" height="67" rx="3.5" stroke="#28324D"/>
<path d="M346 160H322C321.823 160 321.653 159.93 321.528 159.805C321.403 159.68 321.333 159.51 321.333 159.333V142C321.332 141.883 321.363 141.768 321.421 141.667L324 137.333V132.667C324 132.49 324.07 132.32 324.195 132.195C324.32 132.07 324.49 132 324.666 132H343.333C343.51 132 343.679 132.07 343.804 132.195C343.929 132.32 344 132.49 344 132.667V137.333L346.578 141.667C346.637 141.768 346.667 141.883 346.666 142V159.333C346.666 159.51 346.596 159.68 346.471 159.805C346.346 159.93 346.176 160 346 160Z" fill="#D4D9E6"/>
<path d="M334 154.667C336.209 154.667 338 152.876 338 150.667C338 148.457 336.209 146.667 334 146.667C331.791 146.667 330 148.457 330 150.667C330 152.876 331.791 154.667 334 154.667Z" fill="#2F6FF0"/>
<path d="M344 137.333H324L321.421 141.667C321.363 141.768 321.332 141.883 321.333 142H346.666C346.667 141.883 346.637 141.768 346.578 141.667L344 137.333Z" fill="#8F98B3"/>
<path d="M301.58 197H300.87V189.84H301.58L304.19 196.15L306.8 189.84H307.52V197H306.81V193.6C306.81 192.35 306.83 191.8 306.87 191.31L304.54 197H303.85L301.52 191.34C301.56 191.61 301.58 192.4 301.58 193.49V197ZM309.449 190.83C309.169 190.83 308.939 190.6 308.939 190.32C308.939 190.04 309.169 189.8 309.449 189.8C309.729 189.8 309.969 190.04 309.969 190.32C309.969 190.6 309.729 190.83 309.449 190.83ZM309.109 197V192.16H309.799V197H309.109ZM311.958 197H311.268V189.71H311.958V197ZM314.145 197H313.455V189.71H314.145V194.66L316.545 192.16H317.415L315.555 194.09L317.425 197H316.625L315.085 194.58L314.145 195.55V197Z" fill="#576280"/>
<rect x="384.5" y="112.5" width="67" height="67" rx="3.5" fill="#161E33"/>
<rect x="384.5" y="112.5" width="67" height="67" rx="3.5" stroke="#8F98B3"/>
<path d="M423.334 136.666C423.334 135.252 422.772 133.895 421.772 132.895C420.771 131.895 419.415 131.333 418 131.333C416.586 131.333 415.229 131.895 414.229 132.895C413.229 133.895 412.667 135.252 412.667 136.666C412.667 143.333 408.667 146 408.667 151.333C408.667 153.808 409.65 156.182 411.401 157.933C413.151 159.683 415.525 160.666 418 160.666C420.476 160.666 422.85 159.683 424.6 157.933C426.35 156.182 427.334 153.808 427.334 151.333C427.334 146 423.334 143.333 423.334 136.666Z" fill="#50BF83"/>
<path d="M418 161.333C415.349 161.33 412.807 160.276 410.932 158.401C409.058 156.526 408.003 153.984 408 151.333C408 148.667 408.921 146.683 409.895 144.581C410.933 142.347 412 140.039 412 136.667C412 135.075 412.632 133.549 413.757 132.424C414.883 131.299 416.409 130.667 418 130.667C419.591 130.667 421.117 131.299 422.243 132.424C423.368 133.549 424 135.075 424 136.667C424 140.039 425.067 142.347 426.105 144.581C427.079 146.683 428 148.667 428 151.333C427.997 153.984 426.942 156.526 425.068 158.401C423.193 160.276 420.651 161.33 418 161.333ZM418 132C416.763 132.001 415.577 132.494 414.702 133.368C413.827 134.243 413.335 135.429 413.333 136.667C413.333 140.333 412.149 142.887 411.105 145.141C410.193 147.106 409.333 148.962 409.333 151.333C409.333 153.632 410.246 155.836 411.872 157.461C413.497 159.087 415.701 160 418 160C420.299 160 422.503 159.087 424.128 157.461C425.754 155.836 426.667 153.632 426.667 151.333C426.667 148.962 425.807 147.106 424.895 145.141C423.851 142.887 422.667 140.333 422.667 136.667C422.665 135.429 422.173 134.243 421.298 133.368C420.423 132.494 419.237 132.001 418 132Z" fill="#00522F"/>
<path d="M418 156.667C420.946 156.667 423.334 154.279 423.334 151.333C423.334 148.388 420.946 146 418 146C415.055 146 412.667 148.388 412.667 151.333C412.667 154.279 415.055 156.667 418 156.667Z" fill="#008A53"/>
<path d="M418 154.667C419.841 154.667 421.334 153.174 421.334 151.333C421.334 149.492 419.841 148 418 148C416.159 148 414.667 149.492 414.667 151.333C414.667 153.174 416.159 154.667 418 154.667Z" fill="#733501"/>
<rect x="436" y="116" width="12" height="12" rx="2" fill="#008A53"/>
<path d="M441.447 124.5C441.327 124.5 441.211 124.452 441.126 124.367L439.762 123.003C439.68 122.918 439.634 122.803 439.635 122.684C439.636 122.564 439.684 122.45 439.768 122.366C439.852 122.282 439.966 122.234 440.085 122.233C440.205 122.232 440.319 122.278 440.405 122.361L441.405 123.361L444.27 119.676C444.344 119.58 444.453 119.519 444.572 119.504C444.692 119.489 444.813 119.522 444.908 119.596C445.003 119.67 445.065 119.779 445.08 119.898C445.095 120.018 445.062 120.139 444.988 120.234L441.806 124.325C441.767 124.376 441.717 124.418 441.66 124.448C441.603 124.478 441.54 124.496 441.475 124.5H441.447Z" fill="#E1E5F0"/>
<path d="M384.87 197H384.14L386.77 189.84H387.66L390.32 197H389.57L388.87 195.1H385.57L384.87 197ZM387.12 190.85L385.79 194.47H388.64L387.3 190.85C387.27 190.75 387.22 190.63 387.21 190.56C387.2 190.62 387.16 190.75 387.12 190.85ZM392.193 197L390.213 192.16H390.953L392.203 195.28C392.333 195.63 392.463 195.96 392.553 196.28C392.643 195.95 392.773 195.63 392.913 195.28L394.183 192.16H394.893L392.883 197H392.193ZM395.151 194.58C395.151 193.1 396.191 192.03 397.611 192.03C399.031 192.03 400.071 193.1 400.071 194.58C400.071 196.05 399.031 197.12 397.611 197.12C396.191 197.12 395.151 196.05 395.151 194.58ZM395.851 194.57C395.851 195.71 396.571 196.5 397.611 196.5C398.641 196.5 399.371 195.71 399.371 194.57C399.371 193.45 398.641 192.65 397.611 192.65C396.571 192.65 395.851 193.45 395.851 194.57ZM400.835 194.59C400.835 193.07 401.765 192.03 403.175 192.03C404.295 192.03 405.115 192.68 405.305 193.68H404.615C404.435 193.01 403.855 192.64 403.185 192.64C402.205 192.64 401.515 193.39 401.515 194.58C401.515 195.73 402.155 196.5 403.135 196.5C403.855 196.5 404.435 196.1 404.625 195.48H405.325C405.095 196.47 404.235 197.12 403.135 197.12C401.765 197.12 400.835 196.11 400.835 194.59ZM407.76 197.12C406.73 197.12 406.12 196.54 406.12 195.69C406.12 194.8 406.8 194.24 407.93 194.15L409.53 194.02V193.86C409.53 192.91 408.96 192.61 408.25 192.61C407.41 192.61 406.91 192.99 406.91 193.64H406.28C406.28 192.66 407.08 192.03 408.27 192.03C409.39 192.03 410.21 192.59 410.21 193.87V197H409.63L409.54 196.15C409.24 196.76 408.58 197.12 407.76 197.12ZM407.92 196.56C408.94 196.56 409.53 195.85 409.53 194.8V194.54L408.1 194.65C407.19 194.73 406.82 195.13 406.82 195.67C406.82 196.26 407.26 196.56 407.92 196.56ZM413.495 197.12C412.085 197.12 411.255 196.04 411.255 194.59C411.255 193.13 412.085 192.03 413.525 192.03C414.325 192.03 414.965 192.38 415.305 193.08V189.71H415.995V197H415.395L415.325 196.01C414.985 196.76 414.305 197.12 413.495 197.12ZM413.615 196.49C414.675 196.49 415.295 195.69 415.295 194.57C415.295 193.46 414.675 192.65 413.615 192.65C412.565 192.65 411.955 193.46 411.955 194.57C411.955 195.69 412.565 196.49 413.615 196.49ZM417.095 194.58C417.095 193.1 418.135 192.03 419.555 192.03C420.975 192.03 422.015 193.1 422.015 194.58C422.015 196.05 420.975 197.12 419.555 197.12C418.135 197.12 417.095 196.05 417.095 194.58ZM417.795 194.57C417.795 195.71 418.515 196.5 419.555 196.5C420.585 196.5 421.315 195.71 421.315 194.57C421.315 193.45 420.585 192.65 419.555 192.65C418.515 192.65 417.795 193.45 417.795 194.57Z" fill="#576280"/>
<rect x="48.5" y="216.5" width="67" height="67" rx="3.5" fill="#161E33"/>
<rect x="48.5" y="216.5" width="67" height="67" rx="3.5" stroke="#8F98B3"/>
<path d="M75.3298 253.282C78.6024 258.259 79.2024 262.504 79.3111 264.046C79.3358 264.397 79.6244 264.667 79.9758 264.667H83.9471C84.3284 264.667 84.6298 264.35 84.6124 263.97C84.5231 261.971 84.7378 256.128 89.8191 252.446L83.9998 248L76.6664 250L75.3291 253.283L75.3298 253.282Z" fill="#00522F"/>
<path d="M80.667 256C77.559 256 74.6783 254.303 73.1457 251.624C72.5697 251.871 71.9537 252 71.3337 252C68.761 252 66.667 249.907 66.667 247.333C66.667 245.991 67.255 244.714 68.2603 243.832C68.0857 243.193 68.0003 242.591 68.0003 242C68.0003 237.957 71.2903 234.667 75.3337 234.667C77.6203 234.667 79.7277 235.719 81.113 237.519C82.303 236.534 83.775 236 85.3337 236C88.527 236 91.231 238.269 91.843 241.365C94.965 241.643 97.3337 244.165 97.3337 247.333C97.3337 250.641 94.6423 253.333 91.3337 253.333C90.071 253.333 88.8557 252.935 87.8383 252.197C86.2337 254.561 83.553 256 80.667 256Z" fill="#50BF83"/>
<rect x="100" y="220" width="12" height="12" rx="2" fill="#008A53"/>
<path d="M105.447 228.5C105.327 228.5 105.211 228.452 105.126 228.367L103.762 227.003C103.68 226.918 103.634 226.803 103.635 226.684C103.636 226.564 103.684 226.45 103.768 226.366C103.852 226.282 103.966 226.234 104.085 226.233C104.205 226.232 104.319 226.278 104.405 226.361L105.405 227.361L108.27 223.676C108.344 223.58 108.453 223.519 108.572 223.504C108.692 223.489 108.813 223.522 108.908 223.596C109.003 223.67 109.065 223.779 109.08 223.898C109.095 224.018 109.062 224.139 108.988 224.234L105.806 228.325C105.767 228.376 105.717 228.418 105.66 228.448C105.603 228.478 105.54 228.496 105.475 228.5H105.447Z" fill="#E1E5F0"/>
<path d="M48.87 301V293.84H51.49C52.87 293.84 53.72 294.54 53.72 295.69C53.72 296.53 53.35 297.1 52.61 297.39C53.44 297.66 53.86 298.24 53.86 299.12C53.86 300.27 53 301 51.64 301H48.87ZM51.48 294.48H49.59V297.1H51.57C52.47 297.1 52.98 296.6 52.98 295.75C52.98 294.95 52.44 294.48 51.48 294.48ZM51.64 297.73H49.59V300.35H51.64C52.58 300.35 53.13 299.86 53.13 299.03C53.13 298.22 52.57 297.73 51.64 297.73ZM57.5391 296.1V296.72H57.1591C56.2691 296.72 55.6991 297.32 55.6991 298.24V301H55.0091V296.16H55.6591L55.7091 296.91C55.8991 296.39 56.4091 296.05 57.0891 296.05C57.2391 296.05 57.3691 296.06 57.5391 296.1ZM57.9308 298.58C57.9308 297.1 58.9708 296.03 60.3908 296.03C61.8108 296.03 62.8508 297.1 62.8508 298.58C62.8508 300.05 61.8108 301.12 60.3908 301.12C58.9708 301.12 57.9308 300.05 57.9308 298.58ZM58.6308 298.57C58.6308 299.71 59.3508 300.5 60.3908 300.5C61.4208 300.5 62.1508 299.71 62.1508 298.57C62.1508 297.45 61.4208 296.65 60.3908 296.65C59.3508 296.65 58.6308 297.45 58.6308 298.57ZM63.6144 298.59C63.6144 297.07 64.5444 296.03 65.9544 296.03C67.0744 296.03 67.8944 296.68 68.0844 297.68H67.3944C67.2144 297.01 66.6344 296.64 65.9644 296.64C64.9844 296.64 64.2944 297.39 64.2944 298.58C64.2944 299.73 64.9344 300.5 65.9144 300.5C66.6344 300.5 67.2144 300.1 67.4044 299.48H68.1044C67.8744 300.47 67.0144 301.12 65.9144 301.12C64.5444 301.12 63.6144 300.11 63.6144 298.59ZM68.8097 298.59C68.8097 297.07 69.7397 296.03 71.1497 296.03C72.2697 296.03 73.0897 296.68 73.2797 297.68H72.5897C72.4097 297.01 71.8297 296.64 71.1597 296.64C70.1797 296.64 69.4897 297.39 69.4897 298.58C69.4897 299.73 70.1297 300.5 71.1097 300.5C71.8297 300.5 72.4097 300.1 72.5997 299.48H73.2997C73.0697 300.47 72.2097 301.12 71.1097 301.12C69.7397 301.12 68.8097 300.11 68.8097 298.59ZM74.005 298.58C74.005 297.1 75.045 296.03 76.465 296.03C77.885 296.03 78.925 297.1 78.925 298.58C78.925 300.05 77.885 301.12 76.465 301.12C75.045 301.12 74.005 300.05 74.005 298.58ZM74.705 298.57C74.705 299.71 75.425 300.5 76.465 300.5C77.495 300.5 78.225 299.71 78.225 298.57C78.225 297.45 77.495 296.65 76.465 296.65C75.425 296.65 74.705 297.45 74.705 298.57ZM80.7486 301H80.0586V293.71H80.7486V301ZM82.5561 294.83C82.2761 294.83 82.0461 294.6 82.0461 294.32C82.0461 294.04 82.2761 293.8 82.5561 293.8C82.8361 293.8 83.0761 294.04 83.0761 294.32C83.0761 294.6 82.8361 294.83 82.5561 294.83ZM82.2161 301V296.16H82.9061V301H82.2161Z" fill="#576280"/>
<rect x="132.5" y="216.5" width="67" height="67" rx="3.5" fill="#161E33"/>
<rect x="132.5" y="216.5" width="67" height="67" rx="3.5" stroke="#8F98B3"/>
<path d="M178.775 249.575C177.583 248.108 176.248 246.761 174.792 245.555C173.844 244.708 172.863 243.831 172.042 242.983C169.969 240.835 169.364 237.575 169.333 235.987C169.33 235.812 169.258 235.646 169.133 235.524C169.009 235.402 168.841 235.333 168.666 235.333H163.333C163.159 235.333 162.991 235.402 162.866 235.524C162.742 235.646 162.67 235.812 162.666 235.987C162.636 237.575 162.03 240.835 159.957 242.983C159.136 243.831 158.157 244.708 157.208 245.555C155.751 246.761 154.417 248.108 153.224 249.575C151.475 251.981 150.458 256.123 152.358 259.533C154.053 262.577 156.994 263.207 162.194 263.353H162.2C163.283 264.204 164.62 264.665 165.997 264.665C167.374 264.665 168.711 264.204 169.794 263.353H169.822C175.003 263.207 177.944 262.577 179.639 259.533C181.541 256.123 180.524 251.981 178.775 249.575Z" fill="#D9E2FE"/>
<path d="M160.909 250.667C157.692 255.262 157.932 260.354 160.164 263.26C160.8 263.304 161.473 263.335 162.194 263.355C160.222 261.695 158.5 258.278 160.909 250.667Z" fill="#89A9FF"/>
<path d="M171.835 263.261C174.068 260.355 174.309 255.261 171.091 250.667C173.5 258.278 171.778 261.695 169.806 263.355H169.825C170.538 263.334 171.204 263.304 171.835 263.261Z" fill="#89A9FF"/>
<rect x="184" y="220" width="12" height="12" rx="2" fill="#008A53"/>
<path d="M189.447 228.5C189.327 228.5 189.211 228.452 189.126 228.367L187.762 227.003C187.68 226.918 187.634 226.803 187.635 226.684C187.636 226.564 187.684 226.45 187.768 226.366C187.852 226.282 187.966 226.234 188.085 226.233C188.205 226.232 188.319 226.278 188.405 226.361L189.405 227.361L192.27 223.676C192.344 223.58 192.453 223.519 192.572 223.504C192.692 223.489 192.813 223.522 192.908 223.596C193.003 223.67 193.065 223.779 193.08 223.898C193.095 224.018 193.062 224.139 192.988 224.234L189.806 228.325C189.767 228.376 189.717 228.418 189.66 228.448C189.603 228.478 189.54 228.496 189.475 228.5H189.447Z" fill="#E1E5F0"/>
<path d="M135.87 294.4C134.22 294.4 133.18 295.62 133.18 297.45C133.18 299.31 134.28 300.44 135.89 300.44C137.09 300.44 138.26 299.86 138.26 298.14V297.77H135.67V297.13H138.94V301.01H138.37L138.3 299.87C137.92 300.58 137.02 301.12 135.86 301.12C133.83 301.12 132.43 299.66 132.43 297.45C132.43 295.26 133.83 293.72 135.88 293.72C137.39 293.72 138.56 294.58 138.84 295.88H138.06C137.76 294.9 136.92 294.4 135.87 294.4ZM141.61 301.12C140.58 301.12 139.97 300.54 139.97 299.69C139.97 298.8 140.65 298.24 141.78 298.15L143.38 298.02V297.86C143.38 296.91 142.81 296.61 142.1 296.61C141.26 296.61 140.76 296.99 140.76 297.64H140.13C140.13 296.66 140.93 296.03 142.12 296.03C143.24 296.03 144.06 296.59 144.06 297.87V301H143.48L143.39 300.15C143.09 300.76 142.43 301.12 141.61 301.12ZM141.77 300.56C142.79 300.56 143.38 299.85 143.38 298.8V298.54L141.95 298.65C141.04 298.73 140.67 299.13 140.67 299.67C140.67 300.26 141.11 300.56 141.77 300.56ZM147.975 296.1V296.72H147.595C146.705 296.72 146.135 297.32 146.135 298.24V301H145.445V296.16H146.095L146.145 296.91C146.335 296.39 146.845 296.05 147.525 296.05C147.675 296.05 147.805 296.06 147.975 296.1ZM149.612 301H148.922V293.71H149.612V301ZM151.419 294.83C151.139 294.83 150.909 294.6 150.909 294.32C150.909 294.04 151.139 293.8 151.419 293.8C151.699 293.8 151.939 294.04 151.939 294.32C151.939 294.6 151.699 294.83 151.419 294.83ZM151.079 301V296.16H151.769V301H151.079ZM152.868 298.59C152.868 297.07 153.798 296.03 155.208 296.03C156.328 296.03 157.148 296.68 157.338 297.68H156.648C156.468 297.01 155.888 296.64 155.218 296.64C154.238 296.64 153.548 297.39 153.548 298.58C153.548 299.73 154.188 300.5 155.168 300.5C155.888 300.5 156.468 300.1 156.658 299.48H157.358C157.128 300.47 156.268 301.12 155.168 301.12C153.798 301.12 152.868 300.11 152.868 298.59Z" fill="#576280"/>
<rect x="216.5" y="216.5" width="67" height="67" rx="3.5" stroke="#28324D"/>
<path d="M242.972 263.489C242.795 263.489 242.625 263.418 242.5 263.293L236.675 257.467C236.586 257.378 236.525 257.265 236.497 257.143C236.469 257.02 236.477 256.893 236.518 256.774C236.56 256.656 236.635 256.552 236.733 256.474C236.832 256.396 236.95 256.347 237.075 256.333L243.628 255.605C243.727 255.595 243.828 255.607 243.922 255.64C244.016 255.673 244.101 255.727 244.171 255.798C244.242 255.869 244.295 255.954 244.328 256.048C244.361 256.143 244.373 256.243 244.362 256.342L243.634 262.895C243.615 263.058 243.538 263.208 243.415 263.318C243.293 263.427 243.135 263.487 242.971 263.487L242.972 263.489Z" fill="#2F6FF0"/>
<path d="M253.591 246.362C251.515 244.229 250.112 241.533 249.557 238.608C249.544 238.614 249.53 238.619 249.516 238.626C247.128 237.746 243.705 237.845 241.771 239.779C241.69 239.86 241.631 239.961 241.601 240.072C241.57 240.183 241.568 240.299 241.596 240.411C241.624 240.523 241.68 240.625 241.759 240.709C241.838 240.792 241.937 240.854 242.047 240.888C243.19 241.321 244.165 242.11 244.825 243.139C241.231 249.097 242.976 256.132 243.053 256.435C243.083 256.55 243.143 256.656 243.228 256.74C243.312 256.824 243.417 256.884 243.533 256.914C245.026 257.259 246.554 257.428 248.085 257.418C251.409 257.418 255.93 256.632 259.461 253.1C260.15 252.409 260.737 251.623 261.205 250.766C258.305 250.039 255.667 248.513 253.591 246.362Z" fill="#0040A1"/>
<path d="M261.97 238.466C261.938 238.362 261.88 238.266 261.802 238.189C261.724 238.112 261.628 238.056 261.522 238.024C261.242 237.942 254.726 236.068 249.558 238.606C250.112 241.53 251.515 244.227 253.591 246.36C255.668 248.51 258.305 250.034 261.205 250.76C264.088 245.516 262.072 238.796 261.97 238.466Z" fill="#2F6FF0"/>
<path d="M256 242.667C256.737 242.667 257.334 242.07 257.334 241.333C257.334 240.597 256.737 240 256 240C255.264 240 254.667 240.597 254.667 241.333C254.667 242.07 255.264 242.667 256 242.667Z" fill="#C0F0F0"/>
<path d="M220.52 297.85H217.59V301H216.87V293.84H221.09V294.5H217.59V297.2H220.52V297.85ZM222.49 294.83C222.21 294.83 221.98 294.6 221.98 294.32C221.98 294.04 222.21 293.8 222.49 293.8C222.77 293.8 223.01 294.04 223.01 294.32C223.01 294.6 222.77 294.83 222.49 294.83ZM222.15 301V296.16H222.84V301H222.15ZM223.869 299.64H224.529C224.529 300.2 224.949 300.55 225.629 300.55C226.379 300.55 226.819 300.23 226.819 299.71C226.819 299.31 226.619 299.08 226.049 298.94L225.219 298.73C224.379 298.52 223.969 298.08 223.969 297.42C223.969 296.57 224.679 296.03 225.719 296.03C226.739 296.03 227.399 296.59 227.429 297.49H226.759C226.739 296.93 226.349 296.6 225.699 296.6C225.019 296.6 224.639 296.89 224.639 297.41C224.639 297.78 224.899 298.04 225.429 298.17L226.259 298.38C227.099 298.59 227.479 298.98 227.479 299.68C227.479 300.55 226.739 301.12 225.639 301.12C224.549 301.12 223.869 300.54 223.869 299.64ZM229.305 300.99H228.615V293.71H229.305V297C229.615 296.42 230.205 296.03 231.015 296.03C232.285 296.03 232.855 296.82 232.855 298.04V301H232.165V298.19C232.165 297.06 231.635 296.66 230.885 296.66C229.845 296.66 229.305 297.43 229.305 298.36V300.99Z" fill="#576280"/>
<rect x="300.5" y="216.5" width="67" height="67" rx="3.5" stroke="#28324D"/>
<path d="M343.08 264H324.92C323.986 264 323.089 263.604 322.459 262.915C321.829 262.225 321.516 261.296 321.601 260.365L323.334 245.333L321.723 241.576C320.592 238.936 322.528 236 325.4 236H342.601C345.473 236 347.409 238.936 346.277 241.576L344.667 245.333L346.4 260.365C346.485 261.296 346.172 262.225 345.541 262.915C344.912 263.604 344.015 264 343.08 264Z" fill="#FF8D39"/>
<path d="M335.334 249.333C335.163 249.333 334.993 249.268 334.863 249.138L333.529 247.805C333.269 247.544 333.269 247.122 333.529 246.862C333.79 246.601 334.212 246.601 334.472 246.862L335.805 248.195C336.066 248.456 336.066 248.877 335.805 249.138C335.675 249.268 335.505 249.333 335.334 249.333Z" fill="#E0700D"/>
<path d="M336.667 257.334C336.496 257.334 336.326 257.269 336.195 257.138C335.935 256.878 335.935 256.456 336.195 256.196L337.529 254.862C337.789 254.602 338.211 254.602 338.471 254.862C338.732 255.123 338.732 255.545 338.471 255.805L337.138 257.138C337.008 257.269 336.837 257.334 336.667 257.334Z" fill="#E0700D"/>
<path d="M339.334 244C338.965 244 338.667 243.702 338.667 243.333V242C338.667 241.632 338.965 241.333 339.334 241.333C339.702 241.333 340 241.632 340 242V243.333C340 243.702 339.702 244 339.334 244Z" fill="#E0700D"/>
<path d="M327.334 244C327.163 244 326.993 243.935 326.862 243.805C326.602 243.544 326.602 243.123 326.862 242.862L328.196 241.529C328.456 241.268 328.878 241.268 329.138 241.529C329.399 241.789 329.399 242.211 329.138 242.472L327.805 243.805C327.675 243.935 327.504 244 327.334 244Z" fill="#E0700D"/>
<path d="M330.001 256C329.632 256 329.334 255.702 329.334 255.333V254C329.334 253.632 329.632 253.333 330.001 253.333C330.369 253.333 330.667 253.632 330.667 254V255.333C330.667 255.702 330.369 256 330.001 256Z" fill="#E0700D"/>
<path d="M300.87 301V293.84H303.49C304.87 293.84 305.72 294.54 305.72 295.69C305.72 296.53 305.35 297.1 304.61 297.39C305.44 297.66 305.86 298.24 305.86 299.12C305.86 300.27 305 301 303.64 301H300.87ZM303.48 294.48H301.59V297.1H303.57C304.47 297.1 304.98 296.6 304.98 295.75C304.98 294.95 304.44 294.48 303.48 294.48ZM303.64 297.73H301.59V300.35H303.64C304.58 300.35 305.13 299.86 305.13 299.03C305.13 298.22 304.57 297.73 303.64 297.73ZM309.539 296.1V296.72H309.159C308.269 296.72 307.699 297.32 307.699 298.24V301H307.009V296.16H307.659L307.709 296.91C307.899 296.39 308.409 296.05 309.089 296.05C309.239 296.05 309.369 296.06 309.539 296.1ZM312.301 301.12C310.881 301.12 309.931 300.1 309.931 298.58C309.931 297.07 310.871 296.03 312.251 296.03C313.561 296.03 314.451 296.96 314.451 298.33V298.67H310.601C310.651 299.85 311.271 300.53 312.311 300.53C313.101 300.53 313.611 300.19 313.791 299.55H314.451C314.191 300.57 313.441 301.12 312.301 301.12ZM312.251 296.62C311.341 296.62 310.741 297.22 310.621 298.17H313.761C313.761 297.24 313.161 296.62 312.251 296.62ZM316.895 301.12C315.865 301.12 315.255 300.54 315.255 299.69C315.255 298.8 315.935 298.24 317.065 298.15L318.665 298.02V297.86C318.665 296.91 318.095 296.61 317.385 296.61C316.545 296.61 316.045 296.99 316.045 297.64H315.415C315.415 296.66 316.215 296.03 317.405 296.03C318.525 296.03 319.345 296.59 319.345 297.87V301H318.765L318.675 300.15C318.375 300.76 317.715 301.12 316.895 301.12ZM317.055 300.56C318.075 300.56 318.665 299.85 318.665 298.8V298.54L317.235 298.65C316.325 298.73 315.955 299.13 315.955 299.67C315.955 300.26 316.395 300.56 317.055 300.56ZM322.63 301.12C321.22 301.12 320.39 300.04 320.39 298.59C320.39 297.13 321.22 296.03 322.66 296.03C323.46 296.03 324.1 296.38 324.44 297.08V293.71H325.13V301H324.53L324.46 300.01C324.12 300.76 323.44 301.12 322.63 301.12ZM322.75 300.49C323.81 300.49 324.43 299.69 324.43 298.57C324.43 297.46 323.81 296.65 322.75 296.65C321.7 296.65 321.09 297.46 321.09 298.57C321.09 299.69 321.7 300.49 322.75 300.49Z" fill="#576280"/>
<rect x="384.5" y="216.5" width="67" height="67" rx="3.5" stroke="#28324D"/>
<path d="M426.667 241.333C425.031 241.333 423.628 240.35 423.009 238.943C422.878 238.645 422.56 238.486 422.243 238.561C421.951 238.629 421.647 238.667 421.334 238.667C419.317 238.667 417.649 237.174 417.374 235.234C417.327 234.908 417.049 234.667 416.719 234.667H410C409.264 234.667 408.667 235.263 408.667 236V252H426.667C427.035 252 427.334 251.701 427.334 251.333V241.273C427.116 241.31 426.895 241.333 426.667 241.333Z" fill="#733501"/>
<path d="M426 265.333H410C408.897 265.333 408 264.436 408 263.333V257.333C408 257.019 408.22 256.747 408.527 256.681L417.86 254.681C417.952 254.662 418.048 254.662 418.14 254.681L427.473 256.681C427.78 256.747 428 257.019 428 257.333V263.333C428 264.436 427.103 265.333 426 265.333Z" fill="#5700C9"/>
<path d="M421.334 251.333C420.965 251.333 420.667 251.035 420.667 250.667V239.333C420.667 238.965 420.965 238.667 421.334 238.667C421.702 238.667 422 238.965 422 239.333V250.667C422 251.035 421.702 251.333 421.334 251.333Z" fill="#311300"/>
<path d="M414.667 251.333C414.298 251.333 414 251.035 414 250.667V235.333C414 234.965 414.298 234.667 414.667 234.667C415.035 234.667 415.333 234.965 415.333 235.333V250.667C415.333 251.035 415.035 251.333 414.667 251.333Z" fill="#311300"/>
<path d="M426.667 246H409.334C408.965 246 408.667 245.701 408.667 245.333C408.667 244.965 408.965 244.667 409.334 244.667H426.667C427.035 244.667 427.334 244.965 427.334 245.333C427.334 245.701 427.035 246 426.667 246Z" fill="#311300"/>
<path d="M431.333 258.667C431.29 258.667 431.246 258.662 431.203 258.653L418 256.013L404.798 258.653C404.557 258.701 404.311 258.614 404.154 258.426C403.998 258.238 403.957 257.979 404.048 257.752L406.714 251.085C406.816 250.833 407.061 250.667 407.333 250.667H428.667C428.939 250.667 429.184 250.833 429.286 251.085L431.953 257.752C432.043 257.979 432.002 258.238 431.846 258.426C431.718 258.58 431.529 258.667 431.333 258.667Z" fill="#8547FF"/>
<path d="M387.79 301.11C385.79 301.11 384.43 299.62 384.43 297.42C384.43 295.22 385.81 293.72 387.83 293.72C389.37 293.72 390.58 294.65 390.87 296.07H390.1C389.8 295.04 388.92 294.41 387.8 294.41C386.23 294.41 385.18 295.61 385.18 297.42C385.18 299.22 386.23 300.42 387.8 300.42C388.93 300.42 389.83 299.81 390.14 298.85H390.91C390.58 300.2 389.33 301.11 387.79 301.11ZM392.646 300.99H391.956V293.71H392.646V297C392.956 296.42 393.546 296.03 394.356 296.03C395.626 296.03 396.196 296.82 396.196 298.04V301H395.506V298.19C395.506 297.06 394.976 296.66 394.226 296.66C393.186 296.66 392.646 297.43 392.646 298.36V300.99ZM397.232 298.58C397.232 297.1 398.272 296.03 399.692 296.03C401.112 296.03 402.152 297.1 402.152 298.58C402.152 300.05 401.112 301.12 399.692 301.12C398.272 301.12 397.232 300.05 397.232 298.58ZM397.932 298.57C397.932 299.71 398.652 300.5 399.692 300.5C400.722 300.5 401.452 299.71 401.452 298.57C401.452 297.45 400.722 296.65 399.692 296.65C398.652 296.65 397.932 297.45 397.932 298.57ZM402.915 298.59C402.915 297.07 403.845 296.03 405.255 296.03C406.375 296.03 407.195 296.68 407.385 297.68H406.695C406.515 297.01 405.935 296.64 405.265 296.64C404.285 296.64 403.595 297.39 403.595 298.58C403.595 299.73 404.235 300.5 405.215 300.5C405.935 300.5 406.515 300.1 406.705 299.48H407.405C407.175 300.47 406.315 301.12 405.215 301.12C403.845 301.12 402.915 300.11 402.915 298.59ZM408.11 298.58C408.11 297.1 409.15 296.03 410.57 296.03C411.99 296.03 413.03 297.1 413.03 298.58C413.03 300.05 411.99 301.12 410.57 301.12C409.15 301.12 408.11 300.05 408.11 298.58ZM408.81 298.57C408.81 299.71 409.53 300.5 410.57 300.5C411.6 300.5 412.33 299.71 412.33 298.57C412.33 297.45 411.6 296.65 410.57 296.65C409.53 296.65 408.81 297.45 408.81 298.57ZM414.854 301H414.164V293.71H414.854V301ZM417.712 301.12C416.682 301.12 416.072 300.54 416.072 299.69C416.072 298.8 416.752 298.24 417.882 298.15L419.482 298.02V297.86C419.482 296.91 418.912 296.61 418.202 296.61C417.362 296.61 416.862 296.99 416.862 297.64H416.232C416.232 296.66 417.032 296.03 418.222 296.03C419.342 296.03 420.162 296.59 420.162 297.87V301H419.582L419.492 300.15C419.192 300.76 418.532 301.12 417.712 301.12ZM417.872 300.56C418.892 300.56 419.482 299.85 419.482 298.8V298.54L418.052 298.65C417.142 298.73 416.772 299.13 416.772 299.67C416.772 300.26 417.212 300.56 417.872 300.56ZM422.568 301H421.888V296.74H420.918V296.16H421.888V294.63H422.568V296.16H423.538V296.74H422.568V301ZM426.418 301.12C424.998 301.12 424.048 300.1 424.048 298.58C424.048 297.07 424.988 296.03 426.368 296.03C427.678 296.03 428.568 296.96 428.568 298.33V298.67H424.718C424.768 299.85 425.388 300.53 426.428 300.53C427.218 300.53 427.728 300.19 427.908 299.55H428.568C428.308 300.57 427.558 301.12 426.418 301.12ZM426.368 296.62C425.458 296.62 424.858 297.22 424.738 298.17H427.878C427.878 297.24 427.278 296.62 426.368 296.62Z" fill="#576280"/>
<g clip-path="url(#clip1_1799_14013)">
<rect x="460" y="280" width="64" height="64" rx="7.04" fill="url(#paint2_linear_1799_14013)"/>
<path d="M506.276 324.391L497.085 315.2C496.537 315.905 495.904 316.538 495.2 317.086L504.39 326.276C504.65 326.537 504.992 326.667 505.333 326.667C505.674 326.667 506.016 326.537 506.276 326.276C506.796 325.756 506.796 324.912 506.276 324.391Z" fill="#3D4866"/>
<path d="M488.667 320C482.417 320 477.333 314.916 477.333 308.667C477.333 302.417 482.417 297.333 488.667 297.333C494.916 297.333 500 302.417 500 308.667C500 314.916 494.916 320 488.667 320ZM488.667 299.467C483.153 299.467 479.467 303.153 479.467 308.667C479.467 314.181 483.153 317.867 488.667 317.867C494.181 317.867 497.867 314.181 497.867 308.667C497.867 303.153 494.181 299.467 488.667 299.467Z" fill="#717C99"/>
<g opacity="0.4" filter="url(#filter0_f_1799_14013)">
<circle cx="524.319" cy="280.32" r="21.12" fill="#2F6FF0"/>
</g>
</g>
<defs>
<filter id="filter0_f_1799_14013" x="460.959" y="216.96" width="126.72" height="126.72" filterUnits="userSpaceOnUse" color-interpolation-filters="sRGB">
<feFlood flood-opacity="0" result="BackgroundImageFix"/>
<feBlend mode="normal" in="SourceGraphic" in2="BackgroundImageFix" result="shape"/>
<feGaussianBlur stdDeviation="21.12" result="effect1_foregroundBlur_1799_14013"/>
</filter>
<linearGradient id="paint0_linear_1799_14013" x1="256" y1="16" x2="256" y2="336" gradientUnits="userSpaceOnUse">
<stop stop-color="#161E33"/>
<stop offset="1" stop-color="#0E1424"/>
</linearGradient>
<linearGradient id="paint1_linear_1799_14013" x1="424" y1="60" x2="424" y2="84" gradientUnits="userSpaceOnUse">
<stop stop-color="#DC244C"/>
<stop offset="1" stop-color="#BE003A"/>
</linearGradient>
<linearGradient id="paint2_linear_1799_14013" x1="492" y1="280" x2="492" y2="344" gradientUnits="userSpaceOnUse">
<stop stop-color="#161E33"/>
<stop offset="1" stop-color="#0E1424"/>
</linearGradient>
<clipPath id="clip0_1799_14013">
<rect width="16" height="16" fill="white" transform="translate(64 64)"/>
</clipPath>
<clipPath id="clip1_1799_14013">
<rect x="460" y="280" width="64" height="64" rx="7.04" fill="white"/>
</clipPath>
</defs>
</svg>
