<svg width="564" height="432" viewBox="0 0 564 432" fill="none" xmlns="http://www.w3.org/2000/svg">
<g opacity="0.8" filter="url(#filter0_f_1799_14013)">
<rect x="120" y="232" width="320" height="80" rx="4" fill="#2F6FF0"/>
</g>
<rect x="40" y="16" width="480" height="320" rx="8" fill="url(#paint0_linear_1799_14013)"/>
<mask id="path-3-inside-1_1799_14013" fill="white">
<path d="M40 16H520V40H40V16Z"/>
</mask>
<path d="M520 39H40V41H520V39Z" fill="#28324D" mask="url(#path-3-inside-1_1799_14013)"/>
<circle cx="55" cy="28" r="3" fill="#DC244C"/>
<circle cx="65" cy="28" r="3" fill="#3D4866"/>
<circle cx="75" cy="28" r="3" fill="#038585"/>
<circle cx="507" cy="25" r="1" fill="#3D4866"/>
<circle cx="507" cy="28" r="1" fill="#3D4866"/>
<circle cx="507" cy="31" r="1" fill="#3D4866"/>
<rect x="72.5" y="56.5" width="415" height="31" rx="15.5" stroke="#28324D"/>
<g clip-path="url(#clip0_1799_14013)">
<path d="M102.666 78.6668L98.4365 74.4375" stroke="#E1E5F0" stroke-linecap="round" stroke-linejoin="round"/>
<path d="M94.6663 76.0002C97.6119 76.0002 99.9997 73.6123 99.9997 70.6668C99.9997 67.7213 97.6119 65.3335 94.6663 65.3335C91.7208 65.3335 89.333 67.7213 89.333 70.6668C89.333 73.6123 91.7208 76.0002 94.6663 76.0002Z" stroke="#E1E5F0" stroke-linecap="round" stroke-linejoin="round"/>
</g>
<path d="M119.592 73.316H116.184V77H115.008V68.324H120.24V69.404H116.184V72.248H119.592V73.316ZM124.469 71.084V72.116H123.965C122.897 72.116 122.237 72.764 122.237 73.892V77H121.109V71.144H122.165L122.237 72.032C122.477 71.42 123.065 71.012 123.869 71.012C124.073 71.012 124.241 71.036 124.469 71.084ZM129.583 71.132H130.699V77H129.691L129.571 76.112C129.235 76.724 128.455 77.144 127.591 77.144C126.223 77.144 125.455 76.22 125.455 74.78V71.132H126.583V74.408C126.583 75.668 127.123 76.148 127.987 76.148C129.019 76.148 129.583 75.488 129.583 74.228V71.132ZM132.888 69.74C132.48 69.74 132.144 69.404 132.144 68.996C132.144 68.576 132.48 68.252 132.888 68.252C133.296 68.252 133.632 68.576 133.632 68.996C133.632 69.404 133.296 69.74 132.888 69.74ZM132.336 77V71.132H133.464V77H132.336ZM136.757 77H135.629V72.08H134.477V71.132H135.629V69.296H136.757V71.132H137.909V72.08H136.757V77ZM138.441 75.296H139.521C139.521 75.896 139.977 76.256 140.721 76.256C141.513 76.256 141.969 75.932 141.969 75.392C141.969 74.996 141.777 74.756 141.165 74.6L140.133 74.36C139.089 74.108 138.597 73.592 138.597 72.728C138.597 71.648 139.509 70.964 140.805 70.964C142.089 70.964 142.929 71.684 142.953 72.8H141.873C141.849 72.212 141.453 71.84 140.769 71.84C140.061 71.84 139.665 72.152 139.665 72.692C139.665 73.088 139.953 73.352 140.529 73.496L141.561 73.748C142.557 73.988 143.049 74.444 143.049 75.32C143.049 76.436 142.089 77.144 140.697 77.144C139.317 77.144 138.441 76.412 138.441 75.296ZM149.298 77.144C148.038 77.144 147.294 76.436 147.294 75.368C147.294 74.288 148.098 73.616 149.478 73.508L151.326 73.364V73.196C151.326 72.212 150.738 71.864 149.946 71.864C148.998 71.864 148.458 72.284 148.458 72.992H147.474C147.474 71.768 148.482 70.964 149.994 70.964C151.446 70.964 152.43 71.732 152.43 73.316V77H151.47L151.35 76.052C151.05 76.724 150.246 77.144 149.298 77.144ZM149.622 76.268C150.69 76.268 151.338 75.572 151.338 74.468V74.156L149.838 74.276C148.842 74.372 148.434 74.756 148.434 75.332C148.434 75.956 148.89 76.268 149.622 76.268ZM155.12 77H153.992V71.132H155.012L155.132 72.032C155.504 71.36 156.248 70.964 157.076 70.964C158.624 70.964 159.332 71.912 159.332 73.412V77H158.204V73.664C158.204 72.476 157.652 71.996 156.788 71.996C155.732 71.996 155.12 72.752 155.12 73.892V77ZM163.246 77.144C161.542 77.144 160.51 75.872 160.51 74.084C160.51 72.284 161.554 70.964 163.294 70.964C164.194 70.964 164.95 71.36 165.346 72.08V68.168H166.462V77H165.454L165.358 75.932C164.974 76.736 164.182 77.144 163.246 77.144ZM163.474 76.124C164.626 76.124 165.334 75.272 165.334 74.048C165.334 72.848 164.626 71.984 163.474 71.984C162.322 71.984 161.65 72.848 161.65 74.048C161.65 75.26 162.322 76.124 163.474 76.124ZM173.015 77L170.651 71.132H171.851L173.135 74.408C173.339 74.96 173.507 75.452 173.603 75.812C173.699 75.428 173.891 74.924 174.095 74.408L175.403 71.132H176.579L174.131 77H173.015ZM179.739 77.144C178.011 77.144 176.823 75.896 176.823 74.072C176.823 72.236 177.987 70.964 179.691 70.964C181.359 70.964 182.451 72.116 182.451 73.856V74.276L177.915 74.288C177.999 75.524 178.647 76.208 179.763 76.208C180.639 76.208 181.215 75.848 181.407 75.176H182.463C182.175 76.436 181.191 77.144 179.739 77.144ZM179.691 71.912C178.707 71.912 178.083 72.5 177.939 73.532H181.323C181.323 72.56 180.687 71.912 179.691 71.912ZM183.339 73.916C183.339 72.26 184.407 70.964 186.111 70.964C187.059 70.964 187.791 71.396 188.163 72.128L188.247 71.132H189.255V76.76C189.255 78.608 188.115 79.784 186.315 79.784C184.719 79.784 183.627 78.884 183.411 77.396H184.539C184.683 78.26 185.331 78.764 186.315 78.764C187.419 78.764 188.139 78.044 188.139 76.928V75.752C187.755 76.436 186.987 76.844 186.063 76.844C184.395 76.844 183.339 75.56 183.339 73.916ZM184.467 73.892C184.467 74.996 185.151 75.86 186.255 75.86C187.395 75.86 188.091 75.044 188.091 73.892C188.091 72.764 187.419 71.948 186.267 71.948C185.139 71.948 184.467 72.812 184.467 73.892ZM193.414 77.144C191.686 77.144 190.498 75.896 190.498 74.072C190.498 72.236 191.662 70.964 193.366 70.964C195.034 70.964 196.126 72.116 196.126 73.856V74.276L191.59 74.288C191.674 75.524 192.322 76.208 193.438 76.208C194.314 76.208 194.89 75.848 195.082 75.176H196.138C195.85 76.436 194.866 77.144 193.414 77.144ZM193.366 71.912C192.382 71.912 191.758 72.5 191.614 73.532H194.998C194.998 72.56 194.362 71.912 193.366 71.912ZM198.984 77H197.856V72.08H196.704V71.132H197.856V69.296H198.984V71.132H200.136V72.08H198.984V77ZM202.794 77.144C201.534 77.144 200.79 76.436 200.79 75.368C200.79 74.288 201.594 73.616 202.974 73.508L204.822 73.364V73.196C204.822 72.212 204.234 71.864 203.442 71.864C202.494 71.864 201.954 72.284 201.954 72.992H200.97C200.97 71.768 201.978 70.964 203.49 70.964C204.942 70.964 205.926 71.732 205.926 73.316V77H204.966L204.846 76.052C204.546 76.724 203.742 77.144 202.794 77.144ZM203.118 76.268C204.186 76.268 204.834 75.572 204.834 74.468V74.156L203.334 74.276C202.338 74.372 201.93 74.756 201.93 75.332C201.93 75.956 202.386 76.268 203.118 76.268ZM208.508 77H207.488V68.168H208.616V72.14C209 71.372 209.792 70.964 210.752 70.964C212.432 70.964 213.44 72.284 213.44 74.096C213.44 75.872 212.384 77.144 210.68 77.144C209.756 77.144 208.976 76.736 208.592 75.932L208.508 77ZM208.628 74.048C208.628 75.272 209.324 76.124 210.476 76.124C211.628 76.124 212.312 75.26 212.312 74.048C212.312 72.848 211.628 71.984 210.476 71.984C209.324 71.984 208.628 72.848 208.628 74.048ZM215.835 77H214.707V68.168H215.835V77ZM220.028 77.144C218.3 77.144 217.112 75.896 217.112 74.072C217.112 72.236 218.276 70.964 219.98 70.964C221.648 70.964 222.74 72.116 222.74 73.856V74.276L218.204 74.288C218.288 75.524 218.936 76.208 220.052 76.208C220.928 76.208 221.504 75.848 221.696 75.176H222.752C222.464 76.436 221.48 77.144 220.028 77.144ZM219.98 71.912C218.996 71.912 218.372 72.5 218.228 73.532H221.612C221.612 72.56 220.976 71.912 219.98 71.912ZM223.52 75.296H224.6C224.6 75.896 225.056 76.256 225.8 76.256C226.592 76.256 227.048 75.932 227.048 75.392C227.048 74.996 226.856 74.756 226.244 74.6L225.212 74.36C224.168 74.108 223.676 73.592 223.676 72.728C223.676 71.648 224.588 70.964 225.884 70.964C227.168 70.964 228.008 71.684 228.032 72.8H226.952C226.928 72.212 226.532 71.84 225.848 71.84C225.14 71.84 224.744 72.152 224.744 72.692C224.744 73.088 225.032 73.352 225.608 73.496L226.64 73.748C227.636 73.988 228.128 74.444 228.128 75.32C228.128 76.436 227.168 77.144 225.776 77.144C224.396 77.144 223.52 76.412 223.52 75.296Z" fill="#F0F3FA"/>
<path d="M413 72C413 65.3726 418.373 60 425 60H471C477.627 60 483 65.3726 483 72C483 78.6274 477.627 84 471 84H425C418.373 84 413 78.6274 413 72Z" fill="url(#paint1_linear_1799_14013)"/>
<path d="M429.504 70.664C429.504 69.176 430.704 68.168 432.492 68.168C434.148 68.168 435.216 69.092 435.312 70.592H434.124C434.064 69.728 433.452 69.224 432.48 69.224C431.388 69.224 430.68 69.776 430.68 70.628C430.68 71.324 431.076 71.744 431.892 71.936L433.32 72.272C434.736 72.596 435.456 73.364 435.456 74.588C435.456 76.148 434.244 77.144 432.396 77.144C430.632 77.144 429.456 76.22 429.384 74.732H430.584C430.608 75.56 431.304 76.088 432.396 76.088C433.548 76.088 434.28 75.548 434.28 74.684C434.28 74 433.908 73.568 433.08 73.376L431.652 73.052C430.236 72.728 429.504 71.912 429.504 70.664ZM439.274 77.144C437.546 77.144 436.358 75.896 436.358 74.072C436.358 72.236 437.522 70.964 439.226 70.964C440.894 70.964 441.986 72.116 441.986 73.856V74.276L437.45 74.288C437.534 75.524 438.182 76.208 439.298 76.208C440.174 76.208 440.75 75.848 440.942 75.176H441.998C441.71 76.436 440.726 77.144 439.274 77.144ZM439.226 71.912C438.242 71.912 437.618 72.5 437.474 73.532H440.858C440.858 72.56 440.222 71.912 439.226 71.912ZM444.903 77.144C443.643 77.144 442.899 76.436 442.899 75.368C442.899 74.288 443.703 73.616 445.083 73.508L446.931 73.364V73.196C446.931 72.212 446.343 71.864 445.551 71.864C444.603 71.864 444.063 72.284 444.063 72.992H443.079C443.079 71.768 444.087 70.964 445.599 70.964C447.051 70.964 448.035 71.732 448.035 73.316V77H447.075L446.955 76.052C446.655 76.724 445.851 77.144 444.903 77.144ZM445.227 76.268C446.295 76.268 446.943 75.572 446.943 74.468V74.156L445.443 74.276C444.447 74.372 444.039 74.756 444.039 75.332C444.039 75.956 444.495 76.268 445.227 76.268ZM452.957 71.084V72.116H452.453C451.385 72.116 450.725 72.764 450.725 73.892V77H449.597V71.144H450.653L450.725 72.032C450.965 71.42 451.553 71.012 452.357 71.012C452.561 71.012 452.729 71.036 452.957 71.084ZM453.42 74.072C453.42 72.236 454.584 70.964 456.3 70.964C457.776 70.964 458.808 71.804 459.012 73.112H457.884C457.692 72.368 457.092 71.972 456.336 71.972C455.268 71.972 454.536 72.788 454.536 74.06C454.536 75.32 455.22 76.136 456.288 76.136C457.092 76.136 457.692 75.716 457.896 75.02H459.024C458.796 76.292 457.704 77.144 456.288 77.144C454.56 77.144 453.42 75.92 453.42 74.072ZM461.342 76.988H460.214V68.168H461.342V72.032C461.714 71.396 462.422 70.964 463.334 70.964C464.834 70.964 465.554 71.912 465.554 73.412V77H464.426V73.664C464.426 72.476 463.862 71.996 463.022 71.996C461.93 71.996 461.342 72.788 461.342 73.796V76.988Z" fill="#E1E5F0"/>
<rect x="72.5" y="112.5" width="67" height="67" rx="3.5" fill="#161E33"/>
<rect x="72.5" y="112.5" width="67" height="67" rx="3.5" stroke="#8F98B3"/>
<path d="M115.41 136.541C115.317 136.541 115.223 136.522 115.133 136.481C114.799 136.328 114.651 135.933 114.803 135.597C115.891 133.211 117.864 132 120.666 132C121.034 132 121.333 132.298 121.333 132.667C121.333 133.035 121.034 133.333 120.666 133.333C118.401 133.333 116.881 134.255 116.016 136.151C115.905 136.396 115.662 136.541 115.409 136.541H115.41Z" fill="#038585"/>
<path d="M94.3396 161.332C93.3949 161.332 92.4542 160.97 91.7422 160.258C90.4282 158.944 90.3036 156.853 91.4509 155.392L106.427 136.332C107.589 134.853 109.332 133.941 111.208 133.829C113.09 133.716 114.925 134.415 116.255 135.745C117.585 137.074 118.283 138.913 118.171 140.79C118.059 142.667 117.146 144.411 115.668 145.573L96.6076 160.548C95.9389 161.073 95.1376 161.332 94.3396 161.332Z" fill="#E0700D"/>
<path d="M96.6659 155.333C96.4952 155.333 96.3245 155.268 96.1945 155.138L94.0685 153.012C93.8079 152.751 93.8079 152.33 94.0685 152.069C94.3292 151.809 94.7505 151.809 95.0112 152.069L97.1372 154.195C97.3979 154.456 97.3979 154.877 97.1372 155.138C97.0072 155.268 96.8366 155.333 96.6659 155.333Z" fill="#733501"/>
<path d="M107.333 143.333C107.162 143.333 106.992 143.268 106.862 143.138L103.961 140.421C103.7 140.161 103.7 139.739 103.961 139.479C104.222 139.218 104.643 139.218 104.904 139.479L107.804 142.195C108.065 142.456 108.065 142.877 107.804 143.138C107.674 143.268 107.504 143.333 107.333 143.333Z" fill="#733501"/>
<path d="M105.714 153.212C105.544 153.212 105.373 153.146 105.243 153.016L102.862 150.666C102.601 150.406 102.601 149.984 102.862 149.724C103.122 149.463 103.544 149.463 103.804 149.724L106.186 152.074C106.446 152.334 106.446 152.756 106.186 153.016C106.056 153.146 105.885 153.212 105.714 153.212Z" fill="#733501"/>
<rect x="124" y="116" width="12" height="12" rx="2" fill="#008A53"/>
<path d="M129.447 124.5C129.327 124.5 129.211 124.452 129.126 124.367L127.762 123.003C127.68 122.918 127.634 122.803 127.635 122.684C127.636 122.564 127.684 122.45 127.768 122.366C127.852 122.282 127.966 122.234 128.085 122.233C128.205 122.232 128.319 122.278 128.405 122.361L129.405 123.361L132.27 119.676C132.344 119.58 132.453 119.519 132.572 119.504C132.692 119.489 132.813 119.522 132.908 119.596C133.003 119.67 133.065 119.779 133.08 119.898C133.095 120.018 133.062 120.139 132.988 120.234L129.806 124.325C129.767 124.376 129.717 124.418 129.66 124.448C129.603 124.478 129.54 124.496 129.475 124.5H129.447Z" fill="#E1E5F0"/>
<path d="M75.79 197.11C73.79 197.11 72.43 195.62 72.43 193.42C72.43 191.22 73.81 189.72 75.83 189.72C77.37 189.72 78.58 190.65 78.87 192.07H78.1C77.8 191.04 76.92 190.41 75.8 190.41C74.23 190.41 73.18 191.61 73.18 193.42C73.18 195.22 74.23 196.42 75.8 196.42C76.93 196.42 77.83 195.81 78.14 194.85H78.91C78.58 196.2 77.33 197.11 75.79 197.11ZM81.2975 197.12C80.2675 197.12 79.6575 196.54 79.6575 195.69C79.6575 194.8 80.3375 194.24 81.4675 194.15L83.0675 194.02V193.86C83.0675 192.91 82.4975 192.61 81.7875 192.61C80.9475 192.61 80.4475 192.99 80.4475 193.64H79.8175C79.8175 192.66 80.6175 192.03 81.8075 192.03C82.9275 192.03 83.7475 192.59 83.7475 193.87V197H83.1675L83.0775 196.15C82.7775 196.76 82.1175 197.12 81.2975 197.12ZM81.4575 196.56C82.4775 196.56 83.0675 195.85 83.0675 194.8V194.54L81.6375 194.65C80.7275 194.73 80.3575 195.13 80.3575 195.67C80.3575 196.26 80.7975 196.56 81.4575 196.56ZM87.6621 192.1V192.72H87.2821C86.3921 192.72 85.8221 193.32 85.8221 194.24V197H85.1321V192.16H85.7821L85.8321 192.91C86.0221 192.39 86.5321 192.05 87.2121 192.05C87.3621 192.05 87.4921 192.06 87.6621 192.1ZM91.1094 192.1V192.72H90.7294C89.8394 192.72 89.2694 193.32 89.2694 194.24V197H88.5794V192.16H89.2294L89.2794 192.91C89.4694 192.39 89.9794 192.05 90.6594 192.05C90.8094 192.05 90.9394 192.06 91.1094 192.1ZM91.5011 194.58C91.5011 193.1 92.5411 192.03 93.9611 192.03C95.3811 192.03 96.4211 193.1 96.4211 194.58C96.4211 196.05 95.3811 197.12 93.9611 197.12C92.5411 197.12 91.5011 196.05 91.5011 194.58ZM92.2011 194.57C92.2011 195.71 92.9211 196.5 93.9611 196.5C94.9911 196.5 95.7211 195.71 95.7211 194.57C95.7211 193.45 94.9911 192.65 93.9611 192.65C92.9211 192.65 92.2011 193.45 92.2011 194.57ZM98.5859 197H97.9059V192.74H96.9359V192.16H97.9059V190.63H98.5859V192.16H99.5559V192.74H98.5859V197Z" fill="#576280"/>
<rect x="156.5" y="112.5" width="67" height="67" rx="3.5" stroke="#28324D"/>
<path d="M190 154.667C189.83 154.667 189.666 154.602 189.542 154.485C189.418 154.369 189.344 154.209 189.334 154.039L188.038 132H183.334C183.157 132 182.987 131.93 182.862 131.805C182.737 131.68 182.667 131.51 182.667 131.333C182.667 131.156 182.737 130.987 182.862 130.862C182.987 130.737 183.157 130.667 183.334 130.667H188.667C188.837 130.666 189.001 130.731 189.125 130.848C189.249 130.964 189.324 131.124 189.334 131.294L190.667 153.961C190.672 154.048 190.66 154.136 190.632 154.219C190.603 154.302 190.558 154.378 190.5 154.444C190.442 154.509 190.371 154.563 190.292 154.601C190.213 154.639 190.127 154.661 190.04 154.667H190Z" fill="#2F6FF0"/>
<path d="M198.667 146H181.334C181.157 146 180.987 145.93 180.862 145.804C180.737 145.679 180.667 145.51 180.667 145.333C180.667 142.858 181.65 140.484 183.401 138.733C185.151 136.983 187.525 136 190 136C192.476 136 194.85 136.983 196.6 138.733C198.35 140.484 199.334 142.858 199.334 145.333C199.334 145.51 199.263 145.679 199.138 145.804C199.013 145.93 198.844 146 198.667 146Z" fill="#89A9FF"/>
<path d="M180.677 145.333C180.673 145.352 180.671 145.372 180.67 145.391L181.897 159.507C181.941 160.005 182.169 160.469 182.538 160.808C182.907 161.146 183.389 161.333 183.89 161.333H196.111C196.612 161.333 197.094 161.146 197.463 160.808C197.832 160.469 198.061 160.005 198.104 159.507L199.334 145.391C199.333 145.372 199.33 145.352 199.327 145.333H180.677Z" fill="#004F4F"/>
<path d="M200.667 146H179.334C179.157 146 178.987 145.93 178.862 145.805C178.737 145.68 178.667 145.51 178.667 145.333C178.667 145.156 178.737 144.987 178.862 144.862C178.987 144.737 179.157 144.667 179.334 144.667H200.667C200.844 144.667 201.013 144.737 201.138 144.862C201.263 144.987 201.334 145.156 201.334 145.333C201.334 145.51 201.263 145.68 201.138 145.805C201.013 145.93 200.844 146 200.667 146Z" fill="#2F6FF0"/>
<path d="M156.44 191.7C156.44 190.5 157.4 189.71 158.84 189.71C160.13 189.71 160.98 190.43 161.09 191.63H160.36C160.28 190.82 159.73 190.36 158.83 190.36C157.82 190.36 157.16 190.88 157.16 191.69C157.16 192.32 157.53 192.72 158.28 192.91L159.51 193.21C160.63 193.48 161.21 194.12 161.21 195.09C161.21 196.33 160.25 197.12 158.77 197.12C157.38 197.12 156.44 196.39 156.35 195.22H157.09C157.13 195.97 157.79 196.46 158.77 196.46C159.82 196.46 160.49 195.95 160.49 195.13C160.49 194.49 160.13 194.07 159.36 193.89L158.15 193.59C157.03 193.32 156.44 192.68 156.44 191.7ZM163.045 197H162.355V192.16H162.955L163.035 192.85C163.275 192.34 163.815 192.03 164.495 192.03C165.255 192.03 165.825 192.43 166.055 193.06C166.275 192.43 166.865 192.03 167.645 192.03C168.695 192.03 169.385 192.71 169.385 193.83V197H168.715V193.97C168.715 193.14 168.255 192.65 167.515 192.65C166.705 192.65 166.225 193.26 166.225 194.01V197H165.545V193.96C165.545 193.14 165.075 192.66 164.345 192.66C163.535 192.66 163.045 193.26 163.045 194V197ZM170.433 194.58C170.433 193.1 171.473 192.03 172.893 192.03C174.313 192.03 175.353 193.1 175.353 194.58C175.353 196.05 174.313 197.12 172.893 197.12C171.473 197.12 170.433 196.05 170.433 194.58ZM171.133 194.57C171.133 195.71 171.853 196.5 172.893 196.5C173.923 196.5 174.653 195.71 174.653 194.57C174.653 193.45 173.923 192.65 172.893 192.65C171.853 192.65 171.133 193.45 171.133 194.57ZM176.116 194.58C176.116 193.1 177.156 192.03 178.576 192.03C179.996 192.03 181.036 193.1 181.036 194.58C181.036 196.05 179.996 197.12 178.576 197.12C177.156 197.12 176.116 196.05 176.116 194.58ZM176.816 194.57C176.816 195.71 177.536 196.5 178.576 196.5C179.606 196.5 180.336 195.71 180.336 194.57C180.336 193.45 179.606 192.65 178.576 192.65C177.536 192.65 176.816 193.45 176.816 194.57ZM183.201 197H182.521V192.74H181.551V192.16H182.521V190.63H183.201V192.16H184.171V192.74H183.201V197ZM185.76 196.99H185.07V189.71H185.76V193C186.07 192.42 186.66 192.03 187.47 192.03C188.74 192.03 189.31 192.82 189.31 194.04V197H188.62V194.19C188.62 193.06 188.09 192.66 187.34 192.66C186.3 192.66 185.76 193.43 185.76 194.36V196.99ZM191.025 190.83C190.745 190.83 190.515 190.6 190.515 190.32C190.515 190.04 190.745 189.8 191.025 189.8C191.305 189.8 191.545 190.04 191.545 190.32C191.545 190.6 191.305 190.83 191.025 190.83ZM190.685 197V192.16H191.375V197H190.685ZM194.844 197.12C193.424 197.12 192.474 196.1 192.474 194.58C192.474 193.07 193.414 192.03 194.794 192.03C196.104 192.03 196.994 192.96 196.994 194.33V194.67H193.144C193.194 195.85 193.814 196.53 194.854 196.53C195.644 196.53 196.154 196.19 196.334 195.55H196.994C196.734 196.57 195.984 197.12 194.844 197.12ZM194.794 192.62C193.884 192.62 193.284 193.22 193.164 194.17H196.304C196.304 193.24 195.704 192.62 194.794 192.62Z" fill="#576280"/>
<rect x="240.5" y="112.5" width="67" height="67" rx="3.5" fill="#161E33"/>
<rect x="240.5" y="112.5" width="67" height="67" rx="3.5" stroke="#8F98B3"/>
<path d="M274 139.333C273.824 139.333 273.654 139.263 273.529 139.138C273.404 139.013 273.334 138.843 273.334 138.667C273.334 136.373 271.734 133.415 269.142 132.639C268.973 132.588 268.831 132.472 268.747 132.316C268.663 132.161 268.644 131.978 268.695 131.809C268.746 131.639 268.862 131.497 269.017 131.413C269.173 131.329 269.356 131.311 269.525 131.361C272.701 132.315 274.667 135.895 274.667 138.667C274.667 138.843 274.597 139.013 274.472 139.138C274.347 139.263 274.177 139.333 274 139.333Z" fill="#733501"/>
<path d="M277.415 160.667C276.694 160.653 275.975 160.584 275.264 160.46C274.846 160.384 274.423 160.338 273.998 160.321C273.573 160.338 273.149 160.384 272.731 160.46C270.384 160.815 266.84 161.352 263.438 155.914C259.283 149.267 260.154 141.6 263.539 138.874C266.096 136.817 268.864 137.279 271.309 137.683C272.196 137.858 273.096 137.961 274 137.991C274.904 137.961 275.804 137.858 276.692 137.683C279.137 137.278 281.905 136.817 284.462 138.874C287.846 141.597 288.718 149.265 284.558 155.916C282.08 159.877 279.526 160.667 277.415 160.667Z" fill="#008A53"/>
<path d="M280.667 130V131.333C280.667 132.571 280.175 133.758 279.3 134.633C278.425 135.508 277.238 136 276 136V134.667C276 133.429 276.492 132.242 277.367 131.367C278.242 130.492 279.429 130 280.667 130Z" fill="#008A53"/>
<rect x="292" y="116" width="12" height="12" rx="2" fill="#008A53"/>
<path d="M297.447 124.5C297.327 124.5 297.211 124.452 297.126 124.367L295.762 123.003C295.68 122.918 295.634 122.803 295.635 122.684C295.636 122.564 295.684 122.45 295.768 122.366C295.852 122.282 295.966 122.234 296.085 122.233C296.205 122.232 296.319 122.278 296.405 122.361L297.405 123.361L300.27 119.676C300.344 119.58 300.453 119.519 300.572 119.504C300.692 119.489 300.813 119.522 300.908 119.596C301.003 119.67 301.065 119.779 301.08 119.898C301.095 120.018 301.062 120.139 300.988 120.234L297.806 124.325C297.767 124.376 297.717 124.418 297.66 124.448C297.603 124.478 297.54 124.496 297.475 124.5H297.447Z" fill="#E1E5F0"/>
<path d="M240.87 197H240.14L242.77 189.84H243.66L246.32 197H245.57L244.87 195.1H241.57L240.87 197ZM243.12 190.85L241.79 194.47H244.64L243.3 190.85C243.27 190.75 243.22 190.63 243.21 190.56C243.2 190.62 243.16 190.75 243.12 190.85ZM247.165 199.11V192.16H247.765L247.835 193.14C248.175 192.39 248.855 192.03 249.665 192.03C251.065 192.03 251.905 193.1 251.905 194.56C251.905 196.02 251.095 197.12 249.665 197.12C248.845 197.12 248.195 196.77 247.855 196.07V199.11H247.165ZM247.865 194.58C247.865 195.69 248.485 196.5 249.545 196.5C250.595 196.5 251.205 195.69 251.205 194.58C251.205 193.46 250.595 192.66 249.545 192.66C248.485 192.66 247.865 193.46 247.865 194.58ZM253.005 199.11V192.16H253.605L253.675 193.14C254.015 192.39 254.695 192.03 255.505 192.03C256.905 192.03 257.745 193.1 257.745 194.56C257.745 196.02 256.935 197.12 255.505 197.12C254.685 197.12 254.035 196.77 253.695 196.07V199.11H253.005ZM253.705 194.58C253.705 195.69 254.325 196.5 255.385 196.5C256.435 196.5 257.045 195.69 257.045 194.58C257.045 193.46 256.435 192.66 255.385 192.66C254.325 192.66 253.705 193.46 253.705 194.58ZM259.565 197H258.875V189.71H259.565V197ZM263.063 197.12C261.643 197.12 260.693 196.1 260.693 194.58C260.693 193.07 261.632 192.03 263.013 192.03C264.323 192.03 265.213 192.96 265.213 194.33V194.67H261.363C261.413 195.85 262.033 196.53 263.073 196.53C263.863 196.53 264.373 196.19 264.553 195.55H265.213C264.953 196.57 264.203 197.12 263.063 197.12ZM263.013 192.62C262.103 192.62 261.503 193.22 261.383 194.17H264.523C264.523 193.24 263.923 192.62 263.013 192.62Z" fill="#576280"/>
<rect x="324.5" y="112.5" width="67" height="67" rx="3.5" stroke="#28324D"/>
<path d="M370 160H346C345.823 160 345.653 159.93 345.528 159.805C345.403 159.68 345.333 159.51 345.333 159.333V142C345.332 141.883 345.363 141.768 345.421 141.667L348 137.333V132.667C348 132.49 348.07 132.32 348.195 132.195C348.32 132.07 348.49 132 348.666 132H367.333C367.51 132 367.679 132.07 367.804 132.195C367.929 132.32 368 132.49 368 132.667V137.333L370.578 141.667C370.637 141.768 370.667 141.883 370.666 142V159.333C370.666 159.51 370.596 159.68 370.471 159.805C370.346 159.93 370.176 160 370 160Z" fill="#D4D9E6"/>
<path d="M358 154.667C360.209 154.667 362 152.876 362 150.667C362 148.457 360.209 146.667 358 146.667C355.791 146.667 354 148.457 354 150.667C354 152.876 355.791 154.667 358 154.667Z" fill="#2F6FF0"/>
<path d="M368 137.333H348L345.421 141.667C345.363 141.768 345.332 141.883 345.333 142H370.666C370.667 141.883 370.637 141.768 370.578 141.667L368 137.333Z" fill="#8F98B3"/>
<path d="M325.58 197H324.87V189.84H325.58L328.19 196.15L330.8 189.84H331.52V197H330.81V193.6C330.81 192.35 330.83 191.8 330.87 191.31L328.54 197H327.85L325.52 191.34C325.56 191.61 325.58 192.4 325.58 193.49V197ZM333.449 190.83C333.169 190.83 332.939 190.6 332.939 190.32C332.939 190.04 333.169 189.8 333.449 189.8C333.729 189.8 333.969 190.04 333.969 190.32C333.969 190.6 333.729 190.83 333.449 190.83ZM333.109 197V192.16H333.799V197H333.109ZM335.958 197H335.268V189.71H335.958V197ZM338.145 197H337.455V189.71H338.145V194.66L340.545 192.16H341.415L339.555 194.09L341.425 197H340.625L339.085 194.58L338.145 195.55V197Z" fill="#576280"/>
<rect x="408.5" y="112.5" width="67" height="67" rx="3.5" fill="#161E33"/>
<rect x="408.5" y="112.5" width="67" height="67" rx="3.5" stroke="#8F98B3"/>
<path d="M447.334 136.667C447.334 135.252 446.772 133.896 445.772 132.896C444.771 131.895 443.415 131.333 442 131.333C440.586 131.333 439.229 131.895 438.229 132.896C437.229 133.896 436.667 135.252 436.667 136.667C436.667 143.333 432.667 146 432.667 151.333C432.667 153.809 433.65 156.183 435.401 157.933C437.151 159.683 439.525 160.667 442 160.667C444.476 160.667 446.85 159.683 448.6 157.933C450.35 156.183 451.334 153.809 451.334 151.333C451.334 146 447.334 143.333 447.334 136.667Z" fill="#50BF83"/>
<path d="M442 161.333C439.349 161.33 436.807 160.276 434.932 158.401C433.058 156.526 432.003 153.985 432 151.333C432 148.667 432.921 146.683 433.895 144.581C434.933 142.347 436 140.039 436 136.667C436 135.075 436.632 133.549 437.757 132.424C438.883 131.299 440.409 130.667 442 130.667C443.591 130.667 445.117 131.299 446.243 132.424C447.368 133.549 448 135.075 448 136.667C448 140.039 449.067 142.347 450.105 144.581C451.079 146.683 452 148.667 452 151.333C451.997 153.985 450.942 156.526 449.068 158.401C447.193 160.276 444.651 161.33 442 161.333ZM442 132C440.763 132.002 439.577 132.494 438.702 133.369C437.827 134.243 437.335 135.43 437.333 136.667C437.333 140.333 436.149 142.887 435.105 145.141C434.193 147.106 433.333 148.962 433.333 151.333C433.333 153.632 434.246 155.836 435.872 157.462C437.497 159.087 439.701 160 442 160C444.299 160 446.503 159.087 448.128 157.462C449.754 155.836 450.667 153.632 450.667 151.333C450.667 148.962 449.807 147.106 448.895 145.141C447.851 142.887 446.667 140.333 446.667 136.667C446.665 135.43 446.173 134.243 445.298 133.369C444.423 132.494 443.237 132.002 442 132Z" fill="#00522F"/>
<path d="M442 156.667C444.946 156.667 447.334 154.279 447.334 151.333C447.334 148.388 444.946 146 442 146C439.055 146 436.667 148.388 436.667 151.333C436.667 154.279 439.055 156.667 442 156.667Z" fill="#008A53"/>
<path d="M442 154.667C443.841 154.667 445.334 153.174 445.334 151.333C445.334 149.492 443.841 148 442 148C440.159 148 438.667 149.492 438.667 151.333C438.667 153.174 440.159 154.667 442 154.667Z" fill="#733501"/>
<rect x="460" y="116" width="12" height="12" rx="2" fill="#008A53"/>
<path d="M465.447 124.5C465.327 124.5 465.211 124.452 465.126 124.367L463.762 123.003C463.68 122.918 463.634 122.803 463.635 122.684C463.636 122.564 463.684 122.45 463.768 122.366C463.852 122.282 463.966 122.234 464.085 122.233C464.205 122.232 464.319 122.278 464.405 122.361L465.405 123.361L468.27 119.676C468.344 119.58 468.453 119.519 468.572 119.504C468.692 119.489 468.813 119.522 468.908 119.596C469.003 119.67 469.065 119.779 469.08 119.898C469.095 120.018 469.062 120.139 468.988 120.234L465.806 124.325C465.767 124.376 465.717 124.418 465.66 124.448C465.603 124.478 465.54 124.496 465.475 124.5H465.447Z" fill="#E1E5F0"/>
<path d="M408.87 197H408.14L410.77 189.84H411.66L414.32 197H413.57L412.87 195.1H409.57L408.87 197ZM411.12 190.85L409.79 194.47H412.64L411.3 190.85C411.27 190.75 411.22 190.63 411.21 190.56C411.2 190.62 411.16 190.75 411.12 190.85ZM416.193 197L414.213 192.16H414.953L416.203 195.28C416.333 195.63 416.463 195.96 416.553 196.28C416.643 195.95 416.773 195.63 416.913 195.28L418.183 192.16H418.893L416.883 197H416.193ZM419.151 194.58C419.151 193.1 420.191 192.03 421.611 192.03C423.031 192.03 424.071 193.1 424.071 194.58C424.071 196.05 423.031 197.12 421.611 197.12C420.191 197.12 419.151 196.05 419.151 194.58ZM419.851 194.57C419.851 195.71 420.571 196.5 421.611 196.5C422.641 196.5 423.371 195.71 423.371 194.57C423.371 193.45 422.641 192.65 421.611 192.65C420.571 192.65 419.851 193.45 419.851 194.57ZM424.835 194.59C424.835 193.07 425.765 192.03 427.175 192.03C428.295 192.03 429.115 192.68 429.305 193.68H428.615C428.435 193.01 427.855 192.64 427.185 192.64C426.205 192.64 425.515 193.39 425.515 194.58C425.515 195.73 426.155 196.5 427.135 196.5C427.855 196.5 428.435 196.1 428.625 195.48H429.325C429.095 196.47 428.235 197.12 427.135 197.12C425.765 197.12 424.835 196.11 424.835 194.59ZM431.76 197.12C430.73 197.12 430.12 196.54 430.12 195.69C430.12 194.8 430.8 194.24 431.93 194.15L433.53 194.02V193.86C433.53 192.91 432.96 192.61 432.25 192.61C431.41 192.61 430.91 192.99 430.91 193.64H430.28C430.28 192.66 431.08 192.03 432.27 192.03C433.39 192.03 434.21 192.59 434.21 193.87V197H433.63L433.54 196.15C433.24 196.76 432.58 197.12 431.76 197.12ZM431.92 196.56C432.94 196.56 433.53 195.85 433.53 194.8V194.54L432.1 194.65C431.19 194.73 430.82 195.13 430.82 195.67C430.82 196.26 431.26 196.56 431.92 196.56ZM437.495 197.12C436.085 197.12 435.255 196.04 435.255 194.59C435.255 193.13 436.085 192.03 437.525 192.03C438.325 192.03 438.965 192.38 439.305 193.08V189.71H439.995V197H439.395L439.325 196.01C438.985 196.76 438.305 197.12 437.495 197.12ZM437.615 196.49C438.675 196.49 439.295 195.69 439.295 194.57C439.295 193.46 438.675 192.65 437.615 192.65C436.565 192.65 435.955 193.46 435.955 194.57C435.955 195.69 436.565 196.49 437.615 196.49ZM441.095 194.58C441.095 193.1 442.135 192.03 443.555 192.03C444.975 192.03 446.015 193.1 446.015 194.58C446.015 196.05 444.975 197.12 443.555 197.12C442.135 197.12 441.095 196.05 441.095 194.58ZM441.795 194.57C441.795 195.71 442.515 196.5 443.555 196.5C444.585 196.5 445.315 195.71 445.315 194.57C445.315 193.45 444.585 192.65 443.555 192.65C442.515 192.65 441.795 193.45 441.795 194.57Z" fill="#576280"/>
<rect x="72.5" y="216.5" width="67" height="67" rx="3.5" fill="#161E33"/>
<rect x="72.5" y="216.5" width="67" height="67" rx="3.5" stroke="#8F98B3"/>
<path d="M99.3298 253.282C102.602 258.259 103.202 262.504 103.311 264.046C103.336 264.397 103.624 264.667 103.976 264.667H107.947C108.328 264.667 108.63 264.35 108.612 263.97C108.523 261.971 108.738 256.128 113.819 252.446L108 248L100.666 250L99.3291 253.283L99.3298 253.282Z" fill="#00522F"/>
<path d="M104.667 256C101.559 256 98.6783 254.303 97.1457 251.624C96.5697 251.871 95.9537 252 95.3337 252C92.761 252 90.667 249.907 90.667 247.333C90.667 245.991 91.255 244.714 92.2603 243.832C92.0857 243.193 92.0003 242.591 92.0003 242C92.0003 237.957 95.2903 234.667 99.3337 234.667C101.62 234.667 103.728 235.719 105.113 237.519C106.303 236.534 107.775 236 109.334 236C112.527 236 115.231 238.269 115.843 241.365C118.965 241.643 121.334 244.165 121.334 247.333C121.334 250.641 118.642 253.333 115.334 253.333C114.071 253.333 112.856 252.935 111.838 252.197C110.234 254.561 107.553 256 104.667 256Z" fill="#50BF83"/>
<rect x="124" y="220" width="12" height="12" rx="2" fill="#008A53"/>
<path d="M129.447 228.5C129.327 228.5 129.211 228.452 129.126 228.367L127.762 227.003C127.68 226.918 127.634 226.803 127.635 226.684C127.636 226.564 127.684 226.45 127.768 226.366C127.852 226.282 127.966 226.234 128.085 226.233C128.205 226.232 128.319 226.278 128.405 226.361L129.405 227.361L132.27 223.676C132.344 223.58 132.453 223.519 132.572 223.504C132.692 223.489 132.813 223.522 132.908 223.596C133.003 223.67 133.065 223.779 133.08 223.898C133.095 224.018 133.062 224.139 132.988 224.234L129.806 228.325C129.767 228.376 129.717 228.418 129.66 228.448C129.603 228.478 129.54 228.496 129.475 228.5H129.447Z" fill="#E1E5F0"/>
<path d="M72.87 301V293.84H75.49C76.87 293.84 77.72 294.54 77.72 295.69C77.72 296.53 77.35 297.1 76.61 297.39C77.44 297.66 77.86 298.24 77.86 299.12C77.86 300.27 77 301 75.64 301H72.87ZM75.48 294.48H73.59V297.1H75.57C76.47 297.1 76.98 296.6 76.98 295.75C76.98 294.95 76.44 294.48 75.48 294.48ZM75.64 297.73H73.59V300.35H75.64C76.58 300.35 77.13 299.86 77.13 299.03C77.13 298.22 76.57 297.73 75.64 297.73ZM81.5391 296.1V296.72H81.1591C80.2691 296.72 79.6991 297.32 79.6991 298.24V301H79.0091V296.16H79.6591L79.7091 296.91C79.8991 296.39 80.4091 296.05 81.0891 296.05C81.2391 296.05 81.3691 296.06 81.5391 296.1ZM81.9308 298.58C81.9308 297.1 82.9708 296.03 84.3908 296.03C85.8108 296.03 86.8508 297.1 86.8508 298.58C86.8508 300.05 85.8108 301.12 84.3908 301.12C82.9708 301.12 81.9308 300.05 81.9308 298.58ZM82.6308 298.57C82.6308 299.71 83.3508 300.5 84.3908 300.5C85.4208 300.5 86.1508 299.71 86.1508 298.57C86.1508 297.45 85.4208 296.65 84.3908 296.65C83.3508 296.65 82.6308 297.45 82.6308 298.57ZM87.6144 298.59C87.6144 297.07 88.5444 296.03 89.9544 296.03C91.0744 296.03 91.8944 296.68 92.0844 297.68H91.3944C91.2144 297.01 90.6344 296.64 89.9644 296.64C88.9844 296.64 88.2944 297.39 88.2944 298.58C88.2944 299.73 88.9344 300.5 89.9144 300.5C90.6344 300.5 91.2144 300.1 91.4044 299.48H92.1044C91.8744 300.47 91.0144 301.12 89.9144 301.12C88.5444 301.12 87.6144 300.11 87.6144 298.59ZM92.8097 298.59C92.8097 297.07 93.7397 296.03 95.1497 296.03C96.2697 296.03 97.0897 296.68 97.2797 297.68H96.5897C96.4097 297.01 95.8297 296.64 95.1597 296.64C94.1797 296.64 93.4897 297.39 93.4897 298.58C93.4897 299.73 94.1297 300.5 95.1097 300.5C95.8297 300.5 96.4097 300.1 96.5997 299.48H97.2997C97.0697 300.47 96.2097 301.12 95.1097 301.12C93.7397 301.12 92.8097 300.11 92.8097 298.59ZM98.005 298.58C98.005 297.1 99.045 296.03 100.465 296.03C101.885 296.03 102.925 297.1 102.925 298.58C102.925 300.05 101.885 301.12 100.465 301.12C99.045 301.12 98.005 300.05 98.005 298.58ZM98.705 298.57C98.705 299.71 99.425 300.5 100.465 300.5C101.495 300.5 102.225 299.71 102.225 298.57C102.225 297.45 101.495 296.65 100.465 296.65C99.425 296.65 98.705 297.45 98.705 298.57ZM104.749 301H104.059V293.71H104.749V301ZM106.556 294.83C106.276 294.83 106.046 294.6 106.046 294.32C106.046 294.04 106.276 293.8 106.556 293.8C106.836 293.8 107.076 294.04 107.076 294.32C107.076 294.6 106.836 294.83 106.556 294.83ZM106.216 301V296.16H106.906V301H106.216Z" fill="#576280"/>
<rect x="156.5" y="216.5" width="67" height="67" rx="3.5" fill="#161E33"/>
<rect x="156.5" y="216.5" width="67" height="67" rx="3.5" stroke="#8F98B3"/>
<path d="M202.775 249.575C201.583 248.108 200.248 246.761 198.792 245.555C197.844 244.708 196.863 243.831 196.042 242.983C193.969 240.835 193.364 237.575 193.333 235.987C193.33 235.812 193.258 235.646 193.133 235.524C193.009 235.402 192.841 235.333 192.666 235.333H187.333C187.159 235.333 186.991 235.402 186.866 235.524C186.742 235.646 186.67 235.812 186.666 235.987C186.636 237.575 186.03 240.835 183.957 242.983C183.136 243.831 182.157 244.708 181.208 245.555C179.751 246.761 178.417 248.108 177.224 249.575C175.475 251.981 174.458 256.123 176.358 259.533C178.053 262.577 180.994 263.207 186.194 263.353H186.2C187.283 264.203 188.62 264.665 189.997 264.665C191.374 264.665 192.711 264.203 193.794 263.353H193.822C199.003 263.207 201.944 262.577 203.639 259.533C205.541 256.123 204.524 251.981 202.775 249.575Z" fill="#D9E2FE"/>
<path d="M184.909 250.667C181.692 255.262 181.932 260.353 184.164 263.259C184.8 263.303 185.473 263.335 186.194 263.355C184.222 261.695 182.5 258.278 184.909 250.667Z" fill="#89A9FF"/>
<path d="M195.835 263.261C198.068 260.355 198.309 255.261 195.091 250.667C197.5 258.278 195.778 261.695 193.806 263.355H193.825C194.538 263.333 195.204 263.304 195.835 263.261Z" fill="#89A9FF"/>
<rect x="208" y="220" width="12" height="12" rx="2" fill="#008A53"/>
<path d="M213.447 228.5C213.327 228.5 213.211 228.452 213.126 228.367L211.762 227.003C211.68 226.918 211.634 226.803 211.635 226.684C211.636 226.564 211.684 226.45 211.768 226.366C211.852 226.282 211.966 226.234 212.085 226.233C212.205 226.232 212.319 226.278 212.405 226.361L213.405 227.361L216.27 223.676C216.344 223.58 216.453 223.519 216.572 223.504C216.692 223.489 216.813 223.522 216.908 223.596C217.003 223.67 217.065 223.779 217.08 223.898C217.095 224.018 217.062 224.139 216.988 224.234L213.806 228.325C213.767 228.376 213.717 228.418 213.66 228.448C213.603 228.478 213.54 228.496 213.475 228.5H213.447Z" fill="#E1E5F0"/>
<path d="M159.87 294.4C158.22 294.4 157.18 295.62 157.18 297.45C157.18 299.31 158.28 300.44 159.89 300.44C161.09 300.44 162.26 299.86 162.26 298.14V297.77H159.67V297.13H162.94V301.01H162.37L162.3 299.87C161.92 300.58 161.02 301.12 159.86 301.12C157.83 301.12 156.43 299.66 156.43 297.45C156.43 295.26 157.83 293.72 159.88 293.72C161.39 293.72 162.56 294.58 162.84 295.88H162.06C161.76 294.9 160.92 294.4 159.87 294.4ZM165.61 301.12C164.58 301.12 163.97 300.54 163.97 299.69C163.97 298.8 164.65 298.24 165.78 298.15L167.38 298.02V297.86C167.38 296.91 166.81 296.61 166.1 296.61C165.26 296.61 164.76 296.99 164.76 297.64H164.13C164.13 296.66 164.93 296.03 166.12 296.03C167.24 296.03 168.06 296.59 168.06 297.87V301H167.48L167.39 300.15C167.09 300.76 166.43 301.12 165.61 301.12ZM165.77 300.56C166.79 300.56 167.38 299.85 167.38 298.8V298.54L165.95 298.65C165.04 298.73 164.67 299.13 164.67 299.67C164.67 300.26 165.11 300.56 165.77 300.56ZM171.975 296.1V296.72H171.595C170.705 296.72 170.135 297.32 170.135 298.24V301H169.445V296.16H170.095L170.145 296.91C170.335 296.39 170.845 296.05 171.525 296.05C171.675 296.05 171.805 296.06 171.975 296.1ZM173.612 301H172.922V293.71H173.612V301ZM175.419 294.83C175.139 294.83 174.909 294.6 174.909 294.32C174.909 294.04 175.139 293.8 175.419 293.8C175.699 293.8 175.939 294.04 175.939 294.32C175.939 294.6 175.699 294.83 175.419 294.83ZM175.079 301V296.16H175.769V301H175.079ZM176.868 298.59C176.868 297.07 177.798 296.03 179.208 296.03C180.328 296.03 181.148 296.68 181.338 297.68H180.648C180.468 297.01 179.888 296.64 179.218 296.64C178.238 296.64 177.548 297.39 177.548 298.58C177.548 299.73 178.188 300.5 179.168 300.5C179.888 300.5 180.468 300.1 180.658 299.48H181.358C181.128 300.47 180.268 301.12 179.168 301.12C177.798 301.12 176.868 300.11 176.868 298.59Z" fill="#576280"/>
<rect x="240.5" y="216.5" width="67" height="67" rx="3.5" stroke="#28324D"/>
<path d="M266.972 263.488C266.795 263.488 266.625 263.418 266.5 263.293L260.675 257.466C260.586 257.377 260.525 257.265 260.497 257.143C260.469 257.02 260.477 256.892 260.518 256.774C260.56 256.656 260.635 256.551 260.733 256.473C260.832 256.395 260.95 256.347 261.075 256.333L267.628 255.605C267.727 255.594 267.828 255.606 267.922 255.64C268.016 255.673 268.101 255.727 268.171 255.798C268.242 255.868 268.295 255.954 268.328 256.048C268.361 256.142 268.373 256.243 268.362 256.342L267.634 262.894C267.615 263.057 267.538 263.208 267.415 263.317C267.293 263.427 267.135 263.487 266.971 263.487L266.972 263.488Z" fill="#2F6FF0"/>
<path d="M277.591 246.362C275.515 244.229 274.112 241.533 273.557 238.608C273.544 238.614 273.53 238.619 273.516 238.626C271.128 237.746 267.705 237.845 265.771 239.779C265.69 239.86 265.631 239.961 265.601 240.072C265.57 240.183 265.568 240.3 265.596 240.411C265.624 240.523 265.68 240.625 265.759 240.709C265.838 240.792 265.937 240.854 266.047 240.888C267.19 241.321 268.165 242.11 268.825 243.139C265.231 249.097 266.976 256.132 267.053 256.435C267.083 256.551 267.143 256.656 267.228 256.74C267.312 256.825 267.417 256.885 267.533 256.914C269.026 257.259 270.554 257.428 272.085 257.418C275.409 257.418 279.93 256.632 283.461 253.1C284.15 252.409 284.737 251.623 285.205 250.766C282.305 250.039 279.667 248.514 277.591 246.362Z" fill="#0040A1"/>
<path d="M285.97 238.466C285.938 238.362 285.88 238.266 285.802 238.189C285.724 238.112 285.628 238.056 285.522 238.024C285.242 237.942 278.726 236.068 273.558 238.606C274.112 241.53 275.515 244.227 277.591 246.36C279.668 248.51 282.305 250.034 285.205 250.76C288.088 245.516 286.072 238.796 285.97 238.466Z" fill="#2F6FF0"/>
<path d="M280 242.666C280.737 242.666 281.334 242.069 281.334 241.333C281.334 240.597 280.737 240 280 240C279.264 240 278.667 240.597 278.667 241.333C278.667 242.069 279.264 242.666 280 242.666Z" fill="#C0F0F0"/>
<path d="M244.52 297.85H241.59V301H240.87V293.84H245.09V294.5H241.59V297.2H244.52V297.85ZM246.49 294.83C246.21 294.83 245.98 294.6 245.98 294.32C245.98 294.04 246.21 293.8 246.49 293.8C246.77 293.8 247.01 294.04 247.01 294.32C247.01 294.6 246.77 294.83 246.49 294.83ZM246.15 301V296.16H246.84V301H246.15ZM247.869 299.64H248.529C248.529 300.2 248.949 300.55 249.629 300.55C250.379 300.55 250.819 300.23 250.819 299.71C250.819 299.31 250.619 299.08 250.049 298.94L249.219 298.73C248.379 298.52 247.969 298.08 247.969 297.42C247.969 296.57 248.679 296.03 249.719 296.03C250.739 296.03 251.399 296.59 251.429 297.49H250.759C250.739 296.93 250.349 296.6 249.699 296.6C249.019 296.6 248.639 296.89 248.639 297.41C248.639 297.78 248.899 298.04 249.429 298.17L250.259 298.38C251.099 298.59 251.479 298.98 251.479 299.68C251.479 300.55 250.739 301.12 249.639 301.12C248.549 301.12 247.869 300.54 247.869 299.64ZM253.305 300.99H252.615V293.71H253.305V297C253.615 296.42 254.205 296.03 255.015 296.03C256.285 296.03 256.855 296.82 256.855 298.04V301H256.165V298.19C256.165 297.06 255.635 296.66 254.885 296.66C253.845 296.66 253.305 297.43 253.305 298.36V300.99Z" fill="#576280"/>
<rect x="324.5" y="216.5" width="67" height="67" rx="3.5" stroke="#28324D"/>
<path d="M367.08 264H348.92C347.986 264 347.089 263.604 346.459 262.915C345.829 262.225 345.516 261.296 345.601 260.365L347.334 245.333L345.723 241.576C344.592 238.936 346.528 236 349.4 236H366.601C369.473 236 371.409 238.936 370.277 241.576L368.667 245.333L370.4 260.365C370.485 261.296 370.172 262.225 369.541 262.915C368.912 263.604 368.015 264 367.08 264Z" fill="#FF8D39"/>
<path d="M359.334 249.333C359.163 249.333 358.993 249.268 358.863 249.138L357.529 247.805C357.269 247.544 357.269 247.122 357.529 246.862C357.79 246.602 358.212 246.602 358.472 246.862L359.805 248.195C360.066 248.456 360.066 248.878 359.805 249.138C359.675 249.268 359.505 249.333 359.334 249.333Z" fill="#E0700D"/>
<path d="M360.667 257.333C360.496 257.333 360.326 257.268 360.195 257.138C359.935 256.878 359.935 256.456 360.195 256.195L361.529 254.862C361.789 254.602 362.211 254.602 362.471 254.862C362.732 255.122 362.732 255.544 362.471 255.805L361.138 257.138C361.008 257.268 360.837 257.333 360.667 257.333Z" fill="#E0700D"/>
<path d="M363.334 244C362.965 244 362.667 243.702 362.667 243.333V242C362.667 241.632 362.965 241.333 363.334 241.333C363.702 241.333 364 241.632 364 242V243.333C364 243.702 363.702 244 363.334 244Z" fill="#E0700D"/>
<path d="M351.334 244C351.163 244 350.993 243.935 350.862 243.805C350.602 243.544 350.602 243.123 350.862 242.862L352.196 241.529C352.456 241.268 352.878 241.268 353.138 241.529C353.399 241.789 353.399 242.211 353.138 242.472L351.805 243.805C351.675 243.935 351.504 244 351.334 244Z" fill="#E0700D"/>
<path d="M354.001 256C353.632 256 353.334 255.702 353.334 255.333V254C353.334 253.632 353.632 253.333 354.001 253.333C354.369 253.333 354.667 253.632 354.667 254V255.333C354.667 255.702 354.369 256 354.001 256Z" fill="#E0700D"/>
<path d="M324.87 301V293.84H327.49C328.87 293.84 329.72 294.54 329.72 295.69C329.72 296.53 329.35 297.1 328.61 297.39C329.44 297.66 329.86 298.24 329.86 299.12C329.86 300.27 329 301 327.64 301H324.87ZM327.48 294.48H325.59V297.1H327.57C328.47 297.1 328.98 296.6 328.98 295.75C328.98 294.95 328.44 294.48 327.48 294.48ZM327.64 297.73H325.59V300.35H327.64C328.58 300.35 329.13 299.86 329.13 299.03C329.13 298.22 328.57 297.73 327.64 297.73ZM333.539 296.1V296.72H333.159C332.269 296.72 331.699 297.32 331.699 298.24V301H331.009V296.16H331.659L331.709 296.91C331.899 296.39 332.409 296.05 333.089 296.05C333.239 296.05 333.369 296.06 333.539 296.1ZM336.301 301.12C334.881 301.12 333.931 300.1 333.931 298.58C333.931 297.07 334.871 296.03 336.251 296.03C337.561 296.03 338.451 296.96 338.451 298.33V298.67H334.601C334.651 299.85 335.271 300.53 336.311 300.53C337.101 300.53 337.611 300.19 337.791 299.55H338.451C338.191 300.57 337.441 301.12 336.301 301.12ZM336.251 296.62C335.341 296.62 334.741 297.22 334.621 298.17H337.761C337.761 297.24 337.161 296.62 336.251 296.62ZM340.895 301.12C339.865 301.12 339.255 300.54 339.255 299.69C339.255 298.8 339.935 298.24 341.065 298.15L342.665 298.02V297.86C342.665 296.91 342.095 296.61 341.385 296.61C340.545 296.61 340.045 296.99 340.045 297.64H339.415C339.415 296.66 340.215 296.03 341.405 296.03C342.525 296.03 343.345 296.59 343.345 297.87V301H342.765L342.675 300.15C342.375 300.76 341.715 301.12 340.895 301.12ZM341.055 300.56C342.075 300.56 342.665 299.85 342.665 298.8V298.54L341.235 298.65C340.325 298.73 339.955 299.13 339.955 299.67C339.955 300.26 340.395 300.56 341.055 300.56ZM346.63 301.12C345.22 301.12 344.39 300.04 344.39 298.59C344.39 297.13 345.22 296.03 346.66 296.03C347.46 296.03 348.1 296.38 348.44 297.08V293.71H349.13V301H348.53L348.46 300.01C348.12 300.76 347.44 301.12 346.63 301.12ZM346.75 300.49C347.81 300.49 348.43 299.69 348.43 298.57C348.43 297.46 347.81 296.65 346.75 296.65C345.7 296.65 345.09 297.46 345.09 298.57C345.09 299.69 345.7 300.49 346.75 300.49Z" fill="#576280"/>
<rect x="408.5" y="216.5" width="67" height="67" rx="3.5" stroke="#28324D"/>
<path d="M450.667 241.333C449.031 241.333 447.628 240.35 447.009 238.943C446.878 238.645 446.56 238.486 446.243 238.561C445.951 238.629 445.647 238.667 445.334 238.667C443.317 238.667 441.649 237.174 441.374 235.234C441.327 234.908 441.049 234.667 440.719 234.667H434C433.264 234.667 432.667 235.263 432.667 236V252H450.667C451.035 252 451.334 251.701 451.334 251.333V241.273C451.116 241.31 450.895 241.333 450.667 241.333Z" fill="#733501"/>
<path d="M450 265.333H434C432.897 265.333 432 264.436 432 263.333V257.333C432 257.019 432.22 256.747 432.527 256.681L441.86 254.681C441.952 254.662 442.048 254.662 442.14 254.681L451.473 256.681C451.78 256.747 452 257.019 452 257.333V263.333C452 264.436 451.103 265.333 450 265.333Z" fill="#5700C9"/>
<path d="M445.334 251.333C444.965 251.333 444.667 251.035 444.667 250.667V239.333C444.667 238.965 444.965 238.667 445.334 238.667C445.702 238.667 446 238.965 446 239.333V250.667C446 251.035 445.702 251.333 445.334 251.333Z" fill="#311300"/>
<path d="M438.667 251.333C438.298 251.333 438 251.035 438 250.667V235.333C438 234.965 438.298 234.667 438.667 234.667C439.035 234.667 439.333 234.965 439.333 235.333V250.667C439.333 251.035 439.035 251.333 438.667 251.333Z" fill="#311300"/>
<path d="M450.667 246H433.334C432.965 246 432.667 245.701 432.667 245.333C432.667 244.965 432.965 244.667 433.334 244.667H450.667C451.035 244.667 451.334 244.965 451.334 245.333C451.334 245.701 451.035 246 450.667 246Z" fill="#311300"/>
<path d="M455.333 258.667C455.29 258.667 455.246 258.662 455.203 258.653L442 256.013L428.798 258.653C428.557 258.701 428.311 258.614 428.154 258.426C427.998 258.238 427.957 257.979 428.048 257.752L430.714 251.085C430.816 250.833 431.061 250.667 431.333 250.667H452.667C452.939 250.667 453.184 250.833 453.286 251.085L455.953 257.752C456.043 257.979 456.002 258.238 455.846 258.426C455.718 258.58 455.529 258.667 455.333 258.667Z" fill="#8547FF"/>
<path d="M411.79 301.11C409.79 301.11 408.43 299.62 408.43 297.42C408.43 295.22 409.81 293.72 411.83 293.72C413.37 293.72 414.58 294.65 414.87 296.07H414.1C413.8 295.04 412.92 294.41 411.8 294.41C410.23 294.41 409.18 295.61 409.18 297.42C409.18 299.22 410.23 300.42 411.8 300.42C412.93 300.42 413.83 299.81 414.14 298.85H414.91C414.58 300.2 413.33 301.11 411.79 301.11ZM416.646 300.99H415.956V293.71H416.646V297C416.956 296.42 417.546 296.03 418.356 296.03C419.626 296.03 420.196 296.82 420.196 298.04V301H419.506V298.19C419.506 297.06 418.976 296.66 418.226 296.66C417.186 296.66 416.646 297.43 416.646 298.36V300.99ZM421.232 298.58C421.232 297.1 422.272 296.03 423.692 296.03C425.112 296.03 426.152 297.1 426.152 298.58C426.152 300.05 425.112 301.12 423.692 301.12C422.272 301.12 421.232 300.05 421.232 298.58ZM421.932 298.57C421.932 299.71 422.652 300.5 423.692 300.5C424.722 300.5 425.452 299.71 425.452 298.57C425.452 297.45 424.722 296.65 423.692 296.65C422.652 296.65 421.932 297.45 421.932 298.57ZM426.915 298.59C426.915 297.07 427.845 296.03 429.255 296.03C430.375 296.03 431.195 296.68 431.385 297.68H430.695C430.515 297.01 429.935 296.64 429.265 296.64C428.285 296.64 427.595 297.39 427.595 298.58C427.595 299.73 428.235 300.5 429.215 300.5C429.935 300.5 430.515 300.1 430.705 299.48H431.405C431.175 300.47 430.315 301.12 429.215 301.12C427.845 301.12 426.915 300.11 426.915 298.59ZM432.11 298.58C432.11 297.1 433.15 296.03 434.57 296.03C435.99 296.03 437.03 297.1 437.03 298.58C437.03 300.05 435.99 301.12 434.57 301.12C433.15 301.12 432.11 300.05 432.11 298.58ZM432.81 298.57C432.81 299.71 433.53 300.5 434.57 300.5C435.6 300.5 436.33 299.71 436.33 298.57C436.33 297.45 435.6 296.65 434.57 296.65C433.53 296.65 432.81 297.45 432.81 298.57ZM438.854 301H438.164V293.71H438.854V301ZM441.712 301.12C440.682 301.12 440.072 300.54 440.072 299.69C440.072 298.8 440.752 298.24 441.882 298.15L443.482 298.02V297.86C443.482 296.91 442.912 296.61 442.202 296.61C441.362 296.61 440.862 296.99 440.862 297.64H440.232C440.232 296.66 441.032 296.03 442.222 296.03C443.342 296.03 444.162 296.59 444.162 297.87V301H443.582L443.492 300.15C443.192 300.76 442.532 301.12 441.712 301.12ZM441.872 300.56C442.892 300.56 443.482 299.85 443.482 298.8V298.54L442.052 298.65C441.142 298.73 440.772 299.13 440.772 299.67C440.772 300.26 441.212 300.56 441.872 300.56ZM446.568 301H445.888V296.74H444.918V296.16H445.888V294.63H446.568V296.16H447.538V296.74H446.568V301ZM450.418 301.12C448.998 301.12 448.048 300.1 448.048 298.58C448.048 297.07 448.988 296.03 450.368 296.03C451.678 296.03 452.568 296.96 452.568 298.33V298.67H448.718C448.768 299.85 449.388 300.53 450.428 300.53C451.218 300.53 451.728 300.19 451.908 299.55H452.568C452.308 300.57 451.558 301.12 450.418 301.12ZM450.368 296.62C449.458 296.62 448.858 297.22 448.738 298.17H451.878C451.878 297.24 451.278 296.62 450.368 296.62Z" fill="#576280"/>
<g clip-path="url(#clip1_1799_14013)">
<rect x="484" y="280" width="64" height="64" rx="7.04" fill="url(#paint2_linear_1799_14013)"/>
<path d="M530.276 324.391L521.085 315.2C520.537 315.905 519.904 316.538 519.2 317.086L528.39 326.276C528.65 326.537 528.992 326.667 529.333 326.667C529.674 326.667 530.016 326.537 530.276 326.276C530.796 325.756 530.796 324.912 530.276 324.391Z" fill="#3D4866"/>
<path d="M512.667 320C506.417 320 501.333 314.916 501.333 308.667C501.333 302.417 506.417 297.333 512.667 297.333C518.916 297.333 524 302.417 524 308.667C524 314.916 518.916 320 512.667 320ZM512.667 299.467C507.153 299.467 503.467 303.153 503.467 308.667C503.467 314.181 507.153 317.867 512.667 317.867C518.181 317.867 521.867 314.181 521.867 308.667C521.867 303.153 518.181 299.467 512.667 299.467Z" fill="#717C99"/>
<g opacity="0.4" filter="url(#filter1_f_1799_14013)">
<circle cx="548.319" cy="280.32" r="21.12" fill="#2F6FF0"/>
</g>
</g>
<defs>
<filter id="filter0_f_1799_14013" x="0" y="112" width="560" height="320" filterUnits="userSpaceOnUse" color-interpolation-filters="sRGB">
<feFlood flood-opacity="0" result="BackgroundImageFix"/>
<feBlend mode="normal" in="SourceGraphic" in2="BackgroundImageFix" result="shape"/>
<feGaussianBlur stdDeviation="60" result="effect1_foregroundBlur_1799_14013"/>
</filter>
<filter id="filter1_f_1799_14013" x="484.959" y="216.96" width="126.72" height="126.72" filterUnits="userSpaceOnUse" color-interpolation-filters="sRGB">
<feFlood flood-opacity="0" result="BackgroundImageFix"/>
<feBlend mode="normal" in="SourceGraphic" in2="BackgroundImageFix" result="shape"/>
<feGaussianBlur stdDeviation="21.12" result="effect1_foregroundBlur_1799_14013"/>
</filter>
<linearGradient id="paint0_linear_1799_14013" x1="280" y1="16" x2="280" y2="336" gradientUnits="userSpaceOnUse">
<stop stop-color="#161E33"/>
<stop offset="1" stop-color="#0E1424"/>
</linearGradient>
<linearGradient id="paint1_linear_1799_14013" x1="448" y1="60" x2="448" y2="84" gradientUnits="userSpaceOnUse">
<stop stop-color="#DC244C"/>
<stop offset="1" stop-color="#BE003A"/>
</linearGradient>
<linearGradient id="paint2_linear_1799_14013" x1="516" y1="280" x2="516" y2="344" gradientUnits="userSpaceOnUse">
<stop stop-color="#161E33"/>
<stop offset="1" stop-color="#0E1424"/>
</linearGradient>
<clipPath id="clip0_1799_14013">
<rect width="16" height="16" fill="white" transform="translate(88 64)"/>
</clipPath>
<clipPath id="clip1_1799_14013">
<rect x="484" y="280" width="64" height="64" rx="7.04" fill="white"/>
</clipPath>
</defs>
</svg>
