<svg width="541" height="360" viewBox="0 0 541 360" fill="none" xmlns="http://www.w3.org/2000/svg">
<path d="M492 114L532 114C536.418 114 540 117.582 540 122L540 304C540 308.418 536.418 312 532 312H526" stroke="#717C99" stroke-linecap="round" stroke-linejoin="round"/>
<path d="M497 119L492 114L497 109" stroke="#717C99" stroke-linecap="round" stroke-linejoin="round"/>
<g opacity="0.8" filter="url(#filter0_f_1799_14428)">
<rect x="116" y="144" width="280" height="80" rx="4" fill="#038585"/>
</g>
<rect x="44" width="440" height="240" rx="8" fill="url(#paint0_linear_1799_14428)"/>
<g clip-path="url(#clip0_1799_14428)">
<rect x="60" y="40" width="28" height="28" rx="14" fill="#2F6FF0"/>
<path d="M77.5 55.167H70.5V63.917H77.5V55.167Z" fill="#FFB2B7"/>
<path fill-rule="evenodd" clip-rule="evenodd" d="M80.4168 48.167V52.8337C80.4168 56.3716 77.5381 59.2503 74.0002 59.2503C70.4622 59.2503 67.5835 56.3716 67.5835 52.8337V48.167H80.4168Z" fill="#FFDADB"/>
<path d="M74 57.1112C73.5341 57.1103 73.0767 57.0017 72.6739 56.7964C72.2711 56.5911 71.937 56.2963 71.7054 55.9416C71.6666 55.8823 71.6564 55.8119 71.6768 55.7459C71.6972 55.6799 71.7467 55.6237 71.8144 55.5897C71.882 55.5558 71.9622 55.5468 72.0375 55.5647C72.1127 55.5826 72.1767 55.626 72.2154 55.6854C72.3948 55.9618 72.6544 56.1916 72.9678 56.3515C73.2812 56.5114 73.6373 56.5956 73.9998 56.5956C74.3624 56.5956 74.7185 56.5114 75.0319 56.3515C75.3453 56.1916 75.6049 55.9618 75.7843 55.6854C75.823 55.626 75.887 55.5826 75.9622 55.5647C76.0374 55.5468 76.1177 55.5558 76.1853 55.5897C76.253 55.6237 76.3024 55.6799 76.3229 55.7459C76.3433 55.8119 76.3331 55.8823 76.2943 55.9416C76.0627 56.2962 75.7287 56.5911 75.3259 56.7964C74.9231 57.0017 74.4658 57.1103 74 57.1112Z" fill="#28324D"/>
<path fill-rule="evenodd" clip-rule="evenodd" d="M86.8332 66.8387C86.8332 65.8693 86.1163 64.7697 85.2287 64.3814L77.4998 61C76.5152 61.7292 75.31 62.1667 73.9998 62.1667C72.6897 62.1667 71.4845 61.7292 70.5103 61L62.7728 64.3814C61.8857 64.7691 61.1665 65.8706 61.1665 66.8387V68.5816C61.1665 68.9047 61.4289 69.1667 61.7508 69.1667H86.2489C86.5716 69.1667 86.8332 68.9112 86.8332 68.5816V66.8387Z" fill="#FF516B"/>
<path fill-rule="evenodd" clip-rule="evenodd" d="M67.5835 48.1662C67.5835 46.2336 69.0624 44.1387 70.8817 43.4889L75.2016 41.9461C75.5046 41.8379 75.8663 41.9824 76.0091 42.268L76.9168 44.0835C78.8498 44.0835 80.4168 45.6544 80.4168 47.5835V51.0835C80.4168 49.4727 79.111 48.1668 77.5002 48.1668H70.5002C68.8893 48.1668 67.5835 49.4727 67.5835 51.0835V48.1662Z" fill="#311300"/>
<path fill-rule="evenodd" clip-rule="evenodd" d="M74.0003 62.1667C72.6901 62.1667 71.485 61.7292 70.5108 61L70.5076 61.0014L69.0845 61.6233L70.1987 64.3463C70.3481 64.7113 70.8091 64.826 71.112 64.5735L74.0003 62.1667L76.8886 64.5736C77.1915 64.826 77.6525 64.7114 77.8019 64.3464L78.9176 61.6201L77.5003 61C76.5156 61.7292 75.3105 62.1667 74.0003 62.1667Z" fill="white"/>
<rect x="78.6665" y="51.667" width="1.75" height="0.583333" fill="#28324D"/>
<rect x="67.5835" y="51.667" width="1.75" height="0.583333" fill="#28324D"/>
<path d="M71.0835 54C70.7374 54 70.399 53.8974 70.1112 53.7051C69.8235 53.5128 69.5992 53.2395 69.4667 52.9197C69.3343 52.5999 69.2996 52.2481 69.3671 51.9086C69.4346 51.5691 69.6013 51.2573 69.8461 51.0126C70.0908 50.7678 70.4026 50.6012 70.7421 50.5336C71.0816 50.4661 71.4334 50.5008 71.7532 50.6332C72.073 50.7657 72.3463 50.99 72.5386 51.2778C72.7309 51.5655 72.8335 51.9039 72.8335 52.25C72.8335 52.7141 72.6491 53.1592 72.3209 53.4874C71.9927 53.8156 71.5476 54 71.0835 54Z" fill="#D9E2FE"/>
<path d="M71.0833 52.8332C70.968 52.8332 70.8552 52.799 70.7593 52.7349C70.6633 52.6708 70.5886 52.5797 70.5444 52.4731C70.5003 52.3665 70.4887 52.2492 70.5112 52.136C70.5337 52.0229 70.5893 51.9189 70.6709 51.8374C70.7524 51.7558 70.8564 51.7002 70.9695 51.6777C71.0827 51.6552 71.2 51.6668 71.3066 51.7109C71.4132 51.7551 71.5043 51.8298 71.5684 51.9258C71.6325 52.0217 71.6667 52.1345 71.6667 52.2498C71.6667 52.4045 71.6052 52.5529 71.4958 52.6623C71.3864 52.7717 71.238 52.8332 71.0833 52.8332Z" fill="#2F6FF0"/>
<path d="M76.9165 54C76.5704 54 76.232 53.8974 75.9443 53.7051C75.6565 53.5128 75.4322 53.2395 75.2997 52.9197C75.1673 52.5999 75.1326 52.2481 75.2001 51.9086C75.2677 51.5691 75.4343 51.2573 75.6791 51.0126C75.9238 50.7678 76.2356 50.6012 76.5751 50.5336C76.9146 50.4661 77.2664 50.5008 77.5862 50.6332C77.906 50.7657 78.1793 50.99 78.3716 51.2778C78.5639 51.5655 78.6665 51.9039 78.6665 52.25C78.6665 52.7141 78.4821 53.1592 78.1539 53.4874C77.8258 53.8156 77.3806 54 76.9165 54Z" fill="#D9E2FE"/>
<path d="M76.92 49.9165C76.5282 49.9168 76.1428 50.0158 75.7994 50.2044C75.456 50.393 75.1657 50.6652 74.9553 50.9957C74.8483 50.8424 74.7059 50.7173 74.5401 50.6309C74.3744 50.5444 74.1902 50.4993 74.0033 50.4993C73.8164 50.4993 73.6322 50.5444 73.4665 50.6309C73.3007 50.7173 73.1583 50.8424 73.0513 50.9957C72.7486 50.5238 72.2859 50.1768 71.748 50.0186C71.2102 49.8603 70.6333 49.9013 70.1232 50.134C69.6132 50.3668 69.2042 50.7757 68.9713 51.2857C68.7384 51.7956 68.6972 52.3725 68.8553 52.9104C69.0134 53.4483 69.3602 53.9111 69.832 54.2139C70.3039 54.5168 70.8691 54.6393 71.424 54.559C71.9788 54.4787 72.4861 54.201 72.8528 53.7768C73.2194 53.3527 73.4208 52.8105 73.4199 52.2499V51.6665C73.4199 51.5118 73.4814 51.3635 73.5908 51.2541C73.7002 51.1447 73.8486 51.0832 74.0033 51.0832C74.158 51.0832 74.3064 51.1447 74.4158 51.2541C74.5252 51.3635 74.5866 51.5118 74.5866 51.6665V52.2499C74.5866 52.7114 74.7235 53.1625 74.9799 53.5463C75.2363 53.93 75.6007 54.2291 76.0271 54.4057C76.4535 54.5823 76.9226 54.6285 77.3753 54.5385C77.8279 54.4484 78.2437 54.2262 78.57 53.8999C78.8963 53.5735 79.1186 53.1578 79.2086 52.7051C79.2986 52.2525 79.2524 51.7833 79.0758 51.3569C78.8992 50.9306 78.6001 50.5661 78.2164 50.3098C77.8327 50.0534 77.3815 49.9165 76.92 49.9165ZM71.0865 53.9999C70.7404 53.9999 70.4021 53.8973 70.1143 53.705C69.8265 53.5127 69.6022 53.2394 69.4697 52.9196C69.3373 52.5998 69.3026 52.248 69.3701 51.9085C69.4377 51.569 69.6043 51.2572 69.8491 51.0124C70.0938 50.7677 70.4057 50.601 70.7451 50.5335C71.0846 50.466 71.4365 50.5006 71.7563 50.6331C72.076 50.7655 72.3494 50.9898 72.5417 51.2776C72.734 51.5654 72.8366 51.9038 72.8366 52.2499C72.8366 52.714 72.6522 53.1592 72.324 53.4874C71.9958 53.8156 71.5507 53.9999 71.0865 53.9999ZM76.92 53.9999C76.5739 53.9999 76.2356 53.8973 75.9478 53.705C75.66 53.5127 75.4357 53.2394 75.3032 52.9196C75.1707 52.5998 75.1361 52.248 75.2036 51.9085C75.2711 51.569 75.4378 51.2572 75.6826 51.0124C75.9273 50.7677 76.2391 50.601 76.5786 50.5335C76.9181 50.466 77.27 50.5006 77.5897 50.6331C77.9095 50.7655 78.1828 50.9898 78.3751 51.2776C78.5674 51.5654 78.6701 51.9038 78.6701 52.2499C78.6701 52.714 78.4857 53.1592 78.1575 53.4874C77.8293 53.8156 77.3842 53.9999 76.92 53.9999Z" fill="#28324D"/>
<path d="M76.9168 52.8332C76.8015 52.8332 76.6887 52.799 76.5927 52.7349C76.4968 52.6708 76.4221 52.5797 76.3779 52.4731C76.3337 52.3665 76.3222 52.2492 76.3447 52.136C76.3672 52.0229 76.4228 51.9189 76.5044 51.8374C76.5859 51.7558 76.6899 51.7002 76.803 51.6777C76.9162 51.6552 77.0335 51.6668 77.1401 51.7109C77.2467 51.7551 77.3378 51.8298 77.4019 51.9258C77.466 52.0217 77.5002 52.1345 77.5002 52.2498C77.5002 52.4045 77.4387 52.5529 77.3293 52.6623C77.2199 52.7717 77.0715 52.8332 76.9168 52.8332Z" fill="#2F6FF0"/>
</g>
<rect x="60.2917" y="40.2917" width="27.4167" height="27.4167" rx="13.7083" stroke="#8F98B3" stroke-width="0.583333"/>
<rect x="98" y="41" width="267" height="26" rx="4" fill="#28324D"/>
<path d="M108.184 59H107.008V50.324H110.284C112.144 50.324 113.248 51.308 113.248 52.928C113.248 54.128 112.648 54.992 111.568 55.34L113.332 59H112.024L110.404 55.568H108.184V59ZM108.184 51.38V54.524H110.296C111.388 54.524 112.012 53.936 112.012 52.94C112.012 51.932 111.364 51.38 110.284 51.38H108.184ZM116.778 59.144C115.05 59.144 113.862 57.896 113.862 56.072C113.862 54.236 115.026 52.964 116.73 52.964C118.398 52.964 119.49 54.116 119.49 55.856V56.276L114.954 56.288C115.038 57.524 115.686 58.208 116.802 58.208C117.678 58.208 118.254 57.848 118.446 57.176H119.502C119.214 58.436 118.23 59.144 116.778 59.144ZM116.73 53.912C115.746 53.912 115.122 54.5 114.978 55.532H118.362C118.362 54.56 117.726 53.912 116.73 53.912ZM120.366 56.072C120.366 54.236 121.53 52.964 123.246 52.964C124.722 52.964 125.754 53.804 125.958 55.112H124.83C124.638 54.368 124.038 53.972 123.282 53.972C122.214 53.972 121.482 54.788 121.482 56.06C121.482 57.32 122.166 58.136 123.234 58.136C124.038 58.136 124.638 57.716 124.842 57.02H125.97C125.742 58.292 124.65 59.144 123.234 59.144C121.506 59.144 120.366 57.92 120.366 56.072ZM126.776 56.06C126.776 54.248 128.072 52.976 129.836 52.976C131.588 52.976 132.884 54.248 132.884 56.06C132.884 57.872 131.588 59.144 129.836 59.144C128.072 59.144 126.776 57.872 126.776 56.06ZM127.916 56.06C127.916 57.284 128.696 58.136 129.836 58.136C130.964 58.136 131.756 57.284 131.756 56.06C131.756 54.836 130.964 53.984 129.836 53.984C128.696 53.984 127.916 54.836 127.916 56.06ZM135.26 59H134.132V53.132H135.14L135.248 53.9C135.548 53.348 136.172 52.964 137 52.964C137.912 52.964 138.56 53.42 138.86 54.152C139.136 53.42 139.844 52.964 140.756 52.964C142.1 52.964 142.916 53.804 142.916 55.16V59H141.812V55.436C141.812 54.512 141.296 53.984 140.504 53.984C139.652 53.984 139.088 54.584 139.088 55.52V59H137.972V55.424C137.972 54.5 137.468 53.996 136.676 53.996C135.824 53.996 135.26 54.584 135.26 55.52V59ZM145.608 59H144.48V53.132H145.488L145.596 53.9C145.896 53.348 146.52 52.964 147.348 52.964C148.26 52.964 148.908 53.42 149.208 54.152C149.484 53.42 150.192 52.964 151.104 52.964C152.448 52.964 153.264 53.804 153.264 55.16V59H152.16V55.436C152.16 54.512 151.644 53.984 150.852 53.984C150 53.984 149.436 54.584 149.436 55.52V59H148.32V55.424C148.32 54.5 147.816 53.996 147.024 53.996C146.172 53.996 145.608 54.584 145.608 55.52V59ZM157.36 59.144C155.632 59.144 154.444 57.896 154.444 56.072C154.444 54.236 155.608 52.964 157.312 52.964C158.98 52.964 160.072 54.116 160.072 55.856V56.276L155.536 56.288C155.62 57.524 156.268 58.208 157.384 58.208C158.26 58.208 158.836 57.848 159.028 57.176H160.084C159.796 58.436 158.812 59.144 157.36 59.144ZM157.312 53.912C156.328 53.912 155.704 54.5 155.56 55.532H158.944C158.944 54.56 158.308 53.912 157.312 53.912ZM162.46 59H161.332V53.132H162.352L162.472 54.032C162.844 53.36 163.588 52.964 164.416 52.964C165.964 52.964 166.672 53.912 166.672 55.412V59H165.544V55.664C165.544 54.476 164.992 53.996 164.128 53.996C163.072 53.996 162.46 54.752 162.46 55.892V59ZM170.586 59.144C168.882 59.144 167.85 57.872 167.85 56.084C167.85 54.284 168.894 52.964 170.634 52.964C171.534 52.964 172.29 53.36 172.686 54.08V50.168H173.802V59H172.794L172.698 57.932C172.314 58.736 171.522 59.144 170.586 59.144ZM170.814 58.124C171.966 58.124 172.674 57.272 172.674 56.048C172.674 54.848 171.966 53.984 170.814 53.984C169.662 53.984 168.99 54.848 168.99 56.048C168.99 57.26 169.662 58.124 170.814 58.124ZM179.839 59H178.711V53.132H179.719L179.827 53.9C180.127 53.348 180.751 52.964 181.579 52.964C182.491 52.964 183.139 53.42 183.439 54.152C183.715 53.42 184.423 52.964 185.335 52.964C186.679 52.964 187.495 53.804 187.495 55.16V59H186.391V55.436C186.391 54.512 185.875 53.984 185.083 53.984C184.231 53.984 183.667 54.584 183.667 55.52V59H182.551V55.424C182.551 54.5 182.047 53.996 181.255 53.996C180.403 53.996 179.839 54.584 179.839 55.52V59ZM191.59 59.144C189.862 59.144 188.674 57.896 188.674 56.072C188.674 54.236 189.838 52.964 191.542 52.964C193.21 52.964 194.302 54.116 194.302 55.856V56.276L189.766 56.288C189.85 57.524 190.498 58.208 191.614 58.208C192.49 58.208 193.066 57.848 193.258 57.176H194.314C194.026 58.436 193.042 59.144 191.59 59.144ZM191.542 53.912C190.558 53.912 189.934 54.5 189.79 55.532H193.174C193.174 54.56 192.538 53.912 191.542 53.912ZM199.971 59H198.843V53.132H199.863L199.983 54.032C200.355 53.36 201.099 52.964 201.927 52.964C203.475 52.964 204.183 53.912 204.183 55.412V59H203.055V55.664C203.055 54.476 202.503 53.996 201.639 53.996C200.583 53.996 199.971 54.752 199.971 55.892V59ZM205.362 56.06C205.362 54.248 206.658 52.976 208.422 52.976C210.174 52.976 211.47 54.248 211.47 56.06C211.47 57.872 210.174 59.144 208.422 59.144C206.658 59.144 205.362 57.872 205.362 56.06ZM206.502 56.06C206.502 57.284 207.282 58.136 208.422 58.136C209.55 58.136 210.342 57.284 210.342 56.06C210.342 54.836 209.55 53.984 208.422 53.984C207.282 53.984 206.502 54.836 206.502 56.06ZM213.27 51.74C212.862 51.74 212.526 51.404 212.526 50.996C212.526 50.576 212.862 50.252 213.27 50.252C213.678 50.252 214.014 50.576 214.014 50.996C214.014 51.404 213.678 51.74 213.27 51.74ZM212.718 59V53.132H213.846V59H212.718ZM215.004 57.296H216.084C216.084 57.896 216.54 58.256 217.284 58.256C218.076 58.256 218.532 57.932 218.532 57.392C218.532 56.996 218.34 56.756 217.728 56.6L216.696 56.36C215.652 56.108 215.16 55.592 215.16 54.728C215.16 53.648 216.072 52.964 217.368 52.964C218.652 52.964 219.492 53.684 219.516 54.8H218.436C218.412 54.212 218.016 53.84 217.332 53.84C216.624 53.84 216.228 54.152 216.228 54.692C216.228 55.088 216.516 55.352 217.092 55.496L218.124 55.748C219.12 55.988 219.612 56.444 219.612 57.32C219.612 58.436 218.652 59.144 217.26 59.144C215.88 59.144 215.004 58.412 215.004 57.296ZM223.395 59.144C221.667 59.144 220.479 57.896 220.479 56.072C220.479 54.236 221.643 52.964 223.347 52.964C225.015 52.964 226.107 54.116 226.107 55.856V56.276L221.571 56.288C221.655 57.524 222.303 58.208 223.419 58.208C224.295 58.208 224.871 57.848 225.063 57.176H226.119C225.831 58.436 224.847 59.144 223.395 59.144ZM223.347 53.912C222.363 53.912 221.739 54.5 221.595 55.532H224.979C224.979 54.56 224.343 53.912 223.347 53.912ZM227.307 56.324V55.316H230.967V56.324H227.307ZM232.151 56.072C232.151 54.236 233.315 52.964 235.031 52.964C236.507 52.964 237.539 53.804 237.743 55.112H236.615C236.423 54.368 235.823 53.972 235.067 53.972C233.999 53.972 233.267 54.788 233.267 56.06C233.267 57.32 233.951 58.136 235.019 58.136C235.823 58.136 236.423 57.716 236.627 57.02H237.755C237.527 58.292 236.435 59.144 235.019 59.144C233.291 59.144 232.151 57.92 232.151 56.072ZM240.661 59.144C239.401 59.144 238.657 58.436 238.657 57.368C238.657 56.288 239.461 55.616 240.841 55.508L242.689 55.364V55.196C242.689 54.212 242.101 53.864 241.309 53.864C240.361 53.864 239.821 54.284 239.821 54.992H238.837C238.837 53.768 239.845 52.964 241.357 52.964C242.809 52.964 243.793 53.732 243.793 55.316V59H242.833L242.713 58.052C242.413 58.724 241.609 59.144 240.661 59.144ZM240.985 58.268C242.053 58.268 242.701 57.572 242.701 56.468V56.156L241.201 56.276C240.205 56.372 239.797 56.756 239.797 57.332C239.797 57.956 240.253 58.268 240.985 58.268ZM246.483 59H245.355V53.132H246.375L246.495 54.032C246.867 53.36 247.611 52.964 248.439 52.964C249.987 52.964 250.695 53.912 250.695 55.412V59H249.567V55.664C249.567 54.476 249.015 53.996 248.151 53.996C247.095 53.996 246.483 54.752 246.483 55.892V59ZM251.873 56.072C251.873 54.236 253.037 52.964 254.753 52.964C256.229 52.964 257.261 53.804 257.465 55.112H256.337C256.145 54.368 255.545 53.972 254.789 53.972C253.721 53.972 252.989 54.788 252.989 56.06C252.989 57.32 253.673 58.136 254.741 58.136C255.545 58.136 256.145 57.716 256.349 57.02H257.477C257.249 58.292 256.157 59.144 254.741 59.144C253.013 59.144 251.873 57.92 251.873 56.072ZM261.2 59.144C259.472 59.144 258.284 57.896 258.284 56.072C258.284 54.236 259.448 52.964 261.152 52.964C262.82 52.964 263.912 54.116 263.912 55.856V56.276L259.376 56.288C259.46 57.524 260.108 58.208 261.224 58.208C262.1 58.208 262.676 57.848 262.868 57.176H263.924C263.636 58.436 262.652 59.144 261.2 59.144ZM261.152 53.912C260.168 53.912 259.544 54.5 259.4 55.532H262.784C262.784 54.56 262.148 53.912 261.152 53.912ZM266.323 59H265.195V50.168H266.323V59ZM269.136 59H268.008V50.168H269.136V59ZM271.348 51.74C270.94 51.74 270.604 51.404 270.604 50.996C270.604 50.576 270.94 50.252 271.348 50.252C271.756 50.252 272.092 50.576 272.092 50.996C272.092 51.404 271.756 51.74 271.348 51.74ZM270.796 59V53.132H271.924V59H270.796ZM274.69 59H273.562V53.132H274.582L274.702 54.032C275.074 53.36 275.818 52.964 276.646 52.964C278.194 52.964 278.902 53.912 278.902 55.412V59H277.774V55.664C277.774 54.476 277.222 53.996 276.358 53.996C275.302 53.996 274.69 54.752 274.69 55.892V59ZM280.092 55.916C280.092 54.26 281.16 52.964 282.864 52.964C283.812 52.964 284.544 53.396 284.916 54.128L285 53.132H286.008V58.76C286.008 60.608 284.868 61.784 283.068 61.784C281.472 61.784 280.38 60.884 280.164 59.396H281.292C281.436 60.26 282.084 60.764 283.068 60.764C284.172 60.764 284.892 60.044 284.892 58.928V57.752C284.508 58.436 283.74 58.844 282.816 58.844C281.148 58.844 280.092 57.56 280.092 55.916ZM281.22 55.892C281.22 56.996 281.904 57.86 283.008 57.86C284.148 57.86 284.844 57.044 284.844 55.892C284.844 54.764 284.172 53.948 283.02 53.948C281.892 53.948 281.22 54.812 281.22 55.892ZM292.046 58.988H290.918V50.168H292.046V54.032C292.418 53.396 293.126 52.964 294.038 52.964C295.538 52.964 296.258 53.912 296.258 55.412V59H295.13V55.664C295.13 54.476 294.566 53.996 293.726 53.996C292.634 53.996 292.046 54.788 292.046 55.796V58.988ZM300.352 59.144C298.624 59.144 297.436 57.896 297.436 56.072C297.436 54.236 298.6 52.964 300.304 52.964C301.972 52.964 303.064 54.116 303.064 55.856V56.276L298.528 56.288C298.612 57.524 299.26 58.208 300.376 58.208C301.252 58.208 301.828 57.848 302.02 57.176H303.076C302.788 58.436 301.804 59.144 300.352 59.144ZM300.304 53.912C299.32 53.912 298.696 54.5 298.552 55.532H301.936C301.936 54.56 301.3 53.912 300.304 53.912ZM305.981 59.144C304.721 59.144 303.977 58.436 303.977 57.368C303.977 56.288 304.781 55.616 306.161 55.508L308.009 55.364V55.196C308.009 54.212 307.421 53.864 306.629 53.864C305.681 53.864 305.141 54.284 305.141 54.992H304.157C304.157 53.768 305.165 52.964 306.677 52.964C308.129 52.964 309.113 53.732 309.113 55.316V59H308.153L308.033 58.052C307.733 58.724 306.929 59.144 305.981 59.144ZM306.305 58.268C307.373 58.268 308.021 57.572 308.021 56.468V56.156L306.521 56.276C305.525 56.372 305.117 56.756 305.117 57.332C305.117 57.956 305.573 58.268 306.305 58.268ZM313.027 59.144C311.323 59.144 310.291 57.872 310.291 56.084C310.291 54.284 311.335 52.964 313.075 52.964C313.975 52.964 314.731 53.36 315.127 54.08V50.168H316.243V59H315.235L315.139 57.932C314.755 58.736 313.963 59.144 313.027 59.144ZM313.255 58.124C314.407 58.124 315.115 57.272 315.115 56.048C315.115 54.848 314.407 53.984 313.255 53.984C312.103 53.984 311.431 54.848 311.431 56.048C311.431 57.26 312.103 58.124 313.255 58.124ZM317.871 61.628V53.132H318.891L318.975 54.188C319.371 53.384 320.163 52.964 321.099 52.964C322.779 52.964 323.823 54.224 323.823 56.024C323.823 57.812 322.839 59.156 321.099 59.156C320.163 59.156 319.383 58.76 318.999 58.04V61.628H317.871ZM319.011 56.072C319.011 57.272 319.707 58.136 320.859 58.136C322.011 58.136 322.695 57.272 322.695 56.072C322.695 54.86 322.011 53.996 320.859 53.996C319.707 53.996 319.011 54.848 319.011 56.072ZM326.194 58.988H325.066V50.168H326.194V54.032C326.566 53.396 327.274 52.964 328.186 52.964C329.686 52.964 330.406 53.912 330.406 55.412V59H329.278V55.664C329.278 54.476 328.714 53.996 327.874 53.996C326.782 53.996 326.194 54.788 326.194 55.796V58.988ZM331.584 56.06C331.584 54.248 332.88 52.976 334.644 52.976C336.396 52.976 337.692 54.248 337.692 56.06C337.692 57.872 336.396 59.144 334.644 59.144C332.88 59.144 331.584 57.872 331.584 56.06ZM332.724 56.06C332.724 57.284 333.504 58.136 334.644 58.136C335.772 58.136 336.564 57.284 336.564 56.06C336.564 54.836 335.772 53.984 334.644 53.984C333.504 53.984 332.724 54.836 332.724 56.06ZM340.069 59H338.941V53.132H339.961L340.081 54.032C340.453 53.36 341.197 52.964 342.025 52.964C343.573 52.964 344.281 53.912 344.281 55.412V59H343.153V55.664C343.153 54.476 342.601 53.996 341.737 53.996C340.681 53.996 340.069 54.752 340.069 55.892V59ZM348.375 59.144C346.647 59.144 345.459 57.896 345.459 56.072C345.459 54.236 346.623 52.964 348.327 52.964C349.995 52.964 351.087 54.116 351.087 55.856V56.276L346.551 56.288C346.635 57.524 347.283 58.208 348.399 58.208C349.275 58.208 349.851 57.848 350.043 57.176H351.099C350.811 58.436 349.827 59.144 348.375 59.144ZM348.327 53.912C347.343 53.912 346.719 54.5 346.575 55.532H349.959C349.959 54.56 349.323 53.912 348.327 53.912ZM351.867 57.296H352.947C352.947 57.896 353.403 58.256 354.147 58.256C354.939 58.256 355.395 57.932 355.395 57.392C355.395 56.996 355.203 56.756 354.591 56.6L353.559 56.36C352.515 56.108 352.023 55.592 352.023 54.728C352.023 53.648 352.935 52.964 354.231 52.964C355.515 52.964 356.355 53.684 356.379 54.8H355.299C355.275 54.212 354.879 53.84 354.195 53.84C353.487 53.84 353.091 54.152 353.091 54.692C353.091 55.088 353.379 55.352 353.955 55.496L354.987 55.748C355.983 55.988 356.475 56.444 356.475 57.32C356.475 58.436 355.515 59.144 354.123 59.144C352.743 59.144 351.867 58.412 351.867 57.296Z" fill="#E1E5F0"/>
<rect x="150" y="76" width="280" height="44" rx="4" fill="#28324D"/>
<path d="M160.184 94H159.008V85.324H160.184V89.056H164.48V85.324H165.656V94H164.48V90.148H160.184V94ZM170.008 94.144C168.28 94.144 167.092 92.896 167.092 91.072C167.092 89.236 168.256 87.964 169.96 87.964C171.628 87.964 172.72 89.116 172.72 90.856V91.276L168.184 91.288C168.268 92.524 168.916 93.208 170.032 93.208C170.908 93.208 171.484 92.848 171.676 92.176H172.732C172.444 93.436 171.46 94.144 170.008 94.144ZM169.96 88.912C168.976 88.912 168.352 89.5 168.208 90.532H171.592C171.592 89.56 170.956 88.912 169.96 88.912ZM177.34 88.084V89.116H176.836C175.768 89.116 175.108 89.764 175.108 90.892V94H173.98V88.144H175.036L175.108 89.032C175.348 88.42 175.936 88.012 176.74 88.012C176.944 88.012 177.112 88.036 177.34 88.084ZM180.719 94.144C178.991 94.144 177.803 92.896 177.803 91.072C177.803 89.236 178.967 87.964 180.671 87.964C182.339 87.964 183.431 89.116 183.431 90.856V91.276L178.895 91.288C178.979 92.524 179.627 93.208 180.743 93.208C181.619 93.208 182.195 92.848 182.387 92.176H183.443C183.155 93.436 182.171 94.144 180.719 94.144ZM180.671 88.912C179.687 88.912 179.063 89.5 178.919 90.532H182.303C182.303 89.56 181.667 88.912 180.671 88.912ZM189.688 94.144C188.428 94.144 187.684 93.436 187.684 92.368C187.684 91.288 188.488 90.616 189.868 90.508L191.716 90.364V90.196C191.716 89.212 191.128 88.864 190.336 88.864C189.388 88.864 188.848 89.284 188.848 89.992H187.864C187.864 88.768 188.872 87.964 190.384 87.964C191.836 87.964 192.82 88.732 192.82 90.316V94H191.86L191.74 93.052C191.44 93.724 190.636 94.144 189.688 94.144ZM190.012 93.268C191.08 93.268 191.728 92.572 191.728 91.468V91.156L190.228 91.276C189.232 91.372 188.824 91.756 188.824 92.332C188.824 92.956 189.28 93.268 190.012 93.268ZM197.742 88.084V89.116H197.238C196.17 89.116 195.51 89.764 195.51 90.892V94H194.382V88.144H195.438L195.51 89.032C195.75 88.42 196.338 88.012 197.142 88.012C197.346 88.012 197.514 88.036 197.742 88.084ZM201.121 94.144C199.393 94.144 198.205 92.896 198.205 91.072C198.205 89.236 199.369 87.964 201.073 87.964C202.741 87.964 203.833 89.116 203.833 90.856V91.276L199.297 91.288C199.381 92.524 200.029 93.208 201.145 93.208C202.021 93.208 202.597 92.848 202.789 92.176H203.845C203.557 93.436 202.573 94.144 201.121 94.144ZM201.073 88.912C200.089 88.912 199.465 89.5 199.321 90.532H202.705C202.705 89.56 202.069 88.912 201.073 88.912ZM210.031 94H208.903V89.08H207.751V88.132H208.903V86.296H210.031V88.132H211.183V89.08H210.031V94ZM213.323 93.988H212.195V85.168H213.323V89.032C213.695 88.396 214.403 87.964 215.315 87.964C216.815 87.964 217.535 88.912 217.535 90.412V94H216.407V90.664C216.407 89.476 215.843 88.996 215.003 88.996C213.911 88.996 213.323 89.788 213.323 90.796V93.988ZM221.629 94.144C219.901 94.144 218.713 92.896 218.713 91.072C218.713 89.236 219.877 87.964 221.581 87.964C223.249 87.964 224.341 89.116 224.341 90.856V91.276L219.805 91.288C219.889 92.524 220.537 93.208 221.653 93.208C222.529 93.208 223.105 92.848 223.297 92.176H224.353C224.065 93.436 223.081 94.144 221.629 94.144ZM221.581 88.912C220.597 88.912 219.973 89.5 219.829 90.532H223.213C223.213 89.56 222.577 88.912 221.581 88.912ZM230.538 94H229.41V89.08H228.258V88.132H229.41V86.296H230.538V88.132H231.69V89.08H230.538V94ZM232.26 91.06C232.26 89.248 233.556 87.976 235.32 87.976C237.072 87.976 238.368 89.248 238.368 91.06C238.368 92.872 237.072 94.144 235.32 94.144C233.556 94.144 232.26 92.872 232.26 91.06ZM233.4 91.06C233.4 92.284 234.18 93.136 235.32 93.136C236.448 93.136 237.24 92.284 237.24 91.06C237.24 89.836 236.448 88.984 235.32 88.984C234.18 88.984 233.4 89.836 233.4 91.06ZM239.617 96.628V88.132H240.637L240.721 89.188C241.117 88.384 241.909 87.964 242.845 87.964C244.525 87.964 245.569 89.224 245.569 91.024C245.569 92.812 244.585 94.156 242.845 94.156C241.909 94.156 241.129 93.76 240.745 93.04V96.628H239.617ZM240.757 91.072C240.757 92.272 241.453 93.136 242.605 93.136C243.757 93.136 244.441 92.272 244.441 91.072C244.441 89.86 243.757 88.996 242.605 88.996C241.453 88.996 240.757 89.848 240.757 91.072ZM251.221 94H250.093V88.132H251.113L251.233 89.032C251.605 88.36 252.349 87.964 253.177 87.964C254.725 87.964 255.433 88.912 255.433 90.412V94H254.305V90.664C254.305 89.476 253.753 88.996 252.889 88.996C251.833 88.996 251.221 89.752 251.221 90.892V94ZM256.612 91.06C256.612 89.248 257.908 87.976 259.672 87.976C261.424 87.976 262.72 89.248 262.72 91.06C262.72 92.872 261.424 94.144 259.672 94.144C257.908 94.144 256.612 92.872 256.612 91.06ZM257.752 91.06C257.752 92.284 258.532 93.136 259.672 93.136C260.8 93.136 261.592 92.284 261.592 91.06C261.592 89.836 260.8 88.984 259.672 88.984C258.532 88.984 257.752 89.836 257.752 91.06ZM264.52 86.74C264.112 86.74 263.776 86.404 263.776 85.996C263.776 85.576 264.112 85.252 264.52 85.252C264.928 85.252 265.264 85.576 265.264 85.996C265.264 86.404 264.928 86.74 264.52 86.74ZM263.968 94V88.132H265.096V94H263.968ZM266.254 92.296H267.334C267.334 92.896 267.79 93.256 268.534 93.256C269.326 93.256 269.782 92.932 269.782 92.392C269.782 91.996 269.59 91.756 268.978 91.6L267.946 91.36C266.902 91.108 266.41 90.592 266.41 89.728C266.41 88.648 267.322 87.964 268.618 87.964C269.902 87.964 270.742 88.684 270.766 89.8H269.686C269.662 89.212 269.266 88.84 268.582 88.84C267.874 88.84 267.478 89.152 267.478 89.692C267.478 90.088 267.766 90.352 268.342 90.496L269.374 90.748C270.37 90.988 270.862 91.444 270.862 92.32C270.862 93.436 269.902 94.144 268.51 94.144C267.13 94.144 266.254 93.412 266.254 92.296ZM274.645 94.144C272.917 94.144 271.729 92.896 271.729 91.072C271.729 89.236 272.893 87.964 274.597 87.964C276.265 87.964 277.357 89.116 277.357 90.856V91.276L272.821 91.288C272.905 92.524 273.553 93.208 274.669 93.208C275.545 93.208 276.121 92.848 276.313 92.176H277.369C277.081 93.436 276.097 94.144 274.645 94.144ZM274.597 88.912C273.613 88.912 272.989 89.5 272.845 90.532H276.229C276.229 89.56 275.593 88.912 274.597 88.912ZM278.557 91.324V90.316H282.217V91.324H278.557ZM283.401 91.072C283.401 89.236 284.565 87.964 286.281 87.964C287.757 87.964 288.789 88.804 288.993 90.112H287.865C287.673 89.368 287.073 88.972 286.317 88.972C285.249 88.972 284.517 89.788 284.517 91.06C284.517 92.32 285.201 93.136 286.269 93.136C287.073 93.136 287.673 92.716 287.877 92.02H289.005C288.777 93.292 287.685 94.144 286.269 94.144C284.541 94.144 283.401 92.92 283.401 91.072ZM291.911 94.144C290.651 94.144 289.907 93.436 289.907 92.368C289.907 91.288 290.711 90.616 292.091 90.508L293.939 90.364V90.196C293.939 89.212 293.351 88.864 292.559 88.864C291.611 88.864 291.071 89.284 291.071 89.992H290.087C290.087 88.768 291.095 87.964 292.607 87.964C294.059 87.964 295.043 88.732 295.043 90.316V94H294.083L293.963 93.052C293.663 93.724 292.859 94.144 291.911 94.144ZM292.235 93.268C293.303 93.268 293.951 92.572 293.951 91.468V91.156L292.451 91.276C291.455 91.372 291.047 91.756 291.047 92.332C291.047 92.956 291.503 93.268 292.235 93.268ZM297.733 94H296.605V88.132H297.625L297.745 89.032C298.117 88.36 298.861 87.964 299.689 87.964C301.237 87.964 301.945 88.912 301.945 90.412V94H300.817V90.664C300.817 89.476 300.265 88.996 299.401 88.996C298.345 88.996 297.733 89.752 297.733 90.892V94ZM303.123 91.072C303.123 89.236 304.287 87.964 306.003 87.964C307.479 87.964 308.511 88.804 308.715 90.112H307.587C307.395 89.368 306.795 88.972 306.039 88.972C304.971 88.972 304.239 89.788 304.239 91.06C304.239 92.32 304.923 93.136 305.991 93.136C306.795 93.136 307.395 92.716 307.599 92.02H308.727C308.499 93.292 307.407 94.144 305.991 94.144C304.263 94.144 303.123 92.92 303.123 91.072ZM312.45 94.144C310.722 94.144 309.534 92.896 309.534 91.072C309.534 89.236 310.698 87.964 312.402 87.964C314.07 87.964 315.162 89.116 315.162 90.856V91.276L310.626 91.288C310.71 92.524 311.358 93.208 312.474 93.208C313.35 93.208 313.926 92.848 314.118 92.176H315.174C314.886 93.436 313.902 94.144 312.45 94.144ZM312.402 88.912C311.418 88.912 310.794 89.5 310.65 90.532H314.034C314.034 89.56 313.398 88.912 312.402 88.912ZM317.573 94H316.445V85.168H317.573V94ZM320.386 94H319.258V85.168H320.386V94ZM322.598 86.74C322.19 86.74 321.854 86.404 321.854 85.996C321.854 85.576 322.19 85.252 322.598 85.252C323.006 85.252 323.342 85.576 323.342 85.996C323.342 86.404 323.006 86.74 322.598 86.74ZM322.046 94V88.132H323.174V94H322.046ZM325.94 94H324.812V88.132H325.832L325.952 89.032C326.324 88.36 327.068 87.964 327.896 87.964C329.444 87.964 330.152 88.912 330.152 90.412V94H329.024V90.664C329.024 89.476 328.472 88.996 327.608 88.996C326.552 88.996 325.94 89.752 325.94 90.892V94ZM331.342 90.916C331.342 89.26 332.41 87.964 334.114 87.964C335.062 87.964 335.794 88.396 336.166 89.128L336.25 88.132H337.258V93.76C337.258 95.608 336.118 96.784 334.318 96.784C332.722 96.784 331.63 95.884 331.414 94.396H332.542C332.686 95.26 333.334 95.764 334.318 95.764C335.422 95.764 336.142 95.044 336.142 93.928V92.752C335.758 93.436 334.99 93.844 334.066 93.844C332.398 93.844 331.342 92.56 331.342 90.916ZM332.47 90.892C332.47 91.996 333.154 92.86 334.258 92.86C335.398 92.86 336.094 92.044 336.094 90.892C336.094 89.764 335.422 88.948 334.27 88.948C333.142 88.948 332.47 89.812 332.47 90.892ZM343.296 93.988H342.168V85.168H343.296V89.032C343.668 88.396 344.376 87.964 345.288 87.964C346.788 87.964 347.508 88.912 347.508 90.412V94H346.38V90.664C346.38 89.476 345.816 88.996 344.976 88.996C343.884 88.996 343.296 89.788 343.296 90.796V93.988ZM351.602 94.144C349.874 94.144 348.686 92.896 348.686 91.072C348.686 89.236 349.85 87.964 351.554 87.964C353.222 87.964 354.314 89.116 354.314 90.856V91.276L349.778 91.288C349.862 92.524 350.51 93.208 351.626 93.208C352.502 93.208 353.078 92.848 353.27 92.176H354.326C354.038 93.436 353.054 94.144 351.602 94.144ZM351.554 88.912C350.57 88.912 349.946 89.5 349.802 90.532H353.186C353.186 89.56 352.55 88.912 351.554 88.912ZM357.231 94.144C355.971 94.144 355.227 93.436 355.227 92.368C355.227 91.288 356.031 90.616 357.411 90.508L359.259 90.364V90.196C359.259 89.212 358.671 88.864 357.879 88.864C356.931 88.864 356.391 89.284 356.391 89.992H355.407C355.407 88.768 356.415 87.964 357.927 87.964C359.379 87.964 360.363 88.732 360.363 90.316V94H359.403L359.283 93.052C358.983 93.724 358.179 94.144 357.231 94.144ZM357.555 93.268C358.623 93.268 359.271 92.572 359.271 91.468V91.156L357.771 91.276C356.775 91.372 356.367 91.756 356.367 92.332C356.367 92.956 356.823 93.268 357.555 93.268ZM364.277 94.144C362.573 94.144 361.541 92.872 361.541 91.084C361.541 89.284 362.585 87.964 364.325 87.964C365.225 87.964 365.981 88.36 366.377 89.08V85.168H367.493V94H366.485L366.389 92.932C366.005 93.736 365.213 94.144 364.277 94.144ZM364.505 93.124C365.657 93.124 366.365 92.272 366.365 91.048C366.365 89.848 365.657 88.984 364.505 88.984C363.353 88.984 362.681 89.848 362.681 91.048C362.681 92.26 363.353 93.124 364.505 93.124ZM369.121 96.628V88.132H370.141L370.225 89.188C370.621 88.384 371.413 87.964 372.349 87.964C374.029 87.964 375.073 89.224 375.073 91.024C375.073 92.812 374.089 94.156 372.349 94.156C371.413 94.156 370.633 93.76 370.249 93.04V96.628H369.121ZM370.261 91.072C370.261 92.272 370.957 93.136 372.109 93.136C373.261 93.136 373.945 92.272 373.945 91.072C373.945 89.86 373.261 88.996 372.109 88.996C370.957 88.996 370.261 89.848 370.261 91.072ZM377.444 93.988H376.316V85.168H377.444V89.032C377.816 88.396 378.524 87.964 379.436 87.964C380.936 87.964 381.656 88.912 381.656 90.412V94H380.528V90.664C380.528 89.476 379.964 88.996 379.124 88.996C378.032 88.996 377.444 89.788 377.444 90.796V93.988ZM382.834 91.06C382.834 89.248 384.13 87.976 385.894 87.976C387.646 87.976 388.942 89.248 388.942 91.06C388.942 92.872 387.646 94.144 385.894 94.144C384.13 94.144 382.834 92.872 382.834 91.06ZM383.974 91.06C383.974 92.284 384.754 93.136 385.894 93.136C387.022 93.136 387.814 92.284 387.814 91.06C387.814 89.836 387.022 88.984 385.894 88.984C384.754 88.984 383.974 89.836 383.974 91.06ZM391.319 94H390.191V88.132H391.211L391.331 89.032C391.703 88.36 392.447 87.964 393.275 87.964C394.823 87.964 395.531 88.912 395.531 90.412V94H394.403V90.664C394.403 89.476 393.851 88.996 392.987 88.996C391.931 88.996 391.319 89.752 391.319 90.892V94ZM399.625 94.144C397.897 94.144 396.709 92.896 396.709 91.072C396.709 89.236 397.873 87.964 399.577 87.964C401.245 87.964 402.337 89.116 402.337 90.856V91.276L397.801 91.288C397.885 92.524 398.533 93.208 399.649 93.208C400.525 93.208 401.101 92.848 401.293 92.176H402.349C402.061 93.436 401.077 94.144 399.625 94.144ZM399.577 88.912C398.593 88.912 397.969 89.5 397.825 90.532H401.209C401.209 89.56 400.573 88.912 399.577 88.912ZM403.117 92.296H404.197C404.197 92.896 404.653 93.256 405.397 93.256C406.189 93.256 406.645 92.932 406.645 92.392C406.645 91.996 406.453 91.756 405.841 91.6L404.809 91.36C403.765 91.108 403.273 90.592 403.273 89.728C403.273 88.648 404.185 87.964 405.481 87.964C406.765 87.964 407.605 88.684 407.629 89.8H406.549C406.525 89.212 406.129 88.84 405.445 88.84C404.737 88.84 404.341 89.152 404.341 89.692C404.341 90.088 404.629 90.352 405.205 90.496L406.237 90.748C407.233 90.988 407.725 91.444 407.725 92.32C407.725 93.436 406.765 94.144 405.373 94.144C403.993 94.144 403.117 93.412 403.117 92.296ZM160.532 112.144C159.272 112.144 158.528 111.436 158.528 110.368C158.528 109.288 159.332 108.616 160.712 108.508L162.56 108.364V108.196C162.56 107.212 161.972 106.864 161.18 106.864C160.232 106.864 159.692 107.284 159.692 107.992H158.708C158.708 106.768 159.716 105.964 161.228 105.964C162.68 105.964 163.664 106.732 163.664 108.316V112H162.704L162.584 111.052C162.284 111.724 161.48 112.144 160.532 112.144ZM160.856 111.268C161.924 111.268 162.572 110.572 162.572 109.468V109.156L161.072 109.276C160.076 109.372 159.668 109.756 159.668 110.332C159.668 110.956 160.124 111.268 160.856 111.268ZM166.636 112L164.272 106.132H165.472L166.756 109.408C166.96 109.96 167.128 110.452 167.224 110.812C167.32 110.428 167.512 109.924 167.716 109.408L169.024 106.132H170.2L167.752 112H166.636ZM172.544 112.144C171.284 112.144 170.54 111.436 170.54 110.368C170.54 109.288 171.344 108.616 172.724 108.508L174.572 108.364V108.196C174.572 107.212 173.984 106.864 173.192 106.864C172.244 106.864 171.704 107.284 171.704 107.992H170.72C170.72 106.768 171.728 105.964 173.24 105.964C174.692 105.964 175.676 106.732 175.676 108.316V112H174.716L174.596 111.052C174.296 111.724 173.492 112.144 172.544 112.144ZM172.868 111.268C173.936 111.268 174.584 110.572 174.584 109.468V109.156L173.084 109.276C172.088 109.372 171.68 109.756 171.68 110.332C171.68 110.956 172.136 111.268 172.868 111.268ZM177.79 104.74C177.382 104.74 177.046 104.404 177.046 103.996C177.046 103.576 177.382 103.252 177.79 103.252C178.198 103.252 178.534 103.576 178.534 103.996C178.534 104.404 178.198 104.74 177.79 104.74ZM177.238 112V106.132H178.366V112H177.238ZM181.156 112H180.028V103.168H181.156V112ZM184.532 112.144C183.272 112.144 182.528 111.436 182.528 110.368C182.528 109.288 183.332 108.616 184.712 108.508L186.56 108.364V108.196C186.56 107.212 185.972 106.864 185.18 106.864C184.232 106.864 183.692 107.284 183.692 107.992H182.708C182.708 106.768 183.716 105.964 185.228 105.964C186.68 105.964 187.664 106.732 187.664 108.316V112H186.704L186.584 111.052C186.284 111.724 185.48 112.144 184.532 112.144ZM184.856 111.268C185.924 111.268 186.572 110.572 186.572 109.468V109.156L185.072 109.276C184.076 109.372 183.668 109.756 183.668 110.332C183.668 110.956 184.124 111.268 184.856 111.268ZM190.246 112H189.226V103.168H190.354V107.14C190.738 106.372 191.53 105.964 192.49 105.964C194.17 105.964 195.178 107.284 195.178 109.096C195.178 110.872 194.122 112.144 192.418 112.144C191.494 112.144 190.714 111.736 190.33 110.932L190.246 112ZM190.366 109.048C190.366 110.272 191.062 111.124 192.214 111.124C193.366 111.124 194.05 110.26 194.05 109.048C194.05 107.848 193.366 106.984 192.214 106.984C191.062 106.984 190.366 107.848 190.366 109.048ZM197.573 112H196.445V103.168H197.573V112ZM201.766 112.144C200.038 112.144 198.85 110.896 198.85 109.072C198.85 107.236 200.014 105.964 201.718 105.964C203.386 105.964 204.478 107.116 204.478 108.856V109.276L199.942 109.288C200.026 110.524 200.674 111.208 201.79 111.208C202.666 111.208 203.242 110.848 203.434 110.176H204.49C204.202 111.436 203.218 112.144 201.766 112.144ZM201.718 106.912C200.734 106.912 200.11 107.5 199.966 108.532H203.35C203.35 107.56 202.714 106.912 201.718 106.912ZM206.698 107.644C206.23 107.644 205.834 107.26 205.834 106.816C205.834 106.348 206.23 105.964 206.698 105.964C207.154 105.964 207.55 106.348 207.55 106.816C207.55 107.26 207.154 107.644 206.698 107.644ZM206.698 112.144C206.23 112.144 205.834 111.76 205.834 111.304C205.834 110.836 206.23 110.452 206.698 110.452C207.154 110.452 207.55 110.836 207.55 111.304C207.55 111.76 207.154 112.144 206.698 112.144Z" fill="#E1E5F0"/>
<rect x="440.292" y="76.2917" width="27.4167" height="27.4167" rx="13.7083" fill="#038585"/>
<rect x="440.292" y="76.2917" width="27.4167" height="27.4167" rx="13.7083" stroke="#8F98B3" stroke-width="0.583333"/>
<path d="M451.917 81.75C451.917 81.0608 451.356 80.5 450.667 80.5C449.977 80.5 449.417 81.0608 449.417 81.75C449.417 82.2925 449.766 82.7508 450.25 82.9233V85.9167H451.083V82.9233C451.567 82.7508 451.917 82.2925 451.917 81.75Z" fill="#C0F0F0"/>
<path d="M445.25 90.2598C444.515 90.5823 444 91.3143 444 92.1664C444 93.0185 444.515 93.7506 445.25 94.0731V90.2598Z" fill="#C0F0F0"/>
<path d="M461.917 90.2598C462.651 90.5823 463.167 91.3143 463.167 92.1664C463.167 93.0185 462.651 93.7506 461.917 94.0731V90.2598Z" fill="#C0F0F0"/>
<path d="M459 86.75C455.379 86.75 451.886 86.75 448.167 86.75C447.016 86.75 446.083 87.6829 446.083 88.8333V95.5C446.083 96.6504 447.016 97.5833 448.167 97.5833H459C460.151 97.5833 461.083 96.6504 461.083 95.5V88.8333C461.083 87.6829 460.151 86.75 459 86.75ZM450.25 91.3333C449.791 91.3333 449.417 90.9596 449.417 90.5C449.417 90.0404 449.791 89.6667 450.25 89.6667C450.71 89.6667 451.083 90.0404 451.083 90.5C451.083 90.9596 450.71 91.3333 450.25 91.3333ZM455.25 95.0833H451.917C451.456 95.0833 451.083 94.7104 451.083 94.25C451.083 93.7896 451.456 93.4167 451.917 93.4167H455.25C455.711 93.4167 456.083 93.7896 456.083 94.25C456.083 94.7104 455.711 95.0833 455.25 95.0833ZM456.917 91.3333C456.457 91.3333 456.083 90.9596 456.083 90.5C456.083 90.0404 456.457 89.6667 456.917 89.6667C457.376 89.6667 457.75 90.0404 457.75 90.5C457.75 90.9596 457.376 91.3333 456.917 91.3333Z" fill="#C0F0F0"/>
<rect x="150" y="128" width="80" height="80" rx="8" fill="#28324D"/>
<path d="M204 190H193V188H204C205.326 187.998 206.596 187.471 207.534 186.534C208.471 185.596 208.998 184.326 209 183V176H211V183C210.998 184.856 210.26 186.635 208.947 187.947C207.635 189.26 205.856 189.998 204 190Z" fill="#89A9FF"/>
<path d="M189.19 145.015C177.826 145.445 169 155.143 169 166.516V178C169 179.326 169.527 180.598 170.464 181.536C171.402 182.473 172.674 183 174 183H177C177.796 183 178.559 182.684 179.121 182.122C179.684 181.559 180 180.796 180 180V170C180 169.205 179.684 168.442 179.121 167.879C178.559 167.316 177.796 167 177 167H172V166.442C172 156.694 179.565 148.381 189.306 148.013C191.726 147.923 194.139 148.32 196.402 149.183C198.664 150.046 200.73 151.356 202.474 153.035C204.219 154.714 205.608 156.727 206.557 158.955C207.507 161.183 207.997 163.579 208 166V167H202C201.204 167 200.441 167.316 199.879 167.879C199.316 168.442 199 169.205 199 170V180C199 180.796 199.316 181.559 199.879 182.122C200.441 182.684 201.204 183 202 183H206C207.326 183 208.598 182.473 209.536 181.536C210.473 180.598 211 179.326 211 178V166C210.997 163.175 210.424 160.38 209.317 157.781C208.209 155.182 206.589 152.833 204.553 150.874C202.517 148.915 200.108 147.387 197.468 146.38C194.829 145.374 192.013 144.909 189.19 145.015Z" fill="#89A9FF"/>
<path d="M178 167C178.796 167 179.559 167.316 180.121 167.879C180.684 168.441 181 169.204 181 170V180C181 180.796 180.684 181.559 180.121 182.121C179.559 182.684 178.796 183 178 183H174C172.674 183 171.402 182.473 170.464 181.536C169.527 180.598 169 179.326 169 178V167H178Z" fill="#89A9FF"/>
<path d="M178 167H176V183H178C178.796 183 179.559 182.684 180.121 182.121C180.684 181.559 181 180.796 181 180V170C181 169.204 180.684 168.441 180.121 167.879C179.559 167.316 178.796 167 178 167Z" fill="#0040A1"/>
<path d="M202 167C201.204 167 200.441 167.316 199.879 167.879C199.316 168.441 199 169.204 199 170V180C199 180.796 199.316 181.559 199.879 182.121C200.441 182.684 201.204 183 202 183H206C207.326 183 208.598 182.473 209.536 181.536C210.473 180.598 211 179.326 211 178V167H202Z" fill="#89A9FF"/>
<path d="M202 167H204V183H202C201.204 183 200.441 182.684 199.879 182.121C199.316 181.559 199 180.796 199 180V170C199 169.204 199.316 168.441 199.879 167.879C200.441 167.316 201.204 167 202 167Z" fill="#0040A1"/>
<path d="M199.897 185.988H190C189.448 185.988 189 186.436 189 186.988V190.013C189 190.566 189.448 191.013 190 191.013H199.897C200.449 191.013 200.897 190.566 200.897 190.013V186.988C200.897 186.436 200.449 185.988 199.897 185.988Z" fill="#0040A1"/>
<path d="M150.44 215.7C150.44 214.5 151.4 213.71 152.84 213.71C154.13 213.71 154.98 214.43 155.09 215.63H154.36C154.28 214.82 153.73 214.36 152.83 214.36C151.82 214.36 151.16 214.88 151.16 215.69C151.16 216.32 151.53 216.72 152.28 216.91L153.51 217.21C154.63 217.48 155.21 218.12 155.21 219.09C155.21 220.33 154.25 221.12 152.77 221.12C151.38 221.12 150.44 220.39 150.35 219.22H151.09C151.13 219.97 151.79 220.46 152.77 220.46C153.82 220.46 154.49 219.95 154.49 219.13C154.49 218.49 154.13 218.07 153.36 217.89L152.15 217.59C151.03 217.32 150.44 216.68 150.44 215.7ZM156.015 218.58C156.015 217.1 157.055 216.03 158.475 216.03C159.895 216.03 160.935 217.1 160.935 218.58C160.935 220.05 159.895 221.12 158.475 221.12C157.055 221.12 156.015 220.05 156.015 218.58ZM156.715 218.57C156.715 219.71 157.435 220.5 158.475 220.5C159.505 220.5 160.235 219.71 160.235 218.57C160.235 217.45 159.505 216.65 158.475 216.65C157.435 216.65 156.715 217.45 156.715 218.57ZM165.321 216.16H166.011V221H165.411L165.321 220.18C165.051 220.74 164.381 221.12 163.621 221.12C162.481 221.12 161.861 220.34 161.861 219.16V216.15H162.561V218.94C162.561 220.09 163.071 220.5 163.841 220.5C164.771 220.5 165.321 219.88 165.321 218.73V216.16ZM168.139 221H167.449V216.16H168.049L168.149 217C168.469 216.38 169.109 216.03 169.809 216.03C171.139 216.03 171.689 216.82 171.689 218.04V221H170.999V218.19C170.999 217.06 170.489 216.66 169.689 216.66C168.699 216.66 168.139 217.38 168.139 218.47V221ZM174.964 221.12C173.554 221.12 172.724 220.04 172.724 218.59C172.724 217.13 173.554 216.03 174.994 216.03C175.794 216.03 176.434 216.38 176.774 217.08V213.71H177.464V221H176.864L176.794 220.01C176.454 220.76 175.774 221.12 174.964 221.12ZM175.084 220.49C176.144 220.49 176.764 219.69 176.764 218.57C176.764 217.46 176.144 216.65 175.084 216.65C174.034 216.65 173.424 217.46 173.424 218.57C173.424 219.69 174.034 220.49 175.084 220.49ZM181.397 215.7C181.397 214.5 182.357 213.71 183.797 213.71C185.087 213.71 185.937 214.43 186.047 215.63H185.317C185.237 214.82 184.687 214.36 183.787 214.36C182.777 214.36 182.117 214.88 182.117 215.69C182.117 216.32 182.487 216.72 183.237 216.91L184.467 217.21C185.587 217.48 186.167 218.12 186.167 219.09C186.167 220.33 185.207 221.12 183.727 221.12C182.337 221.12 181.397 220.39 181.307 219.22H182.047C182.087 219.97 182.747 220.46 183.727 220.46C184.777 220.46 185.447 219.95 185.447 219.13C185.447 218.49 185.087 218.07 184.317 217.89L183.107 217.59C181.987 217.32 181.397 216.68 181.397 215.7ZM188.002 220.99H187.312V213.71H188.002V217C188.312 216.42 188.902 216.03 189.712 216.03C190.982 216.03 191.552 216.82 191.552 218.04V221H190.862V218.19C190.862 217.06 190.332 216.66 189.582 216.66C188.542 216.66 188.002 217.43 188.002 218.36V220.99ZM196.327 216.16H197.017V221H196.417L196.327 220.18C196.057 220.74 195.387 221.12 194.627 221.12C193.487 221.12 192.867 220.34 192.867 219.16V216.15H193.567V218.94C193.567 220.09 194.077 220.5 194.847 220.5C195.777 220.5 196.327 219.88 196.327 218.73V216.16ZM197.947 219.64H198.607C198.607 220.2 199.027 220.55 199.707 220.55C200.457 220.55 200.897 220.23 200.897 219.71C200.897 219.31 200.697 219.08 200.127 218.94L199.297 218.73C198.457 218.52 198.047 218.08 198.047 217.42C198.047 216.57 198.757 216.03 199.797 216.03C200.817 216.03 201.477 216.59 201.507 217.49H200.837C200.817 216.93 200.427 216.6 199.777 216.6C199.097 216.6 198.717 216.89 198.717 217.41C198.717 217.78 198.977 218.04 199.507 218.17L200.337 218.38C201.177 218.59 201.557 218.98 201.557 219.68C201.557 220.55 200.817 221.12 199.717 221.12C198.627 221.12 197.947 220.54 197.947 219.64ZM203.383 220.99H202.693V213.71H203.383V217C203.693 216.42 204.283 216.03 205.093 216.03C206.363 216.03 206.933 216.82 206.933 218.04V221H206.243V218.19C206.243 217.06 205.713 216.66 204.963 216.66C203.923 216.66 203.383 217.43 203.383 218.36V220.99Z" fill="#576280"/>
<rect x="238" y="128" width="80" height="80" rx="8" fill="#28324D"/>
<path d="M277.151 146.016C265.246 146.466 256 156.627 256 168.54V186C256 187.061 256.421 188.078 257.172 188.828C257.922 189.579 258.939 190 260 190H265C265.796 190 266.559 189.684 267.121 189.121C267.684 188.559 268 187.796 268 187V175C268 174.204 267.684 173.441 267.121 172.879C266.559 172.316 265.796 172 265 172H260V168.442C260 158.7 267.564 150.382 277.3 150.013C279.72 149.922 282.134 150.319 284.397 151.181C286.66 152.044 288.727 153.354 290.472 155.033C292.218 156.712 293.607 158.725 294.557 160.953C295.506 163.181 295.997 165.578 296 168V172H291C290.204 172 289.441 172.316 288.879 172.879C288.316 173.441 288 174.204 288 175V187C288 187.796 288.316 188.559 288.879 189.121C289.441 189.684 290.204 190 291 190H296C297.061 190 298.078 189.579 298.828 188.828C299.579 188.078 300 187.061 300 186V168C299.997 165.04 299.397 162.112 298.236 159.389C297.076 156.666 295.379 154.206 293.246 152.154C291.113 150.102 288.589 148.501 285.823 147.446C283.058 146.391 280.109 145.905 277.151 146.016Z" fill="#C0F0F0"/>
<path d="M265 172H262V190H265C265.796 190 266.559 189.684 267.121 189.121C267.684 188.559 268 187.796 268 187V175C268 174.204 267.684 173.441 267.121 172.879C266.559 172.316 265.796 172 265 172Z" fill="#038585"/>
<path d="M291 172H294V190H291C290.204 190 289.441 189.684 288.879 189.121C288.316 188.559 288 187.796 288 187V175C288 174.204 288.316 173.441 288.879 172.879C289.441 172.316 290.204 172 291 172Z" fill="#038585"/>
<path d="M262 172H260V190H262V172Z" fill="#004F4F"/>
<path d="M296 172H294V190H296V172Z" fill="#004F4F"/>
<path d="M239.59 221H238.87V213.84H239.59V217.03H243.46V213.84H244.17V221H243.46V217.7H239.59V221ZM249.171 216.16H249.861V221H249.261L249.171 220.18C248.901 220.74 248.231 221.12 247.471 221.12C246.331 221.12 245.711 220.34 245.711 219.16V216.15H246.411V218.94C246.411 220.09 246.921 220.5 247.691 220.5C248.621 220.5 249.171 219.88 249.171 218.73V216.16ZM250.79 219.64H251.45C251.45 220.2 251.87 220.55 252.55 220.55C253.3 220.55 253.74 220.23 253.74 219.71C253.74 219.31 253.54 219.08 252.97 218.94L252.14 218.73C251.3 218.52 250.89 218.08 250.89 217.42C250.89 216.57 251.6 216.03 252.64 216.03C253.66 216.03 254.32 216.59 254.35 217.49H253.68C253.66 216.93 253.27 216.6 252.62 216.6C251.94 216.6 251.56 216.89 251.56 217.41C251.56 217.78 251.82 218.04 252.35 218.17L253.18 218.38C254.02 218.59 254.4 218.98 254.4 219.68C254.4 220.55 253.66 221.12 252.56 221.12C251.47 221.12 250.79 220.54 250.79 219.64ZM256.226 220.99H255.536V213.71H256.226V217C256.536 216.42 257.126 216.03 257.936 216.03C259.206 216.03 259.776 216.82 259.776 218.04V221H259.086V218.19C259.086 217.06 258.556 216.66 257.806 216.66C256.766 216.66 256.226 217.43 256.226 218.36V220.99ZM264.075 221V213.84H266.695C268.075 213.84 268.925 214.54 268.925 215.69C268.925 216.53 268.555 217.1 267.815 217.39C268.645 217.66 269.065 218.24 269.065 219.12C269.065 220.27 268.205 221 266.845 221H264.075ZM266.685 214.48H264.795V217.1H266.775C267.675 217.1 268.185 216.6 268.185 215.75C268.185 214.95 267.645 214.48 266.685 214.48ZM266.845 217.73H264.795V220.35H266.845C267.785 220.35 268.335 219.86 268.335 219.03C268.335 218.22 267.775 217.73 266.845 217.73ZM272.244 221.12C270.824 221.12 269.874 220.1 269.874 218.58C269.874 217.07 270.814 216.03 272.194 216.03C273.504 216.03 274.394 216.96 274.394 218.33V218.67H270.544C270.594 219.85 271.214 220.53 272.254 220.53C273.044 220.53 273.554 220.19 273.734 219.55H274.394C274.134 220.57 273.384 221.12 272.244 221.12ZM272.194 216.62C271.284 216.62 270.684 217.22 270.564 218.17H273.704C273.704 217.24 273.104 216.62 272.194 216.62ZM276.839 221.12C275.809 221.12 275.199 220.54 275.199 219.69C275.199 218.8 275.879 218.24 277.009 218.15L278.609 218.02V217.86C278.609 216.91 278.039 216.61 277.329 216.61C276.489 216.61 275.989 216.99 275.989 217.64H275.359C275.359 216.66 276.159 216.03 277.349 216.03C278.469 216.03 279.289 216.59 279.289 217.87V221H278.709L278.619 220.15C278.319 220.76 277.659 221.12 276.839 221.12ZM276.999 220.56C278.019 220.56 278.609 219.85 278.609 218.8V218.54L277.179 218.65C276.269 218.73 275.899 219.13 275.899 219.67C275.899 220.26 276.339 220.56 276.999 220.56ZM281.695 221H281.015V216.74H280.045V216.16H281.015V214.63H281.695V216.16H282.665V216.74H281.695V221ZM283.154 219.64H283.814C283.814 220.2 284.234 220.55 284.914 220.55C285.664 220.55 286.104 220.23 286.104 219.71C286.104 219.31 285.904 219.08 285.334 218.94L284.504 218.73C283.664 218.52 283.254 218.08 283.254 217.42C283.254 216.57 283.964 216.03 285.004 216.03C286.024 216.03 286.684 216.59 286.714 217.49H286.044C286.024 216.93 285.634 216.6 284.984 216.6C284.304 216.6 283.924 216.89 283.924 217.41C283.924 217.78 284.184 218.04 284.714 218.17L285.544 218.38C286.384 218.59 286.764 218.98 286.764 219.68C286.764 220.55 286.024 221.12 284.924 221.12C283.834 221.12 283.154 220.54 283.154 219.64Z" fill="#576280"/>
<rect x="326" y="128" width="80" height="80" rx="8" fill="#28324D"/>
<path d="M345 175C345 175.552 345.447 176 346 176C346.553 176 347 175.552 347 175V164H345V175Z" fill="#8547FF"/>
<path d="M387 175C387 175.552 386.553 176 386 176C385.447 176 385 175.552 385 175V164H387V175Z" fill="#8547FF"/>
<path d="M386 168C384.895 168 384 167.104 384 166V162C384 154.28 377.72 148 370 148H362C354.28 148 348 154.28 348 162V166C348 167.104 347.104 168 346 168C344.895 168 344 167.104 344 166V162C344 152.075 352.075 144 362 144H370C379.925 144 388 152.075 388 162V166C388 167.104 387.104 168 386 168Z" fill="#EADDFF"/>
<path d="M356 169.459C355.053 169.162 354.045 169 353 169C347.477 169 343 173.477 343 179C343 184.523 347.477 189 353 189C354.045 189 355.053 188.838 356 188.541V169.459Z" fill="#EADDFF"/>
<path d="M356 191C354.895 191 354 190.105 354 189V169C354 167.895 354.895 167 356 167C357.105 167 358 167.895 358 169V189C358 190.105 357.105 191 356 191Z" fill="#8547FF"/>
<path d="M376 169.459C376.947 169.162 377.955 169 379 169C384.523 169 389 173.477 389 179C389 184.523 384.523 189 379 189C377.955 189 376.947 188.838 376 188.541V169.459Z" fill="#EADDFF"/>
<path d="M376 191C377.105 191 378 190.105 378 189V169C378 167.895 377.105 167 376 167C374.895 167 374 167.895 374 169V189C374 190.105 374.895 191 376 191Z" fill="#8547FF"/>
<path d="M332.52 221.41L331.76 220.55C331.22 220.92 330.57 221.12 329.84 221.12C327.83 221.12 326.43 219.59 326.43 217.42C326.43 215.25 327.84 213.71 329.84 213.71C331.85 213.71 333.25 215.24 333.25 217.42C333.25 218.53 332.88 219.47 332.26 220.12L333.01 220.96L332.52 221.41ZM332.51 217.42C332.51 215.63 331.42 214.41 329.84 214.41C328.26 214.41 327.18 215.63 327.18 217.42C327.18 219.21 328.26 220.43 329.84 220.43C330.39 220.43 330.88 220.28 331.28 220.02L330.35 218.97L330.83 218.52L331.78 219.58C332.24 219.05 332.51 218.3 332.51 217.42ZM337.806 216.16H338.496V221H337.896L337.806 220.18C337.536 220.74 336.866 221.12 336.106 221.12C334.966 221.12 334.346 220.34 334.346 219.16V216.15H335.046V218.94C335.046 220.09 335.556 220.5 336.326 220.5C337.256 220.5 337.806 219.88 337.806 218.73V216.16ZM340.273 214.83C339.993 214.83 339.763 214.6 339.763 214.32C339.763 214.04 339.993 213.8 340.273 213.8C340.553 213.8 340.793 214.04 340.793 214.32C340.793 214.6 340.553 214.83 340.273 214.83ZM339.933 221V216.16H340.623V221H339.933ZM344.092 221.12C342.672 221.12 341.722 220.1 341.722 218.58C341.722 217.07 342.662 216.03 344.042 216.03C345.352 216.03 346.242 216.96 346.242 218.33V218.67H342.392C342.442 219.85 343.062 220.53 344.102 220.53C344.892 220.53 345.402 220.19 345.582 219.55H346.242C345.982 220.57 345.232 221.12 344.092 221.12ZM344.042 216.62C343.132 216.62 342.532 217.22 342.412 218.17H345.552C345.552 217.24 344.952 216.62 344.042 216.62ZM348.406 221H347.726V216.74H346.756V216.16H347.726V214.63H348.406V216.16H349.376V216.74H348.406V221ZM354.608 221L352.478 213.84H353.228L354.678 218.76C354.778 219.11 354.868 219.47 354.958 219.94C355.078 219.42 355.178 219.11 355.288 218.76L356.848 213.84H357.598L359.158 218.76C359.268 219.12 359.368 219.48 359.478 219.94C359.588 219.39 359.678 219.04 359.758 218.77L361.238 213.84H361.968L359.818 221H359.138L357.218 214.92L355.298 221H354.608ZM363.579 221.12C362.549 221.12 361.939 220.54 361.939 219.69C361.939 218.8 362.619 218.24 363.749 218.15L365.349 218.02V217.86C365.349 216.91 364.779 216.61 364.069 216.61C363.229 216.61 362.729 216.99 362.729 217.64H362.099C362.099 216.66 362.899 216.03 364.089 216.03C365.209 216.03 366.029 216.59 366.029 217.87V221H365.449L365.359 220.15C365.059 220.76 364.399 221.12 363.579 221.12ZM363.739 220.56C364.759 220.56 365.349 219.85 365.349 218.8V218.54L363.919 218.65C363.009 218.73 362.639 219.13 362.639 219.67C362.639 220.26 363.079 220.56 363.739 220.56ZM368.568 221L366.588 216.16H367.328L368.578 219.28C368.708 219.63 368.838 219.96 368.928 220.28C369.018 219.95 369.148 219.63 369.288 219.28L370.558 216.16H371.268L369.258 221H368.568ZM373.896 221.12C372.476 221.12 371.526 220.1 371.526 218.58C371.526 217.07 372.466 216.03 373.846 216.03C375.156 216.03 376.046 216.96 376.046 218.33V218.67H372.196C372.246 219.85 372.866 220.53 373.906 220.53C374.696 220.53 375.206 220.19 375.386 219.55H376.046C375.786 220.57 375.036 221.12 373.896 221.12ZM373.846 216.62C372.936 216.62 372.336 217.22 372.216 218.17H375.356C375.356 217.24 374.756 216.62 373.846 216.62Z" fill="#576280"/>
<mask id="path-54-inside-1_1799_14428" fill="white">
<path d="M44 0H484V24H44V0Z"/>
</mask>
<path d="M484 23H44V25H484V23Z" fill="#28324D" mask="url(#path-54-inside-1_1799_14428)"/>
<circle cx="59" cy="12" r="3" fill="#DC244C"/>
<circle cx="69" cy="12" r="3" fill="#3D4866"/>
<circle cx="79" cy="12" r="3" fill="#038585"/>
<circle cx="471" cy="9" r="1" fill="#3D4866"/>
<circle cx="471" cy="12" r="1" fill="#3D4866"/>
<circle cx="471" cy="15" r="1" fill="#3D4866"/>
<path d="M49.2 317.218C43.2379 317.218 34.0421 316.07 30 312.209V328.696C30 333.392 39.9032 336 49.2 336C58.4968 336 68.4 333.392 68.4 328.696V312.209C64.3579 316.07 55.1621 317.218 49.2 317.218Z" fill="url(#paint1_linear_1799_14428)"/>
<path d="M49.2 300.522C43.2379 300.522 34.0421 299.374 30 295.513V312C30 316.696 39.9032 319.305 49.2 319.305C58.4968 319.305 68.4 316.696 68.4 312V295.513C64.3579 299.374 55.1621 300.522 49.2 300.522Z" fill="url(#paint2_linear_1799_14428)"/>
<path d="M49.2 288C39.9032 288 30 290.609 30 295.304C30 300 39.9032 302.609 49.2 302.609C58.4968 302.609 68.4 300 68.4 295.304C68.4 290.609 58.4968 288 49.2 288Z" fill="url(#paint3_linear_1799_14428)"/>
<path d="M84.5117 312L108.512 312" stroke="#717C99" stroke-linecap="round" stroke-linejoin="round"/>
<path d="M103.964 307L108.964 312L103.964 317" stroke="#717C99" stroke-linecap="round" stroke-linejoin="round"/>
<path d="M126.951 298L125.225 299V301L126.951 302L128.677 301V299L126.951 298Z" fill="#2F6FF0"/>
<path d="M138.403 298L136.677 299V301L138.403 302L140.129 301V299L138.403 298Z" fill="#038585"/>
<path d="M149.855 298L148.129 299V301L149.855 302L151.581 301V299L149.855 298Z" fill="#008A53"/>
<path d="M161.307 298L159.581 299V301L161.307 302L163.033 301V299L161.307 298Z" fill="#E0700D"/>
<path d="M172.759 298L171.033 299V301L172.759 302L174.485 301V299L172.759 298Z" fill="#8547FF"/>
<path d="M184.211 298L182.485 299V301L184.211 302L185.937 301V299L184.211 298Z" fill="#DC244C"/>
<path d="M126.951 310L125.225 311V313L126.951 314L128.677 313V311L126.951 310Z" fill="#2F6FF0"/>
<path d="M138.403 310L136.677 311V313L138.403 314L140.129 313V311L138.403 310Z" fill="#038585"/>
<path d="M149.855 310L148.129 311V313L149.855 314L151.581 313V311L149.855 310Z" fill="#008A53"/>
<path d="M161.307 310L159.581 311V313L161.307 314L163.033 313V311L161.307 310Z" fill="#E0700D"/>
<path d="M172.759 310L171.033 311V313L172.759 314L174.485 313V311L172.759 310Z" fill="#8547FF"/>
<path d="M184.211 310L182.485 311V313L184.211 314L185.937 313V311L184.211 310Z" fill="#DC244C"/>
<path d="M126.951 322L125.225 323V325L126.951 326L128.677 325V323L126.951 322Z" fill="#2F6FF0"/>
<path d="M138.403 322L136.677 323V325L138.403 326L140.129 325V323L138.403 322Z" fill="#038585"/>
<path d="M149.855 322L148.129 323V325L149.855 326L151.581 325V323L149.855 322Z" fill="#008A53"/>
<path d="M161.307 322L159.581 323V325L161.307 326L163.033 325V323L161.307 322Z" fill="#E0700D"/>
<path d="M172.759 322L171.033 323V325L172.759 326L174.485 325V323L172.759 322Z" fill="#8547FF"/>
<path d="M184.211 322L182.485 323V325L184.211 326L185.937 325V323L184.211 322Z" fill="#DC244C"/>
<path d="M203.925 310L202.199 311V313L203.925 314L205.651 313V311L203.925 310Z" fill="#DC244C"/>
<path d="M215.377 310L213.651 311V313L215.377 314L217.103 313V311L215.377 310Z" fill="#8547FF"/>
<path d="M226.829 310L225.103 311V313L226.829 314L228.555 313V311L226.829 310Z" fill="#008A53"/>
<path d="M238.281 310L236.555 311V313L238.281 314L240.007 313V311L238.281 310Z" fill="#2F6FF0"/>
<path d="M249.733 310L248.007 311V313L249.733 314L251.459 313V311L249.733 310Z" fill="#E0700D"/>
<path d="M299.446 288L297.72 289V291L299.446 292L301.172 291V289L299.446 288Z" fill="#038585"/>
<path d="M284.446 324L282.72 325V327L284.446 328L286.172 327V325L284.446 324Z" fill="#DC244C"/>
<path d="M286.446 294L284.72 295V297L286.446 298L288.172 297V295L286.446 294Z" fill="#008A53"/>
<path d="M274.446 312L272.72 313V315L274.446 316L276.172 315V313L274.446 312Z" fill="#2F6FF0"/>
<path d="M314.159 312L312.433 313V315L314.159 316L315.885 315V313L314.159 312Z" fill="#E0700D"/>
<path d="M304.446 324L302.72 325V327L304.446 328L306.172 327V325L304.446 324Z" fill="#8547FF"/>
<path fill-rule="evenodd" clip-rule="evenodd" d="M323.15 296L295.435 312L295.437 344L323.15 327.999V296Z" stroke="#717C99" stroke-miterlimit="2.61313" stroke-linejoin="round" stroke-dasharray="4 4"/>
<path fill-rule="evenodd" clip-rule="evenodd" d="M267.72 296L295.435 312L295.433 344L267.72 327.999V296Z" stroke="#717C99" stroke-miterlimit="2.61313" stroke-linejoin="round" stroke-dasharray="4 4"/>
<path fill-rule="evenodd" clip-rule="evenodd" d="M323.146 296L295.436 312L267.72 296L295.433 280L323.146 296Z" stroke="#717C99" stroke-miterlimit="2.61313" stroke-linejoin="round" stroke-dasharray="4 4"/>
<path d="M341.138 310L339.412 311V313L341.138 314L342.864 313V311L341.138 310Z" fill="#8547FF"/>
<path d="M352.59 310L350.864 311V313L352.59 314L354.316 313V311L352.59 310Z" fill="#DC244C"/>
<path d="M364.042 310L362.316 311V313L364.042 314L365.768 313V311L364.042 310Z" fill="#E0700D"/>
<path d="M375.494 310L373.768 311V313L375.494 314L377.22 313V311L375.494 310Z" fill="#008A53"/>
<path d="M386.946 310L385.22 311V313L386.946 314L388.672 313V311L386.946 310Z" fill="#038585"/>
<path d="M404.934 312L428.934 312" stroke="#717C99" stroke-linecap="round" stroke-linejoin="round"/>
<path d="M424.739 307L429.739 312L424.739 317" stroke="#717C99" stroke-linecap="round" stroke-linejoin="round"/>
<g clip-path="url(#clip1_1799_14428)">
<rect x="446" y="280" width="64" height="64" rx="7.04" fill="url(#paint4_linear_1799_14428)"/>
<g opacity="0.4" filter="url(#filter1_f_1799_14428)">
<circle cx="510.319" cy="280.32" r="21.12" fill="#2F6FF0"/>
</g>
<path d="M490.161 309.458C490.478 308.515 490.588 307.516 490.483 306.528C490.378 305.54 490.06 304.586 489.551 303.729C488.796 302.433 487.644 301.407 486.26 300.799C484.876 300.191 483.333 300.032 481.851 300.345C481.01 299.422 479.937 298.733 478.74 298.348C477.544 297.964 476.265 297.896 475.034 298.153C473.802 298.41 472.661 298.981 471.724 299.811C470.788 300.64 470.089 301.698 469.698 302.879C468.711 303.078 467.779 303.483 466.964 304.067C466.148 304.65 465.468 305.399 464.97 306.262C464.207 307.556 463.881 309.055 464.039 310.543C464.197 312.031 464.83 313.432 465.848 314.541C465.53 315.484 465.419 316.482 465.523 317.47C465.627 318.458 465.944 319.413 466.453 320.271C467.208 321.567 468.361 322.593 469.746 323.201C471.131 323.809 472.676 323.968 474.158 323.654C474.826 324.397 475.648 324.99 476.567 325.395C477.487 325.799 478.483 326.005 479.49 326C481.008 326.001 482.488 325.527 483.715 324.645C484.942 323.763 485.853 322.519 486.317 321.093C487.303 320.893 488.235 320.488 489.051 319.905C489.866 319.321 490.546 318.573 491.045 317.71C491.799 316.418 492.119 314.924 491.96 313.442C491.802 311.96 491.172 310.566 490.161 309.458ZM479.49 324.167C478.247 324.169 477.042 323.739 476.088 322.953L476.256 322.859L481.907 319.641C482.048 319.56 482.165 319.444 482.246 319.305C482.328 319.165 482.371 319.007 482.372 318.846V310.987L484.761 312.35C484.773 312.356 484.783 312.365 484.791 312.375C484.799 312.386 484.804 312.398 484.806 312.411V318.924C484.803 320.314 484.242 321.646 483.246 322.628C482.249 323.611 480.899 324.164 479.49 324.167ZM468.064 319.354C467.44 318.292 467.217 317.047 467.432 315.838L467.6 315.938L473.257 319.156C473.397 319.237 473.556 319.279 473.718 319.279C473.881 319.279 474.04 319.237 474.18 319.156L481.091 315.226V317.947C481.09 317.961 481.086 317.975 481.079 317.987C481.072 318 481.063 318.01 481.051 318.019L475.327 321.275C474.105 321.969 472.654 322.157 471.293 321.797C469.931 321.437 468.77 320.558 468.064 319.354ZM466.576 307.211C467.204 306.143 468.195 305.327 469.373 304.91V311.533C469.371 311.693 469.413 311.851 469.493 311.99C469.574 312.129 469.691 312.243 469.832 312.323L476.709 316.236L474.32 317.599C474.307 317.606 474.293 317.609 474.278 317.609C474.263 317.609 474.249 317.606 474.236 317.599L468.523 314.348C467.304 313.651 466.414 312.506 466.049 311.163C465.684 309.82 465.874 308.389 466.576 307.184V307.211ZM486.205 311.71L479.306 307.758L481.689 306.4C481.702 306.393 481.717 306.39 481.731 306.39C481.746 306.39 481.76 306.393 481.773 306.4L487.486 309.656C488.36 310.154 489.072 310.886 489.539 311.767C490.007 312.648 490.211 313.643 490.127 314.634C490.043 315.626 489.675 316.573 489.066 317.366C488.456 318.158 487.631 318.764 486.686 319.111V312.488C486.681 312.328 486.634 312.172 486.55 312.036C486.465 311.9 486.347 311.787 486.205 311.71ZM488.583 308.183L488.415 308.084L482.769 304.838C482.628 304.757 482.468 304.714 482.305 304.714C482.141 304.714 481.981 304.757 481.84 304.838L474.936 308.768V306.047C474.934 306.033 474.936 306.019 474.942 306.006C474.948 305.994 474.957 305.983 474.969 305.975L480.682 302.724C481.558 302.227 482.559 301.985 483.568 302.028C484.578 302.071 485.554 302.397 486.383 302.967C487.212 303.538 487.859 304.329 488.248 305.249C488.638 306.168 488.754 307.178 488.583 308.161L488.583 308.183ZM473.632 313.007L471.242 311.649C471.23 311.642 471.22 311.632 471.212 311.621C471.205 311.609 471.2 311.596 471.197 311.583V305.087C471.199 304.09 471.488 303.114 472.03 302.274C472.573 301.433 473.347 300.762 474.262 300.34C475.177 299.917 476.195 299.76 477.197 299.887C478.199 300.014 479.144 300.42 479.921 301.057L479.753 301.151L474.102 304.369C473.961 304.45 473.844 304.566 473.763 304.706C473.681 304.845 473.638 305.003 473.637 305.164L473.632 313.007ZM474.93 310.247L478.007 308.497L481.091 310.247V313.746L478.018 315.496L474.935 313.746L474.93 310.247Z" fill="#14A27F"/>
</g>
<defs>
<filter id="filter0_f_1799_14428" x="12" y="40" width="488" height="288" filterUnits="userSpaceOnUse" color-interpolation-filters="sRGB">
<feFlood flood-opacity="0" result="BackgroundImageFix"/>
<feBlend mode="normal" in="SourceGraphic" in2="BackgroundImageFix" result="shape"/>
<feGaussianBlur stdDeviation="52" result="effect1_foregroundBlur_1799_14428"/>
</filter>
<filter id="filter1_f_1799_14428" x="446.959" y="216.96" width="126.72" height="126.72" filterUnits="userSpaceOnUse" color-interpolation-filters="sRGB">
<feFlood flood-opacity="0" result="BackgroundImageFix"/>
<feBlend mode="normal" in="SourceGraphic" in2="BackgroundImageFix" result="shape"/>
<feGaussianBlur stdDeviation="21.12" result="effect1_foregroundBlur_1799_14428"/>
</filter>
<linearGradient id="paint0_linear_1799_14428" x1="264" y1="0" x2="264" y2="240" gradientUnits="userSpaceOnUse">
<stop stop-color="#161E33"/>
<stop offset="1" stop-color="#0E1424"/>
</linearGradient>
<linearGradient id="paint1_linear_1799_14428" x1="49.2" y1="318" x2="49.2" y2="336" gradientUnits="userSpaceOnUse">
<stop stop-color="#2861D3"/>
<stop offset="1" stop-color="#7335F0"/>
</linearGradient>
<linearGradient id="paint2_linear_1799_14428" x1="49.2" y1="302.1" x2="49.2" y2="319.305" gradientUnits="userSpaceOnUse">
<stop stop-color="#779CE6"/>
<stop offset="1" stop-color="#2567EB"/>
</linearGradient>
<linearGradient id="paint3_linear_1799_14428" x1="49.2" y1="288" x2="49.2" y2="302.609" gradientUnits="userSpaceOnUse">
<stop stop-color="#D0D0FB"/>
<stop offset="1" stop-color="#81A7F3"/>
</linearGradient>
<linearGradient id="paint4_linear_1799_14428" x1="478" y1="280" x2="478" y2="344" gradientUnits="userSpaceOnUse">
<stop stop-color="#161E33"/>
<stop offset="1" stop-color="#0E1424"/>
</linearGradient>
<clipPath id="clip0_1799_14428">
<rect x="60" y="40" width="28" height="28" rx="14" fill="white"/>
</clipPath>
<clipPath id="clip1_1799_14428">
<rect x="446" y="280" width="64" height="64" rx="7.04" fill="white"/>
</clipPath>
</defs>
</svg>
