<svg width="538" height="168" viewBox="0 0 538 168" fill="none" xmlns="http://www.w3.org/2000/svg">
<g clip-path="url(#clip0_5657_32293)">
<path d="M202.513 146.514L201.587 147.972C198.949 152.124 193.146 152.773 189.642 149.308L182.257 142.005L175.863 136.827C164.402 127.545 147.352 130.885 140.279 143.798C136.141 151.353 128.214 156.048 119.593 156.048L5.09054 156.051C0.140768 156.051 -3.86677 160.058 -3.86677 165.008C-3.86677 169.971 0.161708 174 5.1249 174L541.775 174L541.775 40.7063C541.775 38.5061 538.74 37.9131 537.919 39.953L531.34 56.3072L530.182 59.0977C526.724 67.43 516.133 69.9434 509.276 64.059C503.51 59.1111 494.786 59.986 490.138 65.9784L472.312 88.9596C468.962 93.2783 462.739 94.053 458.418 90.6892C454.668 87.7694 449.378 87.9209 445.812 91.0499L445.053 91.7163C440.553 95.6649 433.728 95.3323 429.618 90.9641L411.268 71.4607C406.005 65.8671 397.278 65.4015 391.47 70.4045C390.956 70.8469 390.412 71.2523 389.841 71.6175L375.521 80.7727C370.674 83.8713 364.702 84.6675 359.204 82.9481L357.958 82.5584C353.675 81.219 350.122 78.1898 348.121 74.1723L335.042 47.9106C332.226 42.2579 323.847 43.4055 322.677 49.604L307.337 118.747C306.984 120.338 306.209 121.805 305.093 122.992L304.334 123.801C302.5 125.753 299.736 126.531 297.148 125.822C294.692 125.15 292.766 123.238 292.076 120.786L290.77 116.145C289.497 111.622 286.273 107.898 281.977 105.991L280.122 105.168C278.006 104.228 276.254 102.621 275.135 100.593L266.543 85.015C265.16 82.5079 261.44 82.9165 260.644 85.6628L245.558 137.709L243.197 144.792C240.056 154.217 227.261 155.519 222.252 146.922C217.889 139.434 207.153 139.212 202.513 146.514Z" fill="url(#paint0_linear_5657_32293)" fill-opacity="0.4"/>
<path d="M-3.86914 156.051L119.59 156.048C128.211 156.048 136.139 151.353 140.277 143.798V143.798C147.35 130.885 164.399 127.545 175.861 136.827L182.255 142.005L189.64 149.308C193.144 152.773 198.946 152.124 201.585 147.972L202.511 146.515C207.151 139.212 217.887 139.434 222.249 146.922V146.922C227.258 155.519 240.053 154.218 243.195 144.792L245.556 137.709L260.641 85.663V85.663C261.437 82.9167 265.157 82.5081 266.54 85.0151L275.133 100.593C276.251 102.621 278.003 104.228 280.12 105.168L281.975 105.991C286.27 107.899 289.495 111.622 290.768 116.145L292.074 120.786C292.764 123.238 294.689 125.15 297.146 125.823V125.823C299.733 126.531 302.498 125.753 304.332 123.801L305.091 122.992C306.206 121.805 306.981 120.339 307.334 118.747L322.675 49.6041V49.6041C323.845 43.4057 332.224 42.2581 335.039 47.9108L348.119 74.1724C350.12 78.1899 353.673 81.2192 357.956 82.5585L359.202 82.9482C364.7 84.6677 370.672 83.8714 375.518 80.7729L389.838 71.6176C390.41 71.2524 390.954 70.8471 391.468 70.4046V70.4046C397.276 65.4017 406.002 65.8673 411.265 71.4609L429.615 90.9643C433.725 95.3325 440.551 95.6651 445.05 91.7165L445.81 91.0501C449.375 87.921 454.666 87.7696 458.416 90.6893V90.6893C462.736 94.0532 468.96 93.2785 472.31 88.9598L490.136 65.9786C494.784 59.9862 503.508 59.1113 509.274 64.0592V64.0592C516.131 69.9436 526.722 67.4302 530.18 59.0978L531.338 56.3073L541.772 30.3682" stroke="url(#paint1_linear_5657_32293)" stroke-width="4" stroke-linecap="round"/>
<rect x="47" y="32" width="56" height="56" rx="8" fill="white"/>
<path d="M87.84 65.5879C87.7727 65.3346 87.664 65.0942 87.5181 64.8764C87.5494 64.7618 87.5732 64.6453 87.5891 64.5276C87.6927 63.7806 87.4337 63.0967 86.9457 62.5676C86.6814 62.2786 86.398 62.0877 86.0979 61.9706C86.2949 61.1277 86.3945 60.2651 86.395 59.3996C86.395 59.0042 86.3726 58.6169 86.3351 58.2354C86.3156 58.0449 86.292 57.8549 86.2642 57.6654C86.1784 57.1063 86.0509 56.5543 85.8829 56.0142C85.7727 55.6593 85.6454 55.3099 85.5011 54.9674C85.285 54.4602 85.0326 53.9692 84.746 53.4982C84.558 53.1848 84.3532 52.8818 84.1326 52.5904C84.0245 52.4433 83.9119 52.2997 83.7946 52.1597C83.4474 51.7377 83.07 51.3414 82.6655 50.9739C82.5311 50.8504 82.393 50.7311 82.2511 50.6162C82.1115 50.4997 81.9687 50.387 81.8231 50.2782C81.53 50.06 81.2271 49.8553 80.9154 49.6648C79.1927 48.6186 77.1726 48.0186 75.0135 48.0186C68.727 48.0186 63.632 53.1138 63.632 59.3999C63.6317 60.2764 63.7332 61.1499 63.9345 62.0029C63.6645 62.1202 63.4057 62.3029 63.1657 62.5673C62.6779 63.0962 62.4187 63.7776 62.5224 64.5246C62.5381 64.6432 62.5617 64.7607 62.5932 64.8762C62.4475 65.0941 62.3388 65.3346 62.2716 65.5879C62.1216 66.1581 62.171 66.6722 62.3616 67.1227C62.1544 67.7114 62.2061 68.3384 62.476 68.8836C62.6722 69.2817 62.9531 69.5897 63.2994 69.8649C63.711 70.1922 64.2262 70.4702 64.8477 70.7369C65.5892 71.0532 66.4944 71.3503 66.906 71.4593C67.9692 71.7346 68.9887 71.9091 70.022 71.9176C71.4941 71.9312 72.7619 71.5851 73.6695 70.6992C74.1154 70.7538 74.5642 70.7812 75.0135 70.7809C75.4881 70.7799 75.9622 70.7501 76.4332 70.6916C77.3387 71.5831 78.6114 71.9323 80.0889 71.9183C81.122 71.9101 82.1415 71.7356 83.202 71.4599C83.6164 71.3509 84.5211 71.0538 85.263 70.7376C85.8845 70.4704 86.3997 70.1924 86.8141 69.8657C87.1577 69.5903 87.4384 69.2824 87.6347 68.8843C87.9074 68.3391 87.9564 67.7121 87.752 67.1233C87.9407 66.6728 87.9899 66.1576 87.84 65.5879ZM86.785 67.0846C86.9939 67.4809 87.0072 67.9288 86.823 68.3459C86.5435 68.9781 85.8492 69.4761 84.5009 70.0107C83.6624 70.3432 82.8946 70.5558 82.8879 70.5577C81.7789 70.8453 80.7759 70.9914 79.9076 70.9914C78.4699 70.9914 77.4 70.5947 76.7215 69.8112C75.5741 70.0067 74.4026 70.0133 73.2531 69.8309C72.5737 70.6014 71.51 70.9914 70.0844 70.9914C69.216 70.9914 68.2131 70.8453 67.104 70.5577C67.0972 70.5558 66.3297 70.3432 65.491 70.0107C64.1427 69.4761 63.4482 68.9784 63.1689 68.3459C62.9846 67.9288 62.998 67.4809 63.2069 67.0846C63.2261 67.0477 63.2469 67.0118 63.269 66.9771C63.1438 66.7891 63.0599 66.5767 63.0226 66.3538C62.9854 66.1311 62.9957 65.9029 63.053 65.6844C63.136 65.3691 63.3074 65.1068 63.5401 64.9184C63.428 64.7342 63.3544 64.5292 63.3239 64.3157C63.2569 63.8514 63.411 63.3879 63.7576 63.0099C64.0276 62.7158 64.4092 62.5539 64.8317 62.5539H64.843C64.5244 61.5328 64.3629 60.4692 64.364 59.3996C64.364 53.5657 69.0935 48.8358 74.9282 48.8358C80.7629 48.8358 85.4924 53.5652 85.4924 59.3996C85.4932 60.4721 85.3306 61.5384 85.01 62.5619C85.061 62.5569 85.111 62.5544 85.1601 62.5543C85.5826 62.5543 85.9644 62.7162 86.2341 63.0103C86.5807 63.3879 86.735 63.8518 86.6679 64.3161C86.6374 64.5296 86.5637 64.7346 86.4517 64.9188C86.6845 65.1072 86.856 65.3694 86.9389 65.6848C86.9961 65.9033 87.0065 66.1314 86.9692 66.3543C86.9321 66.5771 86.8481 66.7894 86.7229 66.9774C86.745 67.0118 86.766 67.0477 86.785 67.0846Z" fill="white"/>
<path d="M86.7225 66.9773C86.8477 66.7893 86.9317 66.5769 86.969 66.3542C87.0061 66.1313 86.9957 65.9032 86.9384 65.6847C86.8554 65.3693 86.684 65.107 86.4513 64.9187C86.5635 64.7344 86.6369 64.5294 86.6674 64.3159C86.7346 63.8517 86.5805 63.3882 86.2337 63.0102C85.9639 62.716 85.5822 62.5542 85.1597 62.5542C85.1106 62.5542 85.0606 62.5568 85.0096 62.5618C85.3298 61.5383 85.4922 60.4721 85.4911 59.3997C85.4911 53.5657 80.7616 48.8359 74.9275 48.8359C69.0932 48.8359 64.3632 53.5652 64.3632 59.3997C64.3621 60.4693 64.5237 61.5329 64.8422 62.554H64.8309C64.4084 62.554 64.0268 62.7158 63.757 63.0099C63.4103 63.3875 63.2561 63.8515 63.3232 64.3157C63.3538 64.5292 63.4273 64.7343 63.5394 64.9185C63.3067 65.1068 63.1352 65.3691 63.0522 65.6844C62.995 65.903 62.9847 66.1312 63.0219 66.354C63.0592 66.5768 63.1432 66.7893 63.2684 66.9773C63.2462 67.012 63.2257 67.0479 63.2063 67.0848C62.9976 67.4812 62.9841 67.929 63.1685 68.3462C63.448 68.9783 64.1422 69.4763 65.4906 70.0109C66.3289 70.3434 67.0968 70.556 67.1036 70.5579C68.2126 70.8455 69.2156 70.9917 70.0838 70.9917C71.5096 70.9917 72.5733 70.6017 73.2527 69.8312C74.4022 70.0135 75.5737 70.0068 76.7211 69.8114C77.3996 70.5949 78.4694 70.9917 79.9072 70.9917C80.7754 70.9917 81.7785 70.8455 82.8873 70.5579C82.8942 70.556 83.6617 70.3434 84.5005 70.0109C85.8488 69.4763 86.5432 68.9783 86.8226 68.3462C87.0068 67.929 86.9935 67.4812 86.7846 67.0848C86.7656 67.0477 86.7446 67.0117 86.7225 66.9773ZM72.7666 68.6249C72.7081 68.7272 72.6455 68.8271 72.5788 68.9242C72.4032 69.1813 72.1722 69.3778 71.9041 69.5238C71.3916 69.8033 70.7428 69.9009 70.0838 69.9009C69.0427 69.9009 67.9755 69.6573 67.3773 69.5022C67.3478 69.4945 63.7106 68.4672 64.1711 67.5927C64.2486 67.4455 64.3761 67.3868 64.5367 67.3868C65.1851 67.3868 66.3657 68.3523 66.8731 68.3523C66.9864 68.3523 67.0664 68.3041 67.0991 68.1863C67.3153 67.4108 63.8124 67.0848 64.1074 65.9618C64.1594 65.7631 64.3007 65.6823 64.4992 65.6823C65.3565 65.6822 67.2805 67.1898 67.6828 67.1898C67.7137 67.1898 67.7358 67.1807 67.7478 67.1617C67.7496 67.1588 67.7513 67.156 67.753 67.153C67.9418 66.8412 67.8334 66.6144 66.5396 65.8219L66.4153 65.7463C64.9914 64.8846 63.9921 64.3659 64.5604 63.7472C64.6258 63.6758 64.7186 63.6442 64.8312 63.6442C64.9647 63.6442 65.1263 63.6888 65.3043 63.7638C66.0563 64.0809 67.0986 64.9458 67.534 65.3229C67.6024 65.3824 67.6705 65.4426 67.7381 65.503C67.7381 65.503 68.2893 66.0763 68.6226 66.0763C68.6993 66.0763 68.7644 66.0461 68.8086 65.9713C69.045 65.5728 66.6132 63.7301 66.4761 62.9697C66.3831 62.4545 66.5413 62.1936 66.8338 62.1936C66.9729 62.1936 67.1427 62.2528 67.3301 62.3717C67.9113 62.7405 69.0336 64.6691 69.4444 65.4193C69.5822 65.6707 69.8173 65.7769 70.0292 65.7769C70.4496 65.7769 70.7782 65.359 70.0677 64.828C68.9998 64.029 69.3746 62.7231 69.8842 62.6427C69.906 62.6392 69.9279 62.6374 69.9498 62.6374C70.4133 62.6374 70.6177 63.436 70.6177 63.436C70.6177 63.436 71.2169 64.9408 72.2463 65.9694C73.1803 66.903 73.3108 67.6692 72.7666 68.6249ZM76.0952 68.8012L76.0418 68.8075L75.9508 68.8179C75.9029 68.8229 75.855 68.8277 75.8068 68.8321L75.76 68.8363L75.7171 68.8399L75.6563 68.8448L75.5892 68.8497L75.5222 68.854L75.5073 68.855C75.4898 68.856 75.4723 68.8572 75.4546 68.858L75.4322 68.8593C75.4115 68.8604 75.3907 68.8614 75.3697 68.8623L75.2971 68.8654L75.2312 68.8677L75.1872 68.8689H75.1648C75.1511 68.8689 75.1375 68.8697 75.1237 68.8698H75.102C75.0882 68.8698 75.0746 68.8698 75.0608 68.8704L75.0048 68.8712H74.9267C74.8653 68.8712 74.8041 68.8705 74.7431 68.8693L74.6936 68.8682C74.6795 68.8682 74.6653 68.8675 74.6515 68.8671L74.599 68.8655L74.5338 68.863L74.4751 68.8604L74.46 68.8598L74.4041 68.8569C74.3885 68.856 74.3731 68.8553 74.3576 68.8542L74.3215 68.852C74.2761 68.8492 74.2307 68.8461 74.1853 68.8426L74.1378 68.8387C74.1178 68.8372 74.0978 68.8353 74.078 68.8335C74.0546 68.8315 74.0312 68.8293 74.0078 68.827C73.9687 68.8234 73.9296 68.8194 73.8905 68.8152H73.8886C74.4598 67.5408 74.171 66.3505 73.0166 65.1972C72.2595 64.441 71.7558 63.3245 71.6513 63.0794C71.4398 62.3538 70.8801 61.5472 69.9505 61.5472C69.8718 61.5472 69.7933 61.5534 69.7157 61.5657C69.3085 61.6298 68.9525 61.8642 68.6985 62.2169C68.424 61.8755 68.1572 61.6042 67.916 61.4509C67.5522 61.2203 67.1892 61.1033 66.8356 61.1033C66.3942 61.1033 65.9997 61.2846 65.7247 61.6133L65.7177 61.6217C65.7124 61.6 65.7074 61.5784 65.7023 61.5567L65.7017 61.5538C65.6494 61.33 65.6054 61.1044 65.5699 60.8773C65.5699 60.8758 65.5699 60.8743 65.5692 60.8728C65.5664 60.8557 65.5639 60.8384 65.5613 60.8213C65.5536 60.7705 65.5464 60.7197 65.5397 60.6688C65.5367 60.6457 65.5334 60.6225 65.5306 60.5994L65.5221 60.5301C65.5193 60.5069 65.5171 60.4859 65.5146 60.4639L65.5138 60.4584C65.5038 60.3684 65.4951 60.2784 65.4876 60.1882L65.4848 60.1535L65.4804 60.0945C65.4792 60.0784 65.4779 60.0622 65.4771 60.0459C65.4771 60.0421 65.4764 60.0383 65.4763 60.0347C65.4731 59.9894 65.4704 59.944 65.4682 59.8987C65.4669 59.875 65.4657 59.8516 65.4647 59.8278L65.4622 59.7658L65.4616 59.747L65.4596 59.6899L65.4583 59.6413C65.4583 59.6219 65.4573 59.6026 65.4571 59.5832C65.4567 59.5638 65.4562 59.5426 65.4561 59.5221C65.4558 59.5016 65.4561 59.4813 65.4554 59.4609C65.4549 59.4404 65.4554 59.4201 65.4554 59.3997C65.4554 54.1681 69.6968 49.9267 74.929 49.9267C80.1609 49.9267 84.4022 54.1679 84.4022 59.3997V59.5221C84.4022 59.5424 84.4016 59.5629 84.4012 59.5832C84.4012 59.6001 84.4004 59.6167 84.4 59.6338C84.4 59.6488 84.3993 59.6639 84.3988 59.6784C84.3988 59.6975 84.3977 59.7167 84.3971 59.7358V59.7373L84.3945 59.8037C84.3936 59.823 84.3928 59.8426 84.3918 59.8619L84.3912 59.8757L84.3878 59.9377C84.3804 60.0706 84.3703 60.2032 84.3577 60.3357V60.3373C84.3556 60.359 84.3535 60.3808 84.3511 60.4025L84.3455 60.4539L84.3343 60.5544L84.328 60.6053L84.3201 60.6652C84.3172 60.6869 84.3143 60.7088 84.3111 60.7304C84.3078 60.7548 84.3042 60.779 84.3006 60.8033L84.292 60.8607L84.2817 60.9257C84.2782 60.9473 84.2745 60.9688 84.2705 60.9903C84.2663 61.0119 84.2631 61.0334 84.2593 61.0549C84.2518 61.0979 84.2439 61.1409 84.2357 61.1838C84.2231 61.2479 84.2102 61.3119 84.197 61.3759L84.1832 61.4393C84.1787 61.4604 84.1738 61.4817 84.1691 61.5028C83.9025 61.2437 83.5493 61.1025 83.16 61.1025C82.8066 61.1025 82.4432 61.2194 82.0796 61.4501C81.8383 61.6033 81.5717 61.8748 81.2971 62.216C81.0427 61.8633 80.6867 61.6289 80.2797 61.5648C80.2021 61.5526 80.1236 61.5463 80.045 61.5463C79.1151 61.5463 78.5557 62.3529 78.3441 63.0786C78.2391 63.3237 77.7353 64.4402 76.9776 65.1974C75.8239 66.3472 75.533 67.532 76.0952 68.8012ZM85.8753 66.25L85.8716 66.2612C85.8621 66.2863 85.8511 66.3108 85.8387 66.3345C85.8293 66.352 85.8192 66.369 85.8082 66.3855C85.7873 66.4167 85.7645 66.4464 85.7396 66.4744C85.7338 66.4809 85.7283 66.4874 85.7218 66.4938C85.7128 66.5034 85.7037 66.5129 85.6943 66.5222C85.5261 66.6889 85.2696 66.8352 84.9796 66.9693C84.9467 66.9842 84.9133 66.9991 84.8797 67.014L84.8462 67.0289C84.8238 67.0388 84.8015 67.0485 84.778 67.0582C84.7556 67.0679 84.7323 67.0777 84.7091 67.0872L84.6393 67.1159C84.4762 67.1831 84.3091 67.247 84.1461 67.3102L84.0763 67.3373L84.0075 67.3643C83.9616 67.3822 83.9163 67.4 83.8718 67.4179L83.8055 67.4447L83.7402 67.4713L83.7082 67.4848C83.6868 67.4937 83.666 67.5026 83.6451 67.5114C83.1654 67.7173 82.8203 67.9267 82.8928 68.1864C82.8948 68.1938 82.8971 68.2008 82.8996 68.2077C82.9061 68.2269 82.9149 68.2451 82.9261 68.2622C82.9326 68.2723 82.9401 68.2819 82.9485 68.2907C83.0337 68.3793 83.1888 68.3653 83.3845 68.2949C83.412 68.2848 83.4393 68.2743 83.4664 68.2633L83.4834 68.2563C83.5282 68.2373 83.5756 68.2161 83.624 68.1931C83.6361 68.1873 83.6483 68.1818 83.6606 68.1754C83.8998 68.0584 84.171 67.9009 84.44 67.7575C84.5476 67.6994 84.6567 67.6443 84.7672 67.5919C85.0219 67.472 85.2615 67.387 85.454 67.387C85.5443 67.387 85.6241 67.4056 85.6906 67.448L85.7017 67.4554C85.7435 67.4848 85.7785 67.5225 85.8046 67.5663C85.8097 67.5747 85.8147 67.5835 85.8196 67.5927C85.9147 67.7733 85.8351 67.9603 85.6487 68.1437C85.4698 68.3198 85.1916 68.4924 84.8753 68.6522C84.8518 68.664 84.8283 68.6759 84.8045 68.6875C83.8632 69.1498 82.6306 69.4979 82.6135 69.5023C82.285 69.5874 81.8152 69.6992 81.286 69.7828L81.2077 69.795L81.1948 69.7969C81.1356 69.8059 81.0762 69.8143 81.0167 69.8221C80.9563 69.8302 80.8953 69.8376 80.834 69.8444L80.8227 69.8457C80.6002 69.8713 80.3768 69.8883 80.153 69.8964H80.1497C80.0687 69.8993 79.9878 69.9008 79.9068 69.9008H79.8134C79.6899 69.8992 79.5667 69.8936 79.4436 69.8841C79.4407 69.8841 79.4376 69.884 79.4347 69.8833C79.3906 69.8799 79.3466 69.8758 79.3026 69.8709C79.257 69.866 79.2115 69.8605 79.1661 69.8544C79.1362 69.8504 79.1065 69.8459 79.0767 69.841C79.0464 69.8362 79.0162 69.8312 78.9861 69.8259L78.945 69.8182L78.9418 69.8175C78.8985 69.8093 78.8553 69.8002 78.8123 69.7902C78.7873 69.7845 78.7625 69.779 78.7378 69.7723L78.7229 69.7685C78.7107 69.7655 78.6988 69.7623 78.6867 69.7591L78.6801 69.7573L78.6416 69.746C78.6276 69.7422 78.6136 69.7379 78.5996 69.7338L78.5947 69.7324L78.5583 69.7213C78.5446 69.7171 78.5308 69.7125 78.5172 69.708L78.4837 69.6969L78.4591 69.6883C78.4353 69.6799 78.4117 69.6713 78.3883 69.6623L78.3661 69.6535L78.3477 69.6463C78.3122 69.632 78.2769 69.6172 78.2421 69.6015L78.219 69.5903L78.2151 69.5885C78.2068 69.5847 78.1987 69.5808 78.1905 69.5774C78.1743 69.5697 78.1583 69.5617 78.1425 69.5535L78.1376 69.5512L78.1146 69.539C78.0737 69.5177 78.0337 69.4949 77.9945 69.4708L77.9729 69.4576C77.9622 69.4509 77.9515 69.444 77.941 69.437L77.913 69.4185L77.8828 69.3978L77.8648 69.3849C77.8458 69.3714 77.8272 69.3574 77.809 69.3431L77.7798 69.3207C77.7682 69.3113 77.7567 69.3018 77.7453 69.2922C77.7357 69.2843 77.7263 69.276 77.717 69.2678L77.7162 69.2672C77.7061 69.2583 77.6962 69.2494 77.6863 69.2403C77.6766 69.2314 77.6668 69.2224 77.6573 69.2133L77.6562 69.2122C77.6462 69.2027 77.6365 69.193 77.6268 69.1832C77.6172 69.1734 77.6073 69.1637 77.5979 69.1537C77.5886 69.1438 77.5789 69.1337 77.5697 69.1233C77.5605 69.113 77.552 69.1037 77.5432 69.0935L77.5403 69.0902C77.5318 69.0804 77.5235 69.0705 77.5152 69.0604C77.4973 69.039 77.48 69.0172 77.4632 68.9948C77.4463 68.9723 77.4298 68.9493 77.4137 68.9259L77.3983 68.9029C77.3778 68.8729 77.3578 68.8427 77.3385 68.8119C77.324 68.7898 77.3098 68.7675 77.2961 68.7449C77.2872 68.7308 77.2787 68.7165 77.2702 68.7025L77.2667 68.6968C77.2586 68.6831 77.2506 68.6695 77.2428 68.6559C77.2383 68.6485 77.2341 68.6412 77.2301 68.6335C77.226 68.6258 77.2212 68.6179 77.2168 68.6101L77.2097 68.5977L77.2053 68.5897C77.197 68.5747 77.1887 68.5595 77.1807 68.5443C77.177 68.5375 77.1733 68.5308 77.1695 68.5243L77.1583 68.5027L77.1471 68.4813C77.119 68.4251 77.0923 68.368 77.0673 68.3103L77.0585 68.2892C77.0527 68.275 77.0473 68.261 77.0416 68.2472C77.0388 68.2404 77.0361 68.2338 77.0337 68.227C77.0203 68.1924 77.0078 68.1574 76.9963 68.1222C76.9922 68.1096 76.9882 68.0972 76.9845 68.0847C76.9755 68.0563 76.9673 68.0277 76.9601 67.9988C76.9512 67.9652 76.9433 67.9313 76.9367 67.8972C76.9353 67.8903 76.934 67.8834 76.9328 67.8768C76.9263 67.8434 76.9211 67.8098 76.917 67.776C76.9159 67.7694 76.9152 67.7628 76.9145 67.7562L76.9123 67.7359C76.9096 67.7094 76.9075 67.6828 76.9062 67.6562C76.9062 67.6494 76.9056 67.6427 76.9053 67.6362C76.9047 67.6229 76.9045 67.6097 76.9043 67.5964C76.8973 67.0623 77.1676 66.5488 77.7455 65.9712C78.7748 64.9428 79.3741 63.4379 79.3741 63.4379C79.3741 63.4379 79.3902 63.3748 79.4237 63.2839C79.4283 63.2713 79.4332 63.2583 79.4387 63.2447C79.4582 63.1938 79.4802 63.1438 79.5046 63.095L79.5095 63.0857C79.5302 63.0442 79.5529 63.0037 79.5774 62.9643C79.5832 62.9552 79.5887 62.9462 79.5951 62.937C79.6135 62.9099 79.6328 62.8834 79.6532 62.8578C79.6643 62.8439 79.6765 62.8302 79.6886 62.8168C79.6935 62.8115 79.6982 62.8063 79.7033 62.8013C79.763 62.7397 79.8311 62.6894 79.9082 62.6627L79.918 62.6594C79.9245 62.6573 79.931 62.6553 79.9376 62.6534C79.9452 62.6514 79.9528 62.6497 79.9607 62.6481L79.9643 62.6473C79.9806 62.644 79.9971 62.6419 80.0137 62.6408H80.0151C80.0237 62.6408 80.0325 62.6399 80.0413 62.6399C80.0525 62.6399 80.0628 62.6399 80.0737 62.6411C80.0849 62.6421 80.0961 62.6433 80.1073 62.6451C80.2001 62.6598 80.2883 62.715 80.3643 62.8003C80.3932 62.8328 80.4192 62.8678 80.4419 62.9048C80.4569 62.9288 80.4711 62.9542 80.4845 62.9809C80.4898 62.992 80.495 63.0023 80.5 63.0133C80.513 63.0415 80.5247 63.0703 80.535 63.0997C80.5593 63.1684 80.5777 63.2392 80.5898 63.3112C80.6003 63.3743 80.6066 63.438 80.6086 63.5019C80.6096 63.536 80.6096 63.5707 80.6086 63.6055C80.6018 63.7678 80.5686 63.9279 80.5102 64.0795C80.5049 64.0934 80.4991 64.1074 80.4935 64.1214C80.482 64.1497 80.4693 64.1774 80.4557 64.2045C80.4456 64.2252 80.4349 64.2459 80.4235 64.2666C80.416 64.2803 80.4081 64.2941 80.4002 64.3078C80.3801 64.3421 80.3583 64.376 80.335 64.4099L80.3208 64.4302C80.2656 64.5072 80.2041 64.5794 80.1368 64.6462C80.0706 64.7126 79.9996 64.7739 79.9244 64.8299C79.8492 64.8857 79.7786 64.9474 79.7133 65.0145C79.5254 65.2117 79.4817 65.3857 79.524 65.5175C79.5307 65.5383 79.5396 65.5584 79.5503 65.5774C79.563 65.5992 79.578 65.6192 79.595 65.6374L79.6016 65.6443L79.6083 65.651C79.6151 65.6575 79.6222 65.6639 79.6298 65.6702L79.6373 65.6762C79.6555 65.6902 79.6747 65.7027 79.6948 65.7137C79.7007 65.7168 79.706 65.7199 79.7126 65.7229C79.7343 65.7336 79.7567 65.7427 79.7797 65.75C79.7861 65.7522 79.7924 65.754 79.799 65.7561L79.8071 65.7582L79.8183 65.7612L79.828 65.7635L79.8385 65.7658L79.8488 65.7679L79.8587 65.7696C79.8659 65.7708 79.8735 65.772 79.881 65.7729L79.8881 65.774L79.9011 65.7753L79.9091 65.7762L79.9222 65.7771H79.93L79.9437 65.7778H79.9869L79.9993 65.7771L80.0136 65.7762L80.031 65.7745L80.0472 65.7727C80.051 65.7727 80.0547 65.7717 80.0585 65.7709C80.1084 65.7637 80.1575 65.7504 80.2043 65.7314L80.2242 65.723C80.2353 65.7182 80.2466 65.7131 80.2568 65.7076C80.2788 65.6966 80.3002 65.684 80.3207 65.6704C80.3493 65.6517 80.3763 65.6307 80.4016 65.6075C80.4076 65.6022 80.4135 65.5964 80.4192 65.5909C80.4221 65.5882 80.4248 65.5856 80.4276 65.5826C80.4331 65.5769 80.4387 65.5714 80.4442 65.5653C80.4842 65.5213 80.5188 65.4728 80.5473 65.4207C80.792 64.9758 81.0483 64.5375 81.3162 64.1064L81.353 64.0476L81.3901 63.9887C81.4086 63.9588 81.4273 63.9294 81.446 63.9002L81.4647 63.8709C81.527 63.7734 81.5902 63.6765 81.6546 63.5804L81.6927 63.5234C81.7692 63.41 81.8455 63.2998 81.9211 63.195L81.9587 63.1432C82.041 63.0298 82.1266 62.9188 82.2155 62.8105L82.2507 62.7683C82.2566 62.7613 82.262 62.7543 82.2683 62.7475C82.28 62.7338 82.2916 62.7204 82.3029 62.7074C82.3087 62.7008 82.3141 62.6943 82.3202 62.6878L82.3537 62.65L82.3705 62.6317C82.3873 62.6135 82.4038 62.5962 82.4201 62.5795C82.4313 62.5683 82.4417 62.5572 82.4524 62.5467C82.5158 62.4819 82.5857 62.4238 82.6611 62.3734L82.6786 62.3622C82.6953 62.3509 82.7127 62.3404 82.7305 62.3309C83.026 62.1632 83.2706 62.1508 83.4115 62.2917C83.4967 62.3769 83.544 62.5183 83.5413 62.715C83.5413 62.7237 83.5413 62.7324 83.5407 62.7414V62.751C83.5407 62.76 83.5399 62.7691 83.5392 62.7782C83.5392 62.7894 83.538 62.8006 83.5368 62.8118C83.5357 62.8229 83.5351 62.8314 83.534 62.8414C83.534 62.8442 83.5335 62.847 83.533 62.85C83.5322 62.8587 83.5311 62.8675 83.5298 62.8764C83.5298 62.8791 83.5298 62.8818 83.5288 62.8846C83.5275 62.8964 83.5257 62.9082 83.5237 62.9199C83.5223 62.9312 83.5205 62.9417 83.5184 62.9527L83.5152 62.9713C83.512 62.989 83.5078 63.0065 83.5027 63.0238C83.493 63.0562 83.4812 63.0878 83.4673 63.1185C83.448 63.1608 83.4266 63.2019 83.4031 63.2419C83.3901 63.2642 83.3767 63.286 83.3628 63.3077C83.3486 63.33 83.3336 63.3527 83.3181 63.3755C83.2786 63.432 83.2376 63.4874 83.195 63.5415L83.1755 63.5662C83.106 63.6528 83.0342 63.7377 82.9602 63.8205L82.9368 63.8468C82.9053 63.8819 82.8733 63.9173 82.8406 63.9528L82.816 63.9795C82.7996 63.9974 82.7825 64.0153 82.766 64.0333C82.7496 64.0512 82.7325 64.0693 82.7152 64.0874L82.6638 64.1416L82.6117 64.196L82.5592 64.2505C82.524 64.287 82.4886 64.3236 82.453 64.3601C81.9461 64.8799 81.4121 65.3981 81.2313 65.7211C81.2192 65.7421 81.2083 65.7638 81.1986 65.7859C81.1728 65.8447 81.1621 65.8949 81.1695 65.9355C81.1718 65.9489 81.1765 65.9617 81.1833 65.9734C81.1934 65.9911 81.2058 66.0073 81.2202 66.0218C81.2268 66.0283 81.2338 66.0343 81.2412 66.0398C81.2785 66.0663 81.3233 66.0799 81.3691 66.0787H81.3833L81.398 66.0775L81.4126 66.0759L81.4247 66.0742C81.4263 66.0739 81.4281 66.0737 81.4297 66.0732L81.4408 66.071L81.4437 66.0704L81.4561 66.0678L81.4605 66.0667C81.4648 66.0655 81.4691 66.0644 81.4735 66.0632C81.4778 66.0619 81.4838 66.0603 81.4891 66.0585C81.5111 66.0519 81.5326 66.0441 81.5537 66.035C81.5648 66.0306 81.5757 66.0257 81.5865 66.0204C81.5921 66.0179 81.5977 66.0153 81.603 66.0126L81.6197 66.0043C81.6597 65.9835 81.6987 65.9609 81.7367 65.9367L81.7533 65.9254C81.759 65.9219 81.7646 65.9183 81.77 65.9143L81.7866 65.9032L81.7955 65.897L81.8195 65.8802C81.8418 65.8648 81.8627 65.8489 81.8838 65.8328L81.8857 65.8313L81.9193 65.8053C81.9652 65.7691 82.0087 65.7325 82.0482 65.6982L82.0745 65.6752L82.0768 65.6729L82.0906 65.6608C82.1228 65.6318 82.1516 65.6048 82.1755 65.5826L82.1853 65.5729C82.194 65.5648 82.2018 65.5572 82.209 65.5507L82.2229 65.5368L82.228 65.5319L82.2293 65.5306L82.2439 65.5159L82.2532 65.5063L82.2543 65.5054L82.2587 65.5014L82.2642 65.4964L82.266 65.4948L82.2706 65.4905L82.2961 65.4682L82.3103 65.4554C82.318 65.4488 82.3253 65.442 82.3327 65.4352L82.3497 65.42C82.3528 65.4175 82.3558 65.4148 82.359 65.4121L82.3768 65.3964L82.4031 65.3733L82.4171 65.3612C82.4715 65.3139 82.5376 65.2568 82.6136 65.1924L82.6447 65.166L82.6961 65.1229L82.7487 65.0791C82.8175 65.0219 82.8914 64.9613 82.9697 64.8984L83.0211 64.8572C83.0648 64.8223 83.1097 64.7868 83.1552 64.751C83.1736 64.7367 83.1922 64.7223 83.2112 64.708C83.2577 64.6719 83.3045 64.636 83.3516 64.6007C83.4588 64.5197 83.5695 64.4385 83.6814 64.3595L83.7295 64.326C83.7631 64.3029 83.7966 64.2797 83.8301 64.257L83.8605 64.2365C83.9203 64.1959 83.9811 64.1563 84.0423 64.1177L84.0727 64.0985L84.1028 64.0798C84.1331 64.061 84.1631 64.0427 84.193 64.0248L84.2228 64.0069L84.2826 63.9722L84.3412 63.9385L84.3531 63.932L84.3995 63.9065C84.4188 63.896 84.4381 63.8859 84.4573 63.876L84.486 63.8613L84.5138 63.8473C84.5236 63.8427 84.5332 63.8378 84.5427 63.8332C84.6054 63.8022 84.6695 63.7737 84.7345 63.7477C84.7521 63.7402 84.7696 63.7334 84.787 63.7275L84.8382 63.7095C84.8536 63.7044 84.8686 63.6996 84.8829 63.6952L84.888 63.6937C84.8957 63.6912 84.9035 63.6889 84.9111 63.6869L84.9133 63.6863C84.9293 63.6817 84.9452 63.6777 84.9608 63.6739H84.962C85.0062 63.6633 85.0512 63.6557 85.0966 63.651C85.1175 63.6489 85.1383 63.6478 85.1593 63.6479H85.1698C85.1838 63.6479 85.1973 63.6488 85.2107 63.6502C85.2168 63.6502 85.2229 63.6514 85.229 63.6522H85.2315C85.2375 63.6529 85.2435 63.6538 85.2495 63.6552C85.2553 63.6563 85.2613 63.6573 85.2671 63.6587H85.269C85.2748 63.6599 85.2801 63.6614 85.2862 63.6632C85.318 63.672 85.3482 63.6858 85.3759 63.7038C85.3896 63.7127 85.4023 63.7227 85.4141 63.7338L85.4174 63.737C85.4197 63.739 85.4218 63.7412 85.4238 63.7433L85.43 63.7499C85.4802 63.8025 85.5217 63.8629 85.5529 63.9287L85.5577 63.9399C85.5683 63.9649 85.5767 63.9908 85.5827 64.0172C85.6005 64.0979 85.5936 64.1822 85.563 64.2591C85.5513 64.2901 85.5372 64.3199 85.5206 64.3484C85.4817 64.4139 85.4356 64.4748 85.3832 64.5299L85.3721 64.5418C85.3555 64.5593 85.3382 64.5768 85.3201 64.5943C85.3121 64.6022 85.3037 64.6099 85.2953 64.6178L85.2697 64.6414L85.2563 64.6533C85.2241 64.682 85.191 64.7099 85.1573 64.7369C85.137 64.7534 85.1165 64.7696 85.0957 64.7854C85.0225 64.8414 84.9478 64.8954 84.8718 64.9475C84.826 64.979 84.7797 65.0099 84.7331 65.0404C84.6182 65.1158 84.5021 65.1893 84.3848 65.2608C84.1388 65.4121 83.8662 65.5738 83.5756 65.7497L83.5003 65.7953C83.418 65.8455 83.3402 65.8935 83.267 65.9393L83.2301 65.9624L83.1603 66.0072C83.1141 66.0368 83.068 66.0667 83.0218 66.0965L82.9847 66.121C82.9666 66.1328 82.9486 66.1448 82.9306 66.1568L82.913 66.168L82.859 66.2044L82.8303 66.224L82.7968 66.2473L82.7657 66.2689C82.7136 66.3058 82.6651 66.3409 82.6205 66.3743L82.6037 66.387C82.5774 66.4069 82.5515 66.4272 82.5258 66.4478C82.4872 66.4789 82.452 66.5087 82.4203 66.5373L82.4048 66.5514C82.396 66.5595 82.3872 66.5677 82.3788 66.5757C82.3731 66.5813 82.3677 66.5869 82.3617 66.5923L82.3537 66.6003C82.3358 66.6183 82.3183 66.6367 82.3015 66.6556L82.2932 66.665C82.2748 66.6863 82.2588 66.7067 82.2448 66.7265L82.2386 66.7354C82.2276 66.7514 82.2175 66.7679 82.2083 66.7849C82.206 66.7892 82.2038 66.7934 82.2017 66.7977L82.1956 66.8104L82.1915 66.8197L82.1888 66.8259L82.1867 66.8315L82.1838 66.8392C82.1761 66.8603 82.1707 66.8823 82.1676 66.9045L82.1666 66.9123L82.1658 66.9195V66.9589C82.1658 66.9622 82.1658 66.9654 82.1667 66.9689L82.1673 66.9749C82.1673 66.9782 82.1681 66.9813 82.1686 66.9848C82.1691 66.9881 82.17 66.9939 82.1709 66.9985V66.9992C82.1718 67.0035 82.1727 67.0078 82.1738 67.0122C82.175 67.0166 82.1761 67.0215 82.1775 67.026C82.1798 67.0349 82.1828 67.0437 82.186 67.0524C82.188 67.0577 82.1898 67.0628 82.1919 67.0679C82.1919 67.0689 82.1927 67.07 82.1932 67.071L82.1977 67.0812L82.204 67.095C82.2107 67.1094 82.2181 67.1234 82.2261 67.137L82.2343 67.1513L82.2428 67.1656C82.2443 67.1679 82.2461 67.1702 82.248 67.1723L82.2507 67.1752L82.2538 67.178L82.2571 67.1805C82.2618 67.1839 82.267 67.1866 82.2723 67.1884C82.2752 67.1894 82.2782 67.1902 82.2812 67.1909C82.3533 67.2072 82.5016 67.1475 82.6986 67.0435C82.7097 67.0375 82.722 67.0313 82.7338 67.0248L82.7938 66.9921L82.8231 66.9758C82.844 66.9647 82.8652 66.952 82.887 66.9397L82.9266 66.9173C83.187 66.7674 83.4979 66.5749 83.8195 66.3869C83.8496 66.3693 83.8798 66.3517 83.9101 66.3343L83.9708 66.2954C84.0413 66.255 84.1122 66.2152 84.1833 66.1758C84.2729 66.1266 84.3632 66.0785 84.4543 66.032L84.5138 66.0019C84.5533 65.9824 84.5924 65.9634 84.6311 65.9449C84.7058 65.9094 84.7815 65.8757 84.858 65.8438L84.8998 65.8268L84.9048 65.8248C85.1267 65.7369 85.3278 65.6827 85.4906 65.6827C85.5257 65.6823 85.561 65.6853 85.5956 65.6913H85.5967C85.6078 65.6933 85.618 65.6955 85.6283 65.698H85.6302C85.6568 65.7048 85.6827 65.7144 85.7072 65.7268C85.7416 65.7445 85.7725 65.7682 85.7986 65.7967C85.8106 65.8099 85.8212 65.8243 85.8306 65.8396C85.8481 65.8664 85.8618 65.8955 85.8717 65.9261C85.8757 65.9379 85.8792 65.9495 85.8828 65.9619C85.9092 66.0565 85.9066 66.1569 85.8753 66.25Z" fill="#FF9D00"/>
<path fill-rule="evenodd" clip-rule="evenodd" d="M84.4044 59.461V59.3996C84.4044 54.1679 80.1647 49.9268 74.9325 49.9268C69.7005 49.9268 65.4592 54.1681 65.4592 59.3996V59.4201C65.4589 59.4338 65.4588 59.4474 65.4592 59.461C65.4598 59.4814 65.46 59.5018 65.4598 59.5221L65.4604 59.5671L65.4608 59.5833C65.4608 59.5908 65.461 59.5981 65.4613 59.6056C65.4617 59.6175 65.4619 59.6295 65.4619 59.6414L65.4633 59.69L65.4653 59.7471L65.4659 59.7659L65.4684 59.825V59.8279C65.4694 59.851 65.4707 59.874 65.4718 59.897L65.4719 59.8988C65.4732 59.9223 65.4744 59.9459 65.4759 59.9695C65.4772 59.9913 65.4784 60.013 65.48 60.0348L65.4803 60.0386C65.4814 60.0573 65.4826 60.076 65.484 60.0946L65.4844 60.0996L65.4885 60.1536L65.4889 60.1571C65.4897 60.1676 65.4904 60.1781 65.4914 60.1883C65.4989 60.2784 65.5076 60.3685 65.5175 60.4584L65.5182 60.464L65.5258 60.5301L65.5343 60.5995L65.5405 60.6466L65.5434 60.6688C65.5501 60.7198 65.5573 60.7706 65.565 60.8214L65.5655 60.8248L65.5729 60.8728C65.6086 61.1014 65.6528 61.3286 65.7054 61.554L65.706 61.5568L65.71 61.5736L65.7214 61.6218L65.7284 61.6134C66.0034 61.2846 66.3979 61.1034 66.8393 61.1034C67.193 61.1034 67.5559 61.2204 67.9197 61.451C68.1609 61.6043 68.4277 61.8756 68.7022 62.217C68.9562 61.8643 69.3122 61.6298 69.7194 61.5658C69.7971 61.5535 69.8756 61.5474 69.9542 61.5473C70.8837 61.5473 71.4435 62.3539 71.655 63.0795C71.7595 63.3246 72.2632 64.4411 73.0227 65.1964C74.1772 66.3498 74.466 67.5399 73.8947 68.8143H73.8967C73.9355 68.8186 73.9747 68.8226 74.014 68.8263C74.0374 68.8285 74.0607 68.8308 74.0842 68.8328L74.0924 68.8335L74.144 68.8379L74.1915 68.8416C74.2368 68.8451 74.2822 68.8484 74.3277 68.8513L74.3638 68.8534L74.3924 68.8551L74.4102 68.8561L74.466 68.859L74.4813 68.8596L74.5399 68.8623L74.6052 68.8648L74.6575 68.8663L74.6663 68.8665C74.6774 68.867 74.6885 68.8674 74.6997 68.8674L74.7117 68.8678C74.7854 68.8695 74.859 68.8704 74.9328 68.8703H75.011L75.0669 68.8696C75.0807 68.869 75.0943 68.869 75.1082 68.869H75.1299L75.1488 68.8685C75.1562 68.8683 75.1635 68.868 75.171 68.868H75.1934L75.2373 68.8669L75.3033 68.8646L75.3759 68.8614C75.3969 68.8606 75.4177 68.8595 75.4384 68.8585L75.4608 68.8571L75.494 68.8554L75.5135 68.8543L75.5283 68.8533L75.5954 68.8489L75.6624 68.844L75.7233 68.8391L75.766 68.8355L75.813 68.8313C75.8915 68.8243 75.9698 68.816 76.048 68.8066L76.1014 68.8003C75.539 67.5313 75.8302 66.3463 76.9798 65.1975C77.7377 64.4403 78.2413 63.3238 78.3463 63.0785C78.5579 62.353 79.1174 61.5464 80.0472 61.5464C80.1258 61.5464 80.2044 61.5526 80.282 61.5649C80.6889 61.6289 81.0449 61.8634 81.2993 62.2161C81.5739 61.8749 81.8405 61.6033 82.0819 61.45C82.4455 61.2195 82.8088 61.1025 83.1622 61.1025C83.5517 61.1025 83.9047 61.2438 84.1713 61.5029C84.1762 61.4818 84.1809 61.4606 84.1855 61.4394L84.1992 61.3761C84.204 61.353 84.2089 61.3299 84.2135 61.3068C84.2218 61.2659 84.23 61.225 84.2379 61.1838C84.2462 61.141 84.254 61.098 84.2615 61.055L84.2654 61.0318C84.2678 61.018 84.27 61.0043 84.2727 60.9904C84.2769 60.9689 84.2804 60.9474 84.2839 60.9256L84.2853 60.9174L84.2942 60.8608L84.3029 60.8034V60.8029C84.3093 60.7605 84.3153 60.7181 84.3209 60.6758L84.3223 60.6653L84.3302 60.6055L84.3365 60.5545L84.3478 60.454L84.3522 60.4136L84.3533 60.4026C84.3557 60.3809 84.3579 60.3591 84.3599 60.3374V60.3356C84.3615 60.3184 84.3633 60.301 84.3648 60.2836C84.3737 60.1851 84.3812 60.0861 84.3872 59.9868C84.3883 59.9705 84.3892 59.9541 84.3902 59.9378V59.937L84.3934 59.8756L84.3942 59.8619C84.3962 59.8204 84.3979 59.7789 84.3993 59.7374V59.7359L84.3999 59.7196C84.4005 59.706 84.401 59.6923 84.401 59.6785L84.4013 59.673C84.4018 59.6601 84.4023 59.6469 84.4023 59.6338L84.4027 59.6225C84.403 59.6094 84.4034 59.5964 84.4034 59.5833L84.4037 59.5721C84.404 59.5555 84.4044 59.5388 84.4044 59.5221V59.461ZM72.5829 68.9243C73.3332 67.8241 73.2799 66.9984 72.2507 65.9696C71.2212 64.9408 70.622 63.4363 70.622 63.4363C70.622 63.4363 70.3984 62.5624 69.8884 62.6426C69.3784 62.7229 69.0043 64.0288 70.0722 64.8281C71.1399 65.6275 69.8597 66.1695 69.4487 65.4194C69.0377 64.6691 67.9155 62.7408 67.3338 62.3719C66.752 62.003 66.3429 62.2098 66.48 62.97C66.5482 63.3474 67.1817 63.9915 67.7735 64.5933C68.374 65.2038 68.9317 65.7708 68.8124 65.9714C68.5758 66.3698 67.7424 65.5033 67.7424 65.5033C67.7424 65.5033 65.1329 63.1285 64.5649 63.7474C64.0412 64.3178 64.8488 64.8026 66.0933 65.55C66.199 65.6135 66.308 65.679 66.4197 65.7465C67.8435 66.6085 67.9543 66.8359 67.7522 67.162C67.6775 67.2825 67.2009 66.9964 66.6147 66.6445C65.6153 66.0444 64.2975 65.2533 64.1114 65.9614C63.9504 66.5743 64.9199 66.9498 65.7992 67.2904C66.5317 67.5741 67.2017 67.8336 67.103 68.1859C67.0009 68.5511 66.4473 68.2465 65.8422 67.9135C65.1628 67.5396 64.4184 67.1301 64.1748 67.5923C63.7144 68.466 67.351 69.4946 67.381 69.5023C68.556 69.807 71.54 70.4528 72.5829 68.9243ZM77.416 68.9243C76.6658 67.8241 76.719 66.9984 77.7484 65.9696C78.7778 64.9408 79.3769 63.4363 79.3769 63.4363C79.3769 63.4363 79.6005 62.5624 80.1105 62.6426C80.6205 62.7229 80.9947 64.0288 79.9269 64.8281C78.859 65.6275 80.1393 66.1695 80.5503 65.4194C80.9614 64.6691 82.0828 62.7408 82.6645 62.3719C83.2463 62.003 83.6557 62.2098 83.5184 62.97C83.4504 63.3474 82.8168 63.9915 82.2249 64.5934C81.6244 65.2039 81.0668 65.7708 81.1859 65.9714C81.4225 66.3698 82.2565 65.5028 82.2565 65.5028C82.2565 65.5028 84.8659 63.1281 85.4342 63.747C85.9578 64.3173 85.1502 64.8023 83.9055 65.5496C83.7967 65.615 83.6879 65.6805 83.5793 65.7461C82.1554 66.6081 82.0447 66.8355 82.2467 67.1615C82.3214 67.2821 82.798 66.9959 83.3842 66.644C84.3837 66.044 85.7014 65.2528 85.8875 65.961C86.0487 66.5739 85.079 66.9494 84.1998 67.29C83.4673 67.5738 82.7973 67.8333 82.8958 68.1855C82.9978 68.5506 83.5513 68.246 84.1563 67.913C84.8357 67.5391 85.5802 67.1294 85.8237 67.5919C86.2842 68.4661 82.6469 69.4938 82.6175 69.5013C81.4425 69.807 78.4585 70.4528 77.416 68.9243Z" fill="#FFD21E"/>
<path fill-rule="evenodd" clip-rule="evenodd" d="M78.0029 56.8201C78.1507 56.8723 78.2606 57.0313 78.3651 57.1827C78.5063 57.3872 78.6378 57.5776 78.8396 57.4703C79.0776 57.3437 79.2727 57.1495 79.4002 56.912C79.5278 56.6745 79.5822 56.4045 79.5564 56.1362C79.5372 55.9356 79.4737 55.7417 79.3704 55.5686C79.2672 55.3954 79.1268 55.2473 78.9596 55.135C78.7922 55.0226 78.6019 54.9488 78.4027 54.9188C78.2033 54.8888 77.9998 54.9034 77.8068 54.9616C77.6138 55.0197 77.4362 55.1199 77.2866 55.2549C77.1369 55.3899 77.0191 55.5564 76.9416 55.7425C76.8641 55.9285 76.8287 56.1294 76.8381 56.3307C76.8476 56.5321 76.9014 56.7287 76.9961 56.9067C77.0896 57.0826 77.2971 56.9996 77.5161 56.912C77.6877 56.8433 77.8666 56.7718 78.0029 56.8201ZM71.5811 56.8201C71.4333 56.8723 71.3234 57.0315 71.2189 57.1827C71.0777 57.3873 70.9461 57.5776 70.7444 57.4703C70.4451 57.3118 70.2156 57.0475 70.1005 56.729C69.9855 56.4104 69.9932 56.0604 70.1222 55.7472C70.2511 55.434 70.4921 55.1801 70.7981 55.0349C71.1041 54.8897 71.4532 54.8637 71.7773 54.9618C72.0354 55.0396 72.2647 55.192 72.4362 55.4C72.6077 55.608 72.7136 55.8621 72.7407 56.1303C72.7677 56.3985 72.7146 56.6687 72.5881 56.9067C72.4944 57.0826 72.2869 56.9996 72.0679 56.9121C71.8962 56.8433 71.7176 56.7718 71.5811 56.8201ZM77.0094 62.664C78.0273 61.8621 78.4012 60.5528 78.4012 59.7463C78.4012 59.1088 77.9723 59.3095 77.2857 59.6495L77.2469 59.6686C76.6167 59.9807 75.7777 60.3963 74.8567 60.3963C73.9356 60.3963 73.0966 59.9807 72.4664 59.6685C71.7576 59.3173 71.3129 59.0971 71.3129 59.7465C71.3129 60.5785 71.7107 61.9446 72.8024 62.7382C72.9466 62.4458 73.1494 62.1863 73.3984 61.9758C73.6473 61.7653 73.9371 61.6085 74.2493 61.515C74.3583 61.4825 74.4706 61.6701 74.5854 61.8622C74.6963 62.0475 74.8097 62.237 74.9249 62.237C75.0478 62.237 75.1684 62.0502 75.2863 61.868C75.4094 61.6773 75.5296 61.4917 75.6457 61.5288C76.2301 61.7165 76.7189 62.1233 77.0094 62.664Z" fill="#32343D"/>
<path d="M77.0153 62.6644C76.4852 63.0822 75.7806 63.3623 74.863 63.3623C74.0008 63.3623 73.3266 63.115 72.8086 62.7387C72.9527 62.4463 73.1556 62.1867 73.4046 61.9763C73.6535 61.7658 73.9432 61.6089 74.2555 61.5154C74.4695 61.4515 74.6963 62.2374 74.9311 62.2374C75.1823 62.2374 75.4245 61.4567 75.6518 61.5293C76.2361 61.717 76.7248 62.1239 77.0153 62.6644Z" fill="#FF323D"/>
<path fill-rule="evenodd" clip-rule="evenodd" d="M69.1478 57.9549C69.0267 58.0359 68.8875 58.0858 68.7425 58.1C68.5974 58.1144 68.4511 58.0926 68.3166 58.0368C68.209 57.9924 68.1112 57.9271 68.0289 57.8448C67.9466 57.7625 67.8814 57.6648 67.8369 57.5571C67.7812 57.4225 67.7595 57.2763 67.7738 57.1313C67.7882 56.9863 67.838 56.847 67.9191 56.7259C68.0164 56.5801 68.1548 56.4666 68.3167 56.3995C68.4786 56.3324 68.6568 56.3149 68.8287 56.3491C69.0006 56.3833 69.1585 56.4677 69.2824 56.5916C69.4062 56.7156 69.4906 56.8736 69.5247 57.0455C69.5588 57.2174 69.5413 57.3955 69.4742 57.5574C69.4072 57.7193 69.2935 57.8575 69.1478 57.9549ZM81.8244 57.9549C81.7033 58.0359 81.5641 58.0858 81.4191 58.1C81.2739 58.1144 81.1277 58.0926 80.9931 58.0368C80.8854 57.9923 80.7877 57.9271 80.7054 57.8448C80.6232 57.7625 80.5579 57.6648 80.5134 57.5571C80.4578 57.4225 80.4362 57.2763 80.4504 57.1313C80.4648 56.9863 80.5147 56.847 80.5956 56.7259C80.6683 56.6169 80.7644 56.5255 80.8768 56.4581C80.9892 56.3908 81.1151 56.3492 81.2454 56.3364C81.3759 56.3235 81.5076 56.3398 81.6308 56.384C81.7542 56.4282 81.8662 56.4992 81.9588 56.5919C82.0828 56.7158 82.1672 56.8736 82.2013 57.0455C82.2356 57.2174 82.2179 57.3955 82.1508 57.5574C82.0837 57.7193 81.9702 57.8575 81.8244 57.9549Z" fill="#FFAD03"/>
<rect x="115" y="32" width="56" height="56" rx="8" fill="white"/>
<path d="M139.089 53.5895C138.787 53.5915 138.481 53.5821 138.172 53.5615C138.09 53.5555 137.98 53.5825 137.877 53.5295C137.869 53.5255 137.86 53.5231 137.85 53.5225L136.261 53.4735C136.238 53.4728 136.219 53.4641 136.203 53.4475C136.186 53.4288 136.16 53.4181 136.126 53.4155C135.902 53.3955 135.736 53.3845 135.629 53.3825C135.611 53.3825 135.601 53.3735 135.598 53.3555C135.596 53.3401 135.589 53.3288 135.579 53.3215C135.566 53.3121 135.553 53.3121 135.539 53.3215C135.521 53.3341 135.501 53.3395 135.48 53.3375" stroke="#F9D6DB" stroke-width="0.2"/>
<path d="M139.158 54.2632C138.587 54.2825 138.026 54.2802 137.476 54.2562C136.928 54.2332 136.373 54.2062 135.826 54.1572C135.729 54.1492 135.613 54.1832 135.498 54.1212C135.466 54.1039 135.435 54.1039 135.403 54.1212C135.379 54.1339 135.352 54.1385 135.323 54.1352C135.284 54.1319 135.265 54.1105 135.266 54.0712L135.269 53.9502" stroke="#FBC6E0" stroke-width="0.2"/>
<path d="M139.244 55.1058C139.207 55.0878 139.174 55.0828 139.145 55.0908C139.125 55.0961 139.114 55.0884 139.113 55.0678C139.11 55.0311 139.093 55.0124 139.062 55.0118C138.816 55.0104 138.678 55.0098 138.648 55.0098C138.486 55.0104 138.311 55.0107 138.124 55.0108H135.274C135.264 55.0108 135.254 55.0148 135.247 55.0219C135.24 55.029 135.236 55.0387 135.236 55.0488V55.0978C135.236 55.1033 135.234 55.1087 135.232 55.1137C135.229 55.1186 135.225 55.1228 135.221 55.1261C135.217 55.1294 135.211 55.1316 135.206 55.1326C135.201 55.1336 135.195 55.1333 135.19 55.1318C135.172 55.1264 135.155 55.1078 135.141 55.0758" stroke="#FEB2E6" stroke-width="0.2"/>
<path d="M142.757 56.8623L142.48 58.1993C142.475 58.2229 142.464 58.2446 142.447 58.2623C142.367 58.3476 142.328 58.4483 142.33 58.5643C142.331 58.603 142.318 58.6366 142.291 58.6653C142.149 58.8183 142.174 58.9843 142.052 59.1403C142.034 59.1643 142.019 59.191 142.009 59.2203C141.932 59.457 141.819 59.674 141.67 59.8713C141.649 59.9 141.636 59.932 141.63 59.9673C141.582 60.296 141.528 60.5723 141.467 60.7963C141.461 60.8176 141.447 60.834 141.423 60.8453C141.399 60.8566 141.38 60.8746 141.366 60.8993L141.143 61.3103C141.128 61.339 141.104 61.3566 141.072 61.3633C141.022 61.3733 140.992 61.402 140.983 61.4493C140.977 61.4846 140.96 61.5126 140.93 61.5333C140.851 61.5893 140.8 61.6666 140.776 61.7653C140.773 61.778 140.765 61.7843 140.751 61.7843C140.743 61.7843 140.734 61.7843 140.724 61.7843C140.703 61.785 140.684 61.7926 140.668 61.8073C140.432 62.0213 140.108 62.2293 139.939 62.5013C139.776 62.7643 139.602 62.9523 139.418 63.1753C139.405 63.192 139.388 63.203 139.367 63.2083C139.353 63.2123 139.342 63.2213 139.332 63.2353C139.225 63.3926 139.1 63.5356 138.958 63.6643C138.839 63.7723 138.772 63.9223 138.636 64.0313C138.628 64.038 138.605 64.062 138.569 64.1033C138.525 64.154 138.457 64.16 138.363 64.1213" stroke="#CAA7ED" stroke-width="0.2"/>
<path d="M144.519 56.9521C144.56 57.2295 144.515 57.4821 144.382 57.7101C144.332 57.7961 144.345 57.8591 144.29 57.9361C144.277 57.9535 144.263 57.9821 144.246 58.0221C144.233 58.0561 144.228 58.0915 144.233 58.1281C144.237 58.1641 144.227 58.1958 144.204 58.2231C144.043 58.4071 143.957 58.6208 143.946 58.8641C143.945 58.8828 143.936 58.8945 143.918 58.8991L143.888 58.9071C143.867 58.9125 143.851 58.9248 143.841 58.9441C143.744 59.1261 143.671 59.2921 143.53 59.4581C143.429 59.5768 143.342 59.7045 143.267 59.8411C143.202 59.9611 143.119 60.0851 143.02 60.2131C142.93 60.3291 142.855 60.4551 142.795 60.5911C142.786 60.6105 142.773 60.6261 142.756 60.6381L142.717 60.6631C142.698 60.6758 142.685 60.6935 142.679 60.7161C142.648 60.8441 142.553 60.9071 142.495 61.0061C142.392 61.1781 142.283 61.2991 142.127 61.5061C142.036 61.6268 141.909 61.7408 141.746 61.8481C141.513 62.0028 141.336 62.2388 141.216 62.5561C141.1 62.8621 140.856 63.0961 140.709 63.3791C140.625 63.5421 140.472 63.6241 140.37 63.8051C140.31 63.9121 140.082 64.1051 140.068 64.1731C140.063 64.1978 140.051 64.2191 140.033 64.2371C139.624 64.6365 139.367 64.8988 139.261 65.0241C138.97 65.3688 138.674 65.6365 138.375 65.8271" stroke="#7CB9F2" stroke-width="0.2"/>
<path d="M148.972 58.2002C148.94 58.3122 148.965 58.4245 149.047 58.5372C149.135 58.6592 149.191 58.7515 149.216 58.8142C149.307 59.0442 149.411 59.2685 149.529 59.4872C149.693 59.7932 149.91 60.4385 150.182 61.4232C150.242 61.6419 150.268 61.8775 150.262 62.1302C150.257 62.3202 150.33 62.5182 150.31 62.6982C150.269 63.0682 150.28 63.4362 150.186 63.7902C150.113 64.0622 150.038 64.3339 149.962 64.6052C149.928 64.7272 149.839 64.8322 149.81 64.9752C149.804 65.0045 149.79 65.0295 149.769 65.0502C149.741 65.0769 149.724 65.1012 149.72 65.1232C149.675 65.3479 149.576 65.5435 149.424 65.7102C149.401 65.7349 149.385 65.7635 149.377 65.7962C149.341 65.9402 149.265 66.0519 149.148 66.1312C149.117 66.1519 149.094 66.1785 149.078 66.2112L148.944 66.4852C148.929 66.5145 148.909 66.5392 148.883 66.5592C148.815 66.6122 148.797 66.7082 148.762 66.7572C148.478 67.1525 148.172 67.5445 147.844 67.9332" stroke="#6CC4F4" stroke-width="0.2"/>
<path d="M147.472 67.0079C147.592 66.8099 147.715 66.6259 147.842 66.4559C147.945 66.3179 147.981 66.1759 148.099 66.0509C148.253 65.8869 148.275 65.7289 148.378 65.5719C148.5 65.3869 148.586 65.1929 148.692 64.9979C148.71 64.9645 148.717 64.9292 148.711 64.8919C148.707 64.8525 148.719 64.8219 148.747 64.7999C148.772 64.7812 148.79 64.7572 148.8 64.7279L148.953 64.2479C148.963 64.2192 148.965 64.1899 148.961 64.1599C148.957 64.1285 148.964 64.1019 148.982 64.0799C149 64.0539 149.01 64.0249 149.011 63.9929C149.013 63.7979 149.113 63.6579 149.113 63.4759C149.113 63.1332 149.113 62.7905 149.113 62.4479C149.112 62.2465 148.999 61.8015 148.772 61.1129C148.724 60.9649 148.644 60.8179 148.575 60.6769C148.504 60.5319 148.489 60.3159 148.321 60.1659C148.295 60.1425 148.284 60.1139 148.289 60.0799C148.293 60.0452 148.281 60.0185 148.255 59.9999C148.232 59.9845 148.215 59.9639 148.205 59.9379C148.153 59.8125 148.095 59.6909 148.031 59.5729C147.965 59.4522 147.909 59.3405 147.861 59.2379C147.681 58.8572 147.449 58.5109 147.163 58.1989C147.143 58.1769 147.143 58.1552 147.164 58.1339L147.189 58.1089C147.195 58.1028 147.2 58.0956 147.203 58.0877C147.206 58.0798 147.208 58.0713 147.208 58.0627C147.208 58.0542 147.206 58.0457 147.202 58.0378C147.199 58.03 147.194 58.0228 147.188 58.0169C147.094 57.9275 146.982 57.8739 146.853 57.8559C146.837 57.8532 146.824 57.8445 146.816 57.8299C146.807 57.8139 146.796 57.8019 146.782 57.7939C146.766 57.7845 146.745 57.7849 146.719 57.7949C146.499 57.8755 146.351 57.9679 146.274 58.0719C146.146 58.2452 146.006 58.4095 145.855 58.5649C145.474 58.9569 145.099 59.3529 144.772 59.7929C144.69 59.9022 144.591 59.9949 144.475 60.0709C144.449 60.0889 144.428 60.1122 144.414 60.1409C144.328 60.3229 144.133 60.3499 144.024 60.4479C143.903 60.5565 143.79 60.6722 143.686 60.7949C143.681 60.8015 143.63 60.8482 143.533 60.9349C143.48 60.9822 143.446 61.0425 143.43 61.1159C143.422 61.1499 143.408 61.1809 143.388 61.2089L143.224 61.4249C143.218 61.4329 143.21 61.4372 143.2 61.4379C143.191 61.4379 143.182 61.4382 143.174 61.4389C143.162 61.4395 143.151 61.4427 143.142 61.4482C143.132 61.4538 143.124 61.4615 143.117 61.4709C143.025 61.6062 142.911 61.7155 142.774 61.7989C142.739 61.8195 142.718 61.8495 142.71 61.8889C142.699 61.9382 142.678 61.9799 142.648 62.0139C142.626 62.0385 142.618 62.0669 142.626 62.0989C142.644 62.1739 142.638 62.2049 142.594 62.2739C142.524 62.3805 142.472 62.4942 142.438 62.6149C142.428 62.6475 142.409 62.6735 142.381 62.6929C142.287 62.7549 142.307 62.8709 142.267 62.9449C142.204 63.0589 142.111 63.1419 142.065 63.2609C141.982 63.4755 141.894 63.6329 141.801 63.7329C141.677 63.8649 141.591 63.9835 141.541 64.0889C141.479 64.2179 141.35 64.4299 141.254 64.5269C141.106 64.6735 140.978 64.8375 140.87 65.0189C140.851 65.0502 140.826 65.0749 140.794 65.0929C140.704 65.1455 140.659 65.2219 140.657 65.3219C140.656 65.3579 140.643 65.3889 140.619 65.4149C140.062 66.0142 139.47 66.5759 138.843 67.0999C138.819 67.1194 138.802 67.1459 138.794 67.1759C138.78 67.2325 138.743 67.2612 138.683 67.2619C138.655 67.2625 138.631 67.2719 138.611 67.2899C138.59 67.3085 138.574 67.3292 138.562 67.3519" stroke="#55D5F7" stroke-width="0.2"/>
<path d="M150.957 58.0459C150.986 58.1472 151.011 58.2412 151.032 58.3279C151.055 58.4212 151.095 58.5089 151.152 58.5909C151.31 58.8149 151.429 59.0429 151.509 59.2749C151.647 59.6742 151.788 60.1509 151.932 60.7049C151.948 60.7649 151.952 60.8439 151.944 60.9419C151.934 61.0666 151.965 61.1449 152.038 61.1769" stroke="#8CAEF0" stroke-width="0.2"/>
<path d="M151.236 64.2598C151.194 64.4684 151.146 64.6691 151.091 64.8618C151.012 65.1368 150.846 65.3948 150.728 65.6718C150.688 65.7658 150.606 65.7998 150.56 65.9058C150.463 66.1278 150.314 66.3591 150.114 66.5998C149.92 66.8318 149.72 67.1528 149.512 67.5628" stroke="#8CAEF0" stroke-width="0.2"/>
<path d="M149.053 67.7412C148.764 68.1539 148.481 68.5562 148.202 68.9482C148.153 69.0172 148.148 69.1082 148.112 69.1622C147.921 69.4495 147.733 69.7385 147.546 70.0292C147.498 70.1042 147.389 70.1652 147.385 70.2962C147.384 70.3289 147.377 70.3602 147.364 70.3902L147.047 71.1322" stroke="#8CAEF0" stroke-width="0.2"/>
<path d="M147.859 68.6119C147.998 68.4506 148.179 68.1966 148.402 67.8499C148.541 67.6346 148.742 67.4069 149.006 67.1669C149.03 67.1456 149.04 67.1196 149.036 67.0889C149.03 67.0376 149.048 66.9983 149.09 66.9709C149.11 66.9576 149.123 66.9399 149.131 66.9179C149.158 66.8419 149.232 66.7979 149.269 66.7399C149.348 66.6159 149.396 66.4699 149.471 66.3569C149.82 65.8276 150.114 65.2696 150.354 64.6829C150.643 63.9779 150.803 63.1959 150.738 62.4329C150.722 62.2489 150.769 62.0759 150.739 61.8979C150.725 61.8139 150.714 61.7303 150.705 61.6469C150.659 61.2023 150.541 60.7769 150.352 60.3709C150.338 60.3396 150.332 60.3066 150.336 60.2719C150.34 60.2393 150.336 60.2073 150.323 60.1759L149.478 58.1279" stroke="#7CB9F2" stroke-width="0.2"/>
<path d="M151.387 64.627C151.386 64.959 151.392 65.249 151.345 65.595C151.317 65.798 151.383 66.069 151.266 66.254C151.188 66.3773 151.139 66.4643 151.119 66.515C150.994 66.839 150.683 67.101 150.476 67.375C150.311 67.593 150.147 67.815 149.984 68.041" stroke="#A69CED" stroke-width="0.2"/>
<path d="M139.09 53.5885C138.788 53.5905 138.482 53.5811 138.173 53.5605C138.091 53.5545 137.981 53.5815 137.878 53.5285C137.87 53.5245 137.86 53.5221 137.851 53.5215L136.262 53.4725C136.239 53.4718 136.22 53.4631 136.204 53.4465C136.187 53.4278 136.161 53.4171 136.127 53.4145C135.903 53.3945 135.737 53.3835 135.63 53.3815C135.612 53.3815 135.602 53.3725 135.599 53.3545C135.597 53.3391 135.59 53.3278 135.58 53.3205C135.567 53.3111 135.554 53.3111 135.54 53.3205C135.522 53.3331 135.502 53.3385 135.481 53.3365C135.625 53.1491 135.669 52.9268 135.611 52.6695C135.604 52.6361 135.584 52.6168 135.551 52.6115C135.032 52.5215 134.203 52.2355 133.936 51.7585C133.748 51.4245 133.843 50.8315 134.255 50.6785C134.263 50.6758 134.414 50.6571 134.709 50.6225C134.984 50.5895 135.626 50.4195 135.621 50.0415C135.617 49.5975 135.592 49.1045 135.433 48.6985C135.413 48.6478 135.429 48.6321 135.479 48.6515C135.786 48.7695 136.052 48.9471 136.277 49.1845C136.343 49.2531 136.375 49.2401 136.375 49.1455L136.374 48.6755C136.374 48.6355 136.393 48.6218 136.43 48.6345C138.415 49.3075 138.917 51.8065 139.09 53.5885Z" fill="#F8DFD8"/>
<path d="M139.087 53.5885L139.158 54.2625C138.587 54.2818 138.026 54.2795 137.476 54.2555C136.928 54.2325 136.373 54.2055 135.826 54.1565C135.729 54.1485 135.613 54.1825 135.498 54.1205C135.466 54.1031 135.435 54.1031 135.403 54.1205C135.379 54.1331 135.352 54.1378 135.323 54.1345C135.284 54.1311 135.265 54.1098 135.266 54.0705L135.269 53.9495L135.478 53.3365C135.498 53.3385 135.518 53.3331 135.537 53.3205C135.55 53.3111 135.563 53.3111 135.577 53.3205C135.587 53.3278 135.593 53.3391 135.596 53.3545C135.598 53.3725 135.609 53.3815 135.627 53.3815C135.733 53.3835 135.899 53.3945 136.124 53.4145C136.158 53.4171 136.183 53.4278 136.201 53.4465C136.216 53.4631 136.235 53.4718 136.259 53.4725L137.848 53.5215C137.857 53.5221 137.866 53.5245 137.875 53.5285C137.978 53.5815 138.088 53.5545 138.17 53.5605C138.478 53.5811 138.784 53.5905 139.087 53.5885Z" fill="#FACCDE"/>
<path d="M135.268 53.9502L135.265 54.0712C135.264 54.1105 135.283 54.1319 135.322 54.1352C135.351 54.1385 135.378 54.1339 135.402 54.1212C135.434 54.1039 135.465 54.1039 135.497 54.1212C135.612 54.1832 135.728 54.1492 135.825 54.1572C136.372 54.2062 136.927 54.2332 137.475 54.2562C138.025 54.2802 138.586 54.2825 139.157 54.2632L139.244 55.1052C139.207 55.0872 139.174 55.0822 139.145 55.0902C139.125 55.0955 139.114 55.0879 139.113 55.0672C139.11 55.0305 139.093 55.0119 139.062 55.0112C138.816 55.0099 138.678 55.0092 138.648 55.0092C138.486 55.0098 138.311 55.0102 138.124 55.0102H135.274C135.264 55.0102 135.254 55.0142 135.247 55.0213C135.24 55.0285 135.236 55.0381 135.236 55.0482V55.0972C135.236 55.1027 135.234 55.1082 135.232 55.1131C135.229 55.118 135.225 55.1223 135.221 55.1256C135.217 55.1289 135.211 55.1311 135.206 55.132C135.201 55.133 135.195 55.1327 135.19 55.1312C135.172 55.1259 135.155 55.1072 135.141 55.0752L135.268 53.9502Z" fill="#FCBFE2"/>
<path d="M139.245 55.1048L139.397 56.7828C139.402 56.8348 139.43 56.8608 139.481 56.8608L142.761 56.8618L142.484 58.1988C142.479 58.2223 142.468 58.2441 142.451 58.2618C142.371 58.3471 142.332 58.4478 142.334 58.5638C142.335 58.6025 142.322 58.6361 142.295 58.6648C142.153 58.8178 142.178 58.9838 142.056 59.1398C142.038 59.1638 142.023 59.1905 142.013 59.2198C141.936 59.4565 141.823 59.6735 141.674 59.8708C141.653 59.8995 141.64 59.9315 141.634 59.9668C141.586 60.2955 141.532 60.5718 141.471 60.7958C141.465 60.8171 141.451 60.8335 141.427 60.8448C141.403 60.8561 141.384 60.8741 141.37 60.8988L141.147 61.3098C141.132 61.3385 141.108 61.3561 141.076 61.3628C141.026 61.3728 140.996 61.4015 140.987 61.4488C140.981 61.4841 140.964 61.5121 140.934 61.5328C140.855 61.5888 140.804 61.6661 140.78 61.7648C140.777 61.7775 140.769 61.7838 140.755 61.7838C140.747 61.7838 140.738 61.7838 140.728 61.7838C140.707 61.7845 140.688 61.7921 140.672 61.8068C140.436 62.0208 140.112 62.2288 139.943 62.5008C139.78 62.7638 139.606 62.9518 139.422 63.1748C139.409 63.1915 139.392 63.2025 139.371 63.2078C139.357 63.2118 139.346 63.2208 139.336 63.2348C139.229 63.3921 139.104 63.5351 138.962 63.6638C138.843 63.7718 138.776 63.9218 138.64 64.0308C138.632 64.0375 138.609 64.0615 138.573 64.1028C138.529 64.1535 138.461 64.1595 138.367 64.1208C137.339 63.5818 136.278 62.6508 135.959 61.4828C135.819 60.9708 135.88 60.2848 135.872 59.6958C135.872 59.6625 135.862 59.6315 135.843 59.6028C135.297 58.7728 135.368 57.8128 135.372 56.9018C135.373 56.7485 135.345 56.5841 135.289 56.4088C135.151 55.9795 135.102 55.5348 135.142 55.0748C135.157 55.1068 135.173 55.1255 135.191 55.1308C135.197 55.1323 135.202 55.1326 135.208 55.1316C135.213 55.1307 135.218 55.1284 135.223 55.1252C135.227 55.1219 135.231 55.1176 135.233 55.1127C135.236 55.1078 135.237 55.1023 135.237 55.0968V55.0478C135.237 55.0377 135.241 55.028 135.249 55.0209C135.256 55.0138 135.265 55.0098 135.275 55.0098H138.125C138.313 55.0098 138.488 55.0094 138.649 55.0088C138.679 55.0088 138.817 55.0095 139.063 55.0108C139.095 55.0115 139.112 55.0301 139.114 55.0668C139.116 55.0875 139.126 55.0951 139.146 55.0898C139.176 55.0818 139.209 55.0868 139.245 55.1048Z" fill="#FFA5EA"/>
<path d="M142.757 56.8623C143.344 56.835 143.931 56.865 144.517 56.9523C144.559 57.2296 144.513 57.4823 144.38 57.7103C144.33 57.7963 144.343 57.8593 144.288 57.9363C144.276 57.9536 144.261 57.9823 144.244 58.0223C144.231 58.0563 144.227 58.0916 144.231 58.1283C144.235 58.1643 144.226 58.196 144.202 58.2233C144.041 58.4073 143.955 58.621 143.944 58.8643C143.944 58.883 143.934 58.8946 143.916 58.8993L143.886 58.9073C143.865 58.9126 143.849 58.925 143.839 58.9443C143.742 59.1263 143.669 59.2923 143.528 59.4583C143.428 59.577 143.34 59.7046 143.265 59.8413C143.2 59.9613 143.118 60.0853 143.018 60.2133C142.928 60.3293 142.853 60.4553 142.793 60.5913C142.785 60.6106 142.772 60.6263 142.754 60.6383L142.715 60.6633C142.696 60.676 142.683 60.6936 142.677 60.7163C142.646 60.8443 142.551 60.9073 142.493 61.0063C142.39 61.1783 142.281 61.2993 142.125 61.5063C142.034 61.627 141.907 61.741 141.744 61.8483C141.511 62.003 141.334 62.239 141.214 62.5563C141.098 62.8623 140.854 63.0963 140.707 63.3793C140.623 63.5423 140.47 63.6243 140.368 63.8053C140.308 63.9123 140.08 64.1053 140.066 64.1733C140.061 64.198 140.049 64.2193 140.031 64.2373C139.623 64.6366 139.365 64.899 139.259 65.0243C138.968 65.369 138.673 65.6366 138.373 65.8273L138.363 64.1213C138.457 64.16 138.525 64.154 138.569 64.1033C138.605 64.062 138.628 64.038 138.636 64.0313C138.772 63.9223 138.839 63.7723 138.958 63.6643C139.1 63.5356 139.225 63.3926 139.332 63.2353C139.342 63.2213 139.353 63.2123 139.367 63.2083C139.388 63.203 139.405 63.192 139.418 63.1753C139.602 62.9523 139.776 62.7643 139.939 62.5013C140.108 62.2293 140.432 62.0213 140.668 61.8073C140.684 61.7926 140.703 61.785 140.724 61.7843C140.734 61.7843 140.743 61.7843 140.751 61.7843C140.765 61.7843 140.773 61.778 140.776 61.7653C140.8 61.6666 140.851 61.5893 140.93 61.5333C140.96 61.5126 140.977 61.4846 140.983 61.4493C140.992 61.402 141.022 61.3733 141.072 61.3633C141.104 61.3566 141.128 61.339 141.143 61.3103L141.366 60.8993C141.38 60.8746 141.399 60.8566 141.423 60.8453C141.447 60.834 141.461 60.8176 141.467 60.7963C141.528 60.5723 141.582 60.296 141.63 59.9673C141.636 59.932 141.649 59.9 141.67 59.8713C141.819 59.674 141.932 59.457 142.009 59.2203C142.019 59.191 142.034 59.1643 142.052 59.1403C142.174 58.9843 142.149 58.8183 142.291 58.6653C142.318 58.6366 142.331 58.603 142.33 58.5643C142.328 58.4483 142.367 58.3476 142.447 58.2623C142.464 58.2446 142.475 58.2229 142.48 58.1993L142.757 56.8623Z" fill="#94A8EF"/>
<path d="M144.519 56.9521C145.35 57.0148 146.152 57.1761 146.924 57.4361C147.648 57.6811 148.176 58.1481 148.975 58.2001C148.944 58.3121 148.969 58.4245 149.05 58.5371C149.138 58.6591 149.194 58.7515 149.219 58.8141C149.31 59.0441 149.415 59.2685 149.532 59.4871C149.696 59.7931 149.914 60.4385 150.185 61.4231C150.245 61.6418 150.272 61.8775 150.265 62.1301C150.26 62.3201 150.333 62.5181 150.313 62.6981C150.272 63.0681 150.283 63.4361 150.189 63.7901C150.116 64.0621 150.042 64.3338 149.965 64.6051C149.931 64.7271 149.842 64.8321 149.813 64.9751C149.807 65.0045 149.793 65.0295 149.772 65.0501C149.744 65.0768 149.728 65.1011 149.723 65.1231C149.678 65.3478 149.58 65.5435 149.427 65.7101C149.404 65.7348 149.389 65.7635 149.38 65.7961C149.345 65.9401 149.268 66.0518 149.151 66.1311C149.12 66.1518 149.097 66.1785 149.081 66.2111L148.947 66.4851C148.932 66.5145 148.912 66.5391 148.886 66.5591C148.818 66.6121 148.8 66.7081 148.765 66.7571C148.481 67.1525 148.175 67.5445 147.847 67.9331C147.761 67.5665 147.636 67.2581 147.471 67.0081C147.59 66.8101 147.714 66.6261 147.841 66.4561C147.944 66.3181 147.979 66.1761 148.097 66.0511C148.251 65.8871 148.274 65.7291 148.377 65.5721C148.499 65.3871 148.585 65.1931 148.691 64.9981C148.709 64.9648 148.715 64.9295 148.71 64.8921C148.705 64.8528 148.717 64.8221 148.746 64.8001C148.771 64.7815 148.788 64.7575 148.798 64.7281L148.952 64.2481C148.961 64.2195 148.964 64.1901 148.96 64.1601C148.956 64.1288 148.963 64.1021 148.98 64.0801C148.999 64.0541 149.008 64.0251 149.009 63.9931C149.011 63.7981 149.111 63.6581 149.111 63.4761C149.112 63.1335 149.112 62.7908 149.111 62.4481C149.11 62.2468 148.997 61.8018 148.771 61.1131C148.723 60.9651 148.643 60.8181 148.574 60.6771C148.503 60.5321 148.487 60.3161 148.319 60.1661C148.293 60.1428 148.282 60.1141 148.287 60.0801C148.291 60.0455 148.28 60.0188 148.253 60.0001C148.23 59.9848 148.214 59.9641 148.203 59.9381C148.151 59.8128 148.093 59.6911 148.029 59.5731C147.964 59.4525 147.907 59.3408 147.859 59.2381C147.68 58.8575 147.447 58.5111 147.161 58.1991C147.141 58.1771 147.142 58.1555 147.163 58.1341L147.188 58.1091C147.194 58.1031 147.199 58.0959 147.202 58.088C147.205 58.0801 147.206 58.0716 147.206 58.063C147.206 58.0545 147.204 58.046 147.201 58.0381C147.197 58.0302 147.192 58.0231 147.186 58.0171C147.092 57.9278 146.981 57.8741 146.852 57.8561C146.835 57.8535 146.823 57.8448 146.814 57.8301C146.805 57.8141 146.794 57.8021 146.78 57.7941C146.765 57.7848 146.744 57.7851 146.717 57.7951C146.498 57.8758 146.349 57.9681 146.272 58.0721C146.144 58.2455 146.004 58.4098 145.853 58.5651C145.472 58.9571 145.097 59.3531 144.77 59.7931C144.688 59.9025 144.589 59.9951 144.474 60.0711C144.447 60.0891 144.427 60.1125 144.413 60.1411C144.327 60.3231 144.131 60.3501 144.022 60.4481C143.901 60.5568 143.789 60.6725 143.685 60.7951C143.68 60.8018 143.628 60.8485 143.531 60.9351C143.478 60.9825 143.444 61.0428 143.428 61.1161C143.421 61.1501 143.407 61.1811 143.386 61.2091L143.222 61.4251C143.216 61.4331 143.208 61.4375 143.198 61.4381C143.189 61.4381 143.181 61.4385 143.172 61.4391C143.161 61.4398 143.15 61.443 143.14 61.4485C143.13 61.4541 143.122 61.4618 143.116 61.4711C143.024 61.6065 142.909 61.7158 142.772 61.7991C142.737 61.8198 142.716 61.8498 142.708 61.8891C142.697 61.9385 142.677 61.9801 142.646 62.0141C142.624 62.0388 142.617 62.0671 142.624 62.0991C142.642 62.1741 142.636 62.2051 142.592 62.2741C142.523 62.3808 142.471 62.4945 142.436 62.6151C142.427 62.6478 142.408 62.6738 142.379 62.6931C142.285 62.7551 142.305 62.8711 142.265 62.9451C142.202 63.0591 142.109 63.1421 142.063 63.2611C141.98 63.4758 141.892 63.6331 141.799 63.7331C141.676 63.8651 141.589 63.9838 141.539 64.0891C141.477 64.2181 141.348 64.4301 141.252 64.5271C141.104 64.6738 140.976 64.8378 140.868 65.0191C140.849 65.0505 140.824 65.0751 140.792 65.0931C140.703 65.1458 140.657 65.2221 140.655 65.3221C140.654 65.3581 140.642 65.3891 140.617 65.4151C140.06 66.0145 139.468 66.5761 138.841 67.1001C138.818 67.1196 138.801 67.1462 138.793 67.1761C138.778 67.2328 138.741 67.2615 138.682 67.2621C138.654 67.2628 138.63 67.2721 138.609 67.2901C138.588 67.3088 138.572 67.3295 138.561 67.3521L138.375 65.8271C138.674 65.6365 138.97 65.3688 139.261 65.0241C139.367 64.8988 139.624 64.6365 140.033 64.2371C140.051 64.2191 140.063 64.1978 140.068 64.1731C140.082 64.1051 140.31 63.9121 140.37 63.8051C140.472 63.6241 140.625 63.5421 140.709 63.3791C140.856 63.0961 141.1 62.8621 141.216 62.5561C141.336 62.2388 141.513 62.0028 141.746 61.8481C141.909 61.7408 142.036 61.6268 142.127 61.5061C142.283 61.2991 142.392 61.1781 142.495 61.0061C142.553 60.9071 142.648 60.8441 142.679 60.7161C142.685 60.6935 142.698 60.6758 142.717 60.6631L142.756 60.6381C142.773 60.6261 142.786 60.6105 142.795 60.5911C142.855 60.4551 142.93 60.3291 143.02 60.2131C143.119 60.0851 143.202 59.9611 143.267 59.8411C143.342 59.7045 143.429 59.5768 143.53 59.4581C143.671 59.2921 143.744 59.1261 143.841 58.9441C143.851 58.9248 143.867 58.9125 143.888 58.9071L143.918 58.8991C143.936 58.8945 143.945 58.8828 143.946 58.8641C143.957 58.6208 144.043 58.4071 144.204 58.2231C144.227 58.1958 144.237 58.1641 144.233 58.1281C144.228 58.0915 144.233 58.0561 144.246 58.0221C144.263 57.9821 144.277 57.9535 144.29 57.9361C144.345 57.8591 144.332 57.7961 144.382 57.7101C144.515 57.4821 144.56 57.2295 144.519 56.9521Z" fill="#64CAF5"/>
<path d="M147.474 67.0088C147.226 66.6928 146.852 66.3548 146.712 66.0418C146.549 65.6798 146.592 65.3378 146.604 64.9528C146.605 64.9148 146.588 64.9022 146.552 64.9148C145.015 65.4468 143.281 65.5758 141.7 65.1598C141.665 65.1505 141.648 65.1642 141.647 65.2008C141.64 66.0708 141.572 66.8782 141.445 67.6228C141.404 67.8615 141.315 68.1035 141.177 68.3488C141.161 68.377 141.153 68.4087 141.153 68.4408C141.152 68.9942 141.146 69.5465 141.135 70.0978C141.13 70.3538 140.939 71.3618 140.564 71.3728C140.202 71.3835 139.827 71.3875 139.44 71.3848C139.431 71.3847 139.423 71.3826 139.416 71.3786C139.408 71.3746 139.402 71.3689 139.397 71.362C139.392 71.355 139.389 71.347 139.388 71.3387C139.387 71.3303 139.388 71.3218 139.391 71.3138C139.534 70.9372 139.763 70.6245 140.078 70.3758C140.105 70.3545 140.119 70.3272 140.12 70.2938C140.138 69.6338 140.218 68.5458 139.93 67.9488C139.927 67.9431 139.923 67.9384 139.917 67.9354C139.911 67.9323 139.905 67.9311 139.898 67.9319C139.892 67.9326 139.886 67.9354 139.881 67.9396C139.877 67.9439 139.873 67.9496 139.872 67.9558C139.624 69.0268 139.275 70.1598 138.668 71.0928C138.659 71.1063 138.648 71.1174 138.634 71.1251C138.62 71.1328 138.604 71.1368 138.588 71.1368H137.678C137.645 71.1368 137.628 71.1202 137.629 71.0868C137.634 70.7758 137.747 70.4338 138.087 70.3558C138.119 70.3485 138.142 70.3302 138.157 70.3008C138.63 69.3148 138.678 68.5998 138.564 67.3528C138.575 67.3302 138.591 67.3095 138.612 67.2908C138.633 67.2728 138.657 67.2635 138.685 67.2628C138.744 67.2622 138.781 67.2335 138.796 67.1768C138.804 67.1469 138.821 67.1203 138.844 67.1008C139.471 66.5768 140.063 66.0152 140.62 65.4158C140.645 65.3898 140.657 65.3588 140.658 65.3228C140.66 65.2228 140.706 65.1465 140.795 65.0938C140.827 65.0758 140.852 65.0512 140.871 65.0198C140.979 64.8385 141.107 64.6745 141.255 64.5278C141.351 64.4308 141.48 64.2188 141.542 64.0898C141.592 63.9845 141.679 63.8658 141.802 63.7338C141.895 63.6338 141.983 63.4765 142.066 63.2618C142.112 63.1428 142.205 63.0598 142.268 62.9458C142.308 62.8718 142.288 62.7558 142.382 62.6938C142.411 62.6745 142.43 62.6485 142.439 62.6158C142.474 62.4952 142.526 62.3815 142.595 62.2748C142.639 62.2058 142.645 62.1748 142.627 62.0998C142.62 62.0678 142.627 62.0395 142.649 62.0148C142.68 61.9808 142.7 61.9392 142.711 61.8898C142.719 61.8505 142.74 61.8205 142.775 61.7998C142.912 61.7165 143.027 61.6072 143.119 61.4718C143.125 61.4625 143.133 61.4548 143.143 61.4492C143.153 61.4437 143.164 61.4405 143.175 61.4398C143.184 61.4392 143.192 61.4388 143.201 61.4388C143.211 61.4382 143.219 61.4338 143.225 61.4258L143.389 61.2098C143.41 61.1818 143.424 61.1508 143.431 61.1168C143.447 61.0435 143.481 60.9832 143.534 60.9358C143.631 60.8492 143.683 60.8025 143.688 60.7958C143.792 60.6732 143.904 60.5575 144.025 60.4488C144.134 60.3508 144.33 60.3238 144.416 60.1418C144.43 60.1132 144.45 60.0898 144.477 60.0718C144.592 59.9958 144.691 59.9032 144.773 59.7938C145.1 59.3538 145.475 58.9578 145.856 58.5658C146.007 58.4105 146.147 58.2462 146.275 58.0728C146.352 57.9688 146.501 57.8765 146.72 57.7958C146.747 57.7858 146.768 57.7855 146.783 57.7948C146.797 57.8028 146.808 57.8148 146.817 57.8308C146.826 57.8455 146.838 57.8542 146.855 57.8568C146.984 57.8748 147.095 57.9285 147.189 58.0178C147.195 58.0238 147.2 58.0309 147.204 58.0388C147.207 58.0467 147.209 58.0552 147.209 58.0637C147.209 58.0723 147.208 58.0808 147.205 58.0887C147.202 58.0966 147.197 58.1038 147.191 58.1098L147.166 58.1348C147.145 58.1562 147.144 58.1778 147.164 58.1998C147.45 58.5118 147.683 58.8582 147.862 59.2388C147.91 59.3415 147.967 59.4532 148.032 59.5738C148.096 59.6918 148.154 59.8135 148.206 59.9388C148.217 59.9648 148.233 59.9855 148.256 60.0008C148.283 60.0195 148.294 60.0462 148.29 60.0808C148.285 60.1148 148.296 60.1435 148.322 60.1668C148.49 60.3168 148.506 60.5328 148.577 60.6778C148.646 60.8188 148.726 60.9658 148.774 61.1138C149 61.8025 149.113 62.2475 149.114 62.4488C149.115 62.7915 149.115 63.1342 149.114 63.4768C149.114 63.6588 149.014 63.7988 149.012 63.9938C149.011 64.0258 149.002 64.0548 148.983 64.0808C148.966 64.1028 148.959 64.1295 148.963 64.1608C148.967 64.1908 148.964 64.2202 148.955 64.2488L148.801 64.7288C148.791 64.7582 148.774 64.7822 148.749 64.8008C148.72 64.8228 148.708 64.8535 148.713 64.8928C148.718 64.9302 148.712 64.9655 148.694 64.9988C148.588 65.1938 148.502 65.3878 148.38 65.5728C148.277 65.7298 148.254 65.8878 148.1 66.0518C147.982 66.1768 147.947 66.3188 147.844 66.4568C147.717 66.6268 147.593 66.8108 147.474 67.0088Z" fill="#45DFF8"/>
<path d="M150.955 58.0469C150.984 58.1482 151.009 58.2422 151.03 58.3289C151.053 58.4222 151.093 58.5099 151.15 58.5919C151.308 58.8159 151.427 59.0439 151.507 59.2759C151.645 59.6752 151.786 60.1519 151.93 60.7059C151.946 60.7659 151.95 60.8449 151.942 60.9429C151.932 61.0675 151.963 61.1459 152.036 61.1779C151.866 61.5459 151.586 61.7819 151.197 61.8859C151.163 61.8945 151.144 61.9162 151.139 61.9509C151.036 62.7369 151.067 63.5065 151.233 64.2599C151.192 64.4685 151.143 64.6692 151.088 64.8619C151.009 65.1369 150.843 65.3949 150.725 65.6719C150.685 65.7659 150.603 65.7999 150.557 65.9059C150.46 66.1279 150.312 66.3592 150.111 66.5999C149.918 66.8319 149.717 67.1529 149.509 67.5629L149.185 67.1099C149.159 67.0732 149.143 67.0772 149.137 67.1219L149.054 67.7419C148.765 68.1545 148.482 68.5569 148.203 68.9489C148.154 69.0179 148.149 69.1089 148.113 69.1629C147.922 69.4502 147.734 69.7392 147.547 70.0299C147.499 70.1049 147.39 70.1659 147.386 70.2969C147.385 70.3295 147.378 70.3609 147.365 70.3909L147.048 71.1329L146.675 71.1289C146.641 71.1289 146.624 71.1115 146.625 71.0769C146.635 70.7899 146.738 70.4359 147.061 70.3679C147.095 70.3605 147.121 70.3425 147.14 70.3139C147.496 69.7852 147.735 69.2182 147.858 68.6129C147.997 68.4515 148.178 68.1975 148.401 67.8509C148.54 67.6355 148.741 67.4079 149.005 67.1679C149.028 67.1465 149.038 67.1205 149.035 67.0899C149.029 67.0385 149.047 66.9992 149.089 66.9719C149.108 66.9585 149.122 66.9409 149.13 66.9189C149.157 66.8429 149.231 66.7989 149.268 66.7409C149.347 66.6169 149.395 66.4709 149.47 66.3579C149.819 65.8285 150.113 65.2705 150.353 64.6839C150.642 63.9789 150.802 63.1969 150.737 62.4339C150.721 62.2499 150.768 62.0769 150.738 61.8989C150.724 61.8149 150.713 61.7312 150.704 61.6479C150.657 61.2032 150.54 60.7779 150.351 60.3719C150.336 60.3405 150.331 60.3075 150.335 60.2729C150.339 60.2402 150.335 60.2082 150.322 60.1769L149.477 58.1289C149.784 58.0149 150.075 57.9459 150.348 57.9219C150.574 57.9019 150.776 57.9435 150.955 58.0469Z" fill="#84B4F1"/>
<path d="M150.957 58.0469C152.063 58.6459 152.354 60.0639 152.038 61.1779C151.965 61.1459 151.934 61.0675 151.944 60.9429C151.952 60.8449 151.948 60.7659 151.932 60.7059C151.788 60.1519 151.647 59.6752 151.509 59.2759C151.429 59.0439 151.31 58.8159 151.152 58.5919C151.095 58.5099 151.055 58.4222 151.032 58.3289C151.011 58.2422 150.986 58.1482 150.957 58.0469Z" fill="#94A8EF"/>
<path d="M149.478 58.1289L150.323 60.1769C150.335 60.2082 150.34 60.2402 150.336 60.2729C150.332 60.3076 150.337 60.3406 150.352 60.3719C150.54 60.7779 150.658 61.2032 150.705 61.6479C150.713 61.7312 150.725 61.8149 150.739 61.8989C150.769 62.0769 150.722 62.2499 150.738 62.4339C150.803 63.1969 150.643 63.9789 150.354 64.6839C150.114 65.2706 149.819 65.8286 149.471 66.3579C149.396 66.4709 149.348 66.6169 149.269 66.7409C149.232 66.7989 149.158 66.8429 149.131 66.9189C149.123 66.9409 149.109 66.9586 149.09 66.9719C149.048 66.9992 149.03 67.0386 149.036 67.0899C149.039 67.1206 149.029 67.1466 149.006 67.1679C148.742 67.4079 148.54 67.6356 148.402 67.8509C148.178 68.1976 147.997 68.4516 147.859 68.6129L147.848 67.9339C148.176 67.5452 148.482 67.1532 148.766 66.7579C148.801 66.7089 148.819 66.6129 148.887 66.5599C148.913 66.5399 148.933 66.5152 148.948 66.4859L149.082 66.2119C149.098 66.1792 149.121 66.1526 149.152 66.1319C149.269 66.0526 149.345 65.9409 149.381 65.7969C149.389 65.7642 149.405 65.7356 149.428 65.7109C149.58 65.5442 149.679 65.3486 149.724 65.1239C149.728 65.1019 149.745 65.0776 149.773 65.0509C149.794 65.0302 149.808 65.0052 149.814 64.9759C149.843 64.8329 149.932 64.7279 149.966 64.6059C150.042 64.3346 150.117 64.0629 150.19 63.7909C150.284 63.4369 150.273 63.0689 150.314 62.6989C150.334 62.5189 150.261 62.3209 150.266 62.1309C150.272 61.8782 150.246 61.6426 150.186 61.4239C149.914 60.4392 149.697 59.7939 149.533 59.4879C149.415 59.2692 149.311 59.0449 149.22 58.8149C149.195 58.7522 149.139 58.6599 149.051 58.5379C148.969 58.4252 148.944 58.3129 148.976 58.2009L149.478 58.1289Z" fill="#74BEF3"/>
<path d="M151.236 64.2588L151.39 64.6268C151.389 64.9588 151.395 65.2488 151.348 65.5948C151.32 65.7978 151.386 66.0688 151.269 66.2538C151.19 66.3771 151.141 66.4641 151.122 66.5148C150.997 66.8388 150.686 67.1008 150.479 67.3748C150.313 67.5928 150.149 67.8148 149.987 68.0408L149.512 67.5618C149.72 67.1518 149.92 66.8308 150.114 66.5988C150.314 66.3581 150.463 66.1268 150.56 65.9048C150.606 65.7988 150.688 65.7648 150.728 65.6708C150.846 65.3938 151.012 65.1358 151.091 64.8608C151.146 64.6681 151.194 64.4675 151.236 64.2588Z" fill="#94A8EF"/>
<path d="M151.387 64.6279C151.39 65.1179 151.393 65.6079 151.398 66.0979C151.399 66.2639 151.432 66.4389 151.496 66.6229C151.763 67.3859 151.846 68.1159 151.425 68.8409C151.408 68.8689 151.402 68.8993 151.405 68.9319C151.495 69.7189 151.516 70.5969 151.172 71.3319C151.164 71.3483 151.152 71.3622 151.137 71.372C151.122 71.3817 151.104 71.3869 151.086 71.3869L149.945 71.3859C149.935 71.3861 149.926 71.3836 149.918 71.3789C149.91 71.3742 149.903 71.3673 149.898 71.359C149.893 71.3507 149.891 71.3412 149.891 71.3315C149.891 71.3219 149.893 71.3123 149.898 71.3039C150.003 71.1173 150.147 70.9669 150.329 70.8529C150.356 70.8356 150.371 70.8113 150.376 70.7799C150.474 70.1049 150.584 69.0759 150.38 68.4229C150.37 68.3909 150.352 68.3639 150.327 68.3419L149.984 68.0419C150.147 67.8159 150.311 67.5939 150.476 67.3759C150.683 67.1019 150.994 66.8399 151.119 66.5159C151.138 66.4653 151.187 66.3783 151.266 66.2549C151.383 66.0699 151.317 65.7989 151.345 65.5959C151.392 65.2499 151.386 64.9599 151.387 64.6279Z" fill="#B890EB"/>
<path d="M149.057 67.7412C148.934 68.5822 148.605 69.4982 147.957 70.0672C147.938 70.0835 147.923 70.1037 147.913 70.1263C147.903 70.1489 147.898 70.1734 147.899 70.1982L147.905 71.0742C147.905 71.1102 147.887 71.1282 147.852 71.1282L147.051 71.1322L147.368 70.3902C147.381 70.3602 147.388 70.3289 147.389 70.2962C147.393 70.1652 147.502 70.1042 147.55 70.0292C147.736 69.7385 147.925 69.4495 148.116 69.1622C148.152 69.1082 148.157 69.0172 148.206 68.9482C148.484 68.5562 148.768 68.1539 149.057 67.7412Z" fill="#94A8EF"/>
<rect x="183" y="32" width="56" height="56" rx="8" fill="white"/>
<path fill-rule="evenodd" clip-rule="evenodd" d="M207.183 51.0111C209.838 48.0281 214.234 47.1532 217.849 48.8749C222.65 51.1624 224.403 56.99 221.788 61.4858L215.907 71.5868C215.578 72.1515 215.037 72.5632 214.403 72.7319C213.769 72.9007 213.093 72.8128 212.524 72.4873L219.644 60.2555C221.541 56.9927 220.272 52.7637 216.791 51.0989C214.178 49.8497 210.985 50.4735 209.055 52.6222C207.991 53.8014 207.393 55.3247 207.373 56.9081C207.353 58.492 207.912 60.0288 208.947 61.2347C209.133 61.4511 209.333 61.6551 209.546 61.8449L205.389 68.9988C205.226 69.2787 205.01 69.5233 204.752 69.7203C204.494 69.9166 204.2 70.0609 203.886 70.1445C203.572 70.228 203.244 70.2491 202.922 70.2074C202.6 70.1651 202.289 70.0604 202.007 69.8993L206.519 62.133C205.871 61.2048 205.406 60.1633 205.148 59.0638L202.383 63.8319C202.054 64.3966 201.513 64.8083 200.879 64.977C200.245 65.1458 199.569 65.0579 199 64.7324L206.151 52.4318C206.449 51.9262 206.794 51.4505 207.183 51.0111ZM215.437 54.9265C217.16 55.9143 217.754 58.1107 216.758 59.8205L209.901 71.5857C209.572 72.1504 209.031 72.5622 208.397 72.7309C207.763 72.8996 207.087 72.8117 206.518 72.4862L212.885 61.5325C212.374 61.4256 211.893 61.2103 211.474 60.9005C211.055 60.5908 210.709 60.1948 210.46 59.7397C210.21 59.284 210.063 58.7806 210.029 58.2631C209.994 57.7456 210.073 57.227 210.26 56.7432C210.447 56.2593 210.738 55.821 211.112 55.4592C211.486 55.0974 211.935 54.8207 212.427 54.6482C212.919 54.4757 213.443 54.4112 213.963 54.4589C214.483 54.5066 214.986 54.6661 215.437 54.9265ZM212.943 57.1375C212.825 57.2276 212.726 57.3393 212.652 57.4673H212.652C212.54 57.6599 212.488 57.8807 212.503 58.1026C212.517 58.3244 212.598 58.5365 212.734 58.7128C212.871 58.8891 213.057 59.0215 213.268 59.0925C213.48 59.1641 213.709 59.1712 213.924 59.1137C214.141 59.0562 214.335 58.9363 214.482 58.7692C214.63 58.6021 214.724 58.3955 214.753 58.1752C214.783 57.955 214.745 57.731 214.646 57.5313C214.548 57.3323 214.391 57.1663 214.197 57.0551C214.069 56.9813 213.927 56.9336 213.779 56.914C213.632 56.8951 213.482 56.9043 213.339 56.9428C213.195 56.9818 213.061 57.0475 212.943 57.1375Z" fill="#505AA5"/>
</g>
<defs>
<linearGradient id="paint0_linear_5657_32293" x1="249.5" y1="138.5" x2="298.756" y2="-3.93777" gradientUnits="userSpaceOnUse">
<stop stop-color="#E2D3FF" stop-opacity="0"/>
<stop offset="1" stop-color="#6B99F5"/>
</linearGradient>
<linearGradient id="paint1_linear_5657_32293" x1="541.829" y1="23.4966" x2="245.073" y2="326.057" gradientUnits="userSpaceOnUse">
<stop stop-color="#2F6FF0"/>
<stop offset="1" stop-color="#89A9FF" stop-opacity="0"/>
</linearGradient>
<clipPath id="clip0_5657_32293">
<rect width="538" height="168" fill="white"/>
</clipPath>
</defs>
</svg>
