<svg width="538" height="168" viewBox="0 0 538 168" fill="none" xmlns="http://www.w3.org/2000/svg">
<g clip-path="url(#clip0_1085_4435)">
<path d="M202.513 146.515L201.587 147.972C198.949 152.124 193.146 152.773 189.642 149.308L182.257 142.006L175.863 136.827C164.402 127.545 147.352 130.885 140.279 143.799C136.141 151.354 128.214 156.048 119.593 156.048L5.09054 156.051C0.140768 156.051 -3.86677 160.059 -3.86677 165.008C-3.86677 169.972 0.161708 174 5.1249 174L541.775 174L541.775 40.7067C541.775 38.5065 538.74 37.9135 537.919 39.9534L531.34 56.3076L530.182 59.0981C526.724 67.4305 516.133 69.9439 509.276 64.0595C503.51 59.1115 494.786 59.9864 490.138 65.9788L472.312 88.96C468.962 93.2787 462.739 94.0535 458.418 90.6896C454.668 87.7699 449.378 87.9213 445.812 91.0503L445.053 91.7168C440.553 95.6654 433.728 95.3327 429.618 90.9646L411.268 71.4611C406.005 65.8675 397.278 65.4019 391.47 70.4049C390.956 70.8473 390.412 71.2527 389.841 71.6179L375.521 80.7731C370.674 83.8717 364.702 84.6679 359.204 82.9485L357.958 82.5588C353.675 81.2194 350.122 78.1902 348.121 74.1727L335.042 47.911C332.226 42.2584 323.847 43.4059 322.677 49.6044L307.337 118.748C306.984 120.339 306.209 121.805 305.093 122.992L304.334 123.801C302.5 125.754 299.736 126.531 297.148 125.823C294.692 125.15 292.766 123.238 292.076 120.786L290.77 116.145C289.497 111.622 286.273 107.899 281.977 105.992L280.122 105.168C278.006 104.228 276.254 102.621 275.135 100.593L266.543 85.0154C265.16 82.5084 261.44 82.9169 260.644 85.6632L245.558 137.709L243.197 144.792C240.056 154.218 227.261 155.519 222.252 146.922C217.889 139.434 207.153 139.213 202.513 146.515Z" fill="url(#paint0_linear_1085_4435)" fill-opacity="0.4"/>
<path d="M-3.86914 156.051L119.59 156.048C128.211 156.048 136.139 151.354 140.277 143.799V143.799C147.35 130.885 164.399 127.545 175.861 136.827L182.255 142.006L189.64 149.308C193.144 152.773 198.946 152.124 201.585 147.972L202.511 146.515C207.151 139.213 217.887 139.434 222.249 146.922V146.922C227.258 155.519 240.053 154.218 243.195 144.792L245.556 137.709L260.641 85.6632V85.6632C261.437 82.9169 265.157 82.5084 266.54 85.0154L275.133 100.593C276.251 102.621 278.003 104.228 280.12 105.168L281.975 105.992C286.27 107.899 289.495 111.622 290.768 116.145L292.074 120.786C292.764 123.238 294.689 125.15 297.146 125.823V125.823C299.733 126.531 302.498 125.754 304.332 123.801L305.091 122.992C306.206 121.805 306.981 120.339 307.334 118.748L322.675 49.6044V49.6044C323.845 43.4059 332.224 42.2583 335.039 47.911L348.119 74.1727C350.12 78.1902 353.673 81.2194 357.956 82.5588L359.202 82.9485C364.7 84.6679 370.672 83.8717 375.518 80.7731L389.838 71.6179C390.41 71.2527 390.954 70.8473 391.468 70.4049V70.4049C397.276 65.4019 406.002 65.8675 411.265 71.4611L429.615 90.9645C433.725 95.3327 440.551 95.6654 445.05 91.7167L445.81 91.0503C449.375 87.9213 454.666 87.7699 458.416 90.6896V90.6896C462.736 94.0534 468.96 93.2787 472.31 88.96L490.136 65.9788C494.784 59.9864 503.508 59.1115 509.274 64.0594V64.0594C516.131 69.9438 526.722 67.4304 530.18 59.098L531.338 56.3076L541.772 30.3684" stroke="url(#paint1_linear_1085_4435)" stroke-width="4" stroke-linecap="round"/>
<rect x="47" y="32" width="48" height="48" rx="8" fill="white"/>
<g clip-path="url(#clip1_1085_4435)">
<path d="M66.9682 59.906L69.1872 64.778C69.5492 65.589 69.1852 66.539 68.3742 66.901C67.5632 67.263 66.6132 66.899 66.2512 66.088L62.0742 56.851" stroke="#038585" stroke-width="2" stroke-linecap="round" stroke-linejoin="round"/>
<path d="M75 62L67 57H63C61.343 57 60 55.657 60 54C60 52.343 61.343 51 63 51H67L75 46V62Z" stroke="#038585" stroke-width="2" stroke-linecap="round" stroke-linejoin="round"/>
<path d="M80 54H82" stroke="#038585" stroke-width="2" stroke-linecap="round" stroke-linejoin="round"/>
<path d="M78.793 49.5L80.525 48.5" stroke="#038585" stroke-width="2" stroke-linecap="round" stroke-linejoin="round"/>
<path d="M78.793 58.5L80.525 59.5" stroke="#038585" stroke-width="2" stroke-linecap="round" stroke-linejoin="round"/>
</g>
<rect x="115" y="32" width="48" height="48" rx="8" fill="white"/>
<g clip-path="url(#clip2_1085_4435)">
<path d="M150 49H128V67H150V49Z" stroke="#8547FF" stroke-width="2" stroke-linecap="round" stroke-linejoin="round"/>
<path d="M135 49V45H143V49" stroke="#8547FF" stroke-width="2" stroke-linecap="round" stroke-linejoin="round"/>
<path d="M137 62V54L143 58L137 62Z" stroke="#8547FF" stroke-width="2" stroke-linecap="round" stroke-linejoin="round"/>
</g>
<rect x="183" y="32" width="48" height="48" rx="8" fill="white"/>
<path d="M201.997 62.487C198.503 61.25 196 57.918 196 54C196 49.029 200.029 45 205 45C208.92 45 212.254 47.506 213.489 51.003" stroke="#2F6FF0" stroke-width="2" stroke-linecap="round" stroke-linejoin="round"/>
<path d="M202.003 58.003C200.787 57.091 200 55.637 200 54C200 51.239 202.239 49 205 49C206.636 49 208.088 49.785 209 51" stroke="#2F6FF0" stroke-width="2" stroke-linecap="round" stroke-linejoin="round"/>
<path d="M205 54L206 65L209 62L213 66L217 62L213 58L216 55L205 54Z" stroke="#2F6FF0" stroke-width="2" stroke-linecap="round" stroke-linejoin="round"/>
</g>
<defs>
<linearGradient id="paint0_linear_1085_4435" x1="249.5" y1="138.5" x2="298.756" y2="-3.93734" gradientUnits="userSpaceOnUse">
<stop stop-color="#E2D3FF" stop-opacity="0"/>
<stop offset="1" stop-color="#6B99F5"/>
</linearGradient>
<linearGradient id="paint1_linear_1085_4435" x1="541.829" y1="23.4969" x2="245.073" y2="326.057" gradientUnits="userSpaceOnUse">
<stop stop-color="#2F6FF0"/>
<stop offset="1" stop-color="#89A9FF" stop-opacity="0"/>
</linearGradient>
<clipPath id="clip0_1085_4435">
<rect width="538" height="168" fill="white"/>
</clipPath>
<clipPath id="clip1_1085_4435">
<rect width="24" height="24" fill="white" transform="translate(59 44)"/>
</clipPath>
<clipPath id="clip2_1085_4435">
<rect width="24" height="24" fill="white" transform="translate(127 44)"/>
</clipPath>
</defs>
</svg>
