<svg width="42" height="46" viewBox="0 0 42 46" fill="none" xmlns="http://www.w3.org/2000/svg">
<g id="Icon">
<path id="Vector" d="M9.536 41.39C10.798 40.457 11.766 38.086 11.766 38.086C11.766 38.086 12.856 37.329 13.197 36.363C13.538 35.397 13.216 34.085 13.216 34.085C13.216 34.085 14.182 31.249 13.727 30.454C13.272 29.659 11.341 29.147 11.341 29.147C11.341 29.147 10.546 27.67 8.898 27.386C7.818 27.272 6.739 26.534 6.739 25C6.739 23.466 8.273 20.966 8.273 20.966C8.273 20.966 9.864 20.188 10.091 19.62C10.318 19.052 10.396 17.728 10.396 17.728C10.396 17.728 11.909 15.058 11.057 13.523C10.785 13.034 9.523 12.671 9.523 12.671L7.753 10.016M36.784 37.284C34.854 36.359 31.478 35.586 31.478 35.586C31.478 35.586 29.011 32.84 27.392 33.067C25.773 33.294 24.125 35.112 24.125 35.112C24.125 35.112 24.239 38.464 23.727 38.635C23.216 38.805 21.852 37.896 21 38.578C20.148 39.26 20.639 41.182 20.639 41.182C20.639 41.182 18.784 41.76 18.557 42.385C18.33 43.01 19.232 44.402 19.404 44.936M23.307 5.137C22.548 5.05 21.782 5 21 5C9.954 5 1 13.954 1 25C1 36.046 9.954 45 21 45C32.046 45 41 36.046 41 25C41 23.646 40.865 22.323 40.609 21.045" stroke="url(#paint0_linear_9018_1348)" stroke-width="2" stroke-linecap="round" stroke-linejoin="round"/>
<g id="Vector_2">
<path d="M31 13C32.6569 13 34 11.6569 34 10C34 8.34315 32.6569 7 31 7C29.3431 7 28 8.34315 28 10C28 11.6569 29.3431 13 31 13Z" stroke="#DC244C" stroke-width="2" stroke-miterlimit="10" stroke-linecap="square" stroke-linejoin="round"/>
<path d="M40 9.8C40 16 31 24 31 24C31 24 22 16 22 9.8C22 4.231 26.651 1 31 1C35.349 1 40 4.231 40 9.8Z" stroke="#DC244C" stroke-width="2" stroke-miterlimit="10" stroke-linecap="square" stroke-linejoin="round"/>
</g>
</g>
<defs>
<linearGradient id="paint0_linear_9018_1348" x1="21" y1="-46.1111" x2="21" y2="45" gradientUnits="userSpaceOnUse">
<stop stop-color="white"/>
<stop offset="0.74254" stop-color="#28324D"/>
</linearGradient>
</defs>
</svg>
