<svg width="48" height="48" viewBox="0 0 48 48" fill="none" xmlns="http://www.w3.org/2000/svg">
<path d="M20 44V32H28V44M8 27V44H40V27" stroke="url(#paint0_linear_7978_41445)" stroke-width="2" stroke-linecap="round" stroke-linejoin="round"/>
<path d="M46 16C45.9612 17.6289 45.2773 19.1758 44.0987 20.3009C42.92 21.4259 41.343 22.037 39.714 22C38.6891 22.0074 37.6776 21.767 36.7656 21.2994C35.8536 20.8317 35.0681 20.1506 34.476 19.314C33.8787 20.1453 33.0921 20.8224 32.1813 21.2895C31.2705 21.7566 30.2616 22.0002 29.238 22.0002C28.2144 22.0002 27.2055 21.7566 26.2947 21.2895C25.3839 20.8224 24.5973 20.1453 24 19.314C23.4027 20.1453 22.6161 20.8224 21.7053 21.2895C20.7945 21.7566 19.7856 22.0002 18.762 22.0002C17.7384 22.0002 16.7295 21.7566 15.8187 21.2895C14.9079 20.8224 14.1213 20.1453 13.524 19.314C12.9319 20.1506 12.1464 20.8317 11.2344 21.2994C10.3224 21.767 9.31089 22.0074 8.286 22C6.65703 22.037 5.07997 21.4259 3.90131 20.3009C2.72265 19.1758 2.0388 17.6289 2 16L10 4H38L46 16Z" stroke="#DC244C" stroke-width="2" stroke-miterlimit="10" stroke-linecap="square"/>
<defs>
<linearGradient id="paint0_linear_7978_41445" x1="24" y1="5.27778" x2="24" y2="44" gradientUnits="userSpaceOnUse">
<stop stop-color="white"/>
<stop offset="1" stop-color="#28324D"/>
</linearGradient>
</defs>
</svg>
