<svg width="80" height="48" viewBox="0 0 80 48" fill="none" xmlns="http://www.w3.org/2000/svg">
<g clip-path="url(#clip0_14209_66917)">
<path d="M8.61 16.5679V22.9242H2.7705V16.5679H0V31.7412H2.77125V25.5912H8.60925V31.7412H11.3813V16.5679H8.61ZM20.2515 26.8369C20.2515 27.4451 20.0099 28.0284 19.5799 28.4584C19.1498 28.8885 18.5665 29.1301 17.9584 29.1301C17.3502 29.1301 16.7669 28.8885 16.3369 28.4584C15.9068 28.0284 15.6652 27.4451 15.6652 26.8369V20.3374H13.0365V26.8369C13.0365 28.141 13.5545 29.3917 14.4767 30.3138C15.3988 31.2359 16.6494 31.7539 17.9535 31.7539C19.2576 31.7539 20.5082 31.2359 21.4303 30.3138C22.3525 29.3917 22.8705 28.141 22.8705 26.8369V20.3374H20.2515V26.8369ZM39.7298 21.0072C39.7298 19.6744 40.611 19.2522 41.5763 19.2522C42.3548 19.2522 43.3823 19.8447 44.055 20.5632L45.7762 18.5337C44.9167 17.3712 43.1737 16.5679 41.7465 16.5679C38.8942 16.5679 36.8317 18.2382 36.8317 21.0072C36.8317 26.1447 43.1107 24.5142 43.1107 27.3897C43.1107 28.2762 42.2497 29.0592 41.2643 29.0592C39.7095 29.0592 39.2055 28.2994 38.4915 27.4954L36.5805 29.4822C37.803 30.9822 39.3105 31.7442 41.1157 31.7442C43.8255 31.7442 46.005 30.0537 46.005 27.4107C46.005 21.7077 39.7253 23.4799 39.7253 21.0072M78.5752 29.3172C77.022 29.3172 76.5803 28.6452 76.5803 27.6162V23.0599H78.9953V20.7514H76.5803V17.7057L73.9147 18.9019V28.1824C73.9147 30.5562 75.5527 31.7524 77.7982 31.7524C78.1508 31.7584 78.5033 31.7299 78.8498 31.6684L79.5 29.2744C79.2067 29.2947 78.87 29.3149 78.5752 29.3149M30.258 20.4132C28.956 20.4132 28.047 20.7912 27.168 21.6529V16.6587H24.5355V25.9159C24.5355 29.3809 27.0405 31.7554 29.856 31.7554C32.979 31.7554 35.7262 29.3389 35.7262 26.0854C35.7262 22.8724 33.198 20.4154 30.258 20.4154M30.2415 29.1057C29.8492 29.1057 29.4607 29.0284 29.0982 28.8783C28.7357 28.7281 28.4064 28.5081 28.1289 28.2306C27.8515 27.9532 27.6314 27.6239 27.4813 27.2614C27.3312 26.8989 27.2539 26.5104 27.2539 26.1181C27.2539 25.7257 27.3312 25.3372 27.4813 24.9748C27.6314 24.6123 27.8515 24.2829 28.1289 24.0055C28.4064 23.7281 28.7357 23.508 29.0982 23.3579C29.4607 23.2077 29.8492 23.1304 30.2415 23.1304C31.0339 23.1304 31.7938 23.4452 32.3541 24.0055C32.9144 24.5658 33.2291 25.3257 33.2291 26.1181C33.2291 26.9104 32.9144 27.6704 32.3541 28.2306C31.7938 28.7909 31.0339 29.1057 30.2415 29.1057ZM58.848 25.9474C58.848 22.6879 56.1068 20.2774 52.9778 20.2774C50.163 20.2774 47.6572 22.6512 47.6572 26.1169V35.3794H50.2897V30.3784C51.1673 31.2387 52.0777 31.6182 53.3783 31.6182C56.3182 31.6182 58.848 29.1612 58.848 25.9474ZM56.355 25.9144C56.355 26.7068 56.0402 27.4667 55.4799 28.027C54.9197 28.5873 54.1597 28.9021 53.3674 28.9021C52.575 28.9021 51.8151 28.5873 51.2548 28.027C50.6945 27.4667 50.3797 26.7068 50.3797 25.9144C50.3797 25.1221 50.6945 24.3622 51.2548 23.8019C51.8151 23.2416 52.575 22.9268 53.3674 22.9268C54.1597 22.9268 54.9197 23.2416 55.4799 23.8019C56.0402 24.3622 56.355 25.1221 56.355 25.9144Z" fill="#B4BACC"/>
<path d="M67.3545 20.1499V17.5047C67.704 17.3413 68 17.082 68.2079 16.757C68.4159 16.4319 68.5272 16.0545 68.529 15.6687V15.6079C68.529 14.4829 67.617 13.5709 66.492 13.5709H66.4312C65.891 13.5709 65.3729 13.7855 64.9909 14.1676C64.6088 14.5496 64.3942 15.0677 64.3942 15.6079V15.6687C64.396 16.0545 64.5074 16.4319 64.7153 16.757C64.9232 17.082 65.2192 17.3413 65.5687 17.5047V20.1499C64.5641 20.3038 63.6179 20.7203 62.826 21.3574L55.5712 15.7069C55.623 15.5202 55.65 15.3282 55.653 15.1354C55.6539 14.6815 55.5201 14.2374 55.2686 13.8595C55.0171 13.4816 54.6592 13.1867 54.2401 13.0122C53.821 12.8377 53.3595 12.7915 52.9141 12.8793C52.4687 12.9671 52.0594 13.185 51.7378 13.5055C51.4163 13.826 51.197 14.2346 51.1078 14.6797C51.0185 15.1248 51.0633 15.5864 51.2364 16.0061C51.4095 16.4257 51.7032 16.7846 52.0803 17.0374C52.4574 17.2901 52.901 17.4253 53.355 17.4259C53.7522 17.4241 54.1419 17.318 54.4852 17.1184L61.629 22.6774C60.9872 23.6469 60.6524 24.7873 60.6682 25.9498C60.684 27.1124 61.0496 28.2432 61.7175 29.1949L59.5447 31.3684C59.3691 31.3123 59.1861 31.2824 59.0017 31.2799C58.6291 31.2802 58.2649 31.391 57.9552 31.5982C57.6455 31.8054 57.4041 32.0998 57.2617 32.4441C57.1192 32.7884 57.082 33.1673 57.1548 33.5328C57.2275 33.8982 57.407 34.2339 57.6705 34.4974C57.934 34.7609 58.2697 34.9404 58.6352 35.0131C59.0006 35.0859 59.3795 35.0487 59.7238 34.9063C60.0681 34.7638 60.3625 34.5224 60.5697 34.2127C60.7769 33.903 60.8877 33.5388 60.888 33.1662C60.8856 32.9818 60.8557 32.7988 60.7995 32.6232L62.949 30.4729C63.6499 31.0126 64.4651 31.3846 65.332 31.5605C66.1989 31.7365 67.0946 31.7116 67.9505 31.4879C68.8063 31.2642 69.5996 30.8476 70.2695 30.2699C70.9395 29.6923 71.4683 28.9689 71.8156 28.1553C72.1628 27.3417 72.3192 26.4594 72.2727 25.5761C72.2263 24.6927 71.9783 23.8317 71.5477 23.0589C71.1171 22.2862 70.5153 21.6223 69.7885 21.1181C69.0617 20.6139 68.2291 20.2827 67.3545 20.1499ZM66.4635 28.8499C66.0662 28.8609 65.6708 28.7921 65.3006 28.6476C64.9304 28.5031 64.5929 28.2859 64.3081 28.0088C64.0232 27.7317 63.7968 27.4003 63.6422 27.0342C63.4876 26.6681 63.4079 26.2747 63.4079 25.8773C63.4079 25.4799 63.4876 25.0865 63.6422 24.7204C63.7968 24.3543 64.0232 24.0229 64.3081 23.7458C64.5929 23.4687 64.9304 23.2515 65.3006 23.107C65.6708 22.9626 66.0662 22.8938 66.4635 22.9047C67.2334 22.9316 67.9628 23.2564 68.4981 23.8104C69.0334 24.3645 69.3328 25.1047 69.3332 25.8751C69.3336 26.6455 69.0349 27.386 68.5002 27.9406C67.9655 28.4952 67.2364 28.8207 66.4665 28.8484" fill="#B4BACC"/>
</g>
<defs>
<clipPath id="clip0_14209_66917">
<rect width="79.5" height="48" fill="white"/>
</clipPath>
</defs>
</svg>
