<svg width="114" height="48" viewBox="0 0 114 48" fill="none" xmlns="http://www.w3.org/2000/svg">
<g clip-path="url(#clip0_14209_66929)">
<path fill-rule="evenodd" clip-rule="evenodd" d="M22.2246 11.5391C29.2151 11.5391 34.8815 17.248 34.8816 24.2883C34.8816 31.3309 29.2151 37.0391 22.2246 37.0391C15.2349 37.039 9.56909 31.3308 9.56909 24.2883C9.56916 17.2474 15.2357 11.5392 22.2246 11.5391ZM22.2246 21.1016C20.4771 21.1017 19.0613 22.5284 19.0613 24.2883C19.0613 26.0491 20.4771 27.4765 22.2246 27.4766C23.9715 27.4766 25.3894 26.0491 25.3894 24.2883C25.3893 22.5283 23.9715 21.1016 22.2246 21.1016Z" fill="#B4BACC"/>
<path fill-rule="evenodd" clip-rule="evenodd" d="M56.7773 21.8494C58.745 21.8494 60.2292 23.4542 60.2292 25.6572C60.2291 27.7816 58.8081 29.4497 56.6521 29.4497C55.9342 29.4497 55.2463 29.277 54.9185 29.1509V31.8887C54.9183 32.0616 54.7464 32.2351 54.575 32.2351H53.3093C53.219 32.2311 53.1334 32.1932 53.0698 32.1289C53.0063 32.0647 52.9689 31.9789 52.9658 31.8887V22.3525C52.9664 22.2615 53.0028 22.1741 53.0669 22.1094C53.131 22.0447 53.2182 22.0075 53.3093 22.0061H54.0769C54.1683 22.0073 54.2557 22.0445 54.3201 22.1094C54.3844 22.1743 54.4208 22.2619 54.4211 22.3533V22.9326C54.4703 22.8688 55.2931 21.8494 56.7773 21.8494ZM56.5122 23.6423C55.575 23.6423 55.0748 24.2402 54.9185 24.6494V27.2466C54.9185 27.2466 55.512 27.656 56.4185 27.656C57.6062 27.6558 58.2143 26.6793 58.2144 25.6565C58.2144 24.6342 57.6363 23.6425 56.5122 23.6423Z" fill="#B4BACC"/>
<path fill-rule="evenodd" clip-rule="evenodd" d="M46.3564 19.0559C49.2128 19.056 51.5375 21.4034 51.5376 24.2876C51.5376 27.2071 49.262 29.4943 46.3564 29.4944C43.4589 29.4944 41.1914 27.2071 41.1914 24.2883C41.1915 21.4026 43.5088 19.0559 46.3564 19.0559ZM46.3564 21.0781C44.6147 21.0781 43.1983 22.518 43.1982 24.2883C43.1982 26.0455 44.6147 27.4722 46.3564 27.4722C47.1992 27.4702 48.007 27.1337 48.6021 26.5369C49.1971 25.94 49.5306 25.1311 49.53 24.2883C49.53 22.5467 48.0775 21.0782 46.3564 21.0781Z" fill="#B4BACC"/>
<path fill-rule="evenodd" clip-rule="evenodd" d="M65.009 21.8486C66.8834 21.8488 68.3196 23.2495 68.3196 25.2163C68.3196 25.3264 68.3057 25.578 68.2888 25.6887C68.2799 25.7755 68.2404 25.8561 68.1775 25.9165C68.1145 25.9769 68.0324 26.013 67.9453 26.0183H63.3223C63.3389 26.9152 64.0717 27.7021 65.1189 27.7021C65.8375 27.7021 66.3365 27.4343 66.665 27.1667C66.8364 27.0254 67.0238 27.0103 67.1331 27.1667L67.7417 27.9856C67.867 28.1272 67.8832 28.3011 67.7117 28.458C66.9664 29.1042 66.0108 29.4561 65.0244 29.449C62.8691 29.449 61.3698 27.7186 61.3696 25.6411C61.3696 23.5958 62.8691 21.8486 65.009 21.8486ZM64.9622 23.4695C64.088 23.4695 63.5245 24.0047 63.4314 24.7285H66.3523C66.3207 24.0202 65.7584 23.4696 64.9622 23.4695Z" fill="#B4BACC"/>
<path fill-rule="evenodd" clip-rule="evenodd" d="M86.7297 21.8494C88.9789 21.8494 89.4485 23.029 89.4485 25.012V28.9304C89.4479 29.0215 89.4115 29.1089 89.3474 29.1736C89.2831 29.2383 89.1955 29.2757 89.1042 29.2769H88.5725C88.5578 29.2773 88.5431 29.2762 88.5286 29.2739H88.4019C88.2142 29.2739 88.0576 29.1168 88.0576 28.9275V28.5371C87.7598 28.8323 87.4058 29.0646 87.0168 29.2212C86.6278 29.3778 86.2115 29.4554 85.7922 29.449C84.3557 29.4489 83.3555 28.5214 83.3555 26.9631C83.3555 25.6731 84.4027 24.6816 86.2302 24.6816C86.9555 24.6816 87.6041 24.8812 87.6196 24.886C87.6511 23.9577 87.386 23.5172 86.6213 23.5171C85.965 23.5171 85.012 23.6583 84.5896 23.7844C84.3557 23.8629 84.2146 23.6902 84.1838 23.4702L84.0271 22.6514C83.965 22.3837 84.1059 22.258 84.2622 22.2112C84.4187 22.148 85.5588 21.8494 86.7297 21.8494ZM86.5115 25.9246C85.6835 25.9246 85.2305 26.3178 85.2305 26.9631C85.2305 27.5769 85.6055 27.9862 86.2771 27.9863C86.9173 27.9863 87.4796 27.4828 87.5728 27.2151V26.145C87.5618 26.1401 87.0826 25.9246 86.5115 25.9246Z" fill="#B4BACC"/>
<path fill-rule="evenodd" clip-rule="evenodd" d="M106.948 21.8486C108.821 21.8487 110.258 23.2495 110.258 25.2163C110.258 25.3264 110.241 25.578 110.227 25.6887C110.219 25.7754 110.179 25.8561 110.116 25.9165C110.053 25.977 109.97 26.0132 109.883 26.0183H105.26C105.277 26.9152 106.009 27.7021 107.057 27.7021C107.775 27.7021 108.274 27.4344 108.603 27.1667C108.774 27.0254 108.962 27.0103 109.071 27.1667L109.68 27.9856C109.805 28.1272 109.821 28.3012 109.649 28.458C108.904 29.1042 107.949 29.4561 106.962 29.449C104.807 29.449 103.307 27.7186 103.307 25.6411C103.307 23.5958 104.808 21.8486 106.948 21.8486ZM106.9 23.4695C106.025 23.4695 105.462 24.0047 105.369 24.7285H108.289C108.259 24.0202 107.696 23.4696 106.9 23.4695Z" fill="#B4BACC"/>
<path fill-rule="evenodd" clip-rule="evenodd" d="M92.7847 19.0479C92.8749 19.0517 92.9605 19.0893 93.0242 19.1533C93.0879 19.2175 93.1249 19.3039 93.1282 19.3943V22.1636C93.456 22.022 94.1747 21.8494 94.8933 21.8494C97.0333 21.8494 98.3935 23.5158 98.3936 25.6404C98.3936 27.7172 96.9722 29.4481 95.0032 29.4482C93.4403 29.4482 92.6124 28.3816 92.5979 28.3628L92.5891 28.3906V28.9282C92.5885 29.0196 92.5519 29.1074 92.4873 29.1721C92.4228 29.2367 92.3354 29.2731 92.2441 29.2739H92.0969C92.0857 29.2766 92.0772 29.2769 92.0662 29.2769H91.519C91.4289 29.2728 91.3438 29.2347 91.2803 29.1707C91.2167 29.1065 91.1795 29.0207 91.1763 28.9304V19.3943C91.1763 19.2212 91.3476 19.048 91.519 19.0479H92.7847ZM94.6282 23.6431C93.7225 23.6431 93.1282 24.0525 93.1282 24.0525V26.6482C93.2844 27.0574 93.7848 27.656 94.7219 27.656C95.8461 27.656 96.4247 26.6648 96.4248 25.6418C96.4248 24.6188 95.8155 23.6431 94.6282 23.6431Z" fill="#B4BACC"/>
<path d="M101.331 19.075C101.502 19.0752 101.674 19.2485 101.674 19.4214V27.0042C101.674 27.1611 101.829 27.3169 101.985 27.3169H102.04C102.131 27.3181 102.218 27.3548 102.282 27.4194C102.346 27.4841 102.383 27.5714 102.384 27.6626V28.9421C102.383 29.0336 102.346 29.1213 102.281 29.186C102.217 29.2507 102.129 29.2876 102.037 29.2886L100.969 29.2908C100.349 29.2908 99.7275 28.666 99.7273 28.0405L99.7222 27.8215V19.4214C99.7222 19.2483 99.8935 19.0751 100.065 19.075H101.331Z" fill="#B4BACC"/>
<path d="M73.6172 21.8494C75.9126 21.8494 76.5066 23.4072 76.5066 25.1694V28.9304C76.5034 29.0208 76.4663 29.1072 76.4026 29.1714C76.3388 29.2355 76.2527 29.273 76.1624 29.2769H74.8982C74.7105 29.2768 74.554 29.1189 74.554 28.9304V25.1694C74.554 24.2256 74.1786 23.6431 73.3044 23.6431C72.3674 23.6432 71.9145 24.2724 71.7429 24.7761V28.9304C71.7429 29.1973 71.6334 29.2768 71.2896 29.2769H70.1338C70.0434 29.273 69.9573 29.2356 69.8936 29.1714C69.8298 29.1072 69.7928 29.0208 69.7896 28.9304V22.3525C69.7899 22.2612 69.8263 22.1734 69.8906 22.1086C69.955 22.0439 70.0425 22.0071 70.1338 22.0061H70.9504C71.0417 22.0073 71.1293 22.0446 71.1936 22.1094C71.2577 22.1741 71.2941 22.2615 71.2947 22.3525V22.8982C71.5631 22.5968 72.2341 21.8494 73.6172 21.8494Z" fill="#B4BACC"/>
<path d="M83.8418 19.0479C83.8809 19.048 83.92 19.0555 83.9561 19.0706C83.992 19.0856 84.0245 19.1081 84.052 19.1357C84.0796 19.1635 84.1016 19.1969 84.1165 19.2332C84.1312 19.2693 84.1386 19.3083 84.1384 19.3474V20.6372C84.1386 20.6763 84.1313 20.7153 84.1165 20.7515C84.1016 20.7877 84.0796 20.8204 84.052 20.8481C84.0245 20.8758 83.9921 20.8983 83.9561 20.9133C83.92 20.9284 83.8809 20.9359 83.8418 20.936H81.1919V28.978C81.1896 29.0562 81.1577 29.1305 81.1025 29.186C81.0473 29.2416 80.9728 29.2742 80.8945 29.2769H79.4421C79.3639 29.2741 79.2893 29.2416 79.2341 29.186C79.1791 29.1306 79.1478 29.0561 79.1455 28.978V20.936H76.4949C76.3234 20.936 76.1983 20.7948 76.1982 20.6379V19.3474C76.1981 19.3083 76.2062 19.2694 76.2209 19.2332C76.2357 19.197 76.2572 19.1635 76.2847 19.1357C76.312 19.1081 76.3448 19.0864 76.3806 19.0713C76.4167 19.0561 76.4558 19.048 76.4949 19.0479H83.8418Z" fill="#B4BACC"/>
<path d="M3.16406 21.1016C4.91148 21.1017 6.32806 22.5284 6.32812 24.2883C6.32812 26.049 4.91152 27.4764 3.16406 27.4766C1.41717 27.4766 0 26.0499 0 24.2883C6.83225e-05 22.5283 1.41721 21.1016 3.16406 21.1016Z" fill="#B4BACC"/>
<path fill-rule="evenodd" clip-rule="evenodd" d="M112.747 22.5488C113.058 22.5488 113.325 22.6759 113.325 23.033C113.325 23.1209 113.299 23.2073 113.251 23.2805C113.202 23.3536 113.132 23.4106 113.051 23.4438L113.391 24.0635H113.051L112.791 23.5413H112.488V24.0635H112.184V22.5488H112.747ZM112.488 23.3018L112.681 23.3025C112.881 23.3025 112.999 23.2118 112.999 23.0483C112.999 22.8995 112.918 22.8016 112.696 22.8015H112.488V23.3018Z" fill="#B4BACC"/>
<path fill-rule="evenodd" clip-rule="evenodd" d="M112.718 21.8552C113.488 21.8553 114.116 22.4518 114.116 23.3245C114.116 24.197 113.487 24.7937 112.718 24.7937C111.955 24.7937 111.325 24.197 111.325 23.3245C111.325 22.4518 111.955 21.8552 112.718 21.8552ZM112.718 22.1233C112.096 22.1233 111.622 22.6241 111.622 23.3245C111.622 24.0334 112.096 24.5176 112.718 24.5176C113.339 24.5175 113.82 24.0334 113.82 23.3245C113.82 22.6241 113.339 22.1233 112.718 22.1233Z" fill="#B4BACC"/>
</g>
<defs>
<clipPath id="clip0_14209_66929">
<rect width="114" height="48" fill="white"/>
</clipPath>
</defs>
</svg>
