<svg width="95" height="48" viewBox="0 0 95 48" fill="none" xmlns="http://www.w3.org/2000/svg">
<g clip-path="url(#clip0_14209_66912)">
<path fill-rule="evenodd" clip-rule="evenodd" d="M0.00390625 23.1989H4.20037V27.3959H0.00390625V23.1989ZM12.5908 23.1989H16.7872V27.3959H12.5908V23.1989ZM25.1776 23.1989H29.3736V27.3959H25.1776V23.1989Z" fill="#B4BACC"/>
<path fill-rule="evenodd" clip-rule="evenodd" d="M35.2794 29.9432C35.2794 32.7316 35.759 33.1809 38.7561 33.2112V34.3802H28.5649V33.2112C31.563 33.1809 32.0417 32.7316 32.0417 29.9432V14.6266C28.5947 14.6867 26.5862 16.9646 26.2865 21.1308L25.1776 20.9519L25.3879 13.638H41.9337L42.1434 20.9519L41.034 21.1308C40.7348 16.9652 38.6965 14.6867 35.2794 14.6266V29.9432Z" fill="#B4BACC"/>
<path fill-rule="evenodd" clip-rule="evenodd" d="M37.9142 23.1989H42.1107V27.3959H37.9142V23.1989ZM50.3883 15.3407C50.3883 14.6746 50.3489 14.4315 50.1958 14.2773C50.08 14.1616 49.8117 14.0858 49.5175 14.0858H49.3507V13.6754H52.3852C53.7938 13.6754 54.7799 14.0858 55.536 14.9945C56.1885 15.7759 56.5352 16.7746 56.5352 17.927C56.5352 19.2466 56.099 20.3858 55.2924 21.1677C54.5757 21.8843 53.6281 22.2169 52.3852 22.2169H49.3507V21.8075H49.5175C49.8117 21.8075 50.08 21.7302 50.1958 21.6155C50.3489 21.4608 50.3883 21.2182 50.3883 20.5521V15.3407ZM51.5665 20.6036C51.5665 21.5771 51.7206 21.757 52.6157 21.757C54.4605 21.757 55.1655 20.7067 55.1655 17.927C55.1655 15.225 54.4352 14.1237 52.6425 14.1237C52.1679 14.1237 51.8743 14.2132 51.7206 14.3794C51.5922 14.5331 51.5665 14.6867 51.5665 15.225V20.6036ZM58.57 19.2329C58.5816 21.103 59.0183 21.898 60.0291 21.898C60.7211 21.898 61.1693 21.526 61.6166 20.5784L62.0018 20.7831C61.4519 21.898 60.7847 22.3973 59.825 22.3973C58.3395 22.3973 57.3787 21.1677 57.3787 19.2329C57.3787 17.4407 58.3522 16.1474 59.6956 16.1474C61.0925 16.1474 62.0144 17.3376 62.0786 19.2329H58.57ZM60.8868 18.7851C60.8995 17.4155 60.4769 16.5957 59.7603 16.5957C59.0436 16.5957 58.5953 17.4412 58.5816 18.7851H60.8868ZM66.9558 20.8988C66.5217 21.8985 65.9324 22.3458 65.1 22.3458C64.5364 22.3458 64.1008 22.1285 63.8571 21.7181C63.6135 21.3087 63.5372 20.9114 63.5372 19.9506V17.7485C63.5372 16.903 63.4215 16.7241 62.8837 16.7241H62.7437V16.3268L64.6133 16.2373V20.2837C64.6133 20.8351 64.6517 21.0903 64.7674 21.3345C64.869 21.5907 65.1257 21.7575 65.4073 21.7575C65.8414 21.7575 66.2523 21.4755 66.5217 20.9625C66.7643 20.5278 66.8543 20.0669 66.8543 19.3366V17.7485C66.8543 16.903 66.7385 16.7241 66.2018 16.7241H66.0082V16.3268L67.9303 16.2373V20.7836C67.9303 21.6281 68.045 21.8212 68.5838 21.8212H68.7238V22.2179L66.9558 22.3079V20.8988ZM71.0533 20.3095C71.0533 20.8351 71.079 21.0651 71.1442 21.3092C71.2332 21.6165 71.4768 21.8085 71.7699 21.8085C72.2566 21.8085 72.5518 21.2839 72.5518 20.3732V20.1947H72.9743V20.4373C72.9743 21.6923 72.4608 22.3453 71.45 22.3453C70.9633 22.3453 70.5665 22.1911 70.3366 21.9096C70.0551 21.5771 69.9782 21.2056 69.9782 20.309V16.762H69.0553V16.4031C70.1698 16.1342 70.5408 15.6218 70.6949 14.1106H71.0533V16.3258H72.7828V16.7615H71.0533V20.3095ZM77.1627 18.1842H76.7776C76.5602 17.0955 76.0735 16.5704 75.279 16.5704C74.7281 16.5704 74.3198 16.9545 74.3198 17.4665C74.3198 17.9527 74.5755 18.1842 75.3831 18.4405C76.2014 18.7088 76.5481 18.8625 76.8301 19.0808C77.2901 19.4392 77.5084 19.8875 77.5084 20.4631C77.5084 21.5644 76.7149 22.3458 75.5863 22.3458C75.0748 22.3458 74.7797 22.2427 74.153 21.8717C74.1111 21.8437 74.0631 21.8262 74.013 21.8207C73.922 21.8207 73.8462 21.9096 73.7946 22.0764L73.7562 22.2174H73.3979V20.0537H73.7562C73.922 20.6547 74.0504 20.9761 74.2545 21.244C74.5755 21.6797 75.0612 21.9354 75.5863 21.9354C76.1756 21.9354 76.6118 21.4876 76.6118 20.8988C76.6118 20.5278 76.4193 20.1947 76.0867 19.989C75.8042 19.8101 75.7915 19.8101 74.9601 19.5281C73.9346 19.195 73.4605 18.6451 73.4605 17.8117C73.4605 16.8641 74.1646 16.1984 75.1901 16.1984C75.6 16.1984 76.0341 16.3263 76.3935 16.5441C76.4703 16.5825 76.5335 16.6088 76.586 16.6088C76.6629 16.6088 76.7392 16.5057 76.7776 16.3268H77.1627V18.1842ZM82.7824 20.7194C82.3215 21.8717 81.669 22.3973 80.6829 22.3973C79.2101 22.3973 78.1983 21.1171 78.1983 19.2471C78.1983 17.4281 79.2743 16.1479 80.8103 16.1479C81.8737 16.1479 82.7056 16.8777 82.7056 17.8006C82.7056 18.2737 82.3978 18.6072 81.9763 18.6072C81.6053 18.6072 81.3238 18.3116 81.3238 17.9148C81.3238 17.557 81.5795 17.2618 81.9247 17.2618C81.9763 17.2618 82.0015 17.2618 82.0531 17.2997C81.8615 16.8514 81.439 16.5952 80.926 16.5952C79.94 16.5952 79.4406 17.4786 79.4406 19.2466C79.4406 21.0519 79.9152 21.9096 80.8876 21.9096C81.5285 21.9096 82.0147 21.4755 82.373 20.5526L82.7824 20.7194ZM87.3797 18.401C87.3797 17.6591 87.3423 17.3634 87.1881 17.1334C87.0471 16.8777 86.8171 16.7493 86.5472 16.7493C86.1247 16.7493 85.728 17.0314 85.4849 17.5181C85.2539 17.9921 85.1639 18.491 85.1639 19.374V20.7831C85.1639 21.6418 85.2797 21.8207 85.8174 21.8207H86.0216V22.2174H83.2302V21.8207H83.4354C83.9732 21.8207 84.0879 21.6281 84.0879 20.7831V15.0971C84.0879 14.2521 83.9732 14.0732 83.4354 14.0732H83.2944V13.6754L85.1639 13.5859V17.3887C85.5738 16.5568 86.0732 16.1984 86.8166 16.1984C87.3544 16.1984 87.7901 16.3905 88.0468 16.7488C88.3657 17.1966 88.4557 17.607 88.4557 18.721V20.7831C88.4557 21.6418 88.5714 21.8207 89.1092 21.8207H89.2492V22.2174H87.3797V18.401ZM91.052 19.2329C91.0657 21.103 91.5003 21.898 92.5132 21.898C93.2041 21.898 93.6524 21.526 94.1017 20.5784L94.4848 20.7831C93.9349 21.898 93.2688 22.3973 92.308 22.3973C90.8226 22.3973 89.8618 21.1677 89.8618 19.2329C89.8618 17.4407 90.8352 16.1474 92.1806 16.1474C93.5766 16.1474 94.4985 17.3376 94.5616 19.2329H91.052ZM93.3704 18.7851C93.382 17.4155 92.9605 16.5957 92.2433 16.5957C91.5261 16.5957 91.0773 17.4412 91.0657 18.7851H93.3704ZM53.0261 32.7422C53.0261 33.4204 53.0645 33.6519 53.2187 33.8046C53.346 33.9203 53.6028 33.9966 53.8959 33.9966H54.1921V34.4065H50.684V33.9966H50.9772C51.2723 33.9966 51.527 33.9203 51.6574 33.8046C51.8096 33.6519 51.849 33.4204 51.849 32.7422V26.2749H51.5796C50.8245 26.2749 50.2094 26.6843 49.9153 27.3888C49.7485 27.7729 49.6717 28.1576 49.6075 28.849L49.2365 28.8232L49.3007 25.8645H55.6143L55.6649 28.8232L55.2818 28.849C55.0382 26.9789 54.4615 26.2749 53.2197 26.2749H53.0271V32.7422H53.0261ZM57.4546 31.4236C57.4662 33.2926 57.9029 34.0866 58.9137 34.0866C59.6056 34.0866 60.0539 33.7156 60.5022 32.7685L60.8863 32.9721C60.3354 34.0866 59.6693 34.5859 58.7095 34.5859C57.2241 34.5859 56.2623 33.3558 56.2623 31.4236C56.2623 29.6298 57.2357 28.3375 58.5801 28.3375C59.9761 28.3375 60.8979 29.5277 60.9631 31.4236H57.4546ZM59.7724 30.9747C59.784 29.6046 59.361 28.7843 58.6443 28.7843C57.9276 28.7843 57.4793 29.6298 57.4667 30.9747H59.7724ZM63.5226 32.9716C63.5226 33.8298 63.6383 34.0098 64.1761 34.0098H64.3813V34.406H61.5888V34.0098H61.794C62.3308 34.0098 62.4465 33.8303 62.4465 32.9716V27.2867C62.4465 26.4417 62.3308 26.2628 61.794 26.2628H61.654V25.865L63.5226 25.775V32.9716ZM66.173 31.4236C66.1856 33.2926 66.6213 34.0866 67.6321 34.0866C68.324 34.0866 68.7733 33.7156 69.2216 32.7685L69.6057 32.9721C69.0548 34.0866 68.3887 34.5859 67.4279 34.5859C65.9425 34.5859 64.9827 33.3558 64.9827 31.4236C64.9827 29.6298 65.9561 28.3375 67.2995 28.3375C68.6955 28.3375 69.6184 29.5277 69.6815 31.4236H66.173ZM68.4908 30.9747C68.5034 29.6046 68.0809 28.7843 67.3637 28.7843C66.647 28.7843 66.1977 29.6298 66.1861 30.9747H68.4908ZM74.5982 34.406L72.7545 31.4352L72.242 31.884V32.9716C72.242 33.8298 72.3567 34.0098 72.8945 34.0098H73.1381V34.406H70.3078V34.0098H70.513C71.0507 34.0098 71.1655 33.8182 71.1655 32.9716V27.2867C71.1655 26.4417 71.0507 26.2628 70.513 26.2628H70.3719V25.865L72.2415 25.775V31.2689L73.971 29.784C74.201 29.5793 74.342 29.361 74.342 29.1947C74.342 29.0026 74.1752 28.9127 73.7901 28.9127H73.5985V28.5159H76.1216V28.9127H75.9932C75.6222 28.9127 75.4554 29.0026 74.9298 29.4762L73.5222 30.7311L75.0698 33.2031C75.4549 33.8182 75.6985 34.0098 76.1084 34.0098H76.21V34.406H74.5982ZM81.9475 31.461C81.9475 33.3305 80.9099 34.5859 79.3471 34.5859C77.7985 34.5859 76.7609 33.331 76.7609 31.4746C76.7609 29.5662 77.7985 28.3375 79.3855 28.3375C80.9099 28.337 81.9475 29.6046 81.9475 31.461ZM78.2969 29.5141C78.0927 29.975 78.0027 30.5775 78.0027 31.4352C78.0027 33.2794 78.4379 34.176 79.3471 34.176C80.2564 34.176 80.7047 33.2799 80.7047 31.461C80.7047 30.578 80.6147 29.9629 80.4105 29.5141C80.1922 29.0279 79.7954 28.7454 79.3355 28.7454C78.9119 28.7459 78.5011 29.0537 78.2969 29.5141ZM89.5393 30.8085C89.5393 29.9887 89.4878 29.5656 89.3735 29.3352C89.2325 29.0794 89.0026 28.9389 88.72 28.9389C88.3617 28.9389 88.0408 29.1689 87.8239 29.5793C87.6056 29.9892 87.5546 30.3086 87.5546 31.372V32.9721C87.5546 33.8303 87.6703 34.0103 88.207 34.0103H88.3875V34.4065H86.4785V31.001C86.4785 29.9129 86.4527 29.6561 86.2996 29.3615C86.1596 29.0921 85.9286 28.9394 85.6335 28.9394C85.2741 28.9394 84.9552 29.1694 84.75 29.5798C84.5448 30.0018 84.4943 30.3728 84.4943 31.3725V32.9727C84.4943 33.8445 84.5969 34.0108 85.1468 34.0108H85.3262V34.407H82.56V34.0108H82.7642C83.2894 34.0108 83.4177 33.8056 83.4177 32.9727V29.9386C83.4177 29.1189 83.2894 28.9137 82.7642 28.9137H82.6242V28.5169L84.4159 28.427V29.4772C84.6595 28.8242 85.262 28.389 85.9155 28.389C86.6332 28.389 87.0931 28.7469 87.414 29.555C87.784 28.7605 88.2975 28.389 89.0026 28.389C89.5525 28.389 90.0392 28.6443 90.2949 29.0673C90.5385 29.4393 90.6158 29.8623 90.6158 30.669V32.9732C90.6158 33.8197 90.7316 34.0113 91.2693 34.0113H91.4083V34.4075H89.5398V30.8085H89.5393Z" fill="#B4BACC"/>
</g>
<defs>
<clipPath id="clip0_14209_66912">
<rect width="94.5" height="48" fill="white"/>
</clipPath>
</defs>
</svg>
