<svg width="141" height="48" viewBox="0 0 141 48" fill="none" xmlns="http://www.w3.org/2000/svg">
<path d="M139.499 29.8249C139.401 29.8249 139.303 29.8443 139.212 29.882C139.121 29.9196 139.038 29.9749 138.968 30.0446C138.898 30.1142 138.843 30.1969 138.805 30.288C138.768 30.379 138.748 30.4766 138.748 30.5751C138.748 30.6737 138.767 30.7713 138.805 30.8623C138.843 30.9534 138.898 31.0361 138.968 31.1058C139.038 31.1755 139.12 31.2308 139.211 31.2686C139.303 31.3063 139.4 31.3258 139.499 31.3258C139.698 31.3259 139.889 31.2469 140.03 31.1062C140.171 30.9655 140.25 30.7746 140.25 30.5756C140.25 30.3766 140.171 30.1857 140.03 30.0449C139.889 29.9041 139.698 29.825 139.499 29.8249ZM139.499 31.2084C139.331 31.2084 139.17 31.1417 139.051 31.023C138.933 30.9043 138.866 30.7433 138.866 30.5754C138.866 30.4075 138.933 30.2465 139.051 30.1278C139.17 30.0091 139.331 29.9424 139.499 29.9424C139.667 29.9424 139.828 30.0091 139.947 30.1278C140.066 30.2465 140.133 30.4075 140.133 30.5754C140.133 30.7433 140.066 30.9043 139.947 31.023C139.828 31.1417 139.667 31.2084 139.499 31.2084ZM139.743 30.4477C139.743 30.3111 139.646 30.23 139.503 30.23H139.262V30.9138H139.381V30.6657H139.509L139.633 30.9138H139.76L139.626 30.6401C139.663 30.6236 139.693 30.5965 139.714 30.5621C139.735 30.5278 139.745 30.4879 139.743 30.4477ZM139.498 30.5612H139.382V30.3348H139.498C139.577 30.3348 139.625 30.3746 139.625 30.4477C139.625 30.5209 139.577 30.5622 139.498 30.5622V30.5612ZM51.0696 20.3969H52.3726V22.9744H50.8477C49.6735 22.9744 48.9198 23.5502 48.9198 24.7241V31.2036H46.1323V20.3974H48.9198V22.213C49.1638 20.9286 50.0502 20.3969 51.0696 20.3969ZM56.6682 17.8276C56.6682 18.0486 56.6245 18.2675 56.5398 18.4717C56.4551 18.6759 56.331 18.8614 56.1745 19.0176C56.018 19.1738 55.8323 19.2978 55.6279 19.3823C55.4235 19.4668 55.2045 19.5102 54.9833 19.5101C54.5368 19.51 54.1086 19.3327 53.793 19.0172C53.4773 18.7016 53.2999 18.2738 53.2998 17.8276C53.2998 16.8751 54.0309 16.1222 54.984 16.1222C55.9369 16.1222 56.6682 16.8751 56.6682 17.8276ZM53.5939 20.3967H56.3729V31.2031H53.5929L53.5939 20.3967ZM64.0298 20.2143C62.8449 20.2085 61.6914 20.5939 60.7483 21.3106V20.3967H57.9687V34.3753H60.7483V30.2897C61.6914 31.0065 62.8449 31.3919 64.0298 31.3863C67.117 31.3863 69.6179 28.8854 69.6179 25.8003C69.6179 22.7157 67.117 20.2143 64.0298 20.2143ZM63.785 28.8349C62.1078 28.8349 60.7483 27.4763 60.7483 25.8005C60.7483 24.1247 62.1078 22.7659 63.785 22.7659C65.4622 22.7659 66.8215 24.1245 66.8215 25.8005C66.8215 27.4766 65.462 28.8346 63.785 28.8349ZM120.586 27.7901C120.586 29.8737 118.797 31.3863 116.332 31.3863C113.868 31.3863 111.989 29.8379 111.989 27.6209V27.5607H114.709V27.6209C114.709 28.546 115.37 29.1678 116.355 29.1678C117.34 29.1678 117.933 28.7075 117.933 28.0227C117.933 27.3741 117.494 27.0113 116.314 26.6851L114.76 26.2616C113.128 25.8199 112.192 24.757 112.192 23.3452C112.192 21.5313 113.904 20.2148 116.265 20.2148C118.625 20.2148 120.248 21.532 120.248 23.4935V23.5549H117.685V23.4935C117.685 22.8276 117.061 22.3061 116.265 22.3061C115.428 22.3061 114.844 22.6898 114.844 23.2394C114.844 23.7893 115.26 24.1302 116.327 24.4076L117.95 24.8523C120.128 25.4333 120.586 26.7707 120.586 27.7901ZM79.4851 21.3108C78.5416 20.5938 77.3875 20.2083 76.2021 20.2143C73.1148 20.2143 70.6124 22.7154 70.6124 25.8003C70.6124 28.8851 73.1156 31.386 76.2021 31.386C77.3869 31.3917 78.5405 31.0062 79.4836 30.2895V31.2034H82.2634V20.3972H79.4836L79.4851 21.3108ZM79.4851 25.8005C79.4851 27.4763 78.1253 28.8349 76.4484 28.8346C74.7711 28.8346 73.4116 27.4758 73.4119 25.8C73.4119 24.124 74.7714 22.7657 76.4486 22.7657C78.1253 22.7664 79.4851 24.125 79.4851 25.8005ZM92.3058 21.3108C91.3628 20.5941 90.2093 20.2087 89.0246 20.2143C85.9375 20.2143 83.4347 22.7154 83.4347 25.8003C83.4347 28.8851 85.9375 31.386 89.0246 31.386C90.2093 31.3916 91.3628 31.0062 92.3058 30.2895V31.2034H95.0859V16.5504H92.3058V21.3108ZM89.2696 28.8346C87.5926 28.8346 86.2331 27.4763 86.2329 25.8005C86.2326 24.1247 87.5921 22.7662 89.2691 22.7657C90.9461 22.7657 92.3056 24.1242 92.3058 25.8C92.3061 27.4758 90.9468 28.8346 89.2696 28.8346ZM107.997 20.3982H110.777V31.2034H107.997V20.3982ZM111.072 17.8286C111.072 18.0496 111.028 18.2685 110.944 18.4727C110.859 18.6768 110.735 18.8624 110.579 19.0187C110.422 19.1749 110.236 19.2989 110.032 19.3835C109.828 19.4681 109.609 19.5116 109.388 19.5116C109.166 19.5116 108.947 19.4681 108.743 19.3835C108.539 19.2989 108.353 19.1749 108.197 19.0187C108.04 18.8624 107.916 18.6768 107.832 18.4727C107.747 18.2685 107.703 18.0496 107.703 17.8286C107.703 16.8761 108.435 16.1232 109.388 16.1232C110.341 16.1232 111.07 16.8749 111.07 17.8273L111.072 17.8286ZM127.017 20.2155C123.93 20.2155 121.427 22.7164 121.427 25.8015C121.427 28.8866 123.93 31.3873 127.017 31.3873C130.104 31.3873 132.605 28.8864 132.605 25.8013C132.605 22.7167 130.102 20.2145 127.015 20.2145L127.017 20.2155ZM127.017 28.8359C125.34 28.8359 123.98 27.4773 123.98 25.8015C123.98 24.1257 125.34 22.7669 127.017 22.7669C128.694 22.7669 130.053 24.1255 130.053 25.8015C130.053 27.4771 128.693 28.8354 127.016 28.8346H127.015L127.017 28.8359ZM47.4963 19.0294H43.5482V31.2034H40.7776V19.0294H36.8293V16.5504H47.4953L47.4963 19.0294ZM103.912 20.3969H106.833L103.101 31.2034H99.757L96.0455 20.3972H98.966L101.439 28.2442L103.912 20.3969ZM138.829 20.3969H140.132V22.9744H138.608C137.433 22.9744 136.68 23.5502 136.68 24.7241V31.2036H133.892V20.3974H136.68V22.213C136.923 20.9286 137.81 20.3969 138.829 20.3969ZM11.8323 25.657C11.8323 27.2584 10.533 28.5567 8.93072 28.5567C7.32844 28.5567 6.02918 27.2584 6.02918 25.657C6.02918 24.0558 7.32844 22.7572 8.93072 22.7572C10.533 22.7572 11.8323 24.0558 11.8323 25.657ZM25.2849 22.7572C23.6827 22.7572 22.3834 24.0558 22.3834 25.657C22.3834 27.2584 23.6827 28.5567 25.2849 28.5567C26.8872 28.5567 28.1865 27.2584 28.1865 25.657C28.186 24.0565 26.888 22.759 25.2864 22.7582L25.2849 22.7572ZM33.4657 25.657C33.4657 30.1695 29.8017 33.8282 25.2849 33.8282C23.2246 33.8318 21.2395 33.0546 19.7299 31.6535L17.1114 34.5L14.492 31.6503C12.9824 33.0529 10.9965 33.8311 8.9352 33.8279C4.42167 33.8279 0.758964 30.1695 0.758964 25.6567C0.757366 24.5199 0.993799 23.3954 1.45307 22.3554C1.91233 21.3154 2.58427 20.3829 3.4257 19.6179L0.75 16.7087H6.695C12.9853 12.4304 21.253 12.4304 27.5433 16.7087H33.4729L30.7974 19.6179C31.6392 20.3828 32.3114 21.3152 32.7709 22.3553C33.2304 23.3954 33.4671 24.52 33.4657 25.657ZM14.4661 25.657C14.4661 22.6032 11.9886 20.1269 8.93271 20.1269C5.8768 20.1269 3.3993 22.6032 3.3993 25.657C3.3993 28.7107 5.8768 31.187 8.93271 31.187C11.9886 31.187 14.4659 28.7117 14.4661 25.6579V25.657ZM23.2514 17.4011C21.3055 16.591 19.2184 16.1739 17.1104 16.1739C15.0025 16.1739 12.9153 16.591 10.9695 17.4011C14.4629 18.7373 17.1114 21.8585 17.1114 25.4977C17.1114 21.8587 19.7592 18.7373 23.2514 17.4011ZM30.8198 25.6567C30.8198 22.6027 28.3423 20.1267 25.2864 20.1267C22.2305 20.1267 19.753 22.6024 19.753 25.6567C19.753 28.7105 22.2305 31.1867 25.2864 31.1867C28.3423 31.1867 30.8198 28.7105 30.8198 25.6567Z" fill="#B4BACC"/>
</svg>
