<svg width="121" height="64" viewBox="0 0 121 64" fill="none" xmlns="http://www.w3.org/2000/svg">
<path d="M24.9699 40.7184H22.7667L26.9427 22.9012H29.1235L24.9723 40.7184H24.9699ZM35.2179 40.7184H27.8603L32.0659 22.9012H34.2691L30.5291 38.7244H35.6787L35.2179 40.7184ZM40.9883 33.8288L39.3987 40.7184H37.1683L38.7831 33.7768L37.5535 22.9012H39.7843L40.4251 31.5828L45.2171 22.9012H47.7031L40.9883 33.8288ZM90.3299 24.8952H87.1003L83.6107 40.7184H81.3803L84.8699 24.8952H81.3323L81.8203 22.9012H90.8179L90.3299 24.8952ZM90.2575 40.7184H88.2823L92.2327 22.9012H94.4107L90.4879 40.7184H90.2575ZM104.656 27.9136L102.708 36.656C102.444 37.8932 102.074 38.778 101.595 39.4092C100.865 40.3948 99.6699 40.8756 98.0531 40.8756C95.3867 40.8756 93.8587 39.7124 93.8291 37.718C93.8199 37.1364 93.8907 36.6064 94.1051 35.6476L96.0527 26.9052C96.7003 23.9476 98.2195 22.6068 100.861 22.6068C103.502 22.6068 104.877 23.8196 104.907 25.8408C104.916 26.4224 104.845 27.0288 104.654 27.9112H104.656V27.9136ZM100.76 24.4776C99.9915 24.4776 99.4055 24.7292 99.0039 25.2344C98.6755 25.6384 98.5067 26.1688 98.2627 27.204L96.3151 35.996C96.1943 36.5256 96.1255 37.0308 96.1303 37.4104C96.1463 38.4728 96.8463 39.052 98.0507 39.052C99.3323 39.052 100.014 38.32 100.423 36.5008L102.396 27.81C102.587 26.95 102.66 26.546 102.653 26.142C102.637 25.0548 101.962 24.4732 100.756 24.4732H100.758L100.76 24.4776ZM49.4111 22.9192H53.1035L54.1183 33.1352C54.3011 35.1044 54.4035 36.6944 54.5359 38.8456H54.5883C55.4459 36.7216 56.1759 35.1088 57.1359 33.1348L62.1763 22.9192H65.9215L63.9211 40.7116H61.4763L62.7511 30.0876C62.9859 28.1676 63.2459 26.528 63.5587 24.5588L63.5059 24.5316C62.6211 26.4516 61.8411 28.1404 60.8811 30.0876L55.7331 40.7116H52.5859L51.5983 30.0876C51.4159 28.1676 51.2859 26.4516 51.1559 24.5588H51.1055C50.6655 26.4516 50.2479 28.1428 49.7007 30.0876L46.8407 40.7116H44.3703L49.4111 22.92V22.9192ZM80.5255 31.8052C79.2047 38.6388 76.3311 41.0348 71.7991 41.0348C68.2251 41.0348 66.2567 39.5056 66.2567 35.5776C66.2567 34.4032 66.3847 33.2556 66.6719 31.8296C68.0451 24.9984 70.8687 22.6 75.4255 22.6C78.9723 22.6 80.9679 24.1292 80.9679 28.0572C80.9679 29.2316 80.8127 30.3792 80.5275 31.8052H80.5255ZM75.1383 24.4888C72.1867 24.4888 70.1935 26.402 69.1055 31.8812C68.8203 33.1548 68.6655 34.4052 68.6655 35.4272C68.6655 38.0772 69.8035 39.1484 72.0567 39.1484C75.0355 39.1484 77.0015 37.2352 78.1167 31.7556C78.3767 30.4824 78.5571 29.2316 78.5571 28.2096C78.5571 25.5824 77.4191 24.4888 75.1383 24.4888ZM8.07911 22.8968C7.65711 22.8968 3.96471 22.9576 3.96471 22.9576L0.253906 40.7476H2.00311V40.7456C2.99991 40.7364 3.36951 40.7568 4.34311 40.7568C8.89351 40.7568 11.7739 38.7152 13.0991 31.904H13.1015C13.3867 30.4828 13.5439 29.34 13.5439 28.1696C13.5439 24.2532 11.6419 22.8968 8.07911 22.8968ZM10.8779 31.8976C9.75791 37.3588 7.96511 38.6076 4.97511 38.6232C3.93031 38.6276 3.69311 38.6188 2.90191 38.6072L5.74151 24.88V24.8848C6.63111 24.8644 6.84071 24.8556 7.65751 24.8644C9.94711 24.8844 11.3203 25.7492 11.3203 28.3676C11.3203 29.3848 11.1403 30.6316 10.8803 31.9L10.8779 31.898V31.8976ZM118.021 22.8968L114.495 38.8568L111.877 22.8968H108.191L104.184 40.7252H106.501L110.025 24.4912L112.622 40.7252H116.27L120.254 22.8968H118.021ZM19.3599 22.9024L12.0299 40.72H14.3859L15.7203 37.3896L16.5663 35.3212L16.8651 34.5216H19.3375L19.2575 35.3212L19.0775 37.3916L18.8219 40.722H21.0527L22.4339 22.9024H19.3579H19.3599ZM17.6471 32.4264L20.4867 24.52L19.5515 32.4268L17.6471 32.4264Z" fill="#D4D9E6"/>
</svg>
