<svg width="459" height="144" viewBox="0 0 459 144" fill="none" xmlns="http://www.w3.org/2000/svg">
<rect width="459" height="144" rx="8" fill="#E1E5F0"/>
<rect x="94.5" y="44.5" width="55" height="55" rx="3.5" fill="#D4D9E6"/>
<rect x="94.5" y="44.5" width="55" height="55" rx="3.5" stroke="#717C99"/>
<path d="M131.411 62.5407C131.318 62.5407 131.224 62.522 131.134 62.4807C130.8 62.328 130.652 61.9327 130.804 61.5973C131.892 59.2107 133.865 58 136.667 58C137.035 58 137.334 58.298 137.334 58.6667C137.334 59.0353 137.035 59.3333 136.667 59.3333C134.402 59.3333 132.882 60.2547 132.017 62.1507C131.906 62.396 131.663 62.5407 131.41 62.5407H131.411Z" fill="#038585"/>
<path d="M110.341 87.332C109.396 87.332 108.455 86.97 107.743 86.258C106.429 84.944 106.305 82.8527 107.452 81.392L122.428 62.332C123.59 60.8533 125.333 59.9413 127.209 59.8287C129.091 59.716 130.926 60.4153 132.256 61.7447C133.586 63.074 134.284 64.9133 134.172 66.79C134.06 68.6673 133.147 70.4107 131.669 71.5727L112.609 86.548C111.94 87.0733 111.139 87.332 110.341 87.332Z" fill="#E0700D"/>
<path d="M112.668 81.3333C112.497 81.3333 112.326 81.2679 112.197 81.1379L110.07 79.0119C109.81 78.7513 109.81 78.3299 110.07 78.0693C110.331 77.8086 110.752 77.8086 111.013 78.0693L113.139 80.1953C113.4 80.4559 113.4 80.8773 113.139 81.1379C113.009 81.2679 112.839 81.3333 112.668 81.3333Z" fill="#733501"/>
<path d="M123.333 69.3334C123.162 69.3334 122.992 69.268 122.862 69.138L119.961 66.4214C119.7 66.1607 119.7 65.7394 119.961 65.4787C120.222 65.218 120.643 65.218 120.904 65.4787L123.804 68.1954C124.065 68.456 124.065 68.8774 123.804 69.138C123.674 69.268 123.504 69.3334 123.333 69.3334Z" fill="#733501"/>
<path d="M121.716 79.2119C121.545 79.2119 121.375 79.1466 121.245 79.0166L118.863 76.6666C118.603 76.4059 118.603 75.9846 118.863 75.7239C119.124 75.4633 119.545 75.4633 119.806 75.7239L122.187 78.0739C122.448 78.3346 122.448 78.7559 122.187 79.0166C122.057 79.1466 121.887 79.2119 121.716 79.2119Z" fill="#733501"/>
<rect x="142" y="40" width="12" height="12" rx="2" fill="#008A53"/>
<path d="M147.447 48.5C147.327 48.5 147.211 48.4521 147.126 48.3668L145.762 47.0033C145.68 46.9175 145.634 46.8027 145.635 46.6835C145.636 46.5644 145.684 46.4504 145.768 46.3661C145.852 46.2818 145.966 46.234 146.085 46.233C146.205 46.232 146.319 46.2778 146.405 46.3606L147.405 47.3605L150.27 43.6757C150.344 43.5805 150.453 43.5185 150.572 43.5035C150.692 43.4885 150.813 43.5217 150.908 43.5957C151.003 43.6697 151.065 43.7785 151.08 43.8982C151.095 44.0179 151.062 44.1386 150.988 44.2339L147.806 48.3246C147.767 48.3756 147.717 48.4177 147.66 48.4479C147.603 48.4782 147.54 48.4959 147.475 48.5H147.447Z" fill="#E1E5F0"/>
<rect x="166.5" y="44.5" width="55" height="55" rx="3.5" stroke="#B4BACC"/>
<path d="M194.001 80.6666C193.831 80.6669 193.667 80.6021 193.543 80.4855C193.419 80.3688 193.345 80.2092 193.335 80.0393L192.039 58H187.335C187.158 58 186.988 57.9297 186.863 57.8047C186.738 57.6797 186.668 57.5101 186.668 57.3333C186.668 57.1565 186.738 56.9869 186.863 56.8619C186.988 56.7369 187.158 56.6666 187.335 56.6666H192.668C192.838 56.6663 193.002 56.7311 193.126 56.8478C193.25 56.9644 193.325 57.1241 193.335 57.294L194.668 79.9606C194.673 80.0482 194.661 80.136 194.633 80.2189C194.604 80.3018 194.559 80.3783 194.501 80.4439C194.443 80.5095 194.372 80.5629 194.293 80.6011C194.214 80.6394 194.128 80.6616 194.041 80.6666H194.001Z" fill="#2F6FF0"/>
<path d="M202.668 72H185.335C185.158 72 184.988 71.9298 184.863 71.8047C184.738 71.6797 184.668 71.5101 184.668 71.3333C184.668 68.858 185.651 66.484 187.402 64.7337C189.152 62.9833 191.526 62 194.001 62C196.477 62 198.851 62.9833 200.601 64.7337C202.351 66.484 203.335 68.858 203.335 71.3333C203.335 71.5101 203.264 71.6797 203.139 71.8047C203.014 71.9298 202.845 72 202.668 72Z" fill="#89A9FF"/>
<path d="M184.677 71.3333C184.673 71.3525 184.671 71.3718 184.67 71.3913L185.897 85.5066C185.941 86.0052 186.169 86.4694 186.538 86.8075C186.907 87.1457 187.389 87.3333 187.89 87.3333H200.111C200.612 87.3333 201.094 87.1457 201.463 86.8075C201.832 86.4694 202.061 86.0052 202.104 85.5066L203.334 71.3913C203.333 71.3718 203.33 71.3525 203.327 71.3333H184.677Z" fill="#004F4F"/>
<path d="M204.668 72H183.335C183.158 72 182.988 71.9297 182.863 71.8047C182.738 71.6797 182.668 71.5101 182.668 71.3333C182.668 71.1565 182.738 70.9869 182.863 70.8619C182.988 70.7369 183.158 70.6666 183.335 70.6666H204.668C204.845 70.6666 205.014 70.7369 205.139 70.8619C205.264 70.9869 205.335 71.1565 205.335 71.3333C205.335 71.5101 205.264 71.6797 205.139 71.8047C205.014 71.9297 204.845 72 204.668 72Z" fill="#2F6FF0"/>
<rect x="238.5" y="44.5" width="55" height="55" rx="3.5" fill="#D4D9E6"/>
<rect x="238.5" y="44.5" width="55" height="55" rx="3.5" stroke="#717C99"/>
<path d="M265.999 65.3333C265.823 65.3333 265.653 65.2631 265.528 65.138C265.403 65.013 265.333 64.8434 265.333 64.6666C265.333 62.3726 263.733 59.4153 261.141 58.6386C260.972 58.5879 260.83 58.4719 260.746 58.3163C260.662 58.1606 260.643 57.978 260.694 57.8086C260.745 57.6392 260.861 57.497 261.016 57.4131C261.172 57.3292 261.355 57.3106 261.524 57.3613C264.7 58.3146 266.666 61.8953 266.666 64.6666C266.666 64.8434 266.596 65.013 266.471 65.138C266.346 65.2631 266.176 65.3333 265.999 65.3333Z" fill="#733501"/>
<path d="M269.414 86.6667C268.693 86.653 267.974 86.5839 267.263 86.46C266.845 86.3841 266.422 86.3377 265.997 86.3213C265.572 86.3377 265.148 86.3841 264.73 86.46C262.383 86.8153 258.839 87.352 255.437 81.914C251.282 75.2667 252.153 67.6 255.538 64.874C258.095 62.8173 260.863 63.2787 263.308 63.6833C264.195 63.8579 265.095 63.9609 265.999 63.9913C266.903 63.9609 267.803 63.8579 268.691 63.6833C271.136 63.278 273.904 62.8167 276.461 64.874C279.845 67.5967 280.717 75.2647 276.557 81.916C274.079 85.8773 271.525 86.6667 269.414 86.6667Z" fill="#008A53"/>
<path d="M272.667 56V57.3333C272.667 58.571 272.175 59.758 271.3 60.6332C270.425 61.5083 269.238 62 268 62V60.6667C268 59.429 268.492 58.242 269.367 57.3668C270.242 56.4917 271.429 56 272.667 56Z" fill="#008A53"/>
<rect x="286" y="40" width="12" height="12" rx="2" fill="#008A53"/>
<path d="M291.447 48.5C291.327 48.5 291.211 48.4521 291.126 48.3668L289.762 47.0033C289.68 46.9175 289.634 46.8027 289.635 46.6835C289.636 46.5644 289.684 46.4504 289.768 46.3661C289.852 46.2818 289.966 46.234 290.085 46.233C290.205 46.232 290.319 46.2778 290.405 46.3606L291.405 47.3605L294.27 43.6757C294.344 43.5805 294.453 43.5185 294.572 43.5035C294.692 43.4885 294.813 43.5217 294.908 43.5957C295.003 43.6697 295.065 43.7785 295.08 43.8982C295.095 44.0179 295.062 44.1386 294.988 44.2339L291.806 48.3246C291.767 48.3756 291.717 48.4177 291.66 48.4479C291.603 48.4782 291.54 48.4959 291.475 48.5H291.447Z" fill="#E1E5F0"/>
<rect x="310.5" y="44.5" width="55" height="55" rx="3.5" stroke="#B4BACC"/>
<path d="M330.972 85.4885C330.795 85.4885 330.625 85.4182 330.5 85.2932L324.675 79.4665C324.586 79.3776 324.525 79.2654 324.497 79.1429C324.469 79.0203 324.477 78.8925 324.518 78.7741C324.56 78.6556 324.635 78.5514 324.733 78.4734C324.832 78.3954 324.95 78.3468 325.075 78.3332L331.628 77.6052C331.727 77.5946 331.828 77.6064 331.922 77.6398C332.016 77.6731 332.101 77.7271 332.171 77.7978C332.242 77.8685 332.295 77.9541 332.328 78.0482C332.361 78.1424 332.373 78.2427 332.362 78.3419L331.634 84.8945C331.615 85.0575 331.538 85.2081 331.415 85.3175C331.293 85.4268 331.135 85.4872 330.971 85.4872L330.972 85.4885Z" fill="#2F6FF0"/>
<path d="M341.591 68.3626C339.515 66.2295 338.112 63.5329 337.557 60.6086C337.544 60.6146 337.53 60.6193 337.516 60.6259C335.128 59.7466 331.705 59.8453 329.771 61.7793C329.69 61.8605 329.631 61.9615 329.601 62.0722C329.57 62.183 329.568 62.2998 329.596 62.4114C329.624 62.523 329.68 62.6255 329.759 62.709C329.838 62.7925 329.937 62.8541 330.047 62.8879C331.19 63.321 332.165 64.1103 332.825 65.1393C329.231 71.0973 330.976 78.1326 331.053 78.4353C331.083 78.5507 331.143 78.6561 331.228 78.7404C331.312 78.8247 331.417 78.8849 331.533 78.9146C333.026 79.2592 334.554 79.4282 336.085 79.4179C339.409 79.4179 343.93 78.6319 347.461 75.0999C348.15 74.409 348.737 73.6233 349.205 72.7666C346.305 72.0396 343.667 70.5138 341.591 68.3626Z" fill="#0040A1"/>
<path d="M349.971 60.4666C349.939 60.3617 349.881 60.2665 349.803 60.1894C349.725 60.1123 349.629 60.0557 349.523 60.0246C349.243 59.9419 342.727 58.0686 337.559 60.6059C338.113 63.5303 339.516 66.2269 341.592 68.3599C343.669 70.5097 346.306 72.0341 349.206 72.7599C352.089 67.5159 350.073 60.7959 349.971 60.4666Z" fill="#2F6FF0"/>
<path d="M344.001 64.6665C344.738 64.6665 345.335 64.0696 345.335 63.3332C345.335 62.5968 344.738 61.9999 344.001 61.9999C343.265 61.9999 342.668 62.5968 342.668 63.3332C342.668 64.0696 343.265 64.6665 344.001 64.6665Z" fill="#C0F0F0"/>
<path d="M380.998 113C380.742 113 380.486 112.902 380.291 112.707L376.768 109.183C376.377 108.792 376.377 108.16 376.768 107.769C377.159 107.378 377.791 107.378 378.182 107.769L381.705 111.293C382.096 111.684 382.096 112.316 381.705 112.707C381.51 112.902 381.254 113 380.998 113Z" fill="#67001B"/>
<path d="M383.266 110.732C382.29 109.756 380.706 109.756 379.73 110.732C378.754 111.708 378.754 113.292 379.73 114.268L388.73 123.268C389.706 124.244 391.29 124.244 392.266 123.268C393.242 122.292 393.242 120.708 392.266 119.732L383.266 110.732Z" fill="#DC244C"/>
<path d="M365.998 113C374.835 113 381.998 105.836 381.998 96.9999C381.998 88.1633 374.835 80.9999 365.998 80.9999C357.161 80.9999 349.998 88.1633 349.998 96.9999C349.998 105.836 357.161 113 365.998 113Z" fill="url(#paint0_linear_1945_37543)"/>
<path d="M365.998 79.9999C356.609 79.9999 348.998 87.6109 348.998 96.9999C348.998 106.389 356.609 114 365.998 114C375.387 114 382.998 106.389 382.998 96.9999C382.988 87.6149 375.383 80.0099 365.998 79.9999ZM365.998 112C357.714 112 350.998 105.284 350.998 96.9999C350.998 88.7159 357.714 81.9999 365.998 81.9999C374.282 81.9999 380.998 88.7159 380.998 96.9999C380.989 105.28 374.278 111.991 365.998 112Z" fill="#BE003A"/>
<defs>
<linearGradient id="paint0_linear_1945_37543" x1="356.46" y1="85.8461" x2="382" y2="113" gradientUnits="userSpaceOnUse">
<stop stop-color="#D9E2FE" stop-opacity="0"/>
<stop offset="1" stop-color="#89A9FF"/>
</linearGradient>
</defs>
</svg>
