<svg width="271" height="145" viewBox="0 0 271 145" fill="none" xmlns="http://www.w3.org/2000/svg">
<rect y="0.913086" width="271" height="144" rx="8" fill="#E1E5F0"/>
<rect x="18.3913" y="52.3913" width="43.0434" height="43.0434" rx="2.73913" fill="#D4D9E6"/>
<rect x="18.3913" y="52.3913" width="43.0434" height="43.0434" rx="2.73913" stroke="#717C99" stroke-width="0.782608"/>
<g clip-path="url(#clip0_1975_24442)">
<path d="M47.2767 66.5106C47.2042 66.5106 47.1307 66.496 47.0602 66.4636C46.7983 66.3442 46.6825 66.0348 46.802 65.7723C47.6534 63.9045 49.1973 62.957 51.3901 62.957C51.6781 62.957 51.9119 63.1902 51.9119 63.4788C51.9119 63.7673 51.6781 64.0005 51.3901 64.0005C49.6178 64.0005 48.4277 64.7216 47.751 66.2054C47.6639 66.3974 47.474 66.5106 47.2762 66.5106H47.2767Z" fill="#038585"/>
<path d="M30.7873 85.9124C30.048 85.9124 29.3118 85.6291 28.7546 85.0719C27.7262 84.0436 27.6287 82.4069 28.5266 81.2638L40.2469 66.3473C41.1563 65.19 42.5201 64.4763 43.9888 64.3881C45.4612 64.3 46.8975 64.8473 47.9384 65.8876C48.9793 66.9279 49.5255 68.3674 49.4379 69.8361C49.3502 71.3053 48.636 72.6697 47.4787 73.5791L32.5622 85.2989C32.0389 85.71 31.4118 85.9124 30.7873 85.9124Z" fill="#E0700D"/>
<path d="M32.6076 81.2182C32.474 81.2182 32.3404 81.167 32.2387 81.0653L30.5749 79.4015C30.3709 79.1975 30.3709 78.8677 30.5749 78.6637C30.7789 78.4597 31.1086 78.4597 31.3126 78.6637L32.9764 80.3276C33.1804 80.5316 33.1804 80.8613 32.9764 81.0653C32.8747 81.167 32.7411 81.2182 32.6076 81.2182Z" fill="#733501"/>
<path d="M40.956 71.8269C40.8225 71.8269 40.6889 71.7758 40.5871 71.674L38.3171 69.548C38.1131 69.344 38.1131 69.0142 38.3171 68.8102C38.5211 68.6062 38.8508 68.6062 39.0548 68.8102L41.3249 70.9363C41.5289 71.1403 41.5289 71.47 41.3249 71.674C41.2231 71.7758 41.0896 71.8269 40.956 71.8269Z" fill="#733501"/>
<path d="M39.6892 79.5575C39.5557 79.5575 39.4221 79.5064 39.3204 79.4047L37.4567 77.5655C37.2527 77.3615 37.2527 77.0318 37.4567 76.8278C37.6607 76.6238 37.9904 76.6238 38.1944 76.8278L40.0581 78.6669C40.2621 78.8709 40.2621 79.2007 40.0581 79.4047C39.9564 79.5064 39.8228 79.5575 39.6892 79.5575Z" fill="#733501"/>
</g>
<rect x="55.5654" y="48.8691" width="9.39129" height="9.39129" rx="1.56522" fill="#008A53"/>
<path d="M59.8277 55.5214C59.7333 55.5214 59.6429 55.4839 59.5762 55.4172L58.509 54.3501C58.4442 54.283 58.4084 54.1931 58.4092 54.0999C58.41 54.0066 58.4474 53.9174 58.5134 53.8514C58.5793 53.7855 58.6685 53.7481 58.7618 53.7473C58.8551 53.7464 58.9449 53.7823 59.012 53.8471L59.7946 54.6297L62.0366 51.7459C62.0946 51.6714 62.1797 51.6229 62.2734 51.6112C62.367 51.5994 62.4615 51.6254 62.5361 51.6833C62.6106 51.7412 62.6591 51.8264 62.6708 51.92C62.6825 52.0137 62.6566 52.1082 62.5987 52.1827L60.1087 55.3841C60.0777 55.4241 60.0386 55.457 59.994 55.4807C59.9493 55.5044 59.9002 55.5183 59.8497 55.5214H59.8277Z" fill="#E1E5F0"/>
<rect x="74.739" y="52.3913" width="43.0434" height="43.0434" rx="2.73913" stroke="#B4BACC" stroke-width="0.782608"/>
<g clip-path="url(#clip1_1975_24442)">
<path d="M96.2606 80.6957C96.1274 80.6959 95.9992 80.6452 95.9022 80.5539C95.8051 80.4626 95.7467 80.3377 95.7389 80.2047L94.7251 62.9566H91.0432C90.9048 62.9566 90.7721 62.9016 90.6743 62.8037C90.5765 62.7059 90.5215 62.5732 90.5215 62.4348C90.5215 62.2965 90.5765 62.1637 90.6743 62.0659C90.7721 61.9681 90.9048 61.9131 91.0432 61.9131H95.2171C95.3503 61.9129 95.4786 61.9636 95.5756 62.0549C95.6726 62.1461 95.731 62.2711 95.7389 62.404L96.7823 80.1431C96.7865 80.2117 96.7771 80.2804 96.7547 80.3453C96.7322 80.4102 96.6972 80.47 96.6516 80.5213C96.606 80.5727 96.5507 80.6145 96.4889 80.6444C96.4271 80.6743 96.3599 80.6917 96.2914 80.6957H96.2606Z" fill="#2F6FF0"/>
<path d="M103.043 73.913H89.4778C89.3394 73.913 89.2067 73.858 89.1089 73.7602C89.011 73.6623 88.9561 73.5296 88.9561 73.3913C88.9561 71.454 89.7256 69.5961 91.0954 68.2263C92.4653 66.8565 94.3232 66.0869 96.2604 66.0869C98.1976 66.0869 100.056 66.8565 101.425 68.2263C102.795 69.5961 103.565 71.454 103.565 73.3913C103.565 73.5296 103.51 73.6623 103.412 73.7602C103.314 73.858 103.181 73.913 103.043 73.913Z" fill="#89A9FF"/>
<path d="M88.9632 73.3916C88.9607 73.4066 88.959 73.4218 88.958 73.437L89.9185 84.4838C89.9525 84.874 90.1315 85.2372 90.4202 85.5019C90.7089 85.7666 91.0863 85.9134 91.478 85.9133H101.043C101.434 85.9134 101.812 85.7666 102.1 85.5019C102.389 85.2372 102.568 84.874 102.602 84.4838L103.565 73.437C103.564 73.4218 103.562 73.4066 103.559 73.3916H88.9632Z" fill="#004F4F"/>
<path d="M104.608 73.9126H87.9124C87.774 73.9126 87.6413 73.8576 87.5434 73.7598C87.4456 73.662 87.3906 73.5293 87.3906 73.3909C87.3906 73.2525 87.4456 73.1198 87.5434 73.022C87.6413 72.9241 87.774 72.8691 87.9124 72.8691H104.608C104.746 72.8691 104.879 72.9241 104.977 73.022C105.075 73.1198 105.13 73.2525 105.13 73.3909C105.13 73.5293 105.075 73.662 104.977 73.7598C104.879 73.8576 104.746 73.9126 104.608 73.9126Z" fill="#2F6FF0"/>
</g>
<rect x="131.087" y="52.3913" width="43.0434" height="43.0434" rx="2.73913" fill="#D4D9E6"/>
<rect x="131.087" y="52.3913" width="43.0434" height="43.0434" rx="2.73913" stroke="#717C99" stroke-width="0.782608"/>
<g clip-path="url(#clip2_1975_24442)">
<path d="M152.609 68.6945C152.47 68.6945 152.337 68.6395 152.24 68.5417C152.142 68.4438 152.087 68.3111 152.087 68.1728C152.087 66.3774 150.835 64.063 148.807 63.4552C148.674 63.4155 148.563 63.3247 148.497 63.2029C148.431 63.0811 148.417 62.9382 148.457 62.8056C148.496 62.6731 148.587 62.5617 148.709 62.4961C148.831 62.4304 148.974 62.4158 149.106 62.4555C151.592 63.2016 153.13 66.0039 153.13 68.1728C153.13 68.3111 153.075 68.4438 152.977 68.5417C152.88 68.6395 152.747 68.6945 152.609 68.6945Z" fill="#733501"/>
<path d="M155.281 85.3904C154.717 85.3797 154.154 85.3257 153.598 85.2287C153.27 85.1692 152.939 85.133 152.607 85.1202C152.274 85.133 151.943 85.1692 151.615 85.2287C149.779 85.5068 147.005 85.9268 144.342 81.6709C141.091 76.4687 141.773 70.4687 144.422 68.3353C146.422 66.7257 148.589 67.0868 150.502 67.4035C151.197 67.5401 151.901 67.6207 152.609 67.6445C153.316 67.6207 154.02 67.5401 154.715 67.4035C156.629 67.0863 158.795 66.7252 160.796 68.3353C163.445 70.4661 164.127 76.4671 160.871 81.6725C158.932 84.7727 156.933 85.3904 155.281 85.3904Z" fill="#008A53"/>
<path d="M157.826 61.3906V62.4341C157.826 63.4027 157.441 64.3317 156.756 65.0166C156.071 65.7015 155.142 66.0863 154.174 66.0863V65.0428C154.174 64.0742 154.559 63.1452 155.244 62.4603C155.928 61.7754 156.857 61.3906 157.826 61.3906Z" fill="#008A53"/>
</g>
<rect x="168.261" y="48.8691" width="9.39129" height="9.39129" rx="1.56522" fill="#008A53"/>
<path d="M172.524 55.5214C172.43 55.5214 172.339 55.4839 172.272 55.4172L171.205 54.3501C171.141 54.283 171.105 54.1931 171.105 54.0999C171.106 54.0066 171.144 53.9174 171.21 53.8514C171.276 53.7855 171.365 53.7481 171.458 53.7473C171.551 53.7464 171.641 53.7823 171.708 53.8471L172.491 54.6297L174.733 51.7459C174.791 51.6714 174.876 51.6229 174.97 51.6112C175.063 51.5994 175.158 51.6254 175.232 51.6833C175.307 51.7412 175.355 51.8264 175.367 51.92C175.379 52.0137 175.353 52.1082 175.295 52.1827L172.805 55.3841C172.774 55.4241 172.735 55.457 172.69 55.4807C172.646 55.5044 172.596 55.5183 172.546 55.5214H172.524Z" fill="#E1E5F0"/>
<rect x="187.434" y="52.3913" width="43.0434" height="43.0434" rx="2.73913" stroke="#B4BACC" stroke-width="0.782608"/>
<path d="M203.455 84.4694C203.317 84.4694 203.184 84.4144 203.086 84.3165L198.527 79.7565C198.458 79.6869 198.409 79.5991 198.388 79.5032C198.366 79.4073 198.372 79.3073 198.405 79.2146C198.437 79.1219 198.496 79.0403 198.573 78.9793C198.65 78.9182 198.743 78.8802 198.84 78.8696L203.969 78.2998C204.047 78.2915 204.125 78.3008 204.199 78.3269C204.272 78.3529 204.339 78.3952 204.394 78.4505C204.449 78.5059 204.491 78.5728 204.517 78.6465C204.543 78.7202 204.551 78.7988 204.543 78.8763L203.973 84.0045C203.959 84.1321 203.898 84.2499 203.802 84.3355C203.707 84.4211 203.583 84.4684 203.454 84.4683L203.455 84.4694Z" fill="#2F6FF0"/>
<path d="M211.766 71.0657C210.141 69.3963 209.044 67.286 208.61 64.9974C208.599 65.0021 208.588 65.0057 208.577 65.0109C206.708 64.3228 204.029 64.4 202.516 65.9135C202.453 65.9771 202.406 66.0561 202.382 66.1428C202.358 66.2295 202.357 66.3209 202.379 66.4083C202.4 66.4956 202.444 66.5758 202.506 66.6411C202.568 66.7065 202.646 66.7547 202.732 66.7812C203.627 67.1201 204.389 67.7378 204.906 68.5431C202.093 73.2059 203.459 78.7118 203.519 78.9486C203.543 79.039 203.59 79.1215 203.656 79.1875C203.722 79.2534 203.804 79.3005 203.895 79.3238C205.063 79.5935 206.259 79.7257 207.458 79.7177C210.059 79.7177 213.597 79.1026 216.36 76.3384C216.899 75.7977 217.359 75.1828 217.725 74.5123C215.455 73.9433 213.391 72.7493 211.766 71.0657Z" fill="#0040A1"/>
<path d="M218.324 64.8866C218.298 64.8045 218.253 64.73 218.192 64.6696C218.131 64.6093 218.055 64.565 217.973 64.5406C217.753 64.4759 212.654 63.0099 208.609 64.9956C209.044 67.2842 210.141 69.3946 211.766 71.0639C213.391 72.7463 215.456 73.9393 217.725 74.5074C219.981 70.4034 218.403 65.1443 218.324 64.8866Z" fill="#2F6FF0"/>
<path d="M213.652 68.1739C214.228 68.1739 214.695 67.7067 214.695 67.1304C214.695 66.5541 214.228 66.0869 213.652 66.0869C213.076 66.0869 212.608 66.5541 212.608 67.1304C212.608 67.7067 213.076 68.1739 213.652 68.1739Z" fill="#C0F0F0"/>
<path d="M242.607 106C242.406 106 242.206 105.923 242.053 105.771L239.296 103.013C238.99 102.707 238.99 102.212 239.296 101.906C239.602 101.6 240.097 101.6 240.403 101.906L243.16 104.664C243.466 104.97 243.466 105.465 243.16 105.771C243.007 105.923 242.807 106 242.607 106Z" fill="#67001B"/>
<path d="M244.382 104.225C243.618 103.461 242.379 103.461 241.615 104.225C240.851 104.989 240.851 106.229 241.615 106.993L248.658 114.036C249.422 114.8 250.662 114.8 251.426 114.036C252.189 113.272 252.189 112.033 251.426 111.269L244.382 104.225Z" fill="#DC244C"/>
<path d="M230.867 106C237.783 106 243.389 100.393 243.389 93.4778C243.389 86.5622 237.783 80.9561 230.867 80.9561C223.952 80.9561 218.346 86.5622 218.346 93.4778C218.346 100.393 223.952 106 230.867 106Z" fill="url(#paint0_linear_1975_24442)"/>
<path d="M230.868 80.1738C223.52 80.1738 217.563 86.1303 217.563 93.4782C217.563 100.826 223.52 106.782 230.868 106.782C238.216 106.782 244.172 100.826 244.172 93.4782C244.164 86.1334 238.213 80.1817 230.868 80.1738ZM230.868 105.217C224.385 105.217 219.129 99.9613 219.129 93.4782C219.129 86.995 224.385 81.739 230.868 81.739C237.351 81.739 242.607 86.995 242.607 93.4782C242.6 99.9581 237.348 105.21 230.868 105.217Z" fill="#BE003A"/>
<defs>
<linearGradient id="paint0_linear_1975_24442" x1="223.403" y1="84.7487" x2="243.391" y2="106" gradientUnits="userSpaceOnUse">
<stop stop-color="#D9E2FE" stop-opacity="0"/>
<stop offset="1" stop-color="#89A9FF"/>
</linearGradient>
<clipPath id="clip0_1975_24442">
<rect width="25.0434" height="25.0434" fill="white" transform="translate(27.3906 61.3916)"/>
</clipPath>
<clipPath id="clip1_1975_24442">
<rect width="25.0434" height="25.0434" fill="white" transform="translate(83.7393 61.3916)"/>
</clipPath>
<clipPath id="clip2_1975_24442">
<rect width="25.0434" height="25.0434" fill="white" transform="translate(140.087 61.3916)"/>
</clipPath>
</defs>
</svg>
