<svg width="459" height="144" viewBox="0 0 459 144" fill="none" xmlns="http://www.w3.org/2000/svg">
<rect width="459" height="144" rx="8" fill="#E1E5F0"/>
<path d="M133.158 72H183.477" stroke="#8F98B3" stroke-dasharray="6.14 6.14"/>
<path d="M263 72L304 71.9999" stroke="#8F98B3" stroke-dasharray="6.14 6.14"/>
<path d="M223 72H264.466C268.884 72 272.466 68.4183 272.466 64V43C272.466 38.5817 276.047 35 280.466 35H304" stroke="#8F98B3" stroke-dasharray="6.14 6.14"/>
<path d="M223 72H264.466C268.884 72 272.466 75.5817 272.466 80V98C272.466 102.418 276.047 106 280.466 106H304" stroke="#8F98B3" stroke-dasharray="6.14 6.14"/>
<path fill-rule="evenodd" clip-rule="evenodd" d="M133.434 55.9995L105.719 72L105.721 104L133.434 87.9994V55.9995Z" fill="url(#paint0_linear_1945_37306)"/>
<path fill-rule="evenodd" clip-rule="evenodd" d="M78.0039 55.9995L105.719 72L105.717 104L78.0039 87.9994V55.9995Z" fill="url(#paint1_linear_1945_37306)"/>
<path fill-rule="evenodd" clip-rule="evenodd" d="M133.429 56L105.72 72L78.0039 56L105.716 40L133.429 56Z" fill="url(#paint2_linear_1945_37306)"/>
<g clip-path="url(#clip0_1945_37306)">
<path fill-rule="evenodd" clip-rule="evenodd" d="M118.52 64.7281L118.521 64.7272L112.222 61.0908L105.925 57.4545L99.6254 61.0908L93.3281 64.7272L93.3284 64.728V79.2725L99.6259 82.9088L105.925 86.5454V86.5458L109.955 84.2208L109.955 84.2205L109.955 84.2204V79.2726L105.925 81.5997L101.768 79.2001L97.6121 76.8007V67.2013L101.768 64.8018L105.925 62.4024L110.081 64.8018L114.238 67.2013V86.5456L114.238 86.5454L114.238 86.5467L118.522 84.0745V64.7283L118.52 64.7281ZM105.925 76.6537L109.955 74.3268V69.6749L105.925 67.348L101.896 69.6749V74.3268L105.925 76.6537Z" fill="white"/>
</g>
<rect x="188.387" y="53.5909" width="34.3636" height="34.3636" rx="4.90909" fill="#2F6FF0"/>
<g clip-path="url(#clip1_1945_37306)">
<path d="M201.068 67.875H211.807" stroke="#F0F3FA" stroke-width="1.43182" stroke-linecap="round" stroke-linejoin="round"/>
<path d="M211.807 75.3921V63.5796H201.068V76.8239" stroke="#F0F3FA" stroke-width="1.43182" stroke-linecap="round" stroke-linejoin="round"/>
<path d="M198.564 79.3296C199.948 79.3296 201.07 78.2078 201.07 76.8239C201.07 75.4401 199.948 74.3182 198.564 74.3182C197.18 74.3182 196.059 75.4401 196.059 76.8239C196.059 78.2078 197.18 79.3296 198.564 79.3296Z" stroke="#F0F3FA" stroke-width="1.43182" stroke-linecap="round" stroke-linejoin="round"/>
<path d="M209.303 77.8977C210.686 77.8977 211.808 76.7759 211.808 75.392C211.808 74.0082 210.686 72.8864 209.303 72.8864C207.919 72.8864 206.797 74.0082 206.797 75.392C206.797 76.7759 207.919 77.8977 209.303 77.8977Z" stroke="#F0F3FA" stroke-width="1.43182" stroke-linecap="round" stroke-linejoin="round"/>
</g>
<rect x="303.75" y="22.9091" width="80" height="24" rx="4" fill="#F0F3FA"/>
<g clip-path="url(#clip2_1945_37306)">
<path d="M315.75 40.4091C318.788 40.4091 321.25 37.9466 321.25 34.9091C321.25 31.8715 318.788 29.4091 315.75 29.4091C312.712 29.4091 310.25 31.8715 310.25 34.9091C310.25 37.9466 312.712 40.4091 315.75 40.4091Z" fill="#161E33"/>
<path d="M314.75 36.9091V32.9091L317.75 34.9091L314.75 36.9091Z" fill="#D4D9E6"/>
</g>
<rect x="329.75" y="31.6818" width="32" height="2" rx="1" fill="#D4D9E6"/>
<rect x="329.75" y="36.1364" width="19.6364" height="2" rx="1" fill="#D4D9E6"/>
<g clip-path="url(#clip3_1945_37306)">
<path d="M375.455 30.9092C375.131 30.9096 374.811 30.9792 374.516 31.1134C374.221 31.2475 373.958 31.4432 373.744 31.6872C373.438 31.3378 373.032 31.0902 372.581 30.9775C372.13 30.8648 371.656 30.8924 371.221 31.0566C370.786 31.2209 370.412 31.5138 370.148 31.8964C369.884 32.2791 369.743 32.7331 369.744 33.1978C369.744 35.2752 373.363 38.6758 373.517 38.8198C373.579 38.8774 373.66 38.9094 373.744 38.9094C373.829 38.9094 373.91 38.8774 373.971 38.8198C374.125 38.6758 377.744 35.2752 377.744 33.1978C377.743 32.5911 377.502 32.0093 377.073 31.5803C376.644 31.1512 376.062 30.9099 375.455 30.9092Z" fill="#DC244C"/>
</g>
<rect x="303.75" y="60" width="80" height="24" rx="4" fill="#F0F3FA"/>
<g clip-path="url(#clip4_1945_37306)">
<path d="M315.75 77.5C318.788 77.5 321.25 75.0376 321.25 72C321.25 68.9624 318.788 66.5 315.75 66.5C312.712 66.5 310.25 68.9624 310.25 72C310.25 75.0376 312.712 77.5 315.75 77.5Z" fill="#161E33"/>
<path d="M314.75 74V70L317.75 72L314.75 74Z" fill="#D4D9E6"/>
</g>
<rect x="329.75" y="68.7727" width="32" height="2" rx="1" fill="#D4D9E6"/>
<rect x="329.75" y="73.2273" width="19.6364" height="2" rx="1" fill="#D4D9E6"/>
<g clip-path="url(#clip5_1945_37306)">
<path d="M375.455 68.0001C375.131 68.0005 374.811 68.0701 374.516 68.2043C374.221 68.3385 373.958 68.5341 373.744 68.7781C373.438 68.4287 373.032 68.1811 372.581 68.0684C372.13 67.9558 371.656 67.9834 371.221 68.1476C370.786 68.3118 370.412 68.6048 370.148 68.9874C369.884 69.37 369.743 69.824 369.744 70.2888C369.744 72.3661 373.363 75.7668 373.517 75.9108C373.579 75.9683 373.66 76.0003 373.744 76.0003C373.829 76.0003 373.91 75.9683 373.971 75.9108C374.125 75.7668 377.744 72.3661 377.744 70.2888C377.743 69.682 377.502 69.1003 377.073 68.6712C376.644 68.2422 376.062 68.0008 375.455 68.0001Z" fill="#DC244C"/>
</g>
<rect x="303.75" y="94" width="80" height="24" rx="4" fill="#F0F3FA"/>
<g clip-path="url(#clip6_1945_37306)">
<path d="M315.75 111.5C318.788 111.5 321.25 109.038 321.25 106C321.25 102.962 318.788 100.5 315.75 100.5C312.712 100.5 310.25 102.962 310.25 106C310.25 109.038 312.712 111.5 315.75 111.5Z" fill="#161E33"/>
<path d="M314.75 108V104L317.75 106L314.75 108Z" fill="#D4D9E6"/>
</g>
<rect x="329.75" y="102.773" width="32" height="2" rx="1" fill="#D4D9E6"/>
<rect x="329.75" y="107.227" width="19.6364" height="2" rx="1" fill="#D4D9E6"/>
<g clip-path="url(#clip7_1945_37306)">
<path d="M375.455 102C375.131 102.001 374.811 102.07 374.516 102.204C374.221 102.338 373.958 102.534 373.744 102.778C373.438 102.429 373.032 102.181 372.581 102.068C372.13 101.956 371.656 101.983 371.221 102.148C370.786 102.312 370.412 102.605 370.148 102.987C369.884 103.37 369.743 103.824 369.744 104.289C369.744 106.366 373.363 109.767 373.517 109.911C373.579 109.968 373.66 110 373.744 110C373.829 110 373.91 109.968 373.971 109.911C374.125 109.767 377.744 106.366 377.744 104.289C377.743 103.682 377.502 103.1 377.073 102.671C376.644 102.242 376.062 102.001 375.455 102Z" fill="#DC244C"/>
</g>
<defs>
<linearGradient id="paint0_linear_1945_37306" x1="119.576" y1="55.9995" x2="119.576" y2="104" gradientUnits="userSpaceOnUse">
<stop stop-color="#161E33"/>
<stop offset="1" stop-color="#0E1424"/>
</linearGradient>
<linearGradient id="paint1_linear_1945_37306" x1="91.8613" y1="55.9995" x2="91.8613" y2="104" gradientUnits="userSpaceOnUse">
<stop stop-color="#161E33"/>
<stop offset="1" stop-color="#0E1424"/>
</linearGradient>
<linearGradient id="paint2_linear_1945_37306" x1="105.717" y1="40" x2="105.717" y2="72" gradientUnits="userSpaceOnUse">
<stop stop-color="#2F3F6D"/>
<stop offset="0.355174" stop-color="#233053"/>
<stop offset="1" stop-color="#0E1424"/>
</linearGradient>
<clipPath id="clip0_1945_37306">
<rect width="25.0909" height="29.0909" fill="white" transform="translate(93.3281 57.4545)"/>
</clipPath>
<clipPath id="clip1_1945_37306">
<rect width="17.1818" height="17.1818" fill="white" transform="translate(195.342 62.8636)"/>
</clipPath>
<clipPath id="clip2_1945_37306">
<rect width="12" height="12" fill="white" transform="translate(309.75 28.9091)"/>
</clipPath>
<clipPath id="clip3_1945_37306">
<rect width="8" height="8" fill="white" transform="translate(369.75 30.9091)"/>
</clipPath>
<clipPath id="clip4_1945_37306">
<rect width="12" height="12" fill="white" transform="translate(309.75 66)"/>
</clipPath>
<clipPath id="clip5_1945_37306">
<rect width="8" height="8" fill="white" transform="translate(369.75 68)"/>
</clipPath>
<clipPath id="clip6_1945_37306">
<rect width="12" height="12" fill="white" transform="translate(309.75 100)"/>
</clipPath>
<clipPath id="clip7_1945_37306">
<rect width="8" height="8" fill="white" transform="translate(369.75 102)"/>
</clipPath>
</defs>
</svg>
