<svg width="271" height="145" viewBox="0 0 271 145" fill="none" xmlns="http://www.w3.org/2000/svg">
<rect y="0.913086" width="271" height="144" rx="8" fill="#E1E5F0"/>
<path d="M63.6432 72.5254H101.354" stroke="#8F98B3" stroke-width="0.749438" stroke-dasharray="4.6 4.6"/>
<path d="M160.952 72.5254L191.679 72.5253" stroke="#8F98B3" stroke-width="0.749438" stroke-dasharray="4.6 4.6"/>
<path d="M130.974 72.5261H162.05C165.361 72.5261 168.046 69.8418 168.046 66.5306V50.7924C168.046 47.4812 170.73 44.7969 174.041 44.7969H191.679" stroke="#8F98B3" stroke-width="0.749438" stroke-dasharray="4.6 4.6"/>
<path d="M130.974 72.526H162.05C165.361 72.526 168.046 75.2102 168.046 78.5215V92.0113C168.046 95.3226 170.73 98.0068 174.041 98.0068H191.679" stroke="#8F98B3" stroke-width="0.749438" stroke-dasharray="4.6 4.6"/>
<path fill-rule="evenodd" clip-rule="evenodd" d="M63.8477 60.5342L43.0772 72.5255L43.0787 96.5075L63.8477 84.5161V60.5342Z" fill="url(#paint0_linear_1975_24404)"/>
<path fill-rule="evenodd" clip-rule="evenodd" d="M22.3066 60.5342L43.0771 72.5255L43.0756 96.5075L22.3066 84.5161V60.5342Z" fill="url(#paint1_linear_1975_24404)"/>
<path fill-rule="evenodd" clip-rule="evenodd" d="M63.8455 60.535L43.0792 72.526L22.3076 60.535L43.0763 48.5439L63.8455 60.535Z" fill="url(#paint2_linear_1975_24404)"/>
<g clip-path="url(#clip0_1975_24404)">
<path fill-rule="evenodd" clip-rule="evenodd" d="M52.6873 67.0947L52.6884 67.094L47.9675 64.3688L43.2479 61.6436L38.5271 64.3688L33.8076 67.094L33.8079 67.0947V77.9948L38.5274 80.72L43.2483 83.4454V83.4457L46.2682 81.7032L46.2683 81.703L46.2682 81.7029V77.9949L43.2483 79.7389L40.1325 77.9406L37.0182 76.1423V68.9482L40.1325 67.1499L43.2483 65.3517L46.3626 67.1499L49.4784 68.9482V83.4455L49.4782 83.4454L49.4786 83.4464L52.6888 81.5936V67.0949L52.6873 67.0947ZM43.2483 76.0322L46.2682 74.2883V70.802L43.2483 69.0582L40.2284 70.802V74.2883L43.2483 76.0322Z" fill="white"/>
</g>
<rect x="105.033" y="58.7295" width="25.7534" height="25.7534" rx="3.67906" fill="#2F6FF0"/>
<g clip-path="url(#clip1_1975_24404)">
<path d="M114.537 69.4355H122.585" stroke="#F0F3FA" stroke-width="1.07306" stroke-linecap="round" stroke-linejoin="round"/>
<path d="M122.585 75.0686V66.2158H114.537V76.1416" stroke="#F0F3FA" stroke-width="1.07306" stroke-linecap="round" stroke-linejoin="round"/>
<path d="M112.659 78.0194C113.696 78.0194 114.537 77.1786 114.537 76.1415C114.537 75.1044 113.696 74.2637 112.659 74.2637C111.622 74.2637 110.781 75.1044 110.781 76.1415C110.781 77.1786 111.622 78.0194 112.659 78.0194Z" stroke="#F0F3FA" stroke-width="1.07306" stroke-linecap="round" stroke-linejoin="round"/>
<path d="M120.707 76.9471C121.744 76.9471 122.585 76.1064 122.585 75.0693C122.585 74.0321 121.744 73.1914 120.707 73.1914C119.67 73.1914 118.829 74.0321 118.829 75.0693C118.829 76.1064 119.67 76.9471 120.707 76.9471Z" stroke="#F0F3FA" stroke-width="1.07306" stroke-linecap="round" stroke-linejoin="round"/>
</g>
<rect x="191.49" y="35.7354" width="59.955" height="17.9865" rx="2.99775" fill="#F0F3FA"/>
<g clip-path="url(#clip2_1975_24404)">
<path d="M200.483 48.8503C202.76 48.8503 204.605 47.0048 204.605 44.7284C204.605 42.4519 202.76 40.6064 200.483 40.6064C198.207 40.6064 196.361 42.4519 196.361 44.7284C196.361 47.0048 198.207 48.8503 200.483 48.8503Z" fill="#161E33"/>
<path d="M199.733 46.2272V43.2295L201.982 44.7284L199.733 46.2272Z" fill="#D4D9E6"/>
</g>
<rect x="210.976" y="42.3105" width="23.982" height="1.49888" rx="0.749438" fill="#D4D9E6"/>
<rect x="210.976" y="45.6484" width="14.7162" height="1.49888" rx="0.749438" fill="#D4D9E6"/>
<g clip-path="url(#clip3_1975_24404)">
<path d="M245.229 41.7314C244.986 41.7317 244.745 41.7839 244.524 41.8845C244.303 41.985 244.106 42.1316 243.946 42.3145C243.716 42.0526 243.412 41.8671 243.074 41.7826C242.736 41.6982 242.381 41.7189 242.055 41.842C241.729 41.965 241.448 42.1846 241.251 42.4713C241.053 42.7581 240.947 43.0983 240.948 43.4467C240.948 45.0035 243.66 47.5521 243.776 47.66C243.822 47.7031 243.883 47.7271 243.946 47.7271C244.009 47.7271 244.07 47.7031 244.116 47.66C244.232 47.5521 246.944 45.0035 246.944 43.4467C246.943 42.9919 246.762 42.556 246.441 42.2344C246.119 41.9129 245.683 41.732 245.229 41.7314Z" fill="#DC244C"/>
</g>
<rect x="191.49" y="63.5322" width="59.955" height="17.9865" rx="2.99775" fill="#F0F3FA"/>
<g clip-path="url(#clip4_1975_24404)">
<path d="M200.483 76.6471C202.76 76.6471 204.605 74.8017 204.605 72.5252C204.605 70.2488 202.76 68.4033 200.483 68.4033C198.207 68.4033 196.361 70.2488 196.361 72.5252C196.361 74.8017 198.207 76.6471 200.483 76.6471Z" fill="#161E33"/>
<path d="M199.733 74.0241V71.0264L201.982 72.5252L199.733 74.0241Z" fill="#D4D9E6"/>
</g>
<rect x="210.976" y="70.1074" width="23.982" height="1.49888" rx="0.749438" fill="#D4D9E6"/>
<rect x="210.976" y="73.4453" width="14.7162" height="1.49888" rx="0.749438" fill="#D4D9E6"/>
<g clip-path="url(#clip5_1975_24404)">
<path d="M245.229 69.5273C244.986 69.5276 244.745 69.5798 244.524 69.6804C244.303 69.7809 244.106 69.9275 243.946 70.1104C243.716 69.8485 243.412 69.663 243.074 69.5785C242.736 69.4941 242.381 69.5148 242.055 69.6379C241.729 69.7609 241.448 69.9805 241.251 70.2672C241.053 70.554 240.947 70.8942 240.948 71.2426C240.948 72.7994 243.66 75.348 243.776 75.4559C243.822 75.499 243.883 75.523 243.946 75.523C244.009 75.523 244.07 75.499 244.116 75.4559C244.232 75.348 246.944 72.7994 246.944 71.2426C246.943 70.7878 246.762 70.3519 246.441 70.0303C246.119 69.7088 245.683 69.5279 245.229 69.5273Z" fill="#DC244C"/>
</g>
<rect x="191.49" y="89.0137" width="59.955" height="17.9865" rx="2.99775" fill="#F0F3FA"/>
<g clip-path="url(#clip6_1975_24404)">
<path d="M200.483 102.129C202.76 102.129 204.605 100.283 204.605 98.0067C204.605 95.7302 202.76 93.8848 200.483 93.8848C198.207 93.8848 196.361 95.7302 196.361 98.0067C196.361 100.283 198.207 102.129 200.483 102.129Z" fill="#161E33"/>
<path d="M199.733 99.5056V96.5078L201.982 98.0067L199.733 99.5056Z" fill="#D4D9E6"/>
</g>
<rect x="210.976" y="95.5889" width="23.982" height="1.49888" rx="0.749438" fill="#D4D9E6"/>
<rect x="210.976" y="98.9268" width="14.7162" height="1.49888" rx="0.749438" fill="#D4D9E6"/>
<g clip-path="url(#clip7_1975_24404)">
<path d="M245.229 95.0088C244.986 95.0091 244.745 95.0613 244.524 95.1618C244.303 95.2624 244.106 95.409 243.946 95.5919C243.716 95.33 243.412 95.1444 243.074 95.06C242.736 94.9755 242.381 94.9962 242.055 95.1193C241.729 95.2424 241.448 95.4619 241.251 95.7487C241.053 96.0354 240.947 96.3757 240.948 96.724C240.948 98.2808 243.66 100.829 243.776 100.937C243.822 100.98 243.883 101.004 243.946 101.004C244.009 101.004 244.07 100.98 244.116 100.937C244.232 100.829 246.944 98.2808 246.944 96.724C246.943 96.2693 246.762 95.8333 246.441 95.5117C246.119 95.1902 245.683 95.0093 245.229 95.0088Z" fill="#DC244C"/>
</g>
<defs>
<linearGradient id="paint0_linear_1975_24404" x1="53.4624" y1="60.5342" x2="53.4624" y2="96.5075" gradientUnits="userSpaceOnUse">
<stop stop-color="#161E33"/>
<stop offset="1" stop-color="#0E1424"/>
</linearGradient>
<linearGradient id="paint1_linear_1975_24404" x1="32.6919" y1="60.5342" x2="32.6919" y2="96.5075" gradientUnits="userSpaceOnUse">
<stop stop-color="#161E33"/>
<stop offset="1" stop-color="#0E1424"/>
</linearGradient>
<linearGradient id="paint2_linear_1975_24404" x1="43.0766" y1="48.5439" x2="43.0766" y2="72.526" gradientUnits="userSpaceOnUse">
<stop stop-color="#2F3F6D"/>
<stop offset="0.355174" stop-color="#233053"/>
<stop offset="1" stop-color="#0E1424"/>
</linearGradient>
<clipPath id="clip0_1975_24404">
<rect width="18.8041" height="21.8018" fill="white" transform="translate(33.8076 61.6436)"/>
</clipPath>
<clipPath id="clip1_1975_24404">
<rect width="12.8767" height="12.8767" fill="white" transform="translate(110.245 65.6797)"/>
</clipPath>
<clipPath id="clip2_1975_24404">
<rect width="8.99325" height="8.99325" fill="white" transform="translate(195.987 40.2324)"/>
</clipPath>
<clipPath id="clip3_1975_24404">
<rect width="5.9955" height="5.9955" fill="white" transform="translate(240.953 41.7305)"/>
</clipPath>
<clipPath id="clip4_1975_24404">
<rect width="8.99325" height="8.99325" fill="white" transform="translate(195.987 68.0293)"/>
</clipPath>
<clipPath id="clip5_1975_24404">
<rect width="5.9955" height="5.9955" fill="white" transform="translate(240.953 69.5273)"/>
</clipPath>
<clipPath id="clip6_1975_24404">
<rect width="8.99325" height="8.99325" fill="white" transform="translate(195.987 93.5107)"/>
</clipPath>
<clipPath id="clip7_1975_24404">
<rect width="5.9955" height="5.9955" fill="white" transform="translate(240.953 95.0088)"/>
</clipPath>
</defs>
</svg>
