<svg width="30" height="30" viewBox="0 0 30 30" fill="none" xmlns="http://www.w3.org/2000/svg">
<path d="M7.79622 7.91285C7.50201 7.40215 7.33577 6.82783 7.3117 6.23894C7.28998 5.7525 7.36574 5.26663 7.53454 4.80991C7.70334 4.35318 7.96177 3.93482 8.29462 3.57943C8.62748 3.22404 9.02803 2.9388 9.47274 2.74048C9.91744 2.54216 10.3973 2.43477 10.8841 2.42462C11.3709 2.41447 11.8549 2.50178 12.3075 2.68139C12.76 2.86101 13.1721 3.12931 13.5195 3.47052C13.8669 3.81173 14.1425 4.21896 14.3302 4.66826C14.5179 5.11755 14.6138 5.59984 14.6124 6.08676M14.6124 6.08676V21.9128M21.4286 7.91285C21.7232 7.40226 21.8886 6.82793 21.9131 6.23894C21.9348 5.7525 21.859 5.26663 21.6902 4.80991C21.5214 4.35318 21.263 3.93482 20.9302 3.57943C20.5973 3.22404 20.1968 2.9388 19.7521 2.74048C19.3073 2.54216 18.8275 2.43477 18.3407 2.42462C17.8538 2.41447 17.3699 2.50178 16.9173 2.68139C16.4648 2.86101 16.0527 3.12931 15.7053 3.47052C15.3579 3.81173 15.0823 4.21896 14.8946 4.66826C14.7069 5.11755 14.611 5.59984 14.6124 6.08676M7.3117 6.23894C6.59612 6.42293 5.93179 6.76735 5.36902 7.2461C4.80626 7.72485 4.35982 8.32539 4.06351 9.00223C3.7672 9.67907 3.6288 10.4145 3.65878 11.1527C3.68877 11.891 3.88635 12.6127 4.23657 13.2633M4.94874 12.7824C4.6976 12.9218 4.45928 13.0819 4.23657 13.2633C3.62079 13.7635 3.13657 14.4067 2.82603 15.1368C2.51548 15.8668 2.38803 16.6617 2.45475 17.4523C2.52147 18.2429 2.78035 19.0052 3.20885 19.6729C3.63736 20.3406 4.22253 20.8935 4.91344 21.2835M4.91344 21.2835C4.82812 21.9436 4.87904 22.6142 5.06304 23.2538C5.24705 23.8935 5.56023 24.4887 5.98326 25.0025C6.40629 25.5164 6.93018 25.9381 7.52258 26.2416C8.11497 26.5451 8.76329 26.7239 9.4275 26.767C10.0917 26.8101 10.7577 26.7166 11.3843 26.4922C12.011 26.2678 12.585 25.9174 13.0709 25.4625C13.5568 25.0076 13.9443 24.4579 14.2094 23.8474C14.4745 23.2368 14.6117 22.5785 14.6124 21.9128M4.91344 21.2835C5.6442 21.6956 6.46906 21.9132 7.30805 21.9129M14.6124 21.9128C14.6131 22.5785 14.7503 23.2368 15.0154 23.8474C15.2805 24.4579 15.668 25.0076 16.1539 25.4625C16.6398 25.9174 17.2138 26.2678 17.8404 26.4922C18.4671 26.7166 19.1331 26.8101 19.7973 26.767C20.4615 26.7239 21.1098 26.5451 21.7022 26.2416C22.2946 25.9381 22.8185 25.5164 23.2415 25.0025C23.6646 24.4887 23.9777 23.8935 24.1617 23.2538C24.3458 22.6142 24.3967 21.9436 24.3113 21.2835M21.9131 6.23894C22.6287 6.42293 23.293 6.76735 23.8558 7.2461C24.4185 7.72485 24.865 8.32539 25.1613 9.00223C25.4576 9.67907 25.596 10.4145 25.566 11.1527C25.536 11.891 25.3384 12.6127 24.9882 13.2633M24.276 12.7824C24.5272 12.9218 24.7655 13.0819 24.9882 13.2633C25.604 13.7635 26.0882 14.4067 26.3988 15.1368C26.7093 15.8668 26.8368 16.6617 26.77 17.4523C26.7033 18.2429 26.4444 19.0052 26.0159 19.6729C25.5874 20.3406 25.0023 20.8935 24.3113 21.2835M24.3113 21.2835C23.5806 21.6956 22.7557 21.9132 21.9167 21.9129M18.2646 15.8259C17.2425 15.4663 16.35 14.8118 15.6999 13.945C15.0498 13.0783 14.6714 12.0382 14.6124 10.9563C14.5534 12.0382 14.1749 13.0783 13.5249 13.945C12.8748 14.8118 11.9823 15.4663 10.9602 15.8259" stroke="#9494FF" stroke-width="2.43478" stroke-linecap="round" stroke-linejoin="round"/>
</svg>
