<svg width="30" height="30" viewBox="0 0 30 30" fill="none" xmlns="http://www.w3.org/2000/svg">
<path d="M25.5615 6.08772C25.5615 8.10476 20.6561 9.73989 14.605 9.73989C8.55384 9.73989 3.64844 8.10476 3.64844 6.08772M25.5615 6.08772C25.5615 4.07068 20.6561 2.43555 14.605 2.43555C8.55384 2.43555 3.64844 4.07068 3.64844 6.08772M25.5615 6.08772V23.1312C25.5615 24.0998 24.4071 25.0288 22.3524 25.7137C20.2976 26.3986 17.5108 26.7834 14.605 26.7834C11.6991 26.7834 8.91227 26.3986 6.85753 25.7137C4.80278 25.0288 3.64844 24.0998 3.64844 23.1312V6.08772M3.64844 14.6095C3.64844 15.5781 4.80278 16.507 6.85753 17.1919C8.91227 17.8769 11.6991 18.2616 14.605 18.2616C17.5108 18.2616 20.2976 17.8769 22.3524 17.1919C24.4071 16.507 25.5615 15.5781 25.5615 14.6095" stroke="#29B6F6" stroke-width="2.43478" stroke-linecap="round" stroke-linejoin="round"/>
</svg>
