<svg width="118" height="92" viewBox="0 0 118 92" fill="none" xmlns="http://www.w3.org/2000/svg">
<g clip-path="url(#clip0_1951_11085)">
<ellipse cx="57.751" cy="44.749" rx="35.75" ry="35.75" fill="url(#paint0_radial_1951_11085)"/>
<g style="mix-blend-mode:multiply" opacity="0.1">
<path d="M24.7704 30.9966C25.0154 30.3916 25.3154 29.7316 25.6354 29.0816C25.7104 28.9216 25.7904 28.7666 25.8704 28.6116C25.9004 28.5516 25.9354 28.4916 25.9654 28.4316C26.0554 28.2566 26.1454 28.0816 26.2354 27.9116C26.7104 27.0166 27.2104 26.1766 27.7204 25.3816C27.8854 25.1216 28.0504 24.8666 28.2254 24.6116C28.2454 24.5816 28.2704 24.5466 28.2904 24.5166C28.4154 24.3366 28.5354 24.1616 28.6604 23.9866C28.7754 23.8216 28.8904 23.6716 29.0104 23.5116C31.5654 22.3216 34.7404 21.2516 40.0554 20.6716C40.5704 20.6166 41.1054 20.5566 41.5554 20.5616C42.4804 20.5716 42.7054 20.8416 42.4854 21.1166C41.8654 21.8866 38.7954 22.6866 37.4804 23.4866C36.0754 24.3416 36.8754 25.0616 36.0554 25.8916C35.4654 26.4916 34.0754 27.1166 32.7054 27.7266C29.9004 28.9716 27.2254 30.2266 24.5754 31.4816C24.6404 31.3166 24.7054 31.1516 24.7804 30.9866L24.7704 30.9966ZM93.2904 49.5116C93.2904 49.5116 93.2904 49.4816 93.2954 49.4616C93.3254 49.2366 93.3554 48.9966 93.3804 48.7466C93.3954 48.5966 93.4104 48.4416 93.4254 48.2916C93.4254 48.2416 93.4354 48.1916 93.4404 48.1416C93.4804 47.7016 93.5204 47.2516 93.5454 46.7866C93.5804 46.2666 93.5904 45.6916 93.5904 45.0966C93.5904 44.8516 93.5904 44.6016 93.5904 44.3516V43.9866C93.5904 43.8766 93.5804 43.7566 93.5754 43.6416C93.5504 42.9166 93.5104 42.2066 93.4554 41.5616C93.4554 41.5116 93.4504 41.4566 93.4454 41.4066C93.4204 41.1066 93.3854 40.7816 93.3454 40.4516C87.1004 41.6816 80.7304 42.9116 75.2104 44.3116C66.2254 46.5916 59.3154 49.4066 50.0154 51.5816C42.4004 53.3616 33.8154 54.5616 25.6254 56.0016C25.0404 56.1066 24.4604 56.2166 23.8754 56.3216C24.5754 58.4316 25.6154 60.8116 27.1554 63.3116C27.2654 63.4966 27.3704 63.6716 27.4754 63.8316C27.6054 64.0466 27.7504 64.2716 27.9004 64.4966C28.1354 64.8566 28.3804 65.2166 28.6304 65.5716C32.3354 64.3516 36.0604 63.1366 39.9454 61.9716C43.0054 61.0516 46.3104 60.1216 50.0704 59.5066C53.8004 58.8966 57.5804 58.6516 61.3554 58.2216C73.3004 56.8516 84.1154 53.7266 92.6604 50.6766C92.8254 50.6166 92.9904 50.5566 93.1504 50.4966C93.1954 50.1866 93.2404 49.8816 93.2804 49.5716C93.2804 49.5516 93.2804 49.5316 93.2854 49.5116H93.2904ZM62.9604 80.3516C58.8454 80.3116 55.6554 79.8566 54.2754 78.9416C53.7654 78.6066 53.4454 78.2066 52.2654 78.0566C50.8054 77.8666 48.3654 78.1416 46.0504 78.6266C46.2604 78.7016 46.4704 78.7666 46.7454 78.8566C46.7654 78.8616 46.7904 78.8716 46.8104 78.8766C46.8904 78.9016 46.9704 78.9266 47.0654 78.9566C47.1104 78.9716 47.1604 78.9866 47.2054 79.0016C47.2154 79.0016 47.2204 79.0016 47.2304 79.0066C47.7204 79.1616 48.3204 79.3416 48.7904 79.4516H48.8054C48.8054 79.4516 48.8304 79.4616 48.8454 79.4666L49.3154 79.5866L49.4404 79.6116C49.7204 79.6766 49.9854 79.7366 50.2404 79.7916C50.2854 79.8016 50.3304 79.8116 50.3754 79.8216C50.4204 79.8316 50.4654 79.8416 50.5154 79.8516C50.5504 79.8566 50.5904 79.8666 50.6254 79.8716C51.2704 80.0116 51.6504 80.0816 52.2504 80.1666C52.2854 80.1716 52.7454 80.2466 53.4554 80.3366C53.4654 80.3366 53.4704 80.3366 53.4804 80.3366C53.6454 80.3566 53.8254 80.3766 54.0154 80.3966C54.0154 80.3966 54.0254 80.3966 54.0304 80.3966C54.1804 80.4116 54.3404 80.4266 54.5004 80.4416C54.6204 80.4516 54.7354 80.4616 54.8504 80.4716C55.1604 80.4966 55.4604 80.5216 55.7504 80.5366C55.8054 80.5366 55.8654 80.5416 55.9204 80.5466C55.9254 80.5466 55.9354 80.5466 55.9404 80.5466C58.2104 80.7416 60.5654 80.6815 62.9454 80.3416L62.9604 80.3516ZM85.8454 67.0816C85.9754 66.9216 86.1104 66.7566 86.2504 66.5766C86.2904 66.5216 86.3304 66.4666 86.3754 66.4116C86.4704 66.2866 86.5604 66.1666 86.6504 66.0416C87.1704 65.3416 87.6604 64.6266 88.1254 63.9016C84.4954 65.5516 78.3304 67.2316 72.1654 68.3916C61.7954 70.3466 50.6504 71.5216 40.4204 73.5716C39.3854 73.7766 38.3404 74.0016 37.4254 74.2516C38.4904 74.9866 39.7354 75.7616 41.1854 76.5166C41.2004 76.5266 41.2154 76.5316 41.2304 76.5416C41.4954 76.6816 41.7704 76.8166 42.0454 76.9516C43.9104 76.8666 45.9054 76.6966 47.8554 76.5066C57.9004 75.5366 68.1804 74.0866 77.9754 72.2516C79.2054 72.0216 80.4254 71.7866 81.6404 71.5416C83.1304 70.2166 84.5504 68.7366 85.8504 67.0816H85.8454ZM34.4204 69.1566C33.5954 69.2966 32.7704 69.4316 31.9454 69.5666C32.3054 69.9466 32.6304 70.2716 32.8654 70.4866C32.9654 70.5766 33.0604 70.6666 33.1554 70.7566C33.4304 71.0166 33.7054 71.2716 33.9854 71.5266C52.8504 68.2966 71.3604 64.6566 89.7704 61.0216C90.2004 60.1766 90.6004 59.3116 90.9604 58.4366C85.5104 59.4066 80.0254 60.3616 74.6454 61.3716C61.1404 63.9016 48.1254 66.8116 34.4204 69.1616V69.1566ZM91.1204 31.5866C89.7354 28.0766 87.7754 24.8016 85.2804 21.8566C84.4354 20.8416 83.7354 20.1116 83.1604 19.5416L83.1304 19.5116C83.1304 19.5116 83.1104 19.4916 83.1004 19.4816C83.0904 19.4716 83.0754 19.4616 83.0654 19.4466C70.6654 19.0116 57.5954 19.8416 43.2204 25.1566C36.5104 27.6366 39.7154 29.9366 37.4604 32.4316C35.1404 35.0016 25.1904 37.4066 22.3554 39.8216C22.2554 40.5266 22.1754 41.2166 22.1204 41.8816C22.8554 42.4566 23.9354 43.0216 22.0154 43.7866C21.9954 44.5566 21.9954 45.3016 22.0204 46.0066C22.0304 46.2816 22.0404 46.5666 22.0554 46.8516C22.0554 46.8866 22.0554 46.9216 22.0604 46.9516C22.1554 48.6116 22.3854 50.4116 22.8004 52.3216C29.8154 50.9866 36.5954 49.4266 42.8104 47.8466C61.9654 42.9816 79.0254 37.3666 91.1204 31.5916V31.5866ZM51.5004 16.5466C50.2054 17.0366 51.3604 17.6016 53.2904 17.7416C55.2204 17.8816 57.5754 17.7216 59.7604 17.5316C66.0804 16.9916 72.2704 16.2366 78.0804 15.3016C77.4654 14.8816 76.7904 14.4466 76.0504 14.0066C75.9604 13.9516 75.8704 13.9016 75.7754 13.8516C75.5404 13.7166 75.3054 13.5766 75.0554 13.4416C74.8304 13.3166 74.6054 13.2016 74.3754 13.0816C67.9254 14.1016 61.2954 15.0516 54.6504 15.9416C53.4754 16.0966 52.2254 16.2716 51.5004 16.5466ZM36.3004 17.1316C37.4304 16.8266 38.4904 16.5916 39.2054 16.1416C45.9804 11.8766 54.1404 10.3166 59.7754 9.06156C59.3704 9.04156 58.9754 9.02656 58.5954 9.02156C55.0354 8.92656 51.5504 9.36156 48.1604 10.3316C47.4804 10.5166 46.8354 10.7216 46.2104 10.9416C46.2054 10.9416 46.1954 10.9466 46.1904 10.9466C45.3954 11.2216 44.6354 11.5166 43.9054 11.8316C43.6654 11.9316 43.4304 12.0316 43.1804 12.1416C43.0054 12.2166 42.8154 12.3066 42.6254 12.3966C42.6154 12.3966 42.6054 12.4066 42.5954 12.4116C42.5954 12.4116 42.5904 12.4116 42.5854 12.4166C42.2704 12.5666 41.9404 12.7266 41.6154 12.8916C41.6104 12.8916 41.6004 12.8966 41.5954 12.9016C40.9204 13.2366 40.0404 13.7316 39.3954 14.1166C39.1554 14.2616 38.8904 14.4316 38.6204 14.6066C38.1204 14.9116 37.6354 15.2266 37.2304 15.5216C37.1354 15.5916 37.0304 15.6616 36.9304 15.7366C36.9404 15.7266 36.9554 15.7166 36.9654 15.7066C36.9354 15.7266 36.9104 15.7466 36.8854 15.7666C36.2104 16.2516 35.4504 16.8316 34.5904 17.5616C35.1754 17.4266 35.7454 17.2816 36.2954 17.1366L36.3004 17.1316ZM56.5454 12.7966C57.6854 13.2666 63.1404 12.8766 71.6454 11.7966C71.1804 11.5916 70.7904 11.4416 70.2504 11.2466C70.2004 11.2266 70.1404 11.2066 70.0804 11.1816C69.5654 10.9866 69.2504 10.8866 68.5504 10.6616C68.5504 10.6616 68.5504 10.6616 68.5454 10.6616C68.5054 10.6466 68.4554 10.6316 68.4154 10.6216C68.4054 10.6216 68.4004 10.6166 68.3904 10.6116C67.9604 10.4766 67.4554 10.3266 67.0204 10.2166C66.3604 10.0416 65.7504 9.90156 65.1404 9.77156C65.1304 9.77156 65.1254 9.77156 65.1154 9.77156C65.1154 9.77156 65.1104 9.77156 65.1054 9.77156L64.8504 9.72156C64.4254 9.63656 64.0104 9.56156 63.6004 9.49156C58.1304 10.9966 55.1404 12.2216 56.5604 12.8016L56.5454 12.7966Z" fill="#D45CD5"/>
</g>
</g>
<g filter="url(#filter0_d_1951_11085)">
<path d="M98.8954 71.7276C100.499 68.6753 94.5783 63.0487 89.3301 58.871C82.0752 53.0901 71.7979 46.612 60.3953 40.6219C48.9926 34.6367 37.829 29.8566 28.9459 27.1628C22.5275 25.2159 14.5357 23.5328 12.9324 26.5901C11.329 29.6425 17.2445 35.2641 22.4927 39.4418C22.5474 39.1081 22.6022 38.7795 22.662 38.4658C15.9797 33.0732 12.7183 28.8757 13.7091 26.9935C15.676 23.244 34.7468 28.1387 59.9919 41.3937C85.2371 54.6536 100.09 67.5699 98.1236 71.3193C97.1128 73.2414 91.5907 72.8878 83.0462 70.2936C82.8122 70.5326 82.5732 70.7617 82.3391 70.9807C82.5184 71.0355 82.7026 71.0953 82.8819 71.15C89.3002 73.0969 97.292 74.78 98.8954 71.7227V71.7276Z" fill="#E1E5F0"/>
</g>
<g filter="url(#filter1_d_1951_11085)">
<path d="M27.7446 25.7085C21.6051 20.6346 18.6474 16.696 19.5935 14.8935C21.5603 11.144 40.6311 16.0387 65.8762 29.2936C91.1213 42.5536 105.975 55.4699 104.008 59.2193C103.072 61.0069 98.2467 60.8277 90.7279 58.7214C90.6283 58.9654 90.5088 59.2343 90.3794 59.5231C96.4591 61.2409 103.306 62.426 104.78 59.6227C106.383 56.5703 100.462 50.9437 95.2143 46.7661C87.9594 40.9851 77.6821 34.507 66.2795 28.5169C54.8769 22.5268 43.7133 17.7516 34.8302 15.0578C28.4119 13.1109 20.4201 11.4279 18.8167 14.4852C17.3229 17.3234 22.3421 22.3873 27.2766 26.4455C27.426 26.1965 27.5853 25.9525 27.7396 25.7036L27.7446 25.7085Z" fill="#E1E5F0"/>
</g>
<defs>
<filter id="filter0_d_1951_11085" x="0.665035" y="12.9102" width="110.498" height="72.4927" filterUnits="userSpaceOnUse" color-interpolation-filters="sRGB">
<feFlood flood-opacity="0" result="BackgroundImageFix"/>
<feColorMatrix in="SourceAlpha" type="matrix" values="0 0 0 0 0 0 0 0 0 0 0 0 0 0 0 0 0 0 127 0" result="hardAlpha"/>
<feOffset/>
<feGaussianBlur stdDeviation="6"/>
<feColorMatrix type="matrix" values="0 0 0 0 0.70153 0 0 0 0 0.552295 0 0 0 0 1 0 0 0 1 0"/>
<feBlend mode="normal" in2="BackgroundImageFix" result="effect1_dropShadow_1951_11085"/>
<feBlend mode="normal" in="SourceGraphic" in2="effect1_dropShadow_1951_11085" result="shape"/>
</filter>
<filter id="filter1_d_1951_11085" x="6.54882" y="0.805172" width="110.498" height="72.4961" filterUnits="userSpaceOnUse" color-interpolation-filters="sRGB">
<feFlood flood-opacity="0" result="BackgroundImageFix"/>
<feColorMatrix in="SourceAlpha" type="matrix" values="0 0 0 0 0 0 0 0 0 0 0 0 0 0 0 0 0 0 127 0" result="hardAlpha"/>
<feOffset/>
<feGaussianBlur stdDeviation="6"/>
<feColorMatrix type="matrix" values="0 0 0 0 0.70153 0 0 0 0 0.552295 0 0 0 0 1 0 0 0 1 0"/>
<feBlend mode="normal" in2="BackgroundImageFix" result="effect1_dropShadow_1951_11085"/>
<feBlend mode="normal" in="SourceGraphic" in2="effect1_dropShadow_1951_11085" result="shape"/>
</filter>
<radialGradient id="paint0_radial_1951_11085" cx="0" cy="0" r="1" gradientUnits="userSpaceOnUse" gradientTransform="translate(52.5 59.9998) rotate(-123.198) scale(48.3994 48.3999)">
<stop stop-color="#391E70"/>
<stop offset="0.610418" stop-color="#5831A6"/>
<stop offset="0.99" stop-color="#AF8BF5"/>
</radialGradient>
<clipPath id="clip0_1951_11085">
<rect x="22.001" y="8.99902" width="71.5" height="71.5" rx="35.75" fill="white"/>
</clipPath>
</defs>
</svg>
