<svg width="556" height="674" viewBox="0 0 556 674" fill="none" xmlns="http://www.w3.org/2000/svg">
<path d="M70.6 439.649V200.347L277.979 80.6927L485.4 200.368V439.649L278 559.318L70.6 439.649Z" fill="url(#paint0_linear_1321_22880)" stroke="#E1E5F0" stroke-width="1.2"/>
<path opacity="0.2" d="M1.24881 479.658V160.336L277.972 0.671719L554.752 160.365V479.658L278 639.342L1.24881 479.658Z" fill="url(#paint1_linear_1321_22880)" stroke="#E1E5F0" stroke-width="1.16364"/>
<path d="M151.545 392.682V247.316L277.987 174.629L404.455 247.329V392.682L278 465.377L151.545 392.682Z" fill="url(#paint2_linear_1321_22880)" stroke="#E1E5F0" stroke-width="1.09091"/>
<path fill-rule="evenodd" clip-rule="evenodd" d="M315.826 297.999L277.718 320L277.721 364L315.826 341.999V297.999Z" fill="url(#paint3_linear_1321_22880)"/>
<path fill-rule="evenodd" clip-rule="evenodd" d="M239.61 297.999L277.718 320L277.715 364L239.61 341.999V297.999Z" fill="url(#paint4_linear_1321_22880)"/>
<path fill-rule="evenodd" clip-rule="evenodd" d="M315.821 298L277.721 320L239.611 298L277.716 276L315.821 298Z" fill="url(#paint5_linear_1321_22880)"/>
<g clip-path="url(#clip0_1321_22880)">
<path fill-rule="evenodd" clip-rule="evenodd" d="M294.822 310.001L294.824 310L286.163 305L277.504 300L268.842 305L260.184 310L260.184 310.001V330L268.843 335L277.504 340V340L283.045 336.804L283.045 336.803L283.045 336.803V330L277.504 333.2L271.788 329.9L266.074 326.601V313.402L271.788 310.103L277.504 306.803L283.218 310.103L288.935 313.402V340L288.934 340L288.935 340.002L294.825 336.603V310.001L294.822 310.001ZM277.504 326.399L283.045 323.199V316.803L277.504 313.604L271.964 316.803V323.199L277.504 326.399Z" fill="white"/>
</g>
<path d="M218.362 312.364L215.772 313.864V316.864L218.362 318.364L220.951 316.864V313.864L218.362 312.364Z" fill="#8547FF"/>
<path d="M341.634 381.091L339.045 382.591V385.591L341.634 387.091L344.223 385.591V382.591L341.634 381.091Z" fill="#8547FF"/>
<path d="M258.725 376.727L256.136 378.227V381.227L258.725 382.727L261.314 381.227V378.227L258.725 376.727Z" fill="#8547FF"/>
<path d="M333.997 245.818L331.408 247.318V250.318L333.997 251.818L336.586 250.318V247.318L333.997 245.818Z" fill="#8547FF"/>
<path d="M338.362 303.636L335.773 305.136V308.136L338.362 309.636L340.952 308.136V305.136L338.362 303.636Z" fill="#8547FF"/>
<path d="M247.817 233.818L245.228 235.318V238.318L247.817 239.818L250.406 238.318V235.318L247.817 233.818Z" fill="#8547FF"/>
<path d="M301.271 406.182L298.682 407.682V410.682L301.271 412.182L303.86 410.682V407.682L301.271 406.182Z" fill="#2F6FF0"/>
<path d="M333.997 345.091L331.408 346.591V349.591L333.997 351.091L336.586 349.591V346.591L333.997 345.091Z" fill="#2F6FF0"/>
<path d="M218.362 389.818L215.772 391.318V394.318L218.362 395.818L220.951 394.318V391.318L218.362 389.818Z" fill="#2F6FF0"/>
<path d="M188.907 294.909L186.318 296.409V299.409L188.907 300.909L191.496 299.409V296.409L188.907 294.909Z" fill="#2F6FF0"/>
<path d="M317.634 270.909L315.045 272.409V275.409L317.634 276.909L320.223 275.409V272.409L317.634 270.909Z" fill="#2F6FF0"/>
<path d="M357.999 279.636L355.41 281.136V284.136L357.999 285.636L360.588 284.136V281.136L357.999 279.636Z" fill="#DC244C"/>
<path d="M235.817 275.273L233.228 276.773V279.773L235.817 281.273L238.406 279.773V276.773L235.817 275.273Z" fill="#DC244C"/>
<path d="M225.998 356L223.409 357.5V360.5L225.998 362L228.587 360.5V357.5L225.998 356Z" fill="#DC244C"/>
<path d="M297.998 372.364L295.409 373.864V376.864L297.998 378.364L300.587 376.864V373.864L297.998 372.364Z" fill="#DC244C"/>
<path d="M294.725 225.091L292.136 226.591V229.591L294.725 231.091L297.314 229.591V226.591L294.725 225.091Z" fill="#DC244C"/>
<path d="M192.181 347.273L189.592 348.773V351.773L192.181 353.273L194.77 351.773V348.773L192.181 347.273Z" fill="#038585"/>
<path d="M365.634 310.182L363.045 311.682V314.682L365.634 316.182L368.223 314.682V311.682L365.634 310.182Z" fill="#038585"/>
<path d="M282.725 258.909L280.136 260.409V263.409L282.725 264.909L285.314 263.409V260.409L282.725 258.909Z" fill="#038585"/>
<path d="M357.999 347.273L355.41 348.773V351.773L357.999 353.273L360.588 351.773V348.773L357.999 347.273Z" fill="#038585"/>
<path d="M210.725 254.546L208.136 256.046V259.046L210.725 260.546L213.314 259.046V256.046L210.725 254.546Z" fill="#038585"/>
<path d="M251.09 406.182L248.501 407.682V410.682L251.09 412.182L253.679 410.682V407.682L251.09 406.182Z" fill="#038585"/>
<g filter="url(#filter0_dd_1321_22880)">
<rect x="122.772" y="219" width="56" height="56" rx="7" fill="#F0F3FA" shape-rendering="crispEdges"/>
<rect x="123.21" y="219.437" width="55.125" height="55.125" rx="6.5625" stroke="#D4D9E6" stroke-width="0.875" shape-rendering="crispEdges"/>
<g clip-path="url(#clip1_1321_22880)">
<path d="M160.105 251.55C162.088 251.083 163.605 249.217 163.605 247C163.605 244.433 161.505 242.333 158.938 242.333C158.588 237.783 154.855 234.167 150.188 234.167C145.522 234.167 141.672 237.9 141.438 242.45C139.455 242.917 137.938 244.783 137.938 247C137.938 249.217 139.455 250.967 141.438 251.55" stroke="#8547FF" stroke-width="2.33333" stroke-linecap="round" stroke-linejoin="round"/>
<path d="M156.605 249.333L149.605 256.333L146.105 252.833" stroke="#8547FF" stroke-width="2.33333" stroke-linecap="round" stroke-linejoin="round"/>
</g>
</g>
<g filter="url(#filter1_dd_1321_22880)">
<rect x="377.773" y="219" width="56" height="56" rx="7" fill="#F0F3FA" shape-rendering="crispEdges"/>
<rect x="378.211" y="219.437" width="55.125" height="55.125" rx="6.5625" stroke="#D4D9E6" stroke-width="0.875" shape-rendering="crispEdges"/>
<g clip-path="url(#clip2_1321_22880)">
<path d="M408.108 249.333H403.441V259.833H408.108V249.333Z" stroke="#2F6FF0" stroke-width="2.33333" stroke-linecap="round" stroke-linejoin="round"/>
<path d="M397.608 254H392.941V259.833H397.608V254Z" stroke="#2F6FF0" stroke-width="2.33333" stroke-linecap="round" stroke-linejoin="round"/>
<path d="M418.608 244.667H413.941V259.833H418.608V244.667Z" stroke="#2F6FF0" stroke-width="2.33333" stroke-linecap="round" stroke-linejoin="round"/>
<path d="M395.275 244.667L401.109 238.833L405.775 243.5L415.109 234.167" stroke="#2F6FF0" stroke-width="2.33333" stroke-linecap="round" stroke-linejoin="round"/>
<path d="M409.275 234.167H415.109V240" stroke="#2F6FF0" stroke-width="2.33333" stroke-linecap="round" stroke-linejoin="round"/>
</g>
</g>
<g filter="url(#filter2_dd_1321_22880)">
<rect x="377.773" y="366" width="56" height="56" rx="7" fill="#F0F3FA" shape-rendering="crispEdges"/>
<rect x="378.211" y="366.437" width="55.125" height="55.125" rx="6.5625" stroke="#D4D9E6" stroke-width="0.875" shape-rendering="crispEdges"/>
<path d="M405.773 385.833V391.667" stroke="#038585" stroke-width="2.33333" stroke-linecap="round" stroke-linejoin="round"/>
<path d="M405.773 396.333V402.167" stroke="#038585" stroke-width="2.33333" stroke-linecap="round" stroke-linejoin="round"/>
<path d="M398.473 387.607L403.74 384.643" stroke="#038585" stroke-width="2.33333" stroke-linecap="round" stroke-linejoin="round"/>
<path d="M413.074 387.607L407.807 384.643" stroke="#038585" stroke-width="2.33333" stroke-linecap="round" stroke-linejoin="round"/>
<path d="M398.473 400.393L403.74 403.357" stroke="#038585" stroke-width="2.33333" stroke-linecap="round" stroke-linejoin="round"/>
<path d="M413.074 400.393L407.807 403.357" stroke="#038585" stroke-width="2.33333" stroke-linecap="round" stroke-linejoin="round"/>
<path d="M396.439 391.083V396.917" stroke="#038585" stroke-width="2.33333" stroke-linecap="round" stroke-linejoin="round"/>
<path d="M415.107 391.083V396.917" stroke="#038585" stroke-width="2.33333" stroke-linecap="round" stroke-linejoin="round"/>
<path d="M403.741 392.857L398.471 389.892" stroke="#038585" stroke-width="2.33333" stroke-linecap="round" stroke-linejoin="round"/>
<path d="M407.807 392.856L413.073 389.893" stroke="#038585" stroke-width="2.33333" stroke-linecap="round" stroke-linejoin="round"/>
<path d="M403.741 395.143L398.471 398.108" stroke="#038585" stroke-width="2.33333" stroke-linecap="round" stroke-linejoin="round"/>
<path d="M407.807 395.144L413.073 398.107" stroke="#038585" stroke-width="2.33333" stroke-linecap="round" stroke-linejoin="round"/>
<path d="M396.441 401.583C397.729 401.583 398.774 400.539 398.774 399.25C398.774 397.961 397.729 396.917 396.441 396.917C395.152 396.917 394.107 397.961 394.107 399.25C394.107 400.539 395.152 401.583 396.441 401.583Z" stroke="#038585" stroke-width="2.33333" stroke-linecap="round" stroke-linejoin="round"/>
<path d="M396.441 391.083C397.729 391.083 398.774 390.039 398.774 388.75C398.774 387.461 397.729 386.417 396.441 386.417C395.152 386.417 394.107 387.461 394.107 388.75C394.107 390.039 395.152 391.083 396.441 391.083Z" stroke="#038585" stroke-width="2.33333" stroke-linecap="round" stroke-linejoin="round"/>
<path d="M415.107 401.583C416.395 401.583 417.44 400.539 417.44 399.25C417.44 397.961 416.395 396.917 415.107 396.917C413.818 396.917 412.773 397.961 412.773 399.25C412.773 400.539 413.818 401.583 415.107 401.583Z" stroke="#038585" stroke-width="2.33333" stroke-linecap="round" stroke-linejoin="round"/>
<path d="M415.107 391.083C416.395 391.083 417.44 390.039 417.44 388.75C417.44 387.461 416.395 386.417 415.107 386.417C413.818 386.417 412.773 387.461 412.773 388.75C412.773 390.039 413.818 391.083 415.107 391.083Z" stroke="#038585" stroke-width="2.33333" stroke-linecap="round" stroke-linejoin="round"/>
<path d="M405.773 396.333C407.061 396.333 408.106 395.289 408.106 394C408.106 392.711 407.061 391.667 405.773 391.667C404.484 391.667 403.439 392.711 403.439 394C403.439 395.289 404.484 396.333 405.773 396.333Z" stroke="#038585" stroke-width="2.33333" stroke-linecap="round" stroke-linejoin="round"/>
<path d="M405.773 385.833C407.061 385.833 408.106 384.789 408.106 383.5C408.106 382.211 407.061 381.167 405.773 381.167C404.484 381.167 403.439 382.211 403.439 383.5C403.439 384.789 404.484 385.833 405.773 385.833Z" stroke="#038585" stroke-width="2.33333" stroke-linecap="round" stroke-linejoin="round"/>
<path d="M405.773 406.833C407.061 406.833 408.106 405.789 408.106 404.5C408.106 403.211 407.061 402.167 405.773 402.167C404.484 402.167 403.439 403.211 403.439 404.5C403.439 405.789 404.484 406.833 405.773 406.833Z" stroke="#038585" stroke-width="2.33333" stroke-linecap="round" stroke-linejoin="round"/>
</g>
<g filter="url(#filter3_dd_1321_22880)">
<rect x="122.772" y="366" width="56" height="56" rx="7" fill="#F0F3FA" shape-rendering="crispEdges"/>
<rect x="123.21" y="366.437" width="55.125" height="55.125" rx="6.5625" stroke="#D4D9E6" stroke-width="0.875" shape-rendering="crispEdges"/>
<path d="M150.773 406.833C157.86 406.833 163.606 401.088 163.606 394C163.606 386.912 157.86 381.167 150.773 381.167C143.685 381.167 137.939 386.912 137.939 394C137.939 401.088 143.685 406.833 150.773 406.833Z" stroke="#FF8D39" stroke-width="2.33333" stroke-linecap="round" stroke-linejoin="round"/>
<path d="M149.128 392.355L144.939 388.167" stroke="#FF8D39" stroke-width="2.33333" stroke-linecap="round" stroke-linejoin="round"/>
<path d="M150.773 396.333C152.061 396.333 153.106 395.289 153.106 394C153.106 392.711 152.061 391.667 150.773 391.667C149.484 391.667 148.439 392.711 148.439 394C148.439 395.289 149.484 396.333 150.773 396.333Z" stroke="#FF8D39" stroke-width="2.33333" stroke-linecap="round" stroke-linejoin="round"/>
<path d="M150.772 385.833V387" stroke="#FF8D39" stroke-width="2.33333" stroke-linecap="round" stroke-linejoin="round"/>
<path d="M156.547 388.225L155.723 389.05" stroke="#FF8D39" stroke-width="2.33333" stroke-linecap="round" stroke-linejoin="round"/>
<path d="M158.939 394H157.772" stroke="#FF8D39" stroke-width="2.33333" stroke-linecap="round" stroke-linejoin="round"/>
<path d="M143.772 394H142.605" stroke="#FF8D39" stroke-width="2.33333" stroke-linecap="round" stroke-linejoin="round"/>
</g>
<g clip-path="url(#clip3_1321_22880)">
<g filter="url(#filter4_dd_1321_22880)">
<mask id="path-72-inside-1_1321_22880" fill="white">
<path d="M169 462C169 457.582 172.582 454 177 454H291C295.418 454 299 457.582 299 462V666C299 670.418 295.418 674 291 674H177C172.582 674 169 670.418 169 666V462Z"/>
</mask>
<path d="M169 462C169 457.582 172.582 454 177 454H291C295.418 454 299 457.582 299 462V666C299 670.418 295.418 674 291 674H177C172.582 674 169 670.418 169 666V462Z" fill="url(#paint6_linear_1321_22880)"/>
<path d="M169 462C169 457.029 173.029 453 178 453H290C294.971 453 299 457.029 299 462C299 458.134 295.418 455 291 455H177C172.582 455 169 458.134 169 462ZM299 674H169H299ZM169 674V454V674ZM299 454V674V454Z" fill="#3D4866" mask="url(#path-72-inside-1_1321_22880)"/>
</g>
<g opacity="0.4" filter="url(#filter5_f_1321_22880)">
<circle cx="291.2" cy="460.2" r="19.2" fill="#2F6FF0"/>
</g>
</g>
<rect x="164" y="454" width="112" height="220" rx="4" fill="#001848"/>
<rect x="168" y="458" width="104" height="212" rx="4" fill="#090E1A"/>
<rect x="172" y="458" width="100" height="212" rx="4" fill="url(#paint7_linear_1321_22880)"/>
<rect x="180" y="470" width="84" height="14" rx="7" fill="#28324D"/>
<rect x="188" y="476" width="48" height="2" rx="1" fill="url(#paint8_linear_1321_22880)"/>
<circle cx="242" cy="477" r="2" fill="#2F6FF0"/>
<circle cx="248" cy="477" r="2" fill="#8547FF"/>
<circle cx="254" cy="477" r="2" fill="#038585"/>
<rect x="180" y="514" width="84" height="14" rx="7" fill="#28324D"/>
<rect x="188" y="520" width="48" height="2" rx="1" fill="url(#paint9_linear_1321_22880)"/>
<circle cx="242" cy="521" r="2" fill="#2F6FF0"/>
<circle cx="248" cy="521" r="2" fill="#8547FF"/>
<circle cx="254" cy="521" r="2" fill="#038585"/>
<rect x="180" y="558" width="84" height="14" rx="7" fill="#28324D"/>
<rect x="188" y="564" width="48" height="2" rx="1" fill="url(#paint10_linear_1321_22880)"/>
<circle cx="242" cy="565" r="2" fill="#2F6FF0"/>
<circle cx="248" cy="565" r="2" fill="#8547FF"/>
<circle cx="254" cy="565" r="2" fill="#038585"/>
<rect x="180" y="602" width="84" height="14" rx="7" fill="#28324D"/>
<rect x="188" y="608" width="48" height="2" rx="1" fill="url(#paint11_linear_1321_22880)"/>
<circle cx="242" cy="609" r="2" fill="#2F6FF0"/>
<circle cx="248" cy="609" r="2" fill="#8547FF"/>
<circle cx="254" cy="609" r="2" fill="#038585"/>
<rect x="180" y="492" width="84" height="14" rx="7" fill="#28324D"/>
<rect x="208" y="498" width="48" height="2" rx="1" fill="url(#paint12_linear_1321_22880)"/>
<circle cx="190" cy="499" r="2" fill="#2F6FF0"/>
<circle cx="196" cy="499" r="2" fill="#8547FF"/>
<circle cx="202" cy="499" r="2" fill="#038585"/>
<rect x="180" y="536" width="84" height="14" rx="7" fill="#28324D"/>
<rect x="208" y="542" width="48" height="2" rx="1" fill="url(#paint13_linear_1321_22880)"/>
<circle cx="190" cy="543" r="2" fill="#2F6FF0"/>
<circle cx="196" cy="543" r="2" fill="#8547FF"/>
<circle cx="202" cy="543" r="2" fill="#038585"/>
<rect x="180" y="580" width="84" height="14" rx="7" fill="#28324D"/>
<rect x="208" y="586" width="48" height="2" rx="1" fill="url(#paint14_linear_1321_22880)"/>
<circle cx="190" cy="587" r="2" fill="#2F6FF0"/>
<circle cx="196" cy="587" r="2" fill="#8547FF"/>
<circle cx="202" cy="587" r="2" fill="#038585"/>
<rect x="180" y="624" width="84" height="14" rx="7" fill="#28324D"/>
<rect x="208" y="630" width="48" height="2" rx="1" fill="url(#paint15_linear_1321_22880)"/>
<circle cx="190" cy="631" r="2" fill="#2F6FF0"/>
<circle cx="196" cy="631" r="2" fill="#8547FF"/>
<circle cx="202" cy="631" r="2" fill="#038585"/>
<rect x="280" y="478" width="16" height="24" rx="4" fill="#090E1A"/>
<rect x="280" y="510" width="16" height="24" rx="4" fill="#090E1A"/>
<g clip-path="url(#clip4_1321_22880)">
<g filter="url(#filter6_dd_1321_22880)">
<mask id="path-121-inside-2_1321_22880" fill="white">
<path d="M295 506C295 501.582 298.582 498 303 498H391C395.418 498 399 501.582 399 506V666C399 670.418 395.418 674 391 674H303C298.582 674 295 670.418 295 666V506Z"/>
</mask>
<path d="M295 506C295 501.582 298.582 498 303 498H391C395.418 498 399 501.582 399 506V666C399 670.418 395.418 674 391 674H303C298.582 674 295 670.418 295 666V506Z" fill="url(#paint16_linear_1321_22880)"/>
<path d="M295 506C295 501.029 299.029 497 304 497H390C394.971 497 399 501.029 399 506C399 502.134 395.418 499 391 499H303C298.582 499 295 502.134 295 506ZM399 674H295H399ZM295 674V498V674ZM399 498V674V498Z" fill="#3D4866" mask="url(#path-121-inside-2_1321_22880)"/>
</g>
<g opacity="0.4" filter="url(#filter7_f_1321_22880)">
<circle cx="387.2" cy="506.2" r="19.2" fill="#2F6FF0"/>
</g>
</g>
<rect x="291" y="498" width="89.6" height="176" rx="3.2" fill="#001848"/>
<rect x="294.199" y="501.2" width="83.2" height="169.6" rx="3.2" fill="#090E1A"/>
<rect x="297.4" y="501.2" width="80" height="169.6" rx="3.2" fill="url(#paint17_linear_1321_22880)"/>
<rect x="303.799" y="510.8" width="67.2" height="11.2" rx="5.6" fill="#28324D"/>
<rect x="310.199" y="515.6" width="38.4" height="1.6" rx="0.8" fill="url(#paint18_linear_1321_22880)"/>
<circle cx="353.399" cy="516.4" r="1.6" fill="#2F6FF0"/>
<circle cx="358.2" cy="516.4" r="1.6" fill="#8547FF"/>
<circle cx="362.998" cy="516.4" r="1.6" fill="#038585"/>
<rect x="303.799" y="546" width="67.2" height="11.2" rx="5.6" fill="#28324D"/>
<rect x="310.199" y="550.8" width="38.4" height="1.6" rx="0.8" fill="url(#paint19_linear_1321_22880)"/>
<circle cx="353.399" cy="551.6" r="1.6" fill="#2F6FF0"/>
<circle cx="358.2" cy="551.6" r="1.6" fill="#8547FF"/>
<circle cx="362.998" cy="551.6" r="1.6" fill="#038585"/>
<rect x="303.799" y="581.2" width="67.2" height="11.2" rx="5.6" fill="#28324D"/>
<rect x="310.199" y="586" width="38.4" height="1.6" rx="0.8" fill="url(#paint20_linear_1321_22880)"/>
<circle cx="353.399" cy="586.8" r="1.6" fill="#2F6FF0"/>
<circle cx="358.2" cy="586.8" r="1.6" fill="#8547FF"/>
<circle cx="362.998" cy="586.8" r="1.6" fill="#038585"/>
<rect x="303.799" y="616.4" width="67.2" height="11.2" rx="5.6" fill="#28324D"/>
<rect x="310.199" y="621.2" width="38.4" height="1.6" rx="0.8" fill="url(#paint21_linear_1321_22880)"/>
<circle cx="353.399" cy="622" r="1.6" fill="#2F6FF0"/>
<circle cx="358.2" cy="622" r="1.6" fill="#8547FF"/>
<circle cx="362.998" cy="622" r="1.6" fill="#038585"/>
<rect x="303.799" y="528.4" width="67.2" height="11.2" rx="5.6" fill="#28324D"/>
<rect x="326.199" y="533.2" width="38.4" height="1.6" rx="0.8" fill="url(#paint22_linear_1321_22880)"/>
<circle cx="311.799" cy="534" r="1.6" fill="#2F6FF0"/>
<circle cx="316.598" cy="534" r="1.6" fill="#8547FF"/>
<circle cx="321.399" cy="534" r="1.6" fill="#038585"/>
<rect x="303.799" y="563.6" width="67.2" height="11.2" rx="5.6" fill="#28324D"/>
<rect x="326.199" y="568.4" width="38.4" height="1.6" rx="0.8" fill="url(#paint23_linear_1321_22880)"/>
<circle cx="311.799" cy="569.2" r="1.6" fill="#2F6FF0"/>
<circle cx="316.598" cy="569.2" r="1.6" fill="#8547FF"/>
<circle cx="321.399" cy="569.2" r="1.6" fill="#038585"/>
<rect x="303.799" y="598.8" width="67.2" height="11.2" rx="5.6" fill="#28324D"/>
<rect x="326.199" y="603.6" width="38.4" height="1.6" rx="0.8" fill="url(#paint24_linear_1321_22880)"/>
<circle cx="311.799" cy="604.4" r="1.6" fill="#2F6FF0"/>
<circle cx="316.598" cy="604.4" r="1.6" fill="#8547FF"/>
<circle cx="321.399" cy="604.4" r="1.6" fill="#038585"/>
<rect x="303.799" y="634" width="67.2" height="11.2" rx="5.6" fill="#28324D"/>
<rect x="326.199" y="638.8" width="38.4" height="1.6" rx="0.8" fill="url(#paint25_linear_1321_22880)"/>
<circle cx="311.799" cy="639.6" r="1.6" fill="#2F6FF0"/>
<circle cx="316.598" cy="639.6" r="1.6" fill="#8547FF"/>
<circle cx="321.399" cy="639.6" r="1.6" fill="#038585"/>
<rect x="383.801" y="517.2" width="12.8" height="19.2" rx="3.2" fill="#090E1A"/>
<rect x="383.801" y="542.8" width="12.8" height="19.2" rx="3.2" fill="#090E1A"/>
<path d="M278 364V371.325C278 384.579 288.745 395.325 302 395.325H315C328.255 395.325 339 406.07 339 419.325V498" stroke="#2F6FF0"/>
<path d="M278 364V369.455C278 382.709 267.255 393.455 254 393.455H242C228.745 393.455 218 404.2 218 417.455V454" stroke="#2F6FF0"/>
<defs>
<filter id="filter0_dd_1321_22880" x="105.272" y="210.25" width="91" height="91" filterUnits="userSpaceOnUse" color-interpolation-filters="sRGB">
<feFlood flood-opacity="0" result="BackgroundImageFix"/>
<feColorMatrix in="SourceAlpha" type="matrix" values="0 0 0 0 0 0 0 0 0 0 0 0 0 0 0 0 0 0 127 0" result="hardAlpha"/>
<feOffset dy="8.75"/>
<feGaussianBlur stdDeviation="8.75"/>
<feComposite in2="hardAlpha" operator="out"/>
<feColorMatrix type="matrix" values="0 0 0 0 0.088 0 0 0 0 0.117867 0 0 0 0 0.2 0 0 0 0.1 0"/>
<feBlend mode="normal" in2="BackgroundImageFix" result="effect1_dropShadow_1321_22880"/>
<feColorMatrix in="SourceAlpha" type="matrix" values="0 0 0 0 0 0 0 0 0 0 0 0 0 0 0 0 0 0 127 0" result="hardAlpha"/>
<feOffset dy="0.875"/>
<feGaussianBlur stdDeviation="0.875"/>
<feComposite in2="hardAlpha" operator="out"/>
<feColorMatrix type="matrix" values="0 0 0 0 0.088 0 0 0 0 0.117867 0 0 0 0 0.2 0 0 0 0.1 0"/>
<feBlend mode="normal" in2="effect1_dropShadow_1321_22880" result="effect2_dropShadow_1321_22880"/>
<feBlend mode="normal" in="SourceGraphic" in2="effect2_dropShadow_1321_22880" result="shape"/>
</filter>
<filter id="filter1_dd_1321_22880" x="360.273" y="210.25" width="91" height="91" filterUnits="userSpaceOnUse" color-interpolation-filters="sRGB">
<feFlood flood-opacity="0" result="BackgroundImageFix"/>
<feColorMatrix in="SourceAlpha" type="matrix" values="0 0 0 0 0 0 0 0 0 0 0 0 0 0 0 0 0 0 127 0" result="hardAlpha"/>
<feOffset dy="8.75"/>
<feGaussianBlur stdDeviation="8.75"/>
<feComposite in2="hardAlpha" operator="out"/>
<feColorMatrix type="matrix" values="0 0 0 0 0.088 0 0 0 0 0.117867 0 0 0 0 0.2 0 0 0 0.1 0"/>
<feBlend mode="normal" in2="BackgroundImageFix" result="effect1_dropShadow_1321_22880"/>
<feColorMatrix in="SourceAlpha" type="matrix" values="0 0 0 0 0 0 0 0 0 0 0 0 0 0 0 0 0 0 127 0" result="hardAlpha"/>
<feOffset dy="0.875"/>
<feGaussianBlur stdDeviation="0.875"/>
<feComposite in2="hardAlpha" operator="out"/>
<feColorMatrix type="matrix" values="0 0 0 0 0.088 0 0 0 0 0.117867 0 0 0 0 0.2 0 0 0 0.1 0"/>
<feBlend mode="normal" in2="effect1_dropShadow_1321_22880" result="effect2_dropShadow_1321_22880"/>
<feBlend mode="normal" in="SourceGraphic" in2="effect2_dropShadow_1321_22880" result="shape"/>
</filter>
<filter id="filter2_dd_1321_22880" x="360.273" y="357.25" width="91" height="91" filterUnits="userSpaceOnUse" color-interpolation-filters="sRGB">
<feFlood flood-opacity="0" result="BackgroundImageFix"/>
<feColorMatrix in="SourceAlpha" type="matrix" values="0 0 0 0 0 0 0 0 0 0 0 0 0 0 0 0 0 0 127 0" result="hardAlpha"/>
<feOffset dy="8.75"/>
<feGaussianBlur stdDeviation="8.75"/>
<feComposite in2="hardAlpha" operator="out"/>
<feColorMatrix type="matrix" values="0 0 0 0 0.088 0 0 0 0 0.117867 0 0 0 0 0.2 0 0 0 0.1 0"/>
<feBlend mode="normal" in2="BackgroundImageFix" result="effect1_dropShadow_1321_22880"/>
<feColorMatrix in="SourceAlpha" type="matrix" values="0 0 0 0 0 0 0 0 0 0 0 0 0 0 0 0 0 0 127 0" result="hardAlpha"/>
<feOffset dy="0.875"/>
<feGaussianBlur stdDeviation="0.875"/>
<feComposite in2="hardAlpha" operator="out"/>
<feColorMatrix type="matrix" values="0 0 0 0 0.088 0 0 0 0 0.117867 0 0 0 0 0.2 0 0 0 0.1 0"/>
<feBlend mode="normal" in2="effect1_dropShadow_1321_22880" result="effect2_dropShadow_1321_22880"/>
<feBlend mode="normal" in="SourceGraphic" in2="effect2_dropShadow_1321_22880" result="shape"/>
</filter>
<filter id="filter3_dd_1321_22880" x="105.272" y="357.25" width="91" height="91" filterUnits="userSpaceOnUse" color-interpolation-filters="sRGB">
<feFlood flood-opacity="0" result="BackgroundImageFix"/>
<feColorMatrix in="SourceAlpha" type="matrix" values="0 0 0 0 0 0 0 0 0 0 0 0 0 0 0 0 0 0 127 0" result="hardAlpha"/>
<feOffset dy="8.75"/>
<feGaussianBlur stdDeviation="8.75"/>
<feComposite in2="hardAlpha" operator="out"/>
<feColorMatrix type="matrix" values="0 0 0 0 0.088 0 0 0 0 0.117867 0 0 0 0 0.2 0 0 0 0.1 0"/>
<feBlend mode="normal" in2="BackgroundImageFix" result="effect1_dropShadow_1321_22880"/>
<feColorMatrix in="SourceAlpha" type="matrix" values="0 0 0 0 0 0 0 0 0 0 0 0 0 0 0 0 0 0 127 0" result="hardAlpha"/>
<feOffset dy="0.875"/>
<feGaussianBlur stdDeviation="0.875"/>
<feComposite in2="hardAlpha" operator="out"/>
<feColorMatrix type="matrix" values="0 0 0 0 0.088 0 0 0 0 0.117867 0 0 0 0 0.2 0 0 0 0.1 0"/>
<feBlend mode="normal" in2="effect1_dropShadow_1321_22880" result="effect2_dropShadow_1321_22880"/>
<feBlend mode="normal" in="SourceGraphic" in2="effect2_dropShadow_1321_22880" result="shape"/>
</filter>
<filter id="filter4_dd_1321_22880" x="149" y="444" width="170" height="260" filterUnits="userSpaceOnUse" color-interpolation-filters="sRGB">
<feFlood flood-opacity="0" result="BackgroundImageFix"/>
<feColorMatrix in="SourceAlpha" type="matrix" values="0 0 0 0 0 0 0 0 0 0 0 0 0 0 0 0 0 0 127 0" result="hardAlpha"/>
<feOffset dy="10"/>
<feGaussianBlur stdDeviation="10"/>
<feComposite in2="hardAlpha" operator="out"/>
<feColorMatrix type="matrix" values="0 0 0 0 0.088 0 0 0 0 0.117867 0 0 0 0 0.2 0 0 0 0.1 0"/>
<feBlend mode="normal" in2="BackgroundImageFix" result="effect1_dropShadow_1321_22880"/>
<feColorMatrix in="SourceAlpha" type="matrix" values="0 0 0 0 0 0 0 0 0 0 0 0 0 0 0 0 0 0 127 0" result="hardAlpha"/>
<feOffset dy="1"/>
<feGaussianBlur stdDeviation="1"/>
<feComposite in2="hardAlpha" operator="out"/>
<feColorMatrix type="matrix" values="0 0 0 0 0.088 0 0 0 0 0.117867 0 0 0 0 0.2 0 0 0 0.1 0"/>
<feBlend mode="normal" in2="effect1_dropShadow_1321_22880" result="effect2_dropShadow_1321_22880"/>
<feBlend mode="normal" in="SourceGraphic" in2="effect2_dropShadow_1321_22880" result="shape"/>
</filter>
<filter id="filter5_f_1321_22880" x="233.6" y="402.6" width="115.2" height="115.2" filterUnits="userSpaceOnUse" color-interpolation-filters="sRGB">
<feFlood flood-opacity="0" result="BackgroundImageFix"/>
<feBlend mode="normal" in="SourceGraphic" in2="BackgroundImageFix" result="shape"/>
<feGaussianBlur stdDeviation="19.2" result="effect1_foregroundBlur_1321_22880"/>
</filter>
<filter id="filter6_dd_1321_22880" x="275" y="488" width="144" height="216" filterUnits="userSpaceOnUse" color-interpolation-filters="sRGB">
<feFlood flood-opacity="0" result="BackgroundImageFix"/>
<feColorMatrix in="SourceAlpha" type="matrix" values="0 0 0 0 0 0 0 0 0 0 0 0 0 0 0 0 0 0 127 0" result="hardAlpha"/>
<feOffset dy="10"/>
<feGaussianBlur stdDeviation="10"/>
<feComposite in2="hardAlpha" operator="out"/>
<feColorMatrix type="matrix" values="0 0 0 0 0.088 0 0 0 0 0.117867 0 0 0 0 0.2 0 0 0 0.1 0"/>
<feBlend mode="normal" in2="BackgroundImageFix" result="effect1_dropShadow_1321_22880"/>
<feColorMatrix in="SourceAlpha" type="matrix" values="0 0 0 0 0 0 0 0 0 0 0 0 0 0 0 0 0 0 127 0" result="hardAlpha"/>
<feOffset dy="1"/>
<feGaussianBlur stdDeviation="1"/>
<feComposite in2="hardAlpha" operator="out"/>
<feColorMatrix type="matrix" values="0 0 0 0 0.088 0 0 0 0 0.117867 0 0 0 0 0.2 0 0 0 0.1 0"/>
<feBlend mode="normal" in2="effect1_dropShadow_1321_22880" result="effect2_dropShadow_1321_22880"/>
<feBlend mode="normal" in="SourceGraphic" in2="effect2_dropShadow_1321_22880" result="shape"/>
</filter>
<filter id="filter7_f_1321_22880" x="329.6" y="448.6" width="115.2" height="115.2" filterUnits="userSpaceOnUse" color-interpolation-filters="sRGB">
<feFlood flood-opacity="0" result="BackgroundImageFix"/>
<feBlend mode="normal" in="SourceGraphic" in2="BackgroundImageFix" result="shape"/>
<feGaussianBlur stdDeviation="19.2" result="effect1_foregroundBlur_1321_22880"/>
</filter>
<linearGradient id="paint0_linear_1321_22880" x1="278" y1="560" x2="278" y2="80" gradientUnits="userSpaceOnUse">
<stop stop-color="#89A9FF" stop-opacity="0.5"/>
<stop offset="1" stop-color="#D9E2FE" stop-opacity="0.4"/>
</linearGradient>
<linearGradient id="paint1_linear_1321_22880" x1="278" y1="640" x2="278" y2="0" gradientUnits="userSpaceOnUse">
<stop stop-color="#89A9FF" stop-opacity="0.5"/>
<stop offset="1" stop-color="#D9E2FE" stop-opacity="0.4"/>
</linearGradient>
<linearGradient id="paint2_linear_1321_22880" x1="278" y1="466" x2="278" y2="174" gradientUnits="userSpaceOnUse">
<stop stop-color="#89A9FF" stop-opacity="0.5"/>
<stop offset="1" stop-color="#D9E2FE" stop-opacity="0.4"/>
</linearGradient>
<linearGradient id="paint3_linear_1321_22880" x1="296.772" y1="297.999" x2="296.772" y2="364" gradientUnits="userSpaceOnUse">
<stop stop-color="#161E33"/>
<stop offset="1" stop-color="#0E1424"/>
</linearGradient>
<linearGradient id="paint4_linear_1321_22880" x1="258.664" y1="297.999" x2="258.664" y2="364" gradientUnits="userSpaceOnUse">
<stop stop-color="#161E33"/>
<stop offset="1" stop-color="#0E1424"/>
</linearGradient>
<linearGradient id="paint5_linear_1321_22880" x1="277.716" y1="276" x2="277.716" y2="320" gradientUnits="userSpaceOnUse">
<stop stop-color="#2F3F6D"/>
<stop offset="0.355174" stop-color="#233053"/>
<stop offset="1" stop-color="#0E1424"/>
</linearGradient>
<linearGradient id="paint6_linear_1321_22880" x1="234" y1="454" x2="234" y2="674" gradientUnits="userSpaceOnUse">
<stop stop-color="#161E33"/>
<stop offset="1" stop-color="#0E1424"/>
</linearGradient>
<linearGradient id="paint7_linear_1321_22880" x1="222" y1="458" x2="222" y2="670" gradientUnits="userSpaceOnUse">
<stop stop-color="#576280"/>
<stop offset="1" stop-color="#3D4866"/>
</linearGradient>
<linearGradient id="paint8_linear_1321_22880" x1="212" y1="476" x2="212" y2="478" gradientUnits="userSpaceOnUse">
<stop stop-color="#161E33"/>
<stop offset="1" stop-color="#0E1424"/>
</linearGradient>
<linearGradient id="paint9_linear_1321_22880" x1="212" y1="520" x2="212" y2="522" gradientUnits="userSpaceOnUse">
<stop stop-color="#161E33"/>
<stop offset="1" stop-color="#0E1424"/>
</linearGradient>
<linearGradient id="paint10_linear_1321_22880" x1="212" y1="564" x2="212" y2="566" gradientUnits="userSpaceOnUse">
<stop stop-color="#161E33"/>
<stop offset="1" stop-color="#0E1424"/>
</linearGradient>
<linearGradient id="paint11_linear_1321_22880" x1="212" y1="608" x2="212" y2="610" gradientUnits="userSpaceOnUse">
<stop stop-color="#161E33"/>
<stop offset="1" stop-color="#0E1424"/>
</linearGradient>
<linearGradient id="paint12_linear_1321_22880" x1="232" y1="498" x2="232" y2="500" gradientUnits="userSpaceOnUse">
<stop stop-color="#161E33"/>
<stop offset="1" stop-color="#0E1424"/>
</linearGradient>
<linearGradient id="paint13_linear_1321_22880" x1="232" y1="542" x2="232" y2="544" gradientUnits="userSpaceOnUse">
<stop stop-color="#161E33"/>
<stop offset="1" stop-color="#0E1424"/>
</linearGradient>
<linearGradient id="paint14_linear_1321_22880" x1="232" y1="586" x2="232" y2="588" gradientUnits="userSpaceOnUse">
<stop stop-color="#161E33"/>
<stop offset="1" stop-color="#0E1424"/>
</linearGradient>
<linearGradient id="paint15_linear_1321_22880" x1="232" y1="630" x2="232" y2="632" gradientUnits="userSpaceOnUse">
<stop stop-color="#161E33"/>
<stop offset="1" stop-color="#0E1424"/>
</linearGradient>
<linearGradient id="paint16_linear_1321_22880" x1="347" y1="498" x2="347" y2="674" gradientUnits="userSpaceOnUse">
<stop stop-color="#161E33"/>
<stop offset="1" stop-color="#0E1424"/>
</linearGradient>
<linearGradient id="paint17_linear_1321_22880" x1="337.4" y1="501.2" x2="337.4" y2="670.8" gradientUnits="userSpaceOnUse">
<stop stop-color="#576280"/>
<stop offset="1" stop-color="#3D4866"/>
</linearGradient>
<linearGradient id="paint18_linear_1321_22880" x1="329.399" y1="515.6" x2="329.399" y2="517.2" gradientUnits="userSpaceOnUse">
<stop stop-color="#161E33"/>
<stop offset="1" stop-color="#0E1424"/>
</linearGradient>
<linearGradient id="paint19_linear_1321_22880" x1="329.399" y1="550.8" x2="329.399" y2="552.4" gradientUnits="userSpaceOnUse">
<stop stop-color="#161E33"/>
<stop offset="1" stop-color="#0E1424"/>
</linearGradient>
<linearGradient id="paint20_linear_1321_22880" x1="329.399" y1="586" x2="329.399" y2="587.6" gradientUnits="userSpaceOnUse">
<stop stop-color="#161E33"/>
<stop offset="1" stop-color="#0E1424"/>
</linearGradient>
<linearGradient id="paint21_linear_1321_22880" x1="329.399" y1="621.2" x2="329.399" y2="622.8" gradientUnits="userSpaceOnUse">
<stop stop-color="#161E33"/>
<stop offset="1" stop-color="#0E1424"/>
</linearGradient>
<linearGradient id="paint22_linear_1321_22880" x1="345.399" y1="533.2" x2="345.399" y2="534.8" gradientUnits="userSpaceOnUse">
<stop stop-color="#161E33"/>
<stop offset="1" stop-color="#0E1424"/>
</linearGradient>
<linearGradient id="paint23_linear_1321_22880" x1="345.399" y1="568.4" x2="345.399" y2="570" gradientUnits="userSpaceOnUse">
<stop stop-color="#161E33"/>
<stop offset="1" stop-color="#0E1424"/>
</linearGradient>
<linearGradient id="paint24_linear_1321_22880" x1="345.399" y1="603.6" x2="345.399" y2="605.2" gradientUnits="userSpaceOnUse">
<stop stop-color="#161E33"/>
<stop offset="1" stop-color="#0E1424"/>
</linearGradient>
<linearGradient id="paint25_linear_1321_22880" x1="345.399" y1="638.8" x2="345.399" y2="640.4" gradientUnits="userSpaceOnUse">
<stop stop-color="#161E33"/>
<stop offset="1" stop-color="#0E1424"/>
</linearGradient>
<clipPath id="clip0_1321_22880">
<rect width="34.5" height="40" fill="white" transform="translate(260.184 300)"/>
</clipPath>
<clipPath id="clip1_1321_22880">
<rect width="28" height="28" fill="white" transform="translate(136.772 233)"/>
</clipPath>
<clipPath id="clip2_1321_22880">
<rect width="28" height="28" fill="white" transform="translate(391.773 233)"/>
</clipPath>
<clipPath id="clip3_1321_22880">
<rect x="169" y="454" width="130" height="220" rx="8" fill="white"/>
</clipPath>
<clipPath id="clip4_1321_22880">
<rect x="295" y="498" width="104" height="176" rx="8" fill="white"/>
</clipPath>
</defs>
</svg>
