<svg width="585" height="402" viewBox="0 0 585 402" fill="none" xmlns="http://www.w3.org/2000/svg">
<rect x="1" y="1" width="80" height="80" stroke="#B4BACC"/>
<rect x="81" y="1" width="80" height="80" stroke="#B4BACC"/>
<rect x="161" y="1" width="80" height="80" stroke="#B4BACC"/>
<rect x="241" y="1" width="80" height="80" stroke="#B4BACC"/>
<rect x="321" y="1" width="80" height="80" stroke="#B4BACC"/>
<rect x="401" y="1" width="80" height="80" stroke="#B4BACC"/>
<rect x="481" y="1" width="80" height="80" stroke="#B4BACC"/>
<rect x="1" y="81" width="80" height="80" stroke="#B4BACC"/>
<rect x="81" y="81" width="80" height="80" stroke="#B4BACC"/>
<rect x="161" y="81" width="80" height="80" stroke="#B4BACC"/>
<rect x="241" y="81" width="80" height="80" stroke="#B4BACC"/>
<rect x="321" y="81" width="80" height="80" stroke="#B4BACC"/>
<rect x="401" y="81" width="80" height="80" stroke="#B4BACC"/>
<rect x="481" y="81" width="80" height="80" stroke="#B4BACC"/>
<rect x="1" y="161" width="80" height="80" stroke="#B4BACC"/>
<rect x="81" y="161" width="80" height="80" stroke="#B4BACC"/>
<rect x="161" y="161" width="80" height="80" stroke="#B4BACC"/>
<rect x="241" y="161" width="80" height="80" stroke="#B4BACC"/>
<rect x="321" y="161" width="80" height="80" stroke="#B4BACC"/>
<rect x="401" y="161" width="80" height="80" stroke="#B4BACC"/>
<rect x="481" y="161" width="80" height="80" stroke="#B4BACC"/>
<rect x="1" y="241" width="80" height="80" stroke="#B4BACC"/>
<rect x="81" y="241" width="80" height="80" stroke="#B4BACC"/>
<rect x="161" y="241" width="80" height="80" stroke="#B4BACC"/>
<rect x="241" y="241" width="80" height="80" stroke="#B4BACC"/>
<rect x="321" y="241" width="80" height="80" stroke="#B4BACC"/>
<rect x="401" y="241" width="80" height="80" stroke="#B4BACC"/>
<rect x="481" y="241" width="80" height="80" stroke="#B4BACC"/>
<rect x="1" y="321" width="80" height="80" stroke="#B4BACC"/>
<rect x="81" y="321" width="80" height="80" stroke="#B4BACC"/>
<rect x="161" y="321" width="80" height="80" stroke="#B4BACC"/>
<rect x="241" y="321" width="80" height="80" stroke="#B4BACC"/>
<rect x="321" y="321" width="80" height="80" stroke="#B4BACC"/>
<rect x="401" y="321" width="80" height="80" stroke="#B4BACC"/>
<rect x="481" y="321" width="80" height="80" stroke="#B4BACC"/>
<mask id="path-37-inside-1_1725_13840" fill="white">
<path d="M41 43C41 40.7909 42.7909 39 45 39H525C527.209 39 529 40.7909 529 43V335C529 337.209 527.209 339 525 339H45C42.7909 339 41 337.209 41 335V43Z"/>
</mask>
<path d="M41 43C41 40.7909 42.7909 39 45 39H525C527.209 39 529 40.7909 529 43V335C529 337.209 527.209 339 525 339H45C42.7909 339 41 337.209 41 335V43Z" fill="url(#paint0_linear_1725_13840)"/>
<path d="M41 43C41 40.2386 43.2386 38 46 38H524C526.761 38 529 40.2386 529 43C529 41.3431 527.209 40 525 40H45C42.7909 40 41 41.3431 41 43ZM529 339H41H529ZM41 339V39V339ZM529 39V339V39Z" fill="#3D4866" mask="url(#path-37-inside-1_1725_13840)"/>
<path d="M109.26 113V111.65H112.755V106.535L112.83 104.405L111.135 105.785L109.26 107.285V105.41L113.19 102.53H114.345V111.65H116.67V113H109.26Z" fill="#F0F3FA"/>
<path d="M142.44 104.57C143.58 104.57 144.555 105.05 145.14 105.845V101.975H146.64V113H145.215L145.17 111.845C144.585 112.655 143.595 113.18 142.44 113.18C140.25 113.18 138.72 111.38 138.72 108.875C138.72 106.355 140.25 104.57 142.44 104.57ZM142.77 111.905C143.835 111.905 144.735 111.26 145.14 110.21V107.525C144.735 106.475 143.835 105.845 142.77 105.845C141.255 105.845 140.235 107.075 140.235 108.875C140.235 110.645 141.255 111.905 142.77 111.905ZM152.631 113.18C150.066 113.18 148.506 111.53 148.506 108.875C148.506 106.19 150.066 104.57 152.631 104.57C155.196 104.57 156.741 106.19 156.741 108.875C156.741 111.53 155.196 113.18 152.631 113.18ZM152.631 111.92C154.236 111.92 155.226 110.75 155.226 108.875C155.226 106.97 154.236 105.83 152.631 105.83C151.011 105.83 150.036 106.97 150.036 108.875C150.036 110.75 151.011 111.92 152.631 111.92ZM162.627 113.18C160.062 113.18 158.457 111.5 158.457 108.875C158.457 106.22 160.137 104.57 162.657 104.57C164.652 104.57 166.182 105.74 166.347 107.585H164.832C164.667 106.46 163.827 105.83 162.657 105.83C161.052 105.83 159.987 106.985 159.987 108.875C159.987 110.765 161.037 111.92 162.627 111.92C163.707 111.92 164.622 111.245 164.877 110.18H166.407C166.107 112.025 164.547 113.18 162.627 113.18ZM168.288 113V101.975H169.803V106.1L169.728 108.365L171.318 106.76L173.568 104.75H175.578L172.548 107.51L175.743 113H173.973L171.408 108.53L169.803 110V113H168.288ZM181.988 113.18C179.423 113.18 177.863 111.56 177.863 108.86C177.863 106.175 179.423 104.57 182.048 104.57C184.703 104.57 186.038 106.145 185.873 108.695H179.378C179.378 108.77 179.378 108.845 179.378 108.92C179.378 110.705 180.323 111.92 181.988 111.92C183.293 111.92 184.223 111.26 184.418 110.195H185.933C185.663 112.055 184.178 113.18 181.988 113.18ZM182.048 105.815C180.773 105.815 179.918 106.43 179.573 107.555L184.328 107.57C184.253 106.505 183.323 105.815 182.048 105.815ZM188.324 113V104.75H189.749L189.809 106.19C190.484 105.125 191.429 104.57 192.614 104.57C194.279 104.57 195.419 105.575 195.419 107.3V108.29H193.904V107.3C193.904 106.43 193.364 105.86 192.389 105.86C191.324 105.86 190.439 106.52 189.839 107.9V113H188.324ZM211.646 104.57C213.851 104.57 215.381 106.355 215.381 108.875C215.381 111.38 213.851 113.18 211.646 113.18C210.521 113.18 209.546 112.685 208.961 111.89V115.67H207.446V104.75H208.886L208.931 105.875C209.516 105.08 210.491 104.57 211.646 104.57ZM211.316 111.905C212.831 111.905 213.851 110.645 213.851 108.875C213.851 107.075 212.831 105.845 211.316 105.845C210.266 105.845 209.366 106.475 208.961 107.495V110.225C209.366 111.26 210.266 111.905 211.316 111.905ZM218.627 104.75V109.94C218.627 111.11 219.347 111.89 220.412 111.89C221.507 111.89 222.422 111.185 222.992 109.67V104.75H224.507V113H223.067L223.007 111.605C222.332 112.655 221.282 113.18 220.157 113.18C218.297 113.18 217.112 111.905 217.112 110.015V104.75H218.627ZM226.883 113V111.77H229.928V103.205H227.978V101.975H231.443V111.77H234.503V113H226.883ZM236.639 113V111.77H239.684V103.205H237.734V101.975H241.199V111.77H244.259V113H236.639ZM259.465 104.57C260.62 104.57 261.595 105.08 262.18 105.875L262.225 104.75H263.665V115.67H262.15V111.89C261.565 112.685 260.605 113.18 259.465 113.18C257.275 113.18 255.745 111.38 255.745 108.875C255.745 106.355 257.275 104.57 259.465 104.57ZM259.795 111.905C260.86 111.905 261.76 111.26 262.15 110.225V107.495C261.76 106.475 260.86 105.845 259.795 105.845C258.28 105.845 257.26 107.075 257.26 108.875C257.26 110.645 258.28 111.905 259.795 111.905ZM269.266 104.57C270.406 104.57 271.381 105.05 271.966 105.845V101.975H273.466V113H272.041L271.996 111.845C271.411 112.655 270.421 113.18 269.266 113.18C267.076 113.18 265.546 111.38 265.546 108.875C265.546 106.355 267.076 104.57 269.266 104.57ZM269.596 111.905C270.661 111.905 271.561 111.26 271.966 110.21V107.525C271.561 106.475 270.661 105.845 269.596 105.845C268.081 105.845 267.061 107.075 267.061 108.875C267.061 110.645 268.081 111.905 269.596 111.905ZM276.127 113V104.75H277.552L277.612 106.19C278.287 105.125 279.232 104.57 280.417 104.57C282.082 104.57 283.222 105.575 283.222 107.3V108.29H281.707V107.3C281.707 106.43 281.167 105.86 280.192 105.86C279.127 105.86 278.242 106.52 277.642 107.9V113H276.127ZM288.388 113.18C286.768 113.18 285.658 112.25 285.658 110.765C285.658 109.07 287.038 108.08 289.393 108.08H291.313V107.6C291.313 106.43 290.488 105.71 289.153 105.71C287.863 105.71 286.963 106.34 286.888 107.375H285.403C285.538 105.62 287.053 104.57 289.198 104.57C291.418 104.57 292.813 105.71 292.813 107.675V113H291.373L291.328 111.71C290.728 112.67 289.738 113.18 288.388 113.18ZM287.158 110.69C287.158 111.47 287.743 111.935 288.688 111.95C289.813 111.935 290.713 111.335 291.313 110.3V109.205H289.333C287.968 109.205 287.158 109.745 287.158 110.69ZM295.309 113V104.75H296.749L296.794 106.145C297.484 105.095 298.519 104.57 299.659 104.57C301.519 104.57 302.704 105.83 302.704 107.735V113H301.189V107.795C301.189 106.64 300.469 105.86 299.404 105.86C298.294 105.86 297.379 106.565 296.824 108.08V113H295.309ZM309.4 113C307.855 113 307.015 112.025 307.015 110.48V105.98H305.065V104.75H307.015V103.19L308.53 102.365V104.75H311.11V105.98H308.53V110.48C308.53 111.215 308.755 111.77 309.955 111.77H312.43V113H309.4ZM314.79 114.455L320.595 102.515H322.17L316.365 114.455H314.79ZM327.756 104.57C328.911 104.57 329.886 105.08 330.471 105.875L330.516 104.75H331.956V115.67H330.441V111.89C329.856 112.685 328.896 113.18 327.756 113.18C325.566 113.18 324.036 111.38 324.036 108.875C324.036 106.355 325.566 104.57 327.756 104.57ZM328.086 111.905C329.151 111.905 330.051 111.26 330.441 110.225V107.495C330.051 106.475 329.151 105.845 328.086 105.845C326.571 105.845 325.551 107.075 325.551 108.875C325.551 110.645 326.571 111.905 328.086 111.905ZM337.557 104.57C338.697 104.57 339.672 105.05 340.257 105.845V101.975H341.757V113H340.332L340.287 111.845C339.702 112.655 338.712 113.18 337.557 113.18C335.367 113.18 333.837 111.38 333.837 108.875C333.837 106.355 335.367 104.57 337.557 104.57ZM337.887 111.905C338.952 111.905 339.852 111.26 340.257 110.21V107.525C339.852 106.475 338.952 105.845 337.887 105.845C336.372 105.845 335.352 107.075 335.352 108.875C335.352 110.645 336.372 111.905 337.887 111.905ZM344.418 113V104.75H345.843L345.903 106.19C346.578 105.125 347.523 104.57 348.708 104.57C350.373 104.57 351.513 105.575 351.513 107.3V108.29H349.998V107.3C349.998 106.43 349.458 105.86 348.483 105.86C347.418 105.86 346.533 106.52 345.933 107.9V113H344.418ZM356.679 113.18C355.059 113.18 353.949 112.25 353.949 110.765C353.949 109.07 355.329 108.08 357.684 108.08H359.604V107.6C359.604 106.43 358.779 105.71 357.444 105.71C356.154 105.71 355.254 106.34 355.179 107.375H353.694C353.829 105.62 355.344 104.57 357.489 104.57C359.709 104.57 361.104 105.71 361.104 107.675V113H359.664L359.619 111.71C359.019 112.67 358.029 113.18 356.679 113.18ZM355.449 110.69C355.449 111.47 356.034 111.935 356.979 111.95C358.104 111.935 359.004 111.335 359.604 110.3V109.205H357.624C356.259 109.205 355.449 109.745 355.449 110.69ZM363.6 113V104.75H365.04L365.085 106.145C365.775 105.095 366.81 104.57 367.95 104.57C369.81 104.57 370.995 105.83 370.995 107.735V113H369.48V107.795C369.48 106.64 368.76 105.86 367.695 105.86C366.585 105.86 365.67 106.565 365.115 108.08V113H363.6ZM377.691 113C376.146 113 375.306 112.025 375.306 110.48V105.98H373.356V104.75H375.306V103.19L376.821 102.365V104.75H379.401V105.98H376.821V110.48C376.821 111.215 377.046 111.77 378.246 111.77H380.721V113H377.691Z" fill="#F0F3FA"/>
<path d="M109.155 140V138.86C113.28 135.785 114.885 133.985 114.885 132.5C114.885 131.42 114.18 130.7 112.98 130.7C111.705 130.7 110.805 131.51 110.76 132.905H109.155C109.275 130.64 110.835 129.35 113.01 129.35C115.17 129.35 116.535 130.58 116.535 132.425C116.535 134.42 115.14 136.16 111.51 138.65H116.565V140H109.155Z" fill="#F0F3FA"/>
<path d="M142.44 131.57C143.58 131.57 144.555 132.05 145.14 132.845V128.975H146.64V140H145.215L145.17 138.845C144.585 139.655 143.595 140.18 142.44 140.18C140.25 140.18 138.72 138.38 138.72 135.875C138.72 133.355 140.25 131.57 142.44 131.57ZM142.77 138.905C143.835 138.905 144.735 138.26 145.14 137.21V134.525C144.735 133.475 143.835 132.845 142.77 132.845C141.255 132.845 140.235 134.075 140.235 135.875C140.235 137.645 141.255 138.905 142.77 138.905ZM152.631 140.18C150.066 140.18 148.506 138.53 148.506 135.875C148.506 133.19 150.066 131.57 152.631 131.57C155.196 131.57 156.741 133.19 156.741 135.875C156.741 138.53 155.196 140.18 152.631 140.18ZM152.631 138.92C154.236 138.92 155.226 137.75 155.226 135.875C155.226 133.97 154.236 132.83 152.631 132.83C151.011 132.83 150.036 133.97 150.036 135.875C150.036 137.75 151.011 138.92 152.631 138.92ZM162.627 140.18C160.062 140.18 158.457 138.5 158.457 135.875C158.457 133.22 160.137 131.57 162.657 131.57C164.652 131.57 166.182 132.74 166.347 134.585H164.832C164.667 133.46 163.827 132.83 162.657 132.83C161.052 132.83 159.987 133.985 159.987 135.875C159.987 137.765 161.037 138.92 162.627 138.92C163.707 138.92 164.622 138.245 164.877 137.18H166.407C166.107 139.025 164.547 140.18 162.627 140.18ZM168.288 140V128.975H169.803V133.1L169.728 135.365L171.318 133.76L173.568 131.75H175.578L172.548 134.51L175.743 140H173.973L171.408 135.53L169.803 137V140H168.288ZM181.988 140.18C179.423 140.18 177.863 138.56 177.863 135.86C177.863 133.175 179.423 131.57 182.048 131.57C184.703 131.57 186.038 133.145 185.873 135.695H179.378C179.378 135.77 179.378 135.845 179.378 135.92C179.378 137.705 180.323 138.92 181.988 138.92C183.293 138.92 184.223 138.26 184.418 137.195H185.933C185.663 139.055 184.178 140.18 181.988 140.18ZM182.048 132.815C180.773 132.815 179.918 133.43 179.573 134.555L184.328 134.57C184.253 133.505 183.323 132.815 182.048 132.815ZM188.324 140V131.75H189.749L189.809 133.19C190.484 132.125 191.429 131.57 192.614 131.57C194.279 131.57 195.419 132.575 195.419 134.3V135.29H193.904V134.3C193.904 133.43 193.364 132.86 192.389 132.86C191.324 132.86 190.439 133.52 189.839 134.9V140H188.324ZM207.836 140V131.75H209.261L209.321 133.19C209.996 132.125 210.941 131.57 212.126 131.57C213.791 131.57 214.931 132.575 214.931 134.3V135.29H213.416V134.3C213.416 133.43 212.876 132.86 211.901 132.86C210.836 132.86 209.951 133.52 209.351 134.9V140H207.836ZM218.627 131.75V136.94C218.627 138.11 219.347 138.89 220.412 138.89C221.507 138.89 222.422 138.185 222.992 136.67V131.75H224.507V140H223.067L223.007 138.605C222.332 139.655 221.282 140.18 220.157 140.18C218.297 140.18 217.112 138.905 217.112 137.015V131.75H218.627ZM227.018 140V131.75H228.458L228.503 133.145C229.193 132.095 230.228 131.57 231.368 131.57C233.228 131.57 234.413 132.83 234.413 134.735V140H232.898V134.795C232.898 133.64 232.178 132.86 231.113 132.86C230.003 132.86 229.088 133.565 228.533 135.08V140H227.018ZM247.894 136.025V134.69H252.484V136.025H247.894ZM260.425 131.57C262.63 131.57 264.16 133.355 264.16 135.875C264.16 138.38 262.63 140.18 260.425 140.18C259.3 140.18 258.325 139.685 257.74 138.89V142.67H256.225V131.75H257.665L257.71 132.875C258.295 132.08 259.27 131.57 260.425 131.57ZM260.095 138.905C261.61 138.905 262.63 137.645 262.63 135.875C262.63 134.075 261.61 132.845 260.095 132.845C259.045 132.845 258.145 133.475 257.74 134.495V137.225C258.145 138.26 259.045 138.905 260.095 138.905ZM279.937 133.13C281.812 133.13 283.357 134.405 283.357 136.535C283.357 138.68 281.842 140.18 279.577 140.18C277.147 140.18 275.617 138.275 275.617 135.155C275.617 131.81 277.282 129.35 279.922 129.35C282.037 129.35 283.042 130.82 283.177 132.095H281.542C281.392 131.21 280.777 130.7 279.862 130.7C278.347 130.7 277.447 132.215 277.312 134.465C277.897 133.595 278.782 133.13 279.937 133.13ZM279.592 138.83C280.837 138.83 281.707 137.9 281.707 136.595C281.707 135.305 280.867 134.465 279.637 134.465C278.542 134.465 277.747 135.065 277.327 136.01C277.507 137.735 278.332 138.83 279.592 138.83ZM289.303 140.18C287.218 140.18 285.478 138.905 285.493 136.595H287.083C287.098 137.93 288.028 138.8 289.303 138.8C290.563 138.8 291.433 138.08 291.433 137.03C291.433 135.815 290.323 135.23 288.943 135.23H288.388V133.91H288.988C290.218 133.91 290.968 133.115 290.968 132.215C290.968 131.285 290.278 130.7 289.273 130.7C288.058 130.7 287.218 131.435 287.173 132.77H285.583C285.688 130.52 287.338 129.35 289.288 129.35C291.283 129.35 292.618 130.43 292.618 132.065C292.618 133.19 291.853 134.165 290.773 134.465C292.108 134.69 293.083 135.68 293.083 137.045C293.083 138.89 291.613 140.18 289.303 140.18ZM299.059 140.18C296.974 140.18 295.234 138.905 295.249 136.595H296.839C296.854 137.93 297.784 138.8 299.059 138.8C300.319 138.8 301.189 138.08 301.189 137.03C301.189 135.815 300.079 135.23 298.699 135.23H298.144V133.91H298.744C299.974 133.91 300.724 133.115 300.724 132.215C300.724 131.285 300.034 130.7 299.029 130.7C297.814 130.7 296.974 131.435 296.929 132.77H295.339C295.444 130.52 297.094 129.35 299.044 129.35C301.039 129.35 302.374 130.43 302.374 132.065C302.374 133.19 301.609 134.165 300.529 134.465C301.864 134.69 302.839 135.68 302.839 137.045C302.839 138.89 301.369 140.18 299.059 140.18ZM308.815 140.18C306.73 140.18 304.99 138.905 305.005 136.595H306.595C306.61 137.93 307.54 138.8 308.815 138.8C310.075 138.8 310.945 138.08 310.945 137.03C310.945 135.815 309.835 135.23 308.455 135.23H307.9V133.91H308.5C309.73 133.91 310.48 133.115 310.48 132.215C310.48 131.285 309.79 130.7 308.785 130.7C307.57 130.7 306.73 131.435 306.685 132.77H305.095C305.2 130.52 306.85 129.35 308.8 129.35C310.795 129.35 312.13 130.43 312.13 132.065C312.13 133.19 311.365 134.165 310.285 134.465C311.62 134.69 312.595 135.68 312.595 137.045C312.595 138.89 311.125 140.18 308.815 140.18ZM317.55 134.465V132.605H319.41V134.465H317.55ZM317.55 140V138.14H319.41V140H317.55ZM328.716 133.13C330.591 133.13 332.136 134.405 332.136 136.535C332.136 138.68 330.621 140.18 328.356 140.18C325.926 140.18 324.396 138.275 324.396 135.155C324.396 131.81 326.061 129.35 328.701 129.35C330.816 129.35 331.821 130.82 331.956 132.095H330.321C330.171 131.21 329.556 130.7 328.641 130.7C327.126 130.7 326.226 132.215 326.091 134.465C326.676 133.595 327.561 133.13 328.716 133.13ZM328.371 138.83C329.616 138.83 330.486 137.9 330.486 136.595C330.486 135.305 329.646 134.465 328.416 134.465C327.321 134.465 326.526 135.065 326.106 136.01C326.286 137.735 327.111 138.83 328.371 138.83ZM338.082 140.18C335.997 140.18 334.257 138.905 334.272 136.595H335.862C335.877 137.93 336.807 138.8 338.082 138.8C339.342 138.8 340.212 138.08 340.212 137.03C340.212 135.815 339.102 135.23 337.722 135.23H337.167V133.91H337.767C338.997 133.91 339.747 133.115 339.747 132.215C339.747 131.285 339.057 130.7 338.052 130.7C336.837 130.7 335.997 131.435 335.952 132.77H334.362C334.467 130.52 336.117 129.35 338.067 129.35C340.062 129.35 341.397 130.43 341.397 132.065C341.397 133.19 340.632 134.165 339.552 134.465C340.887 134.69 341.862 135.68 341.862 137.045C341.862 138.89 340.392 140.18 338.082 140.18ZM347.838 140.18C345.753 140.18 344.013 138.905 344.028 136.595H345.618C345.633 137.93 346.563 138.8 347.838 138.8C349.098 138.8 349.968 138.08 349.968 137.03C349.968 135.815 348.858 135.23 347.478 135.23H346.923V133.91H347.523C348.753 133.91 349.503 133.115 349.503 132.215C349.503 131.285 348.813 130.7 347.808 130.7C346.593 130.7 345.753 131.435 345.708 132.77H344.118C344.223 130.52 345.873 129.35 347.823 129.35C349.818 129.35 351.153 130.43 351.153 132.065C351.153 133.19 350.388 134.165 349.308 134.465C350.643 134.69 351.618 135.68 351.618 137.045C351.618 138.89 350.148 140.18 347.838 140.18ZM357.594 140.18C355.509 140.18 353.769 138.905 353.784 136.595H355.374C355.389 137.93 356.319 138.8 357.594 138.8C358.854 138.8 359.724 138.08 359.724 137.03C359.724 135.815 358.614 135.23 357.234 135.23H356.679V133.91H357.279C358.509 133.91 359.259 133.115 359.259 132.215C359.259 131.285 358.569 130.7 357.564 130.7C356.349 130.7 355.509 131.435 355.464 132.77H353.874C353.979 130.52 355.629 129.35 357.579 129.35C359.574 129.35 360.909 130.43 360.909 132.065C360.909 133.19 360.144 134.165 359.064 134.465C360.399 134.69 361.374 135.68 361.374 137.045C361.374 138.89 359.904 140.18 357.594 140.18ZM376.536 131.57C377.691 131.57 378.666 132.08 379.251 132.875L379.296 131.75H380.736V142.67H379.221V138.89C378.636 139.685 377.676 140.18 376.536 140.18C374.346 140.18 372.816 138.38 372.816 135.875C372.816 133.355 374.346 131.57 376.536 131.57ZM376.866 138.905C377.931 138.905 378.831 138.26 379.221 137.225V134.495C378.831 133.475 377.931 132.845 376.866 132.845C375.351 132.845 374.331 134.075 374.331 135.875C374.331 137.645 375.351 138.905 376.866 138.905ZM386.336 131.57C387.476 131.57 388.451 132.05 389.036 132.845V128.975H390.536V140H389.111L389.066 138.845C388.481 139.655 387.491 140.18 386.336 140.18C384.146 140.18 382.616 138.38 382.616 135.875C382.616 133.355 384.146 131.57 386.336 131.57ZM386.666 138.905C387.731 138.905 388.631 138.26 389.036 137.21V134.525C388.631 133.475 387.731 132.845 386.666 132.845C385.151 132.845 384.131 134.075 384.131 135.875C384.131 137.645 385.151 138.905 386.666 138.905ZM393.197 140V131.75H394.622L394.682 133.19C395.357 132.125 396.302 131.57 397.487 131.57C399.152 131.57 400.292 132.575 400.292 134.3V135.29H398.777V134.3C398.777 133.43 398.237 132.86 397.262 132.86C396.197 132.86 395.312 133.52 394.712 134.9V140H393.197ZM405.458 140.18C403.838 140.18 402.728 139.25 402.728 137.765C402.728 136.07 404.108 135.08 406.463 135.08H408.383V134.6C408.383 133.43 407.558 132.71 406.223 132.71C404.933 132.71 404.033 133.34 403.958 134.375H402.473C402.608 132.62 404.123 131.57 406.268 131.57C408.488 131.57 409.883 132.71 409.883 134.675V140H408.443L408.398 138.71C407.798 139.67 406.808 140.18 405.458 140.18ZM404.228 137.69C404.228 138.47 404.813 138.935 405.758 138.95C406.883 138.935 407.783 138.335 408.383 137.3V136.205H406.403C405.038 136.205 404.228 136.745 404.228 137.69ZM412.379 140V131.75H413.819L413.864 133.145C414.554 132.095 415.589 131.57 416.729 131.57C418.589 131.57 419.774 132.83 419.774 134.735V140H418.259V134.795C418.259 133.64 417.539 132.86 416.474 132.86C415.364 132.86 414.449 133.565 413.894 135.08V140H412.379ZM426.47 140C424.925 140 424.085 139.025 424.085 137.48V132.98H422.135V131.75H424.085V130.19L425.6 129.365V131.75H428.18V132.98H425.6V137.48C425.6 138.215 425.825 138.77 427.025 138.77H429.5V140H426.47ZM431.861 141.455L437.666 129.515H439.241L433.436 141.455H431.861ZM444.827 131.57C445.982 131.57 446.957 132.08 447.542 132.875L447.587 131.75H449.027V142.67H447.512V138.89C446.927 139.685 445.967 140.18 444.827 140.18C442.637 140.18 441.107 138.38 441.107 135.875C441.107 133.355 442.637 131.57 444.827 131.57ZM445.157 138.905C446.222 138.905 447.122 138.26 447.512 137.225V134.495C447.122 133.475 446.222 132.845 445.157 132.845C443.642 132.845 442.622 134.075 442.622 135.875C442.622 137.645 443.642 138.905 445.157 138.905ZM454.628 131.57C455.768 131.57 456.743 132.05 457.328 132.845V128.975H458.828V140H457.403L457.358 138.845C456.773 139.655 455.783 140.18 454.628 140.18C452.438 140.18 450.908 138.38 450.908 135.875C450.908 133.355 452.438 131.57 454.628 131.57ZM454.958 138.905C456.023 138.905 456.923 138.26 457.328 137.21V134.525C456.923 133.475 456.023 132.845 454.958 132.845C453.443 132.845 452.423 134.075 452.423 135.875C452.423 137.645 453.443 138.905 454.958 138.905ZM461.488 140V131.75H462.913L462.973 133.19C463.648 132.125 464.593 131.57 465.778 131.57C467.443 131.57 468.583 132.575 468.583 134.3V135.29H467.068V134.3C467.068 133.43 466.528 132.86 465.553 132.86C464.488 132.86 463.603 133.52 463.003 134.9V140H461.488ZM473.749 140.18C472.129 140.18 471.019 139.25 471.019 137.765C471.019 136.07 472.399 135.08 474.754 135.08H476.674V134.6C476.674 133.43 475.849 132.71 474.514 132.71C473.224 132.71 472.324 133.34 472.249 134.375H470.764C470.899 132.62 472.414 131.57 474.559 131.57C476.779 131.57 478.174 132.71 478.174 134.675V140H476.734L476.689 138.71C476.089 139.67 475.099 140.18 473.749 140.18ZM472.519 137.69C472.519 138.47 473.104 138.935 474.049 138.95C475.174 138.935 476.074 138.335 476.674 137.3V136.205H474.694C473.329 136.205 472.519 136.745 472.519 137.69ZM480.67 140V131.75H482.11L482.155 133.145C482.845 132.095 483.88 131.57 485.02 131.57C486.88 131.57 488.065 132.83 488.065 134.735V140H486.55V134.795C486.55 133.64 485.83 132.86 484.765 132.86C483.655 132.86 482.74 133.565 482.185 135.08V140H480.67ZM494.761 140C493.216 140 492.376 139.025 492.376 137.48V132.98H490.426V131.75H492.376V130.19L493.891 129.365V131.75H496.471V132.98H493.891V137.48C493.891 138.215 494.116 138.77 495.316 138.77H497.791V140H494.761Z" fill="#F0F3FA"/>
<circle cx="55" cy="55" r="4" fill="#DC244C"/>
<circle cx="68" cy="55" r="4" fill="#3D4866"/>
<circle cx="81" cy="55" r="4" fill="#038585"/>
<rect x="41.25" y="71.25" width="487.5" height="0.5" stroke="#28324D" stroke-width="0.5"/>
<rect x="41" y="88" width="1.66667" height="40" fill="#D4D9E6"/>
<path d="M65.6005 98H58.0672L56.8672 99.2667V103H53.0672L51.8672 104.267V116.8L53.0672 118H63.1339L64.3339 116.8V113H68.2672L69.3339 111.8V101.733L65.6005 98ZM65.6005 99.7333L67.6005 101.733H65.6005V99.7333ZM63.0672 116.733H53.0672V104.267H56.8672V111.8L58.0672 113H63.0672V116.733ZM68.0672 111.733H58.0672V99.2667H64.3339V103H68.0672V111.733Z" fill="#D4D9E6"/>
<path d="M63.6998 138C62.3532 138 61.1065 138.367 59.9598 139.1C58.8265 139.833 57.9798 140.82 57.4198 142.06C56.8732 143.287 56.6998 144.573 56.8998 145.92C57.1132 147.253 57.6665 148.427 58.5598 149.44L51.8398 157.06L52.7598 157.9L59.4798 150.3C60.2532 150.913 61.1132 151.333 62.0598 151.56C63.0198 151.787 63.9798 151.813 64.9398 151.64C65.9132 151.467 66.8065 151.1 67.6198 150.54C68.4332 149.98 69.0932 149.28 69.5998 148.44C70.1065 147.6 70.4198 146.693 70.5398 145.72C70.6598 144.747 70.5732 143.787 70.2798 142.84C69.9865 141.893 69.5132 141.053 68.8598 140.32C68.2065 139.587 67.4332 139.02 66.5398 138.62C65.6465 138.207 64.6998 138 63.6998 138ZM63.6998 150.5C62.6865 150.5 61.7398 150.247 60.8598 149.74C60.0198 149.233 59.3532 148.56 58.8598 147.72C58.3398 146.84 58.0798 145.893 58.0798 144.88C58.0798 143.853 58.3398 142.907 58.8598 142.04C59.3532 141.187 60.0198 140.513 60.8598 140.02C61.7398 139.5 62.6865 139.24 63.6998 139.24C64.7265 139.24 65.6732 139.5 66.5398 140.02C67.3932 140.513 68.0665 141.187 68.5598 142.04C69.0798 142.907 69.3398 143.853 69.3398 144.88C69.3398 145.893 69.0798 146.84 68.5598 147.72C68.0665 148.56 67.3932 149.233 66.5398 149.74C65.6732 150.247 64.7265 150.5 63.6998 150.5Z" fill="#3D4866"/>
<path d="M68.5017 184.86C68.515 184.26 68.3617 183.713 68.0417 183.22C67.735 182.713 67.3217 182.327 66.8017 182.06C66.2817 181.793 65.7217 181.687 65.1217 181.74C64.535 181.78 64.0017 181.98 63.5217 182.34C63.055 182.687 62.715 183.133 62.5017 183.68C62.2883 184.227 62.2283 184.793 62.3217 185.38C62.4283 185.953 62.675 186.46 63.0617 186.9C63.4617 187.34 63.9417 187.647 64.5017 187.82C64.2883 188.247 63.9817 188.587 63.5817 188.84C63.1817 189.08 62.7483 189.207 62.2817 189.22H59.7817C59.3283 189.22 58.8817 189.307 58.4417 189.48C58.015 189.64 57.635 189.873 57.3017 190.18V184.16C57.8083 184.053 58.2617 183.84 58.6617 183.52C59.0617 183.187 59.3617 182.78 59.5617 182.3C59.7617 181.82 59.835 181.32 59.7817 180.8C59.7283 180.28 59.555 179.807 59.2617 179.38C58.9683 178.953 58.595 178.62 58.1417 178.38C57.6883 178.127 57.195 178 56.6617 178C56.1417 178 55.655 178.127 55.2017 178.38C54.7483 178.62 54.375 178.953 54.0817 179.38C53.8017 179.807 53.635 180.28 53.5817 180.8C53.5283 181.32 53.6017 181.82 53.8017 182.3C54.0017 182.78 54.295 183.187 54.6817 183.52C55.0817 183.84 55.535 184.053 56.0417 184.16V191.76C55.535 191.867 55.0817 192.08 54.6817 192.4C54.2817 192.72 53.975 193.113 53.7617 193.58C53.5483 194.047 53.4617 194.54 53.5017 195.06C53.5417 195.58 53.695 196.06 53.9617 196.5C54.2283 196.94 54.5817 197.293 55.0217 197.56C55.4617 197.827 55.9417 197.973 56.4617 198C56.995 198.027 57.495 197.933 57.9617 197.72C58.4283 197.507 58.815 197.2 59.1217 196.8C59.4417 196.387 59.6483 195.927 59.7417 195.42C59.835 194.9 59.8017 194.393 59.6417 193.9C59.4817 193.407 59.2217 192.98 58.8617 192.62C58.5017 192.26 58.0683 192 57.5617 191.84C57.775 191.427 58.0817 191.093 58.4817 190.84C58.8817 190.587 59.315 190.46 59.7817 190.46H62.2817C63.0817 190.46 63.8017 190.227 64.4417 189.76C65.095 189.293 65.5483 188.68 65.8017 187.92C66.3083 187.853 66.7683 187.68 67.1817 187.4C67.595 187.107 67.915 186.74 68.1417 186.3C68.3817 185.847 68.5017 185.367 68.5017 184.86ZM54.8017 181.12C54.8017 180.787 54.8817 180.473 55.0417 180.18C55.215 179.887 55.4483 179.66 55.7417 179.5C56.035 179.327 56.3483 179.24 56.6817 179.24C57.015 179.24 57.3217 179.327 57.6017 179.5C57.895 179.66 58.1217 179.887 58.2817 180.18C58.455 180.473 58.5417 180.787 58.5417 181.12C58.5417 181.627 58.355 182.067 57.9817 182.44C57.6217 182.8 57.1817 182.98 56.6617 182.98C56.155 182.98 55.715 182.8 55.3417 182.44C54.9817 182.067 54.8017 181.627 54.8017 181.12ZM58.5417 194.82C58.5417 195.327 58.355 195.767 57.9817 196.14C57.6217 196.5 57.1817 196.68 56.6617 196.68C56.155 196.68 55.715 196.5 55.3417 196.14C54.9817 195.767 54.8017 195.327 54.8017 194.82C54.8017 194.3 54.9817 193.86 55.3417 193.5C55.715 193.127 56.155 192.94 56.6617 192.94C57.1817 192.94 57.6217 193.127 57.9817 193.5C58.355 193.86 58.5417 194.3 58.5417 194.82ZM65.4017 186.72C64.8817 186.72 64.435 186.54 64.0617 186.18C63.7017 185.807 63.5217 185.367 63.5217 184.86C63.5217 184.34 63.7017 183.9 64.0617 183.54C64.435 183.167 64.875 182.98 65.3817 182.98C65.9017 182.98 66.3417 183.167 66.7017 183.54C67.075 183.9 67.2617 184.34 67.2617 184.86C67.2617 185.367 67.075 185.807 66.7017 186.18C66.3417 186.54 65.9083 186.72 65.4017 186.72Z" fill="#3D4866"/>
<path d="M60.12 229.24L59.02 230.34C58.8467 229.66 58.48 229.1 57.92 228.66C57.36 228.22 56.72 228 56 228C55.28 228 54.64 228.22 54.08 228.66C53.52 229.1 53.1533 229.667 52.98 230.36L51.88 229.24L51 230.14L52.44 231.56L52.26 231.74V233H51V234.24H52.26V234.32C52.3133 234.733 52.4267 235.127 52.6 235.5L51 237.12L51.88 238L53.26 236.62C53.5933 237.047 54 237.38 54.48 237.62C54.96 237.86 55.4667 237.98 56 237.98C56.5333 237.98 57.04 237.86 57.52 237.62C58 237.38 58.4067 237.047 58.74 236.62L60.12 238L61 237.12L59.4 235.5C59.5733 235.113 59.6933 234.713 59.76 234.3V234.2H61V233H59.76V231.74L59.56 231.56L61 230.14L60.12 229.24ZM56 229.24C56.52 229.24 56.96 229.427 57.32 229.8C57.6933 230.16 57.88 230.6 57.88 231.12H54.12C54.12 230.6 54.3 230.16 54.66 229.8C55.0333 229.427 55.48 229.24 56 229.24ZM58.5 234.24C58.4333 234.907 58.1667 235.48 57.7 235.96C57.2333 236.427 56.6667 236.693 56 236.76C55.3333 236.693 54.7667 236.427 54.3 235.96C53.8333 235.48 53.5667 234.907 53.5 234.24V232.38H58.5V234.24ZM70.8 226V227.04L62.26 232.48V231L69.34 226.52L58.5 219.66V227.54C58.1133 227.273 57.6933 227.073 57.24 226.94V218.52L58.2 218L70.8 226Z" fill="#3D4866"/>
<path d="M62.26 259.24L63.5 258H69.76L71 259.24V265.5L69.76 266.74H63.5L62.26 265.5V259.24ZM63.5 259.24V265.5H69.76V259.24H63.5ZM51 270.5V263L52.26 261.74H58.5L59.76 263V269.24H66L67.26 270.5V276.74L66 278H52.26L51 276.74V270.5ZM58.5 269.24V263H52.26V269.24H58.5ZM58.5 270.5H52.26V276.74H58.5V270.5ZM59.76 276.74H66V270.5H59.76V276.74Z" fill="#3D4866"/>
<mask id="path-53-inside-2_1725_13840" fill="white">
<path d="M385 287C385 284.791 386.791 283 389 283H461C463.209 283 465 284.791 465 287V359C465 361.209 463.209 363 461 363H389C386.791 363 385 361.209 385 359V287Z"/>
</mask>
<path d="M385 287C385 284.791 386.791 283 389 283H461C463.209 283 465 284.791 465 287V359C465 361.209 463.209 363 461 363H389C386.791 363 385 361.209 385 359V287Z" fill="url(#paint1_linear_1725_13840)"/>
<path d="M385 287C385 284.239 387.239 282 390 282H460C462.761 282 465 284.239 465 287C465 285.343 463.209 284 461 284H389C386.791 284 385 285.343 385 287ZM465 363H385H465ZM385 363V283V363ZM465 283V363V283Z" fill="#3D4866" mask="url(#path-53-inside-2_1725_13840)"/>
<g clip-path="url(#clip0_1725_13840)">
<path fill-rule="evenodd" clip-rule="evenodd" d="M434.691 339.769L433.894 317.779L432.449 311.981L442.091 313.002V339.603L436.201 343.002L434.691 339.769Z" fill="#24386C"/>
<path fill-rule="evenodd" clip-rule="evenodd" d="M442.09 313L436.2 316.402L424.046 313.735L409.819 319.528L407.449 313L416.108 308L424.769 303L433.428 308L442.09 313Z" fill="#7589BE"/>
<path fill-rule="evenodd" clip-rule="evenodd" d="M407.449 313L413.339 316.402L416.753 326.555L428.281 335.779L424.77 343L416.108 338L407.449 333V313Z" fill="#B2BFE8"/>
<path fill-rule="evenodd" clip-rule="evenodd" d="M428.674 330.444L424.77 336.2V343.001L430.31 339.804L433.165 335.541" fill="#24386C"/>
<path fill-rule="evenodd" clip-rule="evenodd" d="M424.77 329.401L419.227 319.804L420.42 316.623L424.959 314.423L430.308 319.804L424.77 329.401Z" fill="#7589BE"/>
<path fill-rule="evenodd" clip-rule="evenodd" d="M419.23 319.804L424.771 323.001V329.4L419.647 329.62L416.547 325.662L419.23 319.804Z" fill="#B2BFE8"/>
<path fill-rule="evenodd" clip-rule="evenodd" d="M424.77 323L430.31 319.803L434.081 326.082L429.518 329.853L424.77 329.399V323Z" fill="#24386C"/>
<path fill-rule="evenodd" clip-rule="evenodd" d="M430.311 339.803L436.201 343V316.402L430.484 313.103L424.77 309.803L419.054 313.103L413.34 316.402V329.601L419.054 332.9L424.77 336.2L430.311 333V339.803ZM430.311 326.2L424.77 329.399L419.23 326.2V319.803L424.77 316.604L430.311 319.803V326.2Z" fill="#DC244C"/>
<path d="M424.77 336.202V329.401L419.258 326.229V333.019L424.77 336.202Z" fill="url(#paint2_linear_1725_13840)"/>
</g>
<path d="M485 313V333" stroke="#8F98B3" stroke-width="2" stroke-linecap="round" stroke-linejoin="round"/>
<path d="M495 323H475" stroke="#8F98B3" stroke-width="2" stroke-linecap="round" stroke-linejoin="round"/>
<mask id="path-66-inside-3_1725_13840" fill="white">
<path d="M505 287C505 284.791 506.791 283 509 283H581C583.209 283 585 284.791 585 287V359C585 361.209 583.209 363 581 363H509C506.791 363 505 361.209 505 359V287Z"/>
</mask>
<path d="M505 287C505 284.791 506.791 283 509 283H581C583.209 283 585 284.791 585 287V359C585 361.209 583.209 363 581 363H509C506.791 363 505 361.209 505 359V287Z" fill="url(#paint3_linear_1725_13840)"/>
<path d="M505 287C505 284.239 507.239 282 510 282H580C582.761 282 585 284.239 585 287C585 285.343 583.209 284 581 284H509C506.791 284 505 285.343 505 287ZM585 363H505H585ZM505 363V283V363ZM585 283V363V283Z" fill="#3D4866" mask="url(#path-66-inside-3_1725_13840)"/>
<path d="M562.504 318.216C562.256 316.391 561.253 314.806 559.428 313.375L558.377 312.666L557.677 313.731C556.742 315.256 556.323 317.041 556.48 318.823C556.57 319.812 556.885 320.767 557.401 321.616C556.279 322.189 555.03 322.468 553.77 322.424H521.185L521.121 322.801C520.815 324.632 520.818 330.345 524.482 334.734C527.264 338.07 531.436 339.763 536.889 339.763C548.689 339.763 557.423 334.248 561.515 324.252C563.122 324.285 566.588 324.252 568.366 320.822C568.41 320.745 568.52 320.532 568.829 319.882L569 319.526L568.002 318.85C566.921 318.114 564.434 317.847 562.518 318.216H562.504ZM547.239 306H542.276V310.563H547.239V306ZM547.239 311.475H542.276V316.038H547.239V311.475ZM541.383 311.475H536.42V316.038H541.383V311.475ZM535.527 311.475H530.564V316.038H535.527V311.475ZM529.671 316.954H524.708V321.517H529.671V316.954ZM535.527 316.954H530.564V321.517H535.527V316.954ZM541.383 316.954H536.42V321.517H541.383V316.954ZM547.239 316.954H542.276V321.517H547.239V316.954ZM553.095 316.954H548.132V321.517H553.095V316.954Z" fill="#1D63ED"/>
<defs>
<linearGradient id="paint0_linear_1725_13840" x1="285" y1="39" x2="285" y2="339" gradientUnits="userSpaceOnUse">
<stop stop-color="#161E33"/>
<stop offset="1" stop-color="#0E1424"/>
</linearGradient>
<linearGradient id="paint1_linear_1725_13840" x1="425" y1="283" x2="425" y2="363" gradientUnits="userSpaceOnUse">
<stop stop-color="#161E33"/>
<stop offset="1" stop-color="#0E1424"/>
</linearGradient>
<linearGradient id="paint2_linear_1725_13840" x1="423.753" y1="330.701" x2="418.261" y2="330.701" gradientUnits="userSpaceOnUse">
<stop stop-color="#FF3364"/>
<stop offset="1" stop-color="#C91540" stop-opacity="0"/>
</linearGradient>
<linearGradient id="paint3_linear_1725_13840" x1="545" y1="283" x2="545" y2="363" gradientUnits="userSpaceOnUse">
<stop stop-color="#161E33"/>
<stop offset="1" stop-color="#0E1424"/>
</linearGradient>
<clipPath id="clip0_1725_13840">
<rect width="34.5" height="40" fill="white" transform="translate(407.449 303)"/>
</clipPath>
</defs>
</svg>
