<svg width="72" height="64" viewBox="0 0 72 64" fill="none" xmlns="http://www.w3.org/2000/svg">
<path d="M40.3966 24.1727L40.2825 24.0595C40.3247 23.9486 40.3532 23.8263 40.3966 23.7199H40.5107C40.481 23.9214 40.4171 24.055 40.3966 24.1727Z" fill="#161E33"/>
<path d="M40.3966 24.1727C39.7576 27.834 39.0366 31.4816 38.457 35.1542H47.9266L43.4462 21.0334L38.3429 18.2858H46.5575L54.5679 42.6578L58.8794 45.0024H46.8998L50.5599 43.1163C50.6534 42.814 48.8656 37.389 48.6705 37.0754C48.5028 36.8059 48.4994 36.6905 48.1046 36.7312L38.0542 36.8478L36.9692 42.7687L41.1952 45.0024H29.786L33.4609 42.9318C35.7929 36.6644 37.9151 30.311 40.2825 24.0595C40.3703 23.9339 40.408 23.9712 40.3966 24.1727Z" fill="#161E33"/>
<path d="M71.8859 18.2858L67.8927 20.7198L67.8836 42.5706L72 45.0024H60.0204L64.1368 42.5729L64.1311 20.6281L60.1344 18.2858H71.8859Z" fill="#161E33"/>
<path d="M9.36474 18.399C9.6899 18.3322 9.84165 18.3695 9.82111 18.5122C4.7463 22.2527 7.5233 26.7664 10.8445 30.345C14.1349 33.8896 19.5657 39.5365 23.2235 42.5151C24.5504 43.5952 26.0701 44.2246 27.5042 45.1167H21.1721C17.2987 40.2509 6.52842 33.0337 4.51812 27.4536C3.17754 23.7301 4.96308 18.6356 9.36474 18.399Z" fill="#161E33"/>
<path d="M5.37154 32.2107V32.3239C-1.75349 39.5966 7.31681 47.6719 14.1566 40.3619V40.4751C13.5976 42.8016 11.0134 45.0544 8.68249 45.5152C-1.02673 47.4364 -3.24467 34.8893 5.37154 32.2107Z" fill="#161E33"/>
<path d="M13.4721 27.569C15.6215 24.7818 14.9336 19.976 11.6477 18.3978C16.5982 17.8442 19.9331 23.6984 16.6096 27.569H13.4721Z" fill="#161E33"/>
<path d="M18.4921 34.2485C18.6747 32.8232 18.2388 31.9424 17.123 31.0786H21.4585C20.5811 32.2696 19.5897 33.3722 18.6062 34.4749C18.4522 34.5994 18.4145 34.5236 18.4921 34.2485Z" fill="#161E33"/>
</svg>
