<svg width="44" height="64" viewBox="0 0 44 64" fill="none" xmlns="http://www.w3.org/2000/svg">
<path fill-rule="evenodd" clip-rule="evenodd" d="M22 11.375C33.3732 11.375 42.625 20.6268 42.625 32C42.625 43.3732 33.3732 52.625 22 52.625C10.6268 52.625 1.375 43.3732 1.375 32C1.375 20.6268 10.6268 11.375 22 11.375ZM22 10C9.84893 10 0 19.8489 0 32C0 44.1511 9.84893 54 22 54C34.1511 54 44 44.1511 44 32C44 19.8489 34.1511 10 22 10ZM11.7034 35.1979C11.7034 35.4148 11.5275 35.5907 11.3105 35.5907C11.0935 35.5907 10.9176 35.4148 10.9176 35.1979C10.9176 34.9809 11.0935 34.805 11.3105 34.805C11.5275 34.805 11.7034 34.9809 11.7034 35.1979ZM10.9917 36.4197C10.9917 36.6366 10.8158 36.8125 10.5988 36.8125C10.3819 36.8125 10.206 36.6366 10.206 36.4197C10.206 36.2027 10.3819 36.0268 10.5988 36.0268C10.8158 36.0268 10.9917 36.2027 10.9917 36.4197ZM10.2945 38.2386C10.5114 38.2386 10.6873 38.0627 10.6873 37.8457C10.6873 37.6287 10.5114 37.4528 10.2945 37.4528C10.0775 37.4528 9.90161 37.6287 9.90161 37.8457C9.90161 38.0627 10.0775 38.2386 10.2945 38.2386ZM10.6873 39.1637C10.6873 39.3807 10.5114 39.5566 10.2945 39.5566C10.0775 39.5566 9.90161 39.3807 9.90161 39.1637C9.90161 38.9468 10.0775 38.7709 10.2945 38.7709C10.5114 38.7709 10.6873 38.9468 10.6873 39.1637ZM10.5129 40.8648C10.7299 40.8648 10.9058 40.689 10.9058 40.472C10.9058 40.255 10.7299 40.0791 10.5129 40.0791C10.2959 40.0791 10.12 40.255 10.12 40.472C10.12 40.689 10.2959 40.8648 10.5129 40.8648ZM11.5002 41.7056C11.5002 41.9225 11.3243 42.0984 11.1073 42.0984C10.8903 42.0984 10.7144 41.9225 10.7144 41.7056C10.7144 41.4886 10.8903 41.3127 11.1073 41.3127C11.3243 41.3127 11.5002 41.4886 11.5002 41.7056ZM11.921 43.2181C12.138 43.2181 12.3139 43.0422 12.3139 42.8252C12.3139 42.6082 12.138 42.4323 11.921 42.4323C11.704 42.4323 11.5282 42.6082 11.5282 42.8252C11.5282 43.0422 11.704 43.2181 11.921 43.2181ZM13.5331 43.5363C13.5331 43.7532 13.3572 43.9291 13.1403 43.9291C12.9233 43.9291 12.7474 43.7532 12.7474 43.5363C12.7474 43.3193 12.9233 43.1434 13.1403 43.1434C13.3572 43.1434 13.5331 43.3193 13.5331 43.5363ZM14.4768 44.322C14.6937 44.322 14.8696 44.1461 14.8696 43.9291C14.8696 43.7122 14.6937 43.5363 14.4768 43.5363C14.2598 43.5363 14.0839 43.7122 14.0839 43.9291C14.0839 44.1461 14.2598 44.322 14.4768 44.322ZM16.3798 44.045C16.3798 44.262 16.2039 44.4379 15.9869 44.4379C15.77 44.4379 15.5941 44.262 15.5941 44.045C15.5941 43.828 15.77 43.6521 15.9869 43.6521C16.2039 43.6521 16.3798 43.828 16.3798 44.045ZM19.2257 43.827C19.4427 43.827 19.6186 43.6511 19.6186 43.4342C19.6186 43.2172 19.4427 43.0413 19.2257 43.0413C19.0087 43.0413 18.8328 43.2172 18.8328 43.4342C18.8328 43.6511 19.0087 43.827 19.2257 43.827ZM20.8539 42.9254C20.8539 43.1423 20.678 43.3182 20.4611 43.3182C20.2441 43.3182 20.0682 43.1423 20.0682 42.9254C20.0682 42.7084 20.2441 42.5325 20.4611 42.5325C20.678 42.5325 20.8539 42.7084 20.8539 42.9254ZM21.4789 42.505C21.6958 42.505 21.8717 42.3291 21.8717 42.1121C21.8717 41.8952 21.6958 41.7193 21.4789 41.7193C21.2619 41.7193 21.086 41.8952 21.086 42.1121C21.086 42.3291 21.2619 42.505 21.4789 42.505ZM21.2612 40.8923C21.2612 41.1093 21.0853 41.2852 20.8684 41.2852C20.6514 41.2852 20.4755 41.1093 20.4755 40.8923C20.4755 40.6754 20.6514 40.4995 20.8684 40.4995C21.0853 40.4995 21.2612 40.6754 21.2612 40.8923ZM19.3439 40.6762C19.5608 40.6762 19.7367 40.5004 19.7367 40.2834C19.7367 40.0664 19.5608 39.8905 19.3439 39.8905C19.1269 39.8905 18.951 40.0664 18.951 40.2834C18.951 40.5004 19.1269 40.6762 19.3439 40.6762ZM18.8218 39.1638C18.8218 39.3808 18.646 39.5567 18.429 39.5567C18.212 39.5567 18.0361 39.3808 18.0361 39.1638C18.0361 38.9468 18.212 38.7709 18.429 38.7709C18.646 38.7709 18.8218 38.9468 18.8218 39.1638ZM18.224 38.2386C18.441 38.2386 18.6169 38.0627 18.6169 37.8457C18.6169 37.6287 18.441 37.4528 18.224 37.4528C18.007 37.4528 17.8311 37.6287 17.8311 37.8457C17.8311 38.0627 18.007 38.2386 18.224 38.2386ZM18.6169 36.4196C18.6169 36.6366 18.441 36.8125 18.224 36.8125C18.007 36.8125 17.8311 36.6366 17.8311 36.4196C17.8311 36.2026 18.007 36.0268 18.224 36.0268C18.441 36.0268 18.6169 36.2026 18.6169 36.4196ZM18.429 35.5907C18.646 35.5907 18.8218 35.4148 18.8218 35.1979C18.8218 34.9809 18.646 34.805 18.429 34.805C18.212 34.805 18.0361 34.9809 18.0361 35.1979C18.0361 35.4148 18.212 35.5907 18.429 35.5907ZM23.7006 35.1979C23.7006 35.4148 23.5247 35.5907 23.3077 35.5907C23.0908 35.5907 22.9149 35.4148 22.9149 35.1979C22.9149 34.9809 23.0908 34.805 23.3077 34.805C23.5247 34.805 23.7006 34.9809 23.7006 35.1979ZM31.342 35.5907C31.559 35.5907 31.7349 35.4148 31.7349 35.1979C31.7349 34.9809 31.559 34.805 31.342 34.805C31.125 34.805 30.9491 34.9809 30.9491 35.1979C30.9491 35.4148 31.125 35.5907 31.342 35.5907ZM23.7006 36.4197C23.7006 36.6366 23.5247 36.8125 23.3077 36.8125C23.0908 36.8125 22.9149 36.6366 22.9149 36.4197C22.9149 36.2027 23.0908 36.0268 23.3077 36.0268C23.5247 36.0268 23.7006 36.2027 23.7006 36.4197ZM31.342 36.8125C31.559 36.8125 31.7349 36.6366 31.7349 36.4197C31.7349 36.2027 31.559 36.0268 31.342 36.0268C31.125 36.0268 30.9491 36.2027 30.9491 36.4197C30.9491 36.6366 31.125 36.8125 31.342 36.8125ZM23.7006 37.8457C23.7006 38.0627 23.5247 38.2386 23.3077 38.2386C23.0908 38.2386 22.9149 38.0627 22.9149 37.8457C22.9149 37.6288 23.0908 37.4529 23.3077 37.4529C23.5247 37.4529 23.7006 37.6288 23.7006 37.8457ZM31.342 38.2386C31.559 38.2386 31.7349 38.0627 31.7349 37.8457C31.7349 37.6287 31.559 37.4528 31.342 37.4528C31.125 37.4528 30.9491 37.6287 30.9491 37.8457C30.9491 38.0627 31.125 38.2386 31.342 38.2386ZM23.7006 39.1637C23.7006 39.3807 23.5247 39.5566 23.3077 39.5566C23.0908 39.5566 22.9149 39.3807 22.9149 39.1637C22.9149 38.9468 23.0908 38.7709 23.3077 38.7709C23.5247 38.7709 23.7006 38.9468 23.7006 39.1637ZM31.342 39.5566C31.559 39.5566 31.7349 39.3807 31.7349 39.1637C31.7349 38.9468 31.559 38.7709 31.342 38.7709C31.125 38.7709 30.9491 38.9468 30.9491 39.1637C30.9491 39.3807 31.125 39.5566 31.342 39.5566ZM23.8026 40.472C23.8026 40.689 23.6268 40.8648 23.4098 40.8648C23.1928 40.8648 23.0169 40.689 23.0169 40.472C23.0169 40.255 23.1928 40.0791 23.4098 40.0791C23.6268 40.0791 23.8026 40.255 23.8026 40.472ZM31.342 40.8648C31.559 40.8648 31.7349 40.6889 31.7349 40.4719C31.7349 40.255 31.559 40.0791 31.342 40.0791C31.125 40.0791 30.9491 40.255 30.9491 40.4719C30.9491 40.6889 31.125 40.8648 31.342 40.8648ZM31.7349 42.1121C31.7349 42.3291 31.559 42.505 31.342 42.505C31.125 42.505 30.9491 42.3291 30.9491 42.1121C30.9491 41.8952 31.125 41.7193 31.342 41.7193C31.559 41.7193 31.7349 41.8952 31.7349 42.1121ZM32.7635 42.7093C32.9805 42.7093 33.1564 42.5334 33.1564 42.3164C33.1564 42.0994 32.9805 41.9235 32.7635 41.9235C32.5466 41.9235 32.3707 42.0994 32.3707 42.3164C32.3707 42.5334 32.5466 42.7093 32.7635 42.7093ZM34.4786 42.6209C34.4786 42.8378 34.3027 43.0137 34.0857 43.0137C33.8688 43.0137 33.6929 42.8378 33.6929 42.6209C33.6929 42.4039 33.8688 42.228 34.0857 42.228C34.3027 42.228 34.4786 42.4039 34.4786 42.6209ZM32.7635 43.6246C32.9805 43.6246 33.1564 43.4488 33.1564 43.2318C33.1564 43.0148 32.9805 42.8389 32.7635 42.8389C32.5466 42.8389 32.3707 43.0148 32.3707 43.2318C32.3707 43.4488 32.5466 43.6246 32.7635 43.6246ZM31.7349 43.7523C31.7349 43.9693 31.559 44.1452 31.342 44.1452C31.125 44.1452 30.9491 43.9693 30.9491 43.7523C30.9491 43.5354 31.125 43.3595 31.342 43.3595C31.559 43.3595 31.7349 43.5354 31.7349 43.7523ZM29.8157 44.322C30.0327 44.322 30.2086 44.1461 30.2086 43.9291C30.2086 43.7122 30.0327 43.5363 29.8157 43.5363C29.5987 43.5363 29.4229 43.7122 29.4229 43.9291C29.4229 44.1461 29.5987 44.322 29.8157 44.322ZM28.582 44.045C28.582 44.262 28.4061 44.4379 28.1892 44.4379C27.9722 44.4379 27.7963 44.262 27.7963 44.045C27.7963 43.828 27.9722 43.6521 28.1892 43.6521C28.4061 43.6521 28.582 43.828 28.582 44.045ZM26.6647 44.3396C26.8816 44.3396 27.0575 44.1637 27.0575 43.9468C27.0575 43.7298 26.8816 43.5539 26.6647 43.5539C26.4477 43.5539 26.2718 43.7298 26.2718 43.9468C26.2718 44.1637 26.4477 44.3396 26.6647 44.3396ZM25.7362 43.5363C25.7362 43.7532 25.5603 43.9291 25.3434 43.9291C25.1264 43.9291 24.9505 43.7532 24.9505 43.5363C24.9505 43.3193 25.1264 43.1434 25.3434 43.1434C25.5603 43.1434 25.7362 43.3193 25.7362 43.5363ZM24.3256 43.218C24.5425 43.218 24.7184 43.0421 24.7184 42.8251C24.7184 42.6082 24.5425 42.4323 24.3256 42.4323C24.1086 42.4323 23.9327 42.6082 23.9327 42.8251C23.9327 43.0421 24.1086 43.218 24.3256 43.218ZM24.0936 41.6918C24.0936 41.9088 23.9177 42.0846 23.7007 42.0846C23.4838 42.0846 23.3079 41.9088 23.3079 41.6918C23.3079 41.4748 23.4838 41.2989 23.7007 41.2989C23.9177 41.2989 24.0936 41.4748 24.0936 41.6918ZM22.2926 41.2852C22.5096 41.2852 22.6855 41.1093 22.6855 40.8923C22.6855 40.6754 22.5096 40.4995 22.2926 40.4995C22.0756 40.4995 21.8997 40.6754 21.8997 40.8923C21.8997 41.1093 22.0756 41.2852 22.2926 41.2852ZM18.0081 43.9428C18.0081 44.1598 17.8322 44.3357 17.6153 44.3357C17.3983 44.3357 17.2224 44.1598 17.2224 43.9428C17.2224 43.7259 17.3983 43.55 17.6153 43.55C17.8322 43.55 18.0081 43.7259 18.0081 43.9428ZM33.4506 33.1573C35.0716 33.155 37.2863 33.1518 38.4457 33.1589V33.1609C38.7463 33.1629 39.0821 33.3102 39.0821 33.8445C39.0821 34.0114 39.0821 34.528 38.3927 34.528H5.68929C5.265 34.528 5.08822 34.1411 5.08822 33.8445C5.08822 33.3946 5.35143 33.1609 5.81107 33.1609C7.00171 33.1609 8.21904 33.1658 9.43207 33.1708C10.6365 33.1757 11.8367 33.1805 13.0023 33.1805C14.0768 32.5795 15.2377 31.9764 16.3573 31.562C16.9576 31.3091 17.6046 31.1042 18.2594 30.8967C19.8331 30.398 21.4525 29.8849 22.5802 28.6587C23.2928 27.2593 23.0965 24.7928 22.9437 22.8742C22.91 22.4499 22.8783 22.0525 22.8591 21.6993C22.2777 18.7686 19.1329 18.2814 16.9014 19.6937C20.7927 21.4125 21.4409 26.773 16.76 28.1991C13.5425 29.0673 10.7591 26.6395 11.37 23.3179C12.0496 16.9221 27.7777 16.215 30.7123 21.0373C32.0151 23.3962 31.9347 26.1626 31.855 28.9013C31.8129 30.3498 31.771 31.7904 31.9341 33.1589C32.288 33.1589 32.8251 33.1582 33.4506 33.1573ZM20.9581 31.6806C19.5114 33.0946 19.2707 33.3298 22.9809 33.098C23.038 32.3812 23.0276 31.6479 23.0172 30.9154C23.0112 30.4898 23.0051 30.0645 23.0123 29.6429C22.9503 29.3383 22.721 29.6835 22.5048 30.0089C22.4129 30.1473 22.3234 30.2821 22.2502 30.3618C21.7716 30.8854 21.3258 31.3211 20.9581 31.6806Z" fill="#161E33"/>
</svg>
