<svg width="134" height="64" viewBox="0 0 134 64" fill="none" xmlns="http://www.w3.org/2000/svg">
<path d="M13.1562 44.3848C12.0962 45.7341 10.8438 46.988 9.44629 48L6.55469 44.0957C7.6147 43.3248 8.57831 42.4093 9.39746 41.3975L13.1562 44.3848Z" fill="#161E33"/>
<path d="M9.44629 16.1445C14.5063 19.8553 17.542 25.7829 17.542 32.0479C17.542 36.8191 19.8072 41.2523 23.6143 44.0957L20.7715 48C15.7114 44.2892 12.7227 38.3609 12.7227 32.0957C12.6743 27.3249 10.4099 22.8429 6.55469 20.0479L9.44629 16.1445Z" fill="#161E33"/>
<path d="M1.83105 21.7344C7.51761 24.0475 10.265 30.5054 7.95215 36.2402C6.84356 39.0354 4.67404 41.2047 1.87891 42.3613L0.0478516 37.8789C3.22859 36.5776 4.77078 32.9153 3.46973 29.6865C2.84332 28.0963 1.59033 26.8433 0 26.2168L1.83105 21.7344Z" fill="#161E33"/>
<path d="M30.2168 26.168C26.9878 27.662 25.5422 31.518 27.0361 34.7471C27.7108 36.1927 28.8677 37.3491 30.3135 37.9756L28.3379 42.3613C22.603 39.8552 20.0485 33.1564 22.6025 27.4697C23.7111 24.9638 25.6872 22.9398 28.1934 21.7832L30.2168 26.168Z" fill="#161E33"/>
<path fill-rule="evenodd" clip-rule="evenodd" d="M47.999 35.8613H45.3193L44.7852 34.1895H41.498L40.9434 35.8613H38.4326L41.4492 27.1865H44.9814L47.999 35.8613ZM42.3701 31.5625L42.2021 32.0693H44.1074L43.9453 31.5625L43.2617 29.2979H43.0781L42.3701 31.5625Z" fill="#161E33"/>
<path d="M51.5117 33.6738H55.8584V35.8613H49.0732V27.1865H51.5117V33.6738Z" fill="#161E33"/>
<path d="M64.2637 27.1865V29.375H59.6719L59.6748 30.4258H64.0752V32.5986H59.6816L59.6846 33.6738H64.2637V35.8613H57.2373V27.1865H64.2637Z" fill="#161E33"/>
<path fill-rule="evenodd" clip-rule="evenodd" d="M68.4199 27.1914H70.2266C70.8483 27.177 71.4654 27.3071 72.0293 27.5674C72.5208 27.8131 72.9304 28.1938 73.21 28.666C73.769 29.7504 73.769 31.0328 73.21 32.1172C72.9305 32.5845 72.5207 32.9602 72.0293 33.1963C71.4606 33.4469 70.8483 33.5631 70.2266 33.5342V33.5625H68.4199V35.8613H65.9902V27.1865H68.4199V27.1914ZM70.1348 29.375H68.4199V31.3936H70.1348C70.4287 31.4225 70.7231 31.3555 70.9785 31.2061C71.2725 30.6952 71.2725 30.0685 70.9785 29.5576C70.7231 29.4083 70.4287 29.3461 70.1348 29.375Z" fill="#161E33"/>
<path d="M77.3975 30.4111H80.626V27.1865H83.0645L83.1084 35.8613H80.626V32.5986H77.3975V35.8613H74.959V27.1865H77.3975V30.4111Z" fill="#161E33"/>
<path fill-rule="evenodd" clip-rule="evenodd" d="M96.8682 35.8613H94.2021L93.668 34.1895H90.3584L89.8076 35.8613H87.2969L90.3135 27.1865H93.8506L96.8682 35.8613ZM91.2246 31.5625L91.0576 32.0684H92.9902L92.8291 31.5625L92.1445 29.2979H91.9424L91.2246 31.5625Z" fill="#161E33"/>
<path d="M100.376 33.6738H104.723V35.8613H97.9756V27.1865H100.405L100.376 33.6738Z" fill="#161E33"/>
<path fill-rule="evenodd" clip-rule="evenodd" d="M108.539 27.1914H110.212C110.833 27.177 111.45 27.3073 112.014 27.5674C112.505 27.8131 112.915 28.1939 113.194 28.666C113.753 29.7504 113.753 31.0328 113.194 32.1172C112.915 32.5845 112.505 32.9602 112.014 33.1963C111.445 33.4468 110.833 33.563 110.212 33.5342V33.5625H108.539V35.8613H106.101V27.1865H108.539V27.1914ZM110.12 29.375H108.539V31.3936H110.12C110.414 31.4224 110.708 31.3553 110.963 31.2061C111.257 30.6952 111.257 30.0685 110.963 29.5576C110.708 29.4084 110.414 29.3461 110.12 29.375Z" fill="#161E33"/>
<path d="M117.533 30.4111H120.806V27.1865H123.234V35.8613H120.806V32.5986H117.533V35.8613H115.095V27.1865H117.533V30.4111Z" fill="#161E33"/>
<path fill-rule="evenodd" clip-rule="evenodd" d="M133.871 35.8613H131.172L130.638 34.1895H127.359L126.815 35.8613H124.304L127.321 27.1865H130.854L133.871 35.8613ZM128.213 31.5625L128.049 32.0684H129.96L129.798 31.5625L129.114 29.2979H128.931L128.213 31.5625Z" fill="#161E33"/>
<path d="M23.7588 19.9512C22.6021 20.7704 21.6389 21.6868 20.7715 22.7471L17.0127 19.7588C18.1692 18.3131 19.47 17.0602 20.9639 16L23.7588 19.9512Z" fill="#161E33"/>
</svg>
