<svg width="120" height="64" viewBox="0 0 120 64" fill="none" xmlns="http://www.w3.org/2000/svg">
<path fill-rule="evenodd" clip-rule="evenodd" d="M62.2981 35.156L60.979 36.1162C62.0986 38.0756 64.0579 39.3157 66.336 39.2742C69.0948 39.2742 71.1345 37.6349 71.1345 35.156C71.1345 33.1565 69.8542 32.077 67.6953 31.0378L66.0561 30.2383L65.9875 30.205C64.6997 29.5812 63.6963 29.095 63.6963 27.7593C63.6963 26.2808 64.9766 25.6004 66.336 25.6004C67.6953 25.6004 68.9355 26.2794 69.735 27.4794L71.014 26.5191C70.0953 25.0393 68.4158 24 66.3761 24C63.9776 24 61.8977 25.5187 61.8977 27.8383C61.8977 30.0373 63.6976 31.0378 65.2565 31.7971L66.9359 32.5967C68.4158 33.277 69.4149 33.8368 69.4149 35.1962C69.4149 36.7148 68.1761 37.6751 66.4163 37.6751C64.5374 37.6751 63.178 36.5153 62.2981 35.156ZM82.4512 32.598H75.534C75.9345 30.7177 77.3728 29.4789 79.2129 29.4387C80.9312 29.4387 82.4111 30.5583 82.4512 32.598ZM75.4938 34.1167H84.1307C84.1709 33.9172 84.2512 33.3976 84.2914 32.7948C84.2914 29.9168 82.0924 27.8771 79.2933 27.8771C76.134 27.8771 73.6952 30.3962 73.6952 33.5957C73.6952 36.8354 76.2144 39.3143 79.4928 39.3143C81.2513 39.3143 82.7713 38.555 83.8508 37.3952L82.8517 36.2354C81.9316 37.1153 80.8522 37.7153 79.4928 37.7153C77.3728 37.7153 75.7335 36.2756 75.4938 34.1167ZM96.3273 39.0746V32.1976C96.3273 29.6784 94.8474 27.8785 92.2479 27.9187C90.8484 27.9187 89.6886 28.4383 88.889 29.3182V28.1584H87.29V39.0746H89.0096V32.3971C89.0096 30.6775 90.2096 29.4775 91.889 29.4775C93.5684 29.4775 94.6077 30.6775 94.6077 32.3971V39.0746H96.3273ZM100.045 36.0359L98.9656 37.1957C99.8455 38.3555 101.285 39.3157 103.207 39.3143C105.245 39.3143 107.045 38.2335 107.045 36.1149C107.045 34.556 106.125 33.7163 104.166 32.8766L103.167 32.4373C101.967 31.9177 101.407 31.5976 101.407 30.8382C101.407 29.9583 102.168 29.4789 103.207 29.4789C104.206 29.4789 105.166 29.9196 105.886 30.6789L106.925 29.5995C106.085 28.5602 104.845 27.8799 103.286 27.8799C101.287 27.8799 99.6072 28.9593 99.6072 30.9186C99.6072 32.4775 100.646 33.277 102.326 33.9574L103.365 34.3966C104.485 34.8373 105.284 35.1962 105.284 36.1564C105.284 37.1555 104.364 37.7153 103.204 37.7153C101.845 37.7153 100.925 36.9961 100.045 36.0359ZM118.158 32.598H111.241C111.642 30.7177 113.081 29.4789 114.92 29.4387C116.638 29.4387 118.118 30.5583 118.158 32.598ZM111.202 34.1167H119.839C119.878 33.9172 119.958 33.3976 120 32.7948C120 29.9168 117.801 27.8771 115.002 27.8771C111.843 27.8771 109.404 30.3962 109.404 33.5957C109.404 36.8354 111.923 39.3143 115.201 39.3143C116.96 39.3143 118.48 38.555 119.559 37.3952L118.56 36.2354C117.64 37.1153 116.561 37.7153 115.201 37.7153C113.081 37.7153 111.442 36.2756 111.202 34.1167ZM0 39.0746L6.63734 24H7.6364L14.2336 39.0746H10.9953L10.1555 37.1555H4.07801L3.2383 39.0746H0ZM9.07749 34.6363L7.11816 29.6383L5.11865 34.6363H9.07749ZM27.8699 30.4378C29.4703 30.4378 30.7493 31.6378 30.7493 33.5167C30.7493 35.3971 29.4301 36.5957 27.8699 36.5555C26.4704 36.5555 25.0708 35.5952 25.0708 33.4765C25.0708 31.3579 26.4704 30.4378 27.8699 30.4378ZM25.111 37.9952C25.9106 38.8751 27.0704 39.3545 28.4297 39.3545C31.589 39.3545 33.8282 36.8756 33.8282 33.5167C33.8282 30.1579 31.589 27.7191 28.4297 27.7191C26.911 27.7191 25.6306 28.3191 24.8713 29.3584V27.9588H22.0723V43.1928H25.111V37.9952ZM55.6206 34.7957V34.9162C55.6206 36.2368 54.5412 37.1153 53.301 37.1153C52.3421 37.1153 51.7019 36.6747 51.7019 35.9153C51.7019 35.1962 52.2617 34.7957 53.2608 34.7957H55.6206ZM58.6192 39.0746V32.4775C58.6192 29.3182 56.7 27.7191 53.822 27.7205C51.8627 27.7205 50.3024 28.4411 48.9833 29.9999L50.5421 31.8789C51.4608 30.9186 52.3005 30.3588 53.5005 30.3588C54.9001 30.3588 55.5804 31.1181 55.5804 32.3181V32.7976H52.7814C50.222 32.7976 48.5828 33.9962 48.5828 36.0359C48.5828 37.9148 49.9823 39.3545 52.4211 39.3545C53.8608 39.3545 55.0206 38.8349 55.8201 37.9952V39.0746H58.6192ZM19.0737 39.0746H16.0349V24H19.0737V39.0746ZM39.2268 28.9191C39.946 28.1584 41.0254 27.7191 42.2656 27.7191C44.8249 27.7191 46.4239 29.5191 46.4239 32.1976V39.076H43.4254V32.598C43.4254 31.2789 42.5843 30.4392 41.3455 30.4392C40.1067 30.4392 39.2268 31.3191 39.2268 32.598V39.076H36.188V24.0014H39.2268V28.9191ZM0 41.5148H19.0737V43.1942H0V41.5148Z" fill="#161E33"/>
</svg>
