<svg width="94" height="64" viewBox="0 0 94 64" fill="none" xmlns="http://www.w3.org/2000/svg">
<path d="M21.9616 33.352C21.923 29.3026 25.2699 27.357 25.4204 27.2643C23.5366 24.5119 20.6105 24.1336 19.5682 24.0912C17.0784 23.8364 14.7081 25.5581 13.442 25.5581C12.1758 25.5581 10.2264 24.1259 8.16112 24.1684C5.44349 24.207 2.93817 25.7472 1.53689 28.1792C-1.28111 33.0663 0.818878 40.3236 3.57125 44.2959C4.91849 46.2376 6.51664 48.4264 8.62435 48.3453C10.6549 48.2642 11.4192 47.0328 13.8666 47.0328C16.314 47.0328 17.005 48.3453 19.1475 48.3067C21.3285 48.2642 22.7105 46.3225 24.0461 44.3731C25.5825 42.1148 26.2195 39.9337 26.2581 39.8179C26.2079 39.7986 22.0079 38.1889 21.9616 33.352Z" fill="#161E33"/>
<path d="M17.9354 21.4585C19.0549 20.1035 19.8076 18.2236 19.603 16.3475C17.9933 16.4131 16.0438 17.4206 14.8896 18.7756C13.8551 19.9723 12.9479 21.887 13.195 23.7245C14.9823 23.8634 16.8198 22.8096 17.9354 21.4585ZM36.0787 37.3319L34.2257 42.9486H31.8439L37.9084 25.0987H40.6878L46.7755 42.9486H44.3126L42.4057 37.3319H36.0787ZM41.9308 35.5292L40.186 30.3912C39.7884 29.2253 39.5259 28.1676 39.2595 27.1331H39.2093C38.943 28.1908 38.6535 29.2755 38.3099 30.3641L36.5651 35.5253L41.9308 35.5292ZM48.5821 34.3132C48.5821 32.6726 48.5319 31.3446 48.474 30.1287H50.5663L50.6744 32.329H50.7245C51.678 30.7656 53.1874 29.8391 55.2797 29.8391C58.3795 29.8391 60.7072 32.4603 60.7072 36.3553C60.7072 40.9644 57.9008 43.2381 54.8821 43.2381C53.1874 43.2381 51.7051 42.497 50.9369 41.2269H50.8867V48.1909H48.5821V34.3132ZM50.8828 37.7295C50.8828 38.077 50.933 38.3896 50.9909 38.683C51.4155 40.2966 52.8168 41.4122 54.4883 41.4122C56.9512 41.4122 58.3833 39.401 58.3833 36.4595C58.3833 33.8886 57.0322 31.6959 54.5694 31.6959C52.9828 31.6959 51.5005 32.8347 51.0449 34.5834C50.9639 34.8729 50.8867 35.2204 50.8867 35.5369L50.8828 37.7295ZM63.116 34.3132C63.116 32.6726 63.0658 31.3446 63.0079 30.1287H65.1002L65.2083 32.329H65.2585C66.212 30.7656 67.7213 29.8391 69.8136 29.8391C72.9134 29.8391 75.2411 32.4603 75.2411 36.3553C75.2411 40.9644 72.4347 43.2381 69.416 43.2381C67.7213 43.2381 66.239 42.497 65.4708 41.2269H65.4206V48.1909H63.116V34.3132ZM65.4206 37.7295C65.4206 38.077 65.4708 38.3896 65.5287 38.683C65.9533 40.2966 67.3546 41.4122 69.0261 41.4122C71.489 41.4122 72.9211 39.401 72.9211 36.4595C72.9211 33.8886 71.57 31.6959 69.1072 31.6959C67.5206 31.6959 66.0383 32.8347 65.5827 34.5834C65.5017 34.8729 65.4245 35.2204 65.4245 35.5369L65.4206 37.7295ZM77.6538 24.1452H79.9854V42.9448H77.6538V24.1452ZM84.6718 36.9613C84.722 40.1113 86.737 41.4122 89.0648 41.4122C90.7324 41.4122 91.74 41.1227 92.6124 40.7521L93.01 42.4198C92.1916 42.7904 90.7865 43.215 88.7482 43.215C84.803 43.215 82.4444 40.6209 82.4444 36.7529C82.4444 32.8849 84.722 29.8391 88.4549 29.8391C92.6394 29.8391 93.7512 33.518 93.7512 35.8766C93.7512 36.3553 93.701 36.722 93.6701 36.9613H84.6718ZM91.5045 35.2937C91.5315 33.8114 90.8946 31.5068 88.2734 31.5068C85.9148 31.5068 84.8841 33.6801 84.6988 35.2937H91.5045Z" fill="#161E33"/>
</svg>
