<svg width="86" height="64" viewBox="0 0 86 64" fill="none" xmlns="http://www.w3.org/2000/svg">
<path d="M9.34326 25.4814L6.81527 32.7454H11.9353L9.34326 25.4814ZM6.91127 40.1054V41.4494H0.447266V40.1054H2.49527L8.79926 22.8254H11.2633L17.7593 40.1054H19.7433V41.4494H12.2553V40.1054H14.5913L12.4153 34.0574H6.33527L4.22327 40.1054H6.91127ZM27.4828 40.2974V41.4494H20.2507V40.2974H22.1387V28.9694H20.2507V27.8174H24.9547V30.1854C26.2027 28.9694 27.6428 27.4974 28.7627 27.4974C29.8188 27.4974 30.7468 28.1694 31.2588 28.7774L29.7548 31.1134C28.7948 30.4414 28.0267 29.8334 27.1627 29.8334C26.7468 29.8334 25.9147 30.0254 24.9547 30.8894V40.2974H27.4828ZM38.8488 32.3614C38.8488 30.6974 38.0167 29.3534 36.0007 29.3534C34.5287 29.3534 33.3447 30.4414 32.6407 32.0734L31.4567 31.5934C32.3527 29.2254 34.3047 27.4974 36.9607 27.4974C39.7767 27.4974 41.6648 29.2574 41.6648 32.2334V39.0174C41.6648 39.8174 42.0487 40.1374 42.5927 40.1374C43.1047 40.1374 43.5527 39.8814 43.9047 39.5614L44.5127 40.3614C43.8728 41.0654 42.9447 41.7694 41.8887 41.7694C40.4807 41.7694 39.3287 41.0654 38.8807 39.4654C37.9527 40.6174 36.3847 41.7374 34.6887 41.7374C32.8647 41.7374 31.2327 40.5534 31.2327 38.4734C31.2327 36.4894 32.8967 35.4974 34.9127 34.7614L38.8488 33.3534V32.3614ZM38.8488 34.4734L36.1607 35.4974C34.8487 36.0094 34.0167 36.6814 34.0167 37.9294C34.0167 39.3374 34.7847 40.0734 35.8727 40.0734C37.0247 40.0734 38.0807 39.4014 38.8488 38.5694V34.4734ZM51.3015 28.6814C49.2855 28.6814 47.3335 30.5054 47.3335 33.7374C47.3335 37.5134 49.7335 40.0094 52.4215 40.0094C53.5095 40.0094 54.6295 39.6574 55.6855 38.4734L56.3255 39.1134C55.0135 40.9054 53.1895 41.7694 51.2695 41.7694C47.7495 41.7694 44.6455 39.1134 44.6455 35.0174C44.6455 30.8894 47.6215 27.4974 51.4295 27.4974C52.9655 27.4974 54.0215 28.1374 54.5655 28.6814L54.8855 27.6254H55.8135V32.4254H54.7575C54.2775 29.8974 53.1255 28.6814 51.3015 28.6814ZM63.526 41.7694C60.23 41.7694 56.998 39.0174 56.998 34.6334C56.998 30.2494 60.23 27.4974 63.526 27.4974C66.8219 27.4974 70.0539 30.2494 70.0539 34.6334C70.0539 39.0174 66.8219 41.7694 63.526 41.7694ZM63.526 28.7134C61.446 28.7134 59.942 30.7934 59.942 34.6334C59.942 38.4734 61.446 40.5534 63.526 40.5534C65.606 40.5534 67.1099 38.4734 67.1099 34.6334C67.1099 30.7934 65.606 28.7134 63.526 28.7134ZM78.4553 40.2974V41.4494H71.2233V40.2974H73.1113V28.9694H71.2233V27.8174H75.9273V30.1854C77.1753 28.9694 78.6153 27.4974 79.7353 27.4974C80.7913 27.4974 81.7193 28.1694 82.2313 28.7774L80.7273 31.1134C79.7673 30.4414 78.9993 29.8334 78.1353 29.8334C77.7193 29.8334 76.8873 30.0254 75.9273 30.8894V40.2974H78.4553Z" fill="#3C3430"/>
<path d="M81.4727 39.6894C81.4727 38.5374 82.4007 37.6094 83.5527 37.6094C84.7047 37.6094 85.6327 38.5374 85.6327 39.6894C85.6327 40.8414 84.7047 41.7694 83.5527 41.7694C82.4007 41.7694 81.4727 40.8414 81.4727 39.6894Z" fill="#E35336"/>
</svg>
