<svg width="110" height="64" viewBox="0 0 110 64" fill="none" xmlns="http://www.w3.org/2000/svg">
<path fill-rule="evenodd" clip-rule="evenodd" d="M2.13389 34.2454V29.7133H4.77005C5.13062 29.7133 5.43566 29.7658 5.68996 29.8661C5.94904 29.9664 6.13768 30.1037 6.2708 30.278C6.39795 30.4523 6.46063 30.6422 6.46063 30.8541C6.46063 31.2976 6.19737 31.6146 5.66309 31.8044C5.97411 31.8999 6.23319 32.0211 6.43974 32.1745C6.64509 32.3226 6.74657 32.5709 6.74657 32.9082C6.74657 33.1512 6.66718 33.3786 6.50898 33.5792C6.35497 33.7851 6.12335 33.9433 5.81174 34.0651C5.5049 34.1863 5.13539 34.2448 4.71334 34.2448L2.13389 34.2454ZM2.94336 30.2356V31.6301H4.40054C4.81303 31.6301 5.12464 31.5776 5.33537 31.4665C5.54669 31.3549 5.65235 31.1651 5.65235 30.8959C5.65235 30.6792 5.55684 30.5156 5.36223 30.4046C5.16643 30.2935 4.84945 30.2356 4.41068 30.2356H2.94336ZM2.94336 32.1322V33.7219H4.67036C5.08166 33.7219 5.40043 33.6478 5.61594 33.4998C5.71785 33.4353 5.80114 33.3453 5.85757 33.2387C5.91401 33.1321 5.94163 33.0126 5.9377 32.8921C5.9377 32.3853 5.47386 32.1316 4.53843 32.1316L2.94336 32.1322Z" fill="#161E33"/>
<path fill-rule="evenodd" clip-rule="evenodd" d="M11.7532 32.9243H9.35049L8.72787 34.2448H7.89333L10.1439 29.7127H11.0626L13.2277 34.2448H12.346L11.7532 32.9243ZM9.59824 32.3859H11.4577L10.5749 30.389H10.5599L9.59824 32.3859Z" fill="#161E33"/>
<path d="M16.5182 32.4175V34.2454H15.7099V32.4175L13.4492 29.7133H14.3894L16.111 31.8898L17.8273 29.7133H18.7788L16.5182 32.4175Z" fill="#161E33"/>
<path d="M24.1664 33.701V34.2454H19.7513V29.7133H24.1085V30.2571H20.559V31.6409H23.8333V32.1853H20.559V33.701H24.1664Z" fill="#161E33"/>
<path fill-rule="evenodd" clip-rule="evenodd" d="M26.3423 32.3023V34.2454H25.534V29.7133H28.3021C28.8722 29.7133 29.3432 29.8028 29.7127 29.9933C30.0822 30.1783 30.2679 30.4899 30.2679 30.9341C30.2679 31.2296 30.1932 31.4564 30.0392 31.6152C29.8864 31.7734 29.6858 31.9059 29.4327 32.0163C29.6602 32.0904 29.8339 32.1751 29.9503 32.2856C30.0715 32.3912 30.1401 32.5864 30.1509 32.867L30.2034 33.6908C30.2034 33.8233 30.2243 33.9182 30.2673 33.9762C30.3037 34.0341 30.3825 34.0926 30.5037 34.1457V34.246H29.5115C29.4683 34.1339 29.4396 34.0167 29.4261 33.8974C29.4048 33.7519 29.3908 33.6055 29.3844 33.4586C29.3748 33.3428 29.3694 33.2267 29.3682 33.1106C29.3682 32.8676 29.3008 32.6724 29.1569 32.5244C29.0196 32.3763 28.7289 32.3023 28.3009 32.3023H26.3423ZM26.3423 30.2356V31.7728H28.2185C28.5779 31.7728 28.8728 31.7203 29.1014 31.6146C29.3229 31.5036 29.4339 31.2976 29.4339 30.9967C29.4339 30.4893 29.0793 30.2362 28.3612 30.2362L26.3423 30.2356Z" fill="#161E33"/>
<path fill-rule="evenodd" clip-rule="evenodd" d="M13.8927 23.0208V18.4881H16.5289C16.8883 18.4881 17.1945 18.5412 17.4536 18.6415C17.7067 18.7418 17.8977 18.8791 18.0296 19.0534C18.1556 19.2277 18.2243 19.4176 18.2243 19.6295C18.2243 20.073 17.955 20.39 17.4219 20.5799C17.7377 20.6748 17.992 20.7965 18.1974 20.95C18.4039 21.0974 18.5042 21.3463 18.5042 21.6836C18.5042 21.932 18.4248 22.154 18.272 22.3546C18.1132 22.5606 17.8816 22.7193 17.57 22.8405C17.2632 22.9623 16.8936 23.0202 16.4704 23.0202L13.8927 23.0208ZM14.7004 19.0116V20.4055H16.1636C16.5707 20.4055 16.8829 20.353 17.0942 20.242C17.3055 20.1309 17.416 19.9411 17.416 19.6767C17.416 19.4546 17.3157 19.291 17.1199 19.18C16.9253 19.069 16.6083 19.0111 16.1695 19.0111L14.7004 19.0116ZM14.7004 20.9076V22.4973H16.4286C16.8399 22.4973 17.1575 22.4239 17.3742 22.2758C17.4761 22.2113 17.5594 22.1213 17.6158 22.0147C17.6723 21.9081 17.6999 21.7886 17.696 21.6681C17.696 21.1613 17.2309 20.9076 16.2967 20.9076H14.7004Z" fill="#161E33"/>
<path fill-rule="evenodd" clip-rule="evenodd" d="M17.2888 27.4365H14.8914L14.2617 28.7516H13.4283L15.6788 24.2195H16.5975L18.7627 28.7516H17.881L17.2888 27.4365ZM15.1386 26.8921H16.9981L16.111 24.8953H16.1003L15.1386 26.8921Z" fill="#161E33"/>
<path d="M18.3824 39.4849V40.0287H13.9668V35.4966H18.3239V36.0357H14.775V37.4248H18.0499V37.9692H14.775V39.4849H18.3824Z" fill="#161E33"/>
<path fill-rule="evenodd" clip-rule="evenodd" d="M14.6318 43.9585V45.9081H13.8247V41.376H16.5916C17.1629 41.376 17.6327 41.4656 18.0022 41.65C18.3717 41.8405 18.5574 42.1521 18.5574 42.5902C18.5574 42.8917 18.4827 43.1185 18.3299 43.2767C18.1819 43.4361 17.9753 43.5674 17.7222 43.6785C17.9497 43.7471 18.1234 43.8373 18.2446 43.9477C18.361 44.054 18.4302 44.2486 18.4404 44.5291L18.4941 45.3535C18.4941 45.4855 18.515 45.5804 18.5568 45.6389C18.5932 45.6968 18.672 45.7499 18.7932 45.8019V45.9081H17.801C17.7578 45.7958 17.7291 45.6785 17.7156 45.5589C17.6943 45.4136 17.6803 45.2674 17.6739 45.1207C17.6646 45.0047 17.6596 44.8885 17.6589 44.7721C17.6589 44.5297 17.5903 44.3339 17.447 44.1865C17.3097 44.0385 17.025 43.9591 16.591 43.9591L14.6318 43.9585ZM14.6318 41.899V43.4361H16.508C16.8716 43.4361 17.1635 43.383 17.3909 43.272C17.6124 43.1663 17.7234 42.9609 17.7234 42.6541C17.7234 42.1521 17.37 41.899 16.6507 41.899H14.6318Z" fill="#161E33"/>
<path fill-rule="evenodd" clip-rule="evenodd" d="M0 32.1059C0 23.2172 7.21713 16 16.1053 16C25.0007 16 32.2118 23.2166 32.2118 32.1059C32.2118 40.9952 25.0007 48.2112 16.1053 48.2112C7.21715 48.2112 0 40.9946 0 32.1059ZM16.1053 16.973C7.75455 16.973 0.973039 23.7545 0.973039 32.1059C0.973039 40.4572 7.75452 47.2381 16.1053 47.2381C24.4631 47.2381 31.2387 40.4579 31.2387 32.1059C31.2387 23.7538 24.4631 16.973 16.1053 16.973Z" fill="#161E33"/>
<path fill-rule="evenodd" clip-rule="evenodd" d="M46.1072 40.9904H36.7314V19.2027H46.3232C50.3855 19.2027 52.4821 21.7218 52.4821 24.6959C52.4821 26.122 51.9645 28.1236 49.5665 29.2435L49.5976 29.2561C51.0289 29.8389 53.5124 30.85 53.5124 34.557C53.5124 38.0486 50.9347 40.9904 46.1072 40.9904ZM45.0189 21.7212H39.6732V28.4245H44.9873C47.8079 28.4245 49.5402 27.5738 49.5402 24.906C49.5402 22.8728 48.2938 21.7212 45.0189 21.7212ZM45.4732 30.8224H39.6732V38.4706H45.9591C49.0227 38.4706 50.5706 36.9227 50.5706 34.4931C50.5706 31.4295 47.8712 30.8224 45.4732 30.8224Z" fill="#161E33"/>
<path fill-rule="evenodd" clip-rule="evenodd" d="M62.059 26.8765C59.0271 26.8765 58.5991 28.7307 58.4194 29.9455H55.9641C56.0853 26.1477 58.5997 24.663 62.5187 24.663C63.7914 24.663 68.4029 25.0278 68.4029 29.0948V38.2283C68.4029 38.8939 68.736 39.1691 69.2852 39.1691C69.5281 39.1691 69.8612 39.11 70.1621 39.0473V40.991C70.0531 41.0202 69.9477 41.0527 69.8422 41.0853C69.5076 41.1886 69.1711 41.2924 68.7091 41.2924C66.3374 41.2924 65.9727 40.0818 65.8831 38.8676C64.8534 39.9875 63.2422 41.4447 60.147 41.4447C57.2362 41.4447 55.1713 39.5959 55.1713 36.86C55.1713 35.5288 55.5677 32.4336 59.9989 31.8844L64.3991 31.34C65.0331 31.2767 65.7936 31.0338 65.7936 29.4596C65.7936 27.7899 64.5788 26.8765 62.059 26.8765ZM60.818 39.2306C63.3055 39.2306 65.7351 37.6206 65.7351 35.4966V32.8873C65.3077 33.2204 64.6421 33.4634 61.3301 33.8914C60.0306 34.0705 57.9341 34.4663 57.9341 36.4684C57.9341 38.196 58.8158 39.2306 60.818 39.2306Z" fill="#161E33"/>
<path d="M76.8283 36.8278H76.8916L81.2166 25.1167H84.2115C83.9679 25.724 83.7248 26.3313 83.4817 26.9386C81.8432 31.0323 80.2046 35.1261 78.4013 39.2198C75.8398 45.0461 75.5598 45.3738 72.0682 45.3738C71.7391 45.3738 71.4739 45.3027 71.15 45.2159C71.079 45.1969 71.0053 45.1771 70.9274 45.1571V42.955C71.2653 43.066 71.8199 43.2033 72.5649 43.2033C73.9841 43.2033 74.1387 42.8495 75.4343 39.885L75.4386 39.8753L69.4434 25.1173H72.5338L76.8283 36.8278Z" fill="#161E33"/>
<path fill-rule="evenodd" clip-rule="evenodd" d="M92.3522 39.1362C94.8713 39.1362 96.356 37.1979 96.4455 36.0148H99.1193C99.0303 36.7699 98.3008 39.0204 96.2987 40.351C95.5698 40.837 94.5346 41.4447 91.988 41.4447C87.5252 41.4447 84.8843 38.0749 84.8843 33.4956C84.8843 28.5785 87.2554 24.6636 92.5008 24.6636C97.0849 24.6636 99.3294 28.3033 99.3294 33.9182H87.7359C87.7359 37.2302 89.2832 39.1362 92.3522 39.1362ZM92.1349 27.0616C89.679 27.0616 87.7353 29.3378 87.7353 31.7943H96.5667C96.4139 29.3378 95.3829 27.0616 92.1349 27.0616Z" fill="#161E33"/>
<path d="M108.996 27.5159C106.508 27.5159 104.934 29.4596 104.934 31.7626L104.934 40.991H102.262V25.1185H104.781V27.7594H104.844C105.901 25.9053 107.301 24.6636 109.303 24.6636C109.636 24.6636 109.789 24.6959 110 24.7538V27.5159H108.996Z" fill="#161E33"/>
</svg>
