<svg width="70" height="64" viewBox="0 0 70 64" fill="none" xmlns="http://www.w3.org/2000/svg">
<path fill-rule="evenodd" clip-rule="evenodd" d="M42.7826 23.0874C42.7826 11.414 33.3148 2 21.6414 2C9.96801 2 0.500196 11.414 0.500196 23.0874V44.1748H21.6414C33.3148 44.121 42.7826 34.707 42.7826 23.0874ZM30.6789 19.806C32.1313 19.806 33.3148 20.9894 33.3148 22.3881C33.3148 23.8405 32.1313 24.9702 30.6789 24.9702C29.2264 24.9702 28.0429 23.7867 28.0429 22.3881C28.0967 20.9894 29.2264 19.806 30.6789 19.806ZM30.6789 26.7992C32.1313 26.7992 33.3148 27.9827 33.3148 29.3814C33.3148 30.8338 32.1313 31.9635 30.6789 31.9635C29.2264 31.9635 28.0429 30.78 28.0429 29.3814C28.0967 27.9289 29.2264 26.7992 30.6789 26.7992ZM10.5598 25.8847V14.4265H15.1323V25.8847C15.1323 27.6599 16.5847 29.1124 18.3599 29.1124C20.1352 29.1124 21.5876 27.6599 21.5876 25.8847C21.5876 24.1095 20.1352 22.6571 18.3599 22.6571H16.9613V18.0845H18.3599C22.6635 18.0845 26.1601 21.5812 26.1601 25.8847C26.1601 30.1883 22.6635 33.6849 18.3599 33.6849C14.1102 33.6849 10.5598 30.1883 10.5598 25.8847Z" fill="#161E33"/>
<path fill-rule="evenodd" clip-rule="evenodd" d="M42.7823 56.0096L41.3299 51.8674H39.6622L41.9216 57.7848H43.643L45.9024 51.8674H44.181L42.7823 56.0096Z" fill="#161E33"/>
<path fill-rule="evenodd" clip-rule="evenodd" d="M49.0228 51.691C48.1621 51.691 47.4089 52.0137 46.8172 52.6055C46.2255 53.1972 45.9027 53.9503 45.9027 54.811C45.9027 55.6717 46.2255 56.4249 46.8172 57.0166C47.4089 57.6083 48.1621 57.9311 49.0228 57.9311C49.8835 57.9311 50.6366 57.6083 51.2283 57.0166C51.8201 56.4249 52.1428 55.6717 52.1428 54.811C52.1428 53.9503 51.8201 53.1972 51.2283 52.6055C50.6366 52.0137 49.8835 51.691 49.0228 51.691ZM50.1525 55.9945C49.8297 56.3173 49.4531 56.4787 49.0228 56.4787C48.5386 56.4787 48.1621 56.3173 47.8931 55.9945C47.5703 55.6717 47.4627 55.2952 47.4627 54.811C47.4627 54.3269 47.6241 53.9503 47.8931 53.6276C48.2159 53.3048 48.5924 53.1434 49.0228 53.1434C49.5069 53.1434 49.8835 53.3048 50.1525 53.6276C50.4752 53.9503 50.6366 54.3269 50.6366 54.811C50.6366 55.2952 50.4752 55.6717 50.1525 55.9945Z" fill="#161E33"/>
<path fill-rule="evenodd" clip-rule="evenodd" d="M52.9496 57.7848H54.5096V51.8674H52.9496V57.7848Z" fill="#161E33"/>
<path fill-rule="evenodd" clip-rule="evenodd" d="M59.4047 56.2248C59.1895 56.3862 58.8667 56.4399 58.5978 56.4399C58.1136 56.4399 57.737 56.2786 57.4681 56.0096C57.1453 55.6868 57.0377 55.3103 57.0377 54.8799C57.0377 54.3958 57.1991 54.0192 57.4681 53.6964C57.7908 53.3737 58.1674 53.2661 58.5978 53.2661C58.9205 53.2661 59.1895 53.3199 59.4047 53.4813C59.6199 53.6426 59.835 53.804 59.9426 54.073L61.2337 53.3199C60.9647 52.8357 60.642 52.4592 60.1578 52.1902C59.6737 51.9212 59.1357 51.7598 58.5978 51.7598C57.6833 51.7598 56.9839 52.0826 56.3384 52.6743C55.7467 53.2661 55.4239 54.0192 55.4239 54.8799C55.4239 55.7406 55.7467 56.4937 56.3384 57.0855C56.9301 57.6772 57.6833 58 58.5978 58C59.1895 58 59.6737 57.8386 60.1578 57.5696C60.642 57.3007 61.0185 56.9241 61.2337 56.4399L59.8888 55.6868C59.835 55.902 59.6199 56.0634 59.4047 56.2248Z" fill="#161E33"/>
<path fill-rule="evenodd" clip-rule="evenodd" d="M64.8921 51.7061C63.9776 51.7061 63.2245 52.0288 62.6328 52.6206C62.041 53.2123 61.772 53.9654 61.772 54.8261C61.772 55.7406 62.0948 56.4938 62.6866 57.0855C63.2783 57.6772 64.0852 58 65.0535 58C66.1832 58 67.0439 57.5696 67.6356 56.7089L66.3984 56.0096C66.0756 56.3862 65.6452 56.6013 65.0535 56.6013C64.139 56.6013 63.6011 56.2248 63.3859 55.4717H67.8508C67.9046 55.2565 67.9046 55.0413 67.9046 54.8261C67.9046 53.9654 67.6356 53.2123 67.0439 52.6206C66.506 51.975 65.8066 51.7061 64.8921 51.7061ZM63.3859 54.2882C63.4935 53.9116 63.6549 53.5889 63.9238 53.4275C64.1928 53.2123 64.5156 53.1047 64.9459 53.1047C65.2687 53.1047 65.5915 53.2123 65.8604 53.4275C66.1294 53.6427 66.2908 53.9116 66.3984 54.342H63.3859V54.2882Z" fill="#161E33"/>
<path fill-rule="evenodd" clip-rule="evenodd" d="M3.94284 51.6522C3.13593 51.6522 2.49039 51.9212 2.00624 52.5129V49.4467H0.5V57.731H2.00624V57.0317C2.4366 57.6234 3.08213 57.8924 3.94284 57.8924C4.74976 57.8924 5.39529 57.5696 5.98703 56.9779C6.52497 56.3861 6.84774 55.633 6.84774 54.7723C6.84774 53.9116 6.57877 53.1585 5.98703 52.5667C5.44909 51.975 4.74976 51.6522 3.94284 51.6522ZM4.85735 56.0096C4.53458 56.3323 4.15802 56.4937 3.67387 56.4937C3.18972 56.4937 2.81316 56.3323 2.49039 56.0096C2.16763 55.6868 2.00624 55.3102 2.00624 54.8261C2.00624 54.3419 2.16763 53.9116 2.49039 53.6426C2.81316 53.3199 3.18972 53.1585 3.67387 53.1585C4.15802 53.1585 4.53458 53.3199 4.85735 53.6426C5.18011 53.9654 5.3415 54.3419 5.3415 54.8261C5.2877 55.3102 5.12632 55.6868 4.85735 56.0096Z" fill="#161E33"/>
<path fill-rule="evenodd" clip-rule="evenodd" d="M12.6037 52.5668C12.1196 51.975 11.5279 51.7061 10.6671 51.7061C9.86023 51.7061 9.2147 52.0288 8.62296 52.6206C8.08501 53.2123 7.76225 53.9654 7.76225 54.8261C7.76225 55.6868 8.03122 56.44 8.62296 57.0317C9.1609 57.6234 9.86023 57.9462 10.6671 57.9462C11.4741 57.9462 12.1196 57.6772 12.6037 57.0855V57.7848H14.11V51.8674H12.6037V52.5668ZM12.1196 56.0096C11.7968 56.3324 11.4203 56.4938 10.9361 56.4938C10.452 56.4938 10.0754 56.3324 9.75264 56.0096C9.42987 55.6868 9.26849 55.3103 9.26849 54.8261C9.26849 54.342 9.42987 53.9116 9.75264 53.6427C10.0754 53.3199 10.452 53.1585 10.9361 53.1585C11.4203 53.1585 11.7968 53.3199 12.1196 53.6427C12.4424 53.9654 12.6037 54.342 12.6037 54.8261C12.6037 55.3103 12.4424 55.6868 12.1196 56.0096Z" fill="#161E33"/>
<path fill-rule="evenodd" clip-rule="evenodd" d="M19.8124 52.8357V51.8674H15.3475V53.2661H17.7144L15.2399 56.7627V57.7848H19.92V56.3323H17.2841L19.8124 52.8357Z" fill="#161E33"/>
<path fill-rule="evenodd" clip-rule="evenodd" d="M25.4067 52.5668C24.9226 51.975 24.3308 51.7061 23.4701 51.7061C22.6632 51.7061 22.0177 52.0288 21.4259 52.6206C20.888 53.2123 20.5652 53.9654 20.5652 54.8261C20.5652 55.6868 20.8342 56.44 21.4259 57.0317C21.9639 57.6234 22.6632 57.9462 23.4701 57.9462C24.277 57.9462 24.9226 57.6772 25.4067 57.0855V57.7848H26.913V51.8674H25.4067V52.5668ZM24.9226 56.0096C24.5998 56.3324 24.2232 56.4938 23.7391 56.4938C23.2549 56.4938 22.8784 56.3324 22.5556 56.0096C22.2328 55.6868 22.0715 55.3103 22.0715 54.8261C22.0715 54.342 22.2328 53.9116 22.5556 53.6427C22.8784 53.3199 23.2549 53.1585 23.7391 53.1585C24.2232 53.1585 24.5998 53.3199 24.9226 53.6427C25.2453 53.9654 25.4067 54.342 25.4067 54.8261C25.4067 55.3103 25.2453 55.6868 24.9226 56.0096Z" fill="#161E33"/>
<path fill-rule="evenodd" clip-rule="evenodd" d="M32.7231 52.5668C32.2389 51.975 31.6472 51.7061 30.7865 51.7061C29.9795 51.7061 29.334 52.0288 28.7423 52.6206C28.2043 53.2123 27.8816 53.9654 27.8816 54.8261C27.8816 55.6868 28.1505 56.44 28.7423 57.0317C29.2802 57.6234 29.9795 57.9462 30.7865 57.9462C31.5934 57.9462 32.2389 57.6772 32.7231 57.0855V57.7848H34.2293V51.8674H32.7231V52.5668ZM32.2389 56.0096C31.9162 56.3324 31.5396 56.4938 31.0554 56.4938C30.5713 56.4938 30.1947 56.3324 29.872 56.0096C29.5492 55.6868 29.3878 55.3103 29.3878 54.8261C29.3878 54.342 29.5492 53.9116 29.872 53.6427C30.1947 53.3199 30.5713 53.1585 31.0554 53.1585C31.5396 53.1585 31.9162 53.3199 32.2389 53.6427C32.5617 53.9654 32.7231 54.342 32.7231 54.8261C32.7231 55.3103 32.5617 55.6868 32.2389 56.0096Z" fill="#161E33"/>
<path fill-rule="evenodd" clip-rule="evenodd" d="M37.0264 52.8357V51.8137H35.4664V57.731H36.9726V54.8799C36.9726 54.2882 37.134 53.9116 37.5106 53.6427C37.8871 53.3737 38.3175 53.3199 38.7478 53.3737V51.6523C38.3713 51.6523 37.9947 51.7599 37.6719 51.9212C37.403 52.1902 37.134 52.4592 37.0264 52.8357Z" fill="#161E33"/>
<path fill-rule="evenodd" clip-rule="evenodd" d="M67.743 51.706C67.743 51.2757 68.0658 50.9529 68.4961 50.9529C68.9265 50.9529 69.2493 51.2757 69.2493 51.706C69.2493 52.1364 68.9265 52.4592 68.4961 52.4592C68.1196 52.4592 67.743 52.1364 67.743 51.706ZM69.1417 51.706C69.1417 51.3833 68.8727 51.1143 68.5499 51.1143C68.2272 51.1143 67.9582 51.3833 67.9582 51.706C67.9582 52.0826 68.2272 52.2978 68.5499 52.2978C68.8727 52.2978 69.1417 52.0288 69.1417 51.706ZM68.3885 51.8136V52.1364H68.1734V51.2757H68.5499C68.7113 51.2757 68.8189 51.3833 68.8189 51.5447C68.8189 51.6522 68.7651 51.7598 68.6575 51.8136L68.8727 52.1364H68.6037L68.4423 51.8136H68.3885ZM68.4961 51.706C68.6037 51.706 68.6575 51.706 68.6575 51.5985C68.6575 51.5447 68.6037 51.4909 68.4961 51.4909H68.3885V51.706H68.4961Z" fill="#161E33"/>
</svg>
