<svg width="76" height="64" viewBox="0 0 76 64" fill="none" xmlns="http://www.w3.org/2000/svg">
<path fill-rule="evenodd" clip-rule="evenodd" d="M49.4184 30.6632H41.6643L40.487 32.5118L39.3069 34.3605H45.2816C44.9487 35.5336 44.2646 36.5766 43.3211 37.3491C42.344 38.1248 41.1297 38.5405 39.8823 38.5265C39.0802 38.5256 38.2867 38.3626 37.5492 38.0471C36.8117 37.7318 36.1457 37.2706 35.591 36.6912C34.4577 35.5143 33.8255 33.9433 33.8275 32.3094C33.8289 30.6898 34.4693 29.1362 35.6096 27.9861C36.175 27.4135 36.8485 26.9591 37.5913 26.6495C38.334 26.3399 39.1309 26.1812 39.9355 26.1828C40.6335 26.1785 41.3274 26.2892 41.9893 26.5104C42.6083 26.7206 43.1907 27.0262 43.7153 27.4161L44.7569 25.7566L45.7957 24.0864C44.9836 23.5132 44.0841 23.0751 43.132 22.7892C42.1055 22.4818 41.039 22.3283 39.9675 22.3337C38.5786 22.3204 37.2007 22.5821 35.9133 23.1035C34.7327 23.5884 33.6613 24.3048 32.7621 25.2105C30.6311 27.3415 30.0424 29.4725 29.6162 31.449C29.5741 31.6444 29.5337 31.8381 29.4937 32.0298C29.1289 33.7775 28.7975 35.3657 27.5012 36.6619C26.9311 37.244 26.2536 37.7098 25.5061 38.0338C24.7613 38.3455 23.9614 38.504 23.154 38.4999C22.329 38.4996 21.5122 38.3367 20.7502 38.0203C19.9883 37.7041 19.2962 37.2406 18.7135 36.6566C18.1346 36.0893 17.6735 35.4133 17.3567 34.6672C17.0399 33.9212 16.8736 33.1199 16.8675 32.3094C16.874 31.5065 17.0393 30.7127 17.3538 29.974C17.6683 29.2352 18.1259 28.5659 18.7002 28.0048C19.8794 26.8262 21.4735 26.1568 23.1407 26.1402C23.8287 26.1497 24.5118 26.2601 25.1678 26.4678C25.7803 26.6617 26.355 26.959 26.8672 27.3468L28.9983 24.0305C28.1867 23.4626 27.2866 23.0332 26.3345 22.7599C25.2997 22.4686 24.2289 22.3251 23.154 22.3337C21.5051 22.3282 19.8794 22.7211 18.4152 23.4791C17.0235 24.1978 15.8187 25.2312 14.8964 26.4971C14.5253 25.3859 13.7868 24.4343 12.8027 23.7987C11.6963 23.0847 10.4035 22.714 9.08679 22.7332H0.125977V41.9122H10.0164C11.1605 41.929 12.2899 41.654 13.2982 41.1131C14.1982 40.6223 14.9484 39.897 15.4691 39.014C16.3961 40.0401 17.5252 40.8635 18.7855 41.4327C20.2195 42.066 21.7769 42.3707 23.3439 42.3246C24.9109 42.2785 26.4478 41.8828 27.8422 41.1663C29.255 40.4202 30.4675 39.3448 31.377 38.0311C32.2697 39.3466 33.4739 40.4209 34.8825 41.1583C36.3897 41.9399 38.0645 42.3431 39.7624 42.333C41.0598 42.3387 42.3448 42.082 43.5404 41.5785C44.7361 41.075 45.8176 40.3349 46.7201 39.4029C48.5446 37.5042 49.5575 34.9692 49.5436 32.3361C49.5436 32.0483 49.5303 31.7686 49.5063 31.4916L49.5058 31.4851C49.482 31.2102 49.4581 30.9327 49.4184 30.6632ZM4.2894 26.3053H9.03618C9.60047 26.2961 10.1461 26.5073 10.5572 26.894C10.7549 27.0887 10.9109 27.3216 11.0157 27.5785C11.1206 27.8354 11.1721 28.1109 11.1671 28.3883C11.1706 28.668 11.118 28.9456 11.0123 29.2046C10.9066 29.4635 10.75 29.6987 10.5519 29.896C10.145 30.2875 9.60076 30.5037 9.03618 30.498H4.2894V26.3053ZM11.5721 37.7248C11.1404 38.1334 10.5682 38.3605 9.97381 38.3587H4.2894V34.0062H9.96049C10.5523 34.0025 11.1234 34.2234 11.5587 34.6242C11.7713 34.8214 11.941 35.0605 12.0569 35.3263C12.1729 35.5922 12.2327 35.8791 12.2327 36.1692C12.2348 36.4602 12.1773 36.7486 12.0637 37.0166C11.95 37.2847 11.7828 37.5265 11.5721 37.7274V37.7248Z" fill="#161E33"/>
<path d="M56.9997 22.6106H52.9481L58.5819 31.4622C58.7476 31.7225 58.8356 32.0247 58.8356 32.3333C58.8356 32.6419 58.7476 32.9439 58.5819 33.2043L52.9481 42.0559H56.9997C57.3748 42.0562 57.744 41.9616 58.0728 41.7809C58.4016 41.6002 58.6794 41.3393 58.8802 41.0224L64.4124 32.3338L69.9421 41.0224C70.1429 41.3393 70.4207 41.6002 70.7495 41.7809C71.0783 41.9616 71.4475 42.0562 71.8226 42.0559H75.8742L70.2404 33.2043C70.0747 32.9439 69.9867 32.6419 69.9867 32.3333C69.9867 32.0247 70.0747 31.7225 70.2404 31.4622L75.8742 22.6106H71.8226C71.4475 22.6103 71.0783 22.7049 70.7495 22.8856C70.4207 23.0663 70.1429 23.3272 69.9421 23.6441L64.4124 32.3328L58.8802 23.6441C58.6794 23.3272 58.4016 23.0663 58.0728 22.8856C57.744 22.7049 57.3748 22.6103 56.9997 22.6106Z" fill="#161E33"/>
</svg>
