<svg width="148" height="64" viewBox="0 0 148 64" fill="none" xmlns="http://www.w3.org/2000/svg">
<path fill-rule="evenodd" clip-rule="evenodd" d="M0 22.8842L0.765443 21.8233C0.93554 21.6284 1.36322 21.2166 1.71314 21.1289C1.86532 21.0907 2.55957 20.9723 3.42553 20.8246C4.55072 20.6327 5.96583 20.3913 6.85838 20.2123L6.37871 20.873V27.5246L8.8573 25.0394C9.40402 24.4546 10.8621 24.1623 11.7004 24.8567C12.2474 25.3098 12.7085 25.7869 13.0319 26.1216C13.1976 26.293 13.3271 26.427 13.4135 26.5013C14.0155 27.0399 14.3645 27.0118 14.9808 26.5013C15.8192 25.8069 17.1314 25.8434 17.8968 26.6109L19.6464 28.4017C20.3754 29.2179 21.6147 31.4351 20.9586 34.1762C20.8639 34.5715 20.7843 34.7718 20.668 35.0644C20.6347 35.1483 20.5983 35.2398 20.5577 35.3456L21.4955 39.2809L20.5942 43.788H18.4071L19.5887 39.2809L18.4071 35.3456L16.6211 43.788H14.4341L16.2201 35.3456H11.6275L13.4135 43.788H11.263L9.44046 35.3456L8.4942 39.2809L9.44046 43.788H7.3264L6.58734 39.2809L7.3264 35.3456C6.22075 34.6756 3.97302 32.5608 3.82723 29.4616C3.68142 26.3624 3.76647 24.3206 3.82723 23.6872C3.79996 23.688 3.77079 23.6891 3.73992 23.6903C3.33068 23.7056 2.62504 23.7321 2.15054 23.3582C1.31219 23.5775 0.473843 23.2497 0 22.8842ZM3.74483 21.8347L4.25513 21.3433L4.76543 21.8347L4.25513 22.3639L3.74483 21.8347Z" fill="#161E33"/>
<path d="M25.2676 34.9136C25.2676 32.5909 26.0023 30.6831 27.4717 29.1899C28.159 28.4868 28.957 27.9259 29.8655 27.5072C31.4061 26.804 33.1955 26.4525 35.2337 26.4525C36.2923 26.4525 37.2286 26.5354 38.0422 26.7013C38.856 26.8593 39.8159 27.1595 40.9219 27.6019L41.0641 27.8627C40.8982 28.5658 40.7125 29.8061 40.5071 31.5836H39.5591L39.4405 29.498C38.8638 28.9529 38.3385 28.5737 37.8645 28.3604C37.0586 27.997 36.1461 27.8153 35.1271 27.8153C32.9387 27.8153 31.2836 28.5855 30.1618 30.1261C29.3244 31.2716 28.9056 32.7529 28.9056 34.5699C28.9056 36.6872 29.4508 38.4134 30.541 39.7485C31.8525 41.3601 33.6655 42.166 35.9803 42.166C37.5603 42.166 39.1364 41.7512 40.7086 40.9217L40.993 41.218L40.4597 42.403C39.7803 42.7743 39.2115 43.035 38.7533 43.1851C37.6314 43.5564 36.3793 43.742 34.9967 43.742C32.9584 43.742 31.1968 43.3707 29.7115 42.6281C28.6923 42.1225 27.8154 41.4194 27.0807 40.5188C25.8719 39.0335 25.2676 37.1652 25.2676 34.9136Z" fill="#161E33"/>
<path d="M42.511 43.742V42.4977L43.2338 42.4267C43.7631 42.3793 44.2174 41.8934 44.5966 40.9691L48.993 30.3393L50.3796 26.6776H52.0979L58.3785 41.3601C58.655 41.9922 59.1014 42.3476 59.7176 42.4267L60.2982 42.4977V43.742C58.181 43.6947 56.9201 43.742 56.4856 43.742C56.0037 43.742 54.7563 43.6947 52.7733 43.742V42.4977L54.065 42.4267C54.1993 42.4188 54.3099 42.3517 54.3968 42.2253C54.4916 42.0988 54.539 41.9487 54.539 41.775C54.539 41.5537 54.4916 41.3286 54.3968 41.0994L53.3066 38.3264H47.2156L46.1964 41.0402C46.1253 41.2456 46.0897 41.4471 46.0897 41.6446C46.0897 41.8579 46.1529 42.0396 46.2793 42.1897C46.4137 42.3398 46.5835 42.4188 46.7889 42.4267L47.9977 42.4977V43.7437C47.3814 43.7279 46.8837 43.7506 46.5756 43.7427C45.9199 43.719 45.4722 43.742 45.2273 43.742H42.511ZM47.808 36.9637H52.7496L50.2255 30.8015L47.808 36.9637Z" fill="#161E33"/>
<path d="M61.674 43.742V42.4977L62.5746 42.4267C63.0487 42.3871 63.3528 42.2884 63.4871 42.1305C63.653 41.9408 63.736 41.2456 63.736 40.0448V30.1498C63.736 29.0674 63.6767 28.4117 63.5582 28.1826C63.4476 27.9456 63.1197 27.8074 62.5746 27.7679L61.674 27.6967V26.7961L62.9064 26.8317C63.7122 26.8554 64.1744 26.8672 64.2929 26.8672H64.5892L67.5044 26.7961C68.4208 28.787 69.0252 30.0905 69.3174 30.7067L73.157 38.7175L77.589 29.5335C77.8102 29.099 78.2091 28.1866 78.7859 26.7961C80.4687 26.8435 81.3969 26.8672 81.5707 26.8672C81.7523 26.8672 82.6925 26.8435 84.391 26.7961V27.6967L83.4905 27.7679C83.0164 27.8074 82.7083 27.9061 82.5661 28.0641C82.4081 28.2537 82.3291 28.9489 82.3291 30.1498V40.0448C82.3291 41.135 82.3804 41.7828 82.4832 41.9882C82.5858 42.1858 82.9216 42.3082 83.4905 42.3556L84.391 42.4267V43.742C82.5819 43.6947 81.336 43.742 80.625 43.742C79.9061 43.742 78.6358 43.6947 76.8424 43.742V42.4267L77.743 42.3556C78.2486 42.3161 78.5607 42.2292 78.6792 42.0949C78.8293 41.929 78.9043 41.2456 78.9043 40.0448V29.9483L73.9035 40.3647C73.2715 41.6761 72.7857 42.7427 72.446 43.5643H71.6283C71.2017 42.5531 70.9094 41.8815 70.7513 41.5497L65.1699 29.9246V40.0448C65.1699 41.1271 65.2252 41.7867 65.3358 42.0238C65.4463 42.2529 65.7782 42.3871 66.3312 42.4267L67.2318 42.4977V43.742C65.7937 43.742 64.9036 43.742 64.4454 43.742C63.9793 43.742 63.0882 43.6947 61.674 43.742Z" fill="#161E33"/>
<path d="M86.2538 27.6967V26.7961C88.4184 26.8435 89.9432 26.8672 90.828 26.8672C91.5707 26.8672 92.6214 26.8514 93.9802 26.8198C95.1416 26.7961 96.0146 26.7843 96.5991 26.7843C97.4049 26.7843 98.1711 26.8119 98.898 26.8672L99.0405 27.0331L98.7085 30.4934H97.8313L97.6417 28.6685C97.6259 28.5421 97.3891 28.4354 96.931 28.3485C96.4807 28.2537 95.9316 28.2063 95.2837 28.2063C94.0276 28.2063 92.8465 28.23 91.7405 28.2774V34.1078C92.1513 34.1393 92.6925 34.1551 93.364 34.1551H94.9638C95.4852 34.1551 95.8407 34.1196 96.0303 34.0485C96.22 33.9774 96.3265 33.8431 96.3503 33.6456L96.4925 32.2591H97.4642C97.4563 32.6462 97.4484 32.9386 97.4405 33.136C97.4089 33.9339 97.3932 34.4198 97.3932 34.5937C97.3932 34.7279 97.3932 34.8149 97.3932 34.8544L97.4642 37.4732H96.4925L96.3503 36.2646C96.3107 35.9406 96.1844 35.7115 95.9711 35.5772C95.7578 35.435 95.422 35.3639 94.9638 35.3639H93.364C92.8821 35.3639 92.3409 35.3876 91.7405 35.435V41.9171C92.9256 41.9804 93.9882 42.0119 94.9282 42.0119C96.1449 42.0119 97.0811 41.8895 97.737 41.6446C97.7762 41.6288 97.7998 41.609 97.8077 41.5853L98.3646 39.2983H99.3126L99.0405 43.1377L98.9717 43.7537C97.8421 43.8249 96.6115 43.7618 95.4659 43.7618C94.2652 43.7618 92.9621 43.7993 91.5559 43.752C90.9001 43.7282 90.3845 43.742 90.0053 43.742C89.4603 43.742 88.5054 43.6947 87.0596 43.742V42.8415L87.8299 42.403C88.1538 42.2213 88.3158 41.7591 88.3158 41.0165V30.1498C88.3158 29.0674 88.2565 28.4117 88.138 28.1826C88.0274 27.9535 87.6996 27.8153 87.1545 27.7679L86.2538 27.6967Z" fill="#161E33"/>
<path d="M101.091 27.7679V26.7961C103.041 26.8435 104.298 26.8672 104.859 26.8672C105.412 26.8672 106.672 26.8435 108.639 26.7961V27.7679L107.739 27.839C107.225 27.8785 106.909 27.9654 106.79 28.0997C106.649 28.2735 106.577 28.9568 106.577 30.1498V41.9171C107.722 41.9804 108.785 42.0119 109.764 42.0119C111.005 42.0119 111.941 41.8895 112.574 41.6446C112.613 41.6288 112.637 41.609 112.645 41.5853L113.202 39.1086H114.11L113.877 43.1377L113.736 43.752C112.605 43.823 111.443 43.752 110.297 43.752C109.096 43.752 107.861 43.7993 106.455 43.752C105.799 43.7282 105.216 43.752 104.837 43.752C104.292 43.752 103.342 43.7045 101.896 43.752V42.8415L102.666 42.403C102.99 42.2213 103.152 41.7631 103.152 41.0283V30.1498C103.152 29.0674 103.101 28.4236 102.998 28.2182C102.896 28.0128 102.56 27.8864 101.991 27.839L101.091 27.7679Z" fill="#161E33"/>
<path d="M114.804 35.8014C114.869 35.6037 114.941 35.3965 115.017 35.1799C115.145 34.8268 115.24 34.542 115.302 34.3254H120.31L120.437 34.4737C120.209 35.001 120.055 35.4813 119.975 35.9144H114.918L114.804 35.8014Z" fill="#161E33"/>
<path d="M121.131 43.7859V42.5317L121.854 42.4606C122.383 42.4132 122.837 41.9273 123.216 41.0031L127.613 30.3732L129.004 26.4525H130.737L136.998 41.3941C137.275 42.0261 137.721 42.3816 138.337 42.4606L138.918 42.5317V43.7859C136.805 43.7859 135.516 43.7859 135.082 43.7859C134.599 43.7859 133.337 43.7859 131.393 43.7859V42.5317L132.685 42.4606C132.819 42.4527 132.929 42.3856 133.017 42.2591C133.111 42.1327 133.158 41.9826 133.158 41.8088C133.158 41.5876 133.111 41.3625 133.017 41.1334L131.926 38.3604H125.835L124.816 41.0741C124.745 41.2795 124.709 41.481 124.709 41.6785C124.709 41.8918 124.772 42.0735 124.899 42.2236C125.033 42.3737 125.203 42.4527 125.409 42.4606L126.617 42.5317V43.7859C126.001 43.77 125.547 43.7937 125.239 43.7859C124.562 43.7859 124.068 43.7859 123.823 43.7859H121.131ZM126.427 36.9976H131.369L128.845 30.8354L126.427 36.9976Z" fill="#161E33"/>
<path d="M140.46 43.7859V42.4606L141.361 42.3895C141.865 42.35 142.178 42.2631 142.297 42.1288C142.446 41.9629 142.522 41.2795 142.522 40.0787V30.1837C142.522 29.1014 142.471 28.0963 142.367 27.8909C142.265 27.6855 141.929 27.5591 141.361 27.5117L140.488 27.4276V26.4525C142.438 26.4525 143.683 26.4525 144.244 26.4525C144.797 26.4525 146.041 26.4525 148 26.4525V27.4276L147.108 27.5117C146.594 27.5512 146.278 27.6381 146.159 27.7724C146.018 27.9462 145.946 28.9908 145.946 30.1837V40.0787C145.946 41.1689 145.998 41.8167 146.1 42.0221C146.203 42.2197 146.538 42.3421 147.108 42.3895L148 42.4513V43.7875C146.222 43.7875 144.93 43.7859 144.188 43.7859C143.437 43.7859 142.222 43.7859 140.46 43.7859Z" fill="#161E33"/>
</svg>
