<svg xmlns="http://www.w3.org/2000/svg" width="100" height="64" viewBox="0 0 100 64" fill="none">
  <path d="M99.1 37.85C98.95 37.85 98.8 37.95 98.7 38.2C97.7 41.1 96.3 42.85 95.15 42.85C94.5 42.85 94.25 42.1 94.25 41C94.25 38.15 95.95 32.1 96.8 29.3C96.9 28.95 96.95 28.65 96.95 28.4C96.95 27.6 96.5 27.2 95.4 27.2C94.25 27.2 92.95 27.65 91.75 29.8C91.35 27.9 90.05 27.1 88.25 27.1C86.2 27.1 84.2 28.45 82.55 30.6C80.9 32.75 78.95 33.45 77.5 33.1C78.55 30.55 78.95 28.6 78.95 27.2C78.95 24.95 77.85 23.6 76.05 23.6C73.35 23.6 71.8 26.2 71.8 28.9C71.8 31 72.75 33.15 74.85 34.2C73.1 38.15 70.55 41.75 69.55 41.75C68.3 41.75 67.9 35.6 68 31.2C68.05 28.7 68.25 28.55 68.25 27.8C68.25 27.35 67.95 27.05 66.8 27.05C64.15 27.05 63.3 29.3 63.2 31.9C63.15 32.9 63 33.85 62.75 34.8C61.65 38.75 59.35 41.8 57.85 41.8C57.15 41.8 56.95 41.1 56.95 40.2C56.95 37.35 58.55 33.75 58.55 30.7C58.55 28.45 57.55 27.05 55.7 27.05C53.5 27.05 50.65 29.65 47.9 34.5C48.8 30.8 49.15 27.2 46.5 27.2C45.9 27.2 45.35 27.35 44.85 27.65C44.5 27.8 44.3 28.15 44.3 28.55C44.55 32.5 41.1 42.65 37.85 42.65C37.25 42.65 36.95 42 36.95 40.95C36.95 38.1 38.65 32.05 39.5 29.25C39.6 28.9 39.65 28.6 39.65 28.3C39.65 27.55 39.2 27.15 38.1 27.15C36.95 27.15 35.65 27.6 34.45 29.75C34 27.85 32.75 27.05 30.95 27.05C28 27.05 24.75 30.15 23.3 34.2C21.35 39.6 17.5 44.85 12.25 44.85C7.5 44.85 5 40.9 5 34.65C5 25.6 11.65 18.25 16.55 18.25C18.9 18.25 20 19.75 20 22.05C20 24.85 18.45 26.1 18.45 27.2C18.45 27.5 18.7 27.85 19.25 27.85C21.4 27.85 23.9 25.35 23.9 21.9C23.9 18.45 21.2 16 16.3 16C8.15 16 0 24.15 0 34.65C0 43 4.1 48 11.2 48C16.05 48 20.3 44.25 22.55 39.85C22.8 43.5 24.45 45.4 27 45.4C29.25 45.4 31.05 44.05 32.45 41.7C33 44.15 34.4 45.35 36.25 45.35C38.35 45.35 40.15 44 41.8 41.55C41.8 43.5 42.2 45.35 43.9 45.35C44.7 45.35 45.65 45.15 45.8 44.45C47.6 37.1 52 31.05 53.35 31.05C53.75 31.05 53.85 31.45 53.85 31.9C53.85 33.9 52.45 38 52.45 40.6C52.45 43.45 53.65 45.3 56.15 45.3C58.9 45.3 61.7 41.95 63.55 37C64.15 41.6 65.4 45.3 67.35 45.3C69.75 45.3 74.1 40.2 76.7 34.8C77.7 34.95 79.25 34.9 80.75 33.85C80.1 35.45 79.75 37.2 79.75 38.9C79.75 43.9 82.15 45.3 84.2 45.3C86.45 45.3 88.25 43.95 89.65 41.6C90.1 43.7 91.3 45.25 93.45 45.25C96.8 45.25 99.75 41.8 99.75 38.95C99.8 38.35 99.45 37.85 99.1 37.85ZM29.1 42.6C27.75 42.6 27.2 41.25 27.2 39.2C27.2 35.65 29.65 29.7 32.2 29.7C33.3 29.7 33.75 31 33.75 32.65C33.75 36.25 31.45 42.6 29.1 42.6ZM75.75 32C74.95 31.05 74.65 29.7 74.65 28.55C74.65 27.1 75.2 25.9 75.8 25.9C76.4 25.9 76.65 26.5 76.65 27.4C76.6 28.8 76.1 30.95 75.75 32ZM86.3 42.6C84.95 42.6 84.4 41 84.4 39.2C84.4 35.75 86.85 29.7 89.4 29.7C90.5 29.7 90.9 31 90.9 32.65C90.95 36.25 88.7 42.6 86.3 42.6Z" fill="#161E33"/>
</svg>