<svg width="143" height="64" viewBox="0 0 143 64" fill="none" xmlns="http://www.w3.org/2000/svg">
<path d="M34.6953 25.002C37.2568 25.0021 40.4591 26.3304 41.9355 29.6777H38.6846C37.6015 28.398 36.2703 27.6602 34.5459 27.6602C32.0328 27.6602 29.5216 29.9234 29.5215 32.9766C29.5215 36.0298 31.9357 38.3418 34.6445 38.3418C36.7139 38.3418 37.8473 37.1605 38.5352 36.4209H41.8369C40.655 39.2263 37.6981 41 34.7432 41C30.3101 40.9999 26.714 37.2596 26.7139 32.9268C26.7139 28.5937 30.2116 25.002 34.6953 25.002ZM80.4092 25.0527C82.8719 25.0527 84.6953 26.973 84.6953 29.2363H83.1689C83.1689 27.6623 81.8879 26.4307 80.46 26.4307C78.6871 26.4307 77.6525 27.7588 77.6523 29.0889C77.6523 30.9591 79.2779 31.4027 81.2988 31.9932C85.0418 32.9766 85.042 35.9304 85.042 36.4229C85.042 38.7849 83.1199 40.9512 80.4111 40.9512C78.3922 40.9511 75.7322 39.7705 75.6816 36.373H77.208C77.3069 38.2934 78.5377 39.5731 80.4092 39.5732C82.0349 39.5732 83.5137 38.3414 83.5137 36.5215C83.5135 34.1597 81.0991 33.5692 80.0645 33.2246C78.6848 32.8296 76.0752 32.2387 76.0752 29.1875C76.0754 26.7754 77.9467 25.0529 80.4092 25.0527ZM137.704 25.0527C140.167 25.0527 141.99 26.973 141.99 29.2363H140.464C140.464 27.6623 139.183 26.4307 137.755 26.4307C135.982 26.4307 134.947 27.7588 134.947 29.0889C134.947 30.9591 136.573 31.4027 138.594 31.9932C142.337 32.9766 142.337 35.9304 142.337 36.4229C142.337 38.7849 140.415 40.9512 137.706 40.9512C135.687 40.9511 133.027 39.7705 132.977 36.373H134.502C134.601 38.2934 135.831 39.5731 137.704 39.5732C139.33 39.5732 140.809 38.3414 140.809 36.5215C140.808 34.1597 138.394 33.5692 137.359 33.2246C135.98 32.8296 133.37 32.2387 133.37 29.1875C133.37 26.7754 135.242 25.0529 137.704 25.0527ZM99.7227 25C103.811 25.0002 106.423 27.8059 107.014 29.3818H105.24C104.353 27.8562 102.334 26.4287 99.7725 26.4287C95.8818 26.4288 93.0723 29.5792 93.0723 33.0254C93.0724 36.4715 95.8799 39.573 99.8711 39.5732C103.122 39.5732 105.537 37.161 106.078 35.0449H97.5059V33.6172H107.899C107.554 38.1952 103.564 40.9492 99.7705 40.9492C95.1901 40.9491 91.4951 37.2088 91.4951 32.9746C91.4952 28.9882 94.7953 25 99.7227 25ZM14.0527 25.248V31.8926H7.30371V33.6162L7.30566 33.6182H14.1025V40.8047H2.96973C1.3926 40.8047 0.111506 39.5251 0.111328 37.9492V28.1035C0.111464 26.5276 1.34374 25.2481 2.91895 25.248H14.0527ZM22.2285 37.9004C22.2769 39.4763 20.9962 40.7559 19.4209 40.7559L15.333 40.7539V33.6172H22.2285V37.9004ZM57.7998 40.7061H56.2725V25.2988H57.7998V40.7061ZM88.8828 40.7061H87.3564V25.2988H88.8828V40.7061ZM71.7881 38.0459H71.8379V25.2988H73.3652V40.7041H71.8867L62.7744 27.1689H62.7236V40.7041H61.1973V25.2988H63.2178L71.7881 38.0459ZM112.136 32.0898H120.116V25.2988H121.644V40.7041H120.116V33.4688H112.136V40.7041H110.608V25.2988H112.136V32.0898ZM132.137 26.7256H128.639V40.7041H127.112V26.7256H123.564V25.2988H132.137V26.7256ZM46.96 25.2969C48.6844 25.2969 50.3583 25.2967 51.6895 26.4775C52.478 27.1667 53.0185 28.2992 53.0186 29.333C53.0186 31.2534 51.7872 31.9918 51.2949 32.2861C52.3296 32.6792 53.955 33.5175 53.9551 36.125C53.9551 37.995 52.9709 39.1276 52.0332 39.7666C50.8512 40.5546 49.0777 40.7021 48.043 40.7021H43.9043V25.2969H46.96ZM46.7139 38.0459H48.1416C48.6841 38.0459 51 38.0457 51 36.0283C51 35.3894 50.7055 33.9609 48.1924 33.9609H46.7139V38.0459ZM107.901 33.6172H107.899V33.6152L107.901 33.6172ZM19.4736 25.248C21.0506 25.2483 22.3309 26.5278 22.3311 28.1035V31.9434H15.3848V25.248H19.4736ZM46.7139 31.3027H47.6494C48.3392 31.3027 50.112 31.3023 50.1123 29.6299C50.1123 28.6947 49.5212 27.9551 47.8955 27.9551H46.7139V31.3027Z" fill="#161E33"/>
</svg>
