<svg width="120" height="64" viewBox="0 0 120 64" fill="none" xmlns="http://www.w3.org/2000/svg">
<path fill-rule="evenodd" clip-rule="evenodd" d="M0 31.6244L7.46949 20.884L15.1831 25.5219L10.8381 31.6244L15.1831 37.7269L7.46949 42.3649L0 31.6244ZM7.46989 42.3649H18.1127L25.4357 31.6244L18.1127 20.884H7.46989L25.4357 31.6244L7.46989 42.3649ZM79.2835 26.1078H77.4772V36.897H79.2835V26.1078ZM67.762 26.9865C68.6407 26.2542 69.7148 25.8637 70.8865 25.8637C73.6204 25.8637 75.8173 28.0606 75.8173 30.7945V36.897H74.011V30.7945C74.011 29.0858 72.5952 27.67 70.8865 27.67C69.1777 27.67 67.762 29.037 67.762 30.7945V36.897H65.9556V26.1078H67.762V26.9865ZM64.1493 26.0589H62.3429L62.3917 27.2794C60.2437 25.2778 56.8751 25.2778 54.727 27.2794C52.4324 29.3787 52.3348 32.9426 54.434 35.2371C56.5333 37.5317 60.0972 37.6293 62.3917 35.5301V36.4088C62.2941 38.5081 60.6342 40.2168 58.5349 40.2656C57.0703 40.3144 55.7522 39.4845 55.1175 38.1663H53.1647C53.8482 40.5097 56.0939 42.1208 58.5349 42.072C61.6106 42.0231 64.1004 39.5333 64.1493 36.4576V26.0589ZM58.5349 27.6212C60.6342 27.6212 62.3429 29.3787 62.3429 31.478C62.3429 33.5772 60.6342 35.286 58.5349 35.286C56.3869 35.286 54.6782 33.5284 54.6782 31.4292C54.6782 29.3299 56.4357 27.6212 58.5349 27.6212ZM37.9816 29.8181C37.347 28.4999 35.98 27.6212 34.5154 27.6212C33.002 27.6212 31.6838 28.4999 31.0492 29.8669C30.1704 31.7709 31.0003 34.0654 32.9043 34.9442C34.8083 35.823 37.1029 34.993 37.9816 33.089H39.8856C39.3486 34.8954 37.9328 36.3112 36.1265 36.8482C33.1484 37.7758 30.0239 36.0671 29.0964 33.089C28.1688 30.111 29.8775 26.9377 32.8555 26.0589C35.8335 25.1314 39.0069 26.8401 39.8856 29.8181H37.9816ZM46.4275 37.0923C49.5032 37.0923 52.0419 34.6025 52.0419 31.478C52.0419 28.3535 49.5032 25.8637 46.3787 25.8637C43.2542 25.8637 40.8132 28.4023 40.8132 31.478C40.8132 34.5536 43.303 37.0923 46.4275 37.0923ZM46.4275 27.6212C48.5268 27.6212 50.2355 29.3787 50.2355 31.478C50.2355 33.5772 48.5268 35.286 46.3787 35.286C44.2794 35.286 42.5707 33.5284 42.5707 31.4292C42.5707 29.3299 44.3283 27.6212 46.4275 27.6212ZM105.939 26.9865C106.818 26.2542 107.892 25.8637 109.064 25.8637C111.798 25.8637 113.995 28.0606 114.044 30.7945V36.8482H112.237V30.7457C112.237 29.037 110.821 27.6212 109.064 27.6212C107.355 27.6212 105.939 29.037 105.939 30.7945V36.897H104.133V26.1078H105.939V26.9865ZM102.327 26.1078H100.52V27.3771C99.4463 26.4007 98.0793 25.8637 96.6635 25.8637C95.2477 25.8637 93.8808 26.4007 92.8556 27.3771C90.561 29.4763 90.4634 33.0402 92.5626 35.3348C94.6619 37.6293 98.2258 37.727 100.52 35.6277V36.897H102.327V26.1078ZM96.6635 27.67C98.8116 27.67 100.52 29.3787 100.52 31.478C100.52 33.5772 98.8116 35.286 96.6635 35.3348C94.5643 35.3348 92.8556 33.6261 92.8556 31.5268C92.8556 29.3787 94.5643 27.67 96.6635 27.67ZM120 26.0589V27.8653H117.314V33.2843C117.314 34.2607 118.144 35.0907 119.121 35.0907H120V36.897H119.121C117.119 36.897 115.508 35.286 115.508 33.2843V23.1297H117.314V26.0589H120ZM77.1843 23.3738C77.1843 22.7392 77.6725 22.2021 78.3559 22.2021C79.0394 22.2021 79.5765 22.7392 79.5276 23.3738C79.5276 24.0085 79.0394 24.5455 78.3559 24.5455C77.7213 24.5455 77.1843 24.0573 77.1843 23.3738ZM81.0899 26.1078H90.0728L90.024 27.9141L83.3844 35.0907H90.0728V36.897H81.0899V35.0907L87.7294 27.9141H81.0899V26.1078Z" fill="#161E33"/>
</svg>
