<svg width="136" height="64" viewBox="0 0 136 64" fill="none" xmlns="http://www.w3.org/2000/svg">
<path fill-rule="evenodd" clip-rule="evenodd" d="M42.426 26.6738C39.9182 26.6738 38.0292 28.5688 38.0292 30.7402V32.9938C38.0292 35.1652 39.9216 37.0602 42.426 37.0602C43.6569 37.0602 44.5159 36.6983 45.7631 35.7968C46.4543 35.2968 47.4252 35.4481 47.9287 36.1357C48.4322 36.8233 48.2775 37.7872 47.5864 38.2873C46.0298 39.4125 44.5422 40.1396 42.426 40.1396C38.3616 40.1429 34.9291 37.0207 34.9291 32.9971V30.7435C34.9291 26.7198 38.3616 23.5944 42.426 23.5944C44.5422 23.5944 46.0298 24.3248 47.5864 25.4466C48.2775 25.9467 48.4322 26.9107 47.9287 27.5983C47.4252 28.2859 46.4543 28.4372 45.7631 27.9372C44.5159 27.0357 43.6569 26.6738 42.426 26.6738ZM57.6504 26.6738C55.2117 26.6738 53.2371 28.6379 53.2371 31.0626V32.7109C53.2371 35.1356 55.215 37.0997 57.6504 37.0997C60.0857 37.0997 62.0308 35.1455 62.0308 32.7109V31.0626C62.0308 28.6247 60.0759 26.6738 57.6504 26.6738ZM50.137 31.0626C50.137 26.937 53.5004 23.5944 57.6504 23.5944C61.8004 23.5944 65.1309 26.9501 65.1309 31.0658V32.7141C65.1309 36.8266 61.8135 40.1856 57.6504 40.1856C53.4872 40.1856 50.137 36.8398 50.137 32.7141V31.0626ZM75.4055 26.756C72.9636 26.756 70.9923 28.7168 70.9923 31.1251C70.9923 33.5333 72.9636 35.4942 75.4055 35.4942C77.8471 35.4942 79.7862 33.5465 79.7862 31.1251C79.7862 28.7037 77.8379 26.756 75.4055 26.756ZM67.8921 31.1251C67.8921 27.0061 71.2621 23.6766 75.4055 23.6766C77.1695 23.6766 78.7823 24.2787 80.056 25.2854L81.2176 24.1307C81.8227 23.5286 82.8035 23.5286 83.4094 24.1307C84.0145 24.7327 84.0145 25.7065 83.4094 26.3086L82.0368 27.6707C82.5801 28.7037 82.8862 29.8815 82.8862 31.1251C82.8862 35.2309 79.5652 38.5735 75.4055 38.5735C75.3628 38.5735 75.3233 38.5735 75.2805 38.5735H71.9894C71.4365 38.5735 70.9923 39.0177 70.9923 39.5671C70.9923 40.1165 71.4398 40.5607 71.9894 40.5607H77.5975C78.7166 40.5607 79.8713 40.8699 80.8026 41.6004C81.764 42.357 82.373 43.4756 82.4812 44.8508C82.6721 47.2853 80.954 48.9468 79.559 49.483L75.6754 51.1873C74.8921 51.5327 73.9772 51.1807 73.6317 50.401C73.2861 49.6245 73.6416 48.7132 74.4215 48.371L78.3441 46.6504C78.3742 46.6372 78.4036 46.6241 78.433 46.6142C78.5976 46.555 78.8774 46.3741 79.0984 46.0812C79.2986 45.8082 79.4207 45.4825 79.3874 45.0943C79.3449 44.5316 79.1247 44.2159 78.8774 44.0217C78.6015 43.8046 78.1632 43.6467 77.5944 43.6467H72.0553C72.0388 43.6467 72.0224 43.6467 72.0059 43.6467H71.9862C69.7219 43.6467 67.8888 41.824 67.8888 39.5737C67.8888 38.1162 68.6589 36.8365 69.8174 36.1159C68.6195 34.7967 67.8888 33.0497 67.8888 31.1317L67.8921 31.1251ZM93.0585 26.756C90.6302 26.756 88.6617 28.7136 88.6617 31.1251V38.6394C88.6617 39.4915 87.9677 40.1791 87.1114 40.1791C86.2558 40.1791 85.5618 39.4881 85.5618 38.6394V31.1251C85.5618 27.0093 88.9183 23.6766 93.0585 23.6766C97.1987 23.6766 100.556 27.0127 100.556 31.1251V38.6394C100.556 39.4915 99.8612 40.1791 99.0057 40.1791C98.1501 40.1791 97.4553 39.4881 97.4553 38.6394V31.1251C97.4553 28.7103 95.4876 26.756 93.0585 26.756ZM111.34 26.7593C108.846 26.7593 106.842 28.7497 106.842 31.181V32.7668C106.842 35.1948 108.843 37.1885 111.34 37.1885C112.206 37.1885 113.009 36.9483 113.684 36.5371C114.414 36.093 115.369 36.32 115.816 37.0437C116.264 37.7675 116.033 38.7183 115.306 39.1625C114.154 39.8665 112.795 40.2679 111.344 40.2679C107.161 40.2679 103.745 36.922 103.745 32.7668V31.181C103.745 27.0258 107.158 23.6799 111.344 23.6799C114.924 23.6799 117.9 26.1243 118.696 29.4143L119.009 30.7007L112.403 33.3721C111.61 33.6912 110.705 33.3129 110.383 32.5266C110.06 31.737 110.442 30.8389 111.235 30.5197L115.188 28.9209C114.414 27.6279 112.989 26.7593 111.344 26.7593H111.34ZM128.332 26.7593C125.834 26.7593 123.833 28.7497 123.833 31.181V32.7668C123.833 35.1948 125.834 37.1885 128.332 37.1885C129.197 37.1885 130 36.9483 130.675 36.5371C131.014 36.3298 131.323 36.0798 131.597 35.7902C132.183 35.1685 133.164 35.1389 133.789 35.7212C134.414 36.3035 134.443 37.2773 133.861 37.8991C133.4 38.386 132.877 38.8104 132.301 39.1625C131.146 39.8665 129.79 40.2679 128.336 40.2679C124.152 40.2679 120.736 36.922 120.736 32.7668V31.181C120.736 27.0258 124.149 23.6799 128.336 23.6799C131.912 23.6799 134.891 26.1243 135.688 29.4143L136 30.7007L129.395 33.3721C128.602 33.6912 127.697 33.3129 127.374 32.5266C127.052 31.737 127.434 30.8389 128.227 30.5197L132.179 28.9209C131.406 27.6279 129.981 26.7593 128.336 26.7593H128.332Z" fill="#161E33"/>
<path d="M16.8942 47.2902C15.2658 47.2902 13.9414 45.8797 13.9414 44.146V20.1533C13.9414 19.7257 13.6606 19.4278 13.4089 19.4278C13.1572 19.4278 12.8764 19.7257 12.8764 20.1533V44.146C12.8764 45.8797 11.552 47.2902 9.92353 47.2902C8.29512 47.2902 6.97069 45.8797 6.97069 44.146V25.3775C6.97069 24.9499 6.68993 24.652 6.43821 24.652C6.18649 24.652 5.90573 24.9499 5.90573 25.3775V37.1804C5.90573 38.9141 4.5813 40.3246 2.95286 40.3246C1.32443 40.3246 0 38.9141 0 37.1804V31.4724C0 29.7388 1.41157 28.3282 3.14649 28.3282C3.26461 28.3282 3.37691 28.3457 3.48534 28.3766V25.3775C3.48534 23.6439 4.80977 22.2334 6.43821 22.2334C8.06666 22.2334 9.39103 23.6439 9.39103 25.3775V44.146C9.39103 44.5736 9.67181 44.8715 9.92353 44.8715C10.1753 44.8715 10.456 44.5736 10.456 44.146V20.1533C10.456 18.4197 11.7805 17.0092 13.4089 17.0092C15.0373 17.0092 16.3617 18.4197 16.3617 20.1533V44.146C16.3617 44.5736 16.6425 44.8715 16.8942 44.8715C17.146 44.8715 17.4267 44.5736 17.4267 44.146V25.3775C17.4267 23.6439 18.7512 22.2334 20.3796 22.2334C22.008 22.2334 23.3325 23.6439 23.3325 25.3775V28.3766C23.4409 28.3457 23.5532 28.3282 23.6713 28.3282C25.4063 28.3282 26.8178 29.7388 26.8178 31.4724V37.1804C26.8178 38.9141 25.4934 40.3246 23.8649 40.3246C22.2365 40.3246 20.9121 38.9141 20.9121 37.1804V25.3775C20.9121 24.9499 20.6313 24.652 20.3796 24.652C20.1279 24.652 19.8471 24.9499 19.8471 25.3775V44.146C19.8471 45.8797 18.5226 47.2902 16.8942 47.2902ZM23.3325 30.6985V37.1804C23.3325 37.608 23.6132 37.9059 23.8649 37.9059C24.1167 37.9059 24.3974 37.608 24.3974 37.1804V31.4724C24.3974 31.0797 24.0643 30.7469 23.6713 30.7469C23.5532 30.7469 23.4409 30.7295 23.3325 30.6985ZM3.48534 30.6985C3.37691 30.7295 3.26461 30.7469 3.14649 30.7469C2.75343 30.7469 2.42038 31.0797 2.42038 31.4724V37.1804C2.42038 37.608 2.70114 37.9059 2.95286 37.9059C3.20458 37.9059 3.48534 37.608 3.48534 37.1804V30.6985Z" fill="#161E33"/>
</svg>
