<svg width="124" height="64" viewBox="0 0 124 64" fill="none" xmlns="http://www.w3.org/2000/svg">
<path d="M34.9242 43C37.9863 43 40.6897 41.432 41.738 38.296C41.9311 37.652 41.6552 37.26 41.0483 37.26H39.8897C39.3656 37.26 39.007 37.512 38.7587 38.016C37.8484 39.836 36.5794 40.508 34.9794 40.508C32.138 40.508 30.4001 38.492 30.4001 35.132C30.4001 31.772 32.1932 29.756 34.9242 29.756C36.5794 29.756 37.9311 30.484 38.7863 32.192C39.0621 32.696 39.3656 32.948 39.9173 32.948H41.0759C41.6552 32.948 41.9587 32.556 41.7656 31.996C40.5242 28.58 37.738 27.264 34.8966 27.264C30.6208 27.264 27.4208 30.484 27.4208 35.16C27.4484 39.78 30.5104 43 34.9242 43ZM112.276 33.732C112.662 31.184 114.372 29.588 116.717 29.588C119.062 29.588 120.8 31.212 120.993 33.732H112.276ZM116.828 43C119.559 43 122.262 41.712 123.586 38.8C123.917 38.1 123.614 37.624 123.034 37.624H121.931C121.407 37.624 121.076 37.876 120.8 38.352C119.917 39.948 118.372 40.592 116.8 40.592C114.124 40.592 112.359 38.744 112.166 35.692H123.034C123.614 35.692 124 35.356 124 34.74C123.89 30.036 120.855 27.208 116.69 27.208C112.552 27.208 109.241 30.288 109.241 35.104C109.241 39.948 112.441 43 116.828 43ZM99.6138 35.496H100.579C101.159 35.496 101.49 35.16 101.572 34.544C102.124 30.484 104.469 29.952 106.952 30.064C107.476 30.092 107.917 29.672 107.917 29.14V28.216C107.917 27.628 107.614 27.264 107.035 27.236C104.828 27.152 102.869 27.908 101.738 30.092C101.683 30.204 101.49 30.176 101.49 30.036L101.297 28.412C101.241 27.824 100.91 27.516 100.331 27.516H95.8621C95.338 27.516 94.9242 27.936 94.9242 28.468V28.972C94.9242 29.504 95.338 29.924 95.8621 29.924H97.6828C98.2069 29.924 98.6207 30.344 98.6207 30.876V34.544C98.6759 35.076 99.1173 35.496 99.6138 35.496ZM95.6414 42.692H104.883C105.462 42.692 105.821 42.328 105.821 41.74V41.236C105.821 40.648 105.462 40.284 104.883 40.284H102.51C101.931 40.284 101.572 39.92 101.572 39.332V37.68C101.572 37.092 101.214 36.728 100.634 36.728H99.6414C99.0621 36.728 98.7035 37.092 98.7035 37.68V39.332C98.7035 39.92 98.3448 40.284 97.7655 40.284H95.669C95.0897 40.284 94.7311 40.648 94.7311 41.236V41.74C94.6759 42.328 95.0345 42.692 95.6414 42.692ZM81.3518 33.732C81.738 31.184 83.4483 29.588 85.7931 29.588C88.138 29.588 89.8759 31.212 90.069 33.732H81.3518ZM85.9035 43C88.6345 43 91.338 41.712 92.6621 38.8C92.9931 38.1 92.6897 37.624 92.1104 37.624H91.0069C90.4828 37.624 90.1517 37.876 89.8759 38.352C88.9931 39.948 87.4483 40.592 85.8759 40.592C83.1724 40.592 81.4345 38.744 81.2414 35.692H92.0828C92.6621 35.692 93.0483 35.356 93.0483 34.74C92.9655 30.036 89.9586 27.208 85.7931 27.208C81.6276 27.208 78.3173 30.26 78.3173 35.104C78.3173 39.948 81.5449 43 85.9035 43ZM51.7242 43C56.1656 43 59.3104 39.668 59.3104 35.104C59.3104 30.54 56.138 27.208 51.7242 27.208C47.2828 27.208 44.138 30.596 44.138 35.104C44.138 36.14 44.3035 37.316 44.8552 38.604C45.1311 39.248 45.6277 39.332 46.1518 38.94L47.007 38.296C47.4483 37.96 47.5587 37.568 47.4208 37.008C47.1725 36.252 47.1173 35.608 47.1173 35.02C47.1173 31.884 48.9656 29.7 51.7242 29.7C54.4828 29.7 56.3311 31.828 56.3311 35.076C56.3311 38.324 54.5104 40.452 51.7794 40.452C50.8414 40.452 49.9587 40.284 48.8828 39.472C48.4414 39.108 48.0276 39.052 47.5587 39.416L46.8966 39.92C46.3725 40.312 46.3173 40.844 46.8139 41.264C48.3587 42.524 50.1242 43 51.7242 43ZM63.0621 42.692H64.0276C64.5518 42.692 64.9656 42.272 64.9656 41.74V34.572C64.9656 31.548 66.5656 29.756 69.0483 29.756C71.2828 29.756 72.6069 31.268 72.6069 34.012V41.74C72.6069 42.272 73.0207 42.692 73.5449 42.692H74.538C75.0621 42.692 75.4759 42.272 75.4759 41.74V33.508C75.4759 29.448 73.4345 27.208 69.9862 27.208C67.6414 27.208 66.2345 28.188 65.2138 29.56C65.1311 29.672 64.9656 29.616 64.9656 29.476V22.952C64.9656 22.42 64.5242 22 64.0276 22H63.0621C62.538 22 62.1242 22.42 62.1242 22.952V41.74C62.1242 42.272 62.538 42.692 63.0621 42.692Z" fill="#161E33"/>
<path fill-rule="evenodd" clip-rule="evenodd" d="M6.70344 34.516C7.25517 34.516 8.35861 34.488 9.90344 33.844C11.6965 33.088 15.2276 31.744 17.7931 30.344C19.5862 29.364 20.3586 28.076 20.3586 26.34C20.3586 23.96 18.4552 22 16.0827 22H6.15172C2.75862 22 0 24.8 0 28.244C0 31.688 2.5931 34.516 6.70344 34.516Z" fill="#161E33"/>
<path fill-rule="evenodd" clip-rule="evenodd" d="M8.38631 38.8C8.38631 37.12 9.37941 35.58 10.9242 34.936L14.0415 33.62C17.2139 32.304 20.6897 34.656 20.6897 38.128C20.6897 40.816 18.538 43 15.8897 43H12.4966C10.2346 43 8.38631 41.124 8.38631 38.8Z" fill="#161E33"/>
<path d="M3.55862 35.328C1.6 35.328 0 36.952 0 38.94V39.416C0 41.376 1.6 43 3.55862 43C5.51724 43 7.11723 41.376 7.11723 39.388V38.912C7.08965 36.952 5.51724 35.328 3.55862 35.328Z" fill="#161E33"/>
</svg>
