<svg width="140" height="64" viewBox="0 0 140 64" fill="none" xmlns="http://www.w3.org/2000/svg">
<path d="M130.486 25.7629C130.489 24.5008 130.992 23.2915 131.883 22.3991C132.774 21.5067 133.982 21.0037 135.243 21C136.504 21.0016 137.713 21.504 138.605 22.3968C139.497 23.2897 139.998 24.5002 140 25.7629C139.997 27.0252 139.494 28.2349 138.603 29.1276C137.712 30.0204 136.504 30.5236 135.243 30.5273C133.983 30.5211 132.776 30.0171 131.885 29.1249C130.994 28.2327 130.491 27.0244 130.486 25.7629ZM139.087 25.7629C139.089 24.7381 138.686 23.754 137.966 23.0256C137.246 22.2972 136.268 21.8837 135.244 21.8754C134.221 21.8837 133.242 22.2972 132.522 23.0256C131.802 23.754 131.399 24.7381 131.402 25.7629C131.399 26.7876 131.802 27.7717 132.522 28.5002C133.242 29.2286 134.221 29.642 135.244 29.6503C136.268 29.642 137.246 29.2286 137.966 28.5002C138.686 27.7717 139.089 26.7876 139.087 25.7629ZM133.134 25.6898C133.134 24.1022 134.013 23.2718 135.292 23.2718C136.513 23.2718 137.184 23.8705 137.245 24.9092H136.313C136.287 24.6786 136.171 24.4676 135.99 24.3221C135.81 24.1765 135.579 24.1081 135.348 24.1317H135.25C134.457 24.1317 134.092 24.8408 134.092 25.696C134.092 26.5512 134.458 27.2587 135.25 27.2587H135.348C135.463 27.2715 135.579 27.2614 135.689 27.2292C135.799 27.1969 135.903 27.1431 135.992 27.0709C136.082 26.9986 136.156 26.9093 136.211 26.8081C136.266 26.7069 136.301 26.5959 136.313 26.4813H137.245C137.184 27.52 136.513 28.1171 135.292 28.1171C134.011 28.1093 133.126 27.2789 133.126 25.6898H133.134Z" fill="#161E33"/>
<path d="M10.2118 40.8787H10.5224C13.2668 40.8787 15.9816 39.3237 16.1649 36.6041H19.2152C19.0024 40.9393 14.9457 43.6263 10.3702 43.6263C4.11733 43.6263 0 38.893 0 32.6343C0 26.3756 4.11733 21.6423 10.3702 21.6423C14.9441 21.6423 19.0009 24.3292 19.2152 28.666H16.1649C15.9816 25.9479 13.2668 24.3914 10.5224 24.3914H10.2118C5.79004 24.3914 3.04413 28.0549 3.04413 32.6327C3.04413 37.2106 5.79004 40.8787 10.2118 40.8787Z" fill="#161E33"/>
<path d="M41.5958 32.6343C41.5958 39.5041 37.0219 43.6263 31.2256 43.6263C25.4294 43.6263 20.8601 39.5056 20.8601 32.6343C20.8601 25.7629 25.4325 21.6391 31.2272 21.6391C37.0219 21.6391 41.5958 25.7644 41.5958 32.6343ZM31.3794 40.8756C35.3445 40.8756 38.547 37.8216 38.547 32.6343C38.547 27.4469 35.3445 24.393 31.3794 24.393H31.0687C27.1036 24.393 23.9011 27.4469 23.9011 32.6343C23.9011 37.8216 27.1036 40.8756 31.0687 40.8756H31.3794Z" fill="#161E33"/>
<path d="M52.1187 24.3898H51.8081C49.1553 24.3898 47.3863 25.8251 47.3863 27.7175C47.3863 29.3657 48.5154 30.3438 50.3139 30.7092L53.7308 31.3809C57.4211 32.1133 59.5566 34.0679 59.5566 37.5495C59.5566 41.3047 56.3851 43.6263 51.6574 43.6263C46.6253 43.6263 43.4259 41.1834 43.2706 36.4501H46.3209C46.3209 39.3501 48.5776 40.8771 51.7801 40.8771H52.0907C54.9578 40.8771 56.5125 39.4419 56.5125 37.6708C56.5125 35.9308 55.4144 34.9232 53.1577 34.4644L49.7409 33.7616C46.324 33.0588 44.3422 31.1353 44.3422 27.747C44.3422 24.3883 47.3615 21.6407 51.9665 21.6407C56.6942 21.6407 59.7135 24.2359 59.8657 28.3581H56.8153C56.7726 27.7868 56.6166 27.2297 56.3563 26.7195C56.0959 26.2093 55.7366 25.7561 55.2993 25.3866C54.8619 25.0171 54.3554 24.7386 53.8093 24.5675C53.2631 24.3963 52.6884 24.3359 52.1187 24.3898Z" fill="#161E33"/>
<path d="M66.454 24.634V43.3215H63.4099V21.9439H68.4731L74.8409 40.448L81.0938 21.9439H86.1259V43.3184H83.0756V24.5392L76.7932 43.3184H72.884L66.454 24.634Z" fill="#161E33"/>
<path d="M110.188 32.6343C110.188 39.5041 105.612 43.6263 99.8176 43.6263C94.0229 43.6263 89.4474 39.5041 89.4474 32.6343C89.4474 25.7644 94.0245 21.6391 99.8192 21.6391C105.614 21.6391 110.188 25.7644 110.188 32.6343ZM99.9714 40.8756C103.937 40.8756 107.139 37.8216 107.139 32.6343C107.139 27.4469 103.937 24.393 99.9714 24.393H99.6608C95.6957 24.393 92.4932 27.4469 92.4932 32.6343C92.4932 37.8216 95.6957 40.8756 99.6608 40.8756H99.9714Z" fill="#161E33"/>
<path d="M120.711 24.3898H120.4C117.748 24.3898 115.979 25.8251 115.979 27.7175C115.979 29.3657 117.108 30.3438 118.906 30.7092L122.323 31.3809C126.013 32.1133 128.149 34.0679 128.149 37.5495C128.149 41.3047 124.977 43.6263 120.25 43.6263C115.218 43.6263 112.018 41.1834 111.863 36.4501H114.913C114.913 39.3501 117.17 40.8771 120.372 40.8771H120.683C123.55 40.8771 125.105 39.4419 125.105 37.6708C125.105 35.9308 124.007 34.9232 121.75 34.4644L118.333 33.7616C114.916 33.0588 112.934 31.1353 112.934 27.747C112.934 24.3883 115.954 21.6407 120.559 21.6407C125.286 21.6407 128.306 24.2359 128.458 28.3581H125.408C125.365 27.7868 125.209 27.2297 124.948 26.7195C124.688 26.2093 124.329 25.7561 123.891 25.3866C123.454 25.0171 122.948 24.7386 122.401 24.5675C121.855 24.3963 121.281 24.3359 120.711 24.3898Z" fill="#161E33"/>
</svg>
