<svg width="108" height="64" viewBox="0 0 108 64" fill="none" xmlns="http://www.w3.org/2000/svg">
<path d="M106.919 21.1759C106.571 22.5658 105.528 23.7072 104.477 24.6318C104.104 24.9504 103.683 25.2105 103.231 25.4033C102.684 25.6431 102.317 25.49 101.988 25.0017C101.58 24.3399 101.306 23.6058 101.181 22.8403C101.071 22.3299 101.008 21.8105 100.993 21.2886C100.962 20.5329 101.182 19.7883 101.618 19.1677C101.86 18.816 102.184 18.5269 102.562 18.3248C102.94 18.1227 103.361 18.0134 103.79 18.0061C104.487 17.9672 105.183 18.1139 105.805 18.4309C106.803 18.9455 107.182 20.127 106.919 21.1759Z" fill="#161E33"/>
<path d="M103.49 27.8364C103.261 27.1112 102.588 26.9811 101.939 26.9204C100.873 26.8251 100.038 27.3567 99.365 28.0763C98.8115 28.6915 98.3285 29.366 97.9244 30.0873C97.0796 31.5364 96.5665 33.1367 96.075 34.7256C95.7546 35.7589 95.4745 36.6679 95.0761 38.0087C94.84 38.8019 94.5733 40.0253 93.8336 40.6431C93.6485 40.8125 93.407 40.9082 93.1552 40.9118C92.8466 40.8684 92.736 40.5448 92.7214 40.2443C92.7039 39.9121 92.7039 39.5797 92.7185 39.2474C92.8037 38.2289 93.0179 37.225 93.3561 36.2597C93.8511 34.6704 94.3838 33.0928 94.8642 31.4977C95.0695 30.9473 95.0789 30.3436 94.8904 29.7871C94.8086 29.5908 94.6785 29.4178 94.5119 29.2844C93.8452 28.7642 92.637 28.851 91.9062 29.3334C91.6646 29.4982 91.4259 29.6686 91.1726 29.842C91.1173 29.7525 91.0736 29.6889 91.0329 29.6196C90.8709 29.3085 90.6483 29.0327 90.3779 28.808C90.1075 28.5832 89.7948 28.4142 89.4579 28.3106C88.7527 28.1253 88.0236 28.0455 87.2947 28.0737C86.4382 28.0782 85.5943 28.2789 84.8288 28.6602C83.6257 29.2644 82.6014 30.1686 81.8563 31.284C81.0309 32.4019 80.2968 33.5837 79.6612 34.8178C79.0003 36.0594 78.5191 37.3871 78.2317 38.762C78.1343 39.2653 78.0759 39.7754 78.057 40.2876C78.0525 40.7027 78.0906 41.117 78.1706 41.5244C78.275 42.3344 78.6648 43.0817 79.2711 43.6337C79.824 44.0695 80.4926 44.3365 81.1955 44.4023C82.0553 44.5274 82.9329 44.3755 83.6992 43.9689C84.5308 43.5348 85.2787 42.9586 85.9089 42.267C86.1739 41.9838 86.4533 41.7122 86.7561 41.4001C86.7911 41.5822 86.8173 41.6978 86.8348 41.8133C86.9436 42.6775 87.3141 43.4887 87.8974 44.1394C88.8814 45.1681 90.142 45.3386 91.4695 45.1449C92.2 45.0372 92.8991 44.7774 93.5212 44.3824C93.8455 44.1773 94.7987 43.0685 95.1701 43.3563C95.6268 43.7095 95.6728 44.3621 96.184 44.7037C96.449 44.8533 96.7441 44.9425 97.0486 44.9647C97.3521 44.987 97.6575 44.9419 97.9413 44.8326C98.7541 44.5453 99.5153 44.1307 100.195 43.6045C100.343 43.5084 100.46 43.3719 100.532 43.2115C100.604 43.0511 100.627 42.8735 100.6 42.7001C100.513 41.2901 100.619 39.8748 100.915 38.493C101.267 36.9066 101.697 35.3376 102.148 33.7773C102.603 32.1881 103.351 30.6826 103.578 29.0269C103.637 28.6285 103.607 28.2222 103.49 27.8364ZM88.8028 32.8298C88.3406 34.7667 87.4373 36.5726 86.1622 38.109C85.7191 38.6944 85.1844 39.2055 84.5784 39.6231C84.2204 39.86 83.871 39.9467 83.673 39.5075C83.6188 39.3866 83.5844 39.2578 83.5711 39.1261C83.4926 38.3719 83.8681 37.586 84.1271 36.8983C84.4125 36.1239 84.7318 35.3658 85.085 34.6242C85.5945 33.5522 86.1913 32.5235 87.123 31.7521C87.4277 31.5238 87.7667 31.3445 88.1273 31.2203C88.3749 31.1221 88.666 31.3417 88.7795 31.6133C88.9151 32.0065 88.9232 32.4319 88.8028 32.8298Z" fill="#161E33"/>
<path d="M34.1904 36.8437C33.6721 38.4417 32.6386 39.479 30.9442 39.8171C29.9585 40.0396 28.929 39.9734 27.9805 39.6264C27.556 39.4652 27.1893 39.1826 26.927 38.8142C26.6647 38.4458 26.5187 38.0084 26.5073 37.5574C26.4375 36.3525 26.9237 35.3123 27.4885 34.2952C27.7243 33.8733 27.9689 33.4544 28.164 33.0122C28.2478 32.7912 28.2796 32.554 28.2571 32.3188C28.2454 32.2405 28.2159 32.1659 28.1709 32.1007C28.1259 32.0354 28.0664 31.9812 27.9971 31.9422C27.9277 31.9032 27.8503 31.8804 27.7708 31.8755C27.6912 31.8707 27.6116 31.8839 27.538 31.9143C27.1181 32.1078 26.7264 32.3565 26.3734 32.654C24.9557 33.9455 23.8173 35.4712 22.7197 37.0345C21.5461 38.6884 20.4785 40.4139 19.5231 42.2009C19.2115 42.7904 18.9787 43.4261 18.6264 43.9866C18.381 44.4018 18.0266 44.7429 17.601 44.9734C17.1753 45.204 16.6945 45.3153 16.21 45.2956C15.6519 45.3202 15.0962 45.2091 14.5912 44.9719C14.2012 44.7629 13.9025 44.4182 13.7528 44.004C13.1735 44.3247 12.5999 44.6801 11.9943 44.9633C11.0498 45.4403 10.0295 45.7522 8.97822 45.885C8.26315 45.9778 7.54182 46.0145 6.82093 45.9949C5.48454 45.9469 4.19883 45.475 3.15265 44.6484C2.12284 43.8095 1.42224 42.6387 1.17294 41.3398C0.974061 40.3803 0.94647 39.3934 1.09142 38.4243C1.31771 36.9066 1.81667 35.4415 2.56456 34.0987C3.15851 32.9734 3.86673 31.9113 4.67819 30.9289C5.51974 29.9115 6.51569 29.0302 7.63027 28.3167C8.45353 27.7855 9.37317 27.4184 10.3378 27.2361C11.5868 27.0049 12.664 27.4326 13.6655 28.1203C14.3624 28.5893 14.9509 29.1999 15.3919 29.9118C15.7963 30.6378 15.9036 31.4904 15.6917 32.2927C15.4755 33.1689 15.158 34.0173 14.7455 34.8211C14.3671 35.6533 13.9915 36.4855 13.6043 37.3147C13.5403 37.495 13.407 37.6428 13.2334 37.7256C13.06 37.8085 12.8604 37.8197 12.6785 37.7568C12.1389 37.5873 11.6533 37.2803 11.2703 36.8667C10.8871 36.453 10.6199 35.947 10.495 35.399C10.4043 34.6138 10.5333 33.8191 10.8677 33.1018C11.2142 32.2148 11.613 31.3478 11.9972 30.4781C12.0328 30.4198 12.056 30.3549 12.0654 30.2874C12.0748 30.2199 12.0702 30.1511 12.0519 30.0855C12.0337 30.0197 12.0021 29.9583 11.9592 29.9052C11.9162 29.852 11.8629 29.808 11.8022 29.776C11.3611 29.8778 10.9613 30.1094 10.6551 30.4405C10.1136 30.9722 9.60125 31.5328 9.11214 32.1136C8.12739 33.3345 7.2873 34.6638 6.6084 36.0751C6.18336 36.8866 5.91853 37.7713 5.82817 38.6815C5.73818 39.3808 5.76078 40.0899 5.89512 40.7822C5.9689 41.2222 6.19284 41.6237 6.52942 41.9194C6.86601 42.215 7.29477 42.3869 7.74382 42.406C9.46613 42.5014 11.1756 42.0621 12.6348 41.1492C13.1912 40.7708 13.7258 40.3618 14.2361 39.924C14.3295 39.8364 14.3995 39.7272 14.4398 39.6061C14.9552 38.2394 15.4385 36.8611 15.9858 35.5088C16.3876 34.5062 16.8651 33.5324 17.3134 32.55C17.7354 31.5849 18.2523 30.6635 18.8563 29.7991C19.5376 28.8485 20.3964 28.129 21.5931 27.9758C22.5567 27.8516 23.4446 28.1723 23.9046 29.253C24.3093 30.2036 24.0764 31.1167 23.7649 32.0298C23.6834 32.2638 23.6047 32.4979 23.5029 32.7984C24.0647 32.1916 24.5422 31.6137 25.0808 31.1052C25.948 30.2323 26.9555 29.5087 28.062 28.964C28.8547 28.57 29.7318 28.3726 30.6181 28.389C31.7157 28.4382 32.7406 28.7127 33.5091 29.5766C33.8436 29.9668 34.0642 30.4405 34.1467 30.9462C34.3272 31.8853 34.0128 32.729 33.6634 33.5728C33.4043 34.197 33.1394 34.8211 32.9443 35.4654C32.7871 35.9885 33.0666 36.3583 33.6256 36.4999C33.7495 36.5318 33.8762 36.5521 34.004 36.5606C34.2108 36.5692 34.2399 36.6848 34.1904 36.8437Z" fill="#161E33"/>
<path d="M79.8817 29.2529C79.4222 28.232 77.1566 28.1239 76.2215 28.4404C75.8519 28.5778 75.4991 28.7562 75.1699 28.9723C73.6062 29.9322 73.0502 31.1649 72.3169 32.7749C71.589 34.3642 70.9194 35.9823 70.1392 37.5456C69.621 38.551 69.0314 39.5185 68.3749 40.4409C68.0018 41.0408 67.4037 41.469 66.7125 41.6314C66.302 41.7122 66.1331 41.5302 65.9876 41.1748C65.8536 40.8485 65.772 40.5033 65.746 40.1518C65.6875 39.1427 65.8188 38.1315 66.1331 37.1699C66.596 35.6298 67.0939 34.1012 67.5626 32.5641C67.8098 31.8963 67.9303 31.189 67.9178 30.4777C67.9209 30.2296 67.866 29.984 67.7573 29.7604C67.6488 29.5369 67.4894 29.3413 67.2919 29.1891C66.8803 28.8904 66.3935 28.7105 65.8854 28.6693C65.3773 28.628 64.8676 28.7268 64.4126 28.955C63.446 29.4115 62.8142 30.2264 62.3513 31.151C61.6963 32.4513 61.1053 33.7833 60.4648 35.0895C60.0252 35.9939 59.5506 36.8838 59.0906 37.7767C58.5078 39.0044 57.8068 40.1734 56.9974 41.2672C56.8693 41.4291 56.6422 41.6545 56.4966 41.6285C56.322 41.6024 56.1822 41.3395 56.0337 41.1748C56.0083 41.1446 55.9904 41.109 55.9814 41.0707C55.7592 40.2747 55.7204 39.4392 55.8678 38.6263C56.0163 37.7074 56.2026 36.7914 56.4151 35.8841C56.8343 34.0724 57.3118 32.2721 57.7048 30.4517C57.8066 30.094 57.799 29.7143 57.6828 29.3609C57.5667 29.0074 57.3474 28.6961 57.0527 28.4667C56.7591 28.2583 56.425 28.1127 56.0717 28.0391C55.7183 27.9655 55.3535 27.9655 55.0002 28.039C54.0308 28.1892 53.3175 28.773 52.7498 29.5531C52.0545 30.5127 51.5614 31.6016 51.2999 32.7547C51.0758 33.7083 50.9273 34.6792 50.7672 35.65C50.6943 36.0979 50.6914 36.5544 50.6362 37.0081C50.6204 37.1337 50.5665 37.2516 50.4818 37.3462C50.0946 37.7478 49.7016 38.1408 49.297 38.5251C48.5306 39.2583 47.6525 39.8669 46.6948 40.3281C46.0709 40.6598 45.3824 40.8542 44.676 40.8981C43.9697 40.942 43.2621 40.8343 42.6015 40.5825C42.174 40.4223 41.7944 40.1574 41.4981 39.8123C41.2019 39.4671 40.9985 39.0532 40.9071 38.6089C41.4747 38.6089 42.022 38.6147 42.5694 38.6089C43.8646 38.5947 45.1365 38.2643 46.2727 37.6467C47.3433 37.1055 48.2137 36.2417 48.7589 35.179C49.3757 33.9933 49.5242 32.6218 49.1753 31.3331C49.0197 30.7234 48.7225 30.1584 48.3074 29.6832C47.8925 29.208 47.371 28.836 46.785 28.5967C46.1296 28.2888 45.419 28.114 44.6947 28.0823C44.0279 28.0255 43.3572 28.0323 42.6917 28.1026C41.2902 28.3614 39.9923 29.012 38.9507 29.9779C37.8436 30.9667 36.9288 32.1489 36.2518 33.4656C35.471 34.9265 34.9882 36.5261 34.8311 38.1726C34.7382 39.114 34.8161 40.0642 35.0611 40.9783C35.3626 42.2292 36.1209 43.3247 37.1893 44.0528C38.2999 44.7684 39.5865 45.1691 40.91 45.2114C41.8324 45.2389 42.7557 45.2012 43.6728 45.0988C44.5875 44.9952 45.4776 44.7373 46.3046 44.3359C47.667 43.7178 48.8951 42.8423 49.9206 41.7585C50.2408 41.4262 50.5465 41.0765 50.8201 40.7731C51.0821 41.4059 51.318 42.0619 51.6179 42.686C51.9797 43.4973 52.6294 44.1482 53.4433 44.5151C54.2313 44.8563 55.0615 45.0923 55.912 45.2172C56.1315 45.2739 56.3618 45.2759 56.5822 45.223C56.8027 45.17 57.0065 45.0638 57.1756 44.9138C57.7374 44.3648 58.3227 43.836 58.87 43.2726C59.1763 42.9361 59.465 42.584 59.7346 42.2179C60.1335 41.7122 60.5265 41.1979 60.9428 40.6604C60.9894 40.9234 61.0215 41.1459 61.071 41.3654C61.3301 42.4837 61.8104 43.4546 62.8148 44.1105C63.4968 44.5263 64.2405 44.8325 65.0187 45.0178C66.32 45.3995 67.7183 45.283 68.9373 44.6913C70.281 44.024 71.4591 43.0698 72.3872 41.8972C73.1322 41.0264 73.8271 40.1147 74.4689 39.1666C75.4441 37.6814 76.3641 36.1528 77.2551 34.6127C77.7083 33.829 78.1491 33.0385 78.5869 32.2465C78.9448 31.5998 79.9017 30.4596 79.96 29.7325C79.9753 29.5687 79.9483 29.4036 79.8817 29.2529ZM41.2971 34.9132C41.5971 34.0994 42.0496 33.3495 42.6305 32.7027C42.9803 32.2681 43.464 31.9596 44.0076 31.8243C44.1879 31.795 44.3728 31.8113 44.5451 31.8719C44.7172 31.9325 44.8713 32.0353 44.9928 32.1708C45.1142 32.3064 45.1991 32.4702 45.2396 32.6471C45.2801 32.8239 45.275 33.008 45.2245 33.1823C44.8082 34.9392 43.635 35.9332 41.9289 36.3666C41.5564 36.4288 41.1799 36.4645 40.8022 36.4736C40.9827 35.8957 41.1224 35.3986 41.2971 34.9132Z" fill="#161E33"/>
</svg>
