<svg width="140" height="64" viewBox="0 0 140 64" fill="none" xmlns="http://www.w3.org/2000/svg">
<g clip-path="url(#clip0_12206_7363)">
<path d="M50.22 40.43C49.3716 40.4506 48.5292 40.2817 47.7543 39.9357C46.9793 39.5897 46.2912 39.0754 45.74 38.43C44.5708 37.0857 43.9497 35.351 44 33.57C43.9389 31.7831 44.557 30.0394 45.73 28.69C46.2816 28.0452 46.9698 27.5312 47.7447 27.1853C48.5195 26.8394 49.3617 26.6702 50.21 26.69C50.9758 26.6503 51.7399 26.7969 52.4366 27.1174C53.1333 27.4379 53.7418 27.9226 54.21 28.53V21.43C54.2015 21.3756 54.2059 21.3198 54.223 21.2674C54.2401 21.215 54.2693 21.1673 54.3083 21.1283C54.3473 21.0893 54.3949 21.0601 54.4474 21.043C54.4998 21.0259 54.5555 21.0215 54.61 21.03H57.52C57.5745 21.0215 57.6302 21.0259 57.6826 21.043C57.7351 21.0601 57.7827 21.0893 57.8217 21.1283C57.8607 21.1673 57.8899 21.215 57.907 21.2674C57.9241 21.3198 57.9285 21.3756 57.92 21.43V39.71C57.92 39.98 57.78 40.11 57.49 40.11H54.94C54.8855 40.1186 54.8298 40.1141 54.7774 40.097C54.7249 40.08 54.6773 40.0507 54.6383 40.0117C54.5993 39.9728 54.5701 39.9251 54.553 39.8727C54.5359 39.8202 54.5315 39.7645 54.54 39.71L54.49 38.27C54.0265 38.9692 53.3892 39.536 52.6406 39.9146C51.892 40.2933 51.0579 40.4709 50.22 40.43ZM48.56 36.11C48.8746 36.4347 49.2527 36.6911 49.6708 36.8632C50.0889 37.0352 50.538 37.1193 50.99 37.11C51.435 37.1222 51.8775 37.0393 52.2879 36.8668C52.6983 36.6944 53.0672 36.4364 53.37 36.11C53.9712 35.4002 54.3011 34.5002 54.3011 33.57C54.3011 32.6399 53.9712 31.7398 53.37 31.03C53.0676 30.7032 52.6988 30.4448 52.2883 30.2723C51.8778 30.0998 51.4351 30.0172 50.99 30.03C50.5376 30.0177 50.0876 30.1004 49.6691 30.2726C49.2505 30.4449 48.8727 30.7029 48.56 31.03C48.2306 31.3579 47.972 31.7497 47.8 32.1814C47.628 32.6131 47.5463 33.0755 47.56 33.54C47.5404 34.0142 47.6191 34.4873 47.7912 34.9296C47.9633 35.3719 48.2251 35.7738 48.56 36.11Z" fill="#161E33"/>
<path d="M67.52 40.43C66.5666 40.4606 65.6168 40.2994 64.727 39.9558C63.8372 39.6122 63.0254 39.0934 62.34 38.43C61.6789 37.7803 61.1598 37.0005 60.8155 36.1398C60.4713 35.2792 60.3094 34.3565 60.34 33.43C60.3098 32.5359 60.4599 31.6449 60.7811 30.81C61.1024 29.9751 61.5883 29.2133 62.21 28.57C62.8379 27.9222 63.5952 27.4138 64.4325 27.0779C65.2698 26.7419 66.1684 26.5859 67.07 26.62C67.918 26.5781 68.765 26.7209 69.5523 27.0386C70.3397 27.3563 71.0486 27.8413 71.63 28.46C72.2061 29.0626 72.6545 29.7754 72.9483 30.5555C73.2421 31.3357 73.3754 32.1671 73.34 33C73.3574 33.5114 73.2402 34.0183 73 34.47C72.8801 34.648 72.7151 34.7908 72.5218 34.884C72.3285 34.9771 72.1139 35.0171 71.9 35H64C64.4067 36.7067 65.6967 37.56 67.87 37.56C68.9229 37.5612 69.9575 37.2853 70.87 36.76C70.9055 36.7335 70.9464 36.7151 70.9897 36.7063C71.0331 36.6974 71.0779 36.6983 71.121 36.7088C71.164 36.7193 71.2041 36.7392 71.2386 36.7671C71.273 36.795 71.3008 36.8301 71.32 36.87L72.32 38.23C72.46 38.43 72.42 38.62 72.19 38.82C71.5608 39.3901 70.8226 39.8268 70.0199 40.1035C69.2173 40.3802 68.3668 40.4913 67.52 40.43ZM63.89 32.37H70.06C69.9904 31.6154 69.6322 30.9169 69.06 30.42C68.4964 29.962 67.7858 29.7239 67.06 29.75C66.3004 29.7229 65.5548 29.9597 64.95 30.42C64.3689 30.9175 63.9915 31.6118 63.89 32.37Z" fill="#161E33"/>
<path d="M82.2 40.43C81.2466 40.4606 80.2968 40.2994 79.407 39.9558C78.5172 39.6122 77.7054 39.0934 77.02 38.43C76.3589 37.7803 75.8398 37.0005 75.4955 36.1398C75.1513 35.2792 74.9894 34.3565 75.02 33.43C74.9898 32.5359 75.1399 31.6449 75.4611 30.81C75.7824 29.9751 76.2683 29.2133 76.89 28.57C77.5179 27.9222 78.2752 27.4138 79.1125 27.0779C79.9498 26.7419 80.8484 26.5859 81.75 26.62C82.598 26.5781 83.445 26.7209 84.2323 27.0386C85.0197 27.3563 85.7286 27.8413 86.31 28.46C86.8825 29.0643 87.3272 29.7778 87.6176 30.5578C87.908 31.3379 88.038 32.1685 88 33C88.0325 33.5263 87.9219 34.0515 87.68 34.52C87.5525 34.692 87.3816 34.827 87.1848 34.9113C86.9881 34.9956 86.7725 35.0262 86.56 35H78.56C78.9733 36.7067 80.2633 37.56 82.43 37.56C83.4829 37.5612 84.5175 37.2853 85.43 36.76C85.4655 36.7335 85.5064 36.7151 85.5497 36.7063C85.5931 36.6974 85.6379 36.6983 85.681 36.7088C85.724 36.7193 85.7641 36.7392 85.7986 36.7671C85.833 36.795 85.8608 36.8301 85.88 36.87L86.88 38.23C87.02 38.43 86.98 38.62 86.75 38.82C86.1352 39.3752 85.4167 39.8033 84.6358 40.0796C83.8549 40.3559 83.0271 40.475 82.2 40.43ZM78.57 32.37H84.74C84.6704 31.6154 84.3122 30.9169 83.74 30.42C83.1764 29.962 82.4658 29.7239 81.74 29.75C80.9804 29.7229 80.2348 29.9597 79.63 30.42C79.0458 30.9151 78.6678 31.6106 78.57 32.37Z" fill="#161E33"/>
<path d="M90.76 46C90.7055 46.0086 90.6498 46.0041 90.5974 45.987C90.5449 45.97 90.4973 45.9407 90.4583 45.9017C90.4193 45.8628 90.3901 45.8151 90.373 45.7627C90.3559 45.7102 90.3515 45.6545 90.36 45.6V27.44C90.3515 27.3855 90.3559 27.3298 90.373 27.2774C90.3901 27.225 90.4193 27.1773 90.4583 27.1383C90.4973 27.0993 90.5449 27.0701 90.5974 27.053C90.6498 27.0359 90.7055 27.0315 90.76 27.04H93.4C93.4545 27.0315 93.5102 27.0359 93.5626 27.053C93.6151 27.0701 93.6627 27.0993 93.7017 27.1383C93.7407 27.1773 93.7699 27.225 93.787 27.2774C93.8041 27.3298 93.8085 27.3855 93.8 27.44V28.88C94.2554 28.1728 94.8911 27.5999 95.6417 27.2202C96.3923 26.8405 97.2305 26.6679 98.07 26.72C98.9152 26.7018 99.7539 26.8718 100.525 27.2177C101.297 27.5636 101.981 28.0768 102.53 28.72C103.704 30.0689 104.322 31.813 104.26 33.6C104.321 35.3959 103.703 37.1489 102.53 38.51C101.981 39.1533 101.297 39.6664 100.525 40.0124C99.7539 40.3583 98.9152 40.5283 98.07 40.51C97.2927 40.5485 96.5176 40.3985 95.8107 40.073C95.1038 39.7474 94.486 39.2558 94.01 38.64V45.7C94.0185 45.7545 94.0141 45.8102 93.997 45.8627C93.9799 45.9151 93.9507 45.9627 93.9117 46.0017C93.8727 46.0407 93.8251 46.07 93.7726 46.087C93.7202 46.1041 93.6645 46.1086 93.61 46.1H90.71L90.76 46ZM97.35 37C97.7978 37.0112 98.243 36.9279 98.6565 36.7556C99.07 36.5833 99.4426 36.3259 99.75 36C100.081 35.6673 100.341 35.2703 100.513 34.8335C100.685 34.3966 100.765 33.9292 100.75 33.46C100.764 32.9955 100.682 32.5331 100.51 32.1014C100.338 31.6697 100.079 31.2779 99.75 30.95C99.4446 30.6216 99.0723 30.3624 98.6584 30.1899C98.2444 30.0175 97.7982 29.9356 97.35 29.95C96.8975 29.9371 96.4473 30.0195 96.0287 30.1918C95.6101 30.364 95.2324 30.6224 94.92 30.95C94.3317 31.6658 94.01 32.5635 94.01 33.49C94.01 34.4165 94.3317 35.3143 94.92 36.03C95.2288 36.3649 95.6049 36.6307 96.0238 36.81C96.4426 36.9892 96.8945 37.0778 97.35 37.07V37Z" fill="#161E33"/>
<path d="M110.9 40.43C109.973 40.4679 109.049 40.2929 108.199 39.9185C107.35 39.5441 106.598 38.9802 106 38.27C105.84 38.07 105.86 37.82 106 37.5L106.93 36.19C106.96 36.1309 107.003 36.0797 107.056 36.0405C107.11 36.0013 107.172 35.9753 107.237 35.9646C107.302 35.9539 107.369 35.9587 107.432 35.9788C107.495 35.9989 107.553 36.0335 107.6 36.08C108.438 36.8156 109.489 37.2641 110.6 37.36C111.6 37.36 112.07 37 112.07 36.27C112.072 36.1296 112.045 35.9902 111.99 35.8609C111.935 35.7317 111.853 35.6155 111.75 35.52C111.455 35.259 111.117 35.0525 110.75 34.91L109.1 34.24C107.2 33.49 106.24 32.3 106.24 30.66C106.22 30.1082 106.33 29.5594 106.563 29.0587C106.796 28.5581 107.145 28.1198 107.58 27.78C108.498 27.0567 109.641 26.6781 110.81 26.71C111.644 26.6864 112.473 26.8544 113.232 27.2011C113.992 27.5478 114.661 28.064 115.19 28.71C115.261 28.786 115.301 28.8861 115.301 28.99C115.301 29.094 115.261 29.1941 115.19 29.27L114 30.68C113.84 30.88 113.64 30.88 113.39 30.68C112.748 30.0499 111.906 29.6642 111.01 29.59C110.675 29.5676 110.343 29.671 110.08 29.88C109.977 29.9755 109.895 30.0917 109.84 30.2209C109.785 30.3502 109.758 30.4896 109.76 30.63C109.76 31.18 110.18 31.63 111.01 31.91L112.85 32.63C114.85 33.43 115.83 34.6934 115.79 36.42C115.811 36.9993 115.691 37.5749 115.44 38.0975C115.189 38.6201 114.815 39.0739 114.35 39.42C113.341 40.1233 112.129 40.4779 110.9 40.43Z" fill="#161E33"/>
<path d="M124.68 40.43C123.727 40.4606 122.777 40.2994 121.887 39.9558C120.997 39.6122 120.185 39.0934 119.5 38.43C118.839 37.7803 118.32 37.0005 117.976 36.1398C117.631 35.2792 117.469 34.3565 117.5 33.43C117.47 32.5359 117.62 31.6449 117.941 30.81C118.262 29.9751 118.748 29.2133 119.37 28.57C119.998 27.9227 120.756 27.4147 121.593 27.0787C122.43 26.7428 123.329 26.5865 124.23 26.62C125.078 26.5781 125.925 26.7209 126.712 27.0386C127.5 27.3563 128.209 27.8413 128.79 28.46C129.366 29.0626 129.814 29.7754 130.108 30.5555C130.402 31.3357 130.535 32.1671 130.5 33C130.533 33.5263 130.422 34.0515 130.18 34.52C130.052 34.692 129.882 34.827 129.685 34.9113C129.488 34.9956 129.272 35.0262 129.06 35H121.11C121.523 36.7067 122.813 37.56 124.98 37.56C126.033 37.5612 127.068 37.2853 127.98 36.76C128.015 36.7335 128.056 36.7151 128.1 36.7063C128.143 36.6974 128.188 36.6983 128.231 36.7088C128.274 36.7193 128.314 36.7392 128.349 36.7671C128.383 36.795 128.411 36.8301 128.43 36.87L129.43 38.23C129.57 38.43 129.53 38.62 129.3 38.82C128.677 39.3839 127.947 39.8169 127.153 40.0934C126.36 40.37 125.519 40.4844 124.68 40.43ZM121.05 32.37H127.22C127.15 31.6154 126.792 30.9169 126.22 30.42C125.656 29.962 124.946 29.7239 124.22 29.75C123.46 29.7229 122.715 29.9597 122.11 30.42C121.526 30.9151 121.148 31.6106 121.05 32.37Z" fill="#161E33"/>
<path d="M137.78 40.43C136.749 40.473 135.736 40.1507 134.92 39.52C134.53 39.1489 134.23 38.6943 134.041 38.1902C133.852 37.6862 133.78 37.1459 133.83 36.61V29.88H132.18C132.126 29.8886 132.07 29.8841 132.017 29.867C131.965 29.85 131.917 29.8207 131.878 29.7817C131.839 29.7428 131.81 29.6951 131.793 29.6427C131.776 29.5902 131.771 29.5345 131.78 29.48V27.42C131.771 27.3655 131.776 27.3098 131.793 27.2574C131.81 27.205 131.839 27.1573 131.878 27.1183C131.917 27.0793 131.965 27.0501 132.017 27.033C132.07 27.0159 132.126 27.0115 132.18 27.02H133.83V24C133.821 23.9456 133.826 23.8898 133.843 23.8374C133.86 23.785 133.889 23.7373 133.928 23.6983C133.967 23.6593 134.015 23.6301 134.067 23.613C134.12 23.5959 134.176 23.5915 134.23 23.6H137.14C137.194 23.5915 137.25 23.5959 137.303 23.613C137.355 23.6301 137.403 23.6593 137.442 23.6983C137.481 23.7373 137.51 23.785 137.527 23.8374C137.544 23.8898 137.549 23.9456 137.54 24V27H139.6C139.654 26.9915 139.71 26.9959 139.763 27.013C139.815 27.0301 139.863 27.0593 139.902 27.0983C139.941 27.1373 139.97 27.185 139.987 27.2374C140.004 27.2898 140.009 27.3456 140 27.4V29.5C140.009 29.5545 140.004 29.6102 139.987 29.6627C139.97 29.7151 139.941 29.7627 139.902 29.8017C139.863 29.8407 139.815 29.87 139.763 29.887C139.71 29.9041 139.654 29.9086 139.6 29.9H137.54V36.23C137.514 36.3869 137.526 36.5477 137.574 36.6991C137.623 36.8505 137.707 36.9881 137.819 37.1006C137.932 37.213 138.07 37.297 138.221 37.3456C138.372 37.3942 138.533 37.406 138.69 37.38C139.03 37.38 139.3 37.38 139.52 37.38C139.74 37.38 140 37.47 140 37.75V39.75C140 40.18 139.26 40.43 137.78 40.43Z" fill="#161E33"/>
<path d="M22.55 41H20.45C20.3909 41 20.3324 40.9884 20.2778 40.9658C20.2232 40.9432 20.1736 40.91 20.1318 40.8682C20.09 40.8264 20.0569 40.7768 20.0343 40.7222C20.0116 40.6676 20 40.6091 20 40.55V35.25C20 35.1837 19.9737 35.1201 19.9268 35.0733C19.8799 35.0264 19.8163 35 19.75 35H0.450001C0.330653 35 0.216193 34.9526 0.131802 34.8682C0.0474102 34.7838 0 34.6694 0 34.55V15.48C0 15.3607 0.0474102 15.2462 0.131802 15.1618C0.216193 15.0774 0.330653 15.03 0.450001 15.03H22.55C22.6091 15.03 22.6676 15.0417 22.7222 15.0643C22.7768 15.0869 22.8264 15.12 22.8682 15.1618C22.91 15.2036 22.9431 15.2532 22.9657 15.3078C22.9884 15.3624 23 15.4209 23 15.48V31.78C23 31.8463 23.0263 31.9099 23.0732 31.9568C23.1201 32.0037 23.1837 32.03 23.25 32.03H38.55C38.6091 32.03 38.6676 32.0417 38.7222 32.0643C38.7768 32.0869 38.8264 32.12 38.8682 32.1618C38.91 32.2036 38.9431 32.2532 38.9657 32.3078C38.9884 32.3624 39 32.4209 39 32.48V34.58C39 34.6994 38.9526 34.8138 38.8682 34.8982C38.7838 34.9826 38.6693 35.03 38.55 35.03H23.25C23.1837 35.03 23.1201 35.0564 23.0732 35.1033C23.0263 35.1501 23 35.2137 23 35.28V40.58C22.9924 40.6941 22.9416 40.801 22.858 40.879C22.7745 40.957 22.6643 41.0003 22.55 41ZM3.2 32H19.8C19.853 32 19.9039 31.979 19.9414 31.9415C19.9789 31.9039 20 31.8531 20 31.8V18.23C20 18.177 19.9789 18.1261 19.9414 18.0886C19.9039 18.0511 19.853 18.03 19.8 18.03H3.2C3.14696 18.03 3.09609 18.0511 3.05858 18.0886C3.02107 18.1261 3 18.177 3 18.23V31.83C3.00723 31.8777 3.03146 31.9212 3.06821 31.9524C3.10496 31.9837 3.15177 32.0006 3.2 32Z" fill="#161E33"/>
<path d="M21.5 51.03C23.433 51.03 25 49.463 25 47.53C25 45.597 23.433 44.03 21.5 44.03C19.567 44.03 18 45.597 18 47.53C18 49.463 19.567 51.03 21.5 51.03Z" fill="#161E33"/>
</g>
<defs>
<clipPath id="clip0_12206_7363">
<rect width="140" height="64" fill="white"/>
</clipPath>
</defs>
</svg>
