<svg width="98" height="64" viewBox="0 0 98 64" fill="none" xmlns="http://www.w3.org/2000/svg">
<path fill-rule="evenodd" clip-rule="evenodd" d="M13.2507 38.329C14.8336 36.7365 15.6252 34.4675 15.6252 31.5229C15.6252 28.7867 14.8729 26.6958 13.3687 25.2471C11.8641 23.7993 9.72875 23.0749 6.96284 23.0749H1V40.719H6.57376C9.44226 40.719 11.6677 39.9223 13.2507 38.329ZM9.85645 28.0949C10.4812 28.876 10.7935 30.0751 10.7935 31.6912C10.7935 33.4213 10.4627 34.7068 9.8033 35.5469C9.14327 36.3887 8.10664 36.808 6.6919 36.808H5.65527V26.9245H7.01012C8.28379 26.9245 9.23108 27.3143 9.85645 28.0949Z" fill="#161E33"/>
<path d="M35.4998 40.7187H31.0645V23.0009H35.4998V40.7187Z" fill="#161E33"/>
<path fill-rule="evenodd" clip-rule="evenodd" d="M48.3601 39.1447C49.4913 37.9411 50.0553 36.2622 50.0553 34.1099C50.0553 32.7387 49.7932 31.5397 49.2675 30.5148C48.7425 29.4886 47.9953 28.7007 47.0274 28.1507C46.0601 27.6006 44.9437 27.3252 43.6819 27.3252C41.6397 27.3252 40.0537 27.9196 38.9226 29.1083C37.7914 30.297 37.2266 31.9642 37.2266 34.1099C37.2266 36.2082 37.8033 37.8725 38.9573 39.104C40.1098 40.3356 41.6625 40.9514 43.6133 40.9514C45.6473 40.9514 47.2298 40.3489 48.3601 39.1447ZM42.1728 36.6933C41.8782 36.1012 41.7305 35.2395 41.7305 34.1099C41.7305 32.9787 41.8782 32.1289 42.1728 31.5596C42.4682 30.9912 42.9547 30.7054 43.6355 30.7054C44.3317 30.7054 44.8226 30.9926 45.1106 31.5662C45.3978 32.1385 45.541 32.9861 45.541 34.1099C45.541 35.2395 45.4001 36.1012 45.1165 36.6933C44.8331 37.2863 44.3464 37.5823 43.6583 37.5823C42.9627 37.5823 42.4681 37.2863 42.1728 36.6933Z" fill="#161E33"/>
<path d="M56.2527 40.7188H51.8167V27.5579H56.2527V40.7188Z" fill="#161E33"/>
<path d="M56.2525 25.966H51.8166V23H56.2525V25.966Z" fill="#161E33"/>
<path d="M67.3839 36.908C66.5518 37.2099 65.8385 37.362 65.2397 37.362C64.4394 37.362 64.0384 36.936 64.0384 36.0839V30.9613H66.8685V27.559H64.0385V23.4206L59.5686 24.198V27.559H58.015V30.9613H59.5685V36.3866C59.5685 37.9349 59.8978 39.0823 60.5542 39.8295C61.2136 40.5768 62.2871 40.9511 63.7764 40.9511C64.5021 40.9511 65.1363 40.895 65.6768 40.782C66.2173 40.6705 66.7858 40.4822 67.3839 40.2193V36.908Z" fill="#161E33"/>
<path d="M77.6503 36.908C76.8182 37.2099 76.1051 37.362 75.5062 37.362C74.7052 37.362 74.3042 36.936 74.3042 36.0839V30.9613H77.1358V27.559H74.3042V23.4206L69.835 24.1471V27.559H68.2808V30.9613H69.835V36.3866C69.835 37.9349 70.1643 39.0823 70.8221 39.8295C71.48 40.5768 72.5536 40.9511 74.0428 40.9511C74.7701 40.9511 75.4021 40.895 75.9433 40.782C76.4838 40.6705 77.0531 40.4822 77.6503 40.2193V36.908Z" fill="#161E33"/>
<path fill-rule="evenodd" clip-rule="evenodd" d="M85.0174 27.3256C86.9525 27.3256 88.4484 27.8432 89.5028 28.8769C90.5579 29.9098 91.0851 31.3991 91.0851 33.3431V35.364H83.1567C83.1869 36.0993 83.4506 36.6767 83.9453 37.0953C84.4399 37.5133 85.1149 37.7222 85.9698 37.7222C86.7495 37.7222 87.4657 37.6461 88.1185 37.4947C88.5703 37.3907 89.0487 37.2327 89.5516 37.0274L90.233 39.9934C89.5411 40.3537 88.8279 40.6032 88.0911 40.7412C87.3497 40.8809 86.4653 40.951 85.4374 40.951C83.2969 40.951 81.635 40.3677 80.4514 39.2026C79.2686 38.0375 78.6757 36.3777 78.6757 34.2255C78.6757 32.0029 79.2242 30.2975 80.3207 29.1087C81.4179 27.92 82.9831 27.3256 85.0174 27.3256ZM83.8654 30.9206C83.5141 31.258 83.3081 31.786 83.2476 32.5066H87.0581C87.044 31.8715 86.8684 31.3643 86.531 30.9855C86.1957 30.6046 85.7438 30.4156 85.1754 30.4156C84.654 30.4156 84.2184 30.5839 83.8654 30.9206Z" fill="#161E33"/>
<path fill-rule="evenodd" clip-rule="evenodd" d="M23.2818 27.3256C25.2176 27.3256 26.7128 27.8432 27.7678 28.8769C28.8222 29.9098 29.3495 31.3991 29.3495 33.3431V35.364H21.4211C21.4514 36.0993 21.7142 36.6767 22.2097 37.0953C22.7043 37.5133 23.3799 37.7222 24.2342 37.7222C25.0139 37.7222 25.7293 37.6461 26.3835 37.4947C26.8345 37.3907 27.3131 37.2327 27.816 37.0274L28.4982 39.9934C27.8055 40.3537 27.0923 40.6032 26.3555 40.7412C25.6141 40.8809 24.7297 40.951 23.7018 40.951C21.5614 40.951 19.8994 40.3677 18.7165 39.2026C17.5323 38.0375 16.94 36.3777 16.94 34.2255C16.94 32.0029 17.4894 30.2975 18.5858 29.1087C19.6823 27.92 21.2468 27.3256 23.2818 27.3256ZM22.1299 30.9206C21.7784 31.258 21.5725 31.786 21.5119 32.5066H25.3233C25.3077 31.8715 25.1328 31.3643 24.7954 30.9855C24.4594 30.6046 24.0076 30.4156 23.4404 30.4156C22.9184 30.4156 22.4821 30.5839 22.1299 30.9206Z" fill="#161E33"/>
<path d="M94.7237 35.8973C93.3157 35.8973 92.1721 37.0402 92.1721 38.449C92.1721 39.8577 93.3157 41 94.7237 41C96.1325 41 97.2748 39.8577 97.2748 38.449C97.2748 37.0402 96.1325 35.8973 94.7237 35.8973Z" fill="#161E33"/>
</svg>
