<svg width="120" height="64" viewBox="0 0 120 64" fill="none" xmlns="http://www.w3.org/2000/svg">
<g clip-path="url(#clip0_1773_1077)">
<path fill-rule="evenodd" clip-rule="evenodd" d="M19.2192 21C21.3561 21.3615 23.437 22.0011 25.4076 22.9033C28.8024 27.8669 30.4885 33.4656 29.8657 39.9248C27.5719 41.6207 25.0031 42.9089 22.2719 43.7324C21.6569 42.9072 21.1135 42.0306 20.6469 41.1133C21.5357 40.7811 22.3942 40.372 23.2114 39.8896C22.999 39.7457 22.7887 39.5845 22.5834 39.417C20.2099 40.5332 17.6194 41.1123 14.9965 41.1123C12.3737 41.1123 9.78307 40.5332 7.4096 39.417C7.20676 39.5727 6.99728 39.734 6.78265 39.8896C7.59818 40.3712 8.455 40.78 9.34222 41.1113C8.875 42.0291 8.33071 42.906 7.71624 43.7324C4.98735 42.9056 2.42072 41.6163 0.127374 39.9219C-0.403336 34.3522 0.657659 28.702 4.57366 22.9082C6.54625 22.0059 8.62871 21.3646 10.767 21C11.0593 21.5227 11.3233 22.0608 11.559 22.6113C13.8351 22.2683 16.1501 22.2684 18.4262 22.6113C18.6618 22.0607 18.9268 21.5227 19.2192 21ZM10.0092 30.498C8.49249 30.4982 7.31305 31.8518 7.31292 33.5029C7.31292 35.1543 8.53496 36.4971 10.0141 36.4971C11.5216 36.4971 12.6874 35.1543 12.7133 33.5029C12.7391 31.8517 11.526 30.498 10.0092 30.498ZM19.9789 30.498C18.4598 30.498 17.2798 31.8517 17.2797 33.5029C17.2797 35.1543 18.4974 36.4971 19.9789 36.4971C21.4864 36.4971 22.6493 35.1543 22.6752 33.5029C22.701 31.8517 21.4981 30.498 19.9789 30.498Z" fill="#161E33"/>
<path d="M78.7416 27.2305C80.393 27.2305 81.764 27.577 82.8539 28.2705V31.2979C82.4393 31.0191 81.9863 30.8017 81.5092 30.6533C80.9752 30.4847 80.4179 30.4008 79.8578 30.4053C78.834 30.4053 78.0323 30.5925 77.4535 30.9668C77.1935 31.112 76.9765 31.3238 76.8246 31.5801C76.6728 31.8364 76.5917 32.1288 76.5893 32.4268C76.5869 32.7245 76.6633 33.0177 76.811 33.2764C76.9587 33.535 77.1724 33.75 77.4301 33.8994C77.9916 34.2784 78.8066 34.4678 79.8744 34.4678C80.4256 34.4691 80.9742 34.3902 81.5024 34.2324C81.9841 34.0943 82.4471 33.8965 82.8803 33.6445V36.5703C81.604 37.3145 80.1465 37.6916 78.6694 37.6602C77.4855 37.6925 76.3093 37.4536 75.2319 36.9619C74.349 36.5563 73.6049 35.8995 73.0922 35.0742C72.614 34.265 72.3688 33.3393 72.3842 32.3994C72.37 31.46 72.6281 30.5361 73.1274 29.7402C73.6595 28.928 74.417 28.2887 75.3071 27.9004C76.3892 27.4289 77.5616 27.2002 78.7416 27.2305Z" fill="#161E33"/>
<path d="M66.3422 27.2354C67.199 27.2273 68.0534 27.3268 68.8852 27.5322C69.5571 27.6914 70.2028 27.9474 70.8012 28.292V30.8867C70.2401 30.5612 69.6366 30.3145 69.0082 30.1533C68.3274 29.9708 67.6253 29.879 66.9203 29.8799C65.8855 29.8799 65.3676 30.0559 65.3676 30.4082C65.3659 30.4866 65.3882 30.5636 65.4301 30.6299C65.4721 30.6961 65.5323 30.7492 65.6039 30.7812C65.8865 30.9014 66.1827 30.9861 66.4858 31.0352L68.1371 31.333C69.2095 31.5217 70.0097 31.8516 70.5366 32.3232C71.0633 32.795 71.3279 33.4857 71.3295 34.3945C71.3379 34.8725 71.2212 35.3449 70.9907 35.7637C70.7601 36.1825 70.4234 36.5336 70.0151 36.7822C69.1454 37.3656 67.9039 37.6568 66.2905 37.6553C65.3626 37.6567 64.438 37.5403 63.5395 37.3086C62.6899 37.0957 61.8769 36.7556 61.1283 36.3008V33.5596C61.7819 34.0349 62.5183 34.3852 63.2992 34.5928C64.1535 34.8534 65.0409 34.9892 65.934 34.9961C66.2423 35.0125 66.5505 34.9598 66.8354 34.8408C67.0383 34.737 67.1401 34.6046 67.1401 34.4678C67.1422 34.3914 67.1284 34.3151 67.1 34.2441C67.0716 34.1732 67.0283 34.1095 66.9741 34.0557C66.7856 33.9108 66.5649 33.8138 66.3305 33.7744L64.3491 33.3281C63.2136 33.0639 62.4076 32.6985 61.9311 32.2314C61.6919 31.9902 61.5051 31.7019 61.3832 31.3848C61.2615 31.0677 61.207 30.7289 61.2231 30.3896C61.2151 29.7746 61.4396 29.179 61.851 28.7217C62.3388 28.2057 62.9537 27.8266 63.6342 27.624C64.5099 27.3488 65.4245 27.2179 66.3422 27.2354Z" fill="#161E33"/>
<path fill-rule="evenodd" clip-rule="evenodd" d="M120 37.3252H115.955V35.1543C115.65 35.927 115.101 36.5798 114.393 37.0137C113.611 37.4591 112.721 37.6812 111.822 37.6553C110.975 37.6749 110.141 37.4422 109.427 36.9873C108.736 36.5379 108.184 35.9025 107.837 35.1543C107.459 34.3284 107.27 33.428 107.286 32.5195C107.259 31.5775 107.46 30.643 107.871 29.7949C108.248 29.0181 108.838 28.3635 109.572 27.9072C110.326 27.4506 111.193 27.2161 112.075 27.2305C113.999 27.2306 115.293 28.0669 115.955 29.7402V25.4355H120V37.3252ZM113.722 30.3252C113.125 30.3252 112.546 30.5314 112.083 30.9082C111.88 31.1054 111.721 31.3435 111.616 31.6064C111.51 31.8694 111.462 32.1516 111.473 32.4346C111.463 32.7203 111.512 33.0052 111.619 33.2705C111.725 33.5357 111.886 33.7754 112.091 33.9746C112.308 34.1761 112.562 34.3329 112.84 34.4346C113.118 34.5362 113.414 34.5814 113.709 34.5674C114.01 34.584 114.312 34.5401 114.595 34.4385C114.879 34.3368 115.139 34.1786 115.361 33.9746C115.567 33.7718 115.729 33.5284 115.835 33.2598C115.942 32.9909 115.992 32.7022 115.981 32.4131C115.99 32.1327 115.939 31.8531 115.832 31.5938C115.726 31.3345 115.564 31.1009 115.361 30.9082C114.898 30.5314 114.319 30.3252 113.722 30.3252Z" fill="#161E33"/>
<path fill-rule="evenodd" clip-rule="evenodd" d="M86.9555 27.9023C89.1263 27.0216 91.5552 27.0217 93.726 27.9023C94.6061 28.2879 95.357 28.9186 95.8891 29.7188C96.391 30.5135 96.6494 31.4382 96.6323 32.3779C96.644 33.3274 96.3862 34.2604 95.8891 35.0693C95.3628 35.8946 94.6095 36.5504 93.7192 36.957C92.6522 37.4146 91.5032 37.6504 90.3422 37.6504C89.1813 37.6504 88.0323 37.4146 86.9653 36.957V36.9619C86.0725 36.5543 85.3148 35.8989 84.7826 35.0742C84.2813 34.2669 84.0211 33.3331 84.0326 32.3828C84.0166 31.4437 84.2774 30.5203 84.7826 29.7285C85.3176 28.9248 86.0717 28.2909 86.9555 27.9023ZM90.3315 30.2734C90.0311 30.2576 89.7301 30.3015 89.4467 30.4023C89.1635 30.5032 88.9029 30.6595 88.6801 30.8613C88.4764 31.0681 88.3178 31.3148 88.2143 31.5859C88.1108 31.8571 88.0645 32.1467 88.0785 32.4365C88.0653 32.7292 88.1119 33.0218 88.2153 33.2959C88.3187 33.57 88.4769 33.8202 88.6801 34.0312C88.9009 34.2373 89.161 34.3966 89.4448 34.5C89.7285 34.6034 90.0299 34.6486 90.3315 34.6328C90.6332 34.6504 90.9352 34.6063 91.2192 34.5029C91.5031 34.3995 91.7631 34.2388 91.9828 34.0312C92.1867 33.8207 92.3458 33.571 92.4496 33.2969C92.5535 33.0226 92.5997 32.7295 92.5864 32.4365C92.6006 32.1464 92.5546 31.8562 92.4506 31.585C92.3467 31.3139 92.1872 31.0676 91.9828 30.8613C91.761 30.6579 91.5008 30.5003 91.2172 30.3994C90.9335 30.2985 90.632 30.2558 90.3315 30.2734Z" fill="#161E33"/>
<path d="M59.3246 37.377H55.2875V29.9414C55.9265 30.21 56.613 30.3477 57.3061 30.3477C57.9992 30.3477 58.6857 30.21 59.3246 29.9414V37.377Z" fill="#161E33"/>
<path fill-rule="evenodd" clip-rule="evenodd" d="M46.7446 25.7656C48.2967 25.7656 49.6099 26.0079 50.684 26.4922C51.6729 26.9079 52.5133 27.6131 53.0932 28.5156C53.636 29.4073 53.9139 30.4358 53.895 31.4795C53.9068 32.5279 53.6185 33.5581 53.0629 34.4473C52.4431 35.3866 51.5561 36.1187 50.517 36.5508C49.3784 37.0698 47.9669 37.3287 46.2826 37.3271H40.3041V25.7656H46.7446ZM44.433 34.3857H46.2162C47.262 34.3857 48.0659 34.1246 48.6274 33.6025C48.9121 33.3265 49.1345 32.9921 49.2797 32.623C49.4248 32.2542 49.4892 31.8587 49.4692 31.4629C49.4867 31.0952 49.4292 30.7275 49.3002 30.3828C49.1713 30.0381 48.9737 29.7229 48.7192 29.457C48.2159 28.9571 47.4587 28.7067 46.4477 28.7051H44.433V34.3857Z" fill="#161E33"/>
<path d="M105.055 27.4453C105.584 27.4309 106.105 27.5686 106.558 27.8418V31.4131C106.065 31.1189 105.497 30.9752 104.923 31C104.043 31 103.364 31.2696 102.892 31.8027C102.42 32.3359 102.184 33.1635 102.184 34.2861V37.3252H98.1381V27.6641H102.102V30.7314C102.322 29.6085 102.678 28.7802 103.168 28.2471C103.406 27.985 103.698 27.7771 104.024 27.6387C104.35 27.5003 104.701 27.4347 105.055 27.4453Z" fill="#161E33"/>
<path d="M57.3071 25.0693C58.4208 25.0694 59.3235 25.8805 59.3237 26.8809C59.3237 27.8814 58.4209 28.6933 57.3071 28.6934C56.1931 28.6934 55.2895 27.8815 55.2895 26.8809C55.2897 25.8804 56.1932 25.0693 57.3071 25.0693Z" fill="#161E33"/>
</g>
<defs>
<clipPath id="clip0_1773_1077">
<rect width="120" height="64" fill="white"/>
</clipPath>
</defs>
</svg>
