<svg width="96" height="64" viewBox="0 0 96 64" fill="none" xmlns="http://www.w3.org/2000/svg">
<path d="M71.4913 33.1377C71.4967 33.133 71.8613 32.8197 72.0733 32.917C72.3083 33.0163 72.1995 34.012 72.0128 34.4961C71.8187 34.9777 70.4503 37.3467 70.4503 37.3467C70.4406 37.3649 69.5983 38.9539 69.837 40.209C71.4491 37.7305 75.1136 32.7328 77.3849 34.3086C78.1477 34.8544 78.499 36.042 78.4991 37.3213C78.4996 38.4451 78.2289 39.6399 77.7276 40.5352C76.8738 42.0249 74.4633 45.1444 71.2599 44.4082C70.202 46.9736 69.313 49.5689 68.8048 53.4521C68.8048 53.4521 68.6927 54.2065 68.0655 53.9443C67.444 53.7265 66.4202 52.6938 66.213 51.2646C65.9902 49.3868 66.8267 46.2121 68.5353 42.5723C68.0369 41.7621 67.6975 40.6042 67.9884 38.9561C67.9939 38.9175 68.4371 35.8787 71.4913 33.1377ZM6.76378 21.1865C9.59796 21.0795 12.2804 21.5755 15.0265 22.4092C16.5982 22.8844 18.6567 23.6819 20.1632 24.4072C21.2442 24.9285 22.9467 25.8873 23.9034 26.5137C24.2051 26.7128 25.9705 28.0099 26.2452 28.2383C26.8174 28.7061 27.5665 29.3783 28.1085 29.916C29.157 30.9551 30.4613 32.5484 31.0948 33.8125C31.2472 34.1151 31.3651 34.413 31.5616 34.7637C31.6294 34.8842 31.9188 35.6029 31.9669 35.8105C32.0145 36.0158 32.0839 36.3175 32.0939 36.3301C32.1079 36.4409 32.242 37.0578 32.2316 37.2959C32.2936 37.8627 32.1484 38.9348 32.1232 39.0762C32.0769 39.4022 31.8309 40.1535 31.7901 40.2451C31.5919 40.7016 31.3967 41.0761 31.1896 41.4492C30.8344 42.0882 29.9895 43.1007 29.4884 43.5342C27.6246 45.145 24.7399 46.063 22.2648 46.3652C20.5852 46.5681 18.6548 46.5383 16.8751 46.209C16.2626 46.0976 15.3507 45.8867 15.3507 45.8867C15.3507 45.8867 15.3535 46.2515 15.3243 46.5078C15.3102 46.6248 15.2223 46.9325 15.173 47.0322C15.0436 47.2995 14.8314 47.4377 14.5226 47.4971C14.1497 47.5663 13.7538 47.5887 13.4093 47.4414C12.8439 47.2034 12.6407 46.6746 12.5421 46.0645C12.463 45.5802 12.3804 44.7411 12.379 44.7275C12.379 44.7275 11.9555 44.5267 11.6026 44.3506C10.5189 43.8166 9.48946 43.1693 8.58897 42.5039C8.33896 42.3172 7.26789 41.4201 7.03136 41.1973C6.36793 40.5674 5.77053 39.9407 5.31651 39.1367C4.96375 38.5088 4.86261 37.9515 5.13097 37.2861C5.50115 36.3585 6.83107 35.6598 7.74132 35.2617C8.40962 34.9667 10.4868 34.2888 11.3497 34.1631C11.7573 34.1048 12.39 33.9911 12.4288 33.9658C12.4445 33.9538 12.4555 33.9436 12.4669 33.9307C12.4868 33.9026 12.5203 32.9846 12.5138 32.6484C12.5054 32.3182 12.7577 30.1482 12.839 29.6895C12.8815 29.4409 13.0701 28.4869 13.2618 28.2363C13.3873 28.067 13.6093 28.0802 13.7901 28.1914C14.7796 28.807 15.0798 30.9412 15.1534 32.0273C15.1971 32.6836 15.2195 33.6684 15.2198 33.6846C15.235 33.6841 16.3601 33.6512 17.0538 33.6709C17.7324 33.6867 18.4803 33.794 19.1847 33.9062C20.0865 34.0508 21.8443 34.4342 22.8526 34.9453C23.6829 35.3662 24.4602 36.0757 24.712 36.8262C24.9459 37.5141 24.9111 37.9904 24.5548 38.6113C24.1541 39.3124 23.3963 39.8334 22.628 39.877C22.3994 39.8901 21.5394 39.7752 21.2745 39.5703C21.1707 39.4886 21.1752 39.3412 21.2501 39.2412C21.2785 39.2061 21.6816 38.992 21.9191 38.8672C22.0309 38.8073 22.1348 38.7338 22.2286 38.6484C22.4258 38.4748 22.6038 38.2837 22.5841 38.0596C22.5568 37.7686 22.2486 37.5891 21.9552 37.4736C20.5783 36.9267 17.8294 36.4731 16.5011 36.3945C15.9811 36.364 15.2413 36.3379 15.2413 36.3379L15.3985 43.6729C15.4155 43.6761 16.0163 43.7902 16.4913 43.8672C16.7678 43.9091 17.9398 44.0148 18.2511 44.0225C20.6214 44.085 23.2672 43.8732 25.4425 42.8467C26.3974 42.3973 27.2733 41.8374 27.9366 41.0801C28.8109 40.0778 29.2687 38.7053 29.1476 37.2725C29.0146 35.7079 27.9136 33.8507 27.0343 32.7197C24.7107 29.7316 20.7278 27.2732 17.2237 25.832C13.6463 24.3617 10.1103 23.5157 6.31358 23.374C5.33482 23.3378 3.20098 23.3872 2.12218 23.6855C1.96825 23.729 1.81299 23.7813 1.67003 23.8135C1.557 23.8411 1.37811 23.9156 1.32921 23.9551C1.31005 23.9712 1.29219 23.9892 1.2755 24.0078C1.2755 24.0078 1.3419 24.0444 1.40538 24.0713C1.51965 24.1212 2.00118 24.1507 2.25011 24.1963C2.47271 24.2382 2.7042 24.3555 2.79601 24.5186C2.88319 24.6737 2.89437 24.7964 2.79015 24.9258C2.54548 25.2227 1.62593 25.1725 1.22081 25.1084C0.799805 25.0413 0.275096 24.9124 0.178817 24.5459C0.0671925 24.1142 0.27271 23.691 0.494247 23.2998C0.939368 22.5171 1.57717 22.1094 2.51085 21.8545C3.83696 21.4896 5.51162 21.2344 6.76378 21.1865ZM66.3634 33.2822C66.3634 33.2822 67.3182 33.1888 68.1456 34.8438C68.1539 34.8574 68.539 35.5142 67.8653 35.6738C66.538 35.9799 63.047 36.1504 63.047 36.1504L62.6066 37.5293C62.6066 37.5293 64.3513 37.3801 65.6202 37.5127C65.6202 37.5127 66.0309 37.465 66.0792 37.9795C66.0953 38.4517 66.0409 38.9578 66.0392 38.9736C66.0392 38.9736 66.0127 39.2859 65.5714 39.3652C65.095 39.4446 61.8399 39.5702 61.8116 39.5713L61.2804 41.3682C61.2804 41.3682 61.083 41.7836 61.5255 41.665C61.9384 41.5547 65.3747 40.9101 65.8224 41.0029C66.3021 41.1221 66.833 41.7618 66.6798 42.3447C66.4968 43.0674 63.0654 45.2561 60.9757 45.1035C60.9757 45.1035 59.8774 45.1742 58.9493 43.6924C58.0916 42.2911 59.2584 39.6472 59.2765 39.6064C59.2765 39.6064 58.7303 38.3578 59.1261 37.9346C59.1261 37.9346 59.3621 37.7212 60.0489 37.6729L60.8898 35.9326C60.8757 35.9335 59.9281 35.9931 59.3624 35.2939C58.8315 34.6254 58.7864 34.3174 59.1935 34.1328C59.6287 33.9179 63.6181 33.1899 66.3634 33.2822ZM88.339 30.0869C88.4408 30.0872 88.5391 30.1233 88.6173 30.1885C88.6956 30.2537 88.749 30.3441 88.7677 30.4443C89.1464 32.4463 89.387 34.3902 89.504 36.3857H95.3761C95.5024 36.3861 95.6237 36.4361 95.713 36.5254C95.8024 36.6148 95.8525 36.7368 95.8526 36.8633V38.084C95.8525 38.3464 95.6383 38.5603 95.3761 38.5605H89.5851C89.5888 38.8616 89.5909 39.1327 89.5909 39.3848C89.5909 41.1787 89.5173 42.6464 89.3458 44.293C89.3344 44.4103 89.2799 44.5194 89.1925 44.5986C89.1051 44.6778 88.9911 44.7219 88.8732 44.7217H87.6183C87.5565 44.7216 87.4949 44.7079 87.4386 44.6826C87.3825 44.6574 87.3321 44.6211 87.2911 44.5752C87.2487 44.5291 87.2169 44.4736 87.1974 44.4141C87.1779 44.3546 87.1709 44.2916 87.1778 44.2295C87.3552 42.5941 87.4317 41.1449 87.4317 39.3857C87.4317 39.1327 87.4285 38.8626 87.4249 38.5615H81.6954C81.569 38.5613 81.4479 38.5103 81.3585 38.4209C81.2691 38.3315 81.2181 38.2104 81.2179 38.084V36.8633C81.2179 36.6011 81.4322 36.3877 81.6954 36.3877H87.3439C87.2237 34.4065 86.9804 32.4997 86.5958 30.5625C86.5846 30.5047 86.5862 30.4448 86.6007 30.3877C86.6152 30.3307 86.6424 30.2778 86.6798 30.2324C86.7168 30.1872 86.7628 30.1501 86.8155 30.125C86.8684 30.0999 86.9269 30.0871 86.9855 30.0869H88.339ZM34.5108 33.5996C34.554 33.6069 34.6207 33.6265 34.6778 33.6484C35.1745 33.8375 35.3787 34.2977 35.5011 34.8027C35.7847 35.9757 35.906 38.5702 35.9532 39.5859C35.9879 40.3483 36.0072 41.099 36.0392 41.8525C36.0663 42.4906 36.1165 43.3388 35.9835 43.9365C35.9352 44.1514 35.7917 44.4011 35.586 44.5293C35.3502 44.6803 34.8129 44.6927 34.5177 44.6318C33.7902 44.4814 33.5532 44.0133 33.4493 43.2939C33.2025 41.5771 33.3222 38.2069 33.4679 36.7852C33.5164 36.3152 33.6926 34.8116 33.9376 34.1807C34.0213 33.9679 34.2003 33.5388 34.5108 33.5996ZM41.9415 33.2715C43.539 33.0727 46.1215 33.0744 47.6905 33.9082C47.9327 34.0381 48.0566 34.159 48.006 34.418C47.9037 34.9039 47.5385 35.2171 47.0958 35.3545C46.6312 35.5024 45.6693 35.5603 45.2472 35.5869C43.3555 35.6929 41.0694 35.6376 39.2677 36.1289C39.1265 36.1692 38.883 36.2348 38.8038 36.3232C38.5218 36.6294 39.3276 36.7169 39.5001 36.752C39.551 36.7641 39.5611 36.7657 39.6144 36.7715L43.5968 37.2412C43.6495 37.2485 43.6615 37.2501 43.713 37.2568C44.5747 37.374 45.4213 37.5297 46.0694 37.8193C46.6703 38.0846 47.0233 38.4201 47.3448 39.0186C47.8338 39.926 47.8648 41.1979 47.423 42.1602C47.0928 42.8759 46.3685 43.4758 45.7071 43.7939C45.0203 44.1269 44.3436 44.2864 43.5675 44.375C42.2099 44.5245 40.7432 44.2431 39.5216 43.6523C38.7988 43.2994 37.916 42.6912 37.4708 41.9082C37.1435 41.3346 37.1537 40.5882 37.5519 40.043C38.1868 39.174 39.5472 38.9823 40.5714 39.0186C41.3521 39.0488 42.7576 39.29 43.4991 39.5537C43.7046 39.628 44.4626 39.9241 44.5948 40.0596C44.6879 40.1537 44.7489 40.2905 44.7071 40.417C44.5375 40.9348 43.2792 41.2077 42.9151 41.2627C41.9419 41.4118 41.4366 41.0433 40.3302 40.6064C40.0555 40.4989 39.6889 40.3794 39.4093 40.3535C38.907 40.3057 38.3001 40.4468 38.2042 40.9951C38.1566 41.2777 38.4886 41.5422 38.7413 41.6533C39.3347 41.9082 39.8174 42 40.4015 42.0078C42.127 42.0362 44.0662 41.7518 45.4776 40.752C45.6709 40.614 45.8614 40.4117 45.8634 40.1572C45.8691 39.6436 44.9679 39.3291 44.9679 39.3291C44.017 38.9328 42.2605 38.7406 41.3556 38.666C40.406 38.5838 38.912 38.4601 38.5528 38.4072C38.1834 38.3545 37.782 38.2801 37.462 38.1367C37.1407 37.9916 36.8259 37.667 36.7325 37.3076C36.5671 36.6596 36.7789 35.8643 37.1388 35.3467C38.082 33.9908 40.2911 33.476 41.9415 33.2715ZM54.2042 31.9805C54.3271 31.4956 54.8136 31.7227 54.8136 31.7227C54.8337 31.7329 56.6941 32.6824 57.5997 35.7197C58.5042 38.7746 57.8963 41.5303 57.5392 42.3643C57.1874 43.1918 56.2581 44.0751 55.1036 43.5264C53.9704 42.9794 52.1692 39.3029 52.1485 39.2607C52.1485 39.2607 51.4588 37.8745 51.3263 37.9102C51.3193 37.8985 51.1751 37.6772 51.086 39.1543C50.9911 40.662 51.1044 43.6017 50.503 44.0645C49.9334 44.5282 49.2436 44.3436 48.8858 43.8018C48.5606 43.2677 48.4252 41.9982 48.6026 39.7695C48.8112 37.5366 49.3305 35.1607 49.9933 34.4209C50.6545 33.6871 51.1854 34.2193 51.3927 34.4131C51.3927 34.4131 52.2785 35.2161 53.7384 37.5723L53.9962 38.0078C54.0108 38.0323 55.3231 40.2334 55.461 40.2285C55.461 40.2285 55.5695 40.331 55.6661 40.2578C55.8045 40.2183 55.7498 39.513 55.7491 39.5039C55.7491 39.5039 55.4741 37.0778 54.2638 32.9717C54.2615 32.9653 54.0815 32.4571 54.2042 31.9805ZM12.3771 36.4561C12.3517 36.4579 11.2863 36.5345 10.5499 36.6162C9.60177 36.7183 7.81947 37.0254 6.79112 37.3926C6.48271 37.503 5.8568 37.7652 5.80186 38.082C5.74463 38.4108 5.94897 38.6686 6.17589 38.9346C6.30771 39.0896 7.04971 39.803 7.25792 39.9766C8.13076 40.7053 9.90055 41.8291 11.2042 42.375C11.6521 42.5603 12.3937 42.8262 12.3937 42.8262C12.3937 42.8262 12.3379 40.7158 12.3478 38.6377C12.3535 37.5415 12.3771 36.4561 12.3771 36.4561ZM77.0646 36.6104C77.0646 36.6104 76.938 35.6245 75.9747 36.71C75.1461 37.626 73.6515 39.3426 72.4483 41.6738C73.7105 41.5321 74.9286 40.8479 75.297 40.499C75.8955 39.968 77.2893 38.5268 77.0646 36.6104ZM34.6759 23.7617C35.6658 23.3448 37.1161 23.0602 38.2032 23.4365C38.5571 23.5578 39.0502 23.8593 39.298 24.1748C39.3505 24.2402 39.3935 24.311 39.4474 24.3457C39.4957 24.3765 39.6222 24.3888 39.7228 24.4072C40.0693 24.4673 40.5685 24.7294 40.7726 24.9043C41.1823 25.2577 41.407 25.5956 41.5108 26.0859C41.7191 27.0725 41.1511 28.1547 40.504 28.8135C39.3962 29.9471 38.302 30.7439 36.8849 31.2988C36.2623 31.542 35.2923 31.7696 34.586 31.7061C34.3667 31.6879 34.1414 31.6304 33.9278 31.6162C33.819 31.6068 33.4214 31.5037 33.378 31.4746C33.3252 31.434 33.2562 31.3993 33.2442 31.4131C33.1488 31.5145 33.0482 31.7583 32.9435 31.9346C32.8874 32.029 32.7827 32.1504 32.714 32.1992C32.4728 32.3764 32.2681 32.3846 32.0353 32.1797C31.7089 31.8908 31.5204 31.4442 31.5069 31.0098C31.5 30.8202 31.532 30.6101 31.4962 30.4502C31.4368 30.1803 31.1673 29.9016 31.0216 29.6436C30.8506 29.3395 30.7117 28.8091 30.6944 28.4668C30.6359 27.3995 31.199 26.4161 31.9298 25.6406C32.6658 24.8566 33.6288 24.2053 34.6759 23.7617ZM39.5226 25.8799C39.1692 25.7268 38.9849 25.7515 38.5333 25.8857C38.2052 25.9817 38.057 26.0395 37.7472 26.2168C36.8377 26.7452 35.5478 27.8768 34.8478 28.7793C34.6864 28.992 34.5226 29.2295 34.3946 29.3926C34.3141 29.4928 34.2516 29.5854 34.2589 29.6104C34.2868 29.7127 35.2435 29.7033 35.6056 29.6787C36.5325 29.6147 37.4007 29.3478 38.2091 28.8994C39.002 28.4557 40.168 27.5903 40.047 26.5732C40.0101 26.2442 39.7945 25.9958 39.5226 25.8799ZM35.2931 25.5684C35.279 25.5698 34.928 25.6065 34.7276 25.6475C34.2422 25.7421 33.5304 26.2149 33.1749 26.5205C32.5881 27.0229 31.9435 27.8398 32.2355 28.5654C32.2772 28.6663 32.3409 28.8014 32.3429 28.8057C32.3498 28.7953 32.6534 28.3402 32.9083 27.9941C33.3778 27.3566 34.2275 26.4722 34.8673 25.9248C35.0594 25.7607 35.2849 25.5751 35.2931 25.5684ZM50.5343 2C58.7386 2 66.6367 4.44054 73.3732 9.05762C79.9537 13.5675 85.0117 19.8452 88.003 27.209C88.0302 27.2756 88.0408 27.3484 88.0333 27.4199C88.0257 27.4913 88.0004 27.5597 87.9601 27.6191C87.9201 27.6785 87.866 27.7269 87.8028 27.7607C87.7396 27.7946 87.6685 27.8132 87.5968 27.8135H86.34C86.2316 27.8135 86.1256 27.7814 86.0353 27.7217C85.9448 27.6617 85.8734 27.5756 85.8312 27.4756C82.9301 20.627 78.1295 14.7991 71.9483 10.6221C65.6134 6.33981 58.2085 4.07617 50.5343 4.07617C44.1808 4.07625 37.8876 5.66699 32.3331 8.6748C26.9526 11.5881 22.2864 15.8055 18.839 20.8701C18.7854 20.9497 18.7128 21.0145 18.628 21.0596C18.5432 21.1047 18.4487 21.129 18.3526 21.1289C18.2885 21.1284 18.2243 21.1183 18.1632 21.0986L17.1114 20.7441C17.0424 20.7201 16.9795 20.6806 16.9278 20.6289C16.8762 20.577 16.8364 20.5136 16.8126 20.4443C16.789 20.3753 16.7816 20.3018 16.7911 20.2295C16.8008 20.157 16.8273 20.087 16.8683 20.0264C24.3853 8.7391 36.9712 2.00015 50.5343 2Z" fill="#161E33"/>
</svg>
