<svg width="80" height="64" viewBox="0 0 80 64" fill="none" xmlns="http://www.w3.org/2000/svg">
<path fill-rule="evenodd" clip-rule="evenodd" d="M10 42C12.6522 42 15.1957 40.9464 17.0711 39.0711C18.9464 37.1957 20 34.6522 20 32C20 34.6522 21.0536 37.1957 22.9289 39.0711C24.8043 40.9464 27.3478 42 30 42C32.6522 42 35.1957 40.9464 37.0711 39.0711C38.9464 37.1957 40 34.6522 40 32V42H50C51.3261 42 52.5979 41.4732 53.5355 40.5355C54.4732 39.5979 55 38.3261 55 37C55 35.6739 54.4732 34.4021 53.5355 33.4645C52.5979 32.5268 51.3261 32 50 32H60V42H70V32H80V22H50C48.6739 22 47.4021 22.5268 46.4645 23.4645C45.5268 24.4021 45 25.6739 45 27C45 28.3261 45.5268 29.5979 46.4645 30.5355C47.4021 31.4732 48.6739 32 50 32H40V22H30H20V32C20 29.3478 18.9464 26.8043 17.0711 24.9289C15.1957 23.0536 12.6522 22 10 22H0V32V42H10Z" fill="#161E33"/>
</svg>
