<svg width="104" height="64" viewBox="0 0 104 64" fill="none" xmlns="http://www.w3.org/2000/svg">
<path fill-rule="evenodd" clip-rule="evenodd" d="M68.6278 17.1298L80.6177 29.1163C80.8481 29.3461 81.0309 29.6191 81.1554 29.9198C81.28 30.2205 81.344 30.5427 81.3437 30.8682V34.6194C81.344 34.9445 81.2804 35.2664 81.1561 35.5668C81.0317 35.8671 80.8493 36.1398 80.6194 36.3696L75.8945 41.086C75.4299 41.5496 74.8006 41.81 74.1444 41.8103H70.6862C70.0296 41.8095 69.3998 41.5492 68.9344 41.086L64.2095 36.3696C63.9787 36.1393 63.7956 35.8657 63.6711 35.5646C63.5465 35.2632 63.4828 34.9403 63.4835 34.6144V24.2062C63.4835 24.1186 63.5094 24.0328 63.5581 23.9599C63.6068 23.8871 63.676 23.8304 63.7569 23.7968C63.8379 23.7632 63.927 23.7544 64.0129 23.7716C64.0988 23.7888 64.1778 23.8309 64.2398 23.8929L67.8715 27.5212V17.4414C67.8718 17.354 67.8979 17.2684 67.9468 17.1958C67.9956 17.1232 68.0649 17.0668 68.1457 17.0334C68.2266 17.0001 68.3155 16.9915 68.4014 17.0085C68.4872 17.0257 68.566 17.068 68.6278 17.1298ZM76.9609 33.506C76.9604 33.7024 76.8822 33.8907 76.7436 34.0299L72.9367 37.8502C72.8678 37.9198 72.7858 37.9748 72.6955 38.0126C72.605 38.0501 72.5082 38.0697 72.4103 38.0697C72.3125 38.0697 72.2154 38.0501 72.1251 38.0126C72.0349 37.9748 71.9528 37.9198 71.8839 37.8502L68.0855 34.0248C67.9474 33.8872 67.8687 33.7009 67.8665 33.506V32.0473C67.8667 31.9496 67.8861 31.8529 67.9236 31.7626C67.9612 31.6725 68.0163 31.5906 68.0855 31.5217L69.4533 30.154C69.5927 30.0148 69.7817 29.9367 69.9788 29.9367C70.1759 29.9367 70.3647 30.0148 70.5044 30.154L72.4162 32.0675L74.3247 30.154C74.4642 30.0148 74.6532 29.9367 74.8502 29.9367C75.0473 29.9367 75.2362 30.0148 75.3758 30.154L76.7419 31.5217C76.8111 31.5906 76.8662 31.6725 76.9038 31.7626C76.9413 31.8529 76.9607 31.9496 76.9609 32.0473V33.506Z" fill="#161E33"/>
<path d="M98.7374 26.4802C97.7587 26.4805 96.8088 26.8116 96.0422 27.4201L95.4308 27.9254C95.338 27.9973 95.2239 28.0366 95.1065 28.0366C94.9891 28.0366 94.8751 27.9973 94.7823 27.9254L94.1691 27.4201C93.4025 26.8116 92.4527 26.4805 91.474 26.4802H91.3612C89.8873 26.4802 88.5936 27.2853 87.8743 28.6699C87.86 28.6982 87.8366 28.721 87.808 28.7344C87.7792 28.7479 87.7468 28.7513 87.716 28.744C87.685 28.7368 87.6576 28.7195 87.6377 28.6947C87.6178 28.6699 87.6068 28.6393 87.6065 28.6076V27.0562C87.6065 26.9324 87.5573 26.8137 87.4699 26.7262C87.3823 26.6387 87.2637 26.5896 87.1399 26.5896H83.9007C83.7764 26.5901 83.6573 26.6398 83.5696 26.7278C83.4818 26.816 83.4324 26.9353 83.4324 27.0596V39.8446C83.4324 39.9701 83.4823 40.0905 83.5711 40.1793C83.6598 40.268 83.7803 40.3179 83.9058 40.3179H87.1332C87.2587 40.3179 87.3791 40.268 87.4679 40.1793C87.5567 40.0905 87.6065 39.9701 87.6065 39.8446V32.2174C87.6063 32.0077 87.6474 31.7998 87.7276 31.6059C87.8078 31.4122 87.9254 31.236 88.0738 31.0878C88.222 30.9396 88.3982 30.8216 88.5921 30.7416C88.7858 30.6615 88.9937 30.6204 89.2034 30.6205H90.0203C90.2302 30.6204 90.4381 30.6615 90.632 30.7416C90.8258 30.8218 91.0022 30.9394 91.1506 31.0876C91.299 31.2359 91.4167 31.412 91.4973 31.6059C91.5776 31.7996 91.6189 32.0075 91.6189 32.2174L91.629 39.8463C91.629 39.9084 91.6413 39.9697 91.665 40.0272C91.6888 40.0844 91.7238 40.1365 91.7678 40.1803C91.8117 40.2242 91.864 40.2589 91.9214 40.2825C91.9787 40.3061 92.0403 40.3181 92.1023 40.3179H95.3297C95.4552 40.3179 95.5756 40.268 95.6644 40.1793C95.7532 40.0905 95.803 39.9701 95.803 39.8446V32.2174C95.803 31.7939 95.9713 31.3878 96.2708 31.0883C96.5703 30.7888 96.9764 30.6205 97.3999 30.6205H98.2185C98.4283 30.6204 98.6361 30.6615 98.8298 30.7416C99.0237 30.8218 99.1999 30.9394 99.3481 31.0878C99.4965 31.236 99.6141 31.4122 99.6943 31.6061C99.7745 31.7998 99.8156 32.0077 99.8154 32.2174L99.8272 39.8463C99.8272 39.9714 99.8769 40.0913 99.9653 40.1798C100.054 40.2682 100.174 40.3179 100.299 40.3179H103.528C103.59 40.3179 103.652 40.3056 103.709 40.2819C103.766 40.2581 103.818 40.2231 103.862 40.1791C103.906 40.1351 103.941 40.0829 103.964 40.0256C103.988 39.9682 104 39.9067 104 39.8446V31.8215C104.008 31.1242 103.879 30.4322 103.619 29.7854C103.358 29.1385 102.972 28.5495 102.483 28.0528C101.994 27.556 101.411 27.1613 100.768 26.8913C100.125 26.6215 99.4347 26.4817 98.7374 26.4802ZM60.6402 21.6273L57.6419 18.6289C57.5777 18.5641 57.4955 18.5198 57.406 18.5018C57.3166 18.4836 57.2238 18.4927 57.1394 18.5275C57.055 18.5624 56.9831 18.6215 56.9324 18.6975C56.8818 18.7733 56.8549 18.8627 56.8552 18.954V27.1202C56.855 27.1691 56.8417 27.2173 56.8163 27.259C56.791 27.3012 56.7548 27.3352 56.7115 27.3581C56.6682 27.381 56.6196 27.3916 56.5707 27.3889C56.5219 27.386 56.4745 27.3702 56.4341 27.3426C55.6897 26.8373 54.8069 26.5755 53.9074 26.593H52.0225C51.3233 26.5928 50.631 26.7303 49.985 26.9976C49.339 27.2651 48.752 27.6571 48.2576 28.1515C47.7632 28.6457 47.3709 29.2325 47.1033 29.8785C46.8358 30.5243 46.698 31.2167 46.698 31.9159V35.0119C46.698 35.7111 46.8358 36.4036 47.1033 37.0496C47.3709 37.6955 47.7631 38.2824 48.2574 38.777C48.752 39.2714 49.3389 39.6635 49.9849 39.9311C50.6308 40.1986 51.3233 40.3364 52.0225 40.3364H53.0703C54.5441 40.3364 55.8378 39.5313 56.5571 38.1466C56.5714 38.1183 56.5948 38.0956 56.6234 38.0821C56.6522 38.0688 56.6846 38.0653 56.7154 38.0725C56.7464 38.0798 56.7738 38.0971 56.7937 38.1219C56.8136 38.1466 56.8246 38.1773 56.8249 38.209V39.8665C56.8249 39.9278 56.837 39.9884 56.8604 40.045C56.8838 40.1016 56.9182 40.153 56.9615 40.1964C57.005 40.2397 57.0563 40.2741 57.1129 40.2975C57.1695 40.3209 57.2302 40.3331 57.2915 40.3331H60.5307C60.6547 40.3326 60.7736 40.2832 60.8613 40.1954C60.9491 40.1077 60.9984 39.9888 60.999 39.8648V22.4914C60.9984 22.1673 60.8694 21.8563 60.6402 21.6273ZM50.8552 32.1584C50.8557 31.7351 51.024 31.3292 51.3235 31.0298C51.6228 30.7304 52.0288 30.5621 52.4521 30.5616H55.1354C55.5589 30.5616 55.9651 30.7298 56.2645 31.0293C56.564 31.3288 56.7322 31.735 56.7322 32.1584V34.766C56.7324 34.9758 56.6913 35.1837 56.6111 35.3776C56.5309 35.5715 56.4134 35.7477 56.2652 35.8962C56.1168 36.0446 55.9407 36.1624 55.7468 36.2427C55.553 36.3231 55.3453 36.3645 55.1354 36.3645H52.4521C52.0288 36.364 51.6228 36.1957 51.3235 35.8962C51.024 35.5969 50.8557 35.1909 50.8552 34.7676V32.1584ZM27.3588 26.5997H24.1213C23.9975 26.5997 23.8789 26.6489 23.7913 26.7364C23.7039 26.8239 23.6547 26.9425 23.6547 27.0663V28.7222C23.6544 28.7538 23.6434 28.7845 23.6236 28.8092C23.6038 28.834 23.5762 28.8513 23.5452 28.8586C23.5144 28.8658 23.4821 28.8623 23.4533 28.849C23.4246 28.8355 23.4012 28.8128 23.3869 28.7845C22.6676 27.4032 21.3656 26.5947 19.9001 26.5947H18.8507C17.4389 26.5947 16.0851 27.1556 15.0869 28.1536C14.0886 29.152 13.5278 30.5058 13.5278 31.9176V35.0136C13.5276 35.7128 13.6651 36.4051 13.9326 37.0511C14.1999 37.6971 14.592 38.2841 15.0863 38.7785C15.5805 39.2729 16.1673 39.6652 16.8133 39.9328C17.4591 40.2003 18.1515 40.3381 18.8507 40.3381H19.9001C21.3723 40.3381 22.6676 39.5329 23.3869 38.1483C23.4012 38.12 23.4246 38.0973 23.4533 38.0838C23.4821 38.0705 23.5144 38.067 23.5452 38.0742C23.5762 38.0815 23.6038 38.0988 23.6236 38.1236C23.6434 38.1483 23.6544 38.179 23.6547 38.2107V39.8682C23.6547 39.992 23.7039 40.1105 23.7913 40.1981C23.8789 40.2856 23.9975 40.3347 24.1213 40.3347H27.3588C27.483 40.3347 27.6021 40.2854 27.69 40.1976C27.7777 40.1097 27.8271 39.9906 27.8271 39.8665V27.0647C27.8269 27.0033 27.8146 26.9427 27.7909 26.8861C27.7673 26.8297 27.7328 26.7783 27.6893 26.7352C27.6459 26.6921 27.5941 26.6579 27.5375 26.6346C27.4808 26.6114 27.4201 26.5996 27.3588 26.5997ZM23.5621 34.7744C23.5621 34.9843 23.5208 35.1921 23.4405 35.3862C23.3601 35.58 23.2424 35.7562 23.094 35.9046C22.9454 36.0532 22.7692 36.171 22.5753 36.2513C22.3813 36.3316 22.1734 36.3729 21.9635 36.3729H19.2819C18.8579 36.3729 18.4513 36.2045 18.1516 35.9046C17.8518 35.605 17.6833 35.1984 17.6833 34.7744V32.1584C17.6839 31.7348 17.8525 31.3287 18.1521 31.0292C18.452 30.7297 18.8582 30.5616 19.2819 30.5616H21.9635C22.3872 30.5616 22.7936 30.7298 23.0933 31.0292C23.393 31.3287 23.5616 31.7348 23.5621 32.1584V34.7744ZM39.0422 26.5997H38.7423C37.2701 26.5997 35.9748 27.4032 35.2555 28.7895C35.2412 28.8178 35.2178 28.8406 35.1892 28.854C35.1603 28.8675 35.128 28.8709 35.0972 28.8636C35.0662 28.8564 35.0386 28.8391 35.0189 28.8143C34.999 28.7895 34.988 28.7589 34.9877 28.7272V27.0596C34.9858 26.937 34.936 26.8201 34.8487 26.734C34.7613 26.6481 34.6437 26.5997 34.5211 26.5997H31.2836C31.2221 26.5996 31.161 26.6115 31.1042 26.635C31.0473 26.6585 30.9956 26.6929 30.9519 26.7364C30.9085 26.78 30.8739 26.8317 30.8505 26.8886C30.8271 26.9454 30.8151 27.0065 30.8153 27.068V39.8547C30.8153 39.9798 30.865 40.0998 30.9534 40.1882C31.0419 40.2766 31.1618 40.3263 31.287 40.3263H34.516C34.578 40.3263 34.6394 40.3142 34.6965 40.2904C34.7537 40.2667 34.8058 40.232 34.8496 40.1882C34.8934 40.1444 34.9281 40.0924 34.9518 40.0352C34.9756 39.978 34.9877 39.9167 34.9877 39.8547L34.9995 32.3269C34.9995 31.9034 35.1678 31.4973 35.4673 31.1978C35.7666 30.8983 36.1729 30.73 36.5963 30.73H38.584C39.0073 30.7305 39.4132 30.8988 39.7126 31.1983C40.0121 31.4976 40.1803 31.9036 40.1808 32.3269L40.191 39.8463C40.1915 39.9716 40.2415 40.0915 40.3303 40.1799C40.4189 40.2682 40.539 40.3179 40.6643 40.3179H43.8917C43.9538 40.3181 44.0153 40.3061 44.0728 40.2825C44.13 40.2589 44.1823 40.2242 44.2262 40.1803C44.2702 40.1365 44.3052 40.0844 44.329 40.0272C44.3527 39.9697 44.365 39.9084 44.365 39.8463V31.9159C44.3632 30.5053 43.8016 29.1532 42.8035 28.1563C41.8055 27.1597 40.4527 26.5997 39.0422 26.5997ZM2.73386 23.7935C2.00871 23.794 1.3132 24.0823 0.800619 24.5953C0.288041 25.1082 0 25.8038 0 26.529V38.8507C0 39.2872 0.17333 39.7059 0.481752 40.0147L3.33016 42.8614C3.39922 42.9303 3.48698 42.9773 3.58282 42.9962C3.67833 43.0152 3.77755 43.0054 3.8675 42.9682C3.95778 42.9308 4.03476 42.8676 4.089 42.7866C4.14324 42.7056 4.17221 42.6103 4.17238 42.5127V36.2011C4.17238 36.0792 4.22089 35.9623 4.30714 35.876C4.39338 35.7898 4.51028 35.7412 4.63224 35.7412H9.43291C9.56312 35.7412 9.68996 35.6998 9.79507 35.6228C9.90018 35.546 9.978 35.4375 10.0174 35.3134L10.922 32.4498C10.9466 32.3724 10.9526 32.2903 10.9395 32.2101C10.9265 32.13 10.8947 32.0538 10.8468 31.9883C10.7988 31.9226 10.7362 31.8692 10.6637 31.8323C10.5913 31.7954 10.5113 31.7762 10.4301 31.7761H4.63224C4.57176 31.7762 4.5118 31.7646 4.45604 31.7415C4.40012 31.7184 4.34925 31.6846 4.30663 31.6418C4.26385 31.5992 4.22999 31.5483 4.20691 31.4924C4.18383 31.4365 4.17221 31.3767 4.17238 31.3162V28.1915C4.17238 28.1312 4.18417 28.0714 4.20742 28.0159C4.23049 27.9603 4.26452 27.9096 4.30714 27.867C4.34992 27.8243 4.40062 27.7907 4.45638 27.7677C4.51213 27.7448 4.57193 27.7332 4.63224 27.7334H12C12.1297 27.7334 12.2562 27.6921 12.361 27.6155C12.4658 27.5388 12.5436 27.4309 12.5828 27.3072L13.4941 24.4672C13.5187 24.3897 13.5248 24.3077 13.5116 24.2275C13.4987 24.1474 13.4668 24.0712 13.419 24.0057C13.371 23.94 13.3083 23.8866 13.2359 23.8497C13.1635 23.8128 13.0835 23.7936 13.0023 23.7935H2.73386Z" fill="#161E33"/>
</svg>
