<svg width="232" height="64" viewBox="0 0 232 64" fill="none" xmlns="http://www.w3.org/2000/svg">
<g clip-path="url(#clip0_12375_1497)">
<path d="M18.8123 16.8887C18.6048 19.0225 16.1666 22.1662 13.3031 22.3252C10.3532 22.429 7.22337 19.5447 4.14199 19.6554C2.49582 19.7142 0.576441 20.4093 0.4969 22.4601C0.47615 24.1028 1.83873 24.8567 3.90336 24.8291C5.65674 24.7184 6.04753 24.4936 7.43432 23.6394C6.74266 24.8291 5.37661 25.5795 3.88953 25.7144C1.42373 25.6625 0.223691 24.0752 0.00927404 22.2734C-0.153268 20.1914 1.81798 16.2732 6.14436 16.2766C10.0073 16.2732 13.1129 18.6836 15.302 18.7355C16.841 18.7113 17.7886 17.8674 18.8123 16.8887Z" fill="#161E33"/>
<path d="M14.5719 25.8355C15.4918 25.8458 16.353 26.6689 16.353 27.7894C16.353 28.7993 15.4572 29.5981 14.565 29.5947C13.6243 29.5912 12.2029 28.5606 13.2128 26.9975C13.2128 26.9975 11.7326 27.6649 12.1511 29.363C13.5448 30.4247 15.516 32.0812 15.1287 34.8583C14.693 37.9742 10.0864 38.7281 9.33945 41.4706C8.53019 39.5201 7.29903 38.6036 5.71165 38.6209C3.01069 38.6486 1.41294 40.8204 1.47864 42.4113C1.58931 44.9186 3.20435 45.9768 6.6869 45.8904C9.97578 45.7244 11.9539 44.303 13.2992 42.0966C12.8704 43.6632 11.1447 47.3152 6.46557 47.3705C2.0631 47.3152 0.641727 44.0817 0.589851 41.7404C0.645185 37.3932 4.09661 35.6641 6.4379 35.6364C8.95903 35.6053 10.0311 36.7534 11.5078 38.2855C11.5078 38.2855 12.3171 36.5217 11.3799 34.9171C9.6749 31.9982 6.86328 32.5931 6.21311 28.9791C5.67361 25.9669 9.77865 22.7956 11.0064 22.429C10.0622 23.4146 8.53019 24.504 9.50199 26.9733C9.9239 28.0557 11.6531 28.9272 11.6531 28.9272C11.6254 28.0004 12.4277 25.8043 14.5719 25.8355Z" fill="#161E33"/>
<path d="M17.9368 27.5473L20.1813 24.3726C20.1813 24.3726 21.9589 24.6216 22.903 26.8384L24.7325 24.4452C24.7325 24.4452 26.1089 26.6239 27.9937 24.5766C27.9937 24.5766 27.1083 28.0661 24.8397 28.1664C24.027 28.2009 23.1105 27.5266 23.1105 27.5266L23.107 37.1338C23.107 37.1338 22.948 38.2509 24.5042 38.6002C24.5042 38.6002 22.9514 40.2048 21.8966 41.7715C20.5721 40.1495 18.9882 38.863 18.9882 38.863C18.9882 38.863 19.7179 38.6002 19.7248 37.5315L19.7317 28.1629C19.7317 28.1629 19.5692 26.7035 17.9368 27.5473Z" fill="#161E33"/>
<path fill-rule="evenodd" clip-rule="evenodd" d="M34.1387 24.4729C34.1387 24.4729 31.6452 26.5618 29.4595 27.326C27.758 27.9209 27.803 29.5394 27.803 29.5394L27.8099 38.2959C27.8099 38.2959 27.4053 39.9732 30.8982 41.8718C30.8982 41.8718 31.9011 40.0769 33.3329 38.6175C33.3329 38.6175 33.5646 40.8343 35.8886 41.6989C35.8886 41.6989 36.556 39.8764 38.012 38.7939C37.3549 38.4999 36.4592 38.1472 36.4557 36.7535L36.4315 28.1906C36.4315 28.1906 36.3589 27.8621 37.0091 27.16L34.1387 24.4729ZM31.8631 26.7589C31.1334 27.1082 30.9189 27.786 30.9432 28.4604V36.8365C30.9189 37.5904 31.3754 38.4826 32.1605 38.4826C33.2395 38.4826 33.2464 37.2688 33.2464 37.2688L33.2395 28.5676C33.2395 28.5676 33.3225 27.7307 31.8631 26.7589Z" fill="#161E33"/>
<path d="M41.8826 24.5731C40.7967 26.1432 39.32 27.8862 39.32 27.8862C39.32 27.8862 40.8866 28.0937 40.8244 29.235L40.8451 37.4485C40.8347 38.7073 40.0497 38.7696 40.0497 38.7696C40.0497 38.7696 41.561 40.0042 42.5604 41.8199C42.5604 41.8199 43.6567 39.897 44.8464 38.7316C44.8464 38.7316 44.0441 38.7696 44.0441 37.3621L44.0199 29.2592C44.0406 28.775 44.6666 27.99 45.2095 27.99C46.3197 27.99 46.5306 28.8822 46.5064 29.5877V37.9846C46.4822 39.1224 46.4857 40.2671 48.7059 41.7818C48.7059 41.7818 49.8541 39.942 51.2893 38.7212C51.2893 38.7212 49.7572 38.8768 49.7572 37.1442L49.74 28.6678C49.74 28.6678 49.74 27.5438 50.1446 27.2706C50.1446 27.2706 48.5399 26.0671 47.3018 24.5109L44.1029 28.0695C43.5357 24.9985 41.8826 24.5731 41.8826 24.5731Z" fill="#161E33"/>
<path fill-rule="evenodd" clip-rule="evenodd" d="M59.6306 18.4969C59.3159 18.113 58.894 18.694 58.894 18.694L57.2513 20.7067L57.2374 19.6174C57.2028 18.732 57.5833 17.8294 58.4617 17.1377C58.4617 17.1377 55.9475 16.9129 55.1417 20.0081C55.1417 20.0081 54.1872 19.4168 53.5681 19.4756C53.7618 19.8664 53.7687 20.4543 53.7687 20.4543V25.0608L52.9283 25.0539V26.5375L53.8068 26.5306L53.7895 37.4382C53.7964 38.4411 53.039 38.7247 53.039 38.7247C53.039 38.7247 54.6368 39.8417 55.695 42.0723C55.695 42.0723 56.6149 40.0008 58.9009 38.8595C58.9009 38.8595 57.2582 38.5241 57.2305 37.241L57.2374 26.534L58.6899 26.5375V25.0539L57.2582 25.0573L57.2547 24.8083L59.2709 23.0411C61.3944 20.9488 60.2393 18.86 59.6306 18.4969ZM57.2271 21.1701V24.4417C57.2271 24.4417 59.4508 22.7852 57.2271 21.1701Z" fill="#161E33"/>
<path d="M67.3905 16.4911C67.3905 16.4911 65.9588 20.7587 61.8226 20.9523L61.8364 24.8084H60.837V26.4027L61.8053 26.4061L61.8226 48H62.5143V43.8742C62.5143 43.8742 62.4486 42.0793 63.5552 41.8857L64.5028 41.7439C64.5028 41.7439 65.3121 41.7542 65.2913 40.862L65.274 26.4234L66.9582 26.4131V24.8153L65.3363 24.8084L65.3328 19.9529C65.3328 19.9529 69.4448 23.4354 70.918 16.83C70.918 16.83 69.258 19.5171 67.3905 16.4911Z" fill="#161E33"/>
<path d="M71.0154 24.4798C69.8015 26.3196 68.4458 27.243 68.4458 27.243C68.4458 27.243 69.5525 27.4609 69.5767 28.6886L69.6321 37.9119C69.6355 38.8837 69.0096 39.0843 69.0096 39.0843C70.2304 40.0769 71.7209 41.9547 71.7209 41.9547C71.7209 41.9547 74.2386 38.9391 75.4836 38.154C75.0374 40.3224 77.7695 41.8683 77.7695 41.8683L79.9621 38.8284C79.9621 38.8284 78.7932 38.531 78.7413 37.2618L78.7171 28.5122C78.7413 27.5127 79.3673 27.0251 79.3673 27.0251C77.6865 25.9703 77.1505 24.3172 77.1505 24.3172C76.2548 26.2158 74.657 27.2706 74.657 27.2706C74.657 27.2706 75.3936 27.7583 75.3936 28.4603L75.4109 36.8883C75.4178 37.5384 74.989 38.4584 74.0656 38.4584C73.3083 38.4584 72.9313 37.5384 72.876 37.1338L72.8241 27.8447C72.8241 25.7593 71.0154 24.4798 71.0154 24.4798Z" fill="#161E33"/>
<path d="M81.6288 27.6822L83.8975 24.4971C83.8975 24.4971 85.3604 25.04 86.1039 27.0493L87.4907 24.4659C87.4907 24.4659 88.4522 26.3092 89.8562 24.625C89.8562 24.625 90.0153 28.7335 87.7778 28.7543C86.8717 28.7612 86.2181 27.9243 86.2181 27.9243L86.2146 37.1338C86.2146 37.1338 85.9933 38.9322 88.0579 38.818C88.0579 38.818 86.1766 40.1737 85.2843 41.9029C83.9598 40.2809 82.1338 39.0359 82.1338 39.0359C82.1338 39.0359 83.0018 38.8042 83.0468 37.8013L83.0156 29.2212C83.0156 29.2212 83.1194 27.9208 81.6288 27.6822Z" fill="#161E33"/>
<path d="M91.7655 24.9847L91.0842 24.9778L91.0807 26.662L91.7897 26.6551L91.8277 37.9846C91.8623 38.742 91.2882 39.1224 91.2882 39.1224C91.2882 39.1224 92.5989 40.1391 93.8197 41.6816C95.0924 39.8798 96.8942 38.908 96.8942 38.908C96.8942 38.908 95.0924 38.7143 95.0924 37.6318L95.0682 26.6343L96.8354 26.6447L96.8285 24.9778L95.0924 24.9847L95.0751 19.9632L91.7793 21.1632L91.7655 24.9847Z" fill="#161E33"/>
<path fill-rule="evenodd" clip-rule="evenodd" d="M104.741 24.4072C103.517 25.6557 102.573 25.7248 101.778 26.1433C100.411 26.8661 98.5129 27.3606 98.5302 29.9129L98.5405 37.4763C98.5682 40.6925 101.235 40.9139 102.843 41.7888C103.922 39.7449 106.253 38.0676 106.253 38.0676L105.896 37.8498C105.896 37.8498 105.056 38.7593 103.946 38.7144C101.888 38.6348 101.867 36.4872 101.867 36.4872V33.1948C101.867 33.1948 104.575 32.0398 106.007 30.5216C106.623 29.8645 106.844 29.4253 106.872 28.5053C106.92 26.9214 105.627 25.8459 104.741 24.4072ZM102.255 26.5756C102.255 26.5756 101.84 26.8108 101.867 28.6748L101.864 32.9009C101.864 32.9009 106.239 31.1544 102.255 26.5756Z" fill="#161E33"/>
<path d="M107.525 27.205C108.586 26.368 109.98 24.2723 109.98 24.2723C109.98 24.2723 111.232 24.7219 112.152 26.8972C112.906 25.9185 113.663 24.2481 113.663 24.2481C113.663 24.2481 115.053 26.6724 116.648 24.2446C116.648 24.2446 116.309 28.3462 113.964 28.5675C113.061 28.654 112.238 27.4816 112.238 27.4816V36.8779C112.238 38.4134 114.109 38.6624 114.109 38.6624C114.109 38.6624 112.183 39.7241 111.232 41.6781C109.907 40.0561 108.386 38.8042 108.386 38.8042C108.386 38.8042 108.953 38.6936 108.994 37.6906L109.005 28.7266C109.005 27.0528 107.525 27.205 107.525 27.205Z" fill="#161E33"/>
<path fill-rule="evenodd" clip-rule="evenodd" d="M127.047 21.7339C127.047 21.7339 125.996 22.4533 125.159 22.4533C124.36 22.4533 123.727 21.7581 123.73 21.0492C123.734 20.0117 124.847 19.4895 125.885 19.4895C127.995 19.4895 128.423 22.4152 128.423 22.4152L123.481 36.6186C120.971 36.6463 118.861 39.1052 118.889 42.0759C118.916 45.1538 121.455 47.3464 124.778 47.3256C129.89 47.2945 131.401 42.4563 131.401 42.4563C130.402 43.5076 129.444 45.8489 124.671 45.8282C122.281 45.8178 119.677 44.8322 119.622 42.7537C119.591 41.5917 120.843 40.402 122.347 40.402C124.132 40.402 125.211 41.6436 125.211 41.6436L128.869 37.7322L128.586 37.4209L127.697 38.3028C126.373 36.8642 124.263 36.6359 124.263 36.6359L125.781 32.1885L130.685 32.1954L132.366 39.3196C132.885 41.1871 133.884 40.7029 135.572 41.9617L137.432 38.1818C137.432 38.1818 135.99 38.5657 135.534 36.916L131.595 20.1396C131.595 20.1396 130.803 16.0035 126.777 16C124.464 16 122.378 17.5701 122.378 19.9771C122.378 21.5264 123.644 22.8959 125.183 22.8959C126.4 22.8959 127.047 21.7339 127.047 21.7339ZM128.721 23.6602L126.213 30.9988L130.405 31.0092L128.721 23.6602Z" fill="#161E33"/>
<path d="M138.912 37.4313C138.947 38.1921 137.854 38.5379 137.854 38.5379C137.854 38.5379 139.397 39.9697 140.725 41.896C141.797 39.7345 143.585 38.8077 143.585 38.8077C143.585 38.8077 142.27 38.7143 142.27 37.6318V17.7602L138.912 19.358V37.4313Z" fill="#161E33"/>
<path d="M146.183 37.3379C146.179 38.2128 145.46 38.652 145.46 38.652C145.46 38.652 146.961 40.1599 148.057 41.9236C149.178 39.6446 150.98 38.7938 150.98 38.7938C150.98 38.7938 149.53 38.7143 149.53 37.6318V17.4628L146.183 19.3649V37.3379Z" fill="#161E33"/>
<path fill-rule="evenodd" clip-rule="evenodd" d="M159.718 24.21C155.897 26.9663 153.265 26.2712 153.234 28.896L153.265 38.2301C153.258 39.942 154.634 40.8619 156.118 41.8371L158.808 38.6451L158.815 40.4123C158.795 42.4838 160.334 42.3732 160.309 44.3721C160.292 45.8592 159.113 46.5681 157.93 46.5612C155.831 46.5508 155.302 45.3612 155.302 45.3612C155.302 45.3612 155.336 45.5341 155.869 45.5237C156.903 45.503 157.553 44.9151 157.55 43.9225C157.543 42.9715 156.796 42.3213 155.865 42.3386C154.883 42.3559 154.164 43.1029 154.167 43.9363C154.174 45.2643 154.959 47.0212 158.165 47.0073C161.361 46.997 163.546 44.59 163.546 42.7017C163.546 41.2285 162.17 40.8826 162.17 39.1742L162.087 27.7617C162.08 27.0804 162.654 26.5271 162.654 26.5271C160.911 25.5449 159.718 24.21 159.718 24.21ZM158.774 28.0107L157.1 26.3127C157.1 26.3127 156.554 26.6343 156.55 28.0176L156.567 37.2133C156.616 38.192 156.955 38.6174 157.768 38.5932C158.521 38.569 158.791 38.1609 158.791 37.1407L158.774 28.0107Z" fill="#161E33"/>
<path fill-rule="evenodd" clip-rule="evenodd" d="M172.078 24.1997C171.19 24.9017 169.409 25.8804 168.561 26.1744C165.535 27.2326 165.497 27.6476 165.497 29.9128L165.501 37.6145C165.501 41.066 168.184 40.5541 169.91 41.7991C170.294 40.0769 172.694 38.0607 172.694 38.0607L172.559 37.9085C172.559 37.9085 171.916 38.4584 170.806 38.4134C168.748 38.3339 168.776 36.4871 168.776 36.4871V33.4991C168.776 33.4991 171.155 32.1538 172.791 30.6114C173.444 29.9958 173.628 29.4252 173.655 28.5053C173.704 26.9214 172.808 26.5444 172.078 24.1997ZM169.222 26.3819C169.222 26.3819 168.748 26.8107 168.776 28.6747L168.772 33.1464C168.772 33.1464 172.86 31.7354 169.222 26.3819Z" fill="#161E33"/>
<path d="M177.48 24.1824L174.81 27.3606C174.81 27.3606 176.366 27.4678 176.366 28.5537L176.408 37.4658C176.39 38.6348 175.889 38.9045 175.889 38.9045C175.889 38.9045 177.207 40.0665 178.241 41.8337C178.995 40.1219 180.537 38.7143 180.537 38.7143C180.537 38.7143 179.845 38.1091 179.814 37.248L179.786 29.152C179.928 28.405 180.409 28.028 180.872 28.0108C181.457 27.9935 181.931 28.4603 181.962 29.0448L182.017 37.4209C182.017 38.2198 181.523 38.6071 181.523 38.6071C181.523 38.6071 182.757 40.153 183.608 41.9098C184.542 39.8417 186.07 38.7039 186.07 38.7039C186.07 38.7039 185.247 38.0607 185.247 36.9506L185.223 28.8546C185.354 28.1353 185.704 27.8378 186.254 27.741C186.817 27.6407 187.312 28.073 187.419 28.6367L187.488 38.4584C187.488 40.0769 188.84 40.8619 190.248 41.7127C190.891 39.8901 192.51 38.4618 192.51 38.4618C192.51 38.4618 190.677 38.6555 190.677 36.9713L190.632 27.7687C190.653 27.0078 191.279 26.5721 191.279 26.5721C189.567 25.8113 188.204 24.2066 188.204 24.2066L185.164 27.9105C185.303 25.9738 183.048 24.2619 183.048 24.2619L179.759 28.2598C179.517 24.836 177.48 24.1824 177.48 24.1824Z" fill="#161E33"/>
<path fill-rule="evenodd" clip-rule="evenodd" d="M200.482 24.1617C195.81 27.7583 194.43 27.1912 194.43 28.9895L194.433 38.5103C194.433 40.6164 196.221 40.568 197.944 41.813C198.756 40.2671 200.299 38.9737 201.644 38.0296L201.478 37.8498C201.478 37.8498 200.714 38.4654 199.6 38.4446C197.325 38.4031 197.57 36.4872 197.57 36.4872L197.574 33.4369C197.574 33.4369 199.351 32.4859 201.053 31.0023C201.731 30.4109 202.225 29.4633 202.267 28.5399C202.35 26.8384 201.319 26.4303 200.482 24.1617ZM197.674 26.541C197.674 26.541 197.546 26.8108 197.57 28.6748L197.567 33.0254C198.054 32.728 201.402 30.9988 197.674 26.541Z" fill="#161E33"/>
<path fill-rule="evenodd" clip-rule="evenodd" d="M231.15 24.0475C228.345 26.911 224.804 26.7035 224.745 29.5393L224.763 38.5103C224.832 40.1945 226.326 40.5196 228.052 41.7646C229.438 39.7241 231.136 38.7489 232.478 37.8048L232.312 37.6249C232.312 37.6249 230.963 38.6797 229.85 38.659C227.574 38.6175 227.899 36.4871 227.899 36.4871V33.1948C227.899 33.1948 229.348 32.4893 231.382 31.0333C232.112 30.5077 232.758 29.7503 232.803 28.8304C232.883 27.1289 232.008 26.911 231.15 24.0475ZM228.259 26.4061C228.259 26.4061 227.872 26.8107 227.899 28.6748L227.896 32.8697C229.85 32.019 230.856 28.7681 228.259 26.4061Z" fill="#161E33"/>
<path d="M213.084 24.2827L210.867 27.2361C210.867 27.2361 212.523 27.4713 212.461 28.6229L212.492 37.6249C212.523 38.0399 211.901 38.6313 211.901 38.6313C211.901 38.6313 213.322 40.1391 213.879 41.7058C214.944 40.0492 216.48 38.6313 216.48 38.6313C216.48 38.6313 215.653 38.1886 215.653 37.331V29.1831C215.888 28.4742 216.331 28.0038 216.891 27.9727C217.424 27.945 218.043 28.4465 217.984 29.0068L218.012 37.8912C218.012 40.6683 220.464 41.6435 220.464 41.6435L222.563 38.6002C222.563 38.6002 221.2 38.6002 221.173 37.5661L221.142 28.0868C221.232 27.2361 221.705 26.7934 221.705 26.7934C220.083 26.1433 218.959 24.6354 218.959 24.6354L215.743 28.1802C215.595 24.9605 213.084 24.2827 213.084 24.2827Z" fill="#161E33"/>
<path d="M206.354 24.3138C205.468 25.6418 203.58 27.032 203.58 27.032C203.58 27.032 204.877 27.2153 204.877 28.3047V37.5073C204.905 38.2751 204.137 38.7489 204.137 38.7489C204.137 38.7489 205.468 40.1668 206.322 41.7058C207.357 40.108 208.778 38.7178 208.778 38.7178C208.778 38.7178 208.034 38.2474 208.065 37.4797L208.038 28.239C208.065 27.3813 208.747 26.9421 208.747 26.9421C207.478 25.9081 206.354 24.3138 206.354 24.3138Z" fill="#161E33"/>
<path d="M204.586 19.2646C204.586 18.2548 205.406 17.4352 206.416 17.4352C207.426 17.4352 208.245 18.2548 208.245 19.2646C208.245 20.2745 207.426 21.0941 206.416 21.0941C205.406 21.0941 204.586 20.2745 204.586 19.2646Z" fill="#161E33"/>
</g>
<defs>
<clipPath id="clip0_12375_1497">
<rect width="232" height="64" fill="white"/>
</clipPath>
</defs>
</svg>
