<svg width="120" height="64" viewBox="0 0 120 64" fill="none" xmlns="http://www.w3.org/2000/svg">
<g clip-path="url(#clip0_662_1870)">
<path fill-rule="evenodd" clip-rule="evenodd" d="M119.947 20.8992L119.946 20.9019C119.968 20.9743 119.95 21.014 119.892 21.0276C118.724 21.0325 117.554 21.0282 116.384 21.0239L116.384 21.0239C115.583 21.021 114.783 21.0181 113.983 21.0181C113.585 21.0181 113.187 21.0185 112.789 21.019L112.789 21.019C111.993 21.0199 111.199 21.0208 110.405 21.0181C107.88 21.0208 105.356 21.0199 102.833 21.019H102.833H102.832C101.57 21.0185 100.309 21.0181 99.0484 21.0181C99.0273 21.0181 99.0063 21.0184 98.9855 21.0188C98.91 21.0202 98.8364 21.0215 98.7627 21.0044L98.7315 21.0181C97.3387 21.0208 95.9483 21.0199 94.5575 21.019H94.5573H94.557C93.8613 21.0185 93.1656 21.0181 92.4694 21.0181C91.6316 21.0319 90.7958 21.0307 89.9598 21.0295H89.9597C89.3934 21.0287 88.8272 21.0279 88.2602 21.0317C88.2376 21.0247 88.22 21.0211 88.2063 21.0182C88.1884 21.0146 88.1772 21.0122 88.1702 21.0056C88.1582 20.9942 88.1582 20.9704 88.1582 20.9062V20.906C88.1582 20.7745 88.2542 20.6639 88.3607 20.5986C88.6975 20.3817 89.0281 20.154 89.3589 19.9262L89.3589 19.9262L89.3592 19.926C89.6128 19.7513 89.8638 19.5733 90.1234 19.3893C90.239 19.3073 90.3562 19.2242 90.4762 19.1396C90.741 18.9527 91.0117 18.7729 91.2821 18.5932L91.2821 18.5931C91.427 18.4969 91.5718 18.4007 91.7155 18.3035C91.8266 18.2314 91.9377 18.1566 92.0313 18.0629C92.0146 18.029 91.9987 17.9938 91.9827 17.9583L91.9826 17.958C91.9089 17.7943 91.8324 17.6243 91.6559 17.5548C91.4658 17.4779 91.2708 17.4163 91.0762 17.3547C91.0276 17.3394 90.9726 17.3262 90.9155 17.3126C90.7006 17.2612 90.4578 17.2032 90.4342 16.9974L90.4407 16.9877L90.4407 16.9877C90.4782 16.9315 90.5186 16.8709 90.5907 16.858C90.8766 16.7482 91.1636 16.6404 91.4506 16.5326L91.4508 16.5326L91.4518 16.5322C91.7392 16.4243 92.0266 16.3163 92.313 16.2064C92.3501 16.1977 92.3865 16.1854 92.4226 16.1731L92.4227 16.1731C92.4831 16.1526 92.5428 16.1324 92.6041 16.1299H115.465C115.644 16.1572 115.827 16.2023 115.993 16.2829C116.2 16.3596 116.408 16.438 116.615 16.5166C116.94 16.6393 117.266 16.7624 117.594 16.8799C117.732 16.9797 117.568 17.1706 117.407 17.2268C117.292 17.2668 117.176 17.3046 117.06 17.3423C116.856 17.4086 116.653 17.4749 116.454 17.5534C116.074 17.703 116.074 17.886 116.074 18.0562C116.174 18.1563 116.289 18.2317 116.404 18.3068C116.815 18.5751 117.225 18.8546 117.635 19.1382C117.949 19.3551 118.239 19.5621 118.523 19.7645C118.8 19.9621 119.07 20.1551 119.35 20.3484C119.413 20.3918 119.484 20.4277 119.554 20.4634C119.746 20.561 119.934 20.6566 119.947 20.8992ZM97.2581 19.38C97.7451 19.4975 98.2771 19.0835 98.273 18.5767H98.2744C98.3152 18.0603 97.7655 17.6204 97.2731 17.7365C97.0173 17.7952 96.7765 17.966 96.6867 18.2174C96.5616 18.477 96.5969 18.7966 96.7534 19.0344C96.8731 19.2092 97.0609 19.3131 97.2581 19.38ZM110.05 19.1163C110.309 19.3896 110.739 19.4797 111.079 19.2912C111.464 19.089 111.616 18.5685 111.419 18.1819C111.321 17.9578 111.098 17.8089 110.869 17.742C110.564 17.6613 110.238 17.7911 110.033 18.0207C109.769 18.3212 109.786 18.8158 110.05 19.1163ZM21.707 24.9172C22.356 24.8188 23.1015 24.7573 23.6511 25.1631C23.9939 25.4213 24.1164 25.8871 24.0919 26.3052C24.1164 26.9924 23.798 27.7301 23.1872 28.0853C22.6484 28.3804 22.0009 28.405 21.4023 28.3435C20.9982 28.2944 20.5956 28.073 20.3874 27.7055C19.9221 26.6372 20.4976 25.1262 21.7084 24.9172H21.707ZM2.31212 25.6918C2.34885 25.3229 2.67944 24.9923 3.05764 25.0046C3.9978 25.0046 4.93646 25.006 5.87411 25.0073H5.87502H5.87592H5.87682H5.87772H5.87862H5.87952H5.88043H5.88133H5.88224H5.8828H5.88286H5.88293H5.883H5.88306H5.88313H5.88319H5.88326H5.88333C7.76065 25.0101 9.63396 25.0128 11.5073 25.0046C11.8134 24.98 12.1426 25.1152 12.2895 25.3858C12.438 25.6488 12.3871 25.93 12.3369 26.2079C12.3166 26.3196 12.2965 26.4309 12.2895 26.5402C12.2757 26.6234 12.2647 26.7111 12.2535 26.8006C12.1955 27.2649 12.1316 27.7756 11.6297 27.9405C10.4214 27.9767 9.21302 27.9703 8.0044 27.9639H8.00436H8.00432H8.00428H8.00424H8.00419H8.00415H8.00411H8.00406H8.00402C7.15805 27.9595 6.31194 27.955 5.4656 27.9651C5.37623 28.559 5.28942 29.1504 5.20283 29.7402L5.20281 29.7403C5.09958 30.4435 4.99667 31.1445 4.89013 31.8451C4.89013 31.8697 4.8932 31.9096 4.89626 31.9496C4.89932 31.9896 4.90238 32.0295 4.90238 32.0541C5.65471 32.048 6.4067 32.048 7.15869 32.048C7.91066 32.048 8.66262 32.048 9.41492 32.0418C9.83121 32.0172 10.2706 32.3738 10.2339 32.8151C10.2111 33.0969 10.1649 33.3734 10.1185 33.6512L10.1185 33.6513C10.0899 33.8219 10.0613 33.9931 10.038 34.1662C9.98902 34.4736 9.74415 34.7551 9.42581 34.8165C8.7076 34.8323 7.98515 34.8278 7.2622 34.8233C6.29803 34.8173 5.33296 34.8113 4.37589 34.8534C4.22429 35.8968 4.05717 36.9407 3.89007 37.9845C3.76026 38.7953 3.63046 39.606 3.50794 40.4165C3.47121 40.7854 3.17735 41.1037 2.8114 41.116C2.11486 41.1283 1.41696 41.1283 0.72042 41.116C0.267397 41.1283 -0.0985588 40.6242 0.0238798 40.1952C0.711641 35.7392 1.41901 31.2947 2.12794 26.8405L2.12796 26.8404L2.31076 25.6918H2.31212ZM15.9583 25.0036H15.9582H15.9582H15.9582H15.9582H15.9582H15.9582H15.9582H15.9582C15.5498 25.0001 15.1398 24.9965 14.7354 25.0278H14.734C14.4171 25.077 14.1722 25.3584 14.1354 25.6658C13.4756 29.8545 12.8267 34.0296 12.1791 38.2047C12.069 38.9902 12.1057 39.8741 12.6431 40.5012C13.3886 41.3605 14.6483 41.5081 15.6877 41.3114C15.728 41.3 15.7698 41.2886 15.8126 41.2769L15.8129 41.2768L15.813 41.2768C16.2783 41.15 16.8649 40.9902 16.8985 40.4274C16.9086 40.2988 16.9261 40.1694 16.9437 40.0398C16.9899 39.6987 17.0362 39.3568 16.9475 39.0271C16.8485 38.742 16.5904 38.6603 16.3356 38.5795C16.0861 38.5005 15.8398 38.4225 15.7489 38.1555C15.6152 37.701 15.6888 37.2292 15.7594 36.7774C15.7728 36.6913 15.7861 36.6059 15.7979 36.5215C16.055 34.876 16.3148 33.2305 16.5747 31.5851C16.8345 29.9394 17.0944 28.2937 17.3515 26.6481C17.3649 26.5317 17.3847 26.4155 17.4046 26.2993C17.4393 26.0964 17.4739 25.8937 17.4739 25.6904C17.4372 25.286 17.0468 24.9786 16.655 25.0032C16.4241 25.0077 16.1914 25.0056 15.9583 25.0036ZM39.011 25.6918C39.0477 25.3229 39.3783 25.0046 39.7443 25.0046H41.6026C42.0665 24.9923 42.4461 25.4964 42.3359 25.9377C42.1219 27.2993 41.9052 28.6607 41.6885 30.022L41.6876 30.0274C41.4707 31.3905 41.2537 32.7536 41.0394 34.117C41.687 34.0187 42.4216 33.8957 42.8733 33.3684C43.631 32.509 44.2555 31.5145 44.7194 30.4707C44.7481 30.3975 44.7744 30.3184 44.8013 30.2374C44.9237 29.8693 45.0589 29.4628 45.4894 29.4023C46.1859 29.3777 46.896 29.39 47.5926 29.4023C48.0701 29.39 48.4238 29.9297 48.2646 30.3723C48.081 31.024 47.7749 31.6251 47.4579 32.2016C46.7491 33.3561 45.9655 34.4982 44.9384 35.4067C45.2282 36.2789 45.5675 37.136 45.9058 37.9905C46.0964 38.4718 46.2866 38.9523 46.4675 39.4342C46.4991 39.5293 46.5402 39.6277 46.5821 39.7278L46.5821 39.7279C46.7353 40.0942 46.8985 40.4844 46.6389 40.8223C46.3696 41.1878 45.9344 41.1646 45.5162 41.1422C45.3452 41.1331 45.177 41.1241 45.0241 41.142C44.8743 41.1252 44.7062 41.134 44.5346 41.143C44.077 41.1671 43.5952 41.1923 43.3725 40.7362C43.0996 40.1012 42.849 39.4582 42.5983 38.8148L42.5982 38.8148L42.5982 38.8147L42.5982 38.8147L42.5982 38.8147L42.5982 38.8147L42.5982 38.8146L42.5982 38.8146C42.3203 38.1015 42.0422 37.3879 41.7332 36.6841C41.3904 36.6964 41.0367 36.7087 40.6939 36.6718L40.5959 36.8685C40.4123 38.0964 40.2165 39.3242 40.0206 40.552L40.0204 40.5531C39.947 40.8482 39.7143 41.1051 39.3974 41.1297C38.9119 41.1481 38.4188 41.1458 37.9244 41.1435H37.9243H37.9243H37.9243H37.9242H37.9242H37.9242H37.9241L37.9234 41.1435C37.7586 41.1427 37.5937 41.142 37.4288 41.142C37.1472 41.142 36.8915 40.9575 36.769 40.7116C36.6656 40.5039 36.7019 40.2709 36.7379 40.0405C36.7445 39.9981 36.7511 39.9558 36.7568 39.9138C37.5145 35.1731 38.2614 30.4324 39.0069 25.6931L39.011 25.6918ZM73.7529 26.4637C73.4115 26.4514 73.0809 26.685 72.9952 27.0293V27.0265C72.829 27.5551 72.6736 28.0888 72.5177 28.6241L72.5173 28.6257L72.5169 28.6269L72.5167 28.6275L72.5165 28.6281L72.5164 28.6288C72.4443 28.8764 72.3721 29.1243 72.2986 29.3723C72.1516 29.3913 72.0011 29.3882 71.8513 29.3852C71.6143 29.3803 71.3789 29.3755 71.1613 29.4583C70.7961 29.6417 70.7419 30.0352 70.6923 30.3955C70.682 30.4701 70.6719 30.5432 70.6593 30.6128C70.651 30.6778 70.6397 30.745 70.6283 30.8133L70.6283 30.8135C70.573 31.1447 70.5137 31.5001 70.7573 31.7549C70.9918 32.0353 71.3576 32.019 71.6803 32.0046C71.7113 32.0033 71.742 32.0019 71.7721 32.0008C71.6492 33.1178 71.4694 34.2275 71.2898 35.336C71.1476 36.2137 71.0056 37.0906 70.892 37.9697C70.794 39.0011 70.9409 40.217 71.8579 40.8428C72.8482 41.4944 74.1325 41.4944 75.2453 41.1993C75.2699 41.1927 75.2949 41.1861 75.3202 41.1796L75.375 41.1655L75.3752 41.1654C75.7548 41.0681 76.1898 40.9565 76.3214 40.549C76.3841 40.2894 76.4117 40.0252 76.4395 39.7591L76.4395 39.7589L76.4395 39.7586C76.4551 39.6091 76.4708 39.4589 76.4928 39.3085C76.5541 38.941 76.3228 38.5353 75.9555 38.4246C75.8335 38.4117 75.704 38.4123 75.5734 38.413C75.2059 38.4148 74.8294 38.4166 74.5855 38.1172C74.3651 37.7852 74.3896 37.3563 74.4263 36.9751C74.5182 36.3838 74.6118 35.7925 74.7054 35.2012C74.8725 34.1464 75.0394 33.0918 75.1964 32.0377C75.5151 32.0036 75.8338 32.0073 76.1548 32.0111C76.4121 32.0142 76.6708 32.0172 76.9323 32.0008C77.237 31.953 77.5064 31.6948 77.5676 31.3751C77.5982 31.1845 77.6349 30.9973 77.6716 30.8102L77.6718 30.8095C77.7085 30.6226 77.7451 30.4356 77.7757 30.2453C77.8492 29.8286 77.4955 29.3859 77.0669 29.3859C76.7482 29.3777 76.4246 29.3805 76.1026 29.3832C75.9423 29.3846 75.7823 29.3859 75.6235 29.3859C75.6507 28.9973 75.7157 28.6083 75.7807 28.2193L75.7808 28.2191C75.8328 27.908 75.8847 27.5969 75.9174 27.2861C75.9664 26.894 75.6494 26.4882 75.2453 26.476C74.9582 26.4619 74.6715 26.4639 74.387 26.4659C74.1742 26.4674 73.9626 26.4689 73.7529 26.4637ZM66.0853 31.009C66.8553 30.2357 67.7858 29.5963 68.8497 29.278C69.315 29.069 69.9135 29.4624 69.9013 29.9775C69.8492 30.3879 69.7699 30.7943 69.691 31.1988L69.6909 31.1988L69.6909 31.1989L69.6909 31.199L69.6909 31.1991L69.6909 31.1991C69.64 31.4597 69.5894 31.7194 69.5462 31.9789C69.4973 32.3109 69.2156 32.5937 68.8851 32.6292C67.6865 32.8383 66.6471 33.5624 65.8159 34.4217C65.7685 34.4805 65.7159 34.5388 65.6627 34.5978C65.4823 34.7977 65.2936 35.0068 65.2663 35.281C65.0318 36.8487 64.7871 38.4175 64.5425 39.9853L64.4718 40.4384C64.4351 40.8072 64.1168 41.1624 63.7386 41.1379H61.8802C61.4517 41.1624 61.0735 40.7321 61.1224 40.3031L61.4054 38.5132C61.8485 35.7113 62.2907 32.9148 62.7237 30.11C62.7482 29.7657 62.993 29.4351 63.3468 29.3982C63.6859 29.3798 64.0243 29.3821 64.3682 29.3844L64.3685 29.3844C64.4838 29.3852 64.5998 29.3859 64.7167 29.3859C65.084 29.3859 65.4255 29.7179 65.4255 30.0977C65.4255 30.397 65.4097 30.7007 65.3938 31.0063L65.3938 31.0067L65.3938 31.0071C65.3817 31.2397 65.3696 31.4734 65.3643 31.7071C65.5471 31.5923 65.6873 31.4347 65.8257 31.2791C65.9098 31.1845 65.9933 31.0907 66.0853 31.0076V31.009ZM21.6289 29.3873C21.2087 29.3758 20.7859 29.3642 20.3732 29.4488V29.4501C20.0059 29.5977 19.9079 30.0144 19.8834 30.3709C19.6202 32.0103 19.3634 33.6466 19.1067 35.2828C18.8499 36.9193 18.5931 38.5557 18.3298 40.1952C18.221 40.6009 18.5257 41.0791 18.942 41.1283C19.4463 41.1467 19.9444 41.1444 20.4405 41.1421L20.4412 41.1421C20.606 41.1413 20.7706 41.1406 20.9351 41.1406C21.3133 41.1529 21.6071 40.7977 21.6438 40.4411C22.1336 37.2838 22.6342 34.128 23.1362 30.9721C23.147 30.8752 23.1629 30.7785 23.1788 30.6815C23.2176 30.446 23.2566 30.209 23.2219 29.9652C23.1607 29.584 22.758 29.3381 22.3785 29.3873C22.1313 29.4011 21.8806 29.3942 21.6289 29.3873ZM59.9468 29.6086C58.1252 29.2643 56.2654 29.0184 54.4193 29.2029C52.7678 29.4119 51.1053 30.1606 50.0905 31.524C48.6838 33.3165 48.2076 35.7237 48.5246 37.9587C48.696 39.0271 49.1599 40.1078 50.0292 40.7704C50.836 41.3961 51.9243 41.4821 52.9025 41.3223C54.2724 41.0518 55.4342 40.1679 56.3879 39.1856C56.4147 39.4144 56.3975 39.6428 56.3804 39.8692C56.3663 40.0565 56.3523 40.2424 56.3634 40.4261C56.3879 40.8059 56.7307 41.1625 57.1089 41.1379H58.3564C58.7237 41.1379 59.0285 40.7936 59.053 40.4384L59.1338 39.9276L59.1341 39.9253L59.1361 39.9129L59.1371 39.9066C59.6354 36.7571 60.132 33.618 60.6188 30.4789C60.6923 30.0608 60.3617 29.6564 59.9468 29.6073V29.6086ZM56.5103 35.3931C56.0206 36.3139 55.3363 37.15 54.5663 37.8617C54.1255 38.2306 53.5636 38.6104 52.965 38.4875C52.3773 38.3645 52.0971 37.7511 51.9624 37.2224C51.6563 35.8466 51.9379 34.3479 52.7079 33.158C53.0508 32.6047 53.6004 32.188 54.237 32.0158C55.1295 31.7945 56.0709 31.9052 56.9402 32.1511L56.9892 32.2003C56.9169 32.9013 56.8024 33.5971 56.6876 34.2945L56.6876 34.2946L56.6876 34.2947L56.6876 34.2948L56.6875 34.2951L56.6875 34.2953L56.6875 34.2955C56.6274 34.6606 56.5672 35.0261 56.513 35.3931H56.5103ZM34.7418 30.1114C35.5975 31.0322 35.9281 32.3219 35.9404 33.5501V33.5487C36.0138 35.7114 35.3295 37.9342 33.8616 39.5422C32.0631 41.3728 29.2634 41.6925 26.8541 41.2253C26.7316 42.3182 26.5969 43.3989 26.401 44.4795C26.3868 44.5552 26.3753 44.6355 26.3635 44.7176C26.3046 45.1293 26.2394 45.5847 25.7902 45.7077C25.3303 45.7751 24.8584 45.7675 24.387 45.76H24.387H24.3869C24.1694 45.7565 23.952 45.753 23.736 45.7569C23.272 45.7692 22.8802 45.3034 22.9904 44.8484C23.3752 42.3934 23.7634 39.9387 24.1516 37.4841L24.1522 37.48L24.1523 37.4794L24.1524 37.4787C24.5408 35.0231 24.9291 32.5674 25.314 30.1114C25.3385 29.7316 25.6555 29.3873 26.0473 29.3873H27.2948C27.6608 29.3873 28.0159 29.7179 28.0036 30.0991C28.0106 30.3389 28.0015 30.5742 27.9925 30.8079V30.8079V30.8079C27.9858 30.9816 27.9791 31.1543 27.9791 31.3273C28.1275 31.2425 28.2434 31.1158 28.3599 30.9884L28.3599 30.9884L28.3599 30.9884L28.36 30.9884C28.4443 30.8962 28.529 30.8036 28.6267 30.7262C29.6661 29.7931 30.9993 29.0922 32.4182 29.1414C33.2739 29.1291 34.1555 29.4611 34.7418 30.1114ZM31.2564 37.885C32.0386 37.0625 32.4427 35.9204 32.5162 34.7906L32.5175 34.7919C32.5665 33.9695 32.5175 33.0596 31.9788 32.3847C31.6604 31.979 31.0619 31.9298 30.6211 32.1388C29.4348 32.7645 28.6022 33.9066 27.9179 35.0365C27.7706 35.6716 27.6765 36.3156 27.5823 36.9605L27.5822 36.9606L27.5822 36.9606L27.5822 36.9607C27.5198 37.388 27.4573 37.8158 27.3792 38.2415C27.3914 38.2784 27.4282 38.3522 27.4526 38.3891C28.7002 38.7197 30.2415 38.855 31.2564 37.885ZM119.948 21.4293C119.965 21.4743 119.979 21.5194 119.992 21.5645L119.991 21.5618C119.995 25.3587 119.995 29.1559 119.994 32.9532C119.994 37.4207 119.993 41.8882 120.001 46.3553C120.021 47 119.627 47.4961 119.381 47.6354C119.135 47.7748 118.52 47.8062 118.239 47.7966C116.488 47.7939 114.737 47.7948 112.988 47.7957C112.114 47.7962 111.24 47.7966 110.366 47.7966C110.217 47.7932 110.068 47.7943 109.918 47.7955C109.715 47.7971 109.511 47.7987 109.306 47.7884C109.306 47.7474 109.312 47.6709 109.316 47.6354C109.408 47.122 109.499 46.6086 109.591 46.0956C109.694 45.5138 109.797 44.9326 109.902 44.3525C109.945 44.131 109.983 43.9084 110.021 43.6861C110.079 43.3463 110.138 43.0071 110.211 42.6734C110.712 42.6789 111.213 42.6771 111.714 42.6753C111.964 42.6743 112.215 42.6734 112.465 42.6734C112.499 42.6734 112.533 42.6738 112.567 42.6742C112.762 42.6764 112.958 42.6787 113.141 42.6065C113.345 42.5409 113.524 42.4207 113.673 42.2718C113.827 42.1188 113.952 41.9343 114.045 41.7403C114.264 41.2909 114.379 40.8059 114.451 40.3168C114.51 39.8823 114.549 39.4151 114.371 39.0011C114.232 38.6773 113.884 38.4888 113.544 38.4888C113.056 38.4841 112.567 38.4848 112.08 38.4855C111.714 38.486 111.349 38.4865 110.985 38.4847C111.047 38.1077 111.116 37.732 111.185 37.357C111.252 36.9943 111.319 36.6322 111.378 36.2701C111.535 35.4436 111.816 34.6184 112.348 33.9531C112.545 33.7031 112.785 33.4899 113.049 33.3137C113.39 33.0856 113.774 32.9202 114.174 32.8342C114.598 32.7307 115.032 32.729 115.467 32.7273C115.916 32.7256 116.365 32.7239 116.804 32.6101C116.94 32.5705 117.08 32.5172 117.198 32.438C117.285 32.3792 117.363 32.3055 117.416 32.2098C117.525 32.0223 117.515 31.7993 117.505 31.5868C117.503 31.5392 117.501 31.4921 117.5 31.4461C117.402 30.8218 117.285 30.2015 117.08 29.6045C116.986 29.3531 116.859 29.1018 116.65 28.931C116.395 28.711 116.065 28.6209 115.742 28.5444C115.25 28.4815 114.749 28.4678 114.253 28.5129C112.724 28.5853 111.184 28.9624 109.856 29.7439C108.434 30.5786 107.266 31.8369 106.528 33.3192C106.059 34.24 105.754 35.2373 105.562 36.2483C105.508 36.5338 105.455 36.819 105.402 37.1043C105.319 37.5466 105.236 37.9887 105.151 38.4314C105.144 38.4888 105.09 38.4886 105.04 38.4883C105.024 38.4882 105.008 38.4881 104.995 38.4902L104.992 38.4902C103.308 38.4861 101.626 38.482 99.9411 38.4902C99.1299 38.5694 98.3172 38.6588 97.5052 38.7481C96.9866 38.8051 96.4684 38.8621 95.9509 38.9164L95.9156 38.9301C95.8938 38.9328 95.8707 38.9342 95.8489 38.9369C95.7671 38.9455 95.6852 38.9538 95.6032 38.962C95.3454 38.988 95.0869 39.014 94.8299 39.0503C94.7741 39.0571 94.7197 39.064 94.664 39.0735C95.6648 39.2392 96.6678 39.3873 97.6713 39.5354C98.2732 39.6242 98.8753 39.7131 99.4772 39.8058C99.5431 39.9452 99.5851 40.1012 99.6272 40.2571C99.6502 40.3426 99.6733 40.428 99.7003 40.5108C99.6061 40.5134 99.5125 40.5237 99.4187 40.534C99.3648 40.54 99.3109 40.5459 99.2568 40.5504C99.2364 40.5531 99.216 40.5558 99.1955 40.5558C99.1751 40.5572 99.1551 40.5589 99.135 40.5606C99.115 40.5623 99.0949 40.564 99.0745 40.5654C98.654 40.597 98.2345 40.6314 97.8145 40.6658C97.5252 40.6896 97.2356 40.7133 96.9454 40.7362C96.924 40.7386 96.9015 40.7384 96.8788 40.7382C96.8251 40.7377 96.7703 40.7371 96.7264 40.7717C97.6256 40.8964 98.5261 41.0257 99.4289 41.1555L99.6295 41.1843C99.6478 41.1874 99.6683 41.1887 99.6896 41.19C99.7618 41.1944 99.8421 41.1994 99.8662 41.2786C99.8766 41.3275 99.8867 41.3765 99.8967 41.4255C99.9208 41.5431 99.9449 41.6605 99.9737 41.7772C99.7686 41.799 99.5613 41.8071 99.3538 41.8151C99.132 41.8238 98.9102 41.8324 98.6908 41.8578C98.4772 41.856 98.2643 41.8715 98.0515 41.8869C97.9417 41.8948 97.8319 41.9028 97.7222 41.9084H97.7181C97.6515 41.9125 97.5848 41.9138 97.5181 41.9138C97.497 41.9138 97.4763 41.9145 97.4556 41.9152C97.4348 41.9159 97.4141 41.9166 97.393 41.9166C97.3835 41.9179 97.3743 41.9186 97.3651 41.9193C97.3559 41.92 97.3467 41.9207 97.3372 41.922C97.1701 41.9408 97.0024 41.9464 96.8348 41.952C96.6476 41.9582 96.4606 41.9645 96.2747 41.989C96.057 41.991 95.8411 42.0056 95.6253 42.0203C95.3935 42.0361 95.1618 42.0518 94.9279 42.0518C94.7345 42.0794 94.5397 42.085 94.3448 42.0907C94.153 42.0963 93.9611 42.1019 93.7702 42.1283C93.5532 42.1283 93.3372 42.143 93.1212 42.1577C92.9053 42.1724 92.6893 42.1871 92.4723 42.1871C92.258 42.2173 92.0425 42.2226 91.8271 42.2278C91.6242 42.2328 91.4213 42.2377 91.2193 42.2636C91.1533 42.265 91.0878 42.2676 91.0224 42.2703C90.9019 42.2751 90.7819 42.2799 90.6602 42.2772C90.6602 42.2827 90.6561 42.3005 90.6521 42.3046C90.8773 42.31 91.1027 42.3212 91.3281 42.3323C91.6665 42.349 92.005 42.3658 92.3431 42.3633C92.609 42.3927 92.8774 42.3971 93.1457 42.4016C93.4141 42.406 93.6824 42.4104 93.9484 42.4398C94.0639 42.4447 94.1799 42.4456 94.2959 42.4465C94.5078 42.4481 94.7195 42.4497 94.9279 42.4753C95.1163 42.4842 95.3048 42.4871 95.493 42.49C95.8008 42.4947 96.1079 42.4995 96.4135 42.53C96.7272 42.53 97.0396 42.5447 97.3518 42.5594C97.6637 42.5741 97.9754 42.5887 98.2881 42.5887C98.6059 42.6196 98.9254 42.6241 99.244 42.6286C99.4328 42.6312 99.6213 42.6339 99.8091 42.642C100.016 42.6669 100.228 42.6697 100.438 42.6724C100.527 42.6735 100.616 42.6747 100.704 42.6775C101.312 42.6796 101.922 42.6796 102.531 42.6796C103.141 42.6796 103.75 42.6796 104.358 42.6816C104.354 42.7152 104.349 42.7491 104.345 42.783C104.34 42.8167 104.336 42.8504 104.331 42.8838C104.108 44.0628 103.899 45.2448 103.69 46.4253C103.619 46.8275 103.548 47.2296 103.477 47.6313C103.475 47.6426 103.473 47.6585 103.471 47.6748C103.468 47.6958 103.466 47.7173 103.463 47.7297C103.462 47.737 103.46 47.7465 103.458 47.7565C103.455 47.7709 103.452 47.7861 103.45 47.7966C103.361 47.8327 103.268 47.8306 103.175 47.8285C103.141 47.8277 103.108 47.827 103.074 47.8281H89.9242C89.7582 47.8458 89.6076 47.8465 89.4317 47.783L89.4258 47.7808C89.1853 47.6939 88.9366 47.6041 88.7475 47.4278C88.425 47.1272 88.1829 46.7269 88.1162 46.287C88.1203 38.0352 88.1203 29.7889 88.1203 21.5372C88.1244 21.4962 88.1421 21.4648 88.1693 21.4334C93.4647 21.4313 98.7602 21.4313 104.056 21.4313C109.353 21.4313 114.649 21.4313 119.948 21.4293ZM111.242 24.2709C111.273 24.2573 111.291 24.2299 111.291 24.1985L111.294 24.1972C111.296 24.1208 111.308 24.0464 111.32 23.9722C111.337 23.8714 111.353 23.771 111.343 23.6671C111.382 23.4471 111.386 23.2217 111.378 22.9976C111.341 22.9307 111.337 22.8501 111.337 22.7736L111.302 22.7777C111.249 22.581 111.083 22.3924 110.868 22.3829C110.707 22.3692 110.506 22.3733 110.412 22.5263C110.28 22.7056 110.292 22.9213 110.303 23.1318C110.307 23.2068 110.311 23.2811 110.309 23.3528C110.309 23.3617 110.31 23.374 110.311 23.3863C110.312 23.3986 110.313 23.4109 110.313 23.4198C110.313 23.6042 110.29 23.7832 110.259 23.9635C110.231 24.0168 110.218 24.0756 110.218 24.1384C110.142 24.5606 109.989 24.9786 109.784 25.3598C109.744 25.4131 109.713 25.4718 109.699 25.5346C109.565 25.7683 109.404 25.9841 109.238 26.2C109.211 26.2232 109.188 26.2492 109.166 26.2765C109.055 26.4138 108.935 26.5311 108.811 26.6511L108.795 26.6672C108.777 26.6774 108.762 26.6893 108.748 26.701C108.737 26.7097 108.726 26.7184 108.714 26.726C108.563 26.8749 108.393 27.0142 108.21 27.1263C108.197 27.134 108.184 27.143 108.171 27.1526C108.16 27.16 108.149 27.1677 108.138 27.1754C106.994 27.935 105.602 28.2493 104.247 28.2629C103.097 28.2998 101.94 28.0525 100.902 27.5539C100.884 27.5457 100.839 27.5279 100.821 27.5183C100.777 27.4943 100.732 27.471 100.687 27.4477C100.557 27.3799 100.427 27.3124 100.307 27.226C100.293 27.219 100.279 27.2113 100.265 27.2033C100.243 27.1909 100.22 27.1781 100.195 27.1672C100.031 27.0689 99.873 26.9609 99.7261 26.8353C99.693 26.8047 99.6573 26.7786 99.6213 26.7522C99.6041 26.7396 99.5868 26.7269 99.5697 26.7137C99.4078 26.5839 99.2432 26.4445 99.1044 26.2874C99.0691 26.2479 99.0325 26.2112 98.9973 26.1757L98.9969 26.1754C98.5099 25.6685 98.129 25.0483 97.9276 24.3748C97.7704 23.9358 97.7594 23.4647 97.7486 22.9998C97.7462 22.8975 97.7438 22.7956 97.7399 22.6943C97.578 22.4471 97.2379 22.3077 96.9699 22.4607C96.9045 22.508 96.8727 22.5782 96.8407 22.6492C96.8181 22.6993 96.7953 22.7497 96.7604 22.7927C96.6216 24.275 97.2515 25.7532 98.2582 26.8216C98.2582 26.8585 98.2759 26.8803 98.3072 26.894C98.3704 26.9531 98.4333 27.0128 98.4961 27.0723C98.6103 27.1806 98.7241 27.2886 98.8391 27.3927C98.8704 27.4241 98.9058 27.4555 98.9466 27.4828C99.0813 27.5935 99.2229 27.6973 99.3645 27.801C99.4116 27.8356 99.4588 27.8702 99.5057 27.905C99.5411 27.9323 99.5765 27.9555 99.6173 27.9774C99.6863 28.0176 99.7543 28.06 99.8221 28.1023C99.9964 28.2109 100.17 28.3192 100.36 28.39C100.378 28.4036 100.409 28.4255 100.427 28.4351C101.277 28.8435 102.194 29.1222 103.133 29.2124C103.236 29.2124 103.338 29.222 103.441 29.2438C103.859 29.2681 104.275 29.259 104.692 29.2499L104.783 29.2479C106.165 29.1263 107.592 28.7889 108.746 27.9719L108.759 27.9897C108.796 27.9583 108.827 27.9323 108.863 27.905C109.046 27.7711 109.226 27.6276 109.404 27.4787C109.445 27.4473 109.489 27.4118 109.529 27.3708C109.588 27.3073 109.649 27.2453 109.71 27.183C109.856 27.0348 110.003 26.885 110.12 26.7109L110.147 26.7246C110.153 26.7141 110.161 26.6992 110.169 26.684C110.179 26.6655 110.188 26.6464 110.196 26.6344C110.347 26.4281 110.486 26.2123 110.62 25.9964C110.625 25.9896 110.632 25.9807 110.64 25.9718C110.648 25.9629 110.656 25.9541 110.66 25.9472L110.642 25.9295C110.649 25.9206 110.66 25.9069 110.671 25.8933C110.683 25.8796 110.694 25.8659 110.701 25.8571C110.947 25.3529 111.166 24.8283 111.242 24.2709Z" fill="#161E33"/>
</g>
<defs>
<clipPath id="clip0_662_1870">
<rect width="120" height="64" fill="white"/>
</clipPath>
</defs>
</svg>
