<svg width="120" height="64" viewBox="0 0 120 64" fill="none" xmlns="http://www.w3.org/2000/svg">
<path d="M13.2931 18.884C14.9246 18.884 16.3672 19.6819 17.2426 20.904C17.7115 20.7543 18.2118 20.6734 18.7312 20.6734C21.2771 20.6734 23.3632 22.6163 23.5513 25.082C25.4883 25.7041 26.8884 27.5011 26.8884 29.6208C26.8884 30.7128 26.5168 31.7191 25.8916 32.5233C26.3325 33.243 26.5863 34.0868 26.5863 34.9892C26.5863 36.9944 25.3334 38.7105 23.5584 39.4168C23.4257 41.935 21.3152 43.9366 18.7312 43.9366C18.2118 43.9366 17.7115 43.8557 17.2426 43.706C16.3672 44.9281 14.9246 45.7261 13.2931 45.7261C11.6616 45.7261 10.219 44.9281 9.34362 43.706C8.87471 43.8557 8.37446 43.9366 7.85507 43.9366C5.27105 43.9366 3.16056 41.935 3.02779 39.4168C1.2528 38.7105 0 36.9944 0 34.9892C0 33.9939 0.308687 33.0698 0.836688 32.305C0.308687 31.5403 0 30.6161 0 29.6208C0 27.6157 1.25279 25.8995 3.02779 25.1932C3.16059 22.675 5.27108 20.6734 7.85507 20.6734C8.37445 20.6734 8.87471 20.7543 9.34362 20.904C10.219 19.6819 11.6617 18.884 13.2931 18.884ZM10.6267 42.2727C11.3402 42.9345 12.3006 43.3401 13.357 43.3401C14.3853 43.3401 15.3226 42.9557 16.0298 42.3247L14.2486 37.1608C13.9868 37.2037 13.7181 37.2261 13.4442 37.2261C13.0877 37.2261 12.7401 37.1882 12.4051 37.1164L10.6267 42.2727ZM4.97812 38.7874C5.37569 40.5478 6.96738 41.8638 8.87046 41.8638C9.03477 41.8638 9.19677 41.8538 9.35587 41.8348L11.1415 36.6573C10.6162 36.3797 10.1471 36.0102 9.75587 35.5701L4.97812 38.7874ZM17.0757 35.6327C16.6429 36.1031 16.1197 36.4892 15.5334 36.7634L17.2791 41.8246C17.4635 41.8503 17.6518 41.8638 17.8433 41.8638C19.7517 41.8638 21.3469 40.5404 21.7389 38.7726L17.0757 35.6327ZM2.69241 32.9761C2.49765 33.44 2.39009 33.9487 2.39008 34.4822C2.39009 35.8349 3.0813 37.0282 4.13399 37.7369L9.00861 34.4544C8.78568 33.9968 8.63167 33.4996 8.56017 32.9761H2.69241ZM18.3282 32.9761C18.2528 33.5285 18.0855 34.0516 17.8422 34.5299L22.5924 37.7284C23.638 37.0187 24.3237 35.8295 24.3237 34.4822C24.3237 33.9487 24.2162 33.44 24.0214 32.9761H18.3282ZM17.7897 29.9797C18.0615 30.4848 18.2475 31.0427 18.3282 31.634H24.2384C24.4536 31.1502 24.573 30.6155 24.573 30.0533C24.573 28.6326 23.8106 27.3875 22.6677 26.6952L17.7897 29.9797ZM4.17958 26.7682C3.10126 27.4729 2.39008 28.6811 2.39008 30.0533C2.39009 30.6155 2.50948 31.1502 2.72458 31.634H8.56017C8.637 31.0715 8.80897 30.5393 9.05944 30.0541L4.17958 26.7682ZM8.87046 22.6717C6.98648 22.6717 5.4076 23.9614 4.99037 25.6952L9.83253 28.9557C10.2189 28.5406 10.6763 28.1924 11.1853 27.9299L9.38271 22.7041C9.215 22.6828 9.04402 22.6717 8.87046 22.6717ZM17.8433 22.6717C17.6424 22.6717 17.445 22.6865 17.2521 22.7148L15.489 27.826C16.0582 28.0854 16.5693 28.4497 16.9975 28.8942L21.7268 25.7098C21.315 23.9686 19.7326 22.6717 17.8433 22.6717ZM13.357 21.1954C12.3102 21.1954 11.3576 21.5935 10.6462 22.2447L12.4531 27.4834C12.7733 27.4182 13.1047 27.384 13.4442 27.384C13.7011 27.384 13.9534 27.4036 14.1997 27.4414L16.0101 22.1932C15.3052 21.5726 14.3757 21.1954 13.357 21.1954Z" fill="#090E1A"/>
<path d="M41.0926 27.5011C41.2662 27.5011 41.453 27.5011 41.5449 27.5011C41.5449 27.5011 41.5449 26.4892 41.5449 25.911H44.8891C44.8891 28.3533 44.9464 34.5282 44.9466 37.1762L44.9459 40.1372C44.9459 40.8794 44.981 41.6481 44.8521 42.382C44.755 42.9091 44.4981 43.3938 44.1161 43.7706C43.6631 44.2202 43.2216 44.4417 42.5875 44.5611C41.8866 44.693 40.308 44.6069 39.5316 44.6063L32.9774 44.6077C32.9774 43.9739 32.9774 42.2217 32.9774 41.6344C35.0503 41.6344 39.31 41.6344 40.8774 41.6344C41.2074 41.6344 41.4732 41.3681 41.4732 41.0386C41.4732 39.9858 41.4732 37.8615 41.4732 37.3775C41.3861 37.3755 41.1124 37.3562 41.0478 37.4012C40.947 37.4719 40.8159 37.6953 40.7333 37.798C40.3128 38.3206 39.8389 38.6774 39.2119 38.9253C37.7592 39.4998 35.9157 39.4146 34.4894 38.7941C33.1075 38.1929 31.9641 36.9876 31.413 35.5871C30.7175 33.8195 30.7734 31.7945 31.1677 29.9617C31.6705 27.6261 33.7625 25.9694 36.0514 25.619C38.0545 25.3277 39.795 25.9133 41.0926 27.5011ZM39.3475 36.0923C40.5022 35.6928 41.2653 34.7057 41.5101 33.5479C41.7181 32.5619 41.6263 31.2825 41.1953 30.3739C40.8558 29.6584 40.0428 28.9562 39.293 28.6929C38.3793 28.372 37.3073 28.4522 36.4032 28.7649C35.2128 29.176 34.3286 30.6008 34.2695 31.8014C34.2104 33.0068 34.3388 34.2847 35.1936 35.21C36.2453 36.3484 37.9266 36.5841 39.3475 36.0923Z" fill="#090E1A"/>
<path d="M84.3862 20.4498C85.4935 20.4498 86.6404 20.4498 87.7776 20.4498C87.7776 22.5375 87.7682 35.7349 87.7682 39.2392L84.437 39.2317C84.437 38.7844 84.437 37.6101 84.437 37.6101H83.9516C83.5408 38.3509 82.7199 38.9742 82.1403 39.2247C80.3046 40.0184 77.6472 39.551 76.0867 38.3509C75.3108 37.754 74.663 36.7827 74.2893 35.8809C73.6765 34.3979 73.607 32.5051 73.8505 30.8702C74.002 29.3508 74.9664 27.7583 76.1345 26.8137C77.4517 25.7488 79.0795 25.4253 80.7287 25.6024C81.8386 25.7215 82.8423 26.1403 83.596 26.9739C83.7076 27.0974 83.8212 27.3274 83.9269 27.4585C84.0263 27.4585 84.2727 27.4606 84.4023 27.4585C84.4023 27.384 84.399 27.3055 84.4023 27.222C84.4023 24.9645 84.3862 22.7071 84.3862 20.4498ZM81.3654 36.6269C82.0963 36.6227 82.9668 36.1365 83.465 35.632C84.281 34.8057 84.4766 33.3262 84.4766 32.5051C84.4766 31.5221 84.2477 30.3346 83.4202 29.5236C82.6385 28.7577 82.0276 28.5031 80.6555 28.5031C79.2834 28.5031 78.3827 29.2538 77.8408 29.9254C77.1552 30.7758 77.0651 32.2854 77.1824 33.3262C77.293 34.307 77.6421 35.2508 78.4383 35.8799C79.3298 36.5842 80.2727 36.6722 81.3654 36.6269Z" fill="#090E1A"/>
<path d="M54.3114 25.536C56.7859 25.6288 59.198 26.5483 59.778 29.2374C59.9621 30.0901 59.9091 30.989 59.9094 31.8564L59.9087 34.8826C59.9083 35.3093 59.8165 35.9616 60.1421 36.295C60.3639 36.5222 61.4353 36.4092 61.7688 36.4059C61.7688 36.835 61.7688 38.7546 61.7688 39.2392C60.8561 39.2381 59.328 39.366 58.4993 39.0896C58.0818 38.9503 57.4264 38.5469 57.302 38.0988C57.2475 37.9014 57.2538 37.6439 57.1605 37.4663C57.1241 37.3965 56.7888 37.4551 56.7146 37.4638C56.5114 37.7097 56.4237 38.0329 56.2381 38.2901C55.7343 38.9878 54.7607 39.4013 53.9387 39.5386C51.9079 39.8858 49.131 39.2751 48.1846 37.2284C47.7241 36.2342 47.6954 34.8635 48.0629 33.8458C48.5909 32.383 49.9163 31.7011 51.3272 31.3256C52.9616 30.8905 54.8914 31.1853 56.5611 31.1866C56.6899 30.4037 56.5205 29.3794 56.101 28.958C55.5875 28.4417 54.8612 28.2769 54.1523 28.2772C52.3026 28.278 51.8724 29.0989 51.4362 30.3425C51.35 30.2682 48.7354 29.4344 48.4046 29.2997C48.586 28.6888 48.8047 28.2097 49.0656 27.8334C49.6418 27.0046 50.6348 26.2942 51.5871 25.9565C52.4385 25.6543 53.4142 25.5024 54.3114 25.536ZM54.906 36.611C55.5812 36.3387 56.1238 35.815 56.4192 35.1504C56.5871 34.7653 56.7146 34.1691 56.5604 33.719L54.0142 33.7176C53.1693 33.7177 52.0462 33.6675 51.4463 34.4122C51.2264 34.6853 51.1815 35.1655 51.223 35.5064C51.3098 36.2161 51.9207 36.6378 52.5753 36.7889C53.3685 36.9719 54.1437 36.8451 54.906 36.611Z" fill="#090E1A"/>
<path d="M101.08 26.4832C102.542 27.3883 103.467 28.8384 103.857 30.4937C104.08 31.4453 104.08 33.0879 104.08 33.5726C103.123 33.5724 94.4137 33.5726 94.4137 33.5726C94.4137 35.4025 95.8221 36.4411 97.1632 36.617C97.8527 36.7075 98.5544 36.6795 99.2161 36.4526C100.124 36.1403 100.981 34.7452 100.981 34.6164C101.705 34.9929 102.82 35.6976 103.587 36.1398C103.514 36.6163 102.283 37.9555 101.84 38.3053C100.343 39.488 98.4662 39.7758 96.6079 39.559C94.9095 39.3609 93.3806 38.5857 92.314 37.2357C91.0103 35.586 90.7343 33.3744 90.9741 31.3401C91.3038 28.5434 92.8395 26.3707 95.6403 25.7436C97.5089 25.3253 99.3691 25.4244 101.08 26.4832ZM100.579 31.0212C100.645 29.9564 99.2301 28.834 98.5906 28.6515C97.8063 28.3906 96.9421 28.3875 96.2378 28.6515C95.3797 28.9737 95.0167 29.3826 94.632 30.18C94.5561 30.3376 94.4137 30.7485 94.4137 31.0212C96.258 31.0212 98.5906 31.0212 100.579 31.0212Z" fill="#090E1A"/>
<path d="M113.649 25.7625C114.72 25.683 115.818 25.6875 116.837 26.0741C118.27 26.6173 119.358 28.0052 119.754 29.4473C119.932 30.095 119.968 30.7553 120 31.4233C120 33.0506 120 38.941 120 39.2264L116.53 39.2392C116.53 36.9278 116.53 33.0133 116.53 31.5967C116.53 29.9924 116.04 29.4282 115.433 28.987C114.901 28.5999 112.782 28.5528 111.96 28.987C111.325 29.3226 110.465 30.5155 110.466 31.5967C110.467 32.044 110.465 36.6706 110.465 39.2392H107.029C107.029 35.6603 107.051 27.8313 107.051 25.911H110.357V27.6735C110.528 27.6834 110.69 27.6763 110.861 27.6754C110.861 27.6754 111.699 26.0046 113.649 25.7625Z" fill="#090E1A"/>
<path d="M67.5299 27.4473H68.0287C68.0287 27.4473 68.3641 26.6666 68.8642 26.3401C69.8352 25.7063 72.2178 25.9114 72.2178 25.9114C72.2178 26.0791 72.22 28.5397 72.22 28.8752C70.1339 28.8752 69.5364 28.9687 69.3497 29.0243C68.0287 29.4175 67.6075 30.441 67.6075 32.3042C67.6253 34.6221 67.6075 36.9405 67.6075 39.2585H64.2047C64.2047 36.2015 64.2047 29.0334 64.2047 25.9114C64.5946 25.9113 67.5121 25.9114 67.5306 25.9298C67.5306 26.2655 67.5299 27.4473 67.5299 27.4473Z" fill="#090E1A"/>
</svg>
