<svg width="120" height="64" viewBox="0 0 120 64" fill="none" xmlns="http://www.w3.org/2000/svg">
<g clip-path="url(#clip0_1773_12982)">
<path fill-rule="evenodd" clip-rule="evenodd" d="M27.875 34.5609C27.875 32.8794 29.3163 31.438 30.9979 31.438C32.6794 31.438 34.0006 32.7592 34.2409 34.2006C34.2409 35.8821 32.7995 37.3235 31.118 37.3235C30.3973 37.3235 29.7967 37.2034 29.1962 36.7229L18.5063 42.4883C18.5063 44.1698 17.0649 45.491 15.3834 45.491C13.942 45.491 12.6208 44.41 12.3806 42.8486L2.65154 37.8039C0.969977 36.9631 -0.111027 34.681 0.00908488 32.519C0.129196 31.1978 0.609642 30.1168 1.57053 29.5162C1.67174 29.4656 2.15139 29.2285 2.90842 28.8542L2.91084 28.853C5.74888 27.4497 12.4778 24.1227 17.7856 21.4688L18.1459 21.3487C18.161 21.3412 18.1788 21.3318 18.1994 21.3209C18.508 21.1585 19.4299 20.6732 20.6683 21.3487C22.2297 22.0693 25.5928 23.6308 28.5956 25.0721C29.4327 25.5287 30.318 25.9371 31.0988 26.2973C31.5502 26.5055 31.9671 26.6978 32.3191 26.8738C32.3191 26.8738 32.7995 27.114 32.7995 27.5945C32.7995 27.9548 32.5593 28.195 32.3191 28.3151L15.8638 36.843C15.023 37.3235 14.6627 37.2034 14.1822 36.9631C14.049 36.8299 11.5139 35.5142 8.87241 34.1433C6.75155 33.0426 4.56213 31.9063 3.49232 31.3179H3.37221C3.13198 31.1978 2.77165 31.1978 2.53143 31.3179C2.17109 31.5581 1.81076 32.1587 1.81076 32.8794C1.69065 34.3207 2.41131 36.0022 3.37221 36.4827L12.5007 41.2871C12.9811 40.3263 14.0621 39.6056 15.2632 39.6056C16.2241 39.6056 17.185 40.086 17.7856 40.9268L27.9951 35.5218C27.875 35.2816 27.875 34.9212 27.875 34.5609ZM16.2241 42.6084C16.2241 42.1279 15.8638 41.6475 15.2632 41.6475C14.6627 41.6475 14.3024 42.1279 14.3024 42.6084C14.3024 43.0888 14.6627 43.5693 15.2632 43.5693C15.7437 43.5693 16.2241 43.2089 16.2241 42.6084ZM30.037 34.5609C30.037 35.0414 30.3973 35.5218 30.9979 35.5218C31.4783 35.5218 31.9588 35.0414 31.9588 34.5609C31.9588 34.0805 31.5984 33.6 30.9979 33.6C30.5174 33.6 30.037 34.0805 30.037 34.5609Z" fill="#161E33"/>
<path d="M51.897 41.1671C52.978 40.8067 53.8188 40.2062 54.4193 39.6056H54.5394V33.3598H48.1735V35.8822H50.816V38.2844C50.3355 38.6447 49.6148 38.885 48.654 38.885C47.4528 38.885 46.6121 38.4045 46.1316 37.6838C45.5311 36.9632 45.2908 35.7621 45.2908 34.2006V33.2397C45.4109 31.7984 45.6512 30.7174 46.1316 29.8766C46.6121 29.0358 47.3327 28.6755 48.2936 28.6755C49.0143 28.6755 49.6148 28.9157 50.0953 29.2761C50.5757 29.6364 50.816 30.2369 50.9361 31.0777H54.5394C54.2992 29.2761 53.6986 27.9548 52.6176 27.114C51.5366 26.2733 49.9752 25.7928 48.0534 25.7928C46.7322 25.7928 45.5311 26.1532 44.5702 26.7537C43.6093 27.3543 42.8886 28.195 42.288 29.3962C41.6875 30.4772 41.4473 31.7984 41.4473 33.3598V34.6811C41.4473 36.8431 42.1679 38.6447 43.3691 39.8458C44.5702 41.1671 46.2517 41.7676 48.2936 41.7676C49.6148 41.7676 50.816 41.5274 51.897 41.1671Z" fill="#161E33"/>
<path d="M56.5811 41.5274H60.1844V29.9967H56.5811V41.5274Z" fill="#161E33"/>
<path d="M56.4609 26.9939C56.4609 26.5135 56.7012 26.033 57.0615 25.6727C57.4218 25.3123 57.9023 25.1922 58.5028 25.1922C59.1034 25.1922 59.5838 25.3123 59.9442 25.6727C60.3045 26.033 60.5447 26.3934 60.5447 26.9939C60.5447 27.4744 60.3045 27.9548 59.9442 28.3151C59.5838 28.6755 59.1034 28.7956 58.5028 28.7956C57.9023 28.7956 57.4218 28.6755 57.0615 28.3151C56.5811 27.9548 56.4609 27.5945 56.4609 26.9939Z" fill="#161E33"/>
<path d="M66.6707 29.9967V27.1141H63.0673V29.9967H61.626V32.5191H63.0673V38.2844C63.0673 39.4855 63.3075 40.3263 63.9081 40.9268C64.5087 41.5274 65.4695 41.7676 66.6707 41.7676C67.3913 41.7676 68.112 41.6475 68.7126 41.4073V38.885C68.4723 39.0051 68.2321 39.0051 67.8718 39.0051C67.3913 39.0051 67.031 38.885 66.9109 38.7648C66.7908 38.5246 66.6707 38.2844 66.6707 37.804V32.5191H68.5924V29.9967H66.6707Z" fill="#161E33"/>
<path fill-rule="evenodd" clip-rule="evenodd" d="M70.1543 41.5274V26.033H75.7995C77.8414 26.033 79.2828 26.3933 80.3638 27.114C81.4448 27.8347 81.9252 28.9157 81.9252 30.357C81.9252 31.1978 81.685 31.7983 81.3247 32.3989C80.9643 32.9995 80.3638 33.3598 79.6431 33.6C80.4839 33.8402 81.0844 34.2006 81.5649 34.8011C82.0453 35.4017 82.1655 36.1223 82.1655 36.9631C82.1655 38.5246 81.685 39.6056 80.7241 40.4464C79.7632 41.167 78.3219 41.6475 76.4001 41.6475L70.1543 41.5274ZM73.8778 34.9212V38.6447H76.28C77.0006 38.6447 77.4811 38.5246 77.8414 38.1642C78.2018 37.8039 78.442 37.4436 78.442 36.843C78.442 35.5218 77.8414 34.9212 76.5202 34.9212H73.8778ZM73.8778 32.519H75.7995C76.6403 32.519 77.2409 32.3989 77.6012 32.0386C77.9615 31.7983 78.0817 31.3179 78.0817 30.7173C78.0817 30.1168 77.8414 29.6363 77.4811 29.276C77.1208 29.0358 76.5202 28.7956 75.6794 28.7956H73.8778V32.519Z" fill="#161E33"/>
<path fill-rule="evenodd" clip-rule="evenodd" d="M84.3271 32.519C83.8467 33.4799 83.6064 34.4408 83.6064 35.6419V36.3626C83.6064 38.0441 84.207 39.3653 85.1679 40.3262C86.1288 41.2871 87.45 41.7676 89.1316 41.7676C90.8131 41.7676 92.2545 41.2871 93.2154 40.2061C94.2964 39.1251 94.7768 37.6838 94.7768 35.8821V35.6419C94.7768 33.8402 94.2964 32.3989 93.3355 31.3179C92.3746 30.2369 90.9333 29.7564 89.2517 29.7564C88.0506 29.7564 87.0897 29.9967 86.2489 30.4771C85.4081 30.9576 84.8076 31.6782 84.3271 32.519ZM87.6902 38.2843C87.3299 37.6838 87.2098 36.9631 87.2098 35.8821L87.0897 35.1615C87.2098 33.3598 87.8103 32.519 89.0115 32.519C90.3327 32.519 91.0534 33.6 91.0534 35.6419V36.0022C91.0534 38.0441 90.4528 39.005 89.1316 39.005C88.531 39.005 88.0506 38.7648 87.6902 38.2843Z" fill="#161E33"/>
<path fill-rule="evenodd" clip-rule="evenodd" d="M95.9785 35.6419C95.9785 34.4408 96.2187 33.4799 96.6992 32.519C97.1796 31.6782 97.7802 30.9576 98.621 30.4771C99.4617 29.9967 100.423 29.7564 101.624 29.7564C103.305 29.7564 104.747 30.2369 105.708 31.3179C106.668 32.3989 107.149 33.8402 107.149 35.6419V35.8821C107.149 37.6838 106.668 39.1251 105.587 40.2061C104.627 41.2871 103.185 41.7676 101.504 41.7676C99.8221 41.7676 98.5009 41.2871 97.54 40.3262C96.5791 39.3653 95.9785 38.0441 95.9785 36.3626V35.6419ZM99.5819 35.8821C99.5819 36.9631 99.702 37.6838 100.062 38.2843C100.423 38.7648 100.903 39.005 101.504 39.005C102.825 39.005 103.425 38.0441 103.425 36.0022V35.6419C103.425 33.6 102.705 32.519 101.384 32.519C100.182 32.519 99.5819 33.3598 99.4618 35.1615L99.5819 35.8821Z" fill="#161E33"/>
<path d="M112.313 38.2844L113.394 37.3235L115.917 41.5274H120L115.676 34.8011L119.76 29.9967H115.436L112.674 33.3598L112.313 33.8402V25.1922H108.71V41.5274H112.313V38.2844Z" fill="#161E33"/>
</g>
<defs>
<clipPath id="clip0_1773_12982">
<rect width="120" height="64" fill="white"/>
</clipPath>
</defs>
</svg>
