<svg width="60" height="64" viewBox="0 0 60 64" fill="none" xmlns="http://www.w3.org/2000/svg">
<path d="M0 32C0 25.1936 4.32799 19.9778 11.4303 19.9778C17.4599 19.9778 21.27 23.122 22.0099 28.2269H15.4994C15.1665 26.7472 13.7608 25.5265 11.6893 25.5265C8.47102 25.5265 6.80641 28.2638 6.80641 32C6.80641 35.7361 8.69297 38.5844 11.9482 38.5844C14.3896 38.5844 15.6104 37.2528 16.0173 35.7361H11.6893V30.9642H22.4538V43.4673H17.9778L17.4599 41.0259H17.3859C15.9433 43.1344 13.6128 44.0222 10.8015 44.0222C7.6942 44.0222 5.06782 42.9494 3.18126 40.9519C1.07275 38.6954 0 35.5881 0 32ZM23.4155 20.3847H30.148V37.6597H38.3231V43.4303H23.4155V20.3847ZM55.0432 41.0259H54.9692C53.5265 43.1344 51.1591 44.0222 48.3477 44.0222C45.2404 44.0222 42.6141 42.9494 40.7275 40.9519C38.619 38.6954 37.5462 35.5881 37.5462 32.037C37.5462 25.2306 41.8742 20.0148 48.9766 20.0148C55.0062 20.0148 58.8163 23.159 59.5561 28.2638H53.0456C52.7127 26.7842 51.307 25.5635 49.2355 25.5635C46.0173 25.5635 44.3526 28.2638 44.3526 32.037C44.3526 35.8101 46.2392 38.6214 49.4945 38.6214C51.9359 38.6214 53.1196 37.2897 53.5635 35.7731H49.2355V30.9642H60V43.4673H55.524L55.0432 41.0259Z" fill="#161E33"/>
</svg>
