<svg width="120" height="64" viewBox="0 0 120 64" fill="none" xmlns="http://www.w3.org/2000/svg">
<g clip-path="url(#clip0_662_2621)">
<path fill-rule="evenodd" clip-rule="evenodd" d="M31.1954 38.8706L31.1968 38.865C31.3427 38.9197 31.4583 38.9623 31.5739 38.9988C33.0941 39.4689 34.6509 39.6765 36.2322 39.7192C37.8989 39.7619 39.5596 39.7558 41.1958 39.3468C42.4596 39.0293 43.2899 38.2784 43.5829 36.9963C43.8149 35.9767 43.8088 34.951 43.5707 33.9314C43.3082 32.802 42.6 32.1365 41.4461 31.99C40.5584 31.878 39.6679 31.7716 38.7765 31.6651C38.3559 31.6149 37.9351 31.5646 37.5143 31.5138C37.0132 31.4533 36.512 31.3942 36.0115 31.3351L36.0113 31.3351L36.011 31.335L36.0107 31.335L36.0105 31.335L36.0102 31.335C35.4502 31.2689 34.891 31.2029 34.3335 31.1352C33.9733 31.0925 33.6558 30.9338 33.5703 30.5491C33.3627 29.6272 33.5947 29.0717 34.5655 28.974C35.2859 28.9007 36.0124 28.8519 36.7328 28.8336C38.5827 28.7908 40.4143 28.9373 42.2153 29.383C42.3252 29.4075 42.5511 29.3342 42.5695 29.267C42.7199 28.7062 42.8568 28.1385 42.9953 27.5641L42.9953 27.5638L42.9954 27.5637C43.0423 27.3691 43.0894 27.1737 43.1372 26.9776C42.9663 26.9226 42.8503 26.886 42.7282 26.8494C40.4631 26.2022 38.1431 26.0618 35.8109 26.2144C34.8707 26.2755 33.9244 26.4708 33.0147 26.7211C32.0745 26.9837 31.5189 27.6919 31.2869 28.6382C31.0611 29.5784 31.0733 30.5308 31.2869 31.471C31.5678 32.7287 32.3309 33.5285 33.613 33.7361C34.9501 33.9559 36.2994 34.1329 37.6486 34.3039C38.1058 34.3614 38.5643 34.408 39.0229 34.4547L39.0229 34.4547C39.5381 34.5072 40.0534 34.5596 40.5669 34.6274C41.1469 34.7068 41.3484 34.951 41.4095 35.5371C41.4949 36.3796 41.2141 36.7704 40.3838 36.9474C40.2739 36.9718 40.164 36.9963 40.048 37.0085C38.308 37.1611 36.568 37.1794 34.8341 36.9657C34.1385 36.8804 33.4519 36.7503 32.7492 36.6172L32.7492 36.6172L32.7491 36.6172L32.7491 36.6172L32.7491 36.6171L32.749 36.6171C32.4464 36.5598 32.1409 36.5019 31.8303 36.4468C31.7371 36.8006 31.6438 37.1582 31.5494 37.5199L31.549 37.5216C31.4339 37.9627 31.3172 38.4102 31.1968 38.865L31.1954 38.8645V38.8706ZM13.9669 39.3651V26.5563V26.5502C13.6945 26.5502 13.4251 26.5512 13.1577 26.5522C12.4963 26.5547 11.8473 26.5571 11.1951 26.5441C10.8898 26.538 10.8104 26.6418 10.8104 26.9348C10.8165 27.6582 10.8165 28.3831 10.8166 29.108V29.1083C10.8166 29.8333 10.8166 30.5583 10.8227 31.2817C10.8288 31.5992 10.7555 31.7335 10.4014 31.7335C8.12413 31.7213 5.84687 31.7213 3.56961 31.7335C3.25214 31.7396 3.16056 31.6297 3.16056 31.3184C3.16463 30.3699 3.16327 29.4188 3.16192 28.4686V28.4685V28.4684V28.4683V28.4683V28.4682V28.4681V28.468V28.4678V28.4676V28.4674V28.4672V28.4671C3.16124 27.9926 3.16056 27.5183 3.16056 27.0447V26.5929H0.0224609V39.3407H3.16056V38.8644C3.16056 38.472 3.16156 38.0795 3.16255 37.687V37.687C3.16505 36.7058 3.16754 35.7246 3.15446 34.7434C3.14835 34.4198 3.22772 34.3038 3.57572 34.3038C5.85298 34.316 8.13024 34.316 10.4075 34.3038C10.725 34.3038 10.8165 34.4076 10.8165 34.719C10.8125 35.533 10.8138 36.3471 10.8152 37.1611C10.8159 37.5681 10.8165 37.9751 10.8165 38.3821C10.8165 39.0374 11.1503 39.3651 11.8178 39.3651H13.9669ZM26.5278 34.7961C27.4583 36.117 28.3794 37.4285 29.3199 38.7676L29.7181 39.3346C29.6511 39.3397 29.5949 39.346 29.5455 39.3514L29.5455 39.3515C29.4779 39.359 29.423 39.3651 29.3701 39.3651C29.1411 39.3651 28.9122 39.3647 28.6832 39.3643C27.9964 39.3632 27.3096 39.362 26.6227 39.3712C26.3724 39.3712 26.232 39.2918 26.0977 39.0842C25.6856 38.4401 25.2704 37.8006 24.8553 37.1611C24.4401 36.5216 24.025 35.882 23.6129 35.2379C23.4663 35.0059 23.3076 34.9144 23.0268 34.9144C22.0621 34.9327 21.0914 34.9327 20.1268 34.9144C19.7788 34.9083 19.6628 35.0059 19.6689 35.36C19.6774 35.9128 19.6767 36.4656 19.6759 37.0178V37.0179C19.675 37.6488 19.6742 38.2789 19.6872 38.9072C19.6933 39.2857 19.5712 39.3834 19.211 39.3712C18.4478 39.3468 17.6847 39.3529 16.9215 39.3712C16.6346 39.3712 16.5186 39.304 16.5186 38.9927C16.5247 34.9754 16.5247 30.9521 16.5186 26.9348C16.5186 26.6662 16.5857 26.5502 16.8849 26.5563C17.8171 26.5604 18.7499 26.5617 19.683 26.5631C21.5488 26.5658 23.4156 26.5685 25.2796 26.5929C25.939 26.6051 26.6166 26.7578 27.2577 26.947C28.436 27.2889 29.1564 28.0887 29.3823 29.3036C29.5838 30.3904 29.596 31.4832 29.2602 32.5455C28.8939 33.7238 28.1307 34.4809 26.8731 34.6763C26.7876 34.6885 26.7021 34.7068 26.6105 34.7312C26.6031 34.7312 26.5979 34.7358 26.5796 34.7519C26.5684 34.7618 26.5523 34.776 26.5278 34.7961ZM26.4518 31.3001C26.2992 32.2769 25.884 32.6493 24.895 32.6676C24.0292 32.6808 23.1664 32.6921 22.3009 32.6921C22.0241 32.6921 21.771 32.6906 21.5256 32.6892H21.5256H21.5256H21.5256H21.5256H21.5255H21.5255C21.0564 32.6865 20.6152 32.684 20.0901 32.6921C19.8032 32.6982 19.6811 32.6249 19.6811 32.3135C19.6933 31.3083 19.6872 30.3092 19.6811 29.3041V29.304V29.3039V29.3039V29.3038V29.3037V29.3036L19.6811 29.2975C19.675 29.035 19.7421 28.9068 20.0413 28.9068C20.6797 28.912 21.317 28.9105 21.9541 28.909H21.9541H21.9542H21.9542H21.9542H21.9543H21.9543C22.8038 28.9071 23.653 28.9051 24.5042 28.919C26.1282 28.9434 26.7082 29.6822 26.4518 31.3001ZM78.1506 35.9156C78.755 37.7167 79.9883 38.895 81.8382 39.3407L81.942 39.3662L82.0713 39.3982C82.865 39.5947 83.6389 39.7863 84.5123 39.7863C85.4933 39.7863 85.96 39.6899 86.478 39.583C86.6118 39.5553 86.7491 39.527 86.8995 39.4994C89.0546 39.1087 90.5443 37.9304 91.1304 35.7691C91.5883 34.0841 91.6127 32.3746 91.2342 30.6712C90.7397 28.4489 89.3843 27.0447 87.162 26.5013C85.5624 26.1106 83.9628 26.1106 82.3571 26.4281C80.1104 26.8738 78.639 28.1864 78.0285 30.3965C77.5218 32.2403 77.5401 34.0963 78.1506 35.9156ZM84.124 27.5201C84.2797 27.5093 84.4357 27.4985 84.5917 27.4843C85.196 27.4293 86.7684 27.8042 87.0704 27.8872C88.4136 28.2535 89.2683 29.1754 89.6468 30.5064C90.1047 32.1182 90.1169 33.7483 89.6712 35.3662C89.2927 36.752 88.3952 37.6617 87.0277 38.0769C85.483 38.5409 83.9201 38.5531 82.3633 38.1135C80.898 37.6984 79.9639 36.7154 79.5182 35.2807C79.0603 33.7971 79.0481 32.2952 79.4327 30.7994C79.9334 28.8641 81.2765 27.8933 83.1875 27.6125C83.4975 27.5635 83.8103 27.5419 84.124 27.5201ZM72.2049 34.1817C72.9509 35.2704 73.6757 36.3306 74.4042 37.3963L74.4138 37.4105L74.4734 37.4976C74.8904 38.1077 75.309 38.7199 75.7337 39.3407C75.5744 39.3407 75.4214 39.3421 75.2729 39.3435L75.2727 39.3435H75.2725C74.8917 39.3471 74.5404 39.3504 74.1891 39.3285C74.0731 39.3224 73.9449 39.1636 73.8655 39.0476C72.8703 37.5702 71.8813 36.0927 70.9044 34.603C70.7396 34.3527 70.5626 34.2428 70.2573 34.2489C69.3414 34.262 68.4223 34.2595 67.5046 34.257H67.5044C67.1376 34.256 66.771 34.255 66.4049 34.255C66.067 34.255 65.8961 34.4199 65.892 34.7495V38.8706V39.3407C65.7744 39.3407 65.659 39.3411 65.5456 39.3415H65.5453H65.545C65.2113 39.3426 64.8936 39.3437 64.5794 39.3346C64.5122 39.3346 64.4268 39.2308 64.3962 39.1514C64.3741 39.0848 64.3777 39.0086 64.3813 38.9321C64.3827 38.9033 64.384 38.8745 64.384 38.8461C64.384 34.9144 64.384 30.9887 64.3779 27.0569C64.3779 26.6906 64.4451 26.5563 64.8541 26.5563C66.0687 26.5693 67.2832 26.5685 68.4977 26.5676C69.5605 26.5668 70.6232 26.5661 71.6859 26.5746C72.2537 26.5746 72.8276 26.654 73.3832 26.7883C74.3661 27.0264 75.0499 27.6614 75.3491 28.6321C75.7276 29.8653 75.7337 31.1169 75.3124 32.3441C74.9461 33.4186 74.2135 34.0596 73.0291 34.0902C72.873 34.0942 72.7168 34.1139 72.5315 34.1374L72.5314 34.1374C72.434 34.1497 72.3287 34.163 72.211 34.1756L72.2049 34.1817ZM72.0767 33.0401C73.2611 33.0034 73.8472 32.5211 74.067 31.4405C74.2074 30.7567 74.2074 30.079 74.0303 29.4013C73.7922 28.4795 73.2367 27.9422 72.2903 27.9178C70.8926 27.88 69.4949 27.874 68.0972 27.8679C67.4618 27.8652 66.8265 27.8624 66.1912 27.8567C65.9531 27.8567 65.892 27.9666 65.892 28.1864C65.892 28.6913 65.8927 29.1956 65.8934 29.6996C65.8947 30.707 65.8961 31.7134 65.892 32.7226C65.892 32.9912 65.9775 33.0767 66.2461 33.0706C66.8596 33.0629 67.1502 33.0649 67.5234 33.0674L67.5236 33.0674C67.7446 33.0689 67.9947 33.0706 68.358 33.0706C68.8881 33.0627 69.4186 33.0617 69.9491 33.0606H69.9492C70.6586 33.0593 71.368 33.0579 72.0767 33.0401ZM108.764 31.4538C108.764 31.95 108.763 32.4462 108.763 32.9424V32.9363C108.763 33.5032 108.764 34.0702 108.765 34.6372V34.6393C108.768 36.0558 108.77 37.4723 108.757 38.8889C108.751 39.2674 108.873 39.3895 109.233 39.3468C109.459 39.3224 109.691 39.3285 109.917 39.3468C110.21 39.3712 110.308 39.2735 110.308 38.9621C110.299 38.2478 110.299 37.535 110.299 36.823V36.8212C110.299 36.1098 110.299 35.3991 110.289 34.6885C110.289 34.3283 110.405 34.2428 110.747 34.2428C112.451 34.255 114.154 34.2611 115.857 34.2428C116.456 34.2367 117.048 34.1634 117.64 34.0902C118.696 33.962 119.374 33.3514 119.71 32.3624C120.107 31.2024 120.113 30.018 119.801 28.8336C119.508 27.7102 118.764 27.0142 117.64 26.7578C117.158 26.6479 116.657 26.5807 116.169 26.5807C114.877 26.5705 113.584 26.5698 112.292 26.569C111.258 26.5684 110.224 26.5678 109.191 26.5624C108.861 26.5624 108.757 26.6479 108.757 26.9898C108.766 28.4767 108.765 29.9636 108.764 31.4505V31.4538ZM116.474 33.0523C116.321 33.0584 116.169 33.0645 116.016 33.0645C115.548 33.0645 115.084 33.069 114.618 33.0736L114.618 33.0736L114.618 33.0736C114.146 33.0782 113.672 33.0828 113.187 33.0828C112.849 33.0828 112.56 33.0813 112.285 33.0799C111.774 33.0772 111.313 33.0749 110.686 33.0828C110.424 33.0828 110.302 33.034 110.302 32.7287C110.31 31.72 110.307 30.714 110.304 29.7071V29.7064V29.7057C110.303 29.2017 110.302 28.6974 110.302 28.1925C110.302 27.9788 110.351 27.8628 110.595 27.8628C111.229 27.8686 111.863 27.8713 112.498 27.874C113.893 27.8801 115.29 27.8861 116.688 27.9239C117.604 27.9422 118.159 28.455 118.409 29.3342C118.635 30.1218 118.623 30.9154 118.403 31.703C118.153 32.5944 117.555 33.0034 116.474 33.0523ZM61.0807 27.179C60.9464 27.5759 60.812 27.9666 60.6838 28.3207C60.4034 28.2482 60.1277 28.1727 59.8548 28.098C59.2542 27.9336 58.6668 27.7728 58.0708 27.6552C56.8619 27.4232 55.647 27.4416 54.4382 27.7224C52.6066 28.1559 51.4893 29.2914 51.1108 31.1352C50.8544 32.3685 50.8605 33.614 51.1963 34.835C51.7335 36.8009 53.095 37.8693 55.0487 38.2295C56.575 38.5104 58.0586 38.3272 59.5055 37.7838C59.768 37.6861 59.8474 37.5457 59.8413 37.2771C59.8352 36.6086 59.8352 35.9416 59.8352 35.2746C59.8352 34.6076 59.8352 33.9406 59.8291 33.2721C59.8291 32.9607 59.9146 32.8325 60.2381 32.8569C60.519 32.8813 60.7998 32.8691 61.0746 32.8569C61.2944 32.8508 61.392 32.9241 61.3859 33.1622C61.3839 33.7219 61.3832 34.2817 61.3825 34.8415C61.3812 35.9606 61.3798 37.0798 61.3676 38.199C61.3676 38.3394 61.2089 38.5348 61.0746 38.608C60.0061 39.1758 58.8584 39.4872 57.6617 39.6276C56.3247 39.7863 54.9937 39.7253 53.6994 39.3223C51.5198 38.6386 50.1889 37.1489 49.6944 34.9327C49.3769 33.498 49.3769 32.051 49.7005 30.6224C50.2622 28.1498 51.8801 26.7822 54.3161 26.3609C56.5689 25.9702 58.7729 26.2632 60.9036 27.0875C60.9232 27.0959 60.9428 27.1068 60.966 27.1198C60.9933 27.1351 61.0255 27.1531 61.0685 27.1729L61.0807 27.179ZM95.5273 27.1241V26.5746L95.5334 26.5685C95.3795 26.5685 95.2336 26.5699 95.0929 26.5714C94.8263 26.574 94.5785 26.5765 94.3307 26.5685C94.0926 26.5624 94.0254 26.654 94.0254 26.8799C94.0274 27.8342 94.0267 28.7878 94.0261 29.7412C94.0247 31.6484 94.0234 33.5548 94.0437 35.4638C94.062 36.9718 94.7641 38.1135 96.1012 38.8339C96.3454 38.9682 96.5957 39.0964 96.8582 39.1941C98.2685 39.7253 99.7277 39.8108 101.211 39.6276C102.249 39.4994 103.22 39.1941 104.093 38.6019C104.99 37.9914 105.57 37.1794 105.693 36.0805C105.735 35.7019 105.766 35.3173 105.766 34.9388V27.5759C105.766 26.9084 105.436 26.5746 104.777 26.5746C104.431 26.5746 104.258 26.7455 104.258 27.0874C104.258 27.9257 104.258 28.7646 104.259 29.6037C104.261 31.2826 104.262 32.9625 104.258 34.6396C104.252 36.4223 103.379 37.5884 101.669 38.0952C100.637 38.4004 99.5873 38.431 98.5433 38.1868C98.0671 38.0708 97.5909 37.8998 97.1635 37.6617C95.9363 36.984 95.5273 35.8607 95.5273 34.5236V27.1241Z" fill="#161E33"/>
</g>
<defs>
<clipPath id="clip0_662_2621">
<rect width="120" height="64" fill="white"/>
</clipPath>
</defs>
</svg>
