<svg width="106" height="64" viewBox="0 0 106 64" fill="none" xmlns="http://www.w3.org/2000/svg">
<path d="M11.48 22.09V30.565H3.694V22.09H0V42.321H3.695V34.121H11.479V42.321H15.175V22.09H11.48ZM27.002 35.782C27.002 36.5929 26.6799 37.3706 26.1065 37.944C25.5331 38.5174 24.7554 38.8395 23.9445 38.8395C23.1336 38.8395 22.3559 38.5174 21.7825 37.944C21.2091 37.3706 20.887 36.5929 20.887 35.782V27.116H17.382V35.782C17.382 37.5208 18.0727 39.1883 19.3022 40.4178C20.5317 41.6473 22.1992 42.338 23.938 42.338C25.6768 42.338 27.3443 41.6473 28.5738 40.4178C29.8033 39.1883 30.494 37.5208 30.494 35.782V27.116H27.002V35.782ZM52.973 28.009C52.973 26.232 54.148 25.669 55.435 25.669C56.473 25.669 57.843 26.459 58.74 27.417L61.035 24.711C59.889 23.161 57.565 22.09 55.662 22.09C51.859 22.09 49.109 24.317 49.109 28.009C49.109 34.859 57.481 32.685 57.481 36.519C57.481 37.701 56.333 38.745 55.019 38.745C52.946 38.745 52.274 37.732 51.322 36.66L48.774 39.309C50.404 41.309 52.414 42.325 54.821 42.325C58.434 42.325 61.34 40.071 61.34 36.547C61.34 28.943 52.967 31.306 52.967 28.009M104.767 39.089C102.696 39.089 102.107 38.193 102.107 36.821V30.746H105.327V27.668H102.107V23.607L98.553 25.202V37.576C98.553 40.741 100.737 42.336 103.731 42.336C104.201 42.344 104.671 42.306 105.133 42.224L106 39.032C105.609 39.059 105.16 39.086 104.767 39.086M40.344 27.217C38.608 27.217 37.396 27.721 36.224 28.87V22.211H32.714V34.554C32.714 39.174 36.054 42.34 39.808 42.34C43.972 42.34 47.635 39.118 47.635 34.78C47.635 30.496 44.264 27.22 40.344 27.22M40.322 38.807C39.7989 38.807 39.2809 38.704 38.7976 38.5038C38.3143 38.3036 37.8751 38.0102 37.5052 37.6403C37.1353 37.2704 36.8419 36.8312 36.6417 36.3479C36.4415 35.8646 36.3385 35.3466 36.3385 34.8235C36.3385 34.3004 36.4415 33.7824 36.6417 33.2991C36.8419 32.8158 37.1353 32.3767 37.5052 32.0068C37.8751 31.6369 38.3143 31.3434 38.7976 31.1433C39.2809 30.9431 39.7989 30.84 40.322 30.84C41.3785 30.84 42.3917 31.2597 43.1388 32.0068C43.8858 32.7538 44.3055 33.767 44.3055 34.8235C44.3055 35.88 43.8858 36.8932 43.1388 37.6403C42.3917 38.3873 41.3785 38.807 40.322 38.807ZM78.464 34.596C78.464 30.25 74.809 27.036 70.637 27.036C66.884 27.036 63.543 30.201 63.543 34.822V47.172H67.053V40.504C68.223 41.651 69.437 42.157 71.171 42.157C75.091 42.157 78.464 38.881 78.464 34.596ZM75.14 34.552C75.14 35.6085 74.7203 36.6217 73.9733 37.3688C73.2262 38.1158 72.213 38.5355 71.1565 38.5355C70.1 38.5355 69.0868 38.1158 68.3397 37.3688C67.5927 36.6217 67.173 35.6085 67.173 34.552C67.173 33.4955 67.5927 32.4823 68.3397 31.7353C69.0868 30.9882 70.1 30.5685 71.1565 30.5685C72.213 30.5685 73.2262 30.9882 73.9733 31.7353C74.7203 32.4823 75.14 33.4955 75.14 34.552Z" fill="#161E33"/>
<path d="M89.806 26.866V23.339C90.2721 23.1212 90.6667 22.7755 90.9439 22.3421C91.2212 21.9087 91.3696 21.4055 91.372 20.891V20.81C91.372 19.31 90.156 18.094 88.656 18.094H88.575C87.8547 18.094 87.1638 18.3802 86.6545 18.8895C86.1451 19.3989 85.859 20.0897 85.859 20.81V20.891C85.8614 21.4055 86.0098 21.9087 86.287 22.3421C86.5643 22.7755 86.9589 23.1212 87.425 23.339V26.866C86.0854 27.0711 84.8239 27.6265 83.768 28.476L74.095 20.942C74.164 20.693 74.2 20.437 74.204 20.18C74.2052 19.5747 74.0268 18.9827 73.6915 18.4788C73.3561 17.9748 72.8789 17.5817 72.3201 17.3491C71.7613 17.1164 71.146 17.0547 70.5522 17.1718C69.9583 17.2889 69.4125 17.5794 68.9838 18.0067C68.5551 18.434 68.2627 18.9789 68.1437 19.5724C68.0247 20.1659 68.0844 20.7813 68.3152 21.3409C68.546 21.9004 68.9376 22.379 69.4404 22.7159C69.9432 23.0529 70.5347 23.2332 71.14 23.234C71.6695 23.2315 72.1892 23.0901 72.647 22.824L82.172 30.236C81.3163 31.5287 80.8699 33.0491 80.891 34.5992C80.912 36.1493 81.3995 37.6571 82.29 38.926L79.393 41.824C79.1588 41.7491 78.9148 41.7094 78.669 41.706C78.1721 41.7064 77.6865 41.8541 77.2736 42.1304C76.8606 42.4066 76.5388 42.7991 76.3489 43.2583C76.1589 43.7174 76.1093 44.2225 76.2064 44.7098C76.3034 45.1971 76.5427 45.6446 76.894 45.996C77.2454 46.3473 77.6929 46.5866 78.1802 46.6836C78.6675 46.7807 79.1726 46.7311 79.6317 46.5411C80.0909 46.3511 80.4834 46.0294 80.7596 45.6164C81.0359 45.2035 81.1836 44.7179 81.184 44.221C81.1808 43.9752 81.141 43.7312 81.066 43.497L83.932 40.63C84.8666 41.3495 85.9534 41.8456 87.1093 42.0801C88.2652 42.3147 89.4595 42.2816 90.6006 41.9833C91.7417 41.685 92.7995 41.1295 93.6927 40.3593C94.586 39.5891 95.2911 38.6247 95.7541 37.5399C96.217 36.4551 96.4255 35.2787 96.3636 34.1008C96.3017 32.923 95.971 31.775 95.3969 30.7447C94.8227 29.7144 94.0204 28.8292 93.0513 28.1569C92.0822 27.4846 90.9721 27.043 89.806 26.866ZM88.618 38.466C88.0883 38.4806 87.5611 38.3888 87.0675 38.1962C86.5739 38.0036 86.1239 37.714 85.7441 37.3445C85.3643 36.975 85.0624 36.5331 84.8563 36.045C84.6501 35.5569 84.5439 35.0324 84.5439 34.5025C84.5439 33.9726 84.6501 33.4481 84.8563 32.96C85.0624 32.4719 85.3643 32.03 85.7441 31.6605C86.1239 31.2911 86.5739 31.0014 87.0675 30.8088C87.5611 30.6162 88.0883 30.5244 88.618 30.539C89.6446 30.575 90.6171 31.0079 91.3308 31.7467C92.0446 32.4855 92.4437 33.4724 92.4442 34.4996C92.4447 35.5268 92.0466 36.5141 91.3336 37.2536C90.6207 37.9931 89.6485 38.427 88.622 38.464" fill="#161E33"/>
</svg>
