<svg width="152" height="64" viewBox="0 0 152 64" fill="none" xmlns="http://www.w3.org/2000/svg">
<path d="M42.9441 37.816V25.7181H46.1454V30.2222H49.7562V25.7181H52.9575V37.816H49.7562V33.0141H46.1454V37.816H42.9441ZM58.1993 38.0393C57.1819 38.0393 56.4436 37.6981 55.9845 37.0157C55.5254 36.3208 55.2959 35.3964 55.2959 34.2424V28.51H58.4972V33.833C58.4972 34.4287 58.5717 34.8256 58.7205 35.0241C58.8818 35.2227 59.1176 35.3219 59.4278 35.3219C59.7255 35.3219 59.9737 35.2599 60.1723 35.1359C60.3708 35.0118 60.5694 34.8008 60.7679 34.503V28.51H63.9692V37.816H61.3634L61.14 36.5877H61.0656C60.6934 37.0343 60.2777 37.388 59.8186 37.6486C59.372 37.9091 58.8322 38.0393 58.1993 38.0393ZM69.5178 41.6501C68.8106 41.6501 68.1591 41.5695 67.5635 41.4082C66.968 41.2592 66.4903 41.0173 66.1305 40.6822C65.7829 40.3473 65.6093 39.9005 65.6093 39.3421C65.6093 38.6102 66.0435 38.0145 66.9122 37.5554V37.4809C66.6743 37.3051 66.4668 37.0912 66.2979 36.8482C66.1366 36.5877 66.056 36.2649 66.056 35.8803C66.056 35.5577 66.1491 35.2413 66.3352 34.9312C66.5337 34.6209 66.7881 34.3542 67.0982 34.1309V34.0564C66.7632 33.833 66.4655 33.5166 66.205 33.107C65.9567 32.6852 65.8327 32.2075 65.8327 31.674C65.8327 30.9046 66.0187 30.2719 66.391 29.7756C66.7757 29.2668 67.272 28.8946 67.8799 28.6588C68.488 28.4107 69.1332 28.2865 69.8156 28.2865C70.3615 28.2865 70.8579 28.361 71.3045 28.51H74.7665V30.8178H73.4264C73.4635 30.9296 73.4946 31.0723 73.5194 31.2458C73.5566 31.4196 73.5753 31.5995 73.5753 31.7856C73.5753 32.5177 73.4078 33.1134 73.0728 33.5725C72.7377 34.0191 72.2849 34.348 71.7141 34.5589C71.1432 34.7699 70.5105 34.8753 69.8156 34.8753C69.5055 34.8753 69.158 34.8319 68.7734 34.7449C68.6244 34.8814 68.55 35.0614 68.55 35.2847C68.55 35.4832 68.6493 35.6259 68.8479 35.7129C69.0587 35.7997 69.3938 35.8431 69.8529 35.8431H71.2488C72.4151 35.8431 73.3147 36.0354 73.9476 36.4201C74.5928 36.7924 74.9153 37.4064 74.9153 38.2626C74.9153 38.9328 74.692 39.5221 74.2454 40.0309C73.8111 40.5395 73.1907 40.9366 72.384 41.222C71.5775 41.5075 70.6221 41.6501 69.5178 41.6501ZM69.8156 32.9769C70.1134 32.9769 70.3554 32.8714 70.5414 32.6604C70.7277 32.4496 70.8206 32.1207 70.8206 31.674C70.8206 31.2397 70.7277 30.9233 70.5414 30.7247C70.3554 30.5139 70.1134 30.4085 69.8156 30.4085C69.5178 30.4085 69.2759 30.5139 69.0898 30.7247C68.9036 30.9233 68.8106 31.2397 68.8106 31.674C68.8106 32.1207 68.9036 32.4496 69.0898 32.6604C69.2759 32.8714 69.5178 32.9769 69.8156 32.9769ZM70.0389 39.6772C70.5601 39.6772 70.9944 39.5966 71.3418 39.4353C71.6893 39.2863 71.8629 39.0816 71.8629 38.821C71.8629 38.5729 71.7513 38.4178 71.528 38.3558C71.317 38.2937 71.013 38.2626 70.6159 38.2626H69.8901C69.5178 38.2626 69.2325 38.2503 69.0339 38.2254C68.8479 38.2131 68.6866 38.1883 68.55 38.1511C68.3267 38.3744 68.215 38.5977 68.215 38.821C68.215 39.1188 68.3824 39.336 68.7175 39.4725C69.065 39.609 69.5055 39.6772 70.0389 39.6772ZM79.6782 41.6501C78.9709 41.6501 78.3195 41.5695 77.7239 41.4082C77.1283 41.2592 76.6506 41.0173 76.2907 40.6822C75.9434 40.3473 75.7696 39.9005 75.7696 39.3421C75.7696 38.6102 76.2039 38.0145 77.0724 37.5554V37.4809C76.8345 37.3051 76.627 37.0912 76.4583 36.8482C76.2969 36.5877 76.2162 36.2649 76.2162 35.8803C76.2162 35.5577 76.3093 35.2413 76.4954 34.9312C76.694 34.6209 76.9484 34.3542 77.2587 34.1309V34.0564C76.9236 33.833 76.6258 33.5166 76.3652 33.107C76.117 32.6852 75.9929 32.2075 75.9929 31.674C75.9929 30.9046 76.1792 30.2719 76.5513 29.7756C76.9359 29.2668 77.4322 28.8946 78.0403 28.6588C78.6483 28.4107 79.2934 28.2865 79.9759 28.2865C80.5219 28.2865 81.0183 28.361 81.4649 28.51H84.9268V30.8178H83.5867C83.6239 30.9296 83.6549 31.0723 83.6798 31.2458C83.7169 31.4196 83.7355 31.5995 83.7355 31.7856C83.7355 32.5177 83.5681 33.1134 83.233 33.5725C82.8981 34.0191 82.4452 34.348 81.8743 34.5589C81.3036 34.7699 80.6708 34.8753 79.9759 34.8753C79.6658 34.8753 79.3184 34.8319 78.9336 34.7449C78.7848 34.8814 78.7103 35.0614 78.7103 35.2847C78.7103 35.4832 78.8096 35.6259 79.0081 35.7129C79.2191 35.7997 79.554 35.8431 80.0131 35.8431H81.4091C82.5754 35.8431 83.4749 36.0354 84.1078 36.4201C84.753 36.7924 85.0756 37.4064 85.0756 38.2626C85.0756 38.9328 84.8523 39.5221 84.4056 40.0309C83.9713 40.5395 83.3509 40.9366 82.5444 41.222C81.738 41.5075 80.7825 41.6501 79.6782 41.6501ZM79.9759 32.9769C80.2737 32.9769 80.5156 32.8714 80.7019 32.6604C80.8879 32.4496 80.9811 32.1207 80.9811 31.674C80.9811 31.2397 80.8879 30.9233 80.7019 30.7247C80.5156 30.5139 80.2737 30.4085 79.9759 30.4085C79.6782 30.4085 79.4361 30.5139 79.25 30.7247C79.064 30.9233 78.9709 31.2397 78.9709 31.674C78.9709 32.1207 79.064 32.4496 79.25 32.6604C79.4361 32.8714 79.6782 32.9769 79.9759 32.9769ZM80.1994 39.6772C80.7205 39.6772 81.1546 39.5966 81.5022 39.4353C81.8495 39.2863 82.0233 39.0816 82.0233 38.821C82.0233 38.5729 81.9116 38.4178 81.6882 38.3558C81.4774 38.2937 81.1733 38.2626 80.7762 38.2626H80.0504C79.6782 38.2626 79.3927 38.2503 79.1942 38.2254C79.0081 38.2131 78.8468 38.1883 78.7103 38.1511C78.487 38.3744 78.3752 38.5977 78.3752 38.821C78.3752 39.1188 78.5429 39.336 78.8779 39.4725C79.2253 39.609 79.6658 39.6772 80.1994 39.6772ZM86.4511 37.816V28.51H89.6524V37.816H86.4511ZM88.0518 27.356C87.5306 27.356 87.1086 27.2133 86.786 26.928C86.4634 26.6302 86.3021 26.2392 86.3021 25.7554C86.3021 25.2715 86.4634 24.8867 86.786 24.6014C87.1086 24.3035 87.5306 24.1547 88.0518 24.1547C88.5729 24.1547 88.9948 24.3035 89.3174 24.6014C89.6399 24.8867 89.8012 25.2715 89.8012 25.7554C89.8012 26.2392 89.6399 26.6302 89.3174 26.928C88.9948 27.2133 88.5729 27.356 88.0518 27.356ZM91.813 37.816V28.51H94.4186L94.642 29.6266H94.7165C95.0886 29.2668 95.5106 28.9566 95.982 28.6961C96.4659 28.423 97.0243 28.2865 97.6572 28.2865C98.6869 28.2865 99.4252 28.6341 99.872 29.329C100.331 30.0114 100.561 30.9296 100.561 32.0834V37.816H97.3594V32.493C97.3594 31.8973 97.2849 31.5003 97.136 31.3017C96.987 31.1032 96.7514 31.0039 96.4287 31.0039C96.131 31.0039 95.8828 31.0659 95.6842 31.1902C95.4857 31.3142 95.2624 31.488 95.0143 31.7113V37.816H91.813ZM106.033 41.6501C105.326 41.6501 104.674 41.5695 104.079 41.4082C103.483 41.2592 103.006 41.0173 102.646 40.6822C102.298 40.3473 102.125 39.9005 102.125 39.3421C102.125 38.6102 102.559 38.0145 103.428 37.5554V37.4809C103.19 37.3051 102.982 37.0912 102.813 36.8482C102.652 36.5877 102.571 36.2649 102.571 35.8803C102.571 35.5577 102.664 35.2413 102.851 34.9312C103.049 34.6209 103.303 34.3542 103.614 34.1309V34.0564C103.279 33.833 102.981 33.5166 102.72 33.107C102.472 32.6852 102.348 32.2075 102.348 31.674C102.348 30.9046 102.534 30.2719 102.906 29.7756C103.291 29.2668 103.787 28.8946 104.395 28.6588C105.003 28.4107 105.649 28.2865 106.331 28.2865C106.877 28.2865 107.373 28.361 107.82 28.51H111.282V30.8178H109.942C109.979 30.9296 110.01 31.0723 110.035 31.2458C110.072 31.4196 110.091 31.5995 110.091 31.7856C110.091 32.5177 109.923 33.1134 109.588 33.5725C109.253 34.0191 108.8 34.348 108.229 34.5589C107.659 34.7699 107.026 34.8753 106.331 34.8753C106.021 34.8753 105.673 34.8319 105.289 34.7449C105.14 34.8814 105.065 35.0614 105.065 35.2847C105.065 35.4832 105.165 35.6259 105.363 35.7129C105.574 35.7997 105.909 35.8431 106.368 35.8431H107.764C108.93 35.8431 109.83 36.0354 110.463 36.4201C111.108 36.7924 111.431 37.4064 111.431 38.2626C111.431 38.9328 111.207 39.5221 110.761 40.0309C110.326 40.5395 109.706 40.9366 108.899 41.222C108.093 41.5075 107.137 41.6501 106.033 41.6501ZM106.331 32.9769C106.629 32.9769 106.871 32.8714 107.057 32.6604C107.243 32.4496 107.336 32.1207 107.336 31.674C107.336 31.2397 107.243 30.9233 107.057 30.7247C106.871 30.5139 106.629 30.4085 106.331 30.4085C106.033 30.4085 105.791 30.5139 105.605 30.7247C105.419 30.9233 105.326 31.2397 105.326 31.674C105.326 32.1207 105.419 32.4496 105.605 32.6604C105.791 32.8714 106.033 32.9769 106.331 32.9769ZM106.554 39.6772C107.075 39.6772 107.51 39.5966 107.857 39.4353C108.205 39.2863 108.378 39.0816 108.378 38.821C108.378 38.5729 108.267 38.4178 108.043 38.3558C107.832 38.2937 107.528 38.2626 107.131 38.2626H106.405C106.033 38.2626 105.748 38.2503 105.549 38.2254C105.363 38.2131 105.202 38.1883 105.065 38.1511C104.842 38.3744 104.73 38.5977 104.73 38.821C104.73 39.1188 104.898 39.336 105.233 39.4725C105.58 39.609 106.021 39.6772 106.554 39.6772ZM116.793 37.816V25.7181H124.684V28.3983H119.994V30.7061H124.014V33.3862H119.994V37.816H116.793ZM128.185 38.0393C127.602 38.0393 127.099 37.9091 126.677 37.6486C126.275 37.3829 125.948 37.0174 125.728 36.5877C125.505 36.1533 125.393 35.6818 125.393 35.1731C125.393 34.2052 125.79 33.4484 126.584 32.9024C127.379 32.344 128.669 31.9718 130.456 31.7856C130.381 31.1404 129.947 30.8178 129.153 30.8178C128.818 30.8178 128.464 30.886 128.092 31.0225C127.72 31.1466 127.292 31.339 126.808 31.5995L125.691 29.515C126.349 29.1179 127.013 28.814 127.682 28.603C128.364 28.3923 129.073 28.2856 129.786 28.2865C131.002 28.2865 131.951 28.6341 132.633 29.329C133.316 30.0114 133.657 31.1157 133.657 32.6418V37.816H131.051L130.828 36.9226H130.754C130.381 37.2576 129.984 37.5307 129.562 37.7415C129.153 37.94 128.694 38.0393 128.185 38.0393ZM129.302 35.5825C129.562 35.5825 129.779 35.5266 129.953 35.4151C130.127 35.291 130.294 35.1359 130.456 34.9498V33.684C129.699 33.7958 129.172 33.9632 128.874 34.1866C128.588 34.41 128.446 34.652 128.446 34.9125C128.446 35.3592 128.731 35.5825 129.302 35.5825ZM139.95 38.0393C139.069 38.0393 138.275 37.8469 137.568 37.4623C136.861 37.0777 136.296 36.5255 135.874 35.8058C135.465 35.0738 135.26 34.1929 135.26 33.1629C135.26 32.1331 135.49 31.2583 135.949 30.5387C136.42 29.8065 137.035 29.2483 137.791 28.8635C138.548 28.4789 139.367 28.2865 140.248 28.2865C140.806 28.2865 141.309 28.3735 141.756 28.5471C142.215 28.7209 142.618 28.9566 142.965 29.2545L141.477 31.3017C141.278 31.1281 141.098 31.0102 140.937 30.9482C140.777 30.8862 140.606 30.8547 140.434 30.8551C139.839 30.8551 139.373 31.0659 139.038 31.488C138.703 31.8973 138.536 32.4557 138.536 33.1629C138.536 33.8703 138.71 34.4348 139.057 34.8567C139.404 35.2661 139.826 35.4709 140.323 35.4709C140.583 35.4709 140.838 35.4151 141.086 35.3033C141.34 35.183 141.583 35.0396 141.812 34.8753L143.04 36.9598C142.581 37.3694 142.072 37.6547 141.514 37.816C140.955 37.9648 140.434 38.0393 139.95 38.0393ZM148.278 38.0393C147.372 38.0393 146.553 37.8469 145.821 37.4623C145.101 37.0777 144.53 36.5255 144.108 35.8058C143.687 35.0738 143.476 34.1929 143.476 33.1629C143.476 32.1579 143.687 31.2956 144.108 30.5759C144.543 29.8438 145.101 29.2792 145.784 28.8821C146.466 28.4851 147.186 28.2865 147.943 28.2865C148.861 28.2865 149.618 28.4914 150.213 28.9008C150.821 29.2979 151.268 29.8376 151.553 30.52C151.851 31.2024 152 31.9594 152 32.7908C152 33.0636 151.981 33.3305 151.944 33.5911C151.919 33.8392 151.894 34.0191 151.87 34.1309H146.565C146.714 34.6892 146.981 35.08 147.366 35.3033C147.75 35.5143 148.203 35.6197 148.724 35.6197C149.32 35.6197 149.953 35.4337 150.623 35.0614L151.665 36.9598C151.169 37.3072 150.61 37.5741 149.99 37.7601C149.369 37.9462 148.799 38.0393 148.278 38.0393ZM146.528 32.0462H149.283C149.283 31.6863 149.189 31.3762 149.003 31.1157C148.83 30.8426 148.501 30.7061 148.017 30.7061C147.669 30.7061 147.359 30.8117 147.086 31.0225C146.813 31.2335 146.627 31.5748 146.528 32.0462Z" fill="#161E33"/>
<path fill-rule="evenodd" clip-rule="evenodd" d="M18.0334 14.8933C21.0682 14.8933 23.908 15.7366 26.3292 17.2071C26.7674 17.4749 27.1938 17.7623 27.6058 18.0689C27.8105 18.222 28.0107 18.3812 28.207 18.5449C28.4063 18.7062 28.601 18.8732 28.7896 19.0468C29.3583 19.5633 29.8889 20.1207 30.377 20.7139C30.5417 20.9107 30.7 21.113 30.852 21.3197C31.162 21.7292 31.4494 22.1551 31.7138 22.5954C32.1167 23.2574 32.4714 23.9476 32.7752 24.6605C32.9777 25.1419 33.1575 25.633 33.3123 26.1319C33.5484 26.8911 33.7277 27.6672 33.8485 28.4531C33.8873 28.7194 33.9202 28.987 33.9478 29.2547C34.0005 29.7907 34.0322 30.3349 34.0322 30.8903C34.0315 32.107 33.8907 33.32 33.6138 34.5047C34.0357 34.6693 34.4344 34.9372 34.806 35.3434C35.492 36.0873 35.856 37.0488 35.7105 38.0988C35.688 38.264 35.6542 38.4275 35.6103 38.5886C35.8153 38.8946 35.9687 39.2326 36.063 39.5887C36.2737 40.3893 36.2042 41.1136 35.9387 41.7466C36.2261 42.5742 36.1576 43.4557 35.7745 44.2218C35.4985 44.7813 35.104 45.2145 34.6213 45.6014C34.0387 46.0606 33.314 46.4513 32.4402 46.8269C31.3975 47.2712 30.1263 47.6896 29.5438 47.8428C28.0532 48.2304 26.6199 48.4752 25.1677 48.4866C23.0912 48.5065 21.3026 48.0156 20.0299 46.7629C19.3679 46.8451 18.7006 46.8867 18.0334 46.8881C17.4021 46.8883 16.7711 46.8499 16.1446 46.7731C14.8686 48.0182 13.0869 48.505 11.0179 48.4857C9.56547 48.4739 8.13247 48.2289 6.63805 47.8418C6.05951 47.6886 4.78759 47.2705 3.74537 46.826C2.87161 46.4512 2.14655 46.0602 1.56797 45.6004C1.08165 45.2135 0.686858 44.7803 0.411086 44.2209C0.0319118 43.4548 -0.0405005 42.5733 0.250588 41.7457C-0.0172968 41.1127 -0.0873344 40.39 0.123488 39.5887C0.218016 39.2326 0.371332 38.8948 0.576223 38.5886C0.531947 38.4263 0.49799 38.261 0.476027 38.0941C0.330394 37.0445 0.694841 36.0867 1.38057 35.3434C1.71771 34.9718 2.0819 34.715 2.46138 34.5502C2.17853 33.3512 2.03533 32.1231 2.03555 30.8912C2.03555 22.0555 9.19748 14.8935 18.0334 14.8933ZM17.9137 16.0418C17.6665 16.0419 17.4205 16.0475 17.1762 16.0595C16.5042 16.0923 15.8439 16.1703 15.1983 16.2896C15.0368 16.3194 14.8764 16.3529 14.7168 16.3879C14.5117 16.4329 14.3082 16.482 14.1063 16.5354C13.956 16.5752 13.8066 16.6173 13.6582 16.6616C13.4468 16.7247 13.2375 16.7926 13.0301 16.8647C12.7737 16.954 12.5202 17.0496 12.2703 17.1523C6.86802 19.3733 3.06365 24.6871 3.06348 30.8903C3.06206 32.3936 3.28931 33.8888 3.73702 35.3239H3.72218C3.65141 35.3239 3.58147 35.3277 3.51251 35.3341C3.00248 35.3811 2.54615 35.6008 2.21182 35.965C1.72478 36.4958 1.50812 37.1484 1.6023 37.801C1.64531 38.1009 1.74817 38.3891 1.90567 38.648C1.57854 38.9128 1.33748 39.2818 1.221 39.7251C1.14066 40.032 1.12598 40.3527 1.17832 40.6658C1.23071 40.9788 1.34932 41.2774 1.5253 41.5416C1.49389 41.5902 1.46511 41.6412 1.43809 41.6928C1.14471 42.2499 1.12524 42.8795 1.38428 43.4657C1.77694 44.3542 2.75311 45.0542 4.64806 45.8055C5.81805 46.2697 6.89087 46.5676 6.91544 46.5746C8.47407 46.9788 9.88385 47.185 11.1042 47.185C11.4682 47.185 11.8158 47.1654 12.146 47.1293C12.1718 47.1265 12.1974 47.1231 12.223 47.1201C12.6451 47.0699 13.0388 46.9904 13.404 46.8807C13.464 46.8627 13.5228 46.8428 13.5812 46.8232C13.6868 46.7878 13.7897 46.7497 13.8902 46.7091C13.9681 46.6776 14.0444 46.6445 14.1193 46.6098C14.2058 46.5698 14.2902 46.5278 14.3726 46.4836C14.5596 46.3834 14.7356 46.2723 14.9014 46.1506C15.0042 46.0751 15.1037 45.9968 15.1983 45.9131C15.3258 45.8003 15.4466 45.6808 15.5592 45.5531L16.1659 45.6366C16.9771 45.7316 17.7941 45.7607 18.6086 45.7229C19.2197 45.6946 19.8295 45.6283 20.4344 45.5253C21.0303 46.2136 21.8409 46.6901 22.8586 46.9503C22.9604 46.9763 23.0644 47 23.1703 47.0217C23.6998 47.1302 24.2811 47.185 24.9126 47.185C26.1032 47.185 27.4736 46.9873 28.9872 46.6024C29.0253 46.5927 29.064 46.5845 29.1022 46.5746C29.1059 46.5735 29.1809 46.5494 29.3119 46.5105C29.5188 46.4492 29.8627 46.3443 30.2768 46.2035C30.3891 46.1653 30.5071 46.1261 30.6284 46.0829C30.8267 46.0122 31.0351 45.9348 31.2481 45.8519C31.2882 45.8362 31.3292 45.8215 31.3696 45.8055C31.5048 45.7519 31.6352 45.6981 31.7611 45.645C32.0336 45.53 32.2843 45.415 32.5154 45.3008C32.6226 45.2478 32.7257 45.1952 32.8243 45.1421C33.1257 44.9799 33.3873 44.8162 33.6138 44.6495C33.6911 44.5926 33.7636 44.5347 33.8328 44.4769C33.8941 44.4257 33.9521 44.3741 34.0072 44.322C34.2931 44.0517 34.4985 43.7708 34.6334 43.4657C34.8925 42.8796 34.8739 42.2498 34.5805 41.6928C34.5536 41.6412 34.5235 41.5897 34.4924 41.5416C34.6682 41.2772 34.787 40.9789 34.8394 40.6658C34.8917 40.3527 34.8769 40.0321 34.7967 39.7251C34.68 39.2818 34.4382 38.9126 34.1111 38.648C34.2687 38.389 34.3723 38.101 34.4154 37.801C34.5097 37.1487 34.2928 36.4967 33.8059 35.9659C33.4266 35.5526 32.8901 35.3249 32.2964 35.3248C32.2276 35.3248 32.1564 35.3279 32.0849 35.335C32.5353 33.8965 32.7641 32.3976 32.7631 30.8903C32.763 22.6895 26.115 16.0418 17.9137 16.0418Z" fill="#161E33"/>
<path d="M6.03416 35.9093C5.84142 34.8407 6.41694 34.5503 7.23465 35.0688C8.05267 35.588 9.62936 38.2978 10.2071 39.3521C10.7849 40.4064 12.5837 39.6445 11.0829 38.5209C9.58259 37.3974 10.1083 35.5623 10.825 35.4492C11.5369 35.337 11.8523 36.5475 11.8566 36.5643C11.8566 36.5643 12.6986 38.6789 14.1454 40.1249C15.5922 41.5709 15.6672 42.732 14.6129 44.2784C13.1469 46.4267 8.95211 45.5195 7.30052 45.0911C7.25564 45.0797 2.14741 43.634 2.79451 42.4062C3.13687 41.7568 4.18312 42.3326 5.13797 42.858C5.98856 43.326 6.76642 43.7534 6.90995 43.2403C7.04792 42.7453 6.10613 42.381 5.07674 41.9823C3.84093 41.5035 2.47898 40.9752 2.70545 40.1138C2.96705 39.1188 4.81878 40.2307 6.22342 41.074C7.04746 41.5688 7.71795 41.9707 7.82284 41.8014C8.10654 41.3431 7.95026 41.0235 5.94974 39.8123C5.79288 39.7174 5.6393 39.6252 5.49051 39.5358C3.74151 38.4857 2.60657 37.8037 3.34187 37.0022C4.14043 36.1323 7.80892 39.47 7.80892 39.47C7.82521 39.4869 8.98252 40.6839 9.31278 40.1277C9.48016 39.8457 8.69654 39.0489 7.85253 38.1906C7.02065 37.3449 6.13003 36.4398 6.03416 35.9093Z" fill="#161E33"/>
<path d="M28.7832 35.0688C29.6009 34.5503 30.1764 34.8407 29.9837 35.9093C29.8878 36.4397 28.9973 37.3449 28.1653 38.1906C27.3214 39.0487 26.5376 39.8457 26.705 40.1277C27.0366 40.6865 28.204 39.475 28.2098 39.469C28.2098 39.469 31.8772 36.1316 32.676 37.0013C33.412 37.803 32.2766 38.4844 30.5273 39.5349C30.3786 39.6241 30.2258 39.7164 30.069 39.8114C28.068 41.0226 27.9122 41.3424 28.1959 41.8004C28.3008 41.9698 28.9706 41.5677 29.7944 41.0731C31.1992 40.2298 33.0516 39.1181 33.3133 40.1129C33.5398 40.9743 32.1771 41.5026 30.9411 41.9813C29.9115 42.3802 28.9696 42.745 29.1079 43.2403C29.2515 43.7534 30.0296 43.3251 30.8799 42.8571C31.8348 42.3316 32.8818 41.7554 33.2242 42.4053C33.8706 43.6325 28.7737 45.0743 28.7173 45.0893C27.0657 45.5188 22.8712 46.4267 21.4058 44.2784C20.3513 42.7319 20.4265 41.5709 21.8734 40.1249C23.3201 38.6789 24.1621 36.5643 24.1621 36.5643C24.1667 36.5464 24.4816 35.3376 25.1928 35.4492C25.9097 35.562 26.4359 37.3973 24.9349 38.5209C23.4342 39.6444 25.2337 40.4064 25.8116 39.3521C26.3893 38.2977 27.9654 35.5877 28.7832 35.0688Z" fill="#161E33"/>
<path fill-rule="evenodd" clip-rule="evenodd" d="M17.9147 17.5754C25.2689 17.5754 31.2285 23.5367 31.2287 30.8903V31.0628C31.2287 31.0863 31.2283 31.1098 31.2278 31.1333V31.1491C31.2278 31.1674 31.2264 31.1855 31.2259 31.2038V31.2196C31.2259 31.2379 31.2247 31.2565 31.224 31.2743V31.2827C31.224 31.3018 31.2231 31.321 31.2222 31.3402L31.2213 31.3634V31.3653C31.2202 31.3967 31.219 31.4282 31.2176 31.459L31.2148 31.5406L31.2138 31.5601L31.2092 31.6454V31.6473C31.2001 31.8095 31.1876 31.9716 31.173 32.1334L31.1665 32.2067C31.1637 32.238 31.1606 32.2691 31.1572 32.3004L31.1554 32.3162C31.1535 32.335 31.1512 32.3541 31.1489 32.3728C31.1438 32.4199 31.1386 32.4668 31.1331 32.5138L31.1248 32.5852L31.1136 32.6697L31.1118 32.6845C31.1085 32.7102 31.1043 32.7359 31.1007 32.7615C31.0961 32.7952 31.0916 32.8291 31.0867 32.8626L31.0858 32.8636L31.0738 32.9443L31.0617 33.024L31.0598 33.0352C31.0551 33.0658 31.0499 33.0966 31.0441 33.127C31.0404 33.1463 31.037 33.1654 31.0339 33.1845C31.0219 33.2559 31.0086 33.3279 30.9949 33.3989C30.9837 33.4565 30.9721 33.5141 30.9606 33.5714C30.9416 33.6634 30.9217 33.7553 30.9012 33.847C30.5264 33.4829 30.0302 33.2838 29.4827 33.2838C28.986 33.2838 28.4751 33.4486 27.964 33.7727C27.6249 33.9882 27.2505 34.3701 26.8646 34.8498C26.5071 34.354 26.006 34.0241 25.434 33.9342C25.3251 33.9168 25.215 33.9084 25.1047 33.9082C23.7978 33.9082 23.0115 35.0416 22.7139 36.0615C22.5663 36.406 21.8577 37.9762 20.7926 39.0404C19.1769 40.6551 18.7675 42.3203 19.5578 44.104L19.4826 44.1133C19.4401 44.1184 19.3973 44.1234 19.3546 44.1281C19.2876 44.1351 19.2199 44.1413 19.1523 44.1476L19.0865 44.1541L18.9408 44.1652C18.9096 44.1677 18.8784 44.1707 18.8471 44.1727L18.7525 44.1791L18.7321 44.1801L18.7043 44.1819L18.6579 44.1838L18.6263 44.1856C18.597 44.1872 18.5675 44.189 18.5382 44.1903L18.4361 44.1949L18.2821 44.1996H18.2506C18.2402 44.1996 18.2294 44.2001 18.219 44.2005H18.1615C18.1423 44.2005 18.1232 44.2004 18.104 44.2014L18.0252 44.2023H17.9157C17.8121 44.2023 17.7085 44.2011 17.6049 44.1986H17.5882C17.5725 44.1986 17.5563 44.1982 17.5409 44.1977L17.5288 44.1968L17.4546 44.1949L17.3637 44.1912L17.2811 44.1875L17.2598 44.1866L17.1809 44.1829L17.1559 44.181L17.116 44.1791L17.0649 44.1754C17.001 44.1712 16.9373 44.1674 16.8738 44.1624L16.807 44.1569C16.7828 44.1551 16.7578 44.1527 16.7337 44.1504L16.7226 44.1495C16.6898 44.1467 16.6571 44.1433 16.6243 44.1402C16.5691 44.1351 16.5139 44.1295 16.4591 44.1235H16.4563C17.2591 42.3324 16.8532 40.6596 15.2308 39.0386C14.1637 37.9774 13.4556 36.4088 13.3085 36.0633C13.0113 35.0436 12.2243 33.9093 10.9178 33.9091C10.8074 33.9093 10.6968 33.9179 10.5875 33.9351C10.0151 34.025 9.51487 34.3548 9.15785 34.8508C8.77201 34.3709 8.39666 33.9891 8.05756 33.7737C7.54652 33.4496 7.03601 33.2857 6.53885 33.2857C5.91864 33.2858 5.36395 33.5399 4.97747 34.0019L4.9682 34.0139C4.96258 33.9913 4.95676 33.9687 4.9515 33.9462L4.94593 33.923L4.945 33.9184C4.88614 33.6665 4.8356 33.4125 4.79193 33.1576C4.77674 33.07 4.76234 32.9821 4.74925 32.8942L4.74832 32.8886C4.74248 32.8497 4.73616 32.8108 4.7307 32.7717C4.72152 32.7069 4.71284 32.6418 4.70472 32.5769L4.69266 32.4795L4.68245 32.3867L4.68153 32.3793C4.66745 32.2529 4.65494 32.1256 4.64442 31.9989L4.64071 31.9553V31.9507C4.6386 31.9256 4.63689 31.8998 4.63514 31.8746L4.63421 31.8672C4.63227 31.8413 4.6311 31.8151 4.62957 31.7892L4.62864 31.7837C4.62654 31.7532 4.62483 31.7225 4.62308 31.6918C4.62097 31.6588 4.61927 31.6248 4.61751 31.5916V31.5898L4.61195 31.4924V31.4886L4.60916 31.4052L4.60823 31.3792L4.60545 31.2985L4.6036 31.2307C4.6036 31.2139 4.60302 31.1966 4.60267 31.1797L4.60174 31.1491L4.60081 31.1259L4.59988 31.0628C4.60015 31.0342 4.5998 31.0052 4.59896 30.9765C4.59861 30.9575 4.59878 30.9381 4.59896 30.919L4.59988 30.8903C4.60009 23.5371 10.5611 17.5756 17.9147 17.5754ZM22.7993 31.3792C22.7991 30.4836 22.1954 30.7661 21.2305 31.2437L21.1767 31.2706C20.2906 31.7094 19.1109 32.293 17.8164 32.293C16.5218 32.2929 15.3427 31.7084 14.4571 31.2697C13.4607 30.7762 12.8354 30.4674 12.8354 31.3801C12.8355 32.5494 13.3949 34.469 14.9293 35.5846C15.1317 35.1736 15.4171 34.8089 15.767 34.5131C16.1168 34.2173 16.5239 33.9967 16.9629 33.8655C17.1161 33.8198 17.2744 34.0836 17.436 34.3535C17.5919 34.614 17.7508 34.8804 17.9129 34.8804C18.0853 34.8803 18.2548 34.618 18.4204 34.3618C18.5934 34.0941 18.7628 33.8328 18.926 33.885C19.7474 34.1488 20.4344 34.7207 20.8427 35.4807C22.2734 34.3534 22.7993 32.5128 22.7993 31.3792ZM9.34154 26.606C9.01848 26.5413 8.68278 26.6075 8.40824 26.7897C8.27178 26.8802 8.15447 26.997 8.06312 27.1329C7.97178 27.2691 7.90793 27.4223 7.87572 27.5829C7.84357 27.7436 7.84388 27.9093 7.87572 28.0699C7.9076 28.2304 7.97027 28.3838 8.06127 28.5199C8.15231 28.6561 8.27011 28.7731 8.40638 28.8641C8.5426 28.9547 8.69575 29.0179 8.85634 29.0496C9.01684 29.0812 9.18209 29.0809 9.34247 29.0487C9.50311 29.0164 9.65646 28.9519 9.79242 28.8604C10.0656 28.6764 10.2547 28.3914 10.3184 28.0681C10.3822 27.7448 10.315 27.4098 10.132 27.1357C9.94879 26.8617 9.66471 26.6708 9.34154 26.606ZM27.1596 26.606C26.8366 26.5413 26.5009 26.6075 26.2263 26.7897C26.0899 26.8802 25.9726 26.997 25.8812 27.1329C25.7899 27.2691 25.726 27.4223 25.6938 27.5829C25.6617 27.7436 25.662 27.9093 25.6938 28.0699C25.7256 28.2304 25.7882 28.3838 25.8794 28.5199C25.9704 28.6562 26.0882 28.7731 26.2245 28.8641C26.3607 28.9547 26.5139 29.0179 26.6744 29.0496C26.8351 29.0812 27.001 29.081 27.1615 29.0487C27.322 29.0164 27.4746 28.9519 27.6105 28.8604C27.8838 28.6764 28.0728 28.3915 28.1365 28.0681C28.2003 27.7448 28.1331 27.4098 27.9501 27.1357C27.7668 26.8617 27.4827 26.6708 27.1596 26.606ZM12.9319 24.5733C12.6488 24.574 12.3693 24.6373 12.1136 24.7589C11.8578 24.8805 11.6315 25.0572 11.4521 25.2765C11.2732 25.4959 11.1448 25.7523 11.0764 26.0271C11.0082 26.302 11.002 26.589 11.0579 26.8667C11.1137 27.1444 11.231 27.4058 11.4002 27.633C11.5694 27.8602 11.7866 28.0473 12.0366 28.1803C12.3202 28.331 12.5051 28.0633 12.7037 27.7758C12.8504 27.5635 13.0048 27.3401 13.2121 27.2665C13.4039 27.1987 13.6555 27.299 13.8967 27.3955C14.2046 27.5186 14.496 27.6353 14.6278 27.3881C14.8057 27.0536 14.8809 26.674 14.843 26.297C14.8049 25.92 14.6555 25.5624 14.4144 25.27C14.2342 25.0516 14.0074 24.8756 13.7511 24.7551C13.4948 24.6348 13.215 24.5727 12.9319 24.5733ZM22.8011 24.5937C22.5209 24.5516 22.2347 24.5723 21.9634 24.654C21.6006 24.7633 21.2786 24.9778 21.0375 25.27C20.7966 25.5624 20.647 25.9201 20.6089 26.297C20.5711 26.6739 20.6464 27.0536 20.8241 27.3881C20.9555 27.635 21.2466 27.5186 21.5543 27.3955C21.7956 27.2991 22.0471 27.199 22.2389 27.2665C22.4464 27.34 22.6014 27.5633 22.7483 27.7758C22.9468 28.0635 23.1317 28.3311 23.4153 28.1803C23.7499 28.0025 24.0236 27.7292 24.2029 27.3955C24.3823 27.0618 24.4591 26.6825 24.4228 26.3054C24.3958 26.0234 24.3063 25.7508 24.1612 25.5075C24.0161 25.2643 23.8191 25.0559 23.5841 24.898C23.3489 24.7401 23.0812 24.6359 22.8011 24.5937Z" fill="#161E33"/>
<path d="M20.8427 35.4807C20.0975 36.0679 19.1074 36.4615 17.8178 36.4615C16.606 36.4615 15.6572 36.1136 14.9293 35.5846C15.1317 35.1736 15.4171 34.8089 15.767 34.5131C16.1168 34.2173 16.5239 33.9967 16.9629 33.8655C17.2639 33.7757 17.5829 34.8804 17.9129 34.8804C18.2662 34.8804 18.6066 33.7829 18.926 33.885C19.7474 34.1488 20.4344 34.7207 20.8427 35.4807Z" fill="#161E33"/>
</svg>
