<svg width="96" height="64" viewBox="0 0 96 64" fill="none" xmlns="http://www.w3.org/2000/svg">
<g clip-path="url(#clip0_1773_13359)">
<path fill-rule="evenodd" clip-rule="evenodd" d="M74.2675 22.4446V30.0206H71.5635V18.2926H74.2675V19.7726H74.4035C74.9315 18.8126 75.8755 18.0606 77.5715 18.0606C79.9555 18.0606 81.1955 19.5646 81.1955 21.9806V30.0286H78.4915V21.9966C78.4915 20.6126 77.9395 19.7006 76.5395 19.7006C75.1395 19.7006 74.2675 20.7086 74.2675 22.4446ZM61.6195 24.1566C61.6195 27.2526 62.6035 28.9646 64.3715 28.9646C66.1315 28.9646 67.1235 27.2766 67.1235 24.1566C67.1235 21.0366 66.1395 19.3486 64.3715 19.3486C62.6035 19.3486 61.6195 21.0606 61.6195 24.1566ZM69.9635 24.1566C69.9635 27.5086 67.9715 30.2606 64.3715 30.2606C60.7715 30.2606 58.7795 27.5166 58.7795 24.1566C58.7795 20.8046 60.7715 18.0526 64.3715 18.0526C67.9715 18.0526 69.9635 20.8046 69.9635 24.1566ZM57.6515 26.4366C57.6515 28.7806 55.9795 30.2606 52.8835 30.2606C50.1075 30.2606 48.2755 29.0206 48.1395 26.9966L50.5715 26.2926C50.8195 28.2366 51.6275 29.0126 53.1795 29.0126C54.6275 29.0126 55.4515 28.3326 55.4515 27.1326C55.4515 26.1486 54.8995 25.7006 53.6915 25.3966L51.3955 24.8126C49.9235 24.4366 48.6195 23.3806 48.6195 21.4366C48.6195 19.1406 50.4515 18.0606 52.9955 18.0606C55.5395 18.0606 57.1235 19.2126 57.3955 20.8526L55.0995 21.5566C54.9875 20.0766 54.1395 19.3006 52.7635 19.3006C51.5955 19.3006 50.8195 19.8686 50.8195 20.8046C50.8195 21.5566 51.2995 22.0686 52.4035 22.3566L54.6035 22.9166C56.1635 23.3166 57.6515 24.2286 57.6515 26.4366ZM39.9315 22.4446V30.0206H37.2275V18.2926H39.9315V19.7726H40.0675C40.5955 18.8126 41.5395 18.0606 43.2275 18.0606C45.6115 18.0606 46.8515 19.5646 46.8515 21.9806V30.0286H44.1555V21.9966C44.1555 20.6126 43.6035 19.7006 42.2035 19.7006C40.8035 19.7006 39.9315 20.7086 39.9315 22.4446ZM28.1315 22.4446V30.0206H25.4275V13.5966H28.1315V19.7646H28.2675C28.7955 18.8046 29.7395 18.0526 31.4275 18.0526C33.8115 18.0526 35.0515 19.5566 35.0515 21.9726V30.0206H32.3475V21.9966C32.3475 20.6126 31.7955 19.7006 30.4035 19.7006C29.0035 19.7006 28.1315 20.7086 28.1315 22.4446ZM15.4755 24.1566C15.4755 27.2526 16.4595 28.9646 18.2275 28.9646C19.9875 28.9646 20.9795 27.2766 20.9795 24.1566C20.9795 21.0366 19.9955 19.3486 18.2275 19.3486C16.4675 19.3406 15.4755 21.0526 15.4755 24.1566ZM23.8195 24.1566C23.8195 27.5086 21.8275 30.2606 18.2275 30.2606C14.6275 30.2606 12.6355 27.5166 12.6355 24.1566C12.6355 20.8046 14.6275 18.0526 18.2275 18.0526C21.8275 18.0606 23.8195 20.8046 23.8195 24.1566ZM11.0275 24.9806C11.0275 28.0526 9.53952 30.3966 5.70752 30.3966C1.87552 30.3966 0.387515 28.0526 0.387515 24.9806V23.9726L3.22752 23.2446V25.5006C3.22752 27.6366 3.96352 28.8766 5.69952 28.8766C7.44352 28.8766 8.17152 27.7006 8.17152 25.7326V13.5966H11.0115V24.9806H11.0275ZM89.4595 49.2206V41.8126C89.4595 40.1166 90.3315 39.1246 91.7315 39.1246C93.1315 39.1246 93.6835 40.0206 93.6835 41.3726V49.2206H96.3955V41.3486C96.3955 38.9886 95.1555 37.5166 92.7715 37.5166C91.0755 37.5166 90.1315 38.2526 89.6035 39.1886H89.4675V37.7406H86.7555V49.2126H89.4595V49.2206ZM76.7955 43.4846C76.7955 46.5166 77.7795 48.1886 79.5475 48.1886C81.3155 48.1886 82.2995 46.5326 82.2995 43.4846C82.2995 40.4286 81.3155 38.7806 79.5475 38.7806C77.7795 38.7806 76.7955 40.4526 76.7955 43.4846ZM85.1475 43.4926C85.1475 46.7726 83.1475 49.4606 79.5475 49.4606C75.9475 49.4606 73.9475 46.7726 73.9475 43.4926C73.9475 40.2126 75.9475 37.5246 79.5475 37.5246C83.1475 37.5246 85.1475 40.2126 85.1475 43.4926ZM72.8275 45.7166C72.8275 48.0126 71.1475 49.4606 68.0515 49.4606C65.2755 49.4606 63.4435 48.2446 63.2995 46.2686L65.7315 45.5806C65.9795 47.4846 66.7875 48.2446 68.3475 48.2446C69.7955 48.2446 70.6195 47.5806 70.6195 46.4046C70.6195 45.4366 70.0675 45.0046 68.8515 44.7086L66.5555 44.1326C65.0835 43.7646 63.7795 42.7326 63.7795 40.8286C63.7795 38.5806 65.6115 37.5246 68.1635 37.5246C70.7155 37.5246 72.2915 38.6526 72.5715 40.2526L70.2755 40.9406C70.1635 39.4926 69.3155 38.7406 67.9395 38.7406C66.7715 38.7406 65.9875 39.2926 65.9875 40.2126C65.9875 40.9486 66.4675 41.4526 67.5715 41.7246L69.7715 42.2766C71.3315 42.6606 72.8275 43.5566 72.8275 45.7166ZM55.0835 41.8126V49.2286H52.3715V37.7486H55.0835V39.1966H55.2195C55.7475 38.2526 56.6915 37.5246 58.3875 37.5246C60.7715 37.5246 62.0115 38.9966 62.0115 41.3566V49.2286H59.2995V41.3806C59.2995 40.0286 58.7475 39.1326 57.3475 39.1326C55.9555 39.1246 55.0835 40.1086 55.0835 41.8126ZM43.2675 41.8126V49.2286H40.5555V33.1566H43.2675V39.1966H43.4035C43.9315 38.2526 44.8755 37.5246 46.5715 37.5246C48.9555 37.5246 50.1955 38.9966 50.1955 41.3566V49.2286H47.4835V41.3806C47.4835 40.0286 46.9315 39.1326 45.5315 39.1326C44.1395 39.1246 43.2675 40.1086 43.2675 41.8126ZM30.6035 43.4846C30.6035 46.5166 31.5875 48.1886 33.3555 48.1886C35.1235 48.1886 36.1075 46.5326 36.1075 43.4846C36.1075 40.4366 35.1235 38.7806 33.3555 38.7806C31.5875 38.7806 30.6035 40.4526 30.6035 43.4846ZM38.9555 43.4846C38.9555 46.7646 36.9555 49.4526 33.3555 49.4526C29.7555 49.4526 27.7555 46.7646 27.7555 43.4846C27.7555 40.2046 29.7555 37.5166 33.3555 37.5166C36.9555 37.5246 38.9555 40.2046 38.9555 43.4846ZM26.1475 44.2926C26.1475 47.3006 24.6595 49.5966 20.8195 49.5966C16.9875 49.5966 15.4915 47.3006 15.4915 44.2926V43.3086L18.3395 42.5966V44.7966C18.3395 46.8846 19.0755 48.1006 20.8195 48.1006C22.5635 48.1006 23.2995 46.9566 23.2995 45.0286V33.1646H26.1475V44.2926ZM2.12352 44.2286C2.12352 46.1326 3.47552 47.9246 5.68352 47.9246C6.66752 47.9246 7.74752 47.5566 8.71552 46.9806L3.53152 41.3166C2.65152 41.9326 2.12352 43.0366 2.12352 44.2286ZM11.4595 42.6446C11.4595 40.7886 10.3155 39.7086 8.45152 39.7086C7.80352 39.7086 7.02752 39.8206 6.22752 40.1406L10.7235 45.1006C11.2275 44.3166 11.4595 43.4686 11.4595 42.6446ZM7.83552 36.2126C7.83552 34.7886 7.03551 34.0126 5.67551 34.0126C4.34751 34.0126 3.49952 34.7726 3.49952 36.1006C3.49952 36.8126 3.74752 37.4046 4.62752 38.3726L5.61152 39.4766C7.19552 38.7646 7.83552 37.5246 7.83552 36.2126ZM13.3875 41.4046C13.3875 42.8046 12.6755 44.4126 11.4355 45.8766L14.3715 49.1086V49.2206H10.7715L9.39552 47.7326C7.69152 48.9246 5.81152 49.5886 4.21152 49.5886C1.41152 49.5886 -0.396484 47.6126 -0.396484 45.2526C-0.396484 43.4606 0.635516 41.7166 2.88352 40.6366L2.85952 40.5886C1.53152 39.1406 1.01952 37.9486 1.01952 36.7566C1.01952 34.5566 2.57951 32.7886 5.74751 32.7886C8.49952 32.7886 10.0595 34.1646 10.0595 35.9086C10.0595 37.1246 9.32352 37.9966 7.57952 38.9406L7.62752 39.0286C8.33952 38.7566 9.41952 38.4766 10.3795 38.4766C12.2115 38.4926 13.3875 39.6606 13.3875 41.4046Z" fill="#161E33"/>
</g>
<defs>
<clipPath id="clip0_1773_13359">
<rect width="96" height="64" fill="white"/>
</clipPath>
</defs>
</svg>
