<svg width="100" height="64" viewBox="0 0 100 64" fill="none" xmlns="http://www.w3.org/2000/svg">
<path fill-rule="evenodd" clip-rule="evenodd" d="M4.81139 23.6682H0.546875V30.065C0.546875 31.0071 1.31055 31.7708 2.25268 31.7708H4.81139H8.79771C10.0556 31.7708 11.2494 31.2154 12.0597 30.2532L17.6049 23.6682H11.6346L4.81139 31.7708V23.6682ZM12.0611 41.5792H18.0314L12.0621 33.8542C11.2546 32.8092 10.0084 32.1972 8.68766 32.1972H4.81139H2.25268C1.31055 32.1972 0.546875 32.961 0.546875 33.903V41.5792H4.81139V32.1972L12.0611 41.5792Z" fill="#161E33"/>
<path fill-rule="evenodd" clip-rule="evenodd" d="M32.9572 41.5792H37.2217L27.8458 23.6682L18.4578 41.5792H19.7372L22.7236 36.4618H30.4644L32.9572 41.5792ZM29.972 35.6089L26.5604 28.7856L23.2161 35.6089H29.972Z" fill="#161E33"/>
<path d="M38.0746 41.5792H42.3391V23.6682H38.0746V41.5792Z" fill="#161E33"/>
<path fill-rule="evenodd" clip-rule="evenodd" d="M45.7507 23.6782V33.0601H46.6036C48.4878 33.0601 50.0152 31.5326 50.0152 29.6485V24.5311C51.2946 24.5311 54.2798 24.1046 56.1726 25.5437C57.0876 26.4753 57.3109 27.9296 57.2513 29.1795C57.2048 30.1526 56.8634 31.0832 56.1322 31.7482C55.0276 32.7526 53.0004 33.0501 52.574 33.0501C52.1475 33.0501 52.0221 33.6523 52.1475 33.903C52.574 34.756 57.1391 40.771 57.6914 41.5891H63.2352L57.1788 34.3971C56.8816 34.0442 56.4983 33.7824 56.0728 33.6323C57.8555 33.4124 59.7103 32.7542 60.7941 31.2445C61.4423 30.3417 61.7815 29.1423 61.5965 28.0357C61.3969 26.8422 60.6277 25.9 59.6623 25.2133C57.4083 23.6104 53.4386 23.6437 50.4417 23.6782C48.3094 23.6782 47.4565 23.6782 45.7507 23.6782ZM50.0152 41.5891H45.7507V33.913H46.6036C48.4878 33.913 50.0152 35.4404 50.0152 37.3246V41.5891Z" fill="#161E33"/>
<path d="M72.0415 23.6682C74.5116 23.6682 76.5754 24.5101 78.2332 26.1938C79.8909 27.8776 80.7197 30.0247 80.7197 32.6353C80.7197 35.2304 79.8909 37.3698 78.2332 39.0536C76.5754 40.7373 74.553 41.5792 72.1659 41.5792C69.7787 41.5792 67.7646 40.7296 66.1234 39.0304C64.4823 37.3312 63.6617 35.1763 63.6617 32.5658C63.6617 30.017 64.4823 27.9007 66.1234 26.217C67.7812 24.5178 69.7539 23.6682 72.0415 23.6682ZM72.2405 24.5719C71.2458 24.5719 70.3506 24.819 69.5549 25.3133C68.7758 25.8076 68.1541 26.5182 67.69 27.445C67.3916 28.0166 67.1678 28.7426 67.0186 29.6231C66.8694 30.5036 66.7948 31.4767 66.7948 32.5426C66.7948 37.9645 68.5852 40.6755 72.1659 40.6755C73.9065 40.6755 75.241 40.0036 76.1693 38.6597C77.1142 37.3158 77.5866 35.3385 77.5866 32.728C77.5866 27.2906 75.8046 24.5719 72.2405 24.5719Z" fill="#161E33"/>
<path fill-rule="evenodd" clip-rule="evenodd" d="M88.3892 23.8218C91.222 23.5827 93.9331 23.3955 96.4918 25.1013C97.613 26.1743 97.7958 26.9754 97.9591 27.882C97.3127 27.882 97.1651 27.882 96.6986 27.882C96.6957 27.6321 96.6787 27.4251 96.6332 27.2236C96.4636 26.4723 95.9326 25.8419 95.3358 25.355C94.5122 24.683 93.1001 24.172 89.214 24.6998L88.3892 23.8218ZM94.3595 41.3063C91.8008 41.7327 87.543 42.1592 84.2411 40.2175C83.3688 39.808 82.7658 38.6442 82.4256 37.69C83.1784 37.69 83.7049 37.69 84.5512 37.69C84.5594 39.0042 85.8372 40.4534 88.0279 40.7558C90.1017 40.8798 92.8302 41.1112 94.1776 40.2175C94.2684 40.5807 94.5162 40.9846 94.3595 41.3063ZM95.4669 39.5066C95.1266 39.917 94.6738 40.0689 94.1776 40.2175C94.2684 40.5807 94.5162 40.9846 94.3595 41.3063C96.3279 40.9783 98.3106 39.8009 99.0505 38.3211C99.477 37.4682 99.9034 36.1889 99.5099 34.9516C98.6434 32.5422 95.0022 31.5368 91.8763 30.6738C90.5253 30.3007 89.2706 29.9543 88.3777 29.5325C87.6464 29.1869 86.7896 28.6919 86.5043 27.882C86.3457 27.4307 86.3945 26.8786 86.6019 26.4519C87.0858 25.453 88.2387 25.0388 89.214 24.6998L88.3892 23.8218C86.7775 24.0983 85.1419 24.9431 84.1109 26.1743C83.4121 27.0092 82.7547 28.2315 82.8557 29.3555C82.9417 30.3075 83.528 31.0659 84.2411 31.6589C85.3385 32.5711 87.5311 33.2981 89.7398 34.0305C92.8513 35.0622 95.9948 36.1046 96.1542 37.69C96.2145 38.2916 95.843 39.0531 95.4669 39.5066Z" fill="#161E33"/>
<path d="M11.6346 23.6682H17.6049L12.0597 30.2532C11.2494 31.2154 10.0556 31.7708 8.79771 31.7708H4.81139L11.6346 23.6682Z" fill="#23CB00"/>
</svg>
