<svg width="120" height="64" viewBox="0 0 120 64" fill="none" xmlns="http://www.w3.org/2000/svg">
<path fill-rule="evenodd" clip-rule="evenodd" d="M97.4794 30.0166L93.7279 30.0203L93.7522 39.6866L97.4831 39.6835L97.4788 34.6222C97.4719 33.2438 97.9961 32.3847 99.4056 32.4046C100.794 32.4295 101.071 33.3571 101.072 34.6396L101.076 39.6797L104.845 39.6766L104.829 33.7195C104.837 30.8682 103.368 29.6773 100.692 29.6798C99.2979 29.681 98.3653 30.0159 97.4813 31.2355L97.4794 30.0166ZM78.6604 24.0345L74.9083 24.0376L74.9226 39.6984L78.6747 39.6947L78.6604 24.0345ZM71.747 32.8703L74.3436 32.8678L74.3411 30.0377L71.7339 30.0396L71.7432 28.4235C71.7576 26.6853 73.1041 26.44 74.3442 27.2126L74.3418 24.192C71.0018 22.7688 68.0465 25.1302 68.0341 28.7764L68.0347 30.0427L66.7311 30.0439L66.7336 32.874L68.0378 32.8728L68.0441 39.7047L71.7432 39.7009L71.747 32.8703ZM54.7589 30.0558L54.7477 35.8642C54.767 39.1761 57.3487 40.0433 60.3855 40.0564C63.5337 40.0377 66.0457 39.7227 65.9996 35.8592L65.994 30.0458L62.1996 30.0489L62.2045 35.2217C62.2058 36.6473 61.8248 37.3209 60.383 37.3222C58.9094 37.3178 58.506 36.5975 58.5047 35.2248L58.4998 30.0527L54.7589 30.0558ZM30.9271 31.0525L30.9215 24.9048L26.756 24.9085L26.7691 39.7476L30.9825 39.7439V33.3472L36.4099 39.7395L41.7837 39.7345L34.8385 31.9763L41.2925 24.8955L36.0824 24.9004L30.9271 31.0525ZM85.9019 32.6935C87.2217 32.6923 88.3037 33.661 88.3043 34.8587C88.3055 36.0509 87.2254 37.0271 85.9056 37.0283C84.5808 37.0296 83.5038 36.0559 83.5026 34.8625C83.5026 33.6653 84.5771 32.6941 85.9019 32.6935ZM91.9045 30.0222L88.2053 30.0253L88.2065 31.0587C87.3045 30.2164 86.1914 29.7196 84.9195 29.6891C82.0097 29.5808 79.6589 31.9041 79.6353 34.8618C79.6434 37.7548 81.9829 40.0209 84.696 40.0184C86.3439 40.0172 87.5622 39.2844 88.2134 38.6164L88.2146 39.6866L91.9138 39.6835L91.9045 30.0222ZM112.242 32.6692C113.562 32.668 114.643 33.6373 114.644 34.8351C114.646 36.0273 113.565 37.0034 112.246 37.0047C110.926 37.0059 109.844 36.0316 109.843 34.8388C109.842 33.6417 110.922 32.6705 112.242 32.6692ZM118.207 23.9984L114.524 24.0021L114.545 31.0344C113.649 30.1927 112.531 29.6953 111.264 29.6648C108.349 29.5559 105.998 31.8798 105.975 34.8369C105.983 37.7305 108.327 39.9966 111.035 39.9941C112.683 39.9923 113.902 39.2602 114.553 38.5915L114.553 39.6623L118.221 39.6642L118.207 23.9984ZM47.0075 32.729C48.3273 32.7278 49.4093 33.6964 49.4105 34.8942C49.4112 36.087 48.331 37.0626 47.0112 37.0638C45.6865 37.065 44.6094 36.0914 44.6088 34.898C44.6076 33.7002 45.6827 32.7296 47.0075 32.729ZM53.0095 30.0576L49.3103 30.0608L49.3109 31.0942C48.4095 30.2525 47.2908 29.7551 46.0239 29.7246C43.1141 29.6156 40.7584 31.939 40.7341 34.8967C40.7472 37.7897 43.0867 40.0558 45.7998 40.0533C47.4476 40.052 48.666 39.3193 49.3172 38.6513L49.3184 39.7215L53.0176 39.7183L53.0095 30.0576ZM26.7709 41.9421L118.196 41.8593L118.198 44.0525L26.7728 44.136L26.7709 41.9421ZM3.60902 21.7553L12.1572 21.7472L12.1666 31.5891L3.61835 31.5966L3.60902 21.7553ZM13.3021 21.746L23.4671 21.7367L13.3108 31.5879L13.3021 21.746ZM13.3121 32.5628L23.4858 42.4426L13.3208 42.4526L13.3121 32.5628ZM3.61898 32.6194L12.1672 32.612L12.1765 42.4532L3.62831 42.4613L3.61898 32.6194ZM2.23505 20.3733L24.536 20.3527L24.5572 43.6454L2.25622 43.6653L2.23505 20.3733ZM1.75195 19.897L25.0122 19.8759L25.0347 44.1223L1.77436 44.1428L1.75195 19.897Z" fill="#161E33"/>
</svg>
