<svg width="112" height="64" viewBox="0 0 112 64" fill="none" xmlns="http://www.w3.org/2000/svg">
<path d="M42.394 42.7709V22.5041H45.7404V31.1899L54.4531 22.5041H58.5885L50.4124 30.5818L58.778 42.7709H54.7056L48.0133 32.9271L45.7404 35.1853V42.7709H42.394Z" fill="#141D16"/>
<path d="M66.8379 43.1185C65.3015 43.1185 63.9336 42.8097 62.7339 42.192C61.5554 41.5551 60.6295 40.6768 59.956 39.5573C59.2825 38.4378 58.9457 37.135 58.9457 35.6488C58.9457 34.1432 59.272 32.8211 59.9243 31.6822C60.5978 30.5434 61.5239 29.6555 62.7024 29.0186C63.902 28.3816 65.291 28.0631 66.8694 28.0631C68.4057 28.0631 69.7421 28.3816 70.8786 29.0186C72.015 29.6362 72.899 30.4662 73.5302 31.5085C74.1616 32.5508 74.4773 33.6992 74.4773 34.9538C74.4773 35.1469 74.4668 35.3592 74.4458 35.5909C74.4458 35.8032 74.4352 36.0444 74.4141 36.3146H62.2289C62.3342 37.7044 62.8286 38.7659 63.7125 39.4994C64.6175 40.2136 65.6593 40.5706 66.8379 40.5706C67.7848 40.5706 68.5741 40.3777 69.2054 39.9916C69.8579 39.5863 70.3419 39.0459 70.6576 38.3702H74.0038C73.5829 39.7214 72.7411 40.8506 71.4783 41.7577C70.2366 42.6649 68.6898 43.1185 66.8379 43.1185ZM66.8379 30.582C65.7225 30.582 64.7333 30.8908 63.8704 31.5085C63.0075 32.1069 62.4814 33.014 62.292 34.2301H71.1311C71.068 33.1106 70.6365 32.2227 69.8368 31.5664C69.0371 30.9102 68.0375 30.582 66.8379 30.582Z" fill="#141D16"/>
<path d="M76.9957 42.7716V28.411H79.9947L80.2787 31.48C80.8259 30.5342 81.5836 29.7911 82.5516 29.2506C83.5408 28.6909 84.7298 28.411 86.1188 28.411V31.6247H85.2034C84.2774 31.6247 83.4461 31.7696 82.7095 32.0591C81.994 32.3292 81.4152 32.8021 80.9733 33.4777C80.5523 34.134 80.3419 34.7035 80.3419 35.8809V42.7716H76.9957Z" fill="#141D16"/>
<path d="M88.1202 42.7711V28.4106H91.0877L91.3402 30.9294C91.8242 30.0416 92.5292 29.3467 93.4553 28.8448C94.4023 28.3237 95.4862 28.0631 96.7068 28.0631C98.6009 28.0631 100.085 28.6036 101.158 29.6845C102.252 30.7653 102.799 32.3771 102.799 34.5196V42.7711H99.4849V34.8381C99.4849 32.0586 98.2431 30.6689 95.7598 30.6689C94.5181 30.6689 93.4868 31.0741 92.666 31.8848C91.8663 32.6955 91.4665 33.8536 91.4665 35.3593V42.7711H88.1202Z" fill="#141D16"/>
<path d="M107.982 26.2325L107.164 24.6001L106.338 26.2325H107.982ZM107.655 23.4865L109.96 28.1H108.934L108.421 27.0902H105.907L105.394 28.1H104.36L106.665 23.4865H107.655Z" fill="#75EA8E"/>
<path d="M111.782 23.4865V28.1H110.838V23.4865H111.782Z" fill="#75EA8E"/>
<path d="M5.68427 28.9446H0V46.456C0 46.8132 0.289524 47.1027 0.646671 47.1027H29.1958C29.5529 47.1027 29.8425 46.8132 29.8425 46.456V35.2605H24.1582V40.7717C24.1582 41.1289 23.8687 41.4184 23.5115 41.4184H6.33095C5.9738 41.4184 5.68427 41.1289 5.68427 40.7717V28.9446Z" fill="url(#paint0_linear_7271_33481)"/>
<path d="M26.3689 35.2608H32.053V17.7494C32.053 17.3922 31.7636 17.1027 31.4065 17.1027H2.85732C2.50018 17.1027 2.21066 17.3922 2.21066 17.7494V28.945H7.89493V23.4337C7.89493 23.0765 8.18445 22.787 8.5416 22.787H25.7222C26.0793 22.787 26.3689 23.0765 26.3689 23.4337V35.2608Z" fill="url(#paint1_linear_7271_33481)"/>
<defs>
<linearGradient id="paint0_linear_7271_33481" x1="22.9943" y1="32.0208" x2="87.8381" y2="32.0208" gradientUnits="userSpaceOnUse">
<stop stop-color="#5DE079"/>
<stop offset="1" stop-color="#75EA8E"/>
</linearGradient>
<linearGradient id="paint1_linear_7271_33481" x1="26.1512" y1="26.1882" x2="8.22591" y2="26.1882" gradientUnits="userSpaceOnUse">
<stop stop-color="#5DE079"/>
<stop offset="1" stop-color="#75EA8E"/>
</linearGradient>
</defs>
</svg>
