<svg width="160" height="64" viewBox="0 0 160 64" fill="none" xmlns="http://www.w3.org/2000/svg">
<path d="M41.0093 25.7687C40.3018 25.7687 39.6366 26.0428 39.1387 26.5407L37.1266 28.5473C36.5838 29.0887 36.3049 29.8403 36.3621 30.6109C36.3661 30.653 36.3702 30.6951 36.3743 30.7385C36.4464 31.33 36.7063 31.8632 37.1266 32.2811C37.4164 32.5701 37.7361 32.7533 38.1238 32.8808C38.1442 32.9975 38.1551 33.1155 38.1551 33.2335C38.1551 33.7654 37.9483 34.2647 37.5728 34.6391L37.449 34.7626C36.777 34.5333 36.2165 34.1982 35.7104 33.6935C35.0384 33.0232 34.5935 32.1766 34.4262 31.2473L34.4031 31.1183L34.301 31.2011C34.2317 31.2567 34.1663 31.3165 34.1051 31.3775L32.0931 33.3841C31.0619 34.4125 31.0619 36.0881 32.0931 37.1165C32.6087 37.6307 33.2861 37.8885 33.965 37.8885C34.6439 37.8885 35.32 37.6307 35.8356 37.1165L37.8477 35.1099C38.8789 34.0815 38.8789 32.4073 37.8477 31.3775C37.5728 31.1035 37.245 30.8972 36.8736 30.7643C36.8532 30.6435 36.8423 30.5227 36.8423 30.4047C36.8423 29.8267 37.0709 29.2786 37.4899 28.8607C38.1633 29.09 38.7605 29.4618 39.2652 29.9651C39.9359 30.634 40.3794 31.4793 40.5494 32.4113L40.5725 32.5402L40.6746 32.4575C40.744 32.4019 40.8093 32.3421 40.8719 32.2797L42.8839 30.2731C43.9151 29.2447 43.9165 27.5691 42.8839 26.5407C42.3847 26.0428 41.7207 25.7687 41.012 25.7687H41.0093Z" fill="#161E33"/>
<path d="M39.9311 18.4301H13.6042C6.10284 18.4301 0 24.5164 0 31.9975C0 39.4786 6.10284 45.565 13.6042 45.565H39.9311C47.4324 45.565 53.5353 39.4786 53.5353 31.9975C53.5353 24.5164 47.4324 18.4301 39.9311 18.4301ZM26.9459 39.7011C26.5119 39.7907 26.0235 39.8069 25.6915 39.461C25.5691 39.7418 25.2834 39.5939 25.063 39.5573C25.0426 39.6143 25.0249 39.6645 25.0059 39.7215C24.2726 39.7703 23.723 39.0241 23.3734 38.4611C22.6795 38.0866 21.8919 37.8587 21.1831 37.4665C21.1423 38.1124 21.2838 38.9129 20.6675 39.3294C20.6362 40.5708 22.5503 39.4759 22.7258 40.4012C22.5898 40.4161 22.4388 40.3795 22.3299 40.4839C21.8307 40.9683 21.2579 40.1177 20.6825 40.4691C19.9097 40.8571 19.8322 41.1745 18.8758 41.2546C18.8228 41.1745 18.8445 41.1216 18.8894 41.0728C19.1588 40.7607 19.1779 40.3931 19.6377 40.2601C19.1643 40.1855 18.7683 40.446 18.3697 40.6522C17.8514 40.8639 17.8555 40.1746 17.0583 40.6888C16.9699 40.6169 17.0121 40.5518 17.0624 40.4962C17.2651 40.2493 17.5317 40.2126 17.8324 40.2262C16.3536 39.404 15.6571 41.2315 14.9741 40.3225C14.7687 40.3768 14.6912 40.5613 14.5619 40.6915C14.4504 40.5695 14.5347 40.4215 14.5402 40.2777C14.4069 40.2153 14.2381 40.1855 14.2776 39.9725C14.0164 39.8843 13.8341 40.0389 13.6396 40.1855C13.4641 40.0498 13.7579 39.8517 13.8123 39.7106C13.9688 39.4393 14.3252 39.655 14.5061 39.4596C15.0204 39.1679 15.7373 39.6414 16.3251 39.5614C16.7781 39.6183 17.3385 39.1543 17.1113 38.6917C16.6271 38.0744 16.7127 37.2671 16.7019 36.5291C16.642 36.0989 15.6067 35.5508 15.3075 35.0868C14.9374 34.6689 14.649 34.1846 14.3606 33.7084C13.3199 31.699 13.6477 29.1171 12.3363 27.2516C11.7431 27.5786 10.9704 27.4239 10.4589 26.9857C10.1827 27.2367 10.1705 27.565 10.1487 27.9137C9.4862 27.253 9.5692 26.0047 10.0984 25.2694C10.3147 24.9791 10.5732 24.7403 10.8616 24.53C10.9269 24.4825 10.9487 24.4364 10.9473 24.3631C11.4711 22.0132 15.0435 22.4664 16.1727 24.1311C16.9917 25.1555 17.2393 26.5108 18.1684 27.4619C19.4186 28.8268 20.843 30.0289 21.9966 31.4819C23.0877 32.8102 23.8672 34.3677 24.5474 35.9375C24.8249 36.4585 24.8277 37.0975 25.2385 37.5425C25.4412 37.8112 26.4316 38.5425 26.2167 38.8016C26.3405 39.0702 27.2655 39.4406 26.9445 39.7011H26.9459ZM44.2966 31.6855L42.2846 33.6921C41.7485 34.2267 41.0861 34.6255 40.3677 34.8439L40.331 34.8548L40.3174 34.8901C40.0834 35.5061 39.7283 36.0555 39.2603 36.5209L37.2483 38.5275C36.3708 39.4027 35.2036 39.8843 33.9601 39.8843C32.7167 39.8843 31.5495 39.4027 30.672 38.5275C28.8586 36.719 28.8586 33.7775 30.672 31.969L32.6841 29.9624C33.2228 29.4251 33.8677 29.0385 34.5982 28.8146L34.6349 28.8037L34.6485 28.7685C34.8825 28.1525 35.2389 27.6017 35.7083 27.1322L37.7203 25.1256C38.5978 24.2505 39.7651 23.7689 41.0085 23.7689C42.2519 23.7689 43.4191 24.2505 44.2966 25.1256C45.1741 26.0007 45.6571 27.1648 45.6571 28.4049C45.6571 29.6449 45.1741 30.8103 44.2966 31.6841V31.6855Z" fill="#161E33"/>
<path d="M18.7615 37.2725C18.5846 37.9591 18.5275 39.1272 17.6323 39.1611C17.5589 39.5573 17.9071 39.7065 18.2255 39.579C18.5397 39.4352 18.6893 39.693 18.7955 39.9494C19.2811 40.0199 19.9995 39.7879 20.0267 39.2141C19.3015 38.7975 19.0771 38.0052 18.7628 37.2712L18.7615 37.2725Z" fill="#161E33"/>
<path d="M66.1393 25.5416H63.7493V40.039H74V37.7297H66.1393V25.5416Z" fill="#161E33"/>
<path d="M86.014 40.039H88.404V40.0132H88.4353L88.44 39.9068C88.4407 39.8757 88.4493 39.5855 88.4053 39.1385V33.7429C88.4053 31.713 89.8853 30.7889 91.2607 30.7889C92.74 30.7889 93.46 31.5862 93.46 33.2271V40.039H95.85V32.9091C95.85 30.2011 94.1293 28.5183 91.3607 28.5183C90.184 28.5183 89.134 28.8525 88.3093 29.4875L88.2873 28.7171H86.0173V40.039H86.014Z" fill="#161E33"/>
<path d="M105.577 29.5488C104.746 28.8739 103.678 28.5183 102.473 28.5183C99.2507 28.5183 97.2487 30.7405 97.2487 34.3179C97.2487 37.8952 99.2507 40.1379 102.473 40.1379C103.61 40.1379 104.625 39.8284 105.424 39.2395C105.355 40.9943 104.256 42.0367 102.454 42.0367C100.939 42.0367 100.081 41.5542 99.9053 40.6031L99.8833 40.4849L97.5613 41.1931L97.582 41.2887C97.974 43.1789 99.7427 44.3073 102.315 44.3073C104.061 44.3073 105.429 43.8323 106.385 42.8942C107.349 41.9485 107.837 40.5859 107.837 38.8451V28.7171H105.626L105.578 29.5488H105.577ZM105.427 34.4178C105.427 36.5777 104.375 37.8683 102.612 37.8683C100.722 37.8683 99.6387 36.5745 99.6387 34.3189C99.6387 32.0633 100.723 30.7889 102.612 30.7889C104.333 30.7889 105.41 32.073 105.427 34.1395V34.4178Z" fill="#161E33"/>
<path d="M119.612 35.4418C119.117 37.044 117.845 37.9273 116.031 37.9273C113.439 37.9273 111.827 35.9587 111.827 32.7897C111.827 29.6207 113.453 27.6521 116.071 27.6521C117.883 27.6521 118.927 28.3624 119.459 29.9539L119.707 30.6985L121.963 29.639L121.751 29.0426C120.892 26.6215 118.907 25.3427 116.012 25.3427C114.045 25.3427 112.375 26.0531 111.182 27.3963C110.002 28.7267 109.377 30.5911 109.377 32.7908C109.377 37.3148 111.989 40.2388 116.031 40.2388C118.88 40.2388 121.087 38.7483 121.933 36.251L122.149 35.6127L119.831 34.7315L119.611 35.4429L119.612 35.4418Z" fill="#161E33"/>
<path d="M128.537 28.5183C127.396 28.5183 126.381 28.831 125.583 29.4253V24.1522H123.193V40.0401H125.583V33.7441C125.583 31.7013 127.063 30.7707 128.439 30.7707C129.918 30.7707 130.638 31.568 130.638 33.2089V40.0412H133.028V32.8908C133.028 30.2355 131.266 28.5205 128.539 28.5205L128.537 28.5183Z" fill="#161E33"/>
<path d="M146.997 23.8105C146.109 23.8105 145.465 24.4553 145.465 25.3429C145.465 26.2305 146.109 26.8753 146.997 26.8753C147.885 26.8753 148.529 26.2305 148.529 25.3429C148.529 24.4553 147.885 23.8105 146.997 23.8105Z" fill="#161E33"/>
<path d="M155.508 28.5183C154.331 28.5183 153.282 28.8525 152.457 29.4875L152.435 28.7171H150.165V40.039H152.555V33.7429C152.555 31.713 154.035 30.7889 155.411 30.7889C156.89 30.7889 157.61 31.5862 157.61 33.2271V40.039H160V32.9091C160 30.2011 158.279 28.5183 155.511 28.5183H155.508Z" fill="#161E33"/>
<path d="M148.158 28.7171H145.78V34.3297C145.12 33.7752 144.343 33.3561 143.465 33.0821V32.5115C143.465 30.0109 141.824 28.5183 139.074 28.5183C136.84 28.5183 135.169 29.5671 134.489 31.395L134.305 31.8882L136.221 33.3003L136.55 32.4438C136.983 31.3144 137.786 30.7879 139.074 30.7879C140.363 30.7879 141.075 31.4079 141.075 32.6297V32.6931C140.999 32.6899 140.921 32.6877 140.844 32.6867C138.285 32.6458 136.419 33.2444 135.296 34.4629C134.147 35.7095 134.248 37.1097 134.263 37.2644L134.274 37.3719H134.285C134.463 39.1159 135.987 40.2357 138.201 40.2357C139.42 40.2357 140.547 39.8961 141.399 39.2761L141.408 40.0379H143.465V36.4961L143.421 36.4639C143.13 36.2511 142.623 35.976 141.859 35.8793C141.62 35.8492 141.391 35.8341 141.181 35.8385H141.074V36.1641C141.074 36.9131 140.213 37.9672 138.299 37.9672C136.885 37.9672 136.675 37.3729 136.675 37.0183V36.9818C136.685 36.8228 136.752 36.4337 137.103 36.0716C137.549 35.6106 138.553 35.0712 140.805 35.1056C142.435 35.1313 143.685 35.587 144.523 36.4606C145.55 37.5331 145.743 39.001 145.779 39.5759V40.039H148.157V28.7171H148.158Z" fill="#161E33"/>
<path d="M79.8347 28.4689C77.6007 28.4689 75.93 29.5177 75.2493 31.3455L75.066 31.8388L76.982 33.2508L77.3107 32.3943C77.744 31.2649 78.5467 30.7384 79.8347 30.7384C81.1233 30.7384 81.836 31.3585 81.836 32.5803V32.8672L79.3747 33.3013C76.4893 33.8117 75.026 35.0454 75.026 36.9667C75.026 38.8881 76.57 40.1863 78.96 40.1863C80.18 40.1863 81.306 39.8467 82.158 39.2266L82.168 39.9885H84.2247V32.4621C84.2247 29.9615 82.584 28.4689 79.8347 28.4689ZM81.836 35.1067V36.1157C81.836 36.8647 80.9747 37.9189 79.06 37.9189C77.6467 37.9189 77.4367 37.3246 77.4367 36.97C77.4367 36.6551 77.4367 35.9179 79.94 35.4537L81.836 35.1077V35.1067Z" fill="#161E33"/>
</svg>
