<svg width="114" height="64" viewBox="0 0 114 64" fill="none" xmlns="http://www.w3.org/2000/svg">
<path d="M9.32514 39.567H11.4363C12.8954 39.567 14.0441 39.4428 14.8513 39.1634C15.6895 38.884 16.3725 38.4493 16.8693 37.8284C17.366 37.2075 18.4215 35.1895 18.5768 33.8546H21.2157C21.3709 35.2827 22.3954 37.2075 22.8921 37.8595C23.3889 38.4493 24.0719 38.884 24.9412 39.1634C25.8104 39.4428 26.9591 39.567 28.3872 39.567H32.6095C34.317 39.567 35.8072 39.9085 37.049 40.5915C37.9493 38.7598 38.5392 36.7729 38.7876 34.6618C38.6013 32.9542 38.1046 31.5572 37.2663 30.4706C36.1797 29.0735 34.6274 28.3595 32.6095 28.3595H27.7353C25.6863 28.3595 24.0098 27.9248 22.7369 27.0866C21.464 26.2484 20.5327 24.8823 19.9738 23.0196H19.9117C19.6013 24.634 18.7631 25.9069 17.4281 26.9003C16.0931 27.8627 14.3235 28.3595 12.1503 28.3595H7.18299C5.13397 28.3595 3.61273 29.0735 2.52612 30.4706C1.68789 31.5572 1.19116 32.9542 1.00488 34.6618C1.25325 36.7729 1.87416 38.7598 2.74344 40.5915C3.98528 39.9085 5.47547 39.5359 7.15194 39.5359L9.32514 39.567Z" fill="#7C39ED"/>
<path d="M7.18311 25.0065H11.4364C12.8955 25.0065 14.0442 24.8824 14.8514 24.6029C15.6896 24.3546 16.3726 23.8889 16.8694 23.268C17.3661 22.6471 18.4217 20.6291 18.5769 19.2941H21.2158C21.371 20.7222 22.3955 22.6471 22.8923 23.299C23.389 23.8889 24.072 24.3235 24.9413 24.6029C25.8106 24.8824 26.9592 25.0065 28.3874 25.0065H32.6096C34.8138 25.0065 36.6455 25.5654 38.0736 26.7141C35.7452 18.9837 28.4805 13.3644 19.9429 13.3644C11.4053 13.3644 4.14062 18.9837 1.7501 26.7451C3.17821 25.5964 5.00991 25.0065 7.18311 25.0065Z" fill="#7C39ED"/>
<path d="M32.6716 42.9199H27.7353C25.6863 42.9199 24.0098 42.4853 22.737 41.6471C21.4641 40.8088 20.5638 39.4428 19.9739 37.5801H19.9118C19.6013 39.1944 18.7631 40.4984 17.4281 41.4608C16.0932 42.4232 14.3236 42.9199 12.1504 42.9199H7.18305C6.15854 42.9199 5.25821 43.1062 4.48207 43.4788C7.92815 48.2598 13.5785 51.3644 19.9429 51.3644C26.3072 51.3644 31.9265 48.2598 35.4036 43.4788C34.6275 43.1062 33.6961 42.9199 32.6716 42.9199Z" fill="#7C39ED"/>
<path d="M111.252 38.9934V30.4504H113.217V38.9934H111.252ZM111.064 29.2032V27.187H113.422V29.2032H111.064Z" fill="black"/>
<path d="M104.403 39.2668C102.712 39.2668 101.482 38.1733 101.482 36.6356C101.482 35.0637 102.763 34.1239 105.189 33.8676C106.829 33.6626 107.222 33.4576 107.188 32.8083C107.154 32.2103 106.59 31.8857 105.668 31.8857C104.454 31.8857 103.669 32.4495 103.669 33.2867L101.721 33.1159C101.721 31.3902 103.327 30.1771 105.565 30.1771C107.803 30.1771 109.187 31.4072 109.187 33.3892V38.9934H107.222V37.4557C106.744 38.5834 105.736 39.2668 104.403 39.2668ZM104.899 37.5582C106.317 37.5582 107.222 36.328 107.222 34.4998V34.4315C106.881 34.8586 106.197 35.132 105.309 35.2174C104.096 35.3541 103.498 35.7813 103.498 36.4647C103.498 37.1482 104.079 37.5582 104.899 37.5582Z" fill="black"/>
<path d="M97.4488 38.9934V36.6014H99.9605V38.9934H97.4488Z" fill="black"/>
<path d="M91.9894 39.2668C89.3582 39.2668 87.5641 37.4386 87.5641 34.7049C87.5641 32.0565 89.2898 30.1771 91.7161 30.1771C94.1594 30.1771 95.8338 32.0394 95.8338 34.7561V35.2858H89.5974C89.5974 36.6356 90.52 37.5582 91.8869 37.5582C92.8437 37.5582 93.5784 37.0969 93.8347 36.328L95.8167 36.4989C95.5433 38.1733 94.0227 39.2668 91.9894 39.2668ZM93.8176 33.7822C93.8176 32.6545 92.9463 31.8857 91.699 31.8857C90.4517 31.8857 89.5974 32.6545 89.5974 33.7822H93.8176Z" fill="black"/>
<path d="M83.8915 33.7822C83.8915 32.552 83.3618 31.8857 82.4221 31.8857C81.209 31.8857 80.423 33.0304 80.423 34.8415V38.9934H78.4581V33.7822C78.4581 32.552 77.9284 31.8857 76.9887 31.8857C75.7756 31.8857 74.9896 33.0304 74.9896 34.8415V38.9934H73.0247V30.4504H74.9896V31.9027C75.4851 30.8434 76.459 30.1771 77.6721 30.1771C78.9194 30.1771 79.8079 30.8776 80.2009 32.1078C80.7135 30.9288 81.7899 30.1771 83.1055 30.1771C84.8312 30.1771 85.8564 31.4756 85.8564 33.7139V38.9934H83.8915V33.7822Z" fill="black"/>
<path d="M61.0289 38.9934L58.9444 30.4504H60.9264L62.3958 36.6697L64.4119 30.4504H65.9497L67.9658 36.6697L69.4352 30.4504H71.4172L69.3327 38.9934H67.0261L65.1808 33.1842L63.3355 38.9934H61.0289Z" fill="black"/>
<path d="M52.728 39.2668C51.0365 39.2668 49.8063 38.1733 49.8063 36.6356C49.8063 35.0637 51.0878 34.1239 53.514 33.8676C55.1542 33.6626 55.5472 33.4576 55.513 32.8083C55.4789 32.2103 54.915 31.8857 53.9924 31.8857C52.7793 31.8857 51.9933 32.4495 51.9933 33.2867L50.0455 33.1159C50.0455 31.3902 51.6516 30.1771 53.8899 30.1771C56.1281 30.1771 57.5121 31.4072 57.5121 33.3892V38.9934H55.5472V37.4557C55.0688 38.5834 54.0607 39.2668 52.728 39.2668ZM53.2235 37.5582C54.6416 37.5582 55.5472 36.328 55.5472 34.4998V34.4315C55.2055 34.8586 54.522 35.132 53.6336 35.2174C52.4205 35.3541 51.8225 35.7813 51.8225 36.4647C51.8225 37.1482 52.4034 37.5582 53.2235 37.5582Z" fill="black"/>
<path d="M45.9131 38.9934V26.8624H47.878V38.9934H45.9131Z" fill="black"/>
</svg>
