<svg width="160" height="64" viewBox="0 0 160 64" fill="none" xmlns="http://www.w3.org/2000/svg">
<g clip-path="url(#clip0_12206_7356)">
<path fill-rule="evenodd" clip-rule="evenodd" d="M22.9805 17.9041C25.3885 17.9043 27.3407 19.8565 27.3408 22.2645V40.8846C27.3407 43.2926 25.3884 45.2448 22.9805 45.2449H4.36035C1.95235 45.2448 0.000152803 43.2926 0 40.8846V22.2645C0.000116128 19.8564 1.95233 17.9042 4.36035 17.9041H22.9805ZM7.54004 21.7967C7.2639 21.9878 6.84572 20.7712 6.48535 20.9598C6.09882 21.1603 6.72036 21.8427 6.7207 22.3572C6.7178 22.8718 6.00206 22.9445 5.51367 22.9881C5.02569 23.0319 4.88907 23.5465 4.92676 23.9998C4.96146 24.4509 6.77096 24.8221 6.79004 24.826C6.01689 27.3695 6.53125 29.0906 6.53125 29.0906C6.2843 30.5237 6.97363 31.6111 6.97363 31.6111C7.0231 33.5062 7.43607 33.4972 8.24707 34.5291C9.05803 35.561 9.28152 37.4186 9.44141 38.4129C9.60129 39.4042 10.0431 41.1892 9.05176 41.4363C8.44754 41.586 8.44147 42.186 8.44141 42.1981H9.6416C10.5744 40.1049 10.6299 38.5481 10.6309 38.5184C10.6476 38.5626 11.7131 41.3939 10.7959 41.492C10.0465 41.5729 10.0228 42.1939 10.0225 42.2039H11.5928C11.9565 41.1934 11.8588 39.7587 11.8574 39.7391C12.1249 38.8931 12.2266 37.7039 12.2266 37.7039C12.6248 37.2737 12.8662 36.9015 12.9854 36.6951C13.0435 36.5935 13.1572 36.538 13.2734 36.5526C15.4905 36.8325 17.2773 36.1865 17.3018 36.1776C17.0343 37.695 17.4446 38.2914 18.4824 38.9891C18.8224 39.2191 18.7758 41.1283 17.6133 41.576C17.0629 41.7863 17.1152 42.1996 17.1162 42.2068H18.4297C19.7088 40.2155 19.1631 38.0672 19.1631 38.0672C21.9854 39.5062 20.7793 41.5154 20.7793 41.5154H20.7881C20.2417 41.734 20.3147 42.1968 20.3164 42.2068H21.4502C21.9175 41.3877 21.7151 39.9018 21.7119 39.8787C22.1392 38.9863 21.9126 38.3577 21.7236 37.6658C21.5348 36.974 21.6535 35.7537 21.4385 35.2479C21.2234 34.7422 21.413 33.9136 21.4131 33.3787C21.4131 32.8438 22.825 33.0586 22.3223 31.3524C21.7525 29.4135 20.7471 29.9419 19.8721 30.1629C18.997 30.3838 18.9151 29.6191 16.9209 29.1307C14.927 28.6425 11.5127 28.7673 10.7646 28.7674C10.0176 28.7674 10.2322 26.9858 9.71484 24.3172C9.19762 21.6497 7.66965 21.1425 7.48828 21.1043C7.04932 21.0142 7.72028 21.6717 7.54004 21.7967Z" fill="#161E33"/>
<path d="M36.4542 22.9477H39.2188V38.3871H48.0329V40.8784H36.4542V22.9477Z" fill="#161E33"/>
<path d="M63.1934 39.358C62.0741 40.7272 60.6526 41.1749 59.0857 41.1749C56.2223 41.1749 54.3792 39.8056 54.3792 37.3143C54.3792 35.0236 56.0711 33.852 59.1845 33.2793L63.0945 32.5584V31.7124C63.0945 30.3432 62.2486 29.7705 60.5043 29.7705C59.0101 29.7705 57.5653 30.2938 57.4926 31.9857H54.9025C54.978 28.8723 57.5682 27.628 60.5043 27.628C63.9899 27.628 65.6585 29.0961 65.6585 31.4363V40.8725H63.1934V39.3521V39.358ZM59.484 39.0847C61.2514 39.0847 63.0945 38.1137 63.0945 35.7968V34.5032L59.6322 35.2241C58.0624 35.5468 57.0682 35.9218 57.0682 37.2416C57.0682 38.3376 57.8153 39.0847 59.484 39.0847Z" fill="#161E33"/>
<path d="M81.6997 29.945C80.6794 29.945 78.6357 30.5176 78.6357 33.7038V40.8754H76.0223V32.8084C76.0223 31.1397 75.1996 29.945 73.6065 29.945C72.5862 29.945 70.5454 30.5176 70.5454 33.7038V40.8754H67.932V27.9275H70.4466V29.7444C71.1937 28.5496 72.4379 27.628 74.3071 27.628C76.1764 27.628 77.4932 28.6252 78.1415 30.0932C78.9875 28.6978 80.3567 27.628 82.4003 27.628C85.2405 27.628 86.7347 29.8694 86.7347 32.5322V40.8725H84.1213V32.8055C84.1213 31.1368 83.2986 29.942 81.7056 29.942L81.6997 29.945Z" fill="#161E33"/>
<path d="M97.2521 39.358C96.1329 40.7272 94.7113 41.1749 93.1444 41.1749C90.281 41.1749 88.4379 39.8056 88.4379 37.3143C88.4379 35.0236 90.1298 33.852 93.2433 33.2793L97.1532 32.5584V31.7124C97.1532 30.3432 96.3073 29.7705 94.5631 29.7705C93.0688 29.7705 91.624 30.2938 91.5514 31.9857H88.9612C89.0368 28.8723 91.627 27.628 94.5631 27.628C98.0486 27.628 99.7172 29.0961 99.7172 31.4363V40.8725H97.2521V39.3521V39.358ZM93.5427 39.0847C95.3102 39.0847 97.1532 38.1137 97.1532 35.7968V34.5032L93.6909 35.2241C92.1211 35.5468 91.1269 35.9218 91.1269 37.2416C91.1269 38.3376 91.874 39.0847 93.5427 39.0847Z" fill="#161E33"/>
<path d="M102.374 22.9477H104.924V40.8755H102.374V22.9477Z" fill="#161E33"/>
<path d="M49.7974 22.9477H52.3469V40.8755H49.7974V22.9477Z" fill="#161E33"/>
<path d="M113.601 29.945C112.604 29.945 110.29 30.5176 110.29 33.7038V40.8754H107.676V27.9275H110.191V29.7444C111.063 28.5234 112.406 27.628 114.299 27.628C117.435 27.628 118.906 29.8694 118.906 32.5322V40.8725H116.316V32.8055C116.316 31.1368 115.493 29.942 113.601 29.942V29.945Z" fill="#161E33"/>
<path d="M130.875 40.8784V39.0354C129.979 40.3552 128.558 41.1779 126.642 41.1779C122.834 41.1779 120.741 38.2883 120.741 34.4044C120.741 30.5206 122.834 27.631 126.642 27.631C128.508 27.631 129.88 28.3781 130.776 29.6485V22.9507H133.389V40.8784H130.875ZM127.139 38.9336C129.654 38.9336 130.848 37.0673 130.848 34.4015C130.848 31.7358 129.654 29.8695 127.139 29.8695C124.624 29.8695 123.43 31.7358 123.43 34.4015C123.43 37.0673 124.624 38.9336 127.139 38.9336Z" fill="#161E33"/>
<path d="M135.154 34.4044C135.154 30.5206 137.543 27.631 141.378 27.631C145.212 27.631 147.602 30.4683 147.602 34.5294V35.2765H137.817C138.067 37.5178 139.285 38.9859 141.378 38.9859C142.971 38.9859 144.166 38.2388 144.715 36.919H147.328C146.506 39.483 144.34 41.1778 141.378 41.1778C137.543 41.1778 135.154 38.2882 135.154 34.4044ZM144.889 33.2067C144.567 31.1659 143.346 29.82 141.378 29.82C139.41 29.82 138.189 31.1659 137.866 33.2067H144.889Z" fill="#161E33"/>
<path d="M153.701 36.3202L150.413 40.8785H147.425L152.207 34.2562L147.648 27.9305H150.686L153.724 32.1399L156.736 27.9305H159.724L155.218 34.2039L160 40.8785H156.963L153.701 36.3202Z" fill="#161E33"/>
</g>
<defs>
<clipPath id="clip0_12206_7356">
<rect width="160" height="64" fill="white"/>
</clipPath>
</defs>
</svg>
