<svg width="92" height="64" viewBox="0 0 92 64" fill="none" xmlns="http://www.w3.org/2000/svg">
<path fill-rule="evenodd" clip-rule="evenodd" d="M25.6862 14C31.1487 14 35.6253 18.2949 36.0248 23.7392V40.3092C35.6557 45.4874 31.5787 49.6249 26.4852 50H10.1823C4.82253 49.5947 0.599609 45.0453 0.599609 39.4979V24.5565C0.599609 18.731 5.25159 14 10.9804 14H25.6862ZM22.988 20.5522C22.613 20.5523 22.2559 20.709 22.0019 20.9812L18.3061 24.974L16.4489 26.9762L7.73721 36.3893L18.3122 42.3843L19.9329 43.3098C20.1324 43.4246 20.3623 43.4855 20.5921 43.4855C21.9834 43.4855 22.468 41.6035 21.2521 40.9139V40.8963L21.0887 40.7996L12.0808 35.6993L18.3122 28.9783L20.1632 26.9762L23.9741 22.8629C24.7908 21.9857 24.1737 20.5522 22.988 20.5522ZM14.6999 41.2769C13.6596 41.8636 14.0708 43.4721 15.2563 43.4724H16.0728C16.2663 43.4724 16.4606 43.4241 16.63 43.3273C16.9926 43.1216 16.9925 42.5899 16.63 42.3781L16.6361 42.372L14.6999 41.2769ZM21.7013 28.6276C21.1681 28.0533 20.2655 28.0552 19.7352 28.6338C19.2452 29.1601 19.2452 29.9892 19.7352 30.5155L24.5322 35.6932L21.2539 37.5503C20.3283 38.0705 20.3283 39.426 21.2539 39.9523C21.6652 40.1882 22.161 40.1881 22.5723 39.9523L28.8758 36.377L21.7013 28.6276ZM13.6197 20.5391C12.4343 20.5392 11.8235 21.9726 12.6336 22.8497L14.9021 25.3001H14.9082C15.4405 25.8808 16.342 25.8808 16.8743 25.3001C17.3643 24.7738 17.3643 23.9447 16.8743 23.4184L14.6059 20.9688C14.3518 20.6966 13.9948 20.5391 13.6197 20.5391Z" fill="#161E33"/>
<path d="M90.8114 22.8374C90.9747 22.9342 91.1078 23.0673 91.1986 23.2306C91.2954 23.4 91.3377 23.5875 91.3377 23.7872C91.3377 23.9868 91.2893 24.1804 91.1925 24.3497C91.0957 24.5252 90.9626 24.6522 90.7993 24.749C90.636 24.8458 90.4484 24.8942 90.2428 24.8942C90.0371 24.8942 89.8556 24.8458 89.6923 24.749C89.5289 24.6522 89.3958 24.5131 89.3051 24.3497C89.2083 24.1804 89.1599 23.9928 89.1599 23.7932C89.1599 23.5936 89.2083 23.4 89.3051 23.2367C89.4019 23.0673 89.5289 22.9342 89.6983 22.8374C89.8677 22.7406 90.0492 22.6922 90.2549 22.6922C90.4605 22.6922 90.642 22.7406 90.8114 22.8313V22.8374ZM90.7449 24.6583C90.8961 24.5675 91.011 24.4526 91.0957 24.2953C91.1804 24.1441 91.2228 23.9747 91.2228 23.7932C91.2228 23.6117 91.1804 23.4423 91.0957 23.2911C91.011 23.1459 90.8961 23.0249 90.7449 22.9342C90.5997 22.8495 90.4303 22.8011 90.2488 22.8011C90.0673 22.8011 89.8979 22.8495 89.7467 22.9342C89.5955 23.0189 89.4805 23.1399 89.3958 23.2971C89.3111 23.4484 89.2688 23.6178 89.2688 23.7993C89.2688 23.9807 89.3111 24.1501 89.3958 24.3014C89.4805 24.4526 89.5955 24.5675 89.7467 24.6643C89.8979 24.749 90.0613 24.7974 90.2428 24.7974C90.4242 24.7974 90.5876 24.749 90.7388 24.6643L90.7449 24.6583ZM90.7267 23.8355C90.6783 23.9021 90.6118 23.9505 90.521 23.9807L90.8114 24.4344H90.6481L90.3758 24.011H89.9887V24.4344H89.8314V23.1641H90.3093C90.4605 23.1641 90.5815 23.2004 90.6662 23.273C90.757 23.3516 90.7993 23.4484 90.7993 23.5815C90.7993 23.6783 90.7751 23.7569 90.7267 23.8234V23.8355ZM90.5513 23.8053C90.6118 23.7569 90.642 23.6843 90.642 23.5936C90.642 23.5028 90.6118 23.4363 90.5513 23.3879C90.4908 23.3395 90.4061 23.3153 90.2972 23.3153H89.9826V23.8839H90.2972C90.4061 23.8839 90.4908 23.8597 90.5513 23.8053Z" fill="#161E33"/>
<path d="M50.8399 40.0795C50.8278 40.6663 50.368 41.0474 49.9143 41.12C49.6845 41.1684 49.4485 41.1987 49.2126 41.1987C47.6156 41.1987 46.1697 40.019 45.7826 38.3857C45.71 38.0832 45.6918 37.7565 45.6797 37.442C45.6797 37.327 45.6676 37.206 45.6616 37.0972C45.6313 36.71 45.6011 36.2986 45.5769 35.8389C45.5345 35.0403 45.5103 34.2176 45.5043 33.3042C45.4922 31.7011 45.5164 30.0798 45.5466 28.5009C45.5466 28.1319 45.5587 27.7629 45.5648 27.3939C45.5829 26.1719 45.5769 24.9257 45.5648 23.7279C45.5648 23.3407 45.5648 22.9536 45.5527 22.5785V22.4394C45.595 21.7921 46.1153 21.29 46.7505 21.29C46.9622 21.29 47.1618 21.3444 47.3373 21.4473H47.5309V21.5864C47.797 21.8163 47.9483 22.149 47.9483 22.512V22.6874C47.9604 27.2547 47.9604 31.7918 47.9483 36.1776C47.918 37.3149 48.0572 37.9622 48.4262 38.3433C48.7165 38.6458 49.1703 38.797 49.8175 38.797H49.9869C50.7492 38.9785 50.8339 39.5411 50.8218 40.0735H50.8339L50.8399 40.0795ZM63.1324 27.0853C62.6968 27.0853 62.3641 27.2971 62.2128 27.6661C61.3841 29.4688 60.5674 31.3078 59.781 33.0924C59.1639 34.4959 58.5227 35.9417 57.8754 37.3573C57.2342 36.1353 56.6595 34.8528 56.0969 33.6006C55.6432 32.5964 55.1773 31.5559 54.6813 30.5577C54.524 30.225 54.3728 29.8923 54.2215 29.5656C53.9372 28.9486 53.6408 28.3073 53.3444 27.6842C53.1568 27.291 52.812 27.0672 52.3946 27.0672C52.3462 27.0672 52.2918 27.0672 52.2494 27.0793C51.8078 27.1277 51.4328 27.3999 51.2513 27.8173C51.0819 28.2105 51.1242 28.6521 51.3662 28.997C51.6566 29.6201 51.953 30.2431 52.2494 30.8541C52.437 31.2473 52.6305 31.6406 52.8181 32.0338C53.1387 32.7113 53.4593 33.3828 53.7739 34.0603C54.1005 34.75 54.4212 35.4336 54.7478 36.1232C55.0201 36.7039 55.3044 37.2847 55.5827 37.8654C55.9275 38.5793 56.2662 39.2931 56.605 40.0069C56.6171 40.0311 56.6171 40.0916 56.6171 40.1098C56.1816 41.12 55.7278 42.1424 55.2862 43.1224C54.9414 43.8967 54.5845 44.7073 54.2397 45.4938C54.0885 45.8204 54.1126 46.1592 54.3123 46.4556C54.5543 46.8186 54.9051 47.0182 55.2741 47.0182C55.6432 47.0182 56.0243 46.8004 56.2723 46.4193C56.7502 45.6874 57.089 44.8586 57.4035 44.054C57.6274 43.4975 57.8573 42.9167 58.1355 42.3904L58.1476 42.3723C58.9522 40.5332 59.7991 38.6761 60.6279 36.8794C61.8983 34.1027 63.205 31.2353 64.3846 28.3799V28.3618L64.3967 28.3436C64.4693 28.0956 64.4088 27.8355 64.2454 27.6116C64.0035 27.291 63.5558 27.0732 63.1263 27.0732L63.1324 27.0853ZM88.2557 27.7689C87.6628 27.2184 86.8643 26.9281 85.9448 26.9281C84.5413 26.9281 82.9927 27.6056 82.0005 28.6098C81.9884 28.1561 81.9158 27.6963 81.6315 27.3999C81.4379 27.1942 81.1778 27.0974 80.8512 27.0974H80.7786C80.0284 27.0974 79.5929 27.5269 79.5929 28.2771C79.5747 32.1306 79.5808 36.0204 79.5929 40.0069C79.605 40.8297 80.2099 41.2047 80.7725 41.2047C81.1294 41.2047 81.4561 41.0656 81.686 40.8176C81.8977 40.5816 82.0066 40.2671 81.9884 39.9222C82.0066 38.8757 82.0005 37.811 81.9884 36.7886C81.9763 35.246 81.9642 33.649 82.0489 32.0822C82.2728 30.0254 84.3114 29.2994 86.1444 29.2994C86.4892 29.2994 86.8401 29.3236 87.1728 29.3781H87.191C87.2333 29.3781 87.2636 29.3781 87.2999 29.3781C87.7596 29.3781 88.0984 29.1542 88.3162 28.7187L88.3464 28.6642V27.8597L88.2617 27.781V27.7689H88.2557ZM75.8301 38.918C74.717 38.918 73.6039 38.918 72.4908 38.918H69.0124C70.0832 37.4359 71.2265 35.972 72.3335 34.5503C73.0897 33.5824 73.8701 32.5843 74.6202 31.5861C75.2494 30.7634 75.8785 29.9407 76.5016 29.1179C76.8283 28.6884 76.8948 28.1561 76.6891 27.6721C76.5258 27.2789 76.1568 27.0793 75.5881 27.0793H71.0208C69.333 27.0793 67.9538 27.0793 66.6955 27.0914C66.0724 27.0914 65.6792 27.2547 65.5037 28.0532C65.4432 28.3376 65.5158 28.6642 65.6913 28.9304C65.8485 29.1603 66.0542 29.3115 66.2781 29.3539H66.3083C67.1552 29.4023 68.0929 29.4325 69.2423 29.4325C69.8351 29.4325 70.4461 29.4325 71.0329 29.4204C71.6197 29.4204 72.2247 29.4083 72.8175 29.4083H73.4466C72.5876 30.5577 71.6923 31.689 70.8272 32.79C70.0106 33.8244 69.1757 34.8952 68.3651 35.9659C68.1231 36.2805 67.8751 36.6011 67.6271 36.9157C67.0645 37.6416 66.4837 38.3857 65.9212 39.1358C65.5521 39.6258 65.4856 40.14 65.7336 40.63C66.0179 41.1987 66.5684 41.1987 66.9375 41.1987H75.8301C76.4653 41.1987 76.9069 40.7147 76.9069 40.0493C76.9069 39.3838 76.4956 38.9241 75.8362 38.9241H75.8241L75.8301 38.918Z" fill="#161E33"/>
</svg>
