<svg width="106" height="64" viewBox="0 0 106 64" fill="none" xmlns="http://www.w3.org/2000/svg">
<path d="M32.1982 27.4587C33.2553 27.4587 34.2083 27.633 35.0527 27.9773C35.894 28.3217 36.619 28.8218 37.2178 29.4714C37.8195 30.1242 38.2774 30.9116 38.5918 31.8367C38.9062 32.7649 39.0644 33.8069 39.0645 34.9656C39.0645 35.3309 38.9391 35.6098 38.6846 35.8044C38.4301 35.9961 38.0707 36.0915 37.5977 36.0916H28.375C28.5038 37.2744 28.8752 38.1996 29.4951 38.8523C30.2796 39.6787 31.432 40.0896 32.959 40.0896C33.486 40.0896 34.0824 40.0231 34.7441 39.8914C35.4057 39.7596 36.0313 39.5321 36.6211 39.2058C37.0491 38.9603 37.4237 38.8557 37.75 38.8855C38.0764 38.9155 38.3346 39.0325 38.5293 39.2361C38.7207 39.4396 38.837 39.691 38.8789 39.9841C38.9208 40.2804 38.8645 40.5802 38.7119 40.8855C38.5592 41.1909 38.2979 41.4549 37.9326 41.6794C37.2201 42.1255 36.4027 42.4581 35.4775 42.6707C34.5523 42.8832 33.6929 42.991 32.8994 42.991C31.2106 42.991 29.7579 42.6765 28.5361 42.0447C27.3147 41.4129 26.3746 40.5177 25.7129 39.3591C25.0511 38.1973 24.7217 36.8251 24.7217 35.238C24.7217 33.6933 25.042 32.3401 25.6826 31.1814C26.3264 30.0226 27.2099 29.1117 28.3389 28.45C29.4676 27.7882 30.7551 27.4588 32.1982 27.4587ZM48.8125 27.4587C49.8694 27.4588 50.8217 27.633 51.666 27.9773C52.5074 28.3217 53.2323 28.8218 53.8311 29.4714C54.4328 30.1242 54.8907 30.9116 55.2051 31.8367C55.5195 32.7649 55.6787 33.8069 55.6787 34.9656C55.6787 35.3309 55.5524 35.6098 55.2979 35.8044C55.0433 35.996 54.6809 36.0916 54.2109 36.0916H44.9883C45.117 37.2743 45.4856 38.1996 46.1084 38.8523C46.8929 39.6787 48.0454 40.0895 49.5723 40.0896C50.0993 40.0896 50.6956 40.0231 51.3574 39.8914C52.0192 39.7596 52.6455 39.5322 53.2354 39.2058C53.6634 38.9604 54.038 38.8556 54.3643 38.8855C54.6904 38.9155 54.948 39.0326 55.1426 39.2361C55.3341 39.4396 55.4512 39.6909 55.4932 39.9841C55.535 40.2804 55.4778 40.5802 55.3252 40.8855C55.1726 41.1908 54.912 41.4549 54.5469 41.6794C53.8342 42.1256 53.0161 42.458 52.0908 42.6707C51.1656 42.8832 50.3062 42.991 49.5127 42.991C47.8241 42.9909 46.372 42.6763 45.1504 42.0447C43.9288 41.4129 42.9879 40.5178 42.3262 39.3591C41.6644 38.1973 41.335 36.8251 41.335 35.238C41.335 33.6933 41.6554 32.3401 42.2959 31.1814C42.9397 30.0226 43.8233 29.1117 44.9521 28.45C46.0811 27.7882 47.3691 27.4587 48.8125 27.4587ZM75.3008 20.991C75.9118 20.991 76.3854 21.1529 76.7207 21.4792C77.0558 21.8056 77.2227 22.2822 77.2227 22.9138V29.9919C77.645 29.3123 78.1994 28.7644 78.8848 28.3572C79.831 27.7973 80.903 27.5194 82.1035 27.5193C83.3013 27.5193 84.2895 27.7431 85.0625 28.1892C85.8374 28.6383 86.4161 29.3153 86.8057 30.2224C87.1918 31.1267 87.3857 32.2707 87.3857 33.6541V41.0388C87.3857 41.6706 87.224 42.1527 86.8975 42.488C86.5716 42.8231 86.1048 42.9909 85.4941 42.991C84.8831 42.991 84.4095 42.8234 84.0742 42.488C83.739 42.1527 83.5713 41.6706 83.5713 41.0388V33.8367C83.5712 32.678 83.353 31.8334 82.916 31.3035C82.4783 30.7735 81.801 30.5105 80.8848 30.5105C79.7653 30.5106 78.8757 30.8636 78.2139 31.5642C77.552 32.2649 77.2227 33.1965 77.2227 34.3552V41.0388C77.2226 42.3413 76.5824 42.991 75.3008 42.991C74.6897 42.991 74.2221 42.8234 73.8955 42.488C73.5697 42.1527 73.4082 41.6705 73.4082 41.0388V22.9138C73.4082 22.2822 73.5698 21.8056 73.8955 21.4792C74.2221 21.1529 74.6897 20.991 75.3008 20.991ZM97.7773 27.4587C99.3225 27.4588 100.667 27.7733 101.805 28.405C102.945 29.0339 103.828 29.9297 104.46 31.0916C105.092 32.2533 105.406 33.6247 105.406 35.2117C105.406 36.4122 105.23 37.49 104.874 38.4451C104.517 39.4003 104.003 40.2184 103.332 40.9011C102.661 41.5838 101.855 42.1015 100.921 42.4578C99.9834 42.811 98.9363 42.9909 97.7773 42.991C96.232 42.991 94.8875 42.6765 93.749 42.0447C92.6087 41.4128 91.7222 40.5143 91.0938 39.3435C90.462 38.1728 90.1475 36.7956 90.1475 35.2087C90.1475 34.008 90.3236 32.9352 90.6797 31.989C91.0364 31.0429 91.5514 30.2312 92.2227 29.5486C92.8932 28.866 93.6986 28.3482 94.6328 27.9919C95.5704 27.6386 96.6189 27.4587 97.7773 27.4587ZM15.7236 27.4285C17.3945 27.4285 18.9032 28.106 19.9961 29.2019C21.092 30.2978 21.7695 31.8095 21.7695 33.4773C21.7695 33.4773 21.7695 41.2751 21.7695 41.2781C21.7695 42.1943 20.9788 42.9879 20.0596 42.988C19.1164 42.988 18.3497 42.2212 18.3496 41.2781V33.4509C18.3586 32.0017 17.1519 30.8304 15.7236 30.8542C14.2953 30.8303 13.0917 32.0046 13.0977 33.4509V41.2781C13.0917 42.2062 12.31 42.9879 11.3818 42.988C10.4537 42.988 9.67192 42.2063 9.67188 41.2781V33.4509C9.68084 32.0017 8.47417 30.8304 7.0459 30.8542C5.61757 30.8303 4.41393 32.0046 4.41992 33.4509V41.2781C4.41988 42.2212 3.65309 42.9879 2.70996 42.988C1.7907 42.988 1.00005 42.1943 1 41.2781V33.4773C1.00007 31.8066 1.67673 30.2948 2.77246 29.2019C3.86842 28.106 5.37801 27.4285 7.0459 27.4285C8.74664 27.4285 10.2859 28.1326 11.3848 29.2644C12.4808 28.1326 14.0199 27.4285 15.7236 27.4285ZM64.6885 27.447C65.5838 27.447 66.4225 27.5434 67.207 27.738C67.988 27.9326 68.7489 28.2314 69.4795 28.6384C69.7847 28.8001 69.9944 29.0165 70.1055 29.28C70.2158 29.5434 70.2402 29.8132 70.1807 30.0886C70.1204 30.3639 69.998 30.6095 69.8154 30.822C69.6327 31.0376 69.4046 31.1696 69.1289 31.2205C68.8539 31.2713 68.5421 31.2141 68.1982 31.0525C67.5692 30.7291 66.9637 30.4951 66.3828 30.3513C65.8052 30.2107 65.2514 30.1394 64.7217 30.1394C63.7247 30.1394 62.9879 30.3127 62.5088 30.657C62.0327 31.0043 61.793 31.4631 61.793 32.032C61.7931 32.4598 61.9365 32.8161 62.2207 33.1003C62.5051 33.3877 62.9426 33.5796 63.5322 33.6814L66.584 34.2625C67.9043 34.508 68.9074 34.9538 69.584 35.5945C70.2639 36.2442 70.6054 37.1188 70.6055 38.2175C70.6055 39.7028 70.0244 40.8682 68.8652 41.7126C67.7067 42.5569 66.1587 42.9792 64.2275 42.9792C63.3531 42.9792 62.4274 42.8865 61.4512 42.7039C60.4752 42.5212 59.6006 42.2067 58.8281 41.7576C58.5048 41.557 58.2743 41.3173 58.1426 41.0417C58.0108 40.7664 57.9604 40.494 57.9902 40.2185C58.0202 39.943 58.1222 39.7033 58.2959 39.4998C58.4665 39.2993 58.6906 39.1641 58.9658 39.1042C59.2412 39.0444 59.5409 39.0951 59.8672 39.2566C60.6787 39.6429 61.4426 39.9125 62.1553 40.0652C62.8679 40.2178 63.569 40.2927 64.2607 40.2927C65.2397 40.2927 65.9644 40.1251 66.4434 39.7898C66.9193 39.4545 67.1592 39.0115 67.1592 38.4636C67.1592 37.9965 67 37.6342 66.6855 37.3796C66.3682 37.1281 65.8953 36.939 65.2666 36.8162L62.2148 36.2361C60.9543 35.9906 59.9928 35.5291 59.3311 34.8464C58.6694 34.1667 58.3398 33.2857 58.3398 32.2078C58.3399 31.2318 58.6096 30.3871 59.1484 29.6746C59.6875 28.9649 60.4364 28.4144 61.3916 28.0281C62.3498 27.6418 63.4488 27.447 64.6885 27.447ZM97.7803 30.3542C97.0287 30.3543 96.3667 30.5311 95.7979 30.8875C95.229 31.2438 94.7856 31.7831 94.4717 32.5046C94.1571 33.2263 93.998 34.1279 93.998 35.2058C93.9981 36.8134 94.3423 38.0289 95.0342 38.8523C95.7255 39.6788 96.6419 40.0896 97.7803 40.0896C98.5317 40.0896 99.1929 39.9069 99.7617 39.5417C100.331 39.1764 100.775 38.6305 101.089 37.9089C101.403 37.1874 101.561 36.2864 101.562 35.2058C101.562 33.5769 101.217 32.3609 100.525 31.5583C99.834 30.7559 98.918 30.3542 97.7803 30.3542ZM32.3545 30.0525C31.4982 30.0525 30.7708 30.25 30.1719 30.6482C29.573 31.0435 29.1143 31.6033 28.7969 32.325C28.5963 32.789 28.4644 33.3194 28.3926 33.8972H35.876C35.837 33.1637 35.708 32.5286 35.4805 32.0046C35.208 31.3759 34.8099 30.8908 34.292 30.5554C33.774 30.2201 33.127 30.0525 32.3545 30.0525ZM48.9678 30.0525C48.1114 30.0525 47.384 30.2499 46.7852 30.6482C46.1833 31.0435 45.7245 31.6033 45.4102 32.325C45.2096 32.789 45.0777 33.3194 45.0059 33.8972H52.4893C52.4504 33.1637 52.3214 32.5286 52.0938 32.0046C51.8213 31.3758 51.4232 30.8908 50.9053 30.5554C50.3873 30.22 49.7404 30.0525 48.9678 30.0525Z" fill="#161E33"/>
</svg>
