<svg width="124" height="64" viewBox="0 0 124 64" fill="none" xmlns="http://www.w3.org/2000/svg">
<path fill-rule="evenodd" clip-rule="evenodd" d="M14.4599 20.3162C15.0988 20.3162 15.6167 19.7983 15.6167 19.1594C15.6167 18.5205 15.0988 18.0026 14.4599 18.0026C13.821 18.0026 13.3031 18.5205 13.3031 19.1594C13.3031 19.7983 13.821 20.3162 14.4599 20.3162ZM9.85965 25.6067C9.5619 25.2218 9.32252 24.7411 9.44848 24.271C9.57443 23.801 10.0221 23.5043 10.4724 23.3199C11.0374 23.0885 11.4916 22.6051 11.6618 21.9699C11.9512 20.8899 11.3103 19.7799 10.2304 19.4905C9.15045 19.2011 8.04041 19.842 7.75102 20.922C7.58081 21.5573 7.7325 22.203 8.10614 22.6859C8.4039 23.0708 8.64329 23.5515 8.51733 24.0215C8.39138 24.4916 7.94374 24.7882 7.4934 24.9726C6.92837 25.204 6.47412 25.6874 6.30391 26.3227C6.01452 27.4026 6.65543 28.5127 7.73535 28.802C8.81531 29.0914 9.92535 28.4505 10.2147 27.3706C10.3849 26.7353 10.2333 26.0896 9.85965 25.6067ZM22.2398 28.0117C21.7698 27.8858 21.2892 28.1251 20.9043 28.4229C20.4214 28.7965 19.7757 28.9482 19.1404 28.778C18.0604 28.4886 17.4195 27.3786 17.7089 26.2986C17.9983 25.2187 19.1083 24.5778 20.1882 24.8672C20.8235 25.0374 21.3069 25.4916 21.5383 26.0566C21.7227 26.5069 22.0194 26.9546 22.4895 27.0806C22.9595 27.2065 23.4402 26.9672 23.8251 26.6695C24.3081 26.2959 24.9537 26.1443 25.5889 26.3145C26.669 26.6039 27.3096 27.7139 27.0204 28.7938C26.7309 29.8738 25.621 30.5147 24.541 30.2253C23.9057 30.0551 23.4223 29.6008 23.1909 29.0356C23.0065 28.5853 22.7099 28.1376 22.2398 28.0117ZM26.7566 38.0111C25.966 38.8017 24.6843 38.8017 23.8937 38.0111C23.4287 37.5461 23.2372 36.9111 23.3192 36.3062C23.3846 35.8239 23.3515 35.288 23.0074 34.9439C22.6633 34.5998 22.1273 34.5667 21.6451 34.6321C21.0401 34.7141 20.4051 34.5226 19.9401 34.0576C19.1495 33.267 19.1495 31.9853 19.9401 31.1947C20.7307 30.4041 22.0124 30.4041 22.803 31.1947C23.2682 31.6598 23.4596 32.295 23.3774 32.9001C23.312 33.3823 23.345 33.9182 23.689 34.2622C24.0331 34.6062 24.569 34.6393 25.0511 34.5738C25.6563 34.4916 26.2916 34.683 26.7566 35.1482C27.5472 35.9387 27.5472 37.2205 26.7566 38.0111ZM16.5262 42.9033C16.2368 43.9831 16.8777 45.0932 17.9577 45.3827C19.0376 45.6719 20.1476 45.031 20.437 43.9512C20.6073 43.3158 20.4555 42.6701 20.0819 42.1872C19.7841 41.8023 19.5448 41.3216 19.6707 40.8516C19.7966 40.3816 20.2442 40.085 20.6945 39.9006C21.2595 39.6692 21.7138 39.1858 21.884 38.5505C22.1734 37.4706 21.5325 36.3606 20.4526 36.0712C19.3726 35.7818 18.2626 36.4227 17.9732 37.5027C17.803 38.138 17.9547 38.7838 18.3284 39.2667C18.6261 39.6515 18.8655 40.1322 18.7396 40.6022C18.6136 41.0722 18.166 41.3688 17.7158 41.5532C17.1507 41.7845 16.6964 42.2679 16.5262 42.9033ZM7.37448 43.8556C6.81546 42.8873 7.14718 41.6493 8.11545 41.0902C8.68507 40.7613 9.34807 40.7408 9.91126 40.9767C10.3601 41.1647 10.8863 41.2715 11.3077 41.0282C11.7291 40.7849 11.8998 40.2758 11.9613 39.7931C12.0386 39.1873 12.3879 38.6234 12.9576 38.2945C13.9258 37.7355 15.1639 38.0673 15.7229 39.0355C16.2819 40.0038 15.9502 41.2419 14.982 41.8009C14.4124 42.1297 13.7495 42.1503 13.1863 41.9145C12.7375 41.7265 12.2112 41.6197 11.7898 41.863C11.3683 42.1064 11.1977 42.6156 11.136 43.0983C11.0587 43.7039 10.7094 44.2676 10.1398 44.5965C9.17159 45.1555 7.93349 44.8237 7.37448 43.8556ZM7.28357 36.4503C6.89875 36.748 6.41809 36.9874 5.94812 36.8614C5.47813 36.7355 5.18155 36.2879 4.99716 35.8376C4.76577 35.2725 4.28239 34.8182 3.64704 34.648C2.56708 34.3586 1.45705 34.9995 1.16768 36.0794C0.878314 37.1594 1.5192 38.2694 2.59914 38.5588C3.23441 38.729 3.88012 38.5773 4.36303 38.2037C4.7479 37.906 5.2286 37.6666 5.6986 37.7926C6.16862 37.9185 6.46525 38.3662 6.64967 38.8164C6.88111 39.3814 7.36444 39.8357 7.99974 40.0059C9.07967 40.2953 10.1897 39.6544 10.4791 38.5744C10.7685 37.4945 10.1276 36.3844 9.04763 36.0951C8.41228 35.9248 7.7665 36.0766 7.28357 36.4503ZM1.43152 26.8621C2.22209 26.0716 3.50386 26.0716 4.29442 26.8621C4.75949 27.3272 4.95096 27.9623 4.86887 28.5673C4.80345 29.0494 4.83655 29.5853 5.18057 29.9293C5.52463 30.2734 6.06062 30.3064 6.54278 30.241C7.14788 30.1588 7.783 30.3503 8.2481 30.8154C9.03868 31.6059 9.03868 32.8877 8.2481 33.6783C7.45753 34.4689 6.17575 34.4689 5.38519 33.6783C4.92012 33.2132 4.72865 32.5781 4.81074 31.9731C4.87618 31.491 4.84309 30.9551 4.49907 30.6111C4.15501 30.267 3.61905 30.234 3.13689 30.2995C2.53178 30.3816 1.89664 30.1902 1.43152 29.725C0.640945 28.9345 0.640945 27.6527 1.43152 26.8621ZM16.8801 23.845C16.4588 24.0882 16.2881 24.5973 16.2266 25.0799C16.1493 25.6857 15.8 26.2496 15.2304 26.5785C14.2621 27.1375 13.024 26.8058 12.465 25.8375C11.906 24.8693 12.2377 23.6312 13.206 23.0722C13.7755 22.7434 14.4385 22.7227 15.0016 22.9586C15.4505 23.1466 15.9768 23.2534 16.3982 23.0101C16.8196 22.7668 16.9903 22.2576 17.0519 21.775C17.1293 21.1694 17.4786 20.6056 18.0481 20.2768C19.0163 19.7177 20.2544 20.0495 20.8135 21.0177C21.3725 21.986 21.0407 23.2241 20.0725 23.7831C19.5028 24.112 18.8397 24.1325 18.2765 23.8965C17.8277 23.7085 17.3015 23.6017 16.8801 23.845ZM26.9919 33.6193C27.6307 33.6193 28.1485 33.1014 28.1485 32.4625C28.1485 31.8236 27.6307 31.3057 26.9919 31.3057C26.353 31.3057 25.8351 31.8236 25.8351 32.4625C25.8351 33.1014 26.353 33.6193 26.9919 33.6193ZM24.871 23.5938C24.871 24.2327 24.3531 24.7506 23.7142 24.7506C23.0753 24.7506 22.5574 24.2327 22.5574 23.5938C22.5574 22.9549 23.0753 22.437 23.7142 22.437C24.3531 22.437 24.871 22.9549 24.871 23.5938ZM5.97678 23.2081C5.97678 23.847 5.45886 24.3649 4.81998 24.3649C4.1811 24.3649 3.6632 23.847 3.6632 23.2081C3.6632 22.5693 4.1811 22.0514 4.81998 22.0514C5.45886 22.0514 5.97678 22.5693 5.97678 23.2081ZM1.15679 33.6193C1.79567 33.6193 2.31358 33.1014 2.31358 32.4625C2.31358 31.8236 1.79567 31.3057 1.15679 31.3057C0.517913 31.3057 0 31.8236 0 32.4625C0 33.1014 0.517913 33.6193 1.15679 33.6193ZM5.78401 41.1384C5.78401 41.7773 5.26608 42.2952 4.62721 42.2952C3.98833 42.2952 3.47042 41.7773 3.47042 41.1384C3.47042 40.4995 3.98833 39.9816 4.62721 39.9816C5.26608 39.9816 5.78401 40.4995 5.78401 41.1384ZM13.4959 45.9585C14.1348 45.9585 14.6527 45.4405 14.6527 44.8017C14.6527 44.1628 14.1348 43.6449 13.4959 43.6449C12.857 43.6449 12.3391 44.1628 12.3391 44.8017C12.3391 45.4405 12.857 45.9585 13.4959 45.9585ZM24.6781 41.524C24.6781 42.1629 24.1602 42.6808 23.5214 42.6808C22.8825 42.6808 22.3646 42.1629 22.3646 41.524C22.3646 40.8851 22.8825 40.3672 23.5214 40.3672C24.1602 40.3672 24.6781 40.8851 24.6781 41.524ZM14.0245 35.7764C15.9417 35.7764 17.4959 34.2221 17.4959 32.3049C17.4959 30.3877 15.9417 28.8335 14.0245 28.8335C12.1073 28.8335 10.5531 30.3877 10.5531 32.3049C10.5531 34.2221 12.1073 35.7764 14.0245 35.7764Z" fill="#161E33"/>
<path d="M64.7926 35.8519C64.7794 36.9782 65.1088 38.0819 65.737 39.0168C66.3652 39.9517 67.2627 40.6736 68.3106 41.0868C69.6337 41.6173 70.9897 41.6536 72.3356 41.1871C73.6958 40.7177 74.6213 39.717 75.3976 38.5251C75.7535 38.7116 76.1044 38.8946 76.4546 39.0798C76.687 39.2023 76.9139 39.3359 77.152 39.4468C77.3167 39.5232 77.352 39.5988 77.2638 39.7703C76.6156 41.0331 75.629 41.9561 74.4047 42.6449C73.0875 43.3862 71.6641 43.6934 70.1649 43.6478C68.1194 43.5859 66.3336 42.8647 64.8676 41.4287C63.5468 40.1356 62.7617 38.5532 62.4756 36.7259C62.2406 35.2233 62.2776 33.7288 62.7386 32.2749C63.5826 29.6111 65.2807 27.7168 68.0035 26.9503C70.5983 26.2197 73.0318 26.6358 75.1011 28.4743C76.3962 29.6265 77.1712 31.0919 77.5219 32.7844C77.7203 33.7416 77.7144 34.7048 77.5886 35.6684C77.5712 35.8007 77.5276 35.8639 77.3909 35.8519C77.3274 35.8463 77.263 35.8519 77.199 35.8519H64.7926ZM75.2274 33.6853C75.1732 31.9177 74.4107 30.5427 72.9618 29.615C71.1567 28.4598 69.2648 28.4905 67.4328 29.562C65.8815 30.4697 65.0515 31.884 64.81 33.6853H75.2274Z" fill="#161E33"/>
<path d="M123.994 31.9783C124.017 33.99 123.765 35.9611 123.023 37.8469C122.324 39.6235 121.289 41.1534 119.71 42.2689C118.524 43.1062 117.199 43.5402 115.752 43.6302C114.411 43.7156 113.113 43.5508 111.877 43.0089C110.304 42.3192 109.103 41.1986 108.182 39.7656C107.191 38.2216 106.633 36.5176 106.369 34.7099C106.12 33.013 106.103 31.2903 106.318 29.5889C106.592 27.389 107.269 25.3316 108.622 23.5457C109.762 22.0435 111.215 20.9596 113.078 20.5533C115.809 19.9559 118.322 20.4193 120.461 22.3286C121.674 23.4117 122.492 24.7666 123.071 26.2739C123.637 27.7466 123.913 29.2795 123.989 30.8503C124.01 31.2259 123.994 31.6027 123.994 31.9783ZM121.609 31.9928C121.601 30.896 121.518 29.8133 121.287 28.7469C120.983 27.3497 120.465 26.0456 119.597 24.8938C117.907 22.6499 115.251 22.1276 113.014 23.0204C111.557 23.602 110.593 24.7274 109.884 26.0866C108.994 27.7935 108.68 29.6401 108.633 31.5417C108.601 32.6008 108.675 33.6605 108.855 34.7048C109.091 36.0319 109.501 37.2977 110.223 38.4422C111.184 39.9632 112.475 41.0347 114.316 41.2916C115.601 41.4713 116.825 41.2733 117.941 40.5781C119.173 39.81 119.989 38.6893 120.575 37.3877C121.35 35.6713 121.59 33.8491 121.609 31.9928Z" fill="#161E33"/>
<path d="M115.118 30.4037C114.247 30.4037 113.54 31.1098 113.54 31.9809C113.54 32.852 114.247 33.5586 115.118 33.5586C115.989 33.5586 116.695 32.8524 116.695 31.9813C116.695 31.1102 115.989 30.4037 115.118 30.4037Z" fill="#161E33"/>
<path d="M59.6985 32.5412C59.6928 30.7953 59.0075 29.3312 57.7127 28.1755C56.1307 26.7634 54.2663 26.3243 52.2154 26.7856C50.7128 27.1236 49.5064 27.9348 48.7161 29.2953C48.6502 29.4084 48.5879 29.5228 48.5117 29.6559C48.4668 29.5893 48.438 29.5501 48.4134 29.5087C48.0386 28.8814 47.5499 28.3296 46.9728 27.8815C46.9536 27.8653 46.9331 27.8491 46.9103 27.8324C46.7824 27.7356 46.6501 27.6438 46.5139 27.5563C45.424 26.8436 44.4591 26.6136 43.4175 26.6136C42.846 26.6001 42.2751 26.6583 41.718 26.7869C40.3526 27.0946 39.228 27.7944 38.4415 28.9441H37.9806V28.688C37.9806 28.2045 37.9705 27.7206 37.9858 27.2371C37.9923 27.0237 37.9202 26.9683 37.7186 26.9776C37.3993 26.993 37.0785 26.9913 36.7589 26.9776C36.5685 26.9699 36.5029 27.0203 36.5029 27.226C36.5117 28.6983 36.5076 30.1706 36.5076 31.6424C36.5076 35.4328 36.506 39.2234 36.5032 43.014C36.5032 43.212 36.5592 43.2701 36.7543 43.2654C37.3371 43.2539 37.9204 43.2616 38.5038 43.2611C38.8054 43.2611 38.8054 43.2611 38.8054 42.9564C38.8054 39.8488 38.8065 36.7411 38.808 33.6332C38.807 33.2995 38.8264 32.966 38.8661 32.6346C39.1009 30.7505 40.4647 29.0047 42.7158 28.93C42.9083 28.9236 43.1013 28.9281 43.2932 28.9437C43.336 28.9475 43.3757 28.9509 43.4167 28.956C44.5227 29.0777 45.4352 29.5987 46.1246 30.5777C46.7422 31.4559 46.9476 32.4554 46.9492 33.5048C46.9551 36.6695 46.9551 39.8342 46.9492 42.9987C46.9492 43.2035 47.0078 43.2688 47.2137 43.2645C47.7968 43.2526 48.3796 43.2607 48.9635 43.2603C49.2486 43.2603 49.2486 43.2603 49.2486 42.9654C49.2486 39.8574 49.2447 36.7498 49.2538 33.6422C49.2569 33.2304 49.2932 32.8195 49.363 32.4136C49.6825 30.4966 51.1348 28.9915 53.2101 28.9262C54.445 28.8873 55.5004 29.2876 56.3185 30.2333C57.0904 31.1256 57.3944 32.1908 57.397 33.3486C57.4042 36.5492 57.3996 39.7498 57.3996 42.9505C57.3996 43.2616 57.3996 43.262 57.7186 43.262C58.2802 43.262 58.842 43.262 59.4038 43.262C59.7026 43.262 59.7026 43.262 59.7026 42.9552C59.7018 39.4823 59.7099 36.0115 59.6985 32.5412Z" fill="#161E33"/>
<path d="M103.479 32.5412C103.474 30.7953 102.788 29.3312 101.494 28.1755C99.9116 26.7634 98.0472 26.3243 95.9963 26.7856C94.4937 27.1236 93.287 27.9348 92.4967 29.2953C92.4311 29.4084 92.3688 29.5228 92.2923 29.6559C92.2477 29.5893 92.2189 29.5501 92.1943 29.5087C91.8197 28.8817 91.3316 28.33 90.7547 27.8819C90.7355 27.8657 90.715 27.8495 90.6925 27.8328C90.5646 27.736 90.4323 27.6442 90.2961 27.5567C89.2062 26.8441 88.2413 26.614 87.1996 26.614C86.6282 26.6005 86.0573 26.6587 85.5002 26.7873C84.1325 27.095 83.0101 27.7949 82.2237 28.9445H81.7628V28.6885C81.7628 28.205 81.7527 27.721 81.768 27.2375C81.7742 27.0242 81.7021 26.9687 81.5008 26.9781C81.1815 26.9934 80.8607 26.9917 80.5411 26.9781C80.3507 26.9704 80.2848 27.0207 80.2848 27.2264C80.2939 28.6987 80.2898 30.171 80.2898 31.6429C80.2898 35.4332 80.2882 39.2238 80.2854 43.0145C80.2854 43.2125 80.3414 43.2705 80.5364 43.2658C81.1193 43.2543 81.7026 43.262 82.2859 43.2616C82.5873 43.2616 82.5874 43.2616 82.5874 42.9568C82.5874 39.8493 82.5881 36.7415 82.59 33.6336C82.5887 33.2999 82.6081 32.9664 82.6478 32.6351C82.8825 30.7509 84.2464 29.0051 86.4975 28.9304C86.6902 28.924 86.8829 28.9285 87.0749 28.9441C87.1177 28.9479 87.1574 28.9513 87.1983 28.9565C88.3043 29.0781 89.2168 29.5991 89.9065 30.5781C90.5244 31.4564 90.7293 32.4558 90.7308 33.5052C90.7368 36.67 90.7368 39.8346 90.7308 42.9991C90.7308 43.2039 90.7897 43.2692 90.9954 43.265C91.5785 43.253 92.1618 43.2611 92.7452 43.2607C93.0302 43.2607 93.0302 43.2607 93.0308 42.9658C93.0308 39.8578 93.0263 36.7502 93.0354 33.6426C93.0385 33.2308 93.0751 32.8199 93.1446 32.414C93.4642 30.497 94.9165 28.9919 96.9917 28.9266C98.2267 28.8878 99.2821 29.2881 100.1 30.2337C100.872 31.1261 101.176 32.1912 101.179 33.349C101.186 36.5496 101.181 39.7503 101.181 42.9509C101.181 43.262 101.181 43.2624 101.5 43.2624C102.062 43.2624 102.624 43.2624 103.186 43.2624C103.484 43.2624 103.484 43.2624 103.484 42.9556C103.483 39.4823 103.491 36.0115 103.479 32.5412Z" fill="#161E33"/>
</svg>
