<svg width="110" height="64" viewBox="0 0 110 64" fill="none" xmlns="http://www.w3.org/2000/svg">
<path d="M52.1941 24.6295H57.1513V40.6284H53.4779V29.8696L48.7785 40.6284L43.8327 29.8561V40.6284H40.405V24.6295H45.3046L48.837 32.9104L52.1941 24.6295Z" fill="#161E33"/>
<path d="M58.9781 24.6295V40.6284H68.2094V37.9161H62.5568V33.8458H67.9757V31.1079H62.5568V27.4373H68.2094V24.6295H58.9781Z" fill="#161E33"/>
<path d="M81.9772 32.6318C81.9772 38.5872 88.1927 43.3529 94.7416 40.1653V36.7377C89.7024 40.2679 85.3158 36.7296 85.3877 32.7686C85.4368 30.136 87.2059 27.6325 90.6279 27.4373C92.3107 27.3417 93.4506 27.76 94.7416 28.9961V25.4317C90.0095 22.6275 81.9772 25.7139 81.9772 32.6318Z" fill="#161E33"/>
<path d="M96.2527 40.6284H99.6554V24.7834H96.2527V40.6284Z" fill="#161E33"/>
<path d="M103.925 32.049L109.067 24.8183H105.093L99.9989 32.0354L105.913 40.6284H109.815L103.925 32.049Z" fill="#161E33"/>
<path d="M69.8002 24.6293V40.6283H73.3914V32.0329L79.3276 40.6283H83.1557L78.4562 33.9104C80.6342 33.0868 81.3408 31.2606 81.3408 29.4353C81.3408 27.6114 79.8097 24.6293 76.1007 24.6293H69.8002ZM73.3914 27.2916H74.959C77.6092 27.2916 77.7507 29.0242 77.7507 29.6711C77.7507 30.9072 76.7019 31.9598 75.3482 31.9598H73.3914V27.2916Z" fill="#161E33"/>
<path d="M8.18501 24.6298C8.18501 20.2111 11.7672 16.6296 16.1852 16.6296C20.6046 16.6296 24.1854 20.2111 24.1854 24.6298H8.18501ZM8.18501 40.6294C8.18501 36.2115 11.7672 32.6293 16.1852 32.6293C11.7672 32.6293 8.18501 29.0485 8.18501 24.6298C3.76707 24.6298 0.185547 28.2113 0.185547 32.6293C0.185547 37.0487 3.76707 40.6294 8.18501 40.6294ZM8.18501 40.6294C8.18501 45.0488 11.7672 48.6296 16.1852 48.6296C20.6046 48.6296 24.1854 45.0488 24.1854 40.6294H8.18501ZM16.1852 32.6293C20.6046 32.6293 24.1854 36.2115 24.1854 40.6294C28.604 40.6294 32.1863 37.0487 32.1863 32.6293C32.1863 28.2113 28.604 24.6298 24.1854 24.6298C24.1854 29.0485 20.6046 32.6293 16.1852 32.6293Z" fill="#161E33"/>
</svg>
