<svg width="120" height="64" viewBox="0 0 120 64" fill="none" xmlns="http://www.w3.org/2000/svg">
<path fill-rule="evenodd" clip-rule="evenodd" d="M12.1564 19H0V31.1564H12.1564V19ZM49.9052 24.1185V39.4739H47.2393V27.4241H47.2038L42.4407 39.4739H40.6635L35.7938 27.4241H35.7583V39.4739H33.3057V24.1185H37.1445L41.5521 35.4929H41.6232L46.2796 24.1185H49.9052ZM52.109 25.2914C52.109 24.8649 52.2512 24.5095 52.5711 24.2251C52.891 23.9407 53.2464 23.7986 53.673 23.7986C54.135 23.7986 54.526 23.9407 54.8104 24.2251C55.0948 24.5095 55.2725 24.8649 55.2725 25.2914C55.2725 25.718 55.1303 26.0734 54.8104 26.3578C54.4905 26.6422 54.135 26.7843 53.673 26.7843C53.2109 26.7843 52.8554 26.6422 52.5711 26.3578C52.2867 26.0379 52.109 25.6824 52.109 25.2914ZM54.9881 28.455V39.4739H52.3933V28.455H54.9881ZM62.8436 37.59C63.2346 37.59 63.6611 37.5189 64.1232 37.3057C64.5853 37.1279 65.0118 36.8791 65.4028 36.5948V39.0118C64.9763 39.2606 64.5142 39.4384 63.981 39.545C63.4478 39.6516 62.8791 39.7227 62.2393 39.7227C60.6042 39.7227 59.2891 39.2251 58.2938 38.1943C57.263 37.1635 56.7654 35.8483 56.7654 34.2843C56.7654 32.5071 57.2986 31.0497 58.3294 29.9123C59.3602 28.7749 60.8175 28.2061 62.7369 28.2061C63.2346 28.2061 63.7322 28.2772 64.1943 28.3839C64.6919 28.4905 65.0829 28.6682 65.3673 28.8104V31.2986C64.9763 31.0142 64.5497 30.7654 64.1587 30.6232C63.7322 30.481 63.3057 30.3744 62.8791 30.3744C61.8483 30.3744 61.0308 30.6943 60.391 31.3696C59.7512 32.045 59.4668 32.9336 59.4668 34.0711C59.4668 35.173 59.7867 36.0616 60.391 36.6659C60.9952 37.2701 61.8128 37.59 62.8436 37.59ZM72.7606 28.2772C72.9739 28.2772 73.1516 28.2772 73.3294 28.3128C73.5071 28.3483 73.6493 28.3839 73.7559 28.4194V31.0497C73.6137 30.9431 73.436 30.8365 73.1516 30.7654C72.8673 30.6943 72.5829 30.6232 72.1919 30.6232C71.5521 30.6232 71.0189 30.9076 70.5924 31.4407C70.1659 31.9739 69.917 32.7914 69.917 33.9289V39.4739H67.3223V28.455H69.917V30.1967H69.9526C70.2014 29.5924 70.5568 29.1303 71.0189 28.7749C71.5166 28.455 72.0853 28.2772 72.7606 28.2772ZM73.8981 34.1422C73.8981 32.3294 74.4313 30.872 75.4265 29.8057C76.4573 28.7393 77.8791 28.2061 79.6919 28.2061C81.3981 28.2061 82.7488 28.7038 83.7085 29.7346C84.6682 30.7654 85.1659 32.1516 85.1659 33.8933C85.1659 35.6706 84.6327 37.0924 83.6374 38.1587C82.6066 39.2251 81.2204 39.7583 79.4431 39.7583C77.7369 39.7583 76.3862 39.2606 75.391 38.2654C74.3957 37.2346 73.8981 35.8483 73.8981 34.1422ZM76.5995 34.0355C76.5995 35.173 76.8483 36.0616 77.3815 36.6659C77.9147 37.2701 78.6611 37.59 79.6208 37.59C80.545 37.59 81.2914 37.3057 81.7891 36.6659C82.2867 36.0616 82.5355 35.173 82.5355 33.9644C82.5355 32.7914 82.2867 31.9028 81.7891 31.263C81.2914 30.6587 80.545 30.3388 79.6564 30.3388C78.6967 30.3388 77.9858 30.6587 77.4526 31.2986C76.8483 31.9739 76.5995 32.8625 76.5995 34.0355ZM89.0403 31.3696C89.0403 31.7251 89.1469 32.045 89.3957 32.2583C89.6445 32.4715 90.1422 32.7204 90.9597 33.0403C91.9905 33.4668 92.7369 33.9289 93.1279 34.4265C93.5545 34.9597 93.7677 35.564 93.7677 36.3104C93.7677 37.3412 93.3767 38.1587 92.5592 38.7986C91.7772 39.4384 90.6753 39.7227 89.3246 39.7227C88.8625 39.7227 88.3649 39.6516 87.7962 39.545C87.2275 39.4384 86.7654 39.2962 86.3744 39.1185V36.5592C86.8365 36.8791 87.3696 37.1635 87.9028 37.3412C88.436 37.5189 88.9336 37.6256 89.3957 37.6256C89.9644 37.6256 90.4265 37.5545 90.6753 37.3768C90.9597 37.199 91.1019 36.9502 91.1019 36.5592C91.1019 36.2038 90.9597 35.9194 90.6753 35.635C90.391 35.3862 89.8223 35.1019 89.0403 34.782C88.0805 34.391 87.4052 33.9289 87.0142 33.4313C86.6232 32.9336 86.4099 32.2938 86.4099 31.5118C86.4099 30.5166 86.8009 29.699 87.5829 29.0592C88.3649 28.4194 89.3957 28.0995 90.6398 28.0995C91.0308 28.0995 91.4573 28.135 91.9194 28.2417C92.3815 28.3483 92.808 28.455 93.1279 28.5616V31.0853C92.7725 30.872 92.3815 30.6587 91.9194 30.481C91.4573 30.3033 90.9952 30.2322 90.5687 30.2322C90.0711 30.2322 89.6801 30.3388 89.4313 30.5166C89.1824 30.7654 89.0403 31.0142 89.0403 31.3696ZM94.8696 34.1422C94.8696 32.3294 95.4028 30.872 96.3981 29.8057C97.4289 28.7393 98.8507 28.2061 100.663 28.2061C102.37 28.2061 103.72 28.7038 104.68 29.7346C105.64 30.7654 106.137 32.1516 106.137 33.8933C106.137 35.6706 105.604 37.0924 104.609 38.1587C103.578 39.2251 102.192 39.7583 100.415 39.7583C98.7085 39.7583 97.3578 39.2606 96.3625 38.2654C95.4028 37.2346 94.8696 35.8483 94.8696 34.1422ZM97.5711 34.0355C97.5711 35.173 97.8199 36.0616 98.3531 36.6659C98.8862 37.2701 99.6327 37.59 100.592 37.59C101.517 37.59 102.263 37.3057 102.761 36.6659C103.258 36.0616 103.507 35.173 103.507 33.9644C103.507 32.7914 103.258 31.9028 102.761 31.263C102.263 30.6587 101.517 30.3388 100.628 30.3388C99.6682 30.3388 98.9573 30.6587 98.4241 31.2986C97.8554 31.9739 97.5711 32.8625 97.5711 34.0355ZM114.775 30.5877H110.9V39.4739H108.27V30.5877H106.422V28.455H108.27V26.9265C108.27 25.7891 108.661 24.8294 109.408 24.0829C110.154 23.3365 111.114 22.981 112.287 22.981C112.457 22.981 112.617 22.9911 112.767 23.0005C112.899 23.0088 113.023 23.0166 113.14 23.0166C113.389 23.0166 113.602 23.0877 113.78 23.1587V25.3981C113.709 25.3625 113.531 25.2914 113.318 25.2204C113.104 25.1493 112.855 25.1137 112.571 25.1137C112.038 25.1137 111.611 25.2914 111.327 25.6114C111.043 25.9313 110.9 26.4644 110.9 27.1042V28.4194H114.775V25.9313L117.37 25.1493V28.4194H120V30.5521H117.37V35.7061C117.37 36.3815 117.512 36.8436 117.725 37.1279C117.974 37.4123 118.365 37.5545 118.898 37.5545C119.04 37.5545 119.218 37.5189 119.431 37.4478C119.645 37.3768 119.822 37.3057 119.964 37.199V39.3317C119.787 39.4384 119.538 39.5095 119.147 39.5805C118.756 39.6516 118.4 39.6872 118.009 39.6872C116.908 39.6872 116.09 39.4028 115.557 38.8341C115.024 38.2654 114.739 37.3768 114.739 36.2038L114.775 30.5877ZM13.4365 19H25.5929V31.1564H13.4365V19ZM12.1564 32.436H0V44.5924H12.1564V32.436ZM13.4365 32.436H25.5929V44.5924H13.4365V32.436Z" fill="#161E33"/>
</svg>
