<svg width="144" height="64" viewBox="0 0 144 64" fill="none" xmlns="http://www.w3.org/2000/svg">
<path d="M9.13372 21.1509H4.56562V25.7056H9.13372V21.1509Z" fill="#161E33"/>
<path d="M27.4038 21.1509H22.8357V25.7056H27.4038V21.1509Z" fill="#161E33"/>
<path d="M13.7003 25.7059L4.56562 25.7056V30.2606H13.7003V25.7059Z" fill="#161E33"/>
<path d="M27.4047 25.7059H18.27V30.2606H27.4047V25.7059Z" fill="#161E33"/>
<path d="M27.4017 30.2585H4.56562V34.8132H27.4017V30.2585Z" fill="#161E33"/>
<path d="M9.13372 34.8135L4.56562 34.8132V39.3683H9.13372V34.8135Z" fill="#161E33"/>
<path d="M18.2701 34.8135H13.702V39.3683H18.2701V34.8135Z" fill="#161E33"/>
<path d="M27.4038 34.8135H22.8357V39.3683H27.4038V34.8135Z" fill="#161E33"/>
<path d="M13.7013 39.3666H0V43.9214H13.7013V39.3666Z" fill="#161E33"/>
<path d="M31.9728 39.3666H18.27V43.9214H31.9728V39.3666Z" fill="#161E33"/>
<path d="M141.634 41.5903V23.7084H144V41.5903H141.634Z" fill="#161E33"/>
<path d="M122.607 41.5903L129.474 23.7084H132.023L139.342 41.5903H136.646L134.56 36.1745H127.083L125.119 41.5903H122.607ZM127.766 34.2472H133.829L131.962 29.2949C131.393 27.7906 130.97 26.5545 130.694 25.5868C130.466 26.7334 130.145 27.8719 129.73 29.0022L127.766 34.2472Z" fill="#161E33"/>
<path d="M113.116 41.5903V23.7084H115.311V41.5903H113.116Z" fill="#161E33"/>
<path d="M107.712 39.9922C106.899 40.6834 106.114 41.1713 105.358 41.456C104.61 41.7405 103.804 41.8829 102.942 41.8829C101.519 41.8829 100.426 41.5372 99.6613 40.846C98.8969 40.1467 98.5146 39.2563 98.5146 38.1746C98.5146 37.5404 98.657 36.9631 98.9416 36.4426C99.2344 35.9141 99.6125 35.4912 100.076 35.1741C100.548 34.8569 101.076 34.617 101.662 34.4544C102.093 34.3406 102.743 34.2308 103.613 34.1251C105.386 33.9136 106.691 33.6616 107.529 33.3688C107.537 33.0679 107.541 32.8768 107.541 32.7955C107.541 31.901 107.334 31.2708 106.919 30.9049C106.358 30.4088 105.524 30.1608 104.418 30.1608C103.386 30.1608 102.621 30.3438 102.125 30.7097C101.637 31.0675 101.275 31.7058 101.04 32.6247L98.8927 32.332C99.0879 31.4131 99.4092 30.6731 99.8565 30.112C100.304 29.5428 100.95 29.1077 101.796 28.8068C102.641 28.4978 103.621 28.3433 104.735 28.3433C105.841 28.3433 106.74 28.4734 107.431 28.7337C108.122 28.9939 108.631 29.3232 108.956 29.7217C109.281 30.112 109.509 30.608 109.639 31.2098C109.712 31.5839 109.749 32.2588 109.749 33.2346V36.1621C109.749 38.2032 109.793 39.4962 109.883 40.041C109.981 40.5777 110.168 41.094 110.444 41.5902H108.151C107.923 41.1347 107.777 40.602 107.712 39.9922ZM107.529 35.0887C106.732 35.414 105.536 35.6905 103.943 35.9181C103.04 36.0482 102.402 36.1946 102.028 36.3573C101.654 36.5199 101.365 36.7598 101.162 37.0769C100.958 37.3859 100.857 37.7315 100.857 38.1138C100.857 38.6992 101.076 39.1872 101.515 39.5774C101.963 39.9678 102.613 40.163 103.467 40.163C104.313 40.163 105.065 39.9799 105.724 39.6141C106.382 39.24 106.866 38.7317 107.175 38.0894C107.411 37.5933 107.529 36.8614 107.529 35.8937V35.0887Z" fill="#161E33"/>
<path d="M90.9169 41.5902V28.6361H92.893V30.5999C93.3971 29.681 93.8606 29.0752 94.2835 28.7824C94.7144 28.4897 95.1862 28.3433 95.6985 28.3433C96.4385 28.3433 97.1906 28.5791 97.9551 29.0508L97.1988 31.0878C96.6621 30.7707 96.1255 30.6121 95.5888 30.6121C95.1089 30.6121 94.678 30.7585 94.2958 31.0512C93.9136 31.3358 93.6411 31.7343 93.4785 32.2466C93.2345 33.0273 93.1126 33.8811 93.1126 34.8081V41.5902H90.9169Z" fill="#161E33"/>
<path d="M88.781 39.6267L89.0981 41.5661C88.48 41.6963 87.927 41.7613 87.4391 41.7613C86.6423 41.7613 86.0242 41.6352 85.5851 41.3832C85.1461 41.131 84.837 40.8018 84.6581 40.3951C84.4792 39.9804 84.3898 39.1144 84.3898 37.797V30.3442H82.7795V28.6365H84.3898V25.4285L86.5732 24.1111V28.6365H88.781V30.3442H86.5732V37.919C86.5732 38.5451 86.6097 38.9476 86.6828 39.1265C86.7642 39.3055 86.8903 39.4478 87.061 39.5535C87.2399 39.6591 87.4921 39.7121 87.8172 39.7121C88.0612 39.7121 88.3825 39.6835 88.781 39.6267Z" fill="#161E33"/>
<path d="M70.6187 37.7234L72.7899 37.3819C72.9119 38.252 73.2494 38.9188 73.8024 39.3824C74.3635 39.8458 75.1441 40.0776 76.1444 40.0776C77.1527 40.0776 77.9007 39.8743 78.3886 39.4676C78.8766 39.053 79.1205 38.5691 79.1205 38.0161C79.1205 37.5201 78.905 37.1298 78.4741 36.8452C78.1733 36.65 77.4251 36.402 76.2296 36.1011C74.6195 35.6945 73.5014 35.3448 72.8753 35.0521C72.2572 34.7512 71.7856 34.3406 71.4604 33.8201C71.1432 33.2915 70.9846 32.7101 70.9846 32.0758C70.9846 31.4985 71.1147 30.9658 71.375 30.4779C71.6434 29.9819 72.0052 29.5712 72.4605 29.246C72.8022 28.9939 73.2657 28.7824 73.8512 28.6117C74.4447 28.4328 75.0791 28.3433 75.754 28.3433C76.7705 28.3433 77.661 28.4897 78.4253 28.7824C79.1979 29.0752 79.767 29.4736 80.1329 29.9778C80.4989 30.4739 80.751 31.1407 80.8892 31.9783L78.7424 32.271C78.6449 31.6042 78.3602 31.0838 77.8886 30.7097C77.4251 30.3356 76.7663 30.1486 75.9125 30.1486C74.9042 30.1486 74.1846 30.3153 73.7535 30.6487C73.3225 30.9821 73.107 31.3724 73.107 31.8197C73.107 32.1043 73.1964 32.3605 73.3753 32.5882C73.5542 32.824 73.8348 33.0191 74.217 33.1736C74.4366 33.255 75.0831 33.442 76.1565 33.7347C77.7097 34.1495 78.7912 34.491 79.4012 34.7593C80.0191 35.0196 80.503 35.4018 80.8527 35.9059C81.2022 36.4101 81.3771 37.0363 81.3771 37.7844C81.3771 38.5163 81.1617 39.2075 80.7306 39.858C80.3078 40.5005 79.6939 41.0005 78.8889 41.3583C78.0838 41.708 77.173 41.8829 76.1565 41.8829C74.4733 41.8829 73.1884 41.5332 72.3019 40.8339C71.4238 40.1344 70.8627 39.0977 70.6187 37.7234Z" fill="#161E33"/>
<path d="M65.948 26.2333V23.7084H68.1437V26.2333H65.948ZM65.948 41.5903V28.6363H68.1437V41.5903H65.948Z" fill="#161E33"/>
<path d="M45.3328 41.5903V23.7084H48.8946L53.1272 36.3696C53.5175 37.5488 53.8021 38.4311 53.981 39.0165C54.1843 38.366 54.5014 37.4105 54.9325 36.1501L59.2139 23.7084H62.3974V41.5903H60.1165V26.6236L54.9202 41.5903H52.7856L47.6137 26.3675V41.5903H45.3328Z" fill="#161E33"/>
</svg>
