<svg width="120" height="64" viewBox="0 0 120 64" fill="none" xmlns="http://www.w3.org/2000/svg">
<path d="M56.7136 22.503C56.7145 22.2374 57.0037 22.0732 57.2323 22.2086L59.9393 23.811C60.1733 23.9495 60.1613 24.2921 59.9182 24.4139L57.2006 25.7761C56.9717 25.8909 56.7021 25.7238 56.703 25.4677L56.7136 22.503Z" fill="#161E33"/>
<path d="M23.7116 17.7791C26.7482 17.7791 29.2099 20.2407 29.2099 23.2774V41.4906C29.2099 44.5273 26.7482 46.989 23.7116 46.989H16.9447C16.9446 46.9845 16.9282 46.1694 16.7447 45.8084C16.6065 45.5369 16.2763 45.4316 16.0101 45.3439C15.9894 44.4897 15.9775 43.6239 16.0202 42.7696C21.1394 42.0786 25.0862 37.6926 25.0862 32.384C25.0862 26.6815 20.2954 21.8953 14.6107 21.9028C8.89628 21.9028 4.12376 26.6673 4.12375 32.384C4.12375 37.6883 8.06414 42.0715 13.1774 42.7679C13.2529 43.6114 13.2636 44.5266 13.1834 45.3634C13.0383 45.4101 12.8907 45.4581 12.7585 45.5359C12.2263 45.8494 12.408 46.4783 12.2689 46.989H5.49834C2.46169 46.989 5.81204e-08 44.5273 0 41.4906V23.2774C0 20.2407 2.46169 17.7791 5.49834 17.7791H23.7116ZM14.7949 24.3325C16.5207 24.4726 18.1978 24.9707 19.5657 26.0752C21.3919 27.55 22.568 29.8622 22.6729 32.2135C22.6814 32.4026 22.5279 32.5565 22.3387 32.5572C19.9066 32.5652 17.3009 32.5566 14.7768 32.5558C14.5871 32.5558 14.4333 32.4022 14.4331 32.2125C14.4316 29.7082 14.4333 27.1745 14.4335 24.6704C14.4336 24.4736 14.5987 24.3166 14.7949 24.3325Z" fill="#161E33"/>
<path d="M64.3591 27.1511L66.4239 31.083L68.54 27.1511H71.7397L68.4814 32.7744L71.8275 38.3977H68.6425L66.4239 34.5097L64.2419 38.3977H61.0202L64.3591 32.7744L61.1374 27.1511H64.3591Z" fill="#161E33"/>
<path d="M56.1347 38.3977V27.1511H59.2539V38.3977H56.1347Z" fill="#161E33"/>
<path d="M37.3281 38.3977V27.1511H40.3009V29.1354H40.4327C40.667 28.4764 41.0575 27.9566 41.6042 27.5758C42.1509 27.1951 42.805 27.0047 43.5665 27.0047C44.3377 27.0047 44.9943 27.1975 45.5361 27.5831C46.0779 27.9639 46.4391 28.4813 46.6198 29.1354H46.7369C46.9663 28.4911 47.3812 27.9761 47.9816 27.5905C48.5869 27.2 49.302 27.0047 50.127 27.0047C51.1765 27.0047 52.0283 27.3391 52.6824 28.0078C53.3414 28.6717 53.6708 29.6138 53.6708 30.8341V38.3977H50.559V31.4492C50.559 30.8244 50.393 30.3557 50.0611 30.0433C49.7292 29.7309 49.3143 29.5747 48.8164 29.5747C48.2501 29.5747 47.8084 29.7553 47.4911 30.1166C47.1738 30.4729 47.0151 30.9439 47.0151 31.5297V38.3977H43.9911V31.3833C43.9911 30.8317 43.8325 30.3924 43.5152 30.0653C43.2028 29.7383 42.7903 29.5747 42.2778 29.5747C41.9312 29.5747 41.6188 29.6626 41.3406 29.8383C41.0672 30.0092 40.85 30.2508 40.6889 30.5632C40.5278 30.8707 40.4473 31.2319 40.4473 31.6469V38.3977H37.3281Z" fill="#161E33"/>
<path d="M74.0901 42.6153V27.1512H75.7595V28.9378H75.9645C76.0914 28.7425 76.2672 28.4936 76.4917 28.1909C76.7211 27.8834 77.0482 27.61 77.4728 27.3709C77.9024 27.1268 78.4833 27.0048 79.2155 27.0048C80.1625 27.0048 80.9972 27.2415 81.7196 27.715C82.442 28.1885 83.0058 28.8597 83.411 29.7285C83.8161 30.5974 84.0187 31.6225 84.0187 32.8038C84.0187 33.9948 83.8161 35.0272 83.411 35.901C83.0058 36.7699 82.4445 37.4435 81.7269 37.9219C81.0094 38.3954 80.182 38.6321 79.2448 38.6321C78.5223 38.6321 77.9439 38.5125 77.5095 38.2733C77.075 38.0293 76.7406 37.7535 76.5063 37.4459C76.272 37.1335 76.0914 36.8748 75.9645 36.6698H75.8181V42.6153H74.0901ZM75.7888 32.7745C75.7888 33.6239 75.9133 34.3731 76.1622 35.0224C76.4111 35.6667 76.7748 36.1719 77.2532 36.538C77.7316 36.8992 78.3173 37.0798 79.0105 37.0798C79.7329 37.0798 80.3357 36.8895 80.819 36.5087C81.3071 36.1231 81.6732 35.6057 81.9173 34.9565C82.1662 34.3024 82.2907 33.575 82.2907 32.7745C82.2907 31.9837 82.1687 31.271 81.9246 30.6365C81.6854 29.997 81.3218 29.4918 80.8336 29.1208C80.3504 28.745 79.7427 28.557 79.0105 28.557C78.3075 28.557 77.7169 28.7352 77.2385 29.0915C76.7602 29.443 76.3989 29.936 76.1549 30.5706C75.9108 31.2003 75.7888 31.9349 75.7888 32.7745Z" fill="#161E33"/>
<path d="M112.384 32.1594V23.4023H110.656V38.3978H112.384V34.1889L113.594 33.0677L117.802 38.3978H119.999L114.896 31.956L119.648 27.1512H117.51L112.589 32.1594H112.384Z" fill="#161E33"/>
<path d="M103.371 38.6321C102.287 38.6321 101.352 38.3929 100.566 37.9146C99.7854 37.4313 99.1826 36.7577 98.7579 35.8937C98.3381 35.0248 98.1282 34.0144 98.1282 32.8624C98.1282 31.7104 98.3381 30.6951 98.7579 29.8164C99.1826 28.9329 99.7732 28.2446 100.53 27.7516C101.291 27.2537 102.18 27.0048 103.195 27.0048C103.781 27.0048 104.359 27.1024 104.93 27.2976C105.501 27.4929 106.021 27.8102 106.49 28.2495C106.959 28.6839 107.332 29.2599 107.61 29.9775C107.888 30.6951 108.028 31.5786 108.028 32.6281V33.3603H99.8562C99.8562 34.2096 100.003 34.6953 100.296 35.2859C100.593 35.8717 101.006 36.3184 101.533 36.6259C102.06 36.9285 102.673 37.0798 103.371 37.0798C103.825 37.0798 104.235 37.0164 104.601 36.8895C104.972 36.7577 105.292 36.5624 105.56 36.3037C105.829 36.0401 106.036 35.7131 106.182 35.3226L107.852 35.7912C107.676 36.3574 107.381 36.8553 106.966 37.2849C106.551 37.7095 106.038 38.0415 105.428 38.2807C104.818 38.515 104.132 38.6321 103.371 38.6321ZM100.259 30.3875C99.9904 30.9294 99.8562 31.2466 99.8562 31.8666H106.27C106.27 31.232 106.143 30.6658 105.89 30.1679C105.641 29.67 105.284 29.277 104.821 28.989C104.362 28.701 103.82 28.557 103.195 28.557C102.507 28.557 101.911 28.7279 101.408 29.0696C100.911 29.4064 100.527 29.8457 100.259 30.3875Z" fill="#161E33"/>
<path d="M88.5657 37.9146C89.3515 38.3929 90.2863 38.6321 91.37 38.6321C92.1315 38.6321 92.8173 38.515 93.4275 38.2807C94.0376 38.0415 94.5502 37.7095 94.9651 37.2849C95.38 36.8553 95.6753 36.3574 95.8511 35.7912L94.1816 35.3226C94.0352 35.7131 93.8277 36.0401 93.5593 36.3037C93.2908 36.5624 92.9711 36.7577 92.6001 36.8895C92.234 37.0164 91.8239 37.0798 91.37 37.0798C90.672 37.0798 90.0593 36.9285 89.5322 36.6259C89.005 36.3184 88.5925 35.8717 88.2947 35.2859C88.0292 34.7504 87.884 34.1085 87.8592 33.3603H96.0268V32.6281C96.0268 31.5786 95.8877 30.6951 95.6094 29.9775C95.3312 29.2599 94.9578 28.6839 94.4892 28.2495C94.0206 27.8102 93.5007 27.4929 92.9296 27.2976C92.3585 27.1024 91.78 27.0048 91.1943 27.0048C90.1789 27.0048 89.2905 27.2537 88.529 27.7516C87.7724 28.2446 87.1818 28.9329 86.7571 29.8164C86.3373 30.6951 86.1274 31.7104 86.1274 32.8624C86.1274 34.0144 86.3373 35.0248 86.7571 35.8937C87.1818 36.7577 87.7846 37.4313 88.5657 37.9146ZM87.8637 31.8666C87.8966 31.3449 88.0281 30.8519 88.2581 30.3875C88.5266 29.8457 88.9098 29.4064 89.4077 29.0696C89.9105 28.7279 90.506 28.557 91.1943 28.557C91.8191 28.557 92.3609 28.701 92.8197 28.989C93.2835 29.277 93.6398 29.67 93.8888 30.1679C94.1426 30.6658 94.2695 31.232 94.2695 31.8666H87.8637Z" fill="#161E33"/>
</svg>
