<svg width="98" height="64" viewBox="0 0 98 64" fill="none" xmlns="http://www.w3.org/2000/svg">
<path fill-rule="evenodd" clip-rule="evenodd" d="M97.9595 18.1429H0.0400391V46.1429H97.9595V18.1429ZM93.0492 38.3242C93.2106 38.3242 93.3723 38.2948 93.563 38.2409L93.5826 40.0861C92.9316 40.4438 92.1434 40.6591 91.3846 40.6591C89.754 40.6591 88.858 39.7092 88.6966 38.2161C87.9914 39.4645 86.7429 40.6591 84.7602 40.6591C82.9927 40.6591 80.9854 39.7043 80.9854 37.1535C80.9854 34.1375 83.8936 33.4326 86.689 33.4326C87.3698 33.4326 88.075 33.4571 88.7015 33.5401V33.1341C88.7015 31.8856 88.6721 30.3922 86.689 30.3922C85.9551 30.3922 85.387 30.4461 84.8141 30.7446L84.4175 32.1254L81.6221 31.8268L82.1016 29.0065C84.2513 28.1402 85.3328 27.8953 87.3453 27.8953C89.9794 27.8953 92.2071 29.2564 92.2071 32.0519V37.3743C92.2071 38.0792 92.4763 38.3242 93.0492 38.3242ZM84.6034 36.7475C84.6034 37.536 84.9852 38.1625 86.0429 38.1625C87.2914 38.1625 88.6231 37.2665 88.7064 35.225C88.1335 35.1466 87.507 35.0633 86.9389 35.0633C85.6905 35.0633 84.6034 35.4157 84.6034 36.7475ZM76.0403 40.3903L81.3379 21.7023H77.8862L72.5889 40.3903H76.0403ZM68.9265 40.3903L74.2241 21.7023H70.7773L65.4797 40.3903H68.9265ZM63.1837 28.1406H59.5164V32.537H63.1837V28.1406ZM63.1837 35.9887H59.5164V40.3903H63.1837V35.9887ZM56.9509 36.0965L54.18 35.827L53.6119 37.7268H49.6461L56.442 29.9813L56.1676 28.1357H45.4111L44.9753 32.4292L47.502 32.7036L48.0452 30.8038H51.8738L45.137 38.5444L45.4895 40.3903H56.1921L56.9509 36.0965ZM30.0527 34.4417C30.0527 30.8577 32.2262 27.8959 36.6278 27.8959C41.0245 27.8959 43.1739 30.8528 43.1739 34.2754C43.1739 38.187 40.3487 40.6594 36.4367 40.6594C32.662 40.6594 30.0527 38.3536 30.0527 34.4417ZM33.6658 34.2212C33.6658 36.3411 34.6451 37.9714 36.5445 37.9714C38.3659 37.9714 39.5605 36.5028 39.5605 34.1676C39.5605 31.6949 38.2287 30.5836 36.5743 30.5836C34.777 30.5836 33.6658 31.9105 33.6658 34.2212ZM28.5299 37.7268H26.9045V32.1257C26.9045 29.2225 24.892 27.8907 22.694 27.8907C20.7648 27.8907 19.3795 28.8945 18.6987 30.5248C18.0967 28.7328 16.4713 27.8907 14.7038 27.8907C12.9951 27.8907 11.7173 28.6793 10.9826 29.9813V28.1354H5.85161V30.7989H7.48226V37.7268H5.85161V40.3903H13.3182V37.7268H10.9826V33.4673C10.9826 31.7537 11.6634 30.5588 13.3476 30.5588C14.7329 30.5588 15.4381 31.3718 15.4381 33.4918V40.3903H20.5691V37.7268H18.9388V33.4673C18.9388 31.7537 19.6192 30.5588 21.3034 30.5588C22.6891 30.5588 23.394 31.3718 23.394 33.4918V40.3903H28.5299V37.7268Z" fill="#161E33"/>
</svg>
