<svg width="116" height="64" viewBox="0 0 116 64" fill="none" xmlns="http://www.w3.org/2000/svg">
<path fill-rule="evenodd" clip-rule="evenodd" d="M53.4485 28.5761C50.5185 28.5761 48.0565 26.5721 47.3585 23.8601H40.1513C38.6144 23.8601 37.3029 24.9712 37.0503 26.4872L36.7917 28.038C36.5465 29.5102 35.8016 30.7913 34.7483 31.7201C35.8016 32.6489 36.5465 33.9301 36.7917 35.4023L37.0503 36.9531C37.3029 38.4691 38.6144 39.5802 40.1513 39.5802H41.0704C41.7684 36.8682 44.2305 34.8642 47.1604 34.8642C50.6333 34.8642 53.4485 37.6794 53.4485 41.1522C53.4485 44.6251 50.6333 47.4403 47.1604 47.4403C44.2305 47.4403 41.7684 45.4362 41.0704 42.7242H40.1513C37.0775 42.7242 34.4544 40.5019 33.949 37.47L33.6904 35.9193C33.4378 34.4033 32.1262 33.2922 30.5893 33.2922H28.0982C27.4002 36.0041 24.9382 38.0082 22.0082 38.0082C19.0782 38.0082 16.6162 36.0041 15.9182 33.2922H12.378C11.6801 36.0041 9.21803 38.0082 6.28806 38.0082C2.81527 38.0082 0 35.193 0 31.7201C0 28.2473 2.81527 25.4321 6.28806 25.4321C9.21803 25.4321 11.6801 27.4361 12.378 30.1481H15.9182C16.6162 27.4361 19.0782 25.4321 22.0082 25.4321C24.9382 25.4321 27.4002 27.4361 28.0982 30.1481H30.5893C32.1262 30.1481 33.4378 29.037 33.6904 27.521L33.949 25.9702C34.4544 22.9383 37.0775 20.716 40.1513 20.716H47.3585C48.0565 18.0041 50.5185 16 53.4485 16C56.9213 16 59.7365 18.8152 59.7365 22.2881C59.7365 25.7609 56.9213 28.5761 53.4485 28.5761ZM53.4485 25.4321C55.1848 25.4321 56.5925 24.0243 56.5925 22.2881C56.5925 20.5518 55.1848 19.144 53.4485 19.144C51.7122 19.144 50.3045 20.5518 50.3045 22.2881C50.3045 24.0243 51.7122 25.4321 53.4485 25.4321ZM6.28806 34.8642C8.02435 34.8642 9.43209 33.4564 9.43209 31.7201C9.43209 29.9839 8.02435 28.5761 6.28806 28.5761C4.55166 28.5761 3.14403 29.9839 3.14403 31.7201C3.14403 33.4564 4.55166 34.8642 6.28806 34.8642ZM25.1522 31.7201C25.1522 33.4564 23.7445 34.8642 22.0082 34.8642C20.2719 34.8642 18.8642 33.4564 18.8642 31.7201C18.8642 29.9839 20.2719 28.5761 22.0082 28.5761C23.7445 28.5761 25.1522 29.9839 25.1522 31.7201ZM50.3045 41.1522C50.3045 42.8885 48.8967 44.2963 47.1604 44.2963C45.4241 44.2963 44.0164 42.8885 44.0164 41.1522C44.0164 39.4159 45.4241 38.0082 47.1604 38.0082C48.8967 38.0082 50.3045 39.4159 50.3045 41.1522Z" fill="#161E33"/>
<path fill-rule="evenodd" clip-rule="evenodd" d="M97.4687 29.5946V29.445C98.5657 28.8956 99.6627 27.9466 99.6627 26.0738C99.6627 23.3767 97.4438 21.7536 94.3773 21.7536C91.2359 21.7536 88.9921 23.4766 88.9921 26.1236C88.9921 27.9217 90.0391 28.8956 91.1861 29.445V29.5946C89.9146 30.0442 88.3937 31.3927 88.3937 33.6402C88.3937 36.3618 90.6375 38.2598 94.3524 38.2598C98.0671 38.2598 100.236 36.3618 100.236 33.6402C100.236 31.3927 98.7402 30.0691 97.4687 29.5946ZM94.3524 24.0511C95.599 24.0511 96.5213 24.85 96.5213 26.1985C96.5213 27.547 95.5739 28.3461 94.3524 28.3461C93.1307 28.3461 92.1084 27.547 92.1084 26.1985C92.1084 24.8251 93.0809 24.0511 94.3524 24.0511ZM94.3524 35.8625C92.9062 35.8625 91.7345 34.9386 91.7345 33.3653C91.7345 31.9421 92.7068 30.8682 94.3273 30.8682C95.9231 30.8682 96.8954 31.917 96.8954 33.4154C96.8954 34.9386 95.7735 35.8625 94.3524 35.8625Z" fill="#161E33"/>
<path d="M104.083 38.0101H107.274V31.2429C107.274 29.0203 108.62 28.0465 110.141 28.0465C111.637 28.0465 112.809 29.0455 112.809 31.093V38.0101H116V30.4438C116 27.1724 114.105 25.2747 111.139 25.2747C109.269 25.2747 108.221 26.0238 107.473 26.9977H107.274L107 25.5244H104.083V38.0101Z" fill="#161E33"/>
<path d="M75.8334 38.0101H72.6422V25.5244H75.5591L75.8334 26.9977H76.0328C76.7808 26.0238 77.828 25.2747 79.6979 25.2747C82.6646 25.2747 84.5594 27.1724 84.5594 30.4438V38.0101H81.3682V31.093C81.3682 29.0455 80.1965 28.0465 78.7005 28.0465C77.1798 28.0465 75.8334 29.0203 75.8334 31.2429V38.0101Z" fill="#161E33"/>
</svg>
