<svg width="92" height="64" viewBox="0 0 92 64" fill="none" xmlns="http://www.w3.org/2000/svg">
<path d="M17.5164 23.8887C12.5121 23.8887 9.16647 26.7949 9.16647 32.4513V36.4774C9.66265 36.2364 10.2014 36.1088 10.7826 36.1088C11.3638 36.1088 11.9167 36.2506 12.4129 36.4916V32.4513C12.4129 28.7938 14.4259 26.9083 17.5164 26.9083C20.6069 26.9083 22.62 28.7938 22.62 32.4513V41.2549H25.8664V32.4513C25.8664 26.7665 22.5065 23.8887 17.5164 23.8887Z" fill="#161E33"/>
<path d="M27.6388 32.7915C27.6388 27.6597 31.4097 23.8887 36.7401 23.8887C42.0705 23.8887 45.7847 27.6597 45.7847 32.7915V33.9965H31.0553C31.5373 37.0161 33.7914 38.689 36.7401 38.689C38.9375 38.689 40.4685 38.0085 41.4609 36.5341H45.0617C43.7575 39.6813 40.6812 41.7086 36.7401 41.7086C31.3956 41.6944 27.6388 37.9376 27.6388 32.7915ZM42.354 31.0904C41.7019 28.3827 39.4762 26.9083 36.7401 26.9083C34.004 26.9083 31.8067 28.411 31.1546 31.0904H42.354Z" fill="#161E33"/>
<path d="M47.5285 32.7915C47.5285 27.6597 51.2994 23.8887 56.6298 23.8887C61.9601 23.8887 65.7311 27.6597 65.7311 32.7915C65.7311 37.9234 61.9601 41.6944 56.6298 41.6944C51.2994 41.6944 47.5285 37.9376 47.5285 32.7915ZM62.4421 32.7915C62.4421 29.3608 60.1172 26.9083 56.6156 26.9083C53.114 26.9083 50.7891 29.375 50.7891 32.7915C50.7891 36.2081 53.114 38.6748 56.6156 38.6748C60.1172 38.6748 62.4421 36.2223 62.4421 32.7915Z" fill="#161E33"/>
<path d="M84.3305 44.6148H84.7132C86.7972 44.6148 87.5911 43.6933 87.5911 41.2975V24.4558H90.8375V41.0848C90.8375 45.2669 89.193 47.4217 85.011 47.4217H84.3305V44.6148Z" fill="#161E33"/>
<path d="M82.7 42.8852H79.4536V38.8733H71.2029C69.5584 38.8733 68.1266 38.0652 67.4744 36.7752C66.8649 35.556 67.035 34.1242 67.9139 32.9192L75.3282 23.1941C76.3914 21.7623 78.1919 21.181 79.893 21.7481C81.5942 22.3151 82.7 23.832 82.7 25.6183V35.9813H85.1383V38.8733H82.7V42.8852ZM70.65 34.6912C70.5507 34.8188 70.494 34.9889 70.494 35.1732C70.494 35.6269 70.8626 35.9954 71.3163 35.9954H79.4678V25.5474C79.4678 25.0087 79.0708 24.8102 78.9007 24.7535C78.8298 24.7393 78.7306 24.711 78.603 24.711C78.4045 24.711 78.1635 24.7818 77.9509 25.0512L70.65 34.6912Z" fill="#161E33"/>
<path d="M1.46884 32.9476C1.04355 33.1602 0.646605 33.5146 0.363076 33.9824C0.0795459 34.4503 -0.0338659 34.9464 0.0086636 35.4426C0.0511931 36.3357 0.54737 37.158 1.35543 37.6116C2.10678 38.0369 2.95737 37.9377 3.76543 37.7534C4.75779 37.4982 5.60838 37.399 6.50149 37.9377C6.50149 37.9377 6.50149 37.9377 6.54402 37.9377C8.07508 38.8308 8.07508 41.0707 6.54402 41.9638C6.54402 41.9638 6.54402 41.9638 6.50149 41.9638C5.60838 42.5025 4.75779 42.3891 3.76543 42.1481C2.98573 41.9354 2.13514 41.822 1.35543 42.2899C0.533193 42.7577 0.079546 43.6083 0.0086636 44.4589C-0.0338659 44.955 0.0795459 45.4512 0.363076 45.919C0.646605 46.3869 1.00102 46.7413 1.46884 46.9539C2.24855 47.3509 3.21255 47.3509 4.02061 46.883C4.77196 46.4577 5.12638 45.6355 5.33902 44.8558C5.62255 43.8634 5.94861 43.0696 6.87008 42.5734C7.7632 42.0347 8.61379 42.1481 9.60614 42.3891C10.3859 42.6017 11.2364 42.7152 12.0161 42.2473C12.8384 41.7795 13.292 40.9289 13.3629 40.0783C13.3629 40.0074 13.3629 39.9649 13.3629 39.894C13.3629 39.8232 13.3629 39.7806 13.3629 39.7097C13.3204 38.8166 12.8242 37.9944 12.0161 37.5407C11.2648 37.1154 10.4142 37.2147 9.60614 37.399C8.61379 37.6541 7.7632 37.7534 6.87008 37.2147C5.97696 36.676 5.62255 35.9246 5.33902 34.9323C5.12638 34.1526 4.77196 33.3587 4.02061 32.905C3.19837 32.5648 2.24855 32.5648 1.46884 32.9476Z" fill="#161E33"/>
<path d="M89.2214 17.5519C87.6903 17.5519 86.4428 18.7994 86.4428 20.3305C86.4428 21.8615 87.6903 23.1091 89.2214 23.1091C90.7525 23.1091 92 21.8615 92 20.3305C92 18.7994 90.7525 17.5519 89.2214 17.5519Z" fill="#161E33"/>
</svg>
