<svg width="102" height="64" viewBox="0 0 102 64" fill="none" xmlns="http://www.w3.org/2000/svg">
<path fill-rule="evenodd" clip-rule="evenodd" d="M79.256 21.8884L75.543 19.7459C75.4192 19.6744 75.2669 19.6744 75.1431 19.7459L71.4313 21.8884C71.3075 21.96 71.2314 22.0922 71.2314 22.2353V26.0416C71.2314 26.1933 71.3168 26.3319 71.453 26.3998L73.1151 27.2314C73.1721 27.2596 73.2333 27.2736 73.2946 27.2736C73.3677 27.2736 73.4407 27.2536 73.5051 27.2138C73.6234 27.1409 73.6952 27.012 73.6952 26.8731V23.6583C73.6952 23.5152 73.7713 23.383 73.8951 23.3114L75.1431 22.5911C75.2669 22.5196 75.4192 22.5196 75.5436 22.5911L76.7916 23.3115C76.9154 23.383 76.9916 23.5153 76.9916 23.6584V26.8731C76.9916 27.0119 77.064 27.1409 77.1816 27.2138C77.2999 27.2868 77.4472 27.2934 77.5716 27.2314L79.2344 26.3999C79.3706 26.3319 79.456 26.1933 79.456 26.0416V22.2353C79.456 22.0922 79.3798 21.96 79.256 21.8884Z" fill="#E31B5D"/>
<path fill-rule="evenodd" clip-rule="evenodd" d="M43.597 23.3612H43.2538C42.9264 23.3612 42.623 23.509 42.4214 23.7665L35.0374 33.1885L27.6567 23.7668C27.455 23.509 27.1515 23.3612 26.8243 23.3612H26.4462C26.0396 23.3612 25.6757 23.5881 25.4967 23.9533C25.3177 24.3186 25.3612 24.7451 25.6104 25.0666L33.6285 35.4117V44.367C33.6285 44.8205 33.9975 45.1895 34.4511 45.1895H35.2713C35.7247 45.1895 36.0938 44.8205 36.0938 44.367V35.4902L44.4227 25.0795C44.679 24.7592 44.7279 24.3305 44.5501 23.9607C44.3725 23.591 44.0072 23.3612 43.597 23.3612Z" fill="#E31B5D"/>
<path fill-rule="evenodd" clip-rule="evenodd" d="M10.0731 23.3985C3.37619 23.3985 1 29.3359 1 34.4201V44.2874C1 44.8706 1.47436 45.345 2.0575 45.345H2.34037C2.92351 45.345 3.39788 44.8706 3.39788 44.2874V34.4201C3.39788 30.2512 5.15152 25.7964 10.0731 25.7964C14.9637 25.7964 16.7063 30.2512 16.7063 34.4201V44.2874C16.7063 44.8706 17.1806 45.345 17.7638 45.345H18.0471C18.6303 45.345 19.1046 44.8706 19.1046 44.2874V34.4201C19.1046 31.5936 18.3955 28.9741 17.1079 27.0441C15.5167 24.6592 13.084 23.3985 10.0731 23.3985Z" fill="#E31B5D"/>
<path fill-rule="evenodd" clip-rule="evenodd" d="M94.1271 32.8024C90.8511 32.0611 89.4143 31.5412 89.4143 29.6756C89.4143 27.2961 91.5011 26.2124 93.44 26.2124C95.3429 26.2124 96.763 26.796 97.9089 28.0494C98.1961 28.3638 98.6845 28.4041 99.0201 28.1412L99.5469 27.7292C99.7251 27.5894 99.8384 27.3792 99.8582 27.1528C99.878 26.9254 99.8019 26.6976 99.6496 26.5277C98.0382 24.7355 96.0654 23.9008 93.44 23.9008C90.2909 23.9008 87.1028 25.8844 87.1028 29.6756C87.1028 33.5837 90.7143 34.4005 93.6164 35.0566C97.3251 35.8959 99.0727 36.5779 99.0727 39.1951C99.0727 41.9725 97.2725 43.3807 93.721 43.3807C90.9892 43.3807 89.314 42.4825 88.1199 40.3771C88.0048 40.1747 87.8092 40.0296 87.5826 39.9789C87.3579 39.9293 87.1202 39.9761 86.9313 40.1088L86.3866 40.4927C86.0356 40.7402 85.9341 41.2083 86.1501 41.5815C87.751 44.3476 90.2278 45.6923 93.721 45.6923C98.591 45.6923 101.384 43.324 101.384 39.1951C101.384 34.4445 97.1902 33.4953 94.1271 32.8024Z" fill="#E31B5D"/>
<path fill-rule="evenodd" clip-rule="evenodd" d="M75.7235 28.5413H74.9695C74.5163 28.5413 74.1474 28.9103 74.1474 29.3638V44.5219C74.1474 44.9754 74.5163 45.3444 74.9695 45.3444H75.7235C76.1772 45.3444 76.5462 44.9754 76.5462 44.5219V29.3638C76.5462 28.9103 76.1772 28.5413 75.7235 28.5413Z" fill="#E31B5D"/>
<path fill-rule="evenodd" clip-rule="evenodd" d="M59.7036 23.3985C56.6786 23.3985 54.2344 24.659 52.6358 27.0435C51.342 28.9734 50.6294 31.5932 50.6294 34.4201V44.2874C50.6294 44.8706 51.1039 45.345 51.687 45.345H51.9704C52.5536 45.345 53.028 44.8706 53.028 44.2874V34.4201C53.028 30.2512 54.7816 25.7964 59.7036 25.7964C61.5715 25.7964 63.0866 26.4306 64.2058 27.6812C64.4931 28.0017 64.9833 28.0447 65.322 27.7794L65.9163 27.3147C66.0945 27.1754 66.2084 26.9661 66.2289 26.7406C66.2493 26.5143 66.175 26.2871 66.024 26.1172C64.4466 24.3385 62.2612 23.3985 59.7036 23.3985Z" fill="#E31B5D"/>
</svg>
