<svg width="152" height="64" viewBox="0 0 152 64" fill="none" xmlns="http://www.w3.org/2000/svg">
<g clip-path="url(#clip0_10044_47728)">
<path fill-rule="evenodd" clip-rule="evenodd" d="M29.6328 15.3857C38.9534 15.3857 46.5087 22.9977 46.5088 32.3848C46.5088 41.7748 38.9535 49.3857 29.6328 49.3857C20.3132 49.3856 12.7588 41.7747 12.7588 32.3848C12.7589 22.9968 20.3143 15.3859 29.6328 15.3857ZM29.6328 28.1357C27.3028 28.1359 25.4151 30.0381 25.415 32.3848C25.415 34.7324 27.3028 36.6356 29.6328 36.6357C31.962 36.6357 33.8525 34.7325 33.8525 32.3848C33.8524 30.0381 31.9619 28.1357 29.6328 28.1357Z" fill="#161E33"/>
<path fill-rule="evenodd" clip-rule="evenodd" d="M75.7031 29.1328C78.3266 29.1328 80.3057 31.2726 80.3057 34.21C80.3055 37.0425 78.4108 39.2666 75.5361 39.2666C74.5789 39.2666 73.6618 39.0363 73.2246 38.8682V42.5186C73.2243 42.7492 72.9952 42.9805 72.7666 42.9805H71.0791C70.9586 42.9751 70.8446 42.9246 70.7598 42.8389C70.6751 42.7532 70.6253 42.6389 70.6211 42.5186V29.8037C70.6218 29.6823 70.6704 29.5657 70.7559 29.4795C70.8414 29.3932 70.9576 29.3436 71.0791 29.3418H72.1025C72.2244 29.3433 72.341 29.393 72.4268 29.4795C72.5125 29.566 72.561 29.6829 72.5615 29.8047V30.5771C72.627 30.4921 73.7241 29.1329 75.7031 29.1328ZM75.3496 31.5234C74.0999 31.5234 73.433 32.3206 73.2246 32.8662V36.3291C73.2246 36.3291 74.016 36.875 75.2246 36.875C76.8083 36.8748 77.619 35.5728 77.6191 34.209C77.6191 32.846 76.8484 31.5236 75.3496 31.5234Z" fill="#161E33"/>
<path fill-rule="evenodd" clip-rule="evenodd" d="M61.8086 25.4082C65.617 25.4083 68.7167 28.5382 68.7168 32.3838C68.7168 36.2764 65.6826 39.326 61.8086 39.3262C57.9452 39.3262 54.9219 36.2765 54.9219 32.3848C54.922 28.5371 58.0118 25.4082 61.8086 25.4082ZM61.8086 28.1045C59.4863 28.1045 57.5977 30.0244 57.5977 32.3848C57.5977 34.7276 59.4863 36.6299 61.8086 36.6299C62.9323 36.6272 64.0093 36.1786 64.8027 35.3828C65.5961 34.587 66.0408 33.5085 66.04 32.3848C66.04 30.0626 64.1034 28.1046 61.8086 28.1045Z" fill="#161E33"/>
<path fill-rule="evenodd" clip-rule="evenodd" d="M86.6787 29.1318C89.1779 29.132 91.0928 30.9997 91.0928 33.6221C91.0928 33.7689 91.0743 34.1044 91.0518 34.252C91.0398 34.3676 90.9872 34.4752 90.9033 34.5557C90.8194 34.6362 90.7098 34.6843 90.5938 34.6914H84.4297C84.4519 35.8873 85.4289 36.9365 86.8252 36.9365C87.7834 36.9365 88.4487 36.5795 88.8867 36.2227C89.1152 36.0342 89.3651 36.014 89.5107 36.2227L90.3223 37.3145C90.4893 37.5033 90.5109 37.7351 90.2822 37.9443C89.2885 38.8059 88.0144 39.2751 86.6992 39.2656C83.8255 39.2656 81.8263 36.9585 81.8262 34.1885C81.8262 31.4613 83.8254 29.1318 86.6787 29.1318ZM86.6162 31.293C85.4507 31.293 84.6994 32.0066 84.5752 32.9717H88.4697C88.4276 32.0272 87.6779 31.2932 86.6162 31.293Z" fill="#161E33"/>
<path fill-rule="evenodd" clip-rule="evenodd" d="M115.64 29.1328C118.639 29.1328 119.265 30.7057 119.265 33.3496V38.5742C119.264 38.6957 119.215 38.8122 119.13 38.8984C119.044 38.9847 118.927 39.0346 118.806 39.0361H118.097C118.077 39.0368 118.057 39.0353 118.038 39.0322H117.869C117.619 39.0322 117.41 38.8227 117.41 38.5703V38.0498C117.013 38.4434 116.541 38.7531 116.022 38.9619C115.504 39.1708 114.949 39.2742 114.39 39.2656C112.474 39.2656 111.141 38.0289 111.141 35.9512C111.141 34.2311 112.537 32.9092 114.974 32.9092C115.941 32.9092 116.805 33.1752 116.826 33.1816C116.868 31.944 116.515 31.3566 115.495 31.3564C114.62 31.3564 113.349 31.5447 112.786 31.7129C112.474 31.8175 112.286 31.5873 112.245 31.2939L112.036 30.2021C111.953 29.8453 112.141 29.6777 112.35 29.6152C112.558 29.531 114.078 29.1328 115.64 29.1328ZM115.349 34.5664C114.245 34.5664 113.641 35.0907 113.641 35.9512C113.641 36.7695 114.141 37.3153 115.036 37.3154C115.89 37.3154 116.639 36.6441 116.764 36.2871V34.8604C116.749 34.8537 116.11 34.5665 115.349 34.5664Z" fill="#161E33"/>
<path fill-rule="evenodd" clip-rule="evenodd" d="M142.597 29.1318C145.095 29.132 147.011 30.9996 147.011 33.6221C147.011 33.7689 146.989 34.1044 146.97 34.252C146.958 34.3675 146.905 34.4751 146.821 34.5557C146.737 34.6363 146.627 34.6845 146.511 34.6914H140.347C140.369 35.8873 141.346 36.9365 142.742 36.9365C143.699 36.9365 144.366 36.5795 144.804 36.2227C145.032 36.0342 145.282 36.0141 145.428 36.2227L146.24 37.3145C146.406 37.5032 146.428 37.7352 146.199 37.9443C145.205 38.8059 143.931 39.2751 142.616 39.2656C139.743 39.2656 137.742 36.9585 137.742 34.1885C137.742 31.4613 139.743 29.1318 142.597 29.1318ZM142.533 31.293C141.367 31.293 140.616 32.0066 140.492 32.9717H144.386C144.345 32.0272 143.595 31.2932 142.533 31.293Z" fill="#161E33"/>
<path fill-rule="evenodd" clip-rule="evenodd" d="M123.713 25.3975C123.833 25.4026 123.947 25.4527 124.032 25.5381C124.117 25.6236 124.167 25.7388 124.171 25.8594V29.5518C124.608 29.3629 125.566 29.1329 126.524 29.1328C129.378 29.1328 131.191 31.3548 131.191 34.1875C131.191 36.9566 129.296 39.2645 126.671 39.2646C124.587 39.2646 123.483 37.8424 123.464 37.8174L123.452 37.8545V38.5713C123.451 38.6932 123.402 38.8102 123.316 38.8965C123.23 38.9826 123.114 39.0311 122.992 39.0322H122.796C122.781 39.0358 122.77 39.0361 122.755 39.0361H122.025C121.905 39.0307 121.792 38.98 121.707 38.8945C121.622 38.809 121.573 38.6946 121.568 38.5742V25.8594C121.568 25.6286 121.797 25.3977 122.025 25.3975H123.713ZM126.171 31.5244C124.963 31.5244 124.171 32.0703 124.171 32.0703V35.5312C124.379 36.0769 125.046 36.8749 126.296 36.875C127.795 36.875 128.566 35.5534 128.566 34.1895C128.566 32.8254 127.754 31.5245 126.171 31.5244Z" fill="#161E33"/>
<path d="M135.107 25.4336C135.336 25.4339 135.565 25.665 135.565 25.8955V36.0059C135.565 36.2151 135.772 36.4229 135.979 36.4229H136.053C136.174 36.4244 136.29 36.4734 136.376 36.5596C136.462 36.6458 136.511 36.7622 136.512 36.8838V38.5898C136.51 38.7117 136.461 38.8288 136.375 38.915C136.289 39.0013 136.172 39.0505 136.05 39.0518L134.626 39.0547C133.799 39.0547 132.97 38.2217 132.97 37.3877L132.963 37.0957V25.8955C132.963 25.6647 133.191 25.4338 133.42 25.4336H135.107Z" fill="#161E33"/>
<path d="M98.1562 29.1328C101.217 29.1329 102.009 31.2099 102.009 33.5596V38.5742C102.004 38.6948 101.955 38.8099 101.87 38.8955C101.785 38.9811 101.67 39.031 101.55 39.0361H99.8643C99.6139 39.036 99.4053 38.8255 99.4053 38.5742V33.5596C99.4053 32.3011 98.9048 31.5244 97.7393 31.5244C96.4899 31.5245 95.886 32.3635 95.6572 33.0352V38.5742C95.6572 38.93 95.5112 39.0361 95.0527 39.0361H93.5117C93.3912 39.031 93.2764 38.9811 93.1914 38.8955C93.1064 38.81 93.0571 38.6947 93.0527 38.5742V29.8037C93.0532 29.682 93.1017 29.5649 93.1875 29.4785C93.2733 29.3922 93.39 29.3431 93.5117 29.3418H94.6006C94.7222 29.3433 94.8391 29.3932 94.9248 29.4795C95.0103 29.5657 95.0588 29.6823 95.0596 29.8037V30.5312C95.4175 30.1294 96.3121 29.1328 98.1562 29.1328Z" fill="#161E33"/>
<path d="M111.789 25.3975C111.841 25.3976 111.893 25.4076 111.941 25.4277C111.989 25.4478 112.033 25.4778 112.069 25.5146C112.106 25.5517 112.135 25.5962 112.155 25.6445C112.175 25.6928 112.185 25.7448 112.185 25.7969V27.5166C112.185 27.5687 112.175 27.6207 112.155 27.6689C112.135 27.7172 112.106 27.7608 112.069 27.7979C112.033 27.8348 111.989 27.8647 111.941 27.8848C111.893 27.9049 111.841 27.9149 111.789 27.915H108.256V38.6377C108.253 38.742 108.21 38.841 108.137 38.915C108.063 38.9891 107.964 39.0326 107.859 39.0361H105.923C105.819 39.0324 105.719 38.9891 105.646 38.915C105.572 38.8411 105.53 38.7418 105.527 38.6377V27.915H101.993C101.765 27.915 101.598 27.7267 101.598 27.5176V25.7969C101.597 25.7447 101.608 25.6928 101.628 25.6445C101.648 25.5963 101.676 25.5517 101.713 25.5146C101.749 25.4778 101.793 25.4489 101.841 25.4287C101.889 25.4085 101.941 25.3977 101.993 25.3975H111.789Z" fill="#161E33"/>
<path d="M4.21875 28.1357C6.54864 28.136 8.43741 30.0382 8.4375 32.3848C8.4375 34.7324 6.5487 36.6355 4.21875 36.6357C1.88956 36.6357 0 34.7335 0 32.3848C9.10966e-05 30.0381 1.88962 28.1357 4.21875 28.1357Z" fill="#161E33"/>
<path fill-rule="evenodd" clip-rule="evenodd" d="M150.329 30.0654C150.744 30.0655 151.1 30.2349 151.1 30.7109C151.101 30.8282 151.066 30.9434 151.001 31.041C150.936 31.1385 150.843 31.2145 150.734 31.2588L151.188 32.085H150.734L150.388 31.3887H149.984V32.085H149.579V30.0654H150.329ZM149.983 31.0693L150.241 31.0703C150.508 31.0703 150.665 30.9493 150.665 30.7314C150.665 30.533 150.558 30.4024 150.261 30.4023H149.983V31.0693Z" fill="#161E33"/>
<path fill-rule="evenodd" clip-rule="evenodd" d="M150.291 29.1406C151.317 29.1407 152.155 29.9361 152.155 31.0996C152.155 32.263 151.317 33.0585 150.291 33.0586C149.273 33.0586 148.434 32.263 148.434 31.0996C148.434 29.936 149.273 29.1406 150.291 29.1406ZM150.291 29.498C149.461 29.498 148.829 30.1658 148.829 31.0996C148.829 32.0449 149.461 32.6904 150.291 32.6904C151.119 32.6904 151.76 32.0449 151.76 31.0996C151.76 30.1659 151.119 29.4981 150.291 29.498Z" fill="#161E33"/>
</g>
<defs>
<clipPath id="clip0_10044_47728">
<rect width="152" height="64" fill="white"/>
</clipPath>
</defs>
</svg>
