<svg width="88" height="64" viewBox="0 0 88 64" fill="none" xmlns="http://www.w3.org/2000/svg">
<path d="M9.36183 20.2054C4.21282 20.2054 0 24.4183 0 29.5673C0 34.7163 4.21282 38.9291 9.36183 38.9291C14.5108 38.9291 18.7237 34.7423 18.7237 29.5673C18.7237 24.3923 14.5368 20.2054 9.36183 20.2054ZM9.36183 35.5744C6.16321 35.5744 3.5887 32.9479 3.5887 29.5673C3.5887 26.1866 6.16321 23.5601 9.36183 23.5601C12.5605 23.5601 15.135 26.1866 15.135 29.5673C15.135 32.9479 12.5605 35.5744 9.36183 35.5744Z" fill="#161E33"/>
<path d="M28.1893 25.4065C26.499 25.4065 24.8606 26.0826 24.0025 27.2268V25.6665H20.6218V43.8701H24.0025V37.2908C24.8606 38.357 26.447 38.9291 28.1893 38.9291C31.8299 38.9291 34.6905 36.0685 34.6905 32.1678C34.6905 28.267 31.8299 25.4065 28.1893 25.4065ZM27.6172 35.9905C25.6928 35.9905 23.9765 34.4822 23.9765 32.1678C23.9765 29.8533 25.6928 28.345 27.6172 28.345C29.5416 28.345 31.2578 29.8533 31.2578 32.1678C31.2578 34.4822 29.5416 35.9905 27.6172 35.9905Z" fill="#161E33"/>
<path d="M42.6485 25.4065C38.9558 25.4065 36.0432 28.293 36.0432 32.1678C36.0432 36.0425 38.5917 38.9291 42.7525 38.9291C46.1592 38.9291 48.3436 36.8747 49.0198 34.5603H45.7171C45.301 35.5224 44.1308 36.1986 42.7265 36.1986C40.9842 36.1986 39.6579 34.9763 39.3459 33.234H49.1758V31.9077C49.1758 28.371 46.7053 25.4065 42.6485 25.4065ZM39.3719 30.8415C39.7359 29.2032 41.0882 28.137 42.7265 28.137C44.4689 28.137 45.7951 29.2812 45.9512 30.8415H39.3719Z" fill="#161E33"/>
<path d="M58.1733 25.4065C56.665 25.4065 55.0787 26.0826 54.3505 27.2008V25.6665H50.9699V38.6691H54.3505V31.6737C54.3505 29.6453 55.4427 28.319 57.2111 28.319C58.8494 28.319 59.7336 29.5673 59.7336 31.3096V38.6691H63.1142V30.7635C63.1142 27.5389 61.1378 25.4065 58.1733 25.4065Z" fill="#161E33"/>
<path d="M71.7728 20.466L64.4134 38.6695H68.0281L69.5884 34.6908H77.962L79.5223 38.6695H83.1891L75.8816 20.466H71.7728ZM70.7586 31.6742L73.7752 24.0547L76.7658 31.6742H70.7586Z" fill="#161E33"/>
<path d="M88 20.466H84.5673V38.6695H88V20.466Z" fill="#161E33"/>
</svg>
