<svg width="132" height="64" viewBox="0 0 132 64" fill="none" xmlns="http://www.w3.org/2000/svg">
<g clip-path="url(#clip0_4574_2051)">
<path fill-rule="evenodd" clip-rule="evenodd" d="M12.3102 16.4657V25.0641L4.64678 17.3942L3.88793 16.6347V17.7084V25.7101H0.711046H0.266602V26.1546V38.2168V38.6613H0.711046H3.88882V46.7137V47.7873L4.64767 47.0278L12.3102 39.3589V48.4657H13.199V39.3198L20.8997 47.0278L21.6586 47.7874V46.7137V38.6613H24.8355H25.2799V38.2168V26.1546V25.7101H24.8355H21.6586V20.0213V17.7084V16.6347L20.8997 17.3942L13.199 25.1022V16.4657H12.3102ZM4.77682 18.782L11.6991 25.7101H4.77682V18.782ZM1.15549 26.599H3.88793V26.6008H4.33238H11.6992L4.02122 34.2861L4.01887 34.2885L4.01885 34.2885L3.88887 34.4186L3.88882 34.6025V34.6026L3.88804 37.7724H1.15549V26.599ZM12.3102 27.2478L4.77771 34.7866V45.6401L12.3102 38.1013V27.2478ZM13.2186 38.0817V27.2291L20.7697 34.7865L20.7688 38.2167L20.7687 38.6613H20.7697V45.64L13.2186 38.0817ZM21.6586 34.6027V37.7724H24.391V26.599H21.6586V26.6008H21.2142H13.8482L21.5087 34.2686L21.5286 34.2885L21.5286 34.2885L21.6586 34.4186V34.6026V34.6027ZM20.7697 20.0213V25.7101H13.8482L20.7697 18.7821V20.0213ZM50.6718 25.767C49.7216 26.3013 48.9847 27.0604 48.4576 28.0462L48.4585 28.0453C47.9314 29.0319 47.6683 30.1919 47.6683 31.5288C47.6683 32.8657 47.9394 34.0266 48.4816 35.0133C49.0238 35.9999 49.7945 36.7599 50.791 37.2924C51.7883 37.8248 52.9412 38.0915 54.2496 38.0915C55.9883 38.0915 57.3252 37.6666 58.2576 36.815C59.191 35.9644 59.8087 34.9573 60.1118 33.7964H57.8381C57.5821 34.5448 57.1803 35.1288 56.6292 35.5502C56.0798 35.9715 55.2852 36.1822 54.2487 36.1822C52.9714 36.1822 51.9545 35.8168 51.1972 35.0844C50.4398 34.3528 50.0212 33.3662 49.9412 32.1253H59.871V30.6942C59.871 29.6613 59.6514 28.711 59.2132 27.8435C58.775 26.9768 58.1127 26.2808 57.2274 25.7555C56.343 25.2302 55.2861 24.9679 54.0096 24.9679C52.7332 24.9679 51.6203 25.2346 50.6718 25.767ZM56.6416 27.7946C57.1998 28.4079 57.479 29.2542 57.479 30.3359H49.9652C50.1243 29.223 50.559 28.367 51.2692 27.7706C51.9785 27.1742 52.8923 26.8764 54.0087 26.8764C55.2061 26.8764 56.0834 27.1822 56.6416 27.7946ZM62.8541 27.3057V25.3253V25.3244H60.6985V37.7333H62.8523V30.6942C62.8523 29.5324 63.1154 28.6977 63.6425 28.1884C64.1696 27.679 64.967 27.4248 66.0363 27.4248H67.4007V25.2782H66.3483C64.7047 25.2782 63.6754 25.9306 63.2612 27.2346C63.2301 27.3297 63.199 27.3928 63.1661 27.4248C63.1332 27.4568 63.0861 27.4728 63.0221 27.4728C62.9101 27.4728 62.8541 27.4177 62.8541 27.3057ZM77.8452 37.3502C78.7465 36.8577 79.4807 36.1137 80.047 35.1199C80.6132 34.1253 80.8967 32.9279 80.8967 31.5297C80.8967 30.1315 80.6132 28.9333 80.047 27.9395C79.4799 26.9448 78.7465 26.2008 77.8452 25.7084C76.9439 25.2159 75.9741 24.9688 74.9376 24.9688C72.8959 24.9688 71.4594 25.7795 70.6301 27.4026C70.5661 27.5288 70.487 27.5928 70.391 27.5928C70.295 27.5928 70.247 27.5448 70.247 27.4497V25.3262H68.0932V42.2657H70.247V35.6088C70.247 35.5137 70.2959 35.4657 70.391 35.4657C70.4861 35.4657 70.5661 35.5297 70.6301 35.6559C71.4594 37.279 72.8959 38.0897 74.9376 38.0897C75.9741 38.0897 76.9439 37.8426 77.8452 37.3502ZM74.4354 26.8755C75.727 26.8755 76.7679 27.2853 77.5581 28.1048C78.3483 28.9244 78.743 30.0657 78.743 31.5288C78.743 32.9919 78.3483 34.1333 77.5581 34.9528C76.7687 35.7733 75.727 36.1822 74.4354 36.1822C73.1438 36.1822 72.103 35.7724 71.3127 34.9528C70.5225 34.1342 70.2327 32.9919 70.2327 31.5288C70.2327 30.0657 70.5225 28.9244 71.3127 28.1048C72.1021 27.2853 73.1438 26.8755 74.4354 26.8755ZM84.0221 37.7324V20.5546H81.8683V37.7324H84.0221ZM85.7959 28.0444C85.7957 28.0447 85.7956 28.045 85.7954 28.0453V28.0444H85.7959ZM85.7959 28.0444H85.7963C85.2692 29.031 85.0061 30.191 85.0061 31.5279C85.0061 32.8648 85.2772 34.0257 85.8194 35.0124C86.3616 35.999 87.1323 36.759 88.1287 37.2915C89.1261 37.8239 90.279 38.0906 91.5874 38.0906C93.3261 38.0906 94.663 37.6657 95.5954 36.8142C96.5278 35.9635 97.1465 34.9564 97.4496 33.7955H95.1758C94.9199 34.5439 94.5181 35.1279 93.967 35.5493C93.4167 35.9706 92.623 36.1813 91.5865 36.1813C90.3092 36.1813 89.2923 35.8159 88.535 35.0835C87.7776 34.3519 87.359 33.3653 87.279 32.1244H97.2087V30.6933C97.2087 29.6604 96.9901 28.7102 96.551 27.8426C96.1127 26.9759 95.4505 26.2799 94.5652 25.7546C93.6807 25.2293 92.6221 24.967 91.3465 24.967C90.071 24.967 88.9581 25.2337 88.0096 25.7662C87.0597 26.3002 86.3221 27.059 85.7959 28.0444ZM93.9794 27.7937C94.5376 28.407 94.8167 29.2533 94.8167 30.335H87.303C87.463 29.2222 87.8967 28.3662 88.607 27.7697C89.3163 27.1733 90.231 26.8755 91.3465 26.8755C92.5438 26.8755 93.4212 27.1813 93.9794 27.7937ZM101.179 31.1697L96.2505 37.255H96.2523V37.7324H98.6692L102.593 32.7457L106.254 37.7324H108.575V37.255L104.291 31.5288L108.933 25.8257V25.3244H106.517L102.88 29.9528L99.5047 25.3244H97.1358V25.8017L101.179 31.1697ZM112.06 23.9715V21.2862H109.545V23.9715H112.06ZM109.775 37.7333H111.93V25.3253H109.775V37.7333ZM112.611 25.3253H112.609V25.3244H112.611V25.3253ZM112.611 25.3253V27.143H114.953V33.6755C114.953 35.0444 115.289 36.0613 115.958 36.7297C116.627 37.399 117.649 37.7324 119.021 37.7324H120.696V35.8239H119.859C119.044 35.8239 118.442 35.8435 118.051 35.8835C117.66 35.9235 117.425 35.943 117.346 35.943C117.233 35.943 117.146 35.9119 117.082 35.8479C117.018 35.7848 116.987 35.6977 116.987 35.5857C116.987 35.5066 117.006 35.2719 117.046 34.8817C117.086 34.4915 117.107 33.8906 117.107 33.0799V27.1439H120.178L119.572 25.3253H117.107V21.9848H114.952V25.3253H112.611ZM122.417 25.3253H120.221V25.3262H120.223L124.352 37.7333H125.811C125.907 37.7333 125.979 37.7413 126.027 37.7573C126.075 37.7724 126.114 37.8124 126.146 37.8764C126.209 37.9733 126.202 38.1164 126.122 38.3066L125.451 40.1199C125.355 40.3582 125.171 40.4773 124.9 40.4773C124.804 40.4773 124.58 40.4577 124.23 40.4177C123.879 40.3777 123.425 40.3582 122.867 40.3582H121.119V42.2666H123.416C124.757 42.2666 125.563 42.0399 126.258 41.5866C126.951 41.1333 127.489 40.3342 127.872 39.1884L132.332 25.8026V25.3253H130.284L126.719 35.735C126.671 35.8622 126.595 36.031 126.351 36.031C126.107 36.031 126.031 35.863 125.982 35.735L122.417 25.3253ZM44.0976 37.3706C44.999 36.8782 45.7332 36.1342 46.2994 35.1404C46.8656 34.1466 47.1492 32.9493 47.1492 31.5502C47.1492 30.151 46.8656 28.9528 46.2994 27.959C45.7323 26.9653 44.999 26.2213 44.0976 25.7288C43.1963 25.2364 42.2265 24.9893 41.1901 24.9893C39.1483 24.9893 37.711 25.7999 36.8825 27.423C36.8185 27.5493 36.7394 27.6133 36.6434 27.6133C36.5474 27.6133 36.4994 27.5653 36.4994 27.4702V25.3466H34.3456V42.2862H36.4994V35.6293C36.4994 35.5342 36.5483 35.4862 36.6434 35.4862C36.7385 35.4862 36.8185 35.5502 36.8825 35.6764C37.7118 37.2995 39.1483 38.1102 41.1901 38.1102C42.2265 38.1102 43.1963 37.863 44.0976 37.3706ZM40.6879 26.8959C41.9794 26.8959 43.0203 27.3057 43.8105 28.1253C44.6007 28.9448 44.9954 30.0862 44.9954 31.5493C44.9954 33.0124 44.6007 34.1537 43.8105 34.9733C43.0212 35.7937 41.9794 36.2026 40.6879 36.2026C39.3963 36.2026 38.3554 35.7928 37.5652 34.9733C36.775 34.1546 36.4852 33.0124 36.4852 31.5493C36.4852 30.0862 36.775 28.9448 37.5652 28.1253C38.3545 27.3057 39.3963 26.8959 40.6879 26.8959Z" fill="#161E33"/>
</g>
<defs>
<clipPath id="clip0_4574_2051">
<rect width="132" height="64" fill="white"/>
</clipPath>
</defs>
</svg>
