<svg width="93" height="64" viewBox="0 0 93 64" fill="none" xmlns="http://www.w3.org/2000/svg">
<path d="M49.6822 40.6426C49.7732 40.6362 49.8642 40.6312 49.9552 40.6276C50.2794 40.6157 50.5256 40.699 50.7634 40.9276C51.0246 41.1785 51.193 41.5555 51.199 41.9179C51.2051 42.2762 51.0572 42.6748 50.8041 42.9301C50.508 43.2289 50.2483 43.2188 49.8546 43.2201C49.6619 43.2206 49.4356 43.2075 49.2497 43.1558C48.6339 42.9849 48.6244 42.3242 48.3614 41.8593L48.3448 41.8304C48.4742 41.7128 48.5671 41.4358 48.6691 41.2794C48.9379 40.8674 49.2146 40.7441 49.6822 40.6426Z" fill="#161E33"/>
<path d="M53.8953 28.2286C54.0768 28.219 54.2606 28.2227 54.4424 28.2208C54.452 28.2389 54.4612 28.2566 54.4692 28.2754C54.5696 28.5129 54.5516 32.1351 54.4757 32.3141C55.1488 32.369 55.8382 32.3475 56.5143 32.3764C56.5468 32.4413 56.575 32.5093 56.5857 32.5816C56.63 32.8781 56.6491 33.4526 56.4696 33.702C55.8077 33.6711 55.1454 33.6573 54.4827 33.6605C54.493 33.6768 54.5043 33.6957 54.5104 33.714C54.5644 33.8794 54.5381 40.802 54.5156 41.569C54.5138 41.631 54.4945 41.6866 54.4699 41.7429C54.9594 41.7922 55.461 41.7829 55.9531 41.7994C56.0971 41.9666 56.1778 42.3249 56.1907 42.5433C56.2007 42.7131 56.1361 42.8722 56.0237 42.9979C55.8294 43.2151 55.5352 43.189 55.2685 43.1993C54.785 43.2467 54.1537 43.2407 53.6905 43.0767C53.4263 42.9833 53.1794 42.8205 53.0563 42.5609C52.9379 42.3112 52.886 42.032 52.8618 41.7584C52.7988 41.0472 52.841 40.2983 52.8423 39.5829L52.8578 35.4131C52.8595 34.9352 52.9601 34.1167 52.756 33.6876C52.2066 33.6253 51.6289 33.6815 51.0725 33.6548C51.1094 33.5628 51.0405 32.5384 50.9947 32.4126C51.5824 32.3729 52.172 32.3738 52.7595 32.332C52.7841 32.2977 52.8044 32.2609 52.8157 32.2199C52.9196 31.8466 52.8989 28.595 52.771 28.3589C53.1444 28.2878 53.5169 28.258 53.8953 28.2286Z" fill="#161E33"/>
<path d="M76.0738 31.975C77.493 31.9782 78.8049 32.2894 79.9589 33.1656C80.3052 33.4285 81.0783 34.0037 81.1278 34.4445C81.1418 34.5687 81.097 34.6788 81.0201 34.7741C80.8343 35.0046 80.3376 35.3049 80.0436 35.3352C79.822 35.2984 79.3262 34.6627 79.108 34.4872C78.1252 33.6969 76.7701 33.504 75.5493 33.6398C74.4515 33.7618 73.5661 34.2838 72.8821 35.147C72.1808 36.032 72.0159 37.1032 72.148 38.2013C72.2829 39.3235 72.7624 40.2137 73.6583 40.9108C74.5852 41.6322 75.7221 41.8871 76.8778 41.7384C78.2935 41.5563 78.6965 40.6677 79.83 40.0835C79.9824 40.0051 80.1352 39.995 80.2969 40.053C80.5298 40.1366 81.0674 40.5539 81.1783 40.7824C81.1289 40.9399 81.0219 41.08 80.9163 41.2045C79.8254 42.4898 78.4725 43.0548 76.8172 43.1848C75.1583 43.315 73.6179 43.0048 72.3251 41.893C71.2057 40.9302 70.5735 39.5907 70.4668 38.1269C70.3524 36.5578 70.8115 35.1126 71.8483 33.9209C72.9278 32.68 74.4606 32.086 76.0738 31.975Z" fill="#161E33"/>
<path d="M83.4711 28.3664C83.9978 28.2463 84.4608 28.1828 84.998 28.2638C85.0137 28.2851 85.0138 28.2843 85.0293 28.3102C85.0836 28.4011 85.0899 28.521 85.0922 28.6245C85.1137 29.5644 85.0661 30.5137 85.069 31.4553C85.0707 31.9712 85.1819 33.5392 85.0845 33.9115C85.4124 33.7499 85.6376 33.3396 85.9051 33.0901C86.1942 32.8205 86.6123 32.5847 86.966 32.4141C87.9835 31.9235 89.0872 31.834 90.1583 32.209C90.9601 32.4898 91.8303 33.1394 92.1988 33.9231C92.6367 34.8536 92.7573 35.7053 92.8231 36.767C92.8586 37.347 92.6813 42.8867 92.8289 42.8768C92.7197 42.8841 91.5086 42.8768 91.2241 42.8768C91.2241 42.8768 91.2238 37.0067 91.1734 36.3952C91.1399 35.9859 91.0838 35.5728 90.9424 35.1853C90.7235 34.5857 90.35 33.999 89.7532 33.7233C89.0636 33.4048 88.0972 33.5034 87.404 33.7613C86.487 34.1025 85.744 34.96 85.4272 35.8735C85.0086 37.0803 85.0635 40.1397 85.0774 41.5169C85.0812 41.9001 85.0774 42.4367 85.0172 42.8738C84.9066 42.8738 83.5419 42.8768 83.5432 42.8738C83.5432 42.8738 83.5882 29.8726 83.5325 28.6544C83.5279 28.5503 83.5104 28.4633 83.4711 28.3664Z" fill="#161E33"/>
<path fill-rule="evenodd" clip-rule="evenodd" d="M66.8097 33.2391C65.6041 32.2384 64.0299 31.8837 62.4941 32.021C60.9078 32.3413 59.5788 33.1092 58.6721 34.4725C57.8252 35.7458 57.6201 37.4168 57.9242 38.8999C58.2133 40.3093 59.0289 41.643 60.2412 42.4363C61.5396 43.2859 63.4228 43.3761 64.9169 43.0603C66.2835 42.7714 67.2621 41.8358 68.0022 40.6912C68.0163 40.6692 68.0325 40.6453 68.0497 40.6199C68.1454 40.4786 68.2721 40.2913 68.2578 40.1409C68.234 39.94 68.0627 39.7629 67.9084 39.6438C67.7103 39.4908 67.4241 39.3577 67.1692 39.3983C66.9592 39.4319 66.8295 39.6209 66.7155 39.7869C66.7057 39.8012 66.6961 39.8153 66.6864 39.8291C66.1871 40.5473 65.6256 41.1216 64.8035 41.4858C63.9189 41.878 62.7115 41.8787 61.8151 41.5261C60.8579 41.1495 60.2453 40.5262 59.8397 39.5858C59.7643 39.4111 59.681 39.045 59.6017 38.6971C59.5193 38.3351 59.4413 37.9928 59.3814 37.9056C61.1738 37.879 62.9664 37.8685 64.7591 37.874C65.1525 37.876 65.5473 37.8829 65.9426 37.8897C66.6976 37.9028 67.4542 37.916 68.2049 37.8956C68.2248 37.895 68.245 37.8946 68.2655 37.8942C68.4161 37.8912 68.5804 37.888 68.7152 37.8253C68.8073 37.7161 68.8092 37.6067 68.7987 37.4693C68.7803 37.2311 68.7157 36.9849 68.6535 36.7477C68.6372 36.6858 68.6212 36.6245 68.6061 36.5642C68.2969 35.3223 67.8205 34.0781 66.8097 33.2391ZM65.604 34.3361C64.735 33.7094 63.7037 33.5259 62.6547 33.6463C61.5418 33.8261 61.0576 34.0579 60.3707 35.0111C60.1849 35.269 59.6673 36.0078 59.7347 36.3305C59.7505 36.406 59.765 36.418 59.818 36.4616C59.8204 36.4636 59.8229 36.4657 59.8255 36.4678C60.1962 36.4984 60.5757 36.4898 60.9519 36.4812C61.0926 36.478 61.2329 36.4748 61.3721 36.4737L63.844 36.4704L65.7093 36.4725C65.8106 36.4731 65.9141 36.4769 66.0184 36.4807C66.2894 36.4905 66.5663 36.5005 66.8257 36.4577C66.8803 36.3841 66.8734 36.337 66.861 36.2531C66.86 36.2466 66.859 36.2399 66.858 36.2329C66.7561 35.5164 66.1782 34.7502 65.604 34.3361Z" fill="#161E33"/>
<path fill-rule="evenodd" clip-rule="evenodd" d="M0.405434 31.009C0.404074 31.012 0.402715 31.015 0.401367 31.018V33.425C0.549406 33.7444 0.605732 34.1377 0.660842 34.5226C0.693525 34.7508 0.725781 34.9761 0.776485 35.1812C1.23291 37.0269 2.27556 38.8255 3.64211 40.1448C3.7072 40.2084 3.77308 40.2711 3.83974 40.3331C3.9064 40.395 3.97383 40.4561 4.04202 40.5163C4.11022 40.5766 4.17915 40.6359 4.24883 40.6944C4.31851 40.7529 4.3889 40.8105 4.46002 40.8672C4.53115 40.9239 4.60297 40.9798 4.67549 41.0347C4.74801 41.0896 4.82121 41.1437 4.89509 41.1969C4.96896 41.25 5.04348 41.3021 5.11866 41.3533C5.19385 41.4045 5.26966 41.4548 5.34609 41.5041C5.42254 41.5535 5.49958 41.6018 5.57723 41.6492C5.65488 41.6966 5.73312 41.7431 5.81193 41.7886C5.89075 41.834 5.97012 41.8785 6.05005 41.9218C6.12998 41.9653 6.21044 42.0078 6.29143 42.0492C6.37242 42.0907 6.45392 42.1311 6.53593 42.1705C6.61793 42.2099 6.70041 42.2482 6.78337 42.2856C6.86634 42.323 6.94976 42.3592 7.03363 42.3944C7.11751 42.4296 7.20181 42.4638 7.28654 42.497C7.37127 42.5301 7.4564 42.5622 7.54193 42.5932C7.62747 42.6242 7.71337 42.6541 7.79966 42.6829C7.88594 42.7117 7.97257 42.7395 8.05955 42.7662C8.14652 42.7928 8.23382 42.8183 8.32144 42.8428C8.40905 42.8673 8.49697 42.8907 8.58517 42.913C8.67337 42.9352 8.76184 42.9564 8.85059 42.9765C8.93932 42.9966 9.02829 43.0155 9.1175 43.0333C9.2067 43.0512 9.29612 43.0679 9.38575 43.0835C9.47538 43.0991 9.56518 43.1135 9.65517 43.1268C9.74516 43.1402 9.83531 43.1524 9.9256 43.1634C10.0159 43.1745 10.1063 43.1845 10.1969 43.1933C10.2874 43.2021 10.378 43.2098 10.4688 43.2164C10.5595 43.2229 10.6503 43.2283 10.7412 43.2326C10.8321 43.2368 10.923 43.2399 11.0139 43.242C11.1049 43.2439 11.1958 43.2447 11.2868 43.2444C11.3778 43.2442 11.4687 43.2427 11.5597 43.2402C13.9213 43.1945 16.5594 42.4433 18.234 40.7027C18.7586 40.9698 19.227 41.3421 19.6957 41.7147C20.3349 42.2228 20.9748 42.7315 21.7594 42.975C22.7475 43.2816 24.3575 43.2851 25.2771 42.7955C25.8071 42.5134 26.2996 42.0998 26.6811 41.6374C27.408 40.7562 28.8112 37.9771 29.1464 36.8879C29.6252 36.8185 30.1281 36.8296 30.6236 36.8406C30.8259 36.845 31.027 36.8495 31.2246 36.8484C32.7456 36.8371 34.2667 36.8364 35.7878 36.8463C35.9549 36.8469 36.1272 36.8512 36.3018 36.8557C36.8221 36.8689 37.3633 36.8827 37.8525 36.7964C37.8781 36.7184 37.8798 36.6473 37.8649 36.5676C37.8029 36.2324 36.5234 33.5604 36.3033 33.1845C36.2472 33.0886 36.1853 33.0137 36.093 32.95C35.7985 32.8902 35.4269 32.9054 35.0839 32.9194C34.9444 32.9251 34.8097 32.9307 34.6868 32.9309C34.4447 32.9312 34.2022 32.9328 33.9596 32.9344C33.0554 32.9404 32.1484 32.9463 31.2479 32.8896C31.3617 32.5808 31.5179 32.2774 31.6727 31.9768C31.7505 31.8256 31.8279 31.6752 31.8994 31.5252C32.4057 30.4441 32.9278 29.3707 33.4656 28.3049C33.5703 28.0962 33.6703 27.8775 33.7713 27.6568C33.9854 27.1886 34.2036 26.7115 34.4798 26.3021C34.885 26.8991 35.2064 27.591 35.52 28.2661C35.633 28.5094 35.745 28.7505 35.8596 28.9841L38.0001 33.3381C38.7665 34.9303 39.5631 36.507 40.3597 38.0836C41.0879 39.5247 41.8159 40.9657 42.5208 42.4182C42.541 42.4599 42.568 42.5101 42.5977 42.5655C42.7068 42.7687 42.8528 43.0409 42.8384 43.2106C43.383 43.3056 46.3377 43.3153 46.882 43.2337C46.8942 43.2319 46.9056 43.2303 46.9164 43.2288C47.0043 43.2166 47.0508 43.2101 47.1108 43.1293C47.1138 43.0916 47.1132 43.0549 47.1051 43.0178C47.065 42.8336 46.8899 42.5458 46.7361 42.2931C46.6617 42.1708 46.5922 42.0566 46.5455 41.9664C46.1885 41.2631 45.838 40.5566 45.4939 39.8469C43.5771 35.8574 41.6189 31.8884 39.6192 27.9397L38.1202 24.9392C38.0451 24.7879 37.9709 24.6354 37.8967 24.4826C37.6732 24.0227 37.4485 23.5603 37.191 23.1219C36.9207 22.6619 36.6327 22.314 36.1746 22.0364C36.1292 22.0089 36.0831 21.9825 36.0363 21.9572C35.9897 21.932 35.9423 21.908 35.8944 21.8851C35.8465 21.8622 35.7981 21.8406 35.749 21.8202C35.7 21.7997 35.6506 21.7805 35.6006 21.7626C35.5506 21.7446 35.5002 21.7279 35.4494 21.7125C35.3986 21.697 35.3475 21.6829 35.2959 21.67C35.2445 21.6571 35.1927 21.6455 35.1407 21.6352C35.0886 21.6249 35.0363 21.6159 34.9837 21.6083C34.9312 21.6006 34.8785 21.5942 34.8256 21.5892C34.7727 21.5842 34.7198 21.5804 34.6667 21.5781C34.6137 21.5757 34.5607 21.5746 34.5076 21.5749C34.4545 21.5751 34.4014 21.5767 34.3484 21.5797C34.2954 21.5826 34.2425 21.5868 34.1897 21.5924C34.1369 21.598 34.0843 21.6048 34.0318 21.6131C33.9794 21.6213 33.9272 21.6308 33.8752 21.6416C33.8232 21.6524 33.7715 21.6645 33.7201 21.6779C33.0888 21.8374 32.4727 22.1565 32.0481 22.6593C31.5176 23.2874 30.9322 24.5353 30.4583 25.5454C30.3129 25.8553 30.178 26.1429 30.0584 26.3833L25.614 35.3038C25.1706 36.221 24.7335 37.1412 24.3027 38.0644C24.2464 38.1828 24.1916 38.3063 24.1362 38.431C24.0066 38.7229 23.8737 39.022 23.7118 39.2807C23.6482 39.3822 23.6089 39.4023 23.4947 39.4296C22.8555 39.3075 21.4099 38.1549 20.8849 37.6928C20.9636 37.4982 21.0576 37.3091 21.1517 37.1197C21.2385 36.945 21.3255 36.7701 21.4006 36.5905C22.4787 34.0132 22.5391 30.7326 21.4736 28.144C20.3133 25.3251 18.1486 23.2268 15.3455 22.0632C12.7347 20.9794 9.73255 21.0601 7.13447 22.1384C5.0314 23.0113 3.54285 24.2199 2.27626 26.1193C1.77471 26.8714 1.34747 27.6604 1.05294 28.5169C1.0435 28.5444 1.034 28.5719 1.02448 28.5996C0.900397 28.9596 0.772082 29.3319 0.689985 29.7016C0.659261 29.8399 0.636541 29.9897 0.613445 30.1419C0.568899 30.4355 0.522951 30.7383 0.41548 30.9865C0.412216 30.994 0.408821 31.0015 0.405434 31.009ZM14.1716 25.7508C13.0754 25.2622 11.7041 25.0511 10.5079 25.1985C8.61648 25.4594 7.00439 26.2732 5.83493 27.8151C4.61809 29.4195 4.04918 31.2832 4.32909 33.2969C4.58798 35.1596 5.5269 36.7962 7.03125 37.9327C8.57123 39.0962 10.3971 39.5854 12.3153 39.3137C13.2327 39.1838 14.3872 38.8472 15.1207 38.2636C14.9543 38.09 14.7913 37.9387 14.5953 37.7989C14.4312 37.684 14.2587 37.5685 14.083 37.451C13.4186 37.0064 12.7086 36.5313 12.2329 35.9386C12.7928 35.2484 13.3337 34.5435 13.8556 33.8241C13.9388 33.7112 14.0191 33.594 14.0997 33.4765C14.2358 33.2779 14.3724 33.0786 14.5242 32.8982C14.6302 32.982 14.7804 33.1035 14.9588 33.2477C15.7723 33.9055 17.1718 35.0371 17.6377 35.2364C17.7551 35.1933 17.8022 35.1448 17.8568 35.0295C17.937 34.8601 17.9908 34.6643 18.0422 34.4773C18.0554 34.4293 18.0684 34.3819 18.0817 34.3356C18.109 34.2407 18.1344 34.1453 18.1579 34.0494C18.1814 33.9535 18.2029 33.8571 18.2226 33.7603C18.2423 33.6636 18.26 33.5664 18.2756 33.469C18.2914 33.3714 18.3053 33.2736 18.3172 33.1756C18.329 33.0776 18.3389 32.9794 18.3469 32.881C18.3548 32.7825 18.3607 32.6839 18.3648 32.5853C18.3688 32.4866 18.3709 32.3879 18.371 32.2892C18.371 32.1904 18.369 32.0917 18.3652 31.993C18.3613 31.8943 18.3555 31.7957 18.3477 31.6973C18.3399 31.5988 18.3302 31.5006 18.3184 31.4026C18.3067 31.3045 18.293 31.2067 18.2773 31.1092C18.2617 31.0116 18.2441 30.9145 18.2246 30.8178C18.2051 30.7209 18.1837 30.6245 18.1604 30.5285C18.137 30.4326 18.1117 30.3372 18.0846 30.2423C18.0575 30.1473 18.0284 30.0529 17.9974 29.9591C17.9665 29.8654 17.9337 29.7723 17.8991 29.6798C17.8568 29.572 17.8119 29.4654 17.7645 29.3598C17.7172 29.2543 17.6673 29.1499 17.6149 29.0468C17.5625 28.9436 17.5077 28.8418 17.4503 28.7413C17.393 28.6408 17.3333 28.5417 17.2712 28.4441C17.2091 28.3465 17.1447 28.2504 17.0781 28.1559C17.0113 28.0614 16.9424 27.9685 16.8712 27.8773C16.8 27.7861 16.7266 27.6966 16.6512 27.609C16.5757 27.5213 16.4981 27.4355 16.4184 27.3516C16.3388 27.2676 16.2572 27.1857 16.1736 27.1057C16.0901 27.0257 16.0047 26.9477 15.9174 26.8719C15.83 26.796 15.7409 26.7222 15.65 26.6507C15.5591 26.5791 15.4666 26.5097 15.3723 26.4426C15.2781 26.3755 15.1824 26.3106 15.085 26.2481C14.9877 26.1856 14.8889 26.1255 14.7886 26.0677C14.6884 26.01 14.5868 25.9547 14.4839 25.9018C14.3811 25.8489 14.2769 25.7986 14.1716 25.7508Z" fill="#161E33"/>
</svg>
