<svg width="88" height="64" viewBox="0 0 88 64" fill="none" xmlns="http://www.w3.org/2000/svg">
<path d="M12.9964 39.5123C12.1648 37.8756 11.1893 36.2225 9.28642 36.2225C8.92266 36.2225 8.55934 36.2827 8.22594 36.4349L7.5795 35.1412C8.36728 34.4652 9.6402 33.9294 11.2764 33.9294C13.8219 33.9294 15.1282 35.1555 16.1652 36.7206C16.7809 35.3844 17.0735 33.5799 17.0735 31.3432C17.0735 25.7577 15.3267 22.8897 11.2465 22.8897C7.22572 22.8897 5.48846 25.7577 5.48846 31.3432C5.48846 36.8992 7.22572 39.7377 11.2465 39.7377C11.8856 39.7377 12.4644 39.6675 12.9964 39.5123ZM13.9931 41.4616C13.1117 41.6978 12.1752 41.8284 11.2465 41.8284C5.89253 41.8284 0.650391 37.5561 0.650391 31.3432C0.650391 25.0714 5.89253 20.7982 11.2465 20.7982C16.6903 20.7982 21.8821 25.0406 21.8821 31.3432C21.8821 34.8489 20.2463 37.6978 17.8687 39.5392C18.6369 40.6903 19.4278 41.4546 20.529 41.4546C21.7308 41.4546 22.2155 40.5259 22.2966 39.7976H23.8617C23.9532 40.7674 23.4681 44.7982 19.0939 44.7982C16.4445 44.7982 15.0436 43.2626 13.9931 41.4616ZM25.3241 36.1318V28.9495C25.3241 28.1314 25.0219 27.7681 24.0824 27.7681H23.0822V25.8596H29.6172V36.0412C29.6172 37.7577 30.5463 38.5147 31.961 38.5147C33.1221 38.5147 34.2836 38.0009 34.9101 36.8281V28.9495C34.9101 28.1314 34.607 27.7681 33.6679 27.7681H32.6075V25.8596H39.2036V36.5246C39.2036 37.5869 39.5973 38.0711 40.8091 38.0711H41.0215V40.0408L35.1225 40.9799V38.95H35.0011C33.86 40.343 32.2541 41.2829 29.961 41.2829C27.3853 41.2829 25.3241 39.9805 25.3241 36.1318ZM49.6033 39.3744C51.9268 39.3744 52.8095 37.3532 52.8559 33.2834C52.901 29.3024 51.9268 27.3753 49.6033 27.3753C47.5734 27.3753 46.3005 29.3033 46.3005 33.2834C46.3005 37.354 47.5526 39.3744 49.6033 39.3744ZM49.6033 41.2829C45.4017 41.2829 41.6129 38.0703 41.6129 33.2834C41.6129 28.5862 45.3103 25.465 49.6033 25.465C54.0781 25.465 57.664 28.646 57.664 33.2834C57.664 38.0703 54.0781 41.2829 49.6033 41.2829ZM57.7976 40.9799V39.0709H58.434C60.01 39.0709 60.1613 38.6166 60.1613 37.253V28.9495C60.1613 28.1314 59.7373 27.7681 58.7679 27.7681H57.9194V25.8596H63.9086L64.2116 28.9807H64.3335C65.0003 26.7375 66.7878 25.5556 68.464 25.5556C69.8479 25.5556 70.9283 26.3438 70.9283 27.9402C70.9283 29.051 70.3942 30.2333 68.8988 30.2333C67.5548 30.2333 67.2929 29.3237 66.1813 29.3237C65.1919 29.3237 64.4236 30.2636 64.4236 31.6467V37.253C64.4236 38.6166 64.7575 39.0709 66.3031 39.0709H67.1815V40.9799H57.7976ZM77.7369 38.7579C79.6463 38.7579 80.4336 36.95 80.4336 35.1329V32.7076C79.0402 34.1514 75.7971 34.2021 75.7971 36.7778C75.7971 38.0404 76.5455 38.7579 77.7369 38.7579ZM80.5251 38.7475C79.7369 40.2623 78.1202 41.2829 75.8583 41.2829C73.2322 41.2829 71.5353 39.8882 71.5353 37.4342C71.5353 32.496 78.4137 33.8084 80.4336 30.5363V30.1821C80.4336 27.6675 79.4438 27.2738 78.353 27.2738C75.2925 27.2738 76.6859 30.565 73.8678 30.565C72.5147 30.565 71.9892 29.7481 71.9892 28.829C71.9892 26.9703 74.2116 25.465 78.3838 25.465C82.3322 25.465 84.757 26.5563 84.757 30.4856V36.7579C84.757 37.7273 85.1108 38.2532 85.9593 38.2532C86.3226 38.2532 86.6257 38.1522 86.8576 37.9905L87.3632 39.2218C86.9487 39.8587 85.8474 40.9799 83.7564 40.9799C81.9389 40.9799 80.7974 40.1314 80.6456 38.7475H80.5251Z" fill="#161E33"/>
</svg>
