<svg width="80" height="64" viewBox="0 0 80 64" fill="none" xmlns="http://www.w3.org/2000/svg">
<path d="M54.1144 26.9385C53.6164 26.5722 52.8253 26.3379 52.0635 26.3525C51.2285 26.3671 50.4375 26.6308 49.8808 27.0703V21.8259H47.2878V38.9363H49.8808V30.0002C49.8808 29.3849 50.4081 28.6964 51.375 28.6524C51.7998 28.6378 52.4005 28.8282 52.7081 29.2824C53.0304 29.7511 53.0157 30.3957 53.0157 31.0842L53.0011 38.9363H55.594V30.9963C55.594 28.6524 55.301 27.8174 54.1144 26.9385Z" fill="#161E33"/>
<path d="M33.0195 32.8129C33.0195 34.4829 32.9608 34.9517 32.9462 35.0982C32.8583 36.0357 32.4628 37.0172 31.3787 37.0172C30.3093 37.0172 29.8699 35.9625 29.8259 35.0542C29.8113 35.0542 29.7526 34.4829 29.7526 32.8129C29.7526 31.1428 29.8113 30.4397 29.8259 30.4397C29.8259 29.4875 30.324 28.5499 31.3787 28.5499C32.4481 28.5499 32.9316 29.4875 32.9462 30.425C32.9462 30.4397 33.0195 31.1428 33.0195 32.8129ZM35.5245 30.7913C35.1583 27.1436 33.078 26.3525 31.3787 26.3525C28.9616 26.3525 27.4966 27.8907 27.233 30.7913C27.2037 31.0256 27.1744 31.4505 27.1597 32.8129C27.1451 33.809 27.2183 34.6294 27.233 34.8345C27.3941 37.5446 28.9469 39.2 31.3787 39.2C33.8105 39.2 35.3633 37.5153 35.5391 34.8345C35.5538 34.644 35.5977 33.809 35.5977 32.8129C35.5977 32.3587 35.5684 31.1428 35.5245 30.7913Z" fill="#161E33"/>
<path d="M59.9302 31.2747C59.9449 30.7034 59.9449 30.5862 59.9595 30.425C60.0328 29.3996 60.4869 28.5499 61.5417 28.5499C62.7869 28.5353 63.0799 29.7512 63.1238 30.425C63.1531 30.7913 63.1678 31.0256 63.1678 31.2747H59.9302ZM63.1384 34.7026C63.1384 34.7026 63.1384 34.8931 63.1091 35.1275C63.0359 35.7281 62.8015 37.0172 61.5417 37.0172C60.4576 37.0172 60.0474 36.0357 59.9742 35.0689C59.9595 34.7905 59.9156 34.4829 59.9156 33.4281H65.7021C65.7021 33.4281 65.7021 32.5638 65.6874 32.0511C65.6874 31.846 65.6728 31.5091 65.6288 30.7913C65.5409 29.6926 65.1308 28.4913 64.5008 27.7295C63.783 26.8213 62.7576 26.3525 61.5417 26.3525C59.1978 26.3525 57.7329 27.876 57.4545 30.7913C57.4252 31.0549 57.3813 31.4212 57.3813 32.8129C57.3813 33.809 57.4399 34.644 57.4545 34.8345C57.601 37.5006 59.1831 39.2 61.5417 39.2C63.8856 39.2 65.453 37.5446 65.6288 34.7026H63.1384Z" fill="#161E33"/>
<path d="M18.9562 13.0949H61.117L77.2313 31.9632L61.117 50.5678H18.9562L2.76872 31.9046L18.9562 13.0949ZM62.1278 11H17.9308L0 31.8313L17.9454 52.5309H62.1278L80 31.9046L62.1278 11Z" fill="#161E33"/>
<path d="M19.4835 24.1551H20.6994C22.0325 24.1551 22.7649 24.8583 22.7942 26.1181C22.7942 26.2207 22.8089 26.3232 22.8089 26.5136C22.8089 26.748 22.8089 26.8213 22.7942 26.9238C22.721 27.6709 22.3841 28.9747 20.8312 28.9747H19.4835V24.1551ZM25.6215 37.8669L25.3579 33.6772C25.2407 31.8021 24.7572 30.6887 23.7757 30.1174C24.4789 29.6925 25.3872 28.6524 25.3725 26.4697C25.3725 23.1589 23.307 21.987 20.8752 21.9577H16.9198V38.9363H19.4688L19.4835 31.1721H20.9045C21.7248 31.1721 22.6477 31.8899 22.7942 33.9116L23.0579 37.8815C23.0872 38.4528 23.1898 38.9363 23.1898 38.9363H25.7534C25.7534 38.9363 25.6362 38.4675 25.6215 37.8669Z" fill="#161E33"/>
<path d="M43.0981 34.5854C43.0981 34.7759 43.0835 34.937 43.0688 35.0542C42.9956 36.0064 42.6733 37.0172 41.5014 37.0172C40.432 37.0172 40.0071 35.9185 39.9192 35.1128C39.8753 34.6294 39.8899 34.2485 39.8753 32.8129C39.8606 31.1428 39.9192 30.7034 39.9485 30.4397C40.0364 29.3703 40.4466 28.5499 41.5014 28.5499C42.6001 28.5353 43.0542 29.4875 43.0688 30.425C43.0688 30.4397 43.0981 30.6594 43.1128 31.1575H45.6764C45.6764 30.9817 45.6618 30.8352 45.6618 30.762C45.3688 27.2168 43.2007 26.3525 41.5014 26.3525C39.0842 26.3525 37.6193 27.8907 37.3556 30.7913C37.3263 31.0256 37.297 31.4505 37.2823 32.8129C37.2677 33.809 37.3409 34.6294 37.3556 34.8345C37.5167 37.5446 39.0696 39.2 41.5014 39.2C44.021 39.2146 45.4127 37.6764 45.6618 34.8345C45.6618 34.7319 45.6764 34.6587 45.6764 34.5854H43.0981Z" fill="#161E33"/>
</svg>
