<svg width="130" height="64" viewBox="0 0 130 64" fill="none" xmlns="http://www.w3.org/2000/svg">
<path fill-rule="evenodd" clip-rule="evenodd" d="M31.5784 27.8764C30.1837 27.8764 28.9883 28.3745 27.9922 29.1715V28.0757H24.6052V40.9262H28.0918V32.7576C28.5899 32.0603 29.7853 31.1638 31.2795 31.1638C31.7776 31.1638 32.2757 31.2634 32.6741 31.363V28.0757C32.2757 27.9761 31.8772 27.8764 31.5784 27.8764Z" fill="#161E33"/>
<path fill-rule="evenodd" clip-rule="evenodd" d="M1.59386 36.9395C2.49041 37.7365 3.88503 38.2345 5.08043 38.2345C5.97698 38.2345 6.77391 37.7365 6.77391 37.1388C6.77391 35.1464 0.498081 35.8438 0.498081 31.7595C0.498081 29.2691 2.88887 27.7748 5.37928 27.7748C7.07276 27.7748 8.86585 28.3725 9.76239 29.0698L8.16853 31.5603C7.47122 31.1618 6.67429 30.6637 5.67813 30.6637C4.68196 30.6637 3.98465 31.0622 3.98465 31.7595C3.98465 33.453 10.2605 32.7557 10.2605 37.2384C10.2605 39.7288 7.86969 41.223 5.18005 41.223C3.38695 41.223 1.49424 40.6253 0 39.5296L1.59386 36.9395Z" fill="#161E33"/>
<path fill-rule="evenodd" clip-rule="evenodd" d="M23.111 34.3495C23.111 30.7633 20.6206 27.7748 17.0344 27.7748C13.249 27.7748 10.7586 30.9626 10.7586 34.4491C10.7586 38.5334 13.6474 41.1234 17.4328 41.1234C19.4252 41.1234 21.4175 40.3265 22.7125 38.8322L20.7202 36.8399C20.1225 37.5372 18.9271 38.3342 17.5325 38.3342C15.7394 38.3342 14.2451 37.0392 14.0459 35.2461H22.9117C23.111 35.0468 23.111 34.748 23.111 34.3495ZM14.3447 32.8553C14.544 31.6599 15.7394 30.5641 17.134 30.5641C18.5286 30.5641 19.5248 31.6599 19.724 32.8553H14.3447Z" fill="#161E33"/>
<path fill-rule="evenodd" clip-rule="evenodd" d="M47.8158 28.0758L41.9385 40.9263H39.5477L33.6703 28.0758H37.1569L40.7431 35.9455L44.2296 28.0758H47.8158Z" fill="#161E33"/>
<path fill-rule="evenodd" clip-rule="evenodd" d="M50.7047 21.9992C51.9997 21.9992 52.9959 22.9954 52.9959 24.1908C52.9959 25.4858 51.9997 26.3823 50.7047 26.3823C49.4097 26.3823 48.5131 25.3862 48.5131 24.1908C48.5131 22.8958 49.4097 21.9992 50.7047 21.9992Z" fill="#161E33"/>
<path d="M52.4978 28.0757H49.0112V40.9262H52.4978V28.0757Z" fill="#161E33"/>
<path fill-rule="evenodd" clip-rule="evenodd" d="M66.6433 38.2345C65.149 40.2269 63.2563 41.1234 60.8655 41.1234C56.8809 41.1234 53.992 38.1349 53.992 34.4491C53.992 30.6637 56.9805 27.7748 60.8655 27.7748C63.1567 27.7748 65.0494 28.8706 66.2448 30.3649L63.9536 32.4568C63.2563 31.5603 62.2602 30.9626 61.0648 30.9626C59.0724 30.9626 57.5782 32.5564 57.5782 34.4491C57.5782 36.4415 58.9728 37.9357 61.0648 37.9357C62.4594 37.9357 63.5552 37.1388 64.1529 36.2422L66.6433 38.2345Z" fill="#161E33"/>
<path fill-rule="evenodd" clip-rule="evenodd" d="M79.0953 38.8322C77.8003 40.3265 75.808 41.1234 73.8157 41.1234C70.0302 41.1234 67.1414 38.5334 67.1414 34.4491C67.1414 30.8629 69.5322 27.7748 73.4172 27.7748C76.9038 27.7748 79.4938 30.7633 79.4938 34.3495C79.4938 34.748 79.4938 35.0468 79.3942 35.3457H70.4287C70.6279 37.1388 72.1222 38.4338 73.9153 38.4338C75.3099 38.4338 76.5053 37.6368 77.103 36.9395L79.0953 38.8322ZM75.9076 32.8553C75.808 31.7595 74.8118 30.5641 73.3176 30.5641C71.9229 30.5641 70.7276 31.6599 70.5283 32.8553H75.9076Z" fill="#161E33"/>
<path fill-rule="evenodd" clip-rule="evenodd" d="M80.7888 40.9242V28.0737H84.0761V29.1695C85.0723 28.3725 86.2677 27.8745 87.6623 27.8745C89.4554 27.8745 91.0493 28.6714 92.1451 29.9664C92.942 30.9626 93.5397 32.2576 93.5397 34.4491V41.0238H90.0531V34.1503C90.0531 32.8553 89.7543 32.158 89.2562 31.7595C88.7581 31.2614 88.1604 30.9626 87.2639 30.9626C85.8692 30.9626 84.6738 31.8591 84.0761 32.5564V40.9242H80.7888Z" fill="#161E33"/>
<path fill-rule="evenodd" clip-rule="evenodd" d="M102.406 27.7768C98.2216 27.7768 94.9343 31.0642 94.9343 35.2481C94.9343 37.4396 95.8308 39.4319 97.2255 40.8266C97.7236 41.3246 98.6201 41.3246 99.2178 40.9262C100.015 40.2289 101.21 39.8304 102.406 39.8304C103.701 39.8304 104.697 40.2289 105.593 40.9262C106.191 41.4243 106.988 41.3246 107.586 40.7269C108.98 39.3323 109.877 37.4396 109.877 35.2481C109.777 31.1638 106.49 27.7768 102.406 27.7768ZM102.306 39.1331C100.015 39.1331 98.5205 37.4396 98.5205 35.3477C98.5205 33.2557 100.015 31.5622 102.306 31.5622C104.597 31.5622 106.091 33.2557 106.091 35.3477C106.091 37.4396 104.597 39.1331 102.306 39.1331Z" fill="#161E33"/>
<path fill-rule="evenodd" clip-rule="evenodd" d="M108.98 28.0758H112.367L115.156 35.4474L117.946 28.0758H120.835L123.524 35.4474L126.313 28.0758H129.8L124.72 40.9263H122.13L119.34 33.6543L116.651 40.9263H114.061L108.98 28.0758Z" fill="#161E33"/>
</svg>
