<svg width="120" height="64" viewBox="0 0 120 64" fill="none" xmlns="http://www.w3.org/2000/svg">
<g clip-path="url(#clip0_7268_33191)">
<path fill-rule="evenodd" clip-rule="evenodd" d="M24.0571 19.001C26.8135 18.9498 28.7182 20.9755 28.7182 23.253C28.7181 24.8218 28.2166 26.0875 26.4135 27.0996C21.853 29.6814 16.7411 36.3638 16.1401 44.919C16.0898 45.172 15.8386 45.172 15.7387 44.919C11.8301 32.6179 18.8459 19.1023 24.0571 19.001ZM56.1205 26.2393C59.382 26.2393 61.4398 28.8136 61.4399 32.5274C61.4399 36.3396 59.1315 38.8153 55.9203 38.8155C53.1608 38.8155 52.1567 36.6866 52.1567 36.6866H52.1069C52.1069 36.6866 52.1567 37.1326 52.1567 37.7266V45.1045H49.8989V26.4864H52.0561V27.8731C52.056 28.2194 52.0063 28.5166 52.0063 28.5166H52.0561C52.0561 28.5166 53.1102 26.2394 56.1205 26.2393ZM2.76116 32.8203C6.21954 32.8203 10.9293 38.0348 11.8813 41.1729C11.9315 41.3756 11.7316 41.4766 11.5815 41.376C9.37628 39.5534 5.81806 38.2881 2.86174 38.2881C1.55886 38.288 0.105712 37.4272 0.0052979 35.7061C-0.0180821 35.3322 0.0360887 34.9574 0.164478 34.6055C0.292984 34.2534 0.493511 33.9312 0.752368 33.6602C1.01119 33.3893 1.32365 33.1748 1.66936 33.0303C2.01496 32.8859 2.38665 32.8142 2.76116 32.8203ZM29.3696 32.7696C29.7442 32.7633 30.1166 32.8351 30.4623 32.9795C30.808 33.124 31.1205 33.3385 31.3793 33.6094C31.6382 33.8804 31.8377 34.2027 31.9662 34.5547C32.0947 34.9067 32.1488 35.2813 32.1254 35.6553C32.025 37.3764 30.5719 38.2373 29.269 38.2373C26.3629 38.2373 22.8051 39.6041 20.5502 41.3252C20.3996 41.4262 20.1992 41.3249 20.2494 41.1221C21.2015 37.984 25.9122 32.7696 29.3696 32.7696ZM42.8237 26.1885C44.5297 26.1885 45.4331 26.7336 46.5873 27.4766L45.6332 28.9121C44.4797 28.4167 43.8772 28.0703 42.7231 28.0703C41.5695 28.0705 40.6664 28.5658 40.6664 29.6055C40.6664 31.9824 46.9389 31.1408 46.9389 35.2012C46.9387 37.2309 45.1822 38.7167 42.5737 38.7168C40.5664 38.7168 39.0609 37.875 38.1576 37.1817L39.1108 35.7452C39.8634 36.2407 41.2181 36.835 42.6235 36.835C43.8275 36.835 44.6811 36.2908 44.6811 35.251C44.6811 32.9239 38.4087 33.6664 38.4086 29.6553C38.4086 27.3774 40.4152 26.1886 42.8237 26.1885ZM95.8129 30.8438H97.5688L100.981 26.4864H103.44L99.5258 31.7354V31.7842L103.891 38.5196L101.282 38.5684L97.6186 32.8741H95.8129V38.5684H93.5043V20H95.8129V30.8438ZM108.608 34.9043C108.608 36.3898 109.863 36.4395 110.365 36.4395V38.5684C108.458 38.5684 106.3 38.2219 106.3 35.251V20H108.608V34.9043ZM75.5405 38.5196H73.2319V26.4873H75.5405V38.5196ZM85.7768 26.1895C88.6366 26.1895 89.9417 27.7245 89.9418 30.794V38.5196H87.5336V31.3389C87.5336 29.6555 87.1811 28.3184 85.2748 28.3184C82.9162 28.3186 81.2104 30.25 81.2104 32.7256V38.5196H78.9018V26.4864H81.1606V28.3184C81.1606 28.6648 81.1108 29.0118 81.1108 29.0118H81.1606C81.6622 27.9724 83.1172 26.1895 85.7768 26.1895ZM70.8735 28.6162H70.8237C68.4654 28.6162 66.3579 31.1905 66.3578 33.5176V38.5186H64.0492V26.4873H66.308V28.6162C66.308 29.1116 66.2572 29.5078 66.2572 29.5078H66.308C66.8598 27.9233 69.0168 26.3381 70.8735 26.3379V28.6162ZM119.998 28.5166H119.949C117.59 28.5166 115.482 31.0918 115.482 33.419V38.42H113.174V26.3877H115.432V28.5166C115.432 29.0121 115.381 29.4082 115.381 29.4082H115.432C115.984 27.8236 118.142 26.2393 119.998 26.2393V28.5166ZM55.6694 28.2198C53.8629 28.2198 52.1568 29.4573 52.1567 32.5274C52.1567 34.6562 53.3607 36.786 55.5688 36.7862C57.4752 36.7862 59.0815 35.2507 59.0815 32.5274C59.0814 29.9031 57.6761 28.2198 55.6694 28.2198ZM5.31682 20.7725C5.76762 20.8227 6.31857 20.8235 7.17034 21.4815C10.8777 24.7716 13.0837 30.5429 12.4321 35.5537C12.3818 35.8068 12.1311 35.8068 12.0307 35.5537C10.9788 31.9599 7.52093 27.8596 4.46428 26.5938C3.01123 26.037 2.20957 24.974 2.30999 23.5059C2.41058 21.9872 3.66307 20.6711 5.31682 20.7725ZM74.3862 21.0899C75.19 21.0899 75.8412 21.7322 75.8412 22.5254C75.8412 23.3187 75.1895 23.9619 74.3862 23.9619C73.5824 23.9618 72.9311 23.3187 72.9311 22.5254C72.9311 21.7322 73.5829 21.09 74.3862 21.0899Z" fill="#161E33"/>
</g>
<defs>
<clipPath id="clip0_7268_33191">
<rect width="120" height="64" fill="white"/>
</clipPath>
</defs>
</svg>
