<svg width="160" height="64" viewBox="0 0 160 64" fill="none" xmlns="http://www.w3.org/2000/svg">
<path d="M38.3918 32.6467H40.2557C40.4007 34.6156 41.9332 35.8798 44.087 35.8798C46.0338 35.8798 47.3385 34.9472 47.3385 33.4135C47.3385 31.8799 46.1787 31.3203 43.445 30.8643C40.4421 30.3669 38.7439 29.2478 38.7439 26.8851C38.7439 24.5224 40.7321 22.7607 43.6521 22.7607C46.7379 22.7607 48.7882 24.5017 48.9538 27.1752H47.09C46.9036 25.4758 45.5367 24.398 43.6521 24.398C41.7675 24.398 40.5457 25.2685 40.5457 26.7814C40.5457 28.2944 41.6847 28.7918 44.4598 29.2478C47.4213 29.7244 49.1402 30.9265 49.1402 33.2477C49.1402 35.7555 47.0485 37.5171 44.0663 37.5171C40.6699 37.5171 38.4954 35.5897 38.3918 32.6467Z" fill="#161E33"/>
<path d="M58.4735 26.8242H60.1717V37.3941H58.7013L58.4735 35.9848C57.8522 36.7724 56.8374 37.5185 55.1599 37.5185C52.9233 37.5185 51.0801 36.2749 51.0801 32.9175V26.8242H52.7783V32.8138C52.7783 34.8656 53.7724 35.9641 55.4498 35.9641C57.3137 35.9641 58.4735 34.5755 58.4735 32.3164V26.8242Z" fill="#161E33"/>
<path d="M72.577 32.108C72.577 35.3412 70.4232 37.5173 67.5031 37.5173C65.7221 37.5173 64.5209 36.7919 63.8789 35.7764V41.538H62.1807V26.8231H63.6511L63.8789 28.5226C64.5831 27.5485 65.7221 26.6987 67.5031 26.6987C70.4232 26.6987 72.577 28.6676 72.577 32.108ZM70.8374 32.108C70.8374 29.8075 69.4291 28.2117 67.3375 28.2117C65.2458 28.2117 63.8582 29.8075 63.8582 32.0666C63.8582 34.3256 65.2665 36.0044 67.3375 36.0044C69.4084 36.0044 70.8374 34.4085 70.8374 32.108Z" fill="#161E33"/>
<path d="M76.0584 32.4811V32.5847C76.1205 34.5951 77.3838 36.0044 79.3927 36.0044C80.8838 36.0044 82.0435 35.2168 82.3956 33.8489H84.1145C83.7003 35.9629 81.9607 37.5173 79.5169 37.5173C76.3483 37.5173 74.2773 35.3412 74.2773 32.108C74.2773 28.8749 76.3069 26.6987 79.2891 26.6987C82.2713 26.6987 84.218 28.5847 84.3009 31.7142C84.3009 31.88 84.2802 32.2324 84.2595 32.4811H76.0584ZM76.1619 31.0303H82.4784C82.3128 29.2065 81.0702 28.1909 79.3098 28.1909C77.7566 28.1909 76.3276 29.3101 76.1619 31.0303Z" fill="#161E33"/>
<path d="M94.5364 26.8242V28.4822H93.1696C90.7051 28.4822 89.9803 30.3682 89.9803 32.047V35.8397H93.066V37.3941H85.9211V35.8397H88.2821V28.3786H85.9211V26.8242H89.8974L89.9596 28.6066C90.4359 27.7776 91.3885 26.8242 93.3974 26.8242H94.5364Z" fill="#161E33"/>
<path d="M104.203 35.839V37.3934H96.1055V35.839H99.2948V24.4401H96.1055V22.8857H100.993V35.839H104.203Z" fill="#161E33"/>
<path d="M114.19 35.8384V37.3928H106.092V35.8384H109.281V28.3773H106.092V26.8229H110.98V35.8384H114.19ZM108.846 23.6727C108.846 22.9473 109.426 22.3877 110.151 22.3877C110.876 22.3877 111.435 22.9473 111.435 23.6727C111.435 24.4395 110.876 24.9784 110.151 24.9784C109.426 24.9784 108.846 24.4395 108.846 23.6727Z" fill="#161E33"/>
<path d="M125.366 31.2997V37.393H123.668V31.4034C123.668 29.3516 122.674 28.2531 120.934 28.2531C119.07 28.2531 117.869 29.6417 117.869 31.9008V37.393H116.171V26.8231H117.641L117.869 28.2531C118.49 27.4448 119.547 26.6987 121.224 26.6987C123.502 26.6987 125.366 27.9422 125.366 31.2997Z" fill="#161E33"/>
<path d="M127.575 37.3934V22.8857H129.273V32.4401L134.906 26.8235H137.06L132.608 31.2588L137.267 37.3934H135.176L131.427 32.4194L129.273 34.5748V37.3934H127.575Z" fill="#161E33"/>
<path d="M139.584 32.4811V32.5847C139.646 34.5951 140.91 36.0044 142.919 36.0044C144.41 36.0044 145.569 35.2168 145.921 33.8489H147.64C147.226 35.9629 145.487 37.5173 143.043 37.5173C139.874 37.5173 137.803 35.3412 137.803 32.108C137.803 28.8749 139.833 26.6987 142.815 26.6987C145.797 26.6987 147.744 28.5847 147.827 31.7142C147.827 31.88 147.806 32.2324 147.785 32.4811H139.584ZM139.688 31.0303H146.004C145.839 29.2065 144.596 28.1909 142.836 28.1909C141.282 28.1909 139.853 29.3101 139.688 31.0303Z" fill="#161E33"/>
<path d="M158.302 22.8857H160V37.3934H158.529L158.302 35.694C157.597 36.668 156.458 37.5178 154.677 37.5178C151.757 37.5178 149.604 35.5489 149.604 32.1085C149.604 28.8753 151.757 26.6992 154.677 26.6992C156.458 26.6992 157.66 27.4246 158.302 28.4401V22.8857ZM158.322 32.1499C158.322 29.8287 156.914 28.2121 154.843 28.2121C152.772 28.2121 151.343 29.808 151.343 32.1085C151.343 34.409 152.751 36.0048 154.843 36.0048C156.935 36.0048 158.322 34.409 158.322 32.1499Z" fill="#161E33"/>
<path d="M14.0977 41.7586L0 27.6586L14.0977 13.5586L28.1953 27.6586L22.7788 33.076L14.0977 24.3934L10.833 27.6586L19.5142 36.3412L14.0977 41.7586ZM2.15191 27.6586L14.0977 39.6063L17.3623 36.3412L8.68114 27.6586L14.0977 22.2412L22.7788 30.9237L26.0434 27.6586L14.0977 15.7109L2.15191 27.6586Z" fill="#161E33"/>
<path d="M14.0976 50.4402L0 36.3402L5.41652 30.9228L14.0977 39.6063L17.3623 36.3412L8.68114 27.6586L14.0977 22.2412L28.1953 36.3402L14.0976 50.4402ZM2.1519 36.3402L14.0976 48.288L26.0434 36.3402L14.0977 24.3934L10.833 27.6586L19.5142 36.3412L14.0977 41.7586L5.41652 33.0751L2.1519 36.3402Z" fill="#161E33"/>
</svg>
