<svg width="126" height="64" viewBox="0 0 126 64" fill="none" xmlns="http://www.w3.org/2000/svg">
<g clip-path="url(#clip0_7947_39340)">
<path fill-rule="evenodd" clip-rule="evenodd" d="M0.00585938 30.9328H5.60114V36.5287H0.00585938V30.9328ZM16.7883 30.9328H22.3836V36.5287H16.7883V30.9328ZM33.5708 30.9328H39.1654V36.5287H33.5708V30.9328Z" fill="#161E33"/>
<path fill-rule="evenodd" clip-rule="evenodd" d="M47.0398 39.9252C47.0398 43.643 47.6793 44.2421 51.6755 44.2825V45.8412H38.0872V44.2825C42.0847 44.2421 42.7229 43.643 42.7229 39.9252V19.503C38.127 19.5832 35.4489 22.6204 35.0493 28.1753L33.5708 27.9367L33.8512 18.1849H55.9122L56.1919 27.9367L54.7127 28.1753C54.3137 22.6211 51.596 19.5832 47.0398 19.503V39.9252Z" fill="#161E33"/>
<path fill-rule="evenodd" clip-rule="evenodd" d="M50.5529 30.9328H56.1482V36.5288H50.5529V30.9328ZM67.1851 20.4552C67.1851 19.567 67.1325 19.2429 66.9284 19.0374C66.774 18.883 66.4162 18.782 66.024 18.782H65.8016V18.2348H69.8476C71.7258 18.2348 73.0405 18.782 74.0486 19.9936C74.9186 21.0354 75.3809 22.367 75.3809 23.9035C75.3809 25.663 74.7994 27.182 73.7238 28.2245C72.7683 29.18 71.5047 29.6234 69.8476 29.6234H65.8016V29.0776H66.024C66.4162 29.0776 66.774 28.9745 66.9284 28.8215C67.1325 28.6153 67.1851 28.2918 67.1851 27.4037V20.4552ZM68.7559 27.4724C68.7559 28.7703 68.9615 29.0102 70.1549 29.0102C72.6146 29.0102 73.5547 27.6099 73.5547 23.9035C73.5547 20.3009 72.5809 18.8325 70.1906 18.8325C69.5579 18.8325 69.1663 18.9518 68.9615 19.1735C68.7903 19.3783 68.7559 19.5832 68.7559 20.3009V27.4724ZM78.094 25.6448C78.1095 28.1382 78.6917 29.1982 80.0395 29.1982C80.9621 29.1982 81.5598 28.7022 82.1562 27.4387L82.6697 27.7116C81.9365 29.1982 81.047 29.864 79.7673 29.864C77.7867 29.864 76.5056 28.2245 76.5056 25.6448C76.5056 23.2552 77.8035 21.5307 79.5947 21.5307C81.4574 21.5307 82.6865 23.1177 82.7721 25.6448H78.094ZM81.1831 25.0478C81.1999 23.2215 80.6366 22.1285 79.681 22.1285C78.7254 22.1285 78.1277 23.2559 78.1095 25.0478H81.1831ZM89.2751 27.8659C88.6962 29.1989 87.9105 29.7953 86.8006 29.7953C86.0492 29.7953 85.4683 29.5055 85.1435 28.9583C84.8187 28.4125 84.7169 27.8828 84.7169 26.6017V23.6656C84.7169 22.5382 84.5626 22.2996 83.8456 22.2996H83.6589V21.77L86.1517 21.6507V27.0458C86.1517 27.781 86.2029 28.1214 86.3572 28.4468C86.4926 28.7885 86.835 29.0109 87.2103 29.0109C87.7892 29.0109 88.3371 28.6349 88.6963 27.9509C89.0197 27.3713 89.1397 26.7567 89.1397 25.783V23.6656C89.1397 22.5382 88.9853 22.2996 88.2697 22.2996H88.0116V21.77L90.5744 21.6507V27.7123C90.5744 28.8384 90.7273 29.0958 91.4457 29.0958H91.6324V29.6248L89.2751 29.7447V27.8659ZM94.7383 27.0802C94.7383 27.781 94.7727 28.0877 94.8596 28.4131C94.9782 28.8229 95.303 29.0789 95.6939 29.0789C96.3428 29.0789 96.7364 28.3794 96.7364 27.1651V26.9272H97.2998V27.2507C97.2998 28.9239 96.6151 29.7946 95.2673 29.7946C94.6184 29.7946 94.0894 29.5891 93.7827 29.2137C93.4074 28.7703 93.305 28.275 93.305 27.0795V22.3502H92.0744V21.8717C93.5604 21.5132 94.055 20.8299 94.2605 18.815H94.7383V21.7686H97.0444V22.3495H94.7383V27.0802ZM102.884 24.2465H102.371C102.081 22.7949 101.432 22.0948 100.373 22.0948C99.6381 22.0948 99.0937 22.6069 99.0937 23.2896C99.0937 23.9379 99.4346 24.2465 100.512 24.5882C101.603 24.946 102.065 25.1509 102.441 25.442C103.054 25.9198 103.345 26.5175 103.345 27.2851C103.345 28.7535 102.287 29.7953 100.782 29.7953C100.1 29.7953 99.7069 29.6578 98.8713 29.1632C98.8154 29.1258 98.7514 29.1025 98.6846 29.0951C98.5633 29.0951 98.4622 29.2137 98.3935 29.4361L98.3423 29.6241H97.8645V26.7392H98.3423C98.5633 27.5405 98.7345 27.9691 99.0067 28.3262C99.4346 28.9071 100.082 29.2481 100.782 29.2481C101.568 29.2481 102.15 28.651 102.15 27.8659C102.15 27.3713 101.893 26.9272 101.45 26.653C101.073 26.4144 101.056 26.4144 99.9475 26.0384C98.5801 25.5943 97.948 24.8611 97.948 23.7498C97.948 22.4863 98.8868 21.5988 100.254 21.5988C100.801 21.5988 101.379 21.7693 101.859 22.0597C101.961 22.111 102.045 22.146 102.115 22.146C102.218 22.146 102.32 22.0085 102.371 21.77H102.884V24.2465ZM110.377 27.6267C109.763 29.1632 108.893 29.864 107.578 29.864C105.614 29.864 104.265 28.1571 104.265 25.6637C104.265 23.2384 105.7 21.5314 107.748 21.5314C109.166 21.5314 110.275 22.5045 110.275 23.735C110.275 24.3658 109.864 24.8105 109.302 24.8105C108.808 24.8105 108.432 24.4163 108.432 23.8873C108.432 23.4102 108.773 23.0167 109.234 23.0167C109.302 23.0167 109.336 23.0167 109.405 23.0672C109.149 22.4695 108.586 22.1278 107.902 22.1278C106.587 22.1278 105.921 23.3058 105.921 25.663C105.921 28.0701 106.554 29.2137 107.851 29.2137C108.705 29.2137 109.354 28.6349 109.831 27.4043L110.377 27.6267ZM116.507 24.5356C116.507 23.5463 116.457 23.1521 116.251 22.8455C116.063 22.5045 115.757 22.3333 115.397 22.3333C114.834 22.3333 114.305 22.7094 113.98 23.3583C113.673 23.9904 113.553 24.6556 113.553 25.8328V27.7116C113.553 28.8566 113.707 29.0951 114.424 29.0951H114.696V29.6241H110.974V29.0951H111.248C111.965 29.0951 112.118 28.8384 112.118 27.7116V20.1304C112.118 19.0037 111.965 18.7651 111.248 18.7651H111.06V18.2348L113.553 18.1155V23.1858C114.099 22.0766 114.765 21.5988 115.756 21.5988C116.473 21.5988 117.054 21.8549 117.396 22.3327C117.822 22.9297 117.942 23.4769 117.942 24.9622V27.7116C117.942 28.8566 118.096 29.0951 118.813 29.0951H119V29.6241H116.507V24.5356ZM121.403 25.6448C121.422 28.1382 122.001 29.1982 123.352 29.1982C124.273 29.1982 124.87 28.7022 125.47 27.4387L125.98 27.7116C125.247 29.1982 124.359 29.864 123.078 29.864C121.097 29.864 119.816 28.2245 119.816 25.6448C119.816 23.2552 121.114 21.5307 122.908 21.5307C124.769 21.5307 125.999 23.1177 126.083 25.6448H121.403ZM124.494 25.0478C124.51 23.2215 123.948 22.1285 122.992 22.1285C122.035 22.1285 121.437 23.2559 121.422 25.0478H124.494ZM70.7021 43.6571C70.7021 44.5615 70.7533 44.8701 70.9589 45.0737C71.1287 45.228 71.471 45.3297 71.8619 45.3297H72.2568V45.8762H67.5793V45.3297H67.9702C68.3637 45.3297 68.7034 45.228 68.8772 45.0737C69.0801 44.8701 69.1326 44.5615 69.1326 43.6571V35.0341H68.7735C67.7667 35.0341 66.9465 35.5799 66.5544 36.5193C66.332 37.0315 66.2295 37.5443 66.144 38.4662L65.6493 38.4318L65.7349 34.4869H74.1531L74.2205 38.4318L73.7097 38.4662C73.3849 35.9728 72.616 35.0341 70.9602 35.0341H70.7035V43.6571H70.7021ZM76.6067 41.899C76.6222 44.391 77.2045 45.4497 78.5522 45.4497C79.4748 45.4497 80.0725 44.955 80.6703 43.6922L81.1824 43.9638C80.4479 45.4497 79.5597 46.1155 78.28 46.1155C76.2994 46.1155 75.017 44.4752 75.017 41.899C75.017 39.5073 76.3149 37.7842 78.1075 37.7842C79.9687 37.7842 81.1979 39.3712 81.2848 41.899H76.6067ZM79.6972 41.3006C79.7127 39.4737 79.1486 38.3799 78.1931 38.3799C77.2375 38.3799 76.6397 39.5073 76.6229 41.3006H79.6972ZM84.6974 43.9631C84.6974 45.1073 84.8517 45.3472 85.5687 45.3472H85.8423V45.8756H82.1191V45.3472H82.3927C83.1084 45.3472 83.2627 45.108 83.2627 43.9631V36.3832C83.2627 35.2565 83.1084 35.0179 82.3927 35.0179H82.206V34.4876L84.6974 34.3676V43.9631ZM88.2313 41.899C88.2481 44.391 88.829 45.4497 90.1768 45.4497C91.0993 45.4497 91.6984 44.955 92.2962 43.6922L92.8083 43.9638C92.0738 45.4497 91.1856 46.1155 89.9045 46.1155C87.924 46.1155 86.6443 44.4752 86.6443 41.899C86.6443 39.5073 87.9422 37.7842 89.7334 37.7842C91.5946 37.7842 92.8251 39.3712 92.9094 41.899H88.2313ZM91.3217 41.3006C91.3386 39.4737 90.7752 38.3799 89.8189 38.3799C88.8634 38.3799 88.2643 39.5073 88.2488 41.3006H91.3217ZM99.465 45.8756L97.0066 41.9145L96.3233 42.5129V43.9631C96.3233 45.1073 96.4763 45.3472 97.1933 45.3472H97.5181V45.8756H93.7443V45.3472H94.0179C94.735 45.3472 94.8879 45.0918 94.8879 43.9631V36.3832C94.8879 35.2565 94.735 35.0179 94.0179 35.0179H93.8299V34.4876L96.3226 34.3676V41.6928L98.6287 39.7129C98.9353 39.44 99.1233 39.1488 99.1233 38.9271C99.1233 38.6711 98.9009 38.5511 98.3874 38.5511H98.132V38.0221H101.496V38.5511H101.325C100.83 38.5511 100.608 38.6711 99.907 39.3025L98.0303 40.9757L100.094 44.2717C100.607 45.0918 100.932 45.3472 101.479 45.3472H101.614V45.8756H99.465ZM109.264 41.9488C109.264 44.4415 107.88 46.1155 105.797 46.1155C103.732 46.1155 102.349 44.4422 102.349 41.967C102.349 39.4224 103.732 37.7842 105.848 37.7842C107.88 37.7835 109.264 39.4737 109.264 41.9488ZM104.396 39.353C104.124 39.9676 104.004 40.7709 104.004 41.9145C104.004 44.3735 104.584 45.569 105.797 45.569C107.009 45.569 107.607 44.3742 107.607 41.9488C107.607 40.7716 107.487 39.9514 107.215 39.353C106.924 38.7047 106.395 38.328 105.781 38.328C105.217 38.3287 104.669 38.7391 104.396 39.353ZM119.386 41.0788C119.386 39.9858 119.318 39.4218 119.165 39.1145C118.977 38.7735 118.671 38.5861 118.294 38.5861C117.816 38.5861 117.388 38.8928 117.099 39.44C116.808 39.9865 116.74 40.4124 116.74 41.8302V43.9638C116.74 45.108 116.894 45.3479 117.61 45.3479H117.851V45.8762H115.305V41.3356C115.305 39.8847 115.271 39.5424 115.067 39.1495C114.88 38.7903 114.572 38.5868 114.179 38.5868C113.699 38.5868 113.274 38.8934 113.001 39.4406C112.727 40.0033 112.66 40.498 112.66 41.8309V43.9644C112.66 45.1269 112.796 45.3486 113.53 45.3486H113.769V45.8769H110.081V45.3486H110.353C111.053 45.3486 111.224 45.075 111.224 43.9644V39.9191C111.224 38.826 111.053 38.5524 110.353 38.5524H110.166V38.0234L112.555 37.9035V39.3038C112.88 38.4332 113.683 37.853 114.555 37.853C115.512 37.853 116.125 38.3301 116.553 39.4076C117.046 38.3483 117.731 37.853 118.671 37.853C119.404 37.853 120.053 38.1933 120.394 38.7573C120.719 39.2533 120.822 39.8173 120.822 40.8929V43.9651C120.822 45.0939 120.976 45.3493 121.693 45.3493H121.878V45.8776H119.387V41.0788H119.386Z" fill="#161E33"/>
</g>
<defs>
<clipPath id="clip0_7947_39340">
<rect width="126" height="64" fill="white"/>
</clipPath>
</defs>
</svg>
