<svg width="120" height="64" viewBox="0 0 120 64" fill="none" xmlns="http://www.w3.org/2000/svg">
<g clip-path="url(#clip0_4574_4896)">
<path fill-rule="evenodd" clip-rule="evenodd" d="M7.98708 22.884L0 38.5617H3.71028L11.7003 22.884H7.98708ZM53.9541 29.1598L53.3142 30.4132H53.276C53.0114 29.9127 52.6023 29.5036 52.1019 29.239C51.5961 29.0066 51.0438 28.8931 50.4874 28.9073C49.887 28.8947 49.2923 29.0255 48.7526 29.2889C48.2598 29.5331 47.8277 29.8841 47.4875 30.3163C47.1389 30.7605 46.877 31.2664 46.7155 31.8074C46.5379 32.3776 46.4488 32.9715 46.4513 33.5687C46.4473 34.1822 46.5213 34.7937 46.6715 35.3886C46.8085 35.9343 47.053 36.4473 47.3906 36.8973C47.7218 37.3314 48.1514 37.6806 48.644 37.9159C49.2143 38.1775 49.8368 38.305 50.4639 38.2887C51.0255 38.2914 51.5808 38.1701 52.0901 37.9335C52.5972 37.707 53.0159 37.3203 53.2819 36.8328H53.3171V38.0715C53.3171 39.5392 52.6302 40.3787 51.2624 40.3787C49.8945 40.3787 49.1665 39.7916 48.7791 39.3102L47.8456 41.1565C47.8456 41.1565 48.9023 42.1076 50.9013 42.1076C54.2153 42.1076 55.7711 40.4961 55.7711 37.9599V29.1539L53.9541 29.1598ZM53.1791 34.7164C53.0926 35.0146 52.9534 35.2949 52.7682 35.5441C52.5848 35.7887 52.3491 35.9893 52.0784 36.1312C51.7799 36.2808 51.4494 36.3553 51.1156 36.3484C50.7643 36.3616 50.4167 36.2729 50.1146 36.0931C49.8514 35.9281 49.6302 35.7039 49.4689 35.4385C49.3004 35.1626 49.184 34.8581 49.1254 34.5403C49.0576 34.2079 49.0231 33.8697 49.0227 33.5305C49.0219 33.1903 49.0623 32.8512 49.143 32.5207C49.2156 32.2146 49.345 31.9248 49.5246 31.6665C49.6957 31.424 49.9195 31.2233 50.1792 31.0795C50.4671 30.9268 50.7899 30.852 51.1156 30.8623C51.4813 30.848 51.8444 30.9289 52.1694 31.0971C52.4396 31.2487 52.6684 31.4644 52.8357 31.7253C53.0115 32.007 53.1348 32.3183 53.1997 32.644C53.2743 33.0051 53.3107 33.3731 53.3083 33.7418C53.3121 34.0712 53.2686 34.3994 53.1791 34.7164ZM19.5313 30.4689V25.5786H16.9512V38.5617H19.5343V33.6127C19.5343 32.6645 19.6899 31.9747 20.0069 31.5579C20.3239 31.1411 20.8317 30.9298 21.5362 30.9298C22.1526 30.9298 22.5841 31.1323 22.8248 31.5168C23.1031 32.0507 23.229 32.6509 23.1888 33.2516V38.5734H25.766V32.7908C25.7703 32.2565 25.7181 31.7232 25.6105 31.1998C25.5239 30.7595 25.3415 30.3436 25.0762 29.9816C24.8015 29.6352 24.4413 29.3661 24.0312 29.2008C23.4887 28.9915 22.91 28.8918 22.3287 28.9073C21.8105 28.9151 21.3012 29.0427 20.8405 29.2801C20.3143 29.5436 19.8781 29.9573 19.5871 30.4689H19.5313ZM26.8499 31.825C27.0614 31.2396 27.3957 30.7061 27.8303 30.2605C28.2648 29.8253 28.7844 29.4845 29.3567 29.2596C30.6519 28.789 32.0713 28.789 33.3664 29.2596C33.9473 29.4786 34.4736 29.8216 34.9085 30.2646C35.3435 30.7077 35.6767 31.2402 35.8849 31.825C36.1235 32.4834 36.2409 33.1796 36.2313 33.8798C36.2401 34.5742 36.1228 35.2644 35.8849 35.9169C35.6697 36.4971 35.3358 37.026 34.9045 37.4697C34.4671 37.8998 33.9427 38.2311 33.3664 38.4413C32.0682 38.8999 30.652 38.8999 29.3538 38.4413C28.7803 38.2228 28.26 37.8845 27.8274 37.4492C27.3942 37.007 27.06 36.4776 26.847 35.8964C26.6078 35.2443 26.4903 34.5538 26.5006 33.8592C26.493 33.1656 26.6114 32.4764 26.8499 31.825ZM29.1982 34.9688C29.2631 35.3106 29.3894 35.6378 29.571 35.9345C29.743 36.2166 29.9832 36.4508 30.2696 36.6155C30.6043 36.7966 30.9813 36.8848 31.3616 36.8709C31.7436 36.8836 32.1222 36.7955 32.4594 36.6155C32.7504 36.4529 32.995 36.2185 33.1697 35.9345C33.3502 35.6373 33.4765 35.3103 33.5425 34.9688C33.616 34.6075 33.6524 34.2397 33.6511 33.871C33.6519 33.4984 33.6156 33.1267 33.5425 32.7614C33.4779 32.4196 33.3515 32.0923 33.1697 31.7957C32.9914 31.5105 32.7467 31.2728 32.4564 31.103C32.1203 30.9196 31.7413 30.8294 31.3586 30.8417C31.0029 30.8228 30.6488 30.9003 30.3336 31.0662C30.0183 31.2321 29.7539 31.4801 29.5681 31.784C29.385 32.08 29.2586 32.4075 29.1953 32.7497C29.1213 33.1149 29.0839 33.4866 29.0837 33.8592C29.0827 34.2319 29.12 34.6038 29.1953 34.9688H29.1982ZM43.2762 37.2672V38.5617L45.7301 38.5528V29.1597H43.15V34.1117C43.15 35.0598 42.9915 35.7496 42.6774 36.1664C42.3623 36.5852 41.8535 36.7946 41.151 36.7946C40.5307 36.7848 40.1001 36.5891 39.8594 36.2075C39.5812 35.6726 39.4553 35.0714 39.4955 34.4698V29.1597H36.9123V34.9482C36.9081 35.4826 36.9603 36.0158 37.0679 36.5392C37.1536 36.9803 37.3371 37.3966 37.6051 37.7574C37.8765 38.1058 38.2378 38.3737 38.6501 38.5323C39.1944 38.7291 39.7711 38.8208 40.3496 38.8024C40.9029 38.8005 41.449 38.6773 41.9494 38.4413C42.4832 38.1881 42.9275 37.7786 43.2234 37.2672H43.2762ZM59.3175 25.5786V30.4689H59.3703C59.6629 29.9576 60.0999 29.544 60.6266 29.2801C61.0873 29.0427 61.5967 28.9151 62.1149 28.9073C62.6962 28.8918 63.2748 28.9915 63.8174 29.2008C64.2293 29.3615 64.5925 29.6265 64.8711 29.9699C65.034 30.1925 65.166 30.4353 65.2642 30.6914L66.0456 29.1597H67.3372V26.3418H69.9203V29.1597H72.2392L71.3586 30.8887H69.9174V35.5353C69.8796 35.8455 69.9568 36.1589 70.1346 36.4159C70.3916 36.5936 70.705 36.6709 71.0152 36.6331C71.162 36.6331 71.2999 36.6273 71.4261 36.6155C71.5544 36.605 71.6818 36.5863 71.8077 36.5597V38.5617C71.5667 38.6002 71.3236 38.6247 71.0798 38.635C70.8127 38.6526 70.5543 38.6526 70.299 38.6526C69.9188 38.6545 69.539 38.6271 69.163 38.5705C68.8311 38.5239 68.5107 38.4164 68.2178 38.2534C67.9432 38.0938 67.7193 37.8597 67.572 37.5783C67.3991 37.2223 67.3174 36.8289 67.3343 36.4335V30.8857H65.3313C65.362 30.9849 65.3877 31.0858 65.4083 31.1881C65.515 31.7115 65.5661 32.2448 65.561 32.779V38.5617H62.9808V33.2516C63.0197 32.651 62.8938 32.0512 62.6168 31.5168C62.3741 31.1254 61.9436 30.9298 61.3252 30.9298C60.6208 30.9298 60.1129 31.1411 59.7989 31.5579C59.4848 31.9747 59.3263 32.6645 59.3263 33.6127V38.5617H56.7432V25.5786H59.3175ZM86.234 30.2693C85.8015 30.712 85.4693 31.2426 85.26 31.825C85.0238 32.4769 84.9065 33.1659 84.9137 33.8592C84.9039 34.5535 85.0203 35.2437 85.2571 35.8964C85.472 36.4774 85.8071 37.0065 86.2404 37.4492C86.6725 37.8852 87.193 38.2235 87.7668 38.4413C89.065 38.8999 90.4812 38.8999 91.7794 38.4413C92.3541 38.2314 92.8768 37.9 93.3117 37.4697C93.7451 37.0271 94.0801 36.4979 94.295 35.9169C94.5329 35.2644 94.6502 34.5742 94.6414 33.8798C94.651 33.1796 94.5336 32.4834 94.295 31.825C94.0855 31.2408 93.7519 30.709 93.3171 30.2661C92.8824 29.8232 92.3568 29.4798 91.7765 29.2596C90.4814 28.789 89.062 28.789 87.7668 29.2596C87.1893 29.4822 86.6666 29.8266 86.234 30.2693ZM87.9811 35.9345C87.8006 35.6373 87.6744 35.3103 87.6083 34.9688H87.6054C87.5326 34.6034 87.4962 34.2318 87.4968 33.8592C87.4974 33.4868 87.5338 33.1152 87.6054 32.7497C87.67 32.4078 87.7963 32.0806 87.9782 31.784C88.1562 31.5057 88.3963 31.2726 88.6797 31.103C89.0133 30.9185 89.3907 30.8282 89.7717 30.8417C90.1543 30.8294 90.5333 30.9196 90.8695 31.103C91.1591 31.2737 91.4037 31.5112 91.5828 31.7957C91.7646 32.0923 91.8909 32.4196 91.9556 32.7614C92.0286 33.1267 92.065 33.4984 92.0642 33.871C92.0654 34.2397 92.029 34.6075 91.9556 34.9688C91.8895 35.3103 91.7633 35.6373 91.5828 35.9345C91.4072 36.2178 91.1628 36.4521 90.8724 36.6155C90.5352 36.7955 90.1566 36.8836 89.7746 36.8709C89.3943 36.8848 89.0173 36.7966 88.6826 36.6155C88.396 36.4501 88.155 36.2161 87.9811 35.9345ZM105.3 25.5786V32.5442L108.552 29.1597H111.608L108.062 32.6146L112.01 38.5617H108.881L106.301 34.3612L105.3 35.324V38.5529H102.717V25.5786H105.3ZM114.362 36.7153C114.18 36.5865 114.028 36.4191 113.918 36.2251C113.797 36.0053 113.737 35.7569 113.745 35.506H111.291C111.285 36.0232 111.413 36.5333 111.663 36.9861C111.913 37.439 112.277 37.819 112.718 38.0891C113.145 38.3553 113.616 38.5422 114.109 38.6409C114.635 38.7497 115.172 38.8038 115.709 38.8024C116.237 38.8032 116.764 38.7521 117.282 38.6497C117.769 38.5579 118.234 38.3757 118.653 38.1126C119.086 37.8445 119.439 37.4655 119.676 37.0149C119.913 36.5643 120.025 36.0585 120 35.55C120.013 35.167 119.925 34.7874 119.745 34.4493C119.577 34.1542 119.347 33.8996 119.07 33.7037C118.778 33.4966 118.456 33.3343 118.116 33.2223C117.756 33.0993 117.389 32.9964 117.018 32.9141C116.654 32.8299 116.296 32.7507 115.944 32.6763C115.627 32.6122 115.314 32.5299 115.007 32.4297C114.765 32.3557 114.54 32.235 114.344 32.0746C114.262 32.0062 114.196 31.9199 114.152 31.8222C114.108 31.7245 114.088 31.618 114.092 31.511C114.082 31.345 114.133 31.1813 114.235 31.0501C114.33 30.934 114.452 30.8432 114.591 30.7859C114.738 30.7229 114.895 30.6823 115.054 30.6656C115.211 30.6486 115.369 30.6398 115.527 30.6392C115.943 30.6291 116.354 30.7197 116.728 30.9034C116.903 31.0058 117.048 31.1535 117.147 31.3312C117.247 31.5088 117.296 31.7098 117.291 31.9131H119.745C119.718 31.4013 119.565 30.904 119.299 30.466C119.06 30.0941 118.74 29.781 118.362 29.5502C117.968 29.311 117.533 29.144 117.08 29.057C116.592 28.9597 116.095 28.9115 115.597 28.9132C115.098 28.9119 114.6 28.9571 114.109 29.0482C113.645 29.127 113.199 29.2849 112.788 29.5149C112.403 29.7361 112.08 30.0525 111.852 30.4337C111.598 30.8883 111.475 31.4045 111.497 31.9249C111.485 32.2899 111.573 32.6513 111.752 32.9698C111.92 33.2543 112.149 33.4972 112.424 33.6802C112.723 33.8734 113.049 34.0226 113.39 34.1234C113.748 34.232 114.115 34.3318 114.491 34.417C115.222 34.5609 115.942 34.7571 116.645 35.004C117.159 35.2066 117.417 35.4972 117.417 35.8846C117.428 36.0931 117.371 36.2994 117.253 36.4717C117.146 36.6225 117.007 36.7469 116.845 36.8357C116.674 36.9296 116.49 36.9969 116.299 37.0353C116.111 37.0776 115.919 37.0993 115.727 37.0999C115.478 37.1011 115.23 37.0705 114.99 37.0089C114.765 36.9488 114.552 36.8495 114.362 36.7153ZM14.4627 36.416C14.7199 36.5935 15.0331 36.6707 15.3433 36.6332C15.4871 36.6332 15.628 36.6273 15.7631 36.6156C15.8913 36.605 16.0188 36.5864 16.1447 36.5598V38.5617C15.9046 38.6002 15.6625 38.6247 15.4196 38.6351C15.1554 38.6527 14.8942 38.6527 14.6388 38.6527C14.2586 38.6546 13.8788 38.6271 13.5028 38.5705C13.168 38.5246 12.8446 38.4171 12.5489 38.2535C12.275 38.093 12.0513 37.8591 11.9031 37.5784C11.7313 37.2221 11.6506 36.8287 11.6683 36.4336V30.8858H9.49609L10.3767 29.1598H11.6712V26.3419H14.2514V29.1598H16.4558L15.5752 30.8887H14.2455V35.5354C14.2077 35.8456 14.285 36.1589 14.4627 36.416ZM100.703 28.9073C98.5338 28.9073 97.703 30.9063 97.703 30.9063H97.6678V29.1598H95.2139V38.5529H97.794V34.6254C97.794 32.3358 98.2402 31.3143 100.192 31.3143C100.544 31.3092 100.891 31.392 101.202 31.555L102.309 29.3828C101.832 29.0699 101.273 28.9045 100.703 28.9073ZM81.0186 35.5236L82.7476 29.1627H85.4011L82.4393 38.5616H79.7828L78.1097 32.2506H78.0745L76.4747 38.5616H73.8035L71.8662 32.4591L73.5482 29.1627L75.2742 35.5441H75.3094L76.8739 29.1627H79.3836L80.9834 35.5236H81.0186Z" fill="#161E33"/>
</g>
<defs>
<clipPath id="clip0_4574_4896">
<rect width="120" height="64" fill="white"/>
</clipPath>
</defs>
</svg>
