<svg width="188" height="64" viewBox="0 0 188 64" fill="none" xmlns="http://www.w3.org/2000/svg">
<path d="M185.999 39.7666C185.868 39.7665 185.737 39.7924 185.616 39.8426C185.494 39.8929 185.384 39.9665 185.291 40.0594C185.198 40.1523 185.124 40.2626 185.074 40.3839C185.023 40.5053 184.997 40.6354 184.997 40.7668C184.997 40.8982 185.023 41.0284 185.074 41.1498C185.124 41.2712 185.197 41.3815 185.29 41.4744C185.383 41.5674 185.494 41.6411 185.615 41.6915C185.737 41.7418 185.867 41.7677 185.998 41.7677C186.264 41.7678 186.519 41.6625 186.706 41.4749C186.894 41.2873 187 41.0329 187 40.7675C187 40.5021 186.895 40.2476 186.707 40.0599C186.519 39.8722 186.265 39.7667 185.999 39.7666ZM185.999 41.6112C185.775 41.6112 185.56 41.5222 185.402 41.364C185.243 41.2057 185.154 40.991 185.154 40.7672C185.154 40.5433 185.243 40.3286 185.402 40.1704C185.56 40.0121 185.775 39.9232 185.999 39.9232C186.223 39.9232 186.438 40.0121 186.596 40.1704C186.755 40.3286 186.844 40.5433 186.844 40.7672C186.844 40.991 186.755 41.2057 186.596 41.364C186.438 41.5222 186.223 41.6112 185.999 41.6112ZM186.324 40.597C186.324 40.4148 186.194 40.3067 186.004 40.3067H185.683V41.2184H185.841V40.8876H186.012L186.177 41.2184H186.347L186.168 40.8534C186.217 40.8315 186.258 40.7953 186.286 40.7495C186.314 40.7037 186.327 40.6505 186.324 40.597ZM185.997 40.7483H185.842V40.4463H185.997C186.103 40.4463 186.167 40.4994 186.167 40.597C186.167 40.6945 186.103 40.7496 185.997 40.7496V40.7483ZM68.0928 27.1959H69.8301V30.6326H67.797C66.2313 30.6326 65.2263 31.4003 65.2263 32.9655V41.6049H61.5097V27.1965H65.2263V29.6174C65.5517 27.9048 66.7336 27.1959 68.0928 27.1959ZM75.5576 23.7701C75.5575 24.0648 75.4994 24.3567 75.3864 24.6289C75.2735 24.9011 75.1079 25.1485 74.8993 25.3568C74.6907 25.5651 74.4431 25.7303 74.1705 25.843C73.898 25.9557 73.606 26.0136 73.311 26.0135C72.7157 26.0133 72.1449 25.7769 71.7239 25.3562C71.303 24.9355 71.0665 24.365 71.0664 23.7701C71.0664 22.5002 72.0412 21.4962 73.312 21.4962C74.5826 21.4962 75.5576 22.5002 75.5576 23.7701ZM71.4585 27.1955H75.1639V41.6042H71.4572L71.4585 27.1955ZM85.373 26.9524C83.7933 26.9447 82.2552 27.4586 80.9977 28.4141V27.1955H77.2916V45.8338H80.9977V40.3863C82.2551 41.342 83.7932 41.8559 85.373 41.8484C89.4894 41.8484 92.8239 38.5138 92.8239 34.4004C92.8239 30.2875 89.4894 26.9524 85.373 26.9524ZM85.0466 38.4465C82.8103 38.4465 80.9977 36.6351 80.9977 34.4007C80.9977 32.1663 82.8103 30.3546 85.0466 30.3546C87.283 30.3546 89.0953 32.166 89.0953 34.4007C89.0953 36.6354 87.2826 38.4462 85.0466 38.4465ZM160.781 37.0534C160.781 39.8316 158.396 41.8484 155.11 41.8484C151.824 41.8484 149.318 39.7838 149.318 36.8278V36.7476H152.945V36.8278C152.945 38.0613 153.827 38.8904 155.14 38.8904C156.453 38.8904 157.244 38.2766 157.244 37.3636C157.244 36.4987 156.659 36.015 155.086 35.5801L153.014 35.0154C150.837 34.4266 149.589 33.0093 149.589 31.1269C149.589 28.7084 151.872 26.953 155.02 26.953C158.167 26.953 160.331 28.7094 160.331 31.3246V31.4066H156.914V31.3246C156.914 30.4368 156.081 29.7415 155.02 29.7415C153.904 29.7415 153.126 30.253 153.126 30.9859C153.126 31.7191 153.68 32.1736 155.103 32.5435L157.266 33.1364C160.171 33.911 160.781 35.6942 160.781 37.0534ZM105.98 28.4144C104.722 27.4583 103.183 26.9444 101.603 26.9524C97.4864 26.9524 94.1499 30.2872 94.1499 34.4004C94.1499 38.5135 97.4874 41.848 101.603 41.848C103.183 41.8556 104.721 41.3416 105.978 40.386V41.6045H109.685V27.1962H105.978L105.98 28.4144ZM105.98 34.4007C105.98 36.6351 104.167 38.4465 101.931 38.4462C99.6948 38.4462 97.8822 36.6344 97.8825 34.4C97.8825 32.1653 99.6952 30.3542 101.931 30.3542C104.167 30.3552 105.98 32.1666 105.98 34.4007ZM123.074 28.4144C121.817 27.4588 120.279 26.9449 118.699 26.9524C114.583 26.9524 111.246 30.2872 111.246 34.4004C111.246 38.5135 114.583 41.848 118.699 41.848C120.279 41.8555 121.817 41.3416 123.074 40.386V41.6045H126.781V22.0672H123.074V28.4144ZM119.026 38.4462C116.79 38.4462 114.977 36.6351 114.977 34.4007C114.977 32.1663 116.789 30.3549 119.025 30.3542C121.261 30.3542 123.074 32.1656 123.074 34.4C123.075 36.6344 121.262 38.4462 119.026 38.4462ZM143.997 27.1975H147.703V41.6045H143.997V27.1975ZM148.096 23.7715C148.096 24.0661 148.038 24.3579 147.925 24.6302C147.812 24.9025 147.647 25.1498 147.438 25.3582C147.229 25.5666 146.982 25.7319 146.709 25.8447C146.437 25.9574 146.145 26.0155 145.85 26.0155C145.555 26.0155 145.263 25.9574 144.991 25.8447C144.718 25.7319 144.471 25.5666 144.262 25.3582C144.054 25.1498 143.888 24.9025 143.775 24.6302C143.663 24.3579 143.605 24.0661 143.605 23.7715C143.605 22.5015 144.58 21.4976 145.85 21.4976C147.121 21.4976 148.094 22.4998 148.094 23.7698L148.096 23.7715ZM169.356 26.954C165.24 26.954 161.903 30.2885 161.903 34.402C161.903 38.5155 165.24 41.8497 169.356 41.8497C173.472 41.8497 176.806 38.5152 176.806 34.4017C176.806 30.2889 173.469 26.9527 169.354 26.9527L169.356 26.954ZM169.356 38.4478C167.12 38.4478 165.307 36.6364 165.307 34.402C165.307 32.1676 167.12 30.3559 169.356 30.3559C171.592 30.3559 173.405 32.1673 173.405 34.402C173.404 36.6361 171.591 38.4472 169.355 38.4462H169.354L169.356 38.4478ZM63.3283 25.3725H58.0643V41.6045H54.3702V25.3725H49.1058V22.0672H63.327L63.3283 25.3725ZM138.55 27.1959H142.444L137.468 41.6045H133.009L128.061 27.1962H131.955L135.253 37.6589L138.55 27.1959ZM185.106 27.1959H186.843V30.6326H184.811C183.244 30.6326 182.24 31.4003 182.24 32.9655V41.6049H178.523V27.1965H182.24V29.6174C182.565 27.9048 183.747 27.1959 185.106 27.1959ZM15.7763 34.2093C15.7763 36.3445 14.044 38.0756 11.9076 38.0756C9.77125 38.0756 8.03891 36.3445 8.03891 34.2093C8.03891 32.0744 9.77125 30.3429 11.9076 30.3429C14.044 30.3429 15.7763 32.0744 15.7763 34.2093ZM33.7132 30.3429C31.5769 30.3429 29.8445 32.0744 29.8445 34.2093C29.8445 36.3445 31.5769 38.0756 33.7132 38.0756C35.8496 38.0756 37.582 36.3445 37.582 34.2093C37.5813 32.0754 35.8506 30.3453 33.7152 30.3443L33.7132 30.3429ZM44.6209 34.2093C44.6209 40.2261 39.7356 45.1043 33.7132 45.1043C30.9661 45.109 28.3194 44.0729 26.3065 42.2047L22.8152 46L19.3227 42.2004C17.3098 44.0705 14.6621 45.1082 11.9136 45.1039C5.89557 45.1039 1.01195 40.2261 1.01195 34.2089C1.00982 32.6932 1.32506 31.1939 1.93742 29.8072C2.54978 28.4205 3.4457 27.1772 4.5676 26.1571L1 22.2782H8.92666C17.3138 16.5739 28.3373 16.5739 36.7244 22.2782H44.6305L41.0632 26.1571C42.1855 27.177 43.0819 28.4203 43.6946 29.8071C44.3073 31.1938 44.6228 32.6934 44.6209 34.2093ZM19.2882 34.2093C19.2882 30.1376 15.9848 26.8359 11.9103 26.8359C7.83573 26.8359 4.5324 30.1376 4.5324 34.2093C4.5324 38.281 7.83573 41.5826 11.9103 41.5826C15.9848 41.5826 19.2878 38.2823 19.2882 34.2106V34.2093ZM31.0019 23.2015C28.4074 22.1213 25.6246 21.5652 22.8139 21.5652C20.0033 21.5652 17.2205 22.1213 14.626 23.2015C19.2838 24.983 22.8152 29.1446 22.8152 33.9969C22.8152 29.145 26.3457 24.983 31.0019 23.2015ZM41.0931 34.2089C41.0931 30.1369 37.7898 26.8356 33.7152 26.8356C29.6407 26.8356 26.3374 30.1366 26.3374 34.2089C26.3374 38.2806 29.6407 41.5823 33.7152 41.5823C37.7898 41.5823 41.0931 38.2806 41.0931 34.2089Z" fill="#002B11"/>
</svg>
