<svg width="58" height="64" viewBox="0 0 58 64" fill="none" xmlns="http://www.w3.org/2000/svg">
<path d="M15.6488 32.5796C16.5761 32.5798 17.4825 32.3023 18.2536 31.7822C19.0246 31.2622 19.6256 30.523 19.9805 29.6582C20.3354 28.7933 20.4282 27.8416 20.2474 26.9234C20.0665 26.0052 19.62 25.1618 18.9644 24.4998C18.3087 23.8379 17.4733 23.3871 16.5639 23.2045C15.6545 23.0219 14.7118 23.1157 13.8552 23.474C12.9985 23.8323 12.2664 24.439 11.7513 25.2175C11.2363 25.9959 10.9614 26.9111 10.9615 27.8473C10.9617 29.1023 11.4556 30.3059 12.3346 31.1934C13.2136 32.0808 14.4057 32.5794 15.6488 32.5796Z" fill="#161E33"/>
<path d="M42.0766 32.5803C44.6657 32.5803 46.7646 30.4613 46.7646 27.8473C46.7646 25.2333 44.6657 23.1143 42.0766 23.1143C39.4875 23.1143 37.3887 25.2333 37.3887 27.8473C37.3887 30.4613 39.4875 32.5803 42.0766 32.5803Z" fill="#161E33"/>
<path d="M2.43556 27.8473C2.43556 35.2159 8.35121 41.1878 15.649 41.1878C18.9803 41.1924 22.1894 39.9216 24.6294 37.6317L28.8651 42.2852L33.1008 37.6344C35.5405 39.9225 38.7486 41.192 42.0785 41.1871C49.377 41.1871 55.2978 35.2139 55.2978 27.8466C55.2997 25.9904 54.917 24.1544 54.1743 22.4564C53.4316 20.7584 52.3453 19.236 50.9852 17.9871L55.3089 13.2376H45.7238C40.7565 9.82497 34.8871 8 28.8787 8C22.8704 8 17.001 9.82497 12.0337 13.2376H2.42188L6.74555 17.9871C5.38582 19.2363 4.29994 20.7589 3.55768 22.457C2.81542 24.1551 2.4332 25.9912 2.43556 27.8473ZM51.0191 27.8473C51.0191 29.6329 50.4946 31.3785 49.512 32.8632C48.5294 34.348 47.1328 35.5052 45.4987 36.1885C43.8647 36.8719 42.0666 37.0507 40.3319 36.7023C38.5973 36.3539 37.0039 35.4941 35.7532 34.2314C34.5026 32.9687 33.6509 31.36 33.3058 29.6086C32.9608 27.8573 33.1379 26.0419 33.8147 24.3922C34.4916 22.7424 35.6377 21.3324 37.1083 20.3403C38.5789 19.3482 40.3079 18.8187 42.0766 18.8187C44.4483 18.8187 46.7228 19.7699 48.3999 21.4631C50.0769 23.1563 51.0191 25.4527 51.0191 27.8473ZM28.8631 12.3646C32.2714 12.3603 35.6463 13.0416 38.7909 14.3686C33.147 16.5489 28.8677 21.6464 28.8677 27.5867C28.8677 21.6458 24.587 16.5476 18.9424 14.3679C22.0848 13.0419 25.4573 12.3609 28.8631 12.3646ZM15.649 18.8187C17.4177 18.8187 19.1466 19.3482 20.6172 20.3403C22.0878 21.3324 23.234 22.7424 23.9108 24.3922C24.5877 26.0419 24.7648 27.8573 24.4197 29.6086C24.0747 31.36 23.223 32.9687 21.9723 34.2314C20.7217 35.4941 19.1283 36.3539 17.3936 36.7023C15.6589 37.0507 13.8609 36.8719 12.2268 36.1885C10.5928 35.5052 9.19617 34.348 8.21355 32.8632C7.23093 31.3785 6.70645 29.6329 6.70645 27.8473C6.70645 25.4527 7.64861 23.1563 9.32567 21.4631C11.0027 19.7699 13.2773 18.8187 15.649 18.8187Z" fill="#161E33"/>
<path d="M54.8485 53.3546C54.7416 53.3546 54.6372 53.3865 54.5484 53.4465C54.4595 53.5064 54.3903 53.5916 54.3494 53.6912C54.3085 53.7909 54.2978 53.9006 54.3186 54.0064C54.3395 54.1122 54.3909 54.2094 54.4665 54.2856C54.542 54.3619 54.6383 54.4138 54.7431 54.4349C54.8479 54.4559 54.9565 54.4451 55.0552 54.4039C55.1539 54.3626 55.2383 54.2927 55.2977 54.203C55.357 54.1133 55.3887 54.0078 55.3887 53.9C55.3885 53.7554 55.3316 53.6167 55.2303 53.5145C55.129 53.4122 54.9917 53.3547 54.8485 53.3546ZM54.8485 54.3598C54.7583 54.3598 54.6701 54.3328 54.5951 54.2822C54.52 54.2316 54.4616 54.1597 54.427 54.0755C54.3925 53.9914 54.3835 53.8988 54.4011 53.8095C54.4187 53.7201 54.4621 53.6381 54.5259 53.5737C54.5897 53.5092 54.671 53.4654 54.7595 53.4476C54.848 53.4298 54.9397 53.439 55.023 53.4738C55.1064 53.5087 55.1776 53.5677 55.2278 53.6434C55.2779 53.7192 55.3046 53.8082 55.3046 53.8993C55.3046 54.0214 55.2566 54.1386 55.171 54.225C55.0855 54.3113 54.9695 54.3598 54.8485 54.3598Z" fill="#161E33"/>
<path d="M55.0238 53.8072C55.0243 53.7849 55.0201 53.7628 55.0114 53.7423C55.0028 53.7219 54.9898 53.7035 54.9735 53.6885C54.9572 53.6736 54.9379 53.6623 54.9169 53.6555C54.8959 53.6488 54.8737 53.6466 54.8518 53.6493H54.6791V54.1453H54.7638V53.9651H54.8557L54.945 54.1453H55.0368L54.9384 53.948C54.9653 53.9362 54.9879 53.9164 55.0032 53.8912C55.0185 53.866 55.0257 53.8367 55.0238 53.8072ZM54.8479 53.8894H54.7638V53.7249H54.8479C54.9045 53.7249 54.9391 53.7539 54.9391 53.8072C54.9391 53.8605 54.9045 53.8894 54.8479 53.8894Z" fill="#161E33"/>
<path d="M8.61124 49.7097V48.7702H7.18609V54.3625H8.6132V51.0084C8.6132 50.4012 8.99897 50.1031 9.60044 50.1031H10.3824V48.7702H9.71187C9.1899 48.7702 8.73571 49.0452 8.61124 49.7097Z" fill="#161E33"/>
<path d="M11.7155 46.5603C11.5438 46.5591 11.3757 46.6093 11.2323 46.7047C11.0889 46.8 10.9767 46.9361 10.91 47.0958C10.8432 47.2554 10.8248 47.4315 10.8572 47.6017C10.8896 47.772 10.9712 47.9287 11.0917 48.052C11.2123 48.1754 11.3664 48.2599 11.5345 48.2949C11.7027 48.3299 11.8773 48.3137 12.0364 48.2485C12.1954 48.1832 12.3317 48.0718 12.4281 47.9284C12.5244 47.7849 12.5764 47.6158 12.5776 47.4425C12.5799 47.327 12.5592 47.2123 12.5168 47.105C12.4745 46.9977 12.4112 46.9 12.3309 46.8178C12.2505 46.7356 12.1547 46.6704 12.049 46.6262C11.9433 46.582 11.8299 46.5595 11.7155 46.5603Z" fill="#161E33"/>
<path d="M12.4269 48.7702H11.0037V54.3592H12.4269V48.7702Z" fill="#161E33"/>
<path d="M16.3461 48.6761C15.7395 48.673 15.1489 48.8724 14.6662 49.2432V48.7702H13.2462V56H14.6694V53.8868C15.1513 54.2572 15.7405 54.4569 16.3461 54.4552C17.105 54.4552 17.8328 54.1509 18.3694 53.6091C18.906 53.0673 19.2075 52.3325 19.2075 51.5663C19.2075 50.8001 18.906 50.0653 18.3694 49.5236C17.8328 48.9818 17.105 48.6774 16.3461 48.6774V48.6761ZM16.2204 53.1341C15.9128 53.1341 15.6122 53.0421 15.3565 52.8695C15.1008 52.697 14.9015 52.4518 14.7838 52.1649C14.6662 51.8781 14.6354 51.5624 14.6955 51.2579C14.7555 50.9533 14.9036 50.6736 15.1212 50.4541C15.3387 50.2346 15.6158 50.0852 15.9174 50.0247C16.2191 49.9642 16.5317 49.9953 16.8158 50.1143C17.0999 50.2332 17.3427 50.4345 17.5135 50.6927C17.6842 50.9509 17.7753 51.2545 17.7752 51.565C17.7752 51.7711 17.735 51.9752 17.6568 52.1656C17.5787 52.3561 17.4641 52.5291 17.3198 52.6748C17.1754 52.8205 17.004 52.9361 16.8153 53.0149C16.6267 53.0937 16.4245 53.1342 16.2204 53.1341Z" fill="#161E33"/>
<path d="M43.948 51.0748L43.1178 50.8446C42.5718 50.7012 42.3587 50.5314 42.3587 50.24C42.3587 49.9485 42.6578 49.7577 43.0859 49.7577C43.4938 49.7577 43.8131 50.0275 43.8131 50.3715V50.4038H45.1249V50.3715C45.1249 49.357 44.3058 48.6761 43.0859 48.6761C41.8777 48.6761 41.0006 49.357 41.0006 50.2952C41.0006 51.0248 41.4802 51.5749 42.3157 51.8032L43.1113 52.0209C43.7154 52.19 43.9396 52.3775 43.9396 52.7131C43.9396 53.067 43.6137 53.3052 43.1322 53.3052C42.6278 53.3052 42.2896 52.9835 42.2896 52.5052V52.4729H40.897V52.5052C40.897 53.6519 41.8093 54.4526 43.1204 54.4526C44.382 54.4526 45.2976 53.6703 45.2976 52.5927C45.2976 52.0663 45.0636 51.3749 43.948 51.0748Z" fill="#161E33"/>
<path d="M24.2588 49.2433C23.7761 48.8724 23.1855 48.673 22.5789 48.6761C21.82 48.6761 21.0922 48.9805 20.5556 49.5223C20.019 50.064 19.7175 50.7989 19.7175 51.565C19.7175 52.3312 20.019 53.066 20.5556 53.6078C21.0922 54.1496 21.82 54.4539 22.5789 54.4539C23.1854 54.4567 23.776 54.2574 24.2588 53.8868V54.3598H25.682V48.7676H24.2588V49.2433ZM24.2588 51.565C24.2588 51.8755 24.1676 52.1791 23.9968 52.4372C23.8259 52.6954 23.583 52.8966 23.2989 53.0154C23.0147 53.1342 22.7021 53.1652 22.4004 53.1046C22.0988 53.044 21.8218 52.8944 21.6043 52.6748C21.3869 52.4552 21.2389 52.1754 21.179 51.8709C21.1191 51.5663 21.1499 51.2507 21.2677 50.9638C21.3855 50.677 21.5849 50.4319 21.8407 50.2595C22.0964 50.0871 22.3971 49.9951 22.7047 49.9953C22.9088 49.9953 23.111 50.0359 23.2996 50.1148C23.4882 50.1937 23.6595 50.3093 23.8039 50.4551C23.9482 50.6008 24.0627 50.7739 24.1407 50.9644C24.2188 51.1548 24.2589 51.3589 24.2588 51.565Z" fill="#161E33"/>
<path d="M30.8196 49.2432C30.3371 48.8725 29.7467 48.6731 29.1403 48.6761C28.3814 48.6761 27.6536 48.9805 27.117 49.5222C26.5804 50.064 26.2789 50.7988 26.2789 51.565C26.2789 52.3312 26.5804 53.066 27.117 53.6078C27.6536 54.1495 28.3814 54.4539 29.1403 54.4539C29.7466 54.4566 30.3369 54.2572 30.8196 53.8868V54.3598H32.2428V46.7807H30.8196V49.2432ZM29.2654 53.1341C28.9579 53.1343 28.6572 53.0423 28.4014 52.8698C28.1456 52.6974 27.9462 52.4522 27.8284 52.1654C27.7107 51.8785 27.6798 51.5628 27.7398 51.2583C27.7998 50.9537 27.9479 50.6739 28.1653 50.4543C28.3828 50.2348 28.6599 50.0852 28.9616 50.0247C29.2633 49.9641 29.576 49.9953 29.8601 50.1142C30.1442 50.2331 30.3871 50.4344 30.5578 50.6926C30.7286 50.9509 30.8197 51.2545 30.8196 51.565C30.8196 51.9812 30.6559 52.3803 30.3644 52.6745C30.0729 52.9688 29.6776 53.1341 29.2654 53.1341Z" fill="#161E33"/>
<path d="M40.2759 48.7702H38.8527V54.3592H40.2759V48.7702Z" fill="#161E33"/>
<path d="M39.5643 46.5603C39.3926 46.5591 39.2245 46.6093 39.0811 46.7047C38.9377 46.8 38.8255 46.9361 38.7588 47.0958C38.692 47.2554 38.6737 47.4315 38.706 47.6017C38.7384 47.772 38.82 47.9287 38.9405 48.052C39.0611 48.1754 39.2152 48.2599 39.3834 48.2949C39.5515 48.3299 39.7261 48.3137 39.8852 48.2485C40.0442 48.1832 40.1805 48.0718 40.2769 47.9284C40.3732 47.7849 40.4253 47.6158 40.4264 47.4425C40.4287 47.327 40.408 47.2123 40.3656 47.105C40.3233 46.9977 40.26 46.9 40.1797 46.8178C40.0993 46.7356 40.0035 46.6704 39.8978 46.6262C39.7921 46.582 39.6787 46.5595 39.5643 46.5603Z" fill="#161E33"/>
<path d="M48.5889 48.6761C48.023 48.6761 47.4698 48.8456 46.9992 49.163C46.5287 49.4804 46.1619 49.9316 45.9454 50.4595C45.7288 50.9874 45.6721 51.5682 45.7825 52.1286C45.8929 52.689 46.1654 53.2038 46.5656 53.6078C46.9658 54.0118 47.4756 54.2869 48.0307 54.3984C48.5858 54.5099 49.1611 54.4527 49.6839 54.234C50.2068 54.0154 50.6537 53.6451 50.9681 53.17C51.2825 52.6949 51.4503 52.1364 51.4503 51.565C51.4503 50.7988 51.1488 50.064 50.6122 49.5223C50.0756 48.9805 49.3478 48.6761 48.5889 48.6761ZM48.5889 53.1341C48.2813 53.1343 47.9807 53.0423 47.7249 52.8699C47.4691 52.6974 47.2697 52.4523 47.1519 52.1654C47.0342 51.8785 47.0033 51.5628 47.0633 51.2583C47.1233 50.9537 47.2714 50.6739 47.4888 50.4544C47.7063 50.2348 47.9834 50.0853 48.2851 50.0247C48.5868 49.9642 48.8994 49.9953 49.1836 50.1142C49.4677 50.2331 49.7105 50.4344 49.8813 50.6926C50.0521 50.9509 50.1432 51.2545 50.1431 51.565C50.1431 51.9812 49.9794 52.3803 49.6879 52.6746C49.3964 52.9688 49.0011 53.1341 48.5889 53.1341Z" fill="#161E33"/>
<path d="M7.88203 46.7807H2.42188V48.0629H4.44328V54.3598H5.86127V48.0629H7.88203V46.7807Z" fill="#161E33"/>
<path d="M35.496 52.8289L34.2305 48.7702H32.735L34.6339 54.3598H36.3471L38.2571 48.7702H36.7622L35.496 52.8289Z" fill="#161E33"/>
<path d="M55.3037 50.1031V48.7702H54.6371C54.1158 48.7702 53.6596 49.0452 53.5365 49.7097V48.7702H52.11V54.3625H53.5365V51.0084C53.5365 50.4012 53.9222 50.1031 54.5237 50.1031H55.3037Z" fill="#161E33"/>
</svg>
