<svg width="168" height="64" viewBox="0 0 168 64" fill="none" xmlns="http://www.w3.org/2000/svg">
<path d="M24.2997 26.6904H10.6814C10.356 26.6904 10.0922 26.9545 10.0922 27.2803V28.11C10.0922 28.4357 10.356 28.6998 10.6814 28.6998H24.2997C24.6251 28.6998 24.889 28.4357 24.889 28.11V27.2803C24.889 26.9545 24.6251 26.6904 24.2997 26.6904Z" fill="#161E33"/>
<path d="M7.52608 26.6904H0.589198C0.263793 26.6904 0 26.9545 0 27.2803V28.11C0 28.4357 0.263793 28.6998 0.589198 28.6998H7.52608C7.85149 28.6998 8.11528 28.4357 8.11528 28.11V27.2803C8.11528 26.9545 7.85149 26.6904 7.52608 26.6904Z" fill="#161E33"/>
<path d="M37.2488 26.6904H29.1612C28.8358 26.6904 28.5719 26.9545 28.5719 27.2802V28.1099C28.5719 28.4357 28.8358 28.6998 29.1612 28.6998H37.2488C37.5742 28.6998 37.8379 28.4357 37.8379 28.1099V27.2802C37.8379 26.9545 37.5742 26.6904 37.2488 26.6904Z" fill="#161E33"/>
<path d="M37.248 23.8096H30.4883C30.163 23.8096 29.8991 24.0737 29.8991 24.3996V25.2291C29.8991 25.555 30.163 25.8191 30.4883 25.8191H37.248C37.5734 25.8191 37.8372 25.555 37.8372 25.2291V24.3996C37.8372 24.0737 37.5734 23.8096 37.248 23.8096Z" fill="#161E33"/>
<path d="M44.5833 23.8096H39.4669C39.1415 23.8096 38.8778 24.0737 38.8778 24.3996V25.2291C38.8778 25.555 39.1415 25.8191 39.4669 25.8191H44.5833C44.9087 25.8191 45.1725 25.555 45.1725 25.2291V24.3996C45.1725 24.0737 44.9087 23.8096 44.5833 23.8096Z" fill="#161E33"/>
<path d="M42.7742 20.8675H36.7878C36.4624 20.8675 36.1987 21.1316 36.1987 21.4574V22.287C36.1987 22.6128 36.4624 22.877 36.7878 22.877H42.7742C43.0996 22.877 43.3633 22.6128 43.3633 22.287V21.4574C43.3633 21.1316 43.0996 20.8675 42.7742 20.8675Z" fill="#161E33"/>
<path d="M39.9871 17.9867H39.0572C38.7318 17.9867 38.468 18.2508 38.468 18.5767V19.4063C38.468 19.7321 38.7318 19.9962 39.0572 19.9962H39.9871C40.3125 19.9962 40.5763 19.7321 40.5763 19.4063V18.5767C40.5763 18.2508 40.3125 17.9867 39.9871 17.9867Z" fill="#161E33"/>
<path d="M20.1572 41.0611H17.6876C17.3622 41.0611 17.0985 41.3252 17.0985 41.6511V42.5452C17.0985 42.871 17.3622 43.1351 17.6876 43.1351H20.1572C20.4826 43.1351 20.7464 42.871 20.7464 42.5452V41.6511C20.7464 41.3252 20.4826 41.0611 20.1572 41.0611Z" fill="#161E33"/>
<path d="M25.2367 41.0611H24.0238C23.6984 41.0611 23.4347 41.3252 23.4347 41.6511V42.5452C23.4347 42.871 23.6984 43.1351 24.0238 43.1351H25.2367C25.5621 43.1351 25.8259 42.871 25.8259 42.5452V41.6511C25.8259 41.3252 25.5621 41.0611 25.2367 41.0611Z" fill="#161E33"/>
<path d="M32.7851 41.1189H27.5169C27.1915 41.1189 26.9276 41.383 26.9276 41.7088V42.4877C26.9276 42.8135 27.1915 43.0776 27.5169 43.0776H32.7851C33.1105 43.0776 33.3743 42.8135 33.3743 42.4877V41.7088C33.3743 41.383 33.1105 41.1189 32.7851 41.1189Z" fill="#161E33"/>
<path d="M32.2442 38.1804H30.7459C30.4205 38.1804 30.1567 38.4445 30.1567 38.7703V39.6644C30.1567 39.9902 30.4205 40.2544 30.7459 40.2544H32.2442C32.5696 40.2544 32.8334 39.9902 32.8334 39.6644V38.7703C32.8334 38.4445 32.5696 38.1804 32.2442 38.1804Z" fill="#161E33"/>
<path d="M13.5902 41.0611H12.6603C12.3349 41.0611 12.0711 41.3252 12.0711 41.6511V42.5452C12.0711 42.871 12.3349 43.1351 12.6603 43.1351H13.5902C13.9156 43.1351 14.1794 42.871 14.1794 42.5452V41.6511C14.1794 41.3252 13.9156 41.0611 13.5902 41.0611Z" fill="#161E33"/>
<path d="M21.8031 44.5291C21.8031 44.2042 22.0678 43.9391 22.3923 43.9391H23.3221C23.6467 43.9391 23.9113 44.2042 23.9113 44.5291V45.4232C23.9113 45.7481 23.6467 46.0131 23.3221 46.0131H22.3923C22.0678 46.0131 21.8031 45.7481 21.8031 45.4232V44.5291Z" fill="#161E33"/>
<path d="M21.1604 46.8198H20.3319C20.0065 46.8198 19.7428 47.084 19.7428 47.4098V48.304C19.7428 48.6297 20.0065 48.8939 20.3319 48.8939H21.1604C21.4858 48.8939 21.7497 48.6297 21.7497 48.304V47.4098C21.7497 47.084 21.4858 46.8198 21.1604 46.8198Z" fill="#161E33"/>
<path d="M29.7316 15.106H28.2977C27.9723 15.106 27.7086 15.3701 27.7086 15.6959V16.5255C27.7086 16.8513 27.9723 17.1155 28.2977 17.1155H29.7316C30.057 17.1155 30.3208 16.8513 30.3208 16.5255V15.6959C30.3208 15.3701 30.057 15.106 29.7316 15.106Z" fill="#161E33"/>
<path d="M18.9392 23.8096H13.4339C13.1085 23.8096 12.8447 24.0737 12.8447 24.3996V25.2291C12.8447 25.555 13.1085 25.8191 13.4339 25.8191H18.9392C19.2646 25.8191 19.5284 25.555 19.5284 25.2291V24.3996C19.5284 24.0737 19.2646 23.8096 18.9392 23.8096Z" fill="#161E33"/>
<path d="M28.7092 17.9867H25.8276C25.5022 17.9867 25.2384 18.2508 25.2384 18.5766V19.4063C25.2384 19.7321 25.5022 19.9962 25.8276 19.9962H28.7092C29.0346 19.9962 29.2983 19.7321 29.2983 19.4063V18.5766C29.2983 18.2508 29.0346 17.9867 28.7092 17.9867Z" fill="#161E33"/>
<path d="M28.7096 20.8675H23.3355C23.0101 20.8675 22.7463 21.1316 22.7463 21.4574V22.287C22.7463 22.6128 23.0101 22.877 23.3355 22.877H28.7096C29.035 22.877 29.2988 22.6128 29.2988 22.287V21.4574C29.2988 21.1316 29.035 20.8675 28.7096 20.8675Z" fill="#161E33"/>
<path d="M46.3624 26.6904H43.7179C43.3925 26.6904 43.1287 26.9545 43.1287 27.2803V28.11C43.1287 28.4357 43.3925 28.6998 43.7179 28.6998H46.3624C46.6878 28.6998 46.9516 28.4357 46.9516 28.11V27.2803C46.9516 26.9545 46.6878 26.6904 46.3624 26.6904Z" fill="#161E33"/>
<path d="M25.3402 29.5711H7.63205C7.30665 29.5711 7.04285 29.8352 7.04285 30.1611V30.9907C7.04285 31.3164 7.30665 31.5807 7.63205 31.5807H25.3402C25.6656 31.5807 25.9294 31.3164 25.9294 30.9907V30.1611C25.9294 29.8352 25.6656 29.5711 25.3402 29.5711Z" fill="#161E33"/>
<path d="M30.9767 35.3326H24.7763C24.4509 35.3326 24.1871 35.5967 24.1871 35.9225V36.7522C24.1871 37.078 24.4509 37.3421 24.7763 37.3421H30.9767C31.3021 37.3421 31.5659 37.078 31.5659 36.7522V35.9225C31.5659 35.5967 31.3021 35.3326 30.9767 35.3326Z" fill="#161E33"/>
<path d="M33.4968 32.4518H10.6814C10.356 32.4518 10.0922 32.716 10.0922 33.0418V33.8714C10.0922 34.1973 10.356 34.4614 10.6814 34.4614H33.4968C33.8222 34.4614 34.086 34.1973 34.086 33.8714V33.0418C34.086 32.716 33.8222 32.4518 33.4968 32.4518Z" fill="#161E33"/>
<path d="M14.753 35.3326H7.01062C6.68522 35.3326 6.42143 35.5967 6.42143 35.9225V36.7522C6.42143 37.078 6.68522 37.3421 7.01062 37.3421H14.753C15.0784 37.3421 15.3422 37.078 15.3422 36.7522V35.9225C15.3422 35.5967 15.0784 35.3326 14.753 35.3326Z" fill="#161E33"/>
<path d="M16.9002 38.1804H15.1533C14.8279 38.1804 14.5642 38.4445 14.5642 38.7703V39.6645C14.5642 39.9902 14.8279 40.2544 15.1533 40.2544H16.9002C17.2256 40.2544 17.4895 39.9902 17.4895 39.6645V38.7703C17.4895 38.4445 17.2256 38.1804 16.9002 38.1804Z" fill="#161E33"/>
<path d="M27.4508 38.1804H25.4784C25.153 38.1804 24.8892 38.4445 24.8892 38.7703V39.6645C24.8892 39.9902 25.153 40.2544 25.4784 40.2544H27.4508C27.7762 40.2544 28.04 39.9902 28.04 39.6645V38.7703C28.04 38.4445 27.7762 38.1804 27.4508 38.1804Z" fill="#161E33"/>
<path d="M11.5311 38.1804H9.75207C9.42667 38.1804 9.16286 38.4445 9.16286 38.7703V39.6644C9.16286 39.9902 9.42667 40.2544 9.75207 40.2544H11.5311C11.8566 40.2544 12.1203 39.9902 12.1203 39.6644V38.7703C12.1203 38.4445 11.8566 38.1804 11.5311 38.1804Z" fill="#161E33"/>
<path d="M35.6101 29.5711H29.1612C28.8358 29.5711 28.5719 29.8352 28.5719 30.1611V30.9907C28.5719 31.3165 28.8358 31.5807 29.1612 31.5807H35.6101C35.9355 31.5807 36.1993 31.3165 36.1993 30.9907V30.1611C36.1993 29.8352 35.9355 29.5711 35.6101 29.5711Z" fill="#161E33"/>
<path d="M163.222 40.5127C159.528 40.5127 158.491 38.5424 158.512 36.9016C158.517 36.4914 158.78 36.2863 159.194 36.2863H159.933C160.358 36.2863 160.542 36.5121 160.584 36.9385C160.692 37.9548 161.357 38.5793 163.196 38.5793C165.035 38.5793 165.921 37.9063 165.921 36.8717C165.921 35.9591 165.403 35.6249 164.117 35.4037L161.903 35.0235C160.048 34.7055 158.819 33.6592 158.819 31.781C158.819 29.6679 160.386 28.1193 163.286 28.1193C166.186 28.1193 167.85 29.6932 167.824 31.5299C167.82 31.9355 167.549 32.1406 167.138 32.1406H166.39C165.965 32.1406 165.81 31.9148 165.751 31.4999C165.642 30.7348 165.019 30.0389 163.286 30.0389C161.553 30.0389 160.888 30.7671 160.888 31.712C160.888 32.5278 161.36 32.8872 162.538 33.0969L164.752 33.4864C166.669 33.8251 168 34.763 168 36.7748C168 38.653 166.867 40.515 163.219 40.515L163.222 40.5127Z" fill="#161E33"/>
<path d="M148.316 39.5676C148.316 39.9939 148.086 40.2243 147.66 40.2243H146.887C146.461 40.2243 146.231 39.9939 146.231 39.5676V24.4664C146.231 24.0401 146.461 23.8096 146.887 23.8096H147.665C148.091 23.8096 148.321 24.0401 148.321 24.4664V29.8773C149.014 28.7942 150.252 28.1166 151.84 28.1166C154.873 28.1166 157.173 30.5225 157.173 34.3134C157.173 38.1042 154.873 40.5101 151.84 40.5101C150.247 40.5101 149.007 39.8325 148.313 38.7449V39.5652L148.316 39.5676ZM155.065 34.3157C155.065 31.5826 153.502 30.0685 151.642 30.0685C149.782 30.0685 148.199 31.5826 148.199 34.3157C148.199 37.0488 149.782 38.5628 151.642 38.5628C153.502 38.5628 155.065 37.0488 155.065 34.3157Z" fill="#161E33"/>
<path d="M139.094 28.1193C142.27 28.1193 143.711 29.6264 143.704 32.0646L143.695 36.5629C143.695 37.4247 143.725 38.6599 143.837 39.5218C143.893 39.9689 143.704 40.2247 143.253 40.2247H142.555C142.151 40.2247 141.92 40.0703 141.879 39.7568L141.761 38.8696C141.135 39.8998 139.911 40.4298 138.411 40.4298C135.699 40.4298 134.03 38.8281 134.03 36.6481C134.03 34.7401 135.373 33.5648 137.658 33.4011L140.993 33.1661C141.598 33.1246 141.623 33.0693 141.623 32.5047V32.007C141.623 30.6934 140.829 30.0274 139.092 30.0274C137.354 30.0274 136.642 30.6796 136.571 31.5921C136.542 32.0231 136.392 32.2535 135.957 32.2535H135.159C134.744 32.2535 134.482 32.0439 134.477 31.6336C134.461 29.714 135.87 28.1193 139.094 28.1193ZM136.143 36.6712C136.143 37.8212 137.08 38.6461 138.68 38.6461C140.549 38.6461 141.626 37.517 141.626 35.8254V34.7124C141.379 34.7999 141.088 34.8622 140.753 34.8921L137.833 35.1687C136.767 35.2724 136.141 35.6826 136.141 36.6712H136.143Z" fill="#161E33"/>
<path d="M124.01 40.2243C123.583 40.2243 123.353 39.9939 123.353 39.5676V24.4664C123.353 24.0401 123.583 23.8096 124.01 23.8096H124.829C125.255 23.8096 125.485 24.0401 125.485 24.4664V38.2033H132.843C133.268 38.2033 133.499 38.4337 133.499 38.8601V39.5676C133.499 39.9939 133.268 40.2243 132.843 40.2243H124.01Z" fill="#161E33"/>
<path d="M116.168 40.5128C112.746 40.5128 110.456 38.07 110.456 34.24C110.456 30.4099 112.711 28.1193 115.974 28.1193C119.239 28.1193 121.333 30.4998 121.333 33.8805V34.1317C121.333 34.558 121.103 34.7885 120.677 34.7885H112.566C112.746 37.1436 114.096 38.57 116.168 38.57C117.607 38.57 118.483 38.0055 118.838 37.0215C118.971 36.6481 119.165 36.4523 119.561 36.4523H120.313C120.753 36.4523 121.015 36.6988 120.939 37.1344C120.596 39.1347 118.732 40.515 116.171 40.515L116.168 40.5128ZM119.206 33.0187C118.965 31.1198 117.798 29.9559 115.972 29.9559C114.147 29.9559 112.996 31.0944 112.647 33.0187H119.206Z" fill="#161E33"/>
<path d="M103.825 40.2249C103.446 40.2249 103.211 40.0613 103.072 39.7063L99.2108 29.4837C99.0888 29.1658 99.0813 28.9445 99.1939 28.7186C99.3028 28.5044 99.5168 28.4052 99.8875 28.4052H100.46C100.84 28.4052 101.079 28.5689 101.213 28.9284L104.352 37.3835L104.527 37.9273L104.702 37.3835L107.844 28.9284C107.977 28.5689 108.216 28.4052 108.596 28.4052H109.169C109.538 28.4052 109.754 28.502 109.862 28.7186C109.975 28.9445 109.97 29.1658 109.846 29.4837L105.984 39.7063C105.845 40.0613 105.611 40.2249 105.232 40.2249H103.825Z" fill="#161E33"/>
<path d="M95.5945 24.4664C95.5945 24.0401 95.8245 23.8096 96.2506 23.8096H97.0286C97.4538 23.8096 97.6847 24.0401 97.6847 24.4664V39.5676C97.6847 39.9939 97.4538 40.2243 97.0286 40.2243H96.2506C95.8245 40.2243 95.5945 39.9939 95.5945 39.5676V24.4664Z" fill="#161E33"/>
<path d="M88.5457 40.5128C85.1232 40.5128 82.8332 38.07 82.8332 34.24C82.8332 30.4099 85.0864 28.1193 88.35 28.1193C91.6136 28.1193 93.708 30.4998 93.708 33.8805V34.1317C93.708 34.558 93.4779 34.7885 93.0521 34.7885H84.9414C85.121 37.1436 86.4743 38.57 88.5433 38.57C89.9841 38.57 90.8588 38.0055 91.2132 37.0215C91.3466 36.6481 91.54 36.4523 91.9358 36.4523H92.6885C93.1281 36.4523 93.3904 36.6988 93.3121 37.1344C92.9693 39.1347 91.105 40.515 88.5433 40.515L88.5457 40.5128ZM91.5837 33.0187C91.342 31.1198 90.1752 29.9559 88.35 29.9559C86.5249 29.9559 85.3741 31.0944 85.0243 33.0187H91.5837Z" fill="#161E33"/>
<path d="M68.7169 40.2244C68.3325 40.2244 68.0908 40.0492 67.9781 39.6805L64.8227 29.4671C64.719 29.1445 64.726 28.9279 64.8319 28.7089C64.9401 28.4992 65.1495 28.4071 65.5178 28.4071H66.1023C66.4913 28.4071 66.7283 28.5822 66.8411 28.9555L69.4027 37.4359L69.4488 37.6411L69.4948 37.4267L72.1278 28.9532C72.2405 28.5845 72.4822 28.4093 72.8666 28.4093H74.0542C74.4386 28.4093 74.6802 28.5845 74.793 28.9532L77.426 37.4267L77.4766 37.6572L77.5273 37.4313L80.0889 28.9578C80.2016 28.5845 80.4364 28.4093 80.8277 28.4093H81.4008C81.769 28.4093 81.9785 28.5015 82.0866 28.7113C82.1948 28.9325 82.1994 29.1468 82.0958 29.4694L78.9404 39.6828C78.8276 40.0515 78.586 40.2266 78.2016 40.2266H76.8851C76.5008 40.2266 76.2591 40.0515 76.1463 39.6828L73.5179 31.2093L73.4512 30.9419L73.3845 31.2093L70.7606 39.6828C70.6433 40.0515 70.4016 40.2266 70.0173 40.2266H68.71L68.7169 40.2244Z" fill="#161E33"/>
<path d="M55.7853 25.8214C55.3594 25.8214 55.1293 25.591 55.1293 25.1647V24.4664C55.1293 24.0401 55.3594 23.8096 55.7853 23.8096H66.9892C67.4149 23.8096 67.6452 24.0401 67.6452 24.4664V25.1647C67.6452 25.591 67.4149 25.8214 66.9892 25.8214H62.4551V39.5698C62.4551 39.9962 62.225 40.2266 61.7992 40.2266H60.9798C60.5541 40.2266 60.3238 39.9962 60.3238 39.5698V25.8214H55.7853Z" fill="#161E33"/>
</svg>
