<svg width="120" height="51" viewBox="0 0 120 51" fill="none" xmlns="http://www.w3.org/2000/svg">
<path fill-rule="evenodd" clip-rule="evenodd" d="M0 0H41.0625V11.7945H0V0ZM2.56821 9.22634H38.4991V2.56821H2.56821V9.22634Z" fill="#161E33"/>
<path d="M0 31.2841H2.56821V26.3973H7.15257V31.2841H9.72078V19.4896H7.15257V24.1507H2.56821V19.4896H0V31.2841Z" fill="#161E33"/>
<path fill-rule="evenodd" clip-rule="evenodd" d="M11.1705 27.1318C11.1705 29.8296 12.9418 31.4713 15.5484 31.4713C16.7197 31.4713 17.6846 31.2265 18.3663 30.7369V28.7927H18.2703C17.4782 29.2871 16.8397 29.4744 15.9517 29.4744C14.9292 29.4744 13.9115 29.1335 13.6091 27.8326H18.9615V26.887C18.9615 24.3764 17.7182 22.6962 15.2076 22.6962C12.9082 22.6962 11.1705 24.506 11.1705 27.1318ZM16.6669 26.1141H13.6091C13.8347 24.962 14.4924 24.6404 15.2508 24.6404C16.2541 24.6404 16.6093 25.2452 16.6669 26.1141Z" fill="#161E33"/>
<path d="M24.3475 31.2841L25.6677 26.3397L27.0022 31.2841H29.2487L31.8169 22.9794V22.8834H29.46L28.0438 27.847L26.7045 22.8834H24.7028L23.3827 27.847L21.9858 22.8834H19.5328V22.9794L22.101 31.2841H24.3475Z" fill="#161E33"/>
<path d="M33.1179 28.7543C33.1179 30.6601 33.9483 31.4713 35.9885 31.4713C36.3677 31.4713 36.7229 31.3945 36.9294 31.3129V29.2583H36.891C36.7421 29.316 36.4925 29.3736 36.3245 29.3736C35.8349 29.3736 35.6092 29.1671 35.6092 28.5815V19.4896H33.1179V28.7543Z" fill="#161E33"/>
<path fill-rule="evenodd" clip-rule="evenodd" d="M37.6302 27.1318C37.6302 29.8296 39.4016 31.4713 42.0082 31.4713C43.1795 31.4713 44.1443 31.2265 44.8212 30.7369V28.7927H44.7252C43.9283 29.2871 43.2899 29.4744 42.4018 29.4744C41.3841 29.4744 40.3664 29.1335 40.064 27.8326H45.4212V26.887C45.4212 24.3764 44.1779 22.6962 41.6673 22.6962C39.368 22.6962 37.6302 24.506 37.6302 27.1318ZM43.1218 26.1141H40.064C40.2896 24.962 40.9521 24.6404 41.7057 24.6404C42.709 24.6404 43.0642 25.2452 43.1218 26.1141Z" fill="#161E33"/>
<path d="M57.499 22.8882H55.6509V20.5793H53.1595V22.8786H49.972V20.5793H47.4806V22.8786H46.1989V24.8804H47.4806V28.4087C47.4806 30.54 48.2727 31.4665 50.2936 31.4665C51.0089 31.4665 51.4985 31.3369 51.8201 31.2217V29.2583H51.7625C51.4793 29.3544 51.2153 29.3736 51.0089 29.3736C50.2552 29.3736 49.972 29.0327 49.972 28.2983V24.8852H53.1595V28.4135C53.1595 30.5449 53.9515 31.4713 55.9725 31.4713C56.6877 31.4713 57.1774 31.3417 57.499 31.2265V29.2631H57.4414C57.1582 29.3592 56.8942 29.3784 56.6877 29.3784C55.9341 29.3784 55.6509 29.0375 55.6509 28.3031V24.89H57.499V22.8882Z" fill="#161E33"/>
<path fill-rule="evenodd" clip-rule="evenodd" d="M66.1061 27.4534C68.7079 27.4534 70.4264 26.0613 70.4264 23.4931C70.4264 20.8865 68.7079 19.4896 66.1109 19.4896H61.7137V31.2841H64.2771V27.4534H66.1061ZM67.8198 23.4931C67.8198 24.5492 67.1958 25.2836 65.8949 25.2836L64.2723 25.2884V21.6641H65.8949C67.2006 21.6641 67.8198 22.3986 67.8198 23.4931Z" fill="#161E33"/>
<path fill-rule="evenodd" clip-rule="evenodd" d="M73.7483 31.4329C74.6172 31.4329 75.4284 31.1161 75.9757 30.4536V31.2889H78.3903V26.0229C78.3903 23.9107 77.0126 22.701 74.4828 22.701C73.3739 22.701 72.241 23.0226 71.5977 23.3971V25.3988H71.6889C72.3898 25.0004 73.2011 24.7556 74.0507 24.7556C75.39 24.7556 75.8989 25.1492 75.8989 26.0565V26.2053C75.2604 26.0181 74.6364 25.9221 74.0315 25.9221C72.1066 25.9221 70.7673 27.0166 70.7673 28.6583C70.7673 30.4344 72.1066 31.4329 73.7483 31.4329ZM75.8989 27.9286V28.6439C75.6733 29.2631 75.1452 29.6232 74.4444 29.6232C73.7099 29.6232 73.2203 29.3256 73.2203 28.6247C73.2203 27.9478 73.7099 27.6454 74.5212 27.6454C75.03 27.6454 75.5196 27.7222 75.8989 27.9286Z" fill="#161E33"/>
<path d="M84.0499 22.6962C81.5585 22.6962 79.6528 24.3956 79.6528 27.0934C79.6528 29.796 81.5585 31.4713 84.0499 31.4713C84.9332 31.4713 85.7637 31.2793 86.3877 30.8281V28.6967H86.2917C85.7445 29.1143 85.1012 29.3592 84.3668 29.3592C83.1235 29.3592 82.1778 28.5287 82.1778 27.0934C82.1778 25.6581 83.1235 24.8084 84.3668 24.8084C85.1012 24.8084 85.7445 25.058 86.2917 25.4708H86.3877V23.3395C85.7685 22.8834 84.938 22.6962 84.0499 22.6962Z" fill="#161E33"/>
<path d="M90.4488 31.2841V27.4726L92.9402 31.2841H95.7917V31.1881L92.7722 26.7909L95.7917 22.9794V22.8834H92.9594L90.4488 26.2053V19.4896H87.9574V31.2841H90.4488Z" fill="#161E33"/>
<path fill-rule="evenodd" clip-rule="evenodd" d="M99.2239 31.4329C100.093 31.4329 100.904 31.1161 101.451 30.4536L101.447 31.2889H103.861V26.0229C103.861 23.9107 102.483 22.701 99.9536 22.701C98.8447 22.701 97.7118 23.0226 97.0686 23.3971V25.3988H97.1646C97.8654 25.0004 98.6767 24.7556 99.5264 24.7556C100.866 24.7556 101.375 25.1492 101.375 26.0565V26.2053C100.731 26.0181 100.112 25.9221 99.5072 25.9221C97.5822 25.9221 96.2429 27.0166 96.2429 28.6583C96.2429 30.4344 97.5822 31.4329 99.2239 31.4329ZM101.375 27.9286V28.6439C101.149 29.2631 100.621 29.6232 99.92 29.6232C99.1855 29.6232 98.6959 29.3256 98.6959 28.6247C98.6959 27.9478 99.1855 27.6454 99.9968 27.6454C100.506 27.6454 101 27.7222 101.375 27.9286Z" fill="#161E33"/>
<path d="M110.097 22.7922C109.17 22.7922 108.508 23.3203 108.057 24.2467L108.061 22.8882H105.647V31.2841H108.138V26.4549C108.345 25.5861 108.95 25.1348 109.722 25.1348C110.193 25.1348 110.534 25.2068 110.817 25.322H110.908V22.9458C110.774 22.869 110.438 22.7922 110.097 22.7922Z" fill="#161E33"/>
<path fill-rule="evenodd" clip-rule="evenodd" d="M115.094 31.4713C116.227 31.4713 117.057 31.0969 117.585 30.4152V31.2793H120V19.4896H117.509V23.6563C116.981 23.037 116.188 22.6962 115.094 22.6962C112.943 22.6962 111.566 24.6788 111.566 27.0934C111.566 29.508 112.943 31.4713 115.094 31.4713ZM117.509 25.7349V28.4327C117.096 29.0375 116.549 29.3015 115.924 29.3015C114.83 29.3015 114.096 28.5287 114.096 27.0934C114.096 25.6581 114.83 24.866 115.924 24.866C116.549 24.866 117.096 25.13 117.509 25.7349Z" fill="#161E33"/>
<path d="M7.28698 35.134H0V46.9334H7.28218V45.498H1.64173V41.5713H6.75414V40.1744H1.64173V36.5693H7.28698V35.134Z" fill="#161E33"/>
<path d="M16.2109 41.7009C16.2109 39.6848 15.174 38.4559 13.3067 38.4559C12.1354 38.4559 11.3049 39.0607 10.8153 39.8336V38.6239H9.25034V46.9286H10.8153V41.3985C11.0985 40.5153 11.929 39.8912 12.9082 39.8912C14.0987 39.8912 14.646 40.6641 14.646 41.7393V46.9286H16.2109V41.7009Z" fill="#161E33"/>
<path d="M22.5522 38.6239H20.4208V36.4061H18.8559V38.6143H17.4206V39.9536H18.8559V44.5764C18.8559 46.1989 19.6288 47.087 21.5729 47.087C22.005 47.087 22.3266 47.015 22.5522 46.919V45.5797H22.4946C22.3074 45.6565 22.0434 45.6949 21.7985 45.6949C20.9105 45.6949 20.4208 45.3732 20.4208 44.4324V39.9632H22.5522V38.6239Z" fill="#161E33"/>
<path fill-rule="evenodd" clip-rule="evenodd" d="M23.5507 42.8722C23.5507 45.474 25.2116 47.0966 27.6454 47.0966C28.6679 47.0966 29.556 46.8902 30.2376 46.3621V44.9844H30.18C29.4408 45.5317 28.7831 45.7381 27.8566 45.7381C26.3685 45.7381 25.2884 44.9268 25.1204 43.2467H30.8137V42.5314C30.8137 40.0976 29.628 38.4559 27.343 38.4559C25.0964 38.4559 23.5507 40.2656 23.5507 42.8722ZM29.3063 41.965H25.1732C25.4036 40.6833 26.1765 39.7952 27.3622 39.7952C28.6439 39.7952 29.2487 40.7409 29.3063 41.965Z" fill="#161E33"/>
<path d="M36.2861 38.4943C35.3836 38.4943 34.5916 39.0223 34.2315 39.9104L34.2267 38.6239H32.6618V46.9238H34.2267V41.5089C34.4908 40.5681 35.206 40.0016 36.0557 40.0016C36.4349 40.0016 36.8141 40.0592 37.0398 40.1696H37.0974V38.6239C36.9678 38.5519 36.6461 38.4943 36.2861 38.4943Z" fill="#161E33"/>
<path fill-rule="evenodd" clip-rule="evenodd" d="M46.2181 42.7762C46.2181 40.4768 44.898 38.4559 42.4258 38.4559C41.4033 38.4559 40.5344 38.9839 40.1024 39.5648V38.6239H38.5375V50.116H40.1024V46.0021C40.5392 46.5685 41.4081 47.0966 42.4258 47.0966C44.898 47.0966 46.2181 45.0804 46.2181 42.7762ZM44.61 42.7762C44.61 44.4564 43.7027 45.6805 42.157 45.6805C41.3121 45.6805 40.5152 45.1908 40.1024 44.3844V41.1921C40.5152 40.3808 41.3073 39.872 42.157 39.872C43.7027 39.872 44.61 41.1153 44.61 42.7762Z" fill="#161E33"/>
<path d="M51.6857 38.4943C50.7833 38.4943 49.9912 39.0223 49.6312 39.9104V38.6239H48.0662V46.9238H49.6312V41.5089C49.8952 40.5681 50.6105 40.0016 51.4601 40.0016C51.8345 40.0016 52.2138 40.0592 52.4394 40.1696H52.497V38.6239C52.3674 38.5519 52.0458 38.4943 51.6857 38.4943Z" fill="#161E33"/>
<path d="M55.7661 36.2477C55.7661 35.7005 55.3148 35.2684 54.7676 35.2684C54.2395 35.2684 53.7643 35.7005 53.7691 36.2477C53.7691 36.7949 54.2395 37.227 54.7676 37.227C55.3148 37.227 55.7661 36.7949 55.7661 36.2477Z" fill="#161E33"/>
<path d="M55.5548 46.9286H53.9899V38.6239H55.5548V46.9286Z" fill="#161E33"/>
<path d="M63.6531 44.5332C63.6531 42.949 62.333 42.4546 61.1425 42.0802L61.0821 42.0605C59.785 41.6376 59.1984 41.4463 59.2031 40.8081C59.2031 40.2224 59.7504 39.7904 60.7297 39.7904C61.7089 39.7904 62.5058 40.112 63.1827 40.6593H63.2403V39.1471C62.5394 38.6719 61.6705 38.4655 60.6913 38.4655C59.0111 38.4655 57.691 39.4112 57.691 41.0145C57.691 42.5794 58.9919 43.0115 60.1632 43.3907C60.2362 43.4148 60.3072 43.4382 60.3761 43.4609C61.5404 43.8438 62.1266 44.0366 62.1266 44.73C62.1266 45.4452 61.3345 45.7861 60.4464 45.7861C59.4672 45.7861 58.4303 45.5028 57.7294 44.8596H57.6526V46.3477C58.2767 46.8374 59.3712 47.1014 60.4656 47.1014C62.2562 47.1014 63.6531 46.2325 63.6531 44.5332Z" fill="#161E33"/>
<path fill-rule="evenodd" clip-rule="evenodd" d="M65.0116 42.8722C65.0116 45.474 66.6725 47.0966 69.1063 47.0966C70.1288 47.0966 71.0169 46.8902 71.6985 46.3621V44.9844H71.6409C70.9017 45.5317 70.244 45.7381 69.3175 45.7381C67.8246 45.7381 66.7493 44.9268 66.5813 43.2467H72.2746V42.5314C72.2746 40.0976 71.0889 38.4559 68.8039 38.4559C66.5573 38.4559 65.0116 40.2656 65.0116 42.8722ZM70.7673 41.965H66.6341C66.8645 40.6833 67.6374 39.7952 68.8231 39.7952C70.1096 39.7952 70.7097 40.7409 70.7673 41.965Z" fill="#161E33"/>
</svg>
