<svg width="104" height="64" viewBox="0 0 104 64" fill="none" xmlns="http://www.w3.org/2000/svg">
<path d="M11.8896 42.046L11.8877 42.0421L11.8867 42.046L0.390625 22.046H23.3145L11.8896 42.046ZM34.7832 41.835L34.752 42.046H25.8311V22.046H34.7832V41.835ZM46.2891 22.6495C47.8664 22.0464 49.4943 21.9122 51.0322 22.1719C53.1723 22.6122 55.1652 23.8104 56.5723 25.7032L54.0518 27.5811C54.0928 27.6377 54.1313 27.6958 54.1709 27.753C54.1317 27.6963 54.0944 27.6381 54.0537 27.5821L56.5742 25.7051L56.5654 25.6895C57.1566 26.4708 57.6246 27.3775 57.9521 28.3721L55.1064 29.4669L55.0693 29.3809C55.2042 29.6977 55.3212 30.0194 55.4189 30.3448C56.429 34.9361 53.9542 39.7401 49.5068 41.4405C46.43 42.617 43.1595 42.0212 40.751 40.1592C40.175 39.6883 39.6464 39.1397 39.1836 38.5157L41.7041 36.6387C41.271 36.0423 40.9209 35.4083 40.6494 34.7559L40.6533 34.753C39.0099 29.8755 41.5129 24.4753 46.2891 22.6495ZM80.8066 32.6026C80.773 37.7211 76.7054 41.8638 71.6426 42.0372L71.6436 42.0381C71.5144 42.0439 71.3824 42.046 71.251 42.046C66.008 42.0113 61.7839 37.7288 61.8184 32.4786V22.0469H65.167V22.046H80.917L80.8066 32.6026ZM103.614 42.046H80.6904L92.1865 22.046L92.1875 22.0489L92.1895 22.046L103.614 42.046ZM71.1807 42.0118C71.2831 42.02 71.3864 42.0245 71.4902 42.0294C71.3864 42.0245 71.2831 42.02 71.1807 42.0118ZM70.7168 41.963C70.8002 41.9739 70.8843 41.9816 70.9688 41.9903C70.8843 41.9816 70.8002 41.9739 70.7168 41.963ZM70.2871 41.8956C70.313 41.9003 70.3393 41.9028 70.3652 41.9073C70.3393 41.9028 70.313 41.9003 70.2871 41.8956ZM69.8428 41.8028C69.8887 41.8136 69.9352 41.822 69.9814 41.8321C69.9352 41.822 69.8887 41.8136 69.8428 41.8028ZM69.4287 41.6934C69.4555 41.7012 69.4828 41.7074 69.5098 41.7149C69.4828 41.7074 69.4555 41.7012 69.4287 41.6934ZM68.999 41.5567C69.0423 41.5718 69.0862 41.5852 69.1299 41.5997C69.0862 41.5852 69.0423 41.5718 68.999 41.5567ZM68.6123 41.4102C68.6488 41.4251 68.6858 41.4388 68.7227 41.4532C68.6858 41.4388 68.6488 41.4251 68.6123 41.4102ZM68.2119 41.2344C68.2546 41.2545 68.2977 41.2736 68.3408 41.293C68.2977 41.2736 68.2546 41.2545 68.2119 41.2344ZM67.8262 41.0401C67.88 41.069 67.9347 41.0963 67.9893 41.1241C67.9347 41.0963 67.88 41.069 67.8262 41.0401ZM82.2832 41.1241H84.75L89.9541 27.7774L82.2832 41.1241ZM67.4766 40.8399C67.5176 40.8647 67.559 40.889 67.6006 40.9131C67.559 40.889 67.5176 40.8647 67.4766 40.8399ZM67.1084 40.6036C67.1567 40.6366 67.2058 40.6683 67.2549 40.7003C67.2058 40.6683 67.1567 40.6366 67.1084 40.6036ZM66.7783 40.3653C66.8259 40.4016 66.8744 40.4365 66.9229 40.4717C66.8744 40.4365 66.8259 40.4016 66.7783 40.3653ZM66.4639 40.1124C66.5007 40.1436 66.5387 40.1736 66.5762 40.2042C66.5387 40.1736 66.5007 40.1436 66.4639 40.1124ZM66.1514 39.8331C66.1894 39.869 66.2288 39.9034 66.2676 39.9385C66.2288 39.9034 66.1894 39.869 66.1514 39.8331ZM65.8525 39.5342C65.8928 39.5766 65.9334 39.6187 65.9746 39.6602C65.9334 39.6187 65.8928 39.5766 65.8525 39.5342ZM65.5869 39.2403C65.6212 39.2802 65.6564 39.3192 65.6914 39.3585C65.6564 39.3192 65.6212 39.2802 65.5869 39.2403ZM65.3252 38.918C65.3559 38.9579 65.3865 38.9979 65.418 39.0372C65.3865 38.9979 65.3559 38.9579 65.3252 38.918ZM65.0742 38.5714C65.1086 38.6215 65.1432 38.6715 65.1787 38.7208C65.1432 38.6715 65.1086 38.6215 65.0742 38.5714ZM40.6475 34.7549C40.9189 35.4083 41.2674 36.0425 41.7002 36.6387L39.1797 38.5167L39.1885 38.5323C38.5971 37.751 38.1303 36.8434 37.8027 35.8487L40.6475 34.7549ZM64.8477 38.2217C64.8801 38.2748 64.9127 38.3277 64.9463 38.3799C64.9127 38.3277 64.8801 38.2748 64.8477 38.2217ZM64.6377 37.8565C64.67 37.9165 64.7025 37.9762 64.7363 38.0352C64.7025 37.9762 64.6701 37.9165 64.6377 37.8565ZM64.4609 37.5089C64.4839 37.5569 64.5064 37.605 64.5303 37.6524C64.5064 37.605 64.4839 37.5569 64.4609 37.5089ZM64.291 37.129C64.3107 37.1763 64.33 37.2237 64.3506 37.2706C64.33 37.2237 64.3107 37.1763 64.291 37.129ZM38.9932 36.378C39.1187 36.6626 39.2569 36.9365 39.4082 37.1973L40.4531 36.418C40.356 36.2548 40.2636 36.0895 40.1768 35.9229L38.9932 36.378ZM64.0078 36.3331C64.0229 36.3836 64.0367 36.4344 64.0527 36.4844C64.0367 36.4344 64.0229 36.3836 64.0078 36.3331ZM9.65332 36.3116L4.4502 22.9678H1.9834L9.65332 36.3116ZM63.8965 35.9229C63.9076 35.9685 63.9178 36.0143 63.9297 36.0596C63.9178 36.0143 63.9076 35.9685 63.8965 35.9229ZM63.7275 35.0245C63.7366 35.0921 63.7443 35.1596 63.7549 35.2266C63.7443 35.1596 63.7366 35.0921 63.7275 35.0245ZM63.6807 34.6006C63.6859 34.663 63.6907 34.7253 63.6973 34.7872C63.6907 34.7253 63.6859 34.663 63.6807 34.6006ZM62.7402 32.4844C62.7389 32.6806 62.7461 32.8754 62.7578 33.0684C62.7756 32.8303 62.7985 32.5895 62.833 32.3477L64.1113 22.9688H62.7402V32.4844ZM26.7529 29.6202L27.7627 22.9678H26.7529V29.6202ZM55.3008 27.8018C55.3981 27.9653 55.4901 28.131 55.5771 28.2979L56.7607 27.8428C56.6352 27.5582 56.497 27.2843 56.3457 27.0235L55.3008 27.8018Z" fill="#161E33"/>
</svg>
