<svg width="105" height="64" viewBox="0 0 105 64" fill="none" xmlns="http://www.w3.org/2000/svg">
<path fill-rule="evenodd" clip-rule="evenodd" d="M94.0194 19.13V27.5741L89.8497 27.5566C88.4888 27.5566 85.1042 27.7835 82.8885 29.9119C81.6847 31.0634 81.0741 32.5812 81.0741 34.4306C81.0741 36.0182 81.6498 37.4662 82.749 38.6177C84.3191 40.2577 86.5872 41.13 89.2914 41.13C92.1177 41.13 94.4206 40.3973 95.921 38.9317C97.2644 37.6233 97.875 35.8088 97.875 33.6804V19.13H94.0194ZM94.0194 33.7327C93.9845 35.739 93.0598 37.7628 89.3612 37.7628C87.791 37.7628 86.5174 37.379 85.6625 36.402C85.1915 35.8612 84.9472 35.268 84.9298 34.6225C84.8949 33.5408 85.331 32.6336 86.0463 32.0055C86.9536 31.203 88.3318 30.7668 89.8497 30.7668H94.0194V33.7327Z" fill="#161E33"/>
<path d="M19.453 22.5146H23.2912V26.0388H19.453V22.5146Z" fill="#161E33"/>
<path d="M19.4356 27.8358H23.2738V40.7462H19.4356V27.8358Z" fill="#161E33"/>
<path d="M13.521 27.8358L9.00236 37.3441L4.32671 27.8358H0L6.64709 40.7462H11.3402L17.8128 27.8358H13.521Z" fill="#161E33"/>
<path d="M34.0212 37.3441L38.5398 27.8358H42.8316L36.359 40.7462H31.6659L25.0188 27.8358H29.3455L34.0212 37.3441Z" fill="#161E33"/>
<path fill-rule="evenodd" clip-rule="evenodd" d="M49.6874 37.379C49.2862 37.3092 48.5011 37.1173 47.8381 36.5939L60.2948 34.134C60.2774 33.5582 60.1727 32.9825 60.0157 32.4242C59.7889 31.5693 58.2885 27.2775 51.3797 27.452C48.7628 27.5218 46.6169 28.3766 45.1862 29.7026C43.8603 30.9413 43.0752 32.5463 43.0752 34.4131C43.0752 36.245 43.9824 37.9373 45.6224 39.1411C47.1751 40.2751 49.2338 40.7462 52.0252 40.7462H59.2132V37.5709H52.3044C51.2576 37.5709 50.3678 37.4837 49.6874 37.379ZM51.7984 30.4179C54.0665 30.4179 55.3401 31.2553 55.8111 32.1974L46.739 33.9246C46.8088 33.2268 47.1228 32.5289 47.5939 32.0404C48.536 31.0459 49.9317 30.4179 51.7984 30.4179Z" fill="#161E33"/>
<path d="M74.8105 33.942C74.8629 31.7263 73.1531 30.6621 70.7281 30.6621C68.303 30.6621 66.5933 31.7263 66.6456 33.942V40.7287H62.8074V33.7501C62.7725 32.1799 63.2435 30.9587 64.2729 29.8247C65.6511 28.2894 67.8145 27.4345 70.7281 27.4345C73.6242 27.4345 75.805 28.2894 77.1832 29.8247C78.2126 30.9587 78.6836 32.1799 78.6487 33.7501V40.7287H74.8105V33.942Z" fill="#161E33"/>
<path d="M104.679 22.5146H100.841V26.0388H104.679V22.5146Z" fill="#161E33"/>
<path d="M104.679 27.8358H100.841V40.7462H104.679V27.8358Z" fill="#161E33"/>
</svg>
