<svg width="134" height="64" viewBox="0 0 134 64" fill="none" xmlns="http://www.w3.org/2000/svg">
<path d="M67.3627 31.5551C67.0803 32.1056 66.943 32.7067 66.943 33.3549C66.943 34.0031 67.0839 34.6043 67.3627 35.1546C67.6415 35.7051 68.0328 36.136 68.536 36.4547C69.0356 36.7733 69.6078 36.9328 70.2416 36.9328C70.8754 36.9328 71.4149 36.8024 71.8673 36.538C72.3167 36.2736 72.65 35.9187 72.8671 35.4697H75.6553C75.4091 36.1649 75.0504 36.806 74.5872 37.3854C74.1202 37.9647 73.5154 38.4318 72.7727 38.7904C72.027 39.1488 71.1615 39.3263 70.169 39.3263C69.0864 39.3263 68.0945 39.0619 67.1964 38.526C66.2946 37.99 65.5918 37.2694 65.0814 36.3532C64.5673 35.4407 64.3139 34.4413 64.3139 33.3549C64.3139 32.2686 64.5709 31.2728 65.0814 30.3565C65.5918 29.444 66.2982 28.7197 67.1964 28.1838C68.0945 27.6515 69.0828 27.3835 70.169 27.3835C71.1615 27.3835 72.027 27.5609 72.7727 27.9195C73.5185 28.2744 74.1239 28.7451 74.5872 29.3245C75.0504 29.9039 75.4055 30.5448 75.6553 31.2402H72.8671C72.65 30.7911 72.3167 30.4361 71.8673 30.1718C71.4186 29.9076 70.8754 29.7772 70.2416 29.7772C69.6078 29.7772 69.0392 29.9401 68.536 30.2551C68.0328 30.5738 67.6415 31.0047 67.3627 31.5551ZM78.712 31.769C78.9109 31.1425 79.2769 30.621 79.8055 30.2119C80.3304 29.8027 81.0441 29.5963 81.9423 29.5963C82.5035 29.5963 83.0067 29.7049 83.4664 29.9221C83.923 30.1393 84.2962 30.4363 84.5931 30.8166C84.8859 31.1932 85.0891 31.6241 85.1937 32.1058H78.614C78.643 31.9934 78.6757 31.8812 78.712 31.769ZM87.3305 36.0927C87.4061 35.9045 87.4787 35.7161 87.5404 35.5242H84.9875C84.9076 35.6763 84.8133 35.8175 84.7087 35.9551C84.4117 36.3353 84.0385 36.6322 83.5825 36.8495C83.1259 37.0668 82.6662 37.1247 82.1086 37.1247C81.4747 37.1247 80.8772 36.9762 80.3195 36.6828C79.7583 36.3859 79.3131 35.9913 78.969 35.4844C78.6757 35.0534 78.5021 34.5754 78.4513 34.0577H87.7757C87.8373 32.8192 87.6492 31.6892 87.218 30.6753H87.2144C86.7801 29.6614 86.1136 28.8611 85.2155 28.2708C84.3173 27.6807 83.242 27.3873 81.9888 27.3873C80.859 27.3873 79.8309 27.6552 78.9109 28.1876C77.991 28.7235 77.2671 29.4441 76.7385 30.3494C76.2099 31.2584 75.9492 32.2542 75.9492 33.337C75.9492 33.5833 75.9631 33.8222 75.9921 34.0577C76.0792 34.8833 76.3254 35.6509 76.7276 36.3679C77.2453 37.2913 77.9735 38.0227 78.9109 38.566C79.849 39.1056 80.9135 39.3808 82.1049 39.3808C83.3581 39.3808 84.4335 39.0874 85.3316 38.4972C86.2298 37.907 86.8962 37.1066 87.3305 36.0927ZM56.1257 35.1691C55.807 35.7268 55.3834 36.1686 54.8474 36.4944H54.8547C54.3187 36.8204 53.7285 36.9798 53.0766 36.9798C52.4248 36.9798 51.8346 36.8204 51.2986 36.4944C50.7626 36.1686 50.3389 35.7268 50.0203 35.1691C49.7017 34.6114 49.5424 34.0465 49.5424 33.3802C49.5424 32.714 49.6981 32.1092 50.0058 31.5588C50.3137 31.0084 50.741 30.5774 51.2841 30.2588C51.8273 29.9401 52.4212 29.7808 53.073 29.7808C53.7249 29.7808 54.3223 29.9437 54.8619 30.2588C55.405 30.5774 55.8323 31.0084 56.1402 31.5588C56.448 32.1092 56.6036 32.743 56.6036 33.3802C56.6036 34.0176 56.4444 34.6114 56.1257 35.1691ZM56.1945 28.191C55.2565 27.6515 54.2173 27.3799 53.0694 27.3799C51.9214 27.3799 50.8822 27.6515 49.9443 28.191C49.0064 28.7378 48.2749 29.4693 47.7389 30.3891C47.2065 31.3126 46.9388 32.3047 46.9388 33.3767C46.9388 34.4484 47.1993 35.4443 47.7172 36.364C48.2351 37.2875 48.963 38.0227 49.9007 38.5622H49.8972C50.8351 39.1018 51.8962 39.3734 53.0694 39.3734C54.2426 39.3734 55.3001 39.0982 56.238 38.5477C57.1758 37.9974 57.9037 37.2658 58.4216 36.3497C58.9395 35.4371 59.2001 34.4484 59.2001 33.3767C59.2001 32.3047 58.9358 31.3089 58.4 30.3891C57.8677 29.4658 57.1324 28.7306 56.1945 28.191ZM60.4644 27.5936H63.0172V39.1635H60.4644V27.5936ZM95.4343 22.4369H96.2055V24.6206H95.6079C95.0358 24.6206 94.5798 24.7799 94.2429 25.0985C93.906 25.4172 93.678 25.9061 93.5655 26.5724L93.3871 27.5936H96.2055V29.7991H93.0006L91.3603 39.1634H91.3555L91.1729 40.2063C90.9521 41.4447 90.4562 42.3753 89.6844 42.991H89.688C88.9133 43.6103 87.968 43.9216 86.8527 43.9216C86.0163 43.9216 85.4368 43.9144 85.1108 43.8999L85.4949 41.7164H86.6791C87.2513 41.7164 87.7073 41.5569 88.0442 41.2384C88.3811 40.9197 88.6091 40.4308 88.7216 39.7644L90.467 29.7991H88.5758V27.5936H90.8529L91.1142 26.1307C91.3313 24.8922 91.8273 23.9615 92.6026 23.3459L92.5984 23.3423C93.3701 22.723 94.3191 22.4369 95.4343 22.4369ZM49.264 22.4369L42.3404 39.1634H39.552L32.6282 22.4369H35.5324L41.0041 35.9915L46.4757 22.4369H49.264ZM132.925 27.5936L128.652 39.1635H126.099L123.3 30.9766L120.5 39.1635H117.947L113.674 27.5936H116.332L119.284 36.0058L122.119 27.5936H124.607L127.42 36.0058L130.394 27.5936H132.925ZM97.9038 22.4369H100.457V39.1634H97.9038V22.4369ZM110.999 35.1691C110.68 35.7268 110.257 36.1686 109.721 36.4944H109.728C109.192 36.8204 108.602 36.9798 107.95 36.9798C107.298 36.9798 106.708 36.8204 106.172 36.4944C105.636 36.1686 105.212 35.7268 104.894 35.1691C104.575 34.6114 104.416 34.0465 104.416 33.3802C104.416 32.714 104.571 32.1092 104.879 31.5588C105.187 31.0084 105.618 30.5774 106.158 30.2588C106.701 29.9401 107.295 29.7808 107.947 29.7808C108.598 29.7808 109.196 29.9437 109.735 30.2588C110.278 30.5774 110.706 31.0084 111.014 31.5588C111.321 32.1092 111.477 32.743 111.477 33.3802C111.477 34.0176 111.318 34.6114 110.999 35.1691ZM111.067 28.191C110.13 27.6515 109.09 27.3799 107.943 27.3799C106.795 27.3799 105.755 27.6515 104.817 28.191C103.883 28.7378 103.148 29.4693 102.612 30.3891C102.08 31.3126 101.812 32.3047 101.812 33.3767C101.812 34.4484 102.073 35.4443 102.59 36.364C103.108 37.2875 103.836 38.0227 104.774 38.5622H104.771C105.708 39.1018 106.766 39.3734 107.943 39.3734C109.119 39.3734 110.177 39.0982 111.115 38.5477C112.053 37.9974 112.781 37.2658 113.299 36.3497C113.816 35.4371 114.077 34.4484 114.077 33.3767C114.077 32.3047 113.809 31.3089 113.273 30.3891C112.741 29.4658 112.006 28.7306 111.067 28.191ZM60.4644 22.4369H63.0172V24.9899H60.4644V22.4369ZM25.0622 34.3898C25.2536 33.2545 25.3471 32.0348 25.3471 30.8195C25.3471 29.6042 25.2536 28.3843 25.0622 27.2491C26.9008 27.5207 28.3165 29.0165 28.3165 30.8195C28.3165 32.6225 26.9008 34.1183 25.0622 34.3898ZM23.3127 34.1983C22.1241 33.9046 17.2583 31.042 17.0358 30.9174V30.7215C17.2583 30.5969 22.1241 27.7344 23.3127 27.4406C23.4774 28.4111 23.5843 29.5373 23.5843 30.8195C23.5843 32.1015 23.4774 33.2279 23.3127 34.1983ZM21.6522 38.1827C21.5276 38.2673 21.3762 38.2495 21.2382 38.1782C20.5036 37.782 17.8282 33.6018 17.8282 33.4593L17.9573 33.3214C18.7586 33.8778 20.7931 35.2623 22.9076 35.9122C22.5203 37.1454 22.0439 37.92 21.6522 38.1827ZM21.2382 23.4607C21.3762 23.3895 21.5276 23.3717 21.6522 23.4562C22.0439 23.7189 22.5203 24.4935 22.9076 25.7267C20.7931 26.3766 18.7586 27.7611 17.9573 28.3176L17.8282 28.1796C17.8282 28.0372 20.5036 23.8569 21.2382 23.4607ZM14.1243 30.9174C13.9017 31.042 9.03601 33.9046 7.84738 34.1983C7.68257 33.2279 7.57576 32.1015 7.57576 30.8195C7.57576 29.5373 7.68257 28.4111 7.84738 27.4406C9.03601 27.7344 13.9017 30.5969 14.1243 30.7215V30.9174ZM9.92188 38.1782C9.78386 38.2495 9.63247 38.2673 9.50788 38.1827C9.11603 37.92 8.6398 37.1454 8.25242 35.9122C10.367 35.2623 12.4014 33.8778 13.2028 33.3214L13.3319 33.4593C13.3319 33.6018 10.6564 37.782 9.92188 38.1782ZM9.50788 23.4562C9.63247 23.3717 9.78386 23.3895 9.92188 23.4607C10.6564 23.8569 13.3319 28.0372 13.3319 28.1796L13.2028 28.3176C12.4014 27.7611 10.367 26.3766 8.25242 25.7267C8.6398 24.4935 9.11603 23.7189 9.50788 23.4562ZM6.09776 34.3898C4.25926 34.1183 2.8436 32.6225 2.8436 30.8195C2.8436 29.0165 4.25926 27.5207 6.09776 27.2491C5.90631 28.3843 5.81283 29.6042 5.81283 30.8195C5.81283 32.0348 5.90631 33.2545 6.09776 34.3898ZM24.6616 25.4462C24.0071 23.1936 22.9076 21.5865 21.3762 21.5865C19.3328 21.5865 16.5326 27.3248 16.5326 27.3248L16.3502 27.2847L16.3992 26.6393C16.4074 26.5156 16.4155 26.2621 16.4239 25.9426C16.4638 24.3979 16.4467 22.8524 16.3771 21.3088L16.3165 19.9641C16.3154 19.9404 16.2958 19.9216 16.272 19.9216H14.888C14.8642 19.9216 14.8446 19.9404 14.8435 19.9641L14.783 21.3088C14.7134 22.8524 14.6962 24.3979 14.7362 25.9426C14.7444 26.2621 14.7527 26.5156 14.7608 26.6393L14.8099 27.2847L14.6273 27.3248C14.6273 27.3248 11.8272 21.5865 9.78386 21.5865C8.25242 21.5865 7.15282 23.1936 6.49844 25.4462C3.49348 25.5442 1.07617 27.9124 1.07617 30.8195C1.07617 33.7264 3.49348 36.0949 6.49844 36.1928C7.15282 38.4453 8.25242 40.0524 9.78386 40.0524C11.8272 40.0524 14.6273 34.3141 14.6273 34.3141L14.8099 34.3541L14.7608 34.9997C14.7527 35.1233 14.7444 35.3768 14.7362 35.6964C14.6962 37.241 14.7134 38.7867 14.783 40.3302L14.8435 41.6748C14.8446 41.6987 14.8642 41.7174 14.888 41.7174H16.272C16.2958 41.7174 16.3154 41.6987 16.3165 41.6748L16.3771 40.3302C16.4467 38.7867 16.4638 37.241 16.4239 35.6964C16.4155 35.3768 16.4074 35.1233 16.3992 34.9997L16.3502 34.3541L16.5326 34.3141C16.5326 34.3141 19.3328 40.0524 21.3762 40.0524C22.9076 40.0524 24.0071 38.4453 24.6616 36.1928C27.6666 36.0949 30.0838 33.7264 30.0838 30.8195C30.0838 27.9124 27.6666 25.5442 24.6616 25.4462Z" fill="#161E33"/>
</svg>
