<svg width="144" height="64" viewBox="0 0 144 64" fill="none" xmlns="http://www.w3.org/2000/svg">
<path fill-rule="evenodd" clip-rule="evenodd" d="M36.5907 23.3853C37.8902 25.5345 37.2905 28.3835 35.1412 29.683C33.7418 30.5827 31.9924 30.5827 30.6429 29.8329C30.4929 29.7829 30.393 29.733 30.1431 29.683C29.8931 29.633 29.5933 29.683 29.2934 29.7829C29.1434 29.8329 28.9935 29.9329 28.8435 29.9829C27.9439 30.5827 27.644 31.7822 28.1938 32.6819L30.293 36.0807C31.5925 38.2299 30.9928 41.0788 28.8435 42.3784C26.7443 43.7279 23.8953 43.0781 22.5958 40.9289L20.4966 37.6301C19.8968 36.6804 18.6972 36.4305 17.7975 36.9803C17.2477 37.3302 16.8979 37.98 16.8979 38.6297C16.8979 40.1792 16.1481 41.6786 14.7486 42.5283C12.6494 43.8778 9.80043 43.2281 8.50091 41.0788L0.703734 28.5334C-0.645776 26.3842 0.00398801 23.5352 2.15321 22.2357C4.25245 20.8862 7.10141 21.5359 8.40094 23.6852L10.5002 27.0339C11.05 27.9336 12.2495 28.2335 13.1492 27.6837H13.1992C13.799 27.3338 14.0989 26.6841 14.0989 26.0843C14.0989 24.5348 14.8486 22.9854 16.2481 22.1357C18.3473 20.7862 21.1963 21.436 22.4958 23.5852L24.5951 26.984C25.1949 27.9336 26.3944 28.1835 27.2941 27.6337C27.494 27.4838 27.6939 27.2839 27.8939 26.934C27.8439 27.0839 27.8439 27.0339 27.8939 26.884C28.0438 26.6341 28.0938 26.4342 28.1438 26.2842C28.1938 26.1343 28.1938 26.0343 28.2437 25.8844C28.3937 24.135 28.9935 22.8355 30.393 21.9358C32.4422 20.5863 35.2412 21.236 36.5907 23.3853Z" fill="#161E33"/>
<path d="M52.285 41.9285L55.5338 32.5319L58.9326 41.9285H61.3317L66.18 28.6334H63.0311L59.9822 37.6301L56.9333 28.6833H54.1843L51.1354 37.6301L48.0865 28.6833H44.9377L49.9359 41.9785L52.285 41.9285ZM73.6273 42.2284C77.4259 42.2284 80.5748 39.4794 80.5748 35.281C80.5748 31.0825 77.3759 28.3835 73.6273 28.3835C69.8786 28.3835 66.7298 31.0325 66.7298 35.281C66.7298 39.4794 69.8786 42.2284 73.6273 42.2284ZM73.6273 39.3795C71.4281 39.3795 69.6287 37.78 69.6287 35.281C69.6287 32.8318 71.4281 31.2824 73.6273 31.2824C75.8265 31.2824 77.6758 32.8318 77.6758 35.281C77.6758 37.78 75.8765 39.3795 73.6273 39.3795ZM85.8229 41.9285V37.1303C85.8229 33.5816 86.8725 31.0825 89.3716 31.0825C89.9214 31.0825 90.5711 31.1824 91.3209 31.5323L91.8207 28.8333C91.3708 28.5334 90.4212 28.3335 89.4715 28.3335C87.8221 28.3335 86.5226 29.2831 85.8229 31.6823V28.6334H82.8739V41.9285H85.8229ZM96.2191 41.9285V36.6804L101.167 41.9285H105.016L98.7182 35.3309L105.016 28.6334H101.167L96.2191 33.9314V21.436H93.3201V41.9285H96.2191ZM111.863 42.2284C113.513 42.2284 115.462 41.4787 116.312 40.0292V41.9285H119.211V28.6833H116.312V30.5827C115.412 29.0832 113.413 28.4334 111.863 28.4334C108.265 28.4334 105.116 31.0825 105.116 35.3309C105.116 39.5794 108.265 42.2284 111.863 42.2284ZM112.213 39.3795C110.014 39.3795 108.165 37.6801 108.165 35.281C108.165 32.8318 110.014 31.2324 112.213 31.2324C114.213 31.2324 116.312 32.6319 116.312 35.281C116.312 37.93 114.363 39.3795 112.213 39.3795ZM126.358 41.9285V31.0825H129.157V28.6833H126.358V23.6352H123.459V28.6833H121.06V31.0825H123.459V41.9285H126.358ZM136.854 42.2284C140.653 42.2284 143.802 39.4794 143.802 35.281C143.802 31.0825 140.603 28.3835 136.854 28.3835C133.106 28.3835 129.957 31.0325 129.957 35.281C129.957 39.4794 133.106 42.2284 136.854 42.2284ZM136.854 39.3795C134.655 39.3795 132.856 37.78 132.856 35.281C132.856 32.8318 134.655 31.2824 136.854 31.2824C139.054 31.2824 140.903 32.8318 140.903 35.281C140.903 37.78 139.104 39.3795 136.854 39.3795Z" fill="#161E33"/>
</svg>
