<svg width="90" height="64" viewBox="0 0 90 64" fill="none" xmlns="http://www.w3.org/2000/svg">
<g clip-path="url(#clip0_12470_78910)">
<path fill-rule="evenodd" clip-rule="evenodd" d="M56.9231 25.61C56.9206 25.375 56.9653 25.1419 57.0543 24.9244C57.1433 24.7068 57.275 24.5093 57.4415 24.3435C57.608 24.1776 57.806 24.0467 58.0239 23.9585C58.2418 23.8704 58.4751 23.8267 58.7101 23.83H59.9681V21.213C59.9284 20.9376 59.9486 20.6568 60.0272 20.3899C60.1058 20.123 60.2409 19.8761 60.4235 19.6661C60.6061 19.4561 60.8318 19.2879 61.0852 19.173C61.3386 19.058 61.6138 18.999 61.8921 19C62.3109 19.0005 62.7185 19.1361 63.0541 19.3867C63.3898 19.6373 63.6356 19.9895 63.7551 20.391C63.8351 20.657 63.8551 20.938 63.8151 21.213V23.83H67.9051C68.2589 23.8261 68.6058 23.9283 68.901 24.1235C69.1962 24.3187 69.4261 24.5979 69.5611 24.925C69.672 25.1964 69.7144 25.491 69.6846 25.7827C69.6548 26.0744 69.5536 26.3543 69.3901 26.5977C69.2266 26.8411 69.0057 27.0405 68.7468 27.1783C68.488 27.3161 68.1993 27.3881 67.9061 27.388H63.8161V33.691C63.8161 36.764 65.5301 38.335 67.9061 38.335C68.3829 38.3358 68.8401 38.5254 69.1776 38.8623C69.5151 39.1993 69.7055 39.6561 69.7071 40.133C69.7073 40.3696 69.6609 40.6039 69.5704 40.8225C69.4799 41.041 69.3471 41.2396 69.1797 41.4067C69.0123 41.5739 68.8135 41.7063 68.5947 41.7965C68.376 41.8866 68.1416 41.9327 67.9051 41.932C63.3931 41.932 59.9681 38.756 59.9681 33.691V27.389H58.7101C58.2379 27.3872 57.7855 27.1993 57.451 26.8661C57.1164 26.5328 56.9267 26.0822 56.9231 25.61ZM41.1791 46.656V39.811C42.7799 41.2181 44.8418 41.9882 46.9731 41.975C52.0001 41.975 55.8061 37.89 55.8061 32.719C55.8061 27.549 52.0001 23.464 46.9731 23.464C44.8347 23.4446 42.767 24.2287 41.1791 25.661V25.42C41.1297 25.0751 40.9884 24.7499 40.77 24.4785C40.5515 24.2071 40.264 23.9996 39.9377 23.8776C39.6114 23.7557 39.2582 23.7239 38.9153 23.7855C38.5724 23.8472 38.2525 24 37.9891 24.228C37.6359 24.5341 37.4051 24.9574 37.3391 25.42V46.657C37.3883 47.0021 37.5296 47.3275 37.7481 47.599C37.9666 47.8706 38.2542 48.0783 38.5807 48.2002C38.9072 48.3222 39.2606 48.3539 39.6036 48.2921C39.9466 48.2303 40.2667 48.0773 40.5301 47.849C40.8832 47.5429 41.114 47.1197 41.1801 46.657L41.1791 46.656ZM46.5561 27.024C49.5561 27.024 51.9331 29.469 51.9331 32.719C51.9331 35.969 49.5571 38.414 46.5561 38.414C43.5551 38.414 41.1791 35.969 41.1791 32.719V32.472C41.2861 29.367 43.5551 27.024 46.5561 27.024ZM17.3521 32.69C17.3659 30.9293 17.8784 29.2085 18.8301 27.727C19.7807 26.2471 21.1321 25.0676 22.7271 24.326C24.3208 23.5851 26.0925 23.3132 27.835 23.5422C29.5775 23.7712 31.2189 24.4915 32.5671 25.619C32.7761 25.8004 32.9457 26.0227 33.0653 26.2723C33.1848 26.5219 33.2518 26.7934 33.2621 27.07C33.2647 27.5912 33.0638 28.0928 32.7021 28.468L27.3571 34.848C27.2019 35.0496 27.0012 35.2115 26.7714 35.3207C26.5417 35.4298 26.2893 35.4831 26.0351 35.476C25.6813 35.4952 25.3303 35.4039 25.0306 35.2149C24.7309 35.0259 24.4973 34.7485 24.3621 34.421C24.2723 34.2036 24.228 33.9702 24.2321 33.735C24.2205 33.5252 24.2512 33.3152 24.3224 33.1175C24.3935 32.9198 24.5035 32.7384 24.6461 32.584L28.8531 27.641C28.1644 27.2177 27.3693 26.9995 26.5611 27.012C23.5751 27.012 21.2111 29.522 21.2111 32.69C21.2111 35.858 23.5411 38.368 26.5611 38.368C27.25 38.3752 27.933 38.2391 28.5666 37.9685C29.2003 37.6979 29.7708 37.2987 30.2421 36.796L30.4551 36.62C30.9051 36.243 31.2791 35.93 31.9111 35.93C32.1573 35.9192 32.4031 35.9593 32.6331 36.0477C32.8632 36.1361 33.0725 36.271 33.2481 36.444C33.4243 36.6169 33.5632 36.8242 33.656 37.053C33.7489 37.2818 33.7939 37.5272 33.7881 37.774C33.7523 38.2437 33.5543 38.6863 33.2281 39.026C32.3945 39.9653 31.3662 40.7115 30.2148 41.2127C29.0634 41.7139 27.8165 41.958 26.5611 41.928C25.3454 41.9471 24.1383 41.7211 23.0119 41.2634C21.8855 40.8057 20.8629 40.1257 20.0051 39.264C19.1453 38.4016 18.4675 37.3754 18.0118 36.2461C17.556 35.1168 17.3317 33.9076 17.3521 32.69ZM9.90306 27.339H2.18706C1.71573 27.336 1.26466 27.147 0.932064 26.813C0.598225 26.4778 0.410045 26.0245 0.40836 25.5514C0.406676 25.0783 0.591621 24.6236 0.923064 24.286C1.08868 24.12 1.28581 23.9887 1.50287 23.8999C1.71994 23.8111 1.95256 23.7666 2.18706 23.769H13.7441C14.0978 23.7647 14.4446 23.8673 14.739 24.0634C15.0334 24.2595 15.2617 24.5399 15.3941 24.868C15.4831 25.085 15.5271 25.318 15.5241 25.554C15.5065 26.0298 15.3072 26.4808 14.9671 26.814L5.57206 38.056H13.7441C14.0979 38.0518 14.4448 38.1545 14.7392 38.3508C15.0336 38.5471 15.2619 38.8278 15.3941 39.156C15.5266 39.4831 15.56 39.8419 15.4899 40.1878C15.4198 40.5337 15.2495 40.8513 15.0001 41.101C14.6671 41.4349 14.2156 41.6236 13.7441 41.626H1.78006C1.54408 41.6235 1.3109 41.5745 1.09385 41.4818C0.876804 41.3892 0.680131 41.2547 0.515064 41.086C0.181064 40.745 -0.00393646 40.285 6.35395e-05 39.807C0.0120635 39.335 0.200064 38.885 0.524064 38.543L9.90406 27.338L9.90306 27.339ZM73.0911 27.568C72.0765 29.0865 71.535 30.8718 71.5351 32.698C71.5132 33.9164 71.7371 35.1267 72.1933 36.2566C72.6496 37.3865 73.3288 38.413 74.1904 39.2746C75.0521 40.1363 76.0785 40.8155 77.2085 41.2717C78.3384 41.728 79.5487 41.9518 80.7671 41.93C82.3623 41.9302 83.9303 41.5172 85.3184 40.7311C86.7065 39.945 87.8672 38.8126 88.6874 37.4444C89.5076 36.0763 89.9594 34.5189 89.9986 32.9242C90.0379 31.3295 89.6633 29.7518 88.9113 28.3449C88.1594 26.938 87.0558 25.75 85.7081 24.8965C84.3604 24.0431 82.8145 23.5534 81.2213 23.4751C79.628 23.3969 78.0416 23.7328 76.6168 24.4501C75.1919 25.1674 73.9772 26.2416 73.0911 27.568ZM80.7671 27.016C83.8301 27.016 86.1341 29.562 86.1341 32.697C86.1341 35.799 83.8351 38.378 80.7671 38.378C77.6991 38.378 75.4011 35.833 75.4011 32.698C75.4011 29.562 77.7041 27.016 80.7671 27.016Z" fill="#161E33"/>
</g>
<defs>
<clipPath id="clip0_12470_78910">
<rect width="90" height="64" fill="white"/>
</clipPath>
</defs>
</svg>
