<svg width="134" height="64" viewBox="0 0 134 64" fill="none" xmlns="http://www.w3.org/2000/svg">
<path d="M44.679 32.8279C45.406 37.3061 41.5495 39.8301 37.6441 40.1209C35.1584 45.2752 26.4014 48.7558 18.7999 45.0069C15.5506 45.5027 13.7695 44.6832 12.3946 43.1202C15.1729 39.5145 23.5826 33.0247 33.8566 36.3741C39.3399 38.1625 40.7615 33.9608 39.3866 32.3855C34.212 26.4568 22.5306 31.7934 22.1082 32.2379C26.6979 25.1559 43.1132 23.1688 44.679 32.8279ZM28.946 24.6888C28.9745 24.6786 25.2154 23.3409 19.9575 25.6312C19.7459 25.552 19.5385 25.4617 19.3361 25.3608C24.3929 21.9724 28.8262 20.5343 32.6158 21.0935C30.3209 18.4283 19.2934 16.4698 12.9755 22.8553C5.16486 21.3046 -0.29811 27.9809 0.0126089 34.0776C0.323328 40.1743 6.91748 43.9703 10.6745 42.9419C10.7648 42.9296 10.8564 42.9296 10.9467 42.9419C11.7793 38.9122 15.179 29.5379 28.946 24.6888ZM60.3997 30.2569L61.1003 27.1513H49.3377L49.0717 28.3538C48.7651 29.417 49.5977 30.1709 50.4933 30.1463H55.9421L46.2834 38.7505L45.6315 41.6369H58.0906L58.8076 38.4759H50.9279L60.3997 30.2569ZM68.2469 32.7603C67.6945 32.619 64.6015 32.1457 64.7945 31.0722C65.0118 29.8616 66.478 29.7468 67.1909 29.7694C68.6591 29.8124 69.1223 30.4638 69.1994 30.6933C69.4025 31.3079 69.8715 31.6172 70.5581 31.6172H72.8773C73.1311 30.1688 73.2002 26.8276 67.8123 26.8276C66.082 26.8276 63.777 27.266 62.2518 29.038C61.4396 29.9886 60.0282 32.3486 61.4679 34.1227C62.2214 35.0179 64.1853 35.7185 66.2933 36.1343C67.6559 36.4048 68.3768 36.9538 68.2266 37.6032C68.1352 38.0395 67.593 39.0229 65.5865 39.0209C64.6889 39.0209 62.7433 38.8775 63.115 36.8432H59.4473C59.0168 38.6869 58.8583 41.9053 64.4513 41.9053C66.608 41.9053 70.9987 41.6287 72.1421 37.0029C72.9666 33.6802 69.2522 33.0226 68.2469 32.7665V32.7603ZM81.2118 37.8819C80.8955 38.1767 80.5245 38.4055 80.1203 38.5553C79.716 38.7051 79.2864 38.7727 78.8561 38.7546C76.086 38.7811 76.3987 36.0156 76.7765 34.3459C77.1542 32.6764 78.0457 29.9865 80.6798 29.9927C82.546 29.9927 82.7614 31.2116 82.8568 31.5701H86.6321C86.4981 27.5507 83.4437 26.7825 81.285 26.8358C75.3671 26.9833 73.655 31.9736 73.125 34.2927C71.5795 41.0674 75.8747 41.9135 77.93 41.9135C79.6155 41.9135 83.3057 41.5037 85.4726 37.1771H82.7776C81.9997 37.1485 81.6403 37.4967 81.2118 37.8798V37.8819ZM96.628 39.2708C95.5393 40.5665 94.0262 41.4256 92.3632 41.6923C89.0834 42.2392 84.5749 42.1019 85.7102 37.3389C86.0737 35.8189 86.6362 34.8233 87.7674 34.0735C89.6621 32.8177 92.1784 32.6395 92.9947 32.5494C93.2731 32.5186 95.3364 32.3629 95.6897 31.1317C96.035 29.9333 94.1423 29.8349 93.6122 29.8288C91.9875 29.8104 91.4372 30.4638 91.1751 30.853H87.5602C89.0204 26.9771 93.0435 26.8255 94.1402 26.8255C95.3586 26.8255 100.245 26.8255 99.3128 30.9105C97.887 37.1505 97.8261 37.7732 96.628 39.2708ZM95.0033 34.3541C94.4225 34.6758 92.9724 34.9913 92.7409 35.0589C91.9977 35.2802 90.576 35.3785 89.8855 36.0299C89.2945 36.5933 88.2507 38.9205 90.7303 38.9697C92.2658 38.9983 94.1829 38.1276 94.7271 35.5997C94.8408 35.0282 95.0115 34.3541 95.0115 34.3541H95.0033ZM104.305 22.9168H102.355L98.1186 41.6389H101.894L105.722 24.7134C105.889 24.1808 105.781 22.968 104.305 22.9168ZM114.091 37.175H116.79C115.941 38.9041 113.744 41.9135 109.244 41.9115C103.5 41.9115 103.854 36.7428 104.441 34.2907C106.065 27.477 110.588 26.8337 112.603 26.8337C115.287 26.8337 119.493 27.9564 117.357 35.3785H108.015C107.787 36.3618 107.592 38.7811 110.168 38.7525C111.522 38.7381 112.03 38.2444 112.152 38.181C112.509 38.0006 112.834 37.1976 114.091 37.175ZM108.577 32.9303H114.079C114.55 30.2672 112.915 29.9906 111.993 29.9906C111.203 29.9906 109.323 30.2795 108.577 32.9303ZM122.185 28.7389C119.656 30.4782 118.819 33.2765 118.529 34.6184C118.297 35.6755 116.938 41.6389 116.938 41.6389H120.717C120.717 41.6389 122.15 35.0834 122.401 34.1841C122.7 33.1332 123.672 30.2918 127.438 30.4085L128.311 27.1574C125.265 27.0591 123.254 28.0035 122.182 28.7389H122.185ZM128.776 24.3344L128.872 23.8796H130.903L130.804 24.3344H130.076L129.67 26.338H129.121L129.538 24.3344H128.776ZM132.119 23.8796L132.305 25.6599L133.244 23.8796H133.991L133.476 26.338H132.98L133.427 24.3815L132.396 26.338H131.989L131.754 24.3815L131.39 26.338H130.884L131.396 23.8796H132.119Z" fill="#161E33"/>
</svg>
