<svg width="540" height="362" viewBox="0 0 540 362" fill="none" xmlns="http://www.w3.org/2000/svg">
<path d="M270 311L270 33" stroke="#B4BACC"/>
<path d="M270 166V170.296C270 179.132 277.163 186.296 286 186.296H414C422.837 186.296 430 193.459 430 202.296V326" stroke="#B4BACC"/>
<path d="M270 166V170.296C270 179.132 277.163 186.296 286 186.296H494C502.837 186.296 510 193.459 510 202.296V326" stroke="#B4BACC"/>
<path d="M270 166V170.296C270 179.132 277.163 186.296 286 186.296H334C342.837 186.296 350 193.459 350 202.296V326" stroke="#B4BACC"/>
<path d="M270 166V170.296C270 179.132 262.837 186.296 254 186.296H206C197.163 186.296 190 193.459 190 202.296V326" stroke="#B4BACC"/>
<path d="M270 166V170.296C270 179.132 262.837 186.296 254 186.296H126C117.163 186.296 110 193.459 110 202.296V326" stroke="#B4BACC"/>
<path d="M270 166V170.296C270 179.132 262.837 186.296 254 186.296H46C37.1634 186.296 30 193.459 30 202.296V326" stroke="#B4BACC"/>
<rect x="2.28" y="306.28" width="55.44" height="55.44" rx="5.32" fill="#F0F3FA"/>
<rect x="2.28" y="306.28" width="55.44" height="55.44" rx="5.32" stroke="#D4D9E6" stroke-width="0.56"/>
<path d="M30.0018 349.4V343.428C36.3233 343.428 41.2304 337.159 38.8031 330.505C37.9125 328.06 35.9392 326.087 33.4769 325.197C26.8236 322.787 20.5544 327.676 20.5544 333.998H14.5996C14.5996 323.922 24.3439 316.063 34.9089 319.364C39.519 320.813 43.2037 324.481 44.6356 329.091C47.9361 339.656 40.0778 349.4 30.0018 349.4Z" fill="#0080FF"/>
<path fill-rule="evenodd" clip-rule="evenodd" d="M30.0193 343.463H24.0645V337.508H30.0193V343.463Z" fill="#0080FF"/>
<path fill-rule="evenodd" clip-rule="evenodd" d="M24.0646 348.02H19.5068V343.463H24.0646V348.02Z" fill="#0080FF"/>
<path fill-rule="evenodd" clip-rule="evenodd" d="M19.507 343.463H15.6826V339.638H19.507V343.463Z" fill="#0080FF"/>
<rect x="82.28" y="306.28" width="55.44" height="55.44" rx="5.32" fill="#F0F3FA"/>
<rect x="82.28" y="306.28" width="55.44" height="55.44" rx="5.32" stroke="#D4D9E6" stroke-width="0.56"/>
<g clip-path="url(#clip0_1814_14978)">
<path d="M124.018 332.073L119.365 329.5L115.438 331.897L115.389 334.347L113.48 333.09L110.884 334.672L110.772 331.994L108.094 330.206L110.649 328.885C110.629 328.885 110.649 329.14 110.271 320.11L104.228 317.2L96.001 319.755L97.8381 328.604L100.6 330.742L98.4999 331.739L99.872 338.408L101.801 340.219L100.421 341.06L101.492 346.216L105.82 350.8C105.841 350.774 106.275 350.44 111.388 346.374L111.24 342.871L113.432 344.732C113.463 344.701 113.902 344.376 117.919 341.182L118.074 338.592L119.73 339.741C119.763 339.711 120.134 339.43 123.374 336.846L124.018 332.073Z" fill="#E1E5F0"/>
<path d="M120.157 334.83L124.018 332.073L119.365 329.5L115.438 331.897L120.157 334.83Z" fill="black"/>
<path d="M119.73 339.736L120.156 334.83L115.437 331.897L115.34 336.688L119.73 339.736Z" fill="#004B16"/>
<path d="M113.432 344.726V339.644L108.664 336.029L109.04 341.022L113.432 344.726Z" fill="#004B16"/>
<path d="M113.432 339.644L118.22 336.213L113.48 333.09L108.664 336.029L113.432 339.644Z" fill="black"/>
<path d="M105.819 350.795L105.057 345.603L100.42 341.055L101.491 346.211L105.819 350.795Z" fill="#004B16"/>
<path d="M105.057 345.603L111.167 341.244L106.432 337.388L100.42 341.055L105.057 345.603Z" fill="black"/>
<path d="M104.662 342.905L103.656 336.036L98.4893 331.741L99.8716 338.402L104.662 342.905Z" fill="#004B16"/>
<path d="M103.656 336.036L110.772 331.994L105.457 328.432L98.4893 331.741L103.656 336.036Z" fill="black"/>
<path d="M103.173 332.756L101.793 323.35L96.001 319.758L97.8381 328.604L103.173 332.756Z" fill="#004B16"/>
<path d="M101.793 323.35L110.261 320.105L104.228 317.2L96.001 319.758L101.793 323.35Z" fill="black"/>
<path d="M123.374 336.841C119.791 339.685 119.712 339.736 119.73 339.736C120.175 334.6 120.136 334.83 120.157 334.83C124.245 331.905 123.989 332.073 124.018 332.073L123.374 336.841Z" fill="#1CB35C"/>
<path d="M117.918 341.177C113.485 344.704 113.413 344.727 113.431 344.727C113.388 339.407 113.413 339.644 113.431 339.644C118.541 335.991 118.202 336.213 118.219 336.213L117.918 341.177Z" fill="#1CB35C"/>
<path d="M111.387 346.369C105.853 350.769 105.801 350.795 105.819 350.795C105.035 345.444 105.053 345.603 105.053 345.603C111.561 340.963 111.149 341.244 111.167 341.244L111.387 346.369Z" fill="#1CB35C"/>
<path d="M110.26 320.105C110.649 329.143 110.618 328.879 110.639 328.879C103.316 332.684 103.155 332.756 103.173 332.756C101.762 323.141 101.775 323.35 101.793 323.35L110.26 320.105Z" fill="#1CB35C"/>
<path d="M110.771 331.994C111.065 338.844 111.027 338.607 111.055 338.607C104.716 342.866 104.644 342.905 104.667 342.905C103.645 335.858 103.645 336.036 103.66 336.036L110.771 331.994Z" fill="#1CB35C"/>
</g>
<rect x="162.28" y="306.28" width="55.44" height="55.44" rx="5.32" fill="#F0F3FA"/>
<rect x="162.28" y="306.28" width="55.44" height="55.44" rx="5.32" stroke="#D4D9E6" stroke-width="0.56"/>
<g clip-path="url(#clip1_1814_14978)">
<path fill-rule="evenodd" clip-rule="evenodd" d="M180.219 343.47C170.202 339.66 171.123 325.443 181.604 323.084C182.462 322.892 183.678 322.797 185.254 322.8C188.269 322.807 191.284 322.808 194.3 322.802C196.239 322.798 197.659 322.9 198.561 323.108C209.473 325.619 209.561 341.129 198.737 343.822C197.92 344.024 196.739 344.127 195.194 344.13C191.269 344.134 187.343 344.134 183.416 344.13C182.441 344.13 181.375 343.91 180.219 343.47ZM177.332 334.055C177.627 337.353 180.522 340.33 183.911 340.337C187.607 340.343 191.304 340.342 195.001 340.335C196.363 340.332 197.376 340.226 198.042 340.016C204.466 337.993 204.339 328.866 197.879 326.931C197.247 326.742 196.388 326.648 195.3 326.65C191.861 326.653 188.422 326.654 184.984 326.654C183.713 326.654 182.752 326.755 182.101 326.956C179.102 327.888 177.057 330.975 177.332 334.055Z" fill="#E7202C"/>
</g>
<rect x="242.28" y="306.28" width="55.44" height="55.44" rx="5.32" fill="#F0F3FA"/>
<rect x="242.28" y="306.28" width="55.44" height="55.44" rx="5.32" stroke="#D4D9E6" stroke-width="0.56"/>
<path d="M269.696 341.732H274.771C275.311 341.667 275.81 341.413 276.18 341.015C276.55 340.617 276.768 340.101 276.794 339.558V332.237C276.794 331.77 276.609 331.322 276.279 330.992C275.949 330.662 275.501 330.477 275.034 330.477C274.567 330.477 274.12 330.662 273.79 330.992C273.46 331.322 273.274 331.77 273.274 332.237V336.889C273.274 337.24 273.135 337.576 272.887 337.824C272.639 338.071 272.303 338.211 271.953 338.211H269.652C269.419 338.211 269.189 338.257 268.974 338.347C268.759 338.437 268.564 338.569 268.4 338.735C268.236 338.901 268.107 339.098 268.021 339.314C267.934 339.53 267.89 339.761 267.894 339.994C267.907 340.462 268.103 340.907 268.44 341.231C268.777 341.556 269.228 341.736 269.696 341.732ZM271.985 325.017H266.908C266.368 325.082 265.869 325.336 265.499 325.734C265.129 326.131 264.911 326.647 264.885 327.19V334.511C264.885 334.978 265.07 335.425 265.4 335.755C265.73 336.085 266.178 336.271 266.645 336.271C267.112 336.271 267.559 336.085 267.889 335.755C268.219 335.425 268.405 334.978 268.405 334.511V329.86C268.405 329.509 268.544 329.173 268.792 328.925C269.04 328.677 269.376 328.538 269.726 328.538H272.025C272.259 328.538 272.489 328.492 272.704 328.402C272.919 328.312 273.114 328.18 273.278 328.014C273.441 327.848 273.57 327.651 273.657 327.435C273.744 327.219 273.787 326.987 273.784 326.754C273.771 326.287 273.576 325.843 273.239 325.518C272.903 325.193 272.452 325.013 271.985 325.017Z" fill="#5700C9"/>
<path d="M272.248 322.12C274.231 322.122 276.133 322.911 277.535 324.313C278.937 325.715 279.726 327.616 279.729 329.599V343.984C279.645 344.469 279.408 344.915 279.053 345.256C278.697 345.597 278.242 345.815 277.753 345.879H268.188C266.203 345.879 264.3 345.09 262.896 343.687C261.493 342.283 260.705 340.38 260.705 338.396V324.434C260.705 323.82 260.948 323.232 261.382 322.798C261.816 322.364 262.405 322.12 263.018 322.12H272.248ZM272.248 318.6H263.018C261.471 318.6 259.987 319.215 258.893 320.309C257.799 321.403 257.185 322.887 257.185 324.434V338.397C257.185 341.315 258.344 344.114 260.407 346.177C262.471 348.241 265.269 349.4 268.188 349.4H277.93C279.282 349.289 280.553 348.711 281.524 347.764C282.496 346.818 283.107 345.562 283.253 344.214V329.599C283.253 328.154 282.968 326.724 282.415 325.389C281.862 324.054 281.051 322.841 280.029 321.82C279.007 320.798 277.794 319.988 276.459 319.436C275.124 318.883 273.693 318.599 272.248 318.6Z" fill="#5700C9"/>
<rect x="322.28" y="306.28" width="55.44" height="55.44" rx="5.32" fill="#F0F3FA"/>
<rect x="322.28" y="306.28" width="55.44" height="55.44" rx="5.32" stroke="#D4D9E6" stroke-width="0.56"/>
<g clip-path="url(#clip2_1814_14978)">
<path d="M343.022 332.477L337.658 334.428C337.727 335.288 337.875 336.138 338.084 336.97L343.178 335.115C343.015 334.255 342.957 333.366 343.023 332.476" fill="#DA2430"/>
<path d="M366.727 326.545C366.353 325.774 365.92 325.028 365.419 324.325L360.057 326.277C360.681 326.915 361.204 327.633 361.633 328.4L366.727 326.545L366.727 326.545Z" fill="#DA2430"/>
<path d="M357.212 326.514C356.538 325.928 355.776 325.423 354.927 325.027H354.927C349.947 322.706 344.006 324.866 341.684 329.847C341.554 330.128 341.438 330.412 341.336 330.699C341.046 331.542 340.877 332.404 340.812 333.264L340.793 333.271C340.793 333.277 340.792 333.284 340.792 333.29L337.564 334.465L335.487 335.232C335.486 335.228 335.486 335.225 335.486 335.221L335.429 335.242C335.227 332.691 335.657 330.056 336.814 327.575C336.965 327.25 337.127 326.933 337.298 326.624C341.111 319.521 349.788 316.552 357.106 320.018C358.62 320.736 359.963 321.677 361.116 322.784C361.892 323.502 362.584 324.292 363.188 325.139L357.825 327.091C357.797 327.063 357.769 327.035 357.742 327.007L357.727 327.012C357.562 326.841 357.39 326.674 357.212 326.514Z" fill="#DA2430"/>
<path d="M335.728 343.896L335.72 343.899C334.604 342.328 333.792 340.563 333.323 338.705L338.419 336.849L338.419 336.849C338.42 336.855 338.421 336.86 338.422 336.866L338.456 336.854L338.456 336.856C338.718 338.242 339.263 339.564 340.057 340.727C340.36 341.159 340.699 341.569 341.071 341.951L341.051 341.958C341.063 341.972 341.076 341.985 341.089 341.999L335.775 343.963C335.759 343.941 335.744 343.918 335.728 343.896Z" fill="#E82429"/>
<path d="M355.967 342.524C353.204 344.233 349.66 344.563 346.502 343.09C345.385 342.569 344.412 341.865 343.599 341.03L338.248 342.979C338.262 342.998 338.275 343.017 338.289 343.036L338.286 343.037C339.758 345.139 341.765 346.896 344.228 348.064C349.539 350.579 355.566 349.704 359.93 346.32C361.884 344.857 363.515 342.906 364.617 340.543C365.774 338.063 366.202 335.429 365.997 332.88L365.848 332.934C365.846 332.907 365.844 332.879 365.842 332.852L360.527 334.815L360.528 334.816C360.443 335.987 360.152 337.162 359.634 338.288C358.806 340.094 357.513 341.532 355.967 342.524Z" fill="#DA2430"/>
<path d="M361.885 328.308L361.965 328.279V328.278C362.803 330.003 363.315 331.878 363.468 333.798L358.117 335.745C358.118 335.732 358.119 335.718 358.12 335.705L358.018 335.743C358.164 333.762 357.72 331.793 356.78 330.083L361.84 328.212L361.84 328.212C361.855 328.244 361.87 328.276 361.885 328.308Z" fill="#E82429"/>
<path d="M343.029 332.445L337.703 334.414C337.771 335.281 337.918 336.138 338.126 336.977L343.185 335.106C343.021 334.237 342.962 333.342 343.031 332.445" fill="#C22035"/>
<path d="M366.567 326.464C366.196 325.686 365.766 324.934 365.268 324.225L359.943 326.193C360.563 326.837 361.083 327.561 361.508 328.335L366.567 326.464L366.567 326.464Z" fill="#C22035"/>
<path d="M337.703 334.414L343.016 332.468L342.994 333.535L337.868 335.471L337.702 334.413L337.703 334.414Z" fill="#AC223B"/>
<path d="M359.943 326.177L365.339 324.326L365.9 325.172L360.657 327.025L359.944 326.177L359.943 326.177Z" fill="#AC223B"/>
<path d="M338.287 343.017L343.607 341.081L345.216 342.599L339.637 344.693L338.287 343.017L338.287 343.017Z" fill="#B92135"/>
<path d="M365.931 332.866L360.528 334.815L360.13 336.977L365.891 334.924L365.932 332.867L365.931 332.866Z" fill="#B92135"/>
</g>
<rect x="402.28" y="306.28" width="55.44" height="55.44" rx="5.32" fill="#F0F3FA"/>
<rect x="402.28" y="306.28" width="55.44" height="55.44" rx="5.32" stroke="#D4D9E6" stroke-width="0.56"/>
<g clip-path="url(#clip3_1814_14978)">
<path fill-rule="evenodd" clip-rule="evenodd" d="M444.707 325.359C446.369 328.353 447.103 331.774 446.816 335.186C446.529 338.599 445.234 341.849 443.096 344.524H433.861L436.704 339.497H432.943L437.376 331.687H441.158L444.707 325.367V325.359ZM426.469 344.524H417.052C414.874 341.86 413.553 338.601 413.261 335.172C412.97 331.744 413.722 328.308 415.419 325.316L421.528 335.925L428.261 324.2H438.168L426.473 344.515L426.469 344.524Z" fill="#000E9C"/>
</g>
<rect x="482.28" y="306.28" width="55.44" height="55.44" rx="5.32" fill="#F0F3FA"/>
<rect x="482.28" y="306.28" width="55.44" height="55.44" rx="5.32" stroke="#D4D9E6" stroke-width="0.56"/>
<path d="M504.921 346.904H515.083C515.305 346.904 515.453 346.83 515.676 346.756C515.824 346.682 515.973 346.533 516.121 346.385L522.574 338.3C522.722 338.152 522.797 337.929 522.797 337.781C522.871 337.558 522.871 337.41 522.797 337.188L520.349 327.323C520.275 327.174 520.2 326.952 520.126 326.803C519.978 326.655 519.83 326.507 519.681 326.433L510.632 321.834C510.261 321.686 509.816 321.686 509.445 321.834L500.248 326.433C500.1 326.507 499.951 326.655 499.803 326.803C499.655 326.952 499.581 327.1 499.581 327.323L497.207 337.188C497.133 337.41 497.133 337.558 497.207 337.781C497.281 338.004 497.355 338.152 497.43 338.3L503.957 346.385C504.105 346.533 504.253 346.682 504.402 346.756C504.55 346.83 504.698 346.904 504.921 346.904ZM515.083 345.495H504.921L498.468 337.484L500.767 327.619L509.965 323.095L519.014 327.619L521.461 337.484L515.083 345.495Z" fill="#238FCF"/>
<path d="M498.319 324.578L497.132 323.614L509.296 317.606V319.09L498.319 324.578Z" fill="#1BBFD3"/>
<path d="M525.022 338.745L526.505 339.042L518.049 349.723L517.382 348.388L525.022 338.745Z" fill="#79BF43"/>
<path d="M510.706 319.164V317.68L522.722 323.688L521.609 324.653L510.706 319.164Z" fill="#1BBFD3"/>
<path d="M522.35 325.691L523.536 324.727L526.8 337.781L525.317 337.484L522.35 325.691Z" fill="#1D4489"/>
<path d="M494.684 337.41L493.2 337.707L496.315 324.727L497.502 325.691L494.684 337.41Z" fill="#1D4489"/>
<path d="M494.981 338.745L502.77 348.388L502.102 349.723L493.498 339.116L494.981 338.745Z" fill="#79BF43"/>
<path d="M516.121 348.981L516.788 350.39H503.289L503.957 348.981H516.121Z" fill="#1BBFD3"/>
<rect x="82.28" y="223.78" width="55.44" height="55.44" rx="5.32" fill="#F0F3FA"/>
<rect x="82.28" y="223.78" width="55.44" height="55.44" rx="5.32" stroke="#D4D9E6" stroke-width="0.56"/>
<path d="M103.28 250.516C103.28 250.895 103.321 251.203 103.393 251.428C103.475 251.653 103.577 251.899 103.721 252.166C103.772 252.248 103.793 252.33 103.793 252.401C103.793 252.504 103.731 252.606 103.598 252.709L102.953 253.139C102.86 253.2 102.768 253.231 102.686 253.231C102.584 253.231 102.481 253.18 102.379 253.088C102.235 252.934 102.113 252.77 102.01 252.606C101.908 252.432 101.805 252.237 101.693 252.002C100.894 252.944 99.8896 253.415 98.6808 253.415C97.8204 253.415 97.134 253.17 96.6321 252.678C96.1301 252.186 95.874 251.531 95.874 250.711C95.874 249.84 96.1813 249.133 96.8062 248.601C97.4311 248.068 98.2608 247.802 99.316 247.802C99.6643 247.802 100.023 247.832 100.402 247.884C100.781 247.935 101.17 248.017 101.58 248.109V247.361C101.58 246.583 101.416 246.04 101.098 245.722C100.771 245.405 100.217 245.251 99.4286 245.251C99.0701 245.251 98.7013 245.292 98.3223 245.384C97.9433 245.476 97.5745 245.589 97.216 245.733C97.0521 245.804 96.9291 245.845 96.8574 245.866C96.7857 245.886 96.7345 245.896 96.6935 245.896C96.5501 245.896 96.4784 245.794 96.4784 245.579V245.077C96.4784 244.913 96.4989 244.79 96.5501 244.718C96.6013 244.647 96.6935 244.575 96.8369 244.503C97.1955 244.319 97.6257 244.165 98.1277 244.042C98.6296 243.909 99.1623 243.848 99.7257 243.848C100.945 243.848 101.836 244.124 102.41 244.677C102.973 245.231 103.26 246.071 103.26 247.197V250.516H103.28ZM99.1213 252.073C99.4594 252.073 99.8077 252.012 100.176 251.889C100.545 251.766 100.873 251.541 101.15 251.233C101.314 251.039 101.436 250.824 101.498 250.578C101.559 250.332 101.6 250.035 101.6 249.687V249.256C101.303 249.185 100.986 249.123 100.658 249.082C100.33 249.041 100.013 249.021 99.695 249.021C99.0086 249.021 98.5067 249.154 98.1686 249.431C97.8306 249.707 97.6667 250.096 97.6667 250.609C97.6667 251.09 97.7896 251.449 98.0457 251.694C98.2916 251.951 98.6501 252.073 99.1213 252.073ZM107.347 253.18C107.163 253.18 107.04 253.149 106.958 253.077C106.876 253.016 106.804 252.872 106.743 252.678L104.335 244.759C104.274 244.554 104.243 244.421 104.243 244.35C104.243 244.186 104.325 244.093 104.489 244.093H105.493C105.688 244.093 105.821 244.124 105.893 244.196C105.974 244.257 106.036 244.401 106.097 244.595L107.818 251.377L109.416 244.595C109.468 244.391 109.529 244.257 109.611 244.196C109.693 244.134 109.836 244.093 110.021 244.093H110.84C111.035 244.093 111.168 244.124 111.25 244.196C111.332 244.257 111.404 244.401 111.445 244.595L113.063 251.459L114.835 244.595C114.897 244.391 114.969 244.257 115.04 244.196C115.122 244.134 115.255 244.093 115.44 244.093H116.392C116.556 244.093 116.649 244.175 116.649 244.35C116.649 244.401 116.638 244.452 116.628 244.513C116.618 244.575 116.597 244.657 116.556 244.77L114.088 252.688C114.026 252.893 113.954 253.026 113.872 253.088C113.791 253.149 113.657 253.19 113.483 253.19H112.602C112.408 253.19 112.274 253.159 112.192 253.088C112.111 253.016 112.039 252.883 111.998 252.678L110.41 246.071L108.833 252.668C108.781 252.872 108.72 253.006 108.638 253.077C108.556 253.149 108.413 253.18 108.228 253.18H107.347ZM120.511 253.456C119.978 253.456 119.445 253.395 118.933 253.272C118.421 253.149 118.021 253.016 117.755 252.862C117.591 252.77 117.478 252.668 117.437 252.575C117.396 252.483 117.376 252.381 117.376 252.289V251.766C117.376 251.551 117.458 251.449 117.611 251.449C117.673 251.449 117.734 251.459 117.796 251.479C117.857 251.5 117.95 251.541 118.052 251.582C118.4 251.735 118.779 251.858 119.179 251.94C119.589 252.022 119.988 252.063 120.398 252.063C121.043 252.063 121.545 251.951 121.893 251.725C122.242 251.5 122.426 251.172 122.426 250.752C122.426 250.465 122.334 250.23 122.15 250.035C121.965 249.84 121.617 249.666 121.115 249.502L119.63 249.041C118.882 248.806 118.329 248.457 117.991 247.996C117.652 247.546 117.478 247.044 117.478 246.511C117.478 246.081 117.571 245.702 117.755 245.374C117.939 245.046 118.185 244.759 118.492 244.534C118.8 244.298 119.148 244.124 119.558 244.001C119.968 243.878 120.398 243.827 120.849 243.827C121.074 243.827 121.31 243.837 121.535 243.868C121.771 243.899 121.986 243.94 122.201 243.981C122.406 244.032 122.6 244.083 122.785 244.145C122.969 244.206 123.112 244.268 123.215 244.329C123.358 244.411 123.461 244.493 123.522 244.585C123.584 244.667 123.614 244.78 123.614 244.923V245.405C123.614 245.62 123.532 245.733 123.379 245.733C123.297 245.733 123.164 245.692 122.99 245.61C122.406 245.343 121.75 245.21 121.023 245.21C120.439 245.21 119.978 245.302 119.66 245.497C119.343 245.692 119.179 245.989 119.179 246.409C119.179 246.695 119.281 246.941 119.486 247.136C119.691 247.331 120.07 247.525 120.613 247.699L122.068 248.16C122.805 248.396 123.338 248.724 123.655 249.144C123.973 249.564 124.127 250.045 124.127 250.578C124.127 251.018 124.034 251.418 123.86 251.766C123.676 252.114 123.43 252.422 123.112 252.668C122.795 252.924 122.416 253.108 121.975 253.241C121.514 253.385 121.033 253.456 120.511 253.456Z" fill="#161E33"/>
<path fill-rule="evenodd" clip-rule="evenodd" d="M122.448 258.435C119.077 260.924 114.181 262.246 109.971 262.246C104.07 262.246 98.7536 260.064 94.738 256.437C94.4205 256.151 94.7073 255.761 95.0863 255.987C99.4297 258.507 104.787 260.033 110.329 260.033C114.068 260.033 118.176 259.254 121.956 257.656C122.519 257.4 123.001 258.025 122.448 258.435Z" fill="#FF9900"/>
<path fill-rule="evenodd" clip-rule="evenodd" d="M123.85 256.837C123.42 256.284 121.002 256.571 119.906 256.704C119.578 256.745 119.527 256.458 119.824 256.243C121.75 254.891 124.915 255.28 125.284 255.731C125.653 256.192 125.181 259.357 123.379 260.873C123.102 261.109 122.836 260.986 122.959 260.678C123.368 259.664 124.28 257.38 123.85 256.837Z" fill="#FF9900"/>
<rect x="162.28" y="223.78" width="55.44" height="55.44" rx="5.32" fill="#F0F3FA"/>
<rect x="162.28" y="223.78" width="55.44" height="55.44" rx="5.32" stroke="#D4D9E6" stroke-width="0.56"/>
<path d="M185.333 238.818H193.619L185.018 264.303C184.929 264.564 184.761 264.792 184.537 264.953C184.312 265.114 184.043 265.201 183.766 265.201H177.318C177.109 265.201 176.902 265.151 176.716 265.056C176.53 264.96 176.369 264.822 176.247 264.652C176.124 264.481 176.045 264.285 176.014 264.078C175.983 263.871 176.001 263.659 176.068 263.461L184.082 239.717C184.17 239.455 184.338 239.227 184.563 239.066C184.787 238.905 185.057 238.818 185.333 238.818Z" fill="url(#paint0_linear_1814_14978)"/>
<path d="M197.373 255.912H184.235C184.113 255.911 183.993 255.948 183.892 256.017C183.791 256.085 183.713 256.183 183.668 256.297C183.624 256.41 183.614 256.535 183.641 256.654C183.668 256.773 183.73 256.881 183.819 256.965L192.262 264.845C192.508 265.074 192.832 265.201 193.168 265.201H200.607L197.373 255.912Z" fill="#0078D4"/>
<path d="M185.333 238.818C185.053 238.817 184.781 238.906 184.555 239.071C184.329 239.235 184.162 239.468 184.078 239.735L176.077 263.439C176.006 263.638 175.984 263.852 176.012 264.061C176.04 264.271 176.119 264.471 176.241 264.643C176.363 264.816 176.525 264.957 176.713 265.054C176.901 265.151 177.109 265.202 177.321 265.201H183.935C184.182 265.157 184.412 265.049 184.603 264.887C184.793 264.724 184.938 264.515 185.021 264.278L186.616 259.576L192.315 264.892C192.554 265.09 192.854 265.199 193.163 265.201H200.575L197.325 255.912L187.848 255.914L193.648 238.818H185.333Z" fill="url(#paint1_linear_1814_14978)"/>
<path d="M195.917 239.716C195.828 239.454 195.66 239.227 195.436 239.066C195.212 238.905 194.943 238.818 194.667 238.818H185.433C185.709 238.818 185.978 238.905 186.202 239.066C186.426 239.227 186.594 239.454 186.683 239.716L194.696 263.46C194.763 263.659 194.782 263.87 194.751 264.078C194.72 264.285 194.64 264.481 194.518 264.652C194.396 264.822 194.235 264.96 194.049 265.056C193.862 265.152 193.656 265.202 193.446 265.202H202.681C202.89 265.202 203.097 265.152 203.283 265.056C203.469 264.96 203.63 264.822 203.752 264.652C203.874 264.481 203.954 264.285 203.985 264.077C204.016 263.87 203.997 263.659 203.93 263.46L195.917 239.716Z" fill="url(#paint2_linear_1814_14978)"/>
<rect x="242.28" y="223.78" width="55.44" height="55.44" rx="5.32" fill="#F0F3FA"/>
<rect x="242.28" y="223.78" width="55.44" height="55.44" rx="5.32" stroke="#D4D9E6" stroke-width="0.56"/>
<path d="M274.145 245.452H275.085L277.762 242.775L277.894 241.639C276.36 240.285 274.506 239.344 272.508 238.906C270.51 238.468 268.433 238.547 266.473 239.134C264.514 239.722 262.737 240.799 261.309 242.265C259.882 243.73 258.852 245.535 258.316 247.51C258.615 247.387 258.945 247.368 259.256 247.453L264.61 246.57C264.61 246.57 264.883 246.119 265.024 246.148C266.171 244.888 267.757 244.114 269.456 243.984C271.155 243.855 272.839 244.38 274.164 245.452H274.145Z" fill="#EA4335"/>
<path d="M281.575 247.51C280.96 245.244 279.696 243.206 277.94 241.648L274.182 245.405C274.965 246.045 275.593 246.855 276.017 247.772C276.442 248.69 276.653 249.692 276.634 250.704V251.371C277.073 251.371 277.508 251.457 277.914 251.625C278.319 251.793 278.688 252.039 278.999 252.35C279.309 252.661 279.555 253.029 279.724 253.435C279.892 253.841 279.978 254.276 279.978 254.715C279.978 255.154 279.892 255.589 279.724 255.994C279.555 256.4 279.309 256.769 278.999 257.079C278.688 257.39 278.319 257.636 277.914 257.804C277.508 257.972 277.073 258.059 276.634 258.059H269.945L269.278 258.735V262.746L269.945 263.413H276.634C278.502 263.428 280.324 262.841 281.833 261.739C283.341 260.637 284.455 259.08 285.009 257.296C285.563 255.512 285.528 253.598 284.91 251.835C284.291 250.073 283.122 248.556 281.575 247.51Z" fill="#4285F4"/>
<path d="M263.247 263.376H269.936V258.021H263.247C262.771 258.021 262.3 257.919 261.866 257.721L260.927 258.012L258.231 260.689L257.996 261.629C259.508 262.77 261.353 263.384 263.247 263.376Z" fill="#34A853"/>
<path d="M263.247 246.007C261.434 246.017 259.671 246.594 258.202 247.656C256.733 248.718 255.633 250.212 255.054 251.929C254.476 253.647 254.449 255.502 254.976 257.236C255.503 258.97 256.559 260.496 257.995 261.6L261.875 257.721C261.382 257.498 260.95 257.159 260.617 256.733C260.284 256.306 260.059 255.806 259.962 255.274C259.865 254.741 259.898 254.194 260.059 253.677C260.221 253.161 260.505 252.691 260.887 252.308C261.27 251.926 261.739 251.642 262.256 251.481C262.772 251.32 263.32 251.286 263.852 251.383C264.385 251.48 264.885 251.705 265.312 252.038C265.738 252.372 266.077 252.803 266.3 253.296L270.179 249.417C269.365 248.352 268.315 247.49 267.113 246.899C265.91 246.307 264.587 246.002 263.247 246.007Z" fill="#FBBC05"/>
<rect x="322.28" y="223.78" width="55.44" height="55.44" rx="5.32" fill="#F0F3FA"/>
<rect x="322.28" y="223.78" width="55.44" height="55.44" rx="5.32" stroke="#D4D9E6" stroke-width="0.56"/>
<g clip-path="url(#clip4_1814_14978)">
<path d="M366.782 247.526L366.415 245.337C366.297 244.631 366.018 244.058 365.812 244.058C365.592 244.058 365.416 244.646 365.416 245.351V245.924C365.416 246.63 364.828 247.218 364.122 247.218H363.549C363.505 247.218 363.461 247.218 363.432 247.218V248.79C363.476 248.79 363.52 248.79 363.549 248.79H365.709C366.415 248.79 366.9 248.217 366.782 247.526Z" fill="#2453FF"/>
<path d="M361.624 245.675H358.141C358.112 245.675 358.082 245.675 358.053 245.675H354.467C354.423 245.675 354.379 245.675 354.35 245.689V245.351C354.35 244.646 354.173 244.058 353.953 244.058C353.732 244.058 353.468 244.631 353.35 245.337L352.983 247.526C352.865 248.232 353.35 248.805 354.07 248.805H356.216C356.436 248.805 356.642 248.775 356.833 248.717C356.76 249.084 356.451 249.363 356.054 249.363H353.042C352.557 249.363 352.189 248.922 352.263 248.437L352.571 246.6C352.645 246.115 352.277 245.675 351.792 245.675H336.773C336.45 245.675 336.185 245.866 336.053 246.145L333.232 250.451C333.188 250.524 333.188 250.612 333.246 250.686L333.79 251.332C333.864 251.421 333.981 251.421 334.069 251.362L335.994 249.848V259.048C335.994 259.489 336.347 259.841 336.788 259.841H341.05C341.491 259.841 341.843 259.489 341.843 259.048V255.844C341.843 255.403 342.196 255.051 342.637 255.051H353.277C353.718 255.051 354.07 255.403 354.07 255.844V259.048C354.07 259.489 354.423 259.841 354.864 259.841H359.126C359.567 259.841 359.919 259.489 359.919 259.048V255.609H357.656C356.951 255.609 356.363 255.021 356.363 254.316V252.097C356.363 251.671 356.569 251.303 356.877 251.068V253.713C356.877 254.419 357.465 255.006 358.17 255.006H361.653C362.359 255.006 362.947 254.419 362.947 253.713V246.983C362.917 246.248 362.344 245.675 361.624 245.675Z" fill="#2453FF"/>
</g>
<rect x="402.28" y="223.78" width="55.44" height="55.44" rx="5.32" fill="#F0F3FA"/>
<rect x="402.28" y="223.78" width="55.44" height="55.44" rx="5.32" stroke="#D4D9E6" stroke-width="0.56"/>
<g clip-path="url(#clip5_1814_14978)">
<path d="M424.904 238.3C424.756 238.057 424.548 237.856 424.3 237.716C424.052 237.576 423.773 237.502 423.488 237.5H414.88C414.435 237.5 414.007 237.677 413.692 237.992C413.377 238.307 413.2 238.734 413.2 239.18C413.2 239.497 413.289 239.807 413.456 240.076L415.672 243.332L426.752 240.932L424.904 238.3Z" fill="#C9F4FF"/>
<path d="M426.801 240.996C426.651 240.753 426.441 240.552 426.192 240.412C425.943 240.272 425.662 240.198 425.377 240.196H416.801C416.493 240.182 416.186 240.253 415.916 240.402C415.646 240.551 415.422 240.772 415.27 241.041C415.117 241.309 415.042 241.614 415.053 241.923C415.063 242.231 415.159 242.531 415.329 242.788L417.801 246.708L429.249 244.916L426.801 240.996Z" fill="#51B9FF"/>
<path d="M417.697 246.548C417.558 246.326 417.473 246.074 417.446 245.814C417.42 245.553 417.454 245.29 417.545 245.044C417.671 244.724 417.891 244.449 418.177 244.257C418.463 244.066 418.801 243.966 419.145 243.972H427.721C428.007 243.973 428.288 244.047 428.537 244.187C428.786 244.327 428.995 244.529 429.145 244.772L436.849 256.988C437.016 257.257 437.105 257.567 437.105 257.884C437.104 258.201 437.015 258.511 436.849 258.78L432.545 265.604C432.393 265.844 432.182 266.041 431.933 266.177C431.684 266.314 431.405 266.386 431.121 266.386C430.837 266.386 430.558 266.314 430.309 266.177C430.06 266.041 429.85 265.844 429.697 265.604L417.697 246.548Z" fill="#007BFC"/>
<path d="M439.393 250.452C439.545 250.692 439.756 250.889 440.005 251.025C440.254 251.162 440.533 251.234 440.817 251.234C441.101 251.234 441.38 251.162 441.629 251.025C441.878 250.889 442.088 250.692 442.241 250.452L443.721 248.108L446.545 243.628C446.712 243.359 446.801 243.049 446.801 242.732C446.8 242.416 446.711 242.105 446.545 241.836L444.305 238.3C444.155 238.057 443.945 237.856 443.696 237.716C443.447 237.576 443.167 237.502 442.881 237.5H434.273C434.052 237.5 433.834 237.544 433.63 237.628C433.426 237.712 433.241 237.836 433.085 237.992C432.929 238.148 432.805 238.333 432.721 238.537C432.636 238.741 432.593 238.959 432.593 239.18C432.59 239.498 432.682 239.81 432.857 240.076L439.393 250.452Z" fill="#007BFC"/>
</g>
<rect x="234.36" y="92.86" width="71.28" height="71.28" rx="6.84" fill="#F0F3FA"/>
<rect x="234.36" y="92.86" width="71.28" height="71.28" rx="6.84" stroke="#D4D9E6" stroke-width="0.72"/>
<g clip-path="url(#clip6_1814_14978)">
<path d="M269.855 108.128C269.483 108.146 269.12 108.238 268.785 108.398L254.182 115.376C253.804 115.556 253.472 115.819 253.21 116.144C252.949 116.469 252.764 116.849 252.671 117.255L249.068 132.928C248.985 133.289 248.976 133.663 249.041 134.028C249.106 134.392 249.244 134.74 249.447 135.051C249.497 135.127 249.55 135.201 249.606 135.272L259.714 147.839C259.975 148.164 260.307 148.426 260.685 148.607C261.063 148.787 261.477 148.881 261.897 148.881L278.106 148.877C278.525 148.877 278.939 148.784 279.317 148.604C279.695 148.424 280.027 148.162 280.289 147.837L290.393 135.268C290.655 134.942 290.839 134.563 290.933 134.157C291.026 133.751 291.026 133.33 290.933 132.924L287.325 117.251C287.231 116.845 287.047 116.466 286.785 116.14C286.524 115.815 286.192 115.553 285.814 115.372L271.209 108.398C270.787 108.197 270.322 108.104 269.855 108.128Z" fill="#326CE5"/>
<path d="M270 113.461C269.517 113.461 269.125 113.896 269.126 114.433C269.126 114.441 269.127 114.449 269.127 114.457C269.127 114.53 269.123 114.617 269.126 114.681C269.137 114.99 269.204 115.227 269.245 115.512C269.319 116.122 269.38 116.628 269.342 117.098C269.305 117.275 269.175 117.437 269.058 117.55L269.038 117.919C268.513 117.963 267.985 118.042 267.458 118.162C265.188 118.677 263.234 119.846 261.747 121.425C261.65 121.359 261.481 121.238 261.431 121.201C261.275 121.222 261.117 121.27 260.912 121.15C260.521 120.887 260.164 120.524 259.733 120.086C259.536 119.876 259.393 119.677 259.158 119.475C259.105 119.429 259.023 119.367 258.964 119.32C258.78 119.174 258.564 119.098 258.355 119.09C258.086 119.081 257.828 119.186 257.658 119.399C257.357 119.776 257.454 120.353 257.873 120.687C257.877 120.691 257.882 120.693 257.886 120.697C257.944 120.743 258.014 120.803 258.067 120.842C258.316 121.026 258.544 121.12 258.792 121.266C259.315 121.589 259.748 121.857 260.092 122.179C260.226 122.322 260.25 122.575 260.267 122.684L260.548 122.934C259.048 125.191 258.354 127.979 258.764 130.819L258.398 130.925C258.301 131.05 258.165 131.246 258.023 131.305C257.573 131.446 257.067 131.498 256.456 131.562C256.169 131.586 255.921 131.572 255.617 131.63C255.55 131.642 255.457 131.667 255.384 131.684C255.381 131.684 255.379 131.685 255.376 131.686C255.372 131.687 255.367 131.688 255.363 131.689C254.848 131.814 254.517 132.287 254.623 132.754C254.73 133.221 255.233 133.504 255.752 133.393C255.755 133.392 255.761 133.392 255.765 133.391C255.77 133.389 255.776 133.387 255.781 133.385C255.854 133.369 255.944 133.352 256.007 133.335C256.306 133.255 256.523 133.137 256.792 133.034C257.37 132.827 257.849 132.653 258.316 132.586C258.511 132.571 258.716 132.706 258.818 132.763L259.199 132.698C260.076 135.416 261.913 137.613 264.24 138.992L264.081 139.373C264.138 139.521 264.201 139.721 264.159 139.867C263.989 140.307 263.699 140.771 263.368 141.289C263.207 141.528 263.043 141.714 262.899 141.987C262.864 142.053 262.82 142.153 262.787 142.223C262.562 142.703 262.727 143.257 263.158 143.465C263.593 143.674 264.132 143.453 264.365 142.972C264.365 142.971 264.366 142.97 264.367 142.97C264.367 142.969 264.367 142.968 264.367 142.968C264.4 142.9 264.447 142.81 264.475 142.746C264.599 142.462 264.64 142.219 264.727 141.944C264.959 141.364 265.086 140.754 265.404 140.374C265.491 140.27 265.633 140.23 265.781 140.191L265.979 139.832C268.007 140.611 270.277 140.82 272.545 140.305C273.063 140.187 273.562 140.035 274.045 139.853C274.1 139.951 274.204 140.141 274.232 140.189C274.381 140.238 274.545 140.263 274.678 140.46C274.916 140.867 275.079 141.348 275.277 141.929C275.365 142.204 275.408 142.447 275.531 142.731C275.56 142.795 275.607 142.886 275.64 142.955C275.873 143.438 276.413 143.659 276.848 143.45C277.28 143.242 277.445 142.688 277.22 142.208C277.186 142.139 277.14 142.038 277.106 141.972C276.961 141.699 276.797 141.515 276.637 141.276C276.306 140.758 276.032 140.328 275.862 139.888C275.791 139.661 275.874 139.52 275.929 139.373C275.896 139.335 275.825 139.121 275.784 139.02C278.201 137.592 279.985 135.313 280.822 132.681C280.936 132.699 281.132 132.734 281.196 132.746C281.327 132.66 281.448 132.547 281.685 132.565C282.152 132.633 282.631 132.806 283.209 133.013C283.478 133.116 283.695 133.236 283.994 133.316C284.057 133.333 284.147 133.349 284.22 133.365C284.225 133.366 284.231 133.369 284.236 133.37C284.24 133.371 284.246 133.371 284.25 133.372C284.768 133.484 285.271 133.2 285.378 132.733C285.484 132.267 285.153 131.793 284.638 131.669C284.563 131.652 284.457 131.623 284.384 131.609C284.08 131.551 283.832 131.566 283.545 131.542C282.934 131.478 282.428 131.426 281.978 131.284C281.795 131.213 281.665 130.995 281.601 130.905L281.248 130.802C281.431 129.478 281.382 128.1 281.065 126.721C280.746 125.33 280.181 124.057 279.427 122.936C279.518 122.853 279.689 122.702 279.737 122.658C279.752 122.501 279.739 122.336 279.902 122.163C280.245 121.84 280.679 121.572 281.202 121.249C281.45 121.103 281.679 121.009 281.928 120.825C281.984 120.784 282.061 120.718 282.12 120.67C282.54 120.336 282.636 119.759 282.335 119.382C282.034 119.004 281.451 118.969 281.032 119.303C280.972 119.351 280.891 119.412 280.837 119.458C280.603 119.66 280.458 119.86 280.26 120.069C279.829 120.507 279.473 120.872 279.082 121.135C278.912 121.234 278.664 121.2 278.551 121.193L278.219 121.43C276.323 119.443 273.742 118.172 270.963 117.925C270.955 117.809 270.945 117.598 270.943 117.535C270.829 117.426 270.692 117.333 270.657 117.098C270.619 116.628 270.682 116.122 270.756 115.512C270.797 115.227 270.864 114.99 270.875 114.681C270.878 114.611 270.874 114.509 270.874 114.433C270.874 113.896 270.482 113.461 270 113.461ZM268.905 120.241L268.646 124.826L268.627 124.835C268.609 125.245 268.272 125.573 267.857 125.573C267.688 125.573 267.531 125.518 267.404 125.425L267.396 125.429L263.637 122.764C264.792 121.628 266.27 120.788 267.973 120.401C268.284 120.331 268.595 120.278 268.905 120.241ZM271.096 120.241C273.084 120.485 274.923 121.386 276.333 122.766L272.597 125.414L272.584 125.409C272.253 125.651 271.786 125.591 271.527 125.267C271.421 125.134 271.366 124.978 271.359 124.82L271.355 124.818L271.096 120.241ZM262.273 124.477L265.706 127.547L265.702 127.566C266.012 127.835 266.058 128.302 265.799 128.626C265.693 128.759 265.552 128.848 265.4 128.89L265.396 128.905L260.996 130.175C260.772 128.127 261.254 126.136 262.273 124.477ZM277.702 124.478C278.212 125.305 278.598 126.228 278.828 127.229C279.055 128.218 279.112 129.206 279.018 130.16L274.596 128.886L274.592 128.867C274.196 128.759 273.953 128.356 274.045 127.952C274.083 127.787 274.17 127.647 274.289 127.543L274.288 127.534L277.702 124.478ZM269.295 127.784H270.702L271.576 128.877L271.262 130.24L270 130.847L268.733 130.238L268.42 128.875L269.295 127.784ZM273.804 131.523C273.864 131.52 273.923 131.525 273.981 131.536L273.989 131.527L278.54 132.296C277.874 134.168 276.599 135.789 274.896 136.874L273.13 132.606L273.135 132.599C272.973 132.222 273.135 131.78 273.509 131.6C273.604 131.554 273.704 131.528 273.804 131.523ZM266.16 131.542C266.507 131.547 266.819 131.788 266.899 132.141C266.937 132.307 266.919 132.471 266.856 132.616L266.869 132.632L265.121 136.857C263.487 135.808 262.185 134.238 261.489 132.311L266.001 131.546L266.008 131.555C266.059 131.546 266.11 131.541 266.16 131.542ZM269.972 133.393C270.093 133.388 270.215 133.413 270.332 133.469C270.485 133.543 270.603 133.659 270.678 133.798H270.694L272.919 137.817C272.63 137.914 272.333 137.996 272.03 138.065C270.329 138.452 268.633 138.335 267.097 137.811L269.316 133.8H269.32C269.453 133.551 269.705 133.402 269.972 133.393Z" fill="white"/>
</g>
<path fill-rule="evenodd" clip-rule="evenodd" d="M297.433 15.9995L269.718 32L269.72 64L297.433 47.9994V15.9995Z" fill="url(#paint3_linear_1814_14978)"/>
<path fill-rule="evenodd" clip-rule="evenodd" d="M242.003 15.9995L269.718 32L269.716 64L242.003 47.9994V15.9995Z" fill="url(#paint4_linear_1814_14978)"/>
<path fill-rule="evenodd" clip-rule="evenodd" d="M297.429 16L269.72 32L242.004 16L269.716 0L297.429 16Z" fill="url(#paint5_linear_1814_14978)"/>
<g clip-path="url(#clip7_1814_14978)">
<path fill-rule="evenodd" clip-rule="evenodd" d="M282.52 24.7281L282.521 24.7272L276.222 21.0908L269.925 17.4545L263.625 21.0908L257.328 24.7272L257.328 24.728V39.2725L263.626 42.9088L269.925 46.5454V46.5458L273.955 44.2208L273.955 44.2205L273.955 44.2204V39.2726L269.925 41.5997L265.768 39.2001L261.612 36.8007V27.2013L265.768 24.8018L269.925 22.4024L274.081 24.8018L278.238 27.2013V46.5456L278.238 46.5454L278.238 46.5467L282.522 44.0745V24.7283L282.52 24.7281ZM269.925 36.6537L273.955 34.3268V29.6749L269.925 27.348L265.896 29.6749V34.3268L269.925 36.6537Z" fill="white"/>
</g>
<defs>
<linearGradient id="paint0_linear_1814_14978" x1="188.353" y1="240.773" x2="179.749" y2="266.194" gradientUnits="userSpaceOnUse">
<stop stop-color="#114A8B"/>
<stop offset="1" stop-color="#0669BC"/>
</linearGradient>
<linearGradient id="paint1_linear_1814_14978" x1="191.04" y1="252.62" x2="189.05" y2="253.293" gradientUnits="userSpaceOnUse">
<stop stop-opacity="0.3"/>
<stop offset="0.071" stop-opacity="0.2"/>
<stop offset="0.321" stop-opacity="0.1"/>
<stop offset="0.623" stop-opacity="0.05"/>
<stop offset="1" stop-opacity="0"/>
</linearGradient>
<linearGradient id="paint2_linear_1814_14978" x1="189.947" y1="240.032" x2="199.392" y2="265.196" gradientUnits="userSpaceOnUse">
<stop stop-color="#3CCBF4"/>
<stop offset="1" stop-color="#2892DF"/>
</linearGradient>
<linearGradient id="paint3_linear_1814_14978" x1="283.575" y1="15.9995" x2="283.575" y2="64" gradientUnits="userSpaceOnUse">
<stop stop-color="#161E33"/>
<stop offset="1" stop-color="#0E1424"/>
</linearGradient>
<linearGradient id="paint4_linear_1814_14978" x1="255.86" y1="15.9995" x2="255.86" y2="64" gradientUnits="userSpaceOnUse">
<stop stop-color="#161E33"/>
<stop offset="1" stop-color="#0E1424"/>
</linearGradient>
<linearGradient id="paint5_linear_1814_14978" x1="269.717" y1="0" x2="269.717" y2="32" gradientUnits="userSpaceOnUse">
<stop stop-color="#2F3F6D"/>
<stop offset="0.355174" stop-color="#233053"/>
<stop offset="1" stop-color="#0E1424"/>
</linearGradient>
<clipPath id="clip0_1814_14978">
<rect width="33.6" height="33.6" fill="white" transform="translate(93.2002 317.2)"/>
</clipPath>
<clipPath id="clip1_1814_14978">
<rect width="33.6" height="33.6" fill="white" transform="translate(173.2 317.2)"/>
</clipPath>
<clipPath id="clip2_1814_14978">
<rect width="33.6" height="33.6" fill="white" transform="translate(333.2 317.2)"/>
</clipPath>
<clipPath id="clip3_1814_14978">
<rect width="33.6" height="33.6" fill="white" transform="translate(413.2 317.2)"/>
</clipPath>
<clipPath id="clip4_1814_14978">
<rect width="33.6" height="33.6" fill="white" transform="translate(333.2 234.7)"/>
</clipPath>
<clipPath id="clip5_1814_14978">
<rect width="33.6" height="33.6" fill="white" transform="translate(413.2 234.7)"/>
</clipPath>
<clipPath id="clip6_1814_14978">
<rect width="43.2" height="43.2" fill="white" transform="translate(248.4 106.9)"/>
</clipPath>
<clipPath id="clip7_1814_14978">
<rect width="25.0909" height="29.0909" fill="white" transform="translate(257.328 17.4545)"/>
</clipPath>
</defs>
</svg>
