<svg width="88" height="21" viewBox="0 0 88 21" fill="none" xmlns="http://www.w3.org/2000/svg">
<g id="Aracor" clip-path="url(#clip0_8943_4322)">
<path id="Vector" d="M9.34522 4.24975L6.81722 11.5138H11.9372L9.34522 4.24975ZM6.91322 18.8738V20.2178H0.449219V18.8738H2.49722L8.80122 1.59375H11.2652L17.7612 18.8738H19.7452V20.2178H12.2572V18.8738H14.5932L12.4172 12.8258H6.33722L4.22522 18.8738H6.91322ZM27.4847 19.0658V20.2178H20.2527V19.0658H22.1407V7.73775H20.2527V6.58575H24.9567V8.95375C26.2047 7.73775 27.6447 6.26575 28.7647 6.26575C29.8207 6.26575 30.7488 6.93775 31.2607 7.54575L29.7568 9.88175C28.7968 9.20975 28.0287 8.60175 27.1647 8.60175C26.7488 8.60175 25.9167 8.79375 24.9567 9.65775V19.0658H27.4847ZM38.8507 11.1298C38.8507 9.46575 38.0187 8.12175 36.0027 8.12175C34.5307 8.12175 33.3467 9.20975 32.6427 10.8418L31.4587 10.3617C32.3547 7.99375 34.3067 6.26575 36.9627 6.26575C39.7787 6.26575 41.6667 8.02575 41.6667 11.0017V17.7858C41.6667 18.5858 42.0507 18.9058 42.5947 18.9058C43.1067 18.9058 43.5547 18.6497 43.9067 18.3298L44.5147 19.1298C43.8748 19.8338 42.9467 20.5378 41.8907 20.5378C40.4827 20.5378 39.3307 19.8338 38.8827 18.2338C37.9547 19.3858 36.3867 20.5058 34.6907 20.5058C32.8667 20.5058 31.2347 19.3218 31.2347 17.2418C31.2347 15.2578 32.8987 14.2658 34.9147 13.5298L38.8507 12.1218V11.1298ZM38.8507 13.2418L36.1627 14.2658C34.8507 14.7778 34.0187 15.4498 34.0187 16.6978C34.0187 18.1058 34.7867 18.8418 35.8747 18.8418C37.0267 18.8418 38.0827 18.1698 38.8507 17.3378V13.2418ZM51.3035 7.44975C49.2875 7.44975 47.3355 9.27375 47.3355 12.5058C47.3355 16.2818 49.7355 18.7778 52.4235 18.7778C53.5115 18.7778 54.6315 18.4258 55.6875 17.2418L56.3275 17.8818C55.0155 19.6738 53.1915 20.5378 51.2715 20.5378C47.7515 20.5378 44.6475 17.8818 44.6475 13.7858C44.6475 9.65775 47.6235 6.26575 51.4315 6.26575C52.9675 6.26575 54.0235 6.90575 54.5675 7.44975L54.8875 6.39375H55.8155V11.1938H54.7595C54.2795 8.66575 53.1275 7.44975 51.3035 7.44975ZM63.528 20.5378C60.2319 20.5378 57 17.7858 57 13.4018C57 9.01775 60.2319 6.26575 63.528 6.26575C66.8239 6.26575 70.0559 9.01775 70.0559 13.4018C70.0559 17.7858 66.8239 20.5378 63.528 20.5378ZM63.528 7.48175C61.448 7.48175 59.944 9.56175 59.944 13.4018C59.944 17.2418 61.448 19.3218 63.528 19.3218C65.6079 19.3218 67.1119 17.2418 67.1119 13.4018C67.1119 9.56175 65.6079 7.48175 63.528 7.48175ZM78.4572 19.0658V20.2178H71.2252V19.0658H73.1132V7.73775H71.2252V6.58575H75.9292V8.95375C77.1772 7.73775 78.6172 6.26575 79.7372 6.26575C80.7932 6.26575 81.7212 6.93775 82.2332 7.54575L80.7292 9.88175C79.7692 9.20975 79.0012 8.60175 78.1372 8.60175C77.7212 8.60175 76.8892 8.79375 75.9292 9.65775V19.0658H78.4572Z" fill="#3C3430"/>
<path id="Vector_2" d="M81.4727 18.4589C81.4727 17.3069 82.4007 16.3789 83.5527 16.3789C84.7047 16.3789 85.6327 17.3069 85.6327 18.4589C85.6327 19.6109 84.7047 20.5389 83.5527 20.5389C82.4007 20.5389 81.4727 19.6109 81.4727 18.4589Z" fill="#E35336"/>
</g>
<defs>
<clipPath id="clip0_8943_4322">
<rect width="88" height="20" fill="white" transform="translate(0 0.884766)"/>
</clipPath>
</defs>
</svg>
