<svg width="151" height="80" viewBox="0 0 151 80" fill="none" xmlns="http://www.w3.org/2000/svg">
<path fill-rule="evenodd" clip-rule="evenodd" d="M19.1408 24.3689C15.9485 24.3689 12.8278 25.3155 10.1735 27.0891C7.51912 28.8627 5.45031 31.3836 4.22865 34.3329C3.00699 37.2823 2.68735 40.5276 3.31015 43.6587C3.93295 46.7897 5.47021 49.6657 7.72754 51.923C9.98488 54.1804 12.8609 55.7176 15.9919 56.3404C19.1229 56.9632 22.3683 56.6436 25.3176 55.4219C28.267 54.2003 30.7878 52.1315 32.5614 49.4771C34.335 46.8228 35.2816 43.7021 35.2816 40.5097C35.2816 36.2289 33.5811 32.1234 30.5541 29.0964C27.5271 26.0694 23.4216 24.3689 19.1408 24.3689ZM19.1408 55.1437C16.2465 55.1437 13.4172 54.2854 11.0107 52.6774C8.60414 51.0694 6.72847 48.7839 5.62087 46.1099C4.51326 43.4359 4.22346 40.4935 4.78812 37.6548C5.35277 34.8161 6.74651 32.2086 8.7931 30.162C10.8397 28.1154 13.4472 26.7217 16.2859 26.157C19.1246 25.5924 22.067 25.8822 24.741 26.9898C27.415 28.0974 29.7005 29.973 31.3085 32.3796C32.9165 34.7861 33.7747 37.6154 33.7747 40.5097C33.7738 44.3906 32.2318 48.1123 29.4876 50.8565C26.7434 53.6007 23.0217 55.1428 19.1408 55.1437ZM100.783 37.9982L101.52 38.1656C104.567 38.8019 108.251 39.7395 108.184 44.5952C108.184 49.2499 103.931 51.527 99.9461 51.527C95.3583 51.527 92.9808 49.7857 91.1055 47.5421L94.4877 44.1933C95.9276 46.0351 97.8029 46.9393 99.8791 46.9393C101.62 46.9393 102.759 46.1021 102.759 44.8296C102.759 43.4901 101.721 43.0548 98.9415 42.4855L98.2047 42.3181C94.856 41.6148 92.1101 39.7395 92.1101 35.922C92.1101 31.7361 95.5258 29.2245 100.013 29.2245C103.831 29.2245 106.275 30.8654 107.782 32.5733L104.467 35.855C103.916 35.244 103.245 34.7532 102.496 34.4133C101.747 34.0733 100.936 33.8915 100.114 33.8793C98.908 33.8793 97.535 34.4486 97.535 35.855C97.535 37.161 98.975 37.6298 100.783 37.9982ZM80.3893 29.2581C74.2277 29.2581 70.6111 34.1807 70.6111 40.4094C70.6111 46.638 74.2277 51.5606 80.3893 51.5606C86.551 51.5606 90.1676 46.6715 90.1676 40.4094C90.1676 34.1473 86.5845 29.2581 80.3893 29.2581ZM80.3893 46.4706C77.3755 46.4706 75.8686 43.7581 75.8686 40.4094C75.8686 37.0606 77.3755 34.3817 80.3893 34.3817C83.4032 34.3817 84.9436 37.0941 84.9436 40.4094C84.9436 43.7916 83.4032 46.4706 80.3893 46.4706ZM65.0197 40.0073C65.8959 39.6683 66.6476 39.0697 67.1743 38.2917C67.7009 37.5137 67.9773 36.5934 67.9666 35.654C67.9666 31.736 65.1871 29.7937 61.3696 29.7937H51.3569V51.0983H62.2403C65.589 51.0983 68.8707 48.7542 68.8707 45.171C68.8707 41.2886 65.6714 40.2271 65.1049 40.0391C65.0499 40.0209 65.0197 40.0109 65.0197 40.0073ZM56.5809 34.214H60.4654C60.7142 34.1986 60.9635 34.2324 61.1992 34.3134C61.4348 34.3945 61.6522 34.5212 61.8388 34.6864C62.0255 34.8516 62.1777 35.0519 62.2868 35.276C62.3959 35.5 62.4597 35.7434 62.4747 35.9922V36.2233C62.4641 36.747 62.247 37.2454 61.8707 37.6098C61.4944 37.9742 60.9893 38.1751 60.4654 38.1689H56.5474L56.5809 34.214ZM60.4989 46.6378H56.6144V42.4519H60.3985C62.3072 42.4519 63.2114 43.2891 63.2114 44.5281C63.2114 46.0752 62.0728 46.6378 60.4989 46.6378ZM120.105 46.4706C117.761 46.4706 115.317 44.5284 115.317 40.2755C115.317 36.4914 117.594 34.3817 119.971 34.3817C121.847 34.3817 122.952 35.2524 123.822 36.7593L128.109 33.9129C125.966 30.6647 123.421 29.2917 119.904 29.2917C113.475 29.2917 109.992 34.2813 109.992 40.309C109.992 46.6381 113.843 51.5942 119.837 51.5942C124.057 51.5942 126.066 50.1207 128.243 46.9729L123.923 44.0663C123.052 45.466 122.115 46.4706 120.105 46.4706ZM142.409 37.6297V29.7937H148.001V51.0916H142.409V42.6863H135.946V51.0916H130.354V29.7937H135.946V37.6297H142.409ZM24.7001 30.43H25.8052V30.4367C27.4736 31.5363 28.8429 33.0329 29.7903 34.7921C30.7378 36.5513 31.2338 38.5182 31.2338 40.5163C31.2338 42.5145 30.7378 44.4814 29.7903 46.2406C28.8429 47.9998 27.4736 49.4964 25.8052 50.596H24.7001V45.0706H13.6159V50.5893H12.4773C10.8097 49.4892 9.44108 47.9924 8.49414 46.2333C7.5472 44.4741 7.05151 42.5075 7.05151 40.5097C7.05151 38.5118 7.5472 36.5452 8.49414 34.786C9.44108 33.0269 10.8097 31.5301 12.4773 30.43H13.6159V35.9554H24.7001V30.43ZM9.58397 45.1282C10.1903 46.3782 11.0369 47.4965 12.0755 48.4193V32.6067C11.7654 32.8821 11.4714 33.175 11.1948 33.484C10.2719 34.5225 9.56255 35.7326 9.10733 37.0452C8.65211 38.3578 8.4599 39.7472 8.54169 41.1341C8.62347 42.521 8.97764 43.8782 9.58397 45.1282ZM13.6159 43.5302H24.7001V37.4623H13.6159V43.5302ZM26.2071 45.0371V48.3792C26.4871 48.1259 26.7542 47.8588 27.0074 47.5788C27.9383 46.5434 28.6561 45.3346 29.1198 44.0217C29.5834 42.7088 29.7838 41.3173 29.7094 39.9269C29.6351 38.5365 29.2875 37.1743 28.6866 35.9183C28.0856 34.6623 27.2431 33.537 26.2071 32.6067V35.9554V45.0371Z" fill="#B4BACC"/>
</svg>
