<svg width="120" height="64" viewBox="0 0 120 64" fill="none" xmlns="http://www.w3.org/2000/svg"><g clip-path="url(#clip0_1690_8773)"><path fill-rule="evenodd" clip-rule="evenodd" d="M90.9454 31.7695L90.9456 31.7679L90.9472 31.7695H90.9454ZM82.1761 31.7695H90.9454C90.6536 35.632 87.2879 37.9559 84.0873 37.9559C80.2224 37.9559 77.1047 34.7998 77.1047 31.2272C77.1047 27.8636 79.8889 24.4984 84.0464 24.4984C87.496 24.4984 89.6998 26.8655 90.1984 28.1952H88.7025C87.9537 26.908 86.2502 25.704 84.0889 25.704C80.8061 25.704 78.4355 28.3619 78.4355 31.2696C78.4355 34.1774 80.8044 36.7945 84.1723 36.7945C86.9156 36.7945 88.9527 34.759 89.4088 32.9735H82.1761V31.7695ZM35.2055 34.135C34.2083 36.502 31.7134 37.9984 29.2202 37.9984C25.4796 37.9984 22.4453 34.8423 22.4453 31.1863C22.4453 27.5304 25.3963 24.5 29.1794 24.5C31.3407 24.5 34.0431 25.6207 35.2889 28.4452H32.5456C31.6317 27.3654 30.5085 26.743 29.0535 26.743C26.9331 26.743 24.8143 28.6526 24.8143 31.2288C24.8143 33.805 26.8513 35.7555 29.1369 35.7555C30.8829 35.7555 31.8393 34.759 32.4197 34.135H35.2039H35.2055ZM36.9516 24.7485H39.5282C40.9832 24.7485 42.3958 24.7485 43.5189 25.745C44.1843 26.3266 44.6405 27.2822 44.6405 28.1546C44.6405 29.7751 43.6007 30.3975 43.1854 30.6458C44.0584 30.9774 45.4301 31.6848 45.4301 33.8852C45.4301 35.4633 44.5996 36.4189 43.8083 36.958C42.811 37.6229 41.3151 37.747 40.4421 37.747H36.95V24.7485H36.9516ZM39.3206 29.8159H40.1102C40.6922 29.8159 42.1881 29.8159 42.1881 28.4045C42.1881 27.6155 41.6895 26.9915 40.3178 26.9915H39.3206V29.8159ZM39.3206 35.5057H40.5255C40.9832 35.5057 42.9369 35.5057 42.9369 33.8035C42.9369 33.2644 42.6884 32.0589 40.568 32.0589H39.3206V35.5057ZM47.3859 24.7502H48.6742V37.7503H47.3859V24.7502ZM51.5409 24.7502H53.246L60.4771 35.5058H60.5196V24.7502H61.8079V37.7487H60.5605L52.8717 26.3282H52.8292V37.7487H51.5409V24.7502ZM67.7508 36.7945C66.1715 36.7945 65.1334 35.7147 65.05 34.0941H63.7617C63.8042 36.9611 66.0489 37.9576 67.7525 37.9576C70.038 37.9576 71.6598 36.1296 71.6598 34.1366C71.6598 33.7217 71.6598 31.2288 68.5012 30.399L68.4175 30.3745C66.7514 29.8881 65.4244 29.5007 65.4244 27.9486C65.4244 26.8263 66.2974 25.7056 67.7933 25.7056C68.9982 25.7056 70.0789 26.7446 70.0789 28.0727H71.3672C71.3672 26.1631 69.8288 24.5425 67.7508 24.5425C65.6729 24.5425 64.0936 25.9964 64.0936 28.0319C64.0936 30.4905 66.1019 31.0556 67.2965 31.3917L67.3658 31.4112L67.4598 31.4379C67.5219 31.4586 67.5899 31.4803 67.6626 31.5036L67.663 31.5037C68.6127 31.8073 70.3699 32.3689 70.3699 34.2199C70.3699 35.7555 69.1225 36.7945 67.7508 36.7945ZM74.9016 24.7502H73.6133V37.7503H74.9016V24.7502ZM93.2324 24.7502H94.5207V30.4808H101.255V24.7502H102.543V37.7487H101.255V31.6439H94.5207V37.7487H93.2324V24.7502ZM104.163 25.9542H107.157V37.7487H108.445V25.9542H111.396V24.7502H104.163V25.9542ZM113.392 34.0941C113.475 35.7147 114.514 36.7945 116.095 36.7945C117.466 36.7945 118.714 35.7555 118.714 34.2199C118.714 32.3689 116.956 31.8073 116.007 31.5037C115.934 31.4804 115.866 31.4586 115.804 31.4379L115.709 31.4112L115.64 31.3917C114.446 31.0556 112.437 30.4905 112.437 28.0319C112.437 25.9964 114.017 24.5425 116.095 24.5425C118.172 24.5425 119.711 26.1631 119.711 28.0727H118.423C118.423 26.7446 117.342 25.7056 116.137 25.7056C114.641 25.7056 113.768 26.8263 113.768 27.9486C113.768 29.5007 115.095 29.8881 116.761 30.3745L116.845 30.399C120.004 31.2288 120.004 33.7217 120.004 34.1366C120.004 36.1296 118.382 37.9576 116.096 37.9576C114.393 37.9576 112.148 36.9611 112.105 34.0941H113.392ZM12.8867 30.3566H18.7052H18.7069H18.7478V27.1172C18.7478 25.7875 17.6671 24.7077 16.3363 24.7077H12.8867V30.3566ZM16.2933 37.7909H12.8438V31.7695H18.6623V35.383C18.7032 36.7128 17.6225 37.7926 16.2933 37.7926V37.7909ZM6.06866 30.3142V31.7681L6.0703 31.7697H11.8054V37.8336H2.41144C1.08065 37.8336 0 36.7538 0 35.424V27.1172C0 25.7875 1.03978 24.7077 2.36894 24.7077H11.7629V30.3142H6.06866Z" fill="#161E33"/></g><defs><clipPath id="clip0_1690_8773"><rect width="120" height="64" fill="white"/></clipPath></defs></svg>