<?xml version="1.0" encoding="UTF-8" standalone="no"?>
<!DOCTYPE svg PUBLIC "-//W3C//DTD SVG 1.1//EN" "http://www.w3.org/Graphics/SVG/1.1/DTD/svg11.dtd">
<svg width="100%" height="100%" viewBox="0 0 120 64" version="1.1" xmlns="http://www.w3.org/2000/svg" xmlns:xlink="http://www.w3.org/1999/xlink" xml:space="preserve" xmlns:serif="http://www.serif.com/" style="fill-rule:evenodd;clip-rule:evenodd;stroke-linejoin:round;stroke-miterlimit:2;">
    <g transform="matrix(0.483851,0,0,0.483851,0.659245,22.3125)">
        <g>
            <clipPath id="_clip1">
                <rect x="59.2" y="2.7" width="186.7" height="40.8"/>
            </clipPath>
            <g clip-path="url(#_clip1)">
                <path d="M158.7,10.7L162.4,10.7L162.4,32.8L158.7,32.8L158.7,10.7ZM145.2,10.2C142.8,10.2 140.6,11 138.8,12.5L138.8,10.7L135.1,10.7L135.1,32.8L138.8,32.8L138.8,20.3C138.8,16.7 141.7,13.9 145.2,13.9C148.7,13.9 151.6,16.8 151.6,20.3L151.6,32.8L155.3,32.8L155.3,20.3C155.3,14.7 150.8,10.2 145.2,10.2M127.7,10.6L131.4,10.6L131.4,31.9C131.3,38.2 126.2,43.3 119.9,43.4C114.9,43.5 110.3,40.2 108.9,35.4L112.9,35.4C114.2,38.1 116.9,39.8 119.9,39.7C124.2,39.6 127.6,36.1 127.8,31.8L127.8,30C123.1,34.3 115.8,34.1 111.5,29.4C107.2,24.7 107.4,17.4 112.1,13.1C116.5,9 123.4,9 127.8,13.1L127.7,10.6ZM127.7,21.7C127.7,17.4 124.2,13.8 119.9,13.8C115.6,13.8 112,17.3 112,21.6C112,25.9 115.5,29.5 119.9,29.5C124.2,29.5 127.7,26 127.7,21.7M70.7,13.8C73.7,13.8 76.5,15.6 77.8,18.3L81.7,18.3C79.9,12.2 73.4,8.7 67.3,10.6C61.2,12.4 57.7,18.9 59.6,25C61.5,31.1 67.9,34.6 74,32.7C77.7,31.6 80.6,28.7 81.7,25L77.8,25C76,28.9 71.3,30.6 67.4,28.8C63.5,27 61.8,22.3 63.6,18.4C64.9,15.6 67.6,13.8 70.7,13.8M106.6,21.7C106.6,28.1 101.4,33.2 95.1,33.2C88.7,33.2 83.6,28 83.6,21.7C83.6,15.4 88.6,10.2 95,10.2C101.4,10.2 106.6,15.3 106.6,21.7M102.9,21.7C102.9,17.4 99.4,13.8 95.1,13.8C90.8,13.8 87.2,17.3 87.2,21.6C87.2,25.9 90.7,29.5 95,29.5C99.4,29.5 102.9,26 102.9,21.7M223.4,10.2C221,10.2 218.8,11 217,12.5L217,10.7L213.3,10.7L213.3,32.8L217,32.8L217,20.3C217,16.7 219.9,13.8 223.4,13.8C227,13.8 229.9,16.7 229.9,20.2L229.9,32.7L233.6,32.7L233.6,20.3C233.5,14.7 229,10.2 223.4,10.2M205.9,10.7L209.6,10.7L209.6,32.8L205.9,32.8L205.9,30.2C201.2,34.5 193.9,34.3 189.6,29.6C185.3,24.9 185.5,17.6 190.2,13.3C192.3,11.3 195.1,10.2 198,10.2C200.9,10.2 203.7,11.3 205.9,13.3L205.9,10.7ZM205.9,21.7C205.9,17.4 202.4,13.9 198,13.9C193.7,13.9 190.2,17.4 190.2,21.8C190.2,26.1 193.7,29.6 198,29.6C202.4,29.5 205.9,26 205.9,21.7M245.8,14.3L245.8,10.6L240.3,10.6L240.3,4.6L236.6,4.6L236.6,25.4C236.6,29.5 239.9,32.8 244,32.8L245.8,32.8L245.8,29.1L244,29.1C242,29.1 240.3,27.4 240.3,25.4L240.3,14.3L245.8,14.3ZM160.5,2.7C159.1,2.7 158.1,3.8 158.1,5.1C158.1,6.5 159.2,7.5 160.5,7.5C161.9,7.5 162.9,6.4 162.9,5.1C163,3.8 161.9,2.7 160.5,2.7C160.6,2.7 160.6,2.7 160.5,2.7M184.5,10.7L166.1,10.7L166.1,14.4L179.7,14.4L166.1,29.1L166.1,32.8L184.5,32.8L184.5,29.1L170.8,29.1L184.4,14.4L184.5,10.7Z" style="fill:rgb(0,0,72);fill-rule:nonzero;"/>
            </g>
        </g>
    </g>
    <g transform="matrix(0.483851,0,0,0.483851,0.659245,22.3125)">
        <g>
            <clipPath id="_clip2">
                <path d="M0,22L15.3,44L31.1,34.5L22.2,22L0,22Z"/>
            </clipPath>
            <g clip-path="url(#_clip2)">
                <rect x="0" y="22" width="31.1" height="22" style="fill:rgb(22,30,51);fill-rule:nonzero;"/>
            </g>
        </g>
        <g>
            <clipPath id="_clip3">
                <path d="M15.3,44L37.1,44L52.1,22L15.3,44Z"/>
            </clipPath>
            <g clip-path="url(#_clip3)">
                <rect x="15.3" y="22" width="36.8" height="22" style="fill:rgb(22,30,51);fill-rule:nonzero;"/>
            </g>
        </g>
        <g>
            <clipPath id="_clip4">
                <path d="M15.3,0L0,22L22.2,22L31.1,9.5L15.3,0Z"/>
            </clipPath>
            <g clip-path="url(#_clip4)">
                <rect x="0" y="0" width="31.1" height="22" style="fill:rgb(22,30,51);fill-rule:nonzero;"/>
            </g>
        </g>
        <g>
            <clipPath id="_clip5">
                <path d="M15.3,0L52.1,22L37.1,0L15.3,0Z"/>
            </clipPath>
            <g clip-path="url(#_clip5)">
                <rect x="15.3" y="0" width="36.8" height="22" style="fill:rgb(22,30,51);fill-rule:nonzero;"/>
            </g>
        </g>
    </g>
</svg>
