<svg width="120" height="64" viewBox="0 0 120 64" fill="none" xmlns="http://www.w3.org/2000/svg">
<g id="Customer-Logo/Garden">
<g id="Vector">
<path d="M13.2931 18.8848C14.9246 18.8848 16.3672 19.6827 17.2426 20.9048C17.7115 20.7551 18.2118 20.6742 18.7312 20.6742C21.2771 20.6742 23.3632 22.6171 23.5513 25.0828C25.4883 25.7049 26.8884 27.5019 26.8884 29.6216C26.8884 30.7136 26.5168 31.7199 25.8916 32.5241C26.3325 33.2438 26.5863 34.0876 26.5863 34.99C26.5863 36.9952 25.3334 38.7113 23.5584 39.4175C23.4257 41.9358 21.3152 43.9374 18.7312 43.9374C18.2118 43.9374 17.7115 43.8565 17.2426 43.7068C16.3672 44.9289 14.9246 45.7269 13.2931 45.7269C11.6616 45.7269 10.219 44.9289 9.34362 43.7068C8.87471 43.8565 8.37446 43.9374 7.85507 43.9374C5.27105 43.9374 3.16056 41.9358 3.02779 39.4175C1.2528 38.7113 0 36.9951 0 34.99C0 33.9947 0.308687 33.0706 0.836688 32.3058C0.308687 31.5411 0 30.6169 0 29.6216C0 27.6165 1.25279 25.9003 3.02779 25.194C3.16059 22.6758 5.27108 20.6742 7.85507 20.6742C8.37445 20.6742 8.87471 20.7551 9.34362 20.9048C10.219 19.6827 11.6617 18.8848 13.2931 18.8848ZM10.6267 42.2735C11.3402 42.9353 12.3006 43.3409 13.357 43.3409C14.3853 43.3409 15.3226 42.9565 16.0298 42.3255L14.2486 37.1616C13.9868 37.2045 13.7181 37.2269 13.4442 37.2269C13.0877 37.2269 12.7401 37.189 12.4051 37.1172L10.6267 42.2735ZM4.97812 38.7881C5.37569 40.5486 6.96738 41.8646 8.87046 41.8646C9.03477 41.8646 9.19677 41.8546 9.35587 41.8356L11.1415 36.658C10.6162 36.3805 10.1471 36.011 9.75587 35.5709L4.97812 38.7881ZM17.0757 35.6335C16.6429 36.1039 16.1197 36.49 15.5334 36.7642L17.2791 41.8254C17.4635 41.8511 17.6518 41.8646 17.8433 41.8646C19.7517 41.8646 21.3469 40.5412 21.7389 38.7734L17.0757 35.6335ZM2.69241 32.9769C2.49765 33.4408 2.39009 33.9495 2.39008 34.483C2.39009 35.8357 3.0813 37.029 4.13399 37.7377L9.00861 34.4552C8.78568 33.9976 8.63167 33.5003 8.56017 32.9769H2.69241ZM18.3282 32.9769C18.2528 33.5293 18.0855 34.0524 17.8422 34.5306L22.5924 37.7292C23.638 37.0195 24.3237 35.8303 24.3237 34.483C24.3237 33.9495 24.2162 33.4408 24.0214 32.9769H18.3282ZM17.7897 29.9805C18.0615 30.4856 18.2475 31.0434 18.3282 31.6348H24.2384C24.4536 31.151 24.573 30.6163 24.573 30.0541C24.573 28.6334 23.8106 27.3883 22.6677 26.696L17.7897 29.9805ZM4.17958 26.769C3.10126 27.4737 2.39008 28.6819 2.39008 30.0541C2.39009 30.6163 2.50948 31.151 2.72458 31.6348H8.56017C8.637 31.0723 8.80897 30.5401 9.05944 30.0548L4.17958 26.769ZM8.87046 22.6725C6.98648 22.6725 5.4076 23.9622 4.99037 25.696L9.83253 28.9565C10.2189 28.5414 10.6763 28.1931 11.1853 27.9307L9.38271 22.7049C9.215 22.6836 9.04402 22.6725 8.87046 22.6725ZM17.8433 22.6725C17.6424 22.6725 17.445 22.6873 17.2521 22.7156L15.489 27.8268C16.0582 28.0862 16.5693 28.4505 16.9975 28.895L21.7268 25.7106C21.315 23.9694 19.7326 22.6725 17.8433 22.6725ZM13.357 21.1962C12.3102 21.1962 11.3576 21.5943 10.6462 22.2455L12.4531 27.4842C12.7733 27.419 13.1047 27.3848 13.4442 27.3848C13.7011 27.3848 13.9534 27.4044 14.1997 27.4422L16.0101 22.194C15.3052 21.5734 14.3757 21.1962 13.357 21.1962Z" fill="#283A2F"/>
<path d="M41.0926 27.5019C41.2662 27.5019 41.453 27.5019 41.5449 27.5019C41.5449 27.5019 41.5449 26.49 41.5449 25.9118H44.8891C44.8891 28.3541 44.9464 34.529 44.9466 37.177L44.9459 40.138C44.9459 40.8802 44.981 41.6488 44.8521 42.3828C44.755 42.9099 44.4981 43.3946 44.1161 43.7713C43.6631 44.221 43.2216 44.4425 42.5875 44.5618C41.8866 44.6938 40.308 44.6077 39.5316 44.6071L32.9774 44.6084C32.9774 43.9747 32.9774 42.2225 32.9774 41.6352C35.0503 41.6352 39.31 41.6352 40.8774 41.6352C41.2074 41.6352 41.4732 41.3689 41.4732 41.0394C41.4732 39.9866 41.4732 37.8623 41.4732 37.3783C41.3861 37.3763 41.1124 37.357 41.0478 37.402C40.947 37.4727 40.8159 37.6961 40.7333 37.7988C40.3128 38.3214 39.8389 38.6782 39.2119 38.9261C37.7592 39.5006 35.9157 39.4154 34.4894 38.7949C33.1075 38.1937 31.9641 36.9883 31.413 35.5879C30.7175 33.8203 30.7734 31.7953 31.1677 29.9625C31.6705 27.6269 33.7625 25.9702 36.0514 25.6198C38.0545 25.3285 39.795 25.9141 41.0926 27.5019ZM39.3475 36.0931C40.5022 35.6936 41.2653 34.7065 41.5101 33.5487C41.7181 32.5627 41.6263 31.2833 41.1953 30.3747C40.8558 29.6592 40.0428 28.957 39.293 28.6937C38.3793 28.3728 37.3073 28.453 36.4032 28.7657C35.2128 29.1768 34.3286 30.6016 34.2695 31.8022C34.2104 33.0076 34.3388 34.2855 35.1936 35.2108C36.2453 36.3491 37.9266 36.5849 39.3475 36.0931Z" fill="#283A2F"/>
<path d="M84.3862 20.4506C85.4935 20.4506 86.6404 20.4506 87.7776 20.4506C87.7776 22.5383 87.7682 35.7356 87.7682 39.24L84.437 39.2325C84.437 38.7852 84.437 37.6109 84.437 37.6109H83.9516C83.5408 38.3517 82.7199 38.9749 82.1403 39.2255C80.3046 40.0192 77.6472 39.5518 76.0867 38.3517C75.3108 37.7548 74.663 36.7834 74.2893 35.8817C73.6765 34.3987 73.607 32.5059 73.8505 30.871C74.002 29.3516 74.9664 27.7591 76.1345 26.8145C77.4517 25.7496 79.0795 25.4261 80.7287 25.6032C81.8386 25.7223 82.8423 26.1411 83.596 26.9747C83.7076 27.0982 83.8212 27.3282 83.9269 27.4593C84.0263 27.4593 84.2727 27.4614 84.4023 27.4593C84.4023 27.3848 84.399 27.3063 84.4023 27.2228C84.4023 24.9653 84.3862 22.7079 84.3862 20.4506ZM81.3654 36.6277C82.0963 36.6235 82.9668 36.1373 83.465 35.6328C84.281 34.8065 84.4766 33.327 84.4766 32.5059C84.4766 31.5229 84.2477 30.3354 83.4202 29.5244C82.6385 28.7585 82.0276 28.5039 80.6555 28.5039C79.2834 28.5039 78.3827 29.2546 77.8408 29.9262C77.1552 30.7766 77.0651 32.2862 77.1824 33.327C77.293 34.3078 77.6421 35.2516 78.4383 35.8807C79.3298 36.585 80.2727 36.673 81.3654 36.6277Z" fill="#283A2F"/>
<path d="M54.3114 25.5368C56.7859 25.6296 59.198 26.5491 59.778 29.2381C59.9621 30.0909 59.9091 30.9898 59.9094 31.8572L59.9087 34.8834C59.9083 35.3101 59.8165 35.9624 60.1421 36.2958C60.3639 36.5229 61.4353 36.41 61.7688 36.4067C61.7688 36.8358 61.7688 38.7554 61.7688 39.24C60.8561 39.2389 59.328 39.3668 58.4993 39.0904C58.0818 38.9511 57.4264 38.5477 57.302 38.0995C57.2475 37.9021 57.2538 37.6447 57.1605 37.4671C57.1241 37.3973 56.7888 37.4559 56.7146 37.4646C56.5114 37.7105 56.4237 38.0337 56.2381 38.2909C55.7343 38.9886 54.7607 39.4021 53.9387 39.5394C51.9079 39.8866 49.131 39.2759 48.1846 37.2292C47.7241 36.235 47.6954 34.8643 48.0629 33.8466C48.5909 32.3838 49.9163 31.7019 51.3272 31.3264C52.9616 30.8913 54.8914 31.186 56.5611 31.1874C56.6899 30.4045 56.5205 29.3802 56.101 28.9588C55.5875 28.4425 54.8612 28.2777 54.1523 28.278C52.3026 28.2788 51.8724 29.0997 51.4362 30.3433C51.35 30.269 48.7354 29.4352 48.4046 29.3005C48.586 28.6896 48.8047 28.2105 49.0656 27.8342C49.6418 27.0054 50.6348 26.295 51.5871 25.9573C52.4385 25.655 53.4142 25.5032 54.3114 25.5368ZM54.906 36.6118C55.5812 36.3395 56.1238 35.8158 56.4192 35.1512C56.5871 34.7661 56.7146 34.1699 56.5604 33.7198L54.0142 33.7184C53.1693 33.7185 52.0462 33.6683 51.4463 34.413C51.2264 34.6861 51.1815 35.1663 51.223 35.5072C51.3098 36.2169 51.9207 36.6386 52.5753 36.7896C53.3685 36.9727 54.1437 36.8459 54.906 36.6118Z" fill="#283A2F"/>
<path d="M101.08 26.484C102.542 27.3891 103.467 28.8392 103.857 30.4945C104.08 31.4461 104.08 33.0887 104.08 33.5734C103.123 33.5732 94.4137 33.5734 94.4137 33.5734C94.4137 35.4033 95.8221 36.4419 97.1632 36.6178C97.8527 36.7083 98.5544 36.6803 99.2161 36.4534C100.124 36.1411 100.981 34.746 100.981 34.6172C101.705 34.9937 102.82 35.6984 103.587 36.1406C103.514 36.617 102.283 37.9563 101.84 38.306C100.343 39.4888 98.4662 39.7765 96.6079 39.5598C94.9095 39.3617 93.3806 38.5865 92.314 37.2365C91.0103 35.5868 90.7343 33.3752 90.9741 31.3409C91.3038 28.5442 92.8395 26.3714 95.6403 25.7444C97.5089 25.3261 99.3691 25.4252 101.08 26.484ZM100.579 31.022C100.645 29.9571 99.2301 28.8348 98.5906 28.6523C97.8063 28.3914 96.9421 28.3883 96.2378 28.6523C95.3797 28.9745 95.0167 29.3834 94.632 30.1808C94.5561 30.3384 94.4137 30.7493 94.4137 31.022C96.258 31.022 98.5906 31.022 100.579 31.022Z" fill="#283A2F"/>
<path d="M113.649 25.7633C114.72 25.6838 115.818 25.6883 116.837 26.0749C118.27 26.6181 119.358 28.006 119.754 29.4481C119.932 30.0958 119.968 30.7561 120 31.4241C120 33.0514 120 38.9418 120 39.2272L116.53 39.24C116.53 36.9286 116.53 33.0141 116.53 31.5975C116.53 29.9932 116.04 29.429 115.433 28.9878C114.901 28.6007 112.782 28.5536 111.96 28.9878C111.325 29.3233 110.465 30.5163 110.466 31.5975C110.467 32.0448 110.465 36.6714 110.465 39.24H107.029C107.029 35.6611 107.051 27.8321 107.051 25.9118H110.357V27.6743C110.528 27.6842 110.69 27.6771 110.861 27.6762C110.861 27.6762 111.699 26.0054 113.649 25.7633Z" fill="#283A2F"/>
<path d="M67.5299 27.4481H68.0287C68.0287 27.4481 68.3641 26.6673 68.8642 26.3409C69.8352 25.7071 72.2178 25.9122 72.2178 25.9122C72.2178 26.0799 72.22 28.5405 72.22 28.876C70.1339 28.876 69.5364 28.9695 69.3497 29.0251C68.0287 29.4183 67.6075 30.4418 67.6075 32.305C67.6253 34.6229 67.6075 36.9413 67.6075 39.2593H64.2047C64.2047 36.2023 64.2047 29.0342 64.2047 25.9122C64.5946 25.9121 67.5121 25.9122 67.5306 25.9306C67.5306 26.2663 67.5299 27.4481 67.5299 27.4481Z" fill="#283A2F"/>
</g>
</g>
</svg>
