<svg width="151" height="80" viewBox="0 0 151 80" fill="none" xmlns="http://www.w3.org/2000/svg">
<g id="Customer-Logo/Hubspot">
<path id="Vector" d="M23.6 27.3224V37.9162H13.8675V27.3224H9.25V52.6112H13.8688V42.3612H23.5988V52.6112H28.2188V27.3224H23.6ZM43.0025 44.4374C43.0025 45.4511 42.5998 46.4232 41.8831 47.1399C41.1664 47.8567 40.1943 48.2593 39.1806 48.2593C38.167 48.2593 37.1949 47.8567 36.4781 47.1399C35.7614 46.4232 35.3587 45.4511 35.3587 44.4374V33.6049H30.9775V44.4374C30.9775 46.6109 31.8409 48.6953 33.3778 50.2322C34.9146 51.7691 36.9991 52.6325 39.1725 52.6325C41.3459 52.6325 43.4304 51.7691 44.9672 50.2322C46.5041 48.6953 47.3675 46.6109 47.3675 44.4374V33.6049H43.0025V44.4374ZM75.4662 34.7212C75.4662 32.4999 76.935 31.7962 78.5438 31.7962C79.8413 31.7962 81.5537 32.7837 82.675 33.9812L85.5437 30.5987C84.1113 28.6612 81.2062 27.3224 78.8275 27.3224C74.0737 27.3224 70.6363 30.1062 70.6363 34.7212C70.6363 43.2837 81.1012 40.5662 81.1012 45.3587C81.1012 46.8362 79.6663 48.1412 78.0238 48.1412C75.4325 48.1412 74.5925 46.875 73.4025 45.535L70.2175 48.8462C72.255 51.3462 74.7675 52.6162 77.7762 52.6162C82.2925 52.6162 85.925 49.7987 85.925 45.3937C85.925 35.8887 75.4587 38.8424 75.4587 34.7212M140.209 48.5712C137.62 48.5712 136.884 47.4512 136.884 45.7362V38.1424H140.909V34.2949H136.884V29.2187L132.441 31.2124V46.6799C132.441 50.6362 135.171 52.6299 138.914 52.6299C139.501 52.6399 140.089 52.5924 140.666 52.4899L141.75 48.5C141.261 48.5337 140.7 48.5674 140.209 48.5674M59.68 33.7312C57.51 33.7312 55.995 34.3612 54.53 35.7974V27.4737H50.1425V42.9024C50.1425 48.6774 54.3175 52.6349 59.01 52.6349C64.215 52.6349 68.7937 48.6074 68.7937 43.1849C68.7937 37.8299 64.58 33.7349 59.68 33.7349M59.6525 48.2187C58.9986 48.2187 58.3511 48.0899 57.747 47.8397C57.1428 47.5894 56.5939 47.2227 56.1316 46.7603C55.6692 46.2979 55.3024 45.749 55.0522 45.1448C54.8019 44.5407 54.6731 43.8932 54.6731 43.2393C54.6731 42.5854 54.8019 41.9379 55.0522 41.3338C55.3024 40.7297 55.6692 40.1808 56.1316 39.7184C56.5939 39.256 57.1428 38.8892 57.747 38.639C58.3511 38.3887 58.9986 38.2599 59.6525 38.2599C60.9731 38.2599 62.2396 38.7846 63.1735 39.7184C64.1073 40.6522 64.6319 41.9187 64.6319 43.2393C64.6319 44.5599 64.1073 45.8265 63.1735 46.7603C62.2396 47.6941 60.9731 48.2187 59.6525 48.2187ZM107.33 42.9549C107.33 37.5224 102.761 33.5049 97.5462 33.5049C92.855 33.5049 88.6787 37.4612 88.6787 43.2374V58.6749H93.0663V50.34C94.5288 51.7737 96.0462 52.4062 98.2137 52.4062C103.114 52.4062 107.33 48.3112 107.33 42.9549ZM103.175 42.9C103.175 44.2206 102.65 45.4871 101.717 46.4209C100.783 47.3547 99.5162 47.8793 98.1956 47.8793C96.875 47.8793 95.6085 47.3547 94.6747 46.4209C93.7409 45.4871 93.2162 44.2206 93.2162 42.9C93.2162 41.5793 93.7409 40.3128 94.6747 39.379C95.6085 38.4452 96.875 37.9206 98.1956 37.9206C99.5162 37.9206 100.783 38.4452 101.717 39.379C102.65 40.3128 103.175 41.5793 103.175 42.9Z" fill="#161E33"/>
<path id="Vector_2" d="M121.512 33.2924V28.8837C122.094 28.6114 122.588 28.1792 122.934 27.6375C123.281 27.0958 123.466 26.4668 123.469 25.8237V25.7224C123.469 23.8474 121.949 22.3274 120.074 22.3274H119.973C119.073 22.3274 118.209 22.6851 117.572 23.3218C116.936 23.9585 116.578 24.822 116.578 25.7224V25.8237C116.581 26.4668 116.767 27.0958 117.113 27.6375C117.46 28.1792 117.953 28.6114 118.536 28.8837V33.2924C116.861 33.5488 115.284 34.2431 113.964 35.3049L101.873 25.8874C101.959 25.5762 102.004 25.2562 102.009 24.9349C102.011 24.1783 101.788 23.4383 101.369 22.8084C100.95 22.1785 100.353 21.687 99.6545 21.3962C98.956 21.1054 98.1869 21.0283 97.4446 21.1747C96.7023 21.321 96.02 21.6842 95.4841 22.2183C94.9482 22.7525 94.5828 23.4336 94.434 24.1754C94.2853 24.9173 94.3599 25.6866 94.6484 26.386C94.9369 27.0855 95.4264 27.6836 96.0549 28.1049C96.6834 28.5261 97.4228 28.7515 98.1794 28.7524C98.8413 28.7493 99.4908 28.5726 100.063 28.2399L111.969 37.5049C110.9 39.1208 110.342 41.0214 110.368 42.9589C110.394 44.8965 111.004 46.7812 112.117 48.3674L108.496 51.9899C108.203 51.8963 107.898 51.8466 107.591 51.8424C106.97 51.8429 106.363 52.0275 105.846 52.3729C105.33 52.7182 104.928 53.2089 104.691 53.7827C104.453 54.3566 104.391 54.988 104.512 55.5971C104.634 56.2062 104.933 56.7657 105.372 57.2049C105.811 57.6441 106.371 57.9432 106.98 58.0645C107.589 58.1858 108.22 58.1238 108.794 57.8863C109.368 57.6489 109.859 57.2466 110.204 56.7304C110.549 56.2142 110.734 55.6073 110.734 54.9862C110.73 54.6789 110.681 54.3739 110.587 54.0812L114.169 50.4974C115.338 51.3968 116.696 52.0169 118.141 52.3101C119.586 52.6033 121.079 52.5619 122.505 52.1891C123.932 51.8162 125.254 51.1218 126.37 50.1591C127.487 49.1963 128.368 47.9908 128.947 46.6348C129.526 45.2788 129.786 43.8083 129.709 42.336C129.632 40.8637 129.218 39.4286 128.5 38.1408C127.783 36.8529 126.78 35.7464 125.569 34.906C124.357 34.0656 122.97 33.5137 121.512 33.2924ZM120.027 47.7924C119.365 47.8107 118.706 47.696 118.089 47.4552C117.472 47.2144 116.909 46.8524 116.434 46.3905C115.96 45.9287 115.582 45.3764 115.325 44.7662C115.067 44.156 114.934 43.5004 114.934 42.8381C114.934 42.1757 115.067 41.5201 115.325 40.91C115.582 40.2998 115.96 39.7475 116.434 39.2856C116.909 38.8237 117.472 38.4617 118.089 38.2209C118.706 37.9802 119.365 37.8655 120.027 37.8837C121.31 37.9286 122.526 38.4698 123.418 39.3933C124.31 40.3167 124.809 41.5504 124.81 42.8344C124.81 44.1184 124.313 45.3526 123.421 46.2769C122.53 47.2013 121.315 47.7437 120.032 47.7899" fill="#161E33"/>
</g>
</svg>
