<svg width="151" height="80" viewBox="0 0 151 80" fill="none" xmlns="http://www.w3.org/2000/svg">
<g clip-path="url(#clip0_8106_34312)">
<path d="M11.4176 49.3598H14.1977C16.1192 49.3598 17.6318 49.1963 18.6948 48.8283C19.7986 48.4604 20.6981 47.888 21.3522 47.0703C22.0063 46.2527 23.3963 43.5953 23.6008 41.8373H27.0758C27.2802 43.7179 28.6294 46.2527 29.2835 47.1112C29.9376 47.888 30.8371 48.4604 31.9818 48.8283C33.1265 49.1963 34.6392 49.3598 36.5198 49.3598H42.0799C44.3285 49.3598 46.2909 49.8095 47.9262 50.7089C49.1118 48.2968 49.8886 45.6803 50.2156 42.9003C49.9703 40.6517 49.3162 38.812 48.2124 37.3811C46.7815 35.5413 44.7373 34.601 42.0799 34.601H35.6613C32.963 34.601 30.7553 34.0286 29.0791 32.9248C27.4029 31.821 26.1764 30.0221 25.4405 27.5691H25.3587C24.9499 29.695 23.8461 31.3712 22.0881 32.6795C20.3301 33.9469 17.9998 34.601 15.138 34.601H8.59667C5.89839 34.601 3.89512 35.5413 2.46421 37.3811C1.36037 38.812 0.706236 40.6517 0.460938 42.9003C0.788002 45.6803 1.60566 48.2968 2.75039 50.7089C4.38571 49.8095 6.3481 49.3189 8.55579 49.3189L11.4176 49.3598Z" fill="#7C39ED"/>
<path d="M8.59683 30.1856H14.1978C16.1193 30.1856 17.632 30.0221 18.6949 29.6542C19.7988 29.3271 20.6982 28.7139 21.3523 27.8962C22.0065 27.0785 23.3965 24.4211 23.6009 22.6632H27.076C27.2804 24.5438 28.6295 27.0785 29.2837 27.9371C29.9378 28.7139 30.8372 29.2862 31.9819 29.6542C33.1267 30.0221 34.6393 30.1856 36.52 30.1856H42.0801C44.9828 30.1856 47.3949 30.9215 49.2755 32.4342C46.2093 22.2543 36.6426 14.8545 25.3998 14.8545C14.1569 14.8545 4.59029 22.2543 1.44229 32.4751C3.32291 30.9624 5.73501 30.1856 8.59683 30.1856Z" fill="#7C39ED"/>
<path d="M42.1618 53.7752H35.6613C32.9631 53.7752 30.7554 53.2028 29.0792 52.099C27.403 50.9951 26.2174 49.1963 25.4406 46.7433H25.3588C24.95 48.8692 23.8461 50.5863 22.0882 51.8537C20.3302 53.1211 17.9999 53.7752 15.138 53.7752H8.59675C7.24761 53.7752 6.062 54.0205 5.03992 54.5111C9.57794 60.8071 17.0187 64.8954 25.3997 64.8954C33.7807 64.8954 41.1806 60.8071 45.7595 54.5111C44.7374 54.0205 43.5109 53.7752 42.1618 53.7752Z" fill="#7C39ED"/>
<path d="M145.64 48.6039V37.3539H148.227V48.6039H145.64ZM145.392 35.7114V33.0564H148.497V35.7114H145.392Z" fill="black"/>
<path d="M136.621 48.9639C134.394 48.9639 132.774 47.5239 132.774 45.4989C132.774 43.4289 134.461 42.1914 137.656 41.8539C139.816 41.5839 140.334 41.3139 140.289 40.4589C140.244 39.6714 139.501 39.2439 138.286 39.2439C136.689 39.2439 135.654 39.9864 135.654 41.0889L133.089 40.8639C133.089 38.5914 135.204 36.9939 138.151 36.9939C141.099 36.9939 142.921 38.6139 142.921 41.2239V48.6039H140.334V46.5789C139.704 48.0639 138.376 48.9639 136.621 48.9639ZM137.274 46.7139C139.141 46.7139 140.334 45.0939 140.334 42.6864V42.5964C139.884 43.1589 138.984 43.5189 137.814 43.6314C136.216 43.8114 135.429 44.3739 135.429 45.2739C135.429 46.1739 136.194 46.7139 137.274 46.7139Z" fill="black"/>
<path d="M127.463 48.6039V45.4539H130.771V48.6039H127.463Z" fill="black"/>
<path d="M120.274 48.9639C116.809 48.9639 114.446 46.5564 114.446 42.9564C114.446 39.4689 116.719 36.9939 119.914 36.9939C123.131 36.9939 125.337 39.4464 125.337 43.0239V43.7214H117.124C117.124 45.4989 118.339 46.7139 120.139 46.7139C121.399 46.7139 122.366 46.1064 122.704 45.0939L125.314 45.3189C124.954 47.5239 122.951 48.9639 120.274 48.9639ZM122.682 41.7414C122.682 40.2564 121.534 39.2439 119.891 39.2439C118.249 39.2439 117.124 40.2564 117.124 41.7414H122.682Z" fill="black"/>
<path d="M109.61 41.7414C109.61 40.1214 108.913 39.2439 107.675 39.2439C106.078 39.2439 105.043 40.7514 105.043 43.1364V48.6039H102.455V41.7414C102.455 40.1214 101.758 39.2439 100.52 39.2439C98.9226 39.2439 97.8876 40.7514 97.8876 43.1364V48.6039H95.3001V37.3539H97.8876V39.2664C98.5401 37.8714 99.8226 36.9939 101.42 36.9939C103.063 36.9939 104.233 37.9164 104.75 39.5364C105.425 37.9839 106.843 36.9939 108.575 36.9939C110.848 36.9939 112.198 38.7039 112.198 41.6514V48.6039H109.61V41.7414Z" fill="black"/>
<path d="M79.5031 48.6039L76.7581 37.3539H79.3681L81.3031 45.5439L83.9581 37.3539H85.9831L88.6381 45.5439L90.5731 37.3539H93.1831L90.4381 48.6039H87.4006L84.9706 40.9539L82.5406 48.6039H79.5031Z" fill="black"/>
<path d="M68.572 48.9639C66.3445 48.9639 64.7245 47.5239 64.7245 45.4989C64.7245 43.4289 66.412 42.1914 69.607 41.8539C71.767 41.5839 72.2845 41.3139 72.2395 40.4589C72.1945 39.6714 71.452 39.2439 70.237 39.2439C68.6395 39.2439 67.6045 39.9864 67.6045 41.0889L65.0395 40.8639C65.0395 38.5914 67.1545 36.9939 70.102 36.9939C73.0495 36.9939 74.872 38.6139 74.872 41.2239V48.6039H72.2845V46.5789C71.6545 48.0639 70.327 48.9639 68.572 48.9639ZM69.2245 46.7139C71.092 46.7139 72.2845 45.0939 72.2845 42.6864V42.5964C71.8345 43.1589 70.9345 43.5189 69.7645 43.6314C68.167 43.8114 67.3795 44.3739 67.3795 45.2739C67.3795 46.1739 68.1445 46.7139 69.2245 46.7139Z" fill="black"/>
<path d="M59.5977 48.6039V32.6289H62.1852V48.6039H59.5977Z" fill="black"/>
</g>
<defs>
<clipPath id="clip0_8106_34312">
<rect width="150" height="80" fill="white" transform="translate(0.5)"/>
</clipPath>
</defs>
</svg>
