<svg width="151" height="80" viewBox="0 0 151 80" fill="none" xmlns="http://www.w3.org/2000/svg">
<g clip-path="url(#clip0_714_4418)">
<path fill-rule="evenodd" clip-rule="evenodd" d="M15.6955 23.75H0.5V38.9455H15.6955V23.75ZM62.8815 30.1481V49.3424H59.5491V34.2802H59.5047L53.5509 49.3424H51.3294L45.2423 34.2802H45.1978V49.3424H42.1321V30.1481H46.9307L52.4401 44.3661H52.529L58.3495 30.1481H62.8815ZM65.6362 31.6143C65.6362 31.0811 65.8139 30.6368 66.2138 30.2814C66.6137 29.9259 67.058 29.7482 67.5912 29.7482C68.1688 29.7482 68.6576 29.9259 69.013 30.2814C69.3685 30.6368 69.5906 31.0811 69.5906 31.6143C69.5906 32.1475 69.4129 32.5918 69.013 32.9472C68.6131 33.3027 68.1688 33.4804 67.5912 33.4804C67.0136 33.4804 66.5693 33.3027 66.2138 32.9472C65.8584 32.5474 65.6362 32.1031 65.6362 31.6143ZM69.2352 35.5687V49.3424H65.9917V35.5687H69.2352ZM79.0545 46.9875C79.5432 46.9875 80.0764 46.8987 80.654 46.6321C81.2316 46.4099 81.7648 46.0989 82.2535 45.7435V48.7648C81.7204 49.0758 81.1427 49.298 80.4763 49.4312C79.8098 49.5645 79.0989 49.6534 78.2991 49.6534C76.2553 49.6534 74.6113 49.0314 73.3673 47.7429C72.0788 46.4544 71.4567 44.8104 71.4567 42.8554C71.4567 40.6339 72.1232 38.8122 73.4117 37.3904C74.7002 35.9686 76.5219 35.2577 78.9212 35.2577C79.5432 35.2577 80.1653 35.3465 80.7429 35.4798C81.3649 35.6131 81.8536 35.8353 82.2091 36.013V39.1232C81.7203 38.7677 81.1872 38.4567 80.6984 38.279C80.1653 38.1013 79.6321 37.968 79.0989 37.968C77.8104 37.968 76.7885 38.3679 75.9887 39.2121C75.1889 40.0562 74.8335 41.167 74.8335 42.5888C74.8335 43.9662 75.2334 45.077 75.9887 45.8323C76.744 46.5876 77.766 46.9875 79.0545 46.9875ZM91.4508 35.3465C91.7174 35.3465 91.9395 35.3465 92.1617 35.391C92.3839 35.4354 92.5616 35.4798 92.6949 35.5243V38.8122C92.5172 38.6789 92.295 38.5456 91.9395 38.4567C91.5841 38.3679 91.2286 38.279 90.7399 38.279C89.9401 38.279 89.2737 38.6344 88.7405 39.3009C88.2073 39.9674 87.8963 40.9893 87.8963 42.4111V49.3424H84.6528V35.5687H87.8963V37.7458H87.9407C88.2517 36.9905 88.6961 36.4129 89.2737 35.9686C89.8957 35.5687 90.6066 35.3465 91.4508 35.3465ZM92.8726 42.6777C92.8726 40.4117 93.5391 38.59 94.7831 37.2571C96.0717 35.9241 97.8489 35.2577 100.115 35.2577C102.248 35.2577 103.936 35.8797 105.136 37.1682C106.335 38.4567 106.957 40.1895 106.957 42.3667C106.957 44.5882 106.291 46.3655 105.047 47.6984C103.758 49.0314 102.025 49.6978 99.8039 49.6978C97.6712 49.6978 95.9828 49.0758 94.7387 47.8317C93.4946 46.5432 92.8726 44.8104 92.8726 42.6777ZM96.2494 42.5444C96.2494 43.9662 96.5604 45.077 97.2269 45.8323C97.8933 46.5876 98.8264 46.9875 100.026 46.9875C101.181 46.9875 102.114 46.6321 102.736 45.8323C103.358 45.077 103.669 43.9662 103.669 42.4555C103.669 40.9893 103.358 39.8785 102.736 39.0788C102.114 38.3234 101.181 37.9235 100.07 37.9235C98.8708 37.9235 97.9822 38.3234 97.3157 39.1232C96.5604 39.9674 96.2494 41.0782 96.2494 42.5444ZM111.8 39.2121C111.8 39.6564 111.934 40.0562 112.245 40.3228C112.556 40.5894 113.178 40.9004 114.2 41.3003C115.488 41.8335 116.421 42.4111 116.91 43.0331C117.443 43.6996 117.71 44.4549 117.71 45.388C117.71 46.6765 117.221 47.6984 116.199 48.4982C115.222 49.298 113.844 49.6534 112.156 49.6534C111.578 49.6534 110.956 49.5645 110.245 49.4312C109.534 49.298 108.957 49.1202 108.468 48.8981V45.699C109.046 46.0989 109.712 46.4544 110.379 46.6765C111.045 46.8987 111.667 47.032 112.245 47.032C112.956 47.032 113.533 46.9431 113.844 46.7209C114.2 46.4988 114.377 46.1878 114.377 45.699C114.377 45.2547 114.2 44.8993 113.844 44.5438C113.489 44.2328 112.778 43.8773 111.8 43.4775C110.601 42.9887 109.756 42.4111 109.268 41.7891C108.779 41.167 108.512 40.3673 108.512 39.3898C108.512 38.1457 109.001 37.1238 109.979 36.324C110.956 35.5243 112.245 35.1244 113.8 35.1244C114.288 35.1244 114.822 35.1688 115.399 35.3021C115.977 35.4354 116.51 35.5687 116.91 35.702V38.8566C116.466 38.59 115.977 38.3234 115.399 38.1013C114.822 37.8791 114.244 37.7903 113.711 37.7903C113.089 37.7903 112.6 37.9235 112.289 38.1457C111.978 38.4567 111.8 38.7677 111.8 39.2121ZM119.087 42.6777C119.087 40.4117 119.754 38.59 120.998 37.2571C122.286 35.9241 124.063 35.2577 126.329 35.2577C128.462 35.2577 130.15 35.8797 131.35 37.1682C132.55 38.4567 133.172 40.1895 133.172 42.3667C133.172 44.5882 132.505 46.3655 131.261 47.6984C129.973 49.0314 128.24 49.6978 126.018 49.6978C123.886 49.6978 122.197 49.0758 120.953 47.8317C119.754 46.5432 119.087 44.8104 119.087 42.6777ZM122.464 42.5444C122.464 43.9662 122.775 45.077 123.441 45.8323C124.108 46.5876 125.041 46.9875 126.24 46.9875C127.396 46.9875 128.329 46.6321 128.951 45.8323C129.573 45.077 129.884 43.9662 129.884 42.4555C129.884 40.9893 129.573 39.8785 128.951 39.0788C128.329 38.3234 127.396 37.9235 126.285 37.9235C125.085 37.9235 124.197 38.3234 123.53 39.1232C122.819 39.9674 122.464 41.0782 122.464 42.5444ZM143.969 38.2346H139.126V49.3424H135.838V38.2346H133.527V35.5687H135.838V33.6581C135.838 32.2363 136.326 31.0367 137.259 30.1036C138.193 29.1706 139.392 28.7263 140.858 28.7263C141.071 28.7263 141.271 28.7388 141.458 28.7506C141.623 28.7609 141.779 28.7707 141.925 28.7707C142.236 28.7707 142.502 28.8596 142.725 28.9484V31.7476C142.636 31.7032 142.413 31.6143 142.147 31.5254C141.88 31.4366 141.569 31.3921 141.214 31.3921C140.547 31.3921 140.014 31.6143 139.659 32.0142C139.303 32.4141 139.126 33.0805 139.126 33.8803V35.5243H143.969V32.4141L147.212 31.4366V35.5243H150.5V38.1901H147.212V44.6327C147.212 45.4769 147.39 46.0545 147.656 46.4099C147.967 46.7654 148.456 46.9431 149.123 46.9431C149.3 46.9431 149.522 46.8987 149.789 46.8098C150.056 46.7209 150.278 46.6321 150.456 46.4988V49.1647C150.233 49.298 149.922 49.3868 149.434 49.4757C148.945 49.5645 148.501 49.609 148.012 49.609C146.634 49.609 145.613 49.2535 144.946 48.5426C144.28 47.8317 143.924 46.7209 143.924 45.2547L143.969 38.2346ZM17.2957 23.75H32.4912V38.9455H17.2957V23.75ZM15.6955 40.545H0.5V55.7405H15.6955V40.545ZM17.2957 40.545H32.4912V55.7405H17.2957V40.545Z" fill="#161E33"/>
</g>
<defs>
<clipPath id="clip0_714_4418">
<rect width="150" height="80" fill="white" transform="translate(0.5)"/>
</clipPath>
</defs>
</svg>
