<svg width="181" height="96" viewBox="0 0 181 96" fill="none" xmlns="http://www.w3.org/2000/svg">
<g clip-path="url(#clip0_1093_4841)">
<path fill-rule="evenodd" clip-rule="evenodd" d="M20.6562 28.5H38.8908V46.7346H20.6562V28.5ZM18.7346 28.5H0.5V46.7346H18.7346V28.5ZM75.3563 36.1776V59.2108H71.3575V41.1361H71.3042L64.1596 59.2108H61.4938L54.1893 41.1361H54.1359V59.2108H50.457V36.1776H56.2153L62.8267 53.2392H62.9333L69.9179 36.1776H75.3563ZM78.662 37.9371C78.662 37.2973 78.8753 36.7641 79.3551 36.3375C79.835 35.911 80.3682 35.6977 81.008 35.6977C81.7011 35.6977 82.2876 35.911 82.7141 36.3375C83.1407 36.7641 83.4073 37.2973 83.4073 37.9371C83.4073 38.5769 83.194 39.1101 82.7141 39.5366C82.2343 39.9631 81.7011 40.1764 81.008 40.1764C80.3148 40.1764 79.7817 39.9631 79.3551 39.5366C78.9286 39.0567 78.662 38.5236 78.662 37.9371ZM82.9807 42.6823V59.2108H79.0885V42.6823H82.9807ZM94.7639 56.3849C95.3504 56.3849 95.9902 56.2783 96.6833 55.9584C97.3764 55.6918 98.0163 55.3186 98.6028 54.892V58.5176C97.9629 58.8909 97.2698 59.1574 96.4701 59.3174C95.6703 59.4774 94.8172 59.584 93.8575 59.584C91.4049 59.584 89.4321 58.8375 87.9393 57.2913C86.393 55.7451 85.6466 53.7724 85.6466 51.4264C85.6466 48.7605 86.4464 46.5745 87.9926 44.8684C89.5388 43.1622 91.7248 42.3091 94.6039 42.3091C95.3504 42.3091 96.0968 42.4157 96.79 42.5757C97.5364 42.7357 98.1229 43.0022 98.5494 43.2155V46.9477C97.9629 46.5212 97.3231 46.148 96.7366 45.9347C96.0968 45.7214 95.457 45.5615 94.8172 45.5615C93.271 45.5615 92.0447 46.0413 91.085 47.0544C90.1253 48.0674 89.6987 49.4003 89.6987 51.1065C89.6987 52.7593 90.1786 54.0923 91.085 54.9987C91.9914 55.9051 93.2177 56.3849 94.7639 56.3849ZM109.639 42.4157C109.959 42.4157 110.226 42.4157 110.493 42.4691C110.759 42.5224 110.972 42.5757 111.132 42.629V46.5745C110.919 46.4146 110.653 46.2546 110.226 46.148C109.799 46.0413 109.373 45.9347 108.786 45.9347C107.827 45.9347 107.027 46.3612 106.387 47.161C105.747 47.9608 105.374 49.1871 105.374 50.8932V59.2108H101.482V42.6823H105.374V45.2949H105.427C105.801 44.3885 106.334 43.6954 107.027 43.1622C107.773 42.6823 108.626 42.4157 109.639 42.4157ZM111.346 51.2131C111.346 48.4939 112.145 46.3079 113.638 44.7084C115.185 43.1089 117.317 42.3091 120.036 42.3091C122.596 42.3091 124.622 43.0556 126.061 44.6018C127.501 46.148 128.247 48.2274 128.247 50.8399C128.247 53.5058 127.448 55.6385 125.955 57.238C124.408 58.8375 122.329 59.6373 119.663 59.6373C117.104 59.6373 115.078 58.8909 113.585 57.398C112.092 55.8518 111.346 53.7724 111.346 51.2131ZM115.398 51.0532C115.398 52.7593 115.771 54.0923 116.571 54.9987C117.371 55.9051 118.49 56.3849 119.93 56.3849C121.316 56.3849 122.436 55.9584 123.182 54.9987C123.929 54.0923 124.302 52.7593 124.302 50.9465C124.302 49.1871 123.929 47.8541 123.182 46.8944C122.436 45.988 121.316 45.5082 119.983 45.5082C118.544 45.5082 117.477 45.988 116.677 46.9477C115.771 47.9608 115.398 49.2937 115.398 51.0532ZM134.059 47.0544C134.059 47.5875 134.219 48.0674 134.592 48.3873C134.965 48.7072 135.712 49.0804 136.938 49.5603C138.484 50.2001 139.604 50.8932 140.19 51.6397C140.83 52.4394 141.15 53.3458 141.15 54.4655C141.15 56.0117 140.564 57.238 139.337 58.1977C138.164 59.1574 136.512 59.584 134.485 59.584C133.792 59.584 133.046 59.4774 132.193 59.3174C131.34 59.1574 130.647 58.9442 130.06 58.6776V54.8387C130.753 55.3186 131.553 55.7451 132.353 56.0117C133.153 56.2783 133.899 56.4383 134.592 56.4383C135.445 56.4383 136.138 56.3316 136.512 56.065C136.938 55.7984 137.151 55.4252 137.151 54.8387C137.151 54.3056 136.938 53.879 136.512 53.4525C136.085 53.0792 135.232 52.6527 134.059 52.1729C132.619 51.5864 131.606 50.8932 131.02 50.1468C130.433 49.4003 130.113 48.4406 130.113 47.2676C130.113 45.7748 130.7 44.5484 131.873 43.5887C133.046 42.629 134.592 42.1492 136.458 42.1492C137.045 42.1492 137.685 42.2025 138.378 42.3624C139.071 42.5224 139.711 42.6823 140.19 42.8423V46.6278C139.657 46.3079 139.071 45.988 138.378 45.7214C137.685 45.4548 136.991 45.3482 136.352 45.3482C135.605 45.3482 135.019 45.5082 134.645 45.7748C134.272 46.148 134.059 46.5212 134.059 47.0544ZM142.803 51.2131C142.803 48.4939 143.603 46.3079 145.096 44.7084C146.642 43.1089 148.775 42.3091 151.494 42.3091C154.053 42.3091 156.079 43.0556 157.519 44.6018C158.958 46.148 159.705 48.2274 159.705 50.8399C159.705 53.5058 158.905 55.6385 157.412 57.238C155.866 58.8375 153.786 59.6373 151.121 59.6373C148.561 59.6373 146.535 58.8909 145.042 57.398C143.603 55.8518 142.803 53.7724 142.803 51.2131ZM146.855 51.0532C146.855 52.7593 147.228 54.0923 148.028 54.9987C148.828 55.9051 149.948 56.3849 151.387 56.3849C152.773 56.3849 153.893 55.9584 154.639 54.9987C155.386 54.0923 155.759 52.7593 155.759 50.9465C155.759 49.1871 155.386 47.8541 154.639 46.8944C153.893 45.988 152.773 45.5082 151.44 45.5082C150.001 45.5082 148.935 45.988 148.135 46.9477C147.282 47.9608 146.855 49.2937 146.855 51.0532ZM172.661 45.8814H166.849V59.2108H162.904V45.8814H160.131V42.6823H162.904V40.3897C162.904 38.6835 163.49 37.2439 164.61 36.1243C165.73 35.0046 167.169 34.4714 168.929 34.4714C169.184 34.4714 169.423 34.4865 169.648 34.5006C169.847 34.513 170.033 34.5248 170.208 34.5248C170.581 34.5248 170.901 34.6314 171.168 34.738V38.097C171.061 38.0437 170.795 37.9371 170.475 37.8304C170.155 37.7238 169.782 37.6705 169.355 37.6705C168.555 37.6705 167.916 37.9371 167.489 38.4169C167.062 38.8968 166.849 39.6966 166.849 40.6563V42.629H172.661V38.8968L176.553 37.7238V42.629H180.498V45.8281H176.553V53.5591C176.553 54.5721 176.766 55.2653 177.086 55.6918C177.459 56.1183 178.046 56.3316 178.846 56.3316C179.059 56.3316 179.326 56.2783 179.645 56.1717C179.965 56.065 180.232 55.9584 180.445 55.7984V58.9975C180.179 59.1574 179.805 59.2641 179.219 59.3707C178.632 59.4774 178.099 59.5307 177.513 59.5307C175.86 59.5307 174.634 59.1041 173.834 58.251C173.034 57.398 172.607 56.065 172.607 54.3056L172.661 45.8814ZM18.7346 48.6541H0.5V66.8886H18.7346V48.6541ZM20.6562 48.6541H38.8908V66.8886H20.6562V48.6541Z" fill="#B4BACC"/>
</g>
<defs>
<clipPath id="clip0_1093_4841">
<rect width="180" height="96" fill="white" transform="translate(0.5)"/>
</clipPath>
</defs>
</svg>
