<svg width="120" height="64" viewBox="0 0 120 64" fill="none" xmlns="http://www.w3.org/2000/svg"><g clip-path="url(#clip0_1690_6729)"><path fill-rule="evenodd" clip-rule="evenodd" d="M0 28.8722V23H23.8475V28.8722H0ZM0 40.5719V34.6996H23.8475V40.5719H0ZM32.8582 24.1207C33.7135 23.4537 34.9883 23 36.8477 23C38.3736 23 39.6198 23.1991 40.8373 23.6724C40.9788 24.6496 41.2048 25.9155 41.42 26.9896L40.5683 27.2137C40.068 24.7608 39.5714 23.8966 36.7581 23.8966C35.5675 23.8966 34.601 24.2247 33.934 24.7931C33.362 25.27 33.0823 25.8922 33.0823 26.631C33.0823 27.298 33.4373 28.0851 33.8892 28.5137C34.506 29.1089 35.4366 29.6343 36.9374 30.3964C37.2207 30.5414 37.4927 30.6776 37.7539 30.8084C39.2072 31.5361 40.3265 32.0965 41.1959 33.0859C41.6961 33.6579 42.2269 34.7427 42.2269 35.91C42.2269 37.149 41.7876 38.2374 40.8821 39.0478C39.8834 39.9515 38.2965 40.5719 36.1753 40.5719C34.7929 40.5719 33.1164 40.2653 31.7375 39.765C31.5206 38.2876 31.2427 37.2709 30.9307 36.2238L31.7824 35.9996C32.5462 38.9295 33.8748 39.6754 36.3995 39.6754C37.495 39.6754 38.5278 39.3526 39.2683 38.7789C40.0053 38.2051 40.4786 37.3857 40.4786 36.3134C40.4786 35.3613 40.2169 34.7553 39.7166 34.1618C39.0568 33.3812 37.9918 32.8588 36.8241 32.2861C36.6399 32.1958 36.4531 32.1042 36.265 32.0101C34.8108 31.2714 32.8313 30.2081 32.141 29.2309C31.7124 28.6123 31.4238 27.8269 31.4238 26.9447C31.4238 25.9209 31.8523 24.8863 32.8582 24.1207ZM72.8432 25.8689C72.8432 24.153 72.6997 24.031 70.9156 24.031V23.3138L77.3258 23.3139C79.5169 23.3139 80.9244 23.5291 82.2118 24.3897C83.1173 25.0101 83.7359 25.9533 83.7359 27.1689C83.7359 28.0726 83.4526 29.1162 82.5704 29.9033C81.8568 30.5453 80.8438 31.033 79.343 31.2481V31.2929C80.894 31.3413 82.2638 31.7591 83.2877 32.548C84.1465 33.2132 84.8118 34.151 84.8118 35.4617C84.8118 36.6523 84.4191 37.8285 83.467 38.734C82.5382 39.6377 81.1486 40.2133 78.6706 40.2133H70.9156V39.5409C72.6997 39.5409 72.8432 39.4387 72.8432 37.7479V25.8689ZM58.5884 24.6586C59.1568 24.1117 59.9583 23.7172 61.009 23.7172C61.9845 23.7172 62.5457 23.9898 63.0262 24.3C63.7166 24.7536 64.0572 25.3507 64.0572 25.7793C64.0572 26.258 63.817 26.4965 63.3848 26.4965C62.8259 26.4965 62.5808 26.0076 62.3222 25.4918L62.309 25.4655C62.0472 24.9401 61.7478 24.4345 61.009 24.4345C60.5321 24.4345 60.1753 24.6138 59.8436 24.9724C59.3666 25.5426 59.0815 26.4176 59.0815 28.1102V29.4998H62.0849V30.2619H59.0815V38.0616C59.0815 39.4926 59.1766 39.6306 60.9642 39.6306V40.2133H55.6299V39.6306C57.2974 39.6306 57.423 39.4728 57.423 38.0168V30.2619H55.6747V29.4998H57.423V28.0206C57.423 26.5682 57.8013 25.4691 58.5884 24.6586ZM108.973 24.7034C110.14 24.5349 110.962 24.2641 111.842 23.7172L112.066 23.8517V34.3859H112.111L115.518 31.0687C116.16 30.4735 116.305 30.0826 115.159 30.0826V29.4998H118.7V30.0826C118.012 30.1058 117.634 30.2744 117.087 30.7998L114.576 33.2204L118.207 38.734C118.733 39.5696 119.287 39.6539 120 39.6306V40.2133H117.266L113.366 34.2066L112.066 35.5514V38.0616C112.066 39.4423 112.1 39.6306 113.411 39.6306V40.2133H108.973V39.6306C110.356 39.6306 110.408 39.4423 110.408 38.0616V26.7654C110.408 25.3848 110.26 25.1965 108.973 25.1965V24.7034ZM77.5947 24.2552H75.3086C74.6918 24.2552 74.5914 24.4183 74.5914 25.062V30.9343H76.9672C78.6096 30.9343 79.9616 30.6187 80.8222 29.9033C81.5108 29.3313 81.8981 28.4903 81.8981 27.3482C81.8981 26.5377 81.5233 25.5802 81.0015 25.1517C80.3309 24.603 79.2641 24.2552 77.5947 24.2552ZM63.1159 29.724C64.6185 29.5805 65.6315 28.996 65.9399 26.4965H66.5675V29.4998H69.0778V30.2619H66.5675V37.972C66.5675 39.0891 66.901 39.6754 67.733 39.6754C68.2852 39.6754 68.7335 39.4512 69.2122 39.0926L69.5709 39.6306C68.9523 40.1774 68.2153 40.4823 67.2399 40.4823C66.026 40.4823 64.9089 39.921 64.9089 38.0616V30.2619H63.1159V29.724ZM45.5888 30.5308C46.5176 29.6702 47.649 29.2309 49.1749 29.2309C50.769 29.2309 51.8322 29.6935 52.761 30.5757C53.6916 31.5063 54.2403 32.9532 54.2403 34.8341C54.2403 36.9804 53.6683 38.3898 52.761 39.2719C51.8089 40.1272 50.6757 40.4823 49.1749 40.4823C47.7477 40.4823 46.5876 40.1505 45.6337 39.3168C44.7049 38.4364 44.1544 37.0037 44.1544 34.8341C44.1544 32.9532 44.6367 31.4578 45.5888 30.5308ZM88.0392 29.9033C88.6596 29.5447 89.4683 29.2309 90.7288 29.2309C92.1597 29.2309 93.0007 29.507 93.5978 30.1722C94.2146 30.8643 94.4047 31.5009 94.4047 32.548V38.1513C94.4047 39.2235 94.6467 39.6754 95.1219 39.6754C95.3568 39.6754 95.5594 39.6144 95.7494 39.4961L95.8838 40.0788C95.4786 40.2688 95.0716 40.3926 94.4494 40.3926C93.6192 40.3926 93.0975 39.9659 92.8805 39.1823H92.7908C91.9822 39.9461 91.0462 40.4823 89.4737 40.4823C88.7098 40.4823 87.8976 40.2653 87.2772 39.765C86.7052 39.3114 86.3359 38.6533 86.3359 37.7479C86.3359 36.6523 86.768 35.7916 87.8151 35.1031C88.6274 34.5544 89.8305 34.0452 91.3564 33.7135L92.746 33.3997V32.3687C92.746 31.8218 92.6546 31.1154 92.3426 30.7101C91.9875 30.2332 91.4263 29.9929 90.6392 29.9929C89.9237 29.9929 89.454 30.1937 89.0254 30.5308C88.7152 30.7675 88.5252 31.171 88.3082 31.6963C88.1899 32.0298 87.9568 32.2791 87.4565 32.2791C87.0029 32.2791 86.7841 31.9222 86.7841 31.5618C86.7841 30.9899 87.2754 30.3551 88.0392 29.9033ZM96.87 30.2171C97.9154 30.0503 98.7276 29.8029 99.5148 29.2309L99.7389 29.3654L99.8286 31.2032H99.8734C100.827 29.9893 102.059 29.2309 103.37 29.2309C104.394 29.2309 105.132 29.4927 105.656 29.9929C106.205 30.5183 106.508 31.3772 106.508 32.6377V38.1065C106.508 39.4405 106.601 39.6306 107.673 39.6306V40.2133H103.639V39.6306C104.785 39.6306 104.849 39.4926 104.849 38.0616V32.7273C104.849 31.7985 104.763 31.0544 104.311 30.5757C103.999 30.2673 103.563 30.0826 102.922 30.0826C101.921 30.0826 100.827 31.0114 99.8734 32.3239V38.0616C99.8734 39.4926 99.9182 39.6306 101.039 39.6306V40.2133H96.87V39.6306C98.1538 39.6306 98.2596 39.4926 98.2596 38.0616V32.2791C98.2596 30.8984 98.1305 30.7316 96.87 30.755V30.2171ZM51.5059 30.9791C50.9572 30.3103 50.1324 29.9929 49.1301 29.9929C48.178 29.9929 47.4142 30.3103 46.844 30.9791C46.2038 31.8129 45.8578 32.9981 45.8578 34.8341C45.8578 36.7635 46.2487 37.9702 46.844 38.734C47.3891 39.3526 48.1744 39.765 49.1749 39.765C50.1755 39.765 50.9142 39.3526 51.4611 38.734C52.0564 37.9702 52.4921 36.7635 52.4921 34.8341C52.4921 32.9981 52.1478 31.8129 51.5059 30.9791ZM77.5499 31.8308H74.5914V38.1513C74.5914 39.15 74.7492 39.3168 75.4879 39.3168H78.4464C80.1391 39.3168 81.2221 38.9869 82.0325 38.1513C82.6045 37.5578 82.9739 36.6577 82.9739 35.4169C82.9739 34.368 82.5274 33.4607 81.6739 32.817C80.8402 32.1715 79.5008 31.8308 77.5499 31.8308ZM90.1909 39.5857C91.36 39.5857 92.1489 38.9241 92.746 38.3306V34.1169C91.7204 34.402 90.5334 34.7355 89.653 35.2824C88.726 35.7809 88.0841 36.43 88.0841 37.5237C88.0841 38.1459 88.2186 38.648 88.5772 39.003C88.9358 39.3401 89.4773 39.5857 90.1909 39.5857Z" fill="#161E33"/></g><defs><clipPath id="clip0_1690_6729"><rect width="120" height="64" fill="white"/></clipPath></defs></svg>