<svg width="83" height="70" viewBox="0 0 83 70" fill="none" xmlns="http://www.w3.org/2000/svg">
<g id="Customer-Logo/Tripadvisor-Vertical" clip-path="url(#clip0_8017_45747)">
<g id="Vector">
<path d="M22.2552 35.8546C23.6078 35.8548 24.9301 35.45 26.0548 34.6914C27.1795 33.9329 28.0561 32.8546 28.5738 31.593C29.0915 30.3314 29.227 28.9431 28.9632 27.6038C28.6994 26.2644 28.0481 25.0341 27.0917 24.0685C26.1352 23.1029 24.9167 22.4453 23.5901 22.179C22.2635 21.9126 20.8884 22.0494 19.6388 22.5721C18.3892 23.0947 17.3212 23.9798 16.5699 25.1153C15.8186 26.2509 15.4176 27.5858 15.4178 28.9514C15.4181 30.7822 16.1385 32.5379 17.4207 33.8324C18.703 35.1269 20.4419 35.8543 22.2552 35.8546Z" fill="#161E33"/>
<path d="M60.8057 35.8556C64.5825 35.8556 67.6441 32.7645 67.6441 28.9515C67.6441 25.1384 64.5825 22.0473 60.8057 22.0473C57.029 22.0473 53.9674 25.1384 53.9674 28.9515C53.9674 32.7645 57.029 35.8556 60.8057 35.8556Z" fill="#161E33"/>
<path d="M2.9809 28.9514C2.9809 39.7001 11.6101 48.4114 22.2555 48.4114C27.1149 48.4181 31.7961 46.5645 35.3552 43.2241L41.5339 50.0121L47.7126 43.228C51.2715 46.5657 55.9511 48.4175 60.8085 48.4104C71.4548 48.4104 80.0917 39.6972 80.0917 28.9505C80.0945 26.2428 79.5362 23.5645 78.4528 21.0877C77.3694 18.6108 75.7848 16.3901 73.8008 14.5683L80.1078 7.64021H66.126C58.88 2.6621 50.3183 0 41.5539 0C32.7894 0 24.2277 2.6621 16.9818 7.64021H2.96094L9.26794 14.5683C7.28448 16.3906 5.70049 18.6115 4.61775 21.0886C3.53501 23.5656 2.97745 26.2439 2.9809 28.9514ZM73.8503 28.9514C73.8503 31.5562 73.0852 34.1025 71.6519 36.2683C70.2185 38.4341 68.1812 40.1221 65.7976 41.1189C63.414 42.1157 60.7912 42.3766 58.2608 41.8684C55.7304 41.3602 53.4061 40.1059 51.5817 38.264C49.7574 36.4222 48.515 34.0755 48.0117 31.5208C47.5084 28.966 47.7667 26.318 48.754 23.9115C49.7413 21.505 51.4133 19.4481 53.5585 18.0009C55.7036 16.5538 58.2257 15.7814 60.8057 15.7814C64.2653 15.7814 67.5832 17.1689 70.0296 19.6388C72.4759 22.1087 73.8503 25.4585 73.8503 28.9514ZM41.5311 6.36668C46.5027 6.36044 51.4258 7.3542 56.0129 9.28994C47.7801 12.4704 41.5377 19.9062 41.5377 28.5714C41.5377 19.9052 35.2935 12.4685 27.0597 9.28899C31.6435 7.35474 36.563 6.36133 41.5311 6.36668ZM22.2555 15.7814C24.8355 15.7814 27.3575 16.5538 29.5027 18.0009C31.6479 19.4481 33.3198 21.505 34.3071 23.9115C35.2945 26.318 35.5528 28.966 35.0495 31.5208C34.5461 34.0755 33.3037 36.4222 31.4794 38.264C29.6551 40.1059 27.3308 41.3602 24.8004 41.8684C22.27 42.3766 19.6471 42.1157 17.2635 41.1189C14.88 40.1221 12.8427 38.4341 11.4093 36.2683C9.97595 34.1025 9.2109 31.5562 9.2109 28.9514C9.2109 25.4585 10.5852 22.1087 13.0316 19.6388C15.4779 17.1689 18.7959 15.7814 22.2555 15.7814Z" fill="#161E33"/>
<path d="M79.4362 66.1592C79.2804 66.1592 79.128 66.2059 78.9984 66.2933C78.8688 66.3807 78.7678 66.505 78.7082 66.6503C78.6485 66.7957 78.6329 66.9557 78.6633 67.11C78.6937 67.2643 78.7688 67.4061 78.879 67.5174C78.9892 67.6286 79.1296 67.7044 79.2825 67.7351C79.4353 67.7658 79.5938 67.75 79.7378 67.6898C79.8818 67.6296 80.0048 67.5276 80.0914 67.3968C80.178 67.266 80.2242 67.1122 80.2242 66.9548C80.224 66.7439 80.1409 66.5416 79.9932 66.3925C79.8454 66.2434 79.6451 66.1595 79.4362 66.1592ZM79.4362 67.6256C79.3046 67.6256 79.176 67.5862 79.0665 67.5124C78.9571 67.4386 78.8718 67.3337 78.8215 67.2109C78.7711 67.0882 78.7579 66.9531 78.7836 66.8228C78.8093 66.6925 78.8727 66.5728 78.9657 66.4788C79.0588 66.3849 79.1773 66.3209 79.3064 66.2949C79.4355 66.269 79.5693 66.2823 79.6908 66.3332C79.8124 66.384 79.9164 66.4701 79.9895 66.5806C80.0626 66.6911 80.1016 66.821 80.1016 66.9538C80.1016 67.132 80.0315 67.3029 79.9067 67.4289C79.7819 67.5549 79.6127 67.6256 79.4362 67.6256Z" fill="#161E33"/>
<path d="M79.692 66.8194C79.6927 66.787 79.6866 66.7547 79.6739 66.7249C79.6613 66.695 79.6424 66.6683 79.6186 66.6464C79.5948 66.6246 79.5666 66.6081 79.536 66.5983C79.5053 66.5884 79.4729 66.5853 79.441 66.5891H79.1891V67.3127H79.3127V67.0498H79.4467L79.5769 67.3127H79.711L79.5674 67.0248C79.6066 67.0077 79.6396 66.9788 79.6619 66.942C79.6842 66.9053 79.6947 66.8625 79.692 66.8194ZM79.4353 66.9394H79.3127V66.6995H79.4353C79.518 66.6995 79.5684 66.7417 79.5684 66.8194C79.5684 66.8972 79.518 66.9394 79.4353 66.9394Z" fill="#161E33"/>
<path d="M11.9894 60.8424V59.472H9.91055V67.6295H11.9923V62.7369C11.9923 61.8511 12.555 61.4163 13.4324 61.4163H14.5731V59.472H13.5949C12.8335 59.472 12.171 59.8731 11.9894 60.8424Z" fill="#161E33"/>
<path d="M16.5176 56.2483C16.2672 56.2466 16.0219 56.3199 15.8128 56.4589C15.6036 56.598 15.44 56.7965 15.3426 57.0294C15.2452 57.2624 15.2184 57.5192 15.2656 57.7675C15.3128 58.0158 15.4319 58.2444 15.6078 58.4244C15.7836 58.6044 16.0084 58.7276 16.2537 58.7786C16.499 58.8296 16.7537 58.8061 16.9857 58.7109C17.2177 58.6157 17.4165 58.4532 17.5571 58.244C17.6976 58.0347 17.7735 57.7881 17.7752 57.5353C17.7785 57.3668 17.7484 57.1994 17.6866 57.0429C17.6248 56.8863 17.5325 56.7439 17.4153 56.624C17.2981 56.504 17.1583 56.409 17.0041 56.3445C16.8499 56.2799 16.6845 56.2472 16.5176 56.2483Z" fill="#161E33"/>
<path d="M17.5554 59.472H15.4794V67.6247H17.5554V59.472Z" fill="#161E33"/>
<path d="M23.2724 59.3347C22.3876 59.3302 21.526 59.621 20.8218 60.162V59.472H18.7506V70.0181H20.8266V66.9356C21.5295 67.4758 22.389 67.7673 23.2724 67.7648C24.3794 67.7648 25.4411 67.3208 26.2238 66.5305C27.0066 65.7402 27.4463 64.6683 27.4463 63.5507C27.4463 62.4331 27.0066 61.3612 26.2238 60.5709C25.4411 59.7806 24.3794 59.3366 23.2724 59.3366V59.3347ZM23.0889 65.8377C22.6403 65.8377 22.2018 65.7034 21.8288 65.4517C21.4558 65.2 21.1651 64.8424 20.9935 64.4239C20.8218 64.0054 20.777 63.545 20.8645 63.1007C20.9521 62.6565 21.1682 62.2485 21.4855 61.9283C21.8028 61.6081 22.207 61.3901 22.6471 61.3018C23.0871 61.2136 23.5431 61.2591 23.9575 61.4325C24.372 61.606 24.7261 61.8996 24.9752 62.2763C25.2243 62.653 25.3572 63.0958 25.357 63.5488C25.357 63.8494 25.2983 64.1472 25.1843 64.4249C25.0703 64.7027 24.9033 64.9551 24.6926 65.1676C24.482 65.3802 24.232 65.5488 23.9568 65.6637C23.6817 65.7787 23.3867 65.8378 23.0889 65.8377Z" fill="#161E33"/>
<path d="M63.5356 62.8338L62.3246 62.4979C61.528 62.2887 61.2172 62.0411 61.2172 61.6159C61.2172 61.1908 61.6535 60.9124 62.278 60.9124C62.8731 60.9124 63.3388 61.3059 63.3388 61.8078V61.8549H65.2523V61.8078C65.2523 60.328 64.0575 59.3347 62.278 59.3347C60.5157 59.3347 59.2362 60.328 59.2362 61.6965C59.2362 62.7608 59.9358 63.5632 61.1544 63.8962L62.3151 64.2138C63.1962 64.4605 63.5232 64.734 63.5232 65.2234C63.5232 65.7398 63.048 66.0872 62.3455 66.0872C61.6098 66.0872 61.1164 65.6179 61.1164 64.9202V64.8731H59.0851V64.9202C59.0851 66.5929 60.4158 67.7609 62.3284 67.7609C64.1687 67.7609 65.5042 66.6198 65.5042 65.0478C65.5042 64.2801 65.163 63.2714 63.5356 62.8338Z" fill="#161E33"/>
<path d="M34.8148 60.162C34.1106 59.621 33.2491 59.3302 32.3642 59.3347C31.2572 59.3347 30.1956 59.7787 29.4128 60.569C28.63 61.3593 28.1903 62.4312 28.1903 63.5488C28.1903 64.6665 28.63 65.7383 29.4128 66.5286C30.1956 67.3189 31.2572 67.7629 32.3642 67.7629C33.249 67.767 34.1104 67.4762 34.8148 66.9356V67.6256H36.8908V59.4681H34.8148V60.162ZM34.8148 63.5488C34.8148 64.0017 34.6817 64.4445 34.4325 64.8211C34.1832 65.1977 33.8289 65.4912 33.4144 65.6645C33 65.8377 32.5439 65.883 32.1039 65.7946C31.6639 65.7062 31.2598 65.488 30.9426 65.1676C30.6255 64.8473 30.4095 64.4392 30.3221 63.995C30.2347 63.5507 30.2798 63.0903 30.4516 62.6719C30.6234 62.2535 30.9142 61.8959 31.2873 61.6444C31.6604 61.3929 32.099 61.2588 32.5477 61.259C32.8455 61.259 33.1403 61.3182 33.4155 61.4333C33.6906 61.5484 33.9406 61.717 34.1511 61.9297C34.3616 62.1423 34.5286 62.3948 34.6425 62.6726C34.7563 62.9504 34.8149 63.2481 34.8148 63.5488Z" fill="#161E33"/>
<path d="M44.385 60.162C43.6811 59.6211 42.82 59.3303 41.9354 59.3347C40.8284 59.3347 39.7668 59.7787 38.984 60.569C38.2013 61.3593 37.7615 62.4311 37.7615 63.5488C37.7615 64.6664 38.2013 65.7383 38.984 66.5285C39.7668 67.3188 40.8284 67.7628 41.9354 67.7628C42.8199 67.7667 43.6809 67.4759 44.385 66.9356V67.6256H46.4611V56.5698H44.385V60.162ZM42.1179 65.8377C41.6693 65.8378 41.2306 65.7037 40.8575 65.4521C40.4844 65.2006 40.1935 64.843 40.0218 64.4245C39.85 64.0061 39.805 63.5456 39.8925 63.1013C39.98 62.657 40.196 62.2489 40.5132 61.9286C40.8305 61.6083 41.2347 61.3902 41.6747 61.3019C42.1148 61.2136 42.5709 61.259 42.9854 61.4324C43.3998 61.6059 43.7541 61.8995 44.0032 62.2762C44.2523 62.6529 44.3852 63.0958 44.385 63.5488C44.385 64.1558 44.1462 64.738 43.721 65.1673C43.2959 65.5965 42.7192 65.8377 42.1179 65.8377Z" fill="#161E33"/>
<path d="M58.179 59.4719H56.1029V67.6246H58.179V59.4719Z" fill="#161E33"/>
<path d="M57.141 56.2483C56.8906 56.2466 56.6453 56.3199 56.4361 56.4589C56.227 56.598 56.0634 56.7965 55.966 57.0294C55.8686 57.2624 55.8418 57.5192 55.889 57.7675C55.9362 58.0158 56.0553 58.2444 56.2311 58.4244C56.407 58.6044 56.6318 58.7276 56.8771 58.7786C57.1223 58.8296 57.3771 58.8061 57.6091 58.7109C57.8411 58.6157 58.0399 58.4532 58.1804 58.244C58.321 58.0347 58.3969 57.7881 58.3986 57.5353C58.4019 57.3668 58.3717 57.1994 58.3099 57.0429C58.2481 56.8863 58.1559 56.7439 58.0387 56.624C57.9215 56.504 57.7816 56.409 57.6275 56.3445C57.4733 56.2799 57.3079 56.2472 57.141 56.2483Z" fill="#161E33"/>
<path d="M70.3053 59.3347C69.4798 59.3347 68.6728 59.5819 67.9864 60.0449C67.3 60.508 66.765 61.1661 66.4491 61.9361C66.1332 62.7062 66.0505 63.5535 66.2116 64.3709C66.3727 65.1884 66.7702 65.9392 67.3539 66.5286C67.9376 67.1179 68.6814 67.5193 69.491 67.6819C70.3007 67.8445 71.1399 67.761 71.9026 67.4421C72.6653 67.1231 73.3172 66.583 73.7758 65.89C74.2345 65.197 74.4793 64.3822 74.4793 63.5488C74.4793 62.4311 74.0395 61.3593 73.2567 60.569C72.474 59.7787 71.4123 59.3347 70.3053 59.3347ZM70.3053 65.8377C69.8567 65.8379 69.418 65.7037 69.0449 65.4522C68.6718 65.2006 68.3809 64.843 68.2092 64.4246C68.0374 64.0061 67.9924 63.5456 68.0799 63.1013C68.1674 62.6571 68.3834 62.249 68.7006 61.9287C69.0179 61.6084 69.4221 61.3902 69.8621 61.3019C70.3022 61.2136 70.7583 61.259 71.1728 61.4325C71.5872 61.6059 71.9414 61.8995 72.1906 62.2762C72.4397 62.653 72.5726 63.0958 72.5724 63.5488C72.5724 64.1558 72.3336 64.738 71.9084 65.1673C71.4832 65.5965 70.9066 65.8377 70.3053 65.8377Z" fill="#161E33"/>
<path d="M10.9257 56.5698H2.96094V58.4402H5.90959V67.6256H7.97802V58.4402H10.9257V56.5698Z" fill="#161E33"/>
<path d="M51.2066 65.3924L49.3606 59.4719H47.179L49.949 67.6256H52.448L55.2341 59.4719H53.0535L51.2066 65.3924Z" fill="#161E33"/>
<path d="M80.1003 61.4163V59.472H79.1279C78.3674 59.472 77.702 59.8731 77.5224 60.8424V59.472H75.4416V67.6295H77.5224V62.7369C77.5224 61.8511 78.0851 61.4163 78.9625 61.4163H80.1003Z" fill="#161E33"/>
</g>
</g>
<defs>
<clipPath id="clip0_8017_45747">
<rect width="81.7978" height="70" fill="white" transform="translate(0.601562)"/>
</clipPath>
</defs>
</svg>
