<svg xmlns="http://www.w3.org/2000/svg" xmlns:xlink="http://www.w3.org/1999/xlink" style="margin:auto;background:#fff;display:block;" width="200px" height="200px" viewBox="0 0 100 100" preserveAspectRatio="xMidYMid">
<defs>
  <clipPath id="ldio-yl4vlk23rba-cp" x="0" y="0" width="100" height="100">
    <rect x="0" y="0" width="67.2464" height="100">
      <animate attributeName="width" repeatCount="indefinite" dur="1s" values="0;100;100" keyTimes="0;0.5;1"></animate>
      <animate attributeName="x" repeatCount="indefinite" dur="1s" values="0;0;100" keyTimes="0;0.5;1"></animate>
    </rect>
  </clipPath>
</defs>
<path fill="none" stroke="#5833ab" stroke-width="2.7928" d="M82 63H18c-7.2 0-13-5.8-13-13v0c0-7.2 5.8-13 13-13h64c7.2 0 13 5.8 13 13v0C95 57.2 89.2 63 82 63z"></path>
<path fill="#ff6262" clip-path="url(#ldio-yl4vlk23rba-cp)" d="M81.3 58.7H18.7c-4.8 0-8.7-3.9-8.7-8.7v0c0-4.8 3.9-8.7 8.7-8.7h62.7c4.8 0 8.7 3.9 8.7 8.7v0C90 54.8 86.1 58.7 81.3 58.7z"></path>
</svg>