<svg xmlns="http://www.w3.org/2000/svg" shape-rendering="geometricPrecision"
     text-rendering="geometricPrecision" image-rendering="optimizeQuality"
     fill-rule="evenodd" clip-rule="evenodd" viewBox="0 0 410 512.14">
    <path fill-rule="nonzero" fill="#ffffff"
          d="M0 300.24v-98.11h410v107.6H0v-9.49zm224.27-123.99 74.6-64.76-31.32-38.96-37.56 34.74L230.03 0h-49.92l-.06 107.3-37.6-34.74-31.32 38.96 73.67 64.04c15.03 11.62 24.12 12.55 39.47.69zm0 159.64 74.6 64.76-31.32 38.96-37.56-34.74.04 107.27h-49.92l-.06-107.3-37.6 34.74-31.32-38.96 73.67-64.03c15.03-11.63 24.12-12.56 39.47-.7zm148.12-114.77 18.62 21.46v-21.46h-18.62zm18.62 50.36-43.66-50.36h-47.7l60.37 69.62h30.99v-19.26zm-56.03 19.26-60.37-69.62h-47.74l60.37 69.62h47.74zm-72.78 0-60.38-69.62h-47.69l60.38 69.62h47.69zm-72.74 0-60.38-69.62H81.37l60.37 69.62h47.72zm-72.77 0-60.37-69.62H18.99v11.96l50 57.66h47.7zm-72.75 0-24.95-28.77v28.77h24.95z"/>
</svg>