<svg width="459" height="144" viewBox="0 0 459 144" fill="none" xmlns="http://www.w3.org/2000/svg">
<rect width="459" height="144" rx="8" fill="url(#paint0_linear_1355_6833)"/>
<path d="M178.059 66.5526C178.739 64.5323 178.974 62.3921 178.749 60.275C178.523 58.1578 177.843 56.1125 176.752 54.2757C175.135 51.4992 172.666 49.3011 169.7 47.9981C166.735 46.6951 163.427 46.3546 160.253 47.0257C158.45 45.0471 156.151 43.5714 153.586 42.7467C151.022 41.9221 148.283 41.7775 145.644 42.3276C143.005 42.8777 140.559 44.1031 138.552 45.8806C136.545 47.6582 135.048 49.9253 134.21 52.4544C132.095 52.8821 130.098 53.7501 128.351 55.0004C126.603 56.2506 125.147 57.8544 124.078 59.7044C122.444 62.4762 121.745 65.689 122.083 68.8782C122.422 72.0675 123.779 75.0679 125.96 77.4458C125.278 79.4652 125.04 81.605 125.264 83.7222C125.487 85.8394 126.166 87.8851 127.256 89.7225C128.875 92.5 131.346 94.6987 134.313 96.0016C137.281 97.3046 140.591 97.6447 143.766 96.9728C145.199 98.5642 146.959 99.8357 148.93 100.703C150.9 101.569 153.036 102.012 155.193 102C158.446 102.003 161.617 100.986 164.246 99.096C166.875 97.2061 168.828 94.541 169.821 91.4853C171.936 91.0568 173.933 90.1885 175.68 88.9383C177.427 87.688 178.884 86.0846 179.953 84.2351C181.569 81.4673 182.255 78.2666 181.915 75.0907C181.575 71.9148 180.225 68.9261 178.059 66.5526ZM155.193 98.0728C152.529 98.0769 149.948 97.1558 147.903 95.4708L148.263 95.2698L160.373 88.3743C160.674 88.1999 160.925 87.9512 161.099 87.6526C161.274 87.354 161.366 87.0157 161.368 86.6711V69.8289L166.488 72.7503C166.513 72.763 166.535 72.7814 166.552 72.804C166.569 72.8265 166.58 72.8527 166.584 72.8803V86.8368C166.578 89.8149 165.376 92.6691 163.241 94.7749C161.106 96.8807 158.212 98.0665 155.193 98.0728ZM130.709 87.7593C129.372 85.4834 128.893 82.8155 129.354 80.2251L129.714 80.4381L141.836 87.3336C142.136 87.5072 142.477 87.5987 142.825 87.5987C143.173 87.5987 143.514 87.5072 143.814 87.3336L158.623 78.9123V84.7433C158.621 84.7735 158.613 84.8031 158.598 84.8297C158.584 84.8563 158.563 84.8793 158.538 84.8971L146.272 91.8753C143.654 93.3628 140.545 93.7649 137.627 92.9932C134.709 92.2214 132.221 90.3391 130.709 87.7593ZM127.519 61.7389C128.865 59.4483 130.989 57.7012 133.515 56.8069V70.9999C133.51 71.3427 133.599 71.6805 133.772 71.978C133.945 72.2755 134.195 72.5218 134.498 72.6911L149.234 81.0768L144.114 83.9981C144.086 84.0126 144.056 84.0202 144.024 84.0202C143.993 84.0202 143.962 84.0126 143.934 83.9981L131.692 77.0318C129.079 75.5379 127.173 73.0834 126.391 70.206C125.609 67.3286 126.015 64.2628 127.519 61.6799V61.7389ZM169.582 71.3784L154.798 62.9099L159.905 59.9999C159.933 59.9854 159.964 59.9778 159.995 59.9778C160.027 59.9778 160.058 59.9854 160.085 59.9999L172.327 66.9781C174.199 68.0435 175.725 69.6121 176.727 71.5009C177.729 73.3896 178.166 75.5205 177.986 77.6448C177.806 79.7691 177.017 81.7992 175.712 83.4979C174.406 85.1967 172.638 86.494 170.613 87.2386V73.0456C170.602 72.7033 170.502 72.3696 170.321 72.0772C170.14 71.7849 169.885 71.5442 169.582 71.3784ZM174.678 63.8206L174.318 63.6076L162.22 56.6531C161.918 56.4785 161.574 56.3864 161.224 56.3864C160.874 56.3864 160.531 56.4785 160.229 56.6531L145.433 65.0741V59.2434C145.43 59.2137 145.435 59.1838 145.448 59.1567C145.461 59.1297 145.48 59.1065 145.505 59.0896L157.747 52.1232C159.624 51.057 161.769 50.5398 163.932 50.6321C166.096 50.7244 168.188 51.4223 169.963 52.6444C171.739 53.8664 173.126 55.5619 173.961 57.5327C174.796 59.5035 175.044 61.668 174.678 63.7731L174.678 63.8206ZM142.639 74.1573L137.52 71.2479C137.494 71.2326 137.472 71.2121 137.455 71.1876C137.439 71.1631 137.428 71.1353 137.423 71.1061V57.1854C137.426 55.0498 138.045 52.9592 139.208 51.1579C140.371 49.3566 142.03 47.9191 143.991 47.0135C145.951 46.1079 148.133 45.7716 150.28 46.0439C152.427 46.3162 154.452 47.1858 156.116 48.5512L155.757 48.7524L143.647 55.6474C143.345 55.8218 143.095 56.0705 142.92 56.3691C142.746 56.6677 142.653 57.006 142.651 57.3506L142.639 74.1573ZM145.421 68.2439L152.015 64.4944L158.623 68.2439V75.7423L152.04 79.4916L145.433 75.7423L145.421 68.2439Z" fill="#14A27F"/>
<path d="M219.497 71.48H227.457V63.52H231.537V71.48H239.497V75.56H231.537V83.56H227.457V75.56H219.497V71.48Z" fill="#F0F3FA"/>
<g clip-path="url(#clip0_1355_6833)">
<path fill-rule="evenodd" clip-rule="evenodd" d="M319.989 93.7997L318.952 65.212L317.074 57.675L329.608 59.002V93.5833L321.952 98.0023L319.989 93.7997Z" fill="#24386C"/>
<path fill-rule="evenodd" clip-rule="evenodd" d="M329.607 59L321.951 63.4221L306.15 59.9561L287.656 67.4862L284.574 59L295.831 52.5L307.09 46L318.347 52.5L329.607 59Z" fill="#7589BE"/>
<path fill-rule="evenodd" clip-rule="evenodd" d="M284.574 59.0001L292.231 63.4221L296.669 76.6221L311.656 88.6128L307.091 98.0001L295.831 91.4998L284.574 84.9998V59.0001Z" fill="#B2BFE8"/>
<path fill-rule="evenodd" clip-rule="evenodd" d="M312.168 81.6768L307.092 89.1601V98.0008L314.295 93.8449L318.006 88.303" fill="#24386C"/>
<path fill-rule="evenodd" clip-rule="evenodd" d="M307.095 80.322L299.889 67.8458L301.441 63.7107L307.341 60.8499L314.294 67.846L307.095 80.322Z" fill="#7589BE"/>
<path fill-rule="evenodd" clip-rule="evenodd" d="M299.889 67.8447L307.092 72.0006V80.3193L300.43 80.6059L296.4 75.4605L299.889 67.8447Z" fill="#B2BFE8"/>
<path fill-rule="evenodd" clip-rule="evenodd" d="M307.092 72L314.295 67.8445L319.197 76.0068L313.265 80.9083L307.092 80.319V72Z" fill="#24386C"/>
<path fill-rule="evenodd" clip-rule="evenodd" d="M314.295 93.8441L321.952 98.0004V63.4224L314.52 59.1335L307.092 54.8445L299.661 59.1335L292.232 63.4224V80.5814L299.661 84.8704L307.092 89.1597L314.295 85.0001V93.8441ZM314.295 76.1594L307.092 80.3187L299.889 76.1594V67.8441L307.092 63.6848L314.295 67.8441V76.1594Z" fill="#DC244C"/>
<path d="M307.095 89.1629V80.3209L299.93 76.197V85.0244L307.095 89.1629Z" fill="url(#paint1_linear_1355_6833)"/>
</g>
<defs>
<linearGradient id="paint0_linear_1355_6833" x1="229.5" y1="0" x2="229.5" y2="144" gradientUnits="userSpaceOnUse">
<stop stop-color="#161E33"/>
<stop offset="1" stop-color="#0E1424"/>
</linearGradient>
<linearGradient id="paint1_linear_1355_6833" x1="305.774" y1="82.0112" x2="298.634" y2="82.0112" gradientUnits="userSpaceOnUse">
<stop stop-color="#FF3364"/>
<stop offset="1" stop-color="#C91540" stop-opacity="0"/>
</linearGradient>
<clipPath id="clip0_1355_6833">
<rect width="44.85" height="52" fill="white" transform="translate(284.574 46)"/>
</clipPath>
</defs>
</svg>
