<svg width="459" height="144" viewBox="0 0 459 144" fill="none" xmlns="http://www.w3.org/2000/svg">
<rect width="459" height="144" rx="8" fill="url(#paint0_linear_1355_6325)"/>
<path d="M142.214 55.9729C141.457 55.9779 140.693 55.9546 139.921 55.9029C139.716 55.8879 139.441 55.9554 139.184 55.8229C139.162 55.813 139.14 55.807 139.116 55.8054L135.144 55.6829C135.086 55.6812 135.037 55.6596 134.999 55.6179C134.956 55.5712 134.891 55.5446 134.806 55.5379C134.245 55.4879 133.831 55.4604 133.564 55.4554C133.519 55.4554 133.493 55.4329 133.486 55.3879C133.48 55.3496 133.464 55.3212 133.439 55.3029C133.406 55.2796 133.372 55.2796 133.339 55.3029C133.292 55.3346 133.243 55.3479 133.191 55.3429" stroke="#F9D6DB" stroke-width="0.5"/>
<path d="M142.388 57.658C140.962 57.7063 139.56 57.7005 138.183 57.6405C136.813 57.583 135.426 57.5155 134.058 57.393C133.816 57.373 133.526 57.458 133.238 57.303C133.16 57.2597 133.081 57.2597 133.001 57.303C132.941 57.3347 132.874 57.3463 132.801 57.338C132.704 57.3297 132.657 57.2763 132.658 57.178L132.666 56.8755" stroke="#FBC6E0" stroke-width="0.5"/>
<path d="M142.609 59.7627C142.517 59.7177 142.435 59.7052 142.362 59.7252C142.312 59.7385 142.285 59.7194 142.282 59.6677C142.275 59.576 142.232 59.5294 142.154 59.5277C141.539 59.5244 141.194 59.5227 141.119 59.5227C140.716 59.5243 140.278 59.5252 139.809 59.5252H132.684C132.659 59.5252 132.635 59.5352 132.617 59.553C132.599 59.5708 132.589 59.595 132.589 59.6202V59.7427C132.589 59.7565 132.585 59.7701 132.579 59.7824C132.573 59.7947 132.564 59.8054 132.553 59.8136C132.541 59.8218 132.529 59.8274 132.515 59.8298C132.501 59.8323 132.487 59.8315 132.474 59.8277C132.429 59.8144 132.388 59.7677 132.352 59.6877" stroke="#FEB2E6" stroke-width="0.5"/>
<path d="M151.397 64.1558L150.705 67.4983C150.692 67.5572 150.663 67.6115 150.622 67.6558C150.422 67.8691 150.325 68.1208 150.33 68.4108C150.331 68.5074 150.299 68.5916 150.232 68.6633C149.877 69.0458 149.94 69.4608 149.635 69.8508C149.588 69.9108 149.552 69.9774 149.527 70.0508C149.334 70.6424 149.051 71.1849 148.68 71.6783C148.626 71.7499 148.593 71.8299 148.58 71.9183C148.46 72.7399 148.324 73.4308 148.172 73.9908C148.157 74.0441 148.12 74.0849 148.062 74.1133C148 74.1416 147.953 74.1866 147.92 74.2483L147.362 75.2758C147.324 75.3474 147.265 75.3916 147.185 75.4083C147.058 75.4333 146.984 75.5049 146.962 75.6233C146.947 75.7116 146.903 75.7816 146.83 75.8333C146.631 75.9733 146.503 76.1666 146.445 76.4133C146.436 76.4449 146.415 76.4608 146.382 76.4608C146.36 76.4608 146.338 76.4608 146.315 76.4608C146.261 76.4624 146.215 76.4816 146.175 76.5183C145.585 77.0533 144.775 77.5733 144.352 78.2533C143.945 78.9108 143.51 79.3808 143.05 79.9383C143.016 79.9799 142.974 80.0074 142.922 80.0208C142.887 80.0308 142.858 80.0533 142.835 80.0883C142.566 80.4816 142.255 80.8391 141.9 81.1608C141.602 81.4308 141.435 81.8058 141.095 82.0783C141.073 82.0949 141.017 82.1549 140.927 82.2583C140.817 82.3849 140.645 82.3999 140.412 82.3033" stroke="#CAA7ED" stroke-width="0.5"/>
<path d="M155.798 64.3804C155.901 65.0737 155.787 65.7054 155.455 66.2754C155.33 66.4904 155.363 66.6479 155.225 66.8404C155.193 66.8837 155.157 66.9554 155.115 67.0554C155.082 67.1404 155.071 67.2287 155.083 67.3204C155.093 67.4104 155.068 67.4895 155.01 67.5579C154.607 68.0179 154.392 68.552 154.365 69.1604C154.363 69.207 154.34 69.2362 154.295 69.2479L154.22 69.2679C154.167 69.2812 154.127 69.312 154.102 69.3604C153.86 69.8154 153.678 70.2304 153.325 70.6454C153.073 70.942 152.854 71.2612 152.668 71.6029C152.504 71.9029 152.298 72.2129 152.05 72.5329C151.825 72.8229 151.638 73.1379 151.488 73.4779C151.466 73.5262 151.433 73.5654 151.39 73.5954L151.293 73.6579C151.244 73.6895 151.213 73.7337 151.198 73.7904C151.12 74.1104 150.883 74.2679 150.738 74.5154C150.48 74.9454 150.208 75.2479 149.818 75.7654C149.589 76.067 149.272 76.352 148.865 76.6204C148.282 77.007 147.84 77.597 147.54 78.3904C147.25 79.1554 146.64 79.7404 146.273 80.4479C146.063 80.8554 145.68 81.0604 145.425 81.5129C145.275 81.7804 144.705 82.2629 144.67 82.4329C144.657 82.4945 144.628 82.5479 144.583 82.5929C143.561 83.5912 142.918 84.247 142.653 84.5604C141.924 85.422 141.186 86.0912 140.438 86.5679" stroke="#7CB9F2" stroke-width="0.5"/>
<path d="M166.935 67.5005C166.857 67.7805 166.919 68.0613 167.123 68.343C167.343 68.648 167.484 68.8788 167.545 69.0355C167.774 69.6105 168.034 70.1713 168.328 70.718C168.738 71.483 169.282 73.0963 169.96 75.558C170.11 76.1047 170.177 76.6938 170.16 77.3255C170.148 77.8005 170.33 78.2955 170.28 78.7455C170.178 79.6705 170.205 80.5905 169.97 81.4755C169.789 82.1555 169.602 82.8347 169.41 83.513C169.325 83.818 169.103 84.0805 169.03 84.438C169.015 84.5113 168.981 84.5738 168.928 84.6255C168.858 84.6922 168.817 84.753 168.805 84.808C168.694 85.3697 168.447 85.8588 168.065 86.2755C168.009 86.3372 167.969 86.4088 167.948 86.4905C167.859 86.8505 167.669 87.1297 167.375 87.328C167.299 87.3797 167.24 87.4463 167.2 87.528L166.865 88.213C166.829 88.2863 166.778 88.348 166.713 88.398C166.543 88.5305 166.498 88.7705 166.41 88.893C165.7 89.8813 164.935 90.8613 164.115 91.833" stroke="#6CC4F4" stroke-width="0.5"/>
<path d="M163.175 89.5204C163.474 89.0254 163.782 88.5654 164.1 88.1404C164.358 87.7954 164.445 87.4404 164.74 87.1279C165.125 86.7179 165.183 86.3229 165.44 85.9304C165.745 85.4679 165.96 84.9829 166.225 84.4954C166.27 84.4121 166.286 84.3237 166.273 84.2304C166.261 84.1321 166.291 84.0554 166.363 84.0004C166.425 83.9537 166.468 83.8937 166.493 83.8204L166.878 82.6204C166.901 82.5487 166.908 82.4754 166.898 82.4004C166.888 82.3221 166.905 82.2554 166.948 82.2004C166.995 82.1354 167.019 82.0629 167.02 81.9829C167.025 81.4954 167.275 81.1454 167.275 80.6904C167.277 79.8337 167.277 78.9771 167.275 78.1204C167.274 77.6171 166.99 76.5046 166.425 74.7829C166.305 74.4129 166.105 74.0454 165.933 73.6929C165.755 73.3304 165.715 72.7904 165.295 72.4154C165.23 72.3571 165.204 72.2854 165.215 72.2004C165.225 72.1137 165.197 72.0471 165.13 72.0004C165.074 71.9621 165.032 71.9104 165.005 71.8454C164.875 71.5321 164.73 71.2279 164.57 70.9329C164.407 70.6312 164.265 70.3521 164.145 70.0954C163.697 69.1437 163.115 68.2779 162.4 67.4979C162.35 67.4429 162.352 67.3887 162.405 67.3354L162.468 67.2729C162.483 67.2578 162.495 67.2398 162.502 67.22C162.51 67.2002 162.514 67.179 162.514 67.1576C162.513 67.1362 162.508 67.115 162.5 67.0953C162.491 67.0756 162.478 67.0578 162.463 67.0429C162.228 66.8196 161.95 66.6854 161.628 66.6404C161.586 66.6337 161.555 66.6121 161.533 66.5754C161.511 66.5354 161.483 66.5054 161.448 66.4854C161.41 66.4621 161.357 66.4629 161.29 66.4879C160.742 66.6896 160.371 66.9204 160.178 67.1804C159.858 67.6137 159.509 68.0246 159.13 68.4129C158.178 69.3929 157.24 70.3829 156.423 71.4829C156.218 71.7562 155.971 71.9879 155.683 72.1779C155.616 72.2229 155.565 72.2812 155.53 72.3529C155.315 72.8079 154.825 72.8754 154.553 73.1204C154.251 73.3921 153.97 73.6812 153.71 73.9879C153.697 74.0046 153.569 74.1212 153.325 74.3379C153.194 74.4562 153.108 74.6071 153.068 74.7904C153.05 74.8754 153.015 74.9529 152.963 75.0229L152.553 75.5629C152.538 75.5829 152.518 75.5937 152.493 75.5954C152.471 75.5954 152.45 75.5962 152.428 75.5979C152.4 75.5994 152.373 75.6075 152.348 75.6213C152.324 75.6352 152.303 75.6546 152.288 75.6779C152.058 76.0162 151.771 76.2896 151.428 76.4979C151.341 76.5496 151.288 76.6246 151.268 76.7229C151.241 76.8462 151.19 76.9504 151.113 77.0354C151.058 77.0971 151.04 77.1679 151.058 77.2479C151.103 77.4354 151.088 77.5129 150.978 77.6854C150.805 77.9521 150.675 78.2362 150.588 78.5379C150.565 78.6196 150.517 78.6846 150.445 78.7329C150.21 78.8879 150.26 79.1779 150.16 79.3629C150.003 79.6479 149.77 79.8554 149.655 80.1529C149.449 80.6896 149.229 81.0829 148.995 81.3329C148.687 81.6629 148.47 81.9596 148.345 82.2229C148.19 82.5454 147.868 83.0754 147.628 83.3179C147.258 83.6846 146.938 84.0946 146.668 84.5479C146.621 84.6262 146.558 84.6879 146.478 84.7329C146.255 84.8646 146.14 85.0554 146.135 85.3054C146.134 85.3954 146.102 85.4729 146.04 85.5379C144.649 87.0362 143.169 88.4404 141.6 89.7504C141.542 89.7991 141.5 89.8656 141.48 89.9404C141.444 90.0821 141.351 90.1537 141.203 90.1554C141.133 90.1571 141.072 90.1804 141.02 90.2254C140.969 90.2721 140.929 90.3237 140.9 90.3804" stroke="#55D5F7" stroke-width="0.5"/>
<path d="M171.889 67.1155C171.962 67.3688 172.025 67.6038 172.076 67.8205C172.133 68.0538 172.233 68.273 172.376 68.478C172.771 69.038 173.069 69.608 173.269 70.188C173.614 71.1863 173.966 72.378 174.326 73.763C174.366 73.913 174.376 74.1105 174.356 74.3555C174.331 74.6671 174.41 74.863 174.591 74.943" stroke="#8CAEF0" stroke-width="0.5"/>
<path d="M172.585 82.6477C172.482 83.1694 172.361 83.671 172.223 84.1527C172.025 84.8402 171.61 85.4852 171.315 86.1777C171.215 86.4127 171.01 86.4977 170.895 86.7627C170.654 87.3177 170.282 87.896 169.78 88.4977C169.297 89.0777 168.795 89.8802 168.275 90.9052" stroke="#8CAEF0" stroke-width="0.5"/>
<path d="M167.138 91.353C166.416 92.3847 165.707 93.3905 165.011 94.3705C164.888 94.543 164.876 94.7705 164.786 94.9055C164.309 95.6239 163.837 96.3464 163.371 97.073C163.251 97.2605 162.978 97.413 162.968 97.7405C162.966 97.8222 162.949 97.9005 162.916 97.9755L162.123 99.8305" stroke="#8CAEF0" stroke-width="0.5"/>
<path d="M164.148 93.5306C164.495 93.1272 164.948 92.4922 165.506 91.6256C165.853 91.0872 166.356 90.5181 167.016 89.9181C167.074 89.8647 167.099 89.7997 167.091 89.7231C167.076 89.5947 167.121 89.4964 167.226 89.4281C167.274 89.3947 167.308 89.3506 167.328 89.2956C167.396 89.1056 167.581 88.9956 167.673 88.8506C167.871 88.5406 167.991 88.1756 168.178 87.8931C169.05 86.5697 169.786 85.1747 170.386 83.7081C171.108 81.9456 171.508 79.9906 171.346 78.0831C171.306 77.6231 171.423 77.1906 171.348 76.7456C171.313 76.5356 171.285 76.3264 171.263 76.1181C171.147 75.0064 170.853 73.9431 170.381 72.9281C170.344 72.8497 170.331 72.7672 170.341 72.6806C170.351 72.5989 170.34 72.5189 170.308 72.4406L168.196 67.3206" stroke="#7CB9F2" stroke-width="0.5"/>
<path d="M172.968 83.5681C172.966 84.3981 172.981 85.1231 172.863 85.9881C172.793 86.4956 172.958 87.1731 172.666 87.6356C172.469 87.9439 172.347 88.1614 172.298 88.2881C171.986 89.0981 171.208 89.7531 170.691 90.4381C170.278 90.9831 169.868 91.5381 169.461 92.1031" stroke="#A69CED" stroke-width="0.5"/>
<path d="M142.22 55.9728C141.463 55.9778 140.699 55.9545 139.927 55.9028C139.722 55.8878 139.447 55.9553 139.19 55.8228C139.168 55.8129 139.145 55.807 139.122 55.8053L135.15 55.6828C135.091 55.6812 135.043 55.6595 135.005 55.6178C134.961 55.5712 134.897 55.5445 134.812 55.5378C134.25 55.4878 133.836 55.4603 133.57 55.4553C133.525 55.4553 133.499 55.4328 133.492 55.3878C133.485 55.3495 133.47 55.3212 133.445 55.3028C133.411 55.2795 133.378 55.2795 133.345 55.3028C133.298 55.3345 133.249 55.3478 133.197 55.3428C133.557 54.8745 133.665 54.3187 133.522 53.6753C133.504 53.592 133.454 53.5437 133.372 53.5303C132.075 53.3053 130.002 52.5903 129.335 51.3978C128.865 50.5628 129.102 49.0803 130.132 48.6978C130.15 48.6912 130.529 48.6445 131.267 48.5578C131.955 48.4753 133.56 48.0503 133.547 47.1053C133.537 45.9953 133.475 44.7628 133.077 43.7478C133.027 43.6212 133.065 43.582 133.192 43.6303C133.959 43.9253 134.624 44.3695 135.187 44.9628C135.35 45.1345 135.432 45.102 135.432 44.8653L135.43 43.6903C135.43 43.5903 135.476 43.5562 135.57 43.5878C140.532 45.2703 141.787 51.5178 142.22 55.9728Z" fill="#F0F3FA"/>
<path d="M142.217 55.9729L142.394 57.6579C140.967 57.7062 139.566 57.7004 138.189 57.6404C136.819 57.5829 135.432 57.5154 134.064 57.3929C133.822 57.3729 133.532 57.4579 133.244 57.3029C133.166 57.2596 133.087 57.2596 133.007 57.3029C132.947 57.3346 132.88 57.3462 132.807 57.3379C132.71 57.3296 132.662 57.2762 132.664 57.1779L132.672 56.8754L133.194 55.3429C133.246 55.3479 133.295 55.3346 133.342 55.3029C133.375 55.2796 133.408 55.2796 133.442 55.3029C133.467 55.3212 133.482 55.3496 133.489 55.3879C133.496 55.4329 133.522 55.4554 133.567 55.4554C133.833 55.4604 134.247 55.4879 134.809 55.5379C134.894 55.5446 134.958 55.5712 135.002 55.6179C135.04 55.6596 135.088 55.6812 135.147 55.6829L139.119 55.8054C139.142 55.807 139.165 55.813 139.187 55.8229C139.444 55.9554 139.719 55.8879 139.924 55.9029C140.696 55.9546 141.46 55.9779 142.217 55.9729Z" fill="#FACCDE"/>
<path d="M132.669 56.8755L132.662 57.178C132.66 57.2763 132.707 57.3297 132.804 57.338C132.877 57.3463 132.944 57.3347 133.004 57.303C133.084 57.2597 133.163 57.2597 133.242 57.303C133.529 57.458 133.819 57.373 134.062 57.393C135.429 57.5155 136.817 57.583 138.187 57.6405C139.563 57.7005 140.965 57.7063 142.392 57.658L142.609 59.763C142.517 59.718 142.435 59.7055 142.362 59.7255C142.312 59.7388 142.285 59.7197 142.282 59.668C142.275 59.5763 142.232 59.5297 142.154 59.528C141.539 59.5247 141.194 59.523 141.119 59.523C140.716 59.5246 140.278 59.5254 139.809 59.5255H132.684C132.659 59.5255 132.635 59.5355 132.617 59.5533C132.599 59.5711 132.589 59.5953 132.589 59.6205V59.743C132.589 59.7568 132.585 59.7704 132.579 59.7827C132.573 59.795 132.564 59.8057 132.553 59.8139C132.541 59.8221 132.529 59.8277 132.515 59.8301C132.501 59.8326 132.487 59.8318 132.474 59.828C132.429 59.8147 132.388 59.768 132.352 59.688L132.669 56.8755Z" fill="#FCBFE2"/>
<path d="M142.61 59.7627L142.99 63.9577C143.001 64.0877 143.071 64.1527 143.2 64.1527L151.4 64.1552L150.707 67.4977C150.694 67.5566 150.666 67.611 150.625 67.6552C150.425 67.8685 150.327 68.1202 150.332 68.4102C150.334 68.5069 150.301 68.591 150.235 68.6627C149.88 69.0452 149.942 69.4602 149.637 69.8502C149.59 69.9102 149.555 69.9769 149.53 70.0502C149.336 70.6419 149.054 71.1844 148.682 71.6777C148.629 71.7494 148.595 71.8294 148.582 71.9177C148.462 72.7394 148.326 73.4302 148.175 73.9902C148.16 74.0435 148.123 74.0844 148.065 74.1127C148.003 74.141 147.955 74.186 147.922 74.2477L147.365 75.2752C147.326 75.3469 147.267 75.391 147.187 75.4077C147.06 75.4327 146.986 75.5044 146.965 75.6227C146.95 75.711 146.905 75.781 146.832 75.8327C146.634 75.9727 146.505 76.166 146.447 76.4127C146.439 76.4444 146.418 76.4602 146.385 76.4602C146.363 76.4602 146.34 76.4602 146.317 76.4602C146.264 76.4619 146.217 76.481 146.177 76.5177C145.587 77.0527 144.777 77.5727 144.355 78.2527C143.947 78.9102 143.512 79.3802 143.052 79.9377C143.019 79.9794 142.976 80.0069 142.925 80.0202C142.89 80.0302 142.86 80.0527 142.837 80.0877C142.569 80.481 142.257 80.8385 141.902 81.1602C141.605 81.4302 141.437 81.8052 141.097 82.0777C141.075 82.0944 141.02 82.1544 140.93 82.2577C140.82 82.3844 140.648 82.3994 140.415 82.3027C137.845 80.9552 135.192 78.6277 134.395 75.7077C134.045 74.4277 134.197 72.7127 134.177 71.2402C134.175 71.1569 134.151 71.0794 134.105 71.0077C132.74 68.9327 132.917 66.5327 132.927 64.2552C132.929 63.8719 132.86 63.461 132.72 63.0227C132.375 61.9494 132.252 60.8377 132.352 59.6877C132.389 59.7677 132.43 59.8144 132.475 59.8277C132.488 59.8315 132.502 59.8323 132.515 59.8298C132.529 59.8274 132.542 59.8218 132.553 59.8136C132.564 59.8054 132.573 59.7947 132.58 59.7824C132.586 59.7701 132.589 59.7565 132.59 59.7427V59.6202C132.59 59.595 132.6 59.5708 132.617 59.553C132.635 59.5352 132.659 59.5252 132.685 59.5252H139.81C140.278 59.5252 140.716 59.5243 141.12 59.5227C141.195 59.5227 141.54 59.5244 142.155 59.5277C142.233 59.5294 142.275 59.576 142.282 59.6677C142.285 59.7194 142.312 59.7385 142.362 59.7252C142.435 59.7052 142.518 59.7177 142.61 59.7627Z" fill="#FFA5EA"/>
<path d="M151.403 64.1558C152.87 64.0874 154.336 64.1624 155.803 64.3808C155.906 65.0741 155.792 65.7058 155.46 66.2758C155.335 66.4908 155.368 66.6483 155.23 66.8408C155.199 66.8841 155.162 66.9558 155.12 67.0558C155.087 67.1408 155.076 67.2291 155.088 67.3208C155.098 67.4108 155.074 67.4899 155.015 67.5583C154.612 68.0183 154.397 68.5524 154.37 69.1608C154.369 69.2074 154.345 69.2366 154.3 69.2483L154.225 69.2683C154.172 69.2816 154.133 69.3124 154.108 69.3608C153.865 69.8158 153.683 70.2308 153.33 70.6458C153.079 70.9424 152.86 71.2616 152.673 71.6033C152.51 71.9033 152.304 72.2133 152.055 72.5333C151.83 72.8233 151.643 73.1383 151.493 73.4783C151.471 73.5266 151.439 73.5658 151.395 73.5958L151.298 73.6583C151.25 73.6899 151.218 73.7341 151.203 73.7908C151.125 74.1108 150.888 74.2683 150.743 74.5158C150.485 74.9458 150.213 75.2483 149.823 75.7658C149.595 76.0674 149.277 76.3524 148.87 76.6208C148.287 77.0074 147.845 77.5974 147.545 78.3908C147.255 79.1558 146.645 79.7408 146.278 80.4483C146.068 80.8558 145.685 81.0608 145.43 81.5133C145.28 81.7808 144.71 82.2633 144.675 82.4333C144.662 82.4949 144.633 82.5483 144.588 82.5933C143.566 83.5916 142.923 84.2474 142.658 84.5608C141.93 85.4224 141.191 86.0916 140.443 86.5683L140.418 82.3033C140.651 82.3999 140.823 82.3849 140.933 82.2583C141.023 82.1549 141.079 82.0949 141.1 82.0783C141.44 81.8058 141.608 81.4308 141.905 81.1608C142.26 80.8391 142.572 80.4816 142.84 80.0883C142.864 80.0533 142.893 80.0308 142.928 80.0208C142.98 80.0074 143.022 79.9799 143.055 79.9383C143.515 79.3808 143.95 78.9108 144.358 78.2533C144.78 77.5733 145.59 77.0533 146.18 76.5183C146.22 76.4816 146.267 76.4624 146.32 76.4608C146.344 76.4608 146.366 76.4608 146.388 76.4608C146.421 76.4608 146.442 76.4449 146.45 76.4133C146.509 76.1666 146.637 75.9733 146.835 75.8333C146.909 75.7816 146.953 75.7116 146.968 75.6233C146.99 75.5049 147.064 75.4333 147.19 75.4083C147.27 75.3916 147.33 75.3474 147.368 75.2758L147.925 74.2483C147.959 74.1866 148.006 74.1416 148.068 74.1133C148.126 74.0849 148.163 74.0441 148.178 73.9908C148.33 73.4308 148.465 72.7399 148.585 71.9183C148.599 71.8299 148.632 71.7499 148.685 71.6783C149.057 71.1849 149.34 70.6424 149.533 70.0508C149.558 69.9774 149.594 69.9108 149.64 69.8508C149.945 69.4608 149.883 69.0458 150.238 68.6633C150.305 68.5916 150.337 68.5074 150.335 68.4108C150.33 68.1208 150.428 67.8691 150.628 67.6558C150.669 67.6115 150.697 67.5572 150.71 67.4983L151.403 64.1558Z" fill="#94A8EF"/>
<path d="M155.798 64.3804C157.876 64.537 159.88 64.9404 161.81 65.5904C163.62 66.2029 164.94 67.3704 166.938 67.5004C166.859 67.7804 166.922 68.0612 167.125 68.3429C167.345 68.6479 167.486 68.8787 167.548 69.0354C167.776 69.6104 168.037 70.1712 168.33 70.7179C168.74 71.4829 169.284 73.0962 169.962 75.5579C170.112 76.1045 170.179 76.6937 170.162 77.3254C170.15 77.8004 170.332 78.2954 170.282 78.7454C170.18 79.6704 170.208 80.5904 169.972 81.4754C169.791 82.1554 169.604 82.8345 169.412 83.5129C169.327 83.8179 169.105 84.0804 169.032 84.4379C169.017 84.5112 168.983 84.5737 168.93 84.6254C168.86 84.692 168.819 84.7529 168.807 84.8079C168.696 85.3695 168.449 85.8587 168.067 86.2754C168.011 86.337 167.972 86.4087 167.95 86.4904C167.862 86.8504 167.671 87.1295 167.377 87.3279C167.301 87.3795 167.243 87.4462 167.202 87.5279L166.868 88.2129C166.831 88.2862 166.78 88.3479 166.715 88.3979C166.545 88.5304 166.5 88.7704 166.412 88.8929C165.702 89.8812 164.938 90.8612 164.118 91.8329C163.903 90.9162 163.589 90.1454 163.177 89.5204C163.476 89.0254 163.784 88.5654 164.102 88.1404C164.36 87.7954 164.448 87.4404 164.743 87.1279C165.128 86.7179 165.185 86.3229 165.442 85.9304C165.747 85.4679 165.962 84.9829 166.227 84.4954C166.272 84.412 166.288 84.3237 166.275 84.2304C166.263 84.132 166.293 84.0554 166.365 84.0004C166.427 83.9537 166.47 83.8937 166.495 83.8204L166.88 82.6204C166.903 82.5487 166.91 82.4754 166.9 82.4004C166.89 82.322 166.907 82.2554 166.95 82.2004C166.997 82.1354 167.021 82.0629 167.022 81.9829C167.028 81.4954 167.278 81.1454 167.278 80.6904C167.279 79.8337 167.279 78.977 167.278 78.1204C167.276 77.617 166.992 76.5045 166.427 74.7829C166.307 74.4129 166.107 74.0454 165.935 73.6929C165.757 73.3304 165.718 72.7904 165.298 72.4154C165.233 72.357 165.206 72.2854 165.217 72.2004C165.227 72.1137 165.199 72.047 165.132 72.0004C165.076 71.962 165.034 71.9104 165.007 71.8454C164.878 71.532 164.732 71.2279 164.572 70.9329C164.409 70.6312 164.267 70.352 164.147 70.0954C163.699 69.1437 163.118 68.2779 162.403 67.4979C162.353 67.4429 162.354 67.3887 162.407 67.3354L162.47 67.2729C162.485 67.2578 162.497 67.2398 162.505 67.22C162.512 67.2002 162.516 67.179 162.516 67.1576C162.515 67.1362 162.511 67.115 162.502 67.0953C162.493 67.0756 162.481 67.0578 162.465 67.0429C162.23 66.8195 161.952 66.6854 161.63 66.6404C161.588 66.6337 161.557 66.612 161.535 66.5754C161.513 66.5354 161.485 66.5054 161.45 66.4854C161.412 66.462 161.359 66.4629 161.292 66.4879C160.744 66.6895 160.373 66.9204 160.18 67.1804C159.86 67.6137 159.511 68.0245 159.132 68.4129C158.18 69.3929 157.243 70.3829 156.425 71.4829C156.22 71.7562 155.973 71.9879 155.685 72.1779C155.618 72.2229 155.567 72.2812 155.532 72.3529C155.317 72.8079 154.828 72.8754 154.555 73.1204C154.253 73.392 153.972 73.6812 153.712 73.9879C153.699 74.0045 153.571 74.1212 153.328 74.3379C153.196 74.4562 153.11 74.607 153.07 74.7904C153.052 74.8754 153.017 74.9529 152.965 75.0229L152.555 75.5629C152.54 75.5829 152.52 75.5937 152.495 75.5954C152.473 75.5954 152.452 75.5962 152.43 75.5979C152.402 75.5994 152.375 75.6074 152.351 75.6213C152.326 75.6352 152.306 75.6546 152.29 75.6779C152.06 76.0162 151.773 76.2895 151.43 76.4979C151.343 76.5495 151.29 76.6245 151.27 76.7229C151.243 76.8462 151.192 76.9504 151.115 77.0354C151.06 77.097 151.042 77.1679 151.06 77.2479C151.105 77.4354 151.09 77.5129 150.98 77.6854C150.807 77.952 150.677 78.2362 150.59 78.5379C150.567 78.6195 150.519 78.6845 150.447 78.7329C150.212 78.8879 150.262 79.1779 150.162 79.3629C150.005 79.6479 149.773 79.8554 149.658 80.1529C149.451 80.6895 149.231 81.0829 148.998 81.3329C148.689 81.6629 148.473 81.9595 148.348 82.2229C148.193 82.5454 147.87 83.0754 147.63 83.3179C147.26 83.6845 146.94 84.0945 146.67 84.5479C146.623 84.6262 146.56 84.6879 146.48 84.7329C146.257 84.8645 146.143 85.0554 146.138 85.3054C146.136 85.3954 146.104 85.4729 146.043 85.5379C144.651 87.0362 143.171 88.4404 141.603 89.7504C141.544 89.7991 141.502 89.8655 141.482 89.9404C141.446 90.082 141.353 90.1537 141.205 90.1554C141.135 90.157 141.074 90.1804 141.023 90.2254C140.971 90.272 140.931 90.3237 140.903 90.3804L140.438 86.5679C141.186 86.0912 141.924 85.422 142.652 84.5604C142.918 84.247 143.561 83.5912 144.582 82.5929C144.628 82.5479 144.657 82.4945 144.67 82.4329C144.705 82.2629 145.275 81.7804 145.425 81.5129C145.68 81.0604 146.063 80.8554 146.273 80.4479C146.64 79.7404 147.25 79.1554 147.54 78.3904C147.84 77.597 148.282 77.007 148.865 76.6204C149.272 76.352 149.589 76.067 149.818 75.7654C150.208 75.2479 150.48 74.9454 150.738 74.5154C150.883 74.2679 151.12 74.1104 151.197 73.7904C151.212 73.7337 151.244 73.6895 151.293 73.6579L151.39 73.5954C151.433 73.5654 151.466 73.5262 151.488 73.4779C151.638 73.1379 151.825 72.8229 152.05 72.5329C152.298 72.2129 152.504 71.9029 152.668 71.6029C152.854 71.2612 153.073 70.942 153.325 70.6454C153.678 70.2304 153.86 69.8154 154.102 69.3604C154.127 69.312 154.167 69.2812 154.22 69.2679L154.295 69.2479C154.34 69.2362 154.363 69.207 154.365 69.1604C154.392 68.552 154.607 68.0179 155.01 67.5579C155.068 67.4895 155.093 67.4104 155.083 67.3204C155.071 67.2287 155.082 67.1404 155.115 67.0554C155.157 66.9554 155.193 66.8837 155.225 66.8404C155.362 66.6479 155.33 66.4904 155.455 66.2754C155.787 65.7054 155.901 65.0737 155.798 64.3804Z" fill="#64CAF5"/>
<path d="M163.181 89.5204C162.561 88.7304 161.626 87.8854 161.276 87.1029C160.868 86.1979 160.976 85.3429 161.006 84.3804C161.009 84.2854 160.966 84.2537 160.876 84.2854C157.033 85.6154 152.698 85.9379 148.746 84.8979C148.659 84.8746 148.615 84.9087 148.613 85.0004C148.595 87.1754 148.427 89.1937 148.108 91.0554C148.007 91.6521 147.783 92.2571 147.438 92.8704C147.399 92.9409 147.378 93.0201 147.378 93.1004C147.375 94.4837 147.36 95.8646 147.333 97.2429C147.321 97.8829 146.843 100.403 145.906 100.43C145.001 100.457 144.064 100.467 143.096 100.46C143.075 100.46 143.054 100.455 143.036 100.445C143.017 100.435 143.001 100.421 142.989 100.403C142.977 100.386 142.969 100.366 142.967 100.345C142.964 100.324 142.966 100.303 142.973 100.283C143.332 99.3412 143.904 98.5596 144.691 97.9379C144.758 97.8846 144.793 97.8162 144.796 97.7329C144.841 96.0829 145.041 93.3629 144.321 91.8704C144.314 91.8561 144.302 91.8443 144.288 91.8367C144.274 91.8291 144.258 91.8261 144.242 91.828C144.226 91.8299 144.211 91.8367 144.2 91.8474C144.188 91.8581 144.179 91.8723 144.176 91.8879C143.556 94.5654 142.683 97.3979 141.166 99.7304C141.144 99.7641 141.115 99.7918 141.08 99.811C141.045 99.8302 141.006 99.8403 140.966 99.8404H138.691C138.608 99.8404 138.567 99.7987 138.568 99.7154C138.581 98.9379 138.863 98.0829 139.713 97.8879C139.793 97.8696 139.852 97.8237 139.888 97.7504C141.071 95.2854 141.191 93.4979 140.906 90.3804C140.934 90.3237 140.974 90.2721 141.026 90.2254C141.078 90.1804 141.138 90.1571 141.208 90.1554C141.357 90.1537 141.449 90.0821 141.486 89.9404C141.505 89.8656 141.547 89.7991 141.606 89.7504C143.174 88.4404 144.654 87.0362 146.046 85.5379C146.108 85.4729 146.139 85.3954 146.141 85.3054C146.146 85.0554 146.26 84.8646 146.483 84.7329C146.563 84.6879 146.627 84.6262 146.673 84.5479C146.943 84.0946 147.263 83.6846 147.633 83.3179C147.873 83.0754 148.196 82.5454 148.351 82.2229C148.476 81.9596 148.693 81.6629 149.001 81.3329C149.234 81.0829 149.454 80.6896 149.661 80.1529C149.776 79.8554 150.008 79.6479 150.166 79.3629C150.266 79.1779 150.216 78.8879 150.451 78.7329C150.523 78.6846 150.57 78.6196 150.593 78.5379C150.68 78.2362 150.81 77.9521 150.983 77.6854C151.093 77.5129 151.108 77.4354 151.063 77.2479C151.045 77.1679 151.063 77.0971 151.118 77.0354C151.195 76.9504 151.247 76.8462 151.273 76.7229C151.293 76.6246 151.347 76.5496 151.433 76.4979C151.777 76.2896 152.063 76.0162 152.293 75.6779C152.309 75.6546 152.33 75.6352 152.354 75.6213C152.378 75.6075 152.405 75.5994 152.433 75.5979C152.455 75.5962 152.477 75.5954 152.498 75.5954C152.523 75.5937 152.543 75.5829 152.558 75.5629L152.968 75.0229C153.02 74.9529 153.055 74.8754 153.073 74.7904C153.113 74.6071 153.199 74.4562 153.331 74.3379C153.574 74.1212 153.703 74.0046 153.716 73.9879C153.976 73.6812 154.257 73.3921 154.558 73.1204C154.831 72.8754 155.321 72.8079 155.536 72.3529C155.571 72.2812 155.622 72.2229 155.688 72.1779C155.977 71.9879 156.223 71.7562 156.428 71.4829C157.246 70.3829 158.183 69.3929 159.136 68.4129C159.514 68.0246 159.863 67.6137 160.183 67.1804C160.377 66.9204 160.748 66.6896 161.296 66.4879C161.363 66.4629 161.415 66.4621 161.453 66.4854C161.488 66.5054 161.517 66.5354 161.538 66.5754C161.56 66.6121 161.592 66.6337 161.633 66.6404C161.955 66.6854 162.233 66.8196 162.468 67.0429C162.484 67.0578 162.497 67.0756 162.505 67.0953C162.514 67.115 162.519 67.1362 162.519 67.1576C162.52 67.179 162.516 67.2002 162.508 67.22C162.5 67.2398 162.488 67.2578 162.473 67.2729L162.411 67.3354C162.358 67.3887 162.356 67.4429 162.406 67.4979C163.121 68.2779 163.703 69.1437 164.151 70.0954C164.271 70.3521 164.413 70.6312 164.576 70.9329C164.736 71.2279 164.881 71.5321 165.011 71.8454C165.038 71.9104 165.079 71.9621 165.136 72.0004C165.203 72.0471 165.231 72.1137 165.221 72.2004C165.209 72.2854 165.236 72.3571 165.301 72.4154C165.721 72.7904 165.761 73.3304 165.938 73.6929C166.111 74.0454 166.311 74.4129 166.431 74.7829C166.996 76.5046 167.279 77.6171 167.281 78.1204C167.283 78.9771 167.283 79.8337 167.281 80.6904C167.281 81.1454 167.031 81.4954 167.026 81.9829C167.024 82.0629 167 82.1354 166.953 82.2004C166.91 82.2554 166.893 82.3221 166.903 82.4004C166.913 82.4754 166.907 82.5487 166.883 82.6204L166.498 83.8204C166.473 83.8937 166.43 83.9537 166.368 84.0004C166.297 84.0554 166.267 84.1321 166.278 84.2304C166.292 84.3237 166.276 84.4121 166.231 84.4954C165.966 84.9829 165.751 85.4679 165.446 85.9304C165.188 86.3229 165.131 86.7179 164.746 87.1279C164.451 87.4404 164.363 87.7954 164.106 88.1404C163.788 88.5654 163.479 89.0254 163.181 89.5204Z" fill="#45DFF8"/>
<path d="M171.888 67.1154C171.961 67.3688 172.023 67.6038 172.075 67.8204C172.132 68.0538 172.232 68.2729 172.375 68.4779C172.77 69.0379 173.068 69.6079 173.268 70.1879C173.613 71.1863 173.965 72.3779 174.325 73.7629C174.365 73.9129 174.375 74.1104 174.355 74.3554C174.33 74.6671 174.408 74.8629 174.59 74.9429C174.165 75.8629 173.466 76.4529 172.493 76.7129C172.408 76.7346 172.359 76.7888 172.348 76.8754C172.089 78.8404 172.168 80.7646 172.583 82.6479C172.479 83.1696 172.358 83.6713 172.22 84.1529C172.023 84.8404 171.608 85.4854 171.313 86.1779C171.213 86.4129 171.008 86.4979 170.893 86.7629C170.651 87.3179 170.279 87.8963 169.778 88.4979C169.294 89.0779 168.793 89.8804 168.273 90.9054L167.463 89.7729C167.398 89.6813 167.358 89.6913 167.343 89.8029L167.135 91.3529C166.413 92.3846 165.704 93.3904 165.008 94.3704C164.885 94.5429 164.873 94.7704 164.783 94.9054C164.306 95.6238 163.834 96.3463 163.368 97.0729C163.248 97.2604 162.975 97.4129 162.965 97.7404C162.963 97.8221 162.946 97.9004 162.913 97.9754L162.12 99.8304L161.188 99.8204C161.103 99.8204 161.061 99.7771 161.063 99.6904C161.088 98.9729 161.345 98.0879 162.153 97.9179C162.238 97.8996 162.303 97.8546 162.35 97.7829C163.24 96.4613 163.838 95.0438 164.145 93.5304C164.492 93.1271 164.944 92.4921 165.503 91.6254C165.849 91.0871 166.353 90.5179 167.013 89.9179C167.071 89.8646 167.096 89.7996 167.088 89.7229C167.073 89.5946 167.118 89.4963 167.223 89.4279C167.271 89.3946 167.305 89.3504 167.325 89.2954C167.393 89.1054 167.578 88.9954 167.67 88.8504C167.868 88.5404 167.988 88.1754 168.175 87.8929C169.047 86.5696 169.783 85.1746 170.383 83.7079C171.105 81.9454 171.505 79.9904 171.343 78.0829C171.303 77.6229 171.42 77.1904 171.345 76.7454C171.31 76.5354 171.282 76.3263 171.26 76.1179C171.143 75.0063 170.849 73.9429 170.378 72.9279C170.341 72.8496 170.328 72.7671 170.338 72.6804C170.348 72.5988 170.337 72.5188 170.305 72.4404L168.193 67.3204C168.961 67.0354 169.687 66.8629 170.37 66.8029C170.935 66.7529 171.441 66.8571 171.888 67.1154Z" fill="#84B4F1"/>
<path d="M171.889 67.1155C174.654 68.613 175.381 72.158 174.591 74.943C174.41 74.863 174.331 74.6671 174.356 74.3555C174.376 74.1105 174.366 73.913 174.326 73.763C173.966 72.378 173.614 71.1863 173.269 70.188C173.069 69.608 172.771 69.038 172.376 68.478C172.233 68.273 172.133 68.0538 172.076 67.8205C172.025 67.6038 171.962 67.3688 171.889 67.1155Z" fill="#94A8EF"/>
<path d="M168.198 67.3206L170.311 72.4406C170.342 72.5189 170.353 72.5989 170.343 72.6806C170.333 72.7672 170.346 72.8497 170.383 72.9281C170.855 73.9431 171.149 75.0064 171.266 76.1181C171.287 76.3264 171.316 76.5356 171.351 76.7456C171.426 77.1906 171.308 77.6231 171.348 78.0831C171.511 79.9906 171.111 81.9456 170.388 83.7081C169.788 85.1747 169.052 86.5697 168.181 87.8931C167.993 88.1756 167.873 88.5406 167.676 88.8506C167.583 88.9956 167.398 89.1056 167.331 89.2956C167.311 89.3506 167.276 89.3947 167.228 89.4281C167.123 89.4964 167.078 89.5947 167.093 89.7231C167.101 89.7997 167.076 89.8647 167.018 89.9181C166.358 90.5181 165.855 91.0872 165.508 91.6256C164.95 92.4922 164.497 93.1272 164.151 93.5306L164.123 91.8331C164.943 90.8614 165.708 89.8814 166.418 88.8931C166.506 88.7706 166.551 88.5306 166.721 88.3981C166.786 88.3481 166.836 88.2864 166.873 88.2131L167.208 87.5281C167.248 87.4464 167.306 87.3797 167.383 87.3281C167.676 87.1297 167.867 86.8506 167.956 86.4906C167.977 86.4089 168.016 86.3372 168.073 86.2756C168.455 85.8589 168.701 85.3697 168.813 84.8081C168.825 84.7531 168.866 84.6922 168.936 84.6256C168.989 84.5739 169.023 84.5114 169.038 84.4381C169.111 84.0806 169.333 83.8181 169.418 83.5131C169.61 82.8347 169.796 82.1556 169.978 81.4756C170.213 80.5906 170.186 79.6706 170.288 78.7456C170.338 78.2956 170.156 77.8006 170.168 77.3256C170.185 76.6939 170.118 76.1047 169.968 75.5581C169.29 73.0964 168.746 71.4831 168.336 70.7181C168.042 70.1714 167.781 69.6106 167.553 69.0356C167.491 68.8789 167.351 68.6481 167.131 68.3431C166.927 68.0614 166.865 67.7806 166.943 67.5006L168.198 67.3206Z" fill="#74BEF3"/>
<path d="M172.585 82.6477L172.97 83.5677C172.968 84.3977 172.983 85.1227 172.865 85.9877C172.795 86.4952 172.96 87.1727 172.668 87.6352C172.471 87.9435 172.349 88.161 172.3 88.2877C171.988 89.0977 171.21 89.7527 170.693 90.4377C170.28 90.9827 169.87 91.5377 169.463 92.1027L168.275 90.9052C168.795 89.8802 169.297 89.0777 169.78 88.4977C170.282 87.896 170.654 87.3177 170.895 86.7627C171.01 86.4977 171.215 86.4127 171.315 86.1777C171.61 85.4852 172.025 84.8402 172.223 84.1527C172.361 83.671 172.482 83.1694 172.585 82.6477Z" fill="#94A8EF"/>
<path d="M172.967 83.5681C172.974 84.7931 172.983 86.0181 172.995 87.2431C172.998 87.6581 173.08 88.0956 173.24 88.5556C173.907 90.4631 174.115 92.2881 173.062 94.1006C173.021 94.1706 173.004 94.2465 173.012 94.3281C173.237 96.2956 173.29 98.4906 172.43 100.328C172.41 100.369 172.38 100.404 172.342 100.428C172.304 100.453 172.26 100.466 172.215 100.466L169.362 100.463C169.338 100.463 169.315 100.457 169.294 100.446C169.274 100.434 169.257 100.417 169.245 100.396C169.233 100.375 169.227 100.351 169.227 100.327C169.227 100.303 169.233 100.279 169.245 100.258C169.508 99.7915 169.867 99.4156 170.322 99.1306C170.389 99.0873 170.428 99.0264 170.44 98.9481C170.685 97.2606 170.96 94.6881 170.45 93.0556C170.425 92.9756 170.381 92.9081 170.317 92.8531L169.46 92.1031C169.866 91.5381 170.276 90.9831 170.69 90.4381C171.207 89.7531 171.985 89.0981 172.297 88.2881C172.346 88.1614 172.468 87.9439 172.665 87.6356C172.957 87.1731 172.792 86.4956 172.862 85.9881C172.98 85.1231 172.965 84.3981 172.967 83.5681Z" fill="#B890EB"/>
<path d="M167.138 91.353C166.831 93.4555 166.008 95.7455 164.388 97.168C164.342 97.2088 164.305 97.2592 164.28 97.3157C164.255 97.3722 164.242 97.4336 164.243 97.4955L164.258 99.6855C164.258 99.7755 164.214 99.8205 164.126 99.8205L162.123 99.8305L162.916 97.9755C162.949 97.9005 162.966 97.8222 162.968 97.7405C162.978 97.413 163.251 97.2605 163.371 97.073C163.837 96.3464 164.309 95.6239 164.786 94.9055C164.876 94.7705 164.888 94.543 165.011 94.3705C165.707 93.3905 166.416 92.3847 167.138 91.353Z" fill="#94A8EF"/>
<path d="M219.497 71.48H227.457V63.52H231.537V71.48H239.497V75.56H231.537V83.56H227.457V75.56H219.497V71.48Z" fill="#F0F3FA"/>
<g clip-path="url(#clip0_1355_6325)">
<path fill-rule="evenodd" clip-rule="evenodd" d="M319.989 93.7997L318.952 65.212L317.074 57.675L329.608 59.002V93.5833L321.952 98.0023L319.989 93.7997Z" fill="#24386C"/>
<path fill-rule="evenodd" clip-rule="evenodd" d="M329.607 59L321.951 63.422L306.15 59.9561L287.656 67.4862L284.574 59L295.831 52.5L307.09 46L318.347 52.5L329.607 59Z" fill="#7589BE"/>
<path fill-rule="evenodd" clip-rule="evenodd" d="M284.574 59.0001L292.231 63.4221L296.669 76.6221L311.656 88.6128L307.091 98.0001L295.831 91.4998L284.574 84.9998V59.0001Z" fill="#B2BFE8"/>
<path fill-rule="evenodd" clip-rule="evenodd" d="M312.168 81.6768L307.092 89.1601V98.0008L314.295 93.8449L318.006 88.303" fill="#24386C"/>
<path fill-rule="evenodd" clip-rule="evenodd" d="M307.095 80.322L299.889 67.8458L301.441 63.7107L307.341 60.8499L314.294 67.846L307.095 80.322Z" fill="#7589BE"/>
<path fill-rule="evenodd" clip-rule="evenodd" d="M299.889 67.8447L307.092 72.0006V80.3193L300.43 80.6059L296.4 75.4605L299.889 67.8447Z" fill="#B2BFE8"/>
<path fill-rule="evenodd" clip-rule="evenodd" d="M307.092 72L314.295 67.8445L319.197 76.0068L313.265 80.9083L307.092 80.319V72Z" fill="#24386C"/>
<path fill-rule="evenodd" clip-rule="evenodd" d="M314.295 93.8441L321.952 98.0004V63.4224L314.52 59.1335L307.092 54.8445L299.661 59.1335L292.232 63.4224V80.5814L299.661 84.8704L307.092 89.1597L314.295 85V93.8441ZM314.295 76.1594L307.092 80.3187L299.889 76.1594V67.8441L307.092 63.6848L314.295 67.8441V76.1594Z" fill="#DC244C"/>
<path d="M307.095 89.1629V80.3209L299.93 76.197V85.0244L307.095 89.1629Z" fill="url(#paint1_linear_1355_6325)"/>
</g>
<defs>
<linearGradient id="paint0_linear_1355_6325" x1="229.5" y1="0" x2="229.5" y2="144" gradientUnits="userSpaceOnUse">
<stop stop-color="#161E33"/>
<stop offset="1" stop-color="#0E1424"/>
</linearGradient>
<linearGradient id="paint1_linear_1355_6325" x1="305.774" y1="82.0112" x2="298.634" y2="82.0112" gradientUnits="userSpaceOnUse">
<stop stop-color="#FF3364"/>
<stop offset="1" stop-color="#C91540" stop-opacity="0"/>
</linearGradient>
<clipPath id="clip0_1355_6325">
<rect width="44.85" height="52" fill="white" transform="translate(284.574 46)"/>
</clipPath>
</defs>
</svg>
