<svg width="287" height="145" viewBox="0 0 287 145" fill="none" xmlns="http://www.w3.org/2000/svg">
<rect y="0.175781" width="287" height="144" rx="8" fill="url(#paint0_linear_1844_19640)"/>
<path d="M92.0589 66.7284C92.739 64.7081 92.9742 62.5679 92.7488 60.4508C92.5234 58.3336 91.8426 56.2883 90.7518 54.4514C89.1348 51.675 86.6657 49.4768 83.7005 48.1738C80.7353 46.8709 77.4272 46.5304 74.2532 47.2015C72.4499 45.2229 70.1506 43.7471 67.5862 42.9225C65.0218 42.0979 62.2826 41.9533 59.6436 42.5034C57.0046 43.0535 54.5589 44.2789 52.552 46.0564C50.545 47.834 49.0476 50.1011 48.21 52.6302C46.0955 53.0579 44.0978 53.9259 42.3506 55.1762C40.6033 56.4264 39.1467 58.0302 38.0781 59.8802C36.4435 62.652 35.7449 65.8647 36.0833 69.054C36.4216 72.2432 37.7795 75.2437 39.9605 77.6216C39.2778 79.6409 39.0403 81.7808 39.2636 83.898C39.487 86.0152 40.1661 88.0609 41.2556 89.8983C42.8747 92.6758 45.3459 94.8744 48.3132 96.1774C51.2805 97.4804 54.5906 97.8205 57.7664 97.1486C59.199 98.7399 60.9593 100.012 62.9298 100.878C64.9003 101.745 67.0356 102.187 69.1932 102.176C72.4465 102.178 75.6165 101.162 78.2458 99.2718C80.8751 97.3819 82.8276 94.7168 83.8214 91.6611C85.9357 91.2326 87.9331 90.3643 89.6803 89.1141C91.4274 87.8638 92.8842 86.2604 93.9533 84.4108C95.5686 81.6431 96.2553 78.4424 95.915 75.2665C95.5747 72.0906 94.225 69.1019 92.0589 66.7284ZM69.1932 98.2486C66.5288 98.2527 63.9479 97.3315 61.9031 95.6466L62.2627 95.4456L74.373 88.5501C74.6745 88.3757 74.9247 88.127 75.0992 87.8284C75.2737 87.5298 75.3664 87.1915 75.3683 86.8468V70.0046L80.4879 72.9261C80.5132 72.9388 80.5351 72.9571 80.5518 72.9797C80.5686 73.0023 80.5797 73.0285 80.5842 73.0561V87.0126C80.5778 89.9906 79.3756 92.8449 77.2407 94.9507C75.1059 97.0565 72.2122 98.2423 69.1932 98.2486ZM44.7087 87.9351C43.3725 85.6591 42.8927 82.9913 43.3538 80.4009L43.7137 80.6139L55.8359 87.5093C56.1359 87.6829 56.4773 87.7745 56.8251 87.7745C57.1729 87.7745 57.5144 87.6829 57.8143 87.5093L72.6225 79.0881V84.9191C72.6211 84.9493 72.6128 84.9788 72.5983 85.0055C72.5837 85.0321 72.5632 85.0551 72.5384 85.0728L60.2722 92.0511C57.6544 93.5386 54.5452 93.9406 51.6273 93.1689C48.7093 92.3972 46.221 90.5148 44.7087 87.9351ZM41.5194 61.9147C42.8649 59.6241 44.9886 57.877 47.5146 56.9827V71.1756C47.51 71.5185 47.5989 71.8563 47.7718 72.1538C47.9447 72.4513 48.1954 72.6976 48.4977 72.8669L63.2339 81.2526L58.1141 84.1738C58.0864 84.1884 58.0555 84.1959 58.0241 84.1959C57.9928 84.1959 57.9619 84.1884 57.9342 84.1738L45.6921 77.2076C43.0792 75.7137 41.1731 73.2592 40.391 70.3818C39.6089 67.5044 40.0146 64.4386 41.5194 61.8557V61.9147ZM83.5817 71.5541L68.7975 63.0857L73.9054 60.1757C73.9331 60.1612 73.964 60.1536 73.9954 60.1536C74.0268 60.1536 74.0577 60.1612 74.0854 60.1757L86.3275 67.1539C88.1993 68.2193 89.7252 69.7879 90.7272 71.6767C91.7291 73.5654 92.1656 75.6963 91.9859 77.8206C91.8061 79.9449 91.0174 81.975 89.7119 83.6737C88.4064 85.3725 86.6379 86.6698 84.6129 87.4143V73.2214C84.6023 72.8791 84.5016 72.5454 84.3208 72.253C84.14 71.9607 83.8854 71.72 83.5817 71.5541ZM88.6777 63.9964L88.3178 63.7834L76.2196 56.8289C75.9179 56.6542 75.5743 56.5621 75.2244 56.5621C74.8744 56.5621 74.5309 56.6542 74.2291 56.8289L59.4333 65.2499V59.4192C59.4301 59.3895 59.4352 59.3596 59.4478 59.3325C59.4605 59.3055 59.4804 59.2823 59.5053 59.2654L71.7474 52.2989C73.6236 51.2327 75.7689 50.7155 77.9322 50.8078C80.0955 50.9001 82.1875 51.5981 83.9634 52.8201C85.7394 54.0422 87.1259 55.7377 87.9607 57.7085C88.7956 59.6793 89.0444 61.8438 88.6779 63.9489L88.6777 63.9964ZM56.6391 74.3331L51.5195 71.4236C51.4939 71.4084 51.472 71.3878 51.4554 71.3633C51.4387 71.3388 51.4277 71.311 51.4232 71.2819V57.3612C51.426 55.2256 52.0451 53.135 53.2081 51.3337C54.3711 49.5324 56.0299 48.0949 57.9905 47.1893C59.9512 46.2837 62.1328 45.9474 64.2801 46.2197C66.4274 46.4919 68.4517 47.3616 70.1165 48.727L69.7566 48.9282L57.6465 55.8232C57.3451 55.9976 57.0949 56.2463 56.9204 56.5449C56.7459 56.8435 56.6531 57.1818 56.6512 57.5264L56.6391 74.3331ZM59.4209 68.4196L66.0155 64.6702L72.6225 68.4196V75.9181L66.0396 79.6674L59.433 75.9181L59.4209 68.4196Z" fill="#14A27F"/>
<path d="M133.497 71.6558H141.457V63.6958H145.537V71.6558H153.497V75.7358H145.537V83.7358H141.457V75.7358H133.497V71.6558Z" fill="#F0F3FA"/>
<g clip-path="url(#clip0_1844_19640)">
<path fill-rule="evenodd" clip-rule="evenodd" d="M233.989 93.9743L232.952 65.3865L231.074 57.8496L243.608 59.1765V93.7579L235.952 98.1769L233.989 93.9743Z" fill="#24386C"/>
<path fill-rule="evenodd" clip-rule="evenodd" d="M243.607 59.1758L235.951 63.5978L220.15 60.1318L201.656 67.662L198.574 59.1758L209.831 52.6758L221.09 46.1758L232.347 52.6758L243.607 59.1758Z" fill="#7589BE"/>
<path fill-rule="evenodd" clip-rule="evenodd" d="M198.575 59.1761L206.232 63.5982L210.67 76.7981L225.656 88.7888L221.092 98.1761L209.832 91.6758L198.575 85.1758V59.1761Z" fill="#B2BFE8"/>
<path fill-rule="evenodd" clip-rule="evenodd" d="M226.167 81.8516L221.091 89.3349V98.1756L228.294 94.0197L232.005 88.4778" fill="#24386C"/>
<path fill-rule="evenodd" clip-rule="evenodd" d="M221.095 80.4975L213.889 68.0213L215.441 63.8862L221.341 61.0254L228.294 68.0215L221.095 80.4975Z" fill="#7589BE"/>
<path fill-rule="evenodd" clip-rule="evenodd" d="M213.889 68.0215L221.092 72.1774V80.496L214.43 80.7826L210.4 75.6372L213.889 68.0215Z" fill="#B2BFE8"/>
<path fill-rule="evenodd" clip-rule="evenodd" d="M221.091 72.177L228.294 68.0215L233.196 76.1838L227.264 81.0853L221.091 80.496V72.177Z" fill="#24386C"/>
<path fill-rule="evenodd" clip-rule="evenodd" d="M228.295 94.0211L235.952 98.1774V63.5994L228.52 59.3105L221.092 55.0215L213.661 59.3105L206.232 63.5994V80.7584L213.661 85.0474L221.092 89.3367L228.295 85.1771V94.0211ZM228.295 76.3364L221.092 80.4957L213.889 76.3364V68.0211L221.092 63.8618L228.295 68.0211V76.3364Z" fill="#DC244C"/>
<path d="M221.095 89.3389V80.4969L213.93 76.373V85.2004L221.095 89.3389Z" fill="url(#paint1_linear_1844_19640)"/>
</g>
<defs>
<linearGradient id="paint0_linear_1844_19640" x1="143.5" y1="0.175781" x2="143.5" y2="144.176" gradientUnits="userSpaceOnUse">
<stop stop-color="#161E33"/>
<stop offset="1" stop-color="#0E1424"/>
</linearGradient>
<linearGradient id="paint1_linear_1844_19640" x1="219.774" y1="82.1872" x2="212.634" y2="82.1872" gradientUnits="userSpaceOnUse">
<stop stop-color="#FF3364"/>
<stop offset="1" stop-color="#C91540" stop-opacity="0"/>
</linearGradient>
<clipPath id="clip0_1844_19640">
<rect width="44.85" height="52" fill="white" transform="translate(198.575 46.1758)"/>
</clipPath>
</defs>
</svg>
