<svg width="287" height="145" viewBox="0 0 287 145" fill="none" xmlns="http://www.w3.org/2000/svg">
<rect y="0.175781" width="287" height="144" rx="8" fill="url(#paint0_linear_1844_19629)"/>
<path d="M56.2139 56.1484C55.4572 56.1534 54.6931 56.1301 53.9214 56.0784C53.7164 56.0634 53.4414 56.1309 53.1839 55.9984C53.1624 55.9885 53.1395 55.9826 53.1164 55.9809L49.1439 55.8584C49.0856 55.8568 49.0372 55.8351 48.9989 55.7934C48.9556 55.7468 48.8914 55.7201 48.8064 55.7134C48.2447 55.6634 47.8306 55.6359 47.5639 55.6309C47.5189 55.6309 47.4931 55.6084 47.4864 55.5634C47.4797 55.5251 47.4639 55.4968 47.4389 55.4784C47.4056 55.4551 47.3722 55.4551 47.3389 55.4784C47.2922 55.5101 47.2431 55.5234 47.1914 55.5184" stroke="#F9D6DB" stroke-width="0.5"/>
<path d="M56.3912 57.8323C54.9645 57.8806 53.5628 57.8748 52.1862 57.8148C50.8162 57.7573 49.4287 57.6898 48.0612 57.5673C47.8187 57.5473 47.5287 57.6323 47.2412 57.4773C47.1628 57.434 47.0837 57.434 47.0037 57.4773C46.9437 57.509 46.877 57.5206 46.8037 57.5123C46.707 57.504 46.6595 57.4506 46.6612 57.3523L46.6687 57.0498" stroke="#FBC6E0" stroke-width="0.5"/>
<path d="M56.6091 59.9392C56.5174 59.8942 56.4349 59.8817 56.3616 59.9017C56.3116 59.9151 56.2849 59.8959 56.2816 59.8442C56.2749 59.7526 56.2324 59.7059 56.1541 59.7042C55.5391 59.7009 55.1941 59.6992 55.1191 59.6992C54.7158 59.7008 54.2778 59.7017 53.8091 59.7017H46.6841C46.6589 59.7017 46.6347 59.7117 46.6169 59.7295C46.5991 59.7474 46.5891 59.7715 46.5891 59.7967V59.9192C46.5888 59.933 46.5854 59.9466 46.5791 59.9589C46.5728 59.9712 46.5637 59.9819 46.5526 59.9901C46.5414 59.9984 46.5286 60.0039 46.515 60.0064C46.5013 60.0088 46.4874 60.0081 46.4741 60.0042C46.4291 59.9909 46.3882 59.9442 46.3516 59.8642" stroke="#FEB2E6" stroke-width="0.5"/>
<path d="M65.4 64.3311L64.7075 67.6736C64.6945 67.7324 64.666 67.7868 64.625 67.8311C64.425 68.0444 64.3275 68.2961 64.3325 68.5861C64.3342 68.6827 64.3017 68.7669 64.235 68.8386C63.88 69.2211 63.9425 69.6361 63.6375 70.0261C63.5909 70.0861 63.555 70.1527 63.53 70.2261C63.3367 70.8177 63.0542 71.3602 62.6825 71.8536C62.6292 71.9252 62.5959 72.0052 62.5825 72.0936C62.4625 72.9152 62.3267 73.6061 62.175 74.1661C62.16 74.2194 62.1234 74.2602 62.065 74.2886C62.0034 74.3169 61.9559 74.3619 61.9225 74.4236L61.365 75.4511C61.3267 75.5227 61.2675 75.5669 61.1875 75.5836C61.0609 75.6086 60.9867 75.6802 60.965 75.7986C60.95 75.8869 60.9059 75.9569 60.8325 76.0086C60.6342 76.1486 60.5059 76.3419 60.4475 76.5886C60.4392 76.6202 60.4184 76.6361 60.385 76.6361C60.3634 76.6361 60.3409 76.6361 60.3175 76.6361C60.2642 76.6377 60.2175 76.6569 60.1775 76.6936C59.5875 77.2286 58.7775 77.7486 58.355 78.4286C57.9475 79.0861 57.5125 79.5561 57.0525 80.1136C57.0192 80.1552 56.9767 80.1827 56.925 80.1961C56.89 80.2061 56.8609 80.2286 56.8375 80.2636C56.5692 80.6569 56.2575 81.0144 55.9025 81.3361C55.605 81.6061 55.4375 81.9811 55.0975 82.2536C55.0759 82.2702 55.02 82.3302 54.93 82.4336C54.82 82.5602 54.6484 82.5752 54.415 82.4786" stroke="#CAA7ED" stroke-width="0.5"/>
<path d="M69.7975 64.5557C69.9008 65.249 69.7867 65.8807 69.455 66.4507C69.33 66.6657 69.3625 66.8232 69.225 67.0157C69.1933 67.059 69.1567 67.1307 69.115 67.2307C69.0817 67.3157 69.0708 67.404 69.0825 67.4957C69.0925 67.5857 69.0683 67.6648 69.01 67.7332C68.6067 68.1932 68.3917 68.7273 68.365 69.3357C68.3633 69.3823 68.34 69.4115 68.295 69.4232L68.22 69.4432C68.1667 69.4565 68.1275 69.4873 68.1025 69.5357C67.86 69.9907 67.6775 70.4057 67.325 70.8207C67.0733 71.1173 66.8542 71.4365 66.6675 71.7782C66.5042 72.0782 66.2983 72.3882 66.05 72.7082C65.825 72.9982 65.6375 73.3132 65.4875 73.6532C65.4658 73.7015 65.4333 73.7407 65.39 73.7707L65.2925 73.8332C65.2442 73.8648 65.2125 73.909 65.1975 73.9657C65.12 74.2857 64.8825 74.4432 64.7375 74.6907C64.48 75.1207 64.2075 75.4232 63.8175 75.9407C63.5892 76.2423 63.2717 76.5273 62.865 76.7957C62.2817 77.1823 61.84 77.7723 61.54 78.5657C61.25 79.3307 60.64 79.9157 60.2725 80.6232C60.0625 81.0307 59.68 81.2357 59.425 81.6882C59.275 81.9557 58.705 82.4382 58.67 82.6082C58.6567 82.6698 58.6275 82.7232 58.5825 82.7682C57.5608 83.7665 56.9175 84.4223 56.6525 84.7357C55.9242 85.5973 55.1858 86.2665 54.4375 86.7432" stroke="#7CB9F2" stroke-width="0.5"/>
<path d="M80.9362 67.6748C80.8579 67.9548 80.9204 68.2356 81.1237 68.5173C81.3437 68.8223 81.4845 69.0531 81.5462 69.2098C81.7745 69.7848 82.0354 70.3456 82.3287 70.8923C82.7387 71.6573 83.2829 73.2706 83.9612 75.7323C84.1112 76.279 84.1779 76.8681 84.1612 77.4998C84.1487 77.9748 84.3312 78.4698 84.2812 78.9198C84.1787 79.8448 84.2062 80.7648 83.9712 81.6498C83.7895 82.3298 83.6029 83.009 83.4112 83.6873C83.3262 83.9923 83.1037 84.2548 83.0312 84.6123C83.0162 84.6856 82.982 84.7481 82.9287 84.7998C82.8587 84.8665 82.8179 84.9273 82.8062 84.9823C82.6945 85.544 82.4479 86.0331 82.0662 86.4498C82.0095 86.5115 81.9704 86.5831 81.9487 86.6648C81.8604 87.0248 81.6695 87.304 81.3762 87.5023C81.2995 87.554 81.2412 87.6206 81.2012 87.7023L80.8662 88.3873C80.8295 88.4606 80.7787 88.5223 80.7137 88.5723C80.5437 88.7048 80.4987 88.9448 80.4112 89.0673C79.7012 90.0556 78.9362 91.0356 78.1162 92.0073" stroke="#6CC4F4" stroke-width="0.5"/>
<path d="M77.1783 89.6945C77.4767 89.1995 77.785 88.7395 78.1033 88.3145C78.3608 87.9695 78.4483 87.6145 78.7433 87.302C79.1283 86.892 79.1858 86.497 79.4433 86.1045C79.7483 85.642 79.9633 85.157 80.2283 84.6695C80.2733 84.5861 80.2892 84.4978 80.2758 84.4045C80.2642 84.3061 80.2942 84.2295 80.3658 84.1745C80.4275 84.1278 80.4708 84.0678 80.4958 83.9945L80.8808 82.7945C80.9042 82.7228 80.9108 82.6495 80.9008 82.5745C80.8908 82.4961 80.9075 82.4295 80.9508 82.3745C80.9975 82.3095 81.0217 82.237 81.0233 82.157C81.0283 81.6695 81.2783 81.3195 81.2783 80.8645C81.28 80.0078 81.28 79.1511 81.2783 78.2945C81.2767 77.7911 80.9933 76.6786 80.4283 74.957C80.3083 74.587 80.1083 74.2195 79.9358 73.867C79.7583 73.5045 79.7183 72.9645 79.2983 72.5895C79.2333 72.5311 79.2067 72.4595 79.2183 72.3745C79.2283 72.2878 79.2 72.2211 79.1333 72.1745C79.0767 72.1361 79.035 72.0845 79.0083 72.0195C78.8783 71.7061 78.7333 71.402 78.5733 71.107C78.41 70.8053 78.2683 70.5261 78.1483 70.2695C77.7 69.3178 77.1183 68.452 76.4033 67.672C76.3533 67.617 76.355 67.5628 76.4083 67.5095L76.4708 67.447C76.4858 67.4319 76.4975 67.4139 76.5054 67.3941C76.5132 67.3743 76.517 67.3531 76.5166 67.3317C76.5161 67.3103 76.5114 67.2891 76.5027 67.2694C76.4939 67.2497 76.4814 67.2319 76.4658 67.217C76.2308 66.9936 75.9525 66.8595 75.6308 66.8145C75.5892 66.8078 75.5575 66.7861 75.5358 66.7495C75.5142 66.7095 75.4858 66.6795 75.4508 66.6595C75.4125 66.6361 75.36 66.637 75.2933 66.662C74.745 66.8636 74.3742 67.0945 74.1808 67.3545C73.8608 67.7878 73.5117 68.1986 73.1333 68.587C72.1808 69.567 71.2433 70.557 70.4258 71.657C70.2208 71.9303 69.9742 72.162 69.6858 72.352C69.6192 72.397 69.5683 72.4553 69.5333 72.527C69.3183 72.982 68.8283 73.0495 68.5558 73.2945C68.2542 73.5661 67.9733 73.8553 67.7133 74.162C67.7 74.1786 67.5717 74.2953 67.3283 74.512C67.1967 74.6303 67.1108 74.7811 67.0708 74.9645C67.0525 75.0495 67.0175 75.127 66.9658 75.197L66.5558 75.737C66.5408 75.757 66.5208 75.7678 66.4958 75.7695C66.4742 75.7695 66.4525 75.7703 66.4308 75.772C66.4029 75.7735 66.3757 75.7815 66.3514 75.7954C66.3271 75.8093 66.3063 75.8287 66.2908 75.852C66.0608 76.1903 65.7742 76.4636 65.4308 76.672C65.3442 76.7236 65.2908 76.7986 65.2708 76.897C65.2442 77.0203 65.1925 77.1245 65.1158 77.2095C65.0608 77.2711 65.0425 77.342 65.0608 77.422C65.1058 77.6095 65.0908 77.687 64.9808 77.8595C64.8075 78.1261 64.6775 78.4103 64.5908 78.712C64.5675 78.7936 64.52 78.8586 64.4483 78.907C64.2133 79.062 64.2633 79.352 64.1633 79.537C64.0058 79.822 63.7733 80.0295 63.6583 80.327C63.4517 80.8636 63.2317 81.257 62.9983 81.507C62.69 81.837 62.4733 82.1336 62.3483 82.397C62.1933 82.7195 61.8708 83.2495 61.6308 83.492C61.2608 83.8586 60.9408 84.2686 60.6708 84.722C60.6242 84.8003 60.5608 84.862 60.4808 84.907C60.2575 85.0386 60.1433 85.2295 60.1383 85.4795C60.1367 85.5695 60.105 85.647 60.0433 85.712C58.6517 87.2103 57.1717 88.6145 55.6033 89.9245C55.5448 89.9732 55.5028 90.0396 55.4833 90.1145C55.4467 90.2561 55.3542 90.3278 55.2058 90.3295C55.1358 90.3311 55.075 90.3545 55.0233 90.3995C54.9717 90.4461 54.9317 90.4978 54.9033 90.5545" stroke="#55D5F7" stroke-width="0.5"/>
<path d="M85.8926 67.29C85.9659 67.5434 86.0284 67.7784 86.0801 67.995C86.1367 68.2284 86.2367 68.4475 86.3801 68.6525C86.7751 69.2125 87.0726 69.7825 87.2726 70.3625C87.6176 71.3609 87.9701 72.5525 88.3301 73.9375C88.3701 74.0875 88.3801 74.285 88.3601 74.53C88.3351 74.8417 88.4134 75.0375 88.5951 75.1175" stroke="#8CAEF0" stroke-width="0.5"/>
<path d="M86.5825 82.8242C86.4791 83.3459 86.3583 83.8476 86.22 84.3292C86.0225 85.0167 85.6075 85.6617 85.3125 86.3542C85.2125 86.5892 85.0075 86.6742 84.8925 86.9392C84.6508 87.4942 84.2791 88.0726 83.7775 88.6742C83.2941 89.2542 82.7925 90.0567 82.2725 91.0817" stroke="#8CAEF0" stroke-width="0.5"/>
<path d="M81.1351 91.5293C80.4134 92.561 79.7043 93.5668 79.0076 94.5468C78.8851 94.7193 78.8726 94.9468 78.7826 95.0818C78.3059 95.8001 77.8343 96.5226 77.3676 97.2493C77.2476 97.4368 76.9751 97.5893 76.9651 97.9168C76.9635 97.9985 76.946 98.0768 76.9126 98.1518L76.1201 100.007" stroke="#8CAEF0" stroke-width="0.5"/>
<path d="M78.1484 93.7051C78.4951 93.3018 78.9476 92.6668 79.5059 91.8001C79.8526 91.2618 80.3559 90.6926 81.0159 90.0926C81.0743 90.0393 81.0993 89.9743 81.0909 89.8976C81.0759 89.7693 81.1209 89.6709 81.2259 89.6026C81.2743 89.5693 81.3084 89.5251 81.3284 89.4701C81.3959 89.2801 81.5809 89.1701 81.6734 89.0251C81.8709 88.7151 81.9909 88.3501 82.1784 88.0676C83.0501 86.7443 83.7859 85.3493 84.3859 83.8826C85.1084 82.1201 85.5084 80.1651 85.3459 78.2576C85.3059 77.7976 85.4234 77.3651 85.3484 76.9201C85.3134 76.7101 85.2851 76.501 85.2634 76.2926C85.1468 75.181 84.8526 74.1176 84.3809 73.1026C84.3443 73.0243 84.3309 72.9418 84.3409 72.8551C84.3509 72.7735 84.3401 72.6934 84.3084 72.6151L82.1959 67.4951" stroke="#7CB9F2" stroke-width="0.5"/>
<path d="M86.9684 83.7422C86.9659 84.5722 86.9809 85.2972 86.8634 86.1622C86.7934 86.6697 86.9584 87.3472 86.6659 87.8097C86.4693 88.118 86.3468 88.3355 86.2984 88.4622C85.9859 89.2722 85.2084 89.9272 84.6909 90.6122C84.2776 91.1572 83.8676 91.7122 83.4609 92.2772" stroke="#A69CED" stroke-width="0.5"/>
<path d="M56.2187 56.1474C55.462 56.1524 54.6978 56.1291 53.9262 56.0774C53.7212 56.0624 53.4462 56.1299 53.1887 55.9974C53.1672 55.9875 53.1443 55.9815 53.1212 55.9799L49.1487 55.8574C49.0903 55.8557 49.042 55.8341 49.0037 55.7924C48.9603 55.7457 48.8962 55.7191 48.8112 55.7124C48.2495 55.6624 47.8353 55.6349 47.5687 55.6299C47.5237 55.6299 47.4978 55.6074 47.4912 55.5624C47.4845 55.5241 47.4687 55.4957 47.4437 55.4774C47.4103 55.4541 47.377 55.4541 47.3437 55.4774C47.297 55.5091 47.2478 55.5224 47.1962 55.5174C47.5562 55.0491 47.6645 54.4932 47.5212 53.8499C47.5029 53.7666 47.4528 53.7182 47.3712 53.7049C46.0737 53.4799 44.0012 52.7649 43.3337 51.5724C42.8637 50.7374 43.1012 49.2549 44.1312 48.8724C44.1495 48.8657 44.5278 48.8191 45.2662 48.7324C45.9537 48.6499 47.5587 48.2249 47.5462 47.2799C47.5362 46.1699 47.4737 44.9374 47.0762 43.9224C47.0262 43.7957 47.0645 43.7566 47.1912 43.8049C47.9578 44.0999 48.6228 44.5441 49.1862 45.1374C49.3495 45.3091 49.4312 45.2766 49.4312 45.0399L49.4287 43.8649C49.4287 43.7649 49.4753 43.7307 49.5687 43.7624C54.5312 45.4449 55.7862 51.6924 56.2187 56.1474Z" fill="#F0F3FA"/>
<path d="M56.2166 56.1475L56.3941 57.8325C54.9674 57.8808 53.5658 57.875 52.1891 57.815C50.8191 57.7575 49.4316 57.69 48.0641 57.5675C47.8216 57.5475 47.5316 57.6325 47.2441 57.4775C47.1658 57.4341 47.0866 57.4341 47.0066 57.4775C46.9466 57.5091 46.8799 57.5208 46.8066 57.5125C46.7099 57.5041 46.6624 57.4508 46.6641 57.3525L46.6716 57.05L47.1941 55.5175C47.2458 55.5225 47.2949 55.5091 47.3416 55.4775C47.3749 55.4541 47.4083 55.4541 47.4416 55.4775C47.4666 55.4958 47.4824 55.5241 47.4891 55.5625C47.4958 55.6075 47.5216 55.63 47.5666 55.63C47.8333 55.635 48.2474 55.6625 48.8091 55.7125C48.8941 55.7191 48.9583 55.7458 49.0016 55.7925C49.0399 55.8341 49.0883 55.8558 49.1466 55.8575L53.1191 55.98C53.1422 55.9816 53.1651 55.9875 53.1866 55.9975C53.4441 56.13 53.7191 56.0625 53.9241 56.0775C54.6958 56.1291 55.4599 56.1525 56.2166 56.1475Z" fill="#FACCDE"/>
<path d="M46.672 57.0518L46.6645 57.3543C46.6628 57.4526 46.7103 57.5059 46.807 57.5143C46.8803 57.5226 46.947 57.5109 47.007 57.4793C47.087 57.4359 47.1662 57.4359 47.2445 57.4793C47.532 57.6343 47.822 57.5493 48.0645 57.5693C49.432 57.6918 50.8195 57.7593 52.1895 57.8168C53.5662 57.8768 54.9678 57.8826 56.3945 57.8343L56.612 59.9393C56.5203 59.8943 56.4378 59.8818 56.3645 59.9018C56.3145 59.9151 56.2878 59.8959 56.2845 59.8443C56.2778 59.7526 56.2353 59.7059 56.157 59.7043C55.542 59.7009 55.197 59.6993 55.122 59.6993C54.7187 59.7009 54.2807 59.7017 53.812 59.7018H46.687C46.6618 59.7018 46.6376 59.7118 46.6198 59.7296C46.602 59.7474 46.592 59.7716 46.592 59.7968V59.9193C46.5918 59.9331 46.5884 59.9467 46.582 59.959C46.5757 59.9713 46.5666 59.982 46.5555 59.9902C46.5444 59.9984 46.5315 60.0039 46.5179 60.0064C46.5043 60.0088 46.4903 60.0081 46.477 60.0043C46.432 59.9909 46.3912 59.9443 46.3545 59.8643L46.672 57.0518Z" fill="#FCBFE2"/>
<path d="M56.6135 59.9382L56.9935 64.1332C57.0051 64.2632 57.0751 64.3282 57.2035 64.3282L65.4035 64.3307L64.711 67.6732C64.6979 67.7321 64.6695 67.7865 64.6285 67.8307C64.4285 68.0441 64.331 68.2957 64.336 68.5857C64.3376 68.6824 64.3051 68.7666 64.2385 68.8382C63.8835 69.2207 63.946 69.6357 63.641 70.0257C63.5943 70.0857 63.5585 70.1524 63.5335 70.2257C63.3401 70.8174 63.0576 71.3599 62.686 71.8532C62.6326 71.9249 62.5993 72.0049 62.586 72.0932C62.466 72.9149 62.3301 73.6057 62.1785 74.1657C62.1635 74.2191 62.1268 74.2599 62.0685 74.2882C62.0068 74.3166 61.9593 74.3616 61.926 74.4232L61.3685 75.4507C61.3301 75.5224 61.271 75.5666 61.191 75.5832C61.0643 75.6082 60.9901 75.6799 60.9685 75.7982C60.9535 75.8866 60.9093 75.9566 60.836 76.0082C60.6376 76.1482 60.5093 76.3416 60.451 76.5882C60.4426 76.6199 60.4218 76.6357 60.3885 76.6357C60.3668 76.6357 60.3443 76.6357 60.321 76.6357C60.2676 76.6374 60.221 76.6566 60.181 76.6932C59.591 77.2282 58.781 77.7482 58.3585 78.4282C57.951 79.0857 57.516 79.5557 57.056 80.1132C57.0226 80.1549 56.9801 80.1824 56.9285 80.1957C56.8935 80.2057 56.8643 80.2282 56.841 80.2632C56.5726 80.6566 56.261 81.0141 55.906 81.3357C55.6085 81.6057 55.441 81.9807 55.101 82.2532C55.0793 82.2699 55.0235 82.3299 54.9335 82.4332C54.8235 82.5599 54.6518 82.5749 54.4185 82.4782C51.8485 81.1307 49.196 78.8032 48.3985 75.8832C48.0485 74.6032 48.201 72.8882 48.181 71.4157C48.1793 71.3324 48.1551 71.2549 48.1085 71.1832C46.7435 69.1082 46.921 66.7082 46.931 64.4307C46.9326 64.0474 46.8635 63.6366 46.7235 63.1982C46.3785 62.1249 46.256 61.0132 46.356 59.8632C46.3926 59.9432 46.4335 59.9899 46.4785 60.0032C46.4918 60.0071 46.5058 60.0078 46.5194 60.0054C46.533 60.0029 46.5459 59.9974 46.557 59.9892C46.5681 59.9809 46.5772 59.9703 46.5835 59.958C46.5898 59.9457 46.5933 59.9321 46.5935 59.9182V59.7957C46.5935 59.7705 46.6035 59.7464 46.6213 59.7286C46.6391 59.7108 46.6633 59.7007 46.6885 59.7007H53.8135C54.2822 59.7007 54.7202 59.6999 55.1235 59.6982C55.1985 59.6982 55.5435 59.6999 56.1585 59.7032C56.2368 59.7049 56.2793 59.7516 56.286 59.8432C56.2893 59.8949 56.316 59.9141 56.366 59.9007C56.4393 59.8807 56.5218 59.8932 56.6135 59.9382Z" fill="#FFA5EA"/>
<path d="M65.403 64.3321C66.8696 64.2637 68.3363 64.3387 69.803 64.5571C69.9063 65.2504 69.7921 65.8821 69.4605 66.4521C69.3355 66.6671 69.368 66.8245 69.2305 67.017C69.1988 67.0604 69.1621 67.132 69.1205 67.232C69.0871 67.317 69.0763 67.4054 69.088 67.4971C69.098 67.5871 69.0738 67.6662 69.0155 67.7346C68.6121 68.1946 68.3971 68.7287 68.3705 69.3371C68.3688 69.3837 68.3455 69.4129 68.3005 69.4246L68.2255 69.4445C68.1721 69.4579 68.133 69.4887 68.108 69.537C67.8655 69.992 67.683 70.407 67.3305 70.822C67.0788 71.1187 66.8596 71.4379 66.673 71.7796C66.5096 72.0796 66.3038 72.3895 66.0555 72.7095C65.8305 72.9995 65.643 73.3145 65.493 73.6545C65.4713 73.7029 65.4388 73.742 65.3955 73.772L65.298 73.8345C65.2496 73.8662 65.218 73.9104 65.203 73.967C65.1255 74.287 64.888 74.4446 64.743 74.692C64.4855 75.1221 64.213 75.4246 63.823 75.942C63.5946 76.2437 63.2771 76.5287 62.8705 76.797C62.2871 77.1837 61.8455 77.7737 61.5455 78.567C61.2555 79.3321 60.6455 79.917 60.278 80.6245C60.068 81.032 59.6855 81.2371 59.4305 81.6896C59.2805 81.9571 58.7105 82.4395 58.6755 82.6095C58.6621 82.6712 58.633 82.7245 58.588 82.7695C57.5663 83.7679 56.923 84.4237 56.658 84.737C55.9296 85.5987 55.1913 86.2679 54.443 86.7445L54.418 82.4795C54.6513 82.5762 54.823 82.5612 54.933 82.4345C55.023 82.3312 55.0788 82.2712 55.1005 82.2545C55.4405 81.982 55.608 81.607 55.9055 81.337C56.2605 81.0154 56.5721 80.6579 56.8405 80.2645C56.8638 80.2295 56.893 80.2071 56.928 80.1971C56.9796 80.1837 57.0221 80.1562 57.0555 80.1146C57.5155 79.5571 57.9505 79.087 58.358 78.4295C58.7805 77.7495 59.5905 77.2295 60.1805 76.6945C60.2205 76.6579 60.2671 76.6387 60.3205 76.637C60.3438 76.637 60.3663 76.637 60.388 76.637C60.4213 76.637 60.4421 76.6212 60.4505 76.5895C60.5088 76.3429 60.6371 76.1496 60.8355 76.0096C60.9088 75.9579 60.953 75.8879 60.968 75.7995C60.9896 75.6812 61.0638 75.6095 61.1905 75.5845C61.2705 75.5679 61.3296 75.5237 61.368 75.452L61.9255 74.4245C61.9588 74.3629 62.0063 74.3179 62.068 74.2895C62.1263 74.2612 62.163 74.2204 62.178 74.167C62.3296 73.607 62.4655 72.9162 62.5855 72.0946C62.5988 72.0062 62.6321 71.9262 62.6855 71.8546C63.0571 71.3612 63.3396 70.8187 63.533 70.2271C63.558 70.1537 63.5938 70.087 63.6405 70.027C63.9455 69.637 63.883 69.222 64.238 68.8395C64.3046 68.7679 64.3371 68.6837 64.3355 68.5871C64.3305 68.2971 64.428 68.0454 64.628 67.8321C64.669 67.7878 64.6974 67.7334 64.7105 67.6746L65.403 64.3321Z" fill="#94A8EF"/>
<path d="M69.8004 64.5557C71.8788 64.7123 73.8829 65.1157 75.8129 65.7657C77.6229 66.3782 78.9429 67.5457 80.9404 67.6757C80.8621 67.9557 80.9246 68.2365 81.1279 68.5182C81.3479 68.8232 81.4888 69.054 81.5504 69.2107C81.7788 69.7857 82.0396 70.3465 82.3329 70.8932C82.7429 71.6582 83.2871 73.2715 83.9654 75.7332C84.1154 76.2798 84.1821 76.869 84.1654 77.5007C84.1529 77.9757 84.3354 78.4707 84.2854 78.9207C84.1829 79.8457 84.2104 80.7657 83.9754 81.6507C83.7938 82.3307 83.6071 83.0098 83.4154 83.6882C83.3304 83.9932 83.1079 84.2557 83.0354 84.6132C83.0204 84.6865 82.9863 84.749 82.9329 84.8007C82.8629 84.8673 82.8221 84.9282 82.8104 84.9832C82.6988 85.5448 82.4521 86.034 82.0704 86.4507C82.0138 86.5123 81.9746 86.584 81.9529 86.6657C81.8646 87.0257 81.6738 87.3048 81.3804 87.5032C81.3038 87.5548 81.2454 87.6215 81.2054 87.7032L80.8704 88.3882C80.8338 88.4615 80.7829 88.5232 80.7179 88.5732C80.5479 88.7057 80.5029 88.9457 80.4154 89.0682C79.7054 90.0565 78.9404 91.0365 78.1204 92.0082C77.9054 91.0915 77.5921 90.3207 77.1804 89.6957C77.4788 89.2007 77.7871 88.7407 78.1054 88.3157C78.3629 87.9707 78.4504 87.6157 78.7454 87.3032C79.1304 86.8932 79.1879 86.4982 79.4454 86.1057C79.7504 85.6432 79.9654 85.1582 80.2304 84.6707C80.2754 84.5873 80.2913 84.499 80.2779 84.4057C80.2663 84.3073 80.2963 84.2307 80.3679 84.1757C80.4296 84.129 80.4729 84.069 80.4979 83.9957L80.8829 82.7957C80.9063 82.724 80.9129 82.6507 80.9029 82.5757C80.8929 82.4973 80.9096 82.4307 80.9529 82.3757C80.9996 82.3107 81.0238 82.2382 81.0254 82.1582C81.0304 81.6707 81.2804 81.3207 81.2804 80.8657C81.2821 80.009 81.2821 79.1523 81.2804 78.2957C81.2788 77.7923 80.9954 76.6798 80.4304 74.9582C80.3104 74.5882 80.1104 74.2207 79.9379 73.8682C79.7604 73.5057 79.7204 72.9657 79.3004 72.5907C79.2354 72.5323 79.2088 72.4607 79.2204 72.3757C79.2304 72.289 79.2021 72.2223 79.1354 72.1757C79.0788 72.1373 79.0371 72.0857 79.0104 72.0207C78.8804 71.7073 78.7354 71.4032 78.5754 71.1082C78.4121 70.8065 78.2704 70.5273 78.1504 70.2707C77.7021 69.319 77.1204 68.4532 76.4054 67.6732C76.3554 67.6182 76.3571 67.564 76.4104 67.5107L76.4729 67.4482C76.4879 67.4331 76.4996 67.4151 76.5075 67.3953C76.5153 67.3755 76.5191 67.3543 76.5187 67.3329C76.5182 67.3115 76.5135 67.2903 76.5048 67.2706C76.4961 67.2509 76.4835 67.2331 76.4679 67.2182C76.2329 66.9948 75.9546 66.8607 75.6329 66.8157C75.5913 66.809 75.5596 66.7873 75.5379 66.7507C75.5163 66.7107 75.4879 66.6807 75.4529 66.6607C75.4146 66.6373 75.3621 66.6382 75.2954 66.6632C74.7471 66.8648 74.3763 67.0957 74.1829 67.3557C73.8629 67.789 73.5138 68.1998 73.1354 68.5882C72.1829 69.5682 71.2454 70.5582 70.4279 71.6582C70.2229 71.9315 69.9763 72.1632 69.6879 72.3532C69.6213 72.3982 69.5704 72.4565 69.5354 72.5282C69.3204 72.9832 68.8304 73.0507 68.5579 73.2957C68.2563 73.5673 67.9754 73.8565 67.7154 74.1632C67.7021 74.1798 67.5738 74.2965 67.3304 74.5132C67.1988 74.6315 67.1129 74.7823 67.0729 74.9657C67.0546 75.0507 67.0196 75.1282 66.9679 75.1982L66.5579 75.7382C66.5429 75.7582 66.5229 75.769 66.4979 75.7707C66.4763 75.7707 66.4546 75.7715 66.4329 75.7732C66.405 75.7747 66.3778 75.7827 66.3535 75.7966C66.3292 75.8105 66.3084 75.8299 66.2929 75.8532C66.0629 76.1915 65.7763 76.4648 65.4329 76.6732C65.3463 76.7248 65.2929 76.7998 65.2729 76.8982C65.2463 77.0215 65.1946 77.1257 65.1179 77.2107C65.0629 77.2723 65.0446 77.3432 65.0629 77.4232C65.1079 77.6107 65.0929 77.6882 64.9829 77.8607C64.8096 78.1273 64.6796 78.4115 64.5929 78.7132C64.5696 78.7948 64.5221 78.8598 64.4504 78.9082C64.2154 79.0632 64.2654 79.3532 64.1654 79.5382C64.0079 79.8232 63.7754 80.0307 63.6604 80.3282C63.4538 80.8648 63.2338 81.2582 63.0004 81.5082C62.6921 81.8382 62.4754 82.1348 62.3504 82.3982C62.1954 82.7207 61.8729 83.2507 61.6329 83.4932C61.2629 83.8598 60.9429 84.2698 60.6729 84.7232C60.6263 84.8015 60.5629 84.8632 60.4829 84.9082C60.2596 85.0398 60.1454 85.2307 60.1404 85.4807C60.1388 85.5707 60.1071 85.6482 60.0454 85.7132C58.6538 87.2115 57.1738 88.6157 55.6054 89.9257C55.5469 89.9744 55.505 90.0408 55.4854 90.1157C55.4488 90.2573 55.3563 90.329 55.2079 90.3307C55.1379 90.3323 55.0771 90.3557 55.0254 90.4007C54.9738 90.4473 54.9338 90.499 54.9054 90.5557L54.4404 86.7432C55.1888 86.2665 55.9271 85.5973 56.6554 84.7357C56.9204 84.4223 57.5638 83.7665 58.5854 82.7682C58.6304 82.7232 58.6596 82.6698 58.6729 82.6082C58.7079 82.4382 59.2779 81.9557 59.4279 81.6882C59.6829 81.2357 60.0654 81.0307 60.2754 80.6232C60.6429 79.9157 61.2529 79.3307 61.5429 78.5657C61.8429 77.7723 62.2846 77.1823 62.8679 76.7957C63.2746 76.5273 63.5921 76.2423 63.8204 75.9407C64.2104 75.4232 64.4829 75.1207 64.7404 74.6907C64.8854 74.4432 65.1229 74.2857 65.2004 73.9657C65.2154 73.909 65.2471 73.8648 65.2954 73.8332L65.3929 73.7707C65.4363 73.7407 65.4688 73.7015 65.4904 73.6532C65.6404 73.3132 65.8279 72.9982 66.0529 72.7082C66.3013 72.3882 66.5071 72.0782 66.6704 71.7782C66.8571 71.4365 67.0763 71.1173 67.3279 70.8207C67.6804 70.4057 67.8629 69.9907 68.1054 69.5357C68.1304 69.4873 68.1696 69.4565 68.2229 69.4432L68.2979 69.4232C68.3429 69.4115 68.3663 69.3823 68.3679 69.3357C68.3946 68.7273 68.6096 68.1932 69.0129 67.7332C69.0713 67.6648 69.0954 67.5857 69.0854 67.4957C69.0738 67.404 69.0846 67.3157 69.1179 67.2307C69.1596 67.1307 69.1963 67.059 69.2279 67.0157C69.3654 66.8232 69.3329 66.6657 69.4579 66.4507C69.7896 65.8807 69.9038 65.249 69.8004 64.5557Z" fill="#64CAF5"/>
<path d="M77.1848 89.6974C76.5648 88.9074 75.6298 88.0624 75.2798 87.2799C74.8723 86.3749 74.9798 85.5199 75.0098 84.5574C75.0131 84.4624 74.9698 84.4307 74.8798 84.4624C71.0373 85.7924 66.7023 86.1149 62.7498 85.0749C62.6631 85.0516 62.619 85.0857 62.6173 85.1774C62.599 87.3524 62.4306 89.3707 62.1123 91.2324C62.0106 91.8291 61.7873 92.4341 61.4423 93.0474C61.403 93.1179 61.3823 93.1971 61.3823 93.2774C61.379 94.6607 61.364 96.0416 61.3373 97.4199C61.3248 98.0599 60.8473 100.58 59.9098 100.607C59.0048 100.634 58.0681 100.644 57.0998 100.637C57.0787 100.637 57.058 100.632 57.0394 100.622C57.0208 100.612 57.0049 100.598 56.9929 100.58C56.9809 100.563 56.9732 100.543 56.9705 100.522C56.9678 100.501 56.9701 100.48 56.9773 100.46C57.3356 99.5182 57.9081 98.7366 58.6948 98.1149C58.7615 98.0616 58.7965 97.9932 58.7998 97.9099C58.8448 96.2599 59.0448 93.5399 58.3248 92.0474C58.3177 92.0331 58.3063 92.0213 58.2922 92.0137C58.2781 92.0061 58.262 92.0031 58.2461 92.005C58.2302 92.0069 58.2153 92.0137 58.2035 92.0244C58.1916 92.0351 58.1833 92.0493 58.1798 92.0649C57.5598 94.7424 56.6873 97.5749 55.1698 99.9074C55.1484 99.9411 55.1189 99.9688 55.0839 99.988C55.0489 100.007 55.0097 100.017 54.9698 100.017H52.6948C52.6115 100.017 52.5706 99.9757 52.5723 99.8924C52.5848 99.1149 52.8673 98.2599 53.7173 98.0649C53.7973 98.0466 53.8556 98.0007 53.8923 97.9274C55.0748 95.4624 55.1948 93.6749 54.9098 90.5574C54.9381 90.5007 54.9781 90.4491 55.0298 90.4024C55.0815 90.3574 55.1423 90.3341 55.2123 90.3324C55.3606 90.3307 55.4531 90.2591 55.4898 90.1174C55.5093 90.0426 55.5513 89.9761 55.6098 89.9274C57.1781 88.6174 58.6581 87.2132 60.0498 85.7149C60.1115 85.6499 60.1431 85.5724 60.1448 85.4824C60.1498 85.2324 60.264 85.0416 60.4873 84.9099C60.5673 84.8649 60.6306 84.8032 60.6773 84.7249C60.9473 84.2716 61.2673 83.8616 61.6373 83.4949C61.8773 83.2524 62.1998 82.7224 62.3548 82.3999C62.4798 82.1366 62.6965 81.8399 63.0048 81.5099C63.2381 81.2599 63.4581 80.8666 63.6648 80.3299C63.7798 80.0324 64.0123 79.8249 64.1698 79.5399C64.2698 79.3549 64.2198 79.0649 64.4548 78.9099C64.5265 78.8616 64.574 78.7966 64.5973 78.7149C64.684 78.4132 64.814 78.1291 64.9873 77.8624C65.0973 77.6899 65.1123 77.6124 65.0673 77.4249C65.049 77.3449 65.0673 77.2741 65.1223 77.2124C65.199 77.1274 65.2506 77.0232 65.2773 76.8999C65.2973 76.8016 65.3506 76.7266 65.4373 76.6749C65.7806 76.4666 66.0673 76.1932 66.2973 75.8549C66.3128 75.8316 66.3336 75.8122 66.3579 75.7984C66.3822 75.7845 66.4094 75.7764 66.4373 75.7749C66.459 75.7732 66.4806 75.7724 66.5023 75.7724C66.5273 75.7707 66.5473 75.7599 66.5623 75.7399L66.9723 75.1999C67.024 75.1299 67.059 75.0524 67.0773 74.9674C67.1173 74.7841 67.2031 74.6332 67.3348 74.5149C67.5781 74.2982 67.7065 74.1816 67.7198 74.1649C67.9798 73.8582 68.2606 73.5691 68.5623 73.2974C68.8348 73.0524 69.3248 72.9849 69.5398 72.5299C69.5748 72.4582 69.6256 72.3999 69.6923 72.3549C69.9806 72.1649 70.2273 71.9332 70.4323 71.6599C71.2498 70.5599 72.1873 69.5699 73.1398 68.5899C73.5182 68.2016 73.8673 67.7907 74.1873 67.3574C74.3806 67.0974 74.7515 66.8666 75.2998 66.6649C75.3665 66.6399 75.419 66.6391 75.4573 66.6624C75.4923 66.6824 75.5206 66.7124 75.5423 66.7524C75.564 66.7891 75.5956 66.8107 75.6373 66.8174C75.959 66.8624 76.2373 66.9966 76.4723 67.2199C76.4879 67.2348 76.5004 67.2526 76.5091 67.2723C76.5179 67.292 76.5226 67.3132 76.523 67.3346C76.5235 67.356 76.5197 67.3772 76.5119 67.397C76.504 67.4168 76.4923 67.4348 76.4773 67.4499L76.4148 67.5124C76.3615 67.5657 76.3598 67.6199 76.4098 67.6749C77.1248 68.4549 77.7065 69.3207 78.1548 70.2724C78.2748 70.5291 78.4165 70.8082 78.5798 71.1099C78.7398 71.4049 78.8848 71.7091 79.0148 72.0224C79.0415 72.0874 79.0831 72.1391 79.1398 72.1774C79.2065 72.2241 79.2348 72.2907 79.2248 72.3774C79.2131 72.4624 79.2398 72.5341 79.3048 72.5924C79.7248 72.9674 79.7648 73.5074 79.9423 73.8699C80.1148 74.2224 80.3148 74.5899 80.4348 74.9599C80.9998 76.6816 81.2831 77.7941 81.2848 78.2974C81.2865 79.1541 81.2865 80.0107 81.2848 80.8674C81.2848 81.3224 81.0348 81.6724 81.0298 82.1599C81.0281 82.2399 81.004 82.3124 80.9573 82.3774C80.914 82.4324 80.8973 82.4991 80.9073 82.5774C80.9173 82.6524 80.9106 82.7257 80.8873 82.7974L80.5023 83.9974C80.4773 84.0707 80.434 84.1307 80.3723 84.1774C80.3006 84.2324 80.2706 84.3091 80.2823 84.4074C80.2956 84.5007 80.2798 84.5891 80.2348 84.6724C79.9698 85.1599 79.7548 85.6449 79.4498 86.1074C79.1923 86.4999 79.1348 86.8949 78.7498 87.3049C78.4548 87.6174 78.3673 87.9724 78.1098 88.3174C77.7915 88.7424 77.4831 89.2024 77.1848 89.6974Z" fill="#45DFF8"/>
<path d="M85.8905 67.2924C85.9638 67.5458 86.0263 67.7808 86.078 67.9974C86.1346 68.2308 86.2346 68.4499 86.378 68.6549C86.773 69.2149 87.0705 69.7849 87.2705 70.3649C87.6155 71.3633 87.968 72.5549 88.328 73.9399C88.368 74.0899 88.378 74.2874 88.358 74.5324C88.333 74.8441 88.4113 75.0399 88.593 75.1199C88.168 76.0399 87.4688 76.6299 86.4955 76.8899C86.4105 76.9116 86.3621 76.9658 86.3505 77.0524C86.0921 79.0174 86.1705 80.9416 86.5855 82.8249C86.4821 83.3466 86.3613 83.8483 86.223 84.3299C86.0255 85.0174 85.6105 85.6624 85.3155 86.3549C85.2155 86.5899 85.0105 86.6749 84.8955 86.9399C84.6538 87.4949 84.2821 88.0733 83.7805 88.6749C83.2971 89.2549 82.7955 90.0574 82.2755 91.0824L81.4655 89.9499C81.4005 89.8583 81.3605 89.8683 81.3455 89.9799L81.138 91.5299C80.4163 92.5616 79.7071 93.5674 79.0105 94.5474C78.888 94.7199 78.8755 94.9474 78.7855 95.0824C78.3088 95.8008 77.8371 96.5233 77.3705 97.2499C77.2505 97.4374 76.978 97.5899 76.968 97.9174C76.9663 97.9991 76.9488 98.0774 76.9155 98.1524L76.123 100.007L75.1905 99.9974C75.1055 99.9974 75.0638 99.9541 75.0655 99.8674C75.0905 99.1499 75.348 98.2649 76.1555 98.0949C76.2405 98.0766 76.3063 98.0316 76.353 97.9599C77.243 96.6383 77.8413 95.2208 78.148 93.7074C78.4946 93.3041 78.9471 92.6691 79.5055 91.8024C79.8521 91.2641 80.3555 90.6949 81.0155 90.0949C81.0738 90.0416 81.0988 89.9766 81.0905 89.8999C81.0755 89.7716 81.1205 89.6733 81.2255 89.6049C81.2738 89.5716 81.308 89.5274 81.328 89.4724C81.3955 89.2824 81.5805 89.1724 81.673 89.0274C81.8705 88.7174 81.9905 88.3524 82.178 88.0699C83.0496 86.7466 83.7855 85.3516 84.3855 83.8849C85.108 82.1224 85.508 80.1674 85.3455 78.2599C85.3055 77.7999 85.423 77.3674 85.348 76.9224C85.313 76.7124 85.2846 76.5033 85.263 76.2949C85.1463 75.1833 84.8521 74.1199 84.3805 73.1049C84.3438 73.0266 84.3305 72.9441 84.3405 72.8574C84.3505 72.7758 84.3396 72.6958 84.308 72.6174L82.1955 67.4974C82.9638 67.2124 83.6896 67.0399 84.373 66.9799C84.938 66.9299 85.4438 67.0341 85.8905 67.2924Z" fill="#84B4F1"/>
<path d="M85.8926 67.293C88.6576 68.7905 89.3851 72.3355 88.5951 75.1205C88.4134 75.0405 88.3351 74.8446 88.3601 74.533C88.3801 74.288 88.3701 74.0905 88.3301 73.9405C87.9701 72.5555 87.6176 71.3638 87.2726 70.3655C87.0726 69.7855 86.7751 69.2155 86.3801 68.6555C86.2367 68.4505 86.1367 68.2313 86.0801 67.998C86.0284 67.7813 85.9659 67.5463 85.8926 67.293Z" fill="#94A8EF"/>
<path d="M82.1971 67.498L84.3096 72.618C84.3412 72.6964 84.3521 72.7764 84.3421 72.858C84.3321 72.9447 84.3454 73.0272 84.3821 73.1055C84.8537 74.1205 85.1479 75.1839 85.2646 76.2955C85.2862 76.5039 85.3146 76.713 85.3496 76.923C85.4246 77.368 85.3071 77.8005 85.3471 78.2605C85.5096 80.168 85.1096 82.123 84.3871 83.8855C83.7871 85.3522 83.0512 86.7472 82.1796 88.0705C81.9921 88.353 81.8721 88.718 81.6746 89.028C81.5821 89.173 81.3971 89.283 81.3296 89.473C81.3096 89.528 81.2754 89.5722 81.2271 89.6055C81.1221 89.6739 81.0771 89.7722 81.0921 89.9005C81.1004 89.9772 81.0754 90.0422 81.0171 90.0955C80.3571 90.6955 79.8537 91.2647 79.5071 91.803C78.9487 92.6697 78.4962 93.3047 78.1496 93.708L78.1221 92.0105C78.9421 91.0389 79.7071 90.0589 80.4171 89.0705C80.5046 88.948 80.5496 88.708 80.7196 88.5755C80.7846 88.5255 80.8354 88.4639 80.8721 88.3905L81.2071 87.7055C81.2471 87.6239 81.3054 87.5572 81.3821 87.5055C81.6754 87.3072 81.8662 87.028 81.9546 86.668C81.9762 86.5864 82.0154 86.5147 82.0721 86.453C82.4537 86.0364 82.7004 85.5472 82.8121 84.9855C82.8237 84.9305 82.8646 84.8697 82.9346 84.803C82.9879 84.7514 83.0221 84.6889 83.0371 84.6155C83.1096 84.258 83.3321 83.9955 83.4171 83.6905C83.6087 83.0122 83.7954 82.333 83.9771 81.653C84.2121 80.768 84.1846 79.848 84.2871 78.923C84.3371 78.473 84.1546 77.978 84.1671 77.503C84.1837 76.8714 84.1171 76.2822 83.9671 75.7355C83.2887 73.2739 82.7446 71.6605 82.3346 70.8955C82.0412 70.3489 81.7804 69.788 81.5521 69.213C81.4904 69.0564 81.3496 68.8255 81.1296 68.5205C80.9262 68.2389 80.8637 67.958 80.9421 67.678L82.1971 67.498Z" fill="#74BEF3"/>
<path d="M86.5893 82.8232L86.9743 83.7432C86.9718 84.5732 86.9868 85.2982 86.8693 86.1632C86.7993 86.6707 86.9643 87.3482 86.6718 87.8107C86.4751 88.1191 86.3526 88.3366 86.3043 88.4632C85.9918 89.2732 85.2143 89.9282 84.6968 90.6132C84.2835 91.1582 83.8735 91.7132 83.4668 92.2782L82.2793 91.0807C82.7993 90.0557 83.301 89.2532 83.7843 88.6732C84.286 88.0716 84.6576 87.4932 84.8993 86.9382C85.0143 86.6732 85.2193 86.5882 85.3193 86.3532C85.6143 85.6607 86.0293 85.0157 86.2268 84.3282C86.3651 83.8466 86.486 83.3449 86.5893 82.8232Z" fill="#94A8EF"/>
<path d="M86.9702 83.7451C86.9768 84.9701 86.986 86.1951 86.9977 87.4201C87.001 87.8351 87.0827 88.2726 87.2427 88.7326C87.9102 90.6401 88.1177 92.4651 87.0652 94.2776C87.0235 94.3476 87.0068 94.4235 87.0152 94.5051C87.2402 96.4726 87.2927 98.6676 86.4327 100.505C86.4133 100.546 86.3828 100.581 86.3447 100.605C86.3067 100.63 86.2626 100.643 86.2177 100.643L83.3652 100.64C83.3414 100.64 83.318 100.634 83.2974 100.623C83.2768 100.611 83.2596 100.594 83.2477 100.573C83.2358 100.552 83.2295 100.528 83.2295 100.504C83.2295 100.48 83.2358 100.456 83.2477 100.435C83.511 99.9685 83.8702 99.5926 84.3252 99.3076C84.3918 99.2643 84.431 99.2035 84.4427 99.1251C84.6877 97.4376 84.9627 94.8651 84.4527 93.2326C84.4277 93.1526 84.3835 93.0851 84.3202 93.0301L83.4627 92.2801C83.8693 91.7151 84.2793 91.1601 84.6927 90.6151C85.2102 89.9301 85.9877 89.2751 86.3002 88.4651C86.3485 88.3385 86.471 88.121 86.6677 87.8126C86.9602 87.3501 86.7952 86.6726 86.8652 86.1651C86.9827 85.3001 86.9677 84.5751 86.9702 83.7451Z" fill="#B890EB"/>
<path d="M81.142 91.5273C80.8345 93.6298 80.012 95.9198 78.392 97.3423C78.3457 97.3831 78.3087 97.4335 78.2837 97.49C78.2587 97.5465 78.2461 97.6079 78.247 97.6698L78.262 99.8598C78.262 99.9498 78.2178 99.9948 78.1295 99.9948L76.127 100.005L76.9195 98.1498C76.9528 98.0748 76.9703 97.9965 76.972 97.9148C76.982 97.5873 77.2545 97.4348 77.3745 97.2473C77.8411 96.5207 78.3128 95.7982 78.7895 95.0798C78.8795 94.9448 78.892 94.7173 79.0145 94.5448C79.7111 93.5648 80.4203 92.559 81.142 91.5273Z" fill="#94A8EF"/>
<path d="M133.497 71.6558H141.457V63.6958H145.537V71.6558H153.497V75.7358H145.537V83.7358H141.457V75.7358H133.497V71.6558Z" fill="#F0F3FA"/>
<g clip-path="url(#clip0_1844_19629)">
<path fill-rule="evenodd" clip-rule="evenodd" d="M233.989 93.9752L232.952 65.3875L231.074 57.8506L243.608 59.1775V93.7589L235.952 98.1779L233.989 93.9752Z" fill="#24386C"/>
<path fill-rule="evenodd" clip-rule="evenodd" d="M243.607 59.1758L235.951 63.5978L220.15 60.1318L201.656 67.6619L198.574 59.1758L209.831 52.6758L221.09 46.1758L232.347 52.6758L243.607 59.1758Z" fill="#7589BE"/>
<path fill-rule="evenodd" clip-rule="evenodd" d="M198.575 59.1751L206.232 63.5972L210.67 76.7971L225.656 88.7878L221.092 98.1751L209.832 91.6748L198.575 85.1748V59.1751Z" fill="#B2BFE8"/>
<path fill-rule="evenodd" clip-rule="evenodd" d="M226.167 81.8525L221.091 89.3359V98.1766L228.294 94.0207L232.005 88.4788" fill="#24386C"/>
<path fill-rule="evenodd" clip-rule="evenodd" d="M221.095 80.4975L213.889 68.0213L215.441 63.8862L221.341 61.0254L228.294 68.0215L221.095 80.4975Z" fill="#7589BE"/>
<path fill-rule="evenodd" clip-rule="evenodd" d="M213.889 68.0205L221.092 72.1764V80.495L214.43 80.7817L210.4 75.6363L213.889 68.0205Z" fill="#B2BFE8"/>
<path fill-rule="evenodd" clip-rule="evenodd" d="M221.091 72.1751L228.294 68.0195L233.196 76.1819L227.264 81.0833L221.091 80.494V72.1751Z" fill="#24386C"/>
<path fill-rule="evenodd" clip-rule="evenodd" d="M228.295 94.0192L235.952 98.1754V63.5975L228.52 59.3085L221.092 55.0195L213.661 59.3085L206.232 63.5975V80.7565L213.661 85.0454L221.092 89.3348L228.295 85.1751V94.0192ZM228.295 76.3344L221.092 80.4937L213.889 76.3344V68.0192L221.092 63.8599L228.295 68.0192V76.3344Z" fill="#DC244C"/>
<path d="M221.095 89.3389V80.4969L213.93 76.373V85.2004L221.095 89.3389Z" fill="url(#paint1_linear_1844_19629)"/>
</g>
<defs>
<linearGradient id="paint0_linear_1844_19629" x1="143.5" y1="0.175781" x2="143.5" y2="144.176" gradientUnits="userSpaceOnUse">
<stop stop-color="#161E33"/>
<stop offset="1" stop-color="#0E1424"/>
</linearGradient>
<linearGradient id="paint1_linear_1844_19629" x1="219.774" y1="82.1872" x2="212.634" y2="82.1872" gradientUnits="userSpaceOnUse">
<stop stop-color="#FF3364"/>
<stop offset="1" stop-color="#C91540" stop-opacity="0"/>
</linearGradient>
<clipPath id="clip0_1844_19629">
<rect width="44.85" height="52" fill="white" transform="translate(198.575 46.1758)"/>
</clipPath>
</defs>
</svg>
