<svg width="120" height="64" viewBox="0 0 120 64" fill="none" xmlns="http://www.w3.org/2000/svg">
<path fill-rule="evenodd" clip-rule="evenodd" d="M27 43C29.9174 43 32.7153 41.8411 34.7782 39.7782C36.8411 37.7153 38 34.9174 38 32C38 34.9174 39.1589 37.7153 41.2218 39.7782C43.2847 41.8411 46.0826 43 49 43C51.9174 43 54.7153 41.8411 56.7782 39.7782C58.8411 37.7153 60 34.9174 60 32V43H71C72.4587 43 73.8576 42.4205 74.8891 41.3891C75.9205 40.3576 76.5 38.9587 76.5 37.5C76.5 36.0413 75.9205 34.6424 74.8891 33.6109C73.8576 32.5795 72.4587 32 71 32H82V43H93V32H104V21H71C69.5413 21 68.1424 21.5795 67.1109 22.6109C66.0795 23.6424 65.5 25.0413 65.5 26.5C65.5 27.9587 66.0795 29.3576 67.1109 30.3891C68.1424 31.4205 69.5413 32 71 32H60V21H49H38V32C38 29.0826 36.8411 26.2847 34.7782 24.2218C32.7153 22.1589 29.9174 21 27 21H16V32V43H27Z" fill="#D4D9E6"/>
</svg>
