<svg width="88" height="88" viewBox="0 0 88 88" fill="none" xmlns="http://www.w3.org/2000/svg">
<g clip-path="url(#clip0_1326_8583)">
<rect width="88" height="88" rx="8.8" fill="url(#paint0_linear_1326_8583)"/>
<path d="M37.5427 33.4223C37.0433 33.4256 36.539 33.4102 36.0297 33.3761C35.8944 33.3662 35.7129 33.4107 35.5429 33.3233C35.5287 33.3167 35.5136 33.3128 35.4984 33.3117L32.8765 33.2309C32.838 33.2298 32.8061 33.2155 32.7808 33.188C32.7522 33.1572 32.7099 33.1396 32.6538 33.1352C32.2831 33.1022 32.0097 33.084 31.8337 33.0807C31.804 33.0807 31.787 33.0659 31.7826 33.0362C31.7782 33.0109 31.7677 32.9922 31.7512 32.9801C31.7292 32.9647 31.7072 32.9647 31.6852 32.9801C31.6544 33.001 31.622 33.0098 31.5879 33.0065" stroke="#F9D6DB" stroke-width="0.165"/>
<path d="M37.6601 34.5342C36.7185 34.5661 35.7934 34.5622 34.8848 34.5226C33.9806 34.4847 33.0649 34.4401 32.1623 34.3593C32.0023 34.3461 31.8109 34.4022 31.6211 34.2999C31.5694 34.2713 31.5172 34.2713 31.4644 34.2999C31.4248 34.3208 31.3808 34.3285 31.3324 34.323C31.2686 34.3175 31.2372 34.2823 31.2383 34.2174L31.2433 34.0177" stroke="#FBC6E0" stroke-width="0.165"/>
<path d="M37.8032 35.9235C37.7427 35.8938 37.6882 35.8856 37.6398 35.8988C37.6068 35.9076 37.5892 35.8949 37.587 35.8608C37.5826 35.8003 37.5546 35.7695 37.5029 35.7684C37.097 35.7662 36.8693 35.7651 36.8198 35.7651C36.5536 35.7662 36.2645 35.7668 35.9552 35.7668H31.2527C31.236 35.7668 31.2201 35.7734 31.2083 35.7852C31.1966 35.7969 31.19 35.8129 31.19 35.8295V35.9103C31.1898 35.9195 31.1876 35.9284 31.1834 35.9366C31.1792 35.9447 31.1732 35.9517 31.1659 35.9571C31.1585 35.9626 31.15 35.9662 31.141 35.9678C31.1321 35.9695 31.1228 35.969 31.1141 35.9664C31.0844 35.9576 31.0574 35.9268 31.0332 35.874" stroke="#FEB2E6" stroke-width="0.165"/>
<path d="M43.6056 38.8228L43.1485 41.0288C43.1399 41.0677 43.1211 41.1035 43.0941 41.1328C42.9621 41.2736 42.8977 41.4397 42.901 41.6311C42.9021 41.6949 42.8807 41.7504 42.8367 41.7977C42.6024 42.0502 42.6436 42.3241 42.4423 42.5815C42.4115 42.6211 42.3879 42.6651 42.3714 42.7135C42.2438 43.104 42.0573 43.462 41.812 43.7876C41.7768 43.8349 41.7548 43.8877 41.746 43.946C41.6668 44.4883 41.5772 44.9443 41.4771 45.3139C41.4672 45.3491 41.443 45.376 41.4045 45.3947C41.3638 45.4134 41.3324 45.4431 41.3104 45.4838L40.9425 46.162C40.9172 46.2093 40.8781 46.2384 40.8253 46.2494C40.7417 46.2659 40.6928 46.3132 40.6785 46.3913C40.6686 46.4496 40.6394 46.4958 40.591 46.5299C40.4601 46.6223 40.3754 46.7499 40.3369 46.9127C40.3314 46.9336 40.3177 46.9441 40.2957 46.9441C40.2814 46.9441 40.2665 46.9441 40.2511 46.9441C40.2159 46.9452 40.1851 46.9578 40.1587 46.982C39.7693 47.3351 39.2347 47.6783 38.9559 48.1271C38.6869 48.5611 38.3998 48.8713 38.0962 49.2392C38.0742 49.2667 38.0462 49.2849 38.0121 49.2937C37.989 49.3003 37.9697 49.3151 37.9543 49.3382C37.7772 49.5978 37.5715 49.8338 37.3372 50.0461C37.1409 50.2243 37.0303 50.4718 36.8059 50.6516C36.7916 50.6626 36.7548 50.7022 36.6954 50.7704C36.6228 50.854 36.5095 50.8639 36.3555 50.8001" stroke="#CAA7ED" stroke-width="0.165"/>
<path d="M46.5067 38.9709C46.5749 39.4285 46.4996 39.8454 46.2807 40.2216C46.1982 40.3635 46.2196 40.4675 46.1289 40.5945C46.108 40.6231 46.0838 40.6704 46.0563 40.7364C46.0343 40.7925 46.0271 40.8508 46.0348 40.9113C46.0414 40.9707 46.0255 41.023 45.987 41.0681C45.7208 41.3717 45.5789 41.7242 45.5613 42.1257C45.5602 42.1565 45.5448 42.1758 45.5151 42.1835L45.4656 42.1967C45.4304 42.2055 45.4045 42.2258 45.388 42.2577C45.228 42.558 45.1075 42.8319 44.8749 43.1058C44.7088 43.3016 44.5641 43.5123 44.4409 43.7378C44.3331 43.9358 44.1973 44.1404 44.0334 44.3516C43.8849 44.543 43.7611 44.7509 43.6621 44.9753C43.6478 45.0072 43.6264 45.033 43.5978 45.0528L43.5334 45.0941C43.5015 45.115 43.4806 45.1441 43.4707 45.1815C43.4196 45.3927 43.2628 45.4967 43.1671 45.6601C42.9972 45.9439 42.8173 46.1435 42.5599 46.4851C42.4092 46.6842 42.1997 46.8723 41.9313 47.0494C41.5463 47.3046 41.2548 47.694 41.0568 48.2176C40.8654 48.7225 40.4628 49.1086 40.2202 49.5755C40.0816 49.8445 39.8292 49.9798 39.6609 50.2784C39.5619 50.455 39.1857 50.7734 39.1626 50.8856C39.1538 50.9263 39.1345 50.9615 39.1048 50.9912C38.4305 51.6501 38.0059 52.083 37.831 52.2898C37.3503 52.8585 36.863 53.3001 36.3691 53.6147" stroke="#7CB9F2" stroke-width="0.165"/>
<path d="M53.8592 41.0303C53.8075 41.2151 53.8488 41.4004 53.983 41.5863C54.1282 41.7876 54.2211 41.94 54.2618 42.0434C54.4125 42.4229 54.5847 42.793 54.7783 43.1538C55.0489 43.6587 55.408 44.7235 55.8557 46.3482C55.9547 46.709 55.9987 47.0979 55.9877 47.5148C55.9795 47.8283 56.0999 48.155 56.0669 48.452C55.9993 49.0625 56.0174 49.6697 55.8623 50.2538C55.7424 50.7026 55.6192 51.1508 55.4927 51.5985C55.4366 51.7998 55.2898 51.9731 55.2419 52.209C55.232 52.2574 55.2095 52.2987 55.1743 52.3328C55.1281 52.3768 55.1011 52.4169 55.0934 52.4532C55.0197 52.8239 54.8569 53.1468 54.605 53.4218C54.5676 53.4625 54.5418 53.5098 54.5275 53.5637C54.4692 53.8013 54.3432 53.9855 54.1496 54.1164C54.099 54.1505 54.0605 54.1945 54.0341 54.2484L53.813 54.7005C53.7888 54.7489 53.7553 54.7896 53.7124 54.8226C53.6002 54.9101 53.5705 55.0685 53.5127 55.1493C53.0441 55.8016 52.5392 56.4484 51.998 57.0897" stroke="#6CC4F4" stroke-width="0.165"/>
<path d="M51.3792 55.5636C51.5761 55.2369 51.7796 54.9333 51.9897 54.6528C52.1597 54.4251 52.2174 54.1908 52.4121 53.9846C52.6662 53.714 52.7042 53.4533 52.8741 53.1942C53.0754 52.889 53.2173 52.5689 53.3922 52.2471C53.4219 52.1921 53.4324 52.1338 53.4236 52.0722C53.4159 52.0073 53.4357 51.9567 53.483 51.9204C53.5237 51.8896 53.5523 51.85 53.5688 51.8016L53.8229 51.0096C53.8383 50.9623 53.8427 50.9139 53.8361 50.8644C53.8295 50.8127 53.8405 50.7687 53.8691 50.7324C53.8999 50.6895 53.9158 50.6417 53.9169 50.5889C53.9202 50.2671 54.0852 50.0361 54.0852 49.7358C54.0863 49.1704 54.0863 48.605 54.0852 48.0396C54.0841 47.7074 53.8971 46.9732 53.5242 45.8369C53.445 45.5927 53.313 45.3501 53.1992 45.1175C53.082 44.8782 53.0556 44.5218 52.7784 44.2743C52.7355 44.2358 52.7179 44.1885 52.7256 44.1324C52.7322 44.0752 52.7135 44.0312 52.6695 44.0004C52.6321 43.9751 52.6046 43.941 52.587 43.8981C52.5012 43.6913 52.4055 43.4906 52.2999 43.2959C52.1921 43.0968 52.0986 42.9125 52.0194 42.7431C51.7235 42.115 51.3396 41.5436 50.8677 41.0288C50.8347 40.9925 50.8358 40.9567 50.871 40.9215L50.9123 40.8803C50.9222 40.8703 50.9299 40.8584 50.9351 40.8454C50.9403 40.8323 50.9428 40.8183 50.9425 40.8042C50.9422 40.79 50.939 40.7761 50.9333 40.7631C50.9276 40.7501 50.9193 40.7383 50.909 40.7285C50.7539 40.5811 50.5702 40.4925 50.3579 40.4628C50.3304 40.4584 50.3095 40.4441 50.2952 40.4199C50.2809 40.3935 50.2622 40.3737 50.2391 40.3605C50.2138 40.3451 50.1791 40.3457 50.1351 40.3622C49.7732 40.4953 49.5285 40.6476 49.4009 40.8192C49.1897 41.1052 48.9592 41.3764 48.7095 41.6327C48.0809 42.2795 47.4621 42.9329 46.9226 43.6589C46.7873 43.8393 46.6245 43.9922 46.4342 44.1176C46.3902 44.1473 46.3566 44.1858 46.3335 44.2331C46.1916 44.5334 45.8682 44.5779 45.6884 44.7396C45.4893 44.9189 45.3039 45.1098 45.1323 45.3122C45.1235 45.3232 45.0388 45.4002 44.8782 45.5432C44.7913 45.6213 44.7347 45.7208 44.7083 45.8418C44.6962 45.8979 44.6731 45.9491 44.639 45.9953L44.3684 46.3517C44.3585 46.3649 44.3453 46.372 44.3288 46.3731C44.3145 46.3731 44.3002 46.3737 44.2859 46.3748C44.2674 46.3758 44.2495 46.3811 44.2334 46.3902C44.2174 46.3994 44.2037 46.4122 44.1935 46.4276C44.0417 46.6509 43.8525 46.8313 43.6259 46.9688C43.5687 47.0029 43.5335 47.0524 43.5203 47.1173C43.5027 47.1987 43.4686 47.2674 43.418 47.3235C43.3817 47.3642 43.3696 47.411 43.3817 47.4638C43.4114 47.5875 43.4015 47.6387 43.3289 47.7525C43.2145 47.9285 43.1287 48.1161 43.0715 48.3152C43.0561 48.3691 43.0247 48.412 42.9774 48.4439C42.8223 48.5462 42.8553 48.7376 42.7893 48.8597C42.6854 49.0478 42.5319 49.1847 42.456 49.3811C42.3196 49.7353 42.1744 49.9949 42.0204 50.1599C41.8169 50.3777 41.6739 50.5735 41.5914 50.7473C41.4891 50.9601 41.2763 51.3099 41.1179 51.47C40.8737 51.712 40.6625 51.9826 40.4843 52.2818C40.4535 52.3335 40.4117 52.3742 40.3589 52.4039C40.2115 52.4908 40.1361 52.6167 40.1328 52.7817C40.1317 52.8411 40.1108 52.8923 40.0701 52.9352C39.1516 53.9241 38.1748 54.8508 37.1397 55.7154C37.1011 55.7476 37.0734 55.7914 37.0605 55.8408C37.0363 55.9343 36.9753 55.9816 36.8774 55.9827C36.8312 55.9838 36.791 55.9992 36.7569 56.0289C36.7228 56.0597 36.6964 56.0938 36.6777 56.1312" stroke="#55D5F7" stroke-width="0.165"/>
<path d="M57.1309 40.7764C57.1793 40.9436 57.2205 41.0987 57.2546 41.2417C57.292 41.3957 57.358 41.5403 57.4526 41.6756C57.7133 42.0452 57.9097 42.4214 58.0417 42.8042C58.2694 43.4631 58.502 44.2496 58.7396 45.1637C58.766 45.2627 58.7726 45.3931 58.7594 45.5548C58.7429 45.7605 58.7946 45.8897 58.9145 45.9425" stroke="#8CAEF0" stroke-width="0.165"/>
<path d="M57.5868 51.0276C57.5186 51.3719 57.4388 51.703 57.3475 52.0209C57.2172 52.4746 56.9433 52.9003 56.7486 53.3574C56.6826 53.5125 56.5473 53.5686 56.4714 53.7435C56.3119 54.1098 56.0666 54.4915 55.7355 54.8886C55.4165 55.2714 55.0854 55.801 54.7422 56.4775" stroke="#8CAEF0" stroke-width="0.165"/>
<path d="M53.9896 56.7729C53.5133 57.4538 53.0452 58.1177 52.5854 58.7645C52.5046 58.8784 52.4963 59.0285 52.4369 59.1176C52.1223 59.5917 51.811 60.0686 51.503 60.5482C51.4238 60.6719 51.244 60.7726 51.2374 60.9887C51.2363 61.0426 51.2247 61.0943 51.2027 61.1438L50.6797 62.3681" stroke="#8CAEF0" stroke-width="0.165"/>
<path d="M52.0195 58.2102C52.2483 57.944 52.547 57.5249 52.9155 56.9529C53.1443 56.5976 53.4765 56.222 53.9121 55.826C53.9506 55.7908 53.9671 55.7479 53.9616 55.6973C53.9517 55.6126 53.9814 55.5477 54.0507 55.5026C54.0826 55.4806 54.1051 55.4514 54.1183 55.4151C54.1629 55.2897 54.285 55.2171 54.346 55.1214C54.4764 54.9168 54.5556 54.6759 54.6793 54.4895C55.2546 53.6161 55.7403 52.6954 56.1363 51.7274C56.6131 50.5641 56.8771 49.2738 56.7699 48.0149C56.7435 47.7113 56.821 47.4258 56.7715 47.1321C56.7484 46.9935 56.7297 46.8555 56.7154 46.718C56.6384 45.9843 56.4443 45.2825 56.133 44.6126C56.1088 44.5609 56.1 44.5064 56.1066 44.4492C56.1132 44.3953 56.106 44.3425 56.0851 44.2908L54.6909 40.9116" stroke="#7CB9F2" stroke-width="0.165"/>
<path d="M57.8403 51.635C57.8387 52.1828 57.8486 52.6613 57.771 53.2322C57.7248 53.5672 57.8337 54.0143 57.6407 54.3196C57.5109 54.5231 57.43 54.6666 57.3981 54.7502C57.1919 55.2848 56.6787 55.7171 56.3372 56.1692C56.0644 56.5289 55.7938 56.8952 55.5254 57.2681" stroke="#A69CED" stroke-width="0.165"/>
<path d="M37.5453 33.4222C37.0459 33.4255 36.5416 33.4101 36.0323 33.376C35.897 33.3661 35.7155 33.4107 35.5455 33.3232C35.5313 33.3167 35.5162 33.3128 35.501 33.3117L32.8791 33.2308C32.8406 33.2297 32.8087 33.2154 32.7834 33.1879C32.7548 33.1571 32.7125 33.1395 32.6564 33.1351C32.2857 33.1021 32.0123 33.084 31.8363 33.0807C31.8066 33.0807 31.7896 33.0658 31.7852 33.0361C31.7808 33.0108 31.7703 32.9921 31.7538 32.98C31.7318 32.9646 31.7098 32.9646 31.6878 32.98C31.657 33.0009 31.6246 33.0097 31.5905 33.0064C31.8281 32.6973 31.8996 32.3305 31.805 31.9059C31.7929 31.8509 31.7599 31.819 31.706 31.8102C30.8496 31.6617 29.4818 31.1898 29.0412 30.4027C28.731 29.8516 28.8878 28.8732 29.5676 28.6207C29.5797 28.6163 29.8294 28.5855 30.3167 28.5283C30.7704 28.4739 31.8297 28.1934 31.8215 27.5697C31.8149 26.8371 31.7736 26.0236 31.5113 25.3537C31.4783 25.2701 31.5036 25.2443 31.5872 25.2762C32.0932 25.4709 32.5321 25.764 32.9039 26.1556C33.0117 26.2689 33.0656 26.2475 33.0656 26.0913L33.0639 25.3158C33.0639 25.2498 33.0947 25.2272 33.1563 25.2481C36.4316 26.3586 37.2599 30.4819 37.5453 33.4222Z" fill="#F8DFD8"/>
<path d="M37.543 33.4224L37.6601 34.5345C36.7185 34.5664 35.7934 34.5625 34.8848 34.5229C33.9806 34.485 33.0649 34.4404 32.1623 34.3596C32.0023 34.3464 31.8109 34.4025 31.6211 34.3002C31.5694 34.2716 31.5172 34.2716 31.4644 34.3002C31.4248 34.3211 31.3808 34.3288 31.3324 34.3233C31.2686 34.3178 31.2372 34.2826 31.2383 34.2177L31.2433 34.018L31.5881 33.0066C31.6222 33.0099 31.6547 33.0011 31.6855 32.9802C31.7075 32.9648 31.7295 32.9648 31.7515 32.9802C31.768 32.9923 31.7784 33.011 31.7828 33.0363C31.7872 33.066 31.8043 33.0808 31.834 33.0808C32.01 33.0841 32.2833 33.1023 32.654 33.1353C32.7101 33.1397 32.7525 33.1573 32.7811 33.1881C32.8064 33.2156 32.8383 33.2299 32.8768 33.231L35.4986 33.3118C35.5139 33.3129 35.529 33.3168 35.5432 33.3234C35.7131 33.4108 35.8946 33.3663 36.0299 33.3762C36.5392 33.4103 37.0436 33.4257 37.543 33.4224Z" fill="#FACCDE"/>
<path d="M31.2447 34.0178L31.2398 34.2175C31.2387 34.2824 31.27 34.3176 31.3338 34.3231C31.3822 34.3286 31.4262 34.3209 31.4658 34.3C31.5186 34.2714 31.5709 34.2714 31.6226 34.3C31.8123 34.4023 32.0037 34.3462 32.1638 34.3594C33.0663 34.4402 33.9821 34.4848 34.8863 34.5227C35.7949 34.5623 36.72 34.5662 37.6616 34.5343L37.8051 35.9236C37.7446 35.8939 37.6902 35.8856 37.6418 35.8988C37.6088 35.9076 37.5912 35.895 37.589 35.8609C37.5846 35.8004 37.5565 35.7696 37.5048 35.7685C37.0989 35.7663 36.8712 35.7652 36.8217 35.7652C36.5555 35.7662 36.2665 35.7668 35.9571 35.7668H31.2546C31.238 35.7668 31.222 35.7734 31.2103 35.7852C31.1985 35.7969 31.1919 35.8129 31.1919 35.8295V35.9104C31.1918 35.9195 31.1895 35.9285 31.1853 35.9366C31.1812 35.9447 31.1752 35.9518 31.1678 35.9572C31.1605 35.9626 31.152 35.9663 31.143 35.9679C31.134 35.9695 31.1248 35.969 31.116 35.9665C31.0863 35.9577 31.0594 35.9269 31.0352 35.8741L31.2447 34.0178Z" fill="#FCBFE2"/>
<path d="M37.8059 35.9237L38.0567 38.6924C38.0644 38.7782 38.1106 38.8211 38.1953 38.8211L43.6073 38.8227L43.1502 41.0288C43.1416 41.0676 43.1228 41.1035 43.0958 41.1327C42.9638 41.2735 42.8994 41.4396 42.9027 41.631C42.9038 41.6948 42.8824 41.7504 42.8384 41.7977C42.6041 42.0501 42.6453 42.324 42.444 42.5814C42.4132 42.621 42.3896 42.665 42.3731 42.7134C42.2455 43.1039 42.059 43.462 41.8137 43.7876C41.7785 43.8349 41.7565 43.8877 41.7477 43.946C41.6685 44.4883 41.5789 44.9442 41.4788 45.3138C41.4689 45.349 41.4447 45.376 41.4062 45.3947C41.3655 45.4134 41.3341 45.4431 41.3121 45.4838L40.9442 46.1619C40.9189 46.2092 40.8798 46.2384 40.827 46.2494C40.7434 46.2659 40.6945 46.3132 40.6802 46.3913C40.6703 46.4496 40.6411 46.4958 40.5927 46.5299C40.4618 46.6223 40.3771 46.7499 40.3386 46.9127C40.3331 46.9336 40.3194 46.944 40.2974 46.944C40.2831 46.944 40.2682 46.944 40.2528 46.944C40.2176 46.9451 40.1868 46.9578 40.1604 46.982C39.771 47.3351 39.2364 47.6783 38.9576 48.1271C38.6886 48.561 38.4015 48.8712 38.0979 49.2392C38.0759 49.2667 38.0479 49.2848 38.0138 49.2936C37.9907 49.3002 37.9714 49.3151 37.956 49.3382C37.7789 49.5978 37.5732 49.8337 37.3389 50.046C37.1426 50.2242 37.032 50.4717 36.8076 50.6516C36.7933 50.6626 36.7565 50.7022 36.6971 50.7704C36.6245 50.854 36.5112 50.8639 36.3572 50.8001C34.661 49.9107 32.9103 48.3746 32.384 46.4474C32.153 45.6026 32.2536 44.4707 32.2404 43.4988C32.2393 43.4438 32.2234 43.3927 32.1926 43.3454C31.2917 41.9759 31.4088 40.3919 31.4154 38.8887C31.4165 38.6357 31.3709 38.3646 31.2785 38.0753C31.0508 37.3669 30.9699 36.6332 31.0359 35.8742C31.0601 35.927 31.0871 35.9578 31.1168 35.9666C31.1255 35.9691 31.1348 35.9696 31.1438 35.968C31.1527 35.9664 31.1612 35.9627 31.1686 35.9573C31.1759 35.9518 31.1819 35.9448 31.1861 35.9367C31.1903 35.9286 31.1925 35.9196 31.1927 35.9105V35.8296C31.1927 35.813 31.1993 35.797 31.211 35.7853C31.2228 35.7735 31.2387 35.7669 31.2554 35.7669H35.9579C36.2672 35.7669 36.5563 35.7663 36.8225 35.7653C36.872 35.7653 37.0997 35.7664 37.5056 35.7686C37.5573 35.7697 37.5853 35.8005 37.5897 35.861C37.5919 35.8951 37.6095 35.9077 37.6425 35.8989C37.6909 35.8857 37.7454 35.894 37.8059 35.9237Z" fill="#FFA5EA"/>
<path d="M43.6056 38.8228C44.5736 38.7777 45.5416 38.8272 46.5096 38.9713C46.5778 39.4289 46.5024 39.8458 46.2835 40.222C46.201 40.3639 46.2225 40.4678 46.1317 40.5949C46.1108 40.6235 46.0866 40.6708 46.0591 40.7368C46.0371 40.7929 46.03 40.8512 46.0377 40.9117C46.0443 40.9711 46.0283 41.0233 45.9898 41.0684C45.7236 41.372 45.5817 41.7246 45.5641 42.1261C45.563 42.1569 45.5476 42.1761 45.5179 42.1838L45.4684 42.197C45.4332 42.2058 45.4074 42.2262 45.3909 42.2581C45.2308 42.5584 45.1104 42.8323 44.8777 43.1062C44.7116 43.302 44.567 43.5126 44.4438 43.7381C44.336 43.9361 44.2001 44.1407 44.0362 44.3519C43.8877 44.5433 43.764 44.7512 43.665 44.9756C43.6507 45.0075 43.6292 45.0334 43.6006 45.0532L43.5363 45.0944C43.5044 45.1153 43.4835 45.1445 43.4736 45.1819C43.4224 45.3931 43.2657 45.497 43.17 45.6604C43 45.9442 42.8202 46.1438 42.5628 46.4854C42.4121 46.6845 42.2025 46.8726 41.9341 47.0497C41.5491 47.3049 41.2576 47.6943 41.0596 48.2179C40.8682 48.7228 40.4656 49.1089 40.2231 49.5758C40.0845 49.8448 39.832 49.9801 39.6637 50.2787C39.5647 50.4553 39.1885 50.7737 39.1654 50.8859C39.1566 50.9266 39.1374 50.9618 39.1077 50.9915C38.4334 51.6504 38.0088 52.0833 37.8339 52.2901C37.3532 52.8588 36.8659 53.3004 36.372 53.615L36.3555 50.8001C36.5095 50.8639 36.6228 50.854 36.6954 50.7704C36.7548 50.7022 36.7916 50.6626 36.8059 50.6516C37.0303 50.4718 37.1409 50.2243 37.3372 50.0461C37.5715 49.8338 37.7772 49.5978 37.9543 49.3382C37.9697 49.3151 37.989 49.3003 38.0121 49.2937C38.0462 49.2849 38.0742 49.2667 38.0962 49.2392C38.3998 48.8713 38.6869 48.5611 38.9559 48.1271C39.2347 47.6783 39.7693 47.3351 40.1587 46.982C40.1851 46.9578 40.2159 46.9452 40.2511 46.9441C40.2665 46.9441 40.2814 46.9441 40.2957 46.9441C40.3177 46.9441 40.3314 46.9336 40.3369 46.9127C40.3754 46.7499 40.4601 46.6223 40.591 46.5299C40.6394 46.4958 40.6686 46.4496 40.6785 46.3913C40.6928 46.3132 40.7417 46.2659 40.8253 46.2494C40.8781 46.2384 40.9172 46.2093 40.9425 46.162L41.3104 45.4838C41.3324 45.4431 41.3638 45.4134 41.4045 45.3947C41.443 45.376 41.4672 45.3491 41.4771 45.3139C41.5772 44.9443 41.6668 44.4883 41.746 43.946C41.7548 43.8877 41.7768 43.8349 41.812 43.7876C42.0573 43.462 42.2438 43.104 42.3714 42.7135C42.3879 42.6651 42.4115 42.6211 42.4423 42.5815C42.6436 42.3241 42.6024 42.0502 42.8367 41.7977C42.8807 41.7504 42.9021 41.6949 42.901 41.6311C42.8977 41.4397 42.9621 41.2736 43.0941 41.1328C43.1211 41.1036 43.1399 41.0677 43.1485 41.0288L43.6056 38.8228Z" fill="#94A8EF"/>
<path d="M46.5087 38.9711C47.8804 39.0745 49.2031 39.3407 50.4769 39.7697C51.6715 40.1739 52.5427 40.9445 53.8611 41.0303C53.8094 41.2151 53.8507 41.4004 53.9848 41.5863C54.1301 41.7876 54.223 41.94 54.2637 42.0434C54.4144 42.4229 54.5865 42.793 54.7801 43.1538C55.0507 43.6587 55.4099 44.7235 55.8576 46.3482C55.9566 46.709 56.0006 47.0979 55.9896 47.5148C55.9813 47.8283 56.1018 48.155 56.0688 48.452C56.0012 49.0625 56.0193 49.6697 55.8642 50.2538C55.7443 50.7026 55.6211 51.1508 55.4946 51.5985C55.4385 51.7998 55.2916 51.9731 55.2438 52.209C55.2339 52.2574 55.2114 52.2987 55.1762 52.3328C55.13 52.3768 55.103 52.4169 55.0953 52.4532C55.0216 52.8239 54.8588 53.1468 54.6069 53.4218C54.5695 53.4625 54.5437 53.5098 54.5294 53.5637C54.4711 53.8013 54.3451 53.9855 54.1515 54.1164C54.1009 54.1505 54.0624 54.1945 54.036 54.2484L53.8149 54.7005C53.7907 54.7489 53.7572 54.7896 53.7143 54.8226C53.6021 54.9101 53.5723 55.0685 53.5146 55.1493C53.046 55.8016 52.5411 56.4484 51.9999 57.0897C51.858 56.4847 51.6512 55.976 51.3795 55.5635C51.5764 55.2368 51.7799 54.9332 51.99 54.6527C52.1599 54.425 52.2177 54.1907 52.4124 53.9844C52.6665 53.7138 52.7044 53.4531 52.8744 53.1941C53.0757 52.8888 53.2176 52.5687 53.3925 52.247C53.4222 52.192 53.4326 52.1337 53.4238 52.0721C53.4161 52.0072 53.4359 51.9566 53.4832 51.9203C53.5239 51.8895 53.5525 51.8499 53.569 51.8015L53.8231 51.0095C53.8385 50.9622 53.8429 50.9138 53.8363 50.8643C53.8297 50.8126 53.8408 50.7686 53.8694 50.7323C53.9002 50.6894 53.9161 50.6415 53.9172 50.5887C53.9205 50.267 54.0855 50.036 54.0855 49.7357C54.0866 49.1703 54.0866 48.6049 54.0855 48.0395C54.0844 47.7073 53.8974 46.973 53.5245 45.8367C53.4453 45.5925 53.3133 45.35 53.1994 45.1173C53.0823 44.8781 53.0559 44.5217 52.7787 44.2742C52.7358 44.2357 52.7182 44.1884 52.7259 44.1323C52.7325 44.0751 52.7138 44.0311 52.6698 44.0003C52.6324 43.975 52.6049 43.9409 52.5873 43.898C52.5015 43.6912 52.4058 43.4904 52.3002 43.2957C52.1924 43.0966 52.0989 42.9124 52.0197 42.743C51.7238 42.1149 51.3399 41.5434 50.868 41.0286C50.835 40.9923 50.8361 40.9566 50.8713 40.9214L50.9125 40.8801C50.9224 40.8702 50.9302 40.8583 50.9353 40.8452C50.9405 40.8322 50.943 40.8182 50.9427 40.804C50.9424 40.7899 50.9393 40.7759 50.9336 40.7629C50.9278 40.7499 50.9195 40.7382 50.9092 40.7283C50.7541 40.5809 50.5704 40.4924 50.3581 40.4627C50.3306 40.4583 50.3097 40.444 50.2954 40.4198C50.2811 40.3934 50.2625 40.3736 50.2393 40.3604C50.214 40.345 50.1794 40.3455 50.1354 40.362C49.7735 40.4951 49.5287 40.6475 49.4011 40.8191C49.1899 41.1051 48.9595 41.3762 48.7098 41.6325C48.0811 42.2793 47.4624 42.9327 46.9228 43.6587C46.7875 43.8391 46.6247 43.992 46.4344 44.1174C46.3904 44.1471 46.3569 44.1856 46.3338 44.2329C46.1919 44.5332 45.8685 44.5778 45.6886 44.7395C45.4895 44.9188 45.3042 45.1096 45.1326 45.312C45.1238 45.323 45.0391 45.4 44.8785 45.543C44.7916 45.6211 44.7349 45.7207 44.7085 45.8417C44.6964 45.8978 44.6733 45.9489 44.6392 45.9951L44.3686 46.3515C44.3587 46.3647 44.3455 46.3719 44.329 46.373C44.3147 46.373 44.3004 46.3735 44.2861 46.3746C44.2677 46.3756 44.2497 46.3809 44.2337 46.3901C44.2177 46.3993 44.204 46.412 44.1937 46.4274C44.0419 46.6507 43.8527 46.8311 43.6261 46.9686C43.5689 47.0027 43.5337 47.0522 43.5205 47.1171C43.5029 47.1985 43.4688 47.2673 43.4182 47.3234C43.3819 47.3641 43.3698 47.4108 43.3819 47.4636C43.4116 47.5874 43.4017 47.6385 43.3291 47.7524C43.2147 47.9284 43.1289 48.1159 43.0717 48.315C43.0563 48.3689 43.025 48.4118 42.9777 48.4437C42.8226 48.546 42.8556 48.7374 42.7896 48.8595C42.6856 49.0476 42.5322 49.1846 42.4563 49.3809C42.3199 49.7351 42.1747 49.9947 42.0207 50.1597C41.8172 50.3775 41.6742 50.5733 41.5917 50.7471C41.4894 50.96 41.2765 51.3098 41.1181 51.4698C40.8739 51.7118 40.6627 51.9824 40.4845 52.2816C40.4537 52.3333 40.4119 52.374 40.3591 52.4037C40.2117 52.4906 40.1364 52.6166 40.1331 52.7816C40.132 52.841 40.1111 52.8921 40.0704 52.935C39.1519 53.9239 38.1751 54.8507 37.14 55.7153C37.1014 55.7474 37.0737 55.7913 37.0608 55.8407C37.0366 55.9342 36.9755 55.9815 36.8776 55.9826C36.8314 55.9837 36.7913 55.9991 36.7572 56.0288C36.7231 56.0596 36.6967 56.0937 36.678 56.1311L36.3711 53.6148C36.865 53.3002 37.3523 52.8586 37.833 52.2899C38.0079 52.0831 38.4325 51.6502 39.1068 50.9913C39.1365 50.9616 39.1557 50.9264 39.1645 50.8857C39.1876 50.7735 39.5638 50.4551 39.6628 50.2785C39.8311 49.9799 40.0836 49.8446 40.2222 49.5756C40.4647 49.1087 40.8673 48.7226 41.0587 48.2177C41.2567 47.6941 41.5482 47.3047 41.9332 47.0495C42.2016 46.8724 42.4112 46.6843 42.5619 46.4852C42.8193 46.1436 42.9991 45.944 43.1691 45.6602C43.2648 45.4968 43.4215 45.3929 43.4727 45.1817C43.4826 45.1443 43.5035 45.1151 43.5354 45.0942L43.5997 45.053C43.6283 45.0332 43.6498 45.0073 43.6641 44.9754C43.7631 44.751 43.8868 44.5431 44.0353 44.3517C44.1992 44.1405 44.3351 43.9359 44.4429 43.7379C44.5661 43.5124 44.7107 43.3018 44.8768 43.106C45.1095 42.8321 45.2299 42.5582 45.39 42.2579C45.4065 42.226 45.4323 42.2056 45.4675 42.1968L45.517 42.1836C45.5467 42.1759 45.5621 42.1567 45.5632 42.1259C45.5808 41.7244 45.7227 41.3718 45.9889 41.0682C46.0274 41.0231 46.0434 40.9709 46.0368 40.9115C46.0291 40.851 46.0362 40.7927 46.0582 40.7366C46.0857 40.6706 46.1099 40.6233 46.1308 40.5947C46.2216 40.4676 46.2001 40.3637 46.2826 40.2218C46.5015 39.8456 46.5769 39.4287 46.5087 38.9711Z" fill="#64CAF5"/>
<path d="M51.381 55.5637C50.9718 55.0423 50.3547 54.4846 50.1237 53.9682C49.8548 53.3709 49.9257 52.8066 49.9455 52.1713C49.9477 52.1086 49.9191 52.0877 49.8597 52.1086C47.3237 52.9864 44.4626 53.1993 41.8539 52.5129C41.7967 52.4975 41.7676 52.52 41.7665 52.5805C41.7544 54.016 41.6433 55.3481 41.4332 56.5768C41.3661 56.9706 41.2187 57.3699 40.991 57.7747C40.965 57.8213 40.9514 57.8735 40.9514 57.9265C40.9492 58.8395 40.9393 59.7509 40.9217 60.6606C40.9134 61.083 40.5983 62.7462 39.9795 62.7644C39.3822 62.782 38.764 62.7886 38.1249 62.7842C38.111 62.7839 38.0973 62.7804 38.085 62.7738C38.0728 62.7672 38.0622 62.7578 38.0543 62.7464C38.0464 62.7349 38.0414 62.7217 38.0396 62.7079C38.0378 62.6941 38.0393 62.6801 38.0441 62.667C38.2806 62.0455 38.6584 61.5296 39.1776 61.1193C39.2216 61.0841 39.2447 61.039 39.2469 60.984C39.2766 59.895 39.4086 58.0998 38.9334 57.1147C38.9287 57.1053 38.9212 57.0975 38.9119 57.0925C38.9026 57.0875 38.892 57.0855 38.8815 57.0867C38.871 57.088 38.8612 57.0925 38.8533 57.0996C38.8455 57.1067 38.84 57.116 38.8377 57.1263C38.4285 58.8934 37.8527 60.7629 36.8511 62.3024C36.837 62.3246 36.8175 62.3429 36.7944 62.3555C36.7713 62.3682 36.7454 62.3749 36.7191 62.375H35.2176C35.1626 62.375 35.1357 62.3475 35.1368 62.2925C35.145 61.7793 35.3315 61.215 35.8925 61.0863C35.9453 61.0742 35.9838 61.044 36.008 60.9956C36.7884 59.3687 36.8676 58.1889 36.6795 56.1313C36.6982 56.0939 36.7246 56.0598 36.7587 56.029C36.7928 55.9993 36.833 55.9839 36.8792 55.9828C36.9771 55.9817 37.0381 55.9344 37.0623 55.8409C37.0752 55.7915 37.1029 55.7477 37.1415 55.7155C38.1766 54.8509 39.1534 53.9242 40.0719 52.9353C40.1126 52.8924 40.1335 52.8412 40.1346 52.7818C40.1379 52.6168 40.2133 52.4909 40.3607 52.404C40.4135 52.3743 40.4553 52.3336 40.4861 52.2819C40.6643 51.9827 40.8755 51.7121 41.1197 51.4701C41.2781 51.31 41.4909 50.9602 41.5932 50.7474C41.6757 50.5736 41.8187 50.3778 42.0222 50.16C42.1762 49.995 42.3214 49.7354 42.4578 49.3812C42.5337 49.1848 42.6872 49.0479 42.7911 48.8598C42.8571 48.7377 42.8241 48.5463 42.9792 48.444C43.0265 48.4121 43.0579 48.3692 43.0733 48.3153C43.1305 48.1162 43.2163 47.9286 43.3307 47.7526C43.4033 47.6388 43.4132 47.5876 43.3835 47.4639C43.3714 47.4111 43.3835 47.3643 43.4198 47.3236C43.4704 47.2675 43.5045 47.1988 43.5221 47.1174C43.5353 47.0525 43.5705 47.003 43.6277 46.9689C43.8543 46.8314 44.0435 46.651 44.1953 46.4277C44.2055 46.4123 44.2192 46.3995 44.2352 46.3904C44.2513 46.3812 44.2692 46.3759 44.2877 46.3749C44.302 46.3738 44.3163 46.3732 44.3306 46.3732C44.3471 46.3721 44.3603 46.365 44.3702 46.3518L44.6408 45.9954C44.6749 45.9492 44.698 45.898 44.7101 45.8419C44.7365 45.7209 44.7931 45.6214 44.88 45.5433C45.0406 45.4003 45.1253 45.3233 45.1341 45.3123C45.3057 45.1099 45.4911 44.919 45.6902 44.7397C45.87 44.578 46.1934 44.5335 46.3353 44.2332C46.3584 44.1859 46.392 44.1474 46.436 44.1177C46.6263 43.9923 46.7891 43.8394 46.9244 43.659C47.4639 42.933 48.0827 42.2796 48.7113 41.6328C48.961 41.3765 49.1915 41.1053 49.4027 40.8193C49.5303 40.6477 49.775 40.4954 50.1369 40.3623C50.1809 40.3458 50.2156 40.3452 50.2409 40.3606C50.264 40.3738 50.2827 40.3936 50.297 40.42C50.3113 40.4442 50.3322 40.4585 50.3597 40.4629C50.572 40.4926 50.7557 40.5812 50.9108 40.7286C50.9211 40.7384 50.9293 40.7502 50.9351 40.7632C50.9408 40.7762 50.9439 40.7902 50.9442 40.8043C50.9446 40.8184 50.942 40.8324 50.9369 40.8455C50.9317 40.8586 50.9239 40.8704 50.9141 40.8804L50.8728 40.9216C50.8376 40.9568 50.8365 40.9926 50.8695 41.0289C51.3414 41.5437 51.7253 42.1151 52.0212 42.7432C52.1004 42.9126 52.1939 43.0969 52.3017 43.296C52.4073 43.4907 52.503 43.6914 52.5888 43.8982C52.6064 43.9411 52.6339 43.9752 52.6713 44.0005C52.7153 44.0313 52.734 44.0753 52.7274 44.1325C52.7197 44.1886 52.7373 44.2359 52.7802 44.2744C53.0574 44.5219 53.0838 44.8783 53.201 45.1176C53.3148 45.3502 53.4468 45.5928 53.526 45.837C53.8989 46.9733 54.0859 47.7075 54.087 48.0397C54.0881 48.6051 54.0881 49.1705 54.087 49.7359C54.087 50.0362 53.922 50.2672 53.9187 50.589C53.9176 50.6418 53.9017 50.6896 53.8709 50.7325C53.8423 50.7688 53.8313 50.8128 53.8379 50.8645C53.8445 50.914 53.8401 50.9624 53.8247 51.0097L53.5706 51.8017C53.5541 51.8501 53.5255 51.8897 53.4848 51.9205C53.4375 51.9568 53.4177 52.0074 53.4254 52.0723C53.4342 52.1339 53.4237 52.1922 53.394 52.2472C53.2191 52.569 53.0772 52.8891 52.8759 53.1943C52.706 53.4534 52.668 53.7141 52.4139 53.9847C52.2192 54.1909 52.1615 54.4252 51.9915 54.6529C51.7814 54.9334 51.5779 55.237 51.381 55.5637Z" fill="#45DFF8"/>
<path d="M57.1289 40.7765C57.1773 40.9437 57.2186 41.0988 57.2527 41.2418C57.2901 41.3958 57.3561 41.5405 57.4507 41.6758C57.7114 42.0454 57.9077 42.4216 58.0397 42.8044C58.2674 43.4633 58.5001 44.2498 58.7377 45.1639C58.7641 45.2629 58.7707 45.3932 58.7575 45.5549C58.741 45.7606 58.7927 45.8899 58.9126 45.9427C58.6321 46.5499 58.1706 46.9393 57.5282 47.1109C57.4721 47.1252 57.4402 47.1609 57.4325 47.2181C57.262 48.515 57.3137 49.785 57.5876 51.028C57.5194 51.3723 57.4397 51.7034 57.3484 52.0213C57.218 52.475 56.9441 52.9007 56.7494 53.3578C56.6834 53.5129 56.5481 53.569 56.4722 53.7439C56.3127 54.1102 56.0674 54.4919 55.7363 54.889C55.4173 55.2718 55.0862 55.8014 54.743 56.4779L54.2084 55.7305C54.1655 55.67 54.1391 55.6766 54.1292 55.7503L53.9923 56.7733C53.516 57.4542 53.0479 58.118 52.5881 58.7648C52.5073 58.8787 52.499 59.0288 52.4396 59.1179C52.125 59.592 51.8137 60.0689 51.5057 60.5485C51.4265 60.6722 51.2467 60.7729 51.2401 60.989C51.239 61.0429 51.2274 61.0946 51.2054 61.1441L50.6824 62.3684L50.0669 62.3618C50.0108 62.3618 49.9833 62.3332 49.9844 62.276C50.0009 61.8025 50.1709 61.2184 50.7038 61.1062C50.7599 61.0941 50.8034 61.0644 50.8342 61.0171C51.4216 60.1448 51.8165 59.2092 52.0189 58.2104C52.2477 57.9442 52.5463 57.5251 52.9148 56.9531C53.1436 56.5978 53.4758 56.2222 53.9114 55.8262C53.9499 55.791 53.9664 55.7481 53.9609 55.6975C53.951 55.6128 53.9807 55.5479 54.05 55.5028C54.0819 55.4808 54.1045 55.4516 54.1177 55.4153C54.1622 55.2899 54.2843 55.2173 54.3454 55.1216C54.4757 54.917 54.5549 54.6761 54.6787 54.4897C55.254 53.6163 55.7396 52.6956 56.1356 51.7276C56.6125 50.5643 56.8765 49.274 56.7692 48.0151C56.7428 47.7115 56.8204 47.426 56.7709 47.1323C56.7478 46.9937 56.7291 46.8557 56.7148 46.7182C56.6378 45.9845 56.4436 45.2827 56.1323 44.6128C56.1081 44.5611 56.0993 44.5066 56.1059 44.4494C56.1125 44.3955 56.1054 44.3427 56.0845 44.291L54.6902 40.9118C55.1973 40.7237 55.6764 40.6099 56.1274 40.5703C56.5003 40.5373 56.8341 40.606 57.1289 40.7765Z" fill="#84B4F1"/>
<path d="M57.1289 40.7765C58.9538 41.7648 59.434 44.1045 58.9126 45.9426C58.7927 45.8898 58.741 45.7606 58.7575 45.5549C58.7707 45.3932 58.7641 45.2628 58.7377 45.1638C58.5001 44.2497 58.2674 43.4632 58.0397 42.8043C57.9077 42.4215 57.7114 42.0453 57.4507 41.6757C57.3561 41.5404 57.2901 41.3958 57.2527 41.2418C57.2186 41.0988 57.1773 40.9437 57.1289 40.7765Z" fill="#94A8EF"/>
<path d="M54.6895 40.9119L56.0837 44.2911C56.1046 44.3428 56.1118 44.3956 56.1052 44.4495C56.0986 44.5067 56.1074 44.5611 56.1316 44.6128C56.4429 45.2827 56.637 45.9845 56.714 46.7182C56.7283 46.8557 56.747 46.9938 56.7701 47.1324C56.8196 47.4261 56.7421 47.7115 56.7685 48.0151C56.8757 49.2741 56.6117 50.5644 56.1349 51.7276C55.7389 52.6956 55.2532 53.6163 54.6779 54.4897C54.5542 54.6762 54.475 54.9171 54.3446 55.1217C54.2836 55.2174 54.1615 55.29 54.117 55.4154C54.1037 55.4517 54.0812 55.4808 54.0493 55.5028C53.98 55.5479 53.9503 55.6128 53.9602 55.6975C53.9657 55.7481 53.9492 55.791 53.9107 55.8262C53.4751 56.2222 53.1429 56.5979 52.9141 56.9532C52.5456 57.5252 52.247 57.9443 52.0182 58.2105L52 57.0901C52.5412 56.4488 53.0461 55.802 53.5147 55.1497C53.5724 55.0689 53.6021 54.9105 53.7143 54.823C53.7572 54.79 53.7908 54.7493 53.815 54.7009L54.0361 54.2488C54.0625 54.1949 54.101 54.1509 54.1516 54.1168C54.3452 53.9859 54.4711 53.8017 54.5294 53.5641C54.5438 53.5102 54.5696 53.4629 54.607 53.4222C54.8589 53.1472 55.0217 52.8243 55.0954 52.4536C55.1031 52.4173 55.13 52.3772 55.1762 52.3332C55.2114 52.2991 55.234 52.2578 55.2439 52.2094C55.2917 51.9735 55.4386 51.8002 55.4947 51.5989C55.6212 51.1512 55.7444 50.703 55.8643 50.2542C56.0194 49.6701 56.0012 49.0629 56.0689 48.4524C56.1019 48.1554 55.9814 47.8287 55.9897 47.5152C56.0007 47.0983 55.9567 46.7094 55.8577 46.3486C55.41 44.7239 55.0508 43.6591 54.7802 43.1542C54.5866 42.7934 54.4145 42.4233 54.2638 42.0438C54.2231 41.9404 54.1301 41.788 53.9849 41.5867C53.8507 41.4008 53.8095 41.2155 53.8612 41.0307L54.6895 40.9119Z" fill="#74BEF3"/>
<path d="M57.5887 51.0278L57.8428 51.635C57.8412 52.1828 57.8511 52.6613 57.7735 53.2322C57.7273 53.5672 57.8362 54.0143 57.6432 54.3196C57.5134 54.5231 57.4325 54.6666 57.4006 54.7502C57.1944 55.2848 56.6812 55.7171 56.3397 56.1692C56.0669 56.5289 55.7963 56.8952 55.5279 57.2681L54.7441 56.4778C55.0873 55.8013 55.4184 55.2716 55.7374 54.8888C56.0685 54.4917 56.3138 54.11 56.4733 53.7437C56.5492 53.5688 56.6845 53.5127 56.7505 53.3576C56.9452 52.9006 57.2191 52.4749 57.3495 52.0211C57.4408 51.7032 57.5205 51.3721 57.5887 51.0278Z" fill="#94A8EF"/>
<path d="M57.8399 51.635C57.8443 52.4435 57.8504 53.252 57.8581 54.0605C57.8603 54.3344 57.9142 54.6232 58.0198 54.9268C58.4603 56.1857 58.5973 57.3902 57.9026 58.5865C57.8751 58.6327 57.8641 58.6827 57.8696 58.7366C58.0181 60.0352 58.0528 61.4839 57.4852 62.6966C57.4724 62.7237 57.4523 62.7466 57.4272 62.7627C57.402 62.7787 57.373 62.7873 57.3433 62.7874L55.4606 62.7857C55.4449 62.7859 55.4295 62.7819 55.4159 62.7741C55.4023 62.7663 55.391 62.755 55.3831 62.7412C55.3752 62.7275 55.3711 62.7119 55.3711 62.6959C55.3711 62.68 55.3752 62.6643 55.3831 62.6504C55.5569 62.3424 55.7939 62.0944 56.0942 61.9063C56.1382 61.8777 56.1641 61.8375 56.1718 61.7858C56.3335 60.6721 56.515 58.9742 56.1784 57.8968C56.1619 57.844 56.1327 57.7994 56.0909 57.7631L55.525 57.2681C55.7934 56.8952 56.064 56.5289 56.3368 56.1692C56.6783 55.7171 57.1915 55.2848 57.3977 54.7502C57.4296 54.6666 57.5105 54.5231 57.6403 54.3196C57.8333 54.0143 57.7244 53.5672 57.7706 53.2322C57.8482 52.6613 57.8383 52.1828 57.8399 51.635Z" fill="#B890EB"/>
<path d="M53.9935 56.7729C53.7905 58.1606 53.2477 59.672 52.1785 60.6109C52.1479 60.6378 52.1236 60.671 52.1071 60.7083C52.0905 60.7456 52.0823 60.7861 52.0828 60.827L52.0927 62.2724C52.0927 62.3318 52.0635 62.3615 52.0052 62.3615L50.6836 62.3681L51.2066 61.1438C51.2286 61.0943 51.2402 61.0426 51.2413 60.9887C51.2479 60.7726 51.4277 60.6719 51.5069 60.5482C51.8149 60.0686 52.1262 59.5917 52.4408 59.1176C52.5002 59.0285 52.5085 58.8784 52.5893 58.7645C53.0491 58.1177 53.5172 57.4538 53.9935 56.7729Z" fill="#94A8EF"/>
<g opacity="0.4" filter="url(#filter0_f_1326_8583)">
<circle cx="87.9996" cy="-2.28882e-05" r="26.4" fill="#2F6FF0"/>
</g>
</g>
<defs>
<filter id="filter0_f_1326_8583" x="8.79961" y="-79.2" width="158.401" height="158.4" filterUnits="userSpaceOnUse" color-interpolation-filters="sRGB">
<feFlood flood-opacity="0" result="BackgroundImageFix"/>
<feBlend mode="normal" in="SourceGraphic" in2="BackgroundImageFix" result="shape"/>
<feGaussianBlur stdDeviation="26.4" result="effect1_foregroundBlur_1326_8583"/>
</filter>
<linearGradient id="paint0_linear_1326_8583" x1="44" y1="0" x2="44" y2="88" gradientUnits="userSpaceOnUse">
<stop stop-color="#161E33"/>
<stop offset="1" stop-color="#0E1424"/>
</linearGradient>
<clipPath id="clip0_1326_8583">
<rect width="88" height="88" rx="8.8" fill="white"/>
</clipPath>
</defs>
</svg>
