<svg width="88" height="88" viewBox="0 0 88 88" fill="none" xmlns="http://www.w3.org/2000/svg">
<g clip-path="url(#clip0_1326_8566)">
<rect width="88" height="88" rx="8.8" fill="url(#paint0_linear_1326_8566)"/>
<path d="M33.4412 42.4542C33.4412 43.0498 33.5056 43.5328 33.6183 43.8869C33.7471 44.2411 33.9081 44.6274 34.1334 45.0459C34.2139 45.1747 34.2461 45.3035 34.2461 45.4162C34.2461 45.5771 34.1495 45.7381 33.9402 45.8991L32.9261 46.5752C32.7812 46.6718 32.6363 46.7201 32.5076 46.7201C32.3466 46.7201 32.1856 46.6396 32.0246 46.4947C31.7993 46.2532 31.6061 45.9957 31.4451 45.7381C31.2842 45.4645 31.1232 45.1586 30.9461 44.7884C29.6905 46.2693 28.113 47.0098 26.2134 47.0098C24.8613 47.0098 23.7827 46.6235 22.9939 45.8508C22.2052 45.0781 21.8027 44.0479 21.8027 42.7601C21.8027 41.3918 22.2857 40.2811 23.2676 39.444C24.2496 38.6069 25.5535 38.1884 27.2115 38.1884C27.7588 38.1884 28.3222 38.2367 28.9178 38.3172C29.5134 38.3977 30.1251 38.5264 30.769 38.6713V37.4962C30.769 36.2728 30.5115 35.4196 30.0125 34.9206C29.4973 34.4216 28.6281 34.1801 27.3886 34.1801C26.8252 34.1801 26.2456 34.2445 25.65 34.3894C25.0544 34.5343 24.4749 34.7113 23.9115 34.9367C23.6539 35.0494 23.4608 35.1138 23.3481 35.146C23.2354 35.1782 23.1549 35.1943 23.0905 35.1943C22.8652 35.1943 22.7525 35.0333 22.7525 34.6952V33.9065C22.7525 33.6489 22.7847 33.4557 22.8652 33.343C22.9457 33.2304 23.0905 33.1177 23.3159 33.005C23.8793 32.7152 24.5554 32.4738 25.3442 32.2806C26.133 32.0713 26.97 31.9748 27.8554 31.9748C29.771 31.9748 31.1715 32.4094 32.0729 33.2787C32.9583 34.1479 33.409 35.4679 33.409 37.2386V42.4542H33.4412ZM26.9056 44.901C27.4369 44.901 27.9842 44.8045 28.5637 44.6113C29.1432 44.4181 29.6583 44.064 30.0929 43.5811C30.3505 43.2752 30.5437 42.9372 30.6403 42.5508C30.7368 42.1645 30.8012 41.6976 30.8012 41.1503V40.4742C30.3344 40.3616 29.8354 40.265 29.3203 40.2006C28.8051 40.1362 28.3061 40.104 27.8071 40.104C26.7286 40.104 25.9398 40.3133 25.4086 40.7479C24.8774 41.1825 24.6198 41.7942 24.6198 42.5991C24.6198 43.3557 24.813 43.9191 25.2154 44.3054C25.6017 44.7079 26.1652 44.901 26.9056 44.901ZM39.8319 46.6396C39.5422 46.6396 39.349 46.5913 39.2202 46.4786C39.0914 46.382 38.9788 46.1567 38.8822 45.8508L35.0993 33.4074C35.0027 33.0855 34.9544 32.8762 34.9544 32.7635C34.9544 32.506 35.0832 32.3611 35.3407 32.3611H36.9183C37.2241 32.3611 37.4334 32.4094 37.5461 32.5221C37.6749 32.6187 37.7715 32.844 37.868 33.1499L40.5724 43.8064L43.0836 33.1499C43.1641 32.8279 43.2607 32.6187 43.3895 32.5221C43.5183 32.4255 43.7436 32.3611 44.0334 32.3611H45.3212C45.627 32.3611 45.8363 32.4094 45.9651 32.5221C46.0939 32.6187 46.2065 32.844 46.2709 33.1499L48.8143 43.9352L51.5992 33.1499C51.6958 32.8279 51.8085 32.6187 51.9211 32.5221C52.0499 32.4255 52.2592 32.3611 52.549 32.3611H54.046C54.3036 32.3611 54.4485 32.4899 54.4485 32.7635C54.4485 32.844 54.4324 32.9245 54.4163 33.0211C54.4002 33.1177 54.368 33.2465 54.3036 33.4235L50.4241 45.8669C50.3275 46.1888 50.2148 46.3981 50.086 46.4947C49.9573 46.5913 49.748 46.6557 49.4743 46.6557H48.0899C47.7841 46.6557 47.5748 46.6074 47.446 46.4947C47.3173 46.382 47.2046 46.1728 47.1402 45.8508L44.6451 35.4679L42.1661 45.8347C42.0856 46.1567 41.989 46.3659 41.8602 46.4786C41.7314 46.5913 41.5061 46.6396 41.2163 46.6396H39.8319ZM60.5172 47.0742C59.6801 47.0742 58.8431 46.9776 58.0382 46.7845C57.2333 46.5913 56.6055 46.382 56.187 46.1406C55.9294 45.9957 55.7523 45.8347 55.688 45.6898C55.6236 45.5449 55.5914 45.384 55.5914 45.2391V44.4181C55.5914 44.0801 55.7202 43.9191 55.9616 43.9191C56.0582 43.9191 56.1548 43.9352 56.2514 43.9674C56.348 43.9996 56.4928 44.064 56.6538 44.1284C57.2011 44.3698 57.7967 44.563 58.4245 44.6918C59.0684 44.8206 59.6962 44.885 60.3401 44.885C61.3543 44.885 62.1431 44.7079 62.6904 44.3537C63.2377 43.9996 63.5274 43.4845 63.5274 42.8245C63.5274 42.3737 63.3826 42.0035 63.0928 41.6976C62.8031 41.3918 62.2557 41.1181 61.467 40.8606L59.1328 40.1362C57.9577 39.7659 57.0884 39.2186 56.5572 38.4942C56.026 37.786 55.7523 36.9972 55.7523 36.1601C55.7523 35.484 55.8972 34.8884 56.187 34.3733C56.4767 33.8582 56.8631 33.4074 57.346 33.0533C57.8289 32.6831 58.3762 32.4094 59.0201 32.2162C59.664 32.0231 60.3401 31.9426 61.0484 31.9426C61.4026 31.9426 61.7728 31.9587 62.127 32.007C62.4972 32.0552 62.8353 32.1196 63.1733 32.184C63.4952 32.2645 63.8011 32.345 64.0909 32.4416C64.3806 32.5382 64.606 32.6348 64.7669 32.7313C64.9923 32.8601 65.1533 32.9889 65.2499 33.1338C65.3465 33.2626 65.3947 33.4396 65.3947 33.665V34.4216C65.3947 34.7596 65.266 34.9367 65.0245 34.9367C64.8957 34.9367 64.6865 34.8723 64.4128 34.7435C63.4952 34.325 62.465 34.1157 61.3221 34.1157C60.4045 34.1157 59.6801 34.2606 59.1811 34.5665C58.6821 34.8723 58.4245 35.3391 58.4245 35.9991C58.4245 36.4499 58.5855 36.8362 58.9075 37.1421C59.2294 37.4479 59.825 37.7538 60.6782 38.0274L62.964 38.7518C64.123 39.122 64.9601 39.6372 65.4591 40.2972C65.9582 40.9572 66.1996 41.7137 66.1996 42.5508C66.1996 43.243 66.0547 43.8708 65.7811 44.4181C65.4913 44.9654 65.105 45.4484 64.606 45.8347C64.1069 46.2371 63.5113 46.5269 62.8191 46.7362C62.0948 46.9615 61.3382 47.0742 60.5172 47.0742Z" fill="#F0F3FA"/>
<path fill-rule="evenodd" clip-rule="evenodd" d="M63.5609 54.8976C58.2648 58.8093 50.5702 60.8859 43.9541 60.8859C34.682 60.8859 26.3274 57.4572 20.0172 51.7586C19.5181 51.3079 19.9689 50.6962 20.5645 51.0503C27.3898 55.0103 35.8088 57.4089 44.5175 57.4089C50.3931 57.4089 56.8482 56.1855 62.7882 53.6742C63.6736 53.2718 64.4301 54.2537 63.5609 54.8976Z" fill="#FF9900"/>
<path fill-rule="evenodd" clip-rule="evenodd" d="M65.7632 52.3864C65.0871 51.5171 61.2881 51.9679 59.5657 52.1771C59.0506 52.2415 58.9701 51.7908 59.4369 51.4528C62.4632 49.3279 67.4374 49.9396 68.0169 50.6479C68.5964 51.3723 67.8559 56.3464 65.0227 58.7288C64.5881 59.0991 64.1696 58.9059 64.3627 58.423C65.0066 56.8293 66.4393 53.2396 65.7632 52.3864Z" fill="#FF9900"/>
<g opacity="0.4" filter="url(#filter0_f_1326_8566)">
<circle cx="87.9996" cy="-2.28882e-05" r="26.4" fill="#2F6FF0"/>
</g>
</g>
<defs>
<filter id="filter0_f_1326_8566" x="8.79961" y="-79.2" width="158.401" height="158.4" filterUnits="userSpaceOnUse" color-interpolation-filters="sRGB">
<feFlood flood-opacity="0" result="BackgroundImageFix"/>
<feBlend mode="normal" in="SourceGraphic" in2="BackgroundImageFix" result="shape"/>
<feGaussianBlur stdDeviation="26.4" result="effect1_foregroundBlur_1326_8566"/>
</filter>
<linearGradient id="paint0_linear_1326_8566" x1="44" y1="0" x2="44" y2="88" gradientUnits="userSpaceOnUse">
<stop stop-color="#161E33"/>
<stop offset="1" stop-color="#0E1424"/>
</linearGradient>
<clipPath id="clip0_1326_8566">
<rect width="88" height="88" rx="8.8" fill="white"/>
</clipPath>
</defs>
</svg>
