<svg width="72" height="72" viewBox="0 0 72 72" fill="none" xmlns="http://www.w3.org/2000/svg">
<g clip-path="url(#clip0_657_2688)">
<rect width="72" height="72" rx="7.2" fill="url(#paint0_linear_657_2688)"/>
<path d="M48.6888 31.7172C49.5194 32.548 49.5194 33.8999 48.6888 34.7306L46.8281 36.5616L46.8092 36.4567C46.6733 35.7042 46.3156 35.0213 45.7757 34.4812C45.369 34.0753 44.8883 33.7752 44.3466 33.5894C44.0104 33.9274 43.8256 34.3703 43.8256 34.8364C43.8256 34.931 43.8342 35.0291 43.8514 35.1271C44.1497 35.2346 44.4137 35.4006 44.6355 35.6225C45.4661 36.4532 45.4661 37.8051 44.6355 38.6359L43.0156 40.2561C42.6003 40.6715 42.0552 40.8788 41.5092 40.8788C40.9632 40.8788 40.418 40.6715 40.0027 40.2561C39.1721 39.4254 39.1721 38.0735 40.0027 37.2427L41.8634 35.4126L41.8823 35.5175C42.0173 36.2683 42.375 36.9512 42.9167 37.4921C43.3243 37.8997 43.7757 38.1706 44.3165 38.3555L44.4163 38.2558C44.7189 37.9531 44.8849 37.5506 44.8849 37.1214C44.8849 37.026 44.8763 36.9305 44.8599 36.8368C44.5478 36.7336 44.2907 36.5865 44.0569 36.3526C43.7198 36.0155 43.51 35.5846 43.4515 35.1073C43.4472 35.0729 43.4447 35.0394 43.4412 35.005C43.3948 34.3832 43.6192 33.776 44.0569 33.3392L45.6768 31.7189C46.0783 31.3173 46.6131 31.0954 47.1832 31.0954C47.7533 31.0954 48.2881 31.3164 48.6896 31.7189L48.6888 31.7172ZM57.1479 36C57.1479 41.928 52.3259 46.75 46.3999 46.75H25.6005C19.6745 46.75 14.8525 41.928 14.8525 36C14.8525 30.072 19.6745 25.25 25.6005 25.25H46.3999C52.3259 25.25 57.1479 30.0729 57.1479 36ZM35.566 41.3913C35.7354 41.1858 34.9529 40.607 34.793 40.3946C34.468 40.042 34.4662 39.5346 34.247 39.1227C33.7105 37.8791 33.094 36.645 32.2315 35.5924C31.3201 34.4408 30.1954 33.4879 29.2075 32.4069C28.4741 31.6527 28.278 30.5786 27.6306 29.7676C26.738 28.4492 23.9161 28.0897 23.5025 29.9516C23.5042 30.0101 23.4861 30.0471 23.4354 30.0841C23.2067 30.25 23.0029 30.4401 22.8318 30.6697C22.4131 31.2528 22.3486 32.2418 22.8714 32.7655C22.8886 32.4895 22.898 32.2289 23.1164 32.0311C23.5205 32.3777 24.131 32.5007 24.5996 32.2418C25.6349 33.7201 25.3769 35.7652 26.1989 37.3579C26.4259 37.7346 26.6546 38.119 26.9461 38.4493C27.1826 38.8174 27.9994 39.2517 28.0476 39.5922C28.0562 40.177 27.9874 40.816 28.3709 41.3053C28.5514 41.6717 28.1078 42.0398 27.7501 41.9942C27.2858 42.0578 26.7191 41.682 26.3124 41.9134C26.1688 42.069 25.8877 41.897 25.7639 42.1129C25.7209 42.2247 25.4887 42.3821 25.6271 42.4896C25.781 42.3726 25.9238 42.2505 26.131 42.3201C26.1 42.4887 26.2333 42.5128 26.3391 42.5618C26.3356 42.6762 26.2686 42.7931 26.3563 42.8903C26.4586 42.7871 26.5196 42.6409 26.6822 42.5979C27.2221 43.3177 27.7716 41.8695 28.9401 42.5214C28.7028 42.5093 28.4921 42.5394 28.3322 42.7347C28.2926 42.7785 28.2591 42.8301 28.3287 42.8869C28.959 42.4801 28.9556 43.0262 29.3648 42.8585C29.6795 42.6942 29.9925 42.4887 30.3666 42.5472C30.0028 42.6521 29.9882 42.9445 29.775 43.1913C29.7389 43.2292 29.7217 43.2722 29.7638 43.3349C30.5187 43.2713 30.5807 43.0202 31.1903 42.7123C31.6451 42.4345 32.0983 43.1079 32.4921 42.7243C32.5789 42.6409 32.6976 42.6693 32.805 42.6581C32.6675 41.9245 31.155 42.7923 31.1791 41.8084C31.6658 41.4773 31.554 40.8435 31.5867 40.3318C32.1464 40.6423 32.7689 40.8229 33.3175 41.1196C33.5944 41.5668 34.0286 42.1576 34.6073 42.1189C34.6227 42.0742 34.6365 42.0346 34.6528 41.989C34.8282 42.0191 35.0535 42.1352 35.1498 41.9134C35.4121 42.1877 35.7973 42.1739 36.1403 42.1034C36.394 41.897 35.6631 41.6029 35.5651 41.3905L35.566 41.3913ZM50.9235 33.2239C50.9235 32.2229 50.5349 31.2829 49.8289 30.5768C49.123 29.8708 48.1832 29.4821 47.1815 29.4821C46.1798 29.4821 45.24 29.8708 44.5341 30.5768L42.9141 32.1971C42.5358 32.5755 42.2486 33.0201 42.0603 33.518L42.0491 33.5464L42.0199 33.555C41.4318 33.7365 40.9133 34.0478 40.4791 34.4821L38.8591 36.1023C37.4 37.5626 37.4 39.9379 38.8591 41.3974C39.5651 42.1034 40.5049 42.4921 41.5057 42.4921C42.5066 42.4921 43.4472 42.1034 44.1532 41.3974L45.7731 39.7771C46.1497 39.4004 46.4352 38.9575 46.6235 38.4605L46.6346 38.4321L46.6639 38.4226C47.2417 38.2455 47.7748 37.9238 48.2073 37.4921L49.8272 35.8719C50.5331 35.1658 50.9218 34.2258 50.9218 33.2239H50.9235ZM29.6744 40.1796C29.5351 40.7231 29.4895 41.6493 28.7827 41.676C28.7243 41.9899 29.0003 42.1077 29.2505 42.0071C29.499 41.8927 29.6168 42.0974 29.7002 42.3012C30.0837 42.3571 30.6512 42.1731 30.6727 41.719C30.1 41.3888 29.9229 40.761 29.6735 40.1796H29.6744Z" fill="white"/>
<g opacity="0.4" filter="url(#filter0_f_657_2688)">
<circle cx="72.0004" cy="-9.72748e-05" r="21.6" fill="#2F6FF0"/>
</g>
</g>
<defs>
<filter id="filter0_f_657_2688" x="7.20039" y="-64.8001" width="129.6" height="129.6" filterUnits="userSpaceOnUse" color-interpolation-filters="sRGB">
<feFlood flood-opacity="0" result="BackgroundImageFix"/>
<feBlend mode="normal" in="SourceGraphic" in2="BackgroundImageFix" result="shape"/>
<feGaussianBlur stdDeviation="21.6" result="effect1_foregroundBlur_657_2688"/>
</filter>
<linearGradient id="paint0_linear_657_2688" x1="36" y1="0" x2="36" y2="72" gradientUnits="userSpaceOnUse">
<stop stop-color="#28324D"/>
<stop offset="1" stop-color="#141B2E"/>
</linearGradient>
<clipPath id="clip0_657_2688">
<rect width="72" height="72" rx="7.2" fill="white"/>
</clipPath>
</defs>
</svg>
