<?xml version="1.0" encoding="UTF-8" standalone="no"?>
<svg
   xmlns:dc="http://purl.org/dc/elements/1.1/"
   xmlns:cc="http://creativecommons.org/ns#"
   xmlns:rdf="http://www.w3.org/1999/02/22-rdf-syntax-ns#"
   xmlns:svg="http://www.w3.org/2000/svg"
   xmlns="http://www.w3.org/2000/svg"
   xmlns:sodipodi="http://sodipodi.sourceforge.net/DTD/sodipodi-0.dtd"
   xmlns:inkscape="http://www.inkscape.org/namespaces/inkscape"
   id="Layer_1"
   enable-background="new 0 0 511.765 511.765"
   height="512"
   viewBox="0 0 511.765 511.765"
   width="512"
   version="1.1"
   sodipodi:docname="global-network.svg"
   inkscape:version="1.0.2 (e86c870879, 2021-01-15)">
  <metadata
     id="metadata9">
    <rdf:RDF>
      <cc:Work
         rdf:about="">
        <dc:format>image/svg+xml</dc:format>
        <dc:type
           rdf:resource="http://purl.org/dc/dcmitype/StillImage" />
      </cc:Work>
    </rdf:RDF>
  </metadata>
  <defs
     id="defs7" />
  <sodipodi:namedview
     pagecolor="#ffffff"
     bordercolor="#666666"
     borderopacity="1"
     objecttolerance="10"
     gridtolerance="10"
     guidetolerance="10"
     inkscape:pageopacity="0"
     inkscape:pageshadow="2"
     inkscape:window-width="960"
     inkscape:window-height="1053"
     id="namedview5"
     showgrid="false"
     inkscape:zoom="1.6835938"
     inkscape:cx="256"
     inkscape:cy="256"
     inkscape:window-x="960"
     inkscape:window-y="27"
     inkscape:window-maximized="0"
     inkscape:current-layer="Layer_1" />
  <path
     d="m491.945 353.116c.15-.305.283-.617.389-.937 30.321-69.981 24.903-155.775-14.478-221.349 21.024-25.133-6.285-61.125-36.149-47.199-5.248-5.363-10.758-10.503-16.468-15.363 11.208-30.468-26.198-55.462-49.494-32.698-67.711-34.191-151.928-33.758-219.265 1.157-23.954-25.385-64.183 1.833-49.68 33.683-8.306 7.263-16.168 15.109-23.417 23.406-6.259 7.164 5.08 16.983 11.296 9.869 6.744-7.718 14.051-15.019 21.769-21.785 14.925 10.765 36.566 5.281 44.754-11.151 27.021 7.778 52.825 18.941 76.87 33.268-2.013 7.259-1.191 15.366 2.263 22.067-19.79 17.095-37.612 36.433-53.088 57.626-14.287-4.317-30.035 2.909-36.248 16.439-31.507.169-63.112 3.558-94.142 10.117-2.74-5.106-6.894-9.337-11.93-12.171 5.83-22.735 15.064-44.362 27.502-64.359 4.956-7.97-7.554-16.255-12.737-7.923-13.224 21.26-23.046 44.251-29.258 68.419-35.93.61-41.962 50.316-7.757 59.878-.504 70.742 30.082 139.52 83.12 186.372-11.064 29.887 24.855 54.539 48.559 33.459 69.178 36.785 156.607 36.79 225.789.012 24.109 23.844 62.723-2.794 49.143-33.965 27.335-24.293 48.57-54.006 62.657-86.872zm-9.45-16.774c-20.761-20.626-43.481-39.337-67.738-55.762 3.445-10.791.451-22.932-7.594-30.898 20.398-33.915 36.411-70.281 47.683-108.27 3.756.013 7.367-.68 10.694-1.934 34.539 58.333 40.856 133.543 16.955 196.864zm-345.126 84.784c-6.312-61.825 4.764-123.504 32.177-179.243 17.03 5.314 35.437-5.885 38.744-23.366 51.715 6.375 101.522 21.558 148.264 45.203-2.248 8.738-.387 18.373 4.968 25.642-52.687 66.749-122.234 116.976-201.83 145.763-4.823-7.637-12.934-12.98-22.323-13.999zm233.227-149.806c0-8.499 6.864-15.413 15.301-15.413 20.298.845 20.292 29.984 0 30.826-8.437 0-15.301-6.914-15.301-15.413zm99.617-160.32c0 8.499-6.864 15.413-15.301 15.413-20.299-.845-20.294-29.984 0-30.826 8.437 0 15.301 6.914 15.301 15.413zm-39.967-17.632c-10.366 14.565-5.555 35.62 10.073 44.277-10.919 36.644-26.399 71.722-46.092 104.441-4.117-1.184-8.687-1.478-12.92-.83-20.584-43.955-50.535-83.546-87.123-115.17 3.457-6.705 4.281-14.798 2.265-22.067 23.159-13.798 47.966-24.672 73.907-32.402 8.622 16.646 31.751 21.346 46.11 8.885 4.759 4.094 9.366 8.395 13.78 12.866zm-178.287 18.793c0-8.499 6.864-15.413 15.301-15.413 20.299.845 20.293 29.983 0 30.825-8.437 0-15.301-6.914-15.301-15.412zm145.068-70.379c8.438 0 15.302 6.914 15.302 15.413-.842 20.447-29.764 20.442-30.603 0 0-8.499 6.864-15.413 15.301-15.413zm-262.94 30.825c-8.437 0-15.301-6.914-15.301-15.413.842-20.448 29.764-20.441 30.603 0 0 8.499-6.865 15.413-15.302 15.413zm30.273-16.563c-.078-2.082-.364-4.109-.84-6.065 62.783-32.467 141.216-33.033 204.483-1.51-.813 2.719-1.258 5.594-1.273 8.571-27.286 8.072-53.377 19.474-77.735 33.961-11.708-12.111-31.757-12.115-43.469-.001-25.383-15.098-52.63-26.834-81.166-34.956zm85.905 81.282c10.142 6.922 23.845 6.923 33.988.001 34.932 30.161 63.548 67.916 83.259 109.841-1.336 1.027-2.584 2.164-3.732 3.395-49.279-24.995-101.867-40.887-156.491-47.281-1.475-4.464-3.951-8.472-7.165-11.753 14.66-19.915 31.484-38.104 50.141-54.203zm-71.738 60.095c8.437 0 15.301 6.914 15.301 15.413-.842 20.448-29.764 20.442-30.603 0 .001-8.499 6.865-15.413 15.302-15.413zm-163.668 27.218c0-8.499 6.864-15.413 15.301-15.413 20.298.845 20.292 29.983 0 30.825-8.436.001-15.301-6.913-15.301-15.412zm22.817 29.465s22.781-4.968 22.781-29.267c0 0 58.456-9.344 87.867-9.672.552 7.266 3.655 13.823 8.414 18.771-29.228 58.801-41.017 123.993-34.231 189.321-2.922 1.218-5.612 2.883-7.99 4.907-48.931-43.834-76.841-117.278-76.841-174.06zm96.411 212.665c-8.437 0-15.301-6.914-15.301-15.413s6.864-15.413 15.301-15.413c8.324 0 15.302 7.21 15.302 15.413 0 8.499-6.865 15.413-15.302 15.413zm133.173 19.877c-36.401 0-72.397-8.718-104.569-25.269 1.306-3.743 1.882-8.007 1.628-11.979 82.338-29.679 154.289-81.546 208.795-150.513 4.478 2.1 9.447 3.064 14.384 2.805 3.332 12.367 5.965 24.984 7.831 37.6 1.429 9.658 16.272 7.5 14.839-2.194-1.981-13.396-4.786-26.794-8.347-39.916 1.793-1.116 3.459-2.417 4.977-3.872 25.028 16.991 48.362 36.496 69.501 58.083-13.11 28.981-32.191 55.222-56.434 76.905-2.397-1.8-5.07-3.248-7.939-4.278 1.474-13.943 2.116-28.021 1.9-41.945-.152-9.798-15.151-9.568-14.998.232.208 13.384-.412 26.917-1.836 40.32-17.689 2.813-29.258 21.155-24.384 38.345-32.374 16.814-68.649 25.676-105.348 25.676zm134.49-18.573c-8.437 0-15.301-6.914-15.301-15.413.842-20.448 29.764-20.441 30.603 0 0 8.499-6.864 15.413-15.302 15.413z"
     id="path2"
     style="fill:#ffffff" />
</svg>
