<svg width="16" height="16" viewBox="0 0 16 16" fill="none" xmlns="http://www.w3.org/2000/svg">
<g clip-path="url(#clip0_3824_30220)">
<path fill-rule="evenodd" clip-rule="evenodd" d="M4.13025 2.14096C4.13025 1.03939 4.42608 0.440136 6.05944 0.154779C7.16834 -0.039286 8.59017 -0.0635441 9.91643 0.154779C10.964 0.327417 11.8456 1.10651 11.8456 2.14096V5.77523C11.8456 6.84114 10.9896 7.71427 9.91643 7.71427H6.05944C4.75042 7.71427 3.64718 8.82869 3.64718 10.0886V11.8323H2.321C1.19921 11.8323 0.546083 11.0246 0.271711 9.89451C-0.0983832 8.37627 -0.0826724 7.47169 0.271711 6.01765C0.578962 4.74919 1.56073 4.07991 2.68259 4.07991H7.98862V3.59475H4.13017V2.14088L4.13025 2.14096ZM11.8457 13.7712C11.8457 14.8728 10.8883 15.4307 9.91653 15.7089C8.45462 16.1285 7.28133 16.0643 6.05953 15.7089C5.03914 15.4122 4.13034 14.8057 4.13034 13.7712V10.1369C4.13034 9.091 5.00351 8.1979 6.05953 8.1979H9.91653C11.2013 8.1979 12.3288 7.0893 12.3288 5.77507V4.07991H13.775C14.8982 4.07991 15.427 4.91318 15.7042 6.01765C16.09 7.55158 16.1071 8.69875 15.7042 9.89451C15.3141 11.056 14.8968 11.8323 13.775 11.8323H7.98872V12.3174H11.8457V13.7712ZM5.818 1.17282C5.41778 1.17282 5.09482 1.49821 5.09482 1.90057C5.09482 2.30156 5.41794 2.62686 5.818 2.62686C6.21677 2.62686 6.54118 2.30164 6.54118 1.90057C6.54118 1.49813 6.21668 1.17282 5.818 1.17282ZM10.1579 13.287C9.75914 13.287 9.43472 13.6122 9.43472 14.0133C9.43472 14.4158 9.75922 14.7411 10.1579 14.7411C10.5581 14.7411 10.8811 14.4157 10.8811 14.0133C10.8811 13.6123 10.558 13.287 10.1579 13.287Z" fill="#D4D9E6"/>
</g>
<defs>
<clipPath id="clip0_3824_30220">
<rect width="16" height="16" fill="white"/>
</clipPath>
</defs>
</svg>
