<svg width="16" height="16" viewBox="0 0 16 16" fill="none" xmlns="http://www.w3.org/2000/svg">
<g clip-path="url(#clip0_3824_30170)">
<path d="M7.499 1.8845C7.499 1.82206 7.5113 1.76022 7.53519 1.70253C7.55909 1.64484 7.59412 1.59242 7.63827 1.54827C7.68242 1.50412 7.73484 1.46909 7.79253 1.4452C7.85022 1.4213 7.91206 1.409 7.9745 1.409C8.03694 1.409 8.09877 1.4213 8.15647 1.4452C8.21416 1.46909 8.26657 1.50412 8.31073 1.54827C8.35488 1.59242 8.38991 1.64484 8.4138 1.70253C8.4377 1.76022 8.45 1.82206 8.45 1.8845C8.45 2.01061 8.3999 2.13156 8.31073 2.22073C8.22155 2.3099 8.10061 2.36 7.9745 2.36C7.84839 2.36 7.72744 2.3099 7.63827 2.22073C7.5491 2.13156 7.499 2.01061 7.499 1.8845ZM1.826 6.1895C1.826 6.12706 1.8383 6.06522 1.8622 6.00753C1.88609 5.94984 1.92112 5.89742 1.96527 5.85327C2.00942 5.80912 2.06184 5.77409 2.11953 5.7502C2.17722 5.7263 2.23906 5.714 2.3015 5.714C2.36394 5.714 2.42578 5.7263 2.48347 5.7502C2.54116 5.77409 2.59357 5.80912 2.63773 5.85327C2.68188 5.89742 2.71691 5.94984 2.7408 6.00753C2.7647 6.06522 2.777 6.12706 2.777 6.1895C2.777 6.31561 2.7269 6.43656 2.63773 6.52573C2.54856 6.6149 2.42761 6.665 2.3015 6.665C2.17539 6.665 2.05444 6.6149 1.96527 6.52573C1.8761 6.43656 1.826 6.31561 1.826 6.1895ZM13.172 6.2115C13.172 6.08539 13.2221 5.96444 13.3113 5.87527C13.4004 5.7861 13.5214 5.736 13.6475 5.736C13.7736 5.736 13.8946 5.7861 13.9837 5.87527C14.0729 5.96444 14.123 6.08539 14.123 6.2115C14.123 6.33761 14.0729 6.45856 13.9837 6.54773C13.8946 6.6369 13.7736 6.687 13.6475 6.687C13.5214 6.687 13.4004 6.6369 13.3113 6.54773C13.2221 6.45856 13.172 6.33761 13.172 6.2115ZM3.202 6.8645C3.30707 6.81758 3.38926 6.73093 3.43059 6.62354C3.47192 6.51615 3.46901 6.39675 3.4225 6.2915L3.2115 5.8145H4.0415V9.5545H2.367C2.16039 8.82867 2.09604 8.06975 2.1775 7.3195L3.202 6.8645ZM6.673 6.9565V5.854H8.649C8.751 5.854 9.369 5.972 9.369 6.434C9.369 6.818 8.894 6.956 8.504 6.956L6.673 6.9565ZM3.975 12.892C3.975 12.8296 3.9873 12.7677 4.01119 12.71C4.03509 12.6523 4.07012 12.5999 4.11427 12.5558C4.15842 12.5116 4.21084 12.4766 4.26853 12.4527C4.32622 12.4288 4.38806 12.4165 4.4505 12.4165C4.51294 12.4165 4.57478 12.4288 4.63247 12.4527C4.69016 12.4766 4.74257 12.5116 4.78673 12.5558C4.83088 12.5999 4.86591 12.6523 4.8898 12.71C4.9137 12.7677 4.926 12.8296 4.926 12.892C4.926 13.0181 4.8759 13.1391 4.78673 13.2282C4.69756 13.3174 4.57661 13.3675 4.4505 13.3675C4.32439 13.3675 4.20344 13.3174 4.11427 13.2282C4.0251 13.1391 3.975 13.0181 3.975 12.892ZM11.0215 12.914C11.0215 12.7879 11.0716 12.6669 11.1608 12.5778C11.2499 12.4886 11.3709 12.4385 11.497 12.4385C11.6231 12.4385 11.7441 12.4886 11.8332 12.5778C11.9224 12.6669 11.9725 12.7879 11.9725 12.914C11.9725 13.0401 11.9224 13.1611 11.8332 13.2502C11.7441 13.3394 11.6231 13.3895 11.497 13.3895C11.3709 13.3895 11.2499 13.3394 11.1608 13.2502C11.0716 13.1611 11.0215 13.0401 11.0215 12.914ZM11.1685 11.8355C10.9335 11.7855 10.7035 11.9345 10.6535 12.169L10.415 13.283C9.64741 13.6307 8.81382 13.8085 7.97118 13.8045C7.12854 13.8004 6.29671 13.6145 5.5325 13.2595L5.294 12.1455C5.244 11.9105 5.014 11.7615 4.779 11.812L3.7955 12.023C3.61276 11.8348 3.44288 11.6345 3.287 11.4235H8.072C8.126 11.4235 8.162 11.4135 8.162 11.3645V9.672C8.162 9.622 8.126 9.613 8.072 9.613H6.672V8.54H8.1855C8.3235 8.54 8.924 8.58 9.1165 9.347L9.399 10.597C9.489 10.872 9.8555 11.4235 10.2455 11.4235H12.7155C12.5497 11.6452 12.3684 11.8549 12.173 12.051L11.1685 11.8355ZM13.8255 7.3665C13.8591 7.70433 13.8633 8.04445 13.838 8.383H13.238C13.178 8.383 13.153 8.423 13.153 8.4815V8.7575C13.153 9.4075 12.787 9.5475 12.466 9.584C12.161 9.619 11.821 9.456 11.78 9.269C11.6 8.255 11.3 8.039 10.83 7.664C11.4185 7.29 12.031 6.739 12.031 6.0005C12.031 5.2035 11.4845 4.7015 11.112 4.4555C10.5895 4.1105 10.011 4.042 9.855 4.042H3.6375C4.49633 3.08238 5.64759 2.43267 6.913 2.1935L7.6455 2.962C7.8105 3.1355 8.0855 3.142 8.2585 2.976L9.0785 2.1925C9.91377 2.3489 10.705 2.68524 11.3972 3.17818C12.0894 3.67111 12.666 4.30881 13.087 5.047L12.526 6.314C12.4795 6.41925 12.4766 6.53865 12.5179 6.64604C12.5592 6.75343 12.6414 6.84008 12.7465 6.887L13.8255 7.3665ZM15.2245 7.3865L15.2055 7.1905L15.7835 6.6515C15.901 6.5415 15.857 6.3215 15.707 6.2655L14.9685 5.9895L14.9105 5.7995L15.3705 5.1595C15.4645 5.0295 15.378 4.822 15.2205 4.796L14.4415 4.6695L14.348 4.4945L14.6755 3.776C14.7425 3.6295 14.618 3.4425 14.457 3.4485L13.667 3.476L13.542 3.3245L13.7235 2.5545C13.76 2.398 13.6015 2.2395 13.445 2.276L12.675 2.4575L12.523 2.3325L12.5505 1.5425C12.5565 1.3825 12.3695 1.2575 12.2235 1.324L11.5055 1.6515L11.3305 1.5575L11.2035 0.7785C11.1785 0.6205 10.97 0.5345 10.84 0.6285L10.2 1.0885L10.01 1.031L9.734 0.2925C9.678 0.1425 9.4575 0.0985 9.348 0.2155L8.809 0.7935L8.613 0.7745L8.197 0.102C8.113 -0.034 7.887 -0.034 7.8035 0.102L7.3875 0.7745L7.1915 0.7935L6.6515 0.2145C6.5415 0.0975 6.3215 0.141 6.2655 0.2915L5.9895 1.03L5.7995 1.0875L5.1595 0.6275C5.0295 0.5335 4.8215 0.62 4.796 0.7775L4.669 1.5565L4.494 1.6505L3.776 1.323C3.63 1.2565 3.4425 1.3815 3.449 1.5415L3.4765 2.3315L3.3245 2.4565L2.5545 2.275C2.398 2.2385 2.2395 2.397 2.276 2.5535L2.4575 3.3235L2.3325 3.475L1.5425 3.4475C1.3825 3.4425 1.2575 3.6285 1.324 3.775L1.6515 4.4935L1.5575 4.6685L0.7785 4.795C0.6205 4.82 0.5345 5.0285 0.6285 5.1585L1.0885 5.7985L1.0305 5.9885L0.292 6.2645C0.142 6.3205 0.098 6.541 0.2155 6.6505L0.7935 7.1895L0.7745 7.3855L0.102 7.8015C-0.034 7.8855 -0.034 8.1115 0.102 8.195L0.7745 8.611L0.7935 8.807L0.214 9.348C0.097 9.458 0.1405 9.678 0.2905 9.734L1.029 10.01L1.087 10.2L0.627 10.84C0.5335 10.97 0.6195 11.178 0.777 11.2035L1.5555 11.33L1.6495 11.505L1.322 12.223C1.2555 12.369 1.381 12.5565 1.5405 12.5505L2.3305 12.523L2.4555 12.675L2.274 13.445C2.2375 13.601 2.396 13.76 2.5525 13.723L3.3225 13.5415L3.4745 13.6665L3.447 14.4565C3.441 14.6165 3.628 14.7415 3.774 14.675L4.492 14.3475L4.667 14.4415L4.794 15.22C4.819 15.3785 5.0275 15.464 5.1575 15.371L5.7975 14.91L5.9875 14.968L6.2635 15.7065C6.3195 15.8565 6.54 15.9005 6.6495 15.783L7.1885 15.205L7.3845 15.225L7.8005 15.8975C7.8845 16.0325 8.1095 16.0335 8.194 15.8975L8.61 15.225L8.806 15.205L9.345 15.783C9.455 15.9005 9.675 15.8565 9.731 15.7065L10.007 14.968L10.197 14.91L10.837 15.371C10.967 15.4645 11.175 15.3785 11.2005 15.22L11.3275 14.4415L11.5025 14.3475L12.2205 14.675C12.3665 14.7415 12.5535 14.617 12.5475 14.4565L12.52 13.6665L12.6715 13.5415L13.4415 13.723C13.598 13.7595 13.7565 13.601 13.72 13.445L13.5385 12.675L13.6635 12.523L14.4535 12.5505C14.6135 12.557 14.7385 12.369 14.672 12.223L14.3445 11.505L14.438 11.33L15.217 11.2035C15.3755 11.1785 15.462 10.9705 15.367 10.84L14.907 10.2L14.965 10.01L15.7035 9.734C15.8535 9.6775 15.8975 9.4575 15.78 9.348L15.202 8.809L15.221 8.613L15.8935 8.197C16.0295 8.113 16.03 7.888 15.8935 7.8035L15.2245 7.3865Z" fill="#D4D9E6"/>
</g>
<defs>
<clipPath id="clip0_3824_30170">
<rect width="16" height="16" fill="white"/>
</clipPath>
</defs>
</svg>
