<svg width="16" height="15" viewBox="0 0 16 15" fill="none" xmlns="http://www.w3.org/2000/svg">
<path d="M11.7113 6.76663C11.8245 6.82108 11.9507 6.84246 12.0755 6.82831C12.2003 6.81416 12.3186 6.76504 12.4167 6.68663L15.75 4.01996C15.8281 3.95751 15.8912 3.87828 15.9345 3.78815C15.9778 3.69802 16.0003 3.5993 16.0003 3.4993C16.0003 3.39929 15.9778 3.30057 15.9345 3.21044C15.8912 3.12031 15.8281 3.04108 15.75 2.97863L12.4167 0.311962C12.3186 0.233413 12.2002 0.184195 12.0754 0.169986C11.9505 0.155776 11.8242 0.177153 11.7109 0.231651C11.5977 0.286149 11.5021 0.371548 11.4353 0.477999C11.3685 0.58445 11.3332 0.707617 11.3333 0.833295V2.83329H8.62467C8.33202 2.83371 8.04304 2.89835 7.7781 3.02264C7.51316 3.14693 7.27872 3.32785 7.09133 3.55263L4.354 6.83329H0.666667C0.489856 6.83329 0.320286 6.90353 0.195262 7.02856C0.0702379 7.15358 0 7.32315 0 7.49996C0 7.67677 0.0702379 7.84634 0.195262 7.97137C0.320286 8.09639 0.489856 8.16663 0.666667 8.16663H4.354L7.08733 11.4473C7.27516 11.6726 7.51023 11.8538 7.77591 11.9781C8.04158 12.1024 8.33135 12.1668 8.62467 12.1666H11.3333V14.1666C11.3333 14.2922 11.3687 14.4153 11.4356 14.5217C11.5024 14.628 11.598 14.7133 11.7112 14.7678C11.8244 14.8222 11.9507 14.8435 12.0755 14.8293C12.2004 14.815 12.3186 14.7658 12.4167 14.6873L15.75 12.0206C15.8281 11.9582 15.8912 11.8789 15.9345 11.7888C15.9778 11.6987 16.0003 11.6 16.0003 11.5C16.0003 11.4 15.9778 11.3012 15.9345 11.2111C15.8912 11.121 15.8281 11.0418 15.75 10.9793L12.4167 8.31263C12.3186 8.23411 12.2004 8.18491 12.0755 8.17067C11.9507 8.15644 11.8244 8.17776 11.7112 8.23217C11.598 8.28659 11.5024 8.37189 11.4356 8.47824C11.3687 8.5846 11.3333 8.70767 11.3333 8.83329V10.8333H8.62467C8.52684 10.8334 8.4302 10.8119 8.3416 10.7704C8.253 10.7289 8.17461 10.6685 8.112 10.5933L5.53333 7.49996L8.11067 4.40663C8.17342 4.33129 8.25202 4.27071 8.34087 4.22923C8.42971 4.18775 8.52661 4.16637 8.62467 4.16663H11.3333V6.16663C11.3335 6.29207 11.3691 6.41492 11.4359 6.52106C11.5028 6.62719 11.5983 6.71231 11.7113 6.76663Z" fill="#2F6FF0"/>
</svg>
