<svg width="450" height="470" viewBox="0 0 450 470" fill="none" xmlns="http://www.w3.org/2000/svg">
<g clip-path="url(#clip0_2546_1576)">
<path opacity="0.2" d="M85.5051 269.352V293.202C85.5051 333.437 138.421 366.053 203.693 366.053C229.316 366.053 253.036 361.026 272.395 352.485V352.548L413.65 434.101C415.562 435.204 417.907 434.048 418.312 432.005L423.086 434.776L404.821 445.293C402.179 446.809 398.935 446.81 396.298 445.289L290.539 384.228C268.25 391.977 242.515 396.396 215.101 396.396C130.163 396.396 61.3086 353.952 61.3086 301.595C61.3086 275.418 78.5211 251.716 106.354 234.562" fill="#B2BFE8"/>
<path opacity="0.2" d="M418.31 419.855C417.905 421.898 415.561 423.054 413.648 421.952L272.393 340.398V340.335C253.034 348.876 229.315 353.903 203.692 353.903C138.419 353.903 85.5039 321.287 85.5039 281.052V257.202C85.5039 297.437 138.419 330.057 203.692 330.057C235.412 330.057 264.212 322.358 285.439 309.816L295.771 326.727L304.658 341.28L316.525 360.711L418.31 419.855Z" fill="#B2BFE8"/>
<path d="M201.068 245.758L217.129 236.488V255.033L201.068 264.33V245.758Z" fill="#B2BFE8"/>
<path d="M201.063 245.758L185.003 236.488V255.033L201.068 264.33L201.063 245.758Z" fill="#D9E2FF"/>
<path d="M217.128 236.488L201.068 227.214L185.003 236.488L201.063 245.758L217.128 236.488Z" fill="#EBF1FF"/>
<path d="M225.176 259.677L241.236 250.407V268.952L225.176 278.249V259.677Z" fill="#B2BFE8"/>
<path d="M225.171 259.677L209.11 250.407V268.952L225.175 278.249L225.171 259.677Z" fill="#D9E2FF"/>
<path d="M241.236 250.407L225.175 241.133L209.11 250.407L225.171 259.677L241.236 250.407Z" fill="#EBF1FF"/>
<path d="M249.282 273.596L265.343 264.326V282.87L249.282 292.167V273.596Z" fill="#B2BFE8"/>
<path d="M249.277 273.596L233.217 264.326V282.87L249.282 292.167L249.277 273.596Z" fill="#D9E2FF"/>
<path d="M265.342 264.326L249.282 255.051L233.217 264.326L249.277 273.596L265.342 264.326Z" fill="#EBF1FF"/>
<path d="M176.963 259.691L193.023 250.416V268.965L176.958 278.258L176.963 259.691Z" fill="#B2BFE8"/>
<path d="M176.958 259.691L160.897 250.416V268.965L176.962 278.258L176.958 259.691Z" fill="#D9E2FF"/>
<path d="M193.023 250.416L176.958 241.142L160.897 250.416L176.958 259.691L193.023 250.416Z" fill="#EBF1FF"/>
<path d="M201.068 273.609L217.129 264.334V282.883L201.068 292.176V273.609Z" fill="#B2BFE8"/>
<path d="M201.063 273.609L185.003 264.334V282.883L201.068 292.176L201.063 273.609Z" fill="#D9E2FF"/>
<path d="M217.128 264.334L201.068 255.064L185.003 264.334L201.063 273.608L217.128 264.334Z" fill="#EBF1FF"/>
<path d="M225.176 287.527L241.236 278.253V296.802L225.176 306.094V287.527Z" fill="#B2BFE8"/>
<path d="M225.171 287.527L209.11 278.253V296.802L225.175 306.094L225.171 287.527Z" fill="#D9E2FF"/>
<path d="M241.236 278.253L225.175 268.978L209.11 278.253L225.171 287.527L241.236 278.253Z" fill="#EBF1FF"/>
<path d="M152.853 273.609L168.913 264.334L168.918 282.879L152.853 292.176V273.609Z" fill="#B2BFE8"/>
<path d="M152.852 273.609L136.791 264.334V282.879L152.852 292.176V273.609Z" fill="#D9E2FF"/>
<path d="M168.912 264.335L152.852 255.06L136.791 264.335L152.852 273.609L168.912 264.335Z" fill="#EBF1FF"/>
<path d="M176.958 287.527L193.023 278.253V296.802L176.958 306.094V287.527Z" fill="#B2BFE8"/>
<path d="M176.958 287.527L160.897 278.253V296.802L176.958 306.094V287.527Z" fill="#D9E2FF"/>
<path d="M193.023 278.253L176.958 268.978L160.897 278.253L176.958 287.527L193.023 278.253Z" fill="#EBF1FF"/>
<path d="M201.063 301.446L217.128 292.171V310.716L201.063 320.013V301.446Z" fill="#B2BFE8"/>
<path d="M201.063 301.446L185.003 292.171V310.716L201.063 320.013V301.446Z" fill="#D9E2FF"/>
<path d="M217.128 292.171L201.063 282.897L185.003 292.171L201.063 301.446L217.128 292.171Z" fill="#EBF1FF"/>
<path d="M444.694 398.601C447.331 400.046 449.077 402.71 449.347 405.707L449.442 406.773L442.755 405.167L444.694 398.601Z" fill="#EBF1FF"/>
<path d="M413.653 434.097C413.653 434.097 416.358 435.775 418.27 435.775C420.052 435.775 422.761 434.299 422.761 434.299L418.378 430.902L413.653 434.097Z" fill="#B2BFE8"/>
<path d="M321.884 269.352V293.202C321.884 310.496 312.106 326.385 295.771 338.877C293.435 340.664 290.965 342.383 288.368 344.025C283.468 347.13 278.122 349.961 272.393 352.485C253.034 361.026 229.315 366.053 203.692 366.053C138.419 366.053 85.5039 333.437 85.5039 293.202V269.352C85.5039 309.587 138.419 342.207 203.692 342.207C235.412 342.207 264.212 334.508 285.439 321.966C307.898 308.709 321.884 290.034 321.884 269.352Z" fill="#B2BFE8"/>
<path d="M203.697 196.497C138.424 196.497 85.5088 229.113 85.5088 269.352C85.5088 309.591 138.424 342.207 203.697 342.207C268.969 342.207 321.885 309.591 321.885 269.352C321.885 229.113 268.969 196.497 203.697 196.497ZM203.697 334.778C145.075 334.778 97.5553 305.487 97.5553 269.352C97.5553 233.217 145.075 203.927 203.697 203.927C262.318 203.927 309.838 233.217 309.838 269.352C309.838 305.487 262.314 334.778 203.697 334.778Z" fill="#C91540"/>
<path d="M419.23 419.575L418.375 431.37C418.375 431.59 418.352 431.802 418.312 432.004C417.907 434.047 415.562 435.204 413.65 434.101L272.395 352.548V352.485L272.399 334.804L288.37 344.025L304.66 353.43L419.23 419.575Z" fill="#B2BFE8"/>
<path d="M303.471 317.061L272.398 334.805L419.229 419.576L434.281 410L444.685 404.06C446.796 402.854 446.805 399.812 444.699 398.597L303.471 317.061Z" fill="#EBF1FF"/>
<path d="M444.734 404.032L421.55 417.271C419.588 418.392 418.373 420.48 418.373 422.743V431.401C418.373 433.818 420.983 435.334 423.085 434.137L446.269 420.898C448.231 419.778 449.446 417.69 449.446 415.426V406.768C449.446 404.352 446.836 402.835 444.734 404.032Z" fill="#C91540"/>
<path opacity="0.24" d="M203.696 334.777C262.317 334.777 309.838 305.485 309.838 269.352C309.838 233.218 262.317 203.926 203.696 203.926C145.076 203.926 97.5547 233.218 97.5547 269.352C97.5547 305.485 145.076 334.777 203.696 334.777Z" fill="#C91540" stroke="white" stroke-width="0.45" stroke-miterlimit="10"/>
<path d="M201.068 219.11L217.129 209.836V228.38L201.068 237.677V219.11Z" fill="#B2BFE8"/>
<path d="M201.068 219.11L185.003 209.836V228.38L201.068 237.677V219.11Z" fill="#D9E2FF"/>
<path d="M217.128 209.836L201.068 200.561L185.003 209.836L201.068 219.11L217.128 209.836Z" fill="#EBF1FF"/>
<path d="M225.177 233.028L241.237 223.754V242.298L225.177 251.595V233.028Z" fill="#B2BFE8"/>
<path d="M225.177 233.028L209.116 223.754V242.298L225.177 251.595V233.028Z" fill="#D9E2FF"/>
<path d="M241.237 223.754L225.177 214.479L209.116 223.754L225.177 233.028L241.237 223.754Z" fill="#EBF1FF"/>
<path d="M249.282 246.942L265.343 237.672V256.216L249.282 265.513V246.942Z" fill="#B2BFE8"/>
<path d="M249.282 246.942L233.221 237.672L233.217 256.216L249.282 265.513V246.942Z" fill="#D9E2FF"/>
<path d="M265.343 237.672L249.282 228.397L233.222 237.672L249.282 246.942L265.343 237.672Z" fill="#EBF1FF"/>
<path d="M321.886 344.961L377.866 377.28" stroke="#C91540" stroke-width="0.45" stroke-miterlimit="10"/>
<path d="M176.963 233.037L193.023 223.763V242.312L176.963 251.609V233.037Z" fill="#B2BFE8"/>
<path d="M176.958 233.037L160.897 223.763V242.312L176.962 251.609L176.958 233.037Z" fill="#D9E2FF"/>
<path d="M193.023 223.762L176.962 214.492L160.897 223.762L176.958 233.037L193.023 223.762Z" fill="#EBF1FF"/>
<path d="M201.068 246.956L217.129 237.686V256.23L201.068 265.527V246.956Z" fill="#B2BFE8"/>
<path d="M201.068 246.956L185.007 237.686L185.003 256.23L201.068 265.527V246.956Z" fill="#D9E2FF"/>
<path d="M217.129 237.686L201.068 228.411L185.008 237.686L201.068 246.956L217.129 237.686Z" fill="#EBF1FF"/>
<path d="M225.176 260.874L241.236 251.599V270.148L225.176 279.445V260.874Z" fill="#B2BFE8"/>
<path d="M225.175 260.874L209.11 251.599V270.148L225.175 279.445V260.874Z" fill="#D9E2FF"/>
<path d="M241.236 251.6L225.175 242.33L209.11 251.6L225.175 260.874L241.236 251.6Z" fill="#EBF1FF"/>
<path d="M152.857 246.955L168.918 237.681V256.23L152.853 265.522L152.857 246.955Z" fill="#B2BFE8"/>
<path d="M152.852 246.955L136.791 237.681V256.23L152.852 265.522V246.955Z" fill="#D9E2FF"/>
<path d="M168.917 237.681L152.852 228.411L136.791 237.681L152.852 246.956L168.917 237.681Z" fill="#EBF1FF"/>
<path d="M176.963 260.874L193.023 251.599V270.148L176.958 279.445L176.963 260.874Z" fill="#B2BFE8"/>
<path d="M176.958 260.874L160.897 251.599V270.148L176.962 279.445L176.958 260.874Z" fill="#D9E2FF"/>
<path d="M193.023 251.599L176.958 242.329L160.897 251.599L176.958 260.874L193.023 251.599Z" fill="#EBF1FF"/>
<path d="M201.068 274.793L217.128 265.519V284.068L201.063 293.36L201.068 274.793Z" fill="#B2BFE8"/>
<path d="M201.063 274.793L185.003 265.519V284.068L201.063 293.36V274.793Z" fill="#D9E2FF"/>
<path d="M217.128 265.519L201.063 256.244L185.003 265.519L201.063 274.793L217.128 265.519Z" fill="#EBF1FF"/>
<path d="M201.068 191.277L217.129 182.003V200.552L201.068 209.849V191.277Z" fill="#B2BFE8"/>
<path d="M201.063 191.277L185.003 182.003V200.552L201.068 209.849L201.063 191.277Z" fill="#D9E2FF"/>
<path d="M217.128 182.002L201.068 172.732L185.003 182.002L201.063 191.277L217.128 182.002Z" fill="#EBF1FF"/>
<path d="M225.176 205.195L241.236 195.921V214.47L225.176 223.767V205.195Z" fill="#B2BFE8"/>
<path d="M225.171 205.195L209.11 195.921V214.47L225.175 223.767L225.171 205.195Z" fill="#D9E2FF"/>
<path d="M241.236 195.921L225.175 186.651L209.11 195.921L225.171 205.195L241.236 195.921Z" fill="#EBF1FF"/>
<path d="M249.282 219.114L265.343 209.84V228.389L249.282 237.681V219.114Z" fill="#B2BFE8"/>
<path d="M249.277 219.114L233.217 209.84V228.389L249.282 237.681L249.277 219.114Z" fill="#D9E2FF"/>
<path d="M265.342 209.839L249.282 200.569L233.217 209.839L249.277 219.114L265.342 209.839Z" fill="#EBF1FF"/>
<path d="M176.963 205.209L193.023 195.935V214.479L176.958 223.776L176.963 205.209Z" fill="#B2BFE8"/>
<path d="M176.958 205.209L160.897 195.935V214.479L176.962 223.776L176.958 205.209Z" fill="#D9E2FF"/>
<path d="M193.023 195.934L176.958 186.66L160.897 195.934L176.958 205.209L193.023 195.934Z" fill="#EBF1FF"/>
<path d="M201.068 219.128L217.129 209.854V228.398L201.068 237.695V219.128Z" fill="#B2BFE8"/>
<path d="M201.063 219.128L185.003 209.854V228.398L201.068 237.695L201.063 219.128Z" fill="#D9E2FF"/>
<path d="M217.128 209.853L201.068 200.579L185.003 209.853L201.063 219.128L217.128 209.853Z" fill="#EBF1FF"/>
<path d="M225.176 233.041L241.236 223.771V242.316L225.176 251.613V233.041Z" fill="#B2BFE8"/>
<path d="M225.171 233.041L209.11 223.771V242.316L225.175 251.613L225.171 233.041Z" fill="#D9E2FF"/>
<path d="M241.236 223.772L225.175 214.497L209.11 223.772L225.171 233.042L241.236 223.772Z" fill="#EBF1FF"/>
<path d="M152.853 219.123L168.913 209.853L168.918 228.398L152.853 237.695V219.123Z" fill="#B2BFE8"/>
<path d="M152.852 219.123L136.791 209.853V228.398L152.852 237.695V219.123Z" fill="#D9E2FF"/>
<path d="M168.912 209.853L152.852 200.578L136.791 209.853L152.852 219.123L168.912 209.853Z" fill="#EBF1FF"/>
<path d="M176.958 233.041L193.023 223.771V242.316L176.958 251.613V233.041Z" fill="#B2BFE8"/>
<path d="M176.958 233.041L160.897 223.771V242.316L176.958 251.613V233.041Z" fill="#D9E2FF"/>
<path d="M193.023 223.772L176.958 214.497L160.897 223.772L176.958 233.042L193.023 223.772Z" fill="#EBF1FF"/>
<path d="M201.063 246.96L217.128 237.69V256.234L201.063 265.531V246.96Z" fill="#B2BFE8"/>
<path d="M201.063 246.96L185.003 237.69V256.234L201.063 265.531V246.96Z" fill="#D9E2FF"/>
<path d="M217.128 237.69L201.063 228.416L185.003 237.69L201.063 246.96L217.128 237.69Z" fill="#EBF1FF"/>
<path d="M201.068 163.418L217.129 154.144V172.693L201.068 181.985V163.418Z" fill="#B2BFE8"/>
<path d="M201.063 163.418L185.003 154.144V172.693L201.068 181.985L201.063 163.418Z" fill="#D9E2FF"/>
<path d="M217.128 154.144L201.068 144.874L185.003 154.144L201.063 163.418L217.128 154.144Z" fill="#EBF1FF"/>
<path d="M225.176 177.337L241.236 168.062V186.611L225.176 195.908V177.337Z" fill="#B2BFE8"/>
<path d="M225.171 177.337L209.11 168.062V186.611L225.175 195.908L225.171 177.337Z" fill="#D9E2FF"/>
<path d="M241.236 168.062L225.175 158.792L209.11 168.062L225.171 177.336L241.236 168.062Z" fill="#EBF1FF"/>
<path d="M249.282 191.254L265.343 181.98V200.529L249.282 209.821V191.254Z" fill="#B2BFE8"/>
<path d="M249.277 191.254L233.217 181.98V200.529L249.282 209.821L249.277 191.254Z" fill="#D9E2FF"/>
<path d="M265.342 181.98L249.282 172.706L233.217 181.98L249.277 191.255L265.342 181.98Z" fill="#EBF1FF"/>
<path d="M176.963 177.345L193.023 168.075V186.62L176.958 195.917L176.963 177.345Z" fill="#B2BFE8"/>
<path d="M176.958 177.345L160.897 168.075V186.62L176.962 195.917L176.958 177.345Z" fill="#D9E2FF"/>
<path d="M193.023 168.075L176.958 158.8L160.897 168.075L176.958 177.345L193.023 168.075Z" fill="#EBF1FF"/>
<path d="M201.068 179.117L217.129 169.843V188.387L201.068 197.684V179.117Z" fill="#D6295B"/>
<path d="M201.063 179.117L185.003 169.843V188.387L201.068 197.684L201.063 179.117Z" fill="#DB3A70"/>
<path d="M217.128 169.843L201.068 160.568L185.003 169.843L201.063 179.117L217.128 169.843Z" fill="#C91540"/>
<path d="M225.176 205.182L241.236 195.912V214.456L225.176 223.753V205.182Z" fill="#B2BFE8"/>
<path d="M225.171 205.182L209.11 195.912V214.456L225.175 223.753L225.171 205.182Z" fill="#D9E2FF"/>
<path d="M241.236 195.912L225.175 186.638L209.11 195.912L225.171 205.182L241.236 195.912Z" fill="#EBF1FF"/>
<path d="M152.853 191.263L168.913 181.993L168.918 200.538L152.853 209.835V191.263Z" fill="#B2BFE8"/>
<path d="M152.852 191.263L136.791 181.993V200.538L152.852 209.835V191.263Z" fill="#D9E2FF"/>
<path d="M168.912 181.993L152.852 172.719L136.791 181.993L152.852 191.263L168.912 181.993Z" fill="#EBF1FF"/>
<path d="M176.958 205.182L193.023 195.912V214.456L176.958 223.753V205.182Z" fill="#B2BFE8"/>
<path d="M176.958 205.182L160.897 195.912V214.456L176.958 223.753V205.182Z" fill="#D9E2FF"/>
<path d="M193.023 195.912L176.958 186.637L160.897 195.912L176.958 205.182L193.023 195.912Z" fill="#EBF1FF"/>
<path d="M201.063 219.101L217.128 209.831V228.376L201.063 237.673V219.101Z" fill="#B2BFE8"/>
<path d="M201.063 219.101L185.003 209.831V228.376L201.063 237.673V219.101Z" fill="#D9E2FF"/>
<path d="M217.128 209.831L201.063 200.557L185.003 209.831L201.063 219.101L217.128 209.831Z" fill="#EBF1FF"/>
<path d="M353.746 130.936L369.807 121.662V140.211L353.746 149.503V130.936Z" fill="#B2BFE8"/>
<path d="M353.745 130.936L337.685 121.662V140.211L353.745 149.503V130.936Z" fill="#D9E2FF"/>
<path d="M369.806 121.662L353.745 112.392L337.685 121.662L353.745 130.937L369.806 121.662Z" fill="#EBF1FF"/>
<path d="M377.853 144.856L393.918 135.581V154.13L377.853 163.427V144.856Z" fill="#B2BFE8"/>
<path d="M377.852 144.856L361.791 135.581V154.13L377.852 163.427V144.856Z" fill="#D9E2FF"/>
<path d="M393.917 135.581L377.852 126.311L361.791 135.581L377.852 144.855L393.917 135.581Z" fill="#EBF1FF"/>
<path d="M401.958 158.774L418.019 149.499L418.023 168.048L401.958 177.341V158.774Z" fill="#B2BFE8"/>
<path d="M401.958 158.774L385.897 149.499V168.048L401.958 177.341V158.774Z" fill="#D9E2FF"/>
<path d="M418.018 149.499L401.958 140.229L385.897 149.499L401.958 158.774L418.018 149.499Z" fill="#EBF1FF"/>
<path d="M329.639 144.864L345.699 135.594V154.139L329.639 163.436V144.864Z" fill="#B2BFE8"/>
<path d="M329.639 144.864L313.578 135.594V154.139L329.639 163.436V144.864Z" fill="#D9E2FF"/>
<path d="M345.699 135.594L329.639 126.319L313.578 135.594L329.639 144.864L345.699 135.594Z" fill="#EBF1FF"/>
<path d="M353.751 158.76L369.811 149.49V168.034L353.746 177.331L353.751 158.76Z" fill="#B2BFE8"/>
<path d="M353.745 158.76L337.685 149.49V168.034L353.745 177.331V158.76Z" fill="#D9E2FF"/>
<path d="M369.81 149.49L353.745 140.215L337.685 149.49L353.745 158.76L369.81 149.49Z" fill="#EBF1FF"/>
<path d="M377.853 172.701L393.913 163.431V181.975L377.853 191.272V172.701Z" fill="#B2BFE8"/>
<path d="M377.852 172.701L361.791 163.431V181.975L377.852 191.272V172.701Z" fill="#D9E2FF"/>
<path d="M393.912 163.431L377.852 154.156L361.791 163.431L377.852 172.701L393.912 163.431Z" fill="#EBF1FF"/>
<path d="M305.532 158.783L321.593 149.513V168.057L305.532 177.354V158.783Z" fill="#B2BFE8"/>
<path d="M305.527 158.783L289.467 149.513V168.057L305.532 177.354L305.527 158.783Z" fill="#D9E2FF"/>
<path d="M321.592 149.512L305.532 140.238L289.467 149.512L305.527 158.782L321.592 149.512Z" fill="#EBF1FF"/>
<path d="M329.64 172.701L345.7 163.431V181.975L329.64 191.272V172.701Z" fill="#B2BFE8"/>
<path d="M329.639 172.701L313.574 163.431V181.975L329.639 191.272V172.701Z" fill="#D9E2FF"/>
<path d="M345.7 163.431L329.639 154.156L313.574 163.431L329.639 172.701L345.7 163.431Z" fill="#EBF1FF"/>
<path d="M353.746 186.619L369.807 177.349V195.894L353.746 205.191V186.619Z" fill="#B2BFE8"/>
<path d="M353.741 186.619L337.681 177.349V195.894L353.746 205.191L353.741 186.619Z" fill="#D9E2FF"/>
<path d="M369.806 177.349L353.746 168.075L337.681 177.349L353.741 186.619L369.806 177.349Z" fill="#EBF1FF"/>
<path d="M353.746 103.135L369.807 93.8652V112.41L353.746 121.707V103.135Z" fill="#B2BFE8"/>
<path d="M353.746 103.135L337.681 93.8652V112.41L353.746 121.707V103.135Z" fill="#D9E2FF"/>
<path d="M369.806 93.8653L353.746 84.5908L337.681 93.8653L353.746 103.135L369.806 93.8653Z" fill="#EBF1FF"/>
<path d="M377.853 117.054L393.913 107.784V126.328L377.853 135.625V117.054Z" fill="#B2BFE8"/>
<path d="M377.852 117.054L361.791 107.784V126.328L377.852 135.625V117.054Z" fill="#D9E2FF"/>
<path d="M393.912 107.784L377.852 98.5098L361.791 107.784L377.852 117.054L393.912 107.784Z" fill="#EBF1FF"/>
<path d="M401.959 130.972L418.019 121.702V140.247L401.959 149.544V130.972Z" fill="#B2BFE8"/>
<path d="M401.959 130.972L385.898 121.702L385.894 140.247L401.959 149.544V130.972Z" fill="#D9E2FF"/>
<path d="M418.018 121.702L401.958 112.428L385.897 121.702L401.958 130.972L418.018 121.702Z" fill="#EBF1FF"/>
<path d="M329.64 117.067L345.7 107.793V126.342L329.64 135.634V117.067Z" fill="#B2BFE8"/>
<path d="M329.639 117.067L313.574 107.793V126.342L329.639 135.634V117.067Z" fill="#D9E2FF"/>
<path d="M345.7 107.793L329.639 98.5229L313.574 107.793L329.639 117.067L345.7 107.793Z" fill="#EBF1FF"/>
<path d="M353.746 130.964L369.807 121.689L369.811 140.238L353.746 149.531V130.964Z" fill="#B2BFE8"/>
<path d="M353.745 130.964L337.685 121.689V140.238L353.745 149.531V130.964Z" fill="#D9E2FF"/>
<path d="M369.806 121.689L353.745 112.415L337.685 121.689L353.745 130.964L369.806 121.689Z" fill="#EBF1FF"/>
<path d="M377.852 144.904L393.912 135.63V154.179L377.852 163.471V144.904Z" fill="#B2BFE8"/>
<path d="M377.851 144.904L361.786 135.63V154.179L377.851 163.471V144.904Z" fill="#D9E2FF"/>
<path d="M393.912 135.63L377.851 126.355L361.786 135.63L377.851 144.904L393.912 135.63Z" fill="#EBF1FF"/>
<path d="M305.532 130.986L321.592 121.712V140.261L305.527 149.553L305.532 130.986Z" fill="#B2BFE8"/>
<path d="M305.527 130.986L289.467 121.712V140.261L305.527 149.553V130.986Z" fill="#D9E2FF"/>
<path d="M321.592 121.712L305.527 112.437L289.467 121.712L305.527 130.986L321.592 121.712Z" fill="#EBF1FF"/>
<path d="M329.639 144.904L345.7 135.63V154.179L329.635 163.471L329.639 144.904Z" fill="#B2BFE8"/>
<path d="M329.635 144.904L313.574 135.63V154.179L329.639 163.471L329.635 144.904Z" fill="#D9E2FF"/>
<path d="M345.7 135.63L329.635 126.355L313.574 135.63L329.635 144.904L345.7 135.63Z" fill="#EBF1FF"/>
<path d="M353.746 158.823L369.806 149.549V168.098L353.741 177.39L353.746 158.823Z" fill="#B2BFE8"/>
<path d="M353.741 158.823L337.681 149.549V168.098L353.741 177.39V158.823Z" fill="#D9E2FF"/>
<path d="M369.806 149.548L353.741 140.274L337.681 149.548L353.741 158.823L369.806 149.548Z" fill="#EBF1FF"/>
<path d="M144.639 74.1826L160.7 64.9126V83.4571L144.635 92.7541L144.639 74.1826Z" fill="#B2BFE8"/>
<path d="M144.635 74.1826L128.574 64.9126V83.4571L144.635 92.7541V74.1826Z" fill="#D9E2FF"/>
<path d="M160.7 64.9122L144.635 55.6377L128.574 64.9122L144.635 74.1822L160.7 64.9122Z" fill="#EBF1FF"/>
<path d="M168.747 88.1011L184.807 78.8311V97.3756L168.742 106.673L168.747 88.1011Z" fill="#B2BFE8"/>
<path d="M168.742 88.1011L152.682 78.8311V97.3756L168.747 106.673L168.742 88.1011Z" fill="#D9E2FF"/>
<path d="M184.807 78.8306L168.742 69.5562L152.682 78.8306L168.742 88.1006L184.807 78.8306Z" fill="#EBF1FF"/>
<path d="M192.853 102.02L208.914 92.7495V111.294L192.849 120.591L192.853 102.02Z" fill="#B2BFE8"/>
<path d="M192.849 102.02L176.788 92.7495V111.294L192.849 120.591V102.02Z" fill="#D9E2FF"/>
<path d="M208.914 92.7496L192.849 83.4751L176.788 92.7496L192.849 102.02L208.914 92.7496Z" fill="#EBF1FF"/>
<path d="M120.528 88.1148L136.593 78.8403V97.3893L120.528 106.682V88.1148Z" fill="#B2BFE8"/>
<path d="M120.528 88.1148L104.468 78.8403V97.3893L120.528 106.682V88.1148Z" fill="#D9E2FF"/>
<path d="M136.593 78.8403L120.528 69.5703L104.468 78.8403L120.528 88.1148L136.593 78.8403Z" fill="#EBF1FF"/>
<path d="M144.64 102.01L160.7 92.7358V111.28L144.64 120.577V102.01Z" fill="#B2BFE8"/>
<path d="M144.635 102.01L128.574 92.7358V111.28L144.639 120.577L144.635 102.01Z" fill="#D9E2FF"/>
<path d="M160.7 92.7359L144.639 83.4614L128.574 92.7359L144.635 102.01L160.7 92.7359Z" fill="#EBF1FF"/>
<path d="M168.747 115.952L184.807 106.678V125.227L168.742 134.519L168.747 115.952Z" fill="#B2BFE8"/>
<path d="M168.742 115.952L152.682 106.678V125.227L168.742 134.519V115.952Z" fill="#D9E2FF"/>
<path d="M184.807 106.677L168.742 97.4028L152.682 106.677L168.742 115.952L184.807 106.677Z" fill="#EBF1FF"/>
<path d="M96.4209 102.033L112.481 92.7588V111.308L96.4209 120.6V102.033Z" fill="#B2BFE8"/>
<path d="M96.4214 102.033L80.3609 92.7588L80.3564 111.308L96.4214 120.6V102.033Z" fill="#D9E2FF"/>
<path d="M112.482 92.7589L96.4218 83.4844L80.3613 92.7589L96.4218 102.033L112.482 92.7589Z" fill="#EBF1FF"/>
<path d="M120.528 115.952L136.589 106.678V125.227L120.528 134.519V115.952Z" fill="#B2BFE8"/>
<path d="M120.528 115.952L104.468 106.678V125.227L120.528 134.519V115.952Z" fill="#D9E2FF"/>
<path d="M136.589 106.677L120.528 97.4028L104.468 106.677L120.528 115.952L136.589 106.677Z" fill="#EBF1FF"/>
<path d="M144.635 129.87L160.695 120.596V139.14L144.635 148.437V129.87Z" fill="#B2BFE8"/>
<path d="M144.635 129.87L128.574 120.596V139.14L144.635 148.437V129.87Z" fill="#D9E2FF"/>
<path d="M160.695 120.595L144.635 111.321L128.574 120.595L144.635 129.87L160.695 120.595Z" fill="#EBF1FF"/>
<path d="M144.635 46.3868L160.695 37.1123L160.7 55.6613L144.635 64.9538V46.3868Z" fill="#B2BFE8"/>
<path d="M144.635 46.3868L128.574 37.1123V55.6613L144.635 64.9538V46.3868Z" fill="#D9E2FF"/>
<path d="M160.695 37.1119L144.635 27.8374L128.574 37.1119L144.635 46.3864L160.695 37.1119Z" fill="#EBF1FF"/>
<path d="M168.747 60.3048L184.807 51.0303V69.5793L168.742 78.8718L168.747 60.3048Z" fill="#B2BFE8"/>
<path d="M168.742 60.3048L152.682 51.0303V69.5793L168.742 78.8718V60.3048Z" fill="#D9E2FF"/>
<path d="M184.807 51.0304L168.742 41.7559L152.682 51.0304L168.742 60.3049L184.807 51.0304Z" fill="#EBF1FF"/>
<path d="M192.849 74.2227L208.914 64.9482V83.4927L192.849 92.7897V74.2227Z" fill="#B2BFE8"/>
<path d="M192.849 74.2227L176.788 64.9482V83.4927L192.849 92.7897V74.2227Z" fill="#D9E2FF"/>
<path d="M208.914 64.9483L192.849 55.6738L176.788 64.9483L192.849 74.2228L208.914 64.9483Z" fill="#EBF1FF"/>
<path d="M120.528 60.3135L136.589 51.0435V69.588L120.528 78.885V60.3135Z" fill="#B2BFE8"/>
<path d="M120.528 60.3135L104.468 51.0435V69.588L120.528 78.885V60.3135Z" fill="#D9E2FF"/>
<path d="M136.589 51.0431L120.528 41.7686L104.468 51.0431L120.528 60.3131L136.589 51.0431Z" fill="#EBF1FF"/>
<path d="M144.639 74.21L160.7 64.9355V83.4845L144.635 92.7815L144.639 74.21Z" fill="#B2BFE8"/>
<path d="M144.635 74.21L128.574 64.9355V83.4845L144.635 92.7815V74.21Z" fill="#D9E2FF"/>
<path d="M160.7 64.935L144.635 55.665L128.574 64.935L144.635 74.2095L160.7 64.935Z" fill="#EBF1FF"/>
<path d="M168.742 88.1509L184.803 78.8809L184.807 97.4254L168.742 106.722V88.1509Z" fill="#B2BFE8"/>
<path d="M168.742 88.1509L152.682 78.8809V97.4254L168.742 106.722V88.1509Z" fill="#D9E2FF"/>
<path d="M184.803 78.8805L168.742 69.606L152.682 78.8805L168.742 88.1505L184.803 78.8805Z" fill="#EBF1FF"/>
<path d="M96.4209 74.2319L112.481 64.9619V83.5064L96.4209 92.8034V74.2319Z" fill="#B2BFE8"/>
<path d="M96.4169 74.2319L80.3564 64.9619V83.5064L96.4214 92.8034L96.4169 74.2319Z" fill="#D9E2FF"/>
<path d="M112.482 64.962L96.4214 55.6875L80.3564 64.962L96.4169 74.232L112.482 64.962Z" fill="#EBF1FF"/>
<path d="M120.527 88.1509L136.588 78.8809V97.4254L120.527 106.722V88.1509Z" fill="#B2BFE8"/>
<path d="M120.527 88.1509L104.462 78.8809V97.4254L120.527 106.722V88.1509Z" fill="#D9E2FF"/>
<path d="M136.587 78.8805L120.527 69.606L104.462 78.8805L120.527 88.1505L136.587 78.8805Z" fill="#EBF1FF"/>
<path d="M144.634 102.069L160.694 92.7949V111.344L144.634 120.641V102.069Z" fill="#B2BFE8"/>
<path d="M144.633 102.069L128.568 92.7949V111.344L144.633 120.641V102.069Z" fill="#D9E2FF"/>
<path d="M160.694 92.7949L144.633 83.5249L128.568 92.7949L144.633 102.069L160.694 92.7949Z" fill="#EBF1FF"/>
<path d="M144.635 18.5444L160.695 9.27441L160.7 27.8189L144.635 37.1159V18.5444Z" fill="#B2BFE8"/>
<path d="M144.635 18.5444L128.574 9.27441V27.8189L144.635 37.1159V18.5444Z" fill="#D9E2FF"/>
<path d="M160.695 9.2745L144.635 0L128.574 9.2745L144.635 18.5445L160.695 9.2745Z" fill="#EBF1FF"/>
<path d="M168.742 32.4634L184.807 23.1934V41.7379L168.742 51.0349V32.4634Z" fill="#B2BFE8"/>
<path d="M168.742 32.4634L152.682 23.1934V41.7379L168.742 51.0349V32.4634Z" fill="#D9E2FF"/>
<path d="M184.807 23.193L168.742 13.9185L152.682 23.193L168.742 32.463L184.807 23.193Z" fill="#EBF1FF"/>
<path d="M192.849 46.3823L208.914 37.1123V55.6568L192.849 64.9538V46.3823Z" fill="#B2BFE8"/>
<path d="M192.849 46.3823L176.788 37.1123V55.6568L192.849 64.9538V46.3823Z" fill="#D9E2FF"/>
<path d="M208.914 37.1119L192.849 27.8374L176.788 37.1119L192.849 46.3819L208.914 37.1119Z" fill="#EBF1FF"/>
<path d="M120.528 32.4766L136.589 23.2021V41.7511L120.528 51.0436V32.4766Z" fill="#B2BFE8"/>
<path d="M120.528 32.4766L104.468 23.2021V41.7511L120.528 51.0436V32.4766Z" fill="#D9E2FF"/>
<path d="M136.589 23.2021L120.528 13.9321L104.468 23.2021L120.528 32.4766L136.589 23.2021Z" fill="#EBF1FF"/>
<path d="M144.639 46.3722L160.7 37.0977V55.6467L144.635 64.9392L144.639 46.3722Z" fill="#B2BFE8"/>
<path d="M144.635 46.3722L128.574 37.0977V55.6467L144.635 64.9392V46.3722Z" fill="#D9E2FF"/>
<path d="M160.7 37.0982L144.635 27.8237L128.574 37.0982L144.635 46.3727L160.7 37.0982Z" fill="#EBF1FF"/>
<path d="M168.742 60.3136L184.803 51.0391L184.807 69.5881L168.742 78.8806V60.3136Z" fill="#B2BFE8"/>
<path d="M168.742 60.3136L152.682 51.0391V69.5881L168.742 78.8806V60.3136Z" fill="#D9E2FF"/>
<path d="M184.803 51.0391L168.742 41.7646L152.682 51.0391L168.742 60.3136L184.803 51.0391Z" fill="#EBF1FF"/>
<path d="M96.4209 46.3956L112.481 37.1211V55.6701L96.4209 64.9626V46.3956Z" fill="#B2BFE8"/>
<path d="M96.4169 46.3956L80.3564 37.1211V55.6701L96.4214 64.9626L96.4169 46.3956Z" fill="#D9E2FF"/>
<path d="M112.482 37.1207L96.4214 27.8462L80.3564 37.1207L96.4169 46.3952L112.482 37.1207Z" fill="#EBF1FF"/>
<path d="M120.527 60.3136L136.588 51.0391V69.5881L120.527 78.8806V60.3136Z" fill="#B2BFE8"/>
<path d="M120.527 60.3136L104.462 51.0391V69.5881L120.527 78.8806V60.3136Z" fill="#D9E2FF"/>
<path d="M136.587 51.0391L120.527 41.7646L104.462 51.0391L120.527 60.3136L136.587 51.0391Z" fill="#EBF1FF"/>
<path d="M144.634 74.232L160.694 64.9575V83.502L144.634 92.799V74.232Z" fill="#B2BFE8"/>
<path d="M144.633 74.232L128.568 64.9575V83.502L144.633 92.799V74.232Z" fill="#D9E2FF"/>
<path d="M160.694 64.9576L144.633 55.6831L128.568 64.9576L144.633 74.2321L160.694 64.9576Z" fill="#EBF1FF"/>
<path d="M72.3145 385.56L88.375 376.285V394.83L72.3145 404.127V385.56Z" fill="#B2BFE8"/>
<path d="M72.315 385.56L56.2545 376.285L56.25 394.83L72.315 404.127V385.56Z" fill="#D9E2FF"/>
<path d="M88.3749 376.286L72.3144 367.011L56.2539 376.286L72.3144 385.56L88.3749 376.286Z" fill="#EBF1FF"/>
<path d="M96.4209 399.479L112.481 390.204V408.749L96.4209 418.046V399.479Z" fill="#B2BFE8"/>
<path d="M96.4209 399.479L80.3604 390.204V408.749L96.4209 418.046V399.479Z" fill="#D9E2FF"/>
<path d="M112.481 390.204L96.4209 380.93L80.3604 390.204L96.4209 399.479L112.481 390.204Z" fill="#EBF1FF"/>
<path d="M120.528 413.393L136.589 404.123V422.668L120.528 431.965V413.393Z" fill="#B2BFE8"/>
<path d="M120.528 413.393L104.468 404.123V422.668L120.528 431.965V413.393Z" fill="#D9E2FF"/>
<path d="M136.589 404.123L120.528 394.848L104.468 404.123L120.528 413.393L136.589 404.123Z" fill="#EBF1FF"/>
<path d="M48.208 399.487L64.2685 390.213V408.762L48.208 418.059V399.487Z" fill="#B2BFE8"/>
<path d="M48.2086 399.487L32.1436 390.213V408.762L48.2086 418.059V399.487Z" fill="#D9E2FF"/>
<path d="M64.2691 390.213L48.2086 380.943L32.1436 390.213L48.2086 399.487L64.2691 390.213Z" fill="#EBF1FF"/>
<path d="M72.3154 413.384L88.3759 404.109L88.3804 422.658L72.3154 431.951V413.384Z" fill="#B2BFE8"/>
<path d="M72.3154 413.384L56.2549 404.109V422.658L72.3154 431.951V413.384Z" fill="#D9E2FF"/>
<path d="M88.3759 404.109L72.3154 394.834L56.2549 404.109L72.3154 413.383L88.3759 404.109Z" fill="#EBF1FF"/>
<path d="M96.4209 427.324L112.481 418.05V436.599L96.4209 445.896V427.324Z" fill="#B2BFE8"/>
<path d="M96.4214 427.324L80.3609 418.05L80.3564 436.599L96.4214 445.896V427.324Z" fill="#D9E2FF"/>
<path d="M112.482 418.05L96.4218 408.78L80.3613 418.05L96.4218 427.325L112.482 418.05Z" fill="#EBF1FF"/>
<path d="M24.1031 413.406L40.1636 404.131V422.68L24.0986 431.973L24.1031 413.406Z" fill="#B2BFE8"/>
<path d="M24.0986 413.406L8.03809 404.131V422.68L24.0986 431.973V413.406Z" fill="#D9E2FF"/>
<path d="M40.1636 404.131L24.0986 394.861L8.03809 404.131L24.0986 413.406L40.1636 404.131Z" fill="#EBF1FF"/>
<path d="M48.208 427.324L64.2685 418.05V436.599L48.208 445.896V427.324Z" fill="#B2BFE8"/>
<path d="M48.2041 427.324L32.1436 418.05V436.599L48.2086 445.896L48.2041 427.324Z" fill="#D9E2FF"/>
<path d="M64.2691 418.05L48.2086 408.78L32.1436 418.05L48.2041 427.325L64.2691 418.05Z" fill="#EBF1FF"/>
<path d="M72.316 441.243L88.3765 431.969V450.518L72.3115 459.81L72.316 441.243Z" fill="#B2BFE8"/>
<path d="M72.3105 441.243L56.25 431.969V450.518L72.315 459.81L72.3105 441.243Z" fill="#D9E2FF"/>
<path d="M88.3755 431.969L72.3105 422.694L56.25 431.969L72.3105 441.243L88.3755 431.969Z" fill="#EBF1FF"/>
<path d="M393.742 283.496L409.803 274.222V292.771L393.742 302.068V283.496Z" fill="#B2BFE8"/>
<path d="M393.742 283.496L377.682 274.222V292.771L393.742 302.068V283.496Z" fill="#D9E2FF"/>
<path d="M409.803 274.221L393.742 264.951L377.682 274.221L393.742 283.496L409.803 274.221Z" fill="#EBF1FF"/>
<path d="M417.849 297.414L433.909 288.144L433.914 306.688L417.849 315.985V297.414Z" fill="#B2BFE8"/>
<path d="M417.849 297.414L401.788 288.144V306.688L417.849 315.985V297.414Z" fill="#D9E2FF"/>
<path d="M433.909 288.144L417.849 278.869L401.788 288.144L417.849 297.414L433.909 288.144Z" fill="#EBF1FF"/>
<path d="M369.634 297.405L385.694 288.131V306.675L369.634 315.972V297.405Z" fill="#B2BFE8"/>
<path d="M369.633 297.405L353.573 288.131L353.568 306.675L369.633 315.972V297.405Z" fill="#D9E2FF"/>
<path d="M385.693 288.13L369.633 278.856L353.572 288.13L369.633 297.405L385.693 288.13Z" fill="#EBF1FF"/>
<path d="M393.742 311.332L409.803 302.058V320.607L393.742 329.904V311.332Z" fill="#B2BFE8"/>
<path d="M393.742 311.332L377.682 302.058V320.607L393.742 329.904V311.332Z" fill="#D9E2FF"/>
<path d="M409.803 302.058L393.742 292.788L377.682 302.058L393.742 311.332L409.803 302.058Z" fill="#EBF1FF"/>
<path d="M96.4209 371.624L112.481 362.35V380.899L96.4209 390.191V371.624Z" fill="#B2BFE8"/>
<path d="M96.4209 371.624L80.3604 362.35V380.899L96.4209 390.191V371.624Z" fill="#D9E2FF"/>
<path d="M112.481 362.349L96.4209 353.075L80.3604 362.349L96.4209 371.624L112.481 362.349Z" fill="#EBF1FF"/>
<path d="M120.528 385.542L136.589 376.268V394.812L120.528 404.109V385.542Z" fill="#B2BFE8"/>
<path d="M120.528 385.542L104.468 376.268V394.812L120.528 404.109V385.542Z" fill="#D9E2FF"/>
<path d="M136.589 376.268L120.528 366.993L104.468 376.268L120.528 385.542L136.589 376.268Z" fill="#EBF1FF"/>
<path d="M96.4209 399.47L112.481 390.2V408.745L96.4209 418.042V399.47Z" fill="#B2BFE8"/>
<path d="M96.4209 399.47L80.3604 390.2V408.745L96.4209 418.042V399.47Z" fill="#D9E2FF"/>
<path d="M112.481 390.2L96.4209 380.925L80.3604 390.2L96.4209 399.47L112.481 390.2Z" fill="#EBF1FF"/>
<path d="M120.528 357.728L136.589 348.453V367.002L120.528 376.295V357.728Z" fill="#B2BFE8"/>
<path d="M120.528 357.728L104.468 348.453V367.002L120.528 376.295V357.728Z" fill="#D9E2FF"/>
<path d="M136.589 348.453L120.528 339.178L104.468 348.453L120.528 357.727L136.589 348.453Z" fill="#EBF1FF"/>
<path d="M369.634 269.578L385.694 260.308V278.852L369.634 288.149V269.578Z" fill="#B2BFE8"/>
<path d="M369.633 269.578L353.573 260.308L353.568 278.852L369.633 288.149V269.578Z" fill="#D9E2FF"/>
<path d="M385.693 260.307L369.633 251.033L353.572 260.307L369.633 269.577L385.693 260.307Z" fill="#EBF1FF"/>
<path d="M16.066 204.624L32.1265 195.354V213.898L16.0615 223.195L16.066 204.624Z" fill="#B2BFE8"/>
<path d="M16.0605 204.624L0 195.354V213.898L16.0605 223.195V204.624Z" fill="#D9E2FF"/>
<path d="M32.1255 195.354L16.0605 186.08L0 195.354L16.0605 204.624L32.1255 195.354Z" fill="#EBF1FF"/>
<path d="M40.1631 218.543L56.2236 209.273V227.818L40.1631 237.115V218.543Z" fill="#B2BFE8"/>
<path d="M40.1627 218.543L24.0977 209.273V227.818L40.1627 237.115V218.543Z" fill="#D9E2FF"/>
<path d="M56.2232 209.273L40.1627 199.999L24.0977 209.273L40.1627 218.543L56.2232 209.273Z" fill="#EBF1FF"/>
<path d="M297.314 450.518L313.375 441.243V459.788L297.314 469.085V450.518Z" fill="#B2BFE8"/>
<path d="M297.315 450.518L281.25 441.243V459.788L297.315 469.085V450.518Z" fill="#D9E2FF"/>
<path d="M313.376 441.243L297.315 431.968L281.25 441.243L297.315 450.517L313.376 441.243Z" fill="#EBF1FF"/>
</g>
<defs>
<clipPath id="clip0_2546_1576">
<rect width="449.447" height="469.085" fill="white"/>
</clipPath>
</defs>
</svg>
