<svg width="635" height="166" viewBox="0 0 635 166" fill="none" xmlns="http://www.w3.org/2000/svg">
<rect width="635" height="166" fill="#F0F3FA"/>
<line y1="81.5" x2="635" y2="81.5" stroke="#D4D9E6" stroke-dasharray="3.94 3.94"/>
<rect x="70" y="59" width="48" height="48" rx="24" fill="#EADDFF"/>
<path d="M86.68 86V80.416H88.88C89.984 80.416 90.792 81.008 90.792 82C90.792 82.704 90.24 83.376 89.304 83.592C90.248 84.264 90.672 85.128 90.752 86H89.888C89.776 85.128 89.248 84.272 88.2 83.664H87.528V86H86.68ZM88.88 81.136H87.528V82.944H88.704C89.4 82.944 89.904 82.576 89.904 82C89.904 81.472 89.448 81.136 88.88 81.136ZM93.1951 80.416H94.4111L96.1391 86H95.2671L94.8351 84.592H92.7551L92.3231 86H91.4671L93.1951 80.416ZM93.4671 82.312L92.9791 83.872H94.6191L94.1391 82.304L93.8031 81.08L93.4671 82.312ZM99.1183 86.096C97.6383 86.096 96.6543 84.944 96.6543 83.208C96.6543 81.488 97.6463 80.32 99.1423 80.32C100.286 80.32 101.158 81.024 101.262 82.216H100.326C100.238 81.504 99.7983 81.04 99.1263 81.04C98.2303 81.04 97.5503 81.856 97.5503 83.208C97.5503 84.608 98.2463 85.376 99.1823 85.376C99.7183 85.376 100.142 85.152 100.422 84.848V83.744L99.4463 83.776L99.4783 83.048H101.262V85.096C100.822 85.728 100.062 86.096 99.1183 86.096Z" fill="#8547FF"/>
<rect x="118" y="31" width="104" height="104" rx="52" fill="#D9E2FE"/>
<path d="M158.095 77.072C158.703 77.24 159.151 77.696 159.151 78.432C159.151 79.376 158.399 80 157.223 80H155.063V74.416H157.143C158.319 74.416 159.015 74.968 159.015 75.808C159.015 76.4 158.679 76.896 158.095 77.072ZM157.103 75.136H155.911V76.784H157.103C157.727 76.784 158.127 76.448 158.127 75.936C158.127 75.432 157.719 75.136 157.103 75.136ZM155.911 79.28H157.207C157.855 79.28 158.263 78.936 158.263 78.392C158.263 77.832 157.831 77.504 157.127 77.504H155.911V79.28ZM160.37 79.28H161.77V75.136H160.37V74.416H164.01V75.136H162.618V79.28H164.01V80H160.37V79.28ZM165.333 80V74.416H166.389L168.717 78.896L168.653 77.168V74.416H169.469V80H168.421L166.077 75.568L166.149 77.24V80H165.333ZM171.992 74.416H173.208L174.936 80H174.064L173.632 78.592H171.552L171.12 80H170.264L171.992 74.416ZM172.264 76.312L171.776 77.872H173.416L172.936 76.304L172.6 75.08L172.264 76.312ZM175.883 80V74.416H178.083C179.187 74.416 179.995 75.008 179.995 76C179.995 76.704 179.443 77.376 178.507 77.592C179.451 78.264 179.875 79.128 179.955 80H179.091C178.979 79.128 178.451 78.272 177.403 77.664H176.731V80H175.883ZM178.083 75.136H176.731V76.944H177.907C178.603 76.944 179.107 76.576 179.107 76C179.107 75.472 178.651 75.136 178.083 75.136ZM182.566 80V77.736L180.718 74.416H181.646L182.51 75.952L183.006 77L183.51 75.944L184.374 74.416H185.294L183.414 77.736V80H182.566ZM141.341 92.096C139.965 92.096 138.997 90.92 138.997 89.208C138.997 87.464 139.973 86.32 141.349 86.32C142.725 86.32 143.693 87.456 143.693 89.208C143.693 90.264 143.253 91.152 142.613 91.544L143.245 91.424L143.941 91.376L143.709 92.096H141.341ZM141.349 91.376C142.189 91.376 142.797 90.504 142.797 89.208C142.797 87.888 142.189 87.04 141.349 87.04C140.509 87.04 139.901 87.88 139.901 89.208C139.901 90.512 140.509 91.376 141.349 91.376ZM146.592 92.096C145.272 92.096 144.416 91.264 144.416 90.016V86.416H145.272V90.016C145.272 90.832 145.792 91.368 146.592 91.368C147.384 91.368 147.904 90.832 147.904 90.016V86.416H148.76V90.016C148.76 91.264 147.896 92.096 146.592 92.096ZM151.18 86.416H152.396L154.124 92H153.252L152.82 90.592H150.74L150.308 92H149.451L151.18 86.416ZM151.452 88.312L150.964 89.872H152.604L152.124 88.304L151.788 87.08L151.452 88.312ZM154.927 92V86.416H155.983L158.311 90.896L158.247 89.168V86.416H159.063V92H158.015L155.671 87.568L155.743 89.24V92H154.927ZM161.77 92V87.136H159.97V86.416H164.418V87.136H162.618V92H161.77ZM165.573 91.28H166.973V87.136H165.573V86.416H169.213V87.136H167.821V91.28H169.213V92H165.573V91.28ZM170.432 92V91.392L172.976 88.008L173.696 87.136H170.544V86.416H174.744V87.016L172.2 90.4L171.488 91.28H174.744V92H170.432ZM177.195 86.416H178.411L180.139 92H179.267L178.835 90.592H176.755L176.323 92H175.467L177.195 86.416ZM177.467 88.312L176.979 89.872H178.619L178.139 88.304L177.803 87.08L177.467 88.312ZM182.582 92V87.136H180.782V86.416H185.23V87.136H183.43V92H182.582ZM186.385 91.28H187.785V87.136H186.385V86.416H190.025V87.136H188.633V91.28H190.025V92H186.385V91.28ZM193.421 92.096C191.997 92.096 191.069 90.968 191.069 89.208C191.069 87.44 191.997 86.32 193.421 86.32C194.845 86.32 195.773 87.432 195.773 89.208C195.773 90.976 194.845 92.096 193.421 92.096ZM193.421 91.376C194.293 91.376 194.885 90.536 194.885 89.208C194.885 87.872 194.293 87.04 193.421 87.04C192.549 87.04 191.957 87.88 191.957 89.208C191.957 90.536 192.549 91.376 193.421 91.376ZM196.552 92V86.416H197.608L199.936 90.896L199.872 89.168V86.416H200.688V92H199.64L197.296 87.568L197.368 89.24V92H196.552Z" fill="#2F6FF0"/>
<rect x="222" y="55" width="56" height="56" rx="28" fill="#EADDFF"/>
<path d="M232.148 86V80.416H234.292C235.5 80.416 236.292 81.104 236.292 82.168C236.292 83.248 235.468 83.96 234.22 83.96H232.996V86H232.148ZM234.292 81.136H232.996V83.24H234.212C234.932 83.24 235.404 82.808 235.404 82.168C235.404 81.544 234.964 81.136 234.292 81.136ZM237.383 86V80.416H239.583C240.687 80.416 241.495 81.008 241.495 82C241.495 82.704 240.943 83.376 240.007 83.592C240.951 84.264 241.375 85.128 241.455 86H240.591C240.479 85.128 239.951 84.272 238.903 83.664H238.231V86H237.383ZM239.583 81.136H238.231V82.944H239.407C240.103 82.944 240.607 82.576 240.607 82C240.607 81.472 240.151 81.136 239.583 81.136ZM244.514 86.096C243.09 86.096 242.162 84.968 242.162 83.208C242.162 81.44 243.09 80.32 244.514 80.32C245.938 80.32 246.866 81.432 246.866 83.208C246.866 84.976 245.938 86.096 244.514 86.096ZM244.514 85.376C245.386 85.376 245.978 84.536 245.978 83.208C245.978 81.872 245.386 81.04 244.514 81.04C243.642 81.04 243.05 81.88 243.05 83.208C243.05 84.536 243.642 85.376 244.514 85.376ZM247.317 86L247.733 80.416H248.845L249.557 83.72L249.725 84.808L249.901 83.72L250.597 80.416H251.693L252.117 86H251.277L251.093 82.504L251.061 81.272L250.821 82.504L250.061 86H249.341L248.589 82.504L248.365 81.256L248.317 82.504L248.141 86H247.317ZM252.961 86V80.416H255.105C256.312 80.416 257.105 81.104 257.105 82.168C257.105 83.248 256.281 83.96 255.033 83.96H253.809V86H252.961ZM255.105 81.136H253.809V83.24H255.025C255.745 83.24 256.217 82.808 256.217 82.168C256.217 81.544 255.777 81.136 255.105 81.136ZM259.692 86V81.136H257.892V80.416H262.34V81.136H260.54V86H259.692ZM265.399 86.096C264.103 86.096 263.263 85.336 263.263 84.008H264.103C264.103 84.888 264.583 85.376 265.391 85.376C266.071 85.376 266.527 85.048 266.527 84.48C266.527 83.128 263.351 83.912 263.351 81.896C263.351 80.984 264.127 80.32 265.303 80.32C266.447 80.32 267.327 80.976 267.351 82.064H266.503C266.487 81.432 265.959 81.04 265.303 81.04C264.671 81.04 264.239 81.36 264.239 81.872C264.239 83.136 267.415 82.312 267.415 84.472C267.415 85.464 266.551 86.096 265.399 86.096Z" fill="#8547FF"/>
<rect x="278" y="47" width="72" height="72" rx="36" fill="#C0F0F0"/>
<path d="M300.383 80L298.639 74.416H299.527L300.703 78.08L301.007 79.288L301.303 78.088L302.487 74.416H303.351L301.607 80H300.383ZM304.258 80V74.416H308.266V75.136H305.106V76.744H307.282V77.464H305.106V79.28H308.298V80H304.258ZM311.493 80.096C310.013 80.096 309.093 78.896 309.093 77.2C309.093 75.44 310.069 74.32 311.525 74.32C312.693 74.32 313.605 75.04 313.709 76.224H312.781C312.693 75.504 312.221 75.04 311.517 75.04C310.605 75.04 309.981 75.872 309.981 77.208C309.981 78.56 310.621 79.376 311.493 79.376C312.229 79.376 312.741 78.888 312.805 78.128H313.741C313.629 79.32 312.789 80.096 311.493 80.096ZM316.176 80V75.136H314.376V74.416H318.824V75.136H317.024V80H316.176ZM321.811 80.096C320.387 80.096 319.459 78.968 319.459 77.208C319.459 75.44 320.387 74.32 321.811 74.32C323.235 74.32 324.163 75.432 324.163 77.208C324.163 78.976 323.235 80.096 321.811 80.096ZM321.811 79.376C322.683 79.376 323.275 78.536 323.275 77.208C323.275 75.872 322.683 75.04 321.811 75.04C320.939 75.04 320.347 75.88 320.347 77.208C320.347 78.536 320.939 79.376 321.811 79.376ZM325.086 80V74.416H327.286C328.39 74.416 329.198 75.008 329.198 76C329.198 76.704 328.646 77.376 327.71 77.592C328.654 78.264 329.078 79.128 329.158 80H328.294C328.182 79.128 327.654 78.272 326.606 77.664H325.934V80H325.086ZM327.286 75.136H325.934V76.944H327.11C327.806 76.944 328.31 76.576 328.31 76C328.31 75.472 327.854 75.136 327.286 75.136ZM290.664 92.096C289.368 92.096 288.528 91.336 288.528 90.008H289.368C289.368 90.888 289.848 91.376 290.656 91.376C291.336 91.376 291.792 91.048 291.792 90.48C291.792 89.128 288.616 89.912 288.616 87.896C288.616 86.984 289.392 86.32 290.568 86.32C291.712 86.32 292.592 86.976 292.616 88.064H291.768C291.752 87.432 291.224 87.04 290.568 87.04C289.936 87.04 289.504 87.36 289.504 87.872C289.504 89.136 292.68 88.312 292.68 90.472C292.68 91.464 291.816 92.096 290.664 92.096ZM293.964 91.28H295.364V87.136H293.964V86.416H297.604V87.136H296.212V91.28H297.604V92H293.964V91.28ZM298.599 92L299.015 86.416H300.127L300.839 89.72L301.007 90.808L301.183 89.72L301.879 86.416H302.975L303.399 92H302.559L302.375 88.504L302.343 87.272L302.103 88.504L301.343 92H300.623L299.871 88.504L299.647 87.256L299.599 88.504L299.423 92H298.599ZM304.37 91.28H305.77V87.136H304.37V86.416H308.01V87.136H306.618V91.28H308.01V92H304.37V91.28ZM309.677 92V86.416H310.525V91.28H313.453V92H309.677ZM315.992 86.416H317.208L318.936 92H318.064L317.632 90.592H315.552L315.12 92H314.264L315.992 86.416ZM316.264 88.312L315.776 89.872H317.416L316.936 88.304L316.6 87.08L316.264 88.312ZM319.883 92V86.416H322.083C323.187 86.416 323.995 87.008 323.995 88C323.995 88.704 323.443 89.376 322.507 89.592C323.451 90.264 323.875 91.128 323.955 92H323.091C322.979 91.128 322.451 90.272 321.403 89.664H320.731V92H319.883ZM322.083 87.136H320.731V88.944H321.907C322.603 88.944 323.107 88.576 323.107 88C323.107 87.472 322.651 87.136 322.083 87.136ZM325.182 91.28H326.582V87.136H325.182V86.416H328.822V87.136H327.43V91.28H328.822V92H325.182V91.28ZM331.785 92V87.136H329.985V86.416H334.433V87.136H332.633V92H331.785ZM336.973 92V89.736L335.125 86.416H336.053L336.917 87.952L337.413 89L337.917 87.944L338.781 86.416H339.701L337.821 89.736V92H336.973Z" fill="#038585"/>
<rect x="350" y="51" width="64" height="64" rx="32" fill="#D9E2FE"/>
<path d="M367.992 80L366.248 74.416H367.136L368.312 78.08L368.616 79.288L368.912 78.088L370.096 74.416H370.96L369.216 80H367.992ZM371.867 80V74.416H375.875V75.136H372.715V76.744H374.891V77.464H372.715V79.28H375.907V80H371.867ZM379.102 80.096C377.622 80.096 376.702 78.896 376.702 77.2C376.702 75.44 377.678 74.32 379.134 74.32C380.302 74.32 381.214 75.04 381.318 76.224H380.39C380.302 75.504 379.83 75.04 379.126 75.04C378.214 75.04 377.59 75.872 377.59 77.208C377.59 78.56 378.23 79.376 379.102 79.376C379.838 79.376 380.35 78.888 380.414 78.128H381.35C381.238 79.32 380.398 80.096 379.102 80.096ZM383.785 80V75.136H381.985V74.416H386.433V75.136H384.633V80H383.785ZM389.421 80.096C387.997 80.096 387.069 78.968 387.069 77.208C387.069 75.44 387.997 74.32 389.421 74.32C390.845 74.32 391.773 75.432 391.773 77.208C391.773 78.976 390.845 80.096 389.421 80.096ZM389.421 79.376C390.293 79.376 390.885 78.536 390.885 77.208C390.885 75.872 390.293 75.04 389.421 75.04C388.549 75.04 387.957 75.88 387.957 77.208C387.957 78.536 388.549 79.376 389.421 79.376ZM392.696 80V74.416H394.896C396 74.416 396.808 75.008 396.808 76C396.808 76.704 396.256 77.376 395.32 77.592C396.264 78.264 396.688 79.128 396.768 80H395.904C395.792 79.128 395.264 78.272 394.216 77.664H393.544V80H392.696ZM394.896 75.136H393.544V76.944H394.72C395.416 76.944 395.92 76.576 395.92 76C395.92 75.472 395.464 75.136 394.896 75.136ZM368.68 92.096C367.384 92.096 366.544 91.336 366.544 90.008H367.384C367.384 90.888 367.864 91.376 368.672 91.376C369.352 91.376 369.808 91.048 369.808 90.48C369.808 89.128 366.632 89.912 366.632 87.896C366.632 86.984 367.408 86.32 368.584 86.32C369.728 86.32 370.608 86.976 370.632 88.064H369.784C369.768 87.432 369.24 87.04 368.584 87.04C367.952 87.04 367.52 87.36 367.52 87.872C367.52 89.136 370.696 88.312 370.696 90.472C370.696 91.464 369.832 92.096 368.68 92.096ZM371.867 92V86.416H375.875V87.136H372.715V88.744H374.891V89.464H372.715V91.28H375.907V92H371.867ZM378.398 86.416H379.614L381.342 92H380.47L380.038 90.592H377.958L377.526 92H376.67L378.398 86.416ZM378.67 88.312L378.182 89.872H379.822L379.342 88.304L379.006 87.08L378.67 88.312ZM382.289 92V86.416H384.489C385.593 86.416 386.401 87.008 386.401 88C386.401 88.704 385.849 89.376 384.913 89.592C385.857 90.264 386.281 91.128 386.361 92H385.497C385.385 91.128 384.857 90.272 383.809 89.664H383.137V92H382.289ZM384.489 87.136H383.137V88.944H384.313C385.009 88.944 385.513 88.576 385.513 88C385.513 87.472 385.057 87.136 384.489 87.136ZM389.509 92.096C388.029 92.096 387.109 90.896 387.109 89.2C387.109 87.44 388.085 86.32 389.541 86.32C390.709 86.32 391.621 87.04 391.725 88.224H390.797C390.709 87.504 390.237 87.04 389.533 87.04C388.621 87.04 387.997 87.872 387.997 89.208C387.997 90.56 388.637 91.376 389.509 91.376C390.245 91.376 390.757 90.888 390.821 90.128H391.757C391.645 91.32 390.805 92.096 389.509 92.096ZM392.544 92V86.416H393.392V88.744H395.848V86.416H396.696V92H395.848V89.464H393.392V92H392.544Z" fill="#2F6FF0"/>
<rect x="414" y="59" width="48" height="48" rx="24" fill="#C0F0F0"/>
<path d="M430.88 86V80.416H431.728V85.28H434.656V86H430.88ZM436.083 86V80.416H436.931V85.28H439.859V86H436.083ZM440.614 86L441.03 80.416H442.142L442.854 83.72L443.022 84.808L443.198 83.72L443.894 80.416H444.99L445.414 86H444.574L444.39 82.504L444.358 81.272L444.118 82.504L443.358 86H442.638L441.886 82.504L441.662 81.256L441.614 82.504L441.438 86H440.614Z" fill="#038585"/>
<rect x="462" y="51" width="64" height="64" rx="32" fill="#EADDFF"/>
<path d="M484.146 80V74.416H485.866C487.49 74.416 488.506 75.504 488.506 77.192C488.506 78.896 487.49 80 485.866 80H484.146ZM484.994 79.28H485.866C486.954 79.28 487.618 78.456 487.618 77.192C487.618 75.936 486.954 75.136 485.866 75.136H484.994V79.28ZM490.789 74.416H492.005L493.733 80H492.861L492.429 78.592H490.349L489.917 80H489.061L490.789 74.416ZM491.061 76.312L490.573 77.872H492.213L491.733 76.304L491.397 75.08L491.061 76.312ZM496.176 80V75.136H494.376V74.416H498.824V75.136H497.024V80H496.176ZM501.195 74.416H502.411L504.139 80H503.267L502.835 78.592H500.755L500.323 80H499.467L501.195 74.416ZM501.467 76.312L500.979 77.872H502.619L502.139 76.304L501.803 75.08L501.467 76.312ZM478.469 92.096C477.173 92.096 476.333 91.336 476.333 90.008H477.173C477.173 90.888 477.653 91.376 478.461 91.376C479.141 91.376 479.597 91.048 479.597 90.48C479.597 89.128 476.421 89.912 476.421 87.896C476.421 86.984 477.197 86.32 478.373 86.32C479.517 86.32 480.397 86.976 480.421 88.064H479.573C479.557 87.432 479.029 87.04 478.373 87.04C477.741 87.04 477.309 87.36 477.309 87.872C477.309 89.136 480.485 88.312 480.485 90.472C480.485 91.464 479.621 92.096 478.469 92.096ZM483.688 92.096C482.208 92.096 481.288 90.896 481.288 89.2C481.288 87.44 482.264 86.32 483.72 86.32C484.888 86.32 485.8 87.04 485.904 88.224H484.976C484.888 87.504 484.416 87.04 483.712 87.04C482.8 87.04 482.176 87.872 482.176 89.208C482.176 90.56 482.816 91.376 483.688 91.376C484.424 91.376 484.936 90.888 485 90.128H485.936C485.824 91.32 484.984 92.096 483.688 92.096ZM486.971 91.28H488.371V87.136H486.971V86.416H490.611V87.136H489.219V91.28H490.611V92H486.971V91.28ZM492.062 92V86.416H496.07V87.136H492.91V88.744H495.086V89.464H492.91V91.28H496.102V92H492.062ZM497.138 92V86.416H498.194L500.522 90.896L500.458 89.168V86.416H501.274V92H500.226L497.882 87.568L497.954 89.24V92H497.138ZM504.501 92.096C503.021 92.096 502.101 90.896 502.101 89.2C502.101 87.44 503.077 86.32 504.533 86.32C505.701 86.32 506.613 87.04 506.717 88.224H505.789C505.701 87.504 505.229 87.04 504.525 87.04C503.613 87.04 502.989 87.872 502.989 89.208C502.989 90.56 503.629 91.376 504.501 91.376C505.237 91.376 505.749 90.888 505.813 90.128H506.749C506.637 91.32 505.797 92.096 504.501 92.096ZM507.672 92V86.416H511.68V87.136H508.52V88.744H510.696V89.464H508.52V91.28H511.712V92H507.672Z" fill="#8547FF"/>
<rect x="526" y="63" width="40" height="40" rx="20" fill="#D9E2FE"/>
<path d="M540.708 86L541.124 80.416H542.236L542.948 83.72L543.116 84.808L543.292 83.72L543.988 80.416H545.084L545.508 86H544.668L544.484 82.504L544.452 81.272L544.212 82.504L543.452 86H542.732L541.98 82.504L541.756 81.256L541.708 82.504L541.532 86H540.708ZM546.583 86V80.416H547.431V85.28H550.359V86H546.583Z" fill="#2F6FF0"/>
</svg>
