<svg width="108" height="64" viewBox="0 0 108 64" fill="none" xmlns="http://www.w3.org/2000/svg">
<g clip-path="url(#clip0_4615_13063)">
<path fill-rule="evenodd" clip-rule="evenodd" d="M56.2981 33.9426L54.979 34.9029C56.0986 36.8622 58.0579 38.1024 60.336 38.0608C63.0948 38.0608 65.1345 36.4215 65.1345 33.9426C65.1345 31.9431 63.8542 30.8636 61.6953 29.8244L60.0561 29.0249L59.9875 28.9916C58.6997 28.3678 57.6963 27.8816 57.6963 26.5459C57.6963 25.0674 58.9766 24.3871 60.336 24.3871C61.6953 24.3871 62.9355 25.066 63.735 26.266L65.014 25.3058C64.0953 23.8259 62.4158 22.7866 60.3761 22.7866C57.9776 22.7866 55.8977 24.3053 55.8977 26.6249C55.8977 28.824 57.6976 29.8244 59.2565 30.5837L60.9359 31.3833C62.4158 32.0636 63.4149 32.6234 63.4149 33.9828C63.4149 35.5015 62.1761 36.4617 60.4163 36.4617C58.5374 36.4617 57.178 35.3019 56.2981 33.9426ZM76.4512 31.3847H69.534C69.9345 29.5043 71.3728 28.2655 73.2129 28.2253C74.9312 28.2253 76.4111 29.345 76.4512 31.3847ZM69.4938 32.9033H78.1307C78.1709 32.7038 78.2512 32.1842 78.2914 31.5814C78.2914 28.7034 76.0924 26.6637 73.2933 26.6637C70.134 26.6637 67.6952 29.1828 67.6952 32.3823C67.6952 35.622 70.2144 38.101 73.4928 38.101C75.2513 38.101 76.7713 37.3416 77.8508 36.1818L76.8517 35.022C75.9316 35.9019 74.8522 36.5019 73.4928 36.5019C71.3728 36.5019 69.7335 35.0622 69.4938 32.9033ZM90.3273 37.8612V30.9842C90.3273 28.4651 88.8474 26.6651 86.2479 26.7053C84.8484 26.7053 83.6886 27.2249 82.889 28.1048V26.945H81.29V37.8612H83.0096V31.1837C83.0096 29.4641 84.2096 28.2641 85.889 28.2641C87.5684 28.2641 88.6077 29.4641 88.6077 31.1837V37.8612H90.3273ZM94.045 34.8225L92.9656 35.9823C93.8455 37.1421 95.2852 38.1024 97.2071 38.101C99.2454 38.101 101.045 37.0202 101.045 34.9015C101.045 33.3426 100.125 32.5029 98.166 31.6632L97.1669 31.2239C95.9669 30.7043 95.4071 30.3842 95.4071 29.6249C95.4071 28.745 96.1679 28.2655 97.2071 28.2655C98.2062 28.2655 99.1665 28.7062 99.8856 29.4655L100.925 28.3861C100.085 27.3468 98.845 26.6665 97.2861 26.6665C95.2866 26.6665 93.6072 27.7459 93.6072 29.7052C93.6072 31.2641 94.6464 32.0636 96.3258 32.744L97.3651 33.1832C98.4847 33.6239 99.2842 33.9828 99.2842 34.943C99.2842 35.9421 98.3641 36.5019 97.2043 36.5019C95.845 36.5019 94.9249 35.7828 94.045 34.8225ZM112.158 31.3847H105.241C105.642 29.5043 107.081 28.2655 108.92 28.2253C110.638 28.2253 112.118 29.345 112.158 31.3847ZM105.202 32.9033H113.839C113.878 32.7038 113.958 32.1842 114 31.5814C114 28.7034 111.801 26.6637 109.002 26.6637C105.843 26.6637 103.404 29.1828 103.404 32.3823C103.404 35.622 105.923 38.101 109.201 38.101C110.96 38.101 112.48 37.3416 113.559 36.1818L112.56 35.022C111.64 35.9019 110.561 36.5019 109.201 36.5019C107.081 36.5019 105.442 35.0622 105.202 32.9033ZM-6 37.8612L0.637336 22.7866H1.6364L8.23355 37.8612H4.99525L4.15554 35.9421H-1.92199L-2.7617 37.8612H-6ZM3.07749 33.423L1.11816 28.4249L-0.881352 33.423H3.07749ZM21.8699 29.2244C23.4703 29.2244 24.7493 30.4244 24.7493 32.3034C24.7493 34.1837 23.4301 35.3823 21.8699 35.3421C20.4704 35.3421 19.0708 34.3818 19.0708 32.2632C19.0708 30.1445 20.4704 29.2244 21.8699 29.2244ZM19.111 36.7818C19.9106 37.6617 21.0704 38.1411 22.4297 38.1411C25.589 38.1411 27.8282 35.6622 27.8282 32.3034C27.8282 28.9445 25.589 26.5057 22.4297 26.5057C20.911 26.5057 19.6306 27.1057 18.8713 28.145V26.7455H16.0723V41.9794H19.111V36.7818ZM49.6206 33.5823V33.7029C49.6206 35.0234 48.5412 35.9019 47.301 35.9019C46.3421 35.9019 45.7019 35.4613 45.7019 34.7019C45.7019 33.9828 46.2617 33.5823 47.2608 33.5823H49.6206ZM52.6192 37.8612V31.2641C52.6192 28.1048 50.7 26.5057 47.822 26.5071C45.8627 26.5071 44.3024 27.2277 42.9833 28.7865L44.5421 30.6655C45.4608 29.7052 46.3005 29.1454 47.5005 29.1454C48.9001 29.1454 49.5804 29.9048 49.5804 31.1048V31.5842H46.7814C44.222 31.5842 42.5828 32.7828 42.5828 34.8225C42.5828 36.7014 43.9823 38.1411 46.4211 38.1411C47.8608 38.1411 49.0206 37.6215 49.8201 36.7818V37.8612H52.6192ZM13.0737 37.8612H10.0349V22.7866H13.0737V37.8612ZM33.2268 27.7057C33.946 26.945 35.0254 26.5057 36.2656 26.5057C38.8249 26.5057 40.4239 28.3057 40.4239 30.9842V37.8626H37.4254V31.3847C37.4254 30.0655 36.5843 29.2258 35.3455 29.2258C34.1067 29.2258 33.2268 30.1057 33.2268 31.3847V37.8626H30.188V22.788H33.2268V27.7057ZM-6 40.3014H13.0737V41.9808H-6V40.3014Z" fill="white"/>
</g>
<defs>
<clipPath id="clip0_4615_13063">
<rect width="108" height="64" fill="white"/>
</clipPath>
</defs>
</svg>
