<svg width="120" height="64" viewBox="0 0 120 64" fill="none" xmlns="http://www.w3.org/2000/svg">
<path fill-rule="evenodd" clip-rule="evenodd" d="M26.0865 23.5555C26.097 23.4767 26.1256 23.4014 26.1701 23.3356C34.3388 11.0697 48.0157 3.74646 62.7546 3.74646C71.6701 3.74646 80.2519 6.39898 87.5723 11.4162C94.7232 16.317 100.22 23.1385 103.471 31.1405C103.5 31.2129 103.511 31.2915 103.503 31.3692C103.495 31.4469 103.468 31.5214 103.424 31.5861C103.38 31.6507 103.322 31.7038 103.253 31.7405C103.184 31.7772 103.107 31.7966 103.029 31.7969H101.664C101.546 31.797 101.43 31.7623 101.332 31.6971C101.234 31.6319 101.157 31.5392 101.111 31.4305C97.9583 23.9882 92.7417 17.6552 86.0247 13.116C79.1406 8.46244 71.0941 6.00243 62.7546 6.00243C55.8502 6.00243 49.0112 7.73142 42.9751 11.0001C37.1282 14.1659 32.058 18.7482 28.3118 24.2518C28.2535 24.3385 28.1748 24.4095 28.0826 24.4585C27.9903 24.5075 27.8875 24.5331 27.783 24.5329C27.7133 24.5324 27.6441 24.5213 27.5777 24.4999L26.434 24.115C26.3589 24.0889 26.2907 24.046 26.2345 23.9896C26.1783 23.9333 26.1357 23.8649 26.1098 23.7896C26.084 23.7144 26.076 23.6343 26.0865 23.5555ZM55.2679 42.0494C55.2536 42.0474 55.2378 42.0451 55.2148 42.0419L50.8875 41.5318C50.8293 41.5255 50.8185 41.5236 50.7628 41.5103C50.7408 41.5058 50.7093 41.5006 50.6714 41.4942C50.3862 41.4467 49.7358 41.3381 50.0064 41.0445C50.0881 40.9531 50.3311 40.8841 50.4867 40.8399C50.495 40.8375 50.5031 40.8353 50.5109 40.833C52.0047 40.4257 53.8047 40.3643 55.4871 40.3069C56.0099 40.2891 56.5213 40.2716 57.0087 40.2443L57.0414 40.2422C57.5155 40.2124 58.5236 40.1491 59.0168 39.9921C59.4981 39.8428 59.8952 39.5024 60.0063 38.974C60.0613 38.6926 59.9268 38.5614 59.6636 38.4202C57.9585 37.5142 55.1521 37.512 53.4161 37.728C51.6225 37.9503 49.2217 38.5099 48.1968 39.9834C47.8057 40.5459 47.5763 41.4099 47.7561 42.1141C47.8575 42.5047 48.1992 42.8578 48.5484 43.0156C48.8961 43.1714 49.3321 43.2524 49.7336 43.3097C50.0545 43.3569 51.2113 43.4558 52.1861 43.5391C52.3957 43.5571 52.5969 43.5743 52.7795 43.5901C53.763 43.6711 55.6722 43.8807 56.7054 44.3115C56.7054 44.3115 57.6844 44.653 57.6777 45.2113C57.6755 45.4879 57.4693 45.7072 57.2593 45.8571C55.7254 46.9439 53.6179 47.2526 51.7425 47.2217C51.1077 47.2132 50.5834 47.1136 49.9384 46.8365C49.6637 46.7158 49.3035 46.4285 49.3553 46.1214C49.4595 45.5255 50.1189 45.3726 50.6648 45.4246C50.9687 45.4527 51.3665 45.5824 51.665 45.6993C51.9169 45.7988 52.1402 45.895 52.3455 45.9835C53.1198 46.3171 53.6379 46.5404 54.4739 46.4123C54.869 46.3527 56.2372 46.0559 56.4213 45.4929C56.4667 45.3554 56.4011 45.2066 56.2999 45.1043C56.1562 44.9571 55.3326 44.6363 55.1093 44.5556C54.3036 44.269 52.7758 44.0067 51.9272 43.9738C50.8142 43.9344 49.3365 44.1423 48.6466 45.0866C48.2137 45.6791 48.2024 46.4902 48.5582 47.1136C49.042 47.9645 50.0011 48.625 50.7865 49.0086C52.114 49.6507 53.7074 49.9563 55.1827 49.7939C56.0263 49.6976 56.7618 49.5252 57.5083 49.1633C58.2271 48.8175 59.0145 48.1651 59.3732 47.3871C59.8534 46.3415 59.8187 44.96 59.2874 43.9738C58.938 43.3235 58.5553 42.9587 57.9023 42.6704C57.1978 42.3555 56.2775 42.1867 55.3408 42.0594C55.3072 42.055 55.2892 42.0525 55.2679 42.0494ZM43.6001 31.9938C43.3199 32.3742 42.9856 32.8757 42.9856 32.8757C42.9856 32.8757 42.9146 32.7258 42.8686 32.6144C42.5513 31.8259 43.2525 30.9385 43.8902 30.3926C44.2767 30.0604 45.0502 29.5463 45.5776 29.4437C45.7999 29.3982 46.1921 29.3577 46.1921 29.3577C46.1921 29.3577 45.9413 29.5635 45.7287 29.7452C45.0334 30.3401 44.1102 31.3009 43.6001 31.9938ZM49.3604 32.9775C48.4818 33.4648 47.5381 33.7549 46.5307 33.8244C46.1373 33.8511 45.0985 33.8613 45.0681 33.7501C45.0596 33.7234 45.1278 33.623 45.2156 33.5137C45.2901 33.4188 45.3757 33.3005 45.4661 33.1756C45.5446 33.0673 45.6266 32.9539 45.7082 32.8465C46.4689 31.8657 47.8702 30.6369 48.8585 30.0627C49.1953 29.87 49.356 29.8067 49.7126 29.7023C50.2034 29.5564 50.4039 29.5296 50.7881 29.6961C51.0838 29.8221 51.318 30.0922 51.358 30.45C51.4894 31.5552 50.2221 32.4954 49.3604 32.9775ZM43.7596 36.0496C43.8304 35.9123 43.8993 35.7787 43.9656 35.7084C43.9786 35.6935 44.0528 35.7318 44.1102 35.7759C44.1565 35.8074 44.5895 35.9191 44.708 35.9293C44.8285 35.9373 44.9524 35.9581 45.077 35.979C45.1925 35.9983 45.3087 36.0178 45.4233 36.0273C46.1908 36.0964 47.2444 35.8495 47.921 35.5852C49.4612 34.9822 50.6502 34.116 51.8542 32.884C52.5574 32.1682 53.1747 30.992 52.9484 29.92C52.8356 29.3872 52.5917 29.0201 52.1465 28.636C51.9249 28.446 51.3824 28.1608 51.0056 28.0954C50.9781 28.0904 50.9489 28.0858 50.9197 28.0812C50.8326 28.0675 50.7457 28.0537 50.7064 28.0287C50.6633 28.001 50.6267 27.9521 50.5876 27.8999C50.5735 27.8811 50.5591 27.8618 50.5439 27.8429C50.2747 27.5 49.7389 27.1728 49.3543 27.041C48.173 26.6318 46.5965 26.9407 45.5208 27.3939C44.3827 27.876 43.3362 28.5842 42.5364 29.4364C41.7421 30.2791 41.1307 31.3476 41.1945 32.5075C41.2132 32.8795 41.3636 33.4557 41.5494 33.7861C41.6048 33.8842 41.6767 33.985 41.7496 34.0871C41.8851 34.2769 42.0239 34.4714 42.0659 34.6622C42.0905 34.772 42.0855 34.9035 42.0803 35.0374C42.0773 35.1154 42.0743 35.1943 42.0771 35.2702C42.0917 35.7425 42.297 36.2281 42.6519 36.5421C42.9051 36.7649 43.1272 36.7559 43.3894 36.5631C43.4641 36.5101 43.5769 36.3779 43.6378 36.2752C43.679 36.206 43.7196 36.1272 43.7596 36.0496ZM45.5226 38.1381C45.4604 38.1142 45.3882 38.0932 45.3413 38.0853C45.0038 38.0192 44.81 38.4848 44.719 38.716C44.4526 39.4016 44.2604 41.0367 44.2078 41.547C44.0495 43.092 43.9203 46.7535 44.1885 48.6192C44.3014 49.4011 44.5582 49.9094 45.3488 50.0729C45.6696 50.139 46.2531 50.1266 46.5095 49.9625C46.7333 49.8233 46.8896 49.5516 46.9421 49.3179C47.0755 48.7186 47.0387 47.8876 47.0091 47.218C47.0066 47.1617 47.0042 47.1065 47.0019 47.0527C46.986 46.678 46.9731 46.3042 46.9601 45.9294C46.9447 45.4852 46.9293 45.0397 46.9088 44.5903C46.8576 43.4866 46.726 40.6667 46.4178 39.3921C46.2847 38.8432 46.0626 38.3435 45.5226 38.1381ZM19.3034 41.3625C20.1132 41.2726 21.2899 41.1893 21.2899 41.1893C21.2899 41.1893 21.2642 42.3688 21.2579 43.5601C21.2472 45.8184 21.307 48.1109 21.307 48.1109C21.307 48.1109 20.5018 47.8227 20.0151 47.6213C18.5984 47.0282 16.675 45.8068 15.7264 45.0149C15.5001 44.8262 14.693 44.0499 14.5505 43.882C14.3039 43.593 14.0822 43.3136 14.1443 42.9564C14.2035 42.6117 14.8844 42.3268 15.2196 42.2068C16.3371 41.8077 18.273 41.4735 19.3034 41.3625ZM42.7467 44.0357C42.7741 43.8821 42.9324 42.7176 42.865 42.1017C42.8735 41.9096 42.7953 41.4899 42.7482 41.2375C42.7319 41.1501 42.7194 41.0827 42.7155 41.0518C42.705 41.0392 42.6328 40.7277 42.5812 40.5052L42.577 40.4873C42.5247 40.2617 42.2102 39.4804 42.1367 39.3498C42.0027 39.1107 41.9023 38.8943 41.8051 38.685C41.7474 38.5605 41.6908 38.4386 41.629 38.3159C40.9405 36.9422 39.5233 35.2114 38.3839 34.0823C37.7949 33.4979 36.9816 32.7672 36.3598 32.2589C36.0618 32.011 34.1429 30.6011 33.815 30.3847C32.7753 29.704 30.9245 28.6624 29.7498 28.0961C28.1128 27.3078 25.8767 26.4412 24.1687 25.9248C21.1844 25.0187 18.2693 24.4801 15.1892 24.5965C13.8284 24.6485 12.0087 24.9257 10.5676 25.3223C9.55296 25.5993 8.86012 26.0418 8.37641 26.8924C8.13566 27.3175 7.91278 27.7774 8.03415 28.2465C8.13878 28.6449 8.70838 28.7849 9.16588 28.8578C9.60611 28.9274 10.6059 28.9819 10.8715 28.6589C10.9847 28.5183 10.9729 28.3854 10.8781 28.2168C10.7784 28.0395 10.5264 27.9124 10.2844 27.8668C10.1747 27.8468 10.0236 27.8295 9.87437 27.8125C9.65555 27.7875 9.44084 27.7629 9.36701 27.7307C9.29796 27.7015 9.22568 27.6616 9.22568 27.6616C9.24383 27.6413 9.26339 27.6223 9.28423 27.6048C9.33737 27.5618 9.53092 27.4805 9.65374 27.4504C9.75727 27.4272 9.86671 27.3944 9.97772 27.3612C10.0334 27.3445 10.0895 27.3277 10.1455 27.3119C11.3177 26.9876 13.6368 26.934 14.7004 26.9734C18.8262 27.1273 22.6684 28.0465 26.5559 29.6442C30.3637 31.2102 34.6919 33.8814 37.2169 37.1286C38.1726 38.3576 39.3693 40.3762 39.5136 42.0766C39.6453 43.6335 39.1478 45.1242 38.1977 46.2134C37.4769 47.0365 36.5248 47.6446 35.487 48.133C33.1231 49.2485 30.2481 49.4792 27.6722 49.4112C27.3339 49.4028 26.0608 49.2882 25.7604 49.2427C25.2367 49.1578 24.5723 49.0312 24.5723 49.0312L24.4024 41.0601C24.4024 41.0601 25.2061 41.0885 25.7711 41.1216C27.2146 41.207 30.2018 41.7004 31.6979 42.2948C32.0168 42.4202 32.3514 42.6152 32.381 42.9313C32.4025 43.1749 32.2096 43.3827 31.9953 43.5715C31.8931 43.6645 31.7798 43.7445 31.6579 43.8096C31.3999 43.9452 30.9628 44.1777 30.9319 44.2158C30.8504 44.3245 30.8446 44.4848 30.9575 44.5736C31.2452 44.7964 32.1804 44.9206 32.4289 44.9063C33.2638 44.859 34.0872 44.2927 34.5226 43.5308C34.9098 42.856 34.9478 42.3386 34.6937 41.591C34.42 40.7754 33.5756 40.0048 32.6734 39.5474C31.5777 38.9919 29.6673 38.5752 28.6873 38.4181C27.9217 38.2961 27.1087 38.1797 26.3712 38.1625C25.6122 38.141 24.3783 38.1775 24.3783 38.1775C24.3783 38.1775 24.3545 37.0959 24.3067 36.3768C24.2267 35.1967 23.8999 32.8771 22.8244 32.2083C22.6278 32.0875 22.3867 32.0726 22.2504 32.2567C22.042 32.5291 21.8378 33.5668 21.7918 33.8363C21.7035 34.3348 21.4287 36.6921 21.4378 37.051C21.4449 37.416 21.4084 38.4139 21.3868 38.4444C21.3743 38.4586 21.3623 38.4698 21.3451 38.4831C21.3029 38.5105 20.6158 38.6335 20.1729 38.6969C19.2351 38.8335 16.9776 39.5707 16.2516 39.8912C15.2624 40.3237 13.8172 41.0827 13.4149 42.0908C13.1232 42.814 13.2336 43.4198 13.6172 44.1024C14.1105 44.9761 14.7591 45.657 15.48 46.3414C15.7371 46.5836 16.9019 47.5591 17.173 47.7615C18.1517 48.4846 19.2703 49.1878 20.4481 49.7681C20.8315 49.9594 21.2914 50.1772 21.2914 50.1772C21.2914 50.1772 21.3821 51.0994 21.4687 51.6299C21.5759 52.2932 21.7965 52.8683 22.4113 53.127C22.7857 53.287 23.2154 53.262 23.6206 53.1868C23.9563 53.1223 24.1872 52.9724 24.3278 52.6819C24.3815 52.5736 24.4771 52.2391 24.4925 52.112C24.5242 51.8335 24.521 51.4375 24.521 51.4375C24.521 51.4375 25.5115 51.6658 26.1771 51.7868C28.1111 52.1447 30.2084 52.177 32.0336 51.9566C34.7234 51.6282 37.8588 50.6315 39.8842 48.8809C40.4288 48.4097 41.3463 47.3089 41.7321 46.6145C41.9573 46.2089 42.1698 45.8023 42.3853 45.306C42.4296 45.2063 42.6965 44.3897 42.7467 44.0357ZM76.3512 40.8565C76.3512 40.8565 80.1441 40.6718 81.5865 40.3392C82.327 40.1642 81.8914 39.4369 81.8912 39.4368C80.9921 37.6385 79.9553 37.7403 79.9553 37.7403C76.9721 37.6399 72.6367 38.4312 72.1637 38.6647C71.7214 38.8654 71.7698 39.1993 72.3467 39.9258C72.966 40.6917 74.007 40.62 74.007 40.62L73.0931 42.5109C72.3467 42.5634 72.0906 42.7957 72.0906 42.7957C71.6604 43.2555 72.2541 44.612 72.2541 44.612C72.2541 44.612 70.9588 47.5177 71.8981 49.0523C72.9067 50.6628 74.1 50.5858 74.1 50.5858C76.3708 50.7518 80.0997 48.3736 80.2986 47.5883C80.4654 46.9548 79.8883 46.2595 79.3669 46.1301C78.8802 46.0292 75.1441 46.7302 74.6974 46.8498C74.2165 46.9787 74.431 46.5272 74.431 46.5272L75.0084 44.5743C75.0084 44.5743 78.5741 44.4364 79.094 44.3498C79.5737 44.2637 79.6023 43.9252 79.6023 43.9252C79.6023 43.9252 79.6644 43.3656 79.6466 42.8442C79.5941 42.2851 79.1473 42.337 79.1473 42.337C77.7684 42.1929 75.8729 42.3548 75.8729 42.3548L76.3512 40.8565ZM67.719 48.8719C68.9736 49.4685 69.9836 48.5087 70.3659 47.6095C70.754 46.7034 71.4145 43.7088 70.4316 40.3891C69.4422 37.0703 67.4038 36.0454 67.4038 36.0454C67.4038 36.0454 66.8757 35.7981 66.7421 36.325C66.6076 36.8463 66.8065 37.4027 66.8065 37.4027C68.1217 41.8647 68.4208 44.5009 68.4208 44.5009C68.4208 44.5009 68.4818 45.2765 68.3305 45.3198C68.2255 45.3997 68.1076 45.2885 68.1076 45.2885C67.957 45.2941 66.5154 42.8752 66.5154 42.8752L66.2354 42.4016C64.649 39.8412 63.687 38.9692 63.687 38.9692C63.6814 38.964 63.6756 38.9585 63.6695 38.9529C63.4331 38.7309 62.8666 38.1992 62.1654 38.9778C61.4452 39.7817 60.8815 42.3634 60.6549 44.7899C60.4621 47.2118 60.6091 48.5907 60.9625 49.171C61.3513 49.7601 62.1009 49.9608 62.72 49.4566C63.2175 49.0738 63.265 47.1314 63.3048 45.5029C63.3173 44.992 63.3291 44.5121 63.3537 44.1209C63.4529 42.4756 63.6147 42.7696 63.6147 42.7696C63.7588 42.7308 64.5077 44.2364 64.5077 44.2364C64.5077 44.2364 66.4805 48.2741 67.719 48.8719ZM85.2754 49.8304C88.7567 50.6308 91.3762 47.2408 92.3041 45.6218C92.8489 44.649 93.1434 43.351 93.1429 42.1297C93.1429 40.7393 92.7607 39.449 91.9316 38.8558C89.4634 37.1431 85.4812 42.5742 83.7294 45.2675C83.4684 43.8957 84.396 42.1565 84.396 42.1565C84.396 42.1565 85.883 39.5822 86.0938 39.059C86.2967 38.5328 86.4151 37.4505 86.1594 37.3433C85.9273 37.2368 85.5269 37.5826 85.5269 37.5826C82.1867 40.5802 81.7204 43.906 81.7204 43.906C81.4043 45.697 81.7735 46.9548 82.315 47.8351C80.4583 51.7906 79.5499 55.2401 79.792 57.2807C80.0171 58.8342 81.1295 59.9571 81.8049 60.1934C82.4864 60.4783 82.6078 59.6583 82.6078 59.6583C83.16 55.4384 84.1258 52.6182 85.2754 49.8304ZM90.3996 41.4652C91.4464 40.2856 91.5838 41.3564 91.5838 41.3564C91.8282 43.4391 90.313 45.0048 89.6626 45.5819C89.2625 45.961 87.9394 46.7052 86.5677 46.8592C87.8751 44.3259 89.4991 42.4607 90.3996 41.4652ZM105.102 41.1126H111.482C111.619 41.1128 111.751 41.1675 111.848 41.2647C111.945 41.3619 112 41.4936 112 41.631V42.9576C112 43.2431 111.767 43.4764 111.482 43.4764H105.189C105.193 43.8038 105.196 44.098 105.196 44.372C105.196 46.3215 105.116 47.916 104.93 49.7055C104.917 49.833 104.858 49.9514 104.763 50.0375C104.668 50.1235 104.544 50.1711 104.416 50.1709H103.052C102.985 50.1708 102.918 50.1566 102.857 50.1291C102.796 50.1016 102.741 50.0615 102.696 50.0113C102.65 49.9613 102.616 49.9019 102.594 49.8372C102.573 49.7725 102.566 49.7041 102.574 49.6364C102.766 47.8591 102.849 46.2841 102.849 44.3722C102.849 44.0971 102.846 43.8039 102.842 43.4765H96.6156C96.4782 43.4762 96.3464 43.4215 96.2493 43.3242C96.1521 43.227 96.0975 43.0952 96.0973 42.9578V41.6311C96.0973 41.3463 96.3296 41.1147 96.6156 41.1147H102.754C102.623 38.9618 102.358 36.8898 101.941 34.7846C101.928 34.7218 101.93 34.657 101.946 34.5949C101.962 34.5329 101.991 34.4751 102.032 34.4257C102.072 34.3765 102.123 34.3368 102.18 34.3095C102.238 34.2822 102.3 34.268 102.364 34.2678H103.835C103.946 34.2681 104.053 34.307 104.138 34.378C104.223 34.4489 104.281 34.5473 104.301 34.6563C104.713 36.8317 104.974 38.9441 105.102 41.1126Z" fill="#D4D9E6"/>
</svg>
