<svg width="120" height="64" viewBox="0 0 120 64" fill="none" xmlns="http://www.w3.org/2000/svg">
<g clip-path="url(#clip0_7394_6518)">
<path d="M39.1136 35.7456C39.8663 36.2412 41.2209 36.8351 42.6263 36.8351C43.8303 36.8351 44.6833 36.2909 44.6833 35.251C44.6833 32.9239 38.4112 33.6664 38.4112 29.6552C38.4112 27.3772 40.4181 26.1888 42.8266 26.1888C44.5327 26.1888 45.436 26.7336 46.5903 27.4767L45.6363 28.9126C44.4825 28.4171 43.8805 28.0706 42.7262 28.0706C41.5724 28.0706 40.6691 28.5657 40.6691 29.6055C40.6691 31.9824 46.9412 31.1404 46.9412 35.2008C46.9412 37.2308 45.1849 38.7165 42.5761 38.7165C40.5687 38.7165 39.0634 37.875 38.1602 37.1816L39.1136 35.7456ZM49.9016 45.0057V26.4865H52.0591V27.8728C52.0591 28.2192 52.0089 28.5165 52.0089 28.5165H52.0591C52.0591 28.5165 53.113 26.239 56.1235 26.239C59.3851 26.239 61.4427 28.8137 61.4427 32.5277C61.4427 36.3401 59.134 38.8159 55.9227 38.8159C53.1632 38.8159 52.1595 36.687 52.1595 36.687H52.1093C52.1093 36.687 52.1595 37.1324 52.1595 37.7264V45.1046H49.9016V45.0057ZM55.5717 36.7859C57.4781 36.7859 59.0838 35.251 59.0838 32.5277C59.0838 29.9033 57.679 28.2197 55.6721 28.2197C53.8656 28.2197 52.1595 29.4574 52.1595 32.5277C52.1595 34.6566 53.3635 36.7859 55.5717 36.7859ZM70.8263 28.6159C68.4679 28.6159 66.3602 31.1906 66.3602 33.5178V38.5187H64.052V26.487H66.3105V28.6159C66.3105 29.1115 66.2602 29.5076 66.2602 29.5076H66.3105C66.8622 27.923 69.0197 26.3384 70.8765 26.3384V28.6164L70.8263 28.6159ZM73.2348 38.5684V26.487H75.5434V38.5197H73.2348V38.5689V38.5684ZM87.5359 38.5684V31.3392C87.5359 29.6557 87.1844 28.3187 85.278 28.3187C82.9192 28.3187 81.2135 30.2497 81.2135 32.7255V38.5192H78.9049V26.4865H81.1633V28.3187C81.1633 28.6651 81.1131 29.0115 81.1131 29.0115H81.1633C81.6649 27.9722 83.12 26.1898 85.7796 26.1898C88.6395 26.1898 89.9444 27.7247 89.9444 30.7945V38.5192H87.5359V38.5684ZM101.285 38.5684L97.6214 32.8741H95.8154V38.5684H93.5068V20H95.8154V30.8442H97.5712L100.983 26.4865H103.442L99.5284 31.7354V31.7846L103.894 38.5192L101.285 38.5684ZM110.367 38.5684C108.46 38.5684 106.303 38.2219 106.303 35.251V20H108.611V34.9041C108.611 36.3898 109.865 36.4395 110.367 36.4395V38.5684ZM119.951 28.5165C117.593 28.5165 115.485 31.0917 115.485 33.4189V38.4198H113.177V26.3876H115.435V28.5165C115.435 29.0121 115.384 29.4082 115.384 29.4082H115.435C115.987 27.8236 118.144 26.239 120.001 26.239V28.5165H119.951ZM74.3891 23.9615C75.1925 23.9615 75.8442 23.3188 75.8442 22.5255C75.8442 21.7322 75.193 21.0895 74.3891 21.0895C73.5858 21.0895 72.9341 21.7322 72.9341 22.5255C72.9341 23.3188 73.5853 23.9615 74.3891 23.9615Z" fill="#D4D9E6"/>
<g clip-path="url(#clip1_7394_6518)">
<path d="M2.31362 23.5063C2.41403 21.9875 3.66625 20.6715 5.32014 20.7729C5.77102 20.8231 6.32232 20.8231 7.17437 21.4813C10.8818 24.7716 13.087 30.5431 12.4353 35.554C12.3851 35.807 12.1345 35.807 12.0341 35.554C10.9822 31.96 7.52433 27.8599 4.46759 26.5942C3.01454 26.0373 2.2132 24.9744 2.31362 23.5063Z" fill="#FAA21B"/>
<path d="M11.8813 41.1729C10.9293 38.0349 6.21969 32.8206 2.76128 32.8206C2.38655 32.8144 2.01459 32.8858 1.6688 33.0304C1.32301 33.1749 1.01086 33.3894 0.752006 33.6604C0.493148 33.9315 0.293176 34.2531 0.16467 34.6052C0.0361627 34.9572 -0.0180987 35.3321 0.00529865 35.7061C0.105717 37.4273 1.55877 38.2879 2.8617 38.2879C5.81802 38.2879 9.37584 39.5532 11.581 41.3758C11.7312 41.4767 11.9315 41.3758 11.8813 41.1729Z" fill="#70BF54"/>
<path d="M16.143 44.919C16.0928 45.1721 15.8418 45.1721 15.7418 44.919C11.8331 32.6177 18.8488 19.1019 24.06 19.001C26.8165 18.9498 28.7204 20.9752 28.7204 23.2527C28.7204 24.8218 28.2193 26.0875 26.4158 27.0998C21.8553 29.6815 16.744 36.3634 16.143 44.9185V44.919Z" fill="#00BAE9"/>
<path d="M20.5508 41.3251C20.4002 41.426 20.1999 41.3251 20.2501 41.1222C21.202 37.9841 25.9127 32.7699 29.3701 32.7699C29.7448 32.7636 30.1169 32.835 30.4627 32.9795C30.8086 33.124 31.1208 33.3385 31.3797 33.6095C31.6386 33.8806 31.8386 34.2023 31.9671 34.5544C32.0957 34.9065 32.15 35.2813 32.1266 35.6554C32.0261 37.3766 30.5726 38.2372 29.2696 38.2372C26.3635 38.2372 22.8057 39.6039 20.5508 41.3251Z" fill="#128ACB"/>
</g>
</g>
<defs>
<clipPath id="clip0_7394_6518">
<rect width="120" height="28" fill="white" transform="translate(0 18)"/>
</clipPath>
<clipPath id="clip1_7394_6518">
<rect width="32.1339" height="26.1088" fill="white" transform="translate(0 19)"/>
</clipPath>
</defs>
</svg>
