<svg width="120" height="64" viewBox="0 0 120 64" fill="none" xmlns="http://www.w3.org/2000/svg">
<path d="M60.3297 31.5881C60.0727 32.0891 59.9477 32.6361 59.9477 33.2261C59.9477 33.816 60.076 34.3632 60.3297 34.8641C60.5835 35.3651 60.9396 35.7572 61.3976 36.0473C61.8523 36.3373 62.373 36.4824 62.9499 36.4824C63.5268 36.4824 64.0178 36.3637 64.4295 36.1231C64.8385 35.8825 65.1418 35.5595 65.3394 35.1509H67.8771C67.653 35.7836 67.3266 36.3671 66.905 36.8944C66.48 37.4216 65.9295 37.8468 65.2536 38.1731C64.5749 38.4994 63.7872 38.6609 62.8839 38.6609C61.8985 38.6609 60.9958 38.4203 60.1783 37.9325C59.3576 37.4447 58.718 36.7889 58.2534 35.955C57.7855 35.1245 57.5549 34.2149 57.5549 33.2261C57.5549 32.2374 57.7888 31.3311 58.2534 30.4972C58.718 29.6666 59.3609 29.0075 60.1783 28.5197C60.9958 28.0353 61.8952 27.7913 62.8839 27.7913C63.7872 27.7913 64.5749 27.9528 65.2536 28.2791C65.9323 28.6021 66.4833 29.0305 66.905 29.5579C67.3266 30.0852 67.6497 30.6685 67.8771 31.3014H65.3394C65.1418 30.8927 64.8385 30.5696 64.4295 30.3291C64.0211 30.0886 63.5268 29.9699 62.9499 29.9699C62.373 29.9699 61.8556 30.1182 61.3976 30.4049C60.9396 30.6949 60.5835 31.0871 60.3297 31.5881ZM70.6591 31.7827C70.8402 31.2125 71.1732 30.7379 71.6543 30.3655C72.1321 29.9931 72.7817 29.8053 73.5991 29.8053C74.1099 29.8053 74.5679 29.9041 74.9862 30.1018C75.4018 30.2995 75.7415 30.5698 76.0117 30.9159C76.2782 31.2587 76.4631 31.6508 76.5583 32.0892H70.5699C70.5963 31.9869 70.6261 31.8848 70.6591 31.7827ZM78.5031 35.7179C78.5719 35.5465 78.638 35.3751 78.6941 35.2005H76.3706C76.298 35.3389 76.2121 35.4674 76.1169 35.5926C75.8466 35.9387 75.507 36.2089 75.0919 36.4067C74.6763 36.6045 74.258 36.6571 73.7505 36.6571C73.1736 36.6571 72.6297 36.522 72.1222 36.255C71.6114 35.9848 71.2062 35.6256 70.893 35.1642C70.6261 34.7719 70.4681 34.3369 70.4218 33.8657H78.9083C78.9644 32.7385 78.7932 31.7101 78.4007 30.7873H78.3974C78.0022 29.8645 77.3956 29.1361 76.5782 28.5989C75.7607 28.0618 74.782 27.7948 73.6415 27.7948C72.6132 27.7948 71.6774 28.0386 70.8402 28.5232C70.0029 29.0109 69.344 29.6668 68.8629 30.4907C68.3818 31.318 68.1446 32.2243 68.1446 33.2098C68.1446 33.4339 68.1572 33.6514 68.1837 33.8657C68.2629 34.6171 68.487 35.3158 68.853 35.9683C69.3242 36.8088 69.987 37.4745 70.8402 37.9689C71.6939 38.46 72.6628 38.7105 73.7472 38.7105C74.8877 38.7105 75.8664 38.4434 76.6839 37.9063C77.5013 37.3691 78.1079 36.6407 78.5031 35.7179ZM50.1025 34.8773C49.8125 35.3849 49.4269 35.787 48.9391 36.0835H48.9457C48.4579 36.3801 47.9208 36.5253 47.3274 36.5253C46.7342 36.5253 46.197 36.3801 45.7092 36.0835C45.2214 35.787 44.8357 35.3849 44.5458 34.8773C44.2558 34.3697 44.1108 33.8556 44.1108 33.2491C44.1108 32.6428 44.2525 32.0923 44.5326 31.5914C44.8128 31.0905 45.2017 30.6981 45.696 30.4082C46.1904 30.1182 46.731 29.9731 47.3241 29.9731C47.9174 29.9731 48.4612 30.1214 48.9523 30.4082C49.4466 30.6981 49.8355 31.0905 50.1157 31.5914C50.3958 32.0923 50.5375 32.6692 50.5375 33.2491C50.5375 33.8292 50.3926 34.3697 50.1025 34.8773ZM50.1652 28.5263C49.3115 28.0352 48.3656 27.788 47.3209 27.788C46.2761 27.788 45.3302 28.0352 44.4766 28.5263C43.623 29.0239 42.9572 29.6897 42.4694 30.5268C41.9849 31.3673 41.7412 32.2703 41.7412 33.2459C41.7412 34.2214 41.9783 35.1277 42.4497 35.9648C42.921 36.8053 43.5835 37.4745 44.4369 37.9655H44.4337C45.2874 38.4565 46.2531 38.7037 47.3209 38.7037C48.3887 38.7037 49.3511 38.4533 50.2048 37.9523C51.0583 37.4514 51.7207 36.7855 52.1921 35.9518C52.6634 35.1211 52.9007 34.2214 52.9007 33.2459C52.9007 32.2703 52.6601 31.3639 52.1724 30.5268C51.688 29.6865 51.0187 29.0173 50.1652 28.5263ZM54.0514 27.9826H56.3747V38.5127H54.0514V27.9826ZM85.8787 23.2892H86.5806V25.2767H86.0367C85.516 25.2767 85.1009 25.4216 84.7943 25.7117C84.4877 26.0017 84.2802 26.4467 84.1778 27.0531L84.0154 27.9826H86.5806V29.9898H83.6637L82.1708 38.5126H82.1664L82.0002 39.4618C81.7993 40.5889 81.3479 41.4359 80.6455 41.9963H80.6488C79.9437 42.5599 79.0833 42.8433 78.0683 42.8433C77.307 42.8433 76.7796 42.8366 76.4829 42.8234L76.8325 40.8362H77.9103C78.431 40.8362 78.8461 40.6911 79.1527 40.4011C79.4593 40.1111 79.6668 39.6661 79.7692 39.0596L81.3578 29.9898H79.6365V27.9826H81.709L81.9468 26.6511C82.1444 25.5239 82.5958 24.6768 83.3015 24.1165L83.2976 24.1133C84 23.5496 84.8637 23.2892 85.8787 23.2892ZM43.8575 23.2892L37.556 38.5126H35.0183L28.7166 23.2892H31.3599L36.3399 35.6257L41.3197 23.2892H43.8575ZM120 27.9826L116.111 38.5127H113.788L111.24 31.0615L108.692 38.5127H106.368L102.479 27.9826H104.899L107.585 35.6388L110.166 27.9826H112.43L114.99 35.6388L117.696 27.9826H120ZM88.1262 23.2892H90.4503V38.5126H88.1262V23.2892ZM100.045 34.8773C99.7547 35.3849 99.3694 35.787 98.8811 36.0835H98.8877C98.4 36.3801 97.8628 36.5253 97.2694 36.5253C96.6765 36.5253 96.1393 36.3801 95.6516 36.0835C95.1639 35.787 94.778 35.3849 94.4879 34.8773C94.1978 34.3697 94.053 33.8556 94.053 33.2491C94.053 32.6428 94.1945 32.0923 94.4747 31.5914C94.7549 31.0905 95.1468 30.6981 95.6384 30.4082C96.1327 30.1182 96.6732 29.9731 97.2666 29.9731C97.8595 29.9731 98.4033 30.1214 98.8943 30.4082C99.3886 30.6981 99.7778 31.0905 100.058 31.5914C100.338 32.0923 100.48 32.6692 100.48 33.2491C100.48 33.8292 100.335 34.3697 100.045 34.8773ZM100.107 28.5263C99.2538 28.0352 98.3075 27.788 97.2633 27.788C96.2185 27.788 95.2723 28.0352 94.4185 28.5263C93.5681 29.0239 92.8993 29.6897 92.4116 30.5268C91.9272 31.3673 91.6833 32.2703 91.6833 33.2459C91.6833 34.2214 91.9206 35.1277 92.3917 35.9648C92.8629 36.8053 93.5257 37.4745 94.3789 37.9655H94.3761C95.2294 38.4565 96.1921 38.7037 97.2633 38.7037C98.334 38.7037 99.2967 38.4533 100.15 37.9523C101.004 37.4514 101.666 36.7855 102.138 35.9518C102.609 35.1211 102.846 34.2214 102.846 33.2459C102.846 32.2703 102.602 31.3639 102.114 30.5268C101.63 29.6865 100.961 29.0173 100.107 28.5263ZM54.0514 23.2892H56.3747V25.6128H54.0514V23.2892ZM21.8305 34.168C22.0048 33.1348 22.0899 32.0246 22.0899 30.9185C22.0899 29.8125 22.0048 28.7022 21.8305 27.669C23.5039 27.9162 24.7924 29.2776 24.7924 30.9185C24.7924 32.5595 23.5039 33.9209 21.8305 34.168ZM20.2382 33.9937C19.1565 33.7264 14.728 31.1211 14.5254 31.0076V30.8293C14.728 30.7159 19.1565 28.1107 20.2382 27.8432C20.3881 28.7266 20.4854 29.7516 20.4854 30.9185C20.4854 32.0854 20.3881 33.1105 20.2382 33.9937ZM18.7269 37.62C18.6135 37.6971 18.4758 37.6808 18.3501 37.6159C17.6816 37.2553 15.2466 33.4508 15.2466 33.3211L15.3641 33.1956C16.0934 33.702 17.9451 34.9621 19.8696 35.5536C19.5171 36.676 19.0835 37.3809 18.7269 37.62ZM18.3501 24.221C18.4758 24.1562 18.6135 24.14 18.7269 24.217C19.0835 24.456 19.5171 25.161 19.8696 26.2834C17.9451 26.8749 16.0934 28.1349 15.3641 28.6415L15.2466 28.5159C15.2466 28.3862 17.6816 24.5816 18.3501 24.221ZM11.8755 31.0076C11.673 31.1211 7.24453 33.7264 6.16272 33.9937C6.01272 33.1105 5.9155 32.0854 5.9155 30.9185C5.9155 29.7516 6.01272 28.7266 6.16272 27.8432C7.24453 28.1107 11.673 30.7159 11.8755 30.8293V31.0076ZM8.05079 37.6159C7.92517 37.6808 7.78739 37.6971 7.674 37.62C7.31736 37.3809 6.88393 36.676 6.53136 35.5536C8.45593 34.9621 10.3075 33.702 11.0369 33.1956L11.1544 33.3211C11.1544 33.4508 8.71932 37.2553 8.05079 37.6159ZM7.674 24.217C7.78739 24.14 7.92517 24.1562 8.05079 24.221C8.71932 24.5816 11.1544 28.3862 11.1544 28.5159L11.0369 28.6415C10.3075 28.1349 8.45593 26.8749 6.53136 26.2834C6.88393 25.161 7.31736 24.456 7.674 24.217ZM4.57032 34.168C2.89704 33.9209 1.6086 32.5595 1.6086 30.9185C1.6086 29.2776 2.89704 27.9162 4.57032 27.669C4.39608 28.7022 4.311 29.8125 4.311 30.9185C4.311 32.0246 4.39608 33.1348 4.57032 34.168ZM21.466 26.0281C20.8703 23.9779 19.8696 22.5152 18.4758 22.5152C16.616 22.5152 14.0675 27.7379 14.0675 27.7379L13.9014 27.7014L13.946 27.114C13.9535 27.0014 13.9609 26.7707 13.9685 26.4799C14.0048 25.074 13.9892 23.6674 13.9259 22.2625L13.8708 21.0386C13.8697 21.017 13.852 21 13.8302 21H12.5706C12.549 21 12.5311 21.017 12.5301 21.0386L12.4751 22.2625C12.4117 23.6674 12.3961 25.074 12.4325 26.4799C12.4399 26.7707 12.4475 27.0014 12.4549 27.114L12.4995 27.7014L12.3334 27.7379C12.3334 27.7379 9.7849 22.5152 7.92517 22.5152C6.53136 22.5152 5.53057 23.9779 4.935 26.0281C2.20008 26.1173 0 28.2727 0 30.9185C0 33.5642 2.20008 35.7198 4.935 35.8089C5.53057 37.8591 6.53136 39.3217 7.92517 39.3217C9.7849 39.3217 12.3334 34.0991 12.3334 34.0991L12.4995 34.1355L12.4549 34.7231C12.4475 34.8356 12.4399 35.0663 12.4325 35.3572C12.3961 36.7629 12.4117 38.1697 12.4751 39.5746L12.5301 40.7983C12.5311 40.82 12.549 40.8371 12.5706 40.8371H13.8302C13.852 40.8371 13.8697 40.82 13.8708 40.7983L13.9259 39.5746C13.9892 38.1697 14.0048 36.7629 13.9685 35.3572C13.9609 35.0663 13.9535 34.8356 13.946 34.7231L13.9014 34.1355L14.0675 34.0991C14.0675 34.0991 16.616 39.3217 18.4758 39.3217C19.8696 39.3217 20.8703 37.8591 21.466 35.8089C24.2009 35.7198 26.4008 33.5642 26.4008 30.9185C26.4008 28.2727 24.2009 26.1173 21.466 26.0281Z" fill="#D4D9E6"/>
</svg>
