<svg width="120" height="64" viewBox="0 0 120 64" fill="none" xmlns="http://www.w3.org/2000/svg">
<g clip-path="url(#clip0_7394_29569)">
<mask id="mask0_7394_29569" style="mask-type:alpha" maskUnits="userSpaceOnUse" x="83" y="16" width="11" height="10">
<path fill-rule="evenodd" clip-rule="evenodd" d="M83.5234 16.884H93.3045V25.9002H83.5234V16.884Z" fill="#D4D9E6"/>
</mask>
<g mask="url(#mask0_7394_29569)">
<path fill-rule="evenodd" clip-rule="evenodd" d="M93.0668 19.4958L88.651 16.9478C88.5038 16.8628 88.3227 16.8628 88.1755 16.9479L83.7612 19.4958C83.614 19.5809 83.5234 19.7382 83.5234 19.9084V24.4349C83.5234 24.6153 83.625 24.7802 83.787 24.8609L85.7637 25.8499C85.8314 25.8835 85.9043 25.9002 85.9772 25.9002C86.0641 25.9002 86.1509 25.8763 86.2275 25.829C86.3681 25.7422 86.4535 25.589 86.4535 25.4238V21.6006C86.4535 21.4304 86.5441 21.2732 86.6913 21.1881L88.1755 20.3315C88.3227 20.2465 88.5038 20.2464 88.6518 20.3315L90.136 21.1882C90.2832 21.2732 90.3737 21.4305 90.3737 21.6007V25.4238C90.3737 25.5889 90.4599 25.7422 90.5998 25.829C90.7404 25.9158 90.9156 25.9236 91.0636 25.8499L93.041 24.861C93.2029 24.7803 93.3045 24.6153 93.3045 24.4349V19.9084C93.3045 19.7381 93.214 19.5809 93.0668 19.4958Z" fill="#D4D9E6"/>
</g>
<path fill-rule="evenodd" clip-rule="evenodd" d="M50.6594 21.2473H50.2512C49.8619 21.2473 49.5011 21.4231 49.2613 21.7293L40.4799 32.9344L31.7025 21.7296C31.4626 21.4231 31.1017 21.2473 30.7125 21.2473H30.2629C29.7793 21.2473 29.3466 21.5171 29.1337 21.9515C28.9208 22.3859 28.9725 22.8931 29.2689 23.2755L38.8044 35.5782V46.2283C38.8044 46.7676 39.2433 47.2065 39.7826 47.2065H40.7581C41.2973 47.2065 41.7362 46.7676 41.7362 46.2283V35.6716L51.6414 23.2907C51.9461 22.9099 52.0043 22.4 51.7928 21.9602C51.5816 21.5205 51.1473 21.2473 50.6594 21.2473Z" fill="#D4D9E6"/>
<path fill-rule="evenodd" clip-rule="evenodd" d="M10.7901 21.2917C2.82587 21.2917 0 28.3527 0 34.3992V46.1338C0 46.8273 0.564134 47.3915 1.25763 47.3915H1.59403C2.28752 47.3915 2.85166 46.8273 2.85166 46.1338V34.3992C2.85166 29.4413 4.93718 24.1435 10.7901 24.1435C16.6062 24.1435 18.6786 29.4413 18.6786 34.3992V46.1338C18.6786 46.8273 19.2427 47.3915 19.9363 47.3915H20.2732C20.9667 47.3915 21.5308 46.8273 21.5308 46.1338V34.3992C21.5308 31.0377 20.6875 27.9225 19.1562 25.6272C17.2639 22.791 14.3708 21.2917 10.7901 21.2917Z" fill="#D4D9E6"/>
<mask id="mask1_7394_29569" style="mask-type:alpha" maskUnits="userSpaceOnUse" x="101" y="21" width="19" height="27">
<path fill-rule="evenodd" clip-rule="evenodd" d="M101.129 21.8892H119.38V47.8045H101.129V21.8892Z" fill="white"/>
</mask>
<g mask="url(#mask1_7394_29569)">
<path fill-rule="evenodd" clip-rule="evenodd" d="M110.75 32.4753L110.657 32.8839L110.749 32.4752C106.853 31.5937 105.145 30.9754 105.145 28.7568C105.145 25.927 107.627 24.6381 109.933 24.6381C112.196 24.6381 113.885 25.3323 115.247 26.8228C115.589 27.1967 116.17 27.2447 116.569 26.9321L117.195 26.442C117.407 26.2757 117.542 26.0258 117.566 25.7566C117.589 25.4862 117.499 25.2153 117.318 25.0132C115.401 22.8818 113.055 21.8892 109.933 21.8892C106.188 21.8892 102.396 24.2481 102.396 28.7568C102.396 33.4045 106.691 34.3758 110.143 35.1561C114.553 36.1542 116.631 36.9654 116.631 40.0779C116.631 43.3809 114.491 45.0555 110.267 45.0555C107.018 45.0555 105.026 43.9873 103.606 41.4835C103.469 41.2428 103.236 41.0703 102.967 41.01C102.7 40.9509 102.417 41.0067 102.192 41.1644L101.545 41.621C101.127 41.9153 101.006 42.472 101.263 42.9158C103.167 46.2054 106.113 47.8045 110.267 47.8045C116.059 47.8045 119.38 44.9882 119.38 40.0779C119.38 34.4282 114.393 33.2994 110.75 32.4753Z" fill="#D4D9E6"/>
</g>
<path fill-rule="evenodd" clip-rule="evenodd" d="M88.8665 27.4077H87.9699C87.431 27.4077 86.9922 27.8466 86.9922 28.3859V46.4126C86.9922 46.9519 87.431 47.3908 87.9699 47.3908H88.8665C89.4062 47.3908 89.8449 46.9519 89.8449 46.4126V28.3859C89.8449 27.8466 89.4062 27.4077 88.8665 27.4077Z" fill="#D4D9E6"/>
<path fill-rule="evenodd" clip-rule="evenodd" d="M69.8149 21.2917C66.2174 21.2917 63.3107 22.7907 61.4095 25.6266C59.8709 27.9217 59.0234 31.0372 59.0234 34.3992V46.1338C59.0234 46.8273 59.5877 47.3915 60.2812 47.3915H60.6183C61.3118 47.3915 61.876 46.8273 61.876 46.1338V34.3992C61.876 29.4413 63.9614 24.1435 69.8149 24.1435C72.0363 24.1435 73.8381 24.8976 75.1692 26.3849C75.5108 26.7661 76.0938 26.8172 76.4965 26.5017L77.2033 25.949C77.4153 25.7834 77.5508 25.5345 77.5751 25.2663C77.5994 24.9972 77.511 24.7269 77.3314 24.5249C75.4556 22.4097 72.8565 21.2917 69.8149 21.2917Z" fill="#D4D9E6"/>
</g>
<defs>
<clipPath id="clip0_7394_29569">
<rect width="120" height="30.9202" fill="white" transform="translate(0 16.884)"/>
</clipPath>
</defs>
</svg>
