<svg width="145" height="64" viewBox="0 0 145 64" fill="none" xmlns="http://www.w3.org/2000/svg">
<g id="Customer-Logo">
<g id="Vector">
<path fill-rule="evenodd" clip-rule="evenodd" d="M0 30.5318H6.39461V36.9272H0V30.5318ZM19.18 30.5318H25.5746V36.9272H19.18V30.5318ZM38.3599 30.5318H44.7538V36.9272H38.3599V30.5318Z" fill="#D4D9E6"/>
<path fill-rule="evenodd" clip-rule="evenodd" d="M53.7531 40.8088C53.7531 45.0577 54.484 45.7424 59.051 45.7886V47.57H43.5215V45.7886C48.0901 45.7424 48.8195 45.0577 48.8195 40.8088V17.4692C43.567 17.5608 40.5064 21.0319 40.0497 27.3803L38.36 27.1077L38.6803 15.9628H63.893L64.2126 27.1077L62.5221 27.3803C62.0661 21.0327 58.9601 17.5608 53.7531 17.4692V40.8088Z" fill="#D4D9E6"/>
<path fill-rule="evenodd" clip-rule="evenodd" d="M57.7681 30.5318H64.1627V36.9272H57.7681V30.5318ZM76.7763 18.5574C76.7763 17.5423 76.7162 17.1719 76.4828 16.937C76.3065 16.7606 75.8975 16.6451 75.4493 16.6451H75.1952V16.0197H79.8192C81.9656 16.0197 83.4682 16.6451 84.6203 18.0299C85.6146 19.2205 86.1429 20.7423 86.1429 22.4983C86.1429 24.5092 85.4783 26.2451 84.2491 27.4365C83.157 28.5286 81.713 29.0354 79.8192 29.0354H75.1952V28.4116H75.4493C75.8975 28.4116 76.3065 28.2937 76.4828 28.1189C76.7162 27.8832 76.7763 27.5136 76.7763 26.4985V18.5574ZM78.5715 26.577C78.5715 28.0604 78.8064 28.3345 80.1704 28.3345C82.9814 28.3345 84.0558 26.7342 84.0558 22.4983C84.0558 18.381 82.9429 16.7029 80.2112 16.7029C79.488 16.7029 79.0405 16.8392 78.8064 17.0926C78.6108 17.3267 78.5715 17.5608 78.5715 18.381V26.577ZM89.2436 24.4884C89.2613 27.338 89.9267 28.5494 91.467 28.5494C92.5214 28.5494 93.2045 27.9826 93.8861 26.5385L94.4729 26.8505C93.635 28.5494 92.6184 29.3103 91.1559 29.3103C88.8924 29.3103 87.4283 27.4365 87.4283 24.4884C87.4283 21.7574 88.9116 19.7866 90.9587 19.7866C93.0874 19.7866 94.4922 21.6003 94.59 24.4884H89.2436ZM92.774 23.806C92.7932 21.7189 92.1494 20.4697 91.0573 20.4697C89.9652 20.4697 89.2821 21.7582 89.2613 23.806H92.774ZM102.022 27.0268C101.36 28.5502 100.462 29.2318 99.194 29.2318C98.3353 29.2318 97.6714 28.9006 97.3002 28.2752C96.929 27.6514 96.8127 27.0461 96.8127 25.582V22.2264C96.8127 20.938 96.6363 20.6653 95.8169 20.6653H95.6035V20.06L98.4523 19.9237V26.0895C98.4523 26.9298 98.5109 27.3187 98.6872 27.6907C98.842 28.0812 99.2333 28.3353 99.6622 28.3353C100.324 28.3353 100.95 27.9056 101.36 27.1239C101.73 26.4615 101.867 25.7591 101.867 24.6463V22.2264C101.867 20.938 101.691 20.6653 100.873 20.6653H100.578V20.06L103.507 19.9237V26.8512C103.507 28.1382 103.682 28.4324 104.503 28.4324H104.716V29.0369L102.022 29.174V27.0268ZM108.266 26.1288C108.266 26.9298 108.305 27.2802 108.404 27.6522C108.54 28.1204 108.911 28.4131 109.358 28.4131C110.099 28.4131 110.549 27.6137 110.549 26.2259V25.954H111.193V26.3237C111.193 28.236 110.411 29.231 108.87 29.231C108.129 29.231 107.524 28.9961 107.174 28.5671C106.745 28.0604 106.628 27.4943 106.628 26.128V20.7231H105.221V20.1763C106.919 19.7666 107.485 18.9856 107.72 16.6828H108.266V20.0584H110.901V20.7223H108.266V26.1288ZM117.575 22.8903H116.988C116.657 21.2314 115.916 20.4312 114.705 20.4312C113.865 20.4312 113.243 21.0165 113.243 21.7967C113.243 22.5376 113.633 22.8903 114.864 23.2808C116.11 23.6897 116.639 23.9239 117.069 24.2566C117.769 24.8026 118.102 25.4857 118.102 26.3629C118.102 28.0411 116.893 29.2318 115.173 29.2318C114.394 29.2318 113.944 29.0747 112.989 28.5094C112.925 28.4667 112.852 28.44 112.776 28.4316C112.637 28.4316 112.522 28.5671 112.443 28.8213L112.384 29.0362H111.838V25.7391H112.384C112.637 26.6548 112.833 27.1446 113.144 27.5528C113.633 28.2167 114.373 28.6064 115.173 28.6064C116.071 28.6064 116.736 27.924 116.736 27.0268C116.736 26.4615 116.442 25.954 115.936 25.6405C115.505 25.3679 115.486 25.3679 114.219 24.9382C112.656 24.4306 111.934 23.5927 111.934 22.3227C111.934 20.8787 113.007 19.8644 114.569 19.8644C115.194 19.8644 115.856 20.0592 116.403 20.3912C116.52 20.4497 116.616 20.4897 116.697 20.4897C116.814 20.4897 116.93 20.3326 116.988 20.06H117.575V22.8903ZM126.139 26.7534C125.436 28.5094 124.442 29.3103 122.939 29.3103C120.695 29.3103 119.153 27.3595 119.153 24.5099C119.153 21.7382 120.793 19.7873 123.134 19.7873C124.754 19.7873 126.022 20.8995 126.022 22.3058C126.022 23.0266 125.553 23.5349 124.91 23.5349C124.345 23.5349 123.916 23.0844 123.916 22.4798C123.916 21.9345 124.306 21.4848 124.832 21.4848C124.91 21.4848 124.949 21.4848 125.027 21.5425C124.735 20.8594 124.092 20.4689 123.31 20.4689C121.807 20.4689 121.046 21.8152 121.046 24.5092C121.046 27.2602 121.77 28.5671 123.251 28.5671C124.228 28.5671 124.969 27.9056 125.515 26.4993L126.139 26.7534ZM133.144 23.2207C133.144 22.0901 133.087 21.6396 132.852 21.2892C132.637 20.8995 132.287 20.7038 131.876 20.7038C131.232 20.7038 130.627 21.1336 130.257 21.8752C129.905 22.5977 129.768 23.3578 129.768 24.7033V26.8505C129.768 28.1589 129.944 28.4316 130.763 28.4316H131.075V29.0362H126.821V28.4316H127.134C127.953 28.4316 128.128 28.1382 128.128 26.8505V18.1862C128.128 16.8985 127.953 16.6259 127.134 16.6259H126.919V16.0197L129.768 15.8834V21.6781C130.392 20.4104 131.153 19.8644 132.286 19.8644C133.106 19.8644 133.769 20.157 134.161 20.7031C134.647 21.3854 134.784 22.0108 134.784 23.7082V26.8505C134.784 28.1589 134.96 28.4316 135.779 28.4316H135.993V29.0362H133.144V23.2207ZM138.74 24.4884C138.761 27.338 139.423 28.5494 140.966 28.5494C142.019 28.5494 142.702 27.9826 143.387 26.5385L143.971 26.8505C143.133 28.5494 142.118 29.3103 140.654 29.3103C138.39 29.3103 136.926 27.4365 136.926 24.4884C136.926 21.7574 138.41 19.7866 140.46 19.7866C142.587 19.7866 143.992 21.6003 144.088 24.4884H138.74ZM142.273 23.806C142.29 21.7189 141.648 20.4697 140.555 20.4697C139.462 20.4697 138.778 21.7582 138.761 23.806H142.273ZM80.7957 45.0739C80.7957 46.1074 80.8543 46.4602 81.0891 46.6928C81.2832 46.8691 81.6745 46.9854 82.1212 46.9854H82.5725V47.61H77.2268V46.9854H77.6735C78.1233 46.9854 78.5114 46.8691 78.7101 46.6928C78.942 46.4602 79.002 46.1074 79.002 45.0739V35.219H78.5915C77.4409 35.219 76.5036 35.8428 76.0554 36.9164C75.8013 37.5017 75.6842 38.0878 75.5864 39.1414L75.0211 39.1021L75.1189 34.5936H84.7397L84.8167 39.1021L84.2329 39.1414C83.8617 36.2918 82.983 35.219 81.0907 35.219H80.7973V45.0739H80.7957ZM87.5438 43.0646C87.5615 45.9126 88.227 47.1225 89.7673 47.1225C90.8216 47.1225 91.5048 46.5572 92.1879 45.1139L92.7732 45.4243C91.9337 47.1225 90.9187 47.8834 89.4561 47.8834C87.1926 47.8834 85.727 46.0089 85.727 43.0646C85.727 40.3313 87.2104 38.362 89.259 38.362C91.3861 38.362 92.7909 40.1757 92.8903 43.0646H87.5438ZM91.0758 42.3807C91.0935 40.2928 90.4489 39.0428 89.3568 39.0428C88.2647 39.0428 87.5816 40.3313 87.5623 42.3807H91.0758ZM96.7903 45.4235C96.7903 46.7313 96.9667 47.0054 97.7861 47.0054H98.0988V47.6092H93.8437V47.0054H94.1564C94.9743 47.0054 95.1507 46.732 95.1507 45.4235V36.7608C95.1507 35.4731 94.9743 35.2005 94.1564 35.2005H93.9431V34.5944L96.7903 34.4573V45.4235ZM100.829 43.0646C100.848 45.9126 101.512 47.1225 103.052 47.1225C104.107 47.1225 104.791 46.5572 105.475 45.1139L106.06 45.4243C105.22 47.1225 104.205 47.8834 102.741 47.8834C100.478 47.8834 99.0153 46.0089 99.0153 43.0646C99.0153 40.3313 100.499 38.362 102.546 38.362C104.673 38.362 106.079 40.1757 106.175 43.0646H100.829ZM104.361 42.3807C104.38 40.2928 103.736 39.0428 102.644 39.0428C101.551 39.0428 100.867 40.3313 100.849 42.3807H104.361ZM113.668 47.6092L110.858 43.0823L110.077 43.7662V45.4235C110.077 46.7313 110.252 47.0054 111.071 47.0054H111.443V47.6092H107.13V47.0054H107.442C108.262 47.0054 108.437 46.7136 108.437 45.4235V36.7608C108.437 35.4731 108.262 35.2005 107.442 35.2005H107.227V34.5944L110.076 34.4573V42.8289L112.712 40.5662C113.062 40.2543 113.277 39.9215 113.277 39.6682C113.277 39.3755 113.023 39.2384 112.436 39.2384H112.144V38.6338H115.989V39.2384H115.793C115.228 39.2384 114.974 39.3755 114.173 40.0971L112.028 42.0094L114.386 45.7763C114.973 46.7136 115.344 47.0054 115.969 47.0054H116.124V47.6092H113.668ZM124.866 43.1215C124.866 45.9704 123.285 47.8834 120.904 47.8834C118.544 47.8834 116.963 45.9711 116.963 43.1423C116.963 40.2342 118.544 38.362 120.962 38.362C123.285 38.3612 124.866 40.2928 124.866 43.1215ZM119.304 40.1549C118.992 40.8573 118.855 41.7753 118.855 43.0823C118.855 45.8926 119.518 47.2588 120.904 47.2588C122.289 47.2588 122.973 45.8933 122.973 43.1215C122.973 41.7761 122.835 40.8388 122.524 40.1549C122.192 39.414 121.587 38.9835 120.886 38.9835C120.241 38.9843 119.615 39.4533 119.304 40.1549ZM136.435 42.1273C136.435 40.8781 136.356 40.2335 136.182 39.8823C135.967 39.4926 135.617 39.2785 135.186 39.2785C134.64 39.2785 134.151 39.6289 133.821 40.2543C133.488 40.8789 133.41 41.3656 133.41 42.986V45.4243C133.41 46.732 133.587 47.0062 134.405 47.0062H134.68V47.61H131.771V42.4207C131.771 40.7626 131.732 40.3713 131.498 39.9223C131.285 39.5118 130.933 39.2792 130.483 39.2792C129.936 39.2792 129.45 39.6297 129.137 40.255C128.824 40.8981 128.747 41.4634 128.747 42.9868V45.4251C128.747 46.7536 128.904 47.007 129.741 47.007H130.015V47.6108H125.8V47.007H126.111C126.911 47.007 127.107 46.6943 127.107 45.4251V40.8018C127.107 39.5526 126.911 39.24 126.111 39.24H125.898V38.6354L128.628 38.4983V40.0987C128.999 39.1036 129.917 38.4405 130.913 38.4405C132.007 38.4405 132.707 38.9858 133.196 40.2173C133.76 39.0066 134.543 38.4405 135.617 38.4405C136.455 38.4405 137.197 38.8295 137.586 39.4741C137.958 40.0409 138.075 40.6855 138.075 41.9147V45.4259C138.075 46.7159 138.252 47.0078 139.071 47.0078H139.283V47.6116H136.436V42.1273H136.435Z" fill="#D4D9E6"/>
</g>
</g>
</svg>
