<svg width="121" height="64" viewBox="0 0 121 64" fill="none" xmlns="http://www.w3.org/2000/svg">
<path d="M24.9699 40.7185H22.7667L26.9427 22.9013H29.1235L24.9723 40.7185H24.9699ZM35.2179 40.7185H27.8603L32.0659 22.9013H34.2691L30.5291 38.7245H35.6787L35.2179 40.7185ZM40.9883 33.8289L39.3987 40.7185H37.1683L38.7831 33.7769L37.5535 22.9013H39.7843L40.4251 31.5829L45.2171 22.9013H47.7031L40.9883 33.8289ZM90.3299 24.8953H87.1003L83.6107 40.7185H81.3803L84.8699 24.8953H81.3323L81.8203 22.9013H90.8179L90.3299 24.8953ZM90.2575 40.7185H88.2823L92.2327 22.9013H94.4107L90.4879 40.7185H90.2575ZM104.656 27.9137L102.708 36.6561C102.444 37.8933 102.074 38.7781 101.595 39.4093C100.865 40.3949 99.6699 40.8757 98.0531 40.8757C95.3867 40.8757 93.8587 39.7125 93.8291 37.7181C93.8199 37.1365 93.8907 36.6065 94.1051 35.6477L96.0527 26.9053C96.7003 23.9477 98.2195 22.6069 100.861 22.6069C103.502 22.6069 104.877 23.8197 104.907 25.8409C104.916 26.4225 104.845 27.0289 104.654 27.9113H104.656V27.9137ZM100.76 24.4777C99.9915 24.4777 99.4055 24.7293 99.0039 25.2345C98.6755 25.6385 98.5067 26.1689 98.2627 27.2041L96.3151 35.9961C96.1943 36.5257 96.1255 37.0309 96.1303 37.4105C96.1463 38.4729 96.8463 39.0521 98.0507 39.0521C99.3323 39.0521 100.014 38.3201 100.423 36.5009L102.396 27.8101C102.587 26.9501 102.66 26.5461 102.653 26.1421C102.637 25.0549 101.962 24.4733 100.756 24.4733H100.758L100.76 24.4777ZM49.4111 22.9193H53.1035L54.1183 33.1353C54.3011 35.1045 54.4035 36.6945 54.5359 38.8457H54.5883C55.4459 36.7217 56.1759 35.1089 57.1359 33.1349L62.1763 22.9193H65.9215L63.9211 40.7117H61.4763L62.7511 30.0877C62.9859 28.1677 63.2459 26.5281 63.5587 24.5589L63.5059 24.5317C62.6211 26.4517 61.8411 28.1405 60.8811 30.0877L55.7331 40.7117H52.5859L51.5983 30.0877C51.4159 28.1677 51.2859 26.4517 51.1559 24.5589H51.1055C50.6655 26.4517 50.2479 28.1429 49.7007 30.0877L46.8407 40.7117H44.3703L49.4111 22.9201V22.9193ZM80.5255 31.8053C79.2047 38.6389 76.3311 41.0349 71.7991 41.0349C68.2251 41.0349 66.2567 39.5057 66.2567 35.5777C66.2567 34.4033 66.3847 33.2557 66.6719 31.8297C68.0451 24.9985 70.8687 22.6001 75.4255 22.6001C78.9723 22.6001 80.9679 24.1293 80.9679 28.0573C80.9679 29.2317 80.8127 30.3793 80.5275 31.8053H80.5255ZM75.1383 24.4889C72.1867 24.4889 70.1935 26.4021 69.1055 31.8813C68.8203 33.1549 68.6655 34.4053 68.6655 35.4273C68.6655 38.0773 69.8035 39.1485 72.0567 39.1485C75.0355 39.1485 77.0015 37.2353 78.1167 31.7557C78.3767 30.4825 78.5571 29.2317 78.5571 28.2097C78.5571 25.5825 77.4191 24.4889 75.1383 24.4889ZM8.07911 22.8969C7.65711 22.8969 3.96471 22.9577 3.96471 22.9577L0.253906 40.7477H2.00311V40.7457C2.99991 40.7365 3.36951 40.7569 4.34311 40.7569C8.89351 40.7569 11.7739 38.7153 13.0991 31.9041H13.1015C13.3867 30.4829 13.5439 29.3401 13.5439 28.1697C13.5439 24.2533 11.6419 22.8969 8.07911 22.8969ZM10.8779 31.8977C9.75791 37.3589 7.96511 38.6077 4.97511 38.6233C3.93031 38.6277 3.69311 38.6189 2.90191 38.6073L5.74151 24.8801V24.8849C6.63111 24.8645 6.84071 24.8557 7.65751 24.8645C9.94711 24.8845 11.3203 25.7493 11.3203 28.3677C11.3203 29.3849 11.1403 30.6317 10.8803 31.9001L10.8779 31.8981V31.8977ZM118.021 22.8969L114.495 38.8569L111.877 22.8969H108.191L104.184 40.7253H106.501L110.025 24.4913L112.622 40.7253H116.27L120.254 22.8969H118.021ZM19.3599 22.9025L12.0299 40.7201H14.3859L15.7203 37.3897L16.5663 35.3213L16.8651 34.5217H19.3375L19.2575 35.3213L19.0775 37.3917L18.8219 40.7221H21.0527L22.4339 22.9025H19.3579H19.3599ZM17.6471 32.4265L20.4867 24.5201L19.5515 32.4269L17.6471 32.4265Z" fill="#D4D9E6"/>
</svg>
