<svg width="108" height="64" viewBox="0 0 108 64" fill="none" xmlns="http://www.w3.org/2000/svg">
<g clip-path="url(#clip0_4615_6299)">
<path fill-rule="evenodd" clip-rule="evenodd" d="M8.303 27.4571C9.02975 28.3658 9.39313 29.7607 9.39313 31.6408C9.39313 33.6534 9.00826 35.1489 8.24117 36.1263C7.47333 37.1055 6.26738 37.5933 4.62157 37.5933H3.41563V26.0955H4.99177C6.47348 26.0955 7.57549 26.549 8.303 27.4571ZM12.2516 39.3628C14.0931 37.5101 15.014 34.8705 15.014 31.445C15.014 28.2618 14.1388 25.8295 12.3889 24.1442C10.6385 22.4598 8.15444 21.6171 4.93677 21.6171H-2V42.1431H4.48413C7.82115 42.1431 10.4101 41.2163 12.2516 39.3628ZM38.1348 42.1428H32.9751V21.531H38.1348V42.1428ZM45.8977 37.4599C45.5549 36.7711 45.3831 35.7687 45.3831 34.4545C45.3831 33.1386 45.5549 32.15 45.8977 31.4877C46.2413 30.8265 46.8073 30.4939 47.5993 30.4939C48.4092 30.4939 48.9803 30.8281 49.3154 31.4954C49.6494 32.1611 49.8161 33.1472 49.8161 34.4545C49.8161 35.7687 49.6521 36.7711 49.3222 37.4599C48.9925 38.1497 48.4263 38.4941 47.6258 38.4941C46.8166 38.4941 46.2412 38.1497 45.8977 37.4599ZM53.0955 40.3117C54.4115 38.9115 55.0677 36.9583 55.0677 34.4545C55.0677 32.8594 54.7627 31.4646 54.1512 30.2723C53.5405 29.0785 52.6712 28.1618 51.5452 27.5221C50.4199 26.882 49.1212 26.5617 47.6532 26.5617C45.2775 26.5617 43.4324 27.2531 42.1166 28.636C40.8007 30.0189 40.1436 31.9584 40.1436 34.4545C40.1436 36.8956 40.8145 38.8317 42.1569 40.2644C43.4977 41.6971 45.3041 42.4135 47.5735 42.4135C49.9397 42.4135 51.7806 41.7126 53.0955 40.3117ZM62.2773 42.143H57.1167V26.8324H62.2773V42.143ZM62.2771 24.9805H57.1166V21.53H62.2771V24.9805ZM75.2266 37.7096C74.2586 38.0609 73.4288 38.2379 72.7322 38.2379C71.8012 38.2379 71.3347 37.7422 71.3347 36.751V30.7917H74.6271V26.8336H71.3348V22.0193L66.1347 22.9237V26.8336H64.3275V30.7917H66.1346V37.1031C66.1346 38.9043 66.5177 40.2391 67.2814 41.1083C68.0485 41.9777 69.2973 42.4131 71.0298 42.4131C71.874 42.4131 72.6119 42.3479 73.2407 42.2164C73.8695 42.0867 74.5308 41.8677 75.2266 41.5619V37.7096ZM87.1699 37.7096C86.2019 38.0609 85.3722 38.2379 84.6756 38.2379C83.7437 38.2379 83.2772 37.7422 83.2772 36.751V30.7917H86.5713V26.8336H83.2772V22.0193L78.078 22.8644V26.8336H76.27V30.7917H78.078V37.1031C78.078 38.9043 78.4611 40.2391 79.2264 41.1083C79.9917 41.9777 81.2407 42.4131 82.9731 42.4131C83.8192 42.4131 84.5544 42.3479 85.1841 42.2164C85.8128 42.0867 86.4751 41.8677 87.1699 41.5619V37.7096ZM94.4001 30.7443C93.9913 31.1369 93.7517 31.7511 93.6813 32.5894H98.1143C98.0978 31.8506 97.8935 31.2605 97.5011 30.8199C97.111 30.3767 96.5853 30.1569 95.924 30.1569C95.3175 30.1569 94.8108 30.3526 94.4001 30.7443ZM95.7402 26.5622C97.9914 26.5622 99.7317 27.1643 100.958 28.3668C102.186 29.5684 102.799 31.301 102.799 33.5625V35.9135H93.5756C93.6108 36.7689 93.9175 37.4406 94.493 37.9276C95.0684 38.4139 95.8536 38.6569 96.8482 38.6569C97.7552 38.6569 98.5884 38.5684 99.3478 38.3922C99.8734 38.2712 100.43 38.0874 101.015 37.8486L101.808 41.299C101.003 41.7181 100.173 42.0084 99.3159 42.169C98.4535 42.3315 97.4246 42.413 96.2289 42.413C93.7387 42.413 91.8054 41.7344 90.4285 40.379C89.0525 39.0237 88.3627 37.0927 88.3627 34.5891C88.3627 32.0034 89.0008 30.0194 90.2764 28.6365C91.5528 27.2536 93.3737 26.5622 95.7402 26.5622ZM22.5811 30.7443C22.1723 31.1369 21.9327 31.7511 21.8622 32.5894H26.2961C26.278 31.8506 26.0744 31.2605 25.682 30.8199C25.291 30.3767 24.7655 30.1569 24.1057 30.1569C23.4984 30.1569 22.9908 30.3526 22.5811 30.7443ZM23.9211 26.5622C26.1732 26.5622 27.9126 27.1643 29.1399 28.3668H29.14C30.3666 29.5684 30.9799 31.301 30.9799 33.5625V35.9135H21.7565C21.7918 36.7689 22.0975 37.4406 22.6739 37.9276C23.2494 38.4139 24.0353 38.6569 25.0291 38.6569C25.9361 38.6569 26.7684 38.5684 27.5295 38.3922C28.0542 38.2712 28.6109 38.0874 29.1959 37.8486L29.9895 41.299C29.1838 41.7181 28.3541 42.0084 27.4968 42.169C26.6344 42.3315 25.6055 42.413 24.4098 42.413C21.9198 42.413 19.9863 41.7344 18.6102 40.379C17.2325 39.0237 16.5436 37.0927 16.5436 34.5891C16.5436 32.0034 17.1827 30.0194 18.4582 28.6365C19.7337 27.2536 21.5537 26.5622 23.9211 26.5622ZM107.032 36.5339C105.394 36.5339 104.063 37.8635 104.063 39.5023C104.063 41.1412 105.394 42.47 107.032 42.47C108.671 42.47 110 41.1412 110 39.5023C110 37.8635 108.671 36.5339 107.032 36.5339Z" fill="white"/>
</g>
<defs>
<clipPath id="clip0_4615_6299">
<rect width="108" height="64" fill="white"/>
</clipPath>
</defs>
</svg>
