<svg width="108" height="64" viewBox="0 0 108 64" fill="none" xmlns="http://www.w3.org/2000/svg">
<g clip-path="url(#clip0_4615_7327)">
<path fill-rule="evenodd" clip-rule="evenodd" d="M113.947 20.8992L113.946 20.902C113.968 20.9744 113.95 21.014 113.892 21.0277C112.724 21.0325 111.554 21.0282 110.384 21.024L110.384 21.024C109.583 21.021 108.783 21.0181 107.983 21.0181C107.585 21.0181 107.187 21.0185 106.789 21.019L106.789 21.019C105.993 21.0199 105.199 21.0208 104.405 21.0181C101.88 21.0208 99.3559 21.0199 96.8331 21.019H96.8328H96.8316C95.5703 21.0185 94.3093 21.0181 93.0484 21.0181C93.0273 21.0181 93.0063 21.0185 92.9856 21.0189C92.91 21.0202 92.8364 21.0216 92.7627 21.0044L92.7315 21.0181C91.3387 21.0208 89.9483 21.0199 88.5575 21.019H88.5573H88.557C87.8613 21.0185 87.1656 21.0181 86.4694 21.0181C85.6316 21.0319 84.7958 21.0307 83.9598 21.0295H83.9597C83.3934 21.0287 82.8272 21.0279 82.2602 21.0318C82.2376 21.0247 82.22 21.0211 82.2063 21.0183C82.1884 21.0146 82.1772 21.0123 82.1702 21.0056C82.1582 20.9943 82.1582 20.9704 82.1582 20.9062V20.9061C82.1582 20.7746 82.2542 20.6639 82.3607 20.5987C82.6975 20.3817 83.0281 20.1541 83.3589 19.9263L83.3589 19.9262L83.3592 19.9261C83.6128 19.7514 83.8638 19.5734 84.1234 19.3893C84.239 19.3073 84.3562 19.2242 84.4762 19.1396C84.741 18.9528 85.0117 18.7729 85.2821 18.5932L85.2821 18.5932C85.427 18.4969 85.5718 18.4007 85.7155 18.3035C85.8266 18.2314 85.9377 18.1566 86.0313 18.0629C86.0146 18.0291 85.9987 17.9939 85.9827 17.9584L85.9826 17.9581C85.9089 17.7943 85.8324 17.6244 85.6559 17.5548C85.4658 17.4779 85.2708 17.4163 85.0762 17.3548C85.0276 17.3394 84.9726 17.3263 84.9155 17.3126C84.7006 17.2612 84.4578 17.2032 84.4342 16.9974L84.4407 16.9877L84.4407 16.9877C84.4782 16.9315 84.5186 16.871 84.5907 16.8581C84.8766 16.7482 85.1636 16.6404 85.4506 16.5327L85.4508 16.5326L85.4518 16.5322C85.7392 16.4243 86.0266 16.3164 86.313 16.2064C86.3501 16.1977 86.3865 16.1854 86.4226 16.1732L86.4227 16.1731C86.4831 16.1527 86.5428 16.1324 86.6041 16.1299H109.465C109.644 16.1572 109.827 16.2023 109.993 16.2829C110.2 16.3596 110.408 16.4381 110.615 16.5166C110.94 16.6394 111.266 16.7624 111.594 16.8799C111.732 16.9797 111.568 17.1707 111.407 17.2268C111.292 17.2668 111.176 17.3046 111.06 17.3424C110.856 17.4086 110.653 17.4749 110.454 17.5534C110.074 17.7031 110.074 17.886 110.074 18.0562C110.174 18.1564 110.289 18.2317 110.404 18.3069C110.815 18.5751 111.225 18.8547 111.635 19.1382C111.949 19.3551 112.239 19.5622 112.523 19.7645C112.8 19.9621 113.07 20.1551 113.35 20.3484C113.413 20.3918 113.484 20.4278 113.554 20.4634C113.746 20.5611 113.934 20.6566 113.947 20.8992ZM91.2581 19.38C91.7451 19.4975 92.2771 19.0836 92.273 18.5767H92.2744C92.3152 18.0603 91.7655 17.6204 91.2731 17.7365C91.0173 17.7953 90.7765 17.966 90.6867 18.2174C90.5616 18.477 90.5969 18.7967 90.7534 19.0344C90.8731 19.2093 91.0609 19.3131 91.2581 19.38ZM104.05 19.1164C104.309 19.3896 104.739 19.4798 105.079 19.2912C105.464 19.089 105.616 18.5685 105.419 18.1819C105.321 17.9578 105.098 17.8089 104.869 17.742C104.564 17.6614 104.238 17.7912 104.033 18.0207C103.769 18.3212 103.786 18.8158 104.05 19.1164ZM15.707 24.9172C16.356 24.8188 17.1015 24.7573 17.6511 25.1631C17.9939 25.4213 18.1164 25.8872 18.0919 26.3052C18.1164 26.9924 17.798 27.7302 17.1872 28.0854C16.6484 28.3805 16.0009 28.4051 15.4023 28.3436C14.9982 28.2944 14.5956 28.0731 14.3874 27.7056C13.9221 26.6372 14.4976 25.1262 15.7084 24.9172H15.707ZM-3.68788 25.6918C-3.65115 25.3229 -3.32056 24.9923 -2.94236 25.0046C-2.0022 25.0046 -1.06355 25.006 -0.125901 25.0074H-0.124996H-0.124091H-0.123187H-0.122282H-0.121377H-0.120473H-0.119569H-0.118665H-0.117762H-0.117203H-0.117136H-0.11707H-0.117003H-0.116937H-0.116871H-0.116805H-0.116739H-0.116672C1.76065 25.0101 3.63396 25.0128 5.50726 25.0046C5.81336 24.98 6.14258 25.1153 6.28951 25.3858C6.43796 25.6489 6.38711 25.93 6.33686 26.2079C6.31665 26.3197 6.29653 26.4309 6.28951 26.5402C6.27566 26.6234 6.26469 26.7111 6.25351 26.8006C6.19545 27.2649 6.13159 27.7756 5.6297 27.9405C4.42136 27.9767 3.21302 27.9703 2.0044 27.964H2.00436H2.00432H2.00428H2.00424H2.0042H2.00416H2.00411H2.00407H2.00403C1.15805 27.9595 0.31194 27.955 -0.534404 27.9651C-0.62376 28.559 -0.710568 29.1503 -0.797153 29.7401L-0.797174 29.7402C-0.900409 30.4434 -1.00333 31.1445 -1.10987 31.8451C-1.10987 31.8697 -1.1068 31.9097 -1.10374 31.9496C-1.10068 31.9896 -1.09762 32.0295 -1.09762 32.0541C-0.345289 32.048 0.406702 32.048 1.15869 32.048C1.91066 32.048 2.66262 32.048 3.41492 32.0418C3.83121 32.0172 4.27063 32.3738 4.2339 32.8151C4.21115 33.0969 4.1649 33.3735 4.11845 33.6513C4.08991 33.822 4.0613 33.9931 4.038 34.1663C3.98902 34.4736 3.74415 34.7551 3.42581 34.8166C2.7076 34.8324 1.98515 34.8279 1.2622 34.8233C0.298026 34.8173 -0.66704 34.8113 -1.62411 34.8534C-1.77571 35.8969 -1.94283 36.9407 -2.10993 37.9845C-2.23974 38.7953 -2.36954 39.6061 -2.49206 40.4166C-2.52879 40.7854 -2.82265 41.1037 -3.1886 41.116C-3.88514 41.1283 -4.58304 41.1283 -5.27958 41.116C-5.7326 41.1283 -6.09856 40.6242 -5.97612 40.1952C-5.28837 35.7393 -4.58102 31.2949 -3.87211 26.8408L-3.87208 26.8407L-3.68924 25.6918H-3.68788ZM9.95825 25.0036H9.95825H9.95824H9.95823H9.95822H9.95821H9.9582H9.95819H9.95819C9.54975 25.0001 9.13982 24.9965 8.73539 25.0278H8.73403C8.41705 25.077 8.17218 25.3584 8.13545 25.6658C7.47564 29.8546 6.82671 34.0296 6.17915 38.2047C6.06895 38.9902 6.10569 39.8742 6.64306 40.5012C7.38857 41.3606 8.64833 41.5081 9.68769 41.3114C9.72808 41.3 9.77003 41.2885 9.81302 41.2768C10.2783 41.1501 10.8649 40.9903 10.8985 40.4275C10.9086 40.2988 10.9261 40.1694 10.9437 40.0398C10.9899 39.6987 11.0362 39.3568 10.9475 39.0271C10.8485 38.742 10.5904 38.6603 10.3356 38.5796C10.0861 38.5005 9.83978 38.4225 9.74891 38.1555C9.61521 37.7011 9.68885 37.2293 9.75937 36.7774C9.77281 36.6913 9.78613 36.6059 9.79789 36.5215C10.0547 34.8781 10.3142 33.2346 10.5737 31.5911L10.5738 31.5903L10.574 31.5895L10.5741 31.5887L10.5742 31.5879L10.5743 31.5871L10.5745 31.5862L10.5746 31.5854L10.5747 31.5849C10.8345 29.9393 11.0944 28.2937 11.3515 26.6481C11.3649 26.5317 11.3847 26.4155 11.4046 26.2993L11.4046 26.2993C11.4393 26.0964 11.4739 25.8937 11.4739 25.6904C11.4372 25.286 11.0468 24.9786 10.655 25.0032C10.4241 25.0077 10.1914 25.0057 9.95825 25.0036ZM33.011 25.6918C33.0477 25.3229 33.3783 25.0046 33.7443 25.0046H35.6026C36.0665 24.9923 36.4461 25.4964 36.3359 25.9377C36.1219 27.2994 35.9052 28.6607 35.6885 30.022L35.6876 30.0274C35.4707 31.3905 35.2537 32.7536 35.0394 34.1171C35.687 34.0187 36.4216 33.8957 36.8733 33.3684C37.631 32.5091 38.2555 31.5145 38.7194 30.4707C38.7481 30.3976 38.7744 30.3184 38.8013 30.2375C38.9237 29.8694 39.0589 29.4628 39.4894 29.4024C40.1859 29.3778 40.896 29.3901 41.5926 29.4024C42.0701 29.3901 42.4238 29.9297 42.2646 30.3724C42.081 31.024 41.7749 31.6251 41.4579 32.2017C40.7491 33.3561 39.9655 34.4982 38.9384 35.4067C39.2282 36.2789 39.5675 37.136 39.9058 37.9905C40.0964 38.4718 40.2866 38.9523 40.4675 39.4343C40.4991 39.5293 40.5402 39.6277 40.5821 39.7279L40.5821 39.7279C40.7353 40.0942 40.8985 40.4844 40.6389 40.8223C40.3696 41.1878 39.9344 41.1646 39.5162 41.1423C39.3452 41.1331 39.177 41.1241 39.0241 41.142C38.8743 41.1252 38.7062 41.1341 38.5346 41.1431C38.077 41.1671 37.5952 41.1924 37.3725 40.7362C37.0996 40.1012 36.849 39.4582 36.5983 38.8148L36.5982 38.8148L36.5982 38.8148L36.5982 38.8147L36.5982 38.8147L36.5982 38.8147L36.5982 38.8147L36.5982 38.8146C36.3203 38.1015 36.0422 37.3879 35.7332 36.6841C35.3904 36.6964 35.0367 36.7087 34.6939 36.6718L34.5959 36.8686C34.4123 38.0964 34.2165 39.3242 34.0206 40.552L34.0204 40.5532C33.947 40.8483 33.7143 41.1051 33.3974 41.1297C32.9119 41.1481 32.4188 41.1458 31.9244 41.1435H31.9243H31.9243H31.9243H31.9242H31.9242H31.9242H31.9241L31.9234 41.1435C31.7586 41.1428 31.5937 41.142 31.4288 41.142C31.1472 41.142 30.8915 40.9576 30.769 40.7116C30.6656 40.504 30.7019 40.2709 30.7379 40.0405C30.7445 39.9981 30.7511 39.9558 30.7568 39.9138C31.5145 35.1731 32.2614 30.4325 33.0069 25.6932L33.011 25.6918ZM67.7529 26.4637C67.4115 26.4514 67.0809 26.685 66.9952 27.0293V27.0266C66.829 27.5551 66.6736 28.0888 66.5177 28.6241L66.5173 28.6257L66.5169 28.6269L66.5167 28.6275L66.5165 28.6282L66.5164 28.6288L66.5162 28.6295C66.4441 28.8768 66.372 29.1246 66.2986 29.3723C66.1516 29.3913 66.0011 29.3883 65.8513 29.3852C65.6143 29.3803 65.3789 29.3755 65.1613 29.4584C64.7961 29.6417 64.7419 30.0352 64.6923 30.3955C64.682 30.4701 64.6719 30.5432 64.6593 30.6128C64.651 30.6779 64.6397 30.7451 64.6283 30.8133L64.6283 30.8135C64.573 31.1448 64.5137 31.5001 64.7573 31.7549C64.9918 32.0353 65.3576 32.019 65.6803 32.0047L65.6804 32.0047L65.7278 32.0026L65.7721 32.0008C65.6492 33.1178 65.4694 34.2276 65.2898 35.336C65.1476 36.2137 65.0056 37.0907 64.892 37.9697C64.794 39.0012 64.9409 40.2171 65.8579 40.8428C66.8482 41.4945 68.1325 41.4945 69.2453 41.1994C69.2875 41.188 69.331 41.1768 69.3752 41.1655C69.7548 41.0681 70.1898 40.9565 70.3214 40.5491C70.3841 40.2894 70.4117 40.0252 70.4395 39.7591L70.4395 39.7589L70.4395 39.7587C70.4551 39.6091 70.4708 39.4589 70.4928 39.3086C70.5541 38.9411 70.3228 38.5353 69.9555 38.4246C69.8335 38.4117 69.704 38.4124 69.5734 38.413C69.2059 38.4148 68.8294 38.4166 68.5855 38.1172C68.3651 37.7853 68.3896 37.3563 68.4263 36.9751C68.5182 36.3838 68.6118 35.7925 68.7054 35.2012C68.8725 34.1464 69.0394 33.0918 69.1964 32.0377C69.5151 32.0036 69.8338 32.0074 70.1548 32.0112C70.4121 32.0142 70.6708 32.0172 70.9323 32.0008C71.237 31.953 71.5064 31.6948 71.5676 31.3751C71.5982 31.1845 71.6349 30.9974 71.6716 30.8102L71.6718 30.8096C71.7085 30.6226 71.7451 30.4357 71.7757 30.2453C71.8492 29.8286 71.4955 29.386 71.0669 29.386C70.7482 29.3778 70.4246 29.3805 70.1026 29.3832C69.9423 29.3846 69.7823 29.386 69.6235 29.386C69.6507 28.9974 69.7157 28.6083 69.7807 28.2194L69.7808 28.2191C69.8328 27.908 69.8847 27.5969 69.9174 27.2861C69.9664 26.894 69.6494 26.4883 69.2453 26.476C68.9582 26.4619 68.6715 26.4639 68.387 26.466C68.1742 26.4675 67.9626 26.469 67.7529 26.4637ZM60.0853 31.009C60.8553 30.2357 61.7858 29.5963 62.8497 29.278C63.315 29.069 63.9135 29.4625 63.9013 29.9775C63.8492 30.3879 63.7699 30.7942 63.691 31.1986L63.691 31.1986L63.691 31.1987L63.691 31.1987L63.691 31.1988L63.691 31.1989L63.6909 31.1989L63.6909 31.199L63.6909 31.1991L63.6909 31.1992L63.6909 31.1992C63.6401 31.4597 63.5894 31.7195 63.5462 31.979C63.4973 32.311 63.2156 32.5938 62.8851 32.6293C61.6865 32.8383 60.6472 33.5624 59.8159 34.4217C59.7685 34.4806 59.716 34.5388 59.6628 34.5978L59.6627 34.5978C59.4823 34.7977 59.2936 35.0068 59.2663 35.281C59.0316 36.8502 58.7866 38.4204 58.5418 39.9897L58.5417 39.9904L58.4718 40.4384C58.4351 40.8073 58.1168 41.1625 57.7386 41.1379H55.8802C55.4517 41.1625 55.0735 40.7321 55.1224 40.3031L55.4054 38.5132C55.8485 35.7113 56.2907 32.9149 56.7237 30.11C56.7482 29.7658 56.993 29.4351 57.3468 29.3983C57.6859 29.3798 58.0243 29.3821 58.3682 29.3844H58.3682L58.3685 29.3844C58.4839 29.3852 58.5999 29.386 58.7167 29.386C59.084 29.386 59.4255 29.7179 59.4255 30.0977C59.4255 30.3972 59.4097 30.7011 59.3938 31.0068C59.3817 31.2395 59.3696 31.4733 59.3643 31.7071C59.5471 31.5924 59.6873 31.4348 59.8257 31.2791C59.9098 31.1846 59.9933 31.0907 60.0853 31.0076V31.009ZM15.6289 29.3873C15.2087 29.3758 14.7859 29.3642 14.3732 29.4488V29.4502C14.0059 29.5977 13.9079 30.0144 13.8835 30.371C13.6203 32.01 13.3635 33.646 13.1068 35.282L13.1067 35.2831C12.8499 36.9194 12.5931 38.5558 12.3298 40.1952C12.221 40.601 12.5257 41.0791 12.942 41.1283C13.4463 41.1468 13.9444 41.1445 14.4405 41.1421L14.4412 41.1421C14.606 41.1414 14.7706 41.1406 14.9351 41.1406C15.3133 41.1529 15.6071 40.7977 15.6438 40.4411C16.1336 37.2839 16.6342 34.128 17.1362 30.9721C17.147 30.8752 17.1629 30.7785 17.1788 30.6815C17.2176 30.446 17.2566 30.2091 17.2219 29.9652C17.1607 29.5841 16.758 29.3381 16.3785 29.3873C16.1313 29.4011 15.8806 29.3943 15.6289 29.3873ZM53.9468 29.6087C52.1252 29.2644 50.2654 29.0185 48.4193 29.2029C46.7678 29.4119 45.1053 30.1606 44.0905 31.524C42.6838 33.3165 42.2076 35.7237 42.5246 37.9588C42.696 39.0271 43.1599 40.1078 44.0292 40.7704C44.836 41.3961 45.9243 41.4822 46.9025 41.3223C48.2724 41.0518 49.4342 40.1679 50.3879 39.1856C50.4147 39.4144 50.3975 39.6428 50.3804 39.8692C50.3663 40.0565 50.3523 40.2424 50.3634 40.4261C50.3879 40.8059 50.7307 41.1625 51.1089 41.1379H52.3564C52.7237 41.1379 53.0285 40.7936 53.053 40.4384L53.1338 39.9277L53.1341 39.9254L53.1361 39.9129L53.1371 39.9066C53.6354 36.7571 54.132 33.618 54.6188 30.4789C54.6923 30.0609 54.3617 29.6565 53.9468 29.6073V29.6087ZM50.5103 35.3931C50.0206 36.3139 49.3363 37.15 48.5663 37.8618C48.1255 38.2307 47.5636 38.6105 46.965 38.4875C46.3773 38.3645 46.0971 37.7511 45.9624 37.2224C45.6563 35.8467 45.9379 34.348 46.7079 33.158C47.0508 32.6047 47.6004 32.188 48.237 32.0159C49.1295 31.7946 50.0709 31.9052 50.9402 32.1511L50.9892 32.2003C50.9169 32.9014 50.8024 33.5971 50.6876 34.2945L50.6876 34.2946L50.6876 34.2947L50.6876 34.2948L50.6875 34.2951L50.6875 34.2953L50.6875 34.2956C50.6274 34.6606 50.5672 35.0261 50.513 35.3931H50.5103ZM28.7418 30.1114C29.5975 31.0322 29.9281 32.3219 29.9404 33.5501V33.5487C30.0138 35.7114 29.3295 37.9342 27.8616 39.5422C26.0631 41.3729 23.2634 41.6926 20.8541 41.2253C20.7316 42.3183 20.5969 43.3989 20.401 44.4796C20.3868 44.5552 20.3753 44.6355 20.3635 44.7176C20.3046 45.1293 20.2394 45.5848 19.7902 45.7078C19.3303 45.7751 18.8584 45.7675 18.387 45.76H18.387H18.3869C18.1694 45.7565 17.952 45.7531 17.736 45.757C17.272 45.7693 16.8802 45.3034 16.9904 44.8484C17.3752 42.3934 17.7634 39.9388 18.1516 37.4841L18.1522 37.48L18.1523 37.4794L18.1524 37.4788C18.5408 35.0231 18.9291 32.5674 19.314 30.1114C19.3385 29.7316 19.6555 29.3873 20.0473 29.3873H21.2948C21.6608 29.3873 22.0159 29.7179 22.0036 30.0991C22.0106 30.3389 22.0015 30.5742 21.9925 30.8079V30.8079V30.808C21.9858 30.9816 21.9791 31.1543 21.9791 31.3273C22.1275 31.2425 22.2434 31.1159 22.3599 30.9885L22.3599 30.9884L22.3599 30.9884L22.36 30.9884C22.4443 30.8962 22.529 30.8036 22.6267 30.7262C23.6661 29.7931 24.9993 29.0922 26.4182 29.1414C27.2739 29.1291 28.1555 29.4611 28.7418 30.1114ZM25.2564 37.885C26.0386 37.0626 26.4427 35.9204 26.5162 34.7906L26.5175 34.792C26.5665 33.9695 26.5175 33.0596 25.9788 32.3847C25.6604 31.979 25.0619 31.9298 24.6211 32.1388C23.4348 32.7645 22.6022 33.9067 21.9179 35.0365C21.7706 35.6716 21.6765 36.3156 21.5823 36.9605L21.5822 36.9606L21.5822 36.9607L21.5822 36.9607C21.5198 37.388 21.4573 37.8158 21.3792 38.2416C21.3914 38.2785 21.4282 38.3522 21.4526 38.3891C22.7002 38.7197 24.2415 38.855 25.2564 37.885ZM113.948 21.4293C113.965 21.4744 113.979 21.5195 113.992 21.5645L113.991 21.5618C113.995 25.3587 113.995 29.156 113.994 32.9532C113.994 37.4207 113.993 41.8882 114.001 46.3553C114.021 47 113.627 47.4961 113.381 47.6355C113.135 47.7748 112.52 47.8062 112.239 47.7967C110.488 47.7939 108.737 47.7948 106.988 47.7957C106.114 47.7962 105.24 47.7967 104.366 47.7967C104.217 47.7932 104.068 47.7944 103.918 47.7955C103.715 47.7971 103.511 47.7987 103.306 47.7885C103.306 47.7475 103.312 47.671 103.316 47.6355C103.408 47.122 103.499 46.6086 103.591 46.0956C103.694 45.5138 103.797 44.9326 103.902 44.3525C103.945 44.131 103.983 43.9084 104.021 43.6862C104.079 43.3463 104.138 43.0071 104.211 42.6735C104.712 42.6789 105.213 42.6771 105.714 42.6753C105.964 42.6744 106.215 42.6735 106.465 42.6735C106.499 42.6735 106.533 42.6739 106.567 42.6742C106.762 42.6765 106.958 42.6787 107.141 42.6065C107.345 42.5409 107.524 42.4207 107.673 42.2718C107.827 42.1188 107.952 41.9344 108.045 41.7404C108.264 41.2909 108.379 40.8059 108.451 40.3168C108.51 39.8824 108.549 39.4151 108.371 39.0012C108.232 38.6774 107.884 38.4888 107.544 38.4888C107.056 38.4842 106.567 38.4848 106.08 38.4855C105.714 38.486 105.349 38.4865 104.985 38.4847C105.047 38.1077 105.116 37.732 105.185 37.3571C105.252 36.9943 105.319 36.6322 105.378 36.2702C105.535 35.4436 105.816 34.6184 106.348 33.9531C106.545 33.7031 106.785 33.49 107.049 33.3137C107.39 33.0856 107.774 32.9203 108.174 32.8342C108.598 32.7307 109.032 32.729 109.467 32.7274C109.916 32.7257 110.365 32.724 110.804 32.6101C110.94 32.5705 111.08 32.5172 111.198 32.438C111.285 32.3793 111.363 32.3055 111.416 32.2099C111.525 32.0224 111.515 31.7993 111.505 31.5869C111.503 31.5393 111.501 31.4922 111.5 31.4462C111.402 30.8218 111.285 30.2016 111.08 29.6045C110.986 29.3532 110.859 29.1018 110.65 28.931C110.395 28.7111 110.065 28.6209 109.742 28.5444C109.25 28.4815 108.749 28.4679 108.253 28.513C106.724 28.5854 105.184 28.9624 103.856 29.7439C102.434 30.5786 101.266 31.8369 100.528 33.3192C100.059 34.24 99.7542 35.2373 99.5623 36.2483C99.5085 36.5338 99.455 36.8191 99.4016 37.1043C99.3187 37.5466 99.2359 37.9888 99.1515 38.4315C99.1444 38.4889 99.0897 38.4886 99.0405 38.4883C99.0241 38.4882 99.0083 38.4882 98.9951 38.4902L98.9923 38.4902C97.3077 38.4861 95.6257 38.482 93.9411 38.4902C93.1299 38.5694 92.3172 38.6588 91.5052 38.7481C90.9866 38.8051 90.4684 38.8622 89.9509 38.9165L89.9156 38.9301C89.8938 38.9329 89.8707 38.9342 89.8489 38.937C89.7671 38.9455 89.6852 38.9538 89.6032 38.962C89.3454 38.988 89.0869 39.0141 88.8299 39.0503C88.7741 39.0572 88.7197 39.064 88.664 39.0736C89.6648 39.2392 90.6678 39.3873 91.6713 39.5354C92.2732 39.6243 92.8753 39.7131 93.4772 39.8058C93.5431 39.9453 93.5851 40.1012 93.6272 40.2571C93.6502 40.3426 93.6733 40.4281 93.7003 40.5108C93.6061 40.5134 93.5125 40.5237 93.4187 40.534C93.3648 40.54 93.3109 40.5459 93.2568 40.5504C93.2364 40.5532 93.216 40.5559 93.1955 40.5559C93.1628 40.5581 93.1308 40.5612 93.0984 40.5637C93.0905 40.5643 93.0825 40.5649 93.0745 40.5654C92.654 40.597 92.2345 40.6314 91.8145 40.6659C91.5252 40.6896 91.2356 40.7134 90.9454 40.7362C90.924 40.7387 90.9015 40.7384 90.8788 40.7382C90.8251 40.7377 90.7703 40.7372 90.7264 40.7717C91.6256 40.8964 92.5261 41.0258 93.4289 41.1555L93.6295 41.1843C93.6478 41.1874 93.6683 41.1887 93.6896 41.19C93.7618 41.1945 93.8421 41.1994 93.8662 41.2786C93.8766 41.3276 93.8867 41.3766 93.8967 41.4255C93.9208 41.5431 93.9449 41.6605 93.9737 41.7773C93.7686 41.799 93.5613 41.8071 93.3538 41.8152C93.132 41.8238 92.9102 41.8324 92.6908 41.8579C92.4772 41.8561 92.2643 41.8715 92.0515 41.8869C91.9417 41.8949 91.8319 41.9028 91.7222 41.9084H91.7181C91.6515 41.9125 91.5848 41.9139 91.5181 41.9139C91.497 41.9139 91.4763 41.9146 91.4556 41.9152C91.4348 41.9159 91.4141 41.9166 91.393 41.9166C91.3835 41.918 91.3743 41.9187 91.3651 41.9193C91.3559 41.92 91.3467 41.9207 91.3372 41.9221C91.1701 41.9408 91.0024 41.9464 90.8348 41.952C90.6476 41.9582 90.4606 41.9645 90.2747 41.989C90.057 41.991 89.8411 42.0057 89.6253 42.0203C89.3935 42.0361 89.1618 42.0519 88.9279 42.0519C88.7345 42.0794 88.5397 42.0851 88.3448 42.0908C88.153 42.0963 87.9611 42.1019 87.7702 42.1284C87.5532 42.1284 87.3372 42.143 87.1212 42.1577C86.9053 42.1724 86.6893 42.1871 86.4723 42.1871C86.258 42.2174 86.0425 42.2226 85.8271 42.2279C85.6242 42.2328 85.4213 42.2378 85.2193 42.2636C85.1533 42.2651 85.0878 42.2677 85.0224 42.2703C84.9019 42.2751 84.7819 42.2799 84.6602 42.2773C84.6602 42.2827 84.6561 42.3005 84.6521 42.3046C84.8773 42.3101 85.1027 42.3212 85.3281 42.3323C85.6665 42.3491 86.005 42.3658 86.3431 42.3633C86.609 42.3927 86.8774 42.3972 87.1457 42.4016C87.4141 42.406 87.6824 42.4105 87.9484 42.4398C88.0639 42.4447 88.1799 42.4456 88.2959 42.4465C88.5078 42.4481 88.7195 42.4498 88.9279 42.4754C89.1163 42.4842 89.3048 42.4871 89.493 42.49C89.8008 42.4948 90.1079 42.4995 90.4135 42.53C90.7272 42.53 91.0396 42.5447 91.3518 42.5594C91.6637 42.5741 91.9754 42.5888 92.2881 42.5888C92.6059 42.6196 92.9254 42.6241 93.244 42.6286C93.4328 42.6313 93.6213 42.6339 93.8091 42.642C94.0161 42.667 94.2279 42.6697 94.4377 42.6724C94.5271 42.6736 94.6161 42.6747 94.7043 42.6776C95.3124 42.6796 95.9218 42.6796 96.5313 42.6796C97.1408 42.6796 97.7503 42.6796 98.3584 42.6817C98.3488 42.7486 98.3407 42.8169 98.3312 42.8839C98.1079 44.0628 97.8991 45.2448 97.6905 46.4253C97.6194 46.8275 97.5484 47.2296 97.4768 47.6314C97.475 47.6426 97.473 47.6586 97.4709 47.6748C97.4683 47.6958 97.4655 47.7174 97.4632 47.7297C97.4612 47.7386 97.4588 47.7509 97.4564 47.7632C97.454 47.7755 97.4516 47.7878 97.4496 47.7967C97.3609 47.8327 97.2678 47.8306 97.1752 47.8285C97.1414 47.8277 97.1076 47.827 97.0741 47.8281H83.9242C83.7582 47.8458 83.6076 47.8465 83.4317 47.783L83.4258 47.7809C83.1853 47.694 82.9366 47.6041 82.7475 47.4278C82.425 47.1272 82.1829 46.7269 82.1162 46.287C82.1203 38.0353 82.1203 29.789 82.1203 21.5372C82.1244 21.4962 82.1421 21.4648 82.1693 21.4334C87.4647 21.4313 92.7602 21.4313 98.0564 21.4313C103.353 21.4313 108.649 21.4313 113.948 21.4293ZM105.242 24.271C105.273 24.2573 105.291 24.23 105.291 24.1985L105.294 24.1972C105.296 24.1208 105.308 24.0464 105.32 23.9723C105.337 23.8714 105.353 23.7711 105.343 23.6671C105.382 23.4471 105.386 23.2217 105.378 22.9977C105.341 22.9307 105.337 22.8501 105.337 22.7736L105.302 22.7777C105.249 22.581 105.083 22.3925 104.868 22.3829C104.707 22.3692 104.506 22.3733 104.412 22.5263C104.28 22.7056 104.292 22.9213 104.303 23.1318C104.307 23.2068 104.311 23.2811 104.309 23.3529C104.309 23.3618 104.31 23.3741 104.311 23.3864C104.312 23.3986 104.313 23.4109 104.313 23.4198C104.313 23.6043 104.29 23.7832 104.259 23.9636C104.231 24.0168 104.218 24.0756 104.218 24.1384C104.142 24.5606 103.989 24.9786 103.784 25.3598C103.744 25.4131 103.713 25.4718 103.699 25.5347C103.565 25.7683 103.404 25.9842 103.238 26.2C103.211 26.2232 103.188 26.2492 103.166 26.2765C103.055 26.4138 102.935 26.5311 102.811 26.6511L102.795 26.6672C102.777 26.6774 102.762 26.6893 102.748 26.701C102.737 26.7098 102.726 26.7184 102.714 26.726C102.563 26.8749 102.393 27.0143 102.21 27.1263C102.197 27.134 102.184 27.1431 102.171 27.1527C102.16 27.16 102.149 27.1678 102.138 27.1755C100.994 27.9351 99.6018 28.2493 98.2468 28.2629C97.0973 28.2998 95.9395 28.0526 94.9015 27.5539C94.895 27.5509 94.8847 27.5465 94.8735 27.5418C94.8543 27.5337 94.8324 27.5244 94.8213 27.5184C94.7767 27.4943 94.7319 27.471 94.6871 27.4477C94.5566 27.38 94.4265 27.3125 94.307 27.226C94.2932 27.2191 94.2794 27.2113 94.2652 27.2034C94.2432 27.1909 94.2203 27.1781 94.1955 27.1673C94.0308 27.0689 93.873 26.961 93.7261 26.8353C93.693 26.8048 93.6573 26.7786 93.6213 26.7522C93.6041 26.7396 93.5868 26.7269 93.5697 26.7137C93.4078 26.5839 93.2432 26.4446 93.1044 26.2874C93.0691 26.248 93.0325 26.2112 92.9973 26.1758L92.9969 26.1754C92.5099 25.6686 92.129 25.0483 91.9276 24.3748C91.7704 23.9358 91.7594 23.4647 91.7486 22.9998C91.7462 22.8976 91.7438 22.7956 91.7399 22.6944C91.578 22.4471 91.2379 22.3077 90.9699 22.4608C90.9045 22.508 90.8727 22.5783 90.8407 22.6492C90.8181 22.6993 90.7953 22.7498 90.7604 22.7927C90.6216 24.2751 91.2515 25.7533 92.2582 26.8216C92.2582 26.8585 92.2759 26.8804 92.3072 26.894C92.3704 26.9532 92.4333 27.0128 92.4961 27.0723C92.6103 27.1807 92.7241 27.2887 92.8391 27.3927C92.8704 27.4241 92.9058 27.4555 92.9466 27.4829C93.0813 27.5935 93.2229 27.6973 93.3645 27.8011C93.4116 27.8356 93.4588 27.8702 93.5057 27.905C93.5411 27.9323 93.5765 27.9556 93.6173 27.9774C93.6863 28.0176 93.7543 28.06 93.8221 28.1023C93.9964 28.2109 94.1701 28.3192 94.3601 28.39C94.3778 28.4037 94.409 28.4255 94.4267 28.4351C95.277 28.8436 96.1939 29.1223 97.1326 29.2124C97.236 29.2124 97.3381 29.222 97.4414 29.2439C97.8589 29.2681 98.2752 29.259 98.6925 29.2499L98.7828 29.248C100.165 29.1264 101.592 28.7889 102.746 27.972L102.759 27.9897C102.796 27.9583 102.827 27.9323 102.863 27.905C103.046 27.7711 103.226 27.6277 103.404 27.4788C103.445 27.4473 103.489 27.4118 103.529 27.3708C103.588 27.3074 103.649 27.2453 103.71 27.183C103.856 27.0348 104.003 26.8851 104.12 26.711L104.147 26.7246C104.153 26.7142 104.161 26.6993 104.169 26.684C104.179 26.6655 104.188 26.6465 104.196 26.6345C104.347 26.4282 104.486 26.2123 104.62 25.9964C104.625 25.9896 104.632 25.9807 104.64 25.9719C104.648 25.963 104.656 25.9541 104.66 25.9473L104.642 25.9295C104.649 25.9206 104.66 25.907 104.671 25.8933C104.683 25.8796 104.694 25.866 104.701 25.8571C104.947 25.353 105.166 24.8284 105.242 24.271Z" fill="white"/>
</g>
<defs>
<clipPath id="clip0_4615_7327">
<rect width="108" height="64" fill="white"/>
</clipPath>
</defs>
</svg>
