<svg width="108" height="64" viewBox="0 0 108 64" fill="none" xmlns="http://www.w3.org/2000/svg">
<g clip-path="url(#clip0_4615_13078)">
<path fill-rule="evenodd" clip-rule="evenodd" d="M25.1963 37.8705L25.1978 37.865C25.3436 37.9197 25.4593 37.9622 25.5749 37.9988C27.0951 38.4689 28.6519 38.6764 30.2332 38.7192C31.8999 38.7619 33.5605 38.7558 35.1967 38.3467C36.4605 38.0293 37.2908 37.2783 37.5839 35.9962C37.8159 34.9767 37.8098 33.951 37.5717 32.9314C37.3092 31.8019 36.601 31.1365 35.4471 30.9899C34.5594 30.8779 33.6688 30.7716 32.7774 30.6651L32.7763 30.665L32.7762 30.665L32.7761 30.6649L32.776 30.6649L32.7759 30.6649C32.3558 30.6147 31.9355 30.5645 31.5153 30.5137C31.0137 30.4532 30.5122 30.394 30.0113 30.3349L30.0113 30.3349L30.0113 30.3349L30.0112 30.3349L30.0112 30.3349L30.0112 30.3349L30.0111 30.3349C29.4511 30.2688 28.8919 30.2029 28.3344 30.1352C27.9742 30.0925 27.6568 29.9337 27.5713 29.5491C27.3637 28.6272 27.5957 28.0716 28.5664 27.9739C29.2869 27.9007 30.0134 27.8518 30.7338 27.8335C32.5837 27.7908 34.4153 27.9373 36.2163 28.383C36.3262 28.4074 36.5521 28.3342 36.5704 28.267C36.7209 27.7062 36.8577 27.1385 36.9962 26.564L36.9963 26.5638L36.9963 26.5636C37.0432 26.3691 37.0903 26.1737 37.1382 25.9775C36.9673 25.9226 36.8513 25.886 36.7292 25.8493C34.4641 25.2022 32.1441 25.0618 29.8119 25.2144C28.8717 25.2754 27.9254 25.4708 27.0157 25.7211C26.0755 25.9836 25.5199 26.6918 25.2879 27.6382C25.062 28.5784 25.0742 29.5308 25.2879 30.471C25.5688 31.7287 26.3319 32.5285 27.614 32.736C28.9511 32.9558 30.3003 33.1329 31.6496 33.3038C32.1067 33.3613 32.5651 33.408 33.0236 33.4546L33.0236 33.4547L33.0237 33.4547L33.0237 33.4547L33.0238 33.4547L33.0238 33.4547L33.0239 33.4547C33.5391 33.5071 34.0544 33.5596 34.5679 33.6274C35.1479 33.7068 35.3494 33.951 35.4104 34.5371C35.4959 35.3796 35.2151 35.7703 34.3848 35.9474C34.2749 35.9718 34.165 35.9962 34.049 36.0084C32.309 36.1611 30.569 36.1794 28.8351 35.9657C28.1395 35.8804 27.4529 35.7503 26.7502 35.6171C26.4475 35.5598 26.1419 35.5019 25.8313 35.4468C25.7379 35.8011 25.6445 36.1591 25.55 36.5214L25.55 36.5214L25.55 36.5215C25.4349 36.9627 25.3182 37.4102 25.1978 37.865L25.1963 37.8644V37.8705ZM7.96784 38.365V25.5563V25.5502C7.69544 25.5502 7.42607 25.5512 7.15873 25.5522C6.49731 25.5547 5.84823 25.5571 5.19605 25.544C4.89079 25.5379 4.81142 25.6417 4.81142 25.9348C4.81753 26.6583 4.81753 27.3833 4.81753 28.1083C4.81753 28.8333 4.81753 29.5583 4.82363 30.2817C4.82974 30.5992 4.75647 30.7335 4.40237 30.7335C2.12511 30.7213 -0.152151 30.7213 -2.42941 30.7335C-2.74688 30.7396 -2.83846 30.6297 -2.83846 30.3183C-2.83439 29.3699 -2.83575 28.4188 -2.83711 27.4685V27.4685V27.4684V27.4683V27.4682V27.4682V27.4681V27.4679V27.4677V27.4676V27.4674V27.4672V27.467C-2.83778 26.9925 -2.83846 26.5183 -2.83846 26.0447V25.5929H-5.97656V38.3406H-2.83846V37.8644C-2.83846 37.4719 -2.83747 37.0795 -2.83647 36.687V36.6869C-2.83398 35.7058 -2.83149 34.7246 -2.84457 33.7434C-2.85067 33.4198 -2.7713 33.3038 -2.42331 33.3038C-0.146045 33.316 2.13121 33.316 4.40847 33.3038C4.72595 33.3038 4.81753 33.4076 4.81753 33.719C4.81346 34.533 4.81481 35.347 4.81617 36.1611C4.81685 36.5681 4.81753 36.9751 4.81753 37.3821C4.81753 38.0374 5.15128 38.365 5.81879 38.365H7.96784ZM23.3159 37.7604L23.3164 37.7612L23.3196 37.7658L23.7191 38.3345C23.652 38.3397 23.5959 38.3459 23.5465 38.3514C23.4789 38.3589 23.424 38.365 23.3711 38.365C23.1421 38.365 22.9132 38.3647 22.6842 38.3643C21.9974 38.3631 21.3105 38.362 20.6237 38.3712C20.3734 38.3712 20.233 38.2918 20.0987 38.0842C19.6868 37.4405 19.2719 36.8013 18.857 36.1622L18.8568 36.162L18.8567 36.1618L18.8566 36.1616L18.8565 36.1614L18.8563 36.1612L18.8562 36.161C18.4411 35.5215 18.0259 34.882 17.6138 34.2379C17.4673 34.0059 17.3086 33.9143 17.0277 33.9143C16.0631 33.9326 15.0924 33.9326 14.1277 33.9143C13.7797 33.9082 13.6637 34.0059 13.6698 34.36C13.6784 34.9128 13.6776 35.4655 13.6769 36.0176V36.0177V36.0177V36.0177V36.0177V36.0177V36.0177C13.676 36.6487 13.6751 37.2788 13.6882 37.9072C13.6943 38.2857 13.5722 38.3834 13.2119 38.3712C12.4488 38.3467 11.6856 38.3528 10.9225 38.3712C10.6355 38.3712 10.5195 38.304 10.5195 37.9926C10.5256 33.9754 10.5256 29.952 10.5195 25.9348C10.5195 25.6662 10.5867 25.5502 10.8858 25.5563C11.818 25.5603 12.7509 25.5617 13.684 25.563C15.5498 25.5658 17.4165 25.5685 19.2806 25.5929C19.9399 25.6051 20.6176 25.7577 21.2587 25.947C22.437 26.2889 23.1574 27.0887 23.3833 28.3036C23.5848 29.3903 23.597 30.4832 23.2612 31.5455C22.8949 32.7238 22.1317 33.4809 20.874 33.6762C20.7886 33.6884 20.7031 33.7068 20.6115 33.7312C20.604 33.7312 20.5989 33.7358 20.5805 33.7519C20.5693 33.7618 20.5533 33.776 20.5288 33.7961C21.4576 35.1146 22.3771 36.4238 23.3159 37.7604ZM20.4528 30.3C20.3001 31.2769 19.885 31.6493 18.8959 31.6676C18.0302 31.6808 17.1673 31.692 16.3019 31.692C16.0251 31.692 15.772 31.6906 15.5266 31.6892H15.5266H15.5266H15.5266H15.5265H15.5265H15.5265C15.0574 31.6865 14.6162 31.684 14.0911 31.692C13.8042 31.6981 13.6821 31.6249 13.6821 31.3135C13.6942 30.3082 13.6882 29.3089 13.6821 28.3036L13.6821 28.2975C13.6759 28.035 13.7431 27.9068 14.0423 27.9068C14.6807 27.912 15.318 27.9105 15.9551 27.909H15.9551H15.9551H15.9552H15.9552H15.9552H15.9553C16.8048 27.907 17.654 27.905 18.5052 27.919C20.1292 27.9434 20.7092 28.6821 20.4528 30.3ZM72.1516 34.9156C72.756 36.7166 73.9893 37.8949 75.8392 38.3406C75.9171 38.3597 75.9948 38.379 76.0723 38.3982C76.866 38.5947 77.6399 38.7863 78.5133 38.7863C79.4943 38.7863 79.961 38.6899 80.479 38.5829C80.6128 38.5553 80.75 38.5269 80.9004 38.4994C83.0556 38.1086 84.5453 36.9303 85.1314 34.7691C85.5893 33.084 85.6137 31.3746 85.2352 29.6712C84.7406 27.4489 83.3853 26.0447 81.163 25.5013C79.5634 25.1106 77.9638 25.1106 76.3581 25.4281C74.1114 25.8737 72.64 27.1864 72.0295 29.3965C71.5228 31.2402 71.5411 33.0962 72.1516 34.9156ZM78.1249 26.5201C78.2807 26.5093 78.4367 26.4984 78.5927 26.4843C79.197 26.4293 80.7694 26.8042 81.0714 26.8872C82.4145 27.2535 83.2693 28.1754 83.6478 29.5064C84.1057 31.1181 84.1179 32.7482 83.6722 34.3661C83.2937 35.752 82.3962 36.6617 81.0286 37.0768C79.484 37.5408 77.9211 37.5531 76.3642 37.1135C74.899 36.6983 73.9649 35.7154 73.5192 34.2806C73.0613 32.7971 73.0491 31.2952 73.4337 29.7994C73.9343 27.864 75.2775 26.8933 77.1884 26.6125C77.4985 26.5635 77.8113 26.5418 78.1249 26.5201ZM68.3973 36.3848L68.4049 36.3959L68.4146 36.4101L68.4761 36.5001L68.4984 36.5327C68.9075 37.1311 69.3181 37.7318 69.7347 38.3406C69.5754 38.3406 69.4224 38.3421 69.2738 38.3435L69.2736 38.3435H69.2735C68.8927 38.3471 68.5414 38.3504 68.19 38.3284C68.0741 38.3223 67.9458 38.1636 67.8665 38.0476C66.8713 36.5701 65.8823 35.0927 64.9054 33.603C64.7406 33.3527 64.5635 33.2428 64.2583 33.2489C63.3424 33.262 62.4234 33.2595 61.5057 33.257H61.5057H61.5056H61.5054C61.1386 33.256 60.772 33.255 60.4058 33.255C60.068 33.255 59.8971 33.4198 59.893 33.7495V37.8705V38.3406C59.7753 38.3406 59.66 38.341 59.5465 38.3414H59.5463H59.546C59.2123 38.3426 58.8946 38.3436 58.5804 38.3345C58.5132 38.3345 58.4277 38.2307 58.3972 38.1514C58.375 38.0848 58.3787 38.0086 58.3823 37.932C58.3836 37.9033 58.385 37.8745 58.385 37.8461C58.385 33.9143 58.385 29.9887 58.3789 26.0569C58.3789 25.6906 58.4461 25.5563 58.8551 25.5563C60.0697 25.5693 61.2842 25.5684 62.4987 25.5676C63.5614 25.5668 64.6242 25.566 65.6869 25.5746C66.2547 25.5746 66.8286 25.654 67.3842 25.7883C68.3671 26.0264 69.0509 26.6613 69.35 27.6321C69.7286 28.8653 69.7347 30.1169 69.3134 31.344C68.9471 32.4186 68.2145 33.0596 67.0301 33.0901C66.8739 33.0941 66.7178 33.1139 66.5324 33.1373L66.5323 33.1374C66.435 33.1497 66.3296 33.163 66.2119 33.1756L66.2058 33.1817C66.941 34.2544 67.6554 35.2995 68.3731 36.3494L68.3973 36.3848ZM66.0776 32.04C67.262 32.0034 67.8482 31.5211 68.0679 30.4405C68.2084 29.7567 68.2084 29.079 68.0313 28.4013C67.7932 27.4794 67.2376 26.9422 66.2913 26.9177C64.8936 26.88 63.4959 26.8739 62.0981 26.8679C61.4628 26.8652 60.8275 26.8624 60.1922 26.8567C59.9541 26.8567 59.893 26.9666 59.893 27.1864C59.893 27.6913 59.8937 28.1955 59.8944 28.6996C59.8957 29.7069 59.8971 30.7134 59.893 31.7226C59.893 31.9912 59.9785 32.0767 60.2471 32.0706C60.8606 32.0629 61.1512 32.0649 61.5244 32.0674L61.5245 32.0674C61.7456 32.0689 61.9957 32.0706 62.3589 32.0706C62.8891 32.0627 63.4197 32.0616 63.9502 32.0606C64.6596 32.0592 65.3689 32.0579 66.0776 32.04ZM102.765 30.4537C102.765 30.9499 102.764 31.4461 102.764 31.9424V31.9362C102.764 32.5032 102.765 33.0702 102.766 33.6371V33.6392C102.769 35.0558 102.771 36.4723 102.758 37.8889C102.752 38.2674 102.874 38.3895 103.234 38.3467C103.46 38.3223 103.692 38.3284 103.918 38.3467C104.211 38.3712 104.309 38.2735 104.309 37.9621C104.3 37.2478 104.3 36.535 104.3 35.823V35.8212C104.3 35.1098 104.3 34.3991 104.29 33.6884C104.29 33.3282 104.406 33.2428 104.748 33.2428C106.452 33.255 108.155 33.2611 109.858 33.2428C110.457 33.2367 111.049 33.1634 111.641 33.0901C112.697 32.9619 113.375 32.3514 113.711 31.3624C114.108 30.2024 114.114 29.0179 113.802 27.8335C113.509 26.7102 112.765 26.0142 111.641 25.7577C111.159 25.6479 110.658 25.5807 110.17 25.5807C108.878 25.5705 107.585 25.5698 106.293 25.569C105.259 25.5684 104.225 25.5678 103.192 25.5624C102.862 25.5624 102.758 25.6479 102.758 25.9897C102.767 27.4766 102.766 28.9635 102.765 30.4504V30.4537ZM110.475 32.0522C110.322 32.0584 110.17 32.0645 110.017 32.0645C109.549 32.0645 109.085 32.069 108.619 32.0735L108.619 32.0735C108.147 32.0781 107.673 32.0828 107.188 32.0828C106.85 32.0828 106.56 32.0813 106.286 32.0799C105.775 32.0772 105.314 32.0748 104.687 32.0828C104.425 32.0828 104.303 32.0339 104.303 31.7287C104.311 30.7199 104.308 29.7139 104.305 28.707V28.7063V28.7057C104.304 28.2016 104.303 27.6974 104.303 27.1925C104.303 26.9788 104.351 26.8628 104.596 26.8628C105.229 26.8685 105.864 26.8713 106.499 26.874C107.894 26.88 109.291 26.8861 110.689 26.9238C111.605 26.9422 112.16 27.455 112.41 28.3342C112.636 29.1217 112.624 29.9154 112.404 30.703C112.154 31.5944 111.556 32.0034 110.475 32.0522ZM55.0817 26.179C54.9473 26.5758 54.813 26.9666 54.6848 27.3207C54.4044 27.2482 54.1287 27.1727 53.8558 27.098C53.2552 26.9336 52.6678 26.7727 52.0718 26.6552C50.8629 26.4232 49.648 26.4415 48.4391 26.7224C46.6076 27.1558 45.4903 28.2914 45.1118 30.1352C44.8554 31.3685 44.8615 32.6139 45.1972 33.835C45.7345 35.8009 47.096 36.8693 49.0497 37.2295C50.576 37.5103 52.0596 37.3272 53.5065 36.7838C53.769 36.6861 53.8484 36.5457 53.8423 36.2771C53.8362 35.6085 53.8362 34.9415 53.8362 34.2745C53.8362 33.6075 53.8362 32.9406 53.8301 32.272C53.8301 31.9607 53.9155 31.8324 54.2391 31.8569C54.52 31.8813 54.8008 31.8691 55.0755 31.8569C55.2953 31.8508 55.393 31.924 55.3869 32.1621C55.3849 32.7218 55.3842 33.2815 55.3835 33.8412C55.3822 34.9605 55.3808 36.0797 55.3686 37.199C55.3686 37.3394 55.2099 37.5347 55.0755 37.608C54.0071 38.1758 52.8593 38.4872 51.6627 38.6276C50.3257 38.7863 48.9947 38.7253 47.7004 38.3223C45.5208 37.6385 44.1899 36.1489 43.6954 33.9327C43.3779 32.4979 43.3779 31.051 43.7015 29.6224C44.2631 27.1497 45.881 25.7822 48.317 25.3609C50.5699 24.9702 52.7739 25.2632 54.9046 26.0874C54.9242 26.0958 54.9438 26.1068 54.9669 26.1197L54.967 26.1198C54.9943 26.135 55.0265 26.1531 55.0694 26.1729L55.0817 26.179ZM89.5283 26.124V25.5746L89.5344 25.5685C89.3805 25.5685 89.2346 25.5699 89.0939 25.5713C88.8273 25.574 88.5794 25.5765 88.3316 25.5685C88.0935 25.5624 88.0264 25.6539 88.0264 25.8798C88.0284 26.8341 88.0277 27.7878 88.027 28.7412C88.0257 30.6484 88.0243 32.5547 88.0447 34.4638C88.063 35.9718 88.7651 37.1135 90.1022 37.8339C90.3464 37.9682 90.5967 38.0964 90.8592 38.1941C92.2695 38.7252 93.7287 38.8107 95.2122 38.6276C96.2501 38.4994 97.2209 38.1941 98.0939 37.6019C98.9914 36.9914 99.5714 36.1794 99.6935 35.0804C99.7362 34.7019 99.7668 34.3173 99.7668 33.9387V26.5758C99.7668 25.9083 99.4371 25.5746 98.7777 25.5746C98.4318 25.5746 98.2588 25.7455 98.2588 26.0874C98.2588 26.9256 98.2595 27.7645 98.2601 28.6037C98.2615 30.2826 98.2628 31.9625 98.2588 33.6396C98.2527 35.4223 97.3796 36.5884 95.6701 37.0952C94.6384 37.4004 93.5883 37.4309 92.5443 37.1867C92.0681 37.0707 91.5918 36.8998 91.1645 36.6617C89.9373 35.984 89.5283 34.8606 89.5283 33.5236V26.124Z" fill="white"/>
</g>
<defs>
<clipPath id="clip0_4615_13078">
<rect width="108" height="64" fill="white"/>
</clipPath>
</defs>
</svg>
