<svg width="120" height="64" viewBox="0 0 120 64" fill="none" xmlns="http://www.w3.org/2000/svg">
<path fill-rule="evenodd" clip-rule="evenodd" d="M7 21.884H2V29.384C2 30.4886 2.89539 31.384 4 31.384H7H11.6738C13.1487 31.384 14.5483 30.7328 15.4984 29.6047L22 21.884H15L7 31.384V21.884ZM15.5 42.884H22.5L15.5012 33.8268C14.5544 32.6015 13.0933 31.884 11.5448 31.884H7H4C2.89539 31.884 2 32.7795 2 33.884V42.884H7V31.884L15.5 42.884Z" fill="white"/>
<path fill-rule="evenodd" clip-rule="evenodd" d="M40 42.884H45L34.0071 21.884L23 42.884H24.5L28.0015 36.884H37.0773L40 42.884ZM36.5 35.884L32.5 27.884L28.5789 35.884H36.5Z" fill="white"/>
<path d="M46 42.884H51V21.884H46V42.884Z" fill="white"/>
<path fill-rule="evenodd" clip-rule="evenodd" d="M55 21.8957V32.8957H56C58.2091 32.8957 60 31.1048 60 28.8957V22.8957C61.5 22.8957 65 22.3957 67.2192 24.0829C68.2921 25.1752 68.554 26.8804 68.484 28.3459C68.4296 29.4867 68.0292 30.5778 67.1719 31.3576C65.8769 32.5352 63.5 32.884 63 32.884C62.5 32.884 62.353 33.59 62.5 33.884C63 34.884 68.3525 41.9365 69 42.8957H75.5L68.399 34.4633C68.0505 34.0495 67.6012 33.7426 67.1023 33.5666C69.1925 33.3088 71.3671 32.537 72.6378 30.767C73.3978 29.7084 73.7955 28.3022 73.5786 27.0048C73.3446 25.6054 72.4427 24.5008 71.3108 23.6956C68.6681 21.8162 64.0138 21.8553 60.5 21.8957C58 21.8957 57 21.8957 55 21.8957ZM60 42.8957H55V33.8957H56C58.2091 33.8957 60 35.6866 60 37.8957V42.8957Z" fill="white"/>
<path d="M85.8251 21.884C88.7211 21.884 91.1409 22.8711 93.0845 24.8452C95.0282 26.8194 96 29.3368 96 32.3976C96 35.4403 95.0282 37.9487 93.0845 39.9228C91.1409 41.897 88.7697 42.884 85.9708 42.884C83.172 42.884 80.8105 41.8879 78.8863 39.8957C76.9621 37.9034 76 35.3769 76 32.3161C76 29.3278 76.9621 26.8465 78.8863 24.8724C80.8299 22.8802 83.1429 21.884 85.8251 21.884ZM86.0583 22.9435C84.8921 22.9435 83.8426 23.2333 82.9096 23.8129C81.9961 24.3924 81.2672 25.2256 80.723 26.3122C80.3732 26.9824 80.1108 27.8336 79.9359 28.8659C79.7609 29.8983 79.6735 31.0393 79.6735 32.2889C79.6735 38.646 81.7726 41.8245 85.9708 41.8245C88.0117 41.8245 89.5763 41.0367 90.6647 39.461C91.7726 37.8853 92.3265 35.5671 92.3265 32.5063C92.3265 26.1311 90.2371 22.9435 86.0583 22.9435Z" fill="white"/>
<path fill-rule="evenodd" clip-rule="evenodd" d="M104.992 22.0641C108.313 21.7838 111.492 21.5643 114.492 23.5643C115.807 24.8223 116.021 25.7616 116.213 26.8245C115.455 26.8245 115.282 26.8245 114.735 26.8245C114.731 26.5315 114.711 26.2889 114.658 26.0526C114.459 25.1717 113.837 24.4326 113.137 23.8617C112.171 23.0738 110.516 22.4747 105.959 23.0935L104.992 22.0641ZM111.992 42.5641C108.992 43.064 104 43.5641 100.129 41.2875C99.1059 40.8074 98.3989 39.4429 98 38.3241C98.8827 38.3241 99.5 38.3241 100.492 38.3241C100.502 39.865 102 41.5641 104.569 41.9186C107 42.0641 110.199 42.3353 111.779 41.2875C111.885 41.7134 112.176 42.1869 111.992 42.5641ZM113.29 40.454C112.892 40.9352 112.361 41.1133 111.779 41.2875C111.885 41.7134 112.176 42.1869 111.992 42.5641C114.3 42.1795 116.625 40.7991 117.492 39.0641C117.992 38.0641 118.492 36.5641 118.031 35.1134C117.015 32.2885 112.746 31.1097 109.081 30.0978C107.497 29.6604 106.026 29.2542 104.979 28.7598C104.121 28.3545 103.117 27.7742 102.782 26.8245C102.596 26.2955 102.653 25.6482 102.897 25.1478C103.464 23.9767 104.816 23.491 105.959 23.0935L104.992 22.0641C103.102 22.3883 101.185 23.3787 99.9761 24.8223C99.1567 25.8012 98.3859 27.2343 98.5043 28.5522C98.6052 29.6683 99.2926 30.5575 100.129 31.2529C101.415 32.3223 103.986 33.1748 106.576 34.0335C110.224 35.2431 113.909 36.4653 114.096 38.3241C114.167 39.0295 113.732 39.9223 113.29 40.454Z" fill="white"/>
<path d="M15 21.884H22L15.4984 29.6047C14.5484 30.7329 13.1487 31.384 11.6738 31.384H7L15 21.884Z" fill="#23CB00"/>
</svg>
