<svg width="108" height="64" viewBox="0 0 108 64" fill="none" xmlns="http://www.w3.org/2000/svg">
<g clip-path="url(#clip0_4615_8257)">
<path fill-rule="evenodd" clip-rule="evenodd" d="M91.4794 30.0166L87.7279 30.0203L87.7522 39.6866L91.4831 39.6835L91.4788 34.6222C91.4719 33.2438 91.9961 32.3847 93.4056 32.4046C94.7939 32.4295 95.0709 33.3571 95.0721 34.6396L95.0765 39.6797L98.8454 39.6766L98.8292 33.7195C98.8373 30.8682 97.3681 29.6773 94.6917 29.6798C93.2979 29.681 92.3653 30.0159 91.4813 31.2355L91.4794 30.0166ZM72.6604 24.0345L68.9083 24.0376L68.9226 39.6984L72.6747 39.6947L72.6604 24.0345ZM65.747 32.8703L68.3436 32.8678L68.3411 30.0377L65.7339 30.0396L65.7432 28.4235C65.7576 26.6853 67.1041 26.44 68.3442 27.2126L68.3418 24.192C65.0018 22.7688 62.0465 25.1302 62.0341 28.7764L62.0347 30.0427L60.7311 30.0439L60.7336 32.874L62.0378 32.8728L62.0441 39.7047L65.7432 39.7009L65.747 32.8703ZM48.7589 30.0558L48.7477 35.8642C48.767 39.1761 51.3487 40.0433 54.3855 40.0564C57.5337 40.0377 60.0457 39.7227 59.9996 35.8592L59.994 30.0458L56.1996 30.0489L56.2045 35.2217C56.2058 36.6473 55.8248 37.3209 54.383 37.3222C52.9094 37.3178 52.506 36.5975 52.5047 35.2248L52.4998 30.0527L48.7589 30.0558ZM24.9271 31.0525L24.9215 24.9048L20.756 24.9085L20.7691 39.7476L24.9825 39.7439V33.3472L30.4099 39.7395L35.7837 39.7345L28.8385 31.9763L35.2925 24.8955L30.0824 24.9004L24.9271 31.0525ZM79.9019 32.6935C81.2217 32.6923 82.3037 33.661 82.3043 34.8587C82.3055 36.0509 81.2254 37.0271 79.9056 37.0283C78.5808 37.0296 77.5038 36.0559 77.5026 34.8625C77.5026 33.6653 78.5771 32.6941 79.9019 32.6935ZM85.9045 30.0222L82.2053 30.0253L82.2065 31.0587C81.3045 30.2164 80.1914 29.7196 78.9195 29.6891C76.0097 29.5808 73.6589 31.9041 73.6353 34.8618C73.6434 37.7548 75.9829 40.0209 78.696 40.0184C80.3439 40.0172 81.5622 39.2844 82.2134 38.6164L82.2146 39.6866L85.9138 39.6835L85.9045 30.0222ZM106.242 32.6692C107.562 32.668 108.643 33.6373 108.644 34.8351C108.646 36.0273 107.565 37.0034 106.246 37.0047C104.926 37.0059 103.844 36.0316 103.843 34.8388C103.842 33.6417 104.922 32.6705 106.242 32.6692ZM112.207 23.9984L108.524 24.0021L108.545 31.0344C107.649 30.1927 106.531 29.6953 105.264 29.6648C102.349 29.5559 99.9984 31.8798 99.9747 34.8369C99.9828 37.7305 102.327 39.9966 105.035 39.9941C106.683 39.9923 107.902 39.2602 108.553 38.5915L108.553 39.6623L112.221 39.6642L112.207 23.9984ZM41.0075 32.729C42.3273 32.7278 43.4093 33.6964 43.4105 34.8942C43.4112 36.087 42.331 37.0626 41.0112 37.0638C39.6865 37.065 38.6094 36.0914 38.6088 34.898C38.6076 33.7002 39.6827 32.7296 41.0075 32.729ZM47.0095 30.0576L43.3103 30.0608L43.3109 31.0942C42.4095 30.2525 41.2908 29.7551 40.0239 29.7246C37.1141 29.6156 34.7584 31.939 34.7341 34.8967C34.7472 37.7897 37.0867 40.0558 39.7998 40.0533C41.4476 40.052 42.666 39.3193 43.3172 38.6513L43.3184 39.7215L47.0176 39.7183L47.0095 30.0576ZM20.7709 41.9421L112.196 41.8593L112.198 44.0525L20.7728 44.136L20.7709 41.9421ZM-2.39098 21.7553L6.15723 21.7472L6.16657 31.5891L-2.38165 31.5966L-2.39098 21.7553ZM7.3021 21.746L17.4671 21.7367L7.31082 31.5879L7.3021 21.746ZM7.31206 32.5628L17.4858 42.4426L7.32078 42.4526L7.31206 32.5628ZM-2.38102 32.6194L6.16719 32.612L6.17653 42.4532L-2.37169 42.4613L-2.38102 32.6194ZM-3.76495 20.3733L18.536 20.3527L18.5572 43.6454L-3.74378 43.6653L-3.76495 20.3733ZM-4.24805 19.897L19.0122 19.8759L19.0347 44.1223L-4.22564 44.1428L-4.24805 19.897Z" fill="white"/>
</g>
<defs>
<clipPath id="clip0_4615_8257">
<rect width="108" height="64" fill="white"/>
</clipPath>
</defs>
</svg>
