<svg width="120" height="64" viewBox="0 0 120 64" fill="none" xmlns="http://www.w3.org/2000/svg">
<g clip-path="url(#clip0_7394_18934)">
<path d="M45.5117 43.4392V21.6824H49.104V31.0067L58.4573 21.6824H62.8968L54.1195 30.354L63.1002 43.4392H58.7284L51.544 32.8717L49.104 35.2959V43.4392H45.5117Z" fill="white"/>
<path d="M71.7536 43.8124C70.1043 43.8124 68.6358 43.4809 67.348 42.8177C66.0828 42.134 65.0888 41.1912 64.3658 39.9894C63.6428 38.7876 63.2812 37.389 63.2812 35.7935C63.2812 34.1772 63.6315 32.7579 64.3318 31.5353C65.0548 30.3128 66.0489 29.3596 67.3141 28.6758C68.6019 27.992 70.093 27.6501 71.7874 27.6501C73.4367 27.6501 74.8714 27.992 76.0914 28.6758C77.3114 29.3389 78.2603 30.2299 78.938 31.3488C79.6158 32.4677 79.9547 33.7006 79.9547 35.0475C79.9547 35.2547 79.9434 35.4827 79.9208 35.7313C79.9208 35.9592 79.9095 36.2181 79.8869 36.5083H66.8058C66.9188 38.0002 67.4496 39.1398 68.3985 39.9272C69.37 40.6939 70.4884 41.0772 71.7536 41.0772C72.7702 41.0772 73.6174 40.8701 74.2952 40.4555C74.9956 40.0205 75.5152 39.4403 75.8541 38.715H79.4463C78.9945 40.1655 78.0908 41.3777 76.7352 42.3516C75.4022 43.3254 73.7417 43.8124 71.7536 43.8124ZM71.7536 30.3542C70.5562 30.3542 69.4943 30.6857 68.568 31.3488C67.6417 31.9912 67.0769 32.965 66.8736 34.2705H76.3625C76.2947 33.0687 75.8315 32.1155 74.973 31.411C74.1145 30.7065 73.0414 30.3542 71.7536 30.3542Z" fill="white"/>
<path d="M82.6562 43.4398V28.0236H85.8757L86.1806 31.3182C86.768 30.3029 87.5815 29.5051 88.6206 28.9249C89.6826 28.324 90.959 28.0236 92.4501 28.0236V31.4735H91.4673C90.4732 31.4735 89.5809 31.629 88.7901 31.9398C88.022 32.2298 87.4006 32.7375 86.9263 33.4627C86.4743 34.1672 86.2484 34.7786 86.2484 36.0426V43.4398H82.6562Z" fill="white"/>
<path d="M94.5977 43.4394V28.0231H97.7833L98.0544 30.7272C98.574 29.774 99.3308 29.0281 100.325 28.4893C101.342 27.9299 102.505 27.6501 103.815 27.6501C105.849 27.6501 107.442 28.2303 108.594 29.3907C109.769 30.551 110.356 32.2813 110.356 34.5813V43.4394H106.798V34.9232C106.798 31.9394 105.465 30.4475 102.799 30.4475C101.466 30.4475 100.359 30.8825 99.4777 31.7528C98.6192 32.6231 98.19 33.8664 98.19 35.4827V43.4394H94.5977Z" fill="white"/>
<path d="M115.92 25.6849L115.041 23.9325L114.155 25.6849H115.92ZM115.568 22.7371L118.043 27.6898H116.942L116.391 26.6057H113.692L113.141 27.6898H112.031L114.506 22.7371H115.568Z" fill="#75EA8E"/>
<path d="M119.998 22.7371V27.6898H118.984V22.7371H119.998Z" fill="#75EA8E"/>
<path d="M6.10216 28.5964H0V47.3952C0 47.7787 0.31081 48.0895 0.694212 48.0895H31.3422C31.7256 48.0895 32.0364 47.7787 32.0364 47.3952V35.3766H25.9342V41.293C25.9342 41.6765 25.6234 41.9873 25.24 41.9873H6.79638C6.41299 41.9873 6.10216 41.6765 6.10216 41.293V28.5964Z" fill="url(#paint0_linear_7394_18934)"/>
<path d="M28.3093 35.377H34.4113V16.5781C34.4113 16.1947 34.1006 15.8839 33.7172 15.8839H3.06921C2.68581 15.8839 2.375 16.1947 2.375 16.5781V28.5968H8.47716V22.6803C8.47716 22.2969 8.78797 21.9861 9.17138 21.9861H27.615C27.9985 21.9861 28.3093 22.2969 28.3093 22.6803V35.377Z" fill="url(#paint1_linear_7394_18934)"/>
</g>
<defs>
<linearGradient id="paint0_linear_7394_18934" x1="6.59008" y1="38.2898" x2="25.1741" y2="38.2898" gradientUnits="userSpaceOnUse">
<stop stop-color="#5DE079"/>
<stop offset="1" stop-color="#75EA8E"/>
</linearGradient>
<linearGradient id="paint1_linear_7394_18934" x1="28.0757" y1="25.6373" x2="8.83262" y2="25.6373" gradientUnits="userSpaceOnUse">
<stop stop-color="#5DE079"/>
<stop offset="1" stop-color="#75EA8E"/>
</linearGradient>
<clipPath id="clip0_7394_18934">
<rect width="120" height="32.3288" fill="white" transform="translate(0 15.884)"/>
</clipPath>
</defs>
</svg>
