<svg width="108" height="64" viewBox="0 0 108 64" fill="none" xmlns="http://www.w3.org/2000/svg">
<path fill-rule="evenodd" clip-rule="evenodd" d="M108 16.7016H0V47.5841H108V16.7016ZM102.584 38.9606C102.762 38.9606 102.94 38.9281 103.151 38.8687L103.172 40.9038C102.454 41.2984 101.585 41.5358 100.748 41.5358C98.9497 41.5358 97.9614 40.4881 97.7835 38.8413C97.0056 40.2182 95.6287 41.5358 93.4418 41.5358C91.4923 41.5358 89.2785 40.4827 89.2785 37.6693C89.2785 34.3428 92.486 33.5654 95.5692 33.5654C96.32 33.5654 97.0979 33.5924 97.7889 33.6839V33.2361C97.7889 31.8591 97.7565 30.2119 95.5692 30.2119C94.7597 30.2119 94.1332 30.2714 93.5012 30.6007L93.0639 32.1236L89.9806 31.7943L90.5095 28.6836C92.8805 27.7282 94.0733 27.458 96.293 27.458C99.1983 27.458 101.655 28.9593 101.655 32.0425V37.9129C101.655 38.6903 101.952 38.9606 102.584 38.9606ZM93.2689 37.2215C93.2689 38.0912 93.69 38.7822 94.8566 38.7822C96.2336 38.7822 97.7024 37.794 97.7943 35.5422C97.1624 35.4558 96.4714 35.3639 95.8448 35.3639C94.4679 35.3639 93.2689 35.7526 93.2689 37.2215ZM83.8242 41.2393L89.6672 20.6275H85.8601L80.0176 41.2393H83.8242ZM75.9781 41.2393L81.8211 20.6275H78.0195L72.1765 41.2393H75.9781ZM69.6441 27.7286H65.5993V32.5775H69.6441V27.7286ZM69.6441 36.3846H65.5993V41.2393H69.6441V36.3846ZM62.7697 36.5035L59.7135 36.2062L59.0869 38.3016H54.7128L62.2084 29.7587L61.9057 27.7232H50.0418L49.5612 32.4586L52.348 32.7613L52.9471 30.6659H57.1699L49.7396 39.2034L50.1283 41.2393H61.9328L62.7697 36.5035ZM33.1024 34.6783C33.1024 30.7253 35.4996 27.4587 40.3544 27.4587C45.2037 27.4587 47.5743 30.7199 47.5743 34.4949C47.5743 38.8092 44.4583 41.5362 40.1436 41.5362C35.9802 41.5362 33.1024 38.993 33.1024 34.6783ZM37.0874 34.4351C37.0874 36.7733 38.1675 38.5714 40.2625 38.5714C42.2714 38.5714 43.5889 36.9516 43.5889 34.376C43.5889 31.6487 42.1201 30.4231 40.2953 30.4231C38.313 30.4231 37.0874 31.8865 37.0874 34.4351ZM31.4228 38.3016H29.63V32.1239C29.63 28.9218 27.4104 27.453 24.9861 27.453C22.8583 27.453 21.3304 28.5601 20.5795 30.3582C19.9156 28.3817 18.1228 27.453 16.1734 27.453C14.2888 27.453 12.8794 28.3227 12.0691 29.7587V27.7228H6.40986V30.6605H8.20838V38.3016H6.40986V41.2393H14.6451V38.3016H12.0691V33.6036C12.0691 31.7136 12.8199 30.3957 14.6775 30.3957C16.2054 30.3957 16.9833 31.2924 16.9833 33.6306V41.2393H22.6425V38.3016H20.8443V33.6036C20.8443 31.7136 21.5948 30.3957 23.4524 30.3957C24.9807 30.3957 25.7581 31.2924 25.7581 33.6306V41.2393H31.4228V38.3016Z" fill="white"/>
</svg>
