<svg width="120" height="64" viewBox="0 0 120 64" fill="none" xmlns="http://www.w3.org/2000/svg">
<g clip-path="url(#clip0_662_1912)">
<path d="M63.9825 42.5546C64.1006 42.5463 64.2188 42.5398 64.337 42.5351C64.7579 42.5196 65.0775 42.6278 65.3863 42.9246C65.7254 43.2503 65.9439 43.7398 65.9518 44.2103C65.9597 44.6755 65.7677 45.193 65.4391 45.5244C65.0547 45.9125 64.7175 45.8992 64.2063 45.901C63.9561 45.9016 63.6623 45.8846 63.4209 45.8175C62.6214 45.5957 62.6091 44.7378 62.2677 44.1342L62.2461 44.0967C62.4141 43.9441 62.5347 43.5844 62.6672 43.3814C63.0161 42.8464 63.3754 42.6864 63.9825 42.5546Z" fill="white"/>
<path d="M69.4534 26.4373C69.6891 26.4248 69.9277 26.4295 70.1638 26.4271C70.1763 26.4506 70.1882 26.4735 70.1986 26.498C70.3289 26.8063 70.3055 31.5092 70.207 31.7415C71.0809 31.8128 71.9759 31.7849 72.8538 31.8224C72.8959 31.9067 72.9325 31.9949 72.9464 32.0888C73.0039 32.4738 73.0288 33.2197 72.7957 33.5435C71.9363 33.5033 71.0764 33.4854 70.2161 33.4895C70.2295 33.5108 70.2441 33.5352 70.252 33.559C70.3221 33.7738 70.288 42.7615 70.2588 43.7574C70.2564 43.8379 70.2314 43.9101 70.1995 43.9831C70.835 44.0472 71.4862 44.0351 72.1252 44.0565C72.3121 44.2736 72.4168 44.7388 72.4336 45.0224C72.4466 45.2428 72.3627 45.4494 72.2168 45.6126C71.9645 45.8945 71.5825 45.8606 71.2363 45.874C70.6086 45.9356 69.7889 45.9278 69.1875 45.7149C68.8445 45.5936 68.5239 45.3822 68.3641 45.0452C68.2104 44.721 68.143 44.3585 68.1116 44.0033C68.0298 43.0799 68.0846 42.1076 68.0863 41.1788L68.1064 35.7651C68.1086 35.1445 68.2393 34.0819 67.9743 33.5247C67.2609 33.4438 66.5109 33.5169 65.7886 33.4822C65.8364 33.3627 65.747 32.0327 65.6875 31.8694C66.4505 31.8179 67.2161 31.819 67.9787 31.7647C68.0107 31.7202 68.0371 31.6724 68.0518 31.6192C68.1866 31.1345 68.1598 26.9129 67.9938 26.6064C68.4786 26.5141 68.9621 26.4754 69.4534 26.4373Z" fill="white"/>
<path d="M98.2472 31.3013C100.09 31.3054 101.793 31.7095 103.291 32.847C103.741 33.1884 104.745 33.9352 104.809 34.5075C104.827 34.6688 104.769 34.8116 104.669 34.9354C104.428 35.2347 103.783 35.6245 103.401 35.6639C103.114 35.6161 102.47 34.7907 102.187 34.5629C100.911 33.5368 99.1513 33.2864 97.5663 33.4627C96.1409 33.6211 94.9915 34.2988 94.1034 35.4195C93.1929 36.5686 92.9788 37.9593 93.1502 39.385C93.3254 40.842 93.9479 41.9977 95.1111 42.9029C96.3145 43.8395 97.7906 44.1704 99.2911 43.9773C101.129 43.7409 101.652 42.5871 103.124 41.8288C103.322 41.727 103.52 41.7138 103.73 41.7891C104.033 41.8977 104.731 42.4395 104.875 42.7361C104.81 42.9406 104.671 43.1225 104.534 43.2841C103.118 44.9529 101.361 45.6864 99.2124 45.8552C97.0586 46.0243 95.0586 45.6214 93.3802 44.1781C91.9268 42.9281 91.1061 41.1889 90.9675 39.2884C90.819 37.2513 91.415 35.3748 92.7611 33.8277C94.1627 32.2166 96.1527 31.4454 98.2472 31.3013Z" fill="white"/>
<path d="M107.852 26.616C108.535 26.46 109.137 26.3776 109.834 26.4828C109.854 26.5104 109.855 26.5094 109.875 26.543C109.945 26.661 109.953 26.8168 109.956 26.9511C109.984 28.1714 109.922 29.4039 109.926 30.6264C109.928 31.2962 110.073 33.332 109.946 33.8153C110.372 33.6055 110.664 33.0728 111.012 32.7489C111.387 32.3989 111.93 32.0927 112.389 31.8712C113.71 31.2343 115.143 31.118 116.534 31.605C117.575 31.9695 118.705 32.8128 119.183 33.8303C119.751 35.0385 119.908 36.1443 119.994 37.5227C120.04 38.2757 119.809 45.4681 120.001 45.4552C119.859 45.4647 118.287 45.4552 117.917 45.4552C117.917 45.4552 117.917 37.8339 117.852 37.04C117.808 36.5086 117.735 35.9723 117.552 35.4691C117.268 34.6907 116.783 33.9289 116.008 33.5711C115.112 33.1575 113.858 33.2855 112.958 33.6203C111.767 34.0634 110.803 35.1766 110.391 36.3627C109.848 37.9295 109.919 41.9016 109.937 43.6896C109.942 44.1871 109.937 44.8838 109.859 45.4513C109.715 45.4513 107.944 45.4552 107.945 45.4513C107.945 45.4513 108.004 28.5716 107.931 26.99C107.925 26.8548 107.903 26.7418 107.852 26.616Z" fill="white"/>
<path fill-rule="evenodd" clip-rule="evenodd" d="M86.2205 32.9425C84.6553 31.6432 82.6114 31.1826 80.6174 31.3609C78.558 31.7768 76.8324 32.7737 75.6553 34.5437C74.5557 36.1969 74.2894 38.3664 74.6842 40.2919C75.0596 42.1218 76.1185 43.8534 77.6924 44.8834C79.3782 45.9864 81.8232 46.1035 83.763 45.6935C85.5373 45.3184 86.8078 44.1037 87.7687 42.6177C87.7871 42.5891 87.8081 42.5581 87.8304 42.5251C87.9546 42.3416 88.1191 42.0985 88.1007 41.9032C88.0698 41.6423 87.8473 41.4125 87.6469 41.2578C87.3898 41.0591 87.0182 40.8864 86.6873 40.9391C86.4146 40.9827 86.2462 41.2281 86.0982 41.4436C86.0855 41.4621 86.073 41.4804 86.0605 41.4984C85.4121 42.4308 84.6832 43.1765 83.6158 43.6493C82.4673 44.1585 80.8998 44.1594 79.7358 43.7016C78.4932 43.2126 77.6978 42.4034 77.1712 41.1825C77.0733 40.9556 76.9651 40.4804 76.8622 40.0286C76.7552 39.5587 76.6539 39.1142 76.5762 39.001C78.9033 38.9665 81.2307 38.9528 83.5582 38.96C84.0689 38.9626 84.5815 38.9715 85.0947 38.9804C86.075 38.9974 87.0573 39.0145 88.0319 38.988C88.0577 38.9873 88.084 38.9868 88.1106 38.9863C88.3062 38.9824 88.5195 38.9782 88.6944 38.8968C88.8141 38.755 88.8166 38.613 88.8028 38.4346C88.779 38.1253 88.6951 37.8057 88.6143 37.4978C88.5932 37.4174 88.5724 37.3378 88.5528 37.2594C88.1514 35.6471 87.5328 34.0318 86.2205 32.9425ZM84.6551 34.3666C83.5268 33.553 82.1879 33.3148 80.8259 33.4711C79.3811 33.7045 78.7524 34.0055 77.8606 35.243C77.6193 35.5779 76.9474 36.5371 77.0349 36.9561C77.0554 37.0541 77.0742 37.0697 77.143 37.1263C77.1462 37.1289 77.1494 37.1315 77.1527 37.1343C77.6341 37.1741 78.1267 37.1628 78.6152 37.1517C78.7979 37.1476 78.98 37.1434 79.1608 37.142L82.37 37.1377L84.7918 37.1404C84.9233 37.1413 85.0577 37.1461 85.1932 37.151C85.545 37.1638 85.9044 37.1768 86.2413 37.1213C86.3122 37.0256 86.3032 36.9645 86.2871 36.8556C86.2859 36.8471 86.2846 36.8384 86.2833 36.8293C86.1509 35.8991 85.4006 34.9043 84.6551 34.3666Z" fill="white"/>
<path fill-rule="evenodd" clip-rule="evenodd" d="M0.00528014 30.047C0.00351419 30.0509 0.00175017 30.0548 0 30.0587V33.1838C0.192202 33.5985 0.265331 34.1092 0.336883 34.6088C0.379316 34.9051 0.421194 35.1976 0.487025 35.4638C1.07961 37.8603 2.4333 40.1954 4.20754 41.9083C4.29205 41.9908 4.37758 42.0723 4.46413 42.1528C4.55067 42.2331 4.63822 42.3124 4.72675 42.3906C4.81529 42.4688 4.90479 42.5459 4.99525 42.6219C5.08571 42.6978 5.17711 42.7726 5.26945 42.8462C5.36179 42.9198 5.45504 42.9923 5.5492 43.0637C5.64335 43.135 5.73839 43.2051 5.8343 43.2742C5.93021 43.3431 6.02696 43.4108 6.12457 43.4772C6.22219 43.5438 6.32062 43.6091 6.41986 43.6731C6.51911 43.7372 6.61914 43.8 6.71995 43.8615C6.82077 43.9231 6.92234 43.9834 7.02466 44.0424C7.127 44.1015 7.23005 44.1591 7.33382 44.2154C7.4376 44.2719 7.54206 44.327 7.64722 44.3808C7.75236 44.4346 7.85817 44.4871 7.96464 44.5383C8.07111 44.5894 8.1782 44.6392 8.28591 44.6878C8.39363 44.7362 8.50193 44.7833 8.61082 44.829C8.71973 44.8747 8.82918 44.9191 8.93918 44.9622C9.04919 45.0052 9.15972 45.0468 9.27077 45.087C9.38182 45.1273 9.49335 45.1661 9.60538 45.2035C9.7174 45.241 9.82988 45.277 9.9428 45.3117C10.0557 45.3462 10.1691 45.3794 10.2828 45.4112C10.3966 45.4429 10.5107 45.4733 10.6252 45.5022C10.7397 45.5312 10.8546 45.5587 10.9698 45.5847C11.085 45.6108 11.2005 45.6354 11.3164 45.6585C11.4322 45.6817 11.5483 45.7034 11.6646 45.7237C11.781 45.7439 11.8976 45.7626 12.0144 45.7799C12.1313 45.7973 12.2483 45.8131 12.3655 45.8274C12.4828 45.8418 12.6002 45.8547 12.7177 45.8662C12.8353 45.8776 12.953 45.8876 13.0708 45.8962C13.1886 45.9046 13.3065 45.9116 13.4244 45.9172C13.5424 45.9227 13.6605 45.9268 13.7785 45.9294C13.8966 45.9319 14.0147 45.9329 14.1328 45.9326C14.2509 45.9322 14.369 45.9304 14.4871 45.927C17.5533 45.8678 20.9784 44.8924 23.1525 42.6326C23.8337 42.9794 24.4417 43.4627 25.0503 43.9465C25.8802 44.6061 26.711 45.2666 27.7296 45.5828C29.0125 45.9808 31.1029 45.9854 32.2968 45.3497C32.9848 44.9835 33.6243 44.4465 34.1196 43.8462C35.0634 42.702 36.8852 39.0938 37.3204 37.6797C37.942 37.5897 38.595 37.6041 39.2382 37.6183C39.5009 37.6241 39.7619 37.6299 40.0186 37.6285C41.9933 37.6138 43.9682 37.6129 45.943 37.6258C46.16 37.6265 46.3837 37.6322 46.6104 37.6379C47.2859 37.6551 47.9886 37.673 48.6238 37.561C48.657 37.4597 48.6591 37.3674 48.6398 37.2638C48.5593 36.8287 46.898 33.3595 46.6123 32.8715C46.5395 32.747 46.4591 32.6497 46.3393 32.567C45.9569 32.4895 45.4744 32.5092 45.0291 32.5274C44.8481 32.5348 44.6731 32.542 44.5136 32.5422C44.1993 32.5427 43.8845 32.5448 43.5694 32.5469C42.3955 32.5546 41.218 32.5623 40.0488 32.4887C40.1966 32.0878 40.3994 31.6938 40.6003 31.3036C40.7013 31.1073 40.8018 30.912 40.8946 30.7172C41.552 29.3137 42.2298 27.92 42.928 26.5362C43.0641 26.2652 43.1939 25.9813 43.3249 25.6948C43.603 25.0869 43.8863 24.4675 44.2448 23.9359C44.771 24.711 45.1882 25.6093 45.5954 26.4859C45.7421 26.8017 45.8875 27.1147 46.0363 27.4181L48.8154 33.071C49.8103 35.1381 50.8447 37.1852 51.8789 39.2321C52.8243 41.1031 53.7695 42.974 54.6847 44.8599C54.7109 44.914 54.7459 44.9792 54.7845 45.0511C54.9261 45.3149 55.1158 45.6683 55.097 45.8887C55.8041 46.012 59.6402 46.0245 60.347 45.9187C60.3628 45.9163 60.3776 45.9142 60.3916 45.9123C60.5057 45.8964 60.566 45.8881 60.6439 45.7831C60.6479 45.7342 60.6471 45.6865 60.6366 45.6383C60.5845 45.3991 60.3572 45.0256 60.1575 44.6975C60.0609 44.5386 59.9707 44.3904 59.91 44.2733C59.4466 43.3602 58.9914 42.4429 58.5447 41.5215C56.0561 36.3419 53.5137 31.1887 50.9175 26.062L48.9713 22.1664C48.8737 21.9701 48.7775 21.772 48.6811 21.5737C48.3909 20.9766 48.0991 20.3762 47.7648 19.8071C47.4139 19.2098 47.04 18.7581 46.4452 18.3977C46.3863 18.3619 46.3264 18.3277 46.2657 18.2949C46.2051 18.2622 46.1437 18.2309 46.0814 18.2013C46.0193 18.1716 45.9564 18.1435 45.8927 18.1169C45.8291 18.0904 45.7649 18.0655 45.7 18.0422C45.6351 18.0188 45.5697 17.9972 45.5038 17.9771C45.4378 17.9571 45.3714 17.9387 45.3045 17.9219C45.2377 17.9052 45.1705 17.8902 45.1029 17.8768C45.0352 17.8634 44.9673 17.8518 44.8991 17.8418C44.8309 17.8319 44.7624 17.8236 44.6938 17.8171C44.6252 17.8105 44.5564 17.8057 44.4875 17.8026C44.4187 17.7995 44.3498 17.7981 44.2809 17.7985C44.212 17.7988 44.1431 17.8009 44.0743 17.8047C44.0055 17.8085 43.9368 17.814 43.8682 17.8212C43.7996 17.8285 43.7313 17.8374 43.6632 17.848C43.5951 17.8587 43.5273 17.871 43.4598 17.8851C43.3923 17.8991 43.3252 17.9148 43.2586 17.9322C42.4389 18.1394 41.6389 18.5536 41.0877 19.2064C40.399 20.0219 39.6389 21.642 39.0236 22.9536C38.8349 23.3559 38.6597 23.7292 38.5045 24.0414L32.7341 35.6231C32.1585 36.814 31.591 38.0087 31.0316 39.2072C30.9586 39.361 30.8874 39.5212 30.8155 39.6832C30.6472 40.0622 30.4748 40.4504 30.2645 40.7863C30.182 40.9181 30.1309 40.9442 29.9827 40.9797C29.1527 40.8212 27.2759 39.3247 26.5943 38.7247C26.6965 38.4721 26.8185 38.2265 26.9407 37.9807C27.0534 37.7539 27.1662 37.5268 27.2638 37.2937C28.6636 33.9474 28.742 29.6881 27.3586 26.3273C25.8521 22.6675 23.0416 19.9433 19.4023 18.4325C16.0126 17.0253 12.1149 17.1301 8.74175 18.5302C6.01129 19.6635 4.07866 21.2326 2.43421 23.6986C1.78304 24.675 1.22834 25.6994 0.845957 26.8115C0.833693 26.8472 0.821367 26.8829 0.809008 26.9188C0.647902 27.3862 0.481308 27.8696 0.37472 28.3495C0.33483 28.5292 0.305332 28.7236 0.275345 28.9212C0.21751 29.3024 0.157856 29.6955 0.0183229 30.0178C0.0140857 30.0276 0.00967691 30.0373 0.00528014 30.047ZM17.8782 23.2201C16.455 22.5858 14.6747 22.3117 13.1215 22.5031C10.6659 22.8419 8.57287 23.8984 7.05453 25.9003C5.47467 27.9834 4.73604 30.403 5.09946 33.0175C5.43558 35.4359 6.6546 37.5607 8.60774 39.0362C10.6071 40.5468 12.9777 41.1819 15.4682 40.8293C16.6592 40.6605 18.1582 40.2236 19.1105 39.4659C18.8945 39.2405 18.6828 39.0441 18.4284 38.8625C18.2153 38.7133 17.9913 38.5634 17.7632 38.4108C16.9006 37.8337 15.9787 37.2168 15.3611 36.4473C16.0881 35.5511 16.7904 34.636 17.4679 33.702C17.576 33.5554 17.6803 33.4032 17.7849 33.2506C17.9616 32.9929 18.139 32.734 18.3361 32.4998C18.4737 32.6087 18.6687 32.7663 18.9003 32.9536C19.9565 33.8076 21.7735 35.2769 22.3784 35.5355C22.5307 35.4796 22.592 35.4166 22.6628 35.267C22.7669 35.047 22.8367 34.7929 22.9035 34.55C22.9206 34.4877 22.9376 34.4261 22.9548 34.3661C22.9903 34.2428 23.0233 34.119 23.0537 33.9944C23.0842 33.8699 23.1122 33.7448 23.1377 33.6191C23.1633 33.4935 23.1862 33.3674 23.2066 33.2409C23.2271 33.1142 23.2451 32.9872 23.2605 32.86C23.2759 32.7327 23.2887 32.6052 23.2991 32.4775C23.3093 32.3496 23.3171 32.2217 23.3223 32.0936C23.3276 31.9655 23.3302 31.8373 23.3304 31.7091C23.3304 31.5809 23.3278 31.4527 23.3228 31.3246C23.3178 31.1964 23.3103 31.0684 23.3002 30.9407C23.2901 30.8128 23.2774 30.6853 23.2621 30.558C23.2469 30.4306 23.2291 30.3037 23.2087 30.1771C23.1885 30.0505 23.1657 29.9243 23.1403 29.7987C23.115 29.673 23.0872 29.5478 23.057 29.4232C23.0266 29.2987 22.9938 29.1748 22.9586 29.0516C22.9233 28.9283 22.8856 28.8057 22.8454 28.6839C22.8052 28.5622 22.7627 28.4414 22.7177 28.3212C22.6628 28.1814 22.6046 28.0429 22.543 27.9059C22.4816 27.7689 22.4168 27.6334 22.3487 27.4995C22.2808 27.3655 22.2095 27.2333 22.135 27.1028C22.0606 26.9724 21.9831 26.8437 21.9025 26.717C21.8219 26.5902 21.7383 26.4655 21.6518 26.3428C21.5651 26.22 21.4756 26.0995 21.3832 25.9811C21.2907 25.8626 21.1955 25.7465 21.0975 25.6327C20.9995 25.5189 20.8988 25.4075 20.7953 25.2985C20.692 25.1895 20.5861 25.0831 20.4775 24.9793C20.369 24.8754 20.2581 24.7742 20.1448 24.6757C20.0314 24.5772 19.9156 24.4814 19.7977 24.3885C19.6797 24.2955 19.5595 24.2055 19.4371 24.1183C19.3149 24.0312 19.1905 23.947 19.0641 23.8659C18.9378 23.7847 18.8095 23.7066 18.6793 23.6316C18.5492 23.5567 18.4173 23.4849 18.2837 23.4162C18.1502 23.3476 18.015 23.2822 17.8782 23.2201Z" fill="white"/>
</g>
<defs>
<clipPath id="clip0_662_1912">
<rect width="120" height="45.7143" fill="white" transform="translate(0 8.88391)"/>
</clipPath>
</defs>
</svg>
