<svg width="190" height="64" viewBox="0 0 190 64" fill="none" xmlns="http://www.w3.org/2000/svg">
<path d="M187.366 38.9493C186.781 38.9493 186.306 39.429 186.306 40.0196C186.306 40.6102 186.781 41.0899 187.366 41.0899C187.95 41.0899 188.425 40.6102 188.425 40.0196C188.425 39.429 187.95 38.9493 187.366 38.9493ZM187.366 40.9202C186.873 40.9202 186.474 40.5151 186.474 40.0196C186.474 39.5217 186.875 39.119 187.366 39.119C187.858 39.119 188.259 39.5241 188.259 40.0196C188.259 40.5151 187.858 40.9202 187.366 40.9202ZM187.71 39.8363C187.71 39.6417 187.574 39.5263 187.372 39.5263H187.034V40.5016H187.2V40.1486H187.381L187.556 40.5016H187.735L187.542 40.1124C187.645 40.0648 187.71 39.9698 187.71 39.8363ZM187.366 39.997H187.202V39.6734H187.366C187.477 39.6734 187.545 39.73 187.545 39.8341C187.545 39.9404 187.475 39.997 187.366 39.997ZM59.7453 28.1173V25.5286H55.8177V40.9292H59.7453V31.6948C59.7453 30.0226 60.8067 29.2011 62.4615 29.2011H64.6112V25.5287H62.775C61.3374 25.5286 60.0879 26.2866 59.7453 28.1173ZM68.2902 19.4372C66.9467 19.4372 65.9166 20.5098 65.9166 21.8675C65.9166 23.1934 66.9467 24.266 68.2902 24.266C69.6338 24.266 70.6638 23.1934 70.6638 21.8675C70.6638 20.5097 69.6338 19.4372 68.2902 19.4372ZM66.3309 40.9293H70.2496V25.5286H66.3309V40.9293ZM88.9157 33.2289C88.9157 37.6255 85.389 41.1895 81.0381 41.1895C79.2825 41.1895 77.6905 40.608 76.4141 39.6259V45.4504H72.4954V25.5286H76.4141V26.832C77.6905 25.8499 79.2825 25.2684 81.0381 25.2684C85.389 25.2684 88.9157 28.8323 88.9157 33.2289ZM84.9725 33.2289C84.9725 30.8417 83.0557 28.9047 80.6933 28.9047C78.3309 28.9047 76.4141 30.8417 76.4141 33.2289C76.4141 35.6162 78.3309 37.5531 80.6933 37.5531C83.0557 37.5531 84.9725 35.6185 84.9725 33.2289ZM157.024 31.8781L154.738 31.2445C153.233 30.8484 152.649 30.3823 152.649 29.579C152.649 28.7961 153.473 28.2485 154.65 28.2485C155.772 28.2485 156.652 28.9907 156.652 29.9411V30.0293H160.264V29.9411C160.264 27.1465 158.009 25.2683 154.65 25.2683C151.325 25.2683 148.909 27.1442 148.909 29.7306C148.909 31.7422 150.228 33.2583 152.53 33.8873L154.72 34.4915C156.384 34.9576 157.002 35.4736 157.002 36.3991C157.002 37.3744 156.108 38.0306 154.778 38.0306C153.392 38.0306 152.458 37.1435 152.458 35.8266V35.7383H148.625V35.8266C148.625 38.9855 151.142 41.1939 154.747 41.1939C158.22 41.1939 160.741 39.0375 160.741 36.0687C160.741 34.6114 160.096 32.7062 157.024 31.8781ZM102.817 25.5286H106.735V40.9292H102.817V39.6258C101.54 40.6079 99.9484 41.1894 98.1928 41.1894C93.8421 41.1894 90.3153 37.6255 90.3153 33.2289C90.3153 28.8322 93.8421 25.2683 98.1928 25.2683C99.9484 25.2683 101.541 25.8499 102.817 26.8319V25.5286ZM102.817 33.2289C102.817 30.8394 100.9 28.9047 98.5377 28.9047C96.1752 28.9047 94.2585 30.8417 94.2585 33.2289C94.2585 35.6162 96.1752 37.5531 98.5377 37.5531C100.902 37.5531 102.817 35.6185 102.817 33.2289ZM120.885 20.0481H124.804V40.9315H120.885V39.6281C119.609 40.6102 118.017 41.1917 116.261 41.1917C111.91 41.1917 108.384 37.6278 108.384 33.2311C108.384 28.8345 111.91 25.2706 116.261 25.2706C118.017 25.2706 119.609 25.8521 120.885 26.8342V20.0481ZM120.885 33.2289C120.885 30.8417 118.968 28.9047 116.606 28.9047C114.244 28.9047 112.327 30.8417 112.327 33.2289C112.327 35.6162 114.241 37.5531 116.606 37.5531C118.968 37.5531 120.885 35.6185 120.885 33.2289ZM142.998 40.9293H146.916V25.5286H142.998V40.9293ZM144.957 19.4372C143.613 19.4372 142.583 20.5098 142.583 21.8675C142.583 23.1934 143.613 24.266 144.957 24.266C146.3 24.266 147.33 23.1934 147.33 21.8675C147.33 20.5097 146.3 19.4372 144.957 19.4372ZM177.679 33.2289C177.679 37.6255 174.152 41.1895 169.801 41.1895C165.45 41.1895 161.923 37.6256 161.923 33.2289C161.923 28.8323 165.45 25.2684 169.801 25.2684C174.152 25.2684 177.679 28.8323 177.679 33.2289ZM174.08 33.2289C174.08 30.8417 172.163 28.9047 169.801 28.9047C167.439 28.9047 165.522 30.8417 165.522 33.2289C165.522 35.6162 167.436 37.5531 169.801 37.5531C172.163 37.5531 174.08 35.6185 174.08 33.2289ZM57.7389 20.0481H42.707V23.5804H48.2715V40.9292H52.1767V23.5804H57.7413V20.0481H57.7389ZM133.758 36.7114L130.272 25.5287H126.156L131.385 40.9293H136.101L141.361 25.5287H137.245L133.758 36.7114ZM183.42 28.1173V25.5286H179.492V40.9292H183.42V31.6948C183.42 30.0226 184.481 29.2011 186.136 29.2011H188.286V25.5287H186.45C185.012 25.5286 183.765 26.2866 183.42 28.1173Z" fill="#D4D9E6"/>
<path d="M20.0411 52.388C31.1094 52.388 40.0821 43.3209 40.0821 32.136C40.0821 20.9511 31.1094 11.884 20.0411 11.884C8.97269 11.884 0 20.9511 0 32.136C0 43.3209 8.97269 52.388 20.0411 52.388Z" fill="#34E0A1"/>
<path d="M32.4208 28.1852L34.8391 25.5263H29.4762C26.7914 23.6731 23.549 22.5938 20.0423 22.5938C16.5401 22.5938 13.3067 23.6754 10.6264 25.5263H5.25L7.66837 28.1852C6.18602 29.5519 5.25674 31.5205 5.25674 33.7064C5.25674 37.8315 8.56636 41.1759 12.6485 41.1759C14.5876 41.1759 16.3544 40.4201 17.6733 39.1846L20.0424 41.7914L22.4115 39.1869C23.7304 40.4224 25.4949 41.1759 27.434 41.1759C31.5161 41.1759 34.8302 37.8315 34.8302 33.7064C34.8324 31.5183 33.9032 29.5496 32.4208 28.1852ZM12.6507 38.7615C9.88742 38.7615 7.64826 36.4987 7.64826 33.7064C7.64826 30.9141 9.88747 28.6513 12.6507 28.6513C15.4138 28.6513 17.6531 30.9141 17.6531 33.7064C17.6531 36.4987 15.4138 38.7615 12.6507 38.7615ZM20.0446 33.5593C20.0446 30.233 17.6509 27.3773 14.4913 26.1577C16.1998 25.4358 18.074 25.0353 20.0423 25.0353C22.0106 25.0353 23.887 25.4358 25.5956 26.1577C22.4383 27.3796 20.0446 30.233 20.0446 33.5593ZM27.4363 38.7615C24.6731 38.7615 22.4338 36.4987 22.4338 33.7064C22.4338 30.9141 24.6731 28.6513 27.4363 28.6513C30.1995 28.6513 32.4387 30.9141 32.4387 33.7064C32.4387 36.4987 30.1995 38.7615 27.4363 38.7615ZM27.4363 31.0543C25.9875 31.0543 24.8141 32.2401 24.8141 33.7041C24.8141 35.1681 25.9875 36.3538 27.4363 36.3538C28.885 36.3538 30.0584 35.1681 30.0584 33.7041C30.0584 32.2423 28.885 31.0543 27.4363 31.0543ZM15.2728 33.7064C15.2728 35.1704 14.0994 36.3561 12.6507 36.3561C11.2019 36.3561 10.0285 35.1704 10.0285 33.7064C10.0285 32.2423 11.2019 31.0566 12.6507 31.0566C14.0994 31.0543 15.2728 32.2423 15.2728 33.7064Z" fill="black"/>
</svg>
