<svg width="120" height="64" viewBox="0 0 120 64" fill="none" xmlns="http://www.w3.org/2000/svg">
<g id="Customer-Logo/Visua">
<path id="Logo" fill-rule="evenodd" clip-rule="evenodd" d="M31.6073 35.7711V42.435V42.6639H41.2867L41.3205 42.435V20.9639H34.8662H33.8547H32.6073H31.6073V21.9639V35.7711ZM16.4813 42.664L16.4798 42.6602L16.4776 42.664L15.9 41.6591L4.57873 21.964L4.00391 20.964H5.15735H8.01873L8.01872 20.964H28.8772L16.4813 42.664ZM14.0556 36.4439L8.40871 21.964H5.73217L14.0556 36.4439ZM32.6073 21.9639V29.1827L33.703 21.9639H32.6073ZM65.1227 25.146C65.2637 25.345 65.3976 25.551 65.5242 25.7634C65.9028 26.3985 66.2162 27.091 66.4589 27.828L63.3722 29.0149C63.0776 28.3057 62.6995 27.6178 62.2295 26.9706L64.1644 25.5294L64.9644 24.9335L64.9549 24.9168L64.9665 24.9323C65.0195 25.0026 65.0715 25.0738 65.1227 25.146ZM64.7175 26.3643C64.8817 26.6473 65.0323 26.9439 65.1686 27.2528L63.8827 27.7472C63.7883 27.5662 63.6884 27.3868 63.5828 27.2095L64.7175 26.3643ZM64.9621 24.9324C63.4354 22.8784 61.2731 21.5781 58.951 21.1004C57.2823 20.8186 55.5159 20.9643 53.8044 21.6187C48.6222 23.5997 45.9063 29.4591 47.6895 34.7513L47.6859 34.7538C47.9804 35.4618 48.3597 36.1496 48.8297 36.7968L46.0948 38.8339C46.5969 39.511 47.1707 40.1057 47.7956 40.6167C50.4089 42.637 53.957 43.2831 57.2955 42.0066C62.1211 40.1617 64.807 34.9495 63.711 29.9677C63.3961 28.9194 62.9058 27.9044 62.2272 26.9694L64.9621 24.9324ZM44.5965 35.9397C44.8392 36.6767 45.1524 37.3692 45.5311 38.0043C45.6576 38.2165 45.7914 38.4222 45.9323 38.6211C45.9835 38.6935 46.0357 38.7649 46.0888 38.8354L46.1005 38.8508L46.091 38.8342L46.891 38.2382L48.8257 36.797C48.3559 36.1498 47.9777 35.462 47.6832 34.7528L44.5965 35.9397ZM47.4725 36.5581L46.3378 37.4034C46.1736 37.1204 46.023 36.8238 45.8867 36.5149L47.1726 36.0204C47.267 36.2015 47.3669 36.3808 47.4725 36.5581ZM91.2565 32.4174L91.3757 20.9639H74.2867L74.2866 20.9646H73.2781H71.6543H70.6543V21.9646V32.2828C70.6376 34.8076 71.5285 37.1262 73.021 38.9287C74.8961 41.1932 77.7207 42.6431 80.8882 42.664C81.0285 42.664 81.1688 42.6616 81.3067 42.6556L81.3134 42.6558C86.8068 42.4676 91.2203 37.9712 91.2565 32.4174ZM71.6708 32.9152C71.6585 32.7084 71.6529 32.4997 71.6543 32.2894V32.2828V21.9646H73.1418L71.7548 32.1446C71.7179 32.4034 71.69 32.6604 71.6708 32.9152ZM91.7043 41.6639L91.1294 42.6639H92.2829H95.1445H114.847H115.999H116.003L103.607 20.9639L103.605 20.9679L103.603 20.9639L103.026 21.9688L91.7043 41.6639ZM101.182 27.1829L92.8577 41.6639H95.5344L101.182 27.1829Z" fill="white"/>
</g>
</svg>
