<svg preserveAspectRatio="none" width="100%" height="100%" overflow="visible" style="display: block;" viewBox="0 0 38.3093 204.915" fill="none" xmlns="http://www.w3.org/2000/svg">
<g id="Line-2">
<path id="Line" d="M18.4632 192L18.4632 2.18557e-08" stroke="url(#paint0_linear_13894_90543)" stroke-miterlimit="10"/>
<g id="Point">
<g filter="url(#filter0_i_13894_90543)">
<path d="M16.3262 195.692C18.4601 196.264 21.4563 195.461 23.0184 193.899C24.5805 192.337 24.117 190.607 21.9831 190.035C19.8492 189.464 16.8531 190.266 15.291 191.828C13.7289 193.391 14.1924 195.12 16.3262 195.692Z" fill="var(--fill-0, #038585)"/>
</g>
<path d="M26.2257 185.793C31.5604 187.222 32.7192 191.547 28.8139 195.452C24.9087 199.357 17.4183 201.364 12.0836 199.935C6.74894 198.505 5.59016 194.181 9.49541 190.276C13.4006 186.37 20.8911 184.363 26.2257 185.793Z" stroke="var(--stroke-0, #038585)" stroke-opacity="0.1" stroke-width="12"/>
</g>
</g>
<defs>
<filter id="filter0_i_13894_90543" x="0" y="180.813" width="38.3093" height="24.1021" filterUnits="userSpaceOnUse" color-interpolation-filters="sRGB">
<feFlood flood-opacity="0" result="BackgroundImageFix"/>
<feBlend mode="normal" in="SourceGraphic" in2="BackgroundImageFix" result="shape"/>
<feColorMatrix in="SourceAlpha" type="matrix" values="0 0 0 0 0 0 0 0 0 0 0 0 0 0 0 0 0 0 127 0" result="hardAlpha"/>
<feOffset/>
<feGaussianBlur stdDeviation="4"/>
<feComposite in2="hardAlpha" operator="arithmetic" k2="-1" k3="1"/>
<feColorMatrix type="matrix" values="0 0 0 0 0.984694 0 0 0 0 0.984694 0 0 0 0 0.984694 0 0 0 0.25 0"/>
<feBlend mode="normal" in2="shape" result="effect1_innerShadow_13894_90543"/>
</filter>
<linearGradient id="paint0_linear_13894_90543" x1="18.9632" y1="0" x2="18.9632" y2="192" gradientUnits="userSpaceOnUse">
<stop stop-color="#0040A1"/>
<stop offset="1" stop-color="#89A9FF" stop-opacity="0.1"/>
</linearGradient>
</defs>
</svg>
