<svg width="350" height="155" viewBox="0 0 350 155" fill="none" xmlns="http://www.w3.org/2000/svg">
<rect width="350" height="144" fill="#F0F3FA"/>
<g clip-path="url(#clip0_14355_4758)">
<circle cx="175" cy="144" r="15.9" stroke="#D4D9E6" stroke-width="0.2"/>
<circle cx="175" cy="144" r="23.9" stroke="#D4D9E6" stroke-width="0.2"/>
<circle cx="175" cy="144" r="31.9" stroke="#D4D9E6" stroke-width="0.2"/>
<circle cx="175" cy="144" r="39.9" stroke="#D4D9E6" stroke-width="0.2"/>
<circle cx="175" cy="144" r="47.9" stroke="#D4D9E6" stroke-width="0.2"/>
<circle cx="175" cy="144" r="55.9" stroke="#D4D9E6" stroke-width="0.2"/>
<circle cx="175" cy="144" r="63.9" stroke="#D4D9E6" stroke-width="0.2"/>
<circle cx="175" cy="144" r="71.9" stroke="#D4D9E6" stroke-width="0.2"/>
<circle cx="175" cy="144" r="79.9" stroke="#D4D9E6" stroke-width="0.2"/>
<circle cx="175" cy="144" r="87.9" stroke="#D4D9E6" stroke-width="0.2"/>
<circle cx="175" cy="144" r="95.9" stroke="#D4D9E6" stroke-width="0.2"/>
<circle cx="175" cy="144" r="103.9" stroke="#D4D9E6" stroke-width="0.2"/>
<circle cx="175" cy="144" r="111.9" stroke="#D4D9E6" stroke-width="0.2"/>
<circle cx="175" cy="144" r="119.9" stroke="#D4D9E6" stroke-width="0.2"/>
<circle cx="175" cy="144" r="127.9" stroke="#D4D9E6" stroke-width="0.2"/>
<circle cx="175" cy="144" r="135.9" stroke="#D4D9E6" stroke-width="0.2"/>
<circle cx="175" cy="144" r="143.9" stroke="#D4D9E6" stroke-width="0.2"/>
<circle cx="175" cy="144" r="151.9" stroke="#D4D9E6" stroke-width="0.2"/>
<circle cx="175" cy="144" r="159.9" stroke="#D4D9E6" stroke-width="0.2"/>
<circle cx="175" cy="144" r="167.9" stroke="#D4D9E6" stroke-width="0.2"/>
<circle cx="175" cy="144" r="175.9" stroke="#D4D9E6" stroke-width="0.2"/>
<circle cx="175" cy="144" r="183.9" stroke="#D4D9E6" stroke-width="0.2"/>
<circle cx="175" cy="144" r="191.9" stroke="#D4D9E6" stroke-width="0.2"/>
<circle cx="175" cy="144" r="199.9" stroke="#D4D9E6" stroke-width="0.2"/>
<circle cx="175" cy="144" r="207.9" stroke="#D4D9E6" stroke-width="0.2"/>
<circle cx="175" cy="144" r="215.9" stroke="#D4D9E6" stroke-width="0.2"/>
</g>
<g filter="url(#filter0_dddd_14355_4758)">
<rect x="47" y="64" width="64" height="64" rx="32" fill="#F0F3FA"/>
<rect x="47.5" y="64.5" width="63" height="63" rx="31.5" stroke="#D4D9E6"/>
<path d="M79.0002 76C67.9549 76 59 84.9539 59 95.9998C59 107.045 67.9549 116 79.0002 116C90.0455 116 99 107.045 99 95.9998C99 84.9539 90.0452 76 79.0002 76ZM79.0002 113.432C75.8576 113.432 73.3097 111.333 73.3097 108.744H84.6907C84.6907 111.332 82.1428 113.432 79.0002 113.432ZM88.399 107.191H69.6003V103.782H88.3994L88.399 107.191ZM88.3316 102.028H69.6539C69.5918 101.956 69.5283 101.886 69.4683 101.813C67.544 99.4764 67.0908 98.2566 66.6507 97.0135C66.6433 96.9725 68.984 97.4917 70.6439 97.8652C70.6439 97.8652 71.498 98.0628 72.7467 98.2905C71.5478 96.885 70.8359 95.0984 70.8359 93.2722C70.8359 89.2631 73.9108 85.7597 72.8015 82.928C73.8811 83.0159 75.0359 85.2067 75.1139 88.632C76.2617 87.0459 76.7421 84.1492 76.7421 82.3732C76.7421 80.5343 77.9537 78.3983 79.1657 78.3252C78.0854 80.1058 79.4456 81.6324 80.6548 85.4191C81.1083 86.8415 81.0504 89.2352 81.4005 90.7532C81.5167 87.6004 82.0588 83 84.0589 81.4118C83.1765 83.4119 84.1895 85.9147 84.8823 87.1179C86.0001 89.0591 86.6777 90.5298 86.6777 93.3114C86.6777 95.1764 85.9891 96.9323 84.8276 98.3049C86.1483 98.0572 87.0603 97.8337 87.0603 97.8337L91.3493 96.9969C91.3496 96.9965 90.7263 99.5597 88.3316 102.028Z" fill="#E6522C"/>
</g>
<g filter="url(#filter1_dddd_14355_4758)">
<rect x="143" y="24" width="64" height="64" rx="32" fill="#F0F3FA"/>
<rect x="143.5" y="24.5" width="63" height="63" rx="31.5" stroke="#D4D9E6"/>
<path d="M193.429 53.7107C193.357 53.0364 193.25 52.2555 193.036 51.4037C192.822 50.5519 192.465 49.6291 192.001 48.6353C191.502 47.677 190.895 46.6477 190.075 45.6894C189.754 45.299 189.397 44.9441 189.04 44.5537C189.611 42.3177 188.362 40.3656 188.362 40.3656C186.186 40.2236 184.83 41.0399 184.33 41.3949C184.259 41.3594 184.152 41.3239 184.081 41.2884C183.724 41.1464 183.331 41.0044 182.939 40.8625C182.546 40.756 182.154 40.614 181.761 40.543C181.369 40.4366 180.941 40.3656 180.513 40.2946C180.441 40.2946 180.37 40.2591 180.298 40.2591C179.371 37.2777 176.659 36 176.659 36C173.555 37.9876 172.948 40.6495 172.948 40.6495C172.948 40.6495 172.948 40.7205 172.913 40.7915C172.734 40.827 172.592 40.898 172.413 40.9335C172.199 41.0044 171.949 41.0754 171.735 41.1819C171.521 41.2884 171.271 41.3594 171.057 41.4658C170.594 41.6788 170.165 41.8917 169.702 42.1402C169.273 42.3886 168.845 42.6371 168.453 42.921C168.381 42.8855 168.346 42.85 168.346 42.85C164.171 41.2529 160.46 43.1695 160.46 43.1695C160.139 47.606 162.137 50.3744 162.53 50.8713C162.423 51.1553 162.351 51.4037 162.244 51.6877C161.923 52.6815 161.709 53.7107 161.567 54.7755C161.531 54.9175 161.531 55.0949 161.495 55.2369C157.642 57.118 156.5 61.0222 156.5 61.0222C159.711 64.7134 163.493 64.9264 163.493 64.9264C163.957 65.7782 164.528 66.5945 165.135 67.3398C165.384 67.6593 165.67 67.9432 165.955 68.2626C164.778 71.5989 166.134 74.4028 166.134 74.4028C169.737 74.5448 172.092 72.8412 172.592 72.4508C172.948 72.5572 173.305 72.6637 173.662 72.7702C174.768 73.0541 175.91 73.2316 177.016 73.2671C177.301 73.2671 177.587 73.2671 177.872 73.2671H178.015H178.122H178.3H178.479C180.156 75.6806 183.153 76 183.153 76C185.258 73.764 185.401 71.5989 185.401 71.102C185.401 71.102 185.401 71.102 185.401 71.0666C185.401 71.0311 185.401 70.9956 185.401 70.9956C185.401 70.9601 185.401 70.9246 185.401 70.8891C185.829 70.5697 186.257 70.2502 186.685 69.8953C187.541 69.15 188.255 68.2626 188.897 67.3398C188.969 67.2689 189.004 67.1624 189.076 67.0914C191.466 67.2334 193.143 65.6007 193.143 65.6007C192.751 63.1162 191.324 61.9095 191.038 61.6965C191.038 61.6965 191.038 61.6965 191.002 61.661L190.967 61.6256L190.931 61.5901C190.931 61.4481 190.967 61.3061 190.967 61.1287C191.002 60.8447 191.002 60.5963 191.002 60.3123V60.0994V59.9929V59.9574C191.002 59.8864 191.002 59.9219 191.002 59.8864V59.709V59.496C191.002 59.425 191.002 59.354 191.002 59.2831C191.002 59.2121 191.002 59.1411 190.967 59.0701L190.931 58.8571L190.895 58.6442C190.86 58.3602 190.788 58.1118 190.753 57.8279C190.503 56.7631 190.075 55.7338 189.54 54.8465C188.969 53.9237 188.291 53.1429 187.506 52.433C186.721 51.7587 185.865 51.1908 184.937 50.8004C184.009 50.3744 183.081 50.126 182.118 50.0195C181.654 49.9485 181.155 49.9485 180.691 49.9485H180.513H180.477H180.405H180.334H180.156C180.084 49.9485 180.013 49.9485 179.977 49.9485C179.728 49.984 179.478 50.0195 179.264 50.055C178.3 50.2325 177.408 50.5874 176.623 51.0488C175.838 51.5102 175.161 52.1136 174.59 52.7879C174.019 53.4623 173.591 54.1721 173.305 54.953C173.02 55.6983 172.841 56.5146 172.806 57.26C172.806 57.4374 172.806 57.6504 172.806 57.8279C172.806 57.8634 172.806 57.9343 172.806 57.9698V58.1118C172.806 58.2183 172.806 58.2893 172.841 58.3957C172.877 58.7862 172.948 59.1411 173.055 59.496C173.27 60.2059 173.591 60.8447 174.019 61.4126C174.447 61.9805 174.911 62.4064 175.446 62.7613C175.981 63.1162 176.516 63.3647 177.087 63.5421C177.658 63.7196 178.193 63.7906 178.693 63.7551C178.764 63.7551 178.836 63.7551 178.871 63.7551C178.907 63.7551 178.943 63.7551 178.978 63.7551C179.014 63.7551 179.05 63.7551 179.085 63.7551C179.157 63.7551 179.192 63.7551 179.264 63.7551H179.299H179.335C179.371 63.7551 179.406 63.7551 179.442 63.7551C179.514 63.7551 179.585 63.7196 179.621 63.7196C179.692 63.7196 179.728 63.6841 179.799 63.6841C179.906 63.6486 180.049 63.6131 180.156 63.5776C180.37 63.5067 180.584 63.4002 180.798 63.3292C181.012 63.2227 181.19 63.1162 181.333 63.0098C181.369 62.9743 181.44 62.9388 181.476 62.9033C181.654 62.7613 181.69 62.5129 181.547 62.3354C181.405 62.1934 181.19 62.1579 181.012 62.2289C180.976 62.2644 180.941 62.2644 180.869 62.2999C180.727 62.3709 180.548 62.4419 180.405 62.4774C180.227 62.5129 180.049 62.5839 179.87 62.6193C179.763 62.6193 179.692 62.6548 179.585 62.6548C179.549 62.6548 179.478 62.6548 179.442 62.6548C179.406 62.6548 179.335 62.6548 179.299 62.6548C179.264 62.6548 179.192 62.6548 179.157 62.6548C179.085 62.6548 179.05 62.6548 178.978 62.6548H178.943H178.907C178.871 62.6548 178.871 62.6548 178.836 62.6548C178.8 62.6548 178.729 62.6548 178.693 62.6193C178.3 62.5484 177.872 62.4419 177.48 62.2644C177.087 62.087 176.695 61.8385 176.374 61.5191C176.017 61.1996 175.731 60.8447 175.482 60.4188C175.232 59.9929 175.089 59.5315 175.018 59.0701C174.982 58.8217 174.946 58.5732 174.982 58.3248C174.982 58.2538 174.982 58.1828 174.982 58.1118V58.0763V58.0408C174.982 58.0053 174.982 57.9698 174.982 57.9343C174.982 57.7924 175.018 57.6859 175.054 57.5439C175.232 56.4791 175.767 55.4499 176.588 54.669C176.802 54.4561 177.016 54.2786 177.266 54.1366C177.515 53.9592 177.765 53.8172 178.015 53.7107C178.265 53.6043 178.55 53.4978 178.836 53.4268C179.121 53.3558 179.406 53.2848 179.692 53.2848C179.835 53.2848 179.977 53.2493 180.12 53.2493C180.156 53.2493 180.191 53.2493 180.227 53.2493H180.334H180.405H180.441H180.548C180.869 53.2848 181.19 53.3203 181.476 53.3913C182.082 53.5333 182.689 53.7462 183.26 54.0657C184.402 54.7045 185.365 55.6628 185.936 56.8341C186.221 57.402 186.435 58.0408 186.542 58.7152C186.578 58.8926 186.578 59.0346 186.614 59.2121V59.3185V59.425C186.614 59.4605 186.614 59.496 186.614 59.5315C186.614 59.567 186.614 59.6025 186.614 59.638V59.7445V59.8509C186.614 59.9219 186.614 60.0639 186.614 60.1349C186.614 60.3123 186.578 60.4898 186.578 60.6673C186.542 60.8447 186.542 61.0222 186.507 61.1996C186.471 61.3771 186.435 61.5546 186.4 61.732C186.328 62.087 186.186 62.4064 186.079 62.7613C185.829 63.4357 185.472 64.0745 185.044 64.6424C184.188 65.8137 183.01 66.772 181.69 67.3753C181.012 67.6593 180.334 67.9077 179.621 68.0142C179.264 68.0852 178.907 68.1207 178.55 68.1207H178.479H178.407H178.3H178.122H178.015H177.979C177.801 68.1207 177.587 68.1207 177.408 68.0852C176.623 68.0142 175.874 67.8722 175.125 67.6593C174.376 67.4463 173.662 67.1624 172.984 66.8075C171.628 66.0976 170.415 65.0683 169.452 63.8971C168.988 63.2937 168.56 62.6548 168.203 61.9805C167.846 61.3061 167.596 60.5963 167.382 59.8864C167.168 59.1766 167.061 58.4312 167.026 57.6859V57.5439V57.5084V57.4729V57.402V57.2955V57.26V57.2245V57.1535V56.976V56.9405V56.8696C167.026 56.7631 167.026 56.6921 167.026 56.5856C167.026 56.2307 167.061 55.8403 167.133 55.4499C167.168 55.0595 167.24 54.7045 167.311 54.3141C167.382 53.9237 167.489 53.5688 167.596 53.1784C167.811 52.433 168.06 51.7232 168.381 51.0488C169.024 49.7001 169.844 48.4933 170.808 47.535C171.057 47.2866 171.307 47.0736 171.593 46.8607C171.7 46.7542 171.949 46.5413 172.235 46.3638C172.52 46.1863 172.806 46.0089 173.127 45.8669C173.27 45.7959 173.412 45.7249 173.591 45.6539C173.662 45.6185 173.733 45.583 173.84 45.5475C173.912 45.512 173.983 45.4765 174.09 45.441C174.411 45.299 174.732 45.1925 175.054 45.0861C175.125 45.0506 175.232 45.0506 175.303 45.0151C175.375 44.9796 175.482 44.9796 175.553 44.9441C175.731 44.9086 175.874 44.8731 176.053 44.8021C176.124 44.7666 176.231 44.7666 176.302 44.7311C176.374 44.7311 176.481 44.6957 176.552 44.6957C176.623 44.6957 176.73 44.6602 176.802 44.6602L176.945 44.6247L177.087 44.5892C177.159 44.5892 177.266 44.5537 177.337 44.5537C177.444 44.5537 177.515 44.5182 177.622 44.5182C177.694 44.5182 177.837 44.4827 177.908 44.4827C177.979 44.4827 178.015 44.4827 178.086 44.4472H178.193H178.265H178.336C178.443 44.4472 178.514 44.4472 178.622 44.4117H178.764H178.8H178.871C178.943 44.4117 179.05 44.4117 179.121 44.4117C179.442 44.4117 179.763 44.4117 180.084 44.4117C180.727 44.4472 181.369 44.5182 181.975 44.6247C183.189 44.8376 184.366 45.228 185.401 45.7604C186.435 46.2573 187.399 46.8962 188.184 47.5705C188.219 47.606 188.291 47.6415 188.326 47.7125C188.362 47.748 188.433 47.7835 188.469 47.8545C188.576 47.9255 188.648 48.0319 188.755 48.1029C188.862 48.1739 188.933 48.2804 189.04 48.3514C189.111 48.4579 189.218 48.5288 189.29 48.6353C189.647 48.9902 189.968 49.3807 190.253 49.7356C190.824 50.4809 191.288 51.2263 191.645 51.9361C191.68 51.9716 191.68 52.0071 191.716 52.0781C191.752 52.1136 191.752 52.1491 191.787 52.2201C191.823 52.291 191.859 52.3975 191.93 52.4685C191.966 52.5395 192.001 52.646 192.037 52.7169C192.073 52.7879 192.108 52.8944 192.144 52.9654C192.287 53.2848 192.394 53.6043 192.501 53.9237C192.679 54.4206 192.786 54.8465 192.893 55.2014C192.929 55.3434 193.072 55.4499 193.215 55.4499C193.393 55.4499 193.5 55.3079 193.5 55.1304C193.464 54.7045 193.464 54.2431 193.429 53.7107Z" fill="url(#paint0_linear_14355_4758)"/>
</g>
<g filter="url(#filter2_dddd_14355_4758)">
<rect x="239" y="64" width="64" height="64" rx="32" fill="#F0F3FA"/>
<rect x="239.5" y="64.5" width="63" height="63" rx="31.5" stroke="#D4D9E6"/>
<path d="M283.619 104.399L280.29 102.205L277.513 106.843L274.285 105.899L271.441 110.239L271.587 111.604L287.045 108.757L286.147 99.0989L283.619 104.399ZM269.203 100.238L271.684 99.8961C272.084 100.076 272.365 100.145 272.846 100.267C273.596 100.463 274.462 100.65 275.747 100.003C276.045 99.8547 276.669 99.2844 276.919 98.9607L287.08 97.1176L288.116 109.663L270.709 112.8L269.203 100.238ZM288.077 95.7164L287.075 95.9079L285.148 76L252.317 79.8067L256.362 112.631L260.204 112.072C259.899 111.634 259.419 111.103 258.604 110.424C257.471 109.485 257.872 107.887 258.541 106.878C259.423 105.175 263.976 103.008 263.717 100.285C263.624 99.2943 263.466 98.0056 262.547 97.1215C262.513 97.4886 262.574 97.8418 262.574 97.8418C262.574 97.8418 262.198 97.3603 262.008 96.7032C261.821 96.4506 261.675 96.3716 261.475 96.0342C261.333 96.4229 261.353 96.8748 261.353 96.8748C261.353 96.8748 261.045 96.1447 260.994 95.529C260.81 95.8052 260.765 96.3282 260.765 96.3282C260.765 96.3282 260.364 95.1777 260.455 94.558C260.272 94.0193 259.729 92.9497 259.883 90.5185C260.885 91.221 263.092 91.0533 263.95 89.7863C264.236 89.366 264.431 88.2214 263.808 85.9658C263.407 84.5193 262.417 82.3643 262.03 81.5453L261.984 81.5789C262.188 82.238 262.608 83.6174 262.77 84.2884C263.257 86.319 263.388 87.0255 263.159 87.9609C262.963 88.774 262.498 89.3068 261.313 89.9027C260.129 90.5007 258.559 89.0463 258.458 88.9673C257.307 88.0517 256.417 86.5558 256.319 85.8296C256.216 85.0343 256.777 84.5568 257.061 83.9075C256.656 84.0239 256.204 84.2292 256.204 84.2292C256.204 84.2292 256.743 83.6707 257.408 83.1892C257.684 83.0076 257.844 82.8912 258.134 82.6504C257.714 82.6445 257.373 82.6544 257.373 82.6544C257.373 82.6544 258.073 82.2755 258.799 82.0012C258.268 81.9775 257.759 81.9972 257.759 81.9972C257.759 81.9972 259.322 81.2986 260.556 80.7855C261.404 80.4382 262.233 80.5408 262.699 81.2138C263.311 82.0959 263.952 82.5754 265.314 82.8734C266.15 82.5024 266.403 82.313 267.453 82.0268C268.376 81.0105 269.103 80.8783 269.103 80.8783C269.103 80.8783 268.743 81.2079 268.647 81.7269C269.172 81.3144 269.746 80.9691 269.746 80.9691C269.746 80.9691 269.523 81.2434 269.316 81.6795L269.363 81.7505C269.975 81.3835 270.693 81.0954 270.693 81.0954C270.693 81.0954 270.488 81.3559 270.247 81.6913C270.709 81.6874 271.644 81.7111 272.005 81.7525C274.149 81.7999 274.593 79.4634 275.416 79.1713C276.446 78.8042 276.905 78.5812 278.66 80.304C280.166 81.7841 281.342 84.4305 280.758 85.0245C280.268 85.5158 279.301 84.833 278.232 83.497C277.665 82.7905 277.239 81.9558 277.038 80.8941C276.868 79.9982 276.211 79.4791 276.211 79.4791C276.211 79.4791 276.592 80.3297 276.592 81.0796C276.592 81.4901 276.643 83.0214 277.3 83.8799C277.235 84.0062 277.205 84.5015 277.132 84.5962C276.369 83.6727 274.727 83.0116 274.46 82.8162C275.366 83.5582 277.448 85.2632 278.247 86.8972C279.003 88.4424 278.557 89.8593 278.94 90.2264C279.049 90.331 280.566 92.2215 280.858 93.1727C281.367 94.8284 280.888 96.569 280.223 97.6484L278.362 97.9385C278.09 97.8635 277.906 97.8241 277.661 97.6839C277.795 97.4452 278.064 96.8512 278.066 96.7288L277.961 96.5453C277.381 97.3662 276.412 98.1635 275.605 98.6213C274.549 99.2193 273.334 99.1265 272.542 98.8818C270.295 98.1891 268.169 96.6696 267.658 96.271C267.658 96.271 267.642 96.5887 267.739 96.6617C268.305 97.3011 269.604 98.4575 270.859 99.2627L268.185 99.5567L269.45 109.402C268.889 109.483 268.803 109.522 268.189 109.609C267.648 107.699 266.614 106.45 265.483 105.724C264.487 105.082 263.111 104.938 261.793 105.199L261.708 105.297C262.624 105.203 263.705 105.335 264.814 106.037C265.904 106.726 266.782 108.506 267.105 109.578C267.52 110.947 267.806 112.412 266.691 113.965C265.898 115.068 263.585 115.678 261.714 114.359C262.213 115.163 262.888 115.82 263.796 115.942C265.146 116.126 266.427 115.891 267.307 114.987C268.059 114.213 268.459 112.595 268.353 110.892L269.543 110.72L269.973 113.777L289.683 111.403L288.077 95.7164ZM276.085 87.4123C276.029 87.5386 275.942 87.6195 276.073 88.028L276.081 88.0517L276.1 88.105L276.154 88.2273C276.388 88.7049 276.645 89.1568 277.073 89.3877C277.184 89.3699 277.3 89.3561 277.419 89.3502C277.821 89.3324 278.076 89.3956 278.238 89.4844C278.251 89.4035 278.255 89.287 278.245 89.1134C278.214 88.5075 278.366 87.4774 277.201 86.9347C276.761 86.7315 276.146 86.7926 275.94 87.0492C275.978 87.0531 276.012 87.061 276.037 87.0709C276.351 87.1775 276.142 87.284 276.085 87.4123ZM279.349 93.0661C279.197 92.9813 278.482 93.0148 277.981 93.074C277.026 93.1865 275.994 93.5181 275.767 93.6937C275.356 94.0114 275.542 94.5659 275.846 94.7929C276.698 95.4283 277.444 95.8566 278.232 95.752C278.715 95.6888 279.141 94.9231 279.443 94.2265C279.652 93.7489 279.652 93.2339 279.349 93.0661ZM270.889 88.1622C271.159 87.9056 269.547 87.5702 268.295 88.4227C267.374 89.0522 267.344 90.402 268.226 91.1657C268.315 91.2407 268.388 91.296 268.455 91.3394C268.714 91.217 269.008 91.0947 269.345 90.9862C269.918 90.8007 270.391 90.704 270.782 90.6546C270.969 90.4454 271.186 90.0784 271.131 89.4133C271.058 88.5075 270.373 88.6516 270.889 88.1622Z" fill="#632CA6"/>
</g>
<defs>
<filter id="filter0_dddd_14355_4758" x="45" y="62" width="93" height="93" filterUnits="userSpaceOnUse" color-interpolation-filters="sRGB">
<feFlood flood-opacity="0" result="BackgroundImageFix"/>
<feColorMatrix in="SourceAlpha" type="matrix" values="0 0 0 0 0 0 0 0 0 0 0 0 0 0 0 0 0 0 127 0" result="hardAlpha"/>
<feOffset dx="1" dy="1"/>
<feGaussianBlur stdDeviation="1.5"/>
<feColorMatrix type="matrix" values="0 0 0 0 0 0 0 0 0 0 0 0 0 0 0 0 0 0 0.1 0"/>
<feBlend mode="normal" in2="BackgroundImageFix" result="effect1_dropShadow_14355_4758"/>
<feColorMatrix in="SourceAlpha" type="matrix" values="0 0 0 0 0 0 0 0 0 0 0 0 0 0 0 0 0 0 127 0" result="hardAlpha"/>
<feOffset dx="4" dy="4"/>
<feGaussianBlur stdDeviation="3"/>
<feColorMatrix type="matrix" values="0 0 0 0 0 0 0 0 0 0 0 0 0 0 0 0 0 0 0.09 0"/>
<feBlend mode="normal" in2="effect1_dropShadow_14355_4758" result="effect2_dropShadow_14355_4758"/>
<feColorMatrix in="SourceAlpha" type="matrix" values="0 0 0 0 0 0 0 0 0 0 0 0 0 0 0 0 0 0 127 0" result="hardAlpha"/>
<feOffset dx="10" dy="10"/>
<feGaussianBlur stdDeviation="4"/>
<feColorMatrix type="matrix" values="0 0 0 0 0 0 0 0 0 0 0 0 0 0 0 0 0 0 0.05 0"/>
<feBlend mode="normal" in2="effect2_dropShadow_14355_4758" result="effect3_dropShadow_14355_4758"/>
<feColorMatrix in="SourceAlpha" type="matrix" values="0 0 0 0 0 0 0 0 0 0 0 0 0 0 0 0 0 0 127 0" result="hardAlpha"/>
<feOffset dx="17" dy="17"/>
<feGaussianBlur stdDeviation="5"/>
<feColorMatrix type="matrix" values="0 0 0 0 0 0 0 0 0 0 0 0 0 0 0 0 0 0 0.01 0"/>
<feBlend mode="normal" in2="effect3_dropShadow_14355_4758" result="effect4_dropShadow_14355_4758"/>
<feBlend mode="normal" in="SourceGraphic" in2="effect4_dropShadow_14355_4758" result="shape"/>
</filter>
<filter id="filter1_dddd_14355_4758" x="141" y="22" width="93" height="93" filterUnits="userSpaceOnUse" color-interpolation-filters="sRGB">
<feFlood flood-opacity="0" result="BackgroundImageFix"/>
<feColorMatrix in="SourceAlpha" type="matrix" values="0 0 0 0 0 0 0 0 0 0 0 0 0 0 0 0 0 0 127 0" result="hardAlpha"/>
<feOffset dx="1" dy="1"/>
<feGaussianBlur stdDeviation="1.5"/>
<feColorMatrix type="matrix" values="0 0 0 0 0 0 0 0 0 0 0 0 0 0 0 0 0 0 0.1 0"/>
<feBlend mode="normal" in2="BackgroundImageFix" result="effect1_dropShadow_14355_4758"/>
<feColorMatrix in="SourceAlpha" type="matrix" values="0 0 0 0 0 0 0 0 0 0 0 0 0 0 0 0 0 0 127 0" result="hardAlpha"/>
<feOffset dx="4" dy="4"/>
<feGaussianBlur stdDeviation="3"/>
<feColorMatrix type="matrix" values="0 0 0 0 0 0 0 0 0 0 0 0 0 0 0 0 0 0 0.09 0"/>
<feBlend mode="normal" in2="effect1_dropShadow_14355_4758" result="effect2_dropShadow_14355_4758"/>
<feColorMatrix in="SourceAlpha" type="matrix" values="0 0 0 0 0 0 0 0 0 0 0 0 0 0 0 0 0 0 127 0" result="hardAlpha"/>
<feOffset dx="10" dy="10"/>
<feGaussianBlur stdDeviation="4"/>
<feColorMatrix type="matrix" values="0 0 0 0 0 0 0 0 0 0 0 0 0 0 0 0 0 0 0.05 0"/>
<feBlend mode="normal" in2="effect2_dropShadow_14355_4758" result="effect3_dropShadow_14355_4758"/>
<feColorMatrix in="SourceAlpha" type="matrix" values="0 0 0 0 0 0 0 0 0 0 0 0 0 0 0 0 0 0 127 0" result="hardAlpha"/>
<feOffset dx="17" dy="17"/>
<feGaussianBlur stdDeviation="5"/>
<feColorMatrix type="matrix" values="0 0 0 0 0 0 0 0 0 0 0 0 0 0 0 0 0 0 0.01 0"/>
<feBlend mode="normal" in2="effect3_dropShadow_14355_4758" result="effect4_dropShadow_14355_4758"/>
<feBlend mode="normal" in="SourceGraphic" in2="effect4_dropShadow_14355_4758" result="shape"/>
</filter>
<filter id="filter2_dddd_14355_4758" x="237" y="62" width="93" height="93" filterUnits="userSpaceOnUse" color-interpolation-filters="sRGB">
<feFlood flood-opacity="0" result="BackgroundImageFix"/>
<feColorMatrix in="SourceAlpha" type="matrix" values="0 0 0 0 0 0 0 0 0 0 0 0 0 0 0 0 0 0 127 0" result="hardAlpha"/>
<feOffset dx="1" dy="1"/>
<feGaussianBlur stdDeviation="1.5"/>
<feColorMatrix type="matrix" values="0 0 0 0 0 0 0 0 0 0 0 0 0 0 0 0 0 0 0.1 0"/>
<feBlend mode="normal" in2="BackgroundImageFix" result="effect1_dropShadow_14355_4758"/>
<feColorMatrix in="SourceAlpha" type="matrix" values="0 0 0 0 0 0 0 0 0 0 0 0 0 0 0 0 0 0 127 0" result="hardAlpha"/>
<feOffset dx="4" dy="4"/>
<feGaussianBlur stdDeviation="3"/>
<feColorMatrix type="matrix" values="0 0 0 0 0 0 0 0 0 0 0 0 0 0 0 0 0 0 0.09 0"/>
<feBlend mode="normal" in2="effect1_dropShadow_14355_4758" result="effect2_dropShadow_14355_4758"/>
<feColorMatrix in="SourceAlpha" type="matrix" values="0 0 0 0 0 0 0 0 0 0 0 0 0 0 0 0 0 0 127 0" result="hardAlpha"/>
<feOffset dx="10" dy="10"/>
<feGaussianBlur stdDeviation="4"/>
<feColorMatrix type="matrix" values="0 0 0 0 0 0 0 0 0 0 0 0 0 0 0 0 0 0 0.05 0"/>
<feBlend mode="normal" in2="effect2_dropShadow_14355_4758" result="effect3_dropShadow_14355_4758"/>
<feColorMatrix in="SourceAlpha" type="matrix" values="0 0 0 0 0 0 0 0 0 0 0 0 0 0 0 0 0 0 127 0" result="hardAlpha"/>
<feOffset dx="17" dy="17"/>
<feGaussianBlur stdDeviation="5"/>
<feColorMatrix type="matrix" values="0 0 0 0 0 0 0 0 0 0 0 0 0 0 0 0 0 0 0.01 0"/>
<feBlend mode="normal" in2="effect3_dropShadow_14355_4758" result="effect4_dropShadow_14355_4758"/>
<feBlend mode="normal" in="SourceGraphic" in2="effect4_dropShadow_14355_4758" result="shape"/>
</filter>
<linearGradient id="paint0_linear_14355_4758" x1="175" y1="85.0189" x2="175" y2="48.5141" gradientUnits="userSpaceOnUse">
<stop stop-color="#FCEE1F"/>
<stop offset="1" stop-color="#F15B2A"/>
</linearGradient>
<clipPath id="clip0_14355_4758">
<rect width="350" height="144" fill="white"/>
</clipPath>
</defs>
</svg>
