<svg xmlns="http://www.w3.org/2000/svg" width="350" height="155" fill="none" viewBox="0 0 350 155"><path fill="#f0f3fa" d="M0 0h350v144H0z"/><g stroke="#d4d9e6" stroke-width=".2" clip-path="url(#a)"><circle cx="175" cy="144" r="15.9"/><circle cx="175" cy="144" r="23.9"/><circle cx="175" cy="144" r="31.9"/><circle cx="175" cy="144" r="39.9"/><circle cx="175" cy="144" r="47.9"/><circle cx="175" cy="144" r="55.9"/><circle cx="175" cy="144" r="63.9"/><circle cx="175" cy="144" r="71.9"/><circle cx="175" cy="144" r="79.9"/><circle cx="175" cy="144" r="87.9"/><circle cx="175" cy="144" r="95.9"/><circle cx="175" cy="144" r="103.9"/><circle cx="175" cy="144" r="111.9"/><circle cx="175" cy="144" r="119.9"/><circle cx="175" cy="144" r="127.9"/><circle cx="175" cy="144" r="135.9"/><circle cx="175" cy="144" r="143.9"/><circle cx="175" cy="144" r="151.9"/><circle cx="175" cy="144" r="159.9"/><circle cx="175" cy="144" r="167.9"/><circle cx="175" cy="144" r="175.9"/><circle cx="175" cy="144" r="183.9"/><circle cx="175" cy="144" r="191.9"/><circle cx="175" cy="144" r="199.9"/><circle cx="175" cy="144" r="207.9"/><circle cx="175" cy="144" r="215.9"/></g><g filter="url(#b)"><rect width="64" height="64" x="47" y="64" fill="#f0f3fa" rx="32"/><rect width="63" height="63" x="47.5" y="64.5" stroke="#d4d9e6" rx="31.5"/><path fill="#e6522c" d="M79 76c-11.045 0-20 8.954-20 20s8.955 20 20 20 20-8.955 20-20-8.955-20-20-20m0 37.432c-3.142 0-5.69-2.099-5.69-4.688h11.38c0 2.588-2.547 4.688-5.69 4.688m9.399-6.241H69.6v-3.409h18.8zm-.067-5.163H69.654q-.095-.107-.186-.215c-1.924-2.337-2.377-3.556-2.817-4.8-.008-.04 2.333.479 3.993.852 0 0 .854.198 2.103.425-1.2-1.405-1.911-3.192-1.911-5.018 0-4.009 3.075-7.512 1.966-10.344 1.08.088 2.234 2.279 2.312 5.704 1.148-1.586 1.628-4.483 1.628-6.259 0-1.839 1.212-3.975 2.424-4.048-1.08 1.78.28 3.307 1.489 7.094.453 1.422.395 3.816.745 5.334.117-3.153.659-7.753 2.659-9.341-.882 2 .13 4.503.823 5.706 1.118 1.941 1.796 3.412 1.796 6.193a7.74 7.74 0 0 1-1.85 4.994c1.32-.248 2.232-.471 2.232-.471l4.29-.837s-.624 2.563-3.018 5.031"/></g><g filter="url(#c)"><rect width="64" height="64" x="143" y="24" fill="#f0f3fa" rx="32"/><rect width="63" height="63" x="143.5" y="24.5" stroke="#d4d9e6" rx="31.5"/><path fill="url(#d)" d="M193.429 53.71a16.5 16.5 0 0 0-.393-2.306c-.214-.852-.571-1.775-1.035-2.769-.499-.958-1.106-1.987-1.926-2.946-.321-.39-.678-.745-1.035-1.135.571-2.236-.678-4.188-.678-4.188-2.176-.142-3.532.674-4.032 1.029-.071-.036-.178-.071-.249-.107a38 38 0 0 0-1.142-.425c-.393-.107-.785-.249-1.178-.32-.392-.106-.82-.177-1.248-.248-.072 0-.143-.036-.215-.036-.927-2.981-3.639-4.259-3.639-4.259-3.104 1.988-3.711 4.65-3.711 4.65s0 .07-.035.142c-.179.035-.321.106-.5.142-.214.07-.464.141-.678.248-.214.106-.464.177-.678.284-.463.213-.892.426-1.355.674-.429.249-.857.497-1.249.781-.072-.035-.107-.071-.107-.071-4.175-1.597-7.886.32-7.886.32-.321 4.436 1.677 7.204 2.07 7.701-.107.284-.179.533-.286.817a17.6 17.6 0 0 0-.677 3.087c-.036.142-.036.32-.072.462-3.853 1.881-4.995 5.785-4.995 5.785 3.211 3.691 6.993 3.904 6.993 3.904a16 16 0 0 0 1.642 2.414c.249.32.535.603.82.923-1.177 3.336.179 6.14.179 6.14 3.603.142 5.958-1.562 6.458-1.952l1.07.32a15.6 15.6 0 0 0 3.354.496h1.463c1.677 2.414 4.674 2.733 4.674 2.733 2.105-2.236 2.248-4.401 2.248-4.898v-.213c.428-.32.856-.639 1.284-.994.856-.745 1.57-1.632 2.212-2.555.072-.071.107-.178.179-.249 2.39.142 4.067-1.49 4.067-1.49-.392-2.485-1.819-3.691-2.105-3.904l-.036-.036-.035-.035-.036-.036c0-.142.036-.284.036-.461.035-.284.035-.533.035-.817v-1.029c0-.07 0-.142-.035-.213l-.036-.213-.036-.213c-.035-.284-.107-.532-.142-.816a10.5 10.5 0 0 0-1.213-2.982 11 11 0 0 0-2.034-2.413c-.785-.674-1.641-1.242-2.569-1.633a9 9 0 0 0-2.819-.78c-.464-.072-.963-.072-1.427-.072h-.714c-.249.036-.499.072-.713.107a8.1 8.1 0 0 0-2.641.994 8 8 0 0 0-2.033 1.739 7.1 7.1 0 0 0-1.285 2.165 7.6 7.6 0 0 0-.499 2.307v.852c0 .106 0 .177.035.284.036.39.107.745.214 1.1q.322 1.065.964 1.917c.428.568.892.993 1.427 1.348s1.07.604 1.641.781q.856.267 1.606.213h.749c.072 0 .143-.035.179-.035.071 0 .107-.036.178-.036.107-.035.25-.07.357-.106.214-.071.428-.178.642-.249q.32-.16.535-.32c.036-.035.107-.07.143-.106a.4.4 0 0 0 .071-.568.5.5 0 0 0-.535-.106c-.036.035-.071.035-.143.07a2.5 2.5 0 0 1-.464.178c-.178.036-.356.107-.535.142-.107 0-.178.036-.285.036h-.749c-.036 0-.107 0-.143-.036a5.2 5.2 0 0 1-1.213-.355 3.8 3.8 0 0 1-1.106-.745 4.5 4.5 0 0 1-.892-1.1 3.8 3.8 0 0 1-.464-1.349c-.036-.248-.072-.497-.036-.745v-.391c0-.142.036-.248.072-.39a5.18 5.18 0 0 1 1.534-2.875 3.2 3.2 0 0 1 .678-.532q.374-.267.749-.426c.25-.107.535-.213.821-.284s.57-.142.856-.142c.143 0 .285-.036.428-.036h.428c.321.036.642.071.928.142a6.8 6.8 0 0 1 1.784.675c1.142.639 2.105 1.597 2.676 2.768.285.568.499 1.207.606 1.881.036.178.036.32.072.497v.923c0 .177-.036.355-.036.532-.036.178-.036.355-.071.533l-.107.532c-.072.355-.214.674-.321 1.03a7.5 7.5 0 0 1-1.035 1.88 8.65 8.65 0 0 1-3.354 2.733c-.678.284-1.356.533-2.069.64a5.5 5.5 0 0 1-1.071.106h-.571c-.178 0-.392 0-.571-.036a12.3 12.3 0 0 1-2.283-.426 11.2 11.2 0 0 1-2.141-.852c-1.356-.71-2.569-1.739-3.532-2.91a13.6 13.6 0 0 1-1.249-1.916c-.357-.675-.607-1.385-.821-2.095a9 9 0 0 1-.356-2.2v-1.1c0-.355.035-.746.107-1.136.035-.39.107-.745.178-1.136s.178-.745.285-1.136c.215-.745.464-1.455.785-2.13.643-1.348 1.463-2.555 2.427-3.513.249-.248.499-.461.785-.674.107-.107.356-.32.642-.497.285-.178.571-.355.892-.497.143-.071.285-.142.464-.213a2 2 0 0 1 .249-.107c.072-.035.143-.07.25-.106.321-.142.642-.248.964-.355.071-.035.178-.035.249-.07s.179-.036.25-.072c.178-.035.321-.07.5-.142.071-.035.178-.035.249-.07.072 0 .179-.036.25-.036s.178-.036.25-.036l.143-.035.142-.036c.072 0 .179-.035.25-.035.107 0 .178-.036.285-.036.072 0 .215-.035.286-.035s.107 0 .178-.036h.25c.107 0 .178 0 .286-.035h1.462a16 16 0 0 1 1.891.213 12.1 12.1 0 0 1 3.426 1.135 13 13 0 0 1 2.783 1.81c.035.036.107.072.142.142.036.036.107.071.143.142.107.072.179.178.286.249.107.07.178.177.285.248.071.107.178.178.25.284.357.355.678.746.963 1.1a14 14 0 0 1 1.392 2.201c.035.036.035.071.071.142.036.036.036.071.071.142.036.071.072.178.143.248.036.071.071.178.107.249.036.07.071.177.107.248.143.32.25.64.357.959.178.497.285.922.392 1.277a.34.34 0 0 0 .322.249c.178 0 .285-.142.285-.32-.036-.425-.036-.887-.071-1.42"/></g><g filter="url(#e)"><rect width="64" height="64" x="239" y="64" fill="#f0f3fa" rx="32"/><rect width="63" height="63" x="239.5" y="64.5" stroke="#d4d9e6" rx="31.5"/><path fill="#632ca6" d="m283.619 104.399-3.329-2.194-2.777 4.638-3.228-.944-2.844 4.34.146 1.365 15.458-2.847-.898-9.658zm-14.416-4.161 2.481-.342c.4.18.681.249 1.162.371.75.196 1.616.383 2.901-.264.298-.148.922-.719 1.172-1.042l10.161-1.843 1.036 12.545-17.407 3.137zm18.874-4.522-1.002.192L285.148 76l-32.831 3.807 4.045 32.824 3.842-.559c-.305-.438-.785-.969-1.6-1.648-1.133-.939-.732-2.537-.063-3.546.882-1.703 5.435-3.87 5.176-6.593-.093-.99-.251-2.28-1.17-3.163-.034.367.027.72.027.72s-.376-.482-.566-1.139c-.187-.252-.333-.331-.533-.669-.142.389-.122.84-.122.84s-.308-.73-.359-1.345c-.184.276-.229.8-.229.8s-.401-1.151-.31-1.771c-.183-.539-.726-1.608-.572-4.04 1.002.703 3.209.535 4.067-.732.286-.42.481-1.565-.142-3.82-.401-1.447-1.391-3.602-1.778-4.42l-.046.033c.204.659.624 2.038.786 2.71.487 2.03.618 2.736.389 3.672-.196.813-.661 1.346-1.846 1.942-1.184.598-2.754-.857-2.855-.936-1.151-.915-2.041-2.411-2.139-3.137-.103-.796.458-1.273.742-1.922-.405.116-.857.321-.857.321s.539-.558 1.204-1.04a7 7 0 0 0 .726-.539c-.42-.006-.761.004-.761.004s.7-.379 1.426-.653c-.531-.023-1.04-.004-1.04-.004s1.563-.698 2.797-1.212c.848-.347 1.677-.244 2.143.429.612.882 1.253 1.361 2.615 1.66.836-.372 1.089-.561 2.139-.847.923-1.017 1.65-1.149 1.65-1.149s-.36.33-.456.849c.525-.413 1.099-.758 1.099-.758s-.223.274-.43.71l.047.072c.612-.368 1.33-.656 1.33-.656s-.205.26-.446.596c.462-.004 1.397.02 1.758.061 2.144.048 2.588-2.289 3.411-2.58 1.03-.368 1.489-.59 3.244 1.132 1.506 1.48 2.682 4.126 2.098 4.72-.49.492-1.457-.191-2.526-1.527a5.8 5.8 0 0 1-1.194-2.603c-.17-.896-.827-1.415-.827-1.415s.381.85.381 1.6c0 .411.051 1.942.708 2.8-.065.127-.095.622-.168.717-.763-.923-2.405-1.584-2.672-1.78.906.742 2.988 2.447 3.787 4.081.756 1.545.31 2.962.693 3.33.109.104 1.626 1.995 1.918 2.946.509 1.655.03 3.396-.635 4.475l-1.861.29c-.272-.075-.456-.114-.701-.254.134-.239.403-.833.405-.955l-.105-.184c-.58.821-1.549 1.618-2.356 2.076-1.056.598-2.271.505-3.063.26-2.247-.692-4.373-2.211-4.884-2.61 0 0-.016.318.081.39.566.64 1.865 1.796 3.12 2.602l-2.674.294 1.265 9.845c-.561.081-.647.12-1.261.207-.541-1.91-1.575-3.159-2.706-3.885-.996-.642-2.372-.786-3.69-.525l-.085.098a4.76 4.76 0 0 1 3.106.74c1.09.689 1.968 2.469 2.291 3.541.415 1.369.701 2.834-.414 4.387-.793 1.103-3.106 1.713-4.977.394.499.804 1.174 1.461 2.082 1.583 1.35.184 2.631-.051 3.511-.955.752-.774 1.152-2.392 1.046-4.095l1.19-.172.43 3.057 19.71-2.374zm-11.992-8.304c-.056.127-.143.207-.012.616l.008.024.019.053.054.122c.234.478.491.93.919 1.16q.167-.026.346-.037c.402-.018.657.046.819.134.013-.08.017-.197.007-.37-.031-.607.121-1.637-1.044-2.18-.44-.203-1.055-.141-1.261.115a.4.4 0 0 1 .097.022c.314.106.105.213.048.341m3.264 5.654c-.152-.085-.867-.051-1.368.008-.955.112-1.987.444-2.214.62-.411.317-.225.872.079 1.099.852.635 1.598 1.064 2.386.959.483-.063.909-.829 1.211-1.525.209-.478.209-.993-.094-1.16m-8.46-4.904c.27-.256-1.342-.592-2.594.26-.921.63-.951 1.98-.069 2.744.089.075.162.13.229.173.259-.122.553-.244.89-.353a8 8 0 0 1 1.437-.331c.187-.21.404-.577.349-1.242-.073-.906-.758-.761-.242-1.25"/></g><defs><filter id="b" width="93" height="93" x="45" y="62" color-interpolation-filters="sRGB" filterUnits="userSpaceOnUse"><feFlood flood-opacity="0" result="BackgroundImageFix"/><feColorMatrix in="SourceAlpha" result="hardAlpha" values="0 0 0 0 0 0 0 0 0 0 0 0 0 0 0 0 0 0 127 0"/><feOffset dx="1" dy="1"/><feGaussianBlur stdDeviation="1.5"/><feColorMatrix values="0 0 0 0 0 0 0 0 0 0 0 0 0 0 0 0 0 0 0.1 0"/><feBlend in2="BackgroundImageFix" result="effect1_dropShadow_14355_4758"/><feColorMatrix in="SourceAlpha" result="hardAlpha" values="0 0 0 0 0 0 0 0 0 0 0 0 0 0 0 0 0 0 127 0"/><feOffset dx="4" dy="4"/><feGaussianBlur stdDeviation="3"/><feColorMatrix values="0 0 0 0 0 0 0 0 0 0 0 0 0 0 0 0 0 0 0.09 0"/><feBlend in2="effect1_dropShadow_14355_4758" result="effect2_dropShadow_14355_4758"/><feColorMatrix in="SourceAlpha" result="hardAlpha" values="0 0 0 0 0 0 0 0 0 0 0 0 0 0 0 0 0 0 127 0"/><feOffset dx="10" dy="10"/><feGaussianBlur stdDeviation="4"/><feColorMatrix values="0 0 0 0 0 0 0 0 0 0 0 0 0 0 0 0 0 0 0.05 0"/><feBlend in2="effect2_dropShadow_14355_4758" result="effect3_dropShadow_14355_4758"/><feColorMatrix in="SourceAlpha" result="hardAlpha" values="0 0 0 0 0 0 0 0 0 0 0 0 0 0 0 0 0 0 127 0"/><feOffset dx="17" dy="17"/><feGaussianBlur stdDeviation="5"/><feColorMatrix values="0 0 0 0 0 0 0 0 0 0 0 0 0 0 0 0 0 0 0.01 0"/><feBlend in2="effect3_dropShadow_14355_4758" result="effect4_dropShadow_14355_4758"/><feBlend in="SourceGraphic" in2="effect4_dropShadow_14355_4758" result="shape"/></filter><filter id="c" width="93" height="93" x="141" y="22" color-interpolation-filters="sRGB" filterUnits="userSpaceOnUse"><feFlood flood-opacity="0" result="BackgroundImageFix"/><feColorMatrix in="SourceAlpha" result="hardAlpha" values="0 0 0 0 0 0 0 0 0 0 0 0 0 0 0 0 0 0 127 0"/><feOffset dx="1" dy="1"/><feGaussianBlur stdDeviation="1.5"/><feColorMatrix values="0 0 0 0 0 0 0 0 0 0 0 0 0 0 0 0 0 0 0.1 0"/><feBlend in2="BackgroundImageFix" result="effect1_dropShadow_14355_4758"/><feColorMatrix in="SourceAlpha" result="hardAlpha" values="0 0 0 0 0 0 0 0 0 0 0 0 0 0 0 0 0 0 127 0"/><feOffset dx="4" dy="4"/><feGaussianBlur stdDeviation="3"/><feColorMatrix values="0 0 0 0 0 0 0 0 0 0 0 0 0 0 0 0 0 0 0.09 0"/><feBlend in2="effect1_dropShadow_14355_4758" result="effect2_dropShadow_14355_4758"/><feColorMatrix in="SourceAlpha" result="hardAlpha" values="0 0 0 0 0 0 0 0 0 0 0 0 0 0 0 0 0 0 127 0"/><feOffset dx="10" dy="10"/><feGaussianBlur stdDeviation="4"/><feColorMatrix values="0 0 0 0 0 0 0 0 0 0 0 0 0 0 0 0 0 0 0.05 0"/><feBlend in2="effect2_dropShadow_14355_4758" result="effect3_dropShadow_14355_4758"/><feColorMatrix in="SourceAlpha" result="hardAlpha" values="0 0 0 0 0 0 0 0 0 0 0 0 0 0 0 0 0 0 127 0"/><feOffset dx="17" dy="17"/><feGaussianBlur stdDeviation="5"/><feColorMatrix values="0 0 0 0 0 0 0 0 0 0 0 0 0 0 0 0 0 0 0.01 0"/><feBlend in2="effect3_dropShadow_14355_4758" result="effect4_dropShadow_14355_4758"/><feBlend in="SourceGraphic" in2="effect4_dropShadow_14355_4758" result="shape"/></filter><filter id="e" width="93" height="93" x="237" y="62" color-interpolation-filters="sRGB" filterUnits="userSpaceOnUse"><feFlood flood-opacity="0" result="BackgroundImageFix"/><feColorMatrix in="SourceAlpha" result="hardAlpha" values="0 0 0 0 0 0 0 0 0 0 0 0 0 0 0 0 0 0 127 0"/><feOffset dx="1" dy="1"/><feGaussianBlur stdDeviation="1.5"/><feColorMatrix values="0 0 0 0 0 0 0 0 0 0 0 0 0 0 0 0 0 0 0.1 0"/><feBlend in2="BackgroundImageFix" result="effect1_dropShadow_14355_4758"/><feColorMatrix in="SourceAlpha" result="hardAlpha" values="0 0 0 0 0 0 0 0 0 0 0 0 0 0 0 0 0 0 127 0"/><feOffset dx="4" dy="4"/><feGaussianBlur stdDeviation="3"/><feColorMatrix values="0 0 0 0 0 0 0 0 0 0 0 0 0 0 0 0 0 0 0.09 0"/><feBlend in2="effect1_dropShadow_14355_4758" result="effect2_dropShadow_14355_4758"/><feColorMatrix in="SourceAlpha" result="hardAlpha" values="0 0 0 0 0 0 0 0 0 0 0 0 0 0 0 0 0 0 127 0"/><feOffset dx="10" dy="10"/><feGaussianBlur stdDeviation="4"/><feColorMatrix values="0 0 0 0 0 0 0 0 0 0 0 0 0 0 0 0 0 0 0.05 0"/><feBlend in2="effect2_dropShadow_14355_4758" result="effect3_dropShadow_14355_4758"/><feColorMatrix in="SourceAlpha" result="hardAlpha" values="0 0 0 0 0 0 0 0 0 0 0 0 0 0 0 0 0 0 127 0"/><feOffset dx="17" dy="17"/><feGaussianBlur stdDeviation="5"/><feColorMatrix values="0 0 0 0 0 0 0 0 0 0 0 0 0 0 0 0 0 0 0.01 0"/><feBlend in2="effect3_dropShadow_14355_4758" result="effect4_dropShadow_14355_4758"/><feBlend in="SourceGraphic" in2="effect4_dropShadow_14355_4758" result="shape"/></filter><linearGradient id="d" x1="175" x2="175" y1="85.019" y2="48.514" gradientUnits="userSpaceOnUse"><stop stop-color="#fcee1f"/><stop offset="1" stop-color="#f15b2a"/></linearGradient><clipPath id="a"><path fill="#fff" d="M0 0h350v144H0z"/></clipPath></defs></svg>