<svg width="540" height="266" viewBox="0 0 540 266" fill="none" xmlns="http://www.w3.org/2000/svg" xmlns:xlink="http://www.w3.org/1999/xlink">
<g clip-path="url(#clip0_11450_41300)">
<rect width="540" height="266" fill="url(#pattern0_11450_41300)" fill-opacity="0.3"/>
<rect y="230" width="540" height="36" fill="url(#paint0_linear_11450_41300)"/>
<rect width="186" height="169" fill="url(#paint1_linear_11450_41300)"/>
<rect width="84" height="130" transform="matrix(1 0 0 -1 456 130)" fill="url(#paint2_linear_11450_41300)"/>
<path opacity="0.2" fill-rule="evenodd" clip-rule="evenodd" d="M361.984 90.4667L270.491 37.6L179.001 90.4659L179 90.4651V90.4667V196.198L270.492 249.067H270.508L362 196.198V90.4651L361.984 90.4667Z" fill="url(#paint3_linear_11450_41300)"/>
<path fill-rule="evenodd" clip-rule="evenodd" d="M339.331 103.538L270.493 63.7428L201.658 103.537L201.657 103.537V103.538V183.127L270.494 222.924H270.506L339.343 183.127V103.537L339.331 103.538Z" fill="url(#paint4_linear_11450_41300)"/>
<path fill-rule="evenodd" clip-rule="evenodd" d="M323.117 113.069L270.577 82.8667L218.038 113.069L218.038 113.068V113.069V173.473L270.577 203.677H270.586L323.126 173.473V113.068L323.117 113.069Z" fill="url(#paint5_linear_11450_41300)"/>
<path d="M325.5 147.5L328 150L325.5 152.5L323 150L325.5 147.5Z" fill="#038585"/>
<path d="M215.5 171.6L213 169.1L215.5 166.6L218 169.1L215.5 171.6Z" fill="#8547FF"/>
<g filter="url(#filter0_dddd_11450_41300)">
<rect x="150.5" y="41" width="55" height="19" rx="5" fill="#F0F3FA"/>
<rect x="151" y="41.5" width="54" height="18" rx="4.5" stroke="#D4D9E6"/>
<path d="M159.133 53V48.76H159.749L159.773 49.704L159.693 49.688C159.741 49.3733 159.842 49.1253 159.997 48.944C160.157 48.7573 160.359 48.664 160.605 48.664C160.855 48.664 161.047 48.7547 161.181 48.936C161.319 49.1173 161.405 49.384 161.437 49.736H161.357C161.405 49.4053 161.511 49.144 161.677 48.952C161.847 48.76 162.061 48.664 162.317 48.664C162.658 48.664 162.906 48.7813 163.061 49.016C163.215 49.2507 163.293 49.64 163.293 50.184V53H162.621V50.28C162.621 49.9013 162.581 49.6373 162.501 49.488C162.421 49.3333 162.295 49.256 162.125 49.256C162.013 49.256 161.914 49.2933 161.829 49.368C161.743 49.4373 161.674 49.5493 161.621 49.704C161.573 49.8587 161.549 50.056 161.549 50.296V53H160.877V50.28C160.877 49.9173 160.837 49.656 160.757 49.496C160.682 49.336 160.557 49.256 160.381 49.256C160.269 49.256 160.17 49.2933 160.085 49.368C159.999 49.4373 159.93 49.5493 159.877 49.704C159.829 49.8587 159.805 50.056 159.805 50.296V53H159.133ZM165.953 53V48.76H166.625V53H165.953ZM164.249 53V52.408H168.089V53H164.249ZM164.329 49.352V48.76H166.625V49.352H164.329ZM165.889 48.096V47.312H166.593V48.096H165.889ZM169.078 53V48.76H169.694L169.718 49.84L169.638 49.768C169.692 49.5173 169.788 49.312 169.926 49.152C170.07 48.9867 170.241 48.864 170.438 48.784C170.636 48.704 170.844 48.664 171.062 48.664C171.388 48.664 171.657 48.736 171.87 48.88C172.089 49.024 172.254 49.2187 172.366 49.464C172.478 49.704 172.534 49.9733 172.534 50.272V53H171.862V50.464C171.862 50.0693 171.785 49.7707 171.63 49.568C171.476 49.36 171.238 49.256 170.918 49.256C170.7 49.256 170.502 49.304 170.326 49.4C170.15 49.4907 170.009 49.6267 169.902 49.808C169.801 49.984 169.75 50.2027 169.75 50.464V53H169.078ZM175.547 53V48.76H176.219V53H175.547ZM173.843 53V52.408H177.683V53H173.843ZM173.923 49.352V48.76H176.219V49.352H173.923ZM175.483 48.096V47.312H176.187V48.096H175.483ZM180.416 53.128C179.963 53.128 179.579 53.008 179.264 52.768C178.949 52.528 178.709 52.1867 178.544 51.744C178.384 51.3013 178.304 50.776 178.304 50.168C178.304 49.5547 178.384 49.0267 178.544 48.584C178.709 48.1413 178.949 47.8 179.264 47.56C179.579 47.3147 179.963 47.192 180.416 47.192C180.917 47.192 181.344 47.3573 181.696 47.688C182.048 48.0133 182.283 48.4693 182.4 49.056L181.664 49.104C181.573 48.6933 181.416 48.384 181.192 48.176C180.973 47.968 180.715 47.864 180.416 47.864C180.112 47.864 179.856 47.9547 179.648 48.136C179.445 48.312 179.291 48.5733 179.184 48.92C179.077 49.2613 179.024 49.6773 179.024 50.168C179.024 50.6533 179.077 51.0667 179.184 51.408C179.291 51.7493 179.445 52.0107 179.648 52.192C179.856 52.368 180.112 52.456 180.416 52.456C180.747 52.456 181.027 52.3413 181.256 52.112C181.485 51.8827 181.64 51.5413 181.72 51.088L182.448 51.128C182.347 51.752 182.117 52.2427 181.76 52.6C181.403 52.952 180.955 53.128 180.416 53.128ZM185.197 53.128C184.749 53.128 184.368 53.0133 184.053 52.784C183.744 52.5547 183.506 52.2187 183.341 51.776C183.181 51.3333 183.101 50.7973 183.101 50.168C183.101 49.528 183.181 48.9867 183.341 48.544C183.506 48.1013 183.744 47.7653 184.053 47.536C184.368 47.3067 184.749 47.192 185.197 47.192C185.645 47.192 186.024 47.3067 186.333 47.536C186.648 47.7653 186.885 48.1013 187.045 48.544C187.21 48.9867 187.293 49.528 187.293 50.168C187.293 50.7973 187.21 51.3333 187.045 51.776C186.885 52.2187 186.648 52.5547 186.333 52.784C186.024 53.0133 185.645 53.128 185.197 53.128ZM185.197 52.456C185.49 52.456 185.738 52.3707 185.941 52.2C186.149 52.024 186.306 51.7653 186.413 51.424C186.52 51.0827 186.573 50.664 186.573 50.168C186.573 49.672 186.52 49.2533 186.413 48.912C186.306 48.5653 186.149 48.304 185.941 48.128C185.738 47.952 185.49 47.864 185.197 47.864C184.904 47.864 184.653 47.952 184.445 48.128C184.242 48.304 184.088 48.5653 183.981 48.912C183.874 49.2533 183.821 49.672 183.821 50.168C183.821 50.664 183.874 51.0827 183.981 51.424C184.088 51.7653 184.242 52.024 184.445 52.2C184.653 52.3707 184.904 52.456 185.197 52.456ZM188.234 53V52.328H189.65V47.992H188.234V47.32H191.754V47.992H190.338V52.328H191.754V53H188.234ZM193.191 53V47.32H193.879V52.68L193.535 52.328H196.711V53H193.191Z" fill="#3D4866"/>
</g>
<path d="M250.612 140V132.9H251.472V136.35L251.032 136.01H254.992L254.552 136.35V132.9H255.412V140H254.552V136.51L254.992 136.85H251.032L251.472 136.51V140H250.612ZM259.588 140V137.1L257.408 132.9H258.388L260.008 136.22L261.628 132.9H262.608L260.448 137.1V140H259.588ZM264.904 140V132.9H266.904C267.684 132.9 268.271 133.073 268.664 133.42C269.064 133.767 269.264 134.24 269.264 134.84C269.264 135.133 269.194 135.397 269.054 135.63C268.914 135.863 268.717 136.047 268.464 136.18C268.211 136.313 267.917 136.38 267.584 136.38V136.32C267.997 136.32 268.351 136.39 268.644 136.53C268.944 136.67 269.171 136.867 269.324 137.12C269.484 137.373 269.564 137.673 269.564 138.02C269.564 138.633 269.351 139.117 268.924 139.47C268.497 139.823 267.907 140 267.154 140H264.904ZM265.764 139.16H267.164C267.677 139.16 268.054 139.06 268.294 138.86C268.541 138.66 268.664 138.38 268.664 138.02C268.664 137.64 268.537 137.343 268.284 137.13C268.031 136.917 267.657 136.81 267.164 136.81H265.764V139.16ZM265.764 135.97H266.944C267.437 135.97 267.797 135.873 268.024 135.68C268.251 135.487 268.364 135.213 268.364 134.86C268.364 134.5 268.251 134.223 268.024 134.03C267.797 133.837 267.437 133.74 266.944 133.74H265.764V135.97ZM271.7 140V132.9H273.86C274.607 132.9 275.197 133.09 275.63 133.47C276.063 133.843 276.28 134.36 276.28 135.02C276.28 135.353 276.203 135.65 276.05 135.91C275.897 136.163 275.7 136.363 275.46 136.51C275.22 136.657 274.973 136.74 274.72 136.76L274.68 136.64C275.153 136.667 275.507 136.78 275.74 136.98C275.98 137.18 276.12 137.507 276.16 137.96L276.34 140H275.48L275.31 138.07C275.29 137.85 275.237 137.673 275.15 137.54C275.07 137.4 274.94 137.3 274.76 137.24C274.587 137.173 274.347 137.14 274.04 137.14H272.56V140H271.7ZM272.56 136.3H273.86C274.353 136.3 274.73 136.19 274.99 135.97C275.25 135.743 275.38 135.427 275.38 135.02C275.38 134.607 275.25 134.29 274.99 134.07C274.73 133.85 274.353 133.74 273.86 133.74H272.56V136.3ZM278.796 140V139.16H280.566V133.74H278.796V132.9H283.196V133.74H281.426V139.16H283.196V140H278.796ZM285.892 140V132.9H287.572C288.186 132.9 288.719 133.04 289.172 133.32C289.632 133.593 289.986 133.997 290.232 134.53C290.486 135.057 290.612 135.7 290.612 136.46C290.612 137.22 290.486 137.863 290.232 138.39C289.986 138.917 289.632 139.317 289.172 139.59C288.719 139.863 288.186 140 287.572 140H285.892ZM286.752 139.16H287.522C288.216 139.16 288.752 138.937 289.132 138.49C289.519 138.037 289.712 137.36 289.712 136.46C289.712 135.56 289.519 134.883 289.132 134.43C288.752 133.97 288.216 133.74 287.522 133.74H286.752V139.16ZM253.122 154.16C252.622 154.16 252.178 154.057 251.792 153.85C251.405 153.643 251.095 153.36 250.862 153C250.628 152.633 250.492 152.21 250.452 151.73L251.352 151.67C251.398 152.023 251.498 152.323 251.652 152.57C251.812 152.817 252.015 153.003 252.262 153.13C252.515 153.257 252.808 153.32 253.142 153.32C253.475 153.32 253.755 153.28 253.982 153.2C254.208 153.113 254.378 152.99 254.492 152.83C254.612 152.663 254.672 152.467 254.672 152.24C254.672 152.013 254.618 151.817 254.512 151.65C254.412 151.477 254.218 151.317 253.932 151.17C253.652 151.023 253.235 150.873 252.682 150.72C252.188 150.58 251.788 150.427 251.482 150.26C251.182 150.093 250.962 149.89 250.822 149.65C250.688 149.41 250.622 149.113 250.622 148.76C250.622 148.36 250.715 148.01 250.902 147.71C251.095 147.403 251.368 147.167 251.722 147C252.075 146.827 252.495 146.74 252.982 146.74C253.468 146.74 253.885 146.84 254.232 147.04C254.578 147.233 254.852 147.5 255.052 147.84C255.258 148.18 255.388 148.567 255.442 149L254.542 149.06C254.502 148.773 254.418 148.52 254.292 148.3C254.165 148.073 253.992 147.897 253.772 147.77C253.552 147.643 253.282 147.58 252.962 147.58C252.522 147.58 252.172 147.687 251.912 147.9C251.652 148.107 251.522 148.38 251.522 148.72C251.522 148.94 251.568 149.123 251.662 149.27C251.762 149.41 251.935 149.537 252.182 149.65C252.428 149.757 252.775 149.873 253.222 150C253.802 150.16 254.262 150.34 254.602 150.54C254.948 150.74 255.195 150.98 255.342 151.26C255.495 151.533 255.572 151.867 255.572 152.26C255.572 152.633 255.468 152.963 255.262 153.25C255.055 153.537 254.768 153.76 254.402 153.92C254.035 154.08 253.608 154.16 253.122 154.16ZM257.908 154V146.9H262.228V147.74H258.768V150.03H262.108V150.85H258.768V153.16H262.308V154H257.908ZM264.264 154L266.424 146.9H267.584L269.744 154H268.824L267.004 147.68L265.184 154H264.264ZM265.354 151.98L265.654 151.14H268.354L268.654 151.98H265.354ZM271.7 154V146.9H273.86C274.607 146.9 275.197 147.09 275.63 147.47C276.063 147.843 276.28 148.36 276.28 149.02C276.28 149.353 276.203 149.65 276.05 149.91C275.897 150.163 275.7 150.363 275.46 150.51C275.22 150.657 274.973 150.74 274.72 150.76L274.68 150.64C275.153 150.667 275.507 150.78 275.74 150.98C275.98 151.18 276.12 151.507 276.16 151.96L276.34 154H275.48L275.31 152.07C275.29 151.85 275.237 151.673 275.15 151.54C275.07 151.4 274.94 151.3 274.76 151.24C274.587 151.173 274.347 151.14 274.04 151.14H272.56V154H271.7ZM272.56 150.3H273.86C274.353 150.3 274.73 150.19 274.99 149.97C275.25 149.743 275.38 149.427 275.38 149.02C275.38 148.607 275.25 148.29 274.99 148.07C274.73 147.85 274.353 147.74 273.86 147.74H272.56V150.3ZM281.016 154.16C280.449 154.16 279.969 154.01 279.576 153.71C279.183 153.41 278.883 152.983 278.676 152.43C278.476 151.877 278.376 151.22 278.376 150.46C278.376 149.693 278.476 149.033 278.676 148.48C278.883 147.927 279.183 147.5 279.576 147.2C279.969 146.893 280.449 146.74 281.016 146.74C281.643 146.74 282.176 146.947 282.616 147.36C283.056 147.767 283.349 148.337 283.496 149.07L282.576 149.13C282.463 148.617 282.266 148.23 281.986 147.97C281.713 147.71 281.389 147.58 281.016 147.58C280.636 147.58 280.316 147.693 280.056 147.92C279.803 148.14 279.609 148.467 279.476 148.9C279.343 149.327 279.276 149.847 279.276 150.46C279.276 151.067 279.343 151.583 279.476 152.01C279.609 152.437 279.803 152.763 280.056 152.99C280.316 153.21 280.636 153.32 281.016 153.32C281.429 153.32 281.779 153.177 282.066 152.89C282.353 152.603 282.546 152.177 282.646 151.61L283.556 151.66C283.429 152.44 283.143 153.053 282.696 153.5C282.249 153.94 281.689 154.16 281.016 154.16ZM285.592 154V146.9H286.452V150.35L286.012 150.01H289.972L289.532 150.35V146.9H290.392V154H289.532V150.51L289.972 150.85H286.012L286.452 150.51V154H285.592Z" fill="#0040A1"/>
<path d="M242.071 144L241 144.621V145.862L242.071 146.482L243.142 145.862V144.621L242.071 144Z" fill="#8547FF"/>
<path d="M226.071 144L225 144.621V145.862L226.071 146.482L227.142 145.862V144.621L226.071 144Z" fill="#8547FF"/>
<path d="M296.911 168.546L295.84 169.167V170.408L296.911 171.028L297.982 170.408V169.167L296.911 168.546Z" fill="#8547FF"/>
<path d="M262.61 166.742L261.539 167.362V168.604L262.61 169.224L263.681 168.604V167.362L262.61 166.742Z" fill="#8547FF"/>
<path d="M271.071 186L270 186.621V187.862L271.071 188.482L272.142 187.862V186.621L271.071 186Z" fill="#8547FF"/>
<path d="M295.071 114L294 114.621V115.862L295.071 116.482L296.142 115.862V114.621L295.071 114Z" fill="#8547FF"/>
<path d="M316.752 117.579L315.681 118.2V119.441L316.752 120.062L317.823 119.441V118.2L316.752 117.579Z" fill="#8547FF"/>
<path d="M300.071 142L299 142.621V143.862L300.071 144.482L301.142 143.862V142.621L300.071 142Z" fill="#8547FF"/>
<path d="M258.096 107.614L257.024 108.234V109.476L258.096 110.096L259.167 109.476V108.234L258.096 107.614Z" fill="#8547FF"/>
<path d="M268.071 95L267 95.6206V96.8618L268.071 97.4824L269.142 96.8618V95.6206L268.071 95Z" fill="#8547FF"/>
<path d="M291.071 100L290 100.621V101.862L291.071 102.482L292.142 101.862V100.621L291.071 100Z" fill="#8547FF"/>
<path d="M280.213 178.928L279.142 179.549V180.79L280.213 181.411L281.284 180.79V179.549L280.213 178.928Z" fill="#8547FF"/>
<path d="M297.071 157L296 157.621V158.862L297.071 159.482L298.142 158.862V157.621L297.071 157Z" fill="#8547FF"/>
<path d="M245.909 172.156L244.838 172.777V174.018L245.909 174.639L246.98 174.018V172.777L245.909 172.156Z" fill="#8547FF"/>
<path d="M233.723 132.89L232.652 133.51V134.752L233.723 135.372L234.794 134.752V133.51L233.723 132.89Z" fill="#8547FF"/>
<path d="M292.071 124L291 124.621V125.862L292.071 126.482L293.142 125.862V124.621L292.071 124Z" fill="#8547FF"/>
<path d="M307.071 128L306 128.621V129.862L307.071 130.482L308.142 129.862V128.621L307.071 128Z" fill="#038585"/>
<path d="M305.071 110L304 110.621V111.862L305.071 112.482L306.142 111.862V110.621L305.071 110Z" fill="#038585"/>
<path d="M251.071 123L250 123.621V124.862L251.071 125.482L252.142 124.862V123.621L251.071 123Z" fill="#038585"/>
<path d="M248.071 162L247 162.621V163.862L248.071 164.482L249.142 163.862V162.621L248.071 162Z" fill="#038585"/>
<path d="M231.071 165L230 165.621V166.862L231.071 167.482L232.142 166.862V165.621L231.071 165Z" fill="#038585"/>
<path d="M278.858 164.935L277.787 165.556V166.797L278.858 167.418L279.929 166.797V165.556L278.858 164.935Z" fill="#038585"/>
<path d="M307.071 168L306 168.621V169.862L307.071 170.482L308.142 169.862V168.621L307.071 168Z" fill="#038585"/>
<path d="M277.503 104.003L276.432 104.624V105.865L277.503 106.486L278.574 105.865V104.624L277.503 104.003Z" fill="#038585"/>
<path d="M235.078 154.555L234.007 155.176V156.417L235.078 157.038L236.149 156.417V155.176L235.078 154.555Z" fill="#038585"/>
<path d="M316.071 139L315 139.621V140.862L316.071 141.482L317.142 140.862V139.621L316.071 139Z" fill="#038585"/>
<path d="M272.538 117.996L271.467 118.617V119.858L272.538 120.479L273.609 119.858V118.617L272.538 117.996Z" fill="#038585"/>
<path d="M312.071 154L311 154.621V155.862L312.071 156.482L313.142 155.862V154.621L312.071 154Z" fill="#038585"/>
<path d="M243.071 114L242 114.621V115.862L243.071 116.482L244.142 115.862V114.621L243.071 114Z" fill="#038585"/>
<path d="M229.071 122L228 122.621V123.862L229.071 124.482L230.142 123.862V122.621L229.071 122Z" fill="#038585"/>
<path d="M259.451 178.928L258.38 179.549V180.79L259.451 181.411L260.522 180.79V179.549L259.451 178.928Z" fill="#038585"/>
<path d="M447 192H401.093C396.675 192 393.093 188.418 393.093 184L393.093 158C393.093 153.582 389.511 150 385.093 150H325" stroke="#D4D9E6"/>
<path d="M447 192H401.093C396.675 192 393.093 188.418 393.093 184L393.093 158C393.093 153.582 389.511 150 385.093 150H325" stroke="url(#paint6_linear_11450_41300)"/>
<path d="M101 127H146.843C151.261 127 154.843 130.582 154.843 135L154.843 161C154.843 165.418 158.424 169 162.843 169H216" stroke="#D4D9E6"/>
<path d="M101 127H146.843C151.261 127 154.843 130.582 154.843 135L154.843 161C154.843 165.418 158.424 169 162.843 169H216" stroke="url(#paint7_linear_11450_41300)"/>
<path fill-rule="evenodd" clip-rule="evenodd" d="M100.995 100.25L74.4973 85L48.0004 100.25L48 100.25V100.25V130.749L74.4977 146H74.5023L101 130.749V100.25L100.995 100.25Z" fill="url(#paint8_linear_11450_41300)"/>
<path d="M58.789 124L58 124.457V125.371L58.789 125.828L59.578 125.371V124.457L58.789 124Z" fill="#8547FF"/>
<path d="M86.789 101L86 101.457V102.371L86.789 102.828L87.578 102.371V101.457L86.789 101Z" fill="#8547FF"/>
<path d="M95.789 121L95 121.457V122.371L95.789 122.828L96.578 122.371V121.457L95.789 121Z" fill="#8547FF"/>
<path d="M73.789 94L73 94.4571V95.3714L73.789 95.8285L74.578 95.3714V94.4571L73.789 94Z" fill="#8547FF"/>
<path d="M79.789 131L79 131.457V132.371L79.789 132.828L80.578 132.371V131.457L79.789 131Z" fill="#8547FF"/>
<path d="M53.789 113L53 113.457V114.371L53.789 114.828L54.578 114.371V113.457L53.789 113Z" fill="#8547FF"/>
<path d="M92.019 111.963L91.23 112.42V113.334L92.019 113.791L92.808 113.334V112.42L92.019 111.963Z" fill="#8547FF"/>
<path d="M84.789 123L84 123.457V124.371L84.789 124.828L85.578 124.371V123.457L84.789 123Z" fill="#8547FF"/>
<path d="M67.0839 113.293L66.2949 113.75V114.665L67.0839 115.122L67.8729 114.665V113.75L67.0839 113.293Z" fill="#8547FF"/>
<path d="M80.789 113.293L80 113.75V114.665L80.789 115.122L81.578 114.665V113.75L80.789 113.293Z" fill="#8547FF"/>
<path d="M74.789 120L74 120.457V121.371L74.789 121.828L75.578 121.371V120.457L74.789 120Z" fill="#8547FF"/>
<path d="M67.789 131L67 131.457V132.371L67.789 132.828L68.578 132.371V131.457L67.789 131Z" fill="#8547FF"/>
<path d="M73.789 106L73 106.457V107.371L73.789 107.828L74.578 107.371V106.457L73.789 106Z" fill="#8547FF"/>
<path d="M60.789 102L60 102.457V103.371L60.789 103.828L61.578 103.371V102.457L60.789 102Z" fill="#8547FF"/>
<path fill-rule="evenodd" clip-rule="evenodd" d="M499.995 174.25L473.497 159L447 174.25L447 174.25V174.25V204.749L473.498 220H473.502L500 204.749V174.25L499.995 174.25Z" fill="url(#paint9_linear_11450_41300)"/>
<path d="M457.789 198L457 198.457V199.371L457.789 199.828L458.578 199.371V198.457L457.789 198Z" fill="#038585"/>
<path d="M485.789 175L485 175.457V176.371L485.789 176.828L486.578 176.371V175.457L485.789 175Z" fill="#038585"/>
<path d="M494.789 195L494 195.457V196.371L494.789 196.828L495.578 196.371V195.457L494.789 195Z" fill="#038585"/>
<path d="M472.789 168L472 168.457V169.371L472.789 169.828L473.578 169.371V168.457L472.789 168Z" fill="#038585"/>
<path d="M478.789 205L478 205.457V206.371L478.789 206.828L479.578 206.371V205.457L478.789 205Z" fill="#038585"/>
<path d="M452.789 187L452 187.457V188.371L452.789 188.828L453.578 188.371V187.457L452.789 187Z" fill="#038585"/>
<path d="M491.019 185.963L490.23 186.42V187.334L491.019 187.791L491.808 187.334V186.42L491.019 185.963Z" fill="#038585"/>
<path d="M483.789 197L483 197.457V198.371L483.789 198.828L484.578 198.371V197.457L483.789 197Z" fill="#038585"/>
<path d="M466.084 187.293L465.295 187.75V188.665L466.084 189.122L466.873 188.665V187.75L466.084 187.293Z" fill="#038585"/>
<path d="M479.789 187.293L479 187.75V188.665L479.789 189.122L480.578 188.665V187.75L479.789 187.293Z" fill="#038585"/>
<path d="M473.789 194L473 194.457V195.371L473.789 195.828L474.578 195.371V194.457L473.789 194Z" fill="#038585"/>
<path d="M466.789 205L466 205.457V206.371L466.789 206.828L467.578 206.371V205.457L466.789 205Z" fill="#038585"/>
<path d="M472.789 180L472 180.457V181.371L472.789 181.828L473.578 181.371V180.457L472.789 180Z" fill="#038585"/>
<path d="M459.789 176L459 176.457V177.371L459.789 177.828L460.578 177.371V176.457L459.789 176Z" fill="#038585"/>
<g filter="url(#filter1_dddd_11450_41300)">
<rect x="106.5" y="200" width="40" height="19" rx="5" fill="#F0F3FA"/>
<rect x="107" y="200.5" width="39" height="18" rx="4.5" stroke="#D4D9E6"/>
<path d="M117.626 212V206.32H119.226C119.85 206.32 120.32 206.459 120.634 206.736C120.954 207.013 121.114 207.392 121.114 207.872C121.114 208.107 121.058 208.317 120.946 208.504C120.834 208.691 120.677 208.837 120.474 208.944C120.272 209.051 120.037 209.104 119.77 209.104V209.056C120.101 209.056 120.384 209.112 120.618 209.224C120.858 209.336 121.04 209.493 121.162 209.696C121.29 209.899 121.354 210.139 121.354 210.416C121.354 210.907 121.184 211.293 120.842 211.576C120.501 211.859 120.029 212 119.426 212H117.626ZM118.314 211.328H119.434C119.845 211.328 120.146 211.248 120.338 211.088C120.536 210.928 120.634 210.704 120.634 210.416C120.634 210.112 120.533 209.875 120.33 209.704C120.128 209.533 119.829 209.448 119.434 209.448H118.314V211.328ZM118.314 208.776H119.258C119.653 208.776 119.941 208.699 120.122 208.544C120.304 208.389 120.394 208.171 120.394 207.888C120.394 207.6 120.304 207.379 120.122 207.224C119.941 207.069 119.653 206.992 119.258 206.992H118.314V208.776ZM123.799 211.36L122.727 206.96H122.791V212H122.103V206.32H123.143L124.263 210.992H123.943L125.063 206.32H126.103V212H125.415V206.96H125.479L124.407 211.36H123.799ZM126.9 212C126.9 211.6 126.961 211.24 127.084 210.92C127.212 210.595 127.433 210.285 127.748 209.992C128.068 209.699 128.511 209.403 129.076 209.104C129.337 208.965 129.548 208.837 129.708 208.72C129.868 208.603 129.985 208.477 130.06 208.344C130.135 208.211 130.172 208.048 130.172 207.856C130.172 207.659 130.129 207.488 130.044 207.344C129.959 207.195 129.831 207.077 129.66 206.992C129.495 206.907 129.287 206.864 129.036 206.864C128.636 206.864 128.319 206.968 128.084 207.176C127.855 207.384 127.711 207.68 127.652 208.064L126.932 208.016C126.996 207.461 127.209 207.019 127.572 206.688C127.935 206.357 128.423 206.192 129.036 206.192C129.425 206.192 129.759 206.261 130.036 206.4C130.313 206.539 130.524 206.733 130.668 206.984C130.817 207.229 130.892 207.515 130.892 207.84C130.892 208.128 130.844 208.379 130.748 208.592C130.652 208.8 130.489 208.995 130.26 209.176C130.036 209.357 129.727 209.552 129.332 209.76C128.991 209.941 128.703 210.125 128.468 210.312C128.239 210.499 128.063 210.68 127.94 210.856C127.823 211.027 127.759 211.184 127.748 211.328H130.9V212H126.9ZM133.681 212.128C133.313 212.128 132.99 212.061 132.713 211.928C132.441 211.795 132.222 211.608 132.057 211.368C131.897 211.128 131.804 210.851 131.777 210.536L132.497 210.488C132.54 210.808 132.665 211.051 132.873 211.216C133.086 211.376 133.356 211.456 133.681 211.456C134.049 211.456 134.342 211.344 134.561 211.12C134.785 210.891 134.897 210.576 134.897 210.176C134.897 209.909 134.849 209.68 134.753 209.488C134.657 209.291 134.518 209.141 134.337 209.04C134.161 208.933 133.948 208.88 133.697 208.88C133.473 208.88 133.257 208.936 133.049 209.048C132.846 209.155 132.7 209.309 132.609 209.512H131.873L132.249 206.32H135.273V206.992H132.881L132.625 209.088L132.497 208.96C132.582 208.795 132.694 208.659 132.833 208.552C132.972 208.445 133.124 208.365 133.289 208.312C133.46 208.253 133.628 208.224 133.793 208.224C134.156 208.224 134.473 208.309 134.745 208.48C135.022 208.645 135.236 208.875 135.385 209.168C135.54 209.461 135.617 209.797 135.617 210.176C135.617 210.555 135.534 210.893 135.369 211.192C135.204 211.485 134.974 211.715 134.681 211.88C134.393 212.045 134.06 212.128 133.681 212.128Z" fill="#3D4866"/>
</g>
<g filter="url(#filter2_dddd_11450_41300)">
<rect x="390.5" y="60" width="55" height="19" rx="5" fill="#F0F3FA"/>
<rect x="391" y="60.5" width="54" height="18" rx="4.5" stroke="#D4D9E6"/>
<path d="M401.301 72.128C400.901 72.128 400.546 72.0453 400.237 71.88C399.927 71.7147 399.679 71.488 399.493 71.2C399.306 70.9067 399.197 70.568 399.165 70.184L399.885 70.136C399.922 70.4187 400.002 70.6587 400.125 70.856C400.253 71.0533 400.415 71.2027 400.613 71.304C400.815 71.4053 401.05 71.456 401.317 71.456C401.583 71.456 401.807 71.424 401.989 71.36C402.17 71.2907 402.306 71.192 402.397 71.064C402.493 70.9307 402.541 70.7733 402.541 70.592C402.541 70.4107 402.498 70.2533 402.413 70.12C402.333 69.9813 402.178 69.8533 401.949 69.736C401.725 69.6187 401.391 69.4987 400.949 69.376C400.554 69.264 400.234 69.1413 399.988 69.008C399.749 68.8747 399.573 68.712 399.461 68.52C399.354 68.328 399.301 68.0907 399.301 67.808C399.301 67.488 399.375 67.208 399.525 66.968C399.679 66.7227 399.898 66.5333 400.181 66.4C400.463 66.2613 400.799 66.192 401.189 66.192C401.578 66.192 401.911 66.272 402.189 66.432C402.466 66.5867 402.685 66.8 402.845 67.072C403.01 67.344 403.114 67.6533 403.157 68L402.437 68.048C402.405 67.8187 402.338 67.616 402.237 67.44C402.135 67.2587 401.997 67.1173 401.821 67.016C401.645 66.9147 401.429 66.864 401.173 66.864C400.821 66.864 400.541 66.9493 400.333 67.12C400.125 67.2853 400.021 67.504 400.021 67.776C400.021 67.952 400.058 68.0987 400.133 68.216C400.213 68.328 400.351 68.4293 400.549 68.52C400.746 68.6053 401.023 68.6987 401.381 68.8C401.845 68.928 402.213 69.072 402.485 69.232C402.762 69.392 402.959 69.584 403.077 69.808C403.199 70.0267 403.261 70.2933 403.261 70.608C403.261 70.9067 403.178 71.1707 403.013 71.4C402.847 71.6293 402.618 71.808 402.325 71.936C402.031 72.064 401.69 72.128 401.301 72.128ZM404.329 72V66.32H406.057C406.452 66.32 406.796 66.3893 407.089 66.528C407.383 66.6667 407.609 66.8667 407.769 67.128C407.929 67.384 408.009 67.6933 408.009 68.056C408.009 68.4187 407.929 68.7307 407.769 68.992C407.609 69.248 407.383 69.4453 407.089 69.584C406.796 69.7227 406.452 69.792 406.057 69.792H405.017V72H404.329ZM405.017 69.12H405.977C406.425 69.12 406.756 69.0293 406.969 68.848C407.183 68.6613 407.289 68.3973 407.289 68.056C407.289 67.7093 407.183 67.4453 406.969 67.264C406.756 67.0827 406.425 66.992 405.977 66.992H405.017V69.12ZM409.206 72V66.32H409.894V71.68L409.55 71.328H412.726V72H409.206ZM413.411 72L415.139 66.32H416.067L417.795 72H417.059L415.603 66.944L414.147 72H413.411ZM414.283 70.384L414.523 69.712H416.683L416.923 70.384H414.283ZM418.72 72V66.32H420.064C420.555 66.32 420.981 66.432 421.344 66.656C421.712 66.8747 421.995 67.1973 422.192 67.624C422.395 68.0453 422.496 68.56 422.496 69.168C422.496 69.776 422.395 70.2907 422.192 70.712C421.995 71.1333 421.712 71.4533 421.344 71.672C420.981 71.8907 420.555 72 420.064 72H418.72ZM419.408 71.328H420.024C420.579 71.328 421.008 71.1493 421.312 70.792C421.621 70.4293 421.776 69.888 421.776 69.168C421.776 68.448 421.621 67.9067 421.312 67.544C421.008 67.176 420.579 66.992 420.024 66.992H419.408V71.328ZM423.517 72V66.32H426.973V66.992H424.205V68.824H426.877V69.48H424.205V71.328H427.037V72H423.517ZM428.082 69.952V69.328H431.906V69.952H428.082ZM429.682 71.552V67.728H430.306V71.552H429.682ZM432.879 69.952V69.328H436.703V69.952H432.879ZM434.479 71.552V67.728H435.103V71.552H434.479Z" fill="#3D4866"/>
</g>
</g>
<defs>
<filter id="filter0_dddd_11450_41300" x="148.5" y="39" width="84" height="48" filterUnits="userSpaceOnUse" color-interpolation-filters="sRGB">
<feFlood flood-opacity="0" result="BackgroundImageFix"/>
<feColorMatrix in="SourceAlpha" type="matrix" values="0 0 0 0 0 0 0 0 0 0 0 0 0 0 0 0 0 0 127 0" result="hardAlpha"/>
<feOffset dx="1" dy="1"/>
<feGaussianBlur stdDeviation="1.5"/>
<feColorMatrix type="matrix" values="0 0 0 0 0 0 0 0 0 0 0 0 0 0 0 0 0 0 0.1 0"/>
<feBlend mode="normal" in2="BackgroundImageFix" result="effect1_dropShadow_11450_41300"/>
<feColorMatrix in="SourceAlpha" type="matrix" values="0 0 0 0 0 0 0 0 0 0 0 0 0 0 0 0 0 0 127 0" result="hardAlpha"/>
<feOffset dx="4" dy="4"/>
<feGaussianBlur stdDeviation="3"/>
<feColorMatrix type="matrix" values="0 0 0 0 0 0 0 0 0 0 0 0 0 0 0 0 0 0 0.09 0"/>
<feBlend mode="normal" in2="effect1_dropShadow_11450_41300" result="effect2_dropShadow_11450_41300"/>
<feColorMatrix in="SourceAlpha" type="matrix" values="0 0 0 0 0 0 0 0 0 0 0 0 0 0 0 0 0 0 127 0" result="hardAlpha"/>
<feOffset dx="10" dy="10"/>
<feGaussianBlur stdDeviation="4"/>
<feColorMatrix type="matrix" values="0 0 0 0 0 0 0 0 0 0 0 0 0 0 0 0 0 0 0.05 0"/>
<feBlend mode="normal" in2="effect2_dropShadow_11450_41300" result="effect3_dropShadow_11450_41300"/>
<feColorMatrix in="SourceAlpha" type="matrix" values="0 0 0 0 0 0 0 0 0 0 0 0 0 0 0 0 0 0 127 0" result="hardAlpha"/>
<feOffset dx="17" dy="17"/>
<feGaussianBlur stdDeviation="5"/>
<feColorMatrix type="matrix" values="0 0 0 0 0 0 0 0 0 0 0 0 0 0 0 0 0 0 0.01 0"/>
<feBlend mode="normal" in2="effect3_dropShadow_11450_41300" result="effect4_dropShadow_11450_41300"/>
<feBlend mode="normal" in="SourceGraphic" in2="effect4_dropShadow_11450_41300" result="shape"/>
</filter>
<filter id="filter1_dddd_11450_41300" x="104.5" y="198" width="69" height="48" filterUnits="userSpaceOnUse" color-interpolation-filters="sRGB">
<feFlood flood-opacity="0" result="BackgroundImageFix"/>
<feColorMatrix in="SourceAlpha" type="matrix" values="0 0 0 0 0 0 0 0 0 0 0 0 0 0 0 0 0 0 127 0" result="hardAlpha"/>
<feOffset dx="1" dy="1"/>
<feGaussianBlur stdDeviation="1.5"/>
<feColorMatrix type="matrix" values="0 0 0 0 0 0 0 0 0 0 0 0 0 0 0 0 0 0 0.1 0"/>
<feBlend mode="normal" in2="BackgroundImageFix" result="effect1_dropShadow_11450_41300"/>
<feColorMatrix in="SourceAlpha" type="matrix" values="0 0 0 0 0 0 0 0 0 0 0 0 0 0 0 0 0 0 127 0" result="hardAlpha"/>
<feOffset dx="4" dy="4"/>
<feGaussianBlur stdDeviation="3"/>
<feColorMatrix type="matrix" values="0 0 0 0 0 0 0 0 0 0 0 0 0 0 0 0 0 0 0.09 0"/>
<feBlend mode="normal" in2="effect1_dropShadow_11450_41300" result="effect2_dropShadow_11450_41300"/>
<feColorMatrix in="SourceAlpha" type="matrix" values="0 0 0 0 0 0 0 0 0 0 0 0 0 0 0 0 0 0 127 0" result="hardAlpha"/>
<feOffset dx="10" dy="10"/>
<feGaussianBlur stdDeviation="4"/>
<feColorMatrix type="matrix" values="0 0 0 0 0 0 0 0 0 0 0 0 0 0 0 0 0 0 0.05 0"/>
<feBlend mode="normal" in2="effect2_dropShadow_11450_41300" result="effect3_dropShadow_11450_41300"/>
<feColorMatrix in="SourceAlpha" type="matrix" values="0 0 0 0 0 0 0 0 0 0 0 0 0 0 0 0 0 0 127 0" result="hardAlpha"/>
<feOffset dx="17" dy="17"/>
<feGaussianBlur stdDeviation="5"/>
<feColorMatrix type="matrix" values="0 0 0 0 0 0 0 0 0 0 0 0 0 0 0 0 0 0 0.01 0"/>
<feBlend mode="normal" in2="effect3_dropShadow_11450_41300" result="effect4_dropShadow_11450_41300"/>
<feBlend mode="normal" in="SourceGraphic" in2="effect4_dropShadow_11450_41300" result="shape"/>
</filter>
<filter id="filter2_dddd_11450_41300" x="388.5" y="58" width="84" height="48" filterUnits="userSpaceOnUse" color-interpolation-filters="sRGB">
<feFlood flood-opacity="0" result="BackgroundImageFix"/>
<feColorMatrix in="SourceAlpha" type="matrix" values="0 0 0 0 0 0 0 0 0 0 0 0 0 0 0 0 0 0 127 0" result="hardAlpha"/>
<feOffset dx="1" dy="1"/>
<feGaussianBlur stdDeviation="1.5"/>
<feColorMatrix type="matrix" values="0 0 0 0 0 0 0 0 0 0 0 0 0 0 0 0 0 0 0.1 0"/>
<feBlend mode="normal" in2="BackgroundImageFix" result="effect1_dropShadow_11450_41300"/>
<feColorMatrix in="SourceAlpha" type="matrix" values="0 0 0 0 0 0 0 0 0 0 0 0 0 0 0 0 0 0 127 0" result="hardAlpha"/>
<feOffset dx="4" dy="4"/>
<feGaussianBlur stdDeviation="3"/>
<feColorMatrix type="matrix" values="0 0 0 0 0 0 0 0 0 0 0 0 0 0 0 0 0 0 0.09 0"/>
<feBlend mode="normal" in2="effect1_dropShadow_11450_41300" result="effect2_dropShadow_11450_41300"/>
<feColorMatrix in="SourceAlpha" type="matrix" values="0 0 0 0 0 0 0 0 0 0 0 0 0 0 0 0 0 0 127 0" result="hardAlpha"/>
<feOffset dx="10" dy="10"/>
<feGaussianBlur stdDeviation="4"/>
<feColorMatrix type="matrix" values="0 0 0 0 0 0 0 0 0 0 0 0 0 0 0 0 0 0 0.05 0"/>
<feBlend mode="normal" in2="effect2_dropShadow_11450_41300" result="effect3_dropShadow_11450_41300"/>
<feColorMatrix in="SourceAlpha" type="matrix" values="0 0 0 0 0 0 0 0 0 0 0 0 0 0 0 0 0 0 127 0" result="hardAlpha"/>
<feOffset dx="17" dy="17"/>
<feGaussianBlur stdDeviation="5"/>
<feColorMatrix type="matrix" values="0 0 0 0 0 0 0 0 0 0 0 0 0 0 0 0 0 0 0.01 0"/>
<feBlend mode="normal" in2="effect3_dropShadow_11450_41300" result="effect4_dropShadow_11450_41300"/>
<feBlend mode="normal" in="SourceGraphic" in2="effect4_dropShadow_11450_41300" result="shape"/>
</filter>
<linearGradient id="paint0_linear_11450_41300" x1="270" y1="230" x2="270" y2="266" gradientUnits="userSpaceOnUse">
<stop stop-color="#F0F3FA" stop-opacity="0.08"/>
<stop offset="1" stop-color="#F0F3FA"/>
</linearGradient>
<linearGradient id="paint1_linear_11450_41300" x1="109.096" y1="85.5181" x2="6.0101" y2="13.081" gradientUnits="userSpaceOnUse">
<stop stop-color="#F0F3FA" stop-opacity="0.08"/>
<stop offset="0.620921" stop-color="#F0F3FA"/>
</linearGradient>
<linearGradient id="paint2_linear_11450_41300" x1="145" y1="200" x2="-14.4018" y2="11.8279" gradientUnits="userSpaceOnUse">
<stop offset="0.424139" stop-color="#F0F3FA"/>
<stop offset="1" stop-color="#F0F3FA" stop-opacity="0.08"/>
</linearGradient>
<linearGradient id="paint3_linear_11450_41300" x1="270.5" y1="249.067" x2="270.5" y2="37.6" gradientUnits="userSpaceOnUse">
<stop stop-color="#89A9FF" stop-opacity="0.5"/>
<stop offset="1" stop-color="#D9E2FE" stop-opacity="0.4"/>
</linearGradient>
<linearGradient id="paint4_linear_11450_41300" x1="270.5" y1="222.924" x2="270.5" y2="63.7428" gradientUnits="userSpaceOnUse">
<stop stop-color="#89A9FF" stop-opacity="0.5"/>
<stop offset="1" stop-color="#D9E2FE" stop-opacity="0.4"/>
</linearGradient>
<linearGradient id="paint5_linear_11450_41300" x1="270.582" y1="203.677" x2="270.582" y2="82.8667" gradientUnits="userSpaceOnUse">
<stop stop-color="#89A9FF" stop-opacity="0.5"/>
<stop offset="1" stop-color="#D9E2FE" stop-opacity="0.4"/>
</linearGradient>
<linearGradient id="paint6_linear_11450_41300" x1="327.128" y1="150" x2="456.169" y2="222.504" gradientUnits="userSpaceOnUse">
<stop stop-color="#038585"/>
<stop offset="1" stop-color="#038585" stop-opacity="0"/>
</linearGradient>
<linearGradient id="paint7_linear_11450_41300" x1="220.729" y1="169" x2="91.7683" y2="96.6277" gradientUnits="userSpaceOnUse">
<stop stop-color="#8547FF"/>
<stop offset="1" stop-color="#8547FF" stop-opacity="0"/>
</linearGradient>
<linearGradient id="paint8_linear_11450_41300" x1="74.5" y1="146" x2="74.5" y2="85" gradientUnits="userSpaceOnUse">
<stop stop-color="#B99AFF" stop-opacity="0.5"/>
<stop offset="1" stop-color="#D9E2FE" stop-opacity="0.4"/>
</linearGradient>
<linearGradient id="paint9_linear_11450_41300" x1="473.5" y1="220" x2="473.5" y2="159" gradientUnits="userSpaceOnUse">
<stop stop-color="#1FC7C7" stop-opacity="0.5"/>
<stop offset="1" stop-color="#D9E2FE" stop-opacity="0.4"/>
</linearGradient>
<clipPath id="clip0_11450_41300">
<rect width="540" height="266" fill="white"/>
</clipPath>
<pattern id="pattern0_11450_41300" patternUnits="userSpaceOnUse" patternTransform="matrix(6.72 0 0 6.72 0 0)" preserveAspectRatio="none" viewBox="0 0 56 56" width="1" height="1">
<g id="pattern0_11450_41300_inner">
<circle cx="4" cy="4" r="4" fill="#717C99"/>
</g>
</pattern></defs>
</svg>
