<svg width="350" height="194" viewBox="0 0 350 194" fill="none" xmlns="http://www.w3.org/2000/svg" xmlns:xlink="http://www.w3.org/1999/xlink">
<g clip-path="url(#clip0_11450_41345)">
<rect width="350" height="194" fill="url(#pattern0_11450_41345)" fill-opacity="0.3"/>
<rect y="158" width="350" height="36" fill="url(#paint0_linear_11450_41345)"/>
<rect width="102" height="107" fill="url(#paint1_linear_11450_41345)"/>
<g filter="url(#filter0_dddd_11450_41345)">
<path d="M129.889 21C129.889 18.2386 132.127 16 134.889 16H214.889C217.65 16 219.889 18.2386 219.889 21V43C219.889 45.7614 217.65 48 214.889 48H134.889C132.127 48 129.889 45.7614 129.889 43V21Z" fill="#F0F3FA"/>
<path d="M134.889 16.5H214.889C217.374 16.5 219.389 18.5147 219.389 21V43C219.389 45.4853 217.374 47.5 214.889 47.5H134.889C132.403 47.5 130.389 45.4853 130.389 43V21C130.389 18.5147 132.403 16.5 134.889 16.5Z" stroke="#D4D9E6"/>
<path d="M142.111 23.208H155.666C156.778 23.208 157.681 24.1104 157.681 25.2227V38.7773C157.681 39.8896 156.778 40.792 155.666 40.792H142.111C140.999 40.792 140.097 39.8896 140.097 38.7773V25.2227C140.097 24.1104 140.999 23.208 142.111 23.208Z" fill="#FFDADB"/>
<path d="M142.111 23.208H155.666C156.778 23.208 157.681 24.1104 157.681 25.2227V38.7773C157.681 39.8896 156.778 40.792 155.666 40.792H142.111C140.999 40.792 140.097 39.8896 140.097 38.7773V25.2227C140.097 24.1104 140.999 23.208 142.111 23.208Z" stroke="#DC244C" stroke-width="0.416666"/>
<path d="M144.412 35V29.32H145.756C146.246 29.32 146.673 29.432 147.036 29.656C147.404 29.8747 147.686 30.1973 147.884 30.624C148.086 31.0453 148.188 31.56 148.188 32.168C148.188 32.776 148.086 33.2907 147.884 33.712C147.686 34.1333 147.404 34.4533 147.036 34.672C146.673 34.8907 146.246 35 145.756 35H144.412ZM145.1 34.328H145.716C146.27 34.328 146.7 34.1493 147.004 33.792C147.313 33.4293 147.468 32.888 147.468 32.168C147.468 31.448 147.313 30.9067 147.004 30.544C146.7 30.176 146.27 29.992 145.716 29.992H145.1V34.328ZM149.689 35C149.689 34.6 149.75 34.24 149.873 33.92C150.001 33.5947 150.222 33.2853 150.537 32.992C150.857 32.6987 151.299 32.4027 151.865 32.104C152.126 31.9653 152.337 31.8373 152.497 31.72C152.657 31.6027 152.774 31.4773 152.849 31.344C152.923 31.2107 152.961 31.048 152.961 30.856C152.961 30.6587 152.918 30.488 152.833 30.344C152.747 30.1947 152.619 30.0773 152.449 29.992C152.283 29.9067 152.075 29.864 151.825 29.864C151.425 29.864 151.107 29.968 150.873 30.176C150.643 30.384 150.499 30.68 150.441 31.064L149.721 31.016C149.785 30.4613 149.998 30.0187 150.361 29.688C150.723 29.3573 151.211 29.192 151.825 29.192C152.214 29.192 152.547 29.2613 152.825 29.4C153.102 29.5387 153.313 29.7333 153.457 29.984C153.606 30.2293 153.681 30.5147 153.681 30.84C153.681 31.128 153.633 31.3787 153.537 31.592C153.441 31.8 153.278 31.9947 153.049 32.176C152.825 32.3573 152.515 32.552 152.121 32.76C151.779 32.9413 151.491 33.1253 151.257 33.312C151.027 33.4987 150.851 33.68 150.729 33.856C150.611 34.0267 150.547 34.184 150.537 34.328H153.689V35H149.689Z" fill="#DC244C"/>
<rect x="166.097" y="23.2083" width="17.5833" height="17.5833" rx="2.01389" fill="#FFDADB"/>
<rect x="166.097" y="23.2083" width="17.5833" height="17.5833" rx="2.01389" stroke="#DC244C" stroke-width="0.416666"/>
<path d="M170.412 35V29.32H171.756C172.246 29.32 172.673 29.432 173.036 29.656C173.404 29.8747 173.686 30.1973 173.884 30.624C174.086 31.0453 174.188 31.56 174.188 32.168C174.188 32.776 174.086 33.2907 173.884 33.712C173.686 34.1333 173.404 34.4533 173.036 34.672C172.673 34.8907 172.246 35 171.756 35H170.412ZM171.1 34.328H171.716C172.27 34.328 172.7 34.1493 173.004 33.792C173.313 33.4293 173.468 32.888 173.468 32.168C173.468 31.448 173.313 30.9067 173.004 30.544C172.7 30.176 172.27 29.992 171.716 29.992H171.1V34.328ZM175.689 35C175.689 34.6 175.75 34.24 175.873 33.92C176.001 33.5947 176.222 33.2853 176.537 32.992C176.857 32.6987 177.299 32.4027 177.865 32.104C178.126 31.9653 178.337 31.8373 178.497 31.72C178.657 31.6027 178.774 31.4773 178.849 31.344C178.923 31.2107 178.961 31.048 178.961 30.856C178.961 30.6587 178.918 30.488 178.833 30.344C178.747 30.1947 178.619 30.0773 178.449 29.992C178.283 29.9067 178.075 29.864 177.825 29.864C177.425 29.864 177.107 29.968 176.873 30.176C176.643 30.384 176.499 30.68 176.441 31.064L175.721 31.016C175.785 30.4613 175.998 30.0187 176.361 29.688C176.723 29.3573 177.211 29.192 177.825 29.192C178.214 29.192 178.547 29.2613 178.825 29.4C179.102 29.5387 179.313 29.7333 179.457 29.984C179.606 30.2293 179.681 30.5147 179.681 30.84C179.681 31.128 179.633 31.3787 179.537 31.592C179.441 31.8 179.278 31.9947 179.049 32.176C178.825 32.3573 178.515 32.552 178.121 32.76C177.779 32.9413 177.491 33.1253 177.257 33.312C177.027 33.4987 176.851 33.68 176.729 33.856C176.611 34.0267 176.547 34.184 176.537 34.328H179.689V35H175.689Z" fill="#DC244C"/>
<path d="M194.111 23.208H207.666C208.778 23.208 209.681 24.1104 209.681 25.2227V38.7773C209.681 39.8896 208.778 40.792 207.666 40.792H194.111C192.999 40.792 192.097 39.8896 192.097 38.7773V25.2227C192.097 24.1104 192.999 23.208 194.111 23.208Z" fill="#FFDADB"/>
<path d="M194.111 23.208H207.666C208.778 23.208 209.681 24.1104 209.681 25.2227V38.7773C209.681 39.8896 208.778 40.792 207.666 40.792H194.111C192.999 40.792 192.097 39.8896 192.097 38.7773V25.2227C192.097 24.1104 192.999 23.208 194.111 23.208Z" stroke="#DC244C" stroke-width="0.416666"/>
<path d="M196.412 35V29.32H197.756C198.246 29.32 198.673 29.432 199.036 29.656C199.404 29.8747 199.686 30.1973 199.884 30.624C200.086 31.0453 200.188 31.56 200.188 32.168C200.188 32.776 200.086 33.2907 199.884 33.712C199.686 34.1333 199.404 34.4533 199.036 34.672C198.673 34.8907 198.246 35 197.756 35H196.412ZM197.1 34.328H197.716C198.27 34.328 198.7 34.1493 199.004 33.792C199.313 33.4293 199.468 32.888 199.468 32.168C199.468 31.448 199.313 30.9067 199.004 30.544C198.7 30.176 198.27 29.992 197.716 29.992H197.1V34.328ZM201.849 35V29.32H202.825L204.841 34.216V29.32H205.529V35H204.553L202.537 30.104V35H201.849Z" fill="#DC244C"/>
</g>
<g filter="url(#filter1_dddd_11450_41345)">
<path d="M83.333 129C83.333 126.239 85.5716 124 88.333 124H158.333C161.094 124 163.333 126.239 163.333 129V173C163.333 175.761 161.094 178 158.333 178H88.333C85.5716 178 83.333 175.761 83.333 173V129Z" fill="#F0F3FA"/>
<path d="M88.333 124.5H158.333C160.818 124.5 162.833 126.515 162.833 129V173C162.833 175.485 160.818 177.5 158.333 177.5H88.333C85.8477 177.5 83.833 175.485 83.833 173V129C83.833 126.515 85.8477 124.5 88.333 124.5Z" stroke="#D4D9E6"/>
<rect x="93.5413" y="131.208" width="15.5833" height="15.5833" rx="2.01389" fill="#BEFAD6"/>
<rect x="93.5413" y="131.208" width="15.5833" height="15.5833" rx="2.01389" stroke="#008A53" stroke-width="0.416666"/>
<path d="M97.4157 141V136.03H98.5917C99.0211 136.03 99.3944 136.128 99.7117 136.324C100.034 136.515 100.281 136.798 100.454 137.171C100.631 137.54 100.72 137.99 100.72 138.522C100.72 139.054 100.631 139.504 100.454 139.873C100.281 140.242 100.034 140.522 99.7117 140.713C99.3944 140.904 99.0211 141 98.5917 141H97.4157ZM98.0177 140.412H98.5567C99.0421 140.412 99.4177 140.256 99.6837 139.943C99.9544 139.626 100.09 139.152 100.09 138.522C100.09 137.892 99.9544 137.418 99.6837 137.101C99.4177 136.779 99.0421 136.618 98.5567 136.618H98.0177V140.412ZM103.671 141V137.318H102.369V136.8H103.041C103.218 136.8 103.361 136.774 103.468 136.723C103.58 136.672 103.659 136.59 103.706 136.478C103.757 136.366 103.783 136.217 103.783 136.03H104.273V141H103.671ZM102.103 141V140.412H105.463V141H102.103Z" fill="#008A53"/>
<rect x="115.541" y="131.208" width="15.5833" height="15.5833" rx="2.01389" fill="#BEFAD6"/>
<rect x="115.541" y="131.208" width="15.5833" height="15.5833" rx="2.01389" stroke="#008A53" stroke-width="0.416666"/>
<path d="M119.416 141V136.03H120.592C121.021 136.03 121.394 136.128 121.712 136.324C122.034 136.515 122.281 136.798 122.454 137.171C122.631 137.54 122.72 137.99 122.72 138.522C122.72 139.054 122.631 139.504 122.454 139.873C122.281 140.242 122.034 140.522 121.712 140.713C121.394 140.904 121.021 141 120.592 141H119.416ZM120.018 140.412H120.557C121.042 140.412 121.418 140.256 121.684 139.943C121.954 139.626 122.09 139.152 122.09 138.522C122.09 137.892 121.954 137.418 121.684 137.101C121.418 136.779 121.042 136.618 120.557 136.618H120.018V140.412ZM124.033 141C124.033 140.65 124.087 140.335 124.194 140.055C124.306 139.77 124.5 139.5 124.775 139.243C125.055 138.986 125.442 138.727 125.937 138.466C126.166 138.345 126.35 138.233 126.49 138.13C126.63 138.027 126.733 137.918 126.798 137.801C126.863 137.684 126.896 137.542 126.896 137.374C126.896 137.201 126.859 137.052 126.784 136.926C126.709 136.795 126.597 136.693 126.448 136.618C126.303 136.543 126.121 136.506 125.902 136.506C125.552 136.506 125.274 136.597 125.069 136.779C124.868 136.961 124.742 137.22 124.691 137.556L124.061 137.514C124.117 137.029 124.304 136.641 124.621 136.352C124.938 136.063 125.365 135.918 125.902 135.918C126.243 135.918 126.534 135.979 126.777 136.1C127.02 136.221 127.204 136.392 127.33 136.611C127.461 136.826 127.526 137.075 127.526 137.36C127.526 137.612 127.484 137.831 127.4 138.018C127.316 138.2 127.174 138.37 126.973 138.529C126.777 138.688 126.506 138.858 126.161 139.04C125.862 139.199 125.61 139.36 125.405 139.523C125.204 139.686 125.05 139.845 124.943 139.999C124.84 140.148 124.784 140.286 124.775 140.412H127.533V141H124.033Z" fill="#008A53"/>
<rect x="137.541" y="131.208" width="15.5833" height="15.5833" rx="2.01389" fill="#BEFAD6"/>
<rect x="137.541" y="131.208" width="15.5833" height="15.5833" rx="2.01389" stroke="#008A53" stroke-width="0.416666"/>
<path d="M141.416 141V136.03H142.592C143.021 136.03 143.394 136.128 143.712 136.324C144.034 136.515 144.281 136.798 144.454 137.171C144.631 137.54 144.72 137.99 144.72 138.522C144.72 139.054 144.631 139.504 144.454 139.873C144.281 140.242 144.034 140.522 143.712 140.713C143.394 140.904 143.021 141 142.592 141H141.416ZM142.018 140.412H142.557C143.042 140.412 143.418 140.256 143.684 139.943C143.954 139.626 144.09 139.152 144.09 138.522C144.09 137.892 143.954 137.418 143.684 137.101C143.418 136.779 143.042 136.618 142.557 136.618H142.018V140.412ZM147.741 141.112C147.204 141.112 146.791 140.984 146.502 140.727C146.213 140.466 146.056 140.13 146.033 139.719L146.656 139.677C146.684 139.98 146.796 140.197 146.992 140.328C147.193 140.459 147.442 140.524 147.741 140.524C147.942 140.524 148.131 140.496 148.308 140.44C148.485 140.379 148.628 140.284 148.735 140.153C148.847 140.018 148.903 139.838 148.903 139.614C148.903 139.395 148.854 139.215 148.756 139.075C148.658 138.93 148.523 138.825 148.35 138.76C148.182 138.69 147.991 138.655 147.776 138.655H147.384V138.067H147.776C147.949 138.067 148.107 138.041 148.252 137.99C148.397 137.939 148.511 137.857 148.595 137.745C148.684 137.628 148.728 137.477 148.728 137.29C148.728 137.033 148.646 136.84 148.483 136.709C148.32 136.574 148.084 136.506 147.776 136.506C147.463 136.506 147.225 136.569 147.062 136.695C146.903 136.821 146.808 136.994 146.775 137.213L146.145 137.171C146.192 136.798 146.355 136.497 146.635 136.268C146.915 136.035 147.295 135.918 147.776 135.918C148.098 135.918 148.378 135.974 148.616 136.086C148.854 136.193 149.036 136.347 149.162 136.548C149.293 136.749 149.358 136.987 149.358 137.262C149.358 137.57 149.26 137.82 149.064 138.011C148.873 138.198 148.588 138.326 148.21 138.396V138.27C148.616 138.317 148.938 138.461 149.176 138.704C149.414 138.947 149.533 139.25 149.533 139.614C149.533 139.931 149.456 140.202 149.302 140.426C149.148 140.65 148.936 140.82 148.665 140.937C148.394 141.054 148.086 141.112 147.741 141.112Z" fill="#008A53"/>
<rect x="104.541" y="155.208" width="15.5833" height="15.5833" rx="2.01389" fill="#BEFAD6"/>
<rect x="104.541" y="155.208" width="15.5833" height="15.5833" rx="2.01389" stroke="#008A53" stroke-width="0.416666"/>
<path d="M108.416 165V160.03H109.592C110.021 160.03 110.394 160.128 110.712 160.324C111.034 160.515 111.281 160.798 111.454 161.171C111.631 161.54 111.72 161.99 111.72 162.522C111.72 163.054 111.631 163.504 111.454 163.873C111.281 164.242 111.034 164.522 110.712 164.713C110.394 164.904 110.021 165 109.592 165H108.416ZM109.018 164.412H109.557C110.042 164.412 110.418 164.256 110.684 163.943C110.954 163.626 111.09 163.152 111.09 162.522C111.09 161.892 110.954 161.418 110.684 161.101C110.418 160.779 110.042 160.618 109.557 160.618H109.018V164.412ZM115.399 165V163.922H112.963V163.376L115.357 160.03H116.001V163.334H116.603V163.922H116.001V165H115.399ZM113.579 163.334H115.399V160.87L113.579 163.334Z" fill="#008A53"/>
<rect x="126.541" y="155.208" width="15.5833" height="15.5833" rx="2.01389" fill="#BEFAD6"/>
<rect x="126.541" y="155.208" width="15.5833" height="15.5833" rx="2.01389" stroke="#008A53" stroke-width="0.416666"/>
<path d="M130.416 165V160.03H131.592C132.021 160.03 132.394 160.128 132.712 160.324C133.034 160.515 133.281 160.798 133.454 161.171C133.631 161.54 133.72 161.99 133.72 162.522C133.72 163.054 133.631 163.504 133.454 163.873C133.281 164.242 133.034 164.522 132.712 164.713C132.394 164.904 132.021 165 131.592 165H130.416ZM131.018 164.412H131.557C132.042 164.412 132.418 164.256 132.684 163.943C132.954 163.626 133.09 163.152 133.09 162.522C133.09 161.892 132.954 161.418 132.684 161.101C132.418 160.779 132.042 160.618 131.557 160.618H131.018V164.412ZM135.173 165V160.03H136.027L137.791 164.314V160.03H138.393V165H137.539L135.775 160.716V165H135.173Z" fill="#008A53"/>
</g>
<g filter="url(#filter2_dddd_11450_41345)">
<path d="M187.333 129C187.333 126.239 189.572 124 192.333 124H262.333C265.094 124 267.333 126.239 267.333 129V173C267.333 175.761 265.094 178 262.333 178H192.333C189.572 178 187.333 175.761 187.333 173V129Z" fill="#F0F3FA"/>
<path d="M192.333 124.5H262.333C264.818 124.5 266.833 126.515 266.833 129V173C266.833 175.485 264.818 177.5 262.333 177.5H192.333C189.848 177.5 187.833 175.485 187.833 173V129C187.833 126.515 189.848 124.5 192.333 124.5Z" stroke="#D4D9E6"/>
<rect x="197.541" y="131.208" width="15.5833" height="15.5833" rx="2.01389" fill="#D9E2FE"/>
<rect x="197.541" y="131.208" width="15.5833" height="15.5833" rx="2.01389" stroke="#2F6FF0" stroke-width="0.416666"/>
<path d="M201.416 141V136.03H202.592C203.021 136.03 203.394 136.128 203.712 136.324C204.034 136.515 204.281 136.798 204.454 137.171C204.631 137.54 204.72 137.99 204.72 138.522C204.72 139.054 204.631 139.504 204.454 139.873C204.281 140.242 204.034 140.522 203.712 140.713C203.394 140.904 203.021 141 202.592 141H201.416ZM202.018 140.412H202.557C203.042 140.412 203.418 140.256 203.684 139.943C203.954 139.626 204.09 139.152 204.09 138.522C204.09 137.892 203.954 137.418 203.684 137.101C203.418 136.779 203.042 136.618 202.557 136.618H202.018V140.412ZM207.671 141V137.318H206.369V136.8H207.041C207.218 136.8 207.361 136.774 207.468 136.723C207.58 136.672 207.659 136.59 207.706 136.478C207.757 136.366 207.783 136.217 207.783 136.03H208.273V141H207.671ZM206.103 141V140.412H209.463V141H206.103Z" fill="#2F6FF0"/>
<rect x="219.541" y="131.208" width="15.5833" height="15.5833" rx="2.01389" fill="#D9E2FE"/>
<rect x="219.541" y="131.208" width="15.5833" height="15.5833" rx="2.01389" stroke="#2F6FF0" stroke-width="0.416666"/>
<path d="M223.416 141V136.03H224.592C225.021 136.03 225.394 136.128 225.712 136.324C226.034 136.515 226.281 136.798 226.454 137.171C226.631 137.54 226.72 137.99 226.72 138.522C226.72 139.054 226.631 139.504 226.454 139.873C226.281 140.242 226.034 140.522 225.712 140.713C225.394 140.904 225.021 141 224.592 141H223.416ZM224.018 140.412H224.557C225.042 140.412 225.418 140.256 225.684 139.943C225.954 139.626 226.09 139.152 226.09 138.522C226.09 137.892 225.954 137.418 225.684 137.101C225.418 136.779 225.042 136.618 224.557 136.618H224.018V140.412ZM228.033 141C228.033 140.65 228.087 140.335 228.194 140.055C228.306 139.77 228.5 139.5 228.775 139.243C229.055 138.986 229.442 138.727 229.937 138.466C230.166 138.345 230.35 138.233 230.49 138.13C230.63 138.027 230.733 137.918 230.798 137.801C230.863 137.684 230.896 137.542 230.896 137.374C230.896 137.201 230.859 137.052 230.784 136.926C230.709 136.795 230.597 136.693 230.448 136.618C230.303 136.543 230.121 136.506 229.902 136.506C229.552 136.506 229.274 136.597 229.069 136.779C228.868 136.961 228.742 137.22 228.691 137.556L228.061 137.514C228.117 137.029 228.304 136.641 228.621 136.352C228.938 136.063 229.365 135.918 229.902 135.918C230.243 135.918 230.534 135.979 230.777 136.1C231.02 136.221 231.204 136.392 231.33 136.611C231.461 136.826 231.526 137.075 231.526 137.36C231.526 137.612 231.484 137.831 231.4 138.018C231.316 138.2 231.174 138.37 230.973 138.529C230.777 138.688 230.506 138.858 230.161 139.04C229.862 139.199 229.61 139.36 229.405 139.523C229.204 139.686 229.05 139.845 228.943 139.999C228.84 140.148 228.784 140.286 228.775 140.412H231.533V141H228.033Z" fill="#2F6FF0"/>
<rect x="241.541" y="131.208" width="15.5833" height="15.5833" rx="2.01389" fill="#D9E2FE"/>
<rect x="241.541" y="131.208" width="15.5833" height="15.5833" rx="2.01389" stroke="#2F6FF0" stroke-width="0.416666"/>
<path d="M245.416 141V136.03H246.592C247.021 136.03 247.394 136.128 247.712 136.324C248.034 136.515 248.281 136.798 248.454 137.171C248.631 137.54 248.72 137.99 248.72 138.522C248.72 139.054 248.631 139.504 248.454 139.873C248.281 140.242 248.034 140.522 247.712 140.713C247.394 140.904 247.021 141 246.592 141H245.416ZM246.018 140.412H246.557C247.042 140.412 247.418 140.256 247.684 139.943C247.954 139.626 248.09 139.152 248.09 138.522C248.09 137.892 247.954 137.418 247.684 137.101C247.418 136.779 247.042 136.618 246.557 136.618H246.018V140.412ZM251.741 141.112C251.204 141.112 250.791 140.984 250.502 140.727C250.213 140.466 250.056 140.13 250.033 139.719L250.656 139.677C250.684 139.98 250.796 140.197 250.992 140.328C251.193 140.459 251.442 140.524 251.741 140.524C251.942 140.524 252.131 140.496 252.308 140.44C252.485 140.379 252.628 140.284 252.735 140.153C252.847 140.018 252.903 139.838 252.903 139.614C252.903 139.395 252.854 139.215 252.756 139.075C252.658 138.93 252.523 138.825 252.35 138.76C252.182 138.69 251.991 138.655 251.776 138.655H251.384V138.067H251.776C251.949 138.067 252.107 138.041 252.252 137.99C252.397 137.939 252.511 137.857 252.595 137.745C252.684 137.628 252.728 137.477 252.728 137.29C252.728 137.033 252.646 136.84 252.483 136.709C252.32 136.574 252.084 136.506 251.776 136.506C251.463 136.506 251.225 136.569 251.062 136.695C250.903 136.821 250.808 136.994 250.775 137.213L250.145 137.171C250.192 136.798 250.355 136.497 250.635 136.268C250.915 136.035 251.295 135.918 251.776 135.918C252.098 135.918 252.378 135.974 252.616 136.086C252.854 136.193 253.036 136.347 253.162 136.548C253.293 136.749 253.358 136.987 253.358 137.262C253.358 137.57 253.26 137.82 253.064 138.011C252.873 138.198 252.588 138.326 252.21 138.396V138.27C252.616 138.317 252.938 138.461 253.176 138.704C253.414 138.947 253.533 139.25 253.533 139.614C253.533 139.931 253.456 140.202 253.302 140.426C253.148 140.65 252.936 140.82 252.665 140.937C252.394 141.054 252.086 141.112 251.741 141.112Z" fill="#2F6FF0"/>
<rect x="208.541" y="155.208" width="15.5833" height="15.5833" rx="2.01389" fill="#D9E2FE"/>
<rect x="208.541" y="155.208" width="15.5833" height="15.5833" rx="2.01389" stroke="#2F6FF0" stroke-width="0.416666"/>
<path d="M212.416 165V160.03H213.592C214.021 160.03 214.394 160.128 214.712 160.324C215.034 160.515 215.281 160.798 215.454 161.171C215.631 161.54 215.72 161.99 215.72 162.522C215.72 163.054 215.631 163.504 215.454 163.873C215.281 164.242 215.034 164.522 214.712 164.713C214.394 164.904 214.021 165 213.592 165H212.416ZM213.018 164.412H213.557C214.042 164.412 214.418 164.256 214.684 163.943C214.954 163.626 215.09 163.152 215.09 162.522C215.09 161.892 214.954 161.418 214.684 161.101C214.418 160.779 214.042 160.618 213.557 160.618H213.018V164.412ZM219.399 165V163.922H216.963V163.376L219.357 160.03H220.001V163.334H220.603V163.922H220.001V165H219.399ZM217.579 163.334H219.399V160.87L217.579 163.334Z" fill="#2F6FF0"/>
<rect x="230.541" y="155.208" width="15.5833" height="15.5833" rx="2.01389" fill="#D9E2FE"/>
<rect x="230.541" y="155.208" width="15.5833" height="15.5833" rx="2.01389" stroke="#2F6FF0" stroke-width="0.416666"/>
<path d="M234.416 165V160.03H235.592C236.021 160.03 236.394 160.128 236.712 160.324C237.034 160.515 237.281 160.798 237.454 161.171C237.631 161.54 237.72 161.99 237.72 162.522C237.72 163.054 237.631 163.504 237.454 163.873C237.281 164.242 237.034 164.522 236.712 164.713C236.394 164.904 236.021 165 235.592 165H234.416ZM235.018 164.412H235.557C236.042 164.412 236.418 164.256 236.684 163.943C236.954 163.626 237.09 163.152 237.09 162.522C237.09 161.892 236.954 161.418 236.684 161.101C236.418 160.779 236.042 160.618 235.557 160.618H235.018V164.412ZM239.173 165V160.03H240.027L241.791 164.314V160.03H242.393V165H241.539L239.775 160.716V165H239.173Z" fill="#2F6FF0"/>
</g>
<g filter="url(#filter3_dddd_11450_41345)">
<rect x="140.5" y="72" width="70" height="19" rx="5" fill="#F0F3FA"/>
<rect x="141" y="72.5" width="69" height="18" rx="4.5" stroke="#D4D9E6"/>
<path d="M151.274 84V78.32H153.002C153.599 78.32 154.071 78.472 154.418 78.776C154.765 79.0747 154.938 79.488 154.938 80.016C154.938 80.2827 154.877 80.52 154.754 80.728C154.631 80.9307 154.474 81.0907 154.282 81.208C154.09 81.3253 153.893 81.392 153.69 81.408L153.658 81.312C154.037 81.3333 154.319 81.424 154.506 81.584C154.698 81.744 154.81 82.0053 154.842 82.368L154.986 84H154.298L154.162 82.456C154.146 82.28 154.103 82.1387 154.034 82.032C153.97 81.92 153.866 81.84 153.722 81.792C153.583 81.7387 153.391 81.712 153.146 81.712H151.962V84H151.274ZM151.962 81.04H153.002C153.397 81.04 153.698 80.952 153.906 80.776C154.114 80.5947 154.218 80.3413 154.218 80.016C154.218 79.6853 154.114 79.432 153.906 79.256C153.698 79.08 153.397 78.992 153.002 78.992H151.962V81.04ZM157.031 84V78.32H160.487V78.992H157.719V80.824H160.391V81.48H157.719V83.328H160.551V84H157.031ZM162.468 84V78.32H164.196C164.793 78.32 165.265 78.472 165.612 78.776C165.958 79.0747 166.132 79.488 166.132 80.016C166.132 80.2827 166.07 80.52 165.948 80.728C165.825 80.9307 165.668 81.0907 165.476 81.208C165.284 81.3253 165.086 81.392 164.884 81.408L164.852 81.312C165.23 81.3333 165.513 81.424 165.7 81.584C165.892 81.744 166.004 82.0053 166.036 82.368L166.18 84H165.492L165.356 82.456C165.34 82.28 165.297 82.1387 165.228 82.032C165.164 81.92 165.06 81.84 164.916 81.792C164.777 81.7387 164.585 81.712 164.34 81.712H163.156V84H162.468ZM163.156 81.04H164.196C164.59 81.04 164.892 80.952 165.1 80.776C165.308 80.5947 165.412 80.3413 165.412 80.016C165.412 79.6853 165.308 79.432 165.1 79.256C164.892 79.08 164.59 78.992 164.196 78.992H163.156V81.04ZM167.713 84L169.441 78.32H170.369L172.097 84H171.361L169.905 78.944L168.449 84H167.713ZM168.585 82.384L168.825 81.712H170.985L171.225 82.384H168.585ZM173.662 84V78.32H174.638L176.654 83.216V78.32H177.342V84H176.366L174.35 79.104V84H173.662ZM179.786 82.192V81.264L182.25 78.32H183.098L179.786 82.192ZM179.178 84V78.32H179.866V84H179.178ZM182.33 84L180.346 81.12L180.826 80.624L183.178 84H182.33ZM184.935 84V83.328H186.351V78.992H184.935V78.32H188.455V78.992H187.039V83.328H188.455V84H184.935ZM190.452 84V78.32H191.428L193.444 83.216V78.32H194.132V84H193.156L191.14 79.104V84H190.452ZM197.873 84.128C197.473 84.128 197.116 84.0187 196.801 83.8C196.492 83.576 196.246 83.2453 196.065 82.808C195.884 82.3653 195.793 81.8187 195.793 81.168C195.793 80.5547 195.876 80.0267 196.041 79.584C196.212 79.1413 196.454 78.8 196.769 78.56C197.084 78.3147 197.462 78.192 197.905 78.192C198.252 78.192 198.558 78.2693 198.825 78.424C199.097 78.5787 199.324 78.7947 199.505 79.072C199.686 79.344 199.817 79.6587 199.897 80.016L199.177 80.064C199.086 79.712 198.934 79.424 198.721 79.2C198.513 78.976 198.241 78.864 197.905 78.864C197.612 78.864 197.361 78.9547 197.153 79.136C196.945 79.312 196.785 79.5733 196.673 79.92C196.566 80.2613 196.513 80.6773 196.513 81.168C196.513 81.6533 196.569 82.0667 196.681 82.408C196.793 82.7493 196.953 83.0107 197.161 83.192C197.374 83.368 197.633 83.456 197.937 83.456C198.209 83.456 198.441 83.3867 198.633 83.248C198.83 83.104 198.985 82.9067 199.097 82.656C199.209 82.4 199.27 82.1093 199.281 81.784H197.921V81.128H199.921V84H199.281L199.249 82.656L199.441 82.72C199.366 82.992 199.262 83.2347 199.129 83.448C199.001 83.6613 198.833 83.8293 198.625 83.952C198.422 84.0693 198.172 84.128 197.873 84.128Z" fill="#3D4866"/>
</g>
<path d="M175.5 96L175.5 108" stroke="url(#paint2_linear_11450_41345)"/>
<path d="M178.011 95.5217L175.5 98.0108L173.011 95.4999L175.522 93.0108L178.011 95.5217Z" fill="url(#paint3_linear_11450_41345)"/>
<path d="M178.011 52.5217L175.5 55.0108L173.011 52.4999L175.522 50.0108L178.011 52.5217Z" fill="url(#paint4_linear_11450_41345)"/>
<path d="M175.5 53L175.5 71" stroke="url(#paint5_linear_11450_41345)"/>
<path d="M122 121.5V112C122 109.791 123.791 108 126 108H225.5C227.709 108 229.5 109.791 229.5 112V121.5" stroke="url(#paint6_linear_11450_41345)"/>
</g>
<defs>
<filter id="filter0_dddd_11450_41345" x="127.889" y="14" width="119" height="61" filterUnits="userSpaceOnUse" color-interpolation-filters="sRGB">
<feFlood flood-opacity="0" result="BackgroundImageFix"/>
<feColorMatrix in="SourceAlpha" type="matrix" values="0 0 0 0 0 0 0 0 0 0 0 0 0 0 0 0 0 0 127 0" result="hardAlpha"/>
<feOffset dx="1" dy="1"/>
<feGaussianBlur stdDeviation="1.5"/>
<feColorMatrix type="matrix" values="0 0 0 0 0 0 0 0 0 0 0 0 0 0 0 0 0 0 0.1 0"/>
<feBlend mode="normal" in2="BackgroundImageFix" result="effect1_dropShadow_11450_41345"/>
<feColorMatrix in="SourceAlpha" type="matrix" values="0 0 0 0 0 0 0 0 0 0 0 0 0 0 0 0 0 0 127 0" result="hardAlpha"/>
<feOffset dx="4" dy="4"/>
<feGaussianBlur stdDeviation="3"/>
<feColorMatrix type="matrix" values="0 0 0 0 0 0 0 0 0 0 0 0 0 0 0 0 0 0 0.09 0"/>
<feBlend mode="normal" in2="effect1_dropShadow_11450_41345" result="effect2_dropShadow_11450_41345"/>
<feColorMatrix in="SourceAlpha" type="matrix" values="0 0 0 0 0 0 0 0 0 0 0 0 0 0 0 0 0 0 127 0" result="hardAlpha"/>
<feOffset dx="10" dy="10"/>
<feGaussianBlur stdDeviation="4"/>
<feColorMatrix type="matrix" values="0 0 0 0 0 0 0 0 0 0 0 0 0 0 0 0 0 0 0.05 0"/>
<feBlend mode="normal" in2="effect2_dropShadow_11450_41345" result="effect3_dropShadow_11450_41345"/>
<feColorMatrix in="SourceAlpha" type="matrix" values="0 0 0 0 0 0 0 0 0 0 0 0 0 0 0 0 0 0 127 0" result="hardAlpha"/>
<feOffset dx="17" dy="17"/>
<feGaussianBlur stdDeviation="5"/>
<feColorMatrix type="matrix" values="0 0 0 0 0 0 0 0 0 0 0 0 0 0 0 0 0 0 0.01 0"/>
<feBlend mode="normal" in2="effect3_dropShadow_11450_41345" result="effect4_dropShadow_11450_41345"/>
<feBlend mode="normal" in="SourceGraphic" in2="effect4_dropShadow_11450_41345" result="shape"/>
</filter>
<filter id="filter1_dddd_11450_41345" x="81.333" y="122" width="109" height="83" filterUnits="userSpaceOnUse" color-interpolation-filters="sRGB">
<feFlood flood-opacity="0" result="BackgroundImageFix"/>
<feColorMatrix in="SourceAlpha" type="matrix" values="0 0 0 0 0 0 0 0 0 0 0 0 0 0 0 0 0 0 127 0" result="hardAlpha"/>
<feOffset dx="1" dy="1"/>
<feGaussianBlur stdDeviation="1.5"/>
<feColorMatrix type="matrix" values="0 0 0 0 0 0 0 0 0 0 0 0 0 0 0 0 0 0 0.1 0"/>
<feBlend mode="normal" in2="BackgroundImageFix" result="effect1_dropShadow_11450_41345"/>
<feColorMatrix in="SourceAlpha" type="matrix" values="0 0 0 0 0 0 0 0 0 0 0 0 0 0 0 0 0 0 127 0" result="hardAlpha"/>
<feOffset dx="4" dy="4"/>
<feGaussianBlur stdDeviation="3"/>
<feColorMatrix type="matrix" values="0 0 0 0 0 0 0 0 0 0 0 0 0 0 0 0 0 0 0.09 0"/>
<feBlend mode="normal" in2="effect1_dropShadow_11450_41345" result="effect2_dropShadow_11450_41345"/>
<feColorMatrix in="SourceAlpha" type="matrix" values="0 0 0 0 0 0 0 0 0 0 0 0 0 0 0 0 0 0 127 0" result="hardAlpha"/>
<feOffset dx="10" dy="10"/>
<feGaussianBlur stdDeviation="4"/>
<feColorMatrix type="matrix" values="0 0 0 0 0 0 0 0 0 0 0 0 0 0 0 0 0 0 0.05 0"/>
<feBlend mode="normal" in2="effect2_dropShadow_11450_41345" result="effect3_dropShadow_11450_41345"/>
<feColorMatrix in="SourceAlpha" type="matrix" values="0 0 0 0 0 0 0 0 0 0 0 0 0 0 0 0 0 0 127 0" result="hardAlpha"/>
<feOffset dx="17" dy="17"/>
<feGaussianBlur stdDeviation="5"/>
<feColorMatrix type="matrix" values="0 0 0 0 0 0 0 0 0 0 0 0 0 0 0 0 0 0 0.01 0"/>
<feBlend mode="normal" in2="effect3_dropShadow_11450_41345" result="effect4_dropShadow_11450_41345"/>
<feBlend mode="normal" in="SourceGraphic" in2="effect4_dropShadow_11450_41345" result="shape"/>
</filter>
<filter id="filter2_dddd_11450_41345" x="185.333" y="122" width="109" height="83" filterUnits="userSpaceOnUse" color-interpolation-filters="sRGB">
<feFlood flood-opacity="0" result="BackgroundImageFix"/>
<feColorMatrix in="SourceAlpha" type="matrix" values="0 0 0 0 0 0 0 0 0 0 0 0 0 0 0 0 0 0 127 0" result="hardAlpha"/>
<feOffset dx="1" dy="1"/>
<feGaussianBlur stdDeviation="1.5"/>
<feColorMatrix type="matrix" values="0 0 0 0 0 0 0 0 0 0 0 0 0 0 0 0 0 0 0.1 0"/>
<feBlend mode="normal" in2="BackgroundImageFix" result="effect1_dropShadow_11450_41345"/>
<feColorMatrix in="SourceAlpha" type="matrix" values="0 0 0 0 0 0 0 0 0 0 0 0 0 0 0 0 0 0 127 0" result="hardAlpha"/>
<feOffset dx="4" dy="4"/>
<feGaussianBlur stdDeviation="3"/>
<feColorMatrix type="matrix" values="0 0 0 0 0 0 0 0 0 0 0 0 0 0 0 0 0 0 0.09 0"/>
<feBlend mode="normal" in2="effect1_dropShadow_11450_41345" result="effect2_dropShadow_11450_41345"/>
<feColorMatrix in="SourceAlpha" type="matrix" values="0 0 0 0 0 0 0 0 0 0 0 0 0 0 0 0 0 0 127 0" result="hardAlpha"/>
<feOffset dx="10" dy="10"/>
<feGaussianBlur stdDeviation="4"/>
<feColorMatrix type="matrix" values="0 0 0 0 0 0 0 0 0 0 0 0 0 0 0 0 0 0 0.05 0"/>
<feBlend mode="normal" in2="effect2_dropShadow_11450_41345" result="effect3_dropShadow_11450_41345"/>
<feColorMatrix in="SourceAlpha" type="matrix" values="0 0 0 0 0 0 0 0 0 0 0 0 0 0 0 0 0 0 127 0" result="hardAlpha"/>
<feOffset dx="17" dy="17"/>
<feGaussianBlur stdDeviation="5"/>
<feColorMatrix type="matrix" values="0 0 0 0 0 0 0 0 0 0 0 0 0 0 0 0 0 0 0.01 0"/>
<feBlend mode="normal" in2="effect3_dropShadow_11450_41345" result="effect4_dropShadow_11450_41345"/>
<feBlend mode="normal" in="SourceGraphic" in2="effect4_dropShadow_11450_41345" result="shape"/>
</filter>
<filter id="filter3_dddd_11450_41345" x="138.5" y="70" width="99" height="48" filterUnits="userSpaceOnUse" color-interpolation-filters="sRGB">
<feFlood flood-opacity="0" result="BackgroundImageFix"/>
<feColorMatrix in="SourceAlpha" type="matrix" values="0 0 0 0 0 0 0 0 0 0 0 0 0 0 0 0 0 0 127 0" result="hardAlpha"/>
<feOffset dx="1" dy="1"/>
<feGaussianBlur stdDeviation="1.5"/>
<feColorMatrix type="matrix" values="0 0 0 0 0 0 0 0 0 0 0 0 0 0 0 0 0 0 0.1 0"/>
<feBlend mode="normal" in2="BackgroundImageFix" result="effect1_dropShadow_11450_41345"/>
<feColorMatrix in="SourceAlpha" type="matrix" values="0 0 0 0 0 0 0 0 0 0 0 0 0 0 0 0 0 0 127 0" result="hardAlpha"/>
<feOffset dx="4" dy="4"/>
<feGaussianBlur stdDeviation="3"/>
<feColorMatrix type="matrix" values="0 0 0 0 0 0 0 0 0 0 0 0 0 0 0 0 0 0 0.09 0"/>
<feBlend mode="normal" in2="effect1_dropShadow_11450_41345" result="effect2_dropShadow_11450_41345"/>
<feColorMatrix in="SourceAlpha" type="matrix" values="0 0 0 0 0 0 0 0 0 0 0 0 0 0 0 0 0 0 127 0" result="hardAlpha"/>
<feOffset dx="10" dy="10"/>
<feGaussianBlur stdDeviation="4"/>
<feColorMatrix type="matrix" values="0 0 0 0 0 0 0 0 0 0 0 0 0 0 0 0 0 0 0.05 0"/>
<feBlend mode="normal" in2="effect2_dropShadow_11450_41345" result="effect3_dropShadow_11450_41345"/>
<feColorMatrix in="SourceAlpha" type="matrix" values="0 0 0 0 0 0 0 0 0 0 0 0 0 0 0 0 0 0 127 0" result="hardAlpha"/>
<feOffset dx="17" dy="17"/>
<feGaussianBlur stdDeviation="5"/>
<feColorMatrix type="matrix" values="0 0 0 0 0 0 0 0 0 0 0 0 0 0 0 0 0 0 0.01 0"/>
<feBlend mode="normal" in2="effect3_dropShadow_11450_41345" result="effect4_dropShadow_11450_41345"/>
<feBlend mode="normal" in="SourceGraphic" in2="effect4_dropShadow_11450_41345" result="shape"/>
</filter>
<linearGradient id="paint0_linear_11450_41345" x1="175" y1="158" x2="175" y2="194" gradientUnits="userSpaceOnUse">
<stop stop-color="#F0F3FA" stop-opacity="0.08"/>
<stop offset="1" stop-color="#F0F3FA"/>
</linearGradient>
<linearGradient id="paint1_linear_11450_41345" x1="94" y1="86.5" x2="-7.61318" y2="27.443" gradientUnits="userSpaceOnUse">
<stop stop-color="#F0F3FA" stop-opacity="0.08"/>
<stop offset="0.620921" stop-color="#F0F3FA"/>
</linearGradient>
<linearGradient id="paint2_linear_11450_41345" x1="175.5" y1="105.375" x2="175.5" y2="108.375" gradientUnits="userSpaceOnUse">
<stop stop-color="#DC244C"/>
<stop offset="1" stop-color="#DC244C" stop-opacity="0.1"/>
</linearGradient>
<linearGradient id="paint3_linear_11450_41345" x1="178.011" y1="95.5217" x2="173.011" y2="95.4999" gradientUnits="userSpaceOnUse">
<stop stop-color="#DC244C"/>
<stop offset="1" stop-color="#BE003A"/>
</linearGradient>
<linearGradient id="paint4_linear_11450_41345" x1="178.011" y1="52.5217" x2="173.011" y2="52.4999" gradientUnits="userSpaceOnUse">
<stop stop-color="#DC244C"/>
<stop offset="1" stop-color="#BE003A"/>
</linearGradient>
<linearGradient id="paint5_linear_11450_41345" x1="175.5" y1="62" x2="175.5" y2="72.2857" gradientUnits="userSpaceOnUse">
<stop stop-color="#DC244C"/>
<stop offset="1" stop-color="#DC244C" stop-opacity="0"/>
</linearGradient>
<linearGradient id="paint6_linear_11450_41345" x1="176" y1="103.5" x2="176" y2="124.5" gradientUnits="userSpaceOnUse">
<stop stop-color="#DC244C" stop-opacity="0.08"/>
<stop offset="0.276613" stop-color="#DC244C"/>
<stop offset="0.596154" stop-color="#DC244C"/>
<stop offset="1" stop-color="#DC244C" stop-opacity="0.1"/>
</linearGradient>
<clipPath id="clip0_11450_41345">
<rect width="350" height="194" fill="white"/>
</clipPath>
<pattern id="pattern0_11450_41345" patternUnits="userSpaceOnUse" patternTransform="matrix(6.72 0 0 6.72 0 0)" preserveAspectRatio="none" viewBox="0 0 56 56" width="1" height="1">
<g id="pattern0_11450_41345_inner">
<circle cx="4" cy="4" r="4" fill="#717C99"/>
</g>
</pattern></defs>
</svg>
