<svg xmlns="http://www.w3.org/2000/svg" width="350" height="144" fill="none" viewBox="0 0 350 144"><path fill="#f0f3fa" d="M0 0h350v144H0z"/><g stroke="#d4d9e6" stroke-width=".2" clip-path="url(#a)"><circle cx="175" cy="-7" r="15.9"/><circle cx="175" cy="-7" r="23.9"/><circle cx="175" cy="-7" r="31.9"/><circle cx="175" cy="-7" r="39.9"/><circle cx="175" cy="-7" r="47.9"/><circle cx="175" cy="-7" r="55.9"/><circle cx="175" cy="-7" r="63.9"/><circle cx="175" cy="-7" r="71.9"/><circle cx="175" cy="-7" r="79.9"/><circle cx="175" cy="-7" r="87.9"/><circle cx="175" cy="-7" r="95.9"/><circle cx="175" cy="-7" r="103.9"/><circle cx="175" cy="-7" r="111.9"/><circle cx="175" cy="-7" r="119.9"/><circle cx="175" cy="-7" r="127.9"/><circle cx="175" cy="-7" r="135.9"/><circle cx="175" cy="-7" r="143.9"/><circle cx="175" cy="-7" r="151.9"/><circle cx="175" cy="-7" r="159.9"/><circle cx="175" cy="-7" r="167.9"/><circle cx="175" cy="-7" r="175.9"/><circle cx="175" cy="-7" r="183.9"/><circle cx="175" cy="-7" r="191.9"/><circle cx="175" cy="-7" r="199.9"/><circle cx="175" cy="-7" r="207.9"/><circle cx="175" cy="-7" r="215.9"/></g><g filter="url(#b)"><path fill="#f0f3fa" d="M115 112c22.091 0 40-17.909 40-40s-17.909-40-40-40-40 17.909-40 40 17.909 40 40 40"/><path stroke="#d4d9e6" d="M115 32.5c21.815 0 39.5 17.685 39.5 39.5s-17.685 39.5-39.5 39.5S75.5 93.815 75.5 72 93.185 32.5 115 32.5Z"/></g><path fill="#8f98b3" d="M99.717 62.112h-5.644l-1.281 3.491h-1.1l4.703-12.431h1l4.704 12.432h-1.094zm-5.318-.887h4.986l-2.494-6.772-2.495 6.772zm10.633 4.38h-1.05V53.173h1.05zm12.006-3.875q-.213 1.962-1.405 3.005-1.193 1.04-3.173 1.04-1.383 0-2.446-.692-1.062-.69-1.644-1.96-.581-1.267-.589-2.9V58.61q0-1.656.58-2.936.582-1.28 1.669-1.976 1.09-.696 2.506-.697 1.998 0 3.154 1.075 1.156 1.076 1.346 2.98h-1.059q-.394-3.167-3.441-3.168-1.691 0-2.694 1.266-1.004 1.264-1.004 3.496v1.522q0 2.153.977 3.434t2.643 1.281c1.109 0 1.925-.264 2.485-.79q.837-.791 1.034-2.371h1.059zm3.421-1.188v5.064h-1.05V53.174h4.234q1.94 0 3.061.99 1.123.99 1.123 2.724c0 1.155-.36 2.068-1.08 2.703q-1.08.952-3.129.951zm0-.887h3.184q1.527 0 2.332-.727.802-.726.802-2.026c0-.867-.266-1.548-.798-2.056q-.798-.766-2.267-.782h-3.253v5.593zm15.078 2.457h-5.643l-1.282 3.491h-1.1l4.704-12.431h.999l4.704 12.432h-1.093zm-5.32-.887h4.986l-2.494-6.772-2.495 6.772z"/><path stroke="#8f98b3" stroke-linecap="round" stroke-linejoin="round" d="M91 71.775h48"/><path fill="#8f98b3" d="M106.814 87.326q0-1.032-.726-1.634t-2.655-1.144q-1.93-.544-2.817-1.183-1.264-.905-1.263-2.373c0-.979.392-1.724 1.173-2.318q1.174-.89 3.001-.891 1.238 0 2.217.479.977.478 1.515 1.332.538.852.539 1.905h-1.059q0-1.275-.871-2.052-.87-.776-2.341-.775c-.981 0-1.708.213-2.272.638q-.846.635-.846 1.664 0 .948.759 1.547.76.599 2.432 1.057 1.674.457 2.536.949t1.297 1.174q.436.683.436 1.614 0 1.468-1.174 2.356t-3.095.887q-1.314 0-2.411-.47t-1.664-1.315q-.569-.846-.569-1.938h1.05q0 1.314.981 2.075.98.76 2.613.759 1.452 0 2.332-.64.88-.639.88-1.698zm12.337-2.486q0 1.716-.594 3.014-.593 1.298-1.694 2-1.1.7-2.544.698-2.179 0-3.517-1.558-1.341-1.56-1.341-4.205v-1.281q0-1.698.603-3.01.602-1.31 1.703-2.015 1.102-.704 2.535-.704t2.531.693q1.097.69 1.694 1.955.598 1.264.624 2.93v1.485zm-1.05-1.35q0-2.246-1.016-3.52-1.016-1.271-2.783-1.272c-1.178 0-2.076.427-2.762 1.277q-1.028 1.276-1.029 3.565v1.298q0 2.212 1.025 3.505t2.783 1.293c1.171 0 2.118-.427 2.782-1.277q1.001-1.275 1-3.556v-1.316zm12.32 3.015q-.213 1.963-1.405 3.005-1.194 1.041-3.173 1.04-1.383 0-2.446-.691-1.062-.691-1.644-1.96-.581-1.268-.589-2.9v-1.614q0-1.658.58-2.937.582-1.28 1.669-1.976 1.09-.696 2.505-.697 1.999 0 3.155 1.075 1.155 1.076 1.345 2.98h-1.059q-.392-3.166-3.441-3.168-1.69 0-2.693 1.266-1.004 1.265-1.004 3.496v1.522q0 2.154.976 3.434.978 1.282 2.644 1.282c1.109 0 1.925-.264 2.485-.791q.837-.79 1.033-2.37h1.059z"/><g filter="url(#c)"><circle cx="235" cy="72" r="40" fill="#f0f3fa"/><circle cx="235" cy="72" r="39.5" stroke="#d4d9e6"/></g><path fill="#b4bacc" d="M249.785 74.187h-1.222v4.454h-2.461V66.453h3.926q1.85 0 2.854.963 1.013.954 1.013 2.72 0 2.427-1.766 3.398l2.134 4.99v.117h-2.645zm-1.222-2.05h1.398q.736 0 1.105-.486.368-.494.368-1.314 0-1.833-1.431-1.833h-1.44zm-9.768 2.218v4.286h-2.461V66.453h4.152q1.808 0 2.879 1.122 1.08 1.121 1.08 2.913t-1.063 2.829-2.947 1.038zm0-2.05h1.691q.702 0 1.088-.461.384-.46.385-1.34 0-.912-.394-1.448a1.26 1.26 0 0 0-1.054-.552h-1.716zm-12.154 6.335V66.454h3.222q2.135 0 3.399 1.356 1.272 1.356 1.297 3.717V73.5q0 2.403-1.272 3.775-1.264 1.365-3.491 1.365zm2.461-10.136v8.094h.736q1.23 0 1.733-.644.502-.653.527-2.244v-2.117q0-1.708-.477-2.378-.477-.678-1.624-.711zM224.9 77.26a4.5 4.5 0 0 1-1.75 1.163 6.4 6.4 0 0 1-2.26.385q-2.102 0-3.264-1.298-1.164-1.305-1.197-3.791v-2.193q0-2.52 1.096-3.876 1.105-1.364 3.214-1.364 1.984 0 2.989.979 1.013.98 1.172 3.072h-2.394q-.1-1.164-.486-1.582-.385-.427-1.205-.427-.996 0-1.448.728-.453.729-.469 2.319v2.21q0 1.666.494 2.427.502.753 1.64.754.728 0 1.181-.293l.217-.151v-2.235h-1.724v-1.858h4.194zM234.5 37l1.01 3.11h3.27l-2.645 1.921 1.01 3.11-2.645-1.922-2.645 1.922 1.01-3.11-2.645-1.922h3.27zm17 5 1.01 3.11h3.27l-2.645 1.921 1.01 3.11-2.645-1.922-2.645 1.922 1.01-3.11-2.645-1.922h3.27zm10 11 1.01 3.11h3.27l-2.645 1.921 1.01 3.11-2.645-1.922-2.645 1.922 1.01-3.11-2.645-1.922h3.27zm4 14 1.01 3.11h3.27l-2.645 1.921 1.01 3.11-2.645-1.922-2.645 1.922 1.01-3.11-2.645-1.922h3.27zm-4 15 1.01 3.11h3.27l-2.645 1.921 1.01 3.11-2.645-1.922-2.645 1.922 1.01-3.11-2.645-1.922h3.27zm-10 12 1.01 3.11h3.27l-2.645 1.921 1.01 3.11-2.645-1.922-2.645 1.922 1.01-3.11-2.645-1.922h3.27zm-17 5 1.01 3.109h3.27l-2.645 1.922 1.01 3.11-2.645-1.922-2.645 1.922 1.01-3.11-2.645-1.922h3.27zm-16-5 1.01 3.11h3.27l-2.645 1.921 1.01 3.11-2.645-1.922-2.645 1.922 1.01-3.11-2.645-1.922h3.27zm-10-12 1.01 3.11h3.27l-2.645 1.921 1.01 3.11-2.645-1.922-2.645 1.922 1.01-3.11-2.645-1.922h3.27zm0-29 1.01 3.11h3.27l-2.645 1.921 1.01 3.11-2.645-1.922-2.645 1.922 1.01-3.11-2.645-1.922h3.27zm10-11 1.01 3.11h3.27l-2.645 1.921 1.01 3.11-2.645-1.922-2.645 1.922 1.01-3.11-2.645-1.922h3.27zm-14 25 1.01 3.11h3.27l-2.645 1.921 1.01 3.11-2.645-1.922-2.645 1.922 1.01-3.11-2.645-1.922h3.27z"/><defs><filter id="b" width="109" height="109" x="73" y="30" color-interpolation-filters="sRGB" filterUnits="userSpaceOnUse"><feFlood flood-opacity="0" result="BackgroundImageFix"/><feColorMatrix in="SourceAlpha" result="hardAlpha" values="0 0 0 0 0 0 0 0 0 0 0 0 0 0 0 0 0 0 127 0"/><feOffset dx="1" dy="1"/><feGaussianBlur stdDeviation="1.5"/><feColorMatrix values="0 0 0 0 0 0 0 0 0 0 0 0 0 0 0 0 0 0 0.1 0"/><feBlend in2="BackgroundImageFix" result="effect1_dropShadow_14355_4323"/><feColorMatrix in="SourceAlpha" result="hardAlpha" values="0 0 0 0 0 0 0 0 0 0 0 0 0 0 0 0 0 0 127 0"/><feOffset dx="4" dy="4"/><feGaussianBlur stdDeviation="3"/><feColorMatrix values="0 0 0 0 0 0 0 0 0 0 0 0 0 0 0 0 0 0 0.09 0"/><feBlend in2="effect1_dropShadow_14355_4323" result="effect2_dropShadow_14355_4323"/><feColorMatrix in="SourceAlpha" result="hardAlpha" values="0 0 0 0 0 0 0 0 0 0 0 0 0 0 0 0 0 0 127 0"/><feOffset dx="10" dy="10"/><feGaussianBlur stdDeviation="4"/><feColorMatrix values="0 0 0 0 0 0 0 0 0 0 0 0 0 0 0 0 0 0 0.05 0"/><feBlend in2="effect2_dropShadow_14355_4323" result="effect3_dropShadow_14355_4323"/><feColorMatrix in="SourceAlpha" result="hardAlpha" values="0 0 0 0 0 0 0 0 0 0 0 0 0 0 0 0 0 0 127 0"/><feOffset dx="17" dy="17"/><feGaussianBlur stdDeviation="5"/><feColorMatrix values="0 0 0 0 0 0 0 0 0 0 0 0 0 0 0 0 0 0 0.01 0"/><feBlend in2="effect3_dropShadow_14355_4323" result="effect4_dropShadow_14355_4323"/><feBlend in="SourceGraphic" in2="effect4_dropShadow_14355_4323" result="shape"/></filter><filter id="c" width="109" height="109" x="193" y="30" color-interpolation-filters="sRGB" filterUnits="userSpaceOnUse"><feFlood flood-opacity="0" result="BackgroundImageFix"/><feColorMatrix in="SourceAlpha" result="hardAlpha" values="0 0 0 0 0 0 0 0 0 0 0 0 0 0 0 0 0 0 127 0"/><feOffset dx="1" dy="1"/><feGaussianBlur stdDeviation="1.5"/><feColorMatrix values="0 0 0 0 0 0 0 0 0 0 0 0 0 0 0 0 0 0 0.1 0"/><feBlend in2="BackgroundImageFix" result="effect1_dropShadow_14355_4323"/><feColorMatrix in="SourceAlpha" result="hardAlpha" values="0 0 0 0 0 0 0 0 0 0 0 0 0 0 0 0 0 0 127 0"/><feOffset dx="4" dy="4"/><feGaussianBlur stdDeviation="3"/><feColorMatrix values="0 0 0 0 0 0 0 0 0 0 0 0 0 0 0 0 0 0 0.09 0"/><feBlend in2="effect1_dropShadow_14355_4323" result="effect2_dropShadow_14355_4323"/><feColorMatrix in="SourceAlpha" result="hardAlpha" values="0 0 0 0 0 0 0 0 0 0 0 0 0 0 0 0 0 0 127 0"/><feOffset dx="10" dy="10"/><feGaussianBlur stdDeviation="4"/><feColorMatrix values="0 0 0 0 0 0 0 0 0 0 0 0 0 0 0 0 0 0 0.05 0"/><feBlend in2="effect2_dropShadow_14355_4323" result="effect3_dropShadow_14355_4323"/><feColorMatrix in="SourceAlpha" result="hardAlpha" values="0 0 0 0 0 0 0 0 0 0 0 0 0 0 0 0 0 0 127 0"/><feOffset dx="17" dy="17"/><feGaussianBlur stdDeviation="5"/><feColorMatrix values="0 0 0 0 0 0 0 0 0 0 0 0 0 0 0 0 0 0 0.01 0"/><feBlend in2="effect3_dropShadow_14355_4323" result="effect4_dropShadow_14355_4323"/><feBlend in="SourceGraphic" in2="effect4_dropShadow_14355_4323" result="shape"/></filter><clipPath id="a"><path fill="#fff" d="M0 0h350v144H0z"/></clipPath></defs></svg>