<svg width="350" height="144" viewBox="0 0 350 144" fill="none" xmlns="http://www.w3.org/2000/svg">
<rect width="350" height="144" fill="#F0F3FA"/>
<g clip-path="url(#clip0_14355_4323)">
<circle cx="175" cy="-7" r="15.9" stroke="#D4D9E6" stroke-width="0.2"/>
<circle cx="175" cy="-7" r="23.9" stroke="#D4D9E6" stroke-width="0.2"/>
<circle cx="175" cy="-7" r="31.9" stroke="#D4D9E6" stroke-width="0.2"/>
<circle cx="175" cy="-7" r="39.9" stroke="#D4D9E6" stroke-width="0.2"/>
<circle cx="175" cy="-7" r="47.9" stroke="#D4D9E6" stroke-width="0.2"/>
<circle cx="175" cy="-7" r="55.9" stroke="#D4D9E6" stroke-width="0.2"/>
<circle cx="175" cy="-7" r="63.9" stroke="#D4D9E6" stroke-width="0.2"/>
<circle cx="175" cy="-7" r="71.9" stroke="#D4D9E6" stroke-width="0.2"/>
<circle cx="175" cy="-7" r="79.9" stroke="#D4D9E6" stroke-width="0.2"/>
<circle cx="175" cy="-7" r="87.9" stroke="#D4D9E6" stroke-width="0.2"/>
<circle cx="175" cy="-7" r="95.9" stroke="#D4D9E6" stroke-width="0.2"/>
<circle cx="175" cy="-7" r="103.9" stroke="#D4D9E6" stroke-width="0.2"/>
<circle cx="175" cy="-7" r="111.9" stroke="#D4D9E6" stroke-width="0.2"/>
<circle cx="175" cy="-7" r="119.9" stroke="#D4D9E6" stroke-width="0.2"/>
<circle cx="175" cy="-7" r="127.9" stroke="#D4D9E6" stroke-width="0.2"/>
<circle cx="175" cy="-7" r="135.9" stroke="#D4D9E6" stroke-width="0.2"/>
<circle cx="175" cy="-7" r="143.9" stroke="#D4D9E6" stroke-width="0.2"/>
<circle cx="175" cy="-7" r="151.9" stroke="#D4D9E6" stroke-width="0.2"/>
<circle cx="175" cy="-7" r="159.9" stroke="#D4D9E6" stroke-width="0.2"/>
<circle cx="175" cy="-7" r="167.9" stroke="#D4D9E6" stroke-width="0.2"/>
<circle cx="175" cy="-7" r="175.9" stroke="#D4D9E6" stroke-width="0.2"/>
<circle cx="175" cy="-7" r="183.9" stroke="#D4D9E6" stroke-width="0.2"/>
<circle cx="175" cy="-7" r="191.9" stroke="#D4D9E6" stroke-width="0.2"/>
<circle cx="175" cy="-7" r="199.9" stroke="#D4D9E6" stroke-width="0.2"/>
<circle cx="175" cy="-7" r="207.9" stroke="#D4D9E6" stroke-width="0.2"/>
<circle cx="175" cy="-7" r="215.9" stroke="#D4D9E6" stroke-width="0.2"/>
</g>
<g filter="url(#filter0_dddd_14355_4323)">
<path d="M115 112C137.091 112 155 94.0914 155 72C155 49.9086 137.091 32 115 32C92.9086 32 75 49.9086 75 72C75 94.0914 92.9086 112 115 112Z" fill="#F0F3FA"/>
<path d="M115 32.5C136.815 32.5 154.5 50.1848 154.5 72C154.5 93.8152 136.815 111.5 115 111.5C93.1848 111.5 75.5 93.8152 75.5 72C75.5 50.1848 93.1848 32.5 115 32.5Z" stroke="#D4D9E6"/>
</g>
<path d="M99.7171 62.1122H94.0732L92.7918 65.6035H91.6914L96.3954 53.1719H97.3949L102.099 65.6035H101.005L99.7171 62.1122ZM94.3987 61.2251H99.3847L96.8906 54.4533L94.3964 61.2251H94.3987Z" fill="#8F98B3"/>
<path d="M105.032 65.605H103.982V53.1733H105.032V65.605Z" fill="#8F98B3"/>
<path d="M117.038 61.7294C116.896 63.0384 116.428 64.0402 115.633 64.7348C114.837 65.4294 113.78 65.7755 112.46 65.7755C111.538 65.7755 110.722 65.544 110.014 65.0832C109.306 64.6224 108.758 63.9691 108.37 63.1232C107.983 62.2773 107.786 61.3122 107.781 60.2233V58.6095C107.781 57.5046 107.974 56.5257 108.361 55.6729C108.749 54.8202 109.306 54.16 110.03 53.6969C110.757 53.2338 111.591 53 112.536 53C113.868 53 114.92 53.3576 115.69 54.0751C116.46 54.7927 116.91 55.7853 117.036 57.0552H115.977C115.715 54.944 114.567 53.8872 112.536 53.8872C111.408 53.8872 110.511 54.309 109.842 55.1526C109.173 55.9962 108.838 57.1607 108.838 58.6485V60.1706C108.838 61.6056 109.164 62.7518 109.815 63.6046C110.466 64.4597 111.348 64.8861 112.458 64.8861C113.567 64.8861 114.383 64.6224 114.943 64.0952C115.5 63.5679 115.846 62.7794 115.977 61.7249H117.036L117.038 61.7294Z" fill="#8F98B3"/>
<path d="M120.459 60.5421V65.606H119.409V53.1743H123.643C124.936 53.1743 125.956 53.5044 126.704 54.1646C127.453 54.8248 127.827 55.7326 127.827 56.888C127.827 58.0434 127.467 58.9557 126.747 59.5907C126.027 60.2257 124.984 60.5421 123.618 60.5421H120.459ZM120.459 59.6549H123.643C124.661 59.6549 125.438 59.4119 125.975 58.9282C126.509 58.4445 126.777 57.7683 126.777 56.9017C126.777 56.0352 126.511 55.3544 125.979 54.8455C125.447 54.3343 124.691 54.0752 123.712 54.0638H120.459V59.6572V59.6549Z" fill="#8F98B3"/>
<path d="M135.537 62.1122H129.894L128.612 65.6035H127.512L132.216 53.1719H133.215L137.919 65.6035H136.826L135.537 62.1122ZM130.217 61.2251H135.203L132.709 54.4533L130.214 61.2251H130.217Z" fill="#8F98B3"/>
<path d="M91 71.7754H139" stroke="#8F98B3" stroke-linecap="round" stroke-linejoin="round"/>
<path d="M106.814 87.326C106.814 86.6382 106.571 86.0926 106.088 85.6915C105.604 85.2903 104.719 84.9098 103.433 84.5476C102.147 84.1854 101.207 83.7911 100.616 83.3647C99.7721 82.7618 99.3526 81.9709 99.3526 80.9921C99.3526 80.0132 99.7446 79.2682 100.526 78.6745C101.308 78.0807 102.31 77.7827 103.527 77.7827C104.352 77.7827 105.091 77.9432 105.744 78.2618C106.395 78.5805 106.901 79.0252 107.259 79.5937C107.617 80.1622 107.798 80.7972 107.798 81.4987H106.739C106.739 80.6482 106.448 79.9651 105.868 79.447C105.288 78.9289 104.508 78.6722 103.527 78.6722C102.546 78.6722 101.819 78.8854 101.255 79.3095C100.691 79.7335 100.409 80.2883 100.409 80.9737C100.409 81.6064 100.662 82.1222 101.168 82.5211C101.675 82.92 102.486 83.273 103.6 83.5779C104.717 83.8828 105.56 84.1991 106.136 84.5269C106.711 84.8548 107.144 85.2445 107.433 85.7006C107.724 86.1568 107.869 86.6933 107.869 87.3145C107.869 88.2933 107.477 89.0796 106.695 89.6711C105.913 90.2625 104.882 90.5582 103.6 90.5582C102.725 90.5582 101.92 90.4023 101.189 90.0883C100.458 89.7742 99.9028 89.3364 99.5246 88.7725C99.1463 88.2085 98.9561 87.5621 98.9561 86.8354H100.006C100.006 87.7111 100.334 88.4034 100.987 88.91C101.64 89.4166 102.512 89.6688 103.6 89.6688C104.568 89.6688 105.345 89.4556 105.932 89.0292C106.519 88.6028 106.812 88.0366 106.812 87.3305L106.814 87.326Z" fill="#8F98B3"/>
<path d="M119.151 84.8399C119.151 85.9838 118.954 86.9878 118.557 87.8544C118.161 88.7186 117.597 89.3857 116.863 89.8533C116.13 90.321 115.281 90.5525 114.319 90.5525C112.867 90.5525 111.694 90.0321 110.802 88.9937C109.908 87.9552 109.461 86.5523 109.461 84.7894V83.508C109.461 82.3755 109.663 81.3715 110.064 80.4981C110.465 79.6247 111.034 78.953 111.767 78.4831C112.501 78.0131 113.347 77.7793 114.302 77.7793C115.258 77.7793 116.102 78.0108 116.833 78.4716C117.565 78.9324 118.128 79.5834 118.527 80.427C118.926 81.2706 119.133 82.2449 119.151 83.3567V84.8422V84.8399ZM118.101 83.4897C118.101 81.9927 117.762 80.819 117.085 79.9708C116.407 79.1226 115.481 78.6985 114.302 78.6985C113.124 78.6985 112.226 79.1249 111.54 79.9754C110.855 80.8259 110.511 82.0156 110.511 83.5401V84.8376C110.511 86.3116 110.852 87.4807 111.536 88.3427C112.219 89.2046 113.147 89.6356 114.319 89.6356C115.49 89.6356 116.437 89.2092 117.101 88.3587C117.769 87.5082 118.101 86.3231 118.101 84.8032V83.4874V83.4897Z" fill="#8F98B3"/>
<path d="M130.421 86.5048C130.279 87.8138 129.811 88.8156 129.016 89.5102C128.22 90.2048 127.163 90.5509 125.843 90.5509C124.921 90.5509 124.105 90.3194 123.397 89.8586C122.689 89.3978 122.141 88.7445 121.753 87.8986C121.366 87.0527 121.169 86.0876 121.164 84.9987V83.3849C121.164 82.2799 121.357 81.3011 121.744 80.4483C122.131 79.5956 122.689 78.9353 123.413 78.4723C124.14 78.0092 124.974 77.7754 125.918 77.7754C127.25 77.7754 128.303 78.133 129.073 78.8505C129.843 79.568 130.292 80.5607 130.418 81.8306H129.359C129.098 79.7193 127.95 78.6625 125.918 78.6625C124.791 78.6625 123.894 79.0843 123.225 79.9279C122.556 80.7716 122.221 81.9361 122.221 83.4239V84.946C122.221 86.381 122.546 87.5272 123.197 88.38C123.848 89.2351 124.731 89.6615 125.841 89.6615C126.95 89.6615 127.766 89.3978 128.326 88.8706C128.883 88.3433 129.229 87.5547 129.359 86.5002H130.418L130.421 86.5048Z" fill="#8F98B3"/>
<g filter="url(#filter1_dddd_14355_4323)">
<circle cx="235" cy="72" r="40" fill="#F0F3FA"/>
<circle cx="235" cy="72" r="39.5" stroke="#D4D9E6"/>
</g>
<path d="M249.785 74.1874H248.563V78.6406H246.102V66.4531H250.028C251.261 66.4531 252.213 66.7739 252.882 67.4157C253.557 68.0518 253.895 68.9586 253.895 70.1361C253.895 71.7544 253.306 72.8872 252.129 73.5345L254.263 78.5234V78.6406H251.618L249.785 74.1874ZM248.563 72.1366H249.961C250.452 72.1366 250.82 71.9748 251.066 71.6512C251.311 71.3219 251.434 70.8839 251.434 70.337C251.434 69.1149 250.957 68.5038 250.003 68.5038H248.563V72.1366Z" fill="#B4BACC"/>
<path d="M238.795 74.3548V78.6406H236.334V66.4531H240.486C241.691 66.4531 242.651 66.8269 243.365 67.5747C244.085 68.3225 244.445 69.2935 244.445 70.4877C244.445 71.6818 244.09 72.6249 243.382 73.3169C242.673 74.0089 241.691 74.3548 240.435 74.3548H238.795ZM238.795 72.3041H240.486C240.954 72.3041 241.317 72.1506 241.574 71.8437C241.83 71.5368 241.959 71.0903 241.959 70.5044C241.959 69.8961 241.828 69.4134 241.565 69.0563C241.303 68.6936 240.951 68.5094 240.511 68.5038H238.795V72.3041Z" fill="#B4BACC"/>
<path d="M226.641 78.6406V66.4531H229.863C231.286 66.4531 232.419 66.9051 233.262 67.8091C234.11 68.7131 234.542 69.9519 234.559 71.5256V73.501C234.559 75.1026 234.135 76.361 233.287 77.2762C232.444 78.1858 231.281 78.6406 229.796 78.6406H226.641ZM229.102 68.5038V76.5981H229.838C230.658 76.5981 231.236 76.3833 231.571 75.9536C231.906 75.5183 232.081 74.7706 232.098 73.7103V71.5926C232.098 70.4542 231.939 69.6618 231.621 69.2153C231.303 68.7633 230.762 68.5262 229.997 68.5038H229.102Z" fill="#B4BACC"/>
<path d="M224.9 77.2594C224.425 77.7728 223.842 78.1606 223.15 78.4229C222.464 78.6796 221.71 78.808 220.89 78.808C219.489 78.808 218.401 78.3755 217.626 77.5105C216.85 76.64 216.451 75.376 216.429 73.7187V71.5256C216.429 69.8459 216.794 68.5541 217.525 67.65C218.262 66.7404 219.333 66.2856 220.739 66.2856C222.062 66.2856 223.058 66.6121 223.728 67.265C224.403 67.9179 224.794 68.9419 224.9 70.337H222.506C222.439 69.5613 222.277 69.034 222.02 68.755C221.763 68.4704 221.362 68.3281 220.815 68.3281C220.151 68.3281 219.668 68.5708 219.367 69.0563C219.065 69.5418 218.909 70.3147 218.898 71.3749V73.5848C218.898 74.6952 219.063 75.5044 219.392 76.0122C219.727 76.5144 220.273 76.7656 221.032 76.7656C221.518 76.7656 221.911 76.6679 222.213 76.4726L222.43 76.3219V74.087H220.706V72.2287H224.9V77.2594Z" fill="#B4BACC"/>
<path d="M234.5 37L235.51 40.1094H238.78L236.135 42.0312L237.145 45.1406L234.5 43.2188L231.855 45.1406L232.865 42.0312L230.22 40.1094H233.49L234.5 37Z" fill="#B4BACC"/>
<path d="M251.5 42L252.51 45.1094H255.78L253.135 47.0312L254.145 50.1406L251.5 48.2188L248.855 50.1406L249.865 47.0312L247.22 45.1094H250.49L251.5 42Z" fill="#B4BACC"/>
<path d="M261.5 53L262.51 56.1094H265.78L263.135 58.0312L264.145 61.1406L261.5 59.2188L258.855 61.1406L259.865 58.0312L257.22 56.1094H260.49L261.5 53Z" fill="#B4BACC"/>
<path d="M265.5 67L266.51 70.1094H269.78L267.135 72.0312L268.145 75.1406L265.5 73.2188L262.855 75.1406L263.865 72.0312L261.22 70.1094H264.49L265.5 67Z" fill="#B4BACC"/>
<path d="M261.5 82L262.51 85.1094H265.78L263.135 87.0312L264.145 90.1406L261.5 88.2188L258.855 90.1406L259.865 87.0312L257.22 85.1094H260.49L261.5 82Z" fill="#B4BACC"/>
<path d="M251.5 94L252.51 97.1094H255.78L253.135 99.0312L254.145 102.141L251.5 100.219L248.855 102.141L249.865 99.0312L247.22 97.1094H250.49L251.5 94Z" fill="#B4BACC"/>
<path d="M234.5 99L235.51 102.109H238.78L236.135 104.031L237.145 107.141L234.5 105.219L231.855 107.141L232.865 104.031L230.22 102.109H233.49L234.5 99Z" fill="#B4BACC"/>
<path d="M218.5 94L219.51 97.1094H222.78L220.135 99.0312L221.145 102.141L218.5 100.219L215.855 102.141L216.865 99.0312L214.22 97.1094H217.49L218.5 94Z" fill="#B4BACC"/>
<path d="M208.5 82L209.51 85.1094H212.78L210.135 87.0312L211.145 90.1406L208.5 88.2188L205.855 90.1406L206.865 87.0312L204.22 85.1094H207.49L208.5 82Z" fill="#B4BACC"/>
<path d="M208.5 53L209.51 56.1094H212.78L210.135 58.0312L211.145 61.1406L208.5 59.2188L205.855 61.1406L206.865 58.0312L204.22 56.1094H207.49L208.5 53Z" fill="#B4BACC"/>
<path d="M218.5 42L219.51 45.1094H222.78L220.135 47.0312L221.145 50.1406L218.5 48.2188L215.855 50.1406L216.865 47.0312L214.22 45.1094H217.49L218.5 42Z" fill="#B4BACC"/>
<path d="M204.5 67L205.51 70.1094H208.78L206.135 72.0312L207.145 75.1406L204.5 73.2188L201.855 75.1406L202.865 72.0312L200.22 70.1094H203.49L204.5 67Z" fill="#B4BACC"/>
<defs>
<filter id="filter0_dddd_14355_4323" x="73" y="30" width="109" height="109" filterUnits="userSpaceOnUse" color-interpolation-filters="sRGB">
<feFlood flood-opacity="0" result="BackgroundImageFix"/>
<feColorMatrix in="SourceAlpha" type="matrix" values="0 0 0 0 0 0 0 0 0 0 0 0 0 0 0 0 0 0 127 0" result="hardAlpha"/>
<feOffset dx="1" dy="1"/>
<feGaussianBlur stdDeviation="1.5"/>
<feColorMatrix type="matrix" values="0 0 0 0 0 0 0 0 0 0 0 0 0 0 0 0 0 0 0.1 0"/>
<feBlend mode="normal" in2="BackgroundImageFix" result="effect1_dropShadow_14355_4323"/>
<feColorMatrix in="SourceAlpha" type="matrix" values="0 0 0 0 0 0 0 0 0 0 0 0 0 0 0 0 0 0 127 0" result="hardAlpha"/>
<feOffset dx="4" dy="4"/>
<feGaussianBlur stdDeviation="3"/>
<feColorMatrix type="matrix" values="0 0 0 0 0 0 0 0 0 0 0 0 0 0 0 0 0 0 0.09 0"/>
<feBlend mode="normal" in2="effect1_dropShadow_14355_4323" result="effect2_dropShadow_14355_4323"/>
<feColorMatrix in="SourceAlpha" type="matrix" values="0 0 0 0 0 0 0 0 0 0 0 0 0 0 0 0 0 0 127 0" result="hardAlpha"/>
<feOffset dx="10" dy="10"/>
<feGaussianBlur stdDeviation="4"/>
<feColorMatrix type="matrix" values="0 0 0 0 0 0 0 0 0 0 0 0 0 0 0 0 0 0 0.05 0"/>
<feBlend mode="normal" in2="effect2_dropShadow_14355_4323" result="effect3_dropShadow_14355_4323"/>
<feColorMatrix in="SourceAlpha" type="matrix" values="0 0 0 0 0 0 0 0 0 0 0 0 0 0 0 0 0 0 127 0" result="hardAlpha"/>
<feOffset dx="17" dy="17"/>
<feGaussianBlur stdDeviation="5"/>
<feColorMatrix type="matrix" values="0 0 0 0 0 0 0 0 0 0 0 0 0 0 0 0 0 0 0.01 0"/>
<feBlend mode="normal" in2="effect3_dropShadow_14355_4323" result="effect4_dropShadow_14355_4323"/>
<feBlend mode="normal" in="SourceGraphic" in2="effect4_dropShadow_14355_4323" result="shape"/>
</filter>
<filter id="filter1_dddd_14355_4323" x="193" y="30" width="109" height="109" filterUnits="userSpaceOnUse" color-interpolation-filters="sRGB">
<feFlood flood-opacity="0" result="BackgroundImageFix"/>
<feColorMatrix in="SourceAlpha" type="matrix" values="0 0 0 0 0 0 0 0 0 0 0 0 0 0 0 0 0 0 127 0" result="hardAlpha"/>
<feOffset dx="1" dy="1"/>
<feGaussianBlur stdDeviation="1.5"/>
<feColorMatrix type="matrix" values="0 0 0 0 0 0 0 0 0 0 0 0 0 0 0 0 0 0 0.1 0"/>
<feBlend mode="normal" in2="BackgroundImageFix" result="effect1_dropShadow_14355_4323"/>
<feColorMatrix in="SourceAlpha" type="matrix" values="0 0 0 0 0 0 0 0 0 0 0 0 0 0 0 0 0 0 127 0" result="hardAlpha"/>
<feOffset dx="4" dy="4"/>
<feGaussianBlur stdDeviation="3"/>
<feColorMatrix type="matrix" values="0 0 0 0 0 0 0 0 0 0 0 0 0 0 0 0 0 0 0.09 0"/>
<feBlend mode="normal" in2="effect1_dropShadow_14355_4323" result="effect2_dropShadow_14355_4323"/>
<feColorMatrix in="SourceAlpha" type="matrix" values="0 0 0 0 0 0 0 0 0 0 0 0 0 0 0 0 0 0 127 0" result="hardAlpha"/>
<feOffset dx="10" dy="10"/>
<feGaussianBlur stdDeviation="4"/>
<feColorMatrix type="matrix" values="0 0 0 0 0 0 0 0 0 0 0 0 0 0 0 0 0 0 0.05 0"/>
<feBlend mode="normal" in2="effect2_dropShadow_14355_4323" result="effect3_dropShadow_14355_4323"/>
<feColorMatrix in="SourceAlpha" type="matrix" values="0 0 0 0 0 0 0 0 0 0 0 0 0 0 0 0 0 0 127 0" result="hardAlpha"/>
<feOffset dx="17" dy="17"/>
<feGaussianBlur stdDeviation="5"/>
<feColorMatrix type="matrix" values="0 0 0 0 0 0 0 0 0 0 0 0 0 0 0 0 0 0 0.01 0"/>
<feBlend mode="normal" in2="effect3_dropShadow_14355_4323" result="effect4_dropShadow_14355_4323"/>
<feBlend mode="normal" in="SourceGraphic" in2="effect4_dropShadow_14355_4323" result="shape"/>
</filter>
<clipPath id="clip0_14355_4323">
<rect width="350" height="144" fill="white"/>
</clipPath>
</defs>
</svg>
