<svg xmlns="http://www.w3.org/2000/svg" viewBox="0 0 1440 800"><circle cx="80" cy="228" r="1.5" fill="#fff" opacity=".5"/><circle cx="537" cy="220" r="1.5" fill="#fff" opacity=".5"/><circle cx="746" cy="438" r="1.5" fill="#fff" opacity=".5"/><circle cx="854" cy="655" r="1.5" fill="#fff" opacity=".5"/><circle cx="571" cy="503" r="1.5" fill="#fff" opacity=".5"/><circle cx="1305" cy="244" r="1.5" fill="#fff" opacity=".5"/><circle cx="1360" cy="611" r="1.5" fill="#fff" opacity=".5"/><circle cx="74" cy="611" r="1.5" fill="#fff" opacity=".5"/><circle cx="480" cy="655" r="1.5" fill="#fff" opacity=".5"/><circle cx="718" cy="204" r="1.5" fill="#fff" opacity=".5"/><circle cx="357" cy="336" r="1.5" fill="#fff" opacity=".5"/><circle cx="1080" cy="195" r="1.5" fill="#fff" opacity=".5"/><circle cx="680" cy="564" r="1.5" fill="#fff" opacity=".5"/><circle cx="1340" cy="438" r="1.5" fill="#fff" opacity=".5"/><circle cx="210" cy="199" r="1" fill="#fff" opacity=".4"/><circle cx="404" cy="234" r="1" fill="#fff" opacity=".4"/><circle cx="314" cy="278" r="1" fill="#fff" opacity=".4"/><circle cx="1200" cy="304" r="1" fill="#fff" opacity=".4"/><circle cx="1340" cy="172" r="1" fill="#fff" opacity=".4"/><circle cx="1095" cy="540" r="1" fill="#fff" opacity=".4"/><circle cx="90" cy="425" r="1" fill="#fff" opacity=".4"/><circle cx="169" cy="130" r="1" fill="#fff" opacity=".4"/><circle cx="1375" cy="730" r="1" fill="#fff" opacity=".4"/><circle cx="55" cy="740" r="1" fill="#fff" opacity=".4"/><circle cx="1010" cy="690" r="1" fill="#fff" opacity=".4"/><circle cx="790" cy="715" r="1" fill="#fff" opacity=".4"/><circle cx="620" cy="690" r="1" fill="#fff" opacity=".4"/><circle cx="430" cy="730" r="1" fill="#fff" opacity=".4"/><circle cx="240" cy="700" r="1" fill="#fff" opacity=".4"/><circle cx="1220" cy="750" r="1" fill="#fff" opacity=".4"/><circle cx="1180" cy="500" r="1" fill="#fff" opacity=".4"/><circle cx="260" cy="520" r="1" fill="#fff" opacity=".4"/><circle cx="922" cy="370" r="1" fill="#fff" opacity=".4"/><circle cx="510" cy="380" r="1" fill="#fff" opacity=".4"/><circle cx="1410" cy="560" r="1" fill="#fff" opacity=".4"/><circle cx="30" cy="560" r="1" fill="#fff" opacity=".4"/><circle cx="650" cy="120" r="1" fill="#fff" opacity=".4"/><circle cx="820" cy="150" r="1" fill="#fff" opacity=".4"/><circle cx="470" cy="125" r="1" fill="#fff" opacity=".4"/><circle cx="978" cy="110" r="1" fill="#fff" opacity=".4"/><circle cx="1110" cy="660" r="1" fill="#fff" opacity=".4"/><circle cx="340" cy="660" r="1" fill="#fff" opacity=".4"/><circle cx="745" cy="340" r="1" fill="#fff" opacity=".4"/><circle cx="130" cy="300" r=".7" fill="#fff" opacity=".25"/><circle cx="1250" cy="160" r=".7" fill="#fff" opacity=".25"/><circle cx="200" cy="93" r=".7" fill="#fff" opacity=".25"/><circle cx="1380" cy="93" r=".7" fill="#fff" opacity=".25"/><circle cx="60" cy="130" r=".7" fill="#fff" opacity=".25"/><circle cx="280" cy="170" r=".7" fill="#fff" opacity=".25"/><circle cx="420" cy="160" r=".7" fill="#fff" opacity=".25"/><circle cx="560" cy="172" r=".7" fill="#fff" opacity=".25"/><circle cx="900" cy="255" r=".7" fill="#fff" opacity=".25"/><circle cx="1060" cy="315" r=".7" fill="#fff" opacity=".25"/><circle cx="160" cy="460" r=".7" fill="#fff" opacity=".25"/><circle cx="1295" cy="470" r=".7" fill="#fff" opacity=".25"/><circle cx="1400" cy="340" r=".7" fill="#fff" opacity=".25"/><circle cx="40" cy="340" r=".7" fill="#fff" opacity=".25"/><circle cx="590" cy="445" r=".7" fill="#fff" opacity=".25"/><circle cx="850" cy="490" r=".7" fill="#fff" opacity=".25"/><circle cx="380" cy="480" r=".7" fill="#fff" opacity=".25"/><circle cx="1060" cy="450" r=".7" fill="#fff" opacity=".25"/><circle cx="690" cy="620" r=".7" fill="#fff" opacity=".25"/><circle cx="940" cy="575" r=".7" fill="#fff" opacity=".25"/><circle cx="500" cy="570" r=".7" fill="#fff" opacity=".25"/><circle cx="1170" cy="610" r=".7" fill="#fff" opacity=".25"/><circle cx="170" cy="615" r=".7" fill="#fff" opacity=".25"/><circle cx="1310" cy="680" r=".7" fill="#fff" opacity=".25"/><circle cx="150" cy="690" r=".7" fill="#fff" opacity=".25"/><circle cx="550" cy="750" r=".7" fill="#fff" opacity=".25"/><circle cx="900" cy="760" r=".7" fill="#fff" opacity=".25"/><circle cx="1050" cy="740" r=".7" fill="#fff" opacity=".25"/></svg>