<svg width="48" height="48" viewBox="0 0 48 48" fill="none" xmlns="http://www.w3.org/2000/svg">
    <path d="M47.121 36.293L40.337 29.509C41.386 27.928 42 26.035 42 24C42 18.486 37.514 14 32 14C26.486 14 22 18.486 22 24C22 29.514 26.486 34 32 34C34.035 34 35.928 33.386 37.509 32.337L44.293 39.121C44.684 39.512 45.317 39.512 45.707 39.121L47.121 37.707C47.512 37.317 47.512 36.683 47.121 36.293ZM32 32C27.582 32 24 28.418 24 24C24 19.582 27.582 16 32 16C36.418 16 40 19.582 40 24C40 28.418 36.418 32 32 32Z" fill="#DC244C"/>
    <path d="M42 7H2C1.447 7 1 6.552 1 6C1 5.448 1.447 5 2 5H42C42.553 5 43 5.448 43 6C43 6.552 42.553 7 42 7Z" fill="#AEBDE6"/>
    <path d="M17 19H2C1.447 19 1 18.552 1 18C1 17.448 1.447 17 2 17H17C17.553 17 18 17.448 18 18C18 18.552 17.553 19 17 19Z" fill="#AEBDE6"/>
    <path d="M17 31H2C1.447 31 1 30.552 1 30C1 29.448 1.447 29 2 29H17C17.553 29 18 29.448 18 30C18 30.552 17.553 31 17 31Z" fill="#AEBDE6"/>
    <path d="M36 43H2C1.447 43 1 42.552 1 42C1 41.448 1.447 41 2 41H36C36.553 41 37 41.448 37 42C37 42.552 36.553 43 36 43Z" fill="#AEBDE6"/>
</svg>