<svg width="600" height="376" viewBox="0 0 600 376" fill="none" xmlns="http://www.w3.org/2000/svg">
<path fill-rule="evenodd" clip-rule="evenodd" d="M0.468019 0.634949H0V1.10297V75.5179V75.9859V76.454V150.401V150.869V151.337V225.284V225.752V226.22V300.167V300.635V301.103V375.518V375.986H0.468019H74.8828H75.3508H75.3511H75.8191H149.766H150.234H150.234H150.702H224.648H225.116H225.117H225.585L299.531 375.986H299.999H374.882H375.35L449.297 375.986H449.765H449.767H450.235L524.18 375.986H524.648H599.531H599.999V375.518V301.103V300.635V300.167V226.22V225.752V225.284V151.337V150.869V150.401V76.454V75.986V75.518V1.10303V0.635008H599.531L525.116 0.634949H524.648H450.235H449.767H449.765H449.297H374.884H374.416H300.468H300H225.585H225.117H225.116H224.648H150.702H150.234H150.234H149.766H75.8191H75.3511H75.3508H74.8828H0.468019ZM450.235 375.05H524.18V301.103L450.235 301.103V375.05ZM450.235 300.167H524.18V226.22L450.235 226.22V300.167ZM449.297 301.103V375.05H375.352V301.103H449.297ZM375.352 300.167L449.297 300.167V226.22L375.352 226.22V300.167ZM75.8191 301.103H149.766V375.05H75.8191V301.103ZM224.648 300.167H150.702V226.22L224.648 226.22V300.167ZM225.585 301.103V375.05H299.531V301.103H225.585ZM225.585 226.22V300.167H299.531V226.22L225.585 226.22ZM149.766 226.22V300.167L75.8191 300.167V226.22L149.766 226.22ZM224.648 375.05H150.702V301.103H224.648V375.05ZM224.648 225.284V151.337L150.702 151.337V225.284L224.648 225.284ZM149.766 225.284V151.337L75.8191 151.337V225.284L149.766 225.284ZM525.116 301.103L525.116 375.05H599.063V301.103L525.116 301.103ZM525.116 226.22L599.063 226.22V300.167L525.116 300.167V226.22ZM599.063 151.337V225.284L525.116 225.284V151.337L599.063 151.337ZM524.18 76.4539L450.235 76.454V150.401L524.18 150.401V76.4539ZM450.235 151.337H524.18V225.284H450.235V151.337ZM449.297 151.337L375.352 151.337V225.284L449.297 225.284V151.337ZM599.063 150.401V76.454L525.116 76.454V150.401L599.063 150.401ZM374.414 375.05H300.468V301.103L374.414 301.103V375.05ZM300.468 300.167L374.414 300.167V226.22L300.468 226.22V300.167ZM374.414 225.284V151.337L300.468 151.337V225.284L374.414 225.284ZM74.8828 300.167V226.22L0.936038 226.22V300.167H74.8828ZM74.8828 301.103L0.936038 301.103V375.05H74.8828V301.103ZM149.766 150.401V76.454L75.8191 76.454V150.401H149.766ZM75.8191 75.5179L149.766 75.5179V1.57099H75.8191V75.5179ZM299.531 76.454L225.585 76.454V150.401L299.531 150.401V76.454ZM299.531 151.337H225.585V225.284H299.531V151.337ZM150.702 75.5179L224.648 75.5179V1.57099H150.702V75.5179ZM300.468 150.401L374.414 150.401V76.454L300.468 76.454V150.401ZM375.352 76.454V150.401L449.297 150.401V76.454L375.352 76.454ZM449.297 1.57099H375.352V75.5179L449.297 75.5179V1.57099ZM450.235 75.5179V1.57099H524.18V75.5179H450.235ZM74.8828 151.337V225.284H0.936038V151.337H74.8828ZM150.702 150.401H224.648V76.454H150.702V150.401ZM74.8828 76.454H0.936038V150.401L74.8828 150.401V76.454ZM225.585 75.5179V1.57099H299.531V75.5179H225.585ZM74.8828 1.57099H0.936038V75.5179H74.8828V1.57099ZM300.468 75.5179L374.414 75.518V1.57105H300.468V75.5179ZM525.116 1.57105L525.116 75.5179L599.063 75.518V1.57105H525.116Z" fill="url(#paint0_linear_2739_5438)"/>
<g clip-path="url(#clip0_2739_5438)">
<g clip-path="url(#clip1_2739_5438)">
<rect width="480" height="264" transform="translate(60 66)" fill="#090E1A"/>
<g clip-path="url(#clip2_2739_5438)">
<path d="M103.981 97.223C103.981 97.9478 103.393 98.5353 102.668 98.5353H101.771V97.5107H101.739C101.643 97.6494 101.515 97.7935 101.355 97.9429C101.206 98.0817 101.024 98.2098 100.811 98.3272C100.608 98.4446 100.378 98.5407 100.122 98.6154C99.8768 98.6901 99.6207 98.7274 99.3538 98.7274C98.7774 98.7274 98.2544 98.6314 97.7848 98.4393C97.3152 98.2365 96.9096 97.959 96.568 97.6067C96.2371 97.2438 95.981 96.8169 95.7995 96.3259C95.6181 95.8349 95.5273 95.2959 95.5273 94.7089C95.5273 94.1645 95.6074 93.6468 95.7675 93.1559C95.9383 92.6542 96.1731 92.2112 96.472 91.827C96.7815 91.4428 97.1551 91.1386 97.5927 90.9144C98.0303 90.6796 98.5266 90.5622 99.0816 90.5622C99.5833 90.5622 100.048 90.6422 100.475 90.8023C100.912 90.9518 101.27 91.2133 101.547 91.5868H101.579V87.7438C101.579 87.0191 102.167 86.4315 102.892 86.4315H103.981V97.223ZM101.771 94.6448C101.771 94.0578 101.601 93.5828 101.259 93.2199C100.928 92.857 100.459 92.6755 99.8501 92.6755C99.2417 92.6755 98.7668 92.857 98.4252 93.2199C98.0943 93.5828 97.9289 94.0578 97.9289 94.6448C97.9289 95.2319 98.0943 95.7068 98.4252 96.0697C98.7668 96.4326 99.2417 96.6141 99.8501 96.6141C100.459 96.6141 100.928 96.4326 101.259 96.0697C101.601 95.7068 101.771 95.2319 101.771 94.6448Z" fill="#DC244C"/>
<path d="M105.535 92.0666C105.535 91.3419 106.123 90.7543 106.848 90.7543H107.937V92.0031H107.969C108.225 91.5228 108.529 91.1652 108.881 90.9304C109.234 90.6849 109.677 90.5622 110.21 90.5622C110.349 90.5622 110.488 90.5675 110.627 90.5782C110.765 90.5889 110.893 90.6102 111.011 90.6422V92.8356C110.84 92.7823 110.669 92.7449 110.499 92.7236C110.338 92.6916 110.168 92.6755 109.986 92.6755C109.527 92.6755 109.164 92.7396 108.898 92.8677C108.631 92.9958 108.423 93.1772 108.273 93.412C108.134 93.6362 108.044 93.9083 108.001 94.2285C107.958 94.5488 107.937 94.901 107.937 95.2852V97.223C107.937 97.9478 107.349 98.5353 106.625 98.5353H105.535V92.0666Z" fill="#DC244C"/>
<path d="M116.836 97.5587H116.804C116.537 97.975 116.18 98.2738 115.731 98.4553C115.294 98.6367 114.829 98.7274 114.338 98.7274C113.975 98.7274 113.623 98.6741 113.282 98.5673C112.951 98.4713 112.657 98.3219 112.401 98.1191C112.145 97.9163 111.942 97.6654 111.793 97.3666C111.643 97.0677 111.569 96.7208 111.569 96.3259C111.569 95.8776 111.649 95.4987 111.809 95.1892C111.979 94.8796 112.204 94.6235 112.481 94.4207C112.769 94.2179 113.095 94.0631 113.458 93.9564C113.821 93.839 114.194 93.7536 114.578 93.7002C114.973 93.6468 115.363 93.6148 115.747 93.6041C116.142 93.5935 116.505 93.5881 116.836 93.5881C116.836 93.1612 116.681 92.825 116.372 92.5795C116.073 92.3233 115.715 92.1952 115.299 92.1952C114.904 92.1952 114.541 92.2806 114.21 92.4514C113.89 92.6115 113.602 92.8356 113.346 93.1238L112.065 91.811C112.513 91.3947 113.036 91.0852 113.634 90.8824C114.232 90.6689 114.851 90.5622 115.491 90.5622C116.196 90.5622 116.772 90.6529 117.22 90.8344C117.679 91.0051 118.042 91.2613 118.309 91.6029C118.586 91.9444 118.779 92.366 118.885 92.8677C118.992 93.3587 119.045 93.9297 119.045 94.5808V97.223C119.045 97.9478 118.458 98.5353 117.733 98.5353H116.836V97.5587ZM116.244 95.1251C116.062 95.1251 115.833 95.1358 115.555 95.1571C115.288 95.1678 115.027 95.2105 114.771 95.2852C114.525 95.3599 114.312 95.472 114.13 95.6214C113.959 95.7709 113.874 95.979 113.874 96.2458C113.874 96.534 113.997 96.7475 114.242 96.8863C114.488 97.025 114.744 97.0944 115.011 97.0944C115.246 97.0944 115.47 97.0624 115.683 96.9983C115.907 96.9343 116.105 96.8436 116.276 96.7262C116.446 96.6087 116.58 96.4593 116.676 96.2779C116.783 96.0964 116.836 95.8829 116.836 95.6375V95.1251H116.244Z" fill="#DC244C"/>
<path d="M120.712 92.0666C120.712 91.3419 121.3 90.7543 122.025 90.7543H123.018V91.811H123.05C123.124 91.6616 123.231 91.5121 123.37 91.3627C123.509 91.2133 123.674 91.0799 123.866 90.9624C124.058 90.845 124.277 90.749 124.523 90.6743C124.768 90.5995 125.035 90.5622 125.323 90.5622C125.932 90.5622 126.423 90.6582 126.796 90.8504C127.17 91.0318 127.458 91.288 127.661 91.6189C127.874 91.9497 128.018 92.3393 128.093 92.7876C128.168 93.2359 128.205 93.7216 128.205 94.2446V97.223C128.205 97.9478 127.617 98.5353 126.893 98.5353H125.803V94.7249C125.803 94.5007 125.793 94.2712 125.771 94.0364C125.761 93.7909 125.713 93.5668 125.627 93.364C125.553 93.1612 125.43 92.9958 125.259 92.8677C125.099 92.7396 124.864 92.6755 124.555 92.6755C124.245 92.6755 123.994 92.7343 123.802 92.8517C123.61 92.9584 123.461 93.1078 123.354 93.2999C123.258 93.4814 123.194 93.6895 123.162 93.9244C123.13 94.1592 123.114 94.4047 123.114 94.6608V97.223C123.114 97.9478 122.526 98.5353 121.801 98.5353H120.712V92.0666Z" fill="#DC244C"/>
<path d="M135.365 91.3632C135.365 92.088 134.778 92.6755 134.053 92.6755H133.252V95.2692C133.252 95.4827 133.262 95.6802 133.284 95.8616C133.305 96.0324 133.353 96.1818 133.428 96.3099C133.503 96.438 133.615 96.5394 133.764 96.6141C133.924 96.6781 134.132 96.7101 134.389 96.7101C134.517 96.7101 134.682 96.6995 134.885 96.6781C135.098 96.6461 135.258 96.5821 135.365 96.486V97.6309C135.365 98.1447 135.043 98.6227 134.533 98.6794C134.244 98.7114 133.962 98.7274 133.684 98.7274C133.278 98.7274 132.905 98.6848 132.563 98.5994C132.222 98.514 131.923 98.3806 131.667 98.1991C131.411 98.007 131.208 97.7615 131.058 97.4626C130.92 97.1638 130.85 96.8009 130.85 96.3739V92.6755H129.313V92.0666C129.313 91.3419 129.901 90.7543 130.626 90.7543H130.85V89.7611C130.85 89.0364 131.438 88.4488 132.163 88.4488H133.252V90.7543H135.365V91.3632Z" fill="#DC244C"/>
<path fill-rule="evenodd" clip-rule="evenodd" d="M84.7304 82L80.3998 84.5L76.0703 86.9999V96.9999L80.3998 99.4999L84.7304 102L87.5008 100.401L90.4456 102L93.3905 100.3V87L89.0598 84.5L84.7304 82Z" fill="#201D1D"/>
<path fill-rule="evenodd" clip-rule="evenodd" d="M90.4453 95.3004V88.7009L93.3902 87.0001V100.301L90.4453 102V95.3004Z" fill="#7D8CB5"/>
<path fill-rule="evenodd" clip-rule="evenodd" d="M93.3905 87L90.4456 88.7007L87.5874 87.0511L84.7304 85.4016L81.8722 87.0511L79.0152 88.7007L76.0703 87L80.3997 84.5L84.7304 82L89.0598 84.5L93.3905 87Z" fill="#B2BFE8"/>
<path fill-rule="evenodd" clip-rule="evenodd" d="M76.0703 87L79.0152 88.7008V95.3003L81.8722 96.9499L84.7304 98.5995V102L80.3997 99.4998L76.0703 96.9998V86.9998" fill="#D9E2FF"/>
<path fill-rule="evenodd" clip-rule="evenodd" d="M87.5008 96.9999L84.7305 98.5997V102L87.5008 100.401V96.9999Z" fill="#7D8CB5"/>
<path fill-rule="evenodd" clip-rule="evenodd" d="M84.7313 91.9999L81.9609 90.4016L84.7313 88.8018L87.5017 90.4016L84.7313 91.9999Z" fill="#B2BFE8"/>
<path fill-rule="evenodd" clip-rule="evenodd" d="M81.9609 90.4018L84.7313 92.0002V95.1996L81.9609 93.5999V90.4018Z" fill="#D9E2FF"/>
<path fill-rule="evenodd" clip-rule="evenodd" d="M84.7305 92L87.5008 90.4016V93.5997L84.7305 95.1994V92Z" fill="#7D8CB5"/>
<path fill-rule="evenodd" clip-rule="evenodd" d="M87.5012 100.401L90.446 102V88.7007L87.5878 87.0511L84.7308 85.4016L81.8726 87.0511L79.0156 88.7007V95.3002L81.8726 96.9499L84.7308 98.5995L87.5012 96.9997V100.401ZM87.5012 93.5995L84.7308 95.1991L81.9605 93.5995V90.4013L84.7308 88.8016L87.5012 90.4013V93.5995Z" fill="#DC244C"/>
<path d="M84.7325 98.601V95.2002L81.9766 93.6141V97.0093L84.7325 98.601Z" fill="url(#paint1_linear_2739_5438)"/>
</g>
<path d="M368.87 92.9727H365.862V96H364.681V88.8906H369.3V89.8623H365.862V92.0059H368.87V92.9727ZM375.051 94.3643H372.819L372.336 96H371.115L373.43 88.8906H374.47L376.745 96H375.529L375.051 94.3643ZM373.117 93.3584H374.763L373.947 90.5459L373.117 93.3584ZM382.311 94.1689C382.311 94.0029 382.276 93.8564 382.208 93.7295C382.14 93.6025 382.044 93.4886 381.92 93.3877C381.79 93.2933 381.635 93.2087 381.456 93.1338C381.28 93.0557 381.083 92.9857 380.865 92.9238C380.53 92.8294 380.221 92.7139 379.938 92.5771C379.658 92.4372 379.418 92.2809 379.22 92.1084C379.021 91.9326 378.865 91.734 378.751 91.5127C378.64 91.2881 378.585 91.0358 378.585 90.7559C378.585 90.4531 378.65 90.1813 378.78 89.9404C378.91 89.6963 379.086 89.488 379.308 89.3154C379.529 89.1462 379.786 89.0176 380.079 88.9297C380.375 88.8385 380.686 88.793 381.012 88.793C381.357 88.793 381.677 88.8467 381.974 88.9541C382.273 89.0583 382.534 89.2048 382.755 89.3936C382.976 89.5856 383.15 89.8151 383.277 90.082C383.408 90.3457 383.473 90.6387 383.473 90.9609H382.311C382.294 90.7819 382.255 90.6191 382.193 90.4727C382.135 90.3229 382.052 90.1943 381.944 90.0869C381.834 89.9827 381.699 89.9014 381.539 89.8428C381.383 89.7809 381.202 89.75 380.997 89.75C380.818 89.75 380.652 89.7744 380.499 89.8232C380.349 89.8688 380.219 89.9339 380.108 90.0186C379.998 90.1064 379.911 90.2122 379.85 90.3359C379.788 90.4596 379.757 90.598 379.757 90.751C379.76 90.9137 379.802 91.057 379.884 91.1807C379.965 91.3011 380.074 91.4069 380.211 91.498C380.351 91.5892 380.51 91.6689 380.689 91.7373C380.872 91.8057 381.062 91.8691 381.261 91.9277C381.511 91.9993 381.756 92.0889 381.993 92.1963C382.234 92.3005 382.455 92.4274 382.657 92.5771C382.908 92.766 383.108 92.9922 383.258 93.2559C383.411 93.5163 383.487 93.8174 383.487 94.1592C383.487 94.4749 383.421 94.7533 383.287 94.9941C383.157 95.235 382.981 95.4352 382.76 95.5947C382.535 95.7607 382.275 95.8861 381.979 95.9707C381.682 96.0521 381.37 96.0928 381.041 96.0928C380.693 96.0928 380.349 96.0391 380.011 95.9316C379.672 95.821 379.378 95.6615 379.127 95.4531C378.896 95.2578 378.712 95.0283 378.575 94.7646C378.442 94.501 378.373 94.1982 378.37 93.8564H379.542C379.558 94.0745 379.604 94.265 379.679 94.4277C379.757 94.5872 379.863 94.7191 379.996 94.8232C380.126 94.9307 380.279 95.0104 380.455 95.0625C380.634 95.1146 380.829 95.1406 381.041 95.1406C381.22 95.1406 381.386 95.1195 381.539 95.0771C381.695 95.0348 381.83 94.9714 381.944 94.8867C382.055 94.8053 382.143 94.7044 382.208 94.584C382.276 94.4635 382.311 94.3252 382.311 94.1689ZM390.654 89.8623H388.462V96H387.295V89.8623H385.117V88.8906H390.654V89.8623ZM396.796 92.8115H393.856V95.0332H397.289V96H392.68V88.8906H397.265V89.8623H393.856V91.8643H396.796V92.8115ZM403.328 94.1689C403.328 94.0029 403.294 93.8564 403.226 93.7295C403.157 93.6025 403.061 93.4886 402.938 93.3877C402.807 93.2933 402.653 93.2087 402.474 93.1338C402.298 93.0557 402.101 92.9857 401.883 92.9238C401.548 92.8294 401.238 92.7139 400.955 92.5771C400.675 92.4372 400.436 92.2809 400.237 92.1084C400.039 91.9326 399.882 91.734 399.769 91.5127C399.658 91.2881 399.603 91.0358 399.603 90.7559C399.603 90.4531 399.668 90.1813 399.798 89.9404C399.928 89.6963 400.104 89.488 400.325 89.3154C400.547 89.1462 400.804 89.0176 401.097 88.9297C401.393 88.8385 401.704 88.793 402.029 88.793C402.374 88.793 402.695 88.8467 402.991 88.9541C403.291 89.0583 403.551 89.2048 403.772 89.3936C403.994 89.5856 404.168 89.8151 404.295 90.082C404.425 90.3457 404.49 90.6387 404.49 90.9609H403.328C403.312 90.7819 403.273 90.6191 403.211 90.4727C403.152 90.3229 403.069 90.1943 402.962 90.0869C402.851 89.9827 402.716 89.9014 402.557 89.8428C402.4 89.7809 402.22 89.75 402.015 89.75C401.836 89.75 401.67 89.7744 401.517 89.8232C401.367 89.8688 401.237 89.9339 401.126 90.0186C401.015 90.1064 400.929 90.2122 400.867 90.3359C400.805 90.4596 400.774 90.598 400.774 90.751C400.778 90.9137 400.82 91.057 400.901 91.1807C400.983 91.3011 401.092 91.4069 401.229 91.498C401.368 91.5892 401.528 91.6689 401.707 91.7373C401.889 91.8057 402.08 91.8691 402.278 91.9277C402.529 91.9993 402.773 92.0889 403.011 92.1963C403.252 92.3005 403.473 92.4274 403.675 92.5771C403.925 92.766 404.126 92.9922 404.275 93.2559C404.428 93.5163 404.505 93.8174 404.505 94.1592C404.505 94.4749 404.438 94.7533 404.305 94.9941C404.174 95.235 403.999 95.4352 403.777 95.5947C403.553 95.7607 403.292 95.8861 402.996 95.9707C402.7 96.0521 402.387 96.0928 402.059 96.0928C401.71 96.0928 401.367 96.0391 401.028 95.9316C400.69 95.821 400.395 95.6615 400.145 95.4531C399.913 95.2578 399.729 95.0283 399.593 94.7646C399.459 94.501 399.391 94.1982 399.388 93.8564H400.56C400.576 94.0745 400.621 94.265 400.696 94.4277C400.774 94.5872 400.88 94.7191 401.014 94.8232C401.144 94.9307 401.297 95.0104 401.473 95.0625C401.652 95.1146 401.847 95.1406 402.059 95.1406C402.238 95.1406 402.404 95.1195 402.557 95.0771C402.713 95.0348 402.848 94.9714 402.962 94.8867C403.073 94.8053 403.16 94.7044 403.226 94.584C403.294 94.4635 403.328 94.3252 403.328 94.1689ZM411.672 89.8623H409.479V96H408.312V89.8623H406.135V88.8906H411.672V89.8623ZM422.334 96L420.146 88.8906H421.431L422.783 93.8125L422.9 94.2373L423.022 93.8076L424.385 88.8906H425.664L423.477 96H422.334ZM431.825 92.8115H428.886V95.0332H432.318V96H427.709V88.8906H432.294V89.8623H428.886V91.8643H431.825V92.8115ZM439.451 93.8125C439.419 94.1576 439.337 94.4717 439.207 94.7549C439.077 95.0348 438.906 95.2741 438.694 95.4727C438.479 95.6745 438.224 95.8307 437.928 95.9414C437.635 96.0488 437.309 96.1025 436.951 96.1025C436.658 96.1025 436.388 96.0635 436.141 95.9854C435.896 95.904 435.678 95.79 435.486 95.6436C435.301 95.5068 435.138 95.3424 434.998 95.1504C434.861 94.9551 434.746 94.7419 434.651 94.5107C434.557 94.2829 434.485 94.0355 434.437 93.7686C434.391 93.5016 434.368 93.2233 434.368 92.9336V91.9619C434.368 91.6852 434.391 91.4183 434.437 91.1611C434.482 90.904 434.55 90.6615 434.642 90.4336C434.739 90.1797 434.865 89.9502 435.018 89.7451C435.174 89.5368 435.353 89.3594 435.555 89.2129C435.747 89.0794 435.958 88.9753 436.189 88.9004C436.424 88.8255 436.679 88.7881 436.956 88.7881C437.33 88.7881 437.664 88.8434 437.957 88.9541C438.253 89.0648 438.506 89.221 438.714 89.4229C438.925 89.6279 439.091 89.8753 439.212 90.165C439.336 90.4548 439.415 90.777 439.451 91.1318H438.279C438.26 90.9202 438.219 90.7298 438.157 90.5605C438.099 90.388 438.017 90.2415 437.913 90.1211C437.806 90.0007 437.674 89.9095 437.518 89.8477C437.361 89.7826 437.174 89.75 436.956 89.75C436.803 89.75 436.665 89.7712 436.541 89.8135C436.421 89.8558 436.313 89.916 436.219 89.9941C436.089 90.0885 435.979 90.2122 435.892 90.3652C435.807 90.515 435.737 90.6826 435.682 90.8682C435.639 91.0309 435.607 91.2051 435.584 91.3906C435.564 91.5729 435.555 91.7601 435.555 91.9521V92.9336C435.555 93.1712 435.568 93.3942 435.594 93.6025C435.623 93.8109 435.667 94.0013 435.726 94.1738C435.771 94.3171 435.828 94.4473 435.896 94.5645C435.968 94.6816 436.053 94.7826 436.15 94.8672C436.251 94.9583 436.367 95.0283 436.497 95.0771C436.631 95.1227 436.782 95.1455 436.951 95.1455C437.153 95.1455 437.332 95.1162 437.488 95.0576C437.645 94.999 437.778 94.9128 437.889 94.7988C437.996 94.6882 438.082 94.5498 438.147 94.3838C438.213 94.2178 438.255 94.0273 438.274 93.8125H439.451ZM446.701 89.8623H444.509V96H443.342V89.8623H441.164V88.8906H446.701V89.8623ZM453.482 92.9189C453.482 93.2054 453.456 93.4821 453.404 93.749C453.355 94.016 453.284 94.2682 453.189 94.5059C453.089 94.7435 452.963 94.9632 452.813 95.165C452.664 95.3636 452.491 95.5345 452.296 95.6777C452.107 95.8079 451.897 95.9105 451.666 95.9854C451.438 96.0602 451.188 96.0977 450.914 96.0977C450.631 96.0977 450.37 96.0586 450.133 95.9805C449.898 95.8991 449.688 95.7884 449.503 95.6484C449.314 95.5052 449.148 95.3327 449.005 95.1309C448.865 94.929 448.748 94.7077 448.653 94.4668C448.562 94.2357 448.494 93.9899 448.448 93.7295C448.403 93.4658 448.38 93.1956 448.38 92.9189V91.9814C448.38 91.6917 448.404 91.4118 448.453 91.1416C448.502 90.8714 448.575 90.6159 448.673 90.375C448.767 90.1439 448.883 89.9323 449.02 89.7402C449.16 89.5449 449.324 89.3757 449.513 89.2324C449.695 89.0924 449.902 88.985 450.133 88.9102C450.367 88.832 450.624 88.793 450.904 88.793C451.188 88.793 451.448 88.832 451.686 88.9102C451.923 88.9883 452.136 89.0973 452.325 89.2373C452.514 89.3773 452.678 89.5417 452.818 89.7305C452.958 89.9193 453.076 90.126 453.17 90.3506C453.274 90.5915 453.352 90.8503 453.404 91.127C453.456 91.4004 453.482 91.6852 453.482 91.9814V92.9189ZM452.301 91.9717C452.298 91.7926 452.286 91.6169 452.267 91.4443C452.25 91.2718 452.221 91.1074 452.179 90.9512C452.13 90.7721 452.065 90.6094 451.983 90.4629C451.905 90.3132 451.809 90.1862 451.695 90.082C451.594 89.9909 451.479 89.9193 451.349 89.8672C451.218 89.8151 451.07 89.7891 450.904 89.7891C450.745 89.7891 450.602 89.8151 450.475 89.8672C450.348 89.916 450.237 89.9844 450.143 90.0723C450.029 90.1797 449.933 90.3083 449.854 90.458C449.776 90.6045 449.716 90.7689 449.674 90.9512C449.635 91.1074 449.605 91.2734 449.586 91.4492C449.57 91.6217 449.562 91.7959 449.562 91.9717V92.9189C449.562 93.0915 449.57 93.2624 449.586 93.4316C449.602 93.6009 449.63 93.7637 449.669 93.9199C449.711 94.0957 449.768 94.2601 449.84 94.4131C449.915 94.5628 450.004 94.6898 450.108 94.7939C450.209 94.8916 450.325 94.9697 450.455 95.0283C450.589 95.0837 450.742 95.1113 450.914 95.1113C451.08 95.1113 451.23 95.0837 451.363 95.0283C451.5 94.973 451.617 94.8981 451.715 94.8037C451.829 94.6963 451.923 94.5693 451.998 94.4229C452.076 94.2731 452.138 94.1087 452.184 93.9297C452.223 93.7734 452.25 93.6107 452.267 93.4414C452.286 93.2689 452.298 93.0947 452.301 92.9189V91.9717ZM458.057 93.2412H456.855V96H455.684V88.8906H457.939C458.307 88.8939 458.646 88.9411 458.955 89.0322C459.264 89.1234 459.531 89.2568 459.756 89.4326C459.977 89.6117 460.15 89.8346 460.273 90.1016C460.397 90.3652 460.459 90.6745 460.459 91.0293C460.459 91.2734 460.426 91.4948 460.361 91.6934C460.299 91.8919 460.212 92.071 460.098 92.2305C459.984 92.39 459.847 92.5299 459.688 92.6504C459.528 92.7708 459.351 92.875 459.155 92.9629L460.674 95.9365V96H459.419L458.057 93.2412ZM456.855 92.2842H457.954C458.162 92.2809 458.35 92.25 458.516 92.1914C458.685 92.1296 458.828 92.0417 458.945 91.9277C459.049 91.8301 459.131 91.7096 459.189 91.5664C459.248 91.4232 459.277 91.2604 459.277 91.0781C459.277 90.873 459.245 90.694 459.18 90.541C459.118 90.3848 459.025 90.2546 458.901 90.1504C458.787 90.0527 458.649 89.9795 458.486 89.9307C458.324 89.8786 458.141 89.8509 457.939 89.8477H456.855V92.2842ZM469.627 96V88.8906H471.385C471.691 88.8906 471.979 88.9264 472.249 88.998C472.519 89.0664 472.765 89.1624 472.986 89.2861C473.227 89.4131 473.44 89.5726 473.626 89.7646C473.815 89.9567 473.973 90.1715 474.1 90.4092C474.23 90.6566 474.331 90.9284 474.402 91.2246C474.474 91.5208 474.51 91.8366 474.51 92.1719V92.7285C474.51 93.0508 474.476 93.3568 474.407 93.6465C474.342 93.9329 474.248 94.195 474.124 94.4326C474.004 94.6637 473.857 94.8737 473.685 95.0625C473.515 95.2513 473.326 95.4124 473.118 95.5459C472.884 95.6924 472.623 95.8047 472.337 95.8828C472.054 95.9609 471.749 96 471.424 96H469.627ZM470.813 89.8477V95.0479H471.424C471.632 95.0479 471.823 95.0234 471.995 94.9746C472.171 94.9225 472.329 94.8493 472.469 94.7549C472.612 94.6572 472.739 94.5352 472.85 94.3887C472.964 94.2389 473.056 94.068 473.128 93.876C473.19 93.7132 473.237 93.5358 473.27 93.3438C473.302 93.1517 473.318 92.9466 473.318 92.7285V92.1621C473.318 91.9473 473.302 91.7438 473.27 91.5518C473.237 91.3597 473.19 91.1823 473.128 91.0195C473.05 90.821 472.946 90.6419 472.815 90.4824C472.685 90.3197 472.531 90.1878 472.352 90.0869C472.221 90.012 472.075 89.9551 471.912 89.916C471.749 89.8737 471.574 89.8509 471.385 89.8477H470.813ZM480.139 94.3643H477.907L477.424 96H476.203L478.518 88.8906H479.558L481.833 96H480.617L480.139 94.3643ZM478.205 93.3584H479.851L479.035 90.5459L478.205 93.3584ZM488.736 89.8623H486.544V96H485.377V89.8623H483.199V88.8906H488.736V89.8623ZM494.15 94.3643H491.919L491.436 96H490.215L492.529 88.8906H493.569L495.845 96H494.629L494.15 94.3643ZM492.217 93.3584H493.862L493.047 90.5459L492.217 93.3584ZM497.694 96V88.8906H499.97C500.315 88.8906 500.639 88.9297 500.941 89.0078C501.244 89.0827 501.506 89.1982 501.728 89.3545C501.949 89.5107 502.121 89.7109 502.245 89.9551C502.372 90.196 502.436 90.4824 502.436 90.8145C502.432 91.0163 502.396 91.2051 502.328 91.3809C502.263 91.5534 502.169 91.7064 502.045 91.8398C501.957 91.9375 501.858 92.0238 501.747 92.0986C501.64 92.1702 501.514 92.2354 501.371 92.2939V92.3037C501.583 92.359 501.763 92.4404 501.913 92.5479C502.063 92.652 502.188 92.7708 502.289 92.9043C502.393 93.0475 502.471 93.207 502.523 93.3828C502.579 93.5553 502.606 93.7376 502.606 93.9297C502.61 94.2682 502.549 94.5661 502.426 94.8232C502.302 95.0804 502.131 95.2952 501.913 95.4678C501.695 95.6436 501.435 95.777 501.132 95.8682C500.832 95.9561 500.507 96 500.155 96H497.694ZM498.876 92.7871V95.0332H500.165C500.351 95.0332 500.52 95.0072 500.673 94.9551C500.826 94.903 500.956 94.8314 501.063 94.7402C501.181 94.6458 501.27 94.5303 501.332 94.3936C501.397 94.2536 501.43 94.099 501.43 93.9297C501.43 93.7507 501.404 93.5928 501.352 93.4561C501.299 93.3161 501.221 93.1973 501.117 93.0996C501.013 93.002 500.886 92.9271 500.736 92.875C500.587 92.8197 500.416 92.7904 500.224 92.7871H498.876ZM498.876 91.8936H499.994C500.186 91.8903 500.362 91.8643 500.521 91.8154C500.684 91.7666 500.821 91.695 500.932 91.6006C501.033 91.516 501.112 91.4134 501.171 91.293C501.229 91.1725 501.259 91.0342 501.259 90.8779C501.259 90.7119 501.231 90.5687 501.176 90.4482C501.124 90.3245 501.049 90.2236 500.951 90.1455C500.84 90.0479 500.702 89.9779 500.536 89.9355C500.37 89.89 500.186 89.8656 499.984 89.8623H498.876V91.8936ZM508.162 94.3643H505.931L505.447 96H504.227L506.541 88.8906H507.581L509.856 96H508.641L508.162 94.3643ZM506.229 93.3584H507.874L507.059 90.5459L506.229 93.3584ZM515.422 94.1689C515.422 94.0029 515.388 93.8564 515.319 93.7295C515.251 93.6025 515.155 93.4886 515.031 93.3877C514.901 93.2933 514.746 93.2087 514.567 93.1338C514.392 93.0557 514.195 92.9857 513.977 92.9238C513.641 92.8294 513.332 92.7139 513.049 92.5771C512.769 92.4372 512.53 92.2809 512.331 92.1084C512.132 91.9326 511.976 91.734 511.862 91.5127C511.752 91.2881 511.696 91.0358 511.696 90.7559C511.696 90.4531 511.761 90.1813 511.892 89.9404C512.022 89.6963 512.198 89.488 512.419 89.3154C512.64 89.1462 512.897 89.0176 513.19 88.9297C513.487 88.8385 513.798 88.793 514.123 88.793C514.468 88.793 514.789 88.8467 515.085 88.9541C515.384 89.0583 515.645 89.2048 515.866 89.3936C516.088 89.5856 516.262 89.8151 516.389 90.082C516.519 90.3457 516.584 90.6387 516.584 90.9609H515.422C515.406 90.7819 515.367 90.6191 515.305 90.4727C515.246 90.3229 515.163 90.1943 515.056 90.0869C514.945 89.9827 514.81 89.9014 514.65 89.8428C514.494 89.7809 514.313 89.75 514.108 89.75C513.929 89.75 513.763 89.7744 513.61 89.8232C513.461 89.8688 513.33 89.9339 513.22 90.0186C513.109 90.1064 513.023 90.2122 512.961 90.3359C512.899 90.4596 512.868 90.598 512.868 90.751C512.871 90.9137 512.914 91.057 512.995 91.1807C513.076 91.3011 513.186 91.4069 513.322 91.498C513.462 91.5892 513.622 91.6689 513.801 91.7373C513.983 91.8057 514.174 91.8691 514.372 91.9277C514.623 91.9993 514.867 92.0889 515.104 92.1963C515.345 92.3005 515.567 92.4274 515.769 92.5771C516.019 92.766 516.219 92.9922 516.369 93.2559C516.522 93.5163 516.599 93.8174 516.599 94.1592C516.599 94.4749 516.532 94.7533 516.398 94.9941C516.268 95.235 516.092 95.4352 515.871 95.5947C515.646 95.7607 515.386 95.8861 515.09 95.9707C514.794 96.0521 514.481 96.0928 514.152 96.0928C513.804 96.0928 513.461 96.0391 513.122 95.9316C512.784 95.821 512.489 95.6615 512.238 95.4531C512.007 95.2578 511.823 95.0283 511.687 94.7646C511.553 94.501 511.485 94.1982 511.481 93.8564H512.653C512.67 94.0745 512.715 94.265 512.79 94.4277C512.868 94.5872 512.974 94.7191 513.107 94.8232C513.238 94.9307 513.391 95.0104 513.566 95.0625C513.745 95.1146 513.941 95.1406 514.152 95.1406C514.331 95.1406 514.497 95.1195 514.65 95.0771C514.807 95.0348 514.942 94.9714 515.056 94.8867C515.166 94.8053 515.254 94.7044 515.319 94.584C515.388 94.4635 515.422 94.3252 515.422 94.1689ZM522.901 92.8115H519.962V95.0332H523.395V96H518.785V88.8906H523.37V89.8623H519.962V91.8643H522.901V92.8115Z" fill="#8B9CCC"/>
<path fill-rule="evenodd" clip-rule="evenodd" d="M120.526 120.934H120.002V121.458V162.829V163.353V163.877V204.725V205.248V205.772V246.62V247.144V247.667V288.515V289.039V289.563V330.934V331.458H120.526H161.896H162.42H162.421H162.945H203.791H204.315H204.315H204.839H245.689H246.21H246.213H246.734H287.584H288.108H288.108H288.632H329.479H330.002H330.003H330.527H371.371H371.895H371.897H372.421H413.268H413.79H413.791H414.314H455.166H455.687H455.69H456.21H497.059H497.582H497.585H498.109H539.478H540.001V330.934V289.563V289.039V288.515V247.667V247.144V246.62V205.772V205.248V204.725V163.877V163.353V162.829V121.458V120.934H539.478H498.109H497.585H497.582H497.059H456.21H455.69H455.687H455.166H414.314H413.791H413.79H413.268H372.421H371.897H371.895H371.371H330.527H330.003H330.002H329.479H288.632H288.108H288.108H287.584H246.734H246.213H246.21H245.689H204.839H204.315H204.315H203.791H162.945H162.421H162.42H161.896H120.526ZM538.954 288.515V247.667H498.109V288.515H538.954ZM497.059 288.515V247.667H456.213V288.515H497.059ZM538.954 289.563L498.109 289.563V330.41H538.954V289.563ZM497.059 289.563L456.213 289.563V330.41H497.059V289.563ZM455.163 289.563H414.315V330.41H455.163V289.563ZM455.163 288.515V247.667H414.315V288.515H455.163ZM330.527 289.563H371.371V330.41H330.527V289.563ZM413.266 288.515H372.421V247.667H413.266V288.515ZM330.527 288.515H371.371V247.667H330.527V288.515ZM413.266 330.41H372.421V289.563L413.266 289.563V330.41ZM329.479 289.563H288.632V330.41H329.479V289.563ZM329.479 288.515H288.632V247.667H329.479V288.515ZM246.737 289.563L287.584 289.563V330.41H246.737V289.563ZM246.737 288.515H287.584V247.667H246.737V288.515ZM162.945 289.563H203.791V330.41H162.945V289.563ZM245.686 288.515H204.839V247.667H245.686V288.515ZM162.945 288.515H203.791V247.667H162.945V288.515ZM245.686 330.41H204.839V289.563L245.686 289.563V330.41ZM161.896 289.563L121.049 289.563V330.41H161.896V289.563ZM161.896 288.515H121.049V247.667H161.896V288.515ZM538.954 246.62V205.772H498.109V246.62H538.954ZM497.059 246.62V205.772H456.213V246.62H497.059ZM455.163 246.62V205.772H414.315V246.62H455.163ZM413.266 246.62H372.421V205.772H413.266V246.62ZM330.527 246.62H371.371V205.772H330.527V246.62ZM329.479 246.62H288.632V205.772H329.479V246.62ZM246.737 246.62H287.584V205.772H246.737V246.62ZM245.686 246.62H204.839V205.772H245.686V246.62ZM162.945 246.62H203.791V205.772H162.945V246.62ZM161.896 246.62H121.049V205.772H161.896V246.62ZM538.954 204.725V163.877H498.109V204.725H538.954ZM497.059 204.725V163.877H456.213V204.725H497.059ZM455.163 204.725V163.877H414.315V204.725H455.163ZM413.266 204.725H372.421V163.877H413.266V204.725ZM330.527 204.725H371.371V163.877H330.527V204.725ZM329.479 204.725H288.632V163.877H329.479V204.725ZM246.737 204.725H287.584V163.877H246.737V204.725ZM245.686 204.725H204.839V163.877H245.686V204.725ZM162.945 204.725H203.791V163.877H162.945V204.725ZM161.896 204.725H121.049V163.877H161.896V204.725ZM538.954 162.829V121.981H498.109V162.829H538.954ZM497.059 162.829V121.981H456.213V162.829H497.059ZM455.163 162.829V121.981H414.315V162.829H455.163ZM413.266 162.829H372.421V121.981H413.266V162.829ZM330.527 162.829H371.371V121.981H330.527V162.829ZM329.479 162.829H288.632V121.981H329.479V162.829ZM246.737 162.829H287.584V121.981H246.737V162.829ZM245.686 162.829H204.839V121.981H245.686V162.829ZM162.945 162.829H203.791V121.981H162.945V162.829ZM161.896 162.829H121.049V121.981H161.896V162.829Z" fill="url(#paint2_linear_2739_5438)"/>
<path d="M95.1328 127H94.1914V122.469L92.7344 123.004V122.18L95.0742 121.312H95.1328V127ZM100.199 121.285V122.078H100.137C99.8268 122.078 99.5573 122.121 99.3281 122.207C99.1016 122.29 98.9102 122.408 98.7539 122.559C98.5951 122.71 98.4714 122.891 98.3828 123.102C98.2969 123.312 98.2435 123.539 98.2227 123.781C98.2852 123.711 98.3581 123.643 98.4414 123.578C98.5247 123.51 98.6172 123.451 98.7188 123.398C98.8151 123.349 98.9219 123.31 99.0391 123.281C99.1562 123.25 99.2799 123.234 99.4102 123.234C99.6862 123.234 99.9258 123.286 100.129 123.391C100.335 123.495 100.504 123.635 100.637 123.812C100.772 123.99 100.871 124.193 100.934 124.422C100.999 124.651 101.031 124.889 101.031 125.137C101.031 125.408 100.99 125.661 100.906 125.898C100.826 126.133 100.707 126.337 100.551 126.512C100.392 126.689 100.198 126.828 99.9688 126.93C99.7422 127.029 99.4831 127.078 99.1914 127.078C98.8919 127.078 98.625 127.021 98.3906 126.906C98.1562 126.792 97.9583 126.637 97.7969 126.441C97.625 126.238 97.4948 126 97.4062 125.727C97.3177 125.451 97.2734 125.16 97.2734 124.855V124.469C97.2734 124.01 97.332 123.574 97.4492 123.16C97.569 122.743 97.7669 122.385 98.043 122.086C98.2773 121.828 98.5664 121.63 98.9102 121.492C99.2539 121.354 99.6471 121.285 100.09 121.285H100.199ZM99.1797 123.992C99.0677 123.992 98.9609 124.009 98.8594 124.043C98.7578 124.077 98.6641 124.124 98.5781 124.184C98.5 124.243 98.4297 124.312 98.3672 124.391C98.3047 124.469 98.2526 124.556 98.2109 124.652V124.941C98.2109 125.168 98.2357 125.367 98.2852 125.539C98.3372 125.711 98.4076 125.854 98.4961 125.969C98.5846 126.083 98.6875 126.171 98.8047 126.23C98.9219 126.29 99.0469 126.32 99.1797 126.32C99.3255 126.32 99.4557 126.292 99.5703 126.234C99.6849 126.174 99.7826 126.094 99.8633 125.992C99.944 125.888 100.005 125.766 100.047 125.625C100.089 125.482 100.109 125.327 100.109 125.16C100.109 125.001 100.089 124.852 100.047 124.711C100.008 124.568 99.9492 124.443 99.8711 124.336C99.793 124.229 99.6953 124.146 99.5781 124.086C99.4635 124.023 99.3307 123.992 99.1797 123.992ZM105.863 124.832C105.863 125.197 105.82 125.52 105.734 125.801C105.651 126.079 105.53 126.312 105.371 126.5C105.215 126.693 105.022 126.839 104.793 126.938C104.566 127.034 104.309 127.082 104.02 127.082C103.733 127.082 103.475 127.034 103.246 126.938C103.017 126.839 102.823 126.693 102.664 126.5C102.503 126.312 102.379 126.079 102.293 125.801C102.21 125.52 102.168 125.197 102.168 124.832V123.484C102.168 123.12 102.21 122.798 102.293 122.52C102.379 122.238 102.501 122.001 102.66 121.809C102.819 121.618 103.012 121.475 103.238 121.379C103.467 121.28 103.725 121.23 104.012 121.23C104.301 121.23 104.559 121.28 104.785 121.379C105.014 121.475 105.21 121.618 105.371 121.809C105.527 122.001 105.648 122.238 105.734 122.52C105.82 122.798 105.863 123.12 105.863 123.484V124.832ZM103.105 124.5L104.914 123.129C104.904 122.926 104.875 122.75 104.828 122.602C104.784 122.453 104.72 122.332 104.637 122.238C104.564 122.155 104.474 122.092 104.367 122.051C104.263 122.009 104.145 121.988 104.012 121.988C103.868 121.988 103.742 122.013 103.633 122.062C103.523 122.112 103.432 122.185 103.359 122.281C103.273 122.391 103.21 122.533 103.168 122.707C103.126 122.879 103.105 123.082 103.105 123.316V124.082C103.105 124.181 103.105 124.257 103.105 124.309C103.105 124.361 103.105 124.424 103.105 124.5ZM104.922 124.988V124.27C104.922 124.204 104.922 124.137 104.922 124.066C104.922 123.996 104.922 123.923 104.922 123.848L103.113 125.211C103.126 125.391 103.154 125.549 103.195 125.688C103.24 125.826 103.298 125.94 103.371 126.031C103.444 126.13 103.534 126.204 103.641 126.254C103.75 126.303 103.876 126.328 104.02 126.328C104.16 126.328 104.284 126.305 104.391 126.258C104.497 126.208 104.589 126.137 104.664 126.043C104.75 125.934 104.814 125.79 104.855 125.613C104.9 125.436 104.922 125.228 104.922 124.988ZM110.668 124.832C110.668 125.197 110.625 125.52 110.539 125.801C110.456 126.079 110.335 126.312 110.176 126.5C110.02 126.693 109.827 126.839 109.598 126.938C109.371 127.034 109.113 127.082 108.824 127.082C108.538 127.082 108.28 127.034 108.051 126.938C107.822 126.839 107.628 126.693 107.469 126.5C107.307 126.312 107.184 126.079 107.098 125.801C107.014 125.52 106.973 125.197 106.973 124.832V123.484C106.973 123.12 107.014 122.798 107.098 122.52C107.184 122.238 107.306 122.001 107.465 121.809C107.624 121.618 107.816 121.475 108.043 121.379C108.272 121.28 108.53 121.23 108.816 121.23C109.105 121.23 109.363 121.28 109.59 121.379C109.819 121.475 110.014 121.618 110.176 121.809C110.332 122.001 110.453 122.238 110.539 122.52C110.625 122.798 110.668 123.12 110.668 123.484V124.832ZM107.91 124.5L109.719 123.129C109.708 122.926 109.68 122.75 109.633 122.602C109.589 122.453 109.525 122.332 109.441 122.238C109.368 122.155 109.279 122.092 109.172 122.051C109.068 122.009 108.949 121.988 108.816 121.988C108.673 121.988 108.547 122.013 108.438 122.062C108.328 122.112 108.237 122.185 108.164 122.281C108.078 122.391 108.014 122.533 107.973 122.707C107.931 122.879 107.91 123.082 107.91 123.316V124.082C107.91 124.181 107.91 124.257 107.91 124.309C107.91 124.361 107.91 124.424 107.91 124.5ZM109.727 124.988V124.27C109.727 124.204 109.727 124.137 109.727 124.066C109.727 123.996 109.727 123.923 109.727 123.848L107.918 125.211C107.931 125.391 107.958 125.549 108 125.688C108.044 125.826 108.103 125.94 108.176 126.031C108.249 126.13 108.339 126.204 108.445 126.254C108.555 126.303 108.681 126.328 108.824 126.328C108.965 126.328 109.089 126.305 109.195 126.258C109.302 126.208 109.393 126.137 109.469 126.043C109.555 125.934 109.618 125.79 109.66 125.613C109.704 125.436 109.727 125.228 109.727 124.988Z" fill="#5069AD"/>
<path d="M95.1328 163H94.1914V158.469L92.7344 159.004V158.18L95.0742 157.312H95.1328V163ZM101.031 163H97.2148V162.352L99.0664 160.336C99.2201 160.167 99.349 160.016 99.4531 159.883C99.5573 159.747 99.6419 159.624 99.707 159.512C99.7695 159.4 99.8138 159.296 99.8398 159.199C99.8685 159.1 99.8828 159.001 99.8828 158.902C99.8828 158.77 99.8633 158.648 99.8242 158.539C99.7852 158.43 99.7279 158.336 99.6523 158.258C99.5768 158.18 99.4857 158.118 99.3789 158.074C99.2747 158.03 99.1576 158.008 99.0273 158.008C98.8607 158.008 98.7161 158.031 98.5938 158.078C98.4714 158.125 98.3698 158.191 98.2891 158.277C98.2057 158.368 98.1432 158.479 98.1016 158.609C98.0599 158.737 98.0391 158.883 98.0391 159.047H97.1016C97.1016 158.799 97.1471 158.566 97.2383 158.348C97.3294 158.126 97.4596 157.934 97.6289 157.77C97.7956 157.605 97.9987 157.475 98.2383 157.379C98.4805 157.283 98.75 157.234 99.0469 157.234C99.3255 157.234 99.5742 157.275 99.793 157.355C100.014 157.436 100.201 157.548 100.352 157.691C100.5 157.835 100.613 158.007 100.691 158.207C100.77 158.405 100.809 158.624 100.809 158.863C100.809 159.043 100.779 159.217 100.719 159.387C100.661 159.553 100.582 159.719 100.48 159.883C100.376 160.047 100.253 160.212 100.109 160.379C99.9688 160.546 99.8151 160.717 99.6484 160.895L98.3828 162.246H101.031V163ZM105.863 160.832C105.863 161.197 105.82 161.52 105.734 161.801C105.651 162.079 105.53 162.312 105.371 162.5C105.215 162.693 105.022 162.839 104.793 162.938C104.566 163.034 104.309 163.082 104.02 163.082C103.733 163.082 103.475 163.034 103.246 162.938C103.017 162.839 102.823 162.693 102.664 162.5C102.503 162.312 102.379 162.079 102.293 161.801C102.21 161.52 102.168 161.197 102.168 160.832V159.484C102.168 159.12 102.21 158.798 102.293 158.52C102.379 158.238 102.501 158.001 102.66 157.809C102.819 157.618 103.012 157.475 103.238 157.379C103.467 157.28 103.725 157.23 104.012 157.23C104.301 157.23 104.559 157.28 104.785 157.379C105.014 157.475 105.21 157.618 105.371 157.809C105.527 158.001 105.648 158.238 105.734 158.52C105.82 158.798 105.863 159.12 105.863 159.484V160.832ZM103.105 160.5L104.914 159.129C104.904 158.926 104.875 158.75 104.828 158.602C104.784 158.453 104.72 158.332 104.637 158.238C104.564 158.155 104.474 158.092 104.367 158.051C104.263 158.009 104.145 157.988 104.012 157.988C103.868 157.988 103.742 158.013 103.633 158.062C103.523 158.112 103.432 158.185 103.359 158.281C103.273 158.391 103.21 158.533 103.168 158.707C103.126 158.879 103.105 159.082 103.105 159.316V160.082C103.105 160.181 103.105 160.257 103.105 160.309C103.105 160.361 103.105 160.424 103.105 160.5ZM104.922 160.988V160.27C104.922 160.204 104.922 160.137 104.922 160.066C104.922 159.996 104.922 159.923 104.922 159.848L103.113 161.211C103.126 161.391 103.154 161.549 103.195 161.688C103.24 161.826 103.298 161.94 103.371 162.031C103.444 162.13 103.534 162.204 103.641 162.254C103.75 162.303 103.876 162.328 104.02 162.328C104.16 162.328 104.284 162.305 104.391 162.258C104.497 162.208 104.589 162.137 104.664 162.043C104.75 161.934 104.814 161.79 104.855 161.613C104.9 161.436 104.922 161.228 104.922 160.988ZM110.668 160.832C110.668 161.197 110.625 161.52 110.539 161.801C110.456 162.079 110.335 162.312 110.176 162.5C110.02 162.693 109.827 162.839 109.598 162.938C109.371 163.034 109.113 163.082 108.824 163.082C108.538 163.082 108.28 163.034 108.051 162.938C107.822 162.839 107.628 162.693 107.469 162.5C107.307 162.312 107.184 162.079 107.098 161.801C107.014 161.52 106.973 161.197 106.973 160.832V159.484C106.973 159.12 107.014 158.798 107.098 158.52C107.184 158.238 107.306 158.001 107.465 157.809C107.624 157.618 107.816 157.475 108.043 157.379C108.272 157.28 108.53 157.23 108.816 157.23C109.105 157.23 109.363 157.28 109.59 157.379C109.819 157.475 110.014 157.618 110.176 157.809C110.332 158.001 110.453 158.238 110.539 158.52C110.625 158.798 110.668 159.12 110.668 159.484V160.832ZM107.91 160.5L109.719 159.129C109.708 158.926 109.68 158.75 109.633 158.602C109.589 158.453 109.525 158.332 109.441 158.238C109.368 158.155 109.279 158.092 109.172 158.051C109.068 158.009 108.949 157.988 108.816 157.988C108.673 157.988 108.547 158.013 108.438 158.062C108.328 158.112 108.237 158.185 108.164 158.281C108.078 158.391 108.014 158.533 107.973 158.707C107.931 158.879 107.91 159.082 107.91 159.316V160.082C107.91 160.181 107.91 160.257 107.91 160.309C107.91 160.361 107.91 160.424 107.91 160.5ZM109.727 160.988V160.27C109.727 160.204 109.727 160.137 109.727 160.066C109.727 159.996 109.727 159.923 109.727 159.848L107.918 161.211C107.931 161.391 107.958 161.549 108 161.688C108.044 161.826 108.103 161.94 108.176 162.031C108.249 162.13 108.339 162.204 108.445 162.254C108.555 162.303 108.681 162.328 108.824 162.328C108.965 162.328 109.089 162.305 109.195 162.258C109.302 162.208 109.393 162.137 109.469 162.043C109.555 161.934 109.618 161.79 109.66 161.613C109.704 161.436 109.727 161.228 109.727 160.988Z" fill="#5069AD"/>
<path d="M96.1445 194.812C96.1445 194.984 96.1159 195.145 96.0586 195.293C96.0039 195.441 95.9258 195.574 95.8242 195.691C95.7617 195.767 95.6901 195.837 95.6094 195.902C95.5286 195.967 95.4388 196.025 95.3398 196.074C95.457 196.129 95.5651 196.193 95.6641 196.266C95.7656 196.336 95.8542 196.418 95.9297 196.512C96.0365 196.637 96.1198 196.779 96.1797 196.938C96.2396 197.096 96.2695 197.268 96.2695 197.453C96.2695 197.716 96.2214 197.949 96.125 198.152C96.0286 198.355 95.8971 198.525 95.7305 198.66C95.5612 198.798 95.3633 198.902 95.1367 198.973C94.9128 199.043 94.6706 199.078 94.4102 199.078C94.1445 199.078 93.8971 199.043 93.668 198.973C93.4414 198.902 93.2448 198.798 93.0781 198.66C92.9089 198.525 92.776 198.357 92.6797 198.156C92.5859 197.953 92.5391 197.719 92.5391 197.453C92.5391 197.297 92.5599 197.148 92.6016 197.008C92.6458 196.867 92.7083 196.737 92.7891 196.617C92.8698 196.503 92.9661 196.4 93.0781 196.309C93.1927 196.215 93.3203 196.135 93.4609 196.07C93.3411 196.01 93.2318 195.938 93.1328 195.852C93.0365 195.766 92.9544 195.671 92.8867 195.566C92.8164 195.46 92.7617 195.342 92.7227 195.215C92.6836 195.087 92.6641 194.953 92.6641 194.812C92.6641 194.56 92.707 194.336 92.793 194.141C92.8815 193.945 93.0026 193.78 93.1562 193.645C93.3073 193.509 93.4883 193.408 93.6992 193.34C93.9128 193.27 94.1458 193.234 94.3984 193.234C94.6484 193.234 94.8789 193.27 95.0898 193.34C95.3034 193.408 95.4896 193.509 95.6484 193.645C95.8021 193.777 95.9232 193.943 96.0117 194.141C96.1003 194.336 96.1445 194.56 96.1445 194.812ZM95.3359 197.402C95.3359 197.262 95.3125 197.134 95.2656 197.02C95.2214 196.902 95.1589 196.801 95.0781 196.715C94.9948 196.634 94.8958 196.572 94.7812 196.527C94.6667 196.483 94.5404 196.461 94.4023 196.461C94.2591 196.461 94.1302 196.483 94.0156 196.527C93.9036 196.572 93.8073 196.634 93.7266 196.715C93.6458 196.801 93.5833 196.902 93.5391 197.02C93.4974 197.134 93.4766 197.263 93.4766 197.406C93.4766 197.552 93.4987 197.684 93.543 197.801C93.5872 197.915 93.651 198.012 93.7344 198.09C93.8151 198.165 93.9115 198.224 94.0234 198.266C94.138 198.305 94.2669 198.324 94.4102 198.324C94.5456 198.324 94.6693 198.303 94.7812 198.262C94.8958 198.22 94.9948 198.16 95.0781 198.082C95.1562 198.001 95.2188 197.905 95.2656 197.793C95.3125 197.678 95.3359 197.548 95.3359 197.402ZM95.2148 194.848C95.2148 194.72 95.194 194.604 95.1523 194.5C95.1133 194.396 95.0586 194.305 94.9883 194.227C94.9154 194.154 94.8294 194.096 94.7305 194.055C94.6315 194.013 94.5195 193.992 94.3945 193.992C94.2721 193.992 94.1615 194.013 94.0625 194.055C93.9661 194.094 93.8828 194.15 93.8125 194.223C93.7448 194.296 93.6927 194.385 93.6562 194.492C93.6198 194.599 93.6016 194.717 93.6016 194.848C93.6016 194.975 93.6198 195.092 93.6562 195.199C93.6927 195.303 93.7474 195.392 93.8203 195.465C93.8906 195.54 93.9753 195.599 94.0742 195.641C94.1732 195.682 94.2839 195.703 94.4062 195.703C94.5286 195.703 94.6393 195.682 94.7383 195.641C94.8372 195.599 94.9219 195.54 94.9922 195.465C95.0625 195.392 95.1172 195.303 95.1562 195.199C95.1953 195.092 95.2148 194.975 95.2148 194.848ZM101.059 196.832C101.059 197.197 101.016 197.52 100.93 197.801C100.846 198.079 100.725 198.312 100.566 198.5C100.41 198.693 100.217 198.839 99.9883 198.938C99.7617 199.034 99.5039 199.082 99.2148 199.082C98.9284 199.082 98.6706 199.034 98.4414 198.938C98.2122 198.839 98.0182 198.693 97.8594 198.5C97.6979 198.312 97.5742 198.079 97.4883 197.801C97.4049 197.52 97.3633 197.197 97.3633 196.832V195.484C97.3633 195.12 97.4049 194.798 97.4883 194.52C97.5742 194.238 97.6966 194.001 97.8555 193.809C98.0143 193.618 98.207 193.475 98.4336 193.379C98.6628 193.28 98.9206 193.23 99.207 193.23C99.4961 193.23 99.7539 193.28 99.9805 193.379C100.21 193.475 100.405 193.618 100.566 193.809C100.723 194.001 100.844 194.238 100.93 194.52C101.016 194.798 101.059 195.12 101.059 195.484V196.832ZM98.3008 196.5L100.109 195.129C100.099 194.926 100.07 194.75 100.023 194.602C99.9792 194.453 99.9154 194.332 99.832 194.238C99.7591 194.155 99.6693 194.092 99.5625 194.051C99.4583 194.009 99.3398 193.988 99.207 193.988C99.0638 193.988 98.9375 194.013 98.8281 194.062C98.7188 194.112 98.6276 194.185 98.5547 194.281C98.4688 194.391 98.4049 194.533 98.3633 194.707C98.3216 194.879 98.3008 195.082 98.3008 195.316V196.082C98.3008 196.181 98.3008 196.257 98.3008 196.309C98.3008 196.361 98.3008 196.424 98.3008 196.5ZM100.117 196.988V196.27C100.117 196.204 100.117 196.137 100.117 196.066C100.117 195.996 100.117 195.923 100.117 195.848L98.3086 197.211C98.3216 197.391 98.349 197.549 98.3906 197.688C98.4349 197.826 98.4935 197.94 98.5664 198.031C98.6393 198.13 98.7292 198.204 98.8359 198.254C98.9453 198.303 99.0716 198.328 99.2148 198.328C99.3555 198.328 99.4792 198.305 99.5859 198.258C99.6927 198.208 99.7839 198.137 99.8594 198.043C99.9453 197.934 100.009 197.79 100.051 197.613C100.095 197.436 100.117 197.228 100.117 196.988ZM105.863 196.832C105.863 197.197 105.82 197.52 105.734 197.801C105.651 198.079 105.53 198.312 105.371 198.5C105.215 198.693 105.022 198.839 104.793 198.938C104.566 199.034 104.309 199.082 104.02 199.082C103.733 199.082 103.475 199.034 103.246 198.938C103.017 198.839 102.823 198.693 102.664 198.5C102.503 198.312 102.379 198.079 102.293 197.801C102.21 197.52 102.168 197.197 102.168 196.832V195.484C102.168 195.12 102.21 194.798 102.293 194.52C102.379 194.238 102.501 194.001 102.66 193.809C102.819 193.618 103.012 193.475 103.238 193.379C103.467 193.28 103.725 193.23 104.012 193.23C104.301 193.23 104.559 193.28 104.785 193.379C105.014 193.475 105.21 193.618 105.371 193.809C105.527 194.001 105.648 194.238 105.734 194.52C105.82 194.798 105.863 195.12 105.863 195.484V196.832ZM103.105 196.5L104.914 195.129C104.904 194.926 104.875 194.75 104.828 194.602C104.784 194.453 104.72 194.332 104.637 194.238C104.564 194.155 104.474 194.092 104.367 194.051C104.263 194.009 104.145 193.988 104.012 193.988C103.868 193.988 103.742 194.013 103.633 194.062C103.523 194.112 103.432 194.185 103.359 194.281C103.273 194.391 103.21 194.533 103.168 194.707C103.126 194.879 103.105 195.082 103.105 195.316V196.082C103.105 196.181 103.105 196.257 103.105 196.309C103.105 196.361 103.105 196.424 103.105 196.5ZM104.922 196.988V196.27C104.922 196.204 104.922 196.137 104.922 196.066C104.922 195.996 104.922 195.923 104.922 195.848L103.113 197.211C103.126 197.391 103.154 197.549 103.195 197.688C103.24 197.826 103.298 197.94 103.371 198.031C103.444 198.13 103.534 198.204 103.641 198.254C103.75 198.303 103.876 198.328 104.02 198.328C104.16 198.328 104.284 198.305 104.391 198.258C104.497 198.208 104.589 198.137 104.664 198.043C104.75 197.934 104.814 197.79 104.855 197.613C104.9 197.436 104.922 197.228 104.922 196.988Z" fill="#5069AD"/>
<path d="M95.6758 232.973H96.3906V233.73H95.6758V235H94.7422V233.73H92.2812L92.2578 233.156L94.7148 229.312H95.6758V232.973ZM93.2109 232.973H94.7422V230.562L94.6328 230.766L93.2109 232.973ZM101.059 232.832C101.059 233.197 101.016 233.52 100.93 233.801C100.846 234.079 100.725 234.312 100.566 234.5C100.41 234.693 100.217 234.839 99.9883 234.938C99.7617 235.034 99.5039 235.082 99.2148 235.082C98.9284 235.082 98.6706 235.034 98.4414 234.938C98.2122 234.839 98.0182 234.693 97.8594 234.5C97.6979 234.312 97.5742 234.079 97.4883 233.801C97.4049 233.52 97.3633 233.197 97.3633 232.832V231.484C97.3633 231.12 97.4049 230.798 97.4883 230.52C97.5742 230.238 97.6966 230.001 97.8555 229.809C98.0143 229.618 98.207 229.475 98.4336 229.379C98.6628 229.28 98.9206 229.23 99.207 229.23C99.4961 229.23 99.7539 229.28 99.9805 229.379C100.21 229.475 100.405 229.618 100.566 229.809C100.723 230.001 100.844 230.238 100.93 230.52C101.016 230.798 101.059 231.12 101.059 231.484V232.832ZM98.3008 232.5L100.109 231.129C100.099 230.926 100.07 230.75 100.023 230.602C99.9792 230.453 99.9154 230.332 99.832 230.238C99.7591 230.155 99.6693 230.092 99.5625 230.051C99.4583 230.009 99.3398 229.988 99.207 229.988C99.0638 229.988 98.9375 230.013 98.8281 230.062C98.7188 230.112 98.6276 230.185 98.5547 230.281C98.4688 230.391 98.4049 230.533 98.3633 230.707C98.3216 230.879 98.3008 231.082 98.3008 231.316V232.082C98.3008 232.181 98.3008 232.257 98.3008 232.309C98.3008 232.361 98.3008 232.424 98.3008 232.5ZM100.117 232.988V232.27C100.117 232.204 100.117 232.137 100.117 232.066C100.117 231.996 100.117 231.923 100.117 231.848L98.3086 233.211C98.3216 233.391 98.349 233.549 98.3906 233.688C98.4349 233.826 98.4935 233.94 98.5664 234.031C98.6393 234.13 98.7292 234.204 98.8359 234.254C98.9453 234.303 99.0716 234.328 99.2148 234.328C99.3555 234.328 99.4792 234.305 99.5859 234.258C99.6927 234.208 99.7839 234.137 99.8594 234.043C99.9453 233.934 100.009 233.79 100.051 233.613C100.095 233.436 100.117 233.228 100.117 232.988ZM105.863 232.832C105.863 233.197 105.82 233.52 105.734 233.801C105.651 234.079 105.53 234.312 105.371 234.5C105.215 234.693 105.022 234.839 104.793 234.938C104.566 235.034 104.309 235.082 104.02 235.082C103.733 235.082 103.475 235.034 103.246 234.938C103.017 234.839 102.823 234.693 102.664 234.5C102.503 234.312 102.379 234.079 102.293 233.801C102.21 233.52 102.168 233.197 102.168 232.832V231.484C102.168 231.12 102.21 230.798 102.293 230.52C102.379 230.238 102.501 230.001 102.66 229.809C102.819 229.618 103.012 229.475 103.238 229.379C103.467 229.28 103.725 229.23 104.012 229.23C104.301 229.23 104.559 229.28 104.785 229.379C105.014 229.475 105.21 229.618 105.371 229.809C105.527 230.001 105.648 230.238 105.734 230.52C105.82 230.798 105.863 231.12 105.863 231.484V232.832ZM103.105 232.5L104.914 231.129C104.904 230.926 104.875 230.75 104.828 230.602C104.784 230.453 104.72 230.332 104.637 230.238C104.564 230.155 104.474 230.092 104.367 230.051C104.263 230.009 104.145 229.988 104.012 229.988C103.868 229.988 103.742 230.013 103.633 230.062C103.523 230.112 103.432 230.185 103.359 230.281C103.273 230.391 103.21 230.533 103.168 230.707C103.126 230.879 103.105 231.082 103.105 231.316V232.082C103.105 232.181 103.105 232.257 103.105 232.309C103.105 232.361 103.105 232.424 103.105 232.5ZM104.922 232.988V232.27C104.922 232.204 104.922 232.137 104.922 232.066C104.922 231.996 104.922 231.923 104.922 231.848L103.113 233.211C103.126 233.391 103.154 233.549 103.195 233.688C103.24 233.826 103.298 233.94 103.371 234.031C103.444 234.13 103.534 234.204 103.641 234.254C103.75 234.303 103.876 234.328 104.02 234.328C104.16 234.328 104.284 234.305 104.391 234.258C104.497 234.208 104.589 234.137 104.664 234.043C104.75 233.934 104.814 233.79 104.855 233.613C104.9 233.436 104.922 233.228 104.922 232.988Z" fill="#5069AD"/>
<path d="M96.2266 271H92.4102V270.352L94.2617 268.336C94.4154 268.167 94.5443 268.016 94.6484 267.883C94.7526 267.747 94.8372 267.624 94.9023 267.512C94.9648 267.4 95.0091 267.296 95.0352 267.199C95.0638 267.1 95.0781 267.001 95.0781 266.902C95.0781 266.77 95.0586 266.648 95.0195 266.539C94.9805 266.43 94.9232 266.336 94.8477 266.258C94.7721 266.18 94.681 266.118 94.5742 266.074C94.4701 266.03 94.3529 266.008 94.2227 266.008C94.056 266.008 93.9115 266.031 93.7891 266.078C93.6667 266.125 93.5651 266.191 93.4844 266.277C93.401 266.368 93.3385 266.479 93.2969 266.609C93.2552 266.737 93.2344 266.883 93.2344 267.047H92.2969C92.2969 266.799 92.3424 266.566 92.4336 266.348C92.5247 266.126 92.6549 265.934 92.8242 265.77C92.9909 265.605 93.194 265.475 93.4336 265.379C93.6758 265.283 93.9453 265.234 94.2422 265.234C94.5208 265.234 94.7695 265.275 94.9883 265.355C95.2096 265.436 95.3958 265.548 95.5469 265.691C95.6953 265.835 95.8086 266.007 95.8867 266.207C95.9648 266.405 96.0039 266.624 96.0039 266.863C96.0039 267.043 95.974 267.217 95.9141 267.387C95.8568 267.553 95.7773 267.719 95.6758 267.883C95.5716 268.047 95.4479 268.212 95.3047 268.379C95.1641 268.546 95.0104 268.717 94.8438 268.895L93.5781 270.246H96.2266V271ZM101.059 268.832C101.059 269.197 101.016 269.52 100.93 269.801C100.846 270.079 100.725 270.312 100.566 270.5C100.41 270.693 100.217 270.839 99.9883 270.938C99.7617 271.034 99.5039 271.082 99.2148 271.082C98.9284 271.082 98.6706 271.034 98.4414 270.938C98.2122 270.839 98.0182 270.693 97.8594 270.5C97.6979 270.312 97.5742 270.079 97.4883 269.801C97.4049 269.52 97.3633 269.197 97.3633 268.832V267.484C97.3633 267.12 97.4049 266.798 97.4883 266.52C97.5742 266.238 97.6966 266.001 97.8555 265.809C98.0143 265.618 98.207 265.475 98.4336 265.379C98.6628 265.28 98.9206 265.23 99.207 265.23C99.4961 265.23 99.7539 265.28 99.9805 265.379C100.21 265.475 100.405 265.618 100.566 265.809C100.723 266.001 100.844 266.238 100.93 266.52C101.016 266.798 101.059 267.12 101.059 267.484V268.832ZM98.3008 268.5L100.109 267.129C100.099 266.926 100.07 266.75 100.023 266.602C99.9792 266.453 99.9154 266.332 99.832 266.238C99.7591 266.155 99.6693 266.092 99.5625 266.051C99.4583 266.009 99.3398 265.988 99.207 265.988C99.0638 265.988 98.9375 266.013 98.8281 266.062C98.7188 266.112 98.6276 266.185 98.5547 266.281C98.4688 266.391 98.4049 266.533 98.3633 266.707C98.3216 266.879 98.3008 267.082 98.3008 267.316V268.082C98.3008 268.181 98.3008 268.257 98.3008 268.309C98.3008 268.361 98.3008 268.424 98.3008 268.5ZM100.117 268.988V268.27C100.117 268.204 100.117 268.137 100.117 268.066C100.117 267.996 100.117 267.923 100.117 267.848L98.3086 269.211C98.3216 269.391 98.349 269.549 98.3906 269.688C98.4349 269.826 98.4935 269.94 98.5664 270.031C98.6393 270.13 98.7292 270.204 98.8359 270.254C98.9453 270.303 99.0716 270.328 99.2148 270.328C99.3555 270.328 99.4792 270.305 99.5859 270.258C99.6927 270.208 99.7839 270.137 99.8594 270.043C99.9453 269.934 100.009 269.79 100.051 269.613C100.095 269.436 100.117 269.228 100.117 268.988ZM105.863 268.832C105.863 269.197 105.82 269.52 105.734 269.801C105.651 270.079 105.53 270.312 105.371 270.5C105.215 270.693 105.022 270.839 104.793 270.938C104.566 271.034 104.309 271.082 104.02 271.082C103.733 271.082 103.475 271.034 103.246 270.938C103.017 270.839 102.823 270.693 102.664 270.5C102.503 270.312 102.379 270.079 102.293 269.801C102.21 269.52 102.168 269.197 102.168 268.832V267.484C102.168 267.12 102.21 266.798 102.293 266.52C102.379 266.238 102.501 266.001 102.66 265.809C102.819 265.618 103.012 265.475 103.238 265.379C103.467 265.28 103.725 265.23 104.012 265.23C104.301 265.23 104.559 265.28 104.785 265.379C105.014 265.475 105.21 265.618 105.371 265.809C105.527 266.001 105.648 266.238 105.734 266.52C105.82 266.798 105.863 267.12 105.863 267.484V268.832ZM103.105 268.5L104.914 267.129C104.904 266.926 104.875 266.75 104.828 266.602C104.784 266.453 104.72 266.332 104.637 266.238C104.564 266.155 104.474 266.092 104.367 266.051C104.263 266.009 104.145 265.988 104.012 265.988C103.868 265.988 103.742 266.013 103.633 266.062C103.523 266.112 103.432 266.185 103.359 266.281C103.273 266.391 103.21 266.533 103.168 266.707C103.126 266.879 103.105 267.082 103.105 267.316V268.082C103.105 268.181 103.105 268.257 103.105 268.309C103.105 268.361 103.105 268.424 103.105 268.5ZM104.922 268.988V268.27C104.922 268.204 104.922 268.137 104.922 268.066C104.922 267.996 104.922 267.923 104.922 267.848L103.113 269.211C103.126 269.391 103.154 269.549 103.195 269.688C103.24 269.826 103.298 269.94 103.371 270.031C103.444 270.13 103.534 270.204 103.641 270.254C103.75 270.303 103.876 270.328 104.02 270.328C104.16 270.328 104.284 270.305 104.391 270.258C104.497 270.208 104.589 270.137 104.664 270.043C104.75 269.934 104.814 269.79 104.855 269.613C104.9 269.436 104.922 269.228 104.922 268.988Z" fill="#5069AD"/>
<path d="M96.2539 304.832C96.2539 305.197 96.2109 305.52 96.125 305.801C96.0417 306.079 95.9206 306.312 95.7617 306.5C95.6055 306.693 95.4128 306.839 95.1836 306.938C94.957 307.034 94.6992 307.082 94.4102 307.082C94.1237 307.082 93.8659 307.034 93.6367 306.938C93.4076 306.839 93.2135 306.693 93.0547 306.5C92.8932 306.312 92.7695 306.079 92.6836 305.801C92.6003 305.52 92.5586 305.197 92.5586 304.832V303.484C92.5586 303.12 92.6003 302.798 92.6836 302.52C92.7695 302.238 92.8919 302.001 93.0508 301.809C93.2096 301.618 93.4023 301.475 93.6289 301.379C93.8581 301.28 94.1159 301.23 94.4023 301.23C94.6914 301.23 94.9492 301.28 95.1758 301.379C95.4049 301.475 95.6003 301.618 95.7617 301.809C95.918 302.001 96.0391 302.238 96.125 302.52C96.2109 302.798 96.2539 303.12 96.2539 303.484V304.832ZM93.4961 304.5L95.3047 303.129C95.2943 302.926 95.2656 302.75 95.2188 302.602C95.1745 302.453 95.1107 302.332 95.0273 302.238C94.9544 302.155 94.8646 302.092 94.7578 302.051C94.6536 302.009 94.5352 301.988 94.4023 301.988C94.2591 301.988 94.1328 302.013 94.0234 302.062C93.9141 302.112 93.8229 302.185 93.75 302.281C93.6641 302.391 93.6003 302.533 93.5586 302.707C93.5169 302.879 93.4961 303.082 93.4961 303.316V304.082C93.4961 304.181 93.4961 304.257 93.4961 304.309C93.4961 304.361 93.4961 304.424 93.4961 304.5ZM95.3125 304.988V304.27C95.3125 304.204 95.3125 304.137 95.3125 304.066C95.3125 303.996 95.3125 303.923 95.3125 303.848L93.5039 305.211C93.5169 305.391 93.5443 305.549 93.5859 305.688C93.6302 305.826 93.6888 305.94 93.7617 306.031C93.8346 306.13 93.9245 306.204 94.0312 306.254C94.1406 306.303 94.2669 306.328 94.4102 306.328C94.5508 306.328 94.6745 306.305 94.7812 306.258C94.888 306.208 94.9792 306.137 95.0547 306.043C95.1406 305.934 95.2044 305.79 95.2461 305.613C95.2904 305.436 95.3125 305.228 95.3125 304.988Z" fill="#5069AD"/>
<path d="M120 314C123.958 313.5 131.461 275 139.377 241.5C145.709 214.7 157.182 206.5 168.18 204C183.89 202 195.029 206.5 215.312 206.5C239.648 206.5 254.065 212.5 266.431 206.5C280.218 199.811 298.587 195 322.332 195C346.693 195 379.906 195.14 386.148 193.5C410.883 187 419.788 163.5 456.89 163.5C493.125 163.5 482.615 143 509.823 143C533.257 143 526.148 143 540 143" stroke="url(#paint3_linear_2739_5438)" stroke-width="2" stroke-linejoin="round"/>
<path d="M140.946 238C128.903 274 123.958 313.5 120 314H540V143H509.823C482.615 143 493.125 163.5 456.89 163.5C419.788 163.5 410.883 187 386.148 193.5C379.906 195.14 346.693 195 322.332 195C298.587 195 277.809 196.5 266.431 206.5C255.053 216.5 241.792 206.5 217.456 206.5C197.173 206.5 197.506 200.5 169.227 204C151.945 209 147.803 217.5 140.946 238Z" fill="#DC244C" fill-opacity="0.1"/>
<path d="M120 315C136.758 289 157.65 284.005 175.951 240.574C190.583 205.851 208.102 220.605 222.941 235.582C237.78 250.558 272.899 272.523 286.749 272.523C316.427 272.523 317.911 235.582 340.169 235.582C362.427 235.582 356.492 260.542 381.718 260.542C402.431 260.542 411.198 246.065 418.815 235.582C431.148 218.609 428.789 198.833 446.02 197.143C481.634 193.648 475.203 255.55 502.903 255.55C517.873 255.55 533.075 201.635 540 201.635" stroke="url(#paint4_linear_2739_5438)" stroke-width="2" stroke-linejoin="round"/>
<path d="M175.041 240.574C156.694 284.005 136.758 290 120 314H540V201.635C533.058 201.635 517.818 255.55 502.81 255.55C475.041 255.55 481.488 193.648 445.785 197.143C428.511 198.833 430.876 218.609 418.512 235.582C410.876 246.065 402.087 260.542 381.322 260.542C356.033 260.542 361.983 235.582 339.669 235.582C317.355 235.582 315.868 272.523 286.116 272.523C272.231 272.523 237.025 250.558 222.149 235.582C207.273 220.605 189.71 205.851 175.041 240.574Z" fill="#009999" fill-opacity="0.08"/>
<path d="M120 315C132.908 307.593 152.092 286.419 166.17 282.099C184.414 276.5 195.288 273.64 220.78 278.148C243.121 282.099 253.383 299.171 307.66 278.148C363.759 256.42 383.121 290 405.957 290C433.269 290 439.169 268.765 461.064 268.765C487.872 268.765 492.34 286.543 508.227 286.543C532.057 286.543 537.849 260.206 540 250" stroke="url(#paint5_linear_2739_5438)" stroke-width="2" stroke-linejoin="round"/>
<path d="M166.17 282.099C151.475 283.679 132.908 306.593 120 314H540V250C537.849 260.206 532.057 286.543 508.227 286.543C492.34 286.543 487.872 268.765 461.064 268.765C439.169 268.765 433.269 290 405.957 290C383.121 290 363.759 256.42 307.66 278.148C253.383 299.171 243.121 282.099 220.78 278.148C195.288 273.64 184.539 280.123 166.17 282.099Z" fill="#F5870A" fill-opacity="0.1"/>
</g>
<rect width="480" height="16" transform="translate(60 50)" fill="#161E33"/>
<circle cx="70" cy="58" r="2" fill="#DC2455"/>
<circle cx="78" cy="58" r="2" fill="#EABA25"/>
<circle cx="86" cy="58" r="2" fill="#14A33A"/>
</g>
<defs>
<linearGradient id="paint0_linear_2739_5438" x1="599.999" y1="0.634949" x2="259.164" y2="548.822" gradientUnits="userSpaceOnUse">
<stop stop-color="#F2F6FF"/>
<stop offset="1" stop-color="#AEBDE6"/>
</linearGradient>
<linearGradient id="paint1_linear_2739_5438" x1="84.2243" y1="95.8504" x2="81.4781" y2="95.8504" gradientUnits="userSpaceOnUse">
<stop stop-color="#FF3364"/>
<stop offset="1" stop-color="#C91540" stop-opacity="0"/>
</linearGradient>
<linearGradient id="paint2_linear_2739_5438" x1="542.939" y1="210.804" x2="120.321" y2="221.801" gradientUnits="userSpaceOnUse">
<stop stop-color="#0B193A" stop-opacity="0.58"/>
<stop offset="1" stop-color="#0B193A" stop-opacity="0.21"/>
</linearGradient>
<linearGradient id="paint3_linear_2739_5438" x1="548.394" y1="133.806" x2="137.523" y2="396.784" gradientUnits="userSpaceOnUse">
<stop stop-color="#DC244C"/>
<stop offset="1" stop-color="#DFD5D9"/>
</linearGradient>
<linearGradient id="paint4_linear_2739_5438" x1="550.92" y1="214.551" x2="313.246" y2="500.84" gradientUnits="userSpaceOnUse">
<stop stop-color="#009999"/>
<stop offset="1" stop-color="#DAF4F4"/>
</linearGradient>
<linearGradient id="paint5_linear_2739_5438" x1="560.327" y1="249.638" x2="443.136" y2="486.845" gradientUnits="userSpaceOnUse">
<stop stop-color="#F5870A"/>
<stop offset="1" stop-color="#C5B5A2"/>
</linearGradient>
<clipPath id="clip0_2739_5438">
<rect x="60" y="50" width="480" height="276" rx="8" fill="white"/>
</clipPath>
<clipPath id="clip1_2739_5438">
<rect width="480" height="264" fill="white" transform="translate(60 66)"/>
</clipPath>
<clipPath id="clip2_2739_5438">
<rect width="59.2966" height="20" fill="white" transform="translate(76.0703 82)"/>
</clipPath>
</defs>
</svg>
