<svg width="48" height="48" viewBox="0 0 48 48" fill="none" xmlns="http://www.w3.org/2000/svg">
    <path d="M37.2928 8.70701C37.4803 8.89448 37.7346 8.9998 37.9998 8.9998C38.265 8.9998 38.5193 8.89448 38.7068 8.70701L40.9998 6.41401L43.2928 8.70701C43.4814 8.88917 43.734 8.98996 43.9962 8.98768C44.2584 8.98541 44.5092 8.88024 44.6946 8.69483C44.88 8.50942 44.9852 8.25861 44.9875 7.99641C44.9897 7.73421 44.8889 7.48161 44.7068 7.29301L42.4138 5.00001L44.7068 2.70701C44.8889 2.51841 44.9897 2.26581 44.9875 2.00361C44.9852 1.74141 44.88 1.4906 44.6946 1.30519C44.5092 1.11978 44.2584 1.01461 43.9962 1.01234C43.734 1.01006 43.4814 1.11085 43.2928 1.29301L40.9998 3.58601L38.7068 1.29301C38.5182 1.11085 38.2656 1.01006 38.0034 1.01234C37.7412 1.01461 37.4904 1.11978 37.305 1.30519C37.1196 1.4906 37.0144 1.74141 37.0121 2.00361C37.0098 2.26581 37.1106 2.51841 37.2928 2.70701L39.5858 5.00001L37.2928 7.29301C37.1053 7.48054 37 7.73485 37 8.00001C37 8.26517 37.1053 8.51948 37.2928 8.70701Z" fill="#DC244C"/>
    <path d="M28.2928 17.707C28.4803 17.8945 28.7346 17.9998 28.9998 17.9998C29.265 17.9998 29.5193 17.8945 29.7068 17.707L35.7068 11.707C35.8889 11.5184 35.9897 11.2658 35.9875 11.0036C35.9852 10.7414 35.88 10.4906 35.6946 10.3052C35.5092 10.1198 35.2584 10.0146 34.9962 10.0123C34.734 10.0101 34.4814 10.1109 34.2928 10.293L28.2928 16.293C28.1053 16.4805 28 16.7348 28 17C28 17.2652 28.1053 17.5195 28.2928 17.707Z" fill="#DC244C"/>
    <path d="M27.7253 12.962C27.8145 12.9869 27.9067 12.9997 27.9993 13C28.2166 12.9999 28.428 12.9289 28.6013 12.7979C28.7747 12.6669 28.9007 12.483 28.9603 12.274L30.9603 5.27402C31.033 5.01888 31.0013 4.74532 30.8723 4.51353C30.7433 4.28173 30.5274 4.11069 30.2723 4.03802C30.0172 3.96535 29.7436 3.99701 29.5118 4.12603C29.28 4.25506 29.109 4.47088 29.0363 4.72602L27.0363 11.726C27.0003 11.8524 26.9896 11.9847 27.0047 12.1152C27.0199 12.2458 27.0606 12.372 27.1246 12.4868C27.1886 12.6016 27.2746 12.7027 27.3776 12.7842C27.4807 12.8658 27.5989 12.9262 27.7253 12.962Z" fill="#DC244C"/>
    <path d="M41.7589 15.03L33.7589 17.03C33.5223 17.0893 33.3155 17.233 33.1775 17.4341C33.0394 17.6352 32.9797 17.8799 33.0094 18.1219C33.0392 18.364 33.1564 18.5869 33.3389 18.7486C33.5215 18.9103 33.7569 18.9998 34.0009 19C34.0828 18.9998 34.1644 18.9898 34.2439 18.97L42.2439 16.97C42.3739 16.9408 42.4967 16.8858 42.6052 16.8084C42.7137 16.731 42.8056 16.6327 42.8755 16.5192C42.9455 16.4058 42.992 16.2795 43.0125 16.1478C43.0329 16.0161 43.0268 15.8817 42.9946 15.7524C42.9623 15.623 42.9045 15.5015 42.8246 15.3948C42.7447 15.2882 42.6443 15.1986 42.5293 15.1313C42.4142 15.064 42.2869 15.0204 42.1548 15.003C42.0227 14.9856 41.8874 14.9948 41.7589 15.03Z" fill="#DC244C"/>
    <path d="M42.5 21H21.712C21.1077 20.9999 20.5175 20.8172 20.0187 20.476C19.5199 20.1347 19.1358 19.6508 18.9168 19.0876C18.6977 18.5243 18.6538 17.9081 18.7909 17.3195C18.928 16.7309 19.2396 16.1975 19.685 15.789L23.593 12.207C24.2726 11.584 24.7162 10.7454 24.8487 9.83304C24.9812 8.92066 24.7944 7.99052 24.32 7.2C23.9629 6.60516 23.392 6.16928 22.7241 5.98153C22.0561 5.79378 21.3417 5.86835 20.727 6.19L2 16V40.618C2 40.618 16.433 44 24.043 44C24.5662 43.9602 25.0595 43.7407 25.4392 43.3786C25.819 43.0166 26.0618 42.5343 26.1264 42.0136C26.1911 41.4929 26.0736 40.9659 25.7939 40.5219C25.5142 40.078 25.0896 39.7445 24.592 39.578C25.3072 39.4778 25.9627 39.1246 26.4398 38.5824C26.9168 38.0403 27.1837 37.3451 27.192 36.623C27.2017 36.0523 27.0401 35.4917 26.7279 35.0138C26.4158 34.5359 25.9675 34.1625 25.441 33.942C25.441 33.942 28.241 33.453 28.241 31.079C28.2933 30.3834 28.0966 29.6918 27.6861 29.1278C27.2756 28.5638 26.678 28.1641 26 28H42.5C43.4283 28 44.3185 27.6312 44.9749 26.9749C45.6312 26.3185 46 25.4283 46 24.5C46 23.5717 45.6312 22.6815 44.9749 22.0251C44.3185 21.3687 43.4283 21 42.5 21Z" fill="#AEBDE6"/>
</svg>