<svg width="48" height="48" viewBox="0 0 48 48" fill="none" xmlns="http://www.w3.org/2000/svg">
    <path d="M31.5555 21.8263H24.4964L25.3302 14.483C25.3524 14.2873 25.2373 14.1012 25.0498 14.0299C24.8618 13.9578 24.6489 14.0195 24.5298 14.1786L16.0854 25.4828C15.9868 25.6149 15.9725 25.7902 16.0481 25.9358C16.1241 26.0823 16.2774 26.1741 16.4445 26.1741H23.5036L22.6698 33.5174C22.6476 33.713 22.7627 33.8991 22.9502 33.9704C23.0027 33.9904 23.0569 34 23.1111 34C23.2498 34 23.3845 33.9365 23.4702 33.8217L31.9146 22.5176C32.0132 22.3854 32.0275 22.2102 31.9519 22.0646C31.8759 21.918 31.7226 21.8263 31.5555 21.8263Z" fill="#DC244C"/>
    <path d="M15 7C14.448 7 14 6.552 14 6V2C14 1.448 14.448 0.999996 15 0.999996C15.552 0.999996 16 1.448 16 2V6C16 6.552 15.552 7 15 7Z" fill="#AEBDE6"/>
    <path d="M33 41C33.552 41 34 41.448 34 42L34 46C34 46.552 33.552 47 33 47C32.448 47 32 46.552 32 46L32 42C32 41.448 32.448 41 33 41Z" fill="#AEBDE6"/>
    <path d="M5.27214 5.27198C5.66214 4.88198 6.29614 4.88198 6.68614 5.27198L9.51414 8.09998C9.90414 8.48998 9.90414 9.12398 9.51414 9.51398C9.12414 9.90398 8.49014 9.90398 8.10014 9.51398L5.27214 6.68598C4.88214 6.29598 4.88214 5.66198 5.27214 5.27198Z" fill="#AEBDE6"/>
    <path d="M42.7279 42.728C42.3379 43.118 41.7039 43.118 41.3139 42.728L38.4859 39.9C38.0959 39.51 38.0959 38.876 38.4859 38.486C38.8759 38.096 39.5099 38.096 39.8999 38.486L42.7279 41.314C43.1179 41.704 43.1179 42.338 42.7279 42.728Z" fill="#AEBDE6"/>
    <path d="M2 14H6C6.552 14 7 14.448 7 15C7 15.552 6.552 16 6 16H2C1.448 16 1 15.552 1 15C1 14.448 1.448 14 2 14Z" fill="#AEBDE6"/>
    <path d="M46 34L42 34C41.448 34 41 33.552 41 33C41 32.448 41.448 32 42 32L46 32C46.552 32 47 32.448 47 33C47 33.552 46.552 34 46 34Z" fill="#AEBDE6"/>
    <path fill-rule="evenodd" clip-rule="evenodd" d="M23 2C23 1.44772 23.4477 1 24 1C36.7025 0.999999 47 11.2974 47 24C47 24.5523 46.5523 25 46 25C45.4477 25 45 24.5523 45 24C45 12.402 35.598 3 24 3C23.4477 3 23 2.55228 23 2Z" fill="#AEBDE6"/>
    <path fill-rule="evenodd" clip-rule="evenodd" d="M25 46C25 46.5523 24.5523 47 24 47C11.2974 47 0.999999 36.7025 1 24C1 23.4477 1.44772 23 2 23C2.55228 23 3 23.4477 3 24C3 35.598 12.402 45 24 45C24.5523 45 25 45.4477 25 46Z" fill="#AEBDE6"/>
</svg>