<svg width="48" height="48" viewBox="0 0 48 48" fill="none" xmlns="http://www.w3.org/2000/svg">
    <path d="M24 12C23.448 12 23 11.552 23 11V7C23 6.448 23.448 6 24 6C24.552 6 25 6.448 25 7V11C25 11.552 24.552 12 24 12Z" fill="#DC244C"/>
    <path d="M11.2721 11.272C11.6621 10.882 12.2961 10.882 12.6861 11.272L15.5141 14.1C15.9041 14.49 15.9041 15.124 15.5141 15.514C15.1241 15.904 14.4901 15.904 14.1001 15.514L11.2721 12.686C10.8821 12.296 10.8821 11.662 11.2721 11.272Z" fill="#DC244C"/>
    <path d="M7 23H11C11.552 23 12 23.448 12 24C12 24.552 11.552 25 11 25H7C6.448 25 6 24.552 6 24C6 23.448 6.448 23 7 23Z" fill="#DC244C"/>
    <path d="M37 23H41C41.552 23 42 23.448 42 24C42 24.552 41.552 25 41 25H37C36.448 25 36 24.552 36 24C36 23.448 36.448 23 37 23Z" fill="#DC244C"/>
    <path d="M24 1C36.682 1 47 11.318 47 24C47 36.682 36.682 47 24 47C11.318 47 1 36.682 1 24C1 11.318 11.318 1 24 1ZM43.413 32C44.431 29.533 45 26.834 45 24C45 12.402 35.598 3 24 3C12.402 3 3 12.402 3 24C3 26.834 3.569 29.533 4.587 32H43.413Z" fill="#AEBDE6"/>
    <path d="M35.4142 11.19C35.8132 10.901 36.3622 10.945 36.7072 11.293C37.0542 11.64 37.0982 12.189 36.8102 12.586C35.8582 13.902 27.4782 25.471 26.4752 26.474C25.8142 27.135 24.9352 27.499 24.0002 27.499C23.0652 27.499 22.1862 27.135 21.5252 26.474C20.8642 25.813 20.5002 24.934 20.5002 23.999C20.5002 23.064 20.8642 22.185 21.5252 21.524C22.5292 20.52 34.0982 12.142 35.4142 11.19Z" fill="#DC244C"/>
</svg>