<svg width="48" height="48" viewBox="0 0 48 48" fill="none" xmlns="http://www.w3.org/2000/svg">
    <path d="M24 0.999999C19.2199 0.98711 14.5566 2.4766 10.669 5.258L7.4 2.485C7.26258 2.36846 7.09623 2.29121 6.91852 2.26142C6.74082 2.23163 6.55836 2.25041 6.39045 2.31577C6.22254 2.38113 6.07541 2.49065 5.96461 2.63274C5.85381 2.77483 5.78346 2.94422 5.761 3.123L4.368 14.19C4.34743 14.3535 4.3676 14.5197 4.42673 14.6735C4.48586 14.8274 4.58211 14.9643 4.70692 15.0719C4.83173 15.1796 4.98122 15.2548 5.14209 15.2907C5.30296 15.3267 5.47023 15.3223 5.629 15.278L16.5 12.25C16.675 12.2013 16.8335 12.1059 16.9584 11.9739C17.0833 11.842 17.1698 11.6785 17.2088 11.501C17.2478 11.3236 17.2377 11.1389 17.1796 10.9667C17.1214 10.7946 17.0175 10.6415 16.879 10.524L13.847 7.955C17.4088 5.70465 21.6179 4.7027 25.8116 5.10684C30.0054 5.51099 33.9456 7.2983 37.0122 10.1874C40.0787 13.0765 42.0974 16.9034 42.7505 21.0657C43.4035 25.2279 42.6539 29.4891 40.6196 33.1786C38.5853 36.8681 35.3818 39.7763 31.5133 41.4454C27.6449 43.1146 23.3313 43.4499 19.2514 42.3986C15.1715 41.3472 11.5571 38.969 8.97705 35.6382C6.39704 32.3074 4.99794 28.2132 5 24C5 23.4696 4.78929 22.9609 4.41421 22.5858C4.03914 22.2107 3.53043 22 3 22C2.46957 22 1.96086 22.2107 1.58579 22.5858C1.21071 22.9609 1 23.4696 1 24C1 28.549 2.34893 32.9958 4.8762 36.7781C7.40347 40.5604 10.9956 43.5084 15.1983 45.2492C19.401 46.99 24.0255 47.4455 28.4871 46.5581C32.9486 45.6706 37.0468 43.4801 40.2635 40.2635C43.4801 37.0468 45.6706 32.9486 46.5581 28.4871C47.4455 24.0255 46.99 19.401 45.2492 15.1983C43.5084 10.9956 40.5604 7.40347 36.7781 4.8762C32.9958 2.34893 28.549 0.999999 24 0.999999Z" fill="#AEBDE6"/>
    <path d="M33.561 31.439L25.961 23.184L25.5 12.5C25.5 12.1022 25.342 11.7206 25.0607 11.4393C24.7794 11.158 24.3978 11 24 11C23.6022 11 23.2206 11.158 22.9393 11.4393C22.658 11.7206 22.5 12.1022 22.5 12.5L22 24C21.9995 24.2627 22.051 24.5229 22.1516 24.7656C22.2522 25.0083 22.3998 25.2287 22.586 25.414L31.439 33.561C31.7204 33.8424 32.1021 34.0005 32.5 34.0005C32.898 34.0005 33.2796 33.8424 33.561 33.561C33.8424 33.2796 34.0005 32.898 34.0005 32.5C34.0005 32.102 33.8424 31.7204 33.561 31.439Z" fill="#DC244C"/>
</svg>