<svg width="56" height="56" viewBox="0 0 56 56" fill="none" xmlns="http://www.w3.org/2000/svg">
<rect x="0.4375" y="0.4375" width="55.125" height="55.125" rx="6.5625" fill="#F0F3FA"/>
<rect x="0.4375" y="0.4375" width="55.125" height="55.125" rx="6.5625" stroke="#D4D9E6" stroke-width="0.875"/>
<path d="M22.166 21H31.4993" stroke="#DC244C" stroke-width="2.33333" stroke-linecap="round" stroke-linejoin="round"/>
<path d="M25.6679 35.0011L20.2324 24.1289" stroke="#DC244C" stroke-width="2.33333" stroke-linecap="round" stroke-linejoin="round"/>
<path d="M18.666 24.5C20.599 24.5 22.166 22.933 22.166 21C22.166 19.067 20.599 17.5 18.666 17.5C16.733 17.5 15.166 19.067 15.166 21C15.166 22.933 16.733 24.5 18.666 24.5Z" stroke="#DC244C" stroke-width="2.33333" stroke-linecap="round" stroke-linejoin="round"/>
<path d="M39.6667 24.5006L33.8333 25.6673L31.5 21.0007L33.8333 16.334L39.6667 17.5007" stroke="#DC244C" stroke-width="2.33333" stroke-linecap="round" stroke-linejoin="round"/>
<path d="M35.0006 35H16.334V39.6667H35.0006V35Z" stroke="#DC244C" stroke-width="2.33333" stroke-linecap="round" stroke-linejoin="round"/>
</svg>
