<svg width="56" height="56" viewBox="0 0 56 56" fill="none" xmlns="http://www.w3.org/2000/svg">
<rect x="0.4375" y="0.4375" width="55.125" height="55.125" rx="6.5625" fill="#F0F3FA"/>
<rect x="0.4375" y="0.4375" width="55.125" height="55.125" rx="6.5625" stroke="#D4D9E6" stroke-width="0.875"/>
<g clip-path="url(#clip0_10448_70568)">
<path d="M37.3346 25.666V17.4993C37.3346 16.8805 37.0888 16.287 36.6512 15.8494C36.2136 15.4118 35.6201 15.166 35.0013 15.166H21.0013C20.3825 15.166 19.789 15.4118 19.3514 15.8494C18.9138 16.287 18.668 16.8805 18.668 17.4993V25.666" stroke="#2F6FF0" stroke-width="2.33333" stroke-linecap="round" stroke-linejoin="round"/>
<path d="M18.668 35V38.5C18.668 39.1188 18.9138 39.7123 19.3514 40.1499C19.789 40.5875 20.3825 40.8333 21.0013 40.8333H35.0013C35.6201 40.8333 36.2136 40.5875 36.6512 40.1499C37.0888 39.7123 37.3346 39.1188 37.3346 38.5V35" stroke="#2F6FF0" stroke-width="2.33333" stroke-linecap="round" stroke-linejoin="round"/>
<path d="M15.168 30.3327H19.8346C20.4535 30.3327 21.047 30.0868 21.4846 29.6493C21.9221 29.2117 22.168 28.6182 22.168 27.9993V23.916C22.168 23.4519 22.3523 23.0068 22.6805 22.6786C23.0087 22.3504 23.4538 22.166 23.918 22.166C24.3821 22.166 24.8272 22.3504 25.1554 22.6786C25.4836 23.0068 25.668 23.4519 25.668 23.916V31.4993C25.668 32.1182 25.9138 32.7117 26.3514 33.1493C26.789 33.5868 27.3825 33.8327 28.0013 33.8327C28.6201 33.8327 29.2136 33.5868 29.6512 33.1493C30.0888 32.7117 30.3346 32.1182 30.3346 31.4993V26.2493C30.3346 25.7852 30.519 25.3401 30.8472 25.0119C31.1754 24.6837 31.6205 24.4993 32.0846 24.4993C32.5488 24.4993 32.9939 24.6837 33.3221 25.0119C33.6503 25.3401 33.8346 25.7852 33.8346 26.2493V27.9993C33.8346 28.6182 34.0805 29.2117 34.5181 29.6493C34.9556 30.0868 35.5491 30.3327 36.168 30.3327H40.8346" stroke="#2F6FF0" stroke-width="2.33333" stroke-linecap="round" stroke-linejoin="round"/>
</g>
<defs>
<clipPath id="clip0_10448_70568">
<rect width="28" height="28" fill="white" transform="translate(14 14)"/>
</clipPath>
</defs>
</svg>
