<svg width="455" height="486" viewBox="0 0 455 486" fill="none" xmlns="http://www.w3.org/2000/svg">
<g clip-path="url(#clip0_2156_2265)">
<path d="M279.567 246.483L190.855 297.753C186.722 300.145 181.624 300.145 177.485 297.759L3.34724 197.291C-1.2038 194.666 -1.09325 188.05 3.54378 185.578L88.4475 136.03L279.567 246.483Z" fill="#D9E2FF"/>
<path d="M272.866 101.298L98.8081 0.903667C94.2755 -1.70934 88.6374 1.6599 88.7848 6.89205L88.4531 132.777L279.572 243.237L279.566 112.906C279.56 108.117 277.005 103.69 272.866 101.298Z" fill="#24386C"/>
<path d="M279.567 243.237L190.855 294.507C186.722 296.898 181.624 296.898 177.485 294.513L3.34724 194.038C-1.2038 191.413 -1.09325 184.798 3.54378 182.326L88.4475 132.777L279.567 243.237Z" fill="#EBF1FF"/>
<path d="M279.567 246.483V243.236L276.576 244.964L279.567 246.483Z" fill="#D9E2FF"/>
<path d="M112.548 257.046L132.239 245.561C134.014 244.528 134.007 241.958 132.232 240.925L91.1256 217.168C89.4673 216.209 87.4283 216.209 85.7761 217.168L64.5625 229.428L112.548 257.046Z" fill="#D9E2FF"/>
<path d="M249.356 243.735L205.412 269.133C201.272 271.525 196.174 271.525 192.035 269.133L46.9848 185.296C42.5259 182.719 42.5259 176.276 46.9848 173.7L90.9291 148.302C95.0687 145.91 100.166 145.91 104.306 148.302L249.356 232.139C253.815 234.715 253.815 241.158 249.356 243.735Z" fill="#D9E2FF"/>
<path opacity="0.3" d="M112.376 84.8271L202.887 137.136C204.214 137.905 205.037 139.325 205.037 140.862V140.899C205.037 142.553 203.249 143.586 201.812 142.762L111.301 90.4528C109.974 89.6842 109.151 88.264 109.151 86.7269V86.6901C109.151 85.0362 110.945 83.9971 112.376 84.8271Z" fill="#B2BFE8"/>
<path opacity="0.3" d="M112.376 99.3368L202.887 151.646C204.214 152.415 205.037 153.835 205.037 155.372V155.409C205.037 157.063 203.249 158.096 201.812 157.272L111.301 104.962C109.974 104.194 109.151 102.774 109.151 101.237V101.2C109.151 99.5458 110.945 98.5129 112.376 99.3368Z" fill="#B2BFE8"/>
<path opacity="0.3" d="M112.376 113.853L202.887 166.162C204.214 166.931 205.037 168.351 205.037 169.888V169.925C205.037 171.579 203.249 172.612 201.812 171.788L111.301 119.479C109.974 118.71 109.151 117.29 109.151 115.753V115.716C109.151 114.056 110.945 113.023 112.376 113.853Z" fill="#B2BFE8"/>
<path d="M111.239 33.428V69.9977C111.239 71.916 112.265 73.6928 113.923 74.652L155.153 98.4825C156.94 99.5154 159.182 98.2243 159.182 96.1524V59.5826C159.182 57.6644 158.156 55.8875 156.498 54.9284L115.268 31.0978C113.475 30.0649 111.239 31.356 111.239 33.428Z" fill="#C91540"/>
<path opacity="0.1" d="M441.599 389.036L272.83 486L104.066 388.44L270.637 292.127L441.599 389.036Z" fill="url(#paint0_linear_2156_2265)"/>
<path d="M449.509 131.726C452.905 133.687 454.994 137.315 454.987 141.231L444.024 147.57L438.546 138.065L449.509 131.726Z" fill="#EBF1FF"/>
<path d="M277.583 45.0111L273.124 44.5131L283.104 40.7381C286.55 39.4346 290.401 39.7482 293.594 41.5927L449.515 131.732L438.552 138.071L277.583 45.0111Z" fill="#EBF1FF"/>
<path d="M454.994 141.231L455 372.479C455 376.241 453.28 379.795 450.332 382.125L441.599 389.03L444.031 377.662V147.57L454.994 141.231Z" fill="#B2BFE8"/>
<path d="M277.768 45.1405L437.889 137.684C441.691 139.879 444.031 143.943 444.031 148.333V384.13C444.031 388.864 438.915 391.821 434.819 389.454L274.691 296.911C270.889 294.716 268.549 290.652 268.549 286.262V50.4648C268.555 45.7307 273.671 42.7734 277.768 45.1405Z" fill="#D9E2FF"/>
<path d="M377.896 90.7109L373.376 88.2578L388.859 84.3721L389.191 96.8591L378.222 103.198L377.896 90.7109Z" fill="#B71342"/>
<path d="M284.008 57.7625L431.649 143.094C435.451 145.289 437.791 149.353 437.791 153.743V371.507C437.791 376.241 432.675 379.199 428.578 376.832L280.937 291.5C277.135 289.305 274.795 285.241 274.795 280.851V63.0869C274.795 58.3528 279.911 55.3954 284.008 57.7625Z" fill="white"/>
<path d="M334.357 89.1004V79.9702C334.357 79.0234 335.383 78.4332 336.2 78.9066L387.963 108.824C388.724 109.26 389.191 110.078 389.191 110.951V120.081C389.191 121.028 388.165 121.618 387.349 121.145L335.586 91.2277C334.824 90.7911 334.357 89.9796 334.357 89.1004Z" fill="#C91540"/>
<path d="M356.891 66.2412L345.959 72.5616L356.891 79.9026V66.2412Z" fill="#B71342"/>
<path d="M389.191 96.8591V85.6017C389.191 84.7225 388.725 83.9109 387.963 83.4744L358.133 66.2347C357.316 65.7613 356.29 66.3515 356.29 67.2984V77.8487L389.191 96.8591Z" fill="#B71342"/>
<path d="M378.222 103.198V86.4073C378.222 85.5281 377.755 84.7166 376.993 84.2801L347.163 67.0404C346.346 66.567 345.32 67.1572 345.32 68.104V84.1878L378.222 103.198Z" fill="#C91540"/>
<path d="M301.45 107.508V115.113C301.45 119.509 303.79 123.567 307.592 125.762L358.04 154.923C362.137 157.29 367.253 154.333 367.253 149.599V141.993C367.253 137.597 364.913 133.539 361.111 131.345L310.663 102.183C306.566 99.8225 301.45 102.78 301.45 107.508Z" fill="#B2BFE8"/>
<path d="M305.135 149.703L408.673 209.538C410.196 210.417 411.13 212.04 411.13 213.799V219.375C411.13 221.269 409.085 222.449 407.445 221.502L303.907 161.668C302.384 160.789 301.45 159.165 301.45 157.407V151.831C301.45 149.937 303.495 148.756 305.135 149.703Z" fill="#B2BFE8"/>
<path d="M305.135 175.059L408.673 234.893C410.196 235.773 411.13 237.396 411.13 239.154V244.731C411.13 246.624 409.085 247.805 407.445 246.858L303.907 187.023C302.384 186.144 301.45 184.521 301.45 182.763V177.186C301.45 175.292 303.495 174.112 305.135 175.059Z" fill="#B2BFE8"/>
<path d="M305.135 200.414L408.673 260.249C410.196 261.128 411.13 262.751 411.13 264.51V270.086C411.13 271.98 409.085 273.16 407.445 272.213L303.907 212.379C302.384 211.5 301.45 209.876 301.45 208.118V202.542C301.45 200.648 303.495 199.467 305.135 200.414Z" fill="#B2BFE8"/>
<path d="M305.135 225.763L408.673 285.598C410.196 286.477 411.13 288.1 411.13 289.858V295.435C411.13 297.329 409.085 298.509 407.445 297.562L303.907 237.728C302.384 236.848 301.45 235.225 301.45 233.467V227.89C301.45 226.003 303.495 224.816 305.135 225.763Z" fill="#B2BFE8"/>
<path d="M305.135 251.125L408.673 310.959C410.196 311.839 411.13 313.462 411.13 315.22V320.797C411.13 322.69 409.085 323.871 407.445 322.924L303.907 263.089C302.384 262.21 301.45 260.587 301.45 258.828V253.252C301.45 251.358 303.495 250.178 305.135 251.125Z" fill="#B2BFE8"/>
<path d="M269.285 349.712L122.331 434.643C117.528 437.422 111.608 437.422 106.805 434.643L15.305 381.756C10.1275 378.762 10.1275 371.286 15.305 368.298L162.259 283.366C167.062 280.587 172.982 280.587 177.785 283.366L269.285 336.247C274.463 339.241 274.463 346.717 269.285 349.712Z" fill="#B2BFE8"/>
<path d="M273.167 342.979V326.957L254.926 341.289L273.167 342.979Z" fill="#B2BFE8"/>
<path d="M269.285 333.684L122.331 418.621C117.528 421.4 111.608 421.4 106.805 418.621L15.305 365.734C10.1275 362.74 10.1275 355.264 15.305 352.276L162.259 267.344C167.062 264.565 172.982 264.565 177.785 267.344L269.285 320.225C274.463 323.213 274.463 330.695 269.285 333.684Z" fill="#EBF1FF"/>
<path d="M17.5166 369.638L17.5227 380.865C17.5227 381.418 17.8175 381.935 18.2966 382.211L101.954 430.678C104.128 431.938 106.848 430.365 106.848 427.85V423.81C106.848 421.474 105.602 419.316 103.581 418.148L18.6835 368.968C18.1676 368.667 17.5166 369.042 17.5166 369.638Z" fill="white"/>
<path d="M125.973 327.154L115.735 321.282C114.415 320.526 113.426 319.684 112.769 318.755C112.111 317.827 111.823 316.862 111.903 315.853C111.982 314.845 112.425 313.824 113.235 312.785C114.046 311.746 115.262 310.732 116.896 309.736C118.413 308.813 120.04 308.094 121.779 307.59C123.517 307.086 125.249 306.785 126.968 306.698C128.688 306.606 130.352 306.723 131.949 307.049C133.552 307.375 134.977 307.897 136.236 308.617C137.495 309.336 138.417 310.166 139 311.107C139.584 312.047 139.829 313.031 139.731 314.052C139.633 315.072 139.184 316.099 138.398 317.138C137.606 318.177 136.451 319.155 134.934 320.083C134.216 320.52 133.442 320.913 132.625 321.251C131.808 321.59 130.961 321.866 130.082 322.081C129.204 322.297 128.307 322.426 127.398 322.475C126.483 322.524 125.593 322.475 124.714 322.333L124.659 322.37L129.388 325.082L125.973 327.154ZM120.753 311.955C119.881 312.49 119.199 313.062 118.714 313.677C118.229 314.292 117.94 314.906 117.848 315.521C117.756 316.136 117.86 316.714 118.161 317.267C118.462 317.821 118.966 318.3 119.684 318.712C120.403 319.124 121.226 319.407 122.172 319.567C123.111 319.727 124.1 319.77 125.126 319.696C126.158 319.622 127.183 319.438 128.215 319.13C129.241 318.823 130.193 318.405 131.065 317.87C131.937 317.341 132.619 316.763 133.104 316.148C133.589 315.534 133.878 314.919 133.97 314.31C134.062 313.701 133.958 313.117 133.657 312.564C133.356 312.011 132.852 311.531 132.134 311.119C131.415 310.707 130.586 310.424 129.646 310.264C128.7 310.105 127.718 310.062 126.686 310.135C125.66 310.209 124.628 310.394 123.597 310.701C122.577 311.002 121.625 311.42 120.753 311.955Z" fill="#B2BFE8"/>
<path d="M139.528 334.925L136.23 333.038L138.048 331.931L137.999 331.906C137.612 331.974 137.17 332.017 136.685 332.042C136.2 332.066 135.696 332.054 135.174 331.999C134.652 331.943 134.142 331.857 133.638 331.722C133.135 331.587 132.68 331.408 132.281 331.181C131.421 330.689 130.819 330.136 130.469 329.521C130.119 328.906 130.009 328.261 130.144 327.584C130.279 326.908 130.647 326.232 131.249 325.543C131.851 324.854 132.674 324.197 133.718 323.557C134.683 322.967 135.733 322.475 136.863 322.082C137.993 321.688 139.123 321.411 140.259 321.252C141.395 321.092 142.495 321.079 143.551 321.202C144.608 321.325 145.553 321.627 146.383 322.1C147.132 322.53 147.691 323.01 148.059 323.551C148.428 324.086 148.489 324.676 148.237 325.322L148.287 325.346L157.444 319.764L161.025 321.817L139.528 334.925ZM143.146 328.826C144.19 328.193 144.78 327.535 144.927 326.853C145.074 326.17 144.687 325.574 143.785 325.051C142.876 324.529 141.85 324.326 140.708 324.43C139.559 324.535 138.466 324.904 137.422 325.543C136.378 326.176 135.782 326.834 135.641 327.517C135.499 328.199 135.88 328.795 136.789 329.318C137.692 329.834 138.724 330.044 139.866 329.939C141.009 329.834 142.102 329.459 143.146 328.826Z" fill="#B2BFE8"/>
<path d="M156.215 328.144L159.796 330.197L157.579 331.55L157.628 331.574C158.863 331.273 159.956 331.144 160.908 331.181C161.86 331.224 162.732 331.47 163.53 331.925C163.739 332.042 163.936 332.165 164.12 332.3C164.31 332.429 164.464 332.564 164.581 332.699L160.687 335.073C160.527 334.87 160.349 334.685 160.146 334.513C159.95 334.341 159.71 334.181 159.44 334.027C158.752 333.634 158.101 333.394 157.474 333.308C156.848 333.216 156.222 333.234 155.601 333.363C154.975 333.486 154.348 333.708 153.722 334.015C153.089 334.323 152.432 334.691 151.75 335.103L145.977 338.62L142.396 336.567L156.215 328.144Z" fill="#B2BFE8"/>
<path d="M161.122 345.254L161.073 345.23C159.937 345.451 158.874 345.469 157.892 345.291C156.909 345.107 156.049 344.805 155.318 344.387C154.778 344.08 154.348 343.723 154.022 343.324C153.703 342.924 153.531 342.506 153.507 342.069C153.482 341.633 153.629 341.184 153.936 340.735C154.244 340.286 154.747 339.844 155.447 339.419C156.246 338.934 157.038 338.596 157.836 338.399C158.635 338.208 159.421 338.122 160.201 338.141C160.981 338.165 161.743 338.27 162.486 338.46C163.223 338.651 163.935 338.878 164.611 339.155C165.286 339.432 165.925 339.727 166.521 340.053C167.123 340.372 167.669 340.674 168.161 340.956C168.916 340.495 169.291 339.997 169.285 339.469C169.279 338.934 168.959 338.491 168.339 338.134C167.749 337.796 167.068 337.581 166.288 337.477C165.508 337.378 164.672 337.372 163.776 337.47L164.199 334.956C165.606 334.888 166.945 334.999 168.204 335.282C169.463 335.564 170.574 335.983 171.526 336.53C172.577 337.132 173.283 337.723 173.645 338.3C174.008 338.878 174.088 339.469 173.891 340.071C173.688 340.674 173.228 341.288 172.503 341.916C171.778 342.543 170.839 343.213 169.684 343.914L162.658 348.199L159.366 346.312L161.122 345.254ZM164.562 342.112C164.291 341.959 163.941 341.774 163.505 341.559C163.069 341.344 162.602 341.172 162.093 341.036C161.583 340.901 161.067 340.84 160.539 340.852C160.011 340.864 159.507 341.012 159.034 341.301C158.524 341.614 158.328 341.946 158.445 342.309C158.567 342.672 158.825 342.961 159.218 343.194C159.568 343.397 159.962 343.551 160.404 343.674C160.846 343.791 161.294 343.858 161.755 343.877C162.216 343.895 162.688 343.852 163.161 343.742C163.634 343.631 164.089 343.447 164.525 343.176L165.434 342.623L164.562 342.112Z" fill="#B2BFE8"/>
<path d="M178.75 341.055L182.189 343.028L180.31 344.172L180.359 344.196C180.733 344.098 181.157 344.03 181.63 343.987C182.103 343.944 182.588 343.938 183.08 343.981C183.577 344.018 184.068 344.098 184.572 344.227C185.069 344.356 185.536 344.541 185.966 344.793C186.875 345.315 187.44 345.832 187.667 346.355C187.895 346.877 187.864 347.406 187.588 347.941C187.311 348.476 186.826 349.017 186.144 349.57C185.463 350.117 184.652 350.677 183.724 351.242L176.103 355.89L172.522 353.837L179.29 349.711C179.689 349.465 180.089 349.213 180.494 348.937C180.899 348.66 181.219 348.383 181.458 348.094C181.698 347.805 181.808 347.523 181.79 347.24C181.771 346.957 181.532 346.687 181.071 346.422C180.611 346.158 180.138 346.004 179.652 345.961C179.167 345.918 178.682 345.955 178.197 346.072C177.712 346.188 177.239 346.361 176.778 346.588C176.311 346.816 175.851 347.068 175.396 347.344L168.511 351.537L164.931 349.484L178.75 341.055Z" fill="#B2BFE8"/>
<path d="M196.935 355.522L193.784 353.714L189.178 356.524C188.797 356.758 188.465 356.973 188.189 357.182C187.906 357.391 187.71 357.594 187.593 357.797C187.477 358 187.47 358.202 187.581 358.411C187.685 358.621 187.931 358.83 188.312 359.051C188.502 359.162 188.779 359.291 189.135 359.438C189.491 359.586 189.835 359.653 190.167 359.641L186.611 361.811C186.045 361.688 185.517 361.522 185.026 361.307C184.541 361.098 184.086 360.871 183.675 360.637C183.067 360.287 182.588 359.924 182.231 359.537C181.875 359.155 181.673 358.75 181.617 358.332C181.568 357.907 181.703 357.477 182.016 357.028C182.33 356.579 182.87 356.124 183.626 355.663L190.197 351.661L187.906 350.345L191.321 348.267L193.612 349.583L197.709 347.086L201.289 349.14L197.193 351.636L200.344 353.444L196.935 355.522Z" fill="#B2BFE8"/>
<path d="M115.483 331.654L116.804 332.411L106.093 342.93L104.453 341.989L107.112 339.42L101.204 336.032L96.1246 337.212L94.54 336.302L115.483 331.654ZM113.721 333.185L113.69 333.167L103.495 335.509L108.322 338.276L113.721 333.185Z" fill="#B2BFE8"/>
<path d="M115.367 339.844C115.846 339.616 116.282 339.395 116.669 339.179C117.056 338.964 117.418 338.768 117.756 338.602L119.009 339.321C118.733 339.462 118.463 339.604 118.186 339.745C117.91 339.887 117.627 340.028 117.326 340.169L117.357 340.188C117.695 340.114 118.063 340.065 118.463 340.046C118.862 340.028 119.267 340.034 119.679 340.071C120.09 340.108 120.489 340.182 120.876 340.286C121.263 340.391 121.619 340.538 121.945 340.723C122.037 340.772 122.117 340.827 122.184 340.883C122.252 340.938 122.313 341.006 122.363 341.079L120.526 341.885C120.403 341.719 120.219 341.565 119.961 341.417C119.163 340.956 118.235 340.79 117.185 340.919C116.135 341.049 115.011 341.399 113.813 341.983L108.734 344.436L107.426 343.686L115.367 339.844Z" fill="#B2BFE8"/>
<path d="M126.514 345.174L124.211 343.853L119.003 346.373C118.665 346.539 118.358 346.699 118.082 346.847C117.805 346.994 117.596 347.142 117.455 347.289C117.314 347.437 117.259 347.585 117.289 347.738C117.32 347.892 117.48 348.046 117.768 348.212C117.959 348.322 118.18 348.415 118.444 348.501C118.702 348.587 118.978 348.648 119.273 348.697L117.744 349.49C117.388 349.429 117.05 349.337 116.718 349.208C116.386 349.079 116.098 348.949 115.852 348.808C115.385 348.538 115.091 348.285 114.98 348.046C114.863 347.806 114.876 347.572 115.023 347.339C115.164 347.105 115.428 346.871 115.815 346.632C116.202 346.392 116.663 346.14 117.191 345.881L122.903 343.109L121.202 342.131L122.663 341.418L124.365 342.395L127.325 340.963L128.627 341.707L125.667 343.139L127.97 344.461L126.514 345.174Z" fill="#B2BFE8"/>
<path d="M129.696 345.445L130.998 346.189L120.6 351.242L119.298 350.498L129.696 345.445ZM133.467 343.305C133.805 343.139 134.192 343.047 134.628 343.028C135.064 343.01 135.414 343.078 135.684 343.231C135.954 343.385 136.053 343.576 135.979 343.803C135.911 344.031 135.702 344.227 135.365 344.393C134.99 344.572 134.597 344.664 134.179 344.682C133.768 344.695 133.424 344.627 133.141 344.467C132.865 344.307 132.754 344.117 132.81 343.901C132.871 343.674 133.092 343.477 133.467 343.305Z" fill="#B2BFE8"/>
<path d="M136.55 352.128C136.715 351.753 136.734 351.421 136.611 351.138C136.488 350.855 136.23 350.603 135.843 350.382C135.407 350.13 134.928 349.964 134.4 349.872C133.872 349.779 133.313 349.755 132.736 349.798C132.158 349.841 131.575 349.945 130.997 350.105C130.42 350.265 129.861 350.48 129.327 350.739C128.793 350.997 128.357 351.28 128.019 351.575C127.681 351.87 127.448 352.177 127.325 352.485C127.202 352.792 127.202 353.087 127.325 353.364C127.448 353.647 127.705 353.899 128.105 354.132C128.952 354.618 130.045 354.79 131.378 354.643L131.12 355.786C130.168 355.854 129.302 355.805 128.528 355.639C127.748 355.473 127.079 355.227 126.508 354.907C125.906 354.563 125.488 354.182 125.255 353.764C125.022 353.345 124.972 352.921 125.108 352.479C125.243 352.042 125.55 351.599 126.016 351.163C126.483 350.726 127.122 350.314 127.927 349.927C128.707 349.546 129.53 349.245 130.396 349.036C131.262 348.826 132.115 348.703 132.969 348.673C133.817 348.642 134.627 348.704 135.395 348.851C136.163 348.999 136.844 349.251 137.452 349.595C138.03 349.927 138.447 350.308 138.699 350.732C138.951 351.157 138.988 351.624 138.822 352.122L136.55 352.128Z" fill="#B2BFE8"/>
<path d="M148.158 349.257L149.46 350.001L132.65 358.153L131.348 357.409L148.158 349.257Z" fill="#B2BFE8"/>
<path d="M144.092 362.715C142.833 362.838 141.764 362.82 140.886 362.654C140.014 362.488 139.209 362.199 138.472 361.775C137.858 361.424 137.453 361.037 137.25 360.613C137.047 360.188 137.017 359.764 137.17 359.328C137.318 358.891 137.637 358.467 138.122 358.037C138.607 357.606 139.228 357.213 139.983 356.844C140.788 356.456 141.629 356.161 142.501 355.946C143.373 355.731 144.233 355.614 145.075 355.583C145.91 355.553 146.708 355.614 147.464 355.768C148.219 355.922 148.889 356.161 149.466 356.493C150.013 356.807 150.393 357.151 150.608 357.539C150.823 357.92 150.86 358.319 150.713 358.725C150.565 359.137 150.252 359.555 149.761 359.992C149.269 360.422 148.594 360.846 147.734 361.264L147.169 361.529L140.855 357.914C140.438 358.141 140.087 358.399 139.817 358.676C139.547 358.953 139.369 359.229 139.289 359.5C139.209 359.77 139.228 360.041 139.35 360.299C139.473 360.557 139.713 360.791 140.069 360.994C140.634 361.32 141.248 361.529 141.905 361.621C142.563 361.713 143.306 361.725 144.135 361.652L144.092 362.715ZM147.243 360.022C148.102 359.574 148.6 359.106 148.729 358.614C148.858 358.123 148.557 357.668 147.832 357.256C147.107 356.844 146.254 356.635 145.271 356.635C144.288 356.635 143.306 356.825 142.335 357.213L147.243 360.022Z" fill="#B2BFE8"/>
<path d="M147.421 363.724C147.249 364.08 147.187 364.406 147.242 364.701C147.292 364.996 147.556 365.279 148.022 365.55C148.225 365.667 148.452 365.765 148.723 365.857C148.987 365.943 149.269 366.005 149.564 366.035C149.859 366.066 150.16 366.06 150.461 366.023C150.762 365.986 151.056 365.894 151.339 365.765C151.628 365.63 151.806 365.494 151.892 365.353C151.972 365.212 151.996 365.064 151.965 364.91C151.935 364.757 151.855 364.609 151.726 364.455C151.597 364.302 151.462 364.154 151.314 364.007C151.05 363.748 150.817 363.484 150.614 363.232C150.412 362.974 150.295 362.722 150.264 362.476C150.233 362.23 150.313 361.984 150.51 361.732C150.7 361.48 151.069 361.228 151.597 360.969C152.094 360.717 152.616 360.551 153.175 360.459C153.734 360.373 154.275 360.342 154.797 360.379C155.325 360.416 155.829 360.496 156.308 360.631C156.787 360.766 157.21 360.939 157.579 361.148C158.132 361.467 158.5 361.836 158.672 362.248C158.844 362.66 158.734 363.109 158.341 363.588L156.302 363.429C156.51 363.158 156.59 362.888 156.547 362.617C156.504 362.347 156.283 362.101 155.896 361.879C155.718 361.775 155.509 361.689 155.264 361.615C155.018 361.541 154.766 361.486 154.502 361.461C154.232 361.437 153.961 361.437 153.685 361.473C153.409 361.51 153.151 361.59 152.917 361.707C152.696 361.818 152.561 361.941 152.512 362.076C152.463 362.211 152.469 362.359 152.53 362.519C152.592 362.679 152.696 362.851 152.844 363.029C152.991 363.207 153.169 363.386 153.372 363.57C153.624 363.81 153.839 364.056 154.004 364.302C154.17 364.548 154.256 364.794 154.256 365.046C154.256 365.298 154.146 365.544 153.919 365.796C153.697 366.042 153.323 366.294 152.807 366.546C152.217 366.835 151.628 367.032 151.038 367.13C150.442 367.228 149.871 367.259 149.312 367.21C148.759 367.167 148.237 367.068 147.746 366.909C147.255 366.755 146.819 366.564 146.426 366.343C145.756 365.962 145.32 365.562 145.105 365.15C144.89 364.738 144.964 364.24 145.314 363.656L147.421 363.724Z" fill="#B2BFE8"/>
<path d="M230.298 68.4912V212.569L241.261 218.908V74.83L230.298 68.4912Z" fill="#C91540"/>
<path d="M241.261 74.83L252.23 68.4912V212.569L241.261 218.908V74.83Z" fill="#B71342"/>
<path d="M230.298 55.8136L232.81 49.2964C235.795 41.5496 246.739 41.5496 249.718 49.2964L252.23 55.8197L241.261 62.1585L230.298 55.8136Z" fill="#D9E2FF"/>
<path d="M252.23 55.8135V68.4912L241.261 74.83V62.1523L252.23 55.8135Z" fill="#B2BFE8"/>
<path d="M230.298 55.8135V68.4912L241.261 74.83V62.1523L230.298 55.8135Z" fill="#EBF1FF"/>
<path d="M252.23 212.569V225.247L241.261 231.586L230.298 225.247V212.569L241.261 218.908L252.23 212.569Z" fill="#FFECA7"/>
<path d="M252.23 225.247L244.455 238.73C243.036 241.189 239.492 241.189 238.073 238.73L230.298 225.247L241.267 231.585L252.23 225.247Z" fill="#FFECA7"/>
<path d="M246.745 234.752L244.454 238.73C243.036 241.189 239.492 241.189 238.073 238.73L235.782 234.758L241.267 231.585L246.745 234.752Z" fill="#24386C"/>
<path d="M269.285 328.728L122.331 413.66C117.528 416.439 111.608 416.439 106.805 413.66L15.305 360.772C10.1275 357.778 10.1275 350.302 15.305 347.314L162.259 262.382C167.062 259.603 172.982 259.603 177.785 262.382L269.285 315.263C274.463 318.257 274.463 325.734 269.285 328.728Z" fill="#C91540"/>
<path d="M362.836 85.1836L361.393 84.3536C360.49 83.831 359.366 84.4827 359.366 85.5279L359.372 87.2002C359.372 88.1655 359.888 89.0508 360.717 89.5304L362.155 90.3666C363.051 90.8892 364.181 90.2375 364.181 89.1984V87.5322C364.188 86.5547 363.672 85.6632 362.836 85.1836Z" fill="#B71342"/>
<path d="M273.167 321.995V305.973L254.926 320.305L273.167 321.995Z" fill="#C91540"/>
<path d="M269.285 312.699L122.331 397.637C117.528 400.416 111.608 400.416 106.805 397.637L15.305 344.75C10.1275 341.756 10.1275 334.28 15.305 331.291L162.259 246.36C167.062 243.581 172.982 243.581 177.785 246.36L269.285 299.241C274.463 302.229 274.463 309.711 269.285 312.699Z" fill="#EBF1FF"/>
<path d="M17.5166 348.654L17.5227 359.881C17.5227 360.434 17.8175 360.951 18.2966 361.228L101.954 409.694C104.128 410.955 106.848 409.381 106.848 406.866V402.827C106.848 400.49 105.602 398.332 103.581 397.164L18.6835 347.984C18.1676 347.683 17.5166 348.058 17.5166 348.654Z" fill="white"/>
<path d="M125.973 306.17L115.735 300.299C114.415 299.542 113.426 298.7 112.769 297.772C112.111 296.843 111.823 295.878 111.903 294.87C111.982 293.861 112.425 292.835 113.235 291.795C114.046 290.756 115.262 289.742 116.896 288.746C118.413 287.824 120.04 287.104 121.779 286.6C123.517 286.096 125.249 285.795 126.968 285.709C128.688 285.617 130.352 285.733 131.949 286.059C133.546 286.385 134.977 286.901 136.236 287.627C137.495 288.346 138.417 289.176 139 290.117C139.584 291.058 139.829 292.041 139.731 293.062C139.633 294.083 139.184 295.109 138.398 296.148C137.606 297.187 136.451 298.165 134.934 299.093C134.216 299.53 133.442 299.923 132.625 300.262C131.808 300.6 130.961 300.876 130.082 301.092C129.204 301.307 128.307 301.436 127.398 301.485C126.483 301.534 125.593 301.485 124.714 301.344L124.659 301.381L129.382 304.092L125.973 306.17ZM120.759 290.972C119.887 291.507 119.205 292.078 118.72 292.693C118.235 293.308 117.94 293.923 117.854 294.538C117.762 295.146 117.866 295.73 118.167 296.284C118.468 296.837 118.972 297.317 119.69 297.729C120.409 298.14 121.238 298.423 122.178 298.583C123.124 298.743 124.106 298.786 125.132 298.712C126.164 298.638 127.189 298.448 128.221 298.14C129.247 297.833 130.199 297.415 131.071 296.88C131.943 296.345 132.625 295.773 133.11 295.159C133.595 294.544 133.884 293.929 133.976 293.314C134.068 292.699 133.964 292.121 133.663 291.568C133.362 291.015 132.858 290.535 132.14 290.123C131.421 289.711 130.592 289.428 129.652 289.269C128.706 289.109 127.724 289.066 126.692 289.139C125.66 289.213 124.634 289.404 123.603 289.705C122.577 290.019 121.631 290.437 120.759 290.972Z" fill="#B2BFE8"/>
<path d="M139.528 313.941L136.236 312.054L138.054 310.947L138.005 310.923C137.618 310.99 137.176 311.039 136.691 311.058C136.206 311.082 135.702 311.07 135.18 311.015C134.658 310.966 134.148 310.873 133.645 310.738C133.141 310.603 132.686 310.425 132.287 310.197C131.427 309.705 130.825 309.152 130.475 308.537C130.125 307.922 130.021 307.277 130.15 306.6C130.285 305.924 130.654 305.248 131.255 304.559C131.857 303.871 132.68 303.213 133.724 302.573C134.689 301.983 135.739 301.491 136.869 301.098C137.999 300.704 139.129 300.428 140.265 300.268C141.402 300.114 142.501 300.096 143.557 300.218C144.62 300.341 145.56 300.643 146.389 301.116C147.138 301.547 147.697 302.026 148.065 302.567C148.434 303.102 148.495 303.692 148.243 304.338L148.293 304.362L157.45 298.78L161.031 300.833L139.528 313.941ZM143.146 307.842C144.19 307.209 144.78 306.551 144.927 305.869C145.068 305.186 144.687 304.59 143.778 304.067C142.869 303.545 141.844 303.342 140.701 303.446C139.559 303.551 138.46 303.92 137.416 304.559C136.371 305.192 135.782 305.85 135.634 306.533C135.493 307.215 135.874 307.812 136.783 308.334C137.692 308.857 138.718 309.06 139.86 308.955C141.009 308.851 142.102 308.476 143.146 307.842Z" fill="#B2BFE8"/>
<path d="M156.216 307.16L159.796 309.214L157.579 310.566L157.628 310.591C158.863 310.29 159.956 310.161 160.908 310.204C161.86 310.247 162.732 310.493 163.531 310.947C163.733 311.064 163.936 311.187 164.12 311.323C164.304 311.452 164.458 311.587 164.581 311.722L160.687 314.095C160.527 313.892 160.349 313.702 160.146 313.536C159.944 313.364 159.71 313.204 159.44 313.05C158.752 312.657 158.101 312.417 157.475 312.325C156.848 312.239 156.228 312.251 155.602 312.38C154.981 312.503 154.349 312.724 153.716 313.032C153.083 313.339 152.426 313.702 151.745 314.12L145.971 317.637L142.391 315.583L156.216 307.16Z" fill="#B2BFE8"/>
<path d="M161.122 324.271L161.073 324.246C159.937 324.467 158.874 324.492 157.892 324.308C156.909 324.123 156.049 323.822 155.318 323.404C154.778 323.096 154.348 322.74 154.022 322.34C153.703 321.941 153.531 321.522 153.507 321.086C153.482 320.649 153.629 320.201 153.936 319.752C154.244 319.303 154.747 318.86 155.453 318.436C156.252 317.95 157.044 317.612 157.843 317.415C158.641 317.219 159.427 317.133 160.213 317.157C160.993 317.182 161.755 317.286 162.498 317.477C163.235 317.667 163.948 317.895 164.623 318.172C165.299 318.448 165.937 318.743 166.539 319.069C167.141 319.389 167.688 319.69 168.179 319.973C168.935 319.512 169.315 319.014 169.303 318.485C169.297 317.95 168.978 317.508 168.357 317.151C167.768 316.813 167.086 316.598 166.306 316.493C165.526 316.395 164.691 316.389 163.794 316.487L164.218 313.972C165.624 313.905 166.957 314.015 168.222 314.298C169.481 314.581 170.593 314.999 171.545 315.546C172.595 316.149 173.301 316.739 173.664 317.317C174.026 317.895 174.106 318.485 173.909 319.088C173.707 319.69 173.246 320.305 172.521 320.932C171.797 321.559 170.857 322.229 169.702 322.93L162.676 327.21L159.384 325.322L161.122 324.271ZM164.562 321.129C164.291 320.975 163.935 320.791 163.505 320.576C163.069 320.36 162.602 320.188 162.093 320.053C161.583 319.918 161.067 319.856 160.539 319.869C160.011 319.881 159.513 320.028 159.034 320.317C158.524 320.631 158.328 320.963 158.445 321.326C158.567 321.688 158.825 321.984 159.218 322.211C159.568 322.414 159.962 322.568 160.404 322.691C160.846 322.807 161.294 322.875 161.755 322.893C162.216 322.912 162.688 322.869 163.161 322.758C163.634 322.648 164.089 322.463 164.525 322.193L165.434 321.639L164.562 321.129Z" fill="#B2BFE8"/>
<path d="M178.75 320.071L182.189 322.045L180.31 323.188L180.359 323.213C180.733 323.115 181.157 323.047 181.63 323.004C182.103 322.961 182.582 322.955 183.08 322.998C183.577 323.035 184.068 323.115 184.572 323.25C185.069 323.379 185.536 323.563 185.966 323.809C186.875 324.332 187.44 324.848 187.667 325.371C187.895 325.894 187.864 326.422 187.588 326.957C187.311 327.492 186.826 328.033 186.144 328.587C185.456 329.134 184.652 329.693 183.724 330.259L176.103 334.907L172.522 332.853L179.29 328.728C179.689 328.488 180.089 328.23 180.494 327.953C180.899 327.677 181.219 327.4 181.458 327.111C181.698 326.822 181.808 326.539 181.79 326.256C181.771 325.974 181.532 325.703 181.071 325.439C180.611 325.174 180.138 325.021 179.652 324.978C179.167 324.935 178.682 324.971 178.197 325.088C177.712 325.205 177.239 325.377 176.778 325.605C176.311 325.832 175.851 326.084 175.396 326.361L168.511 330.56L164.931 328.507L178.75 320.071Z" fill="#B2BFE8"/>
<path d="M196.935 334.538L193.784 332.73L189.178 335.54C188.797 335.774 188.466 335.989 188.189 336.198C187.907 336.407 187.71 336.616 187.593 336.819C187.477 337.022 187.471 337.225 187.581 337.434C187.686 337.643 187.931 337.852 188.312 338.073C188.502 338.184 188.779 338.313 189.135 338.46C189.491 338.608 189.835 338.676 190.167 338.663L186.611 340.828C186.04 340.705 185.518 340.539 185.026 340.323C184.541 340.114 184.093 339.887 183.675 339.653C183.067 339.309 182.588 338.94 182.232 338.559C181.876 338.178 181.673 337.772 181.618 337.348C181.568 336.923 181.697 336.493 182.017 336.044C182.336 335.595 182.87 335.147 183.626 334.679L190.198 330.677L187.907 329.361L191.322 327.283L193.612 328.599L197.709 326.103L201.29 328.156L197.193 330.652L200.344 332.46L196.935 334.538Z" fill="#B2BFE8"/>
<path d="M115.483 310.67L116.804 311.427L106.093 321.946L104.453 321.006L107.112 318.436L101.204 315.048L96.1246 316.228L94.54 315.318L115.483 310.67ZM113.721 312.201L113.69 312.183L103.495 314.525L108.322 317.292L113.721 312.201Z" fill="#B2BFE8"/>
<path d="M115.36 318.86C115.839 318.632 116.275 318.411 116.662 318.196C117.049 317.98 117.412 317.784 117.749 317.618L119.002 318.337C118.726 318.478 118.456 318.62 118.179 318.761C117.903 318.903 117.62 319.044 117.319 319.186L117.35 319.204C117.688 319.13 118.056 319.081 118.456 319.063C118.855 319.044 119.26 319.05 119.672 319.087C120.083 319.124 120.482 319.198 120.869 319.302C121.256 319.407 121.613 319.554 121.938 319.739C122.024 319.788 122.104 319.843 122.178 319.899C122.245 319.954 122.307 320.022 122.356 320.095L120.519 320.901C120.396 320.735 120.212 320.581 119.954 320.434C119.156 319.972 118.228 319.806 117.178 319.936C116.128 320.065 115.004 320.415 113.806 320.999L108.727 323.452L107.419 322.702L115.36 318.86Z" fill="#B2BFE8"/>
<path d="M126.508 324.19L124.205 322.868L118.996 325.389C118.658 325.555 118.351 325.715 118.075 325.863C117.799 326.01 117.59 326.158 117.449 326.305C117.307 326.453 117.252 326.6 117.283 326.754C117.313 326.908 117.473 327.062 117.768 327.228C117.958 327.338 118.179 327.43 118.437 327.517C118.695 327.603 118.972 327.67 119.267 327.713L117.737 328.506C117.387 328.445 117.043 328.353 116.712 328.224C116.38 328.094 116.091 327.965 115.846 327.824C115.379 327.553 115.084 327.301 114.967 327.062C114.851 326.822 114.863 326.588 115.01 326.355C115.152 326.121 115.416 325.887 115.803 325.641C116.19 325.402 116.65 325.149 117.178 324.891L122.89 322.118L121.189 321.141L122.651 320.428L124.352 321.405L127.312 319.973L128.614 320.717L125.654 322.149L127.957 323.471L126.508 324.19Z" fill="#B2BFE8"/>
<path d="M129.696 324.461L130.998 325.205L120.606 330.259L119.304 329.515L129.696 324.461ZM133.467 322.315C133.804 322.149 134.191 322.057 134.627 322.039C135.063 322.02 135.414 322.088 135.684 322.242C135.954 322.395 136.052 322.586 135.979 322.813C135.911 323.041 135.702 323.238 135.364 323.404C134.99 323.582 134.597 323.674 134.179 323.692C133.768 323.705 133.417 323.637 133.141 323.477C132.865 323.317 132.754 323.127 132.809 322.912C132.871 322.69 133.092 322.494 133.467 322.315Z" fill="#B2BFE8"/>
<path d="M136.55 331.144C136.715 330.769 136.734 330.437 136.611 330.154C136.488 329.871 136.23 329.619 135.843 329.398C135.407 329.152 134.928 328.98 134.4 328.888C133.872 328.796 133.313 328.771 132.736 328.814C132.158 328.857 131.575 328.962 130.997 329.121C130.42 329.281 129.861 329.496 129.327 329.755C128.793 330.013 128.357 330.296 128.019 330.591C127.681 330.892 127.448 331.193 127.325 331.501C127.202 331.808 127.202 332.097 127.325 332.38C127.448 332.663 127.705 332.915 128.105 333.149C128.952 333.634 130.039 333.806 131.378 333.659L131.12 334.802C130.168 334.87 129.302 334.821 128.528 334.655C127.748 334.489 127.079 334.243 126.508 333.923C125.906 333.579 125.488 333.198 125.255 332.78C125.022 332.362 124.972 331.937 125.108 331.495C125.243 331.058 125.55 330.615 126.016 330.179C126.483 329.742 127.122 329.33 127.927 328.943C128.707 328.562 129.53 328.261 130.396 328.052C131.262 327.843 132.115 327.72 132.969 327.689C133.817 327.658 134.627 327.72 135.395 327.867C136.163 328.015 136.844 328.267 137.452 328.611C138.03 328.943 138.447 329.324 138.699 329.749C138.951 330.173 138.988 330.64 138.822 331.138L136.55 331.144Z" fill="#B2BFE8"/>
<path d="M148.158 328.273L149.46 329.017L132.65 337.169L131.348 336.426L148.158 328.273Z" fill="#B2BFE8"/>
<path d="M144.092 341.725C142.833 341.848 141.764 341.83 140.886 341.664C140.014 341.498 139.209 341.209 138.472 340.784C137.858 340.434 137.453 340.047 137.25 339.622C137.047 339.198 137.017 338.774 137.17 338.337C137.318 337.901 137.637 337.477 138.122 337.046C138.607 336.616 139.228 336.222 139.983 335.854C140.788 335.466 141.629 335.171 142.507 334.956C143.386 334.747 144.239 334.624 145.081 334.593C145.916 334.562 146.714 334.624 147.47 334.778C148.225 334.931 148.895 335.171 149.472 335.503C150.019 335.817 150.399 336.161 150.614 336.548C150.829 336.929 150.866 337.329 150.719 337.735C150.571 338.147 150.258 338.565 149.767 339.001C149.276 339.432 148.6 339.856 147.74 340.274L147.175 340.538L140.861 336.923C140.444 337.151 140.094 337.409 139.823 337.686C139.553 337.962 139.375 338.239 139.295 338.51C139.215 338.786 139.234 339.051 139.357 339.309C139.479 339.567 139.719 339.801 140.075 340.004C140.64 340.329 141.254 340.538 141.912 340.631C142.569 340.723 143.312 340.735 144.141 340.661L144.092 341.725ZM147.243 339.038C148.102 338.589 148.6 338.122 148.729 337.63C148.858 337.139 148.557 336.684 147.832 336.272C147.107 335.86 146.254 335.651 145.271 335.651C144.288 335.651 143.306 335.841 142.335 336.229L147.243 339.038Z" fill="#B2BFE8"/>
<path d="M147.421 342.74C147.249 343.096 147.188 343.422 147.243 343.717C147.292 344.012 147.556 344.295 148.023 344.566C148.226 344.682 148.453 344.781 148.723 344.873C148.987 344.959 149.27 345.021 149.565 345.051C149.859 345.082 150.16 345.076 150.461 345.039C150.762 345.002 151.057 344.916 151.339 344.781C151.628 344.646 151.806 344.51 151.892 344.369C151.972 344.227 151.997 344.08 151.966 343.932C151.935 343.779 151.849 343.631 151.726 343.477C151.597 343.324 151.462 343.176 151.315 343.029C151.051 342.77 150.817 342.506 150.615 342.254C150.412 341.996 150.295 341.744 150.265 341.498C150.234 341.252 150.314 341.006 150.51 340.754C150.701 340.502 151.069 340.25 151.597 339.991C152.095 339.739 152.617 339.573 153.176 339.481C153.735 339.395 154.275 339.364 154.797 339.401C155.325 339.438 155.829 339.518 156.308 339.653C156.787 339.788 157.217 339.961 157.58 340.17C158.132 340.489 158.501 340.858 158.673 341.27C158.845 341.682 158.734 342.131 158.341 342.61L156.302 342.451C156.511 342.18 156.591 341.91 156.548 341.639C156.505 341.369 156.284 341.123 155.897 340.901C155.719 340.797 155.51 340.711 155.264 340.637C155.018 340.563 154.767 340.508 154.502 340.483C154.232 340.459 153.962 340.459 153.686 340.495C153.409 340.532 153.151 340.612 152.918 340.729C152.697 340.84 152.562 340.963 152.513 341.098C152.463 341.233 152.47 341.381 152.531 341.541C152.592 341.701 152.697 341.873 152.844 342.051C152.992 342.229 153.17 342.408 153.372 342.592C153.624 342.832 153.839 343.072 154.005 343.318C154.171 343.563 154.257 343.809 154.257 344.061C154.257 344.314 154.146 344.559 153.919 344.812C153.692 345.057 153.323 345.31 152.801 345.562C152.218 345.851 151.628 346.047 151.032 346.146C150.437 346.244 149.865 346.275 149.307 346.226C148.754 346.183 148.232 346.084 147.74 345.924C147.249 345.771 146.813 345.58 146.42 345.359C145.75 344.978 145.314 344.578 145.099 344.166C144.891 343.754 144.958 343.256 145.308 342.672L147.421 342.74Z" fill="#B2BFE8"/>
</g>
<defs>
<linearGradient id="paint0_linear_2156_2265" x1="230.761" y1="461.683" x2="315.028" y2="315.882" gradientUnits="userSpaceOnUse">
<stop stop-color="#B2BFE8" stop-opacity="0"/>
<stop offset="1" stop-color="#24386C"/>
</linearGradient>
<clipPath id="clip0_2156_2265">
<rect width="455" height="486" fill="white"/>
</clipPath>
</defs>
</svg>
