<svg width="387" height="407" viewBox="0 0 387 407" fill="none" xmlns="http://www.w3.org/2000/svg">
<g clip-path="url(#clip0_2532_1031)">
<path opacity="0.2" d="M193.284 406.793C286.487 406.793 362.043 363.868 362.043 310.917C362.043 257.967 286.487 215.042 193.284 215.042C100.081 215.042 24.5244 257.967 24.5244 310.917C24.5244 363.868 100.081 406.793 193.284 406.793Z" fill="#B2BFE8"/>
<path d="M193.282 389.043C278.048 389.043 346.765 350.004 346.765 301.846C346.765 253.688 278.048 214.649 193.282 214.649C108.516 214.649 39.7988 253.688 39.7988 301.846C39.7988 350.004 108.516 389.043 193.282 389.043Z" fill="#D9E2FF"/>
<path d="M346.765 301.846V226.694H39.7988V301.846L193.282 338.29L346.765 301.846Z" fill="#D9E2FF"/>
<path opacity="0.5" d="M193.284 339.147C278.05 339.147 346.767 300.108 346.767 251.95C346.767 203.792 278.05 164.753 193.284 164.753C108.518 164.753 39.8008 203.792 39.8008 251.95C39.8008 300.108 108.518 339.147 193.284 339.147Z" fill="#B2BFE8"/>
<path d="M193.284 310.575C298.779 310.575 384.3 261.988 384.3 202.054C384.3 142.119 298.779 93.5322 193.284 93.5322C87.7883 93.5322 2.26758 142.119 2.26758 202.054C2.26758 261.988 87.7883 310.575 193.284 310.575Z" stroke="white" stroke-width="4.536" stroke-miterlimit="10"/>
<path d="M193.284 310.575C298.779 310.575 384.3 261.988 384.3 202.054C384.3 142.119 298.779 93.5322 193.284 93.5322C87.7883 93.5322 2.26758 142.119 2.26758 202.054C2.26758 261.988 87.7883 310.575 193.284 310.575Z" fill="#C91540"/>
<path d="M384.3 202.053V108.521H2.26758V202.053L193.284 247.413L384.3 202.053Z" fill="#C91540"/>
<path d="M193.284 217.043C298.779 217.043 384.3 168.456 384.3 108.521C384.3 48.5866 298.779 0 193.284 0C87.7883 0 2.26758 48.5866 2.26758 108.521C2.26758 168.456 87.7883 217.043 193.284 217.043Z" fill="#D9E2FF"/>
<path d="M307.385 173.583C278.148 190.134 237.818 200.365 193.284 200.365C104.001 200.365 31.6211 159.244 31.6211 108.521C31.6211 82.6864 50.3951 59.3461 80.6149 42.6587L307.385 173.583Z" fill="#EBF1FF" stroke="white" stroke-width="0.504" stroke-miterlimit="10"/>
<path d="M354.942 108.521C354.942 131.317 340.321 152.178 316.114 168.23L90.1709 37.7848C118.158 24.6001 154.088 16.6772 193.284 16.6772C282.563 16.6772 354.942 57.7986 354.942 108.521Z" fill="white"/>
<path d="M202.558 107.307L322.107 75.9023L193.284 101.924L202.558 107.307Z" fill="#C91540"/>
<path d="M316.114 168.23C313.332 170.08 310.419 171.864 307.385 173.583L80.6152 42.6588C83.6846 40.9604 86.8699 39.3375 90.1711 37.7852L316.114 168.23Z" fill="#D9E2FF"/>
<path d="M193.283 130.218C211.178 130.218 225.685 121.878 225.685 111.59C225.685 101.302 211.178 92.9624 193.283 92.9624C175.388 92.9624 160.881 101.302 160.881 111.59C160.881 121.878 175.388 130.218 193.283 130.218Z" fill="#24386C"/>
<path d="M193.282 93.4665C210.897 93.4665 225.18 101.581 225.18 111.59C225.18 121.6 210.902 129.714 193.282 129.714C175.662 129.714 161.384 121.6 161.384 111.59C161.384 101.581 175.667 93.4665 193.282 93.4665ZM193.282 92.4585C184.588 92.4585 176.403 94.3888 170.229 97.8967C163.874 101.505 160.376 106.369 160.376 111.585C160.376 116.802 163.874 121.665 170.229 125.274C176.403 128.782 184.588 130.712 193.282 130.712C201.976 130.712 210.161 128.782 216.335 125.274C222.691 121.665 226.188 116.802 226.188 111.585C226.188 106.369 222.691 101.505 216.335 97.8967C210.161 94.3888 201.976 92.4585 193.282 92.4585Z" fill="white"/>
<path d="M225.182 102.519H161.386V111.591H225.182V102.519Z" fill="#24386C"/>
<path d="M193.284 120.643C210.901 120.643 225.182 112.528 225.182 102.519C225.182 92.5093 210.901 84.395 193.284 84.395C175.667 84.395 161.386 92.5093 161.386 102.519C161.386 112.528 175.667 120.643 193.284 120.643Z" fill="#D9E2FF"/>
<path d="M193.283 110.709C201.246 110.709 207.702 107.042 207.702 102.519C207.702 97.9954 201.246 94.3286 193.283 94.3286C185.319 94.3286 178.863 97.9954 178.863 102.519C178.863 107.042 185.319 110.709 193.283 110.709Z" fill="#721FFA"/>
<path d="M354.942 108.521C354.942 131.317 340.321 152.178 316.114 168.23C340.321 152.178 347.019 134.245 346.112 111.47C344.025 58.978 273.732 19.6256 184.454 19.6256C155.055 19.6256 132.461 22.4228 111.197 29.3831C135.258 21.309 163.316 16.6772 193.284 16.6772C282.562 16.6772 354.942 57.7986 354.942 108.521Z" fill="#C91540"/>
<path d="M110.709 29.5444C104.116 31.7772 97.8212 34.2669 91.874 36.9936C98.1387 34.1157 104.363 31.6461 110.709 29.5444Z" fill="#D9E2FF"/>
<path d="M384.3 158.417C384.3 218.353 298.781 266.938 193.284 266.938C87.7863 266.938 2.26758 218.353 2.26758 158.417" stroke="#D9E2FF" stroke-width="1.008" stroke-miterlimit="10"/>
<path d="M131.906 120.386L134.729 122.014L127.481 127.684L127.511 127.704L140.353 125.27L142.999 126.797L123.081 130.325L121.101 129.181L131.906 120.386Z" fill="#B2BFE8"/>
<path d="M136.821 136.478C135.778 136.528 134.785 136.457 133.843 136.266C132.9 136.074 132.119 135.802 131.494 135.439C130.904 135.097 130.476 134.724 130.209 134.315C129.942 133.907 129.861 133.494 129.957 133.076C130.053 132.657 130.33 132.244 130.783 131.846C131.237 131.443 131.882 131.07 132.719 130.732C133.555 130.394 134.422 130.152 135.319 130.006C136.216 129.86 137.103 129.8 137.97 129.83C138.837 129.855 139.664 129.966 140.445 130.168C141.226 130.364 141.917 130.636 142.506 130.974C143.056 131.291 143.429 131.634 143.615 131.997C143.807 132.36 143.817 132.733 143.645 133.106C143.474 133.479 143.136 133.857 142.627 134.23C142.118 134.603 141.448 134.956 140.616 135.298L139.603 135.712L134.085 132.526C133.56 132.834 133.273 133.151 133.223 133.484C133.172 133.816 133.379 134.114 133.843 134.386C134.236 134.613 134.684 134.754 135.188 134.814C135.697 134.875 136.237 134.885 136.811 134.85L136.821 136.478ZM139.432 133.438C139.991 133.222 140.324 132.955 140.44 132.642C140.551 132.325 140.395 132.042 139.961 131.79C139.699 131.639 139.407 131.528 139.089 131.458C138.772 131.387 138.454 131.347 138.132 131.342C137.809 131.332 137.492 131.352 137.174 131.402C136.857 131.453 136.564 131.528 136.292 131.629L139.432 133.438Z" fill="#B2BFE8"/>
<path d="M149.133 138.389C149.249 138.227 149.274 138.056 149.214 137.875C149.153 137.693 149.002 137.527 148.76 137.391C148.156 137.043 147.445 136.872 146.623 136.877C145.802 136.882 144.995 137.048 144.204 137.366C143.413 137.688 142.939 138.041 142.783 138.434C142.627 138.827 142.848 139.195 143.453 139.543C143.715 139.694 144.023 139.795 144.371 139.84C144.718 139.886 145.071 139.906 145.424 139.896L144.749 141.715C143.861 141.71 143.06 141.609 142.349 141.403C141.639 141.196 141.054 140.964 140.601 140.702C140.011 140.359 139.583 139.986 139.315 139.578C139.053 139.17 138.968 138.757 139.063 138.338C139.159 137.92 139.436 137.507 139.89 137.109C140.344 136.705 140.989 136.332 141.825 135.995C142.662 135.657 143.529 135.415 144.426 135.269C145.323 135.123 146.21 135.062 147.077 135.093C147.944 135.118 148.77 135.234 149.552 135.43C150.333 135.627 151.023 135.899 151.613 136.237C152.067 136.499 152.44 136.816 152.732 137.194C153.024 137.567 153.1 137.97 152.949 138.394L149.133 138.389Z" fill="#B2BFE8"/>
<path d="M157.606 142.496L155.515 141.286L152.017 142.708C151.73 142.824 151.478 142.94 151.261 143.045C151.044 143.156 150.888 143.262 150.787 143.378C150.686 143.489 150.671 143.61 150.727 143.736C150.787 143.862 150.943 143.998 151.195 144.144C151.321 144.22 151.508 144.305 151.75 144.411C151.992 144.517 152.229 144.573 152.465 144.583L149.764 145.676C149.371 145.575 149.008 145.455 148.68 145.303C148.353 145.157 148.05 145.001 147.773 144.845C147.37 144.613 147.057 144.376 146.836 144.134C146.614 143.892 146.498 143.645 146.498 143.398C146.498 143.146 146.624 142.899 146.886 142.657C147.148 142.41 147.567 142.173 148.141 141.937L153.131 139.911L151.609 139.034L154.199 137.98L155.721 138.857L158.831 137.597L161.21 138.973L158.1 140.233L160.192 141.443L157.606 142.496Z" fill="#B2BFE8"/>
<path d="M155.867 144.104C156.704 143.766 157.571 143.524 158.468 143.378C159.365 143.232 160.252 143.171 161.119 143.201C161.986 143.227 162.812 143.343 163.594 143.539C164.375 143.736 165.065 144.008 165.655 144.346C166.245 144.688 166.673 145.061 166.94 145.469C167.207 145.878 167.288 146.291 167.192 146.709C167.096 147.128 166.819 147.536 166.366 147.939C165.912 148.342 165.267 148.715 164.43 149.053C163.594 149.391 162.727 149.632 161.83 149.779C160.933 149.925 160.045 149.985 159.179 149.96C158.312 149.935 157.485 149.819 156.704 149.622C155.923 149.426 155.237 149.154 154.643 148.816C154.053 148.473 153.625 148.1 153.357 147.692C153.095 147.284 153.01 146.871 153.105 146.452C153.201 146.034 153.478 145.626 153.932 145.217C154.391 144.814 155.036 144.441 155.867 144.104ZM158.246 145.474C157.455 145.797 156.981 146.15 156.825 146.543C156.669 146.936 156.89 147.304 157.495 147.652C158.1 148 158.811 148.171 159.632 148.166C160.454 148.161 161.26 147.994 162.051 147.677C162.843 147.354 163.316 147.002 163.473 146.608C163.629 146.22 163.407 145.847 162.802 145.5C162.203 145.152 161.487 144.981 160.665 144.986C159.844 144.991 159.037 145.157 158.246 145.474Z" fill="#B2BFE8"/>
<path d="M171.073 147.722L173.452 149.093L171.769 149.778L171.799 149.799C172.701 149.683 173.488 149.658 174.163 149.728C174.833 149.799 175.433 149.985 175.962 150.293C176.098 150.373 176.229 150.454 176.355 150.54C176.476 150.625 176.577 150.711 176.648 150.792L173.689 151.991C173.593 151.865 173.477 151.744 173.351 151.638C173.225 151.527 173.069 151.422 172.893 151.321C172.439 151.059 171.991 150.887 171.557 150.802C171.124 150.716 170.675 150.701 170.222 150.741C169.768 150.786 169.304 150.882 168.831 151.033C168.357 151.185 167.858 151.366 167.344 151.573L162.959 153.352L160.58 151.981L171.073 147.722Z" fill="#B2BFE8"/>
<path d="M74.8493 116.585C74.9954 116.328 74.9753 116.066 74.7989 115.804C74.6225 115.537 74.3806 115.315 74.0731 115.139C73.8917 115.033 73.68 114.942 73.433 114.852C73.1861 114.766 72.9139 114.7 72.6266 114.65C72.3343 114.6 72.037 114.59 71.7295 114.61C71.4221 114.63 71.1247 114.7 70.8374 114.816C70.3788 115.003 70.152 115.22 70.157 115.467C70.1671 115.714 70.278 115.981 70.4897 116.273C70.7014 116.565 70.9433 116.878 71.2154 117.2C71.4876 117.528 71.6589 117.866 71.7245 118.218C71.795 118.571 71.6892 118.929 71.412 119.292C71.1298 119.655 70.5451 120.018 69.653 120.381C68.8013 120.723 67.9445 120.96 67.0826 121.081C66.2158 121.202 65.3741 121.237 64.5626 121.177C63.7512 121.116 62.9801 120.975 62.2543 120.759C61.5285 120.537 60.8784 120.26 60.2937 119.927C59.5629 119.504 59.0388 119.055 58.7162 118.571C58.3937 118.087 58.3029 117.553 58.439 116.968L62.8339 116.918C62.6273 117.251 62.5869 117.578 62.723 117.906C62.8541 118.234 63.1313 118.516 63.5395 118.753C63.7411 118.869 63.978 118.974 64.2451 119.065C64.5173 119.156 64.7995 119.226 65.0918 119.267C65.3841 119.307 65.6815 119.317 65.9839 119.292C66.2863 119.267 66.5736 119.201 66.8458 119.09C67.3044 118.904 67.5413 118.682 67.5463 118.425C67.5514 118.168 67.4556 117.886 67.254 117.583C67.0474 117.281 66.8155 116.963 66.5484 116.621C66.2813 116.283 66.1099 115.935 66.0343 115.582C65.9587 115.23 66.0494 114.872 66.3115 114.514C66.5686 114.156 67.1229 113.803 67.9747 113.456C68.7962 113.123 69.6329 112.901 70.4897 112.785C71.3465 112.669 72.1831 112.644 72.9946 112.705C73.811 112.765 74.5771 112.901 75.3029 113.118C76.0286 113.335 76.6687 113.597 77.2181 113.914C77.8531 114.282 78.342 114.685 78.6898 115.124C79.0375 115.567 79.1585 116.041 79.0577 116.55L74.8493 116.585Z" fill="#B2BFE8"/>
<path d="M75.6504 126.63C74.6071 126.68 73.6142 126.61 72.6768 126.418C71.7343 126.227 70.9531 125.954 70.3281 125.591C69.7384 125.249 69.31 124.876 69.0429 124.468C68.7808 124.059 68.6952 123.646 68.7909 123.228C68.8867 122.809 69.1639 122.401 69.6175 121.993C70.0711 121.59 70.7162 121.222 71.5528 120.879C72.3895 120.541 73.2564 120.299 74.1535 120.153C75.0506 120.007 75.9376 119.947 76.8045 119.972C77.6714 119.997 78.498 120.113 79.2792 120.31C80.0604 120.506 80.7508 120.773 81.3405 121.116C81.8899 121.433 82.2628 121.776 82.4493 122.139C82.6408 122.502 82.6509 122.875 82.4796 123.248C82.3082 123.626 81.9705 123.999 81.4615 124.372C80.9524 124.745 80.2821 125.103 79.4505 125.44L78.4375 125.854L72.9187 122.668C72.3945 122.976 72.1072 123.293 72.0568 123.626C72.0064 123.959 72.2131 124.256 72.6768 124.528C73.0699 124.755 73.5184 124.896 74.0224 124.956C74.5315 125.017 75.0708 125.027 75.6453 124.992L75.6504 126.63ZM78.2611 123.591C78.8155 123.374 79.1532 123.107 79.2691 122.794C79.385 122.477 79.2237 122.195 78.7903 121.943C78.5282 121.791 78.2359 121.68 77.9184 121.61C77.6008 121.539 77.2833 121.499 76.9608 121.494C76.6382 121.484 76.3207 121.504 76.0032 121.554C75.6856 121.605 75.3933 121.68 75.1212 121.781L78.2611 123.591Z" fill="#B2BFE8"/>
<path d="M81.794 130.667L81.7638 130.647C80.9372 130.722 80.1812 130.682 79.5008 130.531C78.8154 130.375 78.2307 130.158 77.7469 129.881C77.3891 129.674 77.1119 129.447 76.9153 129.2C76.7187 128.953 76.6331 128.701 76.6482 128.444C76.6683 128.187 76.8044 127.935 77.0615 127.683C77.3135 127.436 77.7116 127.199 78.2408 126.988C78.8456 126.741 79.4403 126.584 80.0199 126.509C80.5995 126.433 81.1691 126.423 81.7235 126.474C82.2779 126.524 82.8071 126.62 83.3211 126.766C83.8302 126.912 84.314 127.083 84.7727 127.275C85.2313 127.466 85.6597 127.673 86.0579 127.89C86.456 128.107 86.8239 128.308 87.1515 128.5C87.7261 128.268 88.0335 127.996 88.0688 127.683C88.1041 127.371 87.9176 127.099 87.5094 126.862C87.1163 126.635 86.6475 126.474 86.1032 126.378C85.5589 126.282 84.9642 126.242 84.3241 126.252L84.8281 124.8C85.8361 124.831 86.7735 124.957 87.6455 125.183C88.5174 125.41 89.2734 125.707 89.9084 126.075C90.6039 126.479 91.0626 126.857 91.2743 127.214C91.4859 127.572 91.496 127.92 91.3045 128.263C91.113 128.605 90.735 128.943 90.1705 129.276C89.606 129.608 88.8853 129.951 88.0083 130.309L82.676 132.471L80.4887 131.206L81.794 130.667ZM84.4904 128.994C84.309 128.888 84.0771 128.767 83.7848 128.616C83.4925 128.469 83.175 128.343 82.8222 128.243C82.4694 128.142 82.1115 128.081 81.7335 128.061C81.3555 128.041 80.9876 128.107 80.6298 128.253C80.2417 128.409 80.0754 128.6 80.1308 128.812C80.1863 129.029 80.3475 129.215 80.6096 129.367C80.8415 129.503 81.1086 129.613 81.411 129.704C81.7134 129.795 82.0309 129.855 82.3585 129.891C82.6861 129.926 83.0187 129.921 83.3665 129.881C83.7143 129.84 84.0519 129.75 84.3795 129.619L85.07 129.336L84.4904 128.994Z" fill="#B2BFE8"/>
<path d="M94.6518 129.069L97.0307 130.44L95.3473 131.126L95.3776 131.146C96.2797 131.03 97.066 131.005 97.7363 131.075C98.4066 131.146 99.0064 131.332 99.5356 131.64C99.6716 131.72 99.8027 131.801 99.9287 131.887C100.05 131.972 100.15 132.058 100.221 132.139L97.2625 133.338C97.1668 133.212 97.0508 133.091 96.9248 132.985C96.7988 132.875 96.6426 132.769 96.4662 132.668C96.0126 132.406 95.564 132.234 95.1306 132.149C94.6921 132.068 94.2486 132.048 93.795 132.088C93.3414 132.134 92.8777 132.229 92.404 132.381C91.9302 132.532 91.4312 132.713 90.9121 132.92L86.5273 134.699L84.1484 133.328L94.6518 129.069Z" fill="#B2BFE8"/>
<path d="M102.644 137.018C102.76 136.856 102.785 136.685 102.725 136.504C102.664 136.322 102.513 136.156 102.271 136.02C101.666 135.672 100.956 135.501 100.134 135.506C99.3126 135.511 98.5062 135.677 97.7149 136C96.9237 136.322 96.4499 136.675 96.2937 137.068C96.1374 137.461 96.3592 137.829 96.964 138.177C97.2261 138.328 97.5335 138.429 97.8813 138.474C98.229 138.52 98.5818 138.54 98.9346 138.53L98.2593 140.349C97.3722 140.344 96.5709 140.243 95.8602 140.037C95.1496 139.83 94.5649 139.598 94.1113 139.336C93.5217 138.993 93.0933 138.62 92.8261 138.212C92.5641 137.804 92.4784 137.391 92.5741 136.972C92.6699 136.554 92.9471 136.146 93.4007 135.737C93.8543 135.334 94.4994 134.966 95.3361 134.624C96.1727 134.286 97.0396 134.044 97.9367 133.898C98.8338 133.752 99.7209 133.691 100.588 133.721C101.455 133.747 102.281 133.863 103.062 134.059C103.844 134.256 104.534 134.523 105.124 134.866C105.577 135.128 105.95 135.445 106.248 135.823C106.54 136.196 106.616 136.599 106.464 137.023L102.644 137.018Z" fill="#B2BFE8"/>
<path d="M116.666 136.05L109.408 138.993L109.438 139.013C109.69 138.963 109.983 138.933 110.315 138.923C110.643 138.912 110.976 138.928 111.313 138.968C111.651 139.008 111.994 139.079 112.336 139.18C112.679 139.28 112.997 139.411 113.279 139.578C113.884 139.926 114.241 140.258 114.357 140.576C114.473 140.893 114.413 141.201 114.176 141.498C113.934 141.795 113.551 142.093 113.017 142.38C112.488 142.667 111.868 142.955 111.162 143.242L105.376 145.59L102.997 144.215L108.138 142.128C108.44 142.007 108.748 141.876 109.055 141.735C109.363 141.594 109.615 141.448 109.811 141.291C110.003 141.135 110.109 140.974 110.114 140.808C110.124 140.641 109.973 140.47 109.665 140.293C109.358 140.117 109.035 140.001 108.692 139.956C108.35 139.91 108.002 139.905 107.654 139.951C107.301 139.996 106.949 140.072 106.601 140.183C106.253 140.293 105.905 140.419 105.558 140.561L100.331 142.682L97.9521 141.312L114.277 134.689L116.666 136.05Z" fill="#B2BFE8"/>
<path d="M127.442 143.292L135.067 147.697L131.958 148.957L126.807 145.983L123.954 147.138L128.823 149.95L125.713 151.21L120.844 148.398L117.735 149.658L123.173 152.797L120.063 154.057L112.15 149.486L127.442 143.292Z" fill="#B2BFE8"/>
<path d="M132.24 150.777L134.523 152.097L133.096 152.677L133.127 152.697C133.404 152.657 133.711 152.637 134.049 152.637C134.387 152.637 134.729 152.657 135.082 152.702C135.43 152.747 135.778 152.823 136.12 152.919C136.463 153.02 136.781 153.151 137.063 153.317C137.668 153.665 138.026 153.997 138.142 154.31C138.257 154.627 138.197 154.935 137.96 155.232C137.718 155.53 137.335 155.827 136.801 156.114C136.272 156.401 135.652 156.689 134.946 156.976L129.16 159.325L126.781 157.949L131.922 155.862C132.225 155.741 132.532 155.61 132.839 155.469C133.147 155.328 133.399 155.182 133.595 155.026C133.787 154.869 133.893 154.708 133.898 154.542C133.908 154.375 133.757 154.204 133.449 154.028C133.142 153.851 132.819 153.735 132.477 153.69C132.134 153.645 131.786 153.64 131.438 153.685C131.086 153.73 130.733 153.806 130.385 153.917C130.037 154.028 129.689 154.154 129.342 154.295L124.115 156.417L121.736 155.046L132.24 150.777Z" fill="#B2BFE8"/>
<path d="M139.815 164.601C137.829 165.408 135.955 165.806 134.191 165.801C132.427 165.796 130.794 165.357 129.297 164.49C128.611 164.092 128.037 163.659 127.578 163.19C127.119 162.721 126.918 162.202 126.958 161.633L130.95 161.305C130.904 161.688 130.96 162.046 131.121 162.384C131.282 162.716 131.605 163.024 132.094 163.306C132.825 163.724 133.601 163.941 134.427 163.941C135.254 163.941 136.04 163.795 136.791 163.488L137.804 163.074L137.774 163.054C136.993 163.099 136.297 163.049 135.682 162.898C135.068 162.747 134.579 162.57 134.221 162.364C133.651 162.036 133.263 161.683 133.067 161.305C132.87 160.927 132.845 160.549 132.991 160.156C133.142 159.768 133.455 159.39 133.939 159.017C134.422 158.644 135.057 158.296 135.849 157.979C136.539 157.697 137.3 157.47 138.122 157.298C138.948 157.122 139.765 157.021 140.566 156.991C141.373 156.961 142.144 157.006 142.89 157.132C143.63 157.258 144.281 157.48 144.83 157.797C145.168 157.994 145.425 158.19 145.606 158.392C145.783 158.594 145.909 158.79 145.969 158.987C146.035 159.178 146.045 159.36 146.009 159.531C145.974 159.702 145.909 159.854 145.818 159.985L145.848 160.005L147.229 159.445L149.416 160.71L139.815 164.601ZM138.248 159.345C137.9 159.486 137.623 159.647 137.406 159.828C137.189 160.01 137.053 160.196 136.988 160.393C136.927 160.59 136.932 160.781 137.018 160.973C137.099 161.164 137.28 161.335 137.557 161.497C137.819 161.648 138.142 161.764 138.52 161.839C138.898 161.915 139.291 161.955 139.704 161.96C140.118 161.965 140.526 161.93 140.929 161.86C141.332 161.789 141.71 161.683 142.053 161.542C142.401 161.401 142.678 161.24 142.895 161.058C143.106 160.877 143.247 160.69 143.313 160.494C143.373 160.297 143.363 160.101 143.273 159.909C143.182 159.718 143.006 159.541 142.743 159.39C142.471 159.234 142.144 159.118 141.776 159.042C141.403 158.972 141.015 158.931 140.601 158.926C140.188 158.921 139.78 158.957 139.377 159.027C138.974 159.098 138.596 159.204 138.248 159.345Z" fill="#B2BFE8"/>
<path d="M151.356 161.819L153.734 163.19L143.241 167.449L140.862 166.078L151.356 161.819ZM154.47 160.368C154.989 160.156 155.564 160.055 156.204 160.06C156.844 160.065 157.348 160.181 157.731 160.398C158.109 160.62 158.255 160.882 158.155 161.184C158.059 161.487 157.746 161.749 157.232 161.955C156.713 162.167 156.139 162.268 155.498 162.263C154.863 162.258 154.354 162.142 153.971 161.925C153.588 161.703 153.447 161.441 153.548 161.139C153.644 160.836 153.951 160.579 154.47 160.368Z" fill="#B2BFE8"/>
<path d="M155.449 164.183L157.732 165.503L156.306 166.083L156.336 166.103C156.613 166.063 156.921 166.042 157.258 166.042C157.596 166.042 157.939 166.063 158.291 166.108C158.639 166.153 158.987 166.224 159.33 166.325C159.672 166.425 159.99 166.556 160.272 166.723C160.877 167.071 161.235 167.403 161.351 167.716C161.467 168.033 161.406 168.341 161.169 168.638C160.927 168.935 160.544 169.233 160.01 169.52C159.481 169.807 158.861 170.095 158.155 170.382L152.369 172.73L149.991 171.355L155.131 169.268C155.434 169.147 155.741 169.016 156.049 168.875C156.356 168.734 156.608 168.588 156.8 168.431C156.991 168.275 157.097 168.114 157.102 167.947C157.112 167.781 156.961 167.61 156.653 167.433C156.346 167.257 156.023 167.141 155.681 167.096C155.338 167.045 154.99 167.045 154.642 167.091C154.29 167.136 153.937 167.212 153.589 167.323C153.241 167.433 152.894 167.559 152.546 167.701L147.319 169.822L144.94 168.451L155.449 164.183Z" fill="#B2BFE8"/>
<path d="M163.159 177.171C162.116 177.221 161.123 177.151 160.181 176.959C159.238 176.768 158.457 176.496 157.832 176.133C157.242 175.79 156.814 175.417 156.547 175.009C156.285 174.601 156.199 174.187 156.295 173.769C156.391 173.351 156.668 172.942 157.121 172.539C157.575 172.136 158.22 171.763 159.057 171.425C159.893 171.088 160.76 170.846 161.657 170.7C162.555 170.553 163.437 170.493 164.308 170.523C165.175 170.548 166.002 170.664 166.783 170.861C167.564 171.057 168.255 171.33 168.844 171.667C169.394 171.985 169.767 172.328 169.953 172.69C170.145 173.053 170.155 173.426 169.983 173.799C169.812 174.177 169.474 174.55 168.965 174.923C168.456 175.296 167.786 175.654 166.949 175.992L165.936 176.405L160.418 173.22C159.893 173.527 159.606 173.845 159.556 174.177C159.505 174.51 159.712 174.807 160.176 175.079C160.569 175.306 161.017 175.447 161.521 175.508C162.03 175.568 162.57 175.578 163.144 175.543L163.159 177.171ZM165.765 174.137C166.324 173.92 166.657 173.653 166.773 173.341C166.884 173.023 166.728 172.741 166.294 172.489C166.032 172.338 165.74 172.227 165.422 172.156C165.105 172.086 164.787 172.045 164.465 172.04C164.142 172.03 163.825 172.05 163.507 172.101C163.19 172.151 162.897 172.227 162.625 172.328L165.765 174.137Z" fill="#B2BFE8"/>
<path d="M174.919 178.466C175.16 178.023 174.994 177.64 174.425 177.312C174.223 177.196 173.966 177.11 173.643 177.05C173.321 176.989 173.003 177.03 172.691 177.156C172.434 177.262 172.338 177.393 172.414 177.559C172.489 177.72 172.63 177.907 172.837 178.118C173.044 178.33 173.265 178.557 173.502 178.799C173.739 179.041 173.89 179.298 173.961 179.565C174.031 179.832 173.966 180.104 173.764 180.376C173.563 180.649 173.134 180.921 172.469 181.188C171.794 181.46 171.123 181.626 170.468 181.677C169.813 181.732 169.183 181.712 168.578 181.626C167.973 181.541 167.404 181.394 166.875 181.193C166.345 180.991 165.872 180.775 165.458 180.538C164.919 180.225 164.481 179.867 164.138 179.469C163.795 179.066 163.705 178.648 163.856 178.214L167.479 178.164C167.328 178.441 167.288 178.703 167.364 178.935C167.439 179.167 167.656 179.389 168.014 179.595C168.286 179.751 168.593 179.877 168.921 179.958C169.254 180.044 169.561 180.029 169.848 179.908C170.12 179.797 170.231 179.656 170.171 179.489C170.11 179.323 169.979 179.131 169.773 178.92C169.566 178.708 169.344 178.481 169.107 178.239C168.871 177.997 168.709 177.745 168.629 177.483C168.543 177.221 168.598 176.954 168.8 176.682C169.002 176.41 169.43 176.138 170.095 175.871C170.715 175.619 171.34 175.457 171.97 175.382C172.6 175.306 173.21 175.301 173.8 175.357C174.389 175.412 174.944 175.528 175.473 175.699C176.002 175.871 176.466 176.072 176.869 176.304C177.378 176.596 177.786 176.934 178.104 177.317C178.421 177.695 178.497 178.098 178.341 178.517L174.919 178.466Z" fill="#B2BFE8"/>
</g>
<defs>
<clipPath id="clip0_2532_1031">
<rect width="386.568" height="406.794" fill="white"/>
</clipPath>
</defs>
</svg>
