<?xml version="1.0" encoding="UTF-8" standalone="no"?>
<!-- Uploaded to: SVG Repo, www.svgrepo.com, Generator: SVG Repo Mixer Tools -->

<svg
   fill="#000000"
   height="800px"
   width="800px"
   version="1.1"
   id="Capa_1"
   viewBox="0 0 340.699 340.699"
   xml:space="preserve"
   sodipodi:docname="icon.svg"
   inkscape:version="1.1.2 (0a00cf5339, 2022-02-04)"
   xmlns:inkscape="http://www.inkscape.org/namespaces/inkscape"
   xmlns:sodipodi="http://sodipodi.sourceforge.net/DTD/sodipodi-0.dtd"
   xmlns="http://www.w3.org/2000/svg"
   xmlns:svg="http://www.w3.org/2000/svg"><defs
   id="defs15" /><sodipodi:namedview
   id="namedview13"
   pagecolor="#ffffff"
   bordercolor="#999999"
   borderopacity="1"
   inkscape:pageshadow="0"
   inkscape:pageopacity="0"
   inkscape:pagecheckerboard="true"
   showgrid="false"
   inkscape:zoom="0.89875"
   inkscape:cx="399.44367"
   inkscape:cy="399.44367"
   inkscape:window-width="2560"
   inkscape:window-height="1011"
   inkscape:window-x="0"
   inkscape:window-y="32"
   inkscape:window-maximized="1"
   inkscape:current-layer="Capa_1" />
<g
   id="g10"
   style="fill:#ffffff">
	<path
   d="M257.63,112.591c-25.554-25.554-59.513-40.557-95.623-42.245l-8.417-0.393l3.027,7.863   c5.282,13.72,12.018,26.922,20.021,39.241c8.013,12.332,17.34,23.849,27.724,34.232l13.526,13.526H108.261v-60.551l-12.157,11.201   l-0.163,0.156c-2.008,2.008-4.679,3.114-7.521,3.114c-2.842,0-5.513-1.106-7.524-3.117c-2.011-2.008-3.118-4.678-3.118-7.518   c0-2.84,1.107-5.51,3.123-7.521l22.397-22.409l-2.042-3.634C91.568,57.298,73.281,46.59,53.531,46.59h-5.5v146.817   c-2.839,6.191-4.435,13.066-4.435,20.311c0,8.3,2.085,16.121,5.749,22.975l-3.574,3.574c-11.428-7.659-27.08-6.449-37.169,3.64   c-11.469,11.469-11.469,30.131,0,41.6c11.469,11.469,30.131,11.469,41.6,0c10.191-10.191,11.319-26.057,3.399-37.514l2.109-2.109   c8.971,10.247,22.132,16.737,36.788,16.737h199.297c26.966,0,48.903-21.937,48.903-48.903c0-13.925-5.851-26.508-15.224-35.422   C324.918,177.765,257.63,112.591,257.63,112.591z M42.424,277.729c-7.18,7.18-18.863,7.18-26.044,0   c-7.18-7.18-7.18-18.863,0-26.043c5.771-5.771,14.448-6.894,21.361-3.388l-2.72,2.72l7.778,7.778l2.814-2.814   C49.361,262.955,48.303,271.85,42.424,277.729z M212.14,143.511c-9.841-9.842-18.683-20.758-26.276-32.447   c-5.986-9.213-11.225-18.949-15.628-29.036c30.077,3.376,58.083,16.807,79.672,38.396l45.855,44.565   c-1.31-0.106-2.63-0.175-3.967-0.175h-58.352L212.14,143.511z M89.481,76.433L73.125,92.798c-4.093,4.086-6.347,9.521-6.347,15.302   c0,5.782,2.254,11.216,6.343,15.299c4.085,4.086,9.519,6.336,15.299,6.336c3.097,0,6.096-0.646,8.84-1.875v36.955h-4.762   c-12.939,0-24.712,5.061-33.468,13.295V57.939C71.298,59.5,82.404,66.225,89.481,76.433z M291.796,251.621H92.499   c-20.9,0-37.903-17.003-37.903-37.903c0-20.899,17.003-37.902,37.903-37.902h199.297c20.9,0,37.903,17.003,37.903,37.902   C329.699,234.618,312.696,251.621,291.796,251.621z"
   id="path2"
   style="fill:#ffffff" />
	<path
   d="M247.074,126.685l-8.203-7.656c-4.441-4.145-11.402-3.905-15.548,0.536l24.287,22.668   C251.756,137.792,251.516,130.83,247.074,126.685z"
   id="path4"
   style="fill:#ffffff" />
	<path
   d="M290.04,183.098c-3.037,0-5.5,2.462-5.5,5.5s2.463,5.5,5.5,5.5c10.855,0,19.688,8.832,19.688,19.688   s-8.832,19.688-19.688,19.688c-3.037,0-5.5,2.462-5.5,5.5s2.463,5.5,5.5,5.5c16.921,0,30.688-13.767,30.688-30.688   S306.961,183.098,290.04,183.098z"
   id="path6"
   style="fill:#ffffff" />
	<path
   d="M94.063,194.098c3.038,0,5.5-2.462,5.5-5.5s-2.462-5.5-5.5-5.5c-16.921,0-30.688,13.767-30.688,30.688   s13.766,30.688,30.688,30.688c3.038,0,5.5-2.462,5.5-5.5s-2.462-5.5-5.5-5.5c-10.856,0-19.688-8.832-19.688-19.688   S83.207,194.098,94.063,194.098z"
   id="path8"
   style="fill:#ffffff" />
</g>
</svg>
