<svg width="564" height="432" viewBox="0 0 564 432" fill="none" xmlns="http://www.w3.org/2000/svg">
<rect x="60.5" y="32.5" width="479" height="319" rx="7.5" stroke="#161E33"/>
<g opacity="0.8" filter="url(#filter0_f_1106_3908)">
<rect x="120" y="232" width="320" height="80" rx="4" fill="#2F6FF0"/>
</g>
<rect x="24" width="500" height="336" rx="8" fill="url(#paint0_linear_1106_3908)"/>
<mask id="path-4-inside-1_1106_3908" fill="white">
<path d="M24 0H524V24H24V0Z"/>
</mask>
<path d="M524 23H24V25H524V23Z" fill="#28324D" mask="url(#path-4-inside-1_1106_3908)"/>
<circle cx="39" cy="12" r="3" fill="#DC244C"/>
<circle cx="49" cy="12" r="3" fill="#28324D"/>
<circle cx="59" cy="12" r="3" fill="#008A53"/>
<circle cx="511" cy="9" r="1" fill="#28324D"/>
<circle cx="511" cy="12" r="1" fill="#28324D"/>
<circle cx="511" cy="15" r="1" fill="#28324D"/>
<mask id="path-12-inside-2_1106_3908" fill="white">
<path d="M69 40H153.5V50H69V40Z"/>
</mask>
<path d="M70 50V40H68V50H70Z" fill="#DC244C" mask="url(#path-12-inside-2_1106_3908)"/>
<path d="M84.232 48.384L83.608 47.68C83.176 47.944 82.664 48.096 82.096 48.096C80.464 48.096 79.328 46.864 79.328 45.104C79.328 43.352 80.472 42.112 82.104 42.112C83.744 42.112 84.888 43.344 84.888 45.104C84.888 45.968 84.608 46.704 84.136 47.232L84.744 47.92L84.232 48.384ZM84.064 45.104C84.064 43.76 83.28 42.872 82.104 42.872C80.928 42.872 80.152 43.76 80.152 45.104C80.152 46.448 80.928 47.344 82.104 47.344C82.472 47.344 82.8 47.256 83.08 47.088L82.32 46.232L82.832 45.768L83.6 46.632C83.896 46.248 84.064 45.72 84.064 45.104ZM87.3307 48.096C86.1948 48.096 85.5068 47.248 85.5068 46.056C85.5068 44.856 86.2028 43.976 87.3628 43.976C87.9628 43.976 88.4668 44.24 88.7308 44.72V42.112H89.4748V48H88.8028L88.7388 47.288C88.4828 47.824 87.9548 48.096 87.3307 48.096ZM87.4828 47.416C88.2508 47.416 88.7228 46.848 88.7228 46.032C88.7228 45.232 88.2508 44.656 87.4828 44.656C86.7148 44.656 86.2668 45.232 86.2668 46.032C86.2668 46.84 86.7148 47.416 87.4828 47.416ZM92.7996 44.056V44.744H92.4636C91.7516 44.744 91.3116 45.176 91.3116 45.928V48H90.5596V44.096H91.2636L91.3116 44.688C91.4716 44.28 91.8636 44.008 92.3996 44.008C92.5356 44.008 92.6476 44.024 92.7996 44.056ZM94.4927 48.096C93.6527 48.096 93.1567 47.624 93.1567 46.912C93.1567 46.192 93.6927 45.744 94.6127 45.672L95.8447 45.576V45.464C95.8447 44.808 95.4527 44.576 94.9247 44.576C94.2927 44.576 93.9327 44.856 93.9327 45.328H93.2767C93.2767 44.512 93.9487 43.976 94.9567 43.976C95.9247 43.976 96.5807 44.488 96.5807 45.544V48H95.9407L95.8607 47.368C95.6607 47.816 95.1247 48.096 94.4927 48.096ZM94.7087 47.512C95.4207 47.512 95.8527 47.048 95.8527 46.312V46.104L94.8527 46.184C94.1887 46.248 93.9167 46.504 93.9167 46.888C93.9167 47.304 94.2207 47.512 94.7087 47.512ZM98.3741 48H97.6221V44.088H98.3021L98.3821 44.688C98.6301 44.24 99.1261 43.976 99.6781 43.976C100.71 43.976 101.182 44.608 101.182 45.608V48H100.43V45.776C100.43 44.984 100.062 44.664 99.4861 44.664C98.7821 44.664 98.3741 45.168 98.3741 45.928V48ZM103.328 48H102.576V44.72H101.808V44.088H102.576V42.864H103.328V44.088H104.096V44.72H103.328V48Z" fill="#F0F3FA"/>
<mask id="path-15-inside-3_1106_3908" fill="white">
<path d="M177.5 40H262V50H177.5V40Z"/>
</mask>
<path d="M178.5 50V40H176.5V50H178.5Z" fill="#E0700D" mask="url(#path-15-inside-3_1106_3908)"/>
<path d="M188.412 48H187.596L189.708 42.216H190.58L192.7 48H191.876L191.356 46.56H188.924L188.412 48ZM190.044 43.464L189.164 45.88H191.124L190.236 43.464C190.196 43.352 190.156 43.216 190.14 43.128C190.124 43.208 190.084 43.344 190.044 43.464ZM194.109 48H193.357V42.112H194.109V48ZM196.32 48H195.568V44.72H194.8V44.088H195.568V42.864H196.32V44.088H197.088V44.72H196.32V48ZM199.412 48.096C198.26 48.096 197.468 47.264 197.468 46.048C197.468 44.824 198.244 43.976 199.38 43.976C200.492 43.976 201.22 44.744 201.22 45.904V46.184L198.196 46.192C198.252 47.016 198.684 47.472 199.428 47.472C200.012 47.472 200.396 47.232 200.524 46.784H201.228C201.036 47.624 200.38 48.096 199.412 48.096ZM199.38 44.608C198.724 44.608 198.308 45 198.212 45.688H200.468C200.468 45.04 200.044 44.608 199.38 44.608ZM204.3 44.056V44.744H203.964C203.252 44.744 202.812 45.176 202.812 45.928V48H202.06V44.096H202.764L202.812 44.688C202.972 44.28 203.364 44.008 203.9 44.008C204.036 44.008 204.148 44.024 204.3 44.056ZM205.757 48H205.005V44.088H205.685L205.765 44.688C206.013 44.24 206.509 43.976 207.061 43.976C208.093 43.976 208.565 44.608 208.565 45.608V48H207.813V45.776C207.813 44.984 207.445 44.664 206.869 44.664C206.165 44.664 205.757 45.168 205.757 45.928V48ZM210.751 48.096C209.911 48.096 209.415 47.624 209.415 46.912C209.415 46.192 209.951 45.744 210.871 45.672L212.103 45.576V45.464C212.103 44.808 211.711 44.576 211.183 44.576C210.551 44.576 210.191 44.856 210.191 45.328H209.535C209.535 44.512 210.207 43.976 211.215 43.976C212.183 43.976 212.839 44.488 212.839 45.544V48H212.199L212.119 47.368C211.919 47.816 211.383 48.096 210.751 48.096ZM210.967 47.512C211.679 47.512 212.111 47.048 212.111 46.312V46.104L211.111 46.184C210.447 46.248 210.175 46.504 210.175 46.888C210.175 47.304 210.479 47.512 210.967 47.512ZM214.921 48H214.169V44.72H213.401V44.088H214.169V42.864H214.921V44.088H215.689V44.72H214.921V48ZM216.732 43.16C216.46 43.16 216.236 42.936 216.236 42.664C216.236 42.384 216.46 42.168 216.732 42.168C217.004 42.168 217.228 42.384 217.228 42.664C217.228 42.936 217.004 43.16 216.732 43.16ZM216.364 48V44.088H217.116V48H216.364ZM219.304 48L217.728 44.088H218.528L219.384 46.272C219.52 46.64 219.632 46.968 219.696 47.208C219.76 46.952 219.888 46.616 220.024 46.272L220.896 44.088H221.68L220.048 48H219.304ZM223.787 48.096C222.635 48.096 221.843 47.264 221.843 46.048C221.843 44.824 222.619 43.976 223.755 43.976C224.867 43.976 225.595 44.744 225.595 45.904V46.184L222.571 46.192C222.627 47.016 223.059 47.472 223.803 47.472C224.387 47.472 224.771 47.232 224.899 46.784H225.603C225.411 47.624 224.755 48.096 223.787 48.096ZM223.755 44.608C223.099 44.608 222.683 45 222.587 45.688H224.843C224.843 45.04 224.419 44.608 223.755 44.608ZM229.574 42.92H228.358V42.216H230.326V48H229.574V42.92Z" fill="#F0F3FA"/>
<mask id="path-18-inside-4_1106_3908" fill="white">
<path d="M286 40H370.5V50H286V40Z"/>
</mask>
<path d="M287 50V40H285V50H287Z" fill="#8547FF" mask="url(#path-18-inside-4_1106_3908)"/>
<path d="M296.912 48H296.096L298.208 42.216H299.08L301.2 48H300.376L299.856 46.56H297.424L296.912 48ZM298.544 43.464L297.664 45.88H299.624L298.736 43.464C298.696 43.352 298.656 43.216 298.64 43.128C298.624 43.208 298.584 43.344 298.544 43.464ZM302.609 48H301.857V42.112H302.609V48ZM304.82 48H304.068V44.72H303.3V44.088H304.068V42.864H304.82V44.088H305.588V44.72H304.82V48ZM307.912 48.096C306.76 48.096 305.968 47.264 305.968 46.048C305.968 44.824 306.744 43.976 307.88 43.976C308.992 43.976 309.72 44.744 309.72 45.904V46.184L306.696 46.192C306.752 47.016 307.184 47.472 307.928 47.472C308.512 47.472 308.896 47.232 309.024 46.784H309.728C309.536 47.624 308.88 48.096 307.912 48.096ZM307.88 44.608C307.224 44.608 306.808 45 306.712 45.688H308.968C308.968 45.04 308.544 44.608 307.88 44.608ZM312.8 44.056V44.744H312.464C311.752 44.744 311.312 45.176 311.312 45.928V48H310.56V44.096H311.264L311.312 44.688C311.472 44.28 311.864 44.008 312.4 44.008C312.536 44.008 312.648 44.024 312.8 44.056ZM314.257 48H313.505V44.088H314.185L314.265 44.688C314.513 44.24 315.009 43.976 315.561 43.976C316.593 43.976 317.065 44.608 317.065 45.608V48H316.313V45.776C316.313 44.984 315.945 44.664 315.369 44.664C314.665 44.664 314.257 45.168 314.257 45.928V48ZM319.251 48.096C318.411 48.096 317.915 47.624 317.915 46.912C317.915 46.192 318.451 45.744 319.371 45.672L320.603 45.576V45.464C320.603 44.808 320.211 44.576 319.683 44.576C319.051 44.576 318.691 44.856 318.691 45.328H318.035C318.035 44.512 318.707 43.976 319.715 43.976C320.683 43.976 321.339 44.488 321.339 45.544V48H320.699L320.619 47.368C320.419 47.816 319.883 48.096 319.251 48.096ZM319.467 47.512C320.179 47.512 320.611 47.048 320.611 46.312V46.104L319.611 46.184C318.947 46.248 318.675 46.504 318.675 46.888C318.675 47.304 318.979 47.512 319.467 47.512ZM323.421 48H322.669V44.72H321.901V44.088H322.669V42.864H323.421V44.088H324.189V44.72H323.421V48ZM325.232 43.16C324.96 43.16 324.736 42.936 324.736 42.664C324.736 42.384 324.96 42.168 325.232 42.168C325.504 42.168 325.728 42.384 325.728 42.664C325.728 42.936 325.504 43.16 325.232 43.16ZM324.864 48V44.088H325.616V48H324.864ZM327.804 48L326.228 44.088H327.028L327.884 46.272C328.02 46.64 328.132 46.968 328.196 47.208C328.26 46.952 328.388 46.616 328.524 46.272L329.396 44.088H330.18L328.548 48H327.804ZM332.287 48.096C331.135 48.096 330.343 47.264 330.343 46.048C330.343 44.824 331.119 43.976 332.255 43.976C333.367 43.976 334.095 44.744 334.095 45.904V46.184L331.071 46.192C331.127 47.016 331.559 47.472 332.303 47.472C332.887 47.472 333.271 47.232 333.399 46.784H334.103C333.911 47.624 333.255 48.096 332.287 48.096ZM332.255 44.608C331.599 44.608 331.183 45 331.087 45.688H333.343C333.343 45.04 332.919 44.608 332.255 44.608ZM340.85 47.992L336.946 48V47.4L338.81 45.792C339.746 44.984 340.01 44.592 340.01 43.976C340.01 43.248 339.594 42.816 338.898 42.816C338.186 42.816 337.722 43.336 337.706 44.16H336.922C336.946 42.92 337.73 42.112 338.906 42.112C340.066 42.112 340.81 42.816 340.81 43.928C340.81 44.752 340.402 45.336 339.378 46.224L338.178 47.264H340.85V47.992Z" fill="#F0F3FA"/>
<mask id="path-21-inside-5_1106_3908" fill="white">
<path d="M394.5 40H479V50H394.5V40Z"/>
</mask>
<path d="M395.5 50V40H393.5V50H395.5Z" fill="#008A53" mask="url(#path-21-inside-5_1106_3908)"/>
<path d="M405.412 48H404.596L406.708 42.216H407.58L409.7 48H408.876L408.356 46.56H405.924L405.412 48ZM407.044 43.464L406.164 45.88H408.124L407.236 43.464C407.196 43.352 407.156 43.216 407.14 43.128C407.124 43.208 407.084 43.344 407.044 43.464ZM411.109 48H410.357V42.112H411.109V48ZM413.32 48H412.568V44.72H411.8V44.088H412.568V42.864H413.32V44.088H414.088V44.72H413.32V48ZM416.412 48.096C415.26 48.096 414.468 47.264 414.468 46.048C414.468 44.824 415.244 43.976 416.38 43.976C417.492 43.976 418.22 44.744 418.22 45.904V46.184L415.196 46.192C415.252 47.016 415.684 47.472 416.428 47.472C417.012 47.472 417.396 47.232 417.524 46.784H418.228C418.036 47.624 417.38 48.096 416.412 48.096ZM416.38 44.608C415.724 44.608 415.308 45 415.212 45.688H417.468C417.468 45.04 417.044 44.608 416.38 44.608ZM421.3 44.056V44.744H420.964C420.252 44.744 419.812 45.176 419.812 45.928V48H419.06V44.096H419.764L419.812 44.688C419.972 44.28 420.364 44.008 420.9 44.008C421.036 44.008 421.148 44.024 421.3 44.056ZM422.757 48H422.005V44.088H422.685L422.765 44.688C423.013 44.24 423.509 43.976 424.061 43.976C425.093 43.976 425.565 44.608 425.565 45.608V48H424.813V45.776C424.813 44.984 424.445 44.664 423.869 44.664C423.165 44.664 422.757 45.168 422.757 45.928V48ZM427.751 48.096C426.911 48.096 426.415 47.624 426.415 46.912C426.415 46.192 426.951 45.744 427.871 45.672L429.103 45.576V45.464C429.103 44.808 428.711 44.576 428.183 44.576C427.551 44.576 427.191 44.856 427.191 45.328H426.535C426.535 44.512 427.207 43.976 428.215 43.976C429.183 43.976 429.839 44.488 429.839 45.544V48H429.199L429.119 47.368C428.919 47.816 428.383 48.096 427.751 48.096ZM427.967 47.512C428.679 47.512 429.111 47.048 429.111 46.312V46.104L428.111 46.184C427.447 46.248 427.175 46.504 427.175 46.888C427.175 47.304 427.479 47.512 427.967 47.512ZM431.921 48H431.169V44.72H430.401V44.088H431.169V42.864H431.921V44.088H432.689V44.72H431.921V48ZM433.732 43.16C433.46 43.16 433.236 42.936 433.236 42.664C433.236 42.384 433.46 42.168 433.732 42.168C434.004 42.168 434.228 42.384 434.228 42.664C434.228 42.936 434.004 43.16 433.732 43.16ZM433.364 48V44.088H434.116V48H433.364ZM436.304 48L434.728 44.088H435.528L436.384 46.272C436.52 46.64 436.632 46.968 436.696 47.208C436.76 46.952 436.888 46.616 437.024 46.272L437.896 44.088H438.68L437.048 48H436.304ZM440.787 48.096C439.635 48.096 438.843 47.264 438.843 46.048C438.843 44.824 439.619 43.976 440.755 43.976C441.867 43.976 442.595 44.744 442.595 45.904V46.184L439.571 46.192C439.627 47.016 440.059 47.472 440.803 47.472C441.387 47.472 441.771 47.232 441.899 46.784H442.603C442.411 47.624 441.755 48.096 440.787 48.096ZM440.755 44.608C440.099 44.608 439.683 45 439.587 45.688H441.843C441.843 45.04 441.419 44.608 440.755 44.608ZM447.126 45.008H446.55V44.488L448.19 42.912H445.59V42.216H449.182V42.848L447.598 44.36C448.582 44.48 449.326 45.144 449.326 46.184C449.326 47.352 448.446 48.096 447.27 48.096C446.134 48.096 445.318 47.4 445.318 46.2H446.094C446.094 46.952 446.558 47.392 447.286 47.392C448.038 47.392 448.526 46.912 448.526 46.168C448.526 45.472 448.046 45.008 447.126 45.008Z" fill="#F0F3FA"/>
<rect x="46" y="79" width="76" height="31" stroke="#28324D"/>
<rect x="122" y="79" width="76" height="31" stroke="#28324D"/>
<rect x="198" y="79" width="76" height="31" stroke="#28324D"/>
<rect x="274" y="79" width="76" height="31" stroke="#28324D"/>
<rect x="350" y="79" width="76" height="31" stroke="#28324D"/>
<rect x="426" y="79" width="76" height="31" stroke="#28324D"/>
<rect x="46" y="110" width="76" height="31" stroke="#28324D"/>
<rect x="122" y="110" width="76" height="31" stroke="#28324D"/>
<rect x="198" y="110" width="76" height="31" stroke="#28324D"/>
<rect x="274" y="110" width="76" height="31" stroke="#28324D"/>
<rect x="350" y="110" width="76" height="31" stroke="#28324D"/>
<rect x="426" y="110" width="76" height="31" stroke="#28324D"/>
<rect x="46" y="141" width="76" height="31" stroke="#28324D"/>
<rect x="122" y="141" width="76" height="31" stroke="#28324D"/>
<rect x="198" y="141" width="76" height="31" stroke="#28324D"/>
<rect x="274" y="141" width="76" height="31" stroke="#28324D"/>
<rect x="350" y="141" width="76" height="31" stroke="#28324D"/>
<rect x="426" y="141" width="76" height="31" stroke="#28324D"/>
<rect x="46" y="172" width="76" height="31" stroke="#28324D"/>
<rect x="122" y="172" width="76" height="31" stroke="#28324D"/>
<rect x="198" y="172" width="76" height="31" stroke="#28324D"/>
<rect x="274" y="172" width="76" height="31" stroke="#28324D"/>
<rect x="350" y="172" width="76" height="31" stroke="#28324D"/>
<rect x="426" y="172" width="76" height="31" stroke="#28324D"/>
<rect x="46" y="203" width="76" height="31" stroke="#28324D"/>
<rect x="122" y="203" width="76" height="31" stroke="#28324D"/>
<rect x="198" y="203" width="76" height="31" stroke="#28324D"/>
<rect x="274" y="203" width="76" height="31" stroke="#28324D"/>
<rect x="350" y="203" width="76" height="31" stroke="#28324D"/>
<rect x="426" y="203" width="76" height="31" stroke="#28324D"/>
<rect x="46" y="234" width="76" height="31" stroke="#28324D"/>
<rect x="122" y="234" width="76" height="31" stroke="#28324D"/>
<rect x="198" y="234" width="76" height="31" stroke="#28324D"/>
<rect x="274" y="234" width="76" height="31" stroke="#28324D"/>
<rect x="350" y="234" width="76" height="31" stroke="#28324D"/>
<rect x="426" y="234" width="76" height="31" stroke="#28324D"/>
<rect x="46" y="265" width="76" height="31" stroke="#28324D"/>
<rect x="122" y="265" width="76" height="31" stroke="#28324D"/>
<rect x="198" y="265" width="76" height="31" stroke="#28324D"/>
<rect x="274" y="265" width="76" height="31" stroke="#28324D"/>
<rect x="350" y="265" width="76" height="31" stroke="#28324D"/>
<rect x="426" y="265" width="76" height="31" stroke="#28324D"/>
<path d="M396.5 198H434.5L469 219L473.5 230L485 237L490 247.5L492 255.5L497 261L501 267.5V275.5" stroke="#E0700D" stroke-width="2" stroke-miterlimit="10"/>
<circle cx="501" cy="276" r="2" fill="#E0700D"/>
<circle cx="397" cy="198" r="2" fill="#E0700D"/>
<path d="M269.5 121.5L444.5 124.5L454.5 137.5H463L470.5 165L484 181.5L488 215.5L497 228.5V249L501 251.5V275.5" stroke="#DC244C" stroke-width="2" stroke-miterlimit="10"/>
<circle cx="501" cy="277" r="2" fill="#DC244C"/>
<circle cx="269" cy="121" r="2" fill="#DC244C"/>
<path d="M498.5 285.5L494 281.5L490 276.5H483L482 269.5L467.5 268V260.5H448L445.5 248.5L423.5 245.5L407 236L374 226.5L359 215.5L329 209.5L255.5 198L115 164" stroke="#8547FF" stroke-width="2" stroke-miterlimit="10"/>
<circle cx="499" cy="286" r="2" fill="#8547FF"/>
<circle cx="116" cy="164" r="2" fill="#8547FF"/>
<path d="M500 272L494.5 268L490 265L482 260.5L468.5 256H457.5L445 252.5H410.5L376.5 251L371 248.5L332 247H246.5H121" stroke="#008A53" stroke-width="2" stroke-miterlimit="10"/>
<circle cx="500" cy="272" r="2" fill="#008A53"/>
<circle cx="122" cy="247" r="2" fill="#008A53"/>
<defs>
<filter id="filter0_f_1106_3908" x="0" y="112" width="560" height="320" filterUnits="userSpaceOnUse" color-interpolation-filters="sRGB">
<feFlood flood-opacity="0" result="BackgroundImageFix"/>
<feBlend mode="normal" in="SourceGraphic" in2="BackgroundImageFix" result="shape"/>
<feGaussianBlur stdDeviation="60" result="effect1_foregroundBlur_1106_3908"/>
</filter>
<linearGradient id="paint0_linear_1106_3908" x1="274" y1="0" x2="274" y2="336" gradientUnits="userSpaceOnUse">
<stop stop-color="#161E33"/>
<stop offset="1" stop-color="#0E1424"/>
</linearGradient>
</defs>
</svg>
