<?xml version="1.0" encoding="utf-8"?>
<!-- Generator: Adobe Adobe Illustrator 24.2.0, SVG Export Plug-In . SVG Version: 6.00 Build 0)  -->
<svg version="1.1" id="XMLID_1_" xmlns="http://www.w3.org/2000/svg" xmlns:xlink="http://www.w3.org/1999/xlink" x="0px" y="0px"
	 viewBox="0 0 7000 3035.07" style="enable-background:new 0 0 7000 3035.07;" xml:space="preserve">
<style type="text/css">
	.st0{fill:#FAF7F8;}
	.st1{fill:url(#SVGID_1_);}
	.st2{fill:url(#SVGID_2_);}
	.st3{fill:url(#SVGID_3_);}
	.st4{fill:#021F43;}
	.st5{fill:#B60039;}
	.st6{fill:#FF0052;}
</style>
<rect x="0" y="0" class="st0" width="7000" height="3035.07"/>
<radialGradient id="SVGID_1_" cx="3669.5215" cy="7864.3535" r="737.4062" gradientTransform="matrix(1 0 0 0.1838 0 1227.6292)" gradientUnits="userSpaceOnUse">
	<stop  offset="0" style="stop-color:#B39AB0"/>
	<stop  offset="0.0208" style="stop-color:#B69EB3"/>
	<stop  offset="0.1959" style="stop-color:#CFBECC"/>
	<stop  offset="0.3775" style="stop-color:#E2D7DF"/>
	<stop  offset="0.5665" style="stop-color:#EFE9ED"/>
	<stop  offset="0.7672" style="stop-color:#F7F4F5"/>
	<stop  offset="1" style="stop-color:#FAF7F8"/>
</radialGradient>
<ellipse class="st1" cx="3669.52" cy="2673.1" rx="737.49" ry="135.52"/>
<radialGradient id="SVGID_2_" cx="5537.6133" cy="7864.3535" r="737.4062" gradientTransform="matrix(1 0 0 0.1838 0 1227.6292)" gradientUnits="userSpaceOnUse">
	<stop  offset="0" style="stop-color:#B39AB0"/>
	<stop  offset="0.0208" style="stop-color:#B69EB3"/>
	<stop  offset="0.1959" style="stop-color:#CFBECC"/>
	<stop  offset="0.3775" style="stop-color:#E2D7DF"/>
	<stop  offset="0.5665" style="stop-color:#EFE9ED"/>
	<stop  offset="0.7672" style="stop-color:#F7F4F5"/>
	<stop  offset="1" style="stop-color:#FAF7F8"/>
</radialGradient>
<path class="st2" d="M6275.1,2673.1c0,74.85-330.18,135.52-737.48,135.52c-407.31,0-737.5-60.67-737.5-135.52
	c0-74.84,330.19-135.52,737.5-135.52C5944.92,2537.58,6275.1,2598.26,6275.1,2673.1z"/>
<radialGradient id="SVGID_3_" cx="1569.3998" cy="7864.3535" r="737.4056" gradientTransform="matrix(1 0 0 0.1838 0 1227.6292)" gradientUnits="userSpaceOnUse">
	<stop  offset="0" style="stop-color:#B39AB0"/>
	<stop  offset="0.0208" style="stop-color:#B69EB3"/>
	<stop  offset="0.1959" style="stop-color:#CFBECC"/>
	<stop  offset="0.3775" style="stop-color:#E2D7DF"/>
	<stop  offset="0.5665" style="stop-color:#EFE9ED"/>
	<stop  offset="0.7672" style="stop-color:#F7F4F5"/>
	<stop  offset="1" style="stop-color:#FAF7F8"/>
</radialGradient>
<ellipse class="st3" cx="1569.4" cy="2673.1" rx="737.49" ry="135.52"/>
<g>
	<g>
		<polygon class="st4" points="3063.89,1912.95 3063.89,2144.31 3054.76,2139.04 3054.76,1907.68 		"/>
		<polygon class="st4" points="3043.28,1901.06 3043.28,2132.41 3034.14,2127.14 3034.14,1895.78 		"/>
		<polygon class="st4" points="3022.67,1889.16 3022.67,2120.51 3013.54,2115.24 3013.53,1883.88 		"/>
		<polygon class="st4" points="3002.06,1877.26 3002.06,2108.61 2992.92,2103.34 2992.93,1871.99 		"/>
		<polygon class="st4" points="2981.46,1865.36 2981.46,2501.34 2972.32,2496.07 2972.32,1860.09 		"/>
		<polygon class="st4" points="2960.85,1853.47 2960.85,2340.98 2951.71,2335.71 2951.71,1848.19 		"/>
		<polygon class="st4" points="2940.23,1841.57 2940.23,2329.09 2931.1,2323.81 2931.1,1836.29 		"/>
		<polygon class="st4" points="2919.62,1829.67 2919.62,2061.01 2910.49,2055.75 2910.49,1824.39 		"/>
		<polygon class="st4" points="2899.02,1817.76 2899.01,2049.12 2889.88,2043.85 2889.88,1812.49 		"/>
		<polygon class="st4" points="2878.4,1805.87 2878.4,2037.22 2869.27,2031.95 2869.26,1800.59 		"/>
		<polygon class="st4" points="2857.79,1793.97 2857.8,2025.32 2848.66,2020.05 2848.66,1788.69 		"/>
		<polygon class="st4" points="2837.19,1782.07 2837.19,2013.42 2828.05,2008.15 2828.05,1776.8 		"/>
		<polygon class="st4" points="2816.57,1770.17 2816.58,2001.52 2807.45,1996.25 2807.45,1764.9 		"/>
		<polygon class="st4" points="2795.97,1758.27 2795.97,1989.62 2786.83,1984.35 2786.83,1753 		"/>
		<polygon class="st4" points="2775.36,1746.37 2775.36,1977.73 2766.22,1972.46 2766.22,1741.1 		"/>
		<polygon class="st4" points="2754.74,1734.47 2754.75,1965.82 2745.62,1960.55 2745.62,1729.2 		"/>
		<polygon class="st4" points="2734.14,1722.58 2734.14,2093.93 2725,2088.66 2725,1717.3 		"/>
		<polygon class="st4" points="2713.53,1710.68 2713.53,1942.02 2704.39,1936.76 2704.39,1705.4 		"/>
		<polygon class="st4" points="2692.92,1698.78 2692.92,1930.13 2683.78,1924.86 2683.79,1693.5 		"/>
		<polygon class="st4" points="2672.31,1686.87 2672.31,1918.23 2663.17,1912.96 2663.18,1681.61 		"/>
	</g>
	<g>
		<polygon class="st5" points="3664.96,640.52 3865.32,524.84 3856.19,519.57 3655.82,635.25 		"/>
		<polygon class="st5" points="3643.71,628.25 3844.07,512.57 3834.94,507.3 3634.58,622.98 		"/>
		<polygon class="st5" points="3622.46,615.98 3822.82,500.31 3813.69,495.03 3613.33,610.71 		"/>
		<polygon class="st5" points="3601.22,603.72 3801.58,488.04 3792.44,482.77 3592.09,598.45 		"/>
		<polygon class="st5" points="3579.97,591.46 3780.33,475.78 3771.2,470.49 3570.84,586.19 		"/>
		<polygon class="st5" points="3558.72,579.18 3759.09,463.51 3749.95,458.23 3549.59,573.92 		"/>
		<polygon class="st5" points="3537.48,566.92 3737.84,451.23 3728.71,445.97 3528.35,561.65 		"/>
		<polygon class="st5" points="3516.23,554.65 3716.59,438.97 3707.46,433.7 3507.09,549.38 		"/>
		<polygon class="st5" points="3494.99,542.38 3695.34,426.7 3686.2,421.43 3485.85,537.11 		"/>
		<polygon class="st5" points="3473.74,530.12 3674.1,414.44 3664.96,409.17 3464.6,524.84 		"/>
	</g>
	<g>
		<polygon class="st6" points="3264.24,871.88 3464.6,756.2 3455.47,750.93 3255.11,866.61 		"/>
		<polygon class="st6" points="3243,859.61 3443.35,743.94 3434.22,738.66 3233.87,854.34 		"/>
		<polygon class="st6" points="3221.75,847.35 3422.11,731.67 3412.97,726.39 3212.62,842.08 		"/>
		<polygon class="st6" points="3200.5,835.08 3400.86,719.4 3391.72,714.13 3191.37,829.8 		"/>
		<polygon class="st6" points="3179.25,822.81 3379.61,707.13 3370.48,701.86 3170.12,817.54 		"/>
		<polygon class="st6" points="3158.01,810.55 3358.37,694.87 3349.23,689.59 3148.88,805.27 		"/>
		<polygon class="st6" points="3136.76,798.28 3337.12,682.6 3327.99,677.33 3127.63,793.01 		"/>
		<polygon class="st6" points="3115.52,786.01 3315.87,670.34 3306.74,665.06 3106.38,780.74 		"/>
		<polygon class="st6" points="3094.27,773.74 3294.63,658.07 3285.49,652.79 3085.13,768.48 		"/>
		<polygon class="st6" points="3073.02,761.48 3273.38,645.81 3264.25,640.53 3063.89,756.2 		"/>
	</g>
	<g>
		<polygon class="st6" points="3464.6,1218.91 3664.96,1103.24 3655.82,1097.96 3455.47,1213.63 		"/>
		<polygon class="st6" points="3443.35,1206.64 3643.71,1090.96 3634.58,1085.69 3434.22,1201.37 		"/>
		<polygon class="st6" points="3422.1,1194.37 3622.46,1078.69 3613.33,1073.42 3412.97,1189.1 		"/>
		<polygon class="st6" points="3400.86,1182.11 3601.21,1066.43 3592.08,1061.16 3391.73,1176.83 		"/>
		<polygon class="st6" points="3379.61,1169.84 3579.97,1054.16 3570.84,1048.89 3370.48,1164.57 		"/>
		<polygon class="st6" points="3358.37,1157.57 3558.72,1041.9 3549.59,1036.63 3349.23,1152.3 		"/>
		<polygon class="st6" points="3337.12,1145.31 3537.47,1029.63 3528.34,1024.36 3327.99,1140.03 		"/>
		<polygon class="st6" points="3315.87,1133.04 3516.23,1017.36 3507.09,1012.09 3306.74,1127.77 		"/>
		<polygon class="st6" points="3294.63,1120.77 3494.98,1005.09 3485.85,999.82 3285.49,1115.5 		"/>
		<polygon class="st6" points="3273.38,1108.51 3473.73,992.83 3464.6,987.56 3264.24,1103.23 		"/>
	</g>
	<g>
		<polygon class="st4" points="3063.89,1450.26 3063.89,1681.6 3041.53,1668.69 3041.53,1437.35 		"/>
		<polygon class="st4" points="3038.46,1435.57 3038.46,1666.92 3016.1,1654.01 3016.11,1422.66 		"/>
		<polygon class="st4" points="3013.03,1420.89 3013.03,1652.24 2990.67,1639.33 2990.67,1407.98 		"/>
		<polygon class="st4" points="2987.6,1406.21 2987.6,1637.56 2965.25,1624.65 2965.25,1393.3 		"/>
		<polygon class="st4" points="2962.17,1391.52 2962.17,1622.88 2939.81,1609.97 2939.81,1378.62 		"/>
		<polygon class="st4" points="2936.74,1376.85 2936.74,1608.2 2914.39,1595.29 2914.39,1363.94 		"/>
		<polygon class="st4" points="2911.31,1362.17 2911.32,1593.52 2888.96,1580.61 2888.96,1349.26 		"/>
		<polygon class="st4" points="2885.89,1347.48 2885.89,1578.84 2863.53,1565.93 2863.53,1334.57 		"/>
	</g>
	<g>
		<polygon class="st4" points="3464.6,1450.25 3664.96,1334.58 3664.96,1345.13 3464.6,1460.8 		"/>
		<polygon class="st4" points="3464.6,1474.79 3664.96,1359.11 3664.96,1369.66 3464.6,1485.33 		"/>
		<polygon class="st4" points="3464.6,1499.33 3664.96,1383.65 3664.96,1394.2 3464.6,1509.87 		"/>
		<polygon class="st4" points="3464.6,1523.86 3664.96,1408.18 3664.96,1418.72 3464.6,1534.41 		"/>
		<polygon class="st4" points="3464.6,1548.39 3664.96,1432.72 3664.96,1443.27 3464.6,1558.94 		"/>
		<polygon class="st4" points="3464.6,1572.92 3664.96,1457.25 3664.96,1467.8 3464.6,1583.47 		"/>
		<polygon class="st4" points="3464.6,1597.46 3664.96,1481.79 3664.96,1492.33 3464.6,1608 		"/>
		<polygon class="st4" points="3464.6,1621.99 3664.96,1506.32 3664.96,1516.86 3464.6,1632.54 		"/>
		<polygon class="st4" points="3464.6,1646.53 3664.96,1530.85 3664.96,1541.4 3464.6,1657.07 		"/>
		<polygon class="st4" points="3464.6,1671.06 3664.96,1555.39 3664.96,1565.93 3464.6,1681.61 		"/>
	</g>
	<g>
		<polygon class="st4" points="3664.96,1334.58 3865.32,1218.9 3865.32,1229.45 3664.96,1345.13 		"/>
		<polygon class="st4" points="3664.96,1359.12 3865.32,1243.44 3865.32,1253.99 3664.96,1369.66 		"/>
		<polygon class="st4" points="3664.96,1383.65 3865.32,1267.97 3865.32,1278.51 3664.96,1394.2 		"/>
		<polygon class="st4" points="3664.96,1408.18 3865.32,1292.51 3865.32,1303.05 3664.96,1418.72 		"/>
		<polygon class="st4" points="3664.96,1432.71 3865.31,1317.04 3865.32,1327.59 3664.96,1443.27 		"/>
		<polygon class="st4" points="3664.96,1457.25 3865.32,1341.58 3865.32,1352.12 3664.96,1467.8 		"/>
		<polygon class="st4" points="3664.96,1481.79 3865.32,1366.11 3865.32,1376.66 3664.96,1492.33 		"/>
		<polygon class="st4" points="3664.96,1506.32 3865.31,1390.64 3865.32,1401.19 3664.96,1516.86 		"/>
		<polygon class="st4" points="3664.96,1530.86 3865.31,1415.18 3865.31,1425.72 3664.96,1541.4 		"/>
		<polygon class="st4" points="3664.96,1555.39 3865.31,1439.71 3865.32,1450.25 3664.96,1565.93 		"/>
	</g>
	<g>
		<polygon class="st4" points="3664.96,2259.98 3865.31,2144.31 3865.31,2170.12 3664.96,2285.8 		"/>
		<polygon class="st4" points="3664.96,2289.34 3865.31,2173.67 3865.31,2199.48 3664.95,2315.16 		"/>
		<polygon class="st4" points="3664.95,2318.71 3865.31,2203.03 3865.31,2228.85 3664.96,2344.52 		"/>
		<polygon class="st4" points="3664.96,2348.07 3865.31,2232.39 3865.31,2258.21 3664.96,2373.89 		"/>
		<polygon class="st4" points="3664.96,2377.43 3865.31,2261.75 3865.31,2287.57 3664.96,2403.25 		"/>
		<polygon class="st4" points="3664.95,2406.8 3865.31,2291.11 3865.31,2316.94 3664.95,2432.61 		"/>
		<polygon class="st4" points="3664.96,2436.16 3865.31,2320.48 3865.31,2346.3 3664.96,2461.97 		"/>
		<polygon class="st4" points="3664.96,2465.52 3865.31,2349.84 3865.31,2375.65 3664.96,2491.34 		"/>
	</g>
	<g>
		<polygon class="st4" points="3063.89,1912.96 3264.24,1797.28 3264.25,1823.1 3063.89,1938.77 		"/>
		<polygon class="st4" points="3063.88,1942.32 3264.24,1826.64 3264.24,1852.46 3063.89,1968.13 		"/>
		<polygon class="st4" points="3063.89,1971.69 3264.25,1856 3264.24,1881.82 3063.89,1997.5 		"/>
		<polygon class="st4" points="3063.89,2001.04 3264.24,1885.36 3264.25,1911.18 3063.89,2026.86 		"/>
		<polygon class="st4" points="3063.89,2030.41 3264.24,1914.73 3264.24,1940.55 3063.88,2056.22 		"/>
		<polygon class="st4" points="3063.89,2059.78 3264.25,1944.09 3264.24,1969.91 3063.89,2085.58 		"/>
		<polygon class="st4" points="3063.89,2089.14 3264.24,1973.45 3264.25,1999.27 3063.89,2114.95 		"/>
		<polygon class="st4" points="3063.89,2118.5 3264.24,2002.82 3264.25,2028.63 3063.89,2144.31 		"/>
	</g>
	<g>
		<polygon class="st5" points="2863.53,1103.23 3063.88,987.55 3063.88,1013.37 2863.53,1129.04 		"/>
		<polygon class="st5" points="2863.53,1132.59 3063.88,1016.91 3063.88,1042.73 2863.53,1158.4 		"/>
		<polygon class="st5" points="2863.53,1161.95 3063.88,1046.28 3063.88,1072.09 2863.53,1187.76 		"/>
		<polygon class="st5" points="2863.53,1191.31 3063.88,1075.64 3063.88,1101.45 2863.53,1217.13 		"/>
		<polygon class="st5" points="2863.53,1220.68 3063.88,1105 3063.88,1130.82 2863.53,1246.48 		"/>
		<polygon class="st5" points="2863.53,1250.04 3063.88,1134.36 3063.88,1160.18 2863.53,1275.85 		"/>
		<polygon class="st5" points="2863.53,1279.4 3063.88,1163.72 3063.89,1189.54 2863.53,1305.22 		"/>
		<polygon class="st5" points="2863.53,1308.76 3063.88,1193.09 3063.88,1218.9 2863.53,1334.57 		"/>
	</g>
	<g>
		<polygon class="st5" points="3264.24,871.88 3464.6,756.2 3464.6,782.02 3264.24,897.69 		"/>
		<polygon class="st5" points="3264.24,901.24 3464.6,785.57 3464.6,811.38 3264.24,927.06 		"/>
		<polygon class="st5" points="3264.25,930.6 3464.6,814.93 3464.6,840.74 3264.25,956.42 		"/>
		<polygon class="st5" points="3264.25,959.96 3464.6,844.29 3464.6,870.11 3264.24,985.78 		"/>
		<polygon class="st5" points="3264.24,989.33 3464.6,873.65 3464.6,899.47 3264.24,1015.14 		"/>
		<polygon class="st5" points="3264.25,1018.69 3464.6,903.02 3464.6,928.83 3264.24,1044.5 		"/>
		<polygon class="st5" points="3264.25,1048.05 3464.6,932.38 3464.6,958.19 3264.24,1073.87 		"/>
		<polygon class="st5" points="3264.24,1077.41 3464.6,961.74 3464.6,987.56 3264.24,1103.23 		"/>
	</g>
	<g>
		<polygon class="st4" points="3464.6,1218.9 3664.96,1103.22 3664.96,1129.04 3464.6,1244.72 		"/>
		<polygon class="st4" points="3464.6,1248.26 3664.96,1132.59 3664.96,1158.4 3464.6,1274.08 		"/>
		<polygon class="st4" points="3464.6,1277.62 3664.96,1161.95 3664.96,1187.77 3464.6,1303.44 		"/>
		<polygon class="st4" points="3464.6,1306.98 3664.96,1191.31 3664.96,1217.13 3464.6,1332.81 		"/>
		<polygon class="st4" points="3464.6,1336.35 3664.96,1220.68 3664.96,1246.49 3464.6,1362.16 		"/>
		<polygon class="st4" points="3464.6,1365.72 3664.96,1250.04 3664.96,1275.86 3464.6,1391.53 		"/>
		<polygon class="st4" points="3464.6,1395.07 3664.96,1279.4 3664.96,1305.22 3464.6,1420.89 		"/>
		<polygon class="st4" points="3464.6,1424.44 3664.96,1308.76 3664.96,1334.58 3464.6,1450.25 		"/>
	</g>
	<g>
		<polygon class="st4" points="3865.31,1681.61 3664.96,1565.93 3674.09,1560.65 3874.45,1676.33 		"/>
		<polygon class="st4" points="3886.56,1669.34 3686.2,1553.66 3695.34,1548.39 3895.69,1664.07 		"/>
		<polygon class="st4" points="3907.8,1657.07 3707.45,1541.4 3716.58,1536.12 3916.95,1651.8 		"/>
		<polygon class="st4" points="3929.05,1644.8 3728.7,1529.13 3737.83,1523.86 3938.18,1639.53 		"/>
		<polygon class="st4" points="3950.29,1632.54 3749.94,1516.86 3759.07,1511.58 3959.43,1627.27 		"/>
		<polygon class="st4" points="3971.55,1620.27 3771.19,1504.59 3780.32,1499.32 3980.68,1615 		"/>
		<polygon class="st4" points="3992.79,1608 3792.44,1492.33 3801.57,1487.05 4001.93,1602.73 		"/>
		<polygon class="st4" points="4014.04,1595.74 3813.68,1480.06 3822.82,1474.79 4023.17,1590.47 		"/>
		<polygon class="st4" points="4035.29,1583.47 3834.93,1467.8 3844.06,1462.52 4044.42,1578.2 		"/>
		<polygon class="st4" points="4056.54,1571.21 3856.18,1455.53 3865.31,1450.25 4065.67,1565.93 		"/>
	</g>
	<g>
		<polygon class="st5" points="3464.6,1912.96 3264.24,1797.28 3286.6,1784.37 3486.96,1900.05 		"/>
		<polygon class="st5" points="3490.03,1898.27 3289.67,1782.6 3312.03,1769.69 3512.38,1885.36 		"/>
		<polygon class="st5" points="3515.46,1883.59 3315.1,1767.92 3337.46,1755.01 3537.81,1870.69 		"/>
		<polygon class="st5" points="3540.89,1868.91 3340.53,1753.24 3362.88,1740.33 3563.24,1856 		"/>
		<polygon class="st5" points="3566.31,1854.23 3365.96,1738.56 3388.32,1725.65 3588.67,1841.33 		"/>
		<polygon class="st5" points="3591.74,1839.55 3391.38,1723.88 3413.74,1710.97 3614.1,1826.65 		"/>
		<polygon class="st5" points="3617.17,1824.88 3416.81,1709.2 3439.17,1696.28 3639.53,1811.96 		"/>
		<polygon class="st5" points="3642.61,1810.19 3442.25,1694.51 3464.6,1681.61 3664.96,1797.28 		"/>
	</g>
	<g>
		<polygon class="st6" points="4266.02,1218.9 4065.67,1103.23 4088.02,1090.32 4288.38,1205.99 		"/>
		<polygon class="st6" points="4291.45,1204.22 4091.1,1088.54 4113.45,1075.64 4313.81,1191.31 		"/>
		<polygon class="st6" points="4316.88,1189.54 4116.53,1073.86 4138.88,1060.95 4339.24,1176.63 		"/>
		<polygon class="st6" points="4342.31,1174.86 4141.95,1059.19 4164.31,1046.28 4364.67,1161.95 		"/>
		<polygon class="st6" points="4367.74,1160.18 4167.38,1044.5 4189.74,1031.59 4390.09,1147.27 		"/>
		<polygon class="st6" points="4393.17,1145.5 4192.81,1029.82 4215.17,1016.91 4415.53,1132.58 		"/>
		<polygon class="st6" points="4418.59,1130.81 4218.24,1015.14 4240.6,1002.23 4440.95,1117.91 		"/>
		<polygon class="st6" points="4444.03,1116.13 4243.67,1000.45 4266.03,987.55 4466.38,1103.22 		"/>
	</g>
	<g>
		<polygon class="st5" points="4065.67,1103.23 3865.31,987.56 3887.67,974.65 4088.02,1090.32 		"/>
		<polygon class="st5" points="4091.1,1088.55 3890.74,972.87 3913.1,959.97 4113.45,1075.64 		"/>
		<polygon class="st5" points="4116.53,1073.86 3916.17,958.19 3938.53,945.28 4138.88,1060.95 		"/>
		<polygon class="st5" points="4141.95,1059.19 3941.6,943.51 3963.96,930.6 4164.3,1046.28 		"/>
		<polygon class="st5" points="4167.38,1044.5 3967.02,928.83 3989.38,915.92 4189.74,1031.59 		"/>
		<polygon class="st5" points="4192.81,1029.82 3992.46,914.15 4014.81,901.23 4215.17,1016.92 		"/>
		<polygon class="st5" points="4218.24,1015.14 4017.88,899.46 4040.24,886.56 4240.6,1002.23 		"/>
		<polygon class="st5" points="4243.67,1000.46 4043.31,884.78 4065.67,871.87 4266.02,987.55 		"/>
	</g>
	<g>
		<polygon class="st6" points="3264.25,1565.92 3063.89,1450.26 3086.24,1437.34 3286.6,1553.02 		"/>
		<polygon class="st6" points="3289.67,1551.25 3089.32,1435.57 3111.67,1422.67 3312.03,1538.34 		"/>
		<polygon class="st6" points="3315.11,1536.56 3114.74,1420.89 3137.1,1407.98 3337.46,1523.66 		"/>
		<polygon class="st6" points="3340.53,1521.88 3140.17,1406.21 3162.53,1393.3 3362.88,1508.98 		"/>
		<polygon class="st6" points="3365.96,1507.2 3165.61,1391.53 3187.96,1378.62 3388.32,1494.29 		"/>
		<polygon class="st6" points="3391.39,1492.52 3191.03,1376.85 3213.39,1363.94 3413.74,1479.61 		"/>
		<polygon class="st6" points="3416.81,1477.84 3216.46,1362.16 3238.81,1349.26 3439.17,1464.93 		"/>
		<polygon class="st6" points="3442.25,1463.16 3241.89,1347.48 3264.24,1334.57 3464.6,1450.25 		"/>
	</g>
	<g>
		<polygon class="st6" points="2663.18,1681.6 2462.82,1565.93 2485.18,1553.03 2685.54,1668.7 		"/>
		<polygon class="st6" points="2688.61,1666.92 2488.25,1551.25 2510.61,1538.34 2710.96,1654.02 		"/>
		<polygon class="st6" points="2714.03,1652.24 2513.68,1536.57 2536.04,1523.66 2736.39,1639.33 		"/>
		<polygon class="st6" points="2739.46,1637.56 2539.11,1521.89 2561.47,1508.98 2761.82,1624.65 		"/>
		<polygon class="st6" points="2764.89,1622.88 2564.54,1507.21 2586.89,1494.3 2787.25,1609.97 		"/>
		<polygon class="st6" points="2790.32,1608.2 2589.97,1492.53 2612.33,1479.62 2812.67,1595.29 		"/>
		<polygon class="st6" points="2815.75,1593.51 2615.4,1477.85 2637.75,1464.94 2838.11,1580.61 		"/>
		<polygon class="st6" points="2841.18,1578.84 2640.82,1463.16 2663.18,1450.25 2863.53,1565.93 		"/>
	</g>
	<g>
		<polygon class="st5" points="2863.53,1797.28 2663.18,1681.61 2685.54,1668.7 2885.89,1784.37 		"/>
		<polygon class="st5" points="2888.96,1782.6 2688.61,1666.92 2710.96,1654.02 2911.32,1769.69 		"/>
		<polygon class="st5" points="2914.39,1767.92 2714.03,1652.24 2736.39,1639.33 2936.75,1755.01 		"/>
		<polygon class="st5" points="2939.82,1753.24 2739.46,1637.57 2761.82,1624.65 2962.17,1740.32 		"/>
		<polygon class="st5" points="2965.25,1738.56 2764.89,1622.88 2787.25,1609.97 2987.6,1725.64 		"/>
		<polygon class="st5" points="2990.68,1723.87 2790.32,1608.2 2812.67,1595.29 3013.03,1710.97 		"/>
		<polygon class="st5" points="3016.11,1709.19 2815.75,1593.52 2838.11,1580.61 3038.46,1696.28 		"/>
		<polygon class="st5" points="3041.53,1694.51 2841.18,1578.84 2863.54,1565.93 3063.89,1681.6 		"/>
	</g>
	<g>
		<polygon class="st5" points="3664.96,2259.98 3865.31,2144.31 3856.18,2139.04 3655.82,2254.71 		"/>
		<polygon class="st5" points="3643.71,2247.72 3844.06,2132.04 3834.93,2126.76 3634.57,2242.45 		"/>
		<polygon class="st5" points="3622.46,2235.45 3822.82,2119.77 3813.69,2114.5 3613.33,2230.18 		"/>
		<polygon class="st5" points="3601.22,2223.18 3801.57,2107.51 3792.44,2102.23 3592.08,2217.91 		"/>
		<polygon class="st5" points="3579.97,2210.92 3780.32,2095.24 3771.19,2089.97 3570.84,2205.64 		"/>
		<polygon class="st5" points="3558.72,2198.65 3759.08,2082.98 3749.94,2077.7 3549.58,2193.38 		"/>
		<polygon class="st5" points="3537.47,2186.38 3737.83,2070.7 3728.7,2065.44 3528.34,2181.11 		"/>
		<polygon class="st5" points="3516.23,2174.12 3716.58,2058.44 3707.45,2053.16 3507.09,2168.84 		"/>
		<polygon class="st5" points="3494.98,2161.85 3695.34,2046.17 3686.2,2040.9 3485.85,2156.57 		"/>
		<polygon class="st5" points="3473.73,2149.58 3674.09,2033.91 3664.95,2028.63 3464.6,2144.3 		"/>
	</g>
	<g>
		<polygon class="st4" points="3664.96,871.87 3664.96,1103.22 3655.82,1097.95 3655.82,866.6 		"/>
		<polygon class="st4" points="3643.71,859.61 3643.71,1090.96 3634.57,1085.69 3634.58,854.33 		"/>
		<polygon class="st4" points="3622.46,847.34 3622.46,1078.69 3613.33,1073.42 3613.33,842.07 		"/>
		<polygon class="st4" points="3601.22,835.08 3601.22,1066.42 3592.08,1061.16 3592.08,829.8 		"/>
		<polygon class="st4" points="3579.97,822.8 3579.97,1054.16 3570.84,1048.89 3570.84,817.54 		"/>
		<polygon class="st4" points="3558.72,810.54 3558.72,1041.89 3549.59,1036.62 3549.59,805.26 		"/>
		<polygon class="st4" points="3537.48,798.27 3537.48,1029.62 3528.34,1024.36 3528.34,793 		"/>
		<polygon class="st4" points="3516.23,786.01 3516.23,1017.36 3507.09,1012.08 3507.09,780.74 		"/>
		<polygon class="st4" points="3494.98,773.74 3494.98,1005.09 3485.85,999.82 3485.85,768.47 		"/>
		<polygon class="st4" points="3473.74,761.47 3473.73,992.82 3464.6,987.55 3464.6,756.2 		"/>
	</g>
	<g>
		<polygon class="st4" points="3664.96,640.52 3664.96,871.87 3655.82,866.6 3655.82,635.25 		"/>
		<polygon class="st4" points="3643.71,628.25 3643.71,859.61 3634.58,854.34 3634.58,622.98 		"/>
		<polygon class="st4" points="3622.46,615.98 3622.46,847.34 3613.33,842.07 3613.33,610.71 		"/>
		<polygon class="st4" points="3601.22,603.72 3601.22,835.08 3592.08,829.8 3592.09,598.45 		"/>
		<polygon class="st4" points="3579.97,591.46 3579.97,822.8 3570.84,817.54 3570.84,586.19 		"/>
		<polygon class="st4" points="3558.72,357.49 3558.72,810.54 3549.59,805.26 3549.59,352.22 		"/>
		<polygon class="st4" points="3537.48,566.92 3537.48,798.27 3528.34,793 3528.35,561.65 		"/>
		<polygon class="st4" points="3516.23,554.65 3516.23,786.01 3507.1,780.74 3507.09,549.38 		"/>
		<polygon class="st4" points="3494.99,542.38 3494.98,773.74 3485.85,768.47 3485.85,537.11 		"/>
		<polygon class="st4" points="3473.74,530.12 3473.74,761.47 3464.6,756.2 3464.6,524.84 		"/>
	</g>
	<g>
		<polygon class="st4" points="2863.54,1334.58 2863.54,1565.93 2854.4,1560.66 2854.41,1329.3 		"/>
		<polygon class="st4" points="2842.29,1322.31 2842.29,1553.66 2833.16,1548.39 2833.16,1317.04 		"/>
		<polygon class="st4" points="2821.04,1310.04 2821.04,1541.4 2811.91,1536.13 2811.91,1304.77 		"/>
		<polygon class="st4" points="2799.79,1297.78 2799.8,1529.13 2790.66,1523.86 2790.66,1292.5 		"/>
		<polygon class="st4" points="2778.54,1285.51 2778.54,1516.86 2769.41,1511.59 2769.42,1280.24 		"/>
		<polygon class="st4" points="2757.31,1273.24 2757.3,1504.59 2748.16,1499.32 2748.17,1267.97 		"/>
		<polygon class="st4" points="2736.06,1260.97 2736.06,1492.33 2726.92,1487.06 2726.92,1255.7 		"/>
		<polygon class="st4" points="2714.81,1248.71 2714.8,1480.06 2705.67,1474.79 2705.68,1243.44 		"/>
		<polygon class="st4" points="2693.56,1182.1 2693.56,1467.79 2684.42,1462.52 2684.43,1176.83 		"/>
		<polygon class="st4" points="2672.32,1224.17 2672.31,1455.53 2663.18,1450.25 2663.18,1218.9 		"/>
	</g>
	<g>
		<polygon class="st4" points="3264.24,1103.23 3264.24,1334.57 3255.11,1329.3 3255.11,1097.95 		"/>
		<polygon class="st4" points="3243,1090.96 3243,1322.31 3233.86,1317.04 3233.86,1085.69 		"/>
		<polygon class="st4" points="3221.75,1078.69 3221.75,1310.04 3212.62,1304.77 3212.62,1073.42 		"/>
		<polygon class="st4" points="3200.5,1066.42 3200.5,1297.78 3191.37,1292.51 3191.37,1061.15 		"/>
		<polygon class="st4" points="3179.25,1054.16 3179.25,1285.51 3170.12,1280.24 3170.13,1048.88 		"/>
		<polygon class="st4" points="3158.01,1041.89 3158.01,1273.24 3148.87,1267.97 3148.88,1036.62 		"/>
		<polygon class="st4" points="3136.77,1029.62 3136.76,1260.97 3127.63,1255.7 3127.63,1024.35 		"/>
		<polygon class="st4" points="3115.51,1017.36 3115.52,1248.71 3106.38,1243.44 3106.38,1012.08 		"/>
		<polygon class="st4" points="3094.27,1005.09 3094.27,1236.44 3085.13,1231.17 3085.13,999.82 		"/>
		<polygon class="st4" points="3073.02,992.82 3073.02,1224.17 3063.88,1218.9 3063.88,987.55 		"/>
	</g>
	<g>
		<polygon class="st5" points="3865.31,2144.31 4065.67,2028.63 4056.54,2023.36 3856.18,2139.04 		"/>
		<polygon class="st5" points="3844.06,2132.04 4044.42,2016.36 4035.29,2011.09 3834.93,2126.76 		"/>
		<polygon class="st5" points="3822.82,2119.77 4023.17,2004.1 4014.04,1998.82 3813.69,2114.5 		"/>
		<polygon class="st5" points="3801.57,2107.5 4001.93,1991.83 3992.79,1986.56 3792.44,2102.23 		"/>
		<polygon class="st5" points="3780.32,2095.24 3980.68,1979.56 3971.55,1974.28 3771.19,2089.97 		"/>
		<polygon class="st5" points="3759.08,2082.97 3959.43,1967.3 3950.29,1962.02 3749.94,2077.7 		"/>
		<polygon class="st5" points="3737.83,2070.7 3938.19,1955.03 3929.05,1949.75 3728.7,2065.44 		"/>
		<polygon class="st5" points="3716.58,2058.44 3916.95,1942.76 3907.8,1937.49 3707.45,2053.16 		"/>
		<polygon class="st5" points="3695.34,2046.18 3895.69,1930.49 3886.56,1925.23 3686.21,2040.9 		"/>
		<polygon class="st5" points="3674.09,2033.9 3874.45,1918.23 3865.31,1912.96 3664.95,2028.63 		"/>
	</g>
	<g>
		<polygon class="st6" points="4065.67,1797.28 4266.02,1681.61 4243.67,1668.7 4043.31,1784.37 		"/>
		<polygon class="st6" points="4040.24,1782.6 4240.59,1666.93 4218.24,1654.02 4017.88,1769.69 		"/>
		<polygon class="st6" points="4014.81,1767.92 4215.16,1652.25 4192.81,1639.34 3992.45,1755.01 		"/>
		<polygon class="st6" points="3989.38,1753.24 4189.74,1637.56 4167.38,1624.66 3967.02,1740.33 		"/>
		<polygon class="st6" points="3963.95,1738.56 4164.3,1622.88 4141.95,1609.98 3941.6,1725.65 		"/>
		<polygon class="st6" points="3938.53,1723.88 4138.88,1608.21 4116.52,1595.29 3916.16,1710.97 		"/>
		<polygon class="st6" points="3913.09,1709.2 4113.45,1593.52 4091.1,1580.61 3890.74,1696.28 		"/>
		<polygon class="st6" points="3887.67,1694.51 4088.02,1578.84 4065.67,1565.93 3865.31,1681.61 		"/>
	</g>
	<g>
		<polygon class="st6" points="3664.96,1797.28 3865.31,1681.61 3842.96,1668.7 3642.6,1784.37 		"/>
		<polygon class="st6" points="3639.53,1782.6 3839.88,1666.93 3817.53,1654.02 3617.17,1769.69 		"/>
		<polygon class="st6" points="3614.1,1767.91 3814.46,1652.24 3792.1,1639.34 3591.74,1755.01 		"/>
		<polygon class="st6" points="3588.67,1753.24 3789.03,1637.57 3766.67,1624.66 3566.31,1740.33 		"/>
		<polygon class="st6" points="3563.24,1738.56 3763.6,1622.88 3741.24,1609.97 3540.88,1725.64 		"/>
		<polygon class="st6" points="3537.81,1723.87 3738.17,1608.2 3715.81,1595.29 3515.46,1710.97 		"/>
		<polygon class="st6" points="3512.38,1709.2 3712.74,1593.52 3690.38,1580.61 3490.03,1696.29 		"/>
		<polygon class="st6" points="3486.96,1694.51 3687.31,1578.84 3664.96,1565.93 3464.6,1681.6 		"/>
	</g>
	<g>
		<polygon class="st4" points="3664.96,1797.28 3664.95,2028.63 3674.09,2023.36 3674.09,1792.01 		"/>
		<polygon class="st4" points="3686.2,1785.01 3686.2,2016.36 3695.34,2011.09 3695.34,1779.74 		"/>
		<polygon class="st4" points="3707.45,1772.75 3707.45,2004.1 3716.58,1998.82 3716.58,1767.48 		"/>
		<polygon class="st4" points="3728.7,1760.48 3728.7,1991.83 3737.83,1986.56 3737.83,1755.2 		"/>
		<polygon class="st4" points="3749.95,1748.21 3749.94,1979.56 3759.08,1974.29 3759.08,1742.94 		"/>
		<polygon class="st4" points="3771.19,1735.94 3771.19,1967.3 3780.33,1962.02 3780.32,1730.68 		"/>
		<polygon class="st4" points="3792.44,1723.68 3792.44,1955.03 3801.57,1949.76 3801.57,1718.4 		"/>
		<polygon class="st4" points="3813.68,1711.41 3813.68,1942.76 3822.82,1937.49 3822.82,1706.14 		"/>
		<polygon class="st4" points="3834.93,1699.14 3834.93,1930.5 3844.06,1925.23 3844.07,1693.87 		"/>
		<polygon class="st4" points="3856.18,1686.89 3856.18,1918.23 3865.31,1912.96 3865.31,1681.6 		"/>
	</g>
	<g>
		<polygon class="st4" points="4266.02,1218.9 4266.02,1450.25 4275.15,1444.98 4275.15,1213.63 		"/>
		<polygon class="st4" points="4287.27,1206.63 4287.26,1437.99 4296.4,1432.71 4296.4,1201.36 		"/>
		<polygon class="st4" points="4308.51,1194.36 4308.51,1425.71 4317.65,1420.44 4317.64,1189.09 		"/>
		<polygon class="st4" points="4329.76,1182.1 4329.76,1413.45 4338.89,1408.18 4338.89,1176.82 		"/>
		<polygon class="st4" points="4351,1169.83 4351,1401.18 4360.14,1395.91 4360.14,1164.55 		"/>
		<polygon class="st4" points="4372.25,1157.57 4372.25,1388.92 4381.39,1383.64 4381.39,1152.29 		"/>
		<polygon class="st4" points="4393.5,1145.3 4393.5,1729.15 4402.63,1723.88 4402.64,1140.02 		"/>
		<polygon class="st4" points="4414.75,1133.03 4414.75,1364.39 4423.88,1359.11 4423.88,1127.75 		"/>
		<polygon class="st4" points="4436,1120.76 4436,1352.12 4445.12,1346.84 4445.12,1115.49 		"/>
		<polygon class="st4" points="4457.24,1108.5 4457.24,1339.85 4466.38,1334.57 4466.38,1103.22 		"/>
	</g>
	<g>
		<polygon class="st4" points="3464.6,1912.96 3464.6,2144.3 3486.96,2131.4 3486.96,1900.05 		"/>
		<polygon class="st4" points="3490.03,1898.27 3490.02,2129.63 3512.38,2116.72 3512.38,1885.36 		"/>
		<polygon class="st4" points="3515.46,1883.59 3515.46,2114.95 3537.81,2102.04 3537.81,1870.69 		"/>
		<polygon class="st4" points="3540.89,1868.91 3540.88,2100.27 3563.24,2087.35 3563.24,1856 		"/>
		<polygon class="st4" points="3566.31,1854.23 3566.31,2085.58 3588.67,2072.67 3588.67,1841.33 		"/>
		<polygon class="st4" points="3591.74,1839.55 3591.75,2070.9 3614.1,2058 3614.1,1826.65 		"/>
		<polygon class="st4" points="3617.17,1824.88 3617.17,2056.22 3639.53,2043.32 3639.53,1811.96 		"/>
		<polygon class="st4" points="3642.61,1810.19 3642.6,2041.54 3664.95,2028.63 3664.96,1797.28 		"/>
	</g>
	<g>
		<polygon class="st4" points="3264.25,1565.93 3264.24,1797.27 3286.6,1784.37 3286.6,1553.02 		"/>
		<polygon class="st4" points="3289.67,1551.25 3289.67,1782.59 3312.03,1769.69 3312.03,1538.34 		"/>
		<polygon class="st4" points="3315.11,1536.56 3315.1,1767.92 3337.46,1755.01 3337.46,1523.66 		"/>
		<polygon class="st4" points="3340.53,1521.88 3340.53,1753.23 3362.88,1740.32 3362.89,1508.98 		"/>
		<polygon class="st4" points="3365.96,1507.2 3365.96,1738.55 3388.32,1725.65 3388.31,1494.3 		"/>
		<polygon class="st4" points="3391.39,1492.52 3391.38,1723.87 3413.74,1710.97 3413.74,1479.62 		"/>
		<polygon class="st4" points="3416.82,1477.84 3416.82,1709.19 3439.18,1696.28 3439.18,1464.94 		"/>
		<polygon class="st4" points="3442.25,1463.16 3442.24,1694.51 3464.6,1681.6 3464.6,1450.25 		"/>
	</g>
	<g>
		<polygon class="st4" points="3664.96,871.88 3664.95,1103.23 3687.31,1090.32 3687.31,858.98 		"/>
		<polygon class="st4" points="3690.38,857.2 3690.38,1088.55 3712.74,1075.64 3712.74,844.29 		"/>
		<polygon class="st4" points="3715.81,842.52 3715.81,1073.87 3738.17,1060.96 3738.17,829.61 		"/>
		<polygon class="st4" points="3741.24,827.84 3741.24,1059.19 3763.6,1046.28 3763.6,814.93 		"/>
		<polygon class="st4" points="3766.67,813.15 3766.66,1044.51 3789.02,1031.6 3789.03,800.25 		"/>
		<polygon class="st4" points="3792.1,738.12 3792.1,1029.83 3814.46,1016.92 3814.46,725.21 		"/>
		<polygon class="st4" points="3817.53,783.79 3817.53,1109.69 3839.88,1096.78 3839.88,770.88 		"/>
		<polygon class="st4" points="3842.96,769.11 3842.95,1000.47 3865.31,987.56 3865.31,756.2 		"/>
	</g>
	<g>
		<polygon class="st4" points="3464.6,1912.96 3264.24,1797.27 3264.25,1807.83 3464.6,1923.5 		"/>
		<polygon class="st4" points="3464.6,1937.49 3264.25,1821.82 3264.24,1832.36 3464.6,1948.03 		"/>
		<polygon class="st4" points="3464.6,1962.02 3264.24,1846.35 3264.25,1856.9 3464.6,1972.57 		"/>
		<polygon class="st4" points="3464.6,1986.56 3264.24,1870.88 3264.24,1881.43 3464.6,1997.1 		"/>
		<polygon class="st4" points="3464.6,2011.09 3264.25,1895.42 3264.24,1905.96 3464.6,2021.64 		"/>
		<polygon class="st4" points="3464.6,2035.62 3264.24,1919.95 3264.24,1930.49 3464.6,2046.18 		"/>
		<polygon class="st4" points="3464.6,2060.16 3264.25,1944.48 3264.24,1955.03 3464.6,2070.7 		"/>
		<polygon class="st4" points="3464.6,2084.69 3264.24,1969.02 3264.24,1979.56 3464.6,2095.24 		"/>
		<polygon class="st4" points="3464.6,2109.22 3264.24,1993.55 3264.25,2004.1 3464.6,2119.77 		"/>
		<polygon class="st4" points="3464.6,2133.76 3264.24,2018.08 3264.24,2028.63 3464.6,2144.31 		"/>
	</g>
	<g>
		<polygon class="st4" points="3063.89,1450.26 2863.53,1334.57 2872.66,1329.3 3073.02,1444.98 		"/>
		<polygon class="st4" points="3085.13,1437.98 2884.77,1322.31 2893.91,1317.04 3094.27,1432.71 		"/>
		<polygon class="st4" points="3106.38,1425.72 2906.02,1310.04 2915.16,1304.77 3115.51,1420.44 		"/>
		<polygon class="st4" points="3127.63,1413.45 2927.27,1297.77 2936.41,1292.5 3136.76,1408.18 		"/>
		<polygon class="st4" points="3148.88,1401.19 2948.52,1285.51 2957.66,1280.23 3158.01,1395.91 		"/>
		<polygon class="st4" points="3170.12,1388.92 2969.77,1273.24 2978.9,1267.97 3179.25,1383.65 		"/>
		<polygon class="st4" points="3191.37,1376.66 2991.01,1260.98 3000.14,1255.7 3200.5,1371.38 		"/>
		<polygon class="st4" points="3212.62,1364.38 3012.26,1248.71 3021.39,1243.43 3221.75,1359.12 		"/>
		<polygon class="st4" points="3233.87,1352.12 3033.51,1236.45 3042.64,1231.17 3243,1346.84 		"/>
		<polygon class="st4" points="3255.11,1339.86 3054.75,1224.18 3063.88,1218.9 3264.24,1334.57 		"/>
	</g>
	<g>
		<polygon class="st4" points="3464.6,524.84 3264.25,409.17 3264.24,419.71 3464.6,535.4 		"/>
		<polygon class="st4" points="3464.6,549.38 3264.25,433.71 3264.24,444.25 3464.6,559.92 		"/>
		<polygon class="st4" points="3464.61,573.91 3264.25,458.23 3264.24,468.78 3464.6,584.46 		"/>
		<polygon class="st4" points="3464.6,598.45 3264.25,482.78 3264.24,493.32 3464.6,608.99 		"/>
		<polygon class="st4" points="3464.6,622.98 3264.24,507.31 3264.25,517.85 3464.6,633.53 		"/>
		<polygon class="st4" points="3464.6,647.51 3264.25,531.84 3264.24,542.39 3464.6,658.07 		"/>
		<polygon class="st4" points="3464.6,672.05 3264.24,556.37 3264.25,566.92 3464.6,682.6 		"/>
		<polygon class="st4" points="3464.6,696.59 3264.24,580.91 3264.24,591.46 3464.6,707.13 		"/>
		<polygon class="st4" points="3464.6,721.12 3264.25,605.45 3264.25,615.99 3464.6,731.67 		"/>
		<polygon class="st4" points="3464.6,745.66 3264.24,629.97 3264.25,640.52 3464.6,756.2 		"/>
	</g>
	<g>
		<polygon class="st5" points="3264.25,1565.92 3063.89,1450.25 3063.89,1460.8 3264.24,1576.47 		"/>
		<polygon class="st5" points="3264.25,1590.46 3063.89,1474.78 3063.89,1485.33 3264.25,1601.01 		"/>
		<polygon class="st5" points="3264.24,1615 3063.89,1499.32 3063.88,1509.87 3264.24,1625.55 		"/>
		<polygon class="st5" points="3264.24,1639.53 3063.89,1523.85 3063.89,1534.4 3264.25,1650.07 		"/>
		<polygon class="st5" points="3264.24,1664.06 3063.89,1548.39 3063.88,1558.93 3264.25,1674.61 		"/>
		<polygon class="st5" points="3264.24,1688.6 3063.89,1572.92 3063.89,1583.47 3264.24,1699.14 		"/>
		<polygon class="st5" points="3264.25,1713.13 3063.89,1597.45 3063.88,1608 3264.24,1723.67 		"/>
		<polygon class="st5" points="3264.24,1737.66 3063.89,1621.98 3063.88,1632.54 3264.24,1748.21 		"/>
		<polygon class="st5" points="3264.25,1762.2 3063.89,1646.53 3063.88,1657.07 3264.24,1772.74 		"/>
		<polygon class="st5" points="3264.24,1786.73 3063.89,1671.06 3063.89,1681.6 3264.24,1797.27 		"/>
	</g>
	<g>
		<polygon class="st6" points="3464.6,1218.9 3264.24,1103.23 3264.24,1113.77 3464.6,1229.45 		"/>
		<polygon class="st6" points="3464.6,1243.44 3264.25,1127.76 3264.24,1138.31 3464.6,1253.99 		"/>
		<polygon class="st6" points="3464.6,1267.97 3264.25,1152.29 3264.24,1162.84 3464.6,1278.51 		"/>
		<polygon class="st6" points="3464.6,1292.51 3264.25,1176.83 3264.24,1187.37 3464.6,1303.04 		"/>
		<polygon class="st6" points="3464.6,1317.04 3264.25,1201.37 3264.25,1211.91 3464.6,1327.58 		"/>
		<polygon class="st6" points="3464.6,1341.57 3264.24,1225.9 3264.24,1236.44 3464.6,1352.12 		"/>
		<polygon class="st6" points="3464.6,1366.11 3264.25,1250.43 3264.24,1260.97 3464.6,1376.65 		"/>
		<polygon class="st6" points="3464.6,1390.64 3264.24,1274.96 3264.24,1285.51 3464.6,1401.19 		"/>
		<polygon class="st6" points="3464.6,1415.17 3264.24,1299.5 3264.24,1310.04 3464.6,1425.72 		"/>
		<polygon class="st6" points="3464.6,1439.71 3264.24,1324.03 3264.24,1334.57 3464.6,1450.25 		"/>
	</g>
	<g>
		<polygon class="st5" points="3664.96,2259.98 3464.6,2144.31 3464.6,2170.12 3664.96,2285.8 		"/>
		<polygon class="st5" points="3664.96,2289.34 3464.6,2173.67 3464.6,2199.48 3664.96,2315.16 		"/>
		<polygon class="st5" points="3664.96,2318.71 3464.6,2203.03 3464.6,2228.85 3664.96,2344.52 		"/>
		<polygon class="st5" points="3664.96,2348.07 3464.6,2232.39 3464.6,2258.21 3664.96,2373.89 		"/>
		<polygon class="st5" points="3664.96,2377.43 3464.6,2261.75 3464.6,2287.58 3664.96,2403.25 		"/>
		<polygon class="st5" points="3664.96,2406.8 3464.6,2291.12 3464.6,2316.94 3664.96,2432.61 		"/>
		<polygon class="st5" points="3664.96,2436.16 3464.6,2320.48 3464.6,2346.3 3664.96,2461.97 		"/>
		<polygon class="st5" points="3664.96,2465.52 3464.6,2349.84 3464.6,2375.66 3664.96,2491.34 		"/>
	</g>
	<g>
		<polygon class="st6" points="3464.6,2144.31 3264.25,2028.63 3264.25,2054.44 3464.6,2170.12 		"/>
		<polygon class="st6" points="3464.6,2173.67 3264.24,2057.99 3264.25,2083.81 3464.6,2199.49 		"/>
		<polygon class="st6" points="3464.6,2203.03 3264.25,2087.36 3264.25,2113.18 3464.6,2228.85 		"/>
		<polygon class="st6" points="3464.6,2232.39 3264.24,2116.72 3264.25,2142.54 3464.6,2258.21 		"/>
		<polygon class="st6" points="3464.6,2261.75 3264.25,2146.08 3264.24,2171.9 3464.6,2287.58 		"/>
		<polygon class="st6" points="3464.6,2291.12 3264.25,2175.45 3264.24,2201.26 3464.6,2316.94 		"/>
		<polygon class="st6" points="3464.6,2320.48 3264.25,2204.81 3264.25,2230.62 3464.6,2346.3 		"/>
		<polygon class="st6" points="3464.6,2349.85 3264.25,2234.17 3264.25,2259.99 3464.6,2375.66 		"/>
	</g>
	<g>
		<polygon class="st4" points="3264.24,871.88 3063.89,756.2 3063.89,782.02 3264.24,897.69 		"/>
		<polygon class="st4" points="3264.24,901.24 3063.89,785.57 3063.89,811.38 3264.24,927.06 		"/>
		<polygon class="st4" points="3264.25,930.61 3063.89,814.93 3063.89,840.74 3264.25,956.42 		"/>
		<polygon class="st4" points="3264.25,959.97 3063.89,844.29 3063.89,870.11 3264.24,985.78 		"/>
		<polygon class="st4" points="3264.24,989.33 3063.89,873.65 3063.89,899.47 3264.24,1015.14 		"/>
		<polygon class="st4" points="3264.25,1018.69 3063.89,903.02 3063.89,928.82 3264.24,1044.5 		"/>
		<polygon class="st4" points="3264.25,1048.05 3063.89,932.38 3063.89,958.19 3264.24,1073.87 		"/>
		<polygon class="st4" points="3264.24,1077.41 3063.89,961.74 3063.89,987.56 3264.24,1103.23 		"/>
	</g>
	<g>
		<polygon class="st6" points="4065.67,1334.58 3865.31,1218.9 3865.32,1244.72 4065.67,1360.39 		"/>
		<polygon class="st6" points="4065.67,1363.94 3865.31,1248.26 3865.31,1274.08 4065.67,1389.76 		"/>
		<polygon class="st6" points="4065.67,1393.3 3865.32,1277.62 3865.31,1303.44 4065.67,1419.12 		"/>
		<polygon class="st6" points="4065.67,1422.67 3865.31,1306.99 3865.32,1332.81 4065.67,1448.48 		"/>
		<polygon class="st6" points="4065.67,1452.03 3865.31,1336.35 3865.31,1362.17 4065.67,1477.85 		"/>
		<polygon class="st6" points="4065.67,1481.39 3865.32,1365.72 3865.31,1391.53 4065.67,1507.21 		"/>
		<polygon class="st6" points="4065.67,1510.75 3865.31,1395.07 3865.32,1420.89 4065.67,1536.57 		"/>
		<polygon class="st6" points="4065.67,1540.12 3865.31,1424.45 3865.31,1450.26 4065.67,1565.93 		"/>
	</g>
	<g>
		<polygon class="st5" points="3664.96,1103.22 3664.96,1129.04 3842.96,1231.81 3865.31,1218.9 		"/>
		<polygon class="st5" points="3664.96,1132.59 3664.96,1158.4 3817.53,1246.49 3839.88,1233.58 		"/>
		<polygon class="st5" points="3664.96,1161.95 3664.96,1187.77 3792.1,1261.17 3814.46,1248.26 		"/>
		<polygon class="st5" points="3664.96,1191.31 3664.96,1217.13 3766.67,1275.85 3789.03,1262.94 		"/>
		<polygon class="st5" points="3664.96,1220.68 3664.96,1246.49 3741.25,1290.53 3763.6,1277.63 		"/>
		<polygon class="st5" points="3664.96,1250.04 3664.96,1275.86 3715.82,1305.22 3738.17,1292.31 		"/>
		<polygon class="st5" points="3664.96,1279.4 3664.96,1305.22 3690.39,1319.9 3712.75,1306.99 		"/>
		<polygon class="st5" points="3687.32,1321.67 3664.96,1308.76 3664.96,1334.58 		"/>
	</g>
	<g>
		<polygon class="st6" points="3264.27,409.18 3273.37,414.43 3273.37,403.93 		"/>
		<polygon class="st6" points="3285.48,396.93 3285.48,421.43 3294.61,426.7 3294.62,391.66 		"/>
		<polygon class="st6" points="3306.73,384.66 3306.73,433.69 3315.86,438.97 3315.86,379.39 		"/>
		<polygon class="st6" points="3327.98,372.4 3327.97,445.96 3337.11,451.23 3337.11,367.12 		"/>
		<polygon class="st6" points="3349.22,360.12 3349.22,458.23 3358.35,463.5 3358.35,354.85 		"/>
		<polygon class="st6" points="3370.46,347.86 3370.47,470.49 3379.6,475.77 3379.6,342.59 		"/>
		<polygon class="st6" points="3391.72,335.59 3391.71,482.76 3400.85,488.04 3400.85,330.31 		"/>
		<polygon class="st6" points="3412.96,213.69 3412.96,495.03 3422.09,500.3 3422.1,208.42 		"/>
		<polygon class="st6" points="3434.21,311.06 3434.21,507.29 3443.35,512.57 3443.35,305.79 		"/>
		<polygon class="st6" points="3464.59,293.51 3455.46,298.79 3455.45,519.56 3464.59,524.83 		"/>
	</g>
	<g>
		<polygon class="st4" points="4065.66,871.9 4065.64,871.86 4056.54,866.6 4056.54,877.17 		"/>
		<polygon class="st4" points="4044.42,884.16 4044.42,859.6 4035.29,854.33 4035.29,889.43 		"/>
		<polygon class="st4" points="4023.18,896.42 4023.18,847.34 4014.04,842.07 4014.05,901.69 		"/>
		<polygon class="st4" points="4001.93,908.69 4001.93,682.6 3992.8,677.32 3992.8,913.95 		"/>
		<polygon class="st4" points="3980.68,920.95 3980.68,822.8 3971.55,817.53 3971.55,926.22 		"/>
		<polygon class="st4" points="3959.43,933.22 3959.44,810.54 3950.3,805.27 3950.3,938.49 		"/>
		<polygon class="st4" points="3938.19,945.48 3938.19,798.27 3929.05,792.99 3929.05,950.76 		"/>
		<polygon class="st4" points="3916.95,957.75 3916.95,786 3907.8,780.73 3907.8,963.02 		"/>
		<polygon class="st4" points="3895.7,970.01 3895.7,773.74 3886.56,768.46 3886.56,975.29 		"/>
		<polygon class="st4" points="3874.45,982.28 3874.45,761.48 3865.32,756.2 3865.31,987.56 3865.31,987.56 		"/>
	</g>
	<polygon class="st5" points="2858.09,2219.86 2858.09,2451.22 2880.45,2438.31 2880.45,2206.96 	"/>
	<polygon class="st6" points="3004.92,619.8 3004.92,851.16 3027.29,838.25 3027.28,606.9 	"/>
	<polygon class="st5" points="4105.35,1210.45 4105.34,1441.8 4127.71,1428.89 4127.71,1197.54 	"/>
	<polygon class="st6" points="4147.83,1369.68 4147.83,1511.13 4161.51,1503.24 4161.51,1361.79 	"/>
	<polygon class="st5" points="2961.45,784.38 2961.44,925.83 2975.11,917.94 2975.11,776.49 	"/>
	<polygon class="st6" points="2818.56,2143.87 2818.56,2285.32 2832.23,2277.43 2832.23,2135.98 	"/>
	<polygon class="st6" points="3664.96,2521.8 3664.96,2600.42 3678.63,2592.53 3678.63,2513.92 	"/>
	<polygon class="st5" points="4084.27,493.15 4084.26,634.6 4097.93,626.7 4097.93,485.25 	"/>
	<polygon class="st4" points="3238.43,2191.87 3238.43,2423.23 3229.3,2417.96 3229.3,2186.61 	"/>
	<polygon class="st5" points="4048.99,2133.15 4048.99,2364.5 4039.86,2359.23 4039.86,2127.88 	"/>
	<polygon class="st4" points="2789.52,913.86 2789.52,1049.64 2784.15,1046.56 2784.15,910.78 	"/>
	<polygon class="st6" points="4426.56,1608.81 4426.56,1744.58 4421.21,1741.49 4421.21,1605.71 	"/>
	<polygon class="st4" points="3062.01,1725.67 3062,1861.45 3056.64,1858.35 3056.64,1722.57 	"/>
	<g>
		<polygon class="st4" points="4065.67,1797.28 4065.67,2028.63 4043.31,2015.73 4043.31,1784.37 		"/>
		<polygon class="st4" points="4040.24,1782.6 4040.24,2013.95 4017.88,2001.04 4017.88,1769.69 		"/>
		<polygon class="st4" points="4014.81,1767.92 4014.81,2229.64 3992.45,2216.73 3992.45,1755.01 		"/>
		<polygon class="st4" points="3989.38,1753.24 3989.38,1984.59 3967.02,1971.68 3967.02,1740.33 		"/>
		<polygon class="st4" points="3963.95,1738.56 3963.96,1969.91 3941.6,1957 3941.6,1725.65 		"/>
		<polygon class="st4" points="3938.53,1723.88 3938.53,1955.23 3916.17,1942.32 3916.16,1710.97 		"/>
		<polygon class="st4" points="3913.09,1709.2 3913.1,1940.55 3890.74,1927.64 3890.74,1696.28 		"/>
		<polygon class="st4" points="3887.67,1694.51 3887.67,1925.86 3865.31,1912.96 3865.31,1681.61 		"/>
	</g>
</g>
<g>
	<g>
		<polygon class="st4" points="5561.04,1275.5 5850.83,1108.2 5852.56,1109.19 5562.77,1276.51 		"/>
		<polygon class="st4" points="5871.81,1120.31 5876.23,1122.87 5586.44,1290.17 5582.01,1287.61 		"/>
		<polygon class="st4" points="5895.46,1133.97 5902.58,1138.08 5612.8,1305.39 5605.68,1301.28 		"/>
		<polygon class="st4" points="5921.82,1149.18 5931.62,1154.85 5641.84,1322.15 5632.04,1316.5 		"/>
		<polygon class="st4" points="5950.86,1165.96 5963.36,1173.17 5673.58,1340.48 5661.08,1333.26 		"/>
		<polygon class="st4" points="5982.6,1184.27 5997.78,1193.04 5708,1360.35 5692.82,1351.58 		"/>
		<polygon class="st4" points="6017.03,1204.15 6034.9,1214.47 5745.12,1381.77 5727.23,1371.46 		"/>
		<polygon class="st4" points="6054.14,1225.57 6074.7,1237.45 5784.91,1404.76 5764.36,1392.88 		"/>
		<polygon class="st4" points="6093.94,1248.55 6117.19,1261.99 5827.4,1429.29 5804.15,1415.86 		"/>
	</g>
	<g>
		<polygon class="st4" points="5850.83,1108.2 6140.61,940.9 6142.34,941.89 5852.56,1109.2 		"/>
		<polygon class="st4" points="6161.59,953 6166.01,955.56 5876.23,1122.87 5871.81,1120.31 		"/>
		<polygon class="st4" points="6185.25,966.67 6192.36,970.78 5902.58,1138.08 5895.46,1133.97 		"/>
		<polygon class="st4" points="6211.6,981.88 6221.41,987.54 5931.62,1154.85 5921.82,1149.18 		"/>
		<polygon class="st4" points="6240.64,998.65 6253.14,1005.86 5963.36,1173.16 5950.86,1165.96 		"/>
		<polygon class="st4" points="6272.38,1016.97 6287.56,1025.74 5997.78,1193.04 5982.6,1184.27 		"/>
		<polygon class="st4" points="6306.8,1036.85 6324.68,1047.16 6034.9,1214.47 6017.03,1204.15 		"/>
		<polygon class="st4" points="6343.92,1058.28 6364.48,1070.15 6074.7,1237.45 6054.14,1225.57 		"/>
		<polygon class="st4" points="6383.71,1081.25 6406.97,1094.68 6117.19,1261.99 6093.94,1248.55 		"/>
	</g>
	<g>
		<polygon class="st4" points="5561.04,1275.5 5561.04,1610.12 5562.77,1611.12 5562.77,1276.51 		"/>
		<polygon class="st4" points="5582.02,1622.23 5586.44,1624.79 5586.44,1290.17 5582.01,1287.61 		"/>
		<polygon class="st4" points="5605.68,1635.89 5612.8,1640 5612.79,1305.39 5605.68,1301.28 		"/>
		<polygon class="st4" points="5632.03,1651.11 5641.84,1656.77 5641.84,1322.15 5632.04,1316.5 		"/>
		<polygon class="st4" points="5661.08,1667.88 5673.57,1675.09 5673.57,1340.48 5661.08,1333.26 		"/>
		<polygon class="st4" points="5692.81,1686.2 5707.99,1694.97 5708,1360.35 5692.82,1351.58 		"/>
		<polygon class="st4" points="5727.24,1706.07 5745.11,1716.39 5745.12,1381.77 5727.23,1371.46 		"/>
		<polygon class="st4" points="5764.35,1727.5 5784.91,1739.37 5784.91,1404.76 5764.36,1392.88 		"/>
		<polygon class="st4" points="5804.15,1750.48 5827.4,1763.91 5827.4,1429.29 5804.15,1415.86 		"/>
	</g>
	<g>
		<polygon class="st6" points="5514.21,2252.3 5224.42,2419.61 5222.69,2418.61 5512.47,2251.31 		"/>
		<polygon class="st6" points="5203.44,2407.5 5199.02,2404.95 5488.8,2237.65 5493.23,2240.19 		"/>
		<polygon class="st6" points="5179.78,2393.84 5172.66,2389.73 5462.44,2222.43 5469.56,2226.53 		"/>
		<polygon class="st6" points="5153.42,2378.62 5143.62,2372.96 5433.4,2205.65 5443.21,2211.31 		"/>
		<polygon class="st6" points="5124.38,2361.86 5111.89,2354.65 5401.67,2187.34 5414.17,2194.55 		"/>
		<polygon class="st6" points="5092.65,2343.53 5077.46,2334.77 5367.25,2167.46 5382.43,2176.23 		"/>
		<polygon class="st6" points="5058.23,2323.65 5040.35,2313.34 5330.14,2146.03 5348.01,2156.35 		"/>
		<polygon class="st6" points="5021.11,2302.23 5000.55,2290.36 5290.33,2123.05 5310.88,2134.92 		"/>
		<polygon class="st6" points="4981.3,2279.25 4958.06,2265.82 5247.84,2098.52 5271.09,2111.95 		"/>
	</g>
	<g>
		<polygon class="st5" points="5803.98,746.54 5514.21,913.85 5512.46,912.85 5802.25,745.54 		"/>
		<polygon class="st5" points="5493.23,901.74 5488.8,899.18 5778.59,731.88 5783.01,734.43 		"/>
		<polygon class="st5" points="5469.56,888.07 5462.45,883.97 5752.24,716.66 5759.35,720.77 		"/>
		<polygon class="st5" points="5443.21,872.86 5433.4,867.2 5723.19,699.89 5732.99,705.55 		"/>
		<polygon class="st5" points="5414.17,856.09 5401.68,848.88 5691.46,681.57 5703.95,688.79 		"/>
		<polygon class="st5" points="5382.43,837.77 5367.25,829.01 5657.04,661.69 5672.22,670.47 		"/>
		<polygon class="st5" points="5348,817.9 5330.13,807.57 5619.92,640.26 5637.79,650.59 		"/>
		<polygon class="st5" points="5310.9,796.47 5290.33,784.6 5580.12,617.29 5600.68,629.16 		"/>
		<polygon class="st5" points="5271.09,773.49 5247.84,760.07 5537.62,592.76 5560.88,606.18 		"/>
	</g>
	<g>
		<polygon class="st6" points="4958.05,954.41 5247.84,1121.72 5247.84,1123.72 4958.05,956.41 		"/>
		<polygon class="st6" points="5247.84,1145.94 5247.84,1151.05 4958.05,983.74 4958.05,978.63 		"/>
		<polygon class="st6" points="5247.84,1173.27 5247.84,1181.47 4958.05,1014.17 4958.05,1005.96 		"/>
		<polygon class="st6" points="5247.84,1203.7 5247.84,1215.02 4958.05,1047.71 4958.05,1036.39 		"/>
		<polygon class="st6" points="5247.84,1237.23 5247.84,1251.66 4958.04,1084.35 4958.05,1069.92 		"/>
		<polygon class="st6" points="5247.84,1273.88 5247.84,1291.41 4958.04,1124.1 4958.05,1106.57 		"/>
		<polygon class="st6" points="5247.84,1313.63 5247.84,1334.27 4958.05,1166.95 4958.05,1146.32 		"/>
		<polygon class="st6" points="5247.84,1356.48 5247.84,1380.22 4958.04,1212.91 4958.05,1189.17 		"/>
		<polygon class="st6" points="5247.84,1402.44 5247.84,1429.29 4958.04,1261.98 4958.05,1235.13 		"/>
	</g>
	<g>
		<polygon class="st4" points="6117.19,1289.03 6406.98,1456.33 6406.98,1458.34 6117.19,1291.03 		"/>
		<polygon class="st4" points="6406.98,1480.56 6406.98,1485.67 6117.2,1318.35 6117.19,1313.25 		"/>
		<polygon class="st4" points="6406.98,1507.88 6406.98,1516.1 6117.2,1348.79 6117.2,1340.57 		"/>
		<polygon class="st4" points="6406.98,1538.31 6406.98,1549.64 6117.19,1382.33 6117.2,1371.01 		"/>
		<polygon class="st4" points="6406.98,1571.85 6406.98,1586.28 6117.2,1418.97 6117.2,1404.54 		"/>
		<polygon class="st4" points="6406.98,1608.49 6406.98,1626.03 6117.19,1458.72 6117.19,1441.19 		"/>
		<polygon class="st4" points="6406.97,1648.25 6406.98,1668.88 6117.2,1501.57 6117.2,1480.93 		"/>
		<polygon class="st4" points="6406.98,1691.1 6406.98,1714.84 6117.19,1547.53 6117.19,1523.79 		"/>
		<polygon class="st4" points="6406.98,1737.06 6406.98,1763.9 6117.19,1596.6 6117.2,1569.75 		"/>
	</g>
	<g>
		<polygon class="st4" points="5561.01,1248.52 5561.01,913.9 5562.75,912.9 5562.75,1247.51 		"/>
		<polygon class="st4" points="5581.99,901.79 5586.41,899.24 5586.41,1233.86 5581.99,1236.41 		"/>
		<polygon class="st4" points="5605.65,888.13 5612.77,884.02 5612.77,1218.64 5605.65,1222.75 		"/>
		<polygon class="st4" points="5632.01,872.92 5641.81,867.25 5641.81,1201.86 5632.01,1207.53 		"/>
		<polygon class="st4" points="5661.06,631.94 5673.55,624.73 5673.56,1183.55 5661.05,1190.76 		"/>
		<polygon class="st4" points="5692.79,837.82 5707.97,829.06 5707.98,1163.67 5692.79,1172.43 		"/>
		<polygon class="st4" points="5727.21,817.95 5745.08,807.63 5745.08,1142.25 5727.21,1152.56 		"/>
		<polygon class="st4" points="5764.32,796.52 5784.89,784.65 5784.89,1119.27 5764.32,1131.14 		"/>
		<polygon class="st4" points="5804.12,489.02 5827.38,475.59 5827.38,1094.73 5804.12,1108.15 		"/>
	</g>
	<g>
		<polygon class="st5" points="6673.34,1275.5 6673.33,1610.12 6671.62,1611.13 6671.6,1276.51 		"/>
		<polygon class="st5" points="6652.36,1622.23 6647.94,1624.78 6647.95,1290.17 6652.37,1287.61 		"/>
		<polygon class="st5" points="6628.7,1635.89 6621.59,1640 6621.58,1305.39 6628.71,1301.28 		"/>
		<polygon class="st5" points="6602.34,1651.11 6592.54,1656.77 6592.54,1322.15 6602.35,1316.5 		"/>
		<polygon class="st5" points="6573.3,1667.88 6560.8,1675.09 6560.8,1340.48 6573.3,1333.27 		"/>
		<polygon class="st5" points="6541.57,1762.83 6526.38,1771.6 6526.38,1360.35 6541.58,1351.58 		"/>
		<polygon class="st5" points="6507.14,1895.59 6489.27,1905.9 6489.27,1381.78 6507.15,1371.46 		"/>
		<polygon class="st5" points="6470.03,1727.5 6449.46,1739.37 6449.46,1404.76 6470.03,1392.89 		"/>
		<polygon class="st5" points="6430.23,1750.48 6406.98,1763.9 6406.98,1429.29 6430.23,1415.86 		"/>
	</g>
	<g>
		<polygon class="st5" points="5850.83,2085 5850.83,1750.39 5852.57,1749.38 5852.56,2084 		"/>
		<polygon class="st5" points="5871.8,1738.27 5876.23,1735.72 5876.23,2070.33 5871.81,2072.89 		"/>
		<polygon class="st5" points="5895.47,1724.61 5902.59,1720.5 5902.58,2055.12 5895.47,2059.22 		"/>
		<polygon class="st5" points="5921.82,1709.4 5931.63,1703.73 5931.62,2038.35 5921.82,2044 		"/>
		<polygon class="st5" points="5950.87,1692.62 5963.36,1685.41 5963.36,2020.03 5950.87,2027.24 		"/>
		<polygon class="st5" points="5982.61,1674.3 5997.79,1665.54 5997.78,2000.15 5982.61,2008.92 		"/>
		<polygon class="st5" points="6017.03,1654.43 6034.9,1644.12 6034.9,1978.72 6017.03,1989.04 		"/>
		<polygon class="st5" points="6054.14,1633 6074.7,1621.13 6074.7,1955.75 6054.14,1967.61 		"/>
		<polygon class="st5" points="6093.94,1610.02 6117.19,1596.6 6117.19,1931.22 6093.94,1944.64 		"/>
	</g>
	<g>
		<polygon class="st5" points="5850.83,1750.39 5850.82,1415.77 5852.56,1414.77 5852.56,1749.39 		"/>
		<polygon class="st5" points="5871.8,1403.65 5876.22,1401.1 5876.22,1735.72 5871.8,1738.27 		"/>
		<polygon class="st5" points="5895.46,1389.99 5902.58,1385.89 5902.58,1720.5 5895.46,1724.6 		"/>
		<polygon class="st5" points="5921.82,1374.78 5931.62,1369.11 5931.63,1703.73 5921.82,1709.4 		"/>
		<polygon class="st5" points="5950.86,1358.01 5963.36,1350.8 5963.36,1685.41 5950.86,1692.62 		"/>
		<polygon class="st5" points="5982.6,1339.69 5997.79,1330.91 5997.78,1665.53 5982.6,1674.31 		"/>
		<polygon class="st5" points="6017.02,903.54 6034.89,893.21 6034.89,1644.11 6017.02,1654.43 		"/>
		<polygon class="st5" points="6054.13,1298.39 6074.7,1286.52 6074.7,1621.13 6054.14,1633 		"/>
		<polygon class="st5" points="6093.94,1275.41 6117.19,1261.99 6117.19,1596.6 6093.94,1610.02 		"/>
	</g>
	<g>
		<polygon class="st6" points="5850.83,2085 6140.61,2252.31 6142.34,2251.31 5852.56,2084 		"/>
		<polygon class="st6" points="6161.59,2240.2 6166.02,2237.64 5876.23,2070.33 5871.81,2072.9 		"/>
		<polygon class="st6" points="6185.26,2226.53 6192.38,2222.43 5902.58,2055.12 5895.47,2059.22 		"/>
		<polygon class="st6" points="6211.6,2211.31 6221.41,2205.65 5931.62,2038.35 5921.82,2044 		"/>
		<polygon class="st6" points="6240.66,2194.55 6253.15,2187.34 5963.36,2020.03 5950.87,2027.24 		"/>
		<polygon class="st6" points="6272.39,2176.23 6287.57,2167.46 5997.78,2000.15 5982.61,2008.92 		"/>
		<polygon class="st6" points="6306.81,2156.35 6324.68,2146.03 6034.9,1978.72 6017.03,1989.05 		"/>
		<polygon class="st6" points="6343.93,2134.93 6364.48,2123.05 6074.7,1955.74 6054.14,1967.61 		"/>
		<polygon class="st6" points="6383.73,2111.95 6406.98,2098.53 6117.19,1931.22 6093.94,1944.65 		"/>
	</g>
	<g>
		<polygon class="st4" points="5537.62,2238.78 5247.84,2071.48 5247.84,2069.47 5537.62,2236.78 		"/>
		<polygon class="st4" points="5247.84,2047.25 5247.84,2042.15 5537.62,2209.46 5537.62,2214.56 		"/>
		<polygon class="st4" points="5247.84,2019.93 5247.84,2011.73 5537.62,2179.02 5537.63,2187.24 		"/>
		<polygon class="st4" points="5247.84,1989.5 5247.84,1978.18 5537.63,2145.49 5537.62,2156.81 		"/>
		<polygon class="st4" points="5247.84,1955.96 5247.84,1941.54 5537.63,2108.85 5537.62,2123.27 		"/>
		<polygon class="st4" points="5247.84,1919.32 5247.84,1901.79 5537.63,2069.09 5537.62,2086.63 		"/>
		<polygon class="st4" points="5247.84,1879.56 5247.85,1858.93 5537.62,2026.24 5537.62,2046.88 		"/>
		<polygon class="st4" points="5247.84,1836.72 5247.84,1812.97 5537.63,1980.28 5537.62,2004.03 		"/>
		<polygon class="st4" points="5247.84,1790.75 5247.84,1763.91 5537.63,1931.22 5537.62,1958.06 		"/>
	</g>
	<g>
		<polygon class="st6" points="6673.34,1275.5 6383.55,1108.2 6381.82,1109.19 6671.6,1276.51 		"/>
		<polygon class="st6" points="6362.58,1120.31 6358.15,1122.87 6647.95,1290.17 6652.37,1287.61 		"/>
		<polygon class="st6" points="6338.91,1133.97 6331.81,1138.07 6621.58,1305.39 6628.7,1301.28 		"/>
		<polygon class="st6" points="6312.56,1149.18 6302.76,1154.84 6592.54,1322.15 6602.34,1316.49 		"/>
		<polygon class="st6" points="6283.52,1165.95 6271.03,1173.16 6560.81,1340.48 6573.3,1333.27 		"/>
		<polygon class="st6" points="6251.78,1184.27 6236.6,1193.04 6526.38,1360.35 6541.58,1351.58 		"/>
		<polygon class="st6" points="6217.36,1204.15 6199.49,1214.47 6489.27,1381.78 6507.15,1371.46 		"/>
		<polygon class="st6" points="6180.25,1225.57 6159.69,1237.44 6449.47,1404.76 6470.03,1392.89 		"/>
		<polygon class="st6" points="6140.45,1248.56 6117.2,1261.98 6406.98,1429.29 6430.23,1415.86 		"/>
	</g>
	<g>
		<polygon class="st4" points="6406.95,1067.69 6117.16,900.38 6117.16,898.38 6406.95,1065.69 		"/>
		<polygon class="st4" points="6117.17,876.16 6117.17,871.05 6406.95,1038.36 6406.95,1043.47 		"/>
		<polygon class="st4" points="6117.16,848.83 6117.17,840.61 6406.95,1007.93 6406.95,1016.14 		"/>
		<polygon class="st4" points="6117.16,818.4 6117.17,807.08 6406.95,974.38 6406.95,985.71 		"/>
		<polygon class="st4" points="6117.17,784.86 6117.16,770.44 6406.95,937.74 6406.95,952.17 		"/>
		<polygon class="st4" points="6117.17,748.23 6117.16,730.69 6406.95,897.99 6406.96,915.54 		"/>
		<polygon class="st4" points="6117.16,708.48 6117.17,687.83 6406.96,855.14 6406.95,875.78 		"/>
		<polygon class="st4" points="6117.17,665.62 6117.16,641.88 6406.96,809.18 6406.96,832.93 		"/>
		<polygon class="st4" points="6117.17,619.66 6117.17,592.81 6406.95,760.12 6406.95,786.96 		"/>
	</g>
	<g>
		<polygon class="st4" points="5514.21,940.89 5224.43,773.59 5222.69,774.6 5512.47,941.9 		"/>
		<polygon class="st4" points="5203.44,785.7 5199.02,788.25 5488.8,955.56 5493.24,953.01 		"/>
		<polygon class="st4" points="5179.78,799.36 5172.66,803.47 5462.45,970.78 5469.56,966.67 		"/>
		<polygon class="st4" points="5153.42,814.58 5143.62,820.24 5433.42,987.55 5443.21,981.88 		"/>
		<polygon class="st4" points="5124.38,831.35 5111.89,838.56 5401.68,1005.87 5414.17,998.66 		"/>
		<polygon class="st4" points="5092.65,849.67 5077.46,858.43 5367.25,1025.74 5382.43,1016.97 		"/>
		<polygon class="st4" points="5058.23,869.54 5040.35,879.86 5330.14,1047.17 5348.01,1036.85 		"/>
		<polygon class="st4" points="5021.11,890.97 5000.56,902.84 5290.34,1070.15 5310.89,1058.28 		"/>
		<polygon class="st4" points="4981.3,913.95 4958.06,927.37 5247.85,1094.68 5271.09,1081.25 		"/>
	</g>
	<g>
		<polygon class="st4" points="5537.62,954.41 5247.84,1121.72 5247.84,1123.72 5537.62,956.41 		"/>
		<polygon class="st4" points="5247.84,1145.94 5247.84,1151.05 5537.62,983.74 5537.62,978.63 		"/>
		<polygon class="st4" points="5247.84,1173.27 5247.84,1181.48 5537.62,1014.17 5537.62,1005.96 		"/>
		<polygon class="st4" points="5247.84,1203.7 5247.84,1215.02 5537.62,1047.71 5537.62,1036.39 		"/>
		<polygon class="st4" points="5247.84,1237.23 5247.84,1251.66 5537.62,1084.35 5537.62,1069.93 		"/>
		<polygon class="st4" points="5247.84,1273.88 5247.84,1291.41 5537.62,1124.1 5537.62,1106.57 		"/>
		<polygon class="st4" points="5247.84,1313.63 5247.84,1334.27 5537.62,1166.96 5537.62,1146.32 		"/>
		<polygon class="st4" points="5247.84,1356.48 5247.84,1380.22 5537.62,1212.91 5537.62,1189.17 		"/>
		<polygon class="st4" points="5247.84,1402.44 5247.84,1429.29 5537.62,1261.98 5537.62,1235.13 		"/>
	</g>
	<g>
		<polygon class="st5" points="4958.06,1289.03 4668.27,1456.33 4668.27,1458.34 4958.05,1291.03 		"/>
		<polygon class="st5" points="4668.27,1480.56 4668.27,1485.66 4958.06,1318.36 4958.06,1313.25 		"/>
		<polygon class="st5" points="4668.27,1507.88 4668.27,1516.1 4958.05,1348.79 4958.06,1340.58 		"/>
		<polygon class="st5" points="4668.27,1538.32 4668.28,1549.64 4958.06,1382.33 4958.05,1371.01 		"/>
		<polygon class="st5" points="4668.28,1571.85 4668.28,1586.28 4958.06,1418.97 4958.06,1404.54 		"/>
		<polygon class="st5" points="4668.28,1608.5 4668.27,1626.03 4958.06,1458.72 4958.06,1441.19 		"/>
		<polygon class="st5" points="4668.28,1648.25 4668.28,1668.88 4958.06,1501.57 4958.05,1480.93 		"/>
		<polygon class="st5" points="4668.28,1691.1 4668.27,1714.84 4958.07,1547.54 4958.06,1523.79 		"/>
		<polygon class="st5" points="4668.27,1737.05 4668.27,1763.91 4958.07,1596.6 4958.06,1569.75 		"/>
	</g>
	<g>
		<polygon class="st4" points="4958.05,2238.79 5247.84,2071.48 5247.84,2069.47 4958.05,2236.79 		"/>
		<polygon class="st4" points="5247.84,2047.25 5247.84,2042.15 4958.05,2209.46 4958.05,2214.56 		"/>
		<polygon class="st4" points="5247.84,2019.93 5247.84,2011.73 4958.05,2179.01 4958.05,2187.24 		"/>
		<polygon class="st4" points="5247.84,1989.5 5247.84,1978.18 4958.05,2145.49 4958.05,2156.81 		"/>
		<polygon class="st4" points="5247.84,1955.96 5247.84,1941.54 4958.05,2108.85 4958.05,2123.26 		"/>
		<polygon class="st4" points="5247.84,1919.32 5247.84,1901.79 4958.05,2069.1 4958.05,2086.63 		"/>
		<polygon class="st4" points="5247.84,1879.56 5247.84,1858.93 4958.05,2026.24 4958.05,2046.88 		"/>
		<polygon class="st4" points="5247.84,1836.72 5247.84,1812.97 4958.05,1980.28 4958.05,2004.02 		"/>
		<polygon class="st4" points="5247.84,1790.75 5247.84,1763.91 4958.05,1931.22 4958.05,1958.06 		"/>
	</g>
	<g>
		<polygon class="st4" points="6140.61,1610.12 6140.61,1944.74 6142.34,1945.74 6142.34,1611.13 		"/>
		<polygon class="st4" points="6161.59,1956.85 6166.01,1959.4 6166.01,1624.79 6161.59,1622.23 		"/>
		<polygon class="st4" points="6185.26,1970.51 6192.38,1974.62 6192.38,1640 6185.26,1635.89 		"/>
		<polygon class="st4" points="6211.6,1985.73 6221.42,1991.38 6221.41,1656.77 6211.62,1651.11 		"/>
		<polygon class="st4" points="6240.66,2358.25 6253.14,2365.46 6253.15,1675.09 6240.66,1667.88 		"/>
		<polygon class="st4" points="6272.39,2020.82 6287.57,2029.58 6287.57,1694.97 6272.39,1686.2 		"/>
		<polygon class="st4" points="6306.81,2040.69 6324.69,2051.01 6324.68,1716.39 6306.81,1706.07 		"/>
		<polygon class="st4" points="6343.93,2062.12 6364.49,2073.99 6364.48,1739.37 6343.93,1727.5 		"/>
		<polygon class="st4" points="6383.73,2085.1 6406.98,2098.53 6406.98,1763.92 6383.73,1750.48 		"/>
	</g>
	<g>
		<polygon class="st5" points="5561.04,2252.3 5561.04,1917.69 5562.77,1916.69 5562.77,2251.31 		"/>
		<polygon class="st5" points="5582.01,1905.57 5586.44,1903.02 5586.44,2443.8 5582.01,2446.36 		"/>
		<polygon class="st5" points="5605.68,1891.92 5612.8,1887.81 5612.79,2222.42 5605.68,2226.53 		"/>
		<polygon class="st5" points="5632.04,1876.7 5641.84,1871.05 5641.84,2205.65 5632.04,2211.31 		"/>
		<polygon class="st5" points="5661.09,1859.93 5673.57,1852.72 5673.57,2187.33 5661.08,2194.54 		"/>
		<polygon class="st5" points="5692.82,1841.61 5708,1832.84 5708,2167.46 5692.82,2176.22 		"/>
		<polygon class="st5" points="5727.24,1821.74 5745.11,1811.41 5745.11,2298.05 5727.24,2308.37 		"/>
		<polygon class="st5" points="5764.35,1800.31 5784.91,1788.43 5784.91,2275.07 5764.35,2286.95 		"/>
		<polygon class="st5" points="5804.16,1777.33 5827.4,1763.91 5827.4,2098.52 5804.16,2111.94 		"/>
	</g>
	<g>
		<polygon class="st5" points="5271.26,1750.38 5271.26,1415.77 5272.99,1414.77 5272.99,1749.39 		"/>
		<polygon class="st5" points="5292.23,1403.65 5296.65,1401.1 5296.66,1735.71 5292.23,1738.27 		"/>
		<polygon class="st5" points="5315.89,1389.99 5323.01,1385.89 5323.01,1720.5 5315.89,1724.61 		"/>
		<polygon class="st5" points="5342.25,1374.78 5352.05,1369.11 5352.05,1703.73 5342.25,1709.39 		"/>
		<polygon class="st5" points="5371.3,1358.01 5383.79,1350.79 5383.79,1685.4 5371.29,1692.62 		"/>
		<polygon class="st5" points="5403.03,1339.69 5418.21,1330.92 5418.21,1665.53 5403.03,1674.3 		"/>
		<polygon class="st5" points="5437.45,1101.13 5455.32,1090.81 5455.33,1644.1 5437.45,1654.43 		"/>
		<polygon class="st5" points="5474.56,1298.39 5495.13,1286.51 5495.13,1621.12 5474.56,1633 		"/>
		<polygon class="st5" points="5514.37,1275.4 5537.62,1261.98 5537.62,1596.6 5514.37,1610.02 		"/>
	</g>
	<g>
		<polygon class="st6" points="5271.26,1750.38 5561.04,1917.69 5562.77,1916.69 5272.99,1749.39 		"/>
		<polygon class="st6" points="5582.01,1905.57 5586.44,1903.02 5296.66,1735.71 5292.23,1738.27 		"/>
		<polygon class="st6" points="5605.68,1891.92 5612.8,1887.81 5323.01,1720.5 5315.89,1724.61 		"/>
		<polygon class="st6" points="5632.04,1876.7 5641.84,1871.05 5352.05,1703.73 5342.25,1709.39 		"/>
		<polygon class="st6" points="5661.08,1859.93 5673.57,1852.71 5383.79,1685.4 5371.29,1692.62 		"/>
		<polygon class="st6" points="5692.82,1841.61 5708,1832.84 5418.21,1665.53 5403.03,1674.3 		"/>
		<polygon class="st6" points="5727.24,1821.74 5745.11,1811.42 5455.33,1644.1 5437.45,1654.43 		"/>
		<polygon class="st6" points="5764.35,1800.31 5784.91,1788.43 5495.13,1621.12 5474.56,1633 		"/>
		<polygon class="st6" points="5804.16,1777.33 5827.4,1763.91 5537.62,1596.6 5514.37,1610.02 		"/>
	</g>
	<g>
		<polygon class="st4" points="4981.47,1275.51 4981.48,1610.12 4983.21,1611.13 4983.21,1276.52 		"/>
		<polygon class="st4" points="5002.45,1622.23 5006.88,1624.79 5006.87,1290.18 5002.44,1287.62 		"/>
		<polygon class="st4" points="5026.12,1816.39 5033.23,1820.49 5033.23,1305.39 5026.11,1301.28 		"/>
		<polygon class="st4" points="5052.47,1651.11 5062.27,1656.77 5062.27,1104.22 5052.46,1098.56 		"/>
		<polygon class="st4" points="5081.52,1667.88 5094.01,1675.09 5094.01,691.45 5081.51,684.23 		"/>
		<polygon class="st4" points="5113.24,1686.2 5128.44,1694.97 5128.43,1360.35 5113.25,1351.59 		"/>
		<polygon class="st4" points="5147.68,1758.75 5165.54,1769.06 5165.54,1381.78 5147.66,1371.46 		"/>
		<polygon class="st4" points="5184.78,1727.5 5205.35,1739.38 5205.35,1404.76 5184.78,1392.89 		"/>
		<polygon class="st4" points="5224.58,1750.48 5247.84,1763.91 5247.84,1429.3 5224.58,1415.86 		"/>
	</g>
</g>
<g>
	<g>
		<polygon class="st4" points="1092.67,1604.97 1092.67,1880.14 1074.89,1869.88 1074.89,1594.7 		"/>
		<polygon class="st4" points="1062.87,1587.77 1062.87,1862.94 1045.09,1852.68 1045.09,1577.5 		"/>
		<polygon class="st4" points="1033.08,1570.56 1033.08,1845.74 1015.29,1835.47 1015.29,1560.3 		"/>
		<polygon class="st4" points="1003.28,1553.36 1003.28,1828.53 985.5,1818.27 985.5,1543.1 		"/>
		<polygon class="st4" points="973.49,1536.17 973.49,1811.33 955.71,1801.06 955.71,1525.89 		"/>
		<polygon class="st4" points="943.69,1518.96 943.7,1794.13 925.91,1783.86 925.9,1508.69 		"/>
		<polygon class="st4" points="913.89,1501.75 913.9,1776.93 896.12,1766.66 896.11,1491.49 		"/>
		<polygon class="st4" points="884.1,1484.55 884.1,1759.72 866.32,1749.46 866.32,1474.29 		"/>
	</g>
	<g>
		<polygon class="st4" points="854.37,1192.22 854.37,1467.39 836.58,1457.12 836.58,1181.95 		"/>
		<polygon class="st4" points="824.57,1175.02 824.57,1450.19 806.79,1439.92 806.79,1164.75 		"/>
		<polygon class="st4" points="794.78,1157.81 794.77,1432.99 776.99,1422.71 776.99,1147.55 		"/>
		<polygon class="st4" points="764.98,1140.61 764.98,1415.78 747.2,1405.52 747.19,1130.34 		"/>
		<polygon class="st4" points="735.18,1123.4 735.18,1398.58 717.4,1388.31 717.4,1113.14 		"/>
		<polygon class="st4" points="705.39,1106.21 705.39,1381.37 687.61,1371.11 687.6,1095.94 		"/>
		<polygon class="st4" points="675.59,1089 675.59,1364.17 657.81,1353.9 657.81,1078.74 		"/>
		<polygon class="st4" points="645.8,1071.8 645.8,1346.97 628.01,1336.7 628.01,1061.53 		"/>
	</g>
	<g>
		<polygon class="st4" points="1330.98,1192.22 1330.97,1467.39 1313.19,1457.12 1313.19,1181.95 		"/>
		<polygon class="st4" points="1301.18,1175.02 1301.18,1450.18 1283.4,1439.92 1283.4,1164.75 		"/>
		<polygon class="st4" points="1271.39,1157.81 1271.39,1432.98 1253.6,1422.71 1253.6,1147.54 		"/>
		<polygon class="st4" points="1241.58,1140.61 1241.59,1415.78 1223.81,1405.51 1223.8,1130.34 		"/>
		<polygon class="st4" points="1211.79,1123.41 1211.79,1398.58 1194,1388.31 1194.01,1113.14 		"/>
		<polygon class="st4" points="1182,1106.21 1182,1381.37 1164.22,1371.11 1164.22,1095.94 		"/>
		<polygon class="st4" points="1152.2,1089 1152.2,1364.17 1134.42,1353.9 1134.42,1078.73 		"/>
		<polygon class="st4" points="1122.4,1071.8 1122.4,1346.97 1104.62,1336.7 1104.62,1061.53 		"/>
	</g>
	<g>
		<polygon class="st4" points="1807.61,1192.23 1807.62,1467.4 1789.83,1457.14 1789.83,1181.97 		"/>
		<polygon class="st4" points="1777.82,1175.03 1777.82,1450.2 1760.04,1439.94 1760.04,1164.77 		"/>
		<polygon class="st4" points="1748.02,1157.83 1748.02,1433 1730.24,1422.73 1730.24,1147.56 		"/>
		<polygon class="st4" points="1718.22,1140.63 1718.23,1415.8 1700.45,1405.53 1700.44,1130.36 		"/>
		<polygon class="st4" points="1688.43,1123.42 1688.43,1398.59 1670.64,1388.32 1670.65,1113.16 		"/>
		<polygon class="st4" points="1658.63,1106.22 1658.64,1381.39 1640.85,1371.12 1640.85,1095.95 		"/>
		<polygon class="st4" points="1628.84,1089.02 1628.84,1364.19 1611.05,1353.92 1611.06,1078.74 		"/>
		<polygon class="st4" points="1599.04,1071.81 1599.04,1346.98 1581.26,1336.72 1581.26,1061.55 		"/>
	</g>
	<g>
		<polygon class="st6" points="1092.67,1618.77 1330.98,1481.18 1330.98,1501.72 1092.68,1639.3 		"/>
		<polygon class="st6" points="1092.67,1653.18 1330.98,1515.6 1330.98,1536.13 1092.67,1673.71 		"/>
		<polygon class="st6" points="1092.67,1687.58 1411.43,1503.55 1411.43,1524.08 1092.67,1708.11 		"/>
		<polygon class="st6" points="1092.67,1721.99 1330.98,1584.4 1330.98,1604.93 1092.67,1742.52 		"/>
		<polygon class="st6" points="1092.67,1756.4 1330.98,1618.81 1330.97,1639.34 1092.67,1776.93 		"/>
		<polygon class="st6" points="1092.67,1790.8 1603.53,1495.85 1603.52,1516.39 1092.67,1811.33 		"/>
		<polygon class="st6" points="1092.67,1825.2 1330.98,1687.61 1330.98,1708.15 1092.67,1845.73 		"/>
		<polygon class="st6" points="1092.67,1859.61 1330.98,1722.02 1330.98,1742.56 1092.67,1880.14 		"/>
	</g>
	<g>
		<polygon class="st6" points="1581.35,2423.36 1343.05,2285.79 1360.83,2275.51 1599.13,2413.1 		"/>
		<polygon class="st6" points="1611.15,2406.16 1372.85,2268.58 1390.63,2258.32 1628.93,2395.9 		"/>
		<polygon class="st6" points="1640.94,2388.96 1402.64,2251.38 1420.42,2241.11 1658.73,2378.7 		"/>
		<polygon class="st6" points="1670.74,2371.76 1432.44,2234.18 1450.22,2223.91 1688.52,2361.49 		"/>
		<polygon class="st6" points="1700.53,2354.56 1462.23,2216.97 1480.01,2206.71 1718.31,2344.29 		"/>
		<polygon class="st6" points="1730.33,2337.35 1492.03,2199.77 1509.81,2189.51 1748.11,2327.09 		"/>
		<polygon class="st6" points="1760.13,2320.15 1521.82,2182.57 1539.61,2172.3 1777.91,2309.88 		"/>
		<polygon class="st6" points="1789.92,2302.95 1551.62,2165.36 1569.4,2155.1 1807.7,2292.68 		"/>
	</g>
	<g>
		<polygon class="st4" points="1819.53,1185.31 1581.23,1047.73 1599.01,1037.46 1837.32,1175.04 		"/>
		<polygon class="st4" points="1849.32,1168.11 1611.03,1030.52 1628.81,1020.26 1867.1,1157.84 		"/>
		<polygon class="st4" points="1879.12,1150.91 1640.82,1013.33 1658.6,1003.05 1896.91,1140.65 		"/>
		<polygon class="st4" points="1908.92,1133.7 1670.61,996.12 1688.4,985.86 1926.7,1123.44 		"/>
		<polygon class="st4" points="1938.71,1116.5 1700.4,978.92 1718.19,968.65 1956.5,1106.23 		"/>
		<polygon class="st4" points="1968.51,1099.3 1730.21,961.72 1747.99,951.45 1986.29,1089.04 		"/>
		<polygon class="st4" points="1998.31,1082.1 1760,944.51 1777.78,934.25 2016.09,1071.83 		"/>
		<polygon class="st4" points="2028.1,1064.89 1789.8,927.31 1807.58,917.04 2045.88,1054.63 		"/>
	</g>
	<g>
		<polygon class="st4" points="628.02,1598.07 389.71,1460.49 407.49,1450.22 645.8,1587.81 		"/>
		<polygon class="st4" points="657.81,1580.86 419.51,1443.29 437.28,1433.01 675.59,1570.61 		"/>
		<polygon class="st4" points="687.6,1563.67 449.3,1426.08 467.08,1415.81 705.39,1553.4 		"/>
		<polygon class="st4" points="717.4,1546.47 479.1,1408.88 496.88,1398.61 735.19,1536.2 		"/>
		<polygon class="st4" points="747.2,1529.26 508.89,1391.67 526.68,1381.41 764.98,1519 		"/>
		<polygon class="st4" points="776.99,1512.06 538.69,1374.47 556.47,1364.21 794.77,1501.8 		"/>
		<polygon class="st4" points="806.79,1494.86 568.49,1357.27 586.27,1347 824.57,1484.59 		"/>
		<polygon class="st4" points="836.58,1477.65 598.28,1340.07 616.06,1329.8 854.37,1467.39 		"/>
	</g>
	<g>
		<polygon class="st4" points="866.31,2286 628.01,2148.41 645.8,2138.15 884.1,2275.72 		"/>
		<polygon class="st4" points="896.11,2268.79 657.81,2131.21 675.59,2120.94 913.89,2258.53 		"/>
		<polygon class="st4" points="925.91,2251.59 687.6,2114 705.38,2103.74 943.69,2241.33 		"/>
		<polygon class="st4" points="955.7,2234.39 717.41,2096.81 735.18,2086.53 973.48,2224.12 		"/>
		<polygon class="st4" points="985.5,2217.18 747.2,2079.6 764.98,2069.33 1003.28,2206.92 		"/>
		<polygon class="st4" points="1015.3,2199.98 776.99,2062.4 794.78,2052.13 1033.08,2189.72 		"/>
		<polygon class="st4" points="1045.09,2182.78 806.79,2045.19 824.57,2034.93 1062.87,2172.51 		"/>
		<polygon class="st4" points="1074.89,2165.58 836.58,2028 854.37,2017.73 1092.67,2155.31 		"/>
	</g>
	<g>
		<polygon class="st5" points="1092.67,779.46 854.37,641.88 872.16,631.6 1110.46,769.19 		"/>
		<polygon class="st5" points="1122.47,762.25 884.16,624.67 901.95,614.41 1140.25,751.99 		"/>
		<polygon class="st5" points="1152.26,745.05 913.96,607.47 931.74,597.2 1170.05,734.79 		"/>
		<polygon class="st5" points="1182.06,727.85 943.76,590.27 961.54,580 1199.85,717.58 		"/>
		<polygon class="st5" points="1211.85,710.65 973.55,573.06 991.33,562.8 1229.63,700.38 		"/>
		<polygon class="st5" points="1241.65,693.45 1003.35,555.86 1021.13,545.59 1259.44,683.18 		"/>
		<polygon class="st5" points="1271.44,676.24 1033.14,538.66 1050.92,528.39 1289.23,665.97 		"/>
		<polygon class="st5" points="1301.24,659.04 1062.94,521.46 1080.73,511.19 1319.03,648.77 		"/>
	</g>
	<g>
		<polygon class="st5" points="1343.05,2285.79 1104.74,2148.2 1122.53,2137.93 1360.83,2275.51 		"/>
		<polygon class="st5" points="1372.85,2268.58 1134.54,2131 1152.32,2120.73 1390.63,2258.32 		"/>
		<polygon class="st5" points="1402.64,2251.38 1164.34,2113.8 1182.11,2103.53 1420.42,2241.11 		"/>
		<polygon class="st5" points="1432.44,2234.18 1194.13,2096.59 1211.92,2086.32 1450.22,2223.91 		"/>
		<polygon class="st5" points="1462.24,2216.97 1223.93,2079.39 1241.71,2069.12 1480.01,2206.71 		"/>
		<polygon class="st5" points="1492.03,2199.77 1253.72,2062.19 1271.51,2051.92 1509.81,2189.51 		"/>
		<polygon class="st5" points="1521.82,2182.57 1283.52,2044.98 1301.3,2034.72 1539.61,2172.3 		"/>
		<polygon class="st5" points="1551.62,2165.36 1313.32,2027.78 1331.09,2017.52 1569.4,2155.09 		"/>
	</g>
	<g>
		<polygon class="st4" points="854.37,1192.22 1092.67,1054.63 1074.89,1044.37 836.58,1181.95 		"/>
		<polygon class="st4" points="824.57,1175.02 1062.87,1037.43 1045.09,1027.16 806.79,1164.75 		"/>
		<polygon class="st4" points="794.78,1157.81 1033.08,1020.23 1015.3,1009.96 776.99,1147.55 		"/>
		<polygon class="st4" points="764.98,1140.61 1003.29,1003.03 985.5,992.76 747.19,1130.34 		"/>
		<polygon class="st4" points="462.62,1280.77 973.49,985.82 955.71,975.55 444.84,1270.51 		"/>
		<polygon class="st4" points="705.39,1106.21 943.69,968.62 925.91,958.35 687.6,1095.94 		"/>
		<polygon class="st4" points="675.59,1089 913.89,951.42 896.11,941.15 657.81,1078.74 		"/>
		<polygon class="st4" points="645.79,1071.8 884.1,934.21 866.32,923.95 628.01,1061.53 		"/>
	</g>
	<g>
		<polygon class="st4" points="1819.53,1185.31 1819.53,1460.48 1837.32,1450.22 1837.32,1175.04 		"/>
		<polygon class="st4" points="1849.32,1168.11 1849.32,1443.29 1867.11,1433.01 1867.1,1157.84 		"/>
		<polygon class="st4" points="1879.12,1150.91 1879.12,1426.08 1896.91,1415.81 1896.91,1140.65 		"/>
		<polygon class="st4" points="1908.92,1133.7 1908.91,1408.88 1926.7,1398.61 1926.7,1123.44 		"/>
		<polygon class="st4" points="1938.71,1116.5 1938.71,1391.67 1956.49,1381.41 1956.5,1106.23 		"/>
		<polygon class="st4" points="1968.51,1099.3 1968.51,1374.47 1986.29,1364.21 1986.29,1089.04 		"/>
		<polygon class="st4" points="1998.31,1082.1 1998.31,1357.27 2016.09,1347 2016.09,1071.83 		"/>
		<polygon class="st4" points="2028.1,1064.89 2028.1,1340.07 2045.89,1329.8 2045.88,1054.63 		"/>
	</g>
	<g>
		<polygon class="st4" points="1104.75,1873.03 1104.74,2148.2 1122.53,2137.93 1122.53,1862.76 		"/>
		<polygon class="st4" points="1134.54,1855.82 1134.54,2131 1152.32,2120.73 1152.32,1845.56 		"/>
		<polygon class="st4" points="1164.34,1838.62 1164.34,2113.8 1182.11,2103.53 1182.12,1828.36 		"/>
		<polygon class="st4" points="1194.13,1821.42 1194.13,2096.59 1211.92,2086.32 1211.91,1811.15 		"/>
		<polygon class="st4" points="1223.93,1804.22 1223.93,2079.39 1241.71,2069.12 1241.71,1793.95 		"/>
		<polygon class="st4" points="1253.73,1787.01 1253.72,2062.18 1271.51,2051.92 1271.51,1776.75 		"/>
		<polygon class="st4" points="1283.52,1769.81 1283.52,2044.98 1301.3,2034.72 1301.3,1759.55 		"/>
		<polygon class="st4" points="1313.31,1752.61 1313.32,2027.78 1331.09,2017.52 1331.1,1742.34 		"/>
	</g>
	<g>
		<polygon class="st6" points="628.01,1873.24 628.01,2148.41 645.8,2138.15 645.8,1862.98 		"/>
		<polygon class="st6" points="657.81,1856.04 657.81,2131.21 675.59,2120.95 675.59,1845.77 		"/>
		<polygon class="st6" points="687.61,1838.83 687.6,2114 705.38,2103.74 705.39,1828.57 		"/>
		<polygon class="st6" points="717.4,1821.63 717.41,2096.81 735.18,2086.53 735.19,1811.37 		"/>
		<polygon class="st6" points="747.2,1804.43 747.2,2079.6 764.98,2069.33 764.98,1794.16 		"/>
		<polygon class="st6" points="777,1787.23 776.99,2062.4 794.78,2052.13 794.78,1776.96 		"/>
		<polygon class="st6" points="806.79,1770.03 806.79,2045.19 824.57,2034.93 824.57,1759.76 		"/>
		<polygon class="st6" points="836.58,1752.82 836.58,2028 854.37,2017.73 854.37,1742.56 		"/>
	</g>
	<g>
		<polygon class="st5" points="628.02,1598.07 628.01,1873.24 645.8,1862.98 645.8,1587.81 		"/>
		<polygon class="st5" points="657.81,1580.86 657.81,1856.04 675.59,1845.77 675.59,1570.6 		"/>
		<polygon class="st5" points="687.6,1563.67 687.61,1838.83 705.39,1828.57 705.38,1553.4 		"/>
		<polygon class="st5" points="717.4,1546.47 717.4,1821.63 735.19,1811.37 735.19,1536.2 		"/>
		<polygon class="st5" points="747.2,1529.26 747.2,1804.43 764.98,1794.17 764.98,1519 		"/>
		<polygon class="st5" points="776.99,1512.06 777,1787.23 794.78,1776.96 794.78,1501.79 		"/>
		<polygon class="st5" points="806.79,1494.86 806.79,1770.03 824.57,1759.76 824.57,1484.59 		"/>
		<polygon class="st5" points="836.58,1477.65 836.58,1752.82 854.37,1742.56 854.37,1467.39 		"/>
	</g>
	<g>
		<polygon class="st6" points="866.32,1185.31 866.32,1460.48 884.1,1450.22 884.1,1175.04 		"/>
		<polygon class="st6" points="896.11,1168.1 896.11,1443.27 913.89,1433.01 913.9,1157.84 		"/>
		<polygon class="st6" points="925.91,1150.91 925.91,1426.07 943.69,1415.81 943.69,1140.64 		"/>
		<polygon class="st6" points="955.71,1133.7 955.7,1408.87 973.49,1398.6 973.49,1123.44 		"/>
		<polygon class="st6" points="985.5,1116.5 985.5,1391.66 1003.28,1381.41 1003.28,1106.23 		"/>
		<polygon class="st6" points="1015.3,1099.3 1015.3,1374.47 1033.08,1364.2 1033.08,1089.03 		"/>
		<polygon class="st6" points="1045.09,1082.09 1045.09,1357.26 1062.88,1347 1062.88,1071.83 		"/>
		<polygon class="st6" points="1074.89,1064.89 1074.89,1340.06 1092.67,1329.79 1092.67,1054.63 		"/>
	</g>
	<g>
		<polygon class="st4" points="1092.67,1880.14 854.37,1742.56 854.37,1763.09 1092.67,1900.68 		"/>
		<polygon class="st4" points="1092.67,1914.55 854.37,1776.96 854.37,1797.5 1092.67,1935.08 		"/>
		<polygon class="st4" points="1092.67,1948.95 854.37,1811.36 854.37,1831.9 1092.67,1969.48 		"/>
		<polygon class="st4" points="1092.67,1983.36 854.37,1845.77 854.37,1866.31 1092.67,2003.89 		"/>
		<polygon class="st4" points="1092.67,2017.76 854.37,1880.17 854.36,1900.71 1092.67,2038.29 		"/>
		<polygon class="st4" points="1092.67,2052.17 854.37,1914.59 854.37,1935.12 1092.67,2072.7 		"/>
		<polygon class="st4" points="1092.67,2086.58 854.37,1948.99 854.37,1969.52 1092.67,2107.11 		"/>
		<polygon class="st4" points="1092.68,2120.98 854.37,1983.39 854.37,2003.93 1092.68,2141.51 		"/>
	</g>
	<g>
		<polygon class="st4" points="2284.2,1206.01 2045.89,1068.43 2045.89,1088.97 2284.19,1226.55 		"/>
		<polygon class="st4" points="2284.19,1240.42 2045.89,1102.83 2045.89,1123.37 2284.19,1260.95 		"/>
		<polygon class="st4" points="2284.19,1274.82 2045.89,1137.24 2045.89,1157.77 2284.19,1295.35 		"/>
		<polygon class="st4" points="2284.19,1309.23 2045.89,1171.65 2045.89,1192.18 2284.19,1329.76 		"/>
		<polygon class="st4" points="2284.19,1343.63 2045.89,1206.05 2045.89,1226.58 2284.19,1364.17 		"/>
		<polygon class="st4" points="2284.19,1378.03 2045.89,1240.45 2045.89,1260.99 2284.19,1398.57 		"/>
		<polygon class="st4" points="2284.19,1412.44 2045.88,1274.86 2045.89,1295.4 2284.19,1432.98 		"/>
		<polygon class="st4" points="2284.19,1446.85 2045.89,1309.26 2045.89,1329.8 2284.19,1467.38 		"/>
	</g>
	<g>
		<polygon class="st4" points="1807.59,1742.55 1569.28,1604.97 1569.28,1625.51 1807.59,1763.09 		"/>
		<polygon class="st4" points="1807.59,1776.96 1569.28,1639.37 1569.28,1659.91 1807.59,1797.49 		"/>
		<polygon class="st4" points="1807.59,1811.36 1569.28,1673.78 1569.28,1694.32 1807.59,1831.9 		"/>
		<polygon class="st4" points="1807.59,1845.77 1569.28,1708.19 1569.28,1728.72 1807.59,1866.31 		"/>
		<polygon class="st4" points="1807.59,1880.17 1569.28,1742.58 1569.28,1763.13 1807.58,1900.71 		"/>
		<polygon class="st4" points="1807.59,1914.58 1569.28,1776.99 1569.28,1797.53 1807.59,1935.12 		"/>
		<polygon class="st4" points="1807.59,1948.99 1569.28,1811.4 1569.28,1831.93 1807.59,1969.52 		"/>
		<polygon class="st4" points="1807.59,1983.39 1569.28,1845.8 1569.28,1866.34 1807.59,2003.92 		"/>
	</g>
	<g>
		<polygon class="st4" points="1330.97,930.84 1092.67,793.26 1092.67,813.79 1330.97,951.37 		"/>
		<polygon class="st4" points="1330.97,965.25 1092.67,827.66 1092.68,848.19 1330.98,985.77 		"/>
		<polygon class="st4" points="1330.98,999.65 1092.67,862.06 1092.67,882.6 1330.98,1020.18 		"/>
		<polygon class="st4" points="1330.97,1034.05 1092.67,896.47 1092.67,917 1330.98,1054.59 		"/>
		<polygon class="st4" points="1330.98,1068.46 1092.67,930.88 1092.67,951.4 1330.97,1088.99 		"/>
		<polygon class="st4" points="1330.98,1102.87 1092.68,965.28 1092.67,985.81 1330.98,1123.39 		"/>
		<polygon class="st4" points="1330.98,1137.27 1092.67,999.68 1092.67,1020.22 1330.97,1157.8 		"/>
		<polygon class="st4" points="1330.97,1171.68 1092.67,1034.09 1092.68,1054.62 1330.98,1192.21 		"/>
	</g>
	<g>
		<polygon class="st4" points="1092.67,793.26 854.37,655.67 854.37,676.2 1092.67,813.79 		"/>
		<polygon class="st4" points="1092.67,827.66 854.37,690.07 854.37,710.61 1092.68,848.19 		"/>
		<polygon class="st4" points="1092.68,862.07 854.37,724.48 854.37,745.02 1092.67,882.6 		"/>
		<polygon class="st4" points="1092.67,896.47 854.37,758.88 854.37,779.42 1092.67,917 		"/>
		<polygon class="st4" points="1092.67,930.88 854.37,793.29 854.37,813.83 1092.67,951.4 		"/>
		<polygon class="st4" points="1092.68,965.28 854.37,827.7 854.37,848.23 1092.67,985.81 		"/>
		<polygon class="st4" points="1092.67,999.69 854.36,862.1 854.37,882.63 1092.67,1020.22 		"/>
		<polygon class="st4" points="1092.67,1034.09 854.37,896.5 854.37,917.04 1092.68,1054.62 		"/>
	</g>
	<g>
		<polygon class="st4" points="1122.52,2413.1 1122.53,2158.47 1104.74,2148.2 1104.74,2423.37 		"/>
		<polygon class="st4" points="1152.32,2395.9 1152.32,2175.67 1134.54,2165.4 1134.54,2406.16 		"/>
		<polygon class="st4" points="1182.12,2378.69 1182.12,2192.87 1164.33,2182.6 1164.34,2388.97 		"/>
		<polygon class="st4" points="1211.91,2361.49 1211.91,2210.07 1194.13,2199.81 1194.13,2371.76 		"/>
		<polygon class="st4" points="1241.71,2344.29 1241.71,2227.27 1223.93,2217.01 1223.92,2354.56 		"/>
		<polygon class="st4" points="1271.51,2327.09 1271.5,2244.48 1253.72,2234.21 1253.72,2337.35 		"/>
		<polygon class="st4" points="1301.3,2309.89 1301.3,2261.68 1283.52,2251.41 1283.52,2320.15 		"/>
		<polygon class="st4" points="1331.1,2292.68 1331.1,2278.88 1313.31,2268.62 1313.32,2302.95 		"/>
	</g>
	<g>
		<polygon class="st6" points="1581.23,786.36 1569.28,793.26 1569.28,813.79 1599.01,796.62 		"/>
		<polygon class="st6" points="1611.02,803.56 1569.28,827.66 1569.28,848.19 1628.8,813.82 		"/>
		<polygon class="st6" points="1640.82,820.76 1569.28,862.06 1569.28,882.6 1658.6,831.03 		"/>
		<polygon class="st6" points="1899.94,705.56 1569.28,896.47 1569.28,917 1917.72,715.83 		"/>
		<polygon class="st6" points="1873.16,755.43 1569.28,930.87 1569.28,951.4 1890.95,765.7 		"/>
		<polygon class="st6" points="1730.2,872.37 1569.28,965.28 1569.28,985.81 1747.99,882.64 		"/>
		<polygon class="st6" points="1760.01,889.57 1569.28,999.69 1569.28,1020.21 1777.79,899.84 		"/>
		<polygon class="st6" points="1807.59,917.04 1789.8,906.77 1569.28,1034.09 1569.28,1054.62 		"/>
	</g>
	<g>
		<polygon class="st6" points="1330.97,930.84 1569.28,793.26 1569.28,813.79 1330.97,951.37 		"/>
		<polygon class="st6" points="1330.98,965.25 1569.28,827.66 1569.28,848.19 1330.98,985.77 		"/>
		<polygon class="st6" points="1330.97,999.65 1569.28,862.06 1569.28,882.6 1330.98,1020.18 		"/>
		<polygon class="st6" points="1330.97,1034.05 1569.28,896.47 1569.28,917 1330.98,1054.59 		"/>
		<polygon class="st6" points="1330.98,1068.46 1569.28,930.87 1569.28,951.4 1330.97,1088.99 		"/>
		<polygon class="st6" points="1330.98,1102.87 1569.28,965.28 1569.28,985.81 1330.98,1123.4 		"/>
		<polygon class="st6" points="1330.98,1137.27 1569.28,999.69 1569.28,1020.22 1330.97,1157.8 		"/>
		<polygon class="st6" points="1330.97,1171.68 1569.28,1034.09 1569.28,1054.62 1330.98,1192.21 		"/>
	</g>
	<g>
		<polygon class="st6" points="616.07,793.26 854.37,655.67 854.37,676.2 616.07,813.79 		"/>
		<polygon class="st6" points="616.06,827.66 854.37,690.08 854.37,710.61 616.06,848.2 		"/>
		<polygon class="st6" points="616.07,862.07 854.37,724.48 854.37,745.02 616.06,882.6 		"/>
		<polygon class="st6" points="616.07,896.47 854.37,758.88 854.37,779.42 616.07,917 		"/>
		<polygon class="st6" points="415.09,1046.91 854.37,793.29 854.37,813.83 415.09,1067.45 		"/>
		<polygon class="st6" points="415.09,1081.32 854.37,827.7 854.37,848.23 415.09,1101.85 		"/>
		<polygon class="st6" points="246.77,1212.9 854.37,862.1 854.37,882.63 246.77,1233.44 		"/>
		<polygon class="st6" points="616.07,1034.09 854.37,896.5 854.37,917.04 616.07,1054.63 		"/>
	</g>
	<g>
		<polygon class="st4" points="1330.98,641.87 1092.67,779.46 1092.67,793.26 1098.5,796.63 1330.98,662.4 		"/>
		<polygon class="st4" points="1330.98,676.28 1110.51,803.56 1128.3,813.83 1330.98,696.81 		"/>
		<polygon class="st4" points="1330.98,710.68 1140.31,820.76 1158.09,831.03 1330.97,731.22 		"/>
		<polygon class="st4" points="1330.97,745.09 1170.11,837.97 1187.9,848.24 1330.98,765.62 		"/>
		<polygon class="st4" points="1330.98,779.49 1199.91,855.17 1217.69,865.44 1330.98,800.03 		"/>
		<polygon class="st4" points="1424.81,759.73 1229.7,872.37 1247.49,882.64 1424.81,780.25 		"/>
		<polygon class="st4" points="1330.98,848.31 1259.5,889.58 1277.28,899.84 1330.98,868.84 		"/>
		<polygon class="st4" points="1330.98,903.24 1330.98,882.71 1289.29,906.77 1307.08,917.04 		"/>
	</g>
	<g>
		<polygon class="st4" points="633.89,769.21 604.17,752.05 604.17,772.59 616.1,779.48 		"/>
		<polygon class="st4" points="604.16,717.64 604.16,738.18 645.9,762.28 663.68,752.01 		"/>
		<polygon class="st4" points="604.16,683.24 604.16,703.77 675.7,745.07 693.49,734.81 		"/>
		<polygon class="st4" points="604.16,648.83 604.16,669.37 705.49,727.87 723.27,717.6 		"/>
		<polygon class="st4" points="753.07,700.4 604.15,614.43 604.15,634.96 735.29,710.67 		"/>
		<polygon class="st4" points="604.14,580.02 604.15,600.55 765.08,693.47 782.87,683.2 		"/>
		<polygon class="st4" points="812.66,666 604.14,545.6 604.14,566.14 794.87,676.26 		"/>
		<polygon class="st4" points="604.14,525.07 604.14,531.73 824.67,659.06 842.46,648.79 604.08,511.15 		"/>
	</g>
	<g>
		<polygon class="st5" points="1330.97,1206.01 1569.28,1068.43 1569.27,1088.97 1330.97,1226.55 		"/>
		<polygon class="st5" points="1330.97,1240.42 1569.27,1102.83 1569.27,1123.37 1330.97,1260.95 		"/>
		<polygon class="st5" points="1330.97,1274.82 1941.62,922.26 1941.62,942.8 1330.97,1295.36 		"/>
		<polygon class="st5" points="1330.98,1309.23 1569.28,1171.64 1569.27,1192.18 1330.98,1329.76 		"/>
		<polygon class="st5" points="1330.97,1343.63 1569.28,1206.05 1569.28,1226.58 1330.98,1364.16 		"/>
		<polygon class="st5" points="1330.97,1378.04 1569.27,1240.45 1569.27,1260.99 1330.97,1398.57 		"/>
		<polygon class="st5" points="1330.97,1412.44 1569.27,1274.86 1569.28,1295.39 1330.98,1432.99 		"/>
		<polygon class="st5" points="1330.97,1446.85 1569.28,1309.26 1569.28,1329.8 1330.97,1467.38 		"/>
	</g>
	<g>
		<polygon class="st5" points="2045.88,1591.1 2045.89,1570.58 1777.97,1725.18 1795.75,1735.44 		"/>
		<polygon class="st5" points="2045.89,1536.18 1748.17,1707.98 1765.95,1718.24 2045.88,1556.71 		"/>
		<polygon class="st5" points="2403.25,1295.46 1718.38,1690.77 1736.16,1701.04 2403.24,1315.99 		"/>
		<polygon class="st5" points="2045.89,1467.38 1688.58,1673.57 1706.36,1683.84 2045.89,1487.91 		"/>
		<polygon class="st5" points="2045.89,1432.99 1658.79,1656.36 1676.57,1666.64 2045.89,1453.52 		"/>
		<polygon class="st5" points="2045.88,1398.6 1628.99,1639.17 1646.77,1649.43 2045.89,1419.12 		"/>
		<polygon class="st5" points="2045.89,1364.19 1599.19,1621.96 1616.98,1632.23 2045.88,1384.73 		"/>
		<polygon class="st5" points="2045.89,1329.8 1569.4,1604.76 1587.18,1615.02 2045.89,1350.33 		"/>
	</g>
	<g>
		<polygon class="st4" points="1092.67,1604.97 1330.97,1467.39 1313.19,1457.12 1074.89,1594.7 		"/>
		<polygon class="st4" points="1062.87,1587.77 1301.18,1450.18 1283.4,1439.92 1045.09,1577.5 		"/>
		<polygon class="st4" points="1033.08,1570.56 1271.39,1432.98 1253.6,1422.71 1015.29,1560.3 		"/>
		<polygon class="st4" points="1003.28,1553.36 1241.59,1415.78 1223.81,1405.51 985.5,1543.1 		"/>
		<polygon class="st4" points="470.89,1826.34 1211.79,1398.58 1194,1388.31 453.11,1816.06 		"/>
		<polygon class="st4" points="943.69,1518.96 1182,1381.37 1164.22,1371.11 925.9,1508.69 		"/>
		<polygon class="st4" points="913.89,1501.75 1152.2,1364.17 1134.42,1353.9 896.11,1491.49 		"/>
		<polygon class="st4" points="884.1,1484.55 1122.4,1346.97 1104.62,1336.7 866.32,1474.29 		"/>
	</g>
</g>
</svg>
