<?xml version="1.0" encoding="UTF-8" standalone="no"?>
<svg
   xmlns:dc="http://purl.org/dc/elements/1.1/"
   xmlns:cc="http://creativecommons.org/ns#"
   xmlns:rdf="http://www.w3.org/1999/02/22-rdf-syntax-ns#"
   xmlns:svg="http://www.w3.org/2000/svg"
   xmlns="http://www.w3.org/2000/svg"
   viewBox="0 0 1066.6667 1066.6667"
   height="1066.6667"
   width="1066.6667"
   xml:space="preserve"
   id="svg2"
   version="1.1"><metadata
     id="metadata8"><rdf:RDF><cc:Work
         rdf:about=""><dc:format>image/svg+xml</dc:format><dc:type
           rdf:resource="http://purl.org/dc/dcmitype/StillImage" /></cc:Work></rdf:RDF></metadata><defs
     id="defs6" /><g
     transform="matrix(1.3333333,0,0,-1.3333333,0,1066.6667)"
     id="g10"><g
       transform="scale(0.1)"
       id="g12"><path
         id="path14"
         style="fill:#201d1d;fill-opacity:1;fill-rule:evenodd;stroke:none"
         d="M 5234.49,3287.09 V 4712.63 L 5870.59,5080 V 2207.09 L 5234.49,1840 v 734.45 712.64" /><path
         id="path16"
         style="fill:#65676d;fill-opacity:1;fill-rule:evenodd;stroke:none"
         d="m 5870.59,5080 -636.1,-367.37 -617.38,356.32 -617.11,356.3 -617.38,-356.3 -617.11,-356.32 -636.1,367.37 935.16,540 935.43,540 935.16,-540 935.43,-540" /><path
         id="path18"
         style="fill:#a4a7a8;fill-opacity:1;fill-rule:evenodd;stroke:none"
         d="m 2129.41,5080 636.1,-367.37 V 3287.09 L 3382.62,2930.77 4000,2574.45 V 1840 l -935.43,540 -935.16,540 v 1080 1080" /><path
         id="path20"
         style="fill:#201d1d;fill-opacity:1;fill-rule:evenodd;stroke:none"
         d="M 4598.4,2920 4000,2574.45 V 1840 l 598.4,345.27 V 2920" /><path
         id="path22"
         style="fill:#65676d;fill-opacity:1;fill-rule:evenodd;stroke:none"
         d="M 4000,4000 3401.6,4345.25 4000,4690.8 4598.4,4345.25 4000,4000" /><path
         id="path24"
         style="fill:#a4a7a8;fill-opacity:1;fill-rule:evenodd;stroke:none"
         d="M 3401.6,4345.25 4000,4000 v -691.08 l -598.4,345.53 v 690.8" /><path
         id="path26"
         style="fill:#201d1d;fill-opacity:1;fill-rule:evenodd;stroke:none"
         d="m 4000,4000 598.4,345.25 v -690.8 L 4000,3308.92 V 4000" /><path
         id="path28"
         style="fill:#ec1e26;fill-opacity:1;fill-rule:evenodd;stroke:none"
         d="M 4598.4,2185.27 5234.49,1840 v 2872.63 l -617.38,356.32 -617.11,356.3 -617.38,-356.3 -617.11,-356.32 V 4000 3287.09 L 3382.62,2930.77 4000,2574.45 4598.4,2920 Z m 0,1469.18 -598.4,-345.53 -598.4,345.53 v 690.8 l 598.4,345.55 598.4,-345.55 v -690.8" /></g></g></svg>