<?xml version="1.0" encoding="UTF-8" standalone="no"?>
<svg
   xmlns:dc="http://purl.org/dc/elements/1.1/"
   xmlns:cc="http://creativecommons.org/ns#"
   xmlns:rdf="http://www.w3.org/1999/02/22-rdf-syntax-ns#"
   xmlns:svg="http://www.w3.org/2000/svg"
   xmlns="http://www.w3.org/2000/svg"
   width="141.98051mm"
   height="162.39999mm"
   viewBox="0 0 141.98051 162.39999"
   version="1.1"
   id="svg886">
  <defs
     id="defs880" />
  <metadata
     id="metadata883">
    <rdf:RDF>
      <cc:Work
         rdf:about="">
        <dc:format>image/svg+xml</dc:format>
        <dc:type
           rdf:resource="http://purl.org/dc/dcmitype/StillImage" />
        <dc:title></dc:title>
      </cc:Work>
    </rdf:RDF>
  </metadata>
  <g
     id="layer1"
     transform="translate(-25.341021,-22.63771)">
    <g
       transform="matrix(0.35277776,0,0,-0.35277776,-44.779828,244.94881)"
       id="g10"
       style="opacity:1">
      <path
         id="path14"
         style="fill:#201d1d;fill-opacity:1;fill-rule:evenodd;stroke:none;stroke-width:0.1"
         d="M 523.449,328.709 V 471.263 L 587.059,508 V 220.709 L 523.449,184 v 73.445 71.264" />
      <path
         id="path16"
         style="fill:#65676d;fill-opacity:1;fill-rule:evenodd;stroke:none;stroke-width:0.1"
         d="m 587.059,508 -63.61,-36.737 -61.738,35.632 -61.711,35.63 -61.738,-35.63 -61.711,-35.632 -63.61,36.737 93.516,54 93.543,54 93.516,-54 93.543,-54" />
      <path
         id="path18"
         style="fill:#a4a7a8;fill-opacity:1;fill-rule:evenodd;stroke:none;stroke-width:0.1"
         d="m 212.941,508 63.61,-36.737 V 328.709 L 338.262,293.077 400,257.445 V 184 l -93.543,54 -93.516,54 v 108 108" />
      <path
         id="path20"
         style="fill:#201d1d;fill-opacity:1;fill-rule:evenodd;stroke:none;stroke-width:0.1"
         d="M 459.84,292 400,257.445 V 184 l 59.84,34.527 V 292" />
      <path
         id="path22"
         style="fill:#65676d;fill-opacity:1;fill-rule:evenodd;stroke:none;stroke-width:0.1"
         d="M 400,400 340.16,434.525 400,469.08 459.84,434.525 400,400" />
      <path
         id="path24"
         style="fill:#a4a7a8;fill-opacity:1;fill-rule:evenodd;stroke:none;stroke-width:0.1"
         d="M 340.16,434.525 400,400 v -69.108 l -59.84,34.553 v 69.08" />
      <path
         id="path26"
         style="fill:#201d1d;fill-opacity:1;fill-rule:evenodd;stroke:none;stroke-width:0.1"
         d="m 400,400 59.84,34.525 v -69.08 L 400,330.892 V 400" />
      <path
         id="path28"
         style="fill:#bc1439;fill-opacity:1;fill-rule:evenodd;stroke:none;stroke-width:0.1"
         d="M 459.84,218.527 523.449,184 V 471.263 L 461.711,506.895 400,542.525 338.262,506.895 276.551,471.263 V 400 328.709 L 338.262,293.077 400,257.445 459.84,292 Z m 0,146.918 -59.84,-34.553 -59.84,34.553 v 69.08 L 400,469.08 459.84,434.525 v -69.08" />
    </g>
  </g>
</svg>
