<?xml version="1.0" encoding="UTF-8"?>
<svg width="1055.1" height="889.84" fill="none" version="1.1" viewBox="0 0 1055.1 889.84" xmlns="http://www.w3.org/2000/svg" xmlns:xlink="http://www.w3.org/1999/xlink">
 <path transform="translate(-.01306 64)" d="m501.22 818.29-487.56-281.5c-17.55-10.13-17.55-35.47 0-45.6l500.72-289.1c8.15-4.7 18.18-4.7 26.33 0l500.73 289.1c17.55 10.13 17.55 35.47 0 45.6l-487.56 281.5c-16.29 9.4-36.36 9.4-52.66 0z" clip-path="url(#clipPath1557)" stroke="#d9e2ff" stroke-linecap="round" stroke-miterlimit="10"/>
 <path transform="translate(-.01306 64)" d="m504.3 782.53-430.66-248.64c-15.5-8.95-15.5-31.33 0-40.28l442.28-255.35c7.2-4.15 16.06-4.15 23.26 0l442.29 255.36c15.5 8.95 15.5 31.33 0 40.28l-430.66 248.63c-14.39 8.31-32.12 8.31-46.51 0z" clip-path="url(#clipPath1551)" stroke="#b2bfe8" stroke-linecap="round" stroke-miterlimit="10"/>
 <path transform="translate(-.01306 64)" d="m507.55 744.65-370.36-213.83c-13.33-7.7-13.33-26.94 0-34.64l380.36-219.61c6.19-3.57 13.81-3.57 20 0l380.37 219.61c13.33 7.7 13.33 26.94 0 34.64l-370.37 213.83c-12.37 7.15-27.62 7.15-40 0z" clip-path="url(#clipPath1545)" fill="#dc244c"/>
 <path transform="translate(-.01306 64)" d="m517.55 695.1-299.53-172.94c-6.67-3.85-6.67-13.47 0-17.32l304.53-175.82c3.09-1.79 6.91-1.79 10 0l304.54 175.83c6.67 3.85 6.67 13.47 0 17.32l-299.54 172.93c-6.18 3.57-13.81 3.57-20 0z" clip-path="url(#clipPath1539)" fill="#d9e2ff"/>
 <path transform="translate(-.01306 64)" d="m527.64 343c3.038 0 5.5-1.567 5.5-3.5s-2.462-3.5-5.5-3.5-5.5 1.567-5.5 3.5 2.462 3.5 5.5 3.5z" clip-path="url(#clipPath1533)" stroke="#000000" stroke-linecap="round" stroke-miterlimit="10"/>
 <path transform="translate(-.01306 64)" d="m798.27 472.43h-55.54l-200.18-115.57c-9.28-5.36-20.72-5.36-30 0l-200.18 115.57h-55.53l0.02 40.22c-0.17 5.22 2.32 10.51 7.48 13.5l248.21 143.31c9.28 5.36 20.72 5.36 30 0l248.22-143.31c5-2.89 7.5-7.94 7.5-12.99z" clip-path="url(#clipPath1527)" fill="#b2bfe8"/>
 <g transform="translate(-.01306 64)" clip-path="url(#clipPath1521)" stroke="#000000" stroke-linecap="round" stroke-miterlimit="10">
  <path d="m530.56 363.37 33.54-19.36c2-1.15 4.5 0.29 4.5 2.6v38.73c0 2.14-1.14 4.12-2.99 5.19l-33.54 19.41c-2 1.16-4.5-0.29-4.5-2.6v-38.78c-0.01-2.13 1.13-4.11 2.99-5.19z"/>
  <path d="m524.55 363.37-33.54-19.36c-2-1.15-4.5 0.29-4.5 2.6v38.73c0 2.14 1.14 4.12 2.99 5.19l33.54 19.41c2 1.16 4.5-0.29 4.5-2.6v-38.78c0.01-2.13-1.13-4.11-2.99-5.19z"/>
  <path d="m564.09 338.82-33.54-19.36c-1.86-1.07-4.14-1.07-6 0l-33.54 19.36c-2 1.15-2 4.04 0 5.2l33.54 19.36c1.86 1.07 4.14 1.07 6 0l33.54-19.36c2-1.16 2-4.05 0-5.2z"/>
 </g>
 <path transform="translate(-.01306 64)" d="m512.55 628.73-248.21-143.31c-10-5.77-10-20.21 0-25.98l248.21-143.31c9.28-5.36 20.72-5.36 30 0l248.22 143.31c10 5.77 10 20.21 0 25.98l-248.22 143.31c-9.28 5.36-20.71 5.36-30 0z" clip-path="url(#clipPath1515)" fill="#d9e2ff"/>
 <path transform="translate(-.01306 64)" d="m513.8 615.77-227.63-131.43c-9.17-5.29-9.17-18.53 0-23.83l227.63-131.42c8.51-4.91 19-4.91 27.51 0l227.63 131.42c9.17 5.29 9.17 18.53 0 23.83l-227.63 131.43c-8.51 4.91-19 4.91-27.51 0z" clip-path="url(#clipPath1509)" fill="#ffffff"/>
 <g fill="#b2bfe8">
  <path transform="translate(-.01306 64)" d="m670.43 493.04-161.05-92.59-106.83 61.67 125 72.17 53.58-30.93 36.06 20.82z" clip-path="url(#clipPath1503)"/>
  <path transform="translate(-.01306 64)" d="m598.98 328.4 53.58-31.24-125.01-72.17 0.09 61.91z" clip-path="url(#clipPath1497)"/>
  <path transform="translate(-.01306 64)" d="m463.44 347.43-60.885-50.27 125.01-72.17 0.08 61.91z" clip-path="url(#clipPath1491)"/>
 </g>
 <path transform="translate(-.01306 64)" d="m652.56 297.16v164.96l-53.22 30.93-0.36-164.65z" clip-path="url(#clipPath1485)" fill="#24386c"/>
 <path transform="translate(-.01306 64)" d="m402.55 297.16v144.34l125.09 72.17v-61.91l-71.51-41.19-0.26-82.33z" clip-path="url(#clipPath1479)" fill="#d9e2ff"/>
 <path transform="translate(-.01306 64)" d="m581.13 420.88-53.49 30.88v61.91l53.49-30.93z" clip-path="url(#clipPath1473)" fill="#24386c"/>
 <path transform="translate(-.01306 64)" d="m599.34 493.05-18.21-10.31v-61.86l-53.49 30.88-71.51-41.19-0.26-82.33 71.77-41.34 71.34 41.5z" clip-path="url(#clipPath1467)" fill="#dc244c"/>
 <path transform="translate(-.01306 64)" d="m568.59 347.43h-82.08v47.39l41.04 23.75z" clip-path="url(#clipPath1461)" fill="#d9e2ff"/>
 <path transform="translate(-.01306 64)" d="m670.43 493.04-53.59 30.94v20.62l53.57-30.83z" clip-path="url(#clipPath1455)" fill="#d9e2ff"/>
 <path transform="translate(-.01306 64)" d="m616.84 523.98-35.71-20.62v20.62l35.71 20.62z" clip-path="url(#clipPath1449)" fill="#ebf1ff"/>
 <path transform="translate(-.01306 64)" d="m581.13 503.36-53.58 30.93 0.09 20.67 53.49-30.98z" clip-path="url(#clipPath1443)" fill="#d9e2ff"/>
 <path transform="translate(-.01306 64)" d="m402.55 462.12 125 72.17 0.09 20.67-125.08-72.22z" clip-path="url(#clipPath1437)" fill="#ebf1ff"/>
 <path transform="translate(-.01306 64)" d="m378.43 249.55-41.04-23.69-41.04 23.69 41.04 71.14z" clip-path="url(#clipPath1431)" fill="#ebf1ff"/>
 <path transform="translate(-.01306 64)" d="m337.39 273.24 41.04-23.69v47.39l-41.04 23.75z" clip-path="url(#clipPath1425)" fill="#b2bfe8"/>
 <path transform="translate(-.01306 64)" d="m337.39 273.24-41.04-23.69v47.39l41.04 23.75z" clip-path="url(#clipPath1419)" fill="#d9e2ff"/>
 <path transform="translate(-.01306 64)" d="m854.87 331.5-41.04-23.69-41.04 23.69 38.04 57.65z" clip-path="url(#clipPath1413)" fill="#ebf1ff"/>
 <path transform="translate(-.01306 64)" d="m813.83 355.2 41.04-23.7v47.39l-41.04 23.75z" clip-path="url(#clipPath1407)" fill="#b2bfe8"/>
 <path transform="translate(-.01306 64)" d="m813.83 355.2-41.04-23.7v47.39l41.04 23.75z" clip-path="url(#clipPath1401)" fill="#d9e2ff"/>
 <path transform="translate(-.01306 64)" d="m743.56 268.38-41.04-23.69-41.04 23.69 41.04 71.14z" clip-path="url(#clipPath1395)" fill="#ebf1ff"/>
 <path transform="translate(-.01306 64)" d="m702.53 292.07 41.03-23.69 0.01 47.39-41.05 23.75z" clip-path="url(#clipPath1389)" fill="#b2bfe8"/>
 <path transform="translate(-.01306 64)" d="m702.52 292.07-41.04-23.69v47.39l41.04 23.75z" clip-path="url(#clipPath1383)" fill="#d9e2ff"/>
 <path transform="translate(-.01306 64)" d="m785.77 353.58-41.04-23.69-41.04 23.69 41.04 71.14z" clip-path="url(#clipPath1377)" fill="#ebf1ff"/>
 <path transform="translate(-.01306 64)" d="m744.73 377.27 41.04-23.69v47.39l-41.04 23.75z" clip-path="url(#clipPath1371)" fill="#b2bfe8"/>
 <path transform="translate(-.01306 64)" d="m744.73 377.27-41.04-23.69v47.39l41.04 23.75z" clip-path="url(#clipPath1365)" fill="#d9e2ff"/>
 <path transform="translate(-.01306 64)" d="m398.95 316.62-41.04-23.69-41.04 23.69 41.04 71.14z" clip-path="url(#clipPath1359)" fill="#ebf1ff"/>
 <path transform="translate(-.01306 64)" d="m357.92 340.32 41.03-23.7v47.39l-41.04 23.75z" clip-path="url(#clipPath1353)" fill="#b2bfe8"/>
 <path transform="translate(-.01306 64)" d="m357.91 340.32-41.04-23.7v47.39l41.04 23.75z" clip-path="url(#clipPath1347)" fill="#d9e2ff"/>
 <path transform="translate(-.01306 64)" d="m851.87 391.76-41.04-23.69-41.04 23.69 41.04 71.14z" clip-path="url(#clipPath1341)" fill="#ebf1ff"/>
 <path transform="translate(-.01306 64)" d="m810.83 415.46 41.04-23.7v47.39l-41.04 23.75z" clip-path="url(#clipPath1335)" fill="#b2bfe8"/>
 <path transform="translate(-.01306 64)" d="m810.83 415.46-41.04-23.7v47.39l41.04 23.75z" clip-path="url(#clipPath1329)" fill="#d9e2ff"/>
 <path transform="translate(-.01306 64)" d="m297.88 329.1-41.04-23.69-41.04 23.69 41.04 62.089z" clip-path="url(#clipPath1323)" fill="#ebf1ff"/>
 <path transform="translate(-.01306 64)" d="m256.84 352.8 41.04-23.7v47.39l-41.04 23.75z" clip-path="url(#clipPath1317)" fill="#b2bfe8"/>
 <path transform="translate(-.01306 64)" d="m256.84 352.8-41.04-23.7v47.39l41.04 23.75z" clip-path="url(#clipPath1311)" fill="#d9e2ff"/>
 <path transform="translate(-.01306 64)" d="m234.55 570.05-41.04-23.69-41.04 23.69 41.04 71.14z" clip-path="url(#clipPath1305)" fill="#ebf1ff"/>
 <path transform="translate(-.01306 64)" d="m193.52 593.75 41.03-23.7v47.39l-41.04 23.75z" clip-path="url(#clipPath1299)" fill="#b2bfe8"/>
 <path transform="translate(-.01306 64)" d="m193.51 593.75-41.04-23.7v47.39l41.04 23.75z" clip-path="url(#clipPath1293)" fill="#d9e2ff"/>
 <path transform="translate(-.01306 64)" d="m309.67 374.96-41.04-23.7-41.04 23.7 41.04 71.14z" clip-path="url(#clipPath1287)" fill="#ebf1ff"/>
 <path transform="translate(-.01306 64)" d="m268.63 398.65 41.04-23.69v47.38l-41.04 23.76z" clip-path="url(#clipPath1281)" fill="#b2bfe8"/>
 <path transform="translate(-.01306 64)" d="m268.63 398.65-41.04-23.69v47.38l41.04 23.76z" clip-path="url(#clipPath1275)" fill="#d9e2ff"/>
 <path transform="translate(-.01306 64)" d="m330.05 577.44-41.05-23.7-41.04 23.7 41.04 71.14z" clip-path="url(#clipPath1269)" fill="#ebf1ff"/>
 <path transform="translate(-.01306 64)" d="m289.01 601.13 41.04-23.69v47.39l-41.05 23.75z" clip-path="url(#clipPath1263)" fill="#b2bfe8"/>
 <path transform="translate(-.01306 64)" d="m289 601.13-41.04-23.69v47.39l41.05 23.75z" clip-path="url(#clipPath1257)" fill="#d9e2ff"/>
 <path transform="translate(-.01306 64)" d="m416.62 642.22-41.04-23.69-41.04 23.69 41.04 71.14z" clip-path="url(#clipPath1251)" fill="#ebf1ff"/>
 <path transform="translate(-.01306 64)" d="m375.58 665.91 41.04-23.69v47.39l-41.04 23.75z" clip-path="url(#clipPath1245)" fill="#b2bfe8"/>
 <path transform="translate(-.01306 64)" d="m375.58 665.91-41.04-23.69v47.39l41.04 23.75z" clip-path="url(#clipPath1239)" fill="#d9e2ff"/>
 <path transform="translate(-.01306 64)" d="m762.11 622.16-41.04-23.69-41.04 23.69 41.04 71.14z" clip-path="url(#clipPath1233)" fill="#ebf1ff"/>
 <path transform="translate(-.01306 64)" d="m721.08 645.86 41.03-23.7 0.01 47.39-41.05 23.75z" clip-path="url(#clipPath1227)" fill="#b2bfe8"/>
 <path transform="translate(-.01306 64)" d="m721.07 645.86-41.04-23.7v47.39l41.04 23.75z" clip-path="url(#clipPath1221)" fill="#d9e2ff"/>
 <path transform="translate(-.01306 64)" d="m346.75 656.06-41.04-23.7-41.04 23.7 41.04 71.14z" clip-path="url(#clipPath1215)" fill="#ebf1ff"/>
 <path transform="translate(-.01306 64)" d="m305.71 679.75 41.04-23.69v47.39l-41.04 23.75z" clip-path="url(#clipPath1209)" fill="#b2bfe8"/>
 <path transform="translate(-.01306 64)" d="m305.71 679.75-41.04-23.69v47.39l41.04 23.75z" clip-path="url(#clipPath1203)" fill="#d9e2ff"/>
 <path transform="translate(-.01306 64)" d="m844.08 548.26-41.04-23.7-41.04 23.7 41.04 71.14z" clip-path="url(#clipPath1197)" fill="#ebf1ff"/>
 <path transform="translate(-.01306 64)" d="m803.04 571.95 41.04-23.69v47.39l-41.04 23.75z" clip-path="url(#clipPath1191)" fill="#b2bfe8"/>
 <path transform="translate(-.01306 64)" d="m803.04 571.95-41.04-23.69v47.39l41.04 23.75z" clip-path="url(#clipPath1185)" fill="#d9e2ff"/>
 <path transform="translate(-.01306 64)" d="m871.61 612.37-41.04-23.7-41.04 23.7 41.04 71.14z" clip-path="url(#clipPath1179)" fill="#ebf1ff"/>
 <path transform="translate(-.01306 64)" d="m830.57 636.06 41.04-23.69v47.39l-41.04 23.75z" clip-path="url(#clipPath1173)" fill="#b2bfe8"/>
 <path transform="translate(-.01306 64)" d="m830.57 636.06-41.04-23.69v47.39l41.04 23.75z" clip-path="url(#clipPath1167)" fill="#d9e2ff"/>
 <g transform="translate(-.01306 64)" clip-path="url(#clipPath1161)" stroke="#b2bfe8" stroke-linecap="round" stroke-miterlimit="10">
  <path d="m634.96 534.29 23.65 13.75"/>
  <path d="m599.16 534.19-46.22 26.69c-3.34 1.93-3.33 6.75 0.01 8.67l34.32 19.69"/>
  <path d="m491.84 513.5v20.79l-10.36 5.98c-3.33 1.92-3.33 6.74 0 8.66l20.69 11.94c3.34 1.93 3.33 6.75-0.01 8.67l-34.33 19.69"/>
  <path d="m438.27 482.74v20.42l-28.27 16.48c-3.32 1.93-3.31 6.73 0.02 8.65l20.51 11.84c3.31 1.91 3.34 6.68 0.06 8.63l-16.19 9.62"/>
  <path d="m420.42 472.43v20.68l-59.59 34.34"/>
  <path d="m765.71 458.65-72.44 41.82c-3.09 1.79-6.91 1.79-10 0l-7.86-4.54c-1.55-0.89-3.27-1.34-5-1.34"/>
  <path d="m652.56 462.12 59.58-34.4"/>
  <path d="m652.56 441.5 41.72-24.09"/>
  <path d="m402.56 482.74-30.71 17.73c-3.09 1.79-6.91 1.79-10 0l-25.71-14.84c-3.09-1.79-6.9-1.79-10 0l-18.88 10.89"/>
 </g>
 <path transform="translate(-.01306 64)" d="m527.56 371.12 41.03-23.69v47.39l-41.04 23.75z" clip-path="url(#clipPath1155)" fill="#b2bfe8"/>
 <g stroke-linecap="round" stroke-miterlimit="10">
  <path transform="translate(-.01306 64)" d="m402.55 462.12-12.85-7.42c-3.09-1.79-6.91-1.79-10 0l-7.85 4.53c-3.09 1.79-6.91 1.79-10 0l-36.73-21.2" clip-path="url(#clipPath1149)" stroke="#b2bfe8"/>
  <g transform="translate(-.01306 64)" clip-path="url(#clipPath1143)" stroke="#ffffff">
   <path d="m534.77 369.26v42.73"/>
   <path d="m541.54 365.1v42.72"/>
   <path d="m548.3 361.51v42.72"/>
   <path d="m555.07 357.9v42.72"/>
   <path d="m561.84 353.86v42.72"/>
  </g>
  <g transform="translate(-.01306 64)" clip-path="url(#clipPath1137)" stroke="#b2bfe8">
   <path d="m535.63 449.55v57.01"/>
   <path d="m543.3 445.77v56.33"/>
   <path d="m550.96 441.21v56.73"/>
   <path d="m558.63 436.54v56.76"/>
   <path d="m566.29 431.95v56.74"/>
   <path d="m573.95 427.93v56.67"/>
   <path d="m626.08 317.72v156.23"/>
   <path d="m643.63 306.77v156.78"/>
  </g>
  <path transform="translate(-.01306 64)" d="m634.85 312.11v156.84" clip-path="url(#clipPath1119)" stroke="#b2bfe8"/>
 </g>
 <path transform="translate(-.01306 64)" d="m568.59 347.43-41.04-23.7-41.04 23.7 41.04 23.69z" clip-path="url(#clipPath1107)" fill="#ffffff"/>
 <g transform="translate(-.01306 64)" clip-path="url(#clipPath1101)" stroke-linecap="round" stroke-miterlimit="10">
  <path d="m527.56 347.43v-83.68" stroke="url(#paint0_linear_1837_344)"/>
  <path d="m558.37 537.15 2.85 1.62c3.37 1.91 3.38 6.76 0.02 8.69l-26.05 14.95c-3.35 1.92-3.35 6.75 0 8.67l41.86 24.05" stroke="#b2bfe8"/>
  <path d="m402.56 420.88-23.87-13.78" stroke="#b2bfe8"/>
 </g>
 <path transform="translate(-.01306 64)" d="m209.27 394.83-41.04-23.7-41.04 23.7 41.04 71.14z" clip-path="url(#clipPath1095)" fill="#ebf1ff"/>
 <path transform="translate(-.01306 64)" d="m168.23 418.52 41.04-23.69v47.39l-41.04 23.75z" clip-path="url(#clipPath1089)" fill="#b2bfe8"/>
 <path transform="translate(-.01306 64)" d="m168.23 418.52-41.04-23.69v47.39l41.04 23.75z" clip-path="url(#clipPath1083)" fill="#d9e2ff"/>
 <path transform="translate(-.01306 64)" d="m938.23 437.62-41.04-23.7-41.04 23.7 41.04 71.14z" clip-path="url(#clipPath1077)" fill="#ebf1ff"/>
 <path transform="translate(-.01306 64)" d="m897.19 461.31 41.04-23.69v47.38l-41.04 23.76z" clip-path="url(#clipPath1071)" fill="#b2bfe8"/>
 <path transform="translate(-.01306 64)" d="m897.18 461.31-41.03-23.69-0.01 47.38 41.05 23.76z" clip-path="url(#clipPath1065)" fill="#d9e2ff"/>
 <path transform="translate(-.01306 64)" d="m486.51 701.91-41.04-23.69-41.04 23.69 41.04 71.14z" clip-path="url(#clipPath1059)" fill="#ebf1ff"/>
 <path transform="translate(-.01306 64)" d="m445.47 725.6 41.04-23.69v47.39l-41.04 23.75z" clip-path="url(#clipPath1053)" fill="#b2bfe8"/>
 <path transform="translate(-.01306 64)" d="m445.47 725.6-41.04-23.69v47.39l41.04 23.75z" clip-path="url(#clipPath1047)" fill="#d9e2ff"/>
 <path transform="translate(-.01306 64)" d="m699.58 693.63-41.04-23.69-41.04 23.69 41.04 71.14z" clip-path="url(#clipPath1041)" fill="#ebf1ff"/>
 <path transform="translate(-.01306 64)" d="m658.54 717.33 41.04-23.7v47.39l-41.04 23.75z" clip-path="url(#clipPath1035)" fill="#b2bfe8"/>
 <path transform="translate(-.01306 64)" d="m658.54 717.33-41.04-23.7v47.39l41.04 23.75z" clip-path="url(#clipPath1029)" fill="#d9e2ff"/>
 <path transform="translate(-.01306 64)" d="m943.68 535.29-41.04-23.69-41.04 23.69 41.04 71.14z" clip-path="url(#clipPath1023)" fill="#ebf1ff"/>
 <path transform="translate(-.01306 64)" d="m902.64 558.99 41.04-23.7v47.39l-41.04 23.75z" clip-path="url(#clipPath1017)" fill="#b2bfe8"/>
 <path transform="translate(-.01306 64)" d="m902.64 558.99-41.04-23.7v47.39l41.04 23.75z" clip-path="url(#clipPath1011)" fill="#d9e2ff"/>
 <path transform="translate(-.01306 64)" d="m160.47 482.88-41.05-23.7-41.03 23.7 41.03 71.14z" clip-path="url(#clipPath1005)" fill="#ebf1ff"/>
 <path transform="translate(-.01306 64)" d="m119.43 506.57 41.04-23.69v47.39l-41.05 23.75z" clip-path="url(#clipPath999)" fill="#b2bfe8"/>
 <path transform="translate(-.01306 64)" d="m119.42 506.57-41.03-23.69-0.01 47.39 41.05 23.75z" clip-path="url(#clipPath993)" fill="#d9e2ff"/>
 <path transform="translate(-.01306 64)" d="m585.09 747.44-41.04-23.69-41.04 23.69 41.04 71.14z" clip-path="url(#clipPath987)" fill="#ebf1ff"/>
 <path transform="translate(-.01306 64)" d="m544.05 771.14 41.04-23.7v47.39l-41.04 23.75z" clip-path="url(#clipPath981)" fill="#b2bfe8"/>
 <path transform="translate(-.01306 64)" d="m544.04 771.14-41.03-23.7-0.01 47.39 41.05 23.75z" clip-path="url(#clipPath975)" fill="#d9e2ff"/>
 <path transform="translate(-.01306 64)" d="m416.62 741.33-41.04-23.69-41.04 23.69 41.04 71.14z" clip-path="url(#clipPath969)" fill="#ebf1ff"/>
 <path transform="translate(-.01306 64)" d="m375.58 765.03 41.04-23.7v47.39l-41.04 23.75z" clip-path="url(#clipPath963)" fill="#b2bfe8"/>
 <path transform="translate(-.01306 64)" d="m375.58 765.03-41.04-23.7v47.39l41.04 23.75z" clip-path="url(#clipPath957)" fill="#d9e2ff"/>
 <g transform="translate(-.01306 64)" clip-path="url(#clipPath951)" stroke="#b2bfe8" stroke-linecap="round" stroke-miterlimit="10">
  <path d="m558.37 516.68v20.47"/>
  <path d="m599.16 513.82v20.37"/>
  <path d="m634.96 513.82v20.47"/>
  <path d="m558.18 347.43-30.63-17.68-30.62 17.68 30.62 17.68z"/>
  <path d="m546.91 347.43-19.36-11.18-19.35 11.18 19.35 11.17z"/>
  <path d="m537.42 347.43-9.87-5.7-9.86 5.7 9.86 5.69z"/>
  <path d="m617.3 323.6v154.81"/>
  <path d="m608.53 328.4v155.28"/>
  <path d="m652.56 523.83 23.65 13.76"/>
  <path d="m652.56 503.36v20.47"/>
  <path d="m482.07 508.08v20.68l-59.59 34.34"/>
  <path d="m417.62 453.42-59.71-34.47"/>
 </g>
 <path transform="translate(-.01306 64)" d="m527.64 220.11c30.42 0 55.08-15.768 55.08-35.22 0-19.451-24.66-35.22-55.08-35.22s-55.08 15.769-55.08 35.22c0 19.452 24.66 35.22 55.08 35.22z" clip-path="url(#clipPath945)" fill="#24386c" opacity=".15"/>
 <path transform="translate(-.01306 64)" d="m527.56 215.15v-30.935" clip-path="url(#clipPath939)" opacity=".58297" stroke="url(#linearGradient898)" stroke-linecap="round" stroke-miterlimit="10"/>
 <path transform="translate(-.01306 64)" d="m527.64 162.47c25.53 0 47 11.06 53.24 26.05 1.2-2.87 1.84-5.89 1.84-9 0-19.36-24.66-35.05-55.08-35.05s-55.08 15.69-55.08 35.05c0 3.11 0.65 6.13 1.84 9 6.24-14.99 27.71-26.05 53.24-26.05z" clip-path="url(#clipPath933)" fill="#24386c"/>
 <path transform="translate(-.01306 64)" d="m527.64 147.63c-30.42 0-59.23 18.51-59.23 37.87s28.81 37.87 59.23 37.87 59.23-18.51 59.23-37.87-28.81-37.87-59.23-37.87zm0 67.52c-27.15 0-49.16-13.48-49.16-30.1s22.01-30.1 49.16-30.1 49.16 13.48 49.16 30.1-22.01 30.1-49.16 30.1z" clip-path="url(#clipPath927)" fill="#ffffff"/>
 <g transform="translate(-.01306 64)" clip-path="url(#clipPath921)" stroke="#ffffff" stroke-miterlimit="10">
  <path d="m527.64 206.34c19.076 0 34.54-9.532 34.54-21.29s-15.464-21.29-34.54-21.29-34.54 9.532-34.54 21.29 15.464 21.29 34.54 21.29z" opacity=".2"/>
  <path d="m527.64 197.16c10.852 0 19.65-5.421 19.65-12.11 0-6.688-8.798-12.11-19.65-12.11s-19.65 5.422-19.65 12.11c0 6.689 8.798 12.11 19.65 12.11z" opacity=".2"/>
  <path d="m527.64 188.56c3.143 0 5.69-1.571 5.69-3.51 0-1.938-2.547-3.51-5.69-3.51-3.142 0-5.69 1.572-5.69 3.51 0 1.939 2.548 3.51 5.69 3.51z" opacity=".2"/>
 </g>
 <path transform="translate(-.01306 64)" d="m527.6 222.06v8.29" clip-path="url(#clipPath915)" stroke="#d9e2ff" stroke-linecap="round" stroke-miterlimit="10"/>
 <path transform="translate(-.01306 64)" d="m642.49 186.2-0.02-2.45h-7.77l-97.15-56.08c-6.18-3.57-13.81-3.57-20 0l-97.14 56.08h-7.85v10.31c0 1.68 0.42 3.37 1.25 4.87 0.83 1.51 2.08 2.83 3.75 3.79l100 57.74c6.19 3.57 13.81 3.57 20 0l100-57.74c3.33-1.92 5-5.29 5-8.66zm-114.94-36.19c30.43 0 55.09 15.69 55.09 35.05s-24.66 35.06-55.09 35.06c-30.42 0-55.08-15.7-55.08-35.06s24.66-35.05 55.08-35.05z" clip-path="url(#clipPath909)" fill="#24386c"/>
 <path transform="translate(-.01306 64)" d="m642.47 183.75c-0.37-2.9-2.01-5.68-4.91-7.35l-100.01-57.73c-6.18-3.57-13.81-3.57-20 0l-99.99 57.73c-2.91 1.67-4.54 4.44-4.91 7.35-0.06 0.43-0.09 0.87-0.09 1.31 0 3.37 1.66 6.74 5 8.66l100 57.74c6.19 3.57 13.81 3.57 20 0l100-57.74c2.95-1.7 4.6-4.55 4.93-7.52 0.09-0.81 0.09-1.63-0.02-2.45zm-114.92 36.37c-30.42 0-55.08-15.7-55.08-35.06s24.66-35.05 55.08-35.05c30.43 0 55.09 15.69 55.09 35.05s-24.66 35.06-55.09 35.06z" clip-path="url(#clipPath903)" fill="#dc244c"/>
 <path transform="translate(-.01306 64)" d="m479.07 180.86c3.63-14.43 23.99-25.46 48.57-25.46s44.94 11.04 48.57 25.46h0.11c-3.33-14.65-23.85-25.92-48.68-25.92s-45.35 11.28-48.68 25.92z" clip-path="url(#clipPath897)" fill="#24386c"/>
 <path transform="translate(-.01306 64)" d="m527.64 223.37c32.712 0 59.23-16.955 59.23-37.87s-26.518-37.87-59.23-37.87-59.23 16.955-59.23 37.87 26.518 37.87 59.23 37.87z" clip-path="url(#clipPath891)" opacity=".15" stroke="#24386c" stroke-miterlimit="10"/>
 <g transform="translate(-.01306 64)" clip-path="url(#clipPath885)" stroke-linecap="round" stroke-miterlimit="10">
  <path d="m527.55 183.88v-155.29" stroke="url(#linearGradient693)"/>
  <path d="m532.3 130.57v-9.91" stroke="url(#paint2_linear_1837_344)"/>
  <path d="m522.66 145.52v-16.61" stroke="url(#paint3_linear_1837_344)"/>
  <path d="m532.3 278.5v6.847" stroke="url(#paint4_linear_1837_344)"/>
  <path d="m523.3 287.5v14.07" stroke="url(#paint5_linear_1837_344)"/>
  <path d="m523.3 327.5v14.07" stroke="url(#paint6_linear_1837_344)"/>
  <path d="m532.3 179v-12.74" stroke="url(#paint7_linear_1837_344)"/>
  <path d="m532.3 320.69v-11.189" stroke="url(#paint8_linear_1837_344)"/>
  <path d="m522.66 111v-7.98" stroke="url(#paint9_linear_1837_344)"/>
 </g>
 <path transform="translate(-.01306)" d="m568.59 23.69-41.04-23.69-41.04 23.69 41.04 71.14z" clip-path="url(#clipPath1131)" fill="#ebf1ff"/>
 <path transform="translate(-.01306)" d="m527.56 47.39 41.03-23.7v47.39l-41.04 23.75z" clip-path="url(#clipPath1125)" fill="#b2bfe8"/>
 <path transform="translate(-.01306)" d="m527.55 47.39-41.04-23.7v47.39l41.04 23.75z" clip-path="url(#clipPath1113)" fill="#d9e2ff"/>
 <path transform="translate(-.01306 64)" d="m575.56 202.25c-9.45 10.66-27.31 17.77-47.92 17.77s-38.65-7.1-48.09-17.77h-0.41c9.33 10.91 27.51 18.413 48.41 18.413s39.08-7.4928 48.41-18.413z" clip-path="url(#clipPath879)" fill="#24386c"/>
 <g stroke-linecap="round" stroke-miterlimit="10">
  <path transform="translate(-.01306 64)" d="m523.3 266.01v5.54" clip-path="url(#clipPath873)" stroke="url(#paint10_linear_1837_344)"/>
  <path transform="translate(-.01306 39.455)" d="m532.3 102.16v-7.2401" clip-path="url(#clipPath867)" stroke="url(#paint11_linear_1837_344)"/>
  <path transform="translate(-9.6531 20.85)" d="m532.3 102.16v-5.2401" clip-path="url(#clipPath867-2)" stroke="url(#paint11_linear_1837_344-3)"/>
  <path transform="translate(-.01306 59.455)" d="m532.3 102.16v-5.2401" clip-path="url(#clipPath867-5)" stroke="url(#paint11_linear_1837_344-3)"/>
 </g>
 <defs>
  <linearGradient id="paint0_linear_1837_344" x1="527.51" x2="527.51" y1="287.5" y2="336" gradientUnits="userSpaceOnUse">
   <stop stop-color="#fff" offset="0"/>
   <stop stop-color="#B2BFE8" offset="1"/>
  </linearGradient>
  <linearGradient id="paint1_linear_1837_344" x1="527.5" x2="527.5" y1="169" y2="124.5" gradientUnits="userSpaceOnUse">
   <stop stop-color="#fff" offset="0"/>
   <stop stop-color="#B2BFE8" offset="1"/>
  </linearGradient>
  <linearGradient id="paint2_linear_1837_344" x1="532.3" x2="532.3" y1="129.11" y2="122.07" gradientUnits="userSpaceOnUse">
   <stop stop-color="#fff" offset="0"/>
   <stop stop-color="#B2BFE8" stop-opacity="0" offset="1"/>
  </linearGradient>
  <linearGradient id="paint3_linear_1837_344" x1="522.66" x2="522.66" y1="143.08" y2="131.27" gradientUnits="userSpaceOnUse">
   <stop stop-color="#fff" offset="0"/>
   <stop stop-color="#B2BFE8" stop-opacity="0" offset="1"/>
  </linearGradient>
  <linearGradient id="paint4_linear_1837_344" x1="532.3" x2="532.3" y1="282.82" y2="279.22" gradientUnits="userSpaceOnUse">
   <stop stop-color="#fff" offset="0"/>
   <stop stop-color="#B2BFE8" stop-opacity="0" offset="1"/>
  </linearGradient>
  <linearGradient id="paint5_linear_1837_344" x1="523.3" x2="523.3" y1="299.5" y2="289.5" gradientUnits="userSpaceOnUse">
   <stop stop-color="#fff" offset="0"/>
   <stop stop-color="#B2BFE8" stop-opacity="0" offset="1"/>
  </linearGradient>
  <linearGradient id="paint6_linear_1837_344" x1="523.3" x2="523.3" y1="331.5" y2="342" gradientUnits="userSpaceOnUse">
   <stop stop-color="#fff" stop-opacity="0" offset="0"/>
   <stop stop-color="#B2BFE8" offset="1"/>
  </linearGradient>
  <linearGradient id="paint7_linear_1837_344" x1="531.94" x2="531.94" y1="174.2" y2="167.58" gradientUnits="userSpaceOnUse">
   <stop stop-color="#fff" offset="0"/>
   <stop stop-color="#B2BFE8" stop-opacity="0" offset="1"/>
  </linearGradient>
  <linearGradient id="paint8_linear_1837_344" x1="532.3" x2="532.3" y1="318.82" y2="312" gradientUnits="userSpaceOnUse">
   <stop stop-color="#fff" offset="0"/>
   <stop stop-color="#B2BFE8" stop-opacity="0" offset="1"/>
  </linearGradient>
  <linearGradient id="paint9_linear_1837_344" x1="522.66" x2="522.66" y1="104.03" y2="110.11" gradientUnits="userSpaceOnUse">
   <stop stop-color="#fff" offset="0"/>
   <stop stop-color="#B2BFE8" offset="1"/>
  </linearGradient>
  <linearGradient id="paint10_linear_1837_344" x1="523.3" x2="523.3" y1="269.5" y2="266.37" gradientUnits="userSpaceOnUse">
   <stop stop-color="#fff" offset="0"/>
   <stop stop-color="#B2BFE8" stop-opacity="0" offset="1"/>
  </linearGradient>
  <linearGradient id="paint11_linear_1837_344" x1="532.3" x2="532.3" y1="97.5" y2="99.54" gradientUnits="userSpaceOnUse">
   <stop stop-color="#fff" offset="0"/>
   <stop stop-color="#B2BFE8" offset="1"/>
  </linearGradient>
  <linearGradient id="linearGradient898" x1="527.5" x2="527.5" y1="169" y2="124.5" gradientTransform="translate(.010005 88.895)" gradientUnits="userSpaceOnUse" xlink:href="#paint1_linear_1837_344"/>
  <linearGradient id="linearGradient693" x1="527.5" x2="527.5" y1="169" y2="124.5" gradientUnits="userSpaceOnUse" xlink:href="#paint1_linear_1837_344"/>
  <clipPath id="clipPath867">
   <rect width="1055.1" height="825.84" fill="#ffffff"/>
  </clipPath>
  <clipPath id="clipPath873">
   <rect width="1055.1" height="825.84" fill="#ffffff"/>
  </clipPath>
  <clipPath id="clipPath879">
   <rect width="1055.1" height="825.84" fill="#ffffff"/>
  </clipPath>
  <clipPath id="clipPath885">
   <rect width="1055.1" height="825.84" fill="#ffffff"/>
  </clipPath>
  <clipPath id="clipPath891">
   <rect width="1055.1" height="825.84" fill="#ffffff"/>
  </clipPath>
  <clipPath id="clipPath897">
   <rect width="1055.1" height="825.84" fill="#ffffff"/>
  </clipPath>
  <clipPath id="clipPath903">
   <rect width="1055.1" height="825.84" fill="#ffffff"/>
  </clipPath>
  <clipPath id="clipPath909">
   <rect width="1055.1" height="825.84" fill="#ffffff"/>
  </clipPath>
  <clipPath id="clipPath915">
   <rect width="1055.1" height="825.84" fill="#ffffff"/>
  </clipPath>
  <clipPath id="clipPath921">
   <rect width="1055.1" height="825.84" fill="#ffffff"/>
  </clipPath>
  <clipPath id="clipPath927">
   <rect width="1055.1" height="825.84" fill="#ffffff"/>
  </clipPath>
  <clipPath id="clipPath933">
   <rect width="1055.1" height="825.84" fill="#ffffff"/>
  </clipPath>
  <clipPath id="clipPath939">
   <rect width="1055.1" height="825.84" fill="#ffffff"/>
  </clipPath>
  <clipPath id="clipPath945">
   <rect width="1055.1" height="825.84" fill="#ffffff"/>
  </clipPath>
  <clipPath id="clipPath951">
   <rect width="1055.1" height="825.84" fill="#ffffff"/>
  </clipPath>
  <clipPath id="clipPath957">
   <rect width="1055.1" height="825.84" fill="#ffffff"/>
  </clipPath>
  <clipPath id="clipPath963">
   <rect width="1055.1" height="825.84" fill="#ffffff"/>
  </clipPath>
  <clipPath id="clipPath969">
   <rect width="1055.1" height="825.84" fill="#ffffff"/>
  </clipPath>
  <clipPath id="clipPath975">
   <rect width="1055.1" height="825.84" fill="#ffffff"/>
  </clipPath>
  <clipPath id="clipPath981">
   <rect width="1055.1" height="825.84" fill="#ffffff"/>
  </clipPath>
  <clipPath id="clipPath987">
   <rect width="1055.1" height="825.84" fill="#ffffff"/>
  </clipPath>
  <clipPath id="clipPath993">
   <rect width="1055.1" height="825.84" fill="#ffffff"/>
  </clipPath>
  <clipPath id="clipPath999">
   <rect width="1055.1" height="825.84" fill="#ffffff"/>
  </clipPath>
  <clipPath id="clipPath1005">
   <rect width="1055.1" height="825.84" fill="#ffffff"/>
  </clipPath>
  <clipPath id="clipPath1011">
   <rect width="1055.1" height="825.84" fill="#ffffff"/>
  </clipPath>
  <clipPath id="clipPath1017">
   <rect width="1055.1" height="825.84" fill="#ffffff"/>
  </clipPath>
  <clipPath id="clipPath1023">
   <rect width="1055.1" height="825.84" fill="#ffffff"/>
  </clipPath>
  <clipPath id="clipPath1029">
   <rect width="1055.1" height="825.84" fill="#ffffff"/>
  </clipPath>
  <clipPath id="clipPath1035">
   <rect width="1055.1" height="825.84" fill="#ffffff"/>
  </clipPath>
  <clipPath id="clipPath1041">
   <rect width="1055.1" height="825.84" fill="#ffffff"/>
  </clipPath>
  <clipPath id="clipPath1047">
   <rect width="1055.1" height="825.84" fill="#ffffff"/>
  </clipPath>
  <clipPath id="clipPath1053">
   <rect width="1055.1" height="825.84" fill="#ffffff"/>
  </clipPath>
  <clipPath id="clipPath1059">
   <rect width="1055.1" height="825.84" fill="#ffffff"/>
  </clipPath>
  <clipPath id="clipPath1065">
   <rect width="1055.1" height="825.84" fill="#ffffff"/>
  </clipPath>
  <clipPath id="clipPath1071">
   <rect width="1055.1" height="825.84" fill="#ffffff"/>
  </clipPath>
  <clipPath id="clipPath1077">
   <rect width="1055.1" height="825.84" fill="#ffffff"/>
  </clipPath>
  <clipPath id="clipPath1083">
   <rect width="1055.1" height="825.84" fill="#ffffff"/>
  </clipPath>
  <clipPath id="clipPath1089">
   <rect width="1055.1" height="825.84" fill="#ffffff"/>
  </clipPath>
  <clipPath id="clipPath1095">
   <rect width="1055.1" height="825.84" fill="#ffffff"/>
  </clipPath>
  <clipPath id="clipPath1101">
   <rect width="1055.1" height="825.84" fill="#ffffff"/>
  </clipPath>
  <clipPath id="clipPath1107">
   <rect width="1055.1" height="825.84" fill="#ffffff"/>
  </clipPath>
  <clipPath id="clipPath1113">
   <rect width="1055.1" height="825.84" fill="#ffffff"/>
  </clipPath>
  <clipPath id="clipPath1119">
   <rect width="1055.1" height="825.84" fill="#ffffff"/>
  </clipPath>
  <clipPath id="clipPath1125">
   <rect width="1055.1" height="825.84" fill="#ffffff"/>
  </clipPath>
  <clipPath id="clipPath1131">
   <rect width="1055.1" height="825.84" fill="#ffffff"/>
  </clipPath>
  <clipPath id="clipPath1137">
   <rect width="1055.1" height="825.84" fill="#ffffff"/>
  </clipPath>
  <clipPath id="clipPath1143">
   <rect width="1055.1" height="825.84" fill="#ffffff"/>
  </clipPath>
  <clipPath id="clipPath1149">
   <rect width="1055.1" height="825.84" fill="#ffffff"/>
  </clipPath>
  <clipPath id="clipPath1155">
   <rect width="1055.1" height="825.84" fill="#ffffff"/>
  </clipPath>
  <clipPath id="clipPath1161">
   <rect width="1055.1" height="825.84" fill="#ffffff"/>
  </clipPath>
  <clipPath id="clipPath1167">
   <rect width="1055.1" height="825.84" fill="#ffffff"/>
  </clipPath>
  <clipPath id="clipPath1173">
   <rect width="1055.1" height="825.84" fill="#ffffff"/>
  </clipPath>
  <clipPath id="clipPath1179">
   <rect width="1055.1" height="825.84" fill="#ffffff"/>
  </clipPath>
  <clipPath id="clipPath1185">
   <rect width="1055.1" height="825.84" fill="#ffffff"/>
  </clipPath>
  <clipPath id="clipPath1191">
   <rect width="1055.1" height="825.84" fill="#ffffff"/>
  </clipPath>
  <clipPath id="clipPath1197">
   <rect width="1055.1" height="825.84" fill="#ffffff"/>
  </clipPath>
  <clipPath id="clipPath1203">
   <rect width="1055.1" height="825.84" fill="#ffffff"/>
  </clipPath>
  <clipPath id="clipPath1209">
   <rect width="1055.1" height="825.84" fill="#ffffff"/>
  </clipPath>
  <clipPath id="clipPath1215">
   <rect width="1055.1" height="825.84" fill="#ffffff"/>
  </clipPath>
  <clipPath id="clipPath1221">
   <rect width="1055.1" height="825.84" fill="#ffffff"/>
  </clipPath>
  <clipPath id="clipPath1227">
   <rect width="1055.1" height="825.84" fill="#ffffff"/>
  </clipPath>
  <clipPath id="clipPath1233">
   <rect width="1055.1" height="825.84" fill="#ffffff"/>
  </clipPath>
  <clipPath id="clipPath1239">
   <rect width="1055.1" height="825.84" fill="#ffffff"/>
  </clipPath>
  <clipPath id="clipPath1245">
   <rect width="1055.1" height="825.84" fill="#ffffff"/>
  </clipPath>
  <clipPath id="clipPath1251">
   <rect width="1055.1" height="825.84" fill="#ffffff"/>
  </clipPath>
  <clipPath id="clipPath1257">
   <rect width="1055.1" height="825.84" fill="#ffffff"/>
  </clipPath>
  <clipPath id="clipPath1263">
   <rect width="1055.1" height="825.84" fill="#ffffff"/>
  </clipPath>
  <clipPath id="clipPath1269">
   <rect width="1055.1" height="825.84" fill="#ffffff"/>
  </clipPath>
  <clipPath id="clipPath1275">
   <rect width="1055.1" height="825.84" fill="#ffffff"/>
  </clipPath>
  <clipPath id="clipPath1281">
   <rect width="1055.1" height="825.84" fill="#ffffff"/>
  </clipPath>
  <clipPath id="clipPath1287">
   <rect width="1055.1" height="825.84" fill="#ffffff"/>
  </clipPath>
  <clipPath id="clipPath1293">
   <rect width="1055.1" height="825.84" fill="#ffffff"/>
  </clipPath>
  <clipPath id="clipPath1299">
   <rect width="1055.1" height="825.84" fill="#ffffff"/>
  </clipPath>
  <clipPath id="clipPath1305">
   <rect width="1055.1" height="825.84" fill="#ffffff"/>
  </clipPath>
  <clipPath id="clipPath1311">
   <rect width="1055.1" height="825.84" fill="#ffffff"/>
  </clipPath>
  <clipPath id="clipPath1317">
   <rect width="1055.1" height="825.84" fill="#ffffff"/>
  </clipPath>
  <clipPath id="clipPath1323">
   <rect width="1055.1" height="825.84" fill="#ffffff"/>
  </clipPath>
  <clipPath id="clipPath1329">
   <rect width="1055.1" height="825.84" fill="#ffffff"/>
  </clipPath>
  <clipPath id="clipPath1335">
   <rect width="1055.1" height="825.84" fill="#ffffff"/>
  </clipPath>
  <clipPath id="clipPath1341">
   <rect width="1055.1" height="825.84" fill="#ffffff"/>
  </clipPath>
  <clipPath id="clipPath1347">
   <rect width="1055.1" height="825.84" fill="#ffffff"/>
  </clipPath>
  <clipPath id="clipPath1353">
   <rect width="1055.1" height="825.84" fill="#ffffff"/>
  </clipPath>
  <clipPath id="clipPath1359">
   <rect width="1055.1" height="825.84" fill="#ffffff"/>
  </clipPath>
  <clipPath id="clipPath1365">
   <rect width="1055.1" height="825.84" fill="#ffffff"/>
  </clipPath>
  <clipPath id="clipPath1371">
   <rect width="1055.1" height="825.84" fill="#ffffff"/>
  </clipPath>
  <clipPath id="clipPath1377">
   <rect width="1055.1" height="825.84" fill="#ffffff"/>
  </clipPath>
  <clipPath id="clipPath1383">
   <rect width="1055.1" height="825.84" fill="#ffffff"/>
  </clipPath>
  <clipPath id="clipPath1389">
   <rect width="1055.1" height="825.84" fill="#ffffff"/>
  </clipPath>
  <clipPath id="clipPath1395">
   <rect width="1055.1" height="825.84" fill="#ffffff"/>
  </clipPath>
  <clipPath id="clipPath1401">
   <rect width="1055.1" height="825.84" fill="#ffffff"/>
  </clipPath>
  <clipPath id="clipPath1407">
   <rect width="1055.1" height="825.84" fill="#ffffff"/>
  </clipPath>
  <clipPath id="clipPath1413">
   <rect width="1055.1" height="825.84" fill="#ffffff"/>
  </clipPath>
  <clipPath id="clipPath1419">
   <rect width="1055.1" height="825.84" fill="#ffffff"/>
  </clipPath>
  <clipPath id="clipPath1425">
   <rect width="1055.1" height="825.84" fill="#ffffff"/>
  </clipPath>
  <clipPath id="clipPath1431">
   <rect width="1055.1" height="825.84" fill="#ffffff"/>
  </clipPath>
  <clipPath id="clipPath1437">
   <rect width="1055.1" height="825.84" fill="#ffffff"/>
  </clipPath>
  <clipPath id="clipPath1443">
   <rect width="1055.1" height="825.84" fill="#ffffff"/>
  </clipPath>
  <clipPath id="clipPath1449">
   <rect width="1055.1" height="825.84" fill="#ffffff"/>
  </clipPath>
  <clipPath id="clipPath1455">
   <rect width="1055.1" height="825.84" fill="#ffffff"/>
  </clipPath>
  <clipPath id="clipPath1461">
   <rect width="1055.1" height="825.84" fill="#ffffff"/>
  </clipPath>
  <clipPath id="clipPath1467">
   <rect width="1055.1" height="825.84" fill="#ffffff"/>
  </clipPath>
  <clipPath id="clipPath1473">
   <rect width="1055.1" height="825.84" fill="#ffffff"/>
  </clipPath>
  <clipPath id="clipPath1479">
   <rect width="1055.1" height="825.84" fill="#ffffff"/>
  </clipPath>
  <clipPath id="clipPath1485">
   <rect width="1055.1" height="825.84" fill="#ffffff"/>
  </clipPath>
  <clipPath id="clipPath1491">
   <rect width="1055.1" height="825.84" fill="#ffffff"/>
  </clipPath>
  <clipPath id="clipPath1497">
   <rect width="1055.1" height="825.84" fill="#ffffff"/>
  </clipPath>
  <clipPath id="clipPath1503">
   <rect width="1055.1" height="825.84" fill="#ffffff"/>
  </clipPath>
  <clipPath id="clipPath1509">
   <rect width="1055.1" height="825.84" fill="#ffffff"/>
  </clipPath>
  <clipPath id="clipPath1515">
   <rect width="1055.1" height="825.84" fill="#ffffff"/>
  </clipPath>
  <clipPath id="clipPath1521">
   <rect width="1055.1" height="825.84" fill="#ffffff"/>
  </clipPath>
  <clipPath id="clipPath1527">
   <rect width="1055.1" height="825.84" fill="#ffffff"/>
  </clipPath>
  <clipPath id="clipPath1533">
   <rect width="1055.1" height="825.84" fill="#ffffff"/>
  </clipPath>
  <clipPath id="clipPath1539">
   <rect width="1055.1" height="825.84" fill="#ffffff"/>
  </clipPath>
  <clipPath id="clipPath1545">
   <rect width="1055.1" height="825.84" fill="#ffffff"/>
  </clipPath>
  <clipPath id="clipPath1551">
   <rect width="1055.1" height="825.84" fill="#ffffff"/>
  </clipPath>
  <clipPath id="clipPath1557">
   <rect width="1055.1" height="825.84" fill="#ffffff"/>
  </clipPath>
  <linearGradient id="paint11_linear_1837_344-3" x1="532.3" x2="532.3" y1="97.5" y2="101" gradientUnits="userSpaceOnUse">
   <stop stop-color="#fff" offset="0"/>
   <stop stop-color="#B2BFE8" offset="1"/>
  </linearGradient>
  <clipPath id="clipPath867-5">
   <rect width="1055.1" height="825.84" fill="#ffffff"/>
  </clipPath>
  <clipPath id="clipPath867-2">
   <rect width="1055.1" height="825.84" fill="#ffffff"/>
  </clipPath>
 </defs>
</svg>
