<?xml version="1.0" encoding="UTF-8"?>
<svg width="2340.1" height="623.4" version="1.1" viewBox="0 0 619.14 164.94" xmlns="http://www.w3.org/2000/svg" xmlns:cc="http://creativecommons.org/ns#" xmlns:dc="http://purl.org/dc/elements/1.1/" xmlns:rdf="http://www.w3.org/1999/02/22-rdf-syntax-ns#">
 <metadata>
  <rdf:RDF>
   <cc:Work rdf:about="">
    <dc:format>image/svg+xml</dc:format>
    <dc:type rdf:resource="http://purl.org/dc/dcmitype/StillImage"/>
    <dc:title/>
   </cc:Work>
  </rdf:RDF>
 </metadata>
 <g transform="translate(-25.584 -4.6643)">
  <g transform="matrix(.83501 0 0 .83501 26.788 5.8684)" fill="#182b3a" shape-rendering="auto" stroke-width="1.1976">
   <path d="m10.043 4.8953-5.1478 5.1478v149.25l5.1478 5.1478h149.25l5.1478-5.1478v-149.25l-5.1478-5.1478zm25.739 30.887 111.5-13.728-13.728 111.5-111.5 13.728z" color="#000000" color-rendering="auto" dominant-baseline="auto" image-rendering="auto" solid-color="#000000" stop-color="#000000" style="font-feature-settings:normal;font-variant-alternates:normal;font-variant-caps:normal;font-variant-east-asian:normal;font-variant-ligatures:normal;font-variant-numeric:normal;font-variant-position:normal;font-variation-settings:normal;inline-size:0;isolation:auto;mix-blend-mode:normal;shape-margin:0;shape-padding:0;text-decoration-color:#000000;text-decoration-line:none;text-decoration-style:solid;text-indent:0;text-orientation:mixed;text-transform:none;white-space:normal"/>
   <path d="m68.225 6.8004v3.2427l-13.728 104.79 108.04-13.728-1.6509-91.973zm27.077 6.4855h60.746v60.746l-74.473 13.728z" color="#000000" color-rendering="auto" dominant-baseline="auto" image-rendering="auto" solid-color="#000000" stop-color="#000000" style="font-feature-settings:normal;font-variant-alternates:normal;font-variant-caps:normal;font-variant-east-asian:normal;font-variant-ligatures:normal;font-variant-numeric:normal;font-variant-position:normal;font-variation-settings:normal;inline-size:0;isolation:auto;mix-blend-mode:normal;shape-margin:0;shape-padding:0;text-decoration-color:#000000;text-decoration-line:none;text-decoration-style:solid;text-indent:0;text-orientation:mixed;text-transform:none;white-space:normal"/>
  </g>
  <g fill="#182b3a" stroke-width=".26458" style="font-variant-caps:normal;font-variant-east-asian:normal;font-variant-ligatures:normal;font-variant-numeric:normal" aria-label="Qdrant">
   <path d="m279.78 135.42v-120.53h-93.04v128.28h38.767v21.146h15.507v-21.146h38.767zm-54.274-7.7534h-23.26v-97.27h62.027v97.27h-23.26v-28.194h-15.507v7.7534z" style="font-variant-caps:normal;font-variant-east-asian:normal;font-variant-ligatures:normal;font-variant-numeric:normal"/>
   <path d="m360.84 53.653v-41.586h-15.507v41.586h-52.864v89.516h68.371v-74.009zm-15.507 15.507v58.503h-37.357v-58.503z" style="font-variant-caps:normal;font-variant-east-asian:normal;font-variant-ligatures:normal;font-variant-numeric:normal"/>
   <path d="m416.7 53.653h-43.172v89.516h15.507v-74.009h35.419v-15.507z" style="font-variant-caps:normal;font-variant-east-asian:normal;font-variant-ligatures:normal;font-variant-numeric:normal"/>
   <path d="m482.96 106.16v21.498h-37.357v-21.498zm15.507 0v-52.511h-68.371v15.507h52.864v21.498h-52.864v52.511h68.371v-7.7534z" style="font-variant-caps:normal;font-variant-east-asian:normal;font-variant-ligatures:normal;font-variant-numeric:normal"/>
   <path d="m579.52 135.42v-81.763h-68.371v89.516h15.507v-74.009h37.357v74.009h15.507z" style="font-variant-caps:normal;font-variant-east-asian:normal;font-variant-ligatures:normal;font-variant-numeric:normal"/>
   <path d="m615.65 53.653v-41.586h-15.507v41.586h-7.9296v15.507h7.9296v74.009h39.296v-15.507h-23.789v-58.503h23.789v-15.507h-7.7534z" style="font-variant-caps:normal;font-variant-east-asian:normal;font-variant-ligatures:normal;font-variant-numeric:normal"/>
  </g>
  <text font-family="EuropeanTypewriter" font-size="8.4667px" style="line-height:1.25;shape-inside:url(#rect881);white-space:pre" xml:space="preserve"/>
  <text font-family="EuropeanTypewriter" font-size="8.4667px" style="line-height:1.25;shape-inside:url(#rect911);white-space:pre" xml:space="preserve"/>
 </g>
</svg>
