<svg width="60" height="42" viewBox="0 0 60 42" fill="none" xmlns="http://www.w3.org/2000/svg">
<path d="M46.5078 41.5469C48.2734 41.5469 49.9219 41.2422 51.4531 40.6328C52.9844 40.0391 54.3203 39.2109 55.4609 38.1484C56.6172 37.0859 57.5156 35.8516 58.1562 34.4453C58.7969 33.0391 59.1172 31.5312 59.1172 29.9219C59.1172 28.2812 58.8203 26.7422 58.2266 25.3047C57.6328 23.8516 56.7812 22.5703 55.6719 21.4609C54.5625 20.3359 53.2422 19.4531 51.7109 18.8125C51.7109 16.2031 51.2812 13.8047 50.4219 11.6172C49.5625 9.41406 48.3516 7.50781 46.7891 5.89844C45.2422 4.27344 43.4297 3.02344 41.3516 2.14844C39.2891 1.25781 37.0547 0.8125 34.6484 0.8125C32.5234 0.8125 30.6016 1.15625 28.8828 1.84375C27.1797 2.51563 25.6641 3.42187 24.3359 4.5625C23.0234 5.6875 21.8984 6.9375 20.9609 8.3125C19.5234 7.89062 18.0859 7.82812 16.6484 8.125C15.2266 8.40625 13.9297 8.98438 12.7578 9.85938C11.5859 10.7188 10.6406 11.8125 9.92188 13.1406C9.20312 14.4531 8.82812 15.9297 8.79688 17.5703C7.03125 17.8516 5.5 18.5234 4.20312 19.5859C2.92188 20.6484 1.92969 21.9844 1.22656 23.5938C0.539062 25.2031 0.195312 26.9609 0.195312 28.8672C0.195312 30.5859 0.546875 32.2109 1.25 33.7422C1.95312 35.2734 2.9375 36.625 4.20312 37.7969C5.48438 38.9531 6.97656 39.8672 8.67969 40.5391C10.3828 41.2109 12.2344 41.5469 14.2344 41.5469H46.5078ZM46.5078 37.7734H14.2344C12.2656 37.7734 10.5078 37.3672 8.96094 36.5547C7.41406 35.7266 6.19531 34.6406 5.30469 33.2969C4.41406 31.9375 3.96875 30.4609 3.96875 28.8672C3.96875 27.3047 4.27344 25.8906 4.88281 24.625C5.49219 23.3438 6.375 22.3281 7.53125 21.5781C8.70312 20.8281 10.1172 20.4531 11.7734 20.4531C12.0703 20.4531 12.2188 20.2969 12.2188 19.9844C12.2188 18.1719 12.5078 16.6797 13.0859 15.5078C13.6797 14.3203 14.4609 13.4219 15.4297 12.8125C16.3984 12.1875 17.4688 11.8359 18.6406 11.7578C19.8281 11.6641 21.0234 11.8125 22.2266 12.2031C22.4922 12.2812 22.6875 12.2031 22.8125 11.9688C23.5781 10.625 24.4922 9.39062 25.5547 8.26562C26.6172 7.14062 27.8906 6.25 29.375 5.59375C30.875 4.92187 32.6328 4.58594 34.6484 4.58594C37.2109 4.58594 39.4766 5.19531 41.4453 6.41406C43.4141 7.61719 44.9766 9.21094 46.1328 11.1953C47.2891 13.1797 47.9297 15.3281 48.0547 17.6406C48.0859 18.1875 48.0859 18.7656 48.0547 19.375C48.0391 19.9688 48.0078 20.5391 47.9609 21.0859C47.9297 21.3828 48.0547 21.5625 48.3359 21.625C50.4609 22.0938 52.1562 23.0625 53.4219 24.5312C54.7031 26 55.3438 27.7969 55.3438 29.9219C55.3438 31.375 54.9531 32.6953 54.1719 33.8828C53.3906 35.0703 52.3281 36.0156 50.9844 36.7188C49.6562 37.4219 48.1641 37.7734 46.5078 37.7734Z" fill="#DC244C"/>
</svg>
