<svg width="52" height="37" viewBox="0 0 52 37" fill="none" xmlns="http://www.w3.org/2000/svg">
<path d="M2.99219 8.07031H6.88281C7.63281 8.07031 8.15625 7.92188 8.45312 7.625C8.76562 7.3125 8.92188 6.78906 8.92188 6.05469V2.16406C8.92188 1.41406 8.76562 0.890625 8.45312 0.59375C8.15625 0.28125 7.63281 0.125 6.88281 0.125H2.99219C2.25781 0.125 1.73438 0.28125 1.42188 0.59375C1.125 0.890625 0.976562 1.41406 0.976562 2.16406V6.05469C0.976562 6.78906 1.125 7.3125 1.42188 7.625C1.73438 7.92188 2.25781 8.07031 2.99219 8.07031ZM17.0078 8.07031H20.8984C21.6328 8.07031 22.1484 7.92188 22.4453 7.625C22.7578 7.3125 22.9141 6.78906 22.9141 6.05469V2.16406C22.9141 1.41406 22.7578 0.890625 22.4453 0.59375C22.1484 0.28125 21.6328 0.125 20.8984 0.125H17.0078C16.2578 0.125 15.7266 0.28125 15.4141 0.59375C15.1172 0.890625 14.9688 1.41406 14.9688 2.16406V6.05469C14.9688 6.78906 15.1172 7.3125 15.4141 7.625C15.7266 7.92188 16.2578 8.07031 17.0078 8.07031ZM31 8.07031H34.8906C35.625 8.07031 36.1406 7.92188 36.4375 7.625C36.75 7.3125 36.9062 6.78906 36.9062 6.05469V2.16406C36.9062 1.41406 36.75 0.890625 36.4375 0.59375C36.1406 0.28125 35.625 0.125 34.8906 0.125H31C30.2656 0.125 29.7422 0.28125 29.4297 0.59375C29.1328 0.890625 28.9844 1.41406 28.9844 2.16406V6.05469C28.9844 6.78906 29.1328 7.3125 29.4297 7.625C29.7422 7.92188 30.2656 8.07031 31 8.07031ZM44.9922 8.07031H48.8828C49.6328 8.07031 50.1562 7.92188 50.4531 7.625C50.7656 7.3125 50.9219 6.78906 50.9219 6.05469V2.16406C50.9219 1.41406 50.7656 0.890625 50.4531 0.59375C50.1562 0.28125 49.6328 0.125 48.8828 0.125H44.9922C44.2578 0.125 43.7344 0.28125 43.4219 0.59375C43.125 0.890625 42.9766 1.41406 42.9766 2.16406V6.05469C42.9766 6.78906 43.125 7.3125 43.4219 7.625C43.7344 7.92188 44.2578 8.07031 44.9922 8.07031ZM3.10938 22.0625H7C7.75 22.0625 8.27344 21.9141 8.57031 21.6172C8.88281 21.3203 9.03906 20.7969 9.03906 20.0469V16.1562C9.03906 15.4219 8.88281 14.9062 8.57031 14.6094C8.27344 14.2969 7.75 14.1406 7 14.1406H3.10938C2.375 14.1406 1.85156 14.2969 1.53906 14.6094C1.24219 14.9062 1.09375 15.4219 1.09375 16.1562V20.0469C1.09375 20.7969 1.24219 21.3203 1.53906 21.6172C1.85156 21.9141 2.375 22.0625 3.10938 22.0625ZM17.125 22.0625H21.0156C21.75 22.0625 22.2656 21.9141 22.5625 21.6172C22.875 21.3203 23.0312 20.7969 23.0312 20.0469V16.1562C23.0312 15.4219 22.875 14.9062 22.5625 14.6094C22.2656 14.2969 21.75 14.1406 21.0156 14.1406H17.125C16.375 14.1406 15.8438 14.2969 15.5312 14.6094C15.2344 14.9062 15.0859 15.4219 15.0859 16.1562V20.0469C15.0859 20.7969 15.2344 21.3203 15.5312 21.6172C15.8438 21.9141 16.375 22.0625 17.125 22.0625ZM31.1172 22.0625H35.0078C35.7578 22.0625 36.2812 21.9141 36.5781 21.6172C36.875 21.3203 37.0234 20.7969 37.0234 20.0469V16.1562C37.0234 15.4219 36.875 14.9062 36.5781 14.6094C36.2812 14.2969 35.7578 14.1406 35.0078 14.1406H31.1172C30.3828 14.1406 29.8594 14.2969 29.5469 14.6094C29.25 14.9062 29.1016 15.4219 29.1016 16.1562V20.0469C29.1016 20.7969 29.25 21.3203 29.5469 21.6172C29.8594 21.9141 30.3828 22.0625 31.1172 22.0625ZM45.1328 22.0625H49C49.75 22.0625 50.2734 21.9141 50.5703 21.6172C50.8828 21.3203 51.0391 20.7969 51.0391 20.0469V16.1562C51.0391 15.4219 50.8828 14.9062 50.5703 14.6094C50.2734 14.2969 49.75 14.1406 49 14.1406H45.1328C44.3828 14.1406 43.8516 14.2969 43.5391 14.6094C43.2422 14.9062 43.0938 15.4219 43.0938 16.1562V20.0469C43.0938 20.7969 43.2422 21.3203 43.5391 21.6172C43.8516 21.9141 44.3828 22.0625 45.1328 22.0625ZM3.10938 36.0781H7C7.75 36.0781 8.27344 35.9219 8.57031 35.6094C8.88281 35.3125 9.03906 34.7891 9.03906 34.0391V30.1719C9.03906 29.4219 8.88281 28.8984 8.57031 28.6016C8.27344 28.2891 7.75 28.1328 7 28.1328H3.10938C2.375 28.1328 1.85156 28.2891 1.53906 28.6016C1.24219 28.8984 1.09375 29.4219 1.09375 30.1719V34.0391C1.09375 34.7891 1.24219 35.3125 1.53906 35.6094C1.85156 35.9219 2.375 36.0781 3.10938 36.0781ZM17.125 36.0781H21.0156C21.75 36.0781 22.2656 35.9219 22.5625 35.6094C22.875 35.3125 23.0312 34.7891 23.0312 34.0391V30.1719C23.0312 29.4219 22.875 28.8984 22.5625 28.6016C22.2656 28.2891 21.75 28.1328 21.0156 28.1328H17.125C16.375 28.1328 15.8438 28.2891 15.5312 28.6016C15.2344 28.8984 15.0859 29.4219 15.0859 30.1719V34.0391C15.0859 34.7891 15.2344 35.3125 15.5312 35.6094C15.8438 35.9219 16.375 36.0781 17.125 36.0781ZM31.1172 36.0781H35.0078C35.7578 36.0781 36.2812 35.9219 36.5781 35.6094C36.875 35.3125 37.0234 34.7891 37.0234 34.0391V30.1719C37.0234 29.4219 36.875 28.8984 36.5781 28.6016C36.2812 28.2891 35.7578 28.1328 35.0078 28.1328H31.1172C30.3828 28.1328 29.8594 28.2891 29.5469 28.6016C29.25 28.8984 29.1016 29.4219 29.1016 30.1719V34.0391C29.1016 34.7891 29.25 35.3125 29.5469 35.6094C29.8594 35.9219 30.3828 36.0781 31.1172 36.0781ZM45.1328 36.0781H49C49.75 36.0781 50.2734 35.9219 50.5703 35.6094C50.8828 35.3125 51.0391 34.7891 51.0391 34.0391V30.1719C51.0391 29.4219 50.8828 28.8984 50.5703 28.6016C50.2734 28.2891 49.75 28.1328 49 28.1328H45.1328C44.3828 28.1328 43.8516 28.2891 43.5391 28.6016C43.2422 28.8984 43.0938 29.4219 43.0938 30.1719V34.0391C43.0938 34.7891 43.2422 35.3125 43.5391 35.6094C43.8516 35.9219 44.3828 36.0781 45.1328 36.0781Z" fill="#DC244C"/>
</svg>
