<svg width="45" height="44" viewBox="0 0 45 44" fill="none" xmlns="http://www.w3.org/2000/svg">
<path d="M8.33594 43.6875H36.7656C39.2188 43.6875 41.0547 43.0781 42.2734 41.8594C43.5078 40.6562 44.125 38.8438 44.125 36.4219V7.80469C44.125 5.38281 43.5078 3.57031 42.2734 2.36719C41.0547 1.14844 39.2188 0.539062 36.7656 0.539062H8.33594C5.88281 0.539062 4.03906 1.14844 2.80469 2.36719C1.58594 3.57031 0.976562 5.38281 0.976562 7.80469V36.4219C0.976562 38.8438 1.58594 40.6562 2.80469 41.8594C4.03906 43.0781 5.88281 43.6875 8.33594 43.6875ZM8.38281 39.9141C7.21094 39.9141 6.3125 39.6094 5.6875 39C5.0625 38.375 4.75 37.4531 4.75 36.2344V7.99219C4.75 6.77344 5.0625 5.85938 5.6875 5.25C6.3125 4.625 7.21094 4.3125 8.38281 4.3125H36.7188C37.875 4.3125 38.7656 4.625 39.3906 5.25C40.0312 5.85938 40.3516 6.77344 40.3516 7.99219V36.2344C40.3516 37.4531 40.0312 38.375 39.3906 39C38.7656 39.6094 37.875 39.9141 36.7188 39.9141H8.38281ZM8.28906 13.4062C8.28906 13.9062 8.4375 14.3047 8.73438 14.6016C9.03125 14.8984 9.42969 15.0469 9.92969 15.0469H13.8438C14.3594 15.0469 14.7578 14.8984 15.0391 14.6016C15.3359 14.3047 15.4844 13.9062 15.4844 13.4062V9.46875C15.4844 8.96875 15.3359 8.57031 15.0391 8.27344C14.7578 7.97656 14.3594 7.82812 13.8438 7.82812H9.92969C9.42969 7.82812 9.03125 7.97656 8.73438 8.27344C8.4375 8.57031 8.28906 8.96875 8.28906 9.46875V13.4062ZM18.9766 13.4062C18.9766 13.9062 19.125 14.3047 19.4219 14.6016C19.7188 14.8984 20.1172 15.0469 20.6172 15.0469H24.5312C25.0469 15.0469 25.4531 14.8984 25.75 14.6016C26.0469 14.3047 26.1953 13.9062 26.1953 13.4062V9.46875C26.1953 8.96875 26.0469 8.57031 25.75 8.27344C25.4531 7.97656 25.0469 7.82812 24.5312 7.82812H20.6172C20.1172 7.82812 19.7188 7.97656 19.4219 8.27344C19.125 8.57031 18.9766 8.96875 18.9766 9.46875V13.4062ZM29.6406 13.4062C29.6406 13.9062 29.7891 14.3047 30.0859 14.6016C30.3828 14.8984 30.7812 15.0469 31.2812 15.0469H35.1953C35.7109 15.0469 36.1094 14.8984 36.3906 14.6016C36.6875 14.3047 36.8359 13.9062 36.8359 13.4062V9.46875C36.8359 8.96875 36.6875 8.57031 36.3906 8.27344C36.1094 7.97656 35.7109 7.82812 35.1953 7.82812H31.2812C30.7812 7.82812 30.3828 7.97656 30.0859 8.27344C29.7891 8.57031 29.6406 8.96875 29.6406 9.46875V13.4062ZM8.28906 24.0703C8.28906 24.5703 8.4375 24.9688 8.73438 25.2656C9.03125 25.5625 9.42969 25.7109 9.92969 25.7109H13.8438C14.3594 25.7109 14.7578 25.5625 15.0391 25.2656C15.3359 24.9688 15.4844 24.5703 15.4844 24.0703V20.1328C15.4844 19.6328 15.3359 19.2344 15.0391 18.9375C14.7578 18.6406 14.3594 18.4922 13.8438 18.4922H9.92969C9.42969 18.4922 9.03125 18.6406 8.73438 18.9375C8.4375 19.2344 8.28906 19.6328 8.28906 20.1328V24.0703ZM18.9766 24.0703C18.9766 24.5703 19.125 24.9688 19.4219 25.2656C19.7188 25.5625 20.1172 25.7109 20.6172 25.7109H24.5312C25.0469 25.7109 25.4531 25.5625 25.75 25.2656C26.0469 24.9688 26.1953 24.5703 26.1953 24.0703V20.1328C26.1953 19.6328 26.0469 19.2344 25.75 18.9375C25.4531 18.6406 25.0469 18.4922 24.5312 18.4922H20.6172C20.1172 18.4922 19.7188 18.6406 19.4219 18.9375C19.125 19.2344 18.9766 19.6328 18.9766 20.1328V24.0703ZM29.6406 24.0703C29.6406 24.5703 29.7891 24.9688 30.0859 25.2656C30.3828 25.5625 30.7812 25.7109 31.2812 25.7109H35.1953C35.7109 25.7109 36.1094 25.5625 36.3906 25.2656C36.6875 24.9688 36.8359 24.5703 36.8359 24.0703V20.1328C36.8359 19.6328 36.6875 19.2344 36.3906 18.9375C36.1094 18.6406 35.7109 18.4922 35.1953 18.4922H31.2812C30.7812 18.4922 30.3828 18.6406 30.0859 18.9375C29.7891 19.2344 29.6406 19.6328 29.6406 20.1328V24.0703ZM8.28906 34.7344C8.28906 35.2344 8.4375 35.6328 8.73438 35.9297C9.03125 36.2266 9.42969 36.375 9.92969 36.375H13.8438C14.3594 36.375 14.7578 36.2266 15.0391 35.9297C15.3359 35.6328 15.4844 35.2344 15.4844 34.7344V30.7969C15.4844 30.2969 15.3359 29.8984 15.0391 29.6016C14.7578 29.3047 14.3594 29.1562 13.8438 29.1562H9.92969C9.42969 29.1562 9.03125 29.3047 8.73438 29.6016C8.4375 29.8984 8.28906 30.2969 8.28906 30.7969V34.7344ZM18.9766 34.7344C18.9766 35.2344 19.125 35.6328 19.4219 35.9297C19.7188 36.2266 20.1172 36.375 20.6172 36.375H24.5312C25.0469 36.375 25.4531 36.2266 25.75 35.9297C26.0469 35.6328 26.1953 35.2344 26.1953 34.7344V30.7969C26.1953 30.2969 26.0469 29.8984 25.75 29.6016C25.4531 29.3047 25.0469 29.1562 24.5312 29.1562H20.6172C20.1172 29.1562 19.7188 29.3047 19.4219 29.6016C19.125 29.8984 18.9766 30.2969 18.9766 30.7969V34.7344ZM29.6406 34.7344C29.6406 35.2344 29.7891 35.6328 30.0859 35.9297C30.3828 36.2266 30.7812 36.375 31.2812 36.375H35.1953C35.7109 36.375 36.1094 36.2266 36.3906 35.9297C36.6875 35.6328 36.8359 35.2344 36.8359 34.7344V30.7969C36.8359 30.2969 36.6875 29.8984 36.3906 29.6016C36.1094 29.3047 35.7109 29.1562 35.1953 29.1562H31.2812C30.7812 29.1562 30.3828 29.3047 30.0859 29.6016C29.7891 29.8984 29.6406 30.2969 29.6406 30.7969V34.7344Z" fill="#DC244C"/>
</svg>
