<svg width="49" height="48" viewBox="0 0 49 48" fill="none" xmlns="http://www.w3.org/2000/svg">
<path d="M24.1016 47.9844C27.3672 47.9844 30.4375 47.3594 33.3125 46.1094C36.2031 44.8594 38.75 43.1328 40.9531 40.9297C43.1562 38.7266 44.8828 36.1875 46.1328 33.3125C47.3828 30.4219 48.0078 27.3438 48.0078 24.0781C48.0078 20.8125 47.3828 17.7422 46.1328 14.8672C44.8828 11.9766 43.1562 9.42969 40.9531 7.22656C38.75 5.02344 36.2031 3.29687 33.3125 2.04688C30.4219 0.796875 27.3438 0.171875 24.0781 0.171875C20.8125 0.171875 17.7344 0.796875 14.8438 2.04688C11.9688 3.29687 9.42969 5.02344 7.22656 7.22656C5.03906 9.42969 3.32031 11.9766 2.07031 14.8672C0.820312 17.7422 0.195312 20.8125 0.195312 24.0781C0.195312 27.3438 0.820312 30.4219 2.07031 33.3125C3.32031 36.1875 5.04688 38.7266 7.25 40.9297C9.45312 43.1328 11.9922 44.8594 14.8672 46.1094C17.7578 47.3594 20.8359 47.9844 24.1016 47.9844ZM24.1016 44C21.3359 44 18.75 43.4844 16.3438 42.4531C13.9375 41.4219 11.8203 40 9.99219 38.1875C8.17969 36.3594 6.75781 34.2422 5.72656 31.8359C4.71094 29.4297 4.20312 26.8438 4.20312 24.0781C4.20312 21.3125 4.71094 18.7266 5.72656 16.3203C6.75781 13.9141 8.17969 11.7969 9.99219 9.96875C11.8047 8.14062 13.9141 6.71875 16.3203 5.70312C18.7266 4.67188 21.3125 4.15625 24.0781 4.15625C26.8438 4.15625 29.4297 4.67188 31.8359 5.70312C34.2422 6.71875 36.3594 8.14062 38.1875 9.96875C40.0156 11.7969 41.4453 13.9141 42.4766 16.3203C43.5078 18.7266 44.0234 21.3125 44.0234 24.0781C44.0234 26.8438 43.5078 29.4297 42.4766 31.8359C41.4609 34.2422 40.0391 36.3594 38.2109 38.1875C36.3984 40 34.2812 41.4219 31.8594 42.4531C29.4531 43.4844 26.8672 44 24.1016 44ZM11.3516 19.4375H36.8984C37.4141 19.4375 37.8359 19.2891 38.1641 18.9922C38.5078 18.6797 38.6797 18.2812 38.6797 17.7969C38.6797 17.2969 38.5078 16.8984 38.1641 16.6016C37.8359 16.2891 37.4141 16.1328 36.8984 16.1328H11.3516C10.8359 16.1328 10.4062 16.2891 10.0625 16.6016C9.73438 16.8984 9.57031 17.2969 9.57031 17.7969C9.57031 18.2812 9.73438 18.6797 10.0625 18.9922C10.4062 19.2891 10.8359 19.4375 11.3516 19.4375ZM14.8203 27.1953H33.4297C33.9453 27.1953 34.3672 27.0469 34.6953 26.75C35.0391 26.4531 35.2109 26.0547 35.2109 25.5547C35.2109 25.0547 35.0391 24.6562 34.6953 24.3594C34.3672 24.0469 33.9453 23.8906 33.4297 23.8906H14.8203C14.3047 23.8906 13.875 24.0469 13.5312 24.3594C13.2031 24.6562 13.0391 25.0547 13.0391 25.5547C13.0391 26.0547 13.2031 26.4531 13.5312 26.75C13.875 27.0469 14.3047 27.1953 14.8203 27.1953ZM18.4531 34.9766H29.8203C30.3359 34.9766 30.7578 34.8281 31.0859 34.5312C31.4141 34.2188 31.5781 33.8203 31.5781 33.3359C31.5781 32.8359 31.4141 32.4375 31.0859 32.1406C30.7578 31.8281 30.3359 31.6719 29.8203 31.6719H18.4531C17.9219 31.6719 17.4922 31.8281 17.1641 32.1406C16.8359 32.4375 16.6719 32.8359 16.6719 33.3359C16.6719 33.8203 16.8359 34.2188 17.1641 34.5312C17.4922 34.8281 17.9219 34.9766 18.4531 34.9766Z" fill="#DC244C"/>
</svg>
