<svg width="49" height="48" viewBox="0 0 49 48" fill="none" xmlns="http://www.w3.org/2000/svg">
<path d="M15.9297 34.6016H33.3672C34.5547 34.6016 35.1484 34 35.1484 32.7969V15.4062C35.1484 14.2188 34.5547 13.625 33.3672 13.625H15.9297C14.7422 13.625 14.1484 14.2188 14.1484 15.4062V32.7969C14.1484 34 14.7422 34.6016 15.9297 34.6016ZM17.7812 31.5312C17.4062 31.5312 17.2188 31.3438 17.2188 30.9688V17.2578C17.2188 16.8828 17.4062 16.6953 17.7812 16.6953H31.4922C31.8828 16.6953 32.0781 16.8828 32.0781 17.2578V30.9688C32.0781 31.3438 31.8828 31.5312 31.4922 31.5312H17.7812ZM7.23438 43.3906H42.0625C42.625 43.3906 43.0781 43.2188 43.4219 42.875C43.7656 42.5469 43.9375 42.1016 43.9375 41.5391V6.6875C43.9375 6.125 43.7656 5.67188 43.4219 5.32812C43.0781 4.98437 42.625 4.8125 42.0625 4.8125H7.23438C6.67188 4.8125 6.21875 4.98437 5.875 5.32812C5.53125 5.67188 5.35938 6.125 5.35938 6.6875V41.5391C5.35938 42.1016 5.53125 42.5469 5.875 42.875C6.21875 43.2188 6.67188 43.3906 7.23438 43.3906ZM9.8125 39.6172C9.35938 39.6172 9.13281 39.3906 9.13281 38.9375V9.28906C9.13281 8.82031 9.35938 8.58594 9.8125 8.58594H39.4844C39.9375 8.58594 40.1641 8.82031 40.1641 9.28906V38.9375C40.1641 39.3906 39.9375 39.6172 39.4844 39.6172H9.8125ZM18.7656 40.2266H14.9922V45.6406C14.9922 46.2031 15.1641 46.6562 15.5078 47C15.8516 47.3438 16.3047 47.5156 16.8672 47.5156C17.4297 47.5156 17.8828 47.3438 18.2266 47C18.5859 46.6562 18.7656 46.2031 18.7656 45.6406V40.2266ZM26.5234 40.2266H22.75V45.6406C22.75 46.2031 22.9219 46.6562 23.2656 47C23.625 47.3438 24.0859 47.5156 24.6484 47.5156C25.2109 47.5156 25.6641 47.3438 26.0078 47C26.3516 46.6562 26.5234 46.2031 26.5234 45.6406V40.2266ZM34.375 40.2266H30.6016V45.6406C30.6016 46.2031 30.7734 46.6562 31.1172 47C31.4609 47.3438 31.9141 47.5156 32.4766 47.5156C33.0391 47.5156 33.4922 47.3438 33.8359 47C34.1953 46.6562 34.375 46.2031 34.375 45.6406V40.2266ZM40.75 29.9609V33.7344H46.1641C46.7266 33.7344 47.1797 33.5625 47.5234 33.2188C47.8828 32.8594 48.0625 32.3984 48.0625 31.8359C48.0625 31.2734 47.8828 30.8203 47.5234 30.4766C47.1797 30.1328 46.7266 29.9609 46.1641 29.9609H40.75ZM40.75 22.1797V25.9531H46.1641C46.7266 25.9531 47.1797 25.7812 47.5234 25.4375C47.8828 25.0938 48.0625 24.6406 48.0625 24.0781C48.0625 23.5156 47.8828 23.0625 47.5234 22.7188C47.1797 22.3594 46.7266 22.1797 46.1641 22.1797H40.75ZM40.75 14.4219V18.1953H46.1641C46.7266 18.1953 47.1797 18.0234 47.5234 17.6797C47.8828 17.3203 48.0625 16.8594 48.0625 16.2969C48.0625 15.7344 47.8828 15.2812 47.5234 14.9375C47.1797 14.5938 46.7266 14.4219 46.1641 14.4219H40.75ZM30.5312 8H34.3047V2.58594C34.3047 2.02344 34.125 1.57031 33.7656 1.22656C33.4219 0.882812 32.9688 0.710938 32.4062 0.710938C31.8438 0.710938 31.3906 0.882812 31.0469 1.22656C30.7031 1.57031 30.5312 2.02344 30.5312 2.58594V8ZM22.75 8H26.5234V2.58594C26.5234 2.02344 26.3516 1.57031 26.0078 1.22656C25.6641 0.882812 25.2109 0.710938 24.6484 0.710938C24.0859 0.710938 23.625 0.882812 23.2656 1.22656C22.9219 1.57031 22.75 2.02344 22.75 2.58594V8ZM14.9922 8H18.7656V2.58594C18.7656 2.02344 18.5859 1.57031 18.2266 1.22656C17.8828 0.882812 17.4297 0.710938 16.8672 0.710938C16.3047 0.710938 15.8516 0.882812 15.5078 1.22656C15.1641 1.57031 14.9922 2.02344 14.9922 2.58594V8ZM8.52344 18.2188V14.4453H2.85156C2.28906 14.4453 1.83594 14.6172 1.49219 14.9609C1.14844 15.3047 0.976562 15.7578 0.976562 16.3203C0.976562 16.8828 1.14844 17.3438 1.49219 17.7031C1.83594 18.0469 2.28906 18.2188 2.85156 18.2188H8.52344ZM8.52344 25.9766V22.2031H2.85156C2.28906 22.2031 1.83594 22.3828 1.49219 22.7422C1.14844 23.0859 0.976562 23.5391 0.976562 24.1016C0.976562 24.6641 1.14844 25.1172 1.49219 25.4609C1.83594 25.8047 2.28906 25.9766 2.85156 25.9766H8.52344ZM8.52344 33.7578V29.9844H2.85156C2.28906 29.9844 1.83594 30.1562 1.49219 30.5C1.14844 30.8438 0.976562 31.2969 0.976562 31.8594C0.976562 32.4219 1.14844 32.8828 1.49219 33.2422C1.83594 33.5859 2.28906 33.7578 2.85156 33.7578H8.52344Z" fill="#DC244C"/>
</svg>
