<svg width="49" height="48" viewBox="0 0 49 48" fill="none" xmlns="http://www.w3.org/2000/svg">
<path d="M24.1016 47.9844C27.3672 47.9844 30.4375 47.3594 33.3125 46.1094C36.2031 44.8594 38.75 43.1328 40.9531 40.9297C43.1562 38.7266 44.8828 36.1875 46.1328 33.3125C47.3828 30.4219 48.0078 27.3438 48.0078 24.0781C48.0078 20.8125 47.3828 17.7422 46.1328 14.8672C44.8828 11.9766 43.1562 9.42969 40.9531 7.22656C38.75 5.02344 36.2031 3.29687 33.3125 2.04688C30.4219 0.796875 27.3438 0.171875 24.0781 0.171875C20.8125 0.171875 17.7344 0.796875 14.8438 2.04688C11.9688 3.29687 9.42969 5.02344 7.22656 7.22656C5.03906 9.42969 3.32031 11.9766 2.07031 14.8672C0.820312 17.7422 0.195312 20.8125 0.195312 24.0781C0.195312 27.3438 0.820312 30.4219 2.07031 33.3125C3.32031 36.1875 5.04688 38.7266 7.25 40.9297C9.45312 43.1328 11.9922 44.8594 14.8672 46.1094C17.7578 47.3594 20.8359 47.9844 24.1016 47.9844ZM24.1016 44C21.3359 44 18.75 43.4844 16.3438 42.4531C13.9375 41.4219 11.8203 40 9.99219 38.1875C8.17969 36.3594 6.75781 34.2422 5.72656 31.8359C4.71094 29.4297 4.20312 26.8438 4.20312 24.0781C4.20312 21.3125 4.71094 18.7266 5.72656 16.3203C6.75781 13.9141 8.17969 11.7969 9.99219 9.96875C11.8047 8.14062 13.9141 6.71875 16.3203 5.70312C18.7266 4.67188 21.3125 4.15625 24.0781 4.15625C26.8438 4.15625 29.4297 4.67188 31.8359 5.70312C34.2422 6.71875 36.3594 8.14062 38.1875 9.96875C40.0156 11.7969 41.4453 13.9141 42.4766 16.3203C43.5078 18.7266 44.0234 21.3125 44.0234 24.0781C44.0234 26.8438 43.5078 29.4297 42.4766 31.8359C41.4609 34.2422 40.0391 36.3594 38.2109 38.1875C36.3984 40 34.2812 41.4219 31.8594 42.4531C29.4531 43.4844 26.8672 44 24.1016 44ZM22.8828 37.7891H25.2969C25.6406 37.7891 25.9297 37.6953 26.1641 37.5078C26.3984 37.3203 26.5547 37.0547 26.6328 36.7109L27.3125 33.8281C27.5625 33.7344 27.8125 33.6406 28.0625 33.5469C28.3125 33.4531 28.5391 33.3516 28.7422 33.2422L31.2969 34.7891C31.5625 34.9766 31.8438 35.0547 32.1406 35.0234C32.4531 34.9922 32.7266 34.8594 32.9609 34.625L34.6484 32.9609C34.8828 32.7109 35.0156 32.4297 35.0469 32.1172C35.0781 31.8047 35 31.5078 34.8125 31.2266L33.2656 28.7188C33.375 28.4844 33.4766 28.25 33.5703 28.0156C33.6641 27.7812 33.75 27.5469 33.8281 27.3125L36.7578 26.6328C37.4609 26.4609 37.8125 26.0156 37.8125 25.2969V22.9062C37.8125 22.1875 37.4609 21.7578 36.7578 21.6172L33.8516 20.9141C33.7734 20.6328 33.6797 20.375 33.5703 20.1406C33.4766 19.9062 33.3828 19.6875 33.2891 19.4844L34.8594 16.9531C35.0312 16.6562 35.1016 16.3594 35.0703 16.0625C35.0547 15.7656 34.9297 15.4922 34.6953 15.2422L32.9609 13.5547C32.4609 13.0859 31.9141 13.0234 31.3203 13.3672L28.7422 14.9375C28.5391 14.8438 28.3125 14.75 28.0625 14.6562C27.8281 14.5469 27.5781 14.4453 27.3125 14.3516L26.6328 11.4453C26.5547 11.1016 26.3984 10.8359 26.1641 10.6484C25.9297 10.4453 25.6406 10.3438 25.2969 10.3438H22.8828C22.5391 10.3438 22.25 10.4453 22.0156 10.6484C21.7812 10.8359 21.625 11.1016 21.5469 11.4453L20.8438 14.3281C20.5938 14.4219 20.3438 14.5156 20.0938 14.6094C19.8594 14.7031 19.625 14.8125 19.3906 14.9375L16.8594 13.3672C16.25 13.0234 15.7031 13.0859 15.2188 13.5547L13.4844 15.2422C13.25 15.4922 13.1172 15.7656 13.0859 16.0625C13.0703 16.3594 13.1484 16.6562 13.3203 16.9531L14.8672 19.4844C14.7891 19.6875 14.6953 19.9062 14.5859 20.1406C14.4922 20.375 14.3984 20.6328 14.3047 20.9141L11.4219 21.6172C10.7188 21.7578 10.3672 22.1875 10.3672 22.9062V25.2969C10.3672 26.0156 10.7188 26.4609 11.4219 26.6328L14.3281 27.3125C14.4062 27.5469 14.4922 27.7812 14.5859 28.0156C14.6797 28.25 14.7812 28.4844 14.8906 28.7188L13.3672 31.2266C13.1641 31.5078 13.0781 31.8047 13.1094 32.1172C13.1562 32.4297 13.2969 32.7109 13.5312 32.9609L15.2188 34.625C15.4531 34.8594 15.7188 34.9922 16.0156 35.0234C16.3281 35.0547 16.6172 34.9766 16.8828 34.7891L19.4141 33.2422C19.6328 33.3516 19.8594 33.4531 20.0938 33.5469C20.3438 33.6406 20.5938 33.7344 20.8438 33.8281L21.5469 36.7109C21.625 37.0547 21.7812 37.3203 22.0156 37.5078C22.25 37.6953 22.5391 37.7891 22.8828 37.7891ZM24.1016 28.6953C22.8203 28.6953 21.7266 28.2422 20.8203 27.3359C19.9141 26.4141 19.4609 25.3203 19.4609 24.0547C19.4609 22.7891 19.9141 21.7031 20.8203 20.7969C21.7266 19.8906 22.8203 19.4375 24.1016 19.4375C25.3672 19.4375 26.4531 19.8906 27.3594 20.7969C28.2656 21.7031 28.7188 22.7891 28.7188 24.0547C28.7188 25.3203 28.2656 26.4141 27.3594 27.3359C26.4531 28.2422 25.3672 28.6953 24.1016 28.6953Z" fill="#DC244C"/>
</svg>
