<svg width="58" height="58" viewBox="0 0 58 58" fill="none" xmlns="http://www.w3.org/2000/svg">
<path d="M28.6953 51.2734C31.7422 51.2734 34.6016 50.6953 37.2734 49.5391C39.9453 48.3984 42.2969 46.8125 44.3281 44.7812C46.3594 42.7344 47.9453 40.375 49.0859 37.7031C50.2422 35.0156 50.8203 32.1484 50.8203 29.1016C50.8203 26.0547 50.2422 23.1953 49.0859 20.5234C47.9453 17.8359 46.3594 15.4766 44.3281 13.4453C42.2969 11.3984 39.9453 9.80469 37.2734 8.66406C34.6016 7.50781 31.7422 6.92969 28.6953 6.92969C25.6484 6.92969 22.7891 7.50781 20.1172 8.66406C17.4453 9.80469 15.0938 11.3984 13.0625 13.4453C11.0312 15.4766 9.4375 17.8359 8.28125 20.5234C7.14062 23.1953 6.57031 26.0547 6.57031 29.1016C6.57031 32.1484 7.14062 35.0156 8.28125 37.7031C9.4375 40.375 11.0312 42.7344 13.0625 44.7812C15.0938 46.8125 17.4453 48.3984 20.1172 49.5391C22.7891 50.6953 25.6484 51.2734 28.6953 51.2734ZM28.6953 47.4531C26.1484 47.4531 23.7734 46.9844 21.5703 46.0469C19.3828 45.1094 17.4609 43.8047 15.8047 42.1328C14.1484 40.4609 12.8516 38.5156 11.9141 36.2969C10.9766 34.0625 10.5078 31.6641 10.5078 29.1016C10.5078 26.5391 10.9766 24.1484 11.9141 21.9297C12.8516 19.7109 14.1484 17.7656 15.8047 16.0938C17.4609 14.4062 19.3828 13.0938 21.5703 12.1562C23.7734 11.2188 26.1484 10.75 28.6953 10.75C31.2422 10.75 33.6094 11.2188 35.7969 12.1562C38 13.0938 39.9297 14.4062 41.5859 16.0938C43.2422 17.7656 44.5391 19.7109 45.4766 21.9297C46.4141 24.1484 46.8828 26.5391 46.8828 29.1016C46.8828 31.6641 46.4141 34.0625 45.4766 36.2969C44.5391 38.5156 43.2422 40.4609 41.5859 42.1328C39.9297 43.8047 38 45.1094 35.7969 46.0469C33.6094 46.9844 31.2422 47.4531 28.6953 47.4531ZM28.6953 57.6016C29.1641 57.6016 29.5547 57.4375 29.8672 57.1094C30.1953 56.7812 30.3594 56.3828 30.3594 55.9141V40.0469C30.3594 39.5781 30.1953 39.1875 29.8672 38.875C29.5547 38.5469 29.1641 38.3828 28.6953 38.3828C28.2266 38.3828 27.8281 38.5469 27.5 38.875C27.1719 39.1875 27.0078 39.5781 27.0078 40.0469V55.9141C27.0078 56.3828 27.1719 56.7812 27.5 57.1094C27.8281 57.4375 28.2266 57.6016 28.6953 57.6016ZM1.88281 30.7891H17.75C18.2188 30.7891 18.6172 30.625 18.9453 30.2969C19.2734 29.9688 19.4375 29.5703 19.4375 29.1016C19.4375 28.6328 19.2734 28.2422 18.9453 27.9297C18.6172 27.6016 18.2188 27.4375 17.75 27.4375H1.88281C1.41406 27.4375 1.01562 27.6016 0.6875 27.9297C0.359375 28.2422 0.195312 28.6328 0.195312 29.1016C0.195312 29.5703 0.359375 29.9688 0.6875 30.2969C1.01562 30.625 1.41406 30.7891 1.88281 30.7891ZM28.6953 19.8438C29.1641 19.8438 29.5547 19.6797 29.8672 19.3516C30.1953 19.0234 30.3594 18.625 30.3594 18.1562V2.28906C30.3594 1.82031 30.1953 1.42188 29.8672 1.09375C29.5547 0.765625 29.1641 0.601562 28.6953 0.601562C28.2266 0.601562 27.8281 0.765625 27.5 1.09375C27.1719 1.42188 27.0078 1.82031 27.0078 2.28906V18.1562C27.0078 18.625 27.1719 19.0234 27.5 19.3516C27.8281 19.6797 28.2266 19.8438 28.6953 19.8438ZM39.6406 30.7891H55.5078C55.9766 30.7891 56.375 30.625 56.7031 30.2969C57.0312 29.9688 57.1953 29.5703 57.1953 29.1016C57.1953 28.6328 57.0312 28.2422 56.7031 27.9297C56.375 27.6016 55.9766 27.4375 55.5078 27.4375H39.6406C39.1719 27.4375 38.7734 27.6016 38.4453 27.9297C38.1172 28.2422 37.9531 28.6328 37.9531 29.1016C37.9531 29.5703 38.1172 29.9688 38.4453 30.2969C38.7734 30.625 39.1719 30.7891 39.6406 30.7891Z" fill="#DC244C"/>
</svg>
