<svg width="49" height="48" viewBox="0 0 49 48" fill="none" xmlns="http://www.w3.org/2000/svg">
<path d="M14.6094 35.8203C15.25 35.8203 15.7891 35.5938 16.2266 35.1406C16.6797 34.6719 16.9062 34.125 16.9062 33.5C16.9062 32.875 16.6797 32.3359 16.2266 31.8828C15.7891 31.4297 15.25 31.2031 14.6094 31.2031C13.9844 31.2031 13.4453 31.4297 12.9922 31.8828C12.5391 32.3359 12.3125 32.875 12.3125 33.5C12.3125 34.125 12.5391 34.6719 12.9922 35.1406C13.4453 35.5938 13.9844 35.8203 14.6094 35.8203ZM10.5781 26.375C11.2188 26.375 11.7656 26.1484 12.2188 25.6953C12.6719 25.2422 12.8984 24.7031 12.8984 24.0781C12.8984 23.4375 12.6719 22.8984 12.2188 22.4609C11.7656 22.0078 11.2188 21.7812 10.5781 21.7812C9.95312 21.7812 9.41406 22.0078 8.96094 22.4609C8.50781 22.8984 8.28125 23.4375 8.28125 24.0781C8.28125 24.7031 8.50781 25.2422 8.96094 25.6953C9.41406 26.1484 9.95312 26.375 10.5781 26.375ZM14.5625 16.9531C15.2031 16.9531 15.7422 16.7266 16.1797 16.2734C16.6328 15.8203 16.8594 15.2812 16.8594 14.6562C16.8594 14.0156 16.6328 13.4766 16.1797 13.0391C15.7422 12.5859 15.2031 12.3594 14.5625 12.3594C13.9375 12.3594 13.3984 12.5859 12.9453 13.0391C12.4922 13.4766 12.2656 14.0156 12.2656 14.6562C12.2656 15.2812 12.4922 15.8203 12.9453 16.2734C13.3984 16.7266 13.9375 16.9531 14.5625 16.9531ZM24.0781 12.8281C24.7031 12.8281 25.2422 12.6016 25.6953 12.1484C26.1484 11.6953 26.375 11.1562 26.375 10.5312C26.375 9.89063 26.1484 9.34375 25.6953 8.89062C25.2422 8.4375 24.7031 8.21094 24.0781 8.21094C23.4375 8.21094 22.8906 8.4375 22.4375 8.89062C22 9.34375 21.7812 9.89063 21.7812 10.5312C21.7812 11.1562 22 11.6953 22.4375 12.1484C22.8906 12.6016 23.4375 12.8281 24.0781 12.8281ZM37.5781 26.375C38.2031 26.375 38.7422 26.1484 39.1953 25.6953C39.6484 25.2422 39.875 24.7031 39.875 24.0781C39.875 23.4375 39.6484 22.8984 39.1953 22.4609C38.7422 22.0078 38.2031 21.7812 37.5781 21.7812C36.9375 21.7812 36.3906 22.0078 35.9375 22.4609C35.5 22.8984 35.2812 23.4375 35.2812 24.0781C35.2812 24.7031 35.5 25.2422 35.9375 25.6953C36.3906 26.1484 36.9375 26.375 37.5781 26.375ZM33.5469 35.8203C34.1719 35.8203 34.7109 35.5938 35.1641 35.1406C35.6172 34.6719 35.8438 34.125 35.8438 33.5C35.8438 32.875 35.6172 32.3359 35.1641 31.8828C34.7109 31.4297 34.1719 31.2031 33.5469 31.2031C32.9219 31.2031 32.3828 31.4297 31.9297 31.8828C31.4766 32.3359 31.25 32.875 31.25 33.5C31.25 34.125 31.4766 34.6719 31.9297 35.1406C32.3828 35.5938 32.9219 35.8203 33.5469 35.8203ZM20.3516 27.6875C20.9922 28.3125 21.6797 28.6875 22.4141 28.8125C23.1484 28.9375 23.8672 28.8359 24.5703 28.5078C25.2734 28.1797 25.8906 27.6484 26.4219 26.9141L35.5859 14.1172C35.8672 13.7266 35.9453 13.3594 35.8203 13.0156C35.6953 12.6719 35.4609 12.4453 35.1172 12.3359C34.7734 12.2109 34.4062 12.2812 34.0156 12.5469L21.1016 21.5938C20.3672 22.1094 19.8359 22.7266 19.5078 23.4453C19.1797 24.1484 19.0781 24.875 19.2031 25.625C19.3438 26.3594 19.7266 27.0469 20.3516 27.6875ZM24.1016 47.9844C27.3672 47.9844 30.4375 47.3594 33.3125 46.1094C36.2031 44.8594 38.75 43.1328 40.9531 40.9297C43.1562 38.7266 44.8828 36.1875 46.1328 33.3125C47.3828 30.4219 48.0078 27.3438 48.0078 24.0781C48.0078 20.8125 47.3828 17.7422 46.1328 14.8672C44.8828 11.9766 43.1562 9.42969 40.9531 7.22656C38.75 5.02344 36.2031 3.29687 33.3125 2.04688C30.4219 0.796875 27.3438 0.171875 24.0781 0.171875C20.8125 0.171875 17.7344 0.796875 14.8438 2.04688C11.9688 3.29687 9.42969 5.02344 7.22656 7.22656C5.03906 9.42969 3.32031 11.9766 2.07031 14.8672C0.820312 17.7422 0.195312 20.8125 0.195312 24.0781C0.195312 27.3438 0.820312 30.4219 2.07031 33.3125C3.32031 36.1875 5.04688 38.7266 7.25 40.9297C9.45312 43.1328 11.9922 44.8594 14.8672 46.1094C17.7578 47.3594 20.8359 47.9844 24.1016 47.9844ZM24.1016 44C21.3359 44 18.75 43.4844 16.3438 42.4531C13.9375 41.4219 11.8203 40 9.99219 38.1875C8.17969 36.3594 6.75781 34.2422 5.72656 31.8359C4.71094 29.4297 4.20312 26.8438 4.20312 24.0781C4.20312 21.3125 4.71094 18.7266 5.72656 16.3203C6.75781 13.9141 8.17969 11.7969 9.99219 9.96875C11.8047 8.14062 13.9141 6.71875 16.3203 5.70312C18.7266 4.67188 21.3125 4.15625 24.0781 4.15625C26.8438 4.15625 29.4297 4.67188 31.8359 5.70312C34.2422 6.71875 36.3594 8.14062 38.1875 9.96875C40.0156 11.7969 41.4453 13.9141 42.4766 16.3203C43.5078 18.7266 44.0234 21.3125 44.0234 24.0781C44.0234 26.8438 43.5078 29.4297 42.4766 31.8359C41.4609 34.2422 40.0391 36.3594 38.2109 38.1875C36.3984 40 34.2812 41.4219 31.8594 42.4531C29.4531 43.4844 26.8672 44 24.1016 44Z" fill="#DC244C"/>
</svg>
