<svg width="49" height="48" viewBox="0 0 49 48" fill="none" xmlns="http://www.w3.org/2000/svg">
<path d="M24.1016 47.9844C27.3672 47.9844 30.4375 47.3594 33.3125 46.1094C36.2031 44.8594 38.75 43.1328 40.9531 40.9297C43.1562 38.7266 44.8828 36.1875 46.1328 33.3125C47.3828 30.4219 48.0078 27.3438 48.0078 24.0781C48.0078 20.8125 47.3828 17.7422 46.1328 14.8672C44.8828 11.9766 43.1562 9.42969 40.9531 7.22656C38.75 5.02344 36.2031 3.29687 33.3125 2.04688C30.4219 0.796875 27.3438 0.171875 24.0781 0.171875C20.8125 0.171875 17.7344 0.796875 14.8438 2.04688C11.9688 3.29687 9.42969 5.02344 7.22656 7.22656C5.03906 9.42969 3.32031 11.9766 2.07031 14.8672C0.820312 17.7422 0.195312 20.8125 0.195312 24.0781C0.195312 27.3438 0.820312 30.4219 2.07031 33.3125C3.32031 36.1875 5.04688 38.7266 7.25 40.9297C9.45312 43.1328 11.9922 44.8594 14.8672 46.1094C17.7578 47.3594 20.8359 47.9844 24.1016 47.9844ZM24.1016 44C21.3359 44 18.75 43.4844 16.3438 42.4531C13.9375 41.4219 11.8203 40 9.99219 38.1875C8.17969 36.3594 6.75781 34.2422 5.72656 31.8359C4.71094 29.4297 4.20312 26.8438 4.20312 24.0781C4.20312 21.3125 4.71094 18.7266 5.72656 16.3203C6.75781 13.9141 8.17969 11.7969 9.99219 9.96875C11.8047 8.14062 13.9141 6.71875 16.3203 5.70312C18.7266 4.67188 21.3125 4.15625 24.0781 4.15625C26.8438 4.15625 29.4297 4.67188 31.8359 5.70312C34.2422 6.71875 36.3594 8.14062 38.1875 9.96875C40.0156 11.7969 41.4453 13.9141 42.4766 16.3203C43.5078 18.7266 44.0234 21.3125 44.0234 24.0781C44.0234 26.8438 43.5078 29.4297 42.4766 31.8359C41.4609 34.2422 40.0391 36.3594 38.2109 38.1875C36.3984 40 34.2812 41.4219 31.8594 42.4531C29.4531 43.4844 26.8672 44 24.1016 44ZM24.1016 38.9375C26.1328 38.9375 28.0469 38.5469 29.8438 37.7656C31.6406 36.9844 33.2188 35.9141 34.5781 34.5547C35.9531 33.1797 37.0234 31.6016 37.7891 29.8203C38.5703 28.0234 38.9609 26.1094 38.9609 24.0781C38.9609 22.0469 38.5703 20.1328 37.7891 18.3359C37.0078 16.5391 35.9297 14.9609 34.5547 13.6016C33.1953 12.2266 31.6172 11.1484 29.8203 10.3672C28.0391 9.58594 26.1328 9.19531 24.1016 9.19531C22.0703 9.19531 20.1562 9.58594 18.3594 10.3672C16.5625 11.1484 14.9766 12.2266 13.6016 13.6016C12.2422 14.9609 11.1719 16.5391 10.3906 18.3359C9.625 20.1328 9.24219 22.0469 9.24219 24.0781C9.24219 26.1094 9.63281 28.0234 10.4141 29.8203C11.1953 31.6016 12.2656 33.1797 13.625 34.5547C15 35.9141 16.5781 36.9844 18.3594 37.7656C20.1562 38.5469 22.0703 38.9375 24.1016 38.9375ZM24.1016 35.1641C22.6016 35.1641 21.1797 34.875 19.8359 34.2969C18.5078 33.7031 17.3281 32.8984 16.2969 31.8828C15.2812 30.8516 14.4766 29.6719 13.8828 28.3438C13.3047 27 13.0156 25.5781 13.0156 24.0781C13.0156 22.5625 13.3047 21.1328 13.8828 19.7891C14.4609 18.4453 15.2578 17.2656 16.2734 16.25C17.3047 15.2188 18.4844 14.4141 19.8125 13.8359C21.1562 13.2578 22.5859 12.9688 24.1016 12.9688C25.6016 12.9688 27.0156 13.2656 28.3438 13.8594C29.6875 14.4375 30.8672 15.2422 31.8828 16.2734C32.9141 17.2891 33.7188 18.4688 34.2969 19.8125C34.8906 21.1406 35.1875 22.5625 35.1875 24.0781C35.1875 25.5938 34.8984 27.0234 34.3203 28.3672C33.7422 29.6953 32.9375 30.875 31.9062 31.9062C30.8906 32.9219 29.7109 33.7188 28.3672 34.2969C27.0391 34.875 25.6172 35.1641 24.1016 35.1641ZM24.125 30.1484C25.2344 30.1484 26.25 29.875 27.1719 29.3281C28.0938 28.7812 28.8281 28.0469 29.375 27.125C29.9219 26.2031 30.1953 25.1797 30.1953 24.0547C30.1953 22.9453 29.9219 21.9375 29.375 21.0312C28.8281 20.1094 28.0938 19.375 27.1719 18.8281C26.25 18.2812 25.2344 18.0078 24.125 18.0078C23 18.0078 21.9766 18.2812 21.0547 18.8281C20.1328 19.375 19.3984 20.1094 18.8516 21.0312C18.3047 21.9375 18.0312 22.9453 18.0312 24.0547C18.0312 25.1797 18.3047 26.2031 18.8516 27.125C19.3984 28.0469 20.1328 28.7812 21.0547 29.3281C21.9922 29.875 23.0156 30.1484 24.125 30.1484Z" fill="#DC244C"/>
</svg>
