<svg width="512" height="512" xmlns="http://www.w3.org/2000/svg" preserveAspectRatio="xMidYMid meet" version="1.0">

 <g>
  <title>Layer 1</title>
  <g id="svg_1" fill="#000000" transform="translate(0.000000,512.000000) scale(0.100000,-0.100000)">
   <path fill="#ffffff" id="svg_2" d="m1854,5024c-55,-7 -153,-27 -217,-44c-740,-190 -1307,-757 -1497,-1495c-42,-161 -60,-318 -60,-510c0,-335 64,-614 209,-910c105,-214 227,-384 400,-555c313,-310 690,-501 1137,-577c148,-25 494,-24 639,0c222,38 407,98 600,194c109,54 245,138 318,196l39,30l149,-149c103,-103 149,-156 149,-171c0,-12 10,-48 21,-80c20,-54 48,-85 398,-436c432,-434 429,-432 571,-432c73,0 93,4 141,28c66,32 132,99 162,165c16,35 22,67 22,127c0,145 9,133 -404,549c-201,202 -386,381 -410,397c-24,16 -70,34 -101,40c-56,11 -61,15 -205,159l-148,148l30,39c144,182 285,475 347,718c50,197 60,285 60,520c1,188 -3,239 -23,350c-160,898 -862,1576 -1759,1699c-139,20 -427,19 -568,0zm540,-169c840,-110 1503,-762 1632,-1605c21,-139 21,-411 0,-549c-47,-308 -161,-587 -343,-844c-75,-106 -314,-345 -420,-420c-257,-182 -536,-296 -844,-343c-138,-21 -410,-21 -549,0c-756,116 -1371,668 -1559,1399c-206,796 116,1624 803,2073c234,152 535,261 809,293c120,14 349,12 471,-4zm1446,-3526c-21,-15 -46,-42 -56,-59l-18,-30l-108,107l-108,108l57,57l58,58l107,-107l107,-106l-39,-28zm290,-114c14,-7 183,-172 377,-367c380,-381 374,-374 359,-466c-16,-104 -137,-163 -232,-114c-22,12 -187,169 -386,369c-302,304 -348,353 -358,391c-36,139 112,255 240,187z"/>
   <path fill="#ffffff" id="svg_3" d="m1981,4700c-694,-73 -1278,-544 -1486,-1202c-188,-591 -50,-1218 371,-1693c223,-252 589,-461 926,-529c200,-41 460,-45 653,-12c825,146 1434,867 1435,1701c0,200 -27,366 -90,556c-199,601 -724,1053 -1345,1159c-135,23 -347,32 -464,20zm481,-189c124,-27 278,-81 388,-136c296,-149 563,-419 707,-715c345,-712 107,-1568 -557,-2003c-396,-259 -901,-321 -1361,-167c-374,125 -714,423 -894,780c-101,200 -152,404 -162,636c-18,447 137,851 447,1165c245,247 537,397 887,454c127,21 416,13 545,-14z"/>
   <path fill="#ffffff" id="svg_4" d="m2043,4192c-69,-25 -117,-63 -158,-125c-44,-68 -831,-1476 -864,-1547c-21,-45 -26,-69 -25,-135c0,-68 4,-89 29,-138c36,-73 104,-136 176,-162c53,-19 79,-20 954,-20l900,0l56,26c109,52 179,153 187,274c2,39 -1,88 -7,110c-16,61 -876,1593 -919,1638c-82,86 -217,119 -329,79zm162,-161c22,-10 45,-24 52,-32c32,-39 874,-1557 879,-1586c12,-65 -35,-148 -99,-172c-19,-8 -305,-11 -894,-11c-955,0 -908,-3 -955,63c-30,41 -36,123 -13,168c76,149 853,1524 873,1544c44,44 98,53 157,26z"/>
   <path fill="#ffffff" id="svg_5" d="m2113,3705c-52,-22 -55,-46 -51,-467l3,-376l24,-26c33,-35 83,-35 116,-1l25,24l0,400l0,400l-22,25c-30,32 -56,38 -95,21z"/>
   <path fill="#ffffff" id="svg_6" d="m2090,2615c-48,-51 -12,-135 57,-135c44,0 83,37 83,80c0,71 -91,107 -140,55z"/>
   <path fill="#ffffff" id="svg_7" d="m1128,3938c-231,-243 -374,-581 -381,-903c-2,-94 -1,-97 26,-121c37,-32 72,-31 106,4c26,25 28,35 34,137c17,289 130,546 337,770c77,83 86,112 49,159c-16,20 -29,26 -61,26c-37,0 -46,-6 -110,-72z"/>
  </g>
 </g>
</svg>