<svg width="352" height="334" viewBox="0 0 352 334" fill="none" xmlns="http://www.w3.org/2000/svg">
<g clip-path="url(#clip0_7517_34438)">
<circle cx="105" cy="73" r="65.3693" fill="url(#paint0_linear_7517_34438)" fill-opacity="0.1" stroke="url(#paint1_linear_7517_34438)" stroke-width="0.738636"/>
<circle cx="105.001" cy="72.9993" r="43.7027" fill="url(#paint2_linear_7517_34438)" fill-opacity="0.1" stroke="url(#paint3_linear_7517_34438)" stroke-width="0.738636"/>
<circle cx="105.001" cy="73.0006" r="25.9754" fill="url(#paint4_linear_7517_34438)" stroke="url(#paint5_linear_7517_34438)" stroke-width="0.738636"/>
<path d="M103 73V70C103.002 69.4701 103.213 68.9623 103.588 68.5875C103.962 68.2128 104.47 68.0016 105 68C105.53 68.0016 106.038 68.2128 106.412 68.5875C106.787 68.9623 106.998 69.4701 107 70V73M101 73H109V78H101V73ZM114 75C114 77.3869 113.052 79.6761 111.364 81.364C109.676 83.0518 107.387 84 105 84C102.613 84 100.324 83.0518 98.636 81.364C96.9482 79.6761 96 77.3869 96 75V65L105 63L114 65V75Z" stroke="#8547FF" stroke-width="1.2" stroke-linecap="round" stroke-linejoin="round"/>
<circle cx="297" cy="84" r="65.3693" fill="url(#paint6_linear_7517_34438)" fill-opacity="0.1" stroke="url(#paint7_linear_7517_34438)" stroke-width="0.738636"/>
<circle cx="297.001" cy="83.9993" r="43.7027" fill="url(#paint8_linear_7517_34438)" fill-opacity="0.1" stroke="url(#paint9_linear_7517_34438)" stroke-width="0.738636"/>
<circle cx="297.001" cy="84.0006" r="25.9754" fill="url(#paint10_linear_7517_34438)" stroke="url(#paint11_linear_7517_34438)" stroke-width="0.738636"/>
<path d="M305 87.9C306.7 87.5 308 85.9 308 84C308 81.8 306.2 80 304 80C303.7 76.1 300.5 73 296.5 73C292.5 73 289.2 76.2 289 80.1C287.3 80.5 286 82.1 286 84C286 85.9 287.3 87.4 289 87.9" stroke="#2F6FF0" stroke-width="1.2" stroke-linecap="round" stroke-linejoin="round"/>
<path d="M293 86H301" stroke="#2F6FF0" stroke-width="1.2" stroke-linecap="round" stroke-linejoin="round"/>
<path d="M301 92H293" stroke="#2F6FF0" stroke-width="1.2" stroke-linecap="round" stroke-linejoin="round"/>
<path d="M299 84L301 86L299 88" stroke="#2F6FF0" stroke-width="1.2" stroke-linecap="round" stroke-linejoin="round"/>
<path d="M295 94L293 92L295 90" stroke="#2F6FF0" stroke-width="1.2" stroke-linecap="round" stroke-linejoin="round"/>
<circle cx="43" cy="251" r="65.3693" fill="url(#paint12_linear_7517_34438)" fill-opacity="0.1" stroke="url(#paint13_linear_7517_34438)" stroke-width="0.738636"/>
<circle cx="43.0013" cy="250.999" r="43.7027" fill="url(#paint14_linear_7517_34438)" fill-opacity="0.1" stroke="url(#paint15_linear_7517_34438)" stroke-width="0.738636"/>
<circle cx="43.0006" cy="251.001" r="25.9754" fill="url(#paint16_linear_7517_34438)" stroke="url(#paint17_linear_7517_34438)" stroke-width="0.738636"/>
<line x1="138.85" y1="283.477" x2="68.8501" y2="261.477" stroke="#3D4866"/>
<path d="M51 254.9C52.7 254.5 54 252.9 54 251C54 248.8 52.2 247 50 247C49.7 243.1 46.5 240 42.5 240C38.5 240 35.2 243.2 35 247.1C33.3 247.5 32 249.1 32 251C32 252.9 33.3 254.4 35 254.9" stroke="#038585" stroke-width="1.2" stroke-linecap="round" stroke-linejoin="round"/>
<path d="M47 254.668H39V260.668H47V254.668Z" stroke="#038585" stroke-width="1.2" stroke-linecap="round" stroke-linejoin="round"/>
<path d="M41 254.667V252C41 250.895 41.8953 250 43 250C44.1047 250 45 250.895 45 252V254.667" stroke="#038585" stroke-width="1.2" stroke-linecap="round" stroke-linejoin="round"/>
<circle cx="255.5" cy="279.5" r="116.156" fill="url(#paint18_linear_7517_34438)" fill-opacity="0.1" stroke="url(#paint19_linear_7517_34438)" stroke-width="1.3125"/>
<circle cx="255.5" cy="279.5" r="77.6562" fill="url(#paint20_linear_7517_34438)" fill-opacity="0.1" stroke="url(#paint21_linear_7517_34438)" stroke-width="1.3125"/>
<circle cx="255.5" cy="279.5" r="46.1563" fill="url(#paint22_linear_7517_34438)" stroke="url(#paint23_linear_7517_34438)" stroke-width="1.3125"/>
<g clip-path="url(#clip1_7517_34438)">
<path fill-rule="evenodd" clip-rule="evenodd" d="M273.639 270.001L273.641 270L264.979 265L256.32 260L247.659 265L239 270L239 270.001V290L247.659 295L256.321 300V300.001L261.862 296.804L261.862 296.803L261.862 296.803V290L256.321 293.2L250.604 289.9L244.89 286.601V273.402L250.604 270.103L256.321 266.803L262.035 270.103L267.751 273.402V300L267.751 300L267.752 300.002L273.641 296.603V270.002L273.639 270.001ZM256.321 286.399L261.862 283.199V276.803L256.321 273.604L250.78 276.803V283.199L256.321 286.399Z" fill="#DC244C"/>
</g>
<line x1="185.108" y1="187.061" x2="114.608" y2="98.311" stroke="#3D4866"/>
<line x1="269.029" y1="163.833" x2="288.529" y2="108.833" stroke="#3D4866"/>
</g>
<defs>
<linearGradient id="paint0_linear_7517_34438" x1="105" y1="8" x2="105" y2="138" gradientUnits="userSpaceOnUse">
<stop stop-color="#717C99"/>
<stop offset="1" stop-color="#717C99" stop-opacity="0"/>
</linearGradient>
<linearGradient id="paint1_linear_7517_34438" x1="105" y1="8" x2="105" y2="138" gradientUnits="userSpaceOnUse">
<stop stop-color="#28324D"/>
<stop offset="1" stop-color="#161E33" stop-opacity="0.2"/>
</linearGradient>
<linearGradient id="paint2_linear_7517_34438" x1="105.001" y1="29.666" x2="105.001" y2="129.874" gradientUnits="userSpaceOnUse">
<stop stop-color="#717C99"/>
<stop offset="1" stop-color="#717C99" stop-opacity="0"/>
</linearGradient>
<linearGradient id="paint3_linear_7517_34438" x1="105.001" y1="29.666" x2="105.001" y2="116.333" gradientUnits="userSpaceOnUse">
<stop stop-color="#28324D"/>
<stop offset="1" stop-color="#161E33" stop-opacity="0.2"/>
</linearGradient>
<linearGradient id="paint4_linear_7517_34438" x1="105.001" y1="47.3945" x2="105.001" y2="98.6067" gradientUnits="userSpaceOnUse">
<stop stop-color="#28324D"/>
<stop offset="1" stop-color="#141B2E"/>
</linearGradient>
<linearGradient id="paint5_linear_7517_34438" x1="105.001" y1="47.3945" x2="105.001" y2="98.6067" gradientUnits="userSpaceOnUse">
<stop stop-color="#3D4866"/>
<stop offset="1" stop-color="#161E33" stop-opacity="0.2"/>
</linearGradient>
<linearGradient id="paint6_linear_7517_34438" x1="297" y1="19" x2="297" y2="149" gradientUnits="userSpaceOnUse">
<stop stop-color="#717C99"/>
<stop offset="1" stop-color="#717C99" stop-opacity="0"/>
</linearGradient>
<linearGradient id="paint7_linear_7517_34438" x1="297" y1="19" x2="297" y2="149" gradientUnits="userSpaceOnUse">
<stop stop-color="#28324D"/>
<stop offset="1" stop-color="#161E33" stop-opacity="0.2"/>
</linearGradient>
<linearGradient id="paint8_linear_7517_34438" x1="297.001" y1="40.666" x2="297.001" y2="140.874" gradientUnits="userSpaceOnUse">
<stop stop-color="#717C99"/>
<stop offset="1" stop-color="#717C99" stop-opacity="0"/>
</linearGradient>
<linearGradient id="paint9_linear_7517_34438" x1="297.001" y1="40.666" x2="297.001" y2="127.333" gradientUnits="userSpaceOnUse">
<stop stop-color="#28324D"/>
<stop offset="1" stop-color="#161E33" stop-opacity="0.2"/>
</linearGradient>
<linearGradient id="paint10_linear_7517_34438" x1="297.001" y1="58.3945" x2="297.001" y2="109.607" gradientUnits="userSpaceOnUse">
<stop stop-color="#28324D"/>
<stop offset="1" stop-color="#141B2E"/>
</linearGradient>
<linearGradient id="paint11_linear_7517_34438" x1="297.001" y1="58.3945" x2="297.001" y2="109.607" gradientUnits="userSpaceOnUse">
<stop stop-color="#3D4866"/>
<stop offset="1" stop-color="#161E33" stop-opacity="0.2"/>
</linearGradient>
<linearGradient id="paint12_linear_7517_34438" x1="43" y1="186" x2="43" y2="316" gradientUnits="userSpaceOnUse">
<stop stop-color="#717C99"/>
<stop offset="1" stop-color="#717C99" stop-opacity="0"/>
</linearGradient>
<linearGradient id="paint13_linear_7517_34438" x1="43" y1="186" x2="43" y2="316" gradientUnits="userSpaceOnUse">
<stop stop-color="#28324D"/>
<stop offset="1" stop-color="#161E33" stop-opacity="0.2"/>
</linearGradient>
<linearGradient id="paint14_linear_7517_34438" x1="43.0013" y1="207.666" x2="43.0013" y2="307.874" gradientUnits="userSpaceOnUse">
<stop stop-color="#717C99"/>
<stop offset="1" stop-color="#717C99" stop-opacity="0"/>
</linearGradient>
<linearGradient id="paint15_linear_7517_34438" x1="43.0013" y1="207.666" x2="43.0013" y2="294.333" gradientUnits="userSpaceOnUse">
<stop stop-color="#28324D"/>
<stop offset="1" stop-color="#161E33" stop-opacity="0.2"/>
</linearGradient>
<linearGradient id="paint16_linear_7517_34438" x1="43.0006" y1="225.395" x2="43.0006" y2="276.607" gradientUnits="userSpaceOnUse">
<stop stop-color="#28324D"/>
<stop offset="1" stop-color="#141B2E"/>
</linearGradient>
<linearGradient id="paint17_linear_7517_34438" x1="43.0006" y1="225.395" x2="43.0006" y2="276.607" gradientUnits="userSpaceOnUse">
<stop stop-color="#3D4866"/>
<stop offset="1" stop-color="#161E33" stop-opacity="0.2"/>
</linearGradient>
<linearGradient id="paint18_linear_7517_34438" x1="255.5" y1="164" x2="255.5" y2="395" gradientUnits="userSpaceOnUse">
<stop stop-color="#717C99"/>
<stop offset="1" stop-color="#717C99" stop-opacity="0"/>
</linearGradient>
<linearGradient id="paint19_linear_7517_34438" x1="255.5" y1="164" x2="255.5" y2="395" gradientUnits="userSpaceOnUse">
<stop stop-color="#28324D"/>
<stop offset="1" stop-color="#161E33" stop-opacity="0.2"/>
</linearGradient>
<linearGradient id="paint20_linear_7517_34438" x1="255.5" y1="202.5" x2="255.5" y2="380.562" gradientUnits="userSpaceOnUse">
<stop stop-color="#717C99"/>
<stop offset="1" stop-color="#717C99" stop-opacity="0"/>
</linearGradient>
<linearGradient id="paint21_linear_7517_34438" x1="255.5" y1="202.5" x2="255.5" y2="356.5" gradientUnits="userSpaceOnUse">
<stop stop-color="#28324D"/>
<stop offset="1" stop-color="#161E33" stop-opacity="0.2"/>
</linearGradient>
<linearGradient id="paint22_linear_7517_34438" x1="255.5" y1="234" x2="255.5" y2="325" gradientUnits="userSpaceOnUse">
<stop stop-color="#28324D"/>
<stop offset="1" stop-color="#141B2E"/>
</linearGradient>
<linearGradient id="paint23_linear_7517_34438" x1="255.5" y1="234" x2="255.5" y2="325" gradientUnits="userSpaceOnUse">
<stop stop-color="#3D4866"/>
<stop offset="1" stop-color="#161E33" stop-opacity="0.2"/>
</linearGradient>
<clipPath id="clip0_7517_34438">
<rect width="352" height="334" fill="white"/>
</clipPath>
<clipPath id="clip1_7517_34438">
<rect width="34.5" height="40" fill="white" transform="translate(239 260)"/>
</clipPath>
</defs>
</svg>
