<svg width="734" height="159" viewBox="0 0 734 159" fill="none" xmlns="http://www.w3.org/2000/svg">
<line x1="279" y1="74.5" x2="187" y2="74.5" stroke="#3D4866"/>
<line x1="366" y1="74.5" x2="279" y2="74.5" stroke="#3D4866"/>
<path d="M365.5 18L279.5 74.5" stroke="#3D4866"/>
<path d="M365.5 129L279.5 74.5" stroke="#3D4866"/>
<rect x="350.5" y="0.5" width="321" height="39" rx="8.5" fill="url(#paint0_linear_7517_34400)"/>
<rect x="350.5" y="0.5" width="321" height="39" rx="8.5" stroke="url(#paint1_linear_7517_34400)"/>
<path d="M368.5 17H383.5M372.25 26H370C369.172 26 368.5 25.3284 368.5 24.5V15.5C368.5 14.6716 369.172 14 370 14H382C382.828 14 383.5 14.6716 383.5 15.5V20.75M379.75 26C379.75 27.2427 380.757 28.25 382 28.25C383.243 28.25 384.25 27.2427 384.25 26C384.25 24.7573 383.243 23.75 382 23.75C380.757 23.75 379.75 24.7573 379.75 26ZM379.75 26H375.25M376 26V27.5" stroke="#2F6FF0" stroke-width="1.5" stroke-linecap="round" stroke-linejoin="round"/>
<path d="M408.224 25.5H402.218V15.476H408.21V16.4H403.226V20.012H407.748V20.922H403.226V24.576H408.224V25.5ZM411.027 25.5H410.061V18.724H410.901L411.041 19.9C411.489 19.032 412.385 18.542 413.365 18.542C415.227 18.542 415.997 19.648 415.997 21.356V25.5H415.031V21.566C415.031 19.984 414.317 19.424 413.197 19.424C411.811 19.424 411.027 20.432 411.027 21.958V25.5ZM419.476 25.5H418.524V19.536H417.166V18.724H418.524V16.582H419.476V18.724H420.834V19.536H419.476V25.5ZM424.866 25.668C422.878 25.668 421.548 24.24 421.548 22.112C421.548 19.998 422.864 18.542 424.796 18.542C426.63 18.542 427.876 19.844 427.876 21.762V22.238H422.486C422.556 23.89 423.424 24.842 424.88 24.842C425.986 24.842 426.7 24.366 426.952 23.47H427.876C427.512 24.898 426.462 25.668 424.866 25.668ZM424.796 19.368C423.522 19.368 422.682 20.208 422.514 21.538H426.91C426.91 20.236 426.07 19.368 424.796 19.368ZM432.962 18.64V19.508H432.43C431.184 19.508 430.386 20.348 430.386 21.636V25.5H429.42V18.724H430.33L430.4 19.774C430.666 19.046 431.38 18.57 432.332 18.57C432.542 18.57 432.724 18.584 432.962 18.64ZM434.246 28.454V18.724H435.086L435.184 20.096C435.66 19.046 436.612 18.542 437.746 18.542C439.706 18.542 440.882 20.04 440.882 22.084C440.882 24.128 439.748 25.668 437.746 25.668C436.598 25.668 435.688 25.178 435.212 24.198V28.454H434.246ZM435.226 22.112C435.226 23.666 436.094 24.8 437.578 24.8C439.048 24.8 439.902 23.666 439.902 22.112C439.902 20.544 439.048 19.424 437.578 19.424C436.094 19.424 435.226 20.544 435.226 22.112ZM445.964 18.64V19.508H445.432C444.186 19.508 443.388 20.348 443.388 21.636V25.5H442.422V18.724H443.332L443.402 19.774C443.668 19.046 444.382 18.57 445.334 18.57C445.544 18.57 445.726 18.584 445.964 18.64ZM447.724 16.862C447.332 16.862 447.01 16.54 447.01 16.148C447.01 15.756 447.332 15.42 447.724 15.42C448.116 15.42 448.452 15.756 448.452 16.148C448.452 16.54 448.116 16.862 447.724 16.862ZM447.248 25.5V18.724H448.214V25.5H447.248ZM449.655 23.596H450.579C450.579 24.38 451.167 24.87 452.119 24.87C453.169 24.87 453.785 24.422 453.785 23.694C453.785 23.134 453.505 22.812 452.707 22.616L451.545 22.322C450.369 22.028 449.795 21.412 449.795 20.488C449.795 19.298 450.789 18.542 452.245 18.542C453.673 18.542 454.597 19.326 454.639 20.586H453.701C453.673 19.802 453.127 19.34 452.217 19.34C451.265 19.34 450.733 19.746 450.733 20.474C450.733 20.992 451.097 21.356 451.839 21.538L453.001 21.832C454.177 22.126 454.709 22.672 454.709 23.652C454.709 24.87 453.673 25.668 452.133 25.668C450.607 25.668 449.655 24.856 449.655 23.596ZM459.141 25.668C457.153 25.668 455.823 24.24 455.823 22.112C455.823 19.998 457.139 18.542 459.071 18.542C460.905 18.542 462.151 19.844 462.151 21.762V22.238H456.761C456.831 23.89 457.699 24.842 459.155 24.842C460.261 24.842 460.975 24.366 461.227 23.47H462.151C461.787 24.898 460.737 25.668 459.141 25.668ZM459.071 19.368C457.797 19.368 456.957 20.208 456.789 21.538H461.185C461.185 20.236 460.345 19.368 459.071 19.368ZM467.186 18.08C467.186 16.4 468.53 15.294 470.546 15.294C472.352 15.294 473.542 16.302 473.696 17.982H472.674C472.562 16.848 471.792 16.204 470.532 16.204C469.118 16.204 468.194 16.932 468.194 18.066C468.194 18.948 468.712 19.508 469.762 19.774L471.484 20.194C473.052 20.572 473.864 21.468 473.864 22.826C473.864 24.562 472.52 25.668 470.448 25.668C468.502 25.668 467.186 24.646 467.06 23.008H468.096C468.152 24.058 469.076 24.744 470.448 24.744C471.918 24.744 472.856 24.03 472.856 22.882C472.856 21.986 472.352 21.398 471.274 21.146L469.58 20.726C468.012 20.348 467.186 19.452 467.186 18.08ZM475.102 18.08C475.102 16.4 476.446 15.294 478.462 15.294C480.268 15.294 481.458 16.302 481.612 17.982H480.59C480.478 16.848 479.708 16.204 478.448 16.204C477.034 16.204 476.11 16.932 476.11 18.066C476.11 18.948 476.628 19.508 477.678 19.774L479.4 20.194C480.968 20.572 481.78 21.468 481.78 22.826C481.78 24.562 480.436 25.668 478.364 25.668C476.418 25.668 475.102 24.646 474.976 23.008H476.012C476.068 24.058 476.992 24.744 478.364 24.744C479.834 24.744 480.772 24.03 480.772 22.882C480.772 21.986 480.268 21.398 479.19 21.146L477.496 20.726C475.928 20.348 475.102 19.452 475.102 18.08ZM492.525 20.488C492.525 23.526 490.551 25.668 487.751 25.668C484.937 25.668 482.977 23.526 482.977 20.488C482.977 17.45 484.951 15.294 487.751 15.294C490.565 15.294 492.525 17.436 492.525 20.488ZM491.489 20.488C491.489 17.982 489.963 16.274 487.751 16.274C485.539 16.274 484.027 17.982 484.027 20.488C484.027 22.994 485.539 24.702 487.751 24.702C489.963 24.702 491.489 22.98 491.489 20.488ZM500.574 27.698H499.692C498.516 26.088 497.746 23.708 497.746 21.3C497.746 18.99 498.488 16.582 499.692 14.916H500.574C499.496 16.428 498.74 18.78 498.74 21.3C498.74 23.764 499.468 26.158 500.574 27.698ZM501.188 18.08C501.188 16.4 502.532 15.294 504.548 15.294C506.354 15.294 507.544 16.302 507.698 17.982H506.676C506.564 16.848 505.794 16.204 504.534 16.204C503.12 16.204 502.196 16.932 502.196 18.066C502.196 18.948 502.714 19.508 503.764 19.774L505.486 20.194C507.054 20.572 507.866 21.468 507.866 22.826C507.866 24.562 506.522 25.668 504.45 25.668C502.504 25.668 501.188 24.646 501.062 23.008H502.098C502.154 24.058 503.078 24.744 504.45 24.744C505.92 24.744 506.858 24.03 506.858 22.882C506.858 21.986 506.354 21.398 505.276 21.146L503.582 20.726C502.014 20.348 501.188 19.452 501.188 18.08ZM509.945 16.862C509.553 16.862 509.231 16.54 509.231 16.148C509.231 15.756 509.553 15.42 509.945 15.42C510.337 15.42 510.673 15.756 510.673 16.148C510.673 16.54 510.337 16.862 509.945 16.862ZM509.469 25.5V18.724H510.435V25.5H509.469ZM513.415 25.5H512.449V18.724H513.289L513.429 19.9C513.877 19.032 514.773 18.542 515.753 18.542C517.615 18.542 518.385 19.648 518.385 21.356V25.5H517.419V21.566C517.419 19.984 516.705 19.424 515.585 19.424C514.199 19.424 513.415 20.432 513.415 21.958V25.5ZM519.849 21.916C519.849 20.068 521.039 18.542 523.027 18.542C524.203 18.542 525.099 19.088 525.533 20.082L525.631 18.724H526.471V25.29C526.471 27.306 525.183 28.622 523.195 28.622C521.459 28.622 520.241 27.642 519.975 26.004H520.941C521.151 27.096 521.991 27.74 523.209 27.74C524.595 27.74 525.519 26.802 525.519 25.388V23.778C525.057 24.73 524.119 25.29 522.957 25.29C521.025 25.29 519.849 23.764 519.849 21.916ZM520.815 21.902C520.815 23.288 521.669 24.422 523.097 24.422C524.567 24.422 525.435 23.358 525.435 21.902C525.435 20.46 524.595 19.396 523.111 19.396C521.655 19.396 520.815 20.53 520.815 21.902ZM529.495 25.5H528.529V15.294H529.495V25.5ZM534.391 25.668C532.403 25.668 531.073 24.24 531.073 22.112C531.073 19.998 532.389 18.542 534.321 18.542C536.155 18.542 537.401 19.844 537.401 21.762V22.238H532.011C532.081 23.89 532.949 24.842 534.405 24.842C535.511 24.842 536.225 24.366 536.477 23.47H537.401C537.037 24.898 535.987 25.668 534.391 25.668ZM534.321 19.368C533.047 19.368 532.207 20.208 532.039 21.538H536.435C536.435 20.236 535.595 19.368 534.321 19.368ZM542.254 23.596H543.178C543.178 24.38 543.766 24.87 544.718 24.87C545.768 24.87 546.384 24.422 546.384 23.694C546.384 23.134 546.104 22.812 545.306 22.616L544.144 22.322C542.968 22.028 542.394 21.412 542.394 20.488C542.394 19.298 543.388 18.542 544.844 18.542C546.272 18.542 547.196 19.326 547.238 20.586H546.3C546.272 19.802 545.726 19.34 544.816 19.34C543.864 19.34 543.332 19.746 543.332 20.474C543.332 20.992 543.696 21.356 544.438 21.538L545.6 21.832C546.776 22.126 547.308 22.672 547.308 23.652C547.308 24.87 546.272 25.668 544.732 25.668C543.206 25.668 542.254 24.856 542.254 23.596ZM549.375 16.862C548.983 16.862 548.661 16.54 548.661 16.148C548.661 15.756 548.983 15.42 549.375 15.42C549.767 15.42 550.103 15.756 550.103 16.148C550.103 16.54 549.767 16.862 549.375 16.862ZM548.899 25.5V18.724H549.865V25.5H548.899ZM551.417 21.916C551.417 20.068 552.607 18.542 554.595 18.542C555.771 18.542 556.667 19.088 557.101 20.082L557.199 18.724H558.039V25.29C558.039 27.306 556.751 28.622 554.763 28.622C553.027 28.622 551.809 27.642 551.543 26.004H552.509C552.719 27.096 553.559 27.74 554.777 27.74C556.163 27.74 557.087 26.802 557.087 25.388V23.778C556.625 24.73 555.687 25.29 554.525 25.29C552.593 25.29 551.417 23.764 551.417 21.916ZM552.383 21.902C552.383 23.288 553.237 24.422 554.665 24.422C556.135 24.422 557.003 23.358 557.003 21.902C557.003 20.46 556.163 19.396 554.679 19.396C553.223 19.396 552.383 20.53 552.383 21.902ZM561.021 25.5H560.055V18.724H560.895L561.035 19.9C561.483 19.032 562.379 18.542 563.359 18.542C565.221 18.542 565.991 19.648 565.991 21.356V25.5H565.025V21.566C565.025 19.984 564.311 19.424 563.191 19.424C561.805 19.424 561.021 20.432 561.021 21.958V25.5ZM567.804 22.252V21.384H571.864V22.252H567.804ZM573.292 22.112C573.292 20.04 574.748 18.542 576.736 18.542C578.724 18.542 580.18 20.04 580.18 22.112C580.18 24.17 578.724 25.668 576.736 25.668C574.748 25.668 573.292 24.17 573.292 22.112ZM574.272 22.098C574.272 23.694 575.28 24.8 576.736 24.8C578.178 24.8 579.2 23.694 579.2 22.098C579.2 20.53 578.178 19.41 576.736 19.41C575.28 19.41 574.272 20.53 574.272 22.098ZM582.691 25.5H581.725V18.724H582.565L582.705 19.9C583.153 19.032 584.049 18.542 585.029 18.542C586.891 18.542 587.661 19.648 587.661 21.356V25.5H586.695V21.566C586.695 19.984 585.981 19.424 584.861 19.424C583.475 19.424 582.691 20.432 582.691 21.958V25.5ZM589.46 27.698H588.578C589.684 26.158 590.426 23.764 590.426 21.3C590.426 18.78 589.656 16.428 588.578 14.916H589.46C590.678 16.582 591.406 18.99 591.406 21.3C591.406 23.708 590.636 26.088 589.46 27.698Z" fill="#8F98B3"/>
<path d="M359 54.5C354.306 54.5 350.5 58.3056 350.5 63V85C350.5 89.6944 354.306 93.5 359 93.5H663C667.694 93.5 671.5 89.6944 671.5 85V63C671.5 58.3056 667.694 54.5 663 54.5H359Z" fill="url(#paint2_linear_7517_34400)"/>
<path d="M359 54.5C354.306 54.5 350.5 58.3056 350.5 63V85C350.5 89.6944 354.306 93.5 359 93.5H663C667.694 93.5 671.5 89.6944 671.5 85V63C671.5 58.3056 667.694 54.5 663 54.5H359Z" stroke="url(#paint3_linear_7517_34400)"/>
<path d="M380.199 77.8972C381.275 78.5185 381.643 79.8946 381.022 80.9707C380.401 82.0468 379.025 82.4156 377.949 81.7942C376.872 81.1729 376.504 79.7968 377.125 78.7207C377.746 77.6446 379.122 77.2759 380.199 77.8972ZM380.199 77.8972L382.449 74M382.074 74.6495L383.373 75.3995M377.028 75.018C376.466 74.8438 375.869 74.75 375.25 74.75C371.936 74.75 369.25 77.4365 369.25 80.75C370.875 81.1561 372.5 81.3973 374.125 81.4734M375.25 72.5C376.907 72.5 378.25 71.1569 378.25 69.5C378.25 67.8431 376.907 66.5 375.25 66.5C373.593 66.5 372.25 67.8431 372.25 69.5C372.25 71.1569 373.593 72.5 375.25 72.5Z" stroke="#8547FF" stroke-width="1.5" stroke-linecap="round" stroke-linejoin="round"/>
<path d="M406.306 79.654C403.506 79.654 401.602 77.568 401.602 74.488C401.602 71.408 403.534 69.308 406.362 69.308C408.518 69.308 410.212 70.61 410.618 72.598H409.54C409.12 71.156 407.888 70.274 406.32 70.274C404.122 70.274 402.652 71.954 402.652 74.488C402.652 77.008 404.122 78.688 406.32 78.688C407.902 78.688 409.162 77.834 409.596 76.49H410.674C410.212 78.38 408.462 79.654 406.306 79.654ZM413.147 79.5H412.181V69.294H413.147V79.5ZM414.725 76.112C414.725 74.04 416.181 72.542 418.169 72.542C420.157 72.542 421.613 74.04 421.613 76.112C421.613 78.17 420.157 79.668 418.169 79.668C416.181 79.668 414.725 78.17 414.725 76.112ZM415.705 76.098C415.705 77.694 416.713 78.8 418.169 78.8C419.611 78.8 420.633 77.694 420.633 76.098C420.633 74.53 419.611 73.41 418.169 73.41C416.713 73.41 415.705 74.53 415.705 76.098ZM427.754 72.724H428.72V79.5H427.88L427.754 78.352C427.376 79.136 426.438 79.668 425.374 79.668C423.778 79.668 422.91 78.576 422.91 76.924V72.71H423.89V76.616C423.89 78.226 424.604 78.8 425.682 78.8C426.984 78.8 427.754 77.932 427.754 76.322V72.724ZM433.256 79.668C431.282 79.668 430.12 78.156 430.12 76.126C430.12 74.082 431.282 72.542 433.298 72.542C434.418 72.542 435.314 73.032 435.79 74.012V69.294H436.756V79.5H435.916L435.818 78.114C435.342 79.164 434.39 79.668 433.256 79.668ZM433.424 78.786C434.908 78.786 435.776 77.666 435.776 76.098C435.776 74.544 434.908 73.41 433.424 73.41C431.954 73.41 431.1 74.544 431.1 76.098C431.1 77.666 431.954 78.786 433.424 78.786ZM443.872 79.5H442.864V69.476H446.602C448.632 69.476 449.864 70.596 449.864 72.374C449.864 73.816 449.108 74.824 447.82 75.174L449.962 79.5H448.842L446.798 75.342H443.872V79.5ZM443.872 70.386V74.432H446.63C448.016 74.432 448.828 73.676 448.828 72.402C448.828 71.1 447.974 70.386 446.602 70.386H443.872ZM451.82 79.5V69.476H455.488C457.42 69.476 458.61 70.456 458.61 72.066C458.61 73.242 458.092 74.04 457.056 74.446C458.218 74.824 458.806 75.636 458.806 76.868C458.806 78.478 457.602 79.5 455.698 79.5H451.82ZM455.474 70.372H452.828V74.04H455.6C456.86 74.04 457.574 73.34 457.574 72.15C457.574 71.03 456.818 70.372 455.474 70.372ZM455.698 74.922H452.828V78.59H455.698C457.014 78.59 457.784 77.904 457.784 76.742C457.784 75.608 457 74.922 455.698 74.922ZM460.488 79.5H459.466L463.148 69.476H464.394L468.118 79.5H467.068L466.088 76.84H461.468L460.488 79.5ZM463.638 70.89L461.776 75.958H465.766L463.89 70.89C463.848 70.75 463.778 70.582 463.764 70.484C463.75 70.568 463.694 70.75 463.638 70.89ZM473.202 79.654C470.402 79.654 468.498 77.568 468.498 74.488C468.498 71.408 470.43 69.308 473.258 69.308C475.414 69.308 477.108 70.61 477.514 72.598H476.436C476.016 71.156 474.784 70.274 473.216 70.274C471.018 70.274 469.548 71.954 469.548 74.488C469.548 77.008 471.018 78.688 473.216 78.688C474.798 78.688 476.058 77.834 476.492 76.49H477.57C477.108 78.38 475.358 79.654 473.202 79.654ZM485.535 81.698H484.653C483.477 80.088 482.707 77.708 482.707 75.3C482.707 72.99 483.449 70.582 484.653 68.916H485.535C484.457 70.428 483.701 72.78 483.701 75.3C483.701 77.764 484.429 80.158 485.535 81.698ZM490.083 72.64V73.508H489.551C488.305 73.508 487.507 74.348 487.507 75.636V79.5H486.541V72.724H487.451L487.521 73.774C487.787 73.046 488.501 72.57 489.453 72.57C489.663 72.57 489.845 72.584 490.083 72.64ZM490.632 76.112C490.632 74.04 492.088 72.542 494.076 72.542C496.064 72.542 497.52 74.04 497.52 76.112C497.52 78.17 496.064 79.668 494.076 79.668C492.088 79.668 490.632 78.17 490.632 76.112ZM491.612 76.098C491.612 77.694 492.62 78.8 494.076 78.8C495.518 78.8 496.54 77.694 496.54 76.098C496.54 74.53 495.518 73.41 494.076 73.41C492.62 73.41 491.612 74.53 491.612 76.098ZM500.073 79.5H499.107V69.294H500.073V79.5ZM504.969 79.668C502.981 79.668 501.651 78.24 501.651 76.112C501.651 73.998 502.967 72.542 504.899 72.542C506.733 72.542 507.979 73.844 507.979 75.762V76.238H502.589C502.659 77.89 503.527 78.842 504.983 78.842C506.089 78.842 506.803 78.366 507.055 77.47H507.979C507.615 78.898 506.565 79.668 504.969 79.668ZM504.899 73.368C503.625 73.368 502.785 74.208 502.617 75.538H507.013C507.013 74.236 506.173 73.368 504.899 73.368ZM509.412 76.252V75.384H513.472V76.252H509.412ZM516.215 79.5H515.375V69.294H516.341V74.04C516.817 73.046 517.741 72.542 518.889 72.542C520.863 72.542 522.011 74.082 522.011 76.126C522.011 78.156 520.835 79.668 518.861 79.668C517.727 79.668 516.789 79.164 516.313 78.114L516.215 79.5ZM516.355 76.098C516.355 77.666 517.223 78.786 518.707 78.786C520.177 78.786 521.031 77.666 521.031 76.098C521.031 74.544 520.177 73.41 518.707 73.41C517.223 73.41 516.355 74.544 516.355 76.098ZM525.497 79.668C524.055 79.668 523.201 78.856 523.201 77.666C523.201 76.42 524.153 75.636 525.735 75.51L527.975 75.328V75.104C527.975 73.774 527.177 73.354 526.183 73.354C525.007 73.354 524.307 73.886 524.307 74.796H523.425C523.425 73.424 524.545 72.542 526.211 72.542C527.779 72.542 528.927 73.326 528.927 75.118V79.5H528.115L527.989 78.31C527.569 79.164 526.645 79.668 525.497 79.668ZM525.721 78.884C527.149 78.884 527.975 77.89 527.975 76.42V76.056L525.973 76.21C524.699 76.322 524.181 76.882 524.181 77.638C524.181 78.464 524.797 78.884 525.721 78.884ZM530.291 77.596H531.215C531.215 78.38 531.803 78.87 532.755 78.87C533.805 78.87 534.421 78.422 534.421 77.694C534.421 77.134 534.141 76.812 533.343 76.616L532.181 76.322C531.005 76.028 530.431 75.412 530.431 74.488C530.431 73.298 531.425 72.542 532.881 72.542C534.309 72.542 535.233 73.326 535.275 74.586H534.337C534.309 73.802 533.763 73.34 532.853 73.34C531.901 73.34 531.369 73.746 531.369 74.474C531.369 74.992 531.733 75.356 532.475 75.538L533.637 75.832C534.813 76.126 535.345 76.672 535.345 77.652C535.345 78.87 534.309 79.668 532.769 79.668C531.243 79.668 530.291 78.856 530.291 77.596ZM539.778 79.668C537.79 79.668 536.46 78.24 536.46 76.112C536.46 73.998 537.776 72.542 539.708 72.542C541.542 72.542 542.788 73.844 542.788 75.762V76.238H537.398C537.468 77.89 538.336 78.842 539.792 78.842C540.898 78.842 541.612 78.366 541.864 77.47H542.788C542.424 78.898 541.374 79.668 539.778 79.668ZM539.708 73.368C538.434 73.368 537.594 74.208 537.426 75.538H541.822C541.822 74.236 540.982 73.368 539.708 73.368ZM546.992 79.668C545.018 79.668 543.856 78.156 543.856 76.126C543.856 74.082 545.018 72.542 547.034 72.542C548.154 72.542 549.05 73.032 549.526 74.012V69.294H550.492V79.5H549.652L549.554 78.114C549.078 79.164 548.126 79.668 546.992 79.668ZM547.16 78.786C548.644 78.786 549.512 77.666 549.512 76.098C549.512 74.544 548.644 73.41 547.16 73.41C545.69 73.41 544.836 74.544 544.836 76.098C544.836 77.666 545.69 78.786 547.16 78.786ZM558.337 79.668C556.895 79.668 556.041 78.856 556.041 77.666C556.041 76.42 556.993 75.636 558.575 75.51L560.815 75.328V75.104C560.815 73.774 560.017 73.354 559.023 73.354C557.847 73.354 557.147 73.886 557.147 74.796H556.265C556.265 73.424 557.385 72.542 559.051 72.542C560.619 72.542 561.767 73.326 561.767 75.118V79.5H560.955L560.829 78.31C560.409 79.164 559.485 79.668 558.337 79.668ZM558.561 78.884C559.989 78.884 560.815 77.89 560.815 76.42V76.056L558.813 76.21C557.539 76.322 557.021 76.882 557.021 77.638C557.021 78.464 557.637 78.884 558.561 78.884ZM563.229 76.126C563.229 73.998 564.531 72.542 566.505 72.542C568.073 72.542 569.221 73.452 569.487 74.852H568.521C568.269 73.914 567.457 73.396 566.519 73.396C565.147 73.396 564.181 74.446 564.181 76.112C564.181 77.722 565.077 78.8 566.449 78.8C567.457 78.8 568.269 78.24 568.535 77.372H569.515C569.193 78.758 567.989 79.668 566.449 79.668C564.531 79.668 563.229 78.254 563.229 76.126ZM570.503 76.126C570.503 73.998 571.805 72.542 573.779 72.542C575.347 72.542 576.495 73.452 576.761 74.852H575.795C575.543 73.914 574.731 73.396 573.793 73.396C572.421 73.396 571.455 74.446 571.455 76.112C571.455 77.722 572.351 78.8 573.723 78.8C574.731 78.8 575.543 78.24 575.809 77.372H576.789C576.467 78.758 575.263 79.668 573.723 79.668C571.805 79.668 570.503 78.254 570.503 76.126ZM581.094 79.668C579.106 79.668 577.776 78.24 577.776 76.112C577.776 73.998 579.092 72.542 581.024 72.542C582.858 72.542 584.104 73.844 584.104 75.762V76.238H578.714C578.784 77.89 579.652 78.842 581.108 78.842C582.214 78.842 582.928 78.366 583.18 77.47H584.104C583.74 78.898 582.69 79.668 581.094 79.668ZM581.024 73.368C579.75 73.368 578.91 74.208 578.742 75.538H583.138C583.138 74.236 582.298 73.368 581.024 73.368ZM585.075 77.596H585.999C585.999 78.38 586.587 78.87 587.539 78.87C588.589 78.87 589.205 78.422 589.205 77.694C589.205 77.134 588.925 76.812 588.127 76.616L586.965 76.322C585.789 76.028 585.215 75.412 585.215 74.488C585.215 73.298 586.209 72.542 587.665 72.542C589.093 72.542 590.017 73.326 590.059 74.586H589.121C589.093 73.802 588.547 73.34 587.637 73.34C586.685 73.34 586.153 73.746 586.153 74.474C586.153 74.992 586.517 75.356 587.259 75.538L588.421 75.832C589.597 76.126 590.129 76.672 590.129 77.652C590.129 78.87 589.093 79.668 587.553 79.668C586.027 79.668 585.075 78.856 585.075 77.596ZM591.145 77.596H592.069C592.069 78.38 592.657 78.87 593.609 78.87C594.659 78.87 595.275 78.422 595.275 77.694C595.275 77.134 594.995 76.812 594.197 76.616L593.035 76.322C591.859 76.028 591.285 75.412 591.285 74.488C591.285 73.298 592.279 72.542 593.735 72.542C595.163 72.542 596.087 73.326 596.129 74.586H595.191C595.163 73.802 594.617 73.34 593.707 73.34C592.755 73.34 592.223 73.746 592.223 74.474C592.223 74.992 592.587 75.356 593.329 75.538L594.491 75.832C595.667 76.126 596.199 76.672 596.199 77.652C596.199 78.87 595.163 79.668 593.623 79.668C592.097 79.668 591.145 78.856 591.145 77.596ZM601.196 76.126C601.196 73.998 602.498 72.542 604.472 72.542C606.04 72.542 607.188 73.452 607.454 74.852H606.488C606.236 73.914 605.424 73.396 604.486 73.396C603.114 73.396 602.148 74.446 602.148 76.112C602.148 77.722 603.044 78.8 604.416 78.8C605.424 78.8 606.236 78.24 606.502 77.372H607.482C607.16 78.758 605.956 79.668 604.416 79.668C602.498 79.668 601.196 78.254 601.196 76.126ZM608.47 76.112C608.47 74.04 609.926 72.542 611.914 72.542C613.902 72.542 615.358 74.04 615.358 76.112C615.358 78.17 613.902 79.668 611.914 79.668C609.926 79.668 608.47 78.17 608.47 76.112ZM609.45 76.098C609.45 77.694 610.458 78.8 611.914 78.8C613.356 78.8 614.378 77.694 614.378 76.098C614.378 74.53 613.356 73.41 611.914 73.41C610.458 73.41 609.45 74.53 609.45 76.098ZM617.869 79.5H616.903V72.724H617.743L617.883 73.9C618.331 73.032 619.227 72.542 620.207 72.542C622.069 72.542 622.839 73.648 622.839 75.356V79.5H621.873V75.566C621.873 73.984 621.159 73.424 620.039 73.424C618.653 73.424 617.869 74.432 617.869 75.958V79.5ZM626.318 79.5H625.366V73.536H624.008V72.724H625.366V70.582H626.318V72.724H627.676V73.536H626.318V79.5ZM632.476 72.64V73.508H631.944C630.698 73.508 629.9 74.348 629.9 75.636V79.5H628.934V72.724H629.844L629.914 73.774C630.18 73.046 630.894 72.57 631.846 72.57C632.056 72.57 632.238 72.584 632.476 72.64ZM633.024 76.112C633.024 74.04 634.48 72.542 636.468 72.542C638.456 72.542 639.912 74.04 639.912 76.112C639.912 78.17 638.456 79.668 636.468 79.668C634.48 79.668 633.024 78.17 633.024 76.112ZM634.004 76.098C634.004 77.694 635.012 78.8 636.468 78.8C637.91 78.8 638.932 77.694 638.932 76.098C638.932 74.53 637.91 73.41 636.468 73.41C635.012 73.41 634.004 74.53 634.004 76.098ZM642.465 79.5H641.499V69.294H642.465V79.5ZM644.394 81.698H643.512C644.618 80.158 645.36 77.764 645.36 75.3C645.36 72.78 644.59 70.428 643.512 68.916H644.394C645.612 70.582 646.34 72.99 646.34 75.3C646.34 77.708 645.57 80.088 644.394 81.698Z" fill="#8F98B3"/>
<path d="M359 108.5C354.306 108.5 350.5 112.306 350.5 117V139C350.5 143.694 354.306 147.5 359 147.5H663C667.694 147.5 671.5 143.694 671.5 139V117C671.5 112.306 667.694 108.5 663 108.5H359Z" fill="url(#paint4_linear_7517_34400)"/>
<path d="M359 108.5C354.306 108.5 350.5 112.306 350.5 117V139C350.5 143.694 354.306 147.5 359 147.5H663C667.694 147.5 671.5 143.694 671.5 139V117C671.5 112.306 667.694 108.5 663 108.5H359Z" stroke="url(#paint5_linear_7517_34400)"/>
<g clip-path="url(#clip0_7517_34400)">
<path d="M380.091 120.5L374.477 126.114C374.092 126.013 373.689 125.955 373.273 125.955C370.637 125.955 368.5 128.091 368.5 130.727C368.5 133.363 370.637 135.5 373.273 135.5C375.909 135.5 378.045 133.363 378.045 130.727C378.045 130.12 377.928 129.541 377.721 129.006L379.409 127.318V125.273H381.455L383.5 123.227V120.5H380.091Z" stroke="#038585" stroke-width="1.36364" stroke-linecap="round" stroke-linejoin="round"/>
<path d="M373.273 132.091C374.026 132.091 374.636 131.48 374.636 130.727C374.636 129.974 374.026 129.364 373.273 129.364C372.52 129.364 371.909 129.974 371.909 130.727C371.909 131.48 372.52 132.091 373.273 132.091Z" stroke="#038585" stroke-width="1.36364" stroke-linecap="round" stroke-linejoin="round"/>
</g>
<path d="M405.27 133.5H402.218V123.476H405.242C408.266 123.476 410.282 125.492 410.282 128.488C410.282 131.484 408.28 133.5 405.27 133.5ZM405.2 124.4H403.226V132.576H405.228C407.678 132.576 409.246 130.98 409.246 128.488C409.246 125.982 407.678 124.4 405.2 124.4ZM413.839 133.668C412.397 133.668 411.543 132.856 411.543 131.666C411.543 130.42 412.495 129.636 414.077 129.51L416.317 129.328V129.104C416.317 127.774 415.519 127.354 414.525 127.354C413.349 127.354 412.649 127.886 412.649 128.796H411.767C411.767 127.424 412.887 126.542 414.553 126.542C416.121 126.542 417.269 127.326 417.269 129.118V133.5H416.457L416.331 132.31C415.911 133.164 414.987 133.668 413.839 133.668ZM414.063 132.884C415.491 132.884 416.317 131.89 416.317 130.42V130.056L414.315 130.21C413.041 130.322 412.523 130.882 412.523 131.638C412.523 132.464 413.139 132.884 414.063 132.884ZM420.638 133.5H419.686V127.536H418.328V126.724H419.686V124.582H420.638V126.724H421.996V127.536H420.638V133.5ZM425.091 133.668C423.649 133.668 422.795 132.856 422.795 131.666C422.795 130.42 423.747 129.636 425.329 129.51L427.569 129.328V129.104C427.569 127.774 426.771 127.354 425.777 127.354C424.601 127.354 423.901 127.886 423.901 128.796H423.019C423.019 127.424 424.139 126.542 425.805 126.542C427.373 126.542 428.521 127.326 428.521 129.118V133.5H427.709L427.583 132.31C427.163 133.164 426.239 133.668 425.091 133.668ZM425.315 132.884C426.743 132.884 427.569 131.89 427.569 130.42V130.056L425.567 130.21C424.293 130.322 423.775 130.882 423.775 131.638C423.775 132.464 424.391 132.884 425.315 132.884ZM431.299 133.5H430.459V123.294H431.425V128.04C431.901 127.046 432.825 126.542 433.973 126.542C435.947 126.542 437.095 128.082 437.095 130.126C437.095 132.156 435.919 133.668 433.945 133.668C432.811 133.668 431.873 133.164 431.397 132.114L431.299 133.5ZM431.439 130.098C431.439 131.666 432.307 132.786 433.791 132.786C435.261 132.786 436.115 131.666 436.115 130.098C436.115 128.544 435.261 127.41 433.791 127.41C432.307 127.41 431.439 128.544 431.439 130.098ZM440.581 133.668C439.139 133.668 438.285 132.856 438.285 131.666C438.285 130.42 439.237 129.636 440.819 129.51L443.059 129.328V129.104C443.059 127.774 442.261 127.354 441.267 127.354C440.091 127.354 439.391 127.886 439.391 128.796H438.509C438.509 127.424 439.629 126.542 441.295 126.542C442.863 126.542 444.011 127.326 444.011 129.118V133.5H443.199L443.073 132.31C442.653 133.164 441.729 133.668 440.581 133.668ZM440.805 132.884C442.233 132.884 443.059 131.89 443.059 130.42V130.056L441.057 130.21C439.783 130.322 439.265 130.882 439.265 131.638C439.265 132.464 439.881 132.884 440.805 132.884ZM445.375 131.596H446.299C446.299 132.38 446.887 132.87 447.839 132.87C448.889 132.87 449.505 132.422 449.505 131.694C449.505 131.134 449.225 130.812 448.427 130.616L447.265 130.322C446.089 130.028 445.515 129.412 445.515 128.488C445.515 127.298 446.509 126.542 447.965 126.542C449.393 126.542 450.317 127.326 450.359 128.586H449.421C449.393 127.802 448.847 127.34 447.937 127.34C446.985 127.34 446.453 127.746 446.453 128.474C446.453 128.992 446.817 129.356 447.559 129.538L448.721 129.832C449.897 130.126 450.429 130.672 450.429 131.652C450.429 132.87 449.393 133.668 447.853 133.668C446.327 133.668 445.375 132.856 445.375 131.596ZM454.862 133.668C452.874 133.668 451.544 132.24 451.544 130.112C451.544 127.998 452.86 126.542 454.792 126.542C456.626 126.542 457.872 127.844 457.872 129.762V130.238H452.482C452.552 131.89 453.42 132.842 454.876 132.842C455.982 132.842 456.696 132.366 456.948 131.47H457.872C457.508 132.898 456.458 133.668 454.862 133.668ZM454.792 127.368C453.518 127.368 452.678 128.208 452.51 129.538H456.906C456.906 128.236 456.066 127.368 454.792 127.368ZM463.509 133.5H462.487L466.169 123.476H467.415L471.139 133.5H470.089L469.109 130.84H464.489L463.509 133.5ZM466.659 124.89L464.797 129.958H468.787L466.911 124.89C466.869 124.75 466.799 124.582 466.785 124.484C466.771 124.568 466.715 124.75 466.659 124.89ZM476.354 129.818H473.54V133.5H472.532V123.476H476.354C478.286 123.476 479.504 124.736 479.504 126.626C479.504 128.446 478.272 129.818 476.354 129.818ZM476.214 124.386H473.54V128.908H476.158C477.614 128.908 478.454 127.984 478.454 126.612C478.454 125.226 477.6 124.386 476.214 124.386ZM482.14 123.476V133.5H481.132V123.476H482.14ZM489.468 123.476V129.51L494.298 123.476H495.502L492.1 127.718L495.558 133.5H494.382L491.442 128.558L489.468 131.008V133.5H488.46V123.476H489.468ZM499.268 133.668C497.28 133.668 495.95 132.24 495.95 130.112C495.95 127.998 497.266 126.542 499.198 126.542C501.032 126.542 502.278 127.844 502.278 129.762V130.238H496.888C496.958 131.89 497.826 132.842 499.282 132.842C500.388 132.842 501.102 132.366 501.354 131.47H502.278C501.914 132.898 500.864 133.668 499.268 133.668ZM499.198 127.368C497.924 127.368 497.084 128.208 496.916 129.538H501.312C501.312 128.236 500.472 127.368 499.198 127.368ZM502.972 136.454V135.656H503.714C504.302 135.656 504.89 135.614 505.226 134.704L505.52 133.906L502.776 126.724H503.798L505.982 132.632L508.124 126.724H509.118L506.01 135.054C505.618 136.118 504.96 136.552 503.994 136.552C503.588 136.552 503.28 136.524 502.972 136.454ZM509.633 131.596H510.557C510.557 132.38 511.145 132.87 512.097 132.87C513.147 132.87 513.763 132.422 513.763 131.694C513.763 131.134 513.483 130.812 512.685 130.616L511.523 130.322C510.347 130.028 509.773 129.412 509.773 128.488C509.773 127.298 510.767 126.542 512.223 126.542C513.651 126.542 514.575 127.326 514.617 128.586H513.679C513.651 127.802 513.105 127.34 512.195 127.34C511.243 127.34 510.711 127.746 510.711 128.474C510.711 128.992 511.075 129.356 511.817 129.538L512.979 129.832C514.155 130.126 514.687 130.672 514.687 131.652C514.687 132.87 513.651 133.668 512.111 133.668C510.585 133.668 509.633 132.856 509.633 131.596ZM521.588 133.5L519.348 126.724H520.342L521.672 130.812C521.826 131.26 521.952 131.722 522.092 132.268C522.204 131.722 522.428 131.036 522.498 130.812L523.842 126.724H524.836L526.166 130.812C526.292 131.176 526.46 131.764 526.586 132.268C526.726 131.708 526.754 131.54 526.992 130.812L528.336 126.724H529.344L527.048 133.5H526.11L524.71 129.244C524.542 128.74 524.43 128.32 524.346 127.914C524.248 128.278 524.136 128.684 523.954 129.244L522.554 133.5H521.588ZM531.027 124.862C530.635 124.862 530.313 124.54 530.313 124.148C530.313 123.756 530.635 123.42 531.027 123.42C531.419 123.42 531.755 123.756 531.755 124.148C531.755 124.54 531.419 124.862 531.027 124.862ZM530.551 133.5V126.724H531.517V133.5H530.551ZM535.085 133.5H534.133V127.536H532.775V126.724H534.133V124.582H535.085V126.724H536.443V127.536H535.085V133.5ZM538.667 133.486H537.701V123.294H538.667V127.9C539.101 127.088 539.927 126.542 541.061 126.542C542.839 126.542 543.637 127.648 543.637 129.356V133.5H542.671V129.566C542.671 127.984 541.929 127.424 540.879 127.424C539.423 127.424 538.667 128.502 538.667 129.804V133.486ZM550.664 133.5H549.656V123.476H553.394C555.424 123.476 556.656 124.596 556.656 126.374C556.656 127.816 555.9 128.824 554.612 129.174L556.754 133.5H555.633L553.59 129.342H550.664V133.5ZM550.664 124.386V128.432H553.422C554.808 128.432 555.62 127.676 555.62 126.402C555.62 125.1 554.766 124.386 553.394 124.386H550.664ZM558.611 133.5V123.476H562.279C564.211 123.476 565.401 124.456 565.401 126.066C565.401 127.242 564.883 128.04 563.847 128.446C565.009 128.824 565.597 129.636 565.597 130.868C565.597 132.478 564.393 133.5 562.489 133.5H558.611ZM562.265 124.372H559.619V128.04H562.391C563.651 128.04 564.365 127.34 564.365 126.15C564.365 125.03 563.609 124.372 562.265 124.372ZM562.489 128.922H559.619V132.59H562.489C563.805 132.59 564.575 131.904 564.575 130.742C564.575 129.608 563.791 128.922 562.489 128.922ZM567.279 133.5H566.257L569.939 123.476H571.185L574.909 133.5H573.859L572.879 130.84H568.259L567.279 133.5ZM570.429 124.89L568.567 129.958H572.557L570.681 124.89C570.639 124.75 570.569 124.582 570.555 124.484C570.541 124.568 570.485 124.75 570.429 124.89ZM579.994 133.654C577.194 133.654 575.29 131.568 575.29 128.488C575.29 125.408 577.222 123.308 580.05 123.308C582.206 123.308 583.9 124.61 584.306 126.598H583.228C582.808 125.156 581.576 124.274 580.008 124.274C577.81 124.274 576.34 125.954 576.34 128.488C576.34 131.008 577.81 132.688 580.008 132.688C581.59 132.688 582.85 131.834 583.284 130.49H584.362C583.9 132.38 582.15 133.654 579.994 133.654Z" fill="#8F98B3"/>
<rect x="51.3437" y="31.3437" width="133.312" height="85.3125" rx="7.65625" fill="url(#paint6_linear_7517_34400)"/>
<rect x="51.3437" y="31.3437" width="133.312" height="85.3125" rx="7.65625" stroke="url(#paint7_linear_7517_34400)" stroke-width="1.3125"/>
<rect x="105.344" y="47.3437" width="25.3125" height="25.3125" rx="12.6562" fill="url(#paint8_linear_7517_34400)"/>
<rect x="105.344" y="47.3437" width="25.3125" height="25.3125" rx="12.6562" stroke="url(#paint9_linear_7517_34400)" stroke-width="1.3125"/>
<path fill-rule="evenodd" clip-rule="evenodd" d="M115.25 56.75C115.25 58.2665 116.484 59.5 118 59.5C119.516 59.5 120.75 58.2665 120.75 56.75C120.75 55.2335 119.516 54 118 54C116.484 54 115.25 55.2335 115.25 56.75ZM113 65.4998C113 65.7758 113.224 65.9998 113.5 65.9998H122.5C122.776 65.9998 123 65.7758 123 65.4998C123 62.7428 120.757 60.4998 118 60.4998C115.243 60.4998 113 62.7428 113 65.4998Z" fill="#717C99"/>
<path d="M71 83.3437C66.7716 83.3437 63.3437 86.7716 63.3437 91V93C63.3437 97.2284 66.7716 100.656 71 100.656H165C169.228 100.656 172.656 97.2284 172.656 93V91C172.656 86.7716 169.228 83.3437 165 83.3437H71Z" fill="#28324D"/>
<path d="M71 83.3437C66.7716 83.3437 63.3437 86.7716 63.3437 91V93C63.3437 97.2284 66.7716 100.656 71 100.656H165C169.228 100.656 172.656 97.2284 172.656 93V91C172.656 86.7716 169.228 83.3437 165 83.3437H71Z" stroke="url(#paint10_linear_7517_34400)" stroke-width="1.3125"/>
<path d="M75.4359 92.123L74 91.6102L74.5744 90.1333L75.9487 90.5846C76.6256 90.8102 76.9744 91.0358 77.3846 91.3435C77.2615 90.8512 77.2 90.3794 77.2 89.723V88.2051H78.7795V89.723C78.7795 90.3794 78.6974 90.8923 78.5949 91.3435C78.9641 91.0769 79.3538 90.8102 80.0513 90.5846L81.4462 90.1333L82 91.6102L80.5436 92.123C79.9282 92.3487 79.3949 92.4102 78.9436 92.4512C79.3949 92.8205 79.7231 93.1076 80.0513 93.6205L80.8923 94.9128L79.6 95.7948L78.7385 94.5846C78.3282 94.0102 78.1231 93.5589 77.959 93.1487C77.8154 93.7025 77.5282 94.2153 77.241 94.5846L76.3179 95.7948L75.0256 94.9128L75.9077 93.6205C76.2769 93.0871 76.6051 92.7999 77.0359 92.4512C76.4821 92.3897 76.0718 92.3487 75.4359 92.123Z" fill="#717C99"/>
<path d="M91.4359 92.123L90 91.6102L90.5744 90.1333L91.9487 90.5846C92.6256 90.8102 92.9744 91.0358 93.3846 91.3435C93.2615 90.8512 93.2 90.3794 93.2 89.723V88.2051H94.7795V89.723C94.7795 90.3794 94.6974 90.8923 94.5949 91.3435C94.9641 91.0769 95.3538 90.8102 96.0513 90.5846L97.4462 90.1333L98 91.6102L96.5436 92.123C95.9282 92.3487 95.3949 92.4102 94.9436 92.4512C95.3949 92.8205 95.7231 93.1076 96.0513 93.6205L96.8923 94.9128L95.6 95.7948L94.7385 94.5846C94.3282 94.0102 94.1231 93.5589 93.959 93.1487C93.8154 93.7025 93.5282 94.2153 93.241 94.5846L92.3179 95.7948L91.0256 94.9128L91.9077 93.6205C92.2769 93.0871 92.6051 92.7999 93.0359 92.4512C92.4821 92.3897 92.0718 92.3487 91.4359 92.123Z" fill="#717C99"/>
<path d="M107.436 92.123L106 91.6102L106.574 90.1333L107.949 90.5846C108.626 90.8102 108.974 91.0358 109.385 91.3435C109.262 90.8512 109.2 90.3794 109.2 89.723V88.2051H110.779V89.723C110.779 90.3794 110.697 90.8923 110.595 91.3435C110.964 91.0769 111.354 90.8102 112.051 90.5846L113.446 90.1333L114 91.6102L112.544 92.123C111.928 92.3487 111.395 92.4102 110.944 92.4512C111.395 92.8205 111.723 93.1076 112.051 93.6205L112.892 94.9128L111.6 95.7948L110.738 94.5846C110.328 94.0102 110.123 93.5589 109.959 93.1487C109.815 93.7025 109.528 94.2153 109.241 94.5846L108.318 95.7948L107.026 94.9128L107.908 93.6205C108.277 93.0871 108.605 92.7999 109.036 92.4512C108.482 92.3897 108.072 92.3487 107.436 92.123Z" fill="#717C99"/>
<path d="M123.436 92.123L122 91.6102L122.574 90.1333L123.949 90.5846C124.626 90.8102 124.974 91.0358 125.385 91.3435C125.262 90.8512 125.2 90.3794 125.2 89.723V88.2051H126.779V89.723C126.779 90.3794 126.697 90.8923 126.595 91.3435C126.964 91.0769 127.354 90.8102 128.051 90.5846L129.446 90.1333L130 91.6102L128.544 92.123C127.928 92.3487 127.395 92.4102 126.944 92.4512C127.395 92.8205 127.723 93.1076 128.051 93.6205L128.892 94.9128L127.6 95.7948L126.738 94.5846C126.328 94.0102 126.123 93.5589 125.959 93.1487C125.815 93.7025 125.528 94.2153 125.241 94.5846L124.318 95.7948L123.026 94.9128L123.908 93.6205C124.277 93.0871 124.605 92.7999 125.036 92.4512C124.482 92.3897 124.072 92.3487 123.436 92.123Z" fill="#717C99"/>
<path d="M139.436 92.123L138 91.6102L138.574 90.1333L139.949 90.5846C140.626 90.8102 140.974 91.0358 141.385 91.3435C141.262 90.8512 141.2 90.3794 141.2 89.723V88.2051H142.779V89.723C142.779 90.3794 142.697 90.8923 142.595 91.3435C142.964 91.0769 143.354 90.8102 144.051 90.5846L145.446 90.1333L146 91.6102L144.544 92.123C143.928 92.3487 143.395 92.4102 142.944 92.4512C143.395 92.8205 143.723 93.1076 144.051 93.6205L144.892 94.9128L143.6 95.7948L142.738 94.5846C142.328 94.0102 142.123 93.5589 141.959 93.1487C141.815 93.7025 141.528 94.2153 141.241 94.5846L140.318 95.7948L139.026 94.9128L139.908 93.6205C140.277 93.0871 140.605 92.7999 141.036 92.4512C140.482 92.3897 140.072 92.3487 139.436 92.123Z" fill="#717C99"/>
<path d="M155.436 92.123L154 91.6102L154.574 90.1333L155.949 90.5846C156.626 90.8102 156.974 91.0358 157.385 91.3435C157.262 90.8512 157.2 90.3794 157.2 89.723V88.2051H158.779V89.723C158.779 90.3794 158.697 90.8923 158.595 91.3435C158.964 91.0769 159.354 90.8102 160.051 90.5846L161.446 90.1333L162 91.6102L160.544 92.123C159.928 92.3487 159.395 92.4102 158.944 92.4512C159.395 92.8205 159.723 93.1076 160.051 93.6205L160.892 94.9128L159.6 95.7948L158.738 94.5846C158.328 94.0102 158.123 93.5589 157.959 93.1487C157.815 93.7025 157.528 94.2153 157.241 94.5846L156.318 95.7948L155.026 94.9128L155.908 93.6205C156.277 93.0871 156.605 92.7999 157.036 92.4512C156.482 92.3897 156.072 92.3487 155.436 92.123Z" fill="#717C99"/>
<rect x="229.631" y="53.6307" width="40.7386" height="40.7386" rx="20.3693" fill="url(#paint11_linear_7517_34400)"/>
<rect x="229.631" y="53.6307" width="40.7386" height="40.7386" rx="20.3693" stroke="url(#paint12_linear_7517_34400)" stroke-width="0.738636"/>
<path d="M248.333 74.0013V71.5013C248.335 71.0597 248.511 70.6365 248.823 70.3242C249.135 70.012 249.558 69.836 250 69.8346C250.442 69.836 250.865 70.012 251.177 70.3242C251.489 70.6365 251.665 71.0597 251.667 71.5013V74.0013M246.667 74.0013H253.333V78.168H246.667V74.0013ZM257.5 75.668C257.5 77.6571 256.71 79.5647 255.303 80.9713C253.897 82.3778 251.989 83.168 250 83.168C248.011 83.168 246.103 82.3778 244.697 80.9713C243.29 79.5647 242.5 77.6571 242.5 75.668V67.3346L250 65.668L257.5 67.3346V75.668Z" stroke="#DC244C" stroke-linecap="round" stroke-linejoin="round"/>
<defs>
<linearGradient id="paint0_linear_7517_34400" x1="511" y1="1" x2="511" y2="39" gradientUnits="userSpaceOnUse">
<stop stop-color="#28324D"/>
<stop offset="1" stop-color="#141B2E"/>
</linearGradient>
<linearGradient id="paint1_linear_7517_34400" x1="511" y1="1" x2="511" y2="39" gradientUnits="userSpaceOnUse">
<stop stop-color="#3D4866"/>
<stop offset="1" stop-color="#161E33" stop-opacity="0.2"/>
</linearGradient>
<linearGradient id="paint2_linear_7517_34400" x1="511" y1="55" x2="511" y2="93" gradientUnits="userSpaceOnUse">
<stop stop-color="#28324D"/>
<stop offset="1" stop-color="#141B2E"/>
</linearGradient>
<linearGradient id="paint3_linear_7517_34400" x1="511" y1="55" x2="511" y2="93" gradientUnits="userSpaceOnUse">
<stop stop-color="#3D4866"/>
<stop offset="1" stop-color="#161E33" stop-opacity="0.2"/>
</linearGradient>
<linearGradient id="paint4_linear_7517_34400" x1="511" y1="109" x2="511" y2="147" gradientUnits="userSpaceOnUse">
<stop stop-color="#28324D"/>
<stop offset="1" stop-color="#141B2E"/>
</linearGradient>
<linearGradient id="paint5_linear_7517_34400" x1="511" y1="109" x2="511" y2="147" gradientUnits="userSpaceOnUse">
<stop stop-color="#3D4866"/>
<stop offset="1" stop-color="#161E33" stop-opacity="0.2"/>
</linearGradient>
<linearGradient id="paint6_linear_7517_34400" x1="118" y1="32" x2="118" y2="116" gradientUnits="userSpaceOnUse">
<stop stop-color="#28324D"/>
<stop offset="1" stop-color="#141B2E"/>
</linearGradient>
<linearGradient id="paint7_linear_7517_34400" x1="118" y1="32" x2="118" y2="116" gradientUnits="userSpaceOnUse">
<stop stop-color="#3D4866"/>
<stop offset="1" stop-color="#161E33" stop-opacity="0.2"/>
</linearGradient>
<linearGradient id="paint8_linear_7517_34400" x1="118" y1="48" x2="118" y2="72" gradientUnits="userSpaceOnUse">
<stop stop-color="#28324D"/>
<stop offset="1" stop-color="#141B2E"/>
</linearGradient>
<linearGradient id="paint9_linear_7517_34400" x1="118" y1="48" x2="118" y2="72" gradientUnits="userSpaceOnUse">
<stop stop-color="#3D4866"/>
<stop offset="1" stop-color="#161E33" stop-opacity="0.2"/>
</linearGradient>
<linearGradient id="paint10_linear_7517_34400" x1="118" y1="84" x2="118" y2="100" gradientUnits="userSpaceOnUse">
<stop stop-color="#3D4866"/>
<stop offset="1" stop-color="#161E33" stop-opacity="0.2"/>
</linearGradient>
<linearGradient id="paint11_linear_7517_34400" x1="250" y1="54" x2="250" y2="94" gradientUnits="userSpaceOnUse">
<stop stop-color="#28324D"/>
<stop offset="1" stop-color="#141B2E"/>
</linearGradient>
<linearGradient id="paint12_linear_7517_34400" x1="250" y1="54" x2="250" y2="94" gradientUnits="userSpaceOnUse">
<stop stop-color="#3D4866"/>
<stop offset="1" stop-color="#161E33" stop-opacity="0.2"/>
</linearGradient>
<clipPath id="clip0_7517_34400">
<rect width="18" height="18" fill="white" transform="translate(367 119)"/>
</clipPath>
</defs>
</svg>
