<svg xmlns="http://www.w3.org/2000/svg" viewBox="0 0 640 452" width="640" height="452" role="img" font-family="Mona Sans, Inter, Helvetica Neue, Arial, sans-serif">
<rect width="640" height="452" fill="#FFFFFF"/>
<text x="24" y="28" font-size="14.5" font-weight="600" fill="#0B0F19">Precision@10 by product type</text>
<text x="24" y="47" font-size="11.5" fill="#656B7F">Share of an item's ten nearest neighbors that share its product type</text>
<line x1="168" y1="88" x2="168" y2="382" stroke="#D3D9EB"/>
<text x="168" y="78" font-size="12.5" font-weight="600" text-anchor="middle" fill="#0B0F19">Conventional CLIP</text>
<text x="168" y="400" font-size="11.5" text-anchor="middle" fill="#656B7F">all types 78%</text>
<line x1="470" y1="88" x2="470" y2="382" stroke="#D3D9EB"/>
<text x="470" y="78" font-size="12.5" font-weight="600" text-anchor="middle" fill="#0B0F19">Hyper3-CLIP</text>
<text x="470" y="400" font-size="11.5" text-anchor="middle" fill="#656B7F">all types 83%</text>
<line x1="168" y1="180.6" x2="470" y2="138.7" stroke="#5B6274" stroke-width="1.4" stroke-opacity="0.62"/>
<circle cx="168" cy="180.6" r="3.6" fill="#5B6274" fill-opacity="0.62"/>
<circle cx="470" cy="138.7" r="3.6" fill="#5B6274" fill-opacity="0.62"/>
<text x="156" y="184.6" font-size="12" text-anchor="end" fill="#0B0F19">Table 84%</text>
<text x="482" y="142.7" font-size="12" fill="#0B0F19">Table 93%</text>
<line x1="168" y1="158.1" x2="470" y2="151.1" stroke="#5B6274" stroke-width="1.4" stroke-opacity="0.62"/>
<circle cx="168" cy="158.1" r="3.6" fill="#5B6274" fill-opacity="0.62"/>
<circle cx="470" cy="151.1" r="3.6" fill="#5B6274" fill-opacity="0.62"/>
<text x="156" y="162.1" font-size="12" text-anchor="end" fill="#0B0F19">Sofa 89%</text>
<text x="482" y="156.7" font-size="12" fill="#0B0F19">Sofa 91%</text>
<line x1="168" y1="180.6" x2="470" y2="176.8" stroke="#5B6274" stroke-width="1.4" stroke-opacity="0.62"/>
<circle cx="168" cy="180.6" r="3.6" fill="#5B6274" fill-opacity="0.62"/>
<circle cx="470" cy="176.8" r="3.6" fill="#5B6274" fill-opacity="0.62"/>
<text x="156" y="198.6" font-size="12" text-anchor="end" fill="#0B0F19">Boot 84%</text>
<text x="482" y="180.8" font-size="12" fill="#0B0F19">Boot 85%</text>
<line x1="168" y1="223.2" x2="470" y2="184.7" stroke="#5B6274" stroke-width="1.4" stroke-opacity="0.62"/>
<circle cx="168" cy="223.2" r="3.6" fill="#5B6274" fill-opacity="0.62"/>
<circle cx="470" cy="184.7" r="3.6" fill="#5B6274" fill-opacity="0.62"/>
<text x="156" y="234.9" font-size="12" text-anchor="end" fill="#0B0F19">Chair 75%</text>
<text x="482" y="194.8" font-size="12" fill="#0B0F19">Chair 84%</text>
<line x1="168" y1="331.3" x2="470" y2="224.5" stroke="#5B6274" stroke-width="1.4" stroke-opacity="0.62"/>
<circle cx="168" cy="331.3" r="3.6" fill="#5B6274" fill-opacity="0.62"/>
<circle cx="470" cy="224.5" r="3.6" fill="#5B6274" fill-opacity="0.62"/>
<text x="156" y="335.3" font-size="12" text-anchor="end" fill="#0B0F19">Sandal 53%</text>
<text x="482" y="228.5" font-size="12" fill="#0B0F19">Sandal 75%</text>
<line x1="168" y1="216.9" x2="470" y2="249.3" stroke="#DC244C" stroke-width="2.0" stroke-opacity="1.00"/>
<circle cx="168" cy="216.9" r="3.6" fill="#DC244C" fill-opacity="1.00"/>
<circle cx="470" cy="249.3" r="3.6" fill="#DC244C" fill-opacity="1.00"/>
<text x="156" y="220.9" font-size="12" text-anchor="end" fill="#DC244C">Shoes 77%</text>
<text x="482" y="253.3" font-size="12" fill="#DC244C" font-weight="600">Shoes 70%  down</text>
<text x="24" y="438" font-size="11" fill="#98A0B5">Measured on the 512-dimensional vectors, 165 Amazon Berkeley Objects images across six product types.</text>
</svg>