<svg xmlns="http://www.w3.org/2000/svg" shape-rendering="geometricPrecision"
     text-rendering="geometricPrecision" image-rendering="optimizeQuality"
     fill-rule="evenodd" clip-rule="evenodd" viewBox="0 0 363 511.48">
    <path fill="#ffffff" d="M99.13 155.14h37.45c3.22 0 5.85 2.64 5.85 5.87v77.85c0 3.22-2.63 5.87-5.85 5.87H99.13c-3.22 0-5.85-2.64-5.85-5.87v-77.85c0-3.23 2.63-5.87 5.85-5.87zm59.19 261.87c-.25-.13-.57-.3-.82-.49-3.34-2.65-6.98-5.61-10.13-8.17-4.58-3.77-9.88-8.13-13.59-11.2-2.51-2.07-5.42-3.52-8.12-4.09-1.76-.32-3.34-.32-4.61.19-.99.44-1.9 1.26-2.45 2.51-.77 1.7-1.14 4.1-.94 7.37.19 2.91 1.2 6.05 2.52 9.12 1.96 4.47 4.64 8.62 6.67 11.27.13.19.25.31.33.49L167 480.89c.5.75.82 1.57.88 2.39.82 6.55 2.19 11.52 4.22 14.61 1.51 2.26 3.41 3.4 5.85 3.33h62.67c3.91-.08 7.43-1.2 10.7-3.45 3.6-2.46 6.79-6.3 9.76-11.46.07-.06.13-.19.2-.25 1.12-1.94 2.64-4.46 4.09-6.87 6.35-10.45 11.88-19.57 12.51-32.54l-.38-17.86c-.07-.24-.06-.49-.06-.75 0-.27 0-1.96.06-4.21.13-11.83.32-26.43-10.51-28.25H260c-.06 3.33-.24 6.73-.44 9.99-.19 2.97-.37 5.73-.36 8.43 0 2.9-2.33 5.22-5.22 5.22a5.19 5.19 0 0 1-5.21-5.22c0-2.71.18-5.86.37-9.12.7-11.13 1.52-23.91-7.36-25.48h-6.93c-.38 0-.76-.07-1.12-.13.05 4.03-.2 8.16-.44 12.21-.2 2.97-.38 5.73-.37 8.44 0 2.89-2.32 5.21-5.22 5.21-2.89 0-5.21-2.32-5.21-5.21 0-2.72.18-5.87.37-9.12.71-11.14 1.52-23.91-7.36-25.49h-6.93c-.5 0-.94-.07-1.39-.2v20.32c0 2.89-2.32 5.22-5.21 5.22-2.9 0-5.22-2.33-5.22-5.22l-.05-54.56c0-9.12-3.71-14.91-8.5-17.3-1.76-.88-3.66-1.32-5.47-1.32-1.81 0-3.71.44-5.47 1.32-4.72 2.38-8.36 8.18-8.37 17.55v95.58c0 2.9-2.33 5.22-5.22 5.22-2.89 0-5.22-2.32-5.22-5.22V417l-.13.01zm48.83-62.04c.44-.12.89-.19 1.39-.19h7.25c.38 0 .82.06 1.2.12 9.63 1.5 13.97 7.1 15.73 14.41.68-.31 1.44-.51 2.2-.51h7.25c.38 0 .82.06 1.2.11 10.37 1.64 14.54 8 16.05 16.05.24-.07.49-.05.81-.05h7.25c.39 0 .83.05 1.2.11 19.9 3.09 19.63 22.84 19.45 38.76v4.15l.43 18.39v.56c-.76 15.66-6.91 25.79-14.03 37.5-1.2 1.96-2.38 3.96-4.02 6.74-.06.05-.06.11-.13.18-3.72 6.49-7.99 11.45-12.89 14.86-4.97 3.44-10.51 5.22-16.55 5.28l-62.67.04c-6.22.11-11.08-2.58-14.66-7.94-2.89-4.27-4.79-10.32-5.78-17.86l-39.02-55.76-.18-.19c-2.33-3.08-5.48-7.94-7.87-13.27-1.77-4.02-3.08-8.37-3.4-12.64-.31-5.11.38-9.12 1.81-12.34 1.77-3.96 4.65-6.55 8.11-7.94 3.21-1.31 6.86-1.5 10.51-.74 4.41.87 8.93 3.08 12.77 6.29 3.14 2.64 8.44 6.91 13.6 11.13l4.28 3.52v-72.55c0-13.91 6.15-22.84 14.16-26.87 3.22-1.64 6.66-2.46 10.2-2.46 3.54 0 6.99.82 10.2 2.46 8 4.01 14.29 13.02 14.3 26.68v24.03l-.15-.06zM181.5 0c50.11 0 95.49 20.32 128.34 53.16C342.68 86.01 363 131.38 363 181.5c0 50.11-20.32 95.49-53.16 128.34a182.128 182.128 0 0 1-56.52 38.39c-2.32-.92-4.84-1.65-7.57-2.18l-2.73-.49-2.26-2.49c-3.62-3.6-7.99-6.48-13.26-8.41v-.6c25.5-7.67 48.3-21.57 66.65-39.91 28.82-28.83 46.65-68.66 46.65-112.65 0-43.99-17.83-83.82-46.65-112.65C265.32 40.03 225.49 22.2 181.5 22.2c-43.99 0-83.83 17.83-112.65 46.65-28.82 28.83-46.66 68.66-46.66 112.65 0 43.99 17.84 83.82 46.66 112.65 19.34 19.33 43.63 33.72 70.81 41.1v22.9c-33.32-7.86-63.09-24.91-86.5-48.31C20.32 276.99 0 231.61 0 181.5c0-50.12 20.32-95.49 53.16-128.34C86 20.32 131.38 0 181.5 0zm-65.34 211.66c4.14 0 7.5 3.36 7.5 7.5 0 4.14-3.36 7.5-7.5 7.5-4.14 0-7.5-3.36-7.5-7.5 0-4.14 3.36-7.5 7.5-7.5zm66.52-114.92c3.08-15.64 28.69-1.24 30.38 23.98.5 7.71-.29 16.68-2.19 26.71h36.6c15.22.6 28.5 11.5 19.12 29.39 2.14 7.8 2.46 16.95-3.35 20.56.73 12.31-2.68 19.93-9.05 25.95-.42 6.16-1.73 11.64-4.7 15.84-4.92 6.94-8.9 5.28-16.64 5.28h-61.8c-9.79 0-15.13-2.68-21.54-10.72v-68.82c18.43-4.98 28.22-30.18 33.17-46.73V96.74z"/>
</svg>