<?xml version="1.0" encoding="UTF-8" standalone="no"?>
<svg
   xmlns:dc="http://purl.org/dc/elements/1.1/"
   xmlns:cc="http://creativecommons.org/ns#"
   xmlns:rdf="http://www.w3.org/1999/02/22-rdf-syntax-ns#"
   xmlns:svg="http://www.w3.org/2000/svg"
   xmlns="http://www.w3.org/2000/svg"
   xmlns:sodipodi="http://sodipodi.sourceforge.net/DTD/sodipodi-0.dtd"
   xmlns:inkscape="http://www.inkscape.org/namespaces/inkscape"
   id="Capa_1"
   enable-background="new 0 0 512 512"
   height="512"
   viewBox="0 0 512 512"
   width="512"
   version="1.1"
   sodipodi:docname="scatter-graph.svg"
   inkscape:version="1.0.2 (e86c870879, 2021-01-15)">
  <metadata
     id="metadata37">
    <rdf:RDF>
      <cc:Work
         rdf:about="">
        <dc:format>image/svg+xml</dc:format>
        <dc:type
           rdf:resource="http://purl.org/dc/dcmitype/StillImage" />
      </cc:Work>
    </rdf:RDF>
  </metadata>
  <defs
     id="defs35" />
  <sodipodi:namedview
     pagecolor="#ffffff"
     bordercolor="#666666"
     borderopacity="1"
     objecttolerance="10"
     gridtolerance="10"
     guidetolerance="10"
     inkscape:pageopacity="0"
     inkscape:pageshadow="2"
     inkscape:window-width="960"
     inkscape:window-height="1053"
     id="namedview33"
     showgrid="false"
     inkscape:zoom="0.30686945"
     inkscape:cx="317.83033"
     inkscape:cy="405.52138"
     inkscape:window-x="960"
     inkscape:window-y="27"
     inkscape:window-maximized="0"
     inkscape:current-layer="Capa_1" />
  <g
     id="g30"
     style="fill:#ffffff">
    <path
       d="m115.333 467h-70.333v-459.5c0-4.143-3.358-7.5-7.5-7.5h-30c-4.142 0-7.5 3.357-7.5 7.5s3.358 7.5 7.5 7.5h22.5v23.917h-7.5c-4.142 0-7.5 3.357-7.5 7.5s3.358 7.5 7.5 7.5h7.5v23.916h-22.5c-4.142 0-7.5 3.357-7.5 7.5s3.358 7.5 7.5 7.5h22.5v23.917h-7.5c-4.142 0-7.5 3.357-7.5 7.5s3.358 7.5 7.5 7.5h7.5v23.917h-22.5c-4.142 0-7.5 3.357-7.5 7.5s3.358 7.5 7.5 7.5h22.5v23.916h-7.5c-4.142 0-7.5 3.357-7.5 7.5s3.358 7.5 7.5 7.5h7.5v23.917h-22.5c-4.142 0-7.5 3.357-7.5 7.5s3.358 7.5 7.5 7.5h22.5v23.917h-7.5c-4.142 0-7.5 3.357-7.5 7.5s3.358 7.5 7.5 7.5h7.5v23.916h-22.5c-4.142 0-7.5 3.357-7.5 7.5s3.358 7.5 7.5 7.5h22.5v23.917h-7.5c-4.142 0-7.5 3.357-7.5 7.5s3.358 7.5 7.5 7.5h7.5v23.917h-22.5c-4.142 0-7.5 3.357-7.5 7.5s3.358 7.5 7.5 7.5h22.5v23.916h-7.5c-4.142 0-7.5 3.357-7.5 7.5s3.358 7.5 7.5 7.5h7.5v23.917h-22.5c-4.142 0-7.5 3.357-7.5 7.5s3.358 7.5 7.5 7.5h22.5v22.5c0 4.143 3.358 7.5 7.5 7.5s7.5-3.357 7.5-7.5v-22.5h62.833v22.5c0 4.143 3.358 7.5 7.5 7.5s7.5-3.357 7.5-7.5v-30c0-4.143-3.357-7.5-7.5-7.5z"
       id="path2"
       style="fill:#ffffff" />
    <path
       d="m504.5 467h-359.167c-4.142 0-7.5 3.357-7.5 7.5s3.358 7.5 7.5 7.5h40.333v22.5c0 4.143 3.358 7.5 7.5 7.5s7.5-3.357 7.5-7.5v-22.5h62.834v22.5c0 4.143 3.358 7.5 7.5 7.5s7.5-3.357 7.5-7.5v-22.5h62.833v22.5c0 4.143 3.358 7.5 7.5 7.5s7.5-3.357 7.5-7.5v-22.5h62.833v22.5c0 4.143 3.358 7.5 7.5 7.5s7.5-3.357 7.5-7.5v-22.5h62.834v22.5c0 4.143 3.358 7.5 7.5 7.5s7.5-3.357 7.5-7.5v-30c0-4.143-3.358-7.5-7.5-7.5z"
       id="path4"
       style="fill:#ffffff" />
    <path
       d="m115.333 369.708c-14.865 0-26.958 12.094-26.958 26.959 0 14.864 12.094 26.958 26.958 26.958s26.958-12.094 26.958-26.958c.001-14.865-12.093-26.959-26.958-26.959zm0 38.917c-6.594 0-11.958-5.364-11.958-11.958s5.365-11.959 11.958-11.959 11.958 5.365 11.958 11.959-5.364 11.958-11.958 11.958z"
       id="path6"
       style="fill:#ffffff" />
    <path
       d="m115.333 345.792c14.865 0 26.958-12.094 26.958-26.959 0-14.864-12.093-26.958-26.958-26.958s-26.958 12.094-26.958 26.958c0 14.865 12.094 26.959 26.958 26.959zm0-38.917c6.594 0 11.958 5.364 11.958 11.958s-5.364 11.959-11.958 11.959-11.958-5.365-11.958-11.959 5.365-11.958 11.958-11.958z"
       id="path8"
       style="fill:#ffffff" />
    <path
       d="m193.167 384.708c14.865 0 26.958-12.094 26.958-26.958s-12.094-26.958-26.958-26.958-26.958 12.094-26.958 26.958 12.093 26.958 26.958 26.958zm0-38.916c6.594 0 11.958 5.364 11.958 11.958s-5.365 11.958-11.958 11.958-11.958-5.364-11.958-11.958 5.364-11.958 11.958-11.958z"
       id="path10"
       style="fill:#ffffff" />
    <path
       d="m193.167 306.875c14.865 0 26.958-12.094 26.958-26.958 0-14.865-12.094-26.959-26.958-26.959s-26.958 12.094-26.958 26.959c-.001 14.864 12.093 26.958 26.958 26.958zm0-38.917c6.594 0 11.958 5.365 11.958 11.959s-5.365 11.958-11.958 11.958-11.958-5.364-11.958-11.958 5.364-11.959 11.958-11.959z"
       id="path12"
       style="fill:#ffffff" />
    <path
       d="m271 423.625c14.865 0 26.958-12.094 26.958-26.958 0-14.865-12.094-26.959-26.958-26.959s-26.958 12.094-26.958 26.959c0 14.864 12.093 26.958 26.958 26.958zm0-38.917c6.594 0 11.958 5.365 11.958 11.959s-5.365 11.958-11.958 11.958-11.958-5.364-11.958-11.958 5.364-11.959 11.958-11.959z"
       id="path14"
       style="fill:#ffffff" />
    <path
       d="m271 267.958c14.865 0 26.958-12.094 26.958-26.958s-12.093-26.958-26.958-26.958-26.958 12.094-26.958 26.958 12.093 26.958 26.958 26.958zm0-38.916c6.594 0 11.958 5.364 11.958 11.958s-5.365 11.958-11.958 11.958-11.958-5.364-11.958-11.958 5.364-11.958 11.958-11.958z"
       id="path16"
       style="fill:#ffffff" />
    <path
       d="m348.833 306.875c14.865 0 26.958-12.094 26.958-26.958 0-14.865-12.093-26.959-26.958-26.959s-26.958 12.094-26.958 26.959c0 14.864 12.094 26.958 26.958 26.958zm0-38.917c6.594 0 11.958 5.365 11.958 11.959s-5.364 11.958-11.958 11.958-11.958-5.364-11.958-11.958 5.365-11.959 11.958-11.959z"
       id="path18"
       style="fill:#ffffff" />
    <path
       d="m387.75 229.042c14.865 0 26.958-12.094 26.958-26.959 0-14.864-12.094-26.958-26.958-26.958s-26.958 12.094-26.958 26.958c0 14.865 12.093 26.959 26.958 26.959zm0-38.917c6.594 0 11.958 5.364 11.958 11.958s-5.365 11.959-11.958 11.959-11.958-5.365-11.958-11.959 5.364-11.958 11.958-11.958z"
       id="path20"
       style="fill:#ffffff" />
    <path
       d="m387.75 151.208c14.865 0 26.958-12.094 26.958-26.958s-12.094-26.958-26.958-26.958-26.958 12.094-26.958 26.958 12.093 26.958 26.958 26.958zm0-38.916c6.594 0 11.958 5.364 11.958 11.958s-5.365 11.958-11.958 11.958-11.958-5.364-11.958-11.958 5.364-11.958 11.958-11.958z"
       id="path22"
       style="fill:#ffffff" />
    <path
       d="m465.583 190.125c14.865 0 26.958-12.094 26.958-26.958 0-14.865-12.093-26.959-26.958-26.959s-26.958 12.094-26.958 26.959c0 14.864 12.094 26.958 26.958 26.958zm0-38.917c6.594 0 11.958 5.365 11.958 11.959s-5.364 11.958-11.958 11.958-11.958-5.364-11.958-11.958 5.365-11.959 11.958-11.959z"
       id="path24"
       style="fill:#ffffff" />
    <path
       d="m465.583 345.792c14.865 0 26.958-12.094 26.958-26.959 0-14.864-12.093-26.958-26.958-26.958s-26.958 12.094-26.958 26.958c0 14.865 12.094 26.959 26.958 26.959zm0-38.917c6.594 0 11.958 5.364 11.958 11.958s-5.364 11.959-11.958 11.959-11.958-5.365-11.958-11.959 5.365-11.958 11.958-11.958z"
       id="path26"
       style="fill:#ffffff" />
    <path
       d="m465.583 73.375c14.865 0 26.958-12.094 26.958-26.958 0-14.865-12.093-26.959-26.958-26.959s-26.958 12.094-26.958 26.959c0 14.864 12.094 26.958 26.958 26.958zm0-38.917c6.594 0 11.958 5.365 11.958 11.959s-5.364 11.958-11.958 11.958-11.958-5.364-11.958-11.958 5.365-11.959 11.958-11.959z"
       id="path28"
       style="fill:#ffffff" />
  </g>
</svg>
