<svg width="64" height="64" viewBox="0 0 64 64" fill="none" xmlns="http://www.w3.org/2000/svg">
<g clip-path="url(#clip0_1649_10178)">
<path fill-rule="evenodd" clip-rule="evenodd" d="M32 64C49.6731 64 64 49.6731 64 32C64 14.3269 49.6731 0 32 0C14.3269 0 0 14.3269 0 32C0 49.6731 14.3269 64 32 64ZM38.7725 13.3333C42.2412 13.9155 45.5643 14.9586 48.6935 16.3897C54.127 24.3218 56.822 33.297 55.7789 43.6302C51.6287 46.6623 47.5776 48.5059 43.6238 49.7189C42.6535 48.409 41.7802 47.0021 41.0282 45.5223C42.4595 44.9888 43.8178 44.3338 45.1277 43.5575C44.8916 43.3889 44.6672 43.2086 44.4382 43.0246C44.3379 42.944 44.2367 42.8627 44.1332 42.7813C36.3224 46.3958 27.7573 46.3958 19.8495 42.7813C19.5342 43.0483 19.1946 43.3151 18.855 43.5575C20.1648 44.3338 21.5232 44.9888 22.9544 45.5223C22.2024 47.0021 21.3292 48.409 20.3589 49.7189C16.4025 48.5059 12.3758 46.6623 8.20365 43.6302C7.35465 34.7037 9.05266 25.6559 15.3352 16.3897C18.4425 14.9586 21.7658 13.9155 25.2587 13.3333C25.6711 14.0853 26.1805 15.1041 26.5201 15.9046C30.1587 15.3709 33.8216 15.3709 37.5111 15.9046C37.8506 15.1041 38.3356 14.0853 38.7725 13.3333ZM19.7282 33.3211C19.7282 35.9652 21.6687 38.124 24.046 38.124C26.4474 38.124 28.3636 35.9652 28.3636 33.3211C28.4121 30.6772 26.4474 28.5182 24.046 28.5182C21.6202 28.5182 19.7282 30.6772 19.7282 33.3211ZM35.6649 33.3211C35.6649 35.9652 37.6079 38.124 39.9853 38.124C42.4111 38.124 44.3029 35.9652 44.3029 33.3211C44.3515 30.6772 42.3867 28.5182 39.9853 28.5182C37.5595 28.5182 35.6649 30.6772 35.6649 33.3211Z" fill="#7289DA"/>
</g>
<defs>
<clipPath id="clip0_1649_10178">
<rect width="64" height="64" fill="white"/>
</clipPath>
</defs>
</svg>
