<svg width="64" height="64" viewBox="0 0 64 64" fill="none" xmlns="http://www.w3.org/2000/svg">
<g clip-path="url(#clip0_1649_10127)">
<path fill-rule="evenodd" clip-rule="evenodd" d="M32 0.800171C14.4 0.800171 0 15.2002 0 32.8002C0 46.9335 9.06667 58.9335 21.8667 63.2002C23.4667 63.4668 24 62.4002 24 61.6002C24 60.8002 24 58.9335 24 56.2668C15.2 58.1335 13.3333 52.0002 13.3333 52.0002C12 48.2668 9.86667 47.2002 9.86667 47.2002C6.66667 45.3335 9.86667 45.3335 9.86667 45.3335C13.0667 45.6002 14.6667 48.5335 14.6667 48.5335C17.6 53.3335 22.1333 52.0002 24 51.2002C24.2667 49.0668 25.0667 47.7335 26.1333 46.9335C18.9333 46.1335 11.4667 43.4668 11.4667 31.2002C11.4667 27.7335 12.8 24.8002 14.6667 22.6668C14.6667 21.6002 13.3333 18.4002 15.2 14.1335C15.2 14.1335 17.8667 13.3335 24 17.3335C26.6667 16.5335 29.3333 16.2668 32 16.2668C34.6667 16.2668 37.3333 16.5335 40 17.3335C46.1333 13.0668 48.8 14.1335 48.8 14.1335C50.6667 18.6668 49.3333 21.8668 49.0667 22.6668C51.2 24.8002 52.2667 27.7335 52.2667 31.2002C52.2667 43.4668 44.8 46.1335 37.6 46.9335C38.6667 48.0002 39.7333 49.8668 39.7333 52.8002C39.7333 57.0668 39.7333 60.5335 39.7333 61.6002C39.7333 62.4002 40.2667 63.4668 41.8667 63.2002C54.6667 58.9335 63.7333 46.9335 63.7333 32.8002C64 15.2002 49.6 0.800171 32 0.800171Z" fill="#24292E"/>
</g>
<defs>
<clipPath id="clip0_1649_10127">
<rect width="64" height="64" fill="white"/>
</clipPath>
</defs>
</svg>
